<svg id="Flat" height="512" viewBox="0 0 340 340" width="512" xmlns="http://www.w3.org/2000/svg" xmlns:xlink="http://www.w3.org/1999/xlink"><linearGradient id="linear-gradient" gradientUnits="userSpaceOnUse" x1="-9.419" x2="231.434" y1="8.265" y2="206.656"><stop offset="0" stop-color="#b9c9fa"/><stop offset="1" stop-color="#7280ba"/></linearGradient><linearGradient id="linear-gradient-2" gradientUnits="userSpaceOnUse" x1="336.645" x2="211.735" y1="299.139" y2="196.328"><stop offset="0" stop-color="#bac7fa"/><stop offset="1" stop-color="#e8f1ff"/></linearGradient><linearGradient id="linear-gradient-3" x1="324.199" x2="201.985" xlink:href="#linear-gradient-2" y1="314.496" y2="213.904"/><linearGradient id="New_Gradient_Swatch_7" gradientUnits="userSpaceOnUse" x1="54.229" x2="58.975" y1="18.737" y2="71.377"><stop offset="0" stop-color="#6b6b98"/><stop offset="1" stop-color="#3c3c6b"/></linearGradient><linearGradient id="linear-gradient-4" gradientUnits="userSpaceOnUse" x1="20.344" x2="33.371" y1="-13.585" y2="50.655"><stop offset="0" stop-color="#ff827b"/><stop offset="1" stop-color="#ea5936"/></linearGradient><linearGradient id="linear-gradient-5" x1="53.113" x2="72.868" xlink:href="#linear-gradient-4" y1="130.475" y2="84.475"/><linearGradient id="linear-gradient-6" gradientUnits="userSpaceOnUse" x1="180.498" x2="346.009" y1="61.344" y2="172.578"><stop offset="0" stop-color="#ff4c74"/><stop offset="1" stop-color="#ff6ba2"/></linearGradient><linearGradient id="linear-gradient-7" gradientUnits="userSpaceOnUse" x1="81.147" x2="185.922" y1="335.189" y2="159.457"><stop offset="0" stop-color="#eba691"/><stop offset="1" stop-color="#ffe6c5"/></linearGradient><linearGradient id="New_Gradient_Swatch_18" gradientUnits="userSpaceOnUse" x1="147.091" x2="123.563" y1="159.144" y2="222.277"><stop offset="0" stop-color="#c57881"/><stop offset="1" stop-color="#964954"/></linearGradient><linearGradient id="linear-gradient-8" gradientUnits="userSpaceOnUse" x1="404.403" x2="113.857" y1="263.235" y2="54.019"><stop offset="0" stop-color="#af0036"/><stop offset="1" stop-color="#ce026b"/></linearGradient><linearGradient id="linear-gradient-9" gradientUnits="userSpaceOnUse" x1="140.074" x2="76.84" y1="65.418" y2="69.393"><stop offset="0" stop-color="#ffa753"/><stop offset="1" stop-color="#ffd3ac"/></linearGradient><path d="m128.609 100.368-33.712-33.065-27.594 27.594 17.623 17.968z" fill="url(#linear-gradient)"/><path d="m152.173 123.48-23.564-23.112a117.726 117.726 0 0 0 -43.683 12.5l33.75 34.409a173.4 173.4 0 0 1 33.497-23.797z" fill="url(#linear-gradient-2)"/><path d="m322.746 295.858a14.232 14.232 0 0 0 -4.236-9.229l-75.065-73.629a2.929 2.929 0 0 0 -4.971 1.815c-.543 5.884-1.288 12.4-2.316 19.289 0 0-1.688 14.5 5.427 35.806a18.343 18.343 0 0 0 4.282 7.039l40.762 41.558a14.232 14.232 0 0 0 9.229 4.236l28.771 1.883z" fill="url(#linear-gradient-3)"/><path d="m42.34 31.516-10.824 10.824 32.386 40.802 9.62-9.62 9.62-9.62z" fill="url(#New_Gradient_Swatch_7)"/><path d="m42.34 31.516a13.6 13.6 0 1 0 -10.824 10.824s7.453-1.355 10.824-10.824z" fill="url(#linear-gradient-4)"/><path d="m68.969 68.969c-24.57 24.57-18.5 55.275-16.218 63.674a1.931 1.931 0 0 0 2.7 1.24l14.249-6.813a1.664 1.664 0 0 0 .892-1.865c-2.863-13.437 4.072-28.521 15.081-39.53a40.814 40.814 0 0 0 -16.704-16.706z" fill="url(#linear-gradient-5)"/><path d="m184.511 125.752s-13.593-25.988 8-48.377c10.742-11.139 16.436-20.992 19.446-28.081a1.532 1.532 0 0 1 2.278-.672c2.92 2.021 8.665 7.627 7.462 19.957 0 0 26.788-11.194 52.775 4.8 0 0 13.576 6.266 24.488 3.856a1.535 1.535 0 0 1 1.8 1.9c-1.086 4.077-4.42 11.806-14.3 13.839 0 0 23.589 14.393 12.4 53.174-3.317 11.491-4 20-2.917 26.24 0 0-4.684 14.942-10.3 15.15-36.17 1.34-22.265-28.175-22.265-28.175s.95-43.845-28.827-35.831a27.686 27.686 0 0 0 -6.957 2.376c-8.689 5.023-22.789 11.1-34.28 6.247z" fill="url(#linear-gradient-6)"/><path d="m224.562 255.449a45.655 45.655 0 0 0 -3.071-8.744 27.2 27.2 0 0 1 -2.181-15.739c3.951-26.079 9.968-98.9-42.819-113.383a62.82 62.82 0 0 0 -30.781-.311c-12.112 2.806-29.906 9.268-45.172 24.113a70.63 70.63 0 0 0 -20.844 43.378c-.65 6.254-1.408 14.126-2.171 23.306a2.091 2.091 0 0 0 2.954 2.079c11.8-5.435 31.995-14.047 54.737-21.836 0 0 6.246 40.329-39.086 59.9a71.871 71.871 0 0 0 -14.152 8.547 20.291 20.291 0 0 0 -8.155 15.67c-.259 8.113-.446 16.515-.536 25.138 0 0-.583 9.394-4.315 16.733-1.6 3.15 11.006 8.717 13.775 6.479 15-12.128 65.77-49.032 133.436-54.01a9.237 9.237 0 0 0 8.381-11.32z" fill="url(#linear-gradient-7)"/><path d="m136.127 227.14c11.984-14 14.574-34.587 15.125-41.863a1.759 1.759 0 0 0 -2.342-1.79l-15.6 5.5s4.516 39.576-37.185 59.231c11.975-3.6 25.562-10.9 31.974-14.546a30.075 30.075 0 0 0 8.028-6.532z" fill="url(#New_Gradient_Swatch_18)"/><path d="m295.957 172.379c-12.265 11.351-29.344-1.568-27.244-16.395 2.587-18.243-4.713-26.453-4.713-26.453a34.5 34.5 0 0 1 10.794 1.216c-14.963-17.315-31.655-11.936-40.249-7.215a18.517 18.517 0 0 1 19.578 10.952 29.3 29.3 0 0 1 1.524 4.657 25.249 25.249 0 0 1 -.394 12.752c-6.11 21.593-6.623 43.859 13.218 53.421 27.269 13.142 45.9-6.924 51.674-14.5a1.54 1.54 0 0 0 -1.283-2.47c-10.094.392-20.569-2.574-22.905-15.965z" fill="url(#linear-gradient-8)"/><path d="m127.07 69.7 6.813-14.254a1.931 1.931 0 0 0 -1.24-2.7c-8.4-2.281-39.1-8.352-63.674 16.218l16.766 16.652c11-10.975 26.057-17.88 39.469-15.022a1.665 1.665 0 0 0 1.866-.894z" fill="url(#linear-gradient-9)"/></svg>