<?xml version="1.0" encoding="iso-8859-1"?>
<!-- Generator: Adobe Illustrator 19.0.0, SVG Export Plug-In . SVG Version: 6.00 Build 0)  -->
<svg version="1.1" id="Capa_1" xmlns="http://www.w3.org/2000/svg" xmlns:xlink="http://www.w3.org/1999/xlink" x="0px" y="0px"
	 viewBox="0 0 512 512" style="enable-background:new 0 0 512 512;" xml:space="preserve">
<g>
	<rect x="432.552" y="353.103" style="fill:#5E5F62;" width="35.31" height="130.383"/>
	<path style="fill:#CC4B4C;" d="M353.103,70.621v300.138L176.552,512L0,370.759V70.621C141.241,97.103,176.552,0,176.552,0
		S211.862,97.103,353.103,70.621z"/>
	<path style="fill:#BDC3C7;" d="M35.31,353.784V110.259c3.741,0.164,7.437,0.247,11.086,0.25c64.543,0,105.431-24.75,130.164-49.44
		c24.724,24.69,65.612,49.431,130.147,49.44h0.026c3.638,0,7.325-0.083,11.06-0.25v243.526l-141.241,113L35.31,353.784z"/>
	<path style="fill:#CC4B4C;" d="M264.828,185.379H220.69c-4.875,0-8.828-3.952-8.828-8.828v-35.31c0-4.875-3.952-8.828-8.828-8.828
		h-52.966c-4.875,0-8.828,3.952-8.828,8.828v35.31c0,4.875-3.952,8.828-8.828,8.828H88.276c-4.875,0-8.828,3.952-8.828,8.828v52.966
		c0,4.875,3.952,8.828,8.828,8.828h44.138c4.875,0,8.828,3.952,8.828,8.828v123.586c0,4.875,3.952,8.828,8.828,8.828h52.966
		c4.875,0,8.828-3.952,8.828-8.828V264.828c0-4.875,3.952-8.828,8.828-8.828h44.138c4.875,0,8.828-3.952,8.828-8.828v-52.966
		C273.655,189.332,269.703,185.379,264.828,185.379z"/>
	<circle style="fill:#F29C1F;" cx="450.207" cy="485.517" r="26.483"/>
	<polygon style="fill:#95A5A5;" points="494.345,344.276 406.069,344.276 406.069,52.966 450.887,0 494.345,52.966 	"/>
	<g>
		<path style="fill:#BDC3C7;" d="M450.207,344.276c-2.342,0.001-4.588-0.928-6.244-2.584c-1.656-1.656-2.585-3.902-2.584-6.244
			V150.069c0-4.875,3.952-8.828,8.828-8.828c4.875,0,8.828,3.952,8.828,8.828v185.379c0.001,2.342-0.928,4.588-2.584,6.244
			C454.795,343.348,452.549,344.277,450.207,344.276z"/>
		<path style="fill:#BDC3C7;" d="M450.207,123.586c-2.342,0.001-4.588-0.928-6.244-2.584c-1.656-1.656-2.585-3.902-2.584-6.244
			V88.276c0-4.875,3.952-8.828,8.828-8.828c4.875,0,8.828,3.952,8.828,8.828v26.483c0.001,2.342-0.928,4.588-2.584,6.244
			C454.795,122.658,452.549,123.588,450.207,123.586z"/>
	</g>
	<path style="fill:#F29C1F;" d="M406.069,335.448h88.276c9.751,0,17.655,7.905,17.655,17.655l0,0
		c0,9.751-7.905,17.655-17.655,17.655h-88.276c-9.751,0-17.655-7.904-17.655-17.655l0,0
		C388.414,343.353,396.318,335.448,406.069,335.448z"/>
</g>
<g>
</g>
<g>
</g>
<g>
</g>
<g>
</g>
<g>
</g>
<g>
</g>
<g>
</g>
<g>
</g>
<g>
</g>
<g>
</g>
<g>
</g>
<g>
</g>
<g>
</g>
<g>
</g>
<g>
</g>
</svg>
