<svg id="Layer_1" enable-background="new 0 0 48 48" height="512" viewBox="0 0 48 48" width="512" xmlns="http://www.w3.org/2000/svg"><path d="m8 28c-2.209 0-4-1.791-4-4s1.791-4 4-4zm32 0c2.209 0 4-1.791 4-4s-1.791-4-4-4z" fill="#e2c49c"/><path d="m4.101 24.899c-.065-.288-.101-.591-.101-.899 0-2.209 1.791-4 4-4v1zm39.546-2.545c-.628-1.389-2.024-2.354-3.647-2.354v6z" fill="#efe6e1"/><circle cx="24" cy="24" fill="#f2d6ad" r="18"/><path d="m36.728 11.272c-3.257-3.257-7.757-5.272-12.728-5.272-9.941 0-18 8.059-18 18 0 4.971 2.015 9.471 5.272 12.728z" fill="#fcf6f2"/><path d="m30 36h-12c-.552 0-1-.448-1-1s.448-1 1-1h12c.552 0 1 .448 1 1s-.448 1-1 1z" fill="#828282"/><circle cx="16" cy="22" fill="#4c9933" r="7"/><path d="m11.05 26.95 9.899-9.899c-1.266-1.267-3.016-2.051-4.949-2.051-3.866 0-7 3.134-7 7 0 1.933.784 3.683 2.05 4.95z" fill="#73b557"/><circle cx="16" cy="22" fill="#74cc5e" r="5"/><path d="m16 17c-2.761 0-5 2.239-5 5 0 1.381.56 2.631 1.464 3.535l7.071-7.071c-.904-.904-2.154-1.464-3.535-1.464z" fill="#a8ea92"/><circle cx="32" cy="22" fill="#4c9933" r="7"/><path d="m27.05 26.95 9.899-9.899c-1.266-1.267-3.016-2.051-4.949-2.051-3.866 0-7 3.134-7 7 0 1.933.784 3.683 2.05 4.95z" fill="#73b557"/><circle cx="32" cy="22" fill="#74cc5e" r="5"/><path d="m32 17c-2.761 0-5 2.239-5 5 0 1.381.56 2.631 1.464 3.535l7.071-7.071c-.904-.904-2.154-1.464-3.535-1.464z" fill="#a8ea92"/><circle cx="32" cy="22" fill="#4c9933" r="3"/><path d="m32 19c-1.657 0-3 1.343-3 3 0 .828.336 1.578.879 2.121l4.242-4.242c-.543-.543-1.293-.879-2.121-.879z" fill="#73b557"/><circle cx="32" cy="22" fill="#74cc5e" r="1"/><path d="m32 21c-.552 0-1 .448-1 1 0 .276.112.526.293.707l1.414-1.414c-.181-.181-.431-.293-.707-.293z" fill="#a8ea92"/><circle cx="16" cy="22" fill="#4c9933" r="3"/><path d="m16 19c-1.657 0-3 1.343-3 3 0 .828.336 1.578.879 2.121l4.242-4.242c-.543-.543-1.292-.879-2.121-.879z" fill="#73b557"/><circle cx="16" cy="22" fill="#74cc5e" r="1"/><path d="m16 21c-.552 0-1 .448-1 1 0 .276.112.526.293.707l1.414-1.414c-.181-.181-.431-.293-.707-.293z" fill="#a8ea92"/></svg>