<svg xmlns="http://www.w3.org/2000/svg" viewBox="0 0 460 460" width="460" height="460">
	<style>
		tspan { white-space:pre }
		.shp0 { fill: #ffffff } 
		.shp1 { fill: #6be0f4 } 
		.shp2 { fill: #0b389c } 
		.shp3 { fill: #4370d9 } 
		.shp4 { fill: #07215c } 
		.shp5 { fill: #ffb500 } 
	</style>
	<g id="Layer">
		<path id="Layer" class="shp0" d="M110.1 230C110.1 186.03 135.59 147.6 172.07 126.73C120.49 142.55 74.98 179.07 45.43 230C74.98 280.92 120.48 317.44 172.06 333.26C135.58 312.38 110.1 273.96 110.1 230Z" />
		<path id="Layer" class="shp1" d="M294.37 128.83C327.76 150.12 349.9 187.47 349.9 230C349.9 272.54 327.75 309.9 294.35 331.18C343.28 314.38 386.25 278.8 414.57 230C386.25 181.2 343.29 145.63 294.37 128.83Z" />
		<path id="Layer" class="shp2" d="M349.9 230C349.9 187.47 327.75 150.12 294.37 128.83C274.39 121.97 253.41 118.24 232.04 118.02L232.04 175.22C233.49 175.22 234.92 175.29 236.33 175.4C242.03 164.4 252.96 156.96 266.52 156.96C286.66 156.96 303.04 173.34 303.04 193.48C303.04 207.05 295.6 218.91 284.58 225.2C284.71 226.78 284.78 228.38 284.78 230C284.78 260.2 262.24 284.78 232.04 284.78L232.04 341.98C253.41 341.76 274.38 338.04 294.35 331.18C327.75 309.9 349.9 272.54 349.9 230Z" />
		<path id="Layer" class="shp3" d="M175.22 230C175.22 199.8 201.83 175.22 232.04 175.22L232.04 118.02C231.36 118.01 230.68 118 230 118C210.21 118 190.74 121.01 172.08 126.73C135.59 147.6 110.1 186.03 110.1 230C110.1 273.96 135.58 312.38 172.06 333.26C190.73 338.99 210.2 342 230 342C230.68 342 231.36 341.99 232.04 341.98L232.04 284.78C201.83 284.78 175.22 260.2 175.22 230Z" />
		<path id="Layer" class="shp4" d="M175.22 230C175.22 260.2 201.83 284.78 232.04 284.78C262.24 284.78 284.78 260.2 284.78 230C284.78 228.38 284.71 226.78 284.58 225.2C279.25 228.25 273.09 230 266.52 230C246.39 230 232.04 213.61 232.04 193.48C232.04 186.91 233.57 180.74 236.33 175.4C234.92 175.29 233.49 175.22 232.04 175.22C201.83 175.22 175.22 199.8 175.22 230Z" />
		<path id="Layer" class="shp0" d="M266.52 230C273.09 230 279.25 228.25 284.58 225.2C295.59 218.91 303.04 207.05 303.04 193.48C303.04 173.34 286.66 156.96 266.52 156.96C252.96 156.96 242.03 164.4 236.33 175.4C233.57 180.74 232.04 186.91 232.04 193.48C232.04 213.61 246.39 230 266.52 230Z" />
		<path id="Layer" class="shp5" d="M45.43 230C74.98 179.07 120.49 142.55 172.08 126.73C190.74 121.01 210.21 118 230 118C230.68 118 231.36 118.01 232.04 118.02C253.41 118.24 274.39 121.97 294.37 128.83C343.29 145.63 386.25 181.2 414.57 230L460 230L455.12 220.71C432.85 178.27 400.76 142.63 362.32 117.64C322.41 91.71 276.66 78 230 78C183.34 78 137.59 91.71 97.69 117.64C59.24 142.63 27.15 178.27 4.88 220.71L0 230L45.43 230Z" />
		<path id="Layer" class="shp5" d="M414.57 230C386.25 278.8 343.28 314.38 294.35 331.18C274.38 338.04 253.41 341.76 232.04 341.98C231.36 341.99 230.68 342 230 342C210.2 342 190.73 338.99 172.06 333.26C120.48 317.44 74.98 280.92 45.43 230L0 230L4.88 239.29C27.15 281.73 59.24 317.37 97.69 342.36C137.59 368.29 183.34 382 230 382C276.66 382 322.41 368.29 362.32 342.36C400.76 317.37 432.85 281.73 455.12 239.29L460 230L414.57 230Z" />
	</g>
	<g id="Layer">
	</g>
	<g id="Layer">
	</g>
	<g id="Layer">
	</g>
	<g id="Layer">
	</g>
	<g id="Layer">
	</g>
	<g id="Layer">
	</g>
	<g id="Layer">
	</g>
	<g id="Layer">
	</g>
	<g id="Layer">
	</g>
	<g id="Layer">
	</g>
	<g id="Layer">
	</g>
	<g id="Layer">
	</g>
	<g id="Layer">
	</g>
	<g id="Layer">
	</g>
	<g id="Layer">
	</g>
</svg>