<svg id="Flat" height="512" viewBox="0 0 340 340" width="512" xmlns="http://www.w3.org/2000/svg" xmlns:xlink="http://www.w3.org/1999/xlink"><linearGradient id="linear-gradient" gradientUnits="userSpaceOnUse" x1="144.657" x2="144.657" y1="73.678" y2="345.895"><stop offset="0" stop-color="#9ba4ff"/><stop offset=".5" stop-color="#b4dcff"/><stop offset="1" stop-color="#ebf8ff"/></linearGradient><linearGradient id="linear-gradient-2" x1="182.869" x2="40.126" xlink:href="#linear-gradient" y1="37.03" y2="119.856"/><linearGradient id="linear-gradient-3" x1="334.386" x2="185.093" xlink:href="#linear-gradient" y1="95.338" y2="58.809"/><linearGradient id="linear-gradient-4" x1="230.163" x2="230.163" xlink:href="#linear-gradient" y1="73.678" y2="345.895"/><linearGradient id="New_Gradient_Swatch_19" gradientUnits="userSpaceOnUse" x1="170" x2="170" y1="279.948" y2="119.122"><stop offset="0" stop-color="#7378aa"/><stop offset="1" stop-color="#44497d"/></linearGradient><path d="m124.359 80.252-74.685-18.4v126.435c0 86.544 120.326 136.513 120.326 136.513l69.64-123.885z" fill="url(#linear-gradient)"/><path d="m86.67 96.961h83.33v-81.761c-38.563 45.975-120.326 46.651-120.326 46.651l28.637 26.614z" fill="url(#linear-gradient-2)"/><path d="m170 15.2v79.833l91.689-6.568 28.637-26.614s-81.763-.676-120.326-46.651z" fill="url(#linear-gradient-3)"/><path d="m290.326 188.287v-126.436l-28.637 26.614-91.689 200.368v35.967s120.326-49.969 120.326-136.513z" fill="url(#linear-gradient-4)"/><path d="m170 52.916c-29.385 35.034-91.689 35.549-91.689 35.549v96.344c0 65.947 91.689 104.024 91.689 104.024s91.689-38.077 91.689-104.024v-96.344s-62.304-.515-91.689-35.549z" fill="url(#New_Gradient_Swatch_19)"/><path d="m230.769 148.076a5.752 5.752 0 0 0 -7.327-1.957c-4.169 2.078-11.5 4.428-22.24 3.321-9-.927-14.343-7.794-15.694-16.738a45.283 45.283 0 0 1 4.222-26.671 5.74 5.74 0 0 0 -2.2-7.324l-14.483-8.991a5.779 5.779 0 0 0 -6.094 0l-14.483 8.991a5.74 5.74 0 0 0 -2.2 7.324 45.275 45.275 0 0 1 4.222 26.671c-1.351 8.944-6.7 15.811-15.694 16.738-10.74 1.107-18.071-1.243-22.24-3.321a5.753 5.753 0 0 0 -7.327 1.957l-6.693 9.924a5.779 5.779 0 0 0 0 6.46l6.693 9.923a5.752 5.752 0 0 0 7.327 1.957c4.169-2.077 11.5-4.428 22.24-3.321a19.857 19.857 0 0 1 17.629 16.738c1.089 7.218-3.133 32.44-9.131 46.413a5.766 5.766 0 0 0 2.53 7.331l17.4 9.546a5.776 5.776 0 0 0 5.558 0l17.4-9.546a5.766 5.766 0 0 0 2.53-7.331c-6-13.973-10.22-39.2-9.131-46.413a19.857 19.857 0 0 1 17.617-16.739c10.74-1.107 18.071 1.244 22.24 3.321a5.752 5.752 0 0 0 7.327-1.957l6.693-9.923a5.779 5.779 0 0 0 0-6.46z" fill="#fff"/></svg>