<svg height="512" viewBox="0 0 58 58" width="512" xmlns="http://www.w3.org/2000/svg"><g id="Page-1" fill="none" fill-rule="evenodd"><g id="068---Gash" fill-rule="nonzero" transform="translate(-1 -1)"><path id="Shape" d="m38.83 48.39-1.13 6.15h-2.69c-4.49-1.48-8.48-3.56-7.11-3.38 2.66.35 2.35-.86-.62-2.42-1.216-.637-7.371-3.6-12.09-6.32.5 4.99 1.81 4.96 1.81 7.17.083337 1.1223534-.2975581 2.2297324-1.0536717 3.0633477-.7561136.8336152-1.8211909 1.3204208-2.9463283 1.3466523-1.1251374-.0262315-2.1902147-.5130371-2.9463283-1.3466523-.75611364-.8336153-1.13700867-1.9409943-1.0536717-3.0633477 0-2.54 1.73-2.12 1.97-9.74-1.438-.959-5.507-3.71-4.7-5.24 2.14-4.1 19.67 4.03 16.58 4.5-2.71.41 3.72 1.95 6.69 3.5 3.1951148 1.7637328 6.2959991 3.6930236 9.29 5.78z" fill="#e64c3c"/><path id="Shape" d="m11 37.74c0 .84-.01 1.4-.03 2.11-.72-.48-1.39-.95-1.98-1.41.01-.23.01-.46.01-.7 0-.5522847.44771525-1 1-1 .5522847 0 1 .4477153 1 1z" fill="#c03a2b"/><path id="Shape" d="m17.2 43.54c-.67-.36-1.35-.74-2.01-1.12-.08-1.21-.09-1.73-.11-2.93-.0110457-.5522847.4277153-1.0089543.98-1.02s1.0089543.4277153 1.02.98c.02.96.06 2.81.12 4.09z" fill="#c03a2b"/><path id="Shape" d="m58.89 43.94c-.7 1.348-3.243 1.151-4.75.96.45 5.51 1.86 5.4 1.86 7.69.1485369 1.5221502-.5797231 2.9966866-1.8787183 3.803914-1.2989952.8072273-2.9435682.8072273-4.2425634 0-1.2989952-.8072274-2.0272552-2.2817638-1.8787183-3.803914 0-2.41 1.55-2.16 1.92-8.6-2.6603676-.7618743-5.269068-1.6937916-7.81-2.79-.0012168.0369388.0021421.0738862.01.11.54 9.53 2.88 9.15 2.88 12.69 0 4-2 5-5 5s-5-1-5-5c0-3.77 2.66-3.1 2.97-14.71-1.622-.822-6.624-3.538-4.97-4.29 1.76-.8-1.55-2.62-6-5s-27.84-13.15-25.91-16.94c1.63-3.17 13.81 1.46 20.42 4.91l7.78 5.87c2.06.84 4.36 1.78 5.99 2.65 4.44 2.38 25.08 14.61 23.61 17.45z" fill="#c03a2b"/><path id="Shape" d="m55.57 22.39c-2.15 4.1-19.68-4.03-17.02-3.69s2.35-.86-.62-2.41c-1.5-.779-5.233-2.565-9.24-4.74.59 6.04 2.31 5.95 2.31 8.49.0296934 1.3313516-.4888929 2.6164329-1.4343088 3.5542855s-2.2346211 1.4461003-3.5656912 1.4057145c-1.3305721.0386389-2.6187558-.4701741-3.5637815-1.4076396s-1.464169-2.2215209-1.4362185-3.5523604c0-2.91 2.25-2.37 2.48-11.47-1.729-1.062-7.5-4.631-6.56-6.42 2.14-4.1 19.67 4.03 16.58 4.5-2.71.42 3.72 1.95 6.69 3.51s16.66 9.77 15.38 12.23z" fill="#e64c3c"/><g fill="#802f34"><path id="Shape" d="m37.97 39.29c-.73-.37-1.4-.73-2.01-1.09.01-.53.01-1.07.01-1.63 0-.5522847.4477153-1 1-1s1 .4477153 1 1c0 1.16.02 1.69 0 2.72z"/><path id="Shape" d="m44.15 42.03c-.69-.27-1.37-.55-2.04-.83-.06-1.57-.04-1.8-.05-3.25-.0026655-.2652204.1001435-.5206356.2858074-.7100502.1856638-.1894147.4389719-.2973109.7041926-.2999498h.01c.550248.0048866.9951134.449752 1 1 .01 1.33.04 2.66.09 4.09z"/><path id="Shape" d="m49.92 43.99c-.66-.19-1.33-.39-2.02-.61.02-.82.03-1.7.03-2.61 0-.5522847.4477153-1 1-1s1 .4477153 1 1c0 1.41.04 2.01-.01 3.22z"/><path id="Shape" d="m56.1 45.04c-.6555888-.0063625-1.3101626-.0531178-1.96-.14-.05-.82-.09-.86-.11-1.87-.0053577-.2652317.0948944-.5217232.2786913-.7130221.183797-.1912988.4360749-.3017263.7013087-.3069779h.02c.5445676-.0001089.9891087.4355413 1 .98.02.74.04 1.42.07 2.05z"/></g><path id="Shape" d="m23.5 6c0 .9-.01 1.76-.02 2.57-.7-.43-1.36-.85-1.99-1.28.01-.42.01-.85.01-1.29 0-.55228475.4477153-1 1-1s1 .44771525 1 1z" fill="#c03a2b"/><path id="Shape" d="m30.77 12.66c-.68-.36-1.38-.73-2.08-1.11-.08-.89-.13-1.66-.16-2.53-.008077-.26524948.0896089-.52283231.2715442-.71602144.1819354-.19318912.4331992-.30614033.6984558-.31397856.5446486.0030283.9943276.42651245 1.03.97.02.71.15 2.62.24 3.7z" fill="#c03a2b"/></g></g></svg>