<svg xmlns="http://www.w3.org/2000/svg" viewBox="0 0 512 512" width="512" height="512">
	<style>
		tspan { white-space:pre }
		.shp0 { fill: #f9d026;stroke: #c100ff;paint-order:stroke fill markers;stroke-width: 50 } 
		.shp1 { fill: #e7c224 } 
		.shp2 { fill: #d8d9dd } 
		.shp3 { fill: #b7b9c0 } 
	</style>
	<path id="Layer" class="shp0" d="M170.38 163.91L152.52 222.23L302.6 94.93L280.07 178.75L473 39L333.25 231.93L417.07 209.4L289.77 359.48L348.09 341.62C348.09 341.62 191.61 569.34 67.14 444.86C-57.34 320.39 170.38 163.91 170.38 163.91Z" />
	<path id="Layer" class="shp1" d="M333.25 231.93L417.07 209.4L289.77 359.48L348.09 341.62C348.09 341.62 191.61 569.34 67.14 444.86L473 39L333.25 231.93Z" />
	<path id="Layer" class="shp2" d="M232.85 417.39C217.55 432.68 201.66 450.4 171.09 450.4C140.52 450.4 122.83 447.3 106.67 443.9C62.75 434.65 66.44 368.89 69.59 350.74C72.63 333.27 76.62 308.25 92.22 292.65C107.81 277.06 130.74 252.91 147.86 252.91C164.98 252.91 191.88 252.91 207.17 252.91C222.45 252.91 246.3 268.2 253.63 296.32C260.97 324.45 271.67 378.56 232.85 417.39Z" />
	<g id="Layer">
		<path id="Layer" class="shp3" d="M240.68 271.32C246.33 277.96 251.03 286.33 253.63 296.32C260.97 324.45 271.67 378.56 232.85 417.39C217.55 432.68 201.66 450.4 171.09 450.4C140.52 450.4 122.83 447.3 106.67 443.9C96.26 441.7 88.53 436.33 82.82 429.18L240.68 271.32Z" />
	</g>
	<g id="Layer">
	</g>
</svg>