<svg xmlns="http://www.w3.org/2000/svg" viewBox="0 0 280 280" width="280" height="280">
	<style>
		tspan { white-space:pre }
		.shp0 { fill: #e2574c;stroke: #c100ff;paint-order:stroke fill markers;stroke-width: 50 } 
		.shp1 { fill: #cb4e44 } 
	</style>
	<g id="Layer">
		<path id="Layer" class="shp0" d="M234.05 60.88C200.28 27.11 166.8 41.87 140 65.96C113.19 41.87 79.99 26.85 45.95 60.88C19.41 87.4 19.29 130.03 45.95 156.4C139.71 240.75 139.69 240.6 139.69 240.6C139.69 240.6 139.82 240.87 234.04 156.4C260.72 130.02 260.58 87.4 234.05 60.88Z" />
		<path id="Layer" class="shp1" d="M140 65.95L139.93 65.9L139.93 240.39C141.44 239.12 152.49 229.52 234.04 156.4C260.71 130.02 260.58 87.4 234.04 60.88C200.28 27.11 166.8 41.87 140 65.95Z" />
	</g>
</svg>