<svg height="512pt" viewBox="-65 0 512 512.00044" width="512pt" xmlns="http://www.w3.org/2000/svg"><path d="m339.917969 121.636719-13.246094 5.421875-10.355469 10.359375c-32.339844-77.613281-79.75-120.046875-99.292968-135.113281l-8.234376 11.695312c-10.890624 20.855469-42.335937 72.332031-100.574218 98.445312l-6.777344-16.945312-15.984375-3c-23.167969 24.414062-76.5 83.503906-76.5 178.101562 0 33.296876 7.695313 74.917969 49.316406 108.214844l267.683594-8.324218c33.296875-33.296876 49.945313-66.59375 49.945313-108.214844 0-69.34375-24.609376-120.640625-35.980469-140.640625zm0 0" fill="#ffe07d"/><path d="m333.820312 119.910156-7.148437 7.148438c72.886719 168.515625-28.203125 225.964844-56.371094 245.332031l62.664063-1.898437c33.296875-33.296876 49.945312-66.59375 49.945312-108.214844 0-69.34375-24.613281-120.640625-35.984375-140.640625-2.71875-4.78125-9.214843-5.613281-13.105469-1.726563zm0 0" fill="#ffc269"/><path d="m101.4375 95.5-5.203125-13c-2.261719-5.65625-9.601563-7.023438-13.796875-2.605469-23.167969 24.414063-82.4375 96.109375-82.4375 190.707031 0 33.296876 16.648438 74.917969 58.269531 108.210938l79.460938-2.40625c-81.941407-18.519531-149.90625-145.261719-36.292969-280.90625zm0 0" fill="#ffc269"/><path d="m83.242188 278.925781s-33.296876-66.59375 45.089843-108.90625c43.726563-23.605469 71.289063-44.078125 82.433594-52.921875 3.035156-2.410156 7.496094-1.550781 9.472656 1.785156l27.402344 46.28125 17.886719-17.882812c2.726562-2.730469 7.191406-2.484375 9.570312.550781 14.082032 17.980469 55.085938 77.015625 41.21875 139.417969l-124.863281 58.269531zm0 0" fill="#fff5d7"/><path d="m112.121094 403.789062v24.96875c0 43.164063-4.351563 78.65625 37.714844 82.832032 2.734374.273437 5.511718.410156 8.324218.410156h66.589844c45.972656 0 83.242188-37.265625 83.242188-83.242188l-12.203126-24.96875zm0 0" fill="#e5646e"/><path d="m74.917969 403.789062v24.96875c0 43.164063 32.851562 78.648438 74.917969 82.828126v-24.558594c0-13.792969 11.179687-24.972656 24.96875-24.972656h83.242187c13.792969 0 24.972656-11.179688 24.972656-24.972657v-8.324219h24.972657v-24.96875zm0 0" fill="#db4655"/><path d="m336.542969 325.039062c-12.515625-48.792968-49.15625-87.648437-95.367188-104.097656-3.652343-1.300781-7.730469.253906-9.765625 3.546875l-16.878906 27.300781 16.542969 7.816407c2.058593.972656 3.625 2.746093 4.351562 4.902343.714844 2.160157.519531 4.515626-.546875 6.527344l-18.03125 33.988282c-1.496094 2.816406-4.378906 4.421874-7.363281 4.421874-1.316406 0-2.648437-.3125-3.894531-.972656-4.054688-2.152344-5.609375-7.191406-3.453125-11.253906l13.949219-26.28125-17.089844-8.070312c-2.144532-1.011719-3.753906-2.890626-4.429688-5.164063-.675781-2.273437-.339844-4.726563.902344-6.742187l18.394531-29.753907c1.914063-3.09375.015625-7.136719-3.59375-7.582031-.730469-.089844-1.503906-.179688-2.308593-.273438-4.730469-.523437-10.632813 1.355469-16.507813 1.355469-4.007813 0-31.183594 5.324219-35 6.792969-118 45.5-94.5 174.5-94.5 174.5l21.671875 16.113281h16.265625c9.195313 0 16.648437 7.453125 16.648437 16.644531v8.324219c0 4.597657 3.726563 8.324219 8.320313 8.324219h16.648437c4.5625 0 8.378907-3.660156 8.328126-8.21875-.058594-4.644531 3.6875-8.429688 8.320312-8.429688 4.601562 0 8.324219 3.730469 8.324219 8.324219 0 4.597657 3.726562 8.324219 8.324219 8.324219 4.597656 0 8.324218-3.726562 8.324218-8.324219 0-4.59375 3.722656-8.324219 8.324219-8.324219s8.324219 3.730469 8.324219 8.324219c0 4.597657 3.726562 8.324219 8.324218 8.324219 4.597657 0 8.324219-3.726562 8.324219-8.324219 0-4.59375 3.722657-8.324219 8.324219-8.324219 4.632812 0 8.378906 3.785157 8.320312 8.429688-.054687 4.558594 3.765626 8.21875 8.328126 8.21875h16.648437c4.59375 0 8.324219-3.726562 8.324219-8.324219v-8.324219c0-9.195312 7.453125-16.644531 16.644531-16.644531h37.222656c7.554688 0 14.226563-5.0625 16.148438-12.367187 6.082031-23.128906 6.914062-48.359375.15625-74.707032zm0 0" fill="#ff8086"/><g fill="#ffe07d"><path d="m208.101562 412.113281c-4.601562 0-8.324218-3.730469-8.324218-8.324219v-8.324218c0-4.597656 3.722656-8.324219 8.324218-8.324219 4.601563 0 8.324219 3.726563 8.324219 8.324219v8.324218c0 4.59375-3.722656 8.324219-8.324219 8.324219zm0 0"/><path d="m174.804688 412.113281c-4.597657 0-8.324219-3.730469-8.324219-8.324219v-8.324218c0-4.597656 3.726562-8.324219 8.324219-8.324219 4.601562 0 8.324218 3.726563 8.324218 8.324219v8.324218c0 4.59375-3.722656 8.324219-8.324218 8.324219zm0 0"/><path d="m266.496094 317.167969-38.457032 15.382812c-8.117187 3.246094-12.472656 12.265625-9.730468 20.566407 5.621094 17.015624 23.113281 28.632812 42.667968 25.046874 14.8125-2.714843 26.820313-14.707031 29.660157-29.492187 1.699219-8.824219.242187-17.144531-3.386719-24.171875-3.84375-7.441406-12.984375-10.441406-20.753906-7.332031zm0 0"/><path d="m116.414062 317.167969 38.457032 15.382812c8.113281 3.246094 12.46875 12.265625 9.726562 20.566407-5.621094 17.015624-23.109375 28.632812-42.667968 25.046874-14.808594-2.714843-26.816407-14.707031-29.660157-29.492187-1.695312-8.824219-.242187-17.144531 3.390625-24.171875 3.84375-7.441406 12.980469-10.441406 20.753906-7.332031zm0 0"/></g><path d="m74.917969 362.167969c0-77.066407 58.214843-140.457031 133.046875-148.816407-1.460938-.160156-2.917969-.425781-4.386719-.542968-4.078125-.316406-8.117187-.457032-12.125-.457032s-8.046875.140626-12.121094.457032c-63.238281 4.972656-117.207031 50.789062-132.96875 112.230468-6.753906 26.34375-5.925781 51.574219.152344 74.703126 1.921875 7.304687 8.59375 12.371093 16.152344 12.371093h20.957031c-5.539062-15.644531-8.707031-32.40625-8.707031-49.945312zm0 0" fill="#e5646e"/><path d="m257.210938 320.882812-19.832032 7.929688c-2.664062 3.496094-4.304687 7.8125-4.304687 12.546875 0 11.492187 9.316406 20.808594 20.8125 20.808594 11.492187 0 20.808593-9.316407 20.808593-20.808594 0-10.359375-7.582031-18.878906-17.484374-20.476563zm0 0" fill="#fff5d7"/><path d="m108.214844 341.355469c0 11.492187 9.316406 20.8125 20.808594 20.8125 11.492187 0 20.808593-9.320313 20.808593-20.8125 0-4.730469-1.640625-9.046875-4.300781-12.542969l-19.832031-7.933594c-9.902344 1.601563-17.484375 10.121094-17.484375 20.476563zm0 0" fill="#fff5d7"/><path d="m217.019531 2.308594c-.25-.191406-.550781-.433594-.792969-.617188-4.09375-3.121094-9.976562-1.7656248-12.355468 2.796875-10.890625 20.855469-42.773438 74.902344-95.65625 107.957031l1.503906 4.511719c3.574219 10.722657 16.519531 14.871094 25.628906 8.179688 25.839844-18.96875 70.402344-59.921875 81.671875-122.828125zm0 0" fill="#ffc269"/></svg>