<svg id="Capa_1" enable-background="new 0 0 496.907 496.907" height="512" viewBox="0 0 496.907 496.907" width="512" xmlns="http://www.w3.org/2000/svg"><g><g><path d="m485.841 143.971c-2.973-66.636-57.92-119.751-125.289-119.751-53.397 0-98.971 33.381-117.071 80.401-18.1-47.02-63.674-80.401-117.071-80.401-66.172 0-120.337 51.251-125.06 116.218-18.854 109.528 164.978 276.891 221.453 325.363 9.345 8.021 23.113 8.131 32.588.263 57.817-48.013 247.809-214.973 230.45-322.093z" fill="#e8c2d8"/><path d="m485.841 143.972c-2.973-66.637-57.92-119.752-125.289-119.752-21.763 0-54.836 6.485-79.64 28.551 71.961-5.757 110.727 22.226 121.613 82.219s-77.499 156.263-140.664 214.146c-34.028 31.183-78.537 29.869-115.317 2.005-33.091-25.069-92.973-69.504-120.122-108.091 8.704 19.728 34.34 53.393 44.228 66.438 52.968 68.324 121.416 129.924 152.151 156.309 9.347 8.024 23.115 8.137 32.592.267 57.818-48.016 247.806-214.974 230.448-322.092z" fill="#d392d8"/><g><path d="m57.785 212.861c-4.094 0-7.935-2.533-9.406-6.605-6.495-17.979-15.384-53.188-1.933-86.996 2.043-5.132 7.858-7.635 12.989-5.595 5.131 2.041 7.636 7.857 5.595 12.988-8.042 20.212-7.255 46.749 2.159 72.807 1.876 5.194-.813 10.926-6.008 12.803-1.121.406-2.268.598-3.396.598z" fill="#fff"/></g><g><path d="m79.714 96.211c-2.654 0-5.302-1.05-7.269-3.13-3.794-4.013-3.616-10.342.396-14.136 4.514-4.267 9.29-8.034 12.946-10.84 4.379-3.362 10.659-2.535 14.021 1.847 3.362 4.381 2.535 10.659-1.847 14.021-3.275 2.513-7.53 5.865-11.38 9.505-1.931 1.827-4.402 2.733-6.867 2.733z" fill="#fff"/></g><g><path d="m324.921 219.923c-3.314 0-6-2.686-6-6v-12.283c0-3.314 2.686-6 6-6 3.313 0 6 2.686 6 6v12.283c0 3.314-2.686 6-6 6z" fill="#c56cb7"/></g><g><path d="m367.584 195.895c-3.313 0-6-2.687-6-6v-12.282c0-3.313 2.687-6 6-6 3.314 0 6 2.687 6 6v12.282c0 3.313-2.686 6-6 6z" fill="#c56cb7"/></g><g><path d="m352.873 252.778c-3.314 0-6-2.686-6-6v-12.282c0-3.314 2.686-6 6-6 3.313 0 6 2.686 6 6v12.282c0 3.314-2.686 6-6 6z" fill="#c56cb7"/></g><g><path d="m288.633 309.663c-3.314 0-6-2.686-6-6v-12.283c0-3.313 2.686-6 6-6 3.313 0 6 2.687 6 6v12.283c0 3.313-2.686 6-6 6z" fill="#c56cb7"/></g></g><path d="m50.926 390.692 8.246 23.186c.353.993 1.052 1.779 1.934 2.177l20.6 9.281c2.91 1.311 2.91 5.948 0 7.259l-20.6 9.281c-.882.397-1.581 1.184-1.934 2.177l-8.246 23.186c-1.165 3.276-5.285 3.276-6.45 0l-8.246-23.186c-.353-.993-1.052-1.779-1.934-2.177l-20.6-9.281c-2.91-1.311-2.91-5.948 0-7.259l20.6-9.281c.882-.397 1.581-1.184 1.934-2.177l8.246-23.186c1.165-3.276 5.285-3.276 6.45 0z" fill="#e8c2d8"/><path d="m472.456 340.139 6.117 17.199c.262.736.78 1.32 1.435 1.615l15.281 6.884c2.159.973 2.159 4.412 0 5.385l-15.281 6.885c-.654.295-1.173.878-1.435 1.615l-6.117 17.199c-.864 2.43-3.92 2.43-4.784 0l-6.117-17.199c-.262-.736-.78-1.32-1.435-1.615l-15.281-6.885c-2.159-.973-2.159-4.412 0-5.385l15.281-6.884c.654-.295 1.173-.878 1.435-1.615l6.117-17.199c.864-2.43 3.92-2.43 4.784 0z" fill="#e8c2d8"/><ellipse cx="399.379" cy="464.921" fill="#d789b9" rx="7.767" ry="7.767" transform="matrix(.924 -.383 .383 .924 -147.516 188.225)"/></g></svg>