<?xml version="1.0" encoding="UTF-8"?>
<svg xmlns="http://www.w3.org/2000/svg" xmlns:xlink="http://www.w3.org/1999/xlink" width="512" height="512" viewBox="0 0 60 59" version="1.1"><!-- Generator: Sketch 51.3 (57544) - http://www.bohemiancoding.com/sketch --><title>006 - Confusion</title><desc>Created with Sketch.</desc><defs/><g id="Page-1" stroke="none" stroke-width="1" fill="none" fill-rule="evenodd"><g id="006---Confusion" fill-rule="nonzero"><path d="M18.72,51.3 C22.149,52.851 23.652,59 23.652,59 L48.746,58.931 C48.2755957,57.9544122 47.7410951,57.0100165 47.146,56.104 C46.6725523,55.1351747 46.2756732,54.1307732 45.959,53.1 C45.3713088,51.1113891 44.9643241,49.073788 44.743,47.012 C44.3709743,43.844112 44.8486519,40.634284 46.127,37.712 C47.254,35.142 49.211,33.106 50.703,30.753 C52.1821574,28.4555352 52.9787015,25.7853611 53,23.053 C53.056116,20.285616 52.7166887,17.5244021 51.992,14.853 C51.0439103,11.6166836 49.0658224,8.77805373 46.358,6.768 C41.4,2.88 36.342,0.706 29.938,1.032 C26.7328989,1.25512845 23.5484062,1.7123478 20.41,2.4 C16.992,3.088 13.373,4.366 10.92,6.956 C9.24666038,8.74409793 7.95386958,10.8533882 7.12,13.156 C6.72915176,14.3014161 6.41118297,15.470419 6.168,16.656 C5.75858569,17.9487526 5.26451756,19.2131528 4.689,20.441 C4.5196763,20.814028 4.44579184,21.2233135 4.474,21.632 C4.666,23.016 6.742,23.611 6.759,25.038 C6.73675722,25.3532587 6.63974717,25.6586861 6.476,25.929 C5.25897289,28.4999033 3.76549632,30.930575 2.022,33.178 C1.61,33.683 0.774,34.678 0.878,35.392 C0.952,35.899 1.56,36.32 1.935,36.599 C2.735,37.193 4.364,37.599 4.567,38.671 C4.67208167,39.2169291 4.60607672,39.7819874 4.378,40.289 C3.825,41.456 3.212,42.078 3.647,42.444 C4.082,42.81 5.247,43.689 5.247,43.689 C5.247,43.689 4.14,45.103 4.753,45.537 C5.513,46.077 6.481,46.326 6.739,47.337 C6.81580147,48.1381317 6.73563877,48.9465522 6.503,49.717 C6.42489413,50.4709685 6.52349984,51.2327661 6.791,51.942 C7.15504357,53.3575719 8.57041671,54.2344064 10,53.93 C12.9521039,53.2117262 15.8630511,52.3337685 18.72,51.3" id="Shape" fill="#B49ACA"/><path d="M10.1,17.467 C9.83577449,17.4099931 9.60588112,17.2484489 9.46270432,17.0191777 C9.31952752,16.7899064 9.27526406,16.5124389 9.34,16.25 C9.49723377,15.5559286 9.6942252,14.8714669 9.93,14.2 C10.6254989,12.2743503 11.7038474,10.5095325 13.1,9.012 C14.722,7.3 17.385,6.06 21.014,5.338 C21.5503166,5.24344704 22.0636884,5.59542981 22.1688144,6.12977454 C22.2739403,6.66411927 21.9321645,7.18434211 21.4,7.3 C18.186,7.939 15.881,8.978 14.548,10.386 C13.3395494,11.6858491 12.4062067,13.2164768 11.804,14.886 C11.5945574,15.4871971 11.4196061,16.0998605 11.28,16.721 C11.1540333,17.2485033 10.6305486,17.5794521 10.1,17.467 Z" id="Shape" fill="#ECF0F1"/><circle id="Oval" fill="#ECF0F1" cx="8.869" cy="21" r="1"/><path d="M46,36 C43.790861,36 42,34.209139 42,32 L42,23.79 C42.0290856,21.671437 43.7673722,19.9760931 45.886,20 L46,20 C48.3552166,20.002608 50.4941417,18.6270348 51.4687865,16.4829454 C52.4434314,14.338856 52.07352,11.8228338 50.523,10.05 C49.0919864,8.41482899 46.8892499,7.68028704 44.7632276,8.12930064 C42.6372052,8.57831423 40.9196043,10.1408272 40.272,12.215 C39.8172998,13.6484105 38.5956502,14.704669 37.1115914,14.9475419 C35.6275325,15.1904147 34.1329095,14.5786864 33.245,13.365 C32.4786712,12.3228148 32.2612819,10.9752988 32.661,9.745 C34.5000813,3.93078402 39.9018786,-0.0155773896 46,0 C46.5312043,0.000455594629 47.0619898,0.0298324042 47.59,0.088 C54.2018433,0.83892414 59.3715017,6.1401776 59.9560238,12.7688043 C60.540546,19.3974311 56.3783963,25.5215772 50,27.418 L50,32 C50,34.209139 48.209139,36 46,36 Z" id="Shape" fill="#F0C419"/><circle id="Oval" fill="#F0C419" cx="46" cy="42" r="4"/></g></g></svg>
