<svg xmlns="http://www.w3.org/2000/svg" viewBox="0 0 460 460" width="460" height="460">
	<style>
		tspan { white-space:pre }
		.shp0 { fill: #ffffff } 
		.shp1 { fill: #6be0f4 } 
		.shp2 { fill: #0b389c } 
		.shp3 { fill: #4370d9 } 
		.shp4 { fill: #07215c } 
		.shp5 { fill: #4497cb } 
		.shp6 { fill: #2a8fcf } 
	</style>
	<g id="Layer">
		<path id="Layer" class="shp0" d="M110.1 231C110.1 187.03 135.59 148.6 172.07 127.73C120.49 143.55 74.98 180.07 45.43 231C74.98 281.92 120.48 318.44 172.06 334.26C135.58 313.38 110.1 274.96 110.1 231Z" />
		<path id="Layer" class="shp1" d="M294.37 129.83C327.75 151.12 349.9 188.47 349.9 231C349.9 273.54 327.75 310.9 294.35 332.18C343.28 315.38 386.25 279.8 414.57 231C386.25 182.2 343.29 146.63 294.37 129.83Z" />
		<path id="Layer" class="shp2" d="M349.9 231C349.9 188.46 327.75 151.12 294.37 129.83C274.39 122.97 253.41 119.24 232.04 119.02L232.04 176.22C233.49 176.22 234.92 176.29 236.33 176.4C242.03 165.4 252.96 157.96 266.52 157.96C286.66 157.96 303.04 174.34 303.04 194.48C303.04 208.05 295.6 219.91 284.58 226.2C284.71 227.78 284.78 229.38 284.78 231C284.78 261.2 262.24 285.78 232.04 285.78L232.04 342.98C253.41 342.76 274.38 339.04 294.35 332.18C327.75 310.9 349.9 273.54 349.9 231Z" />
		<path id="Layer" class="shp3" d="M175.22 231C175.22 200.8 201.83 176.22 232.04 176.22L232.04 119.02C231.36 119.01 230.68 119 230 119C210.21 119 190.74 122.01 172.08 127.73C135.59 148.6 110.1 187.03 110.1 231C110.1 274.96 135.58 313.38 172.06 334.26C190.73 339.99 210.2 343 230 343C230.68 343 231.36 342.99 232.04 342.98L232.04 285.78C201.83 285.78 175.22 261.2 175.22 231Z" />
		<path id="Layer" class="shp4" d="M175.22 231C175.22 261.2 201.83 285.78 232.04 285.78C262.24 285.78 284.78 261.2 284.78 231C284.78 229.38 284.71 227.78 284.58 226.2C279.25 229.25 273.09 231 266.52 231C246.39 231 232.04 214.61 232.04 194.48C232.04 187.91 233.57 181.74 236.33 176.4C234.92 176.29 233.49 176.22 232.04 176.22C201.83 176.22 175.22 200.8 175.22 231Z" />
		<path id="Layer" class="shp0" d="M266.52 231C273.09 231 279.25 229.25 284.58 226.2C295.59 219.91 303.04 208.05 303.04 194.48C303.04 174.34 286.66 157.96 266.52 157.96C252.96 157.96 242.03 165.4 236.33 176.4C233.57 181.74 232.04 187.91 232.04 194.48C232.04 214.61 246.39 231 266.52 231Z" />
		<path id="Layer" class="shp5" d="M45.43 231C74.98 180.07 120.49 143.55 172.08 127.73C190.74 122.01 210.21 119 230 119C230.68 119 231.36 119.01 232.04 119.02C253.41 119.24 274.39 122.97 294.37 129.83C343.29 146.63 386.25 182.2 414.57 231L460 231L455.12 221.71C432.85 179.27 400.76 143.63 362.32 118.64C322.41 92.71 276.66 79 230 79C183.34 79 137.59 92.71 97.69 118.64C59.24 143.63 27.15 179.27 4.88 221.71L0 231L45.43 231Z" />
		<path id="Layer" class="shp6" d="M414.57 231C386.25 279.8 343.28 315.38 294.35 332.18C274.38 339.04 253.41 342.76 232.04 342.98C231.36 342.99 230.68 343 230 343C210.2 343 190.73 339.99 172.06 334.26C120.48 318.44 74.98 281.92 45.43 231L0 231L4.88 240.29C27.15 282.73 59.24 318.37 97.69 343.36C137.59 369.29 183.34 383 230 383C276.66 383 322.41 369.29 362.32 343.36C400.76 318.37 432.85 282.73 455.12 240.29L460 231L414.57 231Z" />
	</g>
	<g id="Layer">
	</g>
	<g id="Layer">
	</g>
	<g id="Layer">
	</g>
	<g id="Layer">
	</g>
	<g id="Layer">
	</g>
	<g id="Layer">
	</g>
	<g id="Layer">
	</g>
	<g id="Layer">
	</g>
	<g id="Layer">
	</g>
	<g id="Layer">
	</g>
	<g id="Layer">
	</g>
	<g id="Layer">
	</g>
	<g id="Layer">
	</g>
	<g id="Layer">
	</g>
	<g id="Layer">
	</g>
</svg>