<svg xmlns="http://www.w3.org/2000/svg" viewBox="0 0 512 512" width="512" height="512">
	<style>
		tspan { white-space:pre }
		.shp0 { fill: #17791c } 
		.shp1 { fill: #1d9b23 } 
		.shp2 { fill: #156d19 } 
		.shp3 { fill: #b4b4b4 } 
		.shp4 { fill: #969696 } 
		.shp5 { fill: #1b8920 } 
		.shp6 { fill: #c6c6c6 } 
	</style>
	<g id="Layer">
		<path id="Layer" class="shp0" d="M120 251.55L223.86 375.27L121.27 451.24L9.73 362L120 251.55Z" />
		<path id="Layer" class="shp1" d="M5.77 358.54C2.34 355.79 0 351.74 0 347L0 257C0 248.71 6.71 242 15 242L105 242C109.62 242 113.59 244.2 116.34 247.48L120 251.55L120 347C120 355.28 113.28 362 105 362L9.73 362L5.77 358.54Z" />
		<path id="Layer" class="shp2" d="M392 251.55L287.14 375.27L390.73 451.24L502.27 362L392 251.55Z" />
		<path id="Layer" class="shp0" d="M506.23 358.54C509.66 355.79 512 351.74 512 347L512 257C512 248.71 505.29 242 497 242L407 242C402.38 242 398.41 244.2 395.66 247.48L392 251.55L392 347C392 355.28 398.72 362 407 362L502.27 362L506.23 358.54Z" />
		<path id="Layer" class="shp1" d="M361.4 107.7L311.3 386.6L200.7 386.6L150.6 107.7C150 105.3 150.3 102.9 150.9 100.5L361.1 100.5C361.7 102.9 362 105.3 361.4 107.7L361.4 107.7Z" />
		<path id="Layer" class="shp0" d="M311.3 386.6L256 386.6L256 100.5L361.1 100.5C361.7 102.9 362 105.3 361.4 107.7L311.3 386.6Z" />
		<path id="Layer" class="shp3" d="M450.2 494L61.8 494C69.9 454.4 103.5 425.3 143.1 422.3C168.3 384.8 211.3 362 256 362C301 362 344 385.1 368.9 422.6C409.4 426.2 442.4 455 450.2 494Z" />
		<path id="Layer" class="shp4" d="M450.2 494L256 494L256 362C301 362 344 385.1 368.9 422.6C409.4 426.2 442.4 455 450.2 494Z" />
		<path id="Layer" class="shp5" d="M361.1 100.5L266.5 205.5C263.8 208.5 259.9 211 256 211C252.1 211 248.2 208.5 245.5 205.5L150.9 100.5C151.5 98.4 152.7 96.3 154.5 94.5L245.5 4.5C248.2 1.5 252.1 0 256 0C259.9 0 263.8 1.5 266.5 4.5L357.5 94.5C359.3 96.3 360.5 98.4 361.1 100.5L361.1 100.5Z" />
		<path id="Layer" class="shp1" d="M266.5 205.5C263.8 208.5 259.9 211 256 211L256 0C259.9 0 263.8 1.5 266.5 4.5L357.5 94.5C359.3 96.3 360.5 98.4 361.1 100.5L266.5 205.5Z" />
		<path id="Layer" class="shp6" d="M482 497C482 505.4 475.4 512 467 512L45 512C36.6 512 30 505.4 30 497C30 488.6 36.6 482 45 482L467 482C475.4 482 482 488.6 482 497Z" />
		<path id="Layer" class="shp3" d="M482 497C482 505.4 475.4 512 467 512L256 512L256 482L467 482C475.4 482 482 488.6 482 497Z" />
	</g>
</svg>