<svg xmlns="http://www.w3.org/2000/svg" viewBox="0 0 512 512" width="512" height="512">
	<style>
		tspan { white-space:pre }
		.shp0 { fill: #b4b4b4 } 
		.shp1 { fill: #969696 } 
		.shp2 { fill: #c6c6c6 } 
	</style>
	<g id="Layer">
		<path id="Layer" class="shp0" d="M450.2 494L61.8 494C69.9 454.4 103.5 425.3 143.1 422.3C168.3 384.8 211.3 362 256 362C301 362 344 385.1 368.9 422.6C409.4 426.2 442.4 455 450.2 494Z" />
		<path id="Layer" class="shp1" d="M450.2 494L256 494L256 362C301 362 344 385.1 368.9 422.6C409.4 426.2 442.4 455 450.2 494Z" />
		<path id="Layer" class="shp2" d="M482 497C482 505.4 475.4 512 467 512L45 512C36.6 512 30 505.4 30 497C30 488.6 36.6 482 45 482L467 482C475.4 482 482 488.6 482 497Z" />
		<path id="Layer" class="shp0" d="M482 497C482 505.4 475.4 512 467 512L256 512L256 482L467 482C475.4 482 482 488.6 482 497Z" />
	</g>
</svg>