<?xml version="1.0" encoding="iso-8859-1"?>
<!-- Generator: Adobe Illustrator 19.0.0, SVG Export Plug-In . SVG Version: 6.00 Build 0)  -->
<svg version="1.1" id="Capa_1" xmlns="http://www.w3.org/2000/svg" xmlns:xlink="http://www.w3.org/1999/xlink" x="0px" y="0px"
	 viewBox="0 0 512 512" style="enable-background:new 0 0 512 512;" xml:space="preserve">
<path style="fill:#4C4846;" d="M378.37,219.321c0-11.042,0-45.043,0-58.773c0.512,0-36.627,0-245.875,0v57.41
	c-23.723,16.091-21.865,51.58,3.374,65.119c-2.646,26.518,18.152,49.289,44.557,49.289c11.464,0,25.001-4.321,32.92-11.407h85.381
	c30.053,26.891,78.473,3.067,74.386-37.882C397.491,270,400.246,236.188,378.37,219.321z"/>
<path style="fill:#3D3938;" d="M159.621,271.039c-16.18-14.855-16.463-41.214,0.364-56.273c-0.56-16.725,0.309-34.322,0.309-52.158
	h0.84v-2.061h-28.64v57.41c-23.723,16.091-21.865,51.58,3.374,65.119c-2.646,26.518,18.152,49.289,44.557,49.289
	c8.685,0,18.548-2.489,26.266-6.773c-20.658-2.474-36.844-18.972-39.12-39.446C166.922,280.299,163.956,275.019,159.621,271.039z"/>
<path style="fill:#EDEDED;" d="M413.515,512c12.405,0,21.712-11.343,19.29-23.509c-18.517-93-17.631-91.335-21.189-98.552
	c-9.949-20.279-32.122-23.931-30.494-23.45c-2.333-0.815,15.33,5.358-74.995-26.211c-4.427-1.518-7.4-5.681-7.4-10.36v-23.52
	c-27.449,14.636-59.922,14.259-85.588,1.469v22.051c0,4.68-2.973,8.843-7.4,10.36c-3.152,1.081,11.42-3.916-30.83,10.572h-0.029
	l0.005,0.009c-52.629,18.607-54.659,18.165-62.673,24.445c-7.839,6.126-12.894,14.286-15.261,23.788
	c-0.475,1.915-17.767,88.933-17.746,88.827C76.723,500.38,86.258,512,98.965,512H413.515z"/>
<path style="fill:#EAB883;" d="M326.054,347.057l-19.926-6.78c-4.427-1.518-7.4-5.681-7.4-10.36v-26.611
	c-27.125,14.464-59.401,14.519-85.588,1.469v25.143c0,4.68-2.973,8.843-7.4,10.36c-2.024,0.693,7.332-2.51-19.796,6.777
	C218.901,377.134,292.724,377.475,326.054,347.057z"/>
<g>
	<path style="fill:#DADADA;" d="M151.946,512v-50.825c0-4.269-3.46-7.728-7.728-7.728s-7.728,3.46-7.728,7.728V512H151.946z"/>
	<path style="fill:#DADADA;" d="M375.407,512v-50.825c0-4.269-3.46-7.728-7.728-7.728s-7.728,3.46-7.728,7.728V512H375.407z"/>
</g>
<g>
	<path style="fill:#EA4E4E;" d="M244.417,437.274c-1.484-1.527-2.257-3.424-2.257-5.471c0-7.728,10.05-10.512,14.148-4.287
		C260.124,433.312,251.363,444.017,244.417,437.274z"/>
	<path style="fill:#EA4E4E;" d="M245.592,450.629c4.226-2.78,9.626-0.89,11.428,3.473c1.843,4.369-0.729,9.515-5.626,10.531
		C242.986,466.206,238.672,455.192,245.592,450.629z"/>
	<path style="fill:#EA4E4E;" d="M245.592,488.724c-1.214-0.798-2.235-1.996-2.844-3.472c-2.863-6.786,4.884-13.683,11.428-9.378
		c5.718,3.771,3.987,12.599-2.782,14.004C250.899,489.971,247.212,489.794,245.592,488.724z"/>
	<path style="fill:#EA4E4E;" d="M157.476,357.027c10.114,13.62,26.184,24.724,46.04,31.847
		c-9.642,12.801-15.393,15.669-15.393,23.665V512h27.822v-94.466l17.677-21.44c43.384,5.83,95.971-5.559,120.864-39.014
		c-5.837-2.057,14.874,5.243-28.432-10.023c-33.416,30.496-107.233,30.003-140.11-0.002c-0.898,0.309-9.821,3.377-11.034,3.794l0,0
		h-0.029l0.005,0.009C147.994,360.387,161.353,355.653,157.476,357.027z"/>
</g>
<path style="fill:#F9B938;" d="M319.197,457.052h-23.7c-6.801,0-12.365-5.564-12.365-12.365v-0.515
	c0-6.801,5.564-12.365,12.365-12.365h23.7c6.801,0,12.365,5.564,12.365,12.365v0.515
	C331.562,451.488,325.998,457.052,319.197,457.052z"/>
<path style="fill:#D83D3D;" d="M222.673,365.639c-13.1-3.411-26.734-9.461-36.729-18.584l-11.034,3.794h-0.029l0.005,0.009
	c-26.892,9.529-13.532,4.795-17.41,6.169c10.114,13.62,26.184,24.724,46.04,31.847L222.673,365.639z"/>
<path style="fill:#DDA97A;" d="M239.206,313.076c-9.356-1.526-18.27-4.415-26.067-8.301v25.143c0,4.68-2.973,8.843-7.4,10.36
	c-2.024,0.693,7.332-2.51-19.796,6.777c13.892,12.678,34.517,19.427,53.263,21.699V313.076z"/>
<path style="fill:#DADADA;" d="M104.966,487.918l17.306-97.176c2.401-11.627,8.537-21.125,18.663-27.854l-10.162,3.601
	c-2.036,0.601-6.059,1.788-5.802,1.712c-5.14,1.917-10.087,4.85-13.164,7.439c-15.695,13.079-13.76,17.607-32.602,112.277
	C76.723,500.38,86.258,512,98.965,512h25.761C112.019,512,102.485,500.38,104.966,487.918z"/>
<path style="fill:#EDA018;" d="M307.347,444.687v-0.515c0-6.714,5.426-12.213,12.108-12.352c-1.056-0.022-16.944-0.01-23.958-0.013
	c-6.801,0-12.365,5.564-12.365,12.365v0.515c0,6.801,5.564,12.365,12.365,12.365c9.159-0.004,22.843,0.01,23.958-0.013
	C312.772,456.9,307.347,451.401,307.347,444.687z"/>
<g>
	<path style="fill:#EAB883;" d="M161.231,185.528c-15.958-5.527-33.281,4.752-33.281,19.748c0,14.992,17.321,25.275,33.281,19.748
		V185.528z"/>
	<path style="fill:#EAB883;" d="M348.288,185.528c15.701-5.527,32.746,4.752,32.746,19.748c0,14.992-17.043,25.275-32.746,19.748
		V185.528z"/>
</g>
<g>
	<path style="fill:#DDA97A;" d="M130.534,195.744c-9.934,17.259,9.836,36.504,30.696,29.279V205.96
		C149.404,210.056,136.161,205.519,130.534,195.744z"/>
	<path style="fill:#DDA97A;" d="M348.288,205.96v19.063c20.55,7.234,39.965-12.043,30.202-29.279
		C372.954,205.52,359.924,210.056,348.288,205.96z"/>
</g>
<path style="fill:#F7CF9C;" d="M160.294,159.609c0,57.879-10.293,129.26,66.036,153.523c53.432,17.04,111.155-17.274,120.97-73.693
	c1.908-11.017,1.389-18.669,1.389-79.83H160.294z"/>
<path style="fill:#EAB883;" d="M252.471,313.132c-76.329-24.263-66.036-95.645-66.036-153.523h-26.14
	c0,57.879-10.293,129.26,66.036,153.523c13.733,4.38,27.748,5.359,41.161,3.451C262.475,315.863,257.454,314.722,252.471,313.132z"
	/>
<path style="fill:#EDEDED;" d="M335.193,10.303c-13.038,0-25.026,4.463-34.547,11.928c-22.452-29.622-66.914-29.66-89.395,0
	c-36.303-28.462-90.605-2.928-90.605,44.13c0,13.589,4.837,26.046,12.88,35.75v35.767H378.37v-35.767
	C408.325,65.972,382.855,10.303,335.193,10.303z"/>
<g>
	<path style="fill:#DADADA;" d="M189.971,11.899c-52.657-12.816-90.468,49.167-56.446,90.212v35.767h26.545
		c-0.988-21.457,2.918-33.107-5.56-46.385C136.254,62.902,153.495,20.761,189.971,11.899z"/>
	<path style="fill:#DADADA;" d="M182.494,142.515c-4.268,0-7.728-3.46-7.728-7.728v-33.773c0-4.269,3.46-7.728,7.728-7.728
		s7.728,3.46,7.728,7.728v33.773C190.223,139.056,186.762,142.515,182.494,142.515z"/>
	<path style="fill:#DADADA;" d="M231.463,142.515c-4.268,0-7.728-3.46-7.728-7.728v-33.773c0-4.269,3.46-7.728,7.728-7.728
		c4.268,0,7.728,3.46,7.728,7.728v33.773C239.191,139.056,235.731,142.515,231.463,142.515z"/>
	<path style="fill:#DADADA;" d="M280.432,142.515c-4.268,0-7.728-3.46-7.728-7.728v-33.773c0-4.269,3.46-7.728,7.728-7.728
		s7.728,3.46,7.728,7.728v33.773C288.16,139.056,284.7,142.515,280.432,142.515z"/>
	<path style="fill:#DADADA;" d="M329.4,142.515c-4.268,0-7.728-3.46-7.728-7.728v-33.773c0-4.269,3.46-7.728,7.728-7.728
		s7.728,3.46,7.728,7.728v33.773C337.129,139.056,333.669,142.515,329.4,142.515z"/>
</g>
<path style="fill:#D83D3D;" d="M377.339,162.609H134.556c-7.683,0-13.911-6.228-13.911-13.911s6.228-13.911,13.911-13.911h242.783
	c7.683,0,13.911,6.228,13.911,13.911S385.022,162.609,377.339,162.609z"/>
<path style="fill:#C63434;" d="M160.294,148.698c0-7.683,6.228-13.911,13.911-13.911h-39.649c-7.683,0-13.911,6.228-13.911,13.911
	s6.228,13.911,13.911,13.911h39.649C166.522,162.609,160.294,156.381,160.294,148.698z"/>
<g>
</g>
<g>
</g>
<g>
</g>
<g>
</g>
<g>
</g>
<g>
</g>
<g>
</g>
<g>
</g>
<g>
</g>
<g>
</g>
<g>
</g>
<g>
</g>
<g>
</g>
<g>
</g>
<g>
</g>
</svg>
