<svg id="Capa_1" enable-background="new 0 0 512 512" height="512" viewBox="0 0 512 512" width="512" xmlns="http://www.w3.org/2000/svg"><g><g><g><path d="m378.322 487.489c-11.388-57.149-61.825-100.218-122.322-100.218s-110.934 43.069-122.322 100.219c-2.53 12.696 7.29 24.511 20.235 24.511h17.609l30.905-18.467 30.906 18.466h45.334l30.905-18.467 30.906 18.467h17.609c12.945 0 22.765-11.815 20.235-24.511z" fill="#e8e4dc"/></g></g><g><g><path d="m233.333 460.848v-71.518c-50.097 9.198-89.724 48.323-99.655 98.159-2.53 12.696 7.29 24.511 20.235 24.511h17.609l30.905-18.467 30.906 18.467h45.334c-24.13 0-45.334-34.248-45.334-51.152z" fill="#ded9d0"/></g></g><g><g><path d="m171.522 512h61.811v-122.67c-23.598 4.332-44.869 15.307-61.811 30.913z" fill="#635d50"/></g></g><g><g><path d="m278.667 512h61.811v-91.757c-16.942-15.606-38.213-26.58-61.811-30.913z" fill="#70695b"/></g></g><g><g><circle cx="405.507" cy="250.984" fill="#f2d1a5" r="37.17"/></g></g><g><g><circle cx="106.489" cy="250.984" fill="#f2bb88" r="37.17"/></g></g><g><g><circle cx="256" cy="250.981" fill="#ffe4c2" r="149.376"/></g></g><g><g><path d="m158.133 250.981c0-73.715 53.398-134.952 123.622-147.157-8.367-1.454-16.971-2.219-25.755-2.219-82.498 0-149.376 66.878-149.376 149.376s66.878 149.377 149.376 149.377c8.783 0 17.387-.765 25.755-2.219-70.224-12.206-123.622-73.443-123.622-147.158z" fill="#f2d1a5"/></g></g><g><g><path d="m317.811 0c-40.864 0-44.856 37.602-61.811 37.602s-20.947-37.602-61.811-37.602c-60.91 0-87.7 200.262-87.7 200.262s61.337 21.855 149.511 21.855 149.511-21.855 149.511-21.855-26.79-200.262-87.7-200.262z" fill="#70695b"/></g></g><g><g><path d="m163.758 18.135c-39.498 49.301-57.269 182.128-57.269 182.128s61.337 21.854 149.511 21.854 149.511-21.855 149.511-21.855c-180.491-19.682-275.536-121.796-241.753-182.127z" fill="#635d50"/></g></g><g><g><g><path d="m255.999 237.569c-120.763 0-192.629-34.002-195.63-35.449-10.248-4.945-14.549-17.262-9.604-27.51 4.94-10.238 17.235-14.54 27.477-9.62 1.271.599 67.668 31.371 177.757 31.371 111.442 0 177.075-31.042 177.725-31.356 10.249-4.94 22.565-.644 27.51 9.605s.644 22.565-9.604 27.51c-3 1.447-74.867 35.449-195.631 35.449z" fill="#80786a"/></g></g></g><g><g><path d="m256 237.569c-11.379 0-20.604-9.225-20.604-20.604s9.225-20.604 20.604-20.604h-.001c-110.09 0-176.486-30.773-177.757-31.371-10.241-4.921-22.537-.619-27.477 9.62-4.945 10.249-.644 22.565 9.604 27.51 3.001 1.447 74.867 35.449 195.631 35.449z" fill="#70695b"/></g></g><g><g><path d="m256 312.455c-73.974 0-123.778-20.165-143.205-29.708-3.829-1.881-8.152 1.459-7.307 5.641 6.601 32.643 34.314 132.839 131.92 181.935 11.698 5.884 25.486 5.884 37.184 0 97.606-49.096 125.319-149.292 131.92-181.935.846-4.182-3.477-7.522-7.307-5.641-19.427 9.543-69.231 29.708-143.205 29.708z" fill="#ff9b87"/></g></g><g><g><path d="m340.478 420.243c-42.918 0-76.134-8.62-101.951-23.567-31.039-21.633 101.951-17.821 101.951-37.419s-136.712 9.087-161.997-29.155c-4.366-8.942-8.139-18.349-11.41-28.132l-.002-.006c-25.753-6.386-44.149-14.243-54.275-19.217-3.829-1.881-8.152 1.46-7.307 5.641 6.601 32.643 34.314 132.839 131.92 181.935 11.698 5.884 25.486 5.884 37.184 0 27.054-13.608 48.73-31.144 66.083-50.077-.065 0-.129-.003-.196-.003z" fill="#ff8870"/></g></g><g><g><path d="m205.787 258.394-24.791-6.643c-3.999-1.067-8.113 1.302-9.186 5.303-1.072 4.001 1.302 8.114 5.303 9.186l7.531 2.018c-.303.815-.477 1.693-.477 2.613v10.679c0 4.142 3.358 7.5 7.5 7.5s7.5-3.358 7.5-7.5v-9.401l2.738.734c.65.174 1.303.257 1.946.257 3.311 0 6.342-2.21 7.24-5.561 1.071-4-1.303-8.113-5.304-9.185z" fill="#544f43"/></g><g><path d="m340.189 257.054c-1.071-4-5.183-6.374-9.186-5.303l-24.791 6.643c-4.001 1.072-6.375 5.185-5.303 9.186.897 3.351 3.928 5.561 7.239 5.561.643 0 1.296-.083 1.946-.257l2.738-.734v9.401c0 4.142 3.357 7.5 7.5 7.5s7.5-3.358 7.5-7.5v-10.679c0-.921-.174-1.799-.477-2.614l7.53-2.018c4.003-1.072 6.377-5.185 5.304-9.186z" fill="#544f43"/></g></g></g></svg>