<svg id="Capa_1" enable-background="new 0 0 512 512" height="512" viewBox="0 0 512 512" width="512" xmlns="http://www.w3.org/2000/svg"><g><g><g><path d="m30.811 381.86c-8.929 17.447-24.244 55.621-29.206 119.036-.468 5.984 4.272 11.104 10.275 11.104h488.24c6.002 0 10.743-5.12 10.275-11.104-4.962-63.415-20.277-101.588-29.206-119.036-2.277-4.45-2.879-9.555-1.714-14.416 1.787-7.452 2.602-15.28 2.275-23.355-1.859-45.919-40.378-81.845-86.335-81.845h-139.415-139.416c-45.955 0-84.473 35.924-86.335 81.841-.327 8.076.488 15.905 2.275 23.359 1.166 4.861.564 9.966-1.713 14.416z" fill="#ffcbbe"/></g><g><path d="m404.123 416.038c-.379-.092-37.931-9.606-44.198-41.839-.814-4.189-4.868-6.922-9.059-6.11-4.189.815-6.924 4.871-6.11 9.059 3.275 16.84 12.624 28.777 22.753 37.063v86.962c0 4.267 3.459 7.726 7.726 7.726s7.726-3.459 7.726-7.726v-76.941c9.283 4.742 16.741 6.632 17.499 6.817.615.15 1.231.222 1.837.222 3.479 0 6.639-2.367 7.5-5.897 1.013-4.144-1.528-8.324-5.674-9.336z" fill="#df9380"/></g><g><path d="m129.041 400.164c-1.891 1.689-3.557 3.121-4.757 4.114-11.643 8.561-23.934 11.711-24.148 11.765-4.136 1.019-6.669 5.195-5.658 9.335.862 3.53 4.021 5.896 7.5 5.896.607 0 1.223-.072 1.839-.222.559-.137 12.473-3.115 25.224-11.305z" fill="#df9380"/></g><g><path d="m180.067 334.628c17.91 17.635 42.037 27.519 67.171 27.519h17.522c25.135 0 49.262-9.884 67.172-27.519l30.785-30.31c1.813-1.786 3.549-3.641 5.204-5.56 18.46-21.394 52.341-19.346 67.129 4.733 7.305 11.895 11.756 25.722 12.359 40.598.332 8.19-.512 16.128-2.353 23.676-1.134 4.65-.548 9.548 1.642 13.804 9.411 18.294 26.14 59.966 30.1 130.431h23.322c6.002 0 10.743-5.12 10.275-11.104-4.963-63.422-20.281-101.597-29.209-119.041-2.276-4.446-2.877-9.548-1.712-14.404 1.788-7.454 2.604-15.285 2.277-23.362-1.859-45.919-40.378-81.844-86.334-81.844h-139.417-131.599c4.517 15.815 13.055 30.428 24.883 42.074z" fill="#eaac9d"/></g><g><path d="m154.016 223.74v-63.48s1.041-24.976-27.057-24.976c0 0-28.733 0-42.934-13.312-2.665-2.498-7.017-.633-7.017 3.02v39.431c0 35.382 38.504 59.317 77.008 59.317z" fill="#eaac9d"/></g><g><path d="m357.984 223.74v-63.48s-1.041-24.976 27.057-24.976c0 0 28.733 0 42.934-13.312 2.665-2.498 7.017-.633 7.017 3.02v39.431c0 35.382-38.504 59.317-77.008 59.317z" fill="#eaac9d"/></g><g><path d="m129.041 512v-249.756h52.033v52.994c0 23.102 12.755 44.315 33.159 55.148l163.256 86.677c3.366 1.787 5.471 5.287 5.471 9.099v45.838z" fill="#aa7a63"/></g><g><path d="m149.284 304.318 30.783 30.309c2.003 1.972 4.089 3.829 6.23 5.602-3.387-7.752-5.223-16.235-5.223-24.992v-52.994h-52.033v12.745c4.838 10.886 11.671 20.89 20.243 29.33z" fill="#986b54"/></g><g><path d="m350.699 442.84v69.16h32.26v-45.838c0-3.812-2.104-7.312-5.471-9.099z" fill="#986b54"/></g><g><path d="m154.016 133.203v102.894c0 16.728 6.712 32.756 18.632 44.492l30.783 30.31c11.681 11.501 27.415 17.947 43.807 17.947h17.523c16.392 0 32.127-6.446 43.807-17.947l30.783-30.31c11.92-11.736 18.632-27.764 18.632-44.492v-102.894c0-56.324-45.66-101.984-101.984-101.984-56.323.001-101.983 45.66-101.983 101.984z" fill="#ffddce"/></g><g><path d="m294.129 38.593c19.466 18.572 31.594 44.768 31.594 73.797v123.707c0 16.728-6.712 32.756-18.632 44.492l-30.783 30.31c-9.916 9.763-22.757 15.866-36.439 17.493 2.435.289 4.892.454 7.369.454h17.523c16.392 0 32.127-6.446 43.807-17.947l30.783-30.31c11.92-11.736 18.632-27.764 18.632-44.492v-102.894c.001-42.842-26.42-79.508-63.854-94.61z" fill="#ffcbbe"/></g></g><g><path d="m276.813 52.033c0 11.495-9.318 20.813-20.813 20.813s-20.813-9.318-20.813-20.813 9.318-52.033 20.813-52.033 20.813 40.538 20.813 52.033z" fill="#ffd064"/></g><g><circle cx="256" cy="157.138" fill="#eaf6df" r="33.301"/></g><g><path d="m154.016 183.758c-.183-.001-.365-.004-.55.008-.921.06-22.742 1.24-35.564-19.276-2.262-3.618-7.029-4.718-10.647-2.457-3.618 2.262-4.718 7.028-2.457 10.647 15.383 24.614 40.199 26.561 47.662 26.561.671 0 1.185-.016 1.556-.032z" fill="#df9380"/></g><g><path d="m404.746 162.034c-3.62-2.263-8.385-1.161-10.647 2.457-12.786 20.457-34.526 19.346-35.556 19.276-.188-.014-.373-.012-.559-.013v15.456c.371.017.885.032 1.556.032 7.465 0 32.28-1.95 47.662-26.561 2.262-3.619 1.162-8.386-2.456-10.647z" fill="#df9380"/></g><g><path d="m463.093 402.133c1.821 0 3.649-.64 5.119-1.942 5.561-4.924 9.914-11.834 13.077-18.133-.031-.062-.065-.13-.096-.191-2.274-4.444-2.889-9.54-1.724-14.393 1.792-7.461 2.61-15.3 2.282-23.385-.282-6.974-1.422-13.712-3.293-20.134-.256 17.465-5.377 36.902-5.7 38.106-1.514 5.135-7.055 19.711-14.791 26.561-3.195 2.829-3.491 7.712-.662 10.906 1.527 1.725 3.652 2.605 5.788 2.605z" fill="#df9380"/></g><g><path d="m48.907 402.133c-1.821 0-3.649-.64-5.119-1.942-5.561-4.924-9.914-11.834-13.077-18.133.032-.062.065-.13.096-.191 2.274-4.444 2.889-9.54 1.724-14.393-1.792-7.461-2.61-15.3-2.282-23.385.282-6.974 1.422-13.712 3.293-20.134.256 17.465 5.377 36.902 5.7 38.106 1.514 5.135 7.055 19.711 14.791 26.561 3.195 2.829 3.491 7.712.662 10.906-1.527 1.725-3.652 2.605-5.788 2.605z" fill="#df9380"/></g><g><circle cx="256" cy="157.138" fill="#90d8f9" r="10.302"/></g><g><path d="m284.093 263.728c-1.048 0-2.114-.215-3.133-.668-3.899-1.733-5.655-6.299-3.923-10.198l8.325-18.732c1.733-3.9 6.301-5.655 10.198-3.923 3.899 1.733 5.655 6.299 3.923 10.198l-8.325 18.732c-1.28 2.881-4.105 4.591-7.065 4.591z" fill="#eaf6df"/></g><g><path d="m299.707 263.726h-87.414c-4.267 0-7.726-3.459-7.726-7.726s3.459-7.726 7.726-7.726h87.414c4.267 0 7.726 3.459 7.726 7.726.001 4.267-3.459 7.726-7.726 7.726z" fill="#df9380"/></g></g></svg>