<svg height="447pt" viewBox="-47 0 447 447.992" width="447pt" xmlns="http://www.w3.org/2000/svg"><path d="m343.9375 351.992188h-.082031c-10.960938-19.121094-31.679688-32-55.359375-32h-56s-16 32-56 32-56-32-56-32h-56c-23.679688 0-44.398438 12.878906-55.359375 32h-.082031c-5.4375 9.359374-8.558594 20.320312-8.558594 32v56c0 4.398437 3.601562 8 8 8h336c4.398437 0 8-3.601563 8-8v-56c0-11.601563-3.121094-22.558594-8.558594-32zm0 0" fill="#e6e9ed"/><path d="m343.9375 351.992188h-.082031c-10.960938-19.121094-31.679688-32-55.359375-32h-24.023438c23.679688 0 44.398438 12.878906 55.359375 32h.078125c5.449219 9.441406 8.5625 20.398437 8.5625 32v56c0 4.398437-3.601562 8-8 8h24.023438c4.398437 0 8-3.601563 8-8v-56c0-11.601563-3.121094-22.558594-8.558594-32zm0 0" fill="#ccd1d9"/><path d="m.496094 431.976562v8.015626c0 4.367187 3.558594 7.9375 7.917968 7.984374h336.160157c4.363281-.046874 7.921875-3.617187 7.921875-7.984374v-8.015626zm0 0" fill="#5d9cec"/><path d="m328.472656 431.976562v8.015626c0 4.367187-3.5625 7.9375-7.921875 7.984374h24.023438c.011719 0 .019531-.007812.035156-.007812 3.246094-.046875 6.0625-2.046875 7.261719-4.890625.402344-.949219.625-1.988281.625-3.085937v-8.015626zm0 0" fill="#4a89dc"/><path d="m.496094 391.96875v16h352v-16zm0 0" fill="#5d9cec"/><path d="m350.414062 367.960938c-1.460937-5.648438-3.628906-11.023438-6.476562-15.96875h-.082031c-.007813-.007813-.015625-.023438-.023438-.03125h-166.710937c-.210938 0-.410156.03125-.625.03125s-.417969-.03125-.625-.03125h-166.710938c-.007812.007812-.015625.023437-.023437.03125h-.082031c-2.855469 4.910156-5.03125 10.296874-6.496094 15.96875zm0 0" fill="#5d9cec"/><path d="m319.808594 351.960938c.007812.007812.015625.023437.023437.03125h.078125c2.851563 4.945312 5.027344 10.320312 6.488282 15.96875h24.027343c-.011719-.007813-.011719-.015626-.011719-.023438-1.46875-5.640625-3.628906-11.007812-6.476562-15.945312h-.082031c-.007813-.007813-.015625-.023438-.023438-.03125zm0 0" fill="#4a89dc"/><path d="m352.488281 391.992188h-24.015625v16h24.023438v-16zm0 0" fill="#4a89dc"/><path d="m232.496094 319.910156v.082032s-16 32-56 32-56-32-56-32v-29.832032c16.71875 8.808594 35.761718 13.839844 56 13.839844 20.238281 0 39.28125-5.039062 56-13.839844zm0 0" fill="#eac6bb"/><path d="m80.496094 192c0 39.769531 32.238281 72.007812 72 72.007812l8-8h32l8 8c39.761718 0 72-32.238281 72-72.007812 0-13.28125 10.71875-24 24-24v16c0 46.089844-25.921875 86.089844-64 106.167969-16.71875 8.808593-35.761719 13.839843-56 13.839843-20.238282 0-39.28125-5.039062-56-13.839843-38.082032-20.078125-64-60.078125-64-106.167969v-16c13.28125 0 24 10.71875 24 24zm0 0" fill="#fc6e51"/><path d="m296.496094 128h-240v-8c0-66.238281 53.761718-120 120-120 66.238281 0 120 53.761719 120 120v7.441406zm0 0" fill="#ed5565"/><path d="m176.496094 0c-4.054688 0-8.0625.207031-12.015625.609375 60.609375 6.03125 107.992187 57.199219 107.992187 119.390625v7.441406.558594h24.023438c0-.160156 0-.398438 0-.558594v-7.441406c0-66.238281-53.761719-120-120-120zm0 0" fill="#da4453"/><path d="m296.496094 128v3.761719c-.082032.085937-.160156.167969-.238282.238281.085938.078125.167969.160156.238282.238281v35.761719c-13.28125 0-24 10.71875-24 24 0 39.769531-32.238282 72.007812-72 72.007812l-8-8h-32l-8 8c-39.761719 0-72-32.238281-72-72.007812 0-13.28125-10.71875-24-24-24v-40zm0 0" fill="#eac6bb"/><path d="m272.496094 192c0 9.257812-1.816406 18.078125-4.992188 26.214844-9.246094 31.167968-30.785156 57.050781-59.03125 71.945312-13.359375 7.039063-28.214844 11.609375-43.976562 13.191406.023437 0 .054687 0 .078125.007813 3.929687.382813 7.890625.640625 11.921875.640625 20.238281 0 39.28125-5.039062 56-13.839844 38.078125-20.082031 64-60.082031 64-106.167968v-16c-13.28125.007812-24 10.726562-24 24.007812zm0 0" fill="#e9573f"/><path d="m296.496094 128h-24.023438v3.761719c-.082031.085937-.160156.167969-.242187.238281.089843.078125.167969.160156.242187.238281v51.761719c0 11.886719-1.761718 23.367188-4.96875 34.214844 3.175782-8.136719 4.992188-16.957032 4.992188-26.214844 0-13.28125 10.71875-24 24-24v-35.761719c-.082032-.085937-.160156-.167969-.238282-.238281.085938-.078125.167969-.160156.238282-.238281zm0 0" fill="#d3b1a9"/><path d="m320.894531 120.160156c-8.871093.726563-17.597656 4.640625-24.398437 11.601563v-3.761719c0-.160156 0-.398438 0-.558594 0-.234375 0-.402344 0-.640625.320312-21.914062 17.917968-39.121093 40-38.800781.238281 13.28125-5.921875 24.878906-15.601563 32.160156zm0 0" fill="#da4453"/><path d="m320.894531 120.160156c11.203125-.953125 22.722657 2.960938 31.363281 11.839844-15.441406 15.921875-40.320312 16-55.761718.238281v-.484375c6.800781-6.953125 15.519531-10.875 24.398437-11.59375zm0 0" fill="#ed5565"/><g fill="#da4453"><path d="m272.832031 103.984375c-4.425781 0-8.039062-3.585937-8.039062-8 0-4.417969 3.535156-8 7.949219-8h.089843c4.414063 0 8 3.582031 8 8 0 4.414063-3.585937 8-8 8zm0 0"/><path d="m240.832031 71.984375c-4.425781 0-8.039062-3.585937-8.039062-8 0-4.417969 3.535156-8 7.949219-8h.089843c4.414063 0 8 3.582031 8 8 0 4.414063-3.585937 8-8 8zm0 0"/><path d="m208.832031 103.984375c-4.425781 0-8.039062-3.585937-8.039062-8 0-4.417969 3.535156-8 7.949219-8h.089843c4.414063 0 8 3.582031 8 8 0 4.414063-3.585937 8-8 8zm0 0"/><path d="m208.832031 39.984375c-4.425781 0-8.039062-3.585937-8.039062-8 0-4.417969 3.535156-8 7.949219-8h.089843c4.414063 0 8 3.582031 8 8 0 4.414063-3.585937 8-8 8zm0 0"/><path d="m176.832031 71.984375c-4.425781 0-8.039062-3.585937-8.039062-8 0-4.417969 3.535156-8 7.949219-8h.089843c4.414063 0 8 3.582031 8 8 0 4.414063-3.585937 8-8 8zm0 0"/><path d="m144.832031 103.984375c-4.425781 0-8.039062-3.585937-8.039062-8 0-4.417969 3.535156-8 7.949219-8h.089843c4.414063 0 8 3.582031 8 8 0 4.414063-3.585937 8-8 8zm0 0"/><path d="m144.832031 39.984375c-4.425781 0-8.039062-3.585937-8.039062-8 0-4.417969 3.535156-8 7.949219-8h.089843c4.414063 0 8 3.582031 8 8 0 4.414063-3.585937 8-8 8zm0 0"/><path d="m112.832031 71.984375c-4.425781 0-8.039062-3.585937-8.039062-8 0-4.417969 3.535156-8 7.949219-8h.089843c4.414063 0 8 3.582031 8 8 0 4.414063-3.585937 8-8 8zm0 0"/><path d="m80.832031 103.984375c-4.425781 0-8.039062-3.585937-8.039062-8 0-4.417969 3.535156-8 7.949219-8h.089843c4.414063 0 8 3.582031 8 8 0 4.414063-3.585937 8-8 8zm0 0"/></g></svg>