<svg height="512" viewBox="0 0 64 64" width="512" xmlns="http://www.w3.org/2000/svg"><g id="Flat"><g id="Color_copy" data-name="Color copy"><path d="m4.475 14.3-1.057 1.415a1.852 1.852 0 0 0 .172 2.421 1.853 1.853 0 0 1 .41 2l-.83 2.074a2.379 2.379 0 0 0 .889 2.862 2.379 2.379 0 0 1 .988 2.556l-.233.934a2.377 2.377 0 0 0 .776 2.4l1.7 1.43a2.379 2.379 0 0 1 .833 1.562l.191 1.762a2.379 2.379 0 0 0 1.3 1.87 7.9 7.9 0 0 1 3.907 4.41l3.933 11.004 5-2-4.264-11.939a7.9 7.9 0 0 1 -.307-4.207l.24-1.2a2.514 2.514 0 0 0 -1.071-2.586 2.517 2.517 0 0 1 -.991-2.889l.181-.543a2.509 2.509 0 0 0 .081-1.289l-.72-3.6a2.512 2.512 0 0 0 -.688-1.285l-1.891-1.892a2.514 2.514 0 0 1 -.7-1.365l-.45-2.7a3 3 0 0 0 -2.962-2.505h-1.828a3.262 3.262 0 0 0 -2.609 1.3z" fill="#e9f1f2"/><path d="m22.45 51-5 2-3.93-11.01a7.852 7.852 0 0 0 -3.91-4.41 2.394 2.394 0 0 1 -1.3-1.87l-.19-1.76a2.324 2.324 0 0 0 -.83-1.56l-1.7-1.43a2.382 2.382 0 0 1 -.78-2.4l.24-.93a2.3 2.3 0 0 0 .07-.58 2.368 2.368 0 0 0 -1.06-1.98 2.368 2.368 0 0 1 -.89-2.86l.83-2.08a1.787 1.787 0 0 0 .13-.68 1.863 1.863 0 0 0 -.54-1.31 1.858 1.858 0 0 1 -.17-2.43l1.06-1.41a3.289 3.289 0 0 1 1.33-1.04 1.852 1.852 0 0 0 .51 1.66 1.887 1.887 0 0 1 .54 1.32 1.787 1.787 0 0 1 -.13.68l-.83 2.08a2.372 2.372 0 0 0 .89 2.86 2.392 2.392 0 0 1 1.06 1.98 2.224 2.224 0 0 1 -.07.57l-.24.94a2.359 2.359 0 0 0 .78 2.39l1.7 1.43a2.412 2.412 0 0 1 .83 1.57 3.357 3.357 0 0 0 3.36 3.22 3.3 3.3 0 0 0 1.25-.24l.18-.06a13.257 13.257 0 0 0 2.45-1.12 2.443 2.443 0 0 1 .03 1.11l-.24 1.2a7.935 7.935 0 0 0 .31 4.21z" fill="#d0d8da"/><path d="m8.03 24.42a3.759 3.759 0 0 1 -2.92 2.52 2.342 2.342 0 0 0 -1.04-1.86 1 1 0 0 1 .38-.08 1.778 1.778 0 0 0 1.69-1.21 1 1 0 1 1 1.89.63z" fill="#93999a"/><path d="m7.49 32.57a5.79 5.79 0 0 1 3.96-1.57 1 1 0 1 1 0 2 3.857 3.857 0 0 0 -2.7 1.12l-.55.55z" fill="#93999a"/><g fill="#d0d8da"><path d="m16.24 27.63-.12.36a4.249 4.249 0 0 1 -3.46-2.33l-.1-.21a.988.988 0 0 1 .45-1.34 1 1 0 0 1 1.34.44l.1.21a2.213 2.213 0 0 0 1.8 1.23l.07.36a2.425 2.425 0 0 1 -.08 1.28z"/><path d="m11.46 14.41-2.3 2.3a1 1 0 0 1 -1.41-1.42l2.13-2.13a3.063 3.063 0 0 1 1.58 1.25z"/><path d="m8.03 24.42a3.623 3.623 0 0 1 -.5.98c0-.02.01-.03.01-.05l.24-.94a2.224 2.224 0 0 0 .07-.57 2.087 2.087 0 0 0 -.04-.43 1 1 0 0 1 .22 1.01z"/><path d="m12.45 32a.974.974 0 0 1 -.66.93 3.185 3.185 0 0 1 -.91-1.9 5.441 5.441 0 0 1 .57-.03 1 1 0 0 1 1 1z"/></g><path d="m56 49 .409-1.637a9.7 9.7 0 0 0 -9.409-12.363h-6v-4h-12v4h-6a10 10 0 0 0 -8.884 5.405 9.9 9.9 0 0 0 -.852 6.18l.736 4.415-1 2.815v3.8l1 3.385h42l1-6.379z" fill="#a1d51c"/><path d="m33 36a11.8 11.8 0 0 1 -4.76-1h.76v-4h12v1.95a11.933 11.933 0 0 1 -8 3.05z" fill="#7ab92d"/><path d="m54.315 58.192 1.685 2.808h-42l-1-3.39v-3.79l1-2.82-.74-4.42a9.861 9.861 0 0 1 .86-6.17 9.971 9.971 0 0 1 8.88-5.41h5a36.949 36.949 0 0 0 -1 8.47 6.533 6.533 0 0 0 12.62 2.37l4.21-10.84h3.17a9.707 9.707 0 0 1 9.41 12.36l-.41 1.64-1.993 4.65a5 5 0 0 0 .308 4.542z" fill="#7ab92d"/><path d="m44.056 18 1.66-2.767a8.95 8.95 0 0 1 3.669-3.4l1.671-.833a8.944 8.944 0 0 1 0 8l-.546 1.092a2.447 2.447 0 0 0 -.133 1.871l.087.261a2.451 2.451 0 0 1 -.966 2.814 2.449 2.449 0 0 1 -2.829-.078l-2.613-1.96z" fill="#a1d51c"/><path d="m44 18v5l2.61 1.96a2.455 2.455 0 0 0 2.83.08 2.142 2.142 0 0 0 .56-.52 5.589 5.589 0 0 1 -1.58-6.6l.99-2.26a6.466 6.466 0 0 1 .44-.82 9.011 9.011 0 0 1 1.82-1.98 9 9 0 0 0 -.67-1.86l-1.67.84a8.829 8.829 0 0 0 -3.67 3.39z" fill="#7ab92d"/><path d="m25.944 18-1.66-2.767a8.95 8.95 0 0 0 -3.669-3.4l-1.671-.833a8.944 8.944 0 0 0 0 8l.546 1.092a2.447 2.447 0 0 1 .133 1.871l-.087.261a2.451 2.451 0 0 0 .966 2.814 2.449 2.449 0 0 0 2.829-.078l2.613-1.96z" fill="#7ab92d"/><path d="m25.94 18v5l-2.61 1.96a2.455 2.455 0 0 1 -2.83.08 2.142 2.142 0 0 1 -.56-.52 5.589 5.589 0 0 0 1.58-6.6l-.99-2.26a6.466 6.466 0 0 0 -.44-.82 9.011 9.011 0 0 0 -1.82-1.98 9 9 0 0 1 .67-1.86l1.67.84a8.829 8.829 0 0 1 3.67 3.39z" fill="#5ba006"/><rect fill="#a1d51c" height="30" rx="12" width="24" x="23" y="4"/><path d="m44.11 29.81a12 12 0 0 1 -21.11-7.81v-6a11.992 11.992 0 0 1 9.89-11.81 11.874 11.874 0 0 0 -2.89 7.81v6a12 12 0 0 0 12 12 11.267 11.267 0 0 0 2.11-.19z" fill="#7ab92d"/><path d="m37.637 40a1.538 1.538 0 0 0 -1.088.451l-.461.461a1.538 1.538 0 0 1 -2.176 0l-.461-.461a1.538 1.538 0 0 0 -1.088-.451h-6.363v1l3.459.577.049.008a5.528 5.528 0 0 1 4.492 5.495v3.92h2v-3.917a5.529 5.529 0 0 1 4.5-5.5l.049-.008 1.956-.325.495-1.25z" fill="#7ab92d"/><path d="m48 61v-10a1 1 0 0 1 2 0v10z" fill="#5ba006"/><path d="m20 61v-13a1 1 0 0 1 2 0v13z" fill="#5ba006"/><path d="m35 23a1 1 0 0 1 -.9-.553l-.1-.211a2.224 2.224 0 0 0 -2-1.236 1 1 0 0 1 0-2 4.214 4.214 0 0 1 3 1.241 4.214 4.214 0 0 1 3-1.241 1 1 0 0 1 0 2 2.224 2.224 0 0 0 -2 1.236l-.1.211a1 1 0 0 1 -.9.553z" fill="#7ab92d"/><path d="m35 11a1 1 0 0 1 -.447-.105l-2-1a1 1 0 0 1 .894-1.79l1.553.777 1.553-.777a1 1 0 1 1 .894 1.79l-2 1a1 1 0 0 1 -.447.105z" fill="#7ab92d"/><path d="m43 24a1 1 0 0 1 -1-1v-.586a4.387 4.387 0 0 1 1.292-3.121 1 1 0 0 1 1.416 1.414 2.4 2.4 0 0 0 -.708 1.707v.586a1 1 0 0 1 -1 1z" fill="#7ab92d"/><path d="m27 24a1 1 0 0 1 -1-1v-.586a2.4 2.4 0 0 0 -.708-1.707 1 1 0 0 1 1.416-1.414 4.387 4.387 0 0 1 1.292 3.121v.586a1 1 0 0 1 -1 1z" fill="#5ba006"/><path d="m43 57h-5.464a2.3 2.3 0 0 1 -1.622-.672 1.292 1.292 0 0 0 -1.828 0 2.3 2.3 0 0 1 -1.622.672h-5.464a1 1 0 0 1 -.707-.293l-2-2a1 1 0 0 1 1.414-1.414l.828.828a3 3 0 0 0 2.122.879h2.686a3 3 0 0 0 2.122-.879l.828-.828a1 1 0 0 1 1.414 0l.828.828a3 3 0 0 0 2.122.879h2.686a3 3 0 0 0 2.122-.879l.828-.828a1 1 0 0 1 1.414 1.414l-2 2a1 1 0 0 1 -.707.293z" fill="#5ba006"/><path d="m45 51h-2a1 1 0 0 1 0-2h2a1 1 0 0 1 0 2z" fill="#5ba006"/><path d="m28 51h-2a1 1 0 0 1 0-2h2a1 1 0 0 1 0 2z" fill="#5ba006"/><path d="m41.329 26.23a1 1 0 0 0 -.457.111 5.923 5.923 0 0 1 -2.7.659h-6.342a5.923 5.923 0 0 1 -2.7-.659 1 1 0 1 0 -.916 1.778 7.936 7.936 0 0 0 3.616.881h6.34a7.936 7.936 0 0 0 3.618-.881 1 1 0 0 0 -.459-1.889z" fill="#656b76"/><path d="m41.27 28.36a7.893 7.893 0 0 1 -3.1.64h-1.08l.8-2 1.11-2.77 1.3 2.36z" fill="#e9f1f2"/><path d="m32.91 29h-1.08a7.893 7.893 0 0 1 -3.1-.64l.97-1.77 1.3-2.36 1.11 2.77z" fill="#e9f1f2"/><path d="m41.27 28.36a7.893 7.893 0 0 1 -3.1.64h-1.08l.8-2 1.11-2.77-.074.356a3.219 3.219 0 0 0 2.344 3.774z" fill="#d0d8da"/><path d="m32.91 29h-1.08a7.893 7.893 0 0 1 -3.1-.64l.97-1.77 1.3-2.36-.207.876a3.324 3.324 0 0 0 2.117 3.894z" fill="#d0d8da"/><path d="m39 16h-2v-.838a3 3 0 0 1 2.051-2.846l3.949-1.316v1a4 4 0 0 1 -4 4z" fill="#cc5144"/><path d="m31 16h2v-.838a3 3 0 0 0 -2.051-2.846l-3.949-1.316v1a4 4 0 0 0 4 4z" fill="#cc5144"/><path d="m49 49 10-1a10.368 10.368 0 0 0 -3.75-9.8l-.25-.2-7 5z" fill="#656b76"/><path d="m56 45h-1.8a2.5 2.5 0 0 0 -1.95.94 2.473 2.473 0 0 0 -.55 1.55 2.532 2.532 0 0 0 .31 1.21l-3.01.3-1-6 7-5 .25.2a10.417 10.417 0 0 1 2.988 3.877c.221.495-2.238 2.923-2.238 2.923z" fill="#464a51"/><path d="m40 61h-5l9-18 4 2z" fill="#e9f1f2"/><path d="m48 45-1.19 2.37a4 4 0 0 0 -3.6 2.21l-5.71 11.42h-2.5l9-18z" fill="#d0d8da"/><path d="m61 40h-7v.172a6.826 6.826 0 0 0 2 4.828z" fill="#d0d8da"/><path d="m54 40v.172a6.8 6.8 0 0 0 .44 2.388l2.56-2.56z" fill="#93999a"/><path d="m61 40-.227.185a5.2 5.2 0 0 1 -6.773-.185v.172a6.826 6.826 0 0 0 2 4.828z" fill="#93999a"/><path d="m43 43 4-11a11.211 11.211 0 0 1 9.328 4.992l.672 1.008-8 8z" fill="#93999a"/><path d="m49 34 6-4-1 7a4.123 4.123 0 0 1 -5-3z" fill="#e9f1f2"/><path d="m49 34a3.878 3.878 0 0 0 5.414-2.243l.586-1.757-1 7a4.123 4.123 0 0 1 -5-3z" fill="#d0d8da"/><path d="m57 38-8 8-6-3 .94-2.6a9.3 9.3 0 0 0 9.8-2.14l2.03-2.03c.2.24.38.5.56.76z" fill="#656b76"/><path d="m43 11v1a4 4 0 0 1 -4 4h-2v-.84a.86.86 0 0 1 .01-.16h1.99a4 4 0 0 0 4-4z" fill="#f8664f"/><path d="m33 15.16v.84h-2a4 4 0 0 1 -4-4v-1a4 4 0 0 0 4 4h1.99a.86.86 0 0 1 .01.16z" fill="#f8664f"/><path d="m18 55-5-1v-.18l1-2.82a7.823 7.823 0 0 0 2.35 2.79z" fill="#5ba006"/></g></g></svg>