<svg id="Capa_1" enable-background="new 0 0 512 512" height="512" viewBox="0 0 512 512" width="512" xmlns="http://www.w3.org/2000/svg"><g><path d="m391 195v158.099h-270v-158.099c0-74.401 60.601-135 135-135s135 60.599 135 135z" fill="#85cc3d"/><path d="m497 390h-31c-37.081 0-67.755 27.122-73.738 62.525l28.738 59.475h15c41.353 0 76-35.647 76-77v-30c0-8.291-6.709-15-15-15z" fill="#53b324"/><path d="m91 512 28.738-59.475c-5.983-35.403-36.657-62.525-73.738-62.525h-31c-8.291 0-15 6.709-15 15v30c0 41.353 34.647 77 76 77z" fill="#85cc3d"/><path d="m391 195v158.099h-135v-293.099c74.399 0 135 60.599 135 135z" fill="#53b324"/><path d="m421 405v107h-60l-90-62-120 62h-60v-107c0-30.3 17.999-57.601 46.199-69.3l73.801-30.601v-5.099c-18.6-13.801-30-36.301-30-60v-45c0-8.401 6.599-15 15-15h30c8.401 0 15-6.601 15-15 0-8.401 6.599-15 15-15s15 6.599 15 15c0 8.399 6.599 15 15 15h30c8.401 0 15 6.599 15 15v45c0 23.699-11.4 46.199-30 60v5.099l73.801 30.601c28.2 11.699 46.199 39 46.199 69.3z" fill="#d2f291"/><path d="m421 405v107h-60l-90-62-15 7.5v-307.5c8.401 0 15 6.599 15 15 0 8.399 6.599 15 15 15h30c8.401 0 15 6.599 15 15v45c0 23.699-11.4 46.199-30 60v5.099l73.801 30.601c28.2 11.699 46.199 39 46.199 69.3z" fill="#ace673"/><path d="m361 450v62h-210v-62c0-33.001 27.001-60 60-60 17.999 0 33.9 7.8 45 20.4 11.1-12.599 27.001-20.4 45-20.4 32.999 0 60 26.999 60 60z" fill="#b6e45b"/><path d="m361 450v62h-105v-101.6c11.1-12.599 27.001-20.4 45-20.4 32.999 0 60 26.999 60 60z" fill="#85cc3d"/><path d="m198.08 85.869-47.08-47.08v-23.789c0-8.291-6.709-15-15-15s-15 6.709-15 15v15h-69.789l-25.606-25.605c-5.859-5.859-15.352-5.859-21.211 0s-5.859 15.352 0 21.211l29.982 29.982c1.388 1.392 3.051 2.496 4.896 3.259 1.833.757 3.776 1.153 5.728 1.153h15v15c0 8.291 6.709 15 15 15s15-6.709 15-15v-15h39.789l47.08 47.08c2.93 2.93 6.768 4.395 10.605 4.395s7.676-1.465 10.605-4.395c5.86-5.859 5.86-15.351.001-21.211z" fill="#a06550"/><path d="m507.605 4.395c-5.859-5.859-15.352-5.859-21.211 0l-25.605 25.605h-69.789v-15c0-8.291-6.709-15-15-15s-15 6.709-15 15v23.789l-47.08 47.08c-5.859 5.859-5.859 15.352 0 21.211 2.93 2.93 6.768 4.395 10.605 4.395s7.676-1.465 10.605-4.395l47.081-47.08h39.789v15c0 8.291 6.709 15 15 15s15-6.709 15-15v-15h15c1.952 0 3.895-.396 5.728-1.154 1.846-.764 3.508-1.868 4.896-3.259l29.982-29.982c5.859-5.859 5.859-15.351-.001-21.21z" fill="#744239"/></g></svg>