<svg height="512pt" viewBox="-58 0 511 512" width="512pt" xmlns="http://www.w3.org/2000/svg"><path d="m319.941406 178.128906c0 38.550782-54.4375 69.800782-121.589844 69.800782-67.152343 0-121.59375-31.25-121.59375-69.800782 0-42.332031 54.4375-74.949218 121.59375-74.949218 67.152344 0 121.589844 32.84375 121.589844 74.949218zm0 0" fill="#ffb541"/><path d="m122.808594 178.128906c0-37.359375 42.40625-67.152344 98.53125-73.632812-7.445313-.863282-15.128906-1.316406-22.988282-1.316406-67.15625 0-121.59375 32.617187-121.59375 74.949218 0 38.550782 54.4375 69.800782 121.59375 69.800782 7.871094 0 15.566407-.433594 23.023438-1.253907-56.140625-6.179687-98.566406-34.515625-98.566406-68.546875zm0 0" fill="#ff9a00"/><path d="m236.882812 262.292969.0625 25.03125c.007813 3.042969 1.878907 5.765625 4.714844 6.863281l2.484375.964844 41.300781 15.992187 3.03125 1.175781 13.023438 5.042969c36.003906-14.875 32.980469-64.683593 15.179688-73.863281-5.726563-2.953125-10.804688-6.320312-14.5625-10.710938-7.21875-8.441406-11.09375-21.292968-11.445313-32.574218-6.167969 4.207031-14.097656 6.25-22.488281 4.929687-.800782 23.78125-13.300782 44.914063-31.882813 57.539063.195313-.132813.390625-.257813.582031-.390625zm0 0" fill="#554e56"/><path d="m274.019531 295.148438-2.484375-.960938c-.222656-.085938-.441406-.183594-.652344-.289062-2.410156-1.21875-3.804687-3.828126-3.804687-6.527344v-21.558594c0-2.332031 1.097656-4.511719 2.9375-5.949219 12.148437-9.472656 21.25-22.753906 25.46875-37.964843-2.972656-6.855469-4.59375-14.582032-4.8125-21.6875-6.167969 4.207031-14.097656 6.25-22.488281 4.929687-.800782 23.78125-13.300782 44.914063-31.882813 57.539063.191407-.128907.390625-.253907.582031-.386719l.0625 25.03125c.007813 3.039062 1.878907 5.765625 4.714844 6.863281l2.484375.960938 41.300781 15.996093 3.03125 1.171875 13.023438 5.046875c4.488281-1.855469 8.367188-4.253906 11.691406-7.046875zm0 0" fill="#433f43"/><path d="m95.261719 317.683594 21.484375-8.328125 37.195312-14.421875 2.457032-.953125c2.828124-1.09375 4.691406-3.816407 4.691406-6.847657v-24.074218c.058594.039062.117187.074218.175781.109375-19.742187-12.78125-31.632813-34.550781-32.195313-57.761719-8.339843 1.308594-16.21875-.726562-22.351562-4.90625-.351562 11.226562-4.207031 24.011719-11.390625 32.414062-3.738281 4.367188-8.789063 7.71875-14.488281 10.65625-17.96875 9.265626-22.863282 60.136719 14.421875 74.113282zm0 0" fill="#554e56"/><path d="m110.714844 243.570312c5.699218-2.9375 10.753906-6.289062 14.492187-10.660156 2.554688-2.988281 4.683594-6.539062 6.386719-10.371094-1.519531-5.539062-2.378906-11.289062-2.523438-17.132812-8.339843 1.308594-16.21875-.726562-22.351562-4.90625-.351562 11.226562-4.203125 24.011719-11.390625 32.410156-3.734375 4.371094-8.789063 7.722656-14.488281 10.660156-17.96875 9.265626-22.863282 60.136719 14.421875 74.113282l17.742187-6.878906c-23.710937-19.25-17.992187-59.136719-2.289062-67.234376zm0 0" fill="#433f43"/><path d="m320.007812 481.609375v30.390625h51.015626c6.375 0 11.546874-5.171875 11.546874-11.546875v-18.84375zm0 0" fill="#fed2a4"/><path d="m320.007812 481.609375h31.4375v30.390625h-31.4375zm0 0" fill="#ffbd86"/><path d="m14.261719 481.609375v18.84375c0 6.375 5.167969 11.546875 11.546875 11.546875h51.015625v-30.390625zm0 0" fill="#fed2a4"/><path d="m45.636719 489.882812v-8.273437h-31.375v18.84375c0 6.375 5.167969 11.546875 11.546875 11.546875h25.300781c-3.488281-6.625-5.472656-14.148438-5.472656-22.117188zm0 0" fill="#ffbd86"/><path d="m343.589844 332.367188-98.289063-38.066407c-11.28125 21.300781-46.886719 49.292969-46.886719 49.292969-34.136718-23.511719-46.910156-49.3125-46.914062-49.320312l-98.257812 38.089843s-38.980469 16.027344-38.980469 60.464844v45.601563h62.5625v73.570312h243.183593c0-34.898438 0-70.679688 0-73.570312h62.5625v-45.601563c0-44.4375-38.980468-60.460937-38.980468-60.460937zm0 0" fill="#c69292"/><path d="m45.636719 363.167969c0-12.78125 5.09375-24.425781 13.34375-33.027344l-5.738281 2.222656s-38.980469 16.027344-38.980469 60.464844v45.601563h31.375zm0 0" fill="#bb8080"/><path d="m206.140625 339.488281c0-4.265625-3.457031-7.726562-7.726563-7.726562-4.265624 0-7.726562 3.460937-7.726562 7.726562v172.511719h15.453125zm0 0" fill="#af6c6c"/><path d="m371.3125 355.683594-41.953125 45.285156c-6.011719 6.492188-9.351563 15.015625-9.351563 23.863281v13.597657h62.5625v-45.601563c0-15.78125-4.917968-27.972656-11.257812-37.144531zm0 0" fill="#bb8080"/><path d="m351.445312 377.132812-22.085937 23.835938c-6.011719 6.492188-9.351563 15.015625-9.351563 23.863281v13.597657h31.4375zm0 0" fill="#af6c6c"/><path d="m25.519531 355.683594 41.949219 45.285156c6.015625 6.492188 9.355469 15.015625 9.355469 23.863281v13.597657h-62.5625v-45.601563c0-15.78125 4.917969-27.972656 11.257812-37.144531zm0 0" fill="#bb8080"/><path d="m45.636719 377.402344-20.121094-21.71875c-6.339844 9.167968-11.253906 21.363281-11.253906 37.144531v45.601563h31.375zm0 0" fill="#af6c6c"/><path d="m76.824219 438.429688h-66.398438c-5.457031 0-9.925781 4.46875-9.925781 9.925781v23.328125c0 5.460937 4.46875 9.925781 9.925781 9.925781h66.398438zm0 0" fill="#af6c6c"/><path d="m45.636719 438.429688h-35.210938c-5.457031 0-9.925781 4.46875-9.925781 9.925781v23.328125c0 5.460937 4.46875 9.925781 9.925781 9.925781h35.210938zm0 0" fill="#9c5e5e"/><path d="m384.601562 438.429688h-64.59375v43.179687h64.59375c5.457032 0 9.925782-4.464844 9.925782-9.925781v-23.328125c-.003906-5.460938-4.46875-9.925781-9.925782-9.925781zm0 0" fill="#af6c6c"/><path d="m320.007812 438.429688h31.4375v43.179687h-31.4375zm0 0" fill="#9c5e5e"/><path d="m288.035156 403.730469h-48.664062c-3.617188 0-6.546875 2.933593-6.546875 6.546875v69.550781c0 3.617187 2.933593 6.550781 6.546875 6.550781h48.664062c3.617188 0 6.550782-2.933594 6.550782-6.550781v-69.550781c0-3.617188-2.933594-6.546875-6.550782-6.546875zm0 0" fill="#af6c6c"/><path d="m263.703125 479.828125v-69.550781c0-3.617188 2.933594-6.546875 6.550781-6.546875h-30.882812c-3.613282 0-6.546875 2.933593-6.546875 6.546875v69.550781c0 3.617187 2.933593 6.550781 6.546875 6.550781h30.882812c-3.617187 0-6.550781-2.933594-6.550781-6.550781zm0 0" fill="#9c5e5e"/><path d="m155.652344 403.730469h-48.664063c-3.617187 0-6.546875 2.933593-6.546875 6.546875v69.550781c0 3.617187 2.933594 6.550781 6.546875 6.550781h48.664063c3.617187 0 6.550781-2.933594 6.550781-6.550781v-69.550781c0-3.617188-2.933594-6.546875-6.550781-6.546875zm0 0" fill="#af6c6c"/><path d="m131.320312 479.828125v-69.550781c0-3.617188 2.933594-6.546875 6.550782-6.546875h-30.882813c-3.617187 0-6.546875 2.933593-6.546875 6.546875v69.550781c0 3.617187 2.933594 6.550781 6.546875 6.550781h30.882813c-3.617188 0-6.550782-2.933594-6.550782-6.550781zm0 0" fill="#9c5e5e"/><path d="m288.035156 403.730469h-48.664062c-3.617188 0-6.546875 2.933593-6.546875 6.546875v6.429687c0 13.160157 10.667969 23.832031 23.832031 23.832031h14.097656c13.160156 0 23.832032-10.667968 23.832032-23.832031v-6.429687c0-3.617188-2.933594-6.546875-6.550782-6.546875zm0 0" fill="#bb8080"/><path d="m263.703125 416.707031v-6.429687c0-3.617188 2.933594-6.546875 6.550781-6.546875h-30.882812c-3.613282 0-6.546875 2.933593-6.546875 6.546875v6.429687c0 13.160157 10.667969 23.832031 23.828125 23.832031h14.101562c2.953125 0 5.78125-.542968 8.390625-1.523437-9.019531-3.394531-15.441406-12.101563-15.441406-22.308594zm0 0" fill="#af6c6c"/><path d="m155.652344 403.730469h-48.664063c-3.617187 0-6.546875 2.933593-6.546875 6.546875v6.429687c0 13.160157 10.667969 23.832031 23.832032 23.832031h14.097656c13.164062 0 23.832031-10.667968 23.832031-23.832031v-6.429687c0-3.617188-2.933594-6.546875-6.550781-6.546875zm0 0" fill="#bb8080"/><path d="m131.320312 416.707031v-6.429687c0-3.617188 2.933594-6.546875 6.550782-6.546875h-30.882813c-3.617187 0-6.546875 2.933593-6.546875 6.546875v6.429687c0 13.160157 10.667969 23.832031 23.832032 23.832031h14.097656c2.953125 0 5.78125-.542968 8.390625-1.523437-9.019531-3.394531-15.441407-12.101563-15.441407-22.308594zm0 0" fill="#af6c6c"/><path d="m198.414062 343.59375s35.601563-27.992188 46.886719-49.292969l-2.425781-.9375c-2.769531-1.074219-4.597656-3.734375-4.605469-6.703125l-.058593-33.71875c-11.277344 7.820313-24.902344 12.414063-39.535157 12.363282-15.492187-.050782-29.089843-4.378907-40.15625-11.589844v32.902344c0 2.976562-1.828125 5.644531-4.605469 6.722656l-2.410156.933594c0 .007812 12.773438 25.808593 46.910156 49.320312zm0 0" fill="#ffbd86"/><path d="m189.007812 264.6875c-11.519531-1.429688-21.789062-5.304688-30.492187-10.972656l.003906 32.898437c0 2.976563-1.828125 5.648438-4.605469 6.722657l-2.414062.9375c.003906.007812 10.40625 21.007812 37.507812 42.378906zm0 0" fill="#f6a96c"/><path d="m108.214844 311.054688 58.46875 58.464843c2.265625 2.265625 5.933594 2.265625 8.199218 0l21.835938-21.832031c2.261719-2.261719 2.261719-5.933594 0-8.199219l-45.21875-45.214843zm0 0" fill="#bb8080"/><path d="m230.144531 369.519531 58.453125-58.449219-43.296875-16.769531-45.1875 45.1875c-2.265625 2.265625-2.265625 5.9375 0 8.199219l21.832031 21.832031c2.265626 2.265625 5.9375 2.265625 8.199219 0zm0 0" fill="#bb8080"/><path d="m156.648438 325.070312c-6.597657-6.601562-4.238282-17.808593 4.46875-21.183593l-9.617188-9.613281-43.28125 16.78125 58.464844 58.46875c2.265625 2.261718 5.9375 2.261718 8.199218 0l13.109376-13.109376zm0 0" fill="#af6c6c"/><path d="m234.53125 347.6875c-2.265625-2.261719-2.265625-5.933594 0-8.199219l35.578125-35.578125-24.808594-9.609375-45.1875 45.1875c-2.265625 2.265625-2.265625 5.9375 0 8.199219l21.832031 21.832031c2.265626 2.265625 5.9375 2.265625 8.199219 0l13.109375-13.109375zm0 0" fill="#af6c6c"/><path d="m198.351562 108.328125c-39.789062 0-75.109374 10.953125-97.292968 27.886719v27.503906c6.574218-5.347656 15.855468-10.394531 26.808594-8.867188h30.023437c19.253906 0 35.394531-13.3125 39.738281-31.230468.128906-.539063.601563-.925782 1.15625-.925782.558594 0 1.03125.382813 1.160156.925782 4.34375 17.917968 20.484376 31.230468 39.738282 31.230468h30.015625c11.164062-1.589843 20.679687 3.292969 26.8125 8.867188 0-8.496094 0-19.550781 0-26.824219-22.121094-17.316406-57.847657-28.566406-98.160157-28.566406zm0 0" fill="#554e56"/><path d="m135.367188 118.40625c-13.328126 4.632812-24.980469 10.691406-34.308594 17.808594v27.503906c6.574218-5.347656 15.851562-10.394531 26.808594-8.867188h7.5zm0 0" fill="#433f43"/><path d="m296.476562 161.628906c-6.136718-5.5625-16.667968-10.425781-27.808593-8.839844h-1.117188 1.082031v51.234376c0 .792968-.019531 1.585937-.046874 2.371093 18.085937 2.84375 35.027343-10.265625 35.027343-26.886719 0-6.847656-2.703125-13.09375-7.136719-17.878906zm0 0" fill="#ffbd86"/><path d="m291.117188 157.683594c-6.074219-3.644532-14.089844-6.085938-22.449219-4.894532h-.035157v51.234376c0 .792968-.019531 1.585937-.046874 2.371093 8.25 1.296875 16.257812-.734375 22.53125-4.894531zm0 0" fill="#f6a96c"/><path d="m128.9375 204.710938v-51.921876h1.082031-1.121093c-10.949219-1.527343-21.253907 3.515626-27.824219 8.859376-4.425781 4.78125-7.121094 11.023437-7.121094 17.859374 0 16.613282 16.929687 29.71875 35.003906 26.890626-.011719-.5625-.019531-1.125-.019531-1.6875zm0 0" fill="#ffbd86"/><path d="m128.9375 201.5c-7.480469-4.960938-12.496094-12.953125-12.496094-21.992188 0-6.835937 2.695313-13.078124 7.121094-17.859374 1.585938-1.292969 3.398438-2.5625 5.375-3.730469v-5.128907h-.039062c-10.945313-1.527343-21.25 3.515626-27.824219 8.859376-4.425781 4.78125-7.117188 11.023437-7.117188 17.859374 0 16.613282 16.925781 29.71875 35.003907 26.890626-.015626-.5625-.023438-1.125-.023438-1.6875zm0 0" fill="#f6a96c"/><path d="m184.3125 26.359375h26.40625c1.144531 0 2.285156.027344 3.421875.070313-3.140625-15.710938-9.402344-26.429688-16.625-26.429688-7.21875 0-13.484375 10.71875-16.625 26.429688 1.136719-.042969 2.277344-.070313 3.421875-.070313zm0 0" fill="#ffb541"/><path d="m207.15625 7.007812c-2.816406-4.445312-6.113281-7.007812-9.640625-7.007812-7.21875 0-13.484375 10.71875-16.625 26.429688 1.136719-.042969 2.277344-.070313 3.421875-.070313h13.988281c2.097657-8.65625 5.191407-15.480469 8.855469-19.351563zm0 0" fill="#ff9a00"/><path d="m197.515625 79.792969c46.785156 0 87.644531 16.167969 109.609375 40.222656-1.097656-52.101563-44.050781-94.386719-96.40625-94.386719h-26.402344c-52.355468 0-95.308594 42.285156-96.40625 94.386719 21.960938-24.054687 62.820313-40.222656 109.605469-40.222656zm0 0" fill="#ffc265"/><path d="m215.796875 25.765625c-1.679687-.085937-3.375-.132813-5.078125-.132813h-26.40625c-52.351562 0-95.304688 42.28125-96.40625 94.382813 10.132812-11.09375 24.289062-20.503906 41.183594-27.429687 12.03125-37.195313 46.152344-64.6875 86.707031-66.820313zm0 0" fill="#ffb541"/><path d="m196.613281 52.179688c-40 0-75.789062 11.453124-99.800781 29.488281-5.449219 11.71875-8.617188 24.695312-8.90625 38.347656 21.964844-24.054687 62.824219-40.222656 109.609375-40.222656s87.644531 16.167969 109.609375 40.222656c-.269531-12.820313-3.078125-25.042969-7.9375-36.191406-23.972656-19.273438-61-31.644531-102.574219-31.644531zm0 0" fill="#ffb541"/><path d="m129.089844 92.585938c4.199218-12.980469 11.09375-24.769532 20.003906-34.722657-20.410156 5.082031-38.335938 13.328125-52.28125 23.804688-5.429688 11.679687-8.617188 24.6875-8.90625 38.347656 11-12.042969 25.898438-21.164063 41.183594-27.429687zm0 0" fill="#ff9a00"/><path d="m76.824219 177.535156c0-14.734375 8.097656-28.386718 21.882812-39.609375 21.980469-17.890625 58.441407-27.535156 99.707031-27.535156 35.054688 0 66.632813 6.382813 88.824219 19.890625 20.324219 12.367188 32.769531 28.984375 32.769531 47.253906 0 1.550782-.097656 3.089844-.273437 4.613282 2.953125-6.84375 4.539063-14.054688 4.539063-21.5 0-44.65625-56.75-82.914063-126.757813-82.914063s-126.761719 38.257813-126.761719 82.914063c0 9.636718 2.644532 18.875 7.492188 27.445312-.925782-3.445312-1.421875-6.96875-1.421875-10.558594zm0 0" fill="#ffcf86"/><path d="m119.902344 125.082031c17.972656-24.222656 53.546875-42.351562 95.890625-46.464843-5.96875-.578126-12.070313-.886719-18.28125-.886719-70.007813 0-126.757813 38.261719-126.757813 82.917969 0 9.632812 2.644532 18.871093 7.492188 27.441406-.925782-3.441406-1.421875-6.964844-1.421875-10.554688 0-14.734375 8.097656-28.386718 21.882812-39.609375 6.035157-4.914062 13.171875-9.203125 21.195313-12.84375zm0 0" fill="#ffc265"/><path d="m239.683594 152.789062c-19.257813 0-35.394532-13.308593-39.738282-31.230468-.132812-.539063-.605468-.921875-1.160156-.921875-.554687 0-1.027344.382812-1.15625.921875-4.347656 17.921875-20.484375 31.230468-39.738281 31.230468h-29.984375v51.921876c0 36.425781 28.472656 69.722656 71.605469 69.867187 38.582031.128906 70.148437-31.972656 70.148437-70.554687v-51.234376zm0 0" fill="#fed2a4"/><path d="m159.203125 204.710938v-51.949219c-.4375.015625-.875.027343-1.3125.027343h-29.984375v51.921876c0 36.425781 28.472656 69.722656 71.605469 69.867187 5.234375.015625 10.335937-.578125 15.253906-1.683594-34.003906-7.183593-55.5625-36.496093-55.5625-68.183593zm0 0" fill="#ffbd86"/></svg>