<svg id="Flat" enable-background="new 0 0 64 64" height="512" viewBox="0 0 64 64" width="512" xmlns="http://www.w3.org/2000/svg"><path d="m34.68 1.23c-.059.27-.119.562-.177.867 1.136.807 2.176 1.695 3.122 2.646.325-.754.661-1.462.984-2.064-1.199-.689-2.519-1.189-3.929-1.449z" fill="#4d4d4d"/><path d="m32.866 1.028c.564.34 1.111.696 1.637 1.069.058-.305.118-.597.177-.867-.587-.114-1.196-.174-1.814-.202z" fill="#3f3f3f"/><g><g fill="#ddcdca"><path d="m44.21 20.52c-.12.85-.85 1.48-1.71 1.48-.83 0-1.5-.67-1.5-1.5v-3.5l4-2z"/><path d="m23 17v3.5c0 .83-.67 1.5-1.5 1.5-.86 0-1.59-.63-1.71-1.48l-.79-5.52z"/></g><path d="m30 39-8.31 2.77-.69.23v-3-2l3-.33 6-.67.24.05c-.15.28-.24.61-.24.95v1c0 .34.09.67.24.95z" fill="#d00000"/><path d="m32 40c-1.105 0-2-.895-2-2v-1c0-1.105.895-2 2-2s2 .895 2 2v1c0 1.105-.895 2-2 2z" fill="#d00000"/><path d="m34 37v1c0 1.1-.9 2-2 2s-2-.9-2-2v-1c0-.17.02-.34.07-.5.22.86 1 1.5 1.93 1.5s1.71-.64 1.93-1.5c.05.16.07.33.07.5z" fill="#9d0208"/><g><path d="m41 16v5c0 2.48-1.01 4.74-2.64 6.36-1.62 1.63-3.88 2.64-6.36 2.64-4.97 0-9-4.03-9-9v-5s2-3 2-7c0 0 5-1 7 1 2-2 7-1 7-1 0 4 2 7 2 7z" fill="#f9e2dc"/></g><path d="m41 16v5c0 2.48-1.01 4.74-2.64 6.36-1.62 1.63-3.88 2.64-6.36 2.64-3.92 0-7.26-2.51-8.48-6.01 1.6 2.42 4.36 4.01 7.48 4.01 2.48 0 4.74-1.01 6.36-2.64 1.63-1.62 2.64-3.88 2.64-6.36v-5c.5 1.25 1 2 1 2z" fill="#bfafaf"/><path d="m23.66 63h-22.66l1.68-5.45c1.54-5.02 2.48-10.2 2.8-15.44.44-2.07 1.58-3.85 3.14-5.11s3.54-2 5.66-2h.38c3.48 6.1 7.82 15.85 9 28z" fill="#4d4d4d"/><g><path d="m45 15-4 2v-1s-2-3-2-7l2.89-3.62c1.94 2.23 3.11 5.14 3.11 8.33z" fill="#666"/><path d="m41.89 5.38-2.89 3.62s-1.22-.24-2.69-.25c.51-2.37 1.46-4.51 2.3-6.07 1.24.71 2.35 1.63 3.28 2.7z" fill="#4d4d4d"/><path d="m38.61 2.68c-.84 1.56-1.79 3.7-2.3 6.07-.71 0-1.49.05-2.21.22v-.01c-.31-2.81.15-5.77.58-7.73 1.41.26 2.73.76 3.93 1.45z" fill="#666"/><path d="m34.1 8.96v.01c-.82.17-1.56.49-2.1 1.03-.54-.54-1.29-.86-2.11-1.04.31-2.81-.15-5.77-.58-7.73.78-.15 1.58-.23 2.4-.23h.58c.82 0 1.62.08 2.39.23-.43 1.96-.89 4.92-.58 7.73z" fill="#4d4d4d"/><path d="m29.31 1.23c.43 1.96.89 4.92.58 7.73-.72-.16-1.5-.21-2.21-.21-.51-2.37-1.46-4.51-2.29-6.07 1.19-.69 2.52-1.19 3.92-1.45z" fill="#666"/><path d="m25 9-2.89-3.62c.93-1.07 2.04-1.99 3.28-2.7.83 1.56 1.78 3.7 2.29 6.07-1.47.01-2.68.25-2.68.25z" fill="#4d4d4d"/><path d="m23 16v1l-4-2v-1.29c0-3.19 1.17-6.1 3.11-8.33l2.89 3.62c0 4-2 7-2 7z" fill="#666"/></g><g><path d="m45 15-4 2v-1s-2-3-2-7l2.89-3.62c1.94 2.23 3.11 5.14 3.11 8.33z" fill="#666"/><path d="m41.89 5.38-2.89 3.62s-1.22-.24-2.69-.25c.51-2.37 1.46-4.51 2.3-6.07 1.24.71 2.35 1.63 3.28 2.7z" fill="#4d4d4d"/><path d="m38.61 2.68c-.84 1.56-1.79 3.7-2.3 6.07-.71 0-1.49.05-2.21.22v-.01c-.31-2.81.15-5.77.58-7.73 1.41.26 2.73.76 3.93 1.45z" fill="#666"/><path d="m34.1 8.96v.01c-.82.17-1.56.49-2.1 1.03-.54-.54-1.29-.86-2.11-1.04.31-2.81-.15-5.77-.58-7.73.78-.15 1.58-.23 2.4-.23h.58c.82 0 1.62.08 2.39.23-.43 1.96-.89 4.92-.58 7.73z" fill="#4d4d4d"/><path d="m29.31 1.23c.43 1.96.89 4.92.58 7.73-.72-.16-1.5-.21-2.21-.21-.51-2.37-1.46-4.51-2.29-6.07 1.19-.69 2.52-1.19 3.92-1.45z" fill="#666"/><path d="m25 9-2.89-3.62c.93-1.07 2.04-1.99 3.28-2.7.83 1.56 1.78 3.7 2.29 6.07-1.47.01-2.68.25-2.68.25z" fill="#4d4d4d"/><path d="m23 16v1l-4-2v-1.29c0-3.19 1.17-6.1 3.11-8.33l2.89 3.62c0 4-2 7-2 7z" fill="#666"/></g><path d="m45 13.71c0-3.19-1.17-6.1-3.11-8.33l-1.82 2.279c1.702 2.43 2.862 5.164 3.415 8.098l1.515-.757z" fill="#4d4d4d"/><path d="m38.61 2.68c-.324.601-.659 1.31-.984 2.064.907.912 1.724 1.887 2.445 2.916l1.82-2.279c-.931-1.071-2.041-1.991-3.281-2.701z" fill="#3f3f3f"/><path d="m26.08 27.78c.05.66-.04 2.74-.47 4.82-.17.83-.4 1.66-.69 2.4h-4.92-5.34c-2.57-4.5-4.66-7-4.66-7 0-1.27 5.82-2.36 14.04-2.8.52.98 1.21 1.85 2.04 2.57z" fill="#4d4d4d"/><path d="m39.96 25.2c8.22.44 14.04 1.53 14.04 2.8 0 0-2.09 2.5-4.66 7h-5.34-4.92c-.29-.74-.52-1.57-.69-2.4-.43-2.08-.52-4.16-.47-4.82v-.01c.15-.13.3-.27.44-.41.63-.63 1.18-1.36 1.6-2.16z" fill="#4d4d4d"/><path d="m43 42v-3l1-4h5.34c-3.48 6.1-7.82 15.85-9 28h-8.34-8.34c-1.18-12.15-5.52-21.9-9-28h5.34l1 4v3l.69-.23 3.74 14.96c.34 1.33 1.54 2.27 2.91 2.27h3.66 3.66c1.37 0 2.57-.94 2.91-2.27l3.74-14.96z" fill="#666"/><path d="m23.66 63h-22.66l.92-3h21.37c.15.98.27 1.98.37 3z" fill="#3f3f3f"/><path d="m40.71 60c-.15.98-.27 1.98-.37 3h-16.68c-.1-1.02-.22-2.02-.37-3z" fill="#4d4d4d"/><path d="m43 39v3l-.69-.23-8.31-2.77-.24-.05c.15-.28.24-.61.24-.95v-1c0-.34-.09-.67-.24-.95l.24-.05 6 .67 3 .33z" fill="#d00000"/><path d="m43 37v5l-.69-.23-8.31-2.77-.24-.05c.15-.28.24-.61.24-.95v-.55l4.832 1.07c1.113.246 2.168-.6 2.168-1.74z" fill="#9d0208"/><path d="m21 37v5l.69-.23 8.31-2.77.24-.05c-.15-.28-.24-.61-.24-.95v-.55l-4.832 1.07c-1.113.246-2.168-.6-2.168-1.74z" fill="#9d0208"/><path d="m34 36-.24.05c-.09-.17-.21-.33-.35-.46-.36-.37-.86-.59-1.41-.59l6.39-2.4c.17.83.4 1.66.69 2.4.25.65.56 1.22.92 1.67z" fill="#fff"/><path d="m37.92 27.78c-.05.66.04 2.74.47 4.82l-6.39 2.4-6.39-2.4c.43-2.08.52-4.16.47-4.82v-.01c1.58 1.39 3.65 2.23 5.92 2.23 1.84 0 3.54-.55 5.92-2.23z" fill="#ddcdca"/><path d="m40.39 32.6c.17.83.4 1.66.69 2.4h-2c-.29-.74-.52-1.57-.69-2.4-.43-2.08-.52-4.16-.47-4.82v-.01c.15-.13.3-.27.44-.41.63-.63 1.18-1.36 1.6-2.16.66.04 1.3.07 1.93.12-.12.225-.332.523-.574.833-.956 1.229-1.387 2.79-1.233 4.339.07.696.168 1.437.307 2.108z" fill="#3f3f3f"/><path d="m38.02 30.06c-2.37 1.46-4.12 1.94-6.02 1.94-2.27 0-4.35-.7-6.02-1.89.11-1.07.13-1.94.1-2.33v-.01c1.58 1.39 3.65 2.23 5.92 2.23 1.84 0 3.54-.55 5.92-2.23v.01c-.03.38-.01 1.23.1 2.28z" fill="#b29e9e"/><path d="m25.61 32.6 6.39 2.4c-.76 0-1.42.43-1.76 1.05l-.24-.05-6 .67c.36-.45.67-1.02.92-1.67.29-.74.52-1.57.69-2.4z" fill="#fff"/><g fill="#eaeaea"><path d="m24.92 35h-4.92l1 4v-2l3-.33c.36-.45.67-1.02.92-1.67z"/><path d="m30.24 38.95-.24.05-8.31 2.77 3.74 14.96c.34 1.33 1.54 2.27 2.91 2.27h3.66v-19c-.76 0-1.42-.43-1.76-1.05z"/></g><path d="m32 57v2h-3.66c-1.28 0-2.4-.82-2.81-2z" fill="#dad4d4"/><g fill="#dad4d4"><path d="m44 35h-4.92c.25.65.56 1.22.92 1.67l3 .33v2z"/><path d="m33.76 38.95c-.34.62-1 1.05-1.76 1.05v19h3.66c1.37 0 2.57-.94 2.91-2.27l3.74-14.96-8.31-2.77z"/></g><path d="m42.31 41.77-3.74 14.96c-.34 1.33-1.54 2.27-2.91 2.27h-3.66v-2h1.66c1.37 0 2.57-.94 2.91-2.27l3.43-13.73z" fill="#b7b7b7"/><path d="m61.32 57.55 1.68 5.45h-22.66c1.18-12.15 5.52-21.9 9-28h.38c2.12 0 4.1.74 5.66 2s2.7 3.04 3.14 5.11c.32 5.24 1.26 10.42 2.8 15.44z" fill="#4d4d4d"/><path d="m63 63h-22.66c.06-.61.13-1.21.21-1.81.04-.4.1-.8.16-1.19h14.8c1.08 0 1.9-.88 1.9-1.88 0-.19-.03-.38-.09-.57-1.54-5.02-2.48-10.2-2.8-15.44-.44-2.07-1.58-3.85-3.14-5.11-.72-.58-1.52-1.05-2.39-1.38.12-.21.23-.42.35-.62h.38c2.12 0 4.1.74 5.66 2s2.7 3.04 3.14 5.11c.32 5.24 1.26 10.42 2.8 15.44z" fill="#3f3f3f"/><g><path d="m27.548 18.447c-.887 0-1.658-.318-2.103-.615-.46-.306-.584-.927-.277-1.387.304-.457.922-.583 1.379-.282.107.067 1.009.6 1.898.005.46-.308 1.08-.183 1.387.277.307.459.183 1.081-.277 1.387-.677.451-1.372.615-2.007.615z" fill="#3f3f3f"/></g><g><path d="m34 26.5c-.276 0-.5-.224-.5-.5v-.251c-1.194.348-2.309.173-3-.018v.269c0 .276-.224.5-.5.5s-.5-.224-.5-.5v-.974c0-.171.088-.33.231-.421.145-.091.324-.104.48-.031.019.008 1.821.829 3.574 0 .158-.073.339-.062.481.03.145.092.232.251.232.422v.974c.002.276-.222.5-.498.5z" fill="#69140e"/></g><g><path d="m36.548 18.447c-.887 0-1.658-.318-2.103-.615-.46-.306-.584-.927-.277-1.387.304-.457.921-.583 1.379-.282.106.067 1.009.6 1.898.005.46-.308 1.081-.183 1.387.277.307.459.183 1.081-.277 1.387-.677.451-1.372.615-2.007.615z" fill="#3f3f3f"/></g><g><path d="m7.999 60c-.19 0-.383-.054-.554-.168-.46-.306-.584-.927-.277-1.387 3.716-5.574 2.854-11.227 2.846-11.283-.089-.544.28-1.058.824-1.148.543-.085 1.059.278 1.148.821.044.261 1.018 6.462-3.154 12.719-.192.29-.51.446-.833.446z" fill="#3f3f3f"/></g><g><path d="m51 61c-.256 0-.512-.098-.707-.293-3.256-3.255-3.293-11.363-3.293-11.707 0-.552.447-1 1-1 .552 0 1 .448 1 1 .002 2.112.491 8.077 2.707 10.293.391.391.391 1.023 0 1.414-.195.195-.451.293-.707.293z" fill="#3f3f3f"/></g><g><path d="m58.999 61c-.175 0-.353-.046-.514-.143-5.423-3.253-5.485-8.63-5.485-8.857 0-.552.447-1 1-1 .551 0 .998.445 1 .996.002.185.091 4.493 4.515 7.147.474.284.627.898.343 1.372-.188.312-.519.485-.859.485zm-3.999-9h.01z" fill="#3f3f3f"/></g><g><path d="m13.999 62c-.19 0-.383-.054-.554-.168-.46-.306-.584-.927-.277-1.387 1.807-2.71 1.832-8.388 1.832-8.445 0-.552.448-1 1-1 .553 0 1 .448 1 1 0 .257-.024 6.34-2.168 9.555-.192.289-.51.445-.833.445z" fill="#3f3f3f"/></g></g></svg>