<svg id="Capa_1" enable-background="new 0 0 512 512" height="512" viewBox="0 0 512 512" width="512" xmlns="http://www.w3.org/2000/svg"><g><path d="m139.447 236.457v-25.205h233.106v25.205c0 64.37-52.182 116.553-116.553 116.553-64.371 0-116.553-52.183-116.553-116.553z" fill="#df8621"/><path d="m432.91 448.52v53.18c0 5.69-4.61 10.3-10.3 10.3h-333.22c-5.69 0-10.3-4.61-10.3-10.3v-53.18c0-33 22.19-61.88 54.08-70.39l13.26-3.53h219.14l13.26 3.53c31.89 8.51 54.08 37.39 54.08 70.39z" fill="#dd5790"/><path d="m182.725 438.696c20.282 17.744 46.304 27.515 73.274 27.515s52.993-9.771 73.274-27.515c19.068-16.68 31.844-39.322 36.291-64.1l-73.143-19.505h-72.846l-73.143 19.505c4.449 24.778 17.226 47.42 36.293 64.1z" fill="#d8e2f1"/><path d="m292.422 355.091v-44.748h-72.846v44.748l-40.825 10.887c5.398 37.838 37.918 66.933 77.247 66.933 39.33 0 71.85-29.095 77.247-66.933z" fill="#f1d0a5"/><circle cx="256" cy="52.033" fill="#e49824" r="52.033"/><path d="m383.302 379.496c10.911 12.841 17.348 29.405 17.348 47.171v85.333h21.958c5.69 0 10.302-4.612 10.302-10.302v-53.178c0-31.436-20.138-59.116-49.608-69.024z" fill="#da387d"/><path d="m219.577 334.033c11.342 4.252 23.614 6.583 36.423 6.583 12.808 0 25.081-2.332 36.423-6.583v-23.69h-72.846z" fill="#ffb983"/><path d="m172.748 150.083v86.469c0 45.979 37.273 83.252 83.252 83.252s83.252-37.273 83.252-83.252v-86.469z" fill="#f1d0a5"/><path d="m339.252 236.552v-86.468h-19.772v108.228c0 16.246-4.67 31.394-12.717 44.206 19.751-15.223 32.489-39.101 32.489-65.966z" fill="#ffb983"/><path d="m372.553 159.22v41.942h-33.301l-5.547-25.965c-.406-1.901-2.086-3.26-4.03-3.26h-14.732c-1.093 0-2.141-.434-2.914-1.207l-7.326-7.326c-1.609-1.609-4.218-1.609-5.828 0l-8.367 8.367c-.773.773-1.821 1.207-2.914 1.207h-31.594-31.594c-1.093 0-2.141-.434-2.914-1.207l-8.367-8.367c-1.609-1.609-4.218-1.609-5.828 0l-7.326 7.326c-.773.773-1.821 1.207-2.914 1.207h-14.732c-1.944 0-3.624 1.359-4.03 3.26l-5.547 25.965h-33.301v-41.942c0-64.37 52.182-116.553 116.553-116.553 64.37 0 116.553 52.182 116.553 116.553z" fill="#e7a52e"/><path d="m302.289 52.229c22.743 21.27 36.963 51.541 36.963 85.137v63.795h33.301v-41.941c0-47.922-28.925-89.081-70.264-106.991z" fill="#e49824"/><path d="m355.902 234.376h-16.65v-43.77c0-3.414 2.767-6.181 6.181-6.181h10.469c9.196 0 16.65 7.455 16.65 16.65v16.65c.001 9.196-7.454 16.651-16.65 16.651z" fill="#f1d0a5"/><path d="m156.097 234.376h16.65v-43.77c0-3.414-2.767-6.181-6.181-6.181h-10.469c-9.196 0-16.65 7.455-16.65 16.65v16.65c0 9.196 7.455 16.651 16.65 16.651z" fill="#f1d0a5"/><g fill="#da387d"><path d="m360.664 512v-28.098c0-4.268 3.459-7.726 7.726-7.726s7.726 3.459 7.726 7.726v28.098z"/><path d="m135.883 512v-28.098c0-4.268 3.459-7.726 7.726-7.726s7.726 3.459 7.726 7.726v28.098z"/></g></g></svg>