<svg xmlns="http://www.w3.org/2000/svg" xmlns:xlink="http://www.w3.org/1999/xlink" viewBox="0 0 335.3 175.95"><defs><style>.cls-1,.cls-10,.cls-11,.cls-12,.cls-13,.cls-14,.cls-15,.cls-16,.cls-17,.cls-2,.cls-3,.cls-4,.cls-5,.cls-6,.cls-7,.cls-8,.cls-9{fill-rule:evenodd;}.cls-1{fill:url(#linear-gradient);}.cls-2{fill:url(#linear-gradient-2);}.cls-3{fill:url(#linear-gradient-3);}.cls-4{fill:#10b7bf;}.cls-5{fill:url(#linear-gradient-4);}.cls-6{fill:url(#linear-gradient-5);}.cls-7{fill:url(#linear-gradient-6);}.cls-8{fill:url(#linear-gradient-7);}.cls-9{fill:url(#linear-gradient-8);}.cls-10{fill:url(#linear-gradient-9);}.cls-11{fill:url(#linear-gradient-10);}.cls-12{fill:url(#linear-gradient-11);}.cls-13{fill:url(#linear-gradient-12);}.cls-14{fill:url(#linear-gradient-13);}.cls-15{fill:url(#linear-gradient-14);}.cls-16{fill:url(#linear-gradient-15);}.cls-17{fill:#fefefe;}</style><linearGradient id="linear-gradient" x1="103.56" y1="83.16" x2="43.05" y2="50.28" gradientUnits="userSpaceOnUse"><stop offset="0" stop-color="#6cf1ff"/><stop offset="0.56" stop-color="#c1d8f2"/><stop offset="1" stop-color="#ffc5e8"/></linearGradient><linearGradient id="linear-gradient-2" x1="176.67" y1="97.33" x2="166.84" y2="62.95" gradientUnits="userSpaceOnUse"><stop offset="0" stop-color="#6cf1ff"/><stop offset="0.16" stop-color="#4abdd6"/><stop offset="0.33" stop-color="#2a8eb0"/><stop offset="0.48" stop-color="#136c95"/><stop offset="0.6" stop-color="#055784"/><stop offset="0.68" stop-color="#004f7e"/></linearGradient><linearGradient id="linear-gradient-3" x1="117.78" y1="116.97" x2="109.73" y2="92.49" xlink:href="#linear-gradient-2"/><linearGradient id="linear-gradient-4" x1="158.88" y1="37.4" x2="123.91" y2="4.17" gradientUnits="userSpaceOnUse"><stop offset="0" stop-color="#0057a5"/><stop offset="0.33" stop-color="#0092d2"/><stop offset="0.42" stop-color="#269ad5"/><stop offset="0.83" stop-color="#c1b9e3"/><stop offset="1" stop-color="#ffc5e8"/></linearGradient><linearGradient id="linear-gradient-5" x1="120.13" y1="86.11" x2="90.05" y2="174.6" xlink:href="#linear-gradient-4"/><linearGradient id="linear-gradient-6" x1="152.7" y1="120.82" x2="180.33" y2="70.45" gradientUnits="userSpaceOnUse"><stop offset="0" stop-color="#c3d1ed"/><stop offset="0.35" stop-color="#00b6ed"/><stop offset="0.71" stop-color="#007aaf"/><stop offset="1" stop-color="#004d81"/></linearGradient><linearGradient id="linear-gradient-7" x1="261.17" y1="132.45" x2="206.61" y2="156.58" gradientUnits="userSpaceOnUse"><stop offset="0" stop-color="#6cf1ff"/><stop offset="0.42" stop-color="#3ecced"/><stop offset="1" stop-color="#009bd5"/></linearGradient><linearGradient id="linear-gradient-8" x1="232.7" y1="142.96" x2="291.11" y2="144.71" xlink:href="#linear-gradient-2"/><linearGradient id="linear-gradient-9" x1="83.57" y1="80.45" x2="259.99" y2="80.45" gradientUnits="userSpaceOnUse"><stop offset="0" stop-color="#6cf1ff"/><stop offset="0.42" stop-color="#3ed2ef"/><stop offset="1" stop-color="#00a8d9"/></linearGradient><linearGradient id="linear-gradient-10" x1="259.96" y1="84.58" x2="157.14" y2="60.79" gradientUnits="userSpaceOnUse"><stop offset="0" stop-color="#0057a5"/><stop offset="1" stop-color="#0092d2"/></linearGradient><linearGradient id="linear-gradient-11" x1="275.06" y1="120.21" x2="290.1" y2="150.64" xlink:href="#linear-gradient-10"/><linearGradient id="linear-gradient-12" x1="142.87" y1="127.18" x2="243.25" y2="93.6" xlink:href="#linear-gradient-4"/><linearGradient id="linear-gradient-13" x1="193.13" y1="118.02" x2="249.41" y2="83.42" gradientUnits="userSpaceOnUse"><stop offset="0" stop-color="#0057a5"/><stop offset="1" stop-color="#ffc5e8"/></linearGradient><linearGradient id="linear-gradient-14" x1="227.03" y1="89.4" x2="263.06" y2="117.73" xlink:href="#linear-gradient"/><linearGradient id="linear-gradient-15" x1="326.51" y1="136.96" x2="269.5" y2="104.43" gradientUnits="userSpaceOnUse"><stop offset="0" stop-color="#00b1dc"/><stop offset="0.14" stop-color="#26addc"/><stop offset="0.74" stop-color="#c19dda"/><stop offset="1" stop-color="#ff97da"/></linearGradient></defs><title>air_god_dungeon</title><g id="Layer_2" data-name="Layer 2"><g id="Layer_1-2" data-name="Layer 1"><path class="cls-1" d="M8.72,95.58a9.34,9.34,0,0,1,5.47,1.72c2.16-4.51,7.32-6.74,12.15-6.36-.49-6.18,2.9-10.27,7.19-11.78C37,77.93,42,78.35,44.46,81.37a6.06,6.06,0,0,1,1,6.13,5.85,5.85,0,0,1-2.37,2.75c-3,1.91-6.65-.27-5.92-2.39.51-1.47,3.1-2.12,4-1-5-4.45-9.09,3-3.05,5.56a6.58,6.58,0,0,0,6-.66c6.34-4,4-13.52-3.94-14.73a10.7,10.7,0,0,1-.09-1.39,11.85,11.85,0,0,1,12.1-11.58,12.17,12.17,0,0,1,10.68,6.13,16.22,16.22,0,0,1,2.71-3,11.41,11.41,0,0,0,12.52,3.37c6.29-2.35,7.75-10.57,2-14.23a6.56,6.56,0,0,0-5.94-.66c-6,2.54-1.69,10.15,3.32,5.69-.9,1.15-3.14.23-3.65-1.23C73,58,76.06,56,79.08,57.86a5.85,5.85,0,0,1,2.37,2.75,6.23,6.23,0,0,1-2.71,7.58,8.61,8.61,0,0,1-13.16-7.35,9.09,9.09,0,0,1,2.92-6.63,8,8,0,0,1-2.4-5.6c0-4.82,4.6-8.72,10.28-8.72a11.61,11.61,0,0,1,5.18,1.19,7,7,0,0,1,9.55-3.89,8.46,8.46,0,0,1,15,.5,14.29,14.29,0,0,1,6.14-2.36c.94-6.67,7.28-11.83,15-11.83,8.33,0,15.09,6.06,15.09,13.53a12.32,12.32,0,0,1-.14,1.83h0a14.32,14.32,0,0,1,13.52,8.75,9.06,9.06,0,0,1,2.22-.27,9.74,9.74,0,0,1,8.18,4.59,14.86,14.86,0,0,1,13-7.82c8.25,0,7.95,17,14.94,15.34s28.22,3.41,19.28,11.77c.31,1,.47.55.47,3.14s-2.33,7.73-5.92,10c5.05,12.58-38.13,22.56-49,16.42a6.56,6.56,0,0,0-3.7-10,5.52,5.52,0,0,0-5,.92c-4.27,3.52.86,8.57,3.82,3.74-.79,2.07-5.05.76-3.36-1.93,1.47-2.33,7.48-2,6.7,4.62-1.23,10.39-18.69,18.28-27.09,10.75-3.48,3.85-17.14,7.1-19.49-2.34-1.6,22-19.25,11-24.76,5.33a44.15,44.15,0,0,0-7.79-.66c-9.78,0-18.48-3.41-22.62-8.38a9.76,9.76,0,0,1-6.92,2.66,10.6,10.6,0,0,1-4.89-1.17c-.94,2.49-3.76,4.29-7.08,4.29a8.86,8.86,0,0,1-2.61-.39,12.82,12.82,0,0,1-9,3.51,12.67,12.67,0,0,1-9.34-3.9,9,9,0,0,1-7.18,3.38C3.9,111.19,0,107.7,0,103.38S3.9,95.58,8.72,95.58Z"/><path class="cls-2" d="M158.71,59.28,132.59,89l-1.8,14.4,4.9,8.11c8.89,1.93,20.77-4.9,21.77-13.4.78-6.66-5.23-7-6.7-4.62-1.69,2.69,2.57,4,3.36,1.93-3,4.83-8.09-.22-3.82-3.74a5.52,5.52,0,0,1,5-.92,6.56,6.56,0,0,1,3.7,10c4.39,2.49,14.07,2.33,23.72.43L193.53,89.9l14.33-1.28a5.37,5.37,0,0,0,.09-4.29c3.59-2.24,5.92-7.38,5.92-10s-.16-2.14-.47-3.14c2-1.91,2.5-3.65,1.93-5.18C197.07,63.92,158.71,59.28,158.71,59.28Z"/><path class="cls-3" d="M132.89,80.89l-2.1,20.41,3.64,9.87a11.12,11.12,0,0,1-4.06-2.31c-3.48,3.85-17.14,7.1-19.49-2.34-1.3,17.88-13.26,13.93-20.62,8.79l3.61-11,11.41-17.1Z"/><path class="cls-4" d="M134.32,27.59A10,10,0,0,1,139.37,29a12.57,12.57,0,0,1,3,8.06,12.32,12.32,0,0,1-.14,1.83h0a15.39,15.39,0,0,1,1.93.12,10,10,0,0,1-9.85,8.51,11.51,11.51,0,0,1-1.18-.06,6.85,6.85,0,0,1,.61,2.81c0,4.55-4.51,8.23-10.07,8.23a11.78,11.78,0,0,1-5.27-1.21c0,.1,0,.2,0,.3,0,3.92-3.79,7.09-8.46,7.09a9.6,9.6,0,0,1-4.23-1,4.47,4.47,0,0,1-3.58,3.4,7.84,7.84,0,0,1,2.09,5.33,8.06,8.06,0,0,1-6.65,7.85,9.49,9.49,0,0,1-3.43,11.41,8.31,8.31,0,0,1,.93,3.84,8.72,8.72,0,0,1-6.29,8.28,8.88,8.88,0,0,1,3.09,6.47,8.28,8.28,0,0,1-1.73,5,29.49,29.49,0,0,1-4-3.39,44.15,44.15,0,0,0-7.79-.66,36.93,36.93,0,0,1-16-3.43c1.59-4.65,7.5-8.11,14.55-8.11.41,0,.82,0,1.22,0A8.38,8.38,0,0,1,77,95.53,8.51,8.51,0,0,1,80.13,89a9.34,9.34,0,0,1-1.51-5.11A9.71,9.71,0,0,1,88,74.27a8,8,0,0,1-.22-1.84,8.26,8.26,0,0,1,9.54-7.91,4.39,4.39,0,0,1-.39-1.81,4.46,4.46,0,0,1,4.46-4.46h.16a5.34,5.34,0,0,1-.05-.69c0-3.92,3.79-7.09,8.47-7.09a9.87,9.87,0,0,1,3.73.72,6,6,0,0,1-.07-.95c0-4.55,4.5-8.23,10.06-8.23a10.79,10.79,0,0,1,1.81.13,10,10,0,0,1,8.83-14.55Z"/><path class="cls-5" d="M150.2,14.28A2.6,2.6,0,0,1,152,18.77,3.57,3.57,0,0,0,156,16c2-10.28-18.25-11-14.25,4,3.47,12.94,30.95,20.86,38.1,23.08l-36.34,9.2C127.38,44.23,122.78,19,132.36,6.12c8-10.77,27-6.49,28.42,6.31.39,3.47-1.05,6.9-5.47,8.84-3.09,1.36-7.92-.6-7.71-4.39A2.64,2.64,0,0,1,150.2,14.28Z"/><path class="cls-6" d="M152.67,72.1c-37.54,16.59-65.42,32.05-63.74,68.69.25,5.54.84,15,6.28,17.77,3.37,1.74,6.75-.49,5.46-5.63a2.85,2.85,0,1,1-2.33-4.48c2.61,0,5.6,3.19,4.63,9-.58,3.42-4.36,5.85-8.47,4.63-7.52-2.23-11-14.45-12.08-21.5-5.07-34.38,17.66-79.38,56.12-89C141.15,56.48,150.06,67.12,152.67,72.1Z"/><path class="cls-7" d="M136.48,104.67c-.63,5.12,8.36,5.56,7.24.3-.43-2-3.45-1.93-4.48,1a2.87,2.87,0,0,1,5-2.52c4.76,6.6-11,12.21-9.67-2.85C137.77,65,201.39,69.21,221.3,79.15Q226,65.56,230.69,52c-20-.8-59.05-3-83.85,9.9C128,71.68,114,105.65,131.93,113.7c5.64,2.53,13.31,1.16,16.18-3.3C154.66,100.24,137.91,92.87,136.48,104.67Z"/><path class="cls-8" d="M220.88,155.32c-6.27.17-5.78-10.76.46-8.81,2.38.75,1.95,4.39-1.77,5.3a3.5,3.5,0,0,0,3.62-5.76c-5.68-5-11.86,4.41-6.59,9.44,4.81,4.59,13.43,4.13,20.25-.05,10-6.13,11.1-16.62,9.08-27.37-.36-1.91-6.62-16.94-7.14-18.84l45.57-6.31c-.29,27.19-6.43,55.83-35,67.88-27.5,11.59-53.17-15.88-34.07-30.23C228.32,133.79,235.34,154.92,220.88,155.32Z"/><path class="cls-9" d="M246.67,138.89c8.89,1.59,2.79,15-3.65,16.46,7,1.54,12.62-2.2,16.42-7.63,3.51-5,4.45-1.18,3.82,2.64-1.79,10.78-12.31,18.43-22.92,22.92a35.41,35.41,0,0,0,9-2.48c22.56-9.5,31.15-29.34,33.91-50.64a15.68,15.68,0,0,0-6.55-3.5c-4.52-1.28-24.34-5.09-27.91-1.8-2.29,2.12-3.47,5.42-4.36,8.91a44.46,44.46,0,0,1,1.51,4.3A41.31,41.31,0,0,1,246.67,138.89Z"/><path class="cls-10" d="M260,77.81c-2.18-1.5-3-22.39-5.39-23.73C200.86,23.88,94.77,31,84.23,95.27c-2.78,17,3.43,27.9,13.91,28.67,21.14,1.57,19.28-22.27,7.39-23.2-8.84-.68-8.49,7.3-3.71,7.3,2.49,0,4.11-2.12,3-4.26,7.4,3.57,1.82,13.33-5.57,11.37s-9.89-17.52,5.19-32.46c34.37-34.08,104.07-21.06,127.37,9C241.66,80.55,250.09,88.91,260,77.81Z"/><path class="cls-11" d="M232.32,44.55c1.86,8.29,1.56,16-12.44,12.47-35.16-9-92.09-7.18-115.1,25.3C139,49,207.43,61.54,231.18,90.94l1.15.1c8-8.44,15.09-4.48,22.82-9.13l1.49-21c-.58-3.52-1.22-6.32-2-6.78A120.3,120.3,0,0,0,232.32,44.55Z"/><path class="cls-12" d="M247.59,81.93c42.73-.07,70.42,38.82,50.47,81.44-6.14,13.11-24,17.94-27.32,4.84-1.61-6.37,5.35-12.46,10.58-9.45s2,7.48-.74,5.61c-1.42-1-1.52-2.82,0-3.58-3.63-.55-5.22,2.42-4.4,5.18,3.26,11,18.8.61,11.94-17.59-6.13-16.28-28.72-26.65-40-25.32C246.81,112.86,248.9,92.13,247.59,81.93Z"/><path class="cls-13" d="M241.32,114.21c-12.32-12.31-55.4-22.6-62,1.53-2.37,8.72,1.49,15.83-2.27,25.3-4.7,11.82-17.4,15.63-28.43,11.39-8.09-3.1-11.58-9.29-11.68-15.19-.22-12.69,14.58-18.86,21.91-10.78,3.17,3.49,3.81,9,.23,12.26-2.55,2.29-7.13,1.41-7.13-2.22a2.68,2.68,0,1,1,5.35,0c1.67-2.73-1.82-7.76-6.3-4.19-2.56,2-3.14,6.81-.57,10.25a11.1,11.1,0,0,0,12.08,3.6c11.34-3.31,10.68-14,8.21-23.72-4.41-17.33-6.87-23.79,7.23-36.56,22.75-20.59,56.61-6.29,75.58,6.19C248.68,100,246.22,106.29,241.32,114.21Z"/><path class="cls-14" d="M236.58,82.78c.59,2.13.53,4.08-1.65,4.42-3.75.6-8.54-2.21-18-3.08-6.49-.6-11.65-.45-13.49,2.07,8.31-1.66,18.32,5.23,15.18,6.76-.93.45-3.41.27-6.06,0C197,91,177.06,99.18,178.8,118.47a22.82,22.82,0,0,1,.56-2.73c6.56-24.13,49.64-13.84,62-1.53,4.9-7.92,7.36-14.22,12.25-22.14A119.1,119.1,0,0,0,236.58,82.78Z"/><path class="cls-15" d="M195,123.45c8.18,1.46-2.75-6.8,9.73-7.21a6.55,6.55,0,0,1,4.82,1.9s0-.1,0-.15c0-4.71,4.46-8.53,10-8.53,7.69,0,8.71,8.82,4.72,12.06-3.21,2.58-8.34-2.21-2.25-4.67-4.16-.88-4.9,3.92-3.12,5.47,3.29,2.86,7.64.3,8.63-3.58a16.15,16.15,0,0,0-.66-8.27c2.5-1.63,8.1-2.34,11.14-1.41a14.69,14.69,0,0,1-1.07-5.51c0-6.7,4.81-12.6,10.32-15.39a111.73,111.73,0,0,0-17.08-8c.36-5.52,5.27-10.45,10.59-10.64a6.17,6.17,0,0,1,6,3.51,5.41,5.41,0,0,1,.23,3.45c-.83,3.31-5,4.23-5.91,2.3-.66-1.33.73-3.49,2.18-3.31-6.7.29-4.4,8.1,1.69,5.81a6.29,6.29,0,0,0,3.8-4.4c1.21-4.82-2.45-8.65-7-9.06.73-13.32,15.22-19.34,25.75-14.71,12.32,5.42,7.5,17.5,0,16.34a5.24,5.24,0,0,1-3-1.59c-2.29-2.36-.72-6.2,1.43-6,1.48.15,2.49,2.39,1.52,3.47,3.54-5.6-4.26-7.73-5.8-1.6a5.74,5.74,0,0,0,1.52,5.34c4.92,5.1,14,.48,13.56-7.45,6.75-.79,13.72,3.84,13.72,11.06a7.94,7.94,0,0,1,0,.85c3.59,1,6.85,3.59,7.9,7.26.58-.08-5.35.37-9,2.32C294.84,82.05,313,77,313,94.91v.46a7,7,0,0,1,5.1,3.68c-7,1.91-8.82,10.68-2.8,14.49a6.58,6.58,0,0,0,5.95.66c6-2.54,2-10-3.05-5.56.9-1.15,3.48-.5,4,1,.73,2.12-2.9,4.31-5.92,2.4-5.88-3.78-1.52-11.59,5.92-11.73,6.28-.12,11.37,4.41,11.37,9.84a8.79,8.79,0,0,1-1.31,4.6c1.85.88,3.06,2.36,3.06,4,0,2.72-3.18,4.92-7.1,4.92a9.05,9.05,0,0,1-4.71-1.23,8,8,0,0,1-5.57,2.33,8.31,8.31,0,0,1-7.27-4.6,7.12,7.12,0,0,1-2.47.44,6.78,6.78,0,0,1-4.23-1.45,12.18,12.18,0,0,1-17,.77,10,10,0,0,1-5.18,2.72,15.92,15.92,0,0,0-.75-8.23,10.58,10.58,0,0,0-8.33-7c-11-1.91-15.28,10-8,14.66a6.58,6.58,0,0,0,5.95.66c6.05-2.54,2-10-3.05-5.56.9-1.15,3.49-.5,4,1,.74,2.12-2.9,4.31-5.92,2.4a5.94,5.94,0,0,1-2.37-2.76c-1.7-4.16,1.91-9.81,9.06-8.57a8.78,8.78,0,0,1,6.95,5.87,13.89,13.89,0,0,1,.34,8.55l-.12.4A14.71,14.71,0,0,1,254,126.57c-1,4.3-6.67,7.6-13.51,7.6-4.87,0-9.14-1.67-11.56-4.18a9,9,0,0,1-6.92,3.09,8.59,8.59,0,0,1-7.94-4.71,6.4,6.4,0,0,1,.07.88,6.69,6.69,0,0,1-6.89,6.45,6.89,6.89,0,0,1-6.44-4.15,8.85,8.85,0,0,1-5.81,2C186,133.51,183.59,121.42,195,123.45Z"/><path class="cls-16" d="M287.72,65.62c.76,2.88.67,5.73-1.87,8-2.71,2.42-7.56,3.48-5,9.53.55,1.31,4.61,5.45,5.2,8.77.94,5.36-6.07,3-7.09,5.18s1,5.19-2.9,5.53a32.65,32.65,0,0,1-5-.41c-6.9-.38-15.79-.07-16.45,5.3-.53,4.3,1.08,10.54-5,10.58-3.52,0-6.55-1.75-8.08.9s-.31,4.65-3.25,8.22a16.52,16.52,0,0,1-6.58,4.75l-.13,0a18.28,18.28,0,0,0,8.9,2.16c6.84,0,12.51-3.3,13.51-7.6A14.71,14.71,0,0,0,279.55,124l.12-.4a13.89,13.89,0,0,0-.34-8.55,8.78,8.78,0,0,0-6.95-5.87c-7.15-1.24-10.76,4.41-9.06,8.57a5.94,5.94,0,0,0,2.37,2.76c3,1.91,6.66-.28,5.92-2.4-.5-1.46-3.09-2.11-4-1,5-4.46,9.1,3,3.05,5.56a6.58,6.58,0,0,1-5.95-.66c-7.31-4.63-3-16.57,8-14.66a10.58,10.58,0,0,1,8.33,7,15.92,15.92,0,0,1,.75,8.23,10,10,0,0,0,5.18-2.72,12.18,12.18,0,0,0,17-.77,6.78,6.78,0,0,0,4.23,1.45,7.12,7.12,0,0,0,2.47-.44,8.31,8.31,0,0,0,7.27,4.6,8,8,0,0,0,5.57-2.33,9.05,9.05,0,0,0,4.71,1.23c3.92,0,7.11-2.2,7.1-4.92,0-1.68-1.21-3.16-3.06-4a8.79,8.79,0,0,0,1.31-4.6c0-5.43-5.09-10-11.37-9.84-7.44.14-11.8,8-5.92,11.73,3,1.91,6.65-.28,5.92-2.4-.51-1.46-3.09-2.11-4-1,5-4.46,9.09,3,3.05,5.56a6.58,6.58,0,0,1-5.95-.66c-6-3.81-4.18-12.58,2.8-14.49a7,7,0,0,0-5.1-3.68v-.46c0-17.93-18.15-12.86-23.7-11.77,3.69-2,9.62-2.4,9-2.32-1.05-3.67-4.31-6.23-7.9-7.26a7.94,7.94,0,0,0,0-.85A10.4,10.4,0,0,0,287.72,65.62Z"/><path class="cls-17" d="M85.49,101.33c3.08-20.64,10.62-38.12,37.06-50.6C103.17,62.13,91.06,78.86,85.49,101.33Z"/><path class="cls-17" d="M126.32,106.82c-1.71-4.59-3.28-16.9,7.63-31.38C126.39,88.3,126.48,95.64,126.32,106.82Z"/><path class="cls-17" d="M150.82,123.46c-11.52,2.35-17.08,12.21-8.44,23.75C137.29,135.29,140.43,126.69,150.82,123.46Z"/><path class="cls-17" d="M197.35,78.41c-12.74,1.15-33.41,16.92-26.75,33.37C168.87,94.44,184.72,81.11,197.35,78.41Z"/></g></g></svg>