<svg id="Capa_1" enable-background="new 0 0 526.591 526.591" height="512" viewBox="0 0 526.591 526.591" width="512" xmlns="http://www.w3.org/2000/svg"><g><g><circle cx="270.591" cy="263.899" fill="#fed572" r="256"/><g><g><path d="m512 235.073c0 28.107-4.533 55.157-12.907 80.459-11.051 33.429-28.811 63.797-51.669 89.525-13.472 15.168-28.725 28.715-45.419 40.331-41.419 28.8-91.733 45.685-146.005 45.685s-104.587-16.885-146.005-45.685c-16.693-11.616-31.947-25.163-45.419-40.331-.192-.213-.384-.427-.565-.651-3.819-4.32-7.499-8.768-11.019-13.355-.256-.331-.512-.661-.747-.992v-.011c-3.883-5.077-7.552-10.283-11.04-15.648-.021-.021-.032-.053-.043-.075v-.011c-26.037-40.084-41.162-87.892-41.162-139.241 0-46.219 12.245-89.568 33.675-126.997 43.264 75.552 123.914 126.944 216.725 128.928 1.856.053 3.723.075 5.6.075 76.501 0 145.173-33.568 192.075-86.773 11.456-12.971 21.6-27.115 30.251-42.229 21.429 37.428 33.674 80.777 33.674 126.996z" fill="#f8bd57"/></g></g><g><path d="m447.424 405.057c-13.472 15.168-28.725 28.715-45.419 40.331-41.419 28.8-91.733 45.685-146.005 45.685s-104.587-16.885-146.005-45.685c-16.693-11.616-31.947-25.163-45.419-40.331z" fill="#c55733"/><path d="m447.424 405.057c-13.472 15.168-28.725 28.715-45.419 40.331-41.419 28.8-91.733 45.685-146.005 45.685v-86.016z" fill="#b74a2c"/><g><path d="m499.093 315.531c-11.051 33.429-28.811 63.797-51.669 89.525h-324.512l115.991-98.002 59.431-135.944 147.768-27.185 1.973 6.379z" fill="#c55733"/><path d="m256 362.817v42.24h-133.088l44.757-111.371h65.291z" fill="#db7158"/><path d="m255.996 362.812 114.249-127.688-91.202-91.202-46.079 149.766z" fill="#db7158"/><g fill="#ed9d3e"><path d="m446.097 143.922-75.852 91.202-91.202-91.202z"/><path d="m255.996 362.812-88.322-69.124h65.29z"/></g></g><g><g><ellipse cx="175.626" cy="68.118" fill="#fed110" rx="61.426" ry="61.426" transform="matrix(.224 -.975 .975 .224 69.922 224.038)"/><path d="m175.626 6.692v122.851c33.924 0 61.426-27.501 61.426-61.426-.001-33.924-27.502-61.425-61.426-61.425z" fill="#f4b311"/></g><g><ellipse cx="175.626" cy="68.118" fill="#ffdd50" rx="31.75" ry="31.75" transform="matrix(.227 -.974 .974 .227 69.472 223.732)"/><path d="m175.626 36.367v63.501c17.535 0 31.75-14.215 31.75-31.75s-14.215-31.751-31.75-31.751z" fill="#fed110"/></g></g><g fill="#ed9d3e"><circle cx="141.975" cy="430.268" r="15.225"/><circle cx="231.138" cy="462.511" r="7.476"/><ellipse cx="307.615" cy="458.386" rx="14.443" ry="14.443" transform="matrix(.332 -.943 .943 .332 -226.909 596.333)"/><circle cx="374.588" cy="430.268" r="7.476"/><circle cx="206.6" cy="422.518" r="7.476"/><circle cx="288.247" cy="422.518" r="7.476"/></g><g><path d="m192.558 186.409c.001-.092.007-.182.007-.273 0-16.753-13.581-30.335-30.335-30.335-3.98 0-7.777.774-11.26 2.168-6.727-12.051-19.598-20.205-34.379-20.205-19.195 0-35.172 13.747-38.645 31.931-1.035-.148-2.092-.229-3.168-.229-10.437 0-19.181 7.225-21.518 16.944h139.298z" fill="#fff"/><path d="m162.96 186.409c0-.053.004-.105.004-.157 0-9.634-7.81-17.443-17.443-17.443-2.289 0-4.472.445-6.475 1.247-3.868-6.93-11.269-11.618-19.769-11.618-11.038 0-20.225 7.905-22.222 18.361-.595-.085-1.203-.132-1.822-.132-6.001 0-11.029 4.154-12.373 9.743h80.1z" fill="#dfebff"/></g><g><path d="m394.673 65.109c.001-.092.007-.182.007-.273 0-16.753-13.581-30.335-30.335-30.335-3.98 0-7.777.774-11.26 2.168-6.727-12.051-19.598-20.205-34.379-20.205-19.196 0-35.172 13.747-38.645 31.931-1.035-.148-2.092-.229-3.168-.229-10.436 0-19.18 7.225-21.518 16.944h139.298z" fill="#fff"/><path d="m365.075 65.109c0-.053.004-.104.004-.157 0-9.634-7.81-17.443-17.443-17.443-2.289 0-4.472.445-6.475 1.247-3.868-6.93-11.269-11.618-19.769-11.618-11.038 0-20.225 7.905-22.222 18.361-.595-.085-1.203-.132-1.822-.132-6.001 0-11.029 4.154-12.373 9.743h80.1z" fill="#dfebff"/></g></g></g><g><path d="m64.605 269.211c-.011.021-.021 0-.032-.064.032.022.043.043.032.064z" fill="#dfebff"/></g><g><path d="m143.146 303.651c0 30.868-25.025 55.893-55.893 55.893h-23.242v-33.332h23.242c12.464 0 22.562-10.105 22.562-22.561 0-4.601 1.864-8.766 4.882-11.784s7.183-4.882 11.784-4.882 8.766 1.864 11.784 4.882c3.017 3.018 4.881 7.182 4.881 11.784z" fill="#00a34c"/><path d="m126.48 286.985v17.013c0 21.245-17.221 38.466-38.465 38.466h-24.004v-16.252h23.242c12.464 0 22.562-10.105 22.562-22.561 0-4.601 1.864-8.766 4.882-11.784 3.017-3.018 7.182-4.882 11.783-4.882z" fill="#48b766"/><path d="m90.869 292.065-5.504 112.992h-20.789c-4.021-4.523-7.893-9.195-11.584-14.005-4.149-5.387-8.075-10.933-11.787-16.651-.021-.021-.032-.053-.043-.075v-.011l-4.011-82.251c-.021-.448-.032-.896-.032-1.333 0-14.752 11.968-26.869 26.891-26.869 15.371 0 27.606 12.854 26.859 28.203z" fill="#61d87d"/><path d="m90.907 290.732c0 .442-.011.883-.032 1.33l-5.507 113h-10.679l2.751-113c.016-.447.021-.889.021-1.33 0-14.749-5.991-26.869-13.451-26.869 14.92-.001 26.897 12.12 26.897 26.869z" fill="#00a34c"/></g><g><path d="m143.144 303.654c0 30.869-25.024 55.893-55.893 55.893h-23.243v-33.333h.533l-.501 4.107h30.421c6.005 0 11.435-2.432 15.36-6.368 3.936-3.925 6.368-9.365 6.368-15.36 0-4.437 1.355-8.768 3.893-12.416l6.4-9.195c4.597 0 8.768 1.867 11.787 4.885 3.008 3.019 4.875 7.179 4.875 11.787z" fill="#00a34c"/><path d="m126.48 286.985v17.013c0 21.245-17.221 38.466-38.465 38.466h-24.004v-16.252h23.242c12.464 0 22.562-10.105 22.562-22.561 0-4.601 1.864-8.766 4.882-11.784 3.017-3.018 7.182-4.882 11.783-4.882z" fill="#48b766"/><path d="m90.912 290.732c0 .438-.011.875-.032 1.323l-5.515 113.003h-20.789c-.192-.213-.384-.427-.565-.651-3.819-4.32-7.499-8.768-11.019-13.355l-8.416-106.283c-.811-10.944 7.573-20.309 18.389-20.885.352-.011.693-.021 1.045-.021 14.923-.001 26.902 12.116 26.902 26.869z" fill="#00a34c"/><path d="m64.011 263.862v140.544c-3.819-4.32-7.499-8.768-11.019-13.355-.256-.331-8.416-106.283-8.416-106.283-.811-10.944 7.573-20.309 18.389-20.885.352-.01.694-.021 1.046-.021z" fill="#48b766"/><path d="m50.56 290.732c0 .438.011.885.021 1.333l2.411 98.987c-4.149-5.387-8.075-10.933-11.787-16.651-.021-.021-.032-.053-.043-.075l-4.011-82.262c-.021-.448-.032-.896-.032-1.333 0-14.752 11.968-26.869 26.891-26.869-7.455 0-13.45 12.117-13.45 26.87z" fill="#61d87d"/></g></g></svg>