<svg xmlns="http://www.w3.org/2000/svg" viewBox="0 0 64 64" width="64" height="64">
	<style>
		tspan { white-space:pre }
		.shp0 { fill: #ffb554 } 
		.shp1 { fill: #5dc4dd } 
		.shp2 { fill: #1e191a } 
	</style>
	<path id="Layer" class="shp0" d="M32 60C16.52 60 4 47.48 4 32C4 16.52 16.52 4 32 4C47.48 4 60 16.52 60 32C60 47.48 47.48 60 32 60Z" />
	<path id="Layer" class="shp1" d="M32 38L24 61L15 61L23 38L23 25L12 36L7 31L18.66 19.34C20.16 17.84 22.19 17 24.31 17L39.69 17C41.81 17 43.84 17.84 45.34 19.34L57 31L52 36L41 25L41 38L50 61L41 61L32 38Z" />
	<path id="Layer" class="shp1" d="M32 17C28.13 17 25 13.87 25 10C25 6.13 28.13 3 32 3C35.87 3 39 6.13 39 10C39 13.87 35.87 17 32 17Z" />
	<g id="Layer">
		<path id="Layer" fill-rule="evenodd" class="shp2" d="M26.73 16C25.06 14.53 24 12.39 24 10C24 5.59 27.59 2 32 2C36.41 2 40 5.59 40 10C40 12.39 38.94 14.53 37.27 16L39.69 16C42.09 16 44.35 16.94 46.05 18.64L57.71 30.29C57.89 30.48 58 30.73 58 31C58 31.27 57.89 31.52 57.71 31.71L52.71 36.71C52.32 37.1 51.68 37.1 51.29 36.71L42 27.41L42 37.81L50.93 60.64C51.05 60.94 51.01 61.29 50.83 61.56C50.64 61.84 50.33 62 50 62L41 62C40.59 62 40.22 61.75 40.07 61.36L32.06 40.89L24.94 61.33C24.8 61.73 24.43 62 24 62L15 62C14.68 62 14.37 61.84 14.18 61.58C14 61.32 13.95 60.98 14.06 60.67L22 37.83L22 27.41L12.71 36.71C12.32 37.1 11.68 37.1 11.29 36.71L6.29 31.71C6.11 31.52 6 31.27 6 31C6 30.73 6.11 30.48 6.29 30.29L17.95 18.64C19.65 16.94 21.91 16 24.31 16L26.73 16ZM24.31 18C22.44 18 20.69 18.73 19.36 20.05L8.41 31L12 34.59L22.29 24.29C22.58 24.01 23.01 23.92 23.38 24.08C23.76 24.23 24 24.6 24 25L24 38C24 38.11 23.98 38.22 23.94 38.33L16.41 60L23.29 60L31.06 37.67C31.19 37.28 31.56 37.01 31.98 37C31.99 37 31.99 37 32 37C32.41 37 32.78 37.25 32.93 37.64L41.68 60L48.54 60L40.07 38.36C40.02 38.25 40 38.12 40 38L40 25C40 24.6 40.24 24.23 40.62 24.08C40.99 23.92 41.42 24.01 41.71 24.29L52 34.59L55.59 31L44.64 20.05C43.31 18.73 41.56 18 39.69 18L24.31 18ZM26 10C26 13.31 28.69 16 32 16C35.31 16 38 13.31 38 10C38 6.69 35.31 4 32 4C28.69 4 26 6.69 26 10Z" />
		<path id="Layer" class="shp2" d="M60.62 36.69L58.65 36.36C58.54 37 58.42 37.64 58.27 38.27L60.21 38.73C60.37 38.06 60.51 37.37 60.62 36.69L60.62 36.69Z" />
		<path id="Layer" class="shp2" d="M61 32.53L59 32.49C58.98 33.14 58.95 33.79 58.89 34.43L60.88 34.61C60.95 33.92 60.98 33.22 61 32.53Z" />
		<path id="Layer" class="shp2" d="M58.96 30.55L60.96 30.44C60.92 29.74 60.86 29.04 60.77 28.36L58.79 28.61C58.87 29.25 58.93 29.9 58.96 30.55L58.96 30.55Z" />
		<path id="Layer" class="shp2" d="M58.11 44.62L56.31 43.75C56.03 44.33 55.73 44.91 55.4 45.47L57.13 46.47C57.48 45.86 57.81 45.24 58.11 44.62L58.11 44.62Z" />
		<path id="Layer" class="shp2" d="M56.03 48.24L54.37 47.12C54.01 47.65 53.63 48.18 53.22 48.69L54.79 49.92C55.23 49.38 55.64 48.81 56.03 48.24Z" />
		<path id="Layer" class="shp2" d="M50.6 51.56L51.98 53.01C52.48 52.53 52.97 52.03 53.44 51.52L51.96 50.17C51.53 50.65 51.07 51.12 50.6 51.56L50.6 51.56Z" />
		<path id="Layer" class="shp2" d="M58.48 26.69L60.44 26.3C60.3 25.61 60.14 24.93 59.96 24.27L58.03 24.8C58.2 25.42 58.35 26.05 58.48 26.69L58.48 26.69Z" />
		<path id="Layer" class="shp2" d="M46.12 6.67C45.51 6.33 44.88 6.01 44.25 5.72L43.41 7.53C43.99 7.8 44.58 8.1 45.14 8.42L46.12 6.67Z" />
		<path id="Layer" class="shp2" d="M49.6 8.96C49.06 8.54 48.48 8.14 47.9 7.75L46.8 9.42C47.35 9.78 47.88 10.16 48.39 10.55L49.6 8.96Z" />
		<path id="Layer" class="shp2" d="M53.81 16.09L55.43 14.91C55.02 14.35 54.58 13.8 54.14 13.27L52.61 14.57C53.03 15.06 53.43 15.57 53.81 16.09Z" />
		<path id="Layer" class="shp2" d="M52.73 11.73C52.24 11.23 51.73 10.74 51.22 10.29L49.89 11.79C50.37 12.21 50.84 12.66 51.3 13.13L52.73 11.73Z" />
		<path id="Layer" class="shp2" d="M55.88 19.39L57.64 18.45C57.32 17.84 56.97 17.23 56.6 16.64L54.91 17.7C55.25 18.25 55.57 18.82 55.88 19.39Z" />
		<path id="Layer" class="shp2" d="M57.44 22.95L59.33 22.27C59.09 21.62 58.83 20.97 58.55 20.33L56.72 21.14C56.98 21.73 57.23 22.34 57.44 22.95L57.44 22.95Z" />
		<path id="Layer" class="shp2" d="M59.66 40.75L57.75 40.14C57.55 40.76 57.33 41.38 57.1 41.97L58.95 42.71C59.21 42.07 59.45 41.41 59.66 40.75L59.66 40.75Z" />
		<path id="Layer" class="shp2" d="M13.38 51.55C12.91 51.09 12.45 50.63 12.02 50.15L10.54 51.5C11 52 11.49 52.51 12 52.99L13.38 51.55Z" />
		<path id="Layer" class="shp2" d="M6.89 41.95C6.66 41.35 6.44 40.73 6.24 40.12L4.33 40.72C4.54 41.38 4.78 42.04 5.03 42.69L6.89 41.95Z" />
		<path id="Layer" class="shp2" d="M17.23 9.41L16.13 7.73C15.55 8.11 14.98 8.52 14.42 8.94L15.64 10.53C16.15 10.14 16.69 9.76 17.23 9.41Z" />
		<path id="Layer" class="shp2" d="M10.76 48.67C10.37 48.16 9.98 47.64 9.62 47.1L7.96 48.22C8.35 48.8 8.77 49.36 9.19 49.91L10.76 48.67Z" />
		<path id="Layer" class="shp2" d="M14.13 11.76L12.81 10.27C12.29 10.73 11.78 11.21 11.29 11.7L12.72 13.1C13.17 12.65 13.65 12.19 14.13 11.76Z" />
		<path id="Layer" class="shp2" d="M8.59 45.45C8.27 44.89 7.96 44.31 7.68 43.73L5.88 44.6C6.18 45.23 6.51 45.85 6.85 46.45L8.59 45.45Z" />
		<path id="Layer" class="shp2" d="M20.62 7.52L19.78 5.7C19.15 6 18.52 6.32 17.92 6.65L18.89 8.4C19.45 8.09 20.04 7.79 20.62 7.52L20.62 7.52Z" />
		<path id="Layer" class="shp2" d="M5.21 28.58L3.23 28.32C3.14 29.01 3.08 29.71 3.04 30.4L5.04 30.51C5.08 29.86 5.13 29.21 5.21 28.58Z" />
		<path id="Layer" class="shp2" d="M5.98 24.77L4.05 24.23C3.87 24.89 3.71 25.58 3.57 26.26L5.53 26.66C5.66 26.02 5.81 25.38 5.98 24.77L5.98 24.77Z" />
		<path id="Layer" class="shp2" d="M5.11 34.4C5.05 33.76 5.01 33.11 5 32.46L3 32.49C3.02 33.19 3.05 33.89 3.11 34.58L5.11 34.4Z" />
		<path id="Layer" class="shp2" d="M9.11 17.67L7.42 16.61C7.05 17.2 6.7 17.81 6.37 18.42L8.14 19.36C8.44 18.79 8.77 18.22 9.11 17.67Z" />
		<path id="Layer" class="shp2" d="M11.41 14.54L9.89 13.24C9.44 13.77 9 14.32 8.59 14.88L10.21 16.07C10.59 15.55 10.99 15.03 11.41 14.54L11.41 14.54Z" />
		<path id="Layer" class="shp2" d="M7.29 21.11L5.46 20.3C5.18 20.94 4.92 21.6 4.69 22.24L6.57 22.91C6.78 22.31 7.02 21.71 7.29 21.11L7.29 21.11Z" />
		<path id="Layer" class="shp2" d="M3.37 36.65C3.48 37.33 3.62 38.02 3.78 38.7L5.72 38.24C5.58 37.61 5.45 36.97 5.35 36.33L3.37 36.65Z" />
		<path id="Layer" class="shp2" d="M30.95 60.98L31.03 58.98C30.38 58.96 29.73 58.91 29.08 58.84L28.87 60.83C29.56 60.9 30.26 60.96 30.95 60.98L30.95 60.98Z" />
		<path id="Layer" class="shp2" d="M33.04 60.98C33.74 60.96 34.44 60.9 35.13 60.83L34.91 58.84C34.27 58.91 33.62 58.96 32.97 58.98L33.04 60.98Z" />
	</g>
</svg>