<svg height="512" viewBox="0 0 64 64" width="512" xmlns="http://www.w3.org/2000/svg" xmlns:xlink="http://www.w3.org/1999/xlink"><clipPath id="clip-path"><circle cx="32" cy="32" r="31"/></clipPath><g clip-path="url(#clip-path)"><path d="m1 1h62v62h-62z" fill="#1c3680"/><circle cx="32" cy="27" fill="#254aad" r="25"/><circle cx="32" cy="31" fill="#2d61ed" r="25"/><path d="m5 26a26.881 26.881 0 0 0 3.289 12.923 24.96 24.96 0 0 1 -1.289-7.923c0-.674.034-1.339.087-2-.053-.661-.087-1.326-.087-2a25 25 0 0 1 50 0c0 .674-.034 1.339-.087 2 .053.661.087 1.326.087 2a24.96 24.96 0 0 1 -1.289 7.923 27.01 27.01 0 0 0 -13.511-37.923h-20.4a27 27 0 0 0 -16.8 25z" fill="#204096"/><path d="m61.5 6h-2.592a1.5 1.5 0 0 0 -1.408-1 1.512 1.512 0 0 0 -.587.119 2.5 2.5 0 1 0 -4.826 0 1.512 1.512 0 0 0 -.587-.119 1.5 1.5 0 0 0 -1.408 1h-2.592a.5.5 0 0 0 0 1h14a.5.5 0 0 0 0-1z" fill="#2d61ed"/><path d="m12.5 4h-.5a1 1 0 0 0 -2 0 2 2 0 0 0 -4 0 1 1 0 0 0 -2 0h-.5a.5.5 0 0 0 0 1h9a.5.5 0 0 0 0-1z" fill="#204096"/><path d="m1 18.9 9.445-7.269a3.509 3.509 0 0 1 3.141-.084l8.414 3.887 8.851-3.066a3.483 3.483 0 0 1 2.3 0l8.849 3.066 12.522-5.165a3.5 3.5 0 0 1 2.921.105l5.557 2.75v28.876h-62z" fill="#122454"/><path d="m43.4 16.77c1.87.12 3.74.36 5.18-.73a13.412 13.412 0 0 0 2.12-2.65c1.35-1.72 3.11-3.39 5.3-3.39h7v10c-4 0-6.48 1.02-9.61 2.42-1.23.54-2.46 1.09-3.69 1.63-.84.38-1.69.75-2.56 1.05a17.938 17.938 0 0 1 -4.11.82l-.13.12-.9-1.04-.92 1.07-.08-.07a10.668 10.668 0 0 0 -5.74-1.35 32.5 32.5 0 0 0 -6.94.96c-.47.12-.94.25-1.41.38-3.47-.09-6.25-1.95-9.53-3.12a23.064 23.064 0 0 0 -12.32-.85 4.522 4.522 0 0 0 -2.81 1.43c-.37.49-.69 1.29-1.25 1.55v-13c4-1 8.06-.73 10.58 2.16 1.1 1.27 1.83 2.94 3.29 3.76 1.84 1.01 4.09.31 6.21.32.12 0 .24 0 .36.01 3.73.19 7.1 3.14 10.8 2.57 3.16-.49 5.5-3.46 8.66-3.99a11.555 11.555 0 0 1 2.5-.06z" fill="#172e6b"/><path d="m56 10c-2.19 0-3.95 1.67-5.3 3.39a13.412 13.412 0 0 1 -2.12 2.65c-1.44 1.09-3.31.85-5.18.73a11.555 11.555 0 0 0 -2.5.06c-3.16.53-5.5 3.5-8.66 3.99-3.7.57-7.07-2.38-10.8-2.57-.12-.01-.24-.01-.36-.01-2.12-.01-4.37.69-6.21-.32-1.46-.82-2.19-2.49-3.29-3.76-2.52-2.89-6.58-3.16-10.58-2.16v2c4-1 8.06-.73 10.58 2.16 1.1 1.27 1.83 2.94 3.29 3.76 1.84 1.01 4.09.31 6.21.32.12 0 .24 0 .36.01 3.73.19 7.1 3.14 10.8 2.57 3.16-.49 5.5-3.46 8.66-3.99a11.555 11.555 0 0 1 2.5-.06c1.87.12 3.74.36 5.18-.73a13.412 13.412 0 0 0 2.12-2.65c1.35-1.72 3.11-3.39 5.3-3.39h7v-2z" fill="#1f3d8f"/><path d="m56 10c-2.19 0-3.95 1.67-5.3 3.39a13.412 13.412 0 0 1 -2.12 2.65c-1.44 1.09-3.31.85-5.18.73a11.555 11.555 0 0 0 -2.5.06c-3.16.53-5.5 3.5-8.66 3.99-3.7.57-7.07-2.38-10.8-2.57-.12-.01-.24-.01-.36-.01-2.12-.01-4.37.69-6.21-.32-1.46-.82-2.19-2.49-3.29-3.76-2.52-2.89-6.58-3.16-10.58-2.16v1c4-1 8.06-.73 10.58 2.16 1.1 1.27 1.83 2.94 3.29 3.76 1.84 1.01 4.09.31 6.21.32.12 0 .24 0 .36.01 3.73.19 7.1 3.14 10.8 2.57 3.16-.49 5.5-3.46 8.66-3.99a11.555 11.555 0 0 1 2.5-.06c1.87.12 3.74.36 5.18-.73a13.412 13.412 0 0 0 2.12-2.65c1.35-1.72 3.11-3.39 5.3-3.39h7v-1z" fill="#2a54c4"/><path d="m49.7 22.05c-.84.38-1.69.75-2.56 1.05a17.938 17.938 0 0 1 -4.11.82l-.13.12-.9-1.04-.92 1.07-.08-.07a10.668 10.668 0 0 0 -5.74-1.35 32.5 32.5 0 0 0 -6.94.96c-.47.12-.94.25-1.41.38-3.47-.09-6.25-1.95-9.53-3.12a23.064 23.064 0 0 0 -12.32-.85 4.522 4.522 0 0 0 -2.81 1.43c-.37.49-.69 1.29-1.25 1.55v2c.56-.26.88-1.06 1.25-1.55a4.522 4.522 0 0 1 2.81-1.43 23.064 23.064 0 0 1 12.32.85c3.28 1.17 6.06 3.03 9.53 3.12.47-.13.94-.26 1.41-.38a32.5 32.5 0 0 1 6.94-.96 10.668 10.668 0 0 1 5.74 1.35l.08.07.92-1.07.9 1.04.13-.12a17.938 17.938 0 0 0 4.11-.82c.87-.3 1.72-.67 2.56-1.05 1.23-.54 2.46-1.09 3.69-1.63 3.13-1.4 5.61-2.42 9.61-2.42v-2c-4 0-6.48 1.02-9.61 2.42-1.23.54-2.46 1.09-3.69 1.63z" fill="#122454"/><path d="m15 27-5.83 5.19-.17-.19-2.18-3-5.82 8v-12c.56-.26.88-1.06 1.25-1.55a4.522 4.522 0 0 1 2.81-1.43 23.064 23.064 0 0 1 12.32.85c3.28 1.17 6.06 3.03 9.53 3.12-3.55 1.04-7.17 2.5-10.77 2.02z" fill="#2a54c4"/><path d="m6.82 29 2.18 3 .17.19 5.83-5.19 1.14 1.01a12.119 12.119 0 0 0 3-.008c-.9-.395-1.8-.792-2.757-1.132a23.064 23.064 0 0 0 -12.32-.85 4.522 4.522 0 0 0 -2.81 1.43c-.085.112-.167.243-.25.378v9.172z" fill="#1f3d8f"/><path d="m2.25 24.45a4.522 4.522 0 0 1 2.81-1.43 23.064 23.064 0 0 1 12.32.85c2.542.907 4.787 2.219 7.283 2.809.751-.234 1.5-.47 2.247-.689-3.47-.09-6.25-1.95-9.53-3.12a23.064 23.064 0 0 0 -12.32-.85 4.522 4.522 0 0 0 -2.81 1.43c-.37.49-.69 1.29-1.25 1.55v1c.56-.26.88-1.06 1.25-1.55z" fill="#376dff"/><path d="m2.25 25.95a4.522 4.522 0 0 1 2.81-1.43 23.064 23.064 0 0 1 12.32.85c1.692.6 3.252 1.387 4.841 2.02.816-.217 1.63-.458 2.442-.711-2.5-.59-4.741-1.9-7.283-2.809a23.064 23.064 0 0 0 -12.32-.85 4.522 4.522 0 0 0 -2.81 1.43c-.37.49-.69 1.29-1.25 1.55v1.5c.56-.26.88-1.06 1.25-1.55z" fill="#3161e3"/><path d="m4.18 37-3.18 3v-3z" fill="#172e6b"/><path d="m26.91 25.99c.47-.13.94-.26 1.41-.38a32.5 32.5 0 0 1 6.94-.96 10.668 10.668 0 0 1 5.74 1.35l.08.07-6 6.93 3.84-1-3.84 6h3.07l-3.76 5.71-2.39-3.71 3.85 1-6.93-8-5.48 6.33-4.44-5.33 5 1-7.86-6.99c3.6.48 7.22-.98 10.77-2.02z" fill="#3161e3"/><path d="m63 20v19l-5.5-8-3.79 5.52-1.71-1.52-3.19 2.83-3.73-5.83 3.84 1-6.02-6.96.13-.12a17.938 17.938 0 0 0 4.11-.82c.87-.3 1.72-.67 2.56-1.05 1.23-.54 2.46-1.09 3.69-1.63 3.13-1.4 5.61-2.42 9.61-2.42z" fill="#3161e3"/><path d="m35.08 33 1.976-2.282a12.383 12.383 0 0 0 -1.8-.068 32.5 32.5 0 0 0 -6.94.96c-.47.12-.94.25-1.41.38-1.56.457-3.134.988-4.713 1.407l1.807 1.603-4.937-.987c-.016 0-.032 0-.047.006l4.424 5.311 5.48-6.33 6.93 8-3.85-1 2.39 3.71 3.6-5.468.16-.242h-3.07l3.84-6z" fill="#2a54c4"/><path d="m53.39 28.42c-1.23.54-2.46 1.09-3.69 1.63-.807.365-1.624.717-2.457 1.011l1.677 1.939-3.84-1 3.73 5.83 3.19-2.83 1.71 1.52 3.79-5.52 5.5 8v-13c-4 0-6.48 1.02-9.61 2.42z" fill="#2a54c4"/><path d="m41 26a10.668 10.668 0 0 0 -5.74-1.35 32.5 32.5 0 0 0 -6.94.96c-.47.12-.94.25-1.41.38-3.55 1.04-7.17 2.5-10.77 2.02l1.22 1.09c3.2.064 6.4-1.182 9.55-2.105.47-.13.94-.26 1.41-.38a32.5 32.5 0 0 1 6.94-.96 10.338 10.338 0 0 1 5.227 1.105l.593-.685z" fill="#4aceff"/><path d="m53.39 22.42c-1.23.54-2.46 1.09-3.69 1.63-.84.38-1.69.75-2.56 1.05a17.938 17.938 0 0 1 -4.11.82l-.13.12.706.816a17.66 17.66 0 0 0 3.534-.756c.87-.3 1.72-.67 2.56-1.05 1.23-.54 2.46-1.09 3.69-1.63 3.13-1.4 5.61-2.42 9.61-2.42v-1c-4 0-6.48 1.02-9.61 2.42z" fill="#4aceff"/><path d="m35.26 25.65a32.5 32.5 0 0 0 -6.94.96c-.47.12-.94.25-1.41.38-3.149.923-6.354 2.169-9.55 2.105l1.086.966c2.835-.189 5.671-1.253 8.464-2.071.47-.13.94-.26 1.41-.38a32.5 32.5 0 0 1 6.94-.96 10.122 10.122 0 0 1 4.6.827l.625-.722a10.338 10.338 0 0 0 -5.225-1.105z" fill="#1985ed"/><path d="m49.7 25.05c-.84.38-1.69.75-2.56 1.05a17.66 17.66 0 0 1 -3.534.756l.775.9a17.074 17.074 0 0 0 2.759-.656c.87-.3 1.72-.67 2.56-1.05 1.23-.54 2.46-1.09 3.69-1.63 3.13-1.4 5.61-2.42 9.61-2.42v-1c-4 0-6.48 1.02-9.61 2.42-1.23.54-2.46 1.09-3.69 1.63z" fill="#1985ed"/><path d="m63 39v3l-3-3z" fill="#1f3d8f"/><path d="m44 13a12.1 12.1 0 0 1 -.6 3.77 11.555 11.555 0 0 0 -2.5.06c-3.16.53-5.5 3.5-8.66 3.99-3.7.57-7.07-2.38-10.8-2.57-.12-.01-.24-.01-.36-.01l.01-.24a12 12 0 1 1 22.91-5z" fill="#bde0ff"/><path d="m43.489 16.456c.088-.291.163-.587.229-.887.023-.107.044-.214.064-.322.05-.262.089-.527.122-.795.013-.11.029-.219.039-.33.035-.37.057-.743.057-1.122a12 12 0 0 0 -24 0 12.2 12.2 0 0 0 .069 1.275c.016.146.046.287.066.432.039.27.076.541.133.8.034.162.082.319.123.478.062.242.123.483.2.719.05.153.11.3.166.453.088.236.176.472.279.7.057.129.121.254.183.381.074 0 .147 0 .221.006a8.367 8.367 0 0 1 .961.113 11.006 11.006 0 1 1 19.933-1.625c.349 0 .7.011 1.053.032.018-.056.042-.108.06-.163s.027-.095.042-.145z" fill="#fff"/><path d="m22 13a10 10 0 1 1 19.247 3.8 9.554 9.554 0 0 1 1.087-.065 11 11 0 1 0 -19.934 1.628 11.55 11.55 0 0 1 1.382.328 9.942 9.942 0 0 1 -1.782-5.691z" fill="#ebf5ff"/><path d="m32 3a9.994 9.994 0 0 0 -8.217 15.691c2.215.664 4.351 1.854 6.565 2.136a8.015 8.015 0 1 1 8.1-3.107 8.126 8.126 0 0 1 2.451-.89c.114-.018.232-.015.347-.027a10 10 0 0 0 -9.246-13.803z" fill="#d6ebff"/><path d="m46.87 39.56 1.76-1.56h.29l-.11-.17 3.19-2.83 1.71 1.52 7.29 6.48-5-1 5 6h-4l6 7h-5l5 8h-21-1l5-8h-5l6-7h-4l5-6-5 1z" fill="#05674c"/><path d="m63 63v-8h-5z" fill="#00352b"/><path d="m63 39-5.5-8-3.79 5.52 7.29 6.48-5-1 5 6h-4l6 7v-13l-3-3z" fill="#00352b"/><path d="m37.38 45-5.38 8h4l-5 10h-2l-7-8h6l-7-8h5l-2.66-3.1 2.51-3.9-3.85 1 .87-1h1.13l-.56-.67 5.48-6.33 6.93 8-3.85-1 2.39 3.71-.85 1.29z" fill="#004237"/><path d="m33.615 40.419 2.235.581-6.93-8-5.48 6.33.56.67h-1.13l-.87 1 2.226-.578 4.694-5.422z" fill="#05674c"/><path d="m6 35 5-1-5 6h4l-6 7h5l-7 8h5l-6 8v-23l3.18-3h-3.18l5.82-8 2.18 3 .17.19z" fill="#004237"/><g fill="#00352b"><path d="m6 40 5-6-3.6.72-4.4 5.28z"/><path d="m7 40-6 7h3l6-7z"/><path d="m6.17 32.19-3.17 2.81 3.874-.775 2.296-2.035-.17-.19-2.18-3-1.501 2.063.681.937z"/><path d="m1 63 6-8h-3l-3 4z"/><path d="m1 55h1l7-8h-3l-5 5.714z"/></g><path d="m48.92 33-6.02-6.96-.9-1.04-.92 1.07-6 6.93 3.84-1-3.84 6h3.07l-3.76 5.71-.85 1.29h3.84l-5.38 8h4l-5 10h10l5-8h-5l6-7h-4l5-6-5 1 3.87-3.44 1.76-1.56.18-.17-3.73-5.83z" fill="#004237"/><path d="m35 51 5.38-8h-3.84l.85-1.29 3.76-5.71h-3.07l3.84-6-3.84 1 4.557-5.264-.637-.736-.92 1.07-6 6.93 3.84-1-3.84 6h3.07l-3.76 5.71-.85 1.29h3.84l-5.38 8h4l-5 10h2l6-12z" fill="#05674c"/><path d="m25.85 40-2.51 3.9-3.34-3.9h2.87l-.87 1z" fill="#00352b"/><path d="m29 63-7-8h6l-7-8h5l-2.66-3.1-3.34-3.9h2.87 1.13l-.56-.67-4.44-5.33 5 1-7.86-6.99-1.14-1.01-5.83 5.19-3.17 2.81 5-1-5 6h4l-6 7h5l-7 8h5l-6 8z" fill="#05674c"/><path d="m28 55h4l-7-8h-4z" fill="#00352b"/><path d="m22 55 7 8h2l.727-1.455-5.727-6.545z" fill="#00352b"/><path d="m26 47h4l-2.66-3.1-2.284-2.667-1.716 2.667z" fill="#00352b"/><path d="m57 48h4l-5-6-4-2-4 2-5 6h4l5-3z" fill="#05674c"/><path d="m58 55h5l-6-7-5-3-5 3-6 7h5l6-3z" fill="#05674c"/><path d="m52 52-6 3-5 8h1 21l-5-8z" fill="#05674c"/><path d="m53.71 36.52-1.71-1.52-3.19 2.83.002.003-1.939 1.725-.003.002-3.87 3.44 5-1 4-2 4 2 5 1z" fill="#05674c"/><path d="m47.6 42.48-4.6 5.52h2l5-6z" fill="#07a260"/><path d="m47 48-6 7h2l6-7z" fill="#07a260"/><path d="m46 55-5 8h1 1l5-8z" fill="#07a260"/><path d="m48.873 39.558 1.939-1.725-.002-.003 2.189-1.942-.999-.888-3.19 2.83.002.003-1.939 1.725-.003.002-3.87 3.44 2.581-.516 3.289-2.924z" fill="#07a260"/><path d="m52 42 5 3h1.5l-2.5-3-4-2-4 2-2.5 3h1.5z" fill="#004e41"/><path d="m52 48 6 3h1.571l-2.571-3-5-3-5 3-2.571 3h1.571z" fill="#004e41"/><path d="m52 56 8.182 3 1.193 1.4-3.375-5.4-6-3-6 3-3.375 5.4 1.193-1.4z" fill="#004e41"/><path d="m46.873 41.558 1.939-1.725-.002-.003 3.19-2.83 1.71 1.52 4.387 3.899 2.903.581-7.29-6.48-1.71-1.52-3.19 2.83.002.003-1.939 1.725-.003.002-3.87 3.44 2.903-.581.967-.859z" fill="#07a260"/><path d="m20.44 39.33.56.67h1.87 1.13l-.56-.67-3.84-4.61-3.6-.72z" fill="#07a260"/><path d="m22 55h-3l7 8h3z" fill="#07a260"/><path d="m25 55h3l-7-8h-3z" fill="#07a260"/><path d="m17 40 3.34 3.9 2.66 3.1h3l-2.66-3.1-3.34-3.9h-.13z" fill="#07a260"/><path d="m15 33 5 4h1.499l-2.499-3-4-3-4 3-2.5 3h1.5z" fill="#004e41"/><path d="m15 29 1.14 1.01 4.959 4.41 2.901.58-7.86-6.99-1.14-1.01-5.83 5.19-3.17 2.81 2.914-.583.256-.227z" fill="#07a260"/><path d="m15 46 7 4h1.625l-2.625-3-6-5-6 5-2.625 3h.625z" fill="#004e41"/><path d="m15 39 6 5h2.426l-.086-.1-3.34-3.9-5-4-5 4-3.429 4h2.429z" fill="#004e41"/><path d="m25 59 1.667 1.333-4.667-5.333-7-4-8 4-2.847 3.797 10.847-3.797z" fill="#004e41"/><path d="m25.5 9h-2.592a1.5 1.5 0 0 0 -1.408-1 1.512 1.512 0 0 0 -.587.119 2.5 2.5 0 1 0 -4.826 0 1.512 1.512 0 0 0 -.587-.119 1.5 1.5 0 0 0 -1.408 1h-2.592a.5.5 0 0 0 0 1h14a.5.5 0 0 0 0-1z" fill="#fff"/><path d="m51.5 11h-.5a1 1 0 0 0 -2 0 2 2 0 0 0 -4 0 1 1 0 0 0 -2 0h-.5a.5.5 0 0 0 0 1h9a.5.5 0 0 0 0-1z" fill="#fff"/></g></svg>