<svg height="512pt" viewBox="0 0 512 511" width="512pt" xmlns="http://www.w3.org/2000/svg"><path d="m328.859375 68.203125c-5.417969-9.023437-20.300781-9.023437-25.722656 0l-60.570313 100.957031 103.433594 145.910156 76.464844-90.863281zm0 0" fill="#293939"/><path d="m331 270.921875-30 30h-271l-30-30 81.097656-138.601563 44.402344 14.101563h81l44.402344-14.101563 5.097656 8.699219zm0 0" fill="#537983"/><path d="m331 270.921875-30 30h-45v-159.902344zm0 0" fill="#3e5959"/><path d="m361 467.722656-30 44.199219h-316c-8.402344 0-15-6.597656-15-15v-226h211l45 33.898437 15 11.101563zm0 0" fill="#deecf1"/><path d="m361 467.722656-30 44.199219h-75v-207.101563l15 11.101563zm0 0" fill="#c5d3dd"/><path d="m179.109375 7.640625c-5.273437-9.519531-20.945313-9.519531-26.21875 0-4.535156 7.824219-75.460937 131.300781-71.65625 124.726563l44.160156 44.160156c5.859375 5.859375 15.351563 5.859375 21.210938 0l19.394531-19.394532 19.394531 19.394532c2.929688 2.929687 6.769531 4.394531 10.605469 4.394531s7.675781-1.464844 10.605469-4.394531l44.15625-44.15625c-1.855469-3.207032-75.242188-130.929688-71.652344-124.730469zm0 0" fill="#deecf1"/><path d="m451 270.921875h-150v45l90 151.847656 30 44.152344h76c8.285156 0 15-6.714844 15-15v-181zm0 0" fill="#c5d3dd"/><path d="m136 450.921875c-8.289062 0-15-6.710937-15-15v-60c0-8.292969 6.710938-15 15-15s15 6.707031 15 15v60c0 8.289063-6.710938 15-15 15zm0 0" fill="#537983"/><path d="m196 390.921875h-120c-4.980469 0-9.625-2.476563-12.421875-6.59375-2.78125-4.113281-3.355469-9.359375-1.507813-13.972656l60-150c4.570313-11.398438 23.289063-11.398438 27.859376 0l60 150c1.847656 4.613281 1.273437 9.855469-1.507813 13.972656-2.796875 4.117187-7.441406 6.59375-12.421875 6.59375zm0 0" fill="#7fe881"/><path d="m436 390.921875c-8.289062 0-15-6.710937-15-15v-60c0-8.292969 6.710938-15 15-15s15 6.707031 15 15v60c0 8.289063-6.710938 15-15 15zm0 0" fill="#3e5959"/><path d="m497 330.921875h-121c-4.980469 0-9.625-2.476563-12.421875-6.59375-2.78125-4.113281-3.355469-9.359375-1.507813-13.972656l60-150c4.570313-11.398438 23.289063-11.398438 27.859376 0l61 150c1.847656 4.613281 1.273437 9.855469-1.507813 13.972656-2.796875 4.117187-7.441406 6.59375-12.421875 6.59375zm0 0" fill="#5bc980"/><path d="m421 467.722656v44.199219h-90v-44.199219c0-24.902344-14.699219-47.703125-37.199219-58.199218-14.101562-6.601563-27-15-37.800781-25.199219-28.5-25.203125-45-60.601563-45-98.402344v-15h90v15c0 17.402344 10.5 33.300781 27 40.199219 56.402344 24.300781 93 80.101562 93 141.601562zm0 0" fill="#64e1dc"/><path d="m421 467.722656v44.199219h-90v-44.199219c0-24.902344-14.699219-47.703125-37.199219-58.199218-14.101562-6.601563-27-15-37.800781-25.199219v-113.402344h45v15c0 17.402344 10.5 33.300781 27 40.199219 56.402344 24.300781 93 80.101562 93 141.601562zm0 0" fill="#00c8c8"/></svg>