<svg id="Capa_1" enable-background="new 0 0 512 512" height="512" viewBox="0 0 512 512" width="512" xmlns="http://www.w3.org/2000/svg"><g><g><path d="m429.477 440 4.375-25.34 27.927-14.66c15.6-24.086 27.077-51.084 33.455-80l-8.957-20.574 14.379-19.426c.225-4.305.344-8.639.344-13 0-9.132-.516-18.142-1.49-27.014l-13.233-19.986 5.451-19.991c-29.143-102.745-123.645-178.009-235.728-178.009-80.153 0-151.312 38.494-196.011 98v40l-39.714 40c-6.041 21.295-9.275 43.77-9.275 67 0 18.201 2.002 35.931 5.766 53l16.404 18.745-3.883 21.255c12.38 30.148 30.586 57.288 53.236 80l39.838 14.489 12.511 25.511c35.726 20.36 77.066 32 121.128 32 67.776 0 129.122-27.524 173.477-72z" fill="#00adf4"/></g><g><circle cx="256" cy="252" fill="#009cf2" r="200"/></g><g><path d="m160.306 260h-59.372c-11.046 0-20-8.954-20-20 0-11.046 8.954-20 20-20h59.372c11.046 0 20 8.954 20 20 0 11.046-8.954 20-20 20z" fill="#e6f8fc"/></g><g><path d="m130.62 240c0-11.046 8.954-20 20-20h-49.686c-11.046 0-20 8.954-20 20s8.954 20 20 20h49.686c-11.046 0-20-8.954-20-20z" fill="#b8e9fa"/></g><g><path d="m122.021 120h-62.032c-17.804 23.702-31.412 50.734-39.714 80h36.087c11.046 0 20-8.954 20-20s8.954-20 20-20h25.66c11.046 0 20-8.954 20-20s-8.955-20-20.001-20z" fill="#b8e9fa"/></g><g><path d="m370.28 200c-11.05 0-20-8.95-20-20s8.95-20 20-20h32c11.04 0 20-8.95 20-20s8.95-20 20-20h38.72c11.05 0 20-8.95 20-20s-8.95-20-20-20h-106.13c-11.04 0-20-8.95-20-20 0-5.67 2.36-10.79 6.15-14.41 3.59-3.47 8.48-5.59 13.85-5.59h27.41c11.04 0 20-8.95 20-20s-8.96-20-20-20h-218.62c-11.05 0-20 8.95-20 20s-8.96 20-20 20h-42.73c-11.04 0-20 8.95-20 20 0 10.04 7.39 18.34 17.03 19.78.97.14 1.96.22 2.97.22h31.09c11.05 0 20 8.95 20 20s8.96 20 20 20h95.88c11.05 0 20 8.95 20 20s-8.95 20-20 20h-75.96c-11.05 0-20 8.95-20 20s8.95 20 20 20h21.72c11.04 0 20 8.95 20 20s8.95 20 20 20h245.86c-1.49-13.71-4.13-27.07-7.79-40zm-183.32-120c-11.05 0-20-8.95-20-20s8.95-20 20-20c11.04 0 20 8.95 20 20s-8.96 20-20 20zm62.85 0c-11.05 0-20-8.95-20-20s8.95-20 20-20h59.37c11.05 0 20 8.95 20 20s-8.95 20-20 20zm76.89 80c-11.04 0-20-8.95-20-20s8.96-20 20-20c11.05 0 20 8.95 20 20s-8.95 20-20 20z" fill="#e6f8fc"/></g><g><path d="m461.779 400h-57.8c-11.046 0-20-8.954-20-20s8.954-20 20-20h26.638c11.046 0 20-8.954 20-20s8.954-20 20-20h24.617c2.863-12.979 4.708-26.339 5.423-40h-424.657c-11.046 0-20 8.954-20 20s-8.954 20-20 20h-19.234c3.045 13.807 7.254 27.175 12.521 40h43.628c11.046 0 20 8.954 20 20s8.954 20 20 20h47.319c11.046 0 20 8.954 20 20s-8.954 20-20 20h-77.711c15.519 15.562 33.121 29.042 52.349 40h150.213c11.046 0 20-8.954 20-20s8.954-20 20-20h104.392c12.107-12.14 22.942-25.548 32.302-40zm-176.694 0h-60.425c-11.046 0-20-8.954-20-20s-8.954-20-20-20h-19.149c-11.046 0-20-8.954-20-20s8.954-20 20-20h68.596c11.046 0 20 8.954 20 20s8.954 20 20 20h10.979c11.046 0 20 8.954 20 20s-8.955 20-20.001 20zm61.617-40c-11.046 0-20-8.954-20-20s8.954-20 20-20 20 8.954 20 20-8.954 20-20 20z" fill="#e6f8fc"/></g><g><path d="m276 0h-92.34c-11.05 0-20 8.95-20 20s-8.96 20-20 20h-42.73c-11.04 0-20 8.95-20 20 0 10.04 7.39 18.34 17.03 19.78.97.14 1.96.22 2.97.22h31.09c11.05 0 20 8.95 20 20s8.96 20 20 20h79.214c-11.046 0-20-8.954-20-20s8.954-20 20-20h-1.424c-11.05 0-20-8.95-20-20s8.95-20 20-20h26.19c-11.046 0-20-8.954-20-20s8.954-20 20-20zm-89.04 80c-11.05 0-20-8.95-20-20s8.95-20 20-20c11.04 0 20 8.95 20 20s-8.96 20-20 20z" fill="#b8e9fa"/></g><g><path d="m262.368 200c-11.046 0-20-8.954-20-20s8.954-20 20-20h-70.428c-11.05 0-20 8.95-20 20s8.95 20 20 20h21.72c11.04 0 20 8.95 20 20s8.95 20 20 20h245.86c-1.49-13.71-4.13-27.07-7.79-40z" fill="#b8e9fa"/></g><g><path d="m182.958 280h-106.958c-11.046 0-20 8.954-20 20s-8.954 20-20 20h-19.234c3.045 13.807 7.254 27.175 12.521 40h43.628c11.046 0 20 8.954 20 20s8.954 20 20 20h47.319c11.046 0 20 8.954 20 20s-8.954 20-20 20h-77.711c15.519 15.562 33.121 29.042 52.349 40h150.213c11.046 0 20-8.954 20-20s8.954-20 20-20h-68.255c-11.046 0-20-8.954-20-20s8.954-20 20-20h-32.17c-11.046 0-20-8.954-20-20s-8.954-20-20-20h-19.149c-11.046 0-20-8.954-20-20s8.954-20 20-20h17.447c-11.046 0-20-8.954-20-20s8.954-20 20-20z" fill="#b8e9fa"/></g></g></svg>