<?xml version="1.0" encoding="iso-8859-1"?>
<!-- Generator: Adobe Illustrator 19.0.0, SVG Export Plug-In . SVG Version: 6.00 Build 0)  -->
<svg version="1.1" id="Layer_1" xmlns="http://www.w3.org/2000/svg" xmlns:xlink="http://www.w3.org/1999/xlink" x="0px" y="0px"
	 viewBox="0 0 512 512" style="enable-background:new 0 0 512 512;" xml:space="preserve">
<circle style="fill:#649BD2;" cx="256" cy="256" r="256"/>
<path style="fill:#71AADC;" d="M512,256c0-32.341-6.057-63.251-17-91.739c0,0-200.65,12.521-344,39.739
	C72,219,0.081,252.815,0.081,252.815C0.067,253.88,0,254.932,0,256c0,125.164,89.848,229.28,208.549,251.539
	c49.711-5.838,103.726-12.592,155.285-19.358C451.32,447.478,512,358.849,512,256z"/>
<g>
	<path style="fill:#7DB9E6;" d="M254.667,176c-16.919-13.958-73.667-35-88-30.667C153.403,149.343,28,320,28,320l302.667,76
		C330.667,396,268,187,254.667,176z"/>
	<path style="fill:#7DB9E6;" d="M510.939,278.738C475.599,251.75,422.07,206.69,411,203c-10.817-3.605-44,19-44,19l-11,134
		l126.374,19.542C497.906,346.19,507.88,313.464,510.939,278.738z"/>
</g>
<path style="fill:#A0CDEB;" d="M411,203c-2.032-0.677-4.855-0.428-8.098,0.421c2.646,34.772,5.889,96.105,27.098,89.579
	c26-8,52-27,61,18c2.012,10.06,4.222,20.285,6.441,30.14c6.982-19.8,11.587-40.709,13.499-62.402
	C475.599,251.75,422.07,206.69,411,203z"/>
<path style="fill:#7DB9E6;" d="M124,385.333c0,0,71-238.333,86-251.333c9.678-8.387,44.21-36.077,52-34c15,4,49.244,55.871,59,63
	c26,19,65,43,72,60c5.303,12.879-3,158-3,158L124,385.333z"/>
<path style="fill:#A0CDEB;" d="M330.667,396c0,0-62.667-209-76-220c-16.919-13.958-73.667-35-88-30.667
	c-0.175,0.053-0.459,0.235-0.67,0.33c6.552,1.486,11.337,6.803,11.337,19.67c0,26.921-35.367,171.986-51.177,235.494
	C193.45,415.158,330.667,396,330.667,396z"/>
<path style="fill:#7DB9E6;" d="M237.979,404.774C232.99,318.101,213.107,192.536,204,198
	c-7.786,4.672-21.025,145.716-26.507,207.952C197.172,406.471,218.103,405.883,237.979,404.774z"/>
<path style="fill:#A0CDEB;" d="M393,223c-8.222-16.444-46-41-72-60c-0.609-0.445-1.314-1.065-2.104-1.836
	c5.364,16.719,9.919,38.56,10.437,65.503C330.667,296,333,313,350,313C368.615,313,397,231,393,223z"/>
<path style="fill:#7DB9E6;" d="M262,416c0,0-13-219,12-226c15.073-4.22,80,227,80,227L262,416z"/>
<polygon style="fill:#5AA07E;" points="261.5,370 270.5,356.5 276,363 290,345.5 300,359.5 308,349.667 314,358.667 326,343 
	334.75,350.75 341.5,338.5 348.25,347.5 359,338 368.333,348 380,335 390,352 401,333 421.333,364.667 "/>
<g>
	<path style="fill:#DAEFF9;" d="M213.75,182c11.25,22,22.513,35.317,31.25,23.667c8-10.667,20.64-5.791,21.654-5.22
		c-5.241-13.333-9.484-22.381-11.988-24.447c-16.919-13.958-73.667-35-88-30.667C176.25,147.25,200.201,155.504,213.75,182z"/>
	<path style="fill:#DAEFF9;" d="M321,163c0,0,22.153,24.763,32,74c5,25,24.609,56.566,40-5c1-4,0.469-7.861,0-9
		C386,206,345,179,321,163z"/>
	<path style="fill:#DAEFF9;" d="M411,203c-2.032-0.677-4.855-0.428-8.098,0.421c0,0,7.098,0.579,24.598,42.579
		c7.371,17.689,19.573,22.741,33.5,21c17.826-2.228,38.662,16.764,48.215,26.693c0.729-4.94,1.283-9.934,1.725-14.961
		C475.604,251.75,422.073,206.691,411,203z"/>
	<path style="fill:#DAEFF9;" d="M256,368c-90.624,0-174.998-15.135-245.982-41.124C40.766,433.77,139.215,512,256,512
		s215.234-78.23,245.982-185.124C430.998,352.865,346.624,368,256,368z"/>
</g>
<path style="fill:#C3E1F2;" d="M60.895,421.652c28.769,33.85,66.157,60.125,108.81,75.397C239.698,475.762,308,453,308,453l-11-57.5
	C259.886,410.346,156.5,430,60.895,421.652z"/>
<path style="fill:#4B8C7D;" d="M163.5,347.5L153,326.75L142.667,338l-10-20L120,341.667l-16-40l-6,15L83,281l-11,16.333L57,264
	l-14.667,22.333L35.667,265l-10,20L16,272L2.82,293.966c5.331,35.848,18.126,69.238,36.703,98.619C99,377,181,371,181,371
	l-13.25-29.25L163.5,347.5z"/>
<polygon style="fill:#5AA07E;" points="111.8,300 91,362.4 132.6,362.4 "/>
<rect x="108.33" y="362.4" style="fill:#785F5A;" width="6.933" height="41.6"/>
<polygon style="fill:#6DB195;" points="111.8,300 104.867,320.8 118.733,362.4 132.6,362.4 "/>
<polygon style="fill:#5AA07E;" points="60.889,288 36,375.111 85.778,375.111 "/>
<rect x="57.778" y="375.11" style="fill:#785F5A;" width="6.222" height="24.889"/>
<polygon style="fill:#6DB195;" points="60.889,288 54.667,309.778 73.333,375.111 85.778,375.111 "/>
<polygon style="fill:#5AA07E;" points="87.533,302.333 62.274,390.741 112.793,390.741 "/>
<rect x="84.38" y="390.74" style="fill:#785F5A;" width="6.315" height="25.26"/>
<polygon style="fill:#6DB195;" points="87.533,302.333 81.219,324.435 100.163,390.741 112.793,390.741 "/>
<path style="fill:#4B8C7D;" d="M504.271,318.543l-11.605-15.876l-11.333,20l-10-9.667l-9,14l-7.667-12l-8.333,24.667L433,320
	l-10.333,19.333L416,327l-16,25.667l-9.333-15.334l-8.667,18l-6-10L363.333,366L356,356l-12,23.333l22.667,24l86.871,15.513
	C477.319,390.03,494.887,355.911,504.271,318.543z"/>
<polygon style="fill:#5AA07E;" points="440.918,315.088 420.371,379.036 462.849,378.574 "/>
<rect x="439.125" y="378.769" transform="matrix(-0.9999 0.0109 -0.0109 -0.9999 887.8369 784.557)" style="fill:#785F5A;" width="5.31" height="31.859"/>
<polygon style="fill:#6DB195;" points="440.918,315.088 435.781,331.075 452.23,378.689 462.849,378.574 "/>
<polygon style="fill:#5AA07E;" points="407.455,332.506 387.643,394.167 428.602,393.722 "/>
<polygon style="fill:#6DB195;" points="407.455,332.506 402.502,347.921 418.362,393.833 428.602,393.722 "/>
<path style="fill:#EDF7FC;" d="M464.687,404.12C364,348.333,317.333,382.333,233.333,423.333
	c-30.598,14.935-94.254,34.662-134.25,34.866C142.414,491.902,196.844,512,256,512C342.166,512,418.312,469.384,464.687,404.12z"/>
<g>
	<path style="fill:#DAEFF9;" d="M320.667,442C292.5,468,255,497.5,220.998,509.584C232.444,511.153,244.121,512,256,512
		c67.792,0,129.312-26.456,175.08-69.491C403.333,422,355.915,409.464,320.667,442z"/>
	<circle style="fill:#DAEFF9;" cx="324.83" cy="414.5" r="3.833"/>
	<circle style="fill:#DAEFF9;" cx="390" cy="406" r="3.833"/>
	<circle style="fill:#DAEFF9;" cx="415.5" cy="405.33" r="3.833"/>
	<circle style="fill:#DAEFF9;" cx="292.33" cy="420" r="3.833"/>
	<circle style="fill:#DAEFF9;" cx="376.5" cy="391.33" r="3.833"/>
	<circle style="fill:#DAEFF9;" cx="347.83" cy="398.5" r="3.833"/>
	<circle style="fill:#DAEFF9;" cx="278.83" cy="448.33" r="3.833"/>
	<circle style="fill:#DAEFF9;" cx="239" cy="468" r="3.833"/>
	<circle style="fill:#DAEFF9;" cx="198" cy="459" r="3.833"/>
</g>
<g>
	<circle style="fill:#EDF7FC;" cx="309" cy="476.33" r="5.167"/>
	<circle style="fill:#EDF7FC;" cx="342.33" cy="477.67" r="5.167"/>
	<circle style="fill:#EDF7FC;" cx="349.33" cy="452" r="5.167"/>
	<circle style="fill:#EDF7FC;" cx="379.67" cy="456" r="5.167"/>
</g>
<path style="fill:#5591D2;" d="M15.595,167.824c0,0,36.265-37.125,122.405-76.824c115-53,229.748-65.366,229.748-65.366
	C333.978,9.222,296.069,0,256,0C145.602,0,51.529,69.882,15.595,167.824z"/>
<g>
</g>
<g>
</g>
<g>
</g>
<g>
</g>
<g>
</g>
<g>
</g>
<g>
</g>
<g>
</g>
<g>
</g>
<g>
</g>
<g>
</g>
<g>
</g>
<g>
</g>
<g>
</g>
<g>
</g>
</svg>
