<svg height="512" viewBox="0 0 64 64" width="512" xmlns="http://www.w3.org/2000/svg"><path d="m41 26h20v20h-20z" fill="#d3843d"/><path d="m41 26h20v8h-20z" fill="#ad6327"/><path d="m47 38h8v8h-8z" fill="#66342e"/><path d="m61 26h-20v-5l6-3h8l6 3z" fill="#f9bb4b"/><path d="m46 21h2v2h-2z" fill="#fcf05a"/><path d="m50 21h2v2h-2z" fill="#fcf05a"/><path d="m54 21h2v2h-2z" fill="#fcf05a"/><path d="m3 21h20v25h-20z" fill="#d3843d"/><path d="m8 38h10v8h-10z" fill="#66342e"/><path d="m12 38h2v8h-2z" fill="#995f5b"/><path d="m23 21h-20l10-8z" fill="#f9bb4b"/><path d="m3 21h20v8h-20z" fill="#ad6327"/><path d="m8 34h5v4h-5z" fill="#ffd782"/><path d="m13 34h5v4h-5z" fill="#f7bf66"/><path d="m33 33h-8l4-6z" fill="#55b56a"/><path d="m27 33-2 4h8l-2-4z" fill="#8ec13f"/><path d="m39 20h-8l4-6z" fill="#55b56a"/><path d="m33 20-2 4h8l-2-4z" fill="#8ec13f"/><path d="m33 24-2 4h8l-2-4z" fill="#c8d952"/><path d="m27 37-2 4h8l-2-4z" fill="#c8d952"/><path d="m28 41h2v5h-2z" fill="#d3843d"/><path d="m57 14v-1a2.768 2.768 0 0 0 -3-3h-1c-.593-1.9-2-3-5-3-2.227 0-4.518.932-5 3h-1a2.919 2.919 0 0 0 -3 3v1z" fill="#cdeef6"/><path d="m36 10v-1a2.768 2.768 0 0 0 -3-3h-1c-.593-1.9-2-3-5-3-2.227 0-4.518.932-5 3h-1a2.919 2.919 0 0 0 -3 3v1z" fill="#cdeef6"/><path d="m3 46h58v15h-58z" fill="#55b56a"/><g fill="#3e8051"><path d="m10 50h2v2h-2z"/><path d="m12 56h6v2h-6z"/><path d="m33 49h2v2h-2z"/><path d="m54 49h2v2h-2z"/><path d="m56 51h2v2h-2z"/><path d="m6 52h2v2h-2z"/></g><path d="m29.628 52.071-2.828 1.134 1.133-2.833-1.858-.744-1.075 2.68-1.071-2.68-1.858.744 1.129 2.833-2.832-1.134-.744 1.858 5 2a1.01 1.01 0 0 0 .744 0l5-2z" fill="#c8d952"/><path d="m51.628 54.071-2.828 1.134 1.133-2.833-1.858-.744-1.075 2.68-1.071-2.68-1.858.744 1.129 2.833-2.832-1.134-.744 1.858 5 2a1.01 1.01 0 0 0 .744 0l5-2z" fill="#c8d952"/><path d="m34 28h2v18h-2z" fill="#d3843d"/><path d="m61 26h-2.26l-7.74 2.92-7.74-2.92h-2.26v1.31l7.14 2.69-7.14 2.69v1.31h2.26l7.74-2.92 7.74 2.92h2.26v-1.31l-7.14-2.69 7.14-2.69z" fill="#66342e"/><path d="m23 21h-2.56l-7.43 2.44h-.01l-7.44-2.44h-2.56v1.27l6.79 2.23-6.79 2.23v2.11l9.99-3.28h.01l10 3.28v-2.11l-6.79-2.23 6.79-2.23z" fill="#66342e"/></svg>