<svg height="512" viewBox="0 0 64 64" width="512" xmlns="http://www.w3.org/2000/svg"><g id="Flat"><g id="Color_copy" data-name="Color copy"><path d="m3 26 3-5 7 9v9.122l-10-.122z" fill="#efad1b"/><path d="m3 29 3-3 5 4 2 9.122-10-.122z" fill="#d8950f"/><path d="m22 3-10 11-2 16-7 9h41l-8-8-2-15-9-4z" fill="#fcea42"/><path d="m18 10-6 4-2 16-7 9h41l-8-8-6-13-7-1z" fill="#fdc741"/><path d="m11 35 6-6v-7l4-4 7 2 1 9-4 12z" fill="#efad1b"/><path d="m11 35 6-6v-7l4-4 1 6 7 5-4 12z" fill="#d8950f"/><path d="m48 35 8-13 3 4 2 1v12h-14z" fill="#fcea42"/><path d="m48 35 8-13 1 6 4 2v9h-14z" fill="#fdc741"/><path d="m61 39h-47l10-5 3-10 10-5 3-7 7 4 1 8 7 5z" fill="#fdc741"/><path d="m61 39h-47l16-4 1-8-2.517-3.741 8.517-4.259 2 4 1-11 5 6 1 6 9 5z" fill="#efad1b"/><path d="m48 24 7 5 6 10h-32.36l5.36-9 6-1 3-9z" fill="#fcea42"/><path d="m50 30h2l9 9h-28.36l4.36-7 9-2 1-3z" fill="#fdc741"/><path d="m3 36 6.335-2.437a17.735 17.735 0 0 1 13.246.208l4.9 2.064a17.729 17.729 0 0 0 14.81-.482 17.731 17.731 0 0 1 17.052.655l1.657.992v24h-58z" fill="#52b788"/><path d="m61 37v24h-58v-21l.51-.34a12.889 12.889 0 0 1 15.95 1.3 12.89 12.89 0 0 0 16.06 1.23l9.7-6.61a12.908 12.908 0 0 1 5.24-2.09 17.587 17.587 0 0 1 8.89 2.52z" fill="#40916c"/><path d="m37 61h-34v-19a39.813 39.813 0 0 1 32.858 17.331z" fill="#95d5b2"/><path d="m27 61h-24v-16l1 .187a34.466 34.466 0 0 1 23 15.813z" fill="#52b788"/><path d="m61 61h-46l1.617-1.957a48.372 48.372 0 0 1 44.383-17.043z" fill="#bbefc1"/><circle cx="54" cy="10" fill="#ff7373" r="3"/><circle cx="54" cy="10" fill="#ef5350" r="1"/><g fill="#fcea42"><circle cx="54" cy="4" r="1"/><circle cx="60" cy="10" r="1"/><circle cx="48" cy="10" r="1"/><circle cx="54" cy="16" r="1"/><circle cx="58.243" cy="5.757" r="1"/><circle cx="58.243" cy="14.243" r="1"/><circle cx="49.757" cy="5.757" r="1"/><circle cx="49.757" cy="14.243" r="1"/></g><path d="m61 61h-33l3.4-5.1a31.6 31.6 0 0 1 29.6-13.9z" fill="#95d5b2"/><path d="m56 49a1 1 0 0 1 -1-1v-2a1 1 0 0 1 2 0v2a1 1 0 0 1 -1 1z" fill="#52b788"/><path d="m50 50a1 1 0 0 1 -1-1v-2a1 1 0 0 1 2 0v2a1 1 0 0 1 -1 1z" fill="#52b788"/><path d="m53 57a1 1 0 0 1 -1-1v-2a1 1 0 0 1 2 0v2a1 1 0 0 1 -1 1z" fill="#52b788"/><path d="m43 51a1 1 0 0 1 -1-1v-2a1 1 0 0 1 2 0v2a1 1 0 0 1 -1 1z" fill="#52b788"/><path d="m39 59a1 1 0 0 1 -1-1v-2a1 1 0 0 1 2 0v2a1 1 0 0 1 -1 1z" fill="#52b788"/><path d="m46 58a1 1 0 0 1 -1-1v-1a1 1 0 0 1 2 0v1a1 1 0 0 1 -1 1z" fill="#52b788"/><path d="m37 51a1 1 0 0 1 -1-1v-1a1 1 0 0 1 2 0v1a1 1 0 0 1 -1 1z" fill="#52b788"/><path d="m24 60a1 1 0 0 1 -1-1v-1a1 1 0 0 1 2 0v1a1 1 0 0 1 -1 1z" fill="#95d5b2"/><path d="m29 54a1 1 0 0 1 -1-1v-2a1 1 0 0 1 2 0v2a1 1 0 0 1 -1 1z" fill="#95d5b2"/><path d="m7 51a1 1 0 0 1 -1-1v-2a1 1 0 0 1 2 0v2a1 1 0 0 1 -1 1z" fill="#40916c"/><path d="m15 48a1 1 0 0 1 -1-1v-1a1 1 0 0 1 2 0v1a1 1 0 0 1 -1 1z" fill="#52b788"/><path d="m13 55a1 1 0 0 1 -1-1v-2a1 1 0 0 1 2 0v2a1 1 0 0 1 -1 1z" fill="#40916c"/><path d="m18 53a1 1 0 0 1 -1-1v-2a1 1 0 0 1 2 0v2a1 1 0 0 1 -1 1z" fill="#40916c"/><path d="m7 58a1 1 0 0 1 -1-1v-2a1 1 0 0 1 2 0v2a1 1 0 0 1 -1 1z" fill="#40916c"/><path d="m17 41a1 1 0 0 1 -1-1v-2a1 1 0 0 1 2 0v2a1 1 0 0 1 -1 1z" fill="#95d5b2"/><path d="m25 42a1 1 0 0 1 -1-1v-1a1 1 0 0 1 2 0v1a1 1 0 0 1 -1 1z" fill="#95d5b2"/><path d="m32 43a1 1 0 0 1 -1-1v-1a1 1 0 0 1 2 0v1a1 1 0 0 1 -1 1z" fill="#95d5b2"/><path d="m48 39a1 1 0 0 1 -1-1v-1a1 1 0 0 1 2 0v1a1 1 0 0 1 -1 1z" fill="#52b788"/><path d="m54 39a1 1 0 0 1 -1-1v-1a1 1 0 0 1 2 0v1a1 1 0 0 1 -1 1z" fill="#52b788"/><path d="m10 39a1 1 0 0 1 -1-1v-1a1 1 0 0 1 2 0v1a1 1 0 0 1 -1 1z" fill="#95d5b2"/></g></g></svg>