<?xml version="1.0" encoding="iso-8859-1"?>
<!-- Generator: Adobe Illustrator 21.0.0, SVG Export Plug-In . SVG Version: 6.00 Build 0)  -->
<svg xmlns="http://www.w3.org/2000/svg" xmlns:xlink="http://www.w3.org/1999/xlink" version="1.1" id="Capa_1" x="0px" y="0px" viewBox="0 0 512 512" style="enable-background:new 0 0 512 512;" xml:space="preserve" width="512" height="512">
<g>
	<g>
		<path style="fill:#E0DDDF;" d="M256,64c-4.418,0-8-3.582-8-8V8c0-4.418,3.582-8,8-8c4.418,0,8,3.582,8,8v48    C264,60.418,260.418,64,256,64z"/>
		<path style="fill:#88C5E6;" d="M296,0h-40c-4.418,0-8,3.582-8,8v16c0,4.418,3.582,8,8,8h40c4.418,0,8-3.582,8-8V8    C304,3.582,300.418,0,296,0z"/>
	</g>
	<g>
		<path style="fill:#83757F;" d="M256,48c-48.523,0-88,39.477-88,88c0,4.418,3.582,8,8,8h160c4.418,0,8-3.582,8-8    C344,87.477,304.523,48,256,48z"/>
		<path style="fill:#635360;" d="M216,136c0-40.207,27.104-74.201,64-84.673C272.368,49.161,264.317,48,256,48    c-48.523,0-88,39.477-88,88c0,4.418,3.582,8,8,8h48C219.582,144,216,140.418,216,136z"/>
		<path style="fill:#A2989F;" d="M291.44,75.854C282.459,57.892,269.873,48,256,48c-13.873,0-26.459,9.892-35.439,27.854    C212.461,92.053,208,113.413,208,136c0,4.418,3.582,8,8,8h80c4.418,0,8-3.582,8-8C304,113.413,299.539,92.053,291.44,75.854z     M248,66.625V128h-23.797C225.791,97.02,236.455,74.107,248,66.625z M264,128V66.625c11.545,7.482,22.209,30.394,23.797,61.375    H264z"/>
	</g>
	<g>
		<path style="fill:#FBE6A6;" d="M504,280H8c-4.418,0-8,3.582-8,8v216c0,4.418,3.582,8,8,8h496c4.418,0,8-3.582,8-8V288    C512,283.582,508.418,280,504,280z"/>
		<rect x="88" y="280" style="fill:#F6CD4D;" width="336" height="232"/>
		<g>
			<path style="fill:#A2989F;" d="M480,312h-24c-4.418,0-8,3.582-8,8v152c0,4.418,3.582,8,8,8h24c4.418,0,8-3.582,8-8V320     C488,315.582,484.418,312,480,312z"/>
			<path style="fill:#83757F;" d="M464,464V312h-8c-4.418,0-8,3.582-8,8v152c0,4.418,3.582,8,8,8h24c4.418,0,8-3.582,8-8h-16     C467.582,472,464,468.418,464,464z"/>
			<path style="fill:#A2989F;" d="M56,312H32c-4.418,0-8,3.582-8,8v152c0,4.418,3.582,8,8,8h24c4.418,0,8-3.582,8-8V320     C64,315.582,60.418,312,56,312z"/>
			<path style="fill:#83757F;" d="M40,464V312h-8c-4.418,0-8,3.582-8,8v152c0,4.418,3.582,8,8,8h24c4.418,0,8-3.582,8-8H48     C43.582,472,40,468.418,40,464z"/>
		</g>
	</g>
	<g>
		<path style="fill:#FDF3D3;" d="M384,160H128c-4.418,0-8,3.582-8,8v336c0,4.418,3.582,8,8,8h256c4.418,0,8-3.582,8-8V168    C392,163.582,388.418,160,384,160z"/>
		<path style="fill:#F8DA7A;" d="M184,504V168c0-4.418,3.582-8,8-8h-64c-4.418,0-8,3.582-8,8v336c0,4.418,3.582,8,8,8h64    C187.582,512,184,508.418,184,504z"/>
		<g>
			<path style="fill:#F4C121;" d="M256,248c-4.418,0-8-3.582-8-8v-48c0-4.418,3.582-8,8-8c4.418,0,8,3.582,8,8v48     C264,244.418,260.418,248,256,248z"/>
			<path style="fill:#F4C121;" d="M288,264c-4.418,0-8-3.582-8-8v-64c0-4.418,3.582-8,8-8s8,3.582,8,8v64     C296,260.418,292.418,264,288,264z"/>
			<path style="fill:#F4C121;" d="M320,280c-4.418,0-8-3.582-8-8v-80c0-4.418,3.582-8,8-8s8,3.582,8,8v80     C328,276.418,324.418,280,320,280z"/>
			<path style="fill:#F4C121;" d="M352,296c-4.418,0-8-3.582-8-8v-96c0-4.418,3.582-8,8-8s8,3.582,8,8v96     C360,292.418,356.418,296,352,296z"/>
			<path style="fill:#F4C121;" d="M224,264c-4.418,0-8-3.582-8-8v-64c0-4.418,3.582-8,8-8s8,3.582,8,8v64     C232,260.418,228.419,264,224,264z"/>
			<path style="fill:#F4C121;" d="M192,280c-4.418,0-8-3.582-8-8v-80c0-4.418,3.582-8,8-8s8,3.582,8,8v80     C200,276.418,196.419,280,192,280z"/>
			<path style="fill:#F4C121;" d="M160,296c-4.418,0-8-3.582-8-8v-96c0-4.418,3.582-8,8-8s8,3.582,8,8v96     C168,292.418,164.419,296,160,296z"/>
		</g>
		<path style="fill:#83757F;" d="M288,392h-64c-4.418,0-8,3.582-8,8v112h80V400C296,395.582,292.418,392,288,392z"/>
		<path style="fill:#635360;" d="M248,392h-24c-4.418,0-8,3.582-8,8v112h24V400C240,395.582,243.582,392,248,392z"/>
		<path style="fill:#EFEEEF;" d="M400,128H112c-4.418,0-8,3.582-8,8v24c0,4.418,3.582,8,8,8h288c4.418,0,8-3.582,8-8v-24    C408,131.582,404.418,128,400,128z"/>
		<path style="fill:#D0CBCF;" d="M160,160v-24c0-4.418,3.582-8,8-8h-56c-4.418,0-8,3.582-8,8v24c0,4.418,3.582,8,8,8h56    C163.582,168,160,164.418,160,160z"/>
	</g>
	<g>
		<rect x="392" y="352" style="fill:#C1BABF;" width="32" height="160"/>
		<rect x="88" y="352" style="fill:#C1BABF;" width="32" height="160"/>
		<rect x="328" y="352" style="fill:#C1BABF;" width="32" height="160"/>
		<rect x="152" y="352" style="fill:#C1BABF;" width="32" height="160"/>
		<path style="fill:#E0DDDF;" d="M418.971,336.572l-160-64c-1.906-0.764-4.035-0.764-5.942,0l-160,64    C89.992,337.787,88,340.729,88,344v32h336v-32C424,340.729,422.009,337.787,418.971,336.572z"/>
		<g>
			<circle style="fill:#9FE0F7;" cx="256" cy="328" r="16"/>
			<path style="fill:#A2989F;" d="M256,352c-13.234,0-24-10.767-24-24s10.766-24,24-24c13.233,0,24,10.767,24,24     S269.234,352,256,352z M256,320c-4.411,0-8,3.589-8,8s3.589,8,8,8s8-3.589,8-8S260.411,320,256,320z"/>
		</g>
	</g>
</g>















</svg>
