<svg xmlns="http://www.w3.org/2000/svg" viewBox="0 0 1054.49 848.38"><defs><style>.cls-1{isolation:isolate;}.cls-2{fill:#d4cfbe;}.cls-3{fill:#7a778c;}.cls-4{fill:#5d5a6e;}.cls-5{fill:#d91c0b;}.cls-10,.cls-6{mix-blend-mode:multiply;}.cls-7{fill:#fe7e06;}.cls-8{fill:#422d2c;}.cls-9{fill:#ffb600;}.cls-10{opacity:0.3;}.cls-11{fill:#3b1917;}.cls-12{opacity:0.5;mix-blend-mode:screen;}</style></defs><g class="cls-1"><g id="Layer_2" data-name="Layer 2"><g id="Layer_1-2" data-name="Layer 1"><path class="cls-2" d="M554.83,199.53a2,2,0,0,1-2.91,2.28,25.07,25.07,0,0,1-5.4-4.56,155.33,155.33,0,0,1-10.17-12.44,47.25,47.25,0,0,0-10.28-10.66c-2.56-1.92-3.92-1.54-4.15-5.41-.14-2.31.9-4.86,1.4-7.1.94-4.3,1.71-10.64,1-15.07-.83-5.24-7.36-9.88-11.16-12.66-4.07-3-6.66-2.65-11.06-4.33-2.46-.94-4.53-1.42-3.72-4.87.63-2.72,2.82-2.19,4.32-4,2-2.38.07-2.83,3.24-4.8s7.48-1.67,11-1.78c6.65-.2,14,.5,20.51-.69a27.31,27.31,0,0,1,8.27-.06c3.17.28,4.35-.59,7.41-1.27,3.95-.86,9.28-1.89,13.29-1.78,4.88.12,7.88,2.78,12,4.4,4.41,1.72,9.72,1.28,14.22,2.75,4.89,1.6,7.57,5,12.92,2.86,3.58-1.46,21.8,3,32,7.75,4.2,1.94,20.37,6.81,18.87,13.3-1.15,5-5.39,1.47-8.14.26-4.48-2-7.87-2.18-11.18,1.71-5.2,6.13-8.7,14.08-13.27,20.7a19,19,0,0,1-19,7.94c-4.39-.68-7.84-2.57-12-.81-5,2.07-5,2.72-10.52,1.52-4.74-1-20.74-7.43-20.13,1.17.26,3.79,3.9,6.57.29,9.87a10.45,10.45,0,0,1-5.1,2.07,5.7,5.7,0,0,0-4.58,7.32Z"/><path class="cls-2" d="M461.62,173a6.11,6.11,0,0,1-1.79,4.35c-4.22,4.21-9.95,6.61-14.4,10.65s-5.06,6.87-10.81,7.06a8.24,8.24,0,0,0-7.81-2.47A11.26,11.26,0,0,0,420,199c-3.74,3.91-3.62,6-9.07,6.27-5.67.32-10.37-3.53-17-2.11-4.29.91-9.15,4.27-13.91,2.95s-5.72-4.93-9.56-7.18c-3-1.78-12.29-4.13-15.73-3.28-4.94,1.22-7,5.8-12.48,7-4.31.94-10.27-.3-14.81-.23-6.08.09-9.85,1.1-14.27-3.24-4.25-4.18-2.46-8.52-10.76-6.94-6.08,1.15-9.56,7.77-16.25,7.27-5.79-.43-7.53-5.37-12.49-7.12-6.43-2.27-28.68,5.5-21.71-9.93,12.38-3,14.62,3.24,22.52-9.81,2.63-4.35,1.42-6.53,7.45-7.77,2.95-.61,7,0,10.07-.53,9.36-1.52,17.1-5.37,25.59-9.42,5-2.38,6.43-3.58,11.86-2.62s4.13,3.82,10.18-.43c6.77-4.75,14.13-20,23.11-10.79,2.83,2.92,3.07,9,5.61,12.33,4.05,5.27,3.82,4.19,11.09,5.81,5.85,1.3,5.27,3.29,11-.64,4.73-3.24,4.36-5.74,10-7.26,15-4,16,8.46,27.21,12.71,9-5.66,9.27-6.05,18.84-.94a16.77,16.77,0,0,0,7.79,2.3,7.46,7.46,0,0,1,7.33,7.56Z"/><path class="cls-2" d="M687.14,274.82a5.62,5.62,0,0,1,2.26-4.35c5.32-4.17,12.5-6.53,18.1-10.54s6.38-6.83,13.59-7a11.94,11.94,0,0,0,9.76,2.53q6-1.72,8.52-6.4c4.71-3.88,4.58-5.92,11.4-6.19,7.1-.28,13,3.6,21.29,2.24,5.38-.89,11.48-4.21,17.43-2.85s7.14,5,11.93,7.25c3.77,1.8,15.36,4.22,19.68,3.4,6.2-1.19,8.82-5.75,15.67-6.9,5.4-.91,12.86.37,18.54.33,7.62,0,12.34-1,17.85,3.35,5.3,4.22,3,8.54,13.44,7,7.62-1.11,12-7.71,20.38-7.16,7.25.48,9.4,5.43,15.6,7.22,8,2.32,35.95-5.29,27.13,10.09-15.52,3-18.29-3.35-28.26,9.64-3.32,4.33-1.82,6.52-9.38,7.72-3.7.58-8.72,0-12.61.45-11.73,1.45-21.44,5.25-32.1,9.23-6.26,2.34-8.07,3.53-14.87,2.53s-5.14-3.85-12.74.35c-8.51,4.7-17.82,19.94-29,10.62-3.53-2.94-3.79-9.05-7-12.37-5-5.3-4.77-4.23-13.86-5.9-7.31-1.34-6.57-3.33-13.76.55-5.94,3.22-5.49,5.72-12.57,7.19-18.82,3.91-20-8.58-34-12.91-11.29,5.59-11.64,6-23.6.79a25,25,0,0,0-9.74-2.35c-5.11,0-9.16-3.53-9.13-7.61Z"/><path class="cls-3" d="M426.21,332.88c2.89,6.32,2.93,8.79,10.47,8.84,5.12,0,8.88,1.4,13.79,2.27,3.81.68,9.14-1.63,12.77.23,4.84,2.47,7.23,11.89,9.18,16.7,2.72,6.74,3.86,9.44,10.89,11.56,4.81,1.46,10,4,15,4.51,3.7.38,10.25.64,13.69-.44,6.87-2.16,10.83-9.86,17.11-13.07,6-3,10,1.82,16,4.64,5.7,2.69,6.52,2.88,10.89-2.19,2.74-3.19,8.52-9.84,13.38-9.16,6.37.88,9.8,8.8,17,9.31,12.36.87,8.75-18.41,21.9-20.16,5.11-.68,10.21.66,15.38-.3,7.71-1.42,11.23-7.15,13.38-14.39,1.39-4.67-1.78-12.17,1.21-16.12,1.92-2.53,9.46-3,12.38-3.75,9.06-2.35,19.32.58,28.61-.38,6.71-.68,13.25-2.36,17.65-7.21,1.77-1.94,2.14-3.94,4.34-5.73s4.75-1.55,6.28-4.61c1.68-3.35.35-11.35.33-15.07,0-1.73-.66-5.52-.15-7.18,1.31-4.28.84-2.77,5-2.77,5.48,0,11.31,2.54,16.18-1.4,4.23-3.42,5-9.72,7.58-13.57s7.76-4.66,12.82-5.89c4.66-1.14,10.3-4.2,15.29-2.91s7.62,7.49,12.78,8.92c6.64,1.85,10-2.09,14.11-6.46,4.77-5,5.36-7,6.6-13.35.93-4.74,2.23-7.26,2.2-12.62S801.5,211.7,796,209c-2.77-1.36-5.72-.75-8.4-1.92-3.13-1.36-6.51-4.69-9.29-6.71a42.33,42.33,0,0,1-4.35-3.86,19.56,19.56,0,0,0-5-4.52,17.26,17.26,0,0,1-5.84-3.12c-4-6.56,4.72-12.28,8.1-16,6.34-7,6.34-9.8,15.82-11.48,5.23-.93,15.89-4.82,17.42-10.58,1.88-7.06-7.67-9.34-6.68-16.07.76-5.18,10.58-12.42.54-15.65-1.11-6,7.09-10.88,10.29-15,3.61-4.67,8.07-8.61,11.61-13.21,5.89-7.65,12.51-16,17-24.7,5.23-10.12,2.47-19.66-7.08-25.9-8.86-5.79-18.3-12.13-29.34-13.33-4.19-.45-9.06,1.24-13.15-.16-5.48-1.88-9.51-9.12-13.74-13-8.9-8.22-22.2-9.47-33.56-10.78-8.57-1-20.17-5.88-28.06-.27-4.46,3.17-8.13,7.82-12.65,11.15-5.73,4.23-9.73,6.84-11.55,13.65-1.48,5.58-3.15,11.16-4.47,16.78-.65,2.81.27,2.73-1,5-1.48,2.55-5.32,4.44-7.33,6.46a15,15,0,0,0-4.83,10.89c-.24,4.27,2.3,14.91-2,17.42-3.25,1.91-9.89-.51-13.41.12-4.67.84-10.53,3.31-14.91,5.06-3.72,1.48-7.78,2.71-11.38,4.24-2.22.94-4.74,3.42-6.47,5.09-2,1.9-4,6.68-6.62,7.51-4.2,1.31-9-4-13.42-2.25-4,1.57-6.07,7.76-6.66,11.75-.69,4.71-.39,8.07-1.6,12.67s-1.85,13.26-.66,17.76,4.64,6,4.65,10.9c0,4.67-2.38,9-7.18,10.67s-10.06,0-14.43-1.88c-5.61-2.36-11.19-3.88-15.93-8.19-4.07-3.7-5.89-8.37-12.06-7.05-4.38.93-9.51,6.44-14.46,4.57-3.64-1.38-3-4.09-4.73-7s-4.2-5.71-6.12-8.24c-4.58-6-7.67-11.85-11.48-18.2-7.51-12.49-16-19.18-30.81-17.65-6.22.64-13.84,3.43-19.41,6.11-7.41,3.56-4.54,6.75-6.83,13.2-6.3-4.91-13-5.26-19.52.44-3.4,3-2.82,4.78-4.84,8.47-2.11,3.85-5.53,5.32-6.33,9.78s2,6.62,2.57,10.46c.45,2.94-1.18,5.62-1.83,8.37-1.17,4.94-2.49,5.12-5.05,9.18-1.75,2.76-1.07,9.32-4.08,10.51-4.91-2.48-7-5.64-13-6.16a88,88,0,0,0-10.14.14c-7.15.23-11.74,3.28-17.81,6.68-6.29,3.53-12.54,6-16,12.49-1.76,3.33-2.22,6.37-4.79,9.51-3.38,4.14-7.91,7.71-11.65,11.54-3.15,3.23-5.91,5.79-10,7.82-2.11,1-5.56,3.63-7.54,4.35-6.32,2.31-13.22-.07-19.9,3.09-5.34,2.52-14.48,9.86-16.67,15.45-2.5,6.39,1.91,17.11,6.1,21.61,5.13,5.52,12.24,4.9,16.54,9,6.46,6.2,9.25,11.88,18.94,13,7.14.81,8.83-1.82,8.68,6.45-.1,5.8-.89,12.43.4,18.14,3.29,14.49,24.37,17.27,36.53,17.12,6.35-.08,11.72,2.27,18.15,2.19,5.11-.07,16.25-2.35,19.75,2.21Z"/><path class="cls-4" d="M651.35,312.27l1.63-.42c-5.74-4.2-16,.7-22.19-2.27-6.7-3.19-4.32-12-4.28-16.95.06-6.34,2.76-14.13-7.18-15-6-.53-13.73,4-15.58-1.77-1.1-3.46,2-6.27-1.84-9.33a10.43,10.43,0,0,0-9.31-1.45c-4.69,1.62-3.55,5.41-6.63,7.89-2.19,1.77-6.43,2.36-9.49,2.54-10.1.61-8.06-5.57-15.05-9.37-4.63-2.52-7.5-1.87-12.62-.53-3.78,1-8.25,4.33-11.83,4.74-6.1.7-11.64-7.75-12.63-12.1-.77-3.37.56-7.45-4.21-9.78-3.19-1.55-6.5-.3-9.35-1.72-6.4-3.2-7.47-15-17.53-8.31q-.15,2.52-3.22,3.09a10.83,10.83,0,0,1-6.41-3.2c-3.81-1.52-5.85-2.24-10.22-1.73-3.58.42-6.88,2.38-10.39,3-3.79.69-5.63.09-9,1.94-6.94,3.79-10.84,13.11-19.42,6.3-2.5-2-4.9-5.34-8.41-6.29-6.33-1.71-7.88,2-10.93,5.52-4.9,5.67-9.68,16-18.43,18.67-2.52-.89-3.61-2.69-5.84-3.85-2.43-1.26-5.27-1.83-7.86-3-3.9-1.72-6.74-4.11-10-6.48-8.36-6.13-20.95-.38-28.59,4.2-4,2.41-4.31,4.51-9.14,1.93-4.35-2.33-8.84-6.65-13.05-9.32-4.72-3-17.71-16.92-24.91-12.7-3.34,2-4.62,8.39-7.91,10.71-4.58,3.22-6.73-.21-11-2.18-4.75-2.2-8.05-1.71-13.58-1.84a47.48,47.48,0,0,0-5.06-.24c-5.44.54-5.57,2.24-8.71,5.06-7,6.3-13.74,15.48-22.81,20.14-3.92,2-7.52.69-11.53,1.77-5.56,1.5-12.84,9.76-13.39,14.15-.45,3.61,1.41,5.34,4,8.47,2.85,3.46,6.52,10.84,11.29,13,5.81,2.63,18.56,3.44,25.15,2.42,10.21-1.58,15.47-13.44,25.16-16.68,5-1.65,10.7,1.16,13.78,4.77,4,4.7,3.21,8.76,11.91,10.46,9.91,1.95,20.27-.2,30.36,2.17,11.58,2.73,18.12,13.1,30.57,14.87,9.83,1.4,17.46-.73,25.11-5.18,4.73-2.76,9.31-5.29,13.25-8.82,4.22-3.78,7-7.72,12.07-10.85,7-4.3,6.65-1.29,14.17.11,7.24,1.34,11.1-2.27,16.56-5.16,6.25-3.31,10.27-4.54,17.51-1.65,5.55,2.22,11.65,6.29,16.69,9.27a71.81,71.81,0,0,1,14.11,10.57c4,3.87,8.56,9.24,15.28,9.74,10.67.79,17.82-10.8,21.63-17,2.84.75,4.23,3,6.29,4.59,3,2.36,4.54,3,8.54,4.16,5.18,1.53,9.93,1.35,15.37,1.44,9.52.15,18.65-3.21,28.59-1.58,4.72.77,11.15,2.12,14.71,4.67,4.31,3.09,7.65,7.53,12.32,10.26,6.5,3.78,7.86.23,13.68-1.48,5.07-1.49,11.7,2.46,13.71-3.76Z"/><path class="cls-5" d="M728.09,276.77c-8-2.7-16.37-2.73-19.49-2.76-4.27,0-8.11,13.94-11.38,14.72-2.19.52-3.53-1.17-5.46-1.8-1.49-.49-3.27-.27-4.76-.79-3.53-1.22-6.7-5.53-10.32-6.14-5-.86-8.8,8.76-12.08,11.5-6.34,5.29-14.18,5.47-22.19,6.45-7.2.87-11.84-.52-16.43-5.13-2.65-2.66-5.93-6.61-9.51-3.37-2.85,2.58-3.88,6-9.19,5.38-2.69-.33-4.79-2.56-7.59-3-4.79-.8-6.48,1.25-9.38,4-2,1.84-3,17.7-5.52,18.69-3.12,1.22-10.23,2.94-13.16,2.53-6.51-.89-6.51-.89-15.32-10.59-4.55-5-17.64,13-21.11,7-1.4-2.39-3.64,2.68-4.05,0-.6-3.94-.2-11.6-5.64-9.11-4.29,2-5.6,1.14-8,4.56-2.63,3.69-4.09,6-7.59,9.11-2.38,2.11-4.06,4.1-6.58,6.07-2.83,2.21-5.56,4.7-9.11,5.06-9.73,1-16.61-15.29-24.68-17.52-6.62-1.82-13.81,0-20.65.71s-9.8.07-16.41-2.42c-4.86-1.83-8.55-7.64-14.17-7.59-3.69,0-13,4.15-16.69,4.55-4.23.47-9.63,9.53-13.4,11.55-4,2.15-4.59-5.09-8.93-3.84-5.34,1.54-6.08-1.94-9.42-4.31a26.59,26.59,0,0,0-12-4.24c-7.05-.49-6.91,4.15-12.79,7.3-1.44.76-4.72-2.51-7.85-4.18-2.1-1.12-6.74-1.14-6.7,6.45,0,0,1.33,8.45,1.34,8.47,3.4,15,20.74,20.28,33.32,20.12,6.58-.08,16.53-6.21,23.18-6.29,5.29-.07,16.82-2.43,20.44,2.28l13.66-2.27c3,6.54,3,9.1,10.84,9.15,5.29,0,9.19,1.44,14.27,2.35,3.95.71,9.46-1.69,13.22.24,5,2.56,7.49,12.31,9.5,17.28,3.1,7.68,7.26,9.24,13.14,14.51,18.39,16.5,17.83,42.65,19.15,65.32,1,16.71,1.59,33.44,2,50.18,0,.48.2,9.31.22,9.31l69.56,3.23s1.46-109.42,8.73-111.34c13.41-3.54,14.83-36.82,28.44-38.64,5.29-.7,9.94-7.41,15.3-8.4,8-1.48,11.62-7.4,13.85-14.9,1.43-4.83-1.85-12.59,1.24-16.68,2-2.62,10.18,3.82,13.2,3,9.38-2.43,18.47,3.77,28.09,2.78,6.93-.71,18.71-1.31,23.27-6.32,1.83-2,16.8-3.87,18.73-6.07,10.62-12.15,8.53-15.56,10.12-18.73C736.61,291.69,733.31,278.55,728.09,276.77Z"/><g class="cls-6"><path class="cls-5" d="M640.66,323.05c-4.11-.94-8.21-1.56-12.36-.48-3,.78-11.21-5.66-13.2-3-3.09,4.09.19,11.85-1.25,16.68-2.23,7.5-5.87,13.42-13.84,14.9-5.36,1-10,7.7-15.3,8.4-13.61,1.82-15,35.1-28.44,38.64-5,1.32-5.86,68.39-5.91,110.23l24,1.11s1.46-109.42,8.73-111.34c13.41-3.54,14.83-36.82,28.44-38.64,5.29-.7,9.94-7.41,15.3-8.4,8-1.48,11.62-7.4,13.85-14.9C641.78,332.54,640.16,327.2,640.66,323.05Z"/><path class="cls-5" d="M728.09,276.77c-8-2.7-16.37-2.73-19.49-2.76-1.65,0-3.24,2.07-4.75,4.67,3.66,4.22,5.7,13.47,4.66,15.55-1.59,3.16.5,6.58-10.12,18.73-1.94,2.2-16.9,4.06-18.73,6.07-2.12,2.33-5.8,3.7-9.82,4.57,4.4,1.08,8.83,2.22,13.38,1.75,6.93-.71,18.71-1.31,23.27-6.32,1.83-2,16.8-3.87,18.73-6.07,10.62-12.15,8.53-15.57,10.12-18.73C736.61,291.69,733.31,278.55,728.09,276.77Z"/></g><path class="cls-7" d="M485.09,499.75a12.19,12.19,0,0,1-1.59-1.53c-.37-.32-.8-.54-1.18-.88a17.08,17.08,0,0,1-2.85-3.76,15.86,15.86,0,0,1-1.19-4.2,6.18,6.18,0,0,1,.69-4.45,7.65,7.65,0,0,1,4.36-3,9.56,9.56,0,0,1,3.37-.58,4.89,4.89,0,0,1,2.55.83c.8.56,1.38,1.46,2.17,2-.64-.48,1.25-3.78,1.51-4.23,4-6.95,12.49-11.67,19.19-7a12.37,12.37,0,0,1,3.51,3.81,23.4,23.4,0,0,1,1.2,2.53,12.55,12.55,0,0,1,1.11,2.57c-.26-1.13,1.54-3.18,2.16-3.86a8.8,8.8,0,0,1,3.88-2.52,7.87,7.87,0,0,1,5.18.22,4.23,4.23,0,0,1,1.92,1.29,11.91,11.91,0,0,0,1.9,2c-.74-.67.19-3.43.49-4.16a10.46,10.46,0,0,1,2.74-3.76,15.1,15.1,0,0,1,5.66-2.93,17.4,17.4,0,0,1,9.69-.42,12.35,12.35,0,0,1,8.6,8.81,37,37,0,0,1,.92,4.43c.84.12,1.54-1,2-1.66a5.22,5.22,0,0,1,1.8-1.64,5,5,0,0,1,4.85,0,7.42,7.42,0,0,1,2.45,2.41c.62.92.8,1.59,1.88,1.57,1.48,0,2.58-1.05,3.89-1.59a11.9,11.9,0,0,1,4.95-.58,8.3,8.3,0,0,1,5,1.92c2.85,2.46,2.56,6.07,3.54,9.6.33,1.19,1,2.44.77,3.74-.43,2.86-3.28,2.9-4.9,4.52-1.22,1.21-1.93,2.9-3.09,4.12a11.92,11.92,0,0,1-4.11,3.14c-1.26.47-2.41.48-3.65.82-.57.15-1.07.17-1.64.27-.82.14-1.55.69-2.36.86-.54.11-1.07-.05-1.61,0a10.41,10.41,0,0,0-1.42.5,33.1,33.1,0,0,0-3.71,1.26c-1.39.58-2.59,1.53-3.91,2.21a8.73,8.73,0,0,1-3.57.72c-3.44.05-6.78.29-10.07-1a56.46,56.46,0,0,1-5.86-3.08,6.07,6.07,0,0,0-3.25-.56c-2.53,0-5.57-.52-8,.24-1,.32-2.12.49-3.19.81a14.93,14.93,0,0,1-3.51.83c-2.83.12-4.13-3.54-6.69-4.46-2.19-.79-5.21-.31-7.36.34-1.16.35-2.3,1-3.45,1.36-1.4.49-2.73,1.55-4.17,1.84a7.34,7.34,0,0,1-3.42-.46c-1.32-.35-2.6.83-3.91.92a9.36,9.36,0,0,1-4.27-.85,4.84,4.84,0,0,1-1.56-.55c-.63-.52-.39-1-.42-1.88Z"/><path class="cls-8" d="M64.14,814.43,196.67,710.15a23.49,23.49,0,0,1,14.54-5h12.94a18.36,18.36,0,0,0,14-6.51l77.22-91.45a12.75,12.75,0,0,1,9.75-4.52h16.19a20,20,0,0,0,15.76-7.71l33.11-42.56a26.61,26.61,0,0,1,7.88-6.83l39.21-22.27a42.84,42.84,0,0,0,11-9L463,497.67a15.13,15.13,0,0,1,14.07-4.9l24.2,4.4a55.82,55.82,0,0,0,10,.9h50.56a51.16,51.16,0,0,0,9.41-.87l23.68-4.44a14.85,14.85,0,0,1,13.66,4.54L714.1,612.2a19.17,19.17,0,0,0,12.31,6.12l9.36.89a15.65,15.65,0,0,1,11.36,6.64L773.65,664a63.19,63.19,0,0,0,13.84,14.38l50.92,38.42a17.8,17.8,0,0,0,13.23,3.41l2-.28a15.78,15.78,0,0,1,12,3.19l62.07,48.5a85.67,85.67,0,0,0,11.61,7.62l64.47,35.22Z"/><path class="cls-5" d="M831.39,807.37a3.35,3.35,0,0,0-.44-.29l-27.5-13.7a51.86,51.86,0,0,0-6.15-2.58L772,782a34,34,0,0,1-18.82-16.09l-10.42-19.52a72.83,72.83,0,0,0-5.93-9.52,3.92,3.92,0,0,1,3.7-6.33l35.92,11.09a16.09,16.09,0,0,0,6,.67c2.79-.21,7.81,1.38,7.87,1.34,2.66-1.52-2.08-5.51-3.79-7.21-.89-.89-10.34-4.5-11.58-4.72l-44-7.4a40.82,40.82,0,0,1-16.85-7L668.8,685.22c-5.87-4.16-7.22-12.48-8.51-19.56L650,625.78a2.25,2.25,0,0,0,0-.22l-5.51-19.26a19.16,19.16,0,0,0-10.12-12l-8-3.84a13.25,13.25,0,0,1-6.69-7.38l-5.42-14.84a5.52,5.52,0,0,1,7.71-6.8l19.64,10.12c3.43,1.77,6.14,13.08,7.89,16.51l17.29,25.14c1.24,2.42,5.44,13.21,7.19,15.28L707.51,663a2.38,2.38,0,0,0,.56.49l22.81,19.49c.36.22,6.43,2.09,6.83,2.09.82,0,11.36,1.18,11.77.38.55-1.09-12.32-9.74-13.36-10.36l-13.22-8a85.72,85.72,0,0,1-21.31-18.18L674.75,617a30.81,30.81,0,0,1-3.94-5.9l-17.24-33.7a22.71,22.71,0,0,0-9.9-9.92L612.2,551.37a14.5,14.5,0,0,1-7-7.94l0-.1a32.12,32.12,0,0,0-2.11-4.57l-3.3-5.9a20.84,20.84,0,0,1,4.78-26.16l7-5.89-3.31-3.6a14.83,14.83,0,0,0-13.65-4.55L570.9,497.1a50.5,50.5,0,0,1-9.42.88H510.93a55.93,55.93,0,0,1-10-.9l-24.19-4.4a15.14,15.14,0,0,0-10.69,2l4.67,3.42a25.92,25.92,0,0,1,4.69,37.43l-19.05,23.06c-1.13,1.37-2.25,2.74-3.31,4.16a17.22,17.22,0,0,1-5.93,5.21l-42.64,31c-.65.38-1.32.73-2,1l-20.15,7.42c-1.15.55-4.58.91-5.81,1.27L349.66,619.6a26.86,26.86,0,0,0-9.71,5.16l-9.63,8c-.87.72-6.49,8.37-5.92,9.34.44.76-.9,2.78-1,3.55-.61,4.26,1.73,2,4.26-1.33a30.93,30.93,0,0,1,15.86-11.06l.33-.09a22.25,22.25,0,0,0,8.65-4.9c2.63-2.41,5.71-5.1,7.59-5.65l19.18-6.9a30,30,0,0,0,4.29-1.63l9.54-4.55a3.14,3.14,0,0,1,3.82,4.78c-2.28,2.9-4.19,5.29-4.19,5.29a25.12,25.12,0,0,1-7.92,6.46l-32.89,17.11c-9.75,5.08-18.4,9.51-21.05,20.18l-2.28,5.31c-1.75,7-1.91,7.85-7.7,12.15l-23.42,15.56c-2.39,1.76-4.31,5.83-7.21,6.45l-6.84,3.88a37.77,37.77,0,0,0-17.14,8.58l-112.76,99h30l85.77-95.6a33.32,33.32,0,0,1,15.07-7.55l7.63-1.6a25.09,25.09,0,0,0,9.8-4.42l6.76-5a2.26,2.26,0,0,1,3.19,3.11l-.09.14a19.33,19.33,0,0,0-2.71,9.89v15.55a14.5,14.5,0,0,1-2.18,7.66l-49.64,77.83h15.06l38.43-75.4a19,19,0,0,0,2.88-10.09V713.3a14.8,14.8,0,0,1,2-7.49l16.07-22.89a1.62,1.62,0,0,0,.1-.18,12.94,12.94,0,0,0,3.15-5.73l2-7.92A33.84,33.84,0,0,1,354,647.25l11.79-6.13a2.72,2.72,0,0,1,3.5,3.94l-7.64,11.28c-.62.92-3.7,5.76-3.86,6.86s-1.14,7.78,3,4.17c.55-.48,5.44-6.18,5.88-6.83l15.15-25.92a13.81,13.81,0,0,1,5-4.48c1.81-.94,3.82-1.56,5.7-2.34a12,12,0,0,0,4.92-3.31l1.78-2.6c13.4-16.5,27.22-30,45.94-40a1.7,1.7,0,0,1,.77-.2,1.63,1.63,0,0,1,1.58,2c-2.28,9.44-9.33,35-9.33,35a30.91,30.91,0,0,0-1.52,9.58v31.56a27.93,27.93,0,0,1-6,17.24L410.2,703a39.24,39.24,0,0,0-7.58,16.16l-5.29,25.15A24.45,24.45,0,0,1,394,752.5l-8.4,13a2.37,2.37,0,0,0,.52,3.19,2.27,2.27,0,0,0,3.24-.61l12.13-8.7c1.91-3,3.44-10.22,4.17-13.66l1.46-25.62a34.65,34.65,0,0,1,6.69-14.28L439.4,683.5c4.52-5.71,5.31-18.14,5.31-25.43l-3.41-29.86a26.1,26.1,0,0,1,1.3-8.17l13.26-41a40.36,40.36,0,0,1,5.42-10.87l0,0,30.5-43.35a25.08,25.08,0,0,1,18-10.52l8.12-.82a16.39,16.39,0,0,1,17.44,12l3.2,11.7a26.79,26.79,0,0,1,.77,10.2l-8.21,39.94c-2.12,18.16-9.58,40.24-19,55.92l-17.71,28.4c-.64,1.08-3,11-1.36,14.46s7.62-6.55,8.27-7.63l23.59-43.85a3.47,3.47,0,0,1,6.44,1.78V654.4a35.11,35.11,0,0,1-2.2,12.21l-4.06,10.9a36.58,36.58,0,0,0-2.26,14.5L524,717.39c.06,1.22.61,7.62,2.27,10,0,0,2.82,4.91,2.85,4.93,4.55,3.92,3.28-11.71,3.23-13l-3.55-26.56c-.2-4.33-1-9.58.54-13.64l6.29-10.4A44.64,44.64,0,0,0,538.46,654l-2.54-38.33,3-25.83a2.5,2.5,0,0,1,4.93-.2l1.15,5.76c.79,4,2.64,10.9,5.58,13.68l15,16.51c2.95,2.79,8.54,4.64,8.54,8.69l-3,42.93c0,3.45,1.57,6.33,3.6,9.11l1.71,2.85c2.45,3.34,6.57,5.35,7.27,9.44l5.13,41.92C588,745.74,593.6,753,594.06,754c1.52,3.29,5.6,2.23,5.73,2.21,1.24-.21-.39-12.61-.61-13.85l-11-44.46a31.62,31.62,0,0,0-5.64-13.29l-1.59-2.16a11.71,11.71,0,0,1-2.25-6.9l.76-40.85c0-5.3-3-10.79-6.82-14.43l-18.74-17.72a15,15,0,0,1-4.41-8l-4.7-23.66c-1.51-7.6-1.15-8.86-.25-16.54l1.55-7.59a64.57,64.57,0,0,0-1.3-17.21h0a15,15,0,0,1,17.67-13.1l7.43,1.38a36.21,36.21,0,0,1,22.66,14.25l6.57,9a26.08,26.08,0,0,1,1.76,3.84l11.47,41.84c1.6,4.38,7.83,5.8,12,7.82l8,3.84a14.7,14.7,0,0,1,7.72,9.17,48.52,48.52,0,0,1-3.5,35.42l-.48.92a24.63,24.63,0,0,0-2.75,11.32V669.3a2.36,2.36,0,0,0,2.15,2.4,2.27,2.27,0,0,0,2.4-2.27l2.85-9.46c0-3.22-2.08-11.13-.6-14l2-3.79a3.45,3.45,0,0,1,6.46,1l4.66,25.48a31.8,31.8,0,0,0,12.94,20.31,21.45,21.45,0,0,1,9,17.48c0,.4,0,.81,0,1.22l-2,35.65a33.71,33.71,0,0,0,1.81,13l5.82,16.86A73.81,73.81,0,0,0,691,792.62l16,21.72h7.5l-9.46-20c-4.11-5.59-11-11.65-13.28-18.21l-8.35-19.74c-1.25-3.61-2.49-8-2.28-11.76L679.36,714a8.37,8.37,0,0,1,13.2-6.36L721.12,728a55.67,55.67,0,0,1,16.81,19.09l13.44,39.3,6.08,12.91c1,2.44,4.58,9.18,8,15.08h16.42L773,804.18a38.45,38.45,0,0,1-6.49-10.3,5.13,5.13,0,0,1-.43-2,5.07,5.07,0,0,1,6.73-4.76l23.4,13.29c1.92.67,7.68,3.65,9.49,4.55l16.16,9.39h18Z"/><path class="cls-9" d="M482.45,531.75c.88-1.27-1.45.71-1.87,1.35a45.62,45.62,0,0,1-2.88,3.72l-19,23c-1.18,1.43-2.23,2.71-3.23,4a19.89,19.89,0,0,1-6.7,5.94l-42.65,31L406,601c-.68.39-1.41.77-2.19,1.15l-.13.06L397,604.6a.8.8,0,0,0-.07,1.47,6.33,6.33,0,0,1,3,3,6.13,6.13,0,0,1-.72,6.49c-2.29,2.91-4.21,5.31-4.22,5.33-.93,1.14-3.4,2.69-3,3.16.64.86,2.36-1.28,3-2l1.76-2.59.08-.1c15.76-19.41,25.27-30.11,46.88-40.82a5,5,0,0,1,2.19-.55,4.72,4.72,0,0,1,3.68,1.79,4.63,4.63,0,0,1,.85,4c-.36,1.5-1.88,5.66-1,5.93s3.45-12.21,3.45-12.21c1.35-4.19,1.57-6.3,4.08-9.87l4.46-7.21Z"/><path class="cls-9" d="M528.1,719.57l-3.36-25.21,1.07,22.86c.12,2.52.86,7.13,1.71,8.32a12.51,12.51,0,0,1,.73,1.23,66.92,66.92,0,0,0-.13-6.91Z"/><path class="cls-9" d="M438.78,659.08a31,31,0,0,1-6.64,19.13l-15.35,19.43,19.39-16.91c2.81-3.79,4.48-12.4,4.5-23.17L438.78,641Z"/><path class="cls-9" d="M540.25,555l.22-1.85,1.55-7.59a64.83,64.83,0,0,0-.68-13.21.87.87,0,0,0-.86-.73h0a.86.86,0,0,0-.83,1.09l.8,2.94a29.4,29.4,0,0,1,.84,11.28v.13L533.06,587c-2.21,18.67-9.8,41-19.4,57L496,672.33a37.11,37.11,0,0,0-1.55,8.57,47.81,47.81,0,0,0,3.16-4.71l23.55-43.78.07-.13a6.42,6.42,0,0,1,5.54-3.16,6.53,6.53,0,0,1,3.65,1.08,1.47,1.47,0,0,0,2.29-1.31l-.93-13.95,3.05-26.11a5.53,5.53,0,0,1,6.93-4.71,1.11,1.11,0,0,0,1.34-1.31l-2.39-12C539.26,563.33,539.49,561.4,540.25,555Z"/><path class="cls-9" d="M398.06,755,392,764.4l7.93-5.69a3.75,3.75,0,0,0,1.29-1.63,75,75,0,0,0,2.95-10.91l.73-12.8a.21.21,0,0,0-.41,0l-2.63,12.48A27.19,27.19,0,0,1,398.06,755Z"/><path class="cls-9" d="M534.35,653.71A37.8,37.8,0,0,1,532,667l-1.17,3.16,2.09-3.45a41.88,41.88,0,0,0,2.49-13.25l-1-15.4Z"/><path class="cls-9" d="M577.28,684.86a14.64,14.64,0,0,1-2.84-8.74l.49-26.58-2,28.45c0,2.21.93,4.37,3,7.22l.08.11,1.7,2.84a23.63,23.63,0,0,0,2.57,2.68c.57.54,1.16,1.1,1.74,1.7a28.92,28.92,0,0,0-3.16-5.51Z"/><path class="cls-9" d="M272.24,805.07l6-13.71,22.49-40.52-36.35,57a1,1,0,0,0,1.23,1.42l4.19-1.89A5.28,5.28,0,0,0,272.24,805.07Z"/><path class="cls-9" d="M180.05,806.8c1.41-.29,8.58-11.54,9.57-12.59l63.5-62.74a.49.49,0,0,0-.68-.69l-88.29,77.53a.93.93,0,0,0,.8,1.6Z"/><path class="cls-9" d="M333.75,662.11l-.06.23-2.27,5.32c-1.83,7.32-1.15,9.37-7.54,14.11l-5.79,4.75-18.92,10.35a15.66,15.66,0,0,0-2,2.17c-1.53,1.84-3.25,3.9-5.79,4.64,0,0-3.08,1.42-2.56,1.45a9.67,9.67,0,0,0,2.51-.52,22.33,22.33,0,0,0,8.62-3.89l6.76-5a5.26,5.26,0,0,1,3.16-1.07,5.39,5.39,0,0,1,4.72,2.91c.25.49-.16,1.34.52,1.51S329,679.28,329,679.28l.21-.37.25-.27a9.94,9.94,0,0,0,2.4-4.38l2-7.92c1.57-6.3,9.39-15.9,9.15-16.59S335.15,656.5,333.75,662.11Z"/><path class="cls-9" d="M362.06,660.68c.95-1.12,2.55-2.18,2.82-2.53l4.7-9.37-5.45,8.57C363.61,658.13,362.78,659.46,362.06,660.68Z"/><path class="cls-9" d="M379.17,609.09c-.61.1-1.35.23-1.73.32L350.6,620.26l-.14,0a23.65,23.65,0,0,0-8.61,4.58l-9.57,8c-.21.22-1.14.95-.94,1.15s7.16-4.62,11.31-5.85l.27-.07a19.45,19.45,0,0,0,7.47-4.22c3.55-3.27,6.39-5.59,8.69-6.31l19.1-6.87.17-.06a26.72,26.72,0,0,0,3.85-1.46s5.86-2.21,5.86-2.79-4.61,1.69-4.61,1.69A19.67,19.67,0,0,1,379.17,609.09Z"/><path class="cls-9" d="M372.11,640.17a5.75,5.75,0,0,1,.58,1.69.48.48,0,0,0,.88.18l5.68-9.73.06-.08c.21-.31,3.45-2.51,3.68-2.8l-13.59,6.05a1.16,1.16,0,0,0-.19,2.06A8.78,8.78,0,0,1,372.11,640.17Z"/><path class="cls-9" d="M575.22,627.2a20,20,0,0,0-4.73-6.89l-18.73-17.72c-.45-.43-.88-.88-1.28-1.34a11,11,0,0,0,2.16,3.52l.09.08,15,16.51a23,23,0,0,0,2.8,2A21.41,21.41,0,0,1,575.22,627.2Z"/><path class="cls-9" d="M678.6,707.12a.9.9,0,0,0,1.55.66c2-2.18,5.39-5.38,8-5.38a8,8,0,0,1,1,.21.67.67,0,0,0,.5-1.22l-13.07-7.87a.57.57,0,0,0-.84.74,24.37,24.37,0,0,1,2.87,11.46C678.66,705.9,678.63,706.47,678.6,707.12Z"/><path class="cls-9" d="M588.16,708.07,591.82,738l-.06.41c-.48,3.13,3,8.49,4.15,10.25a12.55,12.55,0,0,1,.86,1.43.87.87,0,0,0,.39.45c-.09-3-.7-8.37-1-10.2Z"/><path class="cls-9" d="M721.29,669q-2.88-1.74-5.61-3.68l16.73,14.3c1.22.43,4.68,1.48,5.6,1.71l1.76.14,1.47.13c-2.84-2.05-5.86-4.1-6.73-4.63Z"/><path class="cls-9" d="M725.05,726.24a57.85,57.85,0,0,1,8.38,7.57.44.44,0,0,0,.76-.24,6.78,6.78,0,0,1,.62-2.06,7.1,7.1,0,0,1,1.5-2.07.78.78,0,0,0-.42-1.33l-4.24-.71c-1.89-.32-4.83-1.09-6.42-1.53A.21.21,0,0,0,725.05,726.24Z"/><path class="cls-9" d="M762.73,795.71a8.2,8.2,0,0,1-.67-3.2,8.06,8.06,0,0,1,3.14-6.39,1.67,1.67,0,0,0-.26-2.8A36.92,36.92,0,0,1,749.54,768l-6.66-12.49,10.38,30.34,6,12.86c.7,1.64,2.84,5.82,5.41,10.47a6.47,6.47,0,0,0,4.62,3.28l3.85.65a1.13,1.13,0,0,0,1-1.92l-4.43-4.36A41.83,41.83,0,0,1,762.73,795.71Z"/><path class="cls-9" d="M826.87,809.29a1.24,1.24,0,0,0,.49-2.34L804.2,795.41a48.32,48.32,0,0,0-5.8-2.43l-15-5.21L799.54,797c1.74.66,5.07,2.32,8.35,4l1.3.66,10.42,6.75a7.25,7.25,0,0,0,3.21,1.14Z"/><path class="cls-9" d="M782.91,738a16.26,16.26,0,0,1,2.25.17l-.71-.68a84.14,84.14,0,0,0-10.1-4l-22.22-3.74,25.15,7.77a13.09,13.09,0,0,0,3.84.58c.34,0,.67,0,1,0S782.63,738,782.91,738Z"/><path class="cls-9" d="M697.05,791.31c-3.7-4.25-7.52-8.64-9.28-13.61L679.42,758l0-.1c-1.25-3.61-2.65-8.3-2.45-12.75l-1-17.36L675,743.94a30.66,30.66,0,0,0,1.65,11.79l5.82,16.86a70.38,70.38,0,0,0,9.83,18.72l15.07,20.49h1.18l-7.29-15.41C700.06,794.77,698.6,793.08,697.05,791.31Z"/><path class="cls-9" d="M636,654.09a21.81,21.81,0,0,0-.32,3.69v8.73l1.32-4.37c0-.88-.24-2.18-.44-3.55C636.31,657,636.11,655.46,636,654.09Z"/><path class="cls-9" d="M610,568.57a8.43,8.43,0,0,1,1-7.8,8.85,8.85,0,0,1,3.15-2.76,1.23,1.23,0,0,0,0-2.2l-4.75-2.43a17.52,17.52,0,0,1-4.07-2.88.52.52,0,0,0-.86.52l9.34,34.07c.62,1.52,2.53,2.62,4.74,3.61a16.19,16.19,0,0,1-3.16-5.29Z"/><path class="cls-9" d="M645.74,625.7l-2.1-7.33c0,.59,0,1.18,0,1.78a51.62,51.62,0,0,1-2.58,16.07.54.54,0,0,0,.68.7,6.67,6.67,0,0,1,6.07,1,.57.57,0,0,0,.89-.61l-3-11.46Z"/><path class="cls-9" d="M648.75,574.53a71.77,71.77,0,0,1,3.4,8.54c.62,1.77,1.21,3.44,1.64,4.36l10.61,15.43-11.84-23.14A19.83,19.83,0,0,0,648.75,574.53Z"/><path class="cls-9" d="M694.83,644.93l-22.06-26.17a57.68,57.68,0,0,0,3.4,7Z"/><path class="cls-9" d="M658.67,666.93l-5-19.22,3.84,21a28.83,28.83,0,0,0,4.17,10.54,61.79,61.79,0,0,1-2.94-11.69Z"/><g class="cls-10"><path class="cls-8" d="M300.73,814.43,338.38,742a19.16,19.16,0,0,0,0-17.62L335,717.66a8.27,8.27,0,0,1,3.3-11l40-22.44a12.92,12.92,0,0,0,6.12-7.83l5.83-21.27a24.59,24.59,0,0,1,6.41-11l18.48-18.25a1.47,1.47,0,0,1,2.31,1.78L408,644.26A23.61,23.61,0,0,0,404.88,656v18.41a14.66,14.66,0,0,1-5.7,11.6l-34.05,26.23a6.29,6.29,0,0,0-.8,9.24l7,7.61a8.75,8.75,0,0,1,1,10.56L326,814.43Z"/></g><g class="cls-10"><path class="cls-8" d="M416.79,814.34l16.39-30.23a34.42,34.42,0,0,0,2-28.54l-9.44-25.15a11.72,11.72,0,0,1,3.5-13.16l22.48-18.64a1.61,1.61,0,0,1,2.45,2L444.36,719a12.44,12.44,0,0,0,.93,13.2l23,31.41a25.47,25.47,0,0,1,4.91,15v35.82Z"/></g><g class="cls-10"><path class="cls-8" d="M496.66,814.43l-9-50.12a33.26,33.26,0,0,0-7.35-15.63l-8.41-9.95a9.86,9.86,0,0,1-1.44-10.46l5.44-11.95A30.9,30.9,0,0,0,477,693.5l-12.28-36a22.54,22.54,0,0,1,1-17l24.48-51.13a1.31,1.31,0,0,1,2.43,1L476.72,637.3a34.27,34.27,0,0,0-.36,20.94l14.07,46.65a13.85,13.85,0,0,1,.39,6.46l-2.45,13.9a14.59,14.59,0,0,0,5.49,14.09l6.77,5.19A48.58,48.58,0,0,1,513.78,760l29.37,54.47Z"/></g><g class="cls-10"><path class="cls-8" d="M611.54,814.43l18.64-50.71A31.81,31.81,0,0,0,627,735.43l-16.67-25.67A36.32,36.32,0,0,1,604.49,690V655.88a1.84,1.84,0,0,1,3.62-.49l7.25,26.32A47.83,47.83,0,0,0,627,702.14l18.46,19.13a47,47,0,0,1,13.12,30.3l3.13,62.86Z"/></g><g class="cls-10"><path class="cls-8" d="M881.55,814.43l-78.42-79.57a44.32,44.32,0,0,0-21.15-12L736.83,712a23,23,0,0,1-10.57-5.8L693.89,675a1.24,1.24,0,0,1,1.54-1.92l34.51,23.19a40.42,40.42,0,0,0,14.4,6l63.56,13a26.74,26.74,0,0,1,13.59,7.36l48.73,49.21a41.3,41.3,0,0,0,12,8.44l73.68,34Z"/></g><path class="cls-11" d="M2.76,826.37,65,841.52A62.59,62.59,0,0,0,86.14,843l171.6-17.7a70.39,70.39,0,0,1,32.14,4.18l36.68,13.88a78.24,78.24,0,0,0,33.88,4.81L650.52,825a179.69,179.69,0,0,1,36.73.83l164.18,20.62a110.18,110.18,0,0,0,47.64-4.5l41.1-13.31a104.86,104.86,0,0,1,32.36-5.11H1051a3.44,3.44,0,0,0,1.5-6.54l-28.79-14a28.89,28.89,0,0,0-18.88-2.21L970,808.56a12,12,0,0,1-7.92-.95l-11.91-5.87a24,24,0,0,0-13.29-2.35l-64.11,7a25.78,25.78,0,0,1-7.89-.35l-12-2.41a9,9,0,0,0-3.46,0l-15.92,3.12a27.15,27.15,0,0,1-6.17.47L735,803.53a93.89,93.89,0,0,0-11,.2l-91.74,7.14a18.42,18.42,0,0,1-5.39-.35l-50.4-10.64a26.35,26.35,0,0,0-11.85.23L517.71,812a26.7,26.7,0,0,1-9.42.66l-45.43-5a12.14,12.14,0,0,0-5.11.54l-8.3,2.74a15.33,15.33,0,0,1-5.46.76l-51.16-2.27c-1,0-1.92,0-2.88,0L348,811.71a19.87,19.87,0,0,1-3.36-.1l-55.15-6.09a17.15,17.15,0,0,0-3.36,0l-50.63,4.13a17.78,17.78,0,0,1-8-1.19l-3.27-1.29a10.27,10.27,0,0,0-6.59-.33l-6.18,1.74a16.73,16.73,0,0,1-5.89.58l-26-2.14a15.71,15.71,0,0,0-3,0l-41.89,4.4a35.1,35.1,0,0,1-7.46,0l-73.45-8a24.39,24.39,0,0,0-11,1.33L2.37,819.47A3.61,3.61,0,0,0,2.76,826.37Z"/><g class="cls-12"><path class="cls-3" d="M351.05,229.29c0-3,0-8.15,2.17-10.36,2.55-2.61,6.92.17,9.47-2,3.81-3.29,2.56-9,8.42-10.34,4.59-1.07,9.65,2,12.13-3.17,1-2.12.72-2.3,3.05-2.63s4,.72,6.22,1.11c4,.68,7,.31,9.36,4.16,1.79,3,4,8.8,7.87,4.26,3-3.46,3.15-6.92,4-11.08.6-2.85,2.77-6.05,5.51-6.38,3.4-.41,10.55,1.7,13.14-.55,1.63-1.41,1-8.62.38-10.78-1-3.59-4.22-7.27.12-10,4.72-3,10.76-4.58,15.87-6.86,3.63-1.61,7-3.58,7.11-8.22.06-2.22-2.52-2.73-2.58-4.55s2.13-2.35,3.56-2.82c2.29-.74,4.63-2.35,6.93-2.79a33.18,33.18,0,0,1,5.9-.06c3.53,0,7.05,0,10.58,0a35.75,35.75,0,0,0,11.38-1.76c2.88-.86,3.11-.91,4.64,1.23s2.53,4.26,4.77,5.77c3.39,2.29,8.07,2.86,10,6.82,1.08,2.24.75,4,3.32,5,1.59.62,3.62-.45,5.23-.05,2.15.54,2.55,2.48,4.44,3.33s4.48.05,6.43.12c5.11.16,5.43,5.21,9.54,6.73,2.33.86,4.11-1,6-2.13a43.27,43.27,0,0,1,8-3.44c3.73-1.38,8.37-2.36,11.14.83,2.16,2.48,5,6.21,5.7,9.44.56,2.5,2.48,7.39.5,9.63-2.9,3.3-9,1.6-12-.49-3.77-2.61-5.71-5-9.63-.65-1.11,1.25-2.37,4.28-3.91,5.06-2.27,1.15-5.74-.09-7.75-1-2.72-1.27-7.51-3.34-10.59-2.07-1.6.66-2.69,1.71-4.43,2.33-2.33.81-4.42,1.95-6.9,2.06-5.72.28-8.3-1.95-13-5.2a38.53,38.53,0,0,0-7.24-3.69c-1.33-.56-4.67-2.41-6-2.41-3.94,0-1.86,9.39-2.17,12.12a19.56,19.56,0,0,1-6.83,12.8c-4,3.5-9.82,5.42-14.6,7.72-3.64,1.76-7.91,4.36-11.64,2.59-1.55-.74-3.85-2.7-5.7-2.22-2.38.63-4.09,3.69-6.83,4.35-1.87.46-5.05.12-5.8,2.26-1,2.75,1.61,5.8-2.12,7.79-3.44-1.72-6.19-4.22-10.29-4.32a4.24,4.24,0,0,0-4,1.8c-.89,1.09-1.38,4.59-2.75,5s-3.84-2-5.44-2.3c-2.09-.36-4.77.08-6.91.09-3.76,0-5.6-1.14-9-2.28-6.08-2-18.3-10.62-23.15-2.56-2.05,3.42-3.4,4.82-7.9,4.88-1.67,0-4.45-.08-4.76-2.29a3.78,3.78,0,0,1,2.48-3.45Z"/></g><g class="cls-12"><path class="cls-3" d="M627.71,158.7c-2.13-1.61-2.13-3.79-3.64-5.73-1.33-1.71-2.8-2.88-4-4.78-1.36-2.13-2.34-4.43-3.67-6.54-2.06-3.25-3.68-5.11-4.64-8.88-.89-3.49-3.32-10.58,2.28-10.55,4.63,0,11.67,5.51,14.59-.16a25,25,0,0,0,1.06-3.55c.92-2.66.49-2.22,2.81-3.1,2.82-1.07,4.86-1.92,6.67-4.78,1.67-2.66,1.51-4.49,4.75-5.76a16.23,16.23,0,0,0,6.57-4.27c4.44-4.36,8.27-3.35,13.67-2.34,2.42.45,4.45-.32,6.79.71,2.93,1.28,5.27,3.46,8.32,4.68,3.73-2.67,5.22-4.48,9-1.05a13.6,13.6,0,0,0,6.28,3.47c1.49.36,3-.18,3.85,1.28.39.7.12,5.27-.31,5.92-.64,1-2.11,1.44-3.16,1.87a52.56,52.56,0,0,1-10.86,2.61c-3.76.65-6.43-1.36-8.49,2.76-.8,1.59-.66,3.8-1.46,5.49a30.4,30.4,0,0,1-3.74,5.42c-2.8,3.61-6.57,3.42-10.87,3.36-1.52,0-3.25-.26-4.56.75-1.57,1.21-1.36,3.3-2.4,4.86-2.3.11-3.65-1.32-5.49-2.22a28.88,28.88,0,0,0-4.64-1.38c-1.19-.35-1.81-1.4-3.11-.72-.76.4-2.5,3.14-3,3.94-2.06,3.28-2.16,6.16-1,9.66.6,1.72,3,3.87,2.56,5.61Z"/></g><g class="cls-12"><path class="cls-3" d="M686.92,75.58c-1.69-1.67-3.09-2.74-3.47-5.12a39.79,39.79,0,0,1,0-5.12c-.12-7.08,4.39-5,9.61-5.64,2.73-.33,2.35-1.23,3.59-3.5,1.51-2.76,3.52-2.18,5.91-3.55,5.92-3.42,2.55-8.24,1.8-13.08,1.67-.75,3.54-1.31,5-2.62,2.15-1.88,3.58-4.57,5.6-6.64,2.84-2.91,7.44-5.4,11.72-4.93,3.5.38,6.34,4.13,9.11,6.07,2.16,1.52,2.12,2.43,4.47,1,2-1.19,3.31-3.46,5.56-4.55,3.45-1.67,7.48-2.1,9.07,2.08,1.21,3.18,1,8.28,5.68,8.13,4-.13,6.61-2.69,10.55-.22,2.18,1.37,2.84,3.13,5.72,3.58a37,37,0,0,0,3.93-.09c3.31.13,5.94,1.91,9.42.92,1.35-.38,2.34-1.41,3.64-1.82,1.78-.57,3.87-.26,5.72-.23,4,.05,7.41-1.3,11.38-1.16,3.06.11,3.29.85,5.67,2.34,1.77,1.1,3.59,1.41,5.2,2.76,2.92,2.45,3.54,6.05,4,9.66.15,1.28.4,3.46-.2,4.7-1.11,2.33-2.53,1.62-4.37,2.11-3.87,1-2.61,6.3-6.82,7-3.51.6-7-3.36-10-4.54-1.91,2.79-1.78,5.95-5.37,7.34-2.45,1-5.93.68-8.56.55-7.76-.37-12.68-8.49-17.07-13.95-1.58-2-4.59-7.64-8.11-5.29-2.53,1.69-2,8.42-2.39,11-.5,3.27-1.72,8.82-3.38,11.69-2.21,3.79-5.13,3.35-9,3.33-2.95,0-6.65.56-9.56,0-3.91-.68-4.71-3.56-6.51-6.63a18.48,18.48,0,0,0-3.16-3.63c-1.28-1.32-2.12-3.14-3.35-4.38-3.26-3.26-4.59-1.54-6,2-1,2.48-2.89,8-6.61,7.69-1.45-.14-2.21-2.35-3.61-2.91a11.22,11.22,0,0,0-4.56-.25c-6.06.88-11.2,6.22-16.82,8Z"/></g><path class="cls-4" d="M633.58,202.84c-1.54,3.73,2,9.57,4.2,12.47,2.71,3.59,7.25,5.71,11.41,7.4,3.95,1.6,9.47,3.4,13.52,1.83,4.33-1.69,7.09-9.31,11.2-9.49,2,1.72,1.38,4.59,1.65,6.91a15.22,15.22,0,0,0,4.31,9.34c7.06,6.77,13.27.13,19.94-3.05a11.72,11.72,0,0,0,14.48,7.43c4.14-1.18,4.87-3.42,7.44-6.29.85-.94,3.53-4,4.68-4.15,5.28-.52,4.29,12.08,11.61,11,2.74-.42,3.61-3.25,5.93-5.11a32.19,32.19,0,0,1,6.64-4.16c3.58,4.27,6.54,7.61,12.77,5.46,7.7-2.65,11.72-11.29,17.81-15.88,4.77-3.6,8.38-7.43,14.56-4.92,2.73,1.11,4.33,2.53,7.35,3.22,2.35.54,5.06.58,7.2,1.74,4.43,2.4,4.73,8,10.75,5.3,2.94-1.32,5.7-5.21,8.94-5.73,2.53-.41,4.93,1.75,7.31,1.61,5.12-.3,9.41-6.39,15.14-6.24,3.52.09,12.14,1.63,15,3.6,2,1.37,1.61,3.67,4.11,3,1.81-.53,3.25-4.16,3.77-5.77,1.44-4.38,1.22-11-.1-15.38-2.51-8.27-18-9.8-25.33-9.2-2.38.2-3.54.24-5.66,1.38-1.52.82-4.33,4-6.22,4-2.65,0-3.67-4.17-5.25-5.72a8.17,8.17,0,0,0-6.72-2.6c-2.61.34-4.12,2.59-7,1.3-2.37-1-4.38-4.07-6.19-5.95-2.42-2.51-4.83-5.61-7.5-7.85s-5-2.47-8.2-3.18c-6.06-1.34-11.26-5.57-15.27-10.26-1.88-2.19-2.63-3.58-5.64-2.64-3.23,1-6.12,4.83-8.71,6.83-3.72,2.88-6,6.52-9.4,9.7-2.13,2-4.8,2.95-7.18,4.48-2.89,1.87-3.64,3.18-4.54,7-.43,1.77-.46,4.44-1.08,6.61a1.78,1.78,0,0,1-3.39.07,7.91,7.91,0,0,0-2.52-4.07c-1.61-1.3-4.91-2.74-6.83-3.65a21.63,21.63,0,0,0-14.68-1.58c-5.86,1.51-11,5.24-16.8,6.84a27.46,27.46,0,0,1-13.06.13,35.53,35.53,0,0,0-5-1.16c-3.71-.25-4.59.92-7.47-1.45-1.65-1.37-2.81-3.72-5.06-4.41-3.27-1-5.75,1.65-8.11,3.12-1.79,1.1-3.74,2.11-5.62,3.26-3,1.85-4.71,2.24-8,3.26-3,.95-5.91,2.11-8.82,2.32a7,7,0,0,0-6.43,7.25C633.55,202,633.58,202.84,633.58,202.84Z"/><path class="cls-8" d="M668.92,541.58V524.21a5,5,0,0,1,2.81-4.52l10-5a5,5,0,0,1,5.12.38L694,520a5,5,0,0,1,2,3l2.55,11a5,5,0,0,1-1.69,5l-10.74,8.9a5,5,0,0,1-4.57,1l-8.92-2.47A5.06,5.06,0,0,1,668.92,541.58Z"/><path class="cls-8" d="M421.18,508.47,412,478a2.86,2.86,0,0,1,3.37-3.62l18,4a2.86,2.86,0,0,1,1.52.9l10,11.39a2.87,2.87,0,0,1-.36,4.13l-18.83,15.07A2.86,2.86,0,0,1,421.18,508.47Z"/><path class="cls-8" d="M159.41,662.64l-4.29-10.73a5,5,0,0,1,1.71-5.91l1.89-1.37a5,5,0,0,1,5-.51L170,647a5,5,0,0,1,2.93,4.55v8.21a5,5,0,0,1-3.67,4.82l-3.85,1.06A5,5,0,0,1,159.41,662.64Z"/><path class="cls-8" d="M916.58,716.36l-7.15,9.08a5,5,0,0,1-6,1.47l-2.12-1a5,5,0,0,1-2.94-4.08l-.67-6.82a5,5,0,0,1,2.48-4.82l7.11-4.1a5,5,0,0,1,6,.77l2.84,2.8A5,5,0,0,1,916.58,716.36Z"/><path class="cls-8" d="M153.34,727.07c-6.34-5.81-17.86-20-23-26.45a6,6,0,0,1-.42-6.87l5.67-9.27a6,6,0,0,1,5.12-2.86h14.94a6,6,0,0,1,3.09.85l16.38,9.85a6,6,0,0,1,2.9,5.14v17a6,6,0,0,1-3.05,5.23l-14.6,8.22A6,6,0,0,1,153.34,727.07Z"/><path class="cls-8" d="M855.19,662.85c.95,6.84.81,21.51.69,28.15a4.84,4.84,0,0,1-3.25,4.47l-8.26,2.82a4.79,4.79,0,0,1-4.63-.84l-9.25-7.66a4.76,4.76,0,0,1-1.47-2.11l-5.09-14.48a4.84,4.84,0,0,1,.83-4.67l8.7-10.5a4.81,4.81,0,0,1,4.56-1.67l13.25,2.39A4.84,4.84,0,0,1,855.19,662.85Z"/><path class="cls-8" d="M328.16,535v-20.2a3.09,3.09,0,0,1,1.25-2.49l6.59-4.86a3.1,3.1,0,0,1,3.59-.07l16.82,11.52a3.09,3.09,0,0,1,.69,4.47c-2.63,3.33-6.75,9.27-6.75,13.68s-6.32,13-10.48,18.27a3.1,3.1,0,0,1-5.36-.94L328.32,536A3,3,0,0,1,328.16,535Z"/><path class="cls-8" d="M208.54,644.1V631.58a4.72,4.72,0,0,1,3.6-4.58l5.65-1.36a4.59,4.59,0,0,1,2.21,0l15.13,3.68a4.7,4.7,0,0,1,2.94,7c-2.92,4.94-6.49,11.64-5.12,12.89,1.59,1.45-9,5.09-15.1,7a4.7,4.7,0,0,1-5.77-2.68l-3.18-7.62A4.71,4.71,0,0,1,208.54,644.1Z"/><path class="cls-2" d="M823.41,101.77a6.37,6.37,0,0,0-3.37.66c-.61.29-1.51,1.22-2.28,1.61a15.9,15.9,0,0,0-2.38,1.09c-2.69,1.93-7,7.75-3.46,10.7,3,2.53,7.2-.78,9.07,4.39,2,5.6-4.87,7.59-7.35,11.11-3,4.34-1.37,8.23.39,12.59a26.28,26.28,0,0,0,3,5.21c1.11,1.69.93,4,1.85,5.63,1.8,3.24,6.4,2.38,9.5,2.88,4.38.72,6.36,4.64,10.7,4.52,3.94-.11,6.76-4.13,11-3.41,1.49.26,2.48,1.8,4.13.94,1.13-.59,2.77-3.63,3.4-4.68,1.23-2.08.72-3.28,3.33-3.11,1.81.11,2.77,1.56,4.6,1,1.58-.52,3-2.91,4.54-3.74,2.2-1.17,4.7-2.67,7.16-3,1.86-.25,7.56-.36,8.65-2.08,1-1.56-.48-4.48-.95-5.91-1.05-3.2-2.09-6.09-4.6-8.42-2.35-2.18-6.26-5.06-9.71-4-3,1-7.86,7.07-7.42,0,.13-2.13,1.73-4.54.63-6.4-1.29-2.19-3.56-1.38-5.6-1.59s-3.42-1.1-5.48-1.19c-1.8-.09-3.64,0-5.44,0-3.75,0-8,.61-11.66-.23a30.94,30.94,0,0,1-11.11-5.46Z"/><path class="cls-9" d="M518,476.82l-.81-.17c-.37-2.44-1-4.94-1.27-7.36-.21-2,.18-3.91-.17-6-.82-4.84-1.81-8-1.8-13.17q0-13.66,0-27.33c0-4,.12-8,0-12-.14-5.79-4.35-8.39-6.53-12.75-2.06-4.12-1.55-9.32-4.09-12.76a24.6,24.6,0,0,0-3.81-4.16,23.7,23.7,0,0,1-5.88-6.33c-2.39-3.64-3.25-7.94-4-12.76-.33-2.06-.87-4-1.06-6.13-.38-4,.15-5.37,2.83-6.29,3.79-1.3,5.39,2.79,7.85,6.43,1.33,2,2.6,4.24,4,6.06,1.75,2.25,3.88,2.84,5.64,5.19,2.62,3.52,6.79,4.59,9.19,8.17,2,3,2.35,9.23,4,12.84,2.21,5,2,9.27,2,15.07,0,2,0,4,0,5.92,0,3.48-.48,4.28-1.42,7.5-1.33,4.53-1.78,9.58-2.63,14.25-.42,2.29-1.16,4.62-1.09,7.08.1,3.08,1.58,5.11,2,7.92a72.29,72.29,0,0,1,.11,15c-.22,2.4-1,4.28-1.07,6.75s-1.1,3.52-1.1,6Z"/><path class="cls-9" d="M539.07,447.22c-.37,1-1.46.68-1.51-.41-.19-4.25-.47-8.88.21-12.6.73-4,1-3.31.16-7.1a20.61,20.61,0,0,1,.33-8.6c2.22-10.76,4.15-20,4.15-31.2,0-2.07.14-4.23,0-6.28-.17-3-1.13-5.53-1.26-8.54s.45-6.09-.19-9c-.54-2.4-2-4.29-3-6.32a35.4,35.4,0,0,0-4.44-7.21c-1.67-2-4.07-3-5.41-5.46-1.83-3.33-4.38-11.75-3.34-15.73,5.81-1.76,10.91,4.7,16.51,2.62,4.76-1.78,9.44-1,14.2-4,2.16-1.35,5.21-3.27,5.86,2,.46,3.62-3.11,9.33-4.76,12.06s-3.21,5.11-4.15,8.56-1,7.11-1.72,10.39c-.59,2.77-2.05,5.12-2.45,7.95-.48,3.41.06,7.67.06,11.16,0,3,.16,6.13,0,9.14-.16,3.63-1.35,6.41-2.1,9.86-.71,3.22-1.76,6.44-2.43,9.61-.71,3.37.26,7-.34,10.35a48.71,48.71,0,0,0-1.08,9.92v.31a51.77,51.77,0,0,1-3.18,18.11Z"/><path class="cls-9" d="M559.57,412c-.29.88-1.08.66-1-.29.54-12.33-1.12-28.17,4.9-37.61,2.36-3.7,3.8-6.17,6.77-8.09,2.31-1.5,5.17-5.74,6.36-9.29.49-1.46.45-2.83,1-4.35a17.38,17.38,0,0,1,3.25-5.23c2.25-2.31,4.84-4.19,7-6.58,3.64-4-.48-6.75.64-10.83.66-2.41,5.36-.84,6.94-1.27,2-.54,6.17-1.49,7.48,1.4,1.38,3.05-.31,8.6-1.54,11.56a30,30,0,0,1-3.1,5.22c-1.3,1.7-2.17,1.54-3.66,2.33a16.21,16.21,0,0,0-7.79,7.88c-2.08,4.05-3.56,4.2-6.5,5.74-3.28,1.72-3.48,4.68-4.81,9.3-1.23,4.26-3.43,8.75-6.57,9.26-1.11.18-2.2-.9-3.28.22-1.33,1.36-1.25,4.55-1.77,6.5-1,3.65-2.21,7.4-2.9,11.25-.74,4.16-1,8.66-1.46,12.88Z"/><path class="cls-9" d="M458.44,326.77c-6-.4-7.59-1.68-11.69-3.8-3.21-1.65-6.88-3.5-11.27-3.8-6.86-.47-16-.46-21.83,1.15-4.29,1.19-7.82,1.58-11.78,3.26a45.89,45.89,0,0,1-8.9,2.69c-3.84.73-7.54.45-11.52.49-3.31,0-7.18,1.35-10.24,1.06,2.23.33,5,1.32,7.38,1.21s4.68-1.08,7.3-1.24a87.18,87.18,0,0,1,14.12.32c3.44.41,2.07.75,5.8-.24,1.95-.51,2.47-1,4.85-1.16,4.52-.33,9.14,1.07,13.69,1.15,4.34.07,8-.11,12.21.77,4.56.94,8,2.08,12.14,3.31,4.76,1.41,9,1.06,13.68.44,2.77-.36,5.36-.49,8-.73a10.48,10.48,0,0,0,5.39-1.83c.7-.56,1.62-1,2-1.81-3.21-.71-4.73.26-7.6.67a57.73,57.73,0,0,1-7.8.24Z"/></g></g></g></svg>