<svg id="Capa_1" enable-background="new 0 0 512 512" height="512" viewBox="0 0 512 512" width="512" xmlns="http://www.w3.org/2000/svg"><g><circle cx="256" cy="256" fill="#6d36ab" r="256"/><path d="m512 256c0-21.392-2.64-42.166-7.584-62.028l-129.493-129.493-56.59 35.981-62.311 13.35-53.022-13.351-53.523-27.459-3.38 61.875-19.097 46.125-32 41.333-48 33.706 60 40.294 30.946 58 11.531 46.667.039 53.757 51.249 51.249c17.791 3.913 36.269 5.994 55.235 5.994 141.385 0 256-114.615 256-256z" fill="#4b1b7a"/><g><g fill="#e9edf5"><path d="m256.022 241.145-105.176-182.109-12.989 7.502 118.165 204.6z"/><path d="m256.022 241.044-118.076 204.439 12.99 7.502 105.086-181.95z"/><path d="m256.022 287.969c-.008 0-.017-.001-.025-.001-7.361 0-14.535 1.575-21.096 4.559-.695-7.171-2.916-14.169-6.593-20.54-3.679-6.374-8.63-11.798-14.496-15.987 5.871-4.195 10.825-9.626 14.5-16.005 3.669-6.369 5.884-13.362 6.575-20.529 6.567 2.988 13.749 4.565 21.114 4.565h.021l10.001-6.57-10.001-8.43c-.007 0-.014 0-.021 0-9.048 0-17.701-3.372-24.364-9.495-2.414-2.218-5.99-2.612-8.828-.971s-4.283 4.935-3.565 8.134c1.976 8.816.58 17.981-3.93 25.808-4.508 7.824-11.743 13.628-20.374 16.343-3.125.983-5.25 3.881-5.249 7.157s2.129 6.172 5.255 7.153c8.619 2.704 15.854 8.502 20.37 16.326s5.918 16.988 3.95 25.805c-.714 3.199.731 6.491 3.569 8.13 1.169.675 2.462 1.005 3.749 1.005 1.836 0 3.658-.673 5.077-1.978 6.652-6.113 15.294-9.479 24.336-9.479h.025l10.001-6.722z"/><path d="m256.022 338.312c-.006 0-.011 0-.017 0-20.428 0-40.169 5.812-57.125 16.617.883-20.083-3.948-40.078-14.153-57.758-10.208-17.685-25.11-31.872-42.95-41.151 17.856-9.297 32.76-23.497 42.955-41.188 10.188-17.683 15.004-37.673 14.109-57.749 16.973 10.819 36.731 16.639 57.174 16.639h.007l10.001-8.635-10.001-6.365c-.002 0-.005 0-.007 0-22.99 0-44.974-8.567-61.9-24.123-2.414-2.219-5.989-2.612-8.828-.972-2.838 1.641-4.283 4.935-3.565 8.134 5.021 22.401 1.474 45.692-9.986 65.582-11.455 19.881-29.839 34.629-51.767 41.529-3.125.983-5.25 3.881-5.249 7.157s2.128 6.172 5.254 7.153c21.904 6.874 40.287 21.608 51.762 41.489 11.476 19.88 15.041 43.168 10.038 65.574-.714 3.199.731 6.491 3.57 8.129 1.169.675 2.462 1.005 3.748 1.005 1.836 0 3.658-.673 5.077-1.978 16.903-15.534 38.863-24.089 61.836-24.089h.017l10.001-6.298z"/><path d="m256.022 398.269c-.003 0-.006 0-.008 0-36.552 0-71.746 11.482-101.004 32.663 3.72-35.924-3.922-72.131-22.184-103.767-18.265-31.642-45.802-56.373-78.78-71.118 33.007-14.779 60.551-39.534 78.786-71.182 18.232-31.643 25.847-67.847 22.105-103.761 29.289 21.206 64.512 32.704 101.085 32.706l10.001-7.551-10.001-7.449c-39.59-.002-77.446-14.756-106.596-41.545l-12.393 7.163c8.647 38.581 2.539 78.693-17.199 112.949-19.729 34.24-51.391 59.641-89.154 71.523l.005 14.31c37.725 11.838 69.385 37.214 89.149 71.455 19.765 34.24 25.904 74.349 17.287 112.936l12.395 7.157c29.112-26.754 66.934-41.488 106.498-41.488h.008l10.001-7.053z"/><path d="m256.022 248.524h-223.091v15h223.091l10.001-7.485z"/></g><path d="m256.022 248.524h222.902v15h-222.902z" fill="#cdd2e1"/><path d="m256.022 271.138 105.024 181.847 12.99-7.502-118.014-204.338z" fill="#cdd2e1"/><path d="m256.022 271.035 118.076-204.44-12.989-7.502-105.087 181.951z" fill="#cdd2e1"/><path d="m317.002 248.839c-8.581-2.693-15.797-8.491-20.32-16.327-4.517-7.824-5.919-16.988-3.95-25.805.715-3.199-.73-6.491-3.569-8.13-2.838-1.639-6.413-1.245-8.825.973-6.646 6.108-15.281 9.474-24.315 9.479v15c7.354-.003 14.52-1.577 21.076-4.558.694 7.171 2.916 14.168 6.593 20.539 3.679 6.373 8.618 11.795 14.463 15.981-5.869 4.195-10.823 9.628-14.501 16.011-3.669 6.369-5.885 13.359-6.577 20.519-6.549-2.978-13.708-4.551-21.053-4.554v15c9.025.006 17.653 3.371 24.298 9.479 2.414 2.219 5.988 2.612 8.828.972 2.839-1.641 4.282-4.935 3.565-8.134-1.973-8.802-.575-17.962 3.936-25.792 4.511-7.828 11.74-13.632 20.357-16.343 3.125-.983 5.25-3.881 5.249-7.157-.002-3.276-2.13-6.172-5.255-7.153z" fill="#cdd2e1"/><path d="m391.933 248.853c-21.814-6.846-40.157-21.58-51.649-41.489-11.476-19.88-15.04-43.168-10.037-65.574.715-3.199-.73-6.491-3.569-8.129-2.838-1.638-6.411-1.245-8.825.973-16.902 15.533-38.86 24.087-61.83 24.089v15c20.425-.001 40.164-5.814 57.118-16.617-.884 20.083 3.948 40.079 14.153 57.758 10.214 17.694 25.081 31.878 42.853 41.146-17.84 9.293-32.737 23.495-42.934 41.193-10.188 17.683-15.009 37.664-14.121 57.719-16.943-10.797-36.666-16.606-57.069-16.609v15c22.949.004 44.893 8.559 61.792 24.088 2.414 2.219 5.988 2.612 8.828.972 2.839-1.641 4.282-4.935 3.565-8.134-5.015-22.373-1.462-45.652 10.001-65.548 11.46-19.889 29.831-34.637 51.729-41.528 3.125-.983 5.25-3.881 5.249-7.157s-2.129-6.173-5.254-7.153z" fill="#cdd2e1"/><path d="m481.169 248.868c-37.574-11.792-69.168-37.168-88.959-71.455-19.764-34.24-25.903-74.348-17.287-112.935l-12.395-7.157c-29.111 26.754-66.933 41.488-106.497 41.488-.003 0-.006 0-.009 0v15h.009c36.553 0 71.746-11.482 101.004-32.663-3.72 35.924 3.923 72.131 22.185 103.767 18.277 31.666 45.753 56.393 78.605 71.115-32.974 14.771-60.497 39.525-78.739 71.186-18.234 31.646-25.856 67.831-22.127 103.708-29.249-21.174-64.417-32.651-100.937-32.652v15c39.532.002 77.334 14.736 106.444 41.487l12.394-7.162c-8.637-38.536-2.52-78.628 17.223-112.892 19.738-34.255 51.378-59.656 89.093-71.524z" fill="#cdd2e1"/></g></g></svg>