<svg version="1.2" xmlns="http://www.w3.org/2000/svg" viewBox="0 0 497 497" width="497" height="497">
	<title>gate-svg</title>
	<style>
		.s0 { fill: #ddb425 } 
		.s1 { fill: #9c801f } 
		.s2 { fill: #be9f35 } 
		.s3 { fill: #ffbc72 } 
		.s4 { fill: #ffd693 } 
		.s5 { fill: #fff0b8 } 
	</style>
	<g id="Layer">
		<g id="Layer">
			<path id="Layer" class="s0" d="m196 75.5h15v335.3l-15-0.1z"/>
			<path id="Layer" class="s0" d="m166 101.3h15v309.4l-15 0.1z"/>
			<path id="Layer" class="s0" d="m136 138.8l15-0.1v272.1l-15-0.1z"/>
			<path id="Layer" class="s0" d="m286 75.5h15v335.3l-15-0.1z"/>
			<path id="Layer" class="s0" d="m316 101.3h15v309.4l-15 0.1z"/>
			<path id="Layer" class="s0" d="m346 138.8l15-0.1v272.1l-15-0.1z"/>
		</g>
		<path id="Layer" class="s0" d="m383.5 228.8l-22.5-0.1-30-15 30-15h22.5z"/>
		<path id="Layer" class="s0" d="m263.5 198.8l97.5-0.1v30h-97.5z"/>
		<path id="Layer" class="s0" d="m233.5 228.8l-22.5-0.1-30-15 30-15h22.5z"/>
		<path id="Layer" class="s0" d="m113.5 198.8l97.5-0.1v30h-97.5z"/>
		<path id="Layer" class="s1" d="m482 138.8v294.4c0 4.2-3.4 7.6-7.5 7.6h-22.5l-15-15v-317.1z"/>
		<path id="Layer" class="s2" d="m452 108.8v331.9l-31 0.1c-4.1 0-7.5-3.4-7.5-7.5v-294.5z"/>
		<path id="Layer" class="s3" d="m482 138.8l-30-0.1-23.5-45h53.5z"/>
		<path id="Layer" class="s4" d="m413.5 93.8h38.5v45h-38.5z"/>
		<path id="Layer" class="s4" d="m497 93.8c0 8.2-6.7 15-15 15h-30v-30h30c8.3 0 15 6.7 15 15z"/>
		<path id="Layer" class="s5" d="m452 108.8h-38.5c-8.3 0-15-6.8-15-15 0-8.3 6.7-15 15-15h38.5c8.3 0 15 6.7 15 15 0 8.2-6.7 15-15 15z"/>
		<path id="Layer" class="s1" d="m83.5 138.8v294.4c0 4.2-3.4 7.6-7.5 7.6h-22.5l-15-15v-317.1z"/>
		<path id="Layer" class="s2" d="m53.5 108.8v331.9l-31 0.1c-4.1 0-7.5-3.4-7.5-7.5v-294.5z"/>
		<path id="Layer" class="s3" d="m83.5 138.8l-30-0.1-23.5-45h53.5z"/>
		<path id="Layer" class="s4" d="m15 93.8h38.5v45h-38.5z"/>
		<path id="Layer" class="s4" d="m98.5 93.8c0 8.2-6.7 15-15 15h-30v-30h30c8.3 0 15 6.7 15 15z"/>
		<path id="Layer" class="s5" d="m53.5 108.8h-38.5c-8.3 0-15-6.8-15-15 0-8.3 6.7-15 15-15h38.5c8.3 0 15 6.7 15 15 0 8.2-6.7 15-15 15z"/>
		<path id="Layer" class="s0" d="m113.5 343.3l120-0.1v15h-120z"/>
		<path id="Layer" class="s0" d="m263.5 343.3l120-0.1v15h-120z"/>
		<path id="Layer" class="s0" d="m241 63.8v346.9c0 4.2-3.4 7.6-7.5 7.6h-15l7.5-15v-331.5l-3.9-14.6q5.6-0.9 11.4-0.9c4.1 0 7.5 3.3 7.5 7.5z"/>
		<path id="Layer" class="s0" d="m226 403.3v7.4c0 4.2-3.4 7.5-7.5 7.5h-105c-4.1 0-7.5-3.3-7.5-7.5v-271.9c0-4.2 3.4-7.6 7.5-7.6h26.4l39-48.7c10.9-13.7 26.3-22.6 43.2-25.3 2.3 1.2 3.9 3.7 3.9 6.5v8.1c-13.9 1.8-26.5 8.9-35.4 20.1l-41.2 51.5c-1.5 1.8-3.6 2.8-5.9 2.8h-22.5v257z"/>
		<path id="Layer" class="s0" d="m391 138.8v271.9c0 4.2-3.4 7.6-7.5 7.6h-15l7.5-15v-257.1l-7.5-14.9h15c4.1 0 7.5 3.3 7.5 7.5z"/>
		<path id="Layer" class="s0" d="m368.5 418.3l-105-0.1c-4.1 0-7.5-3.3-7.5-7.5v-346.9c0-4.2 3.4-7.6 7.5-7.6 21.4 0 41.3 9.6 54.6 26.3l39 48.7h11.4c4.1 0 7.5 3.4 7.5 7.5v7.5h-22.5c-2.3 0-4.4-1-5.9-2.8l-41.2-51.5c-8.9-11.2-21.5-18.3-35.4-20.1v331.4l105 0.1v7.5c0 4.1-3.4 7.5-7.5 7.5z"/>
	</g>
</svg>