<?xml version="1.0" encoding="iso-8859-1"?>
<!-- Generator: Adobe Illustrator 19.0.0, SVG Export Plug-In . SVG Version: 6.00 Build 0)  -->
<svg version="1.1" id="Capa_1" xmlns="http://www.w3.org/2000/svg" xmlns:xlink="http://www.w3.org/1999/xlink" x="0px" y="0px"
	 viewBox="0 0 512 512" style="enable-background:new 0 0 512 512;" xml:space="preserve">
<path style="fill:#E3AA75;" d="M376,163.956V376h48V199.494c0-4.748-2.109-9.252-5.757-12.292l-33.058-27.548
	C381.537,156.615,376,159.208,376,163.956z"/>
<path style="fill:#D29B6E;" d="M385.185,159.654c-3.647-3.04-9.185-0.446-9.185,4.302V376h24V172L385.185,159.654z"/>
<rect x="232" y="136" style="fill:#E3AA75;" width="48" height="240"/>
<path style="fill:#D29B6E;" d="M272,160h8v-24h-48v240h24V176C256,167.163,263.163,160,272,160z"/>
<path style="fill:#F0C382;" d="M288,144h-64c-4.418,0-8-3.582-8-8v-24h80v24C296,140.418,292.418,144,288,144z"/>
<g>
	<path style="fill:#E3AA75;" d="M216,112v24c0,4.418,3.582,8,8,8h24v-8c0-4.418,3.582-8,8-8h40v-16H216z"/>
	<rect x="88" y="136" style="fill:#E3AA75;" width="48" height="240"/>
</g>
<path style="fill:#D29B6E;" d="M128,160h8v-24H88v240h24V176C112,167.163,119.163,160,128,160z"/>
<g>
	<path style="fill:#F0C382;" d="M488,432H24v-24c0-4.418,3.582-8,8-8h448c4.418,0,8,3.582,8,8V432z"/>
	<path style="fill:#F0C382;" d="M456,400H56v-24c0-4.418,3.582-8,8-8h384c4.418,0,8,3.582,8,8V400z"/>
</g>
<path style="fill:#E3AA75;" d="M504,440H8c-4.422,0-8-3.578-8-8s3.578-8,8-8h496c4.422,0,8,3.578,8,8S508.422,440,504,440z"/>
<g>
	<path style="fill:#F0C382;" d="M144,144H80c-4.418,0-8-3.582-8-8v-24h80v24C152,140.418,148.418,144,144,144z"/>
	<path style="fill:#F0C382;" d="M56,72h220.686c2.122,0,4.157,0.843,5.657,2.343l30.828,30.828c2.52,2.52,0.735,6.828-2.828,6.828
		H56c-4.418,0-8-3.582-8-8V80C48,75.582,51.582,72,56,72z"/>
</g>
<g>
	<rect x="56" y="384" style="fill:#E3AA75;" width="400" height="16"/>
	<path style="fill:#E3AA75;" d="M72,112v24c0,4.418,3.582,8,8,8h24v-8c0-4.418,3.582-8,8-8h40v-16H72z"/>
</g>
<path style="fill:#FFE1A0;" d="M56,88h240l-13.657-13.657c-1.5-1.5-3.535-2.343-5.657-2.343H56c-4.418,0-8,3.582-8,8
	S51.582,88,56,88z"/>
<g>
</g>
<g>
</g>
<g>
</g>
<g>
</g>
<g>
</g>
<g>
</g>
<g>
</g>
<g>
</g>
<g>
</g>
<g>
</g>
<g>
</g>
<g>
</g>
<g>
</g>
<g>
</g>
<g>
</g>
</svg>
