<svg height="456pt" viewBox="0 -69 456 456" width="456pt" xmlns="http://www.w3.org/2000/svg"><path d="m383.800781 163.140625c0 86.046875-69.753906 155.800781-155.800781 155.800781s-155.800781-69.753906-155.800781-155.800781 69.753906-155.800781 155.800781-155.800781 155.800781 69.753906 155.800781 155.800781zm0 0" fill="#b84134"/><path d="m345.800781 125.140625c0 65.078125-52.746093 117.800781-117.800781 117.800781s-117.800781-52.722656-117.800781-117.800781c0-65.074219 52.746093-117.796875 117.800781-117.796875s117.800781 52.722656 117.800781 117.796875zm0 0" fill="#e06b3d"/><path d="m376.035156 0c17.523438 0 32.375 11.671875 37.191406 27.648438 2.804688-.742188 5.710938-1.121094 8.667969-1.121094 18.804688 0 34.105469 15.300781 34.105469 34.109375 0 18.804687-15.300781 34.101562-34.105469 34.101562h-88.507812c-16.203125 0-29.386719-13.179687-29.386719-29.382812 0-16.199219 13.183594-29.386719 29.386719-29.386719 1.3125 0 2.617187.089844 3.910156.265625 1.339844-20.207031 18.199219-36.234375 38.738281-36.234375zm0 0" fill="#4a363a"/><path d="m114.4375 172.738281c22.1875 0 40.628906 16.367188 43.875 37.667969 17.949219 2.941406 31.6875 18.148438 31.6875 36.917969 0 20.859375-16.972656 37.417969-37.832031 37.417969h-120.445313c-17.492187 0-31.722656-13.816407-31.722656-31.304688 0-17.492188 14.230469-31.515625 31.722656-31.515625.210938 0 .425782.105469.644532.109375 2.574218-17.144531 17.402343-30.277344 35.253906-30.277344 3.242187 0 6.433594.460938 9.503906 1.308594 8.023438-12.492188 21.941406-20.324219 37.3125-20.324219zm0 0" fill="#4a363a"/><path d="m243.199219 94.742188c0 27.289062-22.121094 49.398437-49.398438 49.398437-27.28125 0-49.398437-22.109375-49.398437-49.398437 0-27.289063 22.117187-49.398438 49.398437-49.398438 27.277344 0 49.398438 22.105469 49.398438 49.398438zm0 0" fill="#b84134"/><path d="m307.800781 170.742188c0 12.59375-10.207031 22.800781-22.800781 22.800781s-22.800781-10.207031-22.800781-22.800781 10.207031-22.800782 22.800781-22.800782 22.800781 10.207032 22.800781 22.800782zm0 0" fill="#b84134"/><g fill="#995d72"><path d="m152 269.539062h-45.601562c-4.195313 0-7.601563-3.398437-7.601563-7.597656 0-4.199218 3.40625-7.601562 7.601563-7.601562h45.601562c4.195312 0 7.601562 3.402344 7.601562 7.601562 0 4.199219-3.40625 7.597656-7.601562 7.597656zm0 0"/><path d="m425.601562 79.539062h-45.601562c-4.195312 0-7.601562-3.398437-7.601562-7.597656 0-4.199218 3.402343-7.601562 7.601562-7.601562h45.601562c4.195313 0 7.597657 3.402344 7.597657 7.601562 0 4.199219-3.402344 7.597656-7.597657 7.597656zm0 0"/></g></svg>