<svg height="512pt" viewBox="-61 0 512 512" width="512pt" xmlns="http://www.w3.org/2000/svg"><path d="m60 422-33.28125-17.34375-26.71875 17.34375v90h60l30-18.160156v-52.101563zm0 0" fill="#3c1b13"/><path d="m360 452-24.902344 15.898438 24.902344 14.101562h30v30h-330v-90l120.902344-24.902344h130.496094l78.601562 24.902344v30zm0 0" fill="#b760ea"/><path d="m360 452-24.902344 15.898438 24.902344 14.101562h30v30h-165v-114.902344h86.398438l78.601562 24.902344v30zm0 0" fill="#a24bdb"/><path d="m60 0h-60v422h60s17.417969-15.496094 30-26.203125v-370.734375zm0 0" fill="#663325"/><path d="m390 90v242l-17.402344 30.300781c-22.796875 1.199219-41.097656 19.5-42.296875 42.296875l-30.300781 17.402344h-150l-30-15c0-24.902344-20.097656-45-45-45l-15-30v-242l23.101562-30.902344c18.597657-3.296875 33.300782-18.296875 36.296876-37.199218l30.601562-21.898438h150l30.300781 18.898438c2.097657 22.5 20.398438 40.199218 43.199219 41.101562zm0 0" fill="#cb75f6"/><path d="m390 90v242l-17.402344 30.300781c-22.796875 1.199219-41.097656 19.5-42.296875 42.296875l-30.300781 17.402344h-75v-422h75l30.300781 18.898438c2.097657 22.5 20.398438 40.199218 43.199219 41.101562zm0 0" fill="#b760ea"/><path d="m75 90h-15v-90h90v15c0 41.351562-33.648438 75-75 75zm0 0" fill="#b760ea"/><path d="m390 90h-15c-41.351562 0-75-33.648438-75-75v-15h90zm0 0" fill="#a24bdb"/><path d="m150 422h-90v-90h15c41.351562 0 75 33.648438 75 75zm0 0" fill="#b760ea"/><path d="m390 422h-90v-15c0-41.351562 33.648438-75 75-75h15zm0 0" fill="#a24bdb"/><g fill="#fdbf00"><path d="m332.101562 118.800781-74.101562-10.800781-33-66.898438-33 66.898438-74.101562 10.800781 53.699218 52.199219-12.597656 73.5 66-34.800781 66 34.800781-12.597656-73.5zm0 0"/><path d="m150 272h150v30h-150zm0 0"/><path d="m180 332h90v30h-90zm0 0"/></g><path d="m225 332h45v30h-45zm0 0" fill="#ff9f00"/><path d="m225 272h75v30h-75zm0 0" fill="#ff9f00"/><path d="m291 244.5-66-34.800781v-168.597657l33 66.898438 74.101562 10.800781-53.699218 52.199219zm0 0" fill="#ff9f00"/><path d="m60 452h300v30h-300zm0 0" fill="#faecd8"/><path d="m225 452h135v30h-135zm0 0" fill="#f8e5ca"/></svg>