<?xml version="1.0" encoding="iso-8859-1"?>
<!-- Generator: Adobe Illustrator 19.0.0, SVG Export Plug-In . SVG Version: 6.00 Build 0)  -->
<svg version="1.1" id="Layer_1" xmlns="http://www.w3.org/2000/svg" xmlns:xlink="http://www.w3.org/1999/xlink" x="0px" y="0px"
	 viewBox="0 0 512 512" style="enable-background:new 0 0 512 512;" xml:space="preserve">
<polygon style="fill:#EBD798;" points="0,428.138 70.621,313.379 97.103,322.207 158.897,198.621 256,154.483 273.655,83.862 
	353.103,172.138 388.414,251.586 441.379,278.069 512,428.138 "/>
<polygon style="fill:#563928;" points="176.552,428.138 176.552,366.345 229.517,304.552 282.483,286.897 353.103,339.862 
	370.759,428.138 "/>
<g>
	<polygon style="fill:#DBC589;" points="282.483,286.897 264.828,225.103 317.793,172.138 273.655,83.862 256,154.483 
		158.897,198.621 97.103,322.207 70.621,313.379 0,428.138 176.552,428.138 211.862,331.034 	"/>
	<polygon style="fill:#DBC589;" points="282.483,286.897 379.586,322.207 379.586,357.517 423.724,428.138 370.759,428.138 
		353.103,348.69 	"/>
</g>
<g>
	<polygon style="fill:#EBD798;" points="282.483,286.897 194.207,322.207 185.379,357.517 158.897,384 150.069,428.138 
		176.552,428.138 211.862,331.034 	"/>
	<polygon style="fill:#EBD798;" points="185.379,392.828 203.034,428.138 150.069,428.138 	"/>
</g>
<polygon style="fill:#CBB076;" points="158.897,428.138 132.414,384 132.414,331.034 79.448,295.724 0,428.138 "/>
<polygon style="fill:#B89661;" points="79.448,295.724 105.931,339.862 97.103,392.828 105.931,428.138 0,428.138 "/>
<polygon style="fill:#CBB076;" points="397.241,428.138 432.552,384 476.69,392.828 485.517,428.138 "/>
<g>
	<polygon style="fill:#B89661;" points="432.552,384 459.034,410.483 459.034,428.138 397.241,428.138 	"/>
	<polygon style="fill:#B89661;" points="282.483,286.897 300.138,322.207 335.448,357.517 335.448,401.655 353.103,428.138 
		370.759,428.138 353.103,348.69 	"/>
</g>
<polygon style="fill:#FFEBB2;" points="344.276,242.759 361.931,278.069 432.552,304.552 512,428.138 441.379,278.069 
	344.276,225.103 "/>
<g>
</g>
<g>
</g>
<g>
</g>
<g>
</g>
<g>
</g>
<g>
</g>
<g>
</g>
<g>
</g>
<g>
</g>
<g>
</g>
<g>
</g>
<g>
</g>
<g>
</g>
<g>
</g>
<g>
</g>
</svg>
