<svg version="1.2" xmlns="http://www.w3.org/2000/svg" viewBox="0 0 512 512" width="512" height="512">
	<title>flame ring-ai</title>
	<style>
		.s0 { fill: #ffda03 } 
		.s1 { fill: #fff03e } 
		.s2 { fill: #fa8708 } 
		.s3 { fill: #ffffff } 
		.s4 { opacity: .6;fill: #f9270b } 
		.s5 { fill: #f9450b } 
		.s6 { fill: #c90606 } 
	</style>
	<g id="Layer 1">
		<g id="&lt;Group&gt;">
			<g id="&lt;Group&gt;">
				<g id="&lt;Group&gt;">
					<g id="&lt;Group&gt;">
						<path id="&lt;Compound Path&gt;" fill-rule="evenodd" class="s0" d="m463.3 336.8c2.1 15.3 5.8 48.5-11.6 60.1-17.4 11.6-28.4 10.5-34.2 34.2-5.8 23.8-21.6 24.3-28 25.3-6.3 1.1 10.6 5.8 20.6-5.2 0 0 2.6-2.7-2.1 6.8-4.8 9.5-35.8 36.9-56.9 33.8-21.1-3.2-18.4-12.2-27.4-2.7-8.9 9.5-4.2 5.8-20.5 4.2-16.4-1.5-24.3 18-52.2-6.8 0 0-34.7 12.6-54.5 8.7-19.7-4-32.4-13.5-37.1-29.3-4.8-15.8-11.1-7.9-23.7-7.1-12.7 0.8-37.9-1.6-49.8-17.4-11.8-15.8 4-1.6 2.4-9.5-1.6-7.9-8.7-16.6-6.3-29.2 2.3-12.7 3.1-12.7-19.8-28.5-22.9-15.8-30.8-47.4-13.4-71.1 17.4-23.8 30-26.1 18.2-54.6-11.9-28.4-12.7-47.4 18.1-74.3 30.8-26.9 69.5-59.3 59.3-85.4 0 0-4.8-7.1 3.1-3.2 7.9 4 18.2 8.7 15.8 20.6-2.3 11.9 8.7-8.7 8.7-18.2 0-9.5 12.7-45 51.4-44.3 0 0 7.1-0.7 0.8 5.6-6.4 6.3-19 24.5-7.1 38.7 11.8 14.3 2.3-19 29.2-36.3 26.8-17.4 21.3-31.7 19.7-38-1.5-6.3 15.8 11.9 7.9 32.4-7.9 20.6 15.8 43.5 22.9 42.7 7.2-0.8 28.5-26.9 12.7-44.3-15.8-17.4 27.6 4 19.7 25.3-7.9 21.4 2.4-6.3 15.8 4 13.5 10.3-13.4-4-3.1 29.2 10.2 33.2 22.1 26.1 19.7 38 0 0 4.2-0.3 3.2-9.2-1.1-9 5.8-18 13.7-18 7.9 0-6.3-0.5 1.6 10.6 7.9 11.1 23.7 18.4 20.5 36.9-3.2 18.4-1.6 22.7 3.7 25.8 5.3 3.2-4.7-3.7 10-14.8 14.7-11-2.1 3.7 12.6 28.5 14.8 24.8 41.6 64.8 23.7 91.2 0 0-3.1 6.3 6.4-1.1 9.4-7.3 8.9-20.5 11.5-17.9 2.7 2.7 6.9 26.9-2.6 40.1-9.5 13.2-15.8 14.7-12.6 21.6 3.1 6.8-2.7-10.6 12.6-13.2 15.3-2.6-4.7 0-2.6 15.3zm-79.5-18.5c2.6-18.9 16.8-30-1.1-46.3-17.9-16.4-15.8-34.8-20-30.1-4.2 4.8-0.5 13.2-0.5 13.2 0 0-6.9-3.7-5.3-17.9 1.6-14.3-14.2-25.8-14.2-25.8-17.9 1-28.5-19.5-28.5-11.1 0 8.4 23.2 13.7 3.2 7.9-20-5.8-25.3-23.2-25.3-23.2-10.5 13.7 1.6 20.6-10 13.2-11.6-7.4-9.5-22.7-9.5-22.7-10 1.1-15.2 18.5-16.8 12.7-1.1-4.1 0.9-9.7 2.2-12.7 0.8-1.2 0.9-2.1 0.9-2.1 0 0-0.4 0.8-0.9 2.1-1.9 2.6-7.2 6.8-22.2 7.9-22.2 1.6-27.4 24.8-25.8 16.4 1.5-8.5-2.2-12.2-2.2-12.2-0.5 12.2-2.1 16.4-24.7 27.4-22.7 11.1-17.4 32.2-21.6 23.8-4.2-8.5 6.8-15.3-2.1-10.6-9 4.8-13.7 27.4-13.7 49 0 21.6-21.1 25.9-7.9 22.2 13.2-3.7 10-3.2 5.3 4.7-4.8 7.9-7.9 21.1-1.6 32.2 6.3 11-4.2 20 3.1 16.3 7.4-3.7 15.3-16.3 10-2.1-5.2 14.2-5.7 24.2 4.3 30 10 5.8 1 8 8.4 16.9 7.4 9 9.5-1.6 16.8 14.8 7.4 16.3 27.4 13.1 27.4 13.1 0 0 4.8-5.2 2.1-10.5-2.6-5.3 2.1-3.2 2.1-3.2 19.5 12.2 13.2 27.4 13.2 27.4 0 0 7.9-2.1 9.5-9.4 1.6-7.4 0.5-16.9 6.3-1.6 5.8 15.3 23.7 17.4 23.7 17.4-6.6-5.8-6.6-15-4.2-15.8 0 0-1.1 6.8 17.4 8.9 13.9 1.6 16.4 2.6 16.8 3q0 0.1 0 0.2c0 0 0.1-0.1 0-0.2-3-12.1 9-29.8 7.4-18.3-1.6 11.6 4.7 15.3 4.7 15.3-1-8.9 9-15.8 17.4-23.2 8.4-7.3-5.8-14.2 3.7-11.6 9.5 2.7 11.1 20.1 9.5 7.4-1.6-12.6 14.2-17.9 21.1-29.5 6.8-11.6-9.5-17.9-2.1-16.3 7.3 1.5 11 9.4 11 9.4 16.9-10-2.6-20.5 5.3-17.3 7.9 3.1 5.8 10.5 5.8 10.5-2.1 14.8 5.8-5.3 7.3-22.1 1.6-16.9-8.4-8.5-5.7-27.5z"/>
						<path id="&lt;Path&gt;" class="s1" d="m298.4 441.5q0 0.1 0 0.2c0 0 0.1-0.1 0-0.2z"/>
						<path id="&lt;Path&gt;" class="s1" d="m258 175.5c0.8-1.2 0.9-2.1 0.9-2.1 0 0-0.4 0.8-0.9 2.1z"/>
					</g>
					<g id="&lt;Group&gt;">
						<path id="&lt;Compound Path&gt;" fill-rule="evenodd" class="s2" d="m440.6 333.1c0 21.1-16.8 26.4-3.1 23.7 13.7-2.6 4.2-21.6 10.5-7.9 6.3 13.7 0.5 29-20.5 38.5-21.1 9.5-19.5 10-26.4 42.7-6.8 32.7-64.7 17.9-45.8 28.5 19 10.5 29.5-4.3 27.4 3.1-2.1 7.4-22.6 17.4-41.6 13.2-19-4.2-17.9-5.8-24.2 4.2-6.4 10-10.6-13.2-21.6-0.5-11.1 12.6-27.4 10.5-34.8 4.7-7.4-5.8-16.8-8.9-33.2-4.2-16.3 4.7-35.8 3.7-50-8.4-14.2-12.1-10-33.8-31.6-23.2-21.6 10.5-44.2-16.9-36.9-14.3 7.4 2.7 28.5 2.2 6.9-6.3-21.6-8.4-20-22.6-20.6-40.6-0.5-17.9-23.7-27.4-23.7-27.4 15.8-2.1 25.8 12.7 19 2.7-6.9-10-15.8-5.8-28.4-25.9-12.7-20 10-49.5 20.5-57.4 10.5-7.9 16.3-25.8 5.3-51.7-11.1-25.8 23.1-41.6 39.5-54.8 16.3-13.2 15.8-31.6 15.8-31.6 4.2 8.4-1.1 22.1-1.1 22.1 0 0 21.8-8.1 31.6-36.9 0 0 6.3-16 13.4-36.6 0 0 4-7.1 7.9-12.6 4-5.6-0.8 9.4 5.6 26.1 6.3 16.6 2.3 8.7 7.1-0.8 4.7-9.5 1 17.7 11.3 22.1 9.2 4 11.1-40.9 17.4-21.9 6.3 19-1.1 24.3-1.1 24.3 0 0 20-1.1 10.6-24.3-9.5-23.2 14.7-39.5 14.7-39.5-7.4 39.5 43.2 54.3 43.2 54.3 4.2-12.1 13.7-17.4 13.7-17.4-3.7 10.5 1.6 19 1.6 19 0.5-12.2 8.9-15.8 8.9-15.8-3.1 17.9 2.1 33.2 19 39.5 16.8 6.3 20.5 20 20.5 20 14.8-15.3-2.1-31.1 10-21.6 12.1 9.5 16.9 19 12.7 44.8-4.2 25.8 18.4 33.2 18.4 33.2-5.8-9 4.2-16.3 4.2-16.3-2.1 10.5-0.5 9.5 22.7 47.9 23.1 38.5-20.6 48.5 1 55.9 15.5 5.3 18.5-6.8 18.8-8.2-0.1 0.4-0.2 1.9-0.3 5-0.6 15.8-14.3 9.5-14.3 30.6zm-48.2-23.3c3.6-22.2 5.6-32.4-4.7-46.3-10.3-13.8-15.4-26.8-17.4-35.5-2-8.7-3.1 3.5-7.5 9.4-4.3 6 7.1-8.7-3.9-19.3-11.1-10.7-8.7-5.2-11.1-10.7-2.4-5.5-7.9 0.8-17.4-4.3-9.5-5.2-9.1-14.7-15.4-17 0 0-6.3 5.9-3.5 13 2.7 7.1-12.3-7.5-15-19.4 0 0-11.1 3.6-13.1 12.7 0 0-11.8-8.7-7.5-19 0 0-14.2 1.6-17 6.7-2.7 5.2-1.2-7.9 4.4-9.5 0 0-6 0-13.1 4.4-7.1 4.3-11.8-0.8-22.5 4.7-10.6 5.6-13 10.3-13 10.3 0 0-3.6-5.9 0.4-10.3 3.9-4.3-9.5-0.4-10.3 5.6-0.8 5.9-4.3 10.6-5.9 11-1.6 0.4 3-6.8-2.6-9.7 0 0-1.6 12.1-8.5 15.8-6.8 3.7-15.3 1.6-19.5 6.3-4.2 4.8-10 16.4-8.4 9 1.6-7.4-6.8 4.2-10 11-3.2 6.9-3.7 13.8-10 16.4-6.3 2.6-3.2 2.6-3.2 17.4 0 14.7-2.6 17.4-9.4 26.3-6.9 9-9 17.4-5.8 26.4 3.1 8.9-2.1-1.1 6.8-6.3 9-5.3-5.8 3.7 0.5 16.3 6.4 12.7 5.3 22.7 2.7 32.7-2.7 10-0.6 15.8 3.7 10 4.2-5.8 6.8-7.9 6.8-7.9 0 0-6.3 8.4-1.6 15.3 4.8 6.8 12.7 12.6 14.2 23.7 1.6 11.1 7.4 13.7 12.2 13.7 4.7 0 13.1 1.1 13.1 9 0 7.9 24.8 22.1 32.2 7.9 7.3-14.3 4.2-14.8 8.4-9.5 4.2 5.2 5.8 17.4 0.5 21.1-5.3 3.6 11.1 6.3 16.3-3.7 5.3-10 4.8 14.7 29.5 13.7 24.8-1.1 4.8-3.2 1.1-10-3.7-6.9 0.1 1.4 14.7 1 14.6-0.4 21 5.2 21 5.2 0 0-3.2-10.3-2.4-16.7 0.8-6.3 0.4 11.1 10.3 11.5 9.8 0.4-2.4-3.9 11.4-14.2 13.8-10.3 12.7-16.6 12.7-16.6 0 0 5.9 6.3 2.7 12.2-3.1 6 6.3 0.8 8.3-13 2-13.8 8.7-17 24.9-21.4 16.2-4.3 14.6-12.6 17.8-26.4 3.1-13.9 7.9-19.8 11.4-29.3 3.6-9.5-11.8-1.6-8.3-23.7z"/>
					</g>
					<path id="&lt;Path&gt;" class="s0" d="m189.4 102.3c0 0 0.8 33.9-19.7 47.4 0 0 33.9-8.7 19.7-47.4z"/>
					<path id="&lt;Path&gt;" class="s0" d="m273.9 116.5c-23.7-10.3-18.1-40.3-18.1-40.3 1.5 19.7 15.8 35.5 35.5 41.1 19.8 5.5 18.2 22.9 18.2 22.9-4.8-12.6-11.9-13.4-35.6-23.7z"/>
					<path id="&lt;Path&gt;" class="s3" d="m217.1 46.9c0 0-1 0.5-2.6 1.3-1.6 0.8-3.8 2.1-6.4 3.7-1.3 0.9-2.7 1.7-4.2 2.7-1.4 1-2.9 2.1-4.4 3.2-1.6 1.1-3 2.5-4.5 3.7-1.5 1.4-3 2.6-4.4 4.1-1.3 1.5-2.8 2.9-3.9 4.5q-0.9 1.2-1.8 2.3c-0.6 0.8-1.1 1.6-1.6 2.4q-0.8 1.1-1.5 2.3-0.6 1.2-1.2 2.3c-0.9 1.6-1.6 3-2.1 4.4q-0.9 2.2-1.6 3.9-0.5 1.8-0.9 3.1c-0.5 1.8-0.8 2.8-0.8 2.8 0 0 0-1.1 0.1-2.9q0.2-1.4 0.3-3.3c0.2-1.3 0.6-2.7 0.9-4.2 0.3-1.6 0.9-3.2 1.6-4.9q0.5-1.3 1.1-2.6c0.4-0.9 0.9-1.7 1.4-2.6 0.5-0.8 1-1.7 1.5-2.6q0.9-1.3 1.9-2.5c1.2-1.8 2.7-3.3 4.1-4.9 1.4-1.5 3.1-2.8 4.6-4.3 1.7-1.2 3.3-2.5 5-3.6 3.3-2.2 6.5-3.8 9.4-5.1 5.8-2.5 10-3.2 10-3.2z"/>
					<path id="&lt;Path&gt;" class="s4" d="m138.8 424c0 0-25.2-14.2-30-32.4-4.7-18.2-5.5-39.5-14.2-46.6-8.7-7.1-16.6-20.6-11.1-39.6 5.6-18.9 17.4-38.7 17.4-49 0-10.3 7.9-48.2 26.9-58.5 18.9-10.3 33.2-27.7 35.5-37.9 2.4-10.3 6.4 2.3 2.4 8.7-3.9 6.3 7.9-11.9 18.2-19 10.2-7.1 26-7.1 24.5-18.2-1.6-11.1 10.2 7.1 0 14.2-10.3 7.2 13.5-8.6 28.4-10.2 14.2-1.6 22.9-15.1 22.9-15.1 0 0 9.5 14.3 29.2 20.6 19.8 6.3 34 16.6 34 16.6 0 0-6.3-8.7-5.5-17.4 0.8-8.7 4.7 15.8 21.3 20.6 16.6 4.7 30.8 21.3 34 30 3.1 8.7 18.2 23.7 28.4 32.4 10.3 8.7 16.6 38.8 14.2 55.4-2.3 16.6 1.6 30 5.6 44.2 3.9 14.3 7.1 27.7-0.8 44.3-7.9 16.6-19 19.8-21.3 37.2-2.4 17.4-22.2 30-44.3 37.1-22.1 7.1 24.5-12.6 37.1-58.5 12.7-45.8 35.6-105.1-22.1-170-57.6-64.8-139-75.1-209.3-15.8-70.3 59.3-68 167.6-21.4 226.9z"/>
					<path id="&lt;Compound Path&gt;" fill-rule="evenodd" class="s5" d="m258.9 476.5c-90.5 0-163.8-73.3-163.8-163.9 0-90.7 73.3-164 163.8-164 90.6 0 163.8 73.3 163.8 164 0 90.6-73.2 163.9-163.8 163.9zm-144.8-163.9c0 79.9 65 144.9 144.8 144.9 79.9 0 144.9-65 144.9-144.9 0-80-65-145-144.9-145-79.8 0-144.8 65-144.8 145z"/>
					<g id="&lt;Group&gt;" style="opacity: .6">
						<path id="&lt;Compound Path&gt;" fill-rule="evenodd" class="s6" d="m259.7 470.1c-88.3 0-160.1-71.8-160.1-160.2 0-88.3 71.8-160.2 160.1-160.2 88.3 0 160.1 71.9 160.1 160.2 0 88.4-71.8 160.2-160.1 160.2zm-1-307.2c-83.1 0-150.7 67.6-150.7 150.7 0 83.1 67.6 150.8 150.7 150.8 83 0 150.6-67.7 150.6-150.8 0-83.1-67.6-150.7-150.6-150.7z"/>
					</g>
					<path id="&lt;Path&gt;" class="s0" d="m74.9 340.2c0 0-25.3-26.9 6.3-45.8 0 0-18.2 21.8-6.3 45.8z"/>
					<path id="&lt;Path&gt;" class="s0" d="m127.8 180.5c0 0-40.3 14.3-34 33.2 6.3 19-7.9-7.9 34-33.2z"/>
					<path id="&lt;Path&gt;" class="s0" d="m419.3 235.9c0 0 17.4 31.6 6.3 51.4 0 0 24.5-19.8-6.3-51.4z"/>
					<path id="&lt;Path&gt;" class="s0" d="m378.2 144.9c0 0 16.6 16.6 4.8 38 0 0 3.1-19-4.8-38z"/>
					<path id="&lt;Path&gt;" class="s3" d="m457.2 348.1c0 0 11.1 37.2-21.3 46.7 0 0 39.5-0.8 21.3-46.7z"/>
					<path id="&lt;Path&gt;" class="s3" d="m445.4 286.7c0 0 0.6-1.2 1.2-3.4 0.3-1.1 0.6-2.5 0.8-4 0.2-1.6 0.4-3.4 0.4-5.3 0.1-1.9-0.1-4.1-0.2-6.3-0.4-2.2-0.5-4.5-1.1-6.9q-0.4-1.8-0.8-3.6-0.5-1.8-1-3.6c-0.6-2.5-1.7-4.9-2.5-7.4-0.8-2.5-2-4.8-2.9-7.2-1-2.4-2.2-4.6-3.3-6.8-1-2.2-2-4.4-3.2-6.3q-1.6-3-3-5.7c-0.9-1.7-1.9-3.2-2.7-4.7q-1.2-2.1-2.1-3.6c-1.1-2-1.8-3.2-1.8-3.2 0 0 0.9 1 2.4 2.8q1.1 1.4 2.6 3.3c1 1.3 2.3 2.7 3.3 4.3 2.2 3.4 5 7.1 7.3 11.6 1.2 2.2 2.6 4.4 3.6 6.9 1 2.4 2.3 4.8 3.1 7.4 0.9 2.5 1.9 5 2.5 7.6q0.5 2 0.9 3.9 0.4 1.9 0.7 3.8c0.5 2.5 0.5 5 0.6 7.3 0 2.3 0 4.5-0.4 6.5-0.1 2.1-0.7 3.9-1.1 5.5-0.5 1.5-0.9 2.9-1.5 4-0.4 1-0.9 1.8-1.3 2.4-0.3 0.5-0.5 0.7-0.5 0.7z"/>
					<path id="&lt;Path&gt;" class="s3" d="m116.7 157.1c0 0-1.1 0.9-3 2.5-2 1.6-4.7 4-8 6.7-3.3 2.8-7 6.2-10.9 9.8-3.9 3.7-8 7.7-11.8 11.9-3.8 4.2-7.4 8.6-10.3 13q-2.2 3.3-3.9 6.5c-1.1 2.2-2 4.2-2.6 6.3-0.7 2-1.1 3.8-1.4 5.5q-0.1 1.3-0.2 2.4 0 1.1 0.1 2.1c-0.1 1.2 0.2 2.2 0.3 2.9q0.1 1 0.1 1 0 0-0.3-1c-0.2-0.6-0.7-1.6-0.8-2.8q-0.2-1-0.4-2.1 0-1.2-0.1-2.6c0-1.8 0.2-3.8 0.7-6 0.5-2.1 1.2-4.4 2.2-6.8 1-2.3 2.1-4.8 3.6-7.1 1.4-2.3 3-4.8 4.8-7 1.7-2.3 3.6-4.5 5.6-6.7 3.9-4.3 8.1-8.3 12.3-11.8 4.1-3.5 8.3-6.5 11.8-9.1 3.5-2.5 6.6-4.3 8.8-5.7 2.1-1.3 3.4-1.9 3.4-1.9z"/>
				</g>
			</g>
		</g>
	</g>
</svg>