<svg xmlns="http://www.w3.org/2000/svg" xmlns:xlink="http://www.w3.org/1999/xlink" viewBox="0 0 249.23 263.5"><defs><style>.cls-1{fill:#426396;}.cls-1,.cls-10,.cls-11,.cls-12,.cls-13,.cls-14,.cls-15,.cls-16,.cls-17,.cls-18,.cls-19,.cls-2,.cls-20,.cls-21,.cls-22,.cls-23,.cls-24,.cls-25,.cls-26,.cls-27,.cls-28,.cls-29,.cls-3,.cls-30,.cls-31,.cls-32,.cls-33,.cls-34,.cls-35,.cls-36,.cls-4,.cls-5,.cls-6,.cls-7,.cls-8,.cls-9{fill-rule:evenodd;}.cls-2{fill:url(#linear-gradient);}.cls-3{fill:url(#linear-gradient-2);}.cls-4{fill:url(#linear-gradient-3);}.cls-5{fill:url(#linear-gradient-4);}.cls-6{fill:url(#linear-gradient-5);}.cls-7{fill:url(#linear-gradient-6);}.cls-8{fill:#fefefe;}.cls-9{fill:url(#linear-gradient-7);}.cls-10{fill:url(#linear-gradient-8);}.cls-11{fill:url(#linear-gradient-9);}.cls-12{fill:url(#linear-gradient-10);}.cls-13{fill:url(#linear-gradient-11);}.cls-14{fill:url(#linear-gradient-12);}.cls-15{fill:url(#linear-gradient-13);}.cls-16{fill:url(#radial-gradient);}.cls-17{fill:#1c2d59;}.cls-18{fill:url(#linear-gradient-14);}.cls-19{fill:url(#linear-gradient-15);}.cls-20{fill:url(#linear-gradient-16);}.cls-21{fill:url(#linear-gradient-17);}.cls-22{fill:url(#linear-gradient-18);}.cls-23{fill:url(#linear-gradient-19);}.cls-24{fill:url(#linear-gradient-20);}.cls-25{fill:url(#linear-gradient-21);}.cls-26{fill:#05a8ce;}.cls-27{fill:url(#linear-gradient-22);}.cls-28{fill:url(#linear-gradient-23);}.cls-29{fill:url(#linear-gradient-24);}.cls-30{fill:url(#linear-gradient-25);}.cls-31{fill:url(#linear-gradient-26);}.cls-32{fill:#125191;}.cls-33{fill:url(#linear-gradient-27);}.cls-34{fill:#03a3e2;}.cls-35{fill:url(#linear-gradient-28);}.cls-36{fill:url(#linear-gradient-29);}</style><linearGradient id="linear-gradient" x1="10.63" y1="80.25" x2="17.54" y2="82.26" gradientUnits="userSpaceOnUse"><stop offset="0.3" stop-color="#0e3c73"/><stop offset="1" stop-color="#426497"/></linearGradient><linearGradient id="linear-gradient-2" x1="-0.73" y1="110.44" x2="9.7" y2="110.69" xlink:href="#linear-gradient"/><linearGradient id="linear-gradient-3" x1="14.47" y1="121.76" x2="16.99" y2="118.12" xlink:href="#linear-gradient"/><linearGradient id="linear-gradient-4" x1="33.12" y1="130.36" x2="27.84" y2="115.04" xlink:href="#linear-gradient"/><linearGradient id="linear-gradient-5" x1="38.06" y1="114.62" x2="35.17" y2="104.2" xlink:href="#linear-gradient"/><linearGradient id="linear-gradient-6" x1="67.11" y1="128.8" x2="55.18" y2="164.81" gradientUnits="userSpaceOnUse"><stop offset="0" stop-color="#004b7a"/><stop offset="1" stop-color="#033b65"/></linearGradient><linearGradient id="linear-gradient-7" x1="78.42" y1="204.61" x2="100.05" y2="135" gradientUnits="userSpaceOnUse"><stop offset="0" stop-color="#0e3c73"/><stop offset="1" stop-color="#21bece"/></linearGradient><linearGradient id="linear-gradient-8" x1="74.82" y1="11.19" x2="98.16" y2="16.49" xlink:href="#linear-gradient-7"/><linearGradient id="linear-gradient-9" x1="93.42" y1="67.69" x2="114.37" y2="68.49" xlink:href="#linear-gradient-7"/><linearGradient id="linear-gradient-10" x1="96.64" y1="46.01" x2="114.67" y2="44.15" xlink:href="#linear-gradient-7"/><linearGradient id="linear-gradient-11" x1="110.79" y1="74.76" x2="121.96" y2="74.76" gradientUnits="userSpaceOnUse"><stop offset="0.24" stop-color="#0e3c73"/><stop offset="1" stop-color="#21bece"/></linearGradient><linearGradient id="linear-gradient-12" x1="114.25" y1="87.83" x2="122.98" y2="91.37" xlink:href="#linear-gradient-11"/><linearGradient id="linear-gradient-13" x1="73.74" y1="187.28" x2="128.03" y2="112.38" gradientUnits="userSpaceOnUse"><stop offset="0" stop-color="#0e3c73"/><stop offset="0.19" stop-color="#0d4076"/><stop offset="0.39" stop-color="#0c4d81"/><stop offset="0.6" stop-color="#096392"/><stop offset="0.81" stop-color="#0581a9"/><stop offset="1" stop-color="#00a3c4"/></linearGradient><radialGradient id="radial-gradient" cx="118.79" cy="189.05" r="61.4" gradientUnits="userSpaceOnUse"><stop offset="0.24" stop-color="#0e3c73"/><stop offset="0.4" stop-color="#16447b"/><stop offset="0.67" stop-color="#2d5b92"/><stop offset="1" stop-color="#5380b7"/><stop offset="1" stop-color="#5380b7"/></radialGradient><linearGradient id="linear-gradient-14" x1="178.11" y1="64.25" x2="197.53" y2="77.3" gradientUnits="userSpaceOnUse"><stop offset="0" stop-color="#0e3c73"/><stop offset="0.22" stop-color="#16447b"/><stop offset="0.57" stop-color="#2d5b92"/><stop offset="1" stop-color="#5380b7"/><stop offset="1" stop-color="#5380b7"/></linearGradient><linearGradient id="linear-gradient-15" x1="179.59" y1="96.72" x2="189.22" y2="97.86" xlink:href="#linear-gradient-14"/><linearGradient id="linear-gradient-16" x1="170.4" y1="111.45" x2="185.57" y2="112.59" xlink:href="#linear-gradient-14"/><linearGradient id="linear-gradient-17" x1="88.38" y1="173.19" x2="126.93" y2="225.5" gradientUnits="userSpaceOnUse"><stop offset="0" stop-color="#0decf7"/><stop offset="0.5" stop-color="#0f87af"/><stop offset="0.84" stop-color="#114983"/></linearGradient><linearGradient id="linear-gradient-18" x1="110.4" y1="118.57" x2="99.79" y2="122.71" gradientUnits="userSpaceOnUse"><stop offset="0" stop-color="#0decf7"/><stop offset="0.58" stop-color="#108fba"/><stop offset="1" stop-color="#125191"/></linearGradient><linearGradient id="linear-gradient-19" x1="111.99" y1="126.89" x2="116.43" y2="123.04" gradientUnits="userSpaceOnUse"><stop offset="0" stop-color="#125191"/><stop offset="1" stop-color="#0decf7"/></linearGradient><linearGradient id="linear-gradient-20" x1="113.5" y1="132.55" x2="120.9" y2="131.37" xlink:href="#linear-gradient-19"/><linearGradient id="linear-gradient-21" x1="100.19" y1="135.73" x2="113.49" y2="144.71" gradientUnits="userSpaceOnUse"><stop offset="0" stop-color="#125191"/><stop offset="0.15" stop-color="#11619c"/><stop offset="0.44" stop-color="#108bb7"/><stop offset="0.83" stop-color="#0ecee3"/><stop offset="1" stop-color="#0decf7"/></linearGradient><linearGradient id="linear-gradient-22" x1="154.51" y1="221.39" x2="122.95" y2="251.77" gradientUnits="userSpaceOnUse"><stop offset="0" stop-color="#0decf7"/><stop offset="0.12" stop-color="#0de4f2"/><stop offset="0.31" stop-color="#0ecee3"/><stop offset="0.54" stop-color="#0fabcc"/><stop offset="0.81" stop-color="#117aac"/><stop offset="1" stop-color="#125191"/></linearGradient><linearGradient id="linear-gradient-23" x1="190.63" y1="185.68" x2="175.77" y2="194.5" gradientUnits="userSpaceOnUse"><stop offset="0" stop-color="#0decf7"/><stop offset="1" stop-color="#125191"/></linearGradient><linearGradient id="linear-gradient-24" x1="176.03" y1="173.11" x2="175.87" y2="183.07" xlink:href="#linear-gradient-23"/><linearGradient id="linear-gradient-25" x1="145.24" y1="187.68" x2="163.54" y2="187.52" xlink:href="#linear-gradient-23"/><linearGradient id="linear-gradient-26" x1="140.09" y1="205.78" x2="144.99" y2="196.96" xlink:href="#linear-gradient-23"/><linearGradient id="linear-gradient-27" x1="209.78" y1="226.79" x2="210.07" y2="243.31" gradientUnits="userSpaceOnUse"><stop offset="0" stop-color="#125191"/><stop offset="0.21" stop-color="#124c89"/><stop offset="0.54" stop-color="#124073"/><stop offset="0.95" stop-color="#122c50"/><stop offset="1" stop-color="#12294b"/></linearGradient><linearGradient id="linear-gradient-28" x1="219.77" y1="239.99" x2="227.43" y2="236.28" gradientUnits="userSpaceOnUse"><stop offset="0" stop-color="#125191"/><stop offset="0.19" stop-color="#115999"/><stop offset="0.49" stop-color="#0d6fae"/><stop offset="0.85" stop-color="#0692d1"/><stop offset="1" stop-color="#03a3e2"/></linearGradient><linearGradient id="linear-gradient-29" x1="216.03" y1="259.31" x2="231.12" y2="252.93" xlink:href="#linear-gradient-28"/></defs><title>water_god_dungeon</title><g id="Layer_2" data-name="Layer 2"><g id="Layer_1-2" data-name="Layer 1"><path class="cls-1" d="M93.59,123.38,52.31,171.22c-22.43,7.48-32.92-15.59-10.71-35.48,8.52-7.63,21.26-17.83,18.37-30.8-2.67-12-18.53-17.33-23.84-6.08-1.37,2.89-.73,6.27,3.55,5.33,1.23,10.61-8.51,11.49-8.19.48.21-7.47-4.95,1.41-6,3.39-1.53,2.74.13,17.25,5.4,12.22,8.83-8.44,11.48,1.7,6.6,6.46C28.67,135.27,20.9,126.41,19,119a3.41,3.41,0,0,0,.1,5.47c-2.31.85-8-3.47-5.58-9.62-7.16,4.22-.33,8.16-.33,10,0,4.17-6.51,4.16-9.49,1.14-5.69-5.78-7-21.73,13-35.36,6.07-4.14,2.2-4.45-1.87-2.89-6.61,2.53-4.83-4.18-1.59-6.5C50.07,54.81,95.8,82.52,93.59,123.38Z"/><path class="cls-2" d="M22.13,75.92l-3.3,10.93a10.84,10.84,0,0,0-4,.86c-6.61,2.53-4.83-4.18-1.59-6.5A59.09,59.09,0,0,1,22.13,75.92Z"/><path class="cls-3" d="M11.93,115.93l1-22.59c-16.1,13-14.63,27.22-9.31,32.62,3,3,9.49,3,9.49-1.14C13.15,123.17,7.45,119.73,11.93,115.93Z"/><path class="cls-4" d="M13.12,116l1.36-3.55,5,.51L18.93,119a3.4,3.4,0,0,0,.13,5.44C16.89,125.27,11.7,121.51,13.12,116Z"/><path class="cls-5" d="M24.9,112,18.69,113l.46,6.61c2.2,7.26,9.77,15.37,18.29,7.09,4.88-4.76,2.23-14.9-6.6-6.46C26.93,124,25,117,24.9,112Z"/><path class="cls-6" d="M36.73,97.74,31.1,102a4.83,4.83,0,0,1,.39,2.63c-.32,11,9.42,10.13,8.19-.48-4.28.94-4.92-2.44-3.55-5.33A11.88,11.88,0,0,1,36.73,97.74Z"/><path class="cls-7" d="M79.77,86.06c1.27,4.64,5.51,10.49,1,9.41-1.73.27-6.09-1.55-3.8,3,2.43,4.84-2.28,7.79-5-.87-1-3-2.51-6.69-5.6-7.67-9-2.87.13,10.41,1,12.6,2.79,7.06.37,11.82-1.78,5.57C63.83,106.4,61.72,117,60,120c-12.62,21.33-24.11,16.55-28.64,46.09,3.44,5.78,11,8.48,21,5.16l41.28-47.84A49.29,49.29,0,0,0,79.77,86.06Z"/><path class="cls-8" d="M45.7,134C38.18,140.17,28.78,149.5,31,161.8,32.51,150,38.1,141.24,45.7,134Z"/><path class="cls-9" d="M51.78,210.78C27.07,167.67,48.19,123,95.06,106c10.32-3.74,16.33-4.14,26.68-9.68,3.54-3.77-1.64-5.6-5.52-2.74-2.3-4.92,2.39-11.13,8.71-5.89,7.77,6.45,3.32-12.08-5.65-9.13-5.79,1.9-5.72-5.17-2-5.55.74-.08,4.3-1.21,4.63-3.55.9-6.47-18.76-5.36-16.9,1.41,2.92,10.59-11,8.6-11.15-.62-.14-8,6.93-11.9,11.58-12.14,7.82-.42,20,6.48,19.37-4.37-.45-8.14-15.3-7.79-22-3.05-.49-3.54-5.52-10.5,6.06-11.31,6.48-.11,9.5.65,9.42-.09-.7-7.12-14.16-9.55-24.22-10.08C86.86,28.87,78.47,31.3,77.7,21,76.85,9.66,88.91-7.69,102.32,3.75c4.38,3.74,2.9,8.61-4.37,4.06-5.74-3.6-9.09-.74-8.67,3.53,1.13,11.34,15,9,23,10.6,68.5,13.49,56.34,92.16,25,128-13.19,15.08-57.9,66.2-2.93,64.72l-18.83,9.18L63.38,218Z"/><path class="cls-10" d="M104.58,21.14c-1.38,1.94-2.26,4.91-2.06,9a80.41,80.41,0,0,0-8.47-.88C86.86,28.87,78.47,31.3,77.7,21,76.85,9.66,88.91-7.69,102.32,3.75c4.38,3.74,2.9,8.61-4.37,4.06-5.74-3.6-9.09-.74-8.67,3.53C90.1,19.51,97.49,20.58,104.58,21.14Z"/><path class="cls-11" d="M120.8,59.85l-1.71,6.06c-5.18-1.9-15.43,0-14.06,5,2.92,10.59-11,8.6-11.15-.62-.14-8,6.93-11.9,11.58-12.14C110.26,57.88,116.69,60.38,120.8,59.85Z"/><path class="cls-12" d="M115.75,39.59l4.17,8.54c-5-1.7-12.78-.47-17.13,2.59-.49-3.54-5.52-10.5,6.06-11.31C111.91,39.36,114.2,39.5,115.75,39.59Z"/><path class="cls-13" d="M121.68,70.27c4.27,1.75,5.4,5.1,2.76,9a5.86,5.86,0,0,0-5.16-.66c-5.79,1.9-5.72-5.17-2-5.55C118,73,120.8,72.08,121.68,70.27Z"/><path class="cls-14" d="M128.08,89c1.2,3.76-.71,5-5.21,5.48.55-2.43-3.49-3.21-6.65-.88-2.3-4.92,2.39-11.13,8.71-5.89C126.4,88.94,127.43,89.27,128.08,89Z"/><path class="cls-15" d="M162.39,81.15c-6.25,4.62-4.8,30.79-13.84,20.79-7.29-8.07-9.33,2.87-9.33,9.21,0,4-3.16,5.47-6.84,2.1-6.48-5.9-16-9.63-24.58-6.45C97.42,110.63,95,124.15,92.27,134.31c-6,22.84-7.34.13-11,8.49-1.07,2.43-3.72,11-7.86,8.69-1.36-.77.3-4.34-4.7-3-10.35,2.73-31.61,40.09-15.83,44.67,5.54,1.61,31.87-3.69,35.32-5.27,7.35-3.35,9.44-6.39,18.19-8.53l1.52-.38a34.7,34.7,0,0,0,9.9-4.17c6.67-10.15,15-19.66,19.54-24.87C152.26,132.84,162.84,106,162.39,81.15Z"/><path class="cls-16" d="M92.79,183.23C111.05,156,129.91,144,146.35,138.5c12.47-4.14,28.14-3.71,39.08-9.67,15.81-8.6-5.9-22.3-7.18-10-8.76.25-10.26-21.36,14.49-10.19,3.27-6.1-2.78-11.45-8.53-7.73-6.61-1.59-3.28-10.63,3.79-6.8,2,1.09,3.72,2.35,5.77-.25,6.44-10.85-1.65-26-7.94-23.13-3,1.38-2.72,4.23,1.16,4.08.77,1.2,1.9,5.39-4,4.28-4.55-.86-6.56-6.47-3.87-10.76,5-8,18.61-7.77,24,1.67,5.67,9.83,6.07,27,7,35,1.71,4.87,7.29.25,5.59-6,10.69-1.35,7,11.63,1.57,19.87-18.9,28.48-35.72,33.32-64,47.53-33.55,16.84-43,28.72-36.45,52.75-9.18-2-23-6.84-32.14-8.83C82.82,200.33,94.65,193.28,92.79,183.23Z"/><path class="cls-17" d="M116,156.19c-9.4,21.7-11.38,36.3,3.37,34.87-4.81,7.31-5.62,15.41-3.17,25.84l-.08.46-13.66-2c-2.91-.87-5.84-1.75-8.66-2.56l-4.79-16.49c2.38-4.09,4.63-8.22,3.74-13A135.87,135.87,0,0,1,116,156.19Z"/><path class="cls-18" d="M195.69,89,208,85.13c-.95-5.52-2.4-11-4.8-15.14-5.43-9.44-19-9.68-24-1.67-2.69,4.29-.68,9.9,3.87,10.76,5.88,1.11,4.75-3.08,4-4.28-3.88.15-4.17-2.7-1.16-4.08C191.22,68.26,197.93,79,195.69,89Z"/><path class="cls-19" d="M193.43,94.25l3.51,4.62-4,3.63c-1.49-2.71-5.19-3.92-8.77-1.6-6.61-1.59-3.28-10.63,3.79-6.8C189.9,95.13,191.53,96.3,193.43,94.25Z"/><path class="cls-20" d="M192.87,108.37l3,5.56-5,5.91c-1.71-5.79-11.82-9.29-12.68-1-8.76.25-10.26-21.36,14.49-10.19Z"/><path class="cls-21" d="M107.49,127c-7.33,2.7-9.18-8.06-1.46-13.84,12-6.94,26.28,2.69,25.74,15.87-.68,16.24-20.54,36.2-26.9,46.92-9.78,16.47-10.5,35.12,21.56,33.75l-2.55,17.48c-24.78,19.12-74.27,25.56-81.75-14.08-4.93-26.13,27-50,56.28-57.65,3.59-.93,20.63-6,12.36-11.69a8.29,8.29,0,0,0-6.92,2.55c-2.93.26-4.37-1.34-4.37-4.73a9.34,9.34,0,0,1,12.93-6.9c3,1.23,6.5,6.23,8.74,6.14,1.15-.05,2.21-3.79,1.09-6.28s-1.82-1.88-2.65-1.42c-2.31,1.26-5.17-3.11-1.17-3.93,2.14-.27,3.37-1,3.37-2,0-1.31-2.08-3.21-3.78-2.2s-3.1,3.68-5.24.62c-1.46-3.63,1.21-4.49,3.1-5.15-1.73-6-7.8-2.57-7.5.08C108.61,122.52,111.09,124.53,107.49,127Z"/><path class="cls-22" d="M114.41,117.93l.68-7.06a16.7,16.7,0,0,0-9.06,2.31c-7.72,5.78-5.87,16.54,1.46,13.84,3.6-2.49,1.12-4.5.88-6.48S112,115.81,114.41,117.93Z"/><path class="cls-23" d="M115.48,119.42c3.57.5,4.35,2.21,4.08,5.35A2,2,0,0,0,118,125c-1.7,1-3.1,3.68-5.24.62-1.46-3.63,1.21-4.49,3.1-5.15A6.63,6.63,0,0,0,115.48,119.42Z"/><path class="cls-24" d="M121.54,127.92c2.9,2.15,2.44,3.85.67,6.58-1.06-2.32-1.8-1.81-2.62-1.36-2.31,1.26-5.17-3.11-1.17-3.93A4.55,4.55,0,0,0,121.54,127.92Z"/><path class="cls-25" d="M120.44,140.72l-1,6L112.81,148c.52-1.31.06-2.72-2-4.17a8.29,8.29,0,0,0-6.92,2.55c-2.93.26-4.37-1.34-4.37-4.73a9.34,9.34,0,0,1,12.93-6.9C115.14,135.8,118.21,140,120.44,140.72Z"/><path class="cls-26" d="M56.51,236.1c26.27,9.06,47-.68,66.7-14.16l.89,3.74-.22,1.52C105.93,241.05,75,248.24,56.51,236.1Z"/><path class="cls-27" d="M185.55,186.87c-8.69-4.63-18,11.17-.24,13.19,13,1.48,21.32-14.66,15.2-27-5.79-11.72-23.25-15.68-35.14-13.74-34.29,5.6-63.52,24.4-55.75,63.16,6.64,33.18,45.93,53.68,73.35,18.21,5-6.46,9.66-13.57,15.4-15.66,10.29-3.77,12.81,3.07,8.1,6-10.08-2.93-9.51,9.55.26,8.93,11.47-.73,15.75-9.84,13-17.41-3.3-9.13-11.64-10.53-20-8.11-10.41,3-23.49,10.86-34.51,14.19-19.88,6-31.68-9.7-22.8-22.14.94-1.3,4.78-5.44,4.71-7.64-.2-5.89-6.44-3.23-9.05,5.14-2.18-8.11,3.23-12.76,9.89-13.64,3.7-.5,5.47,1.12,8.15,1.63,6,1.15,8.52-3.8,4.58-8-4.86-4.47-7.63,1.22-11.44,1.82-3.09.08-4.46-1.27-3.38-4.68,5.76-7.56,9.74-11.85,26.26-8,2.35,2.41,2.72,3.93,2.32,5-2.13,5.84,2.85,5.93,6,3.54,2.28-3.7-1.89-3.42-2.34-7.54C180.43,172,193.72,177.78,185.55,186.87Z"/><path class="cls-28" d="M184.05,175l12.49-7.41a19.94,19.94,0,0,1,4,5.41c6.12,12.36-2.19,28.5-15.2,27-17.74-2-8.45-17.82.24-13.19C190.47,181.39,187.61,177.12,184.05,175Z"/><path class="cls-29" d="M170.8,172.75l3.3-4.08,5.39,5a2.07,2.07,0,0,0-1.35.43c.45,4.12,4.62,3.84,2.34,7.54-3.15,2.39-8.13,2.3-6-3.54.4-1.11,0-2.63-2.32-5Z"/><path class="cls-30" d="M145.76,181.59l-.41,0-7,6.87,1.92,5.31a13.28,13.28,0,0,1,7.68-3.48c3.7-.5,5.47,1.12,8.15,1.63,6,1.15,8.52-3.8,4.58-8-4.86-4.47-7.63,1.22-11.44,1.82C146.34,185.85,145,184.63,145.76,181.59Z"/><path class="cls-31" d="M137.88,203.07l-.75,3.73,3.09,3.94a17,17,0,0,1,2.22-4.26c.94-1.3,4.78-5.44,4.71-7.64-.2-5.89-6.44-3.23-9.05,5.14C138,203.67,138,203.37,137.88,203.07Z"/><path class="cls-32" d="M143.43,224.87c1.29,2.4,4.88,5,2.42,5.62-.93.24-5.67-4.47-5.9-.27,0,3.72,2.29,6.27,1.59,8-2.37,5.88-12.83-16.09-18.35-12.11-1.4,1-1.38,4.53-.28,7.69,3.19,9.11,11.44,14.79,20.27,17.81,6.15,2.1,13.11,2.57,8.23,4.17-2.69.88-7.87.84-9.45,2.51,13.29,3.14,28.4-1.33,41-17.63,5-6.46,9.66-13.57,15.4-15.66,10.29-3.77,12.81,3.07,8.1,6-10.08-2.93-9.51,9.55.26,8.93,11.47-.73,15.75-9.84,13-17.41-3.3-9.13-11.64-10.53-20-8.11-10.41,3-23.49,10.86-34.51,14.19C155.58,231.54,147.83,229.33,143.43,224.87Z"/><path class="cls-33" d="M202.17,224l5-10.63c5.52.16,10.28,2.77,12.59,9.15,2.73,7.57-1.55,16.68-13,17.41-9.77.62-10.34-11.86-.26-8.93C210.53,228.48,209.21,223.05,202.17,224Z"/><path class="cls-34" d="M155.58,229.91c11.59.52,20.7-3,31-7.43,9.82-4.24,42.34-9.81,40.47,8.5-.17,1.74-1.69,2.35-4.51,3.66-2,1-4.24,3.2-2.28,5.6,1.72,2.11,4,1.65,5.69.71,6.13-3.46,7.35,2.37,4.71,5.52-2.91,3.46-6.3.34-9.69-.55-8.06.89-5.56,14.07,4.64,16.92,13,3.64,24.62-8.16,23.58-25.43-.62-10.54-6.39-20.1-20.47-26.39-10.74-4.81-25.26-5-41.91,3C176.15,219.1,170,226.27,155.58,229.91Z"/><path class="cls-35" d="M227.06,230.55l6.22,2.23L231,240.47c-1-.8-2.61-.9-5,.48-1.67.94-4,1.4-5.69-.71-2-2.4.24-4.65,2.28-5.6,2.82-1.31,4.34-1.92,4.51-3.66C227,230.83,227.05,230.69,227.06,230.55Z"/><path class="cls-36" d="M231.87,243.8l15.46,6.56c-3.7,9.7-12.34,15.11-21.75,12.48-10.2-2.85-12.7-16-4.64-16.92,3.39.89,6.78,4,9.69.55A5.69,5.69,0,0,0,231.87,243.8Z"/><path class="cls-8" d="M42.48,173.92C46.44,147.45,56.11,125,90,109,65.16,123.65,49.64,145.11,42.48,173.92Z"/><path class="cls-8" d="M46.55,223.23c-8.28-26.44,4.76-44.23,34.84-60.45C59.35,178.24,42.26,190.65,46.55,223.23Z"/><path class="cls-8" d="M113.31,227.25c-8.94-29.74,3.61-51.47,34.84-62C123.74,177.33,107.34,192.25,113.31,227.25Z"/><path class="cls-8" d="M133.54,145.7c16.59-11.45,35.12-7.8,52.28-15.73C174.13,138.47,156.34,134.55,133.54,145.7Z"/><path class="cls-8" d="M18.15,79.16C30.36,72.34,43.42,69,61,74.66,47,71,32.47,72.2,18.15,79.16Z"/><path class="cls-8" d="M88.8,2.11c-7.12,2.71-11.25,14-9.84,20.73,0,1.22,2.51,2.73,2.06-1.34a21,21,0,0,1,.56-8.13c.94-3,2.57-6.4,5.09-8.54,1.09-.94,3.14-1.62,3.66-2.29S90.67,1.4,88.8,2.11Z"/><path class="cls-8" d="M98.54,62.21a10.25,10.25,0,0,0-3.19,4.39,2.7,2.7,0,0,0,0,1.68c.57,1.53,2.11.76,2.3-.39.15-.88-.29-1.92.11-2.57a8.65,8.65,0,0,1,1.87-2C101.14,62,100.81,60.26,98.54,62.21Z"/><path class="cls-8" d="M101.92,122a2.71,2.71,0,0,0,.17,1.68c.74,1.44,2.18.5,2.24-.67a4.36,4.36,0,0,1-.42-2.49c.17-3.44,1.74-3.21,2.7-5.2.44-.91.13-1.57-.82-1C103.19,116.08,102.42,119.11,101.92,122Z"/><path class="cls-8" d="M107.17,134.59c.92.08,1.2.67,1.09,1.24-.46,2.21-3.52,0-5.75,3.81-1.21,2.09-.29,3.44-.83,4.3s-1.52-.35-1.21-2.31a8.72,8.72,0,0,1,3.25-5.6C104.43,135.51,106.29,134.51,107.17,134.59Z"/><path class="cls-8" d="M182.48,66.35c.87-.29,1.38.09,1.51.63.52,2.07-3.2,1.36-3.61,5.51-.22,2.26,1.19,3.05,1.05,4s-1.52.3-2.07-1.49a7.72,7.72,0,0,1,.6-6A7.28,7.28,0,0,1,182.48,66.35Z"/><path class="cls-8" d="M116.31,74.23c-.81.62-1.55,2.32-.49,3.18s.69-1.39.8-1.77C116.66,75.49,118.34,72.66,116.31,74.23Z"/><path class="cls-8" d="M116.42,90.19c0-1.43,1-3.76,2.63-3.44,1.11.21.49,1-.25,1.52a4,4,0,0,0-1.56,2.78C117,91.84,116.48,92,116.42,90.19Z"/><path class="cls-8" d="M173.45,112c-.06-1.75,1.2-4.63,3.23-4.24,1.37.26.61,1.18-.3,1.87-1.34,1-1.5,1.86-1.92,3.44C174.2,114.05,173.52,114.27,173.45,112Z"/><path class="cls-8" d="M176.82,193.2c-.08-2.35,1.61-6.22,4.34-5.69,1.84.35.82,1.59-.4,2.51-1.8,1.37-2,2.5-2.59,4.62C177.83,195.94,176.92,196.23,176.82,193.2Z"/><path class="cls-8" d="M217.87,253.39c-.51-2.31.43-6.42,3.21-6.41,1.87,0,1.1,1.41.07,2.54-1.51,1.68-1.52,2.83-1.68,5C219.37,255.88,218.53,256.34,217.87,253.39Z"/><path class="cls-8" d="M200.48,236c-.53-1.7.44-4.73,3.33-4.72,1.94,0,1.13,1,.07,1.87-1.57,1.24-1.57,2.09-1.74,3.69C202,237.85,201.17,238.19,200.48,236Z"/><path class="cls-8" d="M220.64,239.08a2.9,2.9,0,0,1,2.9-3.71c1.7,0,1,.81.07,1.47-1.38,1-1.38,1.64-1.53,2.9C222,240.52,221.23,240.78,220.64,239.08Z"/><path class="cls-8" d="M154.27,187.15c-.06-1.66,1.13-4.38,3-4,1.3.24.58,1.12-.28,1.77-1.27,1-1.42,1.75-1.82,3.24C155,189.07,154.34,189.27,154.27,187.15Z"/><path class="cls-8" d="M142.14,198.71c.4-1.21,2-2.84,3.27-2.07.87.53.12,1-.67,1.2a3.64,3.64,0,0,0-2.18,1.85C142.14,200.29,141.62,200.27,142.14,198.71Z"/><path class="cls-8" d="M175,181.35c-.51-1-.43-2.85,1-3.08,1-.15.73.53.3,1.11a2.56,2.56,0,0,0-.39,2.34C176.07,182.32,175.66,182.59,175,181.35Z"/><path class="cls-8" d="M181.68,97.17c-.18-1.31.54-3.46,2.08-3.17,1,.2.55.89-.08,1.4A3.32,3.32,0,0,0,182.51,98C182.4,98.68,181.91,98.85,181.68,97.17Z"/><path class="cls-8" d="M11.06,85.55c.16-1.41,1.52-3.56,3.1-3,1.07.38.35,1-.46,1.47a4.06,4.06,0,0,0-2,2.52C11.41,87.28,10.85,87.37,11.06,85.55Z"/><path class="cls-8" d="M14.27,120.45c-.74-1.22-1-3.75.6-4.29,1.08-.35.9.6.53,1.45a4.11,4.11,0,0,0,0,3.19C15.61,121.59,15.21,122,14.27,120.45Z"/><path class="cls-8" d="M32.79,107c-.25,1.4.43,3.85,2.11,3.77,1.13,0,.62-.88,0-1.54a4,4,0,0,1-1.16-3C33.62,105.45,33.1,105.2,32.79,107Z"/><path class="cls-8" d="M113.87,122c-.78.61-1.58,2.19-.68,2.94.61.5.73-.16.71-.81a2.81,2.81,0,0,1,.8-2.08C115,121.57,114.88,121.2,113.87,122Z"/><path class="cls-8" d="M117.62,130c-.66.48-1.13,1.72-.07,2.31.71.39.7-.13.54-.63-.24-.75,0-1.05.37-1.64C118.7,129.68,118.47,129.39,117.62,130Z"/><path class="cls-8" d="M35.57,118.11c-1.41.18-3.54,1.57-3,3.15.39,1.06,1,.33,1.46-.49a4,4,0,0,1,2.49-2C37.3,118.44,37.38,117.87,35.57,118.11Z"/><path class="cls-8" d="M103.09,47.51a9.07,9.07,0,0,1-.15-4.79,2.44,2.44,0,0,1,.81-1.25c1.17-.83,1.92.49,1.49,1.43-.33.71-1.17,1.26-1.2,1.93a7.78,7.78,0,0,0,.35,2.41C104.85,49,103.77,50.06,103.09,47.51Z"/><path class="cls-8" d="M6.42,101.84c-2.22,3.28-4,6.47-4.73,10.28a19,19,0,0,0,1.49,10.66c.66,1.34,1.63.65,1.16-1.27-1.83-7.54-1.79-12.2,4.13-17.93C11.58,100.56,8.76,98.38,6.42,101.84Z"/></g></g></svg>