<svg version="1.2" baseProfile="tiny-ps" xmlns="http://www.w3.org/2000/svg" viewBox="0 0 512 512" width="512" height="512">
	<title>2_iridan (2)-svg</title>
	<style>
		tspan { white-space:pre }
		.s0 { fill: #3198c9 } 
		.s1 { fill: #8bd5ee } 
		.s2 { fill: #61bfe5 } 
		.s3 { fill: #1e6796 } 
		.s4 { fill: #b0c7d5 } 
		.s5 { fill: #78d1eb } 
		.s6 { fill: #91d8ee } 
		.s7 { fill: #cadded } 
		.s8 { fill: #ffffff } 
		.s9 { fill: #fac600 } 
		.s10 { fill: #fea613 } 
		.s11 { fill: #fff364 } 
		.s12 { fill: #e2772c } 
		.s13 { fill: #f9c502 } 
	</style>
	<g id="Layer_6_xA0_Изображение_1_">
		<path id="Layer" class="s0" d="m255.59 507.19c-134.57 0-243.35-108.78-243.35-243.35c0-134.57 108.78-243.35 243.35-243.35c134.57 0 243.35 108.78 243.35 243.35c0 134.57-108.78 243.35-243.35 243.35z" />
	</g>
	<g id="Group_2_copy_xA0_Изображение_1_">
		<path id="Layer" fill-rule="evenodd" class="s1" d="m230.8 226.79c0-15.55 0-31.15 0-47.15c-6.01 0-11.4 0-16.74 0c-0.74 0-1.53 0.11-2.27 0c-6.3-0.85-6.92-1.42-7.04-7.83c-0.17-8.28-0.06-16.57 0-24.85c0.06-3.57 2.44-5.79 6.3-5.79c8.68-0.06 17.36 0 26.1 0c0.91 0 1.87 0 3.23 0c0-5.16 0.06-10.1 0-15.09c-0.17-16.4-0.4-32.85-0.4-49.25c0-2.78-1.36-4.6-2.67-6.52c-7.49-10.61-6.01-24.45 3.63-33.08c3.23-2.89 6.98-4.82 11.29-5.62c0.85-0.17 1.87-0.23 2.67-0.62c1.3 0 2.55-0.11 3.91-0.11c2.72 0.91 5.39 1.25 8.06 2.33c12.03 4.94 17.99 19.23 13.11 31.32c-1.3 3.23-2.95 6.35-4.31 9.59c-0.34 0.85-0.51 1.82-0.51 2.67c0 20.43 0.06 40.85 0 61.28c0 2.33 0.62 3.12 3.06 3.12c9.08-0.11 18.16-0.06 27.23-0.06c5.56 0 7.72 2.16 7.77 7.72c0.06 7.49 0.06 14.92 0 22.41c0 4.43-3.57 8-8.06 8.11c-5.62 0.17-11.29 0.23-16.91 0.4c-0.85 0-1.65 0.11-2.61 0.17c-0.06 0.96-0.17 1.82-0.17 2.67c0 13.9-0.06 27.8 0 41.7c0.11 20.77 0.4 41.53 0.45 62.3c0.06 28.77 0 57.53 0 86.3c0 5.67-0.23 11.35 0.06 16.96c0.23 4.65-2.04 8.4-3.8 12.31c-5.56 12.2-11.35 24.28-17.02 36.43c-1.19 2.55-2.67 4.54-5.84 4.48c-3.18-0.11-3.97-2.44-5.28-4.71c-3.91-7.09-8.11-14.01-12.2-20.99c-3.69-6.35-7.32-12.77-10.95-19.18c0-0.85 0.06-1.7 0.06-2.55c-0.17-56.34-0.17-112.57-0.17-168.85zm44.82 28.37c0.17-0.91 0.57-1.76 0.57-2.67c0.06-16.11 0-32.28 0-48.4c0-0.4-0.06-0.74-0.11-1.13c-0.11 0-0.23 0-0.34 0.06c-0.06 0.34-0.17 0.96-0.17 1.3c-0.17-0.34-0.51-0.68-0.51-1.02c-0.06-10.33 0-20.77 0.06-31.09c0-1.99 1.02-2.84 3.29-2.84c7.38 0.17 14.75 0.06 22.13 0.06c1.48 0 2.84 0.17 2.84-1.93c0-4.71-0.06-9.65-0.06-14.35c0-1.59-0.57-1.99-2.27-1.87c-1.87 0.17-3.69-0.06-5.56-0.06c-8.74 0.06-17.53-0.06-26.27 0.06c-2.55 0.06-3.18-0.91-3.18-3.29c0.06-26.1 0.06-52.2 0.06-78.24c0-1.19 0.4-2.38 0.85-3.46c1.08-2.38 2.55-4.54 3.52-6.98c2.04-5.16-0.62-12.31-5.39-15.15c-6.64-3.97-14.3-3.12-18.44 2.04c-4.54 5.62-4.77 11.63-0.68 17.65c0.28 0.45 1.3 0.4 1.93 0.62c0 30.81 0 61.68 0 92.48c-0.17-0.79-0.62-1.59-0.51-2.38c0.4-2.78-0.85-3.46-3.46-3.4c-8.57 0.17-17.14 0.06-25.7 0.06c-1.02 0-1.99 0.11-2.95 0.17c-0.28 1.59-0.68 2.89-0.68 4.2c0 4.43-1.19 8.96 0.91 13.28c5.22 0.17 10.44 0.34 15.66 0.45c0.23 0 0.51-0.68 0.79-1.02c1.76 0.4 3.52 1.08 5.28 1.02c2.44 0 3.29 0.74 3.29 3.23c0.11 40.68 0.4 81.42 0.51 122.1c0.11 32.06 0 64.06 0.06 96.12c0 1.19 0.06 2.5 0.62 3.52c4.65 8.62 9.36 17.19 14.13 25.76c1.08 1.93 2.33 3.69 3.69 5.79c4.65-9.25 8.96-18.16 13.56-26.95c1.87-3.63 2.61-7.38 2.61-11.4c-0.06-44.03-0.06-88.17-0.06-132.32z" />
		<path id="Layer" fill-rule="evenodd" class="s1" d="m227.96 396.04c1.19 4.14 2.21 8.34 3.63 12.37c1.13 3.29 2.95 6.35 4.26 9.59c1.3 3.29 0.62 4.14-2.78 4.14c-20.43 0-40.85 0-61.28 0c-3.86 0-4.54-0.74-4.6-4.65c0-3.86 0-7.77 0-11.63c0-1.93 0.68-3.29 2.5-4.03c11.92-4.77 15.6-15.21 17.87-26.38c1.65-8.06-0.28-15.49-5.28-22.13c-1.25-1.65-2.84-2.21-4.88-2.21c-11.52 0.06-23.09 0.11-34.61-0.06c-2.84-0.06-5.79-0.62-8.57-1.36c-3.63-0.96-7.21-2.27-10.72-3.52c-3.57-1.25-5.05-3.46-5.05-7.26c0-5.28 0-10.61 0-15.89c0-0.91 0-1.82 0-2.72c-41.31-1.53-62.47-20.43-74.1-48.85c1.53-0.28 2.95-0.68 4.37-0.74c11.12-0.28 22.3-0.4 33.42-0.74c11.8-0.34 23.55-0.79 34.95-1.25c4.31-10.89 8.51-21.56 12.71-32.28c0.74-1.93 1.36-3.91 2.1-5.84c1.02-2.78 3.06-3.97 5.96-3.57c1.48 0.23 3.01 0.4 4.48 0.4c28.54 0.06 57.08 0.06 85.68 0.06c0 28.88-0.06 57.82 0 86.7c-0.11 27.35-0.06 54.58-0.06 81.87zm-10.21-158.7c-0.85-0.11-1.3-0.23-1.76-0.23c-24.68 0-49.31 0-73.99-0.06c-1.59 0-2.27 0.62-2.84 2.1c-3.4 8.79-6.98 17.59-10.38 26.38c-0.4 1.02-0.62 2.21-0.68 3.29c-0.06 7.83 0 15.72 0.06 23.55c0 14.07 0 28.2 0.06 42.27c0 1.08 0.45 2.89 1.13 3.12c3.8 1.3 7.72 3.06 11.63 3.18c11.92 0.4 23.83 0.11 35.75 0.06c5.45 0 9.87 1.99 13.28 6.3c5.05 6.41 8 13.73 7.72 21.73c-0.57 16.4-5.16 31.09-20.6 40.11c-0.79 0.45-1.13 1.76-1.93 3.06c15.83 0 30.81 0 46.13 0c-0.45-1.25-0.74-2.27-1.13-3.18c-1.87-3.91-2.5-7.94-2.5-12.31c0.11-51.75 0.06-103.43 0.06-155.18c0-1.3 0-2.61 0-4.2zm-99.29 41.19c-3.74 0.17-7.09 0.4-10.44 0.51c-11.92 0.28-23.77 0.51-35.69 0.79c-2.27 0.06-4.54 0.23-6.75 0.51c-1.99 0.23-2.61 1.08-1.3 3.01c6.58 9.99 14.35 18.38 26.33 22.01c7.89 2.38 15.49 5.39 23.94 5.11c3.91-0.11 3.91-0.06 3.91-3.86c0-8.23 0-16.45 0-24.62c0-1.02 0-2.04 0-3.46z" />
		<path id="Layer" fill-rule="evenodd" class="s1" d="m416.84 232.63c0 23.09 0 46.13 0 69.22c-5.05 3.29-9.93 6.87-15.15 9.76c-21.33 11.74-42.67 23.49-64.34 34.67c-6.92 3.57-9.7 9.08-11.69 15.72c-1.87 6.18-2.27 12.48-1.3 18.89c1.25 8.45 8.51 16.11 16.91 17.53c5.22 0.91 6.87 2.84 6.87 8.23c0 3.97-0.06 7.94 0 11.92c0.06 2.33-0.91 3.57-3.29 3.63c-22.13 0-44.26 0-66.33 0c-0.23 0-0.51-0.17-1.02-0.34c2.78-6.75 5.39-13.5 8.34-20.14c1.65-3.63 2.27-7.32 2.27-11.23c-0.06-36.09-0.06-72.23 0-108.31c0-14.47 0.23-28.94 0.28-43.41c0-3.74 0-7.43 0-11.23c1.99 0 3.91 0 5.9 0c38.07 0 76.2 0.06 114.27-0.06c4.2-0.11 6.87 1.3 8.28 5.16zm-113.48 4.6c-5.79-0.06-5.16-0.91-5.11 5.11c0 0.4 0.06 0.74 0.11 1.13c-0.06 1.53-0.17 3.01-0.17 4.54c0 49.19 0 98.33-0.11 147.52c0 2.61-0.91 5.33-1.82 7.83c-1.13 3.01-2.78 5.9-4.26 9.02c16 0 31.43 0 46.81 0c1.08-3.12-0.06-4.31-3.01-5.05c-2.78-0.68-5.67-1.87-7.89-3.69c-8.23-6.52-13.05-15.04-13.84-25.65c-0.74-9.87 2.04-18.95 5.5-28.09c1.76-4.71 4.54-7.49 8.68-9.76c25.48-13.67 50.89-27.52 76.37-41.19c1.82-0.96 2.5-2.04 2.5-4.14c-0.11-18.27-0.06-36.48-0.06-54.75c0-0.91-0.11-1.82-0.17-2.89c-4.6 0-8.91 0-13.28 0c-2.5 0-5.05-0.11-7.55-0.06c-2.44 0.06-4.94 0.34-7.38 0.51c-5.05-0.17-10.16-0.4-15.21-0.4c-19.97 0-40.06 0-60.14 0z" />
		<path id="Layer" class="s2" d="m215.48 169.09c-2.1-4.31-0.91-8.85-0.91-13.28c0-1.3 0.51-3.12 0.79-4.71c0.91-0.06 1.87-0.06 2.89-0.06c8.57 0 17.19 0.17 25.7 0c2.67-0.06 3.74 0.96 3.35 3.74c-0.11 0.74 0.34 1.59 0.51 2.38c1.87 1.59 3.06 1.42 3.69-0.68c0.28-0.96-3.86-1.7-3.86-2.72c0-28.31 0.17-49.48 0.17-77.79c0-0.68 0-3.06 0-3.74c-0.06-1.99 0-1.93-0.06-3.06c-0.06-1.02-0.74-4.37-1.65-4.88c-0.11-0.06-0.91-1.3-0.96-1.36c-3.23-4.54-3.29-11.12 1.25-16.74c4.2-5.16 12.26-6.18 18.89-2.21c4.77 2.84 7.38 10.5 5.33 15.6c-0.96 2.38-2.61 4.54-3.69 6.87c-0.51 1.08-0.85 2.33-0.85 3.46c-0.06 26.1 0.34 52.2 0.28 78.3c0 2.38 0.57 2.78 3.12 2.72c8.74-0.11 17.53 0.11 26.27 0.06c1.87 0 4.14 0.06 6.01 0.06c2.44 0.06 1.59 1.3 1.7 3.91c0.17 4.2 0.06 7.15 0.23 11.29c0.11 3.69-0.45 3.52-5.05 3.57c-7.89 0-6.87 0.17-14.47 0.17c-6.07-0.06-8.91-0.74-8.91 2.38c-0.06 10.33-0.06 20.6 0 30.92c0 0.28 0.23 0.57 0.4 0.85c0.06 0.17 0.06 0.45 0.11 0.62c-0.17 0.74-0.57 1.42-0.57 2.16c-0.06 7.49-0.06 15.04 0 22.53c0 0.68 0.06 1.08 0 2.16c0 0.79 0 0.96 0 1.48c0.17 7.43 0.34 14.81 0.51 22.24c0 44.14 0 88.29 0 132.43c0 3.97-0.74 7.77-2.61 11.4c-4.6 8.79-8.91 17.7-13.56 26.95c-1.36-2.1-2.67-3.86-3.69-5.79c-4.77-8.57-9.48-17.14-14.13-25.76c-0.51-1.02-0.62-2.33-0.62-3.52c-0.06-32.06 0.06-64.06-0.06-96.12c-0.11-40.68-0.4-81.42-0.51-122.1c0-2.55-0.85-3.29-3.29-3.23c-1.76 0-2.5-0.06-5.16-0.06c-6.24 0-9.48-0.28-14.35-0.4c-1.48 0-1.48 0-2.27-0.06z" />
		<path id="Layer" class="s1" d="m275.39 204.89c0-0.17-0.06-0.79-0.06-0.96c0.06-0.34 0.4-0.51 0.45-0.91c0.11 0 0.23 0 0.34-0.06c0.06 0.4 0.11 0.74 0.11 1.13c0 16.11 0 32.28 0 48.4c0 0.91-0.34 1.93-0.57 2.84c-0.17-7.43-0.4-14.98-0.51-22.41c0-0.51-0.06-0.74-0.06-1.42c-0.06-8.91 0.28-17.7 0.28-26.61z" />
		<path id="Layer" class="s3" d="m217.75 237.34c0 1.59 0 2.89 0 4.2c0 51.75 0.06 103.43-0.06 155.18c0 4.37 0.62 8.4 2.5 12.31c0.45 0.91 0.68 1.93 1.13 3.18c-15.32 0-30.24 0-46.13 0c0.79-1.25 1.08-2.61 1.93-3.06c15.43-8.96 20.03-23.66 20.6-40.11c0.28-8-2.67-15.38-7.72-21.73c-3.4-4.31-7.83-6.3-13.28-6.3c-11.92 0.06-23.83 0.34-35.75-0.06c-3.91-0.11-7.83-1.87-11.63-3.18c-0.68-0.23-1.13-2.04-1.13-3.12c-0.06-14.07-0.06-28.2-0.06-42.27c0-7.83-0.06-15.72-0.06-23.55c0-1.08 0.23-2.27 0.68-3.29c3.46-8.79 6.98-17.53 10.38-26.38c0.57-1.42 1.25-2.1 2.84-2.1c24.68 0.06 49.31 0 73.99 0.06c0.4 0 0.85 0.11 1.76 0.23z" />
		<path id="Layer" class="s3" d="m118.45 278.53c0 1.42 0 2.44 0 3.46c0 8.23 0 16.45 0 24.62c0 3.8 0 3.74-3.91 3.86c-8.4 0.28-16.06-2.72-23.94-5.11c-12.03-3.63-19.75-12.03-26.33-22.01c-1.3-1.93-0.68-2.78 1.3-3.01c2.27-0.28 4.48-0.45 6.75-0.51c11.92-0.28 23.77-0.51 35.69-0.79c3.35-0.11 6.75-0.34 10.44-0.51z" />
		<path id="Layer" class="s3" d="m393.75 237.23c4.31 0 8.68 0 13.28 0c0.06 1.08 0.17 1.99 0.17 2.89c0 18.27 0 36.48 0.06 54.75c0 2.1-0.68 3.12-2.5 4.14c-25.48 13.67-50.89 27.52-76.37 41.19c-4.14 2.21-6.92 5.05-8.68 9.76c-3.46 9.13-6.24 18.21-5.5 28.09c0.79 10.61 5.62 19.12 13.84 25.65c2.21 1.76 5.11 2.95 7.89 3.69c2.95 0.74 4.09 1.93 3.01 5.05c-15.38 0-30.87 0-46.81 0c1.53-3.12 3.12-5.96 4.26-9.02c0.91-2.5 1.82-5.22 1.82-7.83c0.11-49.19 0.06-98.33 0.11-147.52c0-1.53 0.11-3.01 0.17-4.54c0.51 0.28 1.02 0.51 1.53 0.79c0.91-2.67 3.91-2.21 5.62-3.74c0.74-0.68 1.65-1.19 3.06-2.21c-2.21-0.45-3.69-0.74-5.16-1.08c20.09 0 40.17 0 60.26 0.06c5.05 0 10.16 0.28 15.21 0.4c4.77-0.17 9.76-0.34 14.75-0.51z" />
		<path id="Layer" class="s3" d="m303.37 237.23c1.48 0.28 2.95 0.62 5.16 1.08c-1.36 1.02-2.27 1.53-3.06 2.21c-1.7 1.53-4.71 1.08-5.62 3.74c-0.51-0.28-1.02-0.51-1.53-0.79c-0.06-0.4-0.11-0.74-0.11-1.13c0-6.01-0.62-5.16 5.16-5.11z" />
		<path id="Layer" class="s4" d="m393.75 237.23c-4.99 0.17-9.93 0.34-14.92 0.45c2.44-0.17 4.94-0.45 7.38-0.51c2.5-0.06 4.99 0.06 7.55 0.06z" />
		<path id="Layer" class="s1" d="m275.28 202.67c0.91 8.74 0.28 19.86 0.28 28.77c-0.17-0.68-0.51-1.36-0.51-2.1c-0.06-7.49 0-14.87 0-22.36c0-0.74 0.06-3.63 0.23-4.31z" />
	</g>
	<g id="Слой_5">
		<path id="Layer" class="s5" d="m174.06 123.86c-2.72 1.65-7.15 3.12-9.31 5.39c-4.99 5.16-6.01 7.15-8.4 15.09c-0.4 1.3-1.36 4.2-1.7 5.56c-2.04 7.77-1.7 15.72-1.7 23.72c0 1.82 0.11 3.57 0 5.39c-0.11 2.78-1.82 4.48-4.43 4.48c-2.55 0-4.31-1.7-4.31-4.6c-0.06-6.24 0.23-12.48-0.11-18.72c-0.45-8.79-3.01-17.08-7.38-24.68c-4.31-7.49-11.06-10.95-19.35-12.88c-9.87-2.33-19.8-2.21-29.79-2.27c-1.36 0-2.78-0.28-4.09-0.74c-1.59-0.51-2.27-1.93-2.27-3.57c0-1.65 0.57-3.01 2.21-3.63c1.13-0.4 2.33-0.74 3.52-0.74c4.37-0.11 8.68-0.11 13.05 0c8.23 0.17 15.89-0.85 23.66-3.12c7.21-3.69 10.44-7.49 13.73-12.88c0.45-0.68 1.02-1.3 1.48-1.99c0.62 1.13 1.19 2.33 1.82 3.46c4.37 8.91 10.67 16.06 19.18 21.16c4.31 2.72 8.74 5.5 14.18 5.56z" />
		<path id="Layer" class="s6" d="m121.35 109.23c3.4-0.96 5.62-3.06 8.06-5.05c5.9-4.88 8.45-11.86 10.78-18.89c2.72-8.45 2.33-17.14 2.33-25.82c0-1.82-0.11-3.57 0-5.39c0.11-2.78 1.82-4.48 4.43-4.48c2.55 0 4.31 1.7 4.31 4.6c0.06 6.24-0.23 12.48 0.11 18.72c0.45 8.79 3.01 17.08 7.38 24.68c4.31 7.49 11.06 10.95 19.35 12.88c9.87 2.33 19.8 2.21 29.79 2.27c1.36 0 2.78 0.28 4.09 0.74c1.59 0.51 2.27 1.93 2.27 3.57c0 1.65-0.57 3.01-2.21 3.63c-1.13 0.4-2.33 0.74-3.52 0.74c-4.37 0.11-8.68 0.11-13.05 0c-8.23-0.17-16.11 1.82-23.83 4.09c-6.18 1.82-9.42 6.18-12.71 11.52c-1.02 2.33-1.13 2.72-1.42 3.69c-0.62-1.13-2.1-3.69-2.67-4.88c-4.37-8.91-10.67-16.06-19.18-21.16c-4.43-2.61-8.85-5.33-14.3-5.45z" />
		<path id="Layer" class="s7" d="m451.28 329.37c-1.76 1.08-4.65 2.04-6.07 3.52c-3.23 3.35-3.91 4.65-5.45 9.87c-0.28 0.85-0.91 2.72-1.13 3.63c-1.36 5.05-1.08 10.27-1.08 15.43c0 1.19 0.06 2.33 0 3.52c-0.06 1.82-1.19 2.95-2.89 2.89c-1.7 0-2.78-1.13-2.84-3.01c-0.06-4.09 0.17-8.11-0.06-12.2c-0.28-5.73-1.93-11.12-4.82-16.11c-2.84-4.88-7.21-7.15-12.6-8.4c-6.47-1.53-12.94-1.42-19.46-1.48c-0.91 0-1.82-0.17-2.67-0.45c-1.02-0.34-1.48-1.25-1.48-2.33c0-1.08 0.4-1.99 1.42-2.38c0.74-0.28 1.53-0.45 2.33-0.51c2.84-0.06 5.67-0.06 8.51 0c5.39 0.11 10.38-0.51 15.43-2.04c4.71-2.38 6.81-4.88 8.96-8.4c0.28-0.45 0.62-0.85 0.96-1.3c0.4 0.74 0.79 1.53 1.19 2.27c2.84 5.79 6.92 10.5 12.48 13.79c2.84 1.82 5.73 3.63 9.25 3.69z" />
		<path id="Layer" class="s8" d="m416.96 319.84c2.21-0.62 3.69-1.99 5.28-3.29c3.86-3.18 5.5-7.72 7.04-12.31c1.76-5.5 1.48-11.18 1.48-16.85c0-1.19-0.06-2.33 0-3.52c0.06-1.82 1.19-2.95 2.89-2.89c1.7 0 2.78 1.13 2.84 3.01c0.06 4.09-0.17 8.11 0.06 12.2c0.28 5.73 1.93 11.12 4.82 16.11c2.84 4.88 7.21 7.15 12.6 8.4c6.47 1.53 12.94 1.42 19.46 1.48c0.91 0 1.82 0.17 2.67 0.45c1.02 0.34 1.48 1.25 1.48 2.33c0 1.08-0.4 1.99-1.42 2.38c-0.74 0.28-1.53 0.45-2.33 0.51c-2.84 0.06-5.67 0.06-8.51 0c-5.39-0.11-10.5 1.19-15.55 2.67c-4.03 1.19-6.13 4.03-8.28 7.55c-0.68 1.53-0.74 1.76-0.91 2.38c-0.4-0.74-1.36-2.38-1.76-3.18c-2.84-5.79-6.92-10.5-12.48-13.79c-2.95-1.82-5.84-3.57-9.36-3.63z" />
		<path id="Layer" class="s8" d="m337.18 177.82c0.96 0 1.87 0 2.84 0c0.51 1.08 1.19 2.1 1.59 3.23c1.53 4.26 6.07 8.4 10.21 10.33c1.65 0.79 1.36 0.85 3.01 1.76c0 0.74 0 1.53 0 2.27c-0.91 0.45-1.76 1.08-2.72 1.36c-5.16 1.53-8.4 5.05-10.5 9.82c-0.57 1.25-1.36 2.38-2.1 3.57c-0.74 0-1.53 0-2.27 0c-0.4-0.74-1.36-2.5-1.59-3.29c-2.04-6.87-6.35-9.76-13.16-11.46c0-0.96 0-1.87 0-2.84c0.91-0.45 2.16-0.79 3.23-1.25c4.94-2.1 8-5.56 9.99-10.33c0.51-1.25 0.85-1.87 1.48-3.18z" />
		<path id="Layer" class="s8" d="m68.47 139.92c-0.45-0.68-0.45-1.53 0-2.16c0.45-0.68 1.13-1.36 1.7-1.99c1.59-1.7 2.95-2.95 4.43-4.65c2.21-2.44 4.03-2.44 6.24 0.06c1.42 1.59 3.01 2.95 4.43 4.48c2.27 2.33 2.16 3.63-0.06 6.13c-1.3 1.48-2.72 2.84-4.03 4.31c-1.93 2.1-4.48 2.78-6.98 0.06c-1.48-1.65-2.67-2.67-4.2-4.31c-0.34-0.4-1.13-1.36-1.53-1.93z" />
		<path id="Layer" class="s6" d="m391.08 105.76c-0.45-0.68-0.45-1.53 0-2.16c0.45-0.68 1.13-1.36 1.7-1.99c1.59-1.7 2.95-2.95 4.43-4.65c2.21-2.44 4.03-2.44 6.24 0.06c1.42 1.59 3.01 2.95 4.43 4.48c2.27 2.33 2.16 3.63-0.06 6.13c-1.3 1.48-2.72 2.84-4.03 4.31c-1.93 2.1-4.48 2.78-6.98 0.06c-1.48-1.65-2.67-2.67-4.2-4.31c-0.34-0.4-1.19-1.36-1.53-1.93z" />
		<path id="Layer" class="s9" d="m436.36 195.36c-0.45-0.68-0.45-1.53 0-2.16c0.45-0.68 1.13-1.36 1.7-1.99c1.59-1.7 2.95-2.95 4.43-4.65c2.21-2.44 4.03-2.44 6.24 0.06c1.42 1.59 3.01 2.95 4.43 4.48c2.27 2.33 2.16 3.63-0.06 6.13c-1.3 1.48-2.72 2.84-4.03 4.31c-1.93 2.1-4.48 2.78-6.98 0.06c-1.48-1.65-2.67-2.67-4.2-4.31c-0.4-0.45-1.19-1.42-1.53-1.93z" />
		<path id="Layer" class="s9" d="m87.25 367.27c-0.45-0.68-0.45-1.53 0-2.16c0.45-0.68 1.13-1.36 1.7-1.99c1.59-1.7 2.95-2.95 4.43-4.65c2.21-2.44 4.03-2.44 6.24 0.06c1.42 1.59 3.01 2.95 4.43 4.48c2.27 2.33 2.16 3.63-0.06 6.13c-1.3 1.48-2.72 2.84-4.03 4.31c-1.93 2.1-4.48 2.78-6.98 0.06c-1.48-1.65-2.67-2.67-4.2-4.31c-0.34-0.45-1.13-1.42-1.53-1.93z" />
		<path id="Layer" class="s10" d="m78.06 339.98c-14.65 0-26.5-11.84-26.5-26.5c0-14.65 11.84-26.5 26.5-26.5c14.65 0 26.5 11.84 26.5 26.5c0 14.65-11.84 26.5-26.5 26.5z" />
		<g id="Layer">
			<path id="Layer" class="s9" d="m78.23 340.04c-14.65 0-26.5-11.84-26.5-26.5c0-14.65 11.84-26.5 26.5-26.5c14.65 0 26.5 11.84 26.5 26.5c0 14.65-11.84 26.5-26.5 26.5z" />
		</g>
		<path id="Layer" class="s10" d="m257.98 167.61c-9.85 0-17.82-7.96-17.82-17.82c0-9.85 7.96-17.82 17.82-17.82c9.85 0 17.82 7.96 17.82 17.82c0 9.85-7.96 17.82-17.82 17.82z" />
		<g id="Layer">
			<path id="Layer" class="s10" d="m257.98 167.61c-9.85 0-17.82-7.96-17.82-17.82c0-9.85 7.96-17.82 17.82-17.82c9.85 0 17.82 7.96 17.82 17.82c0 9.85-7.96 17.82-17.82 17.82z" />
			<path id="Layer" class="s9" d="m258.03 167.27c-9.76 0-17.65-7.89-17.65-17.65c0-9.76 7.89-17.65 17.65-17.65c9.76 0 17.65 7.89 17.65 17.65c0 9.76-7.89 17.65-17.65 17.65z" />
			<path id="Layer" class="s9" d="m258.15 167.33c-9.76 0-17.65-7.89-17.65-17.65c0-9.76 7.89-17.65 17.65-17.65c9.76 0 17.65 7.89 17.65 17.65c0 9.76-7.89 17.65-17.65 17.65z" />
		</g>
		<path id="Layer" class="s10" d="m259 429.63c-19.96 0-36.09-16.13-36.09-36.09c0-19.96 16.13-36.09 36.09-36.09c19.96 0 36.09 16.13 36.09 36.09c0 19.96-16.13 36.09-36.09 36.09z" />
		<g id="Layer">
			<path id="Layer" class="s9" d="m259.22 429.74c-19.96 0-36.09-16.13-36.09-36.09c0-19.96 16.13-36.09 36.09-36.09c19.96 0 36.09 16.13 36.09 36.09c0 19.96-16.13 36.09-36.09 36.09z" />
		</g>
		<path id="Layer" class="s11" d="m259.45 412.55c-10.42 0-18.84-8.5-18.84-19.01c0-10.51 8.42-19.01 18.84-19.01c10.42 0 18.84 8.5 18.84 19.01c0 10.51-8.42 19.01-18.84 19.01z" />
		<path id="Layer" class="s12" d="m399.48 269.91c-14.62 0-26.44-11.82-26.44-26.44c0-14.62 11.82-26.44 26.44-26.44c14.62 0 26.44 11.82 26.44 26.44c0 14.62-11.82 26.44-26.44 26.44z" />
		<g id="Layer">
			<path id="Layer" class="s12" d="m399.6 269.4c-14.5 0-26.21-11.72-26.21-26.21c0-14.5 11.72-26.21 26.21-26.21c14.5 0 26.21 11.72 26.21 26.21c0 14.5-11.72 26.21-26.21 26.21z" />
			<path id="Layer" class="s10" d="m399.77 269.51c-14.5 0-26.21-11.72-26.21-26.21c0-14.5 11.72-26.21 26.21-26.21c14.5 0 26.21 11.72 26.21 26.21c0 14.5-11.72 26.21-26.21 26.21z" />
		</g>
		<path id="Layer" class="s8" d="m399.48 253.57c-5.59 0-10.1-4.51-10.1-10.1c0-5.59 4.51-10.1 10.1-10.1c5.59 0 10.1 4.51 10.1 10.1c0 5.59-4.51 10.1-10.1 10.1z" />
		<path id="Layer" class="s8" d="m258.15 353.83h-1.48c-2.04 0-3.69-1.65-3.69-3.69v-175.78c0-2.04 1.65-3.69 3.69-3.69h1.48c2.04 0 3.69 1.65 3.69 3.69v175.78c0 2.04-1.65 3.69-3.69 3.69z" />
		<path id="Layer" class="s8" d="m185.58 247.56v-1.48c0-2.04 1.65-3.69 3.69-3.69l173.9-0.34c2.04 0 3.69 1.65 3.69 3.69v1.48c0 2.04-1.65 3.69-3.69 3.69l-173.9 0.34c-2.04 0-3.69-1.65-3.69-3.69z" />
		<path id="Layer" class="s8" d="m258.15 124.89h-1.48c-2.04 0-3.69-1.65-3.69-3.69v-43.41c0-2.04 1.65-3.69 3.69-3.69h1.48c2.04 0 3.69 1.65 3.69 3.69v43.41c-0.06 2.04-1.7 3.69-3.69 3.69z" />
		<path id="Layer" class="s8" d="m287.71 359.78l-0.96-1.08c-1.36-1.48-1.25-3.86 0.23-5.22l88.29-80.85c1.48-1.36 3.86-1.25 5.22 0.23l0.96 1.08c1.36 1.48 1.25 3.86-0.23 5.22l-88.29 80.85c-1.48 1.36-3.86 1.3-5.22-0.23z" />
		<path id="Layer" class="s8" d="m103.93 293.68l-0.96-1.08c-1.36-1.48-1.25-3.86 0.23-5.22l21.16-19.4c1.48-1.36 3.86-1.25 5.22 0.23l0.96 1.08c1.36 1.48 1.25 3.86-0.23 5.22l-21.16 19.4c-1.48 1.36-3.8 1.25-5.22-0.23z" />
		<path id="Layer" class="s10" d="m147.16 231.38c0.34 0.68 0.4 1.3 0.51 1.99c0.91 6.24 3.97 11.52 8 16.11c3.8 4.31 8.57 7.55 14.24 9.13c1.42 0.4 2.89 0.79 4.31 1.19c-1.93 0.85-3.01 1.48-3.91 2.04c-6.41 3.35-10.38 8.68-12.77 15.43c-0.51 1.42-1.02 2.84-1.53 4.26c-0.68 1.76-2.04 2.38-3.8 2.38c-1.65 0-2.89-0.68-3.57-2.33c-0.4-1.02-0.85-2.1-1.19-3.18c-2.38-7.83-7.15-13.62-14.53-17.19c-2.61-1.25-5.39-2.33-8.06-3.46c-0.45-0.17-0.91-0.28-1.3-0.51c-1.48-0.74-2.84-1.82-2.72-3.63c0.06-1.87 1.19-3.12 2.95-3.8c1.59-0.62 3.18-1.13 4.77-1.76c8.11-3.18 15.04-8.34 18.61-16.68z" />
		<path id="Layer" class="s13" d="m157.83 275.7c-0.34-0.68-0.34-1.3-0.45-1.99c-0.91-6.24-3.97-11.52-8-16.11c-3.8-4.31-8.57-7.55-14.24-9.13c-1.42-0.4-2.89-0.79-4.31-1.19c1.93-0.85 3.01-1.48 3.91-2.04c6.41-3.35 10.38-8.68 12.77-15.43c0.51-1.42 1.02-2.84 1.53-4.26c0.68-1.76 2.04-2.38 3.8-2.38c1.65 0 2.89 0.68 3.57 2.33c0.4 1.02 0.85 2.1 1.19 3.18c2.38 7.83 7.15 13.62 14.53 17.19c2.61 1.25 5.39 2.33 8.06 3.46c0.45 0.17 0.91 0.28 1.3 0.51c1.48 0.74 2.84 1.82 2.72 3.63c-0.06 1.87-1.19 3.12-2.95 3.8c-1.59 0.62-3.18 1.13-4.77 1.76c-8.17 3.18-15.15 8.34-18.67 16.68z" />
		<path id="Layer" class="s10" d="m251.22 9.25c0.34 0.74 0.45 1.48 0.57 2.27c1.08 7.15 4.54 13.28 9.19 18.55c4.37 4.99 9.82 8.62 16.34 10.5c1.65 0.45 3.29 0.91 4.94 1.36c-2.21 0.96-3.46 1.7-4.48 2.33c-7.38 3.86-11.92 9.99-14.7 17.76c-0.57 1.65-1.19 3.23-1.76 4.88c-0.74 1.99-2.33 2.78-4.37 2.78c-1.93 0-3.35-0.79-4.09-2.67c-0.51-1.19-1.02-2.38-1.36-3.63c-2.72-8.96-8.23-15.66-16.74-19.75c-3.01-1.48-6.18-2.67-9.25-3.97c-0.51-0.23-1.02-0.34-1.53-0.57c-1.7-0.85-3.23-2.1-3.18-4.14c0.06-2.1 1.36-3.63 3.35-4.37c1.82-0.68 3.69-1.36 5.5-2.04c9.53-3.8 17.53-9.7 21.56-19.29z" />
		<path id="Layer" class="s13" d="m263.48 60.2c-0.34-0.74-0.4-1.48-0.51-2.27c-1.08-7.15-4.54-13.28-9.19-18.55c-4.37-4.99-9.82-8.62-16.34-10.5c-1.65-0.45-3.29-0.91-4.94-1.36c2.21-0.96 3.46-1.7 4.48-2.33c7.38-3.86 11.92-9.99 14.7-17.76c0.57-1.65 1.19-3.23 1.76-4.88c0.74-1.99 2.33-2.78 4.37-2.78c1.93 0 3.35 0.79 4.09 2.67c0.51 1.19 1.02 2.38 1.36 3.63c2.72 8.96 8.23 15.66 16.74 19.75c3.01 1.48 6.18 2.67 9.25 3.97c0.51 0.23 1.02 0.34 1.53 0.57c1.7 0.85 3.23 2.1 3.18 4.14c-0.06 2.1-1.36 3.63-3.35 4.37c-1.82 0.68-3.69 1.36-5.5 2.04c-9.53 3.74-17.53 9.7-21.62 19.29z" />
		<path id="Layer" class="s5" d="m303.2 458.74c0.34 0.68 0.4 1.3 0.51 1.99c0.91 6.24 3.97 11.52 8 16.11c3.8 4.31 8.57 7.55 14.24 9.13c1.42 0.4 2.89 0.79 4.31 1.19c-1.93 0.85-3.01 1.48-3.91 2.04c-6.41 3.35-10.38 8.68-12.77 15.43c-0.51 1.42-1.02 2.84-1.53 4.26c-0.68 1.76-2.04 2.38-3.8 2.38c-1.65 0-2.89-0.68-3.57-2.33c-0.4-1.02-0.85-2.1-1.19-3.18c-2.38-7.83-7.15-13.62-14.53-17.19c-2.61-1.25-5.39-2.33-8.06-3.46c-0.45-0.17-0.91-0.28-1.3-0.51c-1.48-0.74-2.84-1.82-2.72-3.63c0.06-1.87 1.19-3.12 2.95-3.8c1.59-0.62 3.18-1.13 4.77-1.76c8.17-3.18 15.09-8.34 18.61-16.68z" />
		<path id="Layer" class="s6" d="m313.86 503.05c-0.34-0.68-0.34-1.3-0.45-1.99c-0.91-6.24-3.97-11.52-8-16.11c-3.8-4.31-8.57-7.55-14.24-9.13c-1.42-0.4-2.89-0.79-4.31-1.19c1.93-0.85 3.01-1.48 3.91-2.04c6.41-3.35 10.38-8.68 12.77-15.43c0.51-1.42 1.02-2.84 1.53-4.26c0.68-1.76 2.04-2.38 3.8-2.38c1.65 0 2.89 0.68 3.57 2.33c0.4 1.02 0.85 2.1 1.19 3.18c2.38 7.83 7.15 13.62 14.53 17.19c2.61 1.25 5.39 2.33 8.06 3.46c0.45 0.17 0.91 0.28 1.3 0.51c1.48 0.74 2.84 1.82 2.72 3.63c-0.06 1.87-1.19 3.12-2.95 3.8c-1.59 0.62-3.18 1.13-4.77 1.76c-8.17 3.18-15.09 8.34-18.67 16.68z" />
	</g>
</svg>