<svg version="1.2" baseProfile="tiny-ps" xmlns="http://www.w3.org/2000/svg" viewBox="0 0 512 512" width="512" height="512">
	<title>8_ko (2)-svg</title>
	<style>
		tspan { white-space:pre }
		.s0 { fill: #835d14 } 
		.s1 { fill: #dcc598 } 
		.s2 { fill: #503409 } 
		.s3 { fill: #bea26c } 
		.s4 { fill: #53380d } 
		.s5 { fill: #f2d194 } 
		.s6 { fill: #f3daa8 } 
		.s7 { fill: #cadded } 
		.s8 { fill: #ffffff } 
		.s9 { fill: #fac600 } 
		.s10 { fill: #fea613 } 
		.s11 { fill: #fff364 } 
		.s12 { fill: #e2772c } 
		.s13 { fill: #f9c502 } 
	</style>
	<g id="Layer_6_xA0_Изображение_1_">
		<path id="Layer" class="s0" d="m250.48 506.27c-138.52 0-250.48-111.97-250.48-250.48c0-138.52 111.97-250.48 250.48-250.48c138.52 0 250.48 111.97 250.48 250.48c0 138.52-111.97 250.48-250.48 250.48z" />
	</g>
	<g id="Group_2_copy_xA0_Изображение_1_">
		<path id="Layer" class="s1" d="m412.84 122.63c-22.89 15.94-45.73 31.83-68.68 47.77c-3.1 2.16-6.6 1.75-8.29-0.76c-1.69-2.57-0.99-5.96 2.04-8.06c14.66-10.04 29.38-19.97 44.09-29.96c6.42-4.38 12.85-8.76 19.27-13.14c5.55-3.8 7.65-3.45 11.5 1.81c0.06 0.76 0.06 1.58 0.06 2.34z" />
		<path id="Layer" class="s1" d="m315.54 156.04c-1.4-1.34-3.27-2.51-4.32-4.2c-1.34-2.22-0.18-4.5 1.81-5.84c5.49-3.68 11.04-7.18 16.64-10.75c12.79-8.12 25.58-16.18 38.43-24.24c3.33-2.1 6.89-1.64 8.53 0.99c1.64 2.74 0.58 6.07-2.74 8.18c-17.81 11.27-35.62 22.48-53.44 33.7c-1.28 0.82-2.74 1.23-4.91 2.16z" />
		<path id="Layer" class="s1" d="m349.65 197.44c-3.97 0-5.96-1.34-6.72-3.91c-0.76-2.74 0.35-4.91 2.74-6.42c9.46-5.96 18.92-11.91 28.32-17.87c8.23-5.2 16.41-10.4 24.65-15.53c2.34-1.46 4.96-2.16 6.89 0.12c1.17 1.34 2.04 3.8 1.58 5.31c-0.53 1.81-2.45 3.45-4.15 4.56c-15.89 10.16-31.83 20.21-47.77 30.25c-2.04 1.28-4.26 2.69-5.55 3.5z" />
		<path id="Layer" class="s2" d="m244.64 414.52c-10.1-0.41-20.21-0.76-30.37-1.17c-0.23-0.93-0.35-1.93-0.76-2.8c-0.18-0.41-0.82-0.64-1.23-0.99c0.47-0.29 0.93-0.58 1.34-0.93c0.7-0.53 1.34-1.17 2.04-1.75c-0.99-0.06-1.93-0.18-2.92-0.12c-4.09 0.23-8.18 0.47-12.26 0.82c-3.62 0.29-7.18 0.76-10.8 1.28c-0.29 0.06-0.29 2.22-0.47 2.86c-7.42-0.88-15.07-2.16-22.31-3.74c-5.84-1.28-11.39-4.09-16.99-6.37c-0.41-0.18-0.64-1.52-0.41-2.04c2.04-4.91 3.97-9.87 6.48-14.6c4.56-8.64 13.2-11.21 21.78-13.55c12.73-3.45 25.58-6.37 38.19-10.16c2.74-0.82 5.49-3.91 6.89-6.6c8.35-16.29 13.43-33.87 18.86-51.28c2.28-7.3 2.28-14.95 1.17-22.48c-0.18-1.11-1.17-2.16-2.04-2.98c-21.43-21.55-42.81-43.04-64.36-64.47c-2.04-2.04-1.64-2.63 0.58-4.03c26.46-16.18 52.91-32.47 79.31-48.76c6.83-4.2 13.67-8.35 20.44-12.61c1.93-1.23 2.86-1.23 4.32 0.76c31.42 44.74 62.9 89.41 94.38 134.15c6.31 8.99 12.61 17.93 18.92 26.92c2.57 3.68 2.39 5.9-1.05 8.82c-14.72 12.61-30.72 23.48-47.48 33.17c-0.47 0.23-1.69 0-1.93-0.41c-3.45-5.66-9.11-5.37-14.19-4.38c-2.45 0.47-4.96 3.33-6.48 5.72c-10.63 16.53-21.02 33.17-31.48 49.76c-0.76 1.23-1.75 2.28-2.63 3.45c-0.35-3.39-2.92-2.04-4.38-1.69c-3.1 0.76-6.07 2.1-9.11 3.21c-4.67 1.17-9.34 2.34-14.02 3.5c-0.47 0.35-0.99 0.76-1.46 1.11c0.47 0.23 0.93 0.58 1.4 0.64c2.04 0.12 4.09 0.12 6.07 0.12c-4.56 0.35-9.05 0.64-13.61 0.99c1.23-0.53 2.45-0.99 3.68-1.64c0.47-0.23 0.76-0.76 1.11-1.17c-0.53-0.23-1.05-0.58-1.52-0.58c-2.34 0.06-4.61 0.23-6.95 0.29c-6.83 0.29-13.67 0.53-20.56 0.76c-1.34 0.06-2.63 0.18-3.97 0.23c1.4 0.53 2.8 1.34 4.26 1.52c1.99 0.23 4.09-0.06 6.07 0.12c2.74 0.35 5.55 0.76 8.41 1.11z" />
		<path id="Layer" class="s3" d="m149.33 213.74c-1.17-1.11-2.45-2.16-3.62-3.45c-3.91-4.44-7.83-8.88-11.56-13.43c-0.41-0.53-0.23-2.16 0.23-2.69c5.84-5.49 11.86-10.86 17.81-16.29c9.64-8.7 19.33-17.35 28.97-26.05c4.96-4.5 9.81-9.05 14.78-13.55c12.61-11.5 25.29-22.95 37.9-34.4c4.79-4.38 9.58-8.76 14.37-13.2c5.49-5.08 10.92-10.22 16.41-15.24c2.8-2.51 2.86-2.45 5.55 1.69c8 12.56 14.83 25.7 19.45 39.95c0.82 2.57 2.57 5.55 1.93 7.71c-0.58 2.04-3.8 3.39-6.02 4.79c-12.79 8.12-25.52 16.18-38.37 24.18c-15.71 9.75-31.54 19.39-47.3 29.14c-16.06 9.87-32.06 19.74-48.06 29.67c-0.64 0.35-1.4 0.64-2.45 1.17z" />
		<path id="Layer" class="s2" d="m237.87 84.96c-0.58 0.76-1.05 1.46-1.64 2.04c-18.22 16.64-36.5 33.29-54.78 49.93c-15.01 13.72-30.13 27.33-45.09 41.11c-1.81 1.64-2.69 1.87-3.91-0.47c-1.23-2.28-2.63-4.56-4.32-6.54c-2.1-2.39-1.46-4.32 0.12-6.72c19.74-30.49 39.42-61.03 59.1-91.51c5.31-8.23 10.63-16.47 15.94-24.7c0.7-1.11 1.34-2.39 2.86-0.58c9.99 11.56 20.03 23.01 30.02 34.51c0.64 0.82 1.05 1.81 1.69 2.92z" />
		<path id="Layer" class="s2" d="m267.59 413c-2.04-0.06-4.09-0.06-6.07-0.12c-0.47 0-0.93-0.41-1.4-0.64c0.47-0.35 0.99-0.76 1.46-1.11c4.85-0.58 9.81-0.58 14.02-3.5c3.04-1.11 6.02-2.45 9.11-3.21c1.46-0.35 4.03-1.69 4.38 1.69c-4.09 1.58-8.06 3.33-12.21 4.73c-3.04 0.93-6.19 1.46-9.29 2.16z" />
		<path id="Layer" class="s2" d="m244.64 414.52c-2.86-0.35-5.66-0.82-8.53-1.05c-2.04-0.18-4.09 0.18-6.07-0.12c-1.46-0.18-2.86-0.99-4.26-1.52c1.34-0.06 2.63-0.18 3.97-0.23c6.83-0.23 13.67-0.53 20.56-0.76c2.34-0.12 4.61-0.29 6.95-0.29c0.53 0 0.99 0.35 1.52 0.58c-0.35 0.41-0.64 0.93-1.11 1.17c-1.17 0.64-2.45 1.11-3.68 1.64c-3.1 0.23-6.25 0.41-9.34 0.58z" />
		<path id="Layer" class="s2" d="m210.83 413.23c-0.23-0.06-0.41-0.18-0.64-0.23c-0.88-0.41-1.81-1.17-2.69-1.17c-2.04 0-4.15 0.29-6.19 0.53c-2.86-0.23-5.72-0.47-8.58-0.7c0.64-0.35 1.34-0.76 1.99-1.17c0.23-0.18 0.64-0.41 0.64-0.58c-0.35-1.75-0.35-1.81 1.34-1.75c2.51 0.12 5.02 0.7 7.53 0.47c3.8-0.35 6.89 0.76 9.64 3.15c-1.11 0.53-2.04 0.99-3.04 1.46z" />
		<path id="Layer" class="s2" d="m210.83 413.23c0.99-0.47 1.99-0.93 2.92-1.4c-2.69-2.39-5.84-3.45-9.64-3.15c-2.45 0.23-5.02-0.35-7.53-0.47c-1.69-0.12-1.64 0-1.34 1.75c0 0.18-0.41 0.41-0.64 0.58c-0.64 0.41-1.17 1.23-1.81 1.64c-1.17-0.29-2.92-0.06-4.15-0.35c0.23-0.64 0.7-2.74 0.99-2.8c3.56-0.53 7.18-0.99 10.8-1.28c4.09-0.35 8.18-0.58 12.26-0.82c0.99-0.06 1.93 0.06 2.92 0.12c-0.7 0.58-1.34 1.17-2.04 1.75c-0.41 0.35-0.93 0.58-1.34 0.93c0.41 0.35 1.05 0.58 1.23 0.99c0.35 0.88 0.53 1.87 0.76 2.8c-1.11-0.18-2.22-0.23-3.39-0.29z" />
		<path id="Layer" class="s4" d="m201.25 412.36c2.04-0.18 4.15-0.53 6.19-0.53c0.88 0 1.81 0.76 2.69 1.17c-2.92-0.23-5.9-0.41-8.88-0.64z" />
		<path id="Layer" fill-rule="evenodd" class="s1" d="m246.39 424.04c-6.02 0-12.09 0-18.1 0c-14.95-1.34-29.9-2.69-44.85-4.09c-7.42-0.7-14.95-1.05-22.19-2.57c-5.31-1.11-10.22-3.97-15.42-5.96c-7.18-2.74-8.53-6.31-6.13-14.83c2.45-8.58 5.84-16.94 12.44-23.42c6.19-6.07 13.72-9.23 22.02-11.21c11.45-2.74 22.72-6.02 34.11-8.82c3.21-0.76 5.08-2.28 6.48-5.31c7.42-16 12.56-32.82 17.7-49.64c1.11-3.56 0.99-7.59 1.05-11.45c0-1.34-0.88-2.98-1.87-3.91c-20.97-21.14-42.05-42.17-63.07-63.25c-1.34-1.34-2.51-1.58-4.03-0.7c-3.68 1.99-7.36 3.91-10.98 6.02c-2.34 1.4-7.59 0.93-9.4-1.11c-7.36-8.29-14.72-16.59-22.02-24.88c-3.1-3.5-2.57-7.24 1.75-10.4c2.16-1.58 1.81-2.57 0.58-4.38c-2.92-4.2-5.66-8.58-8.47-12.91c-1.4-2.16-1.4-4.32 0-6.54c14.19-22.08 28.27-44.21 42.46-66.23c13.14-20.44 26.4-40.82 39.6-61.2c3.33-5.08 9.69-4.73 13.2 0.18c3.56 5.02 7.83 9.64 11.91 14.31c6.25 7.18 12.61 14.25 18.81 21.49c1.17 1.4 2.04 1.52 3.33 0.64c5.72-3.8 11.56-7.53 17.17-11.45c4.26-2.98 8.94-2.28 11.8 1.93c9.11 13.37 17.35 27.27 22.78 42.57c2.57 7.18 4.03 14.78 5.9 22.19c0.47 1.81-0.18 2.98-1.93 3.97c-3.68 2.1-7.18 4.61-10.8 6.89c-1.58 0.99-1.69 1.93-0.58 3.5c23.42 33.17 46.78 66.4 70.14 99.63c15.83 22.48 31.71 44.91 47.6 67.34c0.58 0.82 1.05 1.64 1.58 2.45c1.69 2.8 1.75 5.02-1.23 7.42c-15.3 12.26-30.37 24.88-47.25 35.04c-5.49 3.27-10.69 7.07-16.12 10.45c-0.7 0.41-2.51 0.12-3.04-0.47c-2.1-2.45-3.91-5.08-5.72-7.71c-1.23-1.87-1.99-2.16-3.33 0.06c-6.89 11.15-13.9 22.25-20.91 33.35c-4.03 6.42-8.06 12.85-12.15 19.21c-2.63 4.03-6.25 6.77-10.86 8.35c-9.64 3.27-19.51 4.91-29.73 4.96c-4.03-0.12-8.12 0.29-12.21 0.47zm-45.14-11.68c2.98 0.23 5.9 0.41 8.88 0.64c0.23 0.06 0.58 0 1.28 0c1.17 0.06 2.86 0.41 4.03 0.41c10.1 0.41 19.04 0.76 29.14 1.17c3.1-0.18 6.25-0.35 9.34-0.58c4.56-0.35 9.05-0.64 13.61-0.99c3.1-0.7 6.25-1.23 9.29-2.22c4.15-1.34 8.18-3.1 12.21-4.73c0.88-1.17 1.87-2.22 2.63-3.45c10.51-16.59 20.85-33.23 31.48-49.76c1.52-2.39 4.03-5.26 6.48-5.72c5.14-0.93 10.75-1.28 14.19 4.38c0.23 0.41 1.52 0.64 1.93 0.41c16.76-9.75 32.7-20.56 47.48-33.17c3.45-2.92 3.62-5.14 1.05-8.82c-6.31-8.99-12.61-17.93-18.92-26.92c-31.42-44.68-62.9-89.41-94.32-134.15c-1.4-2.04-2.39-1.99-4.32-0.76c-6.72 4.32-13.61 8.47-20.44 12.61c-26.4 16.29-52.85 32.59-79.31 48.76c-2.22 1.34-2.63 1.99-0.58 4.03c21.49 21.43 42.92 42.98 64.36 64.47c0.88 0.88 1.87 1.93 2.04 2.98c1.17 7.53 1.11 15.18-1.17 22.48c-5.43 17.4-10.51 34.98-18.86 51.28c-1.4 2.74-4.15 5.78-6.89 6.6c-12.61 3.8-25.46 6.77-38.19 10.16c-8.58 2.34-17.23 4.85-21.78 13.55c-2.45 4.67-2.1 5.2-4.15 10.1c-0.23 0.58-1.93 7.01 1.64 8c5.61 2.28 7.65 3.62 13.49 4.91c7.24 1.58 14.02 2.22 21.43 3.04c1.17 0.29 3.15 0.29 4.32 0.53c2.92 0.29 5.78 0.53 8.64 0.76zm-51.92-198.62c1.05-0.53 1.81-0.82 2.45-1.23c16-9.87 32-19.8 48.01-29.67c15.77-9.69 31.59-19.33 47.3-29.14c12.85-8 25.64-16.06 38.37-24.18c2.22-1.4 5.37-2.74 6.02-4.79c0.64-2.16-1.05-5.14-1.93-7.71c-4.56-14.25-11.45-27.33-19.45-39.95c-2.63-4.15-2.74-4.2-5.55-1.69c-5.55 5.02-10.98 10.16-16.41 15.24c-4.79 4.38-9.58 8.82-14.37 13.2c-12.61 11.5-25.29 22.95-37.9 34.4c-4.96 4.5-9.81 9.05-14.78 13.55c-9.64 8.7-19.27 17.35-28.97 26.05c-5.96 5.37-11.97 10.75-17.81 16.29c-0.53 0.47-0.7 2.16-0.23 2.69c3.74 4.56 7.65 8.99 11.56 13.43c1.23 1.34 2.57 2.45 3.68 3.5zm88.54-128.77c-0.64-1.11-1.05-2.1-1.69-2.86c-9.99-11.5-20.03-23.01-30.02-34.51c-1.58-1.81-2.16-0.53-2.86 0.58c-5.31 8.23-10.63 16.47-15.94 24.7c-19.68 30.54-39.36 61.03-59.1 91.51c-1.52 2.39-2.16 4.26-0.12 6.72c1.69 1.99 3.1 4.26 4.32 6.54c1.23 2.34 2.1 2.1 3.91 0.47c14.95-13.78 30.08-27.45 45.09-41.11c18.28-16.64 36.5-33.29 54.78-49.93c0.58-0.64 1.05-1.34 1.64-2.1z" />
		<path id="Layer" class="s2" d="m275.59 407.63c-4.26 2.92-9.23 2.92-14.02 3.5c4.67-1.17 9.34-2.34 14.02-3.5z" />
	</g>
	<g id="Слой_6">
		<path id="Layer" class="s5" d="m470.65 394.14c-2.8 1.69-7.36 3.21-9.58 5.55c-5.14 5.31-6.19 7.36-8.64 15.53c-0.41 1.34-1.4 4.32-1.75 5.72c-2.1 8-1.75 16.18-1.75 24.41c0 1.87 0.12 3.68 0 5.55c-0.12 2.86-1.87 4.61-4.56 4.61c-2.63 0-4.44-1.75-4.44-4.73c-0.06-6.42 0.23-12.85-0.12-19.27c-0.47-9.05-3.1-17.58-7.59-25.4c-4.44-7.71-11.39-11.27-19.91-13.26c-10.16-2.39-20.38-2.28-30.66-2.34c-1.4 0-2.86-0.29-4.2-0.76c-1.64-0.53-2.34-1.99-2.34-3.68c0-1.69 0.58-3.1 2.28-3.74c1.17-0.41 2.39-0.76 3.62-0.76c4.5-0.12 8.94-0.12 13.43 0c8.47 0.18 16.35-0.88 24.35-3.21c7.42-3.8 10.75-7.71 14.13-13.26c0.47-0.7 1.05-1.34 1.52-2.04c0.64 1.17 1.23 2.39 1.87 3.56c4.5 9.17 10.98 16.53 19.74 21.78c4.44 2.8 8.99 5.66 14.6 5.72z" />
		<path id="Layer" class="s6" d="m416.4 379.07c3.5-0.99 5.78-3.15 8.29-5.2c6.07-5.02 8.7-12.21 11.1-19.45c2.8-8.7 2.39-17.64 2.39-26.57c0-1.87-0.12-3.68 0-5.55c0.12-2.86 1.87-4.61 4.56-4.61c2.63 0 4.44 1.75 4.44 4.73c0.06 6.42-0.23 12.85 0.12 19.27c0.47 9.05 3.1 17.58 7.59 25.4c4.44 7.71 11.39 11.27 19.91 13.26c10.16 2.39 20.38 2.28 30.66 2.34c1.4 0 2.86 0.29 4.2 0.76c1.64 0.53 2.34 1.99 2.34 3.68c0 1.69-0.58 3.1-2.28 3.74c-1.17 0.41-2.39 0.76-3.62 0.76c-4.5 0.12-8.94 0.12-13.43 0c-8.47-0.18-16.59 1.87-24.53 4.2c-6.37 1.87-9.69 6.37-13.08 11.86c-1.05 2.39-1.17 2.8-1.46 3.8c-0.64-1.17-2.16-3.8-2.74-5.02c-4.5-9.17-10.98-16.53-19.74-21.78c-4.56-2.69-9.11-5.49-14.72-5.61z" />
		<path id="Layer" class="s7" d="m86.37 148.09c-1.58 0.99-4.2 1.87-5.49 3.15c-2.92 3.04-3.5 4.2-4.96 8.88c-0.23 0.76-0.82 2.45-0.99 3.27c-1.23 4.56-0.99 9.29-0.99 13.96c0 1.05 0.06 2.1 0 3.15c-0.06 1.64-1.11 2.63-2.63 2.63c-1.52 0-2.51-0.99-2.57-2.69c-0.06-3.68 0.12-7.36-0.06-11.04c-0.29-5.14-1.75-10.04-4.38-14.54c-2.51-4.38-6.54-6.42-11.39-7.59c-5.84-1.34-11.68-1.28-17.52-1.34c-0.82 0-1.64-0.18-2.39-0.41c-0.93-0.29-1.34-1.11-1.34-2.1c0-0.99 0.35-1.75 1.28-2.1c0.64-0.23 1.4-0.41 2.1-0.47c2.57-0.06 5.14-0.06 7.65 0c4.85 0.12 9.34-0.47 13.9-1.81c4.2-2.16 6.13-4.44 8.06-7.59c0.23-0.41 0.58-0.76 0.88-1.17c0.35 0.7 0.7 1.34 1.05 2.04c2.57 5.26 6.25 9.46 11.27 12.44c2.74 1.64 5.37 3.27 8.53 3.33z" />
		<path id="Layer" class="s8" d="m55.36 139.45c1.99-0.58 3.33-1.81 4.73-2.98c3.5-2.86 4.96-6.95 6.31-11.15c1.64-4.96 1.34-10.1 1.34-15.18c0-1.05-0.06-2.1 0-3.15c0.06-1.64 1.11-2.63 2.63-2.63c1.52 0 2.51 0.99 2.57 2.69c0.06 3.68-0.12 7.36 0.06 11.04c0.29 5.14 1.75 10.04 4.38 14.54c2.51 4.38 6.54 6.42 11.39 7.59c5.84 1.34 11.68 1.28 17.52 1.34c0.82 0 1.64 0.18 2.39 0.41c0.93 0.29 1.34 1.11 1.34 2.1c0 0.99-0.35 1.75-1.28 2.1c-0.64 0.23-1.4 0.41-2.1 0.47c-2.57 0.06-5.14 0.06-7.65 0c-4.85-0.12-9.46 1.05-14.02 2.39c-3.68 1.05-5.55 3.62-7.48 6.77c-0.58 1.4-0.64 1.64-0.82 2.16c-0.35-0.7-1.23-2.16-1.58-2.86c-2.57-5.26-6.25-9.46-11.27-12.44c-2.63-1.52-5.26-3.15-8.47-3.21z" />
		<path id="Layer" class="s8" d="m447.99 162.69c0.99 0 1.93 0 2.92 0c0.53 1.11 1.23 2.16 1.64 3.33c1.58 4.38 6.25 8.64 10.51 10.63c1.69 0.82 1.4 0.88 3.1 1.81c0 0.76 0 1.58 0 2.34c-0.93 0.47-1.81 1.11-2.8 1.4c-5.31 1.58-8.64 5.2-10.8 10.1c-0.58 1.28-1.4 2.45-2.16 3.68c-0.76 0-1.58 0-2.34 0c-0.41-0.76-1.4-2.57-1.64-3.39c-2.1-7.07-6.54-10.04-13.55-11.8c0-0.99 0-1.93 0-2.92c0.93-0.47 2.22-0.82 3.33-1.28c5.08-2.16 8.23-5.72 10.28-10.63c0.53-1.34 0.88-1.99 1.52-3.27z" />
		<path id="Layer" class="s8" d="m232.38 183.13c0.99 0 1.93 0 2.92 0c0.53 1.11 1.23 2.16 1.64 3.33c1.58 4.38 6.25 8.64 10.51 10.63c1.69 0.82 1.4 0.88 3.1 1.81c0 0.76 0 1.58 0 2.34c-0.93 0.47-1.81 1.11-2.8 1.4c-5.31 1.58-8.64 5.2-10.8 10.1c-0.58 1.28-1.4 2.45-2.16 3.68c-0.76 0-1.58 0-2.34 0c-0.41-0.76-1.4-2.57-1.64-3.39c-2.1-7.07-6.54-10.04-13.55-11.8c0-0.99 0-1.93 0-2.92c0.88-0.47 2.22-0.82 3.33-1.28c5.08-2.16 8.23-5.72 10.28-10.63c0.53-1.28 0.93-1.93 1.52-3.27z" />
		<path id="Layer" class="s8" d="m22.43 227.34c-0.47-0.7-0.47-1.58 0-2.22c0.47-0.7 1.17-1.4 1.75-2.04c1.64-1.75 3.04-3.04 4.56-4.79c2.28-2.51 4.15-2.51 6.42 0.06c1.46 1.64 3.1 3.04 4.56 4.61c2.34 2.39 2.22 3.74-0.06 6.31c-1.34 1.52-2.8 2.92-4.15 4.44c-1.99 2.16-4.61 2.86-7.18 0.06c-1.52-1.69-2.74-2.74-4.32-4.44c-0.41-0.41-1.23-1.4-1.58-1.99z" />
		<path id="Layer" class="s9" d="m253.17 94.77c-0.47-0.7-0.47-1.58 0-2.22c0.47-0.7 1.17-1.4 1.75-2.04c1.64-1.75 3.04-3.04 4.56-4.79c2.28-2.51 4.15-2.51 6.42 0.06c1.46 1.64 3.1 3.04 4.56 4.61c2.34 2.39 2.22 3.74-0.06 6.31c-1.34 1.52-2.8 2.92-4.15 4.44c-1.99 2.16-4.61 2.86-7.18 0.06c-1.52-1.69-2.74-2.74-4.32-4.44c-0.35-0.41-1.17-1.4-1.58-1.99z" />
		<path id="Layer" class="s9" d="m173.68 447.28c-0.47-0.7-0.47-1.58 0-2.22c0.47-0.7 1.17-1.4 1.75-2.04c1.64-1.75 3.04-3.04 4.56-4.79c2.28-2.51 4.15-2.51 6.42 0.06c1.46 1.64 3.1 3.04 4.56 4.61c2.34 2.39 2.22 3.74-0.06 6.31c-1.34 1.52-2.8 2.92-4.15 4.44c-1.99 2.16-4.61 2.86-7.18 0.06c-1.52-1.69-2.74-2.74-4.32-4.44c-0.41-0.41-1.23-1.4-1.58-1.99z" />
		<path id="Layer" class="s10" d="m192.55 90.28c-16.08 0-29.08-13-29.08-29.08c0-16.08 13-29.08 29.08-29.08c16.08 0 29.08 13 29.08 29.08c0 16.08-13 29.08-29.08 29.08z" />
		<g id="Layer">
			<path id="Layer" class="s9" d="m192.72 90.34c-16.08 0-29.08-13-29.08-29.08c0-16.08 13-29.08 29.08-29.08c16.08 0 29.08 13 29.08 29.08c0 16.08-13 29.08-29.08 29.08z" />
		</g>
		<path id="Layer" class="s11" d="m192.9 76.49c-8.4 0-15.18-6.84-15.18-15.3c0-8.46 6.79-15.3 15.18-15.3c8.4 0 15.18 6.84 15.18 15.3c0 8.46-6.79 15.3-15.18 15.3z" />
		<path id="Layer" class="s10" d="m401.45 344.5c-20.54 0-37.14-16.6-37.14-37.14c0-20.54 16.6-37.14 37.14-37.14c20.54 0 37.14 16.6 37.14 37.14c0 20.54-16.6 37.14-37.14 37.14z" />
		<g id="Layer">
			<path id="Layer" class="s9" d="m401.74 344.61c-20.54 0-37.14-16.6-37.14-37.14c0-20.54 16.6-37.14 37.14-37.14c20.54 0 37.14 16.6 37.14 37.14c0 20.54-16.6 37.14-37.14 37.14z" />
		</g>
		<path id="Layer" class="s11" d="m401.97 326.92c-10.72 0-19.39-8.75-19.39-19.56c0-10.82 8.67-19.56 19.39-19.56c10.72 0 19.39 8.75 19.39 19.56c0 10.82-8.67 19.56-19.39 19.56z" />
		<path id="Layer" class="s12" d="m169.54 196.68c-6.75 0-12.21-5.46-12.21-12.21c0-6.75 5.46-12.21 12.21-12.21c6.75 0 12.21 5.46 12.21 12.21c0 6.75-5.46 12.21-12.21 12.21z" />
		<g id="Layer">
			<path id="Layer" class="s12" d="m169.6 196.39c-6.69 0-12.09-5.4-12.09-12.09c0-6.69 5.4-12.09 12.09-12.09c6.69 0 12.09 5.4 12.09 12.09c0 6.69-5.4 12.09-12.09 12.09z" />
			<path id="Layer" class="s10" d="m169.65 196.45c-6.69 0-12.09-5.4-12.09-12.09c0-6.69 5.4-12.09 12.09-12.09c6.69 0 12.09 5.4 12.09 12.09c0 6.69-5.4 12.09-12.09 12.09z" />
		</g>
		<path id="Layer" class="s12" d="m174.74 419.25c-10.95 0-19.8-8.85-19.8-19.8c0-10.95 8.85-19.8 19.8-19.8c10.95 0 19.8 8.85 19.8 19.8c0 10.95-8.85 19.8-19.8 19.8z" />
		<g id="Layer">
			<path id="Layer" class="s12" d="m174.79 418.84c-10.85 0-19.62-8.77-19.62-19.62c0-10.85 8.77-19.62 19.62-19.62c10.85 0 19.62 8.77 19.62 19.62c0 10.85-8.77 19.62-19.62 19.62z" />
			<path id="Layer" class="s10" d="m174.91 418.9c-10.85 0-19.62-8.77-19.62-19.62c0-10.85 8.77-19.62 19.62-19.62c10.85 0 19.62 8.77 19.62 19.62c0 10.85-8.77 19.62-19.62 19.62z" />
		</g>
		<path id="Layer" class="s8" d="m174.74 406.98c-4.17 0-7.53-3.37-7.53-7.53c0-4.17 3.37-7.53 7.53-7.53c4.17 0 7.53 3.37 7.53 7.53c0 4.17-3.37 7.53-7.53 7.53z" />
		<path id="Layer" class="s10" d="m259.94 280.9c-9.59 0-17.35-7.75-17.35-17.35c0-9.59 7.75-17.35 17.35-17.35c9.59 0 17.35 7.75 17.35 17.35c0 9.59-7.75 17.35-17.35 17.35z" />
		<g id="Layer">
			<path id="Layer" class="s9" d="m260.06 280.96c-9.59 0-17.35-7.75-17.35-17.35c0-9.59 7.75-17.35 17.35-17.35c9.59 0 17.35 7.75 17.35 17.35c0 9.59-7.75 17.35-17.35 17.35z" />
		</g>
		<path id="Layer" class="s8" d="m168.54 165.96l-1.46-0.29c-2.04-0.41-3.39-2.39-2.98-4.44l12.56-63.48c0.41-2.04 2.39-3.39 4.44-2.98l1.46 0.29c2.04 0.41 3.39 2.39 2.98 4.44l-12.56 63.48c-0.41 2.04-2.39 3.39-4.44 2.98z" />
		<path id="Layer" class="s8" d="m243.12 249.07l-0.99 1.17c-1.34 1.58-3.8 1.75-5.37 0.41l-55.01-47.6c-1.58-1.34-1.75-3.8-0.41-5.37l0.99-1.17c1.34-1.58 3.8-1.75 5.37-0.41l55.01 47.6c1.64 1.4 1.81 3.8 0.41 5.37z" />
		<path id="Layer" class="s8" d="m359.52 297.83l-0.47 1.4c-0.7 1.99-2.86 3.04-4.79 2.34l-70.9-24.18c-1.99-0.7-3.04-2.86-2.34-4.79l0.47-1.4c0.7-1.99 2.86-3.04 4.79-2.34l70.84 24.18c2.04 0.64 3.1 2.8 2.39 4.79z" />
		<path id="Layer" class="s8" d="m360.33 309.22l0.23 1.46c0.35 2.04-1.05 4.03-3.1 4.38l-26.05 4.56c-2.04 0.35-4.03-1.05-4.38-3.1l-0.23-1.46c-0.35-2.04 1.05-4.03 3.1-4.38l26.05-4.56c2.04-0.35 3.97 1.05 4.38 3.1z" />
		<path id="Layer" class="s8" d="m196.52 389.23l-0.7-1.34c-0.99-1.81-0.29-4.15 1.52-5.14l88.07-47.3c1.81-0.99 4.15-0.29 5.14 1.52l0.7 1.34c0.99 1.81 0.29 4.15-1.52 5.14l-88.07 47.3c-1.87 1.05-4.2 0.35-5.14-1.52z" />
		<path id="Layer" class="s10" d="m307.54 310.92c0.23 0.47 0.23 0.88 0.35 1.34c0.64 4.2 2.69 7.77 5.37 10.86c2.57 2.92 5.78 5.08 9.58 6.13c0.99 0.29 1.93 0.53 2.92 0.82c-1.28 0.58-2.04 0.99-2.63 1.34c-4.32 2.28-7.01 5.84-8.58 10.4c-0.35 0.93-0.7 1.93-1.05 2.86c-0.47 1.17-1.34 1.64-2.57 1.64c-1.11 0-1.99-0.47-2.39-1.58c-0.29-0.7-0.58-1.4-0.82-2.16c-1.64-5.26-4.79-9.17-9.81-11.56c-1.75-0.88-3.62-1.58-5.43-2.34c-0.29-0.12-0.58-0.18-0.88-0.35c-0.99-0.53-1.87-1.23-1.87-2.45c0.06-1.23 0.82-2.1 1.99-2.57c1.05-0.41 2.16-0.76 3.21-1.23c5.61-2.1 10.22-5.55 12.61-11.15z" />
		<path id="Layer" class="s13" d="m314.72 340.76c-0.23-0.47-0.23-0.88-0.29-1.34c-0.64-4.2-2.69-7.77-5.37-10.86c-2.57-2.92-5.78-5.08-9.58-6.13c-0.99-0.29-1.93-0.53-2.92-0.82c1.28-0.58 2.04-0.99 2.63-1.34c4.32-2.28 7.01-5.84 8.58-10.4c0.35-0.93 0.7-1.93 1.05-2.86c0.47-1.17 1.34-1.64 2.57-1.64c1.11 0 1.99 0.47 2.39 1.58c0.29 0.7 0.58 1.4 0.82 2.16c1.64 5.26 4.79 9.17 9.81 11.56c1.75 0.88 3.62 1.58 5.43 2.34c0.29 0.12 0.58 0.18 0.88 0.35c0.99 0.53 1.87 1.23 1.87 2.45c-0.06 1.23-0.82 2.1-1.99 2.57c-1.05 0.41-2.16 0.76-3.21 1.23c-5.61 2.04-10.28 5.49-12.67 11.15z" />
	</g>
</svg>