<svg version="1.2" xmlns="http://www.w3.org/2000/svg" viewBox="0 0 512 512" width="512" height="512">
	<title>meteorite-svg</title>
	<style>
		.s0 { fill: #f08568 } 
		.s1 { fill: #ed6d4a } 
		.s2 { fill: #f8cd76 } 
		.s3 { fill: #d36977 } 
		.s4 { fill: #c84455 } 
		.s5 { fill: #bd1e33 } 
	</style>
	<path id="Layer" class="s0" d="m64.2 138.1c35.2-35.2 119.9-69.2 251.7-100.9 97.4-23.4 185.9-37 186.8-37.1 5.3-0.8 10 3.9 9.2 9.2-0.1 0.9-13.7 89.4-37.1 186.8-31.7 131.8-65.7 216.5-100.9 251.7-41.4 41.4-96.4 64.2-154.9 64.2-58.5 0-113.5-22.8-154.8-64.2-41.4-41.3-64.2-96.3-64.2-154.8 0-58.5 22.8-113.5 64.2-154.9z"/>
	<path id="Layer" class="s1" d="m188.6 497.7c58.5 0 113.5-22.8 154.9-64.1 35.2-35.3 69.2-119.9 100.9-251.7 19.2-79.7 31.7-153.5 35.7-178.1 14.1-2.4 22.3-3.7 22.6-3.7 5.3-0.8 10 3.9 9.2 9.2-0.1 0.9-13.7 89.4-37.1 186.8-31.7 131.8-65.7 216.5-100.9 251.7-41.4 41.4-96.4 64.2-154.9 64.2-38.4 0-75.4-9.8-107.9-28.3 24.4 9.2 50.6 14 77.5 14z"/>
	<path id="Layer" class="s2" d="m47.5 285.4c1.2-44.3 19.4-84.5 51.4-113.2 53.6-48.1 175.1-96.9 180.2-99 5.9-2.3 12.2 2.9 11 9.1l-8.5 42.4 163.7-68.7c6.7-2.7 13.5 4.3 10.6 10.8l-63.5 141.7 40.2-25.6c2.9-1.9 6.9-1.6 9.6 0.6 2.5 2.1 3.6 5.8 2.4 8.9-2.3 6.7-58.3 164-104.6 220.4-26 31.8-64.1 50.4-107.4 52.6q-4.1 0.2-8.2 0.2c-46.3 0-92.8-19.2-125.8-52.2-33.8-33.7-52.4-80.4-51.1-128z"/>
	<path id="Layer" class="s3" d="m133 206.9c47.4-47.4 124.6-47.4 172.1 0 47.4 47.5 47.4 124.7 0 172.1-23.8 23.7-54.9 35.6-86.1 35.6-31.1 0-62.3-11.9-86-35.6-47.5-47.4-47.5-124.6 0-172.1z"/>
	<path id="Layer" class="s4" d="m197.7 390c31.2 0 62.4-11.9 86.1-35.6 41.4-41.4 46.6-105.4 15.8-152.6q2.8 2.5 5.5 5.1c47.4 47.5 47.4 124.7 0 172.1-23.8 23.7-54.9 35.6-86.1 35.6-31.1 0-62.3-11.9-86-35.6-6.1-6-11.3-12.5-15.8-19.4 22.9 20.3 51.7 30.4 80.5 30.4z"/>
	<g id="Layer">
		<path id="Layer" class="s5" d="m161.7 304.4c6.1-6.1 14.2-9.5 22.9-9.5 8.7 0 16.8 3.4 23 9.5 6.1 6.2 9.5 14.3 9.5 23 0 8.7-3.4 16.8-9.5 22.9-6.4 6.4-14.7 9.5-23 9.5-8.3 0-16.6-3.1-22.9-9.5-12.7-12.6-12.7-33.2 0-45.9z"/>
		<path id="Layer" class="s5" d="m184.6 247.1c-9.5-9.5-9.5-24.9 0-34.4 9.5-9.5 24.9-9.5 34.4 0 4.6 4.6 7.2 10.7 7.2 17.2 0 6.5-2.6 12.6-7.2 17.2-4.6 4.6-10.7 7.1-17.2 7.1-6.5 0-12.6-2.5-17.2-7.1z"/>
		<path id="Layer" class="s5" d="m299.3 281.5c4.6 4.6 7.2 10.7 7.2 17.2 0 6.5-2.6 12.6-7.2 17.2-4.7 4.8-10.9 7.1-17.2 7.1-6.2 0-12.4-2.3-17.2-7.1-4.6-4.6-7.1-10.7-7.1-17.2 0-6.5 2.5-12.6 7.1-17.2 9.5-9.5 24.9-9.5 34.4 0z"/>
	</g>
	<g id="Layer">
	</g>
	<g id="Layer">
	</g>
	<g id="Layer">
	</g>
	<g id="Layer">
	</g>
	<g id="Layer">
	</g>
	<g id="Layer">
	</g>
	<g id="Layer">
	</g>
	<g id="Layer">
	</g>
	<g id="Layer">
	</g>
	<g id="Layer">
	</g>
	<g id="Layer">
	</g>
	<g id="Layer">
	</g>
	<g id="Layer">
	</g>
	<g id="Layer">
	</g>
	<g id="Layer">
	</g>
</svg>