<svg version="1.2" baseProfile="tiny-ps" xmlns="http://www.w3.org/2000/svg" viewBox="0 0 92 92" width="92" height="92">
	<title>star-svg</title>
	<style>
		tspan { white-space:pre }
		.shp0 { fill: #e5ae67 } 
	</style>
	<g id="Layer_2">
		<g id="_ëîé_1">
			<path id="Layer" class="shp0" d="M88 45.73C85.49 45.62 81.9 45.39 77.58 45.24C73.26 45.09 68.24 44.93 62.85 44.84C60.16 44.84 57.38 44.73 54.55 44.73L49.14 44.73L51.53 42.41C53.08 40.92 54.53 39.41 56 37.96C58.88 35.05 61.54 32.31 63.78 29.96C68.29 25.2 71.13 21.86 71.13 21.86C71.13 21.86 67.69 24.57 62.75 28.86C60.28 31 57.43 33.55 54.42 36.32C52.92 37.71 51.34 39.13 49.79 40.61L47.27 43C47.27 41.14 47.27 39.27 47.27 37.43C47.27 34.6 47.19 31.82 47.16 29.12C47.07 23.73 46.93 18.7 46.76 14.39C46.59 10.08 46.35 6.47 46.24 4C46.13 1.53 46 0 46 0C46 0 45.88 1.44 45.75 4C45.62 6.56 45.4 10.11 45.25 14.42C45.1 18.73 44.95 23.76 44.86 29.15C44.86 31.85 44.75 34.63 44.74 37.46C44.74 39.24 44.74 41.06 44.74 42.86L42.41 40.47C40.92 38.93 39.41 37.47 37.96 36.01C35.05 33.12 32.31 30.47 29.96 28.22C25.2 23.72 21.86 20.87 21.86 20.87C21.86 20.87 24.57 24.32 28.86 29.25C31 31.73 33.55 34.58 36.32 37.59C37.71 39.09 39.13 40.66 40.61 42.21L43 44.7L37.43 44.7C34.6 44.7 31.82 44.78 29.12 44.82C23.73 44.91 18.7 45.05 14.39 45.21C10.08 45.37 6.49 45.59 3.97 45.71C1.45 45.83 0 46 0 46C0 46 1.44 46.11 4 46.25C6.56 46.39 10.11 46.59 14.42 46.74C18.73 46.89 23.76 47.05 29.15 47.14C31.85 47.14 34.63 47.25 37.46 47.25L42.86 47.25L40.42 49.6C38.88 51.09 37.42 52.6 35.95 54.05C33.07 56.95 30.41 59.7 28.17 62.05C23.67 66.81 20.82 70.15 20.82 70.15C20.82 70.15 24.27 67.44 29.2 63.15C31.68 61 34.53 58.46 37.54 55.69C39.04 54.29 40.62 52.88 42.16 51.4L44.7 49C44.7 50.86 44.7 52.73 44.7 54.57C44.7 57.4 44.78 60.18 44.81 62.87C44.9 68.26 45.04 73.29 45.21 77.6C45.38 81.91 45.59 85.51 45.7 88.02C45.81 90.53 46 92 46 92C46 92 46.11 90.56 46.25 88C46.39 85.44 46.6 81.9 46.74 77.58C46.88 73.26 47.05 68.24 47.14 62.85C47.14 60.16 47.25 57.38 47.25 54.55L47.25 49.15L49.58 51.53C51.07 53.08 52.58 54.53 54.03 56C56.93 58.89 59.68 61.54 62.03 63.79C66.79 68.29 70.13 71.13 70.13 71.13C70.13 71.13 67.42 67.68 63.13 62.75C61 60.3 58.47 57.45 55.7 54.43C54.3 52.94 52.89 51.36 51.41 49.81L49 47.27L54.57 47.27C57.4 47.27 60.18 47.2 62.87 47.16C68.26 47.07 73.29 46.93 77.6 46.76C81.91 46.59 85.51 46.38 88.02 46.27C90.53 46.16 92 46 92 46C92 46 90.54 45.87 88 45.73Z" />
		</g>
	</g>
</svg>