<svg version="1.2" baseProfile="tiny-ps" xmlns="http://www.w3.org/2000/svg" viewBox="0 0 512 512" width="512" height="512">
	<title>6_syllia (2)-svg</title>
	<style>
		tspan { white-space:pre }
		.s0 { fill: #585858 } 
		.s1 { fill: #b4aeae } 
		.s2 { fill: #383636 } 
		.s3 { fill: #f4f4f4 } 
		.s4 { fill: #ffffff } 
		.s5 { fill: #a2a2a2 } 
		.s6 { fill: #b2b2b2 } 
		.s7 { fill: #cadded } 
		.s8 { fill: #fac600 } 
		.s9 { fill: #e2772c } 
		.s10 { fill: #fea613 } 
		.s11 { fill: #fff364 } 
	</style>
	<g id="Layer_6_xA0_Изображение_1_">
		<path id="Layer" class="s0" d="m255.59 497.31c-137.06 0-247.84-110.78-247.84-247.84c0-137.06 110.78-247.84 247.84-247.84c137.06 0 247.84 110.78 247.84 247.84c0 137.06-110.78 247.84-247.84 247.84z" />
	</g>
	<g id="Group_2_xA0_Изображение_1_">
		<path id="Layer" fill-rule="evenodd" class="s1" d="m409.3 96.69c1.33 0.29 2.72 0.4 3.93 0.87c5.78 2.31 6.36 5.43 3 11.67c-7.05 13.12-13.87 26.35-20.8 39.53c-7.05 13.46-14.04 26.93-21.21 40.33c-3.76 7.05-13.46 9.77-18.95 5.49c-1.33-1.04-2.48-2.72-3-4.33c-2.14-6.13-3.87-12.42-6.01-18.55c-0.23-0.64-2.54-1.39-3-1.04c-11.38 9.3-22.65 18.78-33.8 28.31c-0.29 0.29 0.17 2.08 0.81 2.72c16.24 16.12 32.82 32.01 48.77 48.42c13.75 14.16 23.4 31.03 31.49 49.06c7.05 15.72 9.3 32.36 9.59 49c0.35 21.67-8.61 39.64-27.62 51.26c-10.23 6.24-21.15 11.44-31.78 16.93c-0.87 0.46-2.89 0.17-3.47-0.52c-9.25-10.69-15.95-22.65-16.64-37.1c-0.17-3.58 1.56-7.22 2.08-10.92c0.17-1.16-0.58-3.18-1.44-3.58c-44.09-19.65-88.3-39.06-132.39-58.83c-3.7-1.68-5.43-0.92-8.03 1.44c-5.49 4.97-11.38 9.42-16.93 14.39c-1.1 0.98-1.85 3.24-1.56 4.68c1.73 8.09 3.76 16.06 5.78 24.1c0.98 3.93-0.23 6.99-3.29 9.42c-11.73 9.36-23.35 18.84-35.13 28.08c-5.95 4.68-11.61 2.48-13.35-4.91c-1.16-5.03-2.31-10.11-3.41-15.2c-0.46-2.2-1.1-2.83-3.06-1.04c-3.52 3.12-7.11 6.18-10.81 9.07c-3.24 2.54-6.76 3.06-9.71-0.46c-2.77-3.35-2.25-6.82 0.92-9.71c3.47-3.18 7.22-6.07 10.69-9.25c0.46-0.4 0-2.83-0.58-3.06c-3.58-1.62-7.45-2.6-10.98-4.39c-3.12-1.56-5.89-3.81-8.84-5.78c0-0.98 0-1.91 0-2.89c1.27-1.73 2.31-3.76 3.87-5.2c9.19-8.38 18.49-16.53 27.74-24.85c4.28-3.81 8.21-7.74 14.91-5.09c7.22 2.83 14.74 4.97 22.19 7.28c1.1 0.35 2.83 0.23 3.64-0.46c5.95-4.91 11.79-9.94 17.51-15.02c0.81-0.69 1.33-2.37 1.1-3.41c-3.47-14.97-6.93-29.93-10.69-44.84c-7.22-28.78-14.62-57.55-22.07-86.27c-0.17-0.75-1.56-1.96-1.91-1.79c-12.37 5.55-21.79 0.06-30.4-8.09c-0.75-0.69-0.98-3-0.46-3.93c3.12-5.43 6.76-10.52 9.88-15.95c7.34-12.65 17.28-22.07 31.2-27.33c14.68-5.55 29.18-3.29 43.57 0.35c19.53 4.91 35.65 16.01 50.1 29.59c18.14 17.05 36 34.5 54.09 51.6c0.75 0.69 3.06 0.81 3.81 0.17c10.23-8.49 20.28-17.1 30.34-25.71c0.58-0.52 0.92-1.33 1.39-2.02c-0.75-0.29-1.5-0.75-2.31-0.87c-8.09-1.21-16.12-2.37-24.21-3.64c-5.78-0.92-8.21-6.13-4.39-10.63c2.43-2.83 6.07-5.03 9.53-6.53c14.33-6.13 28.78-11.96 43.22-17.8c19.07-7.74 38.08-15.26 57.09-22.77zm-94.88 147.81c3.12 3.41 6.36 6.65 9.36 10.17c8.38 9.82 19.01 17.34 24.21 30.22c4.68 11.67 9.3 23.06 10.98 35.54c1.56 11.56 2.25 22.88-2.83 33.92c-4.04 8.78-9.42 11.61-18.43 8.61c-1.58-0.55-3.16-1.11-4.74-1.66c0.98 4.98 3.51 10.57 2.02 14.61c-3.12 8.32-2.31 15.37 1.62 22.83c1.21 2.25 2.08 2.66 4.33 1.39c4.28-2.54 8.84-4.68 13.18-7.22c12.25-7.22 21.84-16.76 27.22-30.34c5.95-14.97 5.72-30.28 1.62-45.25c-6.65-24.27-18.9-45.77-36.12-64.2c-12.19-13.06-25.25-25.43-37.91-38.08c-2.72-2.72-5.32-7.28-8.26-7.57c-2.72-0.29-5.95 4.04-8.96 6.3c-0.75 0.58-1.91 1.1-2.14 1.85c-0.35 1.27-0.75 3.29-0.06 3.99c5.09 5.26 10.46 10.29 15.78 15.43c3.06 3.12 6.13 6.3 9.13 9.48zm18.55 116.8c-0.04-0.22-0.08-0.43-0.12-0.65c-0.52 0.06-1.04 0.06-1.56 0.06c0.56 0.2 1.12 0.39 1.68 0.59zm15.37-36.3c-2.37-9.07-4.22-18.14-7.22-26.75c-2.54-7.34-5.14-15.37-10.11-20.98c-15.83-17.86-32.71-34.73-49.29-51.89c-0.64-0.64-2.83-0.75-3.47-0.17c-26.64 22.19-53.22 44.49-79.74 66.92c-0.35 0.29-0.06 2.43 0.4 2.6c14.68 6.3 29.41 12.42 44.15 18.61c29.3 12.25 58.54 24.5 87.83 36.75c7.28 3.06 9.3 2.6 11.85-4.51c2.37-6.53 3.7-13.52 5.61-20.57zm-179.08-185.72c-4.33 1.62-11.27 3.99-17.86 6.88c-1.21 0.52-2.37 3.7-1.96 5.26c8.21 33 16.53 65.93 25.08 98.87c2.72 10.46 6.01 20.8 9.13 31.15c0.64 2.08 1.44 2.72 3.47 0.87c6.93-6.18 14.16-12.13 21.21-18.2c19.76-16.93 39.58-33.92 59.29-50.91c0.46-0.4 0.58-1.91 0.23-2.31c-4.51-5.03-9.01-10-13.7-14.85c-10.69-11.04-22.19-21.44-32.07-33.17c-13.23-15.66-30.63-20.98-52.82-23.58zm-29.7 3.76c3.81-3.06 7.28-6.65 11.5-9.07c8.15-4.68 17.22-4.22 26.12-3.18c16.64 1.96 32.36 6.07 44.55 18.95c17.28 18.2 34.9 36.06 52.47 54.03c0.75 0.75 2.83 1.33 3.47 0.87c3.06-2.25 5.78-5.09 8.84-7.34c2.25-1.68 2.08-2.72 0.17-4.57c-18.72-18.03-36.98-36.52-56.17-54.03c-12.94-11.79-27.97-20.46-45.42-24.5c-11.61-2.66-22.83-3.52-34.44 0.64c-16.64 6.01-26.06 18.95-34.44 33.28c-0.35 0.58 0.23 2.37 0.75 2.54c2.43 0.92 5.03 2.02 7.51 1.96c3.12-0.06 6.36-1.85 9.36-1.56c5.61 0.58 11.04 2.08 5.72-8.03zm174.45 2.08c7.45 1.1 13.87 2.14 20.28 2.89c5.49 0.64 8.78 4.16 7.8 9.36c-0.69 3.52 0.4 3.7 3.29 3.12c6.41-1.33 11.67 0.75 13.12 4.97c1.56 4.62 3 9.3 4.57 13.93c0.23 0.75 0.75 1.39 1.16 2.08c0.52-0.64 1.21-1.16 1.56-1.85c6.82-13 13.64-26 20.46-39.06c4.85-9.36 9.71-18.66 14.56-28.03c0.35-0.64 0.46-1.33 0.69-2.02c-0.75 0.12-1.5 0.12-2.2 0.4c-5.72 2.25-11.44 4.51-17.1 6.82c-22.36 8.96-44.67 17.91-68.19 27.39zm-155.21 207.74c-2.02-8.32-3.81-15.83-5.78-23.35c-0.29-1.16 0.64-5.09-3-2.02c-11.38 9.59-22.83 19.07-34.21 28.66c-0.29 0.23-0.29 1.21 0 1.56c1.68 2.25 4.1 4.22 5.09 6.76c1.56 3.99 1.96 8.38 3.24 12.48c0.23 0.75 3 1.68 3.7 1.21c3.41-2.31 6.47-5.09 9.71-7.69c5.09-4.1 10.17-8.21 15.26-12.37c2.14-1.79 4.16-3.64 6.01-5.26zm-12.6-32.07c-0.81-0.4-1.33-0.75-1.96-0.92c-7.11-2.37-14.16-4.8-21.32-6.99c-0.92-0.29-2.48 0.17-3.24 0.81c-9.36 8.09-18.66 16.3-27.85 24.56c-0.35 0.35-0.06 2.31 0.46 2.6c5.89 3.06 11.9 6.01 17.97 8.84c0.58 0.29 1.79-0.17 2.43-0.69c10.52-8.67 20.98-17.39 31.44-26.18c0.58-0.52 1.16-1.16 2.08-2.02z" />
		<path id="Layer" class="s2" d="m305.29 234.97c-5.26-5.09-10.63-10.11-15.78-15.43c-0.69-0.69-0.29-2.72 0.06-3.99c0.23-0.75 1.39-1.27 2.14-1.85c3-2.31 6.18-6.59 8.96-6.3c3 0.29 5.55 4.85 8.26 7.57c12.65 12.65 25.66 25.02 37.91 38.08c17.16 18.38 29.47 39.93 36.12 64.2c4.1 14.97 4.28 30.28-1.62 45.25c-5.37 13.58-14.97 23.11-27.22 30.34c-4.33 2.54-8.84 4.68-13.18 7.22c-2.2 1.33-3.12 0.87-4.33-1.39c-3.93-7.4-4.74-14.45-1.62-22.83c1.56-4.22-1.27-10.11-2.14-15.26c-0.52 0-1.04 0-1.56 0.06c2.14 0.75 4.28 1.5 6.41 2.25c8.96 3.06 14.39 0.23 18.43-8.61c5.09-11.04 4.39-22.36 2.83-33.92c-1.68-12.48-6.3-23.92-10.98-35.54c-5.2-12.89-15.89-20.4-24.21-30.22c-3-3.52-6.24-6.76-9.36-10.17c-3-3.12-6.07-6.3-9.13-9.48z" />
		<path id="Layer" class="s2" d="m139.56 143.03c5.32 10.11-0.12 8.61-5.66 8.03c-3-0.29-6.24 1.5-9.36 1.56c-2.48 0-5.09-1.1-7.51-1.96c-0.52-0.17-1.1-2.02-0.75-2.54c8.38-14.27 17.8-27.27 34.44-33.28c11.61-4.16 22.83-3.29 34.44-0.64c17.45 3.99 32.48 12.71 45.42 24.5c19.18 17.51 37.44 36 56.17 54.03c1.91 1.85 2.14 2.89-0.17 4.57c-3.06 2.31-5.78 5.09-8.84 7.34c-0.64 0.46-2.72-0.06-3.47-0.87c-17.57-17.91-35.19-35.83-52.47-54.03c-12.19-12.83-27.91-16.99-44.55-18.95c-8.9-1.04-17.97-1.5-26.12 3.18c-4.22 2.43-7.74 6.01-11.56 9.07z" />
		<path id="Layer" class="s2" d="m314.01 145.11c23.52-9.48 45.82-18.43 68.19-27.39c5.72-2.31 11.38-4.57 17.1-6.82c0.69-0.29 1.44-0.29 2.2-0.4c-0.23 0.69-0.35 1.39-0.69 2.02c-4.85 9.36-9.71 18.72-14.56 28.03c-6.82 13-13.58 26.06-20.46 39.06c-0.35 0.69-1.04 1.21-1.56 1.85c-0.4-0.69-0.92-1.33-1.16-2.08c-1.56-4.62-3-9.3-4.57-13.93c-1.44-4.22-6.65-6.3-13.12-4.97c-2.89 0.58-3.99 0.4-3.29-3.12c1.04-5.26-2.31-8.73-7.8-9.36c-6.41-0.75-12.83-1.85-20.28-2.89z" />
		<path id="Layer" class="s2" d="m158.8 352.85c-1.85 1.62-3.93 3.47-6.07 5.26c-5.03 4.16-10.17 8.26-15.26 12.37c-3.18 2.6-6.3 5.37-9.71 7.69c-0.69 0.46-3.47-0.46-3.7-1.21c-1.33-4.1-1.73-8.49-3.24-12.48c-0.98-2.54-3.41-4.45-5.09-6.76c-0.29-0.35-0.23-1.33 0-1.56c11.38-9.59 22.83-19.13 34.21-28.66c3.64-3.06 2.66 0.87 3 2.02c2.02 7.45 3.81 15.02 5.84 23.35z" />
		<path id="Layer" class="s2" d="m146.2 320.78c-0.92 0.87-1.5 1.5-2.2 2.08c-10.46 8.73-20.92 17.45-31.44 26.18c-0.58 0.52-1.85 0.92-2.43 0.69c-6.07-2.83-12.02-5.78-17.97-8.84c-0.52-0.23-0.81-2.25-0.46-2.6c9.19-8.26 18.49-16.47 27.85-24.56c0.75-0.69 2.31-1.1 3.24-0.81c7.17 2.2 14.22 4.62 21.32 6.99c0.75 0.12 1.33 0.46 2.08 0.87z" />
		<path id="Layer" class="s3" d="m305.29 234.97c3.06 3.18 6.13 6.36 9.13 9.48c-3-3.12-6.07-6.3-9.13-9.48z" />
	</g>
	<g id="Слой_7">
		<path id="Layer" class="s4" d="m204.11 259.93l-0.98-1.1c-1.39-1.56-1.27-3.93 0.29-5.32l183.18-164.34c1.56-1.39 3.93-1.27 5.32 0.29l0.98 1.1c1.39 1.56 1.27 3.93-0.29 5.32l-183.18 164.34c-1.56 1.33-3.93 1.21-5.32-0.29z" />
		<path id="Layer" class="s4" d="m312.28 280.39l-1.04 1.04c-1.5 1.44-3.87 1.44-5.32-0.06l-145.5-148.62c-1.44-1.5-1.44-3.87 0.06-5.32l1.04-1.04c1.5-1.44 3.87-1.44 5.32 0.06l145.5 148.68c1.44 1.44 1.44 3.81-0.06 5.26z" />
		<path id="Layer" class="s4" d="m169.26 244.21l-1.44 0.29c-2.02 0.4-4.04-0.87-4.45-2.89l-21.84-102.28c-0.4-2.02 0.87-4.04 2.89-4.45l1.44-0.29c2.02-0.4 4.04 0.87 4.45 2.89l21.84 102.28c0.46 2.02-0.87 4.04-2.89 4.45z" />
		<path id="Layer" class="s4" d="m141.24 322.4l-1.21-0.87c-1.68-1.16-2.14-3.52-0.92-5.2l8.84-12.71c1.16-1.68 3.52-2.14 5.2-0.92l1.21 0.87c1.68 1.16 2.14 3.52 0.92 5.2l-8.84 12.71c-1.16 1.68-3.52 2.08-5.2 0.92z" />
	</g>
	<g id="Слой_6">
		<path id="Layer" class="s5" d="m169.32 457.27c-2.37 1.44-6.24 2.77-8.21 4.74c-4.33 4.51-5.26 6.3-7.34 13.29c-0.35 1.16-1.21 3.7-1.5 4.85c-1.79 6.82-1.5 13.81-1.5 20.8c0 1.56 0.06 3.18 0 4.74c-0.12 2.43-1.62 3.93-3.87 3.93c-2.25 0-3.76-1.5-3.81-3.99c-0.06-5.49 0.23-10.98-0.12-16.41c-0.4-7.69-2.6-14.97-6.47-21.67c-3.81-6.53-9.71-9.59-16.99-11.33c-8.67-2.02-17.39-1.91-26.18-1.96c-1.21 0-2.43-0.23-3.58-0.64c-1.39-0.46-1.96-1.68-1.96-3.12c0-1.44 0.52-2.66 1.91-3.18c0.98-0.35 2.08-0.64 3.12-0.69c3.81-0.06 7.63-0.12 11.44 0c7.22 0.17 13.93-0.75 20.74-2.72c6.3-3.24 9.19-6.59 12.02-11.27c0.4-0.64 0.87-1.16 1.33-1.73c0.52 1.04 1.04 2.02 1.56 3.06c3.81 7.8 9.36 14.1 16.82 18.55c3.99 2.25 7.86 4.68 12.6 4.74z" />
		<path id="Layer" class="s6" d="m123.15 444.44c3-0.87 4.97-2.66 7.05-4.45c5.2-4.28 7.45-10.4 9.42-16.58c2.43-7.4 2.02-15.02 2.02-22.65c0-1.56-0.06-3.18 0-4.74c0.12-2.43 1.62-3.93 3.87-3.93c2.25 0 3.76 1.5 3.81 3.99c0.06 5.49-0.23 10.98 0.12 16.41c0.4 7.69 2.6 14.97 6.47 21.67c3.81 6.53 9.71 9.59 16.99 11.33c8.67 2.02 17.39 1.91 26.18 1.96c1.21 0 2.43 0.23 3.58 0.64c1.39 0.46 1.96 1.68 1.96 3.12c0 1.44-0.52 2.66-1.91 3.18c-0.98 0.35-2.08 0.64-3.12 0.69c-3.81 0.06-7.63 0.12-11.44 0c-7.22-0.17-14.1 1.62-20.92 3.58c-5.43 1.62-8.26 5.43-11.15 10.11c-0.92 2.02-0.98 2.43-1.27 3.24c-0.52-1.04-1.85-3.24-2.31-4.28c-3.81-7.8-9.36-14.1-16.82-18.55c-3.93-2.25-7.8-4.68-12.54-4.74z" />
		<path id="Layer" class="s7" d="m124.71 228.32c-1.27 0.81-3.35 1.5-4.39 2.54c-2.37 2.43-2.83 3.35-3.93 7.11c-0.17 0.64-0.64 1.96-0.81 2.6c-0.98 3.64-0.81 7.4-0.81 11.15c0 0.87 0.06 1.68 0 2.54c-0.06 1.33-0.87 2.14-2.08 2.08c-1.21 0-2.02-0.81-2.02-2.14c-0.06-2.95 0.12-5.89-0.06-8.84c-0.23-4.16-1.39-8.03-3.47-11.61c-2.02-3.52-5.2-5.14-9.13-6.07c-4.68-1.1-9.36-1.04-14.04-1.04c-0.64 0-1.33-0.12-1.91-0.35c-0.75-0.23-1.04-0.92-1.04-1.68c0-0.81 0.29-1.44 1.04-1.73c0.52-0.17 1.1-0.35 1.68-0.35c2.02-0.06 4.1-0.06 6.13 0c3.87 0.12 7.51-0.4 11.15-1.44c3.41-1.73 4.91-3.52 6.47-6.07c0.23-0.35 0.46-0.64 0.69-0.92c0.29 0.52 0.58 1.1 0.87 1.62c2.08 4.22 5.03 7.57 9.01 10c1.96 1.27 4.1 2.54 6.65 2.6z" />
		<path id="Layer" class="s4" d="m99.86 221.45c1.62-0.46 2.66-1.44 3.81-2.37c2.77-2.31 3.99-5.61 5.09-8.9c1.27-3.99 1.1-8.09 1.1-12.13c0-0.87-0.06-1.68 0-2.54c0.06-1.33 0.87-2.14 2.08-2.08c1.21 0 2.02 0.81 2.02 2.14c0.06 2.95-0.12 5.89 0.06 8.84c0.23 4.16 1.39 8.03 3.47 11.61c2.02 3.52 5.2 5.14 9.13 6.07c4.68 1.1 9.36 1.04 14.04 1.04c0.64 0 1.33 0.12 1.91 0.35c0.75 0.23 1.04 0.92 1.04 1.68c0 0.81-0.29 1.44-1.04 1.73c-0.52 0.17-1.1 0.35-1.68 0.35c-2.02 0.06-4.1 0.06-6.13 0c-3.87-0.12-7.57 0.87-11.27 1.91c-2.95 0.87-4.45 2.89-6.01 5.43c-0.46 1.1-0.52 1.27-0.69 1.73c-0.29-0.52-0.98-1.73-1.27-2.31c-2.08-4.22-5.03-7.57-9.01-10c-1.96-1.21-4.1-2.48-6.65-2.54z" />
		<path id="Layer" class="s8" d="m348.51 81.66c-0.46-0.69-0.46-1.56 0-2.2c0.46-0.69 1.16-1.39 1.73-2.02c1.62-1.73 3-3 4.51-4.74c2.25-2.48 4.1-2.48 6.36 0.06c1.44 1.62 3.06 3 4.51 4.57c2.31 2.37 2.2 3.7-0.06 6.24c-1.33 1.5-2.77 2.89-4.1 4.39c-1.96 2.14-4.57 2.83-7.11 0.06c-1.5-1.68-2.72-2.72-4.28-4.39c-0.35-0.4-1.16-1.39-1.56-1.96z" />
		<path id="Layer" class="s8" d="m54.27 368.91c-0.46-0.69-0.46-1.56 0-2.2c0.46-0.69 1.16-1.39 1.73-2.02c1.62-1.73 3-3 4.51-4.74c2.25-2.48 4.1-2.48 6.36 0.06c1.44 1.62 3.06 3 4.51 4.57c2.31 2.37 2.2 3.7-0.06 6.24c-1.33 1.5-2.77 2.89-4.1 4.39c-1.96 2.14-4.57 2.83-7.11 0.06c-1.5-1.68-2.72-2.72-4.28-4.39c-0.35-0.46-1.21-1.44-1.56-1.96z" />
		<path id="Layer" class="s4" d="m162.44 35.73c0.98 0 1.91 0 2.89 0c0.52 1.1 1.21 2.14 1.62 3.29c1.56 4.33 6.18 8.55 10.4 10.52c1.68 0.81 1.39 0.87 3.06 1.79c0 0.75 0 1.56 0 2.31c-0.92 0.46-1.79 1.1-2.77 1.39c-5.26 1.56-8.55 5.14-10.69 10c-0.58 1.27-1.39 2.43-2.14 3.64c-0.75 0-1.56 0-2.31 0c-0.4-0.75-1.39-2.54-1.62-3.35c-2.08-6.99-6.47-9.94-13.41-11.67c0-0.98 0-1.91 0-2.89c0.92-0.46 2.2-0.81 3.29-1.27c5.03-2.14 8.15-5.66 10.17-10.52c0.52-1.27 0.87-1.91 1.5-3.24z" />
		<path id="Layer" class="s4" d="m425.31 352.27c0.69 0 1.44 0 2.14 0c0.4 0.81 0.87 1.62 1.21 2.48c1.16 3.24 4.57 6.36 7.74 7.86c1.27 0.58 1.04 0.64 2.25 1.33c0 0.58 0 1.16 0 1.73c-0.69 0.35-1.33 0.81-2.08 1.04c-3.93 1.16-6.36 3.81-7.97 7.45c-0.4 0.92-1.04 1.79-1.56 2.72c-0.58 0-1.16 0-1.73 0c-0.29-0.58-1.04-1.91-1.21-2.48c-1.56-5.2-4.85-7.4-10-8.73c0-0.69 0-1.44 0-2.14c0.69-0.35 1.62-0.58 2.48-0.98c3.76-1.56 6.07-4.22 7.57-7.86c0.4-0.98 0.69-1.44 1.16-2.43z" />
		<path id="Layer" class="s4" d="m354.64 370.13c-0.46-0.69-0.46-1.56 0-2.2c0.46-0.69 1.16-1.39 1.73-2.02c1.62-1.73 3-3 4.51-4.74c2.25-2.48 4.1-2.48 6.36 0.06c1.44 1.62 3.06 3 4.51 4.57c2.31 2.37 2.2 3.7-0.06 6.24c-1.33 1.5-2.77 2.89-4.1 4.39c-1.96 2.14-4.57 2.83-7.11 0.06c-1.5-1.68-2.72-2.72-4.28-4.39c-0.35-0.46-1.21-1.44-1.56-1.96z" />
		<path id="Layer" class="s9" d="m420.05 94.72c-18.47 0-33.4-14.93-33.4-33.4c0-18.47 14.93-33.4 33.4-33.4c18.47 0 33.4 14.93 33.4 33.4c0 18.47-14.93 33.4-33.4 33.4z" />
		<g id="Layer">
			<path id="Layer" class="s9" d="m420.11 93.97c-18.28 0-33.05-14.77-33.05-33.05c0-18.28 14.77-33.05 33.05-33.05c18.28 0 33.05 14.77 33.05 33.05c0 18.28-14.77 33.05-33.05 33.05z" />
			<path id="Layer" class="s10" d="m420.34 94.09c-18.28 0-33.05-14.77-33.05-33.05c0-18.28 14.77-33.05 33.05-33.05c18.28 0 33.05 14.77 33.05 33.05c0 18.28-14.77 33.05-33.05 33.05z" />
		</g>
		<path id="Layer" class="s4" d="m420.05 74.04c-7.03 0-12.71-5.68-12.71-12.71c0-7.03 5.68-12.71 12.71-12.71c7.03 0 12.71 5.68 12.71 12.71c0 7.03-5.68 12.71-12.71 12.71z" />
		<path id="Layer" class="s10" d="m173.42 304.83c-15.05 0-27.22-12.17-27.22-27.22c0-15.05 12.17-27.22 27.22-27.22c15.05 0 27.22 12.17 27.22 27.22c0 15.05-12.17 27.22-27.22 27.22z" />
		<g id="Layer">
			<path id="Layer" class="s8" d="m173.59 304.89c-15.05 0-27.22-12.17-27.22-27.22c0-15.05 12.17-27.22 27.22-27.22c15.05 0 27.22 12.17 27.22 27.22c0 15.05-12.17 27.22-27.22 27.22z" />
		</g>
		<path id="Layer" class="s11" d="m173.77 291.94c-7.83 0-14.16-6.41-14.16-14.33c0-7.92 6.33-14.33 14.16-14.33c7.83 0 14.16 6.41 14.16 14.33c0 7.92-6.33 14.33-14.16 14.33z" />
		<path id="Layer" class="s10" d="m341.17 351.52c-20.32 0-36.75-16.43-36.75-36.75c0-20.32 16.43-36.75 36.75-36.75c20.32 0 36.75 16.43 36.75 36.75c0 20.32-16.43 36.75-36.75 36.75z" />
		<g id="Layer">
			<path id="Layer" class="s8" d="m341.4 351.69c-20.32 0-36.75-16.43-36.75-36.75c0-20.32 16.43-36.75 36.75-36.75c20.32 0 36.75 16.43 36.75 36.75c0 20.32-16.43 36.75-36.75 36.75z" />
		</g>
		<path id="Layer" class="s11" d="m341.63 334.13c-10.61 0-19.18-8.65-19.18-19.36c0-10.7 8.58-19.36 19.18-19.36c10.61 0 19.18 8.65 19.18 19.36c0 10.7-8.58 19.36-19.18 19.36z" />
		<path id="Layer" class="s10" d="m138.35 130.61c-14.92 0-26.99-12.06-26.99-26.99c0-14.92 12.06-26.99 26.99-26.99c14.92 0 26.99 12.06 26.99 26.99c0 14.92-12.06 26.99-26.99 26.99z" />
		<g id="Layer">
			<path id="Layer" class="s8" d="m138.58 130.67c-14.92 0-26.99-12.06-26.99-26.99c0-14.92 12.06-26.99 26.99-26.99c14.92 0 26.99 12.06 26.99 26.99c0 14.92-12.06 26.99-26.99 26.99z" />
		</g>
		<path id="Layer" class="s10" d="m127.83 351.35c-8.6 0-15.54-6.95-15.54-15.54c0-8.6 6.95-15.54 15.54-15.54c8.6 0 15.54 6.95 15.54 15.54c0 8.6-6.95 15.54-15.54 15.54z" />
		<g id="Layer">
			<path id="Layer" class="s10" d="m127.83 351.35c-8.6 0-15.54-6.95-15.54-15.54c0-8.6 6.95-15.54 15.54-15.54c8.6 0 15.54 6.95 15.54 15.54c0 8.6-6.95 15.54-15.54 15.54z" />
			<path id="Layer" class="s8" d="m127.83 351c-8.5 0-15.37-6.87-15.37-15.37c0-8.5 6.87-15.37 15.37-15.37c8.5 0 15.37 6.87 15.37 15.37c0 8.5-6.87 15.37-15.37 15.37z" />
			<path id="Layer" class="s8" d="m127.94 351.06c-8.5 0-15.37-6.87-15.37-15.37c0-8.5 6.87-15.37 15.37-15.37c8.5 0 15.37 6.87 15.37 15.37c0 8.5-6.87 15.37-15.37 15.37z" />
		</g>
		<path id="Layer" class="s5" d="m194.4 329.04c0.23 0.46 0.29 0.92 0.35 1.44c0.69 4.57 2.89 8.38 5.84 11.73c2.77 3.12 6.24 5.49 10.34 6.65c1.04 0.29 2.08 0.58 3.12 0.87c-1.39 0.64-2.2 1.04-2.83 1.5c-4.68 2.43-7.57 6.3-9.3 11.21c-0.35 1.04-0.75 2.08-1.16 3.06c-0.46 1.27-1.44 1.73-2.77 1.73c-1.21 0-2.14-0.52-2.6-1.68c-0.29-0.75-0.64-1.5-0.87-2.31c-1.73-5.66-5.2-9.94-10.57-12.48c-1.91-0.92-3.93-1.68-5.84-2.48c-0.29-0.12-0.64-0.23-0.98-0.35c-1.1-0.58-2.02-1.33-2.02-2.66c0.06-1.33 0.87-2.31 2.14-2.77c1.16-0.46 2.31-0.87 3.47-1.27c6.13-2.37 11.15-6.13 13.7-12.19z" />
		<path id="Layer" class="s6" d="m202.2 361.29c-0.23-0.46-0.29-0.92-0.35-1.44c-0.69-4.57-2.89-8.38-5.84-11.73c-2.77-3.12-6.24-5.49-10.34-6.65c-1.04-0.29-2.08-0.58-3.12-0.87c1.39-0.64 2.2-1.04 2.83-1.5c4.68-2.43 7.57-6.3 9.3-11.21c0.35-1.04 0.75-2.08 1.16-3.06c0.46-1.27 1.44-1.73 2.77-1.73c1.21 0 2.14 0.52 2.6 1.68c0.29 0.75 0.64 1.5 0.87 2.31c1.73 5.66 5.2 9.94 10.57 12.48c1.91 0.92 3.93 1.68 5.84 2.48c0.29 0.12 0.64 0.23 0.98 0.35c1.1 0.58 2.02 1.33 2.02 2.66c-0.06 1.33-0.87 2.31-2.14 2.77c-1.16 0.46-2.31 0.87-3.47 1.27c-6.07 2.37-11.15 6.13-13.7 12.19z" />
	</g>
</svg>