<svg version="1.2" baseProfile="tiny-ps" xmlns="http://www.w3.org/2000/svg" viewBox="0 0 512 512" width="512" height="512">
	<title>4_terra-svg</title>
	<style>
		tspan { white-space:pre }
		.s0 { fill: #4a405f } 
		.s1 { fill: #af86da } 
		.s2 { fill: #be9cdf } 
		.s3 { fill: #ae96c1 } 
		.s4 { fill: #332947 } 
		.s5 { fill: #ffffff } 
		.s6 { fill: #fac600 } 
		.s7 { fill: #e2772c } 
		.s8 { fill: #fea613 } 
		.s9 { fill: #fff364 } 
		.s10 { fill: #f9c502 } 
	</style>
	<g id="Layer_6_xA0_Изображение_1_">
		<path id="Layer" class="s0" d="m255.59 507.92c-139.54 0-252.33-112.79-252.33-252.33c0-139.54 112.79-252.33 252.33-252.33c139.54 0 252.33 112.79 252.33 252.33c0 139.54-112.79 252.33-252.33 252.33z" />
		<path id="Layer" class="s1" d="m42.03 86.27c0.35 0.71 0.41 1.35 0.53 2.06c0.94 6.47 4.12 11.94 8.3 16.71c3.94 4.47 8.88 7.82 14.77 9.47c1.47 0.41 3 0.82 4.47 1.24c-2 0.88-3.12 1.53-4.06 2.12c-6.65 3.47-10.77 9-13.24 16c-0.53 1.47-1.06 2.94-1.59 4.41c-0.71 1.82-2.12 2.47-3.94 2.47c-1.71 0-3-0.71-3.71-2.41c-0.41-1.06-0.88-2.18-1.24-3.29c-2.47-8.12-7.41-14.12-15.06-17.83c-2.71-1.29-5.59-2.41-8.35-3.59c-0.47-0.18-0.94-0.29-1.35-0.53c-1.53-0.76-2.94-1.88-2.82-3.77c0.06-1.94 1.24-3.24 3.06-3.94c1.65-0.65 3.29-1.18 4.94-1.82c8.47-3.29 15.65-8.65 19.3-17.3z" />
		<path id="Layer" class="s2" d="m53.09 132.22c-0.35-0.71-0.35-1.35-0.47-2.06c-0.94-6.47-4.12-11.94-8.3-16.71c-3.94-4.47-8.88-7.82-14.77-9.47c-1.47-0.41-3-0.82-4.47-1.24c2-0.88 3.12-1.53 4.06-2.12c6.65-3.47 10.77-9 13.24-16c0.53-1.47 1.06-2.94 1.59-4.41c0.71-1.82 2.12-2.47 3.94-2.47c1.71 0 3 0.71 3.71 2.41c0.41 1.06 0.88 2.18 1.24 3.29c2.47 8.12 7.41 14.12 15.06 17.83c2.71 1.29 5.59 2.41 8.35 3.59c0.47 0.18 0.94 0.29 1.35 0.53c1.53 0.76 2.94 1.88 2.82 3.77c-0.06 1.94-1.24 3.24-3.06 3.94c-1.65 0.65-3.29 1.18-4.94 1.82c-8.47 3.29-15.65 8.65-19.36 17.3z" />
	</g>
	<g id="Layer_48_copy_2_xA0_Изображение_1_">
		<path id="Layer" fill-rule="evenodd" class="s3" d="m68.1 237.94c1.47-4.71 3.06-9.41 4.47-14.18c3.53-12 10.18-22.47 16.77-32.83c6.77-10.65 13.88-21.12 20.94-31.53c5.59-8.24 13.94-13.3 21.83-18.94c5.24-3.77 10.77-7.18 16.12-10.77c3.12-2.12 4.24-4.59 2.53-8.53c-2-4.53-3.41-9.41-4.82-14.18c-0.94-3.29 0.29-5.77 3.71-6.88c9.82-3.24 18.88-7.94 27.06-14.35c3.35-2.59 6.12-2.29 8.65 0.94c3.18 4.06 6.24 8.24 9.3 12.47c2.18 3 4.94 2.71 7.88 1.59c10.94-4.24 21.83-8.65 32.89-12.59c9.47-3.35 19.41-3.12 29.3-2.77c8 0.29 16.06 0.65 24.06 0.71c15.59 0.12 30.83 2.29 45.42 8.06c0.82 0.29 1.82 0.47 2.41 1c1.41 1.35 2.65 2.94 4 4.41c-1.59 0.41-3.12 1.06-4.71 1.18c-33.42 1.88-64.36 11.53-92.84 29.24c-5.18 3.24-10.88 5.65-13.71 11.41c-0.71 1.47-0.88 3.47-0.59 5.06c0.53 2.94 1.47 5.88 2.47 8.71c2.47 6.71 1.18 12.71-3.06 18.18c-1.76 2.24-1.65 4.06-0.35 6.59c23.24 44.83 46.36 89.66 69.54 134.49c15.41 29.89 30.89 59.71 46.42 89.48c1.29 2.53 0.82 4.18-0.94 5.88c-4.47 4.29-9.71 7.24-15.83 8.53c-2.53 0.53-4.41 0.35-5.94-2.53c-20.59-37.77-41.36-75.42-62.07-113.13c-19.71-35.89-39.42-71.77-59.13-107.66c-1.35-2.41-2.65-4.06-5.82-3.65c-8.88 1.24-14.35-4.24-19.41-10.41c-0.12-0.18-0.18-0.35-0.35-0.47c-2.53-2.35-3.29-7.12-8.3-6.12c-3.47 0.71-7.35 0.82-10.41 2.41c-12.18 6.29-24.3 12.71-36.06 19.77c-14.12 8.41-25.53 20-36.18 32.42c-4 4.65-7.88 9.47-11.88 14.18c-0.24 0.24-1.47 0.06-1.82-0.29c-0.71-0.71-1.12-1.71-1.65-2.53c0.12-0.76 0.12-1.59 0.12-2.35zm265.92 167.2c-0.41-0.88-0.59-1.29-0.82-1.76c-4.06-8-8.06-16-12.18-23.94c-7-13.53-14.12-27-21.12-40.53c-7.35-14.18-14.71-28.36-22.06-42.54c-5.12-9.88-10.3-19.71-15.36-29.65c-5.12-10-10.06-20-15.18-30c-4.24-8.24-8.65-16.36-12.94-24.53c-4.35-8.24-8.41-16.65-13-24.77c-3.71-6.65-4.88-13.24-0.18-19.59c3.29-4.47 2.35-8.65 0.82-13.24c-0.88-2.59-1.71-5.29-2.12-8c-1.35-9.71 4.65-15.88 11.71-20.24c10.47-6.53 21.59-12.06 32.65-17.65c11.94-6.06 24.77-9.77 37.95-12.24c0.47-0.12 0.94-0.41 1.35-0.65c-0.65-0.29-1.29-0.82-1.94-0.82c-5.47-0.24-10.94-0.41-16.41-0.65c-7.59-0.29-15.24-0.88-22.83-0.76c-6.29 0.06-12.88-0.18-18.71 1.65c-13.06 4-25.71 9.12-38.53 13.88c-4.65 1.71-12.65 0.35-15.88-3.29c-2.77-3.12-5.12-6.65-7.88-9.77c-0.53-0.59-2.35-0.76-3.06-0.35c-3.24 2-6.12 4.65-9.47 6.35c-3.82 2-8.06 3.18-12.06 4.88c-0.59 0.24-1 1.82-0.82 2.59c0.76 2.77 1.82 5.47 2.82 8.18c2.29 6.41 0.29 15.06-4.65 18.47c-6.88 4.77-13.94 9.3-20.83 14.06c-9.41 6.53-17.88 14.18-24.06 23.94c-6.94 11-13.71 22.06-20.53 33.18c-0.76 1.24-1.24 2.71-1.82 4.06c1.18-0.94 2.53-1.82 3.53-2.88c9.71-10.3 21.3-18.24 33.36-25.47c6.71-4.06 13.77-7.59 20.83-11.12c4.24-2.12 8.59-4.24 13.18-5.35c6.12-1.53 12.53-2.41 17.83 2.71c2.12 2.06 4.29 4.18 6.18 6.41c3 3.53 5.59 7.47 11.3 6.77c5.53-0.71 10.06 2.06 13.18 6.06c2.88 3.71 4.53 8.35 6.82 12.53c6.88 12.35 13.88 24.59 20.71 36.95c5.53 10.06 10.77 20.36 16.3 30.42c7.3 13.3 14.77 26.53 22.12 39.83c9.18 16.71 18.18 33.53 27.36 50.24c8.88 16.18 17.83 32.3 26.77 48.42c0.41 0.76 1.59 1.88 1.88 1.71c2.18-0.88 4-2.24 5.82-3.47z" />
		<path id="Layer" class="s4" d="m334.01 405.14c-1.82 1.24-3.65 2.53-5.65 3.65c-0.24 0.12-1.47-1-1.88-1.71c-8.94-16.12-17.88-32.24-26.77-48.42c-9.18-16.71-18.18-33.53-27.36-50.24c-7.3-13.3-14.83-26.53-22.12-39.83c-5.53-10.12-10.77-20.36-16.3-30.42c-6.82-12.35-13.83-24.65-20.71-36.95c-2.29-4.18-3.94-8.82-6.82-12.53c-3.12-4-7.65-6.77-13.18-6.06c-5.65 0.71-8.24-3.24-11.3-6.77c-1.94-2.24-4.06-4.35-6.18-6.41c-5.24-5.12-11.71-4.29-17.83-2.71c-4.53 1.12-8.94 3.24-13.18 5.35c-7.06 3.47-14.12 7.06-20.83 11.12c-12 7.24-23.65 15.12-33.36 25.47c-1.06 1.12-2.35 1.94-3.53 2.88c0.59-1.35 1.06-2.82 1.82-4.06c6.77-11.06 13.53-22.18 20.53-33.18c6.18-9.77 14.59-17.41 24.06-23.94c6.88-4.77 13.94-9.3 20.83-14.06c4.88-3.41 6.94-12.06 4.65-18.47c-1-2.71-2.06-5.41-2.82-8.18c-0.24-0.76 0.24-2.35 0.82-2.59c3.94-1.76 8.24-2.94 12.06-4.88c3.35-1.71 6.24-4.35 9.47-6.35c0.71-0.41 2.53-0.24 3.06 0.35c2.77 3.18 5.06 6.65 7.88 9.77c3.24 3.65 11.24 5 15.88 3.29c12.83-4.77 25.47-9.88 38.53-13.88c5.88-1.82 12.47-1.59 18.71-1.65c7.59-0.06 15.24 0.53 22.83 0.76c5.47 0.24 10.94 0.35 16.41 0.65c0.65 0.06 1.29 0.53 1.94 0.82c-0.47 0.24-0.88 0.53-1.35 0.65c-13.18 2.47-25.94 6.18-37.95 12.24c-11.06 5.59-22.18 11.12-32.65 17.65c-7.06 4.41-13.06 10.53-11.71 20.24c0.35 2.71 1.24 5.41 2.12 8c1.53 4.53 2.47 8.71-0.82 13.24c-4.71 6.35-3.53 12.94 0.18 19.59c4.53 8.12 8.65 16.53 13 24.77c4.29 8.18 8.71 16.3 12.94 24.53c5.12 9.94 10.06 20 15.18 30c5.06 9.88 10.24 19.77 15.36 29.65c7.35 14.18 14.65 28.36 22.06 42.54c7 13.53 14.12 27 21.12 40.53c4.12 7.94 8.12 16 12.18 23.94c0.06 0.29 0.29 0.76 0.65 1.59z" />
	</g>
	<g id="Слой_6">
		<path id="Layer" class="s1" d="m444.68 268.83c-2.82 1.71-7.41 3.24-9.65 5.59c-5.18 5.35-6.24 7.41-8.71 15.65c-0.41 1.35-1.41 4.35-1.76 5.77c-2.12 8.06-1.76 16.3-1.76 24.59c0 1.88 0.12 3.71 0 5.59c-0.12 2.88-1.88 4.65-4.59 4.65c-2.65 0-4.47-1.76-4.47-4.77c-0.06-6.47 0.24-12.94-0.12-19.41c-0.47-9.12-3.12-17.71-7.65-25.59c-4.47-7.77-11.47-11.35-20.06-13.35c-10.24-2.41-20.53-2.29-30.89-2.35c-1.41 0-2.88-0.29-4.24-0.76c-1.65-0.53-2.35-2-2.35-3.71c0-1.71 0.59-3.12 2.29-3.77c1.18-0.41 2.41-0.76 3.65-0.76c4.53-0.12 9-0.12 13.53 0c8.53 0.18 16.47-0.88 24.53-3.24c7.47-3.82 10.82-7.77 14.24-13.35c0.47-0.71 1.06-1.35 1.53-2.06c0.65 1.18 1.24 2.41 1.88 3.59c4.53 9.24 11.06 16.65 19.89 21.94c4.47 2.82 9.12 5.65 14.71 5.77z" />
		<path id="Layer" class="s2" d="m390.08 253.65c3.53-1 5.82-3.18 8.35-5.24c6.12-5.06 8.77-12.3 11.18-19.59c2.82-8.77 2.41-17.77 2.41-26.77c0-1.88-0.12-3.71 0-5.59c0.12-2.88 1.88-4.65 4.59-4.65c2.65 0 4.47 1.76 4.47 4.77c0.06 6.47-0.24 12.94 0.12 19.41c0.47 9.12 3.12 17.71 7.65 25.59c4.47 7.77 11.47 11.35 20.06 13.35c10.24 2.41 20.53 2.29 30.89 2.35c1.41 0 2.88 0.29 4.24 0.76c1.65 0.53 2.35 2 2.35 3.71c0 1.71-0.59 3.12-2.29 3.77c-1.18 0.41-2.41 0.76-3.65 0.76c-4.53 0.12-9 0.12-13.53 0c-8.53-0.18-16.71 1.88-24.71 4.24c-6.41 1.88-9.77 6.41-13.18 11.94c-1.06 2.41-1.18 2.82-1.47 3.82c-0.65-1.18-2.18-3.82-2.77-5.06c-4.53-9.24-11.06-16.65-19.89-21.94c-4.59-2.71-9.18-5.59-14.83-5.65z" />
		<path id="Layer" class="s5" d="m147.99 368.14c1 0 1.94 0 2.94 0c0.53 1.12 1.24 2.18 1.65 3.35c1.59 4.41 6.29 8.71 10.59 10.71c1.71 0.82 1.41 0.88 3.12 1.82c0 0.76 0 1.59 0 2.35c-0.94 0.47-1.82 1.12-2.82 1.41c-5.35 1.59-8.71 5.24-10.88 10.18c-0.59 1.29-1.41 2.47-2.18 3.71c-0.76 0-1.59 0-2.35 0c-0.41-0.76-1.41-2.59-1.65-3.41c-2.12-7.12-6.59-10.12-13.65-11.88c0-1 0-1.94 0-2.94c0.94-0.47 2.24-0.82 3.35-1.29c5.12-2.18 8.3-5.77 10.35-10.71c0.53-1.35 0.88-2 1.53-3.29z" />
		<path id="Layer" class="s2" d="m164.34 334.9c-0.47-0.71-0.47-1.59 0-2.24c0.47-0.71 1.18-1.41 1.76-2.06c1.65-1.76 3.06-3.06 4.59-4.82c2.29-2.53 4.18-2.53 6.47 0.06c1.47 1.65 3.12 3.06 4.59 4.65c2.35 2.41 2.24 3.77-0.06 6.35c-1.35 1.53-2.82 2.94-4.18 4.47c-2 2.18-4.65 2.88-7.24 0.06c-1.53-1.71-2.77-2.77-4.35-4.47c-0.35-0.41-1.24-1.47-1.59-2z" />
		<path id="Layer" class="s5" d="m187.17 124.52c-0.47-0.71-0.47-1.59 0-2.24c0.47-0.71 1.18-1.41 1.76-2.06c1.65-1.76 3.06-3.06 4.59-4.82c2.29-2.53 4.18-2.53 6.47 0.06c1.47 1.65 3.12 3.06 4.59 4.65c2.35 2.41 2.24 3.77-0.06 6.35c-1.35 1.53-2.82 2.94-4.18 4.47c-2 2.18-4.65 2.88-7.24 0.06c-1.53-1.71-2.77-2.77-4.35-4.47c-0.35-0.41-1.24-1.41-1.59-2z" />
		<path id="Layer" class="s5" d="m449.97 171.17c1 0 1.94 0 2.94 0c0.53 1.12 1.24 2.18 1.65 3.35c1.59 4.41 6.29 8.71 10.59 10.71c1.71 0.82 1.41 0.88 3.12 1.82c0 0.76 0 1.59 0 2.35c-0.94 0.47-1.82 1.12-2.82 1.41c-5.35 1.59-8.71 5.24-10.88 10.18c-0.59 1.29-1.41 2.47-2.18 3.71c-0.76 0-1.59 0-2.35 0c-0.41-0.76-1.41-2.59-1.65-3.41c-2.12-7.12-6.59-10.12-13.65-11.88c0-1 0-1.94 0-2.94c0.94-0.47 2.24-0.82 3.35-1.29c5.12-2.18 8.3-5.77 10.35-10.71c0.53-1.29 0.94-1.94 1.53-3.29z" />
		<path id="Layer" class="s6" d="m281.07 148.34c-0.47-0.71-0.47-1.59 0-2.24c0.47-0.71 1.18-1.41 1.76-2.06c1.65-1.76 3.06-3.06 4.59-4.82c2.29-2.53 4.18-2.53 6.47 0.06c1.47 1.65 3.12 3.06 4.59 4.65c2.35 2.41 2.24 3.77-0.06 6.35c-1.35 1.53-2.82 2.94-4.18 4.47c-2 2.18-4.65 2.88-7.24 0.06c-1.53-1.71-2.77-2.77-4.35-4.47c-0.35-0.41-1.18-1.41-1.59-2z" />
		<path id="Layer" class="s6" d="m303.25 457.91c-0.47-0.71-0.47-1.59 0-2.24c0.47-0.71 1.18-1.41 1.76-2.06c1.65-1.76 3.06-3.06 4.59-4.82c2.29-2.53 4.18-2.53 6.47 0.06c1.47 1.65 3.12 3.06 4.59 4.65c2.35 2.41 2.24 3.77-0.06 6.35c-1.35 1.53-2.82 2.94-4.18 4.47c-2 2.18-4.65 2.88-7.24 0.06c-1.53-1.71-2.77-2.77-4.35-4.47c-0.35-0.41-1.24-1.41-1.59-2z" />
		<path id="Layer" class="s7" d="m319.48 92.75c-8.49 0-15.36-6.86-15.36-15.36c0-8.49 6.86-15.36 15.36-15.36c8.49 0 15.36 6.86 15.36 15.36c0 8.49-6.86 15.36-15.36 15.36z" />
		<g id="Layer">
			<path id="Layer" class="s7" d="m319.48 92.45c-8.43 0-15.24-6.81-15.24-15.24c0-8.43 6.81-15.24 15.24-15.24c8.43 0 15.24 6.81 15.24 15.24c0 8.43-6.81 15.24-15.24 15.24z" />
			<path id="Layer" class="s8" d="m319.6 92.51c-8.43 0-15.24-6.81-15.24-15.24c0-8.43 6.81-15.24 15.24-15.24c8.43 0 15.24 6.81 15.24 15.24c0 8.43-6.81 15.24-15.24 15.24z" />
		</g>
		<path id="Layer" class="s5" d="m319.48 83.27c-3.25 0-5.88-2.63-5.88-5.88c0-3.25 2.63-5.88 5.88-5.88c3.25 0 5.88 2.63 5.88 5.88c0 3.25-2.63 5.88-5.88 5.88z" />
		<path id="Layer" class="s8" d="m152.93 92.75c-12.69 0-22.94-10.26-22.94-22.94c0-12.69 10.26-22.94 22.94-22.94c12.69 0 22.94 10.26 22.94 22.94c0 12.69-10.26 22.94-22.94 22.94z" />
		<g id="Layer">
			<path id="Layer" class="s6" d="m153.11 92.81c-12.69 0-22.94-10.26-22.94-22.94c0-12.69 10.26-22.94 22.94-22.94c12.69 0 22.94 10.26 22.94 22.94c0 12.69-10.26 22.94-22.94 22.94z" />
		</g>
		<path id="Layer" class="s9" d="m153.23 81.92c-6.64 0-12-5.42-12-12.12c0-6.7 5.36-12.12 12-12.12c6.64 0 12 5.42 12 12.12c0 6.7-5.36 12.12-12 12.12z" />
		<path id="Layer" class="s8" d="m199.47 218.7c-6.99 0-12.65-5.65-12.65-12.65c0-6.99 5.65-12.65 12.65-12.65c6.99 0 12.65 5.65 12.65 12.65c0 6.99-5.65 12.65-12.65 12.65z" />
		<g id="Layer">
			<path id="Layer" class="s8" d="m199.47 218.7c-6.99 0-12.65-5.65-12.65-12.65c0-6.99 5.65-12.65 12.65-12.65c6.99 0 12.65 5.65 12.65 12.65c0 6.99-5.65 12.65-12.65 12.65z" />
			<path id="Layer" class="s6" d="m199.53 218.47c-6.93 0-12.53-5.6-12.53-12.53c0-6.93 5.6-12.53 12.53-12.53c6.93 0 12.53 5.6 12.53 12.53c0 6.93-5.6 12.53-12.53 12.53z" />
			<path id="Layer" class="s6" d="m199.58 218.47c-6.93 0-12.53-5.6-12.53-12.53c0-6.93 5.6-12.53 12.53-12.53c6.93 0 12.53 5.6 12.53 12.53c0 6.93-5.6 12.53-12.53 12.53z" />
		</g>
		<path id="Layer" class="s7" d="m237.82 188.82c-13.76 0-24.89-11.12-24.89-24.89c0-13.76 11.12-24.89 24.89-24.89c13.76 0 24.89 11.12 24.89 24.89c0 13.76-11.12 24.89-24.89 24.89z" />
		<g id="Layer">
			<path id="Layer" class="s7" d="m237.88 188.29c-13.63 0-24.65-11.02-24.65-24.65c0-13.63 11.02-24.65 24.65-24.65c13.63 0 24.65 11.02 24.65 24.65c0 13.63-11.02 24.65-24.65 24.65z" />
			<path id="Layer" class="s8" d="m238.06 188.41c-13.63 0-24.65-11.02-24.65-24.65c0-13.63 11.02-24.65 24.65-24.65c13.63 0 24.65 11.02 24.65 24.65c0 13.63-11.02 24.65-24.65 24.65z" />
		</g>
	</g>
	<g id="Слой_7">
		<path id="Layer" class="s5" d="m325.6 384.79l-1.41 0.59c-1.94 0.82-4.18-0.12-5-2.06l-76.36-182.67c-0.82-1.94 0.12-4.18 2.06-5l1.41-0.59c1.94-0.82 4.18 0.12 5 2.06l76.36 182.67c0.82 1.94-0.12 4.18-2.06 5z" />
		<path id="Layer" class="s5" d="m302.95 93.86l1.06 1.06c1.47 1.47 1.47 3.94-0.06 5.41l-40.48 39.95c-1.47 1.47-3.94 1.47-5.41-0.06l-1.06-1.06c-1.47-1.47-1.47-3.94 0.06-5.41l40.48-39.89c1.47-1.47 3.94-1.47 5.41 0z" />
		<path id="Layer" class="s5" d="m178.29 205.76l0.18 1.53c0.24 2.12-1.29 4-3.41 4.24l-42.59 4.65c-2.12 0.24-4-1.29-4.24-3.41l-0.18-1.53c-0.24-2.12 1.29-4 3.41-4.24l42.59-4.65c2.06-0.18 4 1.35 4.24 3.41z" />
		<path id="Layer" class="s5" d="m96.81 194.47l-1.41-0.59c-1.94-0.82-2.82-3.06-2-5l39.12-91.48c0.82-1.94 3.06-2.82 5-2l1.41 0.59c1.94 0.82 2.82 3.06 2 5l-39.12 91.48c-0.82 1.94-3.06 2.82-5 2z" />
		<path id="Layer" class="s5" d="m297.07 76.45l-0.18 1.53c-0.24 2.12-2.12 3.65-4.18 3.41l-108.31-10.82c-2.12-0.24-3.65-2.12-3.41-4.18l0.18-1.53c0.24-2.12 2.12-3.65 4.18-3.41l108.31 10.82c2.12 0.24 3.65 2.12 3.41 4.18z" />
		<path id="Layer" class="s8" d="m340.54 377.61c0.35 0.71 0.41 1.35 0.53 2.06c0.94 6.47 4.12 11.94 8.3 16.71c3.94 4.47 8.88 7.82 14.77 9.47c1.47 0.41 3 0.82 4.47 1.24c-2 0.88-3.12 1.53-4.06 2.12c-6.65 3.47-10.77 9-13.24 16c-0.53 1.47-1.06 2.94-1.59 4.41c-0.71 1.82-2.12 2.47-3.94 2.47c-1.71 0-3-0.71-3.71-2.41c-0.41-1.06-0.88-2.18-1.24-3.29c-2.47-8.12-7.41-14.12-15.06-17.83c-2.71-1.29-5.59-2.41-8.35-3.59c-0.47-0.18-0.94-0.29-1.35-0.53c-1.53-0.76-2.94-1.88-2.82-3.77c0.06-1.94 1.24-3.24 3.06-3.94c1.65-0.65 3.29-1.18 4.94-1.82c8.47-3.29 15.65-8.65 19.3-17.3z" />
		<path id="Layer" class="s10" d="m351.61 423.56c-0.35-0.71-0.35-1.35-0.47-2.06c-0.94-6.47-4.12-11.94-8.3-16.71c-3.94-4.47-8.88-7.82-14.77-9.47c-1.47-0.41-3-0.82-4.47-1.24c2-0.88 3.12-1.53 4.06-2.12c6.65-3.47 10.77-9 13.24-16c0.53-1.47 1.06-2.94 1.59-4.41c0.71-1.82 2.12-2.47 3.94-2.47c1.71 0 3 0.71 3.71 2.41c0.41 1.06 0.88 2.18 1.24 3.29c2.47 8.12 7.41 14.12 15.06 17.83c2.71 1.29 5.59 2.41 8.35 3.59c0.47 0.18 0.94 0.29 1.35 0.53c1.53 0.76 2.94 1.88 2.82 3.77c-0.06 1.94-1.24 3.24-3.06 3.94c-1.65 0.65-3.29 1.18-4.94 1.82c-8.47 3.29-15.65 8.65-19.36 17.3z" />
		<path id="Layer" class="s8" d="m73.98 193.17c0.35 0.71 0.41 1.35 0.53 2.06c0.94 6.47 4.12 11.94 8.3 16.71c3.94 4.47 8.88 7.82 14.77 9.47c1.47 0.41 3 0.82 4.47 1.24c-2 0.88-3.12 1.53-4.06 2.12c-6.65 3.47-10.77 9-13.24 16c-0.53 1.47-1.06 2.94-1.59 4.41c-0.71 1.82-2.12 2.47-3.94 2.47c-1.71 0-3-0.71-3.71-2.41c-0.41-1.06-0.88-2.18-1.24-3.29c-2.47-8.12-7.41-14.12-15.06-17.83c-2.71-1.29-5.59-2.41-8.35-3.59c-0.47-0.18-0.94-0.29-1.35-0.53c-1.53-0.76-2.94-1.88-2.82-3.77c0.06-1.94 1.24-3.24 3.06-3.94c1.65-0.65 3.29-1.18 4.94-1.82c8.47-3.29 15.65-8.65 19.3-17.3z" />
		<path id="Layer" class="s10" d="m85.04 239.12c-0.35-0.71-0.35-1.35-0.47-2.06c-0.94-6.47-4.12-11.94-8.3-16.71c-3.94-4.47-8.88-7.82-14.77-9.47c-1.47-0.41-3-0.82-4.47-1.24c2-0.88 3.12-1.53 4.06-2.12c6.65-3.47 10.77-9 13.24-16c0.53-1.47 1.06-2.94 1.59-4.41c0.71-1.82 2.12-2.47 3.94-2.47c1.71 0 3 0.71 3.71 2.41c0.41 1.06 0.88 2.18 1.24 3.29c2.47 8.12 7.41 14.12 15.06 17.83c2.71 1.29 5.59 2.41 8.35 3.59c0.47 0.18 0.94 0.29 1.35 0.53c1.53 0.76 2.94 1.88 2.82 3.77c-0.06 1.94-1.24 3.24-3.06 3.94c-1.65 0.65-3.29 1.18-4.94 1.82c-8.47 3.29-15.65 8.65-19.36 17.3z" />
	</g>
</svg>