<svg xmlns="http://www.w3.org/2000/svg" viewBox="0 0 57 58" width="57" height="58">
	<style>
		tspan { white-space:pre }
		.shp0 { fill: #b04141 } 
		.shp1 { fill: #4fba6f } 
		.shp2 { fill: #f0c419 } 
		.shp3 { fill: #e64c3c } 
		.shp4 { fill: #fb7b76 } 
	</style>
	<g id="Page-1">
		<g id="011---Strength">
			<path id="Shape" class="shp0" d="M17.85 50.3C21.28 51.85 22.78 58 22.78 58L47.88 57.93C47.41 56.95 46.88 56.01 46.28 55.1C45.81 54.14 45.41 53.13 45.1 52.1C44.51 50.12 44.1 48.08 43.88 46.02C43.51 42.85 43.99 39.64 45.27 36.72C46.39 34.15 48.35 32.12 49.84 29.76C51.32 27.46 52.11 24.79 52.13 22.06C52.19 19.29 51.85 16.53 51.13 13.86C50.18 10.62 48.2 7.78 45.49 5.77C40.53 1.88 35.47 -0.29 29.07 0.03C25.86 0.26 22.68 0.71 19.54 1.4C16.12 2.09 12.5 3.37 10.05 5.96C8.38 7.74 7.08 9.85 6.25 12.16C5.86 13.3 5.54 14.47 5.3 15.66C4.89 16.95 4.4 18.21 3.82 19.43C3.65 19.81 3.58 20.22 3.61 20.62C3.8 22.01 5.87 22.6 5.89 24.03C5.87 24.34 5.77 24.65 5.61 24.92C4.39 27.49 2.9 29.92 1.15 32.17C0.74 32.67 -0.1 33.67 0.01 34.38C0.08 34.89 0.69 35.31 1.07 35.59C1.87 36.19 3.5 36.59 3.7 37.66C3.8 38.21 3.74 38.77 3.51 39.28C2.96 40.45 2.34 41.07 2.78 41.44C3.21 41.8 4.38 42.68 4.38 42.68C4.38 42.68 3.27 44.09 3.88 44.53C4.64 45.07 5.61 45.32 5.87 46.33C5.95 47.13 5.87 47.94 5.63 48.71C5.56 49.46 5.65 50.22 5.92 50.93C6.28 52.35 7.7 53.23 9.13 52.93C12.08 52.21 14.99 51.33 17.85 50.3Z" />
			<path id="Shape" class="shp1" d="M27.47 24.01C28.05 25.09 27.75 26.43 26.77 27.17L26.76 27.18C26.16 27.62 25.4 27.78 24.68 27.61C23.96 27.43 23.35 26.95 23.02 26.29C19.41 19.32 20.72 10.82 26.27 5.27L29.81 8.81C25.8 12.82 24.85 18.98 27.47 24.01Z" />
			<path id="Shape" class="shp2" d="M51.71 5.29L48.19 8.82C45.76 6.38 42.45 5 39 5C35.55 5 32.25 6.37 29.81 8.81L26.27 5.27C29.64 1.89 34.22 -0.01 38.99 -0.01C43.77 0 48.34 1.9 51.71 5.29Z" />
			<path id="Shape" class="shp3" d="M54.92 26.4C54.57 27.03 53.97 27.49 53.26 27.64C52.55 27.79 51.81 27.62 51.24 27.18L51.23 27.17C50.26 26.43 49.96 25.1 50.52 24.02C51.81 21.55 52.28 18.73 51.85 15.97C51.43 13.26 50.14 10.75 48.19 8.82L51.71 5.29C57.31 10.85 58.61 19.42 54.92 26.4Z" />
			<path id="Shape" class="shp4" d="M36.47 23.39L44.89 14.86C45.06 14.69 45.32 14.66 45.51 14.79C45.71 14.91 45.8 15.16 45.71 15.38L41.53 26.61L36.47 23.39Z" />
			<path id="Oval" class="shp3" d="M39 28C37.34 28 36 26.66 36 25C36 23.34 37.34 22 39 22C40.66 22 42 23.34 42 25C42 26.66 40.66 28 39 28Z" />
		</g>
	</g>
</svg>