<svg version="1.2" xmlns="http://www.w3.org/2000/svg" viewBox="0 0 57 58" width="57" height="58"><style>.a{fill:#823094}.b{fill:#4fba6f}.c{fill:#f0c419}.d{fill:#e64c3c}.e{fill:#fb7b76}</style><path class="a" d="m9.1 52.9c-1.4 0.3-2.8-0.5-3.2-2-0.2-0.7-0.3-1.4-0.3-2.2q0.4-1.2 0.3-2.4c-0.3-1-1.3-1.2-2-1.8-0.6-0.4 0.5-1.8 0.5-1.8 0 0-1.2-0.9-1.6-1.3-0.5-0.3 0.2-0.9 0.7-2.1q0.4-0.8 0.2-1.6c-0.2-1.1-1.8-1.5-2.6-2.1-0.4-0.3-1-0.7-1.1-1.2-0.1-0.7 0.7-1.7 1.2-2.2q2.6-3.4 4.4-7.3 0.3-0.4 0.3-0.9c0-1.4-2.1-2-2.3-3.4q0-0.6 0.2-1.2 0.9-1.8 1.5-3.7 0.4-1.8 1-3.5c0.8-2.3 2.1-4.5 3.8-6.2 2.4-2.6 6-3.9 9.4-4.6q4.8-1 9.6-1.4c6.4-0.3 11.4 1.9 16.4 5.8 2.7 2 4.7 4.8 5.6 8.1 0.8 2.6 1.1 5.4 1 8.2 0 2.7-0.8 5.4-2.3 7.7-1.4 2.3-3.4 4.4-4.5 6.9-1.3 2.9-1.8 6.2-1.4 9.3q0.3 3.1 1.2 6.1 0.5 1.6 1.2 3 0.9 1.4 1.6 2.8l-25.1 0.1c0 0-1.5-6.1-4.9-7.7q-4.3 1.5-8.8 2.6z"/><path class="b" d="m27.5 24c0.6 1.1 0.3 2.4-0.7 3.2-0.6 0.4-1.4 0.6-2.1 0.4-0.7-0.2-1.3-0.7-1.7-1.3-3.6-7-2.3-15.5 3.3-21l3.5 3.5c-4 4-4.9 10.2-2.3 15.2z"/><path class="c" d="m51.7 5.3l-3.5 3.5c-2.4-2.4-5.8-3.8-9.2-3.8-3.5 0-6.8 1.4-9.2 3.8l-3.5-3.5c3.3-3.4 7.9-5.3 12.7-5.3 4.8 0 9.3 1.9 12.7 5.3z"/><path class="d" d="m54.9 26.4c-0.3 0.6-0.9 1.1-1.6 1.2-0.8 0.2-1.5 0-2.1-0.4-0.9-0.8-1.2-2.1-0.7-3.2 1.3-2.4 1.8-5.3 1.4-8-0.5-2.7-1.8-5.2-3.7-7.2l3.5-3.5c5.6 5.6 6.9 14.1 3.2 21.1z"/><path class="e" d="m36.5 23.4l8.4-8.5c0.2-0.2 0.4-0.2 0.6-0.1 0.2 0.1 0.3 0.4 0.2 0.6l-4.2 11.2z"/><path class="d" d="m39 28c-1.7 0-3-1.3-3-3 0-1.7 1.3-3 3-3 1.7 0 3 1.3 3 3 0 1.7-1.3 3-3 3z"/></svg>