<svg id="Layer_3" enable-background="new 0 0 64 64" height="512" viewBox="0 0 64 64" width="512" xmlns="http://www.w3.org/2000/svg"><g><path d="m28 63c0-3.201-1.272-6.272-3.536-8.536l-2.39-2.39c-2.526.611-5.134.926-7.771.926-1.272 0-2.303-1.031-2.303-2.303 0-.455.135-.899.387-1.277l1.613-2.42-2-2 2-2-2-2 .919-.919c.646-.646.806-1.632.397-2.449-.205-.411-.538-.743-.949-.949l-2.217-1.109c-.705-.351-1.15-1.072-1.15-1.86 0-.463.154-.912.438-1.278l5.842-7.511c.466-.6.72-1.337.72-2.097 0-1.142-.571-2.209-1.521-2.842-.924-.616-1.479-1.653-1.479-2.764v-.597c0-1.049.372-2.065 1.05-2.866l3.637-4.298c4.004-4.732 9.888-7.461 16.087-7.461 5.881 0 11.495 2.458 15.484 6.78 3.692 4 5.742 9.243 5.742 14.686v.695c0 3.187-.704 6.335-2.061 9.219-3.911 8.311-5.939 17.383-5.939 26.568v3.052z" fill="#fadfb2"/><path d="m28 16c0-2.516 2.323-4.49 4.942-3.893 1.446.33 2.62 1.504 2.95 2.949.354 1.547-.19 2.991-1.213 3.914-1.693 1.528-2.679 3.689-2.679 5.97v2.544c0 1.627.896 2.516 2 2.516 1.105 0 2-.895 2-2v-3.065c0-1.132.48-2.21 1.324-2.964 2.087-1.862 3.191-4.802 2.439-7.946-.725-3.031-3.1-5.275-6.159-5.869-5.121-.995-9.604 2.901-9.604 7.844 0 1.105.895 2 2 2 1.105 0 2-.896 2-2z" fill="#758190"/><path d="m37.764 14.025c-.725-3.031-3.1-5.275-6.159-5.869-.208-.04-.413-.06-.618-.085-3.939.5-6.987 3.855-6.987 7.929 0 .738.405 1.376 1 1.723.595-.346 1-.984 1-1.723 0-2.516 2.323-4.49 4.942-3.893.022.005.043.014.065.02.602-.154 1.258-.174 1.935-.02 1.446.33 2.62 1.504 2.95 2.949.354 1.547-.19 2.991-1.213 3.914-1.693 1.528-2.679 3.689-2.679 5.97v2.544c0 1.097.412 1.85 1.017 2.229.586-.348.983-.981.983-1.713v-3.065c0-1.132.48-2.21 1.324-2.964 2.087-1.862 3.192-4.802 2.44-7.946z" fill="#8892a0"/><circle cx="34" cy="36" fill="#758190" r="2"/><g><path d="m23 36v-.866c0-2.52 1.107-5.008 3.116-7.008.752-.748 1.044-1.786.802-2.847-.245-1.07-1.127-1.953-2.197-2.197-.938-.211-1.858-.012-2.589.571-.72.573-1.132 1.428-1.132 2.346h-2c0-1.53.687-2.955 1.884-3.91 1.198-.956 2.761-1.304 4.281-.957 1.831.418 3.284 1.871 3.702 3.702.394 1.722-.108 3.483-1.341 4.709-1.629 1.622-2.527 3.606-2.527 5.589v.865z" fill="#8892a0"/></g><g><path d="m24 40.999c-1.103 0-2-.897-2-2s.897-2 2-2 2 .897 2 2-.897 2-2 2zm0-2.001v.002z" fill="#8892a0"/></g><g><path d="m42 43v-.866c0-2.52 1.107-5.008 3.116-7.008.752-.748 1.044-1.786.802-2.847-.245-1.07-1.127-1.953-2.197-2.197-.937-.211-1.858-.012-2.589.571-.72.573-1.132 1.428-1.132 2.346h-2c0-1.53.687-2.955 1.884-3.91 1.198-.956 2.761-1.303 4.281-.957 1.831.418 3.284 1.871 3.702 3.702.394 1.722-.108 3.483-1.341 4.709-1.629 1.622-2.527 3.606-2.527 5.589v.865z" fill="#a8b0bc"/></g><g><path d="m43 47.999c-1.103 0-2-.897-2-2s.897-2 2-2 2 .897 2 2-.897 2-2 2zm0-2.001v.002z" fill="#a8b0bc"/></g></g></svg>