<svg id="Layer_1" enable-background="new 0 0 512 512" height="512" viewBox="0 0 512 512" width="512" xmlns="http://www.w3.org/2000/svg"><g><g><path d="m336 432h-160v-16c0-8.837 7.163-16 16-16h128c8.837 0 16 7.163 16 16z" fill="#d7e6f0"/></g><g><path d="m432 256v-96c0-79.529-64.471-144-144-144h-64c-79.529 0-144 64.471-144 144v96c-8.837 0-16 7.163-16 16 0 26.51 21.49 48 48 48h48c8.837 0 16 7.163 16 16v32c0 8.837 7.163 16 16 16h128c8.837 0 16-7.163 16-16v-32c0-8.837 7.163-16 16-16h48c26.51 0 48-21.49 48-48 0-8.837-7.163-16-16-16z" fill="#d7e6f0"/></g><g><path d="m372.813 83.187c-2.048 0-4.095-.781-5.657-2.343-21.179-21.18-49.291-32.844-79.156-32.844h-64c-29.865 0-57.977 11.664-79.156 32.844-3.124 3.124-8.189 3.125-11.313 0-3.125-3.124-3.125-8.189 0-11.313 24.2-24.202 56.33-37.531 90.469-37.531h64c34.139 0 66.269 13.329 90.47 37.53 3.124 3.124 3.124 8.189 0 11.313-1.563 1.563-3.611 2.344-5.657 2.344z" fill="#fff"/></g><g><path d="m352 320v96c0 8.837-7.163 16-16 16h-160c-8.837 0-16-7.163-16-16v-96h-32v80c0 53.019 42.981 96 96 96h64c53.019 0 96-42.981 96-96v-80z" fill="#d7e6f0"/></g><g><g><path d="m256 352c-2.946 0-5.333 2.388-5.333 5.333v26.667h10.667v-26.667c-.001-2.945-2.388-5.333-5.334-5.333z" fill="#a5c3dc"/></g><g><path d="m285.333 352c-2.946 0-5.333 2.388-5.333 5.333v26.667h10.667v-26.667c0-2.945-2.388-5.333-5.334-5.333z" fill="#a5c3dc"/></g><g><path d="m314.667 352c-2.946 0-5.333 2.388-5.333 5.333v26.667h10.666v-26.667c0-2.945-2.388-5.333-5.333-5.333z" fill="#a5c3dc"/></g><g><path d="m226.667 352c-2.946 0-5.333 2.388-5.333 5.333v26.667h10.666v-26.667c0-2.945-2.388-5.333-5.333-5.333z" fill="#a5c3dc"/></g><g><path d="m197.333 352c-2.946 0-5.333 2.388-5.333 5.333v26.667h10.667v-26.667c0-2.945-2.388-5.333-5.334-5.333z" fill="#a5c3dc"/></g></g><g><g><path d="m256 432c-2.946 0-5.333-2.388-5.333-5.333v-26.667h10.667v26.667c-.001 2.945-2.388 5.333-5.334 5.333z" fill="#a5c3dc"/></g><g><path d="m285.333 432c-2.946 0-5.333-2.388-5.333-5.333v-26.667h10.667v26.667c0 2.945-2.388 5.333-5.334 5.333z" fill="#a5c3dc"/></g><g><path d="m314.667 432c-2.946 0-5.333-2.388-5.333-5.333v-26.667h10.666v26.667c0 2.945-2.388 5.333-5.333 5.333z" fill="#a5c3dc"/></g><g><path d="m226.667 432c-2.946 0-5.333-2.388-5.333-5.333v-26.667h10.666v26.667c0 2.945-2.388 5.333-5.333 5.333z" fill="#a5c3dc"/></g><g><path d="m197.333 432c-2.946 0-5.333-2.388-5.333-5.333v-26.667h10.667v26.667c0 2.945-2.388 5.333-5.334 5.333z" fill="#a5c3dc"/></g></g><g><path d="m128 320h32v32h-32z" fill="#a5c3dc"/></g><g><path d="m352 320h32v32h-32z" fill="#a5c3dc"/></g><g><circle cx="184" cy="192" fill="#555a6e" r="48"/></g><g><path d="m184 192c17.764 0 33.262 9.657 41.563 24 4.087-7.062 6.438-15.254 6.438-24 0-26.51-21.49-48-48-48s-48 21.49-48 48c0 8.746 2.351 16.938 6.438 24 8.299-14.343 23.797-24 41.561-24z" fill="#463c4b"/></g><g><circle cx="328" cy="192" fill="#555a6e" r="48"/></g><g><path d="m256 232c-6.558 0-12.573 3.64-15.616 9.449l-22.918 43.752c-.963 1.838-1.466 3.883-1.466 5.958 0 7.092 5.749 12.841 12.841 12.841h54.319c7.092 0 12.841-5.749 12.841-12.841 0-2.075-.503-4.12-1.466-5.958l-22.918-43.752c-3.044-5.809-9.059-9.449-15.617-9.449z" fill="#463c4b"/></g><g><path d="m328 192c17.764 0 33.262 9.657 41.563 24 4.087-7.062 6.438-15.254 6.438-24 0-26.51-21.49-48-48-48s-48 21.49-48 48c0 8.746 2.351 16.938 6.438 24 8.299-14.343 23.797-24 41.561-24z" fill="#463c4b"/></g><g><path d="m80 160v96h40v-56c0-22.091-17.909-40-40-40z" fill="#a5c3dc"/></g><g><path d="m432 160v96h-40v-56c0-22.091 17.909-40 40-40z" fill="#a5c3dc"/></g></g></svg>