<svg id="icons" height="512" viewBox="0 0 340 340" width="512" xmlns="http://www.w3.org/2000/svg" xmlns:xlink="http://www.w3.org/1999/xlink"><linearGradient id="linear-gradient" gradientUnits="userSpaceOnUse" x1="310.524" x2="20.354" y1="46.453" y2="318.641"><stop offset="0" stop-color="#8b71af"/><stop offset=".5" stop-color="#c28bcb"/><stop offset="1" stop-color="#e8caeb"/></linearGradient><linearGradient id="linear-gradient-2" gradientUnits="userSpaceOnUse" x1="-2.59" x2="202.265" y1="213.488" y2="35.353"><stop offset="0" stop-color="#9584a5"/><stop offset="1" stop-color="#6f5b8b"/></linearGradient><linearGradient id="linear-gradient-3" x1="108.611" x2="313.467" xlink:href="#linear-gradient-2" y1="341.369" y2="163.235"/><linearGradient id="linear-gradient-4" x1="91.089" x2="295.944" xlink:href="#linear-gradient-2" y1="321.218" y2="143.083"/><linearGradient id="linear-gradient-5" x1="31.142" x2="235.997" xlink:href="#linear-gradient-2" y1="252.28" y2="74.145"/><path d="m267.4 34.983h41.389a4.354 4.354 0 0 1 4.355 4.354v33.6a8.333 8.333 0 0 1 -5.176 7.722c-9.732 3.972-30.387 14.722-37.171 36.386a14.5 14.5 0 0 1 -2.874 5.2l-13.963 16.046a3.113 3.113 0 0 0 2.12 5.152c9.315.677 28.766.259 52.71-10.538a3.073 3.073 0 0 1 4.353 2.786v20.536a3.067 3.067 0 0 1 -3.6 3.02c-9.8-1.715-39.492-4-88.1 17.145a5.794 5.794 0 0 1 -6.561-1.392c-7.368-7.954-29.169-26.747-53.818-3.262a60.588 60.588 0 0 0 -14.033 20.79c-4.79 11.566-11.559 32.271-10.466 54.958a1.335 1.335 0 0 1 -1.892 1.271c-5.289-2.416-19.811-7.586-30.249 2.586a9.637 9.637 0 0 0 -2.78 8.372 102.679 102.679 0 0 0 7.516 24.9 8.229 8.229 0 0 1 .433 5.392c-.827 3.077-3.115 7.856-9.377 12.732a4.963 4.963 0 0 1 -5.439.417c-5.41-2.979-18.985-8.127-36.951 1.685a1.343 1.343 0 0 1 -1.706-2.006l9.418-11.875a13.154 13.154 0 0 1 13.212-4.66l9 2.038a4.429 4.429 0 0 0 5.406-4.517c-.291-6.562-1.862-17.4-8.512-25.164l-50.72 35.083a1.344 1.344 0 0 1 -1.834-1.922c10.522-13.675 34.81-45.212 53.443-69.018a4.5 4.5 0 0 1 4.978-1.51c5.334 1.8 16.644 4.189 22.067-5.372q.29-.512.547-1.016a20.107 20.107 0 0 0 -4.137-23.448c-6.434-6.243-19.444-15.4-36.223-9.236a16.209 16.209 0 0 0 -10.476 12.366c-.81 4.687-.412 10.886 3.743 17.9a4.131 4.131 0 0 1 -.544 4.947l-10.098 10.669a1.343 1.343 0 0 1 -2.317-.99l.457-9.824a12.576 12.576 0 0 0 -2.431-7.97c-4.365-6-10.458-18.612.616-33.043 16.2-21.114 43.934-8.181 43.934-8.181s43.425 13.545 46.4-44.015a4.368 4.368 0 0 1 5.43-4.032c13.485 3.421 50.046 10.57 76.83-4.008 13.808-7.516 16.139-19.868 14.117-31.78a10.3 10.3 0 0 1 1.126-6.561l20.487-38.3a8.35 8.35 0 0 1 7.361-4.413z" fill="url(#linear-gradient)"/><path d="m122.375 119.753a27.15 27.15 0 0 0 5.2-7.45 7.084 7.084 0 0 0 -.51-6.837c-3.725-5.738-9.842-19.838 9.364-31.81 20.726-12.921 48.206 1.848 56.646 7.029a5.392 5.392 0 0 0 5.522.063c7.889-4.553 29.351-18.829 36.18-42.7a2.415 2.415 0 0 0 -2.335-3.061h-17.903a5.1 5.1 0 0 0 -4.646 2.971c-3.026 6.608-11.986 21.742-29.693 18.961-17.875-2.808-23.391-13.113-24.908-17.252a1.34 1.34 0 0 0 -2.053-.61l-40.234 29.526a5.587 5.587 0 0 0 -2.2 5.515c.955 5.116 2.058 15.418-1.574 26.023a4.822 4.822 0 0 0 .594 4.332 162.936 162.936 0 0 1 9.338 14.843 2.013 2.013 0 0 0 3.212.457z" fill="url(#linear-gradient-2)"/><path d="m164.892 222.917 14.015-19.952a6.22 6.22 0 0 1 5.2-2.648c4.128.072 11.919.151 22.1 0a5.139 5.139 0 0 1 4.971 3.644c2.082 6.7 9.217 20.128 32.983 20.128a35.347 35.347 0 0 0 27.421-12.245 42.649 42.649 0 0 1 13.529-10.4c6.112-2.888 14.419-5.478 23.456-4.5a5.15 5.15 0 0 1 4.574 5.127v38.349a1.343 1.343 0 0 1 -2.394.84c-4.148-5.3-13.61-14.57-27.812-12.343a19.059 19.059 0 0 0 -8.82 4c-5.562 4.4-19.04 13.044-36.725 10.55a39.762 39.762 0 0 1 -23.908-13.161c-7.554-8.444-23.9-20.8-46.753-5.5a1.342 1.342 0 0 1 -1.837-1.889z" fill="url(#linear-gradient-3)"/><circle cx="165.86" cy="256.2" fill="url(#linear-gradient-4)" r="10.703"/><circle cx="35.875" cy="248.165" fill="url(#linear-gradient-5)" r="9.018"/></svg>