<svg xmlns="http://www.w3.org/2000/svg" viewBox="0 0 24 24" width="24" height="24">
	<style>
		tspan { white-space:pre }
		.shp0 { fill: #42a928 } 
	</style>
	<g id="Layer">
		<path id="Layer" fill-rule="evenodd" class="shp0" d="M19 12C19 13.97 18.16 15.86 16.7 17.19C16.41 17.45 16.05 17.58 15.69 17.58C15.28 17.58 14.88 17.41 14.58 17.09C14.03 16.47 14.07 15.52 14.69 14.97C15.52 14.21 16 13.13 16 12C16 10.87 15.52 9.79 14.69 9.04C14.08 8.48 14.03 7.53 14.59 6.92C15.14 6.3 16.09 6.26 16.7 6.81C18.16 8.13 19 10.03 19 12ZM24 12C24 15.19 22.76 18.2 20.51 20.46C20.22 20.76 19.83 20.91 19.45 20.91C19.06 20.91 18.68 20.76 18.39 20.47C17.8 19.88 17.8 18.93 18.38 18.35C20.07 16.65 21 14.4 21 12C21 9.6 20.07 7.34 18.39 5.65C17.8 5.06 17.8 4.11 18.39 3.53C18.98 2.94 19.93 2.95 20.51 3.53C22.76 5.79 24 8.8 24 12ZM13.81 12C13.81 13 13 13.81 12 13.81C11 13.81 10.19 13 10.19 12C10.19 11 11 10.19 12 10.19C13 10.19 13.81 11 13.81 12ZM9.32 9.03C8.48 9.79 8 10.87 8 12C8 13.13 8.48 14.21 9.31 14.96C9.92 15.52 9.97 16.47 9.42 17.08C9.12 17.41 8.71 17.58 8.3 17.58C7.94 17.58 7.58 17.45 7.3 17.19C5.84 15.87 5 13.98 5 12C5 10.03 5.84 8.14 7.3 6.81C7.91 6.25 8.86 6.3 9.42 6.91C9.98 7.53 9.93 8.48 9.32 9.03ZM5.61 18.35C6.2 18.94 6.19 19.89 5.61 20.47C5.31 20.76 4.93 20.91 4.55 20.91C4.16 20.91 3.78 20.76 3.49 20.47C1.24 18.21 0 15.2 0 12C0 8.81 1.24 5.8 3.49 3.54C4.08 2.95 5.03 2.95 5.61 3.53C6.2 4.12 6.2 5.07 5.62 5.65C3.93 7.35 3 9.6 3 12C3 14.4 3.93 16.66 5.61 18.35Z" />
	</g>
	<g id="Layer">
	</g>
	<g id="Layer">
	</g>
	<g id="Layer">
	</g>
	<g id="Layer">
	</g>
	<g id="Layer">
	</g>
	<g id="Layer">
	</g>
	<g id="Layer">
	</g>
	<g id="Layer">
	</g>
	<g id="Layer">
	</g>
	<g id="Layer">
	</g>
	<g id="Layer">
	</g>
	<g id="Layer">
	</g>
	<g id="Layer">
	</g>
	<g id="Layer">
	</g>
	<g id="Layer">
	</g>
</svg>