<svg id="Capa_1" enable-background="new 0 0 512 512" height="512" viewBox="0 0 512 512" width="512" xmlns="http://www.w3.org/2000/svg"><g><g><path d="m0 208.026s14.27 29.729 44.964 63.495l25.292-6.74-4.113 27.986c16.328 14.917 35.84 29.591 58.714 41.918l26.55-10.683 2.397 24.162c25.575 10.121 54.581 17.053 87.195 18.697l15-26.858 20-118.333-20-68.968c-179.591 0-255.999 55.324-255.999 55.324z" fill="#fff5f5"/><path d="m512 208.026s-76.41-55.324-256-55.324v187.301l15 26.858c32.614-1.644 61.62-8.576 87.195-18.697l-1.702-19.64 30.649 6.161c22.874-12.327 42.387-27.001 58.715-41.918l-1.133-26.439 22.312 5.192c30.693-33.764 44.964-63.494 44.964-63.494z" fill="#ebe5f1"/></g><g><path d="m177.958 285.715h-30v25.871l-23.1 23.1c9.111 4.911 18.758 9.447 28.947 13.479l24.153-24.153z" fill="#f66"/><path d="m114.273 273.034 22.991-22.993-21.213-21.213-14.206 14.206h-28.393l-28.488 28.487c6.35 6.986 13.403 14.143 21.179 21.247l19.735-19.734z" fill="#f66"/><g fill="#ec2460"><path d="m364.042 285.715h-30v38.297l24.153 24.153c10.189-4.032 19.835-8.568 28.947-13.479l-23.1-23.1z"/><path d="m410.154 243.034-14.206-14.206-21.213 21.213 22.991 22.993h28.396l19.734 19.734c7.776-7.104 14.829-14.261 21.179-21.247l-28.488-28.487z"/></g></g><path d="m154.36 412.902c-25.232-10.801-48.831-25.896-70.142-44.869-36.673-32.649-54.083-65.899-54.242-66.207l-26.703 13.674c.781 1.525 19.592 37.77 60.045 74.088 23.77 21.341 50.178 38.356 78.491 50.574 35.411 15.28 73.831 23.028 114.19 23.028l10-13.521-10-16.479c-35.992.001-70.189-6.826-101.639-20.288z" fill="#ffcdbe"/><path d="m428.64 367.265c-21.348 19.166-45.012 34.424-70.336 45.353-31.637 13.651-66.057 20.573-102.304 20.573v30c40.359 0 78.778-7.748 114.189-23.028 28.313-12.218 54.722-29.233 78.491-50.573 40.453-36.319 59.265-72.563 60.046-74.089l-26.703-13.674c-.166.324-17.017 32.788-53.383 65.438z" fill="#ffbeaa"/><path d="m241 321.001v45.86c4.919.248 9.916.382 15 .382l10-23.121-10-23.121z" fill="#f66"/><path d="m271 321.001h-15v46.242c5.084 0 10.081-.134 15-.382z" fill="#ec2460"/><g><path d="m210.145 162.171c-11.735 11.735-18.994 27.948-18.994 45.855 0 35.815 29.034 64.849 64.849 64.849l10-64.768-10-64.768z" fill="#404a7f"/><path d="m303.43 163.801-47.43-20.462v129.536c35.815 0 64.849-29.034 64.849-64.849 0-17.092-6.613-32.64-17.419-44.225z" fill="#283366"/></g><path d="m0 208.026s76.408-45.324 256-45.324l10-65.83-10-48.063c-179.592 0-256 159.217-256 159.217z" fill="#ffcdbe"/><path d="m256 48.809v113.893c179.59 0 256 45.324 256 45.324s-76.41-159.217-256-159.217z" fill="#ffbeaa"/></g></svg>