<svg xmlns="http://www.w3.org/2000/svg" viewBox="0 0 621 620" width="621" height="620">
	<style>
		tspan { white-space:pre }
		.shp0 { fill: #db1717 } 
		.shp1 { fill: #e66161 } 
	</style>
	<g id="surface1">
		<path id="Layer" class="shp0" d="M53.63 390.06C-3.77 429.74 -18.13 508.43 21.55 565.83C61.23 623.23 139.93 637.58 197.33 597.9C209.87 589.24 220.73 578.37 229.4 565.83L620 -0.54L53.63 390.06Z" />
		<path id="Layer" class="shp1" d="M196.41 497.07C196.41 537.96 163.27 571.1 122.38 571.1C81.5 571.1 48.36 537.96 48.36 497.07C48.36 456.19 81.5 423.04 122.38 423.04C163.27 423.04 196.41 456.19 196.41 497.07Z" />
		<path id="Layer" class="shp0" d="M-1 344.08L18.74 344.08L18.74 492.14L-1 492.14L-1 344.08Z" />
		<path id="Layer" class="shp0" d="M9.62 429.1L59 310.66L77.22 318.26L27.84 436.7L9.62 429.1Z" />
		<path id="Layer" class="shp0" d="M30.82 406.94L215.81 179.92L231.11 192.39L46.12 419.41L30.82 406.94Z" />
		<path id="Layer" class="shp0" d="M127.32 600.71L295.12 600.71L295.12 620.46L127.32 620.46L127.32 600.71Z" />
		<path id="Layer" class="shp0" d="M182.74 591.64L340.67 524.97L348.34 543.15L190.42 609.81L182.74 591.64Z" />
		<path id="Layer" class="shp0" d="M200.3 573.29L397.76 415.28L410.11 430.71L212.65 588.71L200.3 573.29Z" />
		<path id="Layer" class="shp0" d="M71.31 281.05L108.35 192.22L126.57 199.82L89.54 288.65L71.31 281.05Z" />
		<path id="Layer" class="shp0" d="M228.24 164.66L247.98 140.44L263.29 152.91L243.54 177.13L228.24 164.66Z" />
		<path id="Layer" class="shp0" d="M-1 274.98L18.74 274.98L18.74 324.34L-1 324.34L-1 274.98Z" />
		<path id="Layer" class="shp0" d="M370.43 512.56L419.79 492.83L427.12 511.16L377.76 530.89L370.43 512.56Z" />
		<path id="Layer" class="shp0" d="M412.5 403.16L466.34 356.36L479.3 371.27L425.46 418.07L412.5 403.16Z" />
		<path id="Layer" class="shp0" d="M314.86 600.71L344.47 600.71L344.47 620.46L314.86 620.46L314.86 600.71Z" />
	</g>
</svg>