<svg id="Layer_1" enable-background="new 0 0 512 512" height="512" viewBox="0 0 512 512" width="512" xmlns="http://www.w3.org/2000/svg"><g><path d="m256 203.4c-29 0-52.6 23.6-52.6 52.6s23.6 52.6 52.6 52.6 52.6-23.6 52.6-52.6-23.6-52.6-52.6-52.6z" fill="#56ace0"/><path d="m495.9 241.9h-42.9l37.9-37.9c5.5-5.5 5.5-14.4 0-20-5.5-5.5-14.4-5.5-20 0l-57.8 57.8h-77.6c-2.1-11.8-6.7-22.7-13.3-32.1l54.9-54.9h81.8c7.8 0 14.1-6.3 14.1-14.1s-6.3-14.1-14.1-14.1h-53.6l30.3-30.3c5.5-5.5 5.5-14.4 0-20-5.5-5.5-14.4-5.5-20 0l-30.3 30.3v-53.5c0-7.8-6.3-14.1-14.1-14.1s-14.1 6.3-14.1 14.1v81.8l-54.9 54.9c-9.4-6.6-20.3-11.2-32.1-13.3v-77.6l57.9-57.9c5.5-5.5 5.5-14.4 0-20-5.5-5.5-14.4-5.5-20 0l-37.9 38v-42.9c0-7.8-6.3-14.1-14.1-14.1s-14.1 6.3-14.1 14.1v42.8l-37.9-37.8c-5.5-5.5-14.4-5.5-20 0-5.5 5.5-5.5 14.4 0 20l57.8 57.8v77.6c-11.8 2.1-22.7 6.7-32.1 13.3l-54.9-54.9v-81.8c0-7.8-6.3-14.1-14.1-14.1s-14.1 6.3-14.1 14.1v53.6l-30.2-30.3c-5.5-5.5-14.4-5.5-20 0-5.5 5.5-5.5 14.4 0 20l30.3 30.3h-53.6c-7.8 0-14.1 6.3-14.1 14.1s6.3 14.1 14.1 14.1h81.8l54.9 54.9c-6.6 9.4-11.2 20.3-13.3 32.1h-77.6l-57.9-57.9c-5.5-5.5-14.4-5.5-20 0-5.5 5.5-5.5 14.4 0 20l38 37.9h-42.9c-7.8 0-14.1 6.3-14.1 14.1s6.3 14.1 14.1 14.1h42.9l-37.9 37.9c-5.5 5.5-5.5 14.4 0 20s14.4 5.5 20 0l57.8-57.8h77.6c2.1 11.8 6.7 22.7 13.3 32.1l-54.9 54.9h-81.8c-7.8 0-14.1 6.3-14.1 14.1s6.3 14.1 14.1 14.1h53.6l-30.3 30.3c-5.5 5.5-5.5 14.4 0 20 5.5 5.5 14.4 5.5 20 0l30.3-30.3v53.6c0 7.8 6.3 14.1 14.1 14.1s14.1-6.3 14.1-14.1v-81.8l54.9-54.9c9.4 6.6 20.3 11.2 32.1 13.3v77.6l-57.9 57.8c-5.5 5.5-5.5 14.4 0 20 5.5 5.5 14.4 5.5 20 0l37.9-37.9v42.8c0 7.8 6.3 14.1 14.1 14.1s14.1-6.3 14.1-14.1v-42.9l37.9 37.9c5.5 5.5 14.4 5.5 20 0 5.5-5.5 5.5-14.4 0-20l-57.8-57.8v-77.6c11.8-2.1 22.7-6.7 32.1-13.3l54.9 54.9v81.8c0 7.8 6.3 14.1 14.1 14.1s14.1-6.3 14.1-14.1v-53.6l30.3 30.3c5.5 5.5 14.4 5.5 20 0 5.5-5.5 5.5-14.4 0-20l-30.3-30.3h53.6c7.8 0 14.1-6.3 14.1-14.1s-6.3-14.1-14.1-14.1h-81.8l-54.9-54.9c6.6-9.4 11.2-20.3 13.3-32.1h77.6l57.8 57.9c5.5 5.5 14.4 5.5 20 0s5.5-14.4 0-20l-37.9-37.9h42.8c7.8 0 14.1-6.3 14.1-14.1s-6.3-14.1-14.1-14.1zm-239.9 66.7c-29 0-52.6-23.6-52.6-52.6s23.6-52.6 52.6-52.6 52.6 23.6 52.6 52.6-23.6 52.6-52.6 52.6z" fill="#194f82"/></g></svg>