<svg version="1.2" xmlns="http://www.w3.org/2000/svg" viewBox="0 0 64 64" width="64" height="64"><style>.a{fill:#f3fbfe}.b{fill:#e1f4fd}.c{fill:#823094}</style><path class="a" d="m57.8 35.3q0.4 0.6 0.7 1.3 0.2 0.7 0.4 1.4 0.1 0.8 0.1 1.5c0 1.1-0.2 2.3-0.7 3.3-0.4 1-1.1 1.9-2 2.7-0.8 0.7-1.8 1.3-2.9 1.6-1.1 0.4-2.2 0.5-3.3 0.3-1.5 1.2-3.3 1.9-5.1 2.1-1.9 0.1-3.8-0.2-5.4-1-1.7-0.9-3.1-2.1-4.1-3.7-1-1.6-1.5-3.4-1.5-5.3 0-3.3-4-3.3-4 0 0 1.9-0.5 3.7-1.5 5.3-1 1.6-2.4 2.8-4.1 3.7-1.6 0.8-3.5 1.1-5.4 1-1.8-0.2-3.6-0.9-5.1-2.1q-0.1 0.1-0.2 0.1-0.1 0-0.2 0-0.2 0-0.3 0-0.1 0-0.2 0c-1.5 0-3.1-0.5-4.4-1.3-1.3-0.8-2.3-2.1-2.9-3.5-0.6-1.4-0.8-3-0.6-4.5 0.3-1.5 1-3 2-4.1-0.6-1.3-1-2.7-1.1-4.1-0.1-1.5 0.2-2.9 0.7-4.3 0.6-1.3 1.4-2.5 2.5-3.5 1-1 2.3-1.7 3.6-2.2-0.7-1.5-1-3.1-0.7-4.7 0.3-1.7 1-3.2 2.2-4.4 1.1-1.2 2.6-2 4.2-2.3 1.6-0.3 3.3-0.1 4.8 0.6 0.5-1.9 1.6-3.6 3.2-4.8 1.6-1.2 3.5-1.9 5.5-1.9 2 0 3.9 0.7 5.5 1.9 1.6 1.2 2.7 2.9 3.2 4.8 1.5-0.7 3.2-0.9 4.8-0.6 1.6 0.3 3.1 1.1 4.3 2.3 1.1 1.2 1.9 2.7 2.1 4.4 0.3 1.6 0 3.2-0.7 4.7 1.3 0.5 2.6 1.2 3.7 2.2 1 1 1.8 2.2 2.4 3.5 0.5 1.4 0.8 2.8 0.7 4.3-0.1 1.4-0.5 2.8-1.1 4.1q0.5 0.5 0.9 1.2z"/><path class="b" d="m47.9 9.5c1.2 0.7 2.2 1.6 2.9 2.8 0.7 1.1 1.1 2.4 1.2 3.8 0.1 1.3-0.2 2.7-0.8 3.9 1.3 0.5 2.6 1.2 3.7 2.2 1 1 1.8 2.2 2.4 3.5 0.5 1.4 0.8 2.8 0.7 4.3-0.1 1.4-0.5 2.8-1.1 4.1q0.5 0.5 0.9 1.2 0.4 0.6 0.7 1.3 0.2 0.7 0.4 1.4 0.1 0.8 0.1 1.5c0 1.1-0.2 2.3-0.7 3.3-0.4 1-1.1 1.9-2 2.7-0.8 0.7-1.8 1.3-2.9 1.6-1.1 0.4-2.2 0.5-3.3 0.3-1.5 1.2-3.3 1.9-5.1 2.1-1.9 0.1-3.8-0.2-5.4-1-1.7-0.9-3.1-2.1-4.1-3.7-1-1.6-1.5-3.4-1.5-5.3 0-3.4-4-3.4-4 0 0 1.9-0.5 3.7-1.5 5.3-1 1.6-2.4 2.8-4.1 3.7-1.6 0.8-3.5 1.1-5.4 1-1.8-0.2-3.6-0.9-5.1-2.1q-0.1 0.1-0.2 0.1-0.1 0-0.2 0-0.2 0-0.3 0-0.1 0-0.2 0-0.7 0-1.4-0.1-0.7-0.1-1.3-0.4-0.7-0.2-1.3-0.6-0.6-0.3-1.1-0.8-0.6-1-0.8-2.2-0.2-1.3 0-2.5 0.1-1.2 0.7-2.3 0.5-1.1 1.3-2c-0.6-1.3-1-2.7-1.1-4.1-0.1-1.5 0.2-2.9 0.7-4.3 0.6-1.3 1.4-2.5 2.5-3.5 1-1 2.3-1.7 3.6-2.2-0.7-1.5-1-3.1-0.7-4.7 0.3-1.7 1-3.2 2.2-4.4 1.1-1.2 2.6-2 4.2-2.3 1.6-0.3 3.3-0.1 4.8 0.6 0.4-1.5 1.1-2.8 2.2-3.9 1.1-1.1 2.4-1.9 3.9-2.4 1.4-0.4 3-0.5 4.5-0.2 1.5 0.3 2.9 1 4 2q0.1 0.3 0.2 0.5 0.2 0.2 0.3 0.5 0.1 0.3 0.1 0.5 0.1 0.3 0.2 0.5 0.4-0.2 0.8-0.3 0.4-0.1 0.8-0.2 0.4-0.1 0.8-0.1 0.5-0.1 0.9-0.1c1.4 0 2.7 0.3 3.9 1z"/><path class="c" d="m22.7 60c-2.3-0.9-4.4-2.3-6.1-4.1-1.8-1.7-3.2-3.8-4.2-6.1-0.9-2.3-1.4-4.8-1.4-7.3q0-1.2 0.2-2.4 0.2-1.2 0.6-2.3 0.4-1.2 1-2.2 0.5-1.1 1.2-2.1c0 0 0 9 4 11-4-10 3-19 3-19 0 0 0.6 10 3 12 0.6-7 6-16 6-21 0 0 8 9 6.8 20.5 4.2-3 4.4-14.9 5.2-13.5q1.2 2.2 1.9 4.5 0.7 2.4 0.9 4.8 0.3 2.5 0 4.9-0.2 2.5-0.9 4.8h0.1c4-2 6-12 6-12 0 0 3 8 3 12 0 2.5-0.5 5-1.5 7.3-0.9 2.3-2.3 4.4-4.1 6.1-1.7 1.8-3.8 3.2-6.1 4.1-2.3 1-4.8 1.5-7.3 1.5h-4c-2.5 0-5-0.5-7.3-1.5z"/></svg>