<svg id="icons" height="512" viewBox="0 0 340 340" width="512" xmlns="http://www.w3.org/2000/svg" xmlns:xlink="http://www.w3.org/1999/xlink"><linearGradient id="linear-gradient" gradientUnits="userSpaceOnUse" x1="304.109" x2="304.109" y1="47.975" y2="298.317"><stop offset="0" stop-color="#ff5582"/><stop offset="1" stop-color="#ffcb76"/></linearGradient><linearGradient id="linear-gradient-2" x1="250.899" x2="250.899" xlink:href="#linear-gradient" y1="47.975" y2="298.317"/><linearGradient id="linear-gradient-3" x1="191.457" x2="191.457" xlink:href="#linear-gradient" y1="47.975" y2="298.317"/><linearGradient id="linear-gradient-4" x1="163.016" x2="163.016" xlink:href="#linear-gradient" y1="47.975" y2="298.317"/><linearGradient id="linear-gradient-5" gradientTransform="matrix(.997 .074 -.074 .997 22.099 -18.91)" x1="267.828" x2="267.828" xlink:href="#linear-gradient" y1="47.975" y2="298.317"/><linearGradient id="linear-gradient-6" gradientTransform="matrix(.997 .074 -.074 .997 19.651 -2.86)" x1="48.657" x2="48.657" xlink:href="#linear-gradient" y1="47.975" y2="298.317"/><path d="m310.5 189.453a6.835 6.835 0 0 0 -6.52-4.948 8.021 8.021 0 0 0 -3.412.92c-1.571.827-4.358 5.452-2.7 11.366.445 1.594 2.479 2.789 4.125 3.162a7.01 7.01 0 0 0 5.32-.694 7.16 7.16 0 0 0 3.172-4.112 11.07 11.07 0 0 0 .015-5.694z" fill="url(#linear-gradient)"/><path d="m245.632 41.8c2.261 2.838 4.755 5.825 7.852 7.774 3.708 2.334 9.424-1.6 7.786-5.967-2.514-6.706-9.643-13.082-16.719-14.7-2.262-.518-5.085 1.582-4.115 4.1a34.673 34.673 0 0 0 5.196 8.793z" fill="url(#linear-gradient-2)"/><path d="m235.282 289.408c-7.194-3.493-14.767-3.213-22.614-3.864-8.633-.717-14.57-5.642-22.222-9.032a75.537 75.537 0 0 0 -22.848-5.693c-4.92-.522-15.593-.031-21.128.281a4.575 4.575 0 0 0 -4.016 6.21c1.54 3.971 6.224 8.978 17.279 12.135 10.406 2.971 14.031 16.067 24.363 20.053 9.566 3.691 34.873 1.022 47.242-5.478 7.569-3.977 14.728-9.377 3.944-14.612z" fill="url(#linear-gradient-3)"/><path d="m285.071 212.8c-3.158 4.884-9.441 9.883-13.113 11.073-1.7.55-6.236 1.986-7.923.6-1.878-1.543 1.23-6.264 2.156-7.9 3.282-5.775 7.838-10.693 11.7-16.071a83.311 83.311 0 0 0 9.51-17.841c10.06-25.212 12.581-56.2 5.372-82.463-3.554-12.946-10.786-25.42-22.09-33.286-3.012-2.1-10.246-2.918-7.727 4.155 2.2 6.182 5.074 15.1 1.313 21.135-3.019 4.845-8.272 5.286-12.637 1.881-9.598-7.483-11.659-21.661-18.461-31.283-15.81-22.356-44.3-28.242-70.1-24.552-3.016.431-14.937 2.526-17.88 3.183-12.437 2.776-23.818 4.631-45.159 4.243-8.406-.149-17.032.726-25.014 3.526a43.53 43.53 0 0 0 -18.495 12.124c-2.7 3.056-5.063 6.414-7.982 9.277s-5.355 5.33-11.151 6.089a2.337 2.337 0 0 0 -3.021 2.8c1.664 5.193 6.751 6.679 11.71 7.115 2.894.255 5.975-.068 8.774.873 4.142 1.393 4.056 4.9 2.949 8.243-3.8 5.327-20.631 32.019-24.753 54.731-2.642 14.557-4.6 29.312-3.682 44.075.344 5.532 2.835 28.418 9.734 43.175 1.248 2.669 5.624 3.23 7.562.972 9.251-10.784 22.512 9.012 24.873 16.631 3.338 10.773 1.982 22.531 7.146 32.812 5.534 11.017 17.28 14.375 28.459 16.834 13.83 3.04 27.966 5.443 41.911 1.677 5.316-1.436 4.555-8.326.612-10.07a4.462 4.462 0 0 0 -3.657-1.459c-22.246.751-32.035-18.845-38.788-36.8a175.707 175.707 0 0 0 -12.838-27.488c-7.27-12.336-7.078-29.478-5.548-34.335 2.1-6.655 5.823-13.723 11.564-17.952-.126 1.061-.217 2.123-.287 3.187-4.022 12.635.482 28.024 7.678 38.429a4.737 4.737 0 0 0 8.518-1.109c1.806-4.8 1.643-9.777 1.258-14.811-.383-5.011-1.022-10.257 1.986-14.633 2.716-3.954 6.927-6.7 10.259-10.092a54.354 54.354 0 0 0 8.692-12.383c4.688-8.611 9.446-17.695 19.138-21.531a19.247 19.247 0 0 1 8.01-1.276 7.644 7.644 0 0 1 4.9 13.139c-13.067 12.794-20.267 30.792-21.064 49.192-.553 12.766 2.711 24.257 11.66 33.613a90.712 90.712 0 0 0 14.346 11.768c10.478 7.19 26.323 10.9 33.37 12.145a77.474 77.474 0 0 0 36.187-1.864c12.05-3.715 22.242-10.893 31.571-19.186 8.4-7.471 15.711-16.614 16.006-28.294.138-5.463-5.687-4.908-7.554-2.018z" fill="url(#linear-gradient-4)"/><g fill="#fff"><path d="m59.255 188.649c-3.219 3.628-6.622 13.209-.635 17.972 3.926 3.122 9.4-.405 10.718-4.916a22.562 22.562 0 0 0 .128-10.369c-.808-4.376-7.289-5.982-10.211-2.687z"/><path d="m77.7 159.493c6.272-3.4 10.076-9.363 14.1-15.034a202.5 202.5 0 0 1 12.66-16.646 63.676 63.676 0 0 1 15.484-13.371c6.712-3.918 14.34-5.887 21.085-9.756 4.695-2.693 1.563-10.11-3.679-8.7a20.8 20.8 0 0 1 -13.826-1.008c-4.116-1.666-7.95-3.244-12.5-2.967-9.08.554-16.168 6.648-21.37 13.6-10.731 14.343-21.291 33.439-21.3 51.5.001 4.282 4.862 4.812 9.346 2.382z"/><path d="m252.948 197.525c2.385-10.648 2.384-22.964-.154-30.711-3.256-9.938-9.7-16.715-17.088-23.81a136.176 136.176 0 0 1 -19.632-23.845c-2.938-4.5-10.361-17.563-12.143-18.71-2.549-3.189-7.659-.374-6.9 3.678 3.616 19.385 16.889 35.322 19.318 55.049a90.923 90.923 0 0 1 .63 15.143c-.174 3.866-.014 9.323-3.255 12.089a7.983 7.983 0 0 1 -9.75.364c-2.1-1.671-2.67-3.794-3.065-6.049.024-.031 1.4-10.339-6.185-6.328-10.835 5.729-14.923 20.942-13.016 32.844.893 5.569 4.857 26.458 33.78 26.924 7.74.125 17.341-5.661 21.42-8.868 8.542-6.719 13.685-17.257 16.04-27.77z"/><path d="m249.1 133.034a4.618 4.618 0 0 0 6.237-6.217c-5.959-12.311-11.624-17.751-17.27-18.93-2.553-.534-4.6.277-4.871 2.786-.4 3.722 3.12 9.775 5.371 12.627 2.823 3.576 6.39 7.7 10.533 9.734z"/></g><ellipse cx="267.828" cy="290.636" fill="url(#linear-gradient-5)" rx="10.333" ry="8.336" transform="matrix(.997 -.074 .074 .997 -20.649 20.484)"/><ellipse cx="48.657" cy="265.413" fill="url(#linear-gradient-6)" rx="8.559" ry="8.915" transform="matrix(.997 -.074 .074 .997 -19.387 4.297)"/></svg>