<svg id="icons" height="512" viewBox="0 0 340 340" width="512" xmlns="http://www.w3.org/2000/svg" xmlns:xlink="http://www.w3.org/1999/xlink"><linearGradient id="linear-gradient" gradientUnits="userSpaceOnUse" x1="46.416" x2="279.209" y1="54.121" y2="276.793"><stop offset="0" stop-color="#ffcb76"/><stop offset="1" stop-color="#ff5582"/></linearGradient><linearGradient id="linear-gradient-2" x1="27.164" x2="177.861" xlink:href="#linear-gradient" y1="161.419" y2="298.996"/><linearGradient id="linear-gradient-3" x1="121.881" x2="288.323" xlink:href="#linear-gradient" y1="28.68" y2="166.632"/><linearGradient id="linear-gradient-4" x1="139.609" x2="306.051" xlink:href="#linear-gradient" y1="7.291" y2="145.242"/><linearGradient id="linear-gradient-5" x1="196.195" x2="295.161" xlink:href="#linear-gradient" y1="4.801" y2="96.269"/><linearGradient id="linear-gradient-6" x1="45.053" x2="195.75" xlink:href="#linear-gradient" y1="141.824" y2="279.401"/><linearGradient id="linear-gradient-7" x1="1.443" x2="90.287" xlink:href="#linear-gradient" y1="206.966" y2="296.185"/><linearGradient id="linear-gradient-8" gradientTransform="matrix(.808 .589 -.589 .808 72.215 -51.11)" x1="63.394" x2="296.187" xlink:href="#linear-gradient" y1="36.371" y2="259.043"/><path d="m285.211 214.635c-11.242-9.322-23.925-14.671-36-22.221-14.166-8.86-26.382-20.717-38.5-32.229-.577-.549-9.952-7.567-13.529-10.285-3.628-2.758-8.594 2.623-6.159 6.324 2.782 4.229 6.032 8.442 8.253 13.019 2.607 5.373-1.478 7.078-6.119 5.48-8.72-3-15.912-10.98-21.9-17.794-6.849-7.79-13.377-15.891-20.032-23.856-3.6-4.306-18.223-22.207-22.394-23.7-3.638-1.3-6.122 3.241-4.583 6.125 1.47 3.076 13.433 18.6 3.9 17.29-10.469-1.434-70-77.8-76.353-83.6-4.595-4.188-12.695 1.257-8.949 7.094 4.036 6.3 47.243 58.019 57.019 69.665q14.379 17.13 28.691 34.319c4.57 5.491 24.47 24.715 29.7 28.921a181.611 181.611 0 0 1 13.715 12.213 4.93 4.93 0 0 1 -.266 4.428c-1.6 2.617-6.12.342-8.445-.079-3.17-.572-5.959-.41-7.87 2.485a2.865 2.865 0 0 0 .423 3.365c.906.956 12.589 9.78 16.55 14.918 4.923 6.384 8.743 13.519 12.82 20.479 7.155 12.214 15.407 23.575 26.156 32.72 10.051 8.552 21.69 15.326 34.457 18.467 6.561 1.614 18.986 4.128 29.94-.326 10.881-4.423 17.927-10.506 22.318-20.831 7.702-18.11 6.905-46.015-12.843-62.391z" fill="url(#linear-gradient)"/><path d="m187.635 272.519c-5.068-10.317-13.48-18.114-22.669-24.388-4.809-3.284-8.434-5.781-13.069-9.317-3.488-2.662-10.93-8.788-17.934-9.16-2.867-.152-5.577 3.637-3.667 6.561a4.715 4.715 0 0 1 -.74 6.093 4.118 4.118 0 0 1 -2.975.8c-4.644-.907-8.685-5.3-11.684-8.614-7.449-8.225-14.062-16.754-22.433-24.092-8.251-7.232-46.336-39.116-51.311-41.68-4.607-2.374-6.967 1.986-6.155 4.638 2.2 7.186 24.107 30.945 29.392 37.036 10.523 12.127 20.984 24.367 30.447 37.4 8.435 11.615 16.048 23.835 24.814 35.2 8.46 10.969 18.605 22.623 31.62 27.775a35.707 35.707 0 0 0 20.152 1.628 35.049 35.049 0 0 0 9.807-3.64 19.709 19.709 0 0 0 8.344-8.536c2.173-3.996 4.148-15.312-1.939-27.704z" fill="url(#linear-gradient-2)"/><path d="m311.471 149.357c-5.358-13.6-19.806-18.844-32.676-21.677-7.8-1.716-15.863-3.081-22.772-7.414-7.009-4.4-12.653-11-18.416-16.908-5.815-5.963-11.439-12.286-17.934-17.488a49.267 49.267 0 0 0 -20.257-9.448c-9.172-2.153-17.3-4.383-24.709-10.658-4.2-3.556-7.7-7.8-11.364-11.866a34.973 34.973 0 0 0 -4.316-5.035c-2.19-2.269-4.2-5.015-7.6-4.963a3.826 3.826 0 0 0 -3.688 3.787c-.176 2.643 1.434 4.617 3.117 6.448 1.886 3.612 4.887 6.944 7.161 10.033l10.2 13.852c5.677 7.708 10.8 16.985 20.141 20.316 9.49 3.384 13.592-1.011 28.39 7.865 5.969 3.579 7.259 18.207-2.149 16.161-4.132-.9-8.26 3.021-6.227 7.072 15.066 30.009 36.965 40.772 45.533 48.616 6.981 6.392 15.632 11.8 25.314 11.446 8.587-.318 21.395-4.576 26.272-12.534a26.616 26.616 0 0 0 5.981-27.6z" fill="url(#linear-gradient-3)"/><path d="m185.851 53.591c3.458 3.136 7.032 6.623 11.646 7.519 4.13.8 6.641-3.042 5.09-6.8-1.736-4.207-5.552-7.283-8.854-10.293-3.05-2.779-8.8-7.352-12.292-2.7-3.178 4.226 1.327 9.483 4.41 12.274z" fill="url(#linear-gradient-4)"/><path d="m233.45 53.982c4.408 6.606 8.6 13.355 12.9 20.039 7.571 11.785 17.284 28.8 31.97 31.729 14.647 2.923 27.109-8.746 23.51-24.129-1.979-8.463-12.574-20.426-20.585-28.514a6.453 6.453 0 0 0 -10.734 2.5c-1.588 5.093-4.888 9.218-11.734 5.524a17.488 17.488 0 0 1 -4.351-3.407c-5.616-5.925-25.533-26.777-29.887-30.133-3.417-2.635-7.686 2.4-5.663 5.814 4.241 7.169 9.937 13.629 14.574 20.577z" fill="url(#linear-gradient-5)"/><path d="m120.23 202.48c-2.4-1.538-5.662-2.408-7.618 0-3.893 4.794.646 12.532 7.481 13.857 9.077 1.763 7.307-9.251.137-13.857z" fill="url(#linear-gradient-6)"/><path d="m73.446 261.372a160.017 160.017 0 0 1 -38.69-28.921c-4.27-4.393-10.658 2.246-6.606 6.784.2.22 7.51 13.282 11.123 19.307q6.011 10.027 12.7 19.564c7.67 10.916 16.438 26.133 30.132 29.557 12.607 3.152 25.587-7.657 20.225-21.261-4.93-12.502-17.957-19.137-28.884-25.03z" fill="url(#linear-gradient-7)"/><ellipse cx="114.602" cy="85.353" fill="url(#linear-gradient-8)" rx="8.336" ry="10.333" transform="matrix(.808 -.589 .589 .808 -28.284 83.829)"/><g fill="#fff"><path d="m154.134 270.066-.124-.022a23.572 23.572 0 0 1 -13.843-8.054c-3.443-4.122-8.673-2.891-8.137 3.53a38.383 38.383 0 0 0 4.384 9.534c2.686 3.615 15.227 26.367 33.229 19.842 8.521-3.088 5.219-15.774-1.207-20.365-4.261-3.044-9.325-3.58-14.302-4.465z"/><path d="m204.949 212.19a10.579 10.579 0 0 0 .482 5.386c.67 2.552 2.472 5.18 3.852 7.388 4.232 6.774 8.636 13.442 12.952 20.16 7.383 11.492 15.273 24.277 28.968 28.312 5.574 1.642 17.717.212 23.231-7.959a23.134 23.134 0 0 0 3.749-10.819c.375-6.444-2.978-12.761-7.693-17.011-12.03-10.843-30.7-11.978-37.279-15.442-6.911-3.639-12.138-9.47-18.824-13.554-6.567-4.013-9.117 1.785-9.438 3.539z"/><path d="m235.617 209.01c2.919-.326 5.162-2.709 4.37-5.89-.77-3.089-3.52-4.557-5.964-6.176-2.142-1.419-4.352-3.357-6.872-3.915-3.632-.805-7.4 3.231-5.117 6.833 1.505 2.379 10.694 9.471 13.583 9.148z"/><path d="m281.338 149.147c-8.04-3.909-17.482-4.627-25.834-7.659-3.736-1.357-7.207 3.539-5.139 6.863 4.465 7.177 9.726 15.473 17.111 19.8 4.316 2.528 10.395 3.476 14.221.992a9.785 9.785 0 0 0 3.318-2.208c5.703-5.635 2.904-14.589-3.677-17.788z"/></g></svg>