<svg id="Layer_1" enable-background="new 0 0 48 48" height="512" viewBox="0 0 48 48" width="512" xmlns="http://www.w3.org/2000/svg"><path d="m8 28c-2.209 0-4-1.791-4-4s1.791-4 4-4zm32 0c2.209 0 4-1.791 4-4s-1.791-4-4-4z" fill="#e2c49c"/><path d="m4.101 24.899c-.065-.288-.101-.591-.101-.899 0-2.209 1.791-4 4-4v1zm39.546-2.545c-.628-1.389-2.024-2.354-3.647-2.354v6z" fill="#efe6e1"/><circle cx="24" cy="24" fill="#f2d6ad" r="18"/><path d="m11.272 36.728 25.456-25.456c-3.257-3.257-7.757-5.272-12.728-5.272-9.941 0-18 8.059-18 18 0 4.971 2.015 9.471 5.272 12.728z" fill="#fcf6f2"/><ellipse cx="24" cy="35" fill="#5e5e5e" rx="6" ry="7"/><path d="m28.556 30.444c-1.101-1.496-2.733-2.444-4.556-2.444-3.314 0-6 3.134-6 7 0 1.74.544 3.331 1.444 4.556z" fill="#919191"/><g fill="#828282"><path d="m21 22c0 .351-.185.677-.485.857l-5 3c-.474.284-1.088.131-1.372-.343-.284-.473-.132-1.087.343-1.372l3.571-2.142-3.571-2.143c-.474-.284-.627-.898-.343-1.372.284-.473.897-.627 1.372-.343l5 3c.301.181.485.507.485.858zm12.515-2.143-3.572 2.143 3.571 2.143c.474.285.627.899.343 1.372-.284.474-.899.627-1.372.343l-5-3c-.3-.181-.485-.507-.485-.858s.185-.677.485-.857l5-3c.475-.285 1.088-.13 1.372.343.285.473.131 1.087-.342 1.371z"/><path d="m36.016 6.018c-.459-.308-.583-.928-.276-1.388l2.357-3.528c.307-.459.927-.583 1.387-.276.459.307.583.928.275 1.387l-2.357 3.528c-.306.46-.926.584-1.386.277zm10.882 3.885-3.527 2.358c-.459.307-1.079.184-1.387-.275-.307-.459-.184-1.08.276-1.387l3.527-2.358c.459-.307 1.079-.184 1.387.275.306.46.183 1.08-.276 1.387zm-7.605-2.61 4-4c.391-.391 1.023-.391 1.414 0s.391 1.023 0 1.414l-4 4c-.391.391-1.023.391-1.414 0s-.391-1.023 0-1.414zm-31.053-5.079c-.308-.459-.184-1.08.275-1.387.46-.307 1.08-.183 1.387.276l2.358 3.527c.308.459.184 1.08-.275 1.387-.46.307-1.08.183-1.387-.276zm-3.61 10.048-3.527-2.359c-.46-.307-.583-.927-.276-1.387.308-.46.928-.582 1.387-.275l3.527 2.358c.46.307.583.928.276 1.387-.308.46-.928.583-1.387.276zm-1.337-7.555c-.391-.391-.391-1.023 0-1.414s1.023-.391 1.414 0l4 4c.391.391.391 1.023 0 1.414s-1.023.391-1.414 0z"/></g></svg>