<svg id="icons" height="512" viewBox="0 0 340 340" width="512" xmlns="http://www.w3.org/2000/svg" xmlns:xlink="http://www.w3.org/1999/xlink"><linearGradient id="linear-gradient" gradientUnits="userSpaceOnUse" x1="26.167" x2="235.346" y1="264.308" y2="118.304"><stop offset="0" stop-color="#85c9b8"/><stop offset="1" stop-color="#d8f4c0"/></linearGradient><linearGradient id="linear-gradient-2" x1="247.486" x2="53.644" xlink:href="#linear-gradient" y1="8.427" y2="204.324"/><linearGradient id="linear-gradient-3" x1="257.054" x2="63.212" xlink:href="#linear-gradient" y1="17.895" y2="213.792"/><linearGradient id="linear-gradient-4" x1="318.057" x2="196.135" xlink:href="#linear-gradient" y1="95.981" y2="249.411"/><linearGradient id="linear-gradient-5" gradientUnits="userSpaceOnUse" x1="212.376" x2="64.562" y1="38.395" y2="171.292"><stop offset="0" stop-color="#9dddc1"/><stop offset="1" stop-color="#538e80"/></linearGradient><linearGradient id="linear-gradient-6" x1="109.93" x2="31.955" xlink:href="#linear-gradient-5" y1="23.841" y2="82.153"/><linearGradient id="linear-gradient-7" x1="-30.201" x2="178.977" xlink:href="#linear-gradient" y1="183.549" y2="37.545"/><linearGradient id="linear-gradient-8" x1="323.405" x2="175.591" xlink:href="#linear-gradient-5" y1="161.886" y2="294.783"/><linearGradient id="linear-gradient-9" x1="327.907" x2="180.093" xlink:href="#linear-gradient-5" y1="166.894" y2="299.791"/><linearGradient id="linear-gradient-10" x1="113.385" x2="322.564" xlink:href="#linear-gradient" y1="389.264" y2="243.261"/><linearGradient id="linear-gradient-11" x1="23.474" x2="232.652" xlink:href="#linear-gradient" y1="260.449" y2="114.445"/><linearGradient id="linear-gradient-12" x1="36.053" x2="245.231" xlink:href="#linear-gradient" y1="278.471" y2="132.467"/><linearGradient id="linear-gradient-13" x1="332.106" x2="184.291" xlink:href="#linear-gradient-5" y1="171.564" y2="304.461"/><linearGradient id="linear-gradient-14" gradientUnits="userSpaceOnUse" x1="289.17" x2="290.79" y1="246.527" y2="290.927"><stop offset="0" stop-color="#93bf9c"/><stop offset="1" stop-color="#afdbb3"/></linearGradient><linearGradient id="linear-gradient-15" x1="131.776" x2="84.805" xlink:href="#linear-gradient-14" y1="56.845" y2="96.69"/><linearGradient id="linear-gradient-16" gradientUnits="userSpaceOnUse" x1="285.052" x2="298.339" y1="281.506" y2="228.356"><stop offset="0" stop-color="#67877a"/><stop offset="1" stop-color="#76a17c"/></linearGradient><linearGradient id="linear-gradient-17" x1="121.348" x2="140.145" xlink:href="#linear-gradient-16" y1="66.933" y2="38.738"/><linearGradient id="linear-gradient-18" x1="56.344" x2="115.004" xlink:href="#linear-gradient-14" y1="298.659" y2="286.992"/><linearGradient id="linear-gradient-19" x1="92.204" x2="55.582" xlink:href="#linear-gradient-16" y1="293.99" y2="290.425"/><path d="m266.78 33.214c-11.49 19.092-48.146 75.758-107.247 127.843-3.864 3.405.556 9.45 4.976 6.807 6.655-3.978 13.771-8.467 21.033-13.419 4.674-3.186 9.871 3.222 5.788 7.137-29.452 28.244-78.816 65.318-151.415 88.458-4.727 1.507-3.344 8.647 1.618 8.579 46.85-.64 160.121-18.473 221.431-120.3 2.882-4.786-3.758-9.548-7.391-5.3-14.457 16.892-33.812 37.046-55.689 53.42-4.043 3.027-8.835-2.614-5.177-6.1 32.008-30.47 77.195-81.891 88.354-137.794a11.428 11.428 0 0 0 -5.55-12.111 7.915 7.915 0 0 0 -10.731 2.78z" fill="url(#linear-gradient)"/><path d="m125.391 156.761c-40.375 23.371-75.682 32.161-91.449 35.166a11.922 11.922 0 0 0 -8.4 6.046c-3.8 7.26 2.3 13.8 8.976 12.43 46.86-9.639 77.651-29.055 95.452-47.812a3.744 3.744 0 0 0 -4.579-5.83z" fill="url(#linear-gradient-2)"/><path d="m240.293 39.038a8.921 8.921 0 0 0 -8.774-12.5 10.786 10.786 0 0 0 -9.171 6.5 347.341 347.341 0 0 1 -38.463 67.75 3.745 3.745 0 0 0 5.42 5.081 179.245 179.245 0 0 0 50.988-66.831z" fill="url(#linear-gradient-3)"/><path d="m301.1 112.947c-18.411 36.035-63.864 109.164-144.38 147.025-7.092 3.334-5.37 14.4 2.37 15.076a51.505 51.505 0 0 0 18.26-1.949c20.565-5.683 82.615-54.916 113.439-104.963 9.936-16.131 18.307-33.554 19.09-52.682v-.028a4.643 4.643 0 0 0 -8.779-2.479z" fill="url(#linear-gradient-4)"/><path d="m70.28 161.16a4.474 4.474 0 0 1 -1.7-8.612c44.136-18.129 74.615-46.587 92.411-67.268 19.35-22.488 28.334-40.923 28.423-41.106a4.473 4.473 0 0 1 8.063 3.876c-.377.785-9.46 19.48-29.5 42.821-18.46 21.506-50.1 51.1-96 69.952a4.45 4.45 0 0 1 -1.697.337z" fill="url(#linear-gradient-5)"/><path d="m26.856 85.006a4.474 4.474 0 0 1 -1.28-8.76c.463-.138 46.647-14.327 75.245-52.418a4.473 4.473 0 1 1 7.154 5.372c-30.414 40.511-77.835 55.021-79.839 55.619a4.477 4.477 0 0 1 -1.28.187z" fill="url(#linear-gradient-6)"/><path d="m38.309 134.469a4.474 4.474 0 0 1 -.875-8.86c.224-.045 22.6-4.656 40.958-17.581a4.473 4.473 0 1 1 5.149 7.316c-19.95 14.042-43.363 18.84-44.35 19.037a4.427 4.427 0 0 1 -.882.088z" fill="url(#linear-gradient-7)"/><path d="m142.65 317.274a4.474 4.474 0 0 1 -1.59-8.656 377.736 377.736 0 0 0 53.5-25.166 4.473 4.473 0 1 1 4.448 7.762 386.769 386.769 0 0 1 -54.767 25.767 4.457 4.457 0 0 1 -1.591.293z" fill="url(#linear-gradient-8)"/><path d="m238.107 263.909a4.473 4.473 0 0 1 -2.781-7.979c55.512-43.99 73.465-89.529 73.64-89.984a4.473 4.473 0 0 1 8.356 3.2c-.744 1.946-18.865 48.174-76.44 93.8a4.456 4.456 0 0 1 -2.775.963z" fill="url(#linear-gradient-9)"/><path d="m220.176 317.96a4.474 4.474 0 0 1 -1.88-8.535 189.992 189.992 0 0 0 31.504-19.842 4.473 4.473 0 0 1 5.438 7.1c-17.983 13.769-32.578 20.577-33.19 20.86a4.456 4.456 0 0 1 -1.872.417z" fill="url(#linear-gradient-10)"/><circle cx="135.718" cy="182.104" fill="url(#linear-gradient-11)" r="4.561"/><circle cx="271.88" cy="113.867" fill="url(#linear-gradient-12)" r="4.495"/><circle cx="217.555" cy="274.554" fill="url(#linear-gradient-13)" r="5.382"/><path d="m290.854 244.036s-21.547 10.9-16.874 37.9c3.655 21.122 21.928 24.131 29.71 24.44a1.445 1.445 0 0 0 1.192-2.346c-2.57-3.16-5.846-9.539-1.826-18.979 5.971-14.016 6.75-34.265-12.202-41.015z" fill="url(#linear-gradient-14)"/><path d="m133.964 55.772s4.412 23.743-19.882 36.415c-17.912 9.343-30.917-1.395-36.515-7.687a2.09 2.09 0 0 1 1.477-3.477c4.157-.188 10.348-2.007 14.915-10.058 7.518-13.25 23.141-26.159 40.005-15.193z" fill="url(#linear-gradient-15)"/><path d="m303.8 229.613c-5.583 6.362-16.672 22.838-13.382 50.68a1.464 1.464 0 0 1 -2.87.548c-3.655-14.642-4.573-36.026 11.543-55.25a3.115 3.115 0 0 1 3.66-.849 3.1 3.1 0 0 1 1.049 4.871z" fill="url(#linear-gradient-16)"/><path d="m140.337 34.716c-5.86 26.755-25.974 39.868-38.448 45.57a1.236 1.236 0 0 0 .786 2.331c13.638-3.194 36.094-13.424 44.8-46.134a3.69 3.69 0 0 0 -3.921-4.612 3.9 3.9 0 0 0 -3.217 2.845z" fill="url(#linear-gradient-17)"/><path d="m64.771 294.8s13.931 19.726 39.96 11.162c20.362-6.7 20.672-25.214 19.842-32.959a1.445 1.445 0 0 0 -2.495-.837c-2.751 3-8.584 7.176-18.509 4.577-14.74-3.857-34.887-1.673-38.798 18.057z" fill="url(#linear-gradient-18)"/><path d="m48.613 284.1c7.109 4.594 25.026 13.16 52.091 5.842a1.464 1.464 0 0 1 .96 2.76c-13.952 5.752-34.973 9.782-56.343-3.357a3.115 3.115 0 0 1 -1.374-3.5 3.094 3.094 0 0 1 4.666-1.745z" fill="url(#linear-gradient-19)"/></svg>