<svg xmlns="http://www.w3.org/2000/svg" viewBox="0 0 58 58" width="58" height="58">
	<style>
		tspan { white-space:pre }
		.shp0 { fill: #b0ac41 } 
	</style>
	<g id="Page-1">
		<g id="029---Lane-Split">
			<path id="Shape" class="shp0" d="M57.81 17.44L45.78 0.41C45.59 0.15 45.29 0 44.97 0C44.65 0 44.35 0.15 44.16 0.41L32.19 17.44C31.97 17.74 31.95 18.14 32.12 18.47C32.29 18.8 32.63 19 33 19L39 19L39 22C39 25.99 37.28 29.78 34.28 32.41L31.82 34.56C30.81 35.45 29.86 36.42 29 37.46C28.14 36.42 27.19 35.45 26.18 34.56L23.72 32.41C20.72 29.78 19 25.99 19 22L19 19L25 19C25.37 19 25.71 18.8 25.88 18.47C26.05 18.14 26.03 17.74 25.81 17.44L13.78 0.41C13.59 0.15 13.29 0 12.97 0C12.65 0 12.35 0.15 12.16 0.41L0.19 17.44C-0.03 17.74 -0.05 18.14 0.12 18.47C0.29 18.8 0.63 19 1 19L7 19L7 22C7 29.45 10.21 36.54 15.82 41.44L18.28 43.59C21.28 46.22 23 50.01 23 54L23 57C23 57.55 23.45 58 24 58L34 58C34.55 58 35 57.55 35 57L35 54C35 50.01 36.72 46.22 39.72 43.59L42.18 41.44C47.79 36.54 51 29.45 51 22L51 19L57 19C57.37 19 57.71 18.8 57.88 18.47C58.05 18.14 58.03 17.74 57.81 17.44L57.81 17.44Z" />
		</g>
	</g>
</svg>