<svg xmlns="http://www.w3.org/2000/svg" viewBox="0 0 256 256" width="256" height="256">
	<style>
		tspan { white-space:pre }
		.shp0 { fill: #c71e1e } 
		.shp1 { fill: #941717 } 
		.shp2 { fill: #db2020 } 
		.shp3 { fill: #ffaa20 } 
		.shp4 { fill: #ff8900 } 
		.shp5 { fill: #ff633e } 
		.shp6 { fill: #e70020 } 
	</style>
	<g id="Layer">
		<g id="Layer">
			<path id="Layer" class="shp0" d="M226.6 37.54L82.2 168.11L24.62 143.36L178.5 11.26L226.6 37.54Z" />
			<path id="Layer" class="shp1" d="M85.02 242.91L0 198.27L24.62 143.36L82.2 168.11L85.02 242.91Z" />
			<path id="Layer" class="shp2" d="M254.17 83.98L85.02 242.91L82.2 168.11L226.6 37.54L254.17 83.98Z" />
		</g>
	</g>
	<path id="Layer" class="shp3" d="M256.49 184.12C256.49 223.4 224.52 255.36 185.24 255.36C145.96 255.36 114 223.4 114 184.12C114 167.68 124.66 145.18 146.62 115.32C162.11 94.24 177.38 77.65 178.01 76.96L185.24 69.13L192.47 76.96C193.11 77.65 208.38 94.24 223.87 115.32C245.82 145.18 256.49 167.68 256.49 184.12L256.49 184.12Z" />
	<path id="Layer" class="shp4" d="M256.49 184.12C256.49 223.4 224.52 255.36 185.24 255.36L185.24 69.13L192.47 76.96C193.11 77.65 208.38 94.24 223.87 115.32C245.82 145.18 256.49 167.68 256.49 184.12L256.49 184.12Z" />
	<path id="Layer" class="shp5" d="M225.79 215.49C225.79 237.85 207.6 256.04 185.24 256.04C162.89 256.04 144.7 237.85 144.7 215.49C144.7 206.19 150.35 193.99 161.97 178.19C169.88 167.43 177.69 158.94 178.01 158.59L185.24 150.75L192.47 158.59C192.8 158.94 200.61 167.43 208.52 178.19C220.13 193.99 225.79 206.19 225.79 215.49L225.79 215.49Z" />
	<path id="Layer" class="shp6" d="M225.79 215.49C225.79 237.85 207.6 256.04 185.24 256.04L185.24 150.75L192.47 158.59C192.8 158.94 200.61 167.43 208.52 178.19C220.13 193.99 225.79 206.19 225.79 215.49L225.79 215.49Z" />
</svg>