<svg id="icons" height="512" viewBox="0 0 340 340" width="512" xmlns="http://www.w3.org/2000/svg" xmlns:xlink="http://www.w3.org/1999/xlink"><linearGradient id="linear-gradient" gradientUnits="userSpaceOnUse" x1="169.331" x2="169.331" y1="30.572" y2="293.211"><stop offset="0" stop-color="#8b71af"/><stop offset=".5" stop-color="#c28bcb"/><stop offset="1" stop-color="#e7c7ea"/></linearGradient><linearGradient id="linear-gradient-2" x1="293.265" x2="293.265" xlink:href="#linear-gradient" y1="30.572" y2="293.211"/><linearGradient id="linear-gradient-3" x1="96.437" x2="96.437" xlink:href="#linear-gradient" y1="30.572" y2="293.211"/><linearGradient id="linear-gradient-4" x1="304.95" x2="304.95" xlink:href="#linear-gradient" y1="30.572" y2="293.211"/><path d="m291.883 276.413a2.149 2.149 0 0 0 -3.164-2.381 74.332 74.332 0 0 1 -7.275 3.7 7.1 7.1 0 0 1 -9.695-8.279 114.248 114.248 0 0 1 36.032-57.9 5 5 0 0 0 .957-6.507 55.479 55.479 0 0 1 -9.04-30.913 5.027 5.027 0 0 0 -4-5.018l-4.571-.949a3.75 3.75 0 0 1 -2.95-4.2c.987-6.91 3.865-22.925 10.843-37.781a2.135 2.135 0 0 0 -3.312-2.544c-8.547 7.327-22.708 22.1-35.475 47.656a3.774 3.774 0 0 0 1.994 5.2c10.516 4.108 37.129 17.873 10.836 44.78a14.406 14.406 0 0 1 -16.913 2.815 6.411 6.411 0 0 0 -6.655.522 78.124 78.124 0 0 1 -11.3 6.656 9.842 9.842 0 0 1 -14.047-8.3c-.992-16.256 1.627-47.073 28.314-78.676a9.283 9.283 0 0 0 2.188-5.991c0-7.585.619-26.361 6.211-40.981a2.141 2.141 0 0 0 -3.285-2.488c-6.042 4.54-14.781 11.954-20.007 20.2 0 0 .342-48.342 15.768-85.052a2.253 2.253 0 0 0 -2.081-3.125h-24.485a137.729 137.729 0 0 1 -49.794 0h-32.76a3.959 3.959 0 0 0 -3.9 4.689c2.5 13.272 8.984 52.7 6.29 92.167-.439 6.439-9.42 7.56-11.372 1.408-6.866-21.639-15.909-56.3-18.618-95.349a3.12 3.12 0 0 0 -3.107-2.915h-13.078a3.116 3.116 0 0 0 -3.046 3.789c2.045 9.249 7.551 34.472 13.6 64.974a191.3 191.3 0 0 1 -21.824-18.509 11.54 11.54 0 0 1 -3.368-7.087c-2.454-24.806-7.194-37.116-9.189-41.379a3.107 3.107 0 0 0 -2.821-1.788h-14.5a1.944 1.944 0 0 0 -1.609 3.043c11.314 16.18 13.969 38.076 14.572 48.936a11.62 11.62 0 0 0 5.961 9.578 119.886 119.886 0 0 1 26.064 19.871 50.8 50.8 0 0 1 14.28 27.073c5.874 32.35 11.116 65.535 12.987 89.521a4.86 4.86 0 0 1 -8.822 3.161 77.978 77.978 0 0 1 -9.917-19.34 2.135 2.135 0 0 0 -4.089.142c-.725 2.775-1.528 6.184-2.2 9.878a14.916 14.916 0 0 1 -15.411 12.2c-14.232-.674-32.929-9.112-23.617-51.816a10.459 10.459 0 0 0 -.3-5.539c-2.635-7.865-11.718-29.665-34.823-43.052a2.132 2.132 0 0 0 -2.889 2.971c5.7 8.983 15.436 25.686 20.35 41.9a21.764 21.764 0 0 1 .844 7.884c-.609 8.443-2.772 28.19-10.088 40.905a3.8 3.8 0 0 0 1.061 5.013 327.606 327.606 0 0 1 44.243 38.1 6.234 6.234 0 0 1 -5.125 10.5 51.745 51.745 0 0 1 -12.242-2.83 2.145 2.145 0 0 0 -2.743 2.7c1.685 5.182 3.286 13.883-1.772 20.429-3.59 4.645-12.328 8.234-20.621 10.741a2.2 2.2 0 0 0 .652 4.309h55.27c56.675-5.6 110.974-5.979 162.382 0h40.029a2.2 2.2 0 0 0 1.235-4.024c-7.22-4.785-15.784-14.533-11.063-32.698z" fill="url(#linear-gradient)"/><path d="m286.294 29.591a113.807 113.807 0 0 1 -9.9 39.068 1.847 1.847 0 0 0 2.715 2.3c8.233-5.54 23.75-18.4 31.059-40.3a2.906 2.906 0 0 0 -2.771-3.8h-18.197a2.9 2.9 0 0 0 -2.906 2.732z" fill="url(#linear-gradient-2)"/><path d="m176.977 26.857h49.794s-28.317 129.338-29.4 222.672a13.848 13.848 0 0 0 19.58 12.762 82.093 82.093 0 0 0 9.639-5.105 2.248 2.248 0 0 1 3.321 2.617 70.5 70.5 0 0 0 -3.486 17.122 10.818 10.818 0 0 0 13.369 11.257 27.033 27.033 0 0 0 5.991-2.251 2.245 2.245 0 0 1 3.227 2.4c-1.285 7.262-1.2 19.732 12.67 24.814h-162.382s30.728-6.544 16.69-41.725a2.25 2.25 0 0 1 3.142-2.834 54.02 54.02 0 0 0 19.536 6.072 13.088 13.088 0 0 0 14.379-12.421 61.66 61.66 0 0 0 -.365-10.223 2.247 2.247 0 0 1 3.62-2.031 31.169 31.169 0 0 0 5.958 3.642 8.955 8.955 0 0 0 12.713-7.293c3.089-33.365 11.309-137.671 2.004-219.475z" fill="#fff"/><path d="m157.377 152.22a17.637 17.637 0 0 1 2.113 6.98 12.271 12.271 0 0 1 -.4 5.041c-.977 3.1-3.712 7.112-11.371 5.312-7.162-1.682-5.451-10.09-3.112-16.246a7.112 7.112 0 0 1 12.77-1.087z" fill="#fff"/><path d="m96.972 166.918a5.7 5.7 0 0 0 -7.228 3.2c-.97 2.343-1.456 5.322.309 8.063a13.22 13.22 0 0 0 5.9 4.707 5.7 5.7 0 0 0 8.017-4.772c.266-4.057-.88-8.922-6.998-11.198z" fill="url(#linear-gradient-3)"/><circle cx="304.95" cy="255.484" fill="url(#linear-gradient-4)" r="5.925"/></svg>