<svg xmlns="http://www.w3.org/2000/svg" viewBox="0 0 512 512" width="512" height="512">
	<style>
		tspan { white-space:pre }
		.shp0 { fill: #b2b070 } 
		.shp1 { fill: #b0ac41 } 
	</style>
	<g id="Layer">
		<g id="Layer">
			<g id="Layer">
				<path id="Layer" class="shp0" d="M356.67 95.45L266.67 4.45C263.73 1.48 259.87 0 256 0C252.13 0 248.26 1.49 245.33 4.45L155.33 95.45C145.99 104.9 152.7 121 166 121L346 121C359.29 121 366.02 104.91 356.67 95.45Z" />
			</g>
		</g>
		<path id="Layer" class="shp1" d="M346 121L256 121L256 0C259.87 0 263.73 1.48 266.67 4.45L356.67 95.45C366.02 104.91 359.29 121 346 121Z" />
		<g id="Layer">
			<g id="Layer">
				<path id="Layer" class="shp0" d="M346 391L166 391C152.71 391 145.98 407.09 155.33 416.55L245.33 507.55C248.27 510.52 252.13 512 256 512C259.87 512 263.74 510.51 266.67 507.55L356.67 416.55C366.01 407.1 359.3 391 346 391Z" />
			</g>
		</g>
		<path id="Layer" class="shp1" d="M356.67 416.55L266.67 507.55C263.74 510.51 259.87 512 256 512L256 391L346 391C359.3 391 366.01 407.1 356.67 416.55Z" />
		<g id="Layer">
			<g id="Layer">
				<path id="Layer" class="shp0" d="M95.45 356.67L4.45 266.67C-1.49 260.79 -1.48 251.2 4.45 245.34L95.45 155.34C104.91 145.98 121 152.71 121 166L121 346C121 359.3 104.9 366.01 95.45 356.67Z" />
			</g>
		</g>
		<g id="Layer">
			<g id="Layer">
				<path id="Layer" class="shp1" d="M391 346L391 166C391 152.71 407.09 145.98 416.55 155.34L507.55 245.34C513.49 251.21 513.48 260.8 507.55 266.67L416.55 356.67C407.11 366 391 359.32 391 346Z" />
			</g>
		</g>
		<g id="Layer">
			<path id="Layer" class="shp0" d="M346 151L166 151C157.72 151 151 157.72 151 166L151 226C151 234.28 157.72 241 166 241L346 241C354.28 241 361 234.28 361 226L361 166C361 157.72 354.28 151 346 151Z" />
		</g>
		<g id="Layer">
			<path id="Layer" class="shp0" d="M346 271L166 271C157.72 271 151 277.72 151 286L151 346C151 354.28 157.72 361 166 361L346 361C354.28 361 361 354.28 361 346L361 286C361 277.72 354.28 271 346 271Z" />
		</g>
		<g id="Layer">
			<path id="Layer" class="shp1" d="M361 166L361 226C361 234.28 354.28 241 346 241L256 241L256 151L346 151C354.28 151 361 157.72 361 166Z" />
			<path id="Layer" class="shp1" d="M361 286L361 346C361 354.28 354.28 361 346 361L256 361L256 271L346 271C354.28 271 361 277.72 361 286Z" />
		</g>
	</g>
</svg>