<svg xmlns="http://www.w3.org/2000/svg" viewBox="0 0 289.49 85.66"><defs><style>.cls-1{fill:#009245;}</style></defs><g id="Layer_2" data-name="Layer 2"><g id="Layer_1-2" data-name="Layer 1"><path class="cls-1" d="M42.69,15.51V98.22H25.2V32.11h-.48L5.78,44V28.47l20.47-13Z" transform="translate(-5.78 -14.38)"/><path class="cls-1" d="M94.79,100a31.41,31.41,0,0,1-17.92-5.13A32.23,32.23,0,0,1,65.36,80.17q-4-9.66-4-23.23t4-23.06A31.69,31.69,0,0,1,76.91,19.36a31.58,31.58,0,0,1,17.88-5,31.43,31.43,0,0,1,17.87,5A31.88,31.88,0,0,1,124.19,33.9q4,9.51,4,23t-4,23.27A32.26,32.26,0,0,1,112.68,95,31.06,31.06,0,0,1,94.79,100Zm0-14.5q7.09,0,11.34-7.15t4.2-21.45a54.71,54.71,0,0,0-1.91-15.67Q106.5,35,103,31.86a11.86,11.86,0,0,0-8.21-3.15q-7.08,0-11.31,7.07T79.2,56.94a56.29,56.29,0,0,0,1.91,15.9Q83,79.2,86.55,82.37A11.92,11.92,0,0,0,94.79,85.54Z" transform="translate(-5.78 -14.38)"/><path class="cls-1" d="M217.11,56.86q0,13.53-5.1,23a35.58,35.58,0,0,1-13.9,14.48,41.53,41.53,0,0,1-39.51,0,35.6,35.6,0,0,1-13.86-14.5q-5.09-9.48-5.09-23t5.09-23A35.55,35.55,0,0,1,158.6,19.36a41.67,41.67,0,0,1,39.51,0A35.7,35.7,0,0,1,212,33.84Q217.11,43.34,217.11,56.86Zm-17.72,0a37.13,37.13,0,0,0-2.61-14.78A20.12,20.12,0,0,0,189.45,33a21.24,21.24,0,0,0-22.13,0A20.12,20.12,0,0,0,160,42.08a37.13,37.13,0,0,0-2.61,14.78A37.19,37.19,0,0,0,160,71.65a20.12,20.12,0,0,0,7.33,9.12,21.24,21.24,0,0,0,22.13,0,20.12,20.12,0,0,0,7.33-9.12A37.19,37.19,0,0,0,199.39,56.86Z" transform="translate(-5.78 -14.38)"/><path class="cls-1" d="M230,98.22V15.51h32.63a35.39,35.39,0,0,1,16,3.33,23.54,23.54,0,0,1,10.14,9.41,28.14,28.14,0,0,1,3.49,14.28,27,27,0,0,1-3.55,14.15,23,23,0,0,1-10.28,9.07,38.08,38.08,0,0,1-16.25,3.15H240.38V54.84h19a21.76,21.76,0,0,0,8.32-1.37,10,10,0,0,0,4.95-4.12,13.12,13.12,0,0,0,1.63-6.82,13.67,13.67,0,0,0-1.63-7,10.44,10.44,0,0,0-5-4.3,20.82,20.82,0,0,0-8.38-1.48h-11.8V98.22ZM274.7,60.58l20.56,37.64H276L255.84,60.58Z" transform="translate(-5.78 -14.38)"/></g></g></svg>