<svg xmlns="http://www.w3.org/2000/svg" viewBox="0 0 243.81 85.66"><defs><style>.cls-1{fill:#009245;}</style></defs><g id="Layer_2" data-name="Layer 2"><g id="Layer_1-2" data-name="Layer 1"><path class="cls-1" d="M42.69,15.51V98.22H25.2V32.11h-.48L5.78,44V28.47l20.47-13Z" transform="translate(-5.78 -14.38)"/><path class="cls-1" d="M94.79,100a31.41,31.41,0,0,1-17.92-5.13A32.23,32.23,0,0,1,65.36,80.17q-4-9.66-4-23.23t4-23.06A31.69,31.69,0,0,1,76.91,19.36a31.58,31.58,0,0,1,17.88-5,31.43,31.43,0,0,1,17.87,5A31.88,31.88,0,0,1,124.19,33.9q4,9.51,4,23t-4,23.27A32.26,32.26,0,0,1,112.68,95,31.06,31.06,0,0,1,94.79,100Zm0-14.5q7.09,0,11.34-7.15t4.2-21.45a54.71,54.71,0,0,0-1.91-15.67Q106.5,35,103,31.86a11.86,11.86,0,0,0-8.21-3.15q-7.08,0-11.31,7.07T79.2,56.94a56.29,56.29,0,0,0,1.91,15.9Q83,79.2,86.55,82.37A11.92,11.92,0,0,0,94.79,85.54Z" transform="translate(-5.78 -14.38)"/><path class="cls-1" d="M159.73,98.22,136.06,15.51h19.1L168.85,73h.69l15.1-57.47H201L216.06,73.1h.73l13.69-57.59h19.11L225.92,98.22h-17L193.13,44.14h-.65L176.77,98.22Z" transform="translate(-5.78 -14.38)"/></g></g></svg>