<svg xmlns="http://www.w3.org/2000/svg" viewBox="0 0 197.97 84.97"><defs><style>.cls-1{fill:#009245;}</style></defs><g id="Layer_2" data-name="Layer 2"><g id="Layer_1-2" data-name="Layer 1"><path class="cls-1" d="M6.7,98.22V85.62L36.15,58.36q3.75-3.64,6.32-6.54a24.7,24.7,0,0,0,3.89-5.72A14,14,0,0,0,47.7,40,11.65,11.65,0,0,0,46,33.74a11.09,11.09,0,0,0-4.52-4.08A14.44,14.44,0,0,0,35,28.23a13.72,13.72,0,0,0-6.63,1.53A10.59,10.59,0,0,0,24,34.17,14.28,14.28,0,0,0,22.5,41H5.9A26.35,26.35,0,0,1,9.57,26.9a24.48,24.48,0,0,1,10.3-9.25,34.07,34.07,0,0,1,15.27-3.27,35.73,35.73,0,0,1,15.48,3.13A24.6,24.6,0,0,1,60.9,26.17a22.41,22.41,0,0,1,3.68,12.68,24.64,24.64,0,0,1-1.84,9.25,39.25,39.25,0,0,1-6.52,10.12A149.66,149.66,0,0,1,43,71.52L30.94,83.36v.56H65.67v14.3Z" transform="translate(-5.9 -14.38)"/><path class="cls-1" d="M78.83,98.22V15.51h32.63a35.43,35.43,0,0,1,16,3.33,23.54,23.54,0,0,1,10.14,9.41,28.24,28.24,0,0,1,3.49,14.28,27,27,0,0,1-3.56,14.15,22.94,22.94,0,0,1-10.27,9.07A38.12,38.12,0,0,1,111,68.9H89.17V54.84h19a21.73,21.73,0,0,0,8.32-1.37,10,10,0,0,0,4.95-4.12,13.12,13.12,0,0,0,1.64-6.82,13.67,13.67,0,0,0-1.64-7,10.4,10.4,0,0,0-5-4.3,20.79,20.79,0,0,0-8.38-1.48H96.32V98.22ZM123.5,60.58l20.56,37.64H124.75L104.64,60.58Z" transform="translate(-5.9 -14.38)"/><path class="cls-1" d="M186.58,15.51h17.29V73.18a26.21,26.21,0,0,1-3.58,13.89,23.87,23.87,0,0,1-9.91,9.09,32.35,32.35,0,0,1-14.74,3.19,33.5,33.5,0,0,1-13.55-2.65,21.48,21.48,0,0,1-9.63-8.07Q148.91,83.2,148.94,75h17.41a12,12,0,0,0,1.35,5.59,8.72,8.72,0,0,0,3.52,3.55,10.74,10.74,0,0,0,5.31,1.24,10.15,10.15,0,0,0,5.47-1.4,8.75,8.75,0,0,0,3.41-4.1,16.76,16.76,0,0,0,1.17-6.66Z" transform="translate(-5.9 -14.38)"/></g></g></svg>