<svg xmlns="http://www.w3.org/2000/svg" viewBox="0 0 214.21 85.01"><defs><style>.cls-1{fill:#009245;}</style></defs><g id="Layer_2" data-name="Layer 2"><g id="Layer_1-2" data-name="Layer 1"><path class="cls-1" d="M37.28,99.35a39.26,39.26,0,0,1-16.1-3.13,27.08,27.08,0,0,1-11.1-8.64A21.53,21.53,0,0,1,5.9,74.84H23.5a9.09,9.09,0,0,0,2,5.31,11.92,11.92,0,0,0,4.91,3.53,18.06,18.06,0,0,0,6.91,1.25,16.73,16.73,0,0,0,7.06-1.41,11.58,11.58,0,0,0,4.81-3.92A10.37,10.37,0,0,0,49.09,68a12.16,12.16,0,0,0-5.25-4,20.6,20.6,0,0,0-8.1-1.45H28V49.63h7.71a16.83,16.83,0,0,0,7-1.37,11.18,11.18,0,0,0,4.74-3.82,9.68,9.68,0,0,0,1.7-5.71,9.85,9.85,0,0,0-5.59-9.17,13.53,13.53,0,0,0-6.16-1.33,16.18,16.18,0,0,0-6.5,1.27,11.58,11.58,0,0,0-4.73,3.62,9.48,9.48,0,0,0-1.9,5.49H7.55A21.5,21.5,0,0,1,11.63,26a26.59,26.59,0,0,1,10.68-8.54,36,36,0,0,1,15.21-3.09,33.89,33.89,0,0,1,15,3.11,24.75,24.75,0,0,1,10,8.38A20.32,20.32,0,0,1,66,37.68a16.17,16.17,0,0,1-4.3,11.59,19.77,19.77,0,0,1-11.29,5.9v.64Q59.58,57,64.36,62.13A18,18,0,0,1,69.1,75,20.25,20.25,0,0,1,65,87.56,27.42,27.42,0,0,1,53.75,96.2,40.66,40.66,0,0,1,37.28,99.35Z" transform="translate(-5.9 -14.38)"/><path class="cls-1" d="M82.19,98.22V15.51H115.3q9.14,0,15.23,2.7a20.39,20.39,0,0,1,9.17,7.5,20,20,0,0,1,3.07,11,17.89,17.89,0,0,1-1.94,8.5,16.72,16.72,0,0,1-5.31,6,21.93,21.93,0,0,1-7.7,3.29v.81A18.63,18.63,0,0,1,136.69,58a19,19,0,0,1,6.72,6.89A20.54,20.54,0,0,1,146,75.36a21.55,21.55,0,0,1-3.25,11.73,22.09,22.09,0,0,1-9.6,8.14q-6.33,3-15.63,3Zm17.48-48.1h13a15.49,15.49,0,0,0,6.4-1.27,10.68,10.68,0,0,0,4.44-3.62,9.55,9.55,0,0,0,1.64-5.61A9.11,9.11,0,0,0,122,32.39c-2.12-1.83-5.11-2.75-9-2.75H99.67Zm0,33.8h14.26q7.3,0,10.66-2.8a9.28,9.28,0,0,0,3.35-7.5,10.85,10.85,0,0,0-6.36-10.17,16.26,16.26,0,0,0-7.25-1.5H99.67Z" transform="translate(-5.9 -14.38)"/><path class="cls-1" d="M202.21,39.3a10.23,10.23,0,0,0-4.16-7.6q-3.68-2.7-10-2.7a19.19,19.19,0,0,0-7.23,1.19,10.06,10.06,0,0,0-4.5,3.29,7.79,7.79,0,0,0-1.56,4.77,6.68,6.68,0,0,0,1,3.87A9.22,9.22,0,0,0,178.59,45a20.53,20.53,0,0,0,4.2,2.06,40,40,0,0,0,5.09,1.47l7.43,1.78a52.79,52.79,0,0,1,9.93,3.23,30.16,30.16,0,0,1,7.84,5,21,21,0,0,1,5.15,7,22.09,22.09,0,0,1,1.87,9.16,22.83,22.83,0,0,1-3.85,13.15,24.61,24.61,0,0,1-11,8.6,44,44,0,0,1-17.26,3,45.28,45.28,0,0,1-17.43-3.07A25.36,25.36,0,0,1,159,87.21q-4.14-6-4.34-15H171.6a12.58,12.58,0,0,0,2.4,6.93,12.94,12.94,0,0,0,5.7,4.16,22.1,22.1,0,0,0,8.09,1.39,21.16,21.16,0,0,0,7.74-1.29,11.81,11.81,0,0,0,5.11-3.6,8.29,8.29,0,0,0,1.82-5.29,6.9,6.9,0,0,0-1.64-4.68,12.72,12.72,0,0,0-4.77-3.23,48.91,48.91,0,0,0-7.65-2.43l-9-2.26q-10.45-2.54-16.51-8t-6-14.58a21.56,21.56,0,0,1,4-13.13A26.83,26.83,0,0,1,172,17.53a39.52,39.52,0,0,1,16.16-3.15,38.33,38.33,0,0,1,16.09,3.15A25.5,25.5,0,0,1,215,26.29a23.24,23.24,0,0,1,3.95,13Z" transform="translate(-5.9 -14.38)"/></g></g></svg>