<svg xmlns="http://www.w3.org/2000/svg" viewBox="0 0 213.76 84.97"><defs><style>.cls-1{fill:#009245;}</style></defs><g id="Layer_2" data-name="Layer 2"><g id="Layer_1-2" data-name="Layer 1"><path class="cls-1" d="M37.28,99.35a39.26,39.26,0,0,1-16.1-3.13,27.08,27.08,0,0,1-11.1-8.64A21.53,21.53,0,0,1,5.9,74.84H23.5a9.09,9.09,0,0,0,2,5.31,11.92,11.92,0,0,0,4.91,3.53,18.06,18.06,0,0,0,6.91,1.25,16.73,16.73,0,0,0,7.06-1.41,11.58,11.58,0,0,0,4.81-3.92A10.37,10.37,0,0,0,49.09,68a12.16,12.16,0,0,0-5.25-4,20.6,20.6,0,0,0-8.1-1.45H28V49.63h7.71a16.83,16.83,0,0,0,7-1.37,11.18,11.18,0,0,0,4.74-3.82,9.68,9.68,0,0,0,1.7-5.71,9.85,9.85,0,0,0-5.59-9.17,13.53,13.53,0,0,0-6.16-1.33,16.18,16.18,0,0,0-6.5,1.27,11.58,11.58,0,0,0-4.73,3.62,9.48,9.48,0,0,0-1.9,5.49H7.55A21.5,21.5,0,0,1,11.63,26a26.59,26.59,0,0,1,10.68-8.54,36,36,0,0,1,15.21-3.09,33.89,33.89,0,0,1,15,3.11,24.75,24.75,0,0,1,10,8.38A20.32,20.32,0,0,1,66,37.68a16.17,16.17,0,0,1-4.3,11.59,19.77,19.77,0,0,1-11.29,5.9v.64Q59.58,57,64.36,62.13A18,18,0,0,1,69.1,75,20.25,20.25,0,0,1,65,87.56,27.42,27.42,0,0,1,53.75,96.2,40.66,40.66,0,0,1,37.28,99.35Z" transform="translate(-5.9 -14.38)"/><path class="cls-1" d="M82.19,98.22V15.51h32.63q9.41,0,16,3.57A24.58,24.58,0,0,1,141,29a29.56,29.56,0,0,1,3.49,14.56,29.08,29.08,0,0,1-3.55,14.54,24.6,24.6,0,0,1-10.28,9.81q-6.72,3.51-16.26,3.51H93.57v-14h18a17.65,17.65,0,0,0,8.34-1.76,11.53,11.53,0,0,0,4.92-4.88,15.36,15.36,0,0,0,1.64-7.21,15.19,15.19,0,0,0-1.64-7.21,11.37,11.37,0,0,0-4.94-4.81,18.24,18.24,0,0,0-8.4-1.72H99.67V98.22Z" transform="translate(-5.9 -14.38)"/><path class="cls-1" d="M155.85,98.22V15.51H189q9.12,0,15.22,2.7a20.33,20.33,0,0,1,9.17,7.5,19.88,19.88,0,0,1,3.07,11,17.89,17.89,0,0,1-1.94,8.5,16.53,16.53,0,0,1-5.31,6,21.88,21.88,0,0,1-7.69,3.29v.81A18.6,18.6,0,0,1,210.35,58a19.1,19.1,0,0,1,6.73,6.89,20.53,20.53,0,0,1,2.58,10.52,21.47,21.47,0,0,1-3.25,11.73,22.11,22.11,0,0,1-9.59,8.14q-6.34,3-15.63,3Zm17.49-48.1h13a15.46,15.46,0,0,0,6.4-1.27,10.77,10.77,0,0,0,4.45-3.62,9.62,9.62,0,0,0,1.63-5.61,9.11,9.11,0,0,0-3.17-7.23q-3.17-2.75-9-2.75H173.34Zm0,33.8h14.25q7.32,0,10.67-2.8a9.31,9.31,0,0,0,3.35-7.5A11.06,11.06,0,0,0,200,67.57a11.21,11.21,0,0,0-4.7-4.12A16.29,16.29,0,0,0,188,62H173.34Z" transform="translate(-5.9 -14.38)"/></g></g></svg>