<svg xmlns="http://www.w3.org/2000/svg" viewBox="0 0 213.52 85.01"><defs><style>.cls-1{fill:#009245;}</style></defs><g id="Layer_2" data-name="Layer 2"><g id="Layer_1-2" data-name="Layer 1"><path class="cls-1" d="M37.28,99.35a39.26,39.26,0,0,1-16.1-3.13,27.08,27.08,0,0,1-11.1-8.64A21.53,21.53,0,0,1,5.9,74.84H23.5a9.09,9.09,0,0,0,2,5.31,11.92,11.92,0,0,0,4.91,3.53,18.06,18.06,0,0,0,6.91,1.25,16.73,16.73,0,0,0,7.06-1.41,11.58,11.58,0,0,0,4.81-3.92A10.37,10.37,0,0,0,49.09,68a12.16,12.16,0,0,0-5.25-4,20.6,20.6,0,0,0-8.1-1.45H28V49.63h7.71a16.83,16.83,0,0,0,7-1.37,11.18,11.18,0,0,0,4.74-3.82,9.68,9.68,0,0,0,1.7-5.71,9.85,9.85,0,0,0-5.59-9.17,13.53,13.53,0,0,0-6.16-1.33,16.18,16.18,0,0,0-6.5,1.27,11.58,11.58,0,0,0-4.73,3.62,9.48,9.48,0,0,0-1.9,5.49H7.55A21.5,21.5,0,0,1,11.63,26a26.59,26.59,0,0,1,10.68-8.54,36,36,0,0,1,15.21-3.09,33.89,33.89,0,0,1,15,3.11,24.75,24.75,0,0,1,10,8.38A20.32,20.32,0,0,1,66,37.68a16.17,16.17,0,0,1-4.3,11.59,19.77,19.77,0,0,1-11.29,5.9v.64Q59.58,57,64.36,62.13A18,18,0,0,1,69.1,75,20.25,20.25,0,0,1,65,87.56,27.42,27.42,0,0,1,53.75,96.2,40.66,40.66,0,0,1,37.28,99.35Z" transform="translate(-5.9 -14.38)"/><path class="cls-1" d="M127.05,39.3a10.25,10.25,0,0,0-4.15-7.6q-3.69-2.7-10-2.7a19.26,19.26,0,0,0-7.23,1.19,10.06,10.06,0,0,0-4.5,3.29,7.79,7.79,0,0,0-1.56,4.77,6.76,6.76,0,0,0,1,3.87A9.22,9.22,0,0,0,103.43,45a20.53,20.53,0,0,0,4.2,2.06,40,40,0,0,0,5.09,1.47l7.43,1.78a52.79,52.79,0,0,1,9.93,3.23,30.16,30.16,0,0,1,7.84,5,20.84,20.84,0,0,1,5.15,7A22.25,22.25,0,0,1,145,74.59a22.91,22.91,0,0,1-3.86,13.15,24.61,24.61,0,0,1-11,8.6,44,44,0,0,1-17.26,3,45.28,45.28,0,0,1-17.43-3.07,25.36,25.36,0,0,1-11.55-9.11q-4.14-6-4.34-15H96.44a12.58,12.58,0,0,0,2.4,6.93,13,13,0,0,0,5.7,4.16,22.12,22.12,0,0,0,8.1,1.39,21.11,21.11,0,0,0,7.73-1.29,11.75,11.75,0,0,0,5.11-3.6,8.29,8.29,0,0,0,1.82-5.29,6.9,6.9,0,0,0-1.64-4.68,12.76,12.76,0,0,0-4.76-3.23,49.41,49.41,0,0,0-7.66-2.43l-9-2.26q-10.47-2.54-16.52-8t-6-14.58a21.56,21.56,0,0,1,4-13.13,26.86,26.86,0,0,1,11.17-8.76A39.44,39.44,0,0,1,113,14.38a38.33,38.33,0,0,1,16.09,3.15,25.5,25.5,0,0,1,10.73,8.76,23.25,23.25,0,0,1,4,13Z" transform="translate(-5.9 -14.38)"/><path class="cls-1" d="M201.53,39.3a10.26,10.26,0,0,0-4.16-7.6q-3.68-2.7-10-2.7a19.26,19.26,0,0,0-7.23,1.19,10.12,10.12,0,0,0-4.5,3.29,7.79,7.79,0,0,0-1.56,4.77,6.76,6.76,0,0,0,1,3.87A9.22,9.22,0,0,0,177.9,45,20.53,20.53,0,0,0,182.1,47a40,40,0,0,0,5.09,1.47l7.43,1.78a52.79,52.79,0,0,1,9.93,3.23,30.16,30.16,0,0,1,7.84,5,20.84,20.84,0,0,1,5.15,7,22.25,22.25,0,0,1,1.88,9.16,22.91,22.91,0,0,1-3.86,13.15,24.58,24.58,0,0,1-11,8.6,44.09,44.09,0,0,1-17.27,3,45.28,45.28,0,0,1-17.43-3.07,25.36,25.36,0,0,1-11.55-9.11q-4.14-6-4.34-15h16.92a12.51,12.51,0,0,0,2.41,6.93A12.91,12.91,0,0,0,179,83.34a22.12,22.12,0,0,0,8.1,1.39,21.11,21.11,0,0,0,7.73-1.29,11.75,11.75,0,0,0,5.11-3.6,8.29,8.29,0,0,0,1.82-5.29,6.9,6.9,0,0,0-1.64-4.68,12.76,12.76,0,0,0-4.76-3.23,49.41,49.41,0,0,0-7.66-2.43l-9-2.26q-10.47-2.54-16.52-8t-6-14.58a21.62,21.62,0,0,1,4-13.13,26.86,26.86,0,0,1,11.17-8.76,39.47,39.47,0,0,1,16.15-3.15,38.38,38.38,0,0,1,16.1,3.15,25.47,25.47,0,0,1,10.72,8.76,23.17,23.17,0,0,1,4,13Z" transform="translate(-5.9 -14.38)"/></g></g></svg>