<svg xmlns="http://www.w3.org/2000/svg" viewBox="0 0 215.74 84.97"><defs><style>.cls-1{fill:#009245;}</style></defs><g id="Layer_2" data-name="Layer 2"><g id="Layer_1-2" data-name="Layer 1"><path class="cls-1" d="M5.45,83.68V69.91L40,15.51H51.86V34.57h-7L23.06,69v.65H72.13v14Zm39.7,14.54V79.48l.33-6.1V15.51H61.87V98.22Z" transform="translate(-5.45 -14.38)"/><path class="cls-1" d="M139.13,42.24A18.54,18.54,0,0,0,136.75,37,15.3,15.3,0,0,0,133,33.14a16.59,16.59,0,0,0-5-2.45,21.52,21.52,0,0,0-6.2-.84A19.77,19.77,0,0,0,110.68,33a20.55,20.55,0,0,0-7.45,9.14,35.93,35.93,0,0,0-2.67,14.64,36.9,36.9,0,0,0,2.63,14.7,20.35,20.35,0,0,0,7.43,9.23A20.06,20.06,0,0,0,122,83.88a22.31,22.31,0,0,0,10.15-2.12,15,15,0,0,0,6.46-6,17.92,17.92,0,0,0,2.25-9.16l3.55.52H123.06V54h34.61V64.38q0,10.91-4.61,18.71a31.16,31.16,0,0,1-12.68,12,39.37,39.37,0,0,1-18.49,4.22,39.76,39.76,0,0,1-20.44-5.15A35.28,35.28,0,0,1,87.74,79.54q-4.9-9.51-4.91-22.6A51.47,51.47,0,0,1,85.76,39,38.16,38.16,0,0,1,94,25.6a35.63,35.63,0,0,1,12.32-8.36,39.92,39.92,0,0,1,15.22-2.86,40.77,40.77,0,0,1,13.09,2,35.39,35.39,0,0,1,10.76,5.75A31.2,31.2,0,0,1,153.06,31a30.13,30.13,0,0,1,3.84,11.24Z" transform="translate(-5.45 -14.38)"/><path class="cls-1" d="M203.91,15.51H221.2V73.18a26.3,26.3,0,0,1-3.58,13.89,23.93,23.93,0,0,1-9.91,9.09A32.37,32.37,0,0,1,193,99.35a33.45,33.45,0,0,1-13.54-2.65,21.45,21.45,0,0,1-9.64-8.07Q166.23,83.2,166.27,75h17.41A12,12,0,0,0,185,80.55a8.76,8.76,0,0,0,3.51,3.55,10.8,10.8,0,0,0,5.31,1.24,10.19,10.19,0,0,0,5.48-1.4,8.75,8.75,0,0,0,3.41-4.1,16.76,16.76,0,0,0,1.17-6.66Z" transform="translate(-5.45 -14.38)"/></g></g></svg>