<svg xmlns="http://www.w3.org/2000/svg" viewBox="0 0 252.66 82.71"><defs><style>.cls-1{fill:#009245;}</style></defs><g id="Layer_2" data-name="Layer 2"><g id="Layer_1-2" data-name="Layer 1"><path class="cls-1" d="M5.45,83.68V69.91L40,15.51H51.86V34.57h-7L23.06,69v.65H72.13v14Zm39.7,14.54V79.48l.33-6.1V15.51H61.87V98.22Z" transform="translate(-5.45 -15.51)"/><path class="cls-1" d="M84.29,15.51h21.56l22.78,55.57h1l22.78-55.57h21.56V98.22H157V44.38h-.69l-21.4,53.43H123.34L101.93,44.18h-.68v54h-17Z" transform="translate(-5.45 -15.51)"/><path class="cls-1" d="M217.64,98.22H188.32V15.51h29.56q12.48,0,21.49,5a33.72,33.72,0,0,1,13.87,14.19q4.88,9.26,4.87,22.13T253.24,79a33.72,33.72,0,0,1-13.93,14.25Q230.24,98.22,217.64,98.22Zm-11.83-15h11.1A28.11,28.11,0,0,0,230,80.47a17.65,17.65,0,0,0,8-8.6q2.7-5.84,2.69-15.09T238,41.8a17.57,17.57,0,0,0-8-8.56A28.12,28.12,0,0,0,217,30.49H205.81Z" transform="translate(-5.45 -15.51)"/></g></g></svg>