<svg xmlns="http://www.w3.org/2000/svg" viewBox="0 0 221.12 84.97"><defs><style>.cls-1{fill:#009245;}</style></defs><g id="Layer_2" data-name="Layer 2"><g id="Layer_1-2" data-name="Layer 1"><path class="cls-1" d="M36.91,99.35A35.3,35.3,0,0,1,21.67,96.2a26.48,26.48,0,0,1-10.6-8.68A22.2,22.2,0,0,1,7,74.84H24a10.3,10.3,0,0,0,4,7.79,13.9,13.9,0,0,0,8.92,3,14.21,14.21,0,0,0,7.29-1.84,12.92,12.92,0,0,0,5-5.13,16.86,16.86,0,0,0,0-15.24,13.26,13.26,0,0,0-5.07-5.17,14.87,14.87,0,0,0-7.39-1.9,17.54,17.54,0,0,0-7,1.49,12.87,12.87,0,0,0-5.31,4.08L8.76,59.13l3.92-43.62H63.25V29.8H27.1L25,50.52h.48A16.13,16.13,0,0,1,32,45.43a23.44,23.44,0,0,1,9.85-2A25.07,25.07,0,0,1,64.46,56.56a28.23,28.23,0,0,1,3.35,14.08A27.92,27.92,0,0,1,64,85.48,27.33,27.33,0,0,1,53.09,95.65,34,34,0,0,1,36.91,99.35Z" transform="translate(-6.99 -14.38)"/><path class="cls-1" d="M80.49,98.22V15.51h32.63a35.43,35.43,0,0,1,16,3.33,23.57,23.57,0,0,1,10.13,9.41,28.14,28.14,0,0,1,3.5,14.28,27,27,0,0,1-3.56,14.15,23,23,0,0,1-10.28,9.07,38.08,38.08,0,0,1-16.25,3.15H90.83V54.84h19a21.76,21.76,0,0,0,8.32-1.37,10,10,0,0,0,5-4.12,13.12,13.12,0,0,0,1.63-6.82,13.67,13.67,0,0,0-1.63-7,10.4,10.4,0,0,0-5-4.3,20.79,20.79,0,0,0-8.38-1.48H98V98.22Zm44.67-37.64,20.55,37.64h-19.3L106.3,60.58Z" transform="translate(-6.99 -14.38)"/><path class="cls-1" d="M228.1,44.46H210.41a17.37,17.37,0,0,0-2-6.11,15.6,15.6,0,0,0-3.83-4.59,17.18,17.18,0,0,0-5.39-2.91,21,21,0,0,0-6.61-1A19.64,19.64,0,0,0,181.42,33a20.51,20.51,0,0,0-7.4,9.2,36.67,36.67,0,0,0-2.62,14.64,36.87,36.87,0,0,0,2.65,14.87,19.14,19.14,0,0,0,18.43,12.15A22,22,0,0,0,199,83a16.78,16.78,0,0,0,5.35-2.72,15.45,15.45,0,0,0,3.9-4.38,17.31,17.31,0,0,0,2.16-5.9L228.1,70a32,32,0,0,1-3.41,11,32.87,32.87,0,0,1-7.31,9.41A34.25,34.25,0,0,1,206.48,97a40,40,0,0,1-14.28,2.4,38.89,38.89,0,0,1-19.77-5,35.37,35.37,0,0,1-13.73-14.5q-5-9.48-5-23t5.09-23a35.69,35.69,0,0,1,13.81-14.48,38.9,38.9,0,0,1,19.63-5,42.54,42.54,0,0,1,13.35,2,34,34,0,0,1,10.92,5.87,30.9,30.9,0,0,1,7.78,9.43A35.36,35.36,0,0,1,228.1,44.46Z" transform="translate(-6.99 -14.38)"/></g></g></svg>