<svg xmlns="http://www.w3.org/2000/svg" width="131.78" height="53.95" viewBox="0 0 131.78 53.95"><defs><style>.cls-1{fill:#009245;}</style></defs><g id="Layer_2" data-name="Layer 2"><g id="Layer_1-2" data-name="Layer 1"><path class="cls-1" d="M24.34,62.9a23.49,23.49,0,0,1-7.78-1.36,17.47,17.47,0,0,1-6.7-4.32,20.87,20.87,0,0,1-4.68-7.93A37.13,37.13,0,0,1,3.43,37.18,43.54,43.54,0,0,1,5,25.29,26.2,26.2,0,0,1,9.24,16.4,18.85,18.85,0,0,1,16,10.85,19.8,19.8,0,0,1,24.72,9,20.17,20.17,0,0,1,34,11a17.38,17.38,0,0,1,6.46,5.55,17.13,17.13,0,0,1,3,7.9H32.47A7.42,7.42,0,0,0,29.79,20a8.07,8.07,0,0,0-5.07-1.58A8.51,8.51,0,0,0,17,22.9q-2.64,4.46-2.69,12.23h.36a12.18,12.18,0,0,1,3.18-4,14.86,14.86,0,0,1,4.57-2.53,16.9,16.9,0,0,1,5.44-.88,15.54,15.54,0,0,1,14,8.18,17.77,17.77,0,0,1,2.1,8.72,18.16,18.16,0,0,1-2.47,9.46,17.27,17.27,0,0,1-6.88,6.48A21.4,21.4,0,0,1,24.34,62.9Zm-.05-8.69A8.63,8.63,0,0,0,32,49.65,9.65,9.65,0,0,0,33.19,45a9.54,9.54,0,0,0-1.14-4.68A8.78,8.78,0,0,0,28.92,37a8.5,8.5,0,0,0-4.55-1.23,8.62,8.62,0,0,0-3.54.72,8.73,8.73,0,0,0-2.84,2,9.59,9.59,0,0,0-1.91,3A9.22,9.22,0,0,0,15.39,45a9.32,9.32,0,0,0,1.17,4.63A9,9,0,0,0,19.73,53,8.36,8.36,0,0,0,24.29,54.21Z" transform="translate(-3.43 -8.95)"/><path class="cls-1" d="M52.08,62.18V9.82H86.75V19H63.15V31.42h21.3v9.13H63.15V62.18Z" transform="translate(-3.43 -8.95)"/><path class="cls-1" d="M92.2,19V9.82h43V19h-16V62.18H108.23V19Z" transform="translate(-3.43 -8.95)"/></g></g></svg>