<svg xmlns="http://www.w3.org/2000/svg" viewBox="0 0 204.15 85.26"><defs><style>.cls-1{fill:#009245;}</style></defs><g id="Layer_2" data-name="Layer 2"><g id="Layer_1-2" data-name="Layer 1"><path class="cls-1" d="M38.45,99.35a37.25,37.25,0,0,1-12.3-2.14,27.88,27.88,0,0,1-10.58-6.83A33,33,0,0,1,8.18,77.86Q5.45,70.08,5.41,58.72a69.81,69.81,0,0,1,2.4-18.78,41.41,41.41,0,0,1,6.79-14,29.66,29.66,0,0,1,10.6-8.77,31.32,31.32,0,0,1,13.85-3,31.67,31.67,0,0,1,14.62,3.24A26.89,26.89,0,0,1,68.54,38.61H51.29a11.71,11.71,0,0,0-4.24-7,12.76,12.76,0,0,0-8-2.48A13.41,13.41,0,0,0,26.8,36.17q-4.18,7-4.26,19.32h.56a19.43,19.43,0,0,1,5-6.28,23,23,0,0,1,7.23-4,26.16,26.16,0,0,1,8.58-1.39A24.48,24.48,0,0,1,66.07,56.74a28.08,28.08,0,0,1,3.31,13.77,28.73,28.73,0,0,1-3.89,14.95A27.15,27.15,0,0,1,54.62,95.69,33.55,33.55,0,0,1,38.45,99.35Zm-.08-13.73A13.62,13.62,0,0,0,50.6,78.43a16.07,16.07,0,0,0,0-14.82,13.74,13.74,0,0,0-4.94-5.21,13.47,13.47,0,0,0-7.19-1.94,13.62,13.62,0,0,0-10.08,4.28,15,15,0,0,0-3,4.67,15.29,15.29,0,0,0,.75,12.94,14.3,14.3,0,0,0,5,5.29A13.3,13.3,0,0,0,38.37,85.62Z" transform="translate(-5.41 -14.13)"/><path class="cls-1" d="M82.27,98.22V15.51H99.75V83.8h35.46V98.22Z" transform="translate(-5.41 -14.13)"/><path class="cls-1" d="M191.67,39.3a10.23,10.23,0,0,0-4.16-7.6q-3.67-2.7-10-2.7a19.19,19.19,0,0,0-7.23,1.19,10.15,10.15,0,0,0-4.51,3.29,7.85,7.85,0,0,0-1.55,4.77,6.68,6.68,0,0,0,.95,3.87A9.12,9.12,0,0,0,168.05,45a20.53,20.53,0,0,0,4.2,2.06,39.85,39.85,0,0,0,5.08,1.47l7.44,1.78a53,53,0,0,1,9.93,3.23,30.16,30.16,0,0,1,7.84,5,21,21,0,0,1,5.15,7,22.09,22.09,0,0,1,1.87,9.16,22.83,22.83,0,0,1-3.85,13.15,24.61,24.61,0,0,1-11,8.6,44,44,0,0,1-17.26,3A45.28,45.28,0,0,1,160,96.32a25.36,25.36,0,0,1-11.55-9.11q-4.14-6-4.34-15h16.92a12.58,12.58,0,0,0,2.4,6.93,12.94,12.94,0,0,0,5.7,4.16,22.1,22.1,0,0,0,8.09,1.39A21.16,21.16,0,0,0,185,83.44a11.81,11.81,0,0,0,5.11-3.6,8.29,8.29,0,0,0,1.82-5.29,6.9,6.9,0,0,0-1.64-4.68,12.72,12.72,0,0,0-4.77-3.23,48.91,48.91,0,0,0-7.65-2.43l-9-2.26q-10.46-2.54-16.51-8t-6-14.58a21.56,21.56,0,0,1,4-13.13,26.77,26.77,0,0,1,11.16-8.76,39.52,39.52,0,0,1,16.16-3.15,38.33,38.33,0,0,1,16.09,3.15,25.41,25.41,0,0,1,10.72,8.76,23.17,23.17,0,0,1,4,13Z" transform="translate(-5.41 -14.13)"/></g></g></svg>