<svg xmlns="http://www.w3.org/2000/svg" viewBox="0 0 259.97 85.22"><defs><style>.cls-1{fill:#009245;}</style></defs><g id="Layer_2" data-name="Layer 2"><g id="Layer_1-2" data-name="Layer 1"><path class="cls-1" d="M38.45,99.35a37.25,37.25,0,0,1-12.3-2.14,27.88,27.88,0,0,1-10.58-6.83A33,33,0,0,1,8.18,77.86Q5.45,70.08,5.41,58.72a69.81,69.81,0,0,1,2.4-18.78,41.41,41.41,0,0,1,6.79-14,29.66,29.66,0,0,1,10.6-8.77,31.32,31.32,0,0,1,13.85-3,31.67,31.67,0,0,1,14.62,3.24A26.89,26.89,0,0,1,68.54,38.61H51.29a11.71,11.71,0,0,0-4.24-7,12.76,12.76,0,0,0-8-2.48A13.41,13.41,0,0,0,26.8,36.17q-4.18,7-4.26,19.32h.56a19.43,19.43,0,0,1,5-6.28,23,23,0,0,1,7.23-4,26.16,26.16,0,0,1,8.58-1.39A24.48,24.48,0,0,1,66.07,56.74a28.08,28.08,0,0,1,3.31,13.77,28.73,28.73,0,0,1-3.89,14.95A27.15,27.15,0,0,1,54.62,95.69,33.55,33.55,0,0,1,38.45,99.35Zm-.08-13.73A13.62,13.62,0,0,0,50.6,78.43a16.07,16.07,0,0,0,0-14.82,13.74,13.74,0,0,0-4.94-5.21,13.47,13.47,0,0,0-7.19-1.94,13.62,13.62,0,0,0-10.08,4.28,15,15,0,0,0-3,4.67,15.29,15.29,0,0,0,.75,12.94,14.3,14.3,0,0,0,5,5.29A13.3,13.3,0,0,0,38.37,85.62Z" transform="translate(-5.41 -14.13)"/><path class="cls-1" d="M82.27,98.22V15.51H114.9a35.39,35.39,0,0,1,16,3.33,23.54,23.54,0,0,1,10.14,9.41,28.14,28.14,0,0,1,3.49,14.28A27,27,0,0,1,141,56.68a23,23,0,0,1-10.28,9.07,38.08,38.08,0,0,1-16.25,3.15H92.61V54.84h19A21.76,21.76,0,0,0,120,53.47a10,10,0,0,0,4.94-4.12,13,13,0,0,0,1.64-6.82,13.57,13.57,0,0,0-1.64-7,10.37,10.37,0,0,0-5-4.3,20.82,20.82,0,0,0-8.38-1.48H99.75V98.22Zm44.66-37.64,20.56,37.64h-19.3L108.07,60.58Z" transform="translate(-5.41 -14.13)"/><path class="cls-1" d="M175.52,98.22,151.85,15.51H171L184.65,73h.68l15.11-57.47h16.35L231.86,73.1h.73l13.69-57.59h19.1L241.71,98.22h-17L208.92,44.14h-.65L192.56,98.22Z" transform="translate(-5.41 -14.13)"/></g></g></svg>