<svg xmlns="http://www.w3.org/2000/svg" viewBox="0 0 210.45 82.71"><defs><style>.cls-1{fill:#009245;}</style></defs><g id="Layer_2" data-name="Layer 2"><g id="Layer_1-2" data-name="Layer 1"><path class="cls-1" d="M10,98.22,44.26,30.37V29.8H4.32V15.51h58V30L28,98.22Z" transform="translate(-4.32 -15.51)"/><path class="cls-1" d="M74.83,98.22V15.51H108q9.14,0,15.23,2.7a20.39,20.39,0,0,1,9.17,7.5,20,20,0,0,1,3.06,11,17.88,17.88,0,0,1-1.93,8.5,16.72,16.72,0,0,1-5.31,6,21.93,21.93,0,0,1-7.7,3.29v.81A18.63,18.63,0,0,1,129.34,58a19,19,0,0,1,6.72,6.89,20.54,20.54,0,0,1,2.59,10.52,21.47,21.47,0,0,1-3.26,11.73,22,22,0,0,1-9.59,8.14q-6.33,3-15.63,3Zm17.49-48.1h13a15.49,15.49,0,0,0,6.4-1.27,10.68,10.68,0,0,0,4.44-3.62,9.55,9.55,0,0,0,1.64-5.61,9.11,9.11,0,0,0-3.17-7.23c-2.12-1.83-5.11-2.75-9-2.75H92.32Zm0,33.8h14.26q7.31,0,10.66-2.8a9.28,9.28,0,0,0,3.35-7.5,11.14,11.14,0,0,0-1.65-6.05,11.3,11.3,0,0,0-4.71-4.12A16.26,16.26,0,0,0,107,62H92.32Z" transform="translate(-4.32 -15.51)"/><path class="cls-1" d="M146.84,29.93V15.51h67.93V29.93H189.45V98.22H172.16V29.93Z" transform="translate(-4.32 -15.51)"/></g></g></svg>