<svg xmlns="http://www.w3.org/2000/svg" viewBox="0 0 209.76 85.01"><defs><style>.cls-1{fill:#009245;}</style></defs><g id="Layer_2" data-name="Layer 2"><g id="Layer_1-2" data-name="Layer 1"><path class="cls-1" d="M10,98.22,44.26,30.37V29.8H4.32V15.51h58V30L28,98.22Z" transform="translate(-4.32 -14.38)"/><path class="cls-1" d="M119.7,39.3a10.23,10.23,0,0,0-4.16-7.6q-3.67-2.7-10-2.7a19.19,19.19,0,0,0-7.23,1.19,10.06,10.06,0,0,0-4.5,3.29,7.79,7.79,0,0,0-1.56,4.77,6.68,6.68,0,0,0,1,3.87A9.22,9.22,0,0,0,96.08,45a20.53,20.53,0,0,0,4.2,2.06,40,40,0,0,0,5.09,1.47l7.43,1.78a52.79,52.79,0,0,1,9.93,3.23,30.16,30.16,0,0,1,7.84,5,20.84,20.84,0,0,1,5.15,7,22.25,22.25,0,0,1,1.88,9.16,22.91,22.91,0,0,1-3.86,13.15,24.61,24.61,0,0,1-11,8.6,44,44,0,0,1-17.26,3,45.28,45.28,0,0,1-17.43-3.07,25.36,25.36,0,0,1-11.55-9.11q-4.14-6-4.34-15H89.09a12.58,12.58,0,0,0,2.4,6.93,13,13,0,0,0,5.7,4.16,22.12,22.12,0,0,0,8.1,1.39A21.11,21.11,0,0,0,113,83.44a11.81,11.81,0,0,0,5.11-3.6A8.29,8.29,0,0,0,120,74.55a6.9,6.9,0,0,0-1.64-4.68,12.76,12.76,0,0,0-4.76-3.23,49.41,49.41,0,0,0-7.66-2.43l-9-2.26q-10.47-2.54-16.52-8t-6-14.58a21.56,21.56,0,0,1,4-13.13,26.8,26.8,0,0,1,11.17-8.76,39.44,39.44,0,0,1,16.15-3.15,38.33,38.33,0,0,1,16.09,3.15,25.5,25.5,0,0,1,10.73,8.76,23.24,23.24,0,0,1,4,13Z" transform="translate(-4.32 -14.38)"/><path class="cls-1" d="M146.16,29.93V15.51h67.93V29.93H188.76V98.22H171.48V29.93Z" transform="translate(-4.32 -14.38)"/></g></g></svg>