<svg xmlns="http://www.w3.org/2000/svg" viewBox="0 0 223.5 84.97"><defs><style>.cls-1{fill:#009245;}</style></defs><g id="Layer_2" data-name="Layer 2"><g id="Layer_1-2" data-name="Layer 1"><path class="cls-1" d="M37.56,99.35A42.48,42.48,0,0,1,21,96.3,27.58,27.58,0,0,1,9.61,88,19,19,0,0,1,5.49,76a19.6,19.6,0,0,1,2.36-9.51,21.1,21.1,0,0,1,6.45-7.23,21.41,21.41,0,0,1,9.12-3.7V55a17.92,17.92,0,0,1-10.74-6.45A18.41,18.41,0,0,1,8.56,36.63a18.6,18.6,0,0,1,3.76-11.45,25.23,25.23,0,0,1,10.32-7.92,36.77,36.77,0,0,1,14.92-2.88,36.44,36.44,0,0,1,14.92,2.91A25.25,25.25,0,0,1,62.8,25.22a18.84,18.84,0,0,1,3.8,11.41,18.46,18.46,0,0,1-4.2,11.91A18.06,18.06,0,0,1,51.73,55v.56a21.15,21.15,0,0,1,9,3.7,21.44,21.44,0,0,1,6.46,7.23A19.67,19.67,0,0,1,69.67,76a19.26,19.26,0,0,1-4.16,12A27.58,27.58,0,0,1,54.14,96.3,42.52,42.52,0,0,1,37.56,99.35Zm0-12.84A16.42,16.42,0,0,0,44.83,85a12,12,0,0,0,4.87-4.2,11.06,11.06,0,0,0,1.75-6.2,11.28,11.28,0,0,0-1.82-6.36,12.7,12.7,0,0,0-4.92-4.36,15.52,15.52,0,0,0-7.15-1.6,15.64,15.64,0,0,0-7.15,1.6,12.51,12.51,0,0,0-4.95,4.36,11.5,11.5,0,0,0-1.79,6.36,11.21,11.21,0,0,0,1.73,6.2A11.72,11.72,0,0,0,30.29,85,16.57,16.57,0,0,0,37.56,86.51Zm0-37a13.21,13.21,0,0,0,6.18-1.41A10.63,10.63,0,0,0,48,44.22a10.84,10.84,0,0,0,1.53-5.77A10.47,10.47,0,0,0,48,32.77a10.65,10.65,0,0,0-4.2-3.83,13.24,13.24,0,0,0-6.22-1.4,13.38,13.38,0,0,0-6.22,1.4,10.25,10.25,0,0,0-5.74,9.51,10.84,10.84,0,0,0,1.54,5.77,10.63,10.63,0,0,0,4.24,3.92A13.15,13.15,0,0,0,37.56,49.55Z" transform="translate(-5.49 -14.38)"/><path class="cls-1" d="M82.35,98.22V15.51H115q9.4,0,16,3.57A24.58,24.58,0,0,1,141.13,29a29.56,29.56,0,0,1,3.49,14.56,29.08,29.08,0,0,1-3.55,14.54,24.6,24.6,0,0,1-10.28,9.81q-6.72,3.51-16.25,3.51H93.74v-14h18a17.65,17.65,0,0,0,8.34-1.76A11.61,11.61,0,0,0,125,50.75a15.36,15.36,0,0,0,1.63-7.21A15.19,15.19,0,0,0,125,36.33a11.45,11.45,0,0,0-5-4.81,18.24,18.24,0,0,0-8.4-1.72H99.83V98.22Z" transform="translate(-5.49 -14.38)"/><path class="cls-1" d="M229,44.46H211.3a17.37,17.37,0,0,0-2-6.11,15.63,15.63,0,0,0-3.84-4.59,17.07,17.07,0,0,0-5.39-2.91,20.94,20.94,0,0,0-6.6-1A19.69,19.69,0,0,0,182.3,33a20.56,20.56,0,0,0-7.39,9.2,36.67,36.67,0,0,0-2.62,14.64,37.05,37.05,0,0,0,2.64,14.87,19.14,19.14,0,0,0,18.44,12.15,22,22,0,0,0,6.52-.93,16.78,16.78,0,0,0,5.35-2.72,15.75,15.75,0,0,0,3.9-4.38A17.31,17.31,0,0,0,211.3,70L229,70a32.19,32.19,0,0,1-3.41,11,33,33,0,0,1-7.31,9.41A34.19,34.19,0,0,1,207.36,97a40,40,0,0,1-14.27,2.4,38.89,38.89,0,0,1-19.77-5,35.31,35.31,0,0,1-13.73-14.5q-5-9.48-5-23t5.09-23a35.62,35.62,0,0,1,13.81-14.48,38.87,38.87,0,0,1,19.63-5,42.43,42.43,0,0,1,13.34,2,34,34,0,0,1,10.93,5.87,30.87,30.87,0,0,1,7.77,9.43A35.37,35.37,0,0,1,229,44.46Z" transform="translate(-5.49 -14.38)"/></g></g></svg>