<svg xmlns="http://www.w3.org/2000/svg" width="136.92" height="53.8" viewBox="0 0 136.92 53.8"><defs><style>.cls-1{fill:#009245;}</style></defs><g id="Layer_2" data-name="Layer 2"><g id="Layer_1-2" data-name="Layer 1"><path class="cls-1" d="M23.78,62.9A27,27,0,0,1,13.28,61a17.43,17.43,0,0,1-7.19-5.28,12,12,0,0,1-2.61-7.6,12.46,12.46,0,0,1,1.49-6A13.35,13.35,0,0,1,9.05,37.5a13.55,13.55,0,0,1,5.78-2.34V34.8A11.29,11.29,0,0,1,8,30.72a11.65,11.65,0,0,1-2.61-7.53A11.77,11.77,0,0,1,7.8,15.94a16,16,0,0,1,6.53-5A23.22,23.22,0,0,1,23.78,9.1a23.23,23.23,0,0,1,9.45,1.84,16.14,16.14,0,0,1,6.53,5,11.93,11.93,0,0,1,2.4,7.22,11.66,11.66,0,0,1-2.66,7.54,11.38,11.38,0,0,1-6.75,4.07v.36a13.46,13.46,0,0,1,5.72,2.34,13.69,13.69,0,0,1,4.09,4.57,12.51,12.51,0,0,1,1.55,6,12.19,12.19,0,0,1-2.64,7.6A17.53,17.53,0,0,1,34.27,61,27,27,0,0,1,23.78,62.9Zm0-8.13a10.39,10.39,0,0,0,4.6-1,7.56,7.56,0,0,0,3.08-2.66,7,7,0,0,0,1.11-3.93,7.14,7.14,0,0,0-1.15-4,7.9,7.9,0,0,0-3.12-2.76,9.68,9.68,0,0,0-4.52-1,9.81,9.81,0,0,0-4.53,1,7.86,7.86,0,0,0-3.13,2.76,7.22,7.22,0,0,0-1.14,4,7.08,7.08,0,0,0,1.1,3.93,7.49,7.49,0,0,0,3.1,2.66A10.48,10.48,0,0,0,23.78,54.77Zm0-23.4a8.41,8.41,0,0,0,3.91-.89A6.85,6.85,0,0,0,30.38,28a7,7,0,0,0,1-3.66,6.67,6.67,0,0,0-1-3.59,6.86,6.86,0,0,0-2.66-2.43,8.38,8.38,0,0,0-3.94-.88,8.47,8.47,0,0,0-3.94.88,6.5,6.5,0,0,0-3.63,6,6.86,6.86,0,0,0,1,3.66,6.79,6.79,0,0,0,2.69,2.48A8.38,8.38,0,0,0,23.78,31.37Z" transform="translate(-3.48 -9.1)"/><path class="cls-1" d="M52.13,62.18V9.82H72.79a22.34,22.34,0,0,1,10.14,2.11,14.93,14.93,0,0,1,6.42,5.95,17.89,17.89,0,0,1,2.21,9,17.05,17.05,0,0,1-2.25,9,14.64,14.64,0,0,1-6.51,5.75,24.12,24.12,0,0,1-10.29,2H58.68v-8.9h12A13.86,13.86,0,0,0,76,33.85a6.31,6.31,0,0,0,3.13-2.61,8.3,8.3,0,0,0,1-4.32,8.62,8.62,0,0,0-1-4.39A6.55,6.55,0,0,0,76,19.8a13.23,13.23,0,0,0-5.31-.93H63.2V62.18ZM80.41,38.35l13,23.83H81.2L68.47,38.35Z" transform="translate(-3.48 -9.1)"/><path class="cls-1" d="M97.39,19V9.82h43V19h-16V62.18H113.42V19Z" transform="translate(-3.48 -9.1)"/></g></g></svg>