<svg xmlns="http://www.w3.org/2000/svg" viewBox="0 0 201.73 85.01"><defs><style>.cls-1{fill:#009245;}</style></defs><g id="Layer_2" data-name="Layer 2"><g id="Layer_1-2" data-name="Layer 1"><path class="cls-1" d="M37.56,99.35A42.48,42.48,0,0,1,21,96.3,27.58,27.58,0,0,1,9.61,88,19,19,0,0,1,5.49,76a19.6,19.6,0,0,1,2.36-9.51,21.1,21.1,0,0,1,6.45-7.23,21.41,21.41,0,0,1,9.12-3.7V55a17.92,17.92,0,0,1-10.74-6.45A18.41,18.41,0,0,1,8.56,36.63a18.6,18.6,0,0,1,3.76-11.45,25.23,25.23,0,0,1,10.32-7.92,36.77,36.77,0,0,1,14.92-2.88,36.44,36.44,0,0,1,14.92,2.91A25.25,25.25,0,0,1,62.8,25.22a18.84,18.84,0,0,1,3.8,11.41,18.46,18.46,0,0,1-4.2,11.91A18.06,18.06,0,0,1,51.73,55v.56a21.15,21.15,0,0,1,9,3.7,21.44,21.44,0,0,1,6.46,7.23A19.67,19.67,0,0,1,69.67,76a19.26,19.26,0,0,1-4.16,12A27.58,27.58,0,0,1,54.14,96.3,42.52,42.52,0,0,1,37.56,99.35Zm0-12.84A16.42,16.42,0,0,0,44.83,85a12,12,0,0,0,4.87-4.2,11.06,11.06,0,0,0,1.75-6.2,11.28,11.28,0,0,0-1.82-6.36,12.7,12.7,0,0,0-4.92-4.36,15.52,15.52,0,0,0-7.15-1.6,15.64,15.64,0,0,0-7.15,1.6,12.51,12.51,0,0,0-4.95,4.36,11.5,11.5,0,0,0-1.79,6.36,11.21,11.21,0,0,0,1.73,6.2A11.72,11.72,0,0,0,30.29,85,16.57,16.57,0,0,0,37.56,86.51Zm0-37a13.21,13.21,0,0,0,6.18-1.41A10.63,10.63,0,0,0,48,44.22a10.84,10.84,0,0,0,1.53-5.77A10.47,10.47,0,0,0,48,32.77a10.65,10.65,0,0,0-4.2-3.83,13.24,13.24,0,0,0-6.22-1.4,13.38,13.38,0,0,0-6.22,1.4,10.25,10.25,0,0,0-5.74,9.51,10.84,10.84,0,0,0,1.54,5.77,10.63,10.63,0,0,0,4.24,3.92A13.15,13.15,0,0,0,37.56,49.55Z" transform="translate(-5.49 -14.38)"/><path class="cls-1" d="M127.22,39.3a10.26,10.26,0,0,0-4.16-7.6q-3.68-2.7-10-2.7a19.26,19.26,0,0,0-7.23,1.19,10.12,10.12,0,0,0-4.5,3.29,7.79,7.79,0,0,0-1.56,4.77,6.76,6.76,0,0,0,.95,3.87A9.22,9.22,0,0,0,103.59,45a20.53,20.53,0,0,0,4.2,2.06,40.49,40.49,0,0,0,5.09,1.47l7.43,1.78a53.13,53.13,0,0,1,9.94,3.23,30.27,30.27,0,0,1,7.83,5,20.84,20.84,0,0,1,5.15,7,22.25,22.25,0,0,1,1.88,9.16,22.91,22.91,0,0,1-3.86,13.15,24.58,24.58,0,0,1-11,8.6,44.09,44.09,0,0,1-17.27,3,45.28,45.28,0,0,1-17.43-3.07A25.36,25.36,0,0,1,84,87.21q-4.14-6-4.34-15H96.6A12.51,12.51,0,0,0,99,79.18a12.91,12.91,0,0,0,5.69,4.16,22.12,22.12,0,0,0,8.1,1.39,21.11,21.11,0,0,0,7.73-1.29,11.75,11.75,0,0,0,5.11-3.6,8.29,8.29,0,0,0,1.82-5.29,6.9,6.9,0,0,0-1.64-4.68,12.76,12.76,0,0,0-4.76-3.23,49.41,49.41,0,0,0-7.66-2.43l-9-2.26q-10.47-2.54-16.52-8t-6-14.58a21.62,21.62,0,0,1,4-13.13,26.86,26.86,0,0,1,11.17-8.76,39.47,39.47,0,0,1,16.15-3.15,38.38,38.38,0,0,1,16.1,3.15A25.47,25.47,0,0,1,140,26.29a23.17,23.17,0,0,1,4,13Z" transform="translate(-5.49 -14.38)"/><path class="cls-1" d="M189.93,15.51h17.29V73.18a26.29,26.29,0,0,1-3.57,13.89,24,24,0,0,1-9.92,9.09A32.35,32.35,0,0,1,179,99.35a33.5,33.5,0,0,1-13.55-2.65,21.48,21.48,0,0,1-9.63-8.07Q152.26,83.2,152.29,75H169.7a12.17,12.17,0,0,0,1.35,5.59,8.72,8.72,0,0,0,3.52,3.55,10.74,10.74,0,0,0,5.31,1.24,10.15,10.15,0,0,0,5.47-1.4,8.75,8.75,0,0,0,3.41-4.1,16.76,16.76,0,0,0,1.17-6.66Z" transform="translate(-5.49 -14.38)"/></g></g></svg>