<svg xmlns="http://www.w3.org/2000/svg" viewBox="0 0 251.73 85.22"><defs><style>.cls-1{fill:#009245;}</style></defs><g id="Layer_2" data-name="Layer 2"><g id="Layer_1-2" data-name="Layer 1"><path class="cls-1" d="M36.63,14.13a36.32,36.32,0,0,1,12.3,2.12A28.17,28.17,0,0,1,59.51,23.1,33.09,33.09,0,0,1,66.9,35.6q2.73,7.77,2.77,19.12a69.28,69.28,0,0,1-2.41,18.8,41.89,41.89,0,0,1-6.76,14,29.32,29.32,0,0,1-10.6,8.78,31.34,31.34,0,0,1-13.88,3A32,32,0,0,1,21.4,96.14,26.9,26.9,0,0,1,6.54,74.88H23.79a11.64,11.64,0,0,0,4.24,7,12.7,12.7,0,0,0,8,2.49A13.46,13.46,0,0,0,48.3,77.32q4.2-7,4.24-19.33H52a19.46,19.46,0,0,1-5,6.24,23,23,0,0,1-7.21,4,25.85,25.85,0,0,1-8.62,1.42,25,25,0,0,1-13.07-3.44A24.5,24.5,0,0,1,9,56.76,27.93,27.93,0,0,1,5.73,43,28.47,28.47,0,0,1,9.57,28.05,27.26,27.26,0,0,1,20.42,17.81,33.63,33.63,0,0,1,36.63,14.13Zm.12,13.74A13.65,13.65,0,0,0,29.5,29.8a14.14,14.14,0,0,0-5,5.26,14.73,14.73,0,0,0-1.79,7.43,14.84,14.84,0,0,0,1.75,7.39,13.71,13.71,0,0,0,4.95,5.19A13.54,13.54,0,0,0,36.59,57a13.59,13.59,0,0,0,5.59-1.13,13.82,13.82,0,0,0,4.49-3.13,15,15,0,0,0,3-4.64,15.49,15.49,0,0,0,1.13-5.67A15.29,15.29,0,0,0,49,35.1a14,14,0,0,0-5-5.28A13.51,13.51,0,0,0,36.75,27.87Z" transform="translate(-5.73 -14.13)"/><path class="cls-1" d="M155.25,44.46H137.56a17.78,17.78,0,0,0-2-6.11,15.79,15.79,0,0,0-3.84-4.59,17.18,17.18,0,0,0-5.39-2.91,21,21,0,0,0-6.6-1A19.65,19.65,0,0,0,108.56,33a20.49,20.49,0,0,0-7.39,9.2,36.67,36.67,0,0,0-2.63,14.64,36.87,36.87,0,0,0,2.65,14.87,19.14,19.14,0,0,0,18.43,12.15,22,22,0,0,0,6.53-.93,16.89,16.89,0,0,0,5.35-2.72,15.75,15.75,0,0,0,3.9-4.38,17.74,17.74,0,0,0,2.16-5.9l17.69.08a32,32,0,0,1-3.42,11,32.7,32.7,0,0,1-7.31,9.41A34.14,34.14,0,0,1,133.62,97a40,40,0,0,1-14.28,2.4,38.89,38.89,0,0,1-19.77-5,35.37,35.37,0,0,1-13.73-14.5q-5-9.48-5-23t5.09-23A35.69,35.69,0,0,1,99.71,19.36a38.9,38.9,0,0,1,19.63-5,42.54,42.54,0,0,1,13.35,2,33.9,33.9,0,0,1,10.92,5.87,30.9,30.9,0,0,1,7.78,9.43A35.57,35.57,0,0,1,155.25,44.46Z" transform="translate(-5.73 -14.13)"/><path class="cls-1" d="M167.8,15.51h21.57l22.78,55.57h1L235.9,15.51h21.56V98.22h-17V44.38h-.69l-21.4,53.43H206.86L185.45,44.18h-.68v54h-17Z" transform="translate(-5.73 -14.13)"/></g></g></svg>