<svg id="Layer_1" enable-background="new 0 0 64 64" height="512" viewBox="0 0 64 64" width="512" xmlns="http://www.w3.org/2000/svg"><g><path d="m23 59v4h-18v-4h2 6 4 4z" fill="#999"/><path d="m59 59v4h-18v-4h2 4 4 6z" fill="#999"/><path d="m51 47v4h-4v-8c2.21 0 4 1.79 4 4z" fill="#e29627"/><path d="m47 51h4v8h-4z" fill="#ed7132"/><path d="m43 51h4v8h-4z" fill="#e29627"/><path d="m47 43v8h-4v-4c0-1.1.45-2.1 1.17-2.83.73-.72 1.73-1.17 2.83-1.17z" fill="#ed7132"/><path d="m32 0 3.33 6h-6.66z" fill="#465b51"/><path d="m24.22 14 4.45-8h6.66l2.78 5 3.89 7h-2-16-2z" fill="#708c7f"/><path d="m41 59v4h-18v-4h3 6 6z" fill="#b3b3b3"/><path d="m56 25v12l-2.51 3.35-10.29-4.85 2.8-3.5v-7z" fill="#565656"/><path d="m56.44 21 1.56 4h-2-10-2l4.28-11 2.72-7 3.81 9.8z" fill="#708c7f"/><path d="m16.5 16 3.5 9h-2-10-2l1.94-5 5.06-13z" fill="#708c7f"/><path d="m20.8 35.5-10.29 4.85-2.51-3.35v-5-7h10v7z" fill="#565656"/><path d="m35 27v5h-6v-5c0-1.66 1.34-3 3-3 .83 0 1.58.34 2.12.88s.88 1.29.88 2.12z" fill="#f7b23a"/><path d="m38 58v1h-6v-20c3.31 0 6 2.69 6 6z" fill="#7f7269"/><path d="m32 39v20h-6v-1-13c0-1.66.67-3.16 1.76-4.24 1.08-1.09 2.58-1.76 4.24-1.76z" fill="#998675"/><path d="m20.8 35.5 3.2-1.5v-16h16v16l3.2 1.5 10.29 4.85 3.51 1.65v17h-6v-8-4c0-2.21-1.79-4-4-4-1.1 0-2.1.45-2.83 1.17-.72.73-1.17 1.73-1.17 2.83v4 8h-2-3v-1-13c0-3.31-2.69-6-6-6-1.66 0-3.16.67-4.24 1.76-1.09 1.08-1.76 2.58-1.76 4.24v13 1h-3-2v-8-4c0-1.1-.45-2.1-1.17-2.83-.73-.72-1.73-1.17-2.83-1.17-2.21 0-4 1.79-4 4v4 8h-6v-17l3.51-1.65zm14.2-3.5v-5c0-.83-.34-1.58-.88-2.12s-1.29-.88-2.12-.88c-1.66 0-3 1.34-3 3v5z" fill="#666"/><path d="m13 51h4v8h-4z" fill="#ed7132"/><path d="m17 51h4v8h-4z" fill="#e29627"/><path d="m21 47v4h-4v-8c1.1 0 2.1.45 2.83 1.17.72.73 1.17 1.73 1.17 2.83z" fill="#ed7132"/><path d="m17 43v8h-4v-4c0-2.21 1.79-4 4-4z" fill="#e29627"/><path d="m53.49 40.35 2.51-3.35-10-5-2.8 3.5z" fill="#4d4d4d"/><path d="m10.51 40.35-2.51-3.35 10-5 2.8 3.5z" fill="#4d4d4d"/><g fill="#565656"><path d="m24 18h16v3h-16z"/><circle cx="54" cy="56" r="1"/><circle cx="54" cy="52" r="1"/><circle cx="38" cy="34" r="1"/><circle cx="38" cy="30" r="1"/></g><circle cx="10" cy="49" fill="#808080" r="1"/><circle cx="10" cy="45" fill="#808080" r="1"/><path d="m13 33c-.552 0-1-.448-1-1v-3c0-.552.448-1 1-1s1 .448 1 1v3c0 .552-.448 1-1 1z" fill="#e29627"/><path d="m51 33c-.552 0-1-.448-1-1v-3c0-.552.448-1 1-1s1 .448 1 1v3c0 .552-.448 1-1 1z" fill="#e29627"/><path d="m11 21c.552 0 1-.448 1-1s-.448-1-1-1h-2.671l-.389 1-.388 1z" fill="#85a896"/><path d="m16.5 16-.389-1h-2.111c-.552 0-1 .448-1 1s.448 1 1 1h2.889z" fill="#85a896"/><path d="m30 15c.552 0 1-.448 1-1s-.448-1-1-1h-5.224l-.556 1-.555 1z" fill="#85a896"/><path d="m38.11 11-.556-1h-3.554c-.552 0-1 .448-1 1s.448 1 1 1h4.666z" fill="#85a896"/><path d="m59.316 12.051c-.527-.176-1.091.109-1.265.632l-.827 2.48-2.78.697.366.94.365.939 3.069-.77c.332-.083.598-.33.706-.653l1-3c.174-.524-.11-1.09-.634-1.265z" fill="#465b51"/><path d="m50 15c.552 0 1-.448 1-1s-.448-1-1-1h-1.331l-.389 1-.389 1z" fill="#85a896"/><path d="m56.44 21-.388-1h-4.052c-.552 0-1 .448-1 1s.448 1 1 1h4.83z" fill="#85a896"/><path d="m8 32v-1.031l-3.225-.806-.826-2.479c-.174-.523-.739-.809-1.265-.632-.524.175-.807.741-.632 1.265l1 3c.108.324.375.571.706.654l4.242 1.06z" fill="#808080"/></g></svg>