<svg version="1.2" baseProfile="tiny-ps" xmlns="http://www.w3.org/2000/svg" viewBox="0 0 512 512" width="512" height="512">
	<title>3_ameria (2)-svg</title>
	<style>
		tspan { white-space:pre }
		.s0 { fill: #2b4a4a } 
		.s1 { fill: #549e94 } 
		.s2 { fill: #b4d4d0 } 
		.s3 { fill: #0d322f } 
		.s4 { fill: #ffffff } 
		.s5 { fill: #cadded } 
		.s6 { fill: #60a9a2 } 
		.s7 { fill: #fac600 } 
		.s8 { fill: #e2772c } 
		.s9 { fill: #fea613 } 
		.s10 { fill: #fff364 } 
		.s11 { fill: #f9c502 } 
		.s12 { fill: #3a8981 } 
	</style>
	<g id="Layer_6_xA0_Изображение_1_">
		<path id="Layer" class="s0" d="m258.24 512.33c-140.33 0-253.76-113.43-253.76-253.76c0-140.33 113.43-253.76 253.76-253.76c140.33 0 253.76 113.43 253.76 253.76c0 140.33-113.43 253.76-253.76 253.76z" />
	</g>
	<g id="Group_2_1_">
		<g id="Layer_48_copy_2_xA0_Изображение_1_">
			<path id="Layer" fill-rule="evenodd" class="s1" d="m226.24 60.97c6.21-1.3 13.67-1.6 16.51-1.72c0.41 0 4.02 0.18 4.56 0.24c2.37 0.24 2.84 0.35 5.32 0.83c25.91 5.03 50.94 12.84 70.46 31.36c6.33 5.98 13.08 8.93 20.53 11.54c27.16 9.41 48.51 26.86 65.61 49.11c10.53 13.67 18.46 29.35 27.51 44.14c3.25 10.71 7.28 21.24 9.58 32.13c5.92 27.63 2.72 54.96-4.26 82c-2.78 6.51-5.56 13.02-8.46 19.41c-5.09 11.3-22.66 14.02-32.36 5.86c-10.35-8.7-18.58-18.81-22.84-31.36c-4.08-11.95-14.73-17.04-22.36-25.26c-19.64-21.24-38.1-43.84-45.44-72c-3.73-14.26-12.25-18.99-23.01-24.02c-19.58-9.23-40.11-16.09-61.71-15.26c-13.02 0.53-25.91 5.86-38.69 9.58c-1.24 0.35-4.32 9.53-5.62 12.78c-3.61 9.11-4.02 12.72-9.7 20.53c-4.97 6.8-11.77 13.49-19.29 16.86c-18.34 8.16-30.11 22.3-40.47 38.4c-2.54 4.02-5.27 7.93-9.17 13.84v-55.97c-17.69 5.15-37.27 10.89-57.15 16.68c2.31-4.08 4.5-7.87 6.69-11.66c9.58-15.8 18.16-32.36 29.05-47.21c20.41-27.81 48.34-37.21 82.06-29.4c1.24 0.3 3.49-1.06 4.44-2.31c12.01-15.62 25.74-29.29 43.43-38.34c4.97-2.54 10.41-4.08 15.5-6.45c0.89-0.41 1.77-3.25 1.3-3.73c-4.56-4.97-8.99-10.24-14.26-14.38c-4.32-3.43-12.54-6.51-10.18-12.01c2.25-4.91 13.08-12.07 22.42-14.2zm88.75 124.9c1.36 6.92 2.72 13.79 4.08 20.71c9.76 28.93 27.04 52.66 49.76 72.77c7.28 6.45 14.44 13.25 20.59 20.71c5.44 6.69 8.52 15.44 14.38 21.65c10.12 10.65 17.22 10.18 21.83-0.35c11.66-26.8 16.51-54.85 11.42-83.78c-5.09-28.99-17.57-54.79-35.85-77.92c-16.27-20.59-36.09-36.27-60.58-45.97c-6.69-2.66-13.43-5.5-19.41-9.41c-5.44-3.61-9.29-9.7-14.85-13.02c-23.01-13.67-47.98-21.24-74.96-20.59c-3.49 0.06-7.22 3.43-10.12 6.03c-0.77 0.65 3.67 3.9 5.15 5.5c5.68 6.09 11.77 11.48 17.51 17.51c1.95 2.07 5.92 7.45 7.45 9.94c-2.54 0.41-10.83-0.47-13.31-0.12c-0.41 0.06-0.77 0.18-1.18 0.24c-17.81 3.37-32.07 13.67-44.96 25.38c-7.87 7.16-13.31 16.92-20 25.44c-0.47 0.65-2.07 0.65-3.14 0.53c-13.49-1.06-27.27-4.44-40.41-2.84c-17.75 2.19-29.76 14.73-38.69 30.06c-6.45 11.12-13.67 21.77-20.59 32.6c0.47 0.71 0.95 1.42 1.42 2.19c18.1-5.74 36.27-11.48 54.31-17.16c-6.92 10.47-12.07 21.65-10.47 33.43c10.53-7.22 20.59-16.27 32.36-21.65c15.97-7.34 24.02-20.12 29.05-35.2c2.31-6.8 4.85-11 11.48-14.02c15.62-7.16 31.42-14.91 48.87-11.89c17.1 2.96 34.08 7.81 50.47 13.55c10.06 3.61 18.99 10.35 28.4 15.68z" />
			<path id="Layer" class="s2" d="m241.09 58.01c-4.32 0-8.7 0-13.02 0c4.32 0 8.7 0 13.02 0z" />
			<path id="Layer" fill-rule="evenodd" class="s1" d="m210.68 223.55c-2.54 8.87-4.32 15.68-6.39 22.36c-7.87 25.56 2.01 46.33 17.69 65.38c4.02 4.85 9.05 9.23 14.38 12.48c2.25 1.36 7.69 0.3 9.88-1.66c13.13-11.95 14.73-27.57 10.95-43.55c-2.78-11.54-7.99-22.54-12.19-34.14c6.86 4.61 15.8 8.52 21.95 15.03c29.05 30.71 45.85 66.91 45.08 109.99c-0.53 28.87-16.8 47.21-40.94 60.29c-40.82 22.13-92.77 4.26-116.97-21.6c-16.21-17.34-16.74-38.34-15.15-60.41c3.19-44.25 25.44-78.04 56.62-107.38c4.79-4.61 8.87-9.94 15.09-16.8zm90.64 137.79c-1.01-6.8-2.31-13.08-4.2-19.58c-4.02-13.84-8.87-27.45-13.43-41.12c-4.67-7.51-8.82-10.18-14.61-19.52c0 4.97-0.65 2.43-0.53 4.73c0.71 12.37 0.83 24.2-6.98 35.26c-8.34 11.77-22.01 17.69-31.95 11.18c-17.75-11.6-29.46-27.69-35.26-48.28c-2.13-7.51-2.9-15.38-4.38-23.78c-6.45 8.58-13.43 16.51-18.81 25.32c-5.38 8.82-10.06 18.34-13.61 28.04c-6.98 19.29-11.18 39.58-8.22 59.87c3.9 26.68 22.3 42.18 46.92 49.82c13.43 4.14 28.1 8.7 41.47 7.1c13.79-1.66 27.51-9.23 39.88-16.57c16.8-10 27.93-36.56 23.72-52.48z" />
			<path id="Layer" fill-rule="evenodd" class="s3" d="m314.98 185.86c-9.47-5.32-18.34-12.07-28.46-15.62c-16.39-5.74-33.37-10.59-50.47-13.55c-17.45-3.02-33.25 4.79-48.87 11.89c-6.69 3.02-9.23 7.22-11.48 14.02c-5.03 15.03-13.13 27.87-29.05 35.2c-11.71 5.38-21.77 14.44-32.36 21.65c-1.6-11.83 3.55-22.96 10.47-33.43c-18.05 5.74-36.15 11.42-54.31 17.16c-0.47-0.71-0.95-1.42-1.42-2.19c6.86-10.83 14.08-21.48 20.59-32.6c8.93-15.38 20.94-27.87 38.69-30.06c13.13-1.66 26.92 1.72 40.41 2.84c1.06 0.06 2.66 0.06 3.14-0.53c6.69-8.52 12.13-18.28 20-25.44c12.9-11.71 27.16-22.01 44.96-25.38c0.41-0.06 0.77-0.18 1.18-0.24c2.54-0.41 5.03-0.77 7.57-1.18c-0.12-2.72-1.54-5.56-3.55-7.63c-5.74-6.03-12.42-12.9-17.81-17.22c-1.72-1.36-8.87-6.98-8.11-7.63c1.42-5.15 11.66-5.15 15.09-5.27c26.98-0.65 51.95 6.92 74.96 20.59c5.56 3.31 9.41 9.47 14.85 13.02c5.98 3.9 12.72 6.74 19.41 9.41c24.49 9.7 44.31 25.38 60.58 45.97c18.28 23.13 30.77 48.99 35.85 77.92c5.09 28.99 0.3 56.98-11.42 83.78c-4.56 10.53-11.66 11-21.83 0.35c-5.86-6.15-8.87-14.97-14.38-21.65c-6.15-7.51-13.31-14.26-20.59-20.71c-22.72-20.12-40-43.84-49.76-72.77c2.25 0.18 5.5 1.42 6.51 0.35c1.42-1.42 1.6-4.56 1.48-6.86c-0.3-4.38-0.95-8.76-2.07-12.96c-0.59-2.37-2.37-4.44-3.67-6.63c-1.89 1.77-4.02 3.61-6.15 5.38zm121.29 88.21c-4.08-3.96-6.57-6.45-9.11-8.87c-2.19 3.25-5.98 6.45-6.15 9.82c-0.18 3.43 3.25 7.04 5.09 10.53c3.02-3.37 5.98-6.74 10.18-11.48z" />
			<path id="Layer" class="s3" d="m314.98 185.86c2.13-1.77 4.26-3.55 6.33-5.38c1.24 2.19 3.02 4.26 3.67 6.63c1.06 4.2 1.77 8.58 2.07 12.96c0.18 2.31-0.06 5.44-1.48 6.86c-1.01 1.01-4.26-0.18-6.51-0.35c-1.36-6.92-2.72-13.84-4.08-20.71z" />
			<path id="Layer" class="s3" d="m301.49 359.15c3.67 21.71-7.1 44.67-23.9 54.67c-12.37 7.34-26.09 14.91-39.88 16.57c-13.37 1.6-28.1-2.96-41.47-7.1c-24.61-7.63-43.01-23.07-46.92-49.82c-2.96-20.29 1.24-40.59 8.22-59.87c3.55-9.76 8.22-19.23 13.61-28.04c5.38-8.82 13.67-23.07 22.07-31c-1.66 10.65-1.01 21.95 1.12 29.46c5.8 20.59 17.51 36.68 35.26 48.22c9.94 6.51 23.61 0.59 31.95-11.18c7.81-11.06 7.69-22.9 6.98-35.26c-0.12-2.37-0.41-5.8-1.66-11.3c5.8 9.35 11 11.6 16.86 26.09c-4.5-0.18-8.76 0.3-6.98 6.45c2.43 8.34 6.45 16.33 7.99 24.79c2.43 13.31 8.34 26.62 2.25 40.65c-0.59 1.36 1.36 5.44 2.66 5.74c1.89 0.41 5.44-0.95 6.27-2.54c2.01-4.26 4.14-11.95 5.56-16.51z" />
			<path id="Layer" class="s3" d="m301.85 364.12c-1.42 4.56-3.9 7.28-6.03 11.54c-0.77 1.6-4.38 2.96-6.27 2.54c-1.3-0.3-3.31-4.32-2.66-5.74c6.09-13.96 0.18-27.27-2.25-40.65c-1.54-8.46-5.5-16.45-7.99-24.79c-1.77-6.09 2.48-6.63 6.98-6.45c4.5 13.73 9.41 27.27 13.43 41.12c1.95 6.57 5.15 13.49 4.79 22.42z" />
			<path id="Layer" class="s1" d="m432.72 278.16c-2.48 2.78-4.5 5.09-6.57 7.4c-1.83-3.55-5.27-7.1-5.09-10.53c0.18-3.37 3.96-6.51 6.15-9.82c1.6 1.6 3.19 3.14 5.21 5.15c2.19 2.07 2.31 5.5 0.3 7.81z" />
		</g>
	</g>
	<g id="Layer_56_xA0_Изображение_1_">
		<path id="Layer" class="s4" d="m175.59 172.25l-0.53-1.42c-0.77-1.95 0.24-4.2 2.25-4.97l99.28-37.81c1.95-0.77 4.2 0.24 4.97 2.25l0.53 1.42c0.77 1.95-0.24 4.2-2.25 4.97l-99.28 37.81c-2.01 0.77-4.26-0.24-4.97-2.25z" />
		<path id="Layer" class="s4" d="m385.21 252.07l-1.36 0.65c-1.89 0.95-4.2 0.18-5.15-1.72l-48.34-97.33c-0.95-1.89-0.18-4.2 1.72-5.15l1.36-0.65c1.89-0.95 4.2-0.18 5.15 1.72l48.34 97.33c1.01 1.89 0.18 4.2-1.72 5.15z" />
		<path id="Layer" class="s4" d="m177.37 305.02l-1.48 0.47c-2.01 0.65-4.2-0.47-4.85-2.48l-19.58-60.64c-0.65-2.01 0.47-4.2 2.48-4.85l1.48-0.47c2.01-0.65 4.2 0.47 4.85 2.48l19.58 60.64c0.65 2.01-0.47 4.2-2.48 4.85z" />
		<path id="Layer" class="s4" d="m202.16 369.92l-1.48 0.47c-2.01 0.65-4.2-0.47-4.85-2.48l-4.91-15.21c-0.65-2.01 0.47-4.2 2.48-4.85l1.48-0.47c2.01-0.65 4.2 0.47 4.85 2.48l4.91 15.21c0.65 2.01-0.47 4.2-2.48 4.85z" />
		<path id="Layer" class="s4" d="m240.44 369.51l-1.42-0.53c-1.95-0.77-2.96-2.96-2.25-4.97l13.13-34.67c0.77-1.95 2.96-2.96 4.97-2.25l1.42 0.53c1.95 0.77 2.96 2.96 2.25 4.97l-13.13 34.67c-0.77 2.01-2.96 3.02-4.97 2.25z" />
	</g>
	<g id="Слой_7">
		<path id="Layer" class="s5" d="m390.24 401.34c-1.83 1.12-4.85 2.13-6.33 3.67c-3.37 3.49-4.08 4.85-5.68 10.29c-0.3 0.89-0.95 2.84-1.18 3.79c-1.42 5.27-1.12 10.71-1.12 16.09c0 1.24 0.06 2.43 0 3.67c-0.06 1.89-1.24 3.08-3.02 3.02c-1.77 0-2.9-1.18-2.96-3.14c-0.06-4.26 0.18-8.46-0.06-12.72c-0.3-5.98-2.01-11.6-5.03-16.8c-2.96-5.09-7.51-7.45-13.13-8.76c-6.74-1.6-13.49-1.48-20.29-1.54c-0.95 0-1.89-0.18-2.78-0.47c-1.06-0.35-1.54-1.3-1.54-2.43c0-1.12 0.41-2.07 1.48-2.48c0.77-0.3 1.6-0.47 2.43-0.53c2.96-0.06 5.92-0.06 8.87 0c5.62 0.12 10.83-0.53 16.09-2.13c4.91-2.48 7.1-5.09 9.35-8.76c0.3-0.47 0.65-0.89 1.01-1.36c0.41 0.77 0.83 1.6 1.24 2.37c2.96 6.03 7.22 10.95 13.02 14.38c2.96 1.89 5.98 3.79 9.64 3.85z" />
		<path id="Layer" class="s4" d="m354.45 391.4c2.31-0.65 3.85-2.07 5.5-3.43c4.02-3.31 5.74-8.05 7.34-12.84c1.83-5.74 1.54-11.66 1.54-17.57c0-1.24-0.06-2.43 0-3.67c0.06-1.89 1.24-3.08 3.02-3.02c1.77 0 2.9 1.18 2.96 3.14c0.06 4.26-0.18 8.46 0.06 12.72c0.3 5.98 2.01 11.6 5.03 16.8c2.96 5.09 7.51 7.45 13.13 8.76c6.74 1.6 13.49 1.48 20.29 1.54c0.95 0 1.89 0.18 2.78 0.47c1.06 0.35 1.54 1.3 1.54 2.43c0 1.12-0.41 2.07-1.48 2.48c-0.77 0.3-1.6 0.47-2.43 0.53c-2.96 0.06-5.92 0.06-8.87 0c-5.62-0.12-10.95 1.24-16.21 2.78c-4.2 1.24-6.39 4.2-8.64 7.87c-0.71 1.6-0.77 1.83-0.95 2.48c-0.41-0.77-1.42-2.48-1.83-3.31c-2.96-6.03-7.22-10.95-13.02-14.38c-3.08-1.89-6.09-3.73-9.76-3.79z" />
		<path id="Layer" class="s6" d="m382.78 96.64c-0.47-0.71-0.47-1.6 0-2.25c0.47-0.71 1.18-1.42 1.77-2.07c1.66-1.77 3.08-3.08 4.61-4.85c2.31-2.54 4.2-2.54 6.51 0.06c1.48 1.66 3.14 3.08 4.61 4.67c2.37 2.43 2.25 3.79-0.06 6.39c-1.36 1.54-2.84 2.96-4.2 4.5c-2.01 2.19-4.67 2.9-7.28 0.06c-1.54-1.72-2.78-2.78-4.38-4.5c-0.41-0.47-1.24-1.48-1.6-2.01z" />
		<path id="Layer" class="s6" d="m43.24 177.05c-0.47-0.71-0.47-1.6 0-2.25c0.47-0.71 1.18-1.42 1.77-2.07c1.66-1.77 3.08-3.08 4.61-4.85c2.31-2.54 4.2-2.54 6.51 0.06c1.48 1.66 3.14 3.08 4.61 4.67c2.37 2.43 2.25 3.79-0.06 6.39c-1.36 1.54-2.84 2.96-4.2 4.5c-2.01 2.19-4.67 2.9-7.28 0.06c-1.54-1.72-2.78-2.78-4.38-4.5c-0.35-0.47-1.24-1.48-1.6-2.01z" />
		<path id="Layer" class="s4" d="m128.44 51.85c1.01 0 1.95 0 2.96 0c0.53 1.12 1.24 2.19 1.66 3.37c1.6 4.44 6.33 8.76 10.65 10.77c1.72 0.83 1.42 0.89 3.14 1.83c0 0.77 0 1.6 0 2.37c-0.95 0.47-1.83 1.12-2.84 1.42c-5.38 1.6-8.76 5.27-10.95 10.24c-0.59 1.3-1.42 2.48-2.19 3.73c-0.77 0-1.6 0-2.37 0c-0.41-0.77-1.42-2.6-1.66-3.43c-2.13-7.16-6.63-10.18-13.73-11.95c0-1.01 0-1.95 0-2.96c0.95-0.47 2.25-0.83 3.37-1.3c5.15-2.19 8.34-5.8 10.41-10.77c0.53-1.36 0.89-2.01 1.54-3.31z" />
		<path id="Layer" class="s4" d="m390.59 364.42c-0.47-0.71-0.47-1.6 0-2.25c0.47-0.71 1.18-1.42 1.77-2.07c1.66-1.77 3.08-3.08 4.61-4.85c2.31-2.54 4.2-2.54 6.51 0.06c1.48 1.66 3.14 3.08 4.61 4.67c2.37 2.43 2.25 3.79-0.06 6.39c-1.36 1.54-2.84 2.96-4.2 4.5c-2.01 2.19-4.67 2.9-7.28 0.06c-1.54-1.72-2.78-2.78-4.38-4.5c-0.35-0.41-1.18-1.42-1.6-2.01z" />
		<path id="Layer" class="s7" d="m130.27 426.01c-0.47-0.71-0.47-1.6 0-2.25c0.47-0.71 1.18-1.42 1.77-2.07c1.66-1.77 3.08-3.08 4.61-4.85c2.31-2.54 4.2-2.54 6.51 0.06c1.48 1.66 3.14 3.08 4.61 4.67c2.37 2.43 2.25 3.79-0.06 6.39c-1.36 1.54-2.84 2.96-4.2 4.5c-2.01 2.19-4.67 2.9-7.28 0.06c-1.54-1.72-2.78-2.78-4.38-4.5c-0.35-0.41-1.24-1.42-1.6-2.01z" />
		<path id="Layer" class="s7" d="m225.11 77.24c-0.47-0.71-0.47-1.6 0-2.25c0.47-0.71 1.18-1.42 1.77-2.07c1.66-1.77 3.08-3.08 4.61-4.85c2.31-2.54 4.2-2.54 6.51 0.06c1.48 1.66 3.14 3.08 4.61 4.67c2.37 2.43 2.25 3.79-0.06 6.39c-1.36 1.54-2.84 2.96-4.2 4.5c-2.01 2.19-4.67 2.9-7.28 0.06c-1.54-1.72-2.78-2.78-4.38-4.5c-0.35-0.41-1.18-1.42-1.6-2.01z" />
		<path id="Layer" class="s8" d="m145.83 234.49c-18.91 0-34.2-15.29-34.2-34.2c0-18.91 15.29-34.2 34.2-34.2c18.91 0 34.2 15.29 34.2 34.2c0 18.91-15.29 34.2-34.2 34.2z" />
		<g id="Layer">
			<path id="Layer" class="s8" d="m145.95 233.73c-18.71 0-33.84-15.13-33.84-33.84c0-18.71 15.13-33.84 33.84-33.84c18.71 0 33.84 15.13 33.84 33.84c0 18.71-15.13 33.84-33.84 33.84z" />
			<path id="Layer" class="s9" d="m146.19 233.84c-18.71 0-33.84-15.13-33.84-33.84c0-18.71 15.13-33.84 33.84-33.84c18.71 0 33.84 15.13 33.84 33.84c0 18.71-15.13 33.84-33.84 33.84z" />
		</g>
		<path id="Layer" class="s4" d="m145.83 213.31c-7.2 0-13.02-5.82-13.02-13.02c0-7.2 5.82-13.02 13.02-13.02c7.2 0 13.02 5.82 13.02 13.02c0 7.2-5.82 13.02-13.02 13.02z" />
		<path id="Layer" class="s9" d="m220.73 444.35c-20.81 0-37.63-16.82-37.63-37.63c0-20.81 16.82-37.63 37.63-37.63c20.81 0 37.63 16.82 37.63 37.63c0 20.81-16.82 37.63-37.63 37.63z" />
		<g id="Layer">
			<path id="Layer" class="s7" d="m220.97 444.47c-20.81 0-37.63-16.82-37.63-37.63c0-20.81 16.82-37.63 37.63-37.63c20.81 0 37.63 16.82 37.63 37.63c0 20.81-16.82 37.63-37.63 37.63z" />
		</g>
		<path id="Layer" class="s10" d="m221.21 426.54c-10.86 0-19.64-8.86-19.64-19.82c0-10.96 8.78-19.82 19.64-19.82c10.86 0 19.64 8.86 19.64 19.82c0 10.96-8.78 19.82-19.64 19.82z" />
		<path id="Layer" class="s9" d="m316.52 144.15c-13.74 0-24.85-11.11-24.85-24.85c0-13.74 11.11-24.85 24.85-24.85c13.74 0 24.85 11.11 24.85 24.85c0 13.74-11.11 24.85-24.85 24.85z" />
		<g id="Layer">
			<path id="Layer" class="s7" d="m316.7 144.21c-13.74 0-24.85-11.11-24.85-24.85c0-13.74 11.11-24.85 24.85-24.85c13.74 0 24.85 11.11 24.85 24.85c0 13.74-11.11 24.85-24.85 24.85z" />
		</g>
		<path id="Layer" class="s10" d="m316.88 132.38c-7.17 0-12.96-5.84-12.96-13.08c0-7.23 5.79-13.08 12.96-13.08c7.17 0 12.96 5.84 12.96 13.08c0 7.23-5.79 13.08-12.96 13.08z" />
		<path id="Layer" class="s8" d="m391.6 309.87c-13.84 0-25.03-11.19-25.03-25.03c0-13.84 11.19-25.03 25.03-25.03c13.84 0 25.03 11.19 25.03 25.03c0 13.84-11.19 25.03-25.03 25.03z" />
		<g id="Layer">
			<path id="Layer" class="s8" d="m391.72 309.4c-13.71 0-24.79-11.08-24.79-24.79c0-13.71 11.08-24.79 24.79-24.79c13.71 0 24.79 11.08 24.79 24.79c0 13.71-11.08 24.79-24.79 24.79z" />
			<path id="Layer" class="s9" d="m391.9 309.46c-13.71 0-24.79-11.08-24.79-24.79c0-13.71 11.08-24.79 24.79-24.79c13.71 0 24.79 11.08 24.79 24.79c0 13.71-11.08 24.79-24.79 24.79z" />
		</g>
		<path id="Layer" class="s9" d="m185.06 345.49c-10.27 0-18.58-8.3-18.58-18.58c0-10.27 8.3-18.58 18.58-18.58c10.27 0 18.58 8.3 18.58 18.58c0 10.27-8.3 18.58-18.58 18.58z" />
		<g id="Layer">
			<path id="Layer" class="s9" d="m185.06 345.49c-10.27 0-18.58-8.3-18.58-18.58c0-10.27 8.3-18.58 18.58-18.58c10.27 0 18.58 8.3 18.58 18.58c0 10.27-8.3 18.58-18.58 18.58z" />
			<path id="Layer" class="s7" d="m185.12 345.07c-10.18 0-18.4-8.22-18.4-18.4c0-10.18 8.22-18.4 18.4-18.4c10.18 0 18.4 8.22 18.4 18.4c0 10.18-8.22 18.4-18.4 18.4z" />
			<path id="Layer" class="s7" d="m185.23 345.13c-10.18 0-18.4-8.22-18.4-18.4c0-10.18 8.22-18.4 18.4-18.4c10.18 0 18.4 8.22 18.4 18.4c0 10.18-8.22 18.4-18.4 18.4z" />
		</g>
		<path id="Layer" class="s9" d="m264.52 268.81c0.35 0.71 0.41 1.36 0.53 2.07c0.95 6.51 4.14 12.01 8.34 16.8c3.96 4.5 8.93 7.87 14.85 9.53c1.48 0.41 3.02 0.83 4.5 1.24c-2.01 0.89-3.14 1.54-4.08 2.13c-6.69 3.49-10.83 9.05-13.31 16.09c-0.53 1.48-1.06 2.96-1.6 4.44c-0.71 1.83-2.13 2.48-3.96 2.48c-1.72 0-3.02-0.71-3.73-2.43c-0.41-1.06-0.89-2.19-1.24-3.31c-2.48-8.16-7.45-14.2-15.15-17.93c-2.72-1.3-5.62-2.43-8.4-3.61c-0.47-0.18-0.95-0.3-1.36-0.53c-1.54-0.77-2.96-1.89-2.84-3.79c0.06-1.95 1.24-3.25 3.08-3.96c1.66-0.65 3.31-1.18 4.97-1.83c8.46-3.31 15.68-8.7 19.41-17.39z" />
		<path id="Layer" class="s11" d="m275.64 315.02c-0.35-0.71-0.35-1.36-0.47-2.07c-0.95-6.51-4.14-12.01-8.34-16.8c-3.96-4.5-8.93-7.87-14.85-9.53c-1.48-0.41-3.02-0.83-4.5-1.24c2.01-0.89 3.14-1.54 4.08-2.13c6.69-3.49 10.83-9.05 13.31-16.09c0.53-1.48 1.06-2.96 1.6-4.44c0.71-1.83 2.13-2.48 3.96-2.48c1.72 0 3.02 0.71 3.73 2.43c0.41 1.06 0.89 2.19 1.24 3.31c2.48 8.16 7.45 14.2 15.15 17.93c2.72 1.3 5.62 2.43 8.4 3.61c0.47 0.18 0.95 0.3 1.36 0.53c1.54 0.77 2.96 1.89 2.84 3.79c-0.06 1.95-1.24 3.25-3.08 3.96c-1.66 0.65-3.31 1.18-4.97 1.83c-8.58 3.31-15.8 8.7-19.47 17.39z" />
		<path id="Layer" class="s12" d="m368.88 8.66c0.35 0.71 0.41 1.36 0.53 2.07c0.95 6.51 4.14 12.01 8.34 16.8c3.96 4.5 8.93 7.87 14.85 9.53c1.48 0.41 3.02 0.83 4.5 1.24c-2.01 0.89-3.14 1.54-4.08 2.13c-6.69 3.49-10.83 9.05-13.31 16.09c-0.53 1.48-1.06 2.96-1.6 4.44c-0.71 1.83-2.13 2.48-3.96 2.48c-1.72 0-3.02-0.71-3.73-2.43c-0.41-1.06-0.89-2.19-1.24-3.31c-2.48-8.16-7.45-14.2-15.15-17.93c-2.72-1.3-5.62-2.43-8.4-3.61c-0.47-0.18-0.95-0.3-1.36-0.53c-1.54-0.77-2.96-1.89-2.84-3.79c0.06-1.95 1.24-3.25 3.08-3.96c1.66-0.65 3.31-1.18 4.97-1.83c8.52-3.31 15.74-8.7 19.41-17.39z" />
		<path id="Layer" class="s1" d="m380 54.87c-0.35-0.71-0.35-1.36-0.47-2.07c-0.95-6.51-4.14-12.01-8.34-16.8c-3.96-4.5-8.93-7.87-14.85-9.53c-1.48-0.41-3.02-0.83-4.5-1.24c2.01-0.89 3.14-1.54 4.08-2.13c6.69-3.49 10.83-9.05 13.31-16.09c0.53-1.48 1.06-2.96 1.6-4.44c0.71-1.83 2.13-2.48 3.96-2.48c1.72 0 3.02 0.71 3.73 2.43c0.41 1.06 0.89 2.19 1.24 3.31c2.48 8.16 7.45 14.2 15.15 17.93c2.72 1.3 5.62 2.43 8.4 3.61c0.47 0.18 0.95 0.3 1.36 0.53c1.54 0.77 2.96 1.89 2.84 3.79c-0.06 1.95-1.24 3.25-3.08 3.96c-1.66 0.65-3.31 1.18-4.97 1.83c-8.52 3.31-15.74 8.7-19.47 17.39z" />
	</g>
</svg>