<svg height="512" viewBox="0 0 128 128" width="512" xmlns="http://www.w3.org/2000/svg"><g><g fill="#ffc080"><path d="m1.75 93.848h34.375v20.561h-34.375z"/><path d="m91.875 93.848h34.375v20.561h-34.375z"/><g><path d="m41.129 68.167h5.004v-12.112h-34.375v18.897h29.371z"/><path d="m81.867 56.055v12.112h5.004v6.785h29.371v-18.897z"/></g><path d="m51.137 31.933h7.113l-3.101-5.649h-30.024v10.875h26.012z"/><path d="m76.863 31.933h-7.113l3.101-5.649h30.024v10.875h-26.012z"/></g><path d="m36.125 86.284h55.75v28.125h-55.75z" fill="#f3f5f9"/><path d="m44.125 94.284h39.75v20.125h-39.75z" fill="#e1e6f0"/><path d="m57.687 102.284h12.625v12.125h-12.625z" fill="#4d5e80"/><path d="m41.129 68.167h45.742v18.117h-45.742z" fill="#e1e6f0"/><path d="m49.129 76.167h29.742v10.117h-29.742z" fill="#cfd7e6"/><path d="m46.133 50.05h35.734v18.117h-35.734z" fill="#f3f5f9"/><path d="m54.133 58.05h19.734v10.117h-19.734z" fill="#e1e6f0"/><path d="m51.137 31.933h25.726v18.117h-25.726z" fill="#e1e6f0"/><path d="m59.137 39.933h9.726v10.117h-9.726z" fill="#cfd7e6"/><g fill="#e69f6e"><path d="m36.125 86.284h5.004v-11.332h-34.375v18.896h29.371z"/><path d="m86.871 74.952v11.332h5.004v7.564h29.371v-18.896z"/></g><g fill="#e69f6e"><path d="m76.863 37.159v12.891h5.004v6.005h29.371v-18.896z"/><path d="m46.133 50.05h5.004v-12.891h-34.375v18.896h29.371z"/></g><path d="m74.875 22.598-5.125 9.335h-11.5l-5.125-9.335 10.875-9.007z" fill="#ffdf40"/><path d="m36.656 26.284h-11.531v-4.746l5.766-5.004 5.765 5.004z" fill="#ffdf40"/><path d="m91.344 26.284h11.531v-4.746l-5.766-5.004-5.765 5.004z" fill="#ffdf40"/></g></svg>