<svg xmlns="http://www.w3.org/2000/svg" viewBox="0 0 512 512" width="512" height="512">
	<style>
		tspan { white-space:pre }
		.shp0 { fill: #32b0e2 } 
		.shp1 { fill: #287ea0 } 
		.shp2 { fill: #cbcbcb } 
	</style>
	<path id="Layer" class="shp0" d="M512 169C512 265 437.2 330.7 328.3 430C310 447.1 290.2 465.1 269.5 484.3L257.5 465.1L256 466.3L239.2 481.3C217.3 460.9 196.3 441.7 176.5 424C69.7 327.1 0 263.2 0 169C0 80.2 57.1 15.1 134.2 15.1C185.8 15.1 220 35.5 241 57.4L256 120.1L271 55.6C292.9 33.1 326.5 15.1 374.2 15.1C451 15.1 512 80.2 512 169Z" />
	<g id="Layer">
		<path id="Layer" class="shp0" d="M512 169C512 265 437.2 330.7 328.3 430C310 447.1 290.2 465.1 269.5 484.3L257.5 465.1L256 466.3L256 120.1L271 55.6C292.9 33.1 326.5 15.1 374.2 15.1C451 15.1 512 80.2 512 169Z" />
		<path id="Layer" class="shp1" d="M271 55.6L271 240.1L241 240.1L241 57.4C246.7 63.1 252.1 69.1 256 74.5C260.2 68.2 265 61.9 271 55.6Z" />
		<path id="Layer" class="shp1" d="M305.5 345.1L269.5 484.3C268.3 485.5 256 496.9 256 496.9C256 496.9 241.3 483.4 239.2 481.3L256 415.9L266.5 375.1L207.7 375.1L229.3 267.1L256 272.5L258.7 273.1L256 286.6L244.3 345.1L305.5 345.1Z" />
	</g>
	<path id="Layer" class="shp1" d="M258.7 273.1L256 286.6L256 272.5L258.7 273.1Z" />
	<g id="Layer">
		<path id="Layer" class="shp1" d="M271 240.1L256 240.1L256 74.5C260.2 68.2 265 61.9 271 55.6L271 240.1Z" />
		<path id="Layer" class="shp1" d="M305.5 345.1L269.5 484.3C268.3 485.5 256 496.9 256 496.9L256 415.9L266.5 375.1L256 375.1L256 345.1L305.5 345.1L305.5 345.1Z" />
	</g>
	<path id="Layer" class="shp2" d="M121 225.1C121 258.19 147.91 285.1 181 285.1L211 233.54L181 165.1C147.91 165.1 121 192.01 121 225.1Z" />
	<path id="Layer" class="shp2" d="M331 165.1L301 225.1L331 285.1C364.09 285.1 391 258.19 391 225.1C391 192.01 364.09 165.1 331 165.1Z" />
	<path id="Layer" class="shp2" d="M181 165.1L331 165.1L331 285.1L181 285.1L181 165.1Z" />
	<path id="Layer" class="shp2" d="M256 165.1L331 165.1L331 285.1L256 285.1L256 165.1Z" />
	<g id="Layer">
	</g>
</svg>