<svg id="Capa_1" enable-background="new 0 0 512 512" height="512" viewBox="0 0 512 512" width="512" xmlns="http://www.w3.org/2000/svg"><g><path d="m147.184 337.62-32.373 8.73-24.056 30.782c8.538 20.041 20.626 38.206 35.475 53.705 1.623 1.694 4.111 2.238 6.315 1.436l51.622-18.789c7.471-2.719 8.897-12.551 2.617-17.427-18.916-14.689-33.03-35.25-39.6-58.437z" fill="#f1f1f4"/><path d="m39.248 288.758-36.007-5.971c-1.87-.31-3.241-1.928-3.241-3.824v-71.271c0-1.896 1.371-3.514 3.242-3.824l36.007-5.971 4.183 45.431z" fill="#dd636e"/><path d="m27.384 238.424c-4.061 0-7.466-3.17-7.706-7.276-.248-4.26 3.003-7.915 7.263-8.163l11.857-.692c4.249-.256 7.914 3.004 8.163 7.263.248 4.26-3.003 7.915-7.263 8.163l-11.857.692c-.152.009-.305.013-.457.013z" fill="#da4a54"/><path d="m39.256 265.471c-.152 0-.304-.004-.457-.013l-11.857-.692c-4.26-.248-7.512-3.903-7.263-8.163s3.907-7.51 8.163-7.263l11.857.692c4.26.248 7.512 3.903 7.263 8.163-.24 4.107-3.646 7.276-7.706 7.276z" fill="#da4a54"/><path d="m215.777 185.244h-31.458l-16.993 58.631 16.993 58.631h31.458c59.575 0 115.27 29.555 148.665 78.89 10.617-91.373 10.617-183.669 0-275.042-33.395 49.336-89.09 78.89-148.665 78.89z" fill="#f1f1f4"/><path d="m364.442 106.354c-10.422 15.396-23.015 28.866-37.22 40.112.625 19.945.807 41.044.705 61.916-.268 55.171-52.941 94.334-106.172 79.83-12.127-3.304-24.667-5.352-37.436-6.045l-6.125 20.339h37.584c59.575 0 115.27 29.555 148.665 78.89s18.685-90.305 18.759-135.573c.075-46.566-18.76-139.469-18.76-139.469z" fill="#dfdde2"/><path d="m52.548 307.048h23.963l8.762-63.72-8.762-62.625h-23.963c-7.345 0-13.299 5.954-13.299 13.299v99.746c-.001 7.346 5.954 13.3 13.299 13.3z" fill="#8b818e"/><path d="m39.248 273.145v20.604c0 7.345 5.954 13.299 13.299 13.299h23.963l8.762-20.604h-32.724c-7.345 0-13.3-5.954-13.3-13.299z" fill="#756e78"/><path d="m150.345 307.048-33.419-16.952-40.415 16.952c0 24.873 5.075 48.56 14.245 70.084l59.167-41.429c2.272-1.591 3.477-4.308 3.132-7.06z" fill="#8b818e"/><g fill="#ffe07d"><path d="m498.13 257.745h-38.641c-7.66 0-13.87-6.21-13.87-13.87 0-7.66 6.21-13.87 13.87-13.87h38.641c7.66 0 13.87 6.21 13.87 13.87 0 7.66-6.21 13.87-13.87 13.87z"/><path d="m470.3 346.114-33.464-19.321c-6.634-3.83-8.907-12.312-5.077-18.946 3.83-6.634 12.312-8.907 18.946-5.077l33.464 19.321c6.634 3.83 8.907 12.312 5.077 18.946-3.83 6.634-12.312 8.907-18.946 5.077z"/><path d="m470.3 141.636-33.464 19.321c-6.634 3.83-8.907 12.312-5.077 18.946 3.83 6.634 12.312 8.907 18.946 5.077l33.464-19.321c6.634-3.83 8.907-12.312 5.077-18.946-3.83-6.634-12.312-8.907-18.946-5.077z"/></g><path d="m267.203 225.84h-50.015c-4.267 0-7.726-3.459-7.726-7.726s3.459-7.726 7.726-7.726h50.015c4.267 0 7.726 3.459 7.726 7.726s-3.459 7.726-7.726 7.726z" fill="#dfdde2"/><path d="m363.279 96.688c12.233 98.277 12.101 197.157 0 294.374-1.042 8.375 4.83 16.03 13.191 17.179 8.513 1.17 16.351-4.843 17.413-13.371 12.482-100.276 12.482-201.712 0-301.99-1.061-8.527-8.899-14.541-17.413-13.371-8.36 1.15-14.234 8.805-13.191 17.179z" fill="#8b818e"/><path d="m180.459 307.048h-103.948v-126.345h103.948c2.131 0 3.859 1.728 3.859 3.859v118.627c0 2.131-1.727 3.859-3.859 3.859z" fill="#dd636e"/><path d="m180.459 180.703h-37.348v58.889c0 25.876-20.976 46.852-46.852 46.852h-19.748v20.604h103.948c2.131 0 3.859-1.728 3.859-3.859v-118.627c0-2.132-1.727-3.859-3.859-3.859z" fill="#da4a54"/></g></svg>