<svg id="Flat" height="512" viewBox="0 0 512 512" width="512" xmlns="http://www.w3.org/2000/svg"><path d="m64 88h96a0 0 0 0 1 0 0v400a0 0 0 0 1 0 0h-65.038a30.962 30.962 0 0 1 -30.962-30.962v-369.038a0 0 0 0 1 0 0z" fill="#464c4f"/><g fill="#b077c7"><path d="m64 176h96v32h-96z"/><path d="m64 288h96v32h-96z"/><path d="m64 392h96v32h-96z"/></g><path d="m432 120v368h-288v-400h256a32 32 0 0 0 32 32z" fill="#606669"/><path d="m424 272h24a0 0 0 0 1 0 0v64a0 0 0 0 1 0 0h-24a24 24 0 0 1 -24-24v-16a24 24 0 0 1 24-24z" fill="#b077c7"/><path d="m360 120v16a16 16 0 0 0 16 16h24v24a16 16 0 0 0 16 16h16v-72z" fill="#464c4f"/><path d="m360 488v-16a16 16 0 0 1 16-16h24v-24a16 16 0 0 1 16-16h16v72z" fill="#464c4f"/><path d="m280 392a8 8 0 0 1 -6.86-3.884l-72-120a8 8 0 0 1 6.86-12.116h144a8 8 0 0 1 6.86 12.116l-72 120a8 8 0 0 1 -6.86 3.884zm-57.871-120 57.871 96.451 57.87-96.451z" fill="#b077c7"/><path d="m352 352h-144a8 8 0 0 1 -6.86-12.116l72-120a8 8 0 0 1 13.72 0l72 120a8 8 0 0 1 -6.86 12.116zm-129.871-16h115.741l-57.87-96.451z" fill="#b077c7"/><path d="m432 120h-336a32 32 0 1 1 0-64h336a32 32 0 0 0 0 64z" fill="#6a7073"/><path d="m208 88v-64l-32 16-32-16v64z" fill="#b077c7"/><path d="m400 88a31.986 31.986 0 0 0 .99 7.94 8.1 8.1 0 0 1 -.99.06h-334.99a32.188 32.188 0 0 1 0-16h334.99a8.1 8.1 0 0 1 .99.06 31.986 31.986 0 0 0 -.99 7.94z" fill="#606669"/></svg>