<svg version="1.2" xmlns="http://www.w3.org/2000/svg" viewBox="0 0 512 512" width="512" height="512">
	<title>ashtar-svg</title>
	<style>
		.s0 { fill: #93413d } 
		.s1 { fill: #682018 } 
		.s2 { fill: none;stroke: #e4685c;stroke-width: 5.8 } 
		.s3 { fill: #fea613 } 
		.s4 { fill: #fac600 } 
		.s5 { fill: #fff364 } 
		.s6 { fill: #e2772c } 
		.s7 { fill: #ffffff } 
		.s8 { fill: #d34646 } 
		.s9 { fill: #e4685c } 
		.s10 { fill: #cadded } 
		.s11 { fill: #fda616 } 
		.s12 { fill: #e27a31 } 
		.s13 { fill: #fdb233 } 
		.s14 { fill: #f9c502 } 
		.s15 { opacity: .3;fill: #feb233 } 
	</style>
	<g id="Layer_3">
		<g id="_x30_60---Spell-Book">
			<g id="Ellipse_1_xA0_Изображение_1_">
				<g id="Layer">
					<ellipse id="Layer" class="s0" cx="255.6" cy="247.5" rx="247.4" ry="247.3"/>
				</g>
			</g>
		</g>
	</g>
	<g id="Layer_5">
		<g id="Layer">
			<g id="Layer">
				<path id="Layer" class="s1" d="m344.6 296l-41.1 41-188.7-188.6v-41h41z"/>
				<path id="Layer" class="s1" d="m324 316.5l-20.5 20.5-188.7-188.6v-41z"/>
				<g id="Layer">
					<path id="Layer" class="s1" d="m320 335.7c-6.4-6.4-8.1-15.1-3.9-19.3l7.8-7.7c4.2-4.3 12.9-2.5 19.3 3.9l42.5 50.2c6.5 6.4 8.2 15.1 3.9 19.3-4.2 4.3-12.9 2.5-19.3-3.9z"/>
					<path id="Layer" class="s1" d="m291.1 330l46.4-46.4c4.8-4.8 12.5-4.8 17.4 0 4.8 4.8 4.8 12.5 0 17.4l-46.5 46.3c-4.7 4.8-12.5 4.8-17.3 0-4.9-4.7-4.9-12.5 0-17.3z"/>
					<path id="Layer" class="s1" d="m363.6 373.5l17.4-17.4c4.7-4.8 12.5-4.8 17.4 0 4.8 4.8 4.8 12.5 0 17.4l-17.4 17.3c-4.8 4.9-12.6 4.9-17.4 0-4.8-4.8-4.8-12.6 0-17.3z"/>
					<path id="Layer" class="s1" d="m352.8 107.4h40.9v41l-188.7 188.6-40.9-41z"/>
				</g>
				<path id="Layer" class="s1" d="m393.7 107.4v41l-188.6 188.6-20.6-20.5z"/>
				<g id="Layer">
					<g id="Layer">
						<path id="Layer" class="s1" d="m118.9 382.1z"/>
						<path id="Layer" class="s1" d="m144.5 373l-16.4-16.5 37.3-43.9 23.1 23.1z"/>
					</g>
					<path id="Layer" class="s1" d="m188.5 335.7l-23.2-23.2-11.6-11.6c-4.9-4.8-4.9-12.5 0-17.4 4.7-4.8 12.5-4.8 17.4 0l46.4 46.4c4.8 4.8 4.8 12.6 0 17.4-4.8 4.8-12.6 4.8-17.4 0z"/>
					<path id="Layer" class="s1" d="m145 390.8c-4.7 4.9-12.5 4.9-17.4 0l-8.7-8.7-8.7-8.7c-2.4-2.4-3.6-5.5-3.6-8.7 0-3.2 1.2-6.4 3.6-8.7 4.7-4.9 12.5-4.9 17.4 0l0.5 0.5 16.4 16.4 0.5 0.5c4.8 4.8 4.8 12.6 0 17.4z"/>
				</g>
			</g>
		</g>
	</g>
	<g id="Layer_7">
		<path id="Layer" class="s2" d="m158.5 108.4c30.3 30.4 66.1 67.6 96.5 97.9 35.3-30.3 65.2-67.5 100.5-97.9 13.8 0.1 27.4 0.2 41.2 0.2q0 20.5 0 41c-32.9 32.8-65.7 65.5-98.6 98.2 13 13.2 26 26.5 39 39.7 5.2-7.6 15.4-8.1 20.4-3.2 4.4 4.2 4.8 12.8-0.5 18.6q-5.5 5.3-11 10.5c12 14.6 24 29.1 36 43.7 5.8-5.4 14.7-5 19.3 0 3.9 4.2 4.5 10.9 1.1 16.3-6 6-11.9 12-17.9 18-4.8 5.5-13.3 5.7-18.3 0.7-5-4.9-4.7-13.4 0.8-18.1-14.7-12.4-29.5-24.8-44.2-37.1-3.8 4-7.8 8-11.6 12-5.8 4.3-13.5 3.6-17.6-0.8-4.9-5.2-4.2-14.8 2.8-19.9-13.1-13-26.1-26.1-39.2-39.2-13.2 13.1-26.3 26.2-39.5 39.2 7.1 5.6 7.5 15.4 2.6 20.2-3.7 3.7-10.3 4.4-15.9 1.2q-6.7-6.4-13.2-12.8c-14.7 12.5-29.4 24.9-44.1 37.3 5.2 4.7 5.5 12.8 0.8 17.7-4.7 4.9-12.6 5.1-17.5 0.3-5.7-5.6-11.3-11.2-17-16.7-5.5-4.8-5.8-13.3-0.8-18.3 5-5 13.4-4.8 18.2 0.7 12.3-14.7 24.6-29.4 36.9-44.1l-13.3-13.4c-3.3-6.1-1.3-13.1 2.5-16.2 5.3-4.1 14.4-3.7 19.6 3.2 12.9-13.1 27-26.3 39.9-39.5l-99-98.4c0-18.6 0.2-28.5 0-41.6 13.7 0.2 27.4 0.4 41.1 0.6z"/>
	</g>
	<g id="Layer_1">
		<path id="Layer" class="s3" d="m287.4 250.5c-2.7 16.6-18.2 27.8-34.8 25.1-16.6-2.7-27.8-18.2-25.1-34.8 2.7-16.5 18.3-27.8 34.8-25.1 16.6 2.7 27.8 18.3 25.1 34.8z"/>
		<g id="Layer">
			<g id="Layer">
				<path id="Layer" class="s4" d="m287.7 250.6c-2.7 16.6-18.3 27.8-34.8 25.1-16.6-2.7-27.8-18.2-25.1-34.8 2.7-16.5 18.2-27.7 34.8-25.1 16.5 2.7 27.8 18.3 25.1 34.8z"/>
			</g>
		</g>
		<ellipse id="Layer" class="s5" cx="257.9" cy="245.7" rx="15.9" ry="16"/>
		<circle id="Layer" class="s3" cx="119.6" cy="108" r="15.6"/>
		<g id="Layer">
			<g id="Layer">
				<circle id="Layer" class="s4" cx="119.6" cy="108.1" r="15.6"/>
			</g>
		</g>
		<circle id="Layer" class="s6" cx="220.3" cy="209" r="15.7"/>
		<g id="Layer">
			<g id="Layer">
				<circle id="Layer" class="s6" cx="220.3" cy="208.8" r="15.6"/>
			</g>
			<g id="Layer">
				<circle id="Layer" class="s3" cx="220.4" cy="208.8" r="15.6"/>
			</g>
		</g>
		<circle id="Layer" class="s7" cx="220.2" cy="209" r="6"/>
		<ellipse id="Layer" class="s6" cx="117.2" cy="387.2" rx="24.4" ry="24.4"/>
		<g id="Layer">
			<g id="Layer">
				<ellipse id="Layer" class="s6" cx="117.2" cy="386.9" rx="24.2" ry="24.2"/>
			</g>
			<g id="Layer">
				<ellipse id="Layer" class="s3" cx="117.4" cy="386.9" rx="24.2" ry="24.2"/>
			</g>
		</g>
		<ellipse id="Layer" class="s3" cx="371.5" cy="133.7" rx="18.1" ry="18.1"/>
		<g id="Layer">
			<g id="Layer">
				<ellipse id="Layer" class="s3" cx="371.5" cy="133.7" rx="18.1" ry="18.1"/>
			</g>
			<g id="Layer">
				<ellipse id="Layer" class="s4" cx="371.5" cy="133.4" rx="17.9" ry="17.9"/>
			</g>
			<g id="Layer">
				<ellipse id="Layer" class="s4" cx="371.6" cy="133.5" rx="17.9" ry="17.9"/>
			</g>
		</g>
		<path id="Layer" class="s8" d="m350.1 445.2c-2.7 1.8-7.1 3.5-9.2 6-5 5.8-6 8-8.4 16.9-0.4 1.5-1.3 4.8-1.7 6.2-2 8.8-1.6 17.6-1.6 26.6 0 2 0.1 4 0 6-0.1 3.1-1.8 5-4.4 5-2.6 0-4.3-1.9-4.3-5.1 0-7 0.2-13.9-0.1-21-0.5-9.8-3-19.1-7.3-27.6-4.3-8.4-11-12.3-19.3-14.4-9.8-2.6-19.7-2.5-29.6-2.5-1.3 0-2.8-0.4-4-0.9-1.6-0.5-2.3-2.1-2.3-3.9 0-1.9 0.6-3.4 2.2-4.1 1.2-0.5 2.3-0.8 3.5-0.8q6.5-0.2 13 0c8.2 0.1 15.8-1 23.6-3.5 7.1-4.2 10.3-8.4 13.6-14.5 0.5-0.7 1.1-1.4 1.5-2.2 0.6 1.3 1.2 2.6 1.8 3.9 4.3 9.9 10.6 17.9 19.1 23.6 4.2 3.1 8.5 6.2 13.9 6.3z"/>
		<path id="Layer" class="s9" d="m297.8 428.7c3.4-1.1 5.6-3.4 8-5.6 5.9-5.5 8.4-13.3 10.7-21.2 2.7-9.4 2.3-19.2 2.3-28.9 0-2-0.1-3.9 0-6 0.2-3.1 1.8-5 4.4-5 2.6 0 4.3 1.9 4.3 5.1 0.1 7-0.2 14 0.1 21 0.5 9.9 3 19.1 7.3 27.6 4.3 8.4 11.1 12.3 19.3 14.4 9.8 2.6 19.7 2.5 29.6 2.6 1.3 0 2.8 0.3 4 0.8 1.6 0.5 2.3 2.1 2.3 3.9 0 1.9-0.6 3.4-2.2 4.1-1.2 0.5-2.3 0.8-3.5 0.8q-6.5 0.2-13 0c-8.2-0.1-16 2.1-23.7 4.6-6.2 2-9.4 6.9-12.6 12.9-1.1 2.6-1.2 3.1-1.4 4.2-0.7-1.3-2.1-4.2-2.7-5.5-4.3-10-10.6-18-19.1-23.7-4.3-2.9-8.7-5.9-14.1-6.1z"/>
		<path id="Layer" class="s4" d="m248.8 296c-0.5-0.7-0.5-1.5 0-2.2 0.5-0.7 1.2-1.4 1.7-2 1.7-1.7 3-3 4.5-4.7 2.3-2.5 4.1-2.5 6.4 0 1.4 1.6 3 3 4.5 4.6 2.3 2.4 2.2 3.7-0.1 6.2-1.3 1.5-2.7 2.9-4.1 4.4-1.9 2.1-4.5 2.8-7.1 0.1-1.5-1.7-2.7-2.8-4.2-4.4-0.4-0.5-1.2-1.5-1.6-2z"/>
		<path id="Layer" class="s9" d="m228.6 166.6c-0.4-0.6-0.4-1.4 0-1.9 0.4-0.5 1-1.1 1.5-1.7 1.3-1.4 2.5-2.5 3.8-4 1.9-2.1 3.4-2.1 5.3 0.1 1.2 1.4 2.6 2.5 3.8 3.8 2 2.1 1.9 3.2 0 5.3-1.1 1.3-2.4 2.5-3.5 3.7-1.7 1.8-3.8 2.5-6 0.1-1.3-1.4-2.3-2.3-3.6-3.7-0.3-0.5-1-1.3-1.3-1.7z"/>
		<path id="Layer" class="s4" d="m106.5 71.7c-0.4-0.7-0.4-1.6 0-2.2 0.5-0.7 1.2-1.4 1.8-2 1.6-1.8 3-3 4.5-4.8 2.2-2.4 4.1-2.4 6.3 0.1 1.5 1.6 3.1 3 4.5 4.5 2.3 2.4 2.2 3.7 0 6.3-1.4 1.5-2.8 2.9-4.1 4.4-2 2.1-4.6 2.8-7.1 0-1.5-1.7-2.7-2.7-4.3-4.4-0.4-0.4-1.2-1.4-1.6-1.9z"/>
		<path id="Layer" class="s7" d="m409.1 323.6c-0.4-0.7-0.4-1.5 0-2.2 0.5-0.7 1.2-1.3 1.8-2 1.6-1.7 3-3 4.5-4.7 2.2-2.5 4.1-2.5 6.3 0.1 1.5 1.6 3.1 3 4.5 4.5 2.3 2.4 2.2 3.7 0 6.2-1.4 1.5-2.8 2.9-4.1 4.4-2 2.2-4.6 2.8-7.1 0.1-1.5-1.7-2.8-2.7-4.3-4.4-0.4-0.4-1.2-1.4-1.6-2z"/>
		<path id="Layer" class="s7" d="m122.7 307c1 0 2 0 2.9 0 0.6 1.1 1.2 2.1 1.6 3.3 1.6 4.3 6.2 8.5 10.4 10.4 1.7 0.9 1.4 0.9 3.1 1.8 0 0.8 0 1.6 0 2.3-0.9 0.5-1.8 1.1-2.8 1.4-5.2 1.6-8.5 5.2-10.7 10-0.5 1.3-1.3 2.4-2.1 3.6-0.7 0-1.5 0-2.3 0-0.4-0.7-1.4-2.5-1.6-3.3-2.1-7-6.5-9.9-13.4-11.7 0-0.9 0-1.9 0-2.8 0.9-0.5 2.2-0.8 3.3-1.3 5-2.1 8.1-5.7 10.1-10.5 0.6-1.3 1-2 1.5-3.2z"/>
		<path id="Layer" class="s10" d="m191.3 86.8c-1.6 1.2-4.2 2.3-5.5 4.1-2.9 3.8-3.5 5.3-4.9 11.4-0.2 1-0.8 3.2-1 4.2-1.2 5.8-1 11.9-1 17.9 0 1.4 0 2.7 0 4.1-0.1 2-1.1 3.4-2.6 3.3-1.6 0-2.5-1.3-2.6-3.5 0-4.7 0.2-9.4 0-14.1-0.2-6.6-1.7-12.8-4.3-18.6-2.6-5.7-6.6-8.2-11.4-9.7-5.8-1.8-11.7-1.7-17.5-1.8q-1.3 0-2.5-0.5c-0.9-0.4-1.3-1.4-1.3-2.7 0-1.3 0.4-2.3 1.3-2.8q1-0.5 2.1-0.6c2.5 0 5.1 0 7.6 0 4.9 0.2 9.4-0.5 13.9-2.3 4.3-2.8 6.2-5.7 8.1-9.8 0.2-0.5 0.6-0.9 0.9-1.5 0.3 0.9 0.7 1.8 1.1 2.7 2.5 6.7 6.2 12.2 11.2 16 2.6 2 5.2 4.1 8.4 4.2z"/>
		<path id="Layer" class="s7" d="m160.4 75.8c2-0.8 3.3-2.3 4.7-3.8 3.5-3.7 5-9 6.3-14.3 1.6-6.3 1.4-12.9 1.4-19.5 0-1.4-0.1-2.7 0-4.1 0-2 1.1-3.4 2.6-3.3 1.5 0 2.4 1.3 2.5 3.4 0.1 4.8-0.2 9.4 0.1 14.2 0.2 6.6 1.7 12.8 4.3 18.6 2.5 5.6 6.5 8.2 11.4 9.7 5.8 1.8 11.6 1.7 17.5 1.8q1.2 0 2.4 0.5c0.9 0.4 1.3 1.4 1.3 2.7 0 1.3-0.3 2.3-1.2 2.8q-1.1 0.5-2.1 0.5c-2.5 0.1-5.1 0.1-7.7 0-4.8-0.1-9.4 1.4-14 3.2-3.6 1.3-5.5 4.6-7.4 8.7-0.7 1.8-0.7 2-0.8 2.7-0.4-0.8-1.3-2.7-1.6-3.7-2.5-6.6-6.2-12.1-11.3-15.9-2.7-2.2-5.3-4.2-8.4-4.2z"/>
		<path id="Layer" class="s11" d="m1052.6 225c0.3-0.3 0.6-0.5 1-0.8-0.4 0.3-0.7 0.5-1 0.8z"/>
		<path id="Layer" class="s12" d="m577.7 174.1c-0.2 0.1-0.4 0.2-0.6 0.4 0.2-0.1 0.4-0.3 0.6-0.4z"/>
		<path id="Layer" class="s12" d="m1058.8 347.6q-0.3 0.3-0.7 0.5 0.4-0.2 0.7-0.5z"/>
		<path id="Layer" class="s12" d=""/>
		<path id="Layer" class="s11" d="m928.5 535.7c0.2-0.2 0.5-0.4 0.7-0.6-0.2 0.2-0.4 0.4-0.7 0.6z"/>
		<path id="Layer" class="s13" d="m879.4 181c0.2 0.4 0.4 0.7 0.6 1.1-0.2-0.4-0.4-0.7-0.6-1.1z"/>
		<path id="Layer" class="s3" d="m357.7 337.5c0.2 0.5 0.3 0.9 0.3 1.4 0.6 4.1 2.7 7.6 5.3 10.7 2.6 2.9 5.7 5 9.5 6 0.9 0.3 1.9 0.6 2.9 0.8-1.3 0.6-2 1-2.6 1.4-4.3 2.3-6.9 5.8-8.5 10.3-0.4 0.9-0.7 1.9-1 2.8-0.5 1.2-1.4 1.6-2.6 1.6-1.1 0-1.9-0.5-2.3-1.6-0.3-0.7-0.6-1.4-0.9-2.1-1.5-5.2-4.7-9.1-9.6-11.4-1.8-0.8-3.6-1.6-5.4-2.3-0.3-0.2-0.6-0.2-0.9-0.4-1-0.5-1.9-1.2-1.8-2.4 0.1-1.3 0.8-2.1 2-2.5 1-0.5 2.1-0.8 3.2-1.2 5.4-2.1 10-5.5 12.4-11.1z"/>
		<path id="Layer" class="s14" d="m364.8 367c-0.3-0.5-0.3-0.9-0.3-1.3-0.6-4.2-2.7-7.7-5.3-10.8-2.6-2.8-5.7-5-9.5-6-0.9-0.3-1.9-0.5-2.9-0.8 1.3-0.6 2-1 2.6-1.4 4.3-2.3 6.9-5.8 8.5-10.3 0.3-0.9 0.7-1.9 1-2.8 0.5-1.1 1.4-1.5 2.6-1.5 1.1 0 1.9 0.4 2.3 1.5 0.3 0.7 0.6 1.4 0.9 2.1 1.5 5.2 4.7 9.1 9.6 11.5 1.8 0.8 3.6 1.5 5.4 2.3 0.3 0.1 0.6 0.1 0.9 0.3 1 0.5 1.9 1.2 1.8 2.4-0.1 1.3-0.8 2.1-2 2.6-1 0.4-2.1 0.7-3.2 1.1-5.5 2.2-10.1 5.6-12.4 11.1z"/>
		<path id="Layer" class="s8" d="m390.9 67.4c0.1 0.3 0.2 0.5 0.2 0.8 0.3 2.6 1.5 4.8 3.1 6.7 1.5 1.8 3.3 3.1 5.6 3.8q0.9 0.3 1.7 0.5c-0.8 0.4-1.2 0.7-1.6 0.9-2.5 1.4-4.1 3.6-5 6.4-0.2 0.6-0.4 1.1-0.6 1.8-0.3 0.7-0.8 1-1.5 1-0.6 0-1.1-0.3-1.4-1-0.2-0.4-0.3-0.9-0.4-1.4-1-3.2-2.9-5.6-5.8-7.1-1-0.5-2.1-1-3.1-1.4q-0.3-0.1-0.5-0.3c-0.6-0.3-1.1-0.7-1.1-1.5 0-0.7 0.4-1.2 1.1-1.5 0.7-0.3 1.3-0.5 1.9-0.8 3.3-1.2 6-3.4 7.4-6.9z"/>
		<path id="Layer" class="s9" d="m395.1 85.8c-0.1-0.3-0.1-0.5-0.2-0.8-0.3-2.6-1.5-4.8-3.1-6.7-1.5-1.8-3.3-3.1-5.6-3.8q-0.8-0.3-1.6-0.5c0.7-0.4 1.1-0.7 1.5-0.9 2.6-1.4 4.1-3.6 5-6.4 0.2-0.6 0.4-1.1 0.6-1.8 0.3-0.7 0.8-1 1.5-1 0.6 0 1.2 0.3 1.4 1 0.2 0.4 0.3 0.9 0.5 1.3 0.9 3.3 2.8 5.7 5.7 7.2 1 0.5 2.1 1 3.1 1.4q0.3 0.1 0.6 0.3c0.5 0.3 1.1 0.7 1.1 1.5 0 0.7-0.5 1.2-1.2 1.5-0.6 0.3-1.3 0.5-1.8 0.8-3.4 1.4-6.1 3.4-7.5 6.9z"/>
		<path id="Layer" class="s15" d="m307.9 266.8c-0.5-0.7-0.5-1.6 0-2.2 0.4-0.7 1.1-1.4 1.7-2 1.6-1.8 3-3 4.5-4.8 2.3-2.4 4.1-2.4 6.4 0.1 1.4 1.6 3 3 4.5 4.6 2.3 2.3 2.2 3.6-0.1 6.2-1.3 1.5-2.8 2.9-4.1 4.4-2 2.1-4.6 2.8-7.1 0-1.5-1.6-2.7-2.7-4.3-4.4-0.3-0.4-1.1-1.3-1.5-1.9z"/>
		<path id="Layer" class="s7" d="m307.9 266.8c-0.5-0.7-0.5-1.6 0-2.2 0.4-0.7 1.1-1.4 1.7-2 1.6-1.8 3-3 4.5-4.8 2.3-2.4 4.1-2.4 6.4 0.1 1.4 1.6 3 3 4.5 4.6 2.3 2.3 2.2 3.6-0.1 6.2-1.3 1.5-2.8 2.9-4.1 4.4-2 2.1-4.6 2.8-7.1 0-1.5-1.6-2.7-2.7-4.3-4.4-0.3-0.4-1.1-1.3-1.5-1.9z"/>
		<path id="Layer" class="s4" d="m388.6 151.5c-0.3-0.4-0.3-1 0-1.4 0.3-0.4 0.7-0.8 1-1.2 1-1 1.9-1.8 2.8-2.9 1.4-1.5 2.5-1.5 3.9 0.1 0.8 1 1.8 1.8 2.7 2.8 1.5 1.4 1.4 2.2 0 3.8-0.8 0.9-1.7 1.8-2.6 2.7-1.2 1.3-2.7 1.7-4.3 0-0.9-1-1.7-1.6-2.6-2.7-0.2-0.3-0.7-0.9-0.9-1.2z"/>
		<path id="Layer" class="s9" d="m72.8 291.5c-0.4-0.6-0.4-1.4 0-1.9 0.4-0.6 1-1.1 1.4-1.7 1.4-1.5 2.6-2.6 3.8-4 1.9-2.1 3.5-2.1 5.4 0.1 1.2 1.3 2.6 2.5 3.8 3.8 2 2 1.9 3.1 0 5.3-1.1 1.3-2.4 2.5-3.5 3.7-1.7 1.8-3.9 2.4-6 0.1-1.3-1.5-2.3-2.3-3.6-3.7-0.3-0.5-1-1.3-1.3-1.7z"/>
	</g>
	<g id="Layer_4">
		<path id="Layer" class="s7" d="m204.8 192l-1 1c-1.4 1.5-3.8 1.6-5.2 0.2l-64.3-63.8c-1.5-1.3-1.6-3.8-0.1-5.2l1-1c1.4-1.5 3.8-1.6 5.3-0.2l64.2 63.7c1.5 1.4 1.6 3.9 0.1 5.3z"/>
		<path id="Layer" class="s7" d="m286.7 221.6l-1.4-0.5c-1.9-0.8-2.8-3-2-4.9l62.9-62.8c0.8-1.9 3-2.9 4.9-2.1l1.4 0.5c1.9 0.8 2.8 3 2.1 4.9l-63 62.8c-0.8 2-3 2.9-4.9 2.1z"/>
		<path id="Layer" class="s7" d="m139.8 365.4l-0.8-1.2c-1.1-1.8-0.5-4.1 1.2-5.2l84.8-85.1c0.8-0.8 1.9-1.3 3-1.1 1.1 0.2 2.1 0.7 2.7 1.7l0.8 1.3c1 1.6 0.6 3.8-0.9 4.9-0.2 0.1-0.4 0.3-0.5 0.4l-85.1 85.5c-1.8 1.2-4.1 0.6-5.2-1.2z"/>
		<path id="Layer" class="s7" d="m282.4 274l1.1-1.1c1.5-1.4 3.9-1.4 5.3 0.1l59 58.8c1.4 1.4 1.3 3.8-0.1 5.2l-1.1 1.1c-1.4 1.4-3.9 1.4-5.3-0.1l-58.9-58.8c-1.5-1.3-1.5-3.7 0-5.2z"/>
	</g>
</svg>