<svg version="1.2" xmlns="http://www.w3.org/2000/svg" viewBox="0 0 512 512" width="512" height="512">
	<title>barrier-svg</title>
	<style>
		.s0 { fill: #e58c00 } 
		.s1 { fill: #d07f00 } 
		.s2 { fill: #ff9c00 } 
	</style>
	<path id="Layer" class="s0" d="m512 256c0-140.8-114.4-256-256-256q0 0 0 0 0 0 0 0c-140.8 0-256 114.4-256 256q0 0 0 0 0 0 0 0c0 140.8 114.4 256 256 256q0 0 0 0 0 0 0 0c140.8 0 256-114.4 256-256q0 0 0 0 0 0 0 0z"/>
	<path id="Layer" class="s1" d="m256 512c140.8 0 256-114.4 256-256q0 0 0 0 0 0 0 0c0-140.8-114.4-256-256-256q0 0 0 0v512q0 0 0 0z"/>
	<path id="Layer" class="s2" d="m512 255.9c0-77.8-122.6-133.5-256-133.5-126.2 0-256 52.5-256 133.6 0 0 0 0 0 0.1 0 92.8 158 133.5 256 133.5 127.1 0 256-52.9 256-133.6 0 0 0 0 0-0.1z"/>
	<path id="Layer" class="s0" d="m256 122.4v267.2c127.1 0 256-52.9 256-133.6q0 0 0 0 0 0 0 0 0-0.1 0-0.1c0-77.8-122.7-133.5-256-133.5z"/>
	<g id="Layer">
	</g>
	<g id="Layer">
	</g>
	<g id="Layer">
	</g>
	<g id="Layer">
	</g>
	<g id="Layer">
	</g>
	<g id="Layer">
	</g>
	<g id="Layer">
	</g>
	<g id="Layer">
	</g>
	<g id="Layer">
	</g>
	<g id="Layer">
	</g>
	<g id="Layer">
	</g>
	<g id="Layer">
	</g>
	<g id="Layer">
	</g>
	<g id="Layer">
	</g>
	<g id="Layer">
	</g>
</svg>