<svg id="Layer_1" enable-background="new 0 0 124 124" height="512" viewBox="0 0 124 124" width="512" xmlns="http://www.w3.org/2000/svg"><path id="XMLID_274_" d="m0 60.608c1.922-2.744 23.838-32.897 62.726-32.539 37.96.349 59.185 29.467 61.274 32.441-2.037 2.93-23.214 32.284-61.274 32.67-38.929.394-60.839-29.867-62.726-32.572z" fill="#32b0e2"/><path id="XMLID_43_" d="m83.284 61.999c0-11.908-9.529-21.561-21.284-21.561-5.752 0-10.961 2.322-14.792 6.077l30.076 30.468c3.708-3.879 6-9.157 6-14.984z" fill="#cacaca"/><path id="XMLID_44_" d="m72.66 61.999c0-5.964-4.773-10.799-10.66-10.799-2.818 0-5.373 1.116-7.279 2.925l15.052 15.248c1.785-1.93 2.887-4.519 2.887-7.374z" fill="#f7f7f5"/><g fill="#e6e6e6"><path id="XMLID_46_" d="m22.833 39.547c-1.207.757-2.377 1.525-3.491 2.305.071.106 50.299 50.93 50.299 50.93 1.58-.166 3.114-.397 4.628-.657-.067-.413-.253-.81-.569-1.129z"/><path id="XMLID_47_" d="m53.729 91.056-42.974-42.329c-1.076.98-2.077 1.936-2.996 2.856.011.012.019.025.031.037l40.962 40.347c1.808.337 3.673.596 5.576.797.066-.611-.128-1.245-.599-1.708z"/><path id="XMLID_48_" d="m116.204 113.462-25.771-26.107-53.925-54.628-24.791-25.113c-.803-.814-2.111-.819-2.923-.013-.81.807-.816 2.121-.013 2.935l23.596 23.904 53.851 54.553 27.039 27.391c1.874 1.898 4.811-1.023 2.937-2.922z"/></g></svg>