<svg xmlns="http://www.w3.org/2000/svg" viewBox="0 0 124 124" width="124" height="124">
	<style>
		tspan { white-space:pre }
		.shp0 { fill: #b04141 } 
		.shp1 { fill: #cacaca } 
		.shp2 { fill: #f7f7f5 } 
		.shp3 { fill: #e6e6e6 } 
	</style>
	<path id="XMLID_274_" class="shp0" d="M0 60.61C1.92 57.86 23.84 27.71 62.73 28.07C100.69 28.42 121.91 57.54 124 60.51C121.96 63.44 100.79 92.79 62.73 93.18C23.8 93.57 1.89 63.31 0 60.61L0 60.61Z" />
	<path id="XMLID_43_" class="shp1" d="M83.28 62C83.28 50.09 73.76 40.44 62 40.44C56.25 40.44 51.04 42.76 47.21 46.52L77.28 76.98C80.99 73.1 83.28 67.83 83.28 62Z" />
	<path id="XMLID_44_" class="shp2" d="M72.66 62C72.66 56.04 67.89 51.2 62 51.2C59.18 51.2 56.63 52.32 54.72 54.13L69.77 69.37C71.56 67.44 72.66 64.85 72.66 62Z" />
	<g id="Layer">
		<path id="XMLID_46_" class="shp3" d="M22.83 39.55C21.63 40.3 20.46 41.07 19.34 41.85C19.41 41.96 69.64 92.78 69.64 92.78C71.22 92.62 72.75 92.38 74.27 92.13C74.2 91.71 74.02 91.31 73.7 91L22.83 39.55Z" />
		<path id="XMLID_47_" class="shp3" d="M53.73 91.06L10.76 48.73C9.68 49.71 8.68 50.66 7.76 51.58C7.77 51.59 7.78 51.61 7.79 51.62L48.75 91.97C50.56 92.3 52.43 92.56 54.33 92.76C54.39 92.15 54.2 91.52 53.73 91.06L53.73 91.06Z" />
		<path id="XMLID_48_" class="shp3" d="M116.2 113.46L90.43 87.36L36.51 32.73L11.72 7.61C10.91 6.8 9.61 6.8 8.79 7.6C7.98 8.41 7.98 9.72 8.78 10.54L32.38 34.44L86.23 88.99L113.27 116.38C115.14 118.28 118.08 115.36 116.2 113.46L116.2 113.46Z" />
	</g>
</svg>