<svg height="512" viewBox="0 0 512 512" width="512" xmlns="http://www.w3.org/2000/svg"><g id="Flat"><path d="m488 292.88c0-25.52-16.28-47.14-38.77-54.59a58.151 58.151 0 0 0 6.77-27.36c0-31.69-25.07-57.37-56-57.37a54.227 54.227 0 0 0 -8.01.6c0-.2.01-.4.01-.6a58.348 58.348 0 0 0 -5.05-23.83c-8.83-19.78-28.32-33.53-50.95-33.53a54.987 54.987 0 0 0 -36.12 13.54 55.154 55.154 0 0 0 -87.76 0 54.987 54.987 0 0 0 -36.12-13.54c-30.93 0-56 25.68-56 57.36 0 .2.01.4.01.6a54.227 54.227 0 0 0 -8.01-.6c-30.93 0-56 25.68-56 57.37a58.151 58.151 0 0 0 6.77 27.36c-22.49 7.45-38.77 29.07-38.77 54.59 0 29.75 22.11 54.21 50.41 57.08-.22.73-.42 1.46-.6 2.2a58.477 58.477 0 0 0 -1.81 14.47c0 31.69 25.07 57.37 56 57.37a55.423 55.423 0 0 0 44-21.9 55.1 55.1 0 0 0 84 4.67 55.1 55.1 0 0 0 84-4.67 55.423 55.423 0 0 0 44 21.9c30.93 0 56-25.68 56-57.37a58.727 58.727 0 0 0 -2.41-16.67c28.3-2.87 50.41-27.33 50.41-57.08z" fill="#f59898"/><path d="m437.59 349.96a58.727 58.727 0 0 1 2.41 16.67c0 31.69-25.07 57.37-56 57.37a55.423 55.423 0 0 1 -44-21.9 55.1 55.1 0 0 1 -84 4.67 55.1 55.1 0 0 1 -84-4.67 55.423 55.423 0 0 1 -44 21.9c-30.93 0-56-25.68-56-57.37a58.477 58.477 0 0 1 1.81-14.47c125.92-23.23 246.21-87.2 313.14-222.43a58.348 58.348 0 0 1 5.05 23.83c0 .2-.01.4-.01.6a54.227 54.227 0 0 1 8.01-.6c30.93 0 56 25.68 56 57.37a58.151 58.151 0 0 1 -6.77 27.36c22.49 7.45 38.77 29.07 38.77 54.59 0 29.75-22.11 54.21-50.41 57.08z" fill="#ed9191"/><g fill="#e07777"><path d="m171.142 320.012a65.578 65.578 0 0 0 -19.142 46.622c0 10.288 4.341 23.377 8.8 32.422a8.03 8.03 0 0 0 11.723 3.15 8.025 8.025 0 0 0 2.635-10.206c-3.379-6.859-7.158-17.545-7.158-25.366a49.685 49.685 0 0 1 14.476-35.33z"/><path d="m300.229 110.172a8 8 0 0 0 -12.08-.022 66.059 66.059 0 0 0 -16.149 43.411h16a50.068 50.068 0 0 1 12.146-32.824 8.049 8.049 0 0 0 .083-10.565z"/><path d="m439.884 348.874a7.811 7.811 0 0 0 -7.815-6.63h-.069a47.056 47.056 0 0 1 -33.523-14.036l-11.336 11.292a62.949 62.949 0 0 0 44.859 18.744h.394a7.742 7.742 0 0 0 7.561-8.884z"/><path d="m392.091 154.764-.008-.058a7.982 7.982 0 0 0 -10.222-6.469 64.133 64.133 0 0 0 -27.642 17.013l11.562 11.059a48.073 48.073 0 0 1 20.613-12.729 8.031 8.031 0 0 0 5.697-8.816z"/><path d="m158.862 166.408a75.441 75.441 0 0 0 -27.578-19.367 8.765 8.765 0 0 0 -11.966 7.569 8.824 8.824 0 0 0 6.34 8.973 47.446 47.446 0 0 1 20.486 12.643 65.34 65.34 0 0 0 -17.971 33.047l15.654 3.307a49.406 49.406 0 0 1 14.3-25.7 46.933 46.933 0 0 1 34.846-13.082l.767-15.981a62.434 62.434 0 0 0 -34.878 8.591z"/><path d="m336.007 232.115a50.592 50.592 0 0 0 -16.216 3.42 52.335 52.335 0 0 0 -24.7-40.522l-8.4 13.615a36.6 36.6 0 0 1 17.309 31.437c0 20.191-15.95 36.618-35.556 36.618a34.655 34.655 0 0 1 -10.111-1.5l-4.666 15.305a50.652 50.652 0 0 0 14.777 2.195c23.487 0 43.341-16.118 49.539-38.081a34.71 34.71 0 0 1 44.478 3.292l11.078-11.545a50.571 50.571 0 0 0 -37.532-14.234z"/><path d="m159.591 268.192a48.383 48.383 0 0 1 -26-27.354l-14.936 5.739a65.1 65.1 0 0 0 16.645 24.637 35.612 35.612 0 0 1 -8.486 18.429c-7.277 8.164-18.045 12.227-30.312 11.456l-1.012 15.967q2.025.129 4.01.128c15.642 0 29.468-5.922 39.258-16.905a50.508 50.508 0 0 0 10.68-19.223c1.24.636 2.5 1.248 3.786 1.807a62.369 62.369 0 0 0 38.259 3.782l-3.383-15.636a46.494 46.494 0 0 1 -28.509-2.827z"/><path d="m311.218 325.251c-9.729 18.956-32.157 28.971-53.324 23.814l-3.788 15.546a65.108 65.108 0 0 0 15.423 1.862 62.587 62.587 0 0 0 55.923-33.917l1.665-3.245-14.234-7.305z"/></g></g></svg>