<?xml version="1.0" encoding="utf-8"?>
<!-- Generator: Adobe Illustrator 26.0.1, SVG Export Plug-In . SVG Version: 6.00 Build 0)  -->
<svg version="1.1" id="Layer_1" xmlns="http://www.w3.org/2000/svg" xmlns:xlink="http://www.w3.org/1999/xlink" x="0px" y="0px"
	 viewBox="0 0 2000 2000" style="enable-background:new 0 0 2000 2000;" xml:space="preserve">
<style type="text/css">
	.st0{fill:#DECEC2;}
	.st1{fill:#AED76A;}
	.st2{clip-path:url(#SVGID_00000137854160394547035880000001765314426539759029_);}
	.st3{fill:#FECFAE;}
	.st4{fill:#E8DBD4;}
	.st5{fill:#D6B192;}
	.st6{fill:#D88D3D;}
	.st7{fill:#EFD9C4;}
	.st8{fill:#965626;}
	.st9{fill:#1E1713;}
	.st10{fill:#356F93;}
	.st11{fill:#4E8BC1;}
	.st12{fill:#807A99;}
	.st13{clip-path:url(#SVGID_00000016786323646110833330000011893866787353705150_);}
	.st14{fill:#A29CB7;}
	.st15{fill:#C9C7D8;}
	.st16{fill:#62A4CC;}
	.st17{fill:#E5BDA3;}
	.st18{fill:#AFD86A;}
	.st19{fill:#77A22F;}
	.st20{clip-path:url(#SVGID_00000153704200163845288380000003074305590351931576_);}
	.st21{fill:#8ABD32;}
</style>
<polygon class="st0" points="702.2,645.4 941.3,663.6 798.5,477.4 "/>
<path class="st1" d="M1367.1,1214.8c79.3-9.3,131.2,26.6,198,56c94.1,41.4,163.2,159.6,102.8,244.7c-67,94.5-159.3,162-441.7,188.6
	c-321.1,30.3-305.4-21-414.6-12.3c-82.8,6.6-460.9,27.4-464.2-235.4c-1.7-132.2,132.4-271.5,580.9-276.5
	C1117.6,1177.7,1318.7,1220.5,1367.1,1214.8z"/>
<g>
	<defs>
		<path id="SVGID_1_" d="M1367.1,1214.8c79.3-9.3,131.2,26.6,198,56c94.1,41.4,163.2,159.6,102.8,244.7
			c-67,94.5-159.3,162-441.7,188.6c-321.1,30.3-305.4-21-414.6-12.3c-82.8,6.6-460.9,27.4-464.2-235.4
			c-1.7-132.2,132.4-271.5,580.9-276.5C1117.6,1177.7,1318.7,1220.5,1367.1,1214.8z"/>
	</defs>
	<clipPath id="SVGID_00000044871136443073548010000006487582182129852055_">
		<use xlink:href="#SVGID_1_"  style="overflow:visible;"/>
	</clipPath>
	<g style="clip-path:url(#SVGID_00000044871136443073548010000006487582182129852055_);">
		<path class="st3" d="M882.5,1502.2c0,0-133.1,32.4-74.3,103.8s232.5,22.1,349.5,98.6s81.7,147.2,81.7,147.2l-408.8-94.2
			c0,0-357.8-59.3-95.1-301.9C735.6,1455.7,839.8,1369,882.5,1502.2z"/>
	</g>
</g>
<polygon class="st4" points="1054.3,1548.5 1352.6,1327.3 1412.7,899.9 1089.7,1080.3 "/>
<path class="st0" d="M1104.4,1209.1c0,0,223.2-202.5,295.4-205.8v-68.9l-228.7,72.9l-50.6,103.8L1104.4,1209.1z"/>
<path class="st0" d="M990.8,1548.5L816,1509l-261.4-77.7L528,996l109.2-120.2l72.4-173.1l41.8-64.6l138.1,39.2
	c0,0,42.5,158.5,48.1,172.6s142.2,225.6,142.2,225.6l-22,95.4l-25.1,291.9L990.8,1548.5z"/>
<path class="st5" d="M1512.1,842.6c0,0-1.2,19.3-16.7,20.2c-10.3,0.5-20.7,0.5-31.1,0l7.1,30.4l25.9,29.9l38.4-30.1l16.6-73.7
	l-44,12l3.8,10.4L1512.1,842.6z"/>
<path class="st6" d="M1512.1,842.6c0,0-11.3,32.5-8.5,37.1c0,0-24.4-4.4-29-10.9c0,0,4.2,19.5,25.4,24.2l-2.8,30.1L1358.2,868
	L1289,733.9L1512.1,842.6z"/>
<polygon class="st5" points="1370.6,1335.1 1407.4,1307 1468.6,881.3 1390.7,908.4 "/>
<polygon class="st7" points="576.4,1450.6 589,1442.5 598.7,959.2 547.8,1001.4 "/>
<polygon class="st6" points="1418.1,921.9 1370.6,1335.1 1352.8,1327.2 1389.4,879.7 "/>
<polygon class="st8" points="1284.8,1165.2 1295.6,1140.6 1284.1,1140.3 1189.5,1196.2 1185.1,1369.9 1193.3,1373.3 1198.2,1362 
	1270.7,1319 "/>
<polygon class="st6" points="1197.8,1199.6 1295.6,1140.6 1278.9,1322.4 1193.3,1373.3 "/>
<polygon class="st9" points="1211.8,1216.4 1277.1,1171.1 1269,1305.1 1211.8,1344.1 "/>
<polygon class="st6" points="1238.4,1188 1234.7,1333.2 1249.5,1322.9 1253.1,1182.7 "/>
<polygon class="st6" points="1205.1,1273.8 1280.2,1230.5 1279.8,1244.6 1202.3,1291.1 "/>
<path class="st10" d="M1177.7,1075.5c0,0,263.5-155.3,305.9-201.3v-20.6l-309.7,135.2C1173.9,988.8,1145.8,1051.6,1177.7,1075.5z"/>
<polygon class="st5" points="1031.7,1583.3 1066.6,1560.7 1127.8,1101.6 1036.9,1080.3 "/>
<polygon class="st6" points="508.3,1009.8 534.8,1437 576.4,1450.6 576.4,979.2 "/>
<polygon class="st11" points="1160.5,1060.8 1483.6,853.6 1324.8,786.2 1123.1,579.6 915,721.9 978.7,929.9 1112.2,1046.8 "/>
<polygon class="st5" points="1188.9,1043.7 1179.5,1123.9 1111.6,1148.1 1066.6,1093.8 1066.6,1026.9 "/>
<path class="st8" d="M696.8,709.5l52.8-23c0,0-45.7,274-272.1,347.5c0,0-4.7,1.8-14.2-5.3c-4.3-3.2-4.9-11.7-7.2-20.4
	c0,0,34.1-6.4,42.8-18.4c0,0-28.4,15.3-44.2,11.3c0,0-11.2-11.9-10.5-19.4C444.2,981.8,579.7,994.7,696.8,709.5z"/>
<path class="st8" d="M1133.3,593.8c0,0,81.6,180.3,378.8,248.8l40.2-23.3c0,0-271.9-62.1-394.8-239.1L1133.3,593.8z"/>
<path class="st8" d="M1115.5,1065.2l73.5-21.6c0,0-207.3-102.4-256.6-323c0,0-56.4-0.7-46.3,21.9s113.4,277.8,113.4,277.8
	L1115.5,1065.2z"/>
<path class="st6" d="M691.1,699.6l48.3,3.1c0,0-50,252.6-276.4,326.1c0,0-20.1-14.4-12.6-30.4c0,0,34.1-6.3,42.8-18.4
	c0,0-28.4,15.3-44.2,11.3c0,0-11.2-11.9-10.5-19.4C438.5,971.9,574,984.8,691.1,699.6z"/>
<path class="st6" d="M866.1,728.2l46.7,9.2c0,0,27.8,199.3,202.7,327.8l-2.3,26l-38-27.9c0,0,23.2,30.4,38.9,36.1l-1.2,14.1
	c0,0-16.3-9.7-21-16.9c0,0,5.7,21,19.8,26.7v24.8C1111.6,1148.1,899.8,1034.2,866.1,728.2z"/>
<path class="st8" d="M866.1,728.2l34.4-22.4l41.5,6.6l-29.3,25l0,0C896.7,739.3,880.4,736.1,866.1,728.2L866.1,728.2z"/>
<path class="st8" d="M691.1,699.6l21.5-18.6l37,5.4l-10.2,16.2C739.5,702.6,708,710.5,691.1,699.6z"/>
<path class="st12" d="M836.1,1521.7l-129.5-42.9c0,0-35.2-251.8,36.7-267.4s94.6,38.2,101,57S836.1,1521.7,836.1,1521.7z"/>
<g>
	<defs>
		<path id="SVGID_00000152234209697837816520000008711303181315373500_" d="M836.1,1521.7l-129.5-42.9c0,0-35.2-251.8,36.7-267.4
			s94.6,38.2,101,57S836.1,1521.7,836.1,1521.7z"/>
	</defs>
	<clipPath id="SVGID_00000015356319273291979480000014322487078749571243_">
		<use xlink:href="#SVGID_00000152234209697837816520000008711303181315373500_"  style="overflow:visible;"/>
	</clipPath>
	<g style="clip-path:url(#SVGID_00000015356319273291979480000014322487078749571243_);">
		<path class="st14" d="M844.1,1223.8l2.5,304.1c0,0-29.8-2-31.8-3.7s-1.8-16.3,0.2-46s-7.5-248-7.5-248s-4.9,302.5-7.7,304.2
			s-19.6-9.1-19.6-9.1s-10.4-272.2-7.3-283.1l-10.6,56.5l12.5,237.1l-32-23.6l-3.6-252.9l-13,271.3l-27.8-14.1l6.7-289.1
			C705.9,1221.8,778.8,1224.9,844.1,1223.8z"/>
	</g>
</g>
<path class="st7" d="M670.8,1330.8c0.7-54.8,6.7-105.9,36.6-131.7c71-61.5,157.5,3.9,179,73.7c15.4,49.9,11.1,253.1,11.1,253.1
	s-4.4,4.9-18,7c-2,0.3-12.3-17.3-14.3-23c-11.7-0.1-12.9,15.4-12.9,15.4s-0.1-197.3-4.5-229.3c-5.6-40.1-35.3-69.5-65-73.4
	c-51.7-6.7-67,37.9-71,71c-5.8,48.9-5,185.1-5,185.1s-1.6,1.4-11.5,1.3c-3.7,0-15.2-16.6-16.5-19.5c-3.9-0.8,1.4,7.9-2.2,4.2
	C676.5,1464.8,669.7,1412.3,670.8,1330.8z"/>
<path class="st6" d="M695.7,1202.1c68.8-61.5,152.4-0.8,173.2,68.9c14.9,49.9,10.5,261.9,10.5,261.9c-29.4,5-43.3-11.2-43.3-11.2
	s-0.4-190.8-4.7-222.8c-5.3-40.1-34.1-69.5-62.8-73.3c-50-6.7-66.4,35.8-70.2,69c-5.7,48.9-3.2,185.6-3.2,185.6s-19.4-0.5-33-15.6
	c0,0-3-49.3-1.9-130.8C661,1278.9,666.9,1227.9,695.7,1202.1z"/>
<path class="st7" d="M664.9,1043.2c-1.6-4-0.1-8.5,3.5-10.8c121.7-75.5,223-15.2,253.7,17.2c10,10.6,10,19.7,8.7,39.6l-2.8,53.2
	c-0.3,5.4-3.2,10.3-7.7,13.2l-9.1,5.8l-5.8-14.7l-216.3-42.1L664.9,1043.2z"/>
<path class="st6" d="M911.2,1161.4l3.3-61.7c1.4-19.9,1.3-29-8.7-39.6c-30.8-32.4-107.9-88.7-237.5-26.7c-3.7,1.8-5.8,5.7-5.3,9.7
	l8.2,61.4c0.8,6.3,5.5,11.3,11.7,12.5L911.2,1161.4z"/>
<path class="st12" d="M919.3,1123.3c7.6-6.3,10.4-16.7,7-26c-20.7-56.3-86.6-17.5-86.6-17.5l-51.8-16c-79.2-46.1-155-20.4-155-20.4
	l147.6,42.6c12.7,3.7,56.8,17.2,56.8,17.2C875.6,1147.2,904.6,1135.5,919.3,1123.3z M880.8,1117.7c-16.2-1.4-23.6-10.3-26.3-17
	c-1.5-3.9,0-11.3,3.7-13.3c29.2-16,43.6,6.5,46.3,10.4C907.4,1102,906.5,1119.9,880.8,1117.7L880.8,1117.7z"/>
<path class="st15" d="M919.1,1128.4c7.6-6.3,10.4-16.7,7-26c-20.7-56.3-86.6-17.4-86.6-17.4l-51.8-16
	c-79.2-46.1-154.7-25.5-154.7-25.5s134.7,44.1,147.4,47.7s56.8,17.2,56.8,17.2C875.4,1152.3,904.4,1140.6,919.1,1128.4z
	 M880.6,1122.1c-16.2-1.4-23.6-9.5-26.2-16.2c-1.5-3.9-4.1-9.4,3.7-13.3c29.8-14.8,44.5,5.4,46.3,10.4
	C906,1107.8,906.2,1124.2,880.6,1122.1L880.6,1122.1z"/>
<path class="st12" d="M826.1,1037.2c0,0-37.8,26.4-48.7,33.8s-125.5,90.8-125.5,90.8s78.3-3.7,139.4-72l44.3-31.2
	c0,0,74.7,16.7,77-43.3c0.4-9.8-5.5-18.8-14.6-22.5C880.2,985.8,849,983.6,826.1,1037.2z M891.8,1023c-1.8,7.2-8.2,29.1-40.9,22.8
	c-4.1-0.8-7.8-7.3-7.6-11.5c0.5-7.2,5-17.2,20-23.5C887,1000.8,893,1018,891.8,1023z"/>
<path class="st15" d="M830.2,1040c0,0-37.8,26.4-48.7,33.8s-129.6,88-129.6,88s82.4-0.8,143.5-69.1l44.3-31.2c0,0,74.7,16.7,77-43.3
	c0.4-9.9-5.5-18.9-14.7-22.5C884.3,988.7,853.1,986.5,830.2,1040z M895.8,1024.4c-0.3,4.8-8.5,32-40.8,24.2
	c-6.5-1.6-7.8-7.3-7.6-11.5c0.5-7.2,5-17.2,19.9-23.5C891.1,1003.6,896.2,1017.7,895.8,1024.4L895.8,1024.4z"/>
<circle class="st12" cx="791" cy="1080.6" r="5.8"/>
<path class="st5" d="M713.1,594c0,0,24.5,56.1,20.8,76.1L723.5,694l-53.4-73.8L713.1,594z"/>
<path class="st8" d="M678.8,629.2l34.4-35.2c0,0-34.7-3.3-44,0L634,625.4L678.8,629.2z"/>
<path class="st6" d="M683.7,624.9c0,0,41,48.6,39.9,69.2c0,0-22.6,5.4-32.4,0c0,0-46.9-63.6-57.2-68.7
	C634,625.4,649.3,620.3,683.7,624.9z"/>
<path class="st7" d="M900.5,638.4c0,0-91.8-28.5-178.1-13.7l-5.7,9.9l100.5,25.1l79.5,4.3L900.5,638.4z"/>
<path class="st6" d="M897.7,652.7c-28.8-9.8-58.5-16.4-88.8-19.8c-34.2-3.7-56.3-3.6-92.2,1.7l14.7,41.5c0,0,135,6.5,156.2,23.7
	S897.7,652.7,897.7,652.7z"/>
<path class="st6" d="M1173.3,516.5l-14.3,59.9c0,0,13.5,15.3,29.1,13.6c0,0,26.3-41.3,26.8-56.4
	C1214.9,533.5,1204.6,519.4,1173.3,516.5z"/>
<path class="st16" d="M1092.7,684.6c-2.3-3.2-1.7-7.6,1.2-10.1c3.9-3.3,8.7-7.7,10.3-10.2c2.8-4.5,24.1,27.6,23,34.9
	s-13.9,13.3-16.8,12.2C1108.2,710.6,1099.7,694.3,1092.7,684.6z"/>
<path class="st16" d="M1187.7,781.2c-2.3-3.2-1.7-7.6,1.2-10.1c3.9-3.3,8.7-7.7,10.3-10.2c2.8-4.5,24.1,27.6,23,34.9
	s-13.9,13.3-16.8,12.2C1203.1,807.3,1194.6,791,1187.7,781.2z"/>
<path class="st16" d="M1116.2,904c-2.2-2.9-1.7-7.1,1.1-9.4c3.6-3.1,8.1-7.2,9.5-9.5c2.6-4.2,22.6,25.6,21.6,32.4
	s-12.8,12.4-15.6,11.5C1130.7,928.1,1122.7,913,1116.2,904z"/>
<path class="st16" d="M1106.1,846.3c-2.8-3.8-2.2-9.1,1.4-12.2c4.7-4.1,10.4-9.3,12.3-12.4c3.3-5.4,29.2,33.1,27.9,41.9
	s-16.6,16.1-20.1,14.8C1124.9,877.5,1114.5,858,1106.1,846.3z"/>
<path class="st16" d="M1128.6,754.8c-1.5-2.1-1.2-5,0.8-6.7c2.6-2.2,5.8-5.1,6.8-6.8c1.9-3,16,18.3,15.2,23.2s-9.2,8.8-11.2,8.1
	C1138.9,772.1,1133.2,761.3,1128.6,754.8z"/>
<path class="st16" d="M1003.8,821.4c-1.9-2.4-1.8-5.8,0.3-8c2.9-2.9,6.4-6.6,7.5-8.7c1.9-3.7,20.6,20.2,20.2,26
	s-10.1,11.3-12.5,10.6C1017.5,840.8,1009.8,828.6,1003.8,821.4z"/>
<path class="st16" d="M1328.7,863.8c-2.6-2.9-2.5-7.3,0.1-10.1c3.5-3.7,7.8-8.5,9-11.1c2.3-4.7,26.6,24.6,26.3,31.9
	s-12.2,14.5-15.2,13.8C1346.6,887.7,1336.5,872.6,1328.7,863.8z"/>
<path class="st8" d="M832.6,824c-19-11.3-42.2-12.8-63.1-5.4c-17.9,6.3-39.6,19.2-46.6,45.3c-12.6,46.7,12.5,85.2,57.2,94.2
	s86.9-32,86.8-65.8C866.8,867.5,858.8,839.5,832.6,824z"/>
<path class="st6" d="M820.6,823.4c-19-11.3-42.2-12.8-63.1-5.4c-17.9,6.3-39.6,19.2-46.6,45.3c-12.6,46.7,12.5,85.2,57.2,94.2
	s86.9-32,86.8-65.8C854.8,867,846.8,838.9,820.6,823.4z"/>
<path class="st9" d="M808.3,837.4c-14.8-7.8-32.5-8.1-48-1.8c-13.3,5.5-29.3,16-33.6,36c-7.8,35.8,12.7,64,46.8,69.2
	s64.6-27.5,63.2-53C835.8,869.1,828.7,848.2,808.3,837.4z"/>
<polygon class="st6" points="789.5,828.9 793.4,945.7 774.2,945.9 769.3,829.2 "/>
<polygon class="st6" points="840.2,891.1 723.5,897.6 722.9,878.4 839.5,870.9 "/>
<path class="st5" d="M1176.7,510c0,0-40.8,45.4-113.9,81.3c-81.8,40.2-74.8,48.4-87.4,52.2L949.5,702l215.9-118.2L1176.7,510z"/>
<path class="st17" d="M1188.1,590l26.8-56.4l31.3-17.1c0,0-21.5,48.5-31.3,59.9L1188.1,590z"/>
<path class="st8" d="M1214.9,533.5c0,0-33.2-11.2-41.5-17.1l33.2-15.1l39.6,15.1C1246.1,516.5,1237.3,529.2,1214.9,533.5z"/>
<path class="st6" d="M886.1,638.3l-7.7,78.8c0,0,19.9,17.1,39.5,12.1c0,0,26.2-57.2,24.1-76.6C941.9,652.7,926.4,636.5,886.1,638.3z
	"/>
<path class="st5" d="M917.9,729.3l24.1-76.6l36.7-27.3c0,0-18.7,65.6-29.1,81.8L917.9,729.3z"/>
<polygon class="st6" points="1066.6,1093.8 1031.7,1583.3 971.5,1564.5 998.8,1033.2 "/>
<path class="st6" d="M1496.8,851.8c0,0-280.6-48-374-245.4l12.7-8.2c0,0,4.5-5.2,12.2,10.4c9.6,19.2,101,151.4,353.5,231.4
	L1496.8,851.8z"/>
<path class="st18" d="M546.4,1465.1c16.2-34.3-8.1-47.4-8.5-56.7c0,0,31.8,13.1,29.3,37.9l3.2-18.5c1.2-6.6,1.1-13.3-0.2-19.8
	c-2.9-14.6-0.6-29.7,6.5-42.7c0,0,8.5,68,21.1,67.4c0,0-4.5-23.1,5.9-32.6c0,0,4.3,27,16.8,51.6
	C636.7,1483.2,542.3,1483.1,546.4,1465.1z"/>
<path class="st18" d="M900.5,1552.5c0,0,11.8-65.4-0.3-77.2c0,0-14,52.1-25,55.3s-11.9-51.9-11.9-51.9s-24.4,33.2-15.3,52.8
	S900.5,1552.5,900.5,1552.5z"/>
<path class="st18" d="M884.7,1538.1c0,0,25.7-4.3,42.9-30c0,0-7.2,35.8-28.9,40.2C880.8,1552,884.7,1538.1,884.7,1538.1z"/>
<path class="st18" d="M1436.8,1484.3c0,0,15.4-30.3,9.7-42.3c0,0-14,29.1-20.2,29.7c-3.7,0.3-6.3-18.5-6.3-18.5s-5.6,23.4-1.4,29.5
	S1436.8,1484.3,1436.8,1484.3z"/>
<path class="st5" d="M1265.3,503.4c0,0-2.9,50.9-9.9,61.9l-36.9,18.1l-26.5-35.6l26.1-32.6l27.2-8.9L1265.3,503.4z"/>
<path class="st8" d="M1226.7,520.9l25.3-10.4l13.3-7c0,0-103.8,16.8-216.7-155.4l-16.6,77.2l173.2,95.7L1226.7,520.9z"/>
<path class="st6" d="M1048.7,348c0,0,21.6,134.3,178,172.9l-6.4,36l-1.7,26.5c0,0-87.9-39.2-151.3-109.7
	C1021.9,423.4,1039.6,373.5,1048.7,348z"/>
<path class="st11" d="M1154.6,547.2c0,0-32,47.4-115.7,62.2s-197-140.8-197-140.8l77.3-34.2l126.4-34.7l4.7,8.5
	c8.6,28.9,28.4,57.6,45.8,80.7C1113.5,512.3,1132.1,529,1154.6,547.2L1154.6,547.2z"/>
<path class="st10" d="M1154.6,547.2l-7.2,19.3c0,0-29.5,41.2-123.6,55.9l-8.3-15C1015.5,607.4,1102.5,608.6,1154.6,547.2z"/>
<path class="st16" d="M1020.8,483.8c-1.6-2.2-1.2-5.2,0.8-6.9c2.7-2.3,6-5.2,7-7c1.9-3,16.4,18.8,15.7,23.8s-9.5,9-11.5,8.3
	C1031.3,501.6,1025.5,490.4,1020.8,483.8z"/>
<path class="st16" d="M1051.8,486.8c-1.6-2.2-1.2-5.2,0.8-6.9c2.7-2.3,5.9-5.3,7-7c1.9-3,16.4,18.9,15.7,23.8s-9.5,9.1-11.5,8.3
	C1062.3,504.6,1056.5,493.4,1051.8,486.8z"/>
<path class="st16" d="M1024.5,560.5c-1.5-2-1.1-4.8,0.7-6.4c2.5-2.2,5.5-4.9,6.5-6.5c1.8-2.8,15.4,17.4,14.7,22.1s-8.8,8.5-10.6,7.8
	C1034.4,576.9,1028.9,566.6,1024.5,560.5z"/>
<path class="st16" d="M1033,458.7c-1-1.4-0.8-3.4,0.6-4.6c1.7-1.4,3.3-2.9,4.7-4.6c1.3-2,10.9,12.5,10.4,15.8s-6.3,6-7.6,5.5
	C1040,470.5,1036.1,463.1,1033,458.7z"/>
<path class="st16" d="M947.8,504.1c-1.4-1.6-1.3-4,0.2-5.5c2-2,4.3-4.5,5.1-5.9c1.3-2.5,14.1,13.8,13.8,17.8s-6.9,7.7-8.5,7.3
	C957.1,517.4,951.9,509,947.8,504.1z"/>
<path class="st16" d="M1067.5,530.8c-1.1-1.2-1-3.1,0.2-4.2c1.5-1.4,2.8-2.9,3.9-4.6c1-1.9,10.9,10.7,10.7,13.7s-5.3,6-6.6,5.6
	C1074.8,541.1,1070.7,534.6,1067.5,530.8z"/>
<path class="st7" d="M1048.7,348l-6.6-4.4c0,0-8.6,54.6-238.4,70.8l0,0l70.8,14.6l131.5-19.6l37.6-42.3L1048.7,348z"/>
<path class="st8" d="M1048.7,348c0,0-22.8,71.3-245,66.4l27.7,44.4c0,0,125.7,22.3,217.3-52.9V348z"/>
<path class="st8" d="M1038.8,609.5c0,0-105-18.4-192.3-166.9l-42.8-28.2l15.2,92.4l80.9,89.8l74.7,37.6l-7-5
	C967.4,629.2,1031,624,1038.8,609.5z"/>
<polygon class="st5" points="975.5,691.7 1029.2,675.8 1038.8,609.5 990.1,620.6 935.4,631.1 930.2,650.6 "/>
<path class="st6" d="M803.7,414.3c0,0,82,178.6,186.4,206.3l-8.3,39.2c0,0-23-2.6-38.6-15.2c0,0,23.5,20.4,34.5,21.4l-2.1,25.6
	c0,0-130-54.3-171.8-166.3c0,0-27.2,105.7-158.7,143.9l-9.5-22.2c0,0,15.8,2,30.4-12.8c0,0-21.6,9.9-34.2,6.2l-5.4-17.2
	c0,0,27.6,0,43.8-15.1c0,0-35.8,13.5-49.9,4.1l-2.8-13C617.3,599.2,690.4,624.8,803.7,414.3z"/>
<path class="st19" d="M1046,1502.4c0,0-0.8-29,33.4-51.8c0,0-35.8-101.9,50.1-125.4c118.3-32.5,133.7,70.2,133.7,70.2
	s-1.9-55.5,51.6-57.5c2.1-12.5,8.6-25.7,21.9-38.9c42.9-42.8,91.8,8.3,91.8,8.3c25.1-13.1,42.2-4,42.2-4
	c18.9,7.5,24.4,22.5,24.7,37.2c-11.7,114.9-94,128.8-94,128.8c-12.2,3.3-12.9,4.7-16,6.1c20.5,146.7-160.3,148.1-160.3,148.1
	c-105.7-6.1-119.4-45.6-145.7-60.9C1060,1551.1,1043.6,1532.6,1046,1502.4z"/>
<g>
	<defs>
		<path id="SVGID_00000174582913005102634080000002371534009789127606_" d="M1046,1502.4c0,0-0.8-29,33.4-51.8
			c0,0-35.8-101.9,50.1-125.4c118.3-32.5,133.7,70.2,133.7,70.2s-1.9-55.5,51.6-57.5c2.1-12.5,8.6-25.7,21.9-38.9
			c42.9-42.8,91.8,8.3,91.8,8.3c25.1-13.1,42.2-4,42.2-4c18.9,7.5,24.4,22.5,24.7,37.2c-11.7,114.9-129.4,122-129.4,122
			c-12.2,3.3-12.9,4.7-16,6.1c-16.5,17.7-36.4,31.9-58.6,41.6l-103.8,65.2c-26.2,11.8-81.9,2.4-108.3-12.9
			C1060,1551.1,1043.6,1532.6,1046,1502.4z"/>
	</defs>
	<clipPath id="SVGID_00000078011469453271251640000011846708099328232611_">
		<use xlink:href="#SVGID_00000174582913005102634080000002371534009789127606_"  style="overflow:visible;"/>
	</clipPath>
	<g style="clip-path:url(#SVGID_00000078011469453271251640000011846708099328232611_);">
		<path class="st21" d="M1478.5,1395.4c0,0,9.8-79.5-28-69.7c-27.8,7.2-49.1-16.5-67.3-10.2c-55.2,19-35.4,80.9-35.4,80.9
			s-32.9-58.5-107.7,51.4c-14.9,21.9,3.7-76.7-41.3-94.2c-21.2-8.2-74.2-23.7-119.3,97c-7.7,20.7-171.2-98.2,50.6-165.4
			c20.1-6.1,145.5,3.4,145.5,3.4s50.8-37.3,72-41.9s188.6,41.1,191.4,45.4S1478.5,1395.4,1478.5,1395.4z"/>
	</g>
</g>
</svg>
