<svg clip-rule="evenodd" fill-rule="evenodd" height="512" image-rendering="optimizeQuality" shape-rendering="geometricPrecision" text-rendering="geometricPrecision" viewBox="0 0 1706.66 1706.66" width="512" xmlns="http://www.w3.org/2000/svg" xmlns:xodm="http://www.corel.com/coreldraw/odm/2003"><g id="Layer_x0020_1"><g id="_1679626075008"><g fill="#a4a4a4"><path d="m89.54 1401.27c-15.38 0-25.21-16.95-17.08-30.37l83.85-138.37c10.1-16.69 35.7-10.34 37.05 9l203.38 3.75c-2.52-20.99 25.43-31.04 36.76-13.06l87.36 138.37c12.76 20.22-17.22 47.62-36.41 17.24h-375.5c-4.52 7.46-9.03 13.43-19.43 13.43z"/><path d="m653.28 1401.27c-15.38 0-25.2-16.96-17.08-30.37l83.85-138.37c9.18-15.19 32.09-11.63 36.46 5.4l204.15 1.45c3.19-17.84 26.86-22.59 36.6-7.16l87.35 138.37c13.97 22.11-19.42 44.21-34.22 20.71h-379.78c-3.95 6.45-10.22 9.97-17.33 9.97z"/><path d="m653.28 620.52c-15.38 0-25.2 16.96-17.08 30.37l83.85 138.37c9.18 15.19 32.09 11.63 36.46-5.4l204.15-1.45c3.19 17.84 26.86 22.59 36.6 7.16l87.35-138.37c13.97-22.11-19.42-44.21-34.22-20.71h-379.78c-3.95-6.45-10.22-9.97-17.33-9.97z"/></g><path d="m980.34 1262.91h-243.19c-11.04 0-20-8.97-20-20v-217.29c0-17.68 23.3-24.02 46.41-35.58-11.96-16.14-46.43-57.03-46.43-69.24v-141.91c0-11.04 8.96-20 20-20h243.17c11.04 0 20 8.96 20 20v464.02c.03 11.04-8.94 20-19.96 20z" fill="#b3b3b3"/><path d="m1530.97 496.93h-1355.28c-11.04 0-20-8.96-20-20v-99.04c0-11.04 8.96-20 20-20h87.71c0-22.51-5.46-53.87 20-53.87h146.64v-86c0-10.68 8.39-19.47 19.06-19.97 37.8-1.79 347.22-18.96 357.04-15.26 20.94 7.9 55.85 16.81 61.74 29.26l57.45 121.68 89.36-63.07c5.43-3.82 12.39-4.71 18.57-2.37l504.76 189.96c20.69 7.78 15.06 38.69-7.05 38.69z" fill="#b3b3b3"/><path d="m356.7 304.04h73.34v-11.96c131.93 56.98 119.2 37.4 100.7 108.2 8.45 7.43 21.63 19.44 8.69 34.23-15.94 18.22-33.93-3.16-44.33-12.28-13.17-11.54-2.94-32.44 3.39-56.68l-141.78-61.5zm215.56-111.81 44.54-2.11c24.05 42.26 63.38 99.37 106.74 114.42l81.22-30.21c24.66-9.19 38.63 28.31 13.94 37.5l-71.04 26.43c5.96 22.61 12.98 42.94 16.75 47.6 19.39 20.6-9.13 45.74-27.5 29-12.29-11.21-22.66-44.27-29.83-73.72-60.48-22.24-109.66-100.82-134.82-148.9zm428.74 88.09c11.13-7.86 19.79-16.74 32.26-12.04l10.44 3.93 26.98 40.44c9.81 14.56-5.2 31.95-17.52 54l48.48 36.35c21.3 15.98-3.11 47.65-24 31.98-86.33-64.7-82.16-47.09-46.98-110.06l-29.66-44.62z" fill="#a4a4a4"/><path d="m89.55 620.52c-15.38 0-25.21 16.95-17.08 30.37l83.85 138.37c10.1 16.69 35.7 10.34 37.05-9l203.38-3.75c-2.52 20.99 25.43 31.04 36.76 13.06l87.36-138.37c12.76-20.22-17.22-47.62-36.41-17.24h-375.5c-4.52-7.46-9.03-13.43-19.43-13.43z" fill="#a4a4a4"/><path d="m416.6 1262.91h-243.19c-11.04 0-20-8.97-20-20 0-76.22-9.1-54.7 48.33-105.65-20.35-16.16-48.32-32.42-48.32-48.04l-.01-310.33c0-11.04 8.96-20 20-20h243.19c11.04 0 20 8.96 20 20v464.02c0 11.04-8.96 20-20 20z" fill="#b3b3b3"/><path d="m195.66 758.9h42.15l28.2 84.6c77.64-13.92 57.68-21.06 103.92 35.3 4.21 5.12 5.58 11.98 3.7 18.34l-33.63 113.54 14.98 104.8c3.74 26.11-35.86 31.8-39.59 5.66-2.35-16.47-17.63-108.66-15-117.64l31.87-107.57-16.93-20.65-36.44 6.52c3.93 11.69 9.41 21.99 5.34 31.63l-44.52 105.42c-10.23 24.3-47.09 8.75-36.83-15.57l41.58-98.43-48.8-145.94z" fill="#a4a4a4"/><path d="m1217.02 1401.27c-15.38 0-25.22-16.94-17.08-30.37l83.85-138.37c9.39-15.52 32.87-11.34 36.65 6.12h204.09c3.76-17.34 26.89-21.57 36.45-6.43l87.36 138.37c14.15 22.39-19.81 43.49-33.81 21.35l-5.33-8.45h-370.12c-5.28 8.72-9.38 17.78-22.06 17.78z" fill="#a4a4a4"/><path d="m1217.01 620.52c-15.38 0-25.22 16.94-17.08 30.37l83.85 138.37c9.39 15.52 32.87 11.34 36.65-6.12h204.09c3.76 17.34 26.89 21.57 36.45 6.43l87.36-138.37c14.15-22.39-19.81-43.49-33.81-21.35l-5.33 8.45h-370.12c-5.28-8.72-9.38-17.78-22.06-17.78z" fill="#a4a4a4"/><path d="m1636.31 660.52h-1565.95c-28.96 0-52.52-23.55-52.52-52.51v-33.53c0-64.81 52.73-117.54 117.54-117.54h1419.89c26.34 0 19.32 32.01 18.4 47.52l73.2-8.39c27.46-3.15 41.93 54.63 41.93 78.42v33.54c.02 28.92-23.53 52.49-52.49 52.49z" fill="#4a5254"/><path d="m1130.32 660.52h-56.5c15.42-15.46 111.54-115.44 121.5-118.89l63.56-22c24.81-8.63 38 29.17 13.07 37.8l-59.17 20.48-82.46 82.6z" fill="#a4a4a4"/><path d="m649.17 456.94h70.28l38.15 26.35c12.59 8.91 8.26 35.12 8.26 58.99 48.16-1.37 71.48-9.59 75.54 19.81l61.24-29.09c23.83-11.28 40.92 24.83 17.16 36.12-86.26 40.98-108.84 64.76-116.13 12.09-87.49 2.5-77.8 12.36-77.8-71.51l-76.69-52.76z" fill="#a4a4a4"/><path d="m421.47 456.94h40.39l-11.22 90.94c-1.35 8.7-8.22 15.51-16.96 16.76-83.24 11.9-52.48 1.94-126.23 39.47-23.32 11.86-41.81-23.61-18.16-35.65 74.25-37.82 45.72-30.22 124.07-41.35z" fill="#a4a4a4"/><path d="m1544.07 1262.91h-243.2c-11.04 0-20-8.97-20-20v-464.02c0-11.04 8.97-20 20-20h243.2c25.47 0 20 31.38 20 53.95 0 11.88-38.62 61.97-50.03 78.43 24.99 11.53 50.03 17.48 50.03 35.89v315.74c.02 11.04-8.95 20-20 20z" fill="#b3b3b3"/><path d="m1564.07 1041.98v46.54c-34.34 20.63-73.27 45.56-78.71 53.61-14.63 21.6-47.99-.48-33.12-22.45 12.48-18.44 73.37-55.56 111.83-77.69z" fill="#a4a4a4"/><path d="m1280.88 854.04c0-17.36-2.6-76.41 2.86-85.45l65.78 134.93 83.41 21.68c6.08 1.59 11.08 5.94 13.47 11.78l30.2 73.71c10.02 24.4-27.06 39.48-37.01 15.15l-26.41-64.44-18.07-4.7c-10.31 32.93-11.69 17.53 10.1 64.73 11.07 23.97-25.26 40.69-36.33 16.76-28.51-61.64-27.63-43.27-12.52-91.56-16.72-4.35-33.09-5.54-38.83-17.38l-36.65-75.2z" fill="#a4a4a4"/><path d="m1686.54 1525.15h-1666.42c-11.04 0-20-8.97-20-20v-123.87c0-11.04 8.96-20 20-20h1666.42c11.04 0 20 8.97 20 20v123.87c0 11.03-8.96 20-20 20z" fill="#4a5254"/><path d="m827.01 758.9h43.98c33.71 73.54 31.43 53.68 28.32 134.59-1.61 42.17-1.87 48.65 37.13 109.76 14.25 22.32-19.63 43.58-33.72 21.51-41.37-64.85-44.98-81.41-43.69-124.15-53.11-27.52-39.37 22.45-69.49 8.02-31.65-15.17 7.15-73.32 70.65-51.05.04-8.09-.05-17.06-.36-27.13l-32.83-71.55z" fill="#a4a4a4"/><path d="m717.16 1196.69v-47.02l103.15-63.91c4.56-2.92 10.08-3.86 15.35-2.61l58.27 13.76c25.61 6.05 16.44 44.96-9.2 38.91l-50.05-11.83-117.52 72.69z" fill="#a4a4a4"/></g></g></svg>