<?xml version="1.0" encoding="iso-8859-1"?>
<!-- Generator: Adobe Illustrator 19.0.0, SVG Export Plug-In . SVG Version: 6.00 Build 0)  -->
<svg version="1.1" id="Capa_1" xmlns="http://www.w3.org/2000/svg" xmlns:xlink="http://www.w3.org/1999/xlink" x="0px" y="0px"
	 viewBox="0 0 512 512" style="enable-background:new 0 0 512 512;" xml:space="preserve">
<path style="fill:#F23051;" d="M377,31c-60.901,0-100.6,42.299-121,80.4C235.6,73.299,195.601,31,135,31C57.9,31,0,91.599,0,172
	c0,29.7,8.401,55.199,23.101,78.6C28.2,258.699,34.2,266.8,40.8,274.9c20.7,24.899,47.401,48.9,77.1,75.3
	c38.401,34.199,82.2,73.198,125.4,125.099c3.001,3.6,8.2,5.7,12.7,5.7c4.2,0,9.401-2.1,12.4-5.7
	c43.2-52.2,87.001-90.901,125.4-125.099c28.801-25.501,54.901-48.9,75.3-72.902c6.599-8.099,12.9-16.199,18.3-24.598
	c15.3-24.001,24.6-50.101,24.6-80.7C512,91.599,453.8,31,377,31z"/>
<path style="fill:#D92C48;" d="M512,172c0,30.599-9.3,56.699-24.6,80.7c-5.4,8.399-11.7,16.5-18.3,24.598
	c-20.4,24.001-46.5,47.401-75.3,72.902c-38.399,34.199-82.2,72.9-125.4,125.099c-2.999,3.6-8.2,5.7-12.4,5.7V111.4
	C276.4,73.299,316.099,31,377,31C453.8,31,512,91.599,512,172z"/>
<path style="fill:#53565C;" d="M300.376,324.346l-13.652-40.942c-2.622-7.866,1.626-16.362,9.478-18.97
	c7.91-2.651,16.348,1.626,18.97,9.478l13.652,40.942c2.622,7.866-1.626,16.362-9.478,18.97
	C311.439,336.46,302.979,332.156,300.376,324.346z"/>
<g>
	<path style="fill:#5C5F66;" d="M187.853,333.823c-7.852-2.607-12.1-11.104-9.478-18.97l13.682-41.03
		c2.622-7.852,11.074-12.114,18.97-9.478c7.852,2.607,12.1,11.104,9.478,18.97l-13.682,41.03
		C204.22,332.156,195.76,336.46,187.853,333.823z"/>
	<path style="fill:#5C5F66;" d="M143.849,248.35c-5.859-5.859-5.859-15.352,0-21.211l38.145-38.145
		c5.859-5.859,15.352-5.859,21.211,0s5.859,15.352,0,21.211L165.06,248.35C159.201,254.209,149.709,254.209,143.849,248.35z"/>
</g>
<g>
	<path style="fill:#53565C;" d="M334.097,245.493l-18.721-56.147c-2.622-7.866,1.626-16.362,9.478-18.97
		c7.954-2.666,16.362,1.611,18.97,9.478l18.721,56.147c2.622,7.866-1.626,16.362-9.478,18.97
		C345.16,257.606,336.7,253.303,334.097,245.493z"/>
	<path style="fill:#53565C;" d="M393.994,240.205c-5.859-5.859-5.859-15.352,0-21.211l30-30c5.859-5.859,15.352-5.859,21.211,0
		s5.859,15.352,0,21.211l-30,30C409.345,246.065,399.854,246.065,393.994,240.205z"/>
</g>
<g>
	<path style="fill:#5C5F66;" d="M88.376,234.346l-15-45c-2.622-7.866,1.626-16.362,9.478-18.97
		c7.925-2.666,16.348,1.611,18.97,9.478l15,45c2.622,7.866-1.626,16.362-9.478,18.97C99.439,246.459,90.979,242.156,88.376,234.346z
		"/>
	<path style="fill:#5C5F66;" d="M258.401,303.699c-0.901,0.3-1.5,0.601-2.401,0.3c-7.2,1.5-15.399-2.699-17.5-9.6l-15-45
		c-2.701-7.8,1.5-16.5,9.3-18.9c8.101-2.699,17.5,1.501,19.9,9.3l3.3,9.901l12.7,35.099
		C271.399,292.599,266.201,301.3,258.401,303.699z"/>
</g>
<path style="fill:#7F838C;" d="M487.4,252.7c-5.4,8.399-11.7,16.5-18.3,24.598c-40.8-25.199-77.701-55.8-133.801-6.899
	C315.5,287.8,291.7,307.299,256,307.899c-0.601,0.3-1.5,0.3-2.401,0.3c-37.2,0-61.3-20.099-81.7-37.8
	c-53.399-46.8-90.599-19.501-131.1,4.501c-6.599-8.1-12.599-16.201-17.698-24.3c47.1-26.1,93.3-68.701,168.6-2.701
	c18.9,16.199,36.099,30.3,61.899,30.3c0.901,0,1.8,0,2.401-0.3c24.6-0.601,41.499-14.399,59.801-30.3
	C395.3,178.299,439.999,226.3,487.4,252.7z"/>
<path style="fill:#53565C;" d="M258.401,303.699c-0.901,0.3-1.5,0.601-2.401,0.3v-54.3l12.7,35.099
	C271.399,292.599,266.201,301.3,258.401,303.699z"/>
<path style="fill:#757982;" d="M487.4,252.7c-5.4,8.399-11.7,16.5-18.3,24.598c-40.8-25.199-77.701-55.8-133.801-6.899
	C315.5,287.8,291.7,307.299,256,307.899v-30c24.6-0.601,41.499-14.399,59.801-30.3C395.3,178.299,439.999,226.3,487.4,252.7z"/>
<g>
</g>
<g>
</g>
<g>
</g>
<g>
</g>
<g>
</g>
<g>
</g>
<g>
</g>
<g>
</g>
<g>
</g>
<g>
</g>
<g>
</g>
<g>
</g>
<g>
</g>
<g>
</g>
<g>
</g>
</svg>
