<svg id="b05239f6-3c5b-4510-8407-7933cccdaa6d" data-name="Layer 1" xmlns="http://www.w3.org/2000/svg" xmlns:xlink="http://www.w3.org/1999/xlink" viewBox="0 0 2000 2000"><defs><style>.aa22e67a-7e3d-4e56-aabe-cd6b50738649{fill:none;}.bb83f5ca-2859-4875-935c-8863165410e6{fill:#f5f0eb;}.ad7d26d1-6741-450d-8d57-1827bffce22d{fill:#aed76a;}.bb60570c-b899-44ad-9db4-301a2490f291{clip-path:url(#af05893e-f35d-4cc3-9a61-279976f58169);}.b2dcd4a6-42fb-408e-bf23-7bb74b8ffd67{fill:#feceae;}.bb3fb378-f2d5-4d8b-8b42-df07815f6de2{fill:#584c46;}.b011443b-3e9a-4cb8-bda4-cfe2f1bca9fe{fill:#79685e;}.a80491ac-107a-4db4-abd9-5dda0772dbaf{fill:#a59792;}.f85a7706-7f9a-48f0-8353-60b452a704ea{fill:#387bad;}.bea556f2-feff-4a9a-995a-a2a2649694f7{fill:#4e8bc1;}.a68af9b3-5c73-473b-b4d5-a6247284ece8{fill:#4c413c;}.af96eb3f-58c4-4e7e-b069-51233f3b06e6{fill:#84766f;}.ea3ccfd6-0369-4bf4-a42a-d476c8565f6e{fill:#6cacd3;}.be982956-2a02-4e17-a929-443eaa6ab3ea{fill:#3786b7;}.be727192-9915-412d-ad3f-c8293d2c8112{fill:#8bcfea;}.b8de4e12-17e2-41d5-905f-9de31a8da7bb{fill:#54a0c6;}.b2a2daf1-142d-4052-aa74-350924210706{fill:#5597c9;}.b7fd61d2-42be-4f70-a386-52c477e1ca11{fill:#c6c6c6;}.f37b1b33-f177-43c4-beb2-b6e089d10aa2{fill:#9e9490;}.bce9c9e9-c580-4376-8f80-dfb5adaecfe7{fill:#d8d8d8;}.a767aee5-8eec-4d85-9d5f-ae7b7856e548{fill:#969696;}.bd38d82e-aad7-4551-bedc-d38f1c74633c{fill:#fff;}.b0257677-5341-4f8c-a7d1-4ce9399d421a{fill:#7c7c7c;}.beb6d0a4-5564-49fa-9ab2-d594193b52d6{fill:#8e827d;}</style><clipPath id="af05893e-f35d-4cc3-9a61-279976f58169"><path class="aa22e67a-7e3d-4e56-aabe-cd6b50738649" d="M1058.53,1144.39c74.55-7.84,117.73-47.58,417.82,70.07,89.77,35.2,251.38,140.93,215.61,251.33-73.84,227.85-433,272-734.33,248.5s-266.58-111.69-471.56-116c-78.47-1.66-245.59-128-155.62-263.66,46.13-69.55,361.16-270.16,689.19-188.8C1188.79,1187.78,1013.07,1149.17,1058.53,1144.39Z"/></clipPath></defs><path class="bb83f5ca-2859-4875-935c-8863165410e6" d="M1528.33,450.62h-9.75v-.24h9.79A.43.43,0,0,0,1528.33,450.62Z"/><path class="ad7d26d1-6741-450d-8d57-1827bffce22d" d="M1058.53,1144.39c74.55-7.84,117.73-47.58,417.82,70.07,89.77,35.2,251.38,140.93,215.61,251.33-73.84,227.85-433,272-734.33,248.5s-266.58-111.69-471.56-116c-78.47-1.66-245.59-128-155.62-263.66,46.13-69.55,361.16-270.16,689.19-188.8C1188.79,1187.78,1013.07,1149.17,1058.53,1144.39Z"/><g class="bb60570c-b899-44ad-9db4-301a2490f291"><path class="b2dcd4a6-42fb-408e-bf23-7bb74b8ffd67" d="M1122.94,1320s156.38,188.69,278.93,84.78,292.6-183.61,390.64-84.78S1703.66,1654.7,1529,1665.42s-408.72,26.38-581.31-246.53S1122.94,1320,1122.94,1320Z"/></g><path class="bb3fb378-f2d5-4d8b-8b42-df07815f6de2" d="M853.75,1464.82s-178.91-61.55-257.16-118.7V954.87s278.71,4.4,269,61.55S853.75,1464.82,853.75,1464.82Z"/><path class="b011443b-3e9a-4cb8-bda4-cfe2f1bca9fe" d="M854.71,1061.32l-1,403.5,474.93-169.69,19.18-355.49S898.89,975.52,854.71,1061.32Z"/><path class="b011443b-3e9a-4cb8-bda4-cfe2f1bca9fe" d="M1213.27,303.42,603,375.41l-5.31,28.13,617.49-74.91S1224.19,318.48,1213.27,303.42Z"/><path class="b011443b-3e9a-4cb8-bda4-cfe2f1bca9fe" d="M633.35,294a11,11,0,0,1,2.33-6.7,25.5,25.5,0,0,0,2.83,1.31c3.11,1.24,6.65,1.23,10,1.14,1,0,2-.1,3.06-.14h.62a12.53,12.53,0,0,0,8.33-1.07,11.55,11.55,0,0,1,.53,3.72L648.87,939.09c-.08,4.14-2.25,7.86-5.51,9.22-17.26,7.23-22.19-3.37-23.49-8.08a11.82,11.82,0,0,1-.41-3.36Z"/><polygon class="b011443b-3e9a-4cb8-bda4-cfe2f1bca9fe" points="1277.68 460.6 755.28 570.8 758.11 542.31 1277.68 434.51 1277.68 460.6"/><path class="b011443b-3e9a-4cb8-bda4-cfe2f1bca9fe" d="M859.42,575.64l-264-75.57s-4.72-25.83,12.3-24.66S866.8,546.92,866.8,546.92Z"/><path class="a80491ac-107a-4db4-abd9-5dda0772dbaf" d="M755.15,543.71a3.84,3.84,0,0,1,5.81-.3c1.87,2,3.68,6.78,1.95,14.74-3.1,14.33-6.18,13.36-7.85,12.79C752.9,570.2,749.08,551.33,755.15,543.71Z"/><path class="a80491ac-107a-4db4-abd9-5dda0772dbaf" d="M865.16,574.33a5.53,5.53,0,0,1-7.77.57c-2.53-2.37-5-8-2.77-17.7,4-17.4,8.13-16.35,10.37-15.72C867.89,542.3,873.21,564.92,865.16,574.33Z"/><polygon class="b011443b-3e9a-4cb8-bda4-cfe2f1bca9fe" points="1218.43 391.4 1389.83 466.67 1371.9 489.29 1153.07 391.4 1218.43 391.4"/><path class="bb3fb378-f2d5-4d8b-8b42-df07815f6de2" d="M719.48,483.23s-115.66,136-117.23,144.58,4.3,23.05,19.15,19.93,59.4-74.64,72.68-89.1,50.41-67.43,50.41-67.43Z"/><path class="a80491ac-107a-4db4-abd9-5dda0772dbaf" d="M744.49,491.21s-9.57,6.67-17.39,1.39-8-7.42-7.62-9.37,10-10.94,21.1-2C740.58,481.27,747,485.72,744.49,491.21Z"/><path class="a80491ac-107a-4db4-abd9-5dda0772dbaf" d="M1375.11,489.89a3.84,3.84,0,0,1-4.88-3.15c-.34-2.74,1-7.65,7-13.1,10.91-9.8,12.84-7.22,13.86-5.77C1392.44,469.73,1384.5,487.27,1375.11,489.89Z"/><path class="f85a7706-7f9a-48f0-8353-60b452a704ea" d="M683.47,359.36s18.51,177,175.95,189.9Z"/><path class="b011443b-3e9a-4cb8-bda4-cfe2f1bca9fe" d="M1136.88,243.05a11,11,0,0,1,2.46-6.65,29.1,29.1,0,0,0,2.8,1.36c3.09,1.29,6.63,1.35,9.95,1.32,1,0,2-.06,3.06-.08h.62a12.46,12.46,0,0,0,8.35-.92,11.9,11.9,0,0,1,.46,3.73l-24,646.56c-.15,4.14-2.39,7.81-5.67,9.12-17.39,6.91-22.13-3.78-23.34-8.51a11.89,11.89,0,0,1-.35-3.37Z"/><path class="a80491ac-107a-4db4-abd9-5dda0772dbaf" d="M1163.75,237.6c1.9,1.13,1.73,4.06,0,5.5-2,1.69-6.31,1.23-14,1.23-16.48,0-13.13-7-11.76-8C1142,233.56,1155.13,232.45,1163.75,237.6Z"/><path class="bea556f2-feff-4a9a-995a-a2a2649694f7" d="M1347.86,448.45,859.42,549.26s-126-27-175.95-189.9c0,0,416.61-31.66,468.19-56.27,0,0,23-1.47,29,29S1347.86,448.45,1347.86,448.45Z"/><path class="f85a7706-7f9a-48f0-8353-60b452a704ea" d="M1087.77,340.31s49.7,83.13,126.77,111.66C1214.54,452,1112.13,430.28,1087.77,340.31Z"/><path class="f85a7706-7f9a-48f0-8353-60b452a704ea" d="M970.86,347.6s40,88.19,113.4,125.21C1084.26,472.81,984.94,439.74,970.86,347.6Z"/><path class="f85a7706-7f9a-48f0-8353-60b452a704ea" d="M838.91,369.13s40,88.19,113.4,125.21C952.31,494.34,849.22,472.81,838.91,369.13Z"/><path class="f85a7706-7f9a-48f0-8353-60b452a704ea" d="M1347.86,448.45s-15.32,13.19-49.64,21.1-412.48,97.89-438.8,79.71Z"/><path class="bb3fb378-f2d5-4d8b-8b42-df07815f6de2" d="M1275.5,1171.05s-28.23-97.71-32.54-131.18S1234.9,990,1234.9,990l-70.31,224.5s-41.65-158.85-41.65-202.61c0-25.37-57.63,64.47-57.63,69.16s-3.91,142.24-3.91,142.24-6.69-34.34-10.55-38.3c-16.8-17.19-29.26-128.17-29.26-128.17L977,1248.53s-12.89-87.33-17.19-91.63-10.18-29.85-14.46-48-18-38.16-18-38.16l-27.16,202.17s-8.4-37.44-15.83-61.27-41.61-145.37-41.61-145.37l122.89-68.38s315.21-78.94,313.52-78.54,6.36,187.6,6.36,187.6Z"/><path class="a80491ac-107a-4db4-abd9-5dda0772dbaf" d="M599.93,376.12a3.85,3.85,0,0,1,5.84.21c1.71,2.19,3.1,7.12.67,14.95-4.36,14.09-7.36,12.86-9,12.13C595.35,402.48,593.17,383.23,599.93,376.12Z"/><path class="a80491ac-107a-4db4-abd9-5dda0772dbaf" d="M660.1,288c1.93,1.1,1.81,4,.15,5.5-2,1.73-6.29,1.35-14,1.49-16.48.3-13.27-6.75-11.91-7.73C638.31,284.37,651.39,283,660.1,288Z"/><path class="a68af9b3-5c73-473b-b4d5-a6247284ece8" d="M651.49,1379.42s3.4-135.49,5.28-169.57l3,173.85Z"/><path class="a68af9b3-5c73-473b-b4d5-a6247284ece8" d="M717,1410.87s-1.43-75.31,2.89-103.36c0,0,3.72,98.16,7.54,107.94Z"/><path class="a68af9b3-5c73-473b-b4d5-a6247284ece8" d="M790.44,1441.33s-.05-135.29,0-162.76l7.11,165.52Z"/><path class="a68af9b3-5c73-473b-b4d5-a6247284ece8" d="M957.7,1268.72s24.8,1.36,34.81,4.37-39.93,23-39.93,23l-7.51-17.59Z"/><path class="a68af9b3-5c73-473b-b4d5-a6247284ece8" d="M920.69,1538.5a288.5,288.5,0,0,0,39.84,5.35c22.16,1.4-23.85-18.63-23.85-18.63Z"/><path class="a68af9b3-5c73-473b-b4d5-a6247284ece8" d="M1302.61,1414.46l-19.77-9.22-3.66-452.44,23.92-2.38S1325.26,1274.7,1302.61,1414.46Z"/><path class="af96eb3f-58c4-4e7e-b069-51233f3b06e6" d="M1347.86,939.11s-18.52,412.32-13.69,461l-31.56,14.32s-1.36-429.22.49-464Z"/><path class="a68af9b3-5c73-473b-b4d5-a6247284ece8" d="M862.89,1072.88S824.21,1226.45,783,1264.94c0,0,4.5-212.77-6.84-218.63S773.8,1058,773.8,1058s3.91,72-71.71,165.29l29.14-199.88-39.88-11.91,17.29,40.18-11.17-2.09s-13.94,57.25-22.92,66.63-10.95,25.4-11.34,30.09-16.41,27.74-19.73,45.91V1044.75l42.79-63.69,142.63,25,59.39,29.7Z"/><path class="ea3ccfd6-0369-4bf4-a42a-d476c8565f6e" d="M1347.86,939.11l-67,221.1-33.65-190.68s-67.36,229.18-82.62,245c0,0-18.2-68-15.86-129,0,0-19.34-59.78-16.41-93.78,0,0-50.41,212.19-70.92,231.53,0,0,1.17-40.93-5.28-46.55s-11.44-44.42-13.87-60.91c-3.91-26.57-10.74-88.9-10.74-88.9s-22.86,110.78-27,116.64-5.31,30.77-7.34,38.83S977,1248.53,977,1248.53s-5.27-89.68-10-99.06-11.72-24-12.9-44-6.44-60.37-6.44-60.37-17,121.33-23.45,141.85-24,85.89-24,85.89-7.62-67.14-12.31-78.27-33.19-133.29-33.19-133.29S1286.15,922.17,1347.86,939.11Z"/><path class="be982956-2a02-4e17-a929-443eaa6ab3ea" d="M854.71,1061.32s-53,178.42-71.73,203.62c0,0,0-14.06-3.52-24.61s-14.65-199.88-14.65-199.88-24,134.81-62.72,182.88c0,0-1-180.18-8.2-203.39,0,0-16.51,81.47-32.88,98.47,0,0-5.81,8.79-5.22,24s-11.72,25.2-12.31,49.82c0,0-18.76-58.61-17.58-79.71s-13.49-36.64-14.66-51.14-18.17-89.54-14.65-106.54,234.46,75.62,234.46,75.62Z"/><path class="be727192-9915-412d-ad3f-c8293d2c8112" d="M1336.49,938.27s-17.6,55.34-19.53,68c-2.54,16.61-24.9,70.33-26.66,89.84a283.07,283.07,0,0,1-6.39,38s-13.26-79-15.6-101.85S1256,956,1256,956Z"/><path class="be727192-9915-412d-ad3f-c8293d2c8112" d="M1235.48,959s-32.82,89.38-36.92,102.43-34,121-34,121-7.06-78.1-3.55-87.48-.58-16.12-5.86-33.55-12.31-66.09-11.14-79.57S1235.48,959,1235.48,959Z"/><path class="be727192-9915-412d-ad3f-c8293d2c8112" d="M1122.94,985.35l-55.09,209.84s-6.45-29.3-8.8-45.72,1.76-39.85-2.93-56.27-14.78-45-14.06-61.54,0-34,0-34Z"/><path class="be727192-9915-412d-ad3f-c8293d2c8112" d="M1023.33,1009.66l-44,196.08s2.34-63.3,0-69.75-22.86-78.54-21.1-107.26S1023.33,1009.66,1023.33,1009.66Z"/><path class="be727192-9915-412d-ad3f-c8293d2c8112" d="M940.65,1034l-36.92,184.64S892,1178.19,889.66,1163s-23.79-116.35-23.79-116.35Z"/><path class="b8de4e12-17e2-41d5-905f-9de31a8da7bb" d="M842.77,1050.42s-34.29,104-37.22,121.62-18.47,59.49-18.47,59.49-7-101.4-4.68-112.54-4.69-95.54-4.69-95.54Z"/><path class="b8de4e12-17e2-41d5-905f-9de31a8da7bb" d="M755.43,1020.13s-33.21,145.76-42.2,153.57c0,0,1.95-61,0-71.51s-8.6-104.33-8.6-104.33Z"/><path class="b8de4e12-17e2-41d5-905f-9de31a8da7bb" d="M691.35,991.22s-26.57,95.73-37.12,111-11,40.64-11.34,42.2c0,0-3.12-44.93-7.81-53.14s-23.45-75.42-23.45-98.08A70.63,70.63,0,0,1,623,954.87Z"/><path class="b2a2daf1-142d-4052-aa74-350924210706" d="M1347.86,939.11l-235.25-88.58s-511.92,77.38-516,104.34L764,1032.64l85.19,28.52s4.49,1,12.7-1S1347.86,939.11,1347.86,939.11Z"/><polygon class="bb3fb378-f2d5-4d8b-8b42-df07815f6de2" points="1079.24 759.69 697.84 811.2 799.77 988.04 1176.5 903.63 1079.24 759.69"/><path class="b7fd61d2-42be-4f70-a386-52c477e1ca11" d="M806.79,907.39a29.15,29.15,0,0,1,4.56-7.56c8.7-10.33,22.52-10.12,33.64-7.62,2.18.5,4.27,1.07,6.19,1.68a53.91,53.91,0,0,1,22.45,13.77c20.14,20.79,4,37.9-24.69,52C816.16,975.82,793.52,938.61,806.79,907.39Z"/><polygon class="b011443b-3e9a-4cb8-bda4-cfe2f1bca9fe" points="685.6 792.34 1084.37 741.93 1079.68 761.27 691.65 818.71 685.6 792.34"/><path class="a68af9b3-5c73-473b-b4d5-a6247284ece8" d="M802.44,972.28,685.6,792.34l-8.21,26.18,107.46,181.9S800.09,988.5,802.44,972.28Z"/><path class="a68af9b3-5c73-473b-b4d5-a6247284ece8" d="M969.75,768.23v9.32l78.93,143.18,9-1.61S974.14,768.82,969.75,768.23Z"/><path class="a68af9b3-5c73-473b-b4d5-a6247284ece8" d="M830.49,787.77v10.39L912.24,946.8l9-1.61S834.89,788.36,830.49,787.77Z"/><path class="f37b1b33-f177-43c4-beb2-b6e089d10aa2" d="M926.32,943.86,837.13,787l-6.64.78L920.1,945.4S926.33,949.42,926.32,943.86Z"/><path class="a68af9b3-5c73-473b-b4d5-a6247284ece8" d="M1184,897.26l-99.64-155.33s-7.23,13.67-4.69,19.34l95.54,153Z"/><polygon class="b011443b-3e9a-4cb8-bda4-cfe2f1bca9fe" points="1180.5 916.01 784.85 1000.42 802.44 972.28 1184.01 897.26 1180.5 916.01"/><path class="f37b1b33-f177-43c4-beb2-b6e089d10aa2" d="M1082.07,746.85l94.43,147.2L804.6,967.18,693.43,796l388.64-49.12m2.3-4.92L685.6,792.34,802.44,972.28l381.57-75-99.64-155.33Z"/><path class="f37b1b33-f177-43c4-beb2-b6e089d10aa2" d="M1061.49,916.67l-85.1-149.22-6.64.78,85.61,149.64S1061.5,922.23,1061.49,916.67Z"/><path class="a68af9b3-5c73-473b-b4d5-a6247284ece8" d="M718.23,882.24l-.15,1.39-7.47,72.75s6.74,13.49,17.29,9.09l7.91-65.06Z"/><path class="bce9c9e9-c580-4376-8f80-dfb5adaecfe7" d="M1143.36,889.62a20.44,20.44,0,0,0,16-24.66c-1.55-6.67-7.3-13-23.7-12.52-34.14.95-37.31,25.41-19.35,32.43C1126.52,888.88,1135.71,891,1143.36,889.62Z"/><path class="a767aee5-8eec-4d85-9d5f-ae7b7856e548" d="M973.9,801.93a20.82,20.82,0,0,0-8.57-19.23c-7.63-5.66-22.43-13.46-38.2-4.42-22.79,13.07-17.09,30.83-3.52,37.87s24.3-2.68,37.71-2.35C969,814,973,808.5,973.9,801.93Z"/><path class="b7fd61d2-42be-4f70-a386-52c477e1ca11" d="M806.81,802.93c-16.92-9.39-49.14-21.64-66.44,8.59,0,0-15.58,35.22,30.48,39.74s51.71-11.59,51.71-22v-.31A30.22,30.22,0,0,0,806.81,802.93Z"/><circle class="bd38d82e-aad7-4551-bedc-d38f1c74633c" cx="796.92" cy="812.23" r="8.5"/><circle cx="798.2" cy="809.91" r="5.17"/><circle class="bd38d82e-aad7-4551-bedc-d38f1c74633c" cx="774.52" cy="805.86" r="8.7"/><circle cx="776.32" cy="805.86" r="5.29"/><path class="a767aee5-8eec-4d85-9d5f-ae7b7856e548" d="M1024,883.12a26,26,0,0,0-10.93-9.54c-7.75-3.63-21.52-6.89-33.64,6.84-18.06,20.46,17.56,37.73,38,28.54C1034.64,901.2,1029,891,1024,883.12Z"/><path class="a767aee5-8eec-4d85-9d5f-ae7b7856e548" d="M940.76,846.19a23.65,23.65,0,0,0-10.1-8.81c-7.16-3.35-19.88-6.37-31.09,6.32-16.69,18.91,7.95,36.89,26.83,28.4C942.33,864.93,946.8,855.88,940.76,846.19Z"/><path class="a767aee5-8eec-4d85-9d5f-ae7b7856e548" d="M1114.41,890.15a20.78,20.78,0,0,0-7.43-19.7c-7.28-6.11-21.59-14.77-37.86-6.67-23.52,11.7-18.88,29.77-5.75,37.6s24.41-1.25,37.78-.12C1108.78,901.9,1113.15,896.65,1114.41,890.15Z"/><path class="bce9c9e9-c580-4376-8f80-dfb5adaecfe7" d="M961.25,887.47s-26.71-22.1-40.44,2.8-1,44.19,25,35.29S978,897.34,961.25,887.47Z"/><path class="b0257677-5341-4f8c-a7d1-4ce9399d421a" d="M783.35,843.81c23.47-13.47,45.5-1.46,56.52,6.87A30.12,30.12,0,0,1,852,877.89c-.64,5.76-2.94,11-7,14.32-11.12-2.5-24.94-2.71-33.64,7.62-10.72,3-21.18,5.72-33.16-.49C758.28,889,749.93,863,783.35,843.81Z"/><path class="bce9c9e9-c580-4376-8f80-dfb5adaecfe7" d="M995.11,837.93a21.81,21.81,0,0,0-22.81-17.48c-10.84.77-23.81,5.3-24.57,22.34-1.32,29.57,51.3,20.72,48.93,4.4C996.15,843.67,995.64,840.61,995.11,837.93Z"/><path class="bce9c9e9-c580-4376-8f80-dfb5adaecfe7" d="M879.51,790.21A21.14,21.14,0,0,0,863,815.72c1.6,6.89,7.55,13.41,24.51,12.94,35.31-1,38.59-26.28,20-33.54C896.93,791,887.42,788.76,879.51,790.21Z"/><path class="a767aee5-8eec-4d85-9d5f-ae7b7856e548" d="M1072,834a23.6,23.6,0,0,0,10.1,8.82c7.16,3.35,19.89,6.36,31.09-6.32,16.69-18.91-8-36.9-26.83-28.4C1070.4,815.3,1065.93,824.34,1072,834Z"/><path class="bce9c9e9-c580-4376-8f80-dfb5adaecfe7" d="M1053.18,791.89s22.62,18.72,34.25-2.36.85-37.42-21.2-29.89S1039,783.54,1053.18,791.89Z"/><path class="bce9c9e9-c580-4376-8f80-dfb5adaecfe7" d="M1023.89,839a22.26,22.26,0,0,0,23.3,17.87c11.08-.79,24.33-5.41,25.11-22.83,1.35-30.22-45.19-25-50-4.5C1021.47,833.07,1023.34,836.26,1023.89,839Z"/><path class="b0257677-5341-4f8c-a7d1-4ce9399d421a" d="M1300.91,578.35c.85-43.75-24.38-83.61-62.23-105.56-47.83-27.75-138.55-63.09-223.75-.44-123.16,90.57-103,183.5-19.92,215.26s163.22-25.47,241-32.35C1280.38,651.32,1300.17,616.86,1300.91,578.35Z"/><path class="a767aee5-8eec-4d85-9d5f-ae7b7856e548" d="M1324.34,578.56c.84-43.75-24.38-83.61-62.23-105.56-47.83-27.74-138.55-63.09-223.75-.44-123.17,90.57-116.92,187.38-33.82,219.14s177.12-29.35,254.85-36.23C1303.8,651.53,1323.6,617.07,1324.34,578.56Z"/><path class="bce9c9e9-c580-4376-8f80-dfb5adaecfe7" d="M1049.65,626a34.84,34.84,0,0,1-6,7.83,15.82,15.82,0,0,1-9.19,4.67,13.17,13.17,0,0,1-9.55-1.89q-4-2.7-4.86-8.94a36.9,36.9,0,0,1,.11-9.87,52.66,52.66,0,0,1,2.15-9.84,25.93,25.93,0,0,1,3.78-7.35,7.93,7.93,0,0,1,5-3.43,4.89,4.89,0,0,1,4.39,1.34,7.74,7.74,0,0,1,2.13,4.56,6,6,0,0,1-.1,2.19,9.1,9.1,0,0,1-.64,2c-.26.54-.47.83-.64.85-.33.05-.52-.12-.57-.49a3.74,3.74,0,0,1,.1-.86,3.76,3.76,0,0,0,.06-1.12,11.25,11.25,0,0,0-.78-2.86,3.75,3.75,0,0,0-1.52-1.77,3.11,3.11,0,0,0-2.15-.48q-4.46.63-7.14,9.78a46.14,46.14,0,0,0-1.49,8.17,35.81,35.81,0,0,0,.13,8.5,11.28,11.28,0,0,0,1.87,4.92,9.1,9.1,0,0,0,3.79,3.19,9.22,9.22,0,0,0,5.18.65,16,16,0,0,0,7.89-3.33,41.1,41.1,0,0,0,6.49-6.6,15.58,15.58,0,0,0,.67-1.51c.37-.92.68-1.39.93-1.43s.42,0,.52.12a1.25,1.25,0,0,1,.22.66A5.33,5.33,0,0,1,1049.65,626Z"/><path class="bce9c9e9-c580-4376-8f80-dfb5adaecfe7" d="M1060.69,633.89q-4.15.58-6.46-1.42a8.49,8.49,0,0,1-2.78-5.41,32,32,0,0,1,0-7.52,30.31,30.31,0,0,1,2-8.3c.06-.17.31-.83.76-2a7.88,7.88,0,0,1,1.67-2.7,3.85,3.85,0,0,1,2.23-1.16,1.91,1.91,0,0,1,1.06.13.83.83,0,0,1,.57.65,1.8,1.8,0,0,1-.26.63l-.42.79a28.94,28.94,0,0,0-2.7,5.49,34.16,34.16,0,0,0-1.81,6.64,23.31,23.31,0,0,0,0,6.88q.69,4.89,6.64,4a9.28,9.28,0,0,0,4.94-2.34,13,13,0,0,0,3.25-4.47,8.4,8.4,0,0,0,.82-4.45,5.61,5.61,0,0,0-2-3.57,24.1,24.1,0,0,0-4.38-2.85,20.57,20.57,0,0,1-2.63-1.59c-.56-.42-.87-.8-.91-1.13-.07-.49.22-.95.88-1.36a6.23,6.23,0,0,1,2.41-.81,3.55,3.55,0,0,1,1.06-.06.34.34,0,0,1,.3.31.84.84,0,0,1-.16.43.82.82,0,0,0-.15.5c0,.12.49.47,1.41,1.06a28.72,28.72,0,0,1,4.74,3.56,7.82,7.82,0,0,1,2.37,4.71,11.74,11.74,0,0,1-1,5.83,16.51,16.51,0,0,1-4.31,6.13A12.92,12.92,0,0,1,1060.69,633.89Z"/><path class="bce9c9e9-c580-4376-8f80-dfb5adaecfe7" d="M1087.18,630.14q-4.15.58-6.46-1.42a8.51,8.51,0,0,1-2.78-5.42,31.93,31.93,0,0,1,0-7.51,30.22,30.22,0,0,1,2-8.3c.06-.17.31-.83.76-2a7.84,7.84,0,0,1,1.67-2.7,3.93,3.93,0,0,1,2.23-1.17,2,2,0,0,1,1.06.14.81.81,0,0,1,.57.64,1.75,1.75,0,0,1-.26.64l-.42.79a28.94,28.94,0,0,0-2.7,5.49A33.51,33.51,0,0,0,1081,616a23,23,0,0,0,0,6.89q.69,4.89,6.64,4a9.14,9.14,0,0,0,4.94-2.34,12.85,12.85,0,0,0,3.25-4.47,8.35,8.35,0,0,0,.82-4.44,5.61,5.61,0,0,0-2-3.57,24.1,24.1,0,0,0-4.38-2.85,19.62,19.62,0,0,1-2.62-1.59c-.57-.42-.88-.8-.92-1.13-.07-.5.22-.95.88-1.36a6.07,6.07,0,0,1,2.41-.81,3.55,3.55,0,0,1,1.06-.06.34.34,0,0,1,.3.31.87.87,0,0,1-.16.43.81.81,0,0,0-.15.49c0,.13.49.48,1.41,1.07a27.77,27.77,0,0,1,4.74,3.56,7.79,7.79,0,0,1,2.37,4.71,11.74,11.74,0,0,1-1,5.83,16.6,16.6,0,0,1-4.3,6.13A13,13,0,0,1,1087.18,630.14Z"/><path class="bce9c9e9-c580-4376-8f80-dfb5adaecfe7" d="M1109.85,626.17c-.5.07-1-.45-1.64-1.57a16.56,16.56,0,0,1-1.41-5.26q-.93-7-2.18-16.93t-1.83-14.95A10.61,10.61,0,0,1,1103,584a2.14,2.14,0,0,1,1.86-1.84.65.65,0,0,1,.72.44,8.62,8.62,0,0,1,.44,2s0,.17,0,.4a12.11,12.11,0,0,0,.14,1.22q1.18,16.42,3.38,31.91a11.41,11.41,0,0,0,1.49,4.08q1.21,2.1,1.23,2.22.09.62-.66,1.11A4.25,4.25,0,0,1,1109.85,626.17Z"/><path class="bce9c9e9-c580-4376-8f80-dfb5adaecfe7" d="M1170.55,616.12a3.27,3.27,0,0,1-1.21,0,14.69,14.69,0,0,1-1.79-.6,57.64,57.64,0,0,0-10.84-3c-2-.35-4.23-.69-6.87-1s-4.7-.55-6.19-.67l1.57,7.92a10.32,10.32,0,0,0,.83,2.75,6.6,6.6,0,0,1,.58,1.41,1.39,1.39,0,0,1-.52,1.24,2.52,2.52,0,0,1-1.36.66c-.62.09-1.07-.29-1.36-1.13,0-.08-.12-.45-.31-1.09a19.11,19.11,0,0,1-.55-2.77c-.11-.78-.43-2.44-1-5q-.24-1.29-.48-2.49t-.36-2.13c-.14-.11-.32-.23-.53-.37a2,2,0,0,1-.56-.61,11.6,11.6,0,0,1-.47-1.13,4.65,4.65,0,0,1-.26-.92.94.94,0,0,1,.15-.71,3.8,3.8,0,0,1,.67-.66q-2.57-15.42-2.88-17.65c-.19-1.32-.34-2.54-.46-3.66s-.2-1.87-.25-2.24c-.24.08-1,.28-2.19.62s-2.18.65-2.9.92a44.22,44.22,0,0,0-5.78,2.62,36.91,36.91,0,0,0-3.73,2.45,5.84,5.84,0,0,1-1,.74,2.67,2.67,0,0,1-1,.37,1.11,1.11,0,0,1-.93-.35,1.74,1.74,0,0,1-.53-1.09c-.11-.78,1.08-1.88,3.57-3.28a55.56,55.56,0,0,1,8.25-3.76,62.36,62.36,0,0,1,6.48-1.9c2.65-.64,5.12-1.13,7.44-1.46a34.44,34.44,0,0,1,10.3-.13,14.09,14.09,0,0,1,6.83,2.75,7.87,7.87,0,0,1,2.9,5.09,10.48,10.48,0,0,1-1.28,7,20.07,20.07,0,0,1-5.23,5.66,100.62,100.62,0,0,1-9.34,6.06c-1,.65-2,1.25-3,1.81s-1.67.95-2,1.17a2,2,0,0,0,.14.55q6.9.54,13.67,1.54l1.35.18q7,1.1,10.42,1.78c2.25.46,3.41.94,3.48,1.43a3.66,3.66,0,0,1-.36,1.88C1171.39,615.65,1171,616.06,1170.55,616.12Zm-26.84-35.28c-2.56.36-4.17.63-4.81.81,0,.29,0,1,.13,2.06s.21,2.16.36,3.24l1.65,9.86,1.34,7.64a13.72,13.72,0,0,0,2.11-.9,24.63,24.63,0,0,0,2.61-1.41q7.41-4.26,10.83-8t2.83-7.89a5.24,5.24,0,0,0-2.33-3.52,13.37,13.37,0,0,0-5.81-2.05A31.35,31.35,0,0,0,1143.71,580.84Z"/><path class="bce9c9e9-c580-4376-8f80-dfb5adaecfe7" d="M1182.49,616.64q-4.14.58-6.45-1.42a8.48,8.48,0,0,1-2.79-5.42,32.56,32.56,0,0,1,0-7.52,31,31,0,0,1,2-8.29c.06-.18.32-.83.77-2a7.55,7.55,0,0,1,1.67-2.7,3.9,3.9,0,0,1,2.23-1.17,1.92,1.92,0,0,1,1.06.14.83.83,0,0,1,.57.64,1.82,1.82,0,0,1-.26.64l-.43.78a29.85,29.85,0,0,0-2.69,5.5,34.26,34.26,0,0,0-1.81,6.63,22.65,22.65,0,0,0,0,6.88q.69,4.89,6.63,4a9.07,9.07,0,0,0,4.94-2.34,12.91,12.91,0,0,0,3.25-4.47,8.37,8.37,0,0,0,.83-4.44,5.61,5.61,0,0,0-2-3.57,24.63,24.63,0,0,0-4.38-2.86,22,22,0,0,1-2.63-1.58c-.56-.43-.87-.8-.92-1.13-.07-.5.23-.95.89-1.36a6,6,0,0,1,2.41-.81,3.55,3.55,0,0,1,1.06-.06.36.36,0,0,1,.3.3,1,1,0,0,1-.16.44.79.79,0,0,0-.15.49c0,.13.48.48,1.41,1.06a28.75,28.75,0,0,1,4.73,3.56,7.8,7.8,0,0,1,2.38,4.72,11.8,11.8,0,0,1-1,5.82,16.54,16.54,0,0,1-4.31,6.14A13,13,0,0,1,1182.49,616.64Z"/><path class="bce9c9e9-c580-4376-8f80-dfb5adaecfe7" d="M1215.61,603.49a45,45,0,0,1-4.94,6.82,8.39,8.39,0,0,1-5.06,2.86,4.64,4.64,0,0,1-4.15-1.49,7.77,7.77,0,0,1-2.19-4.49,32.42,32.42,0,0,1,.69-10.32,41,41,0,0,1,3.83-11.28c1.73-3.28,3.66-5.07,5.81-5.37a3.24,3.24,0,0,1,2.49.66,6.5,6.5,0,0,1,1.26,1.33,3.67,3.67,0,0,1,.73,1.61,12.25,12.25,0,0,1,.07,2.48c-.05,1-.18,1.45-.39,1.48a.81.81,0,0,1-.9-.57,8.63,8.63,0,0,1-.49-1.7,11.69,11.69,0,0,0-.68-2.08q-.26-.49-.63-.45c-1.94.28-3.63,1.89-5.06,4.85a38,38,0,0,0-3.12,10,29.3,29.3,0,0,0-.56,8.51c.38,2.72,1.48,4,3.3,3.7a7,7,0,0,0,3.48-1.5,18.92,18.92,0,0,0,3-3.28,62.45,62.45,0,0,0,4.37-6.61c.06-.14.25-.49.57-1.06s.56-.87.73-.89c.49-.07.77.08.82.45a8.4,8.4,0,0,1-1,2.47A37.85,37.85,0,0,1,1215.61,603.49Z"/><path class="bce9c9e9-c580-4376-8f80-dfb5adaecfe7" d="M1247.13,582.67a1.83,1.83,0,0,1-1.19-.37,1.93,1.93,0,0,0-.94-.4q-1.66.24-5,3a76.84,76.84,0,0,0-6.72,6.45,61.6,61.6,0,0,0-5.14,6.09l.22,1.11q5,1.5,11.12,3.16a48.49,48.49,0,0,0,8.39,1.78c.59,0,1.18,0,1.76-.06s1-.08,1.25-.12a7.05,7.05,0,0,1,.94-.07c.25,0,.39.07.4.2q.1.74-.93,1.65a6.49,6.49,0,0,1-3.33,1.23,15.29,15.29,0,0,1-5.75-.74q-3.72-1-8.83-2.82l-4.17-1.36q1.9,7.74,2,8.55a1.32,1.32,0,0,1-.52,1.21,2.74,2.74,0,0,1-1.43.64c-.33,0-.67-.41-1-1.37s-.88-2.89-1.58-5.78l-1-3.71a3.92,3.92,0,0,1-1.43-.71,1.74,1.74,0,0,1-.71-1c-.07-.49.26-1.13,1-1.91q-.54-3.33-1.69-9.48t-1.69-9l-1.52-8.56a9,9,0,0,1,0-3,1.83,1.83,0,0,1,1.74-1.51,1,1,0,0,1,.77.11,1.35,1.35,0,0,1,.31.81q.4,2.85,2.27,13.16t2.74,14.67q12-15.07,18.32-16a4.79,4.79,0,0,1,2.27.15c.64.23,1,.5,1,.83a2.89,2.89,0,0,1-.58,2A2.24,2.24,0,0,1,1247.13,582.67Z"/><path class="bce9c9e9-c580-4376-8f80-dfb5adaecfe7" d="M1261.83,607.11a8.8,8.8,0,0,1-3.66,0,1.51,1.51,0,0,1-1.12-1.23c0-.37.33-1.09,1.15-2.15s1.39-1.62,1.72-1.67q.74-.11.78.21a.65.65,0,0,1-.24.54c-.18.19-.26.35-.24.47s.3.3.84.39a6.54,6.54,0,0,0,1.92,0,15.42,15.42,0,0,0,5.1-1.7,12.66,12.66,0,0,0,3.94-3.12,4.53,4.53,0,0,0,1.21-3.51,3.51,3.51,0,0,0-1.43-2.52,6.44,6.44,0,0,0-2.84-1.08q-1.64-.24-5.48-.58-4.21-.35-6.57-.74a11.33,11.33,0,0,1-3.88-1.28,3.42,3.42,0,0,1-1.75-2.57,7.16,7.16,0,0,1,2.14-5.85,22.59,22.59,0,0,1,6.13-4.85,18.09,18.09,0,0,1,5.62-2.25c1.4-.2,2.16.12,2.28.94a3.43,3.43,0,0,1-.27,1.71,1.59,1.59,0,0,1-1.35,1.11,1.54,1.54,0,0,1-.85-.16,1.56,1.56,0,0,0-.9-.16,15.51,15.51,0,0,0-3.79,1.36,15.83,15.83,0,0,0-4.49,3.09,4.79,4.79,0,0,0-1.61,4.21,2.37,2.37,0,0,0,2,2,45.84,45.84,0,0,0,6.6.86,7.61,7.61,0,0,0,1.15.12,9.62,9.62,0,0,1,1,.08,29.13,29.13,0,0,1,7.67,1.5,4.67,4.67,0,0,1,3.14,3.91,7.94,7.94,0,0,1-1.46,5.55,15.89,15.89,0,0,1-5.22,4.84A19.26,19.26,0,0,1,1261.83,607.11Z"/><circle class="bd38d82e-aad7-4551-bedc-d38f1c74633c" cx="1178.2" cy="492.97" r="27.39"/><circle cx="1169.75" cy="494.09" r="16.68"/><circle class="bd38d82e-aad7-4551-bedc-d38f1c74633c" cx="1098.38" cy="506.66" r="28.03"/><circle cx="1093.68" cy="510.04" r="17.07"/><path class="bd38d82e-aad7-4551-bedc-d38f1c74633c" d="M844,915a7.19,7.19,0,1,0,5.61-8.48A7.19,7.19,0,0,0,844,915Zm8.3-5a4.38,4.38,0,1,1-3.41,5.16A4.39,4.39,0,0,1,852.3,910Z"/><path d="M852.3,910a4.38,4.38,0,1,1-3.41,5.16A4.39,4.39,0,0,1,852.3,910Z"/><path class="bd38d82e-aad7-4551-bedc-d38f1c74633c" d="M829.29,908.18a7.36,7.36,0,1,0,7.36,7.36A7.36,7.36,0,0,0,829.29,908.18Zm1.52,2.87a4.49,4.49,0,1,1-4.49,4.49A4.49,4.49,0,0,1,830.81,911.05Z"/><circle cx="830.81" cy="915.54" r="4.48"/><path class="bd38d82e-aad7-4551-bedc-d38f1c74633c" d="M808.43,855.71a7.48,7.48,0,1,0,7.48-7.48A7.48,7.48,0,0,0,808.43,855.71Zm4.06-2a4.56,4.56,0,1,1,4.55,4.55A4.56,4.56,0,0,1,812.49,853.68Z"/><circle cx="817.04" cy="853.68" r="4.56"/><path class="bd38d82e-aad7-4551-bedc-d38f1c74633c" d="M785.62,857.76a7.66,7.66,0,1,0,7.66-7.65A7.66,7.66,0,0,0,785.62,857.76Zm4.58,0a4.66,4.66,0,1,1,4.66,4.67A4.66,4.66,0,0,1,790.2,857.76Z"/><path d="M794.86,853.1a4.67,4.67,0,1,1-4.66,4.66A4.66,4.66,0,0,1,794.86,853.1Z"/><path class="a767aee5-8eec-4d85-9d5f-ae7b7856e548" d="M1050.43,781.24a27.69,27.69,0,0,0-10.58-11.35c-7.83-4.72-22.11-9.71-36.52,3.55-21.47,19.76,14.49,42.06,37.23,34.54C1059.75,801.64,1054.85,790.12,1050.43,781.24Z"/><polygon class="af96eb3f-58c4-4e7e-b069-51233f3b06e6" points="953.35 1268.37 945.07 1160.2 945.07 1268.72 953.35 1268.37"/><path class="af96eb3f-58c4-4e7e-b069-51233f3b06e6" d="M1111.2,1372.83l1-216.87s5.49,175,8,213.66Z"/><polygon class="af96eb3f-58c4-4e7e-b069-51233f3b06e6" points="1184.48 1346.5 1184.48 1191.56 1193.59 1343.24 1184.48 1346.5"/><polygon class="af96eb3f-58c4-4e7e-b069-51233f3b06e6" points="1243.42 1325.51 1243.42 1170.58 1252.53 1322.26 1243.42 1325.51"/><polygon class="af96eb3f-58c4-4e7e-b069-51233f3b06e6" points="1041.95 1329.63 1032.87 1190.13 1033.62 1345.29 1041.95 1329.63"/><ellipse class="a68af9b3-5c73-473b-b4d5-a6247284ece8" cx="945.07" cy="1404.73" rx="136.63" ry="101.37" transform="matrix(0.07, -1, 1, 0.07, -522.79, 2248.44)"/><ellipse class="af96eb3f-58c4-4e7e-b069-51233f3b06e6" cx="971.2" cy="1407.64" rx="136.63" ry="101.37" transform="translate(-501.39 2277.2) rotate(-85.96)"/><polygon class="beb6d0a4-5564-49fa-9ab2-d594193b52d6" points="999.22 1383.63 982.97 1375.63 961.74 1387.14 980.48 1405.92 994.29 1390.78 999.22 1383.63"/><polygon class="bb3fb378-f2d5-4d8b-8b42-df07815f6de2" points="979.07 1395.28 961.74 1387.14 968.09 1431.6 985.16 1441.33 989.33 1421.48 979.07 1395.28"/><polygon class="b011443b-3e9a-4cb8-bda4-cfe2f1bca9fe" points="999.22 1383.63 1004.48 1430.74 985.16 1441.33 979.07 1395.28 999.22 1383.63"/><path class="b011443b-3e9a-4cb8-bda4-cfe2f1bca9fe" d="M894.81,1322.11l143.3,31.38-147.29-24.66S894.24,1322.64,894.81,1322.11Z"/><polygon class="b011443b-3e9a-4cb8-bda4-cfe2f1bca9fe" points="872.52 1380.9 957.63 1398.34 871.35 1388.64 872.52 1380.9"/><polygon class="b011443b-3e9a-4cb8-bda4-cfe2f1bca9fe" points="874.04 1453.07 1044.87 1478.51 876.16 1461.39 874.04 1453.07"/><polygon class="b011443b-3e9a-4cb8-bda4-cfe2f1bca9fe" points="1071.99 1418.83 1017.05 1412.48 1071.33 1425.31 1071.99 1418.83"/><path class="b011443b-3e9a-4cb8-bda4-cfe2f1bca9fe" d="M898,1506.39l96.39,14.71-88.62-5.38A104,104,0,0,1,898,1506.39Z"/><path class="b011443b-3e9a-4cb8-bda4-cfe2f1bca9fe" d="M1052.41,1313.53,957.93,1296l98.73,23.91S1054.3,1316.2,1052.41,1313.53Z"/></svg>