<svg height="496pt" viewBox="0 0 496 496" width="496pt" xmlns="http://www.w3.org/2000/svg"><path d="m227.359375 238.71875c45.121094 32.722656 76.640625 76.800781 76.640625 129.28125 0 70.640625-57.28125 128-128 128s-128-57.359375-128-128c0-52.480469 31.519531-95.28125 76.640625-128zm0 0" fill="#ed5565"/><path d="m227.359375 238.71875-31.480469.394531c44.832032 32.679688 76.121094 76.613281 76.121094 128.886719 0 65.214844-48.855469 119-112 126.886719 5.246094.664062 10.566406 1.113281 16 1.113281 70.71875 0 128-57.359375 128-128 0-52.480469-31.519531-96.558594-76.640625-129.28125zm0 0" fill="#da4453"/><path d="m232 368c0-30.960938-25.039062-56-56-56s-56 25.039062-56 56c0 30.808594 25.039062 56 56 56s56-25.191406 56-56zm0 0" fill="#ed5565"/><path d="m216 40-16 40h-48l-16-40s24-8 40 0 40 0 40 0zm0 0" fill="#ed5565"/><path d="m456 176v104h-24v-104zm0 0" fill="#e6e9ed"/><path d="m432 184v88h-56c-26.558594 0-48-21.511719-48-48v-204c0-11.121094 8.960938-20 20-20 9.679688 0 17.679688 6.808594 19.601562 15.921875l40.398438 160.078125c0 4.398438 3.601562 8 8 8zm0 0" fill="#eac6bb"/><path d="m176 312c30.960938 0 56 25.039062 56 56 0 30.808594-25.039062 56-56 56s-56-25.191406-56-56c0-30.960938 25.039062-56 56-56zm0 0" fill="#ffce54"/><path d="m176 312c-5.558594 0-10.929688.832031-16 2.34375 23.144531 6.871094 40 28.257812 40 53.65625 0 25.265625-16.855469 46.734375-40 53.640625 5.070312 1.519531 10.441406 2.359375 16 2.359375 30.960938 0 56-25.191406 56-56 0-30.960938-25.039062-56-56-56zm0 0" fill="#f6bb42"/><path d="m64 216v8h-24v-104h24zm0 0" fill="#e6e9ed"/><path d="m220 80c11.039062 0 20 8.878906 20 19.921875 0 11.039063-8.960938 20-20 20v.078125c11.039062 0 20 8.878906 20 19.921875 0 11.039063-8.960938 20-20 20v.078125c11.039062 0 20 8.878906 20 19.921875 0 11.039063-8.960938 20-20 20v.078125c11.039062 0 20 8.878906 20 19.921875 0 8.636719-5.441406 16-13.121094 18.796875-2.167968.808594-4.488281 1.203125-6.878906 1.203125v.078125h-100l-40-24h-16v-88h16l48-48zm0 0" fill="#eac6bb"/><path d="m0 104h40v136h-40zm0 0" fill="#656d78"/><path d="m456 160h40v136h-40zm0 0" fill="#656d78"/><path d="m376 140c0-17.648438-14.351562-32-32-32-5.847656 0-11.273438 1.695312-16 4.457031v27.542969c0-8.824219 7.175781-16 16-16s16 7.175781 16 16v52c0 4.425781 3.574219 8 8 8s8-3.574219 8-8zm0 0" fill="#e2b6ac"/><path d="m176 392c-4.425781 0-8-3.574219-8-8v-32c0-4.425781 3.574219-8 8-8s8 3.574219 8 8v32c0 4.425781-3.574219 8-8 8zm0 0" fill="#edab37"/><g fill="#e2b6ac"><path d="m235.839844 112h-15.839844c-4.414062 0-7.992188 3.574219-7.992188 7.992188 0 4.414062 3.578126 7.992187 7.992188 7.992187h15.9375c-3.65625-4.824219-9.410156-7.984375-15.9375-7.984375v-.078125c6.488281 0 12.183594-3.136719 15.839844-7.921875zm0 0"/><path d="m235.839844 152.007812h-15.839844c-4.414062 0-7.992188 3.578126-7.992188 7.992188s3.578126 7.992188 7.992188 7.992188h15.9375c-3.65625-4.832032-9.410156-7.984376-15.9375-7.984376v-.078124c6.488281 0 12.183594-3.136719 15.839844-7.921876zm0 0"/><path d="m235.839844 192.015625h-15.839844c-4.414062 0-7.992188 3.578125-7.992188 7.992187 0 4.417969 3.578126 7.992188 7.992188 7.992188h15.9375c-3.65625-4.832031-9.410156-7.984375-15.9375-7.984375v-.078125c6.488281 0 12.183594-3.136719 15.839844-7.921875zm0 0"/></g></svg>