<svg id="Layer_1" enable-background="new 0 0 512 512" height="512" viewBox="0 0 512 512" width="512" xmlns="http://www.w3.org/2000/svg"><g><g><g id="XMLID_75_"><g id="XMLID_76_"><g id="XMLID_77_"><g id="XMLID_78_"><g id="XMLID_79_"><g id="XMLID_80_"><g id="XMLID_81_"><g id="XMLID_82_"><g id="XMLID_83_"><g id="XMLID_84_"><g id="XMLID_85_"><g id="XMLID_86_"><g id="XMLID_87_"><g id="XMLID_88_"><circle id="XMLID_89_" cx="256" cy="256" fill="#5c4f5e" r="256"/></g></g></g></g></g></g></g></g></g></g></g></g></g></g></g><path d="m512 256c0-9.609-.548-19.089-1.579-28.423l-121.715-121.716-288.403 227.66 74.269 74.656-25.711 29.917 71.412 71.412c11.677 1.631 23.6 2.494 35.727 2.494 141.385 0 256-114.615 256-256z" fill="#403842"/><g><path d="m263.595 51.18h-15.189c-94.166 0-170.502 76.336-170.502 170.502v65.235c0 32.979 26.735 59.714 59.714 59.714h11.244v91.463h45.167v-54.938h39.047v54.938h45.85v-54.938h39.047v54.938h45.167v-91.463h11.244c32.979 0 59.714-26.735 59.714-59.714v-65.235c-.001-94.166-76.338-170.502-170.503-170.502z" fill="#fcfcfc"/><path d="m434.1 221.68v65.24c0 32.98-26.74 59.71-59.72 59.71h-11.24v91.46h-45.17v-54.93h-39.05v54.93h-22.92v-386.91h7.59c94.17 0 170.51 76.34 170.51 170.5z" fill="#ffefc7"/><path d="m242.924 260.048-23.338 30.464c-8.302 10.837-.575 26.49 13.076 26.49h46.676c13.652 0 21.378-15.653 13.076-26.49l-23.338-30.464c-6.593-8.606-19.559-8.606-26.152 0z" fill="#5c4f5e"/><g><g><path d="m192.077 233.639h-10.035c-21.799 0-39.635-17.836-39.635-39.635v-10.035c0-21.799 17.836-39.635 39.635-39.635h10.035c21.799 0 39.635 17.836 39.635 39.635v10.035c0 21.799-17.835 39.635-39.635 39.635z" fill="#5c4f5e"/><path d="m329.957 233.639h-10.035c-21.799 0-39.635-17.836-39.635-39.635v-10.035c0-21.799 17.836-39.635 39.635-39.635h10.035c21.799 0 39.635 17.836 39.635 39.635v10.035c0 21.799-17.836 39.635-39.635 39.635z" fill="#403842"/></g><path d="m292.414 290.512-23.338-30.464c-3.297-4.303-8.186-6.455-13.076-6.455v63.409h23.338c13.652 0 21.378-15.653 13.076-26.49z" fill="#403842"/></g></g></g></svg>