<svg xmlns="http://www.w3.org/2000/svg" viewBox="0 0 512 512" width="512" height="512">
	<style>
		tspan { white-space:pre }
		.shp0 { fill: #244563 } 
		.shp1 { fill: #25496b } 
		.shp2 { fill: #215484 } 
		.shp3 { fill: #ffffff } 
	</style>
	<path id="Layer" class="shp0" d="M401.8 154.55L205.44 154.55L249.77 312.85L205.44 362.42L401.8 362.42L401.8 154.55Z" />
	<path id="Layer" class="shp1" d="M312.94 254.92C312.94 314.29 264.81 362.42 205.44 362.42C198.49 362.42 191.69 361.76 185.1 360.48C210.31 353.86 228.89 330.92 228.89 303.64C228.89 271.19 202.57 244.88 170.11 244.88C137.65 244.88 111.34 271.19 111.34 303.64C111.34 304.81 111.38 305.96 111.45 307.11C102.84 291.66 97.94 273.86 97.94 254.92C97.94 195.55 146.07 147.42 205.44 147.42C264.81 147.42 312.94 195.55 312.94 254.92Z" />
	<path id="Layer" class="shp2" d="M464.8 304.77C489.57 275.9 504.53 238.38 504.53 197.36C504.53 106.29 429.39 31.69 338.33 32.31C247.7 32.92 174.42 106.58 174.42 197.36C174.42 226.45 181.94 253.77 195.16 277.5C195.05 275.73 195 273.97 195 272.17C195 222.34 235.4 181.94 285.23 181.94C335.08 181.94 375.47 222.34 375.47 272.17C375.47 313.18 348.13 347.78 310.67 358.76L0 358.76L0 479.7L512 479.7L512 358.76L489.86 358.76C461.93 358.76 446.62 325.96 464.8 304.77Z" />
	<g id="Layer">
		<path id="Layer" class="shp1" d="M0 424.84C51.2 424.84 51.2 401.85 102.41 401.85C103.48 401.85 104.52 401.86 105.55 401.88C131.16 402.38 143.42 408.85 156.88 414.8C168.68 420.03 181.38 424.84 204.81 424.84C256.01 424.84 256.01 401.85 307.21 401.85C332.72 401.85 345.52 407.56 358.26 413.28C370.58 418.81 382.85 424.36 406.47 424.81C407.49 424.83 408.54 424.84 409.61 424.84C460.8 424.84 460.8 401.85 512 401.85L512 479.69L0 479.69L0 424.84Z" />
		<path id="Layer" class="shp2" d="M133.4 118.44C120.62 118.44 110.29 108.11 110.29 95.33C110.29 82.54 120.62 72.21 133.4 72.21C146.18 72.21 156.51 82.54 156.51 95.33C156.51 108.11 146.18 118.44 133.4 118.44Z" />
	</g>
	<g id="Layer">
		<path id="Layer" class="shp2" d="M66.79 156.05C58.78 156.05 52.3 149.57 52.3 141.55C52.3 133.54 58.78 127.06 66.79 127.06C74.81 127.06 81.29 133.54 81.29 141.55C81.29 149.57 74.81 156.05 66.79 156.05Z" />
		<path id="Layer" class="shp2" d="M484.86 56.54C481.51 56.54 478.48 54.31 477.43 51.15C476.39 48.05 477.47 44.53 480.04 42.52C482.68 40.47 486.44 40.33 489.21 42.18C491.99 44.03 493.31 47.57 492.41 50.79C491.47 54.14 488.35 56.54 484.86 56.54Z" />
	</g>
	<path id="Layer" class="shp3" d="M429.28 169.28C425.93 169.28 422.9 167.06 421.85 163.9C420.82 160.79 421.89 157.27 424.47 155.27C427.1 153.21 430.86 153.07 433.64 154.93C436.41 156.78 437.73 160.31 436.83 163.53C435.89 166.89 432.77 169.28 429.28 169.28Z" />
	<g id="Layer">
		<path id="Layer" class="shp2" d="M280.84 299.65C277.5 299.65 274.47 297.42 273.41 294.26C272.38 291.16 273.45 287.64 276.03 285.63C278.66 283.58 282.42 283.44 285.2 285.29C287.97 287.14 289.3 290.68 288.4 293.9C287.46 297.25 284.34 299.65 280.84 299.65Z" />
		<path id="Layer" class="shp2" d="M299.96 262.9C295.55 262.9 291.56 259.96 290.17 255.8C288.81 251.71 290.22 247.08 293.62 244.43C297.09 241.72 302.04 241.54 305.7 243.98C309.35 246.42 311.1 251.08 309.91 255.32C308.67 259.74 304.56 262.9 299.96 262.9Z" />
	</g>
	<path id="Layer" class="shp3" d="M410.49 111.7C404.7 111.7 399.45 107.84 397.63 102.37C395.83 96.99 397.69 90.9 402.16 87.42C406.72 83.86 413.23 83.62 418.04 86.83C422.84 90.04 425.13 96.17 423.57 101.73C421.94 107.55 416.54 111.7 410.49 111.7Z" />
	<g id="Layer">
		<path id="Layer" class="shp2" d="M58.57 78.47C55.29 78.47 52.31 76.36 51.19 73.28C50.07 70.16 51.1 66.53 53.72 64.48C59.26 60.15 67.48 65.04 66.28 71.98C65.65 75.69 62.33 78.47 58.57 78.47Z" />
		<path id="Layer" class="shp2" d="M53.86 220.32C50.45 220.32 47.36 218 46.37 214.75C45.45 211.75 46.46 208.41 48.89 206.42C54.24 202.05 62.53 206.56 61.64 213.44C61.14 217.31 57.78 220.32 53.86 220.32Z" />
	</g>
	<g id="Layer">
	</g>
	<g id="Layer">
	</g>
	<g id="Layer">
	</g>
	<g id="Layer">
	</g>
	<g id="Layer">
	</g>
	<g id="Layer">
	</g>
	<g id="Layer">
	</g>
	<g id="Layer">
	</g>
	<g id="Layer">
	</g>
	<g id="Layer">
	</g>
	<g id="Layer">
	</g>
	<g id="Layer">
	</g>
	<g id="Layer">
	</g>
	<g id="Layer">
	</g>
	<g id="Layer">
	</g>
</svg>