<svg height="512pt" viewBox="0 -9 512.00094 512" width="512pt" xmlns="http://www.w3.org/2000/svg" xmlns:xlink="http://www.w3.org/1999/xlink"><linearGradient id="a"><stop offset="0" stop-color="#c2bdb3"/><stop offset="1" stop-color="#7f7979"/></linearGradient><linearGradient id="b" gradientUnits="userSpaceOnUse" x1="106.1972446118" x2="140.4269691238" xlink:href="#a" y1="352.4243809342" y2="432.2936042726"/><linearGradient id="c" gradientUnits="userSpaceOnUse" x1="405.4821543872" x2="556.8533127628" xlink:href="#a" y1="362.6218190414" y2="434.884425778"/><linearGradient id="d"><stop offset="0" stop-color="#3d3b3c" stop-opacity="0"/><stop offset="1" stop-color="#323031"/></linearGradient><linearGradient id="e" gradientUnits="userSpaceOnUse" x1="503.3580238942" x2="94.1239782476" xlink:href="#d" y1="396.2940656668" y2="279.1528325876"/><linearGradient id="f" gradientUnits="userSpaceOnUse" x1="524.5980016482" x2="73.0863911688" xlink:href="#d" y1="394.2720663666" y2="265.0291559306"/><linearGradient id="g"><stop offset="0" stop-color="#7f7979"/><stop offset=".2304" stop-color="#767071"/><stop offset=".6083" stop-color="#5d595a"/><stop offset="1" stop-color="#3d3b3c"/></linearGradient><linearGradient id="h" gradientUnits="userSpaceOnUse" x1="197.8101467218" x2="713.3175682288" xlink:href="#g" y1="224.7094397822" y2="224.7094397822"/><linearGradient id="i" gradientUnits="userSpaceOnUse" x1="509.3000374278" x2="-238.8299656028" xlink:href="#g" y1="241.824201646" y2="241.824201646"/><linearGradient id="j" gradientUnits="userSpaceOnUse" x1="256.000578" x2="256.000578" xlink:href="#d" y1="329.5319475682" y2="536.6742859864"/><linearGradient id="k" gradientUnits="userSpaceOnUse" x1="325.3994972316" x2="118.9886163826" xlink:href="#d" y1="186.8762376434" y2="-19.5347435978"/><linearGradient id="l" gradientUnits="userSpaceOnUse" x1="341.1077643734" x2="54.2311297336" y1="562.696245403" y2="275.8196107632"><stop offset="0" stop-color="#ffb92d"/><stop offset="1" stop-color="#f59500"/></linearGradient><linearGradient id="m"><stop offset="0" stop-color="#be3f45" stop-opacity="0"/><stop offset="1" stop-color="#be3f45"/></linearGradient><linearGradient id="n" gradientUnits="userSpaceOnUse" x1="73.2015410222" x2="38.9718165102" xlink:href="#m" y1="465.8753975258" y2="387.1471315404"/><linearGradient id="o" gradientUnits="userSpaceOnUse" x1="216.0140635634" x2="277.2530043868" xlink:href="#m" y1="430.248313982" y2="170.2331183352"/><linearGradient id="p" gradientUnits="userSpaceOnUse" x1="423.8134689306" x2="408.5522482554" xlink:href="#m" y1="455.2136454936" y2="376.1821950642"/><linearGradient id="q" gradientUnits="userSpaceOnUse" x1="256.000578" x2="256.000578" xlink:href="#m" y1="457.089172574" y2="611.1899948676"/><path d="m213.054688 449.417969-52.769532-155.765625-106.632812 36.121094c-12.730469 4.3125-19.550782 18.128906-15.238282 30.859374l30.078126 88.785157zm0 0" fill="url(#b)"/><path d="m468.515625 449.417969 37.585937-95.023438c17.03125-43.070312-4.070312-91.792969-47.140624-108.824219-43.066407-17.035156-91.789063 4.070313-108.820313 47.136719l-61.984375 156.710938zm0 0" fill="url(#c)"/><path d="m451.621094 449.417969 34.0625-86.125c15.4375-39.03125-3.6875-83.1875-42.722656-98.628907-39.03125-15.4375-83.191407 3.691407-98.628907 42.722657l-56.175781 142.03125zm0 0" fill="url(#e)"/><path d="m511.167969 335.160156-94.652344-94.652344c-28.910156 4.066407-54.871094 23.113282-66.375 52.199219l-61.984375 156.710938h180.359375l37.585937-95.023438c2.5-6.328125 4.160157-12.78125 5.066407-19.234375zm0 0" fill="url(#f)"/><path d="m372.378906 33.820312c-8.152344 0-15.78125 2.21875-22.335937 6.070313-23.785157-24.59375-57.125-39.890625-94.042969-39.890625s-70.257812 15.296875-94.042969 39.890625c-6.554687-3.851563-14.183593-6.070313-22.335937-6.070313-24.378906 0-44.136719 19.761719-44.136719 44.136719v371.464844h321.03125v-371.464844c0-24.378906-19.757813-44.136719-44.136719-44.136719zm0 0" fill="url(#h)"/><path d="m129.714844 449.417969v-371.152344c0-5.4375 4.253906-10.105469 9.691406-10.214844 1.867188-.035156 3.617188.417969 5.195312 1.347657h.003907c13.625 8.011718 30.96875 5.652343 41.957031-5.710938 18.371094-18.996094 43.03125-29.457031 69.4375-29.457031s51.066406 10.460937 69.4375 29.457031c10.988281 11.363281 28.332031 13.722656 41.957031 5.710938h.003907c1.578124-.929688 3.332031-1.382813 5.195312-1.347657 5.4375.109375 9.691406 4.777344 9.691406 10.214844v371.152344zm0 0" fill="url(#i)"/><path d="m95.484375 298.726562h321.03125v150.691407h-321.03125zm0 0" fill="url(#j)"/><path d="m416.835938 197.703125v38.796875h-29.242188v54.382812h-38.792969l-112.195312-112.195312v-25.789062h-.644531l-28.597657-28.597657v-38.792969h29.242188v-23.960937h38.792969l21.996093 23.960937h7.242188zm0 0" fill="url(#k)"/><path d="m162.058594 214.46875h187.882812v20.949219h-187.882812zm0 0" fill="#c2bdb3"/><path d="m162.058594 253.261719h187.882812v20.949219h-187.882812zm0 0" fill="#c2bdb3"/><path d="m192.484375 292.054688h127.03125v20.949218h-127.03125zm0 0" fill="#c2bdb3"/><path d="m304.636719 85.507812h-29.238281v-23.960937h-38.792969v23.960937h-29.242188v38.792969h29.242188v54.386719h38.792969v-54.386719h29.238281zm0 0" fill="#c2bdb3"/><path d="m431.765625 423.289062c-10.199219 0-19.980469 1.796876-29.042969 5.09375-8.359375 3.039063-17.714844.824219-23.851562-5.613281-11.683594-12.257812-28.167969-19.898437-46.445313-19.898437-5.777343 0-11.378906.765625-16.703125 2.199218-7.90625 2.125-16.308594-.351562-21.953125-6.28125-22.5625-23.679687-54.398437-38.441406-89.691406-38.441406-42.164063 0-79.410156 21.078125-101.777344 53.273438-4.417969 6.359375-11.738281 9.941406-19.476562 9.707031-.859375-.023437-1.722657-.039063-2.589844-.039063-36.296875 0-67.269531 22.742188-79.46875 54.746094-2.863281 7.511719 2.679687 15.566406 10.71875 15.566406h489.035156c8.035157 0 13.582031-8.054687 10.71875-15.566406-12.199219-32.003906-43.175781-54.746094-79.472656-54.746094zm0 0" fill="url(#l)"/><path d="m80.230469 423.289062c-1.328125 0-2.652344.042969-3.96875.101563-.398438.019531-.792969.046875-1.191407.070313-.941406.054687-1.878906.125-2.8125.214843-.421874.039063-.84375.078125-1.265624.121094-1.027344.113281-2.046876.242187-3.0625.390625-.269532.039062-.542969.070312-.8125.113281-1.269532.195313-2.527344.421875-3.777344.671875-.324219.066406-.644532.140625-.964844.210938-.941406.203125-1.878906.417968-2.804688.648437-.410156.101563-.816406.207031-1.222656.316407-.894531.238281-1.78125.488281-2.660156.753906-.351562.105468-.699219.207031-1.046875.316406-1.199219.378906-2.386719.777344-3.5625 1.207031-.164063.058594-.328125.125-.488281.1875-1.019532.375-2.023438.773438-3.019532 1.191407-.371093.152343-.738281.316406-1.109374.472656-.8125.355468-1.617188.71875-2.417969 1.09375-.363281.171875-.726563.34375-1.089844.519531-.949219.464844-1.890625.945313-2.820313 1.445313-.167968.089843-.339843.171874-.507812.265624-1.082031.589844-2.144531 1.203126-3.199219 1.839844-.316406.1875-.625.386719-.9375.582032-.753906.46875-1.5.945312-2.234375 1.433593-.355468.234375-.707031.472657-1.058594.710938-.742187.511719-1.476562 1.03125-2.199218 1.566406-.28125.203125-.566406.402344-.839844.613281-.972656.730469-1.925781 1.480469-2.863281 2.25-.234375.1875-.457031.386719-.683594.578125-.71875.601563-1.425781 1.214844-2.121094 1.835938-.324219.292969-.644531.585937-.964843.882812-.613282.566407-1.21875 1.144531-1.8125 1.730469-.300782.292969-.605469.585938-.898438.882812-.773438.78125-1.535156 1.574219-2.277344 2.386719-.144531.15625-.289062.316407-.433594.476563-.746093.824218-1.476562 1.671875-2.191406 2.527344-.277344.335937-.550781.675781-.824218 1.015624-.507813.628907-1.007813 1.265626-1.5 1.910157-.28125.371093-.566407.742187-.839844 1.117187-.515625.699219-1.015625 1.402344-1.503906 2.117188-.214844.304687-.433594.605468-.640626.914062-.660156.984375-1.296874 1.980469-1.917968 2.992188-.21875.359375-.429688.726562-.644532 1.089844-.414062.703124-.824218 1.40625-1.21875 2.121093-.238281.433594-.476562.871094-.707031 1.3125-.367187.691407-.722656 1.386719-1.070312 2.089844-.210938.417969-.421875.835937-.625 1.261719-.507813 1.066406-.996094 2.140625-1.460938 3.230468-.140625.328126-.265625.664063-.402343.992188-.292969.722656-.582032 1.449219-.859376 2.183594-2.679687 7.449218 2.820313 15.359375 10.785157 15.359375h152.476562c-6.96875-39.945313-41.789062-70.316407-83.726562-70.316407zm0 0" fill="url(#n)"/><path d="m327.9375 484.199219c0-33.066407-12.957031-63.101563-34.070312-85.3125-.03125-.03125-.066407-.0625-.097657-.09375-5.636719-5.917969-11.855469-11.28125-18.558593-15.992188-.015626-.007812-.027344-.015625-.039063-.027343-.816406-.570313-1.636719-1.132813-2.464844-1.683594-.054687-.039063-.113281-.074219-.171875-.113282-.78125-.523437-1.574218-1.035156-2.375-1.539062-.089844-.058594-.183594-.117188-.273437-.171875-.765625-.484375-1.535157-.957031-2.3125-1.421875-.121094-.070312-.246094-.144531-.367188-.214844-.75-.445312-1.503906-.882812-2.261719-1.3125-.152343-.085937-.300781-.167968-.453124-.253906-.730469-.410156-1.46875-.8125-2.214844-1.210938-.175782-.09375-.351563-.1875-.527344-.277343-.722656-.382813-1.449219-.757813-2.179688-1.125-.195312-.097657-.394531-.195313-.589843-.292969-.714844-.355469-1.433594-.703125-2.15625-1.042969-.214844-.101562-.433594-.203125-.648438-.300781-.707031-.332031-1.421875-.652344-2.136719-.96875-.234374-.101562-.464843-.207031-.699218-.308594-.703125-.304687-1.414063-.601562-2.121094-.894531-.25-.105469-.496094-.203125-.746094-.304687-.703125-.285157-1.40625-.5625-2.113281-.832032-.261719-.101562-.523437-.199218-.785156-.296875-.699219-.261719-1.398438-.519531-2.105469-.769531-.273438-.097656-.546875-.195312-.824219-.289062-.695312-.242188-1.398437-.476563-2.101562-.707032-.285157-.09375-.570313-.183594-.855469-.277344-.699219-.222656-1.398438-.433593-2.101562-.644531-.296876-.089843-.59375-.179687-.890626-.265625-.699218-.203125-1.402343-.398437-2.105468-.589844-.300782-.082031-.605469-.164062-.910156-.242187-.703126-.1875-1.410157-.363281-2.121094-.535156-.304688-.078125-.613282-.15625-.921875-.226563-.710938-.167968-1.425781-.328125-2.140625-.480468-.308594-.066407-.617188-.136719-.929688-.203126-.722656-.152343-1.449218-.292968-2.171875-.429687-.308593-.058594-.613281-.121094-.921875-.175781-.738281-.136719-1.476562-.257813-2.214844-.378906-.304687-.050782-.605468-.105469-.910156-.152344-.753906-.117188-1.511718-.222656-2.273437-.328125-.289063-.039063-.578125-.082031-.871094-.121094-.785156-.101563-1.574219-.191406-2.363281-.28125-.269532-.027344-.539063-.0625-.808594-.089844-.832031-.085937-1.671875-.160156-2.511719-.230469-.226562-.019531-.453125-.042968-.679687-.058593-.925782-.074219-1.859375-.132813-2.796875-.183594-.136719-.007813-.277344-.019531-.414063-.027344-2.167968-.113281-4.351562-.171875-6.546875-.171875-1.226562 0-2.445312.023438-3.664062.058594-.320313.007812-.636719.023438-.957031.035156-.898438.035156-1.792969.074219-2.683594.125-.382813.023438-.761719.046875-1.140625.074219-.863281.058594-1.722657.125-2.582031.203125-.347657.03125-.699219.058594-1.046876.089844-1.058593.105468-2.113281.21875-3.164062.347656-.125.015625-.253906.027344-.378906.042969-1.195313.152343-2.382813.320312-3.566406.503906-.265626.042969-.527344.089844-.789063.132813-.90625.144531-1.8125.300781-2.710937.46875-.359376.066406-.714844.136718-1.074219.203124-.828125.160157-1.652344.332032-2.472657.507813-.34375.074219-.6875.148437-1.03125.226563-.933593.207031-1.859374.429687-2.78125.660156-.210937.050781-.421874.101562-.628906.152344-1.152344.296874-2.300781.605468-3.441406.929687-.140625.042969-.28125.085937-.421875.125-.976563.285156-1.949219.578125-2.914063.886719-.304687.097656-.609374.199218-.914062.296875-.820312.265625-1.636719.539062-2.449219.824219-.3125.109374-.628906.21875-.941406.332031-.867187.308593-1.726563.628906-2.585937.960937-.222657.082032-.445313.164063-.664063.25-2.1875.855469-4.34375 1.769532-6.46875 2.742188-.226563.101562-.449219.210937-.675781.316406-.832032.382812-1.660156.78125-2.480469 1.183594-.265625.128906-.527344.261718-.789063.394531-.828124.414063-1.648437.835937-2.464843 1.269531-.207031.109375-.417969.21875-.625.328125-2.070313 1.113281-4.105469 2.28125-6.105469 3.507813-.128906.078125-.253906.160156-.382812.238281-.855469.527344-1.703126 1.066406-2.542969 1.613281-.207031.136719-.417969.273438-.628907.414063-.789062.519531-1.574218 1.050781-2.351562 1.589843-.179688.125-.363281.25-.542969.378907-1.9375 1.359375-3.832031 2.769531-5.6875 4.234375-.007812.007812-.019531.015625-.027343.023437-.890626.703125-1.765626 1.421875-2.636719 2.148438-.15625.132812-.3125.265625-.46875.398437-.742188.628906-1.480469 1.265625-2.207031 1.910156-.160157.140626-.320313.28125-.480469.425782-.804688.71875-1.601563 1.445312-2.382813 2.1875-.050781.046875-.101562.089844-.152344.136718-1.722656 1.632813-3.394531 3.3125-5.023437 5.039063-.113281.121094-.226563.246094-.34375.367187-.679687.726563-1.351563 1.464844-2.015625 2.207032-.144531.164062-.285156.324218-.429688.484375-.675781.769531-1.34375 1.542969-2.003906 2.328125-.085937.105468-.171875.207031-.257812.308594-1.515625 1.820312-2.980469 3.683593-4.394532 5.589843-.078124.109375-.15625.21875-.238281.328125-.601562.816406-1.195312 1.644532-1.777343 2.476563-14.027344 20.074219-22.261719 44.496093-22.261719 70.84375 0 3.164062.121093 6.296875.355469 9.402343h246.996093c.234375-3.105468.355469-6.238281.355469-9.402343zm0 0" fill="url(#o)"/><path d="m348.039062 493.601562h152.480469c7.960938 0 13.464844-7.910156 10.785157-15.359374-.277344-.734376-.566407-1.460938-.859376-2.179688-.136718-.332031-.261718-.667969-.402343-.996094-.464844-1.089844-.953125-2.164062-1.460938-3.230468-.203125-.425782-.414062-.839844-.625-1.261719-.347656-.703125-.699219-1.398438-1.070312-2.089844-.230469-.4375-.46875-.875-.707031-1.3125-.398438-.710937-.804688-1.417969-1.222657-2.121094-.214843-.359375-.421875-.730469-.640625-1.089843-.621094-1.007813-1.257812-2.007813-1.917968-2.988282-.207032-.3125-.425782-.613281-.640626-.917968-.492187-.710938-.988281-1.417969-1.503906-2.117188-.277344-.375-.558594-.746094-.839844-1.117188-.492187-.644531-.992187-1.277343-1.5-1.90625-.273437-.339843-.546874-.683593-.824218-1.019531-.714844-.855469-1.445313-1.699219-2.191406-2.527343-.144532-.160157-.289063-.316407-.433594-.476563-.742188-.808594-1.503906-1.605469-2.277344-2.386719-.292969-.296875-.597656-.589844-.898438-.882812-.59375-.585938-1.199218-1.160156-1.8125-1.730469-.320312-.292969-.640624-.589844-.964843-.878906-.695313-.625-1.402344-1.238281-2.121094-1.839844-.226563-.191406-.449219-.390625-.683594-.578125-.9375-.769531-1.890625-1.519531-2.863281-2.25-.273438-.210938-.558594-.40625-.839844-.613281-.722656-.53125-1.457031-1.054688-2.199218-1.566407-.351563-.238281-.703126-.476562-1.058594-.710937-.734375-.488281-1.480469-.964844-2.234375-1.433594-.3125-.195312-.621094-.390625-.9375-.582031-1.054688-.632812-2.117188-1.25-3.199219-1.839844-.167969-.09375-.339844-.175781-.511719-.265625-.929687-.5-1.867187-.980469-2.816406-1.445312-.363281-.175781-.726563-.34375-1.089844-.515625-.800781-.378906-1.605469-.742188-2.417969-1.09375-.371093-.160156-.738281-.324219-1.109374-.476563-.996094-.417969-2.003907-.8125-3.019532-1.191406-.164062-.0625-.324218-.128906-.488281-.1875-1.175781-.429687-2.367187-.828125-3.566406-1.207031-.34375-.109375-.695313-.207032-1.042969-.3125-.882812-.265625-1.765625-.519532-2.660156-.757813-.40625-.105469-.8125-.214843-1.222656-.316406-.929688-.230469-1.863282-.445313-2.804688-.648437-.320312-.066407-.640625-.144532-.964844-.210938-1.25-.25-2.511718-.476562-3.777344-.671875-.269531-.042969-.542968-.074219-.8125-.113281-1.015624-.148438-2.039062-.277344-3.066406-.390625-.417968-.042969-.839844-.082031-1.261718-.121094-.933594-.085937-1.871094-.15625-2.8125-.214844-.398438-.023437-.796876-.050781-1.195313-.070312-1.316406-.058594-2.636719-.101563-3.96875-.101563-1.382813 0-2.753906.039063-4.117187.105469-.4375.023437-.875.058594-1.3125.085937-.921876.058594-1.84375.125-2.757813.210938-.515625.050781-1.027344.113281-1.542969.167969-.832031.097656-1.660156.199219-2.480468.316406-.539063.078125-1.074219.164063-1.609376.25-.792968.128906-1.585937.273437-2.375.425781-.53125.101563-1.066406.203125-1.59375.316406-.796874.171876-1.585937.359376-2.375.550782-.5.121094-1.007812.238281-1.507812.367187-.859375.230469-1.710938.476563-2.5625.730469-.410156.121094-.824219.230469-1.230469.359375-29.964843 9.398437-52.761719 34.9375-58.261719 66.429687zm0 0" fill="url(#p)"/><path d="m.761719 478.03125c-2.863281 7.511719 2.683593 15.570312 10.722656 15.570312h489.03125c8.039063 0 13.585937-8.058593 10.722656-15.570312-5.574219-14.613281-15.070312-27.289062-27.191406-36.757812h-456.09375c-12.121094 9.46875-21.617187 22.144531-27.191406 36.757812zm0 0" fill="url(#q)"/><g fill="#ffb92d"><path d="m135.320312 417.964844c0 3.050781-2.472656 5.523437-5.523437 5.523437-3.046875 0-5.519531-2.472656-5.519531-5.523437 0-3.050782 2.472656-5.519532 5.519531-5.519532 3.050781 0 5.523437 2.46875 5.523437 5.519532zm0 0"/><path d="m193.96875 427.210938c0 4.828124-3.917969 8.742187-8.746094 8.742187s-8.742187-3.914063-8.742187-8.742187c0-4.828126 3.914062-8.742188 8.742187-8.742188s8.746094 3.914062 8.746094 8.742188zm0 0"/><path d="m176.277344 402.804688c0 7.429687-6.023438 13.449218-13.453125 13.449218-7.425781 0-13.449219-6.019531-13.449219-13.449218 0-7.429688 6.023438-13.453126 13.449219-13.453126 7.429687 0 13.453125 6.023438 13.453125 13.453126zm0 0"/><path d="m476.046875 455.410156c-1.589844-3.542968-5.746094-5.128906-9.289063-3.539062-3.542968 1.585937-5.128906 5.742187-3.539062 9.285156 1.585938 3.542969 5.742188 5.128906 9.285156 3.542969 3.542969-1.585938 5.128906-5.746094 3.542969-9.289063zm0 0"/><path d="m455.046875 443.316406c-2.441406-5.449218-8.839844-7.890625-14.289063-5.449218-5.449218 2.441406-7.890624 8.839843-5.449218 14.289062 2.441406 5.453125 8.839844 7.890625 14.289062 5.449219 5.449219-2.441407 7.890625-8.839844 5.449219-14.289063zm0 0"/></g></svg>