<?xml version="1.0" encoding="iso-8859-1"?>
<!-- Generator: Adobe Illustrator 19.0.0, SVG Export Plug-In . SVG Version: 6.00 Build 0)  -->
<svg version="1.1" id="Capa_1" xmlns="http://www.w3.org/2000/svg" xmlns:xlink="http://www.w3.org/1999/xlink" x="0px" y="0px"
	 viewBox="0 0 512 512" style="enable-background:new 0 0 512 512;" xml:space="preserve">
<path style="fill:#499421;" d="M182.861,150.204c-4.328,0-7.837,3.509-7.837,7.837v19.331h-1.884c-1.842,0-3.341-1.498-3.341-3.341
	v-11.81c0-4.328-3.509-7.837-7.837-7.837c-4.328,0-7.837,3.509-7.837,7.837v11.81c0,10.485,8.529,19.014,19.014,19.014h1.884v42.336
	c0,4.328,3.509,7.837,7.837,7.837c4.328,0,7.837-3.509,7.837-7.837v-77.34C190.698,153.713,187.189,150.204,182.861,150.204z"/>
<g>
	<path style="fill:#FFCB47;" d="M373.431,338.386c0,0,77.968-12.117,138.569-135.771v275.166H310.338"/>
	<path style="fill:#FFCB47;" d="M0,381.284c0,0,104.1-136.352,265.529-186.505c0,0,32.912,167.698,246.471,186.505v90.578
		c0,16.386-13.284,29.67-29.67,29.67H29.67c-16.386,0-29.67-13.284-29.67-29.67V381.284z"/>
</g>
<path style="fill:#E58B25;" d="M265.529,194.78c0,0-120.675,119.108-120.675,235.092v1.985
	c-44.095,9.864-67.887,25.83-144.844,25.83H0v-76.403C0,381.284,104.103,244.936,265.529,194.78z"/>
<path style="fill:#FFD77D;" d="M512,202.617v178.667c-58.901-5.183-104.061-21.703-138.574-42.904
	C373.426,338.381,451.396,326.27,512,202.617z"/>
<path style="fill:#F9B721;" d="M512,452.4v19.461c0,16.386-13.284,29.67-29.67,29.67H29.67c-16.386,0-29.67-13.284-29.67-29.67
	v-14.174c111.386,0,111.386-33.437,222.772-33.437s111.386,33.437,222.772,33.437C473.569,457.687,494.54,455.577,512,452.4z"/>
<path style="fill:#96C133;" d="M120.166,154.384c-4.328,0-7.837,3.509-7.837,7.837v16.112c0,5.232-4.256,9.488-9.488,9.488h-1.235
	v-41.273c0-4.328-3.509-7.837-7.837-7.837s-7.837,3.509-7.837,7.837v96.635c-5.066-0.19-9.13-4.358-9.13-9.47v-23.427
	c0-4.328-3.509-7.837-7.837-7.837s-7.837,3.509-7.837,7.837v23.427c0,13.754,11.095,24.959,24.804,25.152v62.182
	c0,4.328,3.509,7.837,7.837,7.837s7.837-3.509,7.837-7.837V203.494h1.235c13.874,0,25.161-11.287,25.161-25.161V162.22
	C128.003,157.892,124.494,154.384,120.166,154.384z"/>
<circle style="fill:#FF9A47;" cx="375.86" cy="91.97" r="81.502"/>
<g>
	<path style="fill:#E58B25;" d="M201.671,407.247c-3.21,0-6.159-2.024-7.309-5.017c-1.194-3.108-0.252-6.767,2.336-8.874
		c5.546-4.516,14.004,0.459,12.669,7.509C208.676,404.518,205.397,407.247,201.671,407.247z"/>
	<path style="fill:#E58B25;" d="M222.568,395.231c-3.341,0-6.396-2.205-7.437-5.376c-1.03-3.141,0.054-6.719,2.71-8.704
		c5.855-4.376,14.248,1.243,12.271,8.338C229.18,392.843,226.056,395.231,222.568,395.231z"/>
</g>
<g>
	<path style="fill:#FFCB47;" d="M474.389,479.344c-3.343,0-6.395-2.203-7.437-5.376c-1.029-3.138,0.053-6.713,2.703-8.704
		c5.392-4.051,13.37,0.438,12.506,7.204C481.668,476.34,478.308,479.344,474.389,479.344z"/>
	<path style="fill:#FFCB47;" d="M462.373,496.585c-3.271,0-6.282-2.108-7.38-5.194c-1.059-2.976-0.189-6.419,2.184-8.509
		c5.141-4.526,13.535-0.421,13.009,6.442C469.875,493.363,466.433,496.585,462.373,496.585z"/>
	<path style="fill:#FFCB47;" d="M30.307,422.919c-7.025,0-10.505-9.031-5.186-13.703c5.197-4.564,13.693-0.33,12.984,6.634
		C37.701,419.808,34.297,422.919,30.307,422.919z"/>
	<path style="fill:#FFCB47;" d="M30.307,397.842c-7.031,0-10.497-9.026-5.186-13.703c5.195-4.576,13.694-0.322,12.984,6.638
		C37.7,394.734,34.294,397.842,30.307,397.842z"/>
</g>
<path style="fill:#E58B25;" d="M201.671,380.08c-3.404,0-6.52-2.29-7.496-5.558c-0.96-3.212,0.252-6.793,3.02-8.702
	c5.881-4.054,13.954,1.556,12.026,8.507C208.29,377.684,205.159,380.08,201.671,380.08z"/>
<g>
</g>
<g>
</g>
<g>
</g>
<g>
</g>
<g>
</g>
<g>
</g>
<g>
</g>
<g>
</g>
<g>
</g>
<g>
</g>
<g>
</g>
<g>
</g>
<g>
</g>
<g>
</g>
<g>
</g>
</svg>
