<?xml version="1.0" encoding="iso-8859-1"?>
<!-- Generator: Adobe Illustrator 19.0.0, SVG Export Plug-In . SVG Version: 6.00 Build 0)  -->
<svg version="1.1" id="Capa_1" xmlns="http://www.w3.org/2000/svg" xmlns:xlink="http://www.w3.org/1999/xlink" x="0px" y="0px"
	 viewBox="0 0 512 512" style="enable-background:new 0 0 512 512;" xml:space="preserve">
<path style="fill:#32D736;" d="M478.163,126.718L388.097,5.629c-5.704-7.505-18.314-7.505-24.019,0l-90.066,121.089
	c-7.505,9.906-0.298,24.018,12.01,24.018h45.033V239.6c0,5.105-2.403,9.908-6.604,12.61L256,297.842l-68.451-45.632
	c-4.202-2.703-6.604-7.505-6.604-12.61v-88.864h45.033c12.308,0,19.515-14.111,12.01-24.018L147.922,5.629
	c-5.704-7.505-18.314-7.505-24.019,0L33.837,126.718c-7.505,9.906-0.298,24.018,12.01,24.018H90.88v105.077
	c0,23.416,11.108,45.933,30.022,60.044l84.062,63.045c3.903,2.703,6.004,7.205,6.004,12.01v106.078
	c0,8.405,6.604,15.011,15.011,15.011h60.044c8.407,0,15.011-6.606,15.011-15.011V390.911c0-4.805,2.102-9.307,6.004-12.01
	l84.062-63.045c18.914-14.111,30.022-36.628,30.022-60.044V150.735h45.033C478.462,150.735,485.668,136.624,478.163,126.718z"/>
<path style="fill:#10BB67;" d="M466.153,150.735H421.12v105.077c0,23.416-11.108,45.933-30.022,60.044l-84.062,63.045
	c-3.903,2.703-6.004,7.205-6.004,12.01v106.078c0,8.405-6.604,15.011-15.011,15.011h-30.022V297.842l68.451-45.632
	c4.202-2.703,6.604-7.505,6.604-12.61v-88.864h-45.033c-12.308,0-19.515-14.111-12.01-24.018L364.077,5.629
	c5.704-7.505,18.314-7.505,24.019,0l90.066,121.089C485.668,136.624,478.462,150.735,466.153,150.735z"/>
<g>
</g>
<g>
</g>
<g>
</g>
<g>
</g>
<g>
</g>
<g>
</g>
<g>
</g>
<g>
</g>
<g>
</g>
<g>
</g>
<g>
</g>
<g>
</g>
<g>
</g>
<g>
</g>
<g>
</g>
</svg>
