<svg xmlns="http://www.w3.org/2000/svg" xmlns:xlink="http://www.w3.org/1999/xlink" viewBox="0 0 271.45 276.85"><defs><style>.cls-1,.cls-10,.cls-11,.cls-12,.cls-13,.cls-14,.cls-15,.cls-16,.cls-17,.cls-18,.cls-19,.cls-2,.cls-20,.cls-21,.cls-22,.cls-23,.cls-24,.cls-25,.cls-26,.cls-27,.cls-28,.cls-29,.cls-3,.cls-30,.cls-31,.cls-32,.cls-33,.cls-34,.cls-35,.cls-36,.cls-37,.cls-38,.cls-39,.cls-4,.cls-40,.cls-41,.cls-42,.cls-43,.cls-44,.cls-5,.cls-6,.cls-7,.cls-8,.cls-9{fill-rule:evenodd;}.cls-1{fill:url(#linear-gradient);}.cls-2{fill:#143d18;}.cls-3{fill:#235921;}.cls-4{fill:url(#linear-gradient-2);}.cls-5{fill:#22452f;}.cls-6{fill:url(#linear-gradient-3);}.cls-7{fill:#346d29;}.cls-8{fill:#2e6d38;}.cls-9{fill:#264c34;}.cls-10{fill:#8cc920;}.cls-11{fill:url(#linear-gradient-4);}.cls-12{fill:url(#linear-gradient-5);}.cls-13{fill:url(#linear-gradient-6);}.cls-14{fill:#476416;}.cls-15{fill:url(#linear-gradient-7);}.cls-16{fill:url(#linear-gradient-8);}.cls-17{fill:url(#linear-gradient-9);}.cls-18{fill:url(#linear-gradient-10);}.cls-19{fill:url(#linear-gradient-11);}.cls-20{fill:#037032;}.cls-21{fill:url(#linear-gradient-12);}.cls-22{fill:url(#linear-gradient-13);}.cls-23{fill:url(#linear-gradient-14);}.cls-24{fill:url(#linear-gradient-15);}.cls-25{fill:url(#linear-gradient-16);}.cls-26{fill:url(#linear-gradient-17);}.cls-27{fill:url(#linear-gradient-18);}.cls-28{fill:#4e3e2c;}.cls-29{fill:#b79b5e;}.cls-30{fill:url(#linear-gradient-19);}.cls-31{fill:#5d534d;}.cls-32{fill:#423424;}.cls-33{fill:#ffe183;}.cls-34{fill:#434242;}.cls-35{fill:#af8969;}.cls-36{fill:#775e47;}.cls-37{fill:#53412f;}.cls-38{fill:#826351;}.cls-39{fill:#9f8752;}.cls-40{fill:#5b5b5b;}.cls-41{fill:#86776f;}.cls-42{fill:url(#linear-gradient-20);}.cls-43{fill:#d7b56d;}.cls-44{fill:#fefefe;}</style><linearGradient id="linear-gradient" x1="170.05" y1="181.42" x2="116.93" y2="273.2" gradientUnits="userSpaceOnUse"><stop offset="0" stop-color="#264c34"/><stop offset="1" stop-color="#00923c"/></linearGradient><linearGradient id="linear-gradient-2" x1="193.43" y1="234.21" x2="197.51" y2="260.3" gradientUnits="userSpaceOnUse"><stop offset="0" stop-color="#264c34"/><stop offset="1" stop-color="#44863b"/></linearGradient><linearGradient id="linear-gradient-3" x1="204.79" y1="190.52" x2="257.28" y2="215.04" gradientUnits="userSpaceOnUse"><stop offset="0" stop-color="#44863b"/><stop offset="1" stop-color="#5aa529"/></linearGradient><linearGradient id="linear-gradient-4" x1="10.02" y1="196.96" x2="23.25" y2="221.14" gradientUnits="userSpaceOnUse"><stop offset="0" stop-color="#00923c"/><stop offset="1" stop-color="#8cc920"/></linearGradient><linearGradient id="linear-gradient-5" x1="43.58" y1="211.43" x2="54.17" y2="223.43" xlink:href="#linear-gradient-4"/><linearGradient id="linear-gradient-6" x1="89.14" y1="217.46" x2="73.78" y2="223.47" xlink:href="#linear-gradient-4"/><linearGradient id="linear-gradient-7" x1="186.58" y1="12.05" x2="189.94" y2="31.63" gradientUnits="userSpaceOnUse"><stop offset="0" stop-color="#259938"/><stop offset="1" stop-color="#8cc920"/></linearGradient><linearGradient id="linear-gradient-8" x1="205.09" y1="44.22" x2="193.79" y2="51.28" xlink:href="#linear-gradient-7"/><linearGradient id="linear-gradient-9" x1="151.62" y1="26.12" x2="170.86" y2="36.89" gradientUnits="userSpaceOnUse"><stop offset="0" stop-color="#22bf4b"/><stop offset="1" stop-color="#008544"/></linearGradient><linearGradient id="linear-gradient-10" x1="155.71" y1="54.82" x2="165.06" y2="46" xlink:href="#linear-gradient-9"/><linearGradient id="linear-gradient-11" x1="234.53" y1="95.97" x2="214.94" y2="79.03" xlink:href="#linear-gradient-9"/><linearGradient id="linear-gradient-12" x1="219.31" y1="65.45" x2="207.84" y2="67.22" xlink:href="#linear-gradient-9"/><linearGradient id="linear-gradient-13" x1="152.19" y1="91.17" x2="142.83" y2="95.23" xlink:href="#linear-gradient-9"/><linearGradient id="linear-gradient-14" x1="156.25" y1="77.7" x2="172.31" y2="81.76" xlink:href="#linear-gradient-7"/><linearGradient id="linear-gradient-15" x1="117.48" y1="194.91" x2="107.77" y2="167.56" xlink:href="#linear-gradient-4"/><linearGradient id="linear-gradient-16" x1="97.98" y1="107.69" x2="113.69" y2="118.46" xlink:href="#linear-gradient-4"/><linearGradient id="linear-gradient-17" x1="89.1" y1="132.37" x2="76.57" y2="135.37" xlink:href="#linear-gradient-9"/><linearGradient id="linear-gradient-18" x1="71.06" y1="147.74" x2="48.29" y2="133.98" xlink:href="#linear-gradient-9"/><linearGradient id="linear-gradient-19" x1="172.55" y1="130.16" x2="178.73" y2="130.16" gradientUnits="userSpaceOnUse"><stop offset="0" stop-color="#86776f"/><stop offset="1" stop-color="#4d443f"/></linearGradient><linearGradient id="linear-gradient-20" x1="81.08" y1="212.29" x2="84.27" y2="210.09" xlink:href="#linear-gradient-19"/></defs><title>earth_god_dungeon</title><g id="Layer_2" data-name="Layer 2"><g id="Layer_1-2" data-name="Layer 1"><path class="cls-1" d="M204.62,124.38l-9.69,45.39q-11.28,15.54-22.58,31.07c-11.56,8.64-59.42,53.48-39.7,69.24,3,2.45,7.2,1.72,8.55-1.71-2.36-.79-3.49-2.4-3.54-4.14-.12-3.85,3.61-5.24,6.85-4.32,3.56,1,5.41,5,3.79,8.92-6.73,16.2-35.84,9.9-28.82-37.8,1.81-12.29,4.5-19.36,17.07-41.81L180,144.64Z"/><path class="cls-2" d="M145.9,215.15l.75,10.46c-2.83,3.26-5.56,6.65-8,10.07l-11.76,9-8.34-4.14c.15-3,.46-6.13,1-9.5,1.35-9.19,3.2-15.46,9.3-27.43Z"/><path class="cls-3" d="M191.93,208c-17-2.31-16.56,27.27-13,34.27,11.27,22.42,30.56,21.3,36.05,29.3,7.65-9.21,17.54-23.26,12.4-37.49-.34-14-10.78-16.9-22.75-21.36Z"/><path class="cls-2" d="M226.41,228.06c-13.65.7-27.62,6.25-44.63,19.21a48.17,48.17,0,0,1-2.89-5c-3.52-7-3.91-36.58,13-34.27l12.66,4.72C214.62,216.45,223.56,219.05,226.41,228.06Z"/><path class="cls-4" d="M214.94,271.56c-3-27.86-3.17-31.34-14.75-56.86l-17.78-3.48c-7,7.57-6.18,25.75-3.52,31,11.27,22.42,30.56,21.3,36.05,29.3Z"/><path class="cls-5" d="M207.61,232.16c-8,3.07-16.45,8-25.83,15.11a48.17,48.17,0,0,1-2.89-5c-2.66-5.29-3.53-23.47,3.52-31l17.78,3.48C203.47,221.94,205.84,227.4,207.61,232.16Z"/><path class="cls-6" d="M193.25,186.72c-3.31,4.21-12.8,4.14-17.65,6.61s-12.28,9.85-5.69,14.43c3.63,2.53,1.46-2.84,2.49-.77,1.82,3.63,6.13,4.8,9.95,5.71,1,.24,2.56-.56,2.77.12,1.28,4.15,21.19,10.2,26,10.31,3.1.07,3.19-2.09,3.46-2,.91.18,2.89,2.19,4.48,2.52,4.26.88,10.57-1.3,15.12-1.55,1.75-.09,3.11.8,4.58.93,3,.28,0-2.43,5-1,4.36,1.3,9.9-1.57,14.58-1.38,4.24.18,9-1.61,13.15-2.88-1.31,0-5.88-16.1-7.17-18.84-2.51-5.33-7.52-11.55-12.84-14.37-4.3-2.27-3.92-.71-6.33-5.45-3.32-6.51-13.55-9.82-20.49-11.43-2.32-.54-4.49-.95-6.71-.27s-1,.61-1.39-1.33c-.24-1.12-6.93-.3-8.6-.07-6,.81-11.25,5.73-13.46,11.36-.76,1.94-.33,4.62.27,6.55C195.39,186.07,193.16,185.64,193.25,186.72Z"/><path class="cls-7" d="M218.89,167.19c-18,15-14.83,41.67,4.38,45.23a24.46,24.46,0,0,0-.21-3.87c0,4,12.13,8.1,14.32,7.5.07-.5-.79-4.23-.68-4.6,3.86,5.26,11.22,8,17.74,9.57-3.67.68-7.51,2-10.72,1-5-1.48-2,1.23-5,1-1.47-.13-2.83-1-4.58-.93-4.55.25-10.86,2.43-15.12,1.55-1.59-.33-3.57-2.34-4.48-2.52-.27-.05-.36,2.11-3.46,2-4.8-.11-24.71-6.16-26-10.31-.21-.68-1.74.12-2.77-.12-3.82-.91-8.13-2.08-9.95-5.71-1-2.07,1.14,3.3-2.49.77-6.59-4.58.93-12,5.69-14.43s14.34-2.4,17.65-6.61c-.09-1.08,2.14-.65,1.48-2.79-.6-1.93-1-4.61-.27-6.55,2.21-5.63,7.44-10.55,13.46-11.36,1.67-.23,8.36-1.05,8.6.07.43,1.94-.73,2,1.39,1.33A7,7,0,0,1,218.89,167.19Z"/><path class="cls-8" d="M195.1,175.94c3.76.11,8.79-1.81,9.45-3.46-6,8.22,8,7.13,11.95,5.92-3.58,8,6.88,10.86,16.94,5.42-7.47,8,5.81,12.07,12.15,10.11,1.29-.39-.78.76-1,1.18-1.93,4.8,13.47,13.06,25,19.33a10.52,10.52,0,0,0,1.63,3.27c-13.29-5.88-59.1-31.52-77-31.1a5.2,5.2,0,0,1-1.07-.07c.16-.86,2.09-.6,1.47-2.61s-1-4.61-.27-6.55C194.65,176.9,194.87,176.41,195.1,175.94Z"/><path class="cls-9" d="M209.65,179.23a30.08,30.08,0,0,0-2.56,9.64c-5-1.48-9.37-2.34-12.76-2.26a5.15,5.15,0,0,1-1.07-.07c.16-.86,2.09-.6,1.47-2.61s-1-4.61-.27-6.55c.19-.48.41-1,.64-1.44,3.76.11,8.79-1.81,9.45-3.46C200.76,177.7,205,179.16,209.65,179.23Z"/><path class="cls-2" d="M207.65,166.06l6.8,15.4,11.2-2.45,6.43-9.16a70,70,0,0,0-7.46-2.16c-2.32-.54-4.49-.95-6.71-.27s-1,.61-1.39-1.33c-.24-1.12-6.93-.3-8.6-.07Z"/><path class="cls-2" d="M194.84,195.68c.11,1.39,10.4-7.94,10.4-7.94l-7.18-13.29-1.73-.63a19.53,19.53,0,0,0-1.87,3.56c-.76,1.94-.33,4.62.27,6.55.66,2.14-1.57,1.71-1.48,2.79-1.55,2-4.46,3-7.62,3.81l1.25,3Z"/><path class="cls-10" d="M186.46,29.54c4.6,13.38,27.35-3.82,13.78-23.13-8-11.39-25.12-7-28.28,8.43-1.47,7.18.21,15.34,3.7,22.3,29.9,75.53-12.79,118-66.8,161-12.07,9.61-27.58,25-42.54,28-23.48,4.77-20.9-7-16.59-10,2.08-1.43,6.31-.72,4.73,4.72,10.22,2.48,6.29-13.51-3.77-12.32-8.44,1-15.69,14.22-.37,22-23.42,7.82-53.15-8.34-42.07-26.78,3.7-6.14,12.75-7.34,14.71.38,1.2,4.74-3.19,10-8.94,5.34-6.15,11,5.75,15.7,8.24,8.08,4.49,3.67,9.06-6.61,9.7-9.62,1.68-8-1.26-17.88-13.21-18.81-9-.71-17.92,6.74-18.67,18.31-1.67,25.9,23.82,31.35,44.65,30.19,28.53-1.59,45.38-8.62,71.72-26.88q17.13-11.86,34.3-23.71c20.21-13.16,25.37-25,33.74-35.24,5.51-6.74,14-5.4,8.28,10-10,27-35.34,49.69-65.17,44.05l-5.51,6.31c39.41,8.41,71.68-14.88,82.67-53.37,9.06-31.75,9.57-56.94-11.48-100.84-.34-.69-.7-1.4-1.09-2.14,2.44-8.06,6.84-2.49,6.73-.46a3.24,3.24,0,0,0,3.74-2.63A3.32,3.32,0,0,0,201,49.05a4.14,4.14,0,0,0,1.82-2.63c1.52-7.12-12.2-8.19-12.53,5.89-6-11-14.38-25.22-11-35.17a9.92,9.92,0,0,1,5.41-6.07,3.83,3.83,0,0,0,7.49,1.57,3.78,3.78,0,0,0-.24-2.36,10.42,10.42,0,0,1,6.2,3.43,2.61,2.61,0,0,0-.44,4.51,3.42,3.42,0,0,0-1.39,6.67c-.46.5-1,1-1.52,1.54C192.24,21.36,184.89,23.47,186.46,29.54Z"/><path class="cls-11" d="M22.65,230l-3.32,4.94C7.75,231.09-.92,222.92.08,207.47c.75-11.57,9.68-19,18.67-18.31C30.7,190.09,33.64,200,32,208c-.64,3-5.21,13.29-9.7,9.62-2.49,7.62-14.39,2.89-8.24-8.08,5.75,4.62,10.14-.6,8.94-5.34-2-7.72-11-6.52-14.71-.38C1.52,215,9.84,225.33,22.65,230Z"/><path class="cls-12" d="M46.84,231.55l6.84,5.39c1.34-.15,2.66-.31,4-.49l4.29-9.52c-18.72,2.48-16.21-8-12.19-10.74,2.08-1.43,6.31-.72,4.73,4.72,10.22,2.48,6.29-13.51-3.77-12.32-8.44,1-15.69,14.22-.37,22A36.05,36.05,0,0,1,46.84,231.55Z"/><path class="cls-13" d="M105.1,201.23l14.11,7.64-2.76,1.91c-19,13.18-33.08,20.51-50.15,24.16v-8.75h0c13.45-2.74,27.34-15.44,38.78-25Zm18,9.75,2.22,1.2-.65.5q-1.31-.23-2.61-.51Z"/><path class="cls-2" d="M93.31,221.15l1.09-11a124.21,124.21,0,0,1-14.18,10.22l.6,1.6,7.55,2.9Z"/><path class="cls-14" d="M158.73,151.81,158.5,153l-.28-.59a259.1,259.1,0,0,1-29.61,29.43l9.44,8.56,4,2.66,8.69-6c14.5-9.44,21.25-18.21,27-26.19l-.31-1.94L168,147.8l-6.66.83c-.83,1.07-1.69,2.12-2.56,3.18Z"/><path class="cls-14" d="M200.35,171l-6.48-2.35L189.21,170a77.74,77.74,0,0,1-4.76,8.2l4.64,11.22A80.62,80.62,0,0,0,200.35,171Z"/><path class="cls-15" d="M176.18,38.48l6.86-.06c-3.48-7.55-5.79-15.21-3.73-21.28a9.92,9.92,0,0,1,5.41-6.07,3.83,3.83,0,0,0,7.49,1.57,3.78,3.78,0,0,0-.24-2.36,10.42,10.42,0,0,1,6.2,3.43,2.61,2.61,0,0,0-.44,4.51,3.42,3.42,0,0,0-1.39,6.67c-.46.5-1,1-1.52,1.54-2.58-5.07-9.93-3-8.36,3.11,4.6,13.38,27.35-3.82,13.78-23.13-8-11.39-25.12-7-28.28,8.43-1.47,7.18.21,15.34,3.7,22.3C175.84,37.59,176,38,176.18,38.48Z"/><path class="cls-16" d="M189.26,50.39,190,54l2.32,2.09-.17-.31c2.44-8.06,6.84-2.49,6.73-.46a3.24,3.24,0,0,0,3.74-2.63A3.32,3.32,0,0,0,201,49.05a4.14,4.14,0,0,0,1.82-2.63c1.52-7.12-12.2-8.19-12.53,5.89Z"/><path class="cls-14" d="M142.09,207.53l.45,6.2a74,74,0,0,1-20.45-1.56l5.51-6.31a48.69,48.69,0,0,0,13.06.7l1.43,1ZM102.38,220c4.45-2.69,9.09-5.74,14.07-9.2l15-10.4-9.56-6.46-17.71,10Z"/><path class="cls-17" d="M179.08,47.41C171.25,39,163,38,157.84,36.28c-8.74-2.91-4.51-10.92-7-18.84-.83-2.59-2.39-5.2-5.73-10.14A67.11,67.11,0,0,1,145.44,18c-.91,10.8-5.88,10.67.64,19.4C151.92,45.17,167.26,38,179.08,47.41Z"/><path class="cls-18" d="M170.43,44.65C155,58.51,151.21,52.9,141.93,56.9c12.13-.22,20.64,8.3,22.8-1.8C165.4,52,167.85,48.11,170.43,44.65Z"/><path class="cls-19" d="M205.6,85.15c15.77-12.19,16.36-14,28.75-1a52.8,52.8,0,0,0,17.37,12.44c-14.94.09-15.69,2.63-27.86-5.48C218.53,87.62,214.59,86.37,205.6,85.15Z"/><path class="cls-20" d="M205.6,85.15c19.19-7.13,16.07-1.51,30,6.34,3.87,2.18,7.73,2.92,16.11,5.15-14.94.09-15.69,2.63-27.86-5.48C218.53,87.62,214.59,86.37,205.6,85.15Z"/><path class="cls-21" d="M205.48,82.66c7.81-8.83,9.76-9.16,13.39-20.36,1.37-4.24,2.82-6.75,6.71-12.89-10.91,8.8-15.52,8.19-17.12,16.92Q207,74.49,205.48,82.66Z"/><path class="cls-22" d="M139.8,111.86c6-10.14,7.85-10.84,9.28-22.52.54-4.43,1.5-7.17,4.14-13.94-9,10.72-13.68,11-13.59,19.86Q139.72,103.57,139.8,111.86Z"/><path class="cls-23" d="M185.87,84.24c-2.93-9.47-7.46-16.74-14.32-18.43-11.11-2.74-20.29,7.12-17.16,18.35,2,7.23,10.59,15.27,18,10.34,5.47-3.66,2.44-13.88-3.56-11-2.34,1.11-1.65,6.2,1.21,4.78-2.86-1.66,2.1-3.28,2.68,0,.33,1.9-2.16,4-3.36,4.08-2.54.18-5.91-2.47-4.65-5.18-2.06,1.68-5.49-.88-2.8-3.44-6.1-3.87,0-9.72,4.67-6.79C167.43,64.72,179.72,72.46,185.87,84.24Z"/><path class="cls-24" d="M103.26,106.78c-16.72,2.87-9.45,21.13,1.85,22.64,6.12.31,9.63-3.25,10.87-7s-.86-8-3.87-8.35c-3.91-.42-8.35,6.16-2.07,8.34-1,2.61-11.06,3.11-9.12-5.62,1.86-8.32,14.62-13.5,19.65-3.39,2.5,5,2.53,12.23-1.38,16.85-5.16,6.1-12.08,8.4-21.09,12,2.38-2,8.84-7.29,3.47-8.14-7-8.33-14.88,1.23-7.62,3.43-2.32-1.78-1.07-4.77,2.33-2.85,4,2.25,1.54,5.94-1.77,9q-2.12.89-4.35,1.91c-7.78,3.59-14.91,6.46-18.31,15-9,22.67,19.05,39.12,37.44,45.59l3.84-3.63c-17.49-10.78-25.59-17.94-26.93-26.16-1.74-10.79,4-20.58,13.42-27,10.45-7.07,22.2-11.94,27.63-18.84,9.19-11.69-4.9-31.14-19.47-29.94C104.28,101,102,102.85,103.26,106.78Z"/><path class="cls-25" d="M128.9,115.57,122.28,122a17.45,17.45,0,0,0-1.71-8.59c-5-10.11-17.79-4.93-19.65,3.39-1.94,8.73,8.14,8.23,9.12,5.62-6.28-2.18-1.84-8.76,2.07-8.34,3,.32,5.12,4.54,3.87,8.35s-4.75,7.31-10.87,7c-11.3-1.51-18.57-19.77-1.85-22.64-1.26-3.93,1-5.75,4.52-6C116.83,100,125.69,107.2,128.9,115.57Z"/><path class="cls-26" d="M80.63,149.53c2.81-6.7,8.42-14.4,5.66-21.48l-3.61-9.28-3.9,7.44c-2.68,5.11-3.4,7.46.52,12.66C81.25,141.45,81.3,142.77,80.63,149.53Z"/><path class="cls-27" d="M78.14,150.62q-2.37-6-4.75-12l-2.61.09c-.22-1.13-.45-2.25-.67-3.37C53.33,130.17,52.4,132,38,139.58c13.37-1.69,14.08,6.76,28.3,7.4C71.52,147.22,73.55,147.21,78.14,150.62Z"/><path class="cls-20" d="M78.14,150.62c-10.64-15.2-21.76-16.23-40.13-11,13.37-1.69,14.08,6.76,28.3,7.4C71.52,147.22,73.55,147.21,78.14,150.62Z"/><polygon class="cls-14" points="201.4 129.61 199.94 129.64 201.42 137.14 195.03 143.28 184.58 141.93 176.6 133.07 180.73 121.27 184.9 113.5 199.42 116.13 202.27 120.91 201.4 129.61"/><polygon class="cls-28" points="190.86 125.36 185.99 125.49 179.64 130.65 164.1 128.42 162.42 116.43 169.32 109.89 186.18 109.78 190.41 113.02 190.86 125.36"/><polygon class="cls-29" points="190.88 135.06 187.38 117.37 184.12 115.63 173.03 114.76 167.25 117.23 169.68 123.83 178.71 124.91 179.02 120.12 180.45 126.77 167.72 125.09 165.78 116.19 171.66 112.71 185.09 113.51 188.56 114.89 190.86 125.36 191.97 114.17 188.3 108.02 169.63 104.64 158.09 115.82 158.94 129.83 169.21 141.22 182.66 142.96 190.88 135.06"/><polygon class="cls-30" points="187.38 117.37 180.62 131.47 166.91 132.56 158.94 129.83 169.21 141.22 182.66 142.96 190.88 135.06 187.38 117.37"/><polygon class="cls-31" points="182.66 142.96 180.59 131.47 166.91 132.56 166.84 132.54 166.74 132.6 169.21 141.22 182.66 142.96"/><polygon class="cls-32" points="188.3 108.02 188.56 114.89 190.86 125.36 191.97 114.17 188.3 108.02"/><polygon class="cls-33" points="158.94 129.83 160.46 116.89 169.63 104.64 158.09 115.82 158.94 129.83"/><polygon class="cls-34" points="200.26 152.62 201.65 161.41 207.82 167.32 220.27 162.27 220.38 153.57 212.64 145.13 204.78 145.84 200.26 152.62"/><polygon class="cls-35" points="206.05 157.68 209.23 162.78 214.84 157.63 207.15 150.14 196.32 159 205.99 174.13 227.06 164.02 219.15 140.67 200.25 143 200.26 152.62 207.34 148.46 216.92 157.55 208.78 165.1 206.05 157.68"/><path class="cls-33" d="M203.34,170l-4-10.05,7.66-9.69L196.32,159l7,11Zm4-21.53-7.08,4.16V143l1.77,7Z"/><polygon class="cls-34" points="148.5 143.82 146.72 153.05 144.45 147.85 131.08 151.31 127.44 161.3 127.94 172.71 144.92 177.76 158.61 161.54 152.07 144.67 148.5 143.82"/><polygon class="cls-35" points="144.51 159.3 141.08 153.41 134.25 156.77 132.8 167.46 144.18 172.12 153.75 161.1 144.71 141.46 123.77 146.96 116.6 175.69 127.26 185.36 137.77 186.06 156.53 173.9 166.64 153.88 157.16 142.74 148.5 143.82 155.66 161.85 144.75 174.31 131.17 168.66 132.56 155.72 141.82 150.99 144.51 159.3"/><polygon class="cls-33" points="116.6 175.69 126.58 151.32 144.71 141.46 123.77 146.96 116.6 175.69"/><polygon class="cls-36" points="166.64 153.88 168.66 166.17 161.98 188.64 138.71 192.96 127.26 185.36 137.77 186.06 156.53 173.9 166.64 153.88"/><polygon class="cls-32" points="156.53 173.9 161.98 188.64 138.71 192.96 137.77 186.06 156.53 173.9"/><polygon class="cls-32" points="194.68 192.81 194.81 202.22 190.6 220.86 160.84 214.87 172.4 194.63 194.68 192.81"/><path class="cls-37" d="M188.93,191.88c.12,1.39,10.41-7.94,10.41-7.94l-7.18-13.29-6.74-2.45-9.28,2.66L175.7,177,181,189.75Z"/><polygon class="cls-29" points="185.42 168.2 181.33 177.92 180.97 189.75 175.7 177.01 176.14 170.86 185.42 168.2"/><polygon class="cls-38" points="175.7 177.01 181.33 177.92 180.97 189.75 175.7 177.01"/><polygon class="cls-33" points="175.7 177.01 177.61 172.03 185.42 168.2 176.14 170.86 175.7 177.01"/><polygon class="cls-29" points="184.41 205.44 174.41 199.88 167.96 210.82 188.16 216.09 194.68 192.81 174.88 182.99 158.78 197.5 149.47 224.16 198.19 231.92 200.75 209.91 194.81 202.22 188.68 217.87 165.73 211.99 173.81 197.25 184.41 205.44"/><polygon class="cls-33" points="149.47 224.16 161.23 198.71 174.88 182.99 158.78 197.5 149.47 224.16"/><polygon class="cls-36" points="198.19 231.92 176.36 240.1 166.16 237.76 149.47 224.16 198.19 231.92"/><polygon class="cls-29" points="136.65 201.31 137.67 215.49 117.61 230.84 96.2 220.2 98.78 197.68 116.49 187.7 136.65 201.31"/><polygon class="cls-36" points="136.65 201.31 119.02 223.25 96.2 220.2 117.61 230.84 137.67 215.49 136.65 201.31"/><polygon class="cls-36" points="117.61 230.84 119.02 223.25 96.2 220.2 117.61 230.84"/><polygon class="cls-33" points="96.2 220.2 102.75 199.53 116.49 187.7 98.78 197.68 96.2 220.2"/><polygon class="cls-36" points="126.66 245.08 121.51 224.18 107.1 240.47 113.94 248.58 126.66 245.08"/><polygon class="cls-32" points="121.51 224.18 125.02 211.18 132 233.22 125.73 241.32 121.51 224.18"/><polygon class="cls-35" points="107.1 240.47 101.16 232.99 109.77 211.33 125.02 211.18 121.51 224.18 107.1 240.47"/><polygon class="cls-33" points="101.16 232.99 111.06 213.45 124.98 211.36 124.99 211.32 124.5 211.19 109.77 211.33 101.16 232.99"/><polygon class="cls-32" points="149.5 249.34 153.84 239.37 135.25 242.6 149.5 249.34"/><polygon class="cls-39" points="153.84 239.37 147.69 233.25 136.15 233.77 135.25 242.6 153.84 239.37"/><polygon class="cls-32" points="96.24 243.08 84.77 255.23 68.91 249.13 72.04 233.54 87.33 235.39 96.24 243.08"/><polygon class="cls-32" points="95.17 242.16 88.44 245.15 81.91 254.13 84.77 255.23 96.24 243.08 95.17 242.16"/><polygon class="cls-32" points="77.29 242.67 72.66 248.79 82.49 248.5 82.79 244.61 77.29 242.67"/><polygon class="cls-40" points="89.97 246.57 84.26 255.03 77 252.24 86.88 238.44 88.58 236.47 92.77 243.62 89.97 246.57"/><polygon class="cls-40" points="76.62 238.55 71.5 247.45 72.7 250.1 75.65 245.81 78.32 242.47 76.62 238.55"/><polygon class="cls-29" points="79.72 246.11 75.65 245.81 76.62 238.55 85.69 239.68 89.25 252.63 69.57 255.44 59.12 242.98 67.15 229.05 88.49 233.03 96.24 243.08 89.97 246.57 86.88 238.44 75.52 236.7 73.82 247.38 79.72 246.11"/><polygon class="cls-33" points="59.12 242.98 68.29 230.89 74.78 230.47 67.15 229.05 59.12 242.98"/><polygon class="cls-32" points="89.25 252.63 82.5 260.42 68.61 260.81 59.12 242.98 69.57 255.44 89.25 252.63"/><polygon class="cls-41" points="69.57 255.44 68.61 260.81 59.12 242.98 69.57 255.44"/><polygon class="cls-29" points="89.14 216.98 90.55 202.84 79.22 201.03 72.75 207.46 76.65 217.79 84.2 220.7 89.14 216.98"/><polygon class="cls-42" points="90.55 202.84 86.92 210.48 83.42 213.74 72.75 207.46 76.65 217.79 84.2 220.7 89.14 216.98 90.55 202.84"/><polygon class="cls-32" points="89.14 216.98 86.92 210.48 83.42 213.74 84.2 220.7 89.14 216.98"/><polygon class="cls-33" points="72.75 207.46 80.08 202.97 90.55 202.84 79.22 201.03 72.75 207.46"/><polygon class="cls-36" points="68 185.07 69.42 193.1 65.66 198.42 57.5 196.68 54.78 193.04 57.42 184.42 68 185.07"/><polygon class="cls-29" points="57.5 196.68 64.6 194.48 68 185.07 57.42 184.42 54.78 193.04 57.5 196.68"/><polygon class="cls-32" points="69.42 193.1 64.6 194.48 65.66 198.42 69.42 193.1"/><polygon class="cls-33" points="54.78 193.04 57.5 196.68 57.39 193.11 59 186.36 68 185.07 57.42 184.42 54.78 193.04"/><polygon class="cls-43" points="109.34 172.08 110.59 178.67 102.68 181.92 98.18 173.37 104.38 170.4 109.34 172.08"/><polygon class="cls-33" points="100.72 178.19 100.12 174.18 104.38 170.4 98.18 173.37 100.72 178.19"/><polygon class="cls-32" points="196.32 159 205.25 179.21 218.41 176.33 227.06 164.02 205.99 174.13 196.32 159"/><polygon class="cls-41" points="205.99 174.13 205.25 179.21 196.32 159 205.99 174.13"/><polygon class="cls-36" points="110.59 178.67 105.77 185.1 101.14 185.33 98.18 173.37 102.68 181.92 110.59 178.67"/><path class="cls-44" d="M101.62,108.17c-8.31,3.31-9.35,8.17-4.28,15.49C93.55,115.94,96.35,111.45,101.62,108.17Z"/><path class="cls-44" d="M162.49,67.7c-8.31,3.31-9.47,13.75-4.4,21.06C154.29,81.05,157.21,71,162.49,67.7Z"/><path class="cls-44" d="M190.51,23.86c-3.35.51-4.5,4-2.8,7.14C186.84,28.06,188.46,24.7,190.51,23.86Z"/><path class="cls-44" d="M200.5,42.47c-4.52-2.28-8.82,2.83-9.12,6.7C192.52,46.12,196,41.91,200.5,42.47Z"/><path class="cls-44" d="M197.17,18.77c-2.41.37-3.23,2.89-2,5.12C194.53,21.79,195.7,19.37,197.17,18.77Z"/><path class="cls-44" d="M199,14c-1.73.27-2.33,2.08-1.45,3.69A3.23,3.23,0,0,1,199,14Z"/><path class="cls-44" d="M188.14.34c-17.68,3.9-17.67,21-13.28,30.92C169.41,7.83,182.28,3.62,188.14.34Z"/><path class="cls-44" d="M82.62,150.31C73.37,155.22,68.19,166,73.48,179,70.73,163.74,76.37,155.67,82.62,150.31Z"/><path class="cls-44" d="M22.58,190.41C10.7,188.9,1.27,196.32,1.7,212.12,4.2,195.65,13.16,191.18,22.58,190.41Z"/><path class="cls-44" d="M54.41,209.72c-5.5-2-14,3.53-11.63,12.1C44.17,212.64,49.16,210.15,54.41,209.72Z"/><path class="cls-44" d="M103.92,106.39c-.48-4.81,1.42-4.77,6.8-5.07C106.33,102.13,104.79,103.5,103.92,106.39Z"/><path class="cls-44" d="M82.11,121c-2.9,6.82-6.28,9.67-3.26,15.14C78.44,131.53,80,126.36,82.11,121Z"/><path class="cls-44" d="M42.34,137.89c9.63-4.53,10.07-5.7,19-4.16C50.93,132.76,48.69,136.5,42.34,137.89Z"/><path class="cls-44" d="M145.85,84.23c-6.83,8.22-5.06,7.31-5,18.2C140.93,92.93,143.16,88.44,145.85,84.23Z"/><path class="cls-44" d="M217.49,55.78C208.66,63,210.64,62.31,208,73,210.43,63.69,213.77,59.57,217.49,55.78Z"/><path class="cls-44" d="M146.52,16.13c-1.2,13.73-5.7,12.73-.16,19.86C143,28.91,147.39,24.05,146.52,16.13Z"/><path class="cls-44" d="M209.55,82.86C218.09,77.38,220,73,227,78.79,220.33,74.52,215.46,79.54,209.55,82.86Z"/></g></g></svg>