<svg height="512pt" viewBox="0 -9 512 512" width="512pt" xmlns="http://www.w3.org/2000/svg"><path d="m25.601562 222.070312h-17.066406c-4.714844 0-8.535156-3.820312-8.535156-8.535156 0-4.710937 3.820312-8.53125 8.535156-8.53125h17.066406c4.710938 0 8.53125 3.820313 8.53125 8.53125 0 4.714844-3.820312 8.535156-8.53125 8.535156zm0 0" fill="#805333"/><path d="m25.601562 273.269531h-17.066406c-4.714844 0-8.535156-3.820312-8.535156-8.535156 0-4.710937 3.820312-8.53125 8.535156-8.53125h17.066406c4.710938 0 8.53125 3.820313 8.53125 8.53125 0 4.714844-3.820312 8.535156-8.53125 8.535156zm0 0" fill="#805333"/><path d="m25.601562 401.269531h-17.066406c-4.714844 0-8.535156-3.820312-8.535156-8.535156 0-4.710937 3.820312-8.53125 8.535156-8.53125h17.066406c4.710938 0 8.53125 3.820313 8.53125 8.53125 0 4.714844-3.820312 8.535156-8.53125 8.535156zm0 0" fill="#805333"/><path d="m503.464844 392.734375h-17.066406c-4.710938 0-8.53125-3.820313-8.53125-8.53125 0-4.714844 3.820312-8.535156 8.53125-8.535156h17.066406c4.714844 0 8.535156 3.820312 8.535156 8.535156 0 4.710937-3.820312 8.53125-8.535156 8.53125zm0 0" fill="#805333"/><path d="m486.398438 293.066406v193.535156c0 4.714844-3.820313 8.535157-8.53125 8.535157h-443.734376c-4.710937 0-8.53125-3.820313-8.53125-8.535157v-392.191406c-.085937-5.765625 1.847657-11.378906 5.460938-15.871094 70.226562-86.445312 182.269531-78.335937 182.269531-78.335937s0 42.664063 8.535157 42.664063c8.53125 0 25.597656 102.402343 25.597656 102.402343s17.070312-8.535156 25.601562 0c3.5 3.496094 2.730469 20.992188 1.195313 42.75-1.28125 17.496094-2.988281 37.71875-3.5 55.808594-5.425781-3.828125-12.125-5.402344-18.6875-4.394531-12.734375 2.3125-21.910157 13.515625-21.675781 26.453125v84.183593h42.667968c2.261719 0 4.433594-.902343 6.035156-2.5 1.597657-1.601562 2.5-3.773437 2.5-6.035156v-59.734375h25.597657l8.535156-2.386719v70.65625c0 4.710938 3.820313 8.53125 8.53125 8.53125h34.132813c4.714843 0 8.535156-3.820312 8.535156-8.53125v-76.800781c-.027344-5.035156-1.507813-9.953125-4.265625-14.164062.511719-.597657.9375-1.109375 1.449219-1.625 1.535156-1.703125 3.070312-3.410157 4.4375-4.949219 3.75-4.40625 7.925781-8.433594 12.457031-12.03125.351562-.257812.722656-.484375 1.109375-.683594.5625-.371094 1.207031-.605468 1.878906-.679687 34.132812.160156 67.132812 12.265625 93.269531 34.21875 5.757813 4.933593 9.089844 12.128906 9.128907 19.710937zm0 0" fill="#cb8252"/><path d="m486.398438 293.066406v193.535156c0 4.714844-3.820313 8.535157-8.53125 8.535157h-443.734376c-4.710937 0-8.53125-3.820313-8.53125-8.535157v-221.867187c85.332032-51.199219 247.464844-76.796875 247.464844-76.796875l1.195313.082031c-1.28125 17.496094-2.988281 37.71875-3.5 55.808594-5.425781-3.828125-12.125-5.402344-18.6875-4.394531-12.734375 2.3125-21.910157 13.515625-21.675781 26.453125v75.648437c0 4.714844 3.820312 8.535156 8.535156 8.535156h34.132812c2.261719 0 4.433594-.902343 6.035156-2.5 1.597657-1.601562 2.5-3.773437 2.5-6.035156v-59.734375h25.597657l8.535156-2.386719v70.65625c0 4.710938 3.820313 8.53125 8.53125 8.53125h34.132813c4.714843 0 8.535156-3.820312 8.535156-8.53125v-76.800781c-.027344-5.035156-1.507813-9.953125-4.265625-14.164062.511719-.597657.9375-1.109375 1.449219-1.625 1.535156-1.703125 3.070312-3.410157 4.4375-4.949219 3.75-4.40625 7.925781-8.433594 12.457031-12.03125.351562-.257812.722656-.484375 1.109375-.683594.5625-.371094 1.207031-.605468 1.878906-.679687 34.132812.160156 67.132812 12.265625 93.269531 34.21875 5.757813 4.933593 9.089844 12.128906 9.128907 19.710937zm0 0" fill="#cb8252"/><path d="m274.261719 188.019531-1.195313-.082031s-162.132812 25.597656-247.464844 76.796875v-51.199219c85.332032-51.199218 221.863282-68.265625 221.863282-68.265625s17.070312-8.535156 25.601562 0c3.5 3.496094 2.730469 20.992188 1.195313 42.75zm0 0" fill="#805333"/><path d="m247.464844 145.269531s-136.53125 17.066407-221.863282 68.265625v-119.125c-.085937-5.765625 1.847657-11.378906 5.460938-15.871094 70.226562-86.445312 182.269531-78.335937 182.269531-78.335937s0 42.664063 8.535157 42.664063c8.53125 0 25.597656 102.402343 25.597656 102.402343zm0 0" fill="#cb8252"/><g fill="#59474e"><path d="m256 384.203125c14.136719 0 25.601562 11.460937 25.601562 25.597656v85.335938h-51.203124v-85.335938c0-14.136719 11.464843-25.597656 25.601562-25.597656zm0 0"/><path d="m170.667969 401.269531c14.136719 0 25.597656 11.460938 25.597656 25.597657v68.269531h-51.199219v-68.269531c0-14.136719 11.460938-25.597657 25.601563-25.597657zm0 0"/><path d="m85.332031 418.335938c14.140625 0 25.601563 11.460937 25.601563 25.601562v51.199219h-51.199219v-51.199219c0-14.140625 11.460937-25.601562 25.597656-25.601562zm0 0"/><path d="m366.933594 495.136719h-51.199219v-68.269531c0-14.136719 11.460937-25.597657 25.597656-25.597657 14.140625 0 25.601563 11.460938 25.601563 25.597657zm0 0"/><path d="m452.265625 495.136719h-51.199219v-51.199219c0-14.140625 11.460938-25.601562 25.601563-25.601562 14.136719 0 25.597656 11.460937 25.597656 25.601562zm0 0"/><path d="m145.066406 350.070312v-59.734374c0-14.140626 11.460938-25.601563 25.601563-25.601563 14.136719 0 25.597656 11.460937 25.597656 25.601563v59.734374c0 4.710938-3.820313 8.53125-8.53125 8.53125h-34.132813c-4.714843 0-8.535156-3.820312-8.535156-8.53125zm0 0"/><path d="m59.734375 358.601562v-42.664062c0-14.140625 11.460937-25.601562 25.597656-25.601562 14.140625 0 25.601563 11.460937 25.601563 25.601562v42.664062c0 4.714844-3.820313 8.535157-8.535156 8.535157h-34.132813c-4.710937 0-8.53125-3.820313-8.53125-8.535157zm0 0"/><path d="m452.265625 358.601562v-42.664062c0-14.140625-11.460937-25.601562-25.597656-25.601562-14.140625 0-25.601563 11.460937-25.601563 25.601562v42.664062c0 4.714844 3.820313 8.535157 8.535156 8.535157h34.132813c2.261719 0 4.433594-.898438 6.03125-2.5 1.601563-1.601563 2.5-3.769531 2.5-6.035157zm0 0"/><path d="m59.734375 153.800781c-4.714844 0-8.535156-3.820312-8.535156-8.53125v-34.132812c0-4.714844 3.820312-8.535157 8.535156-8.535157 4.710937 0 8.53125 3.820313 8.53125 8.535157v34.132812c0 4.710938-3.820313 8.53125-8.53125 8.53125zm0 0"/><path d="m93.867188 136.734375c-4.714844 0-8.535157-3.820313-8.535157-8.53125v-42.667969c0-4.710937 3.820313-8.53125 8.535157-8.53125 4.710937 0 8.53125 3.820313 8.53125 8.53125v42.667969c0 4.710937-3.820313 8.53125-8.53125 8.53125zm0 0"/><path d="m128 119.667969c-4.710938 0-8.535156-3.820313-8.535156-8.53125v-42.667969c0-4.710938 3.824218-8.53125 8.535156-8.53125s8.535156 3.820312 8.535156 8.53125v42.667969c0 4.710937-3.824218 8.53125-8.535156 8.53125zm0 0"/><path d="m162.132812 111.136719c-4.710937 0-8.53125-3.820313-8.53125-8.535157v-42.664062c0-4.714844 3.820313-8.535156 8.53125-8.535156 4.714844 0 8.535157 3.820312 8.535157 8.535156v42.664062c0 4.714844-3.820313 8.535157-8.535157 8.535157zm0 0"/><path d="m196.265625 102.601562c-4.710937 0-8.53125-3.820312-8.53125-8.53125v-34.132812c0-4.714844 3.820313-8.535156 8.53125-8.535156 4.714844 0 8.535156 3.820312 8.535156 8.535156v34.132812c0 4.710938-3.820312 8.53125-8.535156 8.53125zm0 0"/></g></svg>