<svg id="Capa_1" enable-background="new 0 0 480 480" height="512" viewBox="0 0 480 480" width="512" xmlns="http://www.w3.org/2000/svg"><g><path d="m414 310h-348c-11.047 0-20-8.953-20-20v-48c0-11.047 8.953-20 20-20h348c11.047 0 20 8.953 20 20v48c0 11.047-8.953 20-20 20z" fill="#ccc033"/><path d="m103.2 266c0-11.043 8.953-20 20-20h312v-4c0-11.043-8.953-20-20-20h-348c-11.047 0-20 8.957-20 20v48c0 11.043 8.953 20 20 20h36z" fill="#99af17"/><path d="m388 479.5h-296v-161.574c0-21.223 17.203-38.426 38.426-38.426h219.148c21.223 0 38.426 17.203 38.426 38.426z" fill="#e58d23"/><path d="m186.426 279.5h-56c-21.223 0-38.426 17.203-38.426 38.426v161.574h56v-161.574c0-21.223 17.203-38.426 38.426-38.426z" fill="#bf6c0d"/><path d="m406 480h-332v-33.52c0-61.09 49.523-110.617 110.617-110.617h110.766c61.094 0 110.621 49.523 110.621 110.617v33.52z" fill="#ccc033"/><path d="m383.867 452.543c-3.313 0-6-2.688-6-6 0-34.086-20.492-64.223-52.207-76.777-3.082-1.219-4.59-4.707-3.371-7.789 1.219-3.078 4.707-4.59 7.789-3.371 36.32 14.379 59.793 48.895 59.793 87.934-.004 3.319-2.687 6.003-6.004 6.003z" fill="#eacf32"/><path d="m212.742 447.879c0-13.77-11.148-24.93-24.898-24.93-13.754 0-24.902 11.16-24.902 24.93 0 13.766 11.148 24.926 24.902 24.926 13.75 0 24.898-11.16 24.898-24.926z" fill="#99af17"/><path d="m151.465 457.625c0-61.129 49.5-110.68 110.559-110.68h81.672c-14.582-7.094-30.949-11.078-48.25-11.078h-110.891c-61.059 0-110.555 49.551-110.555 110.676v33.457h77.465z" fill="#99af17"/><path d="m144.863 230.141h38.066v-134.43c0-12.492-10.129-22.617-22.621-22.617h-15.445c-12.492 0-22.621 10.125-22.621 22.617v111.809c-.004 12.492 10.125 22.621 22.621 22.621z" fill="#8c4c17"/><path d="m335.586 61.551h-15.453c-12.492 0-22.617 10.047-22.617 22.438v19.535c24.477 18.059 40.332 46.969 40.332 79.555v35.41c11.43-1.125 20.355-10.688 20.355-22.324v-112.181c0-12.386-10.129-22.433-22.617-22.433z" fill="#8c4c17"/><path d="m168.871 203.188c0-17.699-14.465-32.051-32.309-32.051-17.84 0-32.305 14.352-32.305 32.051 0 17.703 14.465 32.051 32.305 32.051 17.844-.001 32.309-14.348 32.309-32.051z" fill="#ffd59a"/><path d="m241.098 396.434h-2.199c-24.805 0-44.914-20.109-44.914-44.914v-109.579h92.027v109.579c0 24.804-20.11 44.914-44.914 44.914z" fill="#ffeacf"/><path d="m225.844 350.789v-108.848h-31.859v108.848c0 25.207 20.602 45.645 46.012 45.645 5.602 0 10.965-.992 15.93-2.813-17.56-6.426-30.083-23.176-30.083-42.832z" fill="#ffd59a"/><path d="m196.117 192.973c0-6.813-5.566-12.34-12.438-12.34-6.867 0-12.438 5.527-12.438 12.34 0 6.816 5.57 12.34 12.438 12.34 6.872 0 12.438-5.524 12.438-12.34z" fill="#a56021"/><path d="m309.199 192.973c0-6.813-5.57-12.34-12.438-12.34-6.871 0-12.441 5.527-12.441 12.34 0 6.816 5.57 12.34 12.441 12.34 6.868 0 12.438-5.524 12.438-12.34z" fill="#a56021"/><path d="m406 480h-332v-33.52c0-61.09 49.523-110.617 110.617-110.617h110.766c61.094 0 110.621 49.523 110.621 110.617v33.52z" fill="#ff624b"/><path d="m383.867 452.543c-3.313 0-6-2.688-6-6 0-20.984-7.906-40.996-22.266-56.352-2.262-2.418-2.133-6.215.285-8.48 2.422-2.262 6.219-2.133 8.48.285 16.445 17.586 25.5 40.512 25.5 64.547.001 3.316-2.682 6-5.999 6z" fill="#ff9079"/><path d="m214.121 454.805c0 9.941-8.059 18-18 18s-18-8.059-18-18 8.059-18 18-18 18 8.058 18 18z" fill="#ff4b34"/><path d="m151.465 457.625c0-61.129 49.5-110.68 110.559-110.68h81.672c-14.582-7.094-30.949-11.078-48.25-11.078h-110.891c-61.059 0-110.555 49.551-110.555 110.676v33.457h77.465z" fill="#ff4b34"/><path d="m144.863 230.141h38.066v-134.43c0-12.492-10.129-22.617-22.621-22.617h-15.445c-12.492 0-22.621 10.125-22.621 22.617v111.809c-.004 12.492 10.125 22.621 22.621 22.621z" fill="#8c4c17"/><path d="m335.586 61.551h-15.453c-12.492 0-22.617 10.047-22.617 22.438v19.535c24.477 18.059 40.332 46.969 40.332 79.555v35.41c11.43-1.125 20.355-10.688 20.355-22.324v-112.181c0-12.386-10.129-22.433-22.617-22.433z" fill="#8c4c17"/><path d="m372.109 203.188c0 17.672-14.328 32-32 32-17.676 0-32-14.328-32-32s14.324-32 32-32c17.672 0 32 14.328 32 32z" fill="#ffeacf"/><path d="m168.563 203.188c0 17.672-14.324 32-32 32-17.672 0-32-14.328-32-32s14.328-32 32-32c17.675 0 32 14.328 32 32z" fill="#ffd59a"/><path d="m241.098 396.434h-2.199c-24.805 0-44.914-20.109-44.914-44.914v-109.579h92.027v109.579c0 24.804-20.11 44.914-44.914 44.914z" fill="#ffeacf"/><path d="m225.844 350.789v-108.848h-31.859v108.848c0 25.207 20.602 45.645 46.012 45.645 5.602 0 10.965-.992 15.93-2.813-17.56-6.426-30.083-23.176-30.083-42.832z" fill="#ffd59a"/><path d="m243.436 318.055h-4.473c-53.93 0-97.648-43.719-97.648-97.652v-54.09c0-53.93 43.719-97.652 97.648-97.652h4.473c53.93 0 97.652 43.723 97.652 97.652v54.09c.001 53.933-43.722 97.652-97.652 97.652z" fill="#ffeacf"/><path d="m146.706 136.059h.008c-3.496 10.172-5.402 21.074-5.402 32.43v49.617c0 54.922 43.879 100.461 98.828 101.027 17.668.184 34.293-4.219 48.75-12.086-4.359.551-8.805.82-13.324.789-55.105-.371-99.199-46.016-99.199-101.094v-49.551c0-3.781.215-7.512.625-11.18.633-5.684 5.508-9.949 11.23-9.949h147.473c-13.469-39.215-50.684-67.402-94.492-67.402-8.754.044-36.198 1.296-61.742 21.352-21.197 16.64-29.712 37.297-32.755 46.047z" fill="#ffd59a"/><path d="m207.129 192.973c0 6.629-5.371 12-12 12s-12-5.371-12-12c0-6.625 5.371-12 12-12s12 5.375 12 12z" fill="#a56021"/><path d="m320.211 192.973c0 6.629-5.375 12-12 12-6.629 0-12-5.371-12-12 0-6.625 5.371-12 12-12 6.625 0 12 5.375 12 12z" fill="#a56021"/><path d="m358.129 105.902h-236.258v-45.543c0-33.336 27.024-60.359 60.359-60.359h115.535c33.336 0 60.359 27.023 60.359 60.359v45.543z" fill="#e58d23"/><path d="m340.516 66.391c-3.313 0-6-2.684-6-6 0-20.27-16.469-36.762-36.715-36.762-3.313 0-6-2.684-6-6 0-3.312 2.688-6 6-6 26.863 0 48.715 21.879 48.715 48.762 0 3.316-2.688 6-6 6z" fill="#ffa730"/><path d="m268.711 87.102h-57.426c-8.707 0-15.766-7.063-15.766-15.77v-.695c0-8.707 7.059-15.77 15.766-15.77h57.426c8.711 0 15.77 7.063 15.77 15.77v.695c-.001 8.707-7.059 15.77-15.77 15.77z" fill="#ffd551"/><path d="m243.734 0h-61.637c-33.262 0-60.227 26.992-60.227 60.293v45.609h61.641v-45.609c.001-33.301 26.966-60.293 60.223-60.293z" fill="#bf6c0d"/><path d="m122.094 105.902h236.254v18.305c0 26.301-21.32 47.625-47.625 47.625h-141.004c-26.305 0-47.625-21.32-47.625-47.625z" fill="#ffa730"/><path d="m183.73 124.258v-18.359h-61.637v18.359c0 26.273 21.273 47.57 47.516 47.57h61.641c-26.242 0-47.52-21.297-47.52-47.57z" fill="#e58d23"/><path d="m238.406 138.867c0 9.941-8.059 18-18 18-9.938 0-18-8.059-18-18s8.063-18 18-18c9.942 0 18 8.059 18 18z" fill="#e58d23"/><path d="m171.781 479.5h-40v-146c0-2.211 1.789-4 4-4h32c2.211 0 4 1.789 4 4z" fill="#ffb74b"/><path d="m351.781 479.5h-40v-146c0-2.211 1.789-4 4-4h32c2.211 0 4 1.789 4 4z" fill="#ffb74b"/><g fill="#ffa730"><path d="m155.781 329.5h-20c-2.211 0-4 1.793-4 4v146h20v-146c0-2.207 1.789-4 4-4z"/><path d="m335.781 329.5h-20c-2.211 0-4 1.793-4 4v146h20v-146c0-2.207 1.789-4 4-4z"/></g></g></svg>