<svg id="Layer_1" data-name="Layer 1" xmlns="http://www.w3.org/2000/svg" xmlns:xlink="http://www.w3.org/1999/xlink" viewBox="0 0 2000 2000"><defs><style>.cls-1{fill:none;}.cls-2{fill:#aed76a;}.cls-3{clip-path:url(#clip-path);}.cls-4{fill:#fecfae;}.cls-5{fill:#8abd32;}.cls-6{fill:#993a23;}.cls-7{fill:#bc4d3b;}.cls-8{fill:#4e8bc1;}.cls-9{fill:#f9ebe8;}.cls-10{fill:#aa4226;}.cls-11{fill:#c9b3ad;}.cls-12{fill:#ead2cc;}.cls-13{fill:#1e1713;}.cls-14{fill:#387bad;}.cls-15{fill:#77a22f;}.cls-16{clip-path:url(#clip-path-2);}.cls-17{clip-path:url(#clip-path-3);}</style><clipPath id="clip-path"><path class="cls-1" d="M771.11,926.37S429.23,726.71,170.19,1023c-153,175.07-120.77,940,848.14,677.23,116.54-31.61,231.58-68.37,340-121.58,69.18-34,254.23-16.34,357.56-50.78,216.92-72.31,252.8-400.58,95.31-520.54S1222.13,525.13,771.11,926.37Z"/></clipPath><clipPath id="clip-path-2"><path class="cls-1" d="M1308.44,1204.55q-2.71-.67-5.7-1.36s-12.76-80-71.9-76.74c-92.73,7.12-74.28,88.31-74.28,88.31s-21.28-35-55.75-11.4c-28.19,17.94-17.55,51.91,2.11,70.11,0,0,32.87,44.55,120.17,47.18,1.15.08,2.31.15,3.46.19l15.34.57a115.6,115.6,0,0,0,35.26-4.14h0a115.33,115.33,0,0,0,57.84-37.35l.42-.5a35.85,35.85,0,0,0,3.32-4.81C1354.74,1247.25,1339.21,1212.17,1308.44,1204.55Z"/></clipPath><clipPath id="clip-path-3"><path class="cls-1" d="M1589.08,1054.59c-.69-8.71,1.54-18.33,8.47-28.66,22.33-33.31,64.75-3.39,64.75-3.39,15.11-11.36,28.43-6.85,28.43-6.85,14.33,3.28,20.71,12.94,23.37,22.88,11.54,79.33-68.41,95.75-68.41,95.75-7.89,3.43-19,23-62.94,23.67C1527.69,1158.77,1506.09,1072.16,1589.08,1054.59Z"/></clipPath></defs><path class="cls-2" d="M771.11,926.37S429.23,726.71,170.19,1023c-153,175.07-120.77,940,848.14,677.23,116.54-31.61,231.58-68.37,340-121.58,69.18-34,254.23-16.34,357.56-50.78,216.92-72.31,252.8-400.58,95.31-520.54S1222.13,525.13,771.11,926.37Z"/><g class="cls-3"><path class="cls-4" d="M1379.66,1215.54s54.65,66.4-24.23,116.79-446.54,4.38-539.88,208.16,86.12,238.26,209.54,214.16S945,1609.36,1120.85,1562.4c319.89-85.46,503.36-141.48,392.42-413.13S1379.66,1215.54,1379.66,1215.54Z"/></g><path class="cls-5" d="M660.86,991.4s-224.28-32.82-451.24,154.68c0,0,58.52-36.3,94.84-54.87S456.47,1000.14,660.86,991.4Z"/><path class="cls-5" d="M644.31,947.78s-185.92-53.53-399.43,79C244.88,1026.77,428.4,920.31,644.31,947.78Z"/><path class="cls-5" d="M706.8,1056.08s-287.5-17.88-555.14,243.56c0,0,76.85-57.22,120.89-84.58S445.1,1100,706.8,1056.08Z"/><path class="cls-5" d="M776,1115.76s-301.71,8.39-544.42,293.13c0,0,65.34-50.84,106.71-82.09S535.93,1182.8,776,1115.76Z"/><path class="cls-5" d="M859.48,1179.05S528.57,1243.85,325,1557.74c0,0,58.18-58.91,95.12-95.28S630.21,1276.73,859.48,1179.05Z"/><path class="cls-5" d="M1049.07,1236.56s-424.95,33-555.92,483c0,0,44.09-70.07,72.32-113.55S721.2,1323.87,1049.07,1236.56Z"/><polygon class="cls-6" points="1252.06 1266.67 1593.03 1097.56 1584.32 681.08 1422.54 526.57 1238.11 891.57 1252.06 1266.67"/><polygon class="cls-7" points="690.09 659.14 690.09 1018.23 1198.97 1266.67 1187.1 900.71 690.09 659.14"/><path class="cls-8" d="M1385.67,529.47l4.94-8.87-9.27-4.6c-.35-1-.68-2-1-3l-1.77,1.61L833.94,248.34c-.3,34.21-12.36,55.93-45.26,139.4C745,498.68,660.86,659.84,660.86,659.84,891.76,829.69,1140,911.76,1140,911.76a11.62,11.62,0,0,0,2.71-1.09C1173.65,898,1342.85,822.68,1385.67,529.47Z"/><path class="cls-9" d="M833.44,231.3l31-7.46s146.67,111.47,576.28,272l-29,24.77S1187,468.46,1160.52,437.84,843.18,255.66,843.18,255.66Z"/><path class="cls-10" d="M690.08,680.81v14.52s157.28,121.09,488.53,247.74V904.45Z"/><polygon class="cls-11" points="703.35 686.82 703.35 1022.85 711.8 1038.18 728 1036.54 729.39 698.74 703.35 686.82"/><polygon class="cls-12" points="684.61 676.96 684.61 1023.12 711.8 1038.18 710.67 690.23 684.61 676.96"/><polygon class="cls-11" points="1219.32 1290.34 1252.06 1272.44 1252.06 873.13 1209.67 899.5 1219.32 1290.34"/><polygon class="cls-12" points="1219.32 1290.34 1178.61 1267.71 1178.61 924.98 1219.32 891.57 1219.32 1290.34"/><polygon class="cls-12" points="1604.51 1112.01 1587.81 1106.84 1584.15 659.84 1624.86 711.48 1604.51 1112.01"/><path class="cls-12" d="M1167,926.37l-27-14.61s44.77-7.66,254.7-398.76l9.4,22.27S1289,866.87,1167,926.37Z"/><polygon class="cls-11" points="1638.95 1092.92 1604.51 1112.01 1604.51 689.41 1638.95 711.48 1638.95 1092.92"/><path class="cls-11" d="M1167,926.37s86.76-98.12,252.73-421.37l9.4,47s-124.22,265.84-227.33,396.67Z"/><path class="cls-11" d="M1422.41,554.29S1592.79,707.62,1669,723.63l18-34.22s-174.32-92.9-257.83-188.94l-10.67,29.93Z"/><path class="cls-12" d="M833.44,264.71l49.93,32.92a2016.34,2016.34,0,0,0,514.06,243.2q5.55,1.71,10.83,3.31V505s-161.39,10.23-574.82-273.7Z"/><polyline class="cls-11" points="1408.26 505 1440.74 495.83 1440.74 526.57 1408.26 545.36"/><polygon class="cls-12" points="1379.66 1215.54 1365.88 1210.21 1365.88 947.51 1491 897.75 1513.27 899.66 1379.66 1215.54"/><polygon class="cls-11" points="1379.66 1215.54 1379.66 951.68 1513.27 899.66 1513.27 1149.27 1379.66 1215.54"/><polygon class="cls-6" points="1399.95 1183.26 1399.95 973.6 1500.3 929.41 1500.3 1133.66 1399.95 1183.26"/><polygon class="cls-12" points="1402.33 877.62 1391.28 874.97 1389.3 699 1478.71 661.67 1489.86 663.06 1402.33 877.62"/><polygon class="cls-11" points="1401.05 702.88 1402.33 877.62 1488.62 836.58 1489.86 663.06 1401.05 702.88"/><polygon class="cls-13" points="1412.39 714.81 1413.07 858.83 1440.68 846.76 1438.06 702.11 1412.39 714.81"/><polygon class="cls-13" points="1479.01 681.85 1448.77 696.81 1451.23 842.15 1479.36 829.85 1479.01 681.85"/><polygon class="cls-12" points="1435.71 702.84 1438.13 847.87 1448.88 843.4 1446.42 697.54 1435.71 702.84"/><polygon class="cls-11" points="1409.73 750.23 1480.88 723.59 1480.62 735.42 1409.46 762.75 1409.73 750.23"/><polygon class="cls-11" points="1408.65 808.62 1481.96 779.22 1480.88 791.47 1408.66 821.14 1408.65 808.62"/><polygon class="cls-11" points="1441.16 693.55 1444.05 853.24 1454.54 845.58 1451.91 690.07 1441.16 693.55"/><polygon class="cls-11" points="1033.82 1097.97 1044.13 1095.67 1048.73 932.24 966.25 896.16 955.88 897.27 1033.82 1097.97"/><polygon class="cls-12" points="1037.75 935.66 1033.82 1097.97 954.31 1058.49 955.88 897.27 1037.75 935.66"/><polygon class="cls-13" points="1027.03 946.56 1024.15 1080.34 998.69 1068.7 1003.38 934.36 1027.03 946.56"/><polygon class="cls-13" points="965.66 914.9 993.52 929.27 988.96 1064.25 963.02 1052.38 965.66 914.9"/><polygon class="cls-11" points="1005.56 935.08 1001.03 1069.77 991.11 1065.45 995.69 929.99 1005.56 935.08"/><polygon class="cls-12" points="1028.94 979.51 963.27 953.65 963.33 964.64 1029 991.14 1028.94 979.51"/><polygon class="cls-12" points="1000.64 926.36 995.45 1074.67 985.82 1067.39 990.71 922.96 1000.64 926.36"/><polygon class="cls-11" points="866.47 1012.84 875.92 1010.74 880.14 860.92 804.53 827.84 795.02 828.86 866.47 1012.84"/><polygon class="cls-12" points="870.08 864.05 866.47 1012.84 793.59 976.65 795.02 828.86 870.08 864.05"/><polygon class="cls-13" points="860.25 874.05 857.6 996.68 834.26 986.01 838.57 862.86 860.25 874.05"/><polygon class="cls-13" points="803.99 845.02 829.53 858.2 825.35 981.93 801.57 971.05 803.99 845.02"/><polygon class="cls-11" points="840.56 863.52 836.41 986.99 827.32 983.03 831.52 858.85 840.56 863.52"/><polygon class="cls-12" points="862 904.25 801.8 880.54 801.85 890.62 862.05 914.92 862 904.25"/><polygon class="cls-12" points="862.09 953.99 800.08 927.9 800.83 938.35 861.89 964.65 862.09 953.99"/><polygon class="cls-12" points="836.05 855.53 831.3 991.48 822.47 984.81 826.95 852.41 836.05 855.53"/><polygon class="cls-11" points="1395.15 1053.72 1493.16 926.37 1506.38 929.41 1400.61 1067.64 1395.15 1053.72"/><path class="cls-14" d="M901.93,315.09S787.39,590.66,703,676c0,0,6,6.94,28.14-18.16S851.69,491.19,901.93,315.09Z"/><path class="cls-14" d="M968.13,365.51S867,634.92,788.69,719.84c0,0,6,6.51,26.43-18.4S925.54,537,968.13,365.51Z"/><path class="cls-14" d="M1055.68,409.44S953.19,680.24,873.45,765.91c0,0,6.15,6.48,26.95-18.63S1012.69,581.62,1055.68,409.44Z"/><path class="cls-14" d="M1156.41,453.28S1050,732.09,968.13,819.82c0,0,6.22,6.77,27.59-19S1111.36,630.78,1156.41,453.28Z"/><path class="cls-14" d="M1263.59,503.68S1153,780.85,1069.8,867.34c0,0,6.11,6.85,27.88-18.56S1215.86,680.48,1263.59,503.68Z"/><path class="cls-15" d="M1308.44,1204.55q-2.71-.67-5.7-1.36s-12.76-80-71.9-76.74c-92.73,7.12-74.28,88.31-74.28,88.31s-21.28-35-55.75-11.4c-28.19,17.94-17.55,51.91,2.11,70.11,0,0,32.87,44.55,120.17,47.18,1.15.08,2.31.15,3.46.19l15.34.57a115.6,115.6,0,0,0,35.26-4.14h0a115.33,115.33,0,0,0,57.84-37.35l.42-.5a35.85,35.85,0,0,0,3.32-4.81C1354.74,1247.25,1339.21,1212.17,1308.44,1204.55Z"/><path class="cls-15" d="M1589.08,1054.59c-.69-8.71,1.54-18.33,8.47-28.66,22.33-33.31,64.75-3.39,64.75-3.39,15.11-11.36,28.43-6.85,28.43-6.85,14.33,3.28,20.71,12.94,23.37,22.88,11.54,79.33-68.41,95.75-68.41,95.75-7.89,3.43-19,23-62.94,23.67C1527.69,1158.77,1506.09,1072.16,1589.08,1054.59Z"/><g class="cls-16"><path class="cls-5" d="M1132.42,1297.34s-45.72-57.89,0-57.55,50.63-15.36,52.59-42.82,78.66-58.93,117.73,6.22c0,0-3-112.15-12.78-125.88s-198.12,14.71-199.1,22.56-84.94,120.6-81.7,124.05,74.45,81.92,74.45,81.92Z"/></g><g class="cls-17"><path class="cls-5" d="M1645.69,1134.32s-66.25,19.34-71.85-30.72c-2.84-25.44,12-35.41,37.41-36.58,0,0-11.61-62.81,51-44.48,0,0-59.1-67.64-108.94-41.42s-83.75,159-68.35,176.18S1601.6,1262.5,1645.69,1134.32Z"/></g><polygon class="cls-11" points="1396.2 1061.38 1500.3 1018.69 1503.05 1029.23 1395.15 1076.52 1396.2 1061.38"/><polygon class="cls-12" points="1029.04 1033.77 961.39 1005.31 962.21 1016.71 1028.83 1045.4 1029.04 1033.77"/><polygon class="cls-11" points="1390.61 1186.64 1501.45 1023.12 1508.13 1033.54 1404.09 1191.27 1390.61 1186.64"/></svg>