<svg version="1.2" xmlns="http://www.w3.org/2000/svg" viewBox="0 0 512 512" width="512" height="512"><style>.a{fill:#823094}.b{fill:#e1f3ff}</style><path class="a" d="m486.7 256.9c-0.1 0.1 0.4 0-1.2 0-16.8 0-28.5 15.6-22.6 30.1-2.8 3 9.4-9.2-196.4 195.5-5.9 5.8-15.3 5.8-21.2 0-205.8-204.7-193.6-192.5-196.5-195.5 6.1-15.1-6.6-30.9-23.8-30.1q0 0 0 0c-17-26.6-25.6-55.5-25-85.1 2.4-116.3 144.3-202.1 255.9-104.5 111.5-97.5 253.5-11.9 255.8 104.5 0.6 29.6-7.9 58.5-25 85.1z"/><path class="b" d="m486.7 256.9c-6.6 10.4-14.5 20.4-23.7 30h-111.1c-5.5 0-10.6-3-13.2-7.9l-42-77.9-59.3 125.2c-5 10.6-19.8 11.6-26.2 1.6l-43-67.5-11.5 19.2c-2.7 4.5-7.6 7.3-12.8 7.3h-95.2c-9.1-9.6-17.1-19.6-23.7-30h110.4l19.6-32.7c5.7-9.5 19.5-9.9 25.5-0.4l41.4 65.1 60.4-127.4c5.3-11.1 21-11.5 26.8-0.7l51.7 96.1z"/></svg>