<svg xmlns="http://www.w3.org/2000/svg" viewBox="0 0 512 512" width="512" height="512">
	<style>
		tspan { white-space:pre }
		.shp0 { fill: #b0ac41 } 
		.shp1 { fill: #e1f3ff } 
	</style>
	<g id="Layer">
		<path id="Layer" class="shp0" d="M486.73 256.88C486.63 256.98 487.05 256.88 485.46 256.88C468.66 256.88 457.04 272.46 462.9 286.98C460.08 289.95 472.25 277.79 266.45 482.51C260.59 488.33 251.16 488.34 245.29 482.51C39.55 277.84 51.69 289.98 48.84 286.98C54.93 271.88 42.2 256.07 25.03 256.91C25.02 256.9 25.02 256.89 25.01 256.88C7.98 230.27 -0.57 201.4 0.03 171.77C2.36 55.48 144.27 -30.27 255.87 67.34C367.41 -30.22 509.38 55.41 511.71 171.77C512.31 201.4 503.76 230.27 486.73 256.88L486.73 256.88Z" />
		<path id="Layer" class="shp1" d="M486.73 256.88C480.1 267.25 472.18 277.28 463 286.88L351.87 286.88C346.35 286.88 341.28 283.85 338.66 278.99L296.73 201.11L237.43 326.3C232.41 336.9 217.57 337.94 211.22 327.93L168.25 260.41L156.73 279.6C154.02 284.12 149.14 286.88 143.87 286.88L48.74 286.88C39.56 277.28 31.64 267.25 25.01 256.88L135.38 256.88L155.01 224.16C160.69 214.68 174.49 214.34 180.52 223.83L221.94 288.91L282.31 161.46C287.59 150.35 303.25 149.97 309.08 160.77L360.83 256.88L486.73 256.88L486.73 256.88Z" />
	</g>
</svg>