<svg xmlns="http://www.w3.org/2000/svg" xmlns:xlink="http://www.w3.org/1999/xlink" viewBox="0 0 293.95 200.41"><defs><style>.cls-1,.cls-10,.cls-11,.cls-12,.cls-13,.cls-14,.cls-15,.cls-16,.cls-2,.cls-3,.cls-4,.cls-5,.cls-6,.cls-7,.cls-8,.cls-9{fill-rule:evenodd;}.cls-1{fill:url(#linear-gradient);}.cls-2{fill:url(#linear-gradient-2);}.cls-3{fill:url(#linear-gradient-3);}.cls-4{fill:url(#linear-gradient-4);}.cls-5{fill:url(#linear-gradient-5);}.cls-6{fill:#ab1d18;}.cls-7{fill:url(#linear-gradient-6);}.cls-8{fill:url(#linear-gradient-7);}.cls-9{fill:url(#linear-gradient-8);}.cls-10{fill:url(#linear-gradient-9);}.cls-11{fill:#c64700;}.cls-12{fill:url(#linear-gradient-10);}.cls-13{fill:url(#linear-gradient-11);}.cls-14{fill:url(#linear-gradient-12);}.cls-15{fill:#ffed00;}.cls-16{fill:#fefefe;}</style><linearGradient id="linear-gradient" x1="52.52" y1="107.32" x2="71.16" y2="177.12" gradientUnits="userSpaceOnUse"><stop offset="0" stop-color="#b71f1b"/><stop offset="1" stop-color="#e31e24"/></linearGradient><linearGradient id="linear-gradient-2" x1="48.88" y1="98.83" x2="73.37" y2="159.13" gradientUnits="userSpaceOnUse"><stop offset="0" stop-color="#ef801e"/><stop offset="1" stop-color="#fecc00"/></linearGradient><linearGradient id="linear-gradient-3" x1="18.45" y1="70.37" x2="170.79" y2="70.37" gradientUnits="userSpaceOnUse"><stop offset="0" stop-color="#cb4d1a"/><stop offset="1" stop-color="#ef7f1a"/></linearGradient><linearGradient id="linear-gradient-4" x1="52.67" y1="85.88" x2="76.71" y2="35.85" xlink:href="#linear-gradient"/><linearGradient id="linear-gradient-5" x1="192.3" y1="148.53" x2="97.57" y2="104.88" gradientUnits="userSpaceOnUse"><stop offset="0" stop-color="#c63605"/><stop offset="1" stop-color="#f47208"/></linearGradient><linearGradient id="linear-gradient-6" x1="104.87" y1="100.41" x2="117.7" y2="115.26" xlink:href="#linear-gradient-2"/><linearGradient id="linear-gradient-7" x1="48.86" y1="89.64" x2="243.1" y2="89.64" gradientUnits="userSpaceOnUse"><stop offset="0" stop-color="#e30519"/><stop offset="1" stop-color="#f08143"/></linearGradient><linearGradient id="linear-gradient-8" x1="164.79" y1="85.62" x2="230.83" y2="85.62" gradientUnits="userSpaceOnUse"><stop offset="0" stop-color="#bd3a13"/><stop offset="1" stop-color="#e54217"/></linearGradient><linearGradient id="linear-gradient-9" x1="184.97" y1="34.03" x2="261.35" y2="83.37" gradientUnits="userSpaceOnUse"><stop offset="0" stop-color="#ea6706"/><stop offset="1" stop-color="#fecc00"/></linearGradient><linearGradient id="linear-gradient-10" x1="190.98" y1="65.05" x2="228.99" y2="115.12" xlink:href="#linear-gradient"/><linearGradient id="linear-gradient-11" x1="170.24" y1="76.83" x2="199.11" y2="121.78" gradientUnits="userSpaceOnUse"><stop offset="0" stop-color="#b71f1b"/><stop offset="1" stop-color="#ffe21f"/></linearGradient><linearGradient id="linear-gradient-12" x1="32.57" y1="87.84" x2="231.13" y2="87.84" xlink:href="#linear-gradient-2"/></defs><title>fire_god_dungeon</title><g id="Layer_2" data-name="Layer 2"><g id="Layer_1-2" data-name="Layer 1"><path class="cls-1" d="M71.68,109.22c-1.53.59-20.43,31.75,8.15,36.72,11,1.92,14.43-2.29,23.67-2.22,6.38,0,13.78,5.39,12.38,12.13-.69,3.34-3.94,5.49-6.4,7.86-3.94,3.8-3.87,7.29.17,10.84,13.06,11.46,7.57,27.35-5.51,25.74-6.79-.83-9.23-9.77-2.91-11.35-5.77,5.16,1,9.88,5.16,7.06a9.55,9.55,0,0,0,4.29-8.7c-.4-8.44-6-10-11.45-10-5.08-.08-8.76-2.12-9-5.84-.31-5.49,5.77-7.11,1.13-11.84-3.16-3.2-9.91-5.33-15.46-1.31-4.72,3.42-7.39,7.95-12.17,8.65-6.8,1-20.7-3-22.85-10.33-1-3.63,1-7.12,2.22-10.45,3-8.26-.2-11.64-8.28-13.8-57.25-15.28-32.69-64.71-6-58C40,77.21,67.18,111,71.68,109.22Z"/><path class="cls-2" d="M23.27,93.65c-7.77,9.55-11.79,20.85-.55,26.07,3.71,1.72,9.26,3,13.32,4.19,13.13,4,16.35,5.55,13.94,9.28-4,6.16,14.26,5.07,5.15,13.35-1.41,1.27-3.65,3-4.21,5.07-1.87,7.13,10.51,3.66,13.68,2.93,12.24-2.83,21.29-6.85,37.05-3.76,9.78,1.92,3.19,6.5.1,11.52a4.88,4.88,0,0,0,2.22,8.25c-6.34-4.13-.48-9,1.92-11.57,4.54-4.78,5.27-8.95-3.46-9.82-17.23-1.7-26.2,2.46-38.36,4.35-4.34.67-15.93,1.58-8.1-6.08,2.52-2.46,6.17-6.14,1.71-8.46-4-2.08-9.22-2.73-6.11-6.43,3.7-4.42-6-6.78-9.51-7.84-12.5-3.77-26.66-8-9.16-20,.12-1.1-2-1.23-4.81,1.17-2.39,2.06-6.19,8.57-2.8,13-18.76-5.24,1.05-22.89.8-24l-.19-.36C25.58,94.13,23.63,93.2,23.27,93.65Z"/><path class="cls-3" d="M43.08,112.12C1,117.49,18.17,32.12,55,28.44c6.46-.64,12.69,3.16,19,6.86,6.76,4,13.56,7.84,20.73,5.84,4.1-1.14,9.47-5.42,13.73-7.57a22,22,0,0,1,15.86-2.13c12.72,2.58,24.17,13,36.33,13,9.16,0,8.25-6.41,5.31-9.64-5.08-5.6-7.73,3.88-3.56,3.88-3,0-4.74-2.56-3.83-4.69,2.93-6.93,10.9-2.94,12,2.65,2.81,14.71-11.73,14.22-23.25,8.49C139.74,41.4,132.44,37,123.26,37c-15-.32-14.47,22.11-40,13.71-14.53-4.77-18.35-5-29.38,11.44C44.26,76.43,36.46,98.79,43.08,112.12Z"/><path class="cls-4" d="M38.82,107.87c-17-5.09-18.29-20.78-15.63-39.24-.35,8.37-1.16,15,2.17,22.68,2.26,5.24,2.76,5,1-8-1.88-13.83.89-26.08,6.19-35C35.85,42.68,39.69,38,45.42,35.32c3.3-1.55,11.53-3.92,12.42,1.26.2,1.16,1.09,2.32,6.56,2.32C80,36.54,72.48,45,87.72,46.26c12.4,1,20.67-11.52,27.54-10.75-7.89,1-17.13,13.21-28.07,12.55a22.81,22.81,0,0,1-5.35-.92c-11-3.49-3.43-9.66-18.5-7-3.14.55-6.25,1.43-7.23-1.24-2-5.6-8.47-3.07-12.56-.53-6.46,4-11.3,14-12.12,20.33a43.57,43.57,0,0,0-.37,6.23c.24,8.38,4.15,3.25,6.4-.38,5.68-9.11,7.72-22.48,24-19.9-7.61,0-12,1.13-15.74,7.7-1.87,3.31-.42,6.92,6.29,4.58,2.15-.75,4.79-1.75,7.49-2.43a85.24,85.24,0,0,0-5.69,7.7,86.81,86.81,0,0,0-9.73,19.6c-3.42,2.63-6.1,5.52-6.85,8.58-.11.45-.23.9-.34,1.35-1.13,4.59,1.82,11.16,1.64,15.86C38.54,108,38.5,107.75,38.82,107.87Z"/><path class="cls-5" d="M75.44,105.1c-3,11.54,9,21.64,19.67,27,12.47,6.19,18.43,4.49,30.67-2,5-2.64,13.56-2.49,16.9,2.35,10.43,15.15-2.11,11.92-1.69,21.58.44,10.3,17.73,15.66,25.95,7.77,6-5.78,5.6-10.95,10.25-12.91,5.25-2.21,13.43-.3,18.91,4.14,11.27,9.1,4.13,26.93-4.94,24.74-3.63-.88-7.73-6.41-1-13.06-5.78,2.25-8.23,6.31-7,10.23,2.43,7.46,9.41,8.77,15.77,6.22,17.32-6.94,14.4-31.66,1.2-40.33-10.62-7-22.24-4.12-28.43,2.25-4,4.08-12,.27-10.73-6.35,1.52-7.73,4.05-14.46,3.7-21.89-.25-5.21-8.73-6.41-13.16-12.89-7.17-7.62-11.19-15.59-22.68-16.43C105,83.72,78.28,93.92,75.44,105.1Z"/><path class="cls-6" d="M84.49,125.18A7.42,7.42,0,0,1,88.66,121c7.06-2.52,8.31,6.58,15.41,8.47,9.06,2.4,25.48-11.8,34.55-2.94-3.82-7.44-18.43-3.27-26.33-1.92-7,1.19-12.12-3.39-6.69-9.58C119,99.8,142.54,108,150.78,122.31c5.11,8.9,3.64,17.39-1.06,26.19-4.55,8.49,7.35,15.2,10.7,9.46-5.83,3.2-11.93-1.83-8.3-10,4.95-11.11,4.52-11.63,4.95-22.68.19-5,3.88-3.59,6.7-.64a39.62,39.62,0,0,0,.94-9.86c-.25-5.21-8.73-6.41-13.16-12.89-7.17-7.62-11.19-15.59-22.68-16.43-16.57-1.22-34.53,3.33-44.91,10h0c-2.18,4-5.94,6.31-8.92,12C74.44,114.17,78.72,120.33,84.49,125.18Z"/><path class="cls-7" d="M108.61,89.39c1.61,3.45.59,6.21-.84,9.06-12.72,25.27,25.51-3.26,40.45,28.05-10.52-14.53-21.77-14.32-29.8-11.08-15.09,6.09-24.44,9-24.87-12.74-.07-3.46.21-7,.27-10C94.88,92.72,108.58,89.32,108.61,89.39Z"/><path class="cls-8" d="M59.43,119.64c6.92,4.84,14.47-1.08,19.84-5.39,11.14-18,38.86-26.23,62-15.63,18.9,8.65,31.39,24.43,54.92,19.44a142.6,142.6,0,0,0,16.17-5c9.08-3.59,18.24-7.54,23.68-16.07,2.9-4.53,5.52-6.26,6.58-11.46,5.56-32.12-39.57-32.5-41.42-20.38,3.42-5.3,25.9,5.08,14.94,18-3,3.52-8.35,5.35-15.55,5.55-12.7-7.48-36-14.29-64.22-20.05-7.71-11-40.46-7.43-45.63,1.08C67.18,59,30.66,85.81,59.43,119.64Z"/><path class="cls-9" d="M201.81,101.38c16.1,1.64,35.63-7.76,26.52-15.76-4.89-4.29-4.72-6.13.06-12.08,9.49-11.82-11.28-12.4-18.74-11.72,5,.53,26.08-.49,18.09,10.91-4.56,7.47-7.88,9.14.18,16L219,94.49l-12.78-2.22L202,88.7c-.46,0-.92,0-1.39.06-6.94-4.09-17-8-29.38-11.6L164.79,84l17.53,23.61c4.46.89,6.71,1.16,11.17,2C184.5,96,192.94,100.47,201.81,101.38Z"/><path class="cls-6" d="M94.55,75.56c-2.23,9.13-18.21-4.63-28.19,3.34-2.5,2-6.51,8.4-.38,5.69,10.89-4.82,24.63-3.32,26.46,10.68-6-18.47-23.72-4.93-25.32-2.36-.38,1.63-3.2.94-1.74,4.16,1.36,3,.18,5.62,2.73,6.77,4.44,2,7,2.1,8.64-.39,3.86,10-8,20.07-21.8,9.18l-.34-.26a6.35,6.35,0,0,1-1.3-1.48c-.38-.69-.75-1.38-1.08-2C50,103.63,49.29,94.9,49.43,89.7c2-9.38,9.26-16.52,18-20,7.37-.75,16.25.92,21,4.25C91,75.73,94.4,76.22,94.55,75.56Z"/><path class="cls-10" d="M102.92,77.91l1.57-.45c14.34-4.09,27.82,8.41,42.92,29.8C179.77,153.08,269,108.36,248,66.71c-3-6-3.85-12,5-12,6.62,0,12.16,4.24,18.48-.4,7-5.18,4.87-8.75,3.88-18.09-1.28-12.08.08-11.61,5.5-14.34,9.71-4.88,19-9.9,8.35-21.84,2.1,4.58,8.75,11.78-13.49,20.09-9,3.36-6.15,5.29-6.07,14.9.06,7.76-.16,16.73-9,14.57-7-1.71-10.19-7.23-18.35-7.2C232.23,42.4,231,51.13,236.6,59c2.92,4.1,4.19,10.08,3.52,16.41-1.68,16-15.66,34.11-46.45,29.67-13.64-2-23.58-13.21-32-20.84-45.74-41.41-66.74-11.43-62-7.12C100.88,78.23,101.26,78.39,102.92,77.91Z"/><path class="cls-11" d="M124.21,81.76a17.3,17.3,0,0,1,14.12,5.91c10.3,11.23,16.36,36.61,55.74,35.72,8.52-1.77,22.19-3.55,32.09-11.84-38,21.26-70.62,7.84-87.52-30.2,17.66,7.06,20.87,19.16,38.28,26.58a62.71,62.71,0,0,0,6.69,2.39c23,6.84,53.8-2.73,59.54-28.29-8.4,24-36.69,34.12-59.3,24.88-10.11-4.13-18.35-11-26.5-23.85l-16-13.74a53.47,53.47,0,0,0-16.66-6.19l-15.12,1.16c-7.87,3-11.34,9.4-10.36,12.1L100.74,78a2.69,2.69,0,0,0,2.18,0l1.57-.45C111.17,75.56,117.65,77.25,124.21,81.76Z"/><path class="cls-12" d="M122.77,64.71c14.94,4.25,21.87,9.37,49.55,40.23,5.89,6.56,18.47,22.36,29.85,29.62,11,7,15.57,7.66,20.72,4,4.34-3.09,9-9.09,15.7-6.24,10,4.24,7.71-6.31,8.7-11,1.52-7.2,15.06-17,20.65-3.29,1.85-8-6.57-11.82-12.49-9.74C271.59,95,295.1,103.91,288,122.61c7.9-6.57,2.86-25.74-13.62-25.16-13.25.47-22.47,8.22-31.65,15.37-13.19,10.26-23.49,17.45-40.56,7.55-8-4.62-13.53-15.2-19.41-24.59a64.29,64.29,0,0,0-9-11.89C158.17,68.7,133,53.3,126.15,61.4,123.19,63.39,124.24,64.47,122.77,64.71Z"/><path class="cls-13" d="M140,72.74c7.85.13,27.23,22.17,36.65,31.64-7.71-9.94-16-18.07-24.15-27.29,10.21,4.6,24,23,34.74,36.64a234.67,234.67,0,0,0-19.42-25.37c6.18,1.91,13.51,10.54,19.88,19.46,7.62,10.68,13.91,23,29.47,21.67,13.73-1.16,18.08-11.3,26.13.71-6.67-13-13.38-2.73-26.65-2.08-10.16.5-18.59-5.75-24.7-17.92-3.21-4.48-6.14-9.6-9.16-14.42a64.29,64.29,0,0,0-9-11.89C158.17,68.7,133,53.3,126.15,61.4,123.74,63,124,64,123.37,64.49l.94.67A48.9,48.9,0,0,1,140,72.74Z"/><path class="cls-14" d="M221.92,69.38c11.53.73,11.87,16.15,3,23-5.44,4.22-12.95,3.94-20.38,2-9.14-2.41-11.5-6.88-17.38-9.22-12.36-4.91-13.57,6.24-23.86-3.35-7.55-7-22.2-23.35-31.62-14-7.2,7.18-6.75,6.49-18.09,1.74-2-.75-7.07-.85-7.07,1.72-.09,2.84,6.15,8.88-.45,11.25C98.45,85.24,94.74,81.84,90,78s-8-5.86-14.38-6.14c-24.44-1.07-31.3,43.5-7.6,42.75,6.8-.21,12.07-7.19,12.26-13.1C80.46,96,75.77,93.27,72,93.3c-4.17,0-5.82,4.21-3.78,6.71,1.47,1.8,4.77.32,5.23-1.9.93,9.1-9,9-10,.53-.84-7.51,7.19-12.25,15.76-9.42,14.3,4.72,10.66,27.83-2.14,34.9-11.75,6.5-32.69,1.67-39.94-11.53-7.95-14.51-5.46-34.92,6.33-47,22.45-23,62.74-1,71.72-10.6,2.24-2.38,4.7-5.4,13-6.19,10.29-1,17.62,3.79,27.58,12.46,6.72,5.85,14.49,12.75,17.06,10.87,3.25-2.61,5.18-3,8.68.44,2.12,2.06,6.21,10.64,8.28,6.17.92-2,7.87-1.21,9.76,1.33,2.26,3,10.08,9.38,13.18,10.63C228.38,97,236.26,72.6,221.92,69.38Z"/><path class="cls-15" d="M42.9,109c1.92-8.54-2.57-16.38,1.77-28.49,2.16-6,5.14-10.55,9.91-13.59,8.11-5.17,13-4.79,19.47-2.11,2.79,1.16,5.66,3,8.28,4,1.59.61,2.93.49,4.06-1.84s2.19-5.47,4.5-2.79,2.94,7.27,5.56,9c2.27,1.54,4.78-.22,6.59-2.45,3.52-4.33,3.43-8.63,10.36-10.34,2.59-.64,9.19-.17,13.5-.2,4.77,0,5.68-.29,6.3-3,1.88-8.19,13.92,1.79,16.9,4.53,3.94,3.61,8.64,7.85,13.52,9-7.26.39-27.52-23-28.12-13.57-.31,4.74,1.56,5.06-8.72,4.85-4-.08-8.2-.52-9.68-.64-5.43-.43-7.6.51-10.44,5.35-2.57,4.39-4.59,9.78-8.38,9.84-4,.07-5.4-4.25-6.39-7.35-1.46-4.59-2-7.07-4.76-1.14-1.76,3.8-4.67,1.91-8.49.69-6.18-2-14.88-5-22.07-.69-4.58,2.72-7.81,7.51-9.92,12.71C41.78,92.78,45.4,97.82,42.9,109Z"/><path class="cls-16" d="M83.52,92.37c7.08,10.12,4.62,21.56-5.43,29.84C85.09,114.29,89.89,104.89,83.52,92.37Z"/><path class="cls-16" d="M199,141.06a24.26,24.26,0,0,1,7.3,32.15C210,163.31,209.45,150.47,199,141.06Z"/><path class="cls-16" d="M175.19,71.54c4.6-2.72,6.29,2.81,9.52,7.16C181.59,76.21,178,71.58,175.19,71.54Z"/><path class="cls-16" d="M244.92,60.73c-3.26-7.24,2.63-8.84,7.59-7.25C246.86,53.47,243.28,56,244.92,60.73Z"/><path class="cls-16" d="M190.47,79.75c3.9-3.66,8.39.16,12.81,5.07C199.42,81.47,193,78.29,190.47,79.75Z"/><path class="cls-16" d="M99.31,144.94c7.3-1.76,16,1.87,15.48,11C111.34,150.26,113.22,144.89,99.31,144.94Z"/><path class="cls-16" d="M110.72,177c5.93,4.86,8.51,14.41,1.07,20C113.91,193.93,119.45,188.47,110.72,177Z"/></g></g></svg>