<?xml version="1.0"?>
<svg xmlns="http://www.w3.org/2000/svg" height="512px" viewBox="0 -5 512.00006 512" width="512px" class=""><g><path d="m494.34375 406.808594c-4.925781-.054688-8.878906-4.09375-8.828125-9.019532 0-.003906 0-.007812 0-.011718v-370.351563c0-4.878906 3.953125-8.828125 8.828125-8.828125s8.828125 3.949219 8.828125 8.828125v370.351563c.058594 4.929687-3.886719 8.972656-8.816406 9.03125-.003907 0-.007813 0-.011719 0zm0 0" fill="#a8d6da" data-original="#A8D6DA" class="" data-old_color="#a8d6da" style="fill:#A8D6DA"/><path d="m163.8125 485.03125c-4.875 0-8.828125-3.953125-8.828125-8.828125 0-2.410156.984375-4.71875 2.730469-6.382813l40.90625-39c40.949218-38.921874 59.492187-95.878906 49.308594-151.449218l-.617188-3.386719c-.878906-4.796875 2.300781-9.394531 7.09375-10.273437.527344-.097657 1.058594-.144532 1.59375-.144532h47.996094c46.597656-.054687 84.359375-37.8125 84.417968-84.410156v-48.003906c0-4.875 3.953126-8.828125 8.828126-8.828125h17.097656c24.671875-.023438 44.664062-20.015625 44.695312-44.683594v-34.765625c0-4.875 3.953125-8.824219 8.828125-8.824219s8.828125 3.949219 8.828125 8.824219v34.765625c-.039062 34.417969-27.933594 62.304687-62.351562 62.339844h-8.269532v39.175781c-.070312 56.34375-45.730468 102.003906-102.074218 102.066406h-37.554688c8.554688 59.3125-12.175781 119.089844-55.613281 160.371094l-40.90625 39c-1.648437 1.566406-3.835937 2.441406-6.109375 2.4375zm0 0" fill="#a8d6da" data-original="#A8D6DA" class="" data-old_color="#a8d6da" style="fill:#A8D6DA"/><path d="m157.5625 370.09375-24.964844-24.972656 341.039063-339.863282c6.90625-6.964843 18.148437-7.015624 25.117187-.113281 0 .003907.003906.003907.003906.007813 6.890626 6.980468 6.820313 18.226562-.160156 25.117187-.007812.007813-.015625.015625-.023437.023438zm0 0" fill="#cdcdcd" data-original="#CDCDCD" class="" data-old_color="#cdcdcd" style="fill:#1D9B23"/><path d="m24.789062 440.441406 101.558594-101.558594 37.453125 37.453126-101.558593 101.558593zm0 0" fill="#64a8b2" data-original="#64A8B2" class="" data-old_color="#64a8b2" style="fill:#1D9B23"/><path d="m7.757812 494.933594c-10.34375-10.339844-10.34375-27.109375-.003906-37.453125h.003906l49.9375-49.941407 21.753907-18.386718 26.480469 44.136718-10.785157 11.707032-49.9375 49.9375c-10.34375 10.339844-27.105469 10.339844-37.449219 0zm0 0" fill="#f3af3e" data-original="#F3AF3E" class=""/><path d="m76.417969 351.363281 62.421875 62.417969-37.453125 37.453125-62.421875-62.417969c-10.339844-10.34375-10.339844-27.113281 0-37.453125 10.34375-10.34375 27.113281-10.34375 37.453125 0zm0 0" fill="#cdcdcd" data-original="#CDCDCD" class="" data-old_color="#cdcdcd" style="fill:#1D9B23"/><path d="m132.59375 345.125 62.421875-62.421875 24.964844 24.96875-62.417969 62.421875zm0 0" fill="#b9b9b9" data-original="#B9B9B9" class=""/><path d="m476.691406 486.257812c-14.628906 0-26.484375-11.859374-26.484375-26.484374v-8.828126h17.65625v8.828126c0 4.875 3.949219 8.828124 8.828125 8.828124 4.875 0 8.824219-3.953124 8.824219-8.828124v-35.308594h17.65625v35.308594c0 14.625-11.855469 26.484374-26.480469 26.484374zm0 0" fill="#b9b9b9" data-original="#B9B9B9" class=""/><path d="m185.5625 444.996094c0 29.253906-23.710938 52.964844-52.964844 52.964844-29.25 0-52.964844-23.710938-52.964844-52.964844 0-29.25 23.714844-52.964844 52.964844-52.964844 29.253906 0 52.964844 23.714844 52.964844 52.964844zm0 0" fill="#60a0aa" data-original="#60A0AA" class="active-path" data-old_color="#60a0aa" style="fill:#A8D6DA"/><path d="m167.910156 444.996094c0 19.5-15.808594 35.3125-35.3125 35.3125-19.5 0-35.308594-15.8125-35.308594-35.3125s15.808594-35.308594 35.308594-35.308594c19.503906 0 35.3125 15.808594 35.3125 35.308594zm0 0" fill="#69b0bb" data-original="#69B0BB" class="" data-old_color="#69b0bb" style="fill:#1D9B23"/><path d="m141.425781 444.996094c0 4.875-3.953125 8.828125-8.828125 8.828125s-8.828125-3.953125-8.828125-8.828125 3.953125-8.828125 8.828125-8.828125 8.828125 3.953125 8.828125 8.828125zm0 0" fill="#cdcdcd" data-original="#CDCDCD" class="" data-old_color="#cdcdcd" style="fill:#1D9B23"/><path d="m494.34375 389.152344c9.75 0 17.65625 7.90625 17.65625 17.65625v8.828125c0 9.75-7.90625 17.65625-17.65625 17.65625s-17.652344-7.90625-17.652344-17.65625v-8.828125c0-9.75 7.902344-17.65625 17.652344-17.65625zm0 0" fill="#dc4d41" data-original="#DC4D41" class="" style="fill:#1D9B23" data-old_color="#dc4d41"/></g> </svg>
