<svg id="Layer_1" data-name="Layer 1" xmlns="http://www.w3.org/2000/svg" xmlns:xlink="http://www.w3.org/1999/xlink" viewBox="0 0 2000 2000"><defs><style>.cls-1{fill:none;}.cls-2{fill:#4c94bf;}.cls-3{fill:#604f40;}.cls-4{fill:#705e4d;}.cls-5{fill:#846f5a;}.cls-6{clip-path:url(#clip-path);}.cls-7{fill:#998776;}.cls-8{clip-path:url(#clip-path-2);}.cls-9{fill:#ad957d;}.cls-10{fill:#afd86a;}.cls-11{fill:#fecfae;}.cls-12{fill:#d8c9ba;}.cls-13{fill:#aa4226;}.cls-14{fill:#c4b19f;}.cls-15{fill:#993a23;}.cls-16{clip-path:url(#clip-path-3);}.cls-17{fill:#a08975;}.cls-18{fill:#3c3229;}.cls-19{clip-path:url(#clip-path-4);}.cls-20{fill:#bc4d3b;}.cls-21{fill:#7a291b;}.cls-22{fill:#71bbd8;}.cls-23{fill:#8abd32;}</style><clipPath id="clip-path"><polygon class="cls-1" points="1752.85 1137.94 1485.84 1220.24 1048.54 1012 1269.71 967.81 1752.85 1137.94"/></clipPath><clipPath id="clip-path-2"><polygon class="cls-1" points="436.97 906.99 263.06 922.39 963.13 1146.37 1764.65 988.62 977.42 772.49 436.97 906.99"/></clipPath><clipPath id="clip-path-3"><polygon class="cls-1" points="1231.42 666.47 1243.47 950.91 1045.48 981.22 1042.44 675.27 1231.42 666.47"/></clipPath><clipPath id="clip-path-4"><path class="cls-1" d="M1212,291.46l-114.75,29.87a2049.81,2049.81,0,0,1-426.73,63.3h0L398.15,617.29,759.6,638.86Z"/></clipPath></defs><path class="cls-2" d="M398.15,941.72s-444.25,143-245.39,439.19c217.05,323.26,668.57,81.73,888.77,193s813,146.43,900.31-223c50.73-214.73-236.56-331.31-236.56-331.31Z"/><path class="cls-3" d="M319.59,933.07s4.4,130.32-5.16,136.08-27.6,5.2-32.17-6.2-6.84-136.08-6.84-136.08Z"/><path class="cls-4" d="M304.61,1072.36s-13.76,4.9-24.76-9.64c-6.26-8.27-4.39-101.78-4.39-101.78l29.73-9.23S291.57,1051.33,304.61,1072.36Z"/><path class="cls-3" d="M963.12,1146.36s-13.7,53.69.49,65c5.54,4.41,112.49-31.26,260.45-65,231.54-52.79,540.73-115,544.35-120.2,5.93-8.48,4.67-33.74-3.76-37.54C1753.81,983.73,963.12,1146.36,963.12,1146.36Z"/><polygon class="cls-5" points="1752.85 1137.94 1485.84 1220.24 1048.54 1012 1269.71 967.81 1752.85 1137.94"/><path class="cls-3" d="M1525,1213.28s11.17,144.41.91,149.29-22.77,13.23-35.31-3.09-7-143.72-7-143.72Z"/><path class="cls-3" d="M1743.37,1147.27s12.48,137.31,3.77,142.61-25.67,5.78-30.47-3.49-11.39-127.81-11.39-127.81Z"/><polygon class="cls-3" points="1752.85 1137.94 1755.61 1183.94 1506.03 1272.51 1502.58 1215.08 1752.85 1137.94"/><g class="cls-6"><path class="cls-7" d="M1441,1012.93s-103.75,15.75-132,26.32a88.2,88.2,0,0,0-22.17,12,143.3,143.3,0,0,1-54.87,25.32l-24.78,5.5,15.07,13.28s89.59-2.21,117.86-5c39.78-3.89,160.06-52.48,170.14-56.41s-52.08-14.56-52.08-14.56Z"/><path class="cls-7" d="M1555.26,1047.37s-46.85,4-73.35,16.49-101.09,37.23-105.09,39.11S1265.9,1114,1265.9,1114l128,60.53s80.65-32.91,108.36-39.13c213.36-47.9,126.06-44.24,131.28-47,9.56-5.06-29.21-7.19-29.21-7.19Z"/><path class="cls-7" d="M1698.89,1094.53s-103.38,41.8-133.66,43.12c-47.27,2.08-76.77,24.17-80.9,26.11s-59.91,17.11-59.91,17.11l90.35,50.33s82.38-35,109.07-47.19c43.81-20.09,125.27-44.73,135.83-48.43s-30.22-7.35-30.22-7.35Z"/></g><polygon class="cls-4" points="1505.66 1272.36 1224.06 1146.37 1222.21 1095.38 1502.58 1215.08 1505.66 1272.36"/><path class="cls-4" d="M1505.66,1272.51s-1.47,58.19,4.82,96.41c0,0-38.63,16.66-36.13-116.58Z"/><path class="cls-3" d="M991.84,1173.9s8.95,170.73-4.4,176.09-37.42,13.44-52.75-6.07S932,1175.6,932,1175.6Z"/><path class="cls-4" d="M1738.06,1293.07s-12.68,4.81-23.67-6.74c-6.25-6.57-8.78-84.68-8.78-84.68l27.48-9.26S1724.87,1276.21,1738.06,1293.07Z"/><path class="cls-3" d="M1756.25,987.33s2,117.43-5.76,121.39-22.17,3.3-25.67-4.87-1.64-109.31-1.64-109.31Z"/><path class="cls-4" d="M1742.58,1110.86s-11.07,3.29-19.69-7.21c-4.89-6-2.39-65.32-2.39-65.32l24-5.51S1732.43,1095.71,1742.58,1110.86Z"/><path class="cls-4" d="M263.06,922.39s-10.24,27.11,0,37,700.55,251.93,700.55,251.93l-.49-65Z"/><polygon class="cls-5" points="436.97 906.99 263.06 922.39 963.13 1146.37 1764.65 988.62 977.42 772.49 436.97 906.99"/><g class="cls-8"><path class="cls-7" d="M936.7,1167.06l854.8-178.49s-53.72-22.25-85.29-33.56-59-16.15-69.27-10.22-119.69,40-141.37,36.43S1369.06,1000.37,1320,1019c-39.59,15.07-221.84,34.93-260.18,29.28s-261.74,44.29-242.87,66S936.7,1167.06,936.7,1167.06Z"/><path class="cls-7" d="M759.67,1095.55s186.16-64.13,225.75-57.75,157-26,207.16-20.36c31.39,3.54,83.14-10.57,125.81-17s95.27-19.26,119.87-30.29c17.2-7.71,86.24-5.18,97.54-8.48s86.71-12.25,84.82-22.62-124.87-36.86-124.87-36.86l58-.9s6.6,18.61-121.58,40.39-592.75,84-637.05,90.57-333.25-20.63-317.23-7.44S759.67,1095.55,759.67,1095.55Z"/><path class="cls-7" d="M455.21,1036.87s122.41-52.15,174.84-29.58c36.83,15.85,154.75,8.41,186,3.9,36.44-5.26,163.39-38.69,206.16-44.4s124.18-8.91,143-8.62,84.79-27.16,96.15-30.28S1413,933,1497.1,915.16c10.31-2.18-39-20.58-39-20.58L1224.41,922s-103.48,66.08-210.55,27.55c-95.17-34.25-532.5,25.76-576.89,31.66s-250.13-20.33-234.32-6.89S455.21,1036.87,455.21,1036.87Z"/><path class="cls-7" d="M234,986.06s123.11-50.49,175.23-27.22c36.61,16.34,223.59-23.75,254.51-17.3s110.08.93,152.91-4.21,109.56-21,128.4-20.4,85.14-26,96.54-29,87-9.71,85.45-20.13-123.74-40.49-123.74-40.49l3.9,26.85s-193.11-16-292.47,39.47c-19.21,10.72-403.67,36.24-448.14,41.54s-299.91-28.7-284.29-15S234,986.06,234,986.06Z"/></g><path class="cls-4" d="M963.61,1211.36S957.88,1348,968,1355.72c0,0-32.4,7.33-37.71-24.21s-3.13-112.12-1.79-138.59Z"/><polygon class="cls-4" points="436.97 906.99 397.63 910.48 821.63 1052.03 1401.75 946.71 1413.66 924.97 436.97 906.99"/><path class="cls-9" d="M1753.9,1375.87l-.09,0h0Z"/><path class="cls-10" d="M1812.38,1954l-27.41-3Q1798.34,1952.61,1812.38,1954Z"/><path class="cls-11" d="M1813.06,1954.09h0l-.66-.06Z"/><polygon class="cls-9" points="816.27 643.92 816.98 1011.19 436.97 906.99 442.37 621.28 816.27 643.92"/><polygon class="cls-12" points="816.07 1011.19 1413.66 924.97 1413.66 615.01 1173.57 339.97 816.07 598.48 816.07 1011.19"/><path class="cls-13" d="M1212,291.46l-114.75,29.87a2049.81,2049.81,0,0,1-426.73,63.3h0L398.15,617.29,759.6,638.86Z"/><polygon class="cls-14" points="901.41 949.56 816.07 953.32 816.07 986.06 902.56 981.47 901.41 949.56"/><polygon class="cls-14" points="866.41 861.5 816.07 863.72 816.07 893.64 867.56 893.41 866.41 861.5"/><polygon class="cls-1" points="1214.15 291.46 670.5 384.63 378.22 634.31 759.6 638.86 1214.15 291.46"/><path class="cls-15" d="M746.3,632.69l-348.15-15.4,9.93,12.43a37.4,37.4,0,0,0,26.7,14l355.87,24.18Z"/><polygon class="cls-9" points="1215.9 648.5 1218.77 948.84 1031.49 976.4 1014.87 971.05 1017.52 651.42 1215.9 648.5"/><polygon class="cls-3" points="1231.42 666.47 1243.47 950.91 1045.48 981.22 1042.44 675.27 1072.41 666.47 1215.43 659.79 1231.42 666.47"/><g class="cls-16"><polygon class="cls-5" points="1056.52 983.48 1053.48 891.9 1056.81 779.83 1053.48 709.29 1098.88 661.51 1100.19 976.44 1056.52 983.48"/><polygon class="cls-7" points="1068.52 981.22 1065.19 837.92 1065.48 707.03 1107.26 661.94 1109.47 802.26 1112.19 974.17 1068.52 981.22"/><polygon class="cls-5" points="1120.91 970.34 1117.87 833.81 1120.03 661.29 1159.65 651.06 1164.59 963.29 1120.91 970.34"/><polygon class="cls-7" points="1129.36 972.23 1127.52 785.79 1126.32 663.74 1168.09 652.95 1173.03 827.02 1173.03 965.19 1129.36 972.23"/><polygon class="cls-5" points="1185.78 962.73 1182.98 777.83 1181.3 666.47 1220.53 676.36 1224.96 956.41 1185.78 962.73"/><path class="cls-7" d="M1193.35,959.05l-3-200.26-1.45-96,36.65,15.61L1220.8,815c-.25,24,6.17,48.79,7.67,72.8l4.06,65Z"/></g><polygon class="cls-14" points="1280.89 479.94 1195.53 483.02 1196.54 510.88 1281.66 501.17 1280.89 479.94"/><path class="cls-9" d="M1418.8,615h0c-26.69-1.3-61.5-22.69-86.16-48.45l-143.4-158.64s-357.15,336-394.1,260L1207.71,330.5Z"/><polygon class="cls-14" points="1404.12 851.75 1338.47 859.76 1336.51 885.57 1404.12 881.17 1404.12 851.75"/><polygon class="cls-14" points="1378.08 899.24 1276.64 911.63 1276.27 944.79 1379.57 929.89 1378.08 899.24"/><polygon class="cls-14" points="1378.8 801.82 1293.44 804.9 1294.45 832.76 1379.57 823.05 1378.8 801.82"/><polygon class="cls-14" points="930.02 888.45 844.68 892.21 845.86 924.81 930.98 915.1 930.02 888.45"/><polygon class="cls-17" points="539 743.15 455.32 727.79 454.73 754.4 538.2 771.13 539 743.15"/><polygon class="cls-17" points="738.74 892.18 805.07 912.73 805.07 882.77 739.07 868.66 738.74 892.18"/><polygon class="cls-17" points="715.53 848.04 774.2 868.66 774.86 846.94 716.27 832.1 715.53 848.04"/><polygon class="cls-17" points="459.89 681.58 521.1 692.53 518.28 670.99 458.07 665.72 459.89 681.58"/><polygon class="cls-17" points="496.64 703.43 557.86 714.38 555.04 692.84 494.83 687.57 496.64 703.43"/><polygon class="cls-14" points="988.1 750.55 917.32 753.67 918.3 780.71 988.9 772.66 988.1 750.55"/><polygon class="cls-14" points="1225.8 527.18 1140.44 530.26 1141.44 558.12 1226.57 548.41 1225.8 527.18"/><path class="cls-10" d="M1843,1954l-27.41-3Q1829,1952.61,1843,1954Z"/><path class="cls-11" d="M1843.7,1954.09h0l-.66-.06Z"/><polygon class="cls-9" points="1215.9 648.5 1231.42 666.47 1196.11 660.69 1215.9 648.5"/><path class="cls-3" d="M1045.48,981.22l-14-4.82s13.45-49.65,13.27-67.75,8,6.3,6.4,20.07S1045.48,981.22,1045.48,981.22Z"/><path class="cls-5" d="M637.67,857.61c-.25,2.56-.43,3.89-.43,3.89L597,851.68l-29.13-7.57S564.24,698.26,612.78,701c6.06.35,10.92,3.5,14.75,8.66a36,36,0,0,1,4.59,8C647.84,752.63,639.74,839.3,637.67,857.61Z"/><path class="cls-4" d="M638.19,850.1c-.25,2.56-1,11.4-1,11.4L597,851.68s-.5-112.78,30.51-142a36,36,0,0,1,4.59,8C647.84,752.63,640.26,831.79,638.19,850.1Z"/><path class="cls-18" d="M638.47,847.87l-27.16-6.47s-2.34-94.78,24-115C646.19,759,640.28,831.85,638.47,847.87Z"/><g class="cls-19"><path class="cls-15" d="M825.47,321.16,510.74,576.67S651,490,710.47,437.74s113.31-92.57,113.31-92.57Z"/><path class="cls-15" d="M925.78,328.09,693.16,535.3s47-26,65.14-43.09,151.18-124.6,151.18-124.6Z"/><path class="cls-15" d="M685.54,417.31s100.84,26.16,195.09,20.5c0,0-41.55,8.65-52.78,8.25s-183.78-15.47-183.78-15.47Z"/><path class="cls-15" d="M652.23,507.75S834.75,498,936.77,475.63c0,0-59.52,41.74-79.86,34.54-40.84-14.45-139.09,1.18-139.09,1.18Z"/><path class="cls-15" d="M896.92,438s170.22-112.49,247.3-183c0,0-11.62,21.92-21.49,29.49S964.42,410.28,964.42,410.28Z"/></g><path class="cls-20" d="M790.65,667.88s-12.74-7-33.95-14.76c-18.45-6.74-6.73-18.25-6.73-18.25s440.85-351.29,464.18-343.41,275.71,303.66,273.12,315.83c0,0-8.87,20-22.7,19.24s-247.25-292.08-247.25-292.08S818,666.21,790.65,667.88Z"/><path class="cls-21" d="M1464.57,626.53h0a52.69,52.69,0,0,0-10.45-18.73l-236.8-273.35-28.08,23.47L1413.66,615l50.91,11.52"/><path class="cls-2" d="M918.35,1302.9s44.34,22.7,75.82,2.85,8,84,8,84L904.39,1349Z"/><path class="cls-2" d="M257.53,1049.2s45.74,22.1,77.66,1.82,9.46,83.83,9.46,83.83l-100.72-39.41Z"/><path class="cls-2" d="M1466.23,1353.79s47.58,17.78,77.5-5.37,17.16,82.61,17.16,82.61L1457,1401.09Z"/><path class="cls-2" d="M1692.79,1274.33s46.54,20.35,77.67-1.13,12.64,83.42,12.64,83.42L1681,1321.06Z"/><path class="cls-2" d="M1720.74,1094.35s20.47,8.27,33.73-1.45S1761,1129,1761,1129l-44.82-14.19Z"/><path class="cls-22" d="M203,1152.51s-113.7,157.07,138.84,255.66c0,0-67.12-37.92-77.25-59.44s-.55-45.45-29.27-59.81-33.92-33.13-32.32-54.3c1.67-22.19-10.36-79.35,37.51-112C240.46,1122.6,208.54,1141.11,203,1152.51Z"/><path class="cls-22" d="M329.9,1255.32s-29.56,158.78,417.91,171.76c42.76,1.24,104.81-7.21,147.59-7,49.76.24,102.5,1.53,198.2,58.93,122.53,73.5,370.8,90.46,442.88,56.42,0,0-97.32,7.76-128.88-4.25s-91.62-21.78-105.13-18-42-1.51-55.56-15-30.79-17.27-45.05-18-75.84-3-93.86-18-109.33-72.95-170-69.85S790.4,1411,779.89,1393s-46.55-19-65.32-14-33,9.27-49.56,0-34.54-24.29-55.56-17.53-132.15,2.25-153.92-20.28-41.3-33-47.3-30.78S380,1299.92,380,1299.92,342.42,1285.05,329.9,1255.32Z"/><path class="cls-22" d="M1415.59,1346.37s15.85,63.78,92.21,58.72,97.17-44.81,97.17-44.81-30.84,17.52-47.89,21.23-29.81-3-36.34,2.41-22.8,10.73-29,3.12-13.23-13-24.48-11.17c-10.08,1.63-23.56,1.26-28.52-5.4a72.11,72.11,0,0,0-7.6-9.11Z"/><path class="cls-10" d="M507,922s-17,115.34-17.14,130.32,9.69,159.91,9.69,159.91,15.48-35.46,14.32-50S507,922,507,922Z"/><path class="cls-10" d="M509,1253.22s-8.29-103.24,1.12-133.7c22.45-72.73,89.23-165.82,89.23-165.82s-66.61,162.38-68.14,178.47-9.19,121-9.19,121Z"/><path class="cls-10" d="M511.28,1236.7c-18.18-44.33-39.89-98.09-41.22-105.23-4.28-22.91-95-83.22-95-83.22s59.5,71.69,69.65,82.32,27.11,64.13,27.11,64.13c8.43,1.18,21.56,20.39,33.77,41.84Z"/><path class="cls-23" d="M672.63,1119.59s14.82,72.44,15,81.85-8.71,100.48-8.71,100.48-13.6-22.26-12.56-31.41S672.63,1119.59,672.63,1119.59Z"/><path class="cls-10" d="M514.5,1219.83c-10.52-56.77-37.69-164-47.55-202.34A54.27,54.27,0,0,0,453.15,993L393.4,932.1c-1.91,13.09,51.79,91.94,51.79,91.94s57,234.51,58.67,235.8c5.87,4.51,10.31-.31,10.31-.31A103.44,103.44,0,0,0,514.5,1219.83Z"/><path class="cls-10" d="M544.36,1113.48c-2,13.12-54.47,145.9-54.47,145.9s4.62,37,25.05,33.41c0,0,43.63-171.38,53.93-182.91s78.24-90.34,78.24-90.34S548,1089.26,544.36,1113.48Z"/><path class="cls-10" d="M503.55,1261.77l-10.05,4.34c-6.07-.85-12.07-2.3-14.34-8.5h0s-2.37-39.66-8-52.76c-8-18.64-77-37.35-93.41-38.51,0,0,86.77,1.66,97.5,16.21S507.38,1240.36,503.55,1261.77Z"/><path class="cls-23" d="M673.65,1316.74s5.44-55.17-.74-71.45c-14.76-38.87-58.66-88.62-58.66-88.62S658,1243.45,659,1252.05s6.05,64.69,6.05,64.69Z"/><path class="cls-23" d="M665.94,1298.9c6.92-30.34,24.78-87.63,31.27-108.13a28.07,28.07,0,0,1,9.07-13.07l39.28-32.57c1.26,7-34,49.14-34,49.14s-37.47,125.32-38.57,126a5.7,5.7,0,0,1-6.78-.16A45.3,45.3,0,0,1,665.94,1298.9Z"/><path class="cls-23" d="M672.94,1299.67c11.95-23.69,25.43-44.18,26.31-48,2.81-12.23,62.45-44.47,62.45-44.47s-39.12,38.32-45.8,44-19.58,39.7-19.58,39.7c-5.54.63-12.41,5.46-20.44,16.93Z"/><path class="cls-2" d="M634.34,1266.62s34.76,48.81,92.31,6.1,11.71,74.9-17.21,82.4-59.6,25.84-69.16-18.73S618.17,1259.58,634.34,1266.62Z"/><path class="cls-2" d="M460.55,1239.44s33.33,37.11,91.84,2.27,9.66,58.06-19.37,64.69-60.11,21.74-68.43-12.74S444.62,1234.39,460.55,1239.44Z"/><path class="cls-22" d="M438.76,1276.05s150.18,28.16,132.2-25.26c0,0,1.71,5.85-3.47,11.88s-19.49-3.48-24.12,3.19c-2,2.93-4.23,9.68-8.19,9.41a87.64,87.64,0,0,1-10.71-2.1,23.25,23.25,0,0,0-11,0l-10.6,2.62S447.92,1276.66,438.76,1276.05Z"/><path class="cls-22" d="M655.33,1298s9.15-2.57,22.19,0,11.51-.25,15.09-1.14,6.46-5.32,11.23-4.63,8.17-5.48,8.17-8.53,9.19,12.52-3.4,15.63S681.13,1305.17,655.33,1298Z"/></svg>