<svg height="512" viewBox="0 0 512 512" width="512" xmlns="http://www.w3.org/2000/svg"><path d="m256 288h72v72h-72z" fill="#b0b0ae"/><path d="m488 496h-320v-112l-43.97 81.66a42.485 42.485 0 0 1 -76.88-35.85l43.91-110.34a64.016 64.016 0 0 1 45.59-38.82l111.35-24.65 48 104 48-104 93.47 20.86a62.5 62.5 0 0 1 6.57 1.84 63.994 63.994 0 0 1 43.55 60.64z" fill="#ffb531"/><path d="m488 496h-288.59c55.51-19.75 187.23-79.62 244.63-217.3a63.994 63.994 0 0 1 43.55 60.64z" fill="#ffa912"/><path d="m199.585 224-40 64 48 16-16 24 104.415 32-48-104v-32z" fill="#ffcb73"/><path d="m391.585 224 40 64-48 16 16 24-128 64 72.415-136v-32z" fill="#ffcb73"/><path d="m425.98 180.33a78.018 78.018 0 0 1 -53.32 73.98l-5.07 1.69h-144l-5.08-1.69a77.975 77.975 0 0 1 -36.23-122.68l9.31-11.63a91.117 91.117 0 0 1 63.8-35.98q20.055-2.01 40.19-2t40.2 2a91.165 91.165 0 0 1 63.81 35.98l9.3 11.63a77.98 77.98 0 0 1 17.09 48.7z" fill="#f98500"/><path d="m368 120v88c0 34.37-24.4 63.13-56.71 70.29a72.556 72.556 0 0 1 -15.7 1.71 71.651 71.651 0 0 1 -71.59-72v-88z" fill="#fec9a3"/><path d="m368 120v88c0 34.37-24.4 63.13-56.71 70.29a71.837 71.837 0 0 0 24.71-54.29v-88a72.715 72.715 0 0 0 -1.78-16z" fill="#fec093"/><path d="m368 144v120a40 40 0 0 1 -40 40h-64c-.39 0-.77-.01-1.15-.01a40.013 40.013 0 0 1 -38.85-39.99v-120l40 72a53.36 53.36 0 0 1 64 0l29.6-53.29z" fill="#d6d6d4"/><path d="m368 144v120a40 40 0 0 1 -40 40h-64c-.39 0-.77-.01-1.15-.01a39.628 39.628 0 0 1 -13.76-2.87c66.45-7.69 96.98-35.87 108.51-138.41z" fill="#cfcfcd"/><path d="m256 232h-32a40 40 0 0 1 40-40h32a40 40 0 0 1 -40 40z" fill="#ebebe9"/><path d="m336 232h32a40 40 0 0 0 -40-40h-32a40 40 0 0 0 40 40z" fill="#ebebe9"/><path d="m376 192h-8v-48h8a24 24 0 0 1 24 24 24 24 0 0 1 -24 24z" fill="#feb784"/><path d="m216 144h8v48h-8a24 24 0 0 1 -24-24 24 24 0 0 1 24-24z" fill="#feb784"/><path d="m224 120h144v16h-144z" fill="#fec093"/><path d="m259.586 136a12 12 0 1 0 12 12 12.013 12.013 0 0 0 -12-12z" fill="#7a432a"/><path d="m331.586 136a12 12 0 1 0 12 12 12.013 12.013 0 0 0 -12-12z" fill="#7a432a"/><path d="m368 96-5.089-36.541a31.718 31.718 0 0 0 -22.774-25.159l-28.859-8.132a57.872 57.872 0 0 0 -15.693-2.168 57.865 57.865 0 0 0 -15.692 2.168l-28.859 8.132a31.718 31.718 0 0 0 -22.774 25.159l-6.26 36.541z" fill="#ffb531"/><path d="m288 48h16v48h-16z" fill="#ffcb73"/><path d="m432.161 411.2-.161-27.2h56v38.623c0 14.594-10.533 27.754-25.012 29.229-12.38 1.261-24.851-1.119-35.435-7.806-10.513-6.642-20.84-13.8-32.339-18.66-12.434-5.255-25.979-6.941-39.239-8.832-3.79-.541-11.975-.554-11.975-.554v-24h19.042a134.056 134.056 0 0 1 69.119 19.2z" fill="#95573a"/><path d="m446.4 496h-68.8a9.6 9.6 0 0 1 -9.6-9.6v-38.4a16 16 0 0 1 16-16h56a16 16 0 0 1 16 16v38.4a9.6 9.6 0 0 1 -9.6 9.6z" fill="#fec9a3"/><path d="m440 432h-31.585a16 16 0 0 1 16 16v38.4a9.6 9.6 0 0 1 -9.6 9.6h31.585a9.6 9.6 0 0 0 9.6-9.6v-38.4a16 16 0 0 0 -16-16z" fill="#fec093"/><path d="m84 488a44 44 0 0 1 -44-44v-140h88v140a44 44 0 0 1 -44 44z" fill="#ffb531"/><path d="m135.66 320.13c0 5.57-.18 11.05-.53 16.41-.03.62-.07 1.23-.12 1.84-.03.46-.06.92-.1 1.37-.1 1.31-.21 2.61-.33 3.89-.29 3.11-.63 6.18-1.03 9.19-.1.77-.21 1.53-.32 2.29-.33 2.39-.71 4.75-1.12 7.07-.26 1.49-.53 2.98-.82 4.44-.05.27-.11.53-.16.79-.13.69-.27 1.36-.42 2.04-.18.88-.38 1.76-.57 2.64s-.4 1.74-.61 2.6c-1.01 4.23-2.14 8.32-3.37 12.24l-.63 1.95c-.3.92-.61 1.84-.92 2.74a138.294 138.294 0 0 1 -6.2 15.03c-.33.66-.65 1.31-.98 1.96l-.12.24q-1.425 2.775-2.94 5.33c-.7 1.19-1.41 2.34-2.14 3.45-.36.56-.73 1.11-1.1 1.65-.25.36-.51.73-.76 1.08q-.735 1.05-1.5 2.04c-.38.5-.77.99-1.16 1.48s-.78.95-1.17 1.41c-.3.36-.6.7-.91 1.04-.49.56-.99 1.1-1.49 1.62-.29.31-.59.61-.88.9a48.139 48.139 0 0 1 -5.41 4.67c-.33.24-.67.48-1.01.71-.96.67-1.94 1.28-2.92 1.83-.35.2-.71.39-1.06.57-.33.17-.65.34-.98.48-.29.15-.58.29-.88.41-.38.17-.77.33-1.15.49s-.77.29-1.16.42c-.09.03-.18.07-.27.1-.44.14-.88.28-1.33.41-.36.1-.73.2-1.1.28-.14.04-.28.07-.42.1-.37.09-.75.16-1.13.23a1.127 1.127 0 0 1 -.18.03c-.38.07-.76.13-1.13.17-.12.02-.24.04-.35.05-.45.05-.89.09-1.34.12-.48.04-.96.05-1.44.06-.11.01-.23.01-.34.01-30.93 0-56-53.67-56-119.87 0-23.31 5.52-52.12 11.97-80.13q.93-4.02 1.87-8c1.28-5.4 2.58-10.75 3.87-16 1.33-5.46 2.65-10.81 3.92-16 5.74-23.55 10.37-43.82 10.37-56h48v8c-.42 10.11 3.58 27.4 8.89 48 1.32 5.15 2.73 10.5 4.17 16 .25.97.51 1.94.76 2.92s.52 1.97.77 2.95c.02.07.04.14.06.22.5 1.91.99 3.82 1.49 5.75.35 1.38.71 2.77 1.06 4.16q1.02 3.975 2.02 8c6.79 27.45 12.78 56.29 12.78 80.13z" fill="#4db7e5"/><path d="m135.66 320.13c0 65.96-24.9 119.48-55.66 119.86v-295.99h23.66v8c-.42 10.11 3.58 27.4 8.89 48 1.32 5.15 2.73 10.5 4.17 16 1.36 5.21 2.76 10.57 4.14 16q1.02 3.975 2.02 8c6.79 27.45 12.78 56.29 12.78 80.13z" fill="#5ac6d4"/><path d="m45.29 200c-1.27 5.19-2.59 10.54-3.92 16-1.29 5.25-2.59 10.6-3.87 16h42.5v-32z" fill="#48add9"/><path d="m119.8 227.84q-.75-2.9-1.49-5.75c-.02-.08-.04-.15-.06-.22-.25-.98-.51-1.97-.77-2.95s-.51-1.95-.76-2.92c-1.44-5.5-2.85-10.85-4.17-16h-32.55v32h40.86c-.35-1.39-.71-2.78-1.06-4.16z" fill="#57bfcc"/><path d="m103.656 144h-48l-9.372-9.942a84.535 84.535 0 0 1 -22.628-57.943h4.223c21.927 0 41.971 13.14 51.777 33.943 9.806-20.8 29.851-33.943 51.777-33.943h4.223a84.535 84.535 0 0 1 -22.627 57.943z" fill="#4db7e5"/><g fill="#2d7dbf"><path d="m71.656 208h16v112h-16z"/><path d="m128 368.344a7.985 7.985 0 0 1 -5.477-2.172.017.017 0 0 1 -.015-.016h-.008c0-.008-.008-.008-.016-.015-.007-.008-.007-.016-.015-.016a.008.008 0 0 0 -.008-.008l-.008-.008c0-.007-.008-.007-.008-.007-.015-.016 0 .007-.023-.024l-.008-.008-.008-.008-.008-.007-.015-.016c-.008-.008-.016-.008-.016-.016s0 .008-.023-.023a47.8 47.8 0 0 0 -60.3-5.977l-9.945 6.633-8.875-13.312 9.945-6.633a63.795 63.795 0 0 1 80.148 7.633l.086.086.258.258a8 8 0 0 1 -5.661 13.656z"/><path d="m67.656 376a12 12 0 1 0 12 12 12.013 12.013 0 0 0 -12-12z"/><path d="m90 394.344-34.157 34.156a40.642 40.642 0 0 0 13.306 9.318l32.163-32.163z"/></g><rect fill="#fec9a3" height="72" rx="16" width="104" x="24" y="144"/><path d="m112 144h-32a16 16 0 0 1 16 16v40a16 16 0 0 1 -16 16h32a16 16 0 0 0 16-16v-40a16 16 0 0 0 -16-16z" fill="#fec093"/><path d="m264 392h16v104h-16z" fill="#f7a116"/><circle cx="308" cy="484" fill="#f7a116" r="12"/><circle cx="307.586" cy="412" fill="#f7a116" r="12"/><path d="m399.59 120h-208a91.117 91.117 0 0 1 63.8-35.98q20.055-2.01 40.19-2t40.2 2a91.165 91.165 0 0 1 63.81 35.98z" fill="#ffa912"/></svg>