<?xml version="1.0" encoding="iso-8859-1"?>
<!-- Generator: Adobe Illustrator 19.0.0, SVG Export Plug-In . SVG Version: 6.00 Build 0)  -->
<svg version="1.1" id="Layer_1" xmlns="http://www.w3.org/2000/svg" xmlns:xlink="http://www.w3.org/1999/xlink" x="0px" y="0px"
	 viewBox="0 0 512 512" style="enable-background:new 0 0 512 512;" xml:space="preserve">
<path style="fill:#E2FFAE;" d="M445.217,489.739H66.783c-24.588,0-44.522-19.934-44.522-44.522V66.783
	c0-24.588,19.933-44.522,44.522-44.522h378.435c24.588,0,44.522,19.933,44.522,44.522v378.435
	C489.739,469.806,469.806,489.739,445.217,489.739z"/>
<path style="fill:#7F932A;" d="M500.87,439.652V512h-77.913h-66.783h-77.913V350.609c0-39.956,32.391-72.348,72.348-72.348l0,0
	c39.956,0,72.348,32.391,72.348,72.348v16.931c1.839-0.14,3.691-0.234,5.565-0.234l0,0
	C468.479,367.304,500.87,399.695,500.87,439.652z"/>
<path style="fill:#606D11;" d="M456.348,495.304V512h-33.391h-66.783h-77.913V350.609c0-3.917,0.322-7.757,0.92-11.506
	c8.32-3.336,17.394-5.19,26.906-5.19l0,0c39.956,0,72.348,32.392,72.348,72.348v16.929c1.839-0.14,3.691-0.234,5.565-0.234l0,0
	C423.956,422.957,456.348,455.348,456.348,495.304z M116.87,378.435L116.87,378.435c-39.956,0-72.348,32.392-72.348,72.348v5.565
	h144.696v-5.565C189.217,410.827,156.826,378.435,116.87,378.435z"/>
<path style="fill:#CC9600;" d="M353.391,166.957v55.652c0,16.878-13.73,30.609-30.609,30.609h-33.391
	c-4.61,0-8.348-3.738-8.348-8.348s3.738-8.348,8.348-8.348h33.391c7.672,0,13.913-6.241,13.913-13.913v-55.652
	c0-4.61,3.738-8.348,8.348-8.348S353.391,162.346,353.391,166.957z"/>
<path style="fill:#606D11;" d="M445.217,133.565L445.217,133.565c0,24.588-19.934,44.522-44.522,44.522h-89.043
	c-24.588,0-44.522-19.933-44.522-44.522l0,0c0-24.588,19.933-44.522,44.522-44.522h89.043
	C425.284,89.043,445.217,108.977,445.217,133.565z"/>
<path style="fill:#CC9600;" d="M294.957,478.609h-77.913V111.304h77.913V478.609z"/>
<g>
	<path style="fill:#825E06;" d="M361.739,512L361.739,512H150.261l0,0c0-24.588,19.933-44.522,44.522-44.522h22.261V122.435H256
		v345.043h61.217C341.806,467.478,361.739,487.412,361.739,512z"/>
	<path style="fill:#825E06;" d="M230.957,267.13c0,4.61-3.738,8.348-8.348,8.348h-33.391c-16.878,0-30.609-13.73-30.609-30.609
		v-77.913c0-4.61,3.738-8.348,8.348-8.348s8.348,3.738,8.348,8.348v77.913c0,7.672,6.241,13.913,13.913,13.913h33.391
		C227.219,258.783,230.957,262.52,230.957,267.13z"/>
</g>
<path style="fill:#A9A632;" d="M153.043,306.087c0,13.81-11.234,25.043-25.043,25.043h-16.696c-4.61,0-8.348-3.738-8.348-8.348
	s3.738-8.348,8.348-8.348H128c4.604,0,8.348-3.744,8.348-8.348c0-4.604-3.744-8.348-8.348-8.348H83.478
	c-13.81,0-25.043-11.234-25.043-25.043s11.234-25.043,25.043-25.043h16.696c1.534,0,2.783-1.249,2.783-2.783v-89.043
	c0-4.61,3.738-8.348,8.348-8.348s8.348,3.738,8.348,8.348v89.043c0,10.74-8.739,19.478-19.478,19.478H83.478
	c-4.604,0-8.348,3.744-8.348,8.348s3.744,8.348,8.348,8.348H128C141.81,281.043,153.043,292.277,153.043,306.087z"/>
<path style="fill:#9FBA41;" d="M345.043,133.565H166.957c-24.588,0-44.522-19.933-44.522-44.522l0,0
	C122.435,39.866,162.301,0,211.478,0h89.043c49.178,0,89.043,39.866,89.043,89.043l0,0
	C389.565,113.632,369.632,133.565,345.043,133.565z"/>
<g>
	<path style="fill:#7F932A;" d="M256,133.565L256,133.565c0,24.588-19.933,44.522-44.522,44.522h-89.043
		c-24.588,0-44.522-19.933-44.522-44.522l0,0c0-24.588,19.933-44.522,44.522-44.522h89.043C236.066,89.043,256,108.977,256,133.565z
		"/>
	<path style="fill:#7F932A;" d="M155.826,506.435V512H11.13v-5.565c0-39.956,32.391-72.348,72.348-72.348l0,0
		C123.435,434.087,155.826,466.478,155.826,506.435z"/>
</g>
<path style="fill:#A9A632;" d="M244.87,506.435V512H100.174v-5.565c0-39.956,32.391-72.348,72.348-72.348l0,0
	C212.479,434.087,244.87,466.478,244.87,506.435z"/>
<path style="fill:#606D11;" d="M512,503.652c0,4.61-3.738,8.348-8.348,8.348H8.348C3.738,512,0,508.262,0,503.652
	s3.738-8.348,8.348-8.348h495.304C508.262,495.304,512,499.042,512,503.652z"/>
<g>
</g>
<g>
</g>
<g>
</g>
<g>
</g>
<g>
</g>
<g>
</g>
<g>
</g>
<g>
</g>
<g>
</g>
<g>
</g>
<g>
</g>
<g>
</g>
<g>
</g>
<g>
</g>
<g>
</g>
</svg>
