<?xml version="1.0" encoding="utf-8"?>
<!-- Generator: Adobe Illustrator 26.0.1, SVG Export Plug-In . SVG Version: 6.00 Build 0)  -->
<svg version="1.1" id="Layer_1" xmlns="http://www.w3.org/2000/svg" xmlns:xlink="http://www.w3.org/1999/xlink" x="0px" y="0px"
	 viewBox="0 0 2000 2000" style="enable-background:new 0 0 2000 2000;" xml:space="preserve">
<style type="text/css">
	.st0{fill:#AED76A;}
	.st1{clip-path:url(#SVGID_00000157987272900128828570000012295081343753528472_);fill:#FECFAE;}
	.st2{fill:#AAA49B;}
	.st3{fill:#8F65AC;}
	.st4{fill:#E8E3DD;}
	.st5{fill:#60262E;}
	.st6{fill:#BAB6AF;}
	.st7{clip-path:url(#SVGID_00000000198601621672755130000008753185772115854263_);fill:#FECFAE;}
	.st8{fill:#E5BF9C;}
	.st9{fill:#A08470;}
	.st10{fill:#3F2957;}
	.st11{fill:#AFD86A;}
	.st12{clip-path:url(#SVGID_00000043423120862994373190000001344105935365296534_);fill:#FECFAE;}
	.st13{clip-path:url(#SVGID_00000128448489336114197490000006539718455238998923_);fill:#FECFAE;}
	.st14{fill:#877874;}
	.st15{fill:#967266;}
	.st16{fill:#4C3B36;}
	.st17{fill:#725B51;}
	.st18{fill:#DDCBB8;}
	.st19{fill:#441C0C;}
	.st20{fill:#592710;}
	.st21{fill:#724E44;}
	.st22{clip-path:url(#SVGID_00000068647031618578975460000003534072359185762733_);fill:#FECFAE;}
	.st23{fill:#77A22F;}
	.st24{fill:#AA9983;}
	.st25{fill:#EAC794;}
	.st26{fill:#936B3E;}
	.st27{fill:#E0D1B7;}
	.st28{fill:#BF9D71;}
	.st29{fill:#4C94BF;}
	.st30{fill:#FFFFFF;}
	.st31{fill:#7B625C;}
	.st32{fill:#392516;}
	.st33{fill:#551C3B;}
	.st34{fill:#A28A84;}
	.st35{fill:#B48F6C;}
	.st36{fill:#FECFAE;}
	.st37{fill:#402F21;}
	.st38{fill:#381126;}
	.st39{fill:#7A6047;}
	.st40{fill:#6B6969;}
	.st41{fill:#4F3F2F;}
	.st42{fill:#787676;}
	.st43{fill:#908D8E;}
	.st44{fill:#6E899F;}
	.st45{fill:#FDCFAC;}
	.st46{fill:#62534C;}
	.st47{fill:#554A44;}
	.st48{fill:#3D5669;}
	.st49{fill:#293035;}
	.st50{fill:#78685E;}
	.st51{fill:#8F8D8E;}
	.st52{fill:#38444D;}
	.st53{fill:#797677;}
	.st54{fill:#CAB399;}
	.st55{fill:#A5917A;}
	.st56{fill:#8BBC38;}
	.st57{fill:#AA4226;}
	.st58{fill:#312419;}
	.st59{fill:#443428;}
	.st60{fill:#846A55;}
	.st61{fill:none;}
	.st62{fill:#634C3B;}
	.st63{clip-path:url(#SVGID_00000050644996804491812140000002800877312288382655_);}
	.st64{fill:#D6BA9D;}
	.st65{fill:#1E1713;}
	.st66{fill:#B99971;}
	.st67{fill:#8C6D51;}
	.st68{fill:#9E7E5C;}
	.st69{clip-path:url(#SVGID_00000102532907570450788230000013331733213950096565_);}
	.st70{fill:#352820;}
	.st71{fill:#665140;}
	.st72{clip-path:url(#SVGID_00000177465976159858364660000000534930601826730371_);}
	.st73{clip-path:url(#SVGID_00000155852536323384576390000004519630077505527185_);}
	.st74{clip-path:url(#SVGID_00000119087546675071735970000005962273052234513540_);}
	.st75{clip-path:url(#SVGID_00000137094402320780759140000016709635464108245158_);}
	.st76{fill:#8ABD32;}
	.st77{clip-path:url(#SVGID_00000020398437672113488820000003073673089007983002_);}
	.st78{fill:#993A23;}
	.st79{clip-path:url(#SVGID_00000034076353110497161120000007453488566117042845_);fill:#993A23;}
	.st80{fill:#7A291B;}
	.st81{clip-path:url(#SVGID_00000044878091977901345760000001613970462970274472_);fill:#993A23;}
	.st82{fill:#BC4D3B;}
	.st83{fill:#846F5A;}
	.st84{fill:#AD957D;}
	.st85{fill:#D8C9BA;}
	.st86{fill:#C4B19F;}
	.st87{fill:#705E4D;}
	.st88{clip-path:url(#SVGID_00000043459301890566618070000006589264826622050978_);fill:#998776;}
	.st89{fill:#604F40;}
	.st90{fill:#A39386;}
	.st91{clip-path:url(#SVGID_00000000205520604082592690000010637587242095933372_);fill:#998776;}
	.st92{clip-path:url(#SVGID_00000012432380199735158500000005350236424575886477_);fill:#998776;}
	.st93{clip-path:url(#SVGID_00000019652873996468951320000016189400287573521287_);fill:#846F5A;}
	.st94{clip-path:url(#SVGID_00000019652873996468951320000016189400287573521287_);fill:#998776;}
	.st95{fill:#E5D6C7;}
	.st96{fill:#937D69;}
	.st97{fill:#3C3229;}
	.st98{fill:#71BBD8;}
	.st99{fill:#EC7D51;}
	.st100{fill:url(#SVGID_00000121278922076198536640000002262910831518289343_);}
	.st101{opacity:0.65;fill:url(#SVGID_00000057141297485891799140000009636304262129836684_);}
	.st102{opacity:0.65;fill:url(#SVGID_00000111149129158418482890000014372097118786343340_);}
	.st103{clip-path:url(#SVGID_00000105391694817763299160000009973945674946057611_);fill:#998776;}
	.st104{clip-path:url(#SVGID_00000101795181002569131880000007975842967511020690_);fill:#998776;}
	.st105{clip-path:url(#SVGID_00000071522321912085773430000004692383168651937169_);fill:#846F5A;}
	.st106{clip-path:url(#SVGID_00000071522321912085773430000004692383168651937169_);fill:#998776;}
	.st107{fill:#A08975;}
	.st108{clip-path:url(#SVGID_00000049921720755037919200000003904137153083092408_);}
	.st109{fill:url(#SVGID_00000113329039149999116290000015027813555860370588_);}
	.st110{opacity:0.65;fill:url(#SVGID_00000043417827755979895510000009186311083464660914_);}
	.st111{fill:#998776;}
	.st112{fill:#C1AE9F;}
	.st113{clip-path:url(#SVGID_00000119818719219434568940000001999856870688917917_);fill:#846F5A;}
	.st114{clip-path:url(#SVGID_00000119818719219434568940000001999856870688917917_);fill:#998776;}
	.st115{clip-path:url(#SVGID_00000081632622176582791480000007881619725801241245_);}
	.st116{fill:#515151;}
	.st117{fill:#7A7A7A;}
	.st118{fill:#8C8C8C;}
	.st119{fill:#F5E3BA;}
	.st120{fill:#593263;}
	.st121{opacity:0.4;fill:#BB986F;}
	.st122{fill:#A5A5A5;}
	.st123{fill:#BB986F;}
	.st124{fill:#A883C6;}
	.st125{fill:#2E1849;}
	.st126{fill:#6B6B6B;}
	.st127{fill:#724382;}
	.st128{clip-path:url(#SVGID_00000136405647714700420000000012484357498669907386_);fill:#8ABD32;}
	.st129{clip-path:url(#SVGID_00000071539386383732020620000009739576682420135318_);}
	.st130{fill:#70442C;}
	.st131{opacity:0.2;clip-path:url(#SVGID_00000145029961113763693820000015083902638897217464_);fill:#70442C;}
	.st132{fill:#A36B4B;}
	.st133{fill:#875536;}
	.st134{fill:#D5AF73;}
	.st135{opacity:0.2;clip-path:url(#SVGID_00000162322180629239333000000016471985396489242766_);fill:#70442C;}
	.st136{opacity:0.2;clip-path:url(#SVGID_00000007402956445686887320000008748184504963404707_);fill:#70442C;}
	.st137{opacity:0.4;clip-path:url(#SVGID_00000047776921436606239900000007419089202475141788_);fill:#70442C;}
	.st138{opacity:0.2;clip-path:url(#SVGID_00000047776921436606239900000007419089202475141788_);fill:#70442C;}
	.st139{clip-path:url(#SVGID_00000054974950152538241740000016280046643387610514_);fill:#FECFAE;}
	.st140{fill:#9B8572;}
	.st141{fill:#4F2C2A;}
	.st142{fill:#934D3D;}
	.st143{clip-path:url(#SVGID_00000041273507219221701690000006988493043745817753_);fill:#70442C;}
	.st144{fill:#BF975D;}
	.st145{fill:#A57341;}
	.st146{clip-path:url(#SVGID_00000118391814460641708520000016878327360097847695_);fill:#70442C;}
	.st147{clip-path:url(#SVGID_00000176033818253882564150000007097524470931843213_);fill:#70442C;}
	.st148{fill:#4A1F19;}
	.st149{clip-path:url(#SVGID_00000100376887797276026760000004754602254348164523_);fill:#A37A79;}
	.st150{fill:#D19857;}
	.st151{fill:#D6B58E;}
	.st152{fill:#AF8956;}
	.st153{clip-path:url(#SVGID_00000124869967350464105450000013326276922189649798_);fill:#FECFAE;}
	.st154{fill:#93643A;}
	.st155{clip-path:url(#SVGID_00000110451589681101159860000006845742333608604569_);fill:#70442C;}
	.st156{clip-path:url(#SVGID_00000057135741568272511940000012523963795672487315_);fill:#70442C;}
	.st157{clip-path:url(#SVGID_00000160911589459600861470000009790605326500966530_);fill:#70442C;}
	.st158{clip-path:url(#SVGID_00000006687936798928754200000012739874245353050252_);fill:#70442C;}
	.st159{clip-path:url(#SVGID_00000091726519902232279410000009041857343430741891_);fill:#70442C;}
	.st160{clip-path:url(#SVGID_00000120548661425494523110000002913878620733841334_);fill:#70442C;}
	.st161{clip-path:url(#SVGID_00000062170668350020747230000001423390927383720380_);fill:#70442C;}
	.st162{clip-path:url(#SVGID_00000089574486492801236060000016980888983529516934_);fill:#70442C;}
	.st163{clip-path:url(#SVGID_00000040569726239238684780000015347739151837748618_);fill:#70442C;}
	.st164{clip-path:url(#SVGID_00000105423183676918768970000010457119814455959452_);fill:#70442C;}
	.st165{clip-path:url(#SVGID_00000142887882776109241690000009018354582807805859_);fill:#70442C;}
	.st166{clip-path:url(#SVGID_00000160872024132834264770000015642574327631686285_);fill:#70442C;}
	.st167{clip-path:url(#SVGID_00000121270347305518991310000000731380348481981110_);fill:#A37A79;}
	.st168{clip-path:url(#SVGID_00000102530151913254833180000008622944868573422248_);fill:#FECFAE;}
	.st169{clip-path:url(#SVGID_00000163790958292022682170000012698142838844220574_);fill:#70442C;}
	.st170{clip-path:url(#SVGID_00000021812993221413542420000017491269921089836711_);fill:#70442C;}
	.st171{clip-path:url(#SVGID_00000003797484650582513350000008666254298630343091_);fill:#70442C;}
	.st172{fill:#877366;}
	.st173{clip-path:url(#SVGID_00000066495972349657566150000006585277993266258826_);fill:#FECFAE;}
	.st174{fill:#4E8BC1;}
	.st175{fill:#F9EBE8;}
	.st176{fill:#C9B3AD;}
	.st177{fill:#EAD2CC;}
	.st178{fill:#387BAD;}
	.st179{clip-path:url(#SVGID_00000065758065534669143250000018329052549266304923_);fill:#8ABD32;}
	.st180{clip-path:url(#SVGID_00000004513919364009798490000017420714031807171749_);fill:#8ABD32;}
	.st181{clip-path:url(#SVGID_00000152973321702657546940000010378156987700616599_);fill:#8ABD32;}
	.st182{clip-path:url(#SVGID_00000005239653359847125420000005165432346878842776_);fill:#8ABD32;}
	.st183{clip-path:url(#SVGID_00000150072183700694793850000003463187574398197911_);fill:#8ABD32;}
	.st184{clip-path:url(#SVGID_00000057125370136252175290000002702670075547741371_);fill:#FECFAE;}
	.st185{clip-path:url(#SVGID_00000182520033263357189630000014916888186760158118_);fill:#8ABD32;}
	.st186{fill:#5597C9;}
	.st187{fill:#1572A0;}
	.st188{fill:#D6C5C1;}
	.st189{clip-path:url(#SVGID_00000081621374837432317310000011103750978625245342_);fill:#8ABD32;}
	.st190{fill:#61A6D1;}
	.st191{fill:#B2A19D;}
	.st192{clip-path:url(#SVGID_00000012465721319586828130000012951748192576091795_);fill:#8ABD32;}
	.st193{clip-path:url(#SVGID_00000092426034024859054410000015638179253672907444_);fill:#FECFAE;}
	.st194{clip-path:url(#SVGID_00000096049793785687189180000007884608650279139235_);fill:#8ABD32;}
	.st195{clip-path:url(#SVGID_00000026163533710192112300000001800247016452836749_);fill:#FECFAE;}
	.st196{fill:#A07775;}
	.st197{fill:#B79C86;}
	.st198{fill:#8C383B;}
	.st199{fill:#A5606B;}
	.st200{fill:#8F534A;}
	.st201{fill:#523028;}
	.st202{fill:#7A2C32;}
	.st203{fill:#965D59;}
	.st204{clip-path:url(#SVGID_00000145024417556416265880000015707724157703337604_);fill:#8F534A;}
	.st205{clip-path:url(#SVGID_00000069388486610865901480000009642381513178439041_);fill:#8BBC38;}
	.st206{clip-path:url(#SVGID_00000013888773816031014520000006320692067524597946_);fill:#8BBC38;}
	.st207{clip-path:url(#SVGID_00000129163738726289532640000006605552532312029081_);fill:#FDCFAC;}
	.st208{clip-path:url(#SVGID_00000152946873407563057970000009820467864044952487_);fill:#8F534A;}
	.st209{fill:#5B3932;}
	.st210{fill:#9E5F59;}
	.st211{clip-path:url(#SVGID_00000116205616984771332350000017446236525137487780_);fill:#8BBC38;}
	.st212{clip-path:url(#SVGID_00000017496889672507011750000003143334743035596972_);fill:#603D38;}
	.st213{clip-path:url(#SVGID_00000132781623032540423790000012924556734755237046_);fill:#523028;}
	.st214{fill:#914047;}
	.st215{clip-path:url(#SVGID_00000127034453010885872780000011701176420231643793_);fill:#8BBC38;}
	.st216{clip-path:url(#SVGID_00000062186273505365831190000005130122553314409867_);fill:#8BBC38;}
	.st217{clip-path:url(#SVGID_00000158005160903067003500000013968099079604463013_);fill:#603D38;}
	.st218{clip-path:url(#SVGID_00000085929191820268352200000002719095730967374492_);fill:#523028;}
	.st219{clip-path:url(#SVGID_00000109010935195610707520000018180245746175543441_);fill:#8BBC38;}
	.st220{clip-path:url(#SVGID_00000004542219644534259780000013328117971241257609_);fill:#8BBC38;}
	.st221{clip-path:url(#SVGID_00000174595772821738966820000015259798178157102741_);fill:#8ABD32;}
	.st222{clip-path:url(#SVGID_00000041265500774869655870000006144250371070574237_);fill:#441C0C;}
	.st223{fill:#9B786F;}
	.st224{fill:#8E7C75;}
	.st225{opacity:0.8;fill:#A3ACAF;}
	.st226{fill:#838C8E;}
	.st227{fill:#CFE59A;}
	.st228{clip-path:url(#SVGID_00000098208189575370094900000014402252289848610979_);fill:#FECFAE;}
	.st229{clip-path:url(#SVGID_00000112608949563043105500000010893489854489053877_);fill:#441C0C;}
	.st230{fill:#773825;}
	.st231{clip-path:url(#SVGID_00000039823643962734174190000006155765901564462486_);}
	.st232{clip-path:url(#SVGID_00000030467358983322698060000013442838242763431841_);}
	.st233{clip-path:url(#SVGID_00000024685930051088706590000001829852967585637789_);fill:#441C0C;}
	.st234{clip-path:url(#SVGID_00000054983662613573527580000017549154872715698861_);}
	.st235{clip-path:url(#SVGID_00000020357052971823638530000003836819991137550499_);fill:#441C0C;}
	.st236{fill:#2B1009;}
	.st237{opacity:0.8;fill:#B8BFC1;}
	.st238{fill:#B8BFC1;}
	.st239{fill:#F5FFCA;}
	.st240{fill:#A0C45B;}
	.st241{fill:#BCE077;}
	.st242{clip-path:url(#SVGID_00000160884138865638966460000004206394950489814969_);fill:#FECFAE;}
	.st243{clip-path:url(#SVGID_00000023997630702711912910000003368632127113230238_);}
	.st244{fill:#B99AD6;}
	.st245{fill:#EDCCB2;}
	.st246{fill:#9287AB;}
	.st247{fill:#B6B3C4;}
	.st248{fill:#A29CB7;}
	.st249{fill:#5A546D;}
	.st250{fill:#7F6A5C;}
	.st251{fill:#645F77;}
	.st252{fill:#472A51;}
	.st253{clip-path:url(#SVGID_00000131352228238056493180000012447538182232268197_);}
	.st254{fill:#6D407C;}
	.st255{clip-path:url(#SVGID_00000129167273869048249850000009856653216644661892_);fill:#6D407C;}
	.st256{clip-path:url(#SVGID_00000021081766864857185700000016460002162948985233_);fill:#6D407C;}
	.st257{clip-path:url(#SVGID_00000083773829727915985410000012459666062704370578_);fill:#8ABD32;}
	.st258{fill:#76708E;}
	.st259{clip-path:url(#SVGID_00000057146542619894709150000011736840194399321005_);fill:#6D407C;}
	.st260{clip-path:url(#SVGID_00000013889719380143362860000007201296541755512501_);fill:#6D407C;}
	.st261{fill:#9C7ABC;}
	.st262{clip-path:url(#SVGID_00000101085733542619856120000014829416961912550276_);fill:#FECFAE;}
	.st263{clip-path:url(#SVGID_00000113329420018232462520000016535111346592943003_);fill:#6D407C;}
	.st264{clip-path:url(#SVGID_00000040538725569063820810000003174936551695680435_);fill:#B99AD6;}
	.st265{clip-path:url(#SVGID_00000167373997682127192340000000751919739732551870_);fill:#FECFAE;}
	.st266{clip-path:url(#SVGID_00000102518517233811140380000016603662817627732379_);fill:#8ABD32;}
	.st267{fill:#8C796F;}
	.st268{fill:#633C27;}
	.st269{fill:#3F2519;}
	.st270{fill:#6B5E55;}
	.st271{clip-path:url(#SVGID_00000158737215019609850920000016466838425879495832_);fill:#633C27;}
	.st272{fill:#7A6B5F;}
	.st273{fill:#2B1811;}
	.st274{fill:#594E47;}
	.st275{fill:#685C53;}
	.st276{fill:#A8968A;}
	.st277{fill:#996A52;}
	.st278{fill:#B2A197;}
	.st279{fill:#A39081;}
	.st280{clip-path:url(#SVGID_00000005954092295300966230000017487491243865810339_);}
	.st281{clip-path:url(#SVGID_00000062895912038240160730000012932187181214573443_);fill:#FECFAE;}
	.st282{fill:#685443;}
	.st283{fill:#CCB193;}
	.st284{fill:#BB9C75;}
	.st285{fill:#C6A283;}
	.st286{fill:#897056;}
	.st287{fill:#DB6800;}
	.st288{fill:#F28D26;}
	.st289{fill:#702C31;}
	.st290{fill:#9B8067;}
	.st291{fill:#35261D;}
	.st292{fill:#4B3628;}
	.st293{fill:#658723;}
	.st294{fill:#EDD87E;}
	.st295{fill:#992828;}
	.st296{fill:#C93F3F;}
	.st297{fill:#E1C243;}
	.st298{fill:#D8B213;}
	.st299{fill:#E5CA57;}
	.st300{clip-path:url(#SVGID_00000183949106756774291030000004488599586687914125_);}
	.st301{clip-path:url(#SVGID_00000033370934159602465570000001608581782518740107_);fill:#FECFAE;}
	.st302{fill:#AD8B82;}
	.st303{clip-path:url(#SVGID_00000160881666485148597200000005415620436432750740_);}
	.st304{fill:#7C685B;}
	.st305{clip-path:url(#SVGID_00000127734038810991653420000010652513688968839064_);}
	.st306{clip-path:url(#SVGID_00000104707147484704831390000017133253057956282530_);}
	.st307{fill:#E2D3C5;}
	.st308{fill:#FFEEA9;}
	.st309{fill:#2B211F;}
	.st310{fill:#A3847E;}
	.st311{fill:#544541;}
	.st312{clip-path:url(#SVGID_00000042703901705168084670000002663321054158763398_);fill:#7C251C;}
	.st313{fill:#7C251C;}
	.st314{fill:#CEA380;}
	.st315{clip-path:url(#SVGID_00000140719896113353562430000012066430405808510339_);fill:#8E2F20;}
	.st316{clip-path:url(#SVGID_00000064334838119607370800000017185812472612343190_);fill:#AA4226;}
	.st317{fill:#BA9B95;}
	.st318{fill:#6B5956;}
	.st319{fill:#594947;}
	.st320{fill:#877674;}
	.st321{clip-path:url(#SVGID_00000048498414635783421280000017213530331274179461_);fill:#B6B3C4;}
	.st322{clip-path:url(#SVGID_00000011716108513867874130000016180807533728862083_);fill:#B6B3C4;}
	.st323{clip-path:url(#SVGID_00000116950653251422262330000007810941940770914966_);fill:#E5CA57;}
	.st324{clip-path:url(#SVGID_00000101096905474286963590000005612067518676980139_);fill:#E5CA57;}
	.st325{clip-path:url(#SVGID_00000147210367459503067320000007216545685445730218_);fill:#FECFAE;}
	.st326{fill:#EEC8B8;}
	.st327{fill:#CEA697;}
	.st328{fill:#888499;}
	.st329{fill:#9B4329;}
	.st330{fill:#933D2E;}
	.st331{fill:#843523;}
	.st332{fill:#CC6748;}
	.st333{fill:#B7542E;}
	.st334{fill:#7C3237;}
	.st335{fill:#893724;}
	.st336{fill:#914759;}
	.st337{fill:#D67B5F;}
	.st338{clip-path:url(#SVGID_00000016764671316456639810000004069051472488655795_);fill:#B6B3C4;}
	.st339{clip-path:url(#SVGID_00000050632826311024673830000004208867114502671238_);fill:#B6B3C4;}
	.st340{clip-path:url(#SVGID_00000085243331660259895350000004629594571784786062_);fill:#E5CA57;}
	.st341{clip-path:url(#SVGID_00000160174518580912022770000002531668721622116252_);fill:#E5CA57;}
	.st342{clip-path:url(#SVGID_00000149362798163370981600000013333776252086198937_);fill:#B6B3C4;}
	.st343{clip-path:url(#SVGID_00000088105733950631164780000016347515909830669463_);fill:#B6B3C4;}
	.st344{clip-path:url(#SVGID_00000124129065503051879130000012531574162562533267_);fill:#AED76A;}
	.st345{clip-path:url(#SVGID_00000168081711473131605930000000791208167189810311_);fill:#B6B3C4;}
	.st346{clip-path:url(#SVGID_00000115505750967027318360000000480251616959145141_);fill:#B6B3C4;}
	.st347{clip-path:url(#SVGID_00000098189062461051962040000000584370915144697512_);fill:#E5CA57;}
	.st348{clip-path:url(#SVGID_00000140730686706441683740000003994296033231693956_);}
	.st349{clip-path:url(#SVGID_00000014611988776719675030000000128396742866407579_);fill:#8BBC38;}
	.st350{fill:#A37A79;}
	.st351{fill:#7F74B5;}
	.st352{clip-path:url(#SVGID_00000169527944049941160000000006199313768942658973_);fill:#FECFAE;}
	.st353{clip-path:url(#SVGID_00000000216860583841982560000017666608219751657873_);fill:#E0D1B7;}
	.st354{clip-path:url(#SVGID_00000000216860583841982560000017666608219751657873_);}
	.st355{clip-path:url(#SVGID_00000094576927767674811270000016898453863926193051_);fill:#A37A79;}
	.st356{fill:#682A30;}
	.st357{opacity:0.58;fill:#AA9983;}
	.st358{opacity:0.58;fill:#9B4329;}
	.st359{opacity:0.58;fill:#B7542E;}
	.st360{fill:#755959;}
	.st361{fill:#BC9595;}
	.st362{clip-path:url(#SVGID_00000116212181395142857430000003744493586206343860_);}
	.st363{fill:#E2D8C7;}
	.st364{fill:#969189;}
	.st365{fill:#BAB3A8;}
	.st366{fill:#54423E;}
	.st367{clip-path:url(#SVGID_00000154397738837920020510000010054006653046004920_);fill:#877069;}
	.st368{clip-path:url(#SVGID_00000136404138482913374530000011837184101510070458_);fill:#725B51;}
	.st369{fill:#EFE8DF;}
	.st370{clip-path:url(#SVGID_00000138562601651375999610000006233151158340781223_);fill:#969189;}
	.st371{fill:#765196;}
	.st372{clip-path:url(#SVGID_00000181057207617976642030000003610836349241968298_);fill:#A883C6;}
</style>
<path class="st0" d="M724.35,1030.95c0,0-276.83-298.09-549.45-40.85c-199.15,187.91-120.06,884.4,848.85,644.2
	c116.55-28.89,198.42-48.17,306.82-96.82c69.19-31.05,223.37,0.5,371.72-37.92c219.53-56.86,293.26-332.82,137.73-466.05
	C1571.39,803.38,1175.37,664.11,724.35,1030.95z"/>
<g>
	<defs>
		<path id="SVGID_00000118363863333200064400000014541036569017136036_" d="M724.35,1030.95c0,0-276.83-298.09-549.45-40.85
			c-199.15,187.91-120.06,884.4,848.85,644.2c116.55-28.89,198.42-48.17,306.82-96.82c69.19-31.05,223.37,0.5,371.72-37.92
			c219.53-56.86,289.04-347.99,137.73-466.05C1561.15,815.9,1175.37,664.11,724.35,1030.95z"/>
	</defs>
	<clipPath id="SVGID_00000047057816068238597640000011250422511089510814_">
		<use xlink:href="#SVGID_00000118363863333200064400000014541036569017136036_"  style="overflow:visible;"/>
	</clipPath>
	<path style="clip-path:url(#SVGID_00000047057816068238597640000011250422511089510814_);fill:#FECFAE;" d="M1106.05,1223.02
		c0,0-77.87,106.26-206.55,156.34c-128.68,50.08-177.85,221.2-73.31,357.54s408.65-81.72,408.65-81.72s-187.09-42.62-167.01-150.11
		c20.09-107.49,281.83-258.08,247.83-396.51s-120.24-43.46-120.24-43.46L1106.05,1223.02z"/>
</g>
<path class="st23" d="M253.64,1064.9c1.5-0.57,3.08-1.16,4.74-1.76c0,0-15.88-51.29,52.82-62.96
	c67.97-11.54,73.93,49.71,73.93,49.71s14.22-27.02,46.52-15.88c26.26,8.2,21.05,33,6.29,48.31c0,0,55.68,54.34-97.65,49.71
	c-0.98,0.22-16.04,3.25-16.04,3.25c-10.27,2.05-20.63,2.78-30.73,2.27c0,0-0.01,0-0.01,0l0,0c-19.91-1.01-38.79-6.89-53.94-17.2
	c-0.14-0.1-0.28-0.19-0.42-0.29c-1.15-0.79-2.29-1.73-3.4-2.81C218.85,1100.84,228.12,1074.57,253.64,1064.9z"/>
<path class="st23" d="M596.22,979.14c-1.42-0.76-2.91-1.54-4.47-2.35c0,0,22.3-48.85-44.35-69.19
	c-65.94-20.12-79.67,39.87-79.67,39.87s-10.66-28.61-44.11-21.69c-27.09,4.78-25.09,30.04-12.41,47.11c0,0-62.16,46.78,90.51,61.77
	c0.94,0.34,15.49,5.27,15.49,5.27c9.93,3.35,20.11,5.4,30.19,6.18c0,0,0.01,0,0.01,0l0,0c19.88,1.54,39.35-1.88,55.7-10.17
	c0.15-0.08,0.3-0.15,0.45-0.23c1.24-0.63,2.49-1.42,3.73-2.35C626.14,1019.23,620.3,991.99,596.22,979.14z"/>
<polygon class="st248" points="1284.57,1105.01 1233.24,1091.49 1004.69,1189.25 1106.05,1223.02 1315.67,1108.57 1316.67,1091.28 
	"/>
<polygon class="st247" points="1015.07,1168.13 1107.84,1195.88 1316.67,1091.28 1236.35,1066.52 "/>
<polygon class="st326" points="903.72,959.88 916.35,1150.44 1091.5,1061.59 1106.6,941.76 1264.61,941.76 1269.71,966.61 
	1364.69,923.2 1377.97,879.63 1389.63,614.27 1239.09,518.27 1037.88,611.2 903.72,955.37 "/>
<polygon class="st327" points="1099.16,632.22 1236.79,568.39 1330.57,651.43 1311.09,931.54 1371.69,900.22 1389.63,627.29 
	1244.39,535.74 1093.03,612.87 "/>
<polygon class="st327" points="944.95,925.25 944.95,1110.42 914.81,1127.25 913.45,928.82 "/>
<polygon class="st328" points="696.78,1356.22 320.95,1136.14 320.95,1086.34 682.26,1243.63 724.35,1261.19 "/>
<polygon class="st248" points="1365.51,917.71 994.44,1106.65 994.44,1109.68 696.78,1261.25 696.78,1356.22 1058.82,1169.33 
	1058.91,1168.35 1356.48,1014.74 "/>
<path class="st329" d="M1121.63,1160.65l116.43-53.11c0,0,32.68-162.38,9.19-171.57c-23.49-9.19-134.08,30.64-134.08,30.64
	s-10.6,76.24-8.73,81.01C1106.31,1052.4,1121.63,1160.65,1121.63,1160.65z"/>
<polygon class="st330" points="1111.92,982.53 1110.39,1151.04 1150.86,1131.97 1147.22,1017.33 1161.66,1013.5 1166.88,1125.33 
	1185.45,1113.94 1182.21,1009.92 1196,1006.86 1200.58,1113.9 1215.14,1101.58 1211.31,950.69 "/>
<polygon class="st331" points="1121.63,1160.65 1238.05,1107.54 1238.05,941.08 1226.19,969.67 1226.19,1097.5 1112.31,1147.75 "/>
<g>
	<g>
		<path class="st23" d="M1763.96,1158.06c0,0,21.57-55.99,6.41-56.38S1763.96,1158.06,1763.96,1158.06z"/>
		<path class="st23" d="M1758.15,1157.57c0,0,4.22-44.46-2.16-47.52C1749.62,1106.99,1758.15,1157.57,1758.15,1157.57z"/>
		<path class="st23" d="M1756.76,1156.18c0,0-6.79-52.71-13.69-40.41S1756.76,1156.18,1756.76,1156.18z"/>
		<path class="st23" d="M1770.45,1158.13c0,0,6.87-44.13,13.8-45.52C1791.18,1111.22,1770.45,1158.13,1770.45,1158.13z"/>
		<path class="st23" d="M1772.14,1157.13c0,0,19.57-49.41,23.23-35.79C1799.02,1134.96,1772.14,1157.13,1772.14,1157.13z"/>
	</g>
	<g>
		<path class="st23" d="M1649.73,1223.72c0,0,21.57-55.99,6.41-56.38S1649.73,1223.72,1649.73,1223.72z"/>
		<path class="st23" d="M1643.93,1223.23c0,0,4.22-44.46-2.16-47.52C1635.4,1172.65,1643.93,1223.23,1643.93,1223.23z"/>
		<path class="st23" d="M1642.53,1221.84c0,0-6.79-52.71-13.69-40.41S1642.53,1221.84,1642.53,1221.84z"/>
		<path class="st23" d="M1656.22,1223.79c0,0,6.87-44.13,13.8-45.52C1676.95,1176.87,1656.22,1223.79,1656.22,1223.79z"/>
		<path class="st23" d="M1657.92,1222.78c0,0,19.57-49.41,23.23-35.79C1684.8,1200.61,1657.92,1222.78,1657.92,1222.78z"/>
	</g>
	<g>
		<path class="st23" d="M1706.92,1187.87c0,0,21.57-55.99,6.41-56.38S1706.92,1187.87,1706.92,1187.87z"/>
		<path class="st23" d="M1701.12,1187.38c0,0,4.22-44.46-2.16-47.52C1692.59,1136.8,1701.12,1187.38,1701.12,1187.38z"/>
		<path class="st23" d="M1699.73,1185.99c0,0-6.79-52.71-13.69-40.41C1679.14,1157.87,1699.73,1185.99,1699.73,1185.99z"/>
		<path class="st23" d="M1713.41,1187.94c0,0,6.87-44.13,13.8-45.52C1734.14,1141.02,1713.41,1187.94,1713.41,1187.94z"/>
		<path class="st23" d="M1715.11,1186.93c0,0,19.57-49.41,23.23-35.79C1741.99,1164.76,1715.11,1186.93,1715.11,1186.93z"/>
	</g>
	<g>
		<path class="st23" d="M1550.5,1314.04c0,0,21.57-55.99,6.41-56.38S1550.5,1314.04,1550.5,1314.04z"/>
		<path class="st23" d="M1544.69,1313.55c0,0,4.22-44.46-2.16-47.52C1536.16,1262.97,1544.69,1313.55,1544.69,1313.55z"/>
		<path class="st23" d="M1543.3,1312.16c0,0-6.79-52.71-13.69-40.41C1522.71,1284.05,1543.3,1312.16,1543.3,1312.16z"/>
		<path class="st23" d="M1556.99,1314.11c0,0,6.87-44.13,13.8-45.52C1577.72,1267.2,1556.99,1314.11,1556.99,1314.11z"/>
		<path class="st23" d="M1558.68,1313.11c0,0,19.57-49.41,23.23-35.79C1585.56,1290.94,1558.68,1313.11,1558.68,1313.11z"/>
	</g>
	<g>
		<path class="st23" d="M1599.04,1267.26c0,0-4.79-59.81,9.85-55.89C1623.53,1215.3,1599.04,1267.26,1599.04,1267.26z"/>
		<path class="st23" d="M1604.74,1268.44c0,0,8.57-43.83,15.55-44.95C1627.27,1222.36,1604.74,1268.44,1604.74,1268.44z"/>
		<path class="st23" d="M1606.47,1267.5c0,0,21.47-48.62,24.59-34.87S1606.47,1267.5,1606.47,1267.5z"/>
		<path class="st23" d="M1592.79,1265.49c0,0,5.94-44.26-0.31-47.57S1592.79,1265.49,1592.79,1265.49z"/>
		<path class="st23" d="M1591.45,1264.04c0,0-4.74-52.94-12.11-40.91C1571.97,1235.16,1591.45,1264.04,1591.45,1264.04z"/>
	</g>
	<g>
		<path class="st23" d="M1507.59,1366.79c0,0,21.57-55.99,6.41-56.38S1507.59,1366.79,1507.59,1366.79z"/>
		<path class="st23" d="M1501.79,1366.3c0,0,4.22-44.46-2.16-47.52C1493.26,1315.72,1501.79,1366.3,1501.79,1366.3z"/>
		<path class="st23" d="M1500.4,1364.91c0,0-6.79-52.71-13.69-40.41C1479.81,1336.79,1500.4,1364.91,1500.4,1364.91z"/>
		<path class="st23" d="M1514.08,1366.86c0,0,6.87-44.13,13.8-45.52C1534.82,1319.94,1514.08,1366.86,1514.08,1366.86z"/>
		<path class="st23" d="M1515.78,1365.85c0,0,19.57-49.41,23.23-35.79C1542.66,1343.68,1515.78,1365.85,1515.78,1365.85z"/>
	</g>
	<g>
		<path class="st23" d="M1467.23,1423.51c0,0,21.57-55.99,6.41-56.38S1467.23,1423.51,1467.23,1423.51z"/>
		<path class="st23" d="M1461.43,1423.02c0,0,4.22-44.46-2.15-47.52C1452.9,1372.44,1461.43,1423.02,1461.43,1423.02z"/>
		<path class="st23" d="M1460.03,1421.63c0,0-6.79-52.71-13.69-40.41C1439.44,1393.52,1460.03,1421.63,1460.03,1421.63z"/>
		<path class="st23" d="M1473.72,1423.59c0,0,6.87-44.13,13.8-45.52C1494.45,1376.67,1473.72,1423.59,1473.72,1423.59z"/>
		<path class="st23" d="M1475.41,1422.58c0,0,19.57-49.41,23.23-35.79C1502.29,1400.41,1475.41,1422.58,1475.41,1422.58z"/>
	</g>
	<g>
		<path class="st23" d="M1425.68,1484.75c0,0,21.57-55.99,6.41-56.38S1425.68,1484.75,1425.68,1484.75z"/>
		<path class="st23" d="M1419.88,1484.26c0,0,4.22-44.46-2.16-47.52C1411.35,1433.68,1419.88,1484.26,1419.88,1484.26z"/>
		<path class="st23" d="M1418.48,1482.87c0,0-6.79-52.71-13.69-40.41S1418.48,1482.87,1418.48,1482.87z"/>
		<path class="st23" d="M1432.17,1484.82c0,0,6.87-44.13,13.8-45.52C1452.9,1437.9,1432.17,1484.82,1432.17,1484.82z"/>
		<path class="st23" d="M1433.86,1483.82c0,0,19.57-49.41,23.23-35.79C1460.74,1461.64,1433.86,1483.82,1433.86,1483.82z"/>
	</g>
</g>
<g>
	<g>
		<path class="st23" d="M1816.86,1230.78c0,0,3.49-58.76-10.79-54.61C1791.79,1180.31,1816.86,1230.78,1816.86,1230.78z"/>
		<path class="st23" d="M1811.29,1232.05c0,0-9.29-42.81-16.16-43.78S1811.29,1232.05,1811.29,1232.05z"/>
		<path class="st23" d="M1809.57,1231.17c0,0-22.04-47.25-24.83-33.7C1781.96,1211.02,1809.57,1231.17,1809.57,1231.17z"/>
		<path class="st23" d="M1822.95,1228.92c0,0-6.72-43.29-0.66-46.66C1828.36,1178.89,1822.95,1228.92,1822.95,1228.92z"/>
		<path class="st23" d="M1824.24,1227.47c0,0,3.58-52.02,11.05-40.37S1824.24,1227.47,1824.24,1227.47z"/>
	</g>
	<g>
		<path class="st23" d="M1861.69,1182.19c0,0,3.49-58.76-10.79-54.61S1861.69,1182.19,1861.69,1182.19z"/>
		<path class="st23" d="M1856.12,1183.47c0,0-9.29-42.81-16.16-43.78S1856.12,1183.47,1856.12,1183.47z"/>
		<path class="st23" d="M1854.41,1182.58c0,0-22.04-47.25-24.83-33.7C1826.79,1162.43,1854.41,1182.58,1854.41,1182.58z"/>
		<path class="st23" d="M1867.78,1180.33c0,0-6.72-43.29-0.66-46.66C1873.19,1130.3,1867.78,1180.33,1867.78,1180.33z"/>
		<path class="st23" d="M1869.07,1178.88c0,0,3.58-52.02,11.05-40.37S1869.07,1178.88,1869.07,1178.88z"/>
	</g>
	<g>
		<path class="st23" d="M1770.19,1292.87c0,0,3.49-58.76-10.79-54.61S1770.19,1292.87,1770.19,1292.87z"/>
		<path class="st23" d="M1764.62,1294.14c0,0-9.29-42.81-16.16-43.78C1741.59,1249.4,1764.62,1294.14,1764.62,1294.14z"/>
		<path class="st23" d="M1762.9,1293.26c0,0-22.04-47.25-24.83-33.7C1735.29,1273.11,1762.9,1293.26,1762.9,1293.26z"/>
		<path class="st23" d="M1776.28,1291.01c0,0-6.72-43.29-0.66-46.66C1781.69,1240.98,1776.28,1291.01,1776.28,1291.01z"/>
		<path class="st23" d="M1777.56,1289.56c0,0,3.58-52.02,11.05-40.37S1777.56,1289.56,1777.56,1289.56z"/>
	</g>
	<g>
		<path class="st23" d="M1722.36,1351.09c0,0-22.28-54.48-7.43-55.17C1729.79,1295.23,1722.36,1351.09,1722.36,1351.09z"/>
		<path class="st23" d="M1728.05,1350.5c0,0-5.04-43.52,1.15-46.65C1735.39,1300.71,1728.05,1350.5,1728.05,1350.5z"/>
		<path class="st23" d="M1729.38,1349.1c0,0,5.59-51.84,12.61-39.91C1749.01,1321.11,1729.38,1349.1,1729.38,1349.1z"/>
		<path class="st23" d="M1716,1351.29c0,0-7.63-43.14-14.45-44.37S1716,1351.29,1716,1351.29z"/>
		<path class="st23" d="M1714.32,1350.34c0,0-20.19-48.07-23.5-34.64C1687.5,1329.14,1714.32,1350.34,1714.32,1350.34z"/>
	</g>
	<g>
		<path class="st23" d="M1649.06,1486.12c0,0,3.49-58.76-10.79-54.61C1623.99,1435.66,1649.06,1486.12,1649.06,1486.12z"/>
		<path class="st23" d="M1643.49,1487.4c0,0-9.29-42.81-16.16-43.78C1620.46,1442.66,1643.49,1487.4,1643.49,1487.4z"/>
		<path class="st23" d="M1641.78,1486.51c0,0-22.04-47.25-24.83-33.7C1614.16,1466.36,1641.78,1486.51,1641.78,1486.51z"/>
		<path class="st23" d="M1655.15,1484.26c0,0-6.72-43.29-0.66-46.66C1660.56,1434.23,1655.15,1484.26,1655.15,1484.26z"/>
		<path class="st23" d="M1656.44,1482.81c0,0,3.58-52.02,11.05-40.37S1656.44,1482.81,1656.44,1482.81z"/>
	</g>
	<g>
		<path class="st23" d="M1679.07,1417.41c0,0,3.49-58.76-10.79-54.61C1654,1366.94,1679.07,1417.41,1679.07,1417.41z"/>
		<path class="st23" d="M1673.5,1418.68c0,0-9.29-42.81-16.16-43.78S1673.5,1418.68,1673.5,1418.68z"/>
		<path class="st23" d="M1671.78,1417.8c0,0-22.04-47.25-24.83-33.7C1644.17,1397.65,1671.78,1417.8,1671.78,1417.8z"/>
		<path class="st23" d="M1685.16,1415.55c0,0-6.72-43.29-0.66-46.66C1690.57,1365.52,1685.16,1415.55,1685.16,1415.55z"/>
		<path class="st23" d="M1686.44,1414.1c0,0,3.58-52.02,11.05-40.37S1686.44,1414.1,1686.44,1414.1z"/>
	</g>
</g>
<polygon class="st332" points="1299.84,934.44 1390.22,891.03 1413.71,891.03 1277.88,955.37 "/>
<polygon class="st329" points="1359.41,912.99 1348.43,911.11 1372.86,635.2 1389.63,664.82 "/>
<polygon class="st333" points="1383.07,651.43 1359.41,912.99 1392.27,898.18 1419.84,651.43 "/>
<g>
	<polygon class="st329" points="1200.71,632.14 1206.4,622.23 1211.77,612.87 1201.11,609.48 1081.31,656.7 1080.36,820.04 
		1091.02,823.42 1093.54,813.25 1098.24,810.82 1091.02,823.42 1209.12,762.56 1211.77,612.87 	"/>
	<polygon class="st333" points="1091.02,823.42 1091.96,660.08 1211.77,612.87 1209.12,762.56 	"/>
	<polygon class="st65" points="1104.43,800.03 1105.17,672.99 1198.35,636.26 1196.3,752.69 	"/>
	<polygon class="st333" points="1147.94,650.81 1147.27,782.22 1159.77,776.33 1160.69,644.42 	"/>
	<polygon class="st333" points="1101.14,744.08 1209.4,691.58 1199.2,682.5 1090.42,734.98 	"/>
	<polygon class="st332" points="1077.69,819.77 1214.78,748.25 1239.17,752.96 1107.19,838.28 	"/>
	<path class="st333" d="M1113.16,832.07l126.02-79.11c0,0,0.81,12.38-8.79,19.37c-11.23,8.18-131.22,80.14-131.22,80.14
		L1113.16,832.07z"/>
	<path class="st329" d="M1077.69,819.77l35.47,12.31c0,0-4.12,20.02-16.73,20.5C1083.82,853.05,1075,842.47,1077.69,819.77z"/>
	<path class="st23" d="M1109.77,814.58c0,0,11.46,20.88,28.25,11.04c13.83-8.1,12.1-21.44,21.75-22.97
		c9.65-1.53,18.84-1.07,28.7-11.12c9.86-10.04,15.6-7.41,25.2-14.7s5.26-15.29,10.42-20.96c6.47-7.11-1.05-31.9-35.22-16.71
		c0,0-26.09-3.89-31,9.78s-16.7,16.56-16.7,16.56s-23.2-3.92-21.2,10.89c0,0-31.28,5.24-20.37,19.5
		C1099.6,795.9,1080.86,815.9,1109.77,814.58z"/>
	
		<ellipse transform="matrix(0.9995 -0.0318 0.0318 0.9995 -23.227 38.8704)" class="st299" cx="1209.94" cy="749.38" rx="5.74" ry="5.83"/>
	
		<ellipse transform="matrix(0.943 -0.3327 0.3327 0.943 -202.3613 428.2186)" class="st299" cx="1149.38" cy="805.08" rx="8.58" ry="6.81"/>
	
		<ellipse transform="matrix(0.9995 -0.0318 0.0318 0.9995 -23.5031 38.2851)" class="st299" cx="1191.41" cy="757.76" rx="4.36" ry="4.43"/>
	
		<ellipse transform="matrix(0.9995 -0.0318 0.0318 0.9995 -24.3791 36.7994)" class="st299" cx="1144.28" cy="784.55" rx="2.82" ry="2.86"/>
	
		<ellipse transform="matrix(0.7801 -0.6256 0.6256 0.7801 -239.2041 880.3839)" class="st299" cx="1132.87" cy="780.5" rx="4.42" ry="3.64"/>
	
		<ellipse transform="matrix(0.9995 -0.0318 0.0318 0.9995 -23.619 37.6165)" class="st299" cx="1170.34" cy="761.07" rx="3.06" ry="3.11"/>
	
		<ellipse transform="matrix(0.9861 -0.1664 0.1664 0.9861 -106.8705 207.2473)" class="st299" cx="1183.12" cy="741.27" rx="8.39" ry="7.07"/>
	
		<ellipse transform="matrix(0.0512 -0.9987 0.9987 0.0512 327.6107 1900.8228)" class="st299" cx="1164.17" cy="778" rx="7.9" ry="9.37"/>
</g>
<polygon class="st334" points="1293.11,486.1 1480.61,647.71 1464.59,646.81 1268.69,525.93 1135.92,579.54 1050.42,741.27 
	966.39,900.22 724.35,1044.01 350.56,853.05 286.22,810.35 277.54,807.8 277.54,792.48 711.58,801.16 1165.54,501.93 "/>
<polygon class="st333" points="1238.05,941.08 1238.05,1107.54 1277.88,1088.14 1282.99,928.82 "/>
<path class="st329" d="M1084.86,1178.01l-26.04-8.68l-3.06-195.32l29.11,8.94C1084.86,982.95,1103.24,1148.4,1084.86,1178.01z"/>
<polygon class="st333" points="1084.86,982.95 1084.86,1178.01 1121.63,1160.65 1121.63,966.61 "/>
<path class="st332" d="M669.58,1265.46c0,0,105.83-40.98,167.11-74.68c61.28-33.7,231.15-131.11,231.15-131.11l-23.48-2.3
	l-153.54,72.39l-27.06-148.85l-122.07,58.66l-209.84-84.19l-228.62,111.26l31.66,26.52l21.3-6.04L669.58,1265.46z"/>
<polygon class="st333" points="696.78,1033.5 696.78,1238.78 739.67,1215.29 739.67,1049.84 "/>
<polygon class="st333" points="1246.22,547.88 1429.03,693.93 1464.59,646.81 1284.01,501.93 1135.92,579.54 1119.06,611.45 "/>
<polygon class="st333" points="1277.88,977.84 1413.71,917.59 1413.71,891.03 1277.88,955.37 "/>
<polygon class="st329" points="696.78,1238.78 663.07,1222.95 663.07,1018.18 696.78,1042.18 "/>
<polygon class="st333" points="348.81,860.74 348.81,1071.63 384.27,1055.29 384.27,887.97 "/>
<polygon class="st329" points="348.81,1071.63 320.95,1058.01 320.95,848.14 348.81,859.03 "/>
<polygon class="st329" points="883.67,1144.31 848.95,1128.48 852.01,974.01 883.67,975.8 905.12,1059.16 "/>
<polygon class="st333" points="883.67,975.8 883.67,1144.31 926.56,1120.82 926.56,941.76 "/>
<polygon class="st333" points="671.24,1260.74 1067.84,1059.67 1067.84,1092.35 671.24,1287.29 "/>
<polygon class="st333" points="724.35,1030.95 724.35,1061.59 960.27,934.44 966.39,900.22 "/>
<polygon class="st329" points="286.22,810.35 724.35,1030.95 724.35,1061.59 286.22,837.93 "/>
<polygon class="st335" points="303.22,1066.64 337.65,1086.34 336.6,1106.04 302.05,1087.46 "/>
<polygon class="st333" points="337.65,1086.34 350.56,1079.29 348.81,1099.03 336.6,1106.04 "/>
<polygon class="st329" points="350.56,1079.29 648.18,1237.33 634.48,1243.63 635.5,1250.69 348.81,1099.03 "/>
<polygon class="st335" points="671.24,1287.29 634.48,1268.14 634.48,1243.63 671.24,1260.74 "/>
<path class="st199" d="M1132.29,567.63l160.82-81.54l-469.7-175.15l-140.1,52.6C683.32,363.54,1044.97,555.38,1132.29,567.63z"/>
<path class="st199" d="M1048.09,934.61l-37.79,43.23c0,0,12.26,24.63,40.51,18.46c13.89-3.03,40.17,16.9,70.81,10.77
	c30.64-6.13,61.28,11.23,88.85-9.19s71.34-16.54,91.33-41.97c19.99-25.43,36.33-54.03,25.1-73.43c-11.23-19.4-9.19-38.81-19.4-39.83
	c-10.21-1.02-36.77-13.28-36.77-13.28S1154.31,943.8,1048.09,934.61z"/>
<path class="st198" d="M966.39,891.03l165.9-323.4L683.32,363.54c0,0-89.56,289.64-152.78,324.37
	C467.31,722.64,966.39,891.03,966.39,891.03z"/>
<polygon class="st199" points="277.54,792.48 727.16,1018.18 966.39,891.03 530.53,687.91 "/>
<path class="st198" d="M1048.09,928.82l-37.79,49.02c0,0,35.22,19.07,45.45,9.19c10.23-9.88,35.23,14.3,65.87,8.17
	c30.64-6.13,61.28,11.23,88.85-9.19s71.34-16.54,91.33-41.97c19.99-25.43,36.33-54.03,25.1-73.43c-11.23-19.4-9.19-38.81-19.4-39.83
	c-10.21-1.02-36.77-13.28-36.77-13.28S1154.31,938.01,1048.09,928.82z"/>
<polygon class="st199" points="1048.09,928.82 1270.73,817.5 1265.21,887.51 1160.69,936.86 "/>
<path class="st199" d="M805.87,579.74c-1.42,3.18-5.03,4.77-8.32,3.63c-4.33-1.5-9.84-3.22-12.47-3.3
	c-4.68-0.14,10.33-30.93,16.44-33.38c6.11-2.45,16.44,4.67,16.95,7.38C818.85,556.17,810.19,570.06,805.87,579.74z"/>
<path class="st199" d="M788.72,542.83c-1.42,3.18-5.03,4.77-8.32,3.63c-4.33-1.5-9.84-3.22-12.47-3.3
	c-4.68-0.14,10.33-30.93,16.44-33.38c6.11-2.45,16.44,4.67,16.95,7.38C801.71,519.26,793.04,533.14,788.72,542.83z"/>
<path class="st199" d="M670.39,598.52c-1.42,3.18-5.03,4.77-8.32,3.63c-4.33-1.5-9.84-3.22-12.47-3.3
	c-4.68-0.14,10.33-30.93,16.44-33.38c6.11-2.45,16.44,4.67,16.95,7.38C683.37,574.95,674.71,588.83,670.39,598.52z"/>
<path class="st199" d="M904.54,762.88c-1.31,2.99-4.69,4.5-7.78,3.45c-4.07-1.38-9.24-2.97-11.71-3.03
	c-4.39-0.11,9.51-29.05,15.23-31.38c5.72-2.33,15.44,4.28,15.93,6.83C916.59,740.71,908.54,753.77,904.54,762.88z"/>
<path class="st336" d="M486.88,819.92c-1.97,1.82-5.01,1.83-6.99,0.02c-2.6-2.38-5.97-5.28-7.8-6.14
	c-3.26-1.53,16.73-18.7,21.8-18.57c5.07,0.13,10.19,8.31,9.72,10.39C503.25,807.23,492.89,814.4,486.88,819.92z"/>
<path class="st336" d="M1131.49,486.69c-1.97,1.82-5.01,1.83-6.99,0.02c-2.6-2.38-5.97-5.28-7.8-6.14
	c-3.26-1.53,16.73-18.7,21.8-18.57s10.19,8.31,9.72,10.39C1147.85,474,1137.5,481.16,1131.49,486.69z"/>
<path class="st336" d="M540.14,832.95c-1.97,1.82-5.01,1.83-6.99,0.02c-2.6-2.38-5.97-5.28-7.8-6.14
	c-3.26-1.53,16.73-18.7,21.8-18.57c5.07,0.13,10.19,8.31,9.72,10.39C556.51,820.26,546.15,827.42,540.14,832.95z"/>
<path class="st336" d="M383.46,794.87c-1.97,1.82-5.01,1.83-6.99,0.02c-2.6-2.38-5.97-5.28-7.8-6.14
	c-3.26-1.53,16.73-18.7,21.8-18.57c5.07,0.13,10.19,8.31,9.72,10.39C399.83,782.18,389.47,789.34,383.46,794.87z"/>
<path class="st199" d="M995.17,757c-2.22,5.06-7.93,7.61-13.17,5.83c-6.89-2.34-14.14-2.22-19.18-7.15
	c-5.32-5.19,15.47-47.13,25.14-51.07s26.12,7.25,26.95,11.55C1015.55,719.5,1001.94,741.6,995.17,757z"/>
<path class="st336" d="M726.13,978.79c-2.93,2.47-7.26,2.32-9.97-0.39c-3.57-3.55-8.12-5.7-9.76-10.3
	c-1.73-4.85,24-24.61,31.22-24.11c7.22,0.5,14.04,12.47,13.25,15.41C750.25,961.67,735.03,971.27,726.13,978.79z"/>
<path class="st336" d="M1015.58,453.08c-2.93,2.47-4.99,5.06-7.71,2.35c-3.57-3.55-8.12-5.7-9.76-10.3
	c-1.73-4.85,22.33-22.17,29.55-21.68c7.22,0.5,14.8,6.01,14,8.95C1041.06,434.67,1024.49,445.55,1015.58,453.08z"/>
<path class="st336" d="M930.47,424.1c-2.93,2.47-7.26,2.32-9.97-0.39c-3.57-3.55-8.12-5.7-9.76-10.3
	c-1.73-4.85,24-24.61,31.22-24.11c7.22,0.5,14.04,12.47,13.25,15.41C954.59,406.98,939.37,416.58,930.47,424.1z"/>
<path class="st336" d="M732.01,931.12c-2.04,1.72-5.05,1.61-6.94-0.27c-2.49-2.47-5.65-3.96-6.79-7.16
	c-1.2-3.38,16.7-17.13,21.73-16.78c5.03,0.35,9.77,8.68,9.22,10.72C748.8,919.21,738.21,925.89,732.01,931.12z"/>
<path class="st336" d="M809.91,887.63c-2.04,1.72-5.05,1.61-6.94-0.27c-2.49-2.47-5.65-3.96-6.79-7.16
	c-1.2-3.38,16.7-17.13,21.73-16.78s9.77,8.68,9.22,10.72C826.7,875.72,816.11,882.4,809.91,887.63z"/>
<path class="st336" d="M527.37,741.07c-2.04,1.72-5.05,1.61-6.94-0.27c-2.49-2.47-5.65-3.96-6.79-7.16
	c-1.2-3.38,16.7-17.13,21.73-16.78c5.03,0.34,9.77,8.68,9.22,10.72C544.15,729.15,533.57,735.83,527.37,741.07z"/>
<path class="st336" d="M894.87,419.08c-2.04,1.72-5.05,1.61-6.94-0.27c-2.49-2.47-5.65-3.96-6.79-7.16
	c-1.2-3.38,16.7-17.13,21.73-16.78s9.77,8.68,9.22,10.72C911.66,407.16,901.07,413.84,894.87,419.08z"/>
<path class="st336" d="M823.54,367.88c-1.89,1.28-4.44,0.91-5.88-0.86c-1.89-2.33-4.44-3.89-5.12-6.72
	c-0.71-2.98,15.78-13.04,20.02-12.28s7.52,8.28,6.86,9.97C838.91,359.28,829.29,363.99,823.54,367.88z"/>
<path class="st199" d="M971.38,621.98c-1.87,4.27-6.69,6.41-11.1,4.92c-5.81-1.97-13.18-4.23-16.7-4.32
	c-6.26-0.16,13.57-41.43,21.72-44.76c8.16-3.32,22.02,6.11,22.72,9.74C988.56,590.36,977.08,608.99,971.38,621.98z"/>
<ellipse class="st336" cx="598.9" cy="886.27" rx="41.56" ry="19.71"/>
<ellipse class="st336" cx="726.51" cy="869.17" rx="54.29" ry="25.74"/>
<g>
	<path class="st333" d="M663.81,686.03c0,0-35.3,80.46-7.62,153.65c4.41,11.66,12.88,21.26,23.74,26.95
		c22.61,11.85,65.57,26.06,106.24-6.49c7.64-6.11,13.38-14.34,16.63-23.7c8.18-23.61,18.78-75.8-10.09-147.14l-41.28,25.35
		l-42.98,2.68l-29.6-10.74l-12.75-20.55H663.81z"/>
	<path class="st329" d="M718.91,717.86c0,0-0.45,141.97,3.65,158.27l3.95-158.27H718.91z"/>
	<path class="st329" d="M765.1,711.91c0,0,14.39,63.74,4.83,154.65c0,0,21.14-49.13,1.54-157.4L765.1,711.91z"/>
	<path class="st329" d="M682.26,708.03c0,0-16.26,66.21-6.7,154.95c0,0-19.85-53.84-0.25-159.52L682.26,708.03z"/>
	<ellipse class="st337" cx="728.22" cy="692.54" rx="66.13" ry="27.72"/>
	<ellipse class="st65" cx="728.22" cy="689.22" rx="47.03" ry="16.65"/>
	<path class="st248" d="M796.67,697.47c0,0,7.46,20.25-7.27,28.14s-28.43,13.43-63.94,12.29c-34.14-1.1-63.87-15.09-68.59-24.94
		c-2.47-5.16-0.12-11.1,2.67-15.6c0.07-0.59,0.23-1.13,0.47-1.69c0.19-0.45,0.44-0.9,0.56-1.37c0.1-0.4,0.15-0.79,0.29-1.16
		c-11.41,8.33-39.5,34.25,10.19,59.59c47.78,24.36,104.46,9.81,124.45-1.21c14.33-7.9,15.48-13.98,17.6-22.47
		C815.34,720.07,813.4,708.37,796.67,697.47z"/>
	<g>
		<defs>
			<path id="SVGID_00000021834410218237767870000009613888501927343023_" d="M664.97,690.37c0,0-54.22,31.61,6.07,62.35
				c47.78,24.37,103.34,7.96,124.45-1.21c8.69-3.78,15.48-13.98,17.6-22.47c2.24-8.97,0.3-20.67-16.43-31.58
				c0,0,7.46,20.25-7.27,28.14c-14.74,7.89-28.43,13.43-63.94,12.29c-34.14-1.1-64.18-14.98-68.59-24.94
				C652.71,703.56,664.97,690.37,664.97,690.37z"/>
		</defs>
		<clipPath id="SVGID_00000078728334683061227910000006298144062856338589_">
			<use xlink:href="#SVGID_00000021834410218237767870000009613888501927343023_"  style="overflow:visible;"/>
		</clipPath>
		<path style="clip-path:url(#SVGID_00000078728334683061227910000006298144062856338589_);fill:#B6B3C4;" d="M796.39,695.39
			c-8-5.62-113.03-6.91-129.52-7.07c0.61,0.11,1.04,0.6,1.06,1.16c0.03,0.64-0.64,1.18-1.34,1.18h-0.31
			c0.05,0.08,0.09,0.16,0.12,0.25c0.02,0.1,0.03,0.21,0.05,0.31c0,0.21-0.06,0.41-0.18,0.6l-0.21,0.24
			c-0.12,0.12-0.26,0.2-0.43,0.24c-0.16,0.07-0.33,0.11-0.52,0.1c-0.18,0.01-0.36-0.03-0.52-0.1c-0.02-0.01-0.04-0.02-0.06-0.02
			c-0.02,0.29-0.15,0.58-0.38,0.79c-0.07,0.06-0.14,0.13-0.22,0.2v7.73c0,1.47-2.48,1.52-2.66,0.15c-0.1,0.29-0.2,0.58-0.31,0.87
			c-0.23,0.61-0.91,1-1.65,0.83c-0.67-0.16-1.17-0.85-0.93-1.46c0.46-1.2,2.48-8.29,2.69-8.73c0.03-0.24,0.18-1.63,0.18-1.63
			c-6.16,5.44-17.15,18.2-2.12,30.23c19.8,15.84,46.74,21.21,66.84,22.42c20.1,1.21,55.68-2.42,70.64-15.51
			C806.6,719.45,805.08,701.49,796.39,695.39z"/>
	</g>
	<path class="st248" d="M645.59,780.24c0,0-36.66,65.74,80.93,69.86c120.66,4.22,85.12-78.22,85.12-78.22s1.37,56.12-83.03,51.35
		S645.59,780.24,645.59,780.24z"/>
	<g>
		<defs>
			<path id="SVGID_00000160892071660662060660000002147197648547803543_" d="M645.59,779.44c0,0-36.66,59.43,80.93,63.15
				c120.66,3.82,85.12-70.7,85.12-70.7s1.37,50.73-83.03,46.42S645.59,779.44,645.59,779.44z"/>
		</defs>
		<clipPath id="SVGID_00000111889020032630338000000015512638895094373813_">
			<use xlink:href="#SVGID_00000160892071660662060660000002147197648547803543_"  style="overflow:visible;"/>
		</clipPath>
		<path style="clip-path:url(#SVGID_00000111889020032630338000000015512638895094373813_);fill:#B6B3C4;" d="M645.59,759.9
			c0,0-28.39,61.82,80.93,66.02c112.91,4.34,85.12-73.91,85.12-73.91s1.37,53.03-83.03,48.52
			C644.23,796.03,645.59,759.9,645.59,759.9z"/>
	</g>
	<g>
		<defs>
			<ellipse id="SVGID_00000047062142521405184620000006371579425916533678_" cx="728.22" cy="689.22" rx="47.03" ry="16.65"/>
		</defs>
		<clipPath id="SVGID_00000091708156093797546030000015603380961517266612_">
			<use xlink:href="#SVGID_00000047062142521405184620000006371579425916533678_"  style="overflow:visible;"/>
		</clipPath>
		<path style="clip-path:url(#SVGID_00000091708156093797546030000015603380961517266612_);fill:#E5CA57;" d="M774.71,698.93
			c-6.37,5.51-23.77,9.71-46.02,9.71c-21.32,0-39.78-3.15-47.03-9.51c-5.01-4.4,21.05-9.51,47.03-9.51S779.9,694.44,774.71,698.93z"
			/>
	</g>
	<g>
		<defs>
			<ellipse id="SVGID_00000052809497567362419810000000350679292624098176_" cx="728.22" cy="689.22" rx="47.03" ry="16.65"/>
		</defs>
		<clipPath id="SVGID_00000160872336409386670240000006644921417428348819_">
			<use xlink:href="#SVGID_00000052809497567362419810000000350679292624098176_"  style="overflow:visible;"/>
		</clipPath>
		<path style="clip-path:url(#SVGID_00000160872336409386670240000006644921417428348819_);fill:#E5CA57;" d="M685.8,700.47
			c0,0-4.06-6.29,1.85-6.8c0,0,1.24-5.05,5.44-4.67c4.19,0.38,6.37-0.76,6.37-0.76s2.58-6.31,9.79-3.54c0,0,0.62-4.93,7.77-1.77
			c0,0,8.13-3.66,12.92,0.63c0,0,3.87-2.24,8.36,0.76c0,0,8.23-3.28,11.96,1.26c0,0,9.48-1.39,13.51,4.42c0,0,8.9,0.21,9.03,5.03
			L685.8,700.47z"/>
	</g>
</g>
<g>
	<path class="st333" d="M559.01,763.05c0,0-23.91,54.49-5.16,104.06c2.99,7.9,8.72,14.4,16.07,18.25
		c15.31,8.03,44.4,17.65,71.95-4.39c5.17-4.14,9.06-9.71,11.26-16.05c5.54-15.99,12.72-51.34-6.83-99.65l-27.95,17.17l-29.11,1.82
		l-20.05-7.28l-8.64-13.92H559.01z"/>
	<path class="st329" d="M596.33,784.61c0,0-0.3,96.15,2.47,107.19l2.68-107.19H596.33z"/>
	<path class="st329" d="M627.61,780.58c0,0,9.75,43.17,3.27,104.74c0,0,14.31-33.28,1.04-106.6L627.61,780.58z"/>
	<path class="st329" d="M571.5,777.95c0,0-11.01,44.84-4.54,104.94c0,0-13.44-36.46-0.17-108.04L571.5,777.95z"/>
	<ellipse class="st337" cx="602.63" cy="767.46" rx="44.79" ry="18.77"/>
	<ellipse class="st65" cx="602.63" cy="765.21" rx="31.85" ry="11.28"/>
	<path class="st248" d="M648.99,770.79c0,0,5.05,13.71-4.93,19.06c-9.98,5.34-19.26,9.09-43.3,8.32
		c-23.12-0.74-43.26-10.22-46.45-16.89c-1.67-3.5-0.08-7.52,1.81-10.56c0.05-0.4,0.16-0.77,0.32-1.14c0.13-0.3,0.3-0.61,0.38-0.93
		c0.07-0.27,0.1-0.53,0.19-0.79c-7.73,5.64-26.75,23.2,6.9,40.36c32.36,16.5,70.75,6.65,84.29-0.82
		c9.71-5.35,10.48-9.47,11.92-15.22C661.64,786.1,660.32,778.18,648.99,770.79z"/>
	<g>
		<defs>
			<path id="SVGID_00000159453179448779731320000006679053805927346837_" d="M559.8,765.99c0,0-36.72,21.41,4.11,42.23
				c32.36,16.5,69.99,5.39,84.29-0.82c5.89-2.56,10.48-9.47,11.92-15.22c1.52-6.08,0.21-14-11.13-21.39c0,0,5.05,13.71-4.93,19.06
				c-9.98,5.34-19.26,9.09-43.3,8.32c-23.12-0.74-43.46-10.14-46.45-16.89C551.49,774.92,559.8,765.99,559.8,765.99z"/>
		</defs>
		<clipPath id="SVGID_00000170255294149547315520000003888296991681137335_">
			<use xlink:href="#SVGID_00000159453179448779731320000006679053805927346837_"  style="overflow:visible;"/>
		</clipPath>
		<path style="clip-path:url(#SVGID_00000170255294149547315520000003888296991681137335_);fill:#B6B3C4;" d="M648.8,769.39
			c-5.42-3.81-76.55-4.68-87.72-4.79c0.41,0.08,0.7,0.41,0.72,0.78c0.02,0.43-0.43,0.8-0.91,0.8h-0.21
			c0.03,0.05,0.06,0.11,0.08,0.17c0.01,0.07,0.02,0.14,0.03,0.21c0,0.14-0.04,0.28-0.12,0.4l-0.14,0.16
			c-0.08,0.08-0.18,0.13-0.29,0.17c-0.11,0.05-0.22,0.07-0.35,0.07c-0.12,0-0.24-0.02-0.35-0.07c-0.01,0-0.03-0.01-0.04-0.02
			c-0.01,0.2-0.1,0.39-0.26,0.53c-0.05,0.04-0.1,0.09-0.15,0.13v5.23c0,1-1.68,1.03-1.8,0.1c-0.07,0.2-0.14,0.39-0.21,0.59
			c-0.16,0.41-0.62,0.68-1.11,0.56c-0.45-0.11-0.79-0.58-0.63-0.99c0.31-0.81,1.68-5.61,1.82-5.91c0.02-0.16,0.12-1.11,0.12-1.11
			c-4.17,3.69-11.62,12.33-1.43,20.48c13.41,10.73,31.66,14.37,45.27,15.19c13.61,0.82,37.71-1.64,47.84-10.5
			C655.71,785.68,654.69,773.52,648.8,769.39z"/>
	</g>
	<path class="st248" d="M546.67,826.85c0,0-24.83,44.53,54.81,47.31c81.72,2.86,57.65-52.97,57.65-52.97s0.93,38.01-56.23,34.78
		C545.75,852.74,546.67,826.85,546.67,826.85z"/>
	<g>
		<defs>
			<path id="SVGID_00000170273620694609345510000013467259719664596125_" d="M546.67,826.31c0,0-24.83,40.25,54.81,42.77
				c81.72,2.59,57.65-47.88,57.65-47.88s0.93,34.35-56.23,31.44C545.75,849.71,546.67,826.31,546.67,826.31z"/>
		</defs>
		<clipPath id="SVGID_00000001627681299958066570000014113784658463437719_">
			<use xlink:href="#SVGID_00000170273620694609345510000013467259719664596125_"  style="overflow:visible;"/>
		</clipPath>
		<path style="clip-path:url(#SVGID_00000001627681299958066570000014113784658463437719_);fill:#B6B3C4;" d="M546.67,813.08
			c0,0-19.23,41.87,54.81,44.71c76.47,2.94,57.65-50.06,57.65-50.06s0.93,35.91-56.23,32.86S546.67,813.08,546.67,813.08z"/>
	</g>
	<g>
		<defs>
			<ellipse id="SVGID_00000180351760922814640860000015312806982861875080_" cx="602.63" cy="765.21" rx="31.85" ry="11.28"/>
		</defs>
		<clipPath id="SVGID_00000068651131273912404570000012482776626785115325_">
			<use xlink:href="#SVGID_00000180351760922814640860000015312806982861875080_"  style="overflow:visible;"/>
		</clipPath>
		<path style="clip-path:url(#SVGID_00000068651131273912404570000012482776626785115325_);fill:#AED76A;" d="M634.12,771.79
			c-4.31,3.73-16.1,6.58-31.16,6.58c-14.44,0-26.94-2.13-31.85-6.44c-3.39-2.98,14.26-6.44,31.85-6.44
			C620.54,765.48,637.63,768.75,634.12,771.79z"/>
	</g>
	<g>
		<defs>
			<ellipse id="SVGID_00000018215484652604415750000001365961022699200686_" cx="602.63" cy="765.21" rx="31.85" ry="11.28"/>
		</defs>
		<clipPath id="SVGID_00000089557351492513476230000014542647417280554650_">
			<use xlink:href="#SVGID_00000018215484652604415750000001365961022699200686_"  style="overflow:visible;"/>
		</clipPath>
	</g>
</g>
<g>
	<path class="st333" d="M405.83,971.16c0,0-21.18,48.28-4.57,92.2c2.65,7,7.73,12.76,14.24,16.17c13.57,7.11,39.34,15.64,63.75-3.89
		c4.58-3.67,8.03-8.61,9.98-14.22c4.91-14.17,11.27-45.48-6.05-88.29l-24.77,15.21l-25.79,1.61l-17.76-6.45l-7.65-12.33H405.83z"/>
	<path class="st329" d="M438.9,990.26c0,0-0.27,85.19,2.19,94.97l2.37-94.97H438.9z"/>
	<path class="st329" d="M466.61,986.69c0,0,8.64,38.24,2.9,92.8c0,0,12.68-29.48,0.92-94.45L466.61,986.69z"/>
	<path class="st329" d="M416.9,984.36c0,0-9.76,39.73-4.02,92.97c0,0-11.91-32.31-0.15-95.72L416.9,984.36z"/>
	<ellipse class="st337" cx="444.48" cy="975.92" rx="39.68" ry="17.48"/>
	<ellipse class="st65" cx="444.48" cy="974.06" rx="28.22" ry="10.98"/>
	<path class="st248" d="M485.55,978.35c0,0,4.48,13.1-4.36,18.2s-17.06,8.68-38.37,7.95c-20.49-0.71-38.33-9.76-41.15-16.13
		c-1.48-3.34-0.07-7.18,1.6-10.09c0.04-0.38,0.14-0.73,0.28-1.09c0.12-0.29,0.27-0.58,0.34-0.88c0.06-0.26,0.09-0.51,0.17-0.75
		c-6.85,5.39-23.7,22.15,6.12,38.54c28.67,15.76,62.68,6.35,74.68-0.78c8.6-5.11,9.29-9.04,10.56-14.53
		C496.76,992.97,495.59,985.41,485.55,978.35z"/>
	<g>
		<defs>
			<path id="SVGID_00000083789970290701300010000017779602856274127753_" d="M406.53,973.77c0,0-32.53,20.44,3.64,40.33
				c28.67,15.76,62.01,5.15,74.68-0.78c5.22-2.44,9.29-9.04,10.56-14.53c1.35-5.8,0.18-13.37-9.86-20.42c0,0,4.48,13.1-4.36,18.2
				c-8.84,5.1-17.06,8.68-38.37,7.94c-20.49-0.71-38.51-9.69-41.15-16.13C399.17,982.29,406.53,973.77,406.53,973.77z"/>
		</defs>
		<clipPath id="SVGID_00000070836047238741290890000001277623018409222323_">
			<use xlink:href="#SVGID_00000083789970290701300010000017779602856274127753_"  style="overflow:visible;"/>
		</clipPath>
		<path style="clip-path:url(#SVGID_00000070836047238741290890000001277623018409222323_);fill:#B6B3C4;" d="M485.39,977.01
			c-4.8-3.63-67.82-4.47-77.72-4.58c0.36,0.07,0.62,0.39,0.64,0.75c0.02,0.41-0.38,0.77-0.8,0.77h-0.18
			c0.03,0.05,0.05,0.1,0.07,0.16c0.01,0.07,0.02,0.14,0.03,0.2c0,0.14-0.04,0.27-0.11,0.39l-0.13,0.15
			c-0.07,0.07-0.16,0.13-0.26,0.16c-0.1,0.05-0.2,0.07-0.31,0.07c-0.11,0-0.21-0.02-0.31-0.07c-0.01,0-0.02-0.01-0.03-0.02
			c-0.01,0.19-0.09,0.37-0.23,0.51c-0.04,0.04-0.09,0.09-0.13,0.13v5c0,0.95-1.49,0.98-1.6,0.1c-0.06,0.19-0.12,0.37-0.19,0.56
			c-0.14,0.39-0.55,0.65-0.99,0.53c-0.4-0.1-0.7-0.55-0.56-0.94c0.28-0.78,1.49-5.36,1.62-5.65c0.02-0.15,0.11-1.06,0.11-1.06
			c-3.7,3.52-10.29,11.77-1.27,19.55c11.88,10.25,28.05,13.72,40.11,14.5c12.06,0.78,33.41-1.56,42.39-10.03
			C491.51,992.57,490.6,980.96,485.39,977.01z"/>
	</g>
	<path class="st248" d="M394.9,1027.99c0,0-22,41.83,48.56,44.45c72.4,2.69,51.08-49.77,51.08-49.77s0.82,35.71-49.82,32.67
		C394.08,1052.32,394.9,1027.99,394.9,1027.99z"/>
	<g>
		<defs>
			<path id="SVGID_00000145749951621197307980000006450386065334853546_" d="M394.9,1027.48c0,0-22,37.81,48.56,40.18
				c72.4,2.43,51.08-44.99,51.08-44.99s0.82,32.28-49.82,29.54S394.9,1027.48,394.9,1027.48z"/>
		</defs>
		<clipPath id="SVGID_00000104672085246660760420000012324057714481379750_">
			<use xlink:href="#SVGID_00000145749951621197307980000006450386065334853546_"  style="overflow:visible;"/>
		</clipPath>
		<path style="clip-path:url(#SVGID_00000104672085246660760420000012324057714481379750_);fill:#B6B3C4;" d="M394.9,1015.05
			c0,0-17.03,39.34,48.56,42.01c67.75,2.76,51.08-47.03,51.08-47.03s0.82,33.74-49.82,30.88
			C394.08,1038.04,394.9,1015.05,394.9,1015.05z"/>
	</g>
	<g>
		<defs>
			<ellipse id="SVGID_00000094586901415811057880000005826871363760763049_" cx="444.48" cy="974.06" rx="28.22" ry="10.98"/>
		</defs>
		<clipPath id="SVGID_00000032645671572992443700000012748522570154469273_">
			<use xlink:href="#SVGID_00000094586901415811057880000005826871363760763049_"  style="overflow:visible;"/>
		</clipPath>
		<path style="clip-path:url(#SVGID_00000032645671572992443700000012748522570154469273_);fill:#E5CA57;" d="M472.38,980.46
			c-3.82,3.63-14.26,6.4-27.61,6.4c-12.79,0-23.87-2.07-28.22-6.27c-3.01-2.9,12.63-6.27,28.22-6.27
			C460.35,974.33,475.49,977.5,472.38,980.46z"/>
	</g>
	<g>
		<defs>
			<ellipse id="SVGID_00000144319373506995558320000005824708906893876668_" cx="444.48" cy="973.07" rx="28.22" ry="9.99"/>
		</defs>
		<clipPath id="SVGID_00000138552926948175471920000016067870812797540515_">
			<use xlink:href="#SVGID_00000144319373506995558320000005824708906893876668_"  style="overflow:visible;"/>
		</clipPath>
	</g>
</g>
<g>
	<g>
		<path class="st23" d="M1608.44,1152.37c0,0,29.07-62.55,11.72-64.18C1602.82,1086.57,1608.44,1152.37,1608.44,1152.37z"/>
		<path class="st23" d="M1601.83,1151.36c0,0,8.28-50.67,1.21-54.67C1595.96,1092.68,1601.83,1151.36,1601.83,1151.36z"/>
		<path class="st23" d="M1600.34,1149.66c0,0-3.71-60.99-12.57-47.41S1600.34,1149.66,1600.34,1149.66z"/>
		<path class="st23" d="M1615.88,1152.96c0,0,11.29-50.08,19.35-51.15S1615.88,1152.96,1615.88,1152.96z"/>
		<path class="st23" d="M1617.91,1151.93c0,0,26.27-55.16,29.41-39.26C1650.45,1128.58,1617.91,1151.93,1617.91,1151.93z"/>
	</g>
	<g>
		<path class="st23" d="M1472.34,1218.83c0,0,29.07-62.55,11.72-64.18C1466.71,1153.03,1472.34,1218.83,1472.34,1218.83z"/>
		<path class="st23" d="M1465.72,1217.82c0,0,8.28-50.67,1.21-54.67S1465.72,1217.82,1465.72,1217.82z"/>
		<path class="st23" d="M1464.23,1216.12c0,0-3.71-60.99-12.57-47.41C1442.8,1182.28,1464.23,1216.12,1464.23,1216.12z"/>
		<path class="st23" d="M1479.78,1219.42c0,0,11.29-50.08,19.35-51.15C1507.19,1167.21,1479.78,1219.42,1479.78,1219.42z"/>
		<path class="st23" d="M1481.8,1218.4c0,0,26.27-55.16,29.41-39.26C1514.35,1195.05,1481.8,1218.4,1481.8,1218.4z"/>
	</g>
	<g>
		<path class="st23" d="M1540.72,1182.14c0,0,29.07-62.55,11.72-64.18C1535.09,1116.34,1540.72,1182.14,1540.72,1182.14z"/>
		<path class="st23" d="M1534.1,1181.13c0,0,8.28-50.67,1.21-54.67S1534.1,1181.13,1534.1,1181.13z"/>
		<path class="st23" d="M1532.61,1179.43c0,0-3.71-60.99-12.57-47.41C1511.17,1145.59,1532.61,1179.43,1532.61,1179.43z"/>
		<path class="st23" d="M1548.16,1182.73c0,0,11.29-50.08,19.35-51.15C1575.57,1130.52,1548.16,1182.73,1548.16,1182.73z"/>
		<path class="st23" d="M1550.18,1181.71c0,0,26.27-55.16,29.41-39.26C1582.73,1158.36,1550.18,1181.71,1550.18,1181.71z"/>
	</g>
	<g>
		<path class="st23" d="M1351.53,1314.75c0,0,29.07-62.55,11.72-64.18C1345.9,1248.95,1351.53,1314.75,1351.53,1314.75z"/>
		<path class="st23" d="M1344.91,1313.75c0,0,8.28-50.67,1.21-54.67S1344.91,1313.75,1344.91,1313.75z"/>
		<path class="st23" d="M1343.42,1312.04c0,0-3.71-60.99-12.57-47.41C1321.98,1278.2,1343.42,1312.04,1343.42,1312.04z"/>
		<path class="st23" d="M1358.96,1315.34c0,0,11.29-50.08,19.35-51.15C1386.38,1263.13,1358.96,1315.34,1358.96,1315.34z"/>
		<path class="st23" d="M1360.99,1314.32c0,0,26.27-55.16,29.41-39.26C1393.53,1290.97,1360.99,1314.32,1360.99,1314.32z"/>
	</g>
	<g>
		<path class="st23" d="M1410.83,1264.86c0,0-0.86-68.97,15.63-63.34C1442.94,1207.15,1410.83,1264.86,1410.83,1264.86z"/>
		<path class="st23" d="M1417.28,1266.65c0,0,13.23-49.61,21.32-50.36C1446.69,1215.54,1417.28,1266.65,1417.28,1266.65z"/>
		<path class="st23" d="M1419.34,1265.71c0,0,28.39-54.1,30.91-38.09S1419.34,1265.71,1419.34,1265.71z"/>
		<path class="st23" d="M1403.8,1262.34c0,0,10.24-50.31,3.33-54.58S1403.8,1262.34,1403.8,1262.34z"/>
		<path class="st23" d="M1402.38,1260.58c0,0-1.34-61.09-10.72-47.86S1402.38,1260.58,1402.38,1260.58z"/>
	</g>
	<g>
		<path class="st23" d="M1298.23,1371.93c0,0,29.07-62.55,11.72-64.18C1292.6,1306.13,1298.23,1371.93,1298.23,1371.93z"/>
		<path class="st23" d="M1291.61,1370.92c0,0,8.28-50.67,1.21-54.67S1291.61,1370.92,1291.61,1370.92z"/>
		<path class="st23" d="M1290.12,1369.22c0,0-3.71-60.99-12.57-47.41C1268.68,1335.38,1290.12,1369.22,1290.12,1369.22z"/>
		<path class="st23" d="M1305.67,1372.52c0,0,11.29-50.08,19.35-51.15C1333.08,1320.31,1305.67,1372.52,1305.67,1372.52z"/>
		<path class="st23" d="M1307.69,1371.49c0,0,26.27-55.16,29.41-39.26C1340.24,1348.15,1307.69,1371.49,1307.69,1371.49z"/>
	</g>
	<g>
		<path class="st23" d="M1247.54,1433.87c0,0,29.07-62.55,11.72-64.18C1241.91,1368.07,1247.54,1433.87,1247.54,1433.87z"/>
		<path class="st23" d="M1240.92,1432.86c0,0,8.28-50.67,1.21-54.67C1235.06,1374.19,1240.92,1432.86,1240.92,1432.86z"/>
		<path class="st23" d="M1239.43,1431.16c0,0-3.71-60.99-12.57-47.41C1217.99,1397.32,1239.43,1431.16,1239.43,1431.16z"/>
		<path class="st23" d="M1254.98,1434.46c0,0,11.29-50.08,19.35-51.15C1282.39,1382.25,1254.98,1434.46,1254.98,1434.46z"/>
		<path class="st23" d="M1257,1433.43c0,0,26.27-55.16,29.41-39.26C1289.55,1410.08,1257,1433.43,1257,1433.43z"/>
	</g>
	<g>
		<path class="st23" d="M1195.14,1500.89c0,0,29.07-62.55,11.72-64.18C1189.51,1435.09,1195.14,1500.89,1195.14,1500.89z"/>
		<path class="st23" d="M1188.52,1499.88c0,0,8.28-50.67,1.21-54.67S1188.52,1499.88,1188.52,1499.88z"/>
		<path class="st23" d="M1187.03,1498.18c0,0-3.71-60.99-12.57-47.41C1165.59,1464.34,1187.03,1498.18,1187.03,1498.18z"/>
		<path class="st23" d="M1202.58,1501.48c0,0,11.29-50.08,19.35-51.15C1229.99,1449.27,1202.58,1501.48,1202.58,1501.48z"/>
		<path class="st23" d="M1204.6,1500.46c0,0,26.27-55.16,29.41-39.26C1237.15,1477.11,1204.6,1500.46,1204.6,1500.46z"/>
	</g>
</g>
<path class="st23" d="M857.83,1246.87c-48.38-54.74-81.29,12.28-81.29,12.28s15.59-71.24-79.97-82.08
	c-44.63-5.09-63.06,33.44-70.53,61.58c-8.41-18.22-23.75-33.68-50.59-40.19c-62.72-15.27-61.51,96.86-61.51,96.86
	c-14.04,1.77-26.85,2.21-36.46,2.17c0.61-20.18-5.42-43.49-32.67-54.35c-38.68-15.44-52.67,39.15-52.67,39.15
	c-19.04-0.38-26.54,12.37-26.54,12.37c-9.09,12.29-7.89,25.15-3.63,35.83c5.79,14.43,22.75,39.55,55.74,38.42l54.96,3.01
	c15.79,18.16,42.26,35.68,80.16,28.81h0c59.49,16.69,121.57,14.24,180.03-7.1l22.62-8.26c23.62-1.32,46.67-9.45,67.27-23.55
	C846.19,1345.62,887.73,1280.7,857.83,1246.87z"/>
<g>
	<defs>
		<path id="SVGID_00000175319734721237192900000010088401391102655423_" d="M665.69,1285.48c6.23-14.45,8.31-32.04-3.74-49.38
			c0,0-9.87-17.88-36.01-18.32c0,0-15.11-76.84-68.74-57.59c-73.88,26.47-43.26,117.53-43.26,117.53s-23.51-56.48-61.42-11.22
			c-20.74,24.72,1.29,62.44,26.84,64.16c18.04,7.24,37.24,9.32,56.02,5.92l87.97-15.25
			C641.36,1318.16,657.25,1304.99,665.69,1285.48z"/>
	</defs>
	<clipPath id="SVGID_00000147189532418426427790000017486977474932306827_">
		<use xlink:href="#SVGID_00000175319734721237192900000010088401391102655423_"  style="overflow:visible;"/>
	</clipPath>
	<g style="clip-path:url(#SVGID_00000147189532418426427790000017486977474932306827_);">
		<path class="st76" d="M493.48,1335.26c0,0-25.6-21.52-17.74-40.85c7.25-17.74,22.43-9.93,35.48-0.48
			c7.38,5.33,18.5-0.33,17.81-10.71c-2.86-43.9,35.17-91.37,93.29-44.91c10.48,8.37,10.97,1.48,7.06-6.02
			c-14.1-27.11,31.38-82.35-17.94-82.24c-73.51,0.17-138.21,32.04-138.49,34.64c-0.27,2.59-46.81,98.23-46.81,98.23l23.12,77.3
			L493.48,1335.26z"/>
	</g>
</g>
<path class="st61" d="M1354.43,1070.81c-2.19,0.77-3.29,0.5-9.27,3.49C1351.13,1071.32,1352.23,1071.58,1354.43,1070.81z"/>
<path class="st61" d="M1364.8,1071.13c-3.46,0.03-6.91-0.08-10.37-0.31C1357.88,1071.05,1361.34,1071.15,1364.8,1071.13z"/>
<path class="st61" d="M1338.35,1078.72c-0.57,0.4-1.19,0.83-1.87,1.29C1337.16,1079.54,1337.78,1079.11,1338.35,1078.72z"/>
<path class="st61" d="M1516.51,1026.25c12.7-5.7,23.48-15.27,30.9-27.42C1539.99,1010.99,1529.21,1020.55,1516.51,1026.25z"/>
<path class="st61" d="M1550.58,993.05c-0.98,1.99-2.04,3.92-3.18,5.79C1548.55,996.97,1549.61,995.03,1550.58,993.05z"/>
<path class="st61" d="M1392.23,1068.14c5.65-1.2,11.23-2.76,16.73-4.69l101.8-34.93l-101.8,34.93
	C1403.46,1065.37,1397.88,1066.94,1392.23,1068.14z"/>
<path class="st61" d="M1542.18,931.05c7.06,6.38,11.32,13.31,13.53,20.41C1553.5,944.36,1549.25,937.42,1542.18,931.05
	c0,0-4.66-5.25-14.27-8.92C1537.52,925.8,1542.18,931.05,1542.18,931.05z"/>
<path class="st61" d="M1555.71,951.46c0.32,1.01,0.59,2.03,0.83,3.05C1556.31,953.49,1556.03,952.47,1555.71,951.46z"/>
<path class="st23" d="M1305.69,979.66c-3.8-2.89-8.29-5.32-13.58-7.09C1297.4,974.34,1301.89,976.77,1305.69,979.66
	C1305.69,979.66,1305.69,979.66,1305.69,979.66z"/>
<path class="st23" d="M1556.54,954.27c-0.24-1.02-0.51-2.04-0.83-3.05c-2.22-7.1-6.47-14.03-13.53-20.41c0,0-4.66-5.25-14.27-8.92
	c-1.6-0.61-3.34-1.18-5.22-1.67c-0.75-0.2-1.54-0.38-2.33-0.55c-1.08-0.23-2.21-0.44-3.37-0.61c-0.21-0.03-0.41-0.06-0.62-0.09
	c-2.05-0.28-4.21-0.47-6.51-0.54c-0.85-0.02-1.71-0.03-2.6-0.02c-2.48,0.03-5.09,0.21-7.84,0.55c-1.04,0.74-2.08,0.93-3.06,0.44h0
	c-88.42-43.63-109.95-7.39-117.51,8.25c-16.05,33.22,46,78.47,26.2,74.03c-99.36-22.26-87.12,27.52-87.12,27.52
	s-12.69-26.61-37.19-30.47l-2.58,80.43l38.05,11.73c2.82-1.25,5.47-2.53,7.89-3.8c1.14-0.59,2.23-1.19,3.27-1.77
	c1.04-0.58,2.04-1.16,2.98-1.72c0.95-0.56,1.84-1.1,2.68-1.63c0.84-0.53,1.63-1.03,2.37-1.52c0.37-0.24,0.72-0.48,1.06-0.71
	c0.68-0.46,1.3-0.89,1.87-1.29c2.55-1.79,3.92-2.93,3.92-2.93c1.07-0.57,2.02-1.06,2.88-1.49c5.98-2.98,7.08-2.72,9.27-3.49
	c3.46,0.23,6.91,0.34,10.37,0.31c5.18-0.04,10.36-0.37,15.5-1c1.71-0.21,3.43-0.45,5.13-0.72c2.28-0.36,4.54-0.79,6.8-1.27
	c5.65-1.2,11.23-2.76,16.73-4.69l101.8-34.93c1.05-0.36,2.08-0.75,3.1-1.16c0.89-0.35,1.77-0.72,2.65-1.11
	c12.7-5.7,23.48-15.27,30.9-27.42c1.14-1.87,2.2-3.8,3.18-5.79c0.49-0.99,0.95-2,1.4-3.02c1.14-2.61,2.13-5.32,2.97-8.1
	c0.31-1.03,0.6-2.07,0.86-3.11C1557.8,970.72,1558.43,962.42,1556.54,954.27z"/>
<path class="st23" d="M1356.19,966.77c3.59,10.97,8.45,17.99,8.46,18.01l0,0C1364.65,984.78,1359.78,977.75,1356.19,966.77z"/>
<path class="st76" d="M1402.65,875.89c10.38-5.45,19.96-7.74,28.71-7.78C1422.61,868.15,1413.03,870.44,1402.65,875.89
	c-43.87,23.01-52.04,52.04-49.96,74.33C1350.62,927.92,1358.78,898.9,1402.65,875.89z"/>
<path class="st76" d="M1364.65,984.78L1364.65,984.78C1364.64,984.77,1364.65,984.78,1364.65,984.78z"/>
<path class="st76" d="M1356.6,977.76c1.59,1.14,2.97,2.25,4.12,3.24C1359.57,980.01,1358.18,978.89,1356.6,977.76z"/>
<path class="st76" d="M1499.42,919.19c-1,0.13-2.02,0.27-3.06,0.44h0C1497.4,919.46,1498.42,919.32,1499.42,919.19z"/>
<path class="st76" d="M1496.34,919.58c0.01,0.03,0.02,0.05,0.02,0.05S1496.35,919.61,1496.34,919.58z"/>
<path class="st76" d="M1495.49,917.8c0.41,0.83,0.67,1.39,0.79,1.66C1496.16,919.19,1495.9,918.62,1495.49,917.8z"/>
<path class="st76" d="M1499.42,919.19c-1,0.13-2.02,0.27-3.06,0.44C1497.34,920.12,1498.38,919.93,1499.42,919.19z"/>
<path class="st76" d="M1317.93,1029.2c0,0-12.24-49.78,87.12-27.52c19.8,4.44-42.25-40.81-26.2-74.03
	c7.56-15.64,29.08-51.89,117.51-8.25c0,0-0.01-0.02-0.02-0.05c-0.01-0.03-0.03-0.07-0.06-0.13c-0.12-0.27-0.38-0.83-0.79-1.66
	c-0.81-1.64-2.19-4.29-4.1-7.52c-6.32-10.65-18.59-27.72-36.31-36.52c-0.03-0.02-0.07-0.03-0.1-0.05c-1.16-0.57-2.34-1.11-3.55-1.61
	c-0.25-0.1-0.5-0.2-0.75-0.3c-1.58-0.63-3.21-1.18-4.87-1.67c-0.65-0.19-1.3-0.36-1.96-0.53c-1.95-0.48-3.96-0.86-6.01-1.12
	c-1.25-0.15-2.52-0.27-3.8-0.33c-0.88-0.04-1.77-0.07-2.66-0.06c-8.75,0.05-18.33,2.33-28.71,7.78
	c-43.87,23.01-52.04,52.04-49.96,74.33c0.14,1.49,0.32,2.94,0.54,4.37c0.2,1.26,0.42,2.5,0.68,3.71c0.63,3.02,1.42,5.86,2.27,8.48
	c3.6,10.98,3.11,10.57,3.11,10.57s-28.72-31.16-53.61,2.32c0,0,0,0,0,0c-3.8-2.89-8.29-5.32-13.58-7.09
	c-3.18-1.06-6.65-1.89-10.44-2.44l-0.92,28.84C1305.24,1002.59,1317.93,1029.2,1317.93,1029.2z"/>
<path class="st76" d="M1349.72,973.56c1.75,0.89,3.37,1.85,4.86,2.82C1353.09,975.41,1351.47,974.45,1349.72,973.56z"/>
<path class="st76" d="M1496.28,919.46c0.02,0.05,0.04,0.1,0.06,0.13C1496.33,919.56,1496.31,919.51,1496.28,919.46z"/>
<path class="st333" d="M1246.42,1097.76c2.03,0.57,4.04,1.06,6.04,1.47C1250.47,1098.81,1248.45,1098.32,1246.42,1097.76z"/>
<path class="st333" d="M1207.31,1032.02c-5.35,5.05-6.95,9.69-6.95,9.69c-0.41,0.88-0.78,1.75-1.11,2.6c0.33-0.86,0.7-1.73,1.11-2.6
	C1200.36,1041.71,1201.95,1037.07,1207.31,1032.02z"/>
<path class="st333" d="M1208.72,1030.75c1-0.85,2.11-1.7,3.34-2.53C1210.83,1029.05,1209.72,1029.9,1208.72,1030.75z"/>
<path class="st333" d="M1206.03,1075.3c-0.94-1.03-1.84-2.12-2.68-3.24C1204.19,1073.18,1205.09,1074.26,1206.03,1075.3z"/>
<path class="st333" d="M1281.66,970.14c-2.71-0.39-5.58-0.65-8.63-0.74C1276.09,969.49,1278.95,969.75,1281.66,970.14z"/>
<path class="st23" d="M422.79,1341.46c1.82-0.8,3.73-1.63,5.73-2.47c0,0-21.51-78.59,62.18-93.43
	c82.79-14.69,92.55,78.62,92.55,78.62s16.34-40.45,56.35-22.18c32.49,13.56,27.11,51.02,9.64,73.66c0,0,70.38,84.88-117.62,71.43
	c-1.19,0.29-19.52,4.26-19.52,4.26c-12.5,2.68-25.16,3.36-37.55,2.16c0,0-0.01,0-0.01,0l0,0c-24.43-2.37-47.79-12.09-66.76-28.38
	c-0.18-0.15-0.35-0.3-0.53-0.45c-1.44-1.24-2.88-2.73-4.28-4.41C381.62,1394.6,391.92,1355.08,422.79,1341.46z"/>
<g>
	<defs>
		<path id="SVGID_00000011007457686203216660000010217814334131808959_" d="M422.79,1341.46c1.82-0.8,3.73-1.63,5.73-2.47
			c0,0-21.51-78.59,62.18-93.43c82.79-14.69,92.55,78.62,92.55,78.62s16.34-40.45,56.35-22.18c32.49,13.56,27.11,51.02,9.64,73.66
			c0,0,70.38,84.88-117.62,71.43c-1.19,0.29-19.52,4.26-19.52,4.26c-12.5,2.68-25.16,3.36-37.55,2.16c0,0-0.01,0-0.01,0l0,0
			c-24.43-2.37-47.79-12.09-66.76-28.38c-0.18-0.15-0.35-0.3-0.53-0.45c-1.44-1.24-2.88-2.73-4.28-4.41
			C381.62,1394.6,391.92,1355.08,422.79,1341.46z"/>
	</defs>
	<clipPath id="SVGID_00000163774893311947166030000005601478362435695765_">
		<use xlink:href="#SVGID_00000011007457686203216660000010217814334131808959_"  style="overflow:visible;"/>
	</clipPath>
	<path style="clip-path:url(#SVGID_00000163774893311947166030000005601478362435695765_);fill:#8BBC38;" d="M583.24,1324.17
		c0,0-45.95-67.89-94.34-37.9c-64.66,40.07-21.96,74.14-21.96,74.14s-98.83,16.09-5.13,91.17s-143.5-31.2-143.5-31.2l72.27-169.41
		l126.58-69.46l55.77,46.03C572.94,1227.53,588.64,1295.13,583.24,1324.17z"/>
</g>
<ellipse class="st333" cx="526.48" cy="1128.75" rx="39.68" ry="11.02"/>
<g>
	<path class="st284" d="M454.31,1087.51c0,0,12.66,37.88,37.75,44.45c28.92,7.57,67.45,0.98,79.17-11.31
		c11.72-12.29,13.68-35.09,13.68-35.09S529.54,1097.61,454.31,1087.51z"/>
	<path class="st65" d="M566.91,1073.83c0,0-36.97-17.21-88.51-4.05c-3.94,1.01-7.71,2.56-11.01,4.73c-4.2,2.76-8.27,6.81-5.35,11.05
		c5.26,7.62,42.55,26.4,89.29,13.5C598.08,1086.16,566.91,1073.83,566.91,1073.83z"/>
	<path class="st283" d="M573.4,1072.64c0,0-41.99-21.82-100.51-5.13c-4.48,1.28-8.75,3.24-12.5,6c-4.77,3.5-9.39,8.64-6.07,14
		c5.97,9.66,48.32,33.47,101.4,17.11C608.79,1088.27,573.4,1072.64,573.4,1072.64z M551.33,1099.06
		c-46.74,12.9-84.04-5.88-89.29-13.5c-2.92-4.23,1.15-8.28,5.35-11.05c3.31-2.18,7.07-3.73,11.01-4.73
		c51.54-13.16,88.51,4.05,88.51,4.05S598.08,1086.16,551.33,1099.06z"/>
	<g>
		<path class="st287" d="M505.55,1056.06c0,0-18.18-2.07-25.49,10.02c-7.31,12.09-4.59,44.77,28.09,42.62s39.88-22.38,33.1-37.36
			C534.47,1056.37,523.92,1045.37,505.55,1056.06z"/>
		<path class="st23" d="M503.97,1058.7c0,0-2.59-18.2-6.38-17.96c-3.78,0.24-4.14,3.66-4.14,3.66s4.64,2.19,6.4,12.57
			C501.62,1067.36,503.97,1058.7,503.97,1058.7z"/>
		<path class="st288" d="M502.74,1054.39c0,0-17.93-1.94-25.19,9.81s-4.69,43.44,27.57,41.24s39.43-21.85,32.79-36.35
			C531.27,1054.59,520.91,1043.96,502.74,1054.39z"/>
		<path class="st287" d="M506.45,1105.35c0,0-14.24-8.61-16.45-23.73c0,0-0.72,17.96,12.46,25.14L506.45,1105.35z"/>
	</g>
	<g>
		<g>
			<path class="st23" d="M529.45,1083.94c0,0-12.14-16.88-15.13-12.56C511.33,1075.7,529.45,1083.94,529.45,1083.94z"/>
			<path class="st23" d="M528.21,1085.53c0,0-12.09-9.66-14.19-8.39C511.92,1078.41,528.21,1085.53,528.21,1085.53z"/>
			<path class="st23" d="M527.54,1085.67c0,0-16.57-8.04-14.32-3.7C515.48,1086.31,527.54,1085.67,527.54,1085.67z"/>
			<path class="st23" d="M530.7,1082.07c0,0-11.49-10.37-10.58-12.64C521.03,1067.16,530.7,1082.07,530.7,1082.07z"/>
			<path class="st23" d="M530.73,1081.39c0,0-10.62-15.05-5.97-13.53C529.4,1069.39,530.73,1081.39,530.73,1081.39z"/>
		</g>
		<path class="st298" d="M533.05,1077.04c0,0-19.12,11.98-5.27,26.13c13.14,13.42,35.07-4.21,24.71-19.08
			C543.34,1070.96,533.05,1077.04,533.05,1077.04z"/>
		<path class="st299" d="M534.86,1076.72c0,0-17.36,10.87-4.78,23.73c11.93,12.19,31.84-3.83,22.43-17.33
			C544.2,1071.2,534.86,1076.72,534.86,1076.72z"/>
	</g>
	<path class="st283" d="M572.37,1090.52c-3.86,2.73-10.44,5.62-21.04,8.55c-38.32,10.58-70.29-0.14-83.46-8.55h-10.99
		c11.33,10.72,50.66,28.95,98.82,14.11c15.91-4.9,23.87-9.74,27.21-14.11H572.37z"/>
</g>
</svg>
