<svg id="Layer_1" data-name="Layer 1" xmlns="http://www.w3.org/2000/svg" xmlns:xlink="http://www.w3.org/1999/xlink" viewBox="0 0 2000 2000"><defs><style>.cls-1{fill:none;}.cls-2{fill:#aed76a;}.cls-3{clip-path:url(#clip-path);}.cls-4{fill:#fecfae;}.cls-5{fill:#77a22f;}.cls-6{clip-path:url(#clip-path-2);}.cls-7{fill:#8abd32;}.cls-8{clip-path:url(#clip-path-3);}.cls-9{fill:#b79c86;}.cls-10{fill:#d6ba9d;}.cls-11{fill:#523028;}.cls-12{fill:#8f534a;}.cls-13{fill:#a5606b;}.cls-14{fill:#a07775;}.cls-15{fill:#5b3932;}.cls-16{fill:#8c383b;}.cls-17{fill:#7a2c32;}.cls-18{fill:#1e1713;}.cls-19{fill:#9e5f59;}.cls-20{fill:#965d59;}.cls-21{clip-path:url(#clip-path-4);}.cls-22{fill:#8bbc38;}.cls-23{clip-path:url(#clip-path-5);}.cls-24{fill:#603d38;}.cls-25{clip-path:url(#clip-path-6);}.cls-26{fill:#914047;}.cls-27{fill:#d19857;}.cls-28{clip-path:url(#clip-path-7);}.cls-29{clip-path:url(#clip-path-8);}.cls-30{clip-path:url(#clip-path-9);}.cls-31{fill:#afd86a;}</style><clipPath id="clip-path"><path class="cls-1" d="M454.2,1152.66s-465.76,117.91-293.75,429.43c178.37,323,633.61,77.46,842.29,182.9s770.5,138.77,853.22-211.37c48.08-203.51-224.18-314-224.18-314Z"/></clipPath><clipPath id="clip-path-2"><path class="cls-1" d="M1563.09,1317.19s103.64-28.44,97.83,69.92c0,0,52.18-19.55,64.75,36.67,7.77,34.73-28.61,61.6-63.43,39.33-26.63-17-75-22.91-83.83-20.11S1563.09,1317.19,1563.09,1317.19Z"/></clipPath><clipPath id="clip-path-3"><path class="cls-1" d="M398.17,1088.14s-112.12-37.26-107.7,89.74c0,0-56.36-25.51-71.1,47-9.12,44.79,38,58,68.2,51.12,35.62-8.11,82-29.19,91.52-25.52S398.17,1088.14,398.17,1088.14Z"/></clipPath><clipPath id="clip-path-4"><path class="cls-1" d="M1320.54,872.15c4,3.93,15.75,2.38,17.73,7.93,2.59,7.28,4.23,15.47-1.54,15.4-10.38-.12-19.5,9.31-19.5,9.31s17.14,28.26,0,31.64-23.19,3.13-18.85,10.15c1.93,3.13-9.72.38-2.72-14.9,7.71-16.84,17.59-29.62-.16-26.89-7.7,1.19-14.82,2.8-20.41,4.24a23,23,0,0,1-20.65-4.94l-.23-.19c-7.52-6.29-15-10.45-20.69.89s-26.44,20.42-36.34,18.14a18.4,18.4,0,0,1-12.94-10.44l-7.11,7.38s-19.14-30.19.45-28.24,34.23-11.76,42.36-13.72,48.82,11.7,53.11-6.61c2.52-10.74-1.34-21-5-27.64a13.29,13.29,0,0,1,1.49-14.82c6.7-7.67,16.5-19.27,18.64-23.89,3.33-7.16-7.08-13.82-7.08-13.82s-12.07-22.19,2-10,8.61,17,15.28,29.81,10.26,6.4,18.85,20.3,7.17,19.37,7.88,26.78C1325.44,861.38,1318.7,870.33,1320.54,872.15Z"/></clipPath><clipPath id="clip-path-5"><polygon class="cls-1" points="1198.11 1588.31 1535.33 1454.77 1560.82 1237.27 1545.6 1125.11 1438.32 988.04 1206.37 1350.91 1174.48 1426.58 1178.73 1505.87 1198.11 1588.31"/></clipPath><clipPath id="clip-path-6"><polygon class="cls-1" points="1197.47 1588.31 1534.7 1454.77 1560.19 1237.27 1544.96 1125.11 1437.69 988.04 1205.74 1350.91 1173.84 1426.58 1178.1 1505.87 1197.47 1588.31"/></clipPath><clipPath id="clip-path-7"><path class="cls-1" d="M1244.88,1105.3s-50.09,29.88-62.75,59.51-16.25,35.61-28.34,27.81-36.76,19.64-35.17,22.7,21.72,9.85,16.78,19.4-12.46,11.44-18.46,17.49-19.17,8.53-11.09,22.16,10.31,14.5-2.06,26.74-44.42,7.88-50.53,15.75-22.69,17.56-15.15,37.2-6.71,32.31-15.72,33-3.75,13.78,0,20.77,20,16.12,27.25,14.18,28.88-18.55,47.72-37.79S1244.88,1105.3,1244.88,1105.3Z"/></clipPath><clipPath id="clip-path-8"><path class="cls-1" d="M563,896.7s-36.9,21.08-42.67-1.17,9.48-27.68,16.46-26.61,11.19-18,11.19-18-17.72,3.92-22.69,4.34-21.91,5.86-15.33-7,10.9-18.68,18.65-17,21,.72,26.48-.32,14.8-4,14.83-8.6,10-12.79,1.68-14.69-29.49.7-21.57-9.17,7.65-15.31,14.44-12.37,9.87,9,17.48,6.07,30.63-29.73,30.63-29.73,3-2.71,2.9-11,10.08-19.23,12.14-21.47,13-9.77,10-16.34-16.12-13.42-.83-24.16,14.34-16.57,24.78-20.41,13,.63,15.77-13.6-6.21-27.65,5.59-35.31,14.13-8.14,21-13.35,24.16-13.36,23.64-24-.21-59.68,19.36-33.93-14.29,82.91-24,108.88-82.18,87.3-88.68,109.84S580.09,892.32,563,896.7Z"/></clipPath><clipPath id="clip-path-9"><path class="cls-1" d="M739.75,1403.18c1.48-.37,3-.74,4.67-1.12,0,0,10.44-65.49,58.89-62.85,76,5.83,60.84,72.33,60.84,72.33s17.43-28.63,45.67-9.34c23.09,14.7,14.37,42.52-1.73,57.43,0,0-26.93,36.49-98.44,38.64-.94.07-1.88.13-2.83.16l-12.56.47a94.62,94.62,0,0,1-28.88-3.39h0A94.51,94.51,0,0,1,718,1464.92l-.35-.42a29.49,29.49,0,0,1-2.71-3.94C701.83,1438.15,714.55,1409.42,739.75,1403.18Z"/></clipPath></defs><path class="cls-2" d="M454.2,1152.66s-465.76,117.91-293.75,429.43c178.37,323,633.61,77.46,842.29,182.9s770.5,138.77,853.22-211.37c48.08-203.51-224.18-314-224.18-314Z"/><g class="cls-3"><path class="cls-4" d="M1342.38,1539.61s93.53,95.77-16.27,132c-80.83,26.69-292.13-18.43-347.48-40.85-65.79-26.66-360-193-746-65.88-148.36,48.87-110.28,145.54-110.28,145.54L341.11,1837s16.7-146.09,145.54-177.61c199.65-48.84,358.75-8.17,498.77,38.81s307.52,116.43,452.13,4.09c89.85-69.8,28.84-158-8.18-200.18S1319.66,1502.56,1342.38,1539.61Z"/></g><path class="cls-5" d="M1563.09,1317.19s103.64-28.44,97.83,69.92c0,0,52.18-19.55,64.75,36.67,7.77,34.73-28.61,61.6-63.43,39.33-26.63-17-75-22.91-83.83-20.11S1563.09,1317.19,1563.09,1317.19Z"/><g class="cls-6"><path class="cls-7" d="M1566.45,1351.7s63.29-32.85,86.82,42.56c0,0,90-2.69,58.59,69.18,0,0,75,17.31,50.17-46.83s-44.16-81-63.21-87.64-84.39-42.77-88-43-50.88-.58-50.88-.58Z"/></g><path class="cls-5" d="M398.17,1090.3s-112.12-37.25-107.7,89.75c0,0-56.36-25.51-71.1,47-9.12,44.8,39.69,54.13,68.2,51.12,36.33-3.83,82-29.18,91.52-25.52S398.17,1090.3,398.17,1090.3Z"/><g class="cls-8"><path class="cls-7" d="M393.85,1132.68s-68.17-42.75-95.2,54.48c0,0-97.82-4-65,89,0,0-81.88,22-53.63-60.71s49.57-104.33,70.41-112.81,92.56-54.77,96.46-55.05,55.32-.47,55.32-.47Z"/></g><polygon class="cls-9" points="1152.44 748.18 903.91 370.84 575.94 844.61 655.68 1465.25 1007.07 1339.04 1067.76 1195.33 1074.07 1082.45 1070.73 1076.06 1152.44 748.18"/><polygon class="cls-10" points="598.95 1455.33 384.32 1332.97 390.44 719.46 633.65 817.6 598.95 1455.33"/><path class="cls-9" d="M392.92,830.24l-.55,32.9s10.17,4.29,18.61,2.21,18.61,15.92,43.2,23.43,40.08,41.68,101.67,50.64c0,0,22.56,41.69,52.51,45.31S623,889.44,623,889.44Z"/><polygon class="cls-11" points="422.86 764.39 420.15 1353.03 405.25 1355.93 405.25 774.2 422.86 764.39"/><polygon class="cls-12" points="405.25 1355.93 377.28 1340.34 376.15 828.16 407.13 778.02 405.25 1355.93"/><path class="cls-13" d="M904.12,390.71,597,433.62,362.83,826.08s17.7,22.74,50.3,14.55c0,0,4.88,32.54,35.45,14.22,0,0,3.5,36.44,40.33,21.41,0,0,9,46.62,79.5,38,0,0,20.55,19.8,41.83.14S910.1,440.82,904.12,390.71Z"/><polygon class="cls-10" points="1128.99 1583.08 872.9 1441.06 866.32 1213.74 1173.93 1332.85 1128.99 1583.08"/><path class="cls-9" d="M879.5,1236.44l117.21-4.73,34.37,52.43c2.77-3.15,4.41-5,4.41-5l140.26,25.21-50.38,204s-71.76-43.77-96.56-76a222.82,222.82,0,0,1-32.1-59.46s-22.08,10.94-36.78,9.08a1.73,1.73,0,0,1-1.15-.56c-4.83-2.49-23.32-13.24-24.73-32.92-1.64-22.65-59.43-8.41-74.29-23.27S879.5,1236.44,879.5,1236.44Z"/><polygon class="cls-11" points="879.5 1231.57 879.5 1445.14 860.48 1453.24 840.01 1343.1 863.93 1224.55 879.5 1231.57"/><path class="cls-12" d="M860.48,1453.24l-29.83-21.36c-5.49-3.93-8.86-10.76-8.95-18.15l-1.63-189.18,40.41,31.21Z"/><polygon class="cls-9" points="1197.52 1589.65 1534.79 1453.95 1560.28 1236.44 1545.06 1124.29 1437.78 987.22 1205.83 1350.09 1173.93 1425.76 1178.19 1505.04 1197.52 1589.65"/><polygon class="cls-12" points="1547.73 1465.95 1532.5 1456.45 1531.79 1250.7 1547.73 1250.7 1547.73 1465.95"/><path class="cls-11" d="M1588.32,1232.8v201.26c0,8.44-4.56,16-11.48,19.07L1547.73,1466V1245.47Z"/><polygon class="cls-11" points="1200.75 1422.25 1197.49 1591.34 1155.63 1610.54 1155.63 1425.34 1200.75 1422.25"/><polygon class="cls-12" points="1155.63 1610.54 1116.97 1580.43 1115.22 1441.36 1155.63 1432.36 1155.63 1610.54"/><polygon class="cls-14" points="1588.55 1240.31 1233.46 1350.09 1279.76 1265.4 1568.55 1182.77 1588.55 1240.31"/><polygon class="cls-15" points="1584.95 1242.49 1233.46 1362.61 1279.76 1277.92 1568.69 1195.71 1584.95 1242.49"/><polygon class="cls-12" points="630.33 1473.64 597.68 1454.79 596.2 942.6 630.33 914.13 630.33 1473.64"/><path class="cls-14" d="M894.82,967.44H886V968h-34.3l10.6-7.58c-1,.47.22-.53.22-1.84l-.89-7.4L657.93,991.48l-22,60.23,265.24-59.88Z"/><polygon class="cls-15" points="901.12 1002.76 635.34 1072.91 650.83 1003.13 861.65 959.93 901.12 1002.76"/><polygon class="cls-11" points="662.74 888.11 660 1464.19 630.33 1473.64 624.63 897.92 662.74 888.11"/><path class="cls-13" d="M1046.36,1422.25s-45.23-10.53-39.29-83.21c0,0-58.3,42.12-61.33-28.08,0,0-70.74,12.53-61.36-39.9,0,0-67.07,23.38-65.26-26.58s142-254,142-254l287.51-175.91,141.35,109.48Z"/><path class="cls-16" d="M1078.08,1295.52c-14,.62-27.91-7-35.34-18.93-7-11.1-9-24.59-8.37-37.5a136.72,136.72,0,0,1,5.23-30.41L1050,1212c-7.93,21.77-30.7,55.2-56.19,34.84a46.1,46.1,0,0,1-8.27-9.11,68.75,68.75,0,0,1-6-10.34c2.65,3,5.34,5.82,8.19,8.44,12.07,11.09,24,14.8,35.83,1.24,7.2-8.22,12.24-18.52,16.14-28.72,2.48-6.48,12-3.54,10.45,3.21-9,32.33-12.25,73.33,27.92,84Z"/><path class="cls-16" d="M960.16,1348.5c-22.53-16.87-23.6-49.92-16.68-74.94a120.53,120.53,0,0,1,9.71-24.64l5.25,2.14-2.09,3.39c-.54.86-1.4,2.24-1.91,3.09-.08.15,0-.16,0-.23a1.61,1.61,0,0,0-2.92-1c0,.11.13-.11.17-.16,1.19-1.66,3-4.52,4.17-6.25-.13,1.36-.36,2.7-.59,4a24.28,24.28,0,0,1-1.07,4.15,1.64,1.64,0,0,1-3-1.24c.51-2.69,1.29-5.49,2-8.11a2.8,2.8,0,0,1,5.42,1.4c-7.06,32.24-15.19,67.78,1.49,98.34Z"/><path class="cls-16" d="M985.42,1236.44c-20-18.92-20.58-50.15-14.73-75.39a170.29,170.29,0,0,1,8-25.35l10,4.41c-.85,1.81-2.2,4.7-3,6.5a4.92,4.92,0,0,0,.25-2,5.49,5.49,0,0,0-9.88-2.84l-.21.32c.16-.29.44-.86.58-1.16.76-1.63,1.55-3.46,2.2-5.13l10,4.3c-9,18-22.59,37-42,44.63-13.4,5.1-25.1-.08-33.8-10.73,6.26,4.33,13.27,8.18,21,7.67,20.29-2,37.07-29.29,45-46.25,3.09-6.22,12.3-2.32,10,4.22-.51,1.34-1,2.66-1.61,4-.53,1.14-1.22,2.81-1.83,3.89a5.52,5.52,0,0,1-9.86-5c.37-1,1.09-2.53,1.51-3.47l1.74-3.66a5.48,5.48,0,0,1,10,4.41,222.07,222.07,0,0,0-8.17,23.76c-6.65,23.83-9.08,51.08,4.76,72.88Z"/><path class="cls-16" d="M1326.11,1056.05c-14,.62-27.91-7-35.34-18.93-7-11.1-9-24.59-8.36-37.5a136.14,136.14,0,0,1,5.22-30.41l10.43,3.29c-7.93,21.77-30.7,55.2-56.19,34.84a46.41,46.41,0,0,1-8.27-9.11,68.75,68.75,0,0,1-6-10.34c2.66,3,5.35,5.82,8.19,8.44,12.08,11.09,24,14.8,35.84,1.24,7.19-8.22,12.24-18.52,16.13-28.72,2.49-6.48,12-3.54,10.46,3.21-9,32.33-12.26,73.33,27.91,84Z"/><path class="cls-16" d="M1233.46,997c-20-18.93-20.59-50.16-14.73-75.39a170,170,0,0,1,8-25.36l10,4.41c-.85,1.81-2.2,4.7-3,6.5a4.92,4.92,0,0,0,.24-2,5.48,5.48,0,0,0-9.88-2.84l-.21.32c.16-.29.44-.86.58-1.16.76-1.63,1.56-3.46,2.21-5.13l10,4.31c-9,18-22.6,37-42,44.62-13.4,5.1-25.1-.08-33.79-10.73,6.25,4.33,13.27,8.18,21,7.68,20.28-2,37.07-29.3,45-46.26,3.1-6.21,12.31-2.32,10,4.22-.51,1.34-1,2.66-1.61,4-.53,1.15-1.22,2.81-1.83,3.89a5.52,5.52,0,0,1-9.86-5c.37-1,1.09-2.53,1.51-3.47l1.74-3.66a5.48,5.48,0,0,1,10,4.41,222.13,222.13,0,0,0-8.18,23.76c-6.65,23.83-9.08,51.08,4.77,72.89Z"/><path class="cls-16" d="M1325.05,955.15c-14,.62-27.91-7-35.34-18.93-7-11.1-8.94-24.59-8.36-37.5a136.14,136.14,0,0,1,5.22-30.41L1297,871.6c-7.93,21.77-30.69,55.2-56.19,34.84a46.41,46.41,0,0,1-8.27-9.11,69.61,69.61,0,0,1-6-10.34c2.66,3,5.35,5.82,8.19,8.44,12.08,11.09,24,14.8,35.84,1.24,7.2-8.22,12.24-18.52,16.14-28.72,2.48-6.48,12-3.54,10.45,3.21-9,32.33-12.26,73.33,27.91,84Z"/><path class="cls-16" d="M1232.4,896.07c-20-18.92-20.59-50.15-14.73-75.39a170.25,170.25,0,0,1,8-25.35l10,4.41c-.84,1.81-2.2,4.7-3,6.5a4.92,4.92,0,0,0,.24-2,5.48,5.48,0,0,0-9.88-2.84l-.21.32c.16-.29.44-.86.58-1.16.76-1.63,1.56-3.46,2.21-5.13l10,4.3c-9.05,18-22.6,37-42,44.63-13.41,5.1-25.11-.08-33.8-10.73,6.25,4.33,13.27,8.18,21,7.68,20.28-2,37.07-29.3,45-46.26,3.1-6.22,12.31-2.32,10,4.22-.51,1.34-1,2.66-1.61,4-.52,1.15-1.21,2.81-1.83,3.89a5.52,5.52,0,0,1-9.86-5c.37-1,1.09-2.53,1.51-3.47l1.74-3.66a5.48,5.48,0,0,1,10,4.41,222.13,222.13,0,0,0-8.18,23.76c-6.65,23.83-9.08,51.08,4.77,72.88Z"/><path class="cls-16" d="M1123.87,1242.49c-20-18.93-20.59-50.16-14.73-75.39a170,170,0,0,1,8-25.36l10,4.41c-.84,1.81-2.2,4.7-3,6.5a4.92,4.92,0,0,0,.24-2,5.48,5.48,0,0,0-9.88-2.84l-.2.32c.15-.29.43-.86.57-1.16.76-1.63,1.56-3.46,2.21-5.13l10,4.31c-9,18-22.59,37-42,44.62-13.41,5.1-25.11-.08-33.8-10.73,6.25,4.33,13.27,8.18,21,7.68,20.28-2,37.07-29.3,45-46.26,3.1-6.21,12.31-2.32,10,4.22-.51,1.34-1,2.66-1.61,4-.52,1.15-1.21,2.81-1.83,3.89a5.52,5.52,0,0,1-9.86-5c.37-1,1.09-2.52,1.51-3.47l1.74-3.66a5.48,5.48,0,0,1,10,4.41,224.36,224.36,0,0,0-8.18,23.76c-6.65,23.83-9.08,51.08,4.77,72.89Z"/><path class="cls-16" d="M1053.71,1183.88c-20-18.92-20.59-50.15-14.73-75.39a169.52,169.52,0,0,1,8-25.35l10,4.41c-.84,1.8-2.2,4.7-3,6.5a5,5,0,0,0,.24-2,5.48,5.48,0,0,0-9.88-2.84l-.21.32c.16-.29.44-.87.58-1.16.76-1.63,1.56-3.47,2.21-5.14l10,4.31c-9,18-22.6,37-42,44.62-13.41,5.11-25.11-.08-33.8-10.73,6.25,4.34,13.27,8.19,21,7.68,20.28-2,37.07-29.29,45-46.25,3.1-6.22,12.31-2.33,10,4.21-.51,1.34-1,2.66-1.61,4-.52,1.15-1.21,2.82-1.83,3.9a5.53,5.53,0,0,1-9.86-5c.37-1,1.09-2.52,1.51-3.47l1.74-3.66a5.48,5.48,0,0,1,10,4.42,222.13,222.13,0,0,0-8.18,23.76c-6.65,23.83-9.08,51.08,4.77,72.88Z"/><path class="cls-16" d="M1223.77,1177c-20-18.92-20.58-50.15-14.73-75.39a170.29,170.29,0,0,1,8-25.35l10,4.41c-.85,1.81-2.2,4.7-3,6.5a4.92,4.92,0,0,0,.25-2,5.48,5.48,0,0,0-9.88-2.84l-.21.32c.16-.29.44-.86.58-1.16.76-1.63,1.55-3.46,2.2-5.13l10,4.3c-9,18-22.59,37-42,44.63-13.4,5.1-25.1-.08-33.79-10.73,6.25,4.33,13.26,8.18,21,7.67,20.29-2,37.07-29.29,45-46.25,3.09-6.22,12.3-2.32,10,4.22-.51,1.34-1,2.66-1.61,4-.53,1.14-1.22,2.81-1.83,3.89a5.52,5.52,0,0,1-9.86-5c.37-1,1.09-2.53,1.51-3.47l1.74-3.66a5.48,5.48,0,0,1,10,4.41,222.07,222.07,0,0,0-8.17,23.76c-6.65,23.83-9.08,51.08,4.76,72.88Z"/><path class="cls-16" d="M898.55,1299.2c-11.68-26.38-2.83-56,6.4-81.76l9.75,4.37c-1.49,2.94-2.94,5.44-3.82,7.71l-9.64-5a51.89,51.89,0,0,0,3.68-7.39l9.93,4.68c-8.89,17.22-21.74,34.35-40.44,41.62-14,5.47-30.7.64-38.57-12.38,8.89,8.1,20.87,11,31.75,7,10.53-4.18,18.64-12.37,25.43-21.38a139,139,0,0,0,12.05-19.81,5.49,5.49,0,0,1,9.93,4.68,57.15,57.15,0,0,1-4.64,9,5.46,5.46,0,0,1-9.64-5,77.15,77.15,0,0,1,4.58-8.85c3.32-5.77,12-1.72,9.68,4.52-1.89,4.72-5.55,14.22-7.33,19-7.08,19.14-12.13,38.48-9.1,59Z"/><path class="cls-16" d="M1058.91,1420.85c-18.7-.14-35.63-12.63-44.39-28.8a66.14,66.14,0,0,1-6.23-17.78c-4.61-24.41.39-49.25,9.76-71.82l9.44,4q-.33.78-.69,1.53l-9.38-3.79c.21-.5.42-1,.65-1.49l9.26,3.85c-8.82,16.71-20.09,34.07-37.8,42.36a35.39,35.39,0,0,1-18.66,3.08,38.9,38.9,0,0,0,16.76-6.54c9.85-6.78,16.77-16.79,22.62-27.09,2.92-5.23,5.57-10.64,8-16.16,2.76-5.8,11.34-2.33,9.29,3.76q-.51,1.36-1,2.73a5.06,5.06,0,1,1-9.38-3.79l1-2.61c2.56-6.23,11.74-2.85,9.6,3.57-8.58,23.73-14.49,52-7.65,76.78,5.58,18.21,19.89,33.13,38.84,38.21Z"/><path class="cls-16" d="M578.71,846.27c-14.18,3.44-28.46-4.38-35.26-16.91-6.8-12.34-8.05-26.64-7.55-40.34l7.92.57a73.55,73.55,0,0,1-1.75,9.08c-3.63,14.8-13.78,33-31.7,25.24-6-2.86-10.84-7.54-15-12.64,1.23.82,2.41,1.67,3.61,2.5,7.15,4.69,17.52,10.64,25.32,4.19,6.89-6.19,9.22-16.35,11-25.2.24-1.34.46-2.78.61-4a4,4,0,0,1,7.92.54c-1,25.24,4.12,55.21,34.87,57Z"/><path class="cls-16" d="M462.79,877.7c-19-8.73-25.61-32.22-24.93-51.63a88.72,88.72,0,0,1,2.76-19.57l4,.63-.92,2.79c-.25.7-.62,1.92-.86,2.56a1.17,1.17,0,0,0-2.1-.64.65.65,0,0,0-.13.28,2.84,2.84,0,0,0,.23-.5c.48-1.24,1.31-3.59,1.77-4.87a35.84,35.84,0,0,1,.26,4.52,6,6,0,0,1-.14,1.75,1.19,1.19,0,0,1-2.25-.6c0-.22,0-.56,0-.78,0-1.71.05-3.57.15-5.26a2.05,2.05,0,1,1,4,.63c.31,24.63.95,51.22,18.11,70.69Z"/><path class="cls-16" d="M501.24,817c-17.54-10.56-23.52-32.88-23.61-52.24A124.23,124.23,0,0,1,479.06,745l7.84,1.45c-.28,1.28-.75,3.57-1,4.82,0,0-.06.34-.05.31v-.12a4,4,0,0,0-7.7-1.5l0,.06c.05-.19.17-.69.22-.92.27-1.29.53-2.74.71-4l7.79,1.38c-2.82,11.9-7.49,23.54-15.82,32.77-9.84,10.82-21.66,12.43-33.28,3.12,5.18,2.16,10.82,3.95,16.35,2.59,14.7-4.24,22.12-26.55,25-40.16a4,4,0,0,1,7.79,1.32c-.19,1.49-.48,3.16-.78,4.66a11.93,11.93,0,0,1-.6,2.2,4,4,0,0,1-7.39-.22,5,5,0,0,1-.11-2.77c.22-1.39.75-3.81,1.05-5.2a4,4,0,0,1,7.84,1.45,160.59,160.59,0,0,0-1.82,18.65c-.68,18.57,2.43,38.45,16.12,52.16Z"/><path class="cls-16" d="M623.87,780.88c-17.54-10.56-23.52-32.88-23.61-52.25a124.4,124.4,0,0,1,1.43-19.77l7.84,1.45c-.28,1.28-.75,3.57-1,4.83a2.43,2.43,0,0,0,0,.31v-.13a4,4,0,0,0-7.7-1.5l0,.07c.05-.2.17-.7.22-.92.27-1.3.53-2.74.71-4.05l7.79,1.39c-2.82,11.9-7.49,23.54-15.82,32.77-9.84,10.82-21.66,12.43-33.28,3.12,5.18,2.16,10.82,3.94,16.35,2.59,14.7-4.25,22.12-26.55,25-40.17a4,4,0,0,1,7.79,1.32c-.19,1.5-.48,3.17-.78,4.66a11.19,11.19,0,0,1-.6,2.2,4,4,0,0,1-7.39-.22,5,5,0,0,1-.11-2.76c.22-1.39.75-3.81,1.05-5.21a4,4,0,0,1,7.84,1.46,160.38,160.38,0,0,0-1.82,18.65c-.68,18.57,2.43,38.44,16.12,52.16Z"/><path class="cls-16" d="M562.82,748.64c-17.54-10.56-23.53-32.88-23.61-52.25a123.24,123.24,0,0,1,1.43-19.77l7.83,1.46c-.27,1.28-.74,3.56-1,4.82,0,0,0,.34,0,.31v-.13a4,4,0,0,0-7.7-1.5l0,.07c0-.2.17-.7.21-.92.27-1.29.53-2.74.72-4.05l7.78,1.39c-2.81,11.9-7.48,23.54-15.81,32.77-9.85,10.82-21.67,12.43-33.28,3.12,5.18,2.16,10.81,3.95,16.35,2.59,14.7-4.25,22.11-26.55,25-40.17a4,4,0,0,1,7.8,1.32c-.2,1.5-.49,3.17-.78,4.66a11.72,11.72,0,0,1-.6,2.2,4,4,0,0,1-7.39-.22,5,5,0,0,1-.11-2.76c.22-1.39.75-3.81,1-5.2a4,4,0,0,1,7.84,1.45,160.4,160.4,0,0,0-1.83,18.65c-.67,18.57,2.44,38.45,16.13,52.16Z"/><path class="cls-16" d="M654.4,566c-17.54-10.56-23.52-32.88-23.61-52.24A123.07,123.07,0,0,1,632.22,494l7.83,1.45c-.27,1.28-.74,3.57-1,4.83,0,0-.05.33-.05.3v-.12a4,4,0,0,0-7.7-1.5l0,.07c.05-.2.17-.7.21-.93.28-1.29.53-2.74.72-4l7.78,1.38c-2.81,11.91-7.48,23.54-15.81,32.77-9.85,10.83-21.67,12.43-33.28,3.12,5.18,2.16,10.81,3.95,16.35,2.6,14.7-4.25,22.11-26.56,25-40.17a4,4,0,0,1,7.8,1.32c-.2,1.5-.49,3.16-.78,4.66a11.93,11.93,0,0,1-.6,2.2,4,4,0,0,1-7.39-.22,5,5,0,0,1-.11-2.77c.22-1.39.75-3.81,1-5.2a4,4,0,0,1,7.84,1.45,160.57,160.57,0,0,0-1.83,18.66c-.67,18.56,2.44,38.44,16.13,52.15Z"/><path class="cls-16" d="M593.35,533c-17.54-10.56-23.53-32.88-23.62-52.25A125.58,125.58,0,0,1,571.16,461l7.84,1.46c-.28,1.28-.74,3.56-1,4.82,0,0,0,.33,0,.31v-.13a4,4,0,0,0-7.7-1.5l0,.07c.06-.2.17-.7.22-.92.27-1.29.53-2.74.71-4l7.79,1.39c-2.82,11.9-7.49,23.54-15.81,32.77-9.85,10.82-21.67,12.43-33.29,3.12,5.19,2.16,10.82,3.95,16.36,2.59,14.69-4.25,22.11-26.55,25-40.17a4,4,0,0,1,7.79,1.32c-.19,1.5-.48,3.17-.77,4.66a12.53,12.53,0,0,1-.6,2.2,4,4,0,0,1-7.39-.22,4.91,4.91,0,0,1-.12-2.76c.22-1.39.76-3.81,1.06-5.2a4,4,0,0,1,7.84,1.45,158.24,158.24,0,0,0-1.83,18.65c-.68,18.57,2.44,38.45,16.13,52.16Z"/><path class="cls-16" d="M525,904.22c-9.42,2.32-19.44-2-25.9-9-6.53-7.29-9.39-17.26-10.18-26.7a71.08,71.08,0,0,1,.94-18.76l7.32,1.26c0,.23-.1.46-.16.69l-7.24-1.11c0-.22.08-.44.14-.66l7.16,1.17c-2.54,9.23-6.38,19.11-14.51,24.84a17,17,0,0,1-9.08,3.06c5.72-2.33,9.36-7.12,11.75-12.54A73.53,73.53,0,0,0,490,849.56a3.63,3.63,0,0,1,7.16,1.17c0,2.63-1.45,5-4.37,4.63a3.67,3.67,0,0,1-3.07-4.19l.18-1.52a3.72,3.72,0,1,1,7.32,1.26c-1.26,13.6-.9,28.72,6.7,40.46A30.29,30.29,0,0,0,525,904.22Z"/><polygon class="cls-11" points="789.76 1253.15 819.12 1244.48 942.87 1039.94 910.97 1030.63 789.76 1253.15"/><polygon class="cls-14" points="925.67 1036.03 789.76 1253.15 778.89 1243.24 790.85 1214.75 770.19 1234.57 759.32 1227.13 891.2 1018.48 925.67 1036.03"/><polygon class="cls-11" points="360.25 832.22 389.26 822.61 609.47 434.16 582.51 419.7 360.25 832.22"/><polygon class="cls-14" points="592.14 430.8 360.25 832.22 349.01 822.66 359.9 793.8 340 814.27 328.85 807.19 557.02 414.37 592.14 430.8"/><path class="cls-5" d="M1244.88,1105.3s-50.09,29.88-62.75,59.51-16.25,35.61-28.34,27.81-36.76,19.64-35.17,22.7,21.72,9.85,16.78,19.4-12.46,11.44-18.46,17.49-19.17,8.53-11.09,22.16,10.31,14.5-2.06,26.74-44.42,7.88-50.53,15.75-22.69,17.56-15.15,37.2-6.71,32.31-15.72,33-3.75,13.78,0,20.77,20,16.12,27.25,14.18,28.88-18.55,47.72-37.79S1244.88,1105.3,1244.88,1105.3Z"/><path class="cls-14" d="M1098.55,1470.35l-25.61-24.22s61-66.62,68-85.82,14.41-31,14.41-31-34,52-38.87,55.12-50.56,60.7-50.56,60.7l-19.57-22.91,312.58-506.17,72.31,11.42Z"/><path class="cls-11" d="M1405.92,935.76l-307.37,534.59,119.6-45.42s195-321.87,219.63-398.56c0,0,120.32,229.26,187.73,263.12,0,0,31.9-3.31,28.27-13.22s-23.92-33-23.92-33l44.94,30.56s34.8-14.87,33.35-33c0,0-129.75-140.15-224-298.43S1405.92,935.76,1405.92,935.76Z"/><path class="cls-14" d="M588.92,955.88l-26.15-24.51s61.59-68,68.67-87.52-15.3,19.3-15.3,19.3a105.8,105.8,0,0,0-9.43,5.36c-5,3.17-51.07,61.91-51.07,61.91l-20-23.2,315-515.79,73.55,11.28Z"/><path class="cls-11" d="M898.53,411.22,588.92,955.88l121.31-46.69s196.5-328,221.14-406c0,0,123.48,232.46,192.16,266.57,0,0,32.4-3.5,28.66-13.55s7.66-11.83,7.66-11.83l13.69,9.22s35.29-15.26,33.72-33.72c0,0-149.31-131.12-245.89-291.56S898.53,411.22,898.53,411.22Z"/><polygon class="cls-12" points="1404.59 938.46 1250.63 880.79 1244.71 778.57 1397.55 812.72 1450.02 870.24 1404.59 938.46"/><polygon class="cls-14" points="1474.97 798.72 1217.9 749.39 1228.73 778.57 1397.55 812.72 1474.97 798.72"/><path class="cls-15" d="M1474.76,798.74s-62.33-9.2-77.41,14l7,125.75,61.33-21.1Z"/><path class="cls-14" d="M1223.77,600.76l-33.5-2.73s-99.39,35.76-289.09,36.7l38.06,14.49S1207.3,639.64,1223.77,600.76Z"/><polygon class="cls-9" points="1236.52 991.78 1236.52 881.4 1050.21 949.78 1055.51 1036.03 1236.52 991.78"/><path class="cls-10" d="M871.36,958.61V856.5l64.13-107,120,189.18v99.71S913.13,1010.74,871.36,958.61Z"/><polygon class="cls-9" points="954.19 824.7 938.76 791.05 869.19 885.09 871.36 850.32 941.28 754.93 966.98 824.28 954.19 824.7"/><path class="cls-9" d="M1066,968.31s-12.69,9-24.44-1.43-33.89-44-33.89-44l-16.78-46.67,31.9,17.41,41.74,68Z"/><path class="cls-16" d="M914.58,877.71c.89-18.11,17-43.4,32.48-54.32l-2.47-5.34h15.2a14.43,14.43,0,0,1,1.86,0c17.65,1.34,37.46,65.69,45.3,97.87,2.59,10.59,0,102.56,0,102.56l-92.37-42.23S913.41,901.84,914.58,877.71Z"/><path class="cls-13" d="M989.89,1018.48s2.26-91.87,0-102.56c-4.9-23.24-27.65-96.53-45.3-97.87s-45.89,35.53-47.07,59.66,0,98.54,0,98.54Z"/><path class="cls-12" d="M908.62,664.66,803,818.37c-5.9,8.44-5,20.64,1.94,27.92l28.77,30,112-157.21Z"/><polygon class="cls-11" points="833.71 876.26 871.36 867.1 952.55 750.02 935.34 733.64 833.71 876.26"/><path class="cls-16" d="M1272.49,904s-73.67,26.78-92.5.53c0,0,1.19,25.12-55.82,37.42S981.53,667.34,981.53,667.34l185.74-17.64Z"/><path class="cls-17" d="M1183.68,740.39A53.81,53.81,0,0,1,1161,757.76c-12,5.12-26.27,3.71-37.74-2.4-19.92-10.78-32.88-30.78-43-50.3l10-4.6a134,134,0,0,1,5,15.1c5.11,19.82,8.27,45.85-6.81,62.26-11.59,12.2-29.82,12.46-45.09,9l3.82-.08c8.59-.35,17.46-1.38,25.24-5.13,27.64-13.13,16.34-54.39,7.74-76.95-2.52-6.52,6.63-10.76,10-4.6,5.3,10.25,11.24,20.62,18.38,29.66a78.45,78.45,0,0,0,19.1,18c18.85,12,39.81,6.22,56.08-7.36Z"/><path class="cls-17" d="M1232.61,910.05c-20.41,15.87-44.42,12.1-57-11a82.77,82.77,0,0,1-7.69-20.51,4.48,4.48,0,0,1,3.27-5.48c3.56-.77,5.1,2,6.24,4.73a66.69,66.69,0,0,1,2.9,7.37c4.69,13.44,5.06,31.43-8,40.4-8.73,6.07-20,6.78-30,5.68,20.28-3.15,37.13-10.62,32.18-34.34a67.94,67.94,0,0,0-6.21-17.27l8.29-3.23a89.9,89.9,0,0,0,6.6,18.59c10.18,21.11,29.16,23.54,49.39,15.11Z"/><path class="cls-18" d="M944,852.64c12.25.93,27.77,48.1,32.91,68.88l-68-26C911,877.47,931.18,851.67,944,852.64Z"/><path class="cls-18" d="M977.89,1002.76l-69.18-31.63s-.53-33.38-.36-56.85l70.28,30.37C978.75,967.62,977.89,1002.76,977.89,1002.76Z"/><path class="cls-16" d="M908.86,895.52l68,26c.41,1.65.75,3.14,1,4.42.48,2.29.69,9.53.74,18.71l-70.28-30.37c0-6.85.16-12.87.36-16.95C908.74,896.73,908.79,896.13,908.86,895.52Z"/><polygon class="cls-13" points="982.48 931.28 903.25 900.99 903.25 919.77 982.48 954 982.48 931.28"/><path class="cls-17" d="M1153.53,859.81c-25.71,7-49-13.42-62.76-33.21a179.3,179.3,0,0,1-12.84-21.29l9.82-4.49a153.32,153.32,0,0,1,5.4,15.62c6.55,22,9.54,57.53-13.72,70.79-12.18,7-27.09,7.2-40.35,3.6,8,.06,15.72-.53,23.26-2.84a41,41,0,0,0,17.27-10.07c12.48-15,8-41,3-58.42-1.42-4.91-3-10-4.88-14.72-2.33-6.43,6.69-10.41,9.88-4.34,6.93,14,14.82,27.81,25.28,39.44,10.3,11.65,24.64,20.46,40.67,19.93Z"/><path class="cls-17" d="M1262.56,820.54c-13.34,20.34-41.39,28.51-63.17,16.13-20.77-11.49-34.88-32.2-44.36-53.42l9.65-4.15c.22.5.42,1,.62,1.52l-9.45,4.28c-.22-.49-.43-1-.62-1.48l9.41-4.14a160.63,160.63,0,0,1,5.56,19.47c4.21,19.38,4.27,42.62-9.51,58.29a75.93,75.93,0,0,0,3.58-9.12l1.12-4.69c3.73-20.67-2.83-41.14-10.39-60.33-2.28-6.14,6.35-10,9.39-4.18q.63,1.29,1.23,2.61a5.19,5.19,0,0,1-9.39,4.41l-.06-.13-1.21-2.53c-2.86-6.62,6.72-10.8,9.65-4.16,10.71,21.72,28.81,49.32,53.54,55.25,16,3.2,32-2.62,44.41-13.63Z"/><polygon class="cls-19" points="1255.21 994.24 1236.52 991.78 1055.51 1036.03 861.65 951.13 861.65 959.93 928.62 1017.7 1068.15 1063.73 1243.97 1009.66 1255.21 994.24"/><path class="cls-12" d="M1055.51,1124.29,869.19,1016.91c-4.62-2.6-7.54-8-7.54-13.84V959.93l193.86,88.61S1084,1111.55,1055.51,1124.29Z"/><path class="cls-11" d="M1055.51,1048.54v75.75l188.68-61.24c5.7-1.85,9.69-7.71,9.84-14.47l1.18-54.34Z"/><path class="cls-12" d="M911,690.13s62.25,190.32,136.75,263.33a19.43,19.43,0,0,0,17.1,5.51l8.19-1.46L947.06,691Z"/><path class="cls-12" d="M1124,644.33s68.25,214.73,129.7,259.57c6.77,4.94,14.33,5.22,20.46,4.13l4.79-.92L1152,639.79Z"/><path class="cls-11" d="M947.06,691s59.71,172.78,126,266.48L1125.78,946c6.52-1.42,9.46-10.16,5.43-16.17-23.08-34.47-85-133.57-119-251.28Z"/><path class="cls-11" d="M1150.82,657.06s48.26,150.14,107.3,242.22c4.37,6.81,11.84,10.06,19.08,8.25l48.59-12.17c9.5-2.38,13.57-15.27,7.54-24-17.76-25.67-52.81-86.27-113.67-227.06Z"/><path class="cls-11" d="M934.9,641l-16.81,23.62,12.69,29.27s215.92,2.68,288.88-49.6l4.11-43.57S1102.58,644.33,934.9,641Z"/><polygon class="cls-20" points="930.78 694.38 899.07 681.4 901.18 634.73 934.9 641.04 930.78 694.38"/><path class="cls-5" d="M1320.54,872.15c4,3.93,15.75,2.38,17.73,7.93,2.59,7.28,4.23,15.47-1.54,15.4-10.38-.12-19.5,9.31-19.5,9.31s17.14,28.26,0,31.64-23.19,3.13-18.85,10.15c1.93,3.13-9.72.38-2.72-14.9,7.71-16.84,17.59-29.62-.16-26.89-7.7,1.19-14.82,2.8-20.41,4.24a23,23,0,0,1-20.65-4.94l-.23-.19c-7.52-6.29-15-10.45-20.69.89s-26.44,20.42-36.34,18.14a18.4,18.4,0,0,1-12.94-10.44l-7.11,7.38s-19.14-30.19.45-28.24,34.23-11.76,42.36-13.72,48.82,11.7,53.11-6.61c2.52-10.74-1.34-21-5-27.64a13.29,13.29,0,0,1,1.49-14.82c6.7-7.67,16.5-19.27,18.64-23.89,3.33-7.16-7.08-13.82-7.08-13.82s-12.07-22.19,2-10,8.61,17,15.28,29.81,10.26,6.4,18.85,20.3,7.17,19.37,7.88,26.78C1325.44,861.38,1318.7,870.33,1320.54,872.15Z"/><g class="cls-21"><path class="cls-22" d="M1288.22,805s4,14.81-3.58,22.4,3.56,27.08,2.32,29.69,3.18,32.6-14.47,33-42.53-16.91-52.55-12.17S1288.22,805,1288.22,805Z"/></g><g class="cls-23"><path class="cls-24" d="M1423.1,1509.17,1326,1552.94V1415l83.78-51.58,32.92,35.06S1474.56,1472,1423.1,1509.17Z"/></g><g class="cls-25"><polygon class="cls-11" points="1414.49 1500.08 1414.49 1399.05 1406.76 1388.59 1405.55 1495.4 1399.75 1497.33 1397.58 1370.97 1381.39 1375.65 1387.43 1497.88 1381.39 1480.26 1374.14 1375.38 1363.99 1383.09 1376.32 1518.8 1367.01 1522.28 1355.78 1393.27 1339.35 1406.49 1349.5 1536.7 1330.2 1536.7 1367.01 1569.46 1467.17 1502.79 1447.11 1409.51 1414.49 1500.08"/></g><path class="cls-13" d="M1363.13,1351.6c57.18-19.27,80.82,9.82,88.43,28.92,7.24,18.16,5,96.79,4.74,104.43a1.79,1.79,0,0,1-.4,1.06c-1.81,2.11-10.24,11-26.05,13.15h0l-.48,2.93-5.8-2.08a1.6,1.6,0,0,1-1-1.54v-81.91a39.44,39.44,0,0,0-3.62-16.87c-4.11-8.69-12.82-18.23-31.17-16.48-30.81,2.94-48.39,32.62-52.19,56.78-3.57,22.66-.45,88.24,0,96.34a1.72,1.72,0,0,1-.54,1.36c-2.33,2.1-11.57,9.84-23.78,12.67a1.45,1.45,0,0,0-1,.89l-.49,1.18a1.34,1.34,0,0,1-1.84.79l-5.59-2.78a1.64,1.64,0,0,1-.85-1.47l-1-110.69a.62.62,0,0,1,0-.13C1300.6,1435.8,1305.49,1371,1363.13,1351.6Z"/><path class="cls-26" d="M1463.07,1488s-10.69,14.11-33.7,14.11V1419a39.59,39.59,0,0,0-3.62-16.87c-4.11-8.69-12.83-18.23-31.18-16.48-30.8,2.94-48.38,32.61-52.19,56.78s0,97.17,0,97.17-14.61,14.25-33.22,14.25l-1.73-101.1c-.33-19.4,3.89-38.64,12.61-55.27,9-17.13,24.2-34.8,49.89-43.45,57.18-19.27,80.82,9.82,88.43,28.92S1463.07,1488,1463.07,1488Z"/><path class="cls-27" d="M1396.51,1450.94c1.71,6.36,4.8,9.84,11.53,7.49s8-12.83,3.09-16.91-9-.82-9-.82S1394.8,1444.59,1396.51,1450.94Zm6.77-7.61a4.12,4.12,0,0,1,5.26.48c2.85,2.38,2.13,8.52-1.81,9.89s-5.75-.66-6.75-4.38S1403.28,1443.33,1403.28,1443.33Z"/><g class="cls-28"><path class="cls-22" d="M1209.38,1131.33s-30.74,49.14-33.63,59.88-16.4,18-16.68,17.55-21-1.86-19.2,3.92,8.33,9.91,8.33,14.87-2.17,14.58-14.13,22.36-18.85,7.15-15.59,13.87,4.32,27.27-2,22.13c-17.22-13.9-20.18-31.46-24.34-28.15s-9.11,41.64-14,43.7,12.06,5.23,12.38,6.47-31.55,9.91-39.17,31.25c-2.51,7-3.24,16.1-4.93,40.88-.74,10.86-20.63,6.25-20.63,6.25s-25.89-32.29-19.08-40.24,69.07-80.53,76.68-88.79,43.67-83.83,52.1-91.67S1209.38,1131.33,1209.38,1131.33Z"/></g><path class="cls-22" d="M902.3,1248.61s-15.95-13.39-23.26,2.89-8.35,18.66-13.07,16.87-3.71-18.61-16.26-7.85-20.25,1.07-20.62,0-11.08-17.92-9.92-11.91,5.81,27.53,7.94,34.11,3.71,18.12,22.6,9.35,35.2-23.8,40.41-20.17,13.36,2.63,18.21-7,2.65-21.61,9.26-34.16,25.93-42.19,22.78-40.55-10,3-10.4,8.4c-.65,8-12.07,14.69-18.28,21.28-6.8,7.22-9.39,18.18-9.39,28.76Z"/><path class="cls-22" d="M1357,1010.24s15.82,5.49,2.23,24.3-19.31,41.52-17.81,45.41-11.22,23.45-17.64,29.24-24.49,16.64-25,27.75-11.34,42.25-15.15,47.44-15.77,11.31-17.4,28.36-7.81,45.1-17.5,38.21-15.87-13-21.2,1.07-13.84,19.18-13.84,19.18-9.07-3,4.07-20.25,24.55-28.15,15.31-27.57-16.31-2.14-8.7-10.84,5.93-13.3,19.55-18.78,26.92-18,25.16-23.44-17,5-5.56-15.78,7.06-20.1,20.65-29.83,22.74-13.37,23.06-23.88,6.26-23.48,9.54-29.31,11.39-9.13,19.57-23.7,2.74-37.58,2.74-37.58-2.51-12,13.43-26.29,28.7-26.45,22.77-11.35-16.73,23.63-18.31,26.24S1357,1010.24,1357,1010.24Z"/><path class="cls-16" d="M531.25,1284.91c-4.59-23.18-16.19-69.54-26.52-70.5a5.67,5.67,0,0,0-1.09,0h-8.9l1.44,3.84c-9.05,7.87-18.49,26.09-19,39.13-.69,17.39,0,71,0,71l41.48,23.77,2.61,6.65h10S532.77,1292.54,531.25,1284.91Z"/><path class="cls-13" d="M521.26,1358.79s1.32-66.18,0-73.88c-2.87-16.74-16.19-69.54-26.52-70.5s-26.87,25.59-27.56,43,0,71,0,71Z"/><path class="cls-18" d="M494.37,1234.66c7.17.54,16.26,28.16,19.27,40.32l-39.82-15.22C475.06,1249.19,486.89,1234.09,494.37,1234.66Z"/><path class="cls-18" d="M514.24,1342.76l-40.51-21.31s-.31-31.6-.21-50.7l41.15,24.71C514.74,1314.16,514.24,1342.76,514.24,1342.76Z"/><path class="cls-16" d="M473.82,1259.76,513.64,1275c.24,1,.44,1.84.6,2.59a90.8,90.8,0,0,1,.43,11l-41.15-17.77c0-4,.1-7.54.21-9.93C473.75,1260.47,473.78,1260.12,473.82,1259.76Z"/><polygon class="cls-13" points="516.93 1280.7 470.54 1262.96 470.54 1273.96 516.93 1294 516.93 1280.7"/><polygon class="cls-13" points="488.19 1231.4 486.65 1333.02 496.15 1339.42 496.15 1229.44 488.19 1231.4"/><path class="cls-16" d="M531.25,1116.19c-4.59-23.18-16.19-69.54-26.52-70.5a5.67,5.67,0,0,0-1.09,0h-8.9l1.44,3.84c-9.05,7.87-18.49,26.08-19,39.13-.69,17.39,0,71,0,71l41.48,23.77,2.61,6.65h10S532.77,1123.82,531.25,1116.19Z"/><path class="cls-13" d="M521.26,1190.07s1.32-66.18,0-73.88c-2.87-16.74-16.19-69.54-26.52-70.5s-26.87,25.59-27.56,43,0,71,0,71Z"/><path class="cls-18" d="M494.37,1065.94c7.17.54,16.26,28.15,19.27,40.32L473.82,1091C475.06,1080.47,486.89,1065.37,494.37,1065.94Z"/><path class="cls-18" d="M514.24,1174l-40.51-21.32s-.31-31.59-.21-50.7l41.15,24.72C514.74,1145.44,514.24,1174,514.24,1174Z"/><path class="cls-16" d="M473.82,1091l39.82,15.22c.24,1,.44,1.84.6,2.59a90.8,90.8,0,0,1,.43,11L473.52,1102c0-4,.1-7.53.21-9.92C473.75,1091.75,473.78,1091.4,473.82,1091Z"/><polygon class="cls-13" points="516.93 1111.98 470.54 1094.24 470.54 1105.24 516.93 1125.28 516.93 1111.98"/><polygon class="cls-13" points="488.19 1062.67 486.65 1164.3 496.15 1170.69 496.15 1060.72 488.19 1062.67"/><path class="cls-5" d="M563,896.7s-36.9,21.08-42.67-1.17,9.48-27.68,16.46-26.61,11.19-18,11.19-18-17.72,3.92-22.69,4.34-21.91,5.86-15.33-7,10.9-18.68,18.65-17,21,.72,26.48-.32,14.8-4,14.83-8.6,10-12.79,1.68-14.69-29.49.7-21.57-9.17,7.65-15.31,14.44-12.37,9.87,9,17.48,6.07,30.63-29.73,30.63-29.73,3-2.71,2.9-11,10.08-19.23,12.14-21.47,13-9.77,10-16.34-16.12-13.42-.83-24.16,14.34-16.57,24.78-20.41,13,.63,15.77-13.6-6.21-27.65,5.59-35.31,14.13-8.14,21-13.35,24.16-13.36,23.64-24-.21-59.68,19.36-33.93-14.29,82.91-24,108.88-82.18,87.3-88.68,109.84S580.09,892.32,563,896.7Z"/><g class="cls-29"><path class="cls-22" d="M535.63,913.27S522.87,891,537.06,884.4,552,875,553.83,865.85s-7.75-10.9,3.69-19.41,19.54-12,25.81-26.77-.63-16.12,5.59-21.56,11-10.9,15.44-14.3,7.69-8.65,9.93-13.35.76-14.05.76-14.05S597.23,740,573,754.93s-71.71,14.75-71.71,38.41S451,869.25,462.79,884.4s46.41,38.66,53.05,37.12S535.63,913.27,535.63,913.27Z"/></g><path class="cls-22" d="M598.18,417.42s-22.18-2-23,14.84-13.08,44-17.33,42.31-48.06,25.1-29.89,22.8,25.6-17.59,25.49-10-22.72,26.64-22.72,26.64-17.94,9.36-12.48,16.26,13.19-5.36,14.73,0-14.7,20-15.3,26.48-25,22.58-7.17,20.21,29.11-25.45,28.63-30.71,7.53-25.52,14.31-32.24,9-8.64,11.22-3.47,2.63,12.2,11.07-5.42c12.78-26.69,3.16-27.26,7.11-37.05s-1-13.55,8.92-18.23,6.75-14.55,10.85-19.15S598.18,417.42,598.18,417.42Z"/><polygon class="cls-12" points="894.54 446.53 556.18 434.3 548.58 357.22 731.55 339.56 880.93 334.93 894.54 446.53"/><polygon class="cls-14" points="949.26 322.81 901.39 321.91 594.99 350.38 548.58 357.22 880.93 334.93 949.26 322.81"/><path class="cls-15" d="M949.26,322.81s-65.34-9.48-77.75,13.27l23,110.45,60.9-13.74Z"/><polygon class="cls-12" points="599.38 1000 399.66 895.52 399.66 935.81 613.27 1059.27 599.38 1000"/><polygon class="cls-14" points="596.2 986.36 422.16 896.66 406.48 899.09 406.48 924.83 596.47 1035.62 596.2 986.36"/><polygon class="cls-12" points="599.38 1000 399.66 895.52 399.66 935.81 613.27 1059.27 599.38 1000"/><path class="cls-5" d="M739.75,1403.18c1.48-.37,3-.74,4.67-1.12,0,0,10.44-65.49,58.89-62.85,76,5.83,60.84,72.33,60.84,72.33s17.43-28.63,45.67-9.34c23.09,14.7,14.37,42.52-1.73,57.43,0,0-26.93,36.49-98.44,38.64-.94.07-1.88.13-2.83.16l-12.56.47a94.62,94.62,0,0,1-28.88-3.39h0A94.51,94.51,0,0,1,718,1464.92l-.35-.42a29.49,29.49,0,0,1-2.71-3.94C701.83,1438.15,714.55,1409.42,739.75,1403.18Z"/><g class="cls-30"><path class="cls-7" d="M883.92,1479.18s37.45-47.42,0-47.14-41.47-12.58-43.07-35.07-64.43-48.27-96.43,5.09c0,0,2.43-91.85,10.47-103.1s162.27,12,163.08,18.48,69.56,98.78,66.92,101.61-61,67.09-61,67.09Z"/></g><path class="cls-31" d="M613.27,1653.06s-6.82-62.48-21-70c0,0,1.26,51-7.84,56.93s-24.75-43.87-24.75-43.87-13.22,36.63.33,51.95S613.27,1653.06,613.27,1653.06Z"/><path class="cls-31" d="M599.49,1646.87s33.85-27.57,34.16-42.89c0,0-3.07,36-17.08,49S599.49,1646.87,599.49,1646.87Z"/><path class="cls-31" d="M1406.42,1730.15s-1.33-29.75-1.66-48.66c0,0,8.78,22,10.7,27.29S1406.42,1730.15,1406.42,1730.15Z"/><path class="cls-31" d="M1410.22,1721s14.77-41.87,8.29-56.54c0,0,18,16.4,14.06,39.6S1410.22,1721,1410.22,1721Z"/></svg>