<svg id="Layer_1" data-name="Layer 1" xmlns="http://www.w3.org/2000/svg" xmlns:xlink="http://www.w3.org/1999/xlink" viewBox="0 0 2000 2000"><defs><style>.cls-1{fill:none;}.cls-2{fill:#aed76a;}.cls-3{clip-path:url(#clip-path);}.cls-4{fill:#fecfae;}.cls-5{fill:#a07775;}.cls-6{fill:#b79c86;}.cls-7{fill:#d6ba9d;}.cls-8{fill:#8c383b;}.cls-9{fill:#a5606b;}.cls-10{fill:#8f534a;}.cls-11{fill:#523028;}.cls-12{fill:#7a2c32;}.cls-13{fill:#8bbc38;}.cls-14{fill:#965d59;}.cls-15{fill:#77a22f;}.cls-16{clip-path:url(#clip-path-2);}.cls-17{fill:#bf975d;}.cls-18{fill:#d6b58e;}.cls-19{clip-path:url(#clip-path-3);}.cls-20{clip-path:url(#clip-path-4);}</style><clipPath id="clip-path"><path class="cls-1" d="M1783.71,1173.1c-29.06-40.44-161-299.8-744.4-258.67-678.42,47.84-924.46,281.47-843,462.92,106.3,236.77,547.8,150.08,605.08,196.31s713.13,231,940.72-37.9C1863.55,1392.26,1800.71,1196.77,1783.71,1173.1Z"/></clipPath><clipPath id="clip-path-2"><path class="cls-1" d="M1395,556.43s111.38-88.2,95.25-199.77c-11.86-82.07,17.29-45.13,21.43-27.46s11.7,82.63,30.62,77.2,18.57-91.65,42-56.59,29.06,196.06-97.35,382.28Z"/></clipPath><clipPath id="clip-path-3"><path class="cls-1" d="M1589.91,883.43c8.7,7.26,34,3.86,38.47,14.27,5.85,13.67,9.68,29.08-2.76,29.19-22.37.19-41.68,18.4-41.68,18.4s37.93,52.75,1.13,59.84-49.86,6.85-40.27,20c4.28,5.84-20.93,1.1-6.39-28.08,16-32.16,36.86-56.73-1.29-50.84-16.56,2.57-31.85,5.9-43.84,8.85a54.69,54.69,0,0,1-44.67-8.51l-.5-.36c-16.43-11.58-32.76-19.15-44.55,2.54s-56.25,39.68-77.65,35.77-28.25-19.21-28.25-19.21l-15.06,14.24s-42.33-56.33,0-53.42,73.33-23.64,90.78-27.67,105.61,20.15,114.2-14.65c5-20.42-3.64-39.67-11.67-52.08a22.73,22.73,0,0,1,2.67-28.09c14.17-14.77,34.88-37.11,39.33-45.93,6.9-13.68-15.76-25.84-15.76-25.84s-26.79-41.48,3.87-19.07,19.15,31.87,34,55.76,22.34,11.67,41.35,37.62,16.13,36.33,17.94,50.33C1600.08,862.87,1585.87,880.06,1589.91,883.43Z"/></clipPath><clipPath id="clip-path-4"><path class="cls-1" d="M879,1246.58c2.27-.58,4.65-1.18,7.14-1.78,0,0-12-92.21,88.74-94.23,99.7-2,95.47,104.72,95.47,104.72s26-42.65,69.91-15.06c35.87,21,23.25,62.17-1.07,84.58,0,0,68.38,107.88-150.16,59.74-1.44.12-23.63,1.37-23.63,1.37a151.35,151.35,0,0,1-44.46-4.16h0a146,146,0,0,1-73.63-43.66l-.55-.6a44.37,44.37,0,0,1-4.28-5.72C821.69,1299.17,840.43,1256.5,879,1246.58Z"/></clipPath></defs><path class="cls-2" d="M1783.71,1173.1c-29.06-40.44-161-299.8-744.4-258.67-678.42,47.84-924.46,281.47-843,462.92,106.3,236.77,547.8,150.08,605.08,196.31s713.13,231,940.72-37.9C1863.55,1392.26,1800.71,1196.77,1783.71,1173.1Z"/><g class="cls-3"><path class="cls-4" d="M674.24,1210.3s-264,4.1-281.33,132.32,394.7,238.92,394.7,238.92l103.16,186.21,365.45-50.68s-5.41-152.33-191.58-217.15c-168.66-58.73-484.75-68-486.3-150.28-1.28-68.1,282.57-51.28,282.57-51.28S858.08,1108.56,674.24,1210.3Z"/></g><path class="cls-5" d="M1371.73,374.11l-72.29-3.8S1086.56,442,677.84,451.45l82.53,25.86S1337.62,448.3,1371.73,374.11Z"/><polygon class="cls-6" points="1413.13 1113.08 1409.2 904.33 1010.2 1041.2 1024.68 1204.09 1413.13 1113.08"/><path class="cls-7" d="M624.83,1197.38l-3.64-341.26,134.67-189,265.35,352.9,3.46,353.37S779.55,1273.17,624.83,1197.38Z"/><polygon class="cls-6" points="798.83 808.55 764.4 745.54 622.49 924.82 621.27 860.37 768.54 677.14 826.39 807.24 798.83 808.55"/><path class="cls-6" d="M1044.88,1075.61s-27,17.56-52.71-1.72-74.6-81.74-74.6-81.74L798.83,808.55,845.6,744l195.87,319.19Z"/><path class="cls-8" d="M692.86,1015.53c1.17-39.28,34.9-94.74,67.76-119L755.08,885l32.75-.61a28.52,28.52,0,0,1,4-.08c38.08,2.19,83.39,140.83,101.6,210.23,6,22.85,4.19,222.23,4.19,222.23l-200.75-87.76S691.31,1067.87,692.86,1015.53Z"/><path class="cls-9" d="M860.88,1317.51s1.11-199.17-4.19-222.24c-11.51-50.15-63.52-208-101.61-210.23s-97.43,78.85-99,131.19,4,197.89,4,197.89Z"/><path class="cls-10" d="M695,507.75l-222.11,295A38.79,38.79,0,0,0,478,855.45l63,55.51L776.86,609.1Z"/><polygon class="cls-11" points="541.06 910.96 621.87 892.11 792.64 667.39 754.98 637.11 541.06 910.96"/><path class="cls-8" d="M1487.51,945.62s-157.79,53.62-199.29,4.74c0,0,3.45,47.47-119,73S852.13,509.86,852.13,509.86L1251.72,469Z"/><path class="cls-12" d="M1290.32,639.8c-22.9,24.43-56.62,39.83-90.47,37.17-58.27-5.29-99.41-55.1-127.73-101.85l9.6-5.28a236,236,0,0,1,11.49,28.89c16.15,48.35,19.61,112.13-38.94,131.15-20.86,6.49-43.22,6.31-64.64,3.52,3.81.08,11.36,0,15.16-.11,68-2.12,99.69-33.68,86-102.6a243.78,243.78,0,0,0-13-42.48c-1.81-4.5-3.82-9.17-5.92-13.46-2.92-6.26,5.81-11.14,9.6-5.27,31.4,52.62,83,112.75,150.91,99,21.23-4.17,41.42-14.58,57.89-28.67Z"/><path class="cls-12" d="M1401.78,958.67c-35.49,22.58-81.44,25.17-110.46-9.17-12.1-14-19.81-31.44-25-48.81a4.47,4.47,0,0,1,3-5.63c4.39-1.26,6,3.58,7.74,6.45a122.17,122.17,0,0,1,6.63,14c7.73,19.09,11.44,42.94-1,61-16.29,22.91-48.61,26.37-74.56,25.83,29.4-3.28,70.81-11.33,74.43-46.79,1.4-15.7-4-31.46-11-45.41-1.4-2.76-3-5.69-4.65-8.25l8.05-3.73c7.88,25.89,21.1,52.49,46.23,65s55.94,6.94,80.66-4.43Z"/><path class="cls-13" d="M1269.91,623.08a19,19,0,0,0-7.06,15.09c.19,9.86-6.41,2.93-16,9s-8.29,5.17-20.47,9.2-7.07-9.17-26.38-5.42-15.91-17.72-29.26-8.46-20.28.52-24.22-6.6-9.15-14.62-9.15-14.62,3.15,38.19,36.32,43.2,72.41,6.64,84.5-2,15-8,27.32-8.44,19.25-6.11,14.07-9.11A178.61,178.61,0,0,1,1269.91,623.08Z"/><path class="cls-8" d="M842.69,1309.56,842,1089.5l-13.91-46.34L820.05,1248l-23.92-12.59,13.32-256.06a957.65,957.65,0,0,0-24.32,132.8c-8,73.11-5.58,161.05-5.58,161.05s-20.17-81.59-14.07-118.93,18.33-216,18.33-216L755,925.88l-23,314-10.83-24.26,6.36-301.54-19.87,11.75L694.92,1184.3l-3.7-196.5L675,1002,672,1229.42Z"/><path class="cls-12" d="M1229.61,866.87c-70.37,14.23-126.31-47.23-159.18-102l9.52-5.19c9.26,19.58,16.64,40.1,20.67,61.42a145.11,145.11,0,0,1,1,49.15c-3.26,19.29-13.62,38.2-31.2,48-2,1.28-5.18,2.8-7.27,3.91-2.11.88-5.41,2.46-7.58,3.18-22.68,8.53-47.88,8.68-71.52,4.82,20.81.75,42.34-.68,61.95-7.83a89.24,89.24,0,0,0,10.61-4.53l3.4-1.75,3.27-2,1.64-1,1.56-1.09c2.47-1.61,5.2-3.79,7.47-5.62,12.12-11.67,18-28.6,18.75-45.19.06-1.23.22-4.56.27-5.76.45-21.22-4.2-42.22-11.2-62.19a281.74,281.74,0,0,0-11.6-28.81c-2.92-6.23,5.76-11.09,9.52-5.19,31.7,53.67,81,113.61,149.88,107.59Z"/><path class="cls-12" d="M1463.14,788.17c-25.52,30.47-68.61,45.91-107.75,37.85-29.41-6.2-54.87-24.23-75.65-45.28a264.3,264.3,0,0,1-43.93-60.55l9.18-4.73a34.38,34.38,0,0,0,1.7,3.28l-9,4.84a28.84,28.84,0,0,0-1.7-3.23l9-4.69c14.93,34.77,26.74,74.17,17.27,112A85.26,85.26,0,0,1,1245,861.34l2.44-4a92.91,92.91,0,0,0,10.95-30.52c4.11-24.44-.88-49.34-8.63-72.57a335.92,335.92,0,0,0-14-34.39,5.06,5.06,0,0,1,8.89-4.8,39.18,39.18,0,0,1,2.46,4.46,5.11,5.11,0,0,1-8.93,4.91,39.91,39.91,0,0,1-2.44-4.38c-2.86-6,5.63-10.64,9.1-4.87a281.09,281.09,0,0,0,18.34,28.73c24.92,34,59.38,67.57,102.32,75.15,35.09,5.28,71.36-6.6,97.66-30.85Z"/><polygon class="cls-7" points="1413.13 1113.08 1024.68 1204.09 957.94 1179.94 957.94 1230.41 1052.89 1255.98 1429.82 1146.58 1453.49 1116.97 1413.13 1113.08"/><path class="cls-6" d="M1025.12,1227.76l2.7,143.25,404.38-123.47a29.22,29.22,0,0,0,20.67-27.76l.62-102.81Z"/><path class="cls-10" d="M700.93,555.83s140.9,357.39,304,492.44a45.7,45.7,0,0,0,37,9.72l17.6-3.08L778.71,556.05Z"/><path class="cls-10" d="M1158.2,460.56s154.7,403.32,288.7,485.62c14.77,9.07,31.06,9.29,44.24,7l10.28-1.94-283-500.37Z"/><path class="cls-11" d="M778.71,556.05s134.81,324.33,280.87,498.86l113.31-24a19.26,19.26,0,0,0,11.12-30.8c-51-64.25-188-249.15-265.45-470.38Z"/><path class="cls-11" d="M1216.54,483.56s109.35,282,239.84,453.7a40.22,40.22,0,0,0,41.4,14.84l104.27-25a28.43,28.43,0,0,0,15.4-45.63c-39.2-47.83-116.87-161-253-424.79Z"/><path class="cls-11" d="M750.73,462l-44.79,45.23,37.8,55s465.34-3.69,620.67-105.53l7.32-82.57S1112.14,461.43,750.73,462Z"/><polygon class="cls-14" points="743.76 563.05 674.97 539.79 677.84 451.45 750.73 462.02 743.76 563.05"/><path class="cls-13" d="M1570.52,586.29a20.87,20.87,0,0,0-36.49,3c-5,11.27-7,25.72,2.75,40.51,21.09,32,57.22,96.09,57.22,96.09S1600.14,630.94,1570.52,586.29Z"/><path class="cls-11" d="M1395,556.43s111.38-88.2,95.25-199.77c-11.86-82.07,17.29-45.13,21.43-27.46s11.7,82.63,30.62,77.2,18.57-91.65,42-56.59,29.06,196.06-97.35,382.28Z"/><path class="cls-13" d="M1560.16,539.3a20.87,20.87,0,0,1,17.4-32.22c12.32-.05,26.36,3.9,36,18.75,20.9,32.15,65.12,90.92,65.12,90.92S1589.2,584.32,1560.16,539.3Z"/><path class="cls-2" d="M1546.11,509.32a14.17,14.17,0,0,1,24.86.19c4,7.38,6,17.06.2,27.57-12.65,22.76-33.85,68-33.85,68S1528.33,541.05,1546.11,509.32Z"/><path class="cls-13" d="M1230.43,848.39s-7.61-13.49-23.47-10.09-20.17,3.44-21.82-8.3-10.27-11.64-16.05-10.4-31.47-9.7-31.47-9.7-25.89-4.89-17.29,2,24.05,11.18,31.85,22.53c5.59,8.13,39,21.37,57.52,28.23,7.54,2.79,14.85-.7,22.66-2.63,7.59-1.87,7.87,2.82,10.81,1.89C1248.77,860.11,1257.94,838,1230.43,848.39Z"/><path class="cls-13" d="M1036.91,731.64a8.52,8.52,0,0,1-1.77-5.77c.23-5.15,2.06-15.61,13-16.67,14.54-1.41,5.09-9,9.58-15.22a16.21,16.21,0,0,1,11.7-6.44h0s-11.25-12.85.31-18.5-15.12-14.77,4-23c13-5.58,10.58-13.19,7.7-17.49a25.58,25.58,0,0,1-4.55-14.77c.12-5,1.75-10,7.4-11.52h0s.3-26.44-3.11-36.22l1.52,3.09s18.27,31.3,11.33,68,4.18,40.47-23.88,71.76C1046.73,735,1040.27,735.8,1036.91,731.64Z"/><path class="cls-15" d="M870.55,466.33s-10.86,35.36-38.84,26.95,22.94-29.21.1-27.1-55.9,11.89-61.68,8.47-23.78,1.69-25.14-5.23-6.5-17.82,15.62-14.2,41.08,9.23,38.7,3.34-4.08-11.43,8-7.23,17.94,10.1,23.84,3.9,19.39-4.45,31.85-6.11,20.39-.93,22.81,2.17,19.36,2.13,24.22-2,28-5.78,29.4.12-3.55,21.89-17,17.11-23.5-3.11-23.53,3.47-5.94,16.6-14.56,10-12.05-14.47-13.78-13.66Z"/><path class="cls-13" d="M1089.83,439.88a26.32,26.32,0,0,1-11.27-.74c-4-1.19-7.28-3.32-2.45-6.93,8.8-6.56,12.44-9.27,21.47-6.33s14.76,1.95,23.72-2.53,19.18-9.09,22.51-5.79,4.63,1.07,13.54-.82,21.22-10.54,23.52-6.27,4.51-1.33,21.83-.74,22,4.89,31.62-3.1,25-9,18.43,1.88-12.65,13.79-28.25,11.29-27.84-3.13-23.28,2,5.76,9-4.35,6.69-17.15-10-18.09-5,14.19,10.4-3.54,9.24-18.62-8.47-24.19-4.34,10.16,8.54-6.33,9-24-6-30.81-2.78C1109,437,1096.5,439,1089.83,439.88Z"/><g class="cls-16"><path class="cls-10" d="M1554.15,388.54s-20.19,39.1-21.48,56.39-32.37,123-96.36,179.35c0,0,61.49-76.11,65.2-105.51s28.7-119.47,28.7-119.47Z"/><path class="cls-10" d="M1461.29,657.92s39.28-57.68,42.61-74.94c0,0,2,13.06-3.63,22.62s-13,13-13.15,19.94S1474.1,641.68,1461.29,657.92Z"/></g><ellipse class="cls-17" cx="704.59" cy="1100.56" rx="19.56" ry="22.65" transform="translate(-519.43 1558.23) rotate(-77.87)"/><path class="cls-15" d="M1589.91,883.43c8.7,7.26,34,3.86,38.47,14.27,5.85,13.67,9.68,29.08-2.76,29.19-22.37.19-41.68,18.4-41.68,18.4s37.93,52.75,1.13,59.84-49.86,6.85-40.27,20c4.28,5.84-20.93,1.1-6.39-28.08,16-32.16,36.86-56.73-1.29-50.84-16.56,2.57-31.85,5.9-43.84,8.85a54.69,54.69,0,0,1-44.67-8.51l-.5-.36c-16.43-11.58-32.76-19.15-44.55,2.54s-56.25,39.68-77.65,35.77-28.25-19.21-28.25-19.21l-15.06,14.24s-42.33-56.33,0-53.42,73.33-23.64,90.78-27.67,105.61,20.15,114.2-14.65c5-20.42-3.64-39.67-11.67-52.08a22.73,22.73,0,0,1,2.67-28.09c14.17-14.77,34.88-37.11,39.33-45.93,6.9-13.68-15.76-25.84-15.76-25.84s-26.79-41.48,3.87-19.07,19.15,31.87,34,55.76,22.34,11.67,41.35,37.62,16.13,36.33,17.94,50.33C1600.08,862.87,1585.87,880.06,1589.91,883.43Z"/><ellipse class="cls-18" cx="699.54" cy="1093.38" rx="7.21" ry="8.35" transform="translate(-516.39 1547.62) rotate(-77.87)"/><path class="cls-11" d="M716.67,703.52s-39.2-31.4-52.24-43.18c0,0,27.89,50.15,36.93,54.46S716.67,703.52,716.67,703.52Z"/><path class="cls-11" d="M696.74,729.15s-33-20.56-35.51-25.4S687.36,744,687.36,744Z"/><polygon class="cls-11" points="608.02 847.08 575.67 817.78 592.86 865.25 608.02 847.08"/><path class="cls-15" d="M879,1246.58c2.27-.58,4.65-1.18,7.14-1.78,0,0-12-92.21,88.74-94.23,99.7-2,95.47,104.72,95.47,104.72s26-42.65,69.91-15.06c35.87,21,23.25,62.17-1.07,84.58,0,0,68.38,107.88-150.16,59.74-1.44.12-23.63,1.37-23.63,1.37a151.35,151.35,0,0,1-44.46-4.16h0a146,146,0,0,1-73.63-43.66l-.55-.6a44.37,44.37,0,0,1-4.28-5.72C821.69,1299.17,840.43,1256.5,879,1246.58Z"/><g class="cls-19"><path class="cls-13" d="M1517.88,757.65s9.16,27.84-6.92,42.52,8.62,51.06,6.06,56,8,61.52-30,63.07S1394.76,889,1373.35,898.4,1517.88,757.65,1517.88,757.65Z"/></g><g class="cls-20"><path class="cls-13" d="M1070.33,1255.29s-42.54-84.46-104.42-59.22c-82.68,33.74-38.26,79.59-38.26,79.59s-118.77.76-21.36,101.7S743,1317.06,743,1317.06l113.38-178,160.35-55.95,57.75,61.59S1081.55,1223.56,1070.33,1255.29Z"/></g></svg>