<svg id="Layer_1" data-name="Layer 1" xmlns="http://www.w3.org/2000/svg" xmlns:xlink="http://www.w3.org/1999/xlink" viewBox="0 0 2000 2000"><defs><style>.cls-1{fill:none;}.cls-2{fill:#aed76a;}.cls-3{clip-path:url(#clip-path);}.cls-4{fill:#fdcfac;}.cls-5{fill:#8bbc38;}.cls-6{fill:#523028;}.cls-7{clip-path:url(#clip-path-2);}.cls-8{fill:#8f534a;}.cls-9{fill:#d6ba9d;}.cls-10{fill:#b79c86;}.cls-11{fill:#a07775;}.cls-12{fill:#5b3932;}.cls-13{fill:#a5606b;}.cls-14{fill:#8c383b;}.cls-15{fill:#77a22f;}.cls-16{fill:#7a2c32;}.cls-17{fill:#1e1713;}.cls-18{fill:#9e5f59;}.cls-19{fill:#965d59;}.cls-20{clip-path:url(#clip-path-3);}.cls-21{clip-path:url(#clip-path-4);}.cls-22{fill:#603d38;}.cls-23{clip-path:url(#clip-path-5);}.cls-24{fill:#914047;}.cls-25{fill:#d19857;}.cls-26{clip-path:url(#clip-path-6);}.cls-27{fill:#afd86a;}</style><clipPath id="clip-path"><path class="cls-1" d="M567.6,1112.25c-90-11.13-182.31,3.66-257.58,43.59-106.09,56.28-200,152.32-122.24,306.74,147.42,292.65,326.64,396.12,690.33,362.8s620.72-298,708.22-266.37,358.55-52.38,250-245.09c-55.67-98.81-507.78-377.47-903.65-261.89C728.53,1111.62,622.46,1119,567.6,1112.25Z"/></clipPath><clipPath id="clip-path-2"><path class="cls-1" d="M965,423.55s-98.11-77.69-83.9-176c10.45-72.28-15.23-39.75-18.87-24.18s-10.31,72.78-27,68-16.35-80.73-37-49.85S772.61,414.25,884,578.27Z"/></clipPath><clipPath id="clip-path-3"><path class="cls-1" d="M841.57,667.23c-5.59,4.85-22.18,2.94-25,9.8-3.65,9-6,19.12,2.17,19,14.62-.15,27.47,11.52,27.47,11.52s-24.14,34.94,0,39.13,32.67,3.86,26.56,12.54c-2.72,3.88,13.7.47,3.84-18.43-10.87-20.82-24.79-36.63.21-33.24,10.86,1.47,20.89,3.46,28.77,5.24a35.73,35.73,0,0,0,29.09-6.11l.33-.24c10.59-7.77,21.17-12.92,29.15,1.11s37.25,25.24,51.19,22.43,18.24-12.91,18.24-12.91l10,9.12s27-37.34-.64-34.92-48.23-14.54-59.68-17-68.79,14.47-74.83-8.16c-3.55-13.29,1.89-26,7-34.19a14.85,14.85,0,0,0-2.09-18.33c-9.44-9.48-23.25-23.83-26.27-29.54-4.68-8.86,10-17.09,10-17.09s17-27.44-2.76-12.41-12.13,21.06-21.53,36.87-14.45,7.9-26.56,25.09-10.1,23.95-11.11,33.12C834.67,653.91,844.17,665,841.57,667.23Z"/></clipPath><clipPath id="clip-path-4"><polygon class="cls-1" points="1014.08 1552.84 538.95 1387.7 503.03 1118.73 524.48 980.04 675.63 810.54 1002.44 1259.27 1047.37 1352.84 1041.37 1450.88 1014.08 1552.84"/></clipPath><clipPath id="clip-path-5"><polygon class="cls-1" points="1014.97 1552.84 539.84 1387.7 503.93 1118.73 525.37 980.04 676.52 810.54 1003.33 1259.27 1048.27 1352.84 1042.27 1450.88 1014.97 1552.84"/></clipPath><clipPath id="clip-path-6"><path class="cls-1" d="M948.18,955.54s70.57,37,88.41,73.58,22.89,44.05,39.93,34.39,51.8,24.29,49.55,28.08-30.61,12.18-23.63,24,17.54,14.14,26,21.63,27,10.55,15.62,27.4-14.52,17.93,2.91,33.07,62.59,9.74,71.19,19.47,32,21.72,21.35,46,9.46,40,22.15,40.78,5.28,17,0,25.68-28.16,19.93-38.4,17.54-40.69-22.94-67.23-46.73S948.18,955.54,948.18,955.54Z"/></clipPath></defs><path class="cls-2" d="M567.6,1112.25c-90-11.13-182.31,3.66-257.58,43.59-106.09,56.28-200,152.32-122.24,306.74,147.42,292.65,326.64,396.12,690.33,362.8s620.72-298,708.22-266.37,358.55-52.38,250-245.09c-55.67-98.81-507.78-377.47-903.65-261.89C728.53,1111.62,622.46,1119,567.6,1112.25Z"/><g class="cls-3"><path class="cls-4" d="M696.42,1443.65S464.11,1503.47,469,1580.33c6.51,101.78,87.7,117.86,204.13,113.27s219.63,133.27,165.61,208.34,315.57-64.34,315.57-64.34-156.84-70.92-220.73-144c-128.71-147.23-379.17-20.69-371.52-119.49,3.58-46.13,214.48-31.84,248.7-81.5S759.5,1374.48,696.42,1443.65Z"/></g><path class="cls-5" d="M810.36,449.85a18.39,18.39,0,0,1,32.15,2.67c4.38,9.92,6.15,22.65-2.43,35.68-18.57,28.21-50.39,84.64-50.39,84.64S784.28,489.17,810.36,449.85Z"/><path class="cls-6" d="M965,423.55s-98.11-77.69-83.9-176c10.45-72.28-15.23-39.75-18.87-24.18s-10.31,72.78-27,68-16.35-80.73-37-49.85S772.61,414.25,884,578.27Z"/><path class="cls-5" d="M819.49,408.46a18.39,18.39,0,0,0-15.33-28.38c-10.85,0-23.22,3.44-31.72,16.52-18.4,28.32-57.35,80.08-57.35,80.08S793.91,448.12,819.49,408.46Z"/><path class="cls-2" d="M831.86,382.05a12.48,12.48,0,0,0-21.89.17c-3.48,6.5-5.33,15-.18,24.28,11.14,20.05,29.81,59.88,29.81,59.88S847.52,410,831.86,382.05Z"/><g class="cls-7"><path class="cls-8" d="M824.78,275.67s17.78,34.45,18.92,49.67,28.51,108.32,84.88,158c0,0-54.16-67-57.43-92.93s-25.28-105.23-25.28-105.23Z"/><path class="cls-8" d="M906.57,512.94s-34.59-50.8-37.53-66c0,0-1.77,11.5,3.2,19.93s11.5,11.5,11.58,17.56S895.29,498.64,906.57,512.94Z"/></g><polygon class="cls-9" points="1111.46 1546.37 1472.28 1370.74 1481.56 1089.63 1048.14 1236.92 1111.46 1546.37"/><path class="cls-10" d="M1463,1117.71l-165.14-5.86-48.42,64.84c-3.91-3.9-6.22-6.16-6.22-6.16l-197.61,31.18,71,252.23s101.1-54.12,136-94c31.09-35.45,45.23-73.54,45.23-73.54s31.12,13.54,51.81,11.24a2.62,2.62,0,0,0,1.63-.7c6.81-3.08,32.85-16.38,34.85-40.71,2.3-28,83.72-10.39,104.67-28.78S1463,1117.71,1463,1117.71Z"/><polygon class="cls-6" points="1462.98 1111.68 1462.98 1375.79 1489.78 1385.8 1518.62 1249.6 1484.92 1103 1462.98 1111.68"/><path class="cls-8" d="M1489.78,1385.8l42-26.41a27,27,0,0,0,12.62-22.44l2.3-234-56.94,38.6Z"/><polygon class="cls-10" points="1014.9 1554.49 539.72 1386.68 503.8 1117.71 525.25 979.02 676.4 809.52 1003.2 1258.25 1048.14 1351.82 1042.14 1449.86 1014.9 1554.49"/><polygon class="cls-8" points="521.16 1401.49 542.62 1389.74 543.63 1135.31 521.16 1135.31 521.16 1401.49"/><path class="cls-6" d="M464,1113.18v248.87a25.3,25.3,0,0,0,16.17,23.59l41,15.85V1128.84Z"/><polygon class="cls-6" points="1010.35 1347.47 1014.95 1556.58 1073.93 1580.33 1073.93 1351.31 1010.35 1347.47"/><polygon class="cls-8" points="1073.93 1580.33 1128.4 1543.08 1130.86 1371.11 1073.93 1359.99 1073.93 1580.33"/><polygon class="cls-11" points="463.97 1122.49 964.27 1258.25 899.03 1153.52 492.14 1051.33 463.97 1122.49"/><polygon class="cls-12" points="469.04 1125.18 964.27 1273.73 899.03 1169.01 491.94 1067.33 469.04 1125.18"/><path class="cls-13" d="M1227.88,1347.48s63.74-13,55.36-102.9c0,0,82.14,52.09,86.42-34.72,0,0,99.66,15.49,86.44-49.35,0,0,94.51,28.92,92-32.86S1348,813.6,1348,813.6L943,596.07,743.8,731.46Z"/><path class="cls-14" d="M1183.19,1190.76a68.19,68.19,0,0,0,30.06-13.7c27-21.9,20.7-60.78,11.51-90.22-1.9-6.68,7.5-10.07,10.31-3.7.88,2.16,2,4.54,3.07,6.69,7.51,14.59,17.65,30.88,33,37.85,16.64,7.52,33.65-4.14,45.35-15.63,1.52-1.5,4-4,5.51-5.57a92.73,92.73,0,0,1-9.19,12.86c-7.13,8.27-16.28,15.58-27.31,17.59-23.72,4.11-42.24-16.68-53.17-35.08a120.13,120.13,0,0,1-7.45-14.61l10.31-3.71c9.1,28.71,13.89,65.32-8.28,89.45-11.11,11.79-27.67,18.13-43.74,17.78Z"/><path class="cls-14" d="M1349.34,1256.28c25.64-35.78,15.28-81.73,3.44-120.81a2.92,2.92,0,0,1,1.72-4.08,2.83,2.83,0,0,1,3.46,1.69c.61,1.58,1.17,3.18,1.74,4.79s1.18,3.42,1.59,5.13a1.66,1.66,0,0,1-3.14,1,56.08,56.08,0,0,1-2.74-9.67c.94,1.43,1.84,2.86,2.8,4.25.79,1.18,1.64,2.43,2.49,3.57a3,3,0,0,0,.23.26s0,0,0,0l-.06-.08a1.62,1.62,0,0,0-2.76,1.43s0,.06,0,0c-.13-.18-.36-.6-.49-.79-.41-.7-1.56-2.45-2-3.15l-2.73-4.22,5.18-2.4c20.67,36.78,30,94.73-8.7,123Z"/><path class="cls-14" d="M1313.74,1117.71c27.26-35.11,14.41-83-2.61-119.77-2.75-6.45,6.27-10.94,9.77-4.88l2.43,4.5a41.3,41.3,0,0,1,2.63,5.55,5.52,5.52,0,0,1-9.76,4.75c-.21-.26-.43-.63-.61-.91a97,97,0,0,1-4.49-9.09c-2.6-6.42,6.32-10.77,9.8-4.8a167.14,167.14,0,0,0,16.93,25.66c13.22,16,32.68,34.1,55,31.47,8.41-1.23,16.06-5.08,23.22-9.71-9.64,9.81-23,16.86-37.12,14.94-29.42-3.89-54-32.55-67.58-57.15l9.8-4.8c1,2.16,2,4.33,3.12,6.41.23.4.62,1.14.85,1.5l0-.07a5.51,5.51,0,0,0-9,.42,5.42,5.42,0,0,0-.5,4.68c-.22-.46-.55-1.16-.77-1.6-.73-1.45-2.64-5.07-3.42-6.53l9.77-4.89c17.65,38.3,28,92.87-7.33,124.32Z"/><path class="cls-14" d="M833.73,894.63a68.15,68.15,0,0,0,30-13.7c27-21.9,20.7-60.78,11.51-90.21-1.9-6.69,7.5-10.08,10.31-3.71.88,2.16,2,4.54,3.07,6.69,7.51,14.59,17.65,30.88,33,37.85,16.64,7.53,33.65-4.14,45.35-15.63,1.52-1.5,4-4,5.51-5.57a91.9,91.9,0,0,1-9.19,12.86c-7.13,8.27-16.27,15.58-27.31,17.59-23.72,4.11-42.23-16.68-53.16-35.08a118.78,118.78,0,0,1-7.46-14.61l10.31-3.71c9.1,28.71,13.89,65.32-8.28,89.45-11.11,11.79-27.67,18.13-43.73,17.78Z"/><path class="cls-14" d="M964.27,821.58c27.26-35.11,14.41-83-2.61-119.77-2.75-6.45,6.27-10.94,9.77-4.88l2.43,4.5a40.11,40.11,0,0,1,2.63,5.55,5.52,5.52,0,0,1-9.76,4.76c-.21-.27-.43-.64-.61-.92a97,97,0,0,1-4.49-9.09c-2.6-6.42,6.32-10.77,9.8-4.8a167.14,167.14,0,0,0,16.93,25.66c13.23,16,32.68,34.11,55,31.47,8.4-1.23,16-5.08,23.21-9.71-9.63,9.81-23,16.86-37.12,14.94-29.42-3.89-54-32.54-67.58-57.15l9.8-4.8c1,2.16,2,4.33,3.13,6.42.22.39.62,1.13.85,1.49l-.05-.07a5.51,5.51,0,0,0-9,.42,5.42,5.42,0,0,0-.5,4.68c-.21-.46-.54-1.16-.77-1.6-.72-1.45-2.64-5.07-3.42-6.53l9.77-4.89c17.66,38.3,28,92.87-7.33,124.32Z"/><path class="cls-14" d="M835.22,769.85a68.14,68.14,0,0,0,30-13.69c27-21.9,20.7-60.79,11.51-90.22-1.9-6.69,7.5-10.08,10.31-3.7.88,2.16,2,4.54,3.07,6.68,7.52,14.6,17.65,30.89,33,37.86,16.64,7.52,33.65-4.14,45.35-15.64,1.52-1.49,4-4,5.52-5.57a92.89,92.89,0,0,1-9.2,12.87C957.73,706.7,948.58,714,937.54,716c-23.71,4.11-42.23-16.68-53.16-35.07a120.33,120.33,0,0,1-7.46-14.62l10.31-3.7c9.1,28.7,13.89,65.31-8.28,89.45-11.11,11.78-27.67,18.13-43.73,17.77Z"/><path class="cls-14" d="M965.76,696.81c27.26-35.11,14.41-83-2.61-119.78-2.75-6.44,6.27-10.94,9.78-4.88l2.42,4.5A42,42,0,0,1,978,582.2a5.53,5.53,0,0,1-9.77,4.76,10.33,10.33,0,0,1-.6-.92,94.56,94.56,0,0,1-4.5-9.08c-2.6-6.42,6.32-10.77,9.8-4.8a167.63,167.63,0,0,0,16.93,25.66c13.23,16,32.68,34.1,55,31.46,8.4-1.23,16-5.08,23.22-9.71-9.64,9.82-23,16.87-37.13,14.94-29.42-3.88-54-32.54-67.57-57.14l9.79-4.81c1,2.17,2,4.34,3.13,6.42.22.4.62,1.14.85,1.5l-.05-.07a5.51,5.51,0,0,0-9,.42,5.41,5.41,0,0,0-.5,4.68c-.21-.46-.54-1.16-.76-1.6-.73-1.46-2.64-5.08-3.43-6.54l9.77-4.89c17.66,38.31,28,92.88-7.33,124.33Z"/><path class="cls-14" d="M1118.68,1125.18c27.26-35.11,14.41-83-2.62-119.77-2.74-6.45,6.27-10.94,9.78-4.88l2.43,4.5a42.55,42.55,0,0,1,2.63,5.55,5.52,5.52,0,0,1-9.76,4.76,10.46,10.46,0,0,1-.61-.92,94.64,94.64,0,0,1-4.49-9.09c-2.6-6.42,6.31-10.77,9.79-4.8a168.63,168.63,0,0,0,16.93,25.66c13.23,16,32.69,34.11,55,31.47,8.41-1.23,16-5.08,23.22-9.71-9.64,9.81-23,16.86-37.13,14.94-29.41-3.89-54-32.54-67.57-57.15l9.79-4.8c1,2.16,2,4.33,3.13,6.42.22.39.62,1.13.85,1.49l0-.07a5.51,5.51,0,0,0-9,.42,5.45,5.45,0,0,0-.5,4.68c-.21-.46-.54-1.16-.76-1.6-.73-1.45-2.64-5.07-3.43-6.53l9.77-4.89c17.66,38.3,28,92.87-7.32,124.32Z"/><path class="cls-14" d="M1217.53,1052.71c27.26-35.11,14.41-83-2.61-119.77-2.75-6.45,6.27-10.94,9.77-4.88l2.43,4.5a41.18,41.18,0,0,1,2.63,5.54,5.52,5.52,0,0,1-9.76,4.76,9.78,9.78,0,0,1-.61-.92,95.67,95.67,0,0,1-4.49-9.08c-2.6-6.42,6.32-10.77,9.8-4.8a167.14,167.14,0,0,0,16.93,25.66c13.22,16,32.68,34.1,55,31.47,8.41-1.23,16.06-5.08,23.22-9.71-9.64,9.81-23,16.86-37.12,14.93-29.42-3.88-54-32.54-67.58-57.14l9.8-4.81c1,2.17,2,4.34,3.12,6.42.23.4.62,1.14.85,1.5l0-.07a5.51,5.51,0,0,0-9,.42,5.42,5.42,0,0,0-.5,4.68c-.22-.46-.55-1.16-.77-1.6-.73-1.45-2.64-5.07-3.42-6.54l9.77-4.88c17.65,38.3,28,92.87-7.33,124.32Z"/><path class="cls-14" d="M977.92,1044.24c27.25-35.1,14.4-83-2.62-119.77-2.75-6.44,6.27-10.94,9.78-4.88l2.42,4.5a42,42,0,0,1,2.64,5.55,5.53,5.53,0,0,1-9.77,4.76c-.21-.27-.42-.64-.6-.92a92.19,92.19,0,0,1-4.49-9.08c-2.6-6.42,6.31-10.78,9.79-4.81A167.24,167.24,0,0,0,1002,945.26c13.23,16,32.68,34.1,55,31.46,8.4-1.23,16-5.08,23.22-9.71-9.64,9.82-23,16.87-37.13,14.94-29.41-3.89-54-32.54-67.57-57.14l9.79-4.81c1,2.17,2,4.33,3.13,6.42.22.4.62,1.13.85,1.5l0-.07a5.47,5.47,0,0,0-9.54,5.1c-.21-.47-.54-1.17-.76-1.6-.73-1.46-2.64-5.08-3.43-6.54l9.77-4.89c17.66,38.31,28,92.88-7.32,124.32Z"/><path class="cls-14" d="M1436.15,1195.32c7.54-33.89-7.42-66.36-21-96.7-2.54-6.15,6-10.48,9.44-4.81l3.12,4.93a49.45,49.45,0,0,1,3.15,5.72,5.44,5.44,0,0,1-9.32,5.48,69,69,0,0,1-6.43-11,5.49,5.49,0,0,1,9.67-5.18c10.44,17.82,23.74,34.89,41.71,45.45a76.38,76.38,0,0,0,10.31,5,49.86,49.86,0,0,0,22.55,2.58,48.08,48.08,0,0,0,25.12-11c-13.21,17.52-38.36,21.78-58.16,13-22.48-9.57-39-28.78-51-49.45l9.67-5.18a59.3,59.3,0,0,0,5.29,9.31l-9.32,5.49a104.66,104.66,0,0,0-5.45-9.65l9.43-4.81c12.91,31.25,26.06,68,11.21,100.87Z"/><path class="cls-14" d="M1210.21,1345.75a80,80,0,0,0,47.62-30.56c19-25.77,14.79-61.73,6.12-90.73a188.44,188.44,0,0,0-7.71-20.92,5.16,5.16,0,0,1,9.44-4.17c.47,1.05.93,2.1,1.37,3.15a5.1,5.1,0,0,1-9.26,4.26c-.48-1.06-1-2.12-1.41-3.18-2.39-5.95,6-10,9.12-4.35,7.43,14.17,15.92,28,27,39.5,10.33,10.84,23.66,19.21,38.67,21.43l3.06.42c-12.46,1.25-25.44-2.62-36.11-9.3-18-11.32-31-29-41.51-47.16l9.14-4.32c.33.64.64,1.29.94,1.94l-9.27,4.26c-.34-.66-.66-1.31-1-2l9.3-4.5c15,32,23.89,75.4,6.64,108.15-12.16,22.35-36.85,37.58-62.2,38Z"/><polygon class="cls-6" points="1589.42 1138.37 1548.06 1127.65 1373.7 874.71 1418.64 863.19 1589.42 1138.37"/><polygon class="cls-11" points="1397.93 869.87 1589.42 1138.37 1604.74 1126.11 1587.88 1090.88 1616.99 1115.39 1632.31 1106.2 1446.5 848.18 1397.93 869.87"/><path class="cls-15" d="M948.18,955.54s70.57,37,88.41,73.58,22.89,44.05,39.93,34.39,51.8,24.29,49.55,28.08-30.61,12.18-23.63,24,17.54,14.14,26,21.63,27,10.55,15.62,27.4-14.52,17.93,2.91,33.07,62.59,9.74,71.19,19.47,32,21.72,21.35,46,9.46,40,22.15,40.78,5.28,17,0,25.68-28.16,19.93-38.4,17.54-40.69-22.94-67.23-46.73S948.18,955.54,948.18,955.54Z"/><path class="cls-11" d="M1154.35,1407l36.09-30s-85.87-82.39-95.83-106.13-20.3-38.3-20.3-38.3,47.87,64.34,54.77,68.17,71.23,75.07,71.23,75.07l27.57-28.34L787.47,721.55,685.59,735.66Z"/><path class="cls-6" d="M721.28,745.88,1154.35,1407l-168.51-56.17s-274.72-398-309.44-492.85c0,0-169.54,283.49-264.52,325.37,0,0-44.93-4.09-39.82-16.35s33.7-40.85,33.7-40.85l-63.32,37.79s-49-18.38-47-40.85c0,0,182.81-173.31,315.57-369S721.28,745.88,721.28,745.88Z"/><polygon class="cls-8" points="665.67 768.44 900.25 691.31 909.28 554.62 676.4 600.28 631.81 664.86 665.67 768.44"/><polygon class="cls-11" points="558.44 581.56 950.13 515.59 933.62 554.62 676.4 600.28 558.44 581.56"/><path class="cls-12" d="M558.44,581.56s95-12.3,118,18.72L665.67,768.44l-93.44-28.21Z"/><path class="cls-11" d="M977.92,331.61l47.2-3.37s140,44.23,407.32,45.38l-53.63,17.93S1001.13,379.69,977.92,331.61Z"/><polygon class="cls-10" points="959.96 815.16 959.96 678.66 1222.45 763.22 1214.99 869.87 959.96 815.16"/><path class="cls-9" d="M1474.45,763.72V637.45L1384.1,515.59,1215,749.53V872.84S1415.6,838.6,1474.45,763.72Z"/><polygon class="cls-10" points="1357.75 608.54 1379.48 566.93 1474.45 682.37 1474.45 640.23 1375.93 522.27 1339.72 608.02 1357.75 608.54"/><path class="cls-10" d="M1200.21,786.14s17.88,11.14,34.43-1.78S1282.4,730,1282.4,730L1306,672.31l-44.94,21.52L1202.28,778Z"/><path class="cls-14" d="M1413.55,674.1c-1.24-22.4-24-53.68-45.75-67.18l3.48-6.6h-21.42a22.9,22.9,0,0,0-2.62,0c-24.87,1.66-52.78,81.24-63.83,121-3.64,13.1,0,126.83,0,126.83L1413.55,796S1415.21,703.94,1413.55,674.1Z"/><path class="cls-13" d="M1307.45,848.18s-3.18-113.61,0-126.83c6.9-28.74,39-119.37,63.83-121s64.65,43.94,66.31,73.78,0,121.85,0,121.85Z"/><path class="cls-8" d="M1422,410.64l148.82,190.08a25.37,25.37,0,0,1-2.73,34.53l-40.54,37.06L1369.66,477.9Z"/><polygon class="cls-6" points="1527.51 672.31 1474.45 660.98 1360.06 516.19 1384.31 495.94 1527.51 672.31"/><path class="cls-14" d="M909.28,706.61s103.8,33.11,130.32.65c0,0-1.67,31.07,78.66,46.28s201-339.58,201-339.58l-261.7-21.82Z"/><path class="cls-16" d="M1034.4,504.28c16.48,12.75,38,20.51,58.86,17.1,20.54-3.31,37.68-16.81,51-32.14a228,228,0,0,0,24.08-34.45c3.64-5.89,12.48-1.27,9.69,5.11a165.12,165.12,0,0,0-6.86,17.77c-15.44,49.21-5.73,82,51,83.93,2.42.09,7.48.19,9.92.17-19.7,3.42-42.38,3.87-59.13-8.74-28.64-22.68-17.48-69.14-4.79-97.86l9.69,5.09a208.52,208.52,0,0,1-25.7,36c-15.13,16.56-35.08,30.53-58,32.47-22.29,1.89-44.8-8.16-59.76-24.46Z"/><path class="cls-16" d="M965.47,714.09c26.16,10.34,54.84,9.17,70.42-17.07a96.76,96.76,0,0,0,10.28-24.49l8.12,3.58c-5.88,10.24-10.61,22.34-9.56,34.26,2.56,22.61,29.1,27.32,47.89,29.86-13.08,1-27.19.36-39.2-6-24.18-12.92-18.54-43.06-6.73-62.85a4.48,4.48,0,0,1,8.12,3.58c-5,18.56-15.43,38.25-33.95,46.42-18.05,8-39.47,3.29-55.39-7.27Z"/><path class="cls-5" d="M1047.54,493.1a12.46,12.46,0,0,1,4.8,9.78c0,6.45,4.23,1.84,10.54,5.66s5.49,3.28,13.5,5.76,4.51-6.08,17.18-3.86,10.18-11.79,19-5.9,13.26.09,15.75-4.6,5.8-9.68,5.8-9.68-1.59,25-23.21,28.69-47.25,5.23-55.26-.3-9.88-5-18-5.18-12.66-3.75-9.31-5.78A116.87,116.87,0,0,0,1047.54,493.1Z"/><path class="cls-17" d="M1372.16,643.1c-17.25,1.15-39.12,59.47-46.36,85.17l95.81-32.15C1418.64,673.8,1390.17,641.9,1372.16,643.1Z"/><path class="cls-17" d="M1324.35,828.74l97.48-39.12s.74-41.27.5-70.3l-99,37.55C1323.14,785.29,1324.35,828.74,1324.35,828.74Z"/><path class="cls-14" d="M1421.61,696.12l-95.81,32.15c-.58,2.05-1.07,3.89-1.45,5.48-.68,2.82-1,11.77-1,23.12l99-37.55c-.07-8.47-.22-15.91-.5-21C1421.79,697.62,1421.71,696.88,1421.61,696.12Z"/><polygon class="cls-13" points="1317.89 740.35 1429.52 702.88 1429.52 726.11 1317.89 768.44 1317.89 740.35"/><path class="cls-16" d="M1076.89,652c44.69,1.7,75.14-37.81,95-73.1,3.57-6,12.47-1.35,9.62,5a177.21,177.21,0,0,0-12.11,38.07c-2.83,16.91-3.38,36.61,8.28,50.44a18.52,18.52,0,0,0,3.2,3.18l1.83,1.45c.58.38,2.41,1.69,3,2.07.75.47,2.4,1.41,3.15,1.87l2.18,1.11c11.28,5.65,24.12,7.76,36.73,8.2,3.44.18,6.9.1,10.38.07-13.55,3-27.93,3.72-42,.29a61.35,61.35,0,0,1-15.27-5.92c-26.37-14.39-26.36-49.53-19.89-75.15a177.6,177.6,0,0,1,10.7-30.3l9.62,5c-2.79,4.74-5.7,9.41-8.79,14-20.6,31.07-55.59,62.72-95.63,53.71Z"/><path class="cls-16" d="M923.26,603.4a80.11,80.11,0,0,0,53.43,18.65c32-.9,57.73-26.45,75.2-51.15a186.51,186.51,0,0,0,11.71-19,5.16,5.16,0,0,1,9.11,4.86c-.54,1-1.08,2-1.64,3a5.09,5.09,0,1,1-9.06-4.66c.53-1,1.08-2.06,1.63-3.08,3.21-5.55,11.55-1.45,9,4.5-6.57,14.59-12.19,29.77-14.43,45.63-2.16,14.82-.53,30.48,7,43.66l1.56,2.67c-8.67-9-13.62-21.65-14.94-34.16-2.19-21.16,3.71-42.31,11.52-61.76l9,4.53c-.31.65-.62,1.29-1,1.93l-9.07-4.67q.46-1,1-2l9.27,4.55c-15.92,31.59-44.62,65.31-81,71.91-25.1,4.22-52.31-5.83-68.32-25.49Z"/><polygon class="cls-18" points="933.62 818.2 959.96 815.16 1214.99 869.87 1474.45 770.4 1504.85 770.4 1393.77 847.22 1197.19 904.14 949.46 837.27 933.62 818.2"/><path class="cls-8" d="M1215,979l279.23-138.15a19.09,19.09,0,0,0,10.63-17.12V770.4L1215,885.35S1174.93,963.27,1215,979Z"/><path class="cls-6" d="M1215,885.35V979L949.15,903.29a19.1,19.1,0,0,1-13.86-17.89l-1.67-67.2Z"/><path class="cls-8" d="M1418.64,442.14S1330.94,677.49,1226,767.77a29.89,29.89,0,0,1-24.1,6.81l-11.54-1.8L1367.8,443.25Z"/><path class="cls-8" d="M1118.56,385.5S1022.4,651,935.83,706.48c-9.55,6.11-20.19,6.45-28.83,5.11l-6.75-1.14,178.8-330.56Z"/><path class="cls-6" d="M1367.8,443.25s-84.13,213.65-177.46,329.53L1116,758.51a12.6,12.6,0,0,1-7.65-20c32.52-42.62,119.8-165.17,167.73-310.74Z"/><path class="cls-6" d="M1080.71,401.25s-68,185.66-151.19,299.52A26.31,26.31,0,0,1,902.64,711l-68.46-15.06a18.58,18.58,0,0,1-10.63-29.64c25-31.75,74.41-106.68,160.17-280.78Z"/><path class="cls-6" d="M1384.93,381.43l25.24,30.72-19.44,34.69s-304.22,3.31-407-61.34l-5.8-53.89S1148.68,385.5,1384.93,381.43Z"/><polygon class="cls-19" points="1390.73 447.39 1435.4 431.33 1432.44 373.62 1384.93 381.43 1390.73 447.39"/><path class="cls-5" d="M1076.12,639.89s4.81-8.9,15.22-6.88,13.23,2,14.16-5.7,6.57-7.73,10.37-7,20.44-6.72,20.44-6.72,16.87-3.52,11.33,1.07-15.58,7.6-20.54,15.12c-3.55,5.38-25.24,14.45-37.25,19.16-4.9,1.92-9.72-.28-14.85-1.44-5-1.13-5.11,1.94-7,1.36C1064.28,647.78,1058,633.43,1076.12,639.89Z"/><path class="cls-5" d="M1201.18,561.2a5.6,5.6,0,0,0,1.09-3.8c-.22-3.36-1.54-10.18-8.69-10.73-9.53-.75-3.44-5.82-6.45-9.83a10.6,10.6,0,0,0-7.73-4.07h0s7.19-8.54-.43-12.09,9.7-9.84-2.9-15c-8.55-3.49-7.07-8.49-5.24-11.34a16.74,16.74,0,0,0,2.79-9.71c-.15-3.26-1.27-6.55-5-7.44h0s-.52-17.28,1.58-23.71l-1,2s-11.56,20.69-6.57,44.62-2.24,26.5,16.5,46.61C1194.8,563.52,1199,564,1201.18,561.2Z"/><path class="cls-5" d="M1331.12,1100.73a6,6,0,0,0-3.6-2.2c-3.51-.73-10.86-1.3-13.33,5.92-3.31,9.61-6.89,1.9-11.81,3.86a11.11,11.11,0,0,0-6.23,6.82h0s-6.84-9.84-12.52-3-7.52-12.8-16.15-1.26c-5.86,7.83-10.6,4.89-13,2.19s2.63-5.8-.94-6.62c-3.39-.78-7.61-3.85-13.09-3h0c1.44-6.26-13.76-24.1-19.81-28.1h0c9.86,32.38,38.89,54.85,57.69,54.22,25.93-.87,8.93,6.77,33.38-8.86C1329,1109.64,1333.38,1103.72,1331.12,1100.73Z"/><path class="cls-15" d="M1306.66,385.73s7.53,23,25.72,17.13-15.36-18.81-.4-17.71,36.68,7.09,40.42,4.78,15.57.81,16.37-3.73,4-11.73-10.39-9.09-26.73,6.54-25.25,2.66,2.53-7.52-5.32-4.63S1336.2,382,1332.27,378s-12.73-2.67-20.89-3.61-13.34-.35-14.89,1.71-12.63,1.62-15.86-1-18.39-3.43-19.21.44,2.59,14.26,11.33,11,15.33-2.33,15.43,2,4.09,10.77,9.64,6.35,7.7-9.61,8.84-9.1Z"/><path class="cls-5" d="M1163,371.14a17.24,17.24,0,0,0,7.35-.63c2.58-.82,4.72-2.26,1.52-4.56-5.83-4.18-8.25-5.9-14.11-3.87s-9.63,1.46-15.54-1.36-12.65-5.7-14.78-3.51-3,.76-8.86-.37-14-6.63-15.46-3.81-3-.81-14.28-.21-14.34,3.47-20.7-1.64-16.43-5.57-12,1.46,8.43,8.85,18.6,7,18.16-2.39,15.24,1-3.65,5.94,2.93,4.32,11.09-6.77,11.76-3.47-9.15,7,2.43,6,12.06-5.77,15.76-3.14-6.54,5.71,4.25,5.79,15.6-4.24,20.1-2.19C1150.42,369.47,1158.63,370.61,1163,371.14Z"/><path class="cls-15" d="M841.57,667.23c-5.59,4.85-22.18,2.94-25,9.8-3.65,9-6,19.12,2.17,19,14.62-.15,27.47,11.52,27.47,11.52s-24.14,34.94,0,39.13,32.67,3.86,26.56,12.54c-2.72,3.88,13.7.47,3.84-18.43-10.87-20.82-24.79-36.63.21-33.24,10.86,1.47,20.89,3.46,28.77,5.24a35.73,35.73,0,0,0,29.09-6.11l.33-.24c10.59-7.77,21.17-12.92,29.15,1.11s37.25,25.24,51.19,22.43,18.24-12.91,18.24-12.91l10,9.12s27-37.34-.64-34.92-48.23-14.54-59.68-17-68.79,14.47-74.83-8.16c-3.55-13.29,1.89-26,7-34.19a14.85,14.85,0,0,0-2.09-18.33c-9.44-9.48-23.25-23.83-26.27-29.54-4.68-8.86,10-17.09,10-17.09s17-27.44-2.76-12.41-12.13,21.06-21.53,36.87-14.45,7.9-26.56,25.09-10.1,23.95-11.11,33.12C834.67,653.91,844.17,665,841.57,667.23Z"/><path class="cls-6" d="M1410.17,538.87s25.23-21,33.61-28.87c0,0-17.61,33.13-23.47,36.06S1410.17,538.87,1410.17,538.87Z"/><path class="cls-6" d="M1423.5,555.38s21.31-13.84,22.9-17S1429.82,565,1429.82,565Z"/><g class="cls-20"><path class="cls-5" d="M887.11,584.12s-5.65,18.31,5,27.71-5,33.48-3.26,36.71-4.48,40.31,20.39,40.85,59.93-20.91,74-15S887.11,584.12,887.11,584.12Z"/></g><g class="cls-21"><path class="cls-22" d="M697.08,1455l136.85,54.13V1338.54l-118-63.79-46.39,43.36S624.57,1409,697.08,1455Z"/></g><g class="cls-23"><polygon class="cls-6" points="709.2 1443.73 709.2 1318.79 720.1 1305.86 721.8 1437.94 729.97 1440.33 733.03 1284.07 755.84 1289.86 747.33 1441.01 755.84 1419.22 766.05 1289.52 780.35 1299.05 762.99 1466.88 776.1 1471.18 791.93 1311.65 815.08 1327.99 800.78 1489.01 827.96 1489.01 776.1 1529.52 634.98 1447.08 663.25 1331.73 709.2 1443.73"/></g><path class="cls-13" d="M781.57,1260.11c-80.57-23.83-113.88,12.15-124.6,35.77-10.2,22.46-7,119.69-6.66,129.14a1.92,1.92,0,0,0,.55,1.3c2.56,2.62,14.43,13.56,36.7,16.27h0l.68,3.63,8.17-2.58a2,2,0,0,0,1.4-1.91V1340.46a43.88,43.88,0,0,1,5.1-20.87c5.79-10.74,18.07-22.54,43.92-20.38,43.4,3.64,68.17,40.34,73.53,70.22,5,28,.63,109.11.06,119.14a2,2,0,0,0,.76,1.68c3.29,2.6,16.31,12.17,33.5,15.67a2,2,0,0,1,1.42,1.1l.68,1.46a2,2,0,0,0,2.59,1l7.88-3.44a2,2,0,0,0,1.21-1.81l1.44-136.88a1,1,0,0,0,0-.17C869.68,1364.24,862.78,1284.14,781.57,1260.11Z"/><path class="cls-24" d="M640.76,1428.77s15.06,17.46,47.49,17.46V1343.47a44,44,0,0,1,5.09-20.86c5.8-10.74,18.08-22.55,43.93-20.38,43.4,3.64,68.17,40.33,73.53,70.22s0,120.16,0,120.16,20.6,17.62,46.81,17.62l2.43-125a128.32,128.32,0,0,0-17.76-68.35c-12.66-21.18-34.1-43-70.29-53.73-80.56-23.83-113.87,12.15-124.59,35.76S640.76,1428.77,640.76,1428.77Z"/><path class="cls-25" d="M791,1391.57s-5.79-4-12.66,1-5.13,18,4.36,20.91,13.84-1.41,16.25-9.26S791,1391.57,791,1391.57Zm3.06,10.66c-1.41,4.6-4,7.12-9.51,5.42s-6.57-9.29-2.55-12.24a6.43,6.43,0,0,1,7.41-.59S795.49,1397.63,794.08,1402.23Z"/><g class="cls-26"><path class="cls-5" d="M998.2,987.73s43.3,60.77,47.39,74,23.1,22.22,23.49,21.71,29.61-2.3,27.06,4.85-11.74,12.25-11.74,18.38,3.06,18,19.91,27.65,26.55,8.84,22,17.15-6.09,33.73,2.89,27.37c24.26-17.19,28.43-38.9,34.3-34.81s12.83,51.49,19.73,54-17,6.47-17.44,8,44.46,12.25,55.19,38.63c3.53,8.69,4.56,19.92,6.94,50.56,1,13.43,29.07,7.72,29.07,7.72s36.48-39.93,26.89-49.76-97.32-99.58-108-109.79-61.53-103.66-73.4-113.37S998.2,987.73,998.2,987.73Z"/></g><path class="cls-15" d="M1430.86,1132.76s22.47-16.56,32.77,3.57,11.77,23.08,18.42,20.86,5.23-23,22.91-9.7,28.52,1.32,29,0,15.61-22.16,14-14.73-8.18,34-11.19,42.17-5.22,22.41-31.83,11.57-49.59-29.44-57-24.94-18.81,3.25-25.65-8.69-3.73-26.72-13-42.24-36.54-52.17-32.1-50.14,14,3.7,14.66,10.39c.91,9.95,17,18.16,25.75,26.32,9.57,8.92,13.23,22.47,13.23,35.56Z"/><path class="cls-5" d="M790.16,838s-22.28,6.79-3.13,30,27.2,51.34,25.09,56.15,15.81,29,24.85,36.16,34.51,20.58,35.18,34.32,16,52.24,21.35,58.66,22.21,14,24.51,35.06,11,55.78,24.65,47.26,22.38-16.12,29.88,1.32S992,1160.7,992,1160.7s12.77-3.7-5.73-25-34.6-34.81-21.58-34.1,23-2.64,12.26-13.4-8.35-16.45-27.54-23.23-37.93-22.29-35.45-29,23.92,6.14,7.84-19.52-10-24.86-29.11-36.9S860.69,963,860.24,950s-8.81-29-13.43-36.26-16.06-11.29-27.58-29.31S815.37,838,815.37,838s3.53-14.87-18.92-32.52-40.43-32.71-32.08-14,23.57,29.21,25.79,32.45S790.16,838,790.16,838Z"/><path class="cls-27" d="M969.2,1540.13s-6.82-62.48-21.06-70c0,0,1.27,51-7.83,56.92s-24.75-43.87-24.75-43.87-13.22,36.63.33,52S969.2,1540.13,969.2,1540.13Z"/><path class="cls-27" d="M1419.39,1427.2s-6.82-62.48-21.05-70c0,0,1.26,51-7.83,56.92s-24.76-43.87-24.76-43.87-13.22,36.63.34,52S1419.39,1427.2,1419.39,1427.2Z"/><path class="cls-27" d="M532.4,1411s6.82-62.48,21.05-70c0,0-1.27,51,7.83,56.92S586,1354.06,586,1354.06s13.22,36.63-.34,52S532.4,1411,532.4,1411Z"/><path class="cls-27" d="M956.65,1539.88s20.63-14.65,29.81-27.12c0,0,2.95,46-20.46,42.87C953.87,1554,956.65,1539.88,956.65,1539.88Z"/><path class="cls-27" d="M894.4,1542.92s-45.64-63.91-46.31-116c0,0-18.27,84.54-3.62,106.18S894.4,1542.92,894.4,1542.92Z"/><path class="cls-27" d="M866.58,1522.14l27.79-66.53s12.63,76.21-13.89,78.23S866.58,1522.14,866.58,1522.14Z"/></svg>