<svg xmlns="http://www.w3.org/2000/svg" viewBox="0 0 512 512" width="512" height="512">
	<style>
		tspan { white-space:pre }
		.shp0 { fill: #92bd00 } 
		.shp1 { fill: #80a51a } 
		.shp2 { fill: #b7dc3c } 
		.shp3 { fill: #a6d22e } 
		.shp4 { fill: #000000 } 
	</style>
	<path id="Layer" class="shp0" d="M21.71 62.58C17.07 60.27 11.54 60.49 7.12 63.24C2.7 65.98 0 70.8 0 76L0 166C0 219.69 32.79 268.26 81.99 289.75L134.31 118.38L21.71 62.58Z" />
	<path id="Layer" class="shp1" d="M504.88 63.24C500.47 60.49 494.93 60.25 490.29 61.58L369.29 121.58L430.01 289.75C479.21 268.26 512 219.69 512 166L512 76C512 70.8 509.3 65.98 504.88 63.24Z" />
	<path id="Layer" class="shp2" d="M451 335.2C451 402.7 404.8 461.6 340 477.5C330.4 498.2 309.1 512 286 512C275.5 512 265 509 256 503.9C247 509 236.5 512 226 512C202.9 512 181.6 498.2 172 477.5C107.2 461.6 61 402.7 61 335.2C61 321.1 63.1 307 67.3 293.2L112.9 141.1L159.4 149.5L121.6 112L125.8 97.9C143.2 40 195.4 0 256 0C316.6 0 368.8 40 386.2 97.9L390.4 112L352.6 149.5L399.1 141.1L444.7 293.2C448.9 307 451 321.1 451 335.2L451 335.2Z" />
	<path id="Layer" class="shp3" d="M451 335.2C451 402.7 404.8 461.6 340 477.5C330.4 498.2 309.1 512 286 512C275.5 512 265 509 256 503.9L256 0C316.6 0 368.8 40 386.2 97.9L390.4 112L352.6 149.5L399.1 141.1L444.7 293.2C448.9 307 451 321.1 451 335.2L451 335.2Z" />
	<path id="Layer" class="shp2" d="M209.42 172.71C213.13 165.3 210.12 156.29 202.71 152.58L121.53 112L112.79 141.16L189.29 179.42C196.77 183.13 205.73 180.07 209.42 172.71Z" />
	<path id="Layer" class="shp3" d="M309.29 152.58C301.88 156.29 298.88 165.3 302.58 172.71C306.27 180.06 315.22 183.14 322.71 179.42L399.21 141.17L390.47 112L309.29 152.58Z" />
	<path id="Layer" class="shp4" d="M282.05 334.97L223.3 334.97C220.7 334.97 218.41 335.96 216.45 337.91C214.49 339.87 213.51 342.15 213.51 344.77L213.51 403.51C213.51 406.13 214.5 408.41 216.45 410.37C218.41 412.32 220.69 413.31 223.3 413.31L282.05 413.31C284.66 413.31 286.95 412.32 288.9 410.37C290.86 408.41 291.84 406.13 291.84 403.51L291.84 344.77C291.84 342.15 290.87 339.87 288.9 337.91C286.95 335.95 284.66 334.97 282.05 334.97Z" />
	<path id="Layer" class="shp4" d="M359.16 159.11C352.47 146.79 343.82 136.39 333.21 127.9C322.61 119.42 310.69 112.64 297.47 107.59C284.26 102.53 271.12 100 258.06 100C208.46 100 170.6 121.7 144.49 165.11C143.19 167.23 142.74 169.52 143.14 171.96C143.55 174.41 144.82 176.45 146.94 178.08L187.08 208.68C189.2 209.98 191.25 210.64 193.2 210.64C196.14 210.64 198.67 209.33 200.79 206.72C212.54 192.03 221.27 182.65 226.98 178.57C234 173.84 242.81 171.47 253.42 171.47C263.37 171.47 272.14 174.08 279.73 179.3C287.32 184.53 291.11 190.56 291.11 197.42C291.11 205.08 289.07 211.29 284.99 216.02C280.91 220.75 274.06 225.32 264.43 229.72C251.7 235.44 240.03 244.29 229.43 256.28C218.82 268.28 213.52 281.05 213.52 294.59L213.52 305.6C213.52 308.71 214.37 311.77 216.09 314.78C217.8 317.81 219.88 319.31 222.33 319.31L281.07 319.31C283.69 319.31 285.97 318.05 287.93 315.51C289.88 312.99 290.87 310.34 290.87 307.57C290.87 303.49 293.11 298.02 297.59 291.17C302.08 284.32 307.67 279.01 314.36 275.25C320.72 271.66 325.7 268.77 329.29 266.57C332.89 264.37 337.58 260.81 343.37 255.92C349.16 251.02 353.65 246.16 356.83 241.35C360.01 236.54 362.87 230.3 365.4 222.62C367.93 214.96 369.2 206.71 369.2 197.9C369.19 184.36 365.85 171.43 359.16 159.11Z" />
</svg>