<svg xmlns="http://www.w3.org/2000/svg" viewBox="0 0 512 512" width="512" height="512">
	<style>
		tspan { white-space:pre }
		.shp0 { fill: #92bd00 } 
		.shp1 { fill: #80a51a } 
		.shp2 { fill: #b7dc3c } 
		.shp3 { fill: #a6d22e } 
		.shp4 { fill: #68544f } 
		.shp5 { fill: #53433f } 
		.shp6 { fill: #fff5f5 } 
		.shp7 { fill: #efe2dd } 
	</style>
	<path id="Layer" class="shp0" d="M490.29 449.42C494.93 451.73 500.46 451.51 504.88 448.76C509.3 446.02 512 441.2 512 436L512 346C512 292.31 479.21 243.74 430.01 222.25L377.69 393.62L490.29 449.42Z" />
	<path id="Layer" class="shp1" d="M7.12 448.76C11.53 451.51 17.07 451.75 21.71 450.42L142.71 390.42L81.99 222.25C32.79 243.74 0 292.31 0 346L0 436C0 441.2 2.7 446.02 7.12 448.76Z" />
	<path id="Layer" class="shp2" d="M61 176.8C61 109.3 107.2 50.4 172 34.5C181.6 13.8 202.9 0 226 0C236.5 0 247 3 256 8.1C265 3 275.5 0 286 0C309.1 0 330.4 13.8 340 34.5C404.8 50.4 451 109.3 451 176.8C451 190.9 448.9 205 444.7 218.8L399.1 370.9L352.6 362.5L390.4 400L386.2 414.1C368.8 472 316.6 512 256 512C195.4 512 143.2 472 125.8 414.1L121.6 400L159.4 362.5L112.9 370.9L67.3 218.8C63.1 205 61 190.9 61 176.8L61 176.8Z" />
	<path id="Layer" class="shp3" d="M61 176.8C61 109.3 107.2 50.4 172 34.5C181.6 13.8 202.9 0 226 0C236.5 0 247 3 256 8.1L256 512C195.4 512 143.2 472 125.8 414.1L121.6 400L159.4 362.5L112.9 370.9L67.3 218.8C63.1 205 61 190.9 61 176.8L61 176.8Z" />
	<path id="Layer" class="shp4" d="M302.58 339.29C298.88 346.7 301.88 355.71 309.29 359.42L390.47 400L399.21 370.84L322.71 332.58C315.23 328.87 306.27 331.93 302.58 339.29Z" />
	<path id="Layer" class="shp5" d="M202.71 359.42C210.12 355.71 213.13 346.7 209.42 339.29C205.73 331.94 196.78 328.86 189.29 332.58L112.79 370.83L121.53 400L202.71 359.42Z" />
	<path id="Layer" class="shp6" d="M312.76 126L329.42 159.29C333.13 166.7 330.12 175.71 322.71 179.42C315.31 183.08 306.29 180.12 302.58 172.71L285.93 139.41C282.22 132 285.22 122.99 292.64 119.29C300.12 115.57 309.07 118.64 312.76 126L312.76 126Z" />
	<path id="Layer" class="shp7" d="M219.36 119.29C226.78 122.99 229.78 132 226.07 139.41L209.42 172.71C205.7 180.12 196.69 183.08 189.29 179.42C181.88 175.71 178.88 166.7 182.58 159.29L199.24 126C202.93 118.63 211.88 115.57 219.36 119.29L219.36 119.29Z" />
	<path id="Layer" class="shp0" d="M211.6 298.6C214.9 334.9 232.9 361 256 361C279.1 361 297.1 334.9 300.4 298.6C318.1 292.6 331 275.8 331 256C331 235.6 317.5 218.5 299.2 212.8C293.5 194.5 276.4 181 256 181C235.6 181 218.5 194.5 212.8 212.8C194.5 218.5 181 235.6 181 256C181 275.8 193.9 292.6 211.6 298.6L211.6 298.6Z" />
	<path id="Layer" class="shp1" d="M256 181L256 361C232.9 361 214.9 334.9 211.6 298.6C193.9 292.6 181 275.8 181 256C181 235.6 194.5 218.5 212.8 212.8C218.5 194.5 235.6 181 256 181L256 181Z" />
	<path id="Layer" class="shp0" d="M155.5 95.5C174.7 76 182.5 121 238.3 121L273.7 121C296.5 121 319 111.7 335.5 95.5C341.2 89.5 350.8 89.5 356.5 95.5C362.5 101.2 362.5 110.8 356.5 116.5C334.6 138.4 304.6 151 273.7 151L238.3 151C207.4 151 177.4 138.4 155.5 116.5C149.5 110.8 149.5 101.2 155.5 95.5Z" />
	<path id="Layer" class="shp1" d="M155.5 95.5C174.7 76 182.5 121 238.3 121L256 121L256 151L238.3 151C207.4 151 177.4 138.4 155.5 116.5C149.5 110.8 149.5 101.2 155.5 95.5Z" />
</svg>