<svg version="1.2" xmlns="http://www.w3.org/2000/svg" viewBox="0 0 512 512" width="512" height="512">
	<title>has-svg</title>
	<style>
		.s0 { fill: #ffd93b } 
		.s1 { fill: #f4c534 } 
		.s2 { fill: #3e4347 } 
		.s3 { fill: #ffffff } 
		.s4 { fill: #5a5f63 } 
	</style>
	<path id="Layer" class="s0" d="m256 512c-141.6 0-256-114.4-256-256 0-141.6 114.4-256 256-256 141.6 0 256 114.4 256 256 0 141.6-114.4 256-256 256z"/>
	<path id="Layer" class="s1" d="m512 256c0 141.4-114.6 256-256 256-80.5 0-152.3-37.1-199.3-95.3 43.9 35.5 99.9 56.7 160.7 56.7 141.4 0 256-114.5 256-256 0-60.8-21.2-116.8-56.7-160.7 58.1 47 95.3 118.8 95.3 199.3z"/>
	<path id="Layer" class="s2" d="m256 443.6c-24.8 0-44.8-20-44.8-44.8 0-24.8 20-44.8 44.8-44.8 24.8 0 44.8 20 44.8 44.8 0 24.8-20 44.8-44.8 44.8z"/>
	<path id="Layer" class="s3" d="m365 282c-52.5 0-95-42.5-95-95 0-52.5 42.5-95 95-95 52.5 0 95 42.5 95 95 0 52.5-42.5 95-95 95z"/>
	<path id="Layer" class="s2" d="m395 201.1c-24.3 0-43.9-19.7-43.9-43.9 0-24.3 19.6-43.9 43.9-43.9 24.3 0 43.9 19.6 43.9 43.9 0 24.2-19.6 43.9-43.9 43.9z"/>
	<path id="Layer" class="s4" d="m418.7 152.9c-3.9 2.6-10.1 0.7-13.7-4.6-3.6-5.2-3.3-11.4 0.6-14.1 4-2.6 10.4-0.5 13.8 4.6 3.4 5.3 3.3 11.6-0.7 14.1z"/>
	<path id="Layer" class="s3" d="m147 282c-52.5 0-95-42.5-95-95 0-52.5 42.5-95 95-95 52.5 0 95 42.5 95 95 0 52.5-42.5 95-95 95z"/>
	<path id="Layer" class="s2" d="m117 261.1c-24.3 0-43.9-19.7-43.9-43.9 0-24.3 19.6-43.9 43.9-43.9 24.3 0 43.9 19.6 43.9 43.9 0 24.2-19.6 43.9-43.9 43.9z"/>
	<path id="Layer" class="s4" d="m92.6 198.8c3.4-5.1 9.8-7.2 13.8-4.6 3.9 2.7 4.2 8.9 0.6 14.1-3.6 5.3-9.8 7.2-13.7 4.6-4-2.5-4.1-8.8-0.7-14.1z"/>
	<g id="Layer">
	</g>
	<g id="Layer">
	</g>
	<g id="Layer">
	</g>
	<g id="Layer">
	</g>
	<g id="Layer">
	</g>
	<g id="Layer">
	</g>
	<g id="Layer">
	</g>
	<g id="Layer">
	</g>
	<g id="Layer">
	</g>
	<g id="Layer">
	</g>
	<g id="Layer">
	</g>
	<g id="Layer">
	</g>
	<g id="Layer">
	</g>
	<g id="Layer">
	</g>
	<g id="Layer">
	</g>
</svg>