<svg id="Layer_1" data-name="Layer 1" xmlns="http://www.w3.org/2000/svg" xmlns:xlink="http://www.w3.org/1999/xlink" viewBox="0 0 2000 2000"><defs><style>.cls-1{fill:none;}.cls-2{fill:#afd86a;}.cls-3{clip-path:url(#clip-path);}.cls-4{fill:#fecfae;}.cls-5{clip-path:url(#clip-path-2);}.cls-6{fill:#725b51;}.cls-7{fill:#4c3b36;}.cls-8{fill:#443428;}.cls-9{fill:#441c0c;}.cls-10{clip-path:url(#clip-path-3);}.cls-11{fill:#592710;}.cls-12{fill:#352820;}.cls-13{fill:#877874;}.cls-14{fill:#967266;}.cls-15{fill:#ddcbb8;}.cls-16{clip-path:url(#clip-path-4);}.cls-17{clip-path:url(#clip-path-5);}.cls-18{clip-path:url(#clip-path-6);}.cls-19{fill:#724e44;}.cls-20{fill:#9b786f;}.cls-21{fill:#77a22f;}.cls-22{fill:#aed76a;}.cls-23{fill:#1e1713;}.cls-24{fill:#a3acaf;}.cls-24,.cls-28{opacity:0.8;}.cls-25{fill:#838c8e;}.cls-26{fill:#cfe59a;}.cls-27{fill:#2b1009;}.cls-28,.cls-29{fill:#b8bfc1;}.cls-30{fill:#f5ffca;}.cls-31{fill:#a0c45b;}.cls-32{fill:#bce077;}</style><clipPath id="clip-path"><path class="cls-1" d="M651.52,1095.27l960.4,178.42c14.3-17.52,59.7,4,120.8,24.6,0,0,340,101.57,160.6,289.28-132.4,138.52-660.22,178.24-683,184.15-39.9,10.35-941.93,214.47-1149.38-226.91C-42.48,1212,651.52,1095.27,651.52,1095.27Z"/></clipPath><clipPath id="clip-path-2"><path class="cls-1" d="M-778.15,1146.44c84.7-12,171.63,4,242.49,47,99.88,60.75,245,166.07,171.73,332.75-138.79,315.9-364.15,426-706.54,390s-535.6-244.64-768.48-251.26c-89.16-2.53-235.81-92.81-133.59-300.84,52.41-106.65,478-407.45,850.72-282.69C-929.65,1145.76-829.8,1153.77-778.15,1146.44Z"/></clipPath><clipPath id="clip-path-3"><path class="cls-1" d="M402.09,507.83S731,664.61,1034,573.77L966.55,912.68,819.86,965.09,718.28,986.2Z"/></clipPath><clipPath id="clip-path-4"><path class="cls-1" d="M819.86,965.09l314.83,33.6s118.68-95,134.56-147.94,135.34-423,133.62-496.33S1374,243.88,1374,243.88s-114.78,193.56-340,329.89c0,0-58,177.76-88,217S819.86,965.09,819.86,965.09Z"/></clipPath><clipPath id="clip-path-5"><path class="cls-1" d="M819.86,965.09l290.46,37.22s118.68-95,134.55-147.94,135.35-423,133.63-496.32-28.89-110.55-28.89-110.55S1240.53,320.61,1104,302.22c0,0-152.39,452.94-182.42,492.12S819.86,965.09,819.86,965.09Z"/></clipPath><clipPath id="clip-path-6"><path class="cls-1" d="M844.23,961.47l290.46,37.22s118.68-95,134.56-147.94,135.34-423,133.62-496.33S1374,243.88,1374,243.88s-114.78,193.56-340,329.89c0,0-58,177.76-88,217S844.23,961.47,844.23,961.47Z"/></clipPath></defs><path class="cls-2" d="M651.52,1095.27l960.4,178.42c14.3-17.52,59.7,4,120.8,24.6,0,0,340,101.57,160.6,289.28-132.4,138.52-660.22,178.24-683,184.15-39.9,10.35-941.93,214.47-1149.38-226.91C-42.48,1212,651.52,1095.27,651.52,1095.27Z"/><g class="cls-3"><path class="cls-4" d="M923,1432.66s-380.51,80.17-342.17,167.49,139.27,75.06,103.36,156.25,67.19,180.77,67.19,180.77l673-173.11s-533.63-22.38-544.57-80.89S677.43,1631.81,711.13,1583s321.7-96.76,321.7-96.76S1092.84,1390.37,923,1432.66Z"/></g><g class="cls-5"><path class="cls-4" d="M884,1429.17S611.64,1486.28,598.32,1583,711,1698.19,643.92,1765.6"/></g><polygon class="cls-6" points="650.51 1382.5 228.36 1291.23 209.22 897.87 380.51 548.54 660.54 879.17 650.51 1382.5"/><path class="cls-7" d="M835.37,832.84c-25.66,6-52.18,3.69-77.84,10.7-31.77,8.6-63.71,16.49-95.41,27.19-3.68,3.16-7.69,4.74-11.61,4.56V1382.5l313.7-100.68-47.55-193.58V816.88C892.49,821.79,871,824.42,835.37,832.84Z"/><path class="cls-8" d="M918.54,1042.56l-1.35-75.33-34.43-9.53s-3.6,329.82-2.79,329.73l.27-34-.27,34c6-.54,22.21-.9,32.54-9Z"/><path class="cls-9" d="M402.09,507.83S731,664.61,1034,573.77L966.55,912.68,819.86,965.09,718.28,986.2Z"/><g class="cls-10"><path class="cls-11" d="M503.33,517h0Z"/><path class="cls-11" d="M884.16,1047.67c-.4-5.59-2.86-8.88-8.15-10.77-6.29-2.26-12.5-4.72-18.2-8.49-9.93-6.57-14.44-16-15.55-27.36a18.59,18.59,0,0,1,1.27-7.47c2.33-7.25-1.28-11.92-9-13-6.89-1-13.54-3-19.37-7.09-1.16-.82-2.46-1.56-2.87-2.91-2.68-8.75-7.35-17.26-3.2-26.87.83-1.94.27-3.57-1.37-5.53-5.49-6.53-12.83-9.68-20.45-12.51-1.3-.49-2.59-1-3.92-1.43-12.63-3.91-15.61-11.89-17.57-24.08-.43-2.7,0-5.54,0-8.32.22-11.45-3.37-16-14.71-19.27-4.65-1.33-9.41-2.38-13.7-4.87-4.9-2.83-8.52-6.36-8.69-12.43,0-1.15-.52-2.28-.59-3.43-.13-2.3-2.11-4.34-1.2-6.71s3.54-1.86,5.19-3.12c4.08-3.12,4.68-5.77,2-10.06-3-4.84-7.51-7.36-13-8.46a54.16,54.16,0,0,1-18.57-7.42c-3.65-2.31-7.46-12.16-6.19-16a3.36,3.36,0,0,1,2.37-2.32c1.12-.32,2.29-.43,3.4-.76,6.33-1.9,7.24-4.62,3.43-10a22.14,22.14,0,0,0-6.36-6.32c-1.24-.77-11.71-1.74-15.91-2.77l-1.66-.63h0c-.79-.31-1.58-.62-2.36-1v-.08l-.16,0a65.47,65.47,0,0,1-11.1-5.78c-9.93-6.57-14.44-15.94-15.55-27.36a18.62,18.62,0,0,1,1.27-7.47c2.33-7.24-1.28-11.91-9-13-6.89-1-13.54-3-19.37-7.1-1.16-.82-2.46-1.55-2.87-2.91-2.68-8.75-7.35-17.25-3.2-26.87.83-1.93.27-3.57-1.37-5.52-5.49-6.54-12.83-9.68-20.45-12.52-1.3-.49-2.59-1-3.92-1.42-12.63-3.92-15.61-11.9-17.57-24.09-.43-2.7,0-5.54,0-8.31.22-11.45-3.37-16-14.71-19.28-4.65-1.33-9.41-2.38-13.7-4.87-4.9-2.83-8.52-6.35-8.69-12.43,0-1.15-.52-2.27-.59-3.42-.13-2.31-2.11-4.34-1.2-6.72s3.54-1.86,5.19-3.12c4.08-3.11,4.68-5.76,2-10-3-4.85-7.51-7.37-13-8.46a54.36,54.36,0,0,1-18.57-7.42c-3.65-2.31-7.46-12.17-6.19-16a3.36,3.36,0,0,1,2.37-2.32c1.12-.31,2.29-.43,3.4-.76,6.33-1.9,7.24-4.62,3.43-10a22.17,22.17,0,0,0-6.36-6.33c-2.35-1.45-4.73-3-6-5.65a1.48,1.48,0,0,1-1.89.11l-22.2,2.05c0,6,4.68,9.14,8.14,13a16.28,16.28,0,0,0,4,2.77c2.18,1.28,2.72,3,1.82,5.3-5.43,13.87,1.79,23.56,11,32.47,3.83,3.72,8.13,6.86,13.49,8.25,2.65.69,3.33,2.23,2.46,5.2-5.11,17.54,7.73,35.54,20.75,43.31,6.22,3.7,13.14,5.57,20.5,7.53-3.9,7.51-4.65,15.15-.91,22.35,6.79,13.08,16,23.82,30.83,28.34,1.54.48,3.11.87,4.66,1.35,6.71,2.09,7.07,2.17,5.58,9.33-1.8,8.66.15,16,5.89,22.6a15.07,15.07,0,0,1,1.67,2.23A35.3,35.3,0,0,0,631.19,740c3,.81,4.3,2,3.66,5.31-2.78,14.47,5,24.93,13.9,34.65A41,41,0,0,0,664,790.67c1.5.59,3,1.7,4.53,1.63,7.09-.32,10.25,3.25,11.23,9.94a16.66,16.66,0,0,0,1.46,4.66c-.24,9.45,5.7,16.84,12.82,23.76,3.83,3.72,8.13,6.86,13.49,8.25,2.65.68,3.33,2.23,2.46,5.2-5.11,17.53,7.73,35.54,20.75,43.3,6.22,3.71,13.14,5.57,20.5,7.54-3.9,7.51-4.65,15.15-.91,22.35,6.79,13.07,16,23.82,30.83,28.34,1.54.47,3.11.87,4.66,1.35,6.71,2.09,7.07,2.17,5.58,9.33-1.8,8.66.15,16,5.89,22.6a14.57,14.57,0,0,1,1.67,2.23A35.34,35.34,0,0,0,821,997.94c3,.8,4.3,2,3.66,5.31-2.78,14.47,5,24.93,13.9,34.65a41.13,41.13,0,0,0,15.21,10.73c1.5.59,3.05,1.69,4.53,1.63,7.09-.32,10.25,3.25,11.23,9.94.7,4.69,3.53,8.51,6.53,12.1a30,30,0,0,0,10.6-1.88C885.83,1062.84,884.71,1055.27,884.16,1047.67Z"/><path class="cls-11" d="M564.74,469.05v0h0Z"/><path class="cls-11" d="M945.58,999.7c-.4-5.59-2.87-8.87-8.15-10.77-6.3-2.26-12.5-4.72-18.2-8.49-9.94-6.57-14.44-16-15.55-27.36a18.45,18.45,0,0,1,1.27-7.47c2.33-7.24-1.28-11.91-9.05-13-6.9-1-13.54-3-19.37-7.1-1.17-.82-2.46-1.56-2.88-2.91-2.68-8.75-7.35-17.26-3.2-26.87.84-1.94.28-3.57-1.37-5.53-5.49-6.53-12.82-9.67-20.44-12.51-1.31-.49-2.6-1-3.92-1.43-12.63-3.91-15.61-11.89-17.57-24.08-.44-2.7,0-5.54,0-8.31.21-11.46-3.37-16-14.72-19.28-4.65-1.33-9.4-2.38-13.7-4.87-4.89-2.83-8.51-6.35-8.68-12.43,0-1.15-.53-2.28-.59-3.43-.14-2.3-2.11-4.33-1.21-6.71s3.54-1.86,5.2-3.12c4.08-3.12,4.67-5.76,2-10-3-4.85-7.51-7.37-13-8.46a54.39,54.39,0,0,1-18.56-7.42c-3.65-2.32-7.46-12.17-6.19-16.05a3.34,3.34,0,0,1,2.37-2.32c1.11-.31,2.28-.43,3.39-.76,6.34-1.9,7.24-4.62,3.44-10a22.42,22.42,0,0,0-6.36-6.33c-1.24-.77-11.71-1.74-15.91-2.77l-1.67-.63h0c-.79-.31-1.57-.62-2.35-.95v-.07h-.15a66.15,66.15,0,0,1-11.1-5.77c-9.94-6.58-14.44-16-15.55-27.37a18.37,18.37,0,0,1,1.27-7.46c2.33-7.25-1.28-11.92-9.05-13-6.9-1-13.54-3-19.37-7.1-1.17-.82-2.46-1.55-2.88-2.9-2.68-8.76-7.35-17.26-3.2-26.88.84-1.93.28-3.56-1.37-5.52-5.49-6.54-12.82-9.68-20.44-12.52-1.31-.48-2.6-1-3.92-1.42-12.63-3.91-15.61-11.9-17.57-24.09-.44-2.7,0-5.54,0-8.31.21-11.45-3.37-16-14.72-19.27-4.65-1.33-9.4-2.39-13.7-4.87-4.89-2.84-8.51-6.36-8.68-12.44,0-1.14-.53-2.27-.59-3.42-.14-2.31-2.11-4.34-1.21-6.71s3.54-1.86,5.2-3.13c4.08-3.11,4.67-5.76,2-10.05-3-4.85-7.51-7.37-13-8.46a54.39,54.39,0,0,1-18.56-7.42c-3.65-2.31-7.46-12.17-6.19-16a3.34,3.34,0,0,1,2.37-2.33c1.11-.31,2.28-.42,3.39-.76,6.34-1.9,7.24-4.62,3.44-10a22.26,22.26,0,0,0-6.36-6.32c-2.35-1.46-4.73-3-6-5.65a1.49,1.49,0,0,1-1.89.11l-22.2,2c0,6,4.68,9.14,8.15,13a16.13,16.13,0,0,0,4,2.78c2.17,1.27,2.72,3,1.82,5.29-5.44,13.88,1.79,23.56,11,32.47,3.83,3.73,8.12,6.86,13.49,8.25,2.64.69,3.32,2.24,2.46,5.2-5.11,17.54,7.73,35.54,20.75,43.31,6.21,3.7,13.14,5.57,20.5,7.53-3.91,7.51-4.65,15.15-.91,22.35,6.79,13.08,16,23.82,30.82,28.35,1.55.47,3.12.87,4.66,1.34,6.72,2.09,7.07,2.17,5.59,9.33-1.8,8.66.15,16,5.88,22.6a15.62,15.62,0,0,1,1.67,2.23A35.3,35.3,0,0,0,692.61,692c3,.81,4.29,2,3.66,5.31-2.79,14.47,5,24.93,13.89,34.66a41,41,0,0,0,15.22,10.72c1.5.6,3,1.7,4.53,1.63,7.09-.31,10.24,3.25,11.23,9.94a16.32,16.32,0,0,0,1.45,4.66c-.24,9.46,5.71,16.84,12.82,23.76,3.84,3.72,8.13,6.86,13.5,8.25,2.64.68,3.32,2.23,2.46,5.2-5.11,17.53,7.73,35.54,20.75,43.3,6.21,3.71,13.14,5.58,20.5,7.54-3.91,7.51-4.65,15.15-.91,22.35,6.79,13.08,16,23.82,30.82,28.34,1.55.48,3.12.87,4.66,1.35,6.72,2.09,7.07,2.17,5.59,9.33-1.8,8.66.15,16,5.88,22.6a14.57,14.57,0,0,1,1.67,2.23A35.3,35.3,0,0,0,882.46,950c3,.8,4.29,2,3.66,5.31-2.79,14.47,5,24.93,13.89,34.65a41.09,41.09,0,0,0,15.21,10.73c1.51.59,3,1.7,4.54,1.63,7.09-.32,10.24,3.25,11.23,9.94.69,4.69,3.52,8.51,6.53,12.1a29.77,29.77,0,0,0,10.6-1.88C947.24,1014.87,946.13,1007.3,945.58,999.7Z"/><path class="cls-11" d="M642,431.65v0h0Z"/><path class="cls-11" d="M1022.86,962.3c-.4-5.59-2.86-8.87-8.15-10.77-6.29-2.25-12.5-4.71-18.2-8.49-9.93-6.57-14.44-15.94-15.55-27.36a18.79,18.79,0,0,1,1.27-7.47c2.33-7.24-1.28-11.91-9.05-13-6.89-1-13.54-3-19.37-7.1-1.16-.82-2.46-1.55-2.87-2.91-2.68-8.75-7.35-17.25-3.2-26.87.83-1.93.27-3.57-1.37-5.52-5.49-6.54-12.83-9.68-20.45-12.52-1.3-.49-2.59-1-3.92-1.42-12.63-3.92-15.61-11.9-17.57-24.09-.43-2.7,0-5.54,0-8.31.22-11.45-3.37-16-14.71-19.28-4.65-1.33-9.41-2.38-13.7-4.87-4.9-2.83-8.52-6.35-8.68-12.43,0-1.15-.53-2.27-.6-3.42-.13-2.31-2.11-4.34-1.2-6.72s3.54-1.86,5.19-3.12c4.08-3.11,4.68-5.76,2-10-3-4.85-7.52-7.37-13-8.46a54.36,54.36,0,0,1-18.57-7.42c-3.65-2.31-7.46-12.17-6.19-16.05a3.38,3.38,0,0,1,2.37-2.32c1.12-.31,2.29-.43,3.4-.76,6.34-1.9,7.24-4.62,3.43-10a22.17,22.17,0,0,0-6.36-6.33c-1.24-.76-11.7-1.74-15.91-2.77-.55-.2-1.11-.41-1.66-.63h0l-2.36-.94v-.08h-.15a65.51,65.51,0,0,1-11.11-5.77c-9.93-6.58-14.44-16-15.55-27.36a18.73,18.73,0,0,1,1.27-7.47c2.33-7.25-1.28-11.92-9-13-6.89-1-13.54-3-19.37-7.09-1.16-.82-2.46-1.56-2.87-2.91-2.68-8.75-7.35-17.26-3.2-26.88.83-1.93.27-3.56-1.37-5.52-5.49-6.54-12.83-9.68-20.45-12.52-1.3-.48-2.59-1-3.92-1.42-12.63-3.91-15.61-11.9-17.57-24.09-.43-2.69,0-5.53,0-8.31.22-11.45-3.37-16-14.71-19.27-4.65-1.33-9.41-2.39-13.7-4.87-4.9-2.84-8.52-6.36-8.68-12.44,0-1.14-.53-2.27-.6-3.42-.13-2.3-2.11-4.34-1.2-6.71s3.54-1.86,5.19-3.13c4.08-3.11,4.68-5.76,2-10.05-3-4.85-7.52-7.37-13-8.46a54.36,54.36,0,0,1-18.57-7.42c-3.64-2.31-7.45-12.17-6.19-16a3.37,3.37,0,0,1,2.37-2.33c1.12-.31,2.29-.42,3.4-.75,6.34-1.9,7.24-4.62,3.43-10a22.14,22.14,0,0,0-6.36-6.32c-2.35-1.46-4.73-3-6-5.65a1.48,1.48,0,0,1-1.89.11l-22.2,2c0,6,4.68,9.15,8.14,13a16.42,16.42,0,0,0,4,2.77c2.17,1.27,2.71,3,1.81,5.29-5.43,13.88,1.79,23.57,11,32.47,3.83,3.73,8.13,6.87,13.49,8.25,2.65.69,3.33,2.24,2.46,5.21-5.1,17.53,7.73,35.53,20.76,43.3,6.21,3.7,13.13,5.57,20.49,7.53-3.9,7.52-4.65,15.16-.91,22.35,6.79,13.08,16,23.82,30.83,28.35,1.54.47,3.11.87,4.66,1.35,6.71,2.08,7.07,2.16,5.58,9.32-1.8,8.67.15,16,5.89,22.6a15.62,15.62,0,0,1,1.67,2.23,35.35,35.35,0,0,0,22.12,16.8c3,.8,4.3,2,3.66,5.3-2.78,14.47,5,24.93,13.9,34.66a41.13,41.13,0,0,0,15.21,10.73c1.51.59,3.05,1.69,4.53,1.62,7.1-.31,10.25,3.26,11.24,10a16.36,16.36,0,0,0,1.45,4.65c-.24,9.46,5.7,16.84,12.82,23.76,3.83,3.72,8.13,6.86,13.49,8.25,2.65.69,3.33,2.23,2.46,5.2-5.1,17.54,7.73,35.54,20.76,43.31,6.21,3.7,13.13,5.57,20.49,7.53-3.9,7.51-4.65,15.15-.91,22.35,6.79,13.08,16,23.82,30.83,28.34,1.54.48,3.11.87,4.66,1.35,6.71,2.09,7.07,2.17,5.58,9.33-1.8,8.66.15,16,5.89,22.6a15.62,15.62,0,0,1,1.67,2.23,35.3,35.3,0,0,0,22.12,16.79c3,.81,4.3,2,3.66,5.31-2.78,14.47,5,24.93,13.9,34.65a41,41,0,0,0,15.21,10.73c1.51.59,3,1.7,4.53,1.63,7.1-.32,10.25,3.25,11.24,9.94.69,4.69,3.52,8.51,6.52,12.11a30,30,0,0,0,10.6-1.89C1024.53,977.47,1023.41,969.91,1022.86,962.3Z"/><path class="cls-11" d="M707.06,399.67h0Z"/><path class="cls-11" d="M1087.89,930.31c-.4-5.58-2.87-8.87-8.15-10.76-6.3-2.26-12.5-4.72-18.2-8.49-9.93-6.58-14.44-15.95-15.55-27.36a18.39,18.39,0,0,1,1.27-7.47c2.33-7.25-1.28-11.92-9-13-6.9-1-13.54-3-19.37-7.09-1.17-.82-2.46-1.56-2.88-2.91-2.68-8.75-7.35-17.26-3.2-26.88.84-1.93.28-3.56-1.37-5.52-5.49-6.54-12.82-9.68-20.44-12.52-1.31-.48-2.59-1-3.92-1.42C974.4,803,971.42,795,969.46,782.8c-.44-2.69,0-5.53,0-8.31.21-11.45-3.37-16-14.72-19.27-4.65-1.33-9.4-2.39-13.7-4.87-4.89-2.84-8.51-6.36-8.68-12.44,0-1.14-.53-2.27-.59-3.42-.14-2.3-2.11-4.34-1.21-6.71s3.54-1.86,5.2-3.13c4.08-3.11,4.67-5.76,2-10-3-4.85-7.51-7.37-13-8.46a54.39,54.39,0,0,1-18.56-7.42c-3.65-2.31-7.46-12.17-6.19-16a3.34,3.34,0,0,1,2.37-2.33c1.11-.31,2.28-.42,3.39-.75,6.34-1.9,7.24-4.62,3.44-10a22.39,22.39,0,0,0-6.36-6.32c-1.24-.77-11.71-1.75-15.91-2.77l-1.67-.63h0c-.79-.3-1.57-.62-2.35-.94v-.08h-.15a65.42,65.42,0,0,1-11.1-5.77c-9.93-6.57-14.44-16-15.55-27.36a18.42,18.42,0,0,1,1.27-7.47c2.33-7.24-1.28-11.92-9-13-6.9-.95-13.54-3-19.37-7.09-1.17-.82-2.46-1.56-2.88-2.91-2.68-8.75-7.34-17.26-3.2-26.87.84-1.94.28-3.57-1.37-5.53-5.49-6.53-12.82-9.67-20.44-12.51-1.3-.49-2.59-1-3.92-1.43C784.55,545,781.57,537,779.61,524.85c-.43-2.7,0-5.54,0-8.32.21-11.45-3.37-16-14.72-19.27-4.65-1.33-9.4-2.38-13.7-4.87-4.89-2.83-8.51-6.35-8.68-12.43,0-1.15-.53-2.28-.59-3.43-.14-2.3-2.11-4.34-1.21-6.71s3.54-1.86,5.2-3.12c4.08-3.12,4.67-5.77,2-10.06-3-4.84-7.51-7.36-13-8.46a54.16,54.16,0,0,1-18.57-7.42c-3.65-2.31-7.46-12.16-6.19-16a3.34,3.34,0,0,1,2.37-2.32c1.11-.31,2.28-.43,3.39-.76,6.34-1.9,7.24-4.62,3.44-10a22.52,22.52,0,0,0-6.36-6.32c-2.35-1.45-4.73-3-6-5.65a1.47,1.47,0,0,1-1.88.11l-22.21,2c0,6,4.68,9.14,8.15,13a16.37,16.37,0,0,0,4,2.77,3.83,3.83,0,0,1,1.82,5.29c-5.44,13.88,1.79,23.57,11,32.48,3.83,3.72,8.12,6.86,13.49,8.25,2.64.68,3.32,2.23,2.46,5.2-5.11,17.53,7.73,35.54,20.75,43.3,6.21,3.71,13.14,5.57,20.5,7.54-3.91,7.51-4.65,15.15-.91,22.35,6.79,13.08,16,23.82,30.82,28.34,1.55.47,3.12.87,4.66,1.35,6.72,2.09,7.07,2.17,5.59,9.33-1.8,8.66.15,16,5.88,22.6a14.57,14.57,0,0,1,1.67,2.23,35.3,35.3,0,0,0,22.13,16.79c3,.8,4.29,2,3.66,5.31-2.79,14.47,5,24.93,13.89,34.65a41.16,41.16,0,0,0,15.22,10.73c1.5.59,3,1.69,4.53,1.63,7.09-.32,10.25,3.25,11.23,9.94a16.52,16.52,0,0,0,1.45,4.66c-.24,9.45,5.71,16.84,12.83,23.75,3.83,3.73,8.12,6.86,13.49,8.25,2.64.69,3.32,2.24,2.46,5.21-5.11,17.53,7.73,35.53,20.75,43.3,6.21,3.7,13.14,5.57,20.5,7.53-3.91,7.52-4.65,15.16-.91,22.35,6.79,13.08,16,23.82,30.82,28.35,1.55.47,3.12.87,4.66,1.35,6.72,2.08,7.07,2.16,5.59,9.32-1.8,8.67.15,16,5.88,22.6a15.62,15.62,0,0,1,1.67,2.23,35.34,35.34,0,0,0,22.13,16.8c3,.8,4.29,2,3.66,5.3-2.79,14.47,5,24.93,13.89,34.66a41.16,41.16,0,0,0,15.22,10.73c1.5.59,3,1.69,4.53,1.62,7.09-.31,10.25,3.26,11.23,10,.69,4.68,3.52,8.51,6.53,12.1a30,30,0,0,0,10.6-1.88C1089.55,945.48,1088.44,937.92,1087.89,930.31Z"/><path class="cls-11" d="M749.78,346.94v0h0Z"/><path class="cls-11" d="M1130.61,877.59c-.4-5.58-2.87-8.87-8.15-10.76-6.3-2.26-12.5-4.72-18.2-8.49-9.93-6.58-14.44-16-15.55-27.37a18.37,18.37,0,0,1,1.27-7.46c2.33-7.25-1.28-11.92-9-13-6.9-1-13.54-3-19.37-7.09-1.17-.83-2.46-1.56-2.87-2.91-2.69-8.75-7.35-17.26-3.21-26.88.84-1.93.28-3.56-1.36-5.52-5.5-6.54-12.83-9.68-20.45-12.52-1.3-.48-2.59-1-3.92-1.42-12.63-3.91-15.61-11.9-17.57-24.09-.43-2.7,0-5.54,0-8.31.22-11.45-3.37-16-14.71-19.27-4.66-1.33-9.41-2.39-13.71-4.87-4.89-2.84-8.51-6.36-8.68-12.44,0-1.14-.53-2.27-.59-3.42-.14-2.31-2.11-4.34-1.21-6.71s3.54-1.86,5.2-3.13c4.08-3.11,4.67-5.76,2-10-3-4.85-7.51-7.37-13-8.46A54.36,54.36,0,0,1,949,646c-3.65-2.31-7.46-12.17-6.19-16a3.36,3.36,0,0,1,2.37-2.33c1.11-.31,2.29-.42,3.39-.76,6.34-1.9,7.24-4.62,3.44-10a22.26,22.26,0,0,0-6.36-6.32c-1.24-.77-11.71-1.75-15.91-2.77l-1.66-.64h0c-.79-.3-1.57-.62-2.35-.94v-.08h-.15a65.42,65.42,0,0,1-11.1-5.77c-9.93-6.57-14.44-16-15.55-27.36a18.42,18.42,0,0,1,1.27-7.47c2.33-7.25-1.28-11.92-9-13-6.9-.95-13.54-3-19.37-7.09-1.17-.82-2.46-1.56-2.87-2.91-2.69-8.75-7.35-17.26-3.21-26.87.84-1.94.28-3.57-1.36-5.53-5.5-6.53-12.83-9.68-20.45-12.51-1.3-.49-2.59-1-3.92-1.43-12.63-3.91-15.61-11.89-17.57-24.08-.43-2.7,0-5.54,0-8.32.22-11.45-3.37-16-14.71-19.27-4.66-1.33-9.41-2.38-13.71-4.87-4.89-2.83-8.51-6.36-8.68-12.43,0-1.15-.53-2.28-.59-3.43-.14-2.3-2.11-4.34-1.21-6.71s3.54-1.86,5.2-3.12c4.08-3.12,4.67-5.77,2-10.06-3-4.85-7.51-7.36-13-8.46A54.16,54.16,0,0,1,759.1,388c-3.65-2.31-7.46-12.17-6.19-16a3.36,3.36,0,0,1,2.37-2.32c1.11-.32,2.29-.43,3.39-.76,6.34-1.9,7.24-4.62,3.44-10a22.26,22.26,0,0,0-6.36-6.32c-2.35-1.46-4.73-3-6-5.65a1.47,1.47,0,0,1-1.88.11l-22.21,2c0,6,4.69,9.15,8.15,13a16.37,16.37,0,0,0,4,2.77c2.17,1.27,2.72,3,1.82,5.29-5.44,13.88,1.79,23.57,11,32.48,3.83,3.72,8.12,6.86,13.49,8.25,2.65.68,3.32,2.23,2.46,5.2-5.11,17.53,7.73,35.54,20.75,43.3,6.21,3.71,13.14,5.57,20.5,7.54-3.91,7.51-4.65,15.15-.91,22.35,6.79,13.07,16,23.82,30.82,28.34,1.55.47,3.12.87,4.66,1.35,6.72,2.08,7.07,2.17,5.59,9.33-1.8,8.66.15,16,5.89,22.59a15.09,15.09,0,0,1,1.66,2.24,35.36,35.36,0,0,0,22.13,16.79c3,.8,4.29,2,3.66,5.31-2.78,14.46,5,24.92,13.89,34.65a41.16,41.16,0,0,0,15.22,10.73c1.5.59,3,1.69,4.53,1.63,7.09-.32,10.25,3.25,11.23,9.94a17.19,17.19,0,0,0,1.45,4.66c-.23,9.45,5.71,16.84,12.83,23.75,3.83,3.73,8.12,6.86,13.49,8.25,2.65.69,3.32,2.24,2.46,5.2-5.11,17.54,7.73,35.54,20.75,43.31,6.21,3.7,13.14,5.57,20.5,7.53-3.91,7.51-4.65,15.15-.91,22.35,6.79,13.08,16,23.82,30.82,28.35,1.55.47,3.12.87,4.66,1.35,6.72,2.08,7.07,2.16,5.59,9.32-1.8,8.66.15,16,5.89,22.6a15.55,15.55,0,0,1,1.66,2.23,35.32,35.32,0,0,0,22.13,16.79c3,.81,4.29,2,3.66,5.31-2.79,14.47,5,24.93,13.89,34.66a41.16,41.16,0,0,0,15.22,10.73c1.5.59,3,1.69,4.53,1.62,7.09-.31,10.25,3.26,11.23,10,.69,4.68,3.53,8.51,6.53,12.1a29.74,29.74,0,0,0,10.6-1.89C1132.28,892.76,1131.16,885.2,1130.61,877.59Z"/></g><path class="cls-12" d="M926.45,1042.56l-1.35-75.33-34.43-9.53s-3.59,329.1-2.79,329l.27-33.26-.27,33.26c6-.54,22.21-.18,32.55-8.27Z"/><polygon class="cls-13" points="1691.87 1285.57 858.65 1282.63 826.79 1295.11 826.55 1289.42 1254.65 1408.45 1691.87 1285.57"/><polygon class="cls-7" points="1293.33 1367.17 1624.6 1283.1 1650.77 870.23 1451.62 468.6 1249.83 1014.04 1293.33 1367.17"/><path class="cls-6" d="M1232.66,1377.09l-343-90.33L855.4,960.24l320.89,44.83s52.92,20.9,54.12,49.51S1232.66,1377.09,1232.66,1377.09Z"/><path class="cls-14" d="M887.8,1305.42l9.16-2.53L882.44,957.51l-17.32.73S854.55,1232.16,887.8,1305.42Z"/><polygon class="cls-15" points="823.52 959.99 849.32 1298.28 887.8 1305.42 865.12 958.24 823.52 959.99"/><path class="cls-14" d="M255.43,1301.17l9.16-2.53L248.47,921.38l-17.31.73S222.18,1227.91,255.43,1301.17Z"/><polygon class="cls-15" points="191.15 955.74 226.06 1294.03 255.43 1301.17 232.76 953.99 191.15 955.74"/><path class="cls-9" d="M1130,1026.16,819.86,978.05v-13s243.72-10.08,290.46,37.22S1130,1026.16,1130,1026.16Z"/><path class="cls-11" d="M819.86,965.09l314.83,33.6s118.68-95,134.56-147.94,135.34-423,133.62-496.33S1374,243.88,1374,243.88s-114.78,193.56-340,329.89c0,0-58,177.76-88,217S819.86,965.09,819.86,965.09Z"/><path class="cls-9" d="M1003.23,602.9c5,2.45,9.76.09,14.55-1a16.91,16.91,0,0,0,4.15-2c2.06-1.17,3.74-.89,5.23.74,9,9.83,20.41,8.18,32,4.7,4.87-1.46,9.47-3.51,13.11-7.1,1.79-1.76,3.39-1.66,5.46.21,12.2,11.07,33.1,8.44,45.59,1.52,6-3.31,10.71-7.91,15.75-12.81,4.43,6.07,10.43,9.75,18.14,9.78,14,0,27.22-2.74,37.83-12.35,1.11-1,2.17-2.06,3.28-3.06,4.84-4.35,5.08-4.59,10.34-.54,6.36,4.91,13.39,6.39,21.5,4.62a15.49,15.49,0,0,1,2.62-.39,35.94,35.94,0,0,0,24.2-10.3c2.07-2,3.67-2.51,6.11-.69,10.73,8,23,6.24,35.22,3.31a41.59,41.59,0,0,0,16-7.41c1.19-.93,2.82-1.67,3.45-2.85,3-5.61,7.45-6.61,13.47-4.66,4.21,1.37,8.7.73,13.07-.14a25.26,25.26,0,0,0,3.35-9c-6.7-2.4-13.5-4.61-20.07-7.27-4.83-2-8.7-1.38-12.72,1.94a82.19,82.19,0,0,1-15.49,10.64c-10.06,5-19.94,4.7-29.93.93a16.89,16.89,0,0,1-5.62-4c-4.94-4.74-10.49-3.84-15,1.73A41.73,41.73,0,0,1,1234,569.59c-1.23.57-2.44,1.27-3.75,1-8.51-1.47-17.74-1.31-23.81-8.42-1.22-1.43-2.83-1.66-5.22-1.18-8,1.59-14,6-19.87,10.74-1,.81-2,1.59-3,2.45-9.1,8.19-17.11,7.25-28.15,3.82-2.44-.76-4.6-2.24-6.88-3.4-9.42-4.81-14.88-3.89-22.83,3.56-3.26,3.06-6.34,6.31-10.4,8.63-4.62,2.64-9.22,4-14.35,1.67-1-.44-2.13-.51-3.12-.93-2-.83-4.58-.13-6.13-1.79s.1-3.49-.19-5.29c-.69-4.42-2.62-6-7.43-5.61a18.8,18.8,0,0,0-13,6.62A53,53,0,0,1,1051,592.85c-3.61,1.89-13.56.83-16.19-1.72a2.72,2.72,0,0,1-.84-2.77c.26-1,.71-2,1-2.94,1.36-5.68-.49-7.48-6.71-6.71a22.92,22.92,0,0,0-8.19,2.36c-2.31,1.23-4.68,2.46-7.48,2.32h0a1.3,1.3,0,0,1-.78,1.51Z"/><path class="cls-9" d="M1300.44,630.82c-4.79-2.43-8.77-2.11-13.08,1.12-5.13,3.85-10.38,7.53-16.44,10.16-10.57,4.59-20.61,3.53-30.55-1.21a17.37,17.37,0,0,1-5.47-4.67c-4.73-5.39-10.44-4.84-15.38.74a42.23,42.23,0,0,1-15.91,11.77c-1.28.51-2.56,1.17-3.88.83-8.58-2.19-18-2.7-23.72-10.69-1.15-1.61-2.78-2-5.24-1.64-8.22,1.12-14.62,5.34-20.92,9.95-1.08.79-2.18,1.54-3.21,2.39-9.79,8-17.89,6.44-28.91,2-2.44-1-4.55-2.71-6.8-4.12-9.29-5.79-14.91-5.22-23.48,2.12-3.52,3-6.86,6.23-11.13,8.39-4.88,2.46-9.65,3.58-14.73.73-.95-.54-2.14-.71-3.12-1.22-2-1-4.66-.47-6.13-2.35s.32-3.7.14-5.63c-.43-4.74-2.29-6.51-7.21-6.5-5.57,0-10,2.3-13.71,6.07a53.32,53.32,0,0,1-15.76,11c-3.79,1.74-13.87-.11-16.39-3a3,3,0,0,1-.67-3c.33-1,.84-2,1.15-3,1.66-5.65.12-7.77-5.57-7.64v26.84c8.14,7.24,18.44,6.22,29,3.73,5.05-1.18,9.86-3,13.8-6.57,1.94-1.74,3.56-1.52,5.55.62,11.72,12.64,33.18,11.39,46.33,5,6.28-3.07,11.42-7.61,16.86-12.44,4.13,6.77,10,11.11,17.86,11.71,14.27,1.08,27.9-.92,39.32-10.34,1.19-1,2.33-2,3.53-3,5.21-4.26,5.46-4.5,10.56.19,6.17,5.67,13.24,7.77,21.61,6.47a15.29,15.29,0,0,1,2.7-.22,35.46,35.46,0,0,0,25.3-9.16c2.24-2,3.9-2.39,6.26-.28,10.42,9.31,23.07,8.31,35.67,6.09a41.24,41.24,0,0,0,16.73-6.7c1.27-.89,3-1.57,3.7-2.77,3.43-5.74,8-6.47,14-4,4.21,1.76,8.82,1.41,13.33.81a27.23,27.23,0,0,0,4-9.27C1313.76,637,1307,634.12,1300.44,630.82Z"/><polygon class="cls-14" points="1644.14 903.95 1616.23 1298.29 1652.15 1285.71 1688.01 942.8 1644.14 903.95"/><path class="cls-15" d="M1210.3,1066.48l21,318.24,25.38,6.62s16.13-136.43,10.94-188.25-17.76-189-17.76-189Z"/><g class="cls-16"><g class="cls-17"><path class="cls-9" d="M935.2,743.23c4.38,3.47,9.35,1.88,14.13,1.57a15.19,15.19,0,0,0,4.32-1.29,3.55,3.55,0,0,1,4.89,1.74c6.94,12,18.15,12.3,29.92,10.78,4.91-.63,9.67-1.94,13.78-5,2-1.53,3.54-1.13,5.2,1.21,9.79,13.84,30.28,14.91,43.44,9.93,6.27-2.37,11.63-6.33,17.31-10.54,3.2,7.17,8.32,12.13,15.7,13.57,13.43,2.61,26.57,2.1,38.39-6,1.24-.85,2.43-1.76,3.67-2.61,5.39-3.67,5.66-3.88,10,1.33,5.26,6.31,11.74,9.16,19.82,8.77a13.89,13.89,0,0,1,2.58.08,32.75,32.75,0,0,0,25-6.38c2.34-1.73,4-2,6,.41,8.9,10.37,21,10.75,33.19,9.91a38.07,38.07,0,0,0,16.58-4.85c1.3-.75,3-1.24,3.8-2.35,3.86-5.34,8.28-5.57,13.71-2.42,3.8,2.2,8.21,2.35,12.56,2.24a28,28,0,0,0,4.75-8.78c-6-3.75-12.15-7.31-18-11.3-4.29-2.93-8.1-3-12.52-.29-5.28,3.27-10.65,6.35-16.68,8.32-10.51,3.42-19.92,1.28-28.85-4.51a17,17,0,0,1-4.69-5.23c-3.92-5.88-9.4-6-14.67-.93-4.68,4.46-10,8.11-16.34,10-1.27.38-2.55.89-3.77.41-7.91-3.1-16.78-4.62-21.37-13.19-.93-1.72-2.43-2.26-4.8-2.19-7.92.21-14.44,3.72-20.9,7.62-1.11.67-2.24,1.3-3.3,2-10.13,6.91-17.65,4.47-27.64-1.15-2.21-1.24-4-3.19-6-4.83-8.2-6.76-13.6-6.8-22.5-.43-3.65,2.61-7.16,5.45-11.45,7.14-4.89,1.92-9.53,2.51-14.05-.88-.85-.63-1.95-.93-2.83-1.54-1.75-1.23-4.37-1-5.57-3s.7-3.65.73-5.58c.1-4.76-1.48-6.72-6.15-7.24-5.28-.59-9.69,1.2-13.65,4.54a50.37,50.37,0,0,1-16.11,9.21c-3.78,1.31-13.14-1.61-15.23-4.77a3.14,3.14,0,0,1-.32-3.06c.42-1,1-1.91,1.41-2.91,2.28-5.7.83-7.92-5.27-8.26a20.7,20.7,0,0,0-8.26,1c-2.42.87-4.9,1.73-7.57,1.07h0a1.38,1.38,0,0,1-1,1.44Z"/><path class="cls-9" d="M891.16,825.77c4.17,3.71,9.22,2.39,14,2.35a15.17,15.17,0,0,0,4.37-1.06,3.55,3.55,0,0,1,4.79,2c6.28,12.33,17.45,13.29,29.29,12.42,4.94-.37,9.76-1.41,14-4.28,2.11-1.41,3.6-.93,5.13,1.5,9,14.35,29.42,16.54,42.83,12.29,6.4-2,12-5.68,17.86-9.57,2.8,7.34,7.64,12.56,14.94,14.41,13.26,3.35,26.41,3.56,38.66-3.92,1.28-.78,2.52-1.62,3.81-2.4,5.58-3.37,5.86-3.57,9.91,1.87a22.92,22.92,0,0,0,19.31,9.85,13.79,13.79,0,0,1,2.57.22,32.82,32.82,0,0,0,25.29-5c2.42-1.6,4-1.73,5.94.73,8.32,10.85,20.38,11.89,32.6,11.72a38.23,38.23,0,0,0,16.82-3.94c1.33-.68,3.05-1.07,3.92-2.14,4.15-5.11,8.57-5.1,13.82-1.66,3.68,2.41,8.07,2.8,12.42,2.93a27.86,27.86,0,0,0,5.22-8.51c-5.79-4.07-11.73-8-17.34-12.27-4.13-3.16-7.93-3.48-12.5-1-5.44,3-11,5.76-17.1,7.39-10.68,2.84-20,.19-28.57-6.07a17.11,17.11,0,0,1-4.39-5.49c-3.6-6.08-9.06-6.45-14.6-1.73-4.91,4.19-10.41,7.55-16.86,9.06-1.29.31-2.59.75-3.79.2-7.72-3.53-16.5-5.53-20.61-14.34-.83-1.77-2.31-2.39-4.68-2.45-7.92-.22-14.62,2.93-21.28,6.47-1.14.6-2.3,1.17-3.41,1.84-10.49,6.35-17.87,3.49-27.53-2.66-2.14-1.36-3.85-3.41-5.74-5.15-7.81-7.21-13.2-7.54-22.44-1.67-3.79,2.4-7.45,5-11.83,6.5-5,1.65-9.65,2-14-1.64-.82-.68-1.91-1-2.74-1.7-1.68-1.33-4.31-1.21-5.4-3.3s.89-3.6,1-5.53c.36-4.75-1.11-6.79-5.75-7.57-5.24-.88-9.74.67-13.87,3.79a50.36,50.36,0,0,1-16.59,8.31c-3.85,1.11-13-2.33-15-5.59a3.14,3.14,0,0,1-.15-3.08c.47-1,1.12-1.85,1.57-2.82,2.59-5.57,1.26-7.87-4.81-8.54a20.47,20.47,0,0,0-8.31.52c-2.46.73-5,1.45-7.61.65h0a1.39,1.39,0,0,1-1.09,1.39Z"/><path class="cls-9" d="M838.93,907.57c4,3.86,9.13,2.73,13.92,2.87a15.24,15.24,0,0,0,4.41-.89,3.55,3.55,0,0,1,4.71,2.18c5.82,12.55,16.94,13.93,28.8,13.51,5-.18,9.81-1,14.19-3.74,2.16-1.34,3.63-.8,5.06,1.69,8.47,14.67,28.78,17.63,42.34,13.89,6.47-1.78,12.17-5.22,18.21-8.89,2.52,7.44,7.16,12.84,14.38,15,13.13,3.84,26.26,4.55,38.79-2.46,1.31-.73,2.58-1.53,3.89-2.26,5.71-3.15,6-3.34,9.84,2.25a22.93,22.93,0,0,0,18.92,10.57,12.89,12.89,0,0,1,2.56.31,32.8,32.8,0,0,0,25.46-4c2.48-1.51,4.11-1.58,5.9,1,7.91,11.16,19.93,12.65,32.14,12.94a38.13,38.13,0,0,0,17-3.3c1.36-.63,3.09-1,4-2,4.34-5,8.76-4.78,13.87-1.15,3.59,2.55,8,3.1,12.3,3.4a27.66,27.66,0,0,0,5.54-8.31c-5.64-4.28-11.42-8.39-16.87-12.91-4-3.31-7.78-3.78-12.45-1.45-5.55,2.77-11.18,5.35-17.37,6.74-10.78,2.44-20-.56-28.31-7.14a17.09,17.09,0,0,1-4.19-5.65c-3.36-6.21-8.81-6.79-14.52-2.28-5.07,4-10.69,7.16-17.19,8.42-1.3.26-2.62.65-3.79.06-7.59-3.82-16.29-6.15-20.07-15.11-.76-1.8-2.21-2.47-4.57-2.63-7.91-.51-14.72,2.38-21.52,5.67-1.16.56-2.34,1.08-3.47,1.71-10.73,6-18,2.82-27.41-3.69-2.09-1.44-3.72-3.55-5.55-5.37-7.53-7.49-12.9-8-22.36-2.51-3.88,2.26-7.63,4.77-12.06,6.05-5,1.46-9.72,1.63-13.9-2.16-.79-.72-1.87-1.11-2.68-1.8-1.63-1.39-4.26-1.38-5.27-3.51s1-3.56,1.25-5.48c.53-4.74-.87-6.83-5.47-7.79-5.2-1.07-9.76.31-14,3.27a50.32,50.32,0,0,1-16.89,7.68c-3.89,1-13-2.82-14.73-6.15a3.13,3.13,0,0,1,0-3.08c.5-1,1.18-1.81,1.67-2.76,2.8-5.47,1.55-7.82-4.49-8.72a20.65,20.65,0,0,0-8.32.21c-2.48.64-5,1.26-7.63.36h0a1.36,1.36,0,0,1-1.14,1.34Z"/></g></g><g class="cls-18"><g class="cls-17"><path class="cls-9" d="M1061.35,385.92c5.16,2,9.4-1,13.84-2.66a14.8,14.8,0,0,0,3.7-2.5,3.52,3.52,0,0,1,5.14.21c10.09,9.28,20.8,6.32,31.49,1.42,4.47-2.05,8.59-4.68,11.57-8.82,1.47-2,3-2.11,5.28-.38,13.33,10.22,33,5.21,44-3.37,5.24-4.09,9.15-9.4,13.28-15.06,5.14,5.85,11.44,9,18.86,8.23,13.47-1.47,25.76-5.81,34.57-17,.92-1.17,1.78-2.38,2.7-3.55,4-5.06,4.22-5.34,9.86-1.68a22.69,22.69,0,0,0,21.33,2.48,13.52,13.52,0,0,1,2.47-.68,32.55,32.55,0,0,0,21.77-13.38c1.69-2.33,3.16-3,5.77-1.37,11.47,7.2,23,4,34.33-.37a37.75,37.75,0,0,0,14.27-9.47c1-1.09,2.47-2.05,2.9-3.34,2.09-6.19,6.2-7.71,12.27-6.32,4.25,1,8.47-.19,12.55-1.57a27.6,27.6,0,0,0,1.91-9.71c-6.79-1.78-13.64-3.34-20.35-5.4-4.92-1.52-8.56-.5-11.94,3.4-4,4.64-8.21,9.14-13.34,12.77-8.95,6.33-18.48,7.07-28.64,4.22a17.13,17.13,0,0,1-6-3.57c-5.43-4.41-10.64-2.87-14.15,3.43-3.12,5.59-7.07,10.61-12.54,14.24-1.09.73-2.15,1.59-3.45,1.49-8.39-.61-17.24.56-24.1-6.2-1.39-1.36-3-1.43-5.2-.67-7.43,2.53-12.56,7.77-17.54,13.36-.85,1-1.73,1.89-2.52,2.89-7.56,9.52-15.4,9.42-26.5,7-2.46-.53-4.75-1.84-7.11-2.8-9.75-4-14.87-2.45-21.43,6.19-2.69,3.55-5.17,7.27-8.74,10.13-4.06,3.25-8.28,5.18-13.55,3.3-1-.36-2.12-.31-3.13-.63-2-.66-4.42.36-6.16-1.21s-.41-3.65-1-5.49c-1.31-4.53-3.38-5.93-8-5-5.17,1-8.82,4-11.58,8.32a50.08,50.08,0,0,1-12.55,13.45c-3.19,2.35-12.91,2.34-15.81,0a3.1,3.1,0,0,1-1.21-2.81c.11-1.06.4-2.1.49-3.16.48-6.07-1.55-7.75-7.42-6.27a20.31,20.31,0,0,0-7.54,3.35c-2,1.53-4.13,3.07-6.85,3.23h0a1.36,1.36,0,0,1-.53,1.66Q1064.18,376.05,1061.35,385.92Z"/><path class="cls-9" d="M1041.3,467.42c5.56,2.16,10.13-1,14.91-2.87a16.24,16.24,0,0,0,4-2.68c2-1.55,3.73-1.44,5.54.22,10.87,10,22.41,6.8,33.93,1.53,4.81-2.21,9.25-5.05,12.46-9.5,1.58-2.2,3.26-2.27,5.69-.41,14.36,11,35.6,5.61,47.45-3.63,5.65-4.41,9.86-10.14,14.31-16.23,5.54,6.3,12.33,9.73,20.32,8.86,14.52-1.58,27.76-6.26,37.25-18.3,1-1.26,1.92-2.57,2.91-3.82,4.34-5.45,4.54-5.76,10.62-1.81,7.36,4.77,14.88,5.62,23,2.67a14.82,14.82,0,0,1,2.66-.74,35,35,0,0,0,23.45-14.41c1.83-2.51,3.41-3.25,6.22-1.48,12.37,7.76,24.83,4.31,37-.4a40.74,40.74,0,0,0,15.37-10.2c1.08-1.18,2.66-2.21,3.13-3.6,2.25-6.67,6.68-8.3,13.21-6.81,4.58,1,9.13-.21,13.52-1.69a29.53,29.53,0,0,0,2.07-10.47c-7.32-1.91-14.71-3.6-21.93-5.82-5.3-1.63-9.22-.53-12.87,3.67-4.34,5-8.84,9.85-14.37,13.76-9.64,6.82-19.92,7.62-30.86,4.55a18.34,18.34,0,0,1-6.44-3.85c-5.86-4.76-11.47-3.1-15.26,3.69-3.35,6-7.61,11.44-13.5,15.35-1.18.78-2.32,1.71-3.72,1.61-9-.66-18.58.6-26-6.69-1.49-1.46-3.2-1.53-5.59-.72-8,2.73-13.55,8.38-18.9,14.4-.92,1-1.87,2-2.73,3.11-8.14,10.26-16.59,10.15-28.55,7.59-2.65-.57-5.12-2-7.66-3-10.51-4.31-16-2.64-23.09,6.67-2.9,3.82-5.58,7.84-9.41,10.91-4.38,3.51-8.93,5.59-14.6,3.56-1.07-.38-2.3-.33-3.38-.68-2.18-.7-4.77.39-6.63-1.3s-.45-3.93-1-5.92c-1.41-4.88-3.64-6.38-8.57-5.44-5.57,1.07-9.5,4.3-12.48,9a53.59,53.59,0,0,1-13.51,14.49c-3.45,2.54-13.92,2.52-17,0a3.31,3.31,0,0,1-1.3-3c.11-1.14.43-2.27.52-3.41.52-6.54-1.67-8.35-8-6.75a21.81,21.81,0,0,0-8.12,3.6c-2.2,1.65-4.46,3.31-7.38,3.49h0a1.46,1.46,0,0,1-.57,1.79Q1044.33,456.8,1041.3,467.42Z"/><path class="cls-9" d="M1024.59,545.5c5.27,2,9.6-1,14.14-2.72a15.62,15.62,0,0,0,3.78-2.55,3.59,3.59,0,0,1,5.25.21c10.31,9.48,21.26,6.45,32.18,1.45,4.57-2.09,8.78-4.78,11.82-9,1.5-2.09,3.09-2.15,5.39-.39,13.63,10.44,33.77,5.33,45-3.44,5.36-4.18,9.35-9.61,13.58-15.39,5.25,6,11.69,9.23,19.27,8.4,13.77-1.5,26.32-5.94,35.32-17.36.94-1.19,1.82-2.43,2.77-3.62,4.11-5.17,4.3-5.45,10.07-1.72a23.21,23.21,0,0,0,21.8,2.54,13.86,13.86,0,0,1,2.52-.7,33.22,33.22,0,0,0,22.24-13.67c1.73-2.38,3.23-3.08,5.9-1.4,11.72,7.36,23.54,4.09,35.08-.38a38.68,38.68,0,0,0,14.58-9.68c1-1.11,2.52-2.09,3-3.41,2.13-6.32,6.33-7.87,12.53-6.46,4.34,1,8.65-.19,12.82-1.6a27.9,27.9,0,0,0,2-9.92c-6.94-1.82-13.94-3.42-20.79-5.53-5-1.54-8.75-.51-12.21,3.48-4.12,4.75-8.39,9.35-13.63,13.06-9.14,6.46-18.89,7.22-29.26,4.3a17.33,17.33,0,0,1-6.11-3.65c-5.56-4.5-10.88-2.93-14.47,3.51-3.18,5.71-7.22,10.84-12.81,14.55-1.11.74-2.2,1.63-3.52,1.53-8.58-.63-17.62.56-24.63-6.34-1.41-1.39-3-1.46-5.31-.68-7.59,2.58-12.84,7.94-17.92,13.65-.87,1-1.77,1.92-2.58,2.95-7.73,9.73-15.74,9.62-27.08,7.19-2.51-.54-4.86-1.87-7.27-2.86-10-4.09-15.19-2.5-21.89,6.33-2.75,3.62-5.29,7.43-8.93,10.34-4.15,3.33-8.47,5.3-13.85,3.38-1-.36-2.17-.31-3.2-.65-2.06-.66-4.52.38-6.29-1.23s-.43-3.73-1-5.61c-1.34-4.63-3.46-6.06-8.13-5.16-5.28,1-9,4.08-11.83,8.5a51,51,0,0,1-12.82,13.74c-3.27,2.41-13.2,2.39-16.16,0a3.12,3.12,0,0,1-1.23-2.86c.11-1.09.4-2.15.49-3.24.49-6.2-1.58-7.91-7.58-6.4a20.84,20.84,0,0,0-7.7,3.42c-2.08,1.56-4.22,3.14-7,3.3h0a1.39,1.39,0,0,1-.55,1.7Z"/></g></g><polygon class="cls-19" points="1163.47 1010.89 1110.32 1002.31 1158.45 1060.53 1210.3 1066.48 1230.38 964.08 1163.47 1010.89"/><path class="cls-15" d="M1392.12,202.61l-43.46,33.11s87.57,315-238.34,766.59c0,0,32.54,12.71,53.15,8.58,7.27-1.46,37.35-8.53,41.94-26.82S1309.5,837,1309.5,837l98.14-296.66,16.79-223.93L1409.61,232Z"/><path class="cls-19" d="M1456,506.12s123.53,367.11,235.56,466.47l38.34,9.2S1563,730.52,1556.7,689s-87.45-251.55-87.45-251.55Z"/><path class="cls-14" d="M1163.47,1010.89l15.41,19.71,7.38,8.24,24,27.64s10.6-9.41,27.63-28.92c57.66-66,189.07-247.8,232.94-571.78,0,0,119.34,375.07,259,516l16.89-28.86,5.64-9.29,15-24.77S1692.1,872.77,1523,413.31c0,0-34.16-159.46-33.88-200.7l-97-10S1455,614.26,1163.47,1010.89Z"/><path class="cls-15" d="M1579.1,706.06a7.78,7.78,0,0,0-3.12-9.46c-107-66.38-196.09-13.34-223.09,15.13-8.8,9.27-8.83,17.29-7.63,34.8l2.54,46.76a14.72,14.72,0,0,0,6.76,11.6l8,5.11,5.13-13,190.22-37Z"/><path class="cls-20" d="M1362.53,810l-2.94-54.29c-1.2-17.52-1.17-25.53,7.62-34.81,27-28.5,94.9-78,208.83-23.47a8.25,8.25,0,0,1,4.62,8.54l-7.23,54a12.9,12.9,0,0,1-10.32,11Z"/><path class="cls-21" d="M1549.78,747.73l-4.93.06c-23.69-28.36-45.18-18.06-45.18-18.06l-16-2.86c23-8.94,20.9-23.88,20.9-23.88-31.32-5.21-39.32,21.68-39.32,21.68-6.21-.86-18,1.09-18,1.09,7.42-13.58-3.83-27-3.83-27-28.12,12.16-19.7,31.68-19.7,31.68-12.91,3-23.33,13.79-27.43,18.57a4.91,4.91,0,0,0-.44,5.79c2.41,3.83,6.33,3.7,8.8,3.14a4.91,4.91,0,0,0,2.57-1.54h0l4.72-5.2-2.55-2.27c9.73-15.06,15.45-7.08,15.45-7.08,10.53,33.53,43.51,30.6,43.51,30.6l4.7-5.19-4.8-.44c-2.27-20.11-25.13-32.06-25.13-32.06,3.19-2.37,21.17-1.89,21.17-1.89,1.19,31.65,30,34.72,30,34.72l4.7-5.19-3.12-1.33c1.27-10.89-7.86-26.27-7.86-26.27l3.85.65c28,29.93,55.8,17.55,55.8,17.55l4.71-5.18Z"/><path class="cls-22" d="M1401,743.8c4.1-4.78,14.52-15.56,27.43-18.56,0,0-8.43-19.53,19.7-31.68,0,0,11.25,13.44,3.83,27,0,0,11.81-2,18-1.09,0,0,8-26.89,39.32-21.68,0,0,2.15,15-20.9,23.88l16,2.86s23.38-8.67,48,23.26c0,0-27.84,12.37-55.81-17.55l-3.85-.66s13.34,23.29,6.28,32.79c0,0-28.83-3.07-30-34.72,0,0-18-.48-21.17,1.89,0,0,27.19,14.19,25.23,37.69,0,0-33,2.93-43.5-30.6,0,0-6.27-4.58-17.06,13.79a4.94,4.94,0,0,1-3.14,2.3c-2.46.56-6.39.69-8.8-3.13A4.92,4.92,0,0,1,1401,743.8Z"/><path class="cls-15" d="M1373.8,935.14,1458,854.86s10-10.92,33.54,8.29-96.73,99-96.73,99Z"/><path class="cls-19" d="M1400.06,948.45l-26.26-13.31,15.73,154.72s25.39,14.55,44.87,15.72S1400.06,948.45,1400.06,948.45Z"/><path class="cls-14" d="M1396.73,956.53l17.86,133.52a18,18,0,0,0,19.81,15.53l106.15-11.45a18,18,0,0,0,16-16.36l12.08-138.12a23.81,23.81,0,0,0-8.65-20.51l-68.49-56a17,17,0,0,0-23.3,1.75l-65.53,72.44A23.84,23.84,0,0,0,1396.73,956.53Z"/><path class="cls-23" d="M1418.59,968.4l13.35,94.45c1,6.86,7.49,11.74,14.69,11l78.61-8a13,13,0,0,0,11.86-11.55l8.82-97.67a16.56,16.56,0,0,0-6.43-14.52l-50.78-39.67a13,13,0,0,0-17.26,1.22L1423,954.83A16.36,16.36,0,0,0,1418.59,968.4Z"/><polygon class="cls-14" points="1476.5 891.31 1480.17 1084.4 1492.52 1081.22 1487 888 1476.5 891.31"/><polygon class="cls-14" points="1409.34 996.34 1557.7 988.19 1555.33 975.92 1406.87 985.93 1409.34 996.34"/><path class="cls-14" d="M489.75,884.42l-73.66-59.95s-8.89-8.24-26.77,8.9,85.08,74.35,85.08,74.35Z"/><path class="cls-14" d="M469.23,896.93l20.52-12.51-2.88,126.93s-19.74,13.47-35.51,15.67S469.23,896.93,469.23,896.93Z"/><path class="cls-15" d="M472.46,903.29l-6,109.82A14.71,14.71,0,0,1,451.36,1027l-87.13-2.51a14.73,14.73,0,0,1-14.1-12.29L331.44,900.58a19.44,19.44,0,0,1,5.73-17.25l52.15-50a13.83,13.83,0,0,1,19.08-.07l58,54.75A19.51,19.51,0,0,1,472.46,903.29Z"/><path class="cls-23" d="M455.43,914.36l-4.81,77.73a10.85,10.85,0,0,1-11.25,9.9l-64.5-1.48a10.62,10.62,0,0,1-10.39-8.64L351,912.94a13.54,13.54,0,0,1,4.3-12.23l38.79-35.54a10.59,10.59,0,0,1,14.12-.12L451,903.59A13.39,13.39,0,0,1,455.43,914.36Z"/><polygon class="cls-15" points="403.35 855.32 412.75 1012.72 402.49 1010.92 394.59 853.3 403.35 855.32"/><polygon class="cls-15" points="464.75 936.5 343.47 939.38 344.61 929.25 466.09 927.87 464.75 936.5"/><path class="cls-15" d="M789.77,693.56l-59.28-26.44L720,559.73A16.61,16.61,0,0,1,734,542l46.67-7.23s17.58,51.91,14.73,75S789.77,693.56,789.77,693.56Z"/><path class="cls-14" d="M789.77,693.56l-9.07-158.8,28.28,3a15.8,15.8,0,0,1,14.1,14.47L827,602Z"/><polygon class="cls-14" points="1240.79 1014.42 1256.64 1391.34 1293.81 1378.46 1277.06 980.22 1240.79 1014.42"/><path class="cls-15" d="M618.83,952.17l15.28,432.09,25.66,11S675.9,1258.82,670.71,1207s-12.35-307.27-12.35-307.27Z"/><polygon class="cls-14" points="650.51 974.05 659.77 1395.25 696.94 1382.37 696.94 989.81 650.51 974.05"/><polygon class="cls-7" points="1691.87 1285.57 1695.94 1382.39 1261.31 1530.41 1254.65 1408.45 1691.87 1285.57"/><polygon class="cls-6" points="1254.65 1408.45 1261.31 1530.41 831.01 1395.5 826.79 1295.11 1254.65 1408.45"/><polygon class="cls-13" points="1256.11 1449.53 1440.6 1493.71 1759.49 1387.22 1616.8 1353.57 1256.11 1449.53"/><polygon class="cls-6" points="1261.31 1530.41 1444.35 1583.04 1440.6 1493.71 1256.11 1449.53 1261.31 1530.41"/><path class="cls-7" d="M1444.35,1583,1753,1461.26a14.21,14.21,0,0,0,9-13.82l-2.53-60.22L1440.6,1493.71Z"/><path class="cls-19" d="M1665.78,1192.71l-1.76-41.88a23.15,23.15,0,0,0-19.16-21.83l-49.94-8.68h0a27,27,0,0,0-2.08,22.71l.45,1.24,44,7.78-2.09,41.94S1653.44,1199.55,1665.78,1192.71Z"/><path class="cls-19" d="M1546.54,1210.23l-1.8-42.94a23.73,23.73,0,0,0-19.65-22.38l-51.19-8.9h0a27.8,27.8,0,0,0-1.8,24.24l.13.32,45.13,8-2.14,43S1533.89,1217.24,1546.54,1210.23Z"/><path class="cls-19" d="M1416.75,1227.37l-1.86-44.09a24.37,24.37,0,0,0-20.17-23l-52.58-9.14-.16.32a32.23,32.23,0,0,0-1.55,24.91h0l46.35,8.19-2.2,44.16S1403.75,1234.58,1416.75,1227.37Z"/><path class="cls-24" d="M1672.9,1195s1.51,51.91,9.18,62.27,81.25,69,10.23,127.21c0,0-37.7,27.65-70.16,4.2-29.83-21.56-52.48-41-25-97.75,3.44-7.1,12-20.86,16.66-27.24,6.54-9,14.6-25,9.83-65.75Z"/><path class="cls-25" d="M1627.24,1190.57a4.86,4.86,0,0,0-5.94,2c-1.16,2.1-.44,5,8,7.9,15.8,5.37,45,2.33,47.36-6.9.69-2.72-1.18-3.54-3-3.72a8.1,8.1,0,0,0-4.19.76C1665.06,1192.68,1649.14,1198.61,1627.24,1190.57Z"/><path class="cls-26" d="M1600.44,1303.62s46.84-25.77,102.1-3l-40.73,22.14Z"/><path class="cls-21" d="M1600.44,1303.62s-7,89.27,56.44,87.42,45.66-90.41,45.66-90.41S1656.39,1323.85,1600.44,1303.62Z"/><path class="cls-24" d="M1556.65,1212.44s1.67,57.21,10.12,68.63,89.56,76,11.27,140.21c0,0-41.54,30.47-77.32,4.62-32.87-23.75-57.83-45.22-27.54-107.73,3.8-7.83,13.26-23,18.38-30,7.2-9.9,16.08-27.56,10.83-72.46Z"/><path class="cls-25" d="M1506.33,1207.56a5.37,5.37,0,0,0-6.55,2.24c-1.28,2.31-.48,5.54,8.85,8.71,17.42,5.92,49.62,2.57,52.2-7.61.76-3-1.3-3.9-3.3-4.1a9.13,9.13,0,0,0-4.63.83C1548,1209.89,1530.47,1216.43,1506.33,1207.56Z"/><path class="cls-26" d="M1476.79,1332.15s51.63-28.39,112.54-3.28l-44.9,24.39Z"/><path class="cls-21" d="M1476.79,1332.15s-7.71,98.4,62.21,96.36,50.33-99.64,50.33-99.64S1538.45,1354.45,1476.79,1332.15Z"/><path class="cls-22" d="M1600.44,1303.62s-7.23,81.51,56.21,79.66,45.89-82.65,45.89-82.65S1656.33,1321.94,1600.44,1303.62Z"/><path class="cls-22" d="M1476.79,1332.15s-8,88.36,61.92,86.32,50.62-89.6,50.62-89.6S1538.38,1352,1476.79,1332.15Z"/><path class="cls-24" d="M1427.82,1229.6s1.81,62.12,11,74.52,97.23,82.54,12.23,152.23c0,0-45.11,33.09-84,5-35.7-25.79-62.8-49.1-29.9-117,4.12-8.5,14.39-25,20-32.6,7.82-10.75,17.47-29.92,11.76-78.68Z"/><path class="cls-25" d="M1373.18,1224.31a5.8,5.8,0,0,0-7.11,2.43c-1.39,2.51-.53,6,9.61,9.45,18.91,6.43,53.87,2.79,56.68-8.26.82-3.26-1.41-4.23-3.59-4.45a9.78,9.78,0,0,0-5,.9C1418.44,1226.83,1399.39,1233.93,1373.18,1224.31Z"/><path class="cls-26" d="M1341.11,1359.58s56.06-30.83,122.19-3.57l-48.75,26.49Z"/><path class="cls-21" d="M1341.11,1359.58s-8.38,106.84,67.54,104.62S1463.3,1356,1463.3,1356,1408.06,1383.79,1341.11,1359.58Z"/><path class="cls-22" d="M1341.11,1359.58s-8.69,96.24,67.23,94,55-97.59,55-97.59S1408,1381.19,1341.11,1359.58Z"/><polygon class="cls-11" points="1008.33 1318.32 1097.29 1341.41 1095.44 1129.43 1038.79 1069.23 993.77 1117.71 1007.47 1297.83 1008.33 1318.32"/><path class="cls-14" d="M975,1309.23l23.79,6.32L992,1275.89l12.59,41.24,17.41,4.72-8.15-197.75a14.42,14.42,0,0,1,3.61-10.17l19.62-22.19a14.44,14.44,0,0,1,21.69.08l28.56,38.19a14.49,14.49,0,0,1,3.55,9.5l4.6,201.44,21.7,5.71,5.61-23,2.29,25,18.11,4.77-6.2-235.1a27.61,27.61,0,0,0-7.19-17.81l-58.42-64a27.53,27.53,0,0,0-39.4-1.3l-56.83,54.52a27.56,27.56,0,0,0-8.45,21Z"/><path class="cls-15" d="M966.44,1307l18.54,4.51,10.22,3.07,18.48,5.16-8.33-195.26a14.4,14.4,0,0,1,3.61-10.16l19.62-22.19a14.43,14.43,0,0,1,21.69.08l28.56,38.19a14.4,14.4,0,0,1,3.55,9.49l4.59,198.86,20.79,5.48,8.58,2.26,18.84,5-6.69-232.66a27.5,27.5,0,0,0-7.19-17.8l-58.42-64a27.54,27.54,0,0,0-39.4-1.31l-56.83,54.53a27.5,27.5,0,0,0-8.44,21Z"/><path class="cls-9" d="M1031.44,1324.32c-.43-8-3.18-198.87-3.18-198.87l8.86-22.42,6,142.75,5.22-12-.63-112,8.44,3.39-.59,183.29L1064,1312l0-178.75,10,5.61,4.53,197.4Z"/><path class="cls-6" d="M908.6,1398l-4-36,171.75,33.53-15.06,58.81,34-22.82,12.45,50.73-46.13,12.84a32.46,32.46,0,0,1-22.55-1.9l-155.14-64-3.35-30.38Z"/><polygon class="cls-13" points="1052.73 1412.72 911.51 1356.01 938.86 1349.39 1084.5 1398.29 1052.73 1412.72"/><polygon class="cls-13" points="904.28 1386.33 880.28 1392.59 1040.16 1460.61 1067.9 1445.95 904.28 1386.33"/><polygon class="cls-27" points="718.27 986.2 718.27 998.08 819.86 978.05 819.86 965.09 718.27 986.2"/><path class="cls-14" d="M177.77,988.18l31.45-8S402.09,758.13,402.09,578.29l-36.55-29.75Z"/><path class="cls-14" d="M418.24,497.54l23.8,7.37s-23.8,53.58,309.38,489.19l-39,26.27L494.17,709.61S379.71,525.31,418.24,497.54Z"/><path class="cls-19" d="M737.82,998.08l13.6-4-49.86,44.2-11.33,1.51S718.18,995.26,737.82,998.08Z"/><path class="cls-15" d="M737.82,998.08S463.24,653.91,418.24,497.54H359.65S245.13,801.2,131.81,942l46,46.18s184-246.7,209-403.94c0,0,73.95,231.18,303.44,455.57Z"/><polygon class="cls-13" points="746.52 1355.96 503.31 1432.66 177.71 1337.78 302.4 1302.35 746.52 1355.96"/><polygon class="cls-6" points="684.23 1440.42 505.85 1522.04 503.31 1432.66 684.23 1375.6 684.23 1440.42"/><path class="cls-6" d="M505.85,1522,189.37,1422.3a14.23,14.23,0,0,1-10-13.16l-1.71-71.36,325.15,83.42Z"/><path class="cls-14" d="M252,1140.54l-1.15-40.64a22.44,22.44,0,0,1,17-22.43l47.72-11.81h0a26.17,26.17,0,0,1,3.56,21.83l-.35,1.24-42.06,10.53,4.89,40.43S264.36,1146.31,252,1140.54Z"/><path class="cls-14" d="M368.51,1149.34l-1.19-41.66a23,23,0,0,1,17.48-23l48.92-12.11h0a26.94,26.94,0,0,1,3.39,23.32l-.1.33L393.89,1107l5,41.46S381.23,1155.26,368.51,1149.34Z"/><path class="cls-14" d="M495.25,1157.07,494,1114.28a23.66,23.66,0,0,1,18-23.62l50.24-12.43.18.3a31.23,31.23,0,0,1,3.2,24h0l-44.28,11.09,5.15,42.57S508.31,1163.15,495.25,1157.07Z"/><path class="cls-28" d="M245.22,1143.24s2.08,50.32-4.63,60.87-73.9,72.28-1.21,123.77c0,0,38.36,24.17,68.16-.73,27.39-22.89,48-43.28,17.5-96.28-3.81-6.63-13.06-19.35-18-25.21-6.93-8.24-15.83-23.2-14-62.94Z"/><path class="cls-29" d="M289.09,1135.84a4.71,4.71,0,0,1,5.89,1.56c1.26,1.95.77,4.83-7.23,8.19-14.93,6.27-43.4,5.33-46.29-3.45-.86-2.58.89-3.5,2.64-3.8a7.9,7.9,0,0,1,4.11.45C252.65,1140.46,268.45,1145.11,289.09,1135.84Z"/><path class="cls-30" d="M322.74,1243.37s-47.08-21.72-99,4.09l40.92,18.63Z"/><path class="cls-31" d="M322.74,1243.37s12.87,85.9-48.63,88.44-50.36-84.35-50.36-84.35S270,1266.77,322.74,1243.37Z"/><path class="cls-28" d="M358.88,1152.18s2.29,55.46-5.11,67.09-81.45,79.66-1.33,136.41c0,0,42.28,26.64,75.12-.81,30.19-25.22,52.87-47.7,19.29-106.11-4.21-7.31-14.39-21.33-19.82-27.79-7.65-9.08-17.45-25.56-15.43-69.36Z"/><path class="cls-29" d="M407.23,1144a5.19,5.19,0,0,1,6.49,1.72c1.39,2.15.84,5.32-8,9-16.45,6.91-47.83,5.87-51-3.8-.94-2.85,1-3.86,2.91-4.19a8.69,8.69,0,0,1,4.54.49C367.06,1149.12,384.48,1154.24,407.23,1144Z"/><path class="cls-30" d="M444.31,1262.54s-51.89-24-109.09,4.5l45.1,20.54Z"/><path class="cls-31" d="M444.31,1262.54s14.19,94.67-53.6,97.47-55.49-93-55.49-93S386.18,1288.32,444.31,1262.54Z"/><path class="cls-32" d="M322.74,1243.37s12.56,78.37-48.95,80.91-50-76.82-50-76.82S269.92,1264.92,322.74,1243.37Z"/><path class="cls-32" d="M444.31,1262.54s13.79,84.94-54,87.74S335.22,1267,335.22,1267,386.08,1285.93,444.31,1262.54Z"/><path class="cls-28" d="M484.7,1160s2.48,60.22-5.55,72.85-88.44,86.49-1.44,148.11c0,0,45.9,28.93,81.56-.87,32.78-27.39,57.4-51.8,20.94-115.22-4.56-7.94-15.63-23.16-21.52-30.17-8.3-9.87-19-27.76-16.76-75.32Z"/><path class="cls-29" d="M537.19,1151.12a5.64,5.64,0,0,1,7,1.87c1.51,2.33.92,5.78-8.65,9.8-17.86,7.51-51.94,6.38-55.4-4.12-1-3.1,1.07-4.19,3.16-4.55a9.49,9.49,0,0,1,4.92.53C493.58,1156.66,512.5,1162.22,537.19,1151.12Z"/><path class="cls-30" d="M577.46,1279.81s-56.34-26-118.46,4.89l49,22.3Z"/><path class="cls-31" d="M577.46,1279.81s15.4,102.79-58.2,105.83S459,1284.7,459,1284.7,514.34,1307.8,577.46,1279.81Z"/><path class="cls-32" d="M577.46,1279.81s15,92.51-58.63,95.55S459,1284.7,459,1284.7,514.23,1305.28,577.46,1279.81Z"/><polygon class="cls-7" points="505.74 1522.3 831.01 1395.5 826.55 1289.42 502.86 1421.2 505.74 1522.3"/><polygon class="cls-13" points="593.1 1367.17 847.91 1279.8 848.57 1286.71 556.73 1399.27 593.1 1367.17"/><polygon class="cls-13" points="1254.65 1408.45 826.79 1295.11 839.82 1286.71 1254.65 1408.45"/><path class="cls-2" d="M328.17,1471c-18.08-34-2.26-49-4.25-58,0,0-28,22.55-19.38,45.58l-14.82-24.19s7-30.4-13.77-52.49c0,0,6.64,68.68-5.56,71.34,0,0,1-25-11.29-31.34,0,0-2.1,36.26-1.74,45.7C258.71,1502.44,336.7,1487,328.17,1471Z"/><path class="cls-2" d="M519,1528.56s-9.35-85.63-28.85-95.9c0,0,1.73,69.94-10.74,78s-33.92-60.12-33.92-60.12-18.12,50.2.46,71.2S519,1528.56,519,1528.56Z"/><path class="cls-2" d="M500.14,1520.08s32.39-31.66,42.46-53.32c0,0,.16,43.87-19.05,61.72S500.14,1520.08,500.14,1520.08Z"/><path class="cls-2" d="M1334.39,1494c5.4,12.23-.18,38.52-5.2,56.74-3.83-10.09-13.29-33.76-13.29-33.76.45,25.44,2.23,65.44,2.23,65.44s3.74-5.49,7.13-11.86c6,1.22,23.65,2.49,28-23.29C1358.62,1516.07,1334.39,1494,1334.39,1494Z"/><path class="cls-2" d="M1337.68,1557.94s20.68-5.79,38.13-34.39c0,0-2.63,36.09-21.74,46S1337.68,1557.94,1337.68,1557.94Z"/></svg>