<svg id="Flat" height="512" viewBox="0 0 340 340" width="512" xmlns="http://www.w3.org/2000/svg"><path d="m196.2 245.149s10.5-28.5 34.6-33.383c10.277-2.083 20.49 4.727 21.883 15.12q.079.594.132 1.217s12.308-5.738 19.245 5c0 0 6.713 9.539 15.216 12.042z" fill="#8fa345"/><path d="m235.131 245.149s-18.338-34.462-38.854-57.084a21.082 21.082 0 0 0 -31.68.472c-11.521 13.582-27.08 34.5-35.312 56.612z" fill="#c4af58"/><path d="m40.723 245.149s14.837-45.649 39.648-79.641a25.922 25.922 0 0 1 42.243.368c2.548 3.659 5.226 7.666 7.955 11.983a181.934 181.934 0 0 0 43.276 47.8c10.259 7.814 22.172 15.087 34.949 19.488z" fill="#dbc461"/><circle cx="279.947" cy="80.936" fill="#ff7a4e" r="29.517"/><path d="m8 245.149h320v65.966h-320z" fill="#95bcf4"/><g fill="#ff7a4e"><path d="m279.95 36.885a4.029 4.029 0 0 1 -2.83-1.17 4.161 4.161 0 0 1 -.5-.61 4.579 4.579 0 0 1 -.37-.69 4.99 4.99 0 0 1 -.23-.75 4.114 4.114 0 0 1 -.07-.78 4.027 4.027 0 0 1 5.53-3.7 4.579 4.579 0 0 1 .69.37 4.919 4.919 0 0 1 .61.5 4 4 0 0 1 -2.83 6.83z"/><path d="m279.95 133a4 4 0 0 1 -2.83-1.18 3.694 3.694 0 0 1 -.5-.61 3.782 3.782 0 0 1 -.37-.69 4.87 4.87 0 0 1 -.23-.74 4.436 4.436 0 0 1 0-1.57 4.87 4.87 0 0 1 .23-.74 4.241 4.241 0 0 1 .37-.7 4.081 4.081 0 0 1 .5-.6 3.989 3.989 0 0 1 6.15.6 3.6 3.6 0 0 1 .37.7 3.956 3.956 0 0 1 .23.74 3.891 3.891 0 0 1 0 1.57 3.956 3.956 0 0 1 -.23.74 3.256 3.256 0 0 1 -.37.69 3.639 3.639 0 0 1 -.49.61 4.031 4.031 0 0 1 -2.83 1.18z"/><path d="m328 84.935a4.129 4.129 0 0 1 -.78-.08 3.832 3.832 0 0 1 -.75-.23 4.524 4.524 0 0 1 -.69-.36 4.919 4.919 0 0 1 -.61-.5 4.065 4.065 0 0 1 -1.17-2.83 4.129 4.129 0 0 1 .08-.78 3.832 3.832 0 0 1 .23-.75 4.524 4.524 0 0 1 .36-.69 4.919 4.919 0 0 1 .5-.61 4.093 4.093 0 0 1 .61-.49 4.033 4.033 0 0 1 1.44-.6 4.037 4.037 0 0 1 3.61 1.09 4.919 4.919 0 0 1 .5.61 4.524 4.524 0 0 1 .36.69 3.832 3.832 0 0 1 .23.75 4.129 4.129 0 0 1 .08.78 3.995 3.995 0 0 1 -4 4z"/><path d="m231.89 84.935a4.129 4.129 0 0 1 -.78-.08 4.053 4.053 0 0 1 -.75-.23 4.524 4.524 0 0 1 -.69-.36 4.188 4.188 0 0 1 -.6-.5 4.031 4.031 0 0 1 -1.18-2.83 4.129 4.129 0 0 1 .08-.78 4.033 4.033 0 0 1 .6-1.44 3.605 3.605 0 0 1 .5-.61 3.565 3.565 0 0 1 .6-.49 3.828 3.828 0 0 1 .69-.37 4.053 4.053 0 0 1 .75-.23 4.146 4.146 0 0 1 1.57 0 3.956 3.956 0 0 1 .74.23 3.256 3.256 0 0 1 .69.37 3.639 3.639 0 0 1 .61.49 4.161 4.161 0 0 1 .5.61 4.579 4.579 0 0 1 .37.69 4.659 4.659 0 0 1 .23.75 4.114 4.114 0 0 1 .07.78 4.021 4.021 0 0 1 -1.17 2.83 4.279 4.279 0 0 1 -.61.5 3.75 3.75 0 0 1 -.69.36 3.956 3.956 0 0 1 -.74.23 4.234 4.234 0 0 1 -.79.08z"/><path d="m313.93 50.955a3.987 3.987 0 0 1 -2.83-1.17 3.694 3.694 0 0 1 -.5-.61 4.143 4.143 0 0 1 -.37-.69 4.659 4.659 0 0 1 -.23-.75 4.042 4.042 0 0 1 -.07-.78 4.114 4.114 0 0 1 .07-.78 4.99 4.99 0 0 1 .23-.75 4.579 4.579 0 0 1 .37-.69 4.161 4.161 0 0 1 .5-.61 4.011 4.011 0 0 1 6.75 3.61 3.832 3.832 0 0 1 -.23.75 3.519 3.519 0 0 1 -.37.69 3.251 3.251 0 0 1 -.5.61 3.981 3.981 0 0 1 -2.82 1.17z"/><path d="m245.97 118.915a4.047 4.047 0 0 1 -.78-.08 3.832 3.832 0 0 1 -.75-.23 3.519 3.519 0 0 1 -.69-.37 3.639 3.639 0 0 1 -.61-.49 4.008 4.008 0 0 1 0-5.66 3.639 3.639 0 0 1 .61-.49 3.519 3.519 0 0 1 .69-.37 3.832 3.832 0 0 1 .75-.23 4 4 0 1 1 .78 7.92z"/><path d="m313.93 118.915a4 4 0 1 1 .78-7.92 4.3 4.3 0 0 1 .75.23 3.828 3.828 0 0 1 .69.37 3.989 3.989 0 0 1 0 6.64 3.828 3.828 0 0 1 -.69.37 4.3 4.3 0 0 1 -.75.23 4.129 4.129 0 0 1 -.78.08z"/><path d="m245.97 50.955a3.987 3.987 0 0 1 -2.83-1.17 4.279 4.279 0 0 1 -.5-.61 4.143 4.143 0 0 1 -.37-.69 3.809 3.809 0 0 1 -.22-.75 3.99 3.99 0 0 1 5.45-4.47 3.828 3.828 0 0 1 .69.37 3.914 3.914 0 0 1 1.78 3.32 4.047 4.047 0 0 1 -.08.78 3.832 3.832 0 0 1 -.23.75 3.519 3.519 0 0 1 -.37.69 3.639 3.639 0 0 1 -.49.61 4.919 4.919 0 0 1 -.61.5 4.579 4.579 0 0 1 -.69.37 4.019 4.019 0 0 1 -.75.22 3.445 3.445 0 0 1 -.78.08z"/></g><path d="m8 270.009h320v41.106h-320z" fill="#6997e0"/><path d="m221.768 261.579h-23.777a4 4 0 0 1 0-8h23.777a4 4 0 0 1 0 8z" fill="#fff"/><path d="m274.794 261.579h-12.777a4 4 0 0 1 0-8h12.777a4 4 0 0 1 0 8z" fill="#fff"/><path d="m226.879 301.308h-18.779a4 4 0 1 1 0-8h18.777a4 4 0 1 1 0 8z" fill="#fff"/><path d="m113.032 301.308h-18.777a4 4 0 0 1 0-8h18.777a4 4 0 0 1 0 8z" fill="#fff"/><path d="m170.758 261.579h-12.777a4 4 0 0 1 0-8h12.777a4 4 0 0 1 0 8z" fill="#fff"/><path d="m196.174 287.05h-17.774a4 4 0 0 1 0-8h17.778a4 4 0 1 1 0 8z" fill="#fff"/><path d="m243.889 287.05h-2.778a4 4 0 0 1 0-8h2.778a4 4 0 1 1 0 8z" fill="#fff"/><path d="m33.187 245.149s-2.293-33.966 33.746-24.137a22.9 22.9 0 0 1 15.457-17.206 21.927 21.927 0 0 1 28.382 18.019c.022.164.043.33.062.5 0 0 19.859-9.929 31.318 3.084a54.643 54.643 0 0 0 5.738 5.8c6.274 5.277 18.8 13.944 33.383 13.944z" fill="#8fa345"/></svg>