<?xml version="1.0" encoding="utf-8"?>
<!-- Generator: Adobe Illustrator 26.0.1, SVG Export Plug-In . SVG Version: 6.00 Build 0)  -->
<svg version="1.1" id="Layer_1" xmlns="http://www.w3.org/2000/svg" xmlns:xlink="http://www.w3.org/1999/xlink" x="0px" y="0px"
	 viewBox="0 0 3323 3323" style="enable-background:new 0 0 3323 3323;" xml:space="preserve">
<style type="text/css">
	.st0{fill:#AED76A;}
	.st1{fill:#FECEAD;}
	.st2{fill:#6B696A;}
	.st3{fill:#8F8D8E;}
	.st4{fill:#787677;}
	.st5{fill:#DCD6D3;}
	.st6{fill:#5F4538;}
	.st7{fill:#402F22;}
	.st8{fill:#402F21;}
	.st9{fill:#B99972;}
	.st10{fill:#161718;}
	.st11{fill:#151617;}
	.st12{fill:#403022;}
	.st13{fill:#3F4047;}
	.st14{fill:#9FA4B9;}
	.st15{fill:#312419;}
	.st16{fill:#7A6047;}
	.st17{fill:#3F2E20;}
	.st18{fill:#551B3B;}
	.st19{fill:#381328;}
	.st20{fill:#381327;}
	.st21{fill:#FEFDFD;}
	.st22{fill:#7E305B;}
	.st23{fill:#7A6048;}
	.st24{fill:#B99A72;}
	.st25{fill:#908E8F;}
	.st26{fill:#FDFDFD;}
	.st27{fill:#77A12F;}
	.st28{fill:#B89971;}
</style>
<path class="st0" d="M1152,1748.1c26,0,52,0,78,0c2,1.4,4.2,0.8,6.3,0.8c95.3,0.1,190.7,0.4,286,0.3c80.2-0.1,160.3,0.8,240.4,2.5
	c55.3,1.2,110.6,2,165.9,3.1c39.8,0.8,79.6,1.5,119.5,2.6c60.3,1.7,120.6,3.7,180.9,5.7c29.6,1,59.3,1.9,88.9,3.3
	c45.3,2.3,90.5,4.7,135.7,7.7c36.2,2.3,72.4,5.2,108.6,8.3c42.8,3.7,85.5,8.3,128,14.8c23.5,3.6,46,10.1,65.8,24.3
	c10.9,7.9,23.3,14,33.6,22.5c13.9,11.6,27.5,23.7,41.6,35.1c32.6,26.4,66.4,51.5,98.4,78.7c35.1,29.8,69.3,60.5,98.6,96.2
	c29.7,36,52.8,75.5,65,121c1,3.9,1.8,7.8,1.6,11.8c-1.1,33.1-5.5,65.7-14.8,97.5c-4,13.8-7.3,28.1-18.1,39c-1.3,1.3-1.8,3.5-2.5,5.4
	c-7.1,21-17,40.6-30,58.5c-32.2,44.4-74,78.2-120.6,106.4c-12.2,7.4-25.6,12-38.3,18.3c-16.1,8-32.3,15.9-49.1,22.4
	c-16,6.2-32.5,11.2-48.2,18.1c-35.5,15.5-71.8,28.5-109,39c-39.3,11.1-79.2,19.9-119.7,25.1c-31.4,4.1-63.1,4.7-94.7,6.3
	c-14.5,0.8-28.9,1.4-43.4,1.7c-18.7,0.5-37.3,1-56,0.9c-11.5,0-22.9-1.3-34.4-1.5c-20.5-0.4-41,0.8-61.4,1.7
	c-34.3,1.4-68.4,4.7-102.5,8.5c-43.7,4.9-87.3,10.2-131.1,13.7c-51.3,4.1-101.4,15.1-150.2,31.6c-45.8,15.5-90,35-134.6,53.6
	c-37.2,15.5-74.4,31.2-112.4,44.6c-58.6,20.6-119.2,33.2-180.6,42.4c-57,8.5-113.9,17-171.6,20.1c-37.9,2-75.8,4-113.8,4.6
	c-22.3,0.3-44.7,0.2-67,0.4c-14.1-0.5-28.3-0.6-42.4-1.6c-28.6-2-57.1-4.7-85.4-8.5c-37.5-5.1-74.8-11.4-111.1-21.9
	C796,2797,742,2775,689,2750.6c-16-7.4-31.2-16.5-47.8-22.7c-72.5-27.2-141.3-61.7-204.2-107.1c-50.8-36.6-95.4-79.4-130.4-131.8
	c-11.9-17.9-21.2-36.5-25.2-58.1c-7.7-40.5-10.3-80.9-1.8-121.5c10-48.1,36.3-86.4,72.1-118.8c30.8-27.8,65.8-50,100.1-73
	c57.2-38.3,331.7-233.1,399-268.1c12.2-6.4,23.9-13.9,37-18.6c37.3-13.4,74.5-27.2,111.7-40.7c17.7-6.4,34.9-14.3,53.1-19.2
	c24.1-6.5,48.5-11.9,73-17C1134.3,1752.1,1143.5,1751.4,1152,1748.1z"/>
<path class="st1" d="M1428.9,2300.1c0,2.3,0,4.7,0,7c-3.4,8.1-6.4,16.3-11.9,23.4c-8.4,10.8-17.7,20.7-26.9,30.9
	c-20,22.3-43.6,40.5-67.2,58.7c-29.8,23-58.4,47.4-83.4,75.8c-17.9,20.3-32.4,42.6-42.6,67.7c-10.3,25.3-16.2,51.5-18.2,78.9
	c-1.7,23.7,0.7,46.8,7.7,69.4c8.4,27,22.1,51.3,38.9,73.9c11.4,15.4,23.7,30.1,38.4,42.5c4.2,3.6,8.4,7.2,12.9,11.1
	c-9,2-17.5,2.1-25.9,2.3c-22.3,0.6-44.5,2-66.8,2.5c-12.3,0.3-24.6,0.2-36.9,0.9c-35.6-0.3-71.3,0.8-106.8-2.2
	c-16.4-1.4-32.8-2.4-49.1-4.3c-20.6-2.5-41.2-5.1-61.7-8.6c-29.2-4.9-58.3-10.6-86.5-19.4c-64.9-20.4-127.7-46.1-188.4-76.9
	c-4.1-2.1-8.4-4-12.8-5.7c-23.7-9-47.1-18.4-70.1-29.2c-3.6-1.7-4.8-3.7-4.7-7.6c0.2-7.2,1.1-14.2,2-21.3
	c3.8-31.5,12.7-61.5,26-90.3c20.2-43.6,49.2-80.4,85.1-112.2c27.2-24.1,57.3-43.8,89-61.4c10.9-6.1,22.7-10.6,32.7-18.1
	c25-18.9,50.6-36.8,79-50.4c6.2-3,185.2-101.6,209.2-110.8c32.5-12.4,65.6-21.1,100.8-18.6c10.3,0.8,20.5,1.1,30.8,0.2
	c19.1-1.6,38.3-1.3,57.4-1.3c8.7,0,17.2,1.4,25.7,2.7c13.5,2.1,25.9,8.5,39.6,10c21.7,2.3,37.3,16.2,52.8,29.3
	C1412.7,2262.4,1419.5,2282.3,1428.9,2300.1z"/>
<path class="st2" d="M2818.8,1478.8c-0.2,15.1,0.4,33.9,1.7,52.7c1.1,16-1.2,31.9-2.2,47.9c-1,18-1.6,35.9-1.7,53.9
	c0,27.2,0.3,54.3-0.1,81.5c-0.6,45.1,0.2,90.3,0.3,135.4c0.2,47.8,0.9,95.6,2.1,143.4c1,41.6,0.7,83.3,1.7,124.9
	c0.1,4.1-1.3,5.9-5,7.1c-24.7,8.1-49.9,14.2-75,21c-97.4,26.5-194.2,55.4-292,80.9c-127,33.1-253.9,66.8-381.4,97.9
	c-57.8,14.1-116,27.1-174.5,38.2c-4.2,0.8-8.6,1.6-12.9,1.7c-17,0.4-33.7,4.6-51,3.9c-12.7-0.6-31.1-15.6-32.2-30.1
	c-0.9-11.8,1.1-23.3,2.6-34.8c2.9-21.9,3.6-43.8,3.4-65.8c-0.1-24.8-0.9-49.7-0.6-74.5c1.5-95.3,0.9-190.6,2.1-285.9
	c0.7-54.8,3-109.6,3.2-164.4c0.1-61.1-1.6-122.3-1.2-183.4c0.1-19.3,0.3-38.7,0.8-58c0.3-10.8,1.3-21.6,1.8-32.4
	c0.2-5.7,4.6-8.6,7.6-12.4c0.4-0.5,1.9-0.3,2.9-0.2c23.3,3.1,46.7,4.6,70.1,6.3c18.4,1.4,36.9,2.4,55.3,3.3
	c48.2,2.4,96.5,3.7,144.8,3.6c44.3-0.1,88.6-1.5,132.9-2.3c9.5-0.2,19-0.1,28.5-0.2c62.8-1.2,125.6-0.5,188.4-1.3
	c72.3-1,144.6-1,216.9-0.4c46.3,0.3,92.6,0.9,138.9,1.5c6.5,0.1,13-0.2,19.5-0.6c3-0.2,4,0.6,4,3.8
	C2818.7,1452.4,2818.8,1463.7,2818.8,1478.8z"/>
<path class="st3" d="M1822.9,2371.8c-5.7,0-11.3,0-17,0c-1.1-1.5-2.7-0.9-4.1-1.1c-13-1.1-25.9-1.3-38.9-0.7
	c-76.2,3.2-151.7-4.7-227.2-13.7c-56.7-6.8-113.4-13.9-170.4-18.2c-46.9-3.6-93.3-10.6-139.8-16.7c-40.4-5.3-80.8-11.1-121.2-16.5
	c-46.8-6.3-93.8-12-140.7-17.4c-42-4.8-84-9.8-126-14.6c-45.2-5.1-90.1-12-134.7-20.7c-32.4-6.3-63.8-16.3-95.6-25.2
	c-3.9-1.1-5.3-2.8-5.4-6.8c-0.4-22-0.3-44,0.5-66c0.4-9.5,1.2-19.1,0.4-28.5c-2.6-28.9-2.8-57.9-2.8-86.9
	c-0.1-171.8-5.8-579.8-6.2-595.6c-0.1-3.1,0.6-5.3,3.6-6.9c6.8-3.8,12.2-9.1,16.3-15.8c3.1-5.1,6.9-9.8,10.5-14.6
	c32.7-44,61.4-90.2,85.2-139.7c25.6-53.3,52.8-105.8,81.7-157.4c26.7-47.6,55.7-94,82.1-141.8c15-27.3,32.5-53.2,46.2-81.2
	c18.1-37.1,36.7-74,55.1-111c9.4-18.9,20.7-36.9,27.7-57c4.8-13.7,10.2-27.2,21.3-37.4c0.9-0.9,1.5-2.2,2.1-3.4
	c28.5-57.8,60.2-113.9,89-171.6c2.8-5.5,5.5-11,8.3-16.5c13.2-25.9,31.2-49.3,39.6-77.6c0.8-2.8,2.8-5.3,4.5-7.8
	c3.2-4.7,7.1-8.9,12.3-11.6c10-5.1,19.2-12.1,31.5-11.5c3.3,0.2,4.8,0.6,6.1,3.3c5.9,11.8,12.5,23.2,17.6,35.3
	c19.9,47.1,42.4,93,64.6,139.1c42.9,89,82.3,179.8,130.4,266.3c42.4,76.3,86.1,151.9,133.3,225.4c32,49.9,65,99.2,97.5,148.8
	c18.9,29,36.9,58.7,56.5,87.3c30,43.9,61.3,86.9,95.5,127.6c1.5,1.8,3.2,3.5,3.4,6c1.2,14.8,4.4,29.5,3.9,44.2
	c-1.2,33.2-0.4,66.3-0.7,99.5c0,3.5,0.1,7,0.2,10.5c0.7,18.1,3.5,36.1,2,54.5c-1.9,22.7-1.5,45.6-1.3,68.4
	c0.5,69.6,1.5,139.3,2.8,208.9c0.7,34.1,1.6,68.3,1.9,102.4c0.5,48.1,2,96.3,2.3,144.4c0.3,64,0.3,127.9-2.2,191.9
	C1824.3,2353.5,1824.6,2362.7,1822.9,2371.8z"/>
<path class="st4" d="M2568.9,2042.9c-0.4,0.3-1,0.5-1.1,0.9c-2.4,12-12.1,20-17.1,30.3c-5.2,10.8-13.8,10.1-22.4,10.7
	c-17.7,1.2-35.4,1.8-53.1,2.8c-9.5,0.6-19,0.7-28.3-1.7c-15.2-3.9-28.9-16.8-28-33.7c0.7-13.9,9.1-25.7,23.7-30.3
	c7.2-2.2,14.6-3.2,22-3.8c21-1.6,42-2.7,63-4.3c8.8-0.7,17.5-1.5,26.3-1.9c6.3-0.3,12.2-0.2,14.9,7
	C2568.9,2026.9,2568.9,2034.9,2568.9,2042.9z"/>
<path class="st4" d="M1575.1,1352.5c-11,0.8-22.1,2.4-33.1,2.1c-9.5-0.3-19,3.4-28.5,0.3c-1.7-0.5-3.5-1.2-5-2.1
	c-5.8-3.7-12-5.1-19-5.2c-24.3-0.2-48.7-0.7-72.9-2c-15.3-0.8-30.3,0.2-45.4,3.1c-7.7,1.5-15.6,1.5-23.5,2.1
	c-29.4,2.4-58.8,0.9-88.2,0.8c-13.3-0.1-26.7,0.2-39.9-0.9c-11.1-0.8-22.2-1.3-33.3-2.7c-5.3-0.7-10.8-0.7-16.2-1.2
	c-8.6-0.9-17.3-1.1-25.8-2.8c-3.9-0.8-7.8-0.7-11.7-1.1c-11.5-1.1-22.9-3.1-34.4-4c-9.8-0.7-19.4-2.4-29.1-3.2
	c-11.3-0.9-22.4-3.4-33.7-5c-10.6-1.5-21.4-1.8-31.8-4.1c-18.7-4.1-37.8-5.5-56.5-9.3c-22.6-4.6-45.4-6.5-68.4-7.5
	c-19.5-0.8-38.8-3.4-57.8-7.8c-10-2.3-19.1-6.8-27.8-12.1c-7.5-4.5-14.1-18.8-8.3-28.4c1.6-2.7,2.5-5.7,2.2-9.1
	c-0.7-8.8,2.1-16.7,7.6-23.3c4.1-4.9,6.1-10.4,6.6-16.4c0.9-11.6,5.8-21.9,10.3-32.2c6.4-14.5,14.9-27.8,25.8-39.7
	c5.1-5.5,8-13.1,11.6-20c6-11.5,12.5-22.7,19.3-33.7c8.5-13.9,16.7-27.9,24.9-41.9c10-17,18.9-34.6,28.2-52
	c9.9-18.4,18.6-37.4,28.3-56c10.2-19.7,20.1-39.5,30.7-59.1c13.4-24.8,26.7-49.7,42.1-73.3c3.7-5.6,5.3-12.2,7.5-18.5
	c6-16.8,12.6-33.4,19.6-49.8c8.2-19.3,17.5-38.1,26.3-57.1c7.2-15.5,12.1-32.2,18.5-48.1c15.2-37.7,32.6-74.4,57.4-106.9
	c3.6-4.7,6.8-9.5,10.2-14.3c7.9-11.2,22.6-14.9,35.7-9c2.5,1.1,4.9,1.7,7.6,1.6c17.4-0.6,30.6,9.3,34.6,26.2
	c0.7,2.8,1.6,3.8,4.5,3.8c9.8-0.1,17.3,4.4,22.8,12.2c9.7,13.6,16.2,29,23.1,44.1c11.5,25.3,22.8,50.7,34.2,76
	c17.2,38.1,34.4,76.2,51.7,114.3c2.5,5.5,4.9,10.6,11.4,13.4c8,3.4,11.3,11.5,14,19c12.6,35.2,28.4,69,45.6,102.2
	c19.7,38.2,40.5,75.9,61.5,113.5c14.3,25.6,28.3,51.3,42.5,76.9c14,25.2,29,49.8,41.3,75.8c3.3,7,6.3,14.2,9.3,21.4
	c2.9,7.1,2.9,14.6,1.7,22c-0.3,2,0.4,3.2,1.2,4.5c10.7,18.1,23.2,35,33.7,53.2c2.7,4.6,7.1,8.2,9.3,13.2c5.7,12.6,1.9,27.9-9.1,36
	c-1.7,1.3-2.4,3-3.1,4.9c-5,15.3-5,15.1-21.1,15.5c-13.1,0.4-26.2,1.3-39.3,2C1575.2,1352.9,1575.2,1352.7,1575.1,1352.5z"/>
<path class="st4" d="M895.6,1891.7c-1,13.4,0.5,28.9-1.5,44.3c-1,8-4.4,15-8.5,21.9c-7.4,12.5-19.5,18.2-32.4,22.6
	c-3.8,1.3-8.1,1-12.2,1.4c-13,1.4-26.1,1.2-38.9,2.7c-14.3,1.7-28.5,1.4-42.7,1c-8.9-0.2-17.4-4.5-24-10.6
	c-5.9-5.4-13.3-6.8-20.3-9.1c-15.8-5.3-31.9-10.1-43.1-23.7c-8.5-10.4-14.3-22-15.7-35.5c-2.3-21.3-2.7-42.8-0.9-64
	c2-23.8,6.8-47.2,20.9-67.4c8.2-11.8,19.1-19.4,34.2-19.2c0.5,0,1.1-0.1,1.5,0.1c9.9,4,17.6-1.7,25.5-6c5.2-2.9,10.2-3.5,16.1-1.9
	c19.3,5.3,38.7,9.5,58.8,11.1c16.1,1.3,32.2,2,48.4,1.6c5.1-0.1,8.3,2,11,5.4c7.5,9.5,11.7,20.3,12.2,32.4c0.1,2.2,0.6,4.1,1.8,6
	c2.6,4.1,3.4,8.9,4.5,13.5C895.8,1841.8,895.2,1865.7,895.6,1891.7z"/>
<path class="st4" d="M2254.6,2264.2c2.4-26.6,0.9-52.7,0.5-78.8c-0.1-5.7-1.9-11.2-0.1-17.1c2.5-7.9,6-15.2,10-22.2
	c0.8-1.4,2.3-1.7,3.8-2c47.2-10.2,94.3-20.6,141.6-30.5c23.2-4.8,46.7-8.6,70-13c2.6-0.5,4.5,0.2,6.5,1.5c8.6,5.6,15.3,13,18.9,22.6
	c1.6,4.3,4.3,7.4,7.6,10.2c13.6,11.5,17.3,26.8,14,43.1c-3,14.8-12.8,25.7-27,32.2c-8.9,4-18.2,5.4-27.8,6.8
	c-12.2,1.7-24.6,2.6-36.8,4.7c-8.1,1.4-16.4,2.4-24.4,4.3c-11.7,2.8-23.3,6.3-34.8,9.9c-5,1.6-10.3,2-15.4,2.7
	c-8.9,1.2-17.6,3.4-26.4,5.2c-3.4,0.7-6.4-1.3-9.4-2.2c-3.3-1-5.1-0.8-5.7,2.8c-0.3,1.9-1.5,3-3.2,3.4
	c-19.9,4.8-39.6,10.4-59.2,16.1C2256.8,2264,2256.1,2264,2254.6,2264.2z"/>
<path class="st4" d="M799.6,1396c28.2-0.6,56.3,0.7,84.3,3.2c8.4,0.7,17,1.3,25.1,3.8c9.2,2.8,17.3,1.2,25.8-3
	c18.8-9.3,37.2-8.3,53.8,5.3c13.1,10.7,18,24.9,16.5,41.9c-1,12.1-6.9,21.6-14.3,30.1c-4.5,5.1-10.7,8.6-16.9,11.6
	c-9.3,4.6-18.6,9.2-28.1,13.4c-9.3,4.2-19,6.6-29.4,6.9c-13.4,0.5-26.4-0.8-39.4-4.1c-3.4-0.9-7.2-1-10.7-1.2
	c-11.8-0.5-23.8-1-35.4-2.3c-17.1-1.9-34.1-2.2-51.2-2.7c-13.8-0.3-27.3-1.5-40.6-5.2c-16.7-4.6-29.7-14.8-34.7-31.2
	c-7.5-24.3-1.8-48.6,25-61.4c5.2-2.5,10.9-3.5,16.7-4.1C764,1395.3,781.8,1396.2,799.6,1396z"/>
<path class="st4" d="M1759.3,1845.5c-0.3,20.9-1,38.4-5.3,55.5c-1.7,6.9-4.3,13.4-8.7,19.2c-4.1,5.4-9.7,7.8-15.7,9.4
	c-14.6,3.8-29.4,4.9-44.6,3.7c-5.7-0.4-11.7,0.4-17.5-0.5c-10.2-1.6-20.5-1.5-30.8-2.8c-6.5-0.8-13.1-0.7-19.7-1
	c-6.8-0.3-7.8-0.5-9.9-7c-0.9-2.7-2.1-5-4.2-7.1c-5-4.9-8.7-10.7-11.4-17.1c-1.6-3.8-3.6-7.3-6.3-10.5c-1.9-2.3-3-5.1-3.1-8.1
	c-1.1-23.3-3.7-46.5-1.9-69.9c0.4-4.9,0.6-9.8,0.9-14.7c0-0.8,0-2.3,0.8-2c3.8,1.4,3.9-2.1,5.1-3.8c2.6-3.5,5.3-6.7,8.9-9.2
	c0.3-0.2,0.7-0.3,0.8-0.5c6.8-10.1,17.3-8.2,26.9-7.8c17.8,0.8,35.5,1.2,53.2-1.5c9.9-1.5,19.8,1.3,29.6,1.7c7.1,0.3,14,1.1,20.8,4
	c16.7,7.3,25.5,20.2,28.6,37.8C1757.9,1825.1,1760.1,1836.8,1759.3,1845.5z"/>
<path class="st4" d="M1585,2278.8c0.7,7.9,0.6,16,1.6,24.1c2.8,22.1-10.1,42.6-30.7,50.1c-6.1,2.2-12.1,2.9-18.3,2.8
	c-10.1-0.1-20.1,0-30.2-1c-19.1-1.9-35.9-8.1-47.3-24.8c-7.1-10.4-8.1-22.1-6.7-34.1c0.9-7.6,2.8-14.8,8.5-20.5
	c1.1-1.1,0.9-2.8,0.9-4.3c0.1-14.6-0.4-29.3,0.4-43.9c0.7-13.6,1.7-27.5,10-39.3c4.2-6.1,10.4-10.2,16.1-14.6
	c6.7-5.1,13-11.1,21.6-13.3c16.8-4.2,31,1,43.7,11.8c14.7,12.5,22,29.2,25.3,47.7c1.8,9.7,2.9,19.6,4.1,29.4
	C1585.2,2258.9,1585.4,2268.7,1585,2278.8z"/>
<path class="st4" d="M819.9,2081.4c0.6-15.9-0.4-31.1,0.9-46.2c0.6-7.3,2.6-14,7.2-19.5c5.3-6.2,8.9-13.5,13.7-20
	c10.9-14.6,33.1-20,49.7-11.6c3.4,1.7,6.4,3.8,9.3,6.2c3.5,2.9,8.3,2.7,12.3,4.5c15.4,6.9,24.1,18.3,25.4,35.2
	c1.6,20.6,3.2,41.2,6.2,61.7c1.3,9.1,2.7,18.3,3.3,27.6c0.4,7.5-0.6,14.9-2.1,22.2c-1.1,5.2-3.4,9.8-8.9,12.4
	c-2.7,1.3-4.8,3.9-7.1,5.9c-8,6.9-17.4,8-27.7,7.8c-16.1-0.3-31-5.7-46.4-8.9c-16.4-3.4-31.5-18.8-34.4-35
	C818.8,2109.4,820.8,2095,819.9,2081.4z"/>
<path class="st4" d="M1987.7,2073.9c9.2-0.8,19.2-0.2,29.2,0c33.9,0.7,55,31.6,42.4,61.1c-5.6,13.2-15.2,20.9-28.8,24.9
	c-8.2,2.4-16.5,2.2-24.7,3.1c-10,1.1-20.1,2.2-30,3.7c-17.2,2.5-34.6,4.1-51.8,1.8c-15-2.1-24.7-12.4-30.8-26c-1.7-3.8-1.9-7.9-2-12
	c-0.6-23.1,5.9-39.8,27.4-50.2c8.3-4,17.5-4.9,26.6-5.2C1959,2074.7,1973,2073.3,1987.7,2073.9z"/>
<path class="st5" d="M1390,1845c0.3,0,0.6,0,0.9,0c0,5.3,0,10.7,0,16l-0.4,0.1l-0.4,0C1390,1855.7,1390,1850.4,1390,1845z"/>
<path class="st6" d="M1390,1845c0,5.4,0,10.7,0,16.1c-0.7,20.8-1.5,41.6-2,62.4c-1.6,73.9-3.5,147.9-1.9,221.9
	c1,48.5,0.1,97,0.7,145.4c0.1,6.8-0.4,13.6-1.9,20.3c-0.6,2.5-0.7,5.5-4.4,5.8c-1.4,0.1-1.2,1.4-1.2,2.3c-0.1,1.3-0.2,2.7-0.3,4
	c-0.3,2.9-1.2,5.5-2.6,8c-2,3.6-4.7,0.2-7.1,0.4c-15,1.6-29.2-1.6-43.4-6.4c-12.9-4.4-26.8-4.6-40.4-6.2c-17.7-2.2-35.3-4.3-53-6.3
	c-17.2-2-34.4-4.1-51.6-5.6c-33.6-3-66.5-9.4-99.1-17.5c-11.7-2.9-23.5-5-35.6-2.9c-3.5,0.6-3.2-1.4-3.2-3.7c0-16.5-0.2-33,0.1-49.5
	c0.2-13.3-2.1-26.6-1.1-39.9c1.5-19.3-1.4-38.7,0.2-57.9c3-36.9,2.1-73.9,2.6-110.9c1-81.5,0.7-162.9,1.5-244.4
	c0.3-31,1.9-61.9,2.8-92.9c0.1-4.9,3.1-5.6,7.1-5.5c28.1,0.4,56.3,0.7,84.4,1.2c42.3,0.7,84.6,0.7,126.9,0.2
	c27.6-0.3,55.3,0.5,82.9,0.6c6.8,0,13.7,0,20.5,0c2.4,0,4.6,0.3,6.9,1.1c9.2,2.9,10.5,4.8,10.4,14.5c-0.5,41.6-0.3,83.3,0.9,124.9
	C1389.2,1831.4,1389.7,1838.2,1390,1845z"/>
<path class="st7" d="M1146,2200.9c-7.4-5.4-16.1-7.2-24.8-9c-9.6-2-19.1-4.2-28.3-7.9c-4.7-1.9-9.1-4.3-12.5-8
	c-3.8-4.3-5.5-9-3-14.7c1.5-3.5,1.6-7.6,1.6-11.1c0.1-10.7,5.6-20.6,4.4-31.4c-0.3-3,0.3-4.1,3.8-3c19.9,6,40.3,7.7,61,8
	c4.8,0.1,9.3,2.4,12.6,5.4c9.9,9.2,20.9,13,34.4,11.1c4.9-0.7,10.3,0,15,2.7c1.8,1,3.2,2.1,3.1,4.6c-0.1,10.4,0,20.9,0,32.1
	c-19.6-8.3-32.5,2.8-45.1,12.9c-4.7,3.8-8.7,7.1-14.8,7.2c-0.7,0-1.3,0.2-1.5,1C1150,2200.9,1148,2200.9,1146,2200.9z"/>
<path class="st8" d="M1215.9,1790.1c-2.2,3.1-1.2,6.7-0.9,9.9c0.4,5-1.7,5.5-5.7,4.7c-2.1-0.4-4.4-0.2-6.4-0.8
	c-13-3.4-24.8,0.7-35.8,6.5c-10.3,5.4-20.7,7-32,6.6c-16.9-0.6-33.9-0.3-50.8,1c-3.5,0.3-5-0.9-5.9-4.2c-3.3-11.5-6.8-23-8.6-34.8
	c-2.5-16.1,5.5-27.6,21.6-29c18.2-1.6,36.5-2.1,54.7,0.7c6.6,1,12.7,3.2,17,8.9c2.1,2.7,5.1,4.1,8.4,5.1c2.7,0.8,5.6,1.6,7.8,3.2
	c8.5,6.1,18.3,6.4,28,7.1c2.9,0.2,5.8,0.7,8.8,1C1215.9,1780.8,1215.9,1785.4,1215.9,1790.1z"/>
<path class="st9" d="M1205.9,1817.1c-2.2,3.3-1,7.1-0.9,10.6c0.1,4.1-1.6,4.8-5,4.2c-2.4-0.4-5-0.3-7.4-0.9
	c-12.6-3.3-23.9,1.2-35.1,6.1c-7.2,3.2-14.3,6.3-20.5,11.2c-2.3,1.8-4.5,2.6-7.5,0.3c-2.3-1.7-5.7-1.6-8.7-1.4
	c-15.7,0.8-31.1-3-46.8-2.1c-2.2,0.1-2.9-0.8-2.9-2.9c0.7-21.4,1.3-42.9,2-64.4c0.1-3.4,2.3-3.7,4.9-2.9c10.6,3.5,21.6,5.6,32.7,6.6
	c11.2,1,22.5,1.2,33.8,0.8c2.7-0.1,4.8,0.3,6.6,2.5c3.3,3.9,7.4,6.5,12.5,7.7c1.8,0.4,3.6,1.1,5,2.1c11.4,8.1,24.5,7.2,37.4,7.5
	C1205.9,1807.1,1205.9,1812.1,1205.9,1817.1z"/>
<path class="st9" d="M1073.2,2164.4c1.4-5.5,0.3-12,0.1-18.4c-0.1-3.6,0.9-4.1,4.3-3.1c19.2,5.9,39.1,7.2,59,8.1
	c3.4,0.1,6.2,0.9,8,4c0.7,1.1,1.8,2,2.4,3.2c4.3,9.6,12.2,10.8,21.4,9.6c8.1-1.1,16.2-0.8,24.4,0.1c2.5,0.3,4.8,1.1,7.1,2
	c2.9,1.2,4.1,3.2,3.7,6.3c-1.1,7.9-0.7,15.9-0.9,23.9c-0.1,5.2-1.2,5.7-6,3.2c-1.6-0.9-3.3-1.4-5.2-1.4c-12.5-0.2-24.9,0.4-37.1,3.4
	c-4.1,1-7.2,3-9.1,7c-2.4,5.1-8.1,7.6-13.7,7c-5.6-0.6-11.3-1.3-16.9-1.2c-12.5,0.2-23.8-3.9-35.1-8.4c-3.8-1.5-5.5-4-5.5-8.4
	C1074.3,2189.3,1074.4,2177.3,1073.2,2164.4z"/>
<path class="st10" d="M2058.6,1803.7c1-0.6,1-1.6,1-2.6c-0.3-9.9,1.6-19.8,0.7-29.8c-0.8-9.6,0.5-19.2,1.7-28.8
	c0.8-6.5,5.3-10.1,12.7-9.7c3,0.2,4.9-0.2,6.3-3.2c1.4-2.9,4.3-4.2,7.5-4.2c13.1-0.3,26.4-2.4,39.3,0.4c17.3,3.8,34.7,1.5,52.1,2.1
	c3.7,0.1,5.9,1.2,6.2,4.8c1.3,18.7,7.4,36.8,6.6,55.7c-0.1,2.8-0.3,5.6-0.4,8.5c0,0.9-0.6,2.6,0.5,2.6c4.8,0.4,3.6,4,3.7,6.7
	c1.4,50.3,1.1,100.7,1,151c0,11.1,0,11.1-11.1,11.1c-8.1,0-16.3,0.2-24.4-0.1c-5.6-0.2-10.8,0-14.4,5.2c-25.3,0-50.6,0-75.9,0
	c-2.5-2.2-4.3-4.8-5.3-8c-4.7-14.7-5.8-29.9-6.7-45.2c-0.2-2.6,0.9-5.3-1-7.6C2058.6,1876.2,2058.6,1840,2058.6,1803.7z
	 M2105.2,1753.5c1.7,1.8,3.8,1.1,5.7,1.1c15.7-0.1,31.1-2.4,46.5-5.1c7.3-1.3,14.6-3.1,21.9-4.5c3.7-0.7,4.3-3,4.1-6.2
	c-0.2-3.5-2.8-3-5.1-3.1c-6-0.4-11.4,2.1-17,3.3c-16.8,3.5-33.8,6.5-50.4,11.3C2108.9,1750.8,2106.1,1750.7,2105.2,1753.5z"/>
<path class="st11" d="M2563.8,1773.8c-1.1,0.3-1,1.2-1,2c0.2,18.8-1.2,37.5-2.1,56.3c-1,20.4-1.7,40.8-5.8,60.9
	c-1.5,7.3-2,7.4-9.2,7.4c-21.1,0-42.3,0.5-63.4-0.2c-9.6-0.3-19.2,0.9-28.7,0.7c-6.4-0.1-12.8-0.4-16.8-6.6c-0.6-1-1.5-0.9-2.6-0.7
	c-6.6,1.3-10.1-0.5-10.8-6.9c-1.3-12.9-6.9-24.8-8-37.7c-0.6-7.2-1.7-14.4-2.3-21.6c-1.8-24-0.8-48.1-1-72.2
	c-0.1-10.3-0.2-20.6,0-30.9c0.2-8.4,0.9-16.8,3-25c1-4.2,3.1-6.7,8.2-6.4c21.1,1.2,41.6-4,62.3-7.1c23.3-3.5,46.6-7.3,69.9-11.1
	c1.8-0.3,4,0.1,5.4-1.8c0.7,0,1.3,0,2,0c0.3,2.3,0.7,4.7,1,7c0,3,0,6,0,9c-1.4,1.1-1,2.7-1,4.2c0,19.5,0,39,0,58.6
	c0,1.4-0.4,3,1,4.2C2563.8,1761.8,2563.8,1767.8,2563.8,1773.8z"/>
<path class="st10" d="M2563.8,1755.8c-1.4-1.1-1-2.7-1-4.2c0-19.5,0-39,0-58.6c0-1.4-0.4-3,1-4.2
	C2563.8,1711.3,2563.8,1733.5,2563.8,1755.8z"/>
<path class="st8" d="M1813,2378c-2.2-31.8-3.7-63.7-4.6-95.5c-0.6-20.6-1-41.2-1.8-61.8c-1.4-35.3-1-70.5-2.1-105.8
	c-0.9-28.9-0.8-57.9-1.9-86.8c-1.2-29.9-0.9-59.9-2.1-89.8c-0.9-22.9-0.5-45.9-1.9-68.8c-1.6-26.9-0.9-53.9-2.1-80.8
	c-2.3-53.9-0.5-107.9-1-161.8c-0.1-13.7,3.6-26.9,7.7-40c1.9-5.9,5.7-8.4,12-8.2c10.3,0.3,20.6,0,30.9,0.9c14,1.2,27.9-0.7,41.8-2
	c4.3-0.4,8.6-0.8,12.9-1.1c14.2-1,23.2,7.9,22.4,22.1c-0.1,2.6-0.7,5.3,0.3,7.9c7.2,19,7.6,39.1,9.6,58.8
	c2.4,23.2,1.7,46.5,2.2,69.8c2.5,118.9,0.8,237.9,2.3,356.8c1,79.6,1.3,159.2,2,238.9c0.1,8.1-5.5,13.6-5.4,21.2
	c0,2.8-4.3,2.6-6.7,3.2c-20.5,5.7-41.1,11.3-61.6,16.8c-5.1,1.4-10.3,2.6-15.4,3.9c-8.5,0-16.9,0-25.4,0.2c-2.8,0-6-0.8-8.2,2
	C1815.6,2378,1814.3,2378,1813,2378z"/>
<path class="st8" d="M2822.9,2124c-15.4,5.2-31,10-46.5,14.9c-10,3.2-19.5,8.1-29.7,11.1c-9.7,2.9-17.5-0.9-25.1-6.1
	c-1-0.7-1.8-2.1-2.1-3.3c-2.4-10.5-5.8-20.8-6.2-31.7c-1.1-29.6-3.9-59-4.9-88.6c-0.6-16.6-0.9-33.2-1.9-49.8
	c-1.3-21.9-1-43.9-2.1-65.8c-1.4-29.6-0.9-59.2-2-88.8c-2.4-67.6-1.2-135.2-0.9-202.8c0.2-38.2,2.1-76.4,11.1-113.9
	c4.7-19.5,5.5-21.5,25.1-18.6c16,2.3,31.7,0.8,47.6,1.3c6.9,0.2,12.6,1.4,14.8,8.9c0.7,2.3,2.2,3.2,4.4,3c6.9-0.8,8.5,4.1,9.5,9.2
	c2.2,10.8,2.9,21.7,3.3,32.7c3.2,87.3,1.8,174.5,1.4,261.8c-0.2,38.3-0.4,76.7,0.8,114.9c0.8,26,1.2,51.9,1.8,77.9
	c0.1,3.4,2.1,6.3,1.6,9.7C2822.9,2041.3,2822.9,2082.7,2822.9,2124z"/>
<path class="st12" d="M665,2120c1.9-3.9,1.8-8.1,1.8-12.2c0-96-1.1-192,0.4-287.9c0.8-52.2,0.5-104.5,2.3-156.7
	c0.8-23.6,0.9-47.2,1.8-70.8c1.2-29.9,2.7-59.7,3.8-89.6c0.7-17.9,1.8-35.8,3.4-53.7c0.4-4.5,1.3-8.9-1.1-13.6
	c-1.1-2.2,0.2-5.8,0.8-8.8c1.5-8.2,3.2-16.3,4.9-24.5c0.6-2.9,1-5.4,4.4-7.1c3.4-1.6,3.4-6.2,4.8-9.5c3.6-8.1,8.8-12.9,18.4-11.8
	c6.6,0.7,13.3,0.1,20,0.2c8.4,0.1,9.8,0.8,12.1,8.8c4.3,14.7,7,29.8,7.7,45.1c1.5,36.3-0.1,72.7,0.8,109
	c3.4,130.9,0.8,261.9,2.2,392.8c0.3,32,0.7,64,1.9,95.9c1.6,41.6,4.4,83.1,3.6,124.8c-0.3,14.7-0.1,29.3-0.2,44c0,4,0,7.9-1.1,11.9
	c-4.9,17.5-4.6,34.9,1.3,52.1c0.3,0.9,0.2,1.9,0.4,3.9c-12.8,0-25.3,0-37.9,0c-0.9,0-2.6-0.3-2.7-0.7c-2-7.3-8.4-4.7-13-6.1
	c-4-1.2-8.7-1.5-11-6c-1.3-2.7-3.8-2.3-6.1-2.3c-4.7-0.1-9.4-0.4-14,0.1c-4.7,0.5-7.5-1.6-9.9-5.1C665,2201.3,665,2160.7,665,2120z"
	/>
<path class="st12" d="M1817,2378c2.2-2.8,5.3-1.9,8.2-2c8.5-0.1,16.9-0.1,25.4-0.2c-0.6,0.9-0.5,1.6,0.4,2.1
	C1839.6,2378,1828.3,2378,1817,2378z"/>
<path class="st12" d="M683.4,1299.3c12.2-14.4,22.6-29.5,30.7-45.9c1.5-3.1,3.9-3.1,6.6-3.1c12-0.1,24,0,35.7,3.1
	c3.5,0.9,7.1,1.3,11.9,2.1c0.1-7.3,0.9-14.2,0.2-21c-1.8-16.5,3.7-30.4,12.3-44.1c29.7-47,58.2-94.7,86.3-142.7
	c34.8-59.5,66.8-120.5,92.8-184.5c14.7-36,28.2-72.6,42.5-108.7c15.9-39.9,33.1-79.2,51.8-117.8c3.8-7.8,6.3-16.1,9.2-24.2
	c9.5-26.4,21.4-51.7,35.9-75.7c0.7-1.1,1.4-2.3,2.1-3.4c8.1-13.6,8.1-13.6-5.8-20.5c-7.8-3.9-11.2-9.8-8.5-17.9
	c4-11.9,5.9-24.6,13.3-35.2c1.1-1.6,1.7-3.7,3.1-5.1c5.6-5.5,9.9-11.3,11.7-19.6c1.7-7.5,10.4-10.8,18.8-9.4
	c7.5,1.2,13.7,5.1,19.2,10c8,7.1,15.3,14.9,21.8,23.4c2.9,3.8,6.1,6.7,10.9,8c11.8,3.3,17.1,11.9,18.5,23.5
	c1.1,8.8-0.2,17.2-2.9,25.6c-8.5,26.4-20.4,51.3-31.8,76.5c-3.9,8.5-7.6,17-9.7,26.2c-3.1,13.4-9.4,25.6-14.7,38.2
	c-14.3,33.7-25.4,68.7-39,102.7c-16.5,41.1-33.6,81.9-56.3,121c9.7,4.1,13.4,12.9,18.6,20.4c4.7,6.9,9.2,13.9,14.4,20.4
	c11.4,14.4,21.2,29.8,29.3,46.3c3.7,7.5,8.3,14.4,12.9,21.3c10.1,15,17.9,31.2,23.2,48.5c6.3,20.4,14.7,40,22.9,59.6
	c15.5,37,27.1,75.1,34.9,114.4c1.5,7.5,2.7,15,1.6,22.8c-0.9,6.6,1.1,8.1,7.5,10.2c3.6,1.2,7.4,1.5,10.9,3.3
	c8.4,4.3,15.2,0.5,16.3-9c0.7-6.3,0.7-12.6,0.7-19c0.1-24,0-48,0.1-72c0-4.2-0.7-8.3,2.5-12.3c1.5-1.8,0.8-5.8,0.7-8.7
	c-1.4-50.3-1.1-100.6-2.4-150.8c-0.9-35.6-0.5-71.2-0.9-106.9c-0.4-40,0.1-80-0.2-120c-0.2-23.6,1.5-47.2,1.9-70.8
	c0.1-4.1,1.7-8.6-2.8-11.9c-1.7-1.2-1-3.7-0.9-5.7c1.3-19.6,2.5-39.2,4-58.8c0.7-9,2.1-7.5,8.4-6.3c11.8,2.1,23.1,6.8,35.3,6.2
	c2.5-0.1,3.4,1.7,3.6,3.9c0.8,8.7,5.9,15.5,10.3,22.5c2.6,4.1,3.8,8.3,4.1,13.1c1.7,23.3,1.4,46.6,2.2,69.9
	c1.7,48.6,0.9,97.3,2.1,145.9c1,39.6,0.9,79.3,1.8,118.9c0.9,37.6,2.1,75.2,3.5,112.9c1.4,37.3,3,74.6,0.5,111.9
	c-0.6,9.3-0.2,18.6,2.7,27.6c2.3,7.1,1,14.6,1.2,21.9c0.1,4,0.1,8.1,1.9,11.7c2.2,4.4,7.2,6.8,10.7,4c5.4-4.1,11-8.3,11.4-16.4
	c3.1-70.6,28.8-133.4,67-191.7c9-13.7,20.3-25.6,33.4-35.6c10.1-7.7,21.1-12.2,34.2-11.4c11.6,0.7,23.3,0.3,35,0.1
	c4.7-0.1,6.4,1.5,6.3,6.3c-0.3,13.7-0.2,27.3,0,41c0,3.3-0.7,5.6-4.1,7c-21.1,8.6-36.3,24.4-49.8,42c-18.6,24.3-31.4,51.6-42.9,79.8
	c-12.2,30.1-19.1,60.9-16.2,93.4c0.5,5.3-4.1,9.2-2.5,14.8c10.3,3.5,21.4,2.9,32.2,4c36.7,3.8,73.5,6.4,110.4,7.3
	c27.9,0.7,55.9,0.2,83.8,1.5c6.6,0.3,13.2,2.2,19.9,1.4c5.6-0.7,6.5,2.3,6.6,7.1c0.4,22.2,0.3,44.3,0.1,66.5c-0.2,15-0.3,15-15.6,15
	c-11.3,0-22.7-0.2-34,0.1c-25.7,0.6-51.1-3.2-76.7-5.3c-22.9-1.9-45.7-4.6-68.5-6.8c-41.7-4-83.5-7.8-125.2-11.7
	c-30.2-2.8-60.3-5.3-90.5-8.5c-44-4.6-88.2-8-132.3-11.4c-26.5-2.1-53.1-3.8-79.6-6.4c-31.1-3.1-62.2-6.3-93.4-9.6
	c-27.1-2.8-54.3-5.6-81.4-8.8c-23.1-2.7-46.4-4.5-68.9-11c-3.3-0.9-6.6-0.8-9.9-0.8c-15-0.1-30,0.3-45-0.3
	c-11.2-0.5-21.9-3.2-31.9-9.4C699.4,1304.4,691.4,1302.5,683.4,1299.3z M853.5,1255.7c5.5,0,9.1,0.1,12.7,0
	c27.3-1,54.6,1.3,81.8,2.9c28.9,1.7,57.6,4.8,86.5,7c5.7,0.4,11.6,0,17.5-0.5c5.2-0.4,10.8,4.3,16.8,5.4c19.2,3.5,38.5,2.3,57.8,1.6
	c5.1-0.2,8.9-3.9,8.1-8.3c-1.8-9.2,0.7-18.5-1.6-27.6c-3.2-12.6-5.4-25.4-8.5-38c-4.6-18.7-10.2-37.2-15.8-55.7
	c-5.7-19-18.7-34.4-25.1-53c-0.7-2.2-2.2-4.1-3.5-6.1c-14.8-21.4-31.9-40.9-51.4-58.2c-4.1-3.6-9-5.7-14.5-5.9
	c-2.7-0.1-5.2-0.5-7.9-1.1c-15.6-3.2-28.2,2.4-34.8,16.7c-10,21.8-22,42.6-30.3,65.1c-2.2,5.9-4.7,11.9-8.2,17.1
	c-16.3,24.3-30.6,49.9-44.9,75.4C876.7,1212.8,865.7,1233.3,853.5,1255.7z"/>
<path class="st12" d="M2263.5,1690.3c0,9.4-0.2,17.7,0.1,26.1c0.2,4.7-2,6.4-6.2,7.2c-14.9,3.1-16.7,5.2-16.4,20.4
	c0.4,20.3-1.5,40.6,0.2,61c5.6,68.1,6.4,136.4,6.2,204.8c0,8.1-0.1,8.2-7.7,9.8c-43.1,8.8-85.4,20.6-127.5,33.3
	c-7.6,2.3-15.5,4.2-23.4,4.8c-15.6,1.3-31,4.1-46.3,7.5c-10.5,2.3-19.7-0.6-28.7-5.2c-4.5-2.3-7.1-5.9-6-11.4
	c1.5-7.9-1.5-16.7,4.6-23.9c0.7-0.8,0.4-2.6,0.2-3.9c-2.1-20.6-1.2-41.2-2.2-61.8c-0.9-18.9-1.1-37.9-1.9-56.8
	c-1.8-40.6-1.5-81.2-1.8-121.8c0-2.3-0.1-4.7,0-7c0.1-3.1-0.8-5-4.4-5.1c-4.1-0.1-8.7,0.5-10.6-5c-0.3-0.9-3.7-0.8-5.6-1
	c-5-0.4-9.9-0.8-14.8-2.1c-4.5-1.1-6.7-3.5-6.6-8.4c0.2-15.3,0.3-30.7,0-46c-0.1-5.8,2.6-8.7,7.7-9.9c8.1-1.9,16.1-4.2,24.3-5.4
	c35.9-5.2,71.1-13.8,106.9-19.7c14.8-2.4,29.4-5.5,44.2-8c9.5-1.6,19.2,0,28.8-2.2c18.5-4.1,37.1-7.4,56-9.1
	c5.9-0.5,11.8-1.3,17.7-1.5c7.5-0.3,10.9,2.7,11.6,10.4C2262.6,1670.7,2263,1681,2263.5,1690.3z M2093.3,1962
	c2.7,0.3,4.9-0.6,7.1-1.2c11.2-3,22.4-6.6,34-7.7c12.6-1.2,25.2-2.1,37.7-3.1c6.9-0.6,7-0.6,7-7.6c0-8.7-0.6-17.3-0.6-25.9
	c-0.1-52,0-103.9,0-155.9c0-11.7-1.1-12.9-12.6-10.5c-21.8,4.6-44.2,6.2-65.7,12.3c-2.3,0.6-4.5,0.6-6.9,0.6c-9,0-9.1,0.1-8.7,8.8
	c0.7,15.6,1.5,31.3,2.2,46.9c1.3,31.6,2.4,63.2,3.8,94.8C2091.4,1929.6,2090.8,1945.9,2093.3,1962z"/>
<path class="st12" d="M2377.1,1862c-0.1-31.6,0.4-63.3-0.5-94.9c-0.3-12.4-2.5-24.5-4.2-36.7c-0.9-6.3-2.2-12.5-1.9-18.8
	c0.3-4.5-1.9-6.6-5.9-5.5c-10.6,2.9-21-0.9-31.5-0.2c-7.8,0.6-8,0-8-7.4c-0.1-15.7,0.1-31.3-0.1-47c-0.1-4.7,1.1-7,6.3-8
	c5.5-1,12.2-0.1,15.5-6.9c0.6-1.1,3.7-1,5.6-1.5c59.8-13.5,119.8-25.7,180.3-35.4c21.4-3.4,42.6-7.3,63.4-13.8
	c9.1-2.8,18.5-1,27.8-1.4c3.8-0.1,4,2.7,4,5.5c0,7.3-0.1,14.7,0,22c0.1,10,0.4,20,0.6,30c0.1,5.3-1.7,8.9-7.4,10
	c-4.2,0.8-8.2,2.8-12.5,3.5c-5,0.8-6.7,3.9-7.3,8.1c-0.4,3-0.7,6-0.8,9c-1.2,37.6-3.5,75.2-1.5,112.9c1.4,27.3,3.1,54.5,4.7,81.8
	c0.9,16,1.8,31.9,2.8,47.9c0.4,5.3,1.4,10.5,1.9,15.8c0.4,4.7-0.8,7.4-6.4,9.2c-40.4,12.7-81.7,21.5-123.1,29.8
	c-17.6,3.5-35.1,7.6-52.7,11.2c-10,2-19.6,2.6-28-5.5c-3.8-3.7-9.3-5.6-14.7-5.6c-6.1,0-6.8-3-6.8-8.1c0.2-28.7,0.1-57.3,0.1-86
	C2377.1,1871.3,2377.1,1866.7,2377.1,1862z M2455.9,1892.7c15.7-7,32.4-5.5,48.3-9.2c3.6-0.9,7.2-1.1,10.9-1.2
	c7.4-0.1,7.4-0.2,7.6-7.8c0.1-3.7,0-7.3,0-11c0-19.7-0.1-39.3,0-59c0.1-19.3,0.1-38.7,0.7-58c0.6-19.4,1.1-38.7,2.3-58.1
	c0.3-4.4-1.3-6.1-5.8-5.4c-22.1,3.2-43.9,8-66.1,10.7c-9.3,1.1-10.6,4-9.5,13.4c1.5,11.9,2.7,23.8,3.1,35.8
	c0.4,12.3,1.3,24.6,2.2,36.9c2.2,34.2,6.1,68.3,5.1,102.7C2454.6,1885.5,2454.1,1888.5,2455.9,1892.7z"/>
<path class="st13" d="M1564.9,2359c0,7,0,14,0,21c-9.5,4.4-19,8.7-28.5,13.2c-34.8,16.6-69.1,34.5-105.1,48.5
	c-6.2,2.4-12.6,4.4-18.2,8c-2,1.3-3.7,1.7-6,1.5c-37.3-3.4-74.5-7.7-111.6-12.7c-44.4-6-88.6-13.2-132.7-20.6
	c-55.8-9.2-111.5-19.4-166.8-31.4c-19.9-4.3-39.2-11.1-59.9-12.9c-24.2-2.1-48.4-5.3-72.4-9.7c-10.6-1.9-21.4-3.7-30-11.1
	c-3.5-3-6.4-6.5-6.5-11.3c-0.1-8.7,0.1-17.3,0-26c0-2.7,0.9-3.6,3.5-3.5c4.9,0.1,9.6-1.1,14.2-2.6c2.6-0.8,4.3-0.6,4.8,2.8
	c-0.2-3.6,1.7-4.6,4.4-5.8c28.8-12.1,58.5-21.9,87.8-32.7c0.9-0.3,2-0.4,2.2-1.7c2.3,0,4.7,0,7,0c1.2,1.7,3,0.9,4.5,0.9
	c6.8,0.2,13.6,0.3,20.3,0.4c0.6,0.2,1.1,0.7,1.7,0.7c17.5,2,35,3.7,52.4,6.1c19.7,2.7,39.4,5.2,59,8.4c25.8,4.2,51.7,8.2,77.3,13.5
	c27.5,5.8,55,11.8,82.5,17.8c18.8,4.1,37.7,7,56.7,10.2c12.6,2.1,25.2,4,37.9,5.7c13,1.7,26,3.2,39,4.7c16.3,1.9,32.6,3.7,48.9,5.4
	c8.7,0.9,17.6,1,26.2,2.7c28.3,5.6,57.2,5.8,85.8,9.4c1.3,0.2,3.2,0.8,3.8-1.2c1.3-4,4.3-6.4,7.2-9.1c1.7-1.5,3.3-2.3,5.2-1.9
	c2.4,0.5,3.2,2.6,3.5,4.9C1563.4,2353.4,1563,2356.5,1564.9,2359z"/>
<path class="st14" d="M1407.9,2415.9c-6.7-3.4-14.2-2.8-21.3-3.9c-24-3.6-48.2-4.9-72.4-6.8c-26-2.1-51.9-4.9-77.8-8.4
	c-27.8-3.7-55.6-8.1-83.2-13.1c-41-7.5-82-15-123-22.7c-36.7-7-73.4-14.4-110.1-21.4c-15.2-2.9-30.4-5.2-45.7-7.6
	c-8.1-1.3-15.8-3.9-23.6-6.3c-5.9-1.8-12.1-2.1-18.1-2.8c-2.2-0.2-5.8,1.5-6.3-1.9c-0.6-3.5-1.6-7.7,2-10.7c1.8-1.5,3.8-2.5,6.1-3.2
	c44.1-13,86.7-30.2,129.5-46.6c3.4-1.3,6.6-1.5,10.2-1c13.5,1.7,26.9,4.2,40.6,4.7c11.7,0.4,23.2,3.7,34.7,6.1
	c13.2,2.6,26.6,3.7,39.8,6c14.4,2.5,28.9,4.2,43.4,6.2c19.1,2.6,38.2,5.1,57.3,7.7c22.9,3.1,45.7,6.2,68.6,9.3
	c19.3,2.6,38.5,5.1,57.8,7.6c19.1,2.5,38.2,5,57.3,7.4c1.2,0.1,2.3,0.5,3.4,0.5c19.7-0.6,38.7,4.3,57.8,7.6
	c32.7,5.7,65.2,12.5,98.6,13.7c5.5,0.2,11,0.7,16.5,0.6c3.6-0.1,7-0.3,8.7,3.9c1.7,4.3,2,8.4-0.6,12.4c-1.8,2.7-4.4,4.4-7.5,5.5
	c-30.9,11-61.2,23.4-91.9,34.8c-11.3,4.2-21.7,10.9-32.2,16.9c-3.8,2.1-8.1,3-11.6,5.5C1412.6,2415.9,1410.3,2415.9,1407.9,2415.9z"
	/>
<path class="st15" d="M950.1,1510.1c3.9,2.3,8.3,1.3,12.4,1.7c25,2.4,50.1,4.3,75.1,6.4c26.5,2.2,53,4.9,79.6,6.6
	c29.5,1.9,59,5.2,88.7,5.6c11.9,0.1,23.7,2.3,35.6,3.5c11.1,1.1,22.1,2.1,33.2,3.2c12.4,1.2,24.7,2.2,37.1,3.8
	c11.2,1.4,22.4,2.1,33.6,3.3c12.7,1.3,25.3,2.8,38,4.4c11.2,1.4,22.3,3.2,33.5,3.5c14.5,0.4,28.8,2.3,43.2,3.8
	c9.6,0.9,19.2,1.9,28.8,2.2c11.1,0.3,22.2,1,33.3,1.9c4.9,0.4,9.7-1.4,14.8-0.1c5,1.3,10,2.6,14.8,4.4c7.2,2.6,10.8,7.3,13.9,14.7
	c4.6,10.8,4.2,21.4,4.2,32.3c0,18.3,1.3,36.6,0,54.9c-0.9,13.3-0.8,26.7-2.3,39.9c-0.8,7.1-3,14.5-6.6,20.5
	c-2.3,3.9-6.6,7.6-10.8,10.5c-7.7,5.3-15.7,10-24.1,14.1c-1.8,0.9-3.8,2.2-5.6,2c-6.3-0.9-5.7,3-5.7,7.1c0.1,23.3-0.2,46.7,0.1,70
	c0.4,30.8,1,61.6,2.1,92.4c0.9,25.8,1.3,51.6,2,77.4c1.6,61.6,1.2,123.3,2.2,184.9c0.7,42.2-0.1,84.3-0.4,126.4
	c-0.1,13-8.1,20.9-20.8,22.1c-33.2,3.2-65.7-1.4-98.1-7.9c-10.2-2.1-13.4-6.5-12.4-17.2c2.3-25.4,0.9-51,1-76.4
	c0.1-31.3-0.8-62.6-0.6-94c0.3-49.5,2.7-98.9,4.5-148.3c2.4-66.3,3-132.6,2.5-198.9c0-2.7-0.8-3.8-3.5-4c-10.4-1-20.8-2.3-31.2-3.4
	c-8.4-0.8-10.2-3.6-12.6-11.4c-8-26.3-0.8-52.9-2.6-79.2c-0.3-4.1-1.4-4.8-5-5.2c-36.3-3.5-72.5-7.2-108.8-10.7
	c-34.1-3.3-68.2-6.9-102.2-11.3c-8.6-1.1-17.1-2.5-25.6-4.2c-3-0.6-4.3-0.2-4.5,3c-1,15.9-2,31.8-3,47.7
	c-1.3,21.2-2.6,42.5-3.8,63.7c-0.5,7.8-0.5,15.6-1,23.4c-1.1,20.6-1.1,41.3-2.3,61.8c-2.8,45.6-1.4,91.2-2,136.9
	c-0.3,26.3-1.7,52.6-0.8,79c0.6,19,0.3,38,1,56.9c0.6,17.7,2.5,35.5,3.8,53.2c1.7,22.8,0.9,45.6,1,68.4c0,3.2-0.3,6.5,0.5,9.4
	c1.9,6.9-0.7,12.5-6.2,15.5c-10.7,5.8-20.8,13.4-34,13.1c-3.6-0.1-7.5,0.4-9.3-4.1c-0.6-1.4-2.3-1-3.5-1.4
	c-5.9-1.9-11.8-3.6-17.6-5.4c-2.7-0.8-5.1-2.3-7.3-4.2c-1.8-1.5-2-3.5-1.6-5.5c0.6-2.3,2.7-1.2,4.2-1.5c0.5-0.1,1,0,1.5,0
	c6.2,0,6.4-0.3,4.3-6.4c-0.6-1.7-0.9-3.6-0.9-5.4c0.2-11-0.6-22-1.1-32.9c-1.8-38.4-1.6-76.9-2.7-115.4c-0.8-27.3,0.6-54.6,1.5-81.9
	c0.4-12.3,1.8-24.6,1.9-36.8c0.1-14.8-1.3-29.5-2.4-44.3c-0.5-7.1-0.5-14.3-1.1-21.4c-1.3-16.2-1.2-32.6-2.3-48.8
	c-1.8-25.2-2.1-50.5-3.7-75.7c-0.3-4-0.4-8-0.2-12c0.6-16-1.3-31.9-1-47.9c0.1-2.6-0.9-3-3.1-3.1c-12-0.4-24-1-35.9-1.6
	c-8.5-0.4-17-0.9-25.5-1.2c-4.9-0.2-9.6-1.9-13.5-4.3c-3.9-2.5-7.6-5.8-6.8-11.7c1.2-8.8-3.9-16.3-5.6-24.6
	c-1.2-6.2-3.3-12.2-4.4-18.4c-1.3-6.9-4.1-12.7-9.5-17c-3.7-2.9-4.8-6.5-5.1-11.2c-1.4-22.5-0.6-45-1.8-67.4
	c-0.7-11.6-1.3-23.3-0.9-35c0.1-3-1.3-3.8-3.8-4.1c-4.1-0.6-6.8-2.7-7.3-6.9c-0.5-4.2,1.6-7.1,5.1-8.9c6.5-3.4,13.1-6.9,20.4-8.4
	c9.2-1.9,18.1-4.3,26.7-8C944.7,1510.1,947.4,1510.1,950.1,1510.1z"/>
<path class="st16" d="M587.1,1678c1.6-1.5,1-3.4,1-5.2c0.1-11.5,0.3-23,0-34.5c-0.3-13.5,0.7-26.9,1.3-40.4
	c0.9-20.5,2.4-41,5.3-61.3c0.5-3.7,0.6-7.6-1.4-11.2c-1.1-1.9-1.2-4.1-1.1-6.3c3.2-37.4,0.7-74.9,0.9-112.4
	c0.1-29.8,0.4-59.6,2.9-89.4c0.6-7.1,1-14.4,3.1-21.2c2-6.4,7-11.3,13.8-13.3c2.1-0.6,3.4-1.3,4.3-3.3c3.2-6.8,8.7-10.2,16.2-10.7
	c13.1-1,25.9,0.2,38.5,4.1c8.4,2.6,17.2,1.6,25.7,3c5.7,1,11.5,1.6,17.3,2.3c2.8,0.3,3.8,1.7,3.4,4.3c-0.6,3.9,1.4,5.4,5,5.6
	c14.3,1,28.5,1.1,42.8-0.6c7.8-0.9,15.9,1,23.9,1.3c13.6,0.4,27.4,0.6,40.9,1.7c20.4,1.7,40.8,3.2,61.2,4.9
	c36.5,3,72.8,7.8,109.2,12.3c11.7,1.5,23.6,1.3,35.4,1.6c14.3,0.3,28.5,2,42.6,3.7c42.4,5.1,84.8,10.8,127.6,11.9
	c51.2,1.4,102.4,4.7,153.7,4.5c11.7-0.1,23.3-0.8,34.9-1.5c5.1-0.3,10.3,0,15.4,0.3c20.5,1.3,41.1,2,61.6,3.7
	c10.1,0.8,20.2,1.5,30.3,2.2c14.1,1,28.1,2.3,42.1,3.8c5.9,0.7,12,0.7,18,0.8c35,0.6,69.9,3.5,104.7,7c21.1,2.1,42.2,3.1,63.3,4.2
	c23.6,1.2,47.2,2.9,70.8,4.7c5.8,0.5,11.7,0.2,17.5,0.4c9.9,0.3,15.3,4.9,17.2,14.7c1.6,8.6,1.3,17.3,1.4,25.9
	c0.8,58.5,0.8,117,0,175.5c-0.5,34.6-1.6,69.3-2.8,103.9c-0.6,16.8-1.4,33.6-2.1,50.4c-0.7,16.6,0.6,33.3,1.7,49.9
	c0.7,10.8,0.9,21.6,1.1,32.4c0.7,27.1,1.9,54.2,2.5,81.4c0.9,39.8,2,79.6,3,119.4c0.6,25,1.2,49.9,1.9,74.9
	c2.6,92.6,1.9,185.3,1.9,277.9c0,5.5-0.3,11-1.1,16.4c-0.5,3.5-2.1,5.2-5.9,5.2c-23.2-0.1-46.3-0.1-69.5-0.1c-16-6-32.6-1.6-48.9-3
	c-4-0.3-6.1-2.4-6.6-6.7c-1.3-10.4-0.6-20.9-1.1-31.4c-1-23.9-2.5-47.7-3.6-71.6c-0.6-14.8,0.4-29.6-0.1-44.5
	c-0.6-18.1-0.1-36.3-0.2-54.5c-0.3-38.3-0.4-76.6-1.3-115c-0.6-23.7-0.2-47.3-0.7-71c-0.8-33.7-0.5-67.3-1.1-101
	c-0.7-38.5-1.9-76.9-3.8-115.3c-2.6-53.1-5.1-106.2-8.8-159.2c-0.7-9.6,0.4-19.3,0.6-28.9c0.5-29.2,0.4-58.3,0.5-87.5
	c0-7-1.2-8.2-8.3-8.3c-19.8,0-39.7,0.4-59.5-0.3c-15.4-0.6-30.8-2.8-46.2-4.3c-18.4-1.8-36.7-3.8-55.1-5.5
	c-19.7-1.8-39.4-3.3-59.2-4.8c-11.9-0.9-23.9-1.5-35.9-2.3c-20.4-1.3-40.8-2.5-61.3-3.8c-12.6-0.8-25.3-1.4-37.9-2.2
	c-17.1-1.2-34.2-2.5-51.3-3.7c-15.4-1.1-30.9-2.1-46.3-3.3c-20.7-1.5-41.5-3.2-62.2-4.8c-14.1-1.1-28.2-2.1-42.3-3.2
	c-19.1-1.5-38.1-3.1-57.2-4.8c-19.7-1.7-39.4-3.3-59.1-5.3c-23.7-2.4-47.3-5-70.9-7.7c-13.6-1.6-27.2-2.4-40.8-3.2
	c-24.4-1.3-48.9-2.6-73.3-3.8c-15-0.8-29.9-1.3-44.9-2.2c-23.9-1.5-47.9-2.5-71.6-5.8c-7.1-1-7.2-1-7.1,6.2
	c0.8,33.6,1.1,67.3,2.4,100.8c0.9,24.3,1.4,48.6,1.1,72.8c-0.4,36.6-2.2,73.2-3.5,109.8c-0.4,12.3-0.5,24.6-1,37
	c-0.9,20.3-0.3,40.7-1.4,60.9c-1.1,20.5-0.6,41-1.4,61.4c-0.6,17.8,0.6,35.6,1.3,53.4c0.4,10.8,0.5,21.6,0.9,32.4
	c0.9,23.8,1.8,47.6,3.5,71.3c4.9,70.9,2.1,141.9,2.8,212.8c0.1,7.2-1.5,14.2-0.8,21.9c-11.7-3.3-23-5.6-34.5-7.4
	c-13.6-2.2-27.2-2.5-40.8-2.2c-6.1,0.1-11.9-0.3-17.7-2.1c-6.4-1.9-13-3-19.6-3.4c-2.4-0.1-3.3-0.6-3.6-3.3
	c-1-11.1-0.2-22.3-1.1-33.4c-1.4-16.5,0.1-33-0.9-49.4c-2-32-0.2-63.9-0.9-95.9c0-1.7,0.8-3.7-1-5.1
	C587.1,1928,587.1,1803,587.1,1678z"/>
<path class="st16" d="M2729.9,2151.9c-1.2,0.5-2.4,1-3.8,1c-14.5-0.1-28.9,1.2-43.4,0.9c-3.7-0.1-5.2-1.2-4.9-4.9
	c0.2-2.8,0.3-5.7,0-8.5c-0.4-4,0.6-7.1,3.8-9.6c1.9-1.5,2.5-3.6,2.5-6.2c-0.5-21.6-0.5-43.3-1.3-64.9c-0.9-24.1-2.4-48.1-3.7-72.2
	c-0.5-8.8-0.4-17.6-1-26.4c-1-16.4-0.6-32.9-1.3-49.4c-1-25.9-1.4-51.9-2.1-77.9c-0.6-22.6-1.2-45.2-2-67.9c-0.7-18-1-36-0.4-53.9
	c2-56.6,2.3-113.2,1.8-169.9c-0.1-12.2-0.9-24.3-1.3-36.5c-0.1-2.5-0.1-5,0.1-7.5c0.9-11.3,3-13.2,14-13.2c3.7,0,7.4,0.3,11-0.1
	c4.2-0.5,6,1.4,7.2,5.1c3.9,11.9,5.8,24.2,6.8,36.6c5.2,66.5,2,133.1,3.2,199.7c0.5,26.1,0,52.3,1.1,78.4
	c0.9,22.2,0.3,44.3,0.8,66.4c0.6,27,0.9,53.9,2.1,80.9c1.1,24.6,2.9,49.1,5,73.6c1.8,21.7,3.9,43.3,4.9,65.1
	c0.1,1.1-0.1,2.4,0.9,3.2C2729.9,2113.3,2729.9,2132.6,2729.9,2151.9z"/>
<path class="st16" d="M1279.1,660.4c0.3,25.7,1.6,48.5,1.2,71.3c-0.1,5.4-0.4,10.6-2.6,15.7c-0.4,0.9-0.4,1.9-0.5,2.9
	c-0.1,1-0.1,2-0.1,3c0.7,44-1.3,87.9-1.1,131.9c0.3,60.1,0,120.3,0.2,180.4c0.1,20.7-3.2,41.2-3.7,61.8c-1.1,42.5-3,84.9-4.4,127.4
	c-0.2,7.1-0.1,14.3,0.8,21.4c1,8.1-0.2,16.3-1.1,24.4c-0.4,3-1.8,3.9-4.7,3.6c-20.3-1.6-40.5,1.1-60.8-0.3c-15.2-1-30.5-2-45.7-3.2
	c-7.6-0.6-10.2-3.9-10.5-11.5c-2-50,1-99.9,1.5-149.9c1.1-125.1,0-250.2,0.6-375.3c4.5-15.9,2.4-32.3,3.4-48.5
	c0.6-10,0.7-20,1.2-29.9c0.7-13.5,2.3-26.9,2.1-40.4c-0.3-14.3-0.3-28.6-0.9-43c-0.9-22.2-1.2-44.3-0.6-66.5
	c0.3-12.8,0.5-25.6,3.5-38.2c0.4-1.9,0.5-4,0.2-6c-1.1-9.3,2.6-18.3,1.9-27.6c-0.1-1,0.3-1.9,1.3-2.4c4.3-2.1,10.4,0.3,11.8,5
	c0.9,3,1.5,6.1,2.1,9.2c0.5,2.3,1,3.2,3.9,2.5c12.6-3.3,25.3-5.3,38.5-3.5c2.5,0.3,4.2,0.3,5.8,2.5c1.2,1.7,3.3,1,5.1,1
	c10.5-0.2,21-1.5,31.4-0.5c11.1,1,16.8,6.9,17.2,18.1c0.5,14.8,0.7,29.6,0.9,44.5c0.5,35.1,0.8,70.3,1.3,105.4
	C1278.4,651.6,1278.9,657.5,1279.1,660.4z M1206.6,566.4c0.5-0.1,0.9-0.1,1.4-0.2c-0.5-4.1-0.6-8.1-3-11.9
	C1205.5,558.3,1206.1,562.3,1206.6,566.4z"/>
<path class="st16" d="M1526,1647.8c-0.1,20.3,0.5,40.6-1,60.9c-0.7,9.6-1.8,19.2-5.1,28.4c-1.4,3.8-3.3,5.6-7.7,4.9
	c-22.2-3.3-44.5-6.4-66.7-9.5c-32.3-4.6-64.5-9.4-96.8-13.7c-31.8-4.2-63.6-6.4-95.6-7.1c-8-0.2-16-0.1-23.6,2.9
	c-1.7,0.7-4,0.4-5.9,0.1c-21.8-2.5-43.6-5.2-65.3-8.1c-40.7-5.6-80.6-15.5-120.9-23.2c-4.7-0.9-9.6-1.6-14.3-1.5
	c-17,0.4-34.1-0.2-50.6-3.5c-19.7-3.9-39.3-3.1-59-3.7c-6.9-0.2-13.9-1.1-20.7-2.9c-3.1-0.8-4.5-2.3-4.6-5.9
	c-1.2-30.1-2.5-60.2-4.1-90.3c-0.5-8.8-0.7-17.6-2.4-26.3c-0.4-2.1,0-4.2,1.3-5.6c5.1-5.3,10.2-10.9,18.6-8.7c4,1,7.9,0.8,11.9,0.8
	c16,0,32,0.1,48,0c14.2-0.1,27.9,3.7,41.6,6.5c21.7,4.3,43.3,9.1,65.1,13.3c6.1,1.2,12.6,0.8,18.8,1c14.4,0.4,28.8,1.8,43.2,2.4
	c16.7,0.7,33.3,2.8,50,3.7c10.6,0.6,21.2,1.4,31.7,2.1c16.7,1.2,33.3,2.3,50,3.8c9.2,0.8,18.5,1.4,27.7,2.2c15,1.4,30,2.7,45,3.9
	c9.4,0.8,18.8,1.4,28.2,2.1c16.2,1.3,32.3,2.6,48.5,3.9c5.4,0.4,10.9,0.7,16.4,0.9c16.2,0.7,32.3,2.8,48.4,4.5
	c7.8,0.8,15.6,1.6,23.4,1.3c10-0.4,17.3,5.2,25.1,9.8c1.9,1.1,1.5,3.2,1.5,5C1526,1617.5,1526,1632.7,1526,1647.8z"/>
<path class="st16" d="M1479,1923.6c-1,40.9,1,89.8,1.2,138.8c0.1,31,1.8,61.9,2.9,92.9c1.8,46.5,2.6,92.9,1.1,139.4
	c-0.4,11.3-0.5,22.6,1.5,33.8c0.8,4.3-4,7.8-10.2,8.5c-8.4,0.9-16.4-1-24.5-2.4c-29.7-5.3-59.7-8.1-89.7-10.5
	c-9.1-0.7-18-3.6-27.2-3.5c-1.5,0-2.1-0.8-2-2.2c0-1.2,0-2.3,0-3.5c0-32.3-0.6-64.7,0.2-97c0.5-18.8-0.2-37.6,1-56.4
	c0.9-13.5-0.2-27,0.9-40.4c1.4-16.6-0.2-33.3,1.1-49.9c1.2-16.5,0.1-32.9,0.9-49.4c1.5-31.3,0-62.6,1.2-93.9
	c0.8-21.1-0.4-42.3,0.9-63.4c1-15.5,0.2-30.9,0.9-46.4c0.8-18.1,1.9-36.1,3-54.1c0.3-4.9,1-9.9,2-14.7c0.8-4.3,3.8-6.9,8.2-7.7
	c4-0.7,8.1-0.7,11.9,0.3c6.7,1.6,13.5,1.4,20.3,1.9c11.8,0.7,23.5,2.1,35.3,3.1c10.1,0.8,20.2,1.2,30.3,1.8c7,0.4,13.8,1.2,20.4,4.1
	c5.1,2.2,7.4,5.6,7.5,11.4C1479.3,1814.8,1479,1865.1,1479,1923.6z"/>
<path class="st16" d="M921.4,1696.7c3.2,0.9,5.7,0.7,7.6-2.6c1.4-2.5,4.6-2.4,7.3-2.6c10.6-0.7,20.9,1.2,31.3,2.9
	c22.2,3.5,44.1,8.5,66.4,11.6c6.1,0.8,9.4,5.2,9.8,11.4c5.2,85,2.9,170.1,3.3,255.2c0.2,50.8-0.6,101.6,0.2,152.4
	c0.8,49.3,0.6,98.6,1,147.9c0,5.4,1.5,10.7,1.8,16.2c0.2,4.4-1.6,4.8-5.2,4.5c-18.3-1.3-36.4-4.4-54.5-6.8
	c-23.9-3.2-47.7-7.1-70.8-14.7c-4-1.3-4.4-2.6-3.8-6.5c1.1-6.2,1.1-12.6,1.3-18.9c0.4-13.3,0.6-26.7,0.8-40
	c0.2-15.3,4-30.2,4.2-45.4c0-0.5,0.1-1,0.1-1.5c-0.7-13,0.8-25.9,1.2-38.9c0.6-21.1,0-42.3,1.1-63.3c0.8-15,1.2-30,0.5-44.9
	c-0.9-17.8,0.3-35.6-0.9-53.4c-0.9-13.2,0.2-26.3-1-39.4c-1.2-13.1-0.4-26.3-0.9-39.4c-2.3-60.4-0.3-120.9-1-181.3
	C921.1,1698.5,921.3,1697.7,921.4,1696.7z"/>
<path class="st16" d="M1288.5,1299c0.9-13.5,2.1-28.1,2.8-42.7c2.1-42.3,3-84.6,3-126.9c0-2.7,0.3-5.3,1.1-7.8
	c12.3-35.6,26.1-70.5,44-103.8c7.5-13.9,19.4-23.5,28-36c3.5-5,8-9.3,11.9-14.1c13.7-17.1,31.8-28.1,51.1-37.7
	c2.2-1.1,3.9-1.8,2.3-4.6c-1.4-2.4-0.1-3.1,2-2.8c12.3,1.7,23.3-2.5,34.1-7.5c0.3-0.1,0.6-0.2,0.9-0.3c13.2-4.6,14-4.1,18.6,9
	c6.7,19.1,13.6,38.2,20.5,57.3c2.9,8,5,16.2,6.9,24.5c1.5,6.4-2.4,11.2-6.9,15.2c-10.7,9.3-21.6,18.4-32.4,27.4
	c-2.4,2-4.3,4.1-5.5,7c-1.2,2.8-3.3,5-5.6,7c-28.8,24.2-48.2,55.3-64.9,88.4c-10.3,20.5-19.5,41.6-28.9,62.6
	c-5.1,11.3-6,23.4-8.4,35.2c-4,19.4-4,39.3-5.8,58.9c-0.3,3.7-2.8,4.9-5.2,5.7c-3.4,1.1-7.2,1.8-10.8,0.8
	c-14.2-3.8-28.7-3.5-43.1-4.2C1288.9,1308.8,1288.9,1309,1288.5,1299z"/>
<path class="st16" d="M1133.8,1184.3c1,24.8,0.8,47.8,0.1,70.7c-0.3,11.5-0.8,23-0.8,34.4c0,3.7-1.7,5.7-5.4,5.7
	c-9.5-0.1-19-0.7-28.4-0.3c-13.3,0.6-26.1-3-39.1-4.2c-6.4-0.6-7.9-2.9-9.4-9.5c-1-4.6-1.2-9.2-1.2-13.9
	c-0.2-31.5-0.4-62.9-4.3-94.3c-2.7-22.1-10.9-42.2-21-61.5c-14.6-27.9-28.1-56.3-44.3-83.3c-3.2-5.3-6.6-10.4-10.3-15.3
	c-2.2-2.9-2.3-5.3-1.2-9c7.4-26,20.2-49.5,32.2-73.4c4.7-9.4,9.7-18.6,14-28.1c1.5-3.4,1.2-7.2,3.2-10.4c1-1.7,1.3-3.8,4-3.7
	c2.6,0.1,4.8,0.1,6.3,2.9c4,7.5,8.2,14.8,12.2,22.2c13.2,24.5,27.8,48.1,40.3,73c11.1,22.2,21.2,44.9,33.6,66.3
	c10.7,18.6,16,38.2,18.1,59.1c1.2,12.3,1.5,24.6,1.5,36.9C1133.7,1161.1,1133.8,1173.6,1133.8,1184.3z"/>
<path class="st16" d="M1953,1713.3c0-4.5,0.3-9-0.1-13.5c-0.6-6.5,2.2-11.9,4.5-17.5c0.8-2,2.1-3,4-3.1c15.8-1.1,30.7-7,46.3-9.4
	c37.7-5.7,75.4-11.3,113.1-16.9c29.3-4.4,58.8-7.2,88.3-10.6c13.3-1.5,26.2,1.9,39.2,3.2c2.8,0.3,5.7,0.6,8.4,1.4
	c2.5,0.8,4.3,2.7,3.7,5.7c-0.7,3.2-3.3,1.9-5.3,1.9c-10.2-0.3-20.1,1.9-30.2,3c-44.3,5.2-87.8,15.9-132,21.8
	c-32.2,4.3-64.2,10.2-96.7,10.8c-2.9,0.1-3.2,1.3-3.2,3.6c0.1,17.3-0.4,34.6,1,51.9c0.4,4.5,0.5,9-0.1,13.5c-0.5,3.8,1.1,3.7,4,3.9
	c6.1,0.4,12.1-1.8,18.3-0.3c2.6,0.6,3.5,0.9,4.2,3.9c7.8,34.9,3.9,70.4,5.6,105.5c2,39.9,3,79.9,4.1,119.8c0.5,16.6,1,33.3,2.4,49.9
	c0.6,7.4-1.1,15.2-2.8,22.5c-1.1,4.8-6.2,3.1-8.9,2.2c-6-2-11.6-5-17.2-7.9c-2.6-1.3-3.3-4.1-3.5-6.8c-0.3-4-0.7-8-0.7-12
	c0.1-45.3-2.9-90.5-4.3-135.8c-0.7-23.5-1.6-46.9-2.1-70.4c-0.4-19.2-2.7-38.2-4.4-57.2c-0.2-1.8-1.1-3,1.8-3.9c3-0.9,1.2-4.6,1.3-7
	c0.1-2.3-2-1-3-0.8c-8.7,1.9-16.7-2.3-25-3.4c-7.7-1-7.7-1.3-8-9.2C1955.5,1739.3,1950.9,1726.6,1953,1713.3z"/>
<path class="st16" d="M2390.6,1737.4c1.3,22.3,2.3,42.6,3.7,62.9c1.5,22,1.7,43.9,2.5,65.9c0.9,24.3,1.2,48.6,2.3,72.9
	c0.4,10.1,2.1,20.1,3.2,30.2c0.5,4.1,2.2,9.3-0.9,11.9c-3,2.4-6.8-1.8-10.2-3.2c-6.9-2.8-13.6-6.5-21.2-7.1c-2.7-0.2-2.3-2-2.5-3.5
	c-1.9-9.5-2.7-19.1-3.6-28.7c-1.6-16.4-3.2-32.7-4.7-49.1c-0.9-9.3-1.8-18.5-2.3-27.8c-1.8-33.6-0.8-67.3-1.1-100.9
	c-0.1-9.8,0.5-19.6,1.9-29.3c0.8-5.8-0.6-11.6-0.8-17.4c-0.2-7.7,1.9-10,9.8-10.3c4.8-0.2,9.7,0.2,14.5-0.1c3.3-0.2,4.7,1.3,5.7,4.1
	c1.8,5,3,10.2,3.5,15.5C2391.1,1728.8,2390.6,1734.2,2390.6,1737.4z"/>
<path class="st16" d="M2312.8,1672.5c-0.3-5.5-0.4-11-0.9-16.5c-0.6-6.3,0-13,4.3-17.2c3.5-3.4,8.4-6.9,14.2-6.6
	c4.4,0.2,8.5-0.9,12.7-2.2c22.6-7.1,45.9-11,69.1-15.6c49.1-9.8,98.3-19.3,147.5-28.8c8.8-1.7,17.7-3.5,26.6-4.1
	c12.5-0.7,25.1-0.5,37.4,2.4c2,0.5,4.1,0.8,4,3.5c-0.1,2.7-1.8,3.5-4.2,3.9c-40.4,6.8-80.6,14.5-120.7,22.6
	c-46.2,9.2-92.4,18.5-138.8,26.6c-3.9,0.7-7.9,1.2-11.8,1.8c-1.7,0.3-3.1,0.4-2.5,3c2.4,11,1.2,22.2,1.5,33.4
	c0.2,9.2,0.5,18.3,0.6,27.5c0,6.6-0.5,7.3-7,7c-8-0.3-15.8-2.3-23.8-2.2c-2.3,0-3.6-2-4.6-4c-2.3-4.7-3.3-9.7-3.1-15
	c0.2-6.5,0-13,0-19.5C2313.1,1672.5,2313,1672.5,2312.8,1672.5z"/>
<path class="st16" d="M2184.6,1764.8c0.8,19.6,1.3,39.2,2.4,58.8c1.7,28.4,3.6,56.8,4.4,85.2c0.3,10.8-0.3,21.6-0.5,32.5
	c0,2.3-1,3.4-3.5,3.9c-28.3,5.7-55.9,15.4-85,16.9c-0.8,0-1.7,0.2-2.4,0.6c-5.3,2.7-7.1,2-8.5-3.8c-1.1-4.8-0.4-9.6-0.5-14.4
	c-0.1-2.4,1.7-2.4,3.3-2.9c7.9-2.5,16.1-2.2,24.2-2.9c11.9-0.9,22.8-5.9,34.4-8.1c3.6-0.7,8.3-0.1,10.4-2.2
	c2.3-2.3-0.4-6.8-0.4-10.4c0.2-24.3,0.6-48.6-1-72.9c-1.7-26.8-1.5-53.6-3-80.3c-0.3-4.5-0.5-9-0.9-13.4c-0.3-2.5,0.7-3.6,3.1-3.9
	c6.7-0.9,13.3-2,20.1-2.3c2.3-0.1,2.8,0.7,2.8,2.8c-0.1,5.7,0,11.3,0,17C2184.2,1764.8,2184.4,1764.8,2184.6,1764.8z"/>
<path class="st16" d="M2544.7,1872.2c0.3,10.1,0.3,10.3-7.7,12c-24.7,5.3-49.4,10.5-74.1,15.6c-7.2,1.5-7.9,0.7-9.2-6.3
	c-0.8-4.4-1.6-8.8-1.7-13.3c-0.1-2.5,0.6-3.5,3.2-3.8c15.8-1.9,31.3-6.2,47.2-7.5c5.8-0.5,11.5-3.1,17.2-4.7
	c1.8-0.5,2.2-1.5,2.2-3.3c-0.7-15.9-1.1-31.9-2-47.8c-1.7-31.1-3.9-62.2-5.6-93.2c-0.6-9.8-1.5-19.6-3-29.3
	c-0.7-4.7,1.7-7.7,6.2-8.8c5.1-1.2,10.3-0.5,15.4-0.7c2-0.1,2.6,1,3.4,2.7c2.1,4.6,2.1,9.4,2.2,14.2c0.6,17.8,0.4,35.7,1.6,53.4
	c1.3,19.6,0.7,39.3,1.7,58.9C2542.8,1831.5,2543.3,1852.8,2544.7,1872.2z"/>
<path class="st16" d="M1206.6,566.4c-0.6-4-1.1-8.1-1.7-12.1c2.4,3.7,2.6,7.8,3,11.9C1207.6,566.2,1207.1,566.3,1206.6,566.4z"/>
<path class="st17" d="M1785,1655.9c-7-1.4-11.5-6.4-16.2-11.3c-25.4-26.1-46.3-55.3-62-88.2c-0.9-1.9-2.1-3.8-3.3-5.5
	c-5.8-8.6-11.4-17.2-14.7-27.1c-1.3-3.8-4.1-6.8-6.4-10.1c-27.7-39.5-51.2-81.4-75.2-123.2c-31.5-55-62.3-110.4-90.7-167.1
	c-12-23.9-27.2-46.2-40.5-69.4c-41.8-73.2-79-148.7-115.2-224.8c-50.6-106.6-98.3-214.5-137.9-325.7
	c-13.4-37.7-30.8-73.5-46.2-110.2c-2-4.7-4.5-9.4-5.7-14.4c-2-9-9.6-13.3-15.2-19c-6.5-6.6-14.9-9.9-24-11.4
	c-8.7-1.4-11.8,0.2-15.8,7.9c-1.8,3.4-3.7,6.7-5.6,10c-0.7,1.3-2,2.7-1.2,4.1c2.6,4.4,3.6,9.4,5.7,14c1.5,3.2,4.3,3.3,7.2,1.3
	c2.9-2,5-4.9,7.5-7.3c3.9-3.9,6.3-3.7,8.9,1c3.9,7,7.4,14.2,11.1,21.2c0.7,1.3,0.6,2.4,0.2,3.8c-11.7,39.7-20.1,80.3-30.9,120.3
	c-17,62.4-40.4,122.5-66.1,181.7c-26.9,61.9-57.8,121.8-91.5,180.1c-43.8,75.8-85.3,152.9-127.7,229.5c-8.6,15.6-17.5,31-26.1,46.6
	c-1.7,3.1-3.3,3.9-6.9,3.6c-16.9-1.3-33.8-4.1-50.8-0.8c-3.4,0.7-6.8,1.5-10.1,2.6c-3.5,1.1-5.9,3.4-5.9,7.2c0,4.1,2.8,6.4,6.4,7.3
	c8.8,1.9,17.7,3,26.8,2.2c9.3-0.8,18.5-1.8,27.5-2.6c1,1.2,0.4,1.9,0,2.6c-46.7,76.5-92.5,153.4-142.4,227.9
	c-7.7,11.5-15.9,22.6-25,33.1c-4.6,5.3-10.6,9.1-15.3,14.2c-1.2,1.3-4,1.3-6.1,1.7c-16.9,3.7-33.8,6.9-50.3,12.6
	c-25.6,8.8-51.6,16.1-78.3,20.9c-1.5,0.3-2.8,0.6-4.3-0.2c-21-12-43.6-20.3-65.7-29.9c-6.4-2.8-8-8.7-3.4-14.3
	c5.1-6.2,10.6-12,15.4-18.2c6.8-8.8,13.6-17.7,20.7-26.2c28.9-34.5,51.6-73.1,75-111.3c43.4-71,86.8-142,134.4-210.3
	c16.1-23.1,31.1-46.7,44.5-71.5c12.3-22.8,27.7-43.9,41.4-66c58.3-93.5,109.5-190.8,156.7-290.3c16.1-34,33-67.6,50.6-100.8
	c10.5-19.9,17.3-41.4,25.5-62.3c11.5-29.1,22.4-58.4,33.7-87.5c9.3-24.1,22.3-46.5,33.7-69.6c14.9-30.3,28.5-61.2,41.6-92.3
	c5.6-13.3,11.6-26.5,17.1-39.8c2.5-6.1,6.4-11.3,12-15.1c1-0.6,2.2-1.4,2.5-2.3c3.5-8.8,11.2-8.5,18-6.9c14.4,3.4,29,5.5,43.4,9
	c7.8,1.9,14.6,5.9,20.6,10.9c31.9,26.7,70.1,38.6,109.9,46.9c58.8,12.3,118.1,22.2,177.6,30.6c37.8,5.3,75.7,9.4,113.6,13.5
	c36.9,4,73.9,7.1,110.9,10.5c18.7,1.7,37.5,3.2,56.3,4.2c41.9,2.3,83.9,1.5,125.9,2.5c43.1,1.1,86.3,1.6,129.5,1.6
	c20.5,0,41-0.8,61.4-2.1c10-0.6,19.4-4.2,29.4-5.3c18.5-2,37.1-3.2,55.7-4.6c19.1-1.4,38.1-3,57-5.9c19.3-3,34.8,3,45.2,20.1
	c0.6,1,1.1,2.3,2,2.8c9.5,5.8,12.5,16,17.3,25c13,24.4,26.7,48.4,39.5,72.9c25.5,49,50.8,98.2,75.8,147.4
	c22.1,43.6,48.3,84.6,74.5,125.8c29.8,46.9,56.7,95.7,87.2,142.2c73.8,112.4,152.4,221.5,238.5,324.9c25.5,30.6,51.4,60.9,75.8,92.3
	c2.3,3,5.3,5.1,8.2,7.2c33.4,24.6,66.5,49.6,98.3,76.2c9.8,8.2,9.7,8.3,5.5,20.2c-3.2,9.3-7,18.3-9.3,27.9c-0.7,2.7-2,3.5-4.8,3.8
	c-25.5,2.5-51.2,4.2-76.5,8.1c-18.5,2.9-36.7,7.9-55.2,11.2c-34.6,6.2-69.3,11.4-104,16.5c-32.9,4.9-65.8,9.9-98.8,14.5
	c-30.6,4.4-61.3,8.5-92,12.5c-30,4-60,8.4-90.1,11.3c-36.9,3.5-72.5,13.3-108.8,20.1c-6.5,1.2-13.1,2.2-19.7,3.3
	c-0.5,0.1-1,0.3-1.5,0.2c-18-3.5-35.2,2.4-52.7,4.9c-67.4,9.6-134,23.9-201.1,35c-32.4,5.4-65,8.9-97.7,11.4
	c-34,2.5-68.1,5.7-101.7,11.6c-22.8,4-46.1,5.4-68.4,12.2c-1.6,0.5-3.7,0.2-4.8,2.1C1794.3,1655.9,1789.7,1655.9,1785,1655.9z"/>
<path class="st18" d="M1886,1639.9c-0.3,0-0.7,0-1,0c-2.4-3.6-6-5.9-9.1-8.7c-10.5-9.6-21-19.2-31.1-29.1
	c-18.5-18.1-36.5-36.7-54-55.8c-15.8-17.2-31.5-34.5-46.4-52.5c-9.9-12-20.2-23.6-29.8-35.9c-12.7-16.3-25.3-32.6-37.6-49.3
	c-15.9-21.7-31.8-43.5-47-65.8c-18.7-27.6-36.9-55.5-54.6-83.8c-13.7-22-27.4-43.9-40.4-66.3c-12.5-21.4-25-42.7-37.3-64.2
	c-12.9-22.4-25.4-45.1-38.2-67.6c-9.2-16.2-17.8-32.7-26.5-49.1c-11.1-21-22.3-42.1-33.1-63.3c-23.9-47.1-47.7-94.2-70.1-142
	c-8.8-18.7-17.9-37.4-26.7-56.1c-10.8-22.8-21.5-45.7-32.1-68.5c-9.1-19.5-17.7-39.2-28-58.1c-12.9-23.6-26.3-46.9-38.8-70.6
	c-13.5-25.7-24.8-52.4-35.7-79.3c-0.9-2.2-0.2-6.4-4.9-5.3c-3.7-6-10.7-9.2-13.9-15.4c-8-15.5-16.4-30.8-24-46.5
	c-9.7-20.1-18.9-40.4-26.2-61.5c-3.4-9.8-5.8-20-8.4-30c0-1.3,0-2.7,0-4c3-5.3,4.8-11.4,9-15.9c4.3-4.6,9.8-8,13-13.7
	c1-1.8,2.9-1.2,4.5-1.4c9-1.1,17.3,2.9,26,3.9c22,2.5,41.6,9.9,58.9,24.4c12.6,10.6,27.5,18,43.2,23.5c27.7,9.8,56.3,15.9,85.1,21.2
	c25.7,4.7,51.4,9.5,77.1,13.8c38.1,6.3,76.3,11.8,114.7,16.4c35.7,4.3,71.5,8.2,107.3,11.7c28,2.7,56,5.6,84.1,7.5
	c23.1,1.6,46.1,4.4,69.2,4.6c33.5,0.3,67,0.8,100.5,1.4c57.8,0.9,115.6,2.7,173.4,0.5c9.1-0.4,18.5-0.1,27.3-2.4
	c20.7-5.3,41.8-5.9,62.8-7.5c23.5-1.8,47.1-3.2,70.5-6.9c19.3-3,34.8,2.9,45.3,20c1,1.5,1.8,3.2,3.4,4.2c5.7,3.7,9.1,9.1,11.8,15.1
	c2.8,6.2,5.9,12.3,9.3,18.2c23.4,41.3,45.1,83.5,66.5,125.8c24.7,48.7,49.1,97.6,76.5,144.8c15.4,26.5,32.8,51.7,49.1,77.7
	c37.7,60.2,72.8,122.1,113.1,180.7c55.9,81.2,113.4,161.3,175.3,238.1c34.9,43.3,71.4,85.4,105.9,129.1c1.9,2.4,4.3,4.2,6.7,6
	c21.5,15.8,42.8,31.8,63.8,48.2c14.4,11.3,29,22.5,42.5,34.8c1.5,1.4,3.2,2.5,2.1,5.3c-4.6,12.4-9.4,24.9-12.9,37.7
	c-0.5,2-1.5,2.6-3.4,2.8c-6.8,0.6-13.6,1.3-20.4,2c-18.4,1.9-37,2.3-55.1,5.9c-28.5,5.6-57,11.7-85.7,16.4
	c-50.1,8.2-100.3,15.3-150.5,22.7c-31.9,4.7-63.9,9.1-95.9,13.4c-32.7,4.4-65.4,8.4-98,12.7c-18.8,2.5-37.7,3.9-56.3,7.7
	c-17.9,3.7-35.6,8.3-53.6,11.5c-13,2.3-26,7.4-39.6,3.9c-0.6-0.2-1.3,0.1-2,0.2c-58.4,7.9-116.3,18.3-174.2,29.1
	c-37.1,6.9-74.3,13.7-111.8,18.4c-38,4.8-76.3,6.1-114.3,11.2C1905.4,1637.2,1895.6,1637.6,1886,1639.9z"/>
<path class="st19" d="M1323.1,363.1c16.7,7.1,21.5,16.2,19.5,34.7c-0.8,7.3,2.8,14,7.5,19.5c31.9,37.1,67.8,46.2,110,26.2
	c19.2-9.1,34-23.3,43.3-42.6c1.9-3.9,4.3-6.2,8.9-5.1c3.3,0.8,5-2.2,7.5-3.4c2.7-1.2,5.1-3,6.5,1.6c0.7,2.3,2.4,2.4,4.4,1.1
	c1.9-1.3,3.9-2.5,6-3.6c1.2-0.6,2.8-1.6,4,1.4c-3.5-0.4-6.2,0.8-7.9,3.8c-2.7,5-2.3,10.4-1.3,15.6c0.9,4.8,3.2,9.2,6.6,12.7
	c14.9,15.2,31.7,26.9,53.6,29.4c12.1,1.4,23.5-1.4,34.6-5.8c21.4-8.5,37.6-23.2,48.7-43.2c2.6-4.7,5.5-6,10.6-5.4
	c8.7,1.1,17.6,1.7,26.4,2.4c2.9,0.2,4.5,1.1,5.7,4.2c3.4,9.3,9.7,16.8,17.2,22.9c18.4,14.7,39.6,22.4,63.3,22.3
	c12.6,0,24.8-3,35.9-9.2c10.9-6,21.7-12.4,31.4-20.3c4.2-3.5,8.6-6.8,14.1-8.3c0.5-0.1,1.1-0.3,1.3-0.7c2.8-6.4,8.4-4.7,13.4-4.6
	c7,0.1,14,0.4,21,0.4c2.5,0,4,0.3,3.8,3.4c-0.4,7.9,3.1,14.3,8.5,19.6c26.6,26.6,58.3,32.4,91.9,16.5c9.7-4.6,18.7-10.8,28.6-15.1
	c2.2-0.9,2.8-2.1,1.2-4.1c-5.1-6.4-2.3-12.4,0.9-18.5c0.7-1.4,1.6-1.9,3.1-2c7.5-0.3,15-0.7,22.5-1.2c1.7-0.1,2.7,0.3,3.2,2.2
	c3.2,11.8,11.7,19.3,21.8,24.9c19.9,11,40.6,15.9,63.8,11c15.5-3.3,29.7-7.8,42.2-17.6c2.8-2.2,4.1-3.7,1.4-7.1
	c-2.3-2.9-5.6-6.3-4.8-10.1c1.3-5.9,3.1-11.9,7.1-16.9c1.6-2,3.7-1.2,5.5-1.6c21.3-4.2,35.7,1.8,47.4,19.9c0.5,0.7,0.8,1.6,1.4,2
	c11.1,7,14,19.4,19.9,29.8c3,5.3,5.9,10.7,9,16.4c-19.1,2.4-36.7-0.8-52.9-10.8c-3.6-2.2-4.9-2-6.8,1.9
	c-12.7,25.2-33.5,36.6-61.6,37.8c-32,1.3-60.6-6.8-86.5-25.3c-1.9-1.4-3.3-2.4-5.1,0.4c-19.3,29.6-48.1,40.2-82,41.1
	c-44.4,1.2-80.7-15.3-109.7-48.7c-0.2-0.2-0.5-0.3-1.1-0.7c-1.7,2.6-3.3,5.3-5,7.9c-14.4,23.5-35.6,35.2-62.9,36.4
	c-22.6,1-44.9,0.3-66.5-7.7c-22.7-8.4-41.2-22.9-58.2-39.6c-5.9-5.8-6-5.9-10.5,0.8c-15.9,24-38.8,35.3-67.1,36.2
	c-13.1,0.5-26.3,0.8-39.4-1.2c-23-3.5-42.6-13.7-58.8-30.4c-1.6-1.7-2.7-3.2-4.9-0.5c-20.5,24.1-47,34.1-78.3,34.2
	c-25.3,0.1-49.8-3-73-13.5c-18.9-8.6-35.4-19.9-44.4-39.8c-6.3,2.9-10.7,7.1-12.5,14.1c-0.6-1.7-1.2-3.5-1.8-5.3
	c-20.5,8.2-41.4,9.2-62.8,5.8c-11.2-1.8-21.4-5.8-31-11.8c-3.3-2.1-3.3-3.1,0.1-5.2c14.2-9,28.9-17.3,42-27.9
	c10.6-8.6,20.1-18.5,30.9-26.9c9.8-7.6,20.1-14.2,32-18c0.7-0.2,1.2-0.5,1.3-1.3C1319.1,363.1,1321.1,363.1,1323.1,363.1z"/>
<path class="st20" d="M1364.8,786.2c4.6-2.8,8.2-4.9,11.8-7c25.2-14.5,48.7-31.9,74.3-45.9c8.4-4.6,16.7-8.1,26.5-6.5
	c2.9,0.5,5.5,1.4,7.9,3c12.6,8.3,25.6,16,39.1,22.9c16.1,8.3,33.2,12.6,51,15c1.6,0.2,3.3,0.1,5-0.1c23.8-3.8,45.6-12.2,64.3-27.7
	c2.2-1.8,2.6-4.1,3.2-6.5c2.1-7.5,5.9-10.6,13.6-10.4c3.5,0.1,5.3-2.6,7.8-3.9c2.8-1.4,4.9-2.2,6,1.8c0.8,2.6,2.6,2.7,4.6,1.2
	c0.1-0.1,0.3-0.2,0.4-0.3c2.7-1.4,5.2-5.2,8.2-3.4c3,1.9,2.7,6.2,2.6,9.7c0,1.9,0.1,3.6,2,4.7c10.5,5.9,19.2,14.3,29.2,21
	c6.7,4.5,14,7.6,21.8,9.7c5.6,1.5,11.2,1.6,16.8,0.2c21-5.4,41.1-12.6,57-28.3c1.6-1.6,2.7-3,3.3-5.3c2-8.7,8.1-12.3,16.8-10.1
	c2.3,0.6,4.4,0.9,6.8-0.1c3.8-1.6,7.5-0.2,11.2,0.9c18.2,5.7,34.1,15.7,49.8,26.2c13.5,9,27.5,16.9,43.9,19.6c3,0.5,6,0.9,8.9,0.2
	c18.1-4.3,35.5-10,50.2-22.2c6.3-5.3,12.3-11.4,20.5-14c1.6-0.5,1.9-2.2,2.8-3.4c4.1-5.5,9.6-7.4,16.3-5.5c1.6,0.5,3.2,1.1,4.9,0.4
	c5.8-2.4,11.1-0.6,16.3,2c9.8,4.8,18.5,11.1,27.1,17.8c12.7,9.8,26.2,18.1,42.1,22.1c6.9,1.7,13.5,1.9,20.1-0.8
	c13.1-5.3,26-11.2,38.6-17.5c2.9-1.5,2.8-2.7,1.3-5.3c-4.6-7.9-6.6-16.4-3.4-25.4c3-8.4,9.9-12,18.6-10.1c1.4,0.3,3.1,1,4.4,0.6
	c8.5-3.1,15.7,0.7,22.7,4.5c8.3,4.4,15.2,10.8,22.7,16.3c14,10.3,28,20.5,44.9,25.6c6.5,2,12.5,2,18.9-0.5
	c10.7-4,20.8-8.8,29.4-16.5c2.5-2.2,3-3.6,0.8-6.4c-5-6.4-8.6-13.5-8.9-21.8c-0.4-11.2,6.9-16.9,17.7-14.1c1.1,0.3,2.5,0.7,3.4,0.3
	c5.9-2.7,11.3-0.5,16.9,1.3c11.7,3.8,23.4,7.6,34.2,13.7c1.9,1.1,3.7,2.1,4.8,4.2c8.7,17.1,19.9,32.7,30.4,48.7
	c1.9,2.9,2,4.1-1.8,4.5c-22.3,2.3-44.3,2.3-64.4-9.9c-3-1.8-3.8-0.5-5,1.9c-7.1,14.5-16.3,27.1-31.6,34c-8.8,4-18,5.8-27.5,6.5
	c-32.2,2.5-61.9-4.3-88.7-22.8c-2.7-1.9-4-1.6-5.7,1.2c-18.5,29.8-46.6,41.8-80.5,42.8c-18.9,0.6-37.5-0.8-55.5-7.6
	c-20.5-7.7-38.2-19.5-53.1-35.4c-2.7-2.9-3.8-3.6-5.8,0.5c-2.8,5.9-6.6,11.2-10.6,16.3c-11.9,15.1-27.8,23.4-46.5,25.6
	c-25.5,3.1-50.8,2.8-75.5-5.8c-22.2-7.7-40.4-21.5-57.6-37c-0.9-0.8-1.8-1.5-2.5-2.4c-3-4-4.5-2.8-6.7,1
	c-13.3,22.9-32.8,36.8-59.5,39.8c-21.1,2.4-42.2,2.8-63-2.7c-16.8-4.5-31.2-13.1-43.6-25.2c-2.1-2-3.2-3-5.7,0
	c-19.5,24-44.9,35.3-75.8,36c-28,0.6-55.2-2.1-80.8-14.3c-13.8-6.6-26.5-14.9-34.9-28.1c-1.6-2.5-2.9-1.9-4.8-0.7
	c-18.9,11.6-39.6,16.2-61.5,15.5C1393.3,794.3,1379.2,792.3,1364.8,786.2z"/>
<path class="st20" d="M1534.3,937.9c-5.5,7-11.2,12.9-17.4,18.1c-10.9,9.2-22.7,16.9-36.6,20.9c-10,2.9-10.8,2.2-8.3-7.9
	c4.2-16.8,9.7-33.2,11.7-50.5c1.4-12.6,6.5-23.1,14.9-32.4c12.6-14,29.8-10.3,39,3.3c3.5,5.2,5.7,10.9,6.3,17.2
	c0.4,3.9,2.2,5.1,5.5,3.6c4.6-2.1,8.7-1,13,0.8c14.3,6.1,29.1,10.6,44.1,14.2c20.2,4.8,43.2-3.9,55.6-20.7c5.7-7.7,9-16.6,13.5-25
	c1.3-2.4,2-6.4,4.9-6.3c2.5,0.1,4.1,3.5,5.6,6c0.7,1.1,1.3,2.3,2.3,3.9c1.7-2.9,3.2-5.3,4.6-7.9c1.4-2.5,2.8-3.1,4.8-0.6
	c0.3,0.4,0.7,0.7,1,1.1c2.6,4,4.4,8.7,11,5.6c2.4-1.1,5.3,1.4,7.6,3c23.4,16.1,48.8,27.9,76.9,33.1c25.5,4.7,47.2-3.4,66.5-19.9
	c1.7-1.4,1.6-3,1.5-4.9c-0.5-6.5,0.7-12.6,4.3-18.1c4.1-6.2,9.1-7.7,15.8-4.7c1.3,0.6,2.2,0.8,3.6,0.1c7-3,10.3-2.1,15.4,3.4
	c14.7,16.2,32.8,27.5,52.5,36.5c30.2,13.7,56,4.7,79.5-15.8c5.1-4.5,9.8-9.2,12.8-15.7c3.6-7.7,10.7-10.2,18.8-7.9
	c1.3,0.4,2.5,0.9,3.9,0.3c6.4-2.8,11.9-0.5,17.3,3c16.8,10.5,33.6,20.9,52.1,28.2c11.1,4.3,21.6,4.7,33,1.2
	c26.6-8.2,47.4-24.5,64.8-45.6c3.1-3.7,6.1-7.5,9.1-11.2c1.5,0.6,1.9,2,2.6,3.1c3.6,6.1,8.7,10.5,15.6,12.4c2.8,0.8,4.6,1.9,3,5.1
	c-1.1,2.1,0.5,3.1,2,3.8c24.5,10.7,47.9,24,75,27.7c8.5,1.1,16.6,0.2,24.6-2.4c1.5-0.5,2.9-0.9,3.2-2.7c1.7-8.9,7.4-15.9,11.1-23.9
	c4.6-10.2,9.9-20,13.8-30.4c1-2.8,2.4-4.4,4.2-0.6c1.3,2.7,2.5,2.7,4.8,1.1c4.6-3.1,9.6-4.3,15-2.1c1.3,0.5,2.6,0.5,3.9,0.1
	c7-2.3,13-0.2,18.5,4.3c12,9.8,23.8,19.8,37.6,27.1c7.2,3.8,14.8,6.8,22.7,8.8c6.6,1.6,13,0.5,19.1-1.9c3.5-1.4,5-0.3,6.7,2.6
	c7.6,12.9,15.2,25.8,23.1,38.5c1.9,3.1,1,4.1-1.8,5.4c-12.8,6.1-26.3,9.2-40.5,9.7c-22.5,0.7-44.6-0.9-65.6-9.9
	c-9.1-3.9-17.7-8.4-25.5-14.4c-2.6-2-3.8-1.7-5.9,0.8c-17.6,21.1-39.7,35.2-67.1,39c-27.6,3.7-54.8,1.6-80.6-10.3
	c-7.8-3.6-15.2-7.8-21.3-13.8c-4-4-5.7-2.9-8.9,0.8c-14.8,17.3-32.9,30-55.6,34.1c-45.6,8.2-87-0.5-121.8-32.9
	c-0.9-0.8-1.6-1.7-2.4-2.5c-0.8-0.8-1.6-1.7-2.6-2.7c-7.3,9.2-15.2,17.5-24.7,24.1c-18.4,12.8-38.5,19.8-61.2,19.9
	c-19.8,0.1-38.8-2.3-56.8-11c-10.8-5.2-20.5-11.9-28.6-20.6c-2.1-2.3-3.2-2.2-5.3,0.1c-15.6,16.7-34.2,28.8-56.9,31.8
	c-41.1,5.4-79.1-3.5-112.9-28.4c-1.6-1.1-3.1-4.2-4.9,0.2c-12.8,31.5-37.5,44.1-70.2,44.3c-19.6,0.1-38.9-1.2-57.4-8.7
	C1556.9,965,1543.5,954.6,1534.3,937.9z"/>
<path class="st19" d="M2266.1,537c19.2,27.3,45.8,38.8,78.1,37.8c6.6-0.2,10.6,1.3,13.6,7.8c6.2,13.4,13.2,26.5,20,39.6
	c1.5,3,1.5,4.3-2.2,4.9c-40.4,6-78.4,1.2-111.8-24.4c-2.2-1.7-3.4-2.7-5.9,0.1c-24.1,27.1-54.4,39.3-90.7,38.1
	c-26.6-0.9-51.3-6.9-73.1-22.8c-0.5-0.4-1-0.8-1.6-1.2c-3.3-2.2-5.6-7.4-9-7c-3,0.3-5.4,4.9-8.1,7.7c-20.9,21.3-46.6,30.2-76.2,30.5
	c-32.8,0.4-61.9-9.3-87.6-29.4c-4.3-3.4-8.3-7.2-11.7-11.6c-2.1-2.7-3.1-2.7-5.4-0.1c-15.1,17.9-33.9,30.6-56.7,35.3
	c-38.9,8-75.2,2.6-106.3-24.6c-3.1-2.7-5.2-8.2-8.8-7.9c-3.1,0.2-5.8,5.1-8.8,7.6c-18.8,15.7-39.9,24.4-64.8,24.9
	c-37.9,0.7-71.4-10.5-100.8-34.3c-0.2-0.2-0.6-0.3-1.2-0.5c-1.2,2.3-2.4,4.7-3.6,7c-10.3,20.6-27,33-49.6,36
	c-25.2,3.4-50.2,2.3-74.2-7.6c-13.5-5.5-25.4-13.2-34.1-25.2c-0.5-0.6-1.1-1.2-1.7-1.9c-18.9,31.7-73.3,50.5-99.2,48
	c2.6-5.4,4.9-10.6,7.6-15.7c9.3-17.3,18.5-34.6,29.2-51.1c6.4-9.9,13.8-19.3,24.4-25.2c9-5,18.3-6.9,28.2-2.8c2.8,1.2,5.3,2.8,7.4,5
	c4.3,4.7,9.1,7.2,15.7,4.5c3.4-1.4,6.9,0.1,10.1,1.7c13.3,6.3,27.5,10.1,41.2,15.2c27.8,10.3,56.2-8,66-28.3
	c2.9-6,6.3-11.7,9.4-17.6c1.8-3.5,3.7-4,6-0.4c1.5,2.4,3,4.8,4.7,7.4c1.7-2.8,3.4-5.4,5-8.1c1.4-2.3,2.8-2.6,4.5-0.3
	c0.2,0.3,0.5,0.5,0.6,0.8c2.5,4.7,4.9,8.8,11.7,6.4c2.4-0.9,4.9,1.5,7.1,3.1c22.9,16.9,48,29.3,75.9,35.5c25.3,5.6,47.4-1.2,67-17.5
	c1.4-1.2,2.7-2.1,0.9-4.4c-1.8-2.2,1.1-4.4,1.3-6.8c0.4-4.9,2.2-9.4,5.5-13.2c4.1-4.8,8.5-5.7,14.3-3.1c1.2,0.5,2,1.2,3.6,0.5
	c8.1-3.2,10.7-2.2,16.4,4.1c15.2,17,33.6,29.6,54.4,38.8c28.4,12.6,52.9,4.6,75.5-13.8c5.5-4.5,10.8-9.2,14.1-15.9
	c3.8-7.6,10.7-9.9,19-7.5c1.3,0.4,2.5,0.6,3.8,0.1c6.3-2.6,11.6-0.4,16.8,3c13.5,8.9,27,17.6,41.3,25.3c17.9,9.6,35.5,12.2,54.9,3.8
	c16-6.9,30.5-15.6,42.9-27.7c4-3.9,6.5-9.1,11-13.1c7.5,20.1,23.7,30,42.1,37.3c17.3,6.9,34.9,10.9,53.6,5.6
	c3.1-0.9,6.3,0.6,9.3,1.2c8.5,1.5,16.8,1.9,25.2-0.5c2.8-0.8,4.8-1.7,5.3-5c0.6-3.6,2.6-6.1,6.1-7.9c7.8-4,14.1-9.9,20-16.3
	C2251.2,552.9,2258.6,545,2266.1,537z"/>
<path class="st19" d="M2173.5,1055.5c-2.4,9.6-5.5,17.5-9.3,25.1c-13,26.3-34.8,39.4-63.4,42.4c-38.3,4.1-71.5-8.1-101.3-31.4
	c-8.9-6.9-17.9-13.8-25.1-23.3c-2.8,7.5-5.4,14.3-8.9,20.6c-13.1,23.5-33.1,36.6-59.5,40.7c-38.2,6-71.3-3.6-98.1-32.2
	c-3-3.1-3.6-1.4-5.1,1c-13.1,21.1-30.2,37.6-54.7,45c-15.7,4.7-31.6,5.8-47.9,4.4c-22.6-2-43.9-7.7-63.1-20
	c-7.8-5-14.4-11.3-19.9-19.7c-5.2,7.6-12,12.9-19.1,17.7c-7.2,4.8-14.9,8.9-23.4,10.9c-2.3,0.5-5.5,1.6-7-0.6c-1.4-2,0.7-4.5,2-6.3
	c8.9-12.3,16.2-25.6,24.1-38.5c2.7-4.4,5.3-8.9,6.9-13.8c0.3-0.9,1-2,0.8-2.8c-1.4-4.9,2.7-7.2,4.9-10.2c4.5-6.2,12-6.3,16.3,0.1
	c2.2,3.3,5,5,8.2,6.8c22.9,13,47.3,21.3,73.7,23c8.7,0.6,17.3,0.1,25.7-2.3c20.8-5.8,40.1-14.2,56.1-29.2c2.3-2.1,3.9-4.2,4.4-7.4
	c1.4-8.2,5-11.2,13.4-11.8c3.2-0.2,4.8-2.8,7.1-4.4c3.4-2.3,5.4-1.8,6.5,2.2c0.2,0.6,0.6,1.3,0.5,1.9c-0.9,7.5,4.6,9.9,9.8,12.9
	c7.8,4.5,14.9,10.1,22.6,14.7c18.4,10.9,37.8,12.9,58.1,6.1c19.5-6.5,37.8-14.9,51.9-30.6c1.2-1.4,2.4-2.4,2.9-4.5
	c2.2-11.1,8.3-14.5,19.2-11.4c14.5,4,28.2,9.9,41.3,17.4c13.1,7.5,26,15.6,40.7,19.8c15.8,4.5,31.4,4.6,47-1.1
	c16.5-6,31.7-13.8,44.1-26.5c4.4-4.5,9-9,15.1-11.2c1.7-0.6,1.9-2.2,2.7-3.4c4-6.1,9.8-8.5,16.8-6.5c9.5,2.8,18.1,7.6,26.3,13.1
	c12.9,8.6,25.7,17.3,40.7,21.9c19.1,5.8,37.4,5.3,54.9-5.2c9-5.4,18.8-9.4,27.6-15.1c2.2-1.4,3.2-2.6,1.1-4.9
	c-1-1.1-1.7-2.4-0.3-3.9c6.9-7.9,8.9-17.7,10-27.7c0.5-4.7,2.2-5.8,6.6-4.3c7.2,2.4,13.8,5.9,20,10.1c12.1,8.3,24.2,16.5,37.3,23.2
	c7.7,4,15.8,6.9,24.4,8.7c21.5,4.5,38.8-4.5,54.7-17.1c7.9-6.2,7.6-6.6,2-14.6c-3.8-5.5-6.9-11.5-7.1-18.4
	c-0.3-10.8,6.6-16.4,17-13.9c15.9,3.8,31.3,8.7,46.3,15.5c13.1,5.9,26.9,11.3,41.5,8.1c8-1.7,11.6,0.8,15.1,7
	c2.8,4.9,6.2,9.5,9.6,14c1.7,2.3,1.3,3.6-0.7,5.3c-23.4,19.4-49.1,25.8-78.2,14.3c-6.5-2.6-12.8-5.7-18.6-9.5
	c-2.7-1.8-3.7-1.6-4.7,1.7c-2.4,8-6,15.5-10.4,22.6c-13,21.2-33.2,28.9-56.7,29.9c-28.5,1.2-53.4-9.6-76.9-24.3
	c-5.5-3.4-5.4-3.5-8.1,2.2c-17.2,36-47,52.4-85.7,53.3c-35,0.8-64.7-13.2-90.4-36.3C2182.2,1069.6,2177.5,1063.7,2173.5,1055.5z"/>
<path class="st19" d="M2581.9,1414.9c2.9,11.3,1.6,21,0.4,30.7c-0.3,2.6-0.4,4.3,2.5,5.4c21.7,7.4,42.9,16.2,65.8,19.7
	c1,0.1,2,0.2,3,0.4c14.8,2.5,27.2,1.1,36-14c5.6-9.5,13.7-18,23.9-23.6c1.5-0.8,1.7-2.4,2.3-3.7c3.2-7.5,5.6-15.3,7.9-23.1
	c1-3.3,2.1-4.7,4.4-1c1.2,1.9,2,2.4,4.1,0.8c8.5-6,14.6-5.8,23.3,0.1c14.2,9.6,28.3,19.3,44.6,25.3c17.9,6.6,35.4,7,53.4-0.5
	c16.7-6.9,26.8-19,32.4-35.7c1.9-5.5,3.1-11.2,4.1-17c0.4-2.4,1-4.7,1.7-8.1c4.4,4.6,7.3,8.7,9.2,13.5c14.3,35.6-2.8,80.2-38.5,96.3
	c-42.8,19.3-83,11.6-120.5-14.9c-2.7-1.9-3.5-2.6-5.5,0.9c-17.8,31.3-44.1,51.2-80.1,55.7c-25.3,3.2-49.7-1.6-72.1-14.7
	c-6.1-3.6-11.5-8-15.9-13.5c-2.2-2.8-3-2.3-4.7,0.5c-10.8,17.7-23.8,33.3-42.4,43.5c-27.5,15.2-56.1,15.7-85.5,6.6
	c-14.9-4.6-28.9-11.1-41-21.1c-5.9-4.9-10.9-10.5-14.6-17.7c-38.4,81-131,79.9-172.6,28c-1.1,1.7-2.1,3.4-3.2,5
	c-16,24.5-37.6,41.4-66.8,46.6c-21.3,3.8-42.1-0.5-62.4-7c-17.3-5.6-33.3-13.6-45.8-27.3c-1.9,0.9-1.3,2.6-1.5,4
	c-5.8,35.1-29.4,57.4-64.8,60.9c-23.8,2.4-46.6-1-67.4-13.3c-12.9-7.7-22.6-18.6-27.2-33.3c-1.6-5.1-2.1-10.4,2.2-14.5
	c4.2-4,9.1-2.9,14.1-1.3c15.9,5.2,32.2,8.5,48.7,10.7c18.7,2.5,36.1-1.4,51.5-12.8c9.2-6.8,15-15.9,19.1-26.3c2.4-6,4.8-12,7.1-18.1
	c1.5-4,3.4-3.8,5.9-0.9c0.4,0.5,1.1,0.9,1.4,1.5c2.1,4.1,4.6,6,9.5,3.4c2.7-1.4,5.8,0.5,8.4,2c24.9,14.2,51.3,24,80,26.3
	c29.1,2.2,56.2-3,77.5-25.3c2.2-2.3,3.5-4.3,2.7-7.8c-1.3-6-0.3-12,2.7-17.4c4.5-8.3,12.4-9.5,19.4-3.1c18,16.2,38.7,28,62.2,33.4
	c37.9,8.8,67.2-1,94.4-35.2c0.9-1.1,1.4-2.6,1.9-4c4.7-13.1,13.4-16.4,25.9-10.1c13.1,6.6,26.3,12.7,39.7,18.6
	c32,14.2,60.6,7.1,87.8-12c17.4-12.2,30-28.7,41.4-46.3C2575,1425.5,2578.1,1420.8,2581.9,1414.9z"/>
<path class="st19" d="M2557.4,1172.6c-12.3,22.1-29.7,38.2-52.4,48.6c-17,7.8-34.7,10-53.2,7.9c-13.3-1.5-26.2-4.6-38.4-10.2
	c-10.1-4.7-19.3-10.6-26.2-19.5c-2.4-3.2-3.5-3.6-5.9,0.2c-9.6,14.8-20.9,28.1-36.1,37.5c-29.3,18.2-60.2,19.2-92.2,8.4
	c-15.4-5.2-29.8-12.4-42-23.5c-5.3-4.8-9.7-10.4-13.4-17.5c-3.5,7.9-7.3,14.7-12.3,20.7c-23.7,28.6-53.1,45-91.1,40.6
	c-26.9-3.1-50.3-13.9-67.3-35.9c-2.6-3.4-3.2-0.8-4.3,0.9c-9.7,15.2-22.5,27.1-38.1,36c-19.1,10.9-39.5,13.4-60.9,10.1
	c-19.4-3-37.9-8.8-55.1-18.5c-8.6-4.8-16.1-11-23.2-19.2c-0.7,3.2-1.1,5.6-1.7,7.9c-8.8,35.7-34.5,55.9-72.1,56.2
	c-20,0.2-39.1-3.5-56.8-13.2c-5.9-3.2-11.5-7-15.6-12.3c-5.5-7.3-12.9-11.9-20.5-16.3c-5.6-3.2-11.6-6.1-13.9-13
	c-0.6-2-1.7-0.9-2.6-0.2c-3,2.1-6.2,3.1-9.9,2.8c-4-0.4-6.6-2.6-7.1-6.5c-0.5-4,1.9-6.4,5.6-7c3.3-0.6,6.8-4.2,9.3-2.5
	c5.4,3.5,8.5,0.1,12.5-2c3.4-1.8,7.1-0.8,10.7,0.3c13.8,4,27.5,8.1,41.4,11.8c11.3,3,22.6,5.4,34.4,6.2
	c25.5,1.7,53.7-12.7,63.2-40.2c2-5.6,4.7-11,7.1-16.5c1.2-2.8,2.8-3,4.7-0.7c0.4,0.5,1,0.9,1.4,1.4c2.5,3.9,4.7,7.4,10.5,4.5
	c2.6-1.3,5.7,0.9,8.3,2.5c24.4,14.7,50.4,25.4,78.8,28.3c29,3,56.3-1.2,78.2-23c2.3-2.3,3.6-4.1,3-7.7c-1-6,0-12,3.2-17.3
	c4.9-8.2,12.7-9.2,19.5-2.5c15.9,15.5,34.7,26.5,55.5,33.6c39.1,13.2,75.2,2,100.8-30.4c1.3-1.6,1.9-3.4,2.7-5.3
	c4.4-11.4,13.8-14.8,24.5-9c16.8,9.1,33.7,18,51.7,24.7c26.3,9.8,49.8,2.4,72.3-10.9c13-7.6,24.2-17.7,33.4-29.7
	c2.2-2.8,4.1-3.2,7.6-2.5c18.6,3.6,35.3,12.5,52.9,18.7c19.2,6.8,38.7,11.2,59.1,9.8c4-0.3,7.9-1,11.8-1.8
	c7.7-1.6,12.6-4.4,15.7-13.4c5.5-16.5,13.8-32.1,19.3-48.7c1.1-3.4,2.5-3,4-0.4c1.2,2.1,2,2.8,4.5,1.1c8.2-5.6,14.6-5.2,22.9,0.8
	c12.6,9,25.1,18.2,39.2,24.8c20.4,9.5,40.8,11.1,61.7,1.7c7.3-3.3,13.8-7.4,18.8-13.6c1.8-2.2,2.6-2.2,4.3,0.1
	c5.7,7.8,11.5,15.5,17.5,23.1c2,2.5,0.9,4.2-0.1,6.3c-12.7,24.5-33.6,37.6-60.1,42.4C2625.1,1207,2583.3,1196.5,2557.4,1172.6z"/>
<path class="st19" d="M2362.8,1154c0.3-0.6,0.8-0.9,1.5-0.7c0,0-0.1-0.1-0.1-0.1C2363.8,1153.5,2363.4,1153.7,2362.8,1154
	C2362.9,1154,2362.8,1154,2362.8,1154z"/>
<path class="st19" d="M2362.9,1154l-0.1,0.1C2362.8,1154.1,2362.9,1154,2362.9,1154C2362.8,1154,2362.9,1154,2362.9,1154z"/>
<path class="st19" d="M2006.2,1193.2l-0.2-0.2c0,0,0.2,0.1,0.2,0.1S2006.2,1193.2,2006.2,1193.2z"/>
<path class="st21" d="M2807.7,1292.7c0.5-0.4,1-1.5,1.6-0.1c0,0,0-0.1,0-0.1c-0.5,0-1.1,0-1.6,0L2807.7,1292.7z"/>
<path class="st21" d="M2807.6,1292.5c0,0.2,0,0.4,0,0.6c0-0.1,0-0.3,0-0.4C2807.7,1292.7,2807.6,1292.5,2807.6,1292.5z"/>
<path class="st22" d="M2079,1283.9c-2.3,0-4.7,0-7,0c-0.7-0.7-1.3-1.5-2.1-2.1c-15.2-12.2-28.9-25.7-40.9-41.3
	c-13.4-17.4-27.9-33.9-40.7-51.7c-14.6-20.2-29.6-40.2-39.7-63.2c-2.1-4.9-4.5-9.6-7.6-14c-9.5-13.6-15-28.8-17.3-45.2
	c-0.2-1.5,0.3-3.4-1.7-4.4c0-5.7,0-11.3,0-17c2.1-2.5,1.5-5.6,1.9-8.4c2.4-14.6,7.6-28.2,18.1-38.8c15.8-16,34.4-27.1,57-32
	c27.9-6.1,56-8.2,84.3-8.5c75.8-0.8,151.5-2.3,227.3,2.7c21.5,1.4,42.2,5.4,61,16.7c3.8,2.3,7.1,4.8,9.6,8.4
	c7.2,10.6,15.3,20.5,23.7,30.2c16.8,19.6,28.3,42.7,38.9,66c15,33.1,20.1,69,25.1,104.7c1.7,12.1-0.3,24.5,2,36.7
	c1.3,7.1-4.4,12.2-12,12.1c-8.8-0.1-17.6,0.1-26.3,1.6c-71.7,12.6-143.3,25.1-215.6,34c-44.6,5.5-89.2,11.1-134.3,12.6
	C2081.4,1283,2079.9,1282.3,2079,1283.9z"/>
<path class="st11" d="M2461.9,1200c0,1.3,0,2.7,0,4c-2.8,2.6-4,6.3-4.5,9.6c-1.2,7.8-5.8,11.4-12.9,12.5
	c-18.3,2.8-36.5,5.4-54.8,7.9c-23.7,3.3-47.6,6.1-71.2,9.8c-26,4-51.7,9.7-77.5,14.2c-42,7.3-83.7,15.7-126.2,20.2
	c-4.7,0.5-9.9-0.3-13.9-2.8c-5.3-3.2-8.7-7.8-9.2-14.1c-0.5-6.3-0.3-12.7-1-18.9c-1.9-16.7-1.5-33.3,1.4-49.7
	c2-11.3,3.9-22.7,10.1-32.7c5.4-8.8,10.7-17.6,15.4-26.8c20.2-40.1,50.6-69.8,91.3-88.8c45.6-21.2,93.7-28.1,143.5-24.8
	c7.6,0.5,14.6,2.9,21.6,5.9c24,10.2,41,27.4,51.9,50.8c17.7,37.9,30.4,77.3,34.3,119.2C2460.4,1196.9,2459.6,1199.1,2461.9,1200z"/>
<path class="st23" d="M2087,1290.9c-4,0-8,0-12,0c-4.4-2.2-9.2-2.6-13.2-6.6c-3.1-3.1-7.3-5.4-9.7-9.3c-4-6.5-6.8-13.5-9-20.9
	c-3-9.9-1.7-20.1-2.2-30.1c0.1-0.5,0.2-1,0.3-1.5c3.7-37.3,13.5-72.8,31.4-105.9c22.1-40.8,53.2-73.8,89-102.8
	c14.1-11.4,28.6-21.7,46.9-25.4c4.5-0.9,8.9-2.6,13.4-3.9c25.7-7.4,51.1-16.2,78.2-17.6c6.3,0.1,12.7-0.3,19,0.3
	c26.2,2.9,52.2,6.2,71.2,28.1c7.7,8.9,16.3,17.1,23.6,26.4c27.9,35.3,38.7,77.5,48,120.2c2.8,12.9,4.2,26.2,6.3,39.2
	c0.9,5.7,2.7,11.5,0.9,17.2c-1.2,3.7-0.9,7,0.3,10.6c4.2,12.7-2,23.1-15,25.8c-1.8,0.4-3.6,0.7-5.4,0.9c-13.9,1.8-27.8,3.3-41.6,5.5
	c-66.4,10.7-133,19.6-199.5,29.7c-37,5.6-74.4,8.7-110.9,17.6C2093.7,1289.5,2090.1,1288.9,2087,1290.9z M2268.5,1038.9
	c1.6-4.7-0.9-4.5-4-3.6c-9.3,2.6-18.2,6.3-26.6,11.2c-22.7,13.4-41,31.7-57.3,52.2c-21,26.4-39.8,54.2-52.1,85.8
	c-7.5,19.3-9.3,40-15.4,59.7c-1.1,3.4,1,2.6,2.9,2c26.7-8,54.4-11.1,81.8-15.4c25.1-3.9,50.3-7.9,75.5-11.7c2.6-0.4,3.8-1,3.4-4
	c-3-26.1-4.6-52.4-6.2-78.7C2268.5,1103.9,2266.8,1071.4,2268.5,1038.9z M2320.7,1132.4c-0.5,23.4-1,49.2-1.7,75
	c-0.1,4.3,1.2,4.8,5.1,4.2c15.7-2.7,31.5-5.2,47.4-6.7c20-1.9,40.1-4,60.1-6c1.9-0.2,3.5-0.2,3.2-3c-1.6-15.5-3-31.1-4.4-46.6
	c-0.6-6.4-2.6-12.4-5-18.2c-14-33.3-35.4-61.2-62.8-84.6c-7-6-14.3-11.5-23.4-13.9c-4.7-1.2-9.3-1.9-12.4,3.2
	c-1.1,1.8-2.5,1.4-3.9,0.8c-4.1-1.8-4.2,0.3-4,3.6C2320.9,1070.1,2321.1,1100,2320.7,1132.4z"/>
<path class="st9" d="M2280,949.1c8.6,1.6,17.1,3.3,25.7,4.9c0.8,0.2,1.7,0.2,2.5,0.4c13.2,4.6,24.9,12.4,38.2,16.8
	c-6.8,1.2-13.4,2.2-20.1,1.6c-15-1.2-29.8,1.1-44.7,2.3c-43.8,3.6-78.6,25.9-111.8,51.7c-25.6,19.9-45.7,44.4-59.9,73.7
	c-3.8,7.9-9.2,15-13.6,22.7c-19.6,34-30.7,70.6-33.3,109.7c-0.4,6.3-0.8,12.6-1.3,18.9c-0.2,2-0.1,4.3-1.2,5.8
	c-2.3,3.3-2.9,6.3-1.4,10.1c1.1,2.8-1.1,4.5-3,6.1c-1,0-2,0-3,0c-2.9-2.1-6-4-8.8-6.3c-10.8-8.7-15.1-21-19-33.6
	c-0.5-1.5-0.1-3.4-2.2-4.1c0-3.3,0-6.7,0-10c2.2-2.4,1.7-5.5,2-8.4c0.8-9.3,1.7-18.5,3.5-27.7c4-19.8,11.7-38.4,18.7-57.3
	c18.6-50.1,47.6-93.1,86.4-129.5c9.4-8.8,19.7-16.3,32-21.6c23.2-9.9,47.1-16.9,71.5-23c5.9-1.5,12.1-1.1,17.8-3.4c1.3,0,2.7,0,4,0
	c5.7,1.6,11.3,1.6,17,0C2277.3,949.1,2278.6,949.1,2280,949.1z"/>
<path class="st24" d="M2276,949.1c-5.7,1.6-11.3,1.6-17,0C2264.6,949.1,2270.3,949.1,2276,949.1z"/>
<path class="st24" d="M2278.9,1212.5c0,0.8-0.1,2,0,3.1c0.5,4.1-0.8,5.6-5.4,6.6c-41.8,9.6-84.5,14-126.2,23.7
	c-10.4,2.4-20.7,4.8-31.1,7.2c-2.3,0.5-5.2,1.8-3.5-2.7c0.6-1.5-0.2-2.5-1.2-3.5c-1.2-1.3-1.3-3,0-4.1c2.9-2.3,2.7-5.5,3.3-8.5
	c1.6-9,4.3-11.4,13.3-11.4c0.6,0,1.3-0.1,1.9-0.4c15-6.4,31.1-6.7,46.9-8.5c20.2-2.3,40.4-4.2,60.6-6.2c0.5-0.1,1-0.1,1.5-0.2
	c7.2-1.4,8.1-2.2,6.7-9.6c-4-20.2-2-40.4-0.5-60.6c0.6-7.6,1.6-15.3,1.5-22.9c-0.2-20.5,2.1-40.9,0.6-61.4
	c-0.3-4.4,2.6-8.6,0.7-13.2c-0.6-1.3,1.1-1.8,2.1-2.2c4.8-2.2,9.7-4.4,14.5-6.8c2.5-1.3,3.1-0.5,3.1,2.1c0.1,11-0.1,21.9,0.9,32.9
	c1.8,19.8,3.2,39.7,4.8,59.6c0.7,8.9,1.5,17.9,2,26.8C2276.9,1172.3,2277.8,1192.2,2278.9,1212.5z"/>
<path class="st24" d="M2320,1200.6c0.2-7.5,0.2-7.3,7-7.6c14.5-0.6,28.7-3.2,43-5.5c19.4-3.1,38.7-6.2,58-9.4c2.4-0.4,3.6,0.1,4,2.9
	c0.7,5.1,1.8,10.1,2.7,15.2c0.4,2.1,0.3,3.7-2.4,3.7c-11.8,0.3-22.8,4.6-34.2,6.5c-22.8,3.8-45.3,9-68.5,10.3c-3.3,0.2-5-0.6-6-4.1
	C2322.4,1208.3,2318.7,1204.9,2320,1200.6z"/>
<path class="st25" d="M2298,669.9c-1,0-2,0-3,0c-0.8-1.9-2.6-2.6-4.2-3.3c-8.2-3.6-13.3-9.8-16-18.1c-0.3-0.9-0.8-2.2-1.5-2.5
	c-6-2.5-6.8-8.1-8.5-13.3c-5.1-16.4-10.2-32.8-18.1-48.1c-14.7-28.4-30.8-56-48.3-82.8c-5.2-7.9-11.2-14.8-18.4-20.9
	c-22.9-19.6-47.3-37.3-70.6-56.5c-4-3.3-8.6-5.4-13.2-7.8c-6.5-3.4-13.4-2.1-20-3.2c-14.7-2.5-29.5-4.2-44.2-0.8
	c-9,2.1-17.1,0.1-25.3-2.7c-1.9-0.6-3.7-1.3-3.8-3.9c-0.3-7.9-2.2-15.8,1.9-23.5c1.4-2.7,1.9-6.1,2.1-9.2c0.6-8.1,1-16.3,1.1-24.4
	c0.1-16,0.8-31.9,1.8-47.9c0.4-5.9-2.6-8.7-8.7-8c-8.3,0.9-13.7-2.2-17.2-9.8c-1.7-3.7-2.4-7.6-2.9-11.6c-1.7-12.5-3.3-25-5-37.6
	c-0.6-5.3,0.2-27.5,0.7-28.3c5-8.5,8.8-17.9,18.3-22.6c3.3,0,6.7,0,10,0c10,2,20,4.3,30.2,5c0.5,0,1,0,1.5-0.1
	c29.2-2.4,58.5-3,87.8-3c36.1,0,72.3,0.6,108.4,1.8c13,0.5,169.5,8.6,171.7,21c3,16.8,4.3,33.7,3.2,50.7
	c-1.8,26.9-12.9,41.9-37.4,50c-2.3,0.8-2.5,2-2.7,4c-3.2,30.3,1.3,60.2,4.9,90.1c4.2,35.4,8.5,70.7,11.3,106.2
	c2.4,30.4,3.8,60.8,3.5,91.3c0,1.5,0.1,3,1,4.3c2.2,2.9,2.6,6.4,3.1,9.9c1,7.6,2.1,15.2,3.3,22.7c0.8,5.3,0.2,10.6-0.4,15.9
	c-0.4,3.7-2.6,6.2-6,7.3c-7.3,2.2-14.8,4.2-22.2,5.6c-18.7,3.5-37.8,2.6-56.7,2.2C2305.5,667.8,2301.5,667.9,2298,669.9z"/>
<path class="st26" d="M1995.1,183.1c-9.5,4.8-13.4,14.1-18.3,22.6c-0.5,0.8-0.6,1.9-1.6,2.4c0-7.5,0.1-15-0.1-22.5
	c0-2.2,0.4-2.6,2.6-2.6C1983.4,183.2,1989.2,183.1,1995.1,183.1z"/>
<path class="st26" d="M1976.1,234.1l-0.5,0l-0.5,0c0-5.3,0-10.7,0-16C1977.6,223.3,1975.5,228.8,1976.1,234.1z"/>
<path class="st2" d="M2337.9,669.9c0.5-1.3-0.4-1.3-1.2-1.3c-12.6-0.3-25.2-1-37.9,0.1c-8.6,0.7-15-5.2-20.1-11.9
	c-1.4-1.8-2.4-4-3.2-6.2c-1-2.8-2.3-4.9-5.1-6.3c-2.8-1.4-3.7-4.6-4.5-7.5c-2.9-9.7-6.3-19.3-9.6-28.9c-8.6-25.1-23-47.2-35.7-70.1
	c-2.2-3.9-3.7-7.8-3.6-12.2c0.6-20.2-3.3-40-5.7-60c-1.2-9.6,0.3-19.6,0.9-29.4c1.3-22.8,0.7-45.6-1.1-68.3
	c-0.8-9.8-0.9-19.7-3.4-29.2c-1.9-7.5-2.8-15.4-6-22.6c-1.1-2.6-2.7-3.2-5.5-2.8c-43.1,5.9-86.4,8.2-129.9,6.1
	c-17.9-0.9-35.9-1.9-53.9-1.2c-2.6,0.1-3.7-0.5-3.4-3.2c0.4-4.6,0.4-9.3,0.8-13.9c0.4-5.9-2.5-8.7-8.5-8.1
	c-8.4,0.9-13.8-2.2-17.3-9.6c-1.3-2.6-1.1-4.3,1.9-5.4c2.8-1,5.7-1.9,8.7-2.1c20.1-1.7,40.1,0,60.2,1.6c4.6,0.4,9.3,0.5,14,0.6
	c28.6,0.2,57.3,0.2,85.9-1.2c9.3-0.4,18.4-1.6,26.8-6.6c3.6-2.2,8.4-0.3,12.6-0.5c2.4-0.1,3.5-0.6,2.5-3.2
	c-7.9-20.5-3.8-41-0.1-61.5c1.1-6.4,3-12.6,4.5-18.9c8.2-0.3,16.3-0.2,24.5,0.3c22.4,1.1,156.8-1.3,159.4-1.3
	c9.6,5.1,17.4,12.3,19.7,23.1c3.4,16.1,4.1,32.6,3.3,49.1c-1.3,26.9-14.6,46-37.8,51.3c-1.4,0.3-2.3,0.8-2.4,2.6
	c-0.2,10.6-1.6,21.2-0.9,31.9c2.8,42.2,9.4,83.9,13.5,126c3.4,35.6,6.1,71.2,6.9,107c0.3,11.2-0.4,22.3,3,33.8
	c3.5,11.6,5.2,24.3,4.7,36.9c-0.4,10.3-2.2,13.8-15.3,15.2c-2.5,0.3-5.8-0.1-7.2,1.3c-3.7,3.8-8.3,2.9-12.6,3.4
	c-5.6,0.7-11.3,0.8-16.9,1.2c-1,0.1-3.5-0.9-2.1,2C2339.9,669.9,2338.9,669.9,2337.9,669.9z"/>
<path class="st26" d="M2225.5,186.4c-8.2-0.4-16.3-0.6-24.5-0.3c0-0.4,0-0.7,0-1.1C2259.6,185.1,2247.9,187.6,2225.5,186.4z"/>
<path class="st4" d="M2384.9,185.1c11,6.2,18.6,14.6,20.6,27.9c2.6,18,3.4,36,1.4,54.1c-0.5,4.7-1.7,7.4-7.5,6.9
	c-25.6-2.4-51.2-0.8-76.8-1.1c-21.8-0.2-43.6,0.1-65.4-0.8c-13-0.5-25.9,0.3-38.8,1.6c-4.7,0.5-8.4-1.9-11.8-4.6
	c-11.9-9.5-14.4-22.3-13.6-36.7c0.8-14.6,6.3-27.7,11.6-41c1-2.4,2.3-4.7,4.4-6.5C2212.7,185.1,2382.3,185.1,2384.9,185.1z"/>
<path class="st4" d="M2328.5,460.8c-12.6-1-25.3,0.3-37.8-2.6c-37.5-8.8-52.3-51-28.5-81.2c1.7-2.2,2.9-4.3,2.8-7.2
	c-0.1-3.5,1.6-5.2,5.1-6.8c11.4-5.1,23.3-7.1,35.7-7.2c6.1-0.1,12.3-1.4,18.1-3.1c13.3-3.9,26.8-2.2,40.2-2.6c4-0.1,3.5,2.6,3.8,5
	c1.3,14.1,2.3,28.2,3.9,42.2c1.6,14.9,3.6,29.7,5.8,44.5c0.6,4.2-0.3,6.7-4,9c-10.8,6.8-22.7,9.3-35.2,9.8
	C2335.2,460.9,2331.9,460.8,2328.5,460.8z"/>
<path class="st4" d="M2278.4,547c-14-1-28-3.7-40.1-12.9c-4.3-3.3-7.8-7.2-10.3-12.1c-2.6-5.2-5.2-10.4-7.4-15.7
	c-6.3-15.5,2.9-32.4,19.4-35.5c3.3-0.6,6.4-1.7,9.5-2.9c17.9-7.3,35.9-9.9,54-0.5c8.7,4.5,15.6,11.3,20.9,19.6
	c6.4,10,7.3,20.7,1.5,31.2C2315.6,536.2,2300.3,546.5,2278.4,547z"/>
<path class="st4" d="M2036.2,352.9c28.1-1.1,49.8,17.4,55.2,42.1c1.3,5.8,0.7,11.6,0.6,17.4c0,2.2-1.1,1.9-2.8,1.9
	c-9.6,0.4-18.8-1.8-28.2-2.7c-11.4-1.1-22.6-0.5-33.7,1.8c-8.3,1.7-15.2-2.2-22.6-4.3c-1-0.3-1.6-1.1-1.7-2.3
	c-0.2-7.7-2.5-15.4,1.4-23c3.1-6,3-12.9,2.8-19.6c-0.1-4.3,1.6-6.5,5.8-7.7C2021,354.3,2028.8,352.4,2036.2,352.9z"/>
<path class="st27" d="M327.1,2141c1.8-0.9,1.8-2.7,1.8-4.3c-0.7-33.8,8.9-65.4,20.1-96.7c14.5-40.5,34.1-78.5,57.5-114.4
	c16-24.6,37.8-44.3,59.7-63.6c15.9-14,30.2-29.4,43.9-45.6c14.8-17.5,39.2-18.6,57.5-2.3c10.6,9.5,15.9,22.1,19.4,35.4
	c8.4,32.9,11.2,66.2,8.2,100c-0.2,2.3-0.3,4.7-1.1,6.9c-5.8,16.6-2.7,34-4.9,51c-0.1,0.8-0.1,2.3,0.1,2.4c7.5,2.5,3.1,9,4.3,13.4
	c1,3.9,2.4,6.3,5.7,8.4c37,23.6,67.6,53.6,89.1,92c8,14.3,16.1,28.7,22.3,44.1c2.2,5.5,5.9,10.4,8.6,15.7
	c12.6,25.1,17.6,51.5,9.4,78.8c-10.6,35.4-33.9,60.9-65.6,79.2c-36.3,21-75.5,29.4-117.1,25.3c-22.6-2.2-44-9-63.7-20.5
	c-15.2-8.9-31.6-15.6-46.5-25.2c-33.5-21.8-62.8-47.8-82.3-83.4c-10.7-19.4-17.7-40.1-21.3-62c-1.4-8.3-3.3-16.4-5-24.7
	C327.1,2147.7,327.1,2144.3,327.1,2141z"/>
<path class="st27" d="M2459.2,2324.1c-25.7,0-51.3,0-77,0c-2.6,0-4.7,0.3-6.4,2.7c-11.9,15.6-27.2,27.3-43.9,37.3
	c-32.6,19.6-68.1,32.4-104.5,42.8c-13.1,3.7-26,8.3-39.7,9.3c-2.7,0.2-3.4,2.3-4.4,4.2c-9.4,18.4-19.9,36.2-33.7,51.8
	c-4.6,5.2-9.3,10.4-12.8,16.5c-1.4,2.5-3.7,4.3-6,5.9c-35.4,25.1-73.9,42.3-117.1,49.4c-34.4,5.6-68.9,9.5-103.6,11.6
	c-16.3,1-32.6,2.8-48.8,2.7c-43.3-0.3-85.4-6.6-122.1-32.4c-36.3-25.5-56.8-60.7-62.1-104.5c-7.1-59.3,13.7-108.8,54.9-150.7
	c18.4-18.7,39.2-34.6,59.3-51.3c7.9-6.6,15.7-13.4,23.6-20c3-2.4,4.7-5.4,5.9-9c8.2-23.8,13.8-48.3,20.2-72.5
	c4.9-18.6,13.1-35.3,28.5-47.6c19.9-15.8,42.8-19,67.1-15c22.6,3.7,43.8,11.8,63.5,23.2c15.3,8.8,31.8,13.2,48.8,16.4
	c25.9,4.9,51.7,10.3,75.5,21.9c15.5,7.6,30.8,15.8,45.3,25.3c3.8,2.5,6.5,2.3,10.3,0.4c28.1-14.1,56.3-28.2,86.3-38.1
	c21-6.9,42.3-11.8,64.6-10.9c28.3,1.1,50,13.4,64.9,37.5c5.7,9.3,10.3,19.1,13.7,29.4c1.3,3.9,2.4,4.1,5.6,1.8
	c36.8-25.2,73.8-50.3,112.6-72.4c16.2-9.2,31.9-18.6,43-34.1c0.1-0.1,0.2-0.2,0.3-0.4c10.4-9.9,21.7-19.2,27.5-33
	c26.3-32.2,59.3-53.5,100.8-59.3c31.2-4.4,61.7,0.1,91.3,10.8c5.5,2,5.5,2,6.1-4c1.6-16.7,1.1-33.6,3.1-50.3
	c0.5-4.3,0.6-8.7,1.7-12.8c5.3-19.8,28.6-26.9,44.8-13.8c6.6,5.3,11.4,12.2,15.8,19.3c25.6,41,45.4,84.4,55,132
	c3.8,19,6,38.5,6.8,57.9c1.8,41.3-13.4,76.7-39.5,107.6c-26,30.8-59.7,51.3-96,67.7c-40.6,18.3-83.4,29.3-127.4,35.6
	c-38.8,5.6-77.8,8.1-116.9,9.2C2515.9,2323.1,2487.6,2324.1,2459.2,2324.1z"/>
<g>
	<path class="st20" d="M2809.3,1292.5c2.8-4.4,5.7-8.9,8.5-13.4c1.3-2,2.2-2.6,3.8-0.2c4.2,6,8.5,12,12.9,17.8
		c1.7,2.2,0.4,3.7-0.6,5.3c-10.4,16.6-25.7,25.7-44.7,28.9c-10.4,1.8-20.9,1.7-31.4,0.4c-8.3-1-16.6,0.8-24.9-0.7
		c-9.6-1.7-18.8-4.5-27.4-9c-2.5-1.3-4-1.3-5.7,1.3c-6.9,10.5-16,19.1-23.8,28.9c-10.5,13.3-25.5,18.8-41.8,21.1
		c-24.8,3.5-47.9-2.7-70-13.5c-5.5-2.7-11-5.6-16.2-9c-3.5-2.3-4.4-1.2-5.8,2.1c-13.3,32.8-38.8,50.8-72.7,56.2
		c-32.9,5.2-63-4-90.3-22.5c-11.1-7.5-21.2-16-28.1-28.9c-2.1,9.2-4.8,17.1-8.4,24.9c-12.3,26.8-33.7,40.7-62.4,44.6
		c-37.9,5.1-71.3-5.9-101.7-28.2c-9.1-6.7-18.4-13.2-25.7-22.4c-1.7,1.4-1.7,3.4-2.2,4.9c-2.6,7.8-6.2,15.1-10.4,22.1
		c-13.2,22-33.6,32.5-58,36.5c-36.8,6-69-3.3-95.5-30c-2.6-2.6-3.3-1.7-4.8,0.8c-10.1,17.3-22.6,32.2-40.7,41.5
		c-14.6,7.5-30.3,11.1-46.6,11.4c-23.9,0.5-47.1-3-68.9-13.6c-15.4-7.5-27.4-18.1-34.8-33.7c-0.5-1-1.2-1.9-2.5-4
		c-0.8,11.2-6.6,18.7-13.8,25c-9.1,7.9-21.9,4-24.5-7.1c-0.7-3.2-0.4-6.4,0.8-9.3c3.7-9.1,7.5-18.1,11.5-27.1
		c1.5-3.5,3.7-6.7,6.5-9.4c6.2-6.1,13.5-6.4,20-0.8c0.9,0.8,1.6,1.8,2.9,1.3c6.1-2.1,11,0.9,16.1,3.5c17.8,9.2,36.3,16.2,56.3,19.6
		c40,6.8,72.8-7.1,101.7-33.6c2.1-2,2.1-4.4,2.6-6.8c1.5-7.5,5.1-11,12.8-11.5c3.3-0.2,4.8-2.8,7-4.4c3.5-2.4,5.7-2.3,6.8,2.1
		c0.1,0.3,0.3,0.6,0.3,0.9c-0.7,8.4,5.5,10.8,11.4,14c7.6,4.1,14.6,9.3,22.2,13.5c18.2,10.1,37.2,11.7,56.9,4.7
		c19.8-7,38.4-16.2,52.3-32.7c1.2-1.4,2.3-2.5,2.6-4.6c1.6-10.7,7.8-14.4,18.6-11.9c18.9,4.3,35.9,12.9,52.8,22
		c13.4,7.3,27.1,13.2,42.5,15.1c13.8,1.7,26.6-1.2,39.4-6.4c15.2-6.2,28.6-14.9,39.9-26.8c4.1-4.3,8.2-8.7,14.1-10.9
		c1.4-0.5,1.6-2.1,2.3-3.2c3.9-6.6,9.5-9.1,16.9-7.2c9.6,2.5,18.3,7.1,26.6,12.3c13,8.1,25.8,16.3,40.8,20.5
		c19.8,5.6,38.5,4.2,56-7.2c8.4-5.4,17.6-9.5,25.9-15.1c2.7-1.8,3.4-3.2,1-5.6c-3-3.1-2.3-5.3,1.1-8c7.8-6.1,13.9-13.9,19.6-21.9
		c2.2-3,4-3.2,6.9-1.4c11.9,7.3,23.8,14.7,35.9,21.6c14.9,8.6,30.6,15.2,48.2,13.9c16.2-1.3,29.6-9.4,41.5-20
		c1.7-1.5,2.2-3.7,2.8-5.8c3-11.1,9-20.8,15.2-30.2c5.8-8.8,13.4-9.2,22.3-3.8c11.4,7,24.2,10.9,37.2,13.8
		c21.5,4.9,38.5-2.9,52.9-18.3c2.9-3.1,3.8-2.2,6.6,0.2c7.6,6.5,6.5,13.4,2.6,21.1C2809.9,1288.5,2807.8,1290.2,2809.3,1292.5
		c-0.6-1.3-1.1-0.3-1.6,0.1c0,0.2,0,0.3,0,0.4c0-0.2,0-0.4,0-0.6C2808.2,1292.5,2808.7,1292.5,2809.3,1292.5z"/>
	<path class="st20" d="M2817.2,1278.1c-1.5-0.6-2.6-2.6-3.4-3.9c-3.5-5.4-11.9-0.6-8.6,5c0.1,0.2,0.2,0.4,0.4,0.6
		c-0.4,0.6-0.8,1.3-1,2c-1.3,4.2-0.8,9.2-0.6,13.5c0.3,6.4,10.3,6.4,10,0c-0.1-2-0.1-4.1-0.1-6.1c0-0.6,0-1.2,0.1-1.8
		c0.2,0.1,0.4,0.2,0.7,0.3c2.5,1,5.5-1.1,6.2-3.5C2821.5,1281.4,2819.7,1279.1,2817.2,1278.1z"/>
</g>
<path class="st28" d="M1784.9,1655.9c-7.1-1.4-11.5-6.5-16.2-11.4c-25.4-25.9-46.1-55-61.9-87.7c-2.3-4.8-6-8.8-8.4-13.5
	c-21.6-42.7-51.3-80.5-74.3-122.4c-35.9-65.4-74.6-129.2-107-196.6c-9.3-19.4-21.9-37-32.7-55.5c-26.1-44.6-50.1-90.3-73.3-136.4
	c-55.7-110.7-107.6-223.2-153.9-338.2c-17.3-42.9-33.2-86.3-48.9-129.9c-5.8-16.1-14.2-31.2-21.2-46.8c-6.5-14.8-13-29.6-18.7-44.6
	c-1.4-3.6-4.5-3.9-6.2-6.1c-3.7-4.9-8.2-9.7-13.2-12.7c-4.6-2.8-10.6-5-16.6-5.1c-1,0-2,0.2-3,0c-7.4-1.4-11.5,1.7-14.5,8.6
	c-2.5,5.9-8.4,9.6-11.7,15.4c-12.9,22.8-22.5,47.1-32.2,71.4c-38.4,96.1-76.8,192.1-119.3,286.5c-6,13.4-12.2,26.7-18.8,39.7
	c-7,13.7-10.9,28.6-17.4,42.5c-14,29.9-30.6,58.4-48.4,86.2c-19.2,29.9-35,61.6-51.4,93.1c-35,67.6-71.7,134.2-112.8,198.4
	c-35.9,56.1-72.3,111.8-109.9,166.8c-16.8,24.6-34.8,48.4-52.1,72.7c-12.8,18.1-25,36.6-36.4,55.6c-1.8,2.9-3.8,5-7.3,5.2
	c-1.1,0.1-2.3,0.4-3.4,0.8c-12.8,4.9-24.1,2.6-36.1-4.2c-16.3-9.2-34.3-15.4-51.6-22.7c-6.1-2.6-7.5-7.8-3.4-13.3
	c3.7-4.9,7.5-9.8,11.6-14.4c9.1-9.9,16.7-21.1,25.4-31.3c32-37.4,55.9-80.3,81.6-121.9c43.6-70.7,86.8-141.8,135-209.5
	c14.7-20.6,26-42.9,38.9-64.5c19.7-32.8,41.4-64.5,60.9-97.4c34.3-57.7,66.3-116.7,96.7-176.6c23.9-47.1,44.6-95.8,69.8-142.1
	c27-49.5,45.9-102.3,65.9-154.7c11.6-30.4,24.6-60,39.6-88.9c18.7-35.9,34.9-73,50.5-110.3c4.6-11,9.5-21.9,14-33
	c2.9-7.2,6.9-13.7,13.7-18c0.8-0.5,1.7-1.2,2.1-2.1c4-9.3,12.1-7.7,19.2-6.5c9.3,1.6,18.3,4.7,27.7,5.7c2.7,0.3,3.7,2.2,4.7,4.5
	c9.1,20.9,16.7,42.4,24.2,63.9c6.1,17.5,15.5,33.5,23.8,50c20.5,40.8,41.3,81.4,62,122.1c42.3,83.3,84.4,166.7,127,249.9
	c42.9,83.9,87.4,167,133.1,249.5c56.3,101.5,114.9,201.7,175.5,300.7c41.3,67.5,82.7,134.9,127.4,200.2
	c23.9,34.9,48.4,69.4,73.4,103.5c1.2,1.7,3,3.1,3.5,5.7c-11.6,1.5-23,3-34.4,4.5c-3.6,0.5-7.5,0.1-10.4,3.4
	c-0.8,0.9-3.1,0.5-4.8,0.6c-20.4,0.7-40.2,4.8-59.9,9.8c-0.8,0.2-1.7,0.3-2,1.2C1794.2,1655.9,1789.6,1655.9,1784.9,1655.9z"/>
</svg>
