<?xml version="1.0" encoding="utf-8"?>
<!-- Generator: Adobe Illustrator 26.0.1, SVG Export Plug-In . SVG Version: 6.00 Build 0)  -->
<svg version="1.1" id="Layer_1" xmlns="http://www.w3.org/2000/svg" xmlns:xlink="http://www.w3.org/1999/xlink" x="0px" y="0px"
	 viewBox="0 0 2000 2000" style="enable-background:new 0 0 2000 2000;" xml:space="preserve">
<style type="text/css">
	.st0{fill:#AFD86A;}
	.st1{fill:#FECFAE;}
	.st2{fill:#312419;}
	.st3{fill:#443428;}
	.st4{fill:#846A55;}
	.st5{fill:none;}
	.st6{fill:#634C3B;}
	.st7{clip-path:url(#SVGID_00000018921290257851089550000004985278965093792702_);}
	.st8{fill:#D6BA9D;}
	.st9{fill:#7A6047;}
	.st10{fill:#1E1713;}
	.st11{fill:#B99971;}
	.st12{fill:#8C6D51;}
	.st13{fill:#9E7E5C;}
</style>
<path class="st0" d="M929.8,1856.7l23.8-3.2C945.9,1854.7,937.9,1855.8,929.8,1856.7z"/>
<path class="st1" d="M929.2,1856.8L929.2,1856.8l0.6-0.1L929.2,1856.8z"/>
<path class="st0" d="M1937.1,1415.2c-79.5,242.3-303.2,275.1-541.1,293.9c-36.9,3-72.8,6.7-107.3,8.4
	c-105.3,5.1-192.1,2.3-264.2-5.2l-0.6-0.1l-24.7-2.8c-223.9-28.1-294.3-102.5-334.2-112.3c-22.8-5.6-427.9-10.2-560.3-141.4
	c-179.4-177.8,160.6-274,160.6-274c61.1-19.5,106.5-39.9,120.8-23.3l960.4-169C1346.5,989.4,2040.5,1100,1937.1,1415.2z"/>
<path class="st2" d="M1285.9,1133.3c-3.2,0.8-47.3,15.3-89,27.8v-57.5c16.1-4.3,31.3-10.5,44.8-13c74.1-13.7,148.5-24.8,222.8-36.6
	c59.9-9.5,119.4-21.6,179.3-30.2c59.5-8.5,118.8-18.8,178-29.7v29c-49.7,10.9-108.6,13.5-157.7,24.3c-52,11.4-102.4,29.2-154,40.7
	c-54.6,12.1-78,6.6-132.3,19.5C1352,1113.7,1311.6,1126.3,1285.9,1133.3z"/>
<polygon class="st2" points="1195.3,1126.6 1821.7,1018.7 1821.7,1046.1 1640.3,1110.4 1196.9,1242.6 1196.9,1164.2 "/>
<polygon class="st3" points="1284.3,617.7 662.7,206.9 309.2,658.1 305.2,1196.1 1196.9,1351.3 "/>
<path class="st4" d="M1091.4,583.2c-26.4,0.9-68.5,1-94.8,2.7c-55.4,3.6-76.6,15-132.1,19.3c-52.6,4.1-105.5,2.3-158.3,6.6
	c-51.1,4.1-102.7,2.8-154.1,6.5c-45,3.2-161.5-4.8-206.5-0.4c-7.3,0.7-13.2,23-18.4,27.5c-25.2,22,20.6,29.3-4.9,51
	c-5.1,4.3-9.2,9.3-14.3,13.6c-5.9,5-4.9,8.2,3.2,10.4c11.2,3.1,22.9,4.5,34.6,4.2c139.8-4.2,279.5,16.8,419.2,8.4
	c60.2-3.7,121-24.4,181.4-27.2c75-3.5,150-7.6,225.1-9.2c24.3-0.5,48.5-2.4,72.5-5.7c-4.3-7.7,30.4-18.6,23-24.7
	c-33.8-27.8,26.9-60-6.8-87.9C1259.2,585,1097.4,582.9,1091.4,583.2z"/>
<polygon class="st5" points="1196.9,608.3 643.8,227.9 305.2,672.9 305.2,1196.1 1196.9,1351.3 "/>
<path class="st2" d="M1299.2,988.7c-3.5,0.7-56.8,14.7-102.2,25l-1.6-85.6c9.2,0.2,21.4-13.6,30.2-17.3
	c74.5-12.1,149.7-10.6,224.4-20.4c60.2-7.9,118.8-4.7,179-11.5c83.5-9.4,135.9,5.5,192.8,0v44.2c-45.5,4.1-95.6,2.1-139,8.2
	c-52.7,7.4-104.3,22.5-156.7,30.1c-55.3,7.9-78.2-1.2-133.3,7.7C1366.6,973.3,1325.2,983.4,1299.2,988.7z"/>
<path class="st2" d="M1634.9,1170.4c62.6-14,124.8-29.7,186.8-46v39.5l-624.8,187.5v-74.7c14.4-2.8,28.7-6,43-9.8
	c72.6-19.2,145.9-35.9,218.9-53.2C1517.7,1199.7,1576,1183.3,1634.9,1170.4z"/>
<path class="st2" d="M1287,808.1c-4,0.4-54,8.9-90.1,13.2l-1.6-64c5.2-0.3,12.3,11.7,18.5,10.2c74.9-5.8,150-9.1,224.9-13.1
	c60.4-3.2,122.5,1.9,182.9-0.4c88.1-3.4,123.8,2.4,184.6,0.7l15.6,24.2c-48.3,3.9-102.7,9-149.6,12.2c-52.9,3.5-104.9,1.5-157.5,5.2
	c-55.6,3.9-78.2-4.2-133.5,0.4C1354.9,798.8,1313.3,805,1287,808.1z"/>
<path class="st6" d="M1821.7,1045.2v89.5c-62,16.3-124.2,32.1-186.8,46c-59,13.1-117.2,29.4-176.2,43.4
	c-73,17.4-146.3,34.1-218.9,53.2c-14.3,3.8-28.6,7.1-43,9.8v-115.5c41.7-11.4,85.8-24.6,89-25.4c25.6-6.3,66.1-17.9,91.9-23.5
	c54.3-11.7,77.7-6.7,132.3-17.8c51.7-10.5,102.1-26.8,154-37.2C1713.2,1057.8,1772,1055.5,1821.7,1045.2z"/>
<path class="st6" d="M1241.7,1096.7c-13.5,2.3-28.7,8-44.8,11.9V989.5c45.4-8.1,98.7-19,102.2-19.5c26.1-4,67.4-11.9,93.6-15.2
	c55.1-6.9,78,0.2,133.3-6c52.4-5.9,104.1-17.6,156.7-23.4c43.4-4.8,93.5-3.2,139-6.4v89.3c-59.2,9.9-118.5,19.3-178,27.1
	c-59.9,7.8-119.4,18.9-179.3,27.6C1390.2,1073.8,1315.7,1084,1241.7,1096.7z"/>
<path class="st6" d="M1195.5,936l-1.5-117.1c36.1-4.4,89-10.5,93-11c26.2-3,67.9-9.1,94.2-11.3c55.4-4.6,78,3.5,133.5-0.4
	c52.6-3.7,104.7-1.6,157.5-5.2c46.8-3.1,101.3-8.3,149.6-12.2v105.7c-56.9,4.3-107.4,6.7-190.9,14c-60.2,5.3-122.4,3.2-182.6,9.4
	c-74.7,7.6-149.5,14.6-224,24.1C1215.4,934.9,1204.8,936.2,1195.5,936z"/>
<path class="st0" d="M1847.6,1182.7c-12.8-15.4,2.2-96.5,2.2-96.5c-35.1,13.9-40,66.2-40,66.2c-27.4-27.4-36.5-108.9-36.5-108.9
	c-36.8,54.5-2.3,113.6-2.3,113.6l-22.4,37.9c10.3-52.3-68.4-96.1-68.4-96.1c-1.1,19.8,39,32.7,12.2,111.6
	C1679.7,1247.8,1860.4,1198.1,1847.6,1182.7z"/>
<path class="st0" d="M1519.9,1276.2c16.1-18.2,0.4-61.7,0.4-61.7s-18.6,59.1-29.4,52.1c-10.8-7-9.3-67.6-9.3-67.6
	c-16.9,8.9-25,83.1-25,83.1S1503.8,1294.4,1519.9,1276.2z"/>
<polygon class="st3" points="1225.4,1191.8 1219.5,1152.9 1240.3,1166.8 "/>
<polygon class="st3" points="1241.3,970.6 1226.9,972.9 1218.4,953.3 1251.4,962.3 "/>
<g>
	<g>
		<g>
			<g>
				<defs>
					<polygon id="SVGID_1_" points="1196.9,604.1 666.1,198.1 305.2,651.3 305.2,1191.9 1196.9,1347.1 					"/>
				</defs>
				<clipPath id="SVGID_00000152248475756743969320000017876777059737900173_">
					<use xlink:href="#SVGID_1_"  style="overflow:visible;"/>
				</clipPath>
				<g style="clip-path:url(#SVGID_00000152248475756743969320000017876777059737900173_);">
					<path class="st4" d="M987.4,449.9c-26.4,1.3-68.5,1.9-94.8,3.9c-55.4,4.2-83.7,4-139.2,9c-52.5,4.8-98.1,15.4-150.8,20.3
						c-51.1,4.8-102.7,4.1-154,8.4c-44.9,3.8-47.9,106.3,31.7,102c51.7-2.7,104.6-7.6,160.3-17.2c22.6-3.9,45.6-5.7,68.6-5.3
						c44.9,0.9,89.5,5.9,134.8,3.3c74.9-4.4,149.8-9.4,224.9-11.9c24.2-0.8,48.4-3,72.4-6.6c-4.4-7.7,30.2-19,22.7-25
						c-34.1-27.4,26.2-60.3-7.8-87.8C1155.3,449.7,993.4,449.5,987.4,449.9z"/>
					<path class="st4" d="M942.1,310.1c-23.6,2.4-61.4,4.9-84.9,8c-49.5,6.4-81.7-26.7-131.3-19.6c-46.9,6.8-87.4,18.5-134.5,25.4
						c-45.6,6.7-85.3,42.8-131.2,49.1c-40.1,5.5-171.2,16.2-211.3,22.7c-6.5,1.1-4.1-6.5-8.5-2.1c-21.3,21.1,39.7,42,18.1,63
						c-4.3,4.2-7.7,8.9-12,13.1c-4.9,4.7-3.9,7.6,3.5,9.1c10.3,2.1,20.8,2.7,31.3,1.7c119.6-11.3,211.1-25,327.9-39.9
						c10-1.3,20.1-1.8,30.1-1.4c53.4,1.9,130.3-5.1,180-10.6c67.1-7.4,134.2-15.5,201.5-21.3c21.7-1.9,43.3-5,64.7-9.4
						c-4.3-6.7,26.2-18.4,19.2-23.5c-31.9-23,20.6-55.4-11.2-78.5C1092.9,302,947.6,309.5,942.1,310.1z"/>
					<path class="st4" d="M925.1,189c-23.6,2.4-61.4,4.9-84.9,8c-49.5,6.5-68.8,53.6-118.4,60.7c-46.9,6.7-93.6-27.5-140.7-20.6
						c-45.6,6.7-92,8.5-137.9,14.8c-40.1,5.5-171.2,16.2-211.3,22.7c-6.5,1.1-4.1-6.5-8.5-2.1c-21.3,21.1,39.7,42,18.1,63
						c-4.4,4.2-7.8,8.9-12.1,13.1c-4.9,4.7-3.9,7.6,3.5,9.1c10.3,2.1,20.8,2.7,31.3,1.7c125.2-11.9,250.8-19.6,375.7-35.3
						c53.9-6.8,108.2-10.6,162.3-16.6c67.1-7.4,134.2-15.5,201.5-21.3c21.7-1.9,43.3-5,64.7-9.4c-4.3-6.7,26.2-18.4,19.2-23.5
						c-31.9-23,20.6-55.4-11.2-78.5C1075.9,180.9,930.5,188.4,925.1,189z"/>
				</g>
			</g>
		</g>
	</g>
</g>
<path class="st0" d="M1460.4,1300.5c-27.8,3.7-24.3-50.9-24.3-50.9c10.9,14.8,35.4,32.2,35.4,32.2S1474.8,1298.6,1460.4,1300.5z"/>
<path class="st0" d="M1611.7,1256c17.4-25.7-4.3-126.1-4.3-126.1c-0.8,61.9-55,137.8-55,137.8S1594.3,1281.7,1611.7,1256z"/>
<path class="st0" d="M1565.3,1255.7c-31.5-2.4-16.5-92.9-16.5-92.9l33,79C1581.8,1241.8,1596.8,1258.1,1565.3,1255.7z"/>
<path class="st3" d="M1244.6,880.7l-7.4,3.8c-24.1,2.7-58.5,4-82.9,3.8c-75.1-0.5-150.2,1.4-225.2,2.7c-60.5,1-121-0.4-181.4,1.5
	c-139.9,4.4-279.8-0.2-419.6,0c-7.7,0-9.3-0.7-16.8-2.2v-11.6c0.6,0-4.8,0-4.2,0c139.8-0.2,279.7,4.4,419.5,0
	c60.4-1.9,120.9-0.5,181.4-1.5c75-1.2,150.2-3.2,225.3-2.7c24.2,0.2,48.5-1,72.6-3.6c11.4-4.2,14-11.2,6.7-17.5
	c-27.1-23.6,21.1-52.8,20.9-78.5c7.8-0.4,12.6-1.2,12.8-2.3c28.8,25.2-2,53.2,6.1,84.2C1254.8,866,1251.8,874.6,1244.6,880.7z"/>
<path class="st4" d="M305.2,863.8L305.2,863.8v-17.9C312,849.8,317.2,854.2,305.2,863.8z"/>
<path class="st4" d="M306.3,778.4c0.6,0,1.2-0.1,1.8,0C307.6,778.4,306.9,778.4,306.3,778.4l-1.8,50.8c6.6,4.1,11.6,8.7-0.6,17.9
	l-0.5,15c0.6,0,1.2,0,1.8,0.1c139.7,4.8,279.4,14.5,419.3,15.1c60.4,0.3,81-12.1,181.3,5c74,12.7,150.1,2.2,225.2,5.4
	c24.3,1.1,48.5,0.7,72.7-1c11.6-3.8,23.6-18.9,16.6-25.4c-26.2-24.6,13.8-43.8,14.5-69.5c-13.9,0.3-13.9,0.2,0-0.1
	c0.2-5.6-1.9-11.1-7.6-16.4c-1.4,6.7-162.8-5.9-169.1-6.1c-26.4-0.7-68.4-3.5-94.7-3.4c-55.5,0-77.3,9.9-133.1,10.7
	c-52.7,0.7-105.4-4.5-158.4-3.7c-51.3,0.9-102.7-3.8-154.2-3.4c-38.5,0.2-150.9-4.9-210.8-5.5L306.3,778.4z"/>
<path class="st3" d="M1257.4,1041c6.8,6.8-16.1,25.7-12.5,33.8c-24.2,1.2-55.8-0.1-80.1-1.8c-75-5.1-149.3-13.9-224.3-17.1
	c-60.5-2.6-120.8-7.6-181.2-9.4c-139.9-4-279.2-17-418.8-25.3c-11.6-0.7-23.1-3.1-34.1-7.2c-0.4-0.2-0.9-0.3-1.3-0.5v-0.7
	c4.2,0.8,8.4,1.3,12.6,1.5c139.6,8.3,278.9,21.4,418.8,25.4c60.4,1.7,120.8,6.8,181.2,9.4c75,3.2,150.1,5.8,225,10.9
	c24.2,1.7,48.5,2,72.7,0.8c-3.6-8.2,15.9-21.7,9-28.5c-27.7-27.3,13.9-44.3,1.2-69.5c9.3-0.3,25.5,1,25.8-0.5
	C1282.5,993.1,1226.4,1010.7,1257.4,1041z"/>
<path class="st3" d="M1227.6,1168.8c7.6-0.1,12.4-0.7,12.8-1.9c29,32.6-29.9,58.5-0.7,91.1c6.5,7.2-54.2,25.5-87.5,13.2
	c-74.5-9.6-149.3-16.9-223.9-24.7c-60.1-6.4-120-15.2-180.2-20.6c-139.3-12.6-277.6-34.2-416.4-51c-9-1.1-17.8-3.3-26.3-6.4v-8.4
	c1.8,0.3,3.6,0.6,5.5,0.8c138.8,16.8,277.1,38.4,416.4,51c60.1,5.5,120,14.3,180.2,20.6c74.6,7.8,149.4,15,223.9,24.7
	c24.2,3.1,31,4.3,55.2,4.6c-3.1-8.4,38.7-10.6,32.3-17.8C1194.5,1216.8,1231.4,1194.3,1227.6,1168.8z"/>
<path class="st4" d="M306.6,1149.7c-0.4,0.2-0.9,0.5-1.3,0.8v-50.2c10,9.3,22.7,18.5,7.1,28.2C306.7,1132,312.2,1146.1,306.6,1149.7
	z"/>
<path class="st4" d="M319.7,991.2c-5.1,3.6-9.5,7.9-14.5,11.6v-64.7C312.1,956.1,339.4,977.3,319.7,991.2z"/>
<path class="st8" d="M727.2,850.1c3-1.3,5.4-3.9,6.2-7.2c2.7-10.2,6.1-20.2,10.1-30c7.4-17.8,58.6-19.1,78.2-10
	c19.7,9,69.2,43.7,86.9-11.1c17.7-54.8,11.5-45.6,6.7-47.3c-4.8-1.7-20.7,49-32.8,57.5c-12.1,8.4-22.1-1.7-20.8-7s26-48.9,18.5-54
	s-31.3,39.9-43.3,43.3s-28-9.6-32-10.9c-4-1.3,22.1-62.9,21.3-77.1c-0.9-14.2-12.6-8.1-19,20.9c-6.4,28.9-57,91.8-64.8,68.7
	c-7.8-23.1-19.3-30.2-22.6-25.7c-3.3,4.5,10.3,33.2,3.2,41.9c-5,6.2-12,24.7-15.6,34.7c-1.6,4.4-0.6,10.3,3.6,12.3
	C717.1,852.1,722.5,852.3,727.2,850.1z"/>
<path class="st8" d="M665.3,842.5c3.5-2.6,4.3-7.7,1.7-11.2c-4.5-6-11.7-15.7-14.9-19.8c-5-6.1,12.5-35.8,5.5-41.6
	c-7-5.8-4.4,36.6-29.1,20.3c-24.7-16.3-13.2-75.6-20.1-87.1c-6.9-11.5-14.9-3.2-11.9,6.8c3,10-3.9,92.7-30,55.8
	c-26.1-36.9-31.3-38.5-35.1-36.9c-3.8,1.6,21.5,45.9,21.5,45.9c-80.7,22.6-87.1-36.7-91.5-38.7c-4.4-1.9-16.6,30.9,28.5,56.1
	c45.1,25.2,76.9-4.4,107.1-1.7c25.8,2.4,42,38.3,46.2,49c0.8,2.1,2.5,3.8,4.6,4.5c8.1,3.1,13.8,1.4,17.6-1.2
	C665.5,842.8,665.5,842.8,665.3,842.5z"/>
<path class="st4" d="M283.3,934.4c8.5,17.3,5.6,55.9,1.9,58.9c-2.1,1.7-3.3,4.3-3.3,6.9c0,3.1,1.6,5.9,4.2,7.6
	c2.6,1.6,16.4,4.9,19.2,5.1h0.1v0.1c4.2,0.7,8.4,1.2,12.6,1.5c139.6,8.3,278.9,21.3,418.8,25.4c60.4,1.7,120.7,6.8,181.2,9.4
	c75,3.2,111.3-9.5,225,10.9c24,4.3,48.5,2,72.7,0.8c-3.6-8.1,15.8-21.7,9-28.5c-27.8-27.4,13.8-44.3,1.2-69.5c-1.7,0-5.4,0-11-0.2
	c4.2,0,7.8,0,10.7-0.1c-1.9-3.6-4.3-6.8-7.2-9.5c-1.6,6.6-121.6-0.7-127.8-1.1c-26.3-1.4-52.7-4-79.1-2.8
	c-83.7,3.9-110.9-7.2-166.6-7.8c-52.7-0.6-105.3-7.1-158.2-7.5c-51.3-0.5-102.6-6.3-154-7.2c-42.5-0.8-174.6-10.3-227.4-11.1v0.1
	c-2.6,0-23.4,2.7-23.4,6.9v5.7C281.9,930.5,282.4,932.5,283.3,934.4z"/>
<path class="st4" d="M279.9,1137.4v0.6c0,10.7,3.1,19.7,13.8,20.7c3.5,0.3,7.3,0.7,11.6,1.1v0.1c1.8,0.3,3.7,0.6,5.5,0.8
	c138.8,16.8,277.1,38.4,416.4,51c60.2,5.5,120.1,14.2,180.2,20.6c74.6,7.8,149.4,15.1,223.9,24.7c24.2,3.2,31,4.3,55.2,4.6
	c-3.1-8.3,38.8-10.6,32.3-17.8c-24.3-27.1,12.4-49.6,8.7-75.2h0.1c-0.8-5.1-3.2-10.4-8-15.8c-2,6.5-127.4-5.9-133.7-6.6
	c-26.2-3-52.4-5.4-78.7-7.7c-55.3-4.8-110.2-14-165.8-18.1c-52.6-3.8-104.6-13.5-157.5-17.2c-51.1-3.6-102-12.6-153.3-16.7
	c-42.1-3.3-172.1-20.8-225.3-25v0.1c-7.5-0.7-14-1.2-19.2-1.5c-2-0.1-4-0.1-6,0c-2.9,0.2-0.1,2.6-0.1,5.4c0,2.1,0,4.7,0,7.3
	c0,7.1-2.6,14,1.8,19.5c5.1,6.3,9.8,15.5,0.3,21.3c-5,3.1-1.4,17.6-2,21.2C280,1135.7,279.9,1136.5,279.9,1137.4z"/>
<path class="st9" d="M802.8,1156.9l0.4,125.7l-209.8-36.5L580.2,909l-17.7-8.9l17-9.8l219.2,18.2l2.9,137.4
	C803.8,1081.9,804.9,1121.1,802.8,1156.9z"/>
<path class="st1" d="M1235,1574c185.6,42.9,383.8,60.9,511.1,62.7c-109,54.3-220.2,62-350.1,72.3c-36.9,3-72.8,6.7-107.3,8.4
	c-105.3,5.1-192.1,2.3-264.2-5.2l-0.6-0.1l-24.7-2.8C775.3,1681.2,704.9,1606.8,665,1597c-251-209.5-56.6-384.6-56.6-384.6
	l134.4,21.4C633.3,1424.8,989.4,1517.4,1235,1574z"/>
<path class="st10" d="M768.7,918.4l7.3,123c2.2,36,3.3,75.2,1.3,111.1l0.4,125.7l-209.8-36.5l-5.3-341.6L768.7,918.4z"/>
<path class="st11" d="M739.5,942.4l8.2,316.7h-23.1l-20.1-285l6.9,283.3l-32.9-5.6l-2.9-268.3l-14.7-0.5
	c3.9,10.7,6.6,263.9,6.6,263.9s-16.6,5.8-19.5,4.3s-20.9-301.6-20.9-301.6s3,217.7,6.9,247.1s2,49,0,50.8s-20.6,0-20.6,0l-17-316.4
	C668.5,934.2,739.6,942.3,739.5,942.4z"/>
<path class="st4" d="M318,862.8c-20.8,0.3,1.8-0.4-19,0.1c-2.8,0-11.9-2.3-14.6-3.7c-2.7-1.4,1.6-21.2,5.4-24.3
	c17.4-14.6-0.1-32-10-48.6c-0.2-0.3-0.4-0.7-0.6-1.2c-4-8.4,1-18.6,10.2-20c0.3,0,0.6-0.1,0.9-0.1c13.1-1.2,17.7-0.2,43.1-1
	L318,862.8z"/>
<path class="st3" d="M665.3,275.5l36.7,7c0,0-291.7,396-335,458.3s-119.2,96.6-119.2,96.6L665.3,275.5z"/>
<path class="st11" d="M1304,828.5l477-13.8l76.1-23.6l-304.7-273.4C925.6,385.8,664.1,207,664.1,207L1304,828.5z"/>
<path class="st8" d="M665.4,275.4c0,0-405.2,575.9-419.6,561C219,808.8,197.6,801,197.6,801c30.5-24.8,429.3-579.8,464.1-593.9
	S1286,810.7,1286,810.7s28.4,8.9,0.9,21c-31.7,14-48.6,34.3-48.6,34.3C1197.5,863,665.4,275.4,665.4,275.4z"/>
<path class="st12" d="M1238.3,866c0,0,583.4-38,583.4-39.5s35.4-35.4,35.4-35.4c-88.4,26.5-546,18.1-546,18.1
	C1250.5,804.7,1238.3,866,1238.3,866z"/>
<polygon class="st9" points="1425.8,810.4 1398.5,855.5 1448.2,852.2 1473.6,810.8 "/>
<polygon class="st13" points="1161.1,513.7 1425.8,810.4 1473.6,810.8 "/>
<polygon class="st9" points="1525.7,810.4 1505.2,849.1 1537.9,847 1555.6,810.2 "/>
<polygon class="st13" points="1383.2,672.9 1525.7,810.4 1555.6,810.2 "/>
<polygon class="st9" points="1669.9,807.8 1654.9,838.5 1686.3,836.3 1697.5,806.8 "/>
<polygon class="st13" points="1545.2,712.2 1669.9,807.8 1697.5,806.8 "/>
<path class="st3" d="M665.3,275.5l-1.3,32.8c0,0,374.2,398.6,461,482.8c102.1,99.1,113.3,74.9,113.3,74.9L665.3,275.5z"/>
<path class="st0" d="M396.4,1224.6c10.6-12.9-2.1-80.4-2.1-80.4c29.3,11.5,33.5,55,33.5,55c22.7-22.9,30.1-90.8,30.1-90.8
	c30.7,45.3,2.2,94.6,2.2,94.6l18.7,31.5c-8.8-43.5,56.7-80.2,56.7-80.2c1,16.5-32.3,27.3-9.8,93
	C536.3,1278.4,385.8,1237.5,396.4,1224.6z"/>
<path class="st0" d="M951.3,1278.2c14.1-25.5-22.1-116.7-22.5-93.1c-1.6,79.8-36.8,74.3-36.8,74.3c2.3-23.7-23.4-48.7-32-56.3l0,0
	c-0.3-0.5-0.9-0.6-1.4-0.3s-0.6,0.9-0.3,1.4c25.1,86.8-51.1,102.5-51.1,102.5S919.7,1335.3,951.3,1278.2z"/>
</svg>
