<svg height="512pt" viewBox="0 -1 512.00052 512" width="512pt" xmlns="http://www.w3.org/2000/svg"><path d="m78.527344 8.292969 5.910156 10.808593c5.894531 10.777344 14.757812 19.640626 25.535156 25.535157l10.808594 5.910156c11.058594 6.046875 11.058594 21.933594 0 27.980469l-10.808594 5.910156c-10.777344 5.894531-19.640625 14.757812-25.535156 25.535156l-5.910156 10.808594c-6.046875 11.058594-21.933594 11.058594-27.980469 0l-5.910156-10.808594c-5.894531-10.777344-14.757813-19.640625-25.535157-25.535156l-10.808593-5.910156c-11.058594-6.046875-11.058594-21.933594 0-27.980469l10.808593-5.910156c10.777344-5.894531 19.640626-14.757813 25.535157-25.535157l5.910156-10.808593c6.046875-11.058594 21.933594-11.058594 27.980469 0zm0 0" fill="#61a5ce"/><path d="m483.640625 84.976562 3.316406 6.0625c3.308594 6.046876 8.277344 11.019532 14.328125 14.328126l6.0625 3.316406c6.203125 3.394531 6.203125 12.304687 0 15.699218l-6.0625 3.316407c-6.046875 3.304687-11.019531 8.277343-14.328125 14.328125l-3.316406 6.0625c-3.394531 6.203125-12.304687 6.203125-15.699219 0l-3.316406-6.0625c-3.304688-6.050782-8.277344-11.023438-14.328125-14.328125l-6.0625-3.316407c-6.203125-3.394531-6.203125-12.304687 0-15.699218l6.0625-3.316406c6.050781-3.308594 11.023437-8.28125 14.328125-14.328126l3.316406-6.0625c3.394532-6.203124 12.304688-6.203124 15.699219 0zm0 0" fill="#8ed7e8"/><path d="m162.484375 331.539062h206.859375l-85.082031-282.542968c-5.476563-18.183594-31.21875-18.183594-36.695313 0zm0 0" fill="#7de2e2"/><path d="m265.914062 35.359375c-7.804687 0-15.609374 4.542969-18.347656 13.636719l-85.082031 282.542968h103.429687zm0 0" fill="#a0f0f2"/><path d="m138.941406 261.074219-59.570312-54.753907c-14.148438-13.003906-36.550782.355469-31.832032 18.984376l49.40625 195.171874 101.484376 25.894532 16.71875-78.890625zm0 0" fill="#7de2e2"/><path d="m194.921875 415.464844-117.082031-43.84375c-18.171875-6.804688-34.503906 13.511718-23.953125 29.796875l59.050781 91.144531c6.816406 10.523438 18.5 16.871094 31.035156 16.871094h86.902344zm0 0" fill="#a0f0f2"/><path d="m392.886719 261.074219 59.570312-54.753907c14.148438-13.003906 36.546875.355469 31.832031 18.984376l-49.40625 195.171874-101.484374 25.894532-16.71875-78.890625zm0 0" fill="#66d3d0"/><path d="m336.90625 415.464844 117.078125-43.84375c18.175781-6.804688 34.507813 13.511718 23.953125 29.796875l-59.046875 91.144531c-6.816406 10.523438-18.5 16.871094-31.039063 16.871094h-86.898437zm0 0" fill="#7de2e2"/><path d="m321.488281 509.433594 93.585938-161.179688c6.34375-10.921875 9.472656-23.414062 9.027343-36.035156l-5.722656-163.011719c-.734375-20.867187-27.980468-28.265625-39.167968-10.632812l-109.746094 172.96875c-5.125 8.074219-8.738282 17.007812-10.667969 26.371093l-35.394531 171.519532zm0 0" fill="#a0f0f2"/><path d="m210.339844 509.433594-93.585938-161.179688c-6.34375-10.921875-9.472656-23.414062-9.027344-36.035156l5.722657-163.011719c.734375-20.867187 27.980469-28.265625 39.167969-10.632812l109.746093 172.96875c5.121094 8.074219 8.734375 17.007812 10.667969 26.371093l35.390625 171.519532zm0 0" fill="#bdfaff"/></svg>