<svg id="icons" height="512" viewBox="0 0 340 340" width="512" xmlns="http://www.w3.org/2000/svg"><path d="m260.768 66.81a10.121 10.121 0 0 1 -5.094-13.064c2.977-7.172 4.872-17.171-1.388-26.214-11.392-16.455-30.378-9.493-30.378-9.493-5.484-7.384-16.665-10.126-16.665-10.126-21.264-4.05-33.111 5.645-39.187 14.049a10.94 10.94 0 0 1 -15.218 2.351c-10.327-7.372-27.535-15.6-44.743-5.852-18.188 10.307-17.718 28.978-15.406 40.231a33.841 33.841 0 1 0 3.333 63.93c6.607 12.847 17.629 15.61 26.483 15.389a15.2 15.2 0 0 1 15.629 14.457 288.524 288.524 0 0 1 -.506 31.654l7.6 13.228 59.489-10.337c-4.248-7.95-5.684-21.3-6.079-32.351a16.812 16.812 0 0 1 15.829-17.3c23.212-1.6 21.26-22.921 21.26-22.921 14.477 3.639 24.118 1.433 30.514-2.744 14.114-9.219 14.978-30 1.784-40.5a34.959 34.959 0 0 0 -7.257-4.387z" fill="#fc7963"/><path d="m20.317 182.426s-19.151 13.245-4.277 35.252c0 0 14.669 20.377 39.325 16.588 15.084-2.317 22.457-5.651 26.062-8.339a28.588 28.588 0 0 1 14.391-5.533l7.967-.759a1.7 1.7 0 0 0 .342-3.317c-6.446-1.992-14.879-5.374-21.049-10.662 0 0-9.985-9.577-22.007 1.426l-9.506 1.5c-.792-15.843-8.584-22.865-23.2-21.285z" fill="#fc7963"/><path d="m279.723 162.089s-14.4-10.483-23.578 1.092.428 22.494 8.29 23.15c0 0 12.449.436 13.759 9.39a8.505 8.505 0 0 1 -6.366 8.118c8.589 5.535 23.644 3.656 39.756.567 6.414-22.445 3.289-36.587-5.033-44.05a29.469 29.469 0 0 0 -2.805-1.325c-11.856-4.872-24.023 3.058-24.023 3.058z" fill="#bc4231"/><path d="m47.9 31.514a12.423 12.423 0 0 1 2.27 2.33 5.147 5.147 0 0 1 -7.342 7.14 11.031 11.031 0 0 1 -2.583-2.93c-2.819-4.784 3.279-9.96 7.655-6.54z" fill="#fc7963"/><g fill="#bc4231"><path d="m311.017 73.989a12.406 12.406 0 0 1 -1.039 3.082 5.148 5.148 0 0 1 -9.7-3.281 10.984 10.984 0 0 1 1.431-3.634c2.973-4.685 10.359-1.616 9.308 3.833z"/><path d="m179.631 26.455a1.957 1.957 0 0 1 -2.2 3.061 29.826 29.826 0 0 0 -15.352-1.476 35.168 35.168 0 0 0 -17.179 7.415 1.957 1.957 0 0 1 -3.1-2.151c2.015-5.618 6.877-12.779 18.6-14.318a20.272 20.272 0 0 1 19.231 7.469z"/><path d="m252.476 79.079c2.844-14.126-.984-23.358-4.929-28.763a2.62 2.62 0 0 1 3.053-4.016c5.085 2.036 10.652 5.974 12.267 13.573 2.518 11.85-1.991 18.383-6.151 21.76a2.623 2.623 0 0 1 -4.24-2.554z"/><path d="m158.645 158.283a1.491 1.491 0 0 1 -2.905-.4l-.18-4.045a15.5 15.5 0 0 0 -6.137-12.411 18.215 18.215 0 0 1 -6.993-10.976 7 7 0 0 0 -6.813-5.61c-13.615 0-20.788-5.441-24.553-10.82a2.657 2.657 0 0 1 3.613-3.765 40.457 40.457 0 0 0 21.974 6.491 11.98 11.98 0 0 1 11.691 9.644 17.36 17.36 0 0 0 7.218 11.555c6.677 4.474 5.14 13.938 3.085 20.337z"/><path d="m189.571 138.232a1.822 1.822 0 0 1 -3.2-1.621 22.9 22.9 0 0 1 13.73-14.972s12.7-4.209 12.224-16.417a12.545 12.545 0 0 1 5.51-10.63c4.131-2.915 8.273-7.865 6.853-15.64a1.822 1.822 0 0 1 3.371-1.26c2.7 4.981 3.764 12.013-2.7 20.284a12.916 12.916 0 0 0 -2.858 8.161c.111 5.832-2.327 16.178-19.23 22.185a26.637 26.637 0 0 0 -13.7 9.91z"/><circle cx="104.88" cy="84.395" r="4.306"/><circle cx="180.352" cy="157.739" r="4.306"/></g><circle cx="233.424" cy="153.433" fill="#fc7963" r="5.67"/><circle cx="297.526" cy="123.056" fill="#bc4231" r="4.306"/><circle cx="27.426" cy="118.749" fill="#bc4231" r="4.306"/><ellipse cx="106.544" cy="157.739" fill="#fc7963" rx="5.097" ry="6.166" transform="matrix(.559 -.829 .829 .559 -83.806 157.842)"/><path d="m326.007 184.672c-2.037-2.8-5.133-5.447-9.594-5.548 0 0 2.872-11.878-9.862-18.767 10.744 18.821-3.9 28.383-3.9 28.383-3.945-3.242-7.564-3-10.2-1.942a10.507 10.507 0 0 0 -5.282 5c-6.331 12.124-15.344 12.044-15.344 12.044a9.862 9.862 0 0 1 -8.121-1.462c-3.292-2.209-9.541-4.992-15.516.136a14.961 14.961 0 0 0 -2.676 3.11l-.191.288a7.219 7.219 0 0 0 6.014 11.213h56.121s20.827-.359 22.108-19.31a19.981 19.981 0 0 0 -3.557-13.145z" fill="#fc7963"/><path d="m61.071 207.082s-8.874-2.649-4.641-11.615c3.6-7.621 19.155-6.114 23.741-5.49 1.225.166 2.451.294 3.686.363a110.6 110.6 0 0 0 13.835-.114 5.8 5.8 0 0 0 2.308-10.911 61.923 61.923 0 0 1 -9.72-6.469 10.482 10.482 0 0 0 -12.885-.324q-.316.242-.633.515s-2.353-14.859-20.331-12.822c0 0-8.4-13.448-27.147-5.5s-8.966 27.712-8.966 27.712c-2.223 6.579-.28 10.57 2.133 12.894a7.293 7.293 0 0 0 7.863 1.4c2.952-1.215 7.7-2.294 11.973.626 4.363 2.98 4.569 8.243 4.15 11.653a3.4 3.4 0 0 0 3.34 3.865c6.814-.077 11.294-5.783 11.294-5.783z" fill="#bc4231"/><path d="m199.125 162.921-9.438 9.007a7.533 7.533 0 0 1 -8.4 1.373l-6.442-3.015a7.534 7.534 0 0 0 -6.807.212l-7.1 3.88a7.534 7.534 0 0 1 -8.534-.907l-14.044-12.116c.087 12.471-.732 22.767-.732 22.767l7.6 13.228 59.489-10.337c-3.232-6.04-4.834-15.194-5.592-24.092z" fill="#bc4231"/><path d="m138.088 180.793h3.068a15.5 15.5 0 0 1 10 3.655 15.491 15.491 0 0 0 17.492 1.72l.2-.111a15.5 15.5 0 0 1 7.5-1.935h19.352l14.922 15.209s33.486 98.447 86.667 133.706h-257.6a2.739 2.739 0 0 1 -1.142-5.231 166.85 166.85 0 0 0 50.63-35.712 97.923 97.923 0 0 0 18.689-28.088l1.607-3.636a80.959 80.959 0 0 1 9.423-16.039l7.592-10.065 2.892-45.3a8.725 8.725 0 0 1 8.708-8.173z" fill="#ba7d8f"/><path d="m264.88 286.037a22.557 22.557 0 0 1 -4.332-7.385l-.51-1.443a22.876 22.876 0 0 0 -10.862-12.822 22.029 22.029 0 0 1 -7.6-6.4c-19.057-25.712-21.612-51.392-21.4-64.645a9.067 9.067 0 0 0 -9.068-9.22h-15.408c2.779 2.5 5.008 6.354 5.2 12.321 0 0 1.553 16.524 4.35 31.3a48.69 48.69 0 0 0 11.929 23.809 48.7 48.7 0 0 1 9.211 14.589l3.2 7.894a48.563 48.563 0 0 0 4.276 8.21c7.3 11.244 28.613 39.7 63.424 50.795h17.123a2.736 2.736 0 0 0 1.216-5.189c-22.575-11.219-43.282-33.317-50.749-41.814z" fill="#6b4269"/><path d="m137.25 321.169a1.905 1.905 0 0 1 -1.732-3.331 11.46 11.46 0 0 0 4.01-5.626l1.767-5.772a15 15 0 0 1 3.746-6.226l2.344-2.34a15.007 15.007 0 0 0 4.3-8.817l2.807-23.222a1.621 1.621 0 0 1 3.2-.1 100 100 0 0 1 1.71 20.554 24.84 24.84 0 0 1 -6.753 16.5l-.141.146a27.951 27.951 0 0 0 -5.5 8.222c-1.595 3.625-4.56 8.186-9.758 10.012z" fill="#6b4269"/><path d="m211.7 283.891a50.015 50.015 0 0 1 -6.674-13.959 26.4 26.4 0 0 0 -6.83-10.424l-3.82-3.24a23.267 23.267 0 0 1 -7.944-14.167l-3.32-25.478a2.108 2.108 0 0 0 -4.166-.1c-1.385 7.614-2.635 17.8-1.773 27 0 0-.3 12.831 10.94 20.275a19.59 19.59 0 0 1 7.57 8.756s4.426 9.48 13.211 14.456a2.151 2.151 0 0 0 2.806-3.119z" fill="#6b4269"/><path d="m116.985 246.987a202.733 202.733 0 0 1 -.059 43.216 2.383 2.383 0 0 0 4.644.965 62.02 62.02 0 0 0 2.489-12.579l2.43-44.323-7.589 10.064c-.661.87-1.294 1.76-1.915 2.657z" fill="#6b4269"/><path d="m115.6 301.571c.086 2.289-.565 5.621-3.883 9.127a1.861 1.861 0 0 1 -3.151-.867c-.55-2.366-.331-5.971 3.953-9.558a1.864 1.864 0 0 1 3.081 1.298z" fill="#6b4269"/><path d="m221.6 295.581c2.092.935 4.792 2.992 6.471 7.518a1.861 1.861 0 0 1 -2.171 2.443c-2.366-.553-5.5-2.343-6.825-7.771a1.863 1.863 0 0 1 2.525-2.19z" fill="#6b4269"/></svg>