<svg id="Layer_1" data-name="Layer 1" xmlns="http://www.w3.org/2000/svg" xmlns:xlink="http://www.w3.org/1999/xlink" viewBox="0 0 2000 2000"><defs><style>.cls-1{fill:none;}.cls-2{fill:#aed76a;}.cls-3{clip-path:url(#clip-path);}.cls-4{fill:#fecfae;}.cls-5{fill:#877874;}.cls-6{fill:#967266;}.cls-7{fill:#4c3b36;}.cls-8{fill:#725b51;}.cls-9{fill:#ddcbb8;}.cls-10{fill:#441c0c;}.cls-11{fill:#592710;}.cls-12{fill:#724e44;}.cls-13{clip-path:url(#clip-path-2);}.cls-14{fill:#9b786f;}.cls-15{fill:#77a22f;}.cls-16{fill:#1e1713;}.cls-17{fill:#a3acaf;opacity:0.8;}.cls-18{fill:#838c8e;}.cls-19{fill:#cfe59a;}.cls-20{fill:#afd86a;}</style><clipPath id="clip-path"><path class="cls-1" d="M1371.47,1146.44c84.7-12,171.62,4,242.49,47,99.88,60.75,245,166.07,171.73,332.75-138.79,315.9-364.16,426-706.54,390S543.54,1671.58,310.66,1665c-89.15-2.53-235.8-92.81-133.58-300.84,52.4-106.65,478-407.45,850.72-282.69C1220,1145.76,1319.82,1153.77,1371.47,1146.44Z"/></clipPath><clipPath id="clip-path-2"><path class="cls-1" d="M1494,939.49l-318.72,40.84S1045,876.1,1027.62,818,879.1,353.85,881,273.38s31.69-121.3,31.69-121.3,119.71,80.22,269.51,60c0,0,167.23,497,200.18,540S1494,939.49,1494,939.49Z"/></clipPath></defs><path class="cls-2" d="M1371.47,1146.44c84.7-12,171.62,4,242.49,47,99.88,60.75,245,166.07,171.73,332.75-138.79,315.9-364.16,426-706.54,390S543.54,1671.58,310.66,1665c-89.15-2.53-235.8-92.81-133.58-300.84,52.4-106.65,478-407.45,850.72-282.69C1220,1145.76,1319.82,1153.77,1371.47,1146.44Z"/><g class="cls-3"><path class="cls-4" d="M1253.38,1519s129.75,29.24,129.75,98.56-246,57.75-342.11,135.47-137.44,213.31-137.44,213.31h394.93s134.33-223.24,205.33-262.92,130.64-127.33-79.08-265C1239.55,1316.8,1253.38,1519,1253.38,1519Z"/></g><polygon class="cls-5" points="537.13 1291.15 1451.42 1287.93 1486.64 1295.38 1486.64 1295.38 1016.89 1426 537.13 1291.15"/><path class="cls-6" d="M1136.09,228.2c20.62-13.66,21.48-51.69,21.48-51.69l26.23-2.67,4.55,14c-.38-5.18-.69-10.58-.89-14l11.1-.12c.28,19,8,61.52,8,61.52-2-31.79,2.66-51.47,6.34-61.67l18.33-.18s110.61,518.27,332.24,757.92c0,0-8.42,43-35.37,54,0,0-323.14-407.88-345.26-760.18Z"/><polygon class="cls-7" points="974.44 1380.69 610.94 1288.45 582.22 835.4 800.76 394.69 1022.18 993.21 974.44 1380.69"/><path class="cls-8" d="M1041,1391.58l376.33-99.12L1455,934.17l-352.11,49.19s-58.07,22.93-59.39,54.33S1041,1391.58,1041,1391.58Z"/><path class="cls-6" d="M1419.44,1312.94l-10.06-2.78,15.94-379,19,.8S1455.92,1232.55,1419.44,1312.94Z"/><polygon class="cls-9" points="1489.97 933.89 1451.66 1305.1 1419.44 1312.94 1444.32 931.98 1489.97 933.89"/><path class="cls-10" d="M1153.63,1006.5,1506,953.34l-12-13.85s-267.44-11.07-318.72,40.84S1153.63,1006.5,1153.63,1006.5Z"/><path class="cls-11" d="M1494,939.49l-318.72,40.84S1045,876.1,1027.62,818,879.1,353.85,881,273.38s31.69-121.3,31.69-121.3,119.71,80.22,269.51,60c0,0,167.23,497,200.18,540S1494,939.49,1494,939.49Z"/><path class="cls-10" d="M1191.68,301.86c-5.06,2-9.21-.95-13.56-2.61a15.06,15.06,0,0,1-3.62-2.44,3.45,3.45,0,0,0-5,.2c-9.89,9.09-20.38,6.18-30.86,1.39-4.38-2-8.41-4.59-11.33-8.64-1.44-2-3-2.07-5.17-.37-13.06,10-32.38,5.1-43.15-3.3-5.14-4-9-9.22-13-14.76-5,5.73-11.21,8.85-18.47,8.06-13.21-1.44-25.25-5.7-33.87-16.65-.91-1.14-1.75-2.33-2.66-3.47-3.94-5-4.13-5.23-9.65-1.65a22.27,22.27,0,0,1-20.91,2.43,12.78,12.78,0,0,0-2.42-.67,31.8,31.8,0,0,1-21.32-13.11c-1.67-2.28-3.1-3-5.66-1.34-11.24,7.06-22.57,3.92-33.64-.37a37,37,0,0,1-14-9.27c-1-1.07-2.42-2-2.84-3.28-2-6.06-6.08-7.55-12-6.19-4.17,1-8.3-.18-12.3-1.53a26.8,26.8,0,0,1-1.87-9.52c6.65-1.74,13.37-3.28,19.94-5.3,4.82-1.48,8.38-.48,11.7,3.34,3.95,4.55,8,9,13.07,12.52,8.76,6.2,18.11,6.92,28.06,4.13A16.85,16.85,0,0,0,953,226c5.32-4.32,10.43-2.82,13.87,3.36a38.83,38.83,0,0,0,12.28,14c1.07.71,2.11,1.56,3.38,1.47,8.23-.61,16.9.54,23.62-6.08,1.35-1.33,2.91-1.4,5.09-.66,7.28,2.48,12.31,7.62,17.18,13.1.84.93,1.7,1.84,2.48,2.82,7.41,9.34,15.08,9.23,26,6.9,2.41-.51,4.66-1.8,7-2.75,9.55-3.91,14.57-2.39,21,6.08,2.64,3.47,5.08,7.12,8.57,9.92,4,3.18,8.11,5.07,13.27,3.23,1-.35,2.09-.3,3.08-.62,2-.64,4.33.36,6-1.18s.4-3.58.93-5.38c1.28-4.44,3.31-5.81,7.79-4.94,5.07,1,8.64,3.9,11.35,8.14a48.83,48.83,0,0,0,12.29,13.18c3.13,2.31,12.65,2.29,15.5,0a3.07,3.07,0,0,0,1.18-2.75c-.11-1-.39-2.06-.48-3.1-.47-5.94,1.52-7.59,7.27-6.14a20.13,20.13,0,0,1,7.39,3.28c2,1.5,4,3,6.7,3.17h0a1.34,1.34,0,0,0,.52,1.63Q1188.93,292.2,1191.68,301.86Z"/><path class="cls-10" d="M1188.61,375c-5.06,2-9.21-.95-13.56-2.61a14.64,14.64,0,0,1-3.63-2.44,3.45,3.45,0,0,0-5,.2c-9.88,9.09-20.38,6.19-30.85,1.39-4.38-2-8.42-4.58-11.34-8.64-1.43-2-3-2.06-5.17-.37-13.06,10-32.37,5.11-43.15-3.3-5.13-4-9-9.22-13-14.76-5,5.73-11.21,8.85-18.48,8.06-13.2-1.44-25.24-5.69-33.87-16.64-.9-1.15-1.75-2.34-2.65-3.48-4-5-4.13-5.23-9.66-1.65a22.25,22.25,0,0,1-20.9,2.43,13.8,13.8,0,0,0-2.42-.67,31.83,31.83,0,0,1-21.33-13.1c-1.66-2.28-3.1-3-5.65-1.35-11.25,7.06-22.58,3.92-33.65-.36a37,37,0,0,1-14-9.28c-1-1.07-2.42-2-2.85-3.27-2-6.07-6.08-7.55-12-6.2-4.16.95-8.3-.18-12.29-1.53a27,27,0,0,1-1.88-9.52c6.65-1.74,13.37-3.27,19.94-5.29,4.82-1.49,8.39-.49,11.7,3.33,4,4.55,8,9,13.08,12.52,8.76,6.2,18.1,6.93,28,4.13a16.46,16.46,0,0,0,5.86-3.5c5.33-4.32,10.43-2.81,13.87,3.36a39.13,39.13,0,0,0,12.28,14c1.07.71,2.11,1.56,3.39,1.46,8.22-.6,16.89.54,23.62-6.08,1.35-1.33,2.9-1.39,5.08-.65,7.28,2.48,12.32,7.61,17.19,13.09.83.94,1.69,1.85,2.47,2.83,7.41,9.33,15.09,9.23,26,6.9,2.41-.52,4.65-1.8,7-2.75,9.55-3.92,14.56-2.4,21,6.07,2.64,3.47,5.07,7.12,8.56,9.92,4,3.19,8.12,5.08,13.28,3.24,1-.35,2.08-.3,3.07-.62,2-.64,4.33.35,6-1.18s.41-3.58.93-5.39c1.28-4.44,3.32-5.8,7.8-4.94,5.06,1,8.64,3.91,11.34,8.15A49,49,0,0,0,1145,359.63c3.14,2.31,12.66,2.3,15.5,0a3,3,0,0,0,1.18-2.75c-.1-1-.39-2.06-.47-3.1-.47-5.95,1.52-7.59,7.26-6.15a20,20,0,0,1,7.39,3.28c2,1.5,4.05,3,6.71,3.17h0a1.35,1.35,0,0,0,.53,1.63Q1185.84,365.33,1188.61,375Z"/><path class="cls-10" d="M1215.07,459.44c-5.06,2-9.21-.95-13.56-2.61a14.77,14.77,0,0,1-3.62-2.44,3.45,3.45,0,0,0-5,.2c-9.89,9.09-20.38,6.19-30.86,1.39-4.38-2-8.41-4.59-11.33-8.64-1.44-2-3-2.06-5.17-.37-13.06,10-32.38,5.1-43.15-3.3-5.14-4-9-9.22-13-14.76-5,5.73-11.21,8.85-18.47,8.06-13.21-1.44-25.25-5.69-33.88-16.65-.9-1.14-1.74-2.33-2.65-3.47-3.94-5-4.13-5.23-9.65-1.65a22.27,22.27,0,0,1-20.91,2.43,13.57,13.57,0,0,0-2.42-.67A31.82,31.82,0,0,1,980,403.86c-1.67-2.29-3.1-2.95-5.66-1.35-11.24,7.06-22.57,3.92-33.64-.36a37.06,37.06,0,0,1-14-9.28c-1-1.07-2.42-2-2.84-3.27-2-6.07-6.08-7.55-12-6.2-4.17,1-8.3-.18-12.3-1.53a26.75,26.75,0,0,1-1.87-9.52c6.65-1.74,13.37-3.27,19.94-5.29,4.82-1.49,8.38-.49,11.7,3.33,3.95,4.55,8,9,13.07,12.52,8.76,6.2,18.11,6.93,28.06,4.13a16.7,16.7,0,0,0,5.86-3.5c5.32-4.32,10.43-2.81,13.87,3.36a38.94,38.94,0,0,0,12.28,14c1.07.71,2.11,1.55,3.38,1.46,8.23-.6,16.9.54,23.62-6.08,1.35-1.33,2.9-1.4,5.09-.65,7.28,2.48,12.31,7.61,17.18,13.09.84.93,1.7,1.85,2.48,2.83,7.41,9.33,15.08,9.23,26,6.9,2.41-.52,4.66-1.8,7-2.75,9.55-3.92,14.57-2.4,21,6.07,2.64,3.47,5.08,7.12,8.57,9.92,4,3.19,8.11,5.08,13.27,3.24,1-.35,2.09-.3,3.08-.62,2-.64,4.33.35,6-1.18s.4-3.58.93-5.39c1.28-4.44,3.31-5.8,7.79-4.94,5.07,1,8.64,3.91,11.35,8.15a48.94,48.94,0,0,0,12.29,13.17c3.13,2.31,12.65,2.3,15.5,0a3.05,3.05,0,0,0,1.17-2.75c-.1-1-.38-2.06-.47-3.1-.47-5.95,1.52-7.59,7.27-6.15a20.13,20.13,0,0,1,7.39,3.28c2,1.5,4.05,3,6.7,3.17h0a1.34,1.34,0,0,0,.52,1.63Q1212.3,449.78,1215.07,459.44Z"/><path class="cls-10" d="M1268.33,531.75c-5.16,2.8-10,.23-14.91-1a15.81,15.81,0,0,1-4.22-2.13c-2.1-1.27-3.83-.94-5.38.91-9.38,11.1-21,9.41-32.94,5.68-5-1.56-9.66-3.78-13.34-7.74-1.82-2-3.46-1.81-5.6.31-12.66,12.52-34.07,9.88-46.77,2.32-6.06-3.6-10.88-8.68-16-14.07-4.63,6.83-10.84,11-18.74,11.16-14.37.25-27.88-2.68-38.63-13.27-1.12-1.1-2.19-2.27-3.32-3.37-4.9-4.78-5.14-5-10.59-.45-6.59,5.56-13.82,7.32-22.11,5.45a14.44,14.44,0,0,0-2.69-.4A34.38,34.38,0,0,1,1008.44,504c-2.1-2.22-3.73-2.74-6.25-.67-11.12,9.1-23.71,7.28-36.17,4.18a40.14,40.14,0,0,1-16.27-8.06c-1.2-1-2.87-1.83-3.5-3.13-3-6.23-7.55-7.28-13.74-5-4.34,1.58-8.93.93-13.41,0a29.27,29.27,0,0,1-3.31-10c6.91-2.78,13.91-5.33,20.69-8.4,5-2.24,8.94-1.66,13,2,4.86,4.35,9.85,8.53,15.73,11.67,10.25,5.46,20.38,5,30.68.62a18.15,18.15,0,0,0,5.82-4.56c5.13-5.36,10.81-4.43,15.35,1.73,4,5.46,8.84,10.22,15.08,13.31,1.24.62,2.47,1.38,3.82,1.11,8.75-1.76,18.22-1.71,24.53-9.74,1.28-1.61,2.93-1.89,5.38-1.39,8.15,1.67,14.25,6.5,20.23,11.72,1,.89,2.07,1.75,3,2.7,9.22,9,17.45,7.86,28.81,3.88,2.52-.89,4.75-2.57,7.11-3.9,9.72-5.5,15.31-4.55,23.36,3.67,3.3,3.37,6.41,6.95,10.54,9.48,4.7,2.88,9.4,4.35,14.69,1.67,1-.5,2.2-.6,3.22-1.08,2-1,4.7-.21,6.31-2.09s0-3.89.27-5.9c.77-4.95,2.77-6.69,7.69-6.37,5.57.36,9.81,3,13.29,7.2a52.86,52.86,0,0,0,15,12.48c3.67,2,13.89.74,16.63-2.15a3.28,3.28,0,0,0,.89-3.11c-.25-1.1-.7-2.16-.93-3.26-1.31-6.32.6-8.36,7-7.58a21.5,21.5,0,0,1,8.37,2.51c2.35,1.34,4.76,2.69,7.64,2.49h0a1.45,1.45,0,0,0,.78,1.68Z"/><path class="cls-10" d="M1315.47,611.15c-5.19,3.27-10.42.93-15.6,0a16.44,16.44,0,0,1-4.55-1.93c-2.28-1.18-4-.71-5.55,1.31-9,12.21-21.27,11.25-33.92,8.18-5.29-1.29-10.32-3.28-14.43-7.15-2-1.91-3.73-1.66-5.82.7-12.34,13.91-34.82,12.62-48.57,5.61-6.56-3.34-11.93-8.29-17.61-13.57-4.36,7.44-10.54,12.23-18.77,12.91-15,1.24-29.22-.89-41.14-11.18-1.25-1.08-2.44-2.22-3.69-3.29-5.44-4.65-5.71-4.91-11.07.25-6.49,6.25-13.9,8.58-22.67,7.19a14.83,14.83,0,0,0-2.82-.22,36,36,0,0,1-26.48-10c-2.33-2.17-4.07-2.6-6.56-.27-11,10.25-24.2,9.2-37.39,6.83a41.84,41.84,0,0,1-17.5-7.29c-1.33-1-3.12-1.71-3.86-3-3.58-6.29-8.37-7.07-14.67-4.29-4.41,1.95-9.24,1.58-14,.95a30.53,30.53,0,0,1-4.13-10.16c7-3.36,14.13-6.51,21-10.16,5-2.68,9.2-2.34,13.7,1.18,5.36,4.2,10.84,8.22,17.19,11.08,11,5,21.57,3.79,32-1.45a18.88,18.88,0,0,0,5.75-5.14c5-5.94,11-5.36,16.11.75,4.56,5.42,9.91,10,16.62,12.84,1.34.55,2.67,1.27,4.06.89,9-2.43,18.86-3,24.9-11.82,1.21-1.77,2.92-2.17,5.5-1.82,8.61,1.19,15.29,5.8,21.88,10.83,1.12.86,2.27,1.68,3.35,2.6,10.22,8.77,18.72,7,30.28,2.08,2.56-1.09,4.78-3,7.14-4.55,9.76-6.4,15.65-5.79,24.59,2.22,3.67,3.29,7.16,6.81,11.63,9.17,5.1,2.68,10.1,3.88,15.43.73,1-.59,2.25-.78,3.27-1.34,2.06-1.14,4.88-.54,6.44-2.61s-.32-4.06-.13-6.17c.47-5.2,2.43-7.15,7.59-7.16,5.83,0,10.42,2.47,14.33,6.6a55.35,55.35,0,0,0,16.47,12c4,1.89,14.53-.18,17.18-3.37a3.42,3.42,0,0,0,.72-3.3c-.34-1.13-.88-2.21-1.19-3.34-1.8-6.49,0-8.75,6.74-8.38a22.7,22.7,0,0,1,8.9,2c2.53,1.24,5.14,2.47,8.12,2.07h0a1.51,1.51,0,0,0,.93,1.69Z"/><polygon class="cls-6" points="589.5 872.4 620.12 1305.11 580.71 1291.31 541.36 915.03 589.5 872.4"/><path class="cls-9" d="M1065.55,1050.75l-22.69,344.41-28.16,12s-17.7-149.7-12-206.56,19.48-207.44,19.48-207.44Z"/><polygon class="cls-12" points="1116.94 989.74 1175.27 980.33 1122.45 1044.21 1065.55 1050.75 1043.52 938.38 1116.94 989.74"/><g class="cls-13"><path class="cls-10" d="M1367.42,696c-4.8,3.81-10.26,2.06-15.51,1.73a16.8,16.8,0,0,1-4.73-1.42c-2.39-.93-4.1-.27-5.37,1.91-7.62,13.12-19.92,13.5-32.83,11.83-5.39-.69-10.61-2.13-15.12-5.53-2.22-1.67-3.89-1.23-5.71,1.34-10.74,15.18-33.22,16.35-47.66,10.89-6.89-2.6-12.77-6.94-19-11.56-3.51,7.87-9.13,13.3-17.23,14.88-14.73,2.88-29.15,2.32-42.13-6.61-1.35-.93-2.66-1.93-4-2.86-5.92-4-6.21-4.26-11,1.46-5.76,6.92-12.88,10-21.74,9.62a15.87,15.87,0,0,0-2.84.09,36,36,0,0,1-27.4-7c-2.56-1.9-4.33-2.14-6.55.44-9.77,11.39-23,11.8-36.42,10.88a41.82,41.82,0,0,1-18.19-5.32c-1.43-.83-3.29-1.36-4.17-2.58-4.24-5.86-9.09-6.11-15-2.66-4.17,2.42-9,2.58-13.78,2.46a30.26,30.26,0,0,1-5.21-9.64c6.59-4.11,13.33-8,19.74-12.39,4.71-3.22,8.89-3.34,13.75-.32,5.79,3.58,11.68,7,18.3,9.13,11.53,3.75,21.86,1.4,31.66-4.95a18.82,18.82,0,0,0,5.15-5.74c4.3-6.45,10.31-6.53,16.09-1,5.13,4.89,11,8.9,17.93,10.95,1.39.4,2.8,1,4.14.44,8.67-3.4,18.41-5.07,23.45-14.47,1-1.89,2.66-2.48,5.27-2.41,8.69.24,15.84,4.09,22.93,8.37,1.21.73,2.45,1.42,3.62,2.22,11.12,7.59,19.37,4.91,30.33-1.25,2.42-1.37,4.42-3.5,6.6-5.3,9-7.43,14.91-7.47,24.68-.48,4,2.86,7.86,6,12.57,7.83,5.36,2.11,10.46,2.76,15.41-1,.93-.7,2.15-1,3.1-1.69,1.92-1.35,4.8-1.07,6.12-3.3s-.76-4-.8-6.11c-.11-5.23,1.63-7.38,6.75-8,5.79-.65,10.63,1.32,15,5a55.47,55.47,0,0,0,17.68,10.1c4.15,1.44,14.43-1.77,16.71-5.23a3.41,3.41,0,0,0,.35-3.36c-.46-1.09-1.11-2.1-1.54-3.19-2.51-6.26-.91-8.7,5.78-9.07a22.71,22.71,0,0,1,9.07,1.07c2.65,1,5.38,1.89,8.3,1.17h0a1.51,1.51,0,0,0,1.11,1.59Q1361.19,686.55,1367.42,696Z"/><path class="cls-10" d="M1415.75,786.61c-4.58,4.08-10.13,2.62-15.38,2.58a16.89,16.89,0,0,1-4.81-1.16c-2.44-.79-4.11,0-5.25,2.2-6.89,13.52-19.15,14.57-32.13,13.62-5.43-.4-10.72-1.55-15.41-4.69-2.31-1.55-4-1-5.62,1.64-9.89,15.75-32.28,18.15-47,13.49-7-2.22-13.13-6.23-19.6-10.5-3.07,8.05-8.39,13.78-16.39,15.8-14.55,3.68-29,3.91-42.43-4.29-1.4-.86-2.76-1.78-4.17-2.63-6.13-3.7-6.43-3.92-10.88,2.05-5.38,7.23-12.31,10.74-21.18,10.8a15.67,15.67,0,0,0-2.83.24,35.93,35.93,0,0,1-27.74-5.48c-2.66-1.76-4.45-1.9-6.52.8-9.13,11.91-22.37,13-35.78,12.86a41.94,41.94,0,0,1-18.45-4.32c-1.47-.75-3.35-1.17-4.3-2.35-4.56-5.61-9.41-5.6-15.17-1.83-4,2.65-8.86,3.08-13.63,3.22a30.36,30.36,0,0,1-5.73-9.34c6.36-4.46,12.87-8.73,19-13.46,4.53-3.47,8.7-3.82,13.71-1.08,6,3.27,12.05,6.33,18.77,8.12,11.72,3.11,21.91.21,31.35-6.67a18.81,18.81,0,0,0,4.82-6c3.94-6.67,9.94-7.08,16-1.9,5.39,4.6,11.42,8.29,18.5,10,1.41.33,2.84.82,4.15.22,8.48-3.88,18.11-6.08,22.63-15.74.9-1.94,2.52-2.62,5.12-2.69,8.69-.24,16,3.21,23.36,7.09,1.25.67,2.52,1.29,3.73,2,11.52,7,19.62,3.84,30.22-2.91,2.35-1.5,4.22-3.74,6.3-5.65,8.57-7.91,14.48-8.28,24.62-1.84,4.16,2.64,8.18,5.55,13,7.14,5.47,1.81,10.59,2.18,15.33-1.8.9-.75,2.09-1.14,3-1.87,1.84-1.45,4.73-1.32,5.92-3.62s-1-4-1.13-6.07c-.39-5.21,1.22-7.45,6.31-8.3,5.75-1,10.69.73,15.22,4.16a55.26,55.26,0,0,0,18.21,9.11c4.22,1.22,14.3-2.55,16.4-6.13a3.46,3.46,0,0,0,.16-3.38c-.52-1.06-1.22-2-1.72-3.1-2.84-6.11-1.38-8.63,5.28-9.36a22.6,22.6,0,0,1,9.11.56c2.71.81,5.48,1.6,8.36.71h0a1.51,1.51,0,0,0,1.19,1.52Z"/><path class="cls-10" d="M1473.06,876.37c-4.42,4.24-10,3-15.27,3.15a16.59,16.59,0,0,1-4.85-1c-2.47-.7-4.11.11-5.17,2.39-6.37,13.77-18.58,15.29-31.59,14.82-5.44-.19-10.77-1.14-15.57-4.11-2.37-1.46-4-.87-5.56,1.86-9.29,16.11-31.58,19.35-46.46,15.25-7.1-2-13.35-5.74-20-9.76-2.77,8.16-7.86,14.09-15.78,16.41-14.4,4.22-28.81,5-42.56-2.69-1.44-.81-2.83-1.68-4.27-2.48-6.27-3.46-6.58-3.67-10.79,2.47-5.11,7.42-11.91,11.19-20.77,11.59a15.53,15.53,0,0,0-2.81.34,36,36,0,0,1-27.93-4.43c-2.73-1.66-4.52-1.74-6.49,1-8.67,12.25-21.86,13.88-35.26,14.2a41.92,41.92,0,0,1-18.61-3.62c-1.49-.69-3.39-1.05-4.39-2.19-4.76-5.44-9.61-5.24-15.22-1.25-3.93,2.79-8.74,3.4-13.49,3.73a30.42,30.42,0,0,1-6.09-9.12c6.19-4.7,12.54-9.21,18.52-14.17,4.39-3.64,8.54-4.14,13.65-1.59,6.1,3,12.28,5.87,19.07,7.4,11.83,2.67,21.9-.62,31.07-7.84a18.78,18.78,0,0,0,4.59-6.2c3.69-6.81,9.67-7.45,15.94-2.5,5.56,4.4,11.73,7.85,18.86,9.24,1.42.28,2.87.71,4.16.07,8.32-4.2,17.87-6.76,22-16.58.84-2,2.43-2.72,5-2.89,8.67-.56,16.15,2.61,23.6,6.22,1.28.61,2.58,1.19,3.81,1.87,11.78,6.54,19.74,3.1,30.09-4,2.29-1.59,4.08-3.9,6.08-5.89,8.27-8.23,14.16-8.81,24.53-2.76,4.26,2.48,8.38,5.24,13.24,6.64,5.53,1.6,10.67,1.78,15.26-2.37.86-.79,2-1.22,2.93-2,1.79-1.53,4.68-1.51,5.78-3.84s-1.12-3.92-1.36-6c-.58-5.2,1-7.5,6-8.54,5.7-1.18,10.7.33,15.36,3.58a55.36,55.36,0,0,0,18.54,8.43c4.27,1,14.2-3.09,16.15-6.75a3.4,3.4,0,0,0,0-3.38c-.55-1-1.29-2-1.83-3-3.07-6-1.71-8.58,4.92-9.56a22.48,22.48,0,0,1,9.13.22c2.73.7,5.53,1.39,8.37.4h0a1.51,1.51,0,0,0,1.25,1.47Z"/></g><path class="cls-9" d="M866,68.63l28.43,6-1.88,44.79,14.27-42.06,16.72,4.75S817.64,484.77,1175.27,980.33c0,0-35.71,13.95-58.33,9.41-8-1.6-41-9.35-46-29.43S956.7,798.92,956.7,798.92L849,473.4,830.59,227.68l16.26-126.76Z"/><path class="cls-12" d="M796,435.86S660.43,838.69,537.5,947.72l-42.07,10.1s183.1-275.72,190-321.3,96-276,96-276Z"/><path class="cls-6" d="M1116.94,989.74,1100,1011.38l-47.93-60.5,39.83,69.53-26.38,30.34s-11.62-10.33-30.32-31.74C972,946.53,827.76,747.1,779.63,391.59c0,0-131,411.58-284.2,566.23L476.9,926.14s44.9-44.45,62.85-77.9L470.7,916l-16.51-27.17S536.87,838.19,722.47,334c0,0,37.48-209.17,37.18-254.42l32.22-5.27,3.51,116L807.84,70.59l14.41-3.81-2.45,58.38,16.5-57.79L866,68.63S797.06,554.52,1116.94,989.74Z"/><path class="cls-9" d="M660.87,655.26a8.55,8.55,0,0,1,3.42-10.39c117.43-72.83,215.17-14.63,244.8,16.61,9.65,10.17,9.69,19,8.37,38.19L914.67,751a16.14,16.14,0,0,1-7.42,12.73l-8.74,5.61-5.63-14.23L684.15,714.45Z"/><path class="cls-14" d="M898.51,769.31l3.23-59.58c1.32-19.21,1.28-28-8.37-38.19C863.7,640.27,789.24,586,664.22,645.79a9.06,9.06,0,0,0-5.07,9.37l7.93,59.28a14.16,14.16,0,0,0,11.33,12Z"/><path class="cls-15" d="M693,701l5.41.06c26-31.12,49.58-19.81,49.58-19.81l17.55-3.14c-25.29-9.8-22.94-26.21-22.94-26.21,34.38-5.71,43.15,23.8,43.15,23.8,6.82-.95,19.79,1.19,19.79,1.19-8.15-14.89,4.2-29.64,4.2-29.64C840.64,660.56,831.4,682,831.4,682c14.17,3.3,25.6,15.13,30.09,20.38a5.36,5.36,0,0,1,.49,6.35c-2.64,4.2-7,4.06-9.65,3.44a5.33,5.33,0,0,1-2.83-1.69h0l-5.18-5.71,2.81-2.49c-10.68-16.53-17-7.77-17-7.77-11.56,36.79-47.74,33.57-47.74,33.57l-5.16-5.69,5.26-.48c2.5-22.07,27.59-35.18,27.59-35.18-3.51-2.6-23.23-2.08-23.23-2.08-1.32,34.73-33,38.1-33,38.1l-5.16-5.69,3.42-1.47c-1.38-12,8.64-28.82,8.64-28.82l-4.23.72c-30.69,32.84-61.23,19.25-61.23,19.25l-5.17-5.69Z"/><path class="cls-2" d="M856.33,696.67c-4.49-5.24-15.93-17.07-30.1-20.37,0,0,9.25-21.43-21.61-34.77,0,0-12.35,14.75-4.2,29.65,0,0-13-2.14-19.79-1.19,0,0-8.78-29.51-43.15-23.8,0,0-2.35,16.4,22.94,26.2l-17.56,3.14S717.2,666,690.2,701.05c0,0,30.54,13.58,61.24-19.25l4.22-.73s-14.63,25.56-6.89,36c0,0,31.64-3.37,33-38.1,0,0,19.73-.52,23.23,2.08,0,0-29.83,15.57-27.68,41.35,0,0,36.18,3.21,47.74-33.58,0,0,6.87-5,18.72,15.13a5.37,5.37,0,0,0,3.44,2.53c2.7.62,7,.76,9.65-3.44A5.39,5.39,0,0,0,856.33,696.67Z"/><path class="cls-9" d="M886.15,906.63l-92.37-88.1s-11-12-36.81,9.1,106.14,108.6,106.14,108.6Z"/><path class="cls-12" d="M857.33,921.23l28.82-14.6-17.27,169.78s-27.86,16-49.23,17.25S857.33,921.23,857.33,921.23Z"/><path class="cls-6" d="M861,930.09l-19.61,146.52a19.79,19.79,0,0,1-21.73,17.05l-116.48-12.58a19.78,19.78,0,0,1-17.59-17.95L672.32,911.58a26.15,26.15,0,0,1,9.49-22.51L757,827.63a18.6,18.6,0,0,1,25.57,1.92L854.45,909A26.19,26.19,0,0,1,861,930.09Z"/><path class="cls-16" d="M837,943.12l-14.66,103.64c-1.06,7.53-8.21,12.89-16.11,12.08L720,1050.06a14.27,14.27,0,0,1-13-12.68l-9.68-107.17a18.15,18.15,0,0,1,7.05-15.93l55.72-43.53A14.24,14.24,0,0,1,779,872.08l53.19,56.15A18,18,0,0,1,837,943.12Z"/><polygon class="cls-6" points="773.45 858.53 769.42 1070.41 755.88 1066.92 761.93 854.9 773.45 858.53"/><polygon class="cls-6" points="847.14 973.78 684.35 964.83 686.95 951.38 849.86 962.35 847.14 973.78"/><path class="cls-9" d="M1156.76,567.72l83.62-.9,8.07-192.13a23.54,23.54,0,0,0-20.77-24.37l-66.42-7.78s-22.16,74.38-16.91,106.87S1156.76,567.72,1156.76,567.72Z"/><path class="cls-6" d="M1156.76,567.72l4.5-225.18-39.85,5.68a22.38,22.38,0,0,0-19.21,21.22l-3,70.62Z"/><path class="cls-12" d="M1563.51,931.28l-35.37,54,41.77-9.28L1604,933S1564.68,916.71,1563.51,931.28Z"/><path class="cls-9" d="M1604,933l-40.48-1.71s-227.37-200.72-332.24-757.92l26.3,1.1a17.1,17.1,0,0,1,16.23,14.78C1284.77,270.2,1351.38,679.4,1604,933Z"/><polygon class="cls-6" points="1032.1 993.62 1014.7 1407.21 973.92 1393.08 992.3 956.09 1032.1 993.62"/><path class="cls-12" d="M1562.89,946.15s-.4,9.56-54.89-41.69c0,0,41,56,50.17,55.56S1562.89,946.15,1562.89,946.15Z"/><path class="cls-12" d="M1547.29,967.11s-25.67-19.11-28.81-23.28,23.78,29.32,23.78,29.32Z"/><polygon class="cls-7" points="537.13 1291.15 532.66 1397.4 1009.58 1559.82 1016.89 1426 537.13 1291.15"/><path class="cls-8" d="M1016.89,1426l-7.31,133.82,453.35-142.14a28.05,28.05,0,0,0,19.64-25.6l4.07-96.7Z"/><polygon class="cls-5" points="1015.29 1471.07 812.85 1519.55 462.93 1402.7 619.5 1365.77 1015.29 1471.07"/><polygon class="cls-8" points="1009.58 1559.82 808.73 1617.57 812.85 1519.55 1015.29 1471.07 1009.58 1559.82"/><path class="cls-7" d="M808.73,1617.57,470,1483.94a15.61,15.61,0,0,1-9.86-15.17l2.78-66.07,349.92,116.84Z"/><path class="cls-12" d="M565.75,1189.26l1.94-46a25.39,25.39,0,0,1,21-24l54.8-9.53h0a29.67,29.67,0,0,1,2.28,24.92l-.5,1.37-48.3,8.54,2.29,46S579.3,1196.77,565.75,1189.26Z"/><path class="cls-12" d="M696.59,1208.48l2-47.12a26,26,0,0,1,21.56-24.55l56.18-9.77h0a30.55,30.55,0,0,1,2,26.6l-.14.35-49.53,8.75,2.36,47.18S710.48,1216.17,696.59,1208.48Z"/><path class="cls-12" d="M839,1227.3l2-48.39a26.73,26.73,0,0,1,22.14-25.22l57.69-10,.18.35a35.32,35.32,0,0,1,1.7,27.33h0l-50.86,9,2.42,48.46S853.27,1235.2,839,1227.3Z"/><path class="cls-17" d="M558,1191.77s-1.67,57-10.08,68.33-89.16,75.69-11.22,139.59c0,0,41.36,30.33,77,4.6,32.73-23.65,57.58-45,27.41-107.26-3.77-7.79-13.19-22.88-18.29-29.89-7.17-9.85-16-27.44-10.78-72.14Z"/><path class="cls-18" d="M608,1186.91a5.35,5.35,0,0,1,6.53,2.23c1.27,2.3.48,5.52-8.82,8.67-17.34,5.89-49.4,2.56-52-7.58-.76-3,1.29-3.87,3.29-4.07a8.94,8.94,0,0,1,4.61.82C566.54,1189.23,584,1195.74,608,1186.91Z"/><path class="cls-19" d="M637.45,1311s-51.4-28.28-112-3.28l44.7,24.29Z"/><path class="cls-15" d="M637.45,1311s7.68,98-61.93,95.92-50.11-99.2-50.11-99.2S576.06,1333.16,637.45,1311Z"/><path class="cls-17" d="M685.5,1210.91s-1.83,62.78-11.1,75.31-98.27,83.42-12.37,153.85c0,0,45.59,33.43,84.84,5.07,36.08-26.06,63.47-49.62,30.22-118.22-4.16-8.58-14.55-25.22-20.16-32.94-7.9-10.86-17.65-30.24-11.89-79.51Z"/><path class="cls-18" d="M740.72,1205.56a5.88,5.88,0,0,1,7.19,2.46c1.4,2.53.53,6.07-9.72,9.55-19.11,6.49-54.45,2.82-57.28-8.35-.83-3.29,1.43-4.28,3.63-4.5a9.75,9.75,0,0,1,5.07.92C695,1208.11,714.23,1215.28,740.72,1205.56Z"/><path class="cls-19" d="M773.13,1342.27s-56.65-31.16-123.48-3.61l49.26,26.77Z"/><path class="cls-15" d="M773.13,1342.27s8.47,108-68.26,105.73-55.22-109.34-55.22-109.34S705.47,1366.74,773.13,1342.27Z"/><path class="cls-2" d="M637.45,1311s7.93,89.44-61.68,87.41-50.36-90.69-50.36-90.69S576.12,1331.06,637.45,1311Z"/><path class="cls-2" d="M773.13,1342.27s8.79,97-67.94,94.72-55.54-98.33-55.54-98.33S705.55,1364,773.13,1342.27Z"/><path class="cls-17" d="M826.87,1229.74s-2,68.16-12.06,81.77-106.7,90.58-13.42,167c0,0,49.49,36.31,92.11,5.52,39.18-28.31,68.92-53.89,32.82-128.36-4.52-9.33-15.8-27.39-21.89-35.77-8.58-11.8-19.17-32.84-12.91-86.34Z"/><path class="cls-18" d="M886.82,1223.93a6.39,6.39,0,0,1,7.81,2.67c1.52,2.75.58,6.59-10.54,10.37-20.76,7-59.13,3.06-62.2-9.07-.91-3.57,1.55-4.64,3.94-4.88a10.81,10.81,0,0,1,5.51,1C837.16,1226.7,858.07,1234.49,886.82,1223.93Z"/><path class="cls-19" d="M922,1372.37s-61.51-33.83-134.07-3.92l53.49,29.07Z"/><path class="cls-15" d="M922,1372.37s9.2,117.23-74.11,114.8-60-118.72-60-118.72S848.55,1398.93,922,1372.37Z"/><path class="cls-2" d="M922,1372.37s9.54,105.6-73.77,103.16-60.3-107.08-60.3-107.08S848.63,1396.08,922,1372.37Z"/><polygon class="cls-11" points="1287.18 1327.09 1189.56 1352.42 1191.59 1119.82 1253.75 1053.76 1303.15 1106.96 1288.12 1304.61 1287.18 1327.09"/><path class="cls-6" d="M1323.75,1317.11l-26.11,6.94,7.51-43.51-13.82,45.25-19.1,5.18,8.94-217a15.78,15.78,0,0,0-4-11.16l-21.53-24.34a15.83,15.83,0,0,0-23.8.09l-31.34,41.9a15.84,15.84,0,0,0-3.89,10.42l-5.05,221-23.81,6.27-6.16-25.19-2.51,27.48-19.87,5.23,6.81-258a30.21,30.21,0,0,1,7.88-19.53l64.11-70.26a30.21,30.21,0,0,1,43.23-1.43l62.36,59.83a30.24,30.24,0,0,1,9.27,23.07Z"/><path class="cls-9" d="M1333.14,1314.64l-20.34,4.95,1.62-38.66-12.83,42-20.28,5.66,9.13-214.25a15.78,15.78,0,0,0-4-11.16L1265,1078.86a15.84,15.84,0,0,0-23.8.08l-31.34,41.91a15.84,15.84,0,0,0-3.89,10.42l-5,218.21-22.82,6-7.17-22.1-2.24,24.57-20.68,5.45,7.35-255.3a30.21,30.21,0,0,1,7.88-19.53l64.11-70.26a30.22,30.22,0,0,1,43.23-1.44l62.36,59.84a30.24,30.24,0,0,1,9.27,23.07Z"/><path class="cls-10" d="M1261.81,1333.67c.48-8.73,3.49-218.22,3.49-218.22l-9.72-24.6L1249,1247.49l-5.72-13.13.68-122.84-9.26,3.72.65,201.12-9.26,3.76,0-196.14-11,6.16-5,216.6Z"/><path class="cls-11" d="M1221.39,345.61s2,35.26-6.1,53.46l-4.82-55.1Z"/><path class="cls-8" d="M1396.61,1414.5l4.36-39.44-188.46,36.79,16.52,64.53-37.35-25L1178,1507l50.61,14.09a35.67,35.67,0,0,0,24.75-2.09l171.38-80.61,2.53-23Z"/><path class="cls-11" d="M1196.42,336.8s-.22,24.15,5.88,36.33l1.53-37.8Z"/><polygon class="cls-5" points="1238.46 1430.68 1393.42 1368.45 1363.4 1361.18 1203.6 1414.84 1238.46 1430.68"/><polygon class="cls-5" points="1401.35 1401.72 1427.68 1408.59 1252.25 1483.23 1221.81 1467.14 1401.35 1401.72"/><path class="cls-20" d="M1205.36,1525.81c-21.67-30.76-8.15-47.28-11.17-55.71,0,0-24.43,25.29-13.25,46.57L1163.61,1495s3.09-30.34-19.75-49.24c0,0,14.8,65.82,3.29,69.88,0,0-2.11-24.38-14.76-29,0,0,2.37,35.43,3.88,44.55C1141.81,1564.81,1215.59,1540.38,1205.36,1525.81Z"/><path class="cls-20" d="M1437.15,1427.38s-5.84-50.85,4.11-59.37c0,0,8.19,40.76,16.48,43.8s11.75-39.31,11.75-39.31,17.1,26.71,9.1,41.33S1437.15,1427.38,1437.15,1427.38Z"/></svg>