<svg version="1.2" xmlns="http://www.w3.org/2000/svg" viewBox="0 0 512 512" width="512" height="512">
	<title>internal_suffering-svg</title>
	<style>
		.s0 { fill: #ffd93b } 
		.s1 { fill: #f4c534 } 
		.s2 { fill: #3e4347 } 
		.s3 { fill: #5a5f63 } 
	</style>
	<path id="Layer" class="s0" d="m256 512c-141.6 0-256-114.4-256-256 0-141.6 114.4-256 256-256 141.6 0 256 114.4 256 256 0 141.6-114.4 256-256 256z"/>
	<path id="Layer" class="s1" d="m512 256c0 141.4-114.6 256-256 256-80.5 0-152.3-37.1-199.3-95.3 43.9 35.5 99.9 56.7 160.7 56.7 141.4 0 256-114.5 256-256 0-60.8-21.2-116.8-56.7-160.7 58.1 47 95.3 118.8 95.3 199.3z"/>
	<g id="Layer">
		<path id="Layer" class="s2" d="m370.6 314.4c0 7.7-6.3 13.9-14 13.9h-201.3c-7.6 0-13.9-6.2-13.9-13.9 0-7.7 6.3-13.9 13.9-13.9h201.3c7.8 0 14 6.2 14 13.9z"/>
		<path id="Layer" class="s2" d="m194.5 265.2c-21.1 0-38.1-17-38.1-38.1 0-21.1 17-38.2 38.1-38.2 21.1 0 38.2 17.1 38.2 38.2 0 21.1-17.1 38.1-38.2 38.1z"/>
	</g>
	<path id="Layer" class="s3" d="m215.9 207.6c3.3 4.5 3.6 9.8 0.7 11.9-2.8 2.2-7.8 0.3-11.1-4.1-3.3-4.5-3.7-9.8-0.8-11.9 2.9-2.2 7.9-0.3 11.2 4.1z"/>
	<path id="Layer" class="s2" d="m317.4 265.2c-21.1 0-38.1-17-38.1-38.1 0-21.1 17-38.2 38.1-38.2 21.1 0 38.2 17.1 38.2 38.2 0 21.1-17.1 38.1-38.2 38.1z"/>
	<path id="Layer" class="s3" d="m338.8 207.7c3.3 4.4 3.6 9.7 0.8 11.9-2.9 2.1-7.9 0.3-11.2-4.2-3.3-4.4-3.7-9.7-0.8-11.9 2.9-2.1 7.9-0.3 11.2 4.2z"/>
	<g id="Layer">
	</g>
	<g id="Layer">
	</g>
	<g id="Layer">
	</g>
	<g id="Layer">
	</g>
	<g id="Layer">
	</g>
	<g id="Layer">
	</g>
	<g id="Layer">
	</g>
	<g id="Layer">
	</g>
	<g id="Layer">
	</g>
	<g id="Layer">
	</g>
	<g id="Layer">
	</g>
	<g id="Layer">
	</g>
	<g id="Layer">
	</g>
	<g id="Layer">
	</g>
	<g id="Layer">
	</g>
</svg>