<svg height="512pt" viewBox="-62 0 512 512" width="512pt" xmlns="http://www.w3.org/2000/svg"><path d="m134.148438 180c-41.351563 0-75-33.648438-75-75h30c0 24.8125 20.1875 45 45 45zm0 0" fill="#5a5a5a"/><path d="m254.148438 180v-30c24.816406 0 45-20.1875 45-45h30c0 41.351562-33.644532 75-75 75zm0 0" fill="#444"/><path d="m314.148438 35.398438-11.097657 12c-4.800781 5.402343-9.300781 9.902343-13.5 14.101562-11.101562 11.101562-18 17.101562-20.402343 28.5l-75 30-75-30c-2.398438-11.398438-9.300782-17.402344-20.398438-28.5-4.199219-4.199219-8.699219-8.699219-13.5-14.101562l-11.101562-12 12.902343-9.898438c2.398438-1.800781 4.5-3.902344 6.601563-6 8.097656-8.398438 19.195312-19.5 40.496094-19.5 21.300781 0 32.402343 11.101562 40.5 19.5 7.5 7.199219 11.101562 10.5 19.5 10.5 8.402343 0 12.003906-3.300781 19.503906-10.5 8.097656-8.398438 19.195312-19.5 40.496094-19.5 21.300781 0 32.402343 11.101562 40.5 19.5 2.101562 2.097656 4.199218 4.199219 6.601562 6zm0 0" fill="#b35f49"/><path d="m269.148438 90-75 30v-90c8.402343 0 12.003906-3.300781 19.503906-10.5 8.097656-8.398438 19.195312-19.5 40.496094-19.5 21.300781 0 32.402343 11.101562 40.5 19.5 2.101562 2.097656 4.199218 4.199219 6.601562 6l12.898438 9.898438-11.097657 12c-4.800781 5.402343-9.300781 9.902343-13.5 14.101562-11.101562 11.097656-18 17.101562-20.402343 28.5zm0 0" fill="#99503d"/><path d="m269.148438 90v60l-75 30-75-30v-60zm0 0" fill="#ffd400"/><path d="m269.148438 90v60l-75 30v-90zm0 0" fill="#fdbf00"/><path d="m315.949219 217c-51.597657-42.601562-44.398438-62.199219-46.800781-67h-150c-2.398438 4.5 3.902343 25.300781-46.800782 67-60.597656 50.101562-86.097656 128.398438-65.097656 199.800781 14.398438 48.898438 43.796875 78.398438 55.199219 89.5l4.5 5.699219h247.199219l9-1.5 4.503906-5.699219c9.597656-9.601562 39-39.101562 53.398437-88 21-71.402343-4.5-149.699219-65.101562-199.800781zm0 0" fill="#b35f49"/><path d="m381.046875 416.800781c-14.398437 48.898438-43.796875 78.398438-53.398437 88l-4.5 5.699219-9 1.5h-120v-362h75c2.402343 4.800781-4.796876 24.398438 46.800781 67 60.601562 50.101562 86.101562 128.398438 65.097656 199.800781zm0 0" fill="#99503d"/><path d="m239.148438 376c0 19.5-12.597657 36-30 42.300781v32.699219h-30v-32.699219c-17.398438-6.300781-30-22.800781-30-42.300781h30c0 8.398438 6.601562 15 15 15 8.402343 0 15-6.601562 15-15 0-8.402344-6.597657-15-15-15-24.898438 0-45-20.101562-45-45 0-19.5 12.601562-36 30-42.300781v-32.699219h30v32.699219c17.402343 6.300781 30 22.800781 30 42.300781h-30c0-8.402344-6.597657-15-15-15-8.398438 0-15 6.597656-15 15 0 8.398438 6.601562 15 15 15 24.902343 0 45 20.097656 45 45zm0 0" fill="#ffd400"/><g fill="#fdbf00"><path d="m239.148438 376c0 19.5-12.597657 36-30 42.300781v32.699219h-15v-60c8.402343 0 15-6.601562 15-15 0-8.402344-6.597657-15-15-15v-30c24.902343 0 45 20.097656 45 45zm0 0"/><path d="m239.148438 316h-30c0-8.402344-6.597657-15-15-15v-60h15v32.699219c17.402343 6.300781 30 22.800781 30 42.300781zm0 0"/></g></svg>