<?xml version="1.0" encoding="utf-8"?>
<!-- Generator: Adobe Illustrator 26.0.1, SVG Export Plug-In . SVG Version: 6.00 Build 0)  -->
<svg version="1.1" id="Layer_1" xmlns="http://www.w3.org/2000/svg" xmlns:xlink="http://www.w3.org/1999/xlink" x="0px" y="0px"
	 viewBox="0 0 2839 2839" style="enable-background:new 0 0 2839 2839;" xml:space="preserve">
<style type="text/css">
	.st0{fill:#AED76A;}
	.st1{fill:#77A22F;}
	.st2{fill:#AEAFB3;}
	.st3{fill:#917E08;}
	.st4{fill:#4E3E2F;}
	.st5{fill:#4E3F2F;}
	.st6{fill:#7A6047;}
	.st7{fill:#7A6048;}
	.st8{fill:#B6906D;}
	.st9{fill:#7B6148;}
	.st10{fill:#6B696A;}
	.st11{fill:#514132;}
	.st12{fill:#524233;}
	.st13{fill:#C8CBD2;}
	.st14{fill:#A28D09;}
	.st15{fill:#DADBE5;}
	.st16{fill:#CFB50C;}
	.st17{fill:#D0DCEC;}
	.st18{fill:#89A8D1;}
	.st19{fill:#F8C901;}
	.st20{fill:#FDEA26;}
	.st21{fill:#724F2D;}
	.st22{fill:#4F3F2F;}
	.st23{fill:#B6916E;}
	.st24{fill:#FDEA25;}
	.st25{fill:#F8CA03;}
	.st26{fill:#6C5642;}
	.st27{fill:#6A543F;}
	.st28{fill:#FFFFFF;}
</style>
<path class="st0" d="M1242.2,1702.8c12.8-0.7,24.3-1.3,35.7-1.9c16.1-0.9,32.2-1.9,48.3-2.9c32.2-1.9,64.5-3.9,96.7-5.7
	c21.8-1.2,43.6-2.2,65.3-3.3c38.6-1.9,77.1-4,115.7-5.7c29.9-1.3,59.9-2.1,89.8-3.4c21.5-0.9,42.9-1.4,64.4-2.1
	c27.3-0.9,54.6-1.3,81.9-2c28.8-0.8,57.6-0.8,86.5-0.9c44.1-0.1,88.2,0.2,132.4,0.4c3.7,0,7.3,0.2,11,0.6c24,2.8,46.9-3.6,70-8.2
	c24.3-4.9,48.8-8.2,73.5-10.9c39.4-4.3,79-5.5,118.6-5.7c38.5-0.2,75.8,6.5,112.6,17.4c11.7,3.4,23.2,7.3,34.8,10.9
	c3.2,1,4.9,2.3,4.6,6.3c-0.7,9,4.4,15.8,10.1,22.1c11.5,12.7,26,21.9,39.6,32c28.5,21.1,57,42.4,83.2,66.3
	c26.9,24.5,50.2,52.1,61.9,87.5c5,15.1,7.4,30.7,9,46.4c1.4,13.2,1.9,26.6,2,39.9c0.2,49.2-13.1,94.5-38.7,136.4
	c-16.8,27.4-35.7,53.1-59.2,75.1c-29.6,27.7-61.3,52.8-94.7,75.7c-49.8,34.3-103.1,61.7-160.2,81.5c-1.1,0.4-2.3,0.7-3.2,1.3
	c-24.5,16.7-52.9,24.2-80.5,33.1c-75.4,24-151.5,46.1-227.8,67.1c-25.5,7-50.4,16.1-75.7,23.5c-58.1,17.1-117.1,30.5-176.4,42.4
	c-38.6,7.7-77.5,14.2-116.5,19.7c-26.2,3.6-52.4,6.7-78.7,9.5c-32.2,3.5-64.6,6-96.9,8.6c-13.4,1.1-26.9,1.6-40.4,2.2
	c-27.8,1.2-55.6,1.5-83.4,2.5c-35.3,1.2-70.6-0.6-105.9-0.7c-22.4-0.1-44.9-1.5-67.3-2.9c-30-1.9-60.1-3.9-90.1-6.5
	c-25.5-2.2-51-4.7-76.4-7.5c-27.7-3.1-55.4-6.7-83.1-10.5c-37.2-5.2-74.3-11.2-111.2-18.2c-60.6-11.5-120.6-26-179.5-44.3
	c-75.4-23.4-148.1-53.3-218.2-89.6c-18.8-9.7-37.1-20.4-55.5-30.7c-14.2-8-29.1-14.8-43.4-22.6c-40.6-22.2-77.7-49.1-109.2-83.2
	c-23.6-25.6-41.8-54.9-54.4-87.2c-10-25.7-10.5-52.7-6.5-79.7c5.4-36.1,20-68.9,37.1-100.6c4.3-7.9,10.9-14.3,17.1-20.8
	c16-16.6,31-33.9,44.7-52.4c1.6-2.2,3.5-3.9,5.8-5.4c47.5-32,98.1-58.4,150-82.6c36.4-16.9,73.5-32.4,111-46.5
	c41-15.4,82.9-28.1,125.3-39.2c66.3-17.3,133-33.2,200.1-47.5c42.3-9,84.8-16.8,127.7-22.8c37.5-5.3,75.2-10,112.9-14
	c25.3-2.7,50.6-5,76-7.3c0.8-0.1,1.7,0,2.5,0.2c22.6,5.7,45.3,11,65.7,23c6.1,3.6,11.6,7.8,15.6,13.7c6.3,9.3,5.7,17.9-2.1,26.3
	C1244.9,1699.7,1243.9,1700.8,1242.2,1702.8z"/>
<path class="st1" d="M1404.6,2385.8c-7.7,0-15.4,0-23.1,0c-17.8-1-35.6-2.1-53.3-3.1c-16.1-0.9-32.2-1.9-48.4-2.6
	c-38.4-1.7-76.9-3.4-115.3-4.9c-25.3-1-50.6-2.4-75.8-4.4c-24.7-1.9-49.5-3.4-73.6-9.9c-14.3-3.9-28.3-8.8-39.8-18.8
	c-5.1-4.4-9.9-9.8-8.2-16.7c3.1-12.2,6.7-24.6,20-30.3c1.1-0.5,2.2-0.9,3.3-1.2c4.9-1.1,6.9,1,5.7,5.9c-0.2,0.9-0.5,1.8-1,3.4
	c6.3-1.5,12-3,17.8-4.2c11.5-2.3,23.1-2.9,34.8-3.1c37-0.6,74,0.2,111,1.2c35.5,1,70.9,2.4,106.3,4c37.4,1.7,74.8,3.8,112.2,6
	c23.9,1.4,47.8,3.1,71.7,4.9c8.5,0.6,16.9,1.9,25.3,3c4.5,0.6,8.5-0.4,12.6-2.3c18.6-8.7,36-19.5,53.7-29.8
	c35.3-20.6,71.1-40,107.4-58.6c15.2-7.8,31.1-11.2,47.9-12.3c9.1-0.6,18.2-1.7,27.3-2.4c2.1-0.2,2.8-0.7,2.4-3.1
	c-4.2-22.7,9.2-43,31.8-48.9c33-8.6,65.9-17.6,99.2-24.8c14.7-3.1,28.7-8.5,43.1-12.4c1.7-0.5,2.9-1.1,3.3-3.1
	c5.5-22.8,16.3-43.1,29.1-62.5c0.4-0.5,0.6-1.1,1.4-2.6c-8.4,1.8-16,3.5-23.7,5.2c-35.4,8-70.9,15.3-106.9,20.3
	c-19.7,2.8-39.5,3.8-59.1-1.2c-22.5-5.8-40.7-18-54.3-36.8c-2.3-3.2-4.2-3.6-7.8-2.5c-19.5,6.3-39.7,8.3-60,9.7
	c-56.6,3.8-113.3,1.1-169.9,0.5c-22.3-0.2-44.6-0.9-67-1.4c-42.3-1.1-84.6-2.5-126.8-5.8c-23.1-1.8-43.1-10.9-59.3-27.7
	c-2.3-2.4-4.6-3.7-8.1-3.8c-27-0.7-53.9-1.8-80.9-2.6c-53.6-1.6-107.2-3-160.8-6.2c-16.4-1-32.9-2.1-49.1-5.7
	c-42.5-9.3-71-45.5-69.9-88.9c1-38.5,29.1-71.6,68.8-81.3c16.6-4,33.5-5.4,50.4-6.8c36-3.1,72-6.1,108.1-8.7
	c25.9-1.9,51.9-3,77.8-4.3c114.1-5.8,228.2-4.1,342.3-5.4c76.6-0.9,153.3-2.5,229.9-4c71-1.3,142-2.2,212.9-1.3
	c28.1,0.4,56.3,1.3,83.8,8.5c20.6,5.3,38.7,15,53.5,30.5c1.6,1.7,3,2.5,5.6,1.8c8.8-2.4,17.7-4.7,26.6-6.7c3.1-0.7,3.1-1.8,1.7-4.3
	c-6.5-11.9-9.5-24.5-5.8-38c2.2-8,6.6-14.2,15.2-16.3c3-0.7,4.6-2.9,6.2-5.3c19.6-29.2,56.4-38.2,86.1-20.6
	c18.3,10.9,28,27.6,30.1,48.6c0.4,3.9,1.5,4.6,5.1,4.3c18.5-1.8,36.2,0.9,52.9,9.4c2,1,3.4,0.5,5.1-0.5
	c12.4-7.7,25.6-13.2,40.2-15.6c6.1-1,11.7-4.5,17.6-6.7c9.8-3.8,19.6-7.4,30.3-7.4c3.1,0,4.1,1,4.1,3.9c0.1,6,0.4,12-1.4,17.8
	c-1,3.2-0.1,5,2.6,7.1c25.3,19.3,35.4,50,26.9,80.6c-1.2,4.4-3.3,8.1-6.8,11.3c-16.8,15.5-32,32.6-49,47.9
	c-22.8,20.5-47.6,38-74.7,52.4c-36.8,19.6-73.1,39.9-106.5,65c-13.2,9.9-26.6,19.5-40.8,27.9c-22,13.1-39.6,31.5-58.7,48
	c-21.3,18.4-43.1,36.2-67.2,50.9c-3.9,2.4-7.7,3.9-12.2,2.9c-5.6-1.3-9.7,1-13,5.1c-7.1,8.9-16.6,14.9-26.2,20.4
	c-38.1,22-79.3,36-121.8,46.5c-30.5,7.6-61.6,11.2-92.7,14.7c-26.3,3-49.9,11.9-71.1,28c-17.9,13.6-36.7,26-55,39
	c-22,15.6-47.3,23.3-72.6,31.3c-18.3,5.7-36.8,8.5-56,8.2c-24.1-0.4-48.2,2-72.4,1.8C1408.3,2385.9,1406.4,2385.9,1404.6,2385.8z"/>
<path class="st1" d="M1001.8,2249.1c-35.5,0.4-70.9-1.1-106.2-5.1c-21-2.4-41.8-6.4-62.8-8.4c-20.6-1.9-41.1-4.1-61.7-5.5
	c-32.2-2.2-64.5-4.1-96.7-5.9c-21.8-1.2-43.6-1.9-65.3-3.3c-39.7-2.4-79.6-2.9-119-8.3c-21.5-2.9-43-7-64.3-11.7
	c-8.7-1.9-13.4-7.9-16.9-14.8c-1.5-2.9-0.3-7-1.2-10.3c-1.3-4.9,2.8-5.9,5-8.1c6.4-6.5,11.1-14.1,14.4-22.6c1-2.6,2.5-4.1,5-5
	c12.9-4.5,25.7-5.3,38.4,0.5c1.9,0.8,3.6,0.5,5.4,0.1c15.6-3.4,31.4-3.7,47.2-3.8c37.3-0.3,74.6-0.2,111.9,0.1
	c26.1,0.2,52.3,1,78.4,1.9c38.9,1.3,77.9,2.2,116.7,5.2c32.9,2.5,65.9,2.7,98.8,3.9c24,0.8,48.1,0,71.8,3.2
	c14.6,2,29.3,0.8,43.8,2.5c25,3,44,24.3,43.2,48.7c-0.9,25.2-20.6,45.1-46,46.6C1028.4,2249.9,1015.1,2248.9,1001.8,2249.1z"/>
<path class="st2" d="M882.1,1454c0-0.7,0-1.3,0-2c2.1-0.8,2-2.9,2.5-4.6c8-24.2,14.9-48.7,21.9-73.2c12.2-42.6,18.6-86,18.2-130.2
	c-0.2-19.3-0.2-38.6,0.1-57.9c0.3-25.8,0-51.6-0.4-77.5c-0.6-35.6-1.4-71.3-2.3-106.9c-0.2-6.3-0.1-12.7-0.6-19
	c-1.4-17.1-3.1-34.1-4.5-51.2c-1.8-23.1-3.7-46.1-5.1-69.2c-1.8-30.6-3.3-61.2-4.7-91.8c-0.7-15.3-0.8-30.6-1.3-46
	c-1.4-40-1.5-79.9,4.8-119.6c2.1-13.3,4.8-26.6,10.4-39c1.8-4.1,4.2-7.8,8.7-9.1c3.4-1,4.2-2.9,4.6-6.1c2.3-19.9,5.4-39.6,9.5-59.2
	c5.2-24.6,11.2-48.8,28.2-68.5c6.7-7.8,12.7-16.4,21.8-21.7c6.8-4,9.6-2.6,10.8,5.1c1,7-0.1,14-0.4,20.9
	c-1.1,21.3-2.6,42.5-8.5,63.2c-3.5,12.3-7.5,24.7-6.5,37.7c2.1,27.6,2.4,55.2,3.3,82.8c0.3,7.4,0.3,14.8,0.8,22.3
	c1-0.1,1.4,0,1.6-0.2c0.9-0.9,1.8-1.9,2.7-2.9c19-21.6,39.6-41.1,67.3-51.2c2.8-1,3.2-2.8,3.3-5.4c0.2-13.5,0.7-27,0.8-40.5
	c0-3.2,1-4.9,4.1-5.7c4.2-1.1,8.3-2.6,12.5-3.6c42.6-10.7,86-16.4,129.3-22.9c79-11.9,158-24.6,237.5-33.2
	c41.1-4.4,82.1-8.9,123.1-13.8c20.5-2.5,41.2-2.9,61.4-7.5c21.1-4.8,41.9-10.8,62.7-16.8c87.5-25.5,174.8-51.6,262.9-74.9
	c65.1-17.2,130.5-33.1,194.5-53.9c40.6-13.1,81.6-25.1,124.4-28.4c9.8-0.8,19.6-1.9,29.3,0.3c16.6,3.7,29.9,12.7,40.7,25.6
	c1.5,1.8,3,3.5,5.6,3.6c7.8,0.3,15,2.8,21.7,6.9c2.9,1.8,4.1,1,4.8-2.1c1.3-5.2,2.7-10.6,6.6-14.4c3.5-3.4,3.7-6.6,2.5-10.7
	c-1.9-6.6-3.4-13.2-5.3-19.8c-1.1-4-1.9-8.1-2-12.3c-0.2-8.7,4.9-14.1,13.6-14.4c12.1-0.5,20.2,6.3,26,15.8
	c8.8,14.5,14.7,30.3,18.7,46.7c3.8,15.6,3.8,31.7,5.4,47.6c3.3,32.5,4.6,65.1,5.5,97.7c0.8,29.6,0.9,59.3,1.2,88.9
	c0.1,14,0.3,28-0.5,42c-1.1,19.4-3.4,38.8-4.4,58.3c-2.3,46.1-2.4,92.3-2.9,138.4c-0.1,10.5-0.8,21-1.5,31.4
	c-2,27.7-4.1,55.4-3.5,83.3c0.2,10.5,0.5,21,0.8,31.5c0.7,33.8-1.2,67.6-0.8,101.5c0.2,19.2,0.5,38.3,0.9,57.5
	c0.3,19.3,0.5,38.6,1.2,57.9c0.3,7.5,0.5,15,1,22.4c1.9,31.2,3.9,62.4,6.6,93.6c2.5,28.2,5.8,56.3,9.5,84.3
	c5.2,40.1,12.8,79.8,18,120c7.7,59.3,18.9,118,32.4,176.2c9.4,40.4,20.1,80.4,27.3,121.3c1.4,7.7-0.5,11.2-8,13.9
	c-2,0.7-4,1.1-5.6,3c-5.4,6.6-12.4,11.6-18.6,17.4c-5.3,5-10.9,9.2-17.5,12.3c-26.7,12.5-51,28.9-73,48.5c-4.7,4.1-9.1,7.3-15.6,7.3
	c-6,0-12,0.7-17.9,1c-27.5,1.2-55,0.9-82.4,1.1c-15.4,0.1-31.3-0.5-46.2,5.8c-3.5,1.5-7.4,2-11.3,2.1c-19.8,0.7-39.6,1.6-59.4,2
	c-21.8,0.4-43.6,1.1-65.4,1.9c-32.3,1.2-64.6,2.2-96.9,3.3c-21,0-42.1,0-63.1,0c-6.6-0.4-13.3-0.5-19.9-1.2
	c-13.6-1.4-26-6.6-33.8-18c-4.7-6.8-9.9-9-17.7-9.7c-18.9-1.7-37.5-5-56.5-5.5c-12.9-0.4-26-1.9-38-7.5c-5.6-2.6-11.3-3.5-17.3-4.2
	c-16.1-1.8-32-4.4-46.4-12.7c-1.5-0.9-3.1-1.2-4.8-1.3c-33.3-1-66.5-2.3-99.7-5c-16.8-1.4-33.5-3.6-49.4-9.3
	c-12.9-4.6-23.7-12.1-31.5-23.5c-1.4-2.1-3-3.2-5.7-3.2c-39.3,0-78.6-1.7-117.8-4c-22.5-1.3-44.8-3.3-66.9-8.1
	c-16.7-3.6-31-11.2-40.5-26.1c-1.8-2.9-2.8-2.2-4.7-0.2c-7.6,8-16,15-25.3,21.1c-37.3,24.5-79.5,32.2-122.9,32.6
	c-41.3,0.3-76.7-16.2-106.7-44.4c-26.2-24.5-42-55.1-51.4-89.3c-0.9-3.3-2.5-5.3-5.6-7c-18.3-10.1-28.8-25.7-30.2-46.5
	c-2.2-32.7-6.9-65.2-9.8-97.9c-0.5-5.9-2.7-8.2-7.9-10c-23.4-8.1-45.9-18.2-64.2-35.5C883.7,1454.1,883,1453.7,882.1,1454z
	 M2280.2,323.5c7.1,5.6,8,5.5,14-1.4C2289.7,322.6,2285.5,323,2280.2,323.5z"/>
<path class="st3" d="M1314.4,620.9c-2.4-2-3.8-5.2-7-3.8c-2.8,1.2-2.8,4.3-3.2,6.9c-0.6,3.9-1,7.9-1.5,12.8
	c-0.8-7.1-1.4-13.1-2.2-19.2c-0.4-2.6-1.2-6.1-4-6.3c-3.2-0.2-4.2,3.4-4.8,6.2c-4,16.7-6.4,33.7-8.7,50.7c-0.4,2.9-0.9,5.9-1.6,8.7
	c-0.5-21.7-0.3-43.3,1.3-64.9c1.8-23.7,3.8-47.5,5.2-71.3c0.9-16,1.9-31.9,2.7-47.9c0.1-2.5,1.1-3.5,3.5-3.9
	c28.5-4,56.9-8.3,85.5-12.1c25.4-3.4,50.8-6.3,76.2-9.6c4.2-0.6,5.3,0.3,5,4.8c-2.8,38.5-5.3,77.1-7.8,115.7
	c-0.9,14.1-1.8,28.2-2.8,43.8c3.1-5.9,5.5-10.5,8-15.1c1.6-3.1,3.6-6,6.2-8.4c5.7-5.1,12.3-3.3,14,4.2c1.6,7.2,1.5,14.6,1.1,21.9
	c-2.3,46.9-4.7,93.8-7.4,140.7c-0.9,16-1.7,31.9-3.1,47.8c-1.8,20.7-1.7,41.5-3,62.2c-1.1,17.4-2.3,34.9-3.6,52.3
	c-0.6,8,0.5,16,0.9,23.9c1.6,33.1,3.8,66.1,5.6,99.2c1.3,24.8,2.1,49.6,3.3,74.4c1.5,31.8,3.1,63.5,4.7,95.3
	c0.8,17.5,1.5,34.9,2.3,52.4c1.2,25.9,2.5,51.9,3.7,77.8c1.1,21.4,2.1,42.9,3.3,64.3c1.4,24.4,3.1,48.8,4.6,73.3
	c1.1,18.1,2.2,36.2,3.3,54.3c1.6,25.4,2.3,50.9,4.8,76.2c4,38.8-2,75.9-15.8,112c-2.1,5.4-4.5,10.8-8.2,15.3
	c-5.8,7.2-10.9,7.3-16.8,0.3c-4.4-5.3-7.6-11.3-10.2-17.6c-3.5-8.5-6.2-17.2-8.9-25.9c-0.6-2.1-1.2-4.2-4.1-4.1
	c-3.2,0.1-6.2-2.4-9.5,1.4c-15.3,17.9-37.8,19.3-55.7,3.8c-1.1-1-2.3-2-3.6-2.6c-16-6.7-23.7-19.7-27.1-35.9
	c-3.4-16.5-4.7-33.3-5.8-50.1c-3.1-46.9-3.9-93.8-5.2-140.8c-0.9-33.1-1.2-66.3-1.8-99.4c-0.5-34.3,1.6-68.6,0.5-103
	c-2.4-70.4,2.8-140.6,3.3-210.9c0.4-53.5,0-107-1.2-160.4c-1.2-55.6-3.1-111.2-2.9-166.9c0.1-29.8,2.5-59.6,4.6-89.3
	c0.9-13.2-3.1-26-6.2-38.8c0-0.2-0.1-0.3-0.2-0.5c-1.1-1.8-2.2-4.2-4.7-3.9c-2.1,0.2-3.2,2.4-3.8,4.3
	C1315.1,617.1,1314.9,618.7,1314.4,620.9z"/>
<path class="st3" d="M1563.7,697.2c-4-30.6-3.8-60.7-3.4-90.9c0.3-24-0.4-48,0.7-72c0.3-7.3,0.7-14.6,1.5-21.9
	c0.8-8.5,3.5-16.3,9.7-22.5c15.2-15,39.9-8.6,46.7,12.1c3,9.1,3.4,18.7,4.3,28.1c1.1,12.1,2.1,24.2,3,36.3c0.2,3.2,0.7,4.9,4.2,2.6
	c1.2-0.8,2.7-1.3,4.2-1.6c8.3-1.5,16.5-2.2,24.3-6.7c6.5-3.7,14.9,0.7,20.3,7.9c6,8,7.9,17.5,9.7,27c1.2,6.4,1.8,12.8,3,19.3
	c0.7-9.5,1.5-19,1.9-28.6c2.1-50.9,4.1-101.9,6-152.8c0.1-3.1,1.2-4.2,4-5.1c15.2-4.3,30.3-8.7,45.5-13.2c6.2-1.8,6.2-1.8,6.3,4.5
	c0.7,40.7-0.3,81.3-1.3,121.9c-1.1,45.5-3.6,90.9-5.8,136.3c-1.7,34.5,1.4,68.9,2.2,103.4c0.8,34.3,2.2,68.6,3.5,102.9
	c1.2,31.6,2.3,63.2,3.7,94.9c1.3,31.1,2.7,62.2,4.5,93.3c1.8,32.3,3.9,64.5,6.3,96.7c2.6,34.7,5.6,69.4,8.5,104.1
	c1.3,15.1,3.4,30.2,3.4,45.3c0,45,5.5,89.7,7.9,134.6c3.4,61.2,5.4,122.5,4.9,183.8c-0.1,16.7,0.9,33.4-1.5,49.9
	c-2.7,18.8-13.4,32.3-31.5,38.4c-17.4,5.9-33.2,2-46.7-10.5c-2.2-2.1-3-1.9-4.7,0.5c-10.6,14.6-25.1,21.4-42.9,18.9
	c-18.3-2.6-30.2-13.7-36.9-30.6c-3-7.7-4.1-15.3-2.3-23.8c4.2-19.1,4.4-38.7,5.2-58.1c2.1-54.6,1.8-109.3,0.9-163.9
	c-0.5-32.5-1.2-65-2.8-97.4c-3.4-68.9-2.6-137.9-4.3-206.9c-0.8-32-0.6-64-0.9-96c-0.7-66.3-1.2-132.6-2.2-198.9
	c-0.8-52-1.8-104-6.8-155.7c-2.4-25.3-4.1-50.8-10.6-75.6c-1.1-4.2-2.5-8.3-5.4-11.7c-4.6-5.3-10.3-5.4-14.8,0
	c-1.3,1.6-1.9,1.8-3.3,0.3c-2.6-2.6-5.7-4.3-9.5-2.6c-3.9,1.7-3.8,5.5-3.9,9c-0.9,24-1.8,47.9-4.2,71.8
	C1564,695,1563.9,695.8,1563.7,697.2z"/>
<path class="st3" d="M2144.4,450.4c-0.4-1.6-0.8-3.1-1.2-4.7c-0.9-3.5-2.6-6.5-6.5-6.4c-3.9,0.1-5.6,3.2-6.5,6.6
	c-1.7,6.5-2.6,13.1-3.1,19.7c-6.8,80.8-8.5,161.7-7.6,242.7c0.6,53.6,2.3,107.3,3.7,160.9c1.4,51,2.6,101.9,5,152.9
	c2.1,45.5,2.5,90.9,2.9,136.4c0.2,27.3,1.1,54.6,2.1,81.9c1,28.4,2.5,56.9,4,85.3c1.5,29.4,3,58.8,5,88.2c2.2,32.9,4.2,65.8,6,98.7
	c1.5,26.4,3.3,52.8,4.9,79.2c1.7,26.9,3.3,53.8,5,80.7c2.3,36.2,4.8,72.4,7,108.6c1.7,27.4,2.9,54.9,4.5,82.3c0.2,2.8-1.3,2.4-3,2.5
	c-5.8,0.3-11.6,0.6-17.5,0.8c-36,1.1-71.9,2.1-107.9,3.3c-3.6,0.1-5.4-1.1-7-4c-5.6-10-7.2-21-8.2-32.2c-2.5-26.2-3.5-52.5-4.3-78.8
	c-1-31.5-2.1-62.9-1.7-94.4c0.4-24.5,0.8-48.9,2.6-73.4c1-13-2.9-25.7-4.3-38.6c-1.5-13.4-4.6-26.6-2.3-40.2c0.6-3.8,0.7-8,2.7-11.1
	c5.2-8,4.1-16.4,3.1-25c-2.7-24.3-5.3-48.7-7.8-73c-0.8-7.3-3.6-14.2-4.6-21.5c-0.9-6.5-1.1-13,1-19.3c4.4-13.3,16.4-21,31.1-19.5
	c3.5,0.4,4.6-0.2,4.4-3.9c-2-33.4-3.8-66.8-5.7-100.3c-1.8-32.3-3.6-64.5-5.5-96.8c-2.2-38.1-3.2-76.2-4.4-114.3
	c-0.7-24.1-0.7-48.3-0.9-72.5c-0.2-19.7-0.3-39.3-0.4-59c0-2-0.3-3.8-1.8-5.5c-7.3-8.1-10-17.9-10.2-28.5c-0.5-20.3-0.6-40.6-1.1-61
	c-1-38.6-1.8-77.3-3.2-115.9c-0.9-27-2.2-53.9-3.9-80.8c-1.9-29.7-4-59.5-6.7-89.1c-1.8-20.7-0.6-41.3,1.1-61.8
	c1.7-20.6,3-41.2,5.8-61.6c1.8-12.9,4-25.7,9.2-37.7c1.5-3.4,2.7-8.3,6.8-8.5c3.9-0.2,6.2,4.2,8.2,7.3c9,14.4,13.9,30.5,18.9,46.6
	c1.8,5.9,3.4,11.8,5,17.8c0.6,2.2,1.3,3,3.8,2c5-1.9,9.4-0.7,13.3,3c3,2.8,6.1,1.7,7.1-2.5c1.3-5,2.2-10.1,3.7-15
	c2.6-8.3,7.6-14.8,15.4-18.9c2.5-1.3,3.1-2.9,3-5.5c-0.4-17.8-0.5-35.6-1-53.5c-0.1-4.1,1.2-5.7,5.1-6.8c14.1-4,28.1-8.3,42-12.8
	c4.3-1.4,5.8-1,7,3.8c5.8,24.2,8.4,48.9,10,73.7c0.2,2.3,0.4,4.6,0.6,7c0.5,7.7,1.1,14.5-5.4,21.5c-9.5,10.3-11.7,24.8-15.4,38
	C2145.7,448.5,2146.1,449.8,2144.4,450.4z"/>
<path class="st3" d="M1100.9,1008.8c0-13.6,0.2-27.2-0.1-40.7c-0.5-24-0.6-48-0.4-72c0.4-39.2,0.9-78.3,2.6-117.4
	c1.5-35.1,3.3-70.2,5.8-105.3c2.4-32.9,4.2-65.8,6.3-98.7c1.1-17.5,2.2-34.9,3.2-52.4c0.2-4,1.4-6,5.9-6.7
	c16.9-2.5,33.8-5.5,50.7-8.5c4-0.7,5.3,0.2,5,4.4c-0.9,18-1.5,36-2.4,53.9c-0.1,2.9,0,4.5,3.5,5c3.5,0.4,5.4,3.3,6,6.6
	c0.8,4.7,1.7,9.5,1.8,14.3c0.6,50.5,1.2,101-1,151.4c-4.4,103.1-4.6,206.2-3.4,309.3c0.5,39,1.3,78,2.1,116.9
	c0.5,21.9,4.3,43.7,5.9,65.6c1.5,20.4,4,40.7,5.7,61.1c2.5,30.2,5.2,60.3,7.8,90.5c2.4,27.3,4.5,54.7,7.3,82
	c2.8,27.3,6.5,54.5,9.5,81.8c1.4,12.6,2.4,25.2,3.1,37.8c0.8,15.3,1.9,30.6,1.3,45.9c-0.8,19.1-12.2,35.3-29.8,39.2
	c-9.9,2.2-18.6,5.6-27.7,10.1c-23.9,11.7-52.3-5.4-54.5-31.8c-2.3-28.7-4.1-57.4-6.2-86.2c-1.9-26.4-4-52.8-5.6-79.2
	c-2.1-34.6-3.2-69.2-2.1-103.9c0.4-11.3,2.5-22.5,4.1-33.7c0.4-2.9,0.4-5.6-0.5-8.4c-6.7-21.5-12.8-43.1-18.2-64.9
	c-0.2-0.6-0.5-1.2-1.1-2.5c0,3.9-0.1,7.2,0,10.5c0.4,17.7,0.8,35.3-1.6,52.9c-0.5,3.8-1.6,7.5-3.3,11c-3.1,6.4-7.4,7.3-12.6,2.5
	c-5.6-5.2-9-11.9-12.1-18.8c-8.1-18.5-13.9-37.8-20.1-56.9c-16.3-49.9-23.2-101.5-29-153.3c-5.8-52.2-9.6-104.5-11.1-156.9
	c-1.4-48.7-0.3-97.3,1.6-145.9c1.7-44.3,5.1-88.5,9.7-132.5c2.5-23.5,5.5-47,8.1-70.5c0.3-2.6,1.7-4.2,3.4-5.8
	c13.1-12.6,28-22.4,45.1-28.9c3.3-1.2,4.6-2.8,4.6-6.4c0-13.3,0.6-26.6,0.7-40c0-3.1,0.8-4.7,4-5.7c10.5-3.3,21.2-5.7,31.8-8.3
	c3.4-0.8,3.1,0.6,2.8,3c-2.7,23.7-5.4,47.3-7.8,71c-2.3,23.7-4.4,47.4-6.3,71.2c-3.3,42-5.3,84.1-5.5,126.3
	c-0.2,44.2,1.6,88.2,4.8,132.3C1095,951.8,1097.6,980.3,1100.9,1008.8z"/>
<path class="st3" d="M2376.8,308c1.2,0.5,1.9,0.7,2.3,1.1c3.3,2.7,4.1,0.9,4.8-2.3c1.1-4.7,2.8-9.2,5.5-13.3
	c2.1-3.3,4.7-4.5,7.7-1.6c3.1,3,4.8,1.4,7.1-1.1c8.3-9.3,19.4-11.6,31.2-12.1c2.8-0.1,3.1,2,3.8,3.8c4.4,10.9,6.5,22.3,7.5,34
	c2.1,23.4,3.9,46.8,5.5,70.2c2.7,40.6,2.3,81.2,3.5,121.8c1.2,40.7-2,81.2-4.5,121.8c-3,48.1-2.9,96.3-3.1,144.4
	c-0.1,15.1-2,30.2-2.9,45.3c-1.6,26.1-2.8,52.2-1.8,78.4c1,25.8,0.7,51.6,0,77.4c-0.8,27.6-0.9,55.3,0.3,82.9c0.1,2.7,0.3,5.3,0.2,8
	c-0.5,23,0.5,46,1.3,68.9c1,28.2,2.8,56.5,4.9,84.7c4.1,55.2,10.6,110.2,19.7,164.8c6.6,39.2,10.9,78.6,17.4,117.8
	c9.4,56.7,20.9,112.9,35.2,168.6c7.2,27.8,12.6,56,18.3,84.1c0.8,3.9-1.9,6.2-4.2,7.1c-10.2,3.6-16.5,12-23.8,19
	c-10.1,9.6-21.9,16.2-34.1,22.3c-23.1,11.5-43.6,26.8-62.9,43.8c-3.7,3.3-7.2,5.7-12.6,5.7c-7.8,0-15.6,0.9-23.4,1.5
	c-2.9,0.2-4-0.3-3.9-3.7c1.3-42,3.2-83.9,6-125.7c0.9-13,1.7-25.9,3.1-38.8c0.2-2,0.3-3.7-2.1-4.9c-12-6-18.5-16.4-22-28.9
	c-4.2-14.9-5-30.2-5.3-45.5c-1.2-55.7,2.7-111.2,4.1-166.9c1.2-46.8,2.5-93.6,1.4-140.4c-0.9-39.3-2.1-78.6-3-117.9
	c-0.9-38.8-1.9-77.6-2.4-116.4c-0.4-30.6-0.4-61.3-0.3-92c0.3-51.7,0.3-103.3,1.3-154.9c1.9-97,4.4-193.9,6.9-290.8
	c1.1-43.6,2.8-87.3,4.6-130.9C2369.2,367.5,2372.9,338.1,2376.8,308z"/>
<path class="st4" d="M2425.9,1864.9c-10.5,9.8-19,21.4-27.6,32.8c-3,4-5.8,8.1-8.6,12.3c-1.3,2-2.6,2.5-4.9,2.1
	c-5.9-1.1-11.8-2.2-17.4-4.3c-6.2-2.4-12.5-3-19.1-3c-9.5-0.1-19-0.8-28.5-0.8c-4.5,0-6-1.8-6.5-6c-1.7-14.4-2.6-28.9-3.3-43.3
	c-1.7-32.1-3.3-64.2-4.7-96.3c-1.1-25.3-1.7-50.6-2.6-75.9c-0.8-21.8-1.7-43.6-2.4-65.4c-0.7-20.8-1.3-41.6-1.9-62.4
	c-0.8-25.5-1.5-50.9-2.2-76.4c-0.6-25.1-1.1-50.3-1.6-75.4c-0.6-30.1-1.2-60.3-1.7-90.4c-0.4-24.1-0.8-48.3-1-72.4
	c-0.5-55.1-1.1-110.3-1.4-165.4c-0.2-23.5,0-47,0.3-70.5c0.3-28.8-1.1-57.6-1.9-86.4c-0.7-23.6-1.4-47.3-1.9-70.9
	c-0.7-35.5-1.5-70.9-1.5-106.4c-0.1-42.1-0.1-84.3,1.2-126.4c0.5-16.5,1-33,1.2-49.5c0.1-4.1,1.5-5.5,5.6-5.4
	c5.2,0.1,10.3-0.6,15.5-0.5c3.5,0.1,4.1-1.3,4.1-4.4c-0.1-13.2,0-26.3,0-39.5c-0.1-37.5,1.3-74.9,3.3-112.4
	c1.4-26.9,3.3-53.8,11.7-79.7c1.8-5.6,3.8-11,7.4-15.7c5.7-7.5,13.4-9.8,22.1-6.5c2.1,0.8,3.4,0.4,5-0.6c5.8-3.3,11.8-3.4,17.7-0.3
	c4.5,2.3,7.2,5.6,6.9,11.5c-1,16.8-1.8,33.6-1.7,50.4c0.3,28.3,0.1,56.6,1.4,84.9c0.5,9.6,0.7,19.3,0.9,29c0.6,26,2.4,51.9,2.4,77.9
	c-0.3,87.1,3.1,174.2,4.3,261.3c0.9,65.1,2.8,130.3,4.5,195.4c1.3,49.5,2.9,98.9,4.5,148.4c1.6,50.6,2.8,101.3,5.1,151.8
	c3.6,80.7,5.3,161.5,6.1,242.3c0.7,69.3,2.7,138.6,5.8,207.8c1.4,30.3,2.9,60.6,4.5,90.8c0.1,1.6-0.8,3.7,1.2,5
	C2425.9,1858.9,2425.9,1861.9,2425.9,1864.9z M2329,1727.9c-1.8,1.8-0.9,4-0.8,6.4c1.7-2.2,1.9-4.4,1.6-6.7
	c0.1-5.2,0.1-10.4,0.2-15.6c1.1-0.8,1.2-2.1,0.8-3.2c-1.6-5.4-0.8-10.8-0.9-16.3c-0.1-6.4,0-12.9,0-19.3c-1.2,10-0.7,20.1-1.9,30.1
	c-0.3,2.8-1.1,5.9,0.8,8.7C2328.9,1717.2,2328.9,1722.5,2329,1727.9z"/>
<path class="st5" d="M1005.8,1212c0.9-109.5,1.9-218.9,3.3-328.4c1.3-101.6,3.9-203.2,3.4-304.9c0-8.2,0.1-16.3-0.3-24.5
	c-0.1-3.8,0.9-5.5,4.9-6.4c15.7-3.3,31.5-3.4,47.3-2.3c11.8,0.8,23.7,0.5,35.3,3.4c9,2.2,16.8,6.3,22.9,13.3c2.6,2.9,3.5,6,3.2,10
	c-4.7,57-6.9,114.1-7,171.3c-0.2,71.5,0.2,143,1.5,214.4c1.1,63.5,2.5,126.9,4.1,190.4c1.8,69.8,2.3,139.6,1.9,209.4
	c-0.4,62.1,0.5,124.3,1.1,186.4c0.4,48,0.9,96,1.9,143.9c1,52.6,1.8,105.3,4.5,157.9c0.2,3-0.7,4.9-3.3,6.6
	c-13.8,9.1-27.8,17.7-39.8,29.3c-1.3,1.3-2.9,1.4-4.6,1.4c-22-0.1-44-0.2-65.9-0.2c-1.6,0-3-0.3-4.1-1.5c-4.1-4.3-8.1-8.1-8.2-15.2
	c-1-58.3-1.3-116.6-1.9-174.9c-0.9-98-0.8-195.9-0.2-293.9C1006.1,1335.7,1005.8,1273.8,1005.8,1212z"/>
<path class="st6" d="M2254,397.4c1-11.3,1.8-21.7,2.8-32.1c0.5-5,1.2-9.9,2.1-14.8c1.9-10,7.7-14.3,17.7-12.8c2,0.3,2.7-0.2,3.3-1.8
	c1.8-5.1,4.9-9.1,10.2-10.9c2-0.7,2.3-2.3,2.6-3.9c0.8-3.6,1.6-7.2,3.2-10.5c4.8-9.6,16.7-10.5,22.7-1.6c1.3,2,2.6,3.6,4.8,4.8
	c2.9,1.6,4.3,4.6,5.4,7.6c5.1,15.3,9.1,30.9,9.1,47.3c-0.1,46,1.6,91.9,4.9,137.8c2,28.2,1.5,56.2-0.7,84.3
	c-2.6,33.5-0.4,66.9,0.1,100.4c0.9,57,1.9,114,3.2,170.9c1.5,68.1,3.1,136.3,5,204.4c1.4,50.8,3.2,101.6,4.9,152.4
	c1.6,47,2.9,93.9,5.1,140.8c3,61.3,3.2,122.6,4,183.9c0.7,56,1.9,112,4,167.9c1.9,49.1,4.5,98.2,6.9,147.3c0.5,9.5,0.9,19,1.7,28.4
	c0.7,7.8-0.7,15.2-1.8,22.8c-0.4,2.5-1.5,2.8-3.6,2.8c-29.8,0.6-59.5-1.4-89.2-2.9c-4.3-0.2-8.6-1.2-12.8-2.1
	c-4-0.8-6.1-2.2-5.8-7.7c0.3-8-1.4-16.2-2-24.3c-1.1-15-1.6-29.9-1.7-44.9c-1-92.6-2.4-185.3-3-277.9c-0.4-65.8,0.3-131.6,0.2-197.5
	c-0.1-83.6-1.9-167.3-4.3-250.9c-1.1-37.1-3.7-74.2-2.6-111.4c0.3-8.5-0.4-17-1.4-25.4c-2.6-21,0-41.9,0.5-62.9
	c1.2-47.8,0-95.6-1-143.4c-1.4-67.5-4.5-134.9-6.8-202.3c-1.1-31.6,0.3-63.3,1.5-94.9c0.5-13.5-1.3-26.9-1.7-40.4
	c-0.3-7.8-0.6-15.7,0-23.5c0.3-3.3,0.2-7,4.2-8.2C2249.5,390.8,2251.4,393.8,2254,397.4z"/>
<path class="st7" d="M1076.7,1248.6c0.6,41.8-0.7,83.6-0.5,125.5c0.5,90.5,1.4,180.9,2.6,271.4c0.6,45,1.5,89.9,2.5,134.9
	c0.7,29.1,1.9,58.3,2.9,87.4c0.3,10.5-5.8,16.1-16.5,15.7c-16.8-0.6-33.6-1-50.4-1.5c-9.5-0.3-18.7-3-28-4.6
	c-2.2-0.4-2.9-1.4-3.1-3.6c-2.4-28.4-3.5-56.9-5.1-85.3c-2.8-48.6-3.4-97.2-4.6-145.9c-0.7-31.5-1-63-1.6-94.4
	c-1.2-66,1.5-131.9,3.1-197.9c3.1-130,0.8-259.9,1-389.9c0.1-69.3,0.3-138.6,0-207.9c-0.1-30.8-2.3-61.6-5.4-92.3
	c-1.2-11.5-0.1-23,0-34.5c0.2-25,0.6-50,0.7-75c0-3.9,0.9-5.5,5.1-5.8c22.7-1.8,45.3-0.6,67.8,2.6c9.5,1.3,17.7,5.6,24.4,12.6
	c3.3,3.5,4.7,7.2,4.3,12.1c-4.8,57.3-6.9,114.7-7,172.2c-0.2,71,0.1,142,1.5,212.9C1072.2,1054.4,1074.6,1151.4,1076.7,1248.6z"/>
<path class="st4" d="M2025.9,432.3c6.5-2.1,9.3-0.8,10.9,5.9c1.1,4.5,1.7,9.2,2.1,13.8c1.5,20.4,2.6,40.9,3.1,61.3
	c0.1,5.3,1.3,10.6,1.8,15.8c1.9,17-1,33.9-1.6,50.8c-0.9,22.3-1.8,44.6-1.1,66.9c0.7,21.1,0.6,42.3,1.3,63.5
	c1.1,36.1,2.3,72.2,5.1,108.2c1.3,16.8,2.4,33.5,3.2,50.3c0.8,16.3-2.6,32.5-2.4,48.9c0.6,44,0.8,87.9,1.1,131.9
	c0.1,20.5,0.1,41,0.1,61.5c0.1,44.8,0.3,89.6,0.2,134.4c-0.1,56.1,0.1,112.3-0.1,168.4c-0.2,54-0.2,107.9-0.5,161.9
	c-0.3,49.6-0.2,99.3,0,148.9c0.1,33.8,0.4,67.6,1,101.4c0.6,37.5,1.7,74.9,2.5,112.4c0.4,21.1,0.5,42.3,0.9,63.4
	c0.7,37,1,73.9,0.8,110.9c0,7.7,0.4,15.3,0.7,23c1.5,9.3-3.3,14.8-10.5,19.9c-10.2,7.2-18.8,16.5-26.8,26.1
	c-6.7,8.1-15.2,13.8-23.9,19.4c-1.8,1.2-3.7,1.1-5.7,0.9c-23.4-2.2-46.7-5.3-70.2-6.3c-3.3-0.1-3.5-1.5-3.8-4.3
	c-6.9-60.3-2.8-120.7-2.1-181.1c1-80.1,2-160.3,3-240.4c0.9-74,2.1-147.9,2.7-221.9c0.6-81.1,0.8-162.3,0.9-243.4
	c0.1-73.3-0.2-146.6-0.5-219.9c-0.3-84.1-0.8-168.3-1.3-252.4c-0.1-13.5-1.4-27,1.3-40.4c0.9-4.5,1.1-8-1-12.4
	c-3.4-7.1,0.3-14.9,7.8-18.8c6.6-3.5,14-4.1,21.3-4.8c5.3-0.5,10.6-0.7,16-0.8c2.5,0,3.1-0.8,2.9-3.2c-2.3-22.7-4.8-45.3-6.5-68.1
	c-1.2-15.4-1.8-30.9-1.2-46.4c0.9-21.8,1.6-43.6,4.7-65.2c4.9-33.7,8.5-67.7,19.1-100.3c2.2-6.9,5.4-13.2,9.6-19.1
	c2.9-4,6.4-7.5,11.9-6.9c5.6,0.6,8,4.9,9.7,9.6c0.3,0.9,0.8,1.8,1.4,3.2C2016.1,448.9,2018.6,439.5,2025.9,432.3z"/>
<path class="st4" d="M643.3,728.1c-0.3,34.8,1.6,69.6,0.5,104.4c-1.9,61.4-3.8,122.9-5.9,184.3c-1.9,54.4-4.5,108.9-4.7,163.4
	c-0.1,51.5,0.5,102.9,0.7,154.4c0.1,43.8,0.2,87.6,0,131.4c-0.3,61.6-1.1,123.3-1.4,184.9c-0.2,39.5,0.2,78.9,0.3,118.4
	c0.1,31.5,0,63,0.4,94.4c0.5,40.6,1.4,81.3,2.2,121.9c0.5,24.8,1.2,49.6,1.8,74.4c0.1,4.5,0.3,9,0.7,13.5c0.2,2.7-0.5,4.2-3.3,5.2
	c-18.1,6.1-36.1,12.7-53,21.9c-1.7,0.9-3.4,1-5.3,0.8c-21.4-2.1-42.8-3.6-64.3-3.8c-3.9,0-5.4-1.2-5.8-5.3
	c-2.5-22.9-3.3-45.8-4.4-68.8c-2.2-44.4-3.4-88.8-3.8-133.3c-0.2-21.2-0.1-42.3-0.1-63.5c0-52.1,0-104.3,0.2-156.4
	c0.4-90.1,0.7-180.3,1.5-270.4c0.7-81.8,1.7-163.6,3.1-245.4c1.1-69,2.8-137.9,4.6-206.9c0.8-32.8,2.1-65.6,3.8-98.4
	c1.3-23.8,1.8-47.6,6-71.1c1.1-6.4,1.7-13,7.8-17.2c0.6-0.4,0.8-1.4,1.1-2.2c4.1-10.5,10.9-15.3,22.7-15.1c4.1,0.1,4.9-1.1,4.7-5
	c-1.6-30.8-3.5-61.5-3.5-92.4c0.1-29.6-0.5-59.4,5.4-88.6c2.6-13,7.4-25.2,16.6-35.3c13.6-14.9,34.3-14.5,47,1.2
	c9.6,11.9,13.9,26,16.4,40.8c3.9,22.7,4.8,45.7,5.8,68.6C642.4,664.8,643.8,696.5,643.3,728.1z"/>
<path class="st6" d="M576.2,832c-0.3,8-0.6,16.1-0.9,24.1c-0.5,1.3-0.5,2.6-0.1,3.9c-0.7,26.9-1.6,53.8-0.7,80.7
	c0.3,9.8,0.5,19.6,0.7,29.4c-0.4,1.6-0.4,3.3,0.1,4.9c0.3,12,0.6,24.1,0.9,36.1c-0.4,2-0.4,3.9,0.1,5.9c0,18.7-0.1,37.4-0.1,56.1
	c0,0.6,0,1.3,0,1.9c-0.2,6.1-0.5,12.1-0.7,18.2c-0.8,4.6-1,9.2-0.6,13.8c-0.2,0.8-0.5,1.6-0.5,2.4c-0.1,26.4-1.3,52.9-1.1,79.3
	c0.1,20.8,1.2,41.6,0.2,62.3c-0.1,2,0.2,4,0.3,5.9c-0.6,6,0.1,12,0.4,18c-0.1,8.3-0.1,16.7-0.2,25c-0.7,4.7-0.1,9.3,0.3,14
	c-0.1,10.7-0.2,21.4-0.2,32.1c-0.5,1-0.6,2,0.1,3c0,16-0.1,32-0.1,48c-0.6,1.3-0.6,2.7,0.1,4c-0.1,16.7-0.2,33.3-0.2,50
	c-0.7,6.7,0,13.3,0.3,20c-0.3,15.1-1.1,30.2-0.8,45.3c0.3,19.8-0.2,39.5-0.3,59.3c0,1.8,0.1,3.6,0.1,5.5c-0.5,5.6-0.6,11.2,0.2,16.8
	c-0.2,18.4-0.4,36.7-0.7,55.1c-0.6,5-0.4,10,0.3,15c-0.2,14.3-0.4,28.7-0.6,43c-0.3,1.7-0.4,3.4,0.2,5c-0.1,13.7-0.1,27.3-0.2,41
	c-0.3,3-0.5,6.1,0.5,9c-0.1,11-0.1,22-0.2,33c-0.7,6.3,0.2,12.6,0.4,18.9c0,6.4-0.1,12.7-0.1,19.1c-0.6,2.6-0.5,5.3,0.3,7.8
	c-0.7,18.7,0.1,37.4,0.3,56.1c-0.5,3.7,0.1,7.3,0.5,10.9c0,5,0,10.1-0.1,15.1c-0.4,2-0.6,3.9,0.3,5.8c0,7,0.1,14.1,0.1,21.1
	c0.3,9,0.5,17.9,0.8,26.9c0.1,4.4,0.2,8.7,0.4,13.1c-1,6-0.2,12,0.5,18c0,1.4,0,2.7,0,4.1c0,1.7,0,3.3,0,5c0.2,5.7,0.5,11.3,0.7,17
	c-0.8,4-0.5,8,0.4,11.9c0,1,0,2.1,0,3.1c-0.4,6-0.4,12,0.7,18c0,3,0,6,0,9c-0.7,5.3-0.5,10.6,0.3,15.9c0,2.7,0,5.4,0,8.1
	c-0.4,4.9-4.2,1.7-6.3,2.6c-1-0.1-2-0.2-3.1-0.4c-7.2-1.4-14.5-2.2-21.9-2.4c-0.9-0.1-1.9-0.3-2.8-0.4c-1.7-0.1-3.5-0.3-5.2-0.4
	c-2.6-0.8-5.3-1.1-8-0.9c-0.7,0-1.3-0.1-2-0.1c-2.6-0.8-5.3-1.1-8-0.8c-1.7-0.2-3.3-0.4-5-0.5c-2.3-0.7-4.7-0.8-7-0.5
	c-4-0.9-8-1.2-12-1.1c-3.3-0.2-6.7-0.5-10-0.7c-1.7-0.1-3.3-0.2-5-0.2c-7-1.1-14-1.1-21-1.2c-0.3,0.1-0.7,0.1-1,0.2c0-1.7,0-3.3,0-5
	c1.7-12.3,0.9-24.7,1.1-37c1.6-18.1,1.3-36.3,1.7-54.4c1.6-72.8,3.3-145.6,4-218.3c0.6-66.6,0.2-133.3-0.1-199.9
	c-0.2-50.6-0.4-101.3-0.3-151.9c0.6-212.7,1.2-425.5,0.4-638.2c-0.2-43.5-1.7-86.9-1.7-130.4c0-11.3,0.9-22.5,1.3-33.7
	c0.4-9.8,0.3-19.5,0.4-29.2c0.3-0.2,0.5-0.5,0.8-0.7c-0.3-0.1-0.5-0.2-0.8-0.2c1.2-1,1.2-2.3,1.3-3.6c0.2-11.1,1.5-22.2,0.8-33.4
	c-0.4-7.6,2.6-14.3,5.6-20.9c1.6-3.6,3.8-6.9,5.8-10.3c6.8-11.7,26.6-10.8,31.6,2.5c0.6,1.7,1.5,3.3,2.4,5.1c1.4-2.9,2.5-5.5,3.8-8
	c7.6-14.4,28.1-12.8,35.6-0.7c2.5,4,4.9,8,10.1,9.4c4.2,1.1,5.4,5.5,7,9c5.5,12.5,6.5,26.1,9.2,39.3c3.5,16.7-0.2,33.4,0.1,50
	c-0.6,2.6-0.6,5.3-0.2,7.9c-0.2,16.6-0.4,33.2-0.5,49.8c-0.1,17.4,0.5,34.9-0.4,52.3c-0.5,1-0.5,1.9-0.1,2.9
	c-1.4,15.3-1.3,30.7-1.9,46.1c-0.6,2-0.6,3.9-0.1,5.9c-0.3,9.4-0.6,18.7-0.9,28.1C575.8,830.1,575.8,831,576.2,832z"/>
<path class="st6" d="M1956.9,461.6c10.1-1.3,16.6,3.6,20.8,12.1c5.8,11.8,8,24.6,10.2,37.4c2.3,13.3,0.6,26.6,0.3,39.9
	c-2.1,75-0.5,150,0.5,224.9c0.3,23.5-1.4,46.9-1.5,70.4c-0.2,28,1.3,55.9,1.7,83.9c0.4,28.5,0.4,57,0.5,85.5
	c0.2,41,0.4,81.9,0.4,122.9c0,24.3-0.3,48.6-0.2,73c0,50,0.3,99.9,0.3,149.9c0,32.1-0.6,64.3-0.1,96.4c0.4,24.8-0.7,49.6-0.1,74.5
	c0.6,21.2-0.4,42.3-0.2,63.5c0.4,41.6-0.3,83.3-0.1,124.9c0.2,38.6,1,77.3,1.5,115.9c0.4,29.6,0.8,59.3,1.3,88.9
	c0.7,39.6,1.5,79.2,2.2,118.9c0.3,17.5,0.2,35,0.3,52.5c0.1,26.6,0.2,53.3,0.5,79.9c0.1,8.4-2.3,16-6,23.4c-2,4.1-4.6,6-9.4,5.5
	c-16.2-1.6-32.5-3-48.8-4.5c-2.6-0.2-5.3-0.4-8-0.6c-5.6-1-11.3-1.7-17-1.7c-1.6-0.2-3.2-0.4-4.9-0.5c-2.7-0.8-5.4-0.7-8.1-0.6
	c-4.2-1.3-8.6-1.3-13-1.6c-2.1-0.2-3.2-1.2-3-3.5c0.2-2.6,0.1-5.2,0.1-7.9c0.7-6.5,3.2-13.1-1.4-19.2c-0.1-0.6-0.2-1.2-0.3-1.8
	c-0.2-1.7-0.3-3.3-0.5-5c-0.2-8-0.5-16-0.7-24c0.4-2,0.4-4-0.2-6c0.1-11.3,0.1-22.7-0.7-34c0.4-1.7,0.3-3.4-0.3-5
	c-0.2-42-0.3-84-0.5-126c0-0.7-0.2-1.3-0.3-2c0.4-1.7,0.4-3.3-0.1-5c0-5.5,0-11-0.1-16.4c-0.2-52-0.5-104.1,0.2-156.1
	c0-0.8-0.1-1.6-0.2-2.5c0.5-1.7,0.5-3.3,0.1-5c0.3-11.7,0.5-23.3,0.8-35c0.5-1.6,0.6-3.3,0.2-5c0.7-5.6,0.7-11.3,0.6-17
	c0.6-2,0.8-4,0.4-6c0.7-3,0.7-6,0.5-9c0.2-1.7,0.3-3.3,0.5-5c0.7-1.3,0.6-2.6,0.4-4c0.2-2,0.5-4,0.7-6c0.2-1.3,0.3-2.7,0.5-4
	c0.9-3.7,1.4-7.5,3.2-11c1.2-6.3,0.7-12.7,0.2-19c0.4-2,0.4-4-0.1-6c0-4.7-0.1-9.3-0.1-14c0.4-3,0.4-6,0-9c0-1.7,0-3.3,0-5
	c0.4-2,0.4-4-0.1-6c0-10.3-0.1-20.7-0.1-31c0-2,0-4,0-6c-0.1-10.7-0.1-21.3-0.2-32c0.6-6-0.1-12-0.4-18c0.5-5.3,0.4-10.7-0.1-16
	c0.4-1.7,0.4-3.3-0.1-5c-0.2-20-0.3-40-0.5-60c0.6-5.7-0.1-11.3-0.4-17c0.5-7,0.5-14,0-21c0.4-2.3,0.4-4.7-0.1-7
	c0-4.7-0.1-9.3-0.1-14c0.4-3,0.4-6,0-9c0-1.3,0-2.7,0-4c0.4-2,0.4-4-0.1-6c-0.1-9-0.1-18-0.2-27c0.3-3.7,0.4-7.4-0.4-11
	c0.8-6.3,0.3-12.7-0.2-19c0.4-1.7,0.4-3.3-0.1-5c-0.1-6.7-0.1-13.3-0.2-20c0-2.7,0-5.3,0-8c-0.1-10.7-0.2-21.3-0.3-32
	c0.5-5,0.2-10-0.4-15c0.5-5.3,0.4-10.7-0.1-16c0.4-2,0.4-4-0.1-6c0.2-16,0.2-32-0.7-48c0.6-2,0.2-4-0.3-6c0.2-15.3,0.1-30.7-0.7-46
	c0.6-2,0.3-4-0.2-6c0-4-0.1-8-0.1-12c0.4-4.7,0.4-9.3-0.1-14c-0.1-10-0.2-20-0.3-30c0.4-4.4,0.4-8.7-0.3-13c0.8-6,0.3-12-0.1-18
	c0.4-2,0.3-4-0.2-6c-0.1-12.7-0.1-25.3-0.2-38c0.4-3,0.6-6,0.2-9c0.7-3,1-6,0.7-9c0.2-3.7,0.4-7.3,0.5-11c0.9-3.3,0.6-6.7,0.5-10
	c0.2-4.3,0.5-8.7,0.7-13c0.1-3,0.2-6,0.3-9c0.5-6,0.8-12,0.3-18c0.2-5.3,0.5-10.7,0.7-16c0.1-4,0.2-8,0.2-12
	c0.4-5.7,1.3-11.3,0.8-17c0.4-6,0.5-12,0.2-18c0.5-21.7,1.4-43.3,0.9-65c0-11.3,0-22.7,0.1-34c0-5,0-10,0-15c0-8-0.1-16-0.1-24
	c-0.2-9.4-0.3-18.9-1.6-28.2c-0.5-3.4,0.2-7,0-10.5c-0.6-15.2-0.9-30.4-2.3-45.5c-0.5-5.5,0-11.1-1.6-16.6c-1.5-5,0.6-9.9,3.5-13.9
	c1.7-2.4,2.1-4.6,2.1-7.3c0-11-0.1-22,0.2-32.9c0.2-6.4,2.9-12,8.9-14.7c6.3-2.8,12.7-1.9,17.9,3.1c1.2,1.1,1.9,2.7,3.3,4.6
	c2.5-7.6,3.9-13.9,7.5-19.4c3-4.6,6.6-8.1,12.3-8.8c2.2-0.3,3.5-1.3,4.1-4c2.2-10.1,4.8-20.2,10.6-29.1
	C1946.9,465.9,1951,462.6,1956.9,461.6z"/>
<path class="st8" d="M423.1,1681c0-0.3,0-0.7,0-1c1.7-1.9,3.8-3.1,6.1-4.2c11.5-5.3,24.2-7.2,36-11.8c4-1.6,8.3-2.3,12.6-3.1
	c11.4-2.1,23.2-3.1,34.3-6.2c33.2-9.2,66.7-16.9,100.5-23.8c31.3-6.4,63.5-8.1,94.2-18.4c11.8-4,24.3-5.5,36.5-8.2
	c5.6-1.2,11.4-1.2,16.9-3.3c3.3,0,6.7,0,10,0c1.1,1.8,3,1.1,4.5,1.2c15,0.7,30,1.5,44.9,1.8c64.6,0.9,129.2,3.2,193.8,5.7
	c54.6,2.1,109.2,3.6,163.8,5.4c28.3,0.9,56.6,1.8,84.9,2.7c52.4,1.7,104.9,3.6,157.3,5.1c70.1,1.9,140.2,3,210.4,3.8
	c39.7,0.4,79.3-1.3,118.9-2.4c23-0.7,46,0.7,68.9,2c19.5,1.1,38.9,2.5,58.4,3.4c4.1,0.2,5,1.7,4.9,5.4c-0.1,7.3,0.2,14.6,0.3,21.9
	c-0.3,2.6-0.8,5.3-0.9,7.9c-0.3,7,1.7,14.1-4.6,20.2c-2.7,2.5-4.6,5.9-8.2,7.5c-9.9,4.4-19.8,8.7-29.7,13.1
	c-15.6,6.8-31.1,13.6-46.7,20.3c-2.3,1-3.9,1.6-1,4.2c2.2,2,0.8,4.1-1.6,5c-2.3,0.9-4.8,1.2-7.3,1.7c-5.2,1.2-10.9-0.1-15.7,2.3
	c-17.6,9.1-35.9,11.4-55.3,7.1c-5.3-1.2-11.1-3.1-16.2-2.2c-9.3,1.6-18.6,1.2-27.9,1.5c-56.1,1.4-112.3,1.6-168.4,1.2
	c-59.1-0.4-118.3-1.5-177.4-4.4c-24.5-1.2-48.9-2.4-73.3-3.9c-28.6-1.7-57.2-3.6-85.7-5.5c-22.6-1.5-45.2-3-67.8-4.6
	c-23.3-1.6-46.5-3.8-69.8-4.4c-38.1-0.9-76.3-1.3-114.4-2.1c-108.6-2.1-217.2-4.2-325.8-6.5c-15.3-0.3-30.7,0-45.9-1.7
	c-8.5-1-15.6-5.1-17.7-13.2c-1.8-6.9-5.6-7.4-11-7.3c-3,0.1-6-0.3-9-0.4c-3.2-0.1-6.9,0.1-9-2.2c-4.7-5.1-10.1-3.6-15.7-3
	c-4.3,0.4-8.6,0.7-13,0.8c-2.5,0.1-5.4,0.2-7.1-1.6c-3.6-3.9-8.1-3.3-12.5-3.1c-4.5,0.2-9,0.5-13.5,0.2
	C426.4,1683.9,424.5,1683.1,423.1,1681z"/>
<path class="st4" d="M1764.9,2240.9c-2.9-1.1-3.7-3.1-3.7-6.3c0.3-45,1.1-89.9-0.4-134.9c-1-29.1-2.9-58.2-6-87.2
	c-0.2-2.2-0.1-4.4-3.3-4.4c-2.1,0-1.4-1.9-1.4-3.1c-0.2-22-0.2-44-0.6-65.9c-0.5-26,0-52,0.6-77.9c0.1-3.1-0.9-4.3-3.9-3.9
	c-0.2,0-0.3,0-0.5,0c-8.5-0.8-14.8-1.2-18.5,10.3c-4.3,13.6-17.4,18.7-31.5,18.5c-16.6-0.3-33.3-1.3-49.9-2.2
	c-16.8-0.8-33.6-1.8-50.4-2.6c-34.4-1.7-68.8-4-103.2-6.9c-28.5-2.4-57.1-4.5-85.6-7.1c-34.5-3.2-69-6.4-103-13.2
	c-16-3.2-31.8-7.4-47-13.4c-3-1.2-6-1.6-9.2-1.7c-89.5-0.7-178.9-1.5-268.4-2.3c-29-0.3-58-1.1-87-1.5c-3.4-0.1-5.6,0.1-4.2-4.7
	c1.4-4.8-0.5-6.7-5.5-6.9c-1,0-1.7,0.1-2.6-0.7c-5.2-4.6-9-4.8-14.6-1.1c-3.6,2.3-6.6,5.4-7.8,9.4c-1,3.2-2.5,3.9-5.7,3.9
	c-44.3-0.9-88.6-1.7-132.9-2.5c-37.8-0.7-75.6-1.7-113.4-3.3c-42.3-1.8-84.6-2.9-126.6-8.2c-8.1-1-16.1-2.7-23.9-5.1
	c-16.2-5-22.9-17.2-25-32.8c-0.4-2.6-1.2-4.6-3-6.5c-11.2-11.9-8.7-27.8,5.7-35.5c2-1.1,2.8-2.7,3.7-4.4c6.2-12,18.1-14.6,28.8-6.4
	c5,3.9,8.7,8.9,10.5,14.9c1,3.4,2.7,4.3,6,4.2c38.5-1.1,77-0.6,115.4-0.3c46.3,0.3,92.6,1.2,138.9,1.4c38.3,0.2,76.6-0.2,114.9-0.6
	c31-0.4,61.9-1.1,92.9-2c42.1-1.2,84.2-2.8,126.3-4.1c18.6-0.6,37.3-0.8,56-1c52.3-0.5,104.6,0.5,156.9,2.4
	c35.1,1.3,70.3,2.3,105.4,4c45.6,2.2,91.1,5.1,136.7,7.5c57.4,3,114.8,5.6,172.3,6.8c18.5,0.4,36.9,1.7,55.4,1.9
	c1.7,0,4.1,1.3,4.9-0.9c0.9-2.2,1.4-4.7-0.3-7.1c-4.3-6.2-5.4-13.1-4.4-20.5c0.5-3.7,2-5.6,6.1-5.4c12,0.4,23-3.2,34.1-7.9
	c25.3-10.7,49.4-24,74.4-35.3c4.7-2.1,8.8-5.1,13-8c0,7.8,0.3,15.4-0.1,22.9c-2.3,44.3-1.7,88.6-1.8,132.9
	c-0.1,14.5,0.1,29,0.1,43.5c-0.1,55.7,4.9,111.3,4.2,167c-0.4,32.7-2,65.3-3.8,97.9c-0.8,14.5-1.7,28.9-2.4,43.4
	c-0.2,3.4-1.3,5.4-4.3,7.1c-21.5,12-42.8,24.4-64.6,35.8c-1.9,1-4,1.9-5.4,0.1c-2.7-3.4-5.1-1.6-7.8-0.4
	c-7.9,3.6-15.9,7.1-23.9,10.6C1768.9,2240.9,1766.9,2240.9,1764.9,2240.9z"/>
<path class="st6" d="M1774.8,2056.8c0,50.3,0,100.6,0,150.9c0,7.8-0.3,15.7-0.6,23.5c-0.2,6.9-3.5,8.9-10,10.7
	c-5.3,1.5-10.9,0.9-16.1,3.2c-7.3,3.2-15.1,1.6-22.7,1.4c-31.1-0.8-62.3-1.5-93.4-2.8c-29.3-1.2-58.5-2.7-87.7-5.5
	c-32.6-3.1-65.3-5.6-98-8.3c-31.7-2.6-63.4-5.3-95.1-7.7c-23.1-1.7-46.2-2.9-69.3-4.5c-25.1-1.7-50.1-3.6-75.2-5.4
	c-16.6-1.2-33.2-2.1-49.8-3.2c-34.6-2.3-69.1-4.7-103.7-6.9c-17.4-1.1-34.9-2.1-52.3-3.2c-29.7-1.9-59.5-3.8-89.2-5.6
	c-8-0.5-16-0.9-23.9-1.3c-8.6-0.5-16.4-2.8-24-6.4c-5.8-2.7-12.3-2.6-18.4-4.4c-1.9-0.5-4.8,1.9-7,3.2c-5,2.9-10.1,4.2-16.1,3.7
	c-26.7-2.1-53.5-3.4-80.2-5.5c-26.7-2.1-53.5-3.5-80.1-6.4c-8.6-0.9-17.2-1.6-25.9-2.3c-2.3-0.2-4-1.2-5.6-2.8c-6-6-12.6-7.4-20-3.3
	c-6.3,3.5-12.8,4.1-19.6,3.9c-17.5-0.5-34.7-4.2-52.1-6.2c-20.8-2.4-41.7-4.5-62.6-6.8c-8.3-0.9-16.5-1.8-24.8-3
	c-7.8-1.2-15.6-0.1-23.4,0c-3.8,0-5-1.1-4.9-4.7c0.3-18.8,0.3-37.6,0.6-56.5c0.5-31,1.2-62,1.8-92.9c1-51.8,1.8-103.6,3.1-155.4
	c0.5-19.5,1.9-38.9,2.1-58.4c0-2.8,0.2-4.2,3.9-3.2c26.5,7,53.7,9.6,80.8,12.2c55.7,5.2,111.7,7,167.5,11.3
	c62.3,4.8,124.7,8.1,187.1,10.1c71.2,2.3,142.4,4.8,213.7,6c45.8,0.8,91.6,1.7,137.4,2.9c16.3,0.4,32.4,3.9,48.6,5.7
	c39.6,4.5,79.3,7.4,119,9.9c76.8,4.8,153.7,7.5,230.7,8.1c20.5,0.2,41-0.6,61.5-0.5c24.8,0.2,49.6,1,74.4,1.6
	c4.6,0.1,8.2,3.7,12.9,4c2.3,0.2,2.9,3.3,3.4,5.6c2.7,13.4,3.7,27.1,3.8,40.7c0.2,51.5,0.1,103,0.1,154.4
	C1775,2056.8,1774.9,2056.8,1774.8,2056.8z"/>
<path class="st9" d="M1652.1,1788.1c-14,0.4-28.8-1.2-43.5-2.5c-31.9-2.7-63.7-5.8-95.6-8.4c-19.3-1.6-38.5-2.7-57.8-4.1
	c-0.8-0.1-2,0.1-2.4-0.4c-6.7-7.1-15.9-5.7-24.1-6.7c-14.1-1.7-28.3-0.8-42.4-0.9c-73-0.3-145.9-4.2-218.8-6.3
	c-69.6-2-139.2-5.2-208.8-7.2c-30.3-0.9-60.6-1.8-90.9-3.8c-60.4-3.9-120.8-5.8-181.2-8.3c-61.4-2.6-122.6-8.8-184.2-9.3
	c-21.8-0.2-43.6-1.5-65.4,0.2c-2.6,0.2-3.3-0.5-3-2.9c1.2-9.4,1.3-19.1,4-28.1c2.1-7.1,5-13.9,4.6-21.5c0-0.5,0.2-1,0.4-1.4
	c1.4-2.9,16.4-4.6,17.7-1.8c2.2,4.4,5.1,4.2,9.3,3.4c11.3-2.2,22.7-0.7,33.8,1.4c21.1,4,42.3,7,63.5,10.3c5.9,0.9,12,0.7,18,0.9
	c33.1,1,66.2,3.2,99.3,5.2c38.2,2.4,76.4,5.6,114.6,7.7c25.3,1.4,50.6,1.6,75.9,2.4c38.8,1.1,77.4,5,116.2,7.5
	c22.4,1.5,44.9,3,67.3,4.6c44.7,3.3,89.4,5.7,134.2,7.4c30.1,1.2,60.3,2.6,90.4,3.2c70.3,1.4,140.6,2.4,210.9,3.7
	c38.3,0.7,76.6,0.7,115,0.3c19.8-0.2,39.6-2.2,59.4-2.3c28.8-0.2,57.7-0.7,86.2,4.6c4.6,0.8,6.1,2.6,5.6,7.2
	c-1.2,10.8-1.2,21.6-0.3,32.4c0.2,2.8-0.8,3.3-3.3,3.4c-24.5,1.2-48.7,4.9-73,7.6C1673.2,1786.9,1663.1,1787.3,1652.1,1788.1z"/>
<path class="st10" d="M1070.9,1703.9c-13.7,0-27.3,0-41,0c-0.8-1.6-2.3-0.9-3.6-1c-7.3-0.8-14.5-2-21.4-4.4
	c-19.1-6.8-26.5-21.1-20.7-40.2c0.4-0.3,0.6-0.6,0.1-0.9c-0.1,0-0.4,0.3-0.6,0.5c-2,0-3.4,1.3-4.9,2.2c-7.8,4.6-16.4,7-25.2,9.1
	c-12.9,3.2-25.9,3.8-38.9,5.6c-20,2.7-40.2,6.2-60.2,2.9c-19.7-3.2-39.6-5-59.2-8.4c-13.6-2.4-27.2-5.3-39.5-12
	c-12.5-6.8-22.6-17-33.8-25.6c-11.5-9-7.4-26.7,6.1-33c1.4-0.6,3.5-0.4,3.8-2.6c3.3,0,6.7,0,10,0c3.7,2.9,8.4,2.4,12.7,3.4
	c36.9,8.7,73.4,19.2,111.3,23.2c16.4,1.8,32.9,3.9,49.3,1.8c20.8-2.7,41-8.2,60.4-16.5c17-7.3,34.3,4.6,33,22.6
	c-0.2,3-1.2,6-1.9,9.6c6-1.4,11.7-2.1,17.5-2.1c24.8,0,49.6-0.1,74.4,0c8.7,0,17.2-0.7,25.7-2.5c6.1-1.3,12.5-1.8,18.8-2
	c12.3-0.4,20.1,5.1,24.9,16.8c0.3,0.8,0.6,1.6,1.6,1.7c0,3.3,0,6.7,0,10c-1.9,0-1.8,1.7-2.2,2.8c-1.7,4.1-4.1,7.8-7.9,10
	c-10.6,6.1-21,12.9-32.4,17.2c-11.5,4.3-23.7,7.2-36.1,9.1C1084.5,1702.1,1077.6,1701.9,1070.9,1703.9z"/>
<path class="st11" d="M836.9,1960.8c-0.1-48.8,1.2-95.9,5.3-142.8c0.6-6.3,1.3-12.6,2.8-18.7c0.4-1.4,0.8-2.9,1.5-4.2
	c1-1.8,2.5-3.4,4.6-3.3c2.2,0.1,3.4,2,4.1,3.9c1.7,4.7,1.8,9.8,2.5,14.7c0.4,2.8,1,3.9,4.3,3.2c4.5-0.9,8.5,0.7,11.5,4.5
	c0.9,1.2,1.4,1.9-0.5,3c-9.9,5.5-14.8,14.6-12.9,25.6c3,16.6,3.5,33.4,4,50.2c1.5,56.8,1.6,113.5,0.6,170.3
	c-0.5,30.6-2.1,61.2-4.6,91.7c-0.5,6.6-1.2,13.3-3.1,19.7c-0.7,2.3-1.7,4.8-4.4,4.8c-2.7,0-3.7-2.7-4.3-4.9
	c-2.4-9.7-2.9-19.7-3.7-29.7C839.6,2085.6,836.2,2022.5,836.9,1960.8z"/>
<path class="st12" d="M617.2,1797.4c1-4.7,0.9-8.8,2.7-12.5c0.7-1.5,1.6-3.3,3.5-3c1.5,0.3,2.4,1.9,2.6,3.4
	c0.6,4.5,1.1,8.9,1.3,13.4c0.7,19.5,0.9,38.9,2,58.4c2.7,49.9,1.4,99.9,1.7,149.8c0.3,37.3,0.8,74.6,1.6,111.9
	c0.3,13.3-0.3,26.6-0.6,40c-0.1,4.5-2.1,8-6.3,10c-6.1,2.9-12.7-1-13.9-8.4c-1.2-7.8-0.4-15.6-0.4-23.5
	c-0.1-85.6-1.4-171.2,0.6-256.8c0.3-12.5,2.8-25.2,1.3-37.4c-1.5-11.9-2.7-24.9-12.5-34.2c-1.6-1.5-3.2-3.5-5.4-3.4
	c-5.3,0.2-6.9-3.1-7.3-7.4c-0.4-4.7,2.2-7.9,6.3-9.8c5.7-2.6,13.4-0.8,18.3,4.2C614.3,1793.6,615.5,1795.2,617.2,1797.4z"/>
<path class="st11" d="M1094.6,1814.2c1.6-5.3,2.9-10,5.2-14.2c1.9-3.4,4.5-6,8.7-5.6c4.4,0.5,6.7,3.7,7.1,7.9
	c0.6,6.6,1.1,13.3,1.1,19.9c-0.1,21.8-1,43.6-4.2,65.2c-0.9,5.8-1,11.6-0.8,17.4c1,30.6,1.3,61.3-1.6,91.8c-0.2,2.5-0.6,5-1.1,7.4
	c-0.5,2.4-1.6,4.7-4.4,4.6c-2.8-0.1-4-2.4-4.3-4.8c-0.7-4.3-1-8.6-1.5-12.9c-0.1-1.3,0.1-2.6-1-3.7c-2.3,4.5-0.2,10.3-4.5,14.5
	c-1.4-7-0.9-13.9-1.4-20.6c-2.3-35.7-3.8-71.5-4-107.3c-0.1-8.8,0.8-17.6,1.6-26.4c0.7-7.6-8.6-21.6-16-23.2c-2.8-0.6-3.1-1.7-2-3.5
	c1.5-2.3,0.7-3.9-0.6-5.8c-2.1-3.1-2.1-6.3,0.3-9.3c2.4-2.9,5.6-3.5,9.1-2.5C1086,1804.9,1090.1,1809.4,1094.6,1814.2z"/>
<path class="st12" d="M1573.5,1867.9c-4.9,2.2-6.5-0.4-7.5-4.8c-1-4.7-4.4-7.9-8.7-9.7c-3.5-1.5-3-3.1-1-5.4
	c4.6-5.2,10.7-7.2,17.4-7.6c2.1-0.1,3.5-0.5,4.8-2.5c2.1-3.4,5.5-3.4,6.9,0.2c1.6,4.4,5.1,6.2,8.4,8.6c6.2,4.3,6.3,8.4-0.1,12.4
	c-2.4,1.5-3.1,2.8-2.8,5.5c0.9,11.4,1.5,22.9,2.5,34.3c1.1,12.5-0.1,25-1,37.4c-2.3,30-2.9,60.2-4.7,90.2c-0.3,4.1-0.7,8.3-1.2,12.4
	c-0.1,1.2,0.3,3.1-1.5,3.2c-1.8,0.2-1.7-1.8-2-2.9c-3.1-12-4.7-24.2-6.1-36.4c-3.1-28-5.1-56-6-84.1c-0.4-14.9,1-29.6,2.4-44.3
	C1573.7,1872.1,1574.3,1870.2,1573.5,1867.9z"/>
<path class="st11" d="M1353.4,1932.5c-3.3-6.2-4.5-12-5.9-17.7c-5.7-23.7-9.6-47.6-7.5-72.1c0.4-5.3,1.6-10.5,3.9-15.4
	c1.9-4.1,5-6.6,9.8-6.4c4.6,0.3,7.3,3.1,8.7,7.1c2.2,6.1,3.1,12.5,3.1,19.1c-0.1,20.7-3.2,41.1-6.7,61.4
	C1357.3,1916.2,1356.1,1924,1353.4,1932.5z"/>
<path class="st13" d="M482.1,397.1c-0.2,5.5,2.4,10.7,2.2,16.2c-0.1,1.9,1.6,1.7,3,1.5c21.7-3.4,43-0.7,64.1,4.5
	c33.2,8.1,66.4,16.5,99.7,24.1c22.6,5.2,45.5,8.9,68.4,12.7c15.7,2.6,31.3,5.6,47,8.2c17.3,2.9,34.6,5.7,52.1,7.9
	c14.3,1.7,28.5,4.4,42.8,6.4c15.6,2.3,31.2,4.5,46.8,6.4c23.2,2.9,46.6,4.2,70,5.3c17.4,0.8,34.9,1.5,52.3,1.8
	c18.6,0.4,37.2,0.8,55.8,2.1c14.6,1,29.2,0.6,43.8,1.7c24.5,1.9,49,3.2,73.6,4.3c12.8,0.6,25.6,0.8,38.3,1.6
	c27.9,1.7,55.9,1.5,83.8,2.4c21.3,0.7,42.6,0.7,63.9,0.4c21.1-0.3,42.1-1.7,63.2-2.9c14.2-0.8,28.5-1.8,42.7-3
	c16.7-1.4,33.3-3.3,50-4.8c13.4-1.2,26.8-1.9,40.2-3.3c13.3-1.4,26.6-3.3,39.9-5.3c14.1-2.1,28.3-5.5,42.4-5.1
	c21.8,0.6,42.2-6.2,63.2-9.2c26.6-3.8,52.9-8.9,79.4-13.2c19.1-3.1,38.3-6,57.5-8.8c20.2-2.9,40.4-5.4,60.6-8.3
	c28-4.1,56.2-7.2,84-12.6c5.7-1.1,11.5-2.1,17.1,0.6c10.2,5.1,11,19.7,1.1,25.9c-11.7,7.3-23.9,13.8-35.3,21.6
	c-4.3,3-7.7,6.5-10.7,10.8c-10.1,15-14.1,32.1-16.9,49.5c-3.7,22.6-4.7,45.5-6.8,68.2c-0.9,10.1-0.9,20.2-1.3,30.4
	c-0.1,1.7-0.1,3.3-0.3,5c-0.3,2.7-1.4,3.6-4.2,2.2c-8.2-4-16.6-7.6-24.9-11.6c-10.6-5.2-21.3-10.3-32.8-13.3
	c-10.5-2.7-17.5-10.6-25.8-16.5c-1.4-1-2.7-2-3.9-3c-7.5-6.4-5.9-5.5-12.9,0.3c-23.1,19.2-44.1,40.5-65.1,61.9
	c-0.6,0.6-1.2,1.1-1.7,1.8c-7.4,9.4-6.3,7.3-14.4,2.1c-19.7-12.6-38.6-26.7-59.8-37c-5.7-2.8-11.5-5.3-17.6-6.9
	c-5.1-1.4-9.8-3.3-13.9-7.2c-5.4-5.3-16.9-4.7-24.8,0.5c-6.8,4.5-13.3,9.5-19.9,14.2c-22.7,16.2-45.8,31.9-67.9,49
	c-3.2,2.4-6.2,5-9.3,7.6c-3.1,2.7-5.7,2.6-9.3,0.4c-27.4-16.4-54.8-32.7-83.3-47.3c-11.1-5.7-22.5-10.6-35.1-12.2
	c-7.2-0.9-13.3,1.8-16.1,8.5c-0.9,2.2-2.5,3.5-4.3,4.7c-28.3,19-56.6,38-84.9,57c-6.5,4.3-15.5,3.6-20.6-2.2
	c-6.7-7.5-15.8-11-24.3-15.4c-31.8-16.4-64-31.9-97.4-45c-7.5-2.9-14.6-3.2-22.2-0.7c-24.6,7.9-48.2,18.3-72.2,27.6
	c-15.7,6.1-31.2,12.5-46.2,20.1c-0.7,0.4-1.6,0.6-2.2,1.2c-7.3,7.4-13.9,3.9-20.8-0.9c-9-6.3-17.3-13.4-25.8-20.4
	c-14.5-11.9-29.4-23.4-42.5-37c-3.5-3.6-6.6-7.5-10.1-11c-4.5-4.5-10.1-6.3-16.5-7.2c-13.8-1.9-25.3,4.6-37.1,9.5
	c-21.6,8.9-44,15.2-66.3,21.6c-5.1,1.5-10.2,2.9-15.3,4.5c-2.4,0.8-4.3,0.3-6.1-1.1c-25.4-19.3-52.1-36.9-77.8-55.7
	c-11.4-8.4-22.9-8.9-35.6-3.8c-24.4,9.8-48.8,19.4-72.4,31.1c-7.9,3.9-15.7,8.1-23.3,12.5c-3.2,1.9-5.1,0.3-7-1.4
	c-8.9-7.4-17.7-15.1-26.7-22.5c-14.4-12-27.8-25.2-43.9-35.2c-1.4-0.9-2.5-2.2-3.7-3.3c-8.5-8-19-9.7-29.5-4.7
	c-5.9,2.8-11.5,5.9-16.4,10.3c-3.1,2.8-7.1,3.8-10.8,5.1c-13.8,4.9-27.6,9.7-41,15.6c-0.4,0.2-0.9,0.1-1.9,0.2
	c2.1-9.1,4.1-17.9,6.2-26.7c6.8-27.7,11.6-55.8,15.9-84c1-6.7,1.9-13.4,3-20.1c0.5-3.3,1.6-6.3,3.5-9.2
	c10.8-16.8,22.8-32.7,37.1-46.8c1-1,2.4-1.9,2.3-3.7C480.8,397.1,481.4,397.1,482.1,397.1z"/>
<path class="st14" d="M1783.3,462.6c9.7-1.7,19.3-3.4,29-4.8c18.9-2.7,37.8-5.9,56.8-8.3c19.1-2.5,38-5.8,57.1-8.3
	c19.1-2.5,38.3-5.2,57.4-8c3.2-0.5,5,0.2,6.1,3.4c1.7,4.9,3.1,9.8,3.4,15c0.2,3.8,1.5,6.5,5.2,8.2c3.2,1.4,5.9,3.7,9,5.4
	c2.4,1.4,2.2,2.5,0,3.8c-2.3,1.4-4.4,3.1-6.7,4.3c-15.2,8-22,22.3-26.8,37.5c-6,19.3-8.1,39.4-9.7,59.5c-1.9,23.2-3.8,46.5-4.5,69.8
	c-0.1,3.4-0.8,4.4-4.3,2.8c-13.2-6.3-26.5-12.5-39.8-18.5c-4.7-2.1-9.5-4.3-14.5-5.4c-14.1-3.1-23.4-13.6-34.1-21.8
	c-4.2-3.3-6.4-3.3-10.5,0.2c-25.3,21.5-49,44.6-71.5,69c-2.4,2.6-4,2.9-7,0.9c-8.6-6-17.4-11.7-26.2-17.4c-1.7-1.1-2.6-2.4-2.7-4.4
	c-3.6-52.7-5.8-105.4,5-157.7c1.4-6.7,1.7-14.4,5.8-19.4c4.3-5.2,12.7-3.3,19.2-5C1780.3,462.9,1781.8,462.8,1783.3,462.6z"/>
<path class="st14" d="M1420.5,628.2c0-12.5-0.3-24.6,0.1-36.7c0.6-19.1,1.5-38.3,2.8-57.4c0.6-9.8,4.5-19.1,4.9-28.9
	c0.1-2.3,2-2.3,3.7-2.4c23.6-1.2,47.2-2.6,70.7-4.7c25.8-2.3,51.7-4.8,77.5-6.8c22.1-1.7,43.9-5.9,65.8-8.7c3.2-0.4,4,0.5,4.4,3.4
	c1,7.2,0.7,14.3,0,21.4c-2.1,23.7-3.6,47.4-6.3,71.1c-1.9,17.1-6.7,33.6-10.2,50.3c-0.4,2-1.8,3.1-3.3,4.2
	c-24.2,17.3-49.1,33.8-72,53c-2.3,2-3.8,0.9-5.7-0.3c-26.2-15.5-52.4-31.1-79.4-45.3c-12.7-6.7-25.5-13-40-15
	C1428.9,624.9,1424.5,625.5,1420.5,628.2z"/>
<path class="st14" d="M1105.4,494.8c35.9,2.1,69.2,4.2,102.5,5.9c26,1.3,51.9,2.2,77.9,2.9c5.2,0.1,5.8,1.8,5.3,6.4
	c-3.3,28.6-7.9,57-13.6,85.2c-0.9,4.3-0.6,8.6-0.4,12.9c1.1,21.1,2,42.2,3.2,63.3c0.2,4.5-0.8,5-4.8,3
	c-29.1-15.1-58.8-29.1-89.3-41.1c-8.2-3.2-15.9-3.4-24.3-0.6c-31.5,10.5-61.8,23.8-92.6,35.9c-5.5,2.2-5.5,2.3-5-3.5
	c3.9-44.1,7.9-88.2,11.9-132.3c0.5-5,1.1-9.9,2-14.8c1.1-5.8,3.8-10.9,7.5-15.6C1091.6,495,1099.4,493.7,1105.4,494.8z"/>
<path class="st14" d="M727.8,575.6c-2.2-33.9,9.1-65.8,20.3-97.7c1.3-3.8,3.9-6.6,7.7-8c2.5-0.9,5.1-1.2,5.8-4.6
	c0.4-2,2.4-1.4,3.8-1.2c29.2,5,58.6,8.8,87.9,13.1c33.9,5.1,67.8,10.5,102.1,11.8c7.3,0.3,7.4,0.8,6.2,7.9
	c-2.6,16.5-7.7,32.3-14.1,47.7c-0.8,1.8-1.5,3.8-1.5,5.7c-0.1,18.1-5,35.5-7.5,53.3c-0.4,3.1-1.5,3-4.2,2.3
	c-9.9-2.4-19.7-2.6-29.3,1.8c-26.3,11.8-54.1,19.4-81.5,28.4c-13.3,4.4-22.7,3.2-33.7-5.7c-17.6-14.2-36.6-26.7-55.3-39.3
	C728.7,587.4,724.9,583.6,727.8,575.6z"/>
<path class="st14" d="M412,588.3c3.4-14.6,6.8-28.5,9.8-42.4c6.3-29.3,11.3-58.8,15.4-88.5c0.5-3.7,1.7-7,3.8-10.2
	c6.1-9.4,12.5-18.5,19.5-27.2c4.7-5.8,5-6.3,11.3-2.1c4.3,2.8,6.8,2.4,10.4-0.9c3.8-3.5,9.4-2.8,14.3-3.2c24.9-2.3,48.6,4,72.4,9.6
	c21.2,5,42.3,10.7,63.5,15.7c4.1,1,4.1,3.3,3.3,6.2c-2.4,9.2-5.1,18.3-7.5,27.4c-9.6,35.9-16,72.4-22.2,109c-2,11.8-4.5,23.5-7,35.2
	c-1.4,6.4-8.6,8.9-13.6,4.8c-19.4-16.2-38.7-32.6-58.1-48.9c-6.2-5.3-13.3-9.4-19.5-14.7c-6-5.1-13.3-5.8-20.8-3.5
	c-6.3,1.9-12.2,4.7-17.2,8.9c-4.5,3.9-9.6,6.4-15.2,8.3C440.6,576.8,426.5,581.8,412,588.3z"/>
<path class="st15" d="M461.1,417c0-0.7,0-1.3,0-2c0.8-1,1.6-2.1,2.5-3c12.4-12.3,24.2-25.3,37.7-36.5c7.9-6.5,15.7-13,25.8-16.7
	c26.7-9.7,52.9-21,81-26.4c21-4,41.9-8.7,63.3-10.3c17.5-1.4,35-2.8,52.5-4.9c26.9-3.2,52.9-9.6,78.4-18.5
	c33.9-11.8,64.7-29.6,93.8-50.3c21.1-15.1,41.8-30.8,64.2-43.9c26.2-15.4,53-29,84.4-30.9c15.2-0.9,30.2-0.2,45.2,1.9
	c22.8,3.2,44.7,10.5,66.4,17.8c28.7,9.7,57.6,18.8,86.6,27.3c42.9,12.7,86.5,22.7,130.2,31.9c46.6,9.8,93.3,19.4,140.4,26.7
	c27.9,4.3,55.8,7.9,83.9,10.5c22.1,2.1,44.4,3.7,66.6,4c32.3,0.4,64.5,0.8,96.8-1.4c23-1.6,46-3,69-5.3c17.2-1.7,34.4-3.1,51.5-5.2
	c24.2-3,48.3-6.4,72.4-9.9c25.1-3.7,50.3-7.2,74.9-13.9c14.4-3.9,28.7-8.5,43.2-12c18.1-4.4,36.6-6.5,54.9-9.3
	c23.1-3.4,46.1-7.8,69.2-11.6c36-6,71.7-13.7,107.6-20.7c19.7-3.8,39.1-9.6,59.5-8.4c1.3,0.1,2.6-0.3,3.9-0.5
	c12.4-2,24.8-2.3,37.2-0.4c4,0.6,7.5,3.3,12,2.5c12.1-2.4,24.5,3.2,30.8,13.8c1.9,3.2,4.4,5.7,7.3,8c4.2,3.5,9.2,6.7,11.1,12
	c3.1,8.7,5.3,17.8,6.7,27c1.2,8.1,0.8,16.2,1.4,24.3c1,13.8,0.9,27.6-0.1,41.4c-0.7,9.6-2.6,19.1-3.2,28.6
	c-0.9,15.3-2.7,30.5-7.2,45.1c-2.4,7.9-5.1,15.6-4.1,24.1c0.2,1.3,0.6,3.5-1.4,3.7c-2.3,0.3-2.3-1.9-2.7-3.5
	c-1.9-9.1-2.9-18.3-3.9-27.6c-0.8-7.8,0.6-16-1.4-23.3c-7.5-26.9-12.2-55.2-34.5-75.7c-3.3-3-4.6-2.6-7.3-1.4
	c-2.6,1.2-5.1,2.5-7.4,4.1c-17.8,11.9-33.2,26.6-48,41.9c-11.2,11.6-22.6,23-35.4,32.9c-22.2,17.1-46.1,31.6-70.1,45.9
	c-10.1,6.1-19.7,13.2-30.7,17.6c-22.3,8.9-45.3,15.3-69,19.3c-14.1,2.4-28.3,3.9-42.4,5.5c-15.5,1.8-31,3.4-46.5,4.6
	c-10.2,0.8-20.5,2.1-30.7,2.6c-12.8,0.6-25.6,0.7-38.4-0.1c-7.2-0.4-13.9-3.5-20.9-4.2c-15.8-1.6-31.7-2.9-47.6-4.2
	c-18.1-1.5-36.3,0.2-54.4,1c-19.7,0.9-39.4,2.5-59.1,3.9c-9.1,0.7-18.2,1.3-27.2,2.6c-13.3,1.8-26.5,4.2-39.8,6.3
	c-22.4,3.5-44.9,6.7-67.4,10.4c-19.5,3.2-39.1,5.6-58.7,7.5c-16.3,1.6-32.7,2.9-49.1,4c-22.7,1.5-45.4,2.9-68.1,4
	c-16.7,0.9-33.5,1.8-50.2,2.9c-19.7,1.2-39.5,2-59.2,3c-18.9,0.9-37.9,1.3-56.8,2.1c-17.4,0.8-34.9,0.8-52.4,1.1
	c-1.3-1.3-2.7-1.3-4,0c-45.7,1.6-91.3-0.1-137,0c-3-1.6-6-1.5-9-0.1c-13.7-0.3-27.3-0.6-41-1c-2.7-1.5-5.3-1.5-8,0
	c-13.7-0.3-27.3-0.6-41-1c-1-1.2-2-1.2-3,0c-3.4,0.3-6.6-0.8-9.9-0.9c-24.8-0.2-49.4-2.6-74-5.1c-20.6-2.1-41.2-4.4-61.7-7.2
	c-23-3.2-45.9-6.9-68.8-10.9c-46.1-8.1-92-17.3-137.7-27.6c-46.6-10.5-93.2-21.3-140.4-29.2c-24.6-4.1-49.2-8.4-74.2-4.9
	C464.1,421.7,461.9,421.1,461.1,417z"/>
<path class="st16" d="M1505.2,279.2c-9.9,3.9-19.7,7.9-29.7,11.6c-32.6,12-64.6,25.9-98.2,35.2c-26,7.2-52.2,13.5-78.4,19.8
	c-6.7,1.6-12.1,5.5-17.7,8.9c-26.7,16.1-51.8,34.6-77.3,52.5c-33.5,23.5-70.1,41-107.3,57.5c-33.7,14.9-68.4,27-103.7,37.7
	c-7.8,2.4-15.6,0.8-23.3,0.2c-28.2-2.1-56.3-5.9-84.3-9.8c-38.7-5.4-77.2-11.9-115.6-19.7c-1.3-0.3-3.1,0-3.5-1.4
	c-0.4-1.4,1.2-2.2,2.1-3.1c4-3.9,8.8-6.6,14.1-8.3c18.1-5.7,36.1-11.6,54.4-16.8c8.1-2.3,16.8-1.7,25.2-3.1
	c22.6-3.7,44.5-10,66.1-17.1c71.9-23.7,140.5-54.7,205.2-94.3c21.8-13.3,41.7-29.3,63.1-43.1c31.2-20.1,63.8-37.4,99.6-48
	c3.2-0.9,6.1-0.9,9.3-0.2c60.8,14.6,122.1,26.9,183.6,38.2c5.4,1,10.8,1.6,16.2,2.5C1505.2,278.5,1505.2,278.9,1505.2,279.2z"/>
<path class="st16" d="M1180.6,202.2c-6.8,5.1-14.1,6.3-21.3,6.6c-26.2,1.2-50.4,10.2-74.3,19.9c-26.1,10.6-47.3,27.9-67.7,47
	c-52.1,48.7-112.2,83.6-180.3,105.1c-22.4,7.1-44.9,13.6-67.7,19.3c-24.2,6.1-47.2,16-70.8,24.3c-16.8,5.9-33.4,12.3-50,18.7
	c-4.5,1.7-8.7,2.2-13.6,1.1c-35.3-8.1-70.9-15.4-106.7-20.8c-17.6-2.6-35.2-5.5-53.2-3.5c-3.5,0.4-6.9,0.8-10.3,1.5
	c-1.9,0.4-2.5-0.3-2.5-1.9c-0.1-3.3,0-6.2,2.8-9c15.4-15.4,30.5-31.2,48.1-44.3c6.5-4.8,14-6.7,21.2-9.8c38-16.7,78.1-26,119-32.2
	c12.6-1.9,25.5-2.5,38.3-3.3c74.9-4.7,143.4-27,204.1-71.9c22.9-16.9,46-33.6,70.7-47.8c19.2-11.1,39.1-20.9,61.1-25.1
	c30.1-5.8,59.7-2.3,88.9,5.3c20.9,5.5,41.4,12.5,61.8,19.6C1178.8,201.2,1179.3,201.5,1180.6,202.2z M1015.1,226.7
	c4.9,0.2,13.5-2.7,17.3-5.7C1026.1,221.5,1021,224.1,1015.1,226.7z"/>
<path class="st16" d="M1098,507c11.6-3.7,23.3-7.4,34.9-11c62-19.4,123.6-39.9,183.4-65.3c57.1-24.3,109.6-56,158.7-93.9
	c20-15.4,37.9-33.1,57.1-49.3c3.3-2.8,6.1-4.5,10.9-3.8c29.3,4.3,58.8,7,88.4,8.8c17.3,1.1,34.6,2,51.9,1.7
	c17.7-0.3,35.3,0.2,53-0.5c19.8-0.8,39.6-1.4,59.3-3.6c2.9-0.3,5.8,0,8.8,0c0.2,1.4-0.8,1.6-1.5,1.9c-51,24.3-101.7,49.1-153.3,71.9
	c-26.2,11.6-53.3,21-80.1,31.1c-2.2,0.8-4.3,1.7-6.2,3.1c-39.4,29.9-82.8,52.7-128.3,71.7c-30.3,12.7-61,24.1-92,34.8
	c-6.5,2.2-13.1,2.6-19.7,2.8c-64.5,1.8-129,1.8-193.4,1c-10.6-0.1-21.2,0-31.8,0C1098.1,508.1,1098.1,507.6,1098,507z"/>
<path class="st16" d="M2195.5,226c-13.7,10.5-26,20.5-40.2,27.6c-58.1,29.1-113.7,62.7-170.6,94.1c-74.2,40.9-153.2,70.8-233.9,96.1
	c-23.3,7.3-44.3,18.4-64.3,31.5c-12.2,8-25.2,11.2-39.2,12.8c-43.2,4.9-86.5,7.8-129.9,10.1c-25.4,1.4-50.8,3-76.4,4.1
	c5.2-4,10.3-8.2,16.7-10.2c34.4-10.7,68-23.2,100.5-38.7c30.7-14.6,62.9-25.4,94.3-38.4c86-35.6,169-77.1,248.9-124.7
	c23.6-14.1,23.5-14.5,51.4-17.9c40.1-4.8,79.1-14.2,117.8-25.7c15.5-4.6,31.7-5.8,47.6-8.5c24.1-4,48.2-7.9,72.3-11.8
	C2191.7,226.1,2192.9,226.1,2195.5,226z"/>
<path class="st16" d="M1840.9,461.3c23.7-5.7,46.6-12.3,69.5-19.1c51.1-15.3,100.2-35.3,147.8-59c50.1-25,97.2-54.8,139.2-92.1
	c31.5-27.9,67-48.3,107.2-61.2c32.8-10.5,65.3-22,99.3-28.2c7.4-1.3,14.8-2.4,22.2-3.5c6.3-0.9,10.7,2.8,14.9,6.7
	c10,9.3,9.9,10.3-1.3,17.1c-29.3,17.9-55.2,40.1-81.4,62.1c-23.9,20.1-46.2,41.8-67.2,64.9c-18.8,20.7-42,35.1-66.3,48.1
	c-37,19.8-77.3,29.5-117.2,40.7c-36.5,10.2-73.7,18.1-109.8,30.1c-7,2.3-14.8,0.7-21.6-1.6c-6.3-2.1-12.7-2.6-19.1-3
	c-13.8-0.8-27.5-2.9-41.2-3.8c-11.4-0.7-23,0.4-34.4,0.9c-12.9,0.6-25.8,1.6-38.8,2.4C1842.3,462.8,1841.8,462,1840.9,461.3z"/>
<path class="st17" d="M714.1,1575.9c0-2,0-4,0-6c2.5-0.4,1.9-2.3,2-3.9c0.8-8.8,1.4-17.5,2.3-26.3c1.2-12.4,2.5-24.7,3.7-37.1
	c0.8-8.9,1.3-17.9,2.3-26.8c1.4-12.7,3.3-25.3,4.6-38c1.8-16.5,2.9-33,6.1-49.3c4.7-24,15.5-44.3,35.8-59
	c13.4-9.7,28.3-16.2,43.8-21.2c3.7-1.2,5.1-2.5,2.9-6.3c-1.4-2.4-2-5.3-3.1-7.9c-7-17.1-8.7-35.4-11.3-53.4
	c-2.1-14.1,10-24.7,23.9-22.2c4.6,0.8,9.2,1.4,13.8,1.5c23.1,0.3,46.2,0.8,69.1-3.7c2.3-0.5,4.7-1.3,7.3-0.1
	c8.9,4,15.4,15.7,13.1,25.2c-5,20.2-13.5,39.3-19.6,59.1c-1.9,6.1-2.2,5.8,3.8,7.5c21.7,6.3,39.7,18.4,53.9,35.9
	c6.9,8.5,9.9,19.1,14.5,28.9c2.6,5.5,5.1,11.2,6.1,17.4c2.4,14.8,3.5,29.6,4.8,44.5c1.8,21.6,5.7,43,7.4,64.7
	c1.3,17.2,3.3,34.3,3.8,51.6c0.1,4.6,0.5,9.3,1.5,13.8c3.2,14.4,3.9,29,3.4,43.6c-0.4,11.4-6.9,20.2-16.4,22.5
	c-7.3,1.8-13.6,6-19.7,10.1c-3.6,2.4-7.1,4.9-11.2,6.3c-17.3,6-35.3,7.8-53.4,8.6c-16.9,0.8-33.8-0.8-50.8-1.7
	c-16.7-0.9-33.5-0.2-50.3-2c-17.7-2-35.2-4.7-52.3-9.5c-8.3-2.4-16.4-5.7-23.7-10.3c-10.1-6.3-11.8-17.9-17-27.3c0-7.7,0-15.3,0-23
	C714,1580.1,717.7,1577.4,714.1,1575.9z"/>
<path class="st18" d="M823,1217.1c2.8,1.7,6,1.4,9,1.9c1.6,0.3,3.1,0.2,2.6,2.5c-1.3,6-0.2,11.9,0.3,17.9
	c1.2,14.3,0.9,28.6,0.2,42.9c-0.3,6.3,0.8,12.6,1.6,18.9c0.4,2.7,1.4,3.7,4.1,3.8c11,0.5,21.6,3.6,32.5,4.7
	c12.2,1.2,24.5,2.8,36.5-1.6c1.6-0.6,3.1-0.7,4.8-0.1c3.3,1.2,6.7,2,9.9,3.3c8.5,3.3,9.9,7.2,4.5,14.9c-6.6,9.5-15.7,16.3-25.8,21.6
	c-17.5,9.2-36,11.2-55.2,7c-3-0.7-4.5-0.3-5.9,2.5c-3.3,6.8-7.9,12.8-13.3,18c-22.3,21.5-37,47.7-48.8,75.9
	c-6.5,15.5-12.4,31.2-18.8,46.7c-3.7,8.9-5.2,18.1-4.8,27.3c0.7,15.4-4.6,29.5-7.8,44c-3.6,16.8-6,33.7-7.6,50.7
	c-0.4,4.7,0.3,9.3,0.9,13.9c0.4,3-0.7,3.6-3.4,2.3c-8.1-4.1-14.8-9.1-17.6-18.6c-1.4-4.8-4.6-9.1-6.9-13.6c0-8,0-16,0-24
	c2.1-1.9,1.7-4.5,1.9-6.9c0.8-11.4,1.3-22.9,2.4-34.3c2.8-29.1,5.5-58.2,8.9-87.2c2.4-21.1,3.6-42.3,7.9-63.2
	c5.5-27.2,18.7-49.2,43-63.7c11.8-7.1,24.2-12.5,37.3-16.5c3-0.9,3.8-1.7,2.4-5.1c-4.2-10.6-7.9-21.5-10.1-32.8
	c-1.6-8.3-2.1-16.8-3.9-25.1c-2.2-10.5,0.4-18.5,9.1-24.9c1.2-0.9,2.7-1.4,3.1-3.1C818.4,1217.1,820.7,1217.1,823,1217.1z"/>
<path class="st19" d="M749.1,1559c0-2.3,0-4.7,0-7c2.1-1,1.1-2.9,1.2-4.4c0.5-9,0.6-18,1.3-26.9c2.9-40.7,6.8-81.2,15.3-121.2
	c1.6-7.6,3.5-15.2,9.3-19.8c6.2-4.8,11.3-11.2,18.7-14.4c2.1-0.9,4.2-2,6.5-2.6c16.1-4.3,31.9-9.5,48.4-12.2
	c20.4-3.3,40.6-4.8,60.9,0.8c30.7,8.4,50.1,27.2,55,59.4c0.6,3.8,1.2,7.6,2,11.3c7.9,35.4,12.8,71.3,16.6,107.4
	c2,19.4,3.1,38.8,4.4,58.2c1.1,16.7-2.8,24.5-17.7,32.2c-6.4,3.3-13.9,4.1-20.1,7.3c-14.4,7.6-29.8,8.9-45.4,10
	c-19,1.4-37.9,0.1-56.8-2.2c-9.8-1.2-19.7-0.1-29.4-1.5c-18.6-2.7-36-9.4-53.4-16c-2-0.7-3.2-2.2-4.6-3.6
	c-7.3-7.4-8.9-17.3-11.5-26.7c0.1-7.2,0.2-14.3,0.1-21.5C749.9,1563.3,751.2,1560.9,749.1,1559z M811,1537.3
	c-2,14.2-3.2,13,8.1,14.2C816.4,1546.9,813.9,1542.5,811,1537.3z"/>
<path class="st20" d="M761.1,1521c0-8.7,0-17.3,0-26c2.4-1.3,1.6-3.8,1.9-5.7c2.7-19.9,4.1-40.1,12-58.9c0.6-1.5,0.7-3.2,0.8-4.9
	c1.1-15.7,9.7-27.4,20.2-38.1c2.3-2.3,5.5-3.9,8.8-4.5c9-1.6,17.4-5.5,26.4-7c15.1-2.5,30.2-4.9,45.4-6.4c1.5-0.1,3.5,0.6,4.3-1.5
	c3.3,0,6.7,0,10,0c1.8,2.2,4.4,2,6.8,1.9c6.3-0.3,12.2,1.2,18,3.5c8.7,3.4,14.3,10.6,20.7,16.9c7.9,7.8,12.5,17,14.8,27.7
	c1.8,8.5,0.9,17.3,2.7,25.7c1.6,7.7,0.3,14.5-3.5,21.1c-3.9,6.7-9,12.4-14.7,17.5c-11.6,10.4-24.6,18.7-38.2,26.2
	c-3.1,1.7-5.9,3.7-8.5,6c-15.9,14.3-33.9,25.1-54,32.5c-11.3,4.2-22.9,7.1-35.1,6.6c-19.3-0.7-32.3-11-37-29.5
	C762.5,1523.1,762.7,1521.5,761.1,1521z"/>
<path class="st21" d="M865,1184.1c3.7,0,7.3,0,11,0c1.6,2.4,4.2,1.4,6.3,1.6c6.7,0.4,13.2,1.8,19.5,3.8c10,3.1,19,6.6,21.9,19
	c2,8.6,2,13.8-5.1,19.7c-7.8,6.5-16.5,10.4-26.7,10.8c-3.6,0.1-7.3,0.8-10.9,1.2c-7.3,0-14.7,0-22,0c-9.2-1.2-18.6-0.8-27.4-4.2
	c-10.2-4-18.7-9.8-21.9-21.1c-0.4-1.4-0.3-3.5-2.6-3.8c0-2.3,0-4.7,0-7c1-0.2,1.3-1,1.5-1.8c0.8-4,2.1-7.4,7-7.3
	c0.4,0,0.9-0.5,1.1-0.9c2.5-3.7,6.5-4.4,10.4-5c10.5-1.7,21-2.9,31.6-3.4C860.8,1185.5,863.4,1186.5,865,1184.1z"/>
<path class="st6" d="M1428.9,2346.9c-6.7,0-13.3,0-20,0c-1.3-2.6-3.8-1.6-5.7-1.6c-23.7-0.2-47.2-2.9-70.8-4.8
	c-48-3.9-95.9-7.4-144-10.4c-52-3.4-104.1-6.3-156.1-8.5c-7.3-0.3-14.8-0.3-21.8-2.6c-8.3-2.8-17.1-5.7-17.6-16.9
	c0-1-0.8-1.4-1.5-1.8c-6.2-3.2-7.6-8.7-7.8-15c-0.5-17-1.1-33.9-1.9-50.9c-0.4-8.8-1-17.6-2.4-26.3c-2.4-14.4-6.3-28.6-7.8-43.2
	c-1.2-11.5,3.7-18.5,15.1-20.8c3.5-0.7,3.4-2.4,2-4.4c-3.6-5.1-3.4-9.8,0.2-14.7c1.9-2.5,1.7-4.7-1.3-6.6c-2.5-1.6-2.5-4.3,0.2-5.5
	c3-1.4,3-3.7,3.2-6.1c0.6-7.8,1.1-15.6,1.9-23.4c0.6-6.6,1.6-13.3,5-19.2c4.4-7.9,13.2-9.6,19.3-4c4.9,4.6,11.5,5.1,14.8-0.4
	c4.9-8.2,11.9-8.4,19.5-7.4c19.6,2.6,39.3,4.8,59,6.6c25.7,2.4,51.3,5.7,77.1,6.8c45.3,1.9,90.5,3.1,135.8,5.3
	c12.3,0.6,24.6,1.1,36.8,3.2c19.2,3.4,38.5,6.1,58,4.4c10.9-0.9,22-0.1,32.4-4.4c3.1-1.3,6.5-0.8,8.9,1.6c5.1,5,9.1,10.9,8.1,18.5
	c-0.7,5.8-0.1,11.6-0.6,17.4c-0.2,3,1,3.3,3.5,2.7c6.2-1.5,12.1-3.7,18.1-5.8c13-4.6,26.2-9.1,40.3-8.7c11.2,0.4,19.8,6.7,22.5,16.5
	c2,7.4,0.3,14.2-4.2,20.3c-1,1.4-2.5,2.5-0.7,4.6c9.1,11,8.5,22.9,3.1,35.2c-1.1,2.6-1.7,3.7,1.9,4.6c10,2.4,15.3,9.9,14.8,20.2
	c-0.1,1.9-0.1,3.4,1.3,5c8.5,9.7,7.5,20.4-2.5,28.7c-4.1,3.4-8.4,6.6-12.3,10.2c-18.6,17.2-37,34.5-55.6,51.7
	c-9.4,8.7-19.5,16.1-32.1,19.5c-2.2,0.6-4,1.8-3,4.2c1.1,2.4,3.2,0.6,4.8,0.2c2.8-0.7,5.4-6.6,8.5-0.3c0.1,0.2,0.6,0.1,1,0.1
	c2.8,0.2,4.7,1.7,5.5,4.3c0.9,3.1-0.5,5.6-2.8,7.5c-3.2,2.8-7.2,4-11.4,4.6c-3.6,0.5-7.3,0.7-10.3,3.3c-3.7,3.1-8.2,4.1-12.8,5
	C1439.3,2346.3,1433.9,2344.5,1428.9,2346.9z M1060.2,2104.3c-1.3,0.2-3.3-1.1-3.9,1.5c-0.5,2.2,0.4,3.4,2.5,4.6
	c6,3.3,5.9,10.1-0.2,13.4c-2.3,1.3-3.1,2.6-3,5c0.1,2.2,0,4.3-0.1,6.5c-0.2,2.5,0.8,3.5,3.3,3.9c5.9,1.1,11.9,1.9,17.4,4.4
	c4.7,2.1,7.5,5.6,7,11c-0.4,5.1-3.7,8-8.3,9.5c-4.2,1.4-8.6,1.4-12.9,1.2c-4.2-0.2-4.3,1.4-2.8,4.6c3.1,6.8,8.1,11.8,14.6,15.2
	c16.1,8.6,33.5,13.9,51.5,14.5c53.3,1.6,106.6,1.5,159.7,6.3c29.9,2.7,59.7,5.7,88.1,16.4c3.7,1.4,3.9,0,3.5-3
	c-0.6-5.3-1.1-10.6-1.5-15.9c-2.2-25.4-5.2-50.7-5.6-76.2c-0.1-3.8-1.4-4.6-5.1-4.1c-10.4,1.2-20.9,2.6-31.3,2.7
	c-23.8,0.3-47.6-1.1-71.4-2.7c-36-2.4-71.9-6.7-108.1-8.1c-11-0.4-21.9-1.3-32.8-3C1100.7,2108.9,1080.6,2106.3,1060.2,2104.3z
	 M1503,2173.4c-4.1,1.1-8.2,2.3-12.3,3.4c-7.8,2.2-15.4,5.3-23.9,2.7c-3-0.9-2,1.9-2,3.1c-0.4,9.6-0.7,19.3-0.9,28.9
	c0,1.9-0.7,3.9,0.6,6C1478.2,2203.5,1491.7,2189.7,1503,2173.4z M1427.9,2185.5c1.8-2.8,1.6-5,1.7-7.1c0.6-19.6,2.5-39.1,4.3-58.6
	c0.9-9.8,0.8-9.8-9.4-8.6c-2.6,0.3-3.8,0.8-3,3.9c4,17.1,4.9,34.5,5.6,51.9C1427.2,2172.9,1427.6,2178.7,1427.9,2185.5z"/>
<path class="st22" d="M1457,2340.9c-8.2-5.6-8-6.8-5.6-17.3c1.7-7.2,1.4-14.9,2-22.3c0.9-12,0.8-23.9,0.8-35.9
	c-8.9,0.3-16.7,4.4-25.2,5.6c-10.9,1.5-21.6-0.7-32.4-1.1c-15.1-0.5-30.2-1.9-45.4-2.5c-33.9-1.5-67.9-2.6-101.8-4.3
	c-29.8-1.5-59.5-3.6-89.2-5.5c-17.4-1.1-34.9-2.2-52.3-3.3c-27.6-1.8-55.1-3.6-82.5-7.7c-2.7-0.4-6.6,0.7-7.6-4
	c-0.3-1.3-2.4-0.8-3.6-0.9c-6.8-0.3-13.7-0.4-20.3-2.5c-2.2-0.7-3.5-0.4-3.1,2.4c2.7,20.6,2.4,41.6,7.2,61.9
	c0.7,2.9,2.7,4.5,4.3,6.5c2.6,3.3,2.1,5.2-1.9,6.4c-7.6,2.2-22.5-8.3-22.1-16.3c1.2-21.7-3.2-43.1-4.2-64.6c-1-20.8-2-41.5-3.2-62.3
	c-0.9-15.6-1.4-31.2-1.7-46.8c-0.4-20.6-0.3-41.3,3.9-61.6c0.3-1.6,0.8-3.3,1.5-4.7c1.2-2.4,3.2-3.9,6-3.8c2.7,0.1,4.9,1.6,5.6,4.3
	c0.7,2.5,2.8,4.8-0.2,7.6c-4.5,4.3-5.2,10.4-5.5,16.2c-0.6,9.8-0.3,19.6,0.3,29.5c0.2,2.4,0.6,3.5,3.4,3.4c4.8-0.3,9.7,0.3,14.3,1.8
	c9.2,3.1,18.6,0.4,28,1.6c22.8,3,45.6,5,68.5,7.2c17.1,1.6,34.2,2.9,51.2,4.3c25.7,2.1,51.4,4.2,77.1,6.2
	c16.1,1.3,32.2,2.4,48.3,3.5c35.7,2.5,71.4,4.8,107.1,7.4c19.9,1.5,39.9,2.2,59.7,4.9c0.7,0.1,1.3,0.1,2,0.2
	c11.3,1.7,11.2,1.7,10.1-9.8c-1.2-12.4-2.8-24.8-3.2-37.3c-0.2-6.2-1.7-12.1-2.3-18.2c-0.2-2.1-0.1-3.7,2.4-4.7
	c17-7,32.7-16.4,48.3-26c16.7-10.2,34.4-18,53-24.1c14.5-4.8,29-9.8,42.3-17.6c8.2-4.8,20.1-3.6,25.4,2.9c3,3.6,4.4,8.9,4.6,14
	c1.1,21.6,2.2,43.2,1.5,64.9c-1.1,33.3-1.4,66.6-2.8,99.9c-0.3,7.4-0.1,15,0.2,22.4c0.4,10.2-2.8,20-1.4,30.3
	c0.7,5.2-3.1,9-7.5,11.5c-6,3.3-12,6.5-18.1,9.6c-37.2,18.7-73.3,39.5-109.7,59.6c-3.4,1.9-6.8,3.5-10.7,4c-3.8,0.6-6.3,3.8-9.6,5.5
	C1461,2340.9,1459,2340.9,1457,2340.9z M1454,2212.4c-0.4,0-0.8,0-1.2,0c0-9.2,0.2-18.3,0-27.5c-0.2-10-0.4-10-10.1-9
	c-1,0.1-2,0.1-3,0.1c-21.2,0.7-42.3-1.3-63.4-2.5c-33.6-1.9-67.1-4.4-100.6-6.7c-30.6-2-61.1-3.7-91.7-6.2c-37-3.1-74-5.7-110.9-10
	c-19-2.2-38-4.7-56.8-8c-3.5-0.6-5.3-4-9.3-3.5c-7.4,0.9-14.9,1-22.3-1.1c-2.9-0.8-2.3,1.4-2.2,2.9c2.1,25.7,4.3,51.4,6.3,77.1
	c0.2,2.7,1,3.5,3.8,3.7c16.2,1.1,32.4,0.9,48.6,1.8c23.6,1.4,47.2,2.7,70.8,3.8c48.7,2.4,97.4,5.9,146.1,8.5
	c44.9,2.4,89.8,3.9,134.7,6.1c16.1,0.8,32.3,1.2,47.9,5.9c2.9,0.9,5.9,0.7,8.8,0.8c4.1,0.2,4.4-1.6,4.4-5
	C1453.8,2233.4,1454,2222.9,1454,2212.4z M1612.5,2176.5c2.4-1.1,3.4-2.8,4.5-4.5c0.8-1.2,1.8-2.8,0.3-4c-1.6-1.3-3.5-0.4-5.2,0.2
	c-1.8,0.6-1.2,2-0.9,3.3C1611.6,2173,1612,2174.6,1612.5,2176.5z"/>
<path class="st22" d="M1133.3,2004.6c0.4,3.1,2,3.5,4.4,3.3c15.4-1.4,30.8-2.6,46.3-3.9c1.6-0.1,2.7-0.4,3.5-2
	c3.5-7.5,10.1-9.7,17.7-9.7c22,0.2,43.9,1.3,65.9,2.3c42.6,2,85.2,3.5,127.7,5.8c31.9,1.7,63.9,2.9,95.5,7.7
	c12.1,1.8,18.9,9.1,17.6,19.3c-0.9,7.1-5.6,11.6-11.6,14.7c-10.4,5.5-21.7,8.4-33.1,10.7c-4.6,0.9-9.2,1.7-13.8,2.3
	c-5.7,0.8-11.3,1-15.5,6.2c-2.7,3.2-7.3,3.7-11.6,3.6c-13-0.1-25.9-1.5-38.8-2.9c-15.5-1.6-30.9-0.7-46.4-0.8
	c-32.2-0.2-64.2-2.1-96.2-4.8c-29-2.5-58.1-5.2-87.2-4.9c-21.1,0.2-42.3-0.2-63.3,2.5c-12,1.5-16.7-2.4-18.4-14.4
	c-0.2-1.7-1.3-2.6-2.1-3.8c-6.5-8.9-2.2-21.2,8.8-22.7c14.5-2,29.1-2.9,43.7-4.3C1129.1,2008.5,1132.2,2008.8,1133.3,2004.6z"/>
<path class="st23" d="M1537.1,1994.3c-1.4,1.5-4.8,1.4-3.9,4.3c0.7,2.2,3,2.3,5,2.6c16.6,3.2,33.5,2.6,50.3,3
	c6.7,0.2,13.4-1.3,20,1.7c2.9,1.3,6.7,1.1,7,4.9c0.3,3.9-2.6,6.6-6,8.3c-8.6,4.3-17.5,8.2-26,12.8c-42.5,23.2-88.5,38.3-132.1,59
	c-9.1,4.3-18,2.3-26.9,1.5c-6.8-0.7-13.6-1.1-20.4-0.8c-26.5,1.1-52.9-0.8-79.3-2.6c-11.3-0.8-22.6-1.3-33.9-1.8
	c-13.1-0.6-26.3-1.5-39.4-2.3c-23.7-1.4-47.5-3.2-71.2-5c-13.3-1-26.5-2-39.8-3.1c-17.9-1.5-35.8-3.1-53.7-4.8
	c-14.6-1.3-29.1-2.7-43.7-4.2c-12.7-1.3-25.5-2.7-38.1-4.4c-4-0.5-8-0.1-11.9-0.4c-5-0.3-9.7-1.4-12.3-6.2c-1.1-2-2.9-1.9-4.6-2.4
	c-3.4-1.1-4-3.4-1.8-6.1c1-1.3,2.4-2.3,3.8-3.2c8.1-5,16.5-9.1,25.7-11.8c22.9-6.8,44.8-15.9,66.1-26.8c14.1-7.2,29.8-9.2,44.8-13.4
	c12.2-3.4,24.8-4.9,37.2-7c2.1-0.3,4.5,0,4.5-3.3c0-0.4,1-0.9,1.5-1c10.2-2.3,19.8-7.6,30.5-6.6c27,2.5,54,4.7,81.1,6.5
	c15.8,1,31.6,1.7,47.4,2.4c36.7,1.7,73.5,3.3,110.2,4.8c31.3,1.3,62.5,2.6,93.8,4C1526.3,1993.3,1531.6,1993.9,1537.1,1994.3z
	 M1044,2040.9c3.1,2.9,6.5,1.9,9.5,2.5c25.6,4.8,51.4,7.1,77.4,7.4c25,0.3,49.9-2,74.9-1.5c28.9,0.7,57.7,3.9,86.7,5.4
	c33.9,1.7,67.8,3.4,101.8,3.4c8.3,0,16.7-0.5,24.9,0.8c1.9,0.3,3.6-0.2,5.3-1c20.9-9.3,42.5-16.6,63.8-24.6c2.6-1,5.4-1.8,8.1-2.2
	c11.2-1.7,22.2-4.3,32.6-8.8c1.8-0.8,4.2-1.2,4.9-3.8c-2.1-0.7-5.2-0.9-5.6-2c-1.5-4.3-5-3.1-7.8-3.4c-9.7-0.9-19.3,1.4-28.9,1
	c-18.1-0.8-36.2-2-54.3-2.9c-24.6-1.2-49.2-2-73.8-3.5c-32.9-2-65.7-4.4-98.5-6.9c-20.7-1.6-41.5-3-62.1-5.3
	c-6.4-0.7-12.8-1.8-19.6,0.5c-23.6,7.9-47.1,16.4-72.4,17.3c-1.4,0.1-2.6,0.6-3.7,1.4c-10.6,8-22.6,13.4-35.1,17.5
	C1062.9,2035.1,1053.7,2037.9,1044,2040.9z"/>
<path class="st24" d="M1537.9,2005.9c-2.8,2-2.1,5.4-2.9,8.1c-1.8,6.2-4.5,11.8-11,13.8c-30.3,9.2-58.5,23.9-88.9,32.9
	c-9.2,2.7-18.6,4.5-28.3,5.3c-24.3,2-48.5-0.9-72.8-1.3c-30.3-0.5-60.6-1.7-90.9-3c-14.5-0.6-29-1-43.4-2.1
	c-11.5-0.8-23-3.6-34.6-4.1c-24.4-1.2-48.5-6.9-73.1-5.6c-6.7,0.3-10.3-4.5-13.4-9.7c-8.1-13.8-8.4-27.5-3.9-43.1
	c6.7-23.5,22.3-36.6,43.8-44.7c5.7-2.2,11.4-1.8,17,0.6c3.1,1.3,6.2,2.1,8.8-0.5c2.8-2.7,2.4-6,0.7-9.2c-3.4-6.6-1-13.5-0.7-20.2
	c0.4-9.8,4.7-18.6,9.2-27.2c0.8-1.4,1.9-2.8,3.1-3.8c19.1-16,40.8-25.6,65.9-25.6c9.4,0,18.8-1.3,28.3,0.3c11.3,2,21.3,6.1,30,13.7
	c4.1,3.6,8.1,3.4,12.3-1c5.8-6.1,12.5-11,18.8-16.4c11.9-10.3,25.3-11.4,39.9-8.6c10.9,2.1,21.2,5.6,31,10.8
	c6.3,3.3,12.7,6.6,18.8,10.2c19.4,11.6,29.1,29.1,31,51.3c0.6,7.3,0.3,14.6-0.9,21.9c-0.4,2.4-0.3,4.3,2.9,2.7
	c15.8-7.9,31.7-5.3,47.7-0.8c10.4,3,20.2,7.6,29.9,12.4c13.5,6.7,21.8,16.9,24.1,31.9c0.2,1.1-0.1,2.4,1.3,3
	C1537.9,2000.6,1537.9,2003.3,1537.9,2005.9z"/>
<path class="st20" d="M1075.1,1545.1c6.4,1.4,12.9,2.5,19.2,4.3c32,9.3,46.6,24.8,51.8,56.1c2.1,12.6-1.1,23.5-7,33.9
	c-18.6,32.9-46.9,49.7-84.7,50.8c-23,0.7-44.3-4.2-63-18.1c-25.2-18.7-33-54.1-14.5-80.8c7.2-10.4,16-18.7,26.6-25.2
	c18-11.1,37.7-17.2,58.6-19.9c1.1-0.1,2.4,0.3,3-1.1C1068.4,1545.1,1071.7,1545.1,1075.1,1545.1z"/>
<path class="st25" d="M1389,2067.9c-0.9-1.9-2.6-1.1-4-1.1c-30.5-1-60.9-1.8-91.4-3c-26.1-1-52.2-3.1-78.3-3.6
	c-17.6-0.3-34.6-4.3-52.1-5c-23.9-1-47.5-6.8-71.6-5.3c-4.6,0.3-8.2-2.5-10.4-6c-5.9-9.3-10.8-19.2-10-31c0.6,0.2,1.2,0.1,1.4,0.4
	c13,18.9,32.3,24.5,53.9,25.1c18.3,0.5,35.2-4.5,51.3-12.8c4.7-2.4,7.7-8.5,6.7-13.9c-2.4-12.9-9.3-23.4-17.9-32.9
	c-8.4-9.2-17-18.3-28.6-24.4c3.2-0.1,6-0.5,7.6-3.4c1.7-3,0.6-5.7-0.6-8.6c-3.2-7.5-0.1-14.8-0.3-23c3.4,2.3,3.9,4.8,4.3,7.5
	c2.5,20.2,19.2,35.7,39.7,37c8.6,0.6,16.9-0.3,24.6-4.8c1.5-0.9,3.4-1.3,5.2-1.7c19.2-4.4,34.9-14.5,47.5-29.5
	c0.7-0.9,1.5-1.8,2.3-2.6c12.9-11.4,18.2-25.5,14.7-43.3c5.9,2,9.2-1.4,12.6-5c3.9-4.2,8.1-8,13.2-10.9c-2.2,5.8-4.9,11.2-6,17.3
	c-4.8,26.9,13.4,52.1,40.6,55.3c8.6,1,17.2,1.4,25.9,2c3.9,0.3,7.5-0.5,11.1-2.1c9.6-4.3,18.8-9.2,28.2-13.9
	c9.4-4.6,13.1-12.2,14.4-21.8c0.2-1.6-0.2-3.3,1.4-4.9c5.3,8.7,7.7,18.1,8.5,27.9c0.7,8.2,0.2,16.3-1,24.4c-0.3,2.2-1.2,3.5-2.9,4.8
	c-6.7,5-13.1,10.4-14.9,19.3c-0.5,2.4-0.8,0.3-1.3,0c-1.1-0.6-1.7,0.6-1.5,1.2c2.1,4.9-1.7,8.1-3.5,11.8c-3.2,6.8-4.5,13.2-1.1,20.6
	c2.2,4.7,2,10.4,5.2,15c1.2,1.7,2.3,3.1,4.6,3.3c19.8,1.5,39.5,2.9,59-2.5c15.2-4.2,28-12.1,38-24.4c7.1-8.8,9.4-18.8,7.6-30.7
	c6.3,4.5,11.5,8.5,12.5,16.2c0.6,4.5,2.4,8.8,4.4,12.9c0,2.7,0,5.3,0,8c-2.6,1.3-2.1,4.1-2.4,6.1c-1.6,9.1-6.5,14.9-15.5,17.6
	c-7.3,2.2-14.6,4.5-21.7,7.3c-15.9,6.1-31.6,13-47.7,18.7c-15,5.3-30,11.1-46.4,10.3c-1.9-0.1-3.9,0.4-5.3,2
	C1395.6,2067.9,1392.3,2067.9,1389,2067.9z M1374.7,1993.6c-2.2-2.5-5.8-0.3-6.9-4.4c-3.8-14.8-14.2-23.6-28.4-28.2
	c-10.7-3.5-21.6-3.2-32.6-1.9c-17.4,2.2-34.5,5.9-49.7,15.3c-10.8,6.6-18.6,15.8-20.1,28.9c-2.2,19.6,10.6,35.7,31.4,39.4
	c7.9,1.4,15.6,3.2,23.4,4.9c14.8,3.2,29.4,2.8,43.7-2.6c21.4-8.1,33.9-24.4,33.7-44.1C1369.2,1996.9,1369,1993.7,1374.7,1993.6z"/>
<path class="st25" d="M1121.3,1561.6c10.1,6.5,15.6,15.1,19.6,24.6c4.1,9.6,5.5,19.8,6,30.2c0.1,2.7-0.5,5.3-1.4,7.8
	c-12.4,38.7-49,65.4-89.6,66.1c-19.9,0.3-38.8-2.4-56.2-12.5c-16.7-9.7-28.3-23.5-32.1-43c-0.9-4.9-1-9.9-1-15.4
	c2,1,2.4,2.7,3.2,3.9c1.8,2.9,3.3,5.8,7.6,4.7c2.1-0.6,3.2,1.3,4.6,2.5c38.1,32.8,99.3,26.8,127.6-12.2c7.6-10.5,12.4-22,14.3-34.7
	c0.8-5.1,0.1-10.3-1.3-15.3C1122.2,1566.4,1121.9,1564.5,1121.3,1561.6z"/>
<path class="st26" d="M1469,2268.9c-9.7-7-9.9-14.6-0.7-22.2c3.5-2.9,7.1-5.5,11.3-7.2c46.7-18.9,90.2-44.2,133.5-69.6
	c1.7-1,3.3-3.8,5.5-2.2c2,1.5,2.3,4.5,1.7,7c-0.7,2.9-0.6,4.8,2.2,7c3.1,2.6,2.3,6.4-0.3,9.3c-2.3,2.6-5.4,4.4-8.4,6.2
	c-25.9,15.5-53.2,28.1-81.1,39.7c-10.3,4.3-20.3,9.1-29.6,15.4c-9.1,6.1-18.3,11.9-28.2,16.6
	C1472.9,2268.9,1470.9,2268.9,1469,2268.9z"/>
<path class="st27" d="M417,1737.6c-0.6-13,0.4-22.9,0.9-32.9c0.2-4.7,0.3-9.3-0.5-13.9c-1-5.8,3.5-11.6,9.1-13.8
	c8.6-3.3,17.6-3.2,26.5-3.9c9.1-0.7,16.8,2,24.2,6.7c1.5,1,3.1,1,4.8,1c51.1,1.4,102.1,5.6,153.1,9.6c43.3,3.4,86.7,7,130,10.5
	c31.4,2.5,62.7,6,94,9c19.4,1.9,38.9,2.6,58.3,4c6.3,0.4,12.7,0.8,18.9,2c11.3,2.1,22.6,0.7,33.9,0.7c87.5-0.8,174.9-0.6,262.4,0.6
	c77.6,1,155.2,3.3,232.8,7.1c25,1.2,49.9,3.3,74.8,4c21.5,0.6,43-0.4,64.5-0.2c34.3,0.4,68.7-1.6,102.9,1.3
	c16.3,1.4,32.5,1.8,48.8,1.2c2.8-0.1,5.6,0.3,8.5,0.5c3.2,0.2,6.9,2.5,8.8-2.4c0.3-0.7,13-0.1,13.6,0.6c0.9,1.1,0.6,2.6,0.6,3.9
	c-0.4,23.7,0.9,47.5-1,71.2c-0.4,4.8-0.1,9.7,0,14.5c0.1,2.4-0.4,3.5-3.1,3.7c-9.5,0.7-18.9,1.9-28.2,4c-0.8,0.2-2.1,0.5-2.3,0.2
	c-2.8-5.1-7.5-2.5-11-2.2c-44.9,3.9-89.8,5-134.8,3.4c-34.8-1.2-69.4-4.8-104-8.5c-32-3.4-64-5.9-96-8.3
	c-76.5-5.8-153.1-7.1-229.7-8.4c-66-1-131.9-1.9-197.9-3.1c-57.3-1-114.6-2.1-171.9-3.8c-46.1-1.4-92.2-3.6-138.2-6.8
	c-35.1-2.4-70.1-5.1-105-9c-33.4-3.8-66.9-7.2-99.6-15.3c-9.9-2.5-20.6-1.6-30.6-4.4c-0.8-0.2-1.8-0.1-2.2,0.7
	c-2.4,4.5-7.2,2.6-10.7,4c-2.2,0.8-2.5-2.2-2.6-3.9C418.1,1752.2,417.5,1743.4,417,1737.6z M1197.3,1732.2c-0.1,0.2-0.1,0.3-0.2,0.5
	c11.5,0,23,0,34.5,0c0-0.2,0-0.3,0-0.5C1220.2,1732.2,1208.8,1732.2,1197.3,1732.2z"/>
<path class="st26" d="M1614.7,2090.7c4.5,0,7.3,1.6,8.4,5.3c1.3,4.3,0,8-3.4,10.7c-1.7,1.3-3.7,2.2-5.7,3.1
	c-22.4,10.9-44.6,22.3-67.5,32.2c-23.9,10.4-47.7,21.2-71.5,31.8c-6.4,2.8-11.5,1.6-14.5-3.1c-2.9-4.6-1.6-10,4.1-14.3
	c10.9-8.4,23.6-13.7,36-19.2c28.4-12.7,57.7-23.1,85.9-36.3c8-3.7,16.6-5.7,24.6-9.3C1612.4,2090.9,1614,2090.8,1614.7,2090.7z"/>
<path class="st28" d="M761.3,1432.1c5.5-43.8,153.4-91.4,75.6-90.5C748.2,1342.5,760.4,1439.3,761.3,1432.1z"/>
</svg>
