<?xml version="1.0" encoding="utf-8"?>
<!-- Generator: Adobe Illustrator 26.0.1, SVG Export Plug-In . SVG Version: 6.00 Build 0)  -->
<svg version="1.1" id="Layer_1" xmlns="http://www.w3.org/2000/svg" xmlns:xlink="http://www.w3.org/1999/xlink" x="0px" y="0px"
	 viewBox="0 0 2000 2000" style="enable-background:new 0 0 2000 2000;" xml:space="preserve">
<style type="text/css">
	.st0{fill:#AED76A;}
	.st1{clip-path:url(#SVGID_00000081624356542499368940000013096694337243570321_);fill:#FECFAE;}
	.st2{fill:#AAA49B;}
	.st3{fill:#8F65AC;}
	.st4{fill:#E8E3DD;}
	.st5{fill:#60262E;}
	.st6{fill:#BAB6AF;}
	.st7{clip-path:url(#SVGID_00000050653700887429236350000010299382892808561338_);fill:#FECFAE;}
	.st8{fill:#E5BF9C;}
	.st9{fill:#A08470;}
	.st10{fill:#3F2957;}
	.st11{fill:#AFD86A;}
	.st12{clip-path:url(#SVGID_00000072995267023054399830000001729569595560769437_);fill:#FECFAE;}
	.st13{clip-path:url(#SVGID_00000002362204007260492870000013363022969187035059_);fill:#FECFAE;}
	.st14{fill:#877874;}
	.st15{fill:#967266;}
	.st16{fill:#4C3B36;}
	.st17{fill:#725B51;}
	.st18{fill:#DDCBB8;}
	.st19{fill:#441C0C;}
	.st20{fill:#592710;}
	.st21{fill:#724E44;}
	.st22{clip-path:url(#SVGID_00000098934124510965882210000007311535183325228215_);fill:#FECFAE;}
	.st23{fill:#77A22F;}
	.st24{fill:#AA9983;}
	.st25{fill:#EAC794;}
	.st26{fill:#936B3E;}
	.st27{fill:#E0D1B7;}
	.st28{fill:#BF9D71;}
	.st29{fill:#4C94BF;}
	.st30{fill:#FFFFFF;}
	.st31{fill:#7B625C;}
	.st32{fill:#392516;}
	.st33{fill:#551C3B;}
	.st34{fill:#A28A84;}
	.st35{fill:#B48F6C;}
	.st36{fill:#FECFAE;}
	.st37{fill:#402F21;}
	.st38{fill:#381126;}
	.st39{fill:#7A6047;}
	.st40{fill:#6B6969;}
	.st41{fill:#4F3F2F;}
	.st42{fill:#787676;}
	.st43{fill:#908D8E;}
	.st44{fill:#6E899F;}
	.st45{fill:#FDCFAC;}
	.st46{fill:#62534C;}
	.st47{fill:#554A44;}
	.st48{fill:#3D5669;}
	.st49{fill:#293035;}
	.st50{fill:#78685E;}
	.st51{fill:#8F8D8E;}
	.st52{fill:#38444D;}
	.st53{fill:#797677;}
	.st54{fill:#CAB399;}
	.st55{fill:#A5917A;}
	.st56{fill:#8BBC38;}
	.st57{fill:#AA4226;}
	.st58{fill:#312419;}
	.st59{fill:#443428;}
	.st60{fill:#846A55;}
	.st61{fill:none;}
	.st62{fill:#634C3B;}
	.st63{clip-path:url(#SVGID_00000127003034335036976430000008875327051242248339_);}
	.st64{fill:#D6BA9D;}
	.st65{fill:#1E1713;}
	.st66{fill:#B99971;}
	.st67{fill:#8C6D51;}
	.st68{fill:#9E7E5C;}
	.st69{clip-path:url(#SVGID_00000131325835868308865590000005388632587440173696_);}
	.st70{fill:#352820;}
	.st71{fill:#665140;}
	.st72{clip-path:url(#SVGID_00000168796568367038732370000002028343306002605972_);}
	.st73{clip-path:url(#SVGID_00000079477963151321236140000016663325871051406499_);}
	.st74{clip-path:url(#SVGID_00000124125142624142528170000014147883242790990988_);}
	.st75{clip-path:url(#SVGID_00000100361432558081988890000016602069503794223277_);}
	.st76{fill:#8ABD32;}
	.st77{clip-path:url(#SVGID_00000000939871461110656570000007145196549462052797_);}
	.st78{fill:#993A23;}
	.st79{clip-path:url(#SVGID_00000039098181778406230720000004029064137958196652_);fill:#993A23;}
	.st80{fill:#7A291B;}
	.st81{clip-path:url(#SVGID_00000070084033683977498100000008311698293948862867_);fill:#993A23;}
	.st82{fill:#BC4D3B;}
	.st83{fill:#846F5A;}
	.st84{fill:#AD957D;}
	.st85{fill:#D8C9BA;}
	.st86{fill:#C4B19F;}
	.st87{fill:#705E4D;}
	.st88{clip-path:url(#SVGID_00000132800991618988753160000006981398652355340420_);fill:#998776;}
	.st89{fill:#604F40;}
	.st90{fill:#A39386;}
	.st91{clip-path:url(#SVGID_00000124865585221804385700000000402631412720336004_);fill:#998776;}
	.st92{clip-path:url(#SVGID_00000051367720493888443860000009823053219168017046_);fill:#998776;}
	.st93{clip-path:url(#SVGID_00000013878658395396178130000000863066446611822521_);fill:#846F5A;}
	.st94{clip-path:url(#SVGID_00000013878658395396178130000000863066446611822521_);fill:#998776;}
	.st95{fill:#E5D6C7;}
	.st96{fill:#937D69;}
	.st97{fill:#3C3229;}
	.st98{fill:#71BBD8;}
	.st99{fill:#EC7D51;}
	.st100{fill:url(#SVGID_00000102516596330783751120000005784275755535767697_);}
	.st101{opacity:0.65;fill:url(#SVGID_00000000913041213386348930000004834068750092802746_);}
	.st102{opacity:0.65;fill:url(#SVGID_00000060747964313943941140000004768279221130738358_);}
	.st103{clip-path:url(#SVGID_00000093144127805410132030000004319672437279610253_);fill:#998776;}
	.st104{clip-path:url(#SVGID_00000054964534144313595710000012035578258369379472_);fill:#998776;}
	.st105{clip-path:url(#SVGID_00000047745247609969373490000003448370534144400309_);fill:#846F5A;}
	.st106{clip-path:url(#SVGID_00000047745247609969373490000003448370534144400309_);fill:#998776;}
	.st107{fill:#A08975;}
	.st108{clip-path:url(#SVGID_00000088121206349658270980000016033991603076595629_);}
	.st109{fill:url(#SVGID_00000120560225563965792180000007331520108200702896_);}
	.st110{opacity:0.65;fill:url(#SVGID_00000157278171931937216210000012807896600519171256_);}
	.st111{fill:#998776;}
	.st112{fill:#C1AE9F;}
	.st113{clip-path:url(#SVGID_00000054228020315703839730000010605522076515707565_);fill:#846F5A;}
	.st114{clip-path:url(#SVGID_00000054228020315703839730000010605522076515707565_);fill:#998776;}
	.st115{clip-path:url(#SVGID_00000128483689978852477900000015932711425728482730_);}
	.st116{fill:#515151;}
	.st117{fill:#7A7A7A;}
	.st118{fill:#8C8C8C;}
	.st119{fill:#F5E3BA;}
	.st120{fill:#593263;}
	.st121{opacity:0.4;fill:#BB986F;}
	.st122{fill:#A5A5A5;}
	.st123{fill:#BB986F;}
	.st124{fill:#A883C6;}
	.st125{fill:#2E1849;}
	.st126{fill:#6B6B6B;}
	.st127{fill:#724382;}
	.st128{clip-path:url(#SVGID_00000018198435055548947290000006857292434322262184_);fill:#8ABD32;}
	.st129{clip-path:url(#SVGID_00000003805485443653457840000008811184610260469382_);}
	.st130{fill:#70442C;}
	.st131{opacity:0.2;clip-path:url(#SVGID_00000032628378453051816890000002265555738588453032_);fill:#70442C;}
	.st132{fill:#A36B4B;}
	.st133{fill:#875536;}
	.st134{fill:#D5AF73;}
	.st135{opacity:0.2;clip-path:url(#SVGID_00000060738491300705553030000017548758082083409055_);fill:#70442C;}
	.st136{opacity:0.2;clip-path:url(#SVGID_00000100377611892744156370000016810217686211348097_);fill:#70442C;}
	.st137{opacity:0.4;clip-path:url(#SVGID_00000046328510338519465630000015417582083953494920_);fill:#70442C;}
	.st138{opacity:0.2;clip-path:url(#SVGID_00000046328510338519465630000015417582083953494920_);fill:#70442C;}
	.st139{clip-path:url(#SVGID_00000099637463115057427700000005110167060783313561_);fill:#FECFAE;}
	.st140{fill:#9B8572;}
	.st141{fill:#4F2C2A;}
	.st142{fill:#934D3D;}
	.st143{clip-path:url(#SVGID_00000098910521426424709330000018290721330282992259_);fill:#70442C;}
	.st144{fill:#BF975D;}
	.st145{fill:#A57341;}
	.st146{clip-path:url(#SVGID_00000142165017839347920340000016203886835789020843_);fill:#70442C;}
	.st147{clip-path:url(#SVGID_00000112618171634421742150000015494914754369540506_);fill:#70442C;}
	.st148{fill:#4A1F19;}
	.st149{clip-path:url(#SVGID_00000117674970594815624540000000420962329947039364_);fill:#A37A79;}
	.st150{fill:#D19857;}
	.st151{fill:#D6B58E;}
	.st152{fill:#AF8956;}
	.st153{clip-path:url(#SVGID_00000103245822521010147730000011132309691647783592_);fill:#FECFAE;}
	.st154{fill:#93643A;}
	.st155{clip-path:url(#SVGID_00000098190755605754323740000009853735874452715149_);fill:#70442C;}
	.st156{clip-path:url(#SVGID_00000033344583299520473460000000880901962306750117_);fill:#70442C;}
	.st157{clip-path:url(#SVGID_00000124150608378170640830000013609944320719054725_);fill:#70442C;}
	.st158{clip-path:url(#SVGID_00000048499853427530980640000016036588584712848059_);fill:#70442C;}
	.st159{clip-path:url(#SVGID_00000121261376865227780920000007998673926514813826_);fill:#70442C;}
	.st160{clip-path:url(#SVGID_00000024681072412643291550000003223526394642844334_);fill:#70442C;}
	.st161{clip-path:url(#SVGID_00000181790934959477784820000009947488376962744503_);fill:#70442C;}
	.st162{clip-path:url(#SVGID_00000090998269838663688910000001192710923452435594_);fill:#70442C;}
	.st163{clip-path:url(#SVGID_00000134230760102118362420000010043711948693605542_);fill:#70442C;}
	.st164{clip-path:url(#SVGID_00000072258033373413553040000010293953292219976590_);fill:#70442C;}
	.st165{clip-path:url(#SVGID_00000149360098587168168820000007519121419346109853_);fill:#70442C;}
	.st166{clip-path:url(#SVGID_00000176017217790819983530000011752522796244001188_);fill:#70442C;}
	.st167{clip-path:url(#SVGID_00000173158961367781138430000000013096130130207131_);fill:#A37A79;}
	.st168{clip-path:url(#SVGID_00000141455783962623265860000015550913597517979564_);fill:#FECFAE;}
	.st169{clip-path:url(#SVGID_00000025436362558268889750000008083389173037441410_);fill:#70442C;}
	.st170{clip-path:url(#SVGID_00000155838369515272054400000013382543183059133312_);fill:#70442C;}
	.st171{clip-path:url(#SVGID_00000106862878674490957730000011537018354339831447_);fill:#70442C;}
	.st172{fill:#877366;}
	.st173{clip-path:url(#SVGID_00000135671851638811170870000008365734377523206076_);fill:#FECFAE;}
	.st174{fill:#4E8BC1;}
	.st175{fill:#F9EBE8;}
	.st176{fill:#C9B3AD;}
	.st177{fill:#EAD2CC;}
	.st178{fill:#387BAD;}
	.st179{clip-path:url(#SVGID_00000004525602098157306850000006803988433536977294_);fill:#8ABD32;}
	.st180{clip-path:url(#SVGID_00000074402864038637715360000018005211429693689506_);fill:#8ABD32;}
	.st181{clip-path:url(#SVGID_00000181791695140441077720000003236103401269424799_);fill:#8ABD32;}
	.st182{clip-path:url(#SVGID_00000137126552548093699200000002672527649016194235_);fill:#8ABD32;}
	.st183{clip-path:url(#SVGID_00000119822564268206155280000000973797404037447559_);fill:#8ABD32;}
	.st184{clip-path:url(#SVGID_00000111877096864888307420000016826447858568970915_);fill:#FECFAE;}
	.st185{clip-path:url(#SVGID_00000107566331757434822530000002359841085837869757_);fill:#8ABD32;}
	.st186{fill:#5597C9;}
	.st187{fill:#1572A0;}
	.st188{fill:#D6C5C1;}
	.st189{clip-path:url(#SVGID_00000109023911031977522180000010702882617365220006_);fill:#8ABD32;}
	.st190{fill:#61A6D1;}
	.st191{fill:#B2A19D;}
	.st192{clip-path:url(#SVGID_00000147918537502040297080000003277104663359082667_);fill:#8ABD32;}
	.st193{clip-path:url(#SVGID_00000155855870114711640260000013665688696667356548_);fill:#FECFAE;}
	.st194{clip-path:url(#SVGID_00000039826420160276171900000012110948711195772591_);fill:#8ABD32;}
	.st195{clip-path:url(#SVGID_00000176733574403044063550000009870289625486325153_);fill:#FECFAE;}
	.st196{fill:#A07775;}
	.st197{fill:#B79C86;}
	.st198{fill:#8C383B;}
	.st199{fill:#A5606B;}
	.st200{fill:#8F534A;}
	.st201{fill:#523028;}
	.st202{fill:#7A2C32;}
	.st203{fill:#965D59;}
	.st204{clip-path:url(#SVGID_00000143605600902475987990000010817043070063425942_);fill:#8F534A;}
	.st205{clip-path:url(#SVGID_00000076576870335950568900000004769288892672938144_);fill:#8BBC38;}
	.st206{clip-path:url(#SVGID_00000168091405318926074490000013450219665622259621_);fill:#8BBC38;}
	.st207{clip-path:url(#SVGID_00000163760448975195826370000008412528155582032537_);fill:#FDCFAC;}
	.st208{clip-path:url(#SVGID_00000139978996511836037620000001397737387903169445_);fill:#8F534A;}
	.st209{fill:#5B3932;}
	.st210{fill:#9E5F59;}
	.st211{clip-path:url(#SVGID_00000127009306079958584440000009864002688822486439_);fill:#8BBC38;}
	.st212{clip-path:url(#SVGID_00000172413542533964172120000013360990730921154735_);fill:#603D38;}
	.st213{clip-path:url(#SVGID_00000111178823387613516900000013290880270769288584_);fill:#523028;}
	.st214{fill:#914047;}
	.st215{clip-path:url(#SVGID_00000104669769878935767710000009794985591592764291_);fill:#8BBC38;}
	.st216{clip-path:url(#SVGID_00000039837816277739467160000008044043488799690152_);fill:#8BBC38;}
	.st217{clip-path:url(#SVGID_00000112615631081548065160000014158181882455360439_);fill:#603D38;}
	.st218{clip-path:url(#SVGID_00000001642757467693913470000000711694603609759629_);fill:#523028;}
	.st219{clip-path:url(#SVGID_00000005982024206938531390000007124351830043039641_);fill:#8BBC38;}
	.st220{clip-path:url(#SVGID_00000036951900387205532760000004963335818520116382_);fill:#8BBC38;}
	.st221{clip-path:url(#SVGID_00000079474325125853039630000008488785828753078414_);fill:#8ABD32;}
	.st222{clip-path:url(#SVGID_00000004538093976493426220000010029847015366182072_);fill:#441C0C;}
	.st223{fill:#9B786F;}
	.st224{fill:#8E7C75;}
	.st225{opacity:0.8;fill:#A3ACAF;}
	.st226{fill:#838C8E;}
	.st227{fill:#CFE59A;}
	.st228{clip-path:url(#SVGID_00000183934494563788489090000016655119993472561844_);fill:#FECFAE;}
	.st229{clip-path:url(#SVGID_00000147909176537762338040000013851602206633604758_);fill:#441C0C;}
	.st230{fill:#773825;}
	.st231{clip-path:url(#SVGID_00000176751867272955315890000008772676209549515435_);}
	.st232{clip-path:url(#SVGID_00000132081554123544581740000003524569915881670077_);}
	.st233{clip-path:url(#SVGID_00000006708569830683825370000007258091188197697451_);fill:#441C0C;}
	.st234{clip-path:url(#SVGID_00000054242921389246543030000017985850789115904908_);}
	.st235{clip-path:url(#SVGID_00000026845600773933306040000006044750317779475901_);fill:#441C0C;}
	.st236{fill:#2B1009;}
	.st237{opacity:0.8;fill:#B8BFC1;}
	.st238{fill:#B8BFC1;}
	.st239{fill:#F5FFCA;}
	.st240{fill:#A0C45B;}
	.st241{fill:#BCE077;}
	.st242{clip-path:url(#SVGID_00000002350757295596979530000017056314009465101716_);fill:#FECFAE;}
	.st243{clip-path:url(#SVGID_00000077290274250505517180000004396851160523515324_);}
	.st244{fill:#B99AD6;}
	.st245{fill:#EDCCB2;}
	.st246{fill:#9287AB;}
	.st247{fill:#B6B3C4;}
	.st248{fill:#A29CB7;}
	.st249{fill:#5A546D;}
	.st250{fill:#7F6A5C;}
	.st251{fill:#645F77;}
	.st252{fill:#472A51;}
	.st253{clip-path:url(#SVGID_00000049222132208908363380000001208616808428596109_);}
	.st254{fill:#6D407C;}
	.st255{clip-path:url(#SVGID_00000090977027246249372280000013758613826514168209_);fill:#6D407C;}
	.st256{clip-path:url(#SVGID_00000112596781676461263930000014994899288455506314_);fill:#6D407C;}
	.st257{clip-path:url(#SVGID_00000072999026287205312870000010559836231356037504_);fill:#8ABD32;}
	.st258{fill:#76708E;}
	.st259{clip-path:url(#SVGID_00000177486443017003908810000001039929976673118382_);fill:#6D407C;}
	.st260{clip-path:url(#SVGID_00000079462756465170423150000007526551492634932158_);fill:#6D407C;}
	.st261{fill:#9C7ABC;}
	.st262{clip-path:url(#SVGID_00000153681428344412326850000002818062914906656134_);fill:#FECFAE;}
	.st263{clip-path:url(#SVGID_00000183246268344655273310000015862444971564425867_);fill:#6D407C;}
	.st264{clip-path:url(#SVGID_00000076606204874228228980000013338808238110716042_);fill:#B99AD6;}
	.st265{clip-path:url(#SVGID_00000003064330800336721310000010997797124678872961_);fill:#FECFAE;}
	.st266{clip-path:url(#SVGID_00000033363697370750393090000013366956856495711932_);fill:#8ABD32;}
	.st267{fill:#8C796F;}
	.st268{fill:#633C27;}
	.st269{fill:#3F2519;}
	.st270{fill:#6B5E55;}
	.st271{clip-path:url(#SVGID_00000028288631497043893060000011613235642713015206_);fill:#633C27;}
	.st272{fill:#7A6B5F;}
	.st273{fill:#2B1811;}
	.st274{fill:#594E47;}
	.st275{fill:#685C53;}
	.st276{fill:#A8968A;}
	.st277{fill:#996A52;}
	.st278{fill:#B2A197;}
	.st279{fill:#A39081;}
	.st280{clip-path:url(#SVGID_00000012462123305366484090000016719818740786822024_);}
	.st281{clip-path:url(#SVGID_00000180345124962467014980000005420723425003745430_);fill:#FECFAE;}
	.st282{fill:#685443;}
	.st283{fill:#CCB193;}
	.st284{fill:#BB9C75;}
	.st285{fill:#C6A283;}
	.st286{fill:#897056;}
	.st287{fill:#DB6800;}
	.st288{fill:#F28D26;}
	.st289{fill:#702C31;}
	.st290{fill:#9B8067;}
	.st291{fill:#35261D;}
	.st292{fill:#4B3628;}
	.st293{fill:#658723;}
	.st294{fill:#EDD87E;}
	.st295{fill:#992828;}
	.st296{fill:#C93F3F;}
	.st297{fill:#E1C243;}
	.st298{fill:#D8B213;}
	.st299{fill:#E5CA57;}
	.st300{clip-path:url(#SVGID_00000077300953018768991110000006190319536198441098_);}
	.st301{clip-path:url(#SVGID_00000077313396591208778480000007326607508278436537_);fill:#FECFAE;}
	.st302{fill:#AD8B82;}
	.st303{clip-path:url(#SVGID_00000145751909594126173350000012525008258719560098_);}
	.st304{fill:#7C685B;}
	.st305{clip-path:url(#SVGID_00000165952952615897419190000013658504268876181388_);}
	.st306{clip-path:url(#SVGID_00000025417728186774862270000008370273099873116055_);}
	.st307{fill:#E2D3C5;}
	.st308{fill:#FFEEA9;}
	.st309{fill:#2B211F;}
	.st310{fill:#A3847E;}
	.st311{fill:#544541;}
	.st312{clip-path:url(#SVGID_00000176027403589739022010000006795419095878113719_);fill:#7C251C;}
	.st313{fill:#7C251C;}
	.st314{fill:#CEA380;}
	.st315{clip-path:url(#SVGID_00000129198853969558530610000000138578693687709095_);fill:#8E2F20;}
	.st316{clip-path:url(#SVGID_00000075156321977220405840000001049111522430944162_);fill:#AA4226;}
	.st317{fill:#BA9B95;}
	.st318{fill:#6B5956;}
	.st319{fill:#594947;}
	.st320{fill:#877674;}
	.st321{clip-path:url(#SVGID_00000009570615255283120990000015993504373496919968_);fill:#B6B3C4;}
	.st322{clip-path:url(#SVGID_00000024692449963227827800000004477095175211852184_);fill:#B6B3C4;}
	.st323{clip-path:url(#SVGID_00000156562826876903630100000003844129605409432969_);fill:#E5CA57;}
	.st324{clip-path:url(#SVGID_00000172399010974932002890000017111873451099947680_);fill:#E5CA57;}
	.st325{clip-path:url(#SVGID_00000016053688678654588540000004290151035039639206_);fill:#FECFAE;}
	.st326{fill:#EEC8B8;}
	.st327{fill:#CEA697;}
	.st328{fill:#888499;}
	.st329{fill:#9B4329;}
	.st330{fill:#933D2E;}
	.st331{fill:#843523;}
	.st332{fill:#CC6748;}
	.st333{fill:#B7542E;}
	.st334{fill:#7C3237;}
	.st335{fill:#893724;}
	.st336{fill:#914759;}
	.st337{fill:#D67B5F;}
	.st338{clip-path:url(#SVGID_00000134209613154108180250000013267510835134114981_);fill:#B6B3C4;}
	.st339{clip-path:url(#SVGID_00000120552298678611956280000013774801496316588208_);fill:#B6B3C4;}
	.st340{clip-path:url(#SVGID_00000176765342615794344590000002271930426611933065_);fill:#E5CA57;}
	.st341{clip-path:url(#SVGID_00000132769939669271898740000012987080757796318896_);fill:#E5CA57;}
	.st342{clip-path:url(#SVGID_00000005954654450756907810000017385854787811549591_);fill:#B6B3C4;}
	.st343{clip-path:url(#SVGID_00000111187433323874212010000004365925708956354483_);fill:#B6B3C4;}
	.st344{clip-path:url(#SVGID_00000083807280579604961950000013685957633236266642_);fill:#AED76A;}
	.st345{clip-path:url(#SVGID_00000040570051365623460540000004517229953634243241_);fill:#B6B3C4;}
	.st346{clip-path:url(#SVGID_00000118394447906495175390000008535174028016576920_);fill:#B6B3C4;}
	.st347{clip-path:url(#SVGID_00000105421306450359726160000016282268588065683121_);fill:#E5CA57;}
	.st348{clip-path:url(#SVGID_00000087390645312673065830000002051028738147223942_);}
	.st349{clip-path:url(#SVGID_00000075856606980363613970000014956258845344781226_);fill:#8BBC38;}
	.st350{fill:#A37A79;}
	.st351{fill:#7F74B5;}
	.st352{clip-path:url(#SVGID_00000079464297415006527460000003764975506586991292_);fill:#FECFAE;}
	.st353{clip-path:url(#SVGID_00000038414757232789629620000014347373117315472816_);fill:#E0D1B7;}
	.st354{clip-path:url(#SVGID_00000038414757232789629620000014347373117315472816_);}
	.st355{clip-path:url(#SVGID_00000059267797149133146550000003431175792271536010_);fill:#A37A79;}
	.st356{fill:#682A30;}
	.st357{opacity:0.58;fill:#AA9983;}
	.st358{opacity:0.58;fill:#9B4329;}
	.st359{opacity:0.58;fill:#B7542E;}
	.st360{fill:#755959;}
	.st361{fill:#BC9595;}
	.st362{clip-path:url(#SVGID_00000087399261376353068920000005417317715544887471_);}
	.st363{fill:#E2D8C7;}
	.st364{fill:#969189;}
	.st365{fill:#BAB3A8;}
	.st366{fill:#54423E;}
	.st367{clip-path:url(#SVGID_00000137106236659764323710000009550179644948998306_);fill:#877069;}
	.st368{clip-path:url(#SVGID_00000173875354037905933910000013063716075404065420_);fill:#725B51;}
	.st369{fill:#EFE8DF;}
	.st370{clip-path:url(#SVGID_00000119110850580668129550000015572249240348550040_);fill:#969189;}
	.st371{fill:#765196;}
	.st372{clip-path:url(#SVGID_00000139981188722890574110000016416775061056337824_);fill:#A883C6;}
</style>
<path class="st0" d="M1657.35,1272.24c-26.76-45.93-149.18-339.85-676.26-300.46c-612.93,45.81-832.63,306.19-756.79,511.69
	c98.95,268.14,497.17,175.71,549.52,228.51c52.35,52.8,647.65,268.94,850.25-31.47C1732.18,1520.21,1673.02,1299.12,1657.35,1272.24
	z"/>
<g>
	<defs>
		<path id="SVGID_1_" d="M1657.35,1272.24c-26.76-45.93-149.18-339.85-676.26-300.46c-612.93,45.81-832.63,306.19-756.79,511.69
			c98.95,268.14,497.17,175.71,549.52,228.51c52.35,52.8,647.65,268.94,850.25-31.47
			C1732.18,1520.21,1673.02,1299.12,1657.35,1272.24z"/>
	</defs>
	<clipPath id="SVGID_00000011018392176373528320000002633015806072666263_">
		<use xlink:href="#SVGID_1_"  style="overflow:visible;"/>
	</clipPath>
	<path style="clip-path:url(#SVGID_00000011018392176373528320000002633015806072666263_);fill:#FECFAE;" d="M1162.65,1512.21
		c0,0,170.72,46.39,238.38,138.3c67.66,91.91,39.06,163.4,247.4,241.02c208.34,77.62,138.89-253.28,138.89-253.28
		s-277.96-32.68-300.34-85.79c-22.38-53.11-80.81-127.56-135.34-144.46C1297.11,1391.11,1154.82,1453.56,1162.65,1512.21z"/>
	<path style="clip-path:url(#SVGID_00000011018392176373528320000002633015806072666263_);fill:#FECFAE;" d="M778.28,1512.21
		c0,0-206.87,1.45-267.04,54.56c-60.18,53.11-161.87,150.48-212.94,87.5c-51.06-62.98-110.3-130.39,14.3-128.35
		c124.6,2.04,276.69-117.91,276.69-117.91S796.65,1355.52,778.28,1512.21z"/>
</g>
<path class="st2" d="M1294.38,1278.73l-37.68-36.13l-40.9,41.5C1215.79,1284.1,1283.69,1311.27,1294.38,1278.73z"/>
<polygon class="st2" points="643.44,1278.73 679.76,1245.98 721.76,1266.33 683.94,1298.93 646.12,1286.99 "/>
<polygon class="st2" points="867.89,1343.95 1090.99,1335.8 1105.6,1423.1 983.51,1458.46 884.08,1450.4 849.94,1368 "/>
<polygon class="st3" points="1240.63,1298.93 1225.41,1343.41 1247.44,1403.83 1363.34,1337.44 1294.38,1278.73 "/>
<polygon class="st3" points="697.18,1298.93 712.41,1343.41 694.96,1406.34 574.47,1337.44 643.44,1278.73 "/>
<polygon class="st4" points="740.31,1283.78 971.99,1392.18 1294.38,1239.44 966.49,1140.49 653.89,1242.6 "/>
<polygon class="st6" points="971.78,1439.79 971.99,1392.18 1042.32,1353.39 1062.63,1400.24 "/>
<path class="st363" d="M1157.27,827.59c0,0-11.89-33.74-7.31-85.09c4.58-51.35-350.77-3.48-350.77-3.48s14.13,74.24-1.09,97.83
	c-2.17,3.36,23.39,26.83,25.38,30.75c11.99,23.63,62.44,34.63,62.44,34.63l153.17,9.42l97.29-36.75L1157.27,827.59z"/>
<path class="st364" d="M907.07,892.68v-80.42c0,0-1.8-41.86-37.92-45.44c-36.12-3.58-39.29,39.44-37.71,100.78
	C831.44,867.6,838.7,898.27,907.07,892.68z"/>
<path class="st65" d="M906.43,871.36v-54.91c0,0-1.29-30.73-27.09-33.36s-28.07,28.95-26.94,73.97
	C852.4,857.07,861.32,865.87,906.43,871.36z"/>
<path class="st364" d="M1038.05,896.26l0.4-82.94c0,0,1.8-41.86,37.92-45.44c36.12-3.58,39.29,39.44,37.71,100.78
	C1114.07,868.65,1106.42,901.85,1038.05,896.26z"/>
<path class="st365" d="M906.18,917.07V813.69c0-8.49,3.01-16.9,9.16-24.61c9.36-11.74,26.77-25.98,56.22-25.98
	c22.26,0,37.95,7.66,48.51,16.18c12.26,9.89,18.38,21.88,18.38,34.04v109.81L906.18,917.07z"/>
<path class="st366" d="M784.66,1259.62l119.02,57.62c0,0,66.09-191.68,21.3-215.57c-44.79-23.89-50.16-57.92-66.88-32.84
	C841.39,1093.91,755.94,1200.99,784.66,1259.62z"/>
<path class="st17" d="M1143.32,1252.45l-119.02,57.62c0,0-71.25-206.01-26.46-229.9s55.32-43.59,72.04-18.51
	C1086.59,1086.75,1172.04,1193.83,1143.32,1252.45z"/>
<g>
	<defs>
		<path id="SVGID_00000016797304763507286630000003032965759510496930_" d="M1143.32,1252.45l-119.02,57.62
			c0,0-71.25-206.01-26.46-229.9s55.32-43.59,72.04-18.51C1086.59,1086.75,1172.04,1193.83,1143.32,1252.45z"/>
	</defs>
	<clipPath id="SVGID_00000057111321287133568330000012349595087609468331_">
		<use xlink:href="#SVGID_00000016797304763507286630000003032965759510496930_"  style="overflow:visible;"/>
	</clipPath>
	<polygon style="clip-path:url(#SVGID_00000057111321287133568330000012349595087609468331_);fill:#877069;" points="
		1017.2,1155.79 1059.64,1278.73 1076.22,1268.66 1039.09,1160.64 1051.7,1154.15 1077.42,1236.35 1090.99,1227.4 1062.63,1140.49 
		1076.22,1131.68 1118.76,1252.48 1149.44,1230.08 1066.11,1012.43 978.06,1074.23 	"/>
</g>
<path class="st363" d="M944.1,897.75v-76.38c0-6.27,1.29-12.49,3.91-18.18c3.99-8.67,11.42-19.2,23.98-19.2
	c9.5,0,16.19,5.66,20.7,11.95c5.23,7.31,7.84,16.16,7.84,25.15v81.13L944.1,897.75z"/>
<g>
	<defs>
		<path id="SVGID_00000125581067182839128650000015562415367159820476_" d="M784.66,1259.62l119.02,57.62
			c0,0,66.09-191.68,21.3-215.57c-44.79-23.89-50.16-57.92-66.88-32.84C841.39,1093.91,755.94,1200.99,784.66,1259.62z"/>
	</defs>
	<clipPath id="SVGID_00000125595472133215933540000016754160240193693113_">
		<use xlink:href="#SVGID_00000125581067182839128650000015562415367159820476_"  style="overflow:visible;"/>
	</clipPath>
	<polygon style="clip-path:url(#SVGID_00000125595472133215933540000016754160240193693113_);fill:#725B51;" points="
		852.17,1092.22 798.54,1266.33 812.32,1283.78 869.1,1104.68 885.6,1119.32 836.61,1268.66 852.17,1272.46 889.46,1164.7 
		903.68,1180.04 865.27,1288.28 889.69,1294.73 948.76,1125.28 867.96,1025.86 826.25,1075.13 	"/>
</g>
<path class="st363" d="M740.31,1283.78l44.35-24.16c0,0-25.21-65.82,88.34-191.68c117.37-130.1-66.35-8.96-66.35-8.96l-66.35,144.21
	V1283.78z"/>
<path class="st365" d="M971.99,1392.18l22.27-459.5H893.94c0,0,21.5,207.8,18.25,263.34c-2.68,45.87-39.18,150.34-39.18,150.34
	L971.99,1392.18z"/>
<path class="st365" d="M1205.64,1281.42l-63.6-28.07c0,0-51.06-149.58-78.82-197.95c-27.77-48.37,10.85-73.45,10.85-73.45
	l61.7,71.66l76.14,146.9C1211.91,1200.5,1232.77,1268.62,1205.64,1281.42z"/>
<polygon class="st364" points="1320.29,1358.14 1320.29,1334.86 1290.73,1314.26 1290.73,1288.28 1037.25,1360.83 1090.99,1475.48 
	1162.65,1512.21 1351.64,1408.01 1351.64,1372.92 "/>
<polygon class="st4" points="1037.25,1360.83 1089.2,1392.18 1290.73,1288.28 1242.37,1264.1 "/>
<polygon class="st4" points="1090.99,1413.68 1290.73,1314.26 1320.29,1334.86 1118.76,1431.59 "/>
<polygon class="st4" points="1128.61,1457.57 1320.29,1358.14 1351.64,1372.92 1163.99,1479.96 "/>
<polygon class="st364" points="620.64,1358.14 620.64,1334.86 650.2,1314.26 650.2,1288.28 903.68,1360.83 849.94,1475.48 
	778.28,1512.21 589.29,1408.01 589.29,1372.92 "/>
<polygon class="st4" points="903.68,1360.83 851.73,1392.18 650.2,1288.28 698.57,1264.1 "/>
<polygon class="st4" points="849.94,1413.68 650.2,1314.26 620.64,1334.86 822.17,1431.59 "/>
<polygon class="st4" points="812.32,1457.57 620.64,1358.14 589.29,1372.92 776.94,1479.96 "/>
<path class="st363" d="M971.99,1392.18c0,0,4.6-326.93,0-459.5h39.5c0,0,8.05,346.83,62.59,410.78L971.99,1392.18z"/>
<path class="st363" d="M1205.64,1281.42c0,0-3.58-80.62-53.74-158.24c-50.16-77.63-83.6-164.81-83.6-164.81l15.26-49.64l45.05-14.85
	c0,0,26.33,180.76,165.76,345.57L1205.64,1281.42z"/>
<path class="st124" d="M1090.99,911.65c0,0,11.76,165.94,58.44,193.16l0,0c-24.11-2.19-49.52-10.25-68.21-25.63
	c-0.13-0.11-0.26-0.21-0.38-0.32h0l-29.14,75.29c0,0-64.86-107.03-41.04-229.52L1090.99,911.65z"/>
<path class="st120" d="M710.39,621.58c-6.37,10.9-9.77,22.37-9.77,34.21c0,71.54,124.02,129.54,277,129.54s277-58,277-129.54
	c0-11.84-3.42-23.31-9.78-34.21H710.39z"/>
<path class="st365" d="M740.31,1283.78l-86.42-41.18c0,0,129.66-155.25,166.49-357.68L873,921.94c0,0,16.91,107.98-35.2,154.66
	C746.49,1158.4,740.31,1283.78,740.31,1283.78z"/>
<path class="st3" d="M847.85,902.23c0,0,21.3,88.38-55.73,184.22l78.79-5.08l30.68,79.27c0,0,47.81-109.72,22.73-238.7
	L847.85,902.23z"/>
<path class="st365" d="M1157.27,847.89c0,0,22.94,90.17-185.29,89.57c0,0-165.23-2.99-171.8-88.97c0,0,26.67,62.88,171.8,63.3
	C1117.12,912.2,1146.53,870.58,1157.27,847.89z"/>
<path class="st369" d="M1157.27,827.59c0,0,22.94,90.17-185.29,89.57c0,0-167.32,5.67-173.89-80.32c0,0,31.12,56.61,176.26,57.03
	C1119.48,894.28,1146.53,850.28,1157.27,827.59z"/>
<path class="st65" d="M1039.09,872.41v-54.91c0,0,1.29-30.73,27.09-33.36c25.81-2.63,28.07,28.95,26.94,73.97
	C1093.12,858.12,1084.2,866.93,1039.09,872.41z"/>
<path class="st23" d="M1186.35,573.83L1186.35,573.83c0,0-0.08-0.04-0.23-0.11c-1.54-0.75-3.09-1.49-4.67-2.22
	c-17.01-8.22-71.99-25.65-78.81-47.86c-8.06-26.24-246.62,0-246.62,0s-24.9,28.07-76.1,45.11c-3.75,1.63-7.39,3.29-10.91,5.01
	c-0.05,0.02-0.09,0.04-0.14,0.06c-1.32,0.56-2.52,1.17-3.63,1.82c-40.33,20.5-64.63,46.91-64.63,75.75
	c0,65.17,124.02,117.99,277,117.99s277-52.83,277-117.99C1254.62,621.7,1228.86,594.57,1186.35,573.83z"/>
<path class="st3" d="M1186.35,573.83L1186.35,573.83c0,0-0.08-0.04-0.23-0.11c-1.54-0.75-3.09-1.49-4.67-2.22
	c-17.01-8.22-71.99-25.65-78.81-47.86c-8.06-26.24-246.62,0-246.62,0s-24.9,28.07-76.1,45.11c-3.75,1.63-7.39,3.29-10.91,5.01
	c-0.05,0.02-0.09,0.04-0.14,0.06c-1.32,0.56-2.52,1.17-3.63,1.82c-40.33,20.5-64.63,46.91-64.63,75.75
	c0,65.17,124.02,117.99,277,117.99s277-52.83,277-117.99C1254.62,621.7,1228.86,594.57,1186.35,573.83z"/>
<path class="st363" d="M845.48,587.8c-2.2,4.14-2.74,8.95-1.34,13.42c5.49,17.63,29.71,51.88,134.96,51.88
	c141.74,0,135.28-62.1,135.28-62.1s-10.86-70.46,0-136.15c5.11-30.9-265.83,0.6-265.83,0.6S856.82,566.5,845.48,587.8z"/>
<g>
	<defs>
		<path id="SVGID_00000085227861726123058370000016836821443029870257_" d="M846.3,586.03c-2.87,7.11-2.89,15.12,0.61,21.94
			c9.45,18.39,39.17,45.13,132.19,45.13c141.74,0,135.28-62.1,135.28-62.1s-10.86-70.46,0-136.15c5.11-30.9-265.83,0.6-265.83,0.6
			S856.41,561,846.3,586.03z"/>
	</defs>
	<clipPath id="SVGID_00000157270403860501163020000012212950264796315306_">
		<use xlink:href="#SVGID_00000085227861726123058370000016836821443029870257_"  style="overflow:visible;"/>
	</clipPath>
	<path style="clip-path:url(#SVGID_00000157270403860501163020000012212950264796315306_);fill:#969189;" d="M1000.53,652.12v-89.98
		c0,0,2.17-50.35,45.62-54.66c43.45-4.31,47.26,47.44,45.36,121.23C1091.5,628.71,1082.77,658.85,1000.53,652.12z"/>
	<path style="clip-path:url(#SVGID_00000157270403860501163020000012212950264796315306_);fill:#969189;" d="M962.27,652.12v-89.98
		c0,0-2.17-50.35-45.62-54.66c-43.45-4.31-47.26,47.44-45.36,121.23C871.29,628.71,880.02,658.85,962.27,652.12z"/>
</g>
<path class="st65" d="M1001.3,633.23v-66.05c0,0,1.55-36.96,32.59-40.12c31.04-3.16,33.77,34.82,32.4,88.99
	C1066.29,616.04,1055.57,626.63,1001.3,633.23z"/>
<path class="st65" d="M961.5,633.23v-66.05c0,0-1.55-36.96-32.59-40.12c-31.04-3.16-33.77,34.82-32.41,88.99
	C896.5,616.04,907.23,626.63,961.5,633.23z"/>
<path class="st120" d="M1168.94,401.82c-0.01-3.53-1.59-1.39-4.47-3.43c-13.13-9.33-52.18-37.48-91.22-69.37
	c-47.86-39.1-95.68-83.8-95.63-106.33c0.05,22.53-47.77,67.24-95.63,106.33c-39.04,31.89-78.09,60.03-91.22,69.37
	c-1.64,3.08-2.16-3.9-3.8-0.82c0,0.05-0.86,9.68-0.86,9.74c0,49.89,85.74,92.68,191.51,92.68s191.31-48.62,191.31-98.51
	C1168.93,401.46,1168.94,401.84,1168.94,401.82z"/>
<path class="st3" d="M1169.13,397.7c-0.01-3.53-1.78-6.82-4.66-8.86c-13.13-9.33-52.18-37.48-91.22-69.37
	c-47.86-39.1-95.68-83.8-95.63-106.33c0.05,22.53-47.77,67.24-95.63,106.33c-35.86,29.29-71.73,55.42-87.51,66.72
	c-2.46,1.76-4.47,4.07-5.87,6.75c-1.3,2.47-1.65,4.67-1.65,4.7c0,49.89,84.9,90.46,190.66,90.46s191.51-40.45,191.51-90.34
	C1169.13,397.74,1169.13,397.72,1169.13,397.7z"/>
<path class="st249" d="M1018.53,271.28c0,0-14.6-12.34-33.54-38.03l-11.31-0.14l-36.78,37.98l3.37,1.8
	c22.27,15.92,52.42,15.81,74.63-0.19L1018.53,271.28z"/>
<polygon class="st3" points="971.78,1435.23 983.51,1481.45 974.13,1536.39 845.57,1475.48 883.38,1394.82 "/>
<polygon class="st124" points="971.78,1435.23 974.13,1536.39 1090.99,1475.48 1053.18,1394.82 "/>
<path class="st246" d="M1014.9,267.7c0,0-12.41-11.84-29.91-39.46l-11.31-0.14l-33.41,39.79v0
	C962.54,283.8,992.69,283.69,1014.9,267.7L1014.9,267.7z"/>
<polygon class="st246" points="1003.93,209.18 981.35,171.63 954.63,208.58 977.7,219.66 "/>
<polygon class="st249" points="1003.93,209.18 987.84,232.48 979.84,234.41 970.21,232.24 954.63,208.58 974.3,212.99 "/>
<polygon class="st247" points="978.26,175.91 981.79,135.53 983.96,175.98 "/>
<path class="st124" d="M1005.06,318.04c-2.05-3.32-1.25-7.66,1.88-9.99c4.12-3.07,9.18-7.08,10.91-9.46
	c3.08-4.24,22.12,29.04,20.54,36.24c-1.58,7.2-14.67,12.28-17.51,11.04C1018.7,344.91,1011.31,328.14,1005.06,318.04z"/>
<path class="st124" d="M1188.43,658.18c-1.51-2.01-1.25-4.85,0.62-6.53c2.46-2.21,5.48-5.09,6.45-6.73
	c1.73-2.91,15.94,17.36,15.35,22.08c-0.59,4.72-8.71,8.76-10.6,8.13C1198.79,674.64,1193.04,664.3,1188.43,658.18z"/>
<path class="st124" d="M1148.55,640.01c-2.44-3.24-2.02-7.81,1-10.53c3.97-3.57,6.51-8.25,11.47-9.71
	c5.23-1.54,24.61,26.84,23.66,34.46c-0.95,7.61-14.03,14.12-17.09,13.1C1165.24,666.54,1155.98,649.88,1148.55,640.01z"/>
<path class="st124" d="M1071.46,413.32c-3.15-4.09-2.67-9.91,1.13-13.4c5-4.59,11.12-10.56,13.07-13.92
	c3.48-6,33.03,35.21,31.92,44.9c-1.11,9.69-17.65,18.14-21.54,16.89C1093.03,446.82,1081.04,425.77,1071.46,413.32z"/>
<path class="st124" d="M998.21,359.18c-1.39-2.89-0.36-6.37,2.39-8.01c3.63-2.16,8.11-5,9.73-6.8c2.88-3.21,15.6,25.63,13.7,31.38
	s-10.58,10.11-12.79,8.85C1009.53,383.63,1002.45,367.97,998.21,359.18z"/>
<path class="st124" d="M978.29,426.7c-1.5-3.11-0.39-6.86,2.58-8.63c3.91-2.32,8.74-5.39,10.48-7.33
	c3.11-3.45,16.82,27.62,14.76,33.82c-2.06,6.2-11.4,10.89-13.78,9.54C990.49,453.05,982.86,436.17,978.29,426.7z"/>
<path class="st124" d="M1095.66,687.83c-1.82-2.64-1.33-6.24,1.15-8.28c3.26-2.68,7.26-6.18,8.58-8.2
	c2.36-3.61,19.31,22.97,18.29,28.94c-1.01,5.98-8.92,11.59-11.3,10.69C1110.56,710.28,1101.19,695.87,1095.66,687.83z"/>
<path class="st4" d="M1380.91,1282.96v96.86c0,1.74,1.06,3.13,2.31,4.34c3.53,3.41,11,3.98,15.84,0.13c1.24-0.99,1.97-2.5,1.97-4.09
	v-97.23H1380.91z"/>
<path class="st3" d="M1319.35,1073.12v159.5c0,1.68,0.71,3.28,1.96,4.41l49.95,45.23c6.01,5.44,14.39,7.42,22.2,5.24l53.06-14.82
	c2.57-0.72,4.35-3.06,4.35-5.73v-133.22c0-2.24-1.26-4.29-3.26-5.3l-119.63-60.61C1324.03,1065.81,1319.35,1068.69,1319.35,1073.12z
	"/>
<g>
	<path class="st365" d="M1315.52,1050.01l171.47,85.83l-14.37,21.84l-168.59-89.28C1304.02,1068.4,1301.72,1055.18,1315.52,1050.01z
		"/>
	<path class="st4" d="M1484.43,1135.46c-5.19,2.15-13.57,7.54-12.97,19.89c0.1,1.97,1.6,3.4,3.26,3c4.23-1,11.76-4.84,13.37-19.48
		C1488.35,1136.47,1486.39,1134.65,1484.43,1135.46z"/>
</g>
<path class="st371" d="M1335.19,1075.69v142.99c0,1.51,0.54,2.94,1.48,3.95l37.92,40.55c4.56,4.88,10.93,6.65,16.86,4.7l40.29-13.29
	c1.95-0.64,3.3-2.74,3.3-5.14v-119.43c0-2.01-0.96-3.85-2.47-4.76l-90.82-54.34C1338.74,1069.14,1335.19,1071.71,1335.19,1075.69z"
	/>
<g>
	<defs>
		<path id="SVGID_00000055692574299525110960000001374710060334803108_" d="M1315.52,1050.01l171.47,85.83l-14.37,21.84
			l-168.59-89.28C1304.02,1068.4,1301.72,1055.18,1315.52,1050.01z"/>
	</defs>
	<clipPath id="SVGID_00000000185032691678403810000003114159329843757237_">
		<use xlink:href="#SVGID_00000055692574299525110960000001374710060334803108_"  style="overflow:visible;"/>
	</clipPath>
	<path style="clip-path:url(#SVGID_00000000185032691678403810000003114159329843757237_);fill:#A883C6;" d="M1452.15,1146.84
		c0,0-6.09-14.66,10.9-22.98l-136.53-68.34c0,0-15.58,6.63-7.17,21C1327.18,1089.9,1452.15,1146.84,1452.15,1146.84z"/>
</g>
<path class="st11" d="M1353.95,1603.04c-3.85-41.63,18.32-50.06,20.07-59.86c0,0-37.53,10.84-38.55,37.53l-4.7-30.46
	c0,0,19.78-27.52,8.24-58.38c0,0-22.18,71.6-35.52,69.15c0,0,11.46-24.65,1.85-36.14c0,0-17.33,35.46-20.93,45.07
	C1271.13,1605.43,1355.74,1622.73,1353.95,1603.04z"/>
<path class="st11" d="M1255.85,1566.84c0,0,7.28-41.22,3.18-62.92c0,0,23.74,32.87,18.92,56.62
	C1273.14,1584.29,1255.85,1566.84,1255.85,1566.84z"/>
<path class="st11" d="M1412.45,1709.34c0,0,26.37-32.51,33.32-53.47c0,0,4.8,40.26-10.94,58.69
	C1419.1,1732.98,1412.45,1709.34,1412.45,1709.34z"/>
<path class="st11" d="M1418.28,1721.37c0,0,30.99-18.08,42.92-32.77c0,0-8.35,33.74-26.55,43.74
	C1416.45,1742.34,1418.28,1721.37,1418.28,1721.37z"/>
<path class="st11" d="M556.76,1591.76c2.03-3.59,41.69-74.2,36.39-103.82c-0.17-0.93,1.08-1.39,1.54-0.56
	c8.01,14.37,22.12,51.79-7.57,104.53c-37.38,66.38-30.88,3.87-30.47,0.17C556.67,1591.96,556.7,1591.86,556.76,1591.76z"/>
<path class="st11" d="M551.74,1574.65c0.46-2.51,10.11-56.43-0.08-73.45c-0.28-0.47,0.31-0.96,0.72-0.6
	c8.01,6.98,25.63,27.38,18.43,67.5c-8.97,49.93-18.57,8.92-19.07,6.74C551.73,1574.76,551.73,1574.71,551.74,1574.65z"/>
<path class="st11" d="M535.97,1597.06c0.47-2.59,10.04-56.08,0.02-73.28c-0.29-0.5,0.33-1.03,0.77-0.64
	c8.08,7.1,25.45,27.49,18.28,67.37c-8.96,49.88-18.55,9.01-19.07,6.74C535.96,1597.19,535.95,1597.13,535.97,1597.06z"/>
<path class="st30" d="M1595.11,896.62c3.33,3.33,6.67,6.67,10,10c-3.33,0-6.67,0-10,0C1595.11,903.28,1595.11,899.95,1595.11,896.62
	z"/>
<g>
	<path class="st124" d="M1368.84,1137.75c4.53,4.56,8.44,8.55,12.4,12.48c9.28,9.22,18.56,18.45,27.91,27.6
		c1.5,1.47,1.96,2.89,1.55,4.96c-2.47,12.4-10.09,20.93-20.48,27.33c-6.3,3.88-4.45,4.36-9.84-1.06
		c-12.16-12.21-24.13-24.62-36.16-36.96c-0.42-0.43-0.74-0.97-1.41-1.86c6.94-2.72,13.38-5.93,18.14-11.68
		C1365.75,1152.76,1367.87,1145.92,1368.84,1137.75z"/>
	<path class="st371" d="M1385,1214.32c-1.15,0-2.12-0.88-3.84-2.67c-0.47-0.49-1.01-1.05-1.66-1.71c-8.96-9-17.95-18.25-26.65-27.19
		c-3.17-3.26-6.34-6.52-9.52-9.77c-0.34-0.35-0.6-0.72-0.93-1.18c-0.16-0.23-0.35-0.49-0.58-0.8l-0.99-1.32l1.53-0.6
		c6.36-2.5,12.9-5.59,17.64-11.31c4.21-5.09,6.56-11.31,7.6-20.16l0.3-2.58l6.04,6.09c2.84,2.87,5.5,5.56,8.18,8.22l1.56,1.55
		c8.61,8.56,17.52,17.41,26.35,26.04c1.83,1.79,2.4,3.61,1.9,6.1c-2.32,11.64-9.21,20.85-21.05,28.15
		c-0.99,0.61-1.77,1.13-2.42,1.56C1386.9,1213.79,1385.89,1214.32,1385,1214.32z M1344.77,1170.81c0.12,0.17,0.24,0.3,0.35,0.42
		c3.18,3.26,6.35,6.52,9.52,9.78c8.7,8.94,17.69,18.19,26.63,27.17c0.66,0.67,1.22,1.25,1.69,1.74c0.92,0.96,1.79,1.86,2.09,1.91
		c0.27,0.05,1.18-0.6,2.02-1.16c0.66-0.44,1.47-0.98,2.49-1.61c11.22-6.92,17.73-15.59,19.91-26.51c0.33-1.63,0.01-2.63-1.2-3.82
		c-8.83-8.64-17.74-17.5-26.36-26.06l-1.56-1.55c-2.68-2.67-5.35-5.36-8.2-8.24l-2.43-2.45c-1.25,8.04-3.7,13.95-7.82,18.92
		C1357.2,1165.06,1350.96,1168.28,1344.77,1170.81z"/>
</g>
<g>
	<path class="st124" d="M1383.38,1229.28c-0.83-0.83-1.7-1.63-2.49-2.5c-12.01-13.24-23.94-26.56-36.06-39.69
		c-3.63-3.93-1.94-8.56-2.93-12.82c0.23-0.14,0.46-0.28,0.69-0.43c2.95,2.96,5.93,5.88,8.84,8.87c9.93,10.2,19.89,20.38,29.69,30.71
		c1.21,1.27,1.89,3.34,2.17,5.13c0.53,3.43,0.6,6.93,0.87,10.39C1383.89,1229.06,1383.63,1229.17,1383.38,1229.28z"/>
	<path class="st371" d="M1383.09,1230.77l-0.6-0.6c-0.26-0.26-0.52-0.52-0.79-0.78c-0.59-0.58-1.18-1.16-1.74-1.77
		c-3.64-4.01-7.27-8.03-10.9-12.04c-8.21-9.09-16.71-18.49-25.15-27.64c-2.73-2.96-2.8-6.32-2.87-9.27
		c-0.03-1.45-0.06-2.81-0.36-4.11l-0.2-0.88l2.3-1.42l0.7,0.7c0.92,0.92,1.85,1.84,2.77,2.76c2.04,2.03,4.07,4.06,6.08,6.12
		l4.34,4.46c8.35,8.57,16.98,17.43,25.35,26.26c1.66,1.75,2.27,4.38,2.5,5.8c0.39,2.48,0.54,5,0.68,7.44
		c0.06,1.02,0.12,2.03,0.2,3.05l0.07,0.89L1383.09,1230.77z M1343.47,1176.49c0.05,0.71,0.06,1.42,0.08,2.12
		c0.06,2.88,0.11,5.37,2.21,7.63c8.45,9.16,16.95,18.57,25.17,27.66c3.63,4.02,7.26,8.03,10.89,12.04c0.3,0.33,0.62,0.66,0.94,0.98
		c-0.02-0.32-0.04-0.64-0.06-0.96c-0.14-2.38-0.29-4.85-0.65-7.21c-0.3-1.89-0.98-3.56-1.84-4.46
		c-8.37-8.82-16.99-17.67-25.33-26.24l-4.34-4.46c-2-2.05-4.02-4.07-6.05-6.09C1344.14,1177.16,1343.8,1176.82,1343.47,1176.49z"/>
</g>
<g>
	<path class="st124" d="M1386.47,1215.18c1.6-1.06,3.2-2.12,4.81-3.17c10.84-7.04,18.91-16.11,21.65-29.19
		c0.49-2.36,0.1-4.08-1.69-5.83c-9.15-8.91-18.18-17.93-27.24-26.93c-2.99-2.97-2.95-3.21,0.6-6.48c4.04,4.12,8.06,8.28,12.15,12.37
		c8.58,8.59,17.15,17.2,25.85,25.68c1.68,1.63,1.76,2.87,0.68,4.8c-6.51,11.69-16.4,19.66-28.04,25.72
		c-2.7,1.41-5.52,2.59-8.29,3.87C1386.79,1215.74,1386.63,1215.46,1386.47,1215.18z"/>
	<path class="st371" d="M1386.42,1217.65l-1.61-2.87l2.53-1.67c1.08-0.72,2.17-1.44,3.26-2.15c11.98-7.78,18.68-16.81,21.11-28.4
		c0.43-2.06,0.08-3.29-1.34-4.67c-7.66-7.47-15.37-15.13-22.83-22.55l-4.42-4.4c-1.43-1.42-2.55-2.54-2.53-3.94
		c0.03-1.46,1.27-2.61,3.16-4.35l0.89-0.82l4.65,4.75c2.77,2.84,5.54,5.67,8.35,8.48l2.7,2.71c7.55,7.56,15.35,15.38,23.13,22.96
		c2.03,1.98,2.29,3.81,0.9,6.31c-5.99,10.76-15.33,19.34-28.56,26.22c-1.88,0.98-3.83,1.85-5.71,2.7c-0.88,0.39-1.76,0.79-2.63,1.19
		L1386.42,1217.65z M1384.55,1145.33c-0.75,0.71-1.46,1.45-1.46,1.73c-0.01,0.33,1.16,1.49,1.79,2.12l4.42,4.4
		c7.45,7.41,15.16,15.07,22.81,22.53c2.04,1.99,2.65,4.07,2.04,6.98c-2.28,10.9-8.39,19.93-18.62,27.51
		c12.32-6.57,21.04-14.68,26.65-24.76c0.83-1.5,0.75-2.12-0.46-3.3c-7.79-7.59-15.6-15.42-23.16-22.98l-2.7-2.71
		c-2.81-2.81-5.59-5.66-8.37-8.5L1384.55,1145.33z"/>
</g>
<g>
	<path class="st124" d="M1425.45,1195.56c-0.32,3.24-0.54,6.5-1.02,9.71c-0.11,0.71-1.02,1.47-1.71,1.84
		c-12.44,6.48-24.89,12.9-37.43,19.38c-2.4-4.08-1.43-7.84,2.73-10.09c10.4-5.62,20.76-11.33,31.08-17.14
		c1.91-1.08,3.58-2.73,5.36-4.12C1424.8,1195.29,1425.13,1195.42,1425.45,1195.56z"/>
	<path class="st371" d="M1384.85,1228.3l-0.59-1c-1.36-2.31-1.81-4.65-1.3-6.77c0.53-2.23,2.1-4.11,4.54-5.42
		c10.12-5.47,20.57-11.23,31.06-17.13c1.21-0.68,2.32-1.62,3.51-2.61c0.56-0.48,1.13-0.95,1.7-1.4l0.53-0.42l2.51,1.05l-0.11,1.12
		c-0.08,0.86-0.16,1.71-0.24,2.57c-0.21,2.37-0.43,4.82-0.79,7.23c-0.25,1.69-2.06,2.71-2.42,2.9
		c-10.29,5.37-20.6,10.69-30.96,16.04L1384.85,1228.3z M1424.04,1197.26c-0.16,0.14-0.33,0.28-0.49,0.41
		c-1.22,1.03-2.48,2.09-3.89,2.88c-10.5,5.9-20.97,11.67-31.1,17.14c-1.75,0.95-2.85,2.19-3.19,3.59c-0.25,1.02-0.1,2.15,0.43,3.37
		l5.45-2.82c10.35-5.35,20.66-10.67,30.95-16.04c0.5-0.26,0.94-0.69,1.02-0.87c0.32-2.22,0.54-4.62,0.75-6.94
		C1423.99,1197.75,1424.01,1197.5,1424.04,1197.26z"/>
</g>
</svg>
