<svg id="Capa_1" enable-background="new 0 0 512 512" height="512" viewBox="0 0 512 512" width="512" xmlns="http://www.w3.org/2000/svg"><g><g><g><g><g><g><circle cx="256" cy="256" fill="#7584f2" r="256"/></g></g></g></g></g><path d="m100.881 319.515 190.242 190.095c113.288-15.544 202.95-105.21 218.489-218.5l-99.833-99.97-4.403-4.266z" fill="#4253ce"/><path d="m256 127.58 75.851 128.42-75.851 128.42c-88.44 0-164.56-52.71-198.68-128.42 34.12-75.71 110.24-128.42 198.68-128.42z" fill="#fff"/><path d="m454.68 256c-34.12 75.71-110.24 128.42-198.68 128.42v-256.84c88.44 0 164.56 52.71 198.68 128.42z" fill="#e9edf5"/><g><circle cx="256" cy="256" fill="#a3d4ff" r="117.255"/></g><g><path d="m256 373.25c64.76 0 117.25-52.49 117.25-117.25s-52.49-117.25-117.25-117.25z" fill="#65b1fc"/></g><path d="m284.611 256c0 59.27-28.625 107.317-28.625 107.317s-28.625-48.047-28.625-107.317 28.625-107.317 28.625-107.317 28.625 48.048 28.625 107.317z" fill="#636978"/><path d="m284.61 256c0 59.27-28.62 107.32-28.62 107.32v-214.64s28.62 48.05 28.62 107.32z" fill="#414952"/></g></svg>