<?xml version="1.0" encoding="utf-8"?>
<!-- Generator: Adobe Illustrator 26.0.1, SVG Export Plug-In . SVG Version: 6.00 Build 0)  -->
<svg version="1.1" id="Layer_1" xmlns="http://www.w3.org/2000/svg" xmlns:xlink="http://www.w3.org/1999/xlink" x="0px" y="0px"
	 viewBox="0 0 3038 3038" style="enable-background:new 0 0 3038 3038;" xml:space="preserve">
<style type="text/css">
	.st0{fill:#E1E1DF;}
	.st1{fill:#71726B;}
	.st2{fill:#9C9E96;}
	.st3{fill:#AED76A;}
	.st4{fill:#AFD76A;}
	.st5{fill:#BBB8A9;}
	.st6{fill:#8E8B7F;}
	.st7{fill:#908E82;}
	.st8{fill:#79685F;}
	.st9{fill:#79685E;}
	.st10{fill:#564A44;}
	.st11{fill:#574B45;}
	.st12{fill:#77A22F;}
	.st13{fill:#8BBD39;}
	.st14{fill:#2F7F5E;}
	.st15{fill:#245F47;}
	.st16{fill:#235F47;}
	.st17{fill:#2F7A5B;}
	.st18{fill:#3EA279;}
	.st19{fill:#3FA379;}
	.st20{fill:#2B3338;}
	.st21{fill:#4D565D;}
	.st22{fill:#4E575E;}
	.st23{fill:#190D03;}
	.st24{fill:#3B322E;}
	.st25{fill:#180C02;}
	.st26{fill:#9D9F96;}
	.st27{fill:#9EA097;}
	.st28{fill:#7B6A60;}
	.st29{fill:#307F5F;}
	.st30{fill:#256049;}
	.st31{fill:#584D47;}
	.st32{fill:#5A4E49;}
	.st33{fill:#78675E;}
</style>
<path class="st0" d="M932,2833.9c0-0.3,0-0.6,0-0.8c12.7,0,25.4,0,38.1,0c0,0.3,0,0.6,0,0.8C957.4,2833.9,944.7,2833.9,932,2833.9z"
	/>
<path class="st1" d="M970.1,2833.1c-12.7,0-25.4,0-38.1,0c-26.5-0.6-53-1.2-79.4-3.1c-26.2-1.9-52.5-3.7-78.6-6.8
	c-60.1-7.1-119.5-18.4-179.3-27.3c-76.8-11.4-149.6-36-220.8-66c-21.4-9-42-19.5-59.4-35.4c-8.6-7.9-17.5-15.6-20.7-27.5
	c-0.3-1.2-1.3-2.3-2.1-3.4c-11.2-15.3-15.5-32.7-13.2-51.1c7.8-60.9,17.9-121.5,31.5-181.3c2.1-9.4,4.5-18.7,6.9-28.1
	c1.6-6.3,4-12.3,7.8-17.7c3.1-4.5,7.1-8.3,12.4-9.6c5-1.2,7.8-4.2,10.7-8c13-17,31.2-26.8,50.4-34.7c27.9-11.5,57.1-17.7,86.7-23
	c45.9-8.2,92.3-10.2,138.8-8.8c32.1,0.9,64.1,4.5,95.9,9.1c38.2,5.5,76.2,12.3,114,20.2c15.5,3.2,31.4,3.3,47.2,4.4
	c63.5,4.6,127.2,5.4,190.8,5.5c26.6,0.1,53.3,1.3,79.9,2.1c5.8,0.2,11.2-0.9,16.6-3c18.6-7.5,36.4-16.6,53.8-26.3
	c54.3-30,111.9-51.9,170.7-71.2c77.7-25.6,157-45.1,237.3-60.2c42.2-7.9,84.6-14.6,127.3-19.6c28.6-3.3,57.3-5.9,86.1-7.5
	c35.4-2,70.9-3.3,106.4-2.5c20,0.4,40,1.2,60,0.5c24.8-0.9,49.6-1.6,74.5-1.5c47.3,0.2,94.6,2.2,141.7,6.9
	c84.9,8.4,168,25.6,249.9,49.2c42.7,12.3,85.4,24.5,126.9,40.6c13.1,5.1,25.4,11.5,37.4,18.8c18.2,11,32.2,26.4,42,44.6
	c23.1,42.8,43.1,87,58.1,133.4c4,12.5,6.5,25.2,3.6,38.3c-1.1,5.1-2.9,9.9-6.6,13.8c-36.6,39.8-76.1,75.9-123.2,103.3
	c-41.6,24.2-86.3,40.8-131.8,55.5c-39.6,12.8-79.7,23.8-120.8,30.6c-12.5,2.1-25.2,1.7-37.7,3.6c-39.6,6.1-79.3,8.8-119.4,9.4
	c-31.8,0.5-63.2-3.4-94.8-5c-29.9-1.5-59.9-3.4-89.8-5.6c-35.9-2.6-71.8-4.9-107.5-8.6c-24.3-2.5-48.7-4.7-73-7.4
	c-23.1-2.6-46.2-5.9-69.3-8.4c-24.1-2.6-48-6.9-72-9.8c-12.2-1.5-24.9-0.1-37.4,0.6c-13.5,0.7-26.9,1.8-40.3,2.7
	c-24.9,1.7-49.6,5.3-74.2,9.6c-43,7.6-85.7,16.9-128.1,27.6c-2.8,0.7-5.2,2.2-7.5,3.9c-34,24.1-67.9,48.3-104,69.2
	c-45.1,26-93.3,43-145,49.9c-15.8,2.1-31.4,5.8-47.2,8.1c-11.8,1.8-23.9,2-35.8,2.8C1042.3,2831.2,1006.2,2832.4,970.1,2833.1z"/>
<path class="st2" d="M1851.9,2121.1c21.9-0.7,49.4,0.5,76.9,1.3c26.4,0.7,52.9,2.1,79.3,4c38.3,2.7,76.6,6,114.7,10.5
	c24.4,2.9,49,4.9,73.4,7.4c41.5,4.2,83.1,8,124.4,13.6c37.9,5.1,75.7,10.4,112.8,20.2c19.5,5.1,38.5,11.6,56.9,20
	c14.7,6.7,30.6,10.1,45.6,16.2c27.9,11.2,56.4,21.4,83.2,35.1c8.9,4.5,16.9,10.6,25.1,16.2c7.8,5.4,15.1,11.4,22,17.7
	c7.2,6.6,10.5,16,13.6,25.2c0.4,1.1,0.6,2.2,0.8,3.4c1.3,8.8,0.7,16.2-7.3,23.1c-28.2,24.2-59.8,43.3-91.2,62.8
	c-47.5,29.5-99.4,47.6-152.9,62.4c-27.2,7.5-54.3,15.7-81.4,23.6c-5.3,1.5-10.5,2.3-16.2,1.6c-8.6-1-17.3-0.6-25.9-1.1
	c-19.4-1.2-38.9-1.2-58.3-2.4c-27.3-1.7-54.7-3.4-81.8-7.6c-1.1-0.2-2.3-0.2-3.5-0.2c-25.2,0.2-50.3-0.3-75.4-2.1
	c-37.4-2.8-74.8-3.7-112.2-5.2c-22.9-0.9-45.9-2.3-68.8-3.9c-29.9-2.1-59.7-4.5-89.5-7.6c-28.1-2.9-56.3-5.3-84.4-8.4
	c-31.6-3.5-63.2-6.1-94.9-8.6c-11.9-0.9-23.9-1.7-35.9-2c-23.3-0.8-46.6-1.8-69.9-1.1c-14.5,0.4-29,0.9-43.4,2.1
	c-7.3,0.6-13.9,4.5-20.6,7.3c-39.5,16.6-77.8,35.6-116.4,54.1c-21,10.1-42.3,19.4-64.2,27.6c-10.7,4-20.7,9.9-31.1,14.7
	c-53.9,25.1-110.3,42.9-168.4,55.4c-4.4,0.9-8.9,1.1-13.4,1.3c-38.4,1.6-76.9,3.2-115.4,2c-28.6-1-57.2-2.9-85.7-5.4
	c-18.7-1.6-37.5-2.7-56.2-4.3c-33.3-2.9-66.5-6-99.5-11.5c-10.6-1.7-21.5-2-32.2-3.5c-21.9-2.9-43.8-6-65.6-9.3
	c-26.1-3.9-52.3-7.5-78.2-12.8c-54.2-11.1-107.4-26.1-158.1-48.5c-17.9-7.9-35.5-16.8-50.7-29.7c-26.6-22.8-32.2-57.3-13.5-86.7
	c3.6-5.6,6.5-11.4,8.6-17.8c5.2-15.7,16.8-26,30.5-34.4c20.4-12.4,43.1-18.3,66.2-22.7c9.1-1.7,17.5-5.2,26.1-8.3
	c57.2-20.8,116-35.7,175.6-47.8c25.6-5.2,50.7-12.4,76.3-17.5c40.6-8.1,81.4-15.2,122.2-21.7c31.4-5,62.8-9.4,94.3-13.5
	c21.6-2.8,43.3-5,64.9-7.4c36.5-3.9,73.1-7.3,109.4-12.6c31.9-4.7,63.9-8.4,95.9-12.4c29-3.6,58-7.3,87.1-10.7
	c23.1-2.7,46.3-4.9,69.4-7.4c27.9-2.9,55.9-5.9,83.8-8.7c23.2-2.3,46.4-4.2,69.5-6.3c25.3-2.3,50.7-4.6,76-6.7
	c14.9-1.2,29.9-2.3,44.8-3.2c28.2-1.7,56.5-3.3,84.7-4.9c8.5-0.5,17-0.5,25.4-0.9c16.6-0.9,33.3-0.7,49.9-1.4
	C1801.6,2121.1,1824,2121.1,1851.9,2121.1z"/>
<path class="st3" d="M431.1,2367c2.2-2.2,1.7-5.2,2.5-7.9c2.6-9.1,7.3-17.1,13.4-24.3c2-2.4,3.3-5,3.7-8c2.8-23.4,17-37.3,38.3-44.7
	c25.5-8.8,51.8-14.6,78-21c33-8,66.3-14.2,99.7-20.2c22.4-4,44.6-9.3,67.2-12.2c15.8-2,31.7-3.7,47.7-4.6
	c89.4-4.9,178.9-2,268.3-3.2c42.8-0.6,85.6-0.2,128.5-1.1c46.3-1,92.6-0.7,139-0.5c24.3,0.1,48.6,0.9,72.9,2.2
	c23.6,1.2,47.2,2,70.9,1.7c6.8-0.1,13.6-0.9,20.4-1c13.9-0.1,24,6.6,29.2,19.3c0.9,2.1,2,3.7,3.5,5.4c26,28.8,12.8,73.9-24.6,84.2
	c-4,1.1-8.1,2-12.2,2.5c-15,1.8-27.3,10.2-40.7,15.9c-84.7,36.3-171.4,66.8-261.2,88.2c-31.6,7.5-63.6,12.3-95.9,15.6
	c-28.8,2.9-57.7,5-86.6,6.1c-11,0.4-22,0.8-33,0.6c-15-0.3-29.9,0.9-44.6,3.5c-2.8,0.5-5.6,0.4-8.5,0.5c-31,0.5-62-0.2-92.9-1.2
	c-32.1-1.1-64.2-2.6-96.2-5c-52.7-3.8-105.2-10.2-157.2-19.7c-4.7-0.9-9.5-1.6-14.1-2.9c-12.2-3.6-24.7-3.2-37.1-3
	c-12.3,0.2-25.2,1.1-36.3-4.9c-18.7-10-35.6-22.3-40.3-45.2c-0.2-1.1-0.1-2.4-1.5-3C431.1,2375,431.1,2371,431.1,2367z"/>
<path class="st4" d="M2478.7,2259c25.1-0.4,50.6,5.3,75.7,12.4c9.2,2.6,18.5,3.9,28.1,3.6c11.1-0.3,20.8,2.7,26.9,12.9
	c0.8,1.4,2.3,1.9,3.6,2.6c7.4,4.3,9.6,10,7,18.2c-2.4,7.7-8,13.3-12.7,19.5c-17.1,23-41.9,33.7-67.4,43.6c-20.6,8-41.5,15.3-62,23.6
	c-14.8,6-30.4,10-47.2,7.9c-18.7-2.4-37.6-1.1-56.4-1.5c-33.3-0.7-66.5-3.2-99.9-2.7c-2.5,0-5,0.3-7.5,0.4c-1.5,0.1-3.5,0.6-4.3-0.5
	c-3.4-4.3-8.8-4.1-13.1-6.4c-12-6.2-14.1-20.2-6.9-31.6c7.1-11.2,15.9-19.9,27.2-26.3c2.5-1.4,4.9-2.9,7.3-4.3
	c44.4-24.2,90-45.6,138-61.6C2435.2,2262.2,2456,2258.8,2478.7,2259z"/>
<path class="st5" d="M1309,940.1c139.3,0,278.6,0,418,0c0.3,1.8,0.8,3.6,0.8,5.4c0.8,19.8,1.5,39.6,2.2,59.4
	c0.4,11.3,0.7,22.6,1.1,34c1.3,35.4,2.8,70.9,3.7,106.3c0.5,21.5,0.1,43,0,64.5c-0.2,86.5,0.2,172.9,2.7,259.4
	c0.9,29.7,2.8,59.2,6.3,88.7c1.3,10.5,4.3,20.2,12.6,27.5c7,6,14.9,3.7,17.3-5.1c1-3.7,1.7-7.5,2-11.3c0.2-3.1,1.2-4.5,4.4-4.7
	c9.8-0.6,19.6-1.9,29.4-1.9c51.5-0.2,103-0.7,154.4,0.6c28.8,0.7,57.6,1.2,86.3,3.1c25.8,1.7,51.4,4.3,77.1,6.6
	c24.9,2.2,49.7,4.9,74.5,7.7c20.5,2.3,40.9,5.3,61.2,9.4c11.5,2.3,21.8,7.9,33.3,10.4c18.7,4,29.6,17.3,31.8,36.3
	c0.5,4.3-1.1,8.7,0.4,13.4c1.1-1.1,1.9-1.7,2.6-2.4c19.6-21.9,44.4-31.3,73.4-30.3c5.7,0.2,11.4,0.7,17-0.1
	c10-1.6,15.3,3.3,18.8,11.6c0.6,1.4,1.3,2.7,1.9,4.1c6.1,13.9,11.8,27.9,16.7,42.3c5.5,16.2,10.7,32.5,16.2,48.6
	c7.2,21.1,13.6,42.5,20.3,63.7c9,28.3,13,57.8,17.2,87.1c0.4,3,1.4,4.9,4.2,6.1c5.2,2.2,6.7,6,5.8,11.7c-3.7,23.4-6,46.9-6.7,70.6
	c-1.2,37.8,0.3,75.6,1.5,113.4c1.1,32.6,2.1,65.3,3.1,97.9c1.1,38.5,2.1,76.9,3.4,115.4c0.2,4.8-1.3,6.7-5.7,8.1
	c-11.8,3.5-23.5,7.6-35.2,11.3c-43.9,13.8-87.1,29.5-130.7,44c-28.9,9.6-58.4,17.7-86.5,29.5c-1.7,0.7-3.5,0.8-5.4,0.7
	c-7.6-0.6-15.3-1.1-22.9-1.6c-36.2-2-72.5-3.9-108.7-5.9c-41.2-2.3-82.5-4.8-123.7-7c-35.4-1.9-70.9-3.4-106.3-5
	c-38.1-1.7-76.2-3.4-114.3-4.9c-43.1-1.8-86.2-3.5-129.3-5.2c-20.9-0.8-42,0.1-62.8-2.8c-4.9-0.7-6-2.8-6.2-7
	c-1-18.8-2.1-37.6-3-56.4c-0.2-3.7-1.4-4.9-5.1-4.8c-10.5,0.4-21,0.7-31.5,0.9c-21.8,0.4-43.6,0.8-65.4,1.2c-1.5,0-3,0.3-4.5,0.4
	c-18.3,0.3-36.6,3.1-54.8,0.6c-9.4-1.3-18.1-1.1-26.1,4.8c-2.1,1.6-4.8,2.4-7.1,3.7c-2.7,1.6-5.1,2.4-8.4,0.9
	c-3.5-1.6-7.3-0.8-10.6,1.2c-18.6,11.2-38.4,19.9-57.2,30.8c-12,6.9-23.2,15.2-36,20.5c-28.8,11.8-57.2,24.6-85.7,37.3
	c-15,6.7-30.5,12.6-44.2,22c-2.8,1.9-5.4,2.8-8.7,2.5c-16.3-1.3-32.5-2.5-48.8-3.6c-42.7-3-85.4-6.4-128-9.9
	c-44.6-3.7-89.2-8.4-133.8-12.5c-44.2-4.1-88.4-9.1-132.7-13.4c-4.6-0.4-5.7-1.8-5.7-6.2c-0.3-35,0.8-70-0.7-104.9
	c-1-22.9-0.1-46-1.1-68.9c-0.9-23.3-0.2-46.6-0.8-69.9c-0.7-29.5-1.1-58.9-1.4-88.4c-0.1-15,0.1-30-0.4-45c-0.9-27-0.7-54-0.1-80.9
	c0.1-5.1,0.5-10.3,0.6-15.5c0-2.1-0.4-3.7-3-3.5c0-7.3,0-14.7,0-22c0.9-5.1,1.7-10.1,2.6-15.2c8.7-50.3,25-98.3,43-145.8
	c27.6-72.5,57.3-144.2,89.9-214.6c9.5-20.5,19.9-40.7,31.8-60c1.9-3.1,3.9-5.9,8.2-5.3c3.6,0.6,4.9-1.2,5.5-4.6
	c1.8-9.8,4-19.6,6-29.4c9.9-48.8,18.7-97.8,27-146.9c0.7-3.9,2.3-5.2,6.2-5.2c12-0.2,24-0.5,36-0.7c49.5-0.6,98.9-1,148.4,0.4
	c37.6,1,75.2,1.9,112.8,3.2c20.8,0.7,41.6,0.5,62.4,1.4c16,0.7,32,0.6,47.8,2.6c3.4,0.4,4.4-0.9,4.3-4.1c-0.5-9.3-0.4-18.7-1.2-27.9
	c-1.1-12.1-0.4-24.3-1.3-36.4c-0.7-8.5-0.6-16.9,0.1-25.4c1.3-14.8,2.4-29.5,3.6-44.3c1.5-19.8-0.6-39.6-0.2-59.4
	c0.2-12.1-0.5-24.3-1.1-36.4c-0.3-5.3-0.7-10.7-3.3-15.5c-1.3-2.3-1.6-4.6-1.6-7.2C1309,971.4,1309,955.8,1309,940.1z"/>
<path class="st6" d="M2255.8,2328c0.5-27.8-0.8-50.9-1.1-74.1c-0.3-23-1.2-45.9-1.8-68.9c-0.7-22.9-1.7-45.9-3-68.8
	c-1.2-19.9-1.8-39.9-3.1-59.8c-3-44.9-1.4-89.9-1.8-134.8c0-5.3,0.6-10.6,1-15.9c0.2-3.5,1.7-5.4,5.7-5s8,0,12,0.1
	c2.6,0.1,3.3-0.9,3.5-3.4c0.9-10.5,0.8-21,0.7-31.5c0-3.2,0.9-4.4,4.2-4.3c7.8,0.2,15.7,0,23.5,0.1c2.3,0,3-1.1,4.3-3
	c5.8-7.9,2.9-17,3.7-25.4c1.7-17.7,1.4-35.6,2.5-53.3c1.4-22.4,2.4-44.8,3-67.3c0.1-2.3,0.7-4.6,0.9-6.9c0.4-7.1,0.4-7.2,7.6-7.6
	c2.4-0.1,2.8-1.2,3.5-3.2c2.8-9,4.9-18.3,8.9-27c8-17.2,20.8-29.1,38.8-35.3c1.2-0.4,3.2-0.5,3.1-2c-0.3-4.8,3-4,5.6-3.7
	c3.6,0.4,5.8-0.5,6.6-4.5c0.9-4.3,3.6-6.1,8.3-5.9c11.7,0.3,23.3,0.3,35,0c4.2-0.1,6.8,1.4,9.1,4.8c6.4,9.5,10.3,20.2,14.3,30.7
	c7.3,19.1,13.9,38.5,21.2,57.6c3.3,8.6,1.8,17.4,2,26.2c0.1,3.3,0.9,6,2.8,8.7c13.1,18.5,19.3,39.7,24.2,61.4
	c5.1,22.9,9.2,46,12.1,69.2c0.3,2.6,1.8,3.6,3.8,4.7c6.6,3.6,7.1,4.7,6,11.8c-6.9,46.6-8.2,93.5-6.2,140.5
	c0.9,21.1,1.1,42.3,1.7,63.4c1,34.5,2,68.9,3,103.4c0.9,30.1,1.7,60.3,2.9,90.4c0.2,4.3-1,6.1-5.1,7.3
	c-78.7,24.8-156.4,52.7-235,77.9c-5.8,1.9-11.5,4.4-17.2,6.7c-6.9,2.9-9.9,1.2-9.8-6.2C2257.3,2358,2255.1,2340.7,2255.8,2328z"/>
<path class="st6" d="M1612.1,1786.3c0-20.7-0.5-41.3,0.1-62c0.8-30,1.2-59.9,2.1-89.9c0.9-32.6,1.8-65.2,1.9-97.9
	c0-13.7,1.1-27.3,0.9-40.9c-1.4-67.5-0.1-134.9-1.1-202.4c-1.7-111.3-0.2-222.6-0.8-333.9c0-5.5-0.6-11-1.4-16.4
	c-0.4-2.3,0.1-2.9,2.4-2.9c22.6,0.5,45.3-0.1,67.9,0.4c12,0.3,24.2,0.1,36.3-0.5c4.4-0.2,6,0.8,5.9,5.6c-0.4,12.3-0.1,24.7-0.1,37
	c0,1.8-0.7,4,2.4,4.5c2.1,0.4,1.4,2.7,1.4,4.3c0.3,8.5,0.4,17,0.8,25.5c0.8,16.1,0.8,32.3,1.4,48.4c1.1,32.3,2.5,64.5,3.4,96.8
	c0.3,12-0.3,24-0.4,36c-0.5,49.7-0.2,99.3,0.3,148.9c0.3,36,1.2,71.9,1.9,107.9c0.7,34.5,2.5,68.9,6.8,103.1
	c1.3,10.7,4.6,20.5,13.3,27.6c2.9,2.4,1.9,5.7,1.6,8.4c-1.6,13.1-0.7,26.3-0.7,39.4c0,4.3-1.4,5.4-5.4,5.2c-7.3-0.3-14.7-0.3-22-0.2
	c-3.7,0.1-4.7-1.5-4.8-5.1c-0.2-22.5-0.6-44.9-0.9-67.4c0-1,0-2,0-3c0-1.2-0.6-1.8-1.8-1.9c-1.5-0.1-2,0.6-2.2,2
	c-0.6,7.9-1.5,15.9-2,23.8c-1.2,18.6-3.3,37-5.2,55.5c-0.4,4.3-2.2,6.1-7,5.8c-7.8-0.5-15.7-0.3-23.5-0.1c-3.9,0.1-6.1-0.7-5.5-5.1
	c0.1-0.8-0.1-1.7-0.1-2.5c-0.1-1.6-0.9-2.4-2.5-2.4c-1.7-0.1-2.3,0.8-2.4,2.4c-0.2,4.2-0.7,8.3-0.8,12.5c-0.1,10.5,0.2,21-0.1,31.5
	c-0.3,11-1,21.9-1.6,32.9c-0.1,2.5-0.7,4.7-4.1,4.3c-2.2-0.3-2.3,1.3-2.3,2.9c0.3,13.6-0.2,27.3,0.5,41c0.8,13.8,0.8,27.6-0.3,41.4
	c-0.9,10.8-0.5,21.6-0.2,32.5c0.1,5-1.4,7-6.5,6.4c-3.8-0.4-7.7,0.1-11.5-0.1c-2.8-0.1-4.1,0.5-4.1,3.8c-0.1,9.5-0.3,9.5-10,9.5
	c-4.8,0-9.7-0.2-14.5,0.1c-4.1,0.3-5.5-1.2-5.4-5.4C1612.1,1831.2,1612,1808.8,1612.1,1786.3C1612,1786.3,1612,1786.3,1612.1,1786.3
	z"/>
<path class="st6" d="M1146.1,2406.2c0-2.5,0-4.3,0-6c0-29-0.3-58,0.2-87c0.3-15.8,0.8-31.7,0.5-47.5c-1-47.1-2.8-94.2-3.6-141.3
	c-0.7-40.5-1-81,1-121.4c0.6-12.3,1.2-24.6,1.1-36.9c-0.1-25.5-515.3,0.4-456.3-97.2c0.3-8.4,457.4,3.8,459-4.6
	c0.5-2.5,1.5-3.3,3.9-3.3c8.7,0.1,17.3,0.1,26,0c2.9-0.1,4,1.2,4.1,3.7c0.1,3.5,0.3,7,0.1,10.5c-0.2,3.1,0.9,4.3,3.9,3.8
	c3.3-0.5,4.3,0.9,4.2,4.2c-0.2,8.7,0.1,17.3-0.1,26c-0.1,3.2,1,4.1,4,3.9c3.7-0.3,8.1,1.4,8.6-5c0.2-1.9,4.2-1.6,6.2-1.7
	c2.9-0.2,3.6-1.8,4.1-3.9c0.6-2.8,1.1-5.5,1.8-8.3c0.4-1.4,0.8-3.5,2.4-3.5c5.2,0,4-3.6,4-6.5c0.1-16.8,1.4-33.6,1.1-50.4
	c-0.1-7.2,0.5-7.4,7.6-7.4c9,0,18,0.1,27-0.1c3.8-0.1,5.6,0.9,5.3,5c-0.4,7.5,0.4,15,0.8,22.4c0.2,3.1,1.2,4.2,4.1,3.8
	c0.2,0,0.3,0,0.5,0c9.1-0.1,7.6,0.8,7.4-7.3c-0.3-15-1.2-29.9-0.8-44.9c0.2-8,0.1-8,7.9-8c8.3,0,16.7,0.1,25-0.1
	c3-0.1,3.9,0.8,4.1,3.9c1.4,19.7,2,39.5,2.9,59.3c0.4,9.8,2.9,19.3,3.4,29.1c0.4,8.8,0,17.6,1.5,26.4c3.5,20.6,1.2,41.5,3.1,62.1
	c2.2,25,3.8,50,5.1,75c1,19.1,2.1,38.2,3,57.2c1.1,24.9,2.1,49.8,3.1,74.8c0.7,17.9,3.1,35.7,4.6,53.5c1.3,15.8,1.5,31.6,1.3,47.4
	c-0.1,7.8-0.1,15.7,0,23.5c0,2.3-0.7,3.6-2.8,4.6c-17.9,8.5-34.5,19.4-51.8,29.2c-4.3,2.4-8.9,4.5-13.5,6.3
	c-31.2,12.5-61.6,26.9-92.4,40.3C1167.7,2394.5,1157,2399.6,1146.1,2406.2z M1320.5,2101.1c-2.3,22.2-1,44.4-0.8,66.6
	C1319,2145.5,1321.4,2123.3,1320.5,2101.1z"/>
<path class="st7" d="M1572.2,2143.1c0-30,0.2-60,0-90c-0.3-40.1-1.4-80.3-5-120.3c-0.5-6-0.4-6.2,5.8-5.7c2,0.2,3.9,0.6,5.9,0.8
	c2.3,0.2,3,1.6,3.1,3.7c0.3,7,1.2,13.9,1,20.9c-0.2,9.7-0.1,19.3,0,29c0.3,20.8-0.1,41.7,1.2,62.4c1.1,17.5-0.3,35,1.6,52.4
	c1.1,10.3-0.3,20.6-1.1,30.9c-2.2,28.7,0.1,57.3,1,85.9c0.6,18.6,0,37.3-3.4,55.7c-0.6,3.3-0.6,6.6-0.6,10c0,2.3-0.8,3.3-3.2,3.3
	c-2.1-0.1-3.3-0.2-3.6-2.8c-1-8.7-3.1-17.3-3-26.2C1572.5,2216.4,1572.5,2179.8,1572.2,2143.1z"/>
<path class="st7" d="M1320.5,2101.1c1,22.2-1.5,44.4-0.8,66.6C1319.5,2145.5,1318.2,2123.3,1320.5,2101.1z"/>
<path class="st8" d="M2260.9,1949c-0.3-0.1-0.7-0.1-1-0.2c0-4.6,0-9.1,0-13.7c0.3-0.4,0.6-0.7,1-1.1
	C2260.9,1939,2260.9,1944,2260.9,1949z"/>
<path class="st9" d="M2259.9,1935c0,4.6,0,9.1,0,13.7c-7.8-0.1-9.8,1.6-11,9.5c-0.8,5.3-1,10.5-0.2,15.9c1.3,8.4,1.2,16.9,1,25.4
	c-0.2,11,2.9,21.7,2.6,32.8c0,1.7,0.4,3.3,0.5,5c0.4,18.6,1.1,37.3,1,55.9c-0.1,31.8,1,63.6,1.3,95.4c0.2,27,1,53.9,2,80.9
	c1.2,31.8,3.1,63.5,2.8,95.3c0,2.7,0,5.3-0.1,8c-0.3,12.1-0.8,13-12.2,16.7c-3.3,1.1-6.5-0.6-9.8-0.9c-6.8-0.6-13.5-1.9-20.2-2.7
	c-2.8-0.4-5.1-0.8-5-4.5c0.1-2.6-0.6-5.3-0.6-7.9c0.1-13-0.9-25.9-1.7-38.8c-0.2-3.5,0.2-7,0.6-10.5c2.3-18.5-0.5-36.9-1.1-55.4
	c-1.1-34.3-2.2-68.6-3.5-102.9c-1.3-32.3-0.4-64.6,0.2-96.9c0.5-25.7,0.1-51.3-0.8-77c-0.3-7.5-0.4-7.4-8.3-7.9
	c-6.8-0.4-13.6-1-20.4-1.5c-3.1-0.2-7.7-2.6-5.7,4.1c-5.3,5.7-2.3,12.8-2.8,19.2c-1.7,20.5,0,41,0.7,61.4
	c1.2,34.6,3.3,69.2,2.8,103.8c-0.4,27.2-2.1,54.3-0.9,81.5c1.5,34.1,1.2,68.2,2,102.4c0.1,5.6,0.5,11.4,1.5,16.9
	c0.9,4.7-3.2,7.9-2.4,12.5c0.2,1-2,0.8-3,0.6c-11.7-1.3-23.4-2.7-35.1-4.2c-1.6-0.2-3.1-0.5-3.3-2.9c-1-14.9-2.4-29.8-3.1-44.7
	c-1.7-38.3-1.4-76.6-2.1-114.8c-0.3-15.8,0.3-31.7-0.9-47.4c-1.3-17.3-0.5-34.6-0.8-51.9c0-3.3-1-4.2-4.2-4.1
	c-6.5,0.2-13,0.3-19.5,0c-3.5-0.1-4.5,0.9-4.4,4.4c0.1,21.5,1.6,42.9,1.1,64.4c-0.4,22.6-1.5,45.3-1,67.9
	c0.8,34.5,1.3,68.9,2.2,103.4c0.1,5.8,0.8,11.6,0.9,17.4c0.1,3-0.9,3.7-3.6,3.5c-5.6-0.3-11.3,0.1-16.9-0.8
	c-6.9-1.1-13.9,0.2-20.8,0.7c-4.3,0.3-5.6-0.4-5.6-5.1c0.2-52.7,0.3-105.3,0.3-158c0.1-55,0.3-110,0.1-164.9
	c-0.1-21.5,0.5-43-2.6-64.4c-0.5-3.5-0.1-7.4-1.7-10.2c-1.8-3.1-6.1-1.2-9.3-1.6c-10.7-1.2-21.5-2.2-32.3-2.7
	c-36.9-1.7-73.9-2.5-110.8-3.3c-21.6-0.5-43.3-1.3-64.9-1.8c-30.6-0.8-61.2-1.8-91.8-3.1c-17-0.7-33.9-1.2-50.9-1.9
	c-25.2-1.2-50.5-1.8-75.7-3.7c-14.7-1.1-29.5-1.4-43.8-5.7c-1.4-0.4-2.3-0.4-2.6,1.2c-0.6,3.1-1.8,6.2-1.1,9.4
	c4.7,19.4,4.1,39.3,5,59.1c2.4,54.6,2.4,109.3,3.2,163.9c0.2,12,2,23.8,3.4,35.7c1.6,13.4,1.4,26.9,1.4,40.4c0,2.2-0.8,2.9-2.9,2.9
	c-5.2-0.1-10.3,0-15.5-0.1c-0.9,0-2.1-0.1-2.8-0.7c-7.4-6.4-14.4-4.5-18.1,4.7c-1.4,3.3-2.5,7.1-6.8,7.9c-8,1.5-9,0.4-9.1-7.7
	c-1-51.6-1.9-103.3-3.8-154.9c-0.5-13.6-4.4-24.1-12.9-34.6c-15.5-19.3-29.1-40.1-42.2-61.3c-0.6-1-1.2-1.9-1.9-3
	c-1.5,0.8-0.1,2.6-1.8,3.3c-7.8-11.5-15.5-23.1-23.5-34.6c-29.9-42.9-59.8-85.8-89.8-128.6c-4.9-7-8.8-14.5-12.2-22.3
	c-1.2-2.7-2.7-3.9-5.9-4.3c-13.7-1.8-26.5-6.3-38.1-13.8c-5.1-3.3-8-15.4-5.3-20.6c1.1-2,3.2-2.7,5.3-3.4c7.3-2.5,14.9-3.3,22.5-3.9
	c27.1-2,54.3-0.3,81.4,0.1c14.8,0.2,29.6,1.2,44.3,1.9c27.4,1.2,54.8,2.6,82.3,3.2c10,0.2,20,0.6,29.9,0.6
	c17.3,0.1,34.6,1.6,51.9,1.1c3.1-0.1,6.3,0.7,9.4,0.9c2.1,0.1,2.4,1.4,2.4,3.1c0,13.3,0,26.7,0,40c0,2.5-1.2,3.1-3.4,3.1
	c-5,0-10,0.3-15-0.1c-4.2-0.3-6.2,0.6-5.6,5.4c0.4,3.4-0.2,7,0.2,10.5c0.5,4.4-1.6,6.8-5.2,8.5c-11.8,5.8-24,10.7-36.9,13.4
	c-0.5,0.1-1,0-1.5,0.2c-2.4,0.9-6.8,17.7-5,19.4c1.6,1.5,3.9,0.8,5.8,0.6c3.7-0.3,5,1.1,4.9,4.8c-0.2,9.8-0.1,19.6-0.1,29.8
	c3.5-0.8,3.5-3.1,3.2-5.1c-1-5.8,2.5-8.1,7.2-9.5c7.8-2.3,15.8-3.9,24.2-4.3c-0.9-2.4-2.3-4.4-2.6-6.9c-1.1-11.3,0.8-14.8,11.3-19.4
	c8.1-3.5,16.5-5.8,25.6-5.6c11,0.3,22,0.1,33,0.1c14.5,0,28.7,2.7,43,4.5c14,1.8,27.9,3.7,41.9,5.5c16,2,31.9,3.9,47.9,5.7
	c13.8,1.6,27.7,2.9,41.6,4.3c11.9,1.2,23.7,2.6,35.6,3.8c11.6,1.2,23.1,2.1,34.7,3.2c12.7,1.2,25.4,2.6,38.1,3.8
	c12.4,1.2,24.8,2.1,37.2,3.2c13.9,1.2,27.7,2.5,41.6,3.8c4.6,0.4,9.3,0.8,13.9,1.1c11.1,0.7,22.3,0.8,33.4,1.1
	c23.8,0.7,47.6,1.2,71.3,2.1c17.4,0.7,34.9,1.5,52.2,3c23.9,2.1,47.8,4.9,71.5,9.1C2259.2,1934.3,2259.6,1934.7,2259.9,1935z
	 M1513.5,2007.1c0-2.7,0.1-4.9,0-7c-1.9-30.2-3.7-60.5-5.7-90.7c-1.3-19.3-1.7-38.6-4.7-57.7c-0.6-3.8-1.5-7.5-4.5-10.3
	c-3.8-3.5-8.6-0.4-12.1-1.6c-3.7-1.3-6.4-6-11.3-4.7c-3.6,1-7.3,1.2-10.9,0.7c-8.1-1.1-16.4-0.1-24.4-1.1c-9-1.1-17.9-0.4-26.9-1.5
	c-8.1-1-16.4-0.9-24.6-1.2c-0.3,1.5,0.5,1.9,1.1,2.5c17.4,18.9,32.6,39.5,47.9,60.1c8.1,10.9,15.1,22.9,23.9,33.1
	c15.5,17.9,29.6,36.8,43.1,56.2c2.8,4,5.1,8.1,5.5,13.1C1510.2,2000.5,1511.7,2003.6,1513.5,2007.1z"/>
<path class="st8" d="M1159.9,1932.5c-0.9,11.1-0.7,20.1-0.7,29.1c0.1,7.4-2.5,8.8-9.6,9.2c-14.1,0.8-27-5.3-40.7-6.4
	c-18.4-1.4-36.7-3.8-55.1-5.4c-42.8-3.9-85.8-4.8-128.6-7.6c-59.6-4-119.2-8.2-178.9-12.1c-20.1-1.3-40.3-1.8-60.4-1.1
	c-4,0.1-5.1-1.1-4.9-4.9c0.4-8.2-0.1-16.3-5.3-23.4c-0.8-1.2-0.7-3.2-0.6-4.8c0-11.7,0.1-23.3,0.2-35c0-2.4,0.2-4.6-2.4-5.9
	c-1.6-0.8-2-2.5-2-4.3c0-6.7,0.1-13.3,0-20c0-2.4,0.8-3.8,3.1-4.3c2.1-0.5,4.1-1.2,5.5,1.5c1.6,3.1,4.8,4,7.9,4.7
	c16.8,3.4,33.7,5.8,50.8,7.4c31.7,3,63.4,4.7,95.2,6.4c27.6,1.5,55.2,2.6,82.8,3.9c51.9,2.4,103.8,5.1,155.8,4.4
	c22.8-0.3,45.6-0.4,68.4,1.1c6.5,0.5,12.9-1,19.3-1.9c7-0.9,7.2-0.7,7.2,6c0,10,0,20,0,30c0,2.1,1,4.9-3.5,3.2
	c-2.9-1.1-3.4,2-3.3,4.5C1160.6,1916,1160.3,1925.3,1159.9,1932.5z M1035.9,1937.2c0.1-0.9,0.3-1.3,0.2-1.5
	c-0.7-2.1-1.3-4.1-2.1-6.1c-5.1-12.7-10.2-25.4-21.6-34c-6-4.5-6.7-4.6-12,0.9c-9.6,9.9-15.4,21.9-19.4,35.4
	C999.4,1934.2,1017.7,1935.5,1035.9,1937.2z M888.7,1922.6c10.4,1.2,20.3,2.3,30.1,3.3c7.9,0.8,15.9,1.3,23.8,2.1
	c2.7,0.3,3.3-0.8,2.5-3.1c-4.9-13.6-11.1-26.3-22.7-35.7c-3.9-3.1-7.3-3.2-11.1,0C900.5,1898,894.6,1910,888.7,1922.6z
	 M1118.5,1946.7c3.8,0,3.9-0.2,3-3.6c-3.5-14.2-12.2-25.3-21.8-35.8c-3.2-3.4-6-3.2-9.1,0.2c-7.9,8.4-12.8,18.5-17.4,28.9
	c-1.9,4.3-0.1,5.2,3.5,5.5c5.9,0.5,11.9,1.3,17.8,1.7C1102.8,1944.2,1111,1945.2,1118.5,1946.7z M848.9,1919
	c-5.3-13.8-12.6-25.6-24.7-34c-5.4-3.7-6.9-3.5-11.4,1.1c-7.1,7.3-10.2,16.6-12.6,26.2c-0.6,2.4,0.8,2.6,2.7,2.7
	c5.8,0.4,11.5,1.1,17.3,1.6C829.6,1917.4,839,1918.2,848.9,1919z M765.4,1911.4c-4.7-11.9-9.8-22.7-20.7-29.7
	c-2.4-1.6-4.3-1.6-6.7,0.1c-9,6.6-14.5,15.9-19.3,25.6c-1.1,2.2-0.1,2.6,1.8,2.5C735.3,1909.5,750.1,1910.7,765.4,1911.4z"/>
<path class="st9" d="M906,1676.5c1.1-2.5,1.9-4.1,2.5-5.7c6.3-17.4,18.6-30.2,32.7-41.4c7-5.6,15.9-4.8,25.2,0.6
	c9.6,5.5,15.9,13.9,20.2,23.4c8.4,18.6,17.3,37.1,21.2,57.5c2,10.3,2.9,20.8,3.2,31.2c0.5,15,2.8,29.8,4.7,44.6
	c0.9,7.1,0.2,14.1,0.3,21.2c0,1.5-1.2,1.3-2.2,1.3c-13.6-0.5-27.3,0.9-40.9-0.7c-5.8-0.7-11.6-0.9-17.4-1.1c-28.4-1-56.6-4-85.1-4.4
	c-14.3-0.2-28.5-0.8-42.8-0.2c-4.2,0.2-8.9-1.6-13.5-1.6c-2,0-1.6-1.8-1.7-3c-0.6-6.5,0.3-13,0.4-19.4c0.3-11.5,0.3-23,0.2-34.5
	c-0.2-23.2,2.5-46.1,8.4-68.6c3.4-12.8,9.9-24.4,17.8-34.9c7.9-10.5,16.8-12.1,28.6-6.1c9.9,5,17.4,12.7,24.5,20.9
	C897.7,1661.5,901,1668.9,906,1676.5z"/>
<path class="st9" d="M1472.4,1239.1c-13.8,0-27.6,0-41.5,0c-4.7,0-9.3,0.2-13.9,1c-3.1,0.5-4.5-0.2-5.3-3.9
	c-1.4-6.7-0.4-13.3-0.5-19.9c-0.3-25-0.8-50,3.9-74.6c3-15.7,5.9-31.4,10.1-46.8c4.9-17.8,14-33,30.9-42.3c3.2-1.7,6.3-1.4,9.6-1.8
	c19.4-2.1,29.7,10,37.9,24.7c8.6,15.3,10.1,32.6,13.1,49.4c3.6,20.1,7.8,40.2,9.7,60.6c0.6,6.8,0.3,13.6,1.1,20.4
	c1,8.4,1,16.9,1.2,25.4c0.2,5.9-1.5,7.6-7.6,7.8c-6.3,0.2-12.7,0.1-19,0.1C1492.4,1239.1,1482.4,1239.1,1472.4,1239.1z"/>
<path class="st9" d="M950,1535.1c-28.9-0.1-53.6-1.5-78.1-5.2c-7.7-1.1-15.2-3.5-22.5-6.3c-2.7-1-5.3-1.6-8.2-1
	c-1.6,0.3-4.2,1.5-4.8-0.7c-0.7-2.3-1.6-5.7,1-7.4c3.1-1.9,3.1-4.5,2.8-7.3c-0.6-4.4,1.3-6.9,5.4-8.1c8.9-2.6,18.1-4.4,27.3-5.1
	c9.3-0.8,18.6-0.9,27.9-1c3.1,0,3.6-1.3,3.4-3.9c-2-30.2-1.8-60.5-2.6-90.8c-0.7-25.3-2-50.6-1.3-75.9c0.4-13.4,0.4-13.4,13.6-13.4
	c12.2,0,14.8,2.5,17.2,17.8c2.2,13.9,3.4,28,4.2,42.1c1.6,25.9,2.2,51.8,3.1,77.7c0.5,13.3,0.4,26.6,0.8,39.9
	c0.2,6.7,0.5,7.4,7.1,7.1c18.9-0.9,36.9,3.7,54.7,9.2c13.1,4.1,16,9.2,13,22.7c-0.7,3.2-3.4,3.6-5.7,4.1c-6.7,1.3-13.4,2.5-20.1,3.1
	C974.1,1534.3,960,1536,950,1535.1z"/>
<path class="st9" d="M1820,2037.8c0-4.7,0.3-9.3-0.1-14c-0.4-5.1,2-7.6,6.8-7.8c4.3-0.1,5.7-1.8,5.4-6.1c-0.4-5.8,0.1-11.7-0.2-17.5
	c-0.2-3.5,1.4-4.9,4.4-5.4c8.6-1.4,17.1-2.6,26-1.1c16.7,2.7,33.6,4,50.6,4c7,0,9.3,1.8,8.9,8.6c-0.3,5.7,1.7,7.6,7.1,8.7
	c7.5,1.5,14.7,4.2,22,6.1c2.6,0.7,3.5,1.8,3.3,4.4c-0.2,3,0,6-0.1,9c-0.1,5.3,0.1,10.5,2.4,15.6c2.6,5.9,2.2,12.4,1.3,18.7
	c-0.4,2.6-1.4,3.8-4.5,3.9c-23.1,1.1-46.1-1.5-69.1-2.9c-14.4-0.8-28.9-1.8-43.4-1.2c-4.9,0.2-9.6-0.7-14.4-1.2
	c-4.3-0.5-7-2.5-6.6-7.5C1820.3,2047.4,1820,2042.6,1820,2037.8z"/>
<path class="st9" d="M755.3,2011.6c0-5,0-10,0-15c0-2.2,0-4.1,3.1-3.6c0.5,0.1,1.2,0.2,1.5-0.1c4.3-3.7,9.2-2.3,14.2-2.4
	c28.5-0.3,56.9,2.9,85.4,3.7c15.3,0.5,30.6,1,46,1.5c6,0.2,12,0.6,17.8,2.1c4.7,1.1,8.8,3.3,11.2,7.7c1,2,2.5,2.4,4.5,2.3
	c1.5-0.1,3,0.1,4.5,0.2c11.2,0.6,11.1,0.6,11,12c0,3-0.9,4.1-4,4c-7.7-0.2-15.3,0.1-23-0.1c-3-0.1-3.9,0.8-4,3.9
	c-0.2,13.2-0.3,12.9-13.2,13.2c-19,0.4-37.9-0.8-56.7-2.8c-6.3-0.7-12.7-0.5-19-0.2c-19.1,1.1-37.7-3-56.4-5.5
	c-6.6-0.9-13.1-1.8-19.7-2.3c-3-0.2-3.4-1.6-3.3-4.1c0.1-4.8,0-9.7,0-14.5C755,2011.6,755.2,2011.6,755.3,2011.6z"/>
<path class="st9" d="M1918.9,2308.3c0-13.5,0.4-27-0.1-40.5c-0.5-11.3,2-21.8,6.3-32c4.8-11.2,7.8-22.8,10.9-34.5
	c2.1-7.8,4.4-10.1,10.4-9.4c0.3,0,0.7,0,1,0.1c3.1,0.8,11.1,9.7,11.5,12.9c2,15,3,30,4.1,45c2.5,34,3.1,68.1,2.8,102.2
	c0,4.5-0.6,9-1,13.4c-0.2,3.1-1.6,4.6-5.1,4.5c-7-0.3-14-0.1-21-0.1c-2.5,0-4.6-0.4-5.4-3.2c-1.1-3.4-4.4-2.5-6.7-2.9
	c-7.7-1.2-7.7-1-7.7-8.8C1918.9,2339.6,1918.9,2324,1918.9,2308.3z"/>
<path class="st8" d="M1834.4,2337.1c0,5.5,0,11,0,16.5c0,2.9-1.3,4.2-4.2,4.1c-3.2-0.1-6.3,0-9.5,0c-2.4,0-5.2-0.8-4.8,3.4
	c0.2,1.9-1.7,2-2.9,1.7c-9.1-1.9-18.3-0.4-27.4-1.2c-2.7-0.3-3.7-0.9-3.9-3.7c-0.7-9.2,1.2-18.2,1.5-27.3c1.4-39.1,3.4-78.1,5-117.2
	c0.1-3.2,0.9-4.1,4.2-4.4c10.5-1,20.6,2.8,31.1,2c3.3-0.2,3.7,3,4.4,5.2c2.3,7.3,2.4,15.1,2.9,22.6c1.2,16.9,1.8,33.9,2.1,50.8
	C1833.2,2305.5,1835.1,2321.2,1834.4,2337.1z"/>
<path class="st9" d="M1529,1271.5c0,5.8-0.1,11.7,0,17.5c0.1,2.4-0.8,3.1-3.1,3.1c-23.1-0.1-46.2,1.9-69.3,0.9
	c-12.9-0.6-25.9-2-38.8-1.9c-2.2,0-2.7-0.8-2.9-2.9c-0.9-10.6-0.9-21.3-4.3-31.5c-0.7-2.2,0.3-2.4,2-2.8c7.3-1.8,14.9-1.1,22.3-1.7
	c29.7-2.2,59.6-0.9,89.3-1.3c4.2-0.1,5,1.4,4.8,5.1C1528.8,1261.2,1529,1266.4,1529,1271.5z"/>
<path class="st8" d="M845.1,2283.7c0,6.7-0.3,13.3,0.1,20c0.2,4.3-1.4,5.2-5.4,5.3c-11.7,0.5-23.2-0.9-34.7-3.3
	c-4.7-1-9.5-2-14.3-1.6c-3.3,0.2-3.7-1.2-3.8-4.1c-0.3-15.1-0.5-30.3-2.4-45.4c-0.3-2.1-0.1-3.8,2.6-3.7c16.3,0.5,32.6-1.2,48.9,0.9
	c3.6,0.4,6.2,1.5,5.8,5.8c0,0.5-0.1,1.4,0.1,1.4c6.7,2.6,2.2,8.1,3,12.1C845.6,2275.2,845.1,2279.5,845.1,2283.7z"/>
<path class="st8" d="M1446.5,1529.3c5.7,0,11.3,0,17,0c2.3,0,4.9-0.3,4.8,3.3c-0.1,1.3,1.2,1.4,2.1,1.5c2.1,0.4,4.2,0.8,6.4,1.1
	c3.8,0.6,5.6,2.3,5.4,6.6c-0.4,8.8-0.1,17.6-0.1,26.5c0,3.8,0.4,7.6-2,11.1c-2.9,4.1-6.8,2-10.4,2c-11.6,0-23.3,0.2-34.9,0.3
	c-7.6,0.1-7.7,0-7.6-7.6c0.2-13.8-0.6-27.6-1.6-41.4c-0.2-3.2,0.9-3.6,3.5-3.6C1434.8,1529.4,1440.6,1529.3,1446.5,1529.3z"/>
<path class="st9" d="M994.5,2321.9c-8.5,0-17-0.1-25.4,0.1c-3,0.1-4.2-0.8-4-3.9c1-13.3-0.2-26.6-0.1-39.9c0-3.3,1.1-4.3,4.3-4.3
	c17,0.1,33.9,0.1,50.9,0c2.9,0,4.1,0.9,4.1,4c-0.1,13.5-0.1,26.9,0,40.4c0,2.9-1.1,3.7-3.8,3.7
	C1011.8,2321.8,1003.1,2321.9,994.5,2321.9z"/>
<path class="st9" d="M1494,1719.2c0-6.7-0.1-13.3,0-20c0.1-5.7,1.9-7.3,7.5-7.3c11.3,0,22.6,0,34,0c1.9,0,3.7-0.6,4.2,2.6
	c2.8,17.3,2.1,34.6,2.4,52c0.1,3.8-1,4.8-4.7,4.7c-10.3-0.3-20.6-0.1-31-0.1c-9,0-12.1-3.1-12.3-12.4
	C1493.9,1732.2,1494,1725.7,1494,1719.2z"/>
<path class="st8" d="M1699.2,2268.9c0,6.3-0.1,12.7,0.1,19c0.1,3.1-1.1,3.9-4,3.9c-12.6-0.1-25.3-0.1-37.9,0c-3.8,0-7-1.9-10.4-3
	c-1.8-0.6-1.9-2-1.9-3.6c0-12.8,0.1-25.6,0-38.4c0-2.9,1-3.7,3.7-3.7c13,0.1,26-0.1,38.9,0.2c3.2,0.1,6.5,1.4,9.6,2.3
	c2.1,0.6,2,2.4,2,4.1C1699.2,2255.9,1699.2,2262.4,1699.2,2268.9z"/>
<path class="st9" d="M912.1,2118.7c-0.4-6.5,0.6-14.3-0.7-22.1c-0.3-2,0.2-2.8,2.2-2.7c13.6,0.5,27.2-0.9,40.8,0.8
	c3,0.4,5,2.9,8.3,2.4c1.7-0.3,1.3,1.6,1.2,2.6c-1.7,13.6-1,27.2,0.2,40.8c0.3,3.1-0.7,4.1-3.8,4c-14.6-0.4-29.3,0.4-43.9-0.5
	c-3.9-0.2-4.7-1.6-4.5-5.1C912.2,2132.7,912.1,2126.3,912.1,2118.7z"/>
<path class="st10" d="M2358.1,2218.8c-3.3-3.5-4.1-7.6-4-12.3c0.2-9,0.3-18,0-27c-1.3-32.8,3.3-64.9,11.7-96.6
	c5.2-19.7,17.6-34.4,32.3-47.4c4.3-3.8,14.8-1.2,20.3,4.5c3,3.2,5.4,6.8,6.9,10.9c8.9,23.6,18,47,18,73c0,17.5,3.3,35,2.7,52.7
	c-0.5,14.6-0.1,14.5-14.3,18.2c-17.8,4.6-35.6,9.4-52.4,17.2c-4.1,1.9-8.4,3.2-13,2.6c-3.3-0.4-4.5,2-6.1,4
	C2359.4,2218.8,2358.8,2218.8,2358.1,2218.8z"/>
<path class="st11" d="M2411,1737.1c8.6,3.4,16.8,7.3,23.1,14.5c3.5,4,6.4,8.1,7.7,13.2c2.8,10.8,5.8,21.5,7,32.6
	c1.8,17.1-3.4,32.6-11.3,47.2c-5.3,9.8-21.3,16-32.4,14.1c-5.9-1-11.7-1.9-17-4.8c-11.7-6.4-19-16-21.9-28.8
	c-3.9-16.7-4.4-33.5-0.2-50.4c3.4-13.5,11.1-23.6,23.1-30.4c4.3-2.4,8.5-4.9,12.8-7.3C2405,1737.1,2408,1737.1,2411,1737.1z"/>
<path class="st1" d="M694,2220.1c1.1,1.3,1.4,2.9,1.3,4.6c-0.5,11.5,0.2,23,0.9,34.4c0.2,3.1-0.7,5.4-2.8,7.6
	c-5.1,5.3-11,8.7-18.2,10.7c-36.2,10-73.5,13.7-110.4,19.8c-28.5,4.8-57.3,8.4-84,20.8c-3.6,1.7-7.1,3.6-10.9,5
	c-3.4,1.3-3.6,2.9-1.7,5.9c9.2,14.4,21.5,25.6,34.8,36.2c18.7,15,40.7,21.1,63.3,26.8c52.5,13.2,105.7,22.7,159.3,30.2
	c39.4,5.5,79,9.5,118.7,12.1c34.7,2.2,69.4,4.8,104.2,6.1c28.2,1.1,56.3,1.4,84.4-0.5c47.4-3.2,94.1-11.1,140.4-22
	c49.2-11.7,95.7-30.5,141.2-52c57.8-27.4,116.1-53.5,174.9-78.5c14.7-6.2,26.8-16.7,40.8-24c5.6-2.9,11-6.3,16.7-9
	c7.5-3.5,14.9-3.8,21.1,2.9c1.4,1.5,3,1.6,4.5,1c4.9-1.7,5.8,0.8,6.2,4.9c1.6,16.1,3.5,32.1,5,48.2c0.5,5.1,2.9,10.2-0.5,15.5
	c-6.5,10.2-13.5,19.8-24.7,25.4c-19.5,9.7-39.7,18-60,25.9c-21,8.3-42.9,15.3-61.9,27.4c-19.7,12.5-41.9,19.2-62.4,29.5
	c-20.8,10.4-42.2,19.9-63.9,28.4c-45.1,17.6-89.3,37.6-136.2,50.1c-40.7,10.9-82,18.9-123.9,23.7c-27.8,3.2-55.5,6.7-83.4,8.4
	c-30.4,1.8-60.9,1.9-91.4,0.7c-28.6-1.1-57.1-4-85.6-7.3c-26.3-3-52.5-6.3-78.7-10.2c-13-1.9-26.1-2.6-39.2-3.6
	c-27.7-2.2-55.3-5.3-82.8-9.3c-32.1-4.7-64.1-9.7-95.8-16.9c-19.6-4.4-39.3-8.8-57.4-18c-8.5-4.3-17.2-8.2-22.5-16.8
	c-0.7-1.1-1.9-1.2-3-1.6c-2.2-0.8-4.4-1.5-6.5-2.5c-9.3-4.4-15.2-11-16.6-21.9c-3.5-26.5-6.5-53.2-10.8-79.6
	c-1.2-7.6,1.5-15.3,5.4-21.9c6-10,11.7-20.2,17.4-30.3c3.5-6.3,8-11.9,14-16c0.5-0.4,1.1-0.8,1.5-1.3c21.4-22.3,50-30.2,78.4-37.8
	c21.5-5.8,43.9-7.5,65.8-11.2c16.2-2.7,31.9-7.9,48.2-10.3c21.1-3.1,42.1-6.3,63.4-7.7c3.9-0.2,7.9,0,11.5-1.9
	C686,2220.1,690,2220.1,694,2220.1z"/>
<path class="st12" d="M786.8,2358c5.1-11.9,11.3-22.4,20.9-30.6c18.6-15.8,40.1-19.6,63.3-13.5c34.5,9.1,59.3,29.7,70.6,64.3
	c6.6,20.3,3,39.1-12.2,55.1c-2.4,2.6-5,3.6-8.7,3.9c-36.5,2.3-72.9-0.2-109.3-2.4c-27.6-1.7-55-5-82.4-8.6
	c-26.1-3.4-51.6-9.8-77.4-14.5c-9.8-1.8-19.6-3.8-29.4-5.5c-7.5-1.3-14.6-3.8-22.4-4c-8-0.1-13.6-5.7-18.2-11.9
	c-10.1-13.4-16.4-28.5-19.4-45c-2.3-12.9-2.9-25.8-0.2-38.7c0.9-4.5-0.6-8.9-0.8-13.4c-1-27.5,5.8-53.8,12.6-80.1
	c4-15.5,9.1-30.7,17.6-44.4c11.7-18.9,27.6-32.5,50.1-36.6c24.3-4.3,45,3.5,62.7,20.1c15.3,14.4,24.8,32.5,31.8,51.9
	c5.9,16.2,12.7,31.8,20.8,47.2c15.9,30,24.3,62.8,30.1,96.3C787.3,2350.9,786.8,2354.5,786.8,2358z"/>
<path class="st12" d="M1275.4,2266.7c1.4-45.7,10.9-88.6,20.1-131.5c4.6-21.5,9.9-42.8,19.6-62.7c6.3-13.1,14.7-24.6,26.9-32.9
	c0.7-0.5,1.4-0.9,2.1-1.4c12.9-8,20.3-7.3,31.2,3.3c1,1,2.1,2.3,2.6,3.6c12.4,32.6,26,64.9,35.3,98.5c8,29.1,11.3,59.4,15.9,89.4
	c3,19.2,6.3,38.4,9.7,57.6c0.7,4.2,0.4,7.7-2.1,11.3c-8.8,12.4-19.2,22.6-33.1,29.6c-19.8,9.9-40.2,18.3-59.9,28.5
	c-2.5,1.3-5.2,2.5-7.3,4.2c-5.1,4.2-10.3,3.6-15.9,1.2c-12.2-5.1-19.5-14.1-21.6-27.2c-0.3-1.8-0.6-3.5-2-5
	c-13.2-13.7-19-30.6-20.6-49.2C1275.7,2277.9,1275.6,2271.6,1275.4,2266.7z"/>
<path class="st12" d="M2567.2,2273.7c-1.2,6-0.2,13.5,0.9,21.3c1.6,11.4-3.1,21.4-12.9,27.4c-20,12.2-40.2,24.2-62.9,31
	c-1.4,0.4-4.2,3.5-4.8-1.1c-1.5,0.2-3,0.2-4.4,0.6c-18.7,4.6-37.5,8.8-56.6,11.6c-2.8,0.4-5.6,0.5-8.4,0.1
	c-14.2-1.9-28.3-4.1-42.5-5.8c-4.8-0.6-8-2.5-10.5-6.4c-6.9-10.8-8.2-22.2-2.7-33.7c2.5-5.1,4.6-10.3,6-15.7c7-27,25.1-46.6,44-65.4
	c9.9-9.8,21.5-17.3,34.4-22.8c19.8-8.5,39.5-7.8,59,1.2c2.6,1.2,5.1,2,8.1,2C2541.5,2218.2,2567.1,2244.1,2567.2,2273.7z"/>
<path class="st13" d="M1268,2222.7c-0.7-46.1,12.3-88.9,32-130.1c2.3-4.8,5.3-9.2,6-14.7c0.3-2,1.4-4.2,2.6-5.9
	c8.5-11.6,17.1-23,28.7-31.7c6.5-4.9,13.6-7.8,21.9-6.5c15.2,2.3,22.3,18.5,13.6,31.1c-1.7,2.4-2.8,4.4-1.3,7.2
	c0.4,0.8,0.6,2,0.5,2.9c-1.9,18.4,0.3,37.1-7.6,54.9c-6.9,15.5-17.8,27.6-28.2,40.3c-6.3,7.7-13.6,14.7-18.9,23.2
	c-7.2,11.7-9.4,25-10.3,38.5c-1.2,18.5-1,36.9-0.9,55.4c0,5.4-0.4,5.7-5.2,3.9c-4.1-1.6-8.1-3.7-10.5-7.4
	c-5.6-8.5-17-12.3-18.7-24.1c-0.9-6.2-3.4-12.2-3.6-18.5C1267.8,2235,1268,2228.8,1268,2222.7z"/>
<path class="st13" d="M564.5,2272.3c-0.1-29.1,7.3-56,20.9-81.2c5.5-10.3,10.9-20.6,16.2-31c1.6-3.2,3.8-5.8,6.8-7.8
	c16.4-11.1,33.8-19.3,54.2-19c11.6,0.2,18.1,5.9,20.3,17.2c1,5.2,0.5,11.1,5.8,14.7c1.5,1.1,0.6,2.4-0.6,3.3c-2.6,2-3.9,4.8-5.1,7.8
	c-0.9,2.3-2.5,4.3-4.3,6.1c-27.8,28.4-48.3,61.3-60.7,99.1c-0.9,2.8-1.3,5.5-0.7,8.3c2.3,10.9-1.3,20.9-5.6,30.4
	c-2.4,5.4-2.8,10.5-2.7,15.9c0,3.7-1.2,3.8-4.1,2.3c-7.4-3.9-12.6-10.3-18.1-16.2c-1.8-1.9-3.4-3.9-5.5-5.6
	c-9.2-7.7-15-17.2-16-29.4C564.8,2282.2,564.1,2277.1,564.5,2272.3z"/>
<path class="st13" d="M2377.8,2294.8c2.2-47.7,32.7-80.1,68.8-91.1c16.3-5,32.1-2.4,45.7,8.4c6.2,5,9.8,11.7,9.7,20
	c0,0.8-0.2,1.8,0.2,2.5c3.4,6.2-1.1,8.7-5.3,11.1c-5.1,2.9-10.3,5.4-15.5,8.1c-13.4,7-23.2,18.4-34.1,28.3
	c-13.9,12.7-27.7,25.5-41.4,38.4c-3,2.8-5.9,3.1-9.5,2C2384.7,2318.8,2377.8,2308.7,2377.8,2294.8z"/>
<path class="st13" d="M785.2,2361.5c0-3.6,1-8.2,3.6-12.2c13.1-20.4,30.9-34.3,55-38.8c9-1.7,18.3-1.5,27.3,0.7
	c7.9,1.9,13.5,6.8,16.3,14.7c1.3,3.6-0.3,4.6-3.3,4.6c-2.5,0-5-0.5-7.5-0.4c-7.2,0.3-13.8,2.6-19.4,7c-12.7,9.9-23.7,21.4-32,35.2
	c-1.4,2.4-3.2,4.9-3.3,7.7c-0.2,4.3-3,5.4-6.3,6.3C800.3,2390.3,785.4,2378.7,785.2,2361.5z"/>
<path class="st14" d="M1807.7,1938c-54-2.4-115.6-5.5-177.2-7.8c-26.6-1-53.3-1-80,0.4c-11.7,0.6-19.2-5.7-24.7-14.7
	s-4.6-18.5,1.1-27.4c2.9-4.4,7-7.5,11.2-10.6c2-1.5,4.4-2.7,5.5-5c9-18.4,22.7-33.6,34.2-50.4c24.9-36.4,45.4-75.3,65.4-114.4
	c18.9-36.9,36.6-74.4,49.2-114c2.2-6.8,3.2-14.1,6-20.5c2.4-5.5,3.3-11.3,5.5-16.7c3.8-9.3,12-13.4,20.8-16.5c1-0.4,2-0.6,2.1,0.9
	c0.3,4.6,4.3,5.2,7.3,6.4c14.6,6.3,30.2,8,45.7,9.9c24.8,3.1,49.6,6.2,74.5,7.5c24.6,1.3,49.3,1.3,73.9,0c12-0.6,24-0.2,36,0.2
	c52,1.8,103.9,0.8,155.9-2.1c32.1-1.7,64.2-3.5,96.2-6.4c10.8-1,21.6-1.7,31.9-5.1c11.3-3.6,23.1-2.6,34.6-3.8
	c21.5-2.1,42.8-5.7,64.1-9.7c19.6-3.7,39.2-7.5,58.3-13.2c4.5-1.3,6.9-0.4,9.1,4.5c6.3,14,7.8,29.3,13.3,43.5
	c4.5,11.7,8.9,23.2,15.5,33.9c5.4,8.7,7.4,19.2,10.4,29c14.1,47.3,27.9,94.6,42,141.9c3.4,11.3,10.2,20.9,15.4,31.3
	c15.5,30.6,32.1,60.6,48.7,90.6c1.3,2.4,1.3,3.7-1.5,4.7c-7.6,2.9-15,6.6-22.7,8.9c-3.2,1-6.5,1.5-9.8,2.6c-2.5,0.9-5.1-0.1-5.1-3.6
	c0-9.6-5.9-18.4-3.9-28.3c0.2-1.1-0.4-2.7-1.1-3.7c-14.1-21.1-21.7-45.2-31.8-68.1c-22-49.7-40.6-100.8-60.9-151.3
	c-3.5-8.8-8.3-17-10-26.5c-0.8-4.4-5.1-5.4-8.6-6.7c-2-0.8-2.4,1-2.7,2.5c-0.7,3.4-1.4,6.8-2.1,10.3c-2.3,11.2-6.6,21.7-12.6,31.4
	c-5.9,9.5-7.2,20.2-9.5,30.7c-9,39.8-21.8,78.5-33.9,117.4c-9.4,30.3-23,58.8-36.7,87.3c-2.9,6.1-6.1,12.3-10.9,17.2
	c-1.4,1.4-1.7,3.2-2,5c-1.9,10.2-4.8,20-9.7,29.2c-0.6,1.2-1.5,2.3-0.9,3.7c2.5,6-1.2,5.7-5.3,5.3c-35.9-2.9-71.7-6-107.6-8.7
	c-34.9-2.6-69.8-5-104.7-7.2c-43.1-2.7-86.1-5.2-129.2-7.5C1896.1,1942.4,1855.7,1940.5,1807.7,1938z"/>
<path class="st14" d="M1289.2,1941c-2.2-0.3-4,0.8-5.8,1.5c-24.2,8.7-48.5,17.2-73.6,22.9c-8.9,2-8.8,2-13.8-5.8
	c-11.1-17.4-21.1-35.7-33.7-52c-29.1-37.5-47.1-80.9-67.1-123.2c-48.1-101.5-88.9-205.9-124.9-312.3c-10.3-30.5-20.5-61.1-27.4-92.6
	c-2.8-13-6.3-25.7-11.6-38c-3.7-8.6-6.4-17.5-7.7-26.8c-0.2-1.7,0.7-4.6-2.9-4.9c-3.5-0.3-4,2.2-4.9,4.4
	c-5.8,14.7-10.6,29.8-14,45.3c-14.2,64.4-38.8,124.9-65.7,184.9c-42.1,94-90.5,184.8-138.5,275.8c-6.3,11.9-12.7,23.8-18.8,35.8
	c-0.5,1-3.9,3.4,0.7,4c0.8,0.1,0.7,0.9,0.4,1.6c-3.8,8.7-2.4,18-2.6,27.1c-0.2,6-0.2,12,0,18c0.2,4.4-1.7,7.4-5.5,9.2
	c-7.1,3.6-14.5,6.8-22.2,9c-3.4,1-6.7,0.6-10.2-0.4c-5.2-1.5-10.7-1.9-16.1-2.7c-6-1-6.1-1.2-4.2-6.7c1.3-3.9,2.6-7.9,3.6-11.9
	c6.9-26.8,18.9-51.4,30.8-76.1c23.6-49,49.3-97,74.1-145.4c17.8-34.7,35.7-69.2,52.7-104.3c11.9-24.5,20.2-50.6,29.4-76.2
	c12.3-34.4,25.3-68.6,35.9-103.5c17.6-57.8,35.2-115.5,50.4-174c1.2-4.7,3-6,7.8-5.3c5.2,0.8,10.7,0.8,15.9,0.1
	c6.2-0.8,11.9,0.6,17.8,1.7c1.1,0.2,2.6,0.2,2.8,1.7c0.5,5.5,4.9,6.2,8.8,7.3c12.6,3.6,25.6,4.4,38.6,3.9
	c36.7-1.2,73.3,0.9,109.9,0.8c44.2,0,88.3-2.4,132.2-7.2c23.3-2.5,46.5-6.1,69.8-9.1c4.3-0.6,8.6-0.8,12.9-1.4c3.4-0.5,4,1,3.7,3.9
	c-3.3,32.2-1.7,64.6-1.9,96.9c0,3.8-0.1,7.7,0.5,11.5c2.1,12.1-1.6,23.7-2.8,35.5c-1.4,13.6-1.9,27.2-2.6,40.8
	c-1.7,31.8-2.9,63.6-2.2,95.4c0.6,28.1,0.9,56.3,2.2,84.4c0.9,19.9,2.4,39.8,5.5,59.6c1.6,10,1.6,20.2,2.2,30.3
	c1.8,27.6,1.2,55.3,0.9,82.9c-0.3,22.1-2.2,44.2-4.5,66.2c-2.9,27.8-7.9,55.4-6.4,83.5c0.1,1.8-0.4,3.9,0.3,5.5
	c2.6,6.1,0,9.9-5.1,13c-2.5,1.6-4.5,3.9-6.8,5.8c-1.9,1.6-2.9,3.5-2.7,6.1C1292.8,1940,1293,1942.8,1289.2,1941z"/>
<path class="st14" d="M1799.2,1016c-2.5,0-4.1,0-5.7,0c-20.3,0-40.6,0.1-61,0c-12.2-0.1-24.3,0.3-36.3,1.9
	c-12,1.6-23.9-0.8-35.7-2.4c-8.1-1.1-16-3.3-24.1-4s-16.3,0.1-24.4-0.2c-32.6-1.1-65.3-1.5-98-1c-30.8,0.5-61.6,2.2-92.4,3.5
	c-9.8,0.4-19.6,0.6-29.5,0.9c-22.6,0.7-45.3,2.5-67.9,1.1c-12.8-0.8-25.2,1-37.8,1.6c-3.8,0.2-7.6-0.2-11.4-0.5
	c-4.8-0.4-9.5-1.5-13.7,0.5c-1.3-1-0.9-1.6-0.7-2.2c18.5-36.7,33.4-75.1,50.2-112.6c21.3-47.4,44.5-93.9,65.8-141.3
	c26.3-58.4,47.4-118.7,67.5-179.4c18.8-56.7,37.7-113.4,51.4-171.6c5.9-24.8,9.8-50,10.5-75.6c0.2-6.3,2.2-12.1,3.5-18.5
	c2.5,2.1,2.2,5.3,4.2,7.5c0.9-1.8,1.6-3.5,2.5-5c6.2-10.7,18.8-11.1,24.8-0.3c5.8,10.3,10.2,21.3,12.4,33
	c11.9,61.9,29.4,122.2,48.2,182.3c12.3,39.5,21.6,80,34.3,119.4c28.4,87.8,59.5,174.6,102.2,256.7c17.9,34.5,38.1,67.6,58.1,100.9
	C1797,1012.3,1797.8,1013.7,1799.2,1016z"/>
<path class="st14" d="M1323.6,1903.7c-0.9-6.2-0.7-12.4-0.1-17.4C1324.3,1891.3,1324.1,1897.5,1323.6,1903.7z"/>
<path class="st15" d="M2281.9,1968.9c-9.1-1.7-18.2-2.6-27.5-2.4c-2.8,0-5.7,0.6-8.5,0.5c-52.8-2-105.6,0.9-158.4,0
	c-42.6-0.7-85.3-1.4-127.9-3.2c-38.3-1.6-76.5-3.7-114.8-5.9c-45.4-2.7-90.7-5.8-136.1-8.6c-29.1-1.8-58.2-3.3-87.3-5.3
	c-29.7-2.1-59.5-3.4-89.2-6.8c-7.8-0.9-11.4-4-11.3-8.9c0.1-4.8,3.7-7.5,11.6-8.6c16.8-2.2,33.6,0,50.4,0.6
	c21.3,0.8,42.6,2.2,63.9,3.5c31.8,1.9,63.5,3.8,95.2,5.8c23.1,1.4,46.2,2.8,69.3,4.2c24.8,1.5,49.5,3.3,74.3,4.7
	c20.9,1.2,41.9,2.3,62.9,3.2c47.9,2.1,95.9,3.6,143.9,4.5c41.3,0.8,82.6,0.3,124,0.6c12.3,0.1,24.7-0.9,36.9,1.5
	c2.8,0.5,3.1-1.3,3.8-2.8c8.1-16,15.5-32.4,22.5-48.9c16-38.1,31.1-76.6,42.5-116.5c13.2-46.3,25.6-92.9,37.7-139.5
	c4-15.4,8.7-30.7,13.1-46c2.3-8,2-16.6,4.8-24.8c4.9-14.3,10.2-28.4,16.6-42.1c1.1-2.3,2.4-3.4,4.9-3.2c1.6,0.2,3.4,0.2,5,0
	c5.8-0.9,9.6,0.9,10.7,7.1c0.3,2,1.7,3.4,3.8,3.2c3.4-0.4,4.5,1.9,5.7,4.3c4.8,9.7,7.3,20,8.9,30.6c1.8,11.7,5.2,22.9,9.3,34
	c12,32.6,20.9,66.1,30.4,99.5c10.1,35.5,25.9,68.7,38.8,103.1c12.3,32.8,30.3,62.6,46.9,93.1c2,3.7,1.3,4.8-2.3,6.1
	c-7.9,3-15.8,6.1-23.5,9.7c-3.5,1.6-4.8,0.5-6.5-2.5c-7.4-13.1-12.6-27.2-18.2-41c-23.9-58.6-49.4-116.6-71.8-175.9
	c-7.4-19.6-15.7-38.8-23.6-58.2c-1.7-4.1-3.8-7.9-8.7-8.9c-3.2-0.7-5.3-0.1-5.9,3.8c-1,6.1-2.4,12.1-3.7,18.1
	c-3.2,14.8-9.2,28.7-13.6,43.1c-9,29.4-16.6,59.2-25.5,88.7c-11.1,37.2-25.4,73.2-39.6,109.2c-8.9,22.5-19,44.3-29.4,66
	c-1.8,3.7-3.1,7.3-2.7,11.4C2283.3,1968.9,2282.6,1968.9,2281.9,1968.9z"/>
<path class="st15" d="M932.1,1220c0.3,0.1,0.7,0.1,1,0.2c0,6.2,0,12.4,0,18.6c-0.3,0.1-0.7,0.1-1,0.2
	C932.1,1232.7,932.1,1226.3,932.1,1220z"/>
<path class="st16" d="M933.1,1238.8c0-6.2,0-12.4,0-18.6c8.9,1.1,17.7,2.2,26.6,3.3c55.2,6.9,110.5,13.2,166.3,10.3
	c21-1.1,42-0.8,62.9-2.8c25-2.5,50-4.6,74.8-8.5c15.6-2.5,31.3-4.2,47-6.3c3-0.4,5-1.1,4.9,4.1c-0.7,22.1-1.2,44.3,1.3,66.4
	c0.6,5.1,1.1,10.3,1,15.4c-0.6,72.3,2.9,144.6,3.7,216.9c0.3,27.5-1.8,54.9-2.4,82.3c-0.7,33.8-1.3,67.6-1.2,101.4
	c0.1,24,0.1,47.9,2.9,71.8c0.8,6.5-0.4,12.9,0,19.5c0.7,14.3,0.3,28.6,1.3,42.9c1.4,19.7,1.1,39.6,2.9,59.3
	c0.7,8.1,0.7,16.3-0.7,24.4c-1,6-4.4,9.8-10.2,11.8c-23.7,7.9-47.5,15.9-71.2,24c-3.1,1.1-4.4,0.4-5.7-2.4
	c-3.4-7.7-7.5-15.2-10.7-23.1c-9.2-22.6-22.5-42.9-35.3-63.5c-34.1-54.9-62-113-88.9-171.7c-39.3-85.8-73.1-173.9-105.6-262.4
	c-16.5-45.1-30.8-91-45.8-136.6c-3.2-9.6-5.2-19.6-5-29.9c0-2.1-0.5-3.9-1.4-5.7C940.9,1253.5,937,1246.1,933.1,1238.8z"/>
<path class="st15" d="M1608.8,994.9c-7.7-38.8-14.6-77.5-20.6-116.3c-5-32.8-9.4-65.7-14.3-98.5c-5.1-34-9.5-68-14-102.1
	c-3.4-25.5-6.2-51.1-8.7-76.7c-1.7-17.7-2.5-35.5-4.1-53.2c-1.7-18.6-3.8-37.1-5.7-55.6c-0.6-5.8-1.3-11.6-1.1-17.4
	c0.7-20.4-5.2-39.8-8.7-59.5c-5.2-29.4-11-58.7-16.4-88.1c-1.3-7,2.6-13.7,8.9-15.9c6.4-2.3,13,0,16.7,6.5
	c6.8,12.1,11.1,25.2,13.7,38.8c11.9,61.8,30.2,122,48.6,182.1c12.2,40.1,21.9,80.9,34.9,120.8c28.9,88.7,60.7,176.2,104.7,258.8
	c15,28.1,31,55.5,48,82.4c3,4.7,5.6,9.5,8.3,14.3c1.7,3.2,0.2,4.7-2.6,5.5c-1.9,0.5-4,0.7-5.9,0.6c-43.3-1.4-86.6-2.4-129.9-4.5
	c-15.9-0.8-31.8-2.2-47.5-4.7c-3.7-0.6-7.6,0.4-11.5,0.2c-63.8-2.9-127.6-0.2-191.3,2.4c-36.1,1.5-72.2,3-108.4,2.2
	c-7.3-0.2-14.7-0.4-21.9-1.8c-1.9-0.4-3.9-1-5.6-2c-3.4-1.9-5.8-4.7-4.6-9c1.1-4.1,4.4-5.2,8.2-5.2c5.3,0.1,10.6,0.5,16,0.6
	c46.7,0.7,93.3-1.7,139.9-3.6c57.3-2.3,114.6-3.8,171.9-1.2C1606.6,995,1607.8,994.9,1608.8,994.9z"/>
<path class="st17" d="M1028.1,1363.9c4.6,0,9.3,0.4,13.9-0.1c9.5-1,14.4,4.7,18.2,11.8c4,7.6,4.8,16.2,5.6,24.5
	c1.2,11.5,2.7,23.1,2.4,34.7c0,1.7,0,3.3-0.2,5c-0.3,2.5-1.3,3.8-3.9,2c-16-11.4-30.8-23.8-35.3-44.4c-0.1-0.2-0.5-0.4-0.7-0.6
	C1028.1,1385.9,1028.1,1374.9,1028.1,1363.9z"/>
<path class="st18" d="M1354.1,911.1c2.1-6.1,1.7-12.6,2.8-18.9c3.1-17.3,13.5-26.5,31-26.4c5.3,0,12.3-2.3,15.3,1
	c2.6,3,0.7,9.8,0.9,15c0.3,11.5-0.4,22.9-3,34.1c-0.3,1.4-0.5,3.1-1.4,4.2c-10.2,13.3-21.9,24.9-37.4,32.1c-3.7,1.7-6.2,1-8.3-2.2
	C1354.1,937.1,1354.1,924.1,1354.1,911.1z"/>
<path class="st18" d="M2029.9,1723c0.7-7.2-1.2-15.8,1-24.1c1.8-7.1,3.1-8,10.3-8c8,0,16,0.2,24-0.1c3.6-0.1,5.6,1.2,5.6,4.6
	c-0.1,14.5,1.2,29-0.9,43.4c-0.2,1.1-0.3,2.5-1,3.3c-8.7,9.2-17,18.9-31.3,19c-3.4,0-5-1.1-5.8-4.6
	C2029.4,1745.8,2030.1,1735,2029.9,1723z"/>
<path class="st18" d="M2101,1797c-0.6,5.9,0.9,13.1-0.9,20.1c-3.2,12.1-21,24.3-33.4,22.8c-4-0.5-5.5-3.3-5.5-6.6
	c0.1-13.9-1.2-27.9,0.9-41.8c1.3-8.8,10.4-16.3,19.9-16.5c4.8-0.1,9.7,0.1,14.5-0.1c3.4-0.2,4.8,0.8,4.6,4.5
	C2100.8,1784.8,2101,1790.3,2101,1797z"/>
<path class="st18" d="M1719,1793.9c0.3-6.4-0.6-14.3,0.9-22c1.4-7.5,5.7-11.3,13.2-11.3c4.8,0,9.7,0.3,14.5-0.1
	c4.6-0.4,6.2,2.1,6.3,5.7c0.2,11.6,1.6,23.5-0.4,34.8c-2.5,14.2-11.6,24.7-24.9,31.1c-4.1,2-5.6-1.2-6.6-3.9c-2-5.3-2.9-10.9-3-16.5
	C1718.9,1806.2,1719,1800.7,1719,1793.9z"/>
<path class="st18" d="M1641.1,1843.1c0,3,0,6,0,9c0,16.5-12.4,33.6-28,39.1c-4,1.4-5.6-0.3-6.7-3.5c-0.6-1.9-1.1-3.9-1.1-5.9
	c-0.3-15.8-1-31.6,1.8-47.2c1.3-7.6,8.7-13.5,16.3-13.6c4-0.1,8,0.2,12-0.1c4.2-0.2,5.7,1.9,5.7,5.7
	C1641.1,1832.1,1641.1,1837.6,1641.1,1843.1z"/>
<path class="st19" d="M1425.1,902.3c0-4.3,0-8.7,0-13c0.1-9.7,6.5-16,16.4-16.1c3.5,0,7,0.3,10.5-0.1c4.9-0.6,7.4,2,7.9,6.2
	c1.5,12.7,2.2,25.7-0.1,38.3c-1.6,8.5-8.2,15.1-16.1,19.4c-5.4,2.9-9.8,1.3-13.3-3.9c-3.5-5.1-5-10.8-5.2-16.9
	C1425,911.6,1425.1,907,1425.1,902.3z"/>
<path class="st18" d="M1687.6,1702c0.1-8.7,1.2-17.2,2.3-25.8c1.5-11.6,9.8-16.1,19.3-17.6c4.2-0.7,8.6,0,13-0.2
	c2.3-0.1,3.4,0.8,3.4,3.1c0.1,11,0.1,22-1.5,32.9c-0.5,3.6-2.1,6.6-4.7,9.1c-6.7,6.5-13.3,13.1-22.7,15.8c-7.3,2.1-9,0.7-9.1-6.8
	C1687.6,1709,1687.6,1705.5,1687.6,1702z"/>
<path class="st19" d="M1697,1778.6c2.4,20.1-7.7,33.7-23.3,44.2c-6.5,4.3-8.4,3.3-9.8-4.3c-1.7-9.4-1-18.9-0.3-28.3
	c0.4-6.1,1.2-12.2,3.5-18c2.4-6.1,6.7-9.1,13.3-9.2c3.8,0,7.7,0.3,11.5-0.1c4.2-0.4,5.2,1.7,5.1,5.2
	C1696.9,1771.6,1697,1775.1,1697,1778.6z"/>
<path class="st20" d="M1964,1644.9c-0.7-1.3-2.1-1-3.1-0.9c-12.5,0.4-25-0.4-37.4-1.1c-16.6-1-33.1-2.6-49.7-3.7
	c-10.9-0.7-21.8-2-32.7-3c-15.2-1.4-30.4-2.9-45.4-5.4c-25.7-4.2-51.3-9.1-76.9-13.8c-8.5-1.5-16.1-5-23.3-9.8
	c-5.7-3.8-6.3-5.6-3.8-11.9c5.5-14.1,12.2-27.7,15.4-42.7c1.2-5.8,7-3,10.2-5.3c-9.6-19.7-6.7-40.6-3.9-61.5
	c1.5-11.2,3.2-22.4,5.5-33.5c0.8-3.9,2.9-3.9,6-4c3.4-0.1,4,1.4,4.4,4.4c1.4,11.1,3.1,22.1,4.6,33.1c0.3,1.9,0.6,3.4,2.9,4
	c27,7.8,53.4,17.5,80.6,24.7c51.3,13.6,103.3,23,156.5,25.4c14.9,0.7,29.6-1.8,44.4-2.6c14-0.7,28,0.3,42-0.2
	c31-1.2,61.6-6.3,92.2-11c58.2-8.9,115.1-23.4,171.1-41.3c16.8-5.3,33.4-11.3,50.1-17c7.7-2.7,15.7-2.6,23.7-2.6
	c2.9,0,3.9-0.9,4.4-3.8c2.1-13.2,0.7-26.6,2-39.7c-0.7-0.3-1-0.6-1.2-0.5c-2.4,1.7-5.6,3.1-7.8,1.4c-1.9-1.4,0.5-4.2,1.1-6.3
	c3.6-11.5,4.5-23.5,6.1-35.3c1.6-12.1,2.5-24.2,2.8-36.3c0.1-2.2,0.8-3,2.9-2.8c0.2,0,0.3,0,0.5,0c8.4-0.3,8.2-0.3,9.8,7.9
	c1.9,9.3,4.1,18.5,6.2,27.8c1.8,7.5,2.7,15.1,2.7,22.8c0,3.5,0.8,6.8,3,9.6c0,1.3,0,2.7,0,4c-2,1.3-3.5,2.9-4.4,5.1
	c-0.6,1.6-1.7,3.2-3.4,3.5c-3.3,0.5-3.2,2.4-2.9,5c1.4,13.3,1.4,26.6,1.2,39.9c-0.1,5.7-1.4,11.6,3.2,16.4c0.7,0.8,0.9,2.1,1.1,3.3
	c3.2,17.2,3.6,34.5,2.4,52c-2.5-0.2-1.7-3-3.5-3c-6.8,0-13.4,2.2-20.3,2.1c-2.8,0-0.7,3.1-2,4.3c-0.2,0.2-0.6,0.2-0.9,0.3
	c-3.6,0.5-5.2,3.4-7,5.9c-9,12.4-13,26.8-17.5,41.1c-1.7,5.3-2.1,10.7-2.7,16.1c-0.6,5.7-2.4,8.5-8.3,9.1
	c-17.2,1.6-34.3,3.8-51.5,4.6c-18.6,0.9-36.7,5.3-55.1,7.8c-17.6,2.3-35.1,5.3-52.7,7.3c-16.5,1.9-33,3.3-49.6,4.3
	c-24,1.6-48.1,3-72.2,3.9c-11.6,0.5-23.3,0.8-34.9,1c-1.1,0-2.4-0.4-3.1,0.9C2018.6,1644.9,1991.3,1644.9,1964,1644.9z
	 M2398.4,1485.2c-26.3,11.6-53.9,20.3-81.4,28.9c-27.6,8.6-55.5,16.2-83.7,22.8c-27.9,6.6-56.2,11.5-84.4,16.7
	c14.2-1,28.4-2.2,42.5-3.8c21.7-2.5,43.4-5.4,65.1-7.8c21.4-2.3,42.6-6.1,63.8-9.4c23.4-3.6,46.5-9.4,70.4-7.5
	c1.7,0.1,2-0.3,2.2-1.7C2394.6,1510.5,2396.6,1497.5,2398.4,1485.2z M1900.2,1558.5c-55.1-9.4-110.3-22.5-162.7-46.2
	c-1.2,11.9,1.7,23.8-1.7,35.3c12.5,1,25,1.4,37.4,1.4c9,0,17.9,0.5,26.9,1.2c12.2,1,24.4,2.5,36.6,3.7c13,1.3,26,2.9,39.1,3.6
	C1884.3,1558,1892.9,1559.7,1900.2,1558.5z"/>
<path class="st20" d="M1077.8,1325.3c-39.3,0-74.7-1.7-109.4-10.3c-3.1-0.8-6-1.9-9-3c-2.7-1-4.9-3.1-4.4-6c0.7-3.7-1.2-6.2-2.7-9.1
	c-4.1-7.9-6-16.5-7.3-25.3c-1.2-8-4-15.8-4.2-24c0-1.5-0.8-2-2.3-1.3c-4.7,2-9.5,0.8-14.3,0.1c-6.2-1-12.3-2.6-18.7-2.7
	c-7.8-0.1-12.6-6.7-11.3-14.7c0.4-2.3,1.1-4.6,0.7-6.9c-0.7-4.6,1.8-5.7,5.7-6c3.1-0.2,7.5,1.5,8.9-0.8c1.3-2.1-0.4-6-0.9-9.2
	c-3-20.1-2.4-40.2-1.3-60.3c0.7-13.5,1.8-26.9,2.7-40.4c0.1-1.9,0.5-3.3-2.3-3.7c-6.8-0.9-10.4-5.5-11.8-11.9
	c-1.6-6.8-0.5-13.6,0.6-20.3c3.7-22.5,9.4-44.5,15.3-66.6c0.6-2.4-0.7-6.7,4.4-6.1c4.3,0.5,5.7,2.9,6.1,7
	c2.1,25.8,9.5,50.6,15.2,75.8c2.3,10.4,0.3,19.5-10.4,21.7c-2,0.4-2,1.8-1.9,3.4c1,9.8,2,19.6,2.8,29.3c0.2,2.5,1.1,3,3.4,2.6
	c3.8-0.7,7.3,0.5,10.4,2.7c32.8,23.1,69.8,37,107.5,49.4c58.6,19.2,118.6,31.8,180.3,35c26.7,1.4,53.6,2.2,79.5-6.7
	c4.1-1.4,5.3-0.3,5.3,4.1c0,8,0.6,16,1.2,23.9c1,15,2.2,30.1,4.3,45c0.6,4.5-3.6,10.3-9.7,12.5c-8.8,3.2-18.2,4.2-27.4,5.3
	c-44.4,5.6-89,10-133.6,13.9C1124.3,1324,1099.2,1325.8,1077.8,1325.3z M931.4,1166.3c2.1,16.1,2.4,31.9,2.1,47.8
	c0,1.4-0.6,3.4,1.5,3.6c6.3,0.5,11.5,4.8,17.6,5.2c26.2,1.7,52.3,5.9,78.7,5.2c11.3-0.3,22.6,0.4,33.9,1.4c8.6,0.7,17,0.3,25.6,0.2
	C1035.5,1214.4,980.8,1198,931.4,1166.3z"/>
<path class="st20" d="M1524.1,126.4c3,1,3.1,3.4,3.8,5.4c4.4,12.2,5.3,25.3,9.3,37.5c4.7,14.8,6.2,29.8,5.7,45.2
	c-0.2,6.6-1.6,12.6-7.3,16.7c-2.2,1.5-2.2,3.4-2.2,5.6c0.2,19.8,2.9,39.5,3.5,59.3c0.1,4,0.3,8,0.9,12c0.4,2.8-1.2,7,4,7.6
	c0.5,0.1,0.8,1.7,1.1,2.6c6.6,23,11.8,46.3,16.2,69.8c0.6,3,1.5,5.8,2.8,8.5c3.8,8.5,6.9,17.3,8.7,26.5c2.3,11.4-3.1,18.4-14.6,18.3
	c-16.7-0.1-33.3,1.4-49.8,3.5c-3,0.4-6.1,0.6-8.8,1.6c-5,1.9-7.1-0.9-8.8-4.6c-2.1-4.7-1.7-9.7,0.3-14.1
	c8.3-18.5,7.6-38.6,11.3-57.9c2.6-13.9,4.7-27.9,7.2-41.8c0.5-2.6,0.9-5.6,2.6-7.5c3.8-4.3,3.2-9.1,3.2-14.1
	c-0.1-21.2,0.6-42.3,3-63.4c0.4-3,0.2-4.7-3.6-5.2c-4.9-0.7-6.5-3.7-5.7-8.6c3.4-21.4,6.2-42.8,8.6-64.3c0.9-8.5,5.3-16.1,6.4-24.6
	C1522.3,135.9,1523.2,131.4,1524.1,126.4z"/>
<path class="st21" d="M2009,1614.9c-0.5-1.2-1.6-1-2.6-1c-12.3-0.1-24.6-0.3-36.9-0.9c-22.6-1.1-45.1-2.4-67.7-3.9
	c-13.9-0.9-27.8-2.2-41.7-3.3c-12.6-1-25.1-2.7-37.6-3.9c-2.6-0.3-3.1-1.4-2.2-3.6c5.2-13.4,8.1-27.4,11.4-41.3
	c0.7-3,2.2-3.3,4.5-3.1c8.7,0.8,17.5,1.8,26.2,2.5c12.6,1,25.1,1.8,37.8,2.3c-19.9-3.4-39.7-7.3-60.8-12.4
	c8.8-1.1,16.4-0.8,23.1,1.4c18.8,6.3,38.3,8.5,57.8,9.9c33.2,2.4,66.4,4.3,99.7,4.2c20.3-0.1,40.5-1.8,60.7-3.7
	c9.2-0.9,18.6-0.2,27.9-0.3c25.8-0.4,51.5-1.9,76.8-7.7c2.4-0.5,5-0.1,7.4-0.2l0.1-0.1c-6.4,8.5-12.8,16.9-19.2,25.5
	c-7.6,10.1-14.1,20.9-19.2,32.5c-1.2,2.7-2.7,3.9-5.9,4.1c-12.9,1-25.8,1.9-38.7,1.9c-1.4,0-3-0.6-4.1,1
	C2073.6,1614.9,2041.3,1614.9,2009,1614.9z"/>
<path class="st22" d="M958.1,1235c17.7-2.1,35.5-0.5,53.2-1.1c2.9-0.1,4.1,0.8,4.6,3.6c3.1,17.7,7.5,35.1,11.6,52.5
	c0.7,3.2,0.3,3.4-2.9,3.2c-15.9-0.8-31.7-1.9-47.3-5.3c-3.2-0.7-4.7-2.1-6.3-5.1c-5.9-11.2-6.4-23.5-8.8-35.5c-0.8-3.9-1-8.2-4-11.4
	C958.1,1235.6,958.1,1235.3,958.1,1235z"/>
<path class="st22" d="M1537,310.1c-2.1,12.3-4.3,24.5-4.5,37c-0.3,20-3.2,39.8-2.5,59.8c0.1,2.1-1.1,2.6-3,3.2
	c-4.7,1.5-9.5,2.2-14.1,5.2c-4.3,2.8-11,1.2-16.6,0.5c-2.1-0.3-1.5-3.5-1.5-5.3c0.2-10.2,2.2-20.2,3.7-30.2
	c1.1-7.6,2.6-15.1,3.4-22.7c0.4-4.3,1.8-6.5,6.6-5.8c-1.6-0.9-4.3-0.3-4.8-2.1c-0.5-1.8,0.1-3.9,0.5-5.8c1.7-8.1,1.6-16.8,6-24.1
	c1.9-3.2,3.1-6.1,2.8-9.7C1521,310.1,1529,310.1,1537,310.1z"/>
<path class="st21" d="M2421.9,1416.9c-3.7,5.8-9.2,6.4-15.2,4.9c-3.1-0.8-5.6-2.5-5.4-6.1c0.2-3.3,2.6-4.7,5.6-5.3
	c5.8-1.1,11.2-1.1,15,4.5C2421.9,1415.6,2421.9,1416.3,2421.9,1416.9z"/>
<path class="st22" d="M1115.8,1232.7c10.1,1.2,19.7,2.1,29.2,3.4c27.9,3.8,55.8,2.9,83.8,2c26.3-0.9,52.5-3.5,78.6-6.9
	c6-0.8,6.2-0.6,5.3,4.9c-0.2,1.6-1,2.7,1.5,3.1c1.7,0.2,1.3,2.2,1.2,3.4c-0.3,6.8,0.9,13.5,1.8,20.2c0.6,4.5-1.2,6.1-4.9,7.6
	c-15.8,6.4-32.3,9.6-49,12.5c-18,3.1-36.1,5-54.2,6.8c-11.2,1.1-22.5,1.5-33.8,2.2c-8.9,0.6-17.9,1-26.8,1.9
	c-4.4,0.4-6.6-0.4-8.3-5.1c-5.8-16.5-13.2-32.3-21-47.9C1118,1238.5,1116.4,1236.3,1115.8,1232.7z"/>
<path class="st22" d="M2288.7,1592.8c2.2-10.7,4.2-21.1,6.3-31.4c1.4-6.9,2-13.8,2.1-20.8c0-3,0.7-4.4,4.3-4.9
	c16.8-2.5,33.5-6.1,50.4-8.2c5.9-0.7,12.1,0.5,18.2-0.5c1.4-0.2,3,0.1,4.3-0.9c5.3-3.9,10.1,1.2,15.2,1.2c1.3,0,0.5,1.6,0.1,2.4
	c-6.5,12-11.2,24.8-16.8,37.2c-1.8,4-5,7.3-6.5,11.6c-0.7,1.9-2.5,1.5-3.8,1.6c-13.7,1.1-27.3,3-40.8,5.8
	C2310.8,1588.2,2299.8,1590.5,2288.7,1592.8z"/>
<path class="st22" d="M1809.7,1551.3c-4.5,11.5-10.2,22.3-13,34.2c-0.6,2.4-1.6,4.8-1.7,7.3c-0.1,4.9-2.5,5.7-6.7,4.9
	c-12.7-2.3-25.4-5.6-38.1-6.1c-15.2-0.6-29-6.6-43.7-8.8c-4.3-0.6-7.7-8.4-5.3-13.1c2.5-4.8,3.2-9.7,2.6-14.8
	c-0.3-2.6,1.2-3.7,3-4.6c3.2-1.5,6.6-2.4,10.1-2.4c27.1-0.2,54.2,1.2,81.3,2.1C1801.9,1550.1,1805.5,1550.8,1809.7,1551.3z"/>
<path class="st22" d="M1028,1234c15.1,0,29.4-0.2,43.7,0.1c9.2,0.2,18.3-0.9,27.4-1.1c2.1,0,3.5,0,4.3,2.7
	c5.5,19.2,11.5,38.2,19.5,56.5c0.2,0.4,0,1,0,1.6c-20.6,1.1-41.2,2-61.8,0.4c-2.2-0.2-3.4-0.7-4.4-3c-7.6-18.9-16.9-36.8-27.3-54.3
	C1029.2,1236.1,1028.8,1235.4,1028,1234z"/>
<path class="st22" d="M2283.7,1538.6c-6.7,14.1-13,27.6-19.4,41.2c-2.2,4.7-4.3,9.4-5.3,14.5c-0.7,3.4-2.5,4.9-5.8,5.4
	c-19.5,3.1-38.9,6.4-58.6,8.2c-2.5,0.2-4.8,1.5-7.4,0.8c-0.6-0.6-0.3-1.2,0-1.8c10.5-17.7,17-37.2,24.3-56.3
	c1.1-2.9,2.4-3.5,5.3-3.9c20.4-2.4,40.8-4.3,61.1-7.7C2279.6,1538.8,2281.5,1538.8,2283.7,1538.6z"/>
<polygon class="st21" points="2193,1550 2193.1,1549.8 2193.1,1550 "/>
<path class="st23" d="M1466,1069.1c12,3,16.1,13.4,20.9,22.8c7.8,15.4,10.9,32,13.2,48.9c2.3,17,4,34.1,5.2,51.2
	c0.2,3.5,0.7,6.9,2,10.2c1.2,3,1.4,6.2,0.8,9.3c-0.8,3.8-4.5,6.2-7.9,4.5c-6.2-3.2-12.9-3-19.4-2.9c-14.6,0.2-29.2,1.1-43.8,1.9
	c-3.8,0.2-5-1-5.6-4.6c-1.4-8.5,1.1-16.5,1.8-24.8c1.3-16.8,2.1-33.6,4-50.3c1.9-17,5.9-33.8,11.1-50.1c2.6-8,9.1-12.2,15.8-16.2
	C1464.7,1069.1,1465.4,1069.1,1466,1069.1z"/>
<path class="st24" d="M1935.8,2310.2c0.6,18.8-0.4,35,1.1,51.1c0.6,6.3-2,7.5-8.3,7.8c-11.8,0.5-23.5-0.7-35.2-0.6
	c-19.1,0.2-38.2-1.6-57.2-3.1c-7.1-0.5-14.3-1.3-21.4-1.5c-3.2-0.1-3.9-1.2-3.7-4.2c2.5-33.5,0.8-66.9,0-100.4
	c-0.2-6.8-0.5-13.6-0.8-20.5c-0.9-22.8,1.1-45,12.9-65.2c8.4-14.4,20.1-24.4,37.3-26.4c12.2-1.4,23.1,2.4,32.8,9.5
	c20,14.5,29.9,35.2,34.9,58.6c1,4.5,0.5,9.6,2.4,13.7c6.1,13.3,3.8,27.5,5.1,41.2C1936.8,2284.5,1935.8,2298.7,1935.8,2310.2z"/>
<path class="st25" d="M1700,2179.7c0,18,0.7,36-0.3,53.9c-0.5,8.5,0.6,16.9,0.3,25.4c-0.3,7.8-3.1,10.6-10.7,10.1
	c-11.3-0.7-22.6-1.3-33.9-1.2c-6.8,0.1-8.1-1.3-9.6-8.1c-0.5-2.5-0.7-4.9-0.7-7.4c0-31.8-0.2-63.6,0.1-95.4
	c0.1-10.3,0.8-20.6,3-30.7c1.7-7.7,2.8-8.5,10.5-8.5c6,0,12,0.3,18-0.1c6.4-0.4,12.5,1.4,18.8,1.3c3.8-0.1,4.7,2.8,4.7,6.2
	c0.1,13.8-1.5,27.6-1,41.5c0.2,4.3,0,8.6,0,13C1699.4,2179.7,1699.7,2179.7,1700,2179.7z"/>
<path class="st25" d="M1427,1472.5c0-16.6-0.2-30.7,0.1-44.9c0.2-12.6,0.8-25.2,2.9-37.6c0.9-5.2,3.2-7.3,8.7-7
	c10.1,0.4,20.3,0.2,30.5,0.1c3.5-0.1,5.1,1.4,6,4.6c1.5,5.7,1.8,11.6,1.7,17.3c-0.6,42.4,4.7,84.7,3.3,127.2
	c-0.2,7.3,0.8,6.4-6.3,6.4c-13.8,0-27.6-0.1-41.4,0.1c-3.2,0-4.2-0.9-4.4-4.2C1426.5,1512.9,1427.2,1491.5,1427,1472.5z"/>
<path class="st23" d="M992.6,1757.5c0,7.7-0.3,15.3,0.1,22.9c0.2,4.1-1.5,6.1-4.9,7.6c-5.5,2.4-11,1.6-16.7,1.1
	c-12.4-1.1-24.9-2-37.3-2.9c-2.4-0.2-3.5-0.7-3.7-3.4c-1-14.3-3.8-28.6-3.1-42.8c0.8-15.7,0.3-31.5,3.3-47.1
	c1.8-9.3,3.8-18.5,6.7-27.6c1.2-3.8,3-7.4,5.4-10.7c4.3-5.8,10.3-9.1,17.1-8.4c7.3,0.7,12,5.9,15.4,12.7c6.5,12.8,7,26.9,10,40.4
	C989.1,1718.6,990.9,1738,992.6,1757.5z"/>
<path class="st23" d="M786.3,2204.8c1.7-20.6,1.8-41.3,1-61.9c-0.1-2.6-0.2-4.3,3.5-3.9c15.7,2,31.4,3.7,47,5.4
	c2.4,0.3,3.8,0.6,3.8,3.7c-0.6,26.6,2,53.2,2.4,79.8c0.2,10.2-0.2,20.3-0.5,30.4c-0.2,4.5-0.2,9,0.2,13.5c0.5,6.3,0.6,6.6-5.8,6
	c-15.7-1.6-31.4-2.6-46.9-5.8c-3.5-0.7-4.8-1.9-4.8-5.8C786.4,2245.8,786.3,2225.3,786.3,2204.8z"/>
<path class="st23" d="M966.7,2222.4c0-20,0.3-40-1.2-60c-0.2-2.8,0.5-3.4,3.4-3.8c15.8-2.1,31.1,2.1,46.6,3.8
	c8.6,0.9,8.4,1.3,8.8,10.2c1.4,36.5-0.2,73,0.9,109.4c0.1,3.8-0.7,5.1-4.8,5c-17-0.5-34,0.5-50.9-1c-3.3-0.3-4.1-0.9-3.9-4.2
	C966.6,2262,966.9,2242.2,966.7,2222.4z"/>
<path class="st23" d="M894.5,1739.6c0,12.5-0.1,25,0.1,37.4c0.1,3.8-1.1,4.9-4.5,3.7c-8.9-3.3-18.2,0-27.2-1.5
	c-6.4-1-12.9-1.1-19-3.6c-2.6-1-5.3-0.2-7.9-0.5c-2.9-0.2-3.8-1.3-3.9-4.3c-0.3-11.3,0.9-22.6,1.3-33.9c0.6-18.1,1.8-36.2,2.6-54.3
	c0.6-13.6,7.4-24.6,14.5-35.5c1.8-2.7,4.2-3.3,7.3-2.2c6.4,2.2,11.4,6.2,15.5,11.3c9.7,11.9,15.8,25.8,19.8,40.5
	c2.2,8,0.7,16.6,0.8,24.9c0.1,6,0,12,0,18C894.1,1739.6,894.3,1739.6,894.5,1739.6z"/>
<path class="st25" d="M1541.1,1636.8c0,22.3-0.2,41.8,0.1,61.3c0.1,5-1.5,6-6.2,5.9c-12.7-0.3-25.3-0.2-38-0.1c-3,0-4.1-0.8-4.1-3.9
	c0.1-38.7-0.1-77.3,0.3-116c0.1-6,0.3-12.3,1.7-18.3c1.4-5.8,3.6-7.7,9.7-7.7c7.3,0,14.7,0.3,22-0.1c9.8-0.5,12.4,2.1,13.4,12.8
	C1542.2,1593.7,1540.3,1616.7,1541.1,1636.8z"/>
<path class="st25" d="M964.1,2073.2c-0.5,12.4,0.9,29.1-0.6,45.7c-0.2,2.2-0.5,3.6-3.1,4.2c-14.9,3.2-29.7,2.1-44.6,0.1
	c-2.2-0.3-2.5-1.4-2.7-3.3c-1.1-8.1-2-16.1-1.9-24.3c0.1-20.5-0.1-40.9,0.1-61.4c0.1-10.6,0.7-21.2,1-31.9c0.1-3.5,0.8-5.3,5.3-4.4
	c13.8,2.9,27.9,4.7,42,5.6c2.5,0.2,3.6,0.6,3.8,3.6C964.2,2027.7,964.2,2048.4,964.1,2073.2z"/>
<path class="st23" d="M2430.8,2140.5c0,9.3,0,18.1,0,27c0,2.8-0.7,4.4-4.1,4.9c-11.6,1.6-22.5,5.7-32.8,11.2
	c-4.4,2.3-15.3-3.9-16.1-8.8c-5.2-33.8-0.1-66.7,9-99.2c1.8-6.3,4.9-12,9-17.1c2.1-2.6,4.1-3,7.7-1.9c11.8,3.5,16.4,13.6,19.6,23.1
	C2429.8,2099.3,2432.8,2119.9,2430.8,2140.5z"/>
<path class="st23" d="M2435.1,1795.5c1.8,14.1-5.5,25.2-16.1,34.7c-7,6.3-19.2,4.7-26.1-2.7c-13.6-14.9-13.8-32.3-9.4-50.5
	c0.6-2.4,1.7-4.7,2.3-7.1c3.2-12.3,18.1-18.3,29.9-13.4c14.9,6,17.9,18.3,19.4,32C2435.2,1790.5,2435.1,1792.5,2435.1,1795.5z"/>
<path class="st23" d="M1820.9,2013.6c-0.8-9.5,0.2-18.9,1-28.4c0.2-2.4,0.8-2.7,3.3-2.5c11.7,1,23.5,1.5,35.2,2.3
	c5,0.4,9.9,1.2,14.9,1.1c2.8-0.1,4.2,1,3.6,4.2c-3,16.5-3,33.1,0.2,49.6c0.5,2.7-0.2,3.1-2.6,2.9c-17-1.4-34.1-2.7-51.2-3.9
	c-2.8-0.2-4.6-0.8-4.5-4.3C1821.1,2027.6,1820.9,2020.6,1820.9,2013.6z"/>
<path class="st23" d="M1955.7,2032.4c0,4.4-0.1,8.4,0,12.4c0.1,2.2-0.3,3.4-2.9,3.2c-16.2-1.3-32.5-2.5-48.7-3.6
	c-3.2-0.2-4-1-3.5-4.4c2.5-16,3.9-32.1,1.5-48.2c-0.4-2.8-0.1-3.6,3.3-3.1c5.9,1,11.9,1.1,17.8,1.4c8.5,0.4,16.9,0.8,25.4,1.1
	c4,0.1,5.6,1.3,5.5,5.9C1954,2008.8,1956.8,2020.7,1955.7,2032.4z"/>
<path class="st26" d="M411.1,2310.1c2.9-8.1,5.3-16.3,10.5-23.4c1.2-1.6,2.4-3.2,4.1-4.3c8.3-5.3,16.6-10.5,24.8-15.8
	c6.2-4,13.5-4.2,20.5-5.7c11.2-2.3,22.4-4.5,33.7-6.7c1.4-0.3,3-0.1,4.5-0.1l-0.1-0.1c-8.1,4.5-16.3,8.9-24.3,13.7
	c-11.1,6.6-21,14.6-29.1,24.9c-18.1,23.1-13.5,40.1,8.1,57.3c15.8,12.6,34.6,19,53.5,25.1c26.6,8.6,53.9,13.9,81.5,18.2
	c24.4,3.8,48.7,8,73.1,11.6c18.7,2.8,37.5,5,56.2,7.2c17.1,2.1,34.2,4.1,51.4,5.8c10.1,1,20.2,1.4,30.3,2.2
	c51.3,4.3,102.8,2.1,154.2,3.3c16.5,0.4,32.9,1.8,49.4,1.6c25.6-0.3,51-2.9,76.3-6.6c25.6-3.8,51.2-7.2,76.7-11.4
	c35.5-5.8,70.2-14.6,103.2-29.2c5-2.2,10.2-2.8,15.3-4.1c30.2-7.7,59.5-18,87.9-30.9c1-0.5,2.6-1.1,2.7-1.9c0.8-4.9,5-5.9,8.5-7.6
	c47.3-22.9,94.7-45.8,142-68.8c5.3-2.6,10.7-0.9,16.9-1.6c-2.6,6.1-7,9.1-11.9,11.6c-9.5,4.9-18.9,9.8-28.5,14.6
	c-18.8,9.3-34.8,22.7-51.6,35c-12.4,9.1-26,16.1-39.4,23.6c-40.4,22.7-81.6,43.6-124.4,61.3c-27.6,11.4-56.4,18.5-85.9,23.2
	c-18.3,2.9-36.6,6.3-55,8.7c-29.6,3.8-59,8.9-88.5,12.9c-15.6,2.1-31.4,2.8-47.2,3.4c-38.3,1.4-76.6,0.6-114.9,0.9
	c-24.5,0.2-49-0.8-73.4-1.3c-23-0.5-46.1-2.3-69.1-4.5c-19.8-1.9-39.6-3.8-59.3-6.3c-22.2-2.8-44.4-5.7-66.4-9.5
	c-23-3.9-46.1-7.4-69.2-11.4c-35.4-6.2-70.3-14.1-103.3-28.9c-8.9-3.9-17.2-8.8-24.8-14.8c-9.1-7.2-15.5-16.2-19-27.3
	C411.1,2339.4,411.1,2324.8,411.1,2310.1z"/>
<path class="st26" d="M2007.9,2500c-2.1,8.5-4.3,16.9-6.3,25.4c-9.9,42.7-27.1,82.9-42,123.9c-2.8,7.8-2.8,7.7-11.1,6.8
	c-9.2-1-18.5-1.8-27.8-2.4c-2.6-0.2-3.8-0.7-3.8-3.6c0-5.6,0.2-10.9,3.2-15.8c14.9-24.3,23.8-51.6,36.7-76.8
	c10-19.5,22-38,34.6-55.9c2.2-3.1,5-5.8,7.8-8.4c2.7-2.5,5.7-3.4,8.6-0.1C2007.9,2495.3,2007.9,2497.7,2007.9,2500z"/>
<path class="st27" d="M1916.7,2530.9c-34.5-0.6-68.8-2.5-103.2-4.8c-23.7-1.6-47.5-2.7-71.2-4.4c-34.2-2.5-68.4-4.8-101.9-12.7
	c-3.9-0.9-7.6-2.4-11.4-3.7c-2.7-0.9-3.6-2.1-1.1-4.4c5.9-5.4,11.7-10.9,17.4-16.4c2-1.9,4.4-1.3,6.6-1.1
	c13.1,1.3,26.1,2.9,39.2,4.1c15.1,1.4,30.2,2.5,45.2,3.6c24.7,1.7,49.5,3.3,74.2,4.8c20.8,1.3,41.5,2.4,62.3,3.4
	c23,1.2,45.9,1.7,68.9,2c3.8,0,7.6,1,11.4,1.5c2.1,0.3,3,1,1.7,3.2c-4.7,7.7-9.3,15.4-13.9,23.1c-1.1,1.9-3,1.8-4.8,1.8
	C1929.7,2530.9,1923.2,2530.9,1916.7,2530.9z"/>
<path class="st27" d="M1533.7,2610.3c5.9-6.4,11.5-12.5,17.2-18.5c1.9-2,4.6-1.7,7.1-1.6c18.9,1,37.9,1.8,56.8,3.3
	c25.7,2,51.4,4.3,77,6.7c25.8,2.4,51.6,5.2,77.4,7.7c22.2,2.2,44.4,4.2,66.5,6.3c6.1,0.6,12.3,1.1,18.3,1.9
	c6.3,0.9,11.6,4.1,16.2,8.4c5.3,5.1,4.2,12.2-2.3,15.7c-7.4,4-15.4,5.3-23.7,4.5c-24.6-2.5-49.3-5.1-73.9-7.6c-21-2.1-42-4.2-63-6.2
	c-29.5-2.9-58.9-5.9-88.4-8.6c-23.5-2.1-47-4.2-70.3-8.4C1543.9,2612.9,1538.9,2612.4,1533.7,2610.3z"/>
<path class="st27" d="M1583.6,2556.1c5.8-7.2,11.3-14.1,16.7-20.9c1.2-1.5,2.5-1.7,4.4-1.5c26.5,2.8,52.9,5.5,79.4,8.1
	c21.5,2.2,43,4.2,64.5,6.4c21.2,2.2,42.3,4.5,63.5,6.6c16.4,1.6,32.8,2.9,49.2,4.4c18,1.7,36.2,2.6,53.5,8.9c3.9,1.4,5,3,3,6.7
	c-2.5,4.7-4.9,9.5-7.1,14.3c-1.2,2.5-3.2,2.5-5.4,2.6c-11.9,0.6-23.6-1.2-35.3-2.2c-16.4-1.4-32.8-3.1-49.1-4.7
	c-21-2.1-42-4.1-63-6.3c-18.2-1.9-36.4-3.7-54.5-5.8c-24.1-2.7-48.2-5.6-72.3-8.4c-14-1.7-28-3.7-41.9-6.3
	C1587.3,2557.7,1585.7,2557.5,1583.6,2556.1z"/>
<path class="st26" d="M1606.6,2478.5c0.1,7.2-3.5,13.1-6.8,19c-15.8,28.5-35.4,54.3-55.1,80.1c-15.4,20.2-30.5,40.8-45.7,61.2
	c-1,1.4-2.7,2.5-0.4,4.4c2.2,1.9,1.6,4.6-0.2,6.2c-4.5,4.2-9,8-16.2,6.6c-13.7-2.7-27.3-5.8-41.3-6.3c-4.1-0.1-2.1-2.5-1.2-4
	c5-8.5,11.2-16.1,17-24c27.1-36.1,58.7-68.4,87.5-103.1c13.5-16.3,29-30.7,45.9-43.6c3-2.3,6.4-3.3,10.2-3.2
	C1606.4,2472.2,1606.7,2472.3,1606.6,2478.5z"/>
<path class="st26" d="M509.1,2254.2c0.2-0.8,0.8-0.9,1.5-0.8c0.1,0,0.2,0.3,0.3,0.5C510.3,2253.9,509.7,2254,509.1,2254.2
	C509,2254.1,509.1,2254.2,509.1,2254.2z"/>
<path class="st28" d="M1858.7,2163.3c0-1.1,0.2-2.4-1-3.1c0-0.3,0-0.7,0-1c0.9-0.1,1.3-0.8,1.7-1.5c2-3.6,4.8-6,9-4.9
	c4.5,1.1,6.6,4.6,6.8,9.1c0.2,4.1,0.3,8.3,0.3,12.4c-0.5,47.3-1,94.6-1.5,141.9c-0.1,7,0.1,13.9,0.7,20.9c0.6,7.8,0.5,15.6,0.4,23.4
	c-0.1,4.4-2.5,7.6-6.8,8.6c-3.9,0.9-9.5-0.4-10.7-0.6c0-0.3,0-6.7,0-7C1859.3,2355.5,1858.7,2176,1858.7,2163.3z"/>
<path class="st29" d="M1948,2237.9c-1.3,0-2.7,0-4,0c-1.1-2-2.7-3.6-4.9-3.9c-10.7-1.5-15.1-8.6-17.1-18.2
	c-2.5-11.8-7.7-22.3-14.9-31.8c-13.6-17.8-31-28.3-54.2-27.1c-3.3,0.2-5.6,1.1-7.6,3.6c-11.2,13.7-19.6,28.8-25.1,45.6
	c-2.4,7.3-4.6,14.6-7.8,21.6c-4.7,10.4-17.4,11.4-24.3,2.3c-2-2.6-3.3-5.4-3.7-8.6c-0.5-4.8-0.8-9.7,0.2-14.4
	c7-33.3,22.1-62.2,47.4-85.4c9.6-8.9,20.7-14.9,33.8-17.1c1.2-0.2,2.8,0.3,3.4-1.4c3.7,0,7.3,0,11,0c0.6,1.5,1.9,1,3,1.1
	c7.6,1,15,3,22,6.2c25.3,11.5,40.7,32,51,56.8c5.2,12.5,9.7,25.3,7.9,39.1C1962.2,2218.6,1959.7,2230.6,1948,2237.9z"/>
<path class="st30" d="M1966,2199.1c0.1,6.4,0.2,12.1-2,17.5c-0.8,2-1.7,4-3,5.7c-2,2.9-4.6,6.3-8,6c-2.2-0.2-2-4.7-2.8-7.3
	c-8.6-27.2-20.5-52.7-39.9-74c-13.3-14.6-29.4-23.1-49.6-22.8c-6.4,0.1-12.7,1.2-18,4.9c-4.6,3.1-6.2-0.6-8.3-3.1
	c-2.8-3.2,0.9-3.9,2.4-5c6.4-4.7,13.2-9,19.4-13.9c6.7-5.4,14.1-6.6,22.3-6.6c21.7,0,42,5.7,56.3,22.1
	c13.8,15.9,25.9,33.5,29.1,55.5C1965,2185.3,1966.3,2192.5,1966,2199.1z"/>
<path class="st31" d="M2409.3,1739.4c6.8,4.3,7.4,10.9,7.1,18.1c-0.3,8.1,0.1,16.3-0.1,24.5c-0.1,3.1,0.7,3.6,3.7,2.8
	c4.4-1.3,8.9-2.6,13.7-2.5c3.9,0.1,7,1.4,7.9,5.4c1,4.3-1.4,7.2-5.1,8.6c-5.3,1.9-10.8,3.4-16.3,4.7c-3,0.7-4,2-3.9,5.1
	c0.2,8.5,0.1,17,0,25.5c-0.1,6.6-3.6,10.7-8.7,10.6c-4.9-0.1-8.2-4.2-8.3-10.5c-0.1-7-0.2-14,0-21c0.1-3.2-1-3.7-3.7-2.9
	c-2.4,0.7-4.9,1.1-7.3,1.3c-4.2,0.4-7.8-0.9-8.9-5.4c-1-4.3,1.3-7.1,5.1-8.6c3.1-1.2,6.2-2.4,9.5-3c4.2-0.7,5.7-2.5,5.5-6.9
	c-0.4-7.8-0.1-15.7-0.1-23.5c0-7.9-1.4-16.3,6-22.2C2406.6,1739.4,2408,1739.4,2409.3,1739.4z"/>
<path class="st32" d="M2397.4,2159.8c0-8.2-0.1-16.3,0-24.5c0-2.8-0.7-3.5-3.4-2.7c-5.3,1.5-10.6,2.7-15.9,4
	c-2.6,0.6-5.3,0.6-7.9-0.4c-3-1.1-5.3-2.9-5.2-6.5c0.1-3.3,2.2-4.9,5.2-5.8c7.7-2.2,15.2-4.7,23-6.6c3.5-0.9,4.3-2.4,4.3-5.8
	c0.1-19.6,0.5-39.3,0.8-58.9c0.1-7.6,2.7-11.5,7.5-11.4c4.8,0,7.3,3.9,7.4,11.5c0.3,18,0.7,35.9,0.8,53.9c0,3.7,0.4,5.2,4.6,3.7
	c3.5-1.3,7.4-2,11.2-2.4c5-0.6,8.5,1.8,8.9,5.9c0.5,4.5-2,7.2-6.2,8.4c-4.5,1.3-8.9,2.8-13.5,3.5c-4.3,0.7-5,2.9-5,6.8
	c0.2,16.3,0.1,32.6,0.1,48.9c0,8.7-2.7,13-8.2,13c-5.6,0.1-8.5-4.2-8.5-12.8C2397.4,2174.5,2397.4,2167.1,2397.4,2159.8z"/>
<g>
	<path class="st33" d="M1475.7,1213.8c-1,1.3-0.6,2.8-0.8,4.3c-0.4,4.5-2.6,7.4-7.3,7.8c-4.3,0.4-7.5-2.4-8.5-7.2
		c-0.3-1.3-0.3-2.6-0.4-3.9c0-10.1-0.1-20.2,0.1-30.2c0.1-3.1-1.1-4-4-3.9c-7.1,0.2-14.2,0.1-21.3,0.2c-3.1-0.3-6.3-0.7-9.4-1
		c-3.9-0.4-6.7-2.3-7.2-6.3c-0.6-4.4,2.1-6.7,6-7.9c3.9-1.2,7.9-0.8,11.8-0.8c7-0.4,13.9,0.1,20.9-0.8c2.3-0.3,3.2-1,3.2-3.3
		c-0.1-8.6-0.1-17.3,0-25.9c0-2.5-1.2-3.1-3.4-3c-6.1,0.2-12.3-0.1-18.3-1c-7.1,0-10.9-2.2-11.2-6.3c-0.3-4.3,3.6-7.1,10.8-7.6
		c1.1-0.1,2.3,0,3.5-0.1c4.8,0,9.6-0.2,14.4,0c3.3,0.2,4.3-1,4.2-4.2c-0.1-13.4-0.3-26.8,0.9-40.2c0-2.5-0.2-5,0.1-7.4
		c0.4-4.1,2.7-6.8,6.9-7.1c4.4-0.3,6.9,2.5,7.6,6.4c0.6,3.4,0.3,6.9,0.4,10.4c0.3,12.7,0.6,25.4,0.8,38.1c0,3,0.8,4.1,3.9,4
		c5.3-0.2,10.6,0,15.9,0c2.9,0.6,5.9,1.1,8.7,1.9c5.1,1.4,7.7,4.6,7.3,8.6c-0.5,4.2-3.7,6.5-9.1,6.6c-1.2,0-2.3,0-3.5,0
		c-6.8-2-13.7-2-20.7-2c-2.5,0-2.5,1.6-2.5,3.4c0,5.2,0,10.3,0,15.5c0,13.1,0,13.3,13.2,13c4.5-0.1,9.3,1.3,13.6-1.2
		c1.9,1.9,4.4,1.1,6.6,1.2c5.5,0.3,9.1,3.2,9.3,7.7c0.2,4.4-3.4,7.8-8.8,8.3c-1.8,0.2-3.6,0.1-5.5,0.1c-5.8,0-11.6,0-17.5,0
		c-3.3,0-7.3-1-9.8,0.5c-2.9,1.7-0.7,6.1-1.4,9.3c-0.1,0.5-0.2,1-0.3,1.5C1475,1198.7,1473.9,1206.3,1475.7,1213.8z"/>
	<path class="st33" d="M834.5,1702.7c-7.4-0.3-11.2-2.6-11.3-7c-0.1-4.5,3.9-7,11.6-7.1c0.2,0,0.3,0,0.5,0c4.3,0,8.6-0.3,12.9,0.1
		c4.5,0.4,5.9-1,5.8-5.7c0-12.5-1.1-25.2,1.4-37.6c2.2-2.8,4.8-4.6,8.4-3.2c3.5,1.3,4.8,4.2,5.1,7.7c0.1,1.3,0.7,2.5,1,3.7
		c-0.2,0.2-0.7,0.4-0.7,0.6c0,10.6,0,21.2,0,31.9c0,1.3,0.6,2.4,2,2.3c6.1-0.3,12.3,0.9,18.3-1c1.5,0.2,2.9,0.4,4.4,0.5
		c6.2,0.6,9.7,3.4,9.8,7.9c0.1,4.7-3.4,7.4-10.1,7.8c-6.8,0-13.6,0.1-20.4,0c-2.5,0-3.6,0.6-3.6,3.3c0.1,8.5,0.1,16.9,0,25.4
		c0,2.2,0.6,3.2,3.1,3.4c7,0.6,13.9,1,20.9,0.8c2.8,0.8,5.7,1.5,8.5,2.6c4.1,1.7,7.1,4.5,6.5,9.4c-0.5,3.9-4.2,6.1-9.5,6
		c-1.8,0-3.6,0-5.4,0c-6.8-1.7-13.7-1.8-20.7-2c-3-0.1-4.1,0.8-4.1,3.9c0.1,8,0,16,0,23.9c0,1.5,0.1,3-0.1,4.5
		c-0.7,3.9-2.9,6.4-7,6.5c-4.1,0-6.3-2.4-7-6.4c-0.4-2.1,0.2-4.4-1-6.3c0.3-0.4,0.7-0.8,0.8-1.2c0.8-7.9-0.9-15.8-0.7-23.7
		c0-1.8-1.1-2.1-2.6-2.2c-6.2-0.6-12.4-1.3-18.6-2c-0.3,0-0.7,0-1-0.1c-6.8-1.4-10-4.2-9.7-8.7c0.3-4.8,4-7.2,11.2-7.3
		c5.6,0.4,11.2,0.6,16.8,1.1c3.1,0.3,4-0.9,4-3.9c-0.2-7.8-0.2-15.6,0-23.4c0.1-3.2-1.2-4-4.1-3.9
		C844.7,1703.8,839.5,1703.8,834.5,1702.7z"/>
	<path class="st33" d="M949.8,1649.2c0-0.7-0.1-1.3,0-2c0.3-5.7,2.8-9,7.1-9.2c4.2-0.2,7.2,3,7.9,8.6c0.1,0.8,0.1,1.7,0.1,2.5
		c0,11.1,0.1,22.3,0,33.4c0,2.7,0.3,4.3,3.6,4.4c4.8,0.3,9.5,1.2,14.3,1.8c4-0.1,6.7,1.8,7.9,5.5c1.6,4.8-2,7.2-5.1,9.7
		c-5.8-0.1-11.7,0.1-17.5-0.4c-3.1-0.3-3.2,0.9-3.2,3.2c0.1,8.8,0.1,17.7,0,26.5c-0.1,3,1.1,4.3,3.9,4.4c7.1,0.4,14.3,0.8,21.4,1.1
		c2.7,0.7,5.5,1.2,8.1,2.2c3.7,1.4,7.1,3.6,6.3,8.2c-0.7,4.3-4.5,5.3-8.3,5.6c-1.6,0.1-3.3,0-4.9,0.1c-7.4-0.5-14.9-0.7-22.3-1.5
		c-3-0.3-4.2,0-4.2,3.3c0.2,11,0.1,21.9,0.1,32.9c-6.7,6.8-11.8,6.4-15.1-1.2c-0.7-2.4-0.9-4.9-0.9-7.4c0-8.2,0-16.3,0.1-24.5
		c0-2.3-0.3-3.7-3.2-3.8c-6.1-0.1-12.3-0.6-18.4-0.9c-2.8-0.3-5.6-0.8-8-2.2c-3.1-1.8-5.1-4.4-4.1-8.2c1-3.7,3.9-5.1,7.6-4.9
		c1.3,0.1,2.6,0.2,4,0.3c6.1,0,12.3-0.1,18.4,0.1c2.8,0.1,3.8-0.8,3.8-3.7c-0.1-9.3-0.1-18.6,0-27.9c0-2.6-0.8-3.6-3.4-3.5
		c-5.5,0.2-10.9,0.1-16.4,0.1c-0.7-0.7-1.3-1.4-2-2.1c-5.6-5.2-3.7-11,4.6-14.1c4.3,0,8.7-0.2,13,0c3,0.1,4.4-0.6,4.4-4.1
		C949.1,1670.8,949.5,1660,949.8,1649.2z"/>
	<path class="st33" d="M1442.6,1386.5c5.4-0.3,10.8-0.8,16,1c0,23.1,0.1,46.1-0.1,69.2c0,4,1.2,5.2,5.1,4.9c4.9-0.4,10-0.6,14.1,3.1
		c2.3,3.2,1.7,6.6,0.8,10.1c-4.6,4.3-10.3,4.1-15.9,3.7c-3-0.2-4,0.9-4,3.9c0.1,18.9,0.1,37.8,0.1,56.7c-0.1,3,0.1,6-0.2,8.9
		c-0.5,4.6-3.7,7.7-7.7,7.6c-4.6-0.1-6.9-3-7.5-7.1c-0.5-3.1-0.4-6.2-0.6-9.4c0-15.8,0-31.6,0-47.4c0-14.2,0-14.2-14.4-12.8
		c-0.5-5.4-0.6-10.9-0.3-16.4c3.3,0,6.7-0.1,10,0.1c3.7,0.3,4.8-1.1,4.8-4.8C1442.6,1434.1,1442.6,1410.3,1442.6,1386.5z"/>
	<path class="st33" d="M843,2210.2c1.8,3.5,1.2,7,0.3,10.5c-4.5,3-9.3,3.7-14.6,2c-1.4-0.4-3-0.1-4.4-0.3c-2.6-0.3-3.4,0.9-3.4,3.4
		c-0.2,15.6-0.5,31.1-0.8,46.7c0,2,0.5,3.4,1.9,4.7c-2.7,1-1.3,3.4-1.6,5.1c-0.8,5.1-3.6,8.1-7.8,7.9c-4-0.2-6.5-3.2-6.9-8.2
		c-0.2-2.4,0.6-5-0.9-7.2c1.7-1.4,1.1-3.4,1.1-5.2c-0.3-14.6-0.8-29.2-0.8-43.9c0-4.1-1.6-5.4-5.1-6c-4.1-0.7-8.1-1.8-12.1-2.8
		c-1.2-5.2-1.7-10.3-0.2-15.5c4,0.1,8.1-0.3,11.9,0.5c4.1,0.9,4.7-0.4,4.8-4.1c0.1-18.8-0.9-37.6,0.7-56.3c4.2,0,8.5-0.1,12.7-0.1
		c1.5,0,3,0,3.3,2c0.7,2.4,0.9,4.9,0.9,7.4c-0.1,16.2,0.1,32.5-0.2,48.7c-0.1,4,1.1,5.2,5,5.1C832.6,2204.4,838.4,2205.9,843,2210.2
		z"/>
	<path class="st33" d="M1539.4,1630.6c1.3,6.1,1,12.2,0.7,18.3c-3.5-0.1-7,0-10.4-0.3c-3.4-0.3-4.1,1.2-4.1,4.3
		c0.1,13.9-0.2,27.9-0.1,41.8c0,3.3-1.6,6.6,0.1,9.8c-0.3,1.1-0.6,2.2-0.8,3.3c-0.7,3.9-2.4,6.9-6.9,7c-4.7,0-6.5-3.1-7.2-7.2
		c-0.2-1-0.1-2-0.1-2.9c-0.3-17.3-0.7-34.5-0.8-51.8c0-3.2-0.9-4.5-4.2-4.3c-4.3,0.2-8.6,0.1-12.9,0.1c-2.3-3.8-2.3-14.9,0-18
		c4.5,0,9-0.1,13.5,0.1c2.9,0.1,3.7-1,3.7-3.8c0.1-22.7-0.7-45.5,0.8-68.2c7.5-4.9,8.9-4.9,14,0c0.9,2.6,1,5.2,1,7.9
		c0,19.8,0,39.6-0.1,59.5c0,3.3,0.6,5,4.4,4.6C1533.1,1630.4,1536.3,1630.6,1539.4,1630.6z"/>
	<path class="st33" d="M1679.6,2269.3c-1.4,3.5-3.4,6.4-7.8,6.2c-4.4-0.2-5.9-3.5-7.2-6.9c0-18.3-0.1-36.6,0.1-54.9
		c0-3.3-1.1-4.3-4.3-4.3c-5.5,0-11-0.2-15.6-3.8c-1.4-3.4-1.9-6.8,0-10.2c3.8-3.2,8.3-3.9,13-3.9c7.4,0,6.8,1.1,6.8-6.5
		c0-17.8,0-35.6,0-53.4c0-1.7-0.1-3.4,0.2-5c1-3.9,3.3-6.6,7.6-6.7c3.8-0.1,6.8,3.3,7.1,7.6c0.1,1.5,0.1,3,0.1,4.5
		c0,19,0.1,37.9-0.1,56.9c0,3.4,1,4.8,4.2,5.2c5.3,0.6,10.5,1.6,15.7,2.4c1.2,5.4,1.2,10.7,0,16.1c-4.9,1.9-9.9,0.8-14.7-0.3
		c-4.3-0.9-5.3,0-5.3,4.3C1679.8,2234.2,1679.6,2251.8,1679.6,2269.3z"/>
	<path class="st33" d="M1002.8,2287.4c-6.3,6-8.3,6-14.1,0c0-16.3-0.1-32.6,0.1-48.9c0-3-0.8-4-3.9-4.1c-6.1-0.2-12.3-0.8-18.4-1.3
		c-0.7-0.4-1.7-0.7-1.6-1.7c0.5-4.7,1.1-9.3,1.6-14c5.7,0,11.3-0.2,16.9,0.2c4.1,0.3,5.5-0.7,5.4-5.1c-0.3-12.5-0.1-24.9-0.1-37.4
		c0-5.3-0.7-10.6,1.9-15.5c3.7-0.4,7.4-0.6,10.7,1.5c1.2,3,1.4,6.1,1.4,9.2c-0.1,14.8-0.1,29.6,0,44.3c0,1.6-1,4,1.7,4.6
		c6.6,1.4,13.3,2.6,19.9,4c5.5,7.9,5.5,7.9-0.1,16.3c-6,0-11.8-1.1-17.6-2.6c-3.3-0.9-4,0-4,3.2
		C1002.8,2256,1002.8,2271.7,1002.8,2287.4z"/>
	<path class="st33" d="M943.8,2125.5c-0.1,0.7-0.2,1.3-0.3,2c-0.4,4.2-1.8,7.5-6.6,7.9c-3.8,0.3-6.3-2.7-6.9-8.1
		c-0.1-0.7-0.2-1.3-0.2-2c-0.1-15.6-0.2-31.3-0.1-46.9c0-2.8-0.7-4.6-3.7-4.6c-5.2-0.1-10-2.1-15.1-3.1c-1.2-5.4,0.1-10.8,0.2-16.2
		c4.8,0.6,9.6,0.9,14.3,1.8c3.4,0.6,4.4-0.3,4.4-3.7c-0.1-13.6,0.1-27.2,0-40.8c0-3.8,0.6-7.2,2.9-10.2c3.7-1.8,7.1-0.6,10.3,1.3
		c0.3,0.3,0.7,0.6,1,0.9c0,0,0-0.1,0-0.1c0,16.5,0,32.9,0.1,49.4c0,1.5-0.5,3.8,2.3,3.3c6.5-1.1,12,1.7,17.5,4.4
		c4.1,4.8,4.1,10.3,0,16.1c-4.7,0.2-9.1-0.5-13.6-2.3c-4.5-1.8-6.2-0.5-6.2,3.7C943.8,2093.8,943.8,2109.7,943.8,2125.5z"/>
	<path class="st33" d="M1821,1991.7c-2.1-9.4-2.1-9.3,7.6-9.3c2.8,0,5.6,0.1,8.1,1.3c-0.2,2.2,1.7,3.1,3,4.3
		c7.2,6.8,13.7,14.4,19.6,22.4c6.2,8.4,11.7,17.3,18.6,25.1c1,2.4,1.9,5,1.4,7.5c-1.1,5.2-6.6,7-11.4,4c-1.8-1.2-3.2-2.8-4.3-4.6
		c-8-11.4-15.8-23-24.8-33.6C1833.4,2002.6,1827.9,1996.4,1821,1991.7z"/>
	<path class="st33" d="M1953.9,2004.8c-7.6,3.8-14,9.4-20.3,14.9c-8.9,7.7-17.2,16-24,25.7c-0.8,0.9-1.5,1.8-2.3,2.6
		c-2.6,2.7-5.7,3.6-8.9,1.3c-3.2-2.3-3.5-5.6-1.8-8.9c1.4-2.8,3.3-5.3,5-8c0.5-0.4,1.2-0.6,1.6-1.1c11.6-13.9,25-25.9,39.9-36.2
		c0.9-0.6,1.4-1.3,1.4-2.4C1951.7,1992.8,1954.9,1996.7,1953.9,2004.8z"/>
	<path class="st23" d="M943.9,2003.6c-0.3-0.3-0.7-0.6-1-0.9C943.2,2003,943.5,2003.3,943.9,2003.6z"/>
</g>
<path class="st19" d="M1442,796.5c2.4,20.1-7.7,33.7-23.3,44.2c-6.5,4.3-8.4,3.3-9.8-4.3c-1.7-9.4-1-18.9-0.3-28.3
	c0.4-6.1,1.2-12.2,3.5-18c2.4-6.1,6.7-9.1,13.3-9.2c3.8,0,7.7,0.3,11.5-0.1c4.2-0.4,5.2,1.7,5.1,5.2
	C1441.9,789.5,1442,793,1442,796.5z"/>
</svg>
