<svg id="Capa_1" enable-background="new 0 0 512 512" height="512" viewBox="0 0 512 512" width="512" xmlns="http://www.w3.org/2000/svg"><path d="m139.368 103-17.633 124.559c-5.607 39.609 25.139 75.014 65.143 75.014h138.246c40.004 0 70.75-35.405 65.143-75.014l-17.633-124.559z" fill="#fcb143"/><path d="m390.267 227.559-17.633-124.559h-38.944l17.633 124.559c5.607 39.609-25.139 75.014-65.143 75.014h38.944c40.005 0 70.75-35.405 65.143-75.014z" fill="#fa9801"/><path d="m180.209 161.253h-9.521c-11.281 0-20.416 9.147-20.416 20.428v9.663c0 11.281 9.135 20.428 20.416 20.428h9.521z" fill="#ffe4c0"/><path d="m331.791 161.31h9.544c11.268 0 20.393 9.137 20.393 20.405v9.652c0 11.269-9.125 20.405-20.393 20.405h-9.529z" fill="#fcd0a3"/><path d="m324.401 340.392c-13.069-1.502-22.934-12.565-22.934-25.72v-56.942l-45.467-.536-45.467.535v56.942c0 13.155-9.865 24.219-22.934 25.72-23.496 17.68-10.992 55.093 18.413 55.093h99.978c29.404.001 41.908-37.412 18.411-55.092z" fill="#fff0dc"/><path d="m399.333 350.174-74.931-9.782c-40.185 31.431-96.618 31.431-136.803 0l-74.931 9.782c-24.582 2.825-43.889 22.371-46.409 46.986l-10.757 87.284c-1.806 14.641 9.616 27.556 24.367 27.556h352.262c14.751 0 26.172-12.915 24.368-27.556l-10.757-87.284c-2.521-24.615-21.827-44.161-46.409-46.986z" fill="#fc5ca5"/><path d="m262.155 257.267v81.353c0 13.155 9.865 24.219 22.934 25.72l50.894 6.644c2.245-10.727-1.026-22.649-11.582-30.592-13.069-1.502-22.934-12.565-22.934-25.72v-56.942z" fill="#ffe4c0"/><path d="m456.499 484.444-10.757-87.284c-2.521-24.615-21.827-44.162-46.409-46.986l-74.931-9.782c-14.269 11.161-30.59 18.337-47.501 21.572 2.525 1.206 5.271 2.041 8.19 2.377l74.931 9.782c24.582 2.825 43.889 22.371 46.409 46.986l10.757 87.284c.15 1.217.201 2.421.173 3.607h14.77c14.752 0 26.173-12.915 24.368-27.556z" fill="#fb3e96"/><path d="m223.751 130.336c-13.334 29.149-43.543 30.917-43.543 30.917v60.841c0 50.224 52.966 73.873 75.791 74.362 22.826-.489 75.81-24.138 75.81-74.362l-.018-60.784s-82.522 21.062-108.04-30.974z" fill="#fff0dc"/><path d="m331.792 161.31s-17.762 4.529-39.351 4.194l.017 56.59c0 38.594-31.285 61.493-56.132 70.251 7.486 2.64 14.389 3.997 19.675 4.11 22.826-.488 75.809-24.138 75.809-74.362z" fill="#ffe4c0"/><path d="m162.399 21.794-18.677 73.707h224.556l-18.683-73.709c-3.248-12.817-14.782-21.792-28.004-21.792h-131.187c-13.222 0-24.757 8.976-28.005 21.794z" fill="#c6865c"/><path d="m349.596 21.792c-3.249-12.817-14.783-21.792-28.005-21.792h-39.611c13.221 0 24.756 8.975 28.004 21.792l18.683 73.709h39.611z" fill="#b16e3d"/><path d="m367.252 91.6h-222.541c-37.084 1.764-33.408 11.978-33.408 11.978 0 15.188 69.93 27.5 144.696 27.5s144.696-12.312 144.696-27.5c.001 0 3.641-10.214-33.443-11.978z" fill="#ce9875"/><path d="m176.402 341.854-32.773 4.278v108.17h32.773z" fill="#d8eafb"/><path d="m368.371 346.132-32.773-4.278v112.448h32.773z" fill="#d8eafb"/><path d="m121.084 437.411-4.016 74.589h277.865l-4.016-74.589c-.623-11.576-10.192-20.643-21.785-20.643h-226.263c-11.593 0-21.162 9.067-21.785 20.643z" fill="#e8f3ff"/><path d="m355.317 472.672h-198.634c-4.27 0-7.731-3.461-7.731-7.731s3.461-7.731 7.731-7.731h198.634c4.27 0 7.731 3.461 7.731 7.731s-3.461 7.731-7.731 7.731z" fill="#9bd069"/></svg>