<?xml version="1.0" encoding="UTF-8"?><svg id="Layer_2" xmlns="http://www.w3.org/2000/svg" xmlns:xlink="http://www.w3.org/1999/xlink" viewBox="0 0 1177.28 459.29"><defs><style>.cls-1{fill:#dc9f12;}.cls-2{fill:#fff;}.cls-3{fill:#f5e252;}.cls-4{fill:#f4df61;}.cls-5{fill:#180019;}.cls-6{fill:#7a9199;}.cls-7{fill:#e52320;}.cls-8{fill:#df9f0c;}.cls-9{filter:url(#drop-shadow-1);}.cls-10{opacity:.4;}.cls-11{fill:#bd1818;}.cls-12{opacity:.1;}.cls-13{fill:#db9e12;}.cls-14{mask:url(#mask);}.cls-15{fill:#f3de61;}.cls-16{filter:url(#luminosity-invert-noclip);}</style><filter id="drop-shadow-1" filterUnits="userSpaceOnUse"><feOffset dx="0" dy="1.62"/><feGaussianBlur result="blur" stdDeviation="0"/><feFlood flood-color="#fff" flood-opacity=".45"/><feComposite in2="blur" operator="in"/><feComposite in="SourceGraphic"/></filter><filter id="luminosity-invert-noclip" x="0" y="301.82" width="1177.28" height="157.47" color-interpolation-filters="sRGB" filterUnits="userSpaceOnUse"><feColorMatrix result="cm" values="-1 0 0 0 1 0 -1 0 0 1 0 0 -1 0 1 0 0 0 1 0"/><feFlood flood-color="#fff" result="bg"/><feBlend in="cm" in2="bg"/></filter><mask id="mask" x="0" y="301.82" width="1177.28" height="157.47" maskUnits="userSpaceOnUse"><g class="cls-16"><polygon class="cls-6" points="1005.43 401.54 167.12 402.9 0 302 138.3 459.29 1040 459.29 1177.28 301.82 1005.43 401.54"/></g></mask></defs><g id="Layer_1-2"><g id="Shape"><polygon class="cls-3" points="1044.88 293.81 1080.04 255.02 999.11 269.78 825.69 269.78 798.71 305.39 372.99 305.39 347.03 269.78 178.79 269.78 97.24 255.2 132.4 293.99 0 302 138.3 459.29 1040 459.29 1177.28 301.82 1044.88 293.81"/><polygon class="cls-8" points="1005.43 401.54 167.12 402.9 0 302 138.3 459.29 1040 459.29 1177.28 301.82 1005.43 401.54"/></g><g id="Melvor_Idle"><g><path class="cls-2" d="m423.33,281.78l-.06-23.31-11.43,19.2h-4.05l-11.38-18.71v22.81h-8.44v-38.85h7.44l14.54,24.14,14.32-24.14h7.38l.11,38.85h-8.44Z"/><path class="cls-2" d="m471.06,274.56v7.22h-30.08v-38.85h29.36v7.22h-20.43v8.44h18.04v6.99h-18.04v8.99h21.15Z"/><path class="cls-2" d="m478.22,242.92h8.99v31.53h19.48v7.33h-28.47v-38.85Z"/><path class="cls-2" d="m546.39,242.92l-16.82,38.85h-8.88l-16.76-38.85h9.71l11.82,27.75,11.99-27.75h8.94Z"/><path class="cls-2" d="m546.72,262.35c0-11.54,8.99-20.09,21.26-20.09s21.26,8.49,21.26,20.09-9.05,20.09-21.26,20.09-21.26-8.55-21.26-20.09Zm33.41,0c0-7.38-5.22-12.43-12.15-12.43s-12.16,5.05-12.16,12.43,5.22,12.43,12.16,12.43,12.15-5.05,12.15-12.43Z"/><path class="cls-2" d="m620.76,281.78l-7.49-10.82h-8.27v10.82h-8.99v-38.85h16.82c10.38,0,16.87,5.38,16.87,14.1,0,5.83-2.94,10.1-7.99,12.27l8.71,12.49h-9.66Zm-8.44-31.53h-7.33v13.54h7.33c5.49,0,8.27-2.55,8.27-6.77s-2.78-6.77-8.27-6.77Z"/></g><g><path class="cls-2" d="m651.98,242.92h2.83v38.85h-2.83v-38.85Z"/><path class="cls-2" d="m668.36,242.92h15.38c12.32,0,20.65,8.1,20.65,19.43s-8.33,19.43-20.65,19.43h-15.38v-38.85Zm15.15,36.3c10.99,0,18.04-6.99,18.04-16.87s-7.05-16.87-18.04-16.87h-12.32v33.75h12.32Z"/><path class="cls-2" d="m714.21,242.92h2.83v36.3h22.37v2.55h-25.2v-38.85Z"/><path class="cls-2" d="m773.49,279.22v2.55h-26.81v-38.85h25.98v2.55h-23.15v15.32h20.7v2.5h-20.7v15.93h23.98Z"/></g></g><g id="M_icon"><g><polygon class="cls-11" points="530.4 204.07 543.31 194.82 543.31 51.81 530.4 45.86 530.4 204.07"/><polygon class="cls-11" points="530.4 36.35 543.31 45.76 543.31 51.81 530.4 51.74 530.4 36.35"/><polygon class="cls-11" points="489.15 49.97 494.24 53.52 494.24 58.27 489.15 60.02 489.15 49.97"/><polygon class="cls-7" points="631.06 204.07 618.09 194.79 618.09 51.81 631.06 45.86 631.06 204.07"/><polygon class="cls-11" points="508.4 43.55 513.49 47.18 513.49 51.66 508.4 53.41 508.4 43.55"/><polygon class="cls-7" points="631.06 36.35 618.09 45.49 618.09 51.81 631.06 51.74 631.06 36.35"/><polygon class="cls-7" points="672.31 49.97 667.22 53.41 667.22 58.27 672.31 60.02 672.31 49.97"/><polygon class="cls-7" points="653.06 43.55 647.97 47.06 647.97 51.66 653.06 53.41 653.06 43.55"/><polygon class="cls-7" points="631.06 64.21 618.12 64.21 580.75 90.18 580.75 100.54 631.06 64.21"/><polygon class="cls-11" points="530.43 64.63 543.37 64.21 580.75 90.18 580.75 100.54 530.43 64.63"/><polygon class="cls-7" points="580.75 100.54 530.4 64.6 530.4 51.74 530.4 51.74 530.4 36.35 517.43 40.36 517.43 50.31 508.4 53.41 508.4 43.55 498.27 46.93 498.27 56.89 489.15 60.02 489.15 49.97 480.44 52.87 480.44 63.01 480.44 63.01 480.44 88.43 491.88 96.63 491.88 197.7 530.4 204.07 530.4 134.02 580.75 172.14 580.75 100.54"/><polygon class="cls-11" points="672.31 49.97 672.31 60.02 663.19 56.89 663.19 46.93 653.06 43.55 653.06 53.41 644.03 50.31 644.03 40.36 631.06 36.35 631.06 45.86 631.06 51.74 631.06 64.21 580.75 100.54 580.75 172.14 631.06 133.41 631.06 204.07 669.29 199.47 669.29 96.63 681.02 88.42 681.02 64.21 681.02 63.01 681.02 52.87 672.31 49.97"/></g><g><path class="cls-13" d="m580.73,179.41h0s0,41.75,0,41.75l.35-.47,13.41-19.12c-1.94-3.49-2.95-17.62-3.47-30.48l-10.28,8.32Z"/><path class="cls-1" d="m584.39,10.27l2.27,25.86h17.6s6.06,6.32,6.06,6.32l-7.09,6.87-4.61-4.77h-3.75c-1.79,1.87-3.15,4.22-3.25,7.1v23.32l-10.88,8.58h0V0c2.81.25,5.02,2.58,5.02,5.46l-1.36,4.81Z"/><path class="cls-15" d="m580.72,179.41h0s0,41.75,0,41.75l-.35-.47-13.41-19.12c1.94-3.49,2.95-17.62,3.47-30.48l10.28,8.32Z"/><path class="cls-4" d="m576.99,10.27l-2.19,25.86h-17.6s-6.06,6.32-6.06,6.32l7.09,6.87,4.61-4.77h3.75c1.79,1.87,3.15,4.22,3.25,7.1v23.32s10.88,8.58,10.88,8.58h0s0-83.54,0-83.54c-2.81.25-5.02,2.58-5.02,5.46l1.28,4.81Z"/></g></g><g id="Expanded_Edition"><g id="EXPANDED_EDITION_black" class="cls-9"><g><path class="cls-5" d="m175.88,427.59c-.78,0-1.55-.65-1.55-1.55v-77.94c0-.9.13-1.81.78-2.33l10.47-8.27c.78-.52,1.29-1.16,2.33-1.03,2.46.26,11.63.9,20.03.9,1.55,0,4.91-.26,5.69-.78.78-.52.78.26.26,1.81-.9,2.59-1.42,5.95-2.33,8.66-.52,1.55-3.49,3.36-6.59,3.36-2.71,0-7.63.26-12.92-1.81-.65-.26-1.29,0-1.29.39v26.75c0,1.03.39,1.42,2.07,1.42,2.59,0,9.18-.65,15.51-1.68.78-.13,1.29.39,1.03,1.29l-3.23,9.82c-.13.65-.65,1.03-1.29,1.03-2.97,0-10.21-1.42-13.18-1.42-.52,0-.91.26-.91.9,0,4.14-.13,19.26-.39,23.01-.13,2.2-.65,5.56,1.68,5.56,6.07,0,16.54-.65,22.62-1.55.9-.13,1.55.39.9,1.55-1.68,2.97-3.1,7.76-4.26,11.25-.26.78-.65.78-1.29.78-5.69,0-27.4-.39-34.12-.13Z"/><g class="cls-10"><path class="cls-2" d="m214,336.44c.37,0,.28.74-.13,1.97-.9,2.59-1.42,5.95-2.33,8.66-.52,1.55-3.49,3.36-6.59,3.36-.54,0-1.17.01-1.87.01-2.82,0-6.81-.17-11.05-1.82-.18-.07-.36-.1-.53-.1-.43,0-.77.21-.77.49v26.75c0,1.03.39,1.42,2.07,1.42,2.59,0,9.18-.65,15.51-1.68.08-.01.15-.02.23-.02.65,0,1.04.5.81,1.31l-3.23,9.82c-.13.65-.65,1.03-1.29,1.03-2.97,0-10.21-1.42-13.18-1.42-.52,0-.91.26-.91.9,0,4.14-.13,19.26-.39,23.01-.13,2.2-.65,5.56,1.68,5.56,6.07,0,16.54-.65,22.62-1.55.09-.01.18-.02.26-.02.76,0,1.22.52.64,1.57-1.68,2.97-3.1,7.76-4.26,11.25-.26.78-.65.78-1.29.78-4.27,0-17.55-.22-26.75-.22-3.07,0-5.69.02-7.37.09-.78,0-1.55-.65-1.55-1.55v-77.94c0-.9.13-1.81.78-2.33l10.47-8.27c.71-.47,1.2-1.05,2.07-1.05.08,0,.17,0,.26.02,2.46.26,11.63.9,20.03.9,1.55,0,4.91-.26,5.69-.78.16-.11.29-.16.39-.16m0-.32c-.17,0-.35.07-.57.21-.63.42-3.73.72-5.51.72-8.62,0-17.8-.67-20-.9-.1-.01-.2-.02-.29-.02-.77,0-1.28.39-1.78.77-.15.11-.3.23-.46.34l-10.49,8.29c-.8.64-.9,1.71-.9,2.58v77.94c0,1.12.97,1.87,1.87,1.87,1.56-.06,3.97-.09,7.37-.09,5.48,0,12.42.08,18,.14,3.77.04,7.02.08,8.75.08.65,0,1.27,0,1.6-1,.19-.56.38-1.15.58-1.77,1.06-3.26,2.27-6.95,3.66-9.42.43-.77.33-1.25.17-1.52-.2-.34-.59-.53-1.09-.53-.1,0-.2,0-.31.02-6.22.93-16.69,1.55-22.57,1.55-.41,0-.72-.12-.95-.36-.71-.76-.57-2.63-.46-4.12.02-.25.04-.5.05-.73.25-3.69.39-18.55.39-23.03,0-.4.18-.58.58-.58,1.46,0,4.05.36,6.55.71,2.52.35,5.13.71,6.64.71.82,0,1.45-.51,1.61-1.29l3.22-9.79c.15-.52.09-.97-.15-1.29-.22-.29-.56-.44-.96-.44-.09,0-.18,0-.28.02-6.43,1.05-12.91,1.68-15.46,1.68-1.67,0-1.74-.38-1.74-1.1v-26.75s.02-.05.07-.08c.09-.06.22-.09.37-.09.13,0,.28.03.41.08,4.19,1.63,8.17,1.84,11.17,1.84.37,0,.73,0,1.06,0,.29,0,.56,0,.81,0,3.26,0,6.33-1.89,6.9-3.58.44-1.33.8-2.83,1.14-4.28.36-1.5.72-3.06,1.18-4.37.51-1.52.41-1.96.25-2.18-.1-.14-.25-.21-.42-.21h0Z"/></g></g><g><path class="cls-5" d="m252.52,418.15c-2.2-5.04-7.24-24.17-9.05-24.17-2.2,0-8.01,20.03-11.89,31.41-.52,1.42-.78,2.2-1.94,2.2h-10.73c-1.42,0-2.58-.52-1.94-1.81,5.82-11.89,22.49-41.62,20.16-49.12-2.58-8.27-11.24-30.12-17.19-30.12-1.42,0-3.1.26-3.88.52-1.03.39-1.16-.13-.52-1.03,2.07-2.84,12.41-10.21,16.93-10.21,2.84,0,7.24,2.97,9.95,8.79,2.97,6.46,6.72,22.36,8.79,22.36,1.55,0,6.2-17.19,10.08-27.92.52-1.42.78-2.2,1.94-2.2,2.46,0,7.88.13,10.73-.13,1.42-.13,2.58.65,1.94,1.81-6.2,11.24-21.71,36.96-19.78,43.17,4.52,14.61,14.09,36.84,19.52,36.84,1.42,0,3.1-.39,3.88-.9.91-.65,1.29.26.52,1.03-5.04,5.04-14.22,10.21-17.45,10.21-3.75,0-7.88-5.69-10.08-10.73Z"/><g class="cls-10"><path class="cls-2" d="m232.49,335.82c2.84,0,7.24,2.97,9.95,8.79,2.97,6.46,6.72,22.36,8.79,22.36,1.55,0,6.2-17.19,10.08-27.92.52-1.42.78-2.2,1.94-2.2,1.23,0,3.2.03,5.22.03s4.09-.03,5.51-.16c.1,0,.21-.01.31-.01,1.28,0,2.23.74,1.63,1.82-6.2,11.24-21.71,36.96-19.78,43.17,4.52,14.61,14.09,36.84,19.52,36.84,1.42,0,3.1-.39,3.88-.9.22-.15.4-.22.55-.22.47,0,.55.66-.03,1.25-5.04,5.04-14.22,10.21-17.45,10.21-3.75,0-7.88-5.69-10.08-10.73-2.2-5.04-7.24-24.17-9.05-24.17-2.2,0-8.01,20.03-11.89,31.41-.52,1.42-.78,2.2-1.94,2.2h-10.73c-1.42,0-2.58-.52-1.94-1.81,5.82-11.89,22.49-41.62,20.16-49.12-2.58-8.27-11.24-30.12-17.19-30.12-1.42,0-3.1.26-3.88.52-.24.09-.43.13-.57.13-.48,0-.44-.47.05-1.16,2.07-2.84,12.41-10.21,16.93-10.21m0-.32c-4.51,0-15.01,7.34-17.19,10.34-.42.59-.55,1.04-.39,1.36.06.12.22.32.6.32.19,0,.41-.05.68-.15.71-.24,2.36-.5,3.76-.5,5.76,0,14.39,21.91,16.88,29.89,1.86,6.01-8.93,26.99-16.08,40.87-1.62,3.14-3.01,5.85-4.07,8.01-.34.69-.21,1.16-.04,1.43.34.54,1.14.84,2.27.84h10.73c1.37,0,1.7-.93,2.21-2.33l.03-.08c.9-2.64,1.89-5.71,2.94-8.95,2.86-8.86,7.19-22.24,8.65-22.24.99.24,3.7,8.78,5.5,14.42,1.26,3.96,2.45,7.7,3.25,9.55,2.29,5.26,6.52,10.92,10.38,10.92,3.51,0,12.77-5.39,17.68-10.31.44-.44.62-.98.45-1.39-.11-.26-.35-.42-.64-.42-.23,0-.48.09-.74.28-.71.47-2.33.84-3.69.84-5.07,0-14.57-21.65-19.21-36.61-1.61-5.15,9.71-25.15,16.48-37.09,1.21-2.14,2.36-4.16,3.27-5.82.28-.5.3-1,.05-1.42-.32-.55-1.06-.88-1.97-.88-.11,0-.22,0-.34.02-1.19.11-2.98.16-5.48.16-1.13,0-2.25-.01-3.23-.02-.77,0-1.45-.01-1.99-.01-1.37,0-1.7.93-2.21,2.33l-.03.08c-1.36,3.77-2.81,8.29-4.2,12.66-2.09,6.56-4.7,14.71-5.6,15.05-.99,0-3.14-6.69-4.7-11.57-1.27-3.94-2.58-8.02-3.77-10.61-2.75-5.89-7.24-8.98-10.25-8.98h0Z"/></g></g><g><path class="cls-5" d="m333.95,360.25c0,18.35-13.57,27.53-23.01,32.31l-9.18,4.65c-.9.39-1.16,1.29-1.16,2.59v25.46c0,1.42,0,2.71-1.81,2.59-3.23-.26-9.44-.39-12.67-.13-1.81.13-1.81-1.03-1.81-2.46v-73.67c0-4.01-.78-6.46-3.49-8.66-.78-.65-.65-1.42.65-1.81,4.14-1.29,6.59-2.97,12.28-5.43.9-.39,1.29-.13,2.2.9,1.81,2.07,2.71,4.27,3.49,4.27,1.03,0,4.78-5.3,10.34-5.3,4.91,0,24.17,11.24,24.17,24.69Zm-27.92,22.88c5.04-2.33,11.24-7.24,11.24-20.16,0-9.69-11.89-14.99-14.48-14.99-1.16,0-2.2.78-2.2,2.71v33.09c0,1.03.65,1.55,1.29,1.29l4.14-1.94Z"/><g class="cls-10"><path class="cls-2" d="m294.44,335.52c.49,0,.87.34,1.51,1.08,1.81,2.07,2.71,4.27,3.49,4.27,1.03,0,4.78-5.3,10.34-5.3,4.91,0,24.17,11.24,24.17,24.69,0,18.35-13.57,27.53-23.01,32.31l-9.18,4.65c-.9.39-1.16,1.29-1.16,2.59v25.46c0,1.36,0,2.59-1.57,2.59-.08,0-.16,0-.24,0-2-.16-5.13-.27-7.99-.27-1.77,0-3.44.04-4.67.14-.09,0-.18,0-.26,0-1.55,0-1.55-1.12-1.55-2.47v-73.67c0-4.01-.78-6.46-3.49-8.66-.78-.65-.65-1.42.65-1.81,4.14-1.29,6.59-2.97,12.28-5.43.26-.11.48-.17.69-.17m7.13,49.61c.11,0,.22-.02.33-.07l4.14-1.94c5.04-2.33,11.24-7.24,11.24-20.16,0-9.69-11.89-14.99-14.48-14.99-1.16,0-2.2.78-2.2,2.71v33.09c0,.86.44,1.36.96,1.36m-7.13-49.93c-.24,0-.5.06-.81.2-2.28.98-4.04,1.84-5.59,2.6-2.34,1.14-4.2,2.05-6.66,2.82-.97.29-1.26.76-1.33,1.11-.09.43.12.88.58,1.26,2.49,2.02,3.37,4.22,3.37,8.41v73.67c0,.7,0,1.36.22,1.87.27.62.81.92,1.65.92.09,0,.19,0,.29-.01,1.15-.09,2.75-.14,4.65-.14,2.8,0,5.92.11,7.97.27.09,0,.18,0,.27,0,1.89,0,1.89-1.62,1.89-2.92v-25.46c0-1.33.28-1.99.97-2.29l9.2-4.66c15.6-7.91,23.18-18.57,23.18-32.6s-19.69-25.01-24.49-25.01c-4,0-7.07,2.64-8.9,4.22-.58.5-1.24,1.07-1.44,1.08-.27,0-.84-.85-1.35-1.6-.5-.74-1.12-1.66-1.9-2.56-.61-.69-1.09-1.19-1.76-1.19h0Zm7.13,49.61c-.38,0-.64-.43-.64-1.04v-33.09c0-1.52.68-2.39,1.87-2.39,2.3,0,14.15,5.11,14.15,14.67s-3.62,16.43-11.06,19.87l-4.14,1.94c-.05.02-.12.04-.19.04h0Z"/></g></g><g><path class="cls-5" d="m390.43,352.88v72.38c0,1.42,0,2.71-1.81,2.59-3.23-.26-9.43-.39-12.67-.13-1.81.13-1.81-1.03-1.81-2.46v-25.85c0-.52-.26-.78-.78-.78h-13.57c-.52,0-.78.26-.78.78v25.85c0,1.42,0,2.71-1.81,2.59-3.23-.26-9.44-.39-12.67-.13-1.81.13-1.81-1.03-1.81-2.46v-73.67c0-1.42.13-3.23,2.2-4.26,2.2-1.03,21.33-12.02,24.3-12.02,3.62,0,21.2,10.99,21.2,17.58Zm-17.06,35.41c.52,0,.78-.26.78-.78v-29.86c0-4.65-10.47-10.47-13.44-10.47-1.16,0-1.68.65-1.68,1.81v38.52c0,.39.26.78.78.78h13.57Z"/><g class="cls-10"><path class="cls-2" d="m369.24,335.3c3.62,0,21.2,10.99,21.2,17.58v72.38c0,1.36,0,2.59-1.57,2.59-.08,0-.16,0-.24,0-2-.16-5.13-.27-7.99-.27-1.77,0-3.44.04-4.67.14-.09,0-.18,0-.26,0-1.55,0-1.55-1.12-1.55-2.47v-25.85c0-.52-.26-.78-.78-.78h-13.57c-.52,0-.78.26-.78.78v25.85c0,1.36,0,2.59-1.57,2.59-.08,0-.16,0-.24,0-2-.16-5.13-.27-7.99-.27-1.77,0-3.44.04-4.67.14-.09,0-.18,0-.26,0-1.55,0-1.55-1.12-1.55-2.47v-73.67c0-1.42.13-3.23,2.2-4.26,2.2-1.03,21.33-12.02,24.3-12.02m-9.44,52.99h13.57c.52,0,.78-.26.78-.78v-29.86c0-4.65-10.47-10.47-13.44-10.47-1.16,0-1.68.65-1.68,1.81v38.52c0,.39.26.78.78.78m9.44-53.32c-2.15,0-11.62,5.08-20.32,9.84-2.01,1.1-3.59,1.96-4.12,2.21-2.38,1.19-2.38,3.38-2.38,4.56v73.67c0,.7,0,1.36.22,1.87.27.62.81.92,1.65.92.09,0,.19,0,.29-.01,1.15-.09,2.75-.14,4.65-.14,2.8,0,5.92.11,7.97.27.09,0,.18,0,.27,0,1.89,0,1.89-1.62,1.89-2.92v-25.85c0-.34.11-.45.45-.45h13.57c.34,0,.45.11.45.45v25.85c0,.7,0,1.36.22,1.87.27.62.81.92,1.65.92.09,0,.19,0,.29-.01,1.15-.09,2.75-.14,4.65-.14,2.8,0,5.92.11,7.97.27.09,0,.18,0,.27,0,1.89,0,1.89-1.62,1.89-2.92v-72.38c0-6.86-17.68-17.9-21.52-17.9h0Zm-9.44,52.99c-.33,0-.45-.24-.45-.45v-38.52c0-1.03.42-1.49,1.36-1.49,2.95,0,13.12,5.76,13.12,10.15v29.86c0,.34-.11.45-.45.45h-13.57Z"/></g></g><g><path class="cls-5" d="m452.86,353.14v72.12c0,1.42,0,2.71-1.81,2.59-3.23-.26-9.44-.39-12.67-.13-1.81.13-1.81-1.03-1.81-2.46v-67.34c0-4.65-10.21-10.47-13.18-10.47-1.16,0-1.68.65-1.68,1.81v76c0,1.42,0,2.71-1.81,2.59-3.23-.26-9.44-.39-12.67-.13-1.81.13-1.81-1.03-1.81-2.46v-73.41c0-4.01-.78-6.46-3.49-8.66-.78-.65-.65-1.42.65-1.81,4.14-1.42,7.76-2.71,12.02-5.43.91-.52,1.29-.13,2.2.9,1.81,2.07,2.71,4.01,3.49,4.01,1.03,0,8.66-5.3,11.63-5.3,3.62,0,20.94,10.99,20.94,17.58Z"/><g class="cls-10"><path class="cls-2" d="m431.92,335.56c3.62,0,20.94,10.99,20.94,17.58v72.12c0,1.36,0,2.59-1.57,2.59-.08,0-.16,0-.24,0-2-.16-5.13-.27-7.99-.27-1.77,0-3.44.04-4.67.14-.09,0-.18,0-.26,0-1.55,0-1.55-1.12-1.55-2.47v-67.34c0-4.65-10.21-10.47-13.18-10.47-1.16,0-1.68.65-1.68,1.81v76c0,1.36,0,2.59-1.57,2.59-.08,0-.16,0-.24,0-2-.16-5.13-.27-7.99-.27-1.77,0-3.44.04-4.67.14-.09,0-.18,0-.26,0-1.55,0-1.55-1.12-1.55-2.47v-73.41c0-4.01-.78-6.46-3.49-8.66-.78-.65-.65-1.42.65-1.81,4.14-1.42,7.76-2.71,12.02-5.43.27-.15.49-.23.7-.23.48,0,.86.41,1.5,1.13,1.81,2.07,2.71,4.01,3.49,4.01,1.03,0,8.66-5.3,11.63-5.3m0-.32c-1.95,0-5.58,2.05-8.49,3.69-1.33.75-2.83,1.6-3.14,1.61-.31,0-.88-.79-1.48-1.62-.47-.65-1.05-1.46-1.77-2.28-.61-.69-1.09-1.24-1.74-1.24-.26,0-.54.09-.86.27-4.1,2.61-7.54,3.88-11.96,5.4-.96.29-1.25.76-1.32,1.11-.09.43.12.88.58,1.26,2.49,2.02,3.37,4.22,3.37,8.41v73.41c0,.7,0,1.36.22,1.87.27.62.81.92,1.65.92.09,0,.19,0,.29-.01,1.15-.09,2.75-.14,4.65-.14,2.8,0,5.92.11,7.97.27.09,0,.18,0,.27,0,1.89,0,1.89-1.62,1.89-2.92v-76c0-1.03.42-1.49,1.36-1.49,2.89,0,12.86,5.76,12.86,10.15v67.34c0,.7,0,1.36.22,1.87.27.62.81.92,1.65.92.09,0,.19,0,.29-.01,1.15-.09,2.75-.14,4.65-.14,2.8,0,5.92.11,7.97.27.09,0,.18,0,.27,0,1.89,0,1.89-1.62,1.89-2.92v-72.12c0-6.86-17.47-17.9-21.26-17.9h0Z"/></g></g><g><path class="cls-5" d="m467.98,427.59c-1.16,0-.13-.65-.13-1.81v-74.19c0-4.01-.78-6.46-3.49-8.66-.78-.65-.65-1.42.65-1.81,4.14-1.29,7.88-2.97,12.28-5.43.9-.52,1.29-.13,2.2.9,1.81,2.07,2.71,4.27,3.49,4.27,1.03,0,7.11-5.3,13.96-5.3,3.62,0,19.65,10.08,19.65,20.55v51.96c0,5.95-17.97,19.52-22.75,19.52h-25.85Zm30.76-12.8c.91,0,1.55-.78,1.55-2.2v-51.7c0-8.01-12.02-13.44-14.61-13.44-1.16,0-1.55.78-1.55,2.71v57.77c0,5.69-2.33,6.85,1.42,6.85h13.18Z"/><g class="cls-10"><path class="cls-2" d="m477.99,335.46c.48,0,.86.41,1.5,1.13,1.81,2.07,2.71,4.27,3.49,4.27,1.03,0,7.11-5.3,13.96-5.3,3.62,0,19.65,10.08,19.65,20.55v51.96c0,5.95-17.97,19.52-22.75,19.52h-25.85c-1.16,0-.13-.65-.13-1.81v-74.19c0-4.01-.78-6.46-3.49-8.66-.78-.65-.65-1.42.65-1.81,4.14-1.29,7.88-2.97,12.28-5.43.27-.15.49-.23.7-.23m7.57,79.33h13.18c.91,0,1.55-.78,1.55-2.2v-51.7c0-8.01-12.02-13.44-14.61-13.44-1.16,0-1.55.78-1.55,2.71v57.77c0,5.69-2.33,6.85,1.42,6.85m-7.57-79.65c-.26,0-.54.09-.86.27-4.44,2.48-8.21,4.15-12.22,5.4-.97.29-1.26.76-1.33,1.11-.09.43.12.88.58,1.26,2.49,2.02,3.37,4.22,3.37,8.41v74.19c0,.39-.14.73-.26,1-.13.3-.25.59-.08.85.16.25.49.28.79.28h25.85c4.84,0,23.07-13.71,23.07-19.84v-51.96c0-10.72-16.4-20.87-19.97-20.87-5.02,0-9.67,2.82-12.17,4.33-.78.47-1.58.96-1.79.97-.27,0-.84-.85-1.35-1.6-.5-.74-1.12-1.66-1.9-2.56-.61-.69-1.09-1.24-1.74-1.24h0Zm7.57,79.33c-.69,0-1.5-.03-1.72-.3-.18-.23-.06-.82.11-1.64.22-1.06.52-2.52.52-4.59v-57.77c0-2.01.43-2.39,1.23-2.39,2.46,0,14.28,5.27,14.28,13.12v51.7c0,1.17-.46,1.87-1.23,1.87h-13.18Z"/></g></g><g><path class="cls-5" d="m531.7,427.59c-.78,0-1.55-.65-1.55-1.55v-77.94c0-.9.13-1.81.78-2.33l10.47-8.27c.78-.52,1.29-1.16,2.33-1.03,2.46.26,11.63.9,20.03.9,1.55,0,4.91-.26,5.69-.78.78-.52.78.26.26,1.81-.9,2.59-1.42,5.95-2.33,8.66-.52,1.55-3.49,3.36-6.59,3.36-2.71,0-7.63.26-12.92-1.81-.65-.26-1.29,0-1.29.39v26.75c0,1.03.39,1.42,2.07,1.42,2.59,0,9.18-.65,15.51-1.68.78-.13,1.29.39,1.03,1.29l-3.23,9.82c-.13.65-.65,1.03-1.29,1.03-2.97,0-10.21-1.42-13.18-1.42-.52,0-.91.26-.91.9,0,4.14-.13,19.26-.39,23.01-.13,2.2-.65,5.56,1.68,5.56,6.07,0,16.54-.65,22.62-1.55.9-.13,1.55.39.9,1.55-1.68,2.97-3.1,7.76-4.26,11.25-.26.78-.65.78-1.29.78-5.69,0-27.4-.39-34.12-.13Z"/><g class="cls-10"><path class="cls-2" d="m569.83,336.44c.37,0,.28.74-.13,1.97-.9,2.59-1.42,5.95-2.33,8.66-.52,1.55-3.49,3.36-6.59,3.36-.54,0-1.17.01-1.87.01-2.82,0-6.81-.17-11.05-1.82-.18-.07-.36-.1-.53-.1-.43,0-.77.21-.77.49v26.75c0,1.03.39,1.42,2.07,1.42,2.59,0,9.18-.65,15.51-1.68.08-.01.15-.02.23-.02.65,0,1.04.5.81,1.31l-3.23,9.82c-.13.65-.65,1.03-1.29,1.03-2.97,0-10.21-1.42-13.18-1.42-.52,0-.91.26-.91.9,0,4.14-.13,19.26-.39,23.01-.13,2.2-.65,5.56,1.68,5.56,6.07,0,16.54-.65,22.62-1.55.09-.01.18-.02.26-.02.76,0,1.22.52.64,1.57-1.68,2.97-3.1,7.76-4.26,11.25-.26.78-.65.78-1.29.78-4.27,0-17.55-.22-26.76-.22-3.07,0-5.69.02-7.37.09-.78,0-1.55-.65-1.55-1.55v-77.94c0-.9.13-1.81.78-2.33l10.47-8.27c.71-.47,1.2-1.05,2.07-1.05.08,0,.17,0,.26.02,2.46.26,11.63.9,20.03.9,1.55,0,4.91-.26,5.69-.78.16-.11.29-.16.39-.16m0-.32c-.17,0-.35.07-.57.21-.63.42-3.73.72-5.51.72-8.62,0-17.8-.67-20-.9-.1-.01-.2-.02-.29-.02-.77,0-1.28.39-1.78.77-.15.11-.3.23-.46.34l-10.49,8.29c-.8.64-.9,1.71-.9,2.58v77.94c0,1.12.97,1.87,1.87,1.87,1.56-.06,3.97-.09,7.37-.09,5.48,0,12.42.08,18,.14,3.77.04,7.02.08,8.75.08.65,0,1.27,0,1.6-1,.19-.56.38-1.15.58-1.77,1.06-3.26,2.27-6.95,3.66-9.42.43-.77.33-1.25.17-1.52-.2-.34-.59-.53-1.09-.53-.1,0-.2,0-.31.02-6.22.93-16.69,1.55-22.57,1.55-.41,0-.72-.12-.95-.36-.71-.76-.57-2.63-.46-4.12.02-.25.04-.5.05-.73.25-3.69.39-18.55.39-23.03,0-.4.18-.58.58-.58,1.46,0,4.05.36,6.55.71,2.52.35,5.13.71,6.64.71.82,0,1.45-.51,1.61-1.29l3.22-9.79c.15-.52.09-.97-.15-1.29-.22-.29-.56-.44-.96-.44-.09,0-.18,0-.28.02-6.43,1.05-12.91,1.68-15.46,1.68-1.67,0-1.74-.38-1.74-1.1v-26.75s.02-.05.07-.08c.09-.06.22-.09.37-.09.13,0,.28.03.41.08,4.19,1.63,8.17,1.84,11.17,1.84.37,0,.73,0,1.06,0,.29,0,.56,0,.81,0,3.26,0,6.33-1.89,6.9-3.58.44-1.33.8-2.83,1.14-4.28.36-1.5.72-3.06,1.18-4.37.51-1.52.41-1.96.25-2.18-.1-.14-.25-.21-.42-.21h0Z"/></g></g><g><path class="cls-5" d="m581.47,427.59c-1.16,0-.13-.65-.13-1.81v-74.19c0-4.01-.78-6.46-3.49-8.66-.78-.65-.65-1.42.65-1.81,4.14-1.29,7.88-2.97,12.28-5.43.9-.52,1.29-.13,2.2.9,1.81,2.07,2.71,4.27,3.49,4.27,1.03,0,7.11-5.3,13.96-5.3,3.62,0,19.65,10.08,19.65,20.55v51.96c0,5.95-17.96,19.52-22.75,19.52h-25.85Zm30.76-12.8c.91,0,1.55-.78,1.55-2.2v-51.7c0-8.01-12.02-13.44-14.61-13.44-1.16,0-1.55.78-1.55,2.71v57.77c0,5.69-2.33,6.85,1.42,6.85h13.18Z"/><g class="cls-10"><path class="cls-2" d="m591.47,335.46c.48,0,.86.41,1.5,1.13,1.81,2.07,2.71,4.27,3.49,4.27,1.03,0,7.11-5.3,13.96-5.3,3.62,0,19.65,10.08,19.65,20.55v51.96c0,5.95-17.96,19.52-22.75,19.52h-25.85c-1.16,0-.13-.65-.13-1.81v-74.19c0-4.01-.78-6.46-3.49-8.66-.78-.65-.65-1.42.65-1.81,4.14-1.29,7.88-2.97,12.28-5.43.27-.15.49-.23.7-.23m7.57,79.33h13.18c.91,0,1.55-.78,1.55-2.2v-51.7c0-8.01-12.02-13.44-14.61-13.44-1.16,0-1.55.78-1.55,2.71v57.77c0,5.69-2.33,6.85,1.42,6.85m-7.57-79.65c-.26,0-.54.09-.86.27-4.44,2.48-8.21,4.15-12.21,5.4-.97.29-1.26.76-1.33,1.11-.09.43.12.88.58,1.26,2.49,2.02,3.37,4.22,3.37,8.41v74.19c0,.39-.14.73-.26,1-.13.3-.25.59-.08.85.16.25.49.28.79.28h25.85c4.84,0,23.07-13.71,23.07-19.84v-51.96c0-10.72-16.4-20.87-19.97-20.87-5.02,0-9.67,2.82-12.17,4.33-.78.47-1.58.96-1.79.97-.27,0-.85-.85-1.35-1.6-.5-.74-1.12-1.66-1.9-2.56-.61-.69-1.09-1.24-1.74-1.24h0Zm7.57,79.33c-.69,0-1.5-.03-1.72-.3-.18-.23-.06-.82.11-1.64.22-1.06.52-2.52.52-4.59v-57.77c0-2.01.43-2.39,1.23-2.39,2.46,0,14.28,5.27,14.28,13.12v51.7c0,1.17-.46,1.87-1.23,1.87h-13.18Z"/></g></g><g><path class="cls-5" d="m669.74,427.59c-.78,0-1.55-.65-1.55-1.55v-77.94c0-.9.13-1.81.78-2.33l10.47-8.27c.78-.52,1.29-1.16,2.33-1.03,2.46.26,11.63.9,20.03.9,1.55,0,4.91-.26,5.69-.78.78-.52.78.26.26,1.81-.9,2.59-1.42,5.95-2.33,8.66-.52,1.55-3.49,3.36-6.59,3.36-2.71,0-7.63.26-12.93-1.81-.65-.26-1.29,0-1.29.39v26.75c0,1.03.39,1.42,2.07,1.42,2.58,0,9.18-.65,15.51-1.68.78-.13,1.29.39,1.03,1.29l-3.23,9.82c-.13.65-.65,1.03-1.29,1.03-2.97,0-10.21-1.42-13.18-1.42-.52,0-.9.26-.9.9,0,4.14-.13,19.26-.39,23.01-.13,2.2-.65,5.56,1.68,5.56,6.07,0,16.54-.65,22.62-1.55.91-.13,1.55.39.91,1.55-1.68,2.97-3.1,7.76-4.27,11.25-.26.78-.65.78-1.29.78-5.69,0-27.4-.39-34.12-.13Z"/><g class="cls-10"><path class="cls-2" d="m707.87,336.44c.37,0,.28.74-.13,1.97-.9,2.59-1.42,5.95-2.33,8.66-.52,1.55-3.49,3.36-6.59,3.36-.54,0-1.17.01-1.87.01-2.82,0-6.81-.17-11.05-1.82-.18-.07-.36-.1-.53-.1-.43,0-.76.21-.76.49v26.75c0,1.03.39,1.42,2.07,1.42,2.58,0,9.18-.65,15.51-1.68.08-.01.15-.02.23-.02.64,0,1.04.5.81,1.31l-3.23,9.82c-.13.65-.65,1.03-1.29,1.03-2.97,0-10.21-1.42-13.18-1.42-.52,0-.9.26-.9.9,0,4.14-.13,19.26-.39,23.01-.13,2.2-.65,5.56,1.68,5.56,6.07,0,16.54-.65,22.62-1.55.09-.01.18-.02.26-.02.76,0,1.22.52.64,1.57-1.68,2.97-3.1,7.76-4.27,11.25-.26.78-.65.78-1.29.78-4.27,0-17.55-.22-26.76-.22-3.07,0-5.69.02-7.37.09-.78,0-1.55-.65-1.55-1.55v-77.94c0-.9.13-1.81.78-2.33l10.47-8.27c.71-.47,1.2-1.05,2.06-1.05.08,0,.17,0,.26.02,2.46.26,11.63.9,20.03.9,1.55,0,4.91-.26,5.69-.78.16-.11.29-.16.39-.16m0-.32c-.17,0-.35.07-.57.21-.63.42-3.73.72-5.51.72-8.62,0-17.8-.67-20-.9-.1-.01-.2-.02-.29-.02-.77,0-1.28.39-1.78.77-.15.11-.3.23-.46.34l-10.49,8.29c-.8.64-.9,1.71-.9,2.58v77.94c0,1.12.97,1.87,1.87,1.87,1.56-.06,3.97-.09,7.37-.09,5.48,0,12.42.08,18,.14,3.77.04,7.02.08,8.75.08.65,0,1.27,0,1.6-1,.19-.56.38-1.16.58-1.78,1.06-3.26,2.26-6.94,3.66-9.41.43-.77.32-1.25.16-1.52-.2-.34-.59-.53-1.09-.53-.1,0-.2,0-.31.02-6.22.93-16.69,1.55-22.57,1.55-.41,0-.72-.12-.95-.36-.71-.76-.57-2.63-.46-4.13.02-.25.04-.49.05-.72.26-3.69.39-18.55.39-23.03,0-.41.17-.58.58-.58,1.46,0,4.05.36,6.55.71,2.52.35,5.13.71,6.64.71.82,0,1.45-.51,1.61-1.29l3.22-9.79c.15-.52.09-.97-.15-1.29-.22-.29-.56-.44-.96-.44-.09,0-.18,0-.28.02-6.43,1.05-12.91,1.68-15.46,1.68-1.67,0-1.74-.38-1.74-1.1v-26.75s.02-.05.07-.08c.09-.06.22-.09.37-.09.13,0,.27.03.41.08,4.19,1.63,8.17,1.84,11.17,1.84.37,0,.73,0,1.06,0,.29,0,.56,0,.81,0,3.26,0,6.33-1.89,6.9-3.58.45-1.33.8-2.84,1.14-4.29.36-1.5.72-3.06,1.18-4.37.51-1.52.41-1.96.25-2.18-.1-.14-.25-.21-.42-.21h0Z"/></g></g><g><path class="cls-5" d="m719.5,427.59c-1.16,0-.13-.65-.13-1.81v-74.19c0-4.01-.78-6.46-3.49-8.66-.78-.65-.65-1.42.65-1.81,4.14-1.29,7.88-2.97,12.28-5.43.9-.52,1.29-.13,2.2.9,1.81,2.07,2.71,4.27,3.49,4.27,1.03,0,7.11-5.3,13.96-5.3,3.62,0,19.65,10.08,19.65,20.55v51.96c0,5.95-17.96,19.52-22.75,19.52h-25.85Zm30.76-12.8c.91,0,1.55-.78,1.55-2.2v-51.7c0-8.01-12.02-13.44-14.61-13.44-1.16,0-1.55.78-1.55,2.71v57.77c0,5.69-2.33,6.85,1.42,6.85h13.18Z"/><g class="cls-10"><path class="cls-2" d="m729.51,335.46c.48,0,.86.41,1.5,1.13,1.81,2.07,2.71,4.27,3.49,4.27,1.03,0,7.11-5.3,13.96-5.3,3.62,0,19.65,10.08,19.65,20.55v51.96c0,5.95-17.96,19.52-22.75,19.52h-25.85c-1.16,0-.13-.65-.13-1.81v-74.19c0-4.01-.78-6.46-3.49-8.66-.78-.65-.65-1.42.65-1.81,4.14-1.29,7.88-2.97,12.28-5.43.27-.15.49-.23.7-.23m7.57,79.33h13.18c.91,0,1.55-.78,1.55-2.2v-51.7c0-8.01-12.02-13.44-14.61-13.44-1.16,0-1.55.78-1.55,2.71v57.77c0,5.69-2.33,6.85,1.42,6.85m-7.57-79.65c-.26,0-.54.09-.86.27-4.44,2.48-8.21,4.15-12.21,5.4-.97.29-1.26.76-1.33,1.11-.09.43.12.88.58,1.26,2.49,2.02,3.37,4.22,3.37,8.41v74.19c0,.39-.14.73-.26,1-.13.3-.25.59-.08.85.16.25.49.28.79.28h25.85c4.84,0,23.07-13.71,23.07-19.84v-51.96c0-10.72-16.4-20.87-19.97-20.87-5.02,0-9.67,2.82-12.17,4.33-.78.47-1.58.96-1.79.97-.27,0-.85-.85-1.35-1.6-.5-.74-1.12-1.66-1.9-2.55-.61-.69-1.09-1.24-1.74-1.24h0Zm7.57,79.33c-.69,0-1.5-.03-1.72-.3-.18-.23-.06-.82.11-1.64.22-1.06.52-2.52.52-4.59v-57.77c0-2.01.43-2.39,1.23-2.39,2.46,0,14.28,5.27,14.28,13.12v51.7c0,1.17-.46,1.87-1.23,1.87h-13.18Z"/></g></g><g><path class="cls-5" d="m798.35,339.44v85.82c0,1.42,0,2.71-1.81,2.59-3.23-.26-9.44-.39-12.67-.13-1.81.13-1.81-1.03-1.81-2.46v-85.82c0-1.42,0-2.58,1.81-2.46,3.23.26,9.44.13,12.67-.13,1.81-.13,1.81,1.16,1.81,2.58Z"/><g class="cls-10"><path class="cls-2" d="m796.78,336.84c1.57,0,1.57,1.24,1.57,2.59v85.82c0,1.36,0,2.59-1.57,2.59-.08,0-.16,0-.24,0-2-.16-5.13-.27-7.99-.27-1.77,0-3.44.04-4.67.14-.09,0-.18,0-.26,0-1.55,0-1.55-1.12-1.55-2.47v-85.82c0-1.35,0-2.46,1.55-2.46.08,0,.17,0,.26,0,1.23.1,2.9.14,4.67.14,2.87,0,6-.11,8-.27.08,0,.16,0,.24,0m0-.32c-.08,0-.17,0-.26,0-2.05.16-5.18.27-7.98.27-1.89,0-3.5-.05-4.64-.14-.1,0-.2-.01-.29-.01-1.87,0-1.87,1.48-1.87,2.79v85.82c0,.7,0,1.36.22,1.87.27.62.81.92,1.65.92.09,0,.19,0,.29-.01,1.15-.09,2.75-.14,4.65-.14,2.8,0,5.92.11,7.97.27.09,0,.18,0,.27,0,1.89,0,1.89-1.62,1.89-2.92v-85.82c0-1.3,0-2.92-1.89-2.92h0Z"/></g></g><g><path class="cls-5" d="m824.72,427.59c-1.81.13-1.81-1.03-1.81-2.46,0-16.54-.39-58.55-.39-75.09,0-1.03-.65-1.68-1.68-1.68-7.24.13-10.08.65-13.57,1.68-.9.26-.9-.26-.39-1.81l2.97-9.31c.39-1.42,1.68-1.42,3.75-1.68,3.88-.52,7.11-.39,16.67-.26,11.76.13,19.65.9,24.3-.13.9-.26.9.26.39,1.81l-2.97,9.44c-.52,1.42-1.68,1.42-3.75,1.42-2.97,0-5.69-.65-8.01-1.16-1.16-.26-1.29.65-1.29,1.81,0,15.25.13,59.84.39,74.96-.13,1.42,0,2.71-1.81,2.59-3.23-.26-9.56-.39-12.8-.13Z"/><g class="cls-10"><path class="cls-2" d="m854.94,336.79c.52,0,.45.57.02,1.87l-2.97,9.44c-.52,1.42-1.68,1.42-3.75,1.42-2.97,0-5.69-.65-8.01-1.16-.14-.03-.26-.04-.37-.04-.83,0-.93.83-.93,1.85,0,15.25.13,59.84.39,74.96-.12,1.36-.01,2.59-1.57,2.59-.08,0-.16,0-.24,0-2-.16-5.18-.27-8.08-.27-1.79,0-3.48.04-4.71.14-.09,0-.18,0-.26,0-1.55,0-1.55-1.12-1.55-2.47,0-16.54-.39-58.55-.39-75.09,0-1.03-.65-1.68-1.68-1.68-7.24.13-10.08.65-13.57,1.68-.15.04-.27.06-.37.06-.52,0-.45-.57-.02-1.87l2.97-9.31c.39-1.42,1.68-1.42,3.75-1.68,2.14-.29,4.09-.37,7.01-.37,2.37,0,5.38.06,9.66.12,7.2.08,12.95.4,17.39.4,2.81,0,5.1-.13,6.9-.53.15-.04.27-.06.37-.06m0-.32c-.13,0-.28.02-.46.08-1.61.36-3.71.52-6.82.52-2.19,0-4.67-.08-7.54-.17-2.91-.09-6.2-.19-9.85-.23l-3.3-.05c-2.6-.04-4.66-.07-6.37-.07-3.08,0-4.99.1-7.05.38l-.59.07c-1.76.21-3.02.35-3.43,1.85l-2.97,9.29c-.36,1.07-.49,1.68-.23,2.04.08.12.25.26.55.26.13,0,.28-.02.46-.08,3.54-1.05,6.33-1.54,13.49-1.67.84,0,1.35.51,1.35,1.36,0,8.27.1,23.16.19,37.55.1,14.39.19,29.27.19,37.54,0,1.31,0,2.79,1.87,2.79.09,0,.19,0,.29-.01,1.15-.09,2.77-.14,4.69-.14,2.85,0,6.01.11,8.06.27.1,0,.18,0,.27,0,1.68,0,1.77-1.3,1.86-2.44.01-.15.02-.3.03-.45-.25-15.02-.39-59.37-.39-74.99,0-.42.02-.89.13-1.2.09-.24.22-.33.47-.33.09,0,.19.01.3.04l.4.09c2.27.51,4.84,1.08,7.68,1.08,2.08,0,3.46,0,4.05-1.63l2.98-9.45c.36-1.07.49-1.68.23-2.04-.08-.12-.25-.26-.55-.26h0Z"/></g></g><g><path class="cls-5" d="m877.84,339.44v85.82c0,1.42,0,2.71-1.81,2.59-3.23-.26-9.44-.39-12.67-.13-1.81.13-1.81-1.03-1.81-2.46v-85.82c0-1.42,0-2.58,1.81-2.46,3.23.26,9.44.13,12.67-.13,1.81-.13,1.81,1.16,1.81,2.58Z"/><g class="cls-10"><path class="cls-2" d="m876.27,336.84c1.57,0,1.57,1.24,1.57,2.59v85.82c0,1.36,0,2.59-1.57,2.59-.08,0-.16,0-.24,0-2-.16-5.13-.27-7.99-.27-1.77,0-3.44.04-4.67.14-.09,0-.18,0-.26,0-1.55,0-1.55-1.12-1.55-2.47v-85.82c0-1.35,0-2.46,1.55-2.46.08,0,.17,0,.26,0,1.23.1,2.9.14,4.67.14,2.87,0,6-.11,8-.27.08,0,.16,0,.24,0m0-.32c-.08,0-.17,0-.26,0-2.05.16-5.18.27-7.98.27-1.89,0-3.5-.05-4.64-.14-.1,0-.2-.01-.29-.01-1.87,0-1.87,1.48-1.87,2.79v85.82c0,.7,0,1.36.22,1.87.27.62.81.92,1.65.92.09,0,.19,0,.29-.01,1.15-.09,2.75-.14,4.65-.14,2.8,0,5.92.11,7.97.27.09,0,.18,0,.27,0,1.89,0,1.89-1.62,1.89-2.92v-85.82c0-1.3,0-2.92-1.89-2.92h0Z"/></g></g><g><path class="cls-5" d="m891.8,410.01v-53.9c0-5.95,19.52-20.81,24.3-20.81,5.43,0,25.72,13.57,25.72,19.39v53.9c0,5.95-19.52,20.81-24.3,20.81-5.43,0-25.72-13.57-25.72-19.39Zm33.73,5.17v-54.93c0-3.23-13.57-12.54-15.77-12.54-1.03,0-1.68.78-1.68,2.2v54.93c0,3.23,13.57,12.54,15.9,12.54.91,0,1.55-.78,1.55-2.2Z"/><g class="cls-10"><path class="cls-2" d="m916.1,335.3c5.43,0,25.72,13.57,25.72,19.39v53.9c0,5.95-19.52,20.81-24.3,20.81-5.43,0-25.72-13.57-25.72-19.39v-53.9c0-5.95,19.52-20.81,24.3-20.81m7.88,82.07c.91,0,1.55-.78,1.55-2.2v-54.93c0-3.23-13.57-12.54-15.77-12.54-1.03,0-1.68.78-1.68,2.2v54.93c0,3.23,13.57,12.54,15.9,12.54m-7.88-82.4c-2.76,0-9.27,4.28-14.15,8.25-2.46,2-10.48,8.84-10.48,12.88v53.9c0,6.09,20.58,19.71,26.04,19.71,2.76,0,9.27-4.28,14.15-8.25,2.46-2,10.48-8.84,10.48-12.89v-53.9c0-6.09-20.58-19.71-26.04-19.71h0Zm7.88,82.07c-2.15,0-15.57-9.2-15.57-12.21v-54.93c0-.7.18-1.87,1.36-1.87,2.14,0,15.45,9.2,15.45,12.21v54.93c0,1.17-.46,1.87-1.23,1.87h0Z"/></g></g><g><path class="cls-5" d="m1002.95,353.14v72.12c0,1.42,0,2.71-1.81,2.59-3.23-.26-9.44-.39-12.67-.13-1.81.13-1.81-1.03-1.81-2.46v-67.34c0-4.65-10.21-10.47-13.18-10.47-1.16,0-1.68.65-1.68,1.81v76c0,1.42,0,2.71-1.81,2.59-3.23-.26-9.44-.39-12.67-.13-1.81.13-1.81-1.03-1.81-2.46v-73.41c0-4.01-.78-6.46-3.49-8.66-.78-.65-.65-1.42.65-1.81,4.14-1.42,7.75-2.71,12.02-5.43.9-.52,1.29-.13,2.2.9,1.81,2.07,2.71,4.01,3.49,4.01,1.03,0,8.66-5.3,11.63-5.3,3.62,0,20.94,10.99,20.94,17.58Z"/><g class="cls-10"><path class="cls-2" d="m982.01,335.56c3.62,0,20.94,10.99,20.94,17.58v72.12c0,1.36,0,2.59-1.57,2.59-.08,0-.16,0-.24,0-2-.16-5.13-.27-7.99-.27-1.77,0-3.44.04-4.67.14-.09,0-.18,0-.26,0-1.55,0-1.55-1.12-1.55-2.47v-67.34c0-4.65-10.21-10.47-13.18-10.47-1.16,0-1.68.65-1.68,1.81v76c0,1.36,0,2.59-1.57,2.59-.08,0-.16,0-.24,0-2-.16-5.13-.27-7.99-.27-1.77,0-3.44.04-4.67.14-.09,0-.18,0-.26,0-1.55,0-1.55-1.12-1.55-2.47v-73.41c0-4.01-.78-6.46-3.49-8.66-.78-.65-.65-1.42.65-1.81,4.14-1.42,7.75-2.71,12.02-5.43.27-.15.49-.23.7-.23.48,0,.86.41,1.5,1.13,1.81,2.07,2.71,4.01,3.49,4.01,1.03,0,8.66-5.3,11.63-5.3m0-.32c-1.95,0-5.58,2.05-8.49,3.69-1.33.75-2.83,1.6-3.14,1.61-.31,0-.88-.79-1.48-1.62-.47-.65-1.05-1.46-1.77-2.28-.61-.69-1.09-1.24-1.74-1.24-.26,0-.54.09-.86.27-4.1,2.61-7.54,3.88-11.96,5.4-.97.29-1.25.76-1.32,1.11-.09.43.12.87.58,1.26,2.49,2.02,3.37,4.22,3.37,8.41v73.41c0,.7,0,1.36.22,1.87.27.62.81.92,1.65.92.09,0,.19,0,.29-.01,1.15-.09,2.75-.14,4.65-.14,2.8,0,5.92.11,7.97.27.09,0,.18,0,.27,0,1.89,0,1.89-1.62,1.89-2.92v-76c0-1.03.42-1.49,1.36-1.49,2.89,0,12.86,5.76,12.86,10.15v67.34c0,.7,0,1.36.22,1.87.27.62.81.92,1.65.92.09,0,.19,0,.29-.01,1.15-.09,2.75-.14,4.65-.14,2.8,0,5.92.11,7.97.27.09,0,.18,0,.27,0,1.89,0,1.89-1.62,1.89-2.92v-72.12c0-6.86-17.47-17.9-21.26-17.9h0Z"/></g></g></g><g class="cls-14"><g id="EXPANDED_EDITION_white" class="cls-12"><g><path class="cls-2" d="m175.88,427.59c-.78,0-1.55-.65-1.55-1.55v-77.94c0-.9.13-1.81.78-2.33l10.47-8.27c.78-.52,1.29-1.16,2.33-1.03,2.46.26,11.63.9,20.03.9,1.55,0,4.91-.26,5.69-.78.78-.52.78.26.26,1.81-.9,2.59-1.42,5.95-2.33,8.66-.52,1.55-3.49,3.36-6.59,3.36-2.71,0-7.63.26-12.92-1.81-.65-.26-1.29,0-1.29.39v26.75c0,1.03.39,1.42,2.07,1.42,2.59,0,9.18-.65,15.51-1.68.78-.13,1.29.39,1.03,1.29l-3.23,9.82c-.13.65-.65,1.03-1.29,1.03-2.97,0-10.21-1.42-13.18-1.42-.52,0-.91.26-.91.9,0,4.14-.13,19.26-.39,23.01-.13,2.2-.65,5.56,1.68,5.56,6.07,0,16.54-.65,22.62-1.55.9-.13,1.55.39.9,1.55-1.68,2.97-3.1,7.76-4.26,11.25-.26.78-.65.78-1.29.78-5.69,0-27.4-.39-34.12-.13Z"/><path class="cls-2" d="m252.52,418.15c-2.2-5.04-7.24-24.17-9.05-24.17-2.2,0-8.01,20.03-11.89,31.41-.52,1.42-.78,2.2-1.94,2.2h-10.73c-1.42,0-2.58-.52-1.94-1.81,5.82-11.89,22.49-41.62,20.16-49.12-2.58-8.27-11.24-30.12-17.19-30.12-1.42,0-3.1.26-3.88.52-1.03.39-1.16-.13-.52-1.03,2.07-2.84,12.41-10.21,16.93-10.21,2.84,0,7.24,2.97,9.95,8.79,2.97,6.46,6.72,22.36,8.79,22.36,1.55,0,6.2-17.19,10.08-27.92.52-1.42.78-2.2,1.94-2.2,2.46,0,7.88.13,10.73-.13,1.42-.13,2.58.65,1.94,1.81-6.2,11.24-21.71,36.96-19.78,43.17,4.52,14.61,14.09,36.84,19.52,36.84,1.42,0,3.1-.39,3.88-.9.91-.65,1.29.26.52,1.03-5.04,5.04-14.22,10.21-17.45,10.21-3.75,0-7.88-5.69-10.08-10.73Z"/><path class="cls-2" d="m333.95,360.25c0,18.35-13.57,27.53-23.01,32.31l-9.18,4.65c-.9.39-1.16,1.29-1.16,2.59v25.46c0,1.42,0,2.71-1.81,2.59-3.23-.26-9.44-.39-12.67-.13-1.81.13-1.81-1.03-1.81-2.46v-73.67c0-4.01-.78-6.46-3.49-8.66-.78-.65-.65-1.42.65-1.81,4.14-1.29,6.59-2.97,12.28-5.43.9-.39,1.29-.13,2.2.9,1.81,2.07,2.71,4.27,3.49,4.27,1.03,0,4.78-5.3,10.34-5.3,4.91,0,24.17,11.24,24.17,24.69Zm-27.92,22.88c5.04-2.33,11.24-7.24,11.24-20.16,0-9.69-11.89-14.99-14.48-14.99-1.16,0-2.2.78-2.2,2.71v33.09c0,1.03.65,1.55,1.29,1.29l4.14-1.94Z"/><path class="cls-2" d="m390.43,352.88v72.38c0,1.42,0,2.71-1.81,2.59-3.23-.26-9.43-.39-12.67-.13-1.81.13-1.81-1.03-1.81-2.46v-25.85c0-.52-.26-.78-.78-.78h-13.57c-.52,0-.78.26-.78.78v25.85c0,1.42,0,2.71-1.81,2.59-3.23-.26-9.44-.39-12.67-.13-1.81.13-1.81-1.03-1.81-2.46v-73.67c0-1.42.13-3.23,2.2-4.26,2.2-1.03,21.33-12.02,24.3-12.02,3.62,0,21.2,10.99,21.2,17.58Zm-17.06,35.41c.52,0,.78-.26.78-.78v-29.86c0-4.65-10.47-10.47-13.44-10.47-1.16,0-1.68.65-1.68,1.81v38.52c0,.39.26.78.78.78h13.57Z"/><path class="cls-2" d="m452.86,353.14v72.12c0,1.42,0,2.71-1.81,2.59-3.23-.26-9.44-.39-12.67-.13-1.81.13-1.81-1.03-1.81-2.46v-67.34c0-4.65-10.21-10.47-13.18-10.47-1.16,0-1.68.65-1.68,1.81v76c0,1.42,0,2.71-1.81,2.59-3.23-.26-9.44-.39-12.67-.13-1.81.13-1.81-1.03-1.81-2.46v-73.41c0-4.01-.78-6.46-3.49-8.66-.78-.65-.65-1.42.65-1.81,4.14-1.42,7.76-2.71,12.02-5.43.91-.52,1.29-.13,2.2.9,1.81,2.07,2.71,4.01,3.49,4.01,1.03,0,8.66-5.3,11.63-5.3,3.62,0,20.94,10.99,20.94,17.58Z"/><path class="cls-2" d="m467.98,427.59c-1.16,0-.13-.65-.13-1.81v-74.19c0-4.01-.78-6.46-3.49-8.66-.78-.65-.65-1.42.65-1.81,4.14-1.29,7.88-2.97,12.28-5.43.9-.52,1.29-.13,2.2.9,1.81,2.07,2.71,4.27,3.49,4.27,1.03,0,7.11-5.3,13.96-5.3,3.62,0,19.65,10.08,19.65,20.55v51.96c0,5.95-17.97,19.52-22.75,19.52h-25.85Zm30.76-12.8c.91,0,1.55-.78,1.55-2.2v-51.7c0-8.01-12.02-13.44-14.61-13.44-1.16,0-1.55.78-1.55,2.71v57.77c0,5.69-2.33,6.85,1.42,6.85h13.18Z"/><path class="cls-2" d="m531.7,427.59c-.78,0-1.55-.65-1.55-1.55v-77.94c0-.9.13-1.81.78-2.33l10.47-8.27c.78-.52,1.29-1.16,2.33-1.03,2.46.26,11.63.9,20.03.9,1.55,0,4.91-.26,5.69-.78.78-.52.78.26.26,1.81-.9,2.59-1.42,5.95-2.33,8.66-.52,1.55-3.49,3.36-6.59,3.36-2.71,0-7.63.26-12.92-1.81-.65-.26-1.29,0-1.29.39v26.75c0,1.03.39,1.42,2.07,1.42,2.59,0,9.18-.65,15.51-1.68.78-.13,1.29.39,1.03,1.29l-3.23,9.82c-.13.65-.65,1.03-1.29,1.03-2.97,0-10.21-1.42-13.18-1.42-.52,0-.91.26-.91.9,0,4.14-.13,19.26-.39,23.01-.13,2.2-.65,5.56,1.68,5.56,6.07,0,16.54-.65,22.62-1.55.9-.13,1.55.39.9,1.55-1.68,2.97-3.1,7.76-4.26,11.25-.26.78-.65.78-1.29.78-5.69,0-27.4-.39-34.12-.13Z"/><path class="cls-2" d="m581.47,427.59c-1.16,0-.13-.65-.13-1.81v-74.19c0-4.01-.78-6.46-3.49-8.66-.78-.65-.65-1.42.65-1.81,4.14-1.29,7.88-2.97,12.28-5.43.9-.52,1.29-.13,2.2.9,1.81,2.07,2.71,4.27,3.49,4.27,1.03,0,7.11-5.3,13.96-5.3,3.62,0,19.65,10.08,19.65,20.55v51.96c0,5.95-17.96,19.52-22.75,19.52h-25.85Zm30.76-12.8c.91,0,1.55-.78,1.55-2.2v-51.7c0-8.01-12.02-13.44-14.61-13.44-1.16,0-1.55.78-1.55,2.71v57.77c0,5.69-2.33,6.85,1.42,6.85h13.18Z"/><path class="cls-2" d="m669.74,427.59c-.78,0-1.55-.65-1.55-1.55v-77.94c0-.9.13-1.81.78-2.33l10.47-8.27c.78-.52,1.29-1.16,2.33-1.03,2.46.26,11.63.9,20.03.9,1.55,0,4.91-.26,5.69-.78.78-.52.78.26.26,1.81-.9,2.59-1.42,5.95-2.33,8.66-.52,1.55-3.49,3.36-6.59,3.36-2.71,0-7.63.26-12.93-1.81-.65-.26-1.29,0-1.29.39v26.75c0,1.03.39,1.42,2.07,1.42,2.58,0,9.18-.65,15.51-1.68.78-.13,1.29.39,1.03,1.29l-3.23,9.82c-.13.65-.65,1.03-1.29,1.03-2.97,0-10.21-1.42-13.18-1.42-.52,0-.9.26-.9.9,0,4.14-.13,19.26-.39,23.01-.13,2.2-.65,5.56,1.68,5.56,6.07,0,16.54-.65,22.62-1.55.91-.13,1.55.39.91,1.55-1.68,2.97-3.1,7.76-4.27,11.25-.26.78-.65.78-1.29.78-5.69,0-27.4-.39-34.12-.13Z"/><path class="cls-2" d="m719.5,427.59c-1.16,0-.13-.65-.13-1.81v-74.19c0-4.01-.78-6.46-3.49-8.66-.78-.65-.65-1.42.65-1.81,4.14-1.29,7.88-2.97,12.28-5.43.9-.52,1.29-.13,2.2.9,1.81,2.07,2.71,4.27,3.49,4.27,1.03,0,7.11-5.3,13.96-5.3,3.62,0,19.65,10.08,19.65,20.55v51.96c0,5.95-17.96,19.52-22.75,19.52h-25.85Zm30.76-12.8c.91,0,1.55-.78,1.55-2.2v-51.7c0-8.01-12.02-13.44-14.61-13.44-1.16,0-1.55.78-1.55,2.71v57.77c0,5.69-2.33,6.85,1.42,6.85h13.18Z"/><path class="cls-2" d="m798.35,339.44v85.82c0,1.42,0,2.71-1.81,2.59-3.23-.26-9.44-.39-12.67-.13-1.81.13-1.81-1.03-1.81-2.46v-85.82c0-1.42,0-2.58,1.81-2.46,3.23.26,9.44.13,12.67-.13,1.81-.13,1.81,1.16,1.81,2.58Z"/><path class="cls-2" d="m824.72,427.59c-1.81.13-1.81-1.03-1.81-2.46,0-16.54-.39-58.55-.39-75.09,0-1.03-.65-1.68-1.68-1.68-7.24.13-10.08.65-13.57,1.68-.9.26-.9-.26-.39-1.81l2.97-9.31c.39-1.42,1.68-1.42,3.75-1.68,3.88-.52,7.11-.39,16.67-.26,11.76.13,19.65.9,24.3-.13.9-.26.9.26.39,1.81l-2.97,9.44c-.52,1.42-1.68,1.42-3.75,1.42-2.97,0-5.69-.65-8.01-1.16-1.16-.26-1.29.65-1.29,1.81,0,15.25.13,59.84.39,74.96-.13,1.42,0,2.71-1.81,2.59-3.23-.26-9.56-.39-12.8-.13Z"/><path class="cls-2" d="m877.84,339.44v85.82c0,1.42,0,2.71-1.81,2.59-3.23-.26-9.44-.39-12.67-.13-1.81.13-1.81-1.03-1.81-2.46v-85.82c0-1.42,0-2.58,1.81-2.46,3.23.26,9.44.13,12.67-.13,1.81-.13,1.81,1.16,1.81,2.58Z"/><path class="cls-2" d="m891.8,410.01v-53.9c0-5.95,19.52-20.81,24.3-20.81,5.43,0,25.72,13.57,25.72,19.39v53.9c0,5.95-19.52,20.81-24.3,20.81-5.43,0-25.72-13.57-25.72-19.39Zm33.73,5.17v-54.93c0-3.23-13.57-12.54-15.77-12.54-1.03,0-1.68.78-1.68,2.2v54.93c0,3.23,13.57,12.54,15.9,12.54.91,0,1.55-.78,1.55-2.2Z"/><path class="cls-2" d="m1002.95,353.14v72.12c0,1.42,0,2.71-1.81,2.59-3.23-.26-9.44-.39-12.67-.13-1.81.13-1.81-1.03-1.81-2.46v-67.34c0-4.65-10.21-10.47-13.18-10.47-1.16,0-1.68.65-1.68,1.81v76c0,1.42,0,2.71-1.81,2.59-3.23-.26-9.44-.39-12.67-.13-1.81.13-1.81-1.03-1.81-2.46v-73.41c0-4.01-.78-6.46-3.49-8.66-.78-.65-.65-1.42.65-1.81,4.14-1.42,7.75-2.71,12.02-5.43.9-.52,1.29-.13,2.2.9,1.81,2.07,2.71,4.01,3.49,4.01,1.03,0,8.66-5.3,11.63-5.3,3.62,0,20.94,10.99,20.94,17.58Z"/></g></g></g></g></g></svg>