<?xml version="1.0" encoding="utf-8"?>
<!-- Generator: Adobe Illustrator 26.0.1, SVG Export Plug-In . SVG Version: 6.00 Build 0)  -->
<svg version="1.1" id="Layer_1" xmlns="http://www.w3.org/2000/svg" xmlns:xlink="http://www.w3.org/1999/xlink" x="0px" y="0px"
	 viewBox="0 0 2000 2000" style="enable-background:new 0 0 2000 2000;" xml:space="preserve">
<style type="text/css">
	.st0{fill:#AED76A;}
	.st1{clip-path:url(#SVGID_00000089569080339300197180000011591172455062880141_);}
	.st2{fill:#FECFAE;}
	.st3{fill:#969087;}
	.st4{fill:#ADABA7;}
	.st5{fill:#E8E2DB;}
	.st6{fill:#D8C09C;}
	.st7{fill:#D18538;}
	.st8{fill:#E0CFB1;}
	.st9{fill:#A57A5E;}
	.st10{fill:#859B1D;}
	.st11{fill:#77841A;}
	.st12{fill:#E2A26E;}
	.st13{fill:#8E5731;}
	.st14{fill:#AA683A;}
	.st15{fill:#676D17;}
	.st16{clip-path:url(#SVGID_00000168798474827754750800000000722285483782000522_);}
	.st17{fill:#FFDA3E;}
	.st18{fill:#FFF0B1;}
	.st19{fill:#AFD86A;}
</style>
<path class="st0" d="M1275.2,1033.4c71.8-7.5,145.4,2.5,205.5,29.6c84.6,38.1,271.9,126.5,243,262.2
	c-62.1,291-420.4,274.1-837.1,187.4c-285-59.3-313.1-149.4-510.5-153.6c-75.6-1.6-199.8-58.3-113.2-188.9
	c44.4-67,405.1-255.8,721-177.5C1146.8,1033,1231.5,1038,1275.2,1033.4z"/>
<g>
	<defs>
		<path id="SVGID_1_" d="M1275.2,1033.4c71.8-7.5,145.4,2.5,205.5,29.6c84.6,38.1,271.9,126.5,243,262.2
			c-62.1,291-420.4,274.1-837.1,187.4c-285-59.3-313.1-149.4-510.5-153.6c-75.6-1.6-199.8-58.3-113.2-188.9
			c44.4-67,405.1-255.8,721-177.5C1146.8,1033,1231.5,1038,1275.2,1033.4z"/>
	</defs>
	<clipPath id="SVGID_00000060743734275614535190000010481257880366570408_">
		<use xlink:href="#SVGID_1_"  style="overflow:visible;"/>
	</clipPath>
	<g style="clip-path:url(#SVGID_00000060743734275614535190000010481257880366570408_);">
		<path class="st2" d="M1198.6,1232.7c0,0,197.4,70.6,232.1,126.4c41.4,66.6-66.1,130.7-190.7,93.7c-107-31.8-239.4-20.9-309.5,68.6
			s222.2,105.1,222.2,105.1s47.2-97.4,122.4-97.4s232.3,17.1,261.7-94.6c37.6-142.8-208.5-238.5-208.5-238.5
			S1201.4,1175.4,1198.6,1232.7z"/>
	</g>
</g>
<path class="st3" d="M878.3,517.1L853.4,575l-0.6,89.1c0,0-91.5,56.2-45.5,135.7c14.4,24.9,17.6,76.8,35.1,95.2
	c37,39,141.3,30.3,141.3,30.3l49.8-417.5L878.3,517.1"/>
<path class="st4" d="M1239.8,519.8l48.4,155.5c0,0-28.3,203.5-42.5,250.8l-101.3,79.4c0,0-252,0-160.8-80.3c0,0-13.3-101.6,0-131.1
	s-15.5-92.5-15.5-92.5l-7.3-77.1c0,0,16-38.8,22.8-48.9c17.1-25.2,32.2-84.1,32.2-84.1L1239.8,519.8z"/>
<path class="st5" d="M998,551.4l-119.7-34.3c0,0,143.3-68.7,177.4-71.5s100.5,9.8,100.5,9.8l83.5,64.4l-60.4,39.8l-93-22.5l13,14.8
	L998,551.4z"/>
<path class="st3" d="M690.7,818.9l-32.2,365.6c0,0-77,8.7-104.3-30.3c-12.9-18.4-85.1-69.8-95.7-94.7
	c-33.9-79.5-27.9-110.8-27.9-110.8l131.4-172.5"/>
<polygon class="st3" points="998,551.4 1094.3,634.2 1159.4,840.2 1144.4,1005.6 1022.3,1000.4 930.5,559.6 "/>
<path class="st3" d="M772,608l6.5,115.7l-55.9,40.1L613.1,661.2c0,0,27-83.9,44.1-95.2S788.8,541.8,772,608z"/>
<path class="st4" d="M676.2,688.8c0,0,20.5,68,0.5,110.2c-12,25.4-67.7,4.4-67.7,4.4s-14.5-24.3,2.3-69.1S676.2,688.8,676.2,688.8z"
	/>
<path class="st4" d="M847.5,779c0,0,140.1,165,100.9,342.2l-147.1,2.2c0,0-71.4,63.5-142.8,61.1c0,0-9.8-101.6,0-131.1
	S647.1,961,647.1,961s-1.2-100.8,11.4-126s23.8-84.1,23.8-84.1L847.5,779z"/>
<path class="st3" d="M611.3,734.4l-10.5,69.1L489,907.4l-12.6-131.2l64.9-103.4C541.3,672.8,637.4,631.7,611.3,734.4z"/>
<path class="st5" d="M611.3,734.4c0,0,72.3-36.4,64.9-50.4s-48.1-60.2-75.4-57.4s-59.5,46.2-59.5,46.2l25.9,50.4L611.3,734.4z"/>
<path class="st4" d="M828,563.2c0,0,72.9,167,66.4,230.5s-138.1-62.8-138.1-62.8s12-106.1,15.7-122.9S828,563.2,828,563.2z"/>
<path class="st5" d="M772,608h-62.6l-52.2-42c0,0,50.4-39.2,95.2-32.2s75.6,29.4,75.6,29.4L772,608z"/>
<path class="st5" d="M658.5,835l-96.6-58.8c0,0,124.6-68.6,149.8-71.4s74.2,9.8,74.2,9.8l61.6,64.4l-84,22.4l-72.8-31.7l53.2,41.5
	L658.5,835z"/>
<path class="st6" d="M1073.9,1242.3l-181-110.7c0,0-26.9-197.2-41.8-218.7l232.4,55.7L1073.9,1242.3z"/>
<path class="st7" d="M851,932.9c0,0,27.7,116.2,41.8,198.8l37.6,24.3c0,0-31.6-211.2-35.7-218.7S851,932.9,851,932.9z"/>
<polygon class="st8" points="1364.3,1185.6 1180.8,1230.4 1181.1,1237.7 1128.6,1252.6 1099.2,951.4 1419.5,894.8 1405.3,1031.1 "/>
<polygon class="st7" points="1364.3,1185.6 1352.3,1175.1 1392.3,924.8 1419.5,924.8 "/>
<path class="st7" d="M1097.6,1261.5l-23.8-19.1c0,0-13.2-221.9-31.1-250.3l38.8-5.6L1097.6,1261.5z"/>
<polygon class="st9" points="1463.9,913.5 1410.8,1168.9 1364.3,1185.6 1412.8,913.5 "/>
<polygon class="st9" points="1126,977.2 1138.3,1249.8 1097.6,1261.5 1060,985.3 "/>
<polygon class="st10" points="1468.2,858.9 1384.9,747.9 1288.1,689.3 1187.7,728.2 1080.4,838.5 1038.5,903.7 1099.5,932.9 
	1400.3,924.8 1472.5,858.9 "/>
<path class="st11" d="M1430.6,867.5c0,0-50.7-92.2-74.1-109.7c-39.5-29.6-82.2-35.2-129.2-8.6s-127.2,148.2-136.4,158.2
	s-33.9,5.1-34.5,2.7s40.7-85,44.4-89.4s78.6-79.4,91.1-88.4s57.5-31.2,88.3-30.6s90,21.6,93.1,25.3s38.8,48.7,53.6,70.3
	s41.5,51.2,36.5,55.2S1430.6,867.5,1430.6,867.5z"/>
<path class="st11" d="M1191.8,683.9l-3.6,0.4c-66.4,7-133.3,7.1-199.7,0.3l0,0c0,0-74.4-1.6-108.5,55.1s-31.6,71-79.7,112.8
	s201.8,73.8,201.8,73.8l120.8-132.5L1191.8,683.9z"/>
<path class="st12" d="M1324.2,685.8c0,0-61-20.1-132.3-1.9c-39.7,10.1-92.1,69.7-118,112.7s-94.3,122-103.8,119
	s78.1,38.4,102.5-33.2s117.2-161.5,155.2-168.9S1324.2,685.8,1324.2,685.8z"/>
<polygon class="st7" points="1002.1,915.6 800.3,852.4 771.5,858.9 992.8,937.2 "/>
<polygon class="st13" points="988.5,928.2 771.5,858.9 771.5,907.4 979.9,992.1 "/>
<path class="st14" d="M1489.9,849.4c0,0-36.6-16-73.6-84.3s-122.5-121.7-223.2-53.4c-102.5,69.5-121.8,180-161.4,195.6h42
	c0,0,73.4-119.2,100.7-140.6s50.3-62.5,133.3-52.6s116,148.8,150.5,144.7S1489.9,849.4,1489.9,849.4z"/>
<polygon class="st14" points="1372.2,1095.9 1368.9,1224.7 1356.4,1229 1360.1,1088.2 "/>
<polygon class="st7" points="1360.1,1088.2 1356.4,1229 1351.9,1224.7 1353.1,1087.1 "/>
<path class="st7" d="M1374.9,1095.9l-1.1,25.3l-55.5-36l-1.3-19.8C1317,1065.4,1371.7,1086.7,1374.9,1095.9z"/>
<polygon class="st12" points="1386.4,1085.2 1396,1090.8 1373.8,1094.2 1317,1065.5 1334.3,1062.3 "/>
<polygon class="st14" points="1396,1090.8 1394.8,1116.4 1373.8,1121.2 1373.8,1094.2 "/>
<path class="st15" d="M1338.1,1044.9l-9.8,151.1l-132.2,37.3l-2.9-152.5l82-74c1.2-3.9,53,4.6,70.3,19.9
	C1351.2,1031.8,1338.1,1039,1338.1,1044.9z"/>
<path class="st11" d="M1331.2,1044.3l-11.6,141.4l-115.9,31.7v-134c0,0,86.9-71.5,104.2-61S1331.2,1044.3,1331.2,1044.3z"/>
<g>
	<defs>
		<path id="SVGID_00000165913855779068751370000016013919684999798709_" d="M1331.2,1044.3l-11.6,141.4l-115.9,31.7v-134
			c0,0,86.9-71.5,104.2-61S1331.2,1044.3,1331.2,1044.3z"/>
	</defs>
	<clipPath id="SVGID_00000080189734163725098200000014368210018346469292_">
		<use xlink:href="#SVGID_00000165913855779068751370000016013919684999798709_"  style="overflow:visible;"/>
	</clipPath>
	<g style="clip-path:url(#SVGID_00000080189734163725098200000014368210018346469292_);">
		<polygon class="st15" points="1323.9,1052.5 1312.8,1181.3 1304.3,1182.7 1310.3,1052.5 		"/>
		<polygon class="st15" points="1303.3,1047.5 1302.3,1048.1 1294.3,1052.5 1291.2,1186.2 1299.9,1184.8 		"/>
		<polygon class="st15" points="1284.8,1060.3 1284.8,1186.2 1275.1,1188 1270.9,1103 1256.7,1107.3 1267.4,1189.9 1242.2,1195.1 
			1231.4,1098.7 1225.3,1103.6 1229.1,1199.2 1214.2,1203.5 1214.2,1074.9 1246.2,1072.8 1251.2,1089.5 1272.1,1085.1 
			1272.2,1060.3 		"/>
	</g>
</g>
<polygon class="st14" points="1234.2,1093.4 1234.2,1252.6 1220.3,1257.4 1220.3,1080.4 "/>
<polygon class="st7" points="1220.3,1086.6 1220.3,1257.4 1213.1,1250.6 1212,1080.4 "/>
<polygon class="st14" points="1195.5,1106 1198.6,1232.7 1187,1236.7 1181.9,1106 "/>
<polygon class="st7" points="1182,1106.6 1187,1236.7 1180.9,1233.9 1173.9,1106.6 "/>
<path class="st13" d="M1373.2,1089.5l-36.4-17.3l1-31.2c0,0,3.7-16.8,14.4-6.6s16.8,23.4,18.1,27.5S1373.2,1089.5,1373.2,1089.5z"/>
<path class="st12" d="M1229.1,1115.3l-44.6-25.9c0,0,3.7-67.8,67.8-89.4l55.5,22.2l-35.8,33.4l-15.4,13.1l-16,29.3L1229.1,1115.3z"
	/>
<path class="st14" d="M1343,1039c0,0,22.4,8.2,24.9,25s5.3,25.5,5.3,25.5l16-2.5c0,0-2.5-18-5.8-22.8l-7,4.6l6.2-9.3
	c0,0-4.9-14.3-13.2-20.5l-3.4,8.6v-12.7c0,0-13-12.7-26.2-12.5C1339.9,1022.3,1339.4,1018.1,1343,1039z"/>
<path class="st7" d="M1018.1,1006.8c0,0-21.2-10.6-31.3-12.4c-2.4-0.4-4.7-1.2-6.9-2.4l-6.9-3.9c0,0,9-53.2-3-72.6l60,14l43.8,34.8
	L1018.1,1006.8z"/>
<path class="st7" d="M1230.3,1127.4l-1.2,28.5l-62.6-40.6l-1.5-22.3C1165,1093,1226.8,1117,1230.3,1127.4z"/>
<polygon class="st12" points="1243.3,1115.3 1254.2,1121.7 1230.3,1127.4 1163.9,1092.5 1184.6,1089.5 "/>
<path class="st12" d="M1007,927.9l-37-12.3l509.5-67.8l15.8-2.1l48.1,13.2C1543.3,858.9,1054.7,933.7,1007,927.9z"/>
<path class="st14" d="M1007,927.9c0,0,19.7,23.4,14.8,35.8h38.2l-37,12.3l-4.9,30.8l525.3-92.5v-29.6h-26.5l26.5-16v-9.9L1007,927.9
	z"/>
<path class="st14" d="M1345.5,1013c0,0-2.3,10-2,13.8l-15.2,1.8l15.2,1.2l-0.8,14.4l-23.1,3.3l-2.6-34.5H1345.5z"/>
<path class="st7" d="M1319.6,1016.7v30.8l-19.1-6.8v-18.5l-48.1-22.2l-2.5-19.1C1249.9,981,1319.6,1008.1,1319.6,1016.7z"/>
<polygon class="st12" points="1345.5,1013 1319.6,1016.7 1249.9,981 1275.2,977.2 "/>
<path class="st14" d="M1300.5,1040.8c0,0-48.5,19.9-57.1,74.6h-14.2v-16l5.6-2l-3.7-4.5l4.5-14.7l14.4-25.2l6.8-5.3l6.4,3.3
	l-1.2-10.1l13.3-6v7.8l6-12.3l19.3-8C1300.5,1022.3,1306.9,1037.5,1300.5,1040.8z"/>
<polygon class="st14" points="1254.2,1121.7 1252.8,1150.5 1229.1,1155.9 1229.1,1125.4 "/>
<path class="st9" d="M938.5,1162.5c0,0-17-175.5-24.6-197.2l-18-7.3c0,0,28.6,157.4,29.8,194.8L938.5,1162.5z"/>
<path class="st3" d="M850.4,1243.6c0,0-85-18.5-88.7-57.9s18.5-103.1,18.5-103.1l70.2,47.7L850.4,1243.6z"/>
<path class="st4" d="M835.6,1141.3c0,0,8.6,93.7,14.8,102.3s69-4.9,69-4.9s-3.5-23.4,19.8-30.8s29.5-33.3-1.4-83.8
	s-92.4-35.7-92.4-35.7L835.6,1141.3z"/>
<path class="st5" d="M937.9,1124.1l-55.5-9.9l-46.1,34.6l-46.3-25.9l-9.9-40.3l78.9-60.8C859,1021.8,951.5,1071.1,937.9,1124.1z"/>
<path class="st3" d="M530.1,1278.6c0,0-122.6-26.7-127.9-83.5s26.6-148.7,26.6-148.7l157.6,85.5L530.1,1278.6z"/>
<path class="st4" d="M552.1,1208.3c0,0-30.8,57.8-22,70.3s99.5-7.1,99.5-7.1s13.2,17.8,46.8,7.1s17.2-143.9-27-227.2
	c-40-75.3-126.4,3.4-126.4,3.4L552.1,1208.3z"/>
<path class="st5" d="M656.3,1106.3L542,1155l-61.4-29.5l-37.5-21l-14.2-58.1l55.2-47.4l80.5-26.9
	C564.6,972.1,675.8,1029.9,656.3,1106.3z"/>
<path class="st7" d="M934.6,1352.1c0,0,3.4,2,7.6-5.1s3.9-27,3.9-27S946.3,1225.2,934.6,1352.1z"/>
<path class="st7" d="M952.7,1364.2c0,0,7.5-1,9.5-7.7s-1.9-31.6-1.9-31.6L940,1322L952.7,1364.2z"/>
<path class="st7" d="M1050.8,1308.5c0,0,9.2-5.9,10.1-14.6s-1.9-9.8-0.8-15.4c0.7-2.9,0.9-5.9,0.4-8.9l-9.3,8.6L1050.8,1308.5z"/>
<path class="st7" d="M908,1343.5c0,0,5.8-1.8,5.7-2.2s6.9-21.7,5.6-30s-8.5-2.6-8.5-2.6L908,1343.5z"/>
<path class="st12" d="M895,1304.8c0,0-3.8,27.4,0,29.4s12.9,9.3,12.9,9.3l2.8-3.2l2.9-32.6C913.6,1307.7,899.7,1298.7,895,1304.8z"
	/>
<path class="st12" d="M941.4,1323.1v33.8c0,0,9.3,8.7,11.4,7.3s4.1-5.2,4.1-5.2v-37.9l-15.4-0.9h-7.6v32.3c0,0,1.2,1.4,2.6-1.5
	S941.4,1323.1,941.4,1323.1z"/>
<path class="st13" d="M1039.2,1270.7v34.7l4.9,2.4c4.1,2.1,9.1,0.4,11.2-3.7c0.3-0.5,0.5-1.1,0.6-1.7c1.3-5.2,2.4-10.6,1.2-10.9
	c-2.3-0.7,0.5-27,0.5-27L1039.2,1270.7z"/>
<path class="st7" d="M891,1291.4l1.5,15.4l7.5,3.2l2.9-7v9l8.7,2.9c0,0,5.8-3.5,8.2,1.2s11.4,5.8,16.3,7.9s14,11.7,14,11.7
	l10.2-22.1c0,0-21.6-28-26.8-28S891,1291.4,891,1291.4z"/>
<path class="st14" d="M950.1,1320.2v15.4c0,0,106.9-61.2,114.2-61.3s5.8-15.9,5.8-15.9S953,1309.7,950.1,1320.2z"/>
<path class="st12" d="M891,1291.4l27.1,11.7l8.2-2.9l-3.5,8.8l27.4,11.4l119.8-61.8l-16.7-8l-19.3,15.3l12.3-19.8l-11.2-4.7
	l-17.8,11.7l14-14.3l-28.8-10.2C1002.5,1228.4,909,1263.7,891,1291.4z"/>
<ellipse class="st17" cx="973.1" cy="1190.2" rx="34.6" ry="56"/>
<path class="st13" d="M973.1,1128.3c10.8,0,19.5-7.8,19.5-17.5s-8.7-17.5-19.5-17.5s-19.5,7.8-19.5,17.5S962.3,1128.3,973.1,1128.3z
	 M973.1,1100.6c6.3,0,11.4,4.6,11.4,10.2s-5.1,10.2-11.4,10.2s-11.4-4.6-11.4-10.2S966.8,1100.6,973.1,1100.6z"/>
<path class="st12" d="M1013.6,1230.1l-4.8-6.2c0,0-34-20.5-73.2,0l-3,6.2H1013.6z"/>
<path class="st13" d="M968.4,1249.7h7c8.7,0,17-3.5,23.1-9.7c5.1-5.1,10.5-9.1,15.2-9.9c0,0-41.4-23.1-81,0c0,0,6.4,4.7,13.9,11.3
	C952.6,1246.7,960.4,1249.7,968.4,1249.7z"/>
<path class="st12" d="M948.1,1140l28.1-5.8c0,0,15.4,9.9,22,5.8C998.2,1140,976.4,1157.1,948.1,1140"/>
<path class="st13" d="M978.8,1124.4h-13c-5.1,6.1-11.1,11.3-17.7,15.6c27.4,7,50.1,0,50.1,0C988.8,1139.7,982.6,1132.2,978.8,1124.4
	z"/>
<ellipse class="st18" cx="958.9" cy="1186.4" rx="11.1" ry="22.1"/>
<ellipse class="st13" cx="973.1" cy="1256.2" rx="30.9" ry="8.4"/>
<path class="st15" d="M996.8,705c0,0-54.8,1.2-69,38.1c-17.9,46.1-63.4,91.3-63.4,91.3s49.2-24.8,67.9-72.8
	C941.2,738.4,965.2,707.5,996.8,705z"/>
<path class="st15" d="M1055.6,713.2c0,0-61.8,7.5-70.6,35.3c-15,47.3-49.4,77.7-63.5,77.7c0,0,46.4-3.9,70.6-63.5
	C1000.5,742,1041.5,713.2,1055.6,713.2z"/>
<path class="st15" d="M1110.1,713.2c0,0-50.3,6.1-57.4,28.7c-12.2,38.5-40.2,63.2-51.7,63.2c0,0,37.7-3.2,57.4-51.7
	C1065.3,736.6,1098.7,713.2,1110.1,713.2z"/>
<path class="st19" d="M624.3,1293.8c-22.8-23.2-6.9-40.7-9.2-48.3c0,0-22,19.6-13,39.1l-7.9-14.1c-2.8-5-4.7-10.5-5.4-16.1
	c-1.8-12.6-7.9-24.2-17.4-32.8c0,0,12.4,57.5,2,60.6c0,0-2.9-20-14-24.7c0,0,4.2,23.1,1,46.6
	C556.2,1334.1,632.8,1307.2,624.3,1293.8z"/>
<path class="st19" d="M462.9,1264.5c0,0-15.9-24.5-8.1-58.3c0-0.1,0-0.2-0.1-0.3c-0.1,0-0.2,0-0.2,0.1c-3.8,5.6-22.7,35-10.9,54.7
	C454.2,1278.5,462.9,1264.5,462.9,1264.5z"/>
<path class="st19" d="M481.7,1285.1c0,0-15.9-24.5-8.1-58.3c0-0.1,0-0.2-0.1-0.3c-0.1,0-0.2,0-0.2,0.1c-3.8,5.6-22.7,35-10.9,54.7
	C473,1299.2,481.7,1285.1,481.7,1285.1z"/>
<polygon class="st4" points="1059.1,559.6 1012,531.1 1081.2,556.7 "/>
</svg>
