<?xml version="1.0" encoding="utf-8"?>
<!-- Generator: Adobe Illustrator 26.0.1, SVG Export Plug-In . SVG Version: 6.00 Build 0)  -->
<svg version="1.1" id="Layer_1" xmlns="http://www.w3.org/2000/svg" xmlns:xlink="http://www.w3.org/1999/xlink" x="0px" y="0px"
	 viewBox="0 0 2000 2000" style="enable-background:new 0 0 2000 2000;" xml:space="preserve">
<style type="text/css">
	.st0{fill:#AED76A;}
	.st1{fill:#969088;}
	.st2{fill:#ADABA7;}
	.st3{fill:#E8E2DB;}
	.st4{fill:#D1873B;}
	.st5{fill:#8E5833;}
	.st6{fill:#AA693C;}
	.st7{fill:#E2A371;}
	.st8{fill:#FFDA42;}
	.st9{fill:#FFF1B3;}
	.st10{fill:#AFD86A;}
</style>
<path class="st0" d="M678.5,983.1c-80.3-8.5-162.5,5.4-229.1,40.7c-93.9,49.8-154.3,162.4-122.5,252.7
	c54.8,155.6,278.2,224.6,465.8,198.3c327-45.8,161.8-63.8,411.3-49.6c83.8,4.8,462.7-69.7,462.4-281.6
	c-0.2-151.2-141.1-306.8-594.2-300.4C881,845.9,727.5,988.3,678.5,983.1z"/>
<path class="st1" d="M1023.6,612.7l-24.1,15l-59.2,85.1c0,0-19.7,128.7,32,218.2c16.2,28,19.8,86.4,39.5,107.2
	c41.6,43.9,159.1,34.1,159.1,34.1l56.1-469.9L1023.6,612.7"/>
<path class="st2" d="M1459.1,615.8l54.5,175.1c0,0-31.8,229.1-47.8,282.3l-114,89.4c0,0-283.6,0-180.9-90.3c0,0-15-114.3,0-147.5
	s-17.4-104.1-17.4-104.1l-8.2-86.8c0,0,17.9-43.7,25.6-55c19.2-28.4,36.3-94.7,36.3-94.7L1459.1,615.8z"/>
<path class="st3" d="M1187,651.4l-163.4-38.7c0,0,190-77.2,228.5-80.4s113.2,11,113.2,11l94,72.5l-67.9,44.8l-129.5-31.2l39.4,22.7
	L1187,651.4z"/>
<path class="st1" d="M1077.6,809l-36.2,411.5c0,0-86.7,9.8-117.4-34.1c-14.5-20.8-17.2-79.1-29.2-107.2
	c-38.2-89.5-72.5-164.4-72.5-164.4l110.3-153.9"/>
<polygon class="st1" points="1187,651.4 1295.4,744.6 1368.6,976.5 1351.8,1162.6 1214.3,1156.8 1111,660.7 "/>
<path class="st1" d="M932.7,715.2l7.3,130.3l-62.9,45.2L753.8,775.1c0,0,30.4-94.4,49.6-107.2S951.6,640.6,932.7,715.2z"/>
<path class="st2" d="M876.5,802.5c0,0,23.1,76.5,0.6,124.1c-13.5,28.6-76.2,5-76.2,5s-16.3-27.3,2.6-77.7S876.5,802.5,876.5,802.5z"
	/>
<path class="st2" d="M1254.1,764c0,0,70.9,141.6,26.8,341l-78.8,46.6c0,0-80.4,71.4-160.7,68.8c0,0-11-114.3,0-147.5
	s-12.9-104.1-12.9-104.1s-1.3-113.5,12.9-141.8s26.8-94.7,26.8-94.7L1254.1,764z"/>
<path class="st1" d="M803.5,853.9l-11.8,77.7L665.8,861l58.8-76.4C724.7,784.6,832.9,738.3,803.5,853.9z"/>
<path class="st4" d="M608.1,1117.5c0,0-8.4-8.4-8.9-43.9S577.8,920.5,580,902.1s33.7,4.5,33.7,4.5S647.5,1065.3,608.1,1117.5z"/>
<path class="st5" d="M777,1049.6l-27.1,13.3l-5-48.7c0,0-5.5,43.6-9.7,46.7c-3.1,2.1-6.5,3.9-10,5.1l-2.6-17.1c0,0-10,13.9-9.5,17.1
	s-2.6,8.9-12.6,13.7s-23.1,0-23.1,0v-42c0,0-7.9,36.2-6.8,44.1s-22.6,14.7-22.6,14.7l-6.8-12.1v-42l-5.8,67.2
	c0,0-25.7,14.2-27.3,7.9s-8.9-218-8.9-218l182.3,103.8L777,1049.6z"/>
<path class="st4" d="M813.4,1208.5l13.4-7.6l0.3-5.8l2.9,3.5l15.8-6.3l-1.6-6.4l3.6,0.2l6-4.1l0.3-5c0,0,2,4.5,3.6,4.3
	s12.2-6,12.2-6s1.2-11.8,2.2-15.5l-32.7,0.3l-99.8-28.4C739.8,1131.6,799.4,1200.8,813.4,1208.5z"/>
<polygon class="st6" points="814.2,1194.4 813.4,1208.5 663.2,1109.6 664,1096.2 724.4,1130.8 "/>
<path class="st7" d="M872.2,1159.8l-14.2,8.4l-9.8-2.8l4.9,9.2l-9.3,3.7l-60.4-35.4l56.2,17.3l-10.1,20.8l-69.6-37.2l64.2,47.9
	l-9.8,2.8l-23.9-15.8c0,0-27.5-6.7-38-21c-6.7-9.1-88.3-61.3-88.3-61.3l18.6-5.6l13.5,7.4c0,0-8.5-7.9-7.6-9.5l10.9-2.7l11.8,6.6
	l-8.4-5.8l22.3-5l16.7,11.3l-15.1-15.6l11.5-4.4C738.3,1072.8,801.6,1129.8,872.2,1159.8z"/>
<path class="st4" d="M727.9,1254.6l13.4-7.6l0.3-5.8l2.9,3.5l17.9-7.2l-3.6-5.6l5.1-0.8l4.5-3l0.3-5c0,0,5,2.7,6.7,2.5
	s9.2-4.1,9.2-4.1s1.2-11.8,2.2-15.5l-32.7,0.3l-50,3.4C704,1209.6,713.9,1246.9,727.9,1254.6z"/>
<polygon class="st6" points="728.6,1240.5 727.9,1254.6 577.7,1155.7 578.4,1142.3 638.8,1176.9 "/>
<path class="st7" d="M786.7,1205.9l-9.8,5.8l-9.9-1.7l0.6,10.7l-9.3,3.6l-13.3-7.8l12.1,13.9l-13.1,4.3l-31.7-20.4l26.1,23.4
	l-9.8,2.8l-10.6-7.1c0,0-17.3,0.6-27.7-13.7c-2.9-4-32.5-21.1-51.4-42.8c-4.4-5.1-8.6-0.4-14.1-4.1c-24.4-16.3-46.3-30.5-46.3-30.5
	l18.6-5.6l16.2,6.4c0,0-6.1-8.2-5.2-9.8l5.8-1.4l15.1,5.6l-5.5-6.2l16.1-3.6l20.4,10l-18.8-14.3l11.5-4.4
	C652.7,1119,716.1,1175.9,786.7,1205.9z"/>
<path class="st4" d="M642.2,1317.2l15.6-8.2l1.3-5.6l2.3,3l18.3-6.7l-1.6-7.4l4.1,0.3l7-4.5l0.5-5.7c0,0,2.1,5.2,4,5.1
	s14.2-6.4,14.2-6.4s1.8-13.5,3.1-17.7l-37.3-0.8l-57.2,2.2C616.4,1265,626.5,1308,642.2,1317.2z"/>
<polygon class="st6" points="643.5,1301.2 642.2,1317.2 473.9,1199.1 475.2,1183.8 543,1225.4 "/>
<path class="st7" d="M711,1263.6l-16.5,9.1l-11.1-3.5l5.3,10.7l-10.8,3.8l-28.7-7.4l27.1,14.4l-15.1,4.4l-17.5-8.8l11.1,12.1
	l-11.3,2.8l-26.8-18.9c0,0-92.8-53.8-104.2-70.5c-7.3-10.6-37.3-28-37.3-28l14.9-4l21.7,7.1c0,0-15.7-7.6-14.6-9.4l18.8-4.5
	l36.8,17.4L520,1174l25.7-4.9l18.8,13.5l-16.7-18.3l13.2-4.6C560.9,1159.6,631.4,1226.9,711,1263.6z"/>
<path class="st3" d="M803.5,853.9c0,0,81.4-41,73-56.7s-54.1-67.8-84.8-64.6s-67,52-67,52l29.2,56.7L803.5,853.9z"/>
<path class="st2" d="M995.7,664.8c0,0,30.5,12.6,23.1,84s-86.1,12.1-86.1,12.1s-4.2-26.8,0-45.7S995.7,664.8,995.7,664.8z"/>
<path class="st4" d="M791.6,1206.8c0,0-11.8-10.2-11.8-16.5s-9.9-186.9-9.9-186.9l33.6,20.7L791.6,1206.8z"/>
<path class="st3" d="M932.7,715.2h-70.5l-58.7-47.3c0,0,56.7-44.1,107.2-36.2s85.1,33.1,85.1,33.1L932.7,715.2z"/>
<path class="st3" d="M1041.4,827.1l-108.7-66.2c0,0,140.2-77.2,168.6-80.4s83.5,11,83.5,11l69.3,72.5l-94.5,25.2l-81.9-35.7
	l59.9,46.7L1041.4,827.1z"/>
<path class="st1" d="M1218.7,1247.8c0,0-72.5-15.8-75.6-49.4s15.8-87.9,15.8-87.9l59.9,40.7v96.6H1218.7z"/>
<path class="st2" d="M1206.1,1160.6c0,0,7.3,79.8,12.6,87.2s58.8-4.2,58.8-4.2s-2.9-20,16.9-26.3s25.1-28.4-1.2-71.4
	s-78.8-30.4-78.8-30.4L1206.1,1160.6z"/>
<path class="st3" d="M1293.3,1145.9l-47.3-8.4l-39.3,29.5l-39.5-22.1l-8.4-34.3l67.2-51.8
	C1226.1,1058.8,1304.8,1100.7,1293.3,1145.9z"/>
<path class="st7" d="M791.6,1015.4v191.4c0,0,37.8,14.2,37.8,6.3s-6.3-97.7-6.3-97.7s15.8,102.4,18.9,100.1s22.8-26,22.8-26
	l-7.9-82.7l19.4,98.5l19.2-2.4l-5.5-106.4l15.8,99.3l18.1-9.4l8.7-193C932.6,993.4,820.8,967.3,791.6,1015.4z"/>
<path class="st4" d="M1024.9,1326c0,0-3.8,2.2-8.5-5.7s-4.4-30.4-4.4-30.4S1011.6,1183.2,1024.9,1326z"/>
<path class="st4" d="M1004.4,1339.6c0,0-8.4-1.2-10.7-8.7s2.1-35.6,2.1-35.6l22.8-3.2L1004.4,1339.6z"/>
<path class="st4" d="M894,1276.9c0,0-10.4-6.6-11.4-16.4s2.2-11,0.9-17.3s-0.5-10-0.5-10l10.5,9.7L894,1276.9z"/>
<path class="st4" d="M1054.8,1316.3c0,0-6.5-2.1-6.4-2.5s-7.7-24.4-6.3-33.7s9.6-3,9.6-3L1054.8,1316.3z"/>
<path class="st7" d="M1069.4,1272.7c0,0,4.3,30.8,0,33.1s-14.5,10.5-14.5,10.5l-3.2-3.6l-3.3-36.7
	C1048.4,1276,1064.1,1265.8,1069.4,1272.7z"/>
<path class="st7" d="M1017.2,1293.3v38.1c0,0-10.5,9.8-12.8,8.2s-4.6-5.9-4.6-5.9v-42.6l17.4-1h8.5v36.4c0,0-1.3,1.6-3-1.6
	S1017.2,1293.3,1017.2,1293.3z"/>
<path class="st5" d="M907.1,1234.3v39l-5.5,2.8c-4.6,2.3-10.3,0.5-12.6-4.1c-0.3-0.6-0.5-1.2-0.7-1.9c-1.5-5.8-2.7-11.9-1.4-12.3
	c2.6-0.8-0.6-30.3-0.6-30.3L907.1,1234.3z"/>
<path class="st4" d="M1074,1257.6l-1.6,17.4l-8.5,3.6l-3.3-7.9v10.2l-9.8,3.3c0,0-6.6-3.9-9.2,1.3s-12.8,6.6-18.4,8.8
	s-15.8,13.1-15.8,13.1l-11.5-24.9c0,0,24.3-31.5,30.2-31.5S1074,1257.6,1074,1257.6z"/>
<path class="st6" d="M1007.4,1290.1v17.4c0,0-120.3-68.9-128.5-69s-6.5-17.9-6.5-17.9S1004.1,1278.3,1007.4,1290.1z"/>
<path class="st7" d="M1074,1257.6l-30.5,13.1l-9.2-3.3l3.9,9.8l-30.8,12.8l-135-69.5l18.8-9.1l21.7,17.2l-13.9-22.3l12.6-5.2
	l20,13.1l-15.7-16.1l32.5-11.5C948.4,1186.8,1053.6,1226.4,1074,1257.6z"/>
<ellipse class="st8" cx="981.5" cy="1163.1" rx="30" ry="48.5"/>
<path class="st5" d="M998.4,1094.3c0-8.3-7.6-15.1-16.9-15.1s-16.9,6.8-16.9,15.1s7.6,15.1,16.9,15.1S998.4,1102.7,998.4,1094.3z
	 M991.4,1094.3c0,4.9-4.4,8.8-9.9,8.8s-9.9-4-9.9-8.8s4.4-8.8,9.9-8.8S991.3,1089.4,991.4,1094.3L991.4,1094.3z"/>
<path class="st7" d="M946.4,1197.6l4.2-5.4c0,0,29.4-17.8,63.4,0l2.6,5.4H946.4z"/>
<path class="st5" d="M985.5,1214.6h-6c-7.5,0-14.7-3.1-20-8.4c-4.4-4.4-9-7.9-13.1-8.6c0,0,35.8-20,70.1,0c0,0-5.5,4-12,9.8
	C999.3,1212,992.5,1214.6,985.5,1214.6z"/>
<path class="st7" d="M1003.1,1119.6l-24.3-5c0,0-13.3,8.5-19,5C959.8,1119.6,978.7,1134.4,1003.1,1119.6"/>
<path class="st5" d="M976.5,1106.1h11.3c4.4,5.2,9.5,9.8,15.3,13.5c-14.2,3.6-29.1,3.6-43.4,0
	C967.9,1119.3,973.2,1112.8,976.5,1106.1z"/>
<ellipse class="st9" cx="993.8" cy="1159.8" rx="9.6" ry="19.2"/>
<ellipse class="st5" cx="981.5" cy="1220.2" rx="26.8" ry="7.2"/>
<path class="st10" d="M1387.6,1145.7c0,0,31.5-88.2,54.8-94.2c0,0-19.5,73.6-8.4,85.2s51.1-55,51.1-55s6.5,57.7-18.5,75.2
	S1387.6,1145.7,1387.6,1145.7z"/>
<path class="st10" d="M1417,1139.2c0,0-28.4-23.3-31.3-66.9c0,0-16.3,48.8,7,69.5C1412,1159,1417,1139.2,1417,1139.2z"/>
<path class="st10" d="M1258.1,1258.8c-22.3-22.7-6.7-39.8-9-47.3c0,0-21.6,19.2-12.7,38.2l-7.7-13.8c-2.7-4.9-4.5-10.2-5.3-15.8
	c-1.7-12.3-7.7-23.7-17-32c0,0,12.1,56.2,1.9,59.2c0,0-2.9-19.6-13.7-24.2c0,0,4.1,22.6,1,45.5
	C1191.5,1298.3,1266.4,1272,1258.1,1258.8z"/>
<path class="st4" d="M848.1,1058.7l24.7-15.7v-11l5.8,6.3l29.4-13.7l-3.7-12.1h6.8l11-8.4v-9.5c0,0,4.2,8.4,7.3,7.9
	s22.6-12.6,22.6-12.6s1-22.6,2.6-29.7l-62,3.9l-94.5,11.5C798.2,975.7,820.8,1045.6,848.1,1058.7z"/>
<polygon class="st6" points="848.1,1031.9 848.1,1058.7 552.9,886.4 552.9,861 671.1,920.4 "/>
<path class="st7" d="M954.7,960.2l-26,17.3l-18.9-4.3l10.2,16.9l-17.3,7.9l-26-13.4l24.4,25.2l-24.4,9.5l-62.2-35.5l52,41.8
	l-18.4,6.3l-47-27.6c0,0-7.1,7.1-22.1-8.3S552.9,861,552.9,861l34.7-12.6l48.1,37c0,0-38.6-38.6-37-41.8l20.5-6.3l18.9,18.9
	l-4.7-18.9l23.6-11.8l86.7,53.6l-73.3-60.7l21.3-9.4C691.6,809,817.6,910.6,954.7,960.2z"/>
</svg>
