<svg id="a9dcbc4b-e91a-4c5b-b9ec-4a9f424c8f00" data-name="Layer 1" xmlns="http://www.w3.org/2000/svg" xmlns:xlink="http://www.w3.org/1999/xlink" viewBox="0 0 2000 2000"><defs><style>.af23b030-f99e-48b6-9037-8678808dc071{fill:none;}.a06968a7-0683-49ba-82a4-90af0b2e7cd3{fill:#aed76a;}.baf83a46-1171-487f-9879-737392489a80{fill:#969087;}.b7707559-b1ed-4098-81d9-7fd5dba9bc9d{fill:#adaba7;}.aa408862-1bbd-4b9c-bfde-689905e50aac{fill:#e8e2db;}.bc590d4e-4a28-407f-a343-cd91a6b05200{fill:#e0cfb1;}.b5ee2038-0dd6-4e90-8045-8127090fb35f{fill:#e2a26e;}.f7a59a87-52ee-4177-9ee2-d4d6a8adbc2e{fill:#8e5731;}.ef4b2301-140a-4d4e-84df-21d1b637b862{fill:#442715;}.a5cec813-955d-467d-93e4-a1dcbb7f4e08{fill:#aa683a;}.b246f992-08f7-4711-991c-250d346774cc{fill:#d8c09c;}.a9e69894-afec-4dcf-9226-7e55b619f3cc{fill:#77841a;}.fabc1b7f-bb54-4b5b-b984-e523141ed37c{fill:#a57a5e;}.a7f56dcd-6d9c-45d2-8ab1-62c8ae1bcfbc{fill:#2d180d;}.be0e3fc9-d783-4887-a7fe-c6c6d46ea10d{fill:#d18538;}.e40f4fd6-92a5-44c7-af1c-9841728a06d1{fill:#676d17;}.b41b0967-a9cd-4b0d-81a3-7ba7aad0b27e{fill:#77a22f;}.fea0e8fd-24af-457e-8301-99733a7fd561{clip-path:url(#a0633ea3-4d30-435b-8683-3d28fb133f51);}.f51cac63-1b94-4c41-8e88-8921ebf74bd0{fill:#8abd32;}.fc0529b7-af8c-4e05-9a20-d59919f566f0{fill:#859b1d;}.aa203d89-0b7c-47b5-9558-aa00b4c7630a{clip-path:url(#f9f25468-1f66-41e5-ac51-61a558320dff);}.ff275c99-69d0-4432-a9e0-a206f8b3d26e{fill:#824c27;}.b4dc1f1e-dedc-4a64-b576-43abce0383be{clip-path:url(#f071712b-e746-4d03-9a99-fb95766e3c51);}.fa496cf4-fc94-4834-bb26-dc9b8fd66bb3{fill:#afd86a;}.f7cc4f48-635f-488a-8e4e-d87dfd684271{fill:#ffdf57;}.bf68cce1-cf73-4de9-b0d7-d84cd3ef15ae{fill:#8e5e3d;}.ea04177d-d968-4986-a7b1-cbd80a28d5c6{fill:#e2aa7d;}.af92181a-ad4b-4769-b4a8-6ba9db8bfe07{fill:#fff2bb;}.ae8e4995-142f-4eaf-894f-1c2e3ccea598{fill:#a6b729;}</style><clipPath id="a0633ea3-4d30-435b-8683-3d28fb133f51"><path class="af23b030-f99e-48b6-9037-8678808dc071" d="M1129.59,522.72l-1.13-.26s-2.56-16-14.39-15.35c-18.56,1.42-14.86,17.68-14.86,17.68s-4.25-7-11.17-2.27c-5.64,3.58-3.52,10.38.44,14,0,0,6.57,8.92,24,9.45.23,0,.46,0,.69,0l3.09.12a23.79,23.79,0,0,0,7.06-.81h0a23.05,23.05,0,0,0,11.57-7.48.35.35,0,0,0,.09-.11,7.76,7.76,0,0,0,.67-1A9.65,9.65,0,0,0,1129.59,522.72Z"/></clipPath><clipPath id="f9f25468-1f66-41e5-ac51-61a558320dff"><path class="af23b030-f99e-48b6-9037-8678808dc071" d="M1196.53,896.89c-15.2-9.2-91.5,53.6-91.5,53.6v117.7l101.8-27.8,10.2-124.2S1211.73,906.09,1196.53,896.89Z"/></clipPath><clipPath id="f071712b-e746-4d03-9a99-fb95766e3c51"><polygon class="af23b030-f99e-48b6-9037-8678808dc071" points="1679.83 1228.99 1644.53 1334.99 1411.73 1419.09 1227.13 1409.19 1070.13 1428.79 968.03 1353.69 1005.73 1313.09 1443.13 1173.99 1727.43 1182.79 1679.83 1228.99"/></clipPath></defs><path class="a06968a7-0683-49ba-82a4-90af0b2e7cd3" d="M142.2,1068c-95.6,174.5-50,364.4,134.5,449.4,134.7,62,292.68,7.58,361.28,35.83l3.16,2.27c126.16,142.55,301.29,232.91,490.69,251.85,501.92,50.19,749.57-210.87,751.54-467.84,1.39-180.33-125.51-335.8-301.64-374.55-261.91-57.63-570.43,60.24-570.43,60.24C570.8,671.52,262.5,848.42,142.2,1068Z"/><path class="baf83a46-1171-487f-9879-737392489a80" d="M434.37,656.69l-44.77,94.8L394,879.4l92.64-107.91,9.2-60.7C518.87,620.59,434.37,656.69,434.37,656.69Z"/><path class="baf83a46-1171-487f-9879-737392489a80" d="M639.88,365.49c-54,51.3-61.66,174.45-61.66,174.45l188,161.24,2-168.72-6.87-122.6C779.11,339.7,655.66,350.5,639.88,365.49Z"/><path class="b7707559-b1ed-4098-81d9-7fd5dba9bc9d" d="M761.39,409.86c-4,17.84-27.85,138.82-27.85,138.82S884,673.86,891,606.59,820.7,362.36,820.7,362.36,765.37,392,761.39,409.86Z"/><path class="aa408862-1bbd-4b9c-bfde-689905e50aac" d="M820.7,362.36s-32.55-23.75-80-31.1-100.9,34.11-100.9,34.11l29.11,70.86,92.52-26.37Z"/><path class="baf83a46-1171-487f-9879-737392489a80" d="M775.23,497.08l116.61-7.4L848,856.58s-91.7,7.6-124.2-26.7c-15.4-16.3-18.2-61.8-30.8-83.7-40.4-69.9,40-119.2,40-119.2l.5-78.3,41.69-51.6"/><path class="b7707559-b1ed-4098-81d9-7fd5dba9bc9d" d="M876.34,475.38s-13.3,51.8-28.3,73.9c-6,8.9-20,43-20,43l6.4,67.7s25.3,55.4,13.6,81.3,0,115.2,0,115.2C767.84,927,989.24,927,989.24,927l89-69.8c12.4-41.5,37.3-220.4,37.3-220.4L1073,500.08Z"/><path class="aa408862-1bbd-4b9c-bfde-689905e50aac" d="M949.64,528.38l-11.4-13,81.7,19.7,53-35-73.4-56.6s-112.61-3.41-142.51.08c-50.3,5.87-81.8,53.52-81.8,53.52l85.31,30.8Z"/><path class="baf83a46-1171-487f-9879-737392489a80" d="M561.24,540.88c-15.1,9.9-45.15,97.38-45.15,97.38L587.7,743.71l80-64.33L662,577.68C676.74,519.48,576.34,531,561.24,540.88Z"/><path class="b7707559-b1ed-4098-81d9-7fd5dba9bc9d" d="M495.87,710.79c-14.8,39.4-2,60.7-2,60.7s48.9,18.4,59.5-3.9c17.5-37,0-100,0-100S510.67,671.39,495.87,710.79Z"/><path class="aa408862-1bbd-4b9c-bfde-689905e50aac" d="M457.17,701l-22.8-44.3s28.3-38.1,52.3-40.6,59.6,38.1,66.2,50.4-57,44.3-57,44.3Z"/><path class="baf83a46-1171-487f-9879-737392489a80" d="M490.24,729.38,387.91,875.63s-18.37,32.75,11.43,102.65c9.3,21.9,72.8,67,84.1,83.2,24,34.3,91.7,26.7,91.7,26.7l28.3-321.3"/><path class="baf83a46-1171-487f-9879-737392489a80" d="M418.9,1041.05,280.4,966s-28.1,80.7-23.4,130.7,112.4,73.4,112.4,73.4Z"/><path class="b7707559-b1ed-4098-81d9-7fd5dba9bc9d" d="M363.2,973.45s75.8-69.2,111-3c38.8,73.2,53.2,190.3,23.7,199.7s-41.1-6.2-41.1-6.2-79.6,17.2-87.4,6.2,19.3-61.8,19.3-61.8Z"/><path class="aa408862-1bbd-4b9c-bfde-689905e50aac" d="M399.7,900.75l-70.8,23.6-48.5,41.7,12.5,51,33,18.5,53.9,26,100.4-42.9C497.4,951.55,399.6,900.75,399.7,900.75Z"/><path class="b7707559-b1ed-4098-81d9-7fd5dba9bc9d" d="M596,707.08s-9.9,51.8-20.9,73.9-10,110.7-10,110.7,18.6,55.4,10,81.3,0,115.2,0,115.2c62.8,2,125.4.7,125.4.7l129.4-56.4c34.4-155.7-88.7-300.7-88.7-300.7Z"/><path class="b7707559-b1ed-4098-81d9-7fd5dba9bc9d" d="M662,577.68c-3.3,14.8-13.8,108-13.8,108s115.5,111,121.3,55.2-58.3-202.6-58.3-202.6S665.34,562.88,662,577.68Z"/><path class="aa408862-1bbd-4b9c-bfde-689905e50aac" d="M711.24,538.28s-27-19.7-66.4-25.8-83.7,28.3-83.7,28.3l45.8,36.9H662Z"/><path class="aa408862-1bbd-4b9c-bfde-689905e50aac" d="M650.14,760.08l-46.8-36.5,64,27.9,73.8-19.7L687,675.18s-43.1-11-65.2-8.6-131.6,62.7-131.6,62.7l84.9,51.7Z"/><polygon class="baf83a46-1171-487f-9879-737392489a80" points="801.24 535.08 881.94 922.48 989.24 926.98 1002.34 781.68 839.22 656.24 860.54 527.88 801.24 535.08"/><polygon class="baf83a46-1171-487f-9879-737392489a80" points="1156.38 870.56 1309.27 595.81 1184.31 553.05 1156.38 580.44 1156.38 870.56"/><path class="b7707559-b1ed-4098-81d9-7fd5dba9bc9d" d="M1300.65,577.34s-30.88,41.45-52.4,55.72c-8.63,5.76-33.65,31.13-33.65,31.13l-19.09,62.89s2.31,58.82-17.64,77.7c-7.25,6.86-14.81,22.33-21.49,39.25V982.37c36.18,22.42,79.7,40.26,79.7,40.26l105.18-29.8c26.31-32.57,114.16-183.45,114.16-183.45l12.1-137.84Z"/><path class="aa408862-1bbd-4b9c-bfde-689905e50aac" d="M1346.78,651.61l-5.43-15.8,65.85,47.57,60.23-11.88L1422.54,594s-48.08-31.3-75.83-40.06-162.49-.89-162.49-.89l83.06,65.48Z"/><polygon class="baf83a46-1171-487f-9879-737392489a80" points="1267.28 618.5 1211.6 603.2 1156.38 900.55 1156.38 985.99 1236.08 1022.63 1301.06 897.48 1316.25 714.63 1267.28 618.5"/><path class="b7707559-b1ed-4098-81d9-7fd5dba9bc9d" d="M1287.28,438.11s1,34.56,0,36.6-14.46,12.77-14.46,12.77l-1.62-36.77V445.6Z"/><path class="aa408862-1bbd-4b9c-bfde-689905e50aac" d="M1246.63,460.74s8.31-12.41,23.12-17.52,17.53-5.11,17.53-5.11l-14.46,9.2Z"/><path class="baf83a46-1171-487f-9879-737392489a80" d="M1178.37,490.2s76.06,2.38,89-15l1.7-21.11-21.79,11.24s-3.06-5.35,2-6.59,23.49-11.45,23.49-11.45,5.78,38.12,0,40.17-47,14.63-94.45,12.93Z"/><polygon class="bc590d4e-4a28-407f-a343-cd91a6b05200" points="1040.65 613.8 1018.86 441.98 1102.43 250.03 1141.13 259.05 1189.79 455.82 1160.13 604.92 1040.65 613.8"/><path class="b5ee2038-0dd6-4e90-8045-8127090fb35f" d="M909.67,250.54l17.27-.85s47.66,26.3,136.86-22.3l-42.57,34.89-81.55,2.3L915,259.05Z"/><polygon class="f7a59a87-52ee-4177-9ee2-d4d6a8adbc2e" points="1101.31 580.04 1082.16 561.3 1080.23 544.36 1107.26 556.31 1101.31 580.04"/><polygon class="ef4b2301-140a-4d4e-84df-21d1b637b862" points="1080.23 537.59 1090.23 536.62 1120.3 533.86 1138.57 423.65 1110.77 383.3 1072.72 429.14 1080.23 537.59"/><polygon class="a5cec813-955d-467d-93e4-a1dcbb7f4e08" points="1104.8 390.5 1105.05 535.26 1110.77 534.74 1113.39 387.11 1104.8 390.5"/><polygon class="b5ee2038-0dd6-4e90-8045-8127090fb35f" points="1080.23 537.59 1090.23 536.62 1101.85 544.13 1127.76 542.62 1120.3 533.86 1128.72 533.4 1141.31 546.15 1112.42 554.05 1088.62 550.18 1080.23 537.59"/><polygon class="b246f992-08f7-4711-991c-250d346774cc" points="912.31 606.45 1018.86 608.67 991.16 463.58 893.92 455.82 912.31 606.45"/><path class="a9e69894-afec-4dcf-9226-7e55b619f3cc" d="M939.28,284.75s110.64-14,139.58-28.68l-63.23,160.72L891.88,400.16l-11.83-11.69Z"/><path class="b5ee2038-0dd6-4e90-8045-8127090fb35f" d="M982.51,512.82,955.19,490s-3.29-3.11-10.07,3.23,31.53,28.33,31.53,28.33Z"/><path class="fabc1b7f-bb54-4b5b-b984-e523141ed37c" d="M974.77,517.41l7.74-4.59-1.69,47.63s-7.49,5-13.37,5.72S974.77,517.41,974.77,517.41Z"/><path class="f7a59a87-52ee-4177-9ee2-d4d6a8adbc2e" d="M975.91,519.82,973.11,561a5.54,5.54,0,0,1-5.73,5.17l-32.7-1.38a5.5,5.5,0,0,1-5.22-4.64l-6.44-42a7.2,7.2,0,0,1,2.25-6.45l19.85-18.51a5.23,5.23,0,0,1,7.16.1l21.49,20.83A7.4,7.4,0,0,1,975.91,519.82Z"/><path class="a7f56dcd-6d9c-45d2-8ab1-62c8ae1bcfbc" d="M969.49,523.91,967.28,553a4,4,0,0,1-4.3,3.64l-24.22-.91a3.94,3.94,0,0,1-3.84-3.27l-4.65-29.65a5,5,0,0,1,1.66-4.59l14.75-13.11a4,4,0,0,1,5.33.05l15.87,14.66A5.14,5.14,0,0,1,969.49,523.91Z"/><polygon class="f7a59a87-52ee-4177-9ee2-d4d6a8adbc2e" points="970.35 527.08 929.1 526.78 929.58 531.13 971.58 532.38 970.35 527.08"/><path class="a5cec813-955d-467d-93e4-a1dcbb7f4e08" d="M890.77,390.71s41.62-67.92,48.51-106l-5.64-1.05-53.59,107Z"/><path class="be0e3fc9-d783-4887-a7fe-c6c6d46ea10d" d="M887.63,384.67s40.22-65.56,46-101l-13.16-1.84s-34.73,86.13-49,102.81S887.63,384.67,887.63,384.67Z"/><path class="be0e3fc9-d783-4887-a7fe-c6c6d46ea10d" d="M1024,608.67l-17-2.22S995.71,491.56,989.92,475.9h24.85S1030.43,578.22,1024,608.67Z"/><path class="fabc1b7f-bb54-4b5b-b984-e523141ed37c" d="M1007,477s16.65,99.66,17,131.66h21.56s-5.9-127.32-13-142Z"/><path class="be0e3fc9-d783-4887-a7fe-c6c6d46ea10d" d="M1170.6,428.5s-23.82,110.61-19.5,164.89l12.26,1.67,17.46-141.54-7.82-16.6Z"/><path class="fabc1b7f-bb54-4b5b-b984-e523141ed37c" d="M1176.58,443.56s-23.25,94.62-22.06,151.4h14.37l21.64-131.48Z"/><path class="fabc1b7f-bb54-4b5b-b984-e523141ed37c" d="M904.05,460.16s13.36,117.87,14,144.76l-14-1.08L887.63,457.52Z"/><polygon class="be0e3fc9-d783-4887-a7fe-c6c6d46ea10d" points="1012.05 399.99 1077.07 259.05 1093.73 259.05 1033.84 435.05 1012.05 399.99"/><path class="be0e3fc9-d783-4887-a7fe-c6c6d46ea10d" d="M871.45,457.52s22.93,85.1,24.24,148.93h16.62s-11.92-129.19-18-145.53Z"/><path class="a5cec813-955d-467d-93e4-a1dcbb7f4e08" d="M1093.73,259.05l-63.64,160.34-9.42-15.86-11.4-12.63-2.29-1.81-60.93,3,17.32,65.44,48.68,20.42s18.89-2.72,25-17.7,76.09-189.53,76.09-189.53Z"/><path class="f7a59a87-52ee-4177-9ee2-d4d6a8adbc2e" d="M996.9,426.2s19.07,1.53,18-2.89-9.19-15.15-12.42-11.41-15.32,18.2-10,25,16.42,12.6,22.5,8.85,15.28-23,15.11-26.38-18.16-30.05-23.11-30.3c0,0,20.9,24.33,20.22,28.93s-9.53,23.84-13.11,24.18-16.17-.87-17.36-5.28S994.18,426.88,996.9,426.2Z"/><path class="f7a59a87-52ee-4177-9ee2-d4d6a8adbc2e" d="M1012.05,477.94,849.33,457.52s-38.13-43.24,5.1-75.92L1007,389.09s-33.06,5.11-36.8,26.56S966.43,457.86,1012.05,477.94Z"/><polygon class="f7a59a87-52ee-4177-9ee2-d4d6a8adbc2e" points="1210.69 383.25 1171.54 379.39 1183.88 408.07 1212.73 390.28 1210.69 383.25"/><path class="f7a59a87-52ee-4177-9ee2-d4d6a8adbc2e" d="M1202.38,460.41s-13.7,10.47-24-6.64-56.79-184.34-56.79-184.34l6.9-1.87,65.87,162.21Z"/><path class="a5cec813-955d-467d-93e4-a1dcbb7f4e08" d="M1128.48,267.56,1147.2,255l43.33,141.61s15.39-17.19,22.2-12.59,25.53,45.93,8.68,63-30.94,24.44-43-14.88S1128.48,267.56,1128.48,267.56Z"/><path class="f7a59a87-52ee-4177-9ee2-d4d6a8adbc2e" d="M1190.53,396.58s7.73,42.54,12.84,40.34,16.34-12.42,15.32-13.1-8.51-16.34-10.89-15-1.37,9.87-.69,11.57-3.66,9.45-6.89,4.43S1193.6,397.35,1190.53,396.58Z"/><path class="e40f4fd6-92a5-44c7-af1c-9841728a06d1" d="M985.79,301.16s-21.2,59.74-30.39,73.53c0,0,29.71-43.12,32.68-64.34S985.79,301.16,985.79,301.16Z"/><path class="f7a59a87-52ee-4177-9ee2-d4d6a8adbc2e" d="M1106.39,369.58s.33-.11,2.11.49a17.24,17.24,0,0,1,3.81,2.07l-6.88-.84Z"/><path class="f7a59a87-52ee-4177-9ee2-d4d6a8adbc2e" d="M1078.18,536.28l-13.12-109.76a6,6,0,0,1,1-4.12l35.09-50.27a6,6,0,0,1,10,.31l28.51,46.88a6,6,0,0,1,.82,3.89l-14.25,108.94-8.42.47,13.64-106.14a6,6,0,0,0-.84-4.12l-19-30.55a6,6,0,0,0-10-.2L1079,424.91a6,6,0,0,0-1,3.91l9.81,106.56-7.57,2.21Z"/><path class="e40f4fd6-92a5-44c7-af1c-9841728a06d1" d="M1015.26,296.3s-14.47,68.25-24.11,85.75c0,0,31.55-55.12,30-77.51S1015.26,296.3,1015.26,296.3Z"/><path class="e40f4fd6-92a5-44c7-af1c-9841728a06d1" d="M949.28,317.86s-15,42.17-21.45,51.91c0,0,21-30.44,23.07-45.42S949.28,317.86,949.28,317.86Z"/><path class="a5cec813-955d-467d-93e4-a1dcbb7f4e08" d="M1080.23,537.59,1067.5,427.76a6,6,0,0,1,1-4.11l35.09-50.28a6,6,0,0,1,10,.32l28.51,46.87a6,6,0,0,1,.83,3.89l-14.26,109-8.42.46,13.64-106.14a6,6,0,0,0-.83-4.11l-19-30.56a6,6,0,0,0-10-.19l-22.6,33.29a6,6,0,0,0-1,3.91l9.81,106.56Z"/><polygon class="a5cec813-955d-467d-93e4-a1dcbb7f4e08" points="1100.16 559.3 1101.31 580.04 1133.99 576.95 1135.91 556.72 1100.16 559.3"/><polygon class="be0e3fc9-d783-4887-a7fe-c6c6d46ea10d" points="1078.18 536.28 1079.34 545.84 1099.03 560.03 1102.58 553.09 1098.22 549.21 1078.18 536.28"/><polygon class="fabc1b7f-bb54-4b5b-b984-e523141ed37c" points="1098.22 549.21 1141.31 546.15 1140.02 557.61 1099.03 560.03 1098.22 549.21"/><path class="b41b0967-a9cd-4b0d-81a3-7ba7aad0b27e" d="M1129.59,522.72l-1.13-.26s-2.56-16-14.39-15.35c-18.56,1.42-14.86,17.68-14.86,17.68s-4.25-7-11.17-2.27c-5.64,3.58-3.52,10.38.44,14,0,0,6.57,8.92,24,9.45.23,0,.46,0,.69,0l3.09.12a23.79,23.79,0,0,0,7.06-.81h0a23.05,23.05,0,0,0,11.57-7.48.35.35,0,0,0,.09-.11,7.76,7.76,0,0,0,.67-1A9.65,9.65,0,0,0,1129.59,522.72Z"/><g class="fea0e8fd-24af-457e-8301-99733a7fd561"><path class="f51cac63-1b94-4c41-8e88-8921ebf74bd0" d="M1094.38,541.3s-9.16-11.57,0-11.51,10.12-3.08,10.53-8.58,15.73-11.78,23.55,1.25c0,0-.58-22.45-2.56-25.18s-39.63,2.94-39.84,4.51-17,24.13-16.34,24.83l14.89,16.4Z"/></g><path class="baf83a46-1171-487f-9879-737392489a80" d="M1645.43,1400.29l35.7-24.2s11.3,32.4,9.4,52.4-34,34.2-34,34.2Z"/><path class="b7707559-b1ed-4098-81d9-7fd5dba9bc9d" d="M1647.83,1379.09s-31.3-7.6-47,18.1-12.6,38.9-.7,42.6,21.4,24.3,21.4,24.3,32.6,3.4,35-1.4c17-33.7-3.6-56.8-3.6-56.8Z"/><path class="aa408862-1bbd-4b9c-bfde-689905e50aac" d="M1650.43,1364.49l30.7,11.4-5,20.5-23.9-.8-36.2,23-15.1-21.5C1594,1370.19,1650.43,1364.59,1650.43,1364.49Z"/><polygon class="ef4b2301-140a-4d4e-84df-21d1b637b862" points="1679.83 1228.99 1644.53 1334.99 1411.73 1419.09 1227.13 1409.19 1070.13 1428.79 968.03 1353.69 1005.73 1313.09 1443.13 1173.99 1727.61 1173.99 1679.83 1228.99"/><path class="a5cec813-955d-467d-93e4-a1dcbb7f4e08" d="M772.73,1152c-15.5-49.1-358.1,85.3-358.1,85.3l2,47.1,358.3-91.5C807.33,1184.59,772.73,1152,772.73,1152Z"/><path class="be0e3fc9-d783-4887-a7fe-c6c6d46ea10d" d="M987.73,1284.39c-2-25.7-215-132.4-215-132.4l2.2,40.9,216,133.3Z"/><path class="a5cec813-955d-467d-93e4-a1dcbb7f4e08" d="M987.73,1284.49l3.2,41.7,525.5-152.1,6.7-50.3C1311.83,1111.19,987.73,1284.49,987.73,1284.49Z"/><path class="baf83a46-1171-487f-9879-737392489a80" d="M1347.63,985.89l-61.7-41.9s-19.5,55.9-16.2,90.6,78,50.9,78,50.9Z"/><path class="b7707559-b1ed-4098-81d9-7fd5dba9bc9d" d="M1343.33,949.09s54.1-13.1,81.2,31.3,21.6,67.1,1.2,73.6-17.4,27.1-17.4,27.1-55.2,12-60.6,4.4-13-89.9-13-89.9Z"/><path class="aa408862-1bbd-4b9c-bfde-689905e50aac" d="M1355.33,890.59l-69.3,53.2,8.7,35.4,40.7,22.8,40.5-30.3,48.7,8.7C1436.53,933.89,1355.33,890.59,1355.33,890.59Z"/><path class="baf83a46-1171-487f-9879-737392489a80" d="M1442.33,1314.09l67.6-4-16.8,195s-50.5-9.5-66.6-26.5c-7.6-8-9-30.6-15.3-41.4-20-34.6,19.9-59.1,19.9-59.1l.3-38.8,10.9-25.2"/><path class="b7707559-b1ed-4098-81d9-7fd5dba9bc9d" d="M1502.23,1302.89s-6.6,25.6-14,36.6c-3,4.4-9.9,21.3-9.9,21.3l3.2,33.6s12.5,27.4,6.7,40.3,0,57.1,0,57.1c-39.7,35,70,35,70,35l44.1-34.6c6.2-20.6,18.5-109.2,18.5-109.2l-21.1-67.7Z"/><path class="aa408862-1bbd-4b9c-bfde-689905e50aac" d="M1538.73,1329.29l-7.5,22,46.6-13.6,22-22.4-36.4-28.1s-28.9-5.6-43.8-4.3-77.3,31.2-77.3,31.2l52.1,14.9Z"/><path class="b7707559-b1ed-4098-81d9-7fd5dba9bc9d" d="M1671.23,1125.89c-14.7,39.4-2,60.7-2,60.7s51.2,4.7,61.8-17.6c17.6-37.1.5-73.32.5-73.32S1685.93,1086.49,1671.23,1125.89Z"/><path class="baf83a46-1171-487f-9879-737392489a80" d="M1669.23,1200.49l2-60.7c23-90.2-61.5-54.1-61.5-54.1l-53.4,88.3h16.4l7.7,3.9,74.8,24Z"/><path class="aa408862-1bbd-4b9c-bfde-689905e50aac" d="M1633.24,1131.11l-23.41-45.5s29.06-39.13,53.71-41.7,61.22,39.13,68,51.76-58.54,45.5-58.54,45.5Z"/><polygon class="b5ee2038-0dd6-4e90-8045-8127090fb35f" points="1157.13 921.99 229.13 1123.79 414.63 1237.29 772.73 1151.99 987.73 1284.39 1523.13 1123.79 1287.03 1025.79 1157.13 921.99"/><path class="baf83a46-1171-487f-9879-737392489a80" d="M1187.13,1152.09l-37.5-57.5-65.2-22.7,3.1,54.8,44.3,25.3,51.3,28.2C1193.53,1173.59,1187,1152,1187.13,1152.09Z"/><path class="b7707559-b1ed-4098-81d9-7fd5dba9bc9d" d="M1178.33,1146.89c-37.6.3-2.2,7.2,0,11.2s4.7,22.1,4.7,22.1,125.5-31.7,134.3-37.6,0-18.8,0-18.8S1215.93,1146.59,1178.33,1146.89Z"/><path class="b7707559-b1ed-4098-81d9-7fd5dba9bc9d" d="M1212.93,1071.09l-76,29.2v28.2l12.2,3.1,104.6-38.7c1.9-16.3-7.2-21.8-7.2-21.8Z"/><path class="aa408862-1bbd-4b9c-bfde-689905e50aac" d="M1136.83,1128.49s18.5,12.8,26.6,19.7,18.4,0,18.4,0,6.6,4.3,7.3,6.3,15.8,2,27,0,21.7-5.2,35.3-10.3,15-6.2,27.4-7.5,38.5-12.9,38.5-12.9l-63.6-30.9Z"/><path class="aa408862-1bbd-4b9c-bfde-689905e50aac" d="M1090.33,1085.29s26.4,17.2,29.2,19.6,28.7-2.2,31.2-3.1,22.6-5.9,22.6-5.9l41.6-13.2v-6.9l15.8,5.7,19.5-6.7-53.5-37.5Z"/><path class="b246f992-08f7-4711-991c-250d346774cc" d="M999.33,849.79l-204.2-49c13.1,19,36.8,192.2,36.8,192.2l159,97.3Z"/><path class="be0e3fc9-d783-4887-a7fe-c6c6d46ea10d" d="M833.63,822.09c3.5,6.6,31.3,192.2,31.3,192.2l-33-21.3c-12.5-72.6-36.8-174.7-36.8-174.7S830.13,815.49,833.63,822.09Z"/><polygon class="bc590d4e-4a28-407f-a343-cd91a6b05200" points="1282.13 904.59 1294.63 784.89 1013.13 834.59 1039.03 1099.19 1085.13 1086.09 1084.83 1079.79 1246.13 1040.39 1282.13 904.59"/><polygon class="be0e3fc9-d783-4887-a7fe-c6c6d46ea10d" points="1294.63 811.29 1270.73 811.29 1235.63 1031.19 1246.13 1040.39 1294.63 811.29"/><path class="be0e3fc9-d783-4887-a7fe-c6c6d46ea10d" d="M997.73,865.49l-34.1,4.9c15.7,24.9,27.3,219.9,27.3,219.9l20.9,16.8Z"/><polygon class="fabc1b7f-bb54-4b5b-b984-e523141ed37c" points="1288.73 801.29 1246.13 1040.39 1287.03 1025.79 1333.73 801.29 1288.73 801.29"/><polygon class="fabc1b7f-bb54-4b5b-b984-e523141ed37c" points="978.73 864.39 1011.83 1107.09 1047.53 1096.79 1036.73 857.29 978.73 864.39"/><polygon class="fc0529b7-af8c-4e05-9a20-d59919f566f0" points="1341.23 753.29 1277.83 811.29 1013.43 818.29 959.83 792.69 996.63 735.39 1090.93 638.49 1179.23 604.29 1264.23 655.79 1337.43 753.29 1341.23 753.29"/><path class="a9e69894-afec-4dcf-9226-7e55b619f3cc" d="M1333,747.59c4.5-3.5-19-29.5-32-48.5s-44.4-58.6-47.1-61.8-54.7-21.7-81.8-22.2-66.7,18.9-77.6,26.9-76.8,74-80,77.7-39.5,76.3-39,78.5,22.2,6.5,30.3-2.3,78.5-115.7,119.8-139,78.9-18.4,113.6,7.6c20.5,15.3,65.1,96.4,65.1,96.4S1328.53,751.09,1333,747.59Z"/><path class="a9e69894-afec-4dcf-9226-7e55b619f3cc" d="M1034,696.09l-106.3,116.5s-219.6-28.2-177.3-64.9,40.2-49.2,70.1-99.1,95.3-48.4,95.3-48.4h0a843.82,843.82,0,0,0,175.5-.3l3.2-.3Z"/><path class="b5ee2038-0dd6-4e90-8045-8127090fb35f" d="M1126.13,625.59c-33.4,6.5-115,85.7-136.4,148.5s-98.5,26.5-90.1,29.1,68.4-66.9,91.2-104.6,68.8-90.1,103.7-99c62.7-16.1,116.3,1.6,116.3,1.6S1159.53,619.09,1126.13,625.59Z"/><polygon class="be0e3fc9-d783-4887-a7fe-c6c6d46ea10d" points="919.73 822.09 725.23 753.29 750.53 747.69 927.83 803.19 919.73 822.09"/><polygon class="f7a59a87-52ee-4177-9ee2-d4d6a8adbc2e" points="910.41 871.23 725.23 795.89 725.23 753.29 915.93 814.29 910.41 871.23"/><path class="a5cec813-955d-467d-93e4-a1dcbb7f4e08" d="M1328.73,753.29c-30.3,3.6-59.2-118.4-132.2-127.1s-93.3,27.4-117.2,46.2-88.4,123.5-88.4,123.5h-37c34.8-13.7,51.7-110.9,141.8-171.9,88.5-59.9,163.6-12.9,196.1,47s64.7,74,64.7,74S1359,749.69,1328.73,753.29Z"/><polygon class="a5cec813-955d-467d-93e4-a1dcbb7f4e08" points="1242.43 954.89 1239.13 1078.59 1250.23 1074.79 1253.03 961.59 1242.43 954.89"/><polygon class="be0e3fc9-d783-4887-a7fe-c6c6d46ea10d" points="1236.33 953.89 1235.23 1074.79 1239.13 1078.59 1242.43 954.89 1236.33 953.89"/><path class="be0e3fc9-d783-4887-a7fe-c6c6d46ea10d" d="M1204.63,934.79l1.1,17.4,48.8,31.6.9-22.2C1252.63,953.49,1204.53,934.89,1204.63,934.79Z"/><polygon class="b5ee2038-0dd6-4e90-8045-8127090fb35f" points="1219.73 932.09 1204.53 934.89 1254.43 960.09 1274.03 957.09 1265.53 952.19 1219.73 932.09"/><polygon class="a5cec813-955d-467d-93e4-a1dcbb7f4e08" points="1254.43 960.09 1254.43 983.79 1272.93 979.59 1274.03 957.09 1254.43 960.09"/><path class="e40f4fd6-92a5-44c7-af1c-9841728a06d1" d="M1229.53,900.89c-15.3-13.4-60.7-20.9-61.8-17.5l-72,65,2.6,134,116.2-32.8,8.6-132.8C1223.13,911.59,1234.63,905.29,1229.53,900.89Z"/><path class="a9e69894-afec-4dcf-9226-7e55b619f3cc" d="M1196.53,896.89c-15.2-9.2-91.5,53.6-91.5,53.6v117.7l101.8-27.8,10.2-124.2S1211.73,906.09,1196.53,896.89Z"/><g class="aa203d89-0b7c-47b5-9558-aa00b4c7630a"><polygon class="e40f4fd6-92a5-44c7-af1c-9841728a06d1" points="1198.73 923.39 1193.43 1037.79 1200.83 1036.59 1210.63 923.39 1198.73 923.39"/><polygon class="e40f4fd6-92a5-44c7-af1c-9841728a06d1" points="1189.53 1039.69 1181.93 1040.99 1184.63 923.39 1191.63 919.59 1192.53 919.09 1189.53 1039.69"/><polygon class="e40f4fd6-92a5-44c7-af1c-9841728a06d1" points="1165.23 930.29 1165.13 952.09 1146.73 955.89 1142.33 941.29 1114.23 943.09 1114.23 1056.09 1127.33 1052.39 1123.93 968.39 1129.33 964.09 1138.83 1048.79 1161.03 1044.19 1151.63 971.59 1164.03 967.89 1167.73 1042.49 1176.23 1040.99 1176.23 930.29 1165.23 930.29"/></g><polygon class="a5cec813-955d-467d-93e4-a1dcbb7f4e08" points="1119.63 947.99 1119.63 1103.49 1131.83 1099.19 1131.83 959.39 1119.63 947.99"/><polygon class="be0e3fc9-d783-4887-a7fe-c6c6d46ea10d" points="1112.33 947.99 1113.33 1097.49 1119.63 1103.49 1119.63 953.39 1112.33 947.99"/><polygon class="a5cec813-955d-467d-93e4-a1dcbb7f4e08" points="1085.83 970.49 1090.33 1085.29 1100.53 1081.79 1097.83 970.49 1085.83 970.49"/><polygon class="be0e3fc9-d783-4887-a7fe-c6c6d46ea10d" points="1078.83 970.99 1085.03 1082.89 1090.33 1085.29 1085.93 970.99 1078.83 970.99"/><path class="f7a59a87-52ee-4177-9ee2-d4d6a8adbc2e" d="M1251.43,931.69c-1.1-3.6-6.5-15.2-15.9-24.2s-12.6,5.8-12.6,5.8l-.9,27.4,32,15.2S1252.53,935.29,1251.43,931.69Z"/><path class="b5ee2038-0dd6-4e90-8045-8127090fb35f" d="M1137.53,963.49l14.1-25.7,13.5-11.5,31.4-29.4-48.8-19.5c-56.4,18.9-59.6,78.5-59.6,78.5l39.2,22.8Z"/><path class="a5cec813-955d-467d-93e4-a1dcbb7f4e08" d="M1224.73,896.89c11.5-.2,23,11,23,11v11.2l3-7.5c7.3,5.5,11.6,18,11.6,18l-5.4,8.2,6.1-4c2.9,4.2,5.1,20,5.1,20L1254,956s-2.5-7.6-4.7-22.4-21.9-22-21.9-22C1224.33,893.19,1224.73,896.89,1224.73,896.89Z"/><path class="be0e3fc9-d783-4887-a7fe-c6c6d46ea10d" d="M990.93,846l-38.5-30.6-52.7-12.3c10.6,17.1,2.6,63.8,2.6,63.8l6,3.4a21.42,21.42,0,0,0,6,2.1c9,1.7,27.6,10.9,27.6,10.9Z"/><path class="be0e3fc9-d783-4887-a7fe-c6c6d46ea10d" d="M1071,959.19l1.3,19.5,55,35.6,1.1-25C1125.33,980.09,1071,959.09,1071,959.19Z"/><polygon class="b5ee2038-0dd6-4e90-8045-8127090fb35f" points="1088.23 955.89 1070.13 958.59 1128.43 989.29 1149.33 984.19 1139.83 978.69 1088.23 955.89"/><path class="b5ee2038-0dd6-4e90-8045-8127090fb35f" d="M1403.53,753.39l-42.3-11.6-13.9,1.8-447.7,59.6,32.5,10.8C974.13,819.09,1403.43,753.29,1403.53,753.39Z"/><path class="a5cec813-955d-467d-93e4-a1dcbb7f4e08" d="M1403.53,753.29V762l-23.3,14.1h23.3v26l-461.6,81.2,4.3-27.1,32.5-10.8h-33.6c4.3-10.8-13-31.4-13-31.4Z"/><path class="a5cec813-955d-467d-93e4-a1dcbb7f4e08" d="M1204.53,889l2.3,30.3,20.3-2.9.7-12.7V901c-.2-3.4,1.8-12.2,1.8-12.2Z"/><path class="be0e3fc9-d783-4887-a7fe-c6c6d46ea10d" d="M1145.53,860.59l2.2,16.8,42.3,19.5v16.2l16.8,6V892C1206.83,884.39,1145.63,860.59,1145.53,860.59Z"/><polygon class="b5ee2038-0dd6-4e90-8045-8127090fb35f" points="1167.83 857.29 1145.63 860.59 1206.83 891.99 1229.63 888.79 1167.83 857.29"/><path class="a5cec813-955d-467d-93e4-a1dcbb7f4e08" d="M1190,897.09l-17,7-5.2,10.8V908l-11.7,5.2,1.1,8.8-5.6-2.9-6,4.7-12.6,22.1-4,12.9,3.2,4-4.9,1.8v14h12.5c7.6-48,50.2-65.5,50.2-65.5C1195.73,910.29,1190.13,896.89,1190,897.09Z"/><polygon class="a5cec813-955d-467d-93e4-a1dcbb7f4e08" points="1127.33 987.59 1127.33 1014.29 1148.13 1009.59 1149.33 984.19 1127.33 987.59"/><path class="fabc1b7f-bb54-4b5b-b984-e523141ed37c" d="M860.73,1011.49c-1.1-32.9-26.2-171.2-26.2-171.2l15.9,6.5c6.6,19.1,21.6,173.3,21.6,173.3Z"/><path class="e40f4fd6-92a5-44c7-af1c-9841728a06d1" d="M866.33,667.89c-16.3,42.1-59.6,63.9-59.6,63.9s40-39.7,55.7-80.2c12.6-32.4,60.7-33.5,60.7-33.5C895.43,620.29,874.33,647.39,866.33,667.89Z"/><path class="e40f4fd6-92a5-44c7-af1c-9841728a06d1" d="M919,668.69c-21.2,52.3-62,55.8-62,55.8,12.4,0,42.6-26.7,55.8-68.2,7.7-24.4,62-31,62-31C962.43,625.29,926.43,650.59,919,668.69Z"/><path class="e40f4fd6-92a5-44c7-af1c-9841728a06d1" d="M977.43,660.59c-17.3,42.6-50.5,45.4-50.5,45.4,10.1,0,34.7-21.7,45.4-55.5,6.3-19.8,50.5-25.2,50.5-25.2C1012.73,625.29,983.43,645.89,977.43,660.59Z"/><path class="be0e3fc9-d783-4887-a7fe-c6c6d46ea10d" d="M422.53,1224.59c16.7,10.2-5.9,59.8-5.9,59.8l-176.3-104.2-11.2-56.4S405.83,1214.39,422.53,1224.59Z"/><path class="b5ee2038-0dd6-4e90-8045-8127090fb35f" d="M1128.63,688.89s54.2-37.1,43.4-45.7-15.3-3.6-15.3-3.6l-37.8,37.1Z"/><path class="be0e3fc9-d783-4887-a7fe-c6c6d46ea10d" d="M1147.53,754c-8.8-.4-20.5-6.9-20.5-6.9l-8.1-70.4,12,5.9S1156.33,754.39,1147.53,754Z"/><path class="a5cec813-955d-467d-93e4-a1dcbb7f4e08" d="M1132,677.59l29.4-33.4a7.78,7.78,0,0,1,10.6-1l31.6,25.1a10.76,10.76,0,0,1,4.1,9.3l-4.6,63a8.2,8.2,0,0,1-7.2,7.5l-48.3,5.9a8.25,8.25,0,0,1-9.1-7l-9-60.7A11,11,0,0,1,1132,677.59Z"/><path class="ef4b2301-140a-4d4e-84df-21d1b637b862" d="M1141.43,685.39l21.8-23.6a6,6,0,0,1,7.9-.7l23.4,17.7a7.46,7.46,0,0,1,3,6.6l-3.4,44.5a5.87,5.87,0,0,1-5.3,5.3l-35.8,4.2a6,6,0,0,1-6.8-4.9l-6.7-42.9A7.64,7.64,0,0,1,1141.43,685.39Z"/><path class="be0e3fc9-d783-4887-a7fe-c6c6d46ea10d" d="M764.33,1044.09c-37.8,10.1-452.6,97.1-452.6,97.1l522.8-121.1A605,605,0,0,1,764.33,1044.09Z"/><path class="be0e3fc9-d783-4887-a7fe-c6c6d46ea10d" d="M613.53,1126c-28,8.9-239.1,54.2-239.1,54.2l507.4-135.7S641.53,1117.09,613.53,1126Z"/><path class="be0e3fc9-d783-4887-a7fe-c6c6d46ea10d" d="M764.23,1126.69l172.4-54.9C920.93,1093.59,764.23,1126.69,764.23,1126.69Z"/><path class="be0e3fc9-d783-4887-a7fe-c6c6d46ea10d" d="M795.63,1159l172.4-54.9C952.33,1125.89,795.63,1159,795.63,1159Z"/><path class="be0e3fc9-d783-4887-a7fe-c6c6d46ea10d" d="M850.33,1201.49l172.4-54.9C1007.13,1168.39,850.43,1201.49,850.33,1201.49Z"/><path class="be0e3fc9-d783-4887-a7fe-c6c6d46ea10d" d="M949.33,1229l172.3-54.9C1105.93,1195.89,949.33,1229,949.33,1229Z"/><path class="be0e3fc9-d783-4887-a7fe-c6c6d46ea10d" d="M1338.23,1137.19l103.9-33.1C1432.63,1117.29,1338.23,1137.19,1338.23,1137.19Z"/><path class="be0e3fc9-d783-4887-a7fe-c6c6d46ea10d" d="M1288,1100.79l76.8-24.5C1357.83,1086,1288,1100.79,1288,1100.79Z"/><polygon class="ff275c99-69d0-4432-a9e0-a206f8b3d26e" points="1364.33 1239.09 1258.73 1269.39 1253.53 1242.59 1360.03 1208.79 1364.33 1239.09"/><polygon class="ff275c99-69d0-4432-a9e0-a206f8b3d26e" points="1371.83 1287.89 1274.03 1320.39 1269.43 1300.79 1371.83 1269.39 1371.83 1287.89"/><polygon class="ff275c99-69d0-4432-a9e0-a206f8b3d26e" points="1375.33 1334.29 1284.63 1361.79 1282.63 1344.89 1372.23 1318.39 1375.33 1334.29"/><polygon class="ff275c99-69d0-4432-a9e0-a206f8b3d26e" points="1382.43 1380.69 1291.73 1408.19 1289.83 1391.29 1379.43 1364.89 1382.43 1380.69"/><g class="b4dc1f1e-dedc-4a64-b576-43abce0383be"><path class="ff275c99-69d0-4432-a9e0-a206f8b3d26e" d="M1338.23,1170.19l31.1-3,29.6,256.5c-5.7,9.1-17.5,2.7-17.5,2.7Z"/><path class="f7a59a87-52ee-4177-9ee2-d4d6a8adbc2e" d="M1220,1194.59l33.7-6.6,55.2,251.6c-5.2,10.6-18.8,4.8-18.8,4.8Z"/></g><polygon class="ff275c99-69d0-4432-a9e0-a206f8b3d26e" points="1393.83 1379.89 1369.33 1167.29 1338.23 1170.29 1373.53 1379.89 1393.83 1379.89"/><polygon class="ff275c99-69d0-4432-a9e0-a206f8b3d26e" points="1295.83 1379.89 1253.73 1187.99 1220.03 1194.59 1272.03 1379.89 1295.83 1379.89"/><ellipse class="bc590d4e-4a28-407f-a343-cd91a6b05200" cx="1353.8" cy="1168.69" rx="15.6" ry="8.1" transform="translate(-106.14 135.64) rotate(-5.52)"/><ellipse class="bc590d4e-4a28-407f-a343-cd91a6b05200" cx="1236.83" cy="1191.28" rx="17.2" ry="8.9" transform="translate(-205.42 259.18) rotate(-11.05)"/><path class="b7707559-b1ed-4098-81d9-7fd5dba9bc9d" d="M1244.33,1398.79c-3.3,14.8-15.9,156.7-15.9,156.7l55.4,11.8,45.5-33.7-35.7-174.1S1247.63,1384,1244.33,1398.79Z"/><path class="baf83a46-1171-487f-9879-737392489a80" d="M1395.73,1467.29l-56.4-38.3s-17.7,51.1-14.8,82.8,71.2,46.5,71.2,46.5Z"/><path class="b7707559-b1ed-4098-81d9-7fd5dba9bc9d" d="M1391.73,1433.59s49.5-12,74.2,28.6,19.8,61.4,1.1,67.3-15.9,24.7-15.9,24.7-50.4,10.9-55.4,4-11.9-82.1-11.9-82.1Z"/><path class="aa408862-1bbd-4b9c-bfde-689905e50aac" d="M1359.93,1401.19l-20.6,27.9,7.9,32.3,37.2,20.8,37-27.8,44.5,7.9C1482.83,1410.89,1359.93,1401,1359.93,1401.19Z"/><path class="baf83a46-1171-487f-9879-737392489a80" d="M1143.63,1361.89c-15.1,10-38.8,83.7-38.8,83.7l7.4,51.2c8.2,27.9,39.5,47.6,68.2,51.8l48.1,7,21.6-55-5.7-101.7C1259.13,1340.59,1158.73,1351.89,1143.63,1361.89Z"/><path class="baf83a46-1171-487f-9879-737392489a80" d="M1024.73,1390.39l-138.5-75.1s-28.1,80.7-23.4,130.7,112.4,73.4,112.4,73.4Z"/><path class="b7707559-b1ed-4098-81d9-7fd5dba9bc9d" d="M995.83,1370.69s48.9-117.1,84.1-50.9c38.9,73.1,53.3,190.2,23.8,199.6s-41.1-6.2-41.1-6.2-79.6,17.1-87.4,6.2-59-117.6-59-117.6Z"/><path class="aa408862-1bbd-4b9c-bfde-689905e50aac" d="M1005.53,1249.89l-70.8,23.6-48.5,41.7,58.8,63.5-28.8,23,69.5,9,100.4-42.8C1103.33,1300.79,1005.53,1250,1005.53,1249.89Z"/><path class="aa408862-1bbd-4b9c-bfde-689905e50aac" d="M1293.63,1359.49s-27-19.7-66.4-25.8-83.7,28.3-83.7,28.3l45.8,36.9h55.1Z"/><path class="baf83a46-1171-487f-9879-737392489a80" d="M1334.33,1601.29v-57.6l35.7-24.2s11.3,32.4,9.4,52.4-45.1,29.4-45.1,29.4Z"/><path class="b7707559-b1ed-4098-81d9-7fd5dba9bc9d" d="M1336.83,1522.49s-31.3-7.6-47,18.1-12.6,38.8-.7,42.6,10.1,15.7,10.1,15.7,32,6.9,35.1,2.5,7.5-52,7.5-52Z"/><path class="aa408862-1bbd-4b9c-bfde-689905e50aac" d="M1329.83,1488.59l40.1,30.9-5,20.5-23.5,13.2-23.4-17.6-28.2,5C1283,1513.69,1329.93,1488.59,1329.83,1488.59Z"/><polygon class="a5cec813-955d-467d-93e4-a1dcbb7f4e08" points="1137.43 704.39 1199.53 697.59 1199.73 691.09 1138.63 696.39 1137.43 704.39"/><path class="fa496cf4-fc94-4834-bb26-dc9b8fd66bb3" d="M1209.13,1571.19c-3.2-23.5,1-46.6,1-46.6-11.1,4.7-14,24.7-14,24.7-10.4-3.1,2-60.6,2-60.6a53.55,53.55,0,0,0-17.4,32.7,44.47,44.47,0,0,1-5.4,16.1l-7.8,14.1c9-19.5-13-39.1-13-39.1-2.3,7.6,13.6,25.1-9.2,48.3C1136.83,1574.29,1213.33,1601.19,1209.13,1571.19Z"/><path class="fa496cf4-fc94-4834-bb26-dc9b8fd66bb3" d="M617.73,1236c-17.6-15.8-7.9-50.7-5.8-57.4.1-.1.1-.2.2-.2s.3.1.3.2c2.6,35.9,25.8,55.3,25.8,55.3S633.83,1250.49,617.73,1236Z"/><path class="fa496cf4-fc94-4834-bb26-dc9b8fd66bb3" d="M616.73,1254.79c-20.7-9.9-21.1-44.9-21-51.6,0-.1,0-.2.1-.2a.19.19,0,0,1,.3.1c12.1,32.5,38.9,44.2,38.9,44.2S635.53,1263.89,616.73,1254.79Z"/><path class="fa496cf4-fc94-4834-bb26-dc9b8fd66bb3" d="M575.13,1257.39c-10.2-13.9,1.8-37.4,4.2-41.8.1-.1.1-.1.2-.1s.1.1.1.2c-3.3,25.9,10.4,43.1,10.4,43.1S584.53,1270,575.13,1257.39Z"/><path class="fa496cf4-fc94-4834-bb26-dc9b8fd66bb3" d="M1576.83,1528.49c13.6-15.5.3-52.4.3-52.4s-15.8,50.2-25,44.2-7.9-57.4-7.9-57.4c-14.3,7.6-21.2,70.6-21.2,70.6S1563.23,1544,1576.83,1528.49Z"/><path class="fa496cf4-fc94-4834-bb26-dc9b8fd66bb3" d="M1519.73,1533.49c-14.1-13.1-14-45.4-14-45.4,7.4,15.9,31.2,39.2,31.2,39.2S1533.83,1546.59,1519.73,1533.49Z"/><path class="baf83a46-1171-487f-9879-737392489a80" d="M791.31,1202l38.57-19.29s6.94,33.6,2.42,53.18-38.2,29.43-38.2,29.43Z"/><path class="b7707559-b1ed-4098-81d9-7fd5dba9bc9d" d="M796.47,1181.33s-30-11.65-49,11.76-17.61,36.91-6.3,42.14,18,26.9,18,26.9,31.87,7.66,34.88,3.22c21.29-31.17,3.9-56.78,3.9-56.78Z"/><path class="f7a59a87-52ee-4177-9ee2-d4d6a8adbc2e" d="M1070.52,242.62l-6.72-15.23s-81.2,56.85-154.13,23.15a46.41,46.41,0,0,0-.82,7.52c5.34,3.52,12.63,7.39,18.43,7.1a114,114,0,0,1-18.23-.16,46.85,46.85,0,0,0,.87,5.6c3.51,1.69,8.1,3.45,11.78,3.31a107.41,107.41,0,0,1-10.9,0,35.12,35.12,0,0,0,3.55,7.94s53.1,19.4,162.72-22.81Z"/><path class="aa408862-1bbd-4b9c-bfde-689905e50aac" d="M801,1167.2l28.93,15.34-7.65,19.66-23.59-3.93-38.91,18L747.61,1193C744.31,1165.43,801,1167.3,801,1167.2Z"/><path class="baf83a46-1171-487f-9879-737392489a80" d="M713.8,956.87l68.1-28.1s6.71,72.93-18.93,103.29c-22.15,26.22-52.23,33-52.23,33Z"/><path class="b7707559-b1ed-4098-81d9-7fd5dba9bc9d" d="M725.16,922.25s-49.72-23.57-84.88,14-39.11,89.11-18.27,93.43c26.13,5.41,29.7,25.64,29.7,25.64s53.35,17,59,9.8c40.11-50.48,13.66-96.26,13.66-96.26Z"/><path class="aa408862-1bbd-4b9c-bfde-689905e50aac" d="M734.57,898.73,782,928.44,766.5,961l-33.78,38.43-74.44-22.13-17.8-41.19C638.26,888.71,734.54,898.89,734.57,898.73Z"/><path class="baf83a46-1171-487f-9879-737392489a80" d="M809.33,1000.83l36.14-30.09s18,43.16,8.13,66.54a68,68,0,0,1-25.53,30.07Z"/><path class="b7707559-b1ed-4098-81d9-7fd5dba9bc9d" d="M809.66,977.57s-34.78-4.89-49.06,24.68-12.35,51.81,2.93,55.85c16.46,4.35,35.83,8.77,35.83,8.77s26.62,5.94,28.71.48c2.52-15.44,7.35-32.46,7.35-32.46Z"/><path class="aa408862-1bbd-4b9c-bfde-689905e50aac" d="M809.33,970.74l36.12-.22-3.22,22.78-26.81,3.82-4.18,12.32a19.07,19.07,0,0,1-29.81,8.9l-20.73-16.21C752.87,979.21,795.92,968.47,809.33,970.74Z"/><path class="fa496cf4-fc94-4834-bb26-dc9b8fd66bb3" d="M737,1222.73c11.8-19.7-7.1-49.1-10.9-54.7,0-.1-.1-.1-.2-.1s-.2.2-.2.3c7.8,33.8-8.1,58.3-8.1,58.3S726.33,1240.63,737,1222.73Z"/><path class="fa496cf4-fc94-4834-bb26-dc9b8fd66bb3" d="M718.13,1243.23c11.8-19.6-7.1-49-10.9-54.6,0-.1-.1-.1-.2-.1a.37.37,0,0,0-.1.3c7.8,33.8-8.1,58.3-8.1,58.3S707.53,1261.23,718.13,1243.23Z"/><ellipse class="f7cc4f48-635f-488a-8e4e-d87dfd684271" cx="1238.22" cy="590" rx="26.4" ry="42.73"/><path class="bf68cce1-cf73-4de9-b0d7-d84cd3ef15ae" d="M1238.22,542.81c8.23,0,14.89-6,14.89-13.33s-6.66-13.32-14.89-13.32-14.89,6-14.89,13.32S1230,542.81,1238.22,542.81Zm0-21.11c4.81,0,8.7,3.48,8.7,7.78s-3.89,7.79-8.7,7.79-8.7-3.49-8.7-7.79S1233.42,521.7,1238.22,521.7Z"/><path class="ea04177d-d968-4986-a7b1-cbd80a28d5c6" d="M1269.09,620.41l-3.65-4.75a59.62,59.62,0,0,0-55.83,0l-2.26,4.75Z"/><path class="bf68cce1-cf73-4de9-b0d7-d84cd3ef15ae" d="M1234.62,635.37h5.3a25,25,0,0,0,17.62-7.4c3.88-3.85,8-6.94,11.55-7.56,0,0-31.57-17.59-61.74,0,0,0,4.87,3.55,10.62,8.64A25.14,25.14,0,0,0,1234.62,635.37Z"/><path class="ea04177d-d968-4986-a7b1-cbd80a28d5c6" d="M1219.13,551.71l21.43-4.44s11.75,7.52,16.75,4.44c0,0-16.65,13-38.18,0"/><path class="bf68cce1-cf73-4de9-b0d7-d84cd3ef15ae" d="M1242.54,539.82h-10a60.79,60.79,0,0,1-13.46,11.89,77.45,77.45,0,0,0,38.18,0C1250.12,551.5,1245.46,545.77,1242.54,539.82Z"/><ellipse class="af92181a-ad4b-4769-b4a8-6ba9db8bfe07" cx="1227.37" cy="587.15" rx="8.49" ry="16.86"/><ellipse class="bf68cce1-cf73-4de9-b0d7-d84cd3ef15ae" cx="1238.22" cy="640.32" rx="23.59" ry="6.38"/><ellipse class="f7cc4f48-635f-488a-8e4e-d87dfd684271" cx="948.4" cy="980.16" rx="17.85" ry="28.89"/><path class="bf68cce1-cf73-4de9-b0d7-d84cd3ef15ae" d="M948.4,948.26c5.56,0,10.07-4,10.07-9s-4.51-9-10.07-9-10.07,4-10.07,9S942.84,948.26,948.4,948.26Zm0-14.28c3.25,0,5.88,2.36,5.88,5.27s-2.63,5.26-5.88,5.26-5.88-2.36-5.88-5.26S945.15,934,948.4,934Z"/><path class="ea04177d-d968-4986-a7b1-cbd80a28d5c6" d="M969.27,1000.72l-2.47-3.21a40.34,40.34,0,0,0-37.75,0l-1.52,3.21Z"/><path class="bf68cce1-cf73-4de9-b0d7-d84cd3ef15ae" d="M946,1010.84h3.59a17,17,0,0,0,11.92-5c2.61-2.6,5.38-4.68,7.8-5.11,0,0-21.35-11.89-41.74,0,0,0,3.29,2.4,7.18,5.84A17,17,0,0,0,946,1010.84Z"/><path class="ea04177d-d968-4986-a7b1-cbd80a28d5c6" d="M935.49,954.28l14.49-3s7.95,5.09,11.33,3c0,0-11.26,8.82-25.82,0"/><path class="bf68cce1-cf73-4de9-b0d7-d84cd3ef15ae" d="M951.32,946.23h-6.73a41,41,0,0,1-9.1,8,52.39,52.39,0,0,0,25.82,0C956.45,954.13,953.29,950.26,951.32,946.23Z"/><ellipse class="af92181a-ad4b-4769-b4a8-6ba9db8bfe07" cx="941.06" cy="978.24" rx="5.74" ry="11.4"/><ellipse class="bf68cce1-cf73-4de9-b0d7-d84cd3ef15ae" cx="948.4" cy="1014.18" rx="15.95" ry="4.32"/><path class="baf83a46-1171-487f-9879-737392489a80" d="M1236.87,489.43s-1.27,30.76,0,32.12,3.37.67,3.27-1.13,0-31,0-31Z"/><path class="baf83a46-1171-487f-9879-737392489a80" d="M947.39,882.33s-1,48.71,0,50.88,2.59,1.09,2.51-1.81,0-49.51,0-49.51Z"/><path class="ae8e4995-142f-4eaf-894f-1c2e3ccea598" d="M1098.86,164.75l33.92.93,8.78,1.4-22.11,5s-16.51-5-16.76-4.93a32.53,32.53,0,0,1-3.83-2Z"/><path class="fc0529b7-af8c-4e05-9a20-d59919f566f0" d="M1104.33,166l37.23,1.05s6,14.86-1.4,38.1c-7.64,24.11-16.62,30.38-17.47,30.38s-21.28-20.77-21.28-21.45-1.87-37.27-1.87-37.27Z"/><path class="a9e69894-afec-4dcf-9226-7e55b619f3cc" d="M1095.45,179.39s.6-9.79,3.41-14.64l5.47,1.28s-3.2,48.29,19.54,65.12l-6.37,9.69-17.62-16.64-7.75-24Z"/><path class="fabc1b7f-bb54-4b5b-b984-e523141ed37c" d="M1168.65,178l-5.32.8c-.35,11.62-3.52,26.2-5.1,32a11.77,11.77,0,0,1-1.17,2.53s.29-1,.73-2.59c1.51-7.51-.47-23-.73-31l-2.49.38c.11,5.22-1.66,17.7-1.66,17.7.15-5.81-2.72-14.42-3-17.19l-6.16,1.11c.68,16.34-11.24,47-25.2,52.77s-23.15-55.15-23.15-55.15l-6.5-1.55-4.4,11.9c-.15-1.58.84-9.54,1.24-12.65l-3.19-.76-2.6,19.82a95.88,95.88,0,0,1-1.32-20.76l-5.35-1.28-7.49,8v38s27.81,66.25,69.68,43.78S1168.65,178,1168.65,178Z"/><path class="be0e3fc9-d783-4887-a7fe-c6c6d46ea10d" d="M1135.52,263.94s-16.82,16.85-41.66,6.84a56.85,56.85,0,0,1-29.11-27.12c-7.57-14.79-17.1-40-14.23-69.55h22.81s-7.77,60.54,17.61,82C1114.94,276.33,1135.52,263.94,1135.52,263.94Z"/></svg>