<svg id="Layer_1" height="512" viewBox="0 0 128 128" width="512" xmlns="http://www.w3.org/2000/svg" data-name="Layer 1"><path d="m38.595 74.5h50.81a25.595 25.595 0 0 1 25.595 25.594v14.655a0 0 0 0 1 0 0h-102a0 0 0 0 1 0 0v-14.655a25.595 25.595 0 0 1 25.595-25.594z" fill="#1dafea"/><path d="m89.405 74.5h-4.627v13.57a13.068 13.068 0 0 1 -13.068 13.067h-15.42a13.068 13.068 0 0 1 -13.068-13.067v-13.57h-4.627a25.652 25.652 0 0 0 -5.761.659v39.591h62.333v-39.591a25.652 25.652 0 0 0 -5.762-.659z" fill="#9cd92b"/><circle cx="64" cy="71.374" fill="#fec379" r="15.417"/><path d="m64 14.575a26.25 26.25 0 0 1 26.25 26.25 0 0 0 0 1 0 0h-52.5a0 0 0 0 1 0 0 26.25 26.25 0 0 1 26.25-26.25z" fill="#fbb74d"/><path d="m39.438 31.556h49.124a26.2 26.2 0 0 0 -3.523-6.433h-42.077a26.2 26.2 0 0 0 -3.524 6.433z" fill="#ffffef"/><path d="m37.75 46.92h52.5a0 0 0 0 1 0 0v6.58a26.25 26.25 0 0 1 -26.25 26.249 26.25 26.25 0 0 1 -26.25-26.249v-6.58a0 0 0 0 1 0 0z" fill="#fedaac"/><path d="m33.194 52.666a4.86 4.86 0 0 0 4.86 4.86v-9.72a4.86 4.86 0 0 0 -4.86 4.86z" fill="#fedaac"/><path d="m94.806 52.666a4.86 4.86 0 0 0 -4.86-4.86v9.719a4.86 4.86 0 0 0 4.86-4.859z" fill="#fedaac"/><path d="m43.222 109.083h41.557v5.667h-41.557z" fill="#fee671"/><path d="m35.292 40.825h57.417v6.095h-57.417z" fill="#fee671"/><path d="m67.437 20.667h-6.874l-1-7.667h8.874z" fill="#fee671"/><circle cx="64" cy="28.513" fill="#9df9fe" r="8.346"/><path d="m64 38.609a10.1 10.1 0 1 1 10.1-10.1 10.108 10.108 0 0 1 -10.1 10.1zm0-16.692a6.6 6.6 0 1 0 6.6 6.6 6.6 6.6 0 0 0 -6.6-6.6z" fill="#d8621b"/><path d="m60.611 30.263a1.75 1.75 0 0 1 -1.75-1.75 5.145 5.145 0 0 1 5.139-5.139 1.75 1.75 0 0 1 0 3.5 1.641 1.641 0 0 0 -1.639 1.639 1.75 1.75 0 0 1 -1.75 1.75z" fill="#fff"/><g fill="#ffa066"><path d="m55.122 50.083a2.583 2.583 0 1 0 2.583 2.583 2.586 2.586 0 0 0 -2.583-2.583z"/><path d="m72.878 50.083a2.583 2.583 0 1 0 2.584 2.583 2.586 2.586 0 0 0 -2.584-2.583z"/><path d="m61.33 62.017 1.67 1.166a1.75 1.75 0 0 0 2-2.867l-.671-.47 1.36-5.24a1.75 1.75 0 1 0 -3.387-.88l-1.662 6.417a1.75 1.75 0 0 0 .69 1.874z"/><path d="m68.68 66.146a18.608 18.608 0 0 1 -9.4-.012 1.75 1.75 0 0 0 -.98 3.36 23.29 23.29 0 0 0 5.979.774 18.161 18.161 0 0 0 5.457-.785 1.75 1.75 0 0 0 -1.057-3.337z"/></g></svg>