<svg height="512" viewBox="0 0 512 512" width="512" xmlns="http://www.w3.org/2000/svg" xmlns:xlink="http://www.w3.org/1999/xlink"><linearGradient id="linear-gradient" gradientUnits="userSpaceOnUse" x1="59.986" x2="59.986" y2="144"><stop offset="0" stop-color="#f48f63"/><stop offset="1" stop-color="#f4bc7f"/></linearGradient><linearGradient id="linear-gradient-2" gradientUnits="userSpaceOnUse" x1="256" x2="256" y1="94.169" y2="512"><stop offset="0" stop-color="#1c1b29"/><stop offset=".055" stop-color="#252131"/><stop offset=".217" stop-color="#392f44"/><stop offset=".402" stop-color="#473952"/><stop offset=".627" stop-color="#4f3e5a"/><stop offset="1" stop-color="#52405c"/></linearGradient><linearGradient id="linear-gradient-3" gradientUnits="userSpaceOnUse" x1="144" x2="144" y1="176" y2="272"><stop offset="0" stop-color="#1c1b29"/><stop offset=".072" stop-color="#2d2739"/><stop offset=".177" stop-color="#3e3249"/><stop offset=".308" stop-color="#493a54"/><stop offset=".491" stop-color="#503f5a"/><stop offset="1" stop-color="#52405c"/></linearGradient><linearGradient id="linear-gradient-4" gradientUnits="userSpaceOnUse" x1="144" x2="144" y1="131.193" y2="192"><stop offset="0" stop-color="#73375d"/><stop offset=".276" stop-color="#81416a"/><stop offset=".644" stop-color="#8e4a75"/><stop offset="1" stop-color="#924d79"/></linearGradient><linearGradient id="linear-gradient-5" x1="368" x2="368" xlink:href="#linear-gradient-3"/><linearGradient id="linear-gradient-6" x1="368" x2="368" xlink:href="#linear-gradient-4" y1="131.193"/><linearGradient id="New_Gradient_Swatch_copy_5" x1="456" x2="456" xlink:href="#linear-gradient-2" y1="240"/><linearGradient id="New_Gradient_Swatch_copy_5-2" x1="56" x2="56" xlink:href="#linear-gradient-2" y1="240"/><linearGradient id="linear-gradient-7" gradientUnits="userSpaceOnUse" x1="256" x2="256" y1="304" y2="512"><stop offset="0" stop-color="#73375d"/><stop offset="1" stop-color="#924d79"/></linearGradient><linearGradient id="linear-gradient-8" gradientUnits="userSpaceOnUse" x1="328" x2="328" y2="80"><stop offset="0" stop-color="#ccc"/><stop offset=".207" stop-color="#d5d5d5"/><stop offset=".61" stop-color="#e2e2e2"/><stop offset="1" stop-color="#e6e6e6"/></linearGradient><g id="_21_Haunting_Castle" data-name="21 Haunting Castle"><g id="Flat"><path d="m72 144a72 72 0 0 1 0-144c25.7 0 40.437 13.046 47.973 16.582-3.406 3.025-39.973 15.626-39.973 55.418 0 39.818 36.522 52.353 39.973 55.418-7.52 3.528-22.265 16.582-47.973 16.582z" fill="url(#linear-gradient)"/><path d="m432 512h-352v-224h56v-108.117l120-85.714 120 85.714v108.117h56z" fill="url(#linear-gradient-2)"/><path d="m112 176h64v96h-64z" fill="url(#linear-gradient-3)"/><path d="m192.645 192h-97.29l48.645-60.807z" fill="url(#linear-gradient-4)"/><path d="m336 176h64v96h-64z" fill="url(#linear-gradient-5)"/><path d="m416.645 192h-97.29l48.645-60.807z" fill="url(#linear-gradient-6)"/><path d="m480 240v16h-16v-16h-16v16h-16v-16h-16v16 8 248h80v-248-8-16z" fill="url(#New_Gradient_Swatch_copy_5)"/><path d="m80 240v16h-16v-16h-16v16h-16v-16h-16v16 8 248h80v-248-8-16z" fill="url(#New_Gradient_Swatch_copy_5-2)"/><path d="m336 512h-160v-128a80 80 0 0 1 160 0z" fill="url(#linear-gradient-7)"/><g fill="#1c1b29"><path d="m48 288h16v64h-16z"/><path d="m48 400h16v64h-16z"/><path d="m48 368h16v16h-16z"/><path d="m448 288h16v64h-16z"/><path d="m448 400h16v64h-16z"/><path d="m448 368h16v16h-16z"/><path d="m160 400h-48v-56a24 24 0 0 1 48 0z"/><path d="m240 272h-48v-56a24 24 0 0 1 48 0z"/><path d="m320 272h-48v-56a24 24 0 0 1 48 0z"/><path d="m112 416h48v88h-48z"/><path d="m400 400h-48v-56a24 24 0 0 1 48 0z"/><path d="m352 416h48v88h-48z"/></g><path d="m336 416v-16h-72v-32h70.39a79.256 79.256 0 0 0 -5.09-16h-65.3v-47.6q-3.948-.395-8-.4t-8 .4v47.6h-65.3a79.256 79.256 0 0 0 -5.09 16h70.39v32h-72v16h72v32h-72v16h72v40h16v-40h72v-16h-72v-32z" fill="#72375d"/><path d="m472 80h-184a24.028 24.028 0 0 1 -24-24 8.009 8.009 0 0 0 -8-8h-88a24 24 0 0 1 0-48h304a40 40 0 0 1 0 80z" fill="url(#linear-gradient-8)"/><path d="m432 102.131c-15.314-13.731-40-2.944-40 17.869v8h16c.485-2.164-2.7-16 8-16 10.806 0 7.471 13.641 8 16h16v-8c0-10.588 16-10.575 16 0v8h16v-8c0-20.813-24.685-31.6-40-17.869z" fill="#1c1b29"/><path d="m472 150.131c-15.314-13.731-40-2.944-40 17.869v8h16c.485-2.164-2.7-16 8-16 10.806 0 7.471 13.641 8 16h16v-8c0-10.588 16-10.575 16 0v8h16v-8c0-20.813-24.685-31.6-40-17.869z" fill="#1c1b29"/><path d="m0 496h512v16h-512z" fill="#1c1b29"/><path d="m109.68 10.59-99.04 99.04a71.592 71.592 0 0 1 -7.15-15.47l90.65-90.65a81.794 81.794 0 0 1 15.54 7.08z" fill="#f4bc7f"/><path d="m87.68 100.47-39.48 39.48a72.209 72.209 0 0 1 -27.64-17.62l60.26-60.26a58.862 58.862 0 0 0 -.82 9.93 53.632 53.632 0 0 0 7.68 28.47z" fill="#f4bc7f"/></g></g></svg>