<svg id="Layer_1" enable-background="new 0 0 512 512" height="512" viewBox="0 0 512 512" width="512" xmlns="http://www.w3.org/2000/svg"><g><g><g><g><g><path d="m492.914 512c0-105.195-97.846-138.03-97.846-138.03h-278.14s-97.846 32.836-97.846 138.03z" fill="#e19974"/><g fill="#8d9ca8"><path d="m448.418 512c63.95-81.177 15.494-122.085 15.494-122.085l-.317-.156c1.289-6.961 1.761-13.524 1.419-19.585-8.158-57.032-46.028-59.571-46.028-139.475 0-129.696-79.343-225.382-162.425-223.049.038.013-.28.011-.563.007-.283.004-.601.006-.563-.007-83.082-2.332-162.425 83.357-162.425 223.049 0 85.111-37.812 82.331-46.028 139.475-.343 6.085.145 12.707 1.445 19.739l-.003.002s-52.232 47.862 15.494 122.085h66.923l125.309-62.415 163.567 62.415z"/><path d="m255.586 7.65c.007 0 .201.004.413.007.212-.003.405-.007.413-.007z"/></g><g><g><path d="m286.776 156.494c-6.977-10.431-18.668-16.716-31.217-16.716-12.082 0-23.383 5.848-30.47 15.633-11.09 15.311-31.182 38.7-59.87 55.343v27.666c0 36.203 21.19 67.458 51.85 82.065 11.84 5.641 25.091 8.801 39.081 8.801 13.452 0 26.22-2.922 37.708-8.161 31.399-14.319 53.223-45.964 53.223-82.705v-25.693c-29.976-16.349-49.64-40.29-60.305-56.233z" fill="#ffe5c2"/></g></g><path d="m286.776 156.494c-6.978-10.431-18.668-16.716-31.217-16.716-7.3 0-14.315 2.135-20.288 5.984 4.27 2.753 8 6.382 10.91 10.732 10.665 15.944 30.329 39.884 60.304 56.232v25.693c0 36.741-21.824 68.387-53.223 82.705-5.529 2.521-11.355 4.506-17.411 5.886 6.526 1.488 13.32 2.274 20.298 2.274 13.452 0 26.22-2.922 37.708-8.161 31.399-14.319 53.223-45.964 53.223-82.705v-25.693c-29.975-16.348-49.639-40.288-60.304-56.231z" fill="#fed2a4"/><path d="m217.068 512-21.389-138.03h120.639l-22.46 138.03z" fill="#e19974"/><path d="m217.068 512v-191.516c-30.66-14.607-51.85-45.861-51.85-82.065v-27.666c-.862.5-1.732.994-2.61 1.482-19.476 10.818-31.768 31.126-31.768 53.406v246.359z" fill="#f5f8f9"/><path d="m379.758 512v-245.145c0-22.59-12.529-43.198-32.384-53.97-.098-.053-.196-.106-.294-.16v25.693c0 36.741-21.824 68.387-53.223 82.705v190.877z" fill="#f5f8f9"/><path d="m347.374 212.885c-.098-.053-.196-.106-.294-.16v25.693c0 13.23-2.83 25.799-7.917 37.136v236.445h40.595v-245.145c.001-22.589-12.528-43.197-32.384-53.969z" fill="#e8edf2"/><path d="m293.858 381.128v-60.004c-11.488 5.239-24.256 8.161-37.708 8.161-13.99 0-27.241-3.161-39.081-8.801v61.527c28.552 47.504 47.038 47.476 76.789-.883z" fill="#ffe5c2"/><path d="m154.897 173.779c-3.244 0-6.251-2.091-7.265-5.352-1.249-4.014.992-8.281 5.006-9.529 24.731-7.695 33.532-22.747 41.296-36.027 1.472-2.517 2.862-4.895 4.335-7.189 15.853-24.704 33.705-36.21 56.181-36.21 4.204 0 7.612 3.408 7.612 7.612s-3.407 7.612-7.612 7.612c-17.03 0-30.406 9.008-43.369 29.209-1.302 2.029-2.615 4.274-4.005 6.651-8.249 14.108-19.546 33.429-49.915 42.879-.754.232-1.515.344-2.264.344z" fill="#7a8c98"/></g><g><g><path d="m379.755 512v-335.686h39.962v335.686" fill="#e19974"/><g><g><g><path d="m486.465 94.339c0-47.899-38.83-86.729-86.729-86.729s-86.729 38.83-86.729 86.729c0 35.791 21.684 66.511 52.629 79.759v22.832h68.2v-22.832c30.945-13.248 52.629-43.968 52.629-79.759z" fill="#f5f8f9"/></g><path d="m399.736 7.61c-6.99 0-13.786.827-20.298 2.389 38.107 9.138 66.431 43.431 66.431 84.34 0 35.791-21.684 66.511-52.629 79.759v22.832h40.595v-22.832c30.944-13.248 52.629-43.968 52.629-79.759.001-47.899-38.829-86.729-86.728-86.729z" fill="#e8edf2"/><g fill="#8d9ca8"><path d="m368.275 129.94c-9.641 0-17.456-7.815-17.456-17.456v-22.962c0-9.641 7.815-17.456 17.456-17.456 9.641 0 17.456 7.815 17.456 17.456v22.963c0 9.64-7.816 17.455-17.456 17.455z"/><path d="m431.198 129.94c-9.641 0-17.456-7.815-17.456-17.456v-22.962c0-9.641 7.815-17.456 17.456-17.456 9.641 0 17.456 7.815 17.456 17.456v22.963c0 9.64-7.816 17.455-17.456 17.455z"/></g></g><g fill="#8d9ca8"><g><path d=""/><path d="m389.171 155.949c-4.145 0-7.612-3.467-7.612-7.612 0-4.148 3.471-7.6 7.612-7.612 4.138-.011 7.611 3.484 7.612 7.612 0 4.142-3.47 7.612-7.612 7.612z"/></g><g><path d=""/><path d="m410.301 155.949c-4.142 0-7.612-3.469-7.612-7.612.001-4.234 3.628-7.747 7.861-7.603 3.96.134 7.233 3.415 7.355 7.373.13 4.227-3.372 7.842-7.604 7.842z"/></g></g></g></g></g></g><g fill="#7a8c98"><path d="m98.792 454.625c-9.732-7.142-17.294-14.982-23.157-22.681l-9.187-14.193c-8.624-15.864-10.424-28.466-10.468-28.793-.526-4.161-4.316-7.113-8.487-6.599-4.172.517-7.135 4.318-6.619 8.49.223 1.803 5.963 44.53 48.911 76.049 1.357.996 2.934 1.476 4.498 1.476 2.341 0 4.651-1.077 6.142-3.109 2.487-3.389 1.756-8.153-1.633-10.64z"/><path d="m130.841 439.538c-15.204-8.009-24.426-16.757-29.576-22.865-5.845-6.933-7.823-12.02-7.904-12.233-1.41-3.929-5.724-5.993-9.678-4.612-3.968 1.388-6.059 5.73-4.671 9.698.372 1.064 9.569 26.29 48.475 45.383 1.079.53 2.222.78 3.348.78z"/></g></g><path d="m465.857 382.492c-4.017-1.251-8.281.992-9.529 5.006-3.586 11.522-8.33 21.98-14.101 31.082-2.251 3.55-1.198 8.253 2.352 10.504 1.265.802 2.675 1.184 4.069 1.184 2.52 0 4.986-1.251 6.435-3.537 6.488-10.232 11.797-21.911 15.78-34.711 1.249-4.013-.992-8.28-5.006-9.528z" fill="#7a8c98"/></g><g fill="#d9e7ec"><g><path d=""/><path d="m486.366 191.206c-4.152 0-7.6-3.468-7.612-7.612-.011-4.128 3.485-7.623 7.612-7.612 4.141.012 7.611 3.462 7.612 7.612s-3.463 7.612-7.612 7.612z"/></g><g><path d=""/><path d="m466.546 250.018c-4.155 0-7.601-3.467-7.612-7.612-.011-4.31 3.795-7.904 8.108-7.595 4.115.295 7.355 3.926 7.101 8.057-.244 3.957-3.632 7.15-7.597 7.15z"/></g><g><path d=""/><path d="m108.424 15.215c-4.328 0-7.886-3.786-7.595-8.109.278-4.129 3.947-7.369 8.082-7.09 3.944.266 7.124 3.616 7.124 7.587.001 4.142-3.472 7.612-7.611 7.612z"/></g><g><path d=""/><path d="m25.63 61.311c-4.239 0-7.735-3.609-7.604-7.842.125-4.036 3.541-7.395 7.599-7.382 3.967.013 7.358 3.187 7.602 7.151.266 4.308-3.286 8.073-7.597 8.073z"/></g><g><path d=""/><path d="m48.333 277.349c-3.966 0-7.354-3.193-7.597-7.151-.254-4.133 2.99-7.776 7.106-8.049 4.23-.281 7.95 3.107 8.095 7.34.144 4.23-3.368 7.86-7.604 7.86z"/></g><g><path d=""/><path d="m71.361 115.871c-4.062 0-7.478-3.315-7.604-7.371-.131-4.224 3.364-7.859 7.603-7.845 4.139.014 7.612 3.46 7.613 7.614 0 4.139-3.477 7.602-7.612 7.602z"/></g></g></g></svg>