<?xml version="1.0" encoding="utf-8"?>
<!-- Generator: Adobe Illustrator 26.0.1, SVG Export Plug-In . SVG Version: 6.00 Build 0)  -->
<svg version="1.1" id="Layer_1" xmlns="http://www.w3.org/2000/svg" xmlns:xlink="http://www.w3.org/1999/xlink" x="0px" y="0px"
	 viewBox="0 0 2000 2000" style="enable-background:new 0 0 2000 2000;" xml:space="preserve">
<style type="text/css">
	.st0{fill:#AED76A;}
	.st1{clip-path:url(#SVGID_00000175324301896513490920000017487573015595020457_);fill:#FECFAE;}
	.st2{fill:#AAA49B;}
	.st3{fill:#8F65AC;}
	.st4{fill:#E8E3DD;}
	.st5{fill:#60262E;}
	.st6{fill:#BAB6AF;}
	.st7{clip-path:url(#SVGID_00000005983658193871322910000015867595646178023608_);fill:#FECFAE;}
	.st8{fill:#E5BF9C;}
	.st9{fill:#A08470;}
	.st10{fill:#3F2957;}
	.st11{fill:#AFD86A;}
	.st12{clip-path:url(#SVGID_00000023258353847480578460000005171674719793246361_);fill:#FECFAE;}
	.st13{clip-path:url(#SVGID_00000076564715725512724400000016265092926852711588_);fill:#FECFAE;}
	.st14{fill:#877874;}
	.st15{fill:#967266;}
	.st16{fill:#4C3B36;}
	.st17{fill:#725B51;}
	.st18{fill:#DDCBB8;}
	.st19{fill:#441C0C;}
	.st20{fill:#592710;}
	.st21{fill:#724E44;}
	.st22{clip-path:url(#SVGID_00000160170342454340659120000011980611025350898355_);fill:#FECFAE;}
	.st23{fill:#77A22F;}
	.st24{fill:#AA9983;}
	.st25{fill:#EAC794;}
	.st26{fill:#936B3E;}
	.st27{fill:#E0D1B7;}
	.st28{fill:#BF9D71;}
	.st29{fill:#4C94BF;}
	.st30{fill:#FFFFFF;}
	.st31{fill:#7B625C;}
	.st32{fill:#392516;}
	.st33{fill:#551C3B;}
	.st34{fill:#A28A84;}
	.st35{fill:#B48F6C;}
	.st36{fill:#FECFAE;}
	.st37{fill:#402F21;}
	.st38{fill:#381126;}
	.st39{fill:#7A6047;}
	.st40{fill:#6B6969;}
	.st41{fill:#4F3F2F;}
	.st42{fill:#787676;}
	.st43{fill:#908D8E;}
	.st44{fill:#6E899F;}
	.st45{fill:#FDCFAC;}
	.st46{fill:#62534C;}
	.st47{fill:#554A44;}
	.st48{fill:#3D5669;}
	.st49{fill:#293035;}
	.st50{fill:#78685E;}
	.st51{fill:#8F8D8E;}
	.st52{fill:#38444D;}
	.st53{fill:#797677;}
	.st54{fill:#CAB399;}
	.st55{fill:#A5917A;}
	.st56{fill:#8BBC38;}
	.st57{fill:#AA4226;}
	.st58{fill:#312419;}
	.st59{fill:#443428;}
	.st60{fill:#846A55;}
	.st61{fill:none;}
	.st62{fill:#634C3B;}
	.st63{clip-path:url(#SVGID_00000176760051596048390210000008634098396013622404_);}
	.st64{fill:#D6BA9D;}
	.st65{fill:#1E1713;}
	.st66{fill:#B99971;}
	.st67{fill:#8C6D51;}
	.st68{fill:#9E7E5C;}
	.st69{clip-path:url(#SVGID_00000129915226301436101740000015017176295292797065_);}
	.st70{fill:#352820;}
	.st71{fill:#665140;}
	.st72{clip-path:url(#SVGID_00000125560770210527003470000011175888680035393424_);}
	.st73{clip-path:url(#SVGID_00000159466914261923363690000018034052794353894551_);}
	.st74{clip-path:url(#SVGID_00000127761919950893859230000010403970784884855455_);}
	.st75{clip-path:url(#SVGID_00000165919626150592630010000002320942297885222047_);}
	.st76{fill:#8ABD32;}
	.st77{clip-path:url(#SVGID_00000173862373619984737370000007375529478177975209_);}
	.st78{fill:#993A23;}
	.st79{clip-path:url(#SVGID_00000066485110732649831350000008813676801499108028_);fill:#993A23;}
	.st80{fill:#7A291B;}
	.st81{clip-path:url(#SVGID_00000101788500030849974310000001796502215775216528_);fill:#993A23;}
	.st82{fill:#BC4D3B;}
	.st83{fill:#846F5A;}
	.st84{fill:#AD957D;}
	.st85{fill:#D8C9BA;}
	.st86{fill:#C4B19F;}
	.st87{fill:#705E4D;}
	.st88{clip-path:url(#SVGID_00000175309239254367700370000001334654362820068233_);fill:#998776;}
	.st89{fill:#604F40;}
	.st90{fill:#A39386;}
	.st91{clip-path:url(#SVGID_00000036932146046147714350000003175113109416852897_);fill:#998776;}
	.st92{clip-path:url(#SVGID_00000026843813590303812070000011872903832459385244_);fill:#998776;}
	.st93{clip-path:url(#SVGID_00000166645617841513958510000015858182566247535496_);fill:#846F5A;}
	.st94{clip-path:url(#SVGID_00000166645617841513958510000015858182566247535496_);fill:#998776;}
	.st95{fill:#E5D6C7;}
	.st96{fill:#937D69;}
	.st97{fill:#3C3229;}
	.st98{fill:#71BBD8;}
	.st99{fill:#EC7D51;}
	.st100{fill:url(#SVGID_00000038405392032985854960000000270803574329912727_);}
	.st101{opacity:0.65;fill:url(#SVGID_00000071523771535792385980000001840533327875245722_);}
	.st102{opacity:0.65;fill:url(#SVGID_00000129922178218740060730000008652254360958967713_);}
	.st103{clip-path:url(#SVGID_00000096747811151621718330000004449720704898994566_);fill:#998776;}
	.st104{clip-path:url(#SVGID_00000140731035513144112330000005398469386313758634_);fill:#998776;}
	.st105{clip-path:url(#SVGID_00000117656529231235344540000004392011402980991380_);fill:#846F5A;}
	.st106{clip-path:url(#SVGID_00000117656529231235344540000004392011402980991380_);fill:#998776;}
	.st107{fill:#A08975;}
	.st108{clip-path:url(#SVGID_00000126286512710250427250000012718178659695184556_);}
	.st109{fill:url(#SVGID_00000108298854462092902130000000260116457781713321_);}
	.st110{opacity:0.65;fill:url(#SVGID_00000072257543562791068980000005875716095583088265_);}
	.st111{fill:#998776;}
	.st112{fill:#C1AE9F;}
	.st113{clip-path:url(#SVGID_00000119085998773761240680000003238210371350326162_);fill:#846F5A;}
	.st114{clip-path:url(#SVGID_00000119085998773761240680000003238210371350326162_);fill:#998776;}
	.st115{clip-path:url(#SVGID_00000137831475474096796740000017231306973726610834_);}
	.st116{fill:#515151;}
	.st117{fill:#7A7A7A;}
	.st118{fill:#8C8C8C;}
	.st119{fill:#F5E3BA;}
	.st120{fill:#593263;}
	.st121{opacity:0.4;fill:#BB986F;}
	.st122{fill:#A5A5A5;}
	.st123{fill:#BB986F;}
	.st124{fill:#A883C6;}
	.st125{fill:#2E1849;}
	.st126{fill:#6B6B6B;}
	.st127{fill:#724382;}
	.st128{clip-path:url(#SVGID_00000166668772055991059000000003223252699014507393_);fill:#8ABD32;}
	.st129{clip-path:url(#SVGID_00000052073114053738330420000001595005514114161290_);}
	.st130{fill:#70442C;}
	.st131{opacity:0.2;clip-path:url(#SVGID_00000124855242822785654210000008127218801451379851_);fill:#70442C;}
	.st132{fill:#A36B4B;}
	.st133{fill:#875536;}
	.st134{fill:#D5AF73;}
	.st135{opacity:0.2;clip-path:url(#SVGID_00000091009063162198385940000018277197570451248785_);fill:#70442C;}
	.st136{opacity:0.2;clip-path:url(#SVGID_00000178916281764276035430000000460882280751820460_);fill:#70442C;}
	.st137{opacity:0.4;clip-path:url(#SVGID_00000101079536111593329750000014688313687550342841_);fill:#70442C;}
	.st138{opacity:0.2;clip-path:url(#SVGID_00000101079536111593329750000014688313687550342841_);fill:#70442C;}
	.st139{clip-path:url(#SVGID_00000150087467358840880570000009553361758226173075_);fill:#FECFAE;}
	.st140{fill:#9B8572;}
	.st141{fill:#4F2C2A;}
	.st142{fill:#934D3D;}
	.st143{clip-path:url(#SVGID_00000082370662553893193380000009636135571114734523_);fill:#70442C;}
	.st144{fill:#BF975D;}
	.st145{fill:#A57341;}
	.st146{clip-path:url(#SVGID_00000091702675524557919210000017632063323337290374_);fill:#70442C;}
	.st147{clip-path:url(#SVGID_00000179608592147872997460000002979755356411632263_);fill:#70442C;}
	.st148{fill:#4A1F19;}
	.st149{clip-path:url(#SVGID_00000007404479602886465700000001609570524137706900_);fill:#A37A79;}
	.st150{fill:#D19857;}
	.st151{fill:#D6B58E;}
	.st152{fill:#AF8956;}
	.st153{clip-path:url(#SVGID_00000134957315725592391100000008169147725586124202_);fill:#FECFAE;}
	.st154{fill:#93643A;}
	.st155{clip-path:url(#SVGID_00000044159819315061362970000012558416652574443184_);fill:#70442C;}
	.st156{clip-path:url(#SVGID_00000093149502769277821350000014540171485984401036_);fill:#70442C;}
	.st157{clip-path:url(#SVGID_00000068652100247923997750000014987040279719911094_);fill:#70442C;}
	.st158{clip-path:url(#SVGID_00000100374774234850771460000016946798232631301304_);fill:#70442C;}
	.st159{clip-path:url(#SVGID_00000014602421366258682920000016097633744361803447_);fill:#70442C;}
	.st160{clip-path:url(#SVGID_00000168113526157008908370000005768649459378619012_);fill:#70442C;}
	.st161{clip-path:url(#SVGID_00000029743529051076830920000005917810632018510736_);fill:#70442C;}
	.st162{clip-path:url(#SVGID_00000168819054881836915850000014997471041056851367_);fill:#70442C;}
	.st163{clip-path:url(#SVGID_00000119078225412637731600000007480273859676339091_);fill:#70442C;}
	.st164{clip-path:url(#SVGID_00000016035532403562048460000010388437226949414831_);fill:#70442C;}
	.st165{clip-path:url(#SVGID_00000080195762661888217620000003892254800788431746_);fill:#70442C;}
	.st166{clip-path:url(#SVGID_00000183213489197832893720000015842741005829773234_);fill:#70442C;}
	.st167{clip-path:url(#SVGID_00000087392150187565943940000004785567987624447394_);fill:#A37A79;}
	.st168{clip-path:url(#SVGID_00000073002867448775649310000005438537457241896382_);fill:#FECFAE;}
	.st169{clip-path:url(#SVGID_00000070833978216513727270000007872979195047251352_);fill:#70442C;}
	.st170{clip-path:url(#SVGID_00000127746443101509115390000008173900963866568867_);fill:#70442C;}
	.st171{clip-path:url(#SVGID_00000147194169447393714120000014575238780027311002_);fill:#70442C;}
	.st172{fill:#877366;}
	.st173{clip-path:url(#SVGID_00000094584207648150756450000013105664437573245365_);fill:#FECFAE;}
	.st174{fill:#4E8BC1;}
	.st175{fill:#F9EBE8;}
	.st176{fill:#C9B3AD;}
	.st177{fill:#EAD2CC;}
	.st178{fill:#387BAD;}
	.st179{clip-path:url(#SVGID_00000137830045709603643180000016606429234739802546_);fill:#8ABD32;}
	.st180{clip-path:url(#SVGID_00000161621983330614219020000008768003092605719969_);fill:#8ABD32;}
	.st181{clip-path:url(#SVGID_00000115485277134863644210000007043476898553727420_);fill:#8ABD32;}
	.st182{clip-path:url(#SVGID_00000150099430167018967340000007988120002948371131_);fill:#8ABD32;}
	.st183{clip-path:url(#SVGID_00000171699316115228743270000007936514671400554399_);fill:#8ABD32;}
	.st184{clip-path:url(#SVGID_00000044160520520684441200000013510819381505894548_);fill:#FECFAE;}
	.st185{clip-path:url(#SVGID_00000057131615284705773410000015183853866913054883_);fill:#8ABD32;}
	.st186{fill:#5597C9;}
	.st187{fill:#1572A0;}
	.st188{fill:#D6C5C1;}
	.st189{clip-path:url(#SVGID_00000099644859556424417130000008786877837357572745_);fill:#8ABD32;}
	.st190{fill:#61A6D1;}
	.st191{fill:#B2A19D;}
	.st192{clip-path:url(#SVGID_00000058590602130445472780000015039497676549858726_);fill:#8ABD32;}
	.st193{clip-path:url(#SVGID_00000076595349049764545800000004001983099193631412_);fill:#FECFAE;}
	.st194{clip-path:url(#SVGID_00000070826570467914338920000014417687948354682034_);fill:#8ABD32;}
	.st195{clip-path:url(#SVGID_00000103261269740113520540000016117885397898408354_);fill:#FECFAE;}
	.st196{fill:#A07775;}
	.st197{fill:#B79C86;}
	.st198{fill:#8C383B;}
	.st199{fill:#A5606B;}
	.st200{fill:#8F534A;}
	.st201{fill:#523028;}
	.st202{fill:#7A2C32;}
	.st203{fill:#965D59;}
	.st204{clip-path:url(#SVGID_00000013169510256448380290000007035826466513686704_);fill:#8F534A;}
	.st205{clip-path:url(#SVGID_00000015318641987500166670000000332653651903080100_);fill:#8BBC38;}
	.st206{clip-path:url(#SVGID_00000107582167956314456200000016535153510891697539_);fill:#8BBC38;}
	.st207{clip-path:url(#SVGID_00000088854952818425652200000015410173736324909965_);fill:#FDCFAC;}
	.st208{clip-path:url(#SVGID_00000022562260126070951930000014332551725694278323_);fill:#8F534A;}
	.st209{fill:#5B3932;}
	.st210{fill:#9E5F59;}
	.st211{clip-path:url(#SVGID_00000073705655196876687790000007293273180213381555_);fill:#8BBC38;}
	.st212{clip-path:url(#SVGID_00000127743197964362425770000009479502649582817665_);fill:#603D38;}
	.st213{clip-path:url(#SVGID_00000054951369344471077270000011185161675100040122_);fill:#523028;}
	.st214{fill:#914047;}
	.st215{clip-path:url(#SVGID_00000142861311579970131240000017839619849802661014_);fill:#8BBC38;}
	.st216{clip-path:url(#SVGID_00000127762094224478196510000015541547259131676830_);fill:#8BBC38;}
	.st217{clip-path:url(#SVGID_00000045592116081244643240000009702287940122739365_);fill:#603D38;}
	.st218{clip-path:url(#SVGID_00000182500270686662389360000012089040649778150307_);fill:#523028;}
	.st219{clip-path:url(#SVGID_00000181089531777373673290000003733762704932894642_);fill:#8BBC38;}
	.st220{clip-path:url(#SVGID_00000033366848280237036480000005602971365852383931_);fill:#8BBC38;}
	.st221{clip-path:url(#SVGID_00000071541852066509940770000014296414945849831308_);fill:#8ABD32;}
	.st222{clip-path:url(#SVGID_00000129912670340106276730000002114400627978160039_);fill:#441C0C;}
	.st223{fill:#9B786F;}
	.st224{fill:#8E7C75;}
	.st225{opacity:0.8;fill:#A3ACAF;}
	.st226{fill:#838C8E;}
	.st227{fill:#CFE59A;}
	.st228{clip-path:url(#SVGID_00000174581204714275512030000016403915269333383332_);fill:#FECFAE;}
	.st229{clip-path:url(#SVGID_00000043456523516659108610000004130869658955371937_);fill:#441C0C;}
	.st230{fill:#773825;}
	.st231{clip-path:url(#SVGID_00000029761341543223191000000002828275790614374844_);}
	.st232{clip-path:url(#SVGID_00000173875262945548124040000002804562683574934423_);}
	.st233{clip-path:url(#SVGID_00000066516224263182062540000002240140221303347613_);fill:#441C0C;}
	.st234{clip-path:url(#SVGID_00000114787270660417350530000005677685234314780293_);}
	.st235{clip-path:url(#SVGID_00000158736989620348675000000002830679152175443378_);fill:#441C0C;}
	.st236{fill:#2B1009;}
	.st237{opacity:0.8;fill:#B8BFC1;}
	.st238{fill:#B8BFC1;}
	.st239{fill:#F5FFCA;}
	.st240{fill:#A0C45B;}
	.st241{fill:#BCE077;}
	.st242{clip-path:url(#SVGID_00000002370116458832514150000013018071685792246430_);fill:#FECFAE;}
	.st243{clip-path:url(#SVGID_00000093140591968827269740000017878700375953149623_);}
	.st244{fill:#B99AD6;}
	.st245{fill:#EDCCB2;}
	.st246{fill:#9287AB;}
	.st247{fill:#B6B3C4;}
	.st248{fill:#A29CB7;}
	.st249{fill:#5A546D;}
	.st250{fill:#7F6A5C;}
	.st251{fill:#645F77;}
	.st252{fill:#472A51;}
	.st253{clip-path:url(#SVGID_00000002364090761015076960000008490373468945122733_);}
	.st254{fill:#6D407C;}
	.st255{clip-path:url(#SVGID_00000085222490205034257090000008741097847760218769_);fill:#6D407C;}
	.st256{clip-path:url(#SVGID_00000071538995955330201070000007940907996903813255_);fill:#6D407C;}
	.st257{clip-path:url(#SVGID_00000140695762036597630120000007119890679509767577_);fill:#8ABD32;}
	.st258{fill:#76708E;}
	.st259{clip-path:url(#SVGID_00000124133275145446698720000003853009926549747334_);fill:#6D407C;}
	.st260{clip-path:url(#SVGID_00000091716855837659229730000007828122361205868477_);fill:#6D407C;}
	.st261{fill:#9C7ABC;}
	.st262{clip-path:url(#SVGID_00000033329426477765066190000000762424875673507003_);fill:#FECFAE;}
	.st263{clip-path:url(#SVGID_00000085936021008517329780000011069415212154912408_);fill:#6D407C;}
	.st264{clip-path:url(#SVGID_00000029727750394482878380000009361993209885661848_);fill:#B99AD6;}
	.st265{clip-path:url(#SVGID_00000056403281770276588560000006656321216002714772_);fill:#FECFAE;}
	.st266{clip-path:url(#SVGID_00000075873282896457293800000005653891711785781666_);fill:#8ABD32;}
	.st267{fill:#8C796F;}
	.st268{fill:#633C27;}
	.st269{fill:#3F2519;}
	.st270{fill:#6B5E55;}
	.st271{clip-path:url(#SVGID_00000013879373813993781480000010689809255890034843_);fill:#633C27;}
	.st272{fill:#7A6B5F;}
	.st273{fill:#2B1811;}
	.st274{fill:#594E47;}
	.st275{fill:#685C53;}
	.st276{fill:#A8968A;}
	.st277{fill:#996A52;}
	.st278{fill:#B2A197;}
	.st279{fill:#A39081;}
	.st280{clip-path:url(#SVGID_00000000935035791630766760000005885001676132805000_);}
	.st281{clip-path:url(#SVGID_00000065036394497459297120000012969147647020653237_);fill:#FECFAE;}
	.st282{fill:#685443;}
	.st283{fill:#CCB193;}
	.st284{fill:#BB9C75;}
	.st285{fill:#C6A283;}
	.st286{fill:#897056;}
	.st287{fill:#DB6800;}
	.st288{fill:#F28D26;}
	.st289{fill:#702C31;}
	.st290{fill:#9B8067;}
	.st291{fill:#35261D;}
	.st292{fill:#4B3628;}
	.st293{fill:#658723;}
	.st294{fill:#EDD87E;}
	.st295{fill:#992828;}
	.st296{fill:#C93F3F;}
	.st297{fill:#E1C243;}
	.st298{fill:#D8B213;}
	.st299{fill:#E5CA57;}
	.st300{clip-path:url(#SVGID_00000083779525581815890440000015079508781815867783_);}
	.st301{clip-path:url(#SVGID_00000156589396583973555110000011116646835876480388_);fill:#FECFAE;}
	.st302{fill:#AD8B82;}
	.st303{clip-path:url(#SVGID_00000084504196401196130480000017770970207896430000_);}
	.st304{fill:#7C685B;}
	.st305{clip-path:url(#SVGID_00000115513268142658335220000004112447745399052696_);}
	.st306{clip-path:url(#SVGID_00000060004463877543741450000008986914473449880453_);}
	.st307{fill:#E2D3C5;}
	.st308{fill:#FFEEA9;}
	.st309{fill:#2B211F;}
	.st310{fill:#A3847E;}
	.st311{fill:#544541;}
	.st312{clip-path:url(#SVGID_00000159461058200691588210000002389963172190428802_);fill:#7C251C;}
	.st313{fill:#7C251C;}
	.st314{fill:#CEA380;}
	.st315{clip-path:url(#SVGID_00000165224311527825953250000013056544595144622482_);fill:#8E2F20;}
	.st316{clip-path:url(#SVGID_00000005946131508138859140000012837913723077898925_);fill:#AA4226;}
	.st317{fill:#BA9B95;}
	.st318{fill:#6B5956;}
	.st319{fill:#594947;}
	.st320{fill:#877674;}
	.st321{clip-path:url(#SVGID_00000023240607769597567570000016882365141550937260_);fill:#B6B3C4;}
	.st322{clip-path:url(#SVGID_00000160912426813761542970000011902192905134530959_);fill:#B6B3C4;}
	.st323{clip-path:url(#SVGID_00000033370213756156861420000003374648205460038549_);fill:#E5CA57;}
	.st324{clip-path:url(#SVGID_00000006676790136349294650000016772448148885904307_);fill:#E5CA57;}
	.st325{clip-path:url(#SVGID_00000078722953024088356600000002436044169693952392_);fill:#FECFAE;}
	.st326{fill:#EEC8B8;}
	.st327{fill:#CEA697;}
	.st328{fill:#888499;}
	.st329{fill:#9B4329;}
	.st330{fill:#933D2E;}
	.st331{fill:#843523;}
	.st332{fill:#CC6748;}
	.st333{fill:#B7542E;}
	.st334{fill:#7C3237;}
	.st335{fill:#893724;}
	.st336{fill:#914759;}
	.st337{fill:#D67B5F;}
	.st338{clip-path:url(#SVGID_00000044150450125296346560000016746673151004120743_);fill:#B6B3C4;}
	.st339{clip-path:url(#SVGID_00000137103795133547669830000003866810759019579563_);fill:#B6B3C4;}
	.st340{clip-path:url(#SVGID_00000156583066593725805020000000249284516695716224_);fill:#E5CA57;}
	.st341{clip-path:url(#SVGID_00000022521577745345831670000008769045433760680333_);fill:#E5CA57;}
	.st342{clip-path:url(#SVGID_00000143584960688202717070000005925049360833081269_);fill:#B6B3C4;}
	.st343{clip-path:url(#SVGID_00000029011742841602008890000006517298923511280043_);fill:#B6B3C4;}
	.st344{clip-path:url(#SVGID_00000143575628731377547110000015214400823768492473_);fill:#AED76A;}
	.st345{clip-path:url(#SVGID_00000168808499002655924240000004417478138145520283_);fill:#B6B3C4;}
	.st346{clip-path:url(#SVGID_00000141421033644858901050000000835110667129371037_);fill:#B6B3C4;}
	.st347{clip-path:url(#SVGID_00000120520930995473308730000001663129100591932344_);fill:#E5CA57;}
	.st348{clip-path:url(#SVGID_00000086676257675559857800000017689997803025990062_);}
	.st349{clip-path:url(#SVGID_00000149381942003719746430000000013851131841899907_);fill:#8BBC38;}
	.st350{fill:#A37A79;}
	.st351{fill:#7F74B5;}
	.st352{clip-path:url(#SVGID_00000067957543240527427510000017412009832685715903_);fill:#FECFAE;}
	.st353{clip-path:url(#SVGID_00000096044135261284711750000010706911947784754087_);fill:#E0D1B7;}
	.st354{clip-path:url(#SVGID_00000096044135261284711750000010706911947784754087_);}
	.st355{clip-path:url(#SVGID_00000132048682749382923680000005769993600896152210_);fill:#A37A79;}
	.st356{fill:#682A30;}
	.st357{opacity:0.58;fill:#AA9983;}
	.st358{opacity:0.58;fill:#9B4329;}
	.st359{opacity:0.58;fill:#B7542E;}
	.st360{fill:#755959;}
	.st361{fill:#BC9595;}
	.st362{clip-path:url(#SVGID_00000053523692845343016130000004991982638236333484_);}
	.st363{fill:#E2D8C7;}
	.st364{fill:#969189;}
	.st365{fill:#BAB3A8;}
	.st366{fill:#54423E;}
	.st367{clip-path:url(#SVGID_00000131330851080218786310000015032608802167266482_);fill:#877069;}
	.st368{clip-path:url(#SVGID_00000149383069430889193460000008890872943983950770_);fill:#725B51;}
	.st369{fill:#EFE8DF;}
	.st370{clip-path:url(#SVGID_00000077297560562721596810000016199318150265460378_);fill:#969189;}
	.st371{fill:#765196;}
	.st372{clip-path:url(#SVGID_00000175306316682459130170000004164222641847643265_);fill:#A883C6;}
</style>
<g>
	<path class="st76" d="M1146.49,1077.93c0,0-106.5,33.35-118.25-79.04c0,0-72.23-58.26-42.97-130.76s56.37-97.39,66.32-110.82
		c9.95-13.43,12.06-92.52,77.62-27.87c0,0,20.26-120.04,85.36-73.86c65.1,46.19,34.27,84.75,34.27,84.75s84.69-3.57,52.19,78.36
		c0,0,99.3,123.44-73.14,198.92C1227.88,1017.61,1228.62,1108.17,1146.49,1077.93z"/>
	<circle class="st351" cx="1187.36" cy="822.62" r="11.52"/>
	<circle class="st351" cx="1255.64" cy="797.32" r="6.77"/>
	<ellipse class="st351" cx="1180.61" cy="916.6" rx="14.86" ry="12.26"/>
	
		<ellipse transform="matrix(0.866 -0.5 0.5 0.866 -232.9371 658.0888)" class="st351" cx="1111.54" cy="763.71" rx="15.34" ry="18.59"/>
	
		<ellipse transform="matrix(0.888 -0.4599 0.4599 0.888 -276.9412 650.553)" class="st351" cx="1196.85" cy="893.72" rx="7.8" ry="6.43"/>
	
		<ellipse transform="matrix(0.6198 -0.7847 0.7847 0.6198 -196.041 1324.1069)" class="st351" cx="1268.59" cy="864.39" rx="14.36" ry="17.84"/>
	<circle class="st351" cx="1136.12" cy="853.29" r="17.84"/>
</g>
<g>
	<path class="st350" d="M1391.81,1029.5c0,0-15.09,81.81,11.39,106.42c0,0-20.78,11.15-31.35,0.21
		C1365.02,1129.06,1362.05,1070.09,1391.81,1029.5z"/>
	<path class="st350" d="M1379.58,1103.52c0,0-23.49-30.05-19.86-76.4c0,0-21.35,50.9,19.86,96.74c1.93,2.14,0,1.05,0,1.05V1103.52z"
		/>
	<path class="st350" d="M1384.25,1072.36c0,0,18.6-15.94,23.53-43.86c0,0,4.93,32.11-26.64,55.98c-1.48,1.12-0.16,0.63-0.16,0.63
		L1384.25,1072.36z"/>
	<path class="st76" d="M1391.75,1045.65c0,0,59.55,11.49,57.51-39.54c0,0,33.08-2.1,31.13-31.93c-2.13-32.54-41.8-29.43-33.07-32.35
		c30.25-10.11,22.26-54.96-27.04-47.83c0,0,4.27-54.15-44.89-58.46c-114.12-10-82.04,66.09-82.04,66.09s-49.22,9.1-18.74,43.9
		c0,0-80.36,25.27,11.44,77.94C1286.06,1023.49,1309.08,1091.55,1391.75,1045.65z"/>
</g>
<path class="st0" d="M145.64,1202.8c79.07-66.26,192.46-240.9,843.86-167.45c757.51,85.41,1023.33,331.8,924.66,508
	c-128.74,229.91-619.42,118.99-685.45,161.85c-66.03,42.86-810.98,192.82-1051.56-90.12C-25.29,1377,108.18,1234.19,145.64,1202.8z"
	/>
<g>
	<defs>
		<path id="SVGID_00000144335267542095463180000014013522756179652224_" d="M142.13,1200.46c79.07-66.26,192.46-240.9,843.86-167.45
			c757.51,85.41,1023.33,331.8,924.66,508c-128.74,229.91-619.42,118.99-685.45,161.85c-66.03,42.86-810.98,192.82-1051.56-90.12
			C-28.8,1374.66,104.66,1231.85,142.13,1200.46z"/>
	</defs>
	<clipPath id="SVGID_00000173845070870255518110000014574644191514894763_">
		<use xlink:href="#SVGID_00000144335267542095463180000014013522756179652224_"  style="overflow:visible;"/>
	</clipPath>
	<path style="clip-path:url(#SVGID_00000173845070870255518110000014574644191514894763_);fill:#FECFAE;" d="M635.78,1412.95
		c0,0-18.39,100.76,187.37,146.42c205.76,45.66,100.05,218.96-36.76,219.76c-136.81,0.81-264.29,94.56-264.29,94.56l450.03-35.12
		l133.76-57.61c0,0,72.8-149.59-34.58-211.05c-107.38-61.46-344.75-65.75-358.22-144.87S635.78,1412.95,635.78,1412.95z"/>
</g>
<path class="st23" d="M1545.16,1236.25c0,0-112.76,65.69-117.43-49.77c0,0-63.58-37.14-52.36-93.72
	c11.21-56.58,38.08-46.32,43.19-57.78c5.31-11.91-9.84-69.67,55.33-61.35c0,0-8.51-73.11,56.71-65.68
	c69.09,7.87,51.25,53.07,51.25,53.07s55.95,17.59,37.03,62.35c0,0,108.92,24.03,10.72,135.39
	C1629.6,1158.76,1690.36,1263.65,1545.16,1236.25z"/>
<path class="st23" d="M316.45,1257.46c0,0-86.08,82.42-115.99-16.37c0,0-65.07-17.68-67.67-69.15s23.69-48.71,25.7-59.77
	c2.09-11.5-24.32-58.01,35.75-65.62c0,0-35.56-57.31,22.92-72.77c46.7-12.34,49.27,31.51,49.27,31.51s62.17,4.17,55.25,47.16
	c0,0,111.44,14.81,48.54,133.41C370.23,1185.85,383.19,1249.64,316.45,1257.46z"/>
<polygon class="st334" points="1450.34,997.45 1532.28,1220.46 1450.34,1212.27 1402.93,1048.37 "/>
<path class="st24" d="M1347.91,1443.47l115.9-43.7v-213.84l-38.7-111.51l-98.27,185.26
	C1326.83,1259.68,1296.98,1408.35,1347.91,1443.47z"/>
<path class="st27" d="M979.83,1384.94l368.07,58.53v-183.79l-370.15-30.14C977.76,1229.53,926.63,1345.14,979.83,1384.94z"/>
<g>
	<path class="st76" d="M361.48,1102.23c0,0,53.91,163.73,189.63,5.18c0,0,96.13-75.7,88.85-150.79s-60.34-73.56-66.41-88.8
		c-6.06-15.24,15.05-68.58-39.17-80.7c0,0,17.35-116.04-65.3-92.82s-49.03,87.34-49.03,87.34s-60.62-11.06-41.79,49.64
		c0,0-153.9,40.1-33.11,176.16C345.16,1007.44,268.07,1074.56,361.48,1102.23z"/>
	<circle class="st296" cx="391.05" cy="905.36" r="23.47"/>
	
		<ellipse transform="matrix(0.9031 -0.4294 0.4294 0.9031 -368.3169 312.0886)" class="st296" cx="507.35" cy="972.14" rx="22.37" ry="23.47"/>
	
		<ellipse transform="matrix(0.9031 -0.4294 0.4294 0.9031 -304.6878 288.0402)" class="st296" cx="485.88" cy="819.13" rx="16.88" ry="17.71"/>
	
		<ellipse transform="matrix(0.9031 -0.4294 0.4294 0.9031 -375.3289 272.3725)" class="st296" cx="415.84" cy="967.82" rx="16.88" ry="17.71"/>
	
		<ellipse transform="matrix(0.9031 -0.4294 0.4294 0.9031 -409.9032 286.51)" class="st296" cx="429.88" cy="1051.49" rx="16.88" ry="17.71"/>
</g>
<path class="st24" d="M808.52,1439.96l170.04-55.02v-153.36l-170.04,29.59C808.52,1261.18,782.48,1406.6,808.52,1439.96z"/>
<g>
	<defs>
		<polygon id="SVGID_00000070830352025018293570000014649687315251372432_" points="808.52,1439.96 808.52,1270.51 660.14,474.16 
			567.08,1202.9 576.44,1403.67 		"/>
	</defs>
	<clipPath id="SVGID_00000046316480190193574520000010286490972198002868_">
		<use xlink:href="#SVGID_00000070830352025018293570000014649687315251372432_"  style="overflow:visible;"/>
	</clipPath>
	<polygon style="clip-path:url(#SVGID_00000046316480190193574520000010286490972198002868_);fill:#E0D1B7;" points="
		808.52,1439.96 808.52,1270.51 660.14,474.16 567.08,1202.9 576.44,1403.67 	"/>
	<g style="clip-path:url(#SVGID_00000046316480190193574520000010286490972198002868_);">
		<path class="st148" d="M713.18,1449.43l-77.39-32.09c0,0-21.04-188.28,21.93-199.98c42.97-11.7,56.52,28.58,60.35,42.66
			S713.18,1449.43,713.18,1449.43z"/>
		<g>
			<defs>
				<path id="SVGID_00000062184303247696515020000017446354455927583127_" d="M713.18,1449.43l-77.39-32.09
					c0,0-21.04-188.28,21.93-199.98c42.97-11.7,56.52,28.58,60.35,42.66S713.18,1449.43,713.18,1449.43z"/>
			</defs>
			<clipPath id="SVGID_00000043448708468401949770000009860449113199354801_">
				<use xlink:href="#SVGID_00000062184303247696515020000017446354455927583127_"  style="overflow:visible;"/>
			</clipPath>
			<path style="clip-path:url(#SVGID_00000043448708468401949770000009860449113199354801_);fill:#A37A79;" d="M717.93,1226.63
				l1.52,227.42c0,0-17.84-1.49-19.03-2.79c-1.18-1.29-1.08-12.2,0.15-34.41s-4.51-185.47-4.51-185.47s-2.94,226.22-4.6,227.49
				c-1.66,1.27-11.72-6.77-11.72-6.77s-6.24-203.57-4.37-211.75l-6.32,42.26l7.49,177.31l-19.14-17.62l-2.16-189.11l-7.77,202.93
				l-16.64-10.56l4.02-216.21C635.34,1225.1,678.87,1227.45,717.93,1226.63z"/>
		</g>
		<path class="st334" d="M614.32,1306.64c0.44-41.02,4.03-79.17,21.86-98.47c42.47-45.98,94.16,2.93,107.02,55.12
			c9.2,37.33,6.61,189.29,6.61,189.29s-2.61,3.68-10.76,5.23c-1.22,0.23-7.38-12.95-8.55-17.21c-7.01-0.1-7.72,11.53-7.72,11.53
			s-0.06-147.56-2.71-171.46c-3.32-30.02-21.09-51.98-38.85-54.87c-30.93-5.04-40.09,28.35-42.44,53.11
			c-3.48,36.59-2.98,138.43-2.98,138.43s-0.97,1.07-6.84,1c-2.2-0.03-9.09-12.43-9.89-14.6c-2.35-0.58,0.82,5.9-1.29,3.11
			C617.77,1406.85,613.66,1367.59,614.32,1306.64z"/>
		<path class="st199" d="M629.25,1210.39c41.1-46,91.11-0.63,103.54,51.56c8.89,37.33,6.26,195.86,6.26,195.86
			c-17.57,3.75-25.87-8.38-25.87-8.38s-0.26-142.7-2.81-166.59c-3.2-30.02-20.38-51.97-37.56-54.85
			c-29.92-5.02-39.68,26.8-41.97,51.56c-3.38,36.59-1.9,138.79-1.9,138.79s-11.57,1.68-19.75-9.55c0,0-1.79-38.97-1.13-99.92
			C608.51,1267.85,611.99,1229.7,629.25,1210.39z"/>
	</g>
</g>
<path class="st24" d="M585.01,1214.08l74.31-627.24l87.07,674.2l12.68,13.12l20.1-14.88c0,0-104.33-900.53-122.21-927.12
	c-17.88-26.58-117.48,868.29-117.48,868.29L585.01,1214.08z"/>
<polygon class="st334" points="568.83,1240.95 540.74,1245.92 642.29,283.32 660.14,474.16 "/>
<g>
	<path class="st356" d="M1414.14,1153.07c0,0,17.8,1.49,18.45,24.24s-12.43,29.7-19.57,30.85s-19.12-6.14-20.37-22.07
		S1399.71,1152.63,1414.14,1153.07z"/>
	<path class="st198" d="M1417,1152c0,0,17.8,1.49,18.45,24.24c0.66,22.75-12.43,29.7-19.57,30.85c-7.15,1.15-19.12-6.14-20.37-22.07
		C1394.27,1169.09,1402.57,1151.57,1417,1152z"/>
	<path class="st65" d="M1416.63,1158.76c-8.38-0.25-14.02,7.51-15.75,16.58l29.61,0.15
		C1429.24,1159.82,1416.63,1158.76,1416.63,1158.76z"/>
	<path class="st65" d="M1400.4,1183.7c0.77,9.81,6.93,15.29,12.1,16.5l1.45-17.75l-13.61,0.44
		C1400.36,1183.16,1400.37,1183.43,1400.4,1183.7z"/>
	<path class="st65" d="M1418.41,1182.31l-1.06,17.71c4.92-1.4,11.88-6.1,13.06-18.09L1418.41,1182.31z"/>
	<path class="st356" d="M1430.56,1177.07c-0.02-0.54-0.04-1.06-0.08-1.57l-29.61-0.15c-0.47,2.46-0.65,5.02-0.53,7.54l13.61-0.44
		l0.54-6.64l4.26,0.66l-0.35,5.84l12-0.39C1430.55,1180.42,1430.61,1178.81,1430.56,1177.07z"/>
	<path class="st198" d="M1414.06,1176.32l-1.56,23.88c1.17,0.27,2.29,0.33,3.28,0.17c0.49-0.08,1.02-0.19,1.57-0.35l1.41-23.55
		L1414.06,1176.32z"/>
	<polygon class="st198" points="1400.72,1173.89 1430.94,1174.04 1431.13,1180.45 1398.89,1181.48 	"/>
	<polygon class="st198" points="1414.17,1204.41 1415.53,1176.1 1419.8,1176.49 1419.08,1204.07 	"/>
</g>
<path class="st334" d="M623.82,900.13l71.92,5.97c0,0,3.95-103.89-34.4-102.18C622.99,805.63,623.82,900.13,623.82,900.13z"/>
<path class="st357" d="M1185.96,1162.51l18.73-1.95l41.36-85.85l-60.09-3.12C1185.96,1071.59,1148.5,1137.93,1185.96,1162.51z"/>
<path class="st358" d="M1201.87,1161.05l19.4-0.14l-19.4,28.24C1201.87,1189.15,1181.28,1170.9,1201.87,1161.05z"/>
<polygon class="st359" points="1071.3,1155.2 1071.3,1181.54 1201.87,1189.15 1201.87,1161.05 "/>
<path class="st198" d="M786.38,1274.16c0,0-25.28-97.95-46.32-241.33c-14.47-98.61-22.29-220.99-37.19-338.59
	c-19.05-150.36-48.84-300.11-59.83-404.91c-9.03-86.13-0.87-141.9-2.22-142.67l332.76,111.51l144.87,743.98l-11.71,102.7
	l-128.19,126.72L786.38,1274.16z"/>
<polygon class="st199" points="540.74,1245.92 640.83,359.44 759.06,1274.16 786.38,1274.16 640.83,146.67 625.22,146.67 
	522.09,1241.54 "/>
<path class="st65" d="M657.71,814.4c-26.08,1.36-24.98,80.09-24.98,80.09l48.37,1.13C681.1,895.62,683.79,813.04,657.71,814.4z"/>
<path class="st61" d="M632.73,894.49l48.37,1.13c0,0,0.5-15.3-1.02-32.62l-45.62-0.64C632.52,879.43,632.73,894.49,632.73,894.49z"
	/>
<path class="st61" d="M657.71,814.4c-12.66,0.66-18.92,19.57-22,38.85l43.53,1.66C676.67,834.29,670.84,813.72,657.71,814.4z"/>
<path class="st334" d="M634.71,860.35c-0.08,0.67-0.16,1.34-0.24,2.01l45.62,0.64c-0.06-0.67-0.12-1.34-0.18-2.02L634.71,860.35z"/>
<path class="st199" d="M657.99,803.92c-35.65,1.71-34.17,97.83-34.17,97.83l66.15,4.35C689.97,906.1,693.64,802.21,657.99,803.92z
	 M657.71,814.4c13.12-0.68,18.96,19.9,21.52,40.51l-43.53-1.66C638.79,833.97,645.05,815.06,657.71,814.4z M681.1,895.62
	l-48.38-4.06c0,0-0.2-12.13,1.75-29.19c0.08-0.67,0.16-1.34,0.24-2.01l45.19,0.63c0.06,0.68,0.13,1.35,0.18,2.02
	C681.6,880.32,681.1,895.62,681.1,895.62z"/>
<polygon class="st199" points="655.93,810.88 652.55,899.79 661.67,900.13 661.91,811.11 "/>
<path class="st356" d="M923.05,1356.96l-44.73,11.99l-5.84-2.32c0,0-2.76-103.01,24.2-101.38
	C923.63,1266.88,923.05,1356.96,923.05,1356.96z"/>
<path class="st65" d="M900.13,1273.68c17.67,0.61,16.89,79.38,16.89,79.38l-33.1,7.87C883.92,1360.94,881.57,1273.04,900.13,1273.68
	z"/>
<path class="st356" d="M915.68,1319.04c0.06,0.64,0.11,1.28,0.16,1.92l-31.82,2.02c0.04-0.64,1.06-2.7,1.1-3.34L915.68,1319.04z"/>
<path class="st198" d="M878.31,1368.96l44.73-10.45c0,0,1-91.62-23.1-93.25C875.83,1263.63,878.31,1368.96,878.31,1368.96z
	 M915.01,1312.28l-29.43,1.58c1.73-19.65,5.68-39.26,14.55-38.61C908.69,1275.87,912.92,1293.9,915.01,1312.28z M885,1321.57
	c0.04-0.64-0.04-0.22,0-0.86l30.69-1.66c0.06,0.64,0.11,1.28,0.16,1.92c1.32,16.27,1.18,31.7,1.18,31.7l-32.41,4.83
	C884.61,1357.5,883.97,1338.08,885,1321.57z"/>
<polygon class="st198" points="902.66,1271.89 904.94,1356.63 898.78,1356.96 898.62,1272.11 "/>
<path class="st199" d="M685.05,904.82l-67.61-2.83v33.05l67.61,6.07C685.05,941.11,699.42,917.1,685.05,904.82z"/>
<polygon class="st334" points="685.05,904.82 685.05,941.11 700.8,934.65 700.8,898.38 "/>
<path class="st23" d="M706.17,908.77c0,0,8.44,16.05-17.81,8.95c0,0,1.1,8.62-11.57,6.93c-12.67-1.69-6.79-11.15-6.79-11.15
	s-4.94,11.34-12.85,7.26s-6.79-8.28-6.79-8.28s-1.37,12.27-11.2,8.62s-8.4-8.95-8.4-8.95s-8.27,11.88-21.15,3.89
	c-16-9.93-4.45-42.67,23.1-26.09c0,0,11.33-12.37,27.12,0.98c0,0,5.77-9.35,23.03-0.4C682.86,890.52,715.17,879.88,706.17,908.77z"
	/>
<path class="st334" d="M1123.92,1342.63l56.26,4.67c0,0,3.09-81.27-26.91-79.93C1123.27,1268.7,1123.92,1342.63,1123.92,1342.63z"/>
<path class="st65" d="M1150.44,1275.56c-20.4,1.06-19.54,62.65-19.54,62.65l37.84,0.88
	C1168.74,1339.1,1170.84,1274.5,1150.44,1275.56z"/>
<path class="st334" d="M1132.44,1311.51c-0.06,0.53-0.13,1.05-0.19,1.57l35.69,0.5c-0.05-0.52-0.09-1.05-0.14-1.58L1132.44,1311.51z
	"/>
<path class="st199" d="M1150.66,1267.36c-27.89,1.34-26.73,76.53-26.73,76.53l51.74,3.4
	C1175.68,1347.29,1178.55,1266.03,1150.66,1267.36z M1150.44,1275.56c10.27-0.53,14.83,15.56,16.84,31.69l-34.05-1.3
	C1135.64,1290.87,1140.53,1276.08,1150.44,1275.56z M1168.74,1339.1l-37.85-3.18c0,0-0.16-9.49,1.37-22.84
	c0.06-0.52,0.12-1.05,0.19-1.57l35.35,0.49c0.05,0.53,0.1,1.05,0.14,1.58C1169.13,1327.13,1168.74,1339.1,1168.74,1339.1z"/>
<polygon class="st199" points="1149.05,1272.81 1146.4,1342.35 1153.53,1342.63 1153.72,1272.99 "/>
<path class="st199" d="M1171.82,1346.29l-52.89-2.21v25.85l52.89,4.75C1171.82,1374.68,1183.07,1355.9,1171.82,1346.29z"/>
<polygon class="st334" points="1171.82,1346.29 1171.82,1374.68 1184.14,1369.63 1184.14,1341.26 "/>
<path class="st23" d="M1188.35,1349.38c0,0,2.3,14.09-13.93,7c0,0,0.86,6.74-9.05,5.42s-8.09-5.94-8.09-5.94s-2.2,8.75-8.39,5.56
	c-6.19-3.19-4.76-6.79-4.76-6.79s-1.89,9.25-9.58,6.4c-7.69-2.86-5.2-9.01-5.2-9.01s-3.27,6.19-13.34-0.06
	c-12.52-7.77,1.27-33.56,14.87-22.24c0,0,10.33-10.63,22.68-0.19c0,0,13.71-8.59,16.54,5.58
	C1170.11,1335.11,1195.38,1326.78,1188.35,1349.38z"/>
<path class="st356" d="M1433.44,1346.93l-44.73,11.99l-5.84-2.32c0,0-2.76-103.01,24.2-101.38
	C1434.03,1256.85,1433.44,1346.93,1433.44,1346.93z"/>
<path class="st65" d="M1410.52,1263.65c17.67,0.61,16.89,79.38,16.89,79.38l-33.1,7.87
	C1394.31,1350.91,1391.97,1263.01,1410.52,1263.65z"/>
<path class="st356" d="M1426.08,1309.01c0.06,0.64,0.11,1.28,0.16,1.92l-31.82,2.02c0.04-0.64,1.06-2.7,1.1-3.34L1426.08,1309.01z"
	/>
<path class="st198" d="M1388.71,1358.93l44.73-10.45c0,0,1-91.62-23.1-93.25C1386.23,1253.6,1388.71,1358.93,1388.71,1358.93z
	 M1425.4,1302.24l-29.43,1.58c1.73-19.65,5.68-39.26,14.55-38.61C1419.09,1265.84,1423.32,1283.87,1425.4,1302.24z M1395.39,1311.54
	c0.04-0.64-0.04-0.22,0-0.86l30.69-1.66c0.06,0.64,0.11,1.28,0.16,1.92c1.32,16.27,1.18,31.7,1.18,31.7l-32.41,4.83
	C1395.01,1347.46,1394.37,1328.04,1395.39,1311.54z"/>
<polygon class="st198" points="1413.06,1261.86 1415.34,1346.6 1409.18,1346.93 1409.01,1262.07 "/>
<path class="st199" d="M771.03,348.43c0.75,4.12,4.51,7.01,8.69,6.62c5.49-0.51,12.42-0.95,15.51-0.29
	c5.51,1.17-3.22-39.09-9.66-43.7c-6.44-4.61-20.54,0.75-21.91,3.78C762.59,317.18,768.74,335.88,771.03,348.43z"/>
<path class="st199" d="M801.61,310.2c0.75,4.12,4.51,7.01,8.69,6.62c5.49-0.51,12.42-0.95,15.51-0.29
	c5.51,1.17-3.22-39.09-9.66-43.7c-6.44-4.61-20.54,0.75-21.91,3.78C793.18,278.95,799.33,297.65,801.61,310.2z"/>
<path class="st199" d="M830.64,1144.32c0.75,4.12,4.51,7.01,8.69,6.62c5.49-0.51,12.42-0.95,15.51-0.29
	c5.51,1.17-3.22-39.09-9.66-43.7c-6.44-4.61-20.54,0.75-21.91,3.78C822.21,1113.07,828.36,1131.77,830.64,1144.32z"/>
<path class="st199" d="M861.23,1106.1c0.75,4.12,4.51,7.01,8.69,6.62c5.49-0.51,12.42-0.95,15.51-0.29
	c5.51,1.17-3.22-39.09-9.66-43.7c-6.44-4.61-20.54,0.75-21.91,3.78C852.79,1074.85,858.95,1093.55,861.23,1106.1z"/>
<path class="st199" d="M872.27,1158.04c0.5,2.74,2.99,4.65,5.76,4.39c3.64-0.34,8.24-0.63,10.29-0.19
	c3.66,0.78-2.14-25.93-6.41-28.99s-13.63,0.5-14.54,2.51C866.68,1137.31,870.76,1149.71,872.27,1158.04z"/>
<path class="st199" d="M833.38,892.92c0.75,4.12,4.51,7.01,8.69,6.62c5.49-0.51,12.42-0.95,15.51-0.29
	c5.51,1.17-3.22-39.09-9.66-43.7c-6.44-4.61-20.54,0.75-21.91,3.78C824.94,861.67,831.1,880.37,833.38,892.92z"/>
<path class="st199" d="M867.95,681.67c0.68,3.87,4.19,6.6,8.11,6.25c5.15-0.45,11.65-0.82,14.54-0.19
	c5.16,1.13-2.81-36.66-8.82-41.02c-6.01-4.36-19.26,0.59-20.56,3.42C860.21,652.33,865.88,669.89,867.95,681.67z"/>
<path class="st199" d="M763.75,648.9c1.15,6.55,7.09,11.16,13.72,10.58c8.71-0.76,17.16,1.44,24.45-2.86
	c7.7-4.54-4.6-59.48-14.77-66.86c-10.17-7.37-32.59,1-34.79,5.79C750.66,599.25,760.25,628.97,763.75,648.9z"/>
<path class="st199" d="M830.15,497.95c0.97,5.52,5.98,9.41,11.56,8.92c7.35-0.64,16.61-1.17,20.74-0.27
	c7.36,1.61-4-52.29-12.58-58.5c-8.58-6.22-27.47,0.84-29.33,4.88C819.12,456.1,827.2,481.15,830.15,497.95z"/>
<ellipse transform="matrix(0.0512 -0.9987 0.9987 0.0512 -305.2297 1456.2704)" class="st299" cx="613.79" cy="888.77" rx="5.67" ry="6.73"/>
<ellipse transform="matrix(0.0512 -0.9987 0.9987 0.0512 -276.9259 1494.8107)" class="st299" cx="648.22" cy="893.15" rx="2.07" ry="2.45"/>
<ellipse transform="matrix(0.866 -0.5 0.5 0.866 -370.3891 443.9772)" class="st299" cx="643.28" cy="913.14" rx="2.07" ry="2.45"/>
<circle class="st299" cx="674.38" cy="898.08" r="4.13"/>
<circle class="st299" cx="661.39" cy="901.4" r="2.66"/>
<ellipse transform="matrix(0.9995 -0.0318 0.0318 0.9995 -28.2833 20.4455)" class="st299" cx="628.38" cy="899.07" rx="3.95" ry="4.01"/>
<ellipse transform="matrix(0.7722 -0.6354 0.6354 0.7722 -416.8076 611.2567)" class="st299" cx="643.97" cy="886.85" rx="3.65" ry="3.1"/>
<ellipse transform="matrix(0.0512 -0.9987 0.9987 0.0512 -238.7743 2411.3369)" class="st299" cx="1149.65" cy="1331.33" rx="2.07" ry="2.45"/>
<ellipse transform="matrix(0.9995 -0.0318 0.0318 0.9995 -41.9693 36.6187)" class="st299" cx="1129.81" cy="1337.25" rx="3.95" ry="4.01"/>
<ellipse transform="matrix(0.9995 -0.0318 0.0318 0.9995 -42.2142 36.9789)" class="st299" cx="1141.01" cy="1345.13" rx="1.81" ry="1.84"/>
<polygon class="st24" points="972.12,1242.51 1362.73,1279.19 1368.68,1265.24 984.22,1223 978.56,1231.58 "/>
<ellipse transform="matrix(0.9995 -0.0318 0.0318 0.9995 -42.1365 37.7565)" class="st299" cx="1165.48" cy="1343.07" rx="3.95" ry="3"/>
<ellipse transform="matrix(0.7722 -0.6354 0.6354 0.7722 -580.9983 1029.7096)" class="st299" cx="1145.4" cy="1325.04" rx="3.65" ry="3.1"/>
<path class="st360" d="M1082.75,1407.38l7.07-4.95v-162.65l-7.07,0.79C1082.75,1240.57,1076.9,1396.6,1082.75,1407.38z"/>
<path class="st361" d="M588.73,1019.69l6.99-3.92l131.64,13.08l0.78,6.05C728.14,1034.9,613.31,1042.32,588.73,1019.69z"/>
<polygon class="st350" points="588.73,1019.69 728.14,1034.9 733.85,1079.09 585.21,1061.84 "/>
<polygon class="st350" points="1046.03,1231.85 1046.03,1400.74 1082.75,1407.38 1082.75,1235.02 "/>
<path class="st360" d="M1258.91,1435.73l7.07-4.95v-177.05l-7.07,0.79C1258.91,1254.52,1253.05,1424.95,1258.91,1435.73z"/>
<polygon class="st350" points="1222.18,1248.65 1222.18,1429.09 1258.91,1435.73 1258.91,1251.82 "/>
<polygon class="st199" points="978.56,1231.58 1368.68,1265.24 1450.34,997.45 1035.23,987.79 "/>
<polygon class="st198" points="1368.68,1265.24 1442.44,1002.16 1450.34,997.45 1532.28,1220.46 1520.79,1219.31 1448,1020.28 
	1379.12,1257.73 "/>
<path class="st198" d="M1211.09,1097.91c-0.75,4.12-4.51,7.01-8.69,6.62c-5.49-0.51-12.42-0.95-15.51-0.29
	c-5.51,1.17,3.22-39.09,9.66-43.7s20.54,0.75,21.91,3.78C1219.52,1066.66,1213.37,1085.36,1211.09,1097.91z"/>
<path class="st198" d="M1161.32,1129.01c-0.75,4.12-4.51,7.01-8.69,6.62c-5.49-0.51-12.42-0.95-15.51-0.29
	c-5.51,1.17,3.22-39.09,9.66-43.7s20.54,0.75,21.91,3.78C1169.75,1097.76,1163.6,1116.46,1161.32,1129.01z"/>
<path class="st198" d="M1176.52,1182.96c-0.5,2.74-2.99,4.65-5.76,4.39c-3.64-0.34-8.24-0.63-10.29-0.19
	c-3.66,0.78,2.14-25.93,6.41-28.99s13.63,0.5,14.54,2.51C1182.12,1162.22,1178.04,1174.63,1176.52,1182.96z"/>
<path class="st198" d="M1332.91,1133.21c-0.7,3.84-4.2,6.53-8.09,6.17c-5.11-0.48-11.57-0.88-14.45-0.27c-5.13,1.09,3-36.41,9-40.7
	s19.13,0.7,20.41,3.52C1340.77,1104.1,1335.04,1121.52,1332.91,1133.21z"/>
<path class="st198" d="M1057.59,1083.82c-0.43,2.38-2.61,4.05-5.02,3.83c-3.17-0.3-7.18-0.55-8.97-0.17
	c-3.19,0.68,1.86-22.6,5.59-25.26s11.88,0.43,12.67,2.19C1062.47,1065.75,1058.91,1076.56,1057.59,1083.82z"/>
<path class="st198" d="M1075.19,1107.47c-0.5,2.73-2.98,4.63-5.74,4.38c-3.63-0.34-8.21-0.63-10.25-0.19
	c-3.64,0.77,2.13-25.84,6.39-28.89c4.26-3.05,13.58,0.5,14.49,2.5C1080.77,1086.81,1076.7,1099.17,1075.19,1107.47z"/>
<g>
	<path class="st23" d="M1049.06,1405.54c3.94-6.36,6.06-14.56,1.3-23.81c0,0-3.67-9.32-16.35-11.68c0,0-3.64-37.43-30.92-32.68
		c-37.58,6.52-26.23,55.09-26.23,55.09s-5.61-23.48-26.86-5.08c-11.65,10.06-3.83,18.62,5.63,24.29c8.31,4.93,17.51,7.5,26.85,7.43
		l43.73-0.01C1035.17,1419.09,1043.73,1414.13,1049.06,1405.54z"/>
	<g>
		<g>
			<defs>
				<path id="SVGID_00000108298359734580370410000002518441202481511355_" d="M1049.06,1405.54c3.94-6.36,6.06-14.56,1.3-23.81
					c0,0-3.67-9.32-16.35-11.68c0,0-2.49-37.81-29.78-33.06c-37.58,6.52-28.46,52.37-28.46,52.37s-7.86-28.81-29.15-10.4
					c-11.65,10.06-3.32,29.82,8.99,32.74c8.31,4.93,17.51,7.5,26.85,7.43l43.73-0.01
					C1035.17,1419.09,1043.73,1414.13,1049.06,1405.54z"/>
			</defs>
			<clipPath id="SVGID_00000023976638166525781510000002136034772417261447_">
				<use xlink:href="#SVGID_00000108298359734580370410000002518441202481511355_"  style="overflow:visible;"/>
			</clipPath>
			<g style="clip-path:url(#SVGID_00000023976638166525781510000002136034772417261447_);">
				<path class="st76" d="M962.2,1415.05c0,0-11.08-12.35-6.04-20.9c4.64-7.85,11.53-2.88,17.28,2.69c3.25,3.14,9.02,1.37,9.33-3.63
					c1.38-21.13,22.87-40.59,48.19-13.69c4.56,4.85,3.51-10.63,2.09-14.52c-5.14-14.06,22.18-24.37-1.8-28.38
					c-35.74-5.97-69.21,3.87-69.51,5.08c-0.3,1.21-28.96,42.89-28.96,42.89l6.35,38.69L962.2,1415.05z"/>
			</g>
		</g>
	</g>
	<path class="st23" d="M1098.76,1399.59c3.09-6.25,4.36-13.97-0.75-21.85c0,0-4.11-8.08-15.9-8.8c0,0-6.37-33.71-30.94-26.3
		c-33.84,10.2-19.5,53.2-19.5,53.2s14.01-4.31-3.93,14.87c-9.83,10.49-23.03,0.95-13.92,5.05c8,3.55,4.04,0.59,12.38,3.32
		l36.47,0.97C1083.04,1422.38,1094.58,1408.03,1098.76,1399.59z"/>
</g>
<g>
	<path class="st350" d="M490.8,1281.45c0,0,5.65,106.64,6.8,120.59s19.12,5.54,18.2-0.18s-15.9-113.22-15.9-113.22L490.8,1281.45z"
		/>
	<g>
		<path class="st23" d="M495.78,1320.87c0,0,85.06,22.36,81.96-43.22c0,0,43.75-30.78,32.16-71.06
			c-11.58-40.27-40.11-36.59-32.16-41.04c18.54-10.39,19.89-71.07-26.78-61.06c0,0-16.48-41.77-63.24-32.4
			c-49.53,9.93-35.36,51.78-35.36,51.78s-39.43,16.16-22.99,47.4c0,0-73.65,62.51,8.27,113.6
			C437.64,1284.88,425.24,1346,495.78,1320.87z"/>
		
			<ellipse transform="matrix(0.8208 -0.5712 0.5712 0.8208 -628.7422 512.1082)" class="st299" cx="501.78" cy="1258.09" rx="15.07" ry="15.81"/>
		
			<ellipse transform="matrix(0.8208 -0.5712 0.5712 0.8208 -600.1633 533.2014)" class="st299" cx="549.69" cy="1223.09" rx="8.13" ry="9.51"/>
		
			<ellipse transform="matrix(0.8208 -0.5712 0.5712 0.8208 -565.6985 469.9358)" class="st299" cx="466.09" cy="1136.53" rx="6.34" ry="7.43"/>
		
			<ellipse transform="matrix(0.976 -0.2177 0.2177 0.976 -232.0078 139.0048)" class="st299" cx="514.9" cy="1122.51" rx="12.37" ry="10.57"/>
		
			<ellipse transform="matrix(0.8208 -0.5712 0.5712 0.8208 -619.0508 473.0404)" class="st299" cx="444.37" cy="1223.11" rx="7.96" ry="8.35"/>
		
			<ellipse transform="matrix(0.8208 -0.5712 0.5712 0.8208 -591.3556 518.5634)" class="st299" cx="530.76" cy="1201.73" rx="7.96" ry="8.35"/>
	</g>
</g>
<g>
	<path class="st76" d="M1098.17,891.36c0,0-62.73-41.91-44.16,21.58c0,0-72.97,11.9-25.8,61.89c47.17,49.99,53.81,12.08,53.81,12.08
		s11.53,74.2,43.91,33.96C1158.31,980.64,1098.17,891.36,1098.17,891.36z"/>
	
		<ellipse transform="matrix(0.8047 -0.5937 0.5937 0.8047 -353.9142 816.7312)" class="st351" cx="1064.37" cy="946.27" rx="12.61" ry="10.4"/>
</g>
<g>
	<path class="st350" d="M1544.32,1398.45c0,0-16.44,105.04-18.2,118.87s17.49,9.33,17.77,3.57c0.28-5.76,7.81-113.56,7.81-113.56
		L1544.32,1398.45z"/>
	<path class="st350" d="M1546.86,1441.87c0,0,43.01-26.47,40.58-59.55c0,0,10.8,37.5-38.16,68.92
		C1549.28,1451.23,1538.62,1447.71,1546.86,1441.87z"/>
	<path class="st350" d="M1544.83,1445.06c0,0-29.43-16.28-28.84-38.35c0,0-6.02,25.28,27.52,44.66
		C1543.51,1451.37,1550.49,1448.69,1544.83,1445.06z"/>
	<path class="st76" d="M1547.37,1416.84c0,0-88.09,25.8-78.92-38.95c0,0-29.96-23.43-14.73-62.28c15.23-38.85,43.5-33.07,35.7-37.7
		c-27.01-16.06-13.12-72.31,32.23-58.05c0,0-4.29-47.01,41.7-55.86c49.4-9.51,54.26,84.23,54.26,84.23s52,8.04,18.39,49.14
		c0,0,50.98,49.78-15.77,81.31C1620.23,1378.69,1614.99,1448.31,1547.37,1416.84z"/>
	
		<ellipse transform="matrix(0.4111 -0.9116 0.9116 0.4111 -263.7336 2189.5244)" class="st296" cx="1562.85" cy="1298.89" rx="13.18" ry="12.56"/>
	
		<ellipse transform="matrix(0.9408 -0.3389 0.3389 0.9408 -359.3289 629.9108)" class="st296" cx="1624.01" cy="1343.85" rx="9.64" ry="7.94"/>
	<circle class="st296" cx="1610.92" cy="1273.06" r="6.59"/>
	<circle class="st296" cx="1562.02" cy="1357.61" r="10.44"/>
	<circle class="st296" cx="1466.55" cy="1310.56" r="12.9"/>
	<circle class="st296" cx="1553.42" cy="1197.7" r="7.43"/>
	<circle class="st296" cx="1576.7" cy="1333.51" r="5.62"/>
</g>
<g>
	<path class="st350" d="M377.56,1427.06c0,0-14.95,109.73,11.28,142.74c0,0-20.59,14.95-31.06,0.28
		C351.02,1560.61,348.08,1481.51,377.56,1427.06z"/>
	<path class="st350" d="M363.67,1484.96c0,0-23.28-40.31-19.68-102.47c0,0-21.16,68.27,19.68,129.76c1.91,2.88,0,1.41,0,1.41
		V1484.96z"/>
	<path class="st76" d="M380.09,1440.24c0,0,59,15.41,56.98-53.03c0,0,32.78-2.82,30.85-42.82c-2.11-43.65-41.42-39.47-32.76-43.39
		c29.97-13.57,22.06-73.72-26.79-64.15c0,0,11.67-56.17-36.9-62.98c-83.9-11.76-66.26,81.35-66.26,81.35s-58,23.82-27.8,70.5
		c0,0-47.18,41.8,18.62,82.37C296.02,1408.08,306.07,1465.12,380.09,1440.24z"/>
</g>
<g>
	<path class="st350" d="M1729.35,1210.01c0,0-6.17,93.33-25.31,118.66c0,0,9.6,14.37,17.43,3.01
		C1726.54,1324.34,1738.7,1258.28,1729.35,1210.01z"/>
	<path class="st76" d="M1728.8,1279.97c0,0-60.67,19.14-55.24-25.85c0,0-21.09-15.8-11.1-42.94c9.99-27.14,29.66-23.54,24.19-26.64
		c-18.94-10.74-10.13-49.92,21.5-40.68c0,0,13.44-27.93,45.16-19.13c33.6,9.32,21.74,37.41,21.74,37.41s36.15,4.82,13.45,33.78
		c0,0,36.04,33.76-9.76,56.57C1778.74,1252.49,1776.11,1300.81,1728.8,1279.97z"/>
</g>
</svg>
