<svg xmlns="http://www.w3.org/2000/svg" viewBox="0 0 322 323" width="322" height="323">
	<style>
		tspan { white-space:pre }
		.shp0 { fill: #717171 } 
		.shp1 { fill: #905e20 } 
		.shp2 { fill: #8d8d8d } 
		.shp3 { fill: #b57425 } 
		.shp4 { fill: #ff6c6c } 
		.shp5 { fill: #ff4949 } 
		.shp6 { fill: #b35f49 } 
		.shp7 { fill: #99503d } 
		.shp8 { fill: #b4b4b4 } 
		.shp9 { fill: #949494 } 
	</style>
	<g id="Layer">
		<path id="Layer" class="shp0" d="M105 42L73.5 42L70 21L73.5 0L105 0L105 42Z" />
		<path id="Layer" class="shp0" d="M161 92.14L143.5 106.13L126 92.14L126 1.14L161 1.14L161 92.14Z" />
		<path id="Layer" class="shp1" d="M35 36.14L63 36.14L63 183.13L35 183.13L35 36.14Z" />
		<path id="Layer" class="shp1" d="M126 120.14L161 120.14L161 165.63C161 175.3 153.17 183.13 143.5 183.13C133.84 183.13 126 175.3 126 165.63L126 120.14Z" />
		<path id="Layer" class="shp2" d="M70 22.13C70 33.74 60.6 43.13 49 43.13C37.41 43.13 28 33.74 28 22.13C28 10.54 37.41 1.14 49 1.14C60.6 1.14 70 10.54 70 22.13Z" />
		<path id="Layer" class="shp0" d="M14 8.14L28 8.14L28 36.14L14 36.14C6.27 36.14 0 29.87 0 22.13C0 14.4 6.27 8.14 14 8.14Z" />
		<path id="Layer" class="shp2" d="M126 106.13L161 106.13L161 120.14L126 120.14L126 106.13Z" />
		<path id="Layer" class="shp3" d="M45.5 165.63L52.5 165.63L52.5 183.13L45.5 183.13L45.5 165.63Z" />
		<path id="Layer" class="shp3" d="M45.5 151.63L52.5 151.63L52.5 158.63L45.5 158.63L45.5 151.63Z" />
		<path id="Layer" class="shp3" d="M45.5 137.63L52.5 137.63L52.5 144.64L45.5 144.64L45.5 137.63Z" />
		<path id="Layer" class="shp3" d="M143.5 172.64C141.56 172.64 140 171.07 140 169.13C140 167.2 141.56 165.63 143.5 165.63L143.5 134.13C143.5 132.2 145.06 130.63 147 130.63C148.93 130.63 150.5 132.2 150.5 134.13L150.5 165.63C150.5 169.5 147.36 172.63 143.5 172.64Z" />
	</g>
	<path id="Layer" class="shp4" d="M208.46 294.67L201.33 273.06C201.02 272.35 200.62 271.64 200.11 271.03C199.49 270.51 198.78 270.11 198.07 269.8L176.46 262.67C174.63 262.06 172.59 262.47 171.27 263.89L149.67 285.5C146.92 288.14 148.04 292.73 151.61 293.95L170.86 300.27L177.18 319.53C178.4 323.09 182.99 324.21 185.64 321.47L207.24 299.86C208.66 298.54 209.07 296.5 208.46 294.67L208.46 294.67Z" />
	<path id="Layer" class="shp4" d="M208.46 294.67C209.07 296.5 208.66 298.54 207.24 299.86L185.64 321.46C182.99 324.21 178.4 323.09 177.18 319.53L170.86 300.27L200.11 271.03C200.61 271.64 201.02 272.35 201.33 273.06L208.46 294.67Z" />
	<path id="Layer" class="shp5" d="M208.46 294.67C209.07 296.5 208.66 298.54 207.24 299.86L185.64 321.46C182.99 324.21 178.4 323.09 177.18 319.53L170.86 300.27L200.11 271.03C200.61 271.64 201.02 272.35 201.33 273.06L208.46 294.67Z" />
	<path id="Layer" class="shp6" d="M298.9 179.37L164.03 314.33C162.1 316.27 158.84 316.27 156.8 314.33C154.86 312.3 154.86 309.03 156.8 307.1L291.77 172.23C293.7 170.2 296.96 170.2 298.9 172.23C300.93 174.17 300.93 177.43 298.9 179.37L298.9 179.37Z" />
	<path id="Layer" class="shp7" d="M298.9 179.37L164.03 314.33C162.1 316.27 158.84 316.27 156.8 314.33L298.9 172.23C300.93 174.17 300.93 177.43 298.9 179.37L298.9 179.37Z" />
	<path id="Layer" class="shp8" d="M320.5 150.63C319.18 149.21 317.14 148.69 315.3 149.41L272.1 163.78C270.06 164.49 268.64 166.43 268.64 168.57C268.64 170.81 270.06 172.75 272.1 173.46L291.25 179.88L297.67 199.03C298.39 201.07 300.32 202.5 302.56 202.5C304.71 202.5 306.64 201.07 307.36 199.03L321.72 155.83C322.34 153.99 321.93 151.95 320.5 150.63L320.5 150.63Z" />
	<path id="Layer" class="shp9" d="M321.72 155.83L307.36 199.03C306.64 201.07 304.71 202.5 302.56 202.5C300.32 202.5 298.39 201.07 297.68 199.03L291.26 179.88L320.5 150.63C321.93 151.95 322.34 153.99 321.72 155.83Z" />
	<path id="Layer copy" class="shp4" d="M213.54 128.91L220.67 150.51C220.98 151.22 221.38 151.93 221.89 152.54C222.51 153.06 223.22 153.46 223.93 153.77L245.54 160.9C247.37 161.51 249.41 161.1 250.73 159.68L272.33 138.08C275.08 135.43 273.96 130.84 270.39 129.62L251.14 123.3L244.82 104.04C243.6 100.48 239.01 99.36 236.36 102.11L214.76 123.71C213.34 125.03 212.93 127.07 213.54 128.91L213.54 128.91Z" />
	<path id="Layer copy 2" class="shp4" d="M213.54 128.91C212.93 127.07 213.34 125.03 214.76 123.71L236.36 102.11C239.01 99.36 243.6 100.48 244.82 104.04L251.14 123.3L221.89 152.54C221.39 151.93 220.98 151.22 220.67 150.51L213.54 128.91Z" />
	<path id="Layer copy 3" class="shp5" d="M213.54 128.91C212.93 127.07 213.34 125.03 214.76 123.71L236.36 102.11C239.01 99.36 243.6 100.48 244.82 104.04L251.14 123.3L221.89 152.54C221.39 151.93 220.98 151.22 220.67 150.51L213.54 128.91Z" />
	<path id="Layer copy 4" class="shp6" d="M123.1 244.2L257.97 109.24C259.9 107.3 263.16 107.3 265.2 109.24C267.14 111.28 267.14 114.54 265.2 116.47L130.23 251.34C128.3 253.38 125.04 253.38 123.1 251.34C121.07 249.4 121.07 246.14 123.1 244.2L123.1 244.2Z" />
	<path id="Layer copy 5" class="shp7" d="M123.1 244.2L257.97 109.24C259.9 107.3 263.16 107.3 265.2 109.24L123.1 251.34C121.07 249.4 121.07 246.14 123.1 244.2L123.1 244.2Z" />
	<path id="Layer copy 6" class="shp8" d="M101.5 272.94C102.82 274.36 104.86 274.88 106.7 274.16L149.9 259.79C151.94 259.08 153.36 257.14 153.36 255.01C153.36 252.76 151.94 250.83 149.9 250.11L130.75 243.69L124.33 224.54C123.61 222.5 121.68 221.07 119.44 221.07C117.29 221.07 115.36 222.5 114.64 224.54L100.28 267.74C99.66 269.58 100.07 271.62 101.5 272.94L101.5 272.94Z" />
	<path id="Layer copy 7" class="shp9" d="M100.28 267.74L114.64 224.54C115.36 222.5 117.29 221.07 119.44 221.07C121.68 221.07 123.61 222.5 124.32 224.54L130.74 243.69L101.5 272.94C100.07 271.62 99.66 269.58 100.28 267.74Z" />
</svg>