<svg version="1.2" baseProfile="tiny-ps" xmlns="http://www.w3.org/2000/svg" viewBox="0 0 512 512" width="512" height="512">
	<title>pot-svg</title>
	<style>
		tspan { white-space:pre }
		.shp0 { fill: #ccf49f } 
		.shp1 { fill: #b3e59f } 
		.shp2 { fill: #ffa95f } 
		.shp3 { fill: #f7964d } 
		.shp4 { fill: #5d5360 } 
		.shp5 { fill: #808c88 } 
		.shp6 { fill: #65716c } 
		.shp7 { fill: #514a54 } 
		.shp8 { fill: #ffc269 } 
		.shp9 { fill: #ffe07d } 
		.shp10 { fill: #c3aff0 } 
	</style>
	<g id="Layer">
		<path id="Layer" class="shp0" d="M93.51 191.08C96.27 165.23 118.15 145.09 144.73 145.09C149.33 145.09 153.8 145.7 158.04 146.84C163.48 148.29 169.23 146.51 173.22 142.53C184.39 131.39 199.81 124.49 216.84 124.49C228.94 124.49 240.22 127.97 249.75 133.98C254.83 137.18 261.27 137.18 266.35 133.98C271.68 130.62 277.55 128.05 283.8 126.44C288.74 125.17 339.47 142.83 339.47 142.83L346.9 145.5C350.3 147.29 354.25 147.85 358.05 146.84C362.3 145.7 373.56 148.41 373.56 148.41C381.83 150.51 399.37 165.36 402.01 191.34L255.98 219.38L93.51 191.08Z" />
		<path id="Layer" class="shp1" d="M422.61 191.33L391.71 191.33C390.39 178.34 384.25 166.78 375.1 158.48C369.51 153.4 362.8 149.53 355.38 147.29C356.28 147.23 357.16 147.08 358.05 146.84C362.29 145.7 366.76 145.1 371.37 145.1C384.71 145.1 396.86 150.17 406 158.48C415.15 166.78 421.29 178.34 422.61 191.33Z" />
		<path id="Layer" class="shp1" d="M346.9 145.5C344.79 145.23 342.65 145.1 340.46 145.1C335.86 145.1 331.39 145.7 327.14 146.84C321.7 148.29 315.96 146.51 311.97 142.53C306.38 136.96 299.73 132.45 292.35 129.34C289.6 128.17 286.75 127.2 283.8 126.44C288.75 125.16 293.92 124.49 299.26 124.49C307.78 124.49 315.88 126.21 323.26 129.34C330.63 132.45 337.28 136.96 342.87 142.53C344.08 143.73 345.44 144.73 346.9 145.5L346.9 145.5Z" />
		<path id="Layer" class="shp2" d="M380.41 399.54L417.71 469.93C421.35 476.79 416.37 485.05 408.61 485.05L388.44 485.05C380.81 485.05 373.8 480.84 370.23 474.1L343.89 424.41L354.75 385.13L380.41 399.54Z" />
		<path id="Layer" class="shp3" d="M438.49 485.06L407.58 485.06C415.34 485.06 420.31 476.79 416.68 469.93L379.37 399.53L352.67 392.61L354.74 385.13L410.28 399.53L447.58 469.93C451.22 476.79 446.24 485.06 438.49 485.06L438.49 485.06Z" />
		<path id="Layer" class="shp2" d="M101.72 399.54L64.42 469.93C60.78 476.79 65.75 485.05 73.52 485.05L123.56 485.05C131.19 485.05 138.2 480.84 141.77 474.1L168.11 424.41L153.01 383.1L101.72 399.54Z" />
		<path id="Layer" class="shp4" d="M496.55 295.5L451.73 295.5L441.43 264.6L496.55 264.6C505.08 264.6 512 271.51 512 280.05C512 288.58 505.08 295.5 496.55 295.5L496.55 295.5Z" />
		<path id="Layer" class="shp4" d="M15.45 295.5L60.27 295.5L70.57 264.6L15.45 264.6C6.92 264.6 0 271.51 0 280.05C0 288.58 6.92 295.5 15.45 295.5L15.45 295.5Z" />
		<path id="Layer" class="shp5" d="M313.69 425.3L173.59 425.3C111 425.3 60.27 374.57 60.27 311.98L60.27 213.09L427.01 213.09L427.01 311.98C427.01 374.57 376.27 425.3 313.69 425.3Z" />
		<path id="Layer" class="shp6" d="M451.73 233.69L451.73 311.99C451.73 374.57 401 425.31 338.41 425.31L307.51 425.31C370.09 425.31 420.83 374.57 420.83 311.99L420.83 223.39L451.73 233.69Z" />
		<path id="Layer" class="shp4" d="M431.44 280.05L420.83 282.23L417.18 279.54C414.43 277.5 410.74 277.5 407.99 279.53L387.23 294.89C378.98 300.99 367.9 300.99 359.66 294.89L338.89 279.53C336.14 277.5 332.45 277.5 329.7 279.53L308.93 294.89C300.69 300.99 289.61 300.99 281.36 294.89L260.6 279.53C257.85 277.5 254.16 277.5 251.41 279.53L230.64 294.89C222.4 300.99 211.31 300.99 203.07 294.89L182.3 279.53C179.55 277.5 175.86 277.5 173.11 279.53L152.35 294.89C144.11 300.99 133.02 300.99 124.78 294.89L104.01 279.53C101.26 277.5 97.57 277.5 94.82 279.53L60.27 305.22L60.27 285.96L85.62 267.11C93.88 261.01 104.96 261.01 113.2 267.1L133.97 282.46C136.72 284.49 140.4 284.5 143.15 282.46L163.92 267.1C172.17 261.02 183.25 261.02 191.49 267.1L212.26 282.46C215.01 284.49 218.7 284.5 221.45 282.46L242.22 267.1C250.47 261.02 261.54 261.02 269.78 267.1L290.55 282.46C293.3 284.49 296.99 284.5 299.74 282.46L320.51 267.1C328.76 261.02 339.83 261.02 348.08 267.1L368.84 282.46C371.6 284.49 375.28 284.5 378.03 282.46L398.8 267.1C405.31 262.3 413.58 261.29 420.83 264.06C422.77 264.81 424.63 265.82 426.37 267.1L431.44 280.05Z" />
		<path id="Layer" class="shp7" d="M451.73 285.84L451.73 305.06L420.83 282.24L420.83 264.06C422.77 264.81 424.63 265.81 426.37 267.1L451.73 285.84Z" />
		<path id="Layer" class="shp4" d="M429.59 233.69L54.6 233.69C46.07 233.69 39.15 226.77 39.15 218.24L39.15 202.78C39.15 194.25 46.07 187.33 54.6 187.33L429.59 187.33C438.12 187.33 445.04 194.25 445.04 202.78L445.04 218.24C445.04 226.77 438.12 233.69 429.59 233.69Z" />
		<path id="Layer" class="shp7" d="M472.85 202.79L472.85 218.24C472.85 226.77 465.93 233.69 457.4 233.69L426.5 233.69C435.02 233.69 441.95 226.77 441.95 218.24L441.95 202.79C441.95 194.25 435.02 187.34 426.5 187.34L457.4 187.34C465.93 187.34 472.85 194.25 472.85 202.79L472.85 202.79Z" />
		<path id="Layer" class="shp8" d="M249.77 485.05L232.35 485.05C219.3 485.05 209.54 473.07 212.17 460.29L221.95 412.87C224.17 402.12 231.21 393.38 240.54 388.75C245.23 386.42 256.84 396.72 260.18 412.87L269.95 460.29C272.59 473.07 262.82 485.05 249.77 485.05L249.77 485.05Z" />
		<path id="Layer" class="shp2" d="M279.65 485.06L248.75 485.06C261.8 485.06 271.56 473.08 268.92 460.29L259.14 412.87C257.48 404.8 253.1 397.86 247.06 392.95C245.06 391.32 242.88 389.91 240.55 388.76C245.24 386.43 250.49 385.13 256 385.13C264.24 385.13 271.93 388.03 277.97 392.95C284 397.86 288.39 404.8 290.05 412.87L299.83 460.29C302.46 473.08 292.71 485.06 279.65 485.06L279.65 485.06Z" />
		<path id="Layer" class="shp9" d="M125.16 52.58L125.44 55.16C127.03 69.55 138.39 80.91 152.78 82.49L155.35 82.77C156.58 82.91 156.58 84.69 155.35 84.82L152.78 85.11C138.39 86.69 127.03 98.05 125.44 112.44L125.16 115.01C125.03 116.24 123.25 116.24 123.11 115.01L122.83 112.44C121.24 98.05 109.88 86.69 95.49 85.1L92.92 84.82C91.7 84.69 91.7 82.91 92.92 82.77L95.49 82.49C109.88 80.91 121.24 69.54 122.83 55.16L123.11 52.58C123.25 51.36 125.03 51.36 125.16 52.58L125.16 52.58Z" />
		<path id="Layer" class="shp10" d="M254.96 27.86L254.68 30.43C253.09 44.82 241.73 56.18 227.34 57.77L224.77 58.05C223.55 58.19 223.55 59.96 224.77 60.1L227.34 60.38C241.73 61.97 253.09 73.33 254.68 87.72L254.96 90.29C255.09 91.51 256.87 91.51 257.01 90.29L257.29 87.72C258.88 73.33 270.24 61.97 284.63 60.38L287.2 60.1C288.42 59.96 288.42 58.19 287.2 58.05L284.63 57.77C270.24 56.18 258.88 44.82 257.29 30.43L257.01 27.86C256.87 26.64 255.09 26.64 254.96 27.86L254.96 27.86Z" />
		<path id="Layer" class="shp9" d="M388.89 52.58L389.17 55.16C390.75 69.55 402.12 80.91 416.5 82.49L419.08 82.77C420.3 82.91 420.3 84.69 419.08 84.82L416.5 85.11C402.12 86.69 390.75 98.05 389.17 112.44L388.89 115.01C388.75 116.24 386.97 116.24 386.84 115.01L386.56 112.44C384.97 98.05 373.61 86.69 359.22 85.1L356.65 84.82C355.43 84.69 355.43 82.91 356.65 82.77L359.22 82.49C373.61 80.91 384.97 69.54 386.56 55.16L386.84 52.58C386.97 51.36 388.75 51.36 388.89 52.58L388.89 52.58Z" />
	</g>
</svg>