<svg xmlns="http://www.w3.org/2000/svg" viewBox="0 0 512 512" width="512" height="512">
	<style>
		tspan { white-space:pre }
		.shp0 { fill: #f2f2fc } 
		.shp1 { fill: #e2d9fb } 
		.shp2 { fill: #45c094 } 
		.shp3 { fill: #3daa83 } 
		.shp4 { fill: #fed843 } 
		.shp5 { fill: #fabe2c } 
		.shp6 { fill: #c7c1dc } 
	</style>
	<path id="Layer" class="shp0" d="M256 512C162.04 512 85.59 435.56 85.59 341.59C85.59 273.1 126.8 211.39 189.18 184.79L189.18 114.36L322.82 114.36L322.82 184.79C385.2 211.39 426.41 273.1 426.41 341.59C426.41 435.56 349.96 512 256 512L256 512Z" />
	<path id="Layer" class="shp1" d="M322.82 184.79L322.82 114.36L255 114.36L255 511.99C255.33 511.99 255.67 512 256 512C349.96 512 426.41 435.55 426.41 341.59C426.41 273.1 385.2 211.39 322.82 184.79L322.82 184.79Z" />
	<path id="Layer" class="shp2" d="M92.39 294C87.95 309.22 85.59 325.21 85.59 341.59C85.59 435.56 162.04 512 256 512C349.96 512 426.41 435.56 426.41 341.59C426.41 325.21 424.05 309.22 419.61 294L92.39 294Z" />
	<path id="Layer" class="shp3" d="M419.61 293L255 293L255 510.99C255.33 510.99 255.67 511 256 511C349.96 511 426.41 434.56 426.41 340.59C426.41 324.21 424.05 308.22 419.61 293L419.61 293Z" />
	<path id="Layer" class="shp4" d="M320.38 85.64L191.62 85.64L176.29 0L335.71 0L320.38 85.64Z" />
	<path id="Layer" class="shp5" d="M255 0L255 85.64L320.38 85.64L335.71 0L255 0Z" />
	<path id="Layer" class="shp1" d="M341.86 135.11L170.14 135.11L170.14 55.72L341.86 55.72L341.86 135.11Z" />
	<path id="Layer" class="shp6" d="M255 55.72L341.86 55.72L341.86 135.11L255 135.11L255 55.72Z" />
</svg>