<svg xmlns="http://www.w3.org/2000/svg" viewBox="0 0 512 512" width="512" height="512">
	<style>
		tspan { white-space:pre }
		.shp0 { fill: #e6e9ed } 
		.shp1 { fill: #ccd1d9 } 
		.shp2 { fill: #ed5564 } 
		.shp3 { fill: #9118d6 } 
		.shp4 { fill: #000000 } 
	</style>
	<path id="Layer" class="shp0" d="M92 479.98L358.64 216.66L300.64 149.99L23.34 426.66L8.65 497.31L92 479.98Z" />
	<path id="Layer" class="shp1" d="M402.98 245.99L423.98 223.99L287.33 91.67L274.65 113.67L402.98 245.99Z" />
	<path id="Layer" class="shp2" d="M378.49 168.84L464.98 81L433.48 53.34L343.99 137.5L378.49 168.84Z" />
	<path id="Layer" class="shp1" d="M438.98 39.75C438.98 24.14 451.64 11.5 467.23 11.5C482.82 11.5 495.48 24.14 495.48 39.75C495.48 55.36 482.83 68 467.23 68C451.64 68 438.98 55.36 438.98 39.75Z" />
	<path id="Layer" fill-rule="evenodd" class="shp3" d="M0.28 498.92L18.34 420.52C18.78 418.58 19.78 416.78 21.19 415.36L288.3 148.26L258.14 118.09C253.96 113.93 253.96 107.17 258.14 103L280.77 80.37C282.77 78.37 285.47 77.25 288.3 77.25C291.14 77.25 293.85 78.37 295.85 80.37L341.11 125.62C341.13 125.6 426.76 39.97 426.76 39.97C427.39 29.95 431.51 20.12 439.14 12.5C447.2 4.44 457.92 0 469.32 0C480.71 0 491.42 4.44 499.48 12.5C507.54 20.56 511.98 31.28 511.98 42.67C511.98 54.06 507.54 64.78 499.48 72.84C492.06 80.26 482.39 84.59 472 85.25L386.36 170.88L431.61 216.15C435.76 220.3 435.76 227.05 431.61 231.23L408.98 253.85C406.98 255.85 404.26 256.97 401.44 256.97C398.61 256.97 395.89 255.85 393.89 253.85L363.74 223.68L96.62 490.79C95.2 492.2 93.42 493.2 91.47 493.64L13.06 511.7C9.48 512.54 5.72 511.45 3.13 508.86C0.53 506.26 -0.56 502.51 0.28 498.92ZM381.94 114.97L412.11 114.97L420.94 106.12L390.77 106.12L381.94 114.97ZM432.56 64.34L412.11 84.8L442.26 84.8L447.64 79.44C444.58 77.62 441.73 75.42 439.14 72.84C436.55 70.23 434.36 67.37 432.56 64.34ZM454.23 57.75C458.26 61.78 463.61 64 469.33 64C475.01 64 480.37 61.78 484.4 57.75C488.42 53.72 490.65 48.37 490.65 42.67C490.65 36.97 488.42 31.61 484.4 27.59C480.37 23.56 475.01 21.34 469.33 21.34C463.61 21.34 458.26 23.56 454.23 27.59C445.92 35.91 445.92 49.44 454.23 57.75ZM280.77 110.54L310.93 140.71L371.27 201.06L401.44 231.23L408.98 223.68L333.55 148.26L288.3 103L280.77 110.54ZM356.17 140.71L371.27 155.81L390.77 136.31L360.61 136.31L356.17 140.71ZM24.89 487.09L83.68 473.54L348.64 208.59L333.55 193.51L147.87 379.21C143.71 383.36 136.97 383.36 132.78 379.21C128.62 375.03 128.62 368.27 132.78 364.11L318.47 178.43L303.39 163.34L38.44 428.3L24.89 487.09Z" />
	<path id="Layer" class="shp4" d="M469.32 53.34C475.2 53.34 479.98 48.56 479.98 42.67C479.98 36.78 475.2 32 469.32 32C463.42 32 458.64 36.78 458.64 42.67C458.64 48.56 463.42 53.34 469.32 53.34Z" />
	<g id="Layer">
	</g>
</svg>