<svg xmlns="http://www.w3.org/2000/svg" viewBox="0 0 64 64" width="64" height="64">
	<style>
		tspan { white-space:pre }
		.shp0 { fill: #646463 } 
		.shp1 { fill: #825616 } 
		.shp2 { fill: #7f00ff } 
	</style>
	<g id="Layer">
		<path id="Layer" class="shp0" d="M14.63 21C16.37 14.27 21.52 9.02 28 7.47L36 7.47C42.48 9.02 47.63 14.27 49.37 21" />
		<path id="Layer" class="shp1" d="M32 42L35 39L34 31L36 28L46 28L45.97 28.11C44.71 31.88 42 35 38.44 36.78L38 37L36 57L38 62L40 62L40.24 61.8C43.94 58.72 46.33 54.34 46.93 49.56L47 49L46.01 47.51C45.35 46.53 45 45.37 45 44.18L45 44.08C45 41.15 47.12 38.65 50.01 38.16L51 38L51.17 37.17C51.72 34.4 52 31.57 52 28.74L52 28.56C52 26.19 51.8 23.83 51.42 21.49L51 19L50.48 19.77C49.56 21.16 48 22 46.32 22L45.93 22C45.31 22 44.71 21.89 44.13 21.67L32 17L19.87 21.67C19.29 21.89 18.69 22 18.07 22L17.68 22C16 22 14.44 21.16 13.52 19.77L13 19L12.59 21.49C12.2 23.83 12 26.19 12 28.56L12 28.74C12 31.57 12.28 34.4 12.84 37.17L13 38L13.99 38.16C16.88 38.65 19 41.15 19 44.08L19 44.18C19 45.37 18.65 46.53 17.99 47.51L17 49L17.07 49.56C17.67 54.34 20.06 58.72 23.76 61.8L24 62L26 62L28 57L26 37L25.56 36.78C22 35 19.29 31.88 18.04 28.11L18 28L28 28L30 31L29 39L32 42Z" />
		<path id="Layer" class="shp1" d="M26 37L25.56 36.78C22 35 19.29 31.88 18.03 28.11L18 28L28 28L30 31L29 39L32 42L35 39L34 31L36 28L45.55 28C45.84 26.22 46 24.38 46 22.5C46 22.33 45.99 22.17 45.99 22L45.93 22C45.31 22 44.71 21.89 44.13 21.67L32 17L19.87 21.67C19.29 21.89 18.68 22 18.07 22L17.68 22C16 22 14.44 21.16 13.52 19.77L13 19L12.58 21.49C12.2 23.83 12 26.19 12 28.56L12 28.74C12 31.57 12.28 34.4 12.83 37.17L13 38L13.99 38.16C16.88 38.65 19 41.15 19 44.08L19 44.18C19 45.37 18.65 46.53 17.99 47.51L17 49L17.07 49.56C17.16 50.32 17.32 51.06 17.5 51.79C18.49 51.92 19.48 52 20.5 52C22.89 52 25.2 51.61 27.39 50.9L26 37Z" />
		<path id="Layer" class="shp1" d="M38.44 36.78L38 37L37.22 44.76C41.03 40.93 43.85 35.82 45.16 30C43.73 32.92 41.38 35.31 38.44 36.78L38.44 36.78Z" />
		<path id="Layer" class="shp1" d="M35 14L29 14L27 2L37 2L35 14Z" />
		<path id="Layer" fill-rule="evenodd" class="shp2" d="M38 63C37.59 63 37.22 62.75 37.07 62.37L35.07 57.37C35.01 57.22 34.99 57.06 35 56.9L37 36.9C37.04 36.56 37.25 36.26 37.55 36.11L37.99 35.89C40.95 34.41 43.24 31.99 44.55 29L36.53 29L35.04 31.25L35.99 38.88C36.03 39.18 35.93 39.49 35.71 39.71L32.71 42.71C32.32 43.1 31.68 43.1 31.29 42.71L28.29 39.71C28.07 39.49 27.97 39.18 28.01 38.88L28.96 31.25L27.46 29L19.45 29C20.76 31.99 23.05 34.41 26 35.88L26.45 36.11C26.75 36.26 26.96 36.56 26.99 36.9L28.99 56.9C29.01 57.06 28.99 57.22 28.93 57.37L26.93 62.37C26.78 62.75 26.41 63 26 63L24 63C23.77 63 23.54 62.92 23.36 62.77L23.12 62.57C19.21 59.31 16.71 54.74 16.08 49.68L16.01 49.12C15.98 48.89 16.04 48.65 16.17 48.45L17.16 46.96C17.71 46.13 18 45.17 18 44.18L18 44.08C18 41.63 16.24 39.55 13.82 39.15L12.84 38.98C12.43 38.92 12.1 38.6 12.02 38.2L11.86 37.37C11.29 34.54 11 31.63 11 28.74L11 28.56C11 26.14 11.2 23.71 11.6 21.32L12.01 18.83C12.08 18.43 12.39 18.11 12.79 18.02C13.19 17.93 13.6 18.1 13.83 18.44L14.35 19.22C15.09 20.33 16.34 21 17.68 21L18.07 21C18.57 21 19.05 20.91 19.51 20.73L31.64 16.07C31.87 15.98 32.13 15.98 32.36 16.07L44.5 20.73C44.95 20.91 45.44 21 45.93 21L46.33 21C47.67 21 48.91 20.33 49.65 19.22L50.17 18.45C50.4 18.1 50.81 17.93 51.21 18.02C51.61 18.11 51.92 18.43 51.99 18.84L52.4 21.33C52.8 23.71 53 26.14 53 28.56L53 28.74C53 31.64 52.71 34.54 52.15 37.37L51.98 38.2C51.9 38.6 51.58 38.92 51.17 38.99L50.18 39.15C47.76 39.55 46 41.63 46 44.08L46 44.18C46 45.17 46.29 46.13 46.84 46.96L47.83 48.45C47.97 48.65 48.02 48.89 47.99 49.13L47.92 49.69C47.29 54.73 44.79 59.31 40.88 62.57L40.64 62.77C40.46 62.92 40.23 63 40 63L38 63ZM38.68 61L39.64 61C43.13 58.07 45.37 53.97 45.94 49.44L45.96 49.24L45.18 48.07C44.41 46.91 44 45.57 44 44.18L44 44.08C44 40.65 46.46 37.74 49.85 37.18L50.16 37.13L50.19 36.98C50.73 34.27 51 31.5 51 28.74L51 28.56C51 26.25 50.81 23.93 50.43 21.65L50.39 21.41C49.29 22.42 47.85 23 46.32 23L45.93 23C45.19 23 44.46 22.86 43.77 22.6L32 18.07L20.23 22.6C19.54 22.86 18.81 23 18.07 23L17.68 23C16.15 23 14.71 22.42 13.61 21.41L13.57 21.65C13.19 23.93 13 26.25 13 28.56L13 28.74C13 31.5 13.27 34.28 13.81 36.98L13.84 37.13L14.15 37.18C17.54 37.74 20 40.65 20 44.08L20 44.18C20 45.57 19.59 46.91 18.82 48.07L18.04 49.25L18.06 49.44C18.63 53.97 20.87 58.07 24.36 61L25.32 61L26.98 56.86L25.06 37.65C21.26 35.73 18.43 32.46 17.09 28.42L17.05 28.32C16.95 28.01 17 27.68 17.19 27.42C17.38 27.15 17.68 27 18 27L28 27C28.33 27 28.65 27.17 28.83 27.45L30.83 30.45C30.97 30.65 31.02 30.89 30.99 31.12L30.05 38.64L32 40.59L33.95 38.64L33.01 31.12C32.98 30.89 33.04 30.65 33.17 30.45L35.17 27.45C35.35 27.17 35.67 27 36 27L46 27C46.32 27 46.62 27.15 46.81 27.42C47 27.68 47.05 28.01 46.95 28.32L46.91 28.42C45.57 32.46 42.74 35.73 38.94 37.65L37.02 56.86L38.68 61Z" />
		<path id="Layer" class="shp2" d="M48.4 21.25C46.74 14.82 41.9 9.91 35.77 8.44L36.23 6.5C43.09 8.14 48.5 13.6 50.34 20.75L48.4 21.25Z" />
		<path id="Layer" class="shp2" d="M15.6 21.25L13.66 20.75C15.5 13.6 20.91 8.14 27.77 6.5L28.23 8.44C22.1 9.91 17.26 14.82 15.6 21.25L15.6 21.25Z" />
		<path id="Layer" fill-rule="evenodd" class="shp2" d="M29 15C28.51 15 28.09 14.65 28.01 14.16L26.01 2.16C25.96 1.87 26.05 1.58 26.24 1.35C26.43 1.13 26.71 1 27 1L37 1C37.29 1 37.57 1.13 37.76 1.35C37.95 1.58 38.03 1.87 37.99 2.16L35.99 14.16C35.91 14.65 35.49 15 35 15L29 15ZM29.85 13L34.15 13L35.82 3L28.18 3L29.85 13Z" />
		<path id="Layer" class="shp2" d="M31 2L33 2L33 11L31 11L31 2Z" />
		<path id="Layer" class="shp2" d="M19.29 57.29L24.28 52.29L25.7 53.7L20.7 58.7L19.29 57.29Z" />
		<path id="Layer" class="shp2" d="M17.29 53.29L22.28 48.29L23.7 49.7L18.7 54.7L17.29 53.29Z" />
		<path id="Layer" class="shp2" d="M38.28 53.71L39.7 52.29L44.7 57.29L43.28 58.71L38.28 53.71Z" />
		<path id="Layer" class="shp2" d="M40.28 49.71L41.7 48.29L46.7 53.29L45.28 54.71L40.28 49.71Z" />
	</g>
</svg>