<svg xmlns="http://www.w3.org/2000/svg" viewBox="0 0 513 513" width="513" height="513">
	<style>
		tspan { white-space:pre }
		.shp0 { fill: #ff4f19 } 
		.shp1 { fill: #e23d17 } 
		.shp2 { fill: #b7c1ca } 
		.shp3 { fill: #a3aeb7 } 
		.shp4 { fill: #ffdba9 } 
		.shp5 { fill: #ffc473 } 
		.shp6 { fill: #9118d6 } 
	</style>
	<g id="Layer">
		<path id="Layer" class="shp0" d="M313.12 230.02L386.16 237.99C387.95 238.19 389.73 237.56 391 236.29L491.45 135.84C494.87 132.42 492.97 126.56 488.2 125.8L427.1 116.04L313.12 230.02L313.12 230.02Z" />
		<path id="Layer" class="shp0" d="M281.97 198.88L274 125.83C273.81 124.04 274.43 122.27 275.7 121L376.16 20.54C379.58 17.12 385.43 19.02 386.19 23.8L395.95 84.89L281.97 198.88Z" />
	</g>
	<g id="Layer">
		<path id="Layer" class="shp1" d="M275.71 121L376.16 20.55C379.58 17.12 385.43 19.02 386.19 23.8L389.14 42.24C387.74 42.35 386.37 42.94 385.25 44.06L278.25 151.07C277.7 151.61 277.27 152.25 276.96 152.95L274 125.82C273.81 124.04 274.43 122.27 275.71 121Z" />
		<path id="Layer" class="shp1" d="M391 236.29L491.45 135.84C494.88 132.41 492.98 126.57 488.2 125.8L469.76 122.86C469.64 124.25 469.06 125.63 467.93 126.75L360.93 233.75C360.39 234.3 359.75 234.73 359.05 235.03L386.17 238C387.96 238.19 389.73 237.56 391 236.29Z" />
	</g>
	<path id="Layer" class="shp2" d="M33.7 485.26L97.19 475.58C101.95 474.85 103.86 469.02 100.46 465.62L73.56 438.72L46.66 411.82C43.26 408.42 37.43 410.33 36.7 415.09L27.01 478.57C26.42 482.49 29.79 485.86 33.7 485.26Z" />
	<path id="Layer" class="shp3" d="M46.66 411.82L59.07 424.23L50.14 482.75L33.71 485.26C29.79 485.86 26.42 482.49 27.01 478.57L36.7 415.09C37.43 410.33 43.25 408.42 46.66 411.82Z" />
	<path id="Layer" class="shp4" d="M88.99 454.15L57.84 423L395.22 85.62L426.36 116.77L88.99 454.15Z" />
	<path id="Layer" class="shp5" d="M73.41 438.58L57.84 423L395.22 85.62L410.79 101.2L73.41 438.58Z" />
	<path id="Layer" fill-rule="evenodd" class="shp6" d="M269.47 114.77L369.93 14.31C373.86 10.38 379.59 9 384.89 10.72C387.16 11.45 389.16 12.7 390.78 14.31C392.93 16.46 394.39 19.27 394.89 22.41L404.48 82.44L429.55 107.51L489.59 117.1C492.72 117.6 495.53 119.07 497.68 121.22C499.29 122.83 500.54 124.83 501.28 127.1C502.99 132.4 501.61 138.13 497.68 142.06L469.56 170.19C466.12 173.62 460.54 173.62 457.1 170.19C453.66 166.75 453.66 161.17 457.1 157.73L481.22 133.61L430.15 125.45L332.34 223.26L385.74 229.09L419.19 195.64C422.63 192.2 428.21 192.2 431.65 195.64C435.09 199.08 435.09 204.66 431.65 208.1L397.22 242.52C394.05 245.69 389.67 247.23 385.21 246.75L316.36 239.24L101.45 454.15L115.53 468.23C116.15 468.85 116.64 469.6 116.92 470.44C118.95 476.46 115.17 481.74 109.99 482.53L27.14 495.18C24.37 495.6 21.56 494.68 19.58 492.7C17.6 490.72 16.68 487.91 17.1 485.14L29.75 402.29C30.54 397.11 35.82 393.32 41.84 395.35C42.67 395.63 43.42 396.13 44.05 396.75L57.84 410.55L104.97 363.41C108.41 359.97 113.99 359.97 117.43 363.41C120.87 366.86 120.87 372.43 117.43 375.87L70.3 423L88.99 441.69L413.9 116.78L395.22 98.09L155.84 337.46C152.4 340.9 146.82 340.9 143.38 337.46C139.94 334.02 139.94 328.44 143.38 325.01L272.75 195.64L265.24 126.78C264.76 122.32 266.3 117.94 269.47 114.77ZM90.12 467.74L44.53 422.15L36.32 475.95L90.12 467.74ZM282.91 126.25L288.73 179.66L386.54 81.84L378.39 30.77L282.91 126.25Z" />
	<g id="Layer">
	</g>
</svg>