<svg version="1.2" baseProfile="tiny-ps" xmlns="http://www.w3.org/2000/svg" viewBox="0 0 512 512" width="512" height="512">
	<title>11_qimican (2)-svg</title>
	<style>
		tspan { white-space:pre }
		.s0 { fill: #6f588e } 
		.s1 { fill: #c6b0dd } 
		.s2 { fill: #4b2b76 } 
		.s3 { fill: #f2f0f5 } 
		.s4 { fill: #c8b5e2 } 
		.s5 { fill: #d2c2e7 } 
		.s6 { fill: #cadded } 
		.s7 { fill: #ffffff } 
		.s8 { fill: #fac600 } 
		.s9 { fill: #e2772c } 
		.s10 { fill: #fea613 } 
		.s11 { fill: #fff364 } 
		.s12 { fill: #f9c502 } 
	</style>
	<g id="Layer_6_xA0_Изображение_1_">
		<path id="Layer" class="s0" d="m257.78 508.87c-140.58 0-254.22-113.64-254.22-254.22c0-140.58 113.64-254.22 254.22-254.22c140.58 0 254.22 113.64 254.22 254.22c0 140.58-113.64 254.22-254.22 254.22z" />
	</g>
	<g id="Group_2_xA0_Изображение_1_">
		<path id="Layer" fill-rule="evenodd" class="s1" d="m241.77 398.74c-1.01 0-1.96 0-2.96 0c-5.63-4.33-12.86-7.59-16.66-13.1c-8-11.74-13.99-24.84-21.34-37.05c-1.72-2.85-5.93-6.7-8.24-6.28c-8.59 1.72-16.66 5.81-25.25 7.65c-12.27 2.61-24.78 4.15-33.61 14.58c-0.3 0.36-2.85-0.36-3.08-0.95c-1.48-4.56-2.85-9.25-3.91-13.93c-2.49-11.08-4.74-22.23-7.05-33.37c-0.24-1.13-0.3-2.25-0.41-3.44c-1.07 0.41-2.19 0.71-3.14 1.36c-11.62 7.76-24.66 10.14-38.29 10.43c-2.25 0.06-5.63-0.18-3.79-4.21c7.76-17.01 12.57-34.85 15.53-53.23c0.53-3.44-0.47-3.56-2.96-2.67c-6.58 2.31-13.16 4.8-19.8 6.99c-0.47 0.18-2.07-0.95-2.02-1.3c2.49-15 5.87-29.52 13.34-43.21c13.45-24.6 31.95-42.56 59.21-50.92c1.13-0.36 2.31-2.73 2.25-4.09c-0.36-10.31-2.25-20.75-1.36-30.88c2.49-29.28 10.55-56.55 30.64-79.07c0.59 0 1.19 0 1.78 0c1.54 0.59 3.14 1.01 4.56 1.84c13.28 8.12 23.77 18.91 31.77 32.3c1.6 2.73 4.74 5.16 7.76 6.28c10.31 3.91 20.75 7.82 31.41 10.61c7.29 1.84 15.53 3.67 22.52 2.07c14.17-3.26 27.8-8.83 41.61-13.57c1.48-0.53 3.02-1.9 3.79-3.26c8.95-15.47 20.57-28.21 36.81-36.22c0.59 0 1.19 0 1.78 0c4.15 5.1 8.3 10.25 12.45 15.35c-0.36 2.79-4.39 7.35 3.02 6.52c1.24 2.96 2.49 5.99 3.79 8.95c11.44 25.01 15.29 51.03 10.55 78.18c-0.53 3.14 0.24 4.45 3.32 5.57c14.88 5.39 29.16 11.85 39.77 24.18c17.01 19.92 29.04 42.2 31.59 68.76c0.06 0.53-1.66 1.96-2.13 1.78c-6.76-2.25-13.4-4.74-20.15-6.93c-0.59-0.18-2.49 1.13-2.43 1.54c2.9 17.72 6.76 35.21 14.46 51.69c2.79 5.93 1.66 7.41-4.98 7.05c-13.1-0.71-25.61-3.38-36.69-10.91c-0.47-0.36-2.67 0.65-2.67 0.89c1.01 16.89-7.35 31.77-10.49 47.77c-0.65 3.38-2.25 3.2-5.1 1.13c-5.45-3.91-11.14-8.24-17.43-10.19c-13.28-4.15-27.8-3.85-40.13-11.5c-0.65-0.41-2.13-0.36-2.61 0.12c-2.13 2.31-4.56 4.5-5.87 7.23c-9.25 19.2-16.48 39.89-38.17 49.49c-1.01 0-1.96 0-2.96 0c-0.18-0.18-0.36-0.41-0.53-0.59c-6.16-0.18-12.27-0.36-18.43-0.53c-5.93 0.18-11.91 0.36-17.84 0.53c-0.47 0.12-0.89 0.36-1.24 0.53zm134.02-128.03c4.15-4.09 8.42-8.06 12.51-12.27c3.85-3.91 2.85-8.06-0.24-11.85c-8.18-10.08-19.03-13.4-31.36-11.02c-17.31 3.38-28.39 15.89-37.58 29.28c-10.08 14.76-12.68 32.6-15.65 49.91c-2.9 16.83-5.33 33.73-7.94 50.62c-0.36 2.31-0.41 4.68-0.59 6.99c1.36-1.72 2.73-3.44 4.03-5.16c0.12-0.18 0.24-0.36 0.3-0.53c6.05-11.08 11.26-22.7 18.32-33.13c7.88-11.62 16.95-22.58 26.44-33.02c7.88-8.65 17.01-16.06 25.61-24.01c2.07-1.84 4.09-3.79 6.16-5.81zm-148.3 98.93c0-0.89 0.12-1.78-0.06-2.67c-3.5-19.5-7.05-39-10.61-58.5c-4.27-23.47-11.32-45.34-30.82-61.41c-11.91-9.78-29.64-17.01-45.94-6.05c-10.25 6.93-13.1 14.05-3.26 23.24c10.61 9.96 22.23 18.79 32.6 28.93c9.9 9.66 19.15 20.03 27.92 30.76c6.05 7.35 11.02 15.65 16.06 23.77c3.73 6.05 6.7 12.57 10.02 18.91c0.65 1.48 1.07 3.14 1.96 4.45c0.95 1.36 2.31 2.43 3.5 3.67c-0.41-1.66-0.89-3.38-1.36-5.1zm7.76-41.37c0.06 0.3 0.24 1.78 0.71 3.14c3.02 8.12 9.78 11.97 17.37 14.64c3.38 1.19 7.53 2.9 10.55 1.9c9.54-3.08 18.73-6.99 22.29-18.14c1.96-6.16-1.3-12.45-7.71-12.39c-11.26 0-22.52 0-33.79 0c-6.64 0.06-9.42 2.96-9.42 10.85zm-17.78-84.23c0.89 0 1.9 0.24 2.67-0.06c1.66-0.65 3.5-1.3 4.62-2.55c0.41-0.47-0.77-2.85-1.66-3.85c-3.73-4.15-7.53-8.36-11.62-12.21c-8.18-7.65-17.43-13.28-29.1-12.51c-1.6 0.12-4.21 2.9-4.21 4.45c0 2.55 1.36 5.33 2.79 7.59c8.3 13.45 21.99 17.13 36.51 19.15zm115.4-31.41c-0.41 0.06-2.55 0.36-4.56 0.95c-14.58 3.97-24.06 14.64-33.13 25.67c-0.47 0.59 0.41 3.5 0.89 3.56c3.73 0.47 7.59 1.19 11.2 0.53c13.93-2.61 26.5-7.65 32.96-21.69c2.9-6.58 1.42-9.01-7.35-9.01zm-209.47 89.92c0-0.12 0-0.18 0-0.3c-2.9 0-5.75 0-8.65 0c0 0.12 0 0.18 0 0.3c2.9 0 5.75 0 8.65 0z" />
		<path id="Layer" class="s1" d="m279.18 398.15c0.18 0.18 0.36 0.41 0.53 0.59c-12.63 0-25.31 0-37.93 0c0.36-0.18 0.77-0.41 1.13-0.59c5.93 0 11.91 0 17.84 0c6.16 0 12.27 0 18.43 0z" />
		<path id="Layer" class="s2" d="m223.46 366.62c-3.32-6.34-6.28-12.8-10.02-18.91c-4.98-8.12-10.02-16.42-16.06-23.77c-8.77-10.67-18.08-21.1-27.92-30.76c-10.37-10.14-21.99-18.97-32.6-28.93c-9.84-9.19-6.99-16.3 3.26-23.24c16.3-11.02 34.08-3.73 45.94 6.05c19.5 16 26.55 37.93 30.82 61.41c3.56 19.5 7.11 39 10.61 58.5c0.18 0.89 0.06 1.78 0.06 2.67c-1.36-1.01-2.73-2.02-4.09-3.02z" />
		<path id="Layer" class="s2" d="m369.63 276.64c-8.59 7.94-17.78 15.41-25.61 24.01c-9.48 10.43-18.55 21.34-26.44 33.02c-7.05 10.37-12.27 22.05-18.32 33.13c-0.12 0.18-0.18 0.36-0.3 0.53c-1.36 1.72-2.67 3.44-4.03 5.16c0.18-2.31 0.24-4.68 0.59-6.99c2.61-16.89 5.04-33.79 7.94-50.62c3.02-17.31 5.57-35.15 15.65-49.91c9.19-13.45 20.27-25.96 37.58-29.28c12.27-2.37 23.18 0.95 31.36 11.02c3.08 3.79 4.03 7.94 0.24 11.85c-4.09 4.15-8.3 8.18-12.51 12.27c-2.07 1.9-4.09 3.85-6.16 5.81z" />
		<path id="Layer" class="s2" d="m235.25 328.27c0-7.88 2.79-10.79 9.42-10.79c11.26-0.06 22.52 0 33.79 0c6.34 0 9.66 6.22 7.71 12.39c-3.56 11.14-12.74 15-22.29 18.14c-3.02 1.01-7.17-0.71-10.55-1.9c-7.59-2.67-14.34-6.58-17.37-14.64c-0.47-1.42-0.65-2.9-0.71-3.2z" />
		<path id="Layer" class="s2" d="m217.47 244.04c-14.52-2.02-28.15-5.69-36.57-19.2c-1.42-2.25-2.79-5.04-2.79-7.59c0-1.54 2.61-4.33 4.21-4.45c11.74-0.77 20.92 4.86 29.1 12.51c4.09 3.85 7.82 8 11.62 12.21c0.95 1.07 2.19 4.21 1.78 4.68c-1.13 1.24-2.55 1.36-4.68 1.78c-0.83 0.18-1.78 0.06-2.67 0.06z" />
		<path id="Layer" class="s2" d="m332.88 212.63c8.77 0 10.31 2.43 7.29 9.01c-6.46 14.05-19.03 19.15-32.96 21.69c-3.62 0.65-7.47-0.06-11.2-0.53c-0.47-0.06-2.37-1.01-0.89-3.56c9.13-11.02 18.55-21.69 33.13-25.67c2.07-0.59 4.21-0.89 4.62-0.95z" />
		<path id="Layer" class="s2" d="m223.46 366.62c1.36 1.01 2.73 2.02 4.03 3.02c0.47 1.72 0.95 3.38 1.36 5.1c-1.19-1.19-2.55-2.31-3.5-3.67c-0.83-1.3-1.24-2.96-1.9-4.45z" />
		<path id="Layer" class="s1" d="m365.06 77.43c1.01 2.19 2.02 4.33 3.02 6.52c-7.41 0.83-3.38-3.67-3.02-6.52z" />
		<path id="Layer" class="s3" d="m369.63 276.64c2.07-1.96 4.09-3.91 6.16-5.93c-2.07 2.02-4.09 3.97-6.16 5.93z" />
		<path id="Layer" class="s1" d="m279.18 398.15c-6.16 0-12.27 0-18.43 0c0-0.18 0-0.36 0-0.53c6.16 0.18 12.27 0.36 18.43 0.53z" />
		<path id="Layer" class="s1" d="m260.74 397.62c0 0.18 0 0.36 0 0.53c-5.93 0-11.91 0-17.84 0c5.93-0.18 11.91-0.36 17.84-0.53z" />
		<path id="Layer" class="s1" d="m123.41 302.54c-2.9 0-5.75 0-8.65 0c0-0.12 0-0.18 0-0.3c2.9 0 5.75 0 8.65 0c0 0.12 0 0.24 0 0.3z" />
	</g>
	<g id="Слой_7">
		<path id="Layer" class="s4" d="m96.97 102.91c-2.85 1.72-7.47 3.26-9.72 5.63c-5.22 5.39-6.28 7.47-8.77 15.77c-0.41 1.36-1.42 4.39-1.78 5.81c-2.13 8.12-1.78 16.42-1.78 24.78c0 1.9 0.12 3.73 0 5.63c-0.12 2.9-1.9 4.68-4.62 4.68c-2.67 0-4.5-1.78-4.5-4.8c-0.06-6.52 0.24-13.04-0.12-19.56c-0.47-9.19-3.14-17.84-7.71-25.78c-4.5-7.82-11.56-11.44-20.21-13.45c-10.31-2.43-20.69-2.31-31.12-2.37c-1.42 0-2.9-0.3-4.27-0.77c-1.66-0.53-2.37-2.02-2.37-3.73c0-1.72 0.59-3.14 2.31-3.79c1.19-0.41 2.43-0.77 3.67-0.77c4.56-0.12 9.07-0.12 13.63 0c8.59 0.18 16.6-0.89 24.72-3.26c7.53-3.85 10.91-7.82 14.34-13.45c0.47-0.71 1.07-1.36 1.54-2.07c0.65 1.19 1.24 2.43 1.9 3.62c4.56 9.31 11.14 16.77 20.03 22.11c4.5 2.85 9.13 5.69 14.82 5.81z" />
		<path id="Layer" class="s5" d="m41.91 87.62c3.56-1.01 5.87-3.2 8.42-5.28c6.16-5.1 8.83-12.39 11.26-19.74c2.85-8.83 2.43-17.9 2.43-26.97c0-1.9-0.12-3.73 0-5.63c0.12-2.9 1.9-4.68 4.62-4.68c2.67 0 4.5 1.78 4.5 4.8c0.06 6.52-0.24 13.04 0.12 19.56c0.47 9.19 3.14 17.84 7.71 25.78c4.5 7.82 11.56 11.44 20.21 13.45c10.31 2.43 20.69 2.31 31.12 2.37c1.42 0 2.9 0.3 4.27 0.77c1.66 0.53 2.37 2.02 2.37 3.73c0 1.72-0.59 3.14-2.31 3.79c-1.19 0.41-2.43 0.77-3.67 0.77c-4.56 0.12-9.07 0.12-13.63 0c-8.59-0.18-16.83 1.9-24.89 4.27c-6.46 1.9-9.84 6.46-13.28 12.03c-1.07 2.43-1.19 2.85-1.48 3.85c-0.65-1.19-2.19-3.85-2.79-5.1c-4.56-9.31-11.14-16.77-20.03-22.11c-4.62-2.73-9.25-5.57-14.94-5.69z" />
		<path id="Layer" class="s6" d="m273.25 136.05c-1.3 0.77-3.38 1.48-4.45 2.55c-2.37 2.43-2.85 3.38-3.97 7.17c-0.18 0.65-0.65 2.02-0.83 2.67c-0.95 3.67-0.77 7.47-0.83 11.26c0 0.83 0.06 1.72 0 2.55c-0.06 1.3-0.89 2.13-2.07 2.13c-1.24 0-2.02-0.83-2.07-2.19c-0.06-2.96 0.12-5.93-0.06-8.89c-0.24-4.15-1.42-8.12-3.5-11.74c-2.07-3.56-5.28-5.22-9.19-6.11c-4.68-1.13-9.42-1.07-14.17-1.07c-0.65 0-1.3-0.12-1.96-0.36c-0.77-0.24-1.07-0.89-1.07-1.72c0-0.77 0.3-1.42 1.07-1.72c0.53-0.18 1.13-0.36 1.66-0.36c2.07-0.06 4.15-0.06 6.22 0c3.91 0.12 7.53-0.41 11.26-1.48c3.44-1.78 4.98-3.56 6.52-6.11c0.18-0.36 0.47-0.65 0.71-0.95c0.3 0.53 0.59 1.13 0.83 1.66c2.07 4.21 5.04 7.65 9.13 10.08c2.07 1.3 4.21 2.61 6.76 2.61z" />
		<path id="Layer" class="s7" d="m248.24 129.11c1.6-0.47 2.67-1.42 3.85-2.37c2.79-2.31 4.03-5.63 5.1-9.01c1.3-4.03 1.07-8.12 1.07-12.27c0-0.83-0.06-1.72 0-2.55c0.06-1.3 0.89-2.13 2.07-2.13c1.24 0 2.02 0.83 2.07 2.19c0.06 2.96-0.12 5.93 0.06 8.89c0.24 4.15 1.42 8.12 3.5 11.74c2.07 3.56 5.28 5.22 9.19 6.11c4.68 1.13 9.42 1.07 14.17 1.07c0.65 0 1.3 0.12 1.96 0.36c0.77 0.24 1.07 0.89 1.07 1.72c0 0.77-0.3 1.42-1.07 1.72c-0.53 0.18-1.13 0.36-1.66 0.36c-2.07 0.06-4.15 0.06-6.22 0c-3.91-0.12-7.65 0.89-11.32 1.96c-2.96 0.89-4.5 2.96-6.05 5.51c-0.47 1.13-0.53 1.3-0.65 1.78c-0.3-0.53-1.01-1.78-1.24-2.31c-2.07-4.21-5.04-7.65-9.13-10.08c-2.07-1.3-4.21-2.61-6.76-2.67z" />
		<path id="Layer" class="s6" d="m418.76 402.6c-1.54 0.95-4.09 1.78-5.33 3.08c-2.85 2.96-3.44 4.09-4.8 8.71c-0.24 0.77-0.77 2.43-1.01 3.2c-1.19 4.45-0.95 9.07-0.95 13.63c0 1.01 0.06 2.07 0 3.08c-0.06 1.6-1.07 2.61-2.55 2.55c-1.48 0-2.49-1.01-2.49-2.61c-0.06-3.56 0.12-7.17-0.06-10.73c-0.3-5.04-1.72-9.78-4.27-14.17c-2.49-4.27-6.4-6.28-11.14-7.41c-5.69-1.36-11.38-1.24-17.13-1.3c-0.77 0-1.6-0.18-2.37-0.41c-0.95-0.3-1.3-1.07-1.3-2.07c0-0.95 0.36-1.72 1.24-2.07c0.65-0.24 1.36-0.41 2.02-0.41c2.49-0.06 4.98-0.06 7.47 0c4.74 0.12 9.13-0.47 13.57-1.78c4.15-2.13 5.99-4.33 7.88-7.41c0.24-0.41 0.59-0.77 0.89-1.13c0.36 0.65 0.71 1.3 1.01 2.02c2.49 5.1 6.11 9.25 11.02 12.15c2.61 1.48 5.16 3.02 8.3 3.08z" />
		<path id="Layer" class="s7" d="m388.48 394.18c1.96-0.53 3.26-1.72 4.62-2.9c3.38-2.85 4.86-6.82 6.16-10.85c1.6-4.86 1.3-9.84 1.3-14.82c0-1.01-0.06-2.07 0-3.08c0.06-1.6 1.07-2.61 2.55-2.55c1.48 0 2.49 1.01 2.49 2.61c0.06 3.56-0.12 7.17 0.06 10.73c0.3 5.04 1.72 9.78 4.27 14.17c2.49 4.27 6.4 6.28 11.14 7.41c5.69 1.36 11.38 1.24 17.13 1.3c0.77 0 1.6 0.18 2.37 0.41c0.95 0.3 1.3 1.07 1.3 2.07c0 0.95-0.36 1.72-1.24 2.07c-0.65 0.24-1.36 0.41-2.02 0.41c-2.49 0.06-4.98 0.06-7.47 0c-4.74-0.12-9.25 1.07-13.69 2.37c-3.56 1.07-5.39 3.56-7.29 6.64c-0.59 1.36-0.65 1.6-0.83 2.13c-0.36-0.65-1.19-2.13-1.54-2.79c-2.49-5.1-6.11-9.25-11.02-12.15c-2.61-1.54-5.16-3.14-8.3-3.2z" />
		<path id="Layer" class="s7" d="m161.46 143.1c1.01 0 1.96 0 2.96 0c0.53 1.13 1.24 2.19 1.66 3.38c1.6 4.45 6.34 8.77 10.67 10.79c1.72 0.83 1.42 0.89 3.14 1.84c0 0.77 0 1.6 0 2.37c-0.95 0.47-1.84 1.13-2.85 1.42c-5.39 1.6-8.77 5.28-10.97 10.25c-0.59 1.3-1.42 2.49-2.19 3.73c-0.77 0-1.6 0-2.37 0c-0.41-0.77-1.42-2.61-1.66-3.44c-2.13-7.17-6.64-10.19-13.75-11.97c0-1.01 0-1.96 0-2.96c0.95-0.47 2.25-0.83 3.38-1.3c5.16-2.19 8.36-5.81 10.43-10.79c0.53-1.36 0.89-2.02 1.54-3.32z" />
		<path id="Layer" class="s7" d="m345.27 338.64c1.01 0 1.96 0 2.96 0c0.53 1.13 1.24 2.19 1.66 3.38c1.6 4.45 6.34 8.77 10.67 10.79c1.72 0.83 1.42 0.89 3.14 1.84c0 0.77 0 1.6 0 2.37c-0.95 0.47-1.84 1.13-2.85 1.42c-5.39 1.6-8.77 5.28-10.97 10.25c-0.59 1.3-1.42 2.49-2.19 3.73c-0.77 0-1.6 0-2.37 0c-0.41-0.77-1.42-2.61-1.66-3.44c-2.13-7.17-6.64-10.19-13.75-11.97c0-1.01 0-1.96 0-2.96c0.95-0.47 2.25-0.83 3.38-1.3c5.16-2.19 8.36-5.81 10.43-10.79c0.53-1.36 0.89-2.02 1.54-3.32z" />
		<path id="Layer" class="s7" d="m270.23 38.19c-0.47-0.71-0.47-1.6 0-2.25c0.47-0.71 1.19-1.42 1.78-2.07c1.66-1.78 3.08-3.08 4.62-4.86c2.31-2.55 4.21-2.55 6.52 0.06c1.48 1.66 3.14 3.08 4.62 4.68c2.37 2.43 2.25 3.79-0.06 6.4c-1.36 1.54-2.85 2.96-4.21 4.5c-2.02 2.19-4.68 2.9-7.29 0.06c-1.54-1.72-2.79-2.79-4.39-4.5c-0.36-0.47-1.19-1.48-1.6-2.02z" />
		<path id="Layer" class="s5" d="m392.45 158.51c-0.47-0.71-0.47-1.6 0-2.25c0.47-0.71 1.19-1.42 1.78-2.07c1.66-1.78 3.08-3.08 4.62-4.86c2.31-2.55 4.21-2.55 6.52 0.06c1.48 1.66 3.14 3.08 4.62 4.68c2.37 2.43 2.25 3.79-0.06 6.4c-1.36 1.54-2.85 2.96-4.21 4.5c-2.02 2.19-4.68 2.9-7.29 0.06c-1.54-1.72-2.79-2.79-4.39-4.5c-0.36-0.41-1.24-1.42-1.6-2.02z" />
		<path id="Layer" class="s8" d="m358.6 78.85c-0.47-0.71-0.47-1.6 0-2.25c0.47-0.71 1.19-1.42 1.78-2.07c1.66-1.78 3.08-3.08 4.62-4.86c2.31-2.55 4.21-2.55 6.52 0.06c1.48 1.66 3.14 3.08 4.62 4.68c2.37 2.43 2.25 3.79-0.06 6.4c-1.36 1.54-2.85 2.96-4.21 4.5c-2.02 2.19-4.68 2.9-7.29 0.06c-1.54-1.72-2.79-2.79-4.39-4.5c-0.36-0.47-1.19-1.48-1.6-2.02z" />
		<path id="Layer" class="s8" d="m197.73 462.7c-0.47-0.71-0.47-1.6 0-2.25c0.47-0.71 1.19-1.42 1.78-2.07c1.66-1.78 3.08-3.08 4.62-4.86c2.31-2.55 4.21-2.55 6.52 0.06c1.48 1.66 3.14 3.08 4.62 4.68c2.37 2.43 2.25 3.79-0.06 6.4c-1.36 1.54-2.85 2.96-4.21 4.5c-2.02 2.19-4.68 2.9-7.29 0.06c-1.54-1.72-2.79-2.79-4.39-4.5c-0.36-0.41-1.19-1.42-1.6-2.02z" />
		<path id="Layer" class="s9" d="m196.73 92.24c-13.87 0-25.07-11.21-25.07-25.07c0-13.87 11.21-25.07 25.07-25.07c13.87 0 25.07 11.21 25.07 25.07c0 13.87-11.21 25.07-25.07 25.07z" />
		<g id="Layer">
			<path id="Layer" class="s9" d="m196.79 91.77c-13.73 0-24.84-11.1-24.84-24.84c0-13.73 11.1-24.84 24.84-24.84c13.73 0 24.84 11.1 24.84 24.84c0 13.73-11.1 24.84-24.84 24.84z" />
			<path id="Layer" class="s10" d="m196.96 91.83c-13.73 0-24.84-11.1-24.84-24.84c0-13.73 11.1-24.84 24.84-24.84c13.73 0 24.84 11.1 24.84 24.84c0 13.73-11.1 24.84-24.84 24.84z" />
		</g>
		<path id="Layer" class="s10" d="m263.11 354.35c-7.87 0-14.23-6.36-14.23-14.23c0-7.87 6.36-14.23 14.23-14.23c7.87 0 14.23 6.36 14.23 14.23c0 7.87-6.36 14.23-14.23 14.23z" />
		<g id="Layer">
			<path id="Layer" class="s10" d="m263.11 354.35c-7.87 0-14.23-6.36-14.23-14.23c0-7.87 6.36-14.23 14.23-14.23c7.87 0 14.23 6.36 14.23 14.23c0 7.87-6.36 14.23-14.23 14.23z" />
			<path id="Layer" class="s8" d="m263.17 354.05c-7.8 0-14.11-6.31-14.11-14.11c0-7.8 6.31-14.11 14.11-14.11c7.8 0 14.11 6.31 14.11 14.11c0 7.8-6.31 14.11-14.11 14.11z" />
			<path id="Layer" class="s8" d="m263.23 354.11c-7.8 0-14.11-6.31-14.11-14.11c0-7.8 6.31-14.11 14.11-14.11c7.8 0 14.11 6.31 14.11 14.11c0 7.8-6.31 14.11-14.11 14.11z" />
		</g>
		<path id="Layer" class="s10" d="m322.92 119.63c-13.67 0-24.72-11.05-24.72-24.72c0-13.67 11.05-24.72 24.72-24.72c13.67 0 24.72 11.05 24.72 24.72c0 13.67-11.05 24.72-24.72 24.72z" />
		<g id="Layer">
			<path id="Layer" class="s8" d="m323.04 119.69c-13.67 0-24.72-11.05-24.72-24.72c0-13.67 11.05-24.72 24.72-24.72c13.67 0 24.72 11.05 24.72 24.72c0 13.67-11.05 24.72-24.72 24.72z" />
		</g>
		<path id="Layer" class="s11" d="m323.22 107.95c-7.15 0-12.92-5.83-12.92-13.04c0-7.21 5.78-13.04 12.92-13.04c7.15 0 12.92 5.83 12.92 13.04c0 7.21-5.78 13.04-12.92 13.04z" />
		<path id="Layer" class="s10" d="m319.54 246.83c-9.28 0-16.77-7.5-16.77-16.77c0-9.28 7.5-16.77 16.77-16.77c9.28 0 16.77 7.5 16.77 16.77c0 9.28-7.5 16.77-16.77 16.77z" />
		<g id="Layer">
			<path id="Layer" class="s8" d="m319.66 246.89c-9.28 0-16.77-7.5-16.77-16.77c0-9.28 7.5-16.77 16.77-16.77c9.28 0 16.77 7.5 16.77 16.77c0 9.28-7.5 16.77-16.77 16.77z" />
		</g>
		<path id="Layer" class="s11" d="m319.78 238.89c-4.82 0-8.71-3.95-8.71-8.83c0-4.88 3.89-8.83 8.71-8.83c4.82 0 8.71 3.95 8.71 8.83c0 4.88-3.89 8.83-8.71 8.83z" />
		<path id="Layer" class="s9" d="m201.88 248.49c-9.7 0-17.54-8.05-17.54-18.02c0-9.96 7.84-18.02 17.54-18.02c9.7 0 17.54 8.05 17.54 18.02c0 9.96-7.84 18.02-17.54 18.02z" />
		<g id="Layer">
			<path id="Layer" class="s9" d="m201.94 248.13c-9.6 0-17.37-7.98-17.37-17.84c0-9.87 7.76-17.84 17.37-17.84c9.6 0 17.37 7.98 17.37 17.84c0 9.87-7.76 17.84-17.37 17.84z" />
			<path id="Layer" class="s10" d="m202.06 248.19c-9.6 0-17.37-7.98-17.37-17.84c0-9.87 7.76-17.84 17.37-17.84c9.6 0 17.37 7.98 17.37 17.84c0 9.87-7.76 17.84-17.37 17.84z" />
		</g>
		<path id="Layer" class="s7" d="m201.88 237.34c-3.7 0-6.7-3.07-6.7-6.88c0-3.8 2.99-6.88 6.7-6.88c3.7 0 6.7 3.07 6.7 6.88c0 3.8-2.99 6.88-6.7 6.88z" />
		<path id="Layer" class="s7" d="m322.15 208.66h-1.42c-2.13 0-3.85-1.78-3.79-3.85l0.59-74.21c0-2.13 1.78-3.85 3.85-3.79h1.42c2.13 0 3.85 1.78 3.79 3.85l-0.59 74.21c0 2.07-1.72 3.79-3.85 3.79z" />
		<path id="Layer" class="s7" d="m201.17 205.46l-1.42 0.06c-2.13 0.12-3.91-1.54-4.03-3.62l-5.33-100.76c-0.12-2.13 1.54-3.91 3.62-4.03l1.42-0.06c2.13-0.12 3.91 1.54 4.03 3.62l5.33 100.76c0.12 2.07-1.48 3.91-3.62 4.03z" />
		<path id="Layer" class="s7" d="m275.2 320.5v0c-1.9-0.89-2.73-3.2-1.84-5.16l31-65.14c0.89-1.9 3.2-2.73 5.16-1.84v0c1.9 0.89 2.73 3.2 1.84 5.16l-31 65.14c-0.89 1.96-3.2 2.79-5.16 1.84z" />
		<path id="Layer" class="s7" d="m249.12 322.4v0c-1.84 1.01-4.21 0.36-5.22-1.48l-34.73-62.59c-1.01-1.84-0.36-4.21 1.48-5.22v0c1.84-1.01 4.21-0.36 5.22 1.48l34.79 62.53c1.01 1.9 0.36 4.21-1.54 5.28z" />
		<path id="Layer" class="s7" d="m264.18 401.89h-1.42c-2.13 0.06-3.85-1.66-3.91-3.79l-0.53-34.2c-0.06-2.13 1.66-3.85 3.79-3.91h1.42c2.13-0.06 3.85 1.66 3.91 3.79l0.53 34.2c0 2.13-1.66 3.85-3.79 3.91z" />
		<path id="Layer" class="s10" d="m257.54 418.72c0.36 0.71 0.41 1.36 0.53 2.07c0.95 6.52 4.15 12.03 8.36 16.83c3.97 4.5 8.95 7.88 14.88 9.54c1.48 0.41 3.02 0.83 4.5 1.24c-2.02 0.89-3.14 1.54-4.09 2.13c-6.7 3.5-10.85 9.07-13.34 16.12c-0.53 1.48-1.07 2.96-1.6 4.45c-0.71 1.84-2.13 2.49-3.97 2.49c-1.72 0-3.02-0.71-3.73-2.43c-0.41-1.07-0.89-2.19-1.24-3.32c-2.49-8.18-7.47-14.23-15.17-17.96c-2.73-1.3-5.63-2.43-8.42-3.62c-0.47-0.18-0.95-0.3-1.36-0.53c-1.54-0.77-2.96-1.9-2.85-3.79c0.06-1.96 1.24-3.26 3.08-3.97c1.66-0.65 3.32-1.19 4.98-1.84c8.54-3.32 15.77-8.71 19.44-17.43z" />
		<path id="Layer" class="s12" d="m268.68 465.01c-0.36-0.71-0.36-1.36-0.47-2.07c-0.95-6.52-4.15-12.03-8.36-16.83c-3.97-4.5-8.95-7.88-14.88-9.54c-1.48-0.41-3.02-0.83-4.5-1.24c2.02-0.89 3.14-1.54 4.09-2.13c6.7-3.5 10.85-9.07 13.34-16.12c0.53-1.48 1.07-2.96 1.6-4.45c0.71-1.84 2.13-2.49 3.97-2.49c1.72 0 3.02 0.71 3.73 2.43c0.41 1.07 0.89 2.19 1.24 3.32c2.49 8.18 7.47 14.23 15.17 17.96c2.73 1.3 5.63 2.43 8.42 3.62c0.47 0.18 0.95 0.3 1.36 0.53c1.54 0.77 2.96 1.9 2.85 3.79c-0.06 1.96-1.24 3.26-3.08 3.97c-1.66 0.65-3.32 1.19-4.98 1.84c-8.54 3.32-15.77 8.71-19.5 17.43z" />
	</g>
</svg>