<svg version="1.2" xmlns="http://www.w3.org/2000/svg" viewBox="0 0 512 512" width="512" height="512">
	<title>red_oak_tree-svg</title>
	<style>
		.s0 { fill: #9cda82 } 
		.s1 { fill: #8dd470 } 
		.s2 { fill: #cc8683 } 
		.s3 { fill: #b8706b } 
		.s4 { fill: #ace094 } 
		.s5 { fill: #bbe5a7 } 
	</style>
	<g id="Layer">
		<g id="Layer">
			<path id="Layer" class="s0" d="m506.9 106.6c0 19.2-14.9 34.7-34.1 35.3-14.5 0.5-27-7.7-32.9-19.8h-22.3c-37.6-18.1-46.5-37-46.5-65.7 0-16.2 0-38.3 25.5-50.6 5.5-2.5 11.6-3.9 18.1-3.9 15.5 0 29.2 8.2 36.7 20.6 1.8 2.8 4.9 4.4 8.2 4.6 21.9 0.8 38.5 23.2 33.3 44.3-0.8 3.4 0.2 7 2.8 9.4 6.9 6.5 11.2 15.7 11.2 25.8z"/>
			<path id="Layer" class="s1" d="m417.6 122.1h-77.7c-15.9 0-28.7-12.8-28.7-28.7 0-11.2 6.5-21 16-25.7-6.6-7.8-10.3-18-9.6-29.2 1.3-20.6 18-37.2 38.7-38.4 9.7-0.6 18.7 2.2 26 7.3 3.1 2.2 7.2 2.3 10.5 0.4q1.8-1.1 3.8-2c-7 13.3-11 28.6-11 44.9 0 28.6 12.4 54.3 32 71.4z"/>
		</g>
		<g id="Layer">
			<path id="Layer" class="s2" d="m413.4 512h-52.5c-111.1-19.6-168.6-110.7-168.6-202.5 0-35.8 24.5-70.8 56.2-100.4 4.1-1.2 7.5-4.9 7.5-9.9v-96.2l56.7 10.3v142c0 7.5 7.6 12.5 14.5 9.4l5.2-2.3 7.8 6.8 7.7-13.7 30.8-13.8c3.7-1.6 6.1-5.3 6.1-9.4v-55.1l37.1-30.9v105.3c0 11.3-6.2 21.7-16.1 27.1l-20.8 11.5c-3.3 1.8-5.4 5.2-5.4 9v168.8c0 4.5 2.9 8.5 7.2 9.8l30.4 9.6c13.7 4.4 10.6 24.6-3.8 24.6z"/>
			<g id="Layer">
				<path id="Layer" class="s3" d="m360.9 512h-64.9l-7.7-10.3-7.7 10.3h-56l-7.7-10.3-7.8 10.3h-110.5c-14.4 0-17.5-20.2-3.8-24.6l30.4-9.6c4.3-1.3 7.2-5.3 7.2-9.8v-137l-44.7-44.7c-9.6-9.6-15.1-22.7-15.1-36.4v-19.9l41.2-10.3v31.8c0 6 2.7 11.7 7.2 15.6l22.9 19.7c6.7 5.7 17 1 17-7.8v-164.8l53.6-7.2v64.4c0 4.9 1.8 9.7 5.1 13.5l18.3 21c2.9 3.4 7.1 4.2 10.6 3.2-15.1 29.8-23.7 63.6-23.7 99.4 0 91.8 56.2 170.5 136.1 203.5z"/>
				<path id="Layer" class="s3" d="m347.9 255.5v63.9c0 4.2-3.5 7.7-7.7 7.7-4.3 0-7.8-3.5-7.8-7.7v-57z"/>
			</g>
		</g>
		<g id="Layer">
			<path id="Layer" class="s0" d="m343.6 104.1c0 16.1-13.1 29.1-29.1 29.1h-64.4c-43.1-15.2-50.1-42.9-50.1-71.9 0-21.1 9.9-43.2 35.1-57.2 8 3.4 14.9 8.6 20.3 15.1 3.2 3.7 8.5 4.8 12.8 2.5 6.8-3.6 14.7-5.4 23.1-4.9 21.3 1.4 38.7 18.4 40.6 39.6 0.5 5.4-0.1 10.7-1.4 15.6-1 3.7 0.2 7.7 3.1 10.2 3 2.6 5.5 5.9 7.3 9.7 1.7 3.7 2.7 7.8 2.7 12.2z"/>
			<path id="Layer" class="s1" d="m250.1 133.2h-75.3c-24.1 0-44.3-19.1-44.5-43.2-0.2-20 13-36.8 31.2-42.2 2.8-26.9 25.4-47.8 53-47.8 7.3 0 14.3 1.5 20.6 4.1-11.5 15.9-18.2 35.4-18.2 56.4 0 29.1 12.8 55.1 33.2 72.7z"/>
		</g>
		<g id="Layer">
			<path id="Layer" class="s4" d="m131.6 104h-39.9c-24.1-13.2-45.9-33-45.9-54.2 0-19.4 23.2-38.1 42.2-48.2 6.6 2 12.5 5.5 17.3 10.2 2.8 2.7 6.9 3.6 10.5 2.3 5.7-2.1 12-3.1 18.5-2.7 23.7 1.3 42.7 20.8 43.6 44.5 1 26.4-20.1 48.1-46.3 48.1z"/>
			<path id="Layer" class="s0" d="m91.7 104h-55.6c-20 0-36.1-16.1-36.1-36 0-17.9 13.1-32.8 30.2-35.6 3.6-0.6 6.6-3 8-6.4 6-15.2 20.9-26 38.3-26 4 0 7.9 0.6 11.5 1.6-12.9 12.6-20.9 30.2-20.9 49.6 0 21.2 9.5 40.2 24.6 52.8z"/>
		</g>
		<path id="Layer" class="s2" d="m425 144.8c-1.2 0.7-2.4 1-3.7 1-2.7 0-5.4-1.4-6.8-4l-19.6-35.2c-3.7-1.3-6-5.2-5.1-9.1v-0.1l-19.9-36c-2.1-3.7-0.8-8.4 3-10.5 3.7-2 8.4-0.7 10.5 3l11.6 20.9 8-35.3c1-4.2 5.1-6.8 9.3-5.8 4.1 0.9 6.7 5.1 5.8 9.2l-11.9 52.2 21.8 39.2c2.1 3.8 0.8 8.5-3 10.5z"/>
		<path id="Layer" class="s3" d="m99.4 107.7v82.1c0 4.3-3.4 7.7-7.7 7.7-4.3 0-7.7-3.4-7.7-7.7l-0.1-69.5-35.4-41.4c-2.8-3.2-2.4-8.1 0.8-10.8 3.3-2.8 8.1-2.5 10.9 0.8l23.7 27.6v-39c0-4.2 3.4-7.7 7.7-7.7 4.3 0 7.7 3.4 7.7 7.7l0.1 28.8 20.9-19.9c3.1-3 8-2.9 10.9 0.2 3 3.1 2.9 8-0.2 10.9z"/>
		<path id="Layer" class="s3" d="m296.9 233.8c-3.1 0-6.1-1.9-7.2-5l-59-157.1c-1.5-4 0.5-8.4 4.5-9.9 4-1.5 8.4 0.5 9.9 4.5l59 157c1.5 4-0.5 8.5-4.5 10q-1.3 0.5-2.7 0.5z"/>
		<path id="Layer" class="s2" d="m192.3 325.1c-4.3 0-7.7-3.5-7.7-7.8v-30.9c0-4.2 3.4-7.7 7.7-7.7 4.3 0 7.7 3.5 7.7 7.7v30.9c0 4.3-3.4 7.8-7.7 7.8z"/>
		<path id="Layer" class="s3" d="m293.2 356.7q-0.6 0-1.1 0c-3.8 0-7.1-2.8-7.7-6.6-1.9-13.7-7-25.2-15.5-35v23.6c0 4.3-3.4 7.7-7.7 7.7-4.3 0-7.7-3.4-7.7-7.7v-92.7c0-4.3 3.4-7.7 7.7-7.7 4.3 0 7.7 3.4 7.7 7.7v47.7c17.4 14 27.7 32.2 30.8 54.2 0.6 4.2-2.3 8.2-6.5 8.8z"/>
		<path id="Layer" class="s2" d="m296 492.4v19.6h-15.4v-19.6c0-4.2 3.4-7.7 7.7-7.7 4.3 0 7.7 3.5 7.7 7.7z"/>
		<path id="Layer" class="s2" d="m224.6 460.5v51.5h-15.5v-51.5c0-4.3 3.5-7.7 7.8-7.7 4.2 0 7.7 3.4 7.7 7.7z"/>
		<g id="Layer">
			<path id="Layer" class="s4" d="m151.1 243.8h-55.8c-25-14.2-35.9-34.9-35.9-57.8 0-20.1 10-40.2 30.3-52.2q0.8 0 1.6 0c16.8 0 31.3 9.6 38.4 23.6 2.2 4.2 7 6.2 11.6 5.1 4-1 8.3-1.4 12.8-1.1 20.3 1.5 36.8 18 38.1 38.3 1.6 24-17.4 44.1-41.1 44.1z"/>
			<path id="Layer" class="s0" d="m32.3 243.8v-0.2c-19.1-1.6-33.9-18.4-32.2-38.3 1.4-16.5 14.5-30 31-31.9q3.9-0.5 7.6-0.1c5.1 0.5 9.6-2.9 10.9-7.7 4.9-17.9 20.9-31.1 40.1-31.8-12.4 13.8-20 32.1-20 52.2 0 22.9 9.9 43.5 25.6 57.8 0 0-63 0-63 0z"/>
		</g>
		<g id="Layer">
			<path id="Layer" class="s5" d="m470.8 213.2q-0.3 0-0.6 0h-52.8c-40-12.8-56.5-38.8-56.5-71.3 0-20 11-43 30.6-57.5 4.7-1.3 9.7-2 14.8-2 25.9 0 47.7 17.4 54.5 41.1 1.2 4.4 5.3 7.4 9.8 7.3 9.7 0 20.2 3.3 30.4 11.1 25.8 34 2.2 71.3-30.2 71.3z"/>
			<path id="Layer" class="s4" d="m417.4 213.2h-103.8c-8.5 0-16.3-3.4-21.9-9-5.5-5.6-9-13.3-9-21.9 0-12.9 8-24 19.3-28.6 3.7-1.5 6.2-4.9 6.6-8.9 2.3-24.2 24.2-43.2 48.7-41.8 3 0.2 6-0.9 8.1-3.1 7-7.3 16-12.8 26.1-15.5-11.4 14.7-18.1 33.1-18.1 53.1 0 32.4 17.7 60.7 44 75.7z"/>
		</g>
	</g>
</svg>