<svg xmlns="http://www.w3.org/2000/svg" viewBox="0 0 280 280" width="280" height="280">
	<style>
		tspan { white-space:pre }
		.shp0 { fill: #1892d2 } 
		.shp1 { fill: #1984bc } 
	</style>
	<g id="Layer">
		<path id="Layer" class="shp0" d="M255.36 41.84C213.92 0.39 172.82 18.5 139.93 48.07C107.02 18.5 66.26 0.06 24.49 41.84C-8.08 74.39 -8.24 126.7 24.49 159.08C139.57 262.61 139.54 262.42 139.54 262.42C139.54 262.42 139.71 262.76 255.35 159.08C288.1 126.7 287.93 74.39 255.36 41.84Z" />
		<path id="Layer" class="shp1" d="M139.92 48.06L139.84 48L139.84 262.17C141.69 260.61 155.26 248.82 255.35 159.07C288.09 126.7 287.93 74.39 255.35 41.84C213.91 0.39 172.82 18.5 139.92 48.06Z" />
	</g>
	<g id="Layer">
	</g>
	<g id="Layer">
	</g>
	<g id="Layer">
	</g>
	<g id="Layer">
	</g>
	<g id="Layer">
	</g>
	<g id="Layer">
	</g>
	<g id="Layer">
	</g>
	<g id="Layer">
	</g>
	<g id="Layer">
	</g>
	<g id="Layer">
	</g>
	<g id="Layer">
	</g>
	<g id="Layer">
	</g>
	<g id="Layer">
	</g>
	<g id="Layer">
	</g>
	<g id="Layer">
	</g>
</svg>