<svg id="Layer_1" data-name="Layer 1" xmlns="http://www.w3.org/2000/svg" xmlns:xlink="http://www.w3.org/1999/xlink" viewBox="0 0 2000 2000"><defs><style>.cls-1{fill:none;}.cls-2{fill:#8abd32;}.cls-3{fill:#aed76a;}.cls-4{fill:#a37a79;}.cls-5{fill:#77a22f;}.cls-6{clip-path:url(#clip-path);}.cls-7{fill:#fecfae;}.cls-8{fill:#352a28;}.cls-9{fill:#4c3b36;}.cls-10{fill:#725b51;}.cls-11{fill:#967266;}.cls-12{fill:#ddc6b6;}.cls-13{fill:#e8e3dd;}.cls-14{fill:#1e1713;}.cls-15{fill:#a29cb7;}.cls-16{clip-path:url(#clip-path-2);}.cls-17{fill:#b6b3c4;}.cls-18{clip-path:url(#clip-path-3);}.cls-19{clip-path:url(#clip-path-4);}.cls-20{fill:#a58771;}.cls-21{fill:#bf9e82;}.cls-22{fill:#e5bf9c;}.cls-23{fill:#993a23;}.cls-24{clip-path:url(#clip-path-5);}.cls-25{clip-path:url(#clip-path-6);}.cls-26{clip-path:url(#clip-path-7);}.cls-27{clip-path:url(#clip-path-8);}.cls-28{clip-path:url(#clip-path-9);}.cls-29{clip-path:url(#clip-path-10);}.cls-30{clip-path:url(#clip-path-11);}.cls-31{clip-path:url(#clip-path-12);}.cls-32{clip-path:url(#clip-path-13);}.cls-33{clip-path:url(#clip-path-14);}.cls-34{clip-path:url(#clip-path-15);}.cls-35{clip-path:url(#clip-path-16);}.cls-36{clip-path:url(#clip-path-17);}.cls-37{clip-path:url(#clip-path-18);}.cls-38{clip-path:url(#clip-path-19);}.cls-39{clip-path:url(#clip-path-20);}.cls-40{clip-path:url(#clip-path-21);}.cls-41{clip-path:url(#clip-path-22);}.cls-42{clip-path:url(#clip-path-23);}.cls-43{clip-path:url(#clip-path-24);}.cls-44{clip-path:url(#clip-path-25);}.cls-45{fill:#aa4226;}.cls-46{fill:#afd86a;}.cls-47{fill:#eae2dc;}.cls-48{fill:#adaba8;}.cls-49{fill:#969189;}.cls-50{clip-path:url(#clip-path-26);}</style><clipPath id="clip-path"><path class="cls-1" d="M625.78,966.82c-91.14-14.5-184.67,4.76-260.93,56.74C257.38,1096.82,162.23,1221.84,241,1422.85c149.33,381,360.35,440.09,728.76,396.72s599.33-312.43,688-271.19S2021,1480.19,1911,1229.33C1854.59,1100.72,1396.6,738,995.58,888.42,788.81,966,681.36,975.66,625.78,966.82Z"/></clipPath><clipPath id="clip-path-2"><path class="cls-1" d="M1113.29,1209.16s21.21,12.73-2.71,24.54c-19,9.35-40.77,2.6-49-1.12-3.41-1.53-6-5.59-6.82-8.95-.84-3.54,0-8.15,6.64-12.36,0,0-3,8,2.72,11.13s11.13,5.44,25.13,5.17c13.46-.26,25.37-5.57,27.16-9.47C1118.06,1214.41,1113.29,1209.16,1113.29,1209.16Z"/></clipPath><clipPath id="clip-path-3"><path class="cls-1" d="M1120.47,1244.36s14.14,23.6-32.22,24.47c-47.57.88-33.18-28.31-33.18-28.31s-.8,20,32.48,18.72S1120.47,1244.36,1120.47,1244.36Z"/></clipPath><clipPath id="clip-path-4"><ellipse class="cls-1" cx="1088.37" cy="1208.38" rx="6.56" ry="18.53" transform="translate(-134.11 2280.88) rotate(-89.25)"/></clipPath><clipPath id="clip-path-5"><path class="cls-1" d="M1162.76,1230s21.22,12.74-2.72,24.56c-19,9.37-40.81,2.61-49.09-1.11-3.41-1.54-6-5.6-6.83-9-.84-3.55,0-8.16,6.65-12.37,0,0-3,8,2.72,11.13s11.15,5.45,25.16,5.18c13.48-.26,25.4-5.58,27.19-9.48C1167.53,1235.23,1162.76,1230,1162.76,1230Z"/></clipPath><clipPath id="clip-path-6"><path class="cls-1" d="M1169.94,1265.2s14.16,23.64-32.25,24.5c-47.62.88-33.22-28.33-33.22-28.33s-.8,20,32.52,18.74S1169.94,1265.2,1169.94,1265.2Z"/></clipPath><clipPath id="clip-path-7"><ellipse class="cls-1" cx="1137.81" cy="1229.19" rx="6.57" ry="18.55" transform="translate(-106.12 2350.85) rotate(-89.25)"/></clipPath><clipPath id="clip-path-8"><path class="cls-1" d="M1051.93,1236.54s26.38,15.85-3.38,30.54c-23.58,11.64-50.72,3.24-61-1.39-4.24-1.91-7.5-7-8.49-11.14-1-4.41,0-10.13,8.26-15.37,0,0-3.79,9.88,3.39,13.84s13.85,6.76,31.27,6.43c16.75-.32,31.56-6.93,33.79-11.79C1057.86,1243.08,1051.93,1236.54,1051.93,1236.54Z"/></clipPath><clipPath id="clip-path-9"><path class="cls-1" d="M1060.86,1280.34s17.6,29.37-40.08,30.44c-59.19,1.1-41.29-35.21-41.29-35.21s-1,24.86,40.41,23.29S1060.86,1280.34,1060.86,1280.34Z"/></clipPath><clipPath id="clip-path-10"><ellipse class="cls-1" cx="1020.93" cy="1235.57" rx="8.16" ry="23.06" transform="translate(-227.87 2240.28) rotate(-89.25)"/></clipPath><clipPath id="clip-path-11"><path class="cls-1" d="M1113.48,1262.43s26.41,15.86-3.38,30.57c-23.61,11.65-50.78,3.25-61.08-1.39-4.25-1.91-7.51-7-8.5-11.14-1-4.42,0-10.15,8.27-15.4,0,0-3.8,9.89,3.39,13.86s13.87,6.77,31.3,6.44c16.77-.32,31.6-6.94,33.83-11.8C1119.41,1269,1113.48,1262.43,1113.48,1262.43Z"/></clipPath><clipPath id="clip-path-12"><path class="cls-1" d="M1122.42,1306.27s17.61,29.41-40.13,30.48c-59.25,1.1-41.33-35.25-41.33-35.25s-1,24.89,40.45,23.32S1122.42,1306.27,1122.42,1306.27Z"/></clipPath><clipPath id="clip-path-13"><ellipse class="cls-1" cx="1082.44" cy="1261.46" rx="8.17" ry="23.08" transform="translate(-193.05 2327.34) rotate(-89.25)"/></clipPath><clipPath id="clip-path-14"><path class="cls-1" d="M1176.94,1269.87s18.92,11.37-2.42,21.9c-16.92,8.35-36.38,2.33-43.76-1-3-1.37-5.38-5-6.09-8-.75-3.17,0-7.27,5.92-11,0,0-2.72,7.09,2.43,9.93s9.94,4.85,22.43,4.61c12-.23,22.64-5,24.24-8.45C1181.19,1274.56,1176.94,1269.87,1176.94,1269.87Z"/></clipPath><clipPath id="clip-path-15"><path class="cls-1" d="M1183.35,1301.28s12.62,21.07-28.76,21.84c-42.45.79-29.61-25.26-29.61-25.26s-.71,17.84,29,16.71S1183.35,1301.28,1183.35,1301.28Z"/></clipPath><clipPath id="clip-path-16"><ellipse class="cls-1" cx="1154.7" cy="1269.17" rx="5.86" ry="16.54" transform="translate(-129.44 2407.21) rotate(-89.25)"/></clipPath><clipPath id="clip-path-17"><path class="cls-1" d="M1003.19,1281.11s29,18-4.18,33.82c-26.33,12.57-56.3,2.86-67.65-2.43-4.67-2.17-8.22-7.82-9.25-12.46-1.1-4.92.12-11.25,9.38-16.94,0,0-4.35,10.9,3.55,15.4s15.27,7.71,34.59,7.59c18.58-.11,35.11-7.23,37.65-12.59C1009.67,1288.45,1003.19,1281.11,1003.19,1281.11Z"/></clipPath><clipPath id="clip-path-18"><path class="cls-1" d="M1012.46,1329.81s19.09,32.83-44.89,33.19c-65.66.36-45.28-39.65-45.28-39.65s-1.46,27.56,44.48,26.41S1012.46,1329.81,1012.46,1329.81Z"/></clipPath><clipPath id="clip-path-19"><ellipse class="cls-1" cx="968.82" cy="1279.59" rx="9.06" ry="25.58" transform="translate(-335.63 2214.67) rotate(-88.5)"/></clipPath><clipPath id="clip-path-20"><path class="cls-1" d="M1073.38,1311.43s29.89,19-4.8,35c-27.49,12.69-58.48,2.21-70.19-3.43-4.82-2.33-8.42-8.24-9.43-13.07-1.07-5.11.28-11.67,10-17.45,0,0-4.66,11.26,3.48,16s15.74,8.21,35.8,8.35c19.29.13,36.54-7,39.25-12.56C1080,1319.13,1073.38,1311.43,1073.38,1311.43Z"/></clipPath><clipPath id="clip-path-21"><path class="cls-1" d="M1082.35,1362.1s19.37,34.34-47.06,33.84c-68.16-.51-46.46-41.77-46.46-41.77s-1.89,28.59,45.82,28S1082.35,1362.1,1082.35,1362.1Z"/></clipPath><clipPath id="clip-path-22"><ellipse class="cls-1" cx="1037.73" cy="1309.38" rx="9.4" ry="26.55" transform="translate(-311.28 2295.03) rotate(-87.76)"/></clipPath><clipPath id="clip-path-23"><path class="cls-1" d="M1151.77,1348.17s32.37,20.61-5.21,37.95c-29.77,13.75-63.33,2.39-76-3.72-5.22-2.51-9.12-8.91-10.21-14.15-1.16-5.53.31-12.64,10.79-18.9,0,0-5,12.2,3.77,17.37s17,8.88,38.77,9c20.89.14,39.57-7.62,42.51-13.6C1158.94,1356.52,1151.77,1348.17,1151.77,1348.17Z"/></clipPath><clipPath id="clip-path-24"><path class="cls-1" d="M1161.47,1403.05s21,37.19-51,36.65c-73.81-.56-50.31-45.24-50.31-45.24s-2,31,49.62,30.35S1161.47,1403.05,1161.47,1403.05Z"/></clipPath><clipPath id="clip-path-25"><ellipse class="cls-1" cx="1113.15" cy="1345.95" rx="10.18" ry="28.75" transform="translate(-275.36 2405.54) rotate(-87.76)"/></clipPath><clipPath id="clip-path-26"><path class="cls-1" d="M357.14,849.81s-151,35-141-138.75c0,0-83.06-9.48-75.32-111,8.44-110.72,108-97.33,86.29-107.9-75.18-36.58-50.82-188.83,72.58-161.07,0,0,40.47-154.55,172.24-133.42,163.34,26.19,88.51,187.37,88.51,187.37s140.7,37.6,65.64,181.06c0,0,116.88,109.51-53.12,207.93C573,774.07,543.41,918.25,357.14,849.81Z"/></clipPath></defs><path class="cls-2" d="M826.83,654.66s-92.71,95.1-128.7-16.86c0,0-72.46-19.13-76.86-77.67s-19.57-76-17.67-88.66c2-13.12,14.71-53.85,80.89-63.43,0,0-12.31-59,53.06-72.82,53.75-11.33,110.69,31.55,104.31,80.59,0,0,146.67-1.61,80.67,134.32C922.53,550.13,976.7,642,826.83,654.66Z"/><path class="cls-3" d="M625.78,966.82c-91.14-14.5-184.67,4.76-260.93,56.74C257.38,1096.82,162.23,1221.84,241,1422.85c149.33,381,360.35,440.09,728.76,396.72s599.33-312.43,688-271.19,343.68-145.79,233.7-396.65C1835.06,1023.11,1396.6,738,995.58,888.42,788.81,966,681.36,975.66,625.78,966.82Z"/><path class="cls-4" d="M436.9,813s-38,278.86,28.67,362.73c0,0-68.25,34.25-94.86-3C353.52,1148.64,374.77,840.14,436.9,813Z"/><path class="cls-4" d="M403.21,953.93s-63.74-87.22-47.55-258.61c0,0-53.77,173.48,50,329.76,4.85,7.31,0,3.58,0,3.58Z"/><path class="cls-5" d="M357.14,849.81s-151,35-141-138.75c0,0-83.06-9.48-75.32-111,8.44-110.72,108-97.33,86.29-107.9-75.18-36.58-50.82-188.83,72.58-161.07,0,0,40.47-154.55,172.24-133.42,163.34,26.19,88.51,187.37,88.51,187.37s140.7,37.6,65.64,181.06c0,0,116.88,109.51-53.12,207.93C573,774.07,543.41,918.25,357.14,849.81Z"/><path class="cls-1" d="M408.56,850.42S265,908.79,247.41,735.68c0,0-83.52,3.76-91.91-97.66-9.16-110.67,91.27-113.18,68.16-120.18-80-24.24-80-178.43,46.22-170.51,0,0-52.81-123.81,77.1-140.73C543.93,181,535.89,359.4,535.89,359.4s144.87,14.9,93.41,168.42c0,0,132.72,89.67-19.6,213.71C609.7,741.53,603.3,888.57,408.56,850.42Z"/><g class="cls-6"><path class="cls-7" d="M625.76,1286.2s-105.94,31-119.67,159.78c-15.44,144.9,134,175.27,143,275.65s70.27,186.2,70.27,186.2l312.18,5.82S976,1750.72,846.8,1640.17c-83.64-71.58-262.48-168.36-248.31-228.87,16.61-71,126.36-75,126.36-75S905,1218.82,625.76,1286.2Z"/></g><polygon class="cls-8" points="867.72 1392.69 1288.43 1255.24 832.27 712.28 867.72 1392.69"/><polygon class="cls-9" points="1179.56 885.57 1187.8 1173.15 1593.15 924.17 1556.64 732.44 1185.23 883 1179.56 885.57"/><polygon class="cls-10" points="510.52 816.94 1154.47 1161.66 1154.47 880.42 786.75 572.8 498.51 700.35 510.52 816.94"/><path class="cls-10" d="M548.26,1247.59l279.88,139.46-1.93-388.16L545.05,854.69s-19.95,82.78-19.95,85.78S525,1236.66,548.26,1247.59Z"/><polygon class="cls-11" points="525.1 1258.74 548.26 1247.59 548.26 693.57 506.1 709.92 525.1 1258.74"/><path class="cls-11" d="M845.12,1017.68c-1.41,166.66.25,370.35,16.13,396.81l37-26.44V1017.68Z"/><polygon class="cls-12" points="820.8 1017.68 820.8 1392.06 861.25 1414.49 861.25 1017.68 820.8 1017.68"/><path class="cls-11" d="M1573.2,1361.51l37.1-19V689.8l-49.58,8.58S1545.73,1312.61,1573.2,1361.51Z"/><polygon class="cls-12" points="1573.2 715.32 1573.2 1361.51 1532.67 1346.24 1532.67 650.51 1573.2 715.32"/><polygon class="cls-12" points="525.1 691.47 525.1 1258.74 487.09 1238.36 487.09 690.35 525.1 691.47"/><path class="cls-13" d="M1211.82,1515.24,1573.2,1334l-40.53-12.42v-33.81l-296.25-144.5L978.7,1279l40,44.19-121,52.84-36.4,15.52L1118.48,1524l-.46-137.21S1191.07,1372,1211.82,1515.24Z"/><path class="cls-11" d="M1113.77,1207.45s13.5,31.89,2.22,60.59a19.94,19.94,0,0,1-9.5,10.5c-9,4.56-26,9.94-41.83-3.1a20.55,20.55,0,0,1-6.43-9.43c-3.11-9.34-7-30,4.73-57.93l16.14,10.2,16.92,1.28,11.72-4.09,5.13-8Z"/><path class="cls-10" d="M1091.89,1219.71s-.55,56-2.25,62.36l-.74-62.4Z"/><path class="cls-10" d="M1073.72,1217.13s-6,25-2.7,60.92c0,0-8.07-19.47.21-62Z"/><path class="cls-10" d="M1106.39,1216s6.07,26.18,1.84,61.1c0,0,8.1-21.12.92-62.86Z"/><ellipse class="cls-10" cx="1088.36" cy="1209.69" rx="10.92" ry="26.06" transform="translate(-135.44 2282.16) rotate(-89.25)"/><ellipse class="cls-14" cx="1088.37" cy="1208.38" rx="6.56" ry="18.53" transform="translate(-134.11 2280.88) rotate(-89.25)"/><path class="cls-15" d="M1061.36,1211.27s-3,8,2.72,11.13,11.13,5.44,25.13,5.17c13.46-.26,25.25-5.62,27.16-9.47,1-2,.11-4.38-1-6.17a2.59,2.59,0,0,0-.18-.66,3.66,3.66,0,0,1-.21-.55c0-.15-.06-.31-.11-.45,4.46,3.34,15.39,13.7-4.32,23.43-19,9.35-41.22,3.33-49-1.12-5.61-3.19-6-5.59-6.82-8.95C1053.88,1220.09,1054.7,1215.48,1061.36,1211.27Z"/><g class="cls-16"><path class="cls-17" d="M1061.47,1210.46c3.19-2.18,44.58-2.14,51.08-2.12a.49.49,0,0,0-.42.45.5.5,0,0,0,.52.47h.12a.31.31,0,0,0,0,.1l0,.12a.4.4,0,0,0,.07.24l.08.09a.42.42,0,0,0,.17.1.46.46,0,0,0,.2,0,.49.49,0,0,0,.21,0h0a.47.47,0,0,0,.14.31l.09.08,0,3c0,.58,1,.62,1,.08,0,.11.07.23.11.34a.57.57,0,0,0,.65.34.47.47,0,0,0,.37-.57c-.17-.48-.93-3.28-1-3.46l-.07-.64c2.4,2.17,6.67,7.26.68,11.92-7.88,6.14-18.53,8.12-26.45,8.5s-21.93-1.24-27.76-6.48C1057.33,1219.89,1058,1212.82,1061.47,1210.46Z"/></g><path class="cls-15" d="M1120.47,1244.67s9.43,27.66-32.26,27.12c-45.81-.6-33.14-31.27-33.14-31.27s-.83,22.11,32.46,20.67S1120.47,1244.67,1120.47,1244.67Z"/><g class="cls-18"><path class="cls-17" d="M1120.57,1236.66s10.87,24.5-32.23,25.6c-44.52,1.12-33.17-29.57-33.17-29.57s-.81,20.89,32.47,19.55S1120.57,1236.66,1120.57,1236.66Z"/></g><g class="cls-19"><path class="cls-11" d="M1070,1212c2.48,2.21,9.32,4,18.09,4.07,8.4.11,15.69-1,18.58-3.51,2-1.7-3.74-7.4-18.41-7.52C1072.39,1204.87,1068,1210.17,1070,1212Z"/></g><path class="cls-20" d="M1342.25,1406.62v20.23l163-87.22v-19.81S1339.08,1356.56,1342.25,1406.62Z"/><path class="cls-21" d="M1342.25,1406.62s11.15,6.28,0,20.23l-171.67-104.62v-14.29S1340.53,1372,1342.25,1406.62Z"/><polygon class="cls-22" points="1170.58 1307.94 1342.25 1406.62 1505.24 1319.82 1319.28 1230.01 1170.58 1307.94"/><polygon class="cls-21" points="1211.27 1286.61 1386.01 1383.31 1397.08 1377.41 1219.78 1282.15 1211.27 1286.61"/><polygon class="cls-21" points="1267.73 1257.02 1449.82 1349.33 1458.13 1344.9 1271.13 1255.24 1267.73 1257.02"/><path class="cls-20" d="M1357.28,1374.59v20.23l163-87.22v-19.81S1354.12,1324.53,1357.28,1374.59Z"/><path class="cls-21" d="M1357.28,1374.59s11.16,6.28,0,20.23L1185.62,1290.2v-14.29S1355.57,1340,1357.28,1374.59Z"/><polygon class="cls-22" points="1185.62 1275.91 1357.28 1374.59 1520.28 1287.79 1334.32 1197.97 1185.62 1275.91"/><polygon class="cls-21" points="1226.31 1254.58 1401.05 1351.28 1412.12 1345.38 1234.82 1250.12 1226.31 1254.58"/><polygon class="cls-21" points="1282.77 1224.99 1464.86 1317.3 1473.16 1312.88 1286.17 1223.21 1282.77 1224.99"/><path class="cls-20" d="M1326.51,1354.88v20.24l163-87.22v-19.82S1323.34,1304.83,1326.51,1354.88Z"/><path class="cls-21" d="M1326.51,1354.88s11.15,6.29,0,20.24L1154.84,1270.5v-14.29S1324.79,1320.27,1326.51,1354.88Z"/><polygon class="cls-22" points="1154.84 1256.21 1326.51 1354.88 1489.5 1268.08 1303.54 1178.27 1154.84 1256.21"/><polygon class="cls-21" points="1195.53 1234.88 1370.27 1331.58 1381.34 1325.68 1204.04 1230.42 1195.53 1234.88"/><polygon class="cls-21" points="1251.99 1205.29 1434.08 1297.6 1442.39 1293.17 1255.39 1203.51 1251.99 1205.29"/><path class="cls-20" d="M1342.25,1318.17v20.23l163-87.22v-19.82S1339.08,1268.11,1342.25,1318.17Z"/><path class="cls-21" d="M1342.25,1318.17s11.15,6.28,0,20.23l-171.67-104.62v-14.29S1340.53,1283.55,1342.25,1318.17Z"/><polygon class="cls-22" points="1170.58 1219.49 1342.25 1318.17 1505.24 1231.37 1319.28 1141.55 1170.58 1219.49"/><polygon class="cls-21" points="1211.27 1198.16 1386.01 1294.86 1397.08 1288.96 1219.78 1193.7 1211.27 1198.16"/><polygon class="cls-21" points="1267.73 1168.57 1449.82 1260.88 1458.13 1256.45 1271.13 1166.79 1267.73 1168.57"/><path class="cls-20" d="M1323.55,1303.1v20.24l163-87.22V1216.3S1320.39,1253.05,1323.55,1303.1Z"/><path class="cls-21" d="M1323.55,1303.1s11.15,6.29,0,20.24l-171.67-104.62v-14.29S1321.83,1268.49,1323.55,1303.1Z"/><polygon class="cls-22" points="1151.88 1204.43 1323.55 1303.11 1486.54 1216.3 1300.58 1126.49 1151.88 1204.43"/><polygon class="cls-21" points="1192.57 1183.1 1367.31 1279.8 1378.38 1273.9 1201.08 1178.64 1192.57 1183.1"/><polygon class="cls-21" points="1249.04 1153.51 1431.12 1245.82 1439.43 1241.39 1252.43 1151.73 1249.04 1153.51"/><path class="cls-20" d="M1332.84,1271.89v20.24l163-87.22v-19.82S1329.68,1221.83,1332.84,1271.89Z"/><path class="cls-21" d="M1332.84,1271.89s11.16,6.28,0,20.24L1161.17,1187.5v-14.29S1331.13,1237.27,1332.84,1271.89Z"/><polygon class="cls-22" points="1161.17 1173.21 1332.84 1271.89 1495.84 1185.09 1309.88 1095.28 1161.17 1173.21"/><polygon class="cls-21" points="1201.87 1151.88 1376.61 1248.58 1387.68 1242.69 1210.38 1147.42 1201.87 1151.88"/><polygon class="cls-21" points="1258.33 1122.29 1440.42 1214.6 1448.72 1210.18 1261.73 1120.51 1258.33 1122.29"/><path class="cls-23" d="M1201.87,1214.8s121.68,106.52,275.59,91.6,226.67-118.68,247.57-210l-526.81,77Z"/><path class="cls-20" d="M1217.4,985.08l443.48-248.4v-21l-440.05,223.1S1203.08,966.21,1217.4,985.08Z"/><path class="cls-11" d="M1163.24,1228.26s13.51,31.93,2.21,60.66a20,20,0,0,1-9.5,10.51c-9,4.56-26,9.94-41.88-3.11a20.6,20.6,0,0,1-6.44-9.44c-3.1-9.35-7-30,4.74-58l16.15,10.21,17,1.28,11.73-4.09,5.14-8Z"/><path class="cls-10" d="M1141.34,1240.53s-.56,56-2.26,62.42l-.74-62.46Z"/><path class="cls-10" d="M1123.14,1238s-6,25.07-2.7,61c0,0-8.08-19.49.21-62.1Z"/><path class="cls-10" d="M1155.85,1236.84s6.07,26.2,1.84,61.16c0,0,8.11-21.14.92-62.93Z"/><ellipse class="cls-10" cx="1137.8" cy="1230.5" rx="10.94" ry="26.09" transform="translate(-107.45 2352.13) rotate(-89.25)"/><ellipse class="cls-14" cx="1137.81" cy="1229.19" rx="6.57" ry="18.55" transform="translate(-106.12 2350.85) rotate(-89.25)"/><path class="cls-15" d="M1110.77,1232.09s-3,8,2.72,11.13,11.15,5.45,25.16,5.18c13.48-.26,25.28-5.62,27.19-9.48,1-2,.1-4.38-1-6.17a2.55,2.55,0,0,0-.18-.67,4,4,0,0,1-.21-.54c0-.16-.06-.31-.11-.46,4.46,3.34,15.41,13.71-4.33,23.45-19,9.37-41.26,3.34-49.09-1.11-5.61-3.2-6-5.6-6.83-9C1103.28,1240.91,1104.11,1236.3,1110.77,1232.09Z"/><g class="cls-24"><path class="cls-17" d="M1110.88,1231.27c3.19-2.18,44.63-2.14,51.14-2.12a.46.46,0,1,0,.09.92h.12a1,1,0,0,0,0,.1l0,.12a.4.4,0,0,0,.07.24l.08.1a.39.39,0,0,0,.17.09.46.46,0,0,0,.2,0,.45.45,0,0,0,.2,0h0a.46.46,0,0,0,.15.31l.08.08,0,3.05c0,.58,1,.61,1.05.07l.12.35a.55.55,0,0,0,.65.33.47.47,0,0,0,.37-.57c-.17-.47-.94-3.28-1-3.46s-.06-.64-.06-.64c2.4,2.18,6.67,7.27.68,11.94-7.89,6.14-18.55,8.12-26.48,8.5s-22-1.24-27.79-6.48C1106.74,1240.71,1107.42,1233.63,1110.88,1231.27Z"/></g><path class="cls-15" d="M1169.94,1265.52s9.45,27.69-32.29,27.14c-45.86-.6-33.18-31.29-33.18-31.29s-.82,22.13,32.49,20.68S1169.94,1265.52,1169.94,1265.52Z"/><g class="cls-25"><path class="cls-17" d="M1170,1257.5s10.88,24.53-32.26,25.62c-44.57,1.13-33.2-29.59-33.2-29.59s-.82,20.91,32.5,19.57S1170,1257.5,1170,1257.5Z"/></g><g class="cls-26"><path class="cls-11" d="M1119.42,1232.78c2.48,2.2,9.33,4,18.1,4.07,8.41.11,15.71-1,18.61-3.51,2-1.71-3.74-7.42-18.43-7.54C1121.81,1225.68,1117.4,1231,1119.42,1232.78Z"/></g><path class="cls-11" d="M1052.53,1234.42s16.79,39.68,2.75,75.39a24.81,24.81,0,0,1-11.81,13.06c-11.16,5.67-32.32,12.36-52.05-3.86a25.52,25.52,0,0,1-8-11.73c-3.87-11.63-8.73-37.29,5.89-72.08l20.07,12.69,21.06,1.59,14.59-5.08,6.38-10Z"/><path class="cls-10" d="M1025.3,1249.67s-.68,69.62-2.8,77.58l-.92-77.62Z"/><path class="cls-10" d="M1002.7,1246.46s-7.47,31.16-3.36,75.8c0,0-10.05-24.23.25-77.19Z"/><path class="cls-10" d="M1043.34,1245.09s7.55,32.56,2.29,76c0,0,10.08-26.27,1.15-78.21Z"/><ellipse class="cls-10" cx="1020.91" cy="1237.2" rx="13.59" ry="32.43" transform="translate(-229.52 2241.86) rotate(-89.25)"/><ellipse class="cls-14" cx="1020.93" cy="1235.57" rx="8.16" ry="23.06" transform="translate(-227.87 2240.28) rotate(-89.25)"/><path class="cls-15" d="M987.31,1239.18s-3.79,9.88,3.39,13.84,13.85,6.76,31.27,6.43c16.75-.32,31.42-7,33.79-11.79,1.24-2.51.13-5.44-1.21-7.66a2.69,2.69,0,0,0-.22-.83,4.73,4.73,0,0,1-.26-.68,5.27,5.27,0,0,0-.14-.57c5.55,4.16,19.15,17-5.38,29.16-23.58,11.64-51.28,4.14-61-1.39-7-4-7.5-7-8.49-11.14C978,1250.14,979,1244.42,987.31,1239.18Z"/><g class="cls-27"><path class="cls-17" d="M987.46,1238.16c4-2.7,55.46-2.66,63.55-2.64a.62.62,0,0,0-.53.56.63.63,0,0,0,.65.59h.15l-.06.12,0,.16a.44.44,0,0,0,.08.29l.1.12a.45.45,0,0,0,.21.12.54.54,0,0,0,.25.06.75.75,0,0,0,.26,0h0a.53.53,0,0,0,.18.39l.1.09-.05,3.79c0,.72,1.21.76,1.3.09l.15.43a.69.69,0,0,0,.8.42.59.59,0,0,0,.47-.71c-.22-.59-1.16-4.08-1.26-4.3s-.08-.8-.08-.8c3,2.71,8.29,9,.84,14.84-9.81,7.64-23,10.1-32.92,10.56s-27.28-1.54-34.53-8C982.3,1249.89,983.16,1241.1,987.46,1238.16Z"/></g><path class="cls-15" d="M1060.86,1280.73s11.74,34.41-40.13,33.74c-57-.75-41.24-38.9-41.24-38.9s-1,27.51,40.38,25.71S1060.86,1280.73,1060.86,1280.73Z"/><g class="cls-28"><path class="cls-17" d="M1061,1270.76s13.52,30.49-40.11,31.85c-55.39,1.4-41.26-36.79-41.26-36.79s-1,26,40.4,24.33S1061,1270.76,1061,1270.76Z"/></g><g class="cls-29"><path class="cls-11" d="M998.07,1240c3.08,2.75,11.59,4.92,22.5,5.06,10.45.14,19.52-1.29,23.12-4.36,2.48-2.12-4.65-9.22-22.91-9.36C1001,1231.21,995.55,1237.8,998.07,1240Z"/></g><path class="cls-11" d="M1114.07,1260.31s16.81,39.72,2.76,75.47a24.9,24.9,0,0,1-11.82,13.08c-11.18,5.67-32.35,12.37-52.11-3.87a25.57,25.57,0,0,1-8-11.74c-3.87-11.64-8.73-37.33,5.89-72.16l20.1,12.71,21.08,1.59,14.6-5.09,6.39-10Z"/><path class="cls-10" d="M1086.82,1275.58s-.69,69.69-2.81,77.66l-.92-77.71Z"/><path class="cls-10" d="M1064.19,1272.36s-7.48,31.2-3.36,75.88c0,0-10.06-24.25.25-77.27Z"/><path class="cls-10" d="M1104.88,1271s7.56,32.6,2.29,76.1c0,0,10.09-26.31,1.15-78.3Z"/><ellipse class="cls-10" cx="1082.42" cy="1263.09" rx="13.61" ry="32.46" transform="translate(-194.7 2328.93) rotate(-89.25)"/><ellipse class="cls-14" cx="1082.44" cy="1261.46" rx="8.17" ry="23.08" transform="translate(-193.05 2327.34) rotate(-89.25)"/><path class="cls-15" d="M1048.79,1265.07s-3.8,9.89,3.39,13.86,13.87,6.77,31.3,6.44c16.77-.32,31.45-7,33.83-11.8,1.24-2.52.13-5.45-1.21-7.68a3,3,0,0,0-.22-.83,5.52,5.52,0,0,1-.27-.67,4.76,4.76,0,0,0-.13-.57c5.55,4.16,19.17,17.06-5.38,29.18-23.61,11.65-51.34,4.15-61.08-1.39-7-4-7.51-7-8.5-11.14C1039.47,1276.05,1040.5,1270.32,1048.79,1265.07Z"/><g class="cls-30"><path class="cls-17" d="M1048.93,1264.05c4-2.7,55.53-2.66,63.62-2.64a.64.64,0,0,0-.53.56.63.63,0,0,0,.65.59h.15a.5.5,0,0,0,0,.13l0,.15a.52.52,0,0,0,.09.29l.1.12a.57.57,0,0,0,.21.13.66.66,0,0,0,.25,0,.53.53,0,0,0,.25,0h0a.59.59,0,0,0,.18.39l.11.1,0,3.79c0,.72,1.2.76,1.3.09l.15.43a.69.69,0,0,0,.8.42.59.59,0,0,0,.47-.71c-.22-.59-1.17-4.09-1.27-4.31l-.08-.8c3,2.71,8.31,9,.85,14.86-9.82,7.64-23.08,10.11-33,10.57s-27.32-1.54-34.58-8.06C1043.77,1275.8,1044.63,1267,1048.93,1264.05Z"/></g><path class="cls-15" d="M1122.41,1306.67s11.76,34.45-40.17,33.77c-57.06-.74-41.28-38.94-41.28-38.94s-1,27.54,40.42,25.74S1122.41,1306.67,1122.41,1306.67Z"/><g class="cls-31"><path class="cls-17" d="M1122.54,1296.69s13.54,30.52-40.15,31.88c-55.45,1.4-41.3-36.82-41.3-36.82s-1,26,40.44,24.35S1122.54,1296.69,1122.54,1296.69Z"/></g><g class="cls-32"><path class="cls-11" d="M1059.55,1265.93c3.1,2.75,11.61,4.92,22.53,5.06,10.46.14,19.55-1.29,23.14-4.36,2.49-2.13-4.65-9.23-22.92-9.38C1062.53,1257.1,1057,1263.69,1059.55,1265.93Z"/></g><path class="cls-11" d="M1177.37,1268.35s12,28.46,2,54.07a17.75,17.75,0,0,1-8.47,9.37c-8,4.07-23.18,8.87-37.33-2.77a18.31,18.31,0,0,1-5.74-8.41c-2.77-8.34-6.26-26.75,4.22-51.7l14.4,9.1,15.11,1.14,10.46-3.64,4.58-7.17Z"/><path class="cls-10" d="M1157.84,1279.29s-.49,49.93-2,55.64l-.66-55.67Z"/><path class="cls-10" d="M1141.63,1277s-5.36,22.34-2.41,54.36c0,0-7.21-17.38.18-55.36Z"/><path class="cls-10" d="M1170.78,1276s5.41,23.36,1.64,54.52c0,0,7.23-18.84.82-56.1Z"/><ellipse class="cls-10" cx="1154.69" cy="1270.34" rx="9.75" ry="23.26" transform="translate(-130.62 2408.35) rotate(-89.25)"/><ellipse class="cls-14" cx="1154.7" cy="1269.17" rx="5.86" ry="16.54" transform="translate(-129.44 2407.21) rotate(-89.25)"/><path class="cls-15" d="M1130.59,1271.76s-2.72,7.09,2.43,9.93,9.94,4.85,22.43,4.61c12-.23,22.53-5,24.24-8.45.89-1.81.09-3.91-.87-5.5a2.13,2.13,0,0,0-.16-.6,4,4,0,0,1-.19-.48c0-.14,0-.28-.09-.41,4,3,13.73,12.23-3.86,20.91-16.92,8.35-36.78,3-43.76-1-5-2.85-5.38-5-6.09-8C1123.92,1279.62,1124.66,1275.52,1130.59,1271.76Z"/><g class="cls-33"><path class="cls-17" d="M1130.7,1271c2.84-1.94,39.78-1.91,45.58-1.89a.41.41,0,1,0,.09.82h.1l0,.08,0,.11a.37.37,0,0,0,.06.21l.08.09a.38.38,0,0,0,.15.09.34.34,0,0,0,.18,0,.29.29,0,0,0,.18,0h0a.37.37,0,0,0,.13.28l.07.07,0,2.72c0,.52.86.54.93.07l.11.3a.48.48,0,0,0,.57.3.41.41,0,0,0,.34-.51c-.16-.42-.84-2.93-.91-3.08s0-.58,0-.58c2.14,2,5.94,6.48.6,10.65-7,5.48-16.53,7.24-23.61,7.57s-19.57-1.1-24.77-5.77C1127,1279.45,1127.61,1273.14,1130.7,1271Z"/></g><path class="cls-15" d="M1183.34,1301.56s8.42,24.69-28.78,24.2c-40.88-.53-29.58-27.9-29.58-27.9s-.74,19.73,29,18.44S1183.34,1301.56,1183.34,1301.56Z"/><g class="cls-34"><path class="cls-17" d="M1183.43,1294.41s9.71,21.87-28.76,22.85c-39.73,1-29.6-26.39-29.6-26.39s-.72,18.65,29,17.45S1183.43,1294.41,1183.43,1294.41Z"/></g><g class="cls-35"><path class="cls-11" d="M1138.31,1272.38c2.21,2,8.31,3.52,16.14,3.62,7.49.1,14-.92,16.58-3.12,1.78-1.53-3.33-6.61-16.43-6.72C1140.44,1266.05,1136.5,1270.77,1138.31,1272.38Z"/></g><path class="cls-11" d="M1003.88,1278.77s18,44.25,2,83.65a27.58,27.58,0,0,1-13.29,14.31c-12.46,6.13-36,13.24-57.67-5a28.42,28.42,0,0,1-8.71-13.13c-4.11-13-9.13-41.48,7.58-79.85l22.08,14.36,23.33,2.07,16.25-5.42,7.23-11Z"/><path class="cls-10" d="M973.47,1295.29s-1.77,77.2-4.23,86l.1-86.11Z"/><path class="cls-10" d="M948.45,1291.4s-8.73,34.45-4.83,84c0,0-10.79-27,1.4-85.6Z"/><path class="cls-10" d="M993.54,1290.47s7.91,36.22,1.44,84.33c0,0,11.56-29,2.4-86.72Z"/><ellipse class="cls-10" cx="968.77" cy="1281.39" rx="15.07" ry="35.97" transform="translate(-337.48 2216.38) rotate(-88.5)"/><ellipse class="cls-14" cx="968.82" cy="1279.59" rx="9.06" ry="25.58" transform="translate(-335.63 2214.67) rotate(-88.5)"/><path class="cls-15" d="M931.49,1283.1s-4.35,10.9,3.55,15.4,15.27,7.71,34.59,7.59c18.58-.11,34.94-7.3,37.65-12.59,1.41-2.77.22-6-1.23-8.52a3.27,3.27,0,0,0-.23-.92,5.28,5.28,0,0,1-.29-.75c0-.22-.07-.43-.14-.64,6.09,4.69,21,19.19-6.38,32.26-26.33,12.57-56.94,3.85-67.65-2.43-7.68-4.5-8.22-7.82-9.25-12.46C921,1295.12,922.23,1288.79,931.49,1283.1Z"/><g class="cls-36"><path class="cls-17" d="M931.67,1282c4.43-3,61.55-2.15,70.52-2a.64.64,0,1,0,.11,1.27h.17a.54.54,0,0,0-.07.13l0,.17a.63.63,0,0,0,.09.33l.11.13a.55.55,0,0,0,.23.14.68.68,0,0,0,.28.07.64.64,0,0,0,.28,0l0,0a.63.63,0,0,0,.19.44l.11.11-.11,4.2c0,.8,1.33.86,1.45.12.05.16.1.32.16.48a.76.76,0,0,0,.88.47.65.65,0,0,0,.53-.78c-.24-.66-1.24-4.54-1.34-4.79s-.08-.89-.08-.89c3.27,3,9.07,10.14.72,16.47-11,8.33-25.71,10.87-36.66,11.24s-30.23-2.1-38.18-9.43C925.78,1294.91,926.86,1285.17,931.67,1282Z"/></g><path class="cls-15" d="M1012.45,1330.25s12.53,38.33-45,36.83c-63.21-1.65-45.17-43.73-45.17-43.73s-1.54,30.49,44.41,29.1S1012.45,1330.25,1012.45,1330.25Z"/><g class="cls-37"><path class="cls-17" d="M1012.74,1319.19s14.56,34-44.94,34.74c-61.45.76-45.23-41.39-45.23-41.39s-1.49,28.81,44.45,27.56S1012.74,1319.19,1012.74,1319.19Z"/></g><g class="cls-38"><path class="cls-11" d="M943.41,1284.21c3.38,3.08,12.78,5.62,24.88,5.93,11.59.3,21.67-1.14,25.7-4.5,2.79-2.32-5-10.29-25.26-10.72C946.83,1274.46,940.65,1281.69,943.41,1284.21Z"/></g><path class="cls-11" d="M1074.13,1309s18.14,46.18.91,86.86a28.59,28.59,0,0,1-14,14.68c-13,6.19-37.57,13.25-59.8-6a29.48,29.48,0,0,1-8.85-13.74c-4.1-13.5-8.92-43.18,8.94-82.79l22.73,15.21,24.19,2.46,16.94-5.4,7.65-11.32Z"/><path class="cls-10" d="M1042.34,1325.74s-2.88,80.11-5.56,89.21l1.27-89.38Z"/><path class="cls-10" d="M1016.42,1321.36s-9.53,35.64-6.15,87.15c0,0-10.84-28.19,2.62-88.84Z"/><path class="cls-10" d="M1063.24,1321s7.71,37.72.35,87.57c0,0,12.39-29.94,3.67-90Z"/><ellipse class="cls-10" cx="1037.65" cy="1311.25" rx="15.65" ry="37.34" transform="translate(-313.23 2296.76) rotate(-87.76)"/><ellipse class="cls-14" cx="1037.73" cy="1309.38" rx="9.4" ry="26.55" transform="translate(-311.28 2295.03) rotate(-87.76)"/><path class="cls-15" d="M998.93,1312.52s-4.66,11.26,3.48,16,15.74,8.21,35.8,8.35c19.29.13,36.37-7.1,39.25-12.56,1.5-2.86.31-6.26-1.16-8.86a3.63,3.63,0,0,0-.23-1,6.16,6.16,0,0,1-.29-.78c0-.23-.07-.45-.13-.67,6.25,5,21.53,20.2-7.07,33.4-27.49,12.69-59.15,3.23-70.19-3.43-7.91-4.78-8.42-8.24-9.43-13.07C987.89,1324.86,989.24,1318.3,998.93,1312.52Z"/><g class="cls-39"><path class="cls-17" d="M999.13,1311.35c4.64-3,63.92-1.4,73.22-1.13a.67.67,0,1,0,.11,1.33h.17a.83.83,0,0,0-.07.13l0,.18a.52.52,0,0,0,.09.34l.11.14a.49.49,0,0,0,.24.15.64.64,0,0,0,.28.07.6.6,0,0,0,.3,0h0a.62.62,0,0,0,.2.45l.11.12-.17,4.36c0,.83,1.37.91,1.5.14,0,.17.1.33.16.5a.77.77,0,0,0,.91.5.67.67,0,0,0,.56-.8c-.24-.69-1.22-4.73-1.33-5l-.07-.92c3.36,3.21,9.28,10.65.53,17.1-11.52,8.5-26.84,10.94-38.21,11.18s-31.36-2.6-39.51-10.32C992.84,1324.7,994.09,1314.6,999.13,1311.35Z"/></g><path class="cls-15" d="M1082.33,1362.56s12.48,40-47.2,37.62c-65.59-2.57-46.3-46-46.3-46s-2,31.63,45.71,30.81S1082.33,1362.56,1082.33,1362.56Z"/><g class="cls-40"><path class="cls-17" d="M1082.78,1351.08s14.65,35.5-47.12,35.46c-63.8,0-46.39-43.59-46.39-43.59s-1.94,29.89,45.77,29.22S1082.78,1351.08,1082.78,1351.08Z"/></g><g class="cls-41"><path class="cls-11" d="M1011.28,1313.83c3.47,3.25,13.19,6,25.75,6.49,12,.48,22.51-.89,26.74-4.32,2.92-2.37-5.07-10.75-26.08-11.47C1015,1303.76,1008.46,1311.18,1011.28,1313.83Z"/></g><path class="cls-11" d="M1152.58,1345.55s19.64,50,1,94.06a31,31,0,0,1-15.15,15.9c-14.1,6.7-40.68,14.35-64.76-6.51a31.92,31.92,0,0,1-9.59-14.88c-4.43-14.62-9.66-46.76,9.69-89.66l24.61,16.48,26.2,2.66,18.34-5.85,8.29-12.26Z"/><path class="cls-10" d="M1118.15,1363.68s-3.13,86.74-6,96.61l1.38-96.8Z"/><path class="cls-10" d="M1090.07,1358.93s-10.32,38.6-6.65,94.38c0,0-11.74-30.53,2.83-96.21Z"/><path class="cls-10" d="M1140.78,1358.54s8.35,40.84.38,94.83c0,0,13.42-32.42,4-97.46Z"/><ellipse class="cls-10" cx="1113.07" cy="1347.98" rx="16.95" ry="40.44" transform="translate(-277.47 2407.41) rotate(-87.76)"/><ellipse class="cls-14" cx="1113.15" cy="1345.95" rx="10.18" ry="28.75" transform="translate(-275.36 2405.54) rotate(-87.76)"/><path class="cls-15" d="M1071.13,1349.35s-5,12.2,3.77,17.37,17,8.88,38.77,9c20.89.14,39.39-7.69,42.51-13.6,1.63-3.09.34-6.78-1.26-9.59a3.81,3.81,0,0,0-.24-1,6.72,6.72,0,0,1-.32-.85c0-.24-.07-.48-.14-.71,6.77,5.36,23.31,21.87-7.66,36.16-29.77,13.75-64,3.5-76-3.72-8.56-5.17-9.12-8.91-10.21-14.15C1059.18,1362.72,1060.65,1355.61,1071.13,1349.35Z"/><g class="cls-42"><path class="cls-17" d="M1071.35,1348.09c5-3.24,69.22-1.51,79.3-1.22a.72.72,0,1,0,.11,1.44h.19a1.09,1.09,0,0,0-.08.15l0,.19a.6.6,0,0,0,.09.37l.13.16a.58.58,0,0,0,.25.15.69.69,0,0,0,.32.08.65.65,0,0,0,.31-.05h0a.7.7,0,0,0,.21.49l.13.12-.19,4.72c0,.9,1.48,1,1.62.16.06.18.11.36.17.54a.86.86,0,0,0,1,.54.73.73,0,0,0,.61-.87c-.26-.74-1.32-5.12-1.44-5.4l-.07-1c3.63,3.48,10,11.53.57,18.52-12.48,9.21-29.07,11.85-41.38,12.1s-34-2.81-42.78-11.16C1064.54,1362.55,1065.89,1351.61,1071.35,1348.09Z"/></g><path class="cls-15" d="M1161.45,1403.54s13.52,43.28-51.12,40.75c-71-2.79-50.13-49.83-50.13-49.83s-2.18,34.25,49.5,33.36S1161.45,1403.54,1161.45,1403.54Z"/><g class="cls-43"><path class="cls-17" d="M1161.94,1391.12s15.86,38.45-51,38.39c-69.09,0-50.23-47.19-50.23-47.19s-2.11,32.36,49.56,31.63S1161.94,1391.12,1161.94,1391.12Z"/></g><g class="cls-44"><path class="cls-11" d="M1084.51,1350.77c3.76,3.52,14.29,6.51,27.89,7,13,.51,24.38-1,28.95-4.68,3.17-2.57-5.49-11.64-28.24-12.42C1088.51,1339.87,1081.45,1347.91,1084.51,1350.77Z"/></g><path class="cls-11" d="M1167.22,1576.15l44.6-28.31-5.52-642.6L1152.2,913S1134.19,1527.25,1167.22,1576.15Z"/><polygon class="cls-12" points="1167.21 929.96 1167.21 1576.15 1118.48 1552.13 1118.48 865.15 1167.21 929.96"/><path class="cls-45" d="M1556.64,991.94s39.41,103.15,168.16,105c0,0-85.37,162.57-235.3,171.12-228.36,13-277.67-85.52-277.67-85.52l9-40.62Z"/><path class="cls-23" d="M1428.53,1054.31s-19.88,70,144.7,81.3c0,0-166.54-45.78-114.26-112.18Z"/><path class="cls-23" d="M1370.65,1085.67s-53.75,135.83,217.74,107.23c0,0-260.46-38.35-185.28-136Z"/><path class="cls-23" d="M1463.5,1042.94s2,51,121.75,35.58c0,0-119.42,4.23-103.77-53.76Z"/><path class="cls-11" d="M1593.15,1414.48s7.55,13.65,20.68,9.23L1768.09,1094l-39.62-18.76Z"/><path class="cls-12" d="M1752,1079.41c7.6,4.21,18.38,10.21,16.12,14.61s-9.83,6-21.81-.13-19.86-14.7-17.6-19.11S1740.19,1072.89,1752,1079.41Z"/><path class="cls-46" d="M402.36,1194.41c-.05-2.27-.8-31.47-6.5-47.1a.27.27,0,0,1,.44-.29c4.21,4.17,22.08,22.85,22,39.44-.13,17.83-14.31,9.11-15.77,8.17A.26.26,0,0,1,402.36,1194.41Z"/><path class="cls-46" d="M414.92,1198.07c.65-2.68,10.56-44.08,8.21-67.74a.27.27,0,0,1,.5-.17c3.74,6.29,22.43,39.45,16.08,62.73-6.74,24.71-23.31,7-24.72,5.43A.29.29,0,0,1,414.92,1198.07Z"/><path class="cls-46" d="M403.59,1194.93c-1.06-1.7-13-21.13-16.14-34a.27.27,0,0,0-.53,0c-1.06,5-4.58,24.81,2.62,35.64,7.81,11.76,13.44,0,14.07-1.41A.28.28,0,0,0,403.59,1194.93Z"/><polygon class="cls-22" points="846.8 652.23 1220.83 961.06 1660.88 715.66 1276.64 398.03 1120.89 462.86 846.8 652.23"/><polygon class="cls-20" points="809.92 647.08 447.39 731.15 435.38 713.99 769.33 561.29 794.29 583.4 809.92 647.08"/><polygon class="cls-21" points="1220.84 961.06 1217.4 985.09 809.92 647.08 794.29 583.4 1220.84 961.06"/><polygon class="cls-21" points="435.38 713.99 785.03 628.21 1086.79 486.02 1226.59 377.69 841.67 473.38 435.38 713.99"/><path class="cls-11" d="M1288.43,367.06l-8.68,28.35-443.49,276-4-44.4S1194.64,388.32,1288.43,367.06Z"/><polygon class="cls-12" points="786.75 608.94 786.75 649.47 836.25 671.4 849.28 633.75 842.12 608.94 786.75 608.94"/><polygon class="cls-47" points="786.75 608.94 849.28 633.75 1288.43 367.06 1242.54 359.96 786.75 608.94"/><path class="cls-21" d="M1061.53,544.6,1401,842.54s-130.94-102.56-223.3-188S1061.53,544.6,1061.53,544.6Z"/><path class="cls-21" d="M1202.82,458.81l339.51,297.94s-130.94-102.56-223.31-188S1202.82,458.81,1202.82,458.81Z"/><path class="cls-20" d="M780,515.21l239.35-56.4S876,503,780,515.21Z"/><path class="cls-20" d="M643.44,601l239.35-56.4S739.39,588.8,643.44,601Z"/><path class="cls-11" d="M792.44,1140.71v33l-15.23,9.65s-10.92-30.15,0-35.38S775.5,1134.71,792.44,1140.71Z"/><path class="cls-47" d="M564.25,1031.55l17.58-2.36,210.61,111.52-15.23,7.3S581.83,1061.36,564.25,1031.55Z"/><polygon class="cls-11" points="753.84 1367.19 767.56 1357.75 767.56 1168.59 748.9 1160.99 753.84 1367.19"/><path class="cls-23" d="M625.76,1286.2l112.64,57V1143.29L616.65,1085.2S609.43,1268.26,625.76,1286.2Z"/><polygon class="cls-11" points="612.26 1291.78 625.76 1286.2 625.98 1092.8 607.32 1085.2 612.26 1291.78"/><path class="cls-12" d="M582.79,1270.71l.12-192.19-18.66-12.23v-34.74l213,116.46v35.38l-166-90.07,1,198.46S581.94,1289,582.79,1270.71Z"/><path class="cls-12" d="M723,1143.29V1350s14.59,20.59,30.89,17.16V1157Z"/><polygon class="cls-45" points="636.95 1122.27 636.95 1276.82 647.89 1280.55 647.89 1143.29 664.62 1152.51 661.4 1234.22 670.73 1238.72 676.49 1143.29 636.95 1122.27"/><polygon class="cls-45" points="661.47 1303.41 661.47 1250.18 670.73 1255.43 670.73 1307.07 661.47 1303.41"/><polygon class="cls-45" points="683.26 1148.01 680.05 1291.4 690.98 1295.34 695.49 1170.52 707.71 1177.6 703.11 1317.56 713.5 1321.72 719.4 1169.31 683.26 1148.01"/><polygon class="cls-11" points="1202.82 1132.52 1556.64 940.47 1556.64 991.95 1202.82 1187.54 1202.82 1132.52"/><polygon class="cls-12" points="1129.63 1136.01 508.53 802.44 508.53 850.48 1129.63 1195.34 1129.63 1136.01"/><polygon class="cls-47" points="525.1 811.34 548.26 807.5 1118.48 1106.9 1118.48 1130.03 525.1 811.34"/><polygon class="cls-47" points="1207.98 1130.61 1207.98 1113.09 1532.67 940.47 1556.64 940.47 1207.98 1130.61"/><polygon class="cls-48" points="861.25 1391.5 861.25 1414.49 1118.48 1552.13 1118.48 1523.96 861.25 1391.5"/><path class="cls-47" d="M837.15,705.63l-14-1.36-224.7,61.09,455.39,240.39c2.78,5,8.1,12.29,18.09,20.29l12.88-3.91Z"/><polygon class="cls-49" points="1211.82 1547.84 1573.2 1361.51 1573.2 1334.02 1211.82 1515.24 1211.82 1547.84"/><polygon class="cls-12" points="584.32 768.18 1071.97 1026.04 823.19 704.27 584.32 768.18"/><polygon class="cls-14" points="965.5 935.07 822.22 760.95 822.22 859.31 965.5 935.07"/><polygon class="cls-11" points="822.22 760.95 813.63 750.51 813.63 854.76 822.22 859.31 822.22 760.95"/><polygon class="cls-14" points="806.83 742.24 796.16 744.59 796.16 752.6 672.43 780.1 661.47 774.3 813.63 854.76 813.63 750.51 806.83 742.24"/><polygon class="cls-12" points="813.63 740.01 813.63 729.87 796.16 739.73 796.16 859.19 804.75 863.14 804.75 745.03 813.63 740.01"/><polygon class="cls-12" points="813.63 740.01 804.75 745.03 804.75 863.14 813.63 867.23 813.63 740.01"/><polygon class="cls-11" points="796.16 752.6 796.16 744.59 661.47 774.3 672.43 780.1 796.16 752.6"/><path class="cls-11" d="M1320.58,1575.08s13.34,21,30.63,11.38L1514.73,1185l-53-23Z"/><ellipse class="cls-12" cx="1488.24" cy="1173.48" rx="14.98" ry="28.89" transform="translate(-181.1 2070.82) rotate(-66.52)"/><g class="cls-50"><path class="cls-2" d="M560.44,385.08s3-80.9-89.67-84.57c-104.23-4.12-113,73.36-108.11,93,0,0-126.36-28.28-89.1,108.62,0,0-104.75,111.2,21.62,184.31,0,0-80.31,120.92,62,163.4L89.56,916.73,63,742.49S78.91,430,82.08,410.16s91.21-267.51,91.21-267.51L442.08,88.83s302.59,46.44,151,92.29c-5.64,1.71,144.22,135.65,144.22,135.65L569.5,388.14Z"/></g></svg>