<svg id="flat" height="512" viewBox="0 0 500 500" width="512" xmlns="http://www.w3.org/2000/svg"><path d="m189.4 56.606c-.7 8.674-2.157 17.071-6.017 24.957-8.276 17.144-26.962 29.472-28.692 49.524-.237 3.473 5.2 4.144 6.031.816 3.539-14.19 12.631-24.031 20.948-35.621 8.4-11.7 13.805-25.586 11.274-40.156-.369-2.126-3.392-1.417-3.544.48z" fill="#4f424c"/><path d="m341.165 140.745c2.9 7.42 12.408 12.422 19.38 15.264a53.184 53.184 0 0 0 26.77 3.321c4.162-.5 4.2-7.106 0-6.586a50.377 50.377 0 0 1 -23.269-2.179 47.933 47.933 0 0 1 -10.181-5.041c-3.34-2.164-6.164-5.33-9.722-7.069-1.41-.689-3.681.493-2.978 2.29z" fill="#4f424c"/><path d="m381.2 122.6c-5.286 11.282 9.383 23.878 15.69 31.675 8.05 9.951 15.207 27.72-.945 34-2.985 1.16-2.814 5.916.8 5.893 14.136-.092 18.358-17.892 14.471-28.724-4.971-16.055-25.548-26.528-26.127-41.786-.025-1.94-2.969-3.011-3.887-1.054z" fill="#4f424c"/><path d="m396.633 200.055c14-10.72 32.907-10.047 48.756-16.542 12.729-5.217 25.547-16.227 30.125-29.561 1.336-3.893-4.584-6.273-6.576-2.772-7.425 14.72-17.148 24.245-33.274 28.89-13.453 4.106-32.007 4.974-41.5 16.782-1.308 1.626.47 4.735 2.471 3.2z" fill="#4f424c"/><path d="m191.925 187.135c-7.409-4.83-10.376-14.107-8.834-22.6 3.732-18.6 21.093-30.567 26.382-48.567 2.475-8.063 3.764-20.535-1.724-27.648-1.409-1.827-4.472-1.387-4.542 1.23-.151 5.622 1.654 11.027 1.142 16.731-1.378 16.815-15.029 28.421-22.658 42.512-7.384 13.61-9.407 35.988 8.554 42.323 2.423.854 3.664-2.69 1.68-3.984z" fill="#4f424c"/><path d="m189.366 146.1c8.566-7.722 21.127-5.7 31.371-9.3 7.707-2.709 16.764-8.23 20.594-15.745a3.013 3.013 0 0 0 -4.711-3.636c-7.722 8.356-14.354 13.486-25.958 15.3-9.3 1.635-18.713 2.548-24.536 10.882-1.4 2 1.578 4 3.24 2.5z" fill="#4f424c"/><path d="m129.866 133.074a93.621 93.621 0 0 0 20.122 10.891c3.941 1.591 5.609-4.757 1.751-6.351a95.253 95.253 0 0 1 -18.632-10.085c-3.4-2.4-6.547 3.147-3.241 5.545z" fill="#4f424c"/><path d="m312.424 126.784c29.846-20.538 66.955-16.223 101.051-21.568 29.1-3.9 61.576-21.924 67.036-53.107.356-2.862-4.2-3.96-5.416-1.467-19.535 55.4-74.118 47.381-121.522 54.039-14.832 2.318-33.54 6.723-43.961 18.459-1.7 1.909.453 5.043 2.812 3.644z" fill="#4f424c"/><path d="m401.821 106.007c8.736 1.819 18.548.928 27.473 1.058 22.149.474 51.535 2.357 63.221-20.747a2.111 2.111 0 0 0 -3.643-2.129c-8.5 13.009-24.405 16.754-38.985 17.4-8.142.363-16.307.208-24.454.309-7.679.1-16.069-.671-23.612.851a1.7 1.7 0 0 0 0 3.254z" fill="#4f424c"/><path d="m285.083 123.691c3.485-9.335 8.721-16.216 15.672-23.242 18.157-18.04 34.752-43.822 28.2-70.488-.619-2.322-3.889-1.3-3.526.972 3.188 19.955-6.028 37.27-19.445 51.45-11.129 11.767-24.654 23.529-26.584 40.539-.393 3.46 4.629 3.6 5.686.769z" fill="#4f424c"/><path d="m331.343 79.356c15.212-9.095 30.659-22.1 31.636-41.186.142-2.759-3.923-2.637-4.218 0-1.932 17.247-16.8 27.627-30.54 35.844-3.415 2.041-.307 7.393 3.122 5.342z" fill="#4f424c"/><path d="m258.408 166.583c12.274-11.206 22.659-30.052 15.276-46.6-3.393-7.606-9.511-13.3-14.754-19.6-7.187-8.637-10.683-17.677-12.425-28.691-.335-2.114-3.653-1.55-3.66.5-.028 8.425 2.7 16.947 6.584 24.365 3.648 6.961 9.469 12.575 13.965 18.962 13.255 18.432 1.982 32.451-9.349 47.7-1.809 2.722 2.116 5.418 4.363 3.366z" fill="#4f424c"/><path d="m302.923 195.6c-6.249.113-11.556 2.7-17.032 5.463-25.69 15.627-22.259-16.836-14.288-30.906 1.115-2.072-.933-2.633-3.157-1.845-18.7 6.627-25.825 94.659-5.394 92.566 1.548 1.939 4.5.617 5.152-1.36a115.421 115.421 0 0 1 16.559-31.944c2.221-4.389 29.293-30.734 18.16-31.974z" fill="#4f424c"/><path d="m274.439 39.961a1.526 1.526 0 0 0 -2.45 1.787c19.948 30.545 11.187 76.778-14.355 106.5l26.541-16.025s31.018-47.65-9.736-92.262z" fill="#4f424c"/><path d="m428.567 57.57c-20.292 19.362-40.691 23.573-40.691 23.573 17.58-28.786 11.481-52.082 5.891-63.906a1.522 1.522 0 0 0 -2.889.836c.861 7.575-.126 15.446-1.579 23-6.982 46.627-40.499 52.549-77.899 69.241 0 0-13.915 3.687-15.931 26.7 0 0 32.817-23.326 68.583-32.967s62.048-33.647 68.427-45.717z" fill="#e2bfb5"/><path d="m246.543 163.075c8.1-18.363 42.022-42.287 64.865-52.754a122.478 122.478 0 0 0 -11.7 18.178l-41.618 53.825s-13.946-4.107-11.547-19.249z" fill="#a3868c"/><path d="m446.4 35.519a111.923 111.923 0 0 1 -17.843 22.041c-30.337 51.393-104.226 39.228-143.184 83.282a272.66 272.66 0 0 0 -18.633 21.023c-2.593 3.185-5.282 7.175-9.075 9.025-6.488 3.27-10.426-1.7-11.108-7.806-11.344 18-14.12 33.931-12.427 51.677l32.9 35.693c-10.772-34.264-6.8-74.919 20.832-99.547 26.364-27.743 61.863-41.053 97.2-53.264 28.561-11.108 61.324-31.8 64.127-61.121a1.519 1.519 0 0 0 -2.789-1.003z" fill="#4f424c"/><path d="m400.821 203.617c14.3-9.366 47.19-37.8 30.668-81.709a1.527 1.527 0 0 0 -2.955.458c.2 26.9-18.595 74.681-69.074 71.1-7.658 1.674-5.254 9.908 6.737 14.94a64.841 64.841 0 0 0 34.624-4.789z" fill="#e2bfb5"/><path d="m147.091 473.561a7.368 7.368 0 0 1 -7.488.3c-3.951-2.039-8.514-4.4-11.148-8.262-11.443-16.766-25.923-6.119-29.91-4.565a36.823 36.823 0 0 1 -22.552 1.266.972.972 0 0 1 -.095-1.842c6.484-2.514 12.015-7.2 17.644-11.4 6.431-4.8 18.079-11.716 25.333-8.29 23.914 11.294 29.078.055 35.666-.537 0-.005 2.541 26.56-7.45 33.33z" fill="#4f424c"/><path d="m175.2 353.8c18.9-24.885 55.464-69.349-23.382-104.835-12.562-5.223-25.029-10.668-37.543-16-16.007-6.823-32.524-14-44.319-26.793-26.7-29.118-20.552-74.755.16-105.742a1.525 1.525 0 0 1 2.748 1.256c-11.274 34.655-10.364 84.814 32.017 104.802 43.054 22.136 120.349 21.53 131.427 72.208 0 .004-3.763 52.582-61.108 75.104z" fill="#4f424c"/><path d="m168.545 112.466c1.523 17.131 5.105 35.136 15.862 48.766 23.146 29.5 77.182 31.761 80.091 76.878 3.162-10.3 23.116-36.2 46.992-15.837-26.529 12.67-26.841 59.466-25.381 62.077-39.474 39.284-82.28 106.88-63.078 170.57 0 0-62.992 21.1-72.585-8.954-8.222-3.456 67.739-143.051 67.739-143.051 33.862-33.415 16.272-75.472-16.195-100.6-12.222-9.965-26.983-17.315-37.69-28.286-19.23-19.677-19.554-49.921-14.237-75.795z" fill="#e2bfb5"/><path d="m165.3 175.016c-8.2-15.624-10.855-34.559-5.3-51.317 1.533-4.616 4.058-9.414 8.562-11.234a181.242 181.242 0 0 1 9.4-76.156 1.524 1.524 0 0 0 -2.743-1.309c-22.83 37.884-45.105 103.807-9.919 140.016z" fill="#a3868c"/><path d="m284.886 285.509a31.3 31.3 0 0 0 -13.971 1.1c-39.459 13.473-55.453 55.191-69.468 91.27-2.76 7.32-8.209 16.426-15.72 14.239-9.555-3.6-6.816-15.555-2.849-22.655a528.359 528.359 0 0 1 39.966-69.575l-2.483-.058c-7.876 12.179-20.108 20.948-29.574 31.855-8.908 10.353-17.65 20.815-24.89 32.372-12.253 19.559-17.741 41.454-17.741 41.454-1.97 17.1 2.29 40.457 2.29 40.457 9.593 30.057 72.585 8.954 72.585 8.954-19.088-63.594 23.141-130.07 61.855-169.413z" fill="#a3868c"/><path d="m180.647 471.553c-23.527-30.291-10.335-73.338 5.282-104.1 16.5-33.084 41.763-61.786 54.923-96.537.746-2.118-2.529-3.448-3.6-1.517-26.459 54.1-76 101.706-75.195 165.52.413 14.282 4.06 30.216 15.075 40.144 2.439 2.2 5.435-1.04 3.514-3.513z" fill="#4f424c"/><path d="m200.156 467.9c-8.593-34.51-7.709-57.1 3.365-90.944.679-2.206-2.695-3.689-3.771-1.589-12.933 26.714-15.243 66.649-2.744 93.86.954 1.857 3.454.473 3.15-1.327z" fill="#4f424c"/><path d="m210.069 362.319.11-.179-.412.533a2.5 2.5 0 0 0 0-3.724l.412.533a2.63 2.63 0 0 0 -.879-1.018 1.5 1.5 0 0 0 -.66-.384 2.874 2.874 0 0 0 -3.5.92 1.5 1.5 0 0 0 -.384.66 2.872 2.872 0 0 0 .92 3.5 1.5 1.5 0 0 0 .66.384 2.843 2.843 0 0 0 1.945.151 3.1 3.1 0 0 0 1.786-1.374z" fill="#4f424c"/><path d="m244.462 253.483c-6.062-71.909-99.462-42.665-92.989-148.067 2.979-25.416 12.466-48.258 26.507-69.36 1.274-1.916-1.658-4.2-3.2-2.471-25.809 30.342-36.034 82.831-24.511 120.824 8.672 24.994 39.943 43.667 49.323 51.313 60.6 46.8 23.976 85.782-8.809 125.955-.003 0 54.71-38.899 53.679-78.194z" fill="#4f424c"/><path d="m335.487 213.539c29.683-4.77 46.66 2.851 65.431-9.987-10.821 2.971-22.307 3.857-33.1.973-5.244-1.338-11.4-5.76-8.7-11.079-18.391-1.172-36.222-7.9-54.408-2.246-20.119 6.256-35.246 26.434-40.212 46.91 7.476-14.1 26-18.19 34.445-9.988 0 0 24.148-12.292 36.544-14.583z" fill="#a3868c"/><g fill="#4f424c"><path d="m335.506 215.539c14.6-2.719 29.65-1.849 44.33-4.173-15.747 1.128-20.136-2.637-47.424.65-13.677 1.648-29.2 4.768-37.944 15.808-17.914 22.63-6.64 40.741-12.845 55.974-6.15 15.095-18.33 15.348-28.855 27.353-27.38 31.23-39.116 80.773-38.931 97.968.191 17.673-.249 29.8-15.076 42.23-14.69 12.317-50.581 1.788-50.6-45.838a149.6 149.6 0 0 0 -3.183 59.812c-20.008-13.991-39.937 11.937-60.39 16.413a.974.974 0 0 0 .268 1.911h150.444a21.639 21.639 0 0 0 16.9-8.054 44.379 44.379 0 0 1 27.5-16.1c12.572-2.082 22.819 4.054 29.674 15.24 0 0 5.5 8.912 19.476 8.912h12.845a1.642 1.642 0 0 0 .639-3.154 42.4 42.4 0 0 1 -14.246-10.452c-5.176-5.63-8.89-12.417-13.328-18.645-29.17-41.89-55.863 12.133-75.032-7.057-23.153-26.129-10.524-67.182 3.084-96.095 12.677-28.462 25.664-36.8 33.175-39.149a20.182 20.182 0 0 0 11.291-8.8l14.365-23.807a5.225 5.225 0 0 0 -1.181-6.8c-5.536-4.346-13.419-15.2 2.448-36.691 7.481-10.14 20.2-15.165 32.596-17.456z"/><path d="m217.5 344.027c22.326-38.982 63.805-81.457 46.733-129.689-.991-2.463-5-1.477-4.07 1.121 11.545 33.142-7.59 65.936-25.515 92.865-7.249 10.945-15.661 21.994-20.19 34.421-.671 1.84 2.061 2.8 3.042 1.282z"/><path d="m272.364 121.8c-12.376-26.209-60.816-23.935-59.212-58.578.26-2.289-3.682-2.843-4.051-.548-3.572 25.513 23.407 36.353 42.144 45.614a58.051 58.051 0 0 1 18.506 15.529c1.244 1.586 3.352-.435 2.613-2.017z"/><path d="m447.961 62.757c-2.719 8.4 2.918 16.859 9.973 20.8 3.308 1.848 6.3-3.344 2.957-5.06-2.693-1.381-5.141-3.05-6.607-5.779-1.685-3.136-1.447-6.689-2.594-9.963a1.951 1.951 0 0 0 -3.729 0z"/><path d="m134.126 225.938c-8.76-.688-15.952-3.165-20.957-10.962-13.266-23.695 8.805-54.263 17.216-76.658 5.588-13.409 9.35-27.632 9.951-42.2.411-16.169-2.536-37.092-12.548-50.188-1.668-1.964-4.669.16-4.113 2.395 1.99 8 6.014 15.3 7.756 23.48 13.454 59.574-41.584 100.769-26.766 141.343 4.446 10.948 18.185 22.679 30.609 17.022 2.24-1.021.864-4.079-1.148-4.237z"/><path d="m84.382 119.546c-.909 13.377 12.659 22.776 22.962 28.448 4.837 3.2 5.95 8.884 5.834 14.336-.055 2.617 3.777 3.747 5.023 1.361 4.743-9.083-2.572-18.572-10.315-22.9a48.6 48.6 0 0 1 -10.47-7.183c-4.625-4.482-5.717-9.93-8.929-15.179-1.227-2.007-3.859-.962-4.1 1.112z"/><path d="m207.168 269.786c-7.276-10.763-23.17-16.218-35.15-19.368-64-15.015-137.372 14.695-159.729-70.682-1.067-3.275-5.457-1.852-5.018 1.385 3.7 30.524 22.2 54.759 51.862 63.953 39.434 13.591 82.7 1.053 121.976 15.186 8.5 3.07 15.454 8.325 23.542 12.043 1.511.695 3.649-.842 2.517-2.517z"/><path d="m28.689 177.784c.747 7.333 1.382 14.174.575 21.551-.816 7.461-2.281 14.857-2.658 22.363-.226 4.488 6.6 4.411 6.937 0 1.058-13.828 6.694-32.233-1.491-44.825-.89-1.368-3.558-1-3.363.911z"/><path d="m16.671 129.164c-2.161 11.981 5.519 23.69 15.414 29.853 6.138 3.823 13.123 6.134 18.56 11.046 5.015 4.53 8.479 10.454 11.191 16.586 1.422 3.216 6.127.838 5.441-2.293-2.574-11.748-11.245-20.6-21.732-25.992-14.829-6.759-22.039-12.519-25.235-29.2-.384-1.763-3.308-1.837-3.639 0z"/><path d="m87.825 74.675c.19 20.683 10.635 43.107 31.179 50.854 3.479 1.312 4.743-3.608 2.312-5.483-5.943-4.587-12.1-7.953-16.92-13.943-7.215-8.959-9.971-20.1-10.126-31.428-.056-4.143-6.483-4.156-6.445 0z"/><path d="m419.286 209.017s-2.659 49.775-59.8 29.093c-19.626-6.765-65.6-12.144-71.013 14.632l3.032 14.179c16.967-60.394 112.278 28.441 127.781-57.904z"/><path d="m417.444 208.509c-3.047 15.317-11.751 29.557-28.632 31.335-16.218 1.709-31.3-6.866-47.085-9.183-14.085-2.068-30.551-2.772-43.466 4.268-6.083 3.315-12.164 9.713-12.953 16.942-.542 4.971 1.985 11.056 3.022 15.925.7 3.283 5.473 2.975 6.342 0 2.758-9.442 8.381-16.75 18.188-19.224 9.512-2.4 19.895-.874 29.45.488 19.417 2.768 43.392 8.578 60.863-3.639 12.02-8.406 16.87-22.4 18.633-36.4.357-2.841-4.277-3.379-4.949-.67-2.942 11.85-7.467 25.262-18.342 32.142-8.487 5.368-18.836 5.927-28.6 5.351-10.932-.646-21.7-2.8-32.56-4.107-9.359-1.126-19.444-1.915-28.548 1.114-10.882 3.62-17.364 12.468-20.481 23.2h6.342l-1.417-6.606c-.469-2.183-1.712-5.224-1.607-7.485-.067 1.438 1.168-2.329 1.522-3.057a17.163 17.163 0 0 1 2.868-4.156 23.319 23.319 0 0 1 8.215-5.479c13.716-5.716 30.854-3.859 44.956-.677 15.05 3.4 29.192 10.187 44.974 6.565a33.93 33.93 0 0 0 23.021-18.548c2.539-5.286 4.492-11.656 4-17.591-.169-1.999-3.306-2.767-3.756-.508z"/><path d="m362.358 249.668c4.33.584 9.062 4.592 12.732 6.834 3.977 2.43 7.9 4.94 11.882 7.366 19.6 12.564 48.071 23.858 68.682 7.537 2.441-2.044-.676-5.687-3.3-4.27-23.673 13.262-49.171-.13-69.669-13.248-5.354-3.2-13.814-10.381-20.332-8.084-1.638.579-2.143 3.575.005 3.865z"/><path d="m439.934 248.236c-3.907 7.791-6.859 26.5-19.465 22.974-2.585-.723-4.238 3.038-1.842 4.369 5.743 3.19 11.991 1.046 16.331-3.518 5.776-6.074 6.127-14.809 8.082-22.516.458-1.8-2.215-3.085-3.106-1.309z"/><path d="m19.035 82.971c3.692 35.049 32.717 37.154 37.13 67.145.671 3.575 5.417 2.212 5.8-.785 1.88-25.125-34.479-38.356-39.431-66.834-.443-1.915-3.718-1.55-3.5.474z"/><path d="m45.923 60.825c-.512 13.6 1.189 26.717-6.6 38.77-2.2 3.4 3.3 6.616 5.424 3.17 7.653-12.422 8.36-28.525 5.066-42.465-.527-2.233-3.808-1.653-3.89.527z"/><path d="m435.661 185.263c5.68-1.782 11.154.38 16.858 1.034 13.975 1.834 33.659-1.613 38.494-16.9.591-2.373-2.529-4.517-4.309-2.509-6.777 8.944-14.661 13.66-26.066 13.805-8.434.931-20-4.547-26.756 1.516a1.842 1.842 0 0 0 1.779 3.056z"/></g></svg>