<svg version="1.2" xmlns="http://www.w3.org/2000/svg" viewBox="0 0 512 512" width="512" height="512">
	<title>rock_dragonite-svg</title>
	<style>
		.s0 { fill: #9435a8 } 
		.s1 { fill: #9e3eb2 } 
		.s2 { fill: #892c9c } 
		.s3 { fill: #b4b4b4 } 
		.s4 { fill: #969696 } 
		.s5 { fill: #939393 } 
	</style>
	<g id="Layer">
		<path id="Layer" class="s0" d="m120 251.6l103.9 123.7-102.6 75.9-111.6-89.2z"/>
		<path id="Layer" class="s1" d="m5.8 358.5c-3.5-2.7-5.8-6.8-5.8-11.5v-90c0-8.3 6.7-15 15-15h90c4.6 0 8.6 2.2 11.3 5.5l3.7 4.1v95.4c0 8.3-6.7 15-15 15h-95.3z"/>
		<path id="Layer" class="s2" d="m502.3 362l-111.6 89.2-103.6-75.9 104.9-123.7z"/>
		<path id="Layer" class="s0" d="m502.3 362h-95.3c-8.3 0-15-6.7-15-15v-95.4l3.7-4.1c2.7-3.3 6.7-5.5 11.3-5.5h90c8.3 0 15 6.7 15 15v90c0 4.7-2.3 8.8-5.8 11.5z"/>
		<path id="Layer" class="s1" d="m361.4 107.7l-50.1 278.9h-110.6l-50.1-278.9c-0.6-2.4-0.3-4.8 0.3-7.2h210.2c0.6 2.4 0.9 4.8 0.3 7.2z"/>
		<path id="Layer" class="s0" d="m311.3 386.6h-55.3v-286.1h105.1c0.6 2.4 0.9 4.8 0.3 7.2z"/>
		<path id="Layer" class="s3" d="m450.2 494h-388.4c8.1-39.6 41.7-68.7 81.3-71.7 25.2-37.5 68.2-60.3 112.9-60.3 45 0 88 23.1 112.9 60.6 40.5 3.6 73.5 32.4 81.3 71.4z"/>
		<path id="Layer" class="s4" d="m450.2 494h-194.2v-132c45 0 88 23.1 112.9 60.6 40.5 3.6 73.5 32.4 81.3 71.4z"/>
		<path id="Layer" class="s0" d="m361.1 100.5l-94.6 105c-2.7 3-6.6 5.5-10.5 5.5-3.9 0-7.8-2.5-10.5-5.5l-94.6-105c0.6-2.1 1.8-4.2 3.6-6l91-90c2.7-3 6.6-4.5 10.5-4.5 3.9 0 7.8 1.5 10.5 4.5l91 90c1.8 1.8 3 3.9 3.6 6z"/>
		<path id="Layer" class="s1" d="m266.5 205.5c-2.7 3-6.6 5.5-10.5 5.5v-211c3.9 0 7.8 1.5 10.5 4.5l91 90c1.8 1.8 3 3.9 3.6 6z"/>
		<path id="Layer" class="s5" d="m482 497c0 8.4-6.6 15-15 15h-422c-8.4 0-15-6.6-15-15 0-8.4 6.6-15 15-15h422c8.4 0 15 6.6 15 15z"/>
		<path id="Layer" class="s3" d="m482 497c0 8.4-6.6 15-15 15h-211v-30h211c8.4 0 15 6.6 15 15z"/>
	</g>
</svg>