<svg version="1.2" xmlns="http://www.w3.org/2000/svg" viewBox="0 0 512 512" width="512" height="512">
	<title>rosaniya-svg</title>
	<style>
		.s0 { fill: #945026 } 
		.s1 { fill: #683616;stroke: #e48f5a;stroke-width: 5.3 } 
		.s2 { fill: #e48f5a } 
		.s3 { fill: none;stroke: #e48f5a;stroke-width: 5.3 } 
		.s4 { fill: #fea613 } 
		.s5 { fill: #fac600 } 
		.s6 { fill: #fff364 } 
		.s7 { fill: #e2772c } 
		.s8 { fill: #ffffff } 
		.s9 { fill: #bc6331 } 
		.s10 { fill: #cadded } 
		.s11 { fill: #fda616 } 
		.s12 { fill: #e27a31 } 
		.s13 { fill: #fdb233 } 
		.s14 { fill: #f9c502 } 
	</style>
	<g id="Layer_3">
		<g id="_x30_60---Spell-Book">
			<g id="Ellipse_1_xA0_Изображение_1_">
				<g id="Layer">
					<ellipse id="Layer" class="s0" cx="256.3" cy="267.6" rx="228.7" ry="228.5"/>
				</g>
			</g>
			<path id="Shape" class="s1" d="m404.8 345.2v19.4c0 1.7-0.7 3.2-2.1 4.2-1.2 1.1-3 1.4-4.5 0.9-54.9-17.9-93.8 1.3-107.1 9.6-3 1.9-4.9 5.4-4.9 9 0 2.8-1.1 5.5-3 7.4-1.8 2-4.4 3.1-7 3.1h-41.8c-2.7 0-5.2-1.1-7.1-3.1-1.9-1.9-2.9-4.6-2.9-7.4 0-3.6-1.9-7.1-5-9-13.2-8.2-52.2-27.4-107.1-9.6-1.5 0.5-3.2 0.2-4.5-0.8-1.3-1-2.1-2.6-2.1-4.3v-19.4c44.1-13.9 91.8-9.9 133.1 11.4 10.3 5.6 22.5 5.6 32.8 0 41.5-21.2 89.1-25.3 133.2-11.4z"/>
			<path id="Shape_00000076580269581925566820000006898588459258381732_" class="s1" d="m399.2 297.8c-6.3 1-12.3 2-18.1 3.2-69.2 13.7-115.9 42.5-118.6 46.2-7 7.6-7.7 8-7 3.5l-0.2-139.4c4.4-51.4 87.4-70.2 108.6-74.2 2.7-0.5 5.3 1.3 5.9 4l33.7 150.1c0.4 1.5 0.1 3.1-0.7 4.3-0.9 1.3-2.1 2.2-3.6 2.3z"/>
			<path id="Shape_00000050662328327295565100000007656067271477052595_" class="s1" d="m255.3 211.3l0.2 139.4c-0.7 4.1 1.8 4.2-0.7 2-11.2-14.7-56.2-37.9-125.4-51.7-5.7-1.2-11.8-2.2-18.1-3.1-1.4-0.2-2.7-1-3.6-2.3-0.8-1.2-1.1-2.8-0.7-4.3l33.7-150.1c0.6-2.8 3.3-4.6 5.9-4 21.2 3.9 104.2 22.7 108.7 74.1z"/>
			<g id="Layer">
				<g id="Layer">
					<path id="Shape_00000120546807292436495900000006833965192602235065_" class="s2" d="m230.1 223.5c-1.8 0-3.4-1-4.4-2.6-14.1-24.5-58.1-34.9-58.6-35-2.8-0.7-4.5-3.5-3.9-6.4 0.7-2.9 3.4-4.7 6.2-4.1 2 0.5 48.8 11.6 65.2 40 1 1.7 1 3.7 0.1 5.4-0.9 1.7-2.7 2.7-4.6 2.7z"/>
					<path id="Shape_00000145049182080080049600000014118459823164389788_" class="s2" d="m230.1 266.4c-1.5 0-2.9-0.7-3.9-1.9-24.3-30.3-68.9-40.9-69.4-41.1-2.7-0.6-4.5-3.5-3.9-6.4 0.7-2.9 3.4-4.7 6.2-4 1.9 0.4 48.4 11.5 75 44.6 1.3 1.6 1.5 3.8 0.7 5.7-0.9 1.9-2.6 3.1-4.7 3.1z"/>
					<path id="Shape_00000147202380107631501570000000222200689997220001_" class="s2" d="m230.1 309.2c-1.6 0-3.2-0.8-4.2-2.2-24-35-78.2-40.6-78.7-40.6-2.8-0.3-5-2.9-4.7-5.9 0.3-3 2-5.8 4.8-5.6 2.4 0.2 60.2 6.8 87.1 45.9 1.1 1.6 1.2 3.7 0.4 5.5-0.9 1.9-2.7 2.9-4.7 2.9z"/>
					<path id="Shape_00000017496434639851204940000014059811315737514163_" class="s2" d="m281.8 223.5c-1.9 0-3.6-1.1-4.5-2.7-0.9-1.7-0.9-3.7 0-5.4 16.4-28.4 63.2-39.5 65.2-40 2.8-0.6 5.6 1.2 6.2 4.1 0.7 2.9-1.1 5.7-3.9 6.4-0.4 0.1-44.4 10.5-58.6 35-1 1.6-2.6 2.6-4.4 2.6z"/>
					<path id="Shape_00000147207359308024886090000015875371217214383789_" class="s2" d="m281.8 266.4c-2.1 0-3.9-1.2-4.7-3.1-0.9-1.9-0.6-4.1 0.7-5.7 26.6-33.2 73.1-44.2 75-44.6 2.7-0.7 5.5 1.1 6.1 4 0.6 2.9-1.1 5.8-3.9 6.4-0.4 0.1-45 10.8-69.4 41.1-0.9 1.1-2.4 1.9-3.8 1.9z"/>
					<path id="Shape_00000026886420882122595590000005737496972906104511_" class="s2" d="m281.8 309.2c-2 0-3.7-1.1-4.6-2.9-0.9-1.8-0.8-3.9 0.3-5.5 26.9-39.1 83.9-44.9 86.3-45.2 2.8-0.2 5.3 1.9 5.6 4.9 0.3 3-1.9 5.6-4.7 5.8-0.5 0.1-54.7 5.6-78.8 40.7-0.9 1.4-2.5 2.2-4.1 2.2z"/>
				</g>
			</g>
		</g>
		<path id="Layer" class="s3" d="m105.4 344.7l24.7-42.1"/>
		<path id="Layer" class="s3" d="m405.3 344.7l-26.2-42.1"/>
	</g>
	<g id="Layer_1">
		<path id="Layer" class="s4" d="m278.9 380.2c-13.2 13.3-34.6 13.3-47.9 0-13.3-13.2-13.3-34.6 0-47.9 13.3-13.2 34.7-13.2 47.9 0 13.3 13.3 13.3 34.7 0 47.9z"/>
		<g id="Layer">
			<g id="Layer">
				<path id="Layer" class="s5" d="m279.2 380.4c-13.2 13.2-34.7 13.2-47.9 0-13.3-13.3-13.3-34.7 0-48 13.2-13.2 34.7-13.2 47.9 0 13.3 13.3 13.3 34.7 0 48z"/>
			</g>
		</g>
		<ellipse id="Layer" class="s6" cx="255.5" cy="356.3" rx="17.7" ry="17.8"/>
		<ellipse id="Layer" class="s4" cx="103.8" cy="278.2" rx="14.4" ry="14.4"/>
		<g id="Layer">
			<g id="Layer">
				<ellipse id="Layer" class="s5" cx="103.9" cy="278.2" rx="14.4" ry="14.4"/>
			</g>
		</g>
		<ellipse id="Layer" class="s7" cx="137.4" cy="132.1" rx="22.7" ry="22.6"/>
		<g id="Layer">
			<g id="Layer">
				<ellipse id="Layer" class="s7" cx="137.5" cy="131.9" rx="22.4" ry="22.4"/>
			</g>
			<g id="Layer">
				<ellipse id="Layer" class="s4" cx="137.6" cy="131.9" rx="22.4" ry="22.4"/>
			</g>
		</g>
		<circle id="Layer" class="s8" cx="137.4" cy="132.1" r="8.6"/>
		<ellipse id="Layer" class="s7" cx="403.5" cy="277.3" rx="22.6" ry="22.5"/>
		<g id="Layer">
			<g id="Layer">
				<ellipse id="Layer" class="s7" cx="403.6" cy="277" rx="22.3" ry="22.3"/>
			</g>
			<g id="Layer">
				<ellipse id="Layer" class="s4" cx="403.7" cy="277.1" rx="22.3" ry="22.3"/>
			</g>
		</g>
		<ellipse id="Layer" class="s4" cx="255.2" cy="198" rx="16.7" ry="16.7"/>
		<g id="Layer">
			<g id="Layer">
				<ellipse id="Layer" class="s4" cx="255.2" cy="198" rx="16.7" ry="16.7"/>
			</g>
			<g id="Layer">
				<ellipse id="Layer" class="s5" cx="255.3" cy="197.8" rx="16.6" ry="16.6"/>
			</g>
			<g id="Layer">
				<ellipse id="Layer" class="s5" cx="255.4" cy="197.8" rx="16.6" ry="16.6"/>
			</g>
		</g>
		<path id="Layer" class="s9" d="m338.9 54.6c-2 1.2-5.3 2.2-6.9 3.9-3.6 3.8-4.4 5.2-6.1 11-0.3 1-1 3.1-1.2 4.1-1.5 5.7-1.3 11.5-1.3 17.3 0 1.4 0.2 2.7 0 4-0.1 2-1.3 3.3-3.2 3.3-1.9 0-3.2-1.2-3.2-3.4 0-4.5 0.2-9.1-0.1-13.7-0.3-6.4-2.1-12.5-5.3-18-3.2-5.5-8.1-8-14.2-9.4-7.3-1.8-14.5-1.6-21.8-1.7-1 0-2.1-0.2-3-0.5-1.2-0.4-1.7-1.4-1.7-2.6 0-1.3 0.5-2.2 1.6-2.7 0.9-0.3 1.7-0.5 2.6-0.5 3.2-0.1 6.3-0.1 9.5 0 6.1 0.1 11.7-0.7 17.4-2.3 5.2-2.7 7.6-5.5 10-9.5 0.4-0.4 0.8-0.9 1.1-1.4 0.5 0.9 0.9 1.7 1.3 2.6 3.2 6.5 7.8 11.7 14.1 15.5 3.2 1.9 6.4 3.9 10.4 4z"/>
		<path id="Layer" class="s2" d="m300.3 43.8c2.5-0.6 4.1-2.2 5.9-3.6 4.3-3.6 6.2-8.7 7.9-13.8 2-6.2 1.7-12.5 1.7-18.9 0-1.4-0.1-2.7 0-4 0.1-2 1.4-3.3 3.3-3.3 1.8 0 3.1 1.2 3.1 3.4 0.1 4.6-0.1 9.1 0.1 13.7 0.3 6.4 2.2 12.5 5.4 18 3.2 5.5 8.1 8 14.2 9.5 7.2 1.7 14.5 1.6 21.8 1.6 1 0 2 0.2 3 0.5 1.2 0.4 1.6 1.4 1.6 2.6 0 1.3-0.4 2.2-1.6 2.7-0.8 0.3-1.7 0.5-2.5 0.5-3.2 0.2-6.4 0.2-9.6 0-6-0.1-11.7 1.4-17.4 3-4.5 1.4-6.9 4.6-9.3 8.4-0.8 1.8-0.9 2-1 2.8-0.5-0.9-1.6-2.8-2-3.6-3.2-6.5-7.8-11.8-14-15.5-3.4-1.9-6.6-3.8-10.6-4z"/>
		<path id="Layer" class="s5" d="m393 370.5c-0.5-0.6-0.5-1.4 0-2 0.4-0.7 1-1.3 1.6-1.9 1.5-1.6 2.7-2.8 4.1-4.4 2.1-2.3 3.8-2.3 5.9 0.1 1.3 1.5 2.8 2.8 4.2 4.2 2.1 2.2 2 3.4-0.1 5.8-1.2 1.3-2.6 2.6-3.8 4-1.8 2-4.2 2.6-6.5 0.1-1.4-1.6-2.5-2.5-4-4.1-0.3-0.4-1.1-1.3-1.4-1.8z"/>
		<path id="Layer" class="s2" d="m293.9 84.9c-0.3-0.4-0.3-0.9 0-1.3 0.3-0.4 0.7-0.8 1-1.1 1-1 1.8-1.8 2.6-2.7 1.3-1.5 2.4-1.5 3.7 0 0.9 1 1.8 1.8 2.6 2.7 1.4 1.4 1.3 2.1 0 3.6-0.8 0.8-1.6 1.6-2.4 2.6-1.1 1.2-2.7 1.6-4.1 0-0.9-1-1.6-1.5-2.5-2.5-0.3-0.4-0.7-1-0.9-1.3z"/>
		<path id="Layer" class="s5" d="m198.8 393c-0.4-0.6-0.4-1.4 0-2 0.4-0.6 1.1-1.3 1.6-1.9 1.5-1.6 2.8-2.7 4.1-4.3 2.1-2.3 3.8-2.3 5.9 0 1.3 1.5 2.8 2.8 4.2 4.2 2.1 2.2 2 3.4-0.1 5.8-1.2 1.4-2.5 2.7-3.8 4-1.8 2-4.2 2.6-6.5 0.1-1.4-1.6-2.5-2.5-4-4.1-0.3-0.4-1.1-1.3-1.4-1.8z"/>
		<path id="Layer" class="s8" d="m97.5 345.9c-0.4-0.6-0.4-1.4 0-2 0.5-0.6 1.1-1.3 1.6-1.9 1.5-1.6 2.8-2.7 4.2-4.3 2.1-2.3 3.8-2.3 5.9 0 1.3 1.5 2.8 2.8 4.1 4.2 2.2 2.2 2 3.4 0 5.8-1.3 1.4-2.6 2.7-3.8 4-1.8 2-4.2 2.7-6.6 0.1-1.4-1.6-2.5-2.5-3.9-4.1-0.3-0.3-1.1-1.2-1.5-1.8z"/>
		<path id="Layer" class="s8" d="m96.1 142.5c0.6 0 1.2 0 1.8 0 0.3 0.7 0.8 1.4 1 2.1 1 2.7 3.9 5.3 6.5 6.5 1.1 0.5 0.9 0.6 1.9 1.2q0 0.7 0 1.4c-0.5 0.3-1.1 0.7-1.7 0.9-3.3 0.9-5.3 3.2-6.7 6.2-0.3 0.8-0.8 1.5-1.3 2.3q-0.7 0-1.4 0c-0.3-0.5-0.9-1.6-1.1-2.1-1.2-4.4-4-6.2-8.3-7.3 0-0.6 0-1.2 0-1.8 0.6-0.3 1.4-0.5 2-0.8 3.2-1.3 5.2-3.5 6.4-6.6 0.3-0.8 0.6-1.2 0.9-2z"/>
		<path id="Layer" class="s10" d="m183.3 463.1c-1.9 1.4-5.1 2.6-6.6 4.5-3.6 4.2-4.3 5.8-6 12.4-0.3 1.1-1 3.5-1.2 4.6-1.5 6.4-1.2 13-1.2 19.5 0 1.5 0.1 2.9 0 4.4 0 2.3-1.2 3.8-3.1 3.7-1.9 0-3-1.4-3.1-3.8 0-5.1 0.2-10.2 0-15.4-0.4-7.2-2.1-14-5.3-20.3-3.1-6.2-7.8-9.1-13.7-10.6-7-1.9-14-1.8-21.1-1.9q-1.6 0-2.9-0.6c-1.1-0.4-1.6-1.6-1.6-2.9 0-1.4 0.4-2.5 1.5-3q1.2-0.6 2.5-0.7 4.7-0.1 9.3 0c5.8 0.2 11.3-0.6 16.8-2.5 5.1-3.1 7.4-6.2 9.7-10.6 0.3-0.6 0.7-1.1 1.1-1.7 0.4 0.9 0.8 1.9 1.3 2.9 3 7.3 7.5 13.3 13.5 17.4 3.1 2.3 6.2 4.6 10.1 4.6z"/>
		<path id="Layer" class="s8" d="m146 451.1c2.4-0.8 4-2.5 5.7-4.2 4.2-3.9 6-9.7 7.6-15.5 2-7 1.6-14.1 1.6-21.3 0-1.5 0-3 0-4.4 0.1-2.3 1.3-3.8 3.2-3.7 1.8 0 3 1.4 3.1 3.8 0 5.1-0.2 10.2 0 15.4 0.3 7.2 2.1 14 5.3 20.3 3 6.2 7.8 9.1 13.7 10.6 7 1.9 14 1.8 21.1 1.9q1.5 0 2.9 0.6c1.1 0.4 1.6 1.6 1.6 2.9 0 1.4-0.4 2.5-1.5 3q-1.3 0.6-2.6 0.7-4.6 0.1-9.2 0c-5.8-0.2-11.4 1.5-16.9 3.3-4.4 1.5-6.6 5.1-9 9.6-0.7 1.9-0.8 2.2-1 3-0.4-0.9-1.5-3-1.9-4-3.1-7.3-7.5-13.3-13.6-17.4-3.2-2.3-6.3-4.5-10.1-4.6z"/>
		<path id="Layer" class="s11" d="m992.9 246.8c0.3-0.2 0.6-0.5 0.9-0.7-0.3 0.2-0.6 0.4-0.9 0.7z"/>
		<path id="Layer" class="s12" d="m554 199.7c-0.1 0.1-0.3 0.3-0.5 0.4 0.2-0.1 0.4-0.2 0.5-0.4z"/>
		<path id="Layer" class="s12" d="m998.7 360.1q-0.4 0.2-0.7 0.5 0.3-0.3 0.7-0.5z"/>
		<path id="Layer" class="s12" d=""/>
		<path id="Layer" class="s11" d="m878.2 533.9c0.2-0.2 0.5-0.4 0.7-0.6-0.2 0.2-0.4 0.4-0.7 0.6z"/>
		<path id="Layer" class="s13" d="m832.8 206.1c0.2 0.4 0.4 0.7 0.6 1.1-0.2-0.4-0.4-0.7-0.6-1.1z"/>
		<path id="Layer" class="s4" d="m356.9 99.6c0.5 0.8 0.5 1.6 0.7 2.4 1.1 7.5 4.8 14 9.7 19.6 4.7 5.2 10.5 9.1 17.4 11.1 1.7 0.5 3.5 1 5.2 1.5-2.4 1-3.7 1.8-4.8 2.5-7.7 4-12.6 10.5-15.5 18.7-0.6 1.7-1.2 3.5-1.8 5.2-0.9 2.1-2.6 2.9-4.7 2.9-2 0-3.5-0.9-4.4-2.9-0.4-1.2-1-2.5-1.4-3.9-2.9-9.5-8.7-16.5-17.7-20.9-3.2-1.5-6.6-2.8-9.8-4.2-0.5-0.2-1.1-0.3-1.6-0.6-1.8-0.9-3.5-2.2-3.3-4.5 0-2.3 1.4-3.7 3.6-4.6 1.9-0.7 3.9-1.4 5.8-2.1 9.9-3.8 18.4-10 22.6-20.2z"/>
		<path id="Layer" class="s14" d="m369.9 153.5c-0.4-0.9-0.4-1.6-0.5-2.4-1.1-7.6-4.8-14-9.8-19.6-4.6-5.2-10.4-9.2-17.3-11.1-1.7-0.5-3.5-1-5.2-1.5 2.3-1 3.7-1.8 4.7-2.5 7.8-4 12.7-10.5 15.6-18.7 0.6-1.7 1.2-3.5 1.8-5.2 0.9-2.1 2.5-2.9 4.7-2.9 2 0 3.5 0.9 4.3 2.8 0.5 1.3 1 2.6 1.5 3.9 2.9 9.6 8.7 16.6 17.7 21 3.2 1.5 6.5 2.8 9.8 4.2 0.5 0.2 1.1 0.3 1.6 0.6 1.8 0.9 3.5 2.2 3.3 4.4-0.1 2.3-1.4 3.8-3.6 4.7-1.9 0.7-3.9 1.4-5.8 2.1-10 3.8-18.4 10.1-22.8 20.2z"/>
		<path id="Layer" class="s9" d="m435.5 317.1c0.1 0.3 0.2 0.5 0.2 0.8 0.3 2.4 1.4 4.4 2.9 6.1 1.3 1.7 3.1 2.9 5.1 3.6q0.8 0.2 1.6 0.4c-0.7 0.4-1.1 0.6-1.5 0.8-2.3 1.3-3.7 3.3-4.6 5.9-0.2 0.6-0.4 1.1-0.5 1.7-0.3 0.7-0.8 0.9-1.4 0.9-0.6 0-1.1-0.3-1.3-0.9-0.2-0.4-0.3-0.8-0.4-1.2-0.9-3-2.6-5.3-5.3-6.6-1-0.5-2-0.9-2.9-1.4q-0.3 0-0.5-0.2c-0.5-0.2-1-0.7-1-1.4 0-0.7 0.4-1.1 1-1.4 0.6-0.2 1.2-0.4 1.7-0.7 3.1-1.2 5.6-3.2 6.9-6.4z"/>
		<path id="Layer" class="s2" d="m439.4 334.1c-0.1-0.3-0.1-0.5-0.2-0.8-0.3-2.4-1.4-4.4-2.9-6.2-1.4-1.6-3.1-2.9-5.2-3.5q-0.8-0.2-1.5-0.5c0.7-0.3 1.1-0.6 1.4-0.8 2.4-1.2 3.8-3.3 4.7-5.9 0.1-0.5 0.4-1 0.5-1.6 0.3-0.7 0.8-0.9 1.4-0.9 0.6 0 1.1 0.2 1.3 0.9 0.1 0.3 0.3 0.8 0.4 1.2 0.9 3 2.6 5.2 5.3 6.6 0.9 0.5 2 0.9 2.9 1.3q0.3 0.1 0.5 0.2c0.5 0.3 1 0.7 1 1.4 0 0.7-0.4 1.2-1.1 1.5-0.5 0.2-1.1 0.4-1.7 0.7-3 1.2-5.6 3.2-6.8 6.4z"/>
		<path id="Layer" class="s2" d="m191.6 431.1c-0.2-0.4-0.2-0.9 0-1.3 0.3-0.4 0.7-0.8 1.1-1.1 0.9-1 1.7-1.8 2.6-2.7 1.3-1.5 2.4-1.5 3.6 0 0.9 1 1.8 1.8 2.7 2.7 1.3 1.4 1.2 2.1-0.1 3.6-0.7 0.8-1.6 1.6-2.4 2.6-1.1 1.2-2.7 1.6-4.1 0-0.8-1-1.5-1.5-2.4-2.6-0.3-0.3-0.8-0.9-1-1.2z"/>
	</g>
	<g id="Layer_4">
		<path id="Layer" class="s8" d="m110.2 260.4l-1.4-0.4c-1.8-0.4-2.9-2.3-2.5-4.1l21.3-91.8c0.4-1.8 2.3-2.9 4.1-2.5l1.3 0.4c1.9 0.4 3 2.4 2.6 4.2l-21.2 91.7c-0.5 1.8-2.4 3-4.2 2.5z"/>
		<path id="Layer" class="s8" d="m163.2 147.8l0.4-1.2c0.6-1.8 2.6-2.8 4.4-2.2l64.1 40.3c1.8 0.7 2.7 2.6 2.1 4.4l-0.4 1.3c-0.7 1.8-2.6 2.8-4.5 2.1l-64-40.2c-1.8-0.7-2.8-2.6-2.1-4.5z"/>
		<path id="Layer" class="s8" d="m399.4 250.8l-1.4 0.2c-1.9 0.3-3.6-1-3.9-2.9l-19.1-84.6c-0.3-1.9 1-3.6 2.9-3.9l1.4-0.2c1.8-0.3 3.6 1.1 3.9 2.9l19.1 84.6c0.3 1.9-1 3.7-2.9 3.9z"/>
		<path id="Layer" class="s8" d="m290.8 341.6l-0.6-1.2c-0.9-1.7-0.2-3.7 1.5-4.6l85.3-43.7c1.7-0.8 3.8-0.2 4.7 1.5l0.6 1.1c0.8 1.7 0.2 3.8-1.5 4.7l-85.4 43.7c-1.7 0.8-3.7 0.1-4.6-1.5z"/>
		<path id="Layer" class="s8" d="m276.8 190.3l-0.8-1.2c-0.9-1.6-0.3-3.8 1.3-4.7l61.9-39.6c1.6-1 3.8-0.4 4.7 1.2l0.7 1.2c1 1.6 0.4 3.8-1.2 4.7l-61.9 39.6c-1.6 1-3.7 0.5-4.7-1.2z"/>
	</g>
</svg>