<svg xmlns="http://www.w3.org/2000/svg" viewBox="0 0 512 512"><defs><style>.a{fill:#c6c5ca;}.b{fill:#898890;}.c{fill:#fff;}.d{fill:#ffdc64;}.e{fill:#ffc850;}</style></defs><title>runecrafting</title><path class="a" d="M462,257c0,113.22-91.78,205-205,205S52,370.22,52,257,143.78,52,257,52,462,143.78,462,257Z"/><path class="b" d="M76.75,257c0-109.07,85.17-198.24,192.62-204.63Q263.23,52,257,52C143.78,52,52,143.78,52,257s91.78,205,205,205q6.24,0,12.37-.37C161.92,455.24,76.75,366.07,76.75,257Z"/><path class="c" d="M334.43,431.12l-5-11.31a177.38,177.38,0,0,0,75.64-63.52l10.28,6.87a189.6,189.6,0,0,1-80.9,68ZM419.91,356l-10.59-6.4c2.05-3.39,4-6.91,5.84-10.44l11,5.69C424.2,348.59,422.11,352.33,419.91,356Zm10-18.82L418.67,332c1.66-3.59,3.23-7.3,4.66-11l11.55,4.44C433.35,329.33,431.68,333.29,429.9,337.14Z"/><path class="d" d="M216.06,509.32l197.48-340a10.69,10.69,0,0,0-10.69-16L271.49,171.15,302.88,6.37a5.35,5.35,0,0,0-9.52-4.23L99.18,258.45a10.7,10.7,0,0,0,9.65,17.1l144.83-15.24-47.48,245.3A5.35,5.35,0,0,0,216.06,509.32Z"/><path class="e" d="M159.9,240.29a4.43,4.43,0,0,1-4.1-6.76L301,1.24a5.27,5.27,0,0,0-7.62.9L99.18,258.45a10.7,10.7,0,0,0,9.65,17.1l144.83-15.24-47.48,245.3a5.2,5.2,0,0,0,4.2,6.2l81.36-257.45a17.83,17.83,0,0,0-18.42-23.15Z"/></svg>