<svg height="512" viewBox="0 0 64 64" width="512" xmlns="http://www.w3.org/2000/svg"><g id="Icons"><g><g><path d="m51.597 28h4.065c-1.687-10.048-9.614-17.975-19.662-19.662v4.065c7.825 1.595 14.002 7.772 15.597 15.597z" fill="#fa6450"/></g><g><path d="m28 12.403v-4.065c-10.048 1.687-17.975 9.614-19.662 19.662h4.065c1.595-7.825 7.772-14.002 15.597-15.597z" fill="#fa6450"/></g><g><path d="m36 51.597v4.065c10.048-1.687 17.975-9.614 19.662-19.662h-4.065c-1.595 7.825-7.772 14.002-15.597 15.597z" fill="#fa6450"/></g><g><path d="m12.403 36h-4.065c1.687 10.048 9.614 17.975 19.662 19.662v-4.065c-7.825-1.595-14.002-7.772-15.597-15.597z" fill="#fa6450"/></g><g><path d="m28 20.7v-4.176c-5.616 1.449-10.027 5.86-11.476 11.476h4.176c1.208-3.4 3.9-6.092 7.3-7.3z" fill="#fa6450"/></g><g><path d="m43.3 28h4.176c-1.449-5.616-5.86-10.027-11.476-11.476v4.176c3.4 1.208 6.092 3.9 7.3 7.3z" fill="#fa6450"/></g><g><path d="m36 43.3v4.176c5.616-1.449 10.027-5.86 11.476-11.476h-4.176c-1.208 3.4-3.9 6.092-7.3 7.3z" fill="#fa6450"/></g><g><path d="m20.7 36h-4.176c1.449 5.616 5.86 10.027 11.476 11.476v-4.176c-3.4-1.208-6.092-3.9-7.3-7.3z" fill="#fa6450"/></g><g><path d="m51.593 28h2.004c-1.729-8.48-8.84-15.025-17.597-15.899v.35c7.818 1.596 13.997 7.735 15.593 15.549z" fill="#dc4632"/></g><g><path d="m36 51.548v.351c8.757-.874 15.868-7.419 17.597-15.899h-2.004c-1.596 7.814-7.775 13.952-15.593 15.548z" fill="#dc4632"/></g><g><path d="m28 8.767v-.429c-10.048 1.687-17.975 9.614-19.662 19.662h2.001c1.573-9.37 8.573-16.893 17.661-19.233z" fill="#dc4632"/></g><g><path d="m10.339 36h-2.001c1.687 10.048 9.614 17.975 19.662 19.662v-.429c-9.088-2.34-16.088-9.863-17.661-19.233z" fill="#dc4632"/></g><g><path d="m45.3 36h-2c-1.208 3.397-3.901 6.088-7.3 7.294v.525c4.325-.73 7.864-3.776 9.3-7.819z" fill="#dc4632"/></g><g><path d="m43.3 28h2c-1.436-4.043-4.975-7.089-9.3-7.819v.525c3.4 1.206 6.092 3.897 7.3 7.294z" fill="#dc4632"/></g><g><path d="m16.524 28h1.998c1.272-4.926 4.827-8.918 9.477-10.8v-.675c-5.615 1.448-10.026 5.859-11.475 11.475z" fill="#dc4632"/></g><g><path d="m18.523 36h-1.998c1.448 5.616 5.859 10.027 11.475 11.476v-.676c-4.65-1.882-8.205-5.874-9.477-10.8z" fill="#dc4632"/></g><g><path d="m34 22.202v-18.202h-4v18.202c.646-.132 1.315-.202 2-.202s1.354.07 2 .202z" fill="#be2814"/></g><g><path d="m30 41.798v18.202h4v-18.202c-.646.132-1.315.202-2 .202s-1.354-.07-2-.202z" fill="#be2814"/></g><g><path d="m60 30h-18.202c.132.646.202 1.315.202 2s-.07 1.354-.202 2h18.202z" fill="#be2814"/></g><g><path d="m22.202 30h-18.202v4h18.202c-.132-.646-.202-1.315-.202-2s.07-1.354.202-2z" fill="#be2814"/></g><g><circle cx="32" cy="32" fill="#fab400" r="8"/></g><g><g><path d="m26 32c0-4.079 3.055-7.438 7-7.931-.328-.041-.661-.069-1-.069-4.418 0-8 3.582-8 8s3.582 8 8 8c.339 0 .672-.028 1-.069-3.945-.493-7-3.852-7-7.931z" fill="#dc9600"/></g></g><g><path d="m32 34.633-2.599 1.367.496-2.894-2.103-2.05 2.906-.423 1.3-2.633 1.3 2.633 2.906.423-2.103 2.05.496 2.894z" fill="#f0f0f0"/></g></g></g></svg>