<svg version="1.2" baseProfile="tiny-ps" xmlns="http://www.w3.org/2000/svg" viewBox="0 0 512 512" width="512" height="512">
	<title>santa_chio-svg</title>
	<style>
		tspan { white-space:pre }
		.shp0 { fill: #3e4852 } 
		.shp1 { fill: #2e3b43 } 
		.shp2 { fill: #75808b } 
		.shp3 { fill: #656f79 } 
		.shp4 { fill: #d4dae0 } 
		.shp5 { fill: #b5c3d2 } 
		.shp6 { fill: #aa3a38 } 
		.shp7 { fill: #d04341 } 
		.shp8 { fill: #000000 } 
	</style>
	<g id="Слой_1">
		<path id="Layer" class="shp0" d="M218.34 239.16C214.54 239.16 210.75 239.16 206.96 239.16C205.44 238.99 203.93 238.79 202.39 238.67C194.56 238.08 187.02 236.49 180.1 232.53C164.21 223.44 150.95 211.29 138.43 198.14C135.4 194.97 134.61 191.93 134.83 187.72C135.62 172.74 136.07 157.76 138.53 142.93C140.36 131.84 142.79 120.92 147.87 110.77C148.34 109.85 148.79 108.64 149.58 108.19C152.86 106.34 156.13 103.96 159.7 103.19C167.14 101.58 174.75 100.2 182.34 99.95C198.18 99.4 214.05 99.8 229.89 99.58C246.21 99.33 262.17 101.53 278.04 105.05C292.25 108.19 303.06 115.62 310.62 128.15C314.69 134.86 317.07 142.11 319.18 149.51C321.75 158.58 321.75 167.94 321.9 177.24C321.9 177.84 321.7 178.48 321.43 179.03C316.3 189.5 309.73 198.96 301.18 206.9C297.7 210.15 293.84 212.99 289.94 215.74C280.27 222.55 270.68 229.41 258.78 232.23C249.58 234.41 240.53 237.21 231.06 238.05C226.84 238.42 222.6 238.79 218.34 239.16Z" />
		<path id="Layer" class="shp1" d="M281.51 105.77C285.36 107.5 289.27 109.13 293.07 110.97C304.13 116.31 310.47 125.9 315.23 136.57C321.01 149.51 322.85 163.35 322.27 177.44C322.18 180.09 320.49 182.86 318.95 185.24C313.92 193.06 309.06 201.16 301.77 207.18C295.4 212.43 288.63 217.2 281.86 221.93C278.61 224.21 275.04 226.09 271.45 227.78C257.79 234.16 243.35 237.6 228.28 238.37C218.59 238.87 208.94 239.02 199.27 237.88C193.25 237.18 187.39 235.77 181.94 233.05C174.82 229.51 167.61 225.84 162.05 220.2C154.17 212.23 144.6 206.01 137.73 196.98C136.29 195.09 134.48 193.36 135.18 190.64C135.25 190.39 135.38 190.17 135.43 190.04C137.81 192.25 140.34 194.25 142.47 196.65C148.29 203.24 155.34 208.02 163.29 211.63C174.55 216.76 185.93 221.54 198.08 224.06C216.7 227.95 234.9 226.07 252.75 219.75C255.26 218.86 257.81 218.1 260.36 217.35C270.5 214.36 279.53 209.23 287.29 202.2C295.05 195.17 299.02 186.03 300.11 175.56C301.3 164.12 302.71 152.73 301.97 141.2C301.67 136.42 300.41 131.99 298.13 127.8C294.7 121.51 290.02 116.22 285.13 111.09C283.74 109.63 282.43 108.07 281.09 106.56C281.22 106.29 281.36 106.01 281.51 105.77Z" />
		<path id="Layer" class="shp1" d="M133.39 195.02C137.29 198.54 140.88 201.85 144.55 205.07C155.39 214.65 167.01 223.02 180.4 228.69C187.72 231.79 195.55 232.01 203.36 232.11C221.88 232.36 239.78 228.86 257.26 223.05C263.49 220.97 268.79 217.25 274.1 213.61C280 209.58 285.75 205.32 291.36 200.89C293.39 199.28 294.9 196.98 296.56 194.9C297.88 193.26 299.12 191.55 300.18 189.75C302.81 185.32 305.39 180.81 307.87 176.28C308.46 175.19 309.03 174.74 310.27 174.87C312.51 175.11 314.76 175.21 316.99 175.34C318.95 175.44 320.49 176.03 321.93 177.59C323.84 179.7 326.19 181.43 328.42 183.24C345.46 196.93 361.5 211.71 375.9 228.15C397.4 252.63 411.46 280.91 418.13 312.77C420.31 323.22 421.25 333.82 421.4 344.51C421.45 347.28 421.85 350.06 422.25 352.8C422.89 357.36 421.63 361.37 418.55 364.61C416.54 366.72 414.16 368.53 411.73 370.16C393.68 382.19 374 390.51 352.97 395.66C339.71 398.9 326.32 401.55 312.65 402.57C299.24 403.56 285.88 403.11 272.49 402.4C272.14 402.37 271.79 402.3 271.35 402.22C271.45 401.9 271.45 401.63 271.6 401.43C272.64 399.87 273.06 398.21 272.04 396.5C270.95 394.7 269.17 394.05 267.16 394.25C265.07 394.45 263.02 394.97 260.91 395.17C237.7 397.27 215.73 393.73 195.77 380.91C194.49 380.09 193.07 379.35 191.61 378.9C190.72 378.63 189.35 378.65 188.73 379.17C188.11 379.69 187.82 381.1 188.01 381.97C188.31 383.28 189.03 384.57 189.77 385.71C190.44 386.75 191.39 387.61 192.45 388.83C191.76 388.68 191.31 388.68 190.94 388.51C183.92 385.51 176.88 382.51 169.89 379.42C168.65 378.88 167.48 377.93 166.52 376.97C154 364.39 146.01 349.56 144.18 331.71C144.08 330.77 143.63 329.83 143.19 328.99C140.61 324.16 137.41 319.58 135.55 314.5C133.69 309.38 132.77 303.83 132.1 298.39C130.67 286.58 131.76 274.72 132.62 262.93C134.16 242.48 133.89 222.03 133.37 201.58C133.32 199.82 133.29 198.09 133.29 196.33C133.27 196.01 133.32 195.71 133.39 195.02Z" />
		<path id="Layer" class="shp2" d="M270.75 402.4C271.12 401.85 271.3 401.55 271.5 401.28C273.6 398.01 271.97 394.6 268.07 394.35C266.49 394.25 264.88 394.67 263.29 394.84C239.41 397.77 216.87 394.2 196.2 381.25C194.78 380.36 193.27 379.54 191.71 379C190.84 378.7 189.35 378.63 188.83 379.15C188.19 379.77 187.79 381.35 188.16 382.12C189.15 384.15 190.57 385.98 191.86 387.86C192.11 388.23 192.48 388.56 192.63 389.2C190.62 388.46 188.56 387.79 186.58 386.95C181.67 384.87 176.71 382.86 171.95 380.48C169.37 379.2 167.06 377.27 164.88 375.36C163.84 374.47 163.05 373.03 162.65 371.67C157.67 354.79 155.68 337.58 157.1 319.95C157.99 308.98 159.87 298.29 164.48 288.21C168.1 280.24 172.69 273.01 180.3 268.23C187 264.02 194.19 261.57 202.25 262.51C203.01 262.61 204.06 262.21 204.63 261.69C217.92 249.39 236.56 248.89 250.32 260.65C252.28 262.34 254.21 264.15 255.8 266.18C266.81 280.41 277.05 295.17 283.72 311.98C295.47 341.56 294.6 370.9 280.87 399.77C279.8 402 278.61 403.24 275.96 402.69C274.4 402.4 272.69 402.49 270.75 402.4Z" />
		<g id="Layer">
			<g id="Layer">
				<path id="Layer" class="shp0" d="M317.51 314.38C318.31 325.97 315.83 337.13 313.32 348.27C311.02 358.47 309.36 368.75 308.79 379.17C308.61 382.14 309.11 385.19 309.63 388.13C310.7 394.13 312.28 400.02 313.13 406.03C313.57 409.28 313.05 412.69 312.73 416.01C312.65 416.8 311.86 417.79 311.12 418.24C304.22 422.4 296.89 424.95 288.7 425.05C278.64 425.17 268.67 424.8 258.8 422.55C254.74 421.61 251.09 419.87 248.14 416.95C247 415.81 245.81 414.13 245.74 412.67C245.59 408.09 245.81 403.48 246.21 398.93C246.33 397.59 247.32 396.18 248.26 395.12C250.67 392.39 253 389.5 255.83 387.27C260.34 383.73 263.54 379.25 265.77 374.17C271.22 361.74 274.72 348.79 274.65 335.1C274.57 321.31 270.11 308.96 261.7 298.09C257.71 292.91 252.6 288.95 246.78 286.01C245.29 285.24 243.68 284.37 242.09 284.22C237.97 283.85 234.92 281.55 231.58 279.52C218.11 271.4 204.48 272.19 191.34 280.11C186.35 283.11 181.91 287.2 177.77 291.31C172.67 296.38 170.78 303.26 169.44 310.1C166.12 327.13 169.94 342.8 179.39 357.16C182.68 362.19 186.58 366.84 190.12 371.72C191.68 373.87 193.12 376.13 194.51 378.38C199.79 386.92 199.62 395.93 196.3 404.99C195.18 408.04 193.52 410.91 191.83 413.71C190.72 415.54 188.83 416.63 186.6 416.93C182.01 417.55 177.45 418.24 172.87 418.74C166.42 419.4 160.34 417.5 154.32 415.62C150.65 414.48 147 413.12 143.58 411.36C140.88 409.97 138.33 408.09 136.12 406.03C132.57 402.74 132.45 396.53 135.18 392.47C137.56 388.93 139.81 385.26 141.72 381.45C144.8 375.31 144.25 368.97 141.97 362.66C137.83 351.2 133.64 339.76 129.57 328.29C124.81 314.9 121.74 301.13 120.7 286.92C119.36 268.6 121.71 250.68 126.43 233.05C128.16 226.54 130.91 220.25 133.39 213.94C134.91 210.07 138.03 208.61 141.2 209.88C143.16 210.64 144.4 212 144.8 214.18C144.92 214.85 145.49 215.74 146.09 215.99C158.34 220.87 167.29 233.47 180.48 235.48C191.66 237.18 207.92 247.14 219.23 247.26C230.46 247.38 244.22 246.02 255.45 246C259.02 246 259.89 236.09 263.46 236.32C265.15 236.42 265.17 231.74 266.84 231.64C272.61 231.27 277.82 232.43 281.98 236.71C285.23 240.08 288.8 243.22 291.65 246.91C304 262.93 312.03 281.06 316.65 300.64C317.64 305 317.24 309.75 317.51 314.38Z" />
				<path id="Layer" class="shp0" d="M335.59 394.92C335.86 387.94 339.98 380.26 348.11 375.29C352.9 372.34 358.35 370.43 363.53 368.13C364.05 367.88 364.82 367.86 365.37 368.03C372.04 370.33 379.05 370.16 385.95 370.73C388.05 370.9 390.16 370.95 392.24 370.95C393.98 370.95 394.53 371.79 394.43 373.45C394.08 379.44 390.06 384.05 384.06 384.99C382.4 385.26 381.16 385.91 379.9 387.05C378.38 388.41 376.33 389.17 374.54 390.24C372.26 391.58 369.88 392.79 367.77 394.35C365.69 395.88 365 398.14 365.74 400.74C366.14 402.15 366.56 403.56 366.85 404.99C368 410.22 365.54 414.5 360.81 416.19C347.59 420.89 335.29 412.03 335.59 394.92Z" />
			</g>
		</g>
		<g id="Layer">
			<g id="Layer">
				<path id="Layer" class="shp3" d="M176.39 389.5C170.41 398.26 168.08 407.82 171.43 419.01C167.63 418.39 164.46 417.62 161.21 417.35C154.07 416.73 151.74 411.9 150.2 405.86C148.86 400.54 148.67 395.39 150.55 390.21C150.7 389.82 150.58 389.3 150.25 388.73C147 391.6 146.09 395.59 144.87 399.5C143.58 403.58 143.34 407.55 145.24 411.83C140.83 410.24 137.56 407.77 135.1 404.4C132.62 401.01 133.14 395.86 135.38 392.32C138.05 388.09 140.34 383.58 142.81 379.2C143.11 378.68 143.41 377.98 143.88 377.74C149.24 374.86 154.47 371.72 160.79 371.22C172.79 370.31 183.38 373.53 192.53 381.38C192.68 381.52 192.82 381.7 193 381.8C197.73 384.69 198.68 389.2 198.4 394.3C198.08 400.29 196.35 405.86 193.52 411.09C191.66 414.5 188.88 416.85 184.69 417C183.92 417.03 183.18 417.28 182.41 417.37C177.75 417.97 177.65 417.97 176.93 413.26C175.84 406.08 175.87 398.88 177.2 391.72C177.33 391.08 177.35 390.41 177.4 389.74C177.08 389.67 176.73 389.6 176.39 389.5Z" />
				<path id="Layer" class="shp3" d="M293.07 424.48C291.36 424.65 290.04 424.93 288.73 424.88C282.16 424.65 275.56 424.33 268.99 424.11C267.45 424.06 267.06 423.51 267.16 421.9C267.36 418.56 267.13 415.17 267.23 411.83C267.36 407.45 267.65 403.06 267.88 398.68C267.9 397.91 267.88 397.15 267.58 396.33C261.23 404.03 260.69 413.21 261.06 422.85C254.91 421.56 249.45 419.85 246.6 414.3C245.54 412.2 245.61 409.43 245.51 406.95C245.26 401.55 246.08 396.43 250.5 392.64C251.54 391.75 252.63 390.78 253.87 390.26C260.29 387.52 266.44 384 273.48 382.89C284.64 381.1 295.15 382.71 304.82 388.7C308.27 390.83 310.82 393.56 311.32 397.94C311.74 401.8 313.03 405.61 313.3 409.48C313.77 416.24 312.65 417.79 306.53 420.54C304 421.68 301.4 422.67 298.7 423.76C299.12 413.07 293.81 404.6 289.67 395.69C288.63 405.47 292.3 414.65 293.07 424.48Z" />
			</g>
		</g>
		<path id="Layer" class="shp3" d="M409.48 281.65C415.82 283.93 422 285.73 427.48 289.25C440.94 297.87 452.42 308.51 461.44 321.73C473.45 339.31 477.16 358.6 473.3 379.39C469.55 399.52 459.06 415.81 444.54 429.85C432.93 441.09 419.15 448.92 404.86 456.12C396.48 460.35 388.03 464.49 379.87 469.17C368.74 475.56 360.51 484.74 354.95 496.35C353.71 498.98 352.15 501.55 350.27 503.78C346.4 508.31 341.34 509.25 335.74 507.52C334.55 507.15 333.31 506.7 332.27 506.01C324.33 500.74 316.37 495.61 309.63 488.65C295.97 474.54 291.55 449.39 305.19 429.73C311.49 420.64 319.7 413.54 328.77 407.47C335.94 402.67 343.25 398.09 350.76 393.88C360.06 388.68 368.69 382.61 376.9 375.88C386.12 368.33 395.32 360.78 403.77 352.31C415.1 340.95 418.43 327.43 416.84 311.9C415.87 302.32 413.17 293.29 410.12 284.3C409.95 283.78 409.77 283.23 409.62 282.69C409.55 282.54 409.55 282.32 409.48 281.65Z" />
	</g>
	<g id="Слой_2">
		<path id="Layer" fill-rule="evenodd" class="shp4" d="M186.13 292.27C183.87 293.46 181.94 294.94 179.78 295.51C174.85 296.85 170.71 294.97 167.44 291.26C163.44 286.77 161.06 281.33 159.58 275.66C158.61 272.04 156.97 270.14 153.38 269.37C152.09 269.1 150.75 267.98 149.88 266.89C144.15 259.64 141.55 251.22 141.18 242.11C140.93 236.19 141.13 230.25 140.98 224.31C140.95 223.05 140.63 221.59 139.94 220.57C135.62 214.41 133.62 207.28 131.66 200.24C130.67 196.73 131.14 192.82 130.96 189.08C130.91 188.01 130.96 186.95 130.94 185.88C130.84 182.81 134.48 178.66 137.51 179.05C138.95 179.22 140.68 180.61 141.45 181.95C143.46 185.36 146.63 186.8 150.1 187.47C151.67 187.77 153.92 187.1 155.11 186.06C157.47 183.98 159.97 181.63 161.21 178.85C165.65 168.9 174.23 165.68 183.9 164C188.29 163.23 192.68 162.51 197.09 162.07C198.92 161.89 200.93 162.19 202.64 162.83C204.13 163.38 205.4 163.6 206.91 163.21C209.71 162.46 212.14 162.88 213.35 165.58C222.95 162.02 231.85 164.07 240.26 168.6C247.82 172.69 254.76 177.71 259.82 184.87C264.95 192.12 272.51 194.72 280.79 195.81C290.51 197.1 299.14 194.05 306.33 187.79C310.92 183.81 314.79 178.88 318.53 174.05C320.07 172.04 320.49 169.15 321.36 166.65C321.73 165.58 321.95 164.44 322.23 163.35C322.42 163.38 322.62 163.4 322.82 163.4C322.94 164.15 323.17 164.86 323.19 165.61C323.32 170.34 323.44 175.07 323.49 179.79C323.49 180.61 323.34 181.48 323.07 182.27C320.12 190.74 317.32 199.25 314.09 207.6C312.95 210.57 310.82 213.17 309.08 215.89C308.29 217.13 307.35 218.29 306.41 219.43C305.79 220.15 305.02 220.74 304.05 221.61C304.7 226.31 304.18 231.37 302.69 236.27C299.76 245.92 293.24 252.83 285.33 258.65C285.28 258.7 285.21 258.7 285.13 258.75C281.76 260.63 280.94 260.28 280.03 256.59C279.9 256.05 279.75 255.5 279.43 254.27C278.54 256.52 277.35 258.25 277.27 260.04C276.73 270.26 272.22 278.6 265.4 285.86C263.14 288.26 260.49 290.36 257.79 292.27C254.21 294.8 250.25 295.59 245.88 294.4C244.07 293.9 242.09 293.98 240.21 293.86C239.91 293.83 239.51 294.18 239.26 294.45C235.64 298.36 233.69 303.04 232.97 308.29C232.67 310.54 231.68 312.03 229.52 313.17C215.81 320.52 204.7 317.57 194.91 307.57C190.64 303.19 187.79 297.94 186.13 292.27ZM188.91 182.84C188.76 184.05 188.54 184.87 188.58 185.69C188.96 191.28 191.76 195.44 196.39 198.44C198.23 199.63 200.16 200.67 202.12 201.66C212.29 206.73 222.58 202.35 227.69 194.35C228.38 193.29 228.38 191.7 228.5 190.37C228.6 189.43 228.38 188.46 228.28 187.39C227.07 186.75 225.63 186.13 224.34 185.29C222.16 183.88 220.17 182.2 217.94 180.88C214.57 178.9 211.07 177.1 210.65 172.09C209.09 173.36 207.58 174.03 206.93 175.19C205.2 178.28 202.72 179.97 199.27 180.61C195.75 181.23 192.25 182.1 188.91 182.84Z" />
		<g id="Layer">
			<g id="Layer">
				<path id="Layer" class="shp5" d="M276.63 246.54C278.19 250.13 280.82 253.5 278.14 257.86C277.47 258.92 277.3 260.38 277.22 261.67C276.98 266.5 275.36 270.95 273.26 275.21C269.84 282.12 264.85 287.76 258.55 292.22C254.74 294.9 250.62 296.08 245.91 294.8C244.1 294.3 242.12 294.38 240.23 294.25C239.93 294.23 239.51 294.55 239.26 294.82C235.64 298.73 233.69 303.41 232.97 308.66C232.67 310.91 231.68 312.4 229.52 313.56C215.66 321.04 204.33 317.82 194.63 307.7C190.49 303.39 187.74 298.24 186.01 292.32C185.51 292.69 185.09 292.94 184.77 293.24C180.58 297.02 174.65 297.57 170.19 294.03C167.86 292.2 165.7 289.77 164.36 287.17C162.08 282.74 160.42 277.99 158.66 273.28C158.24 272.12 157.89 271.18 156.6 270.98C151.54 270.24 148.96 266.67 146.68 262.61C143.11 256.3 141.48 249.49 141.18 242.33C140.93 236.54 141.13 230.75 140.98 224.95C140.93 223.54 140.63 221.93 139.84 220.82C135.57 214.7 133.64 207.65 131.66 200.69C130.67 197.25 131.14 193.39 130.96 189.72C130.91 188.81 130.89 187.89 130.96 186.97C131.06 185.69 130.79 183.9 131.53 183.21C133.17 181.65 135.25 180.44 137.31 179.45C138.55 178.85 138.72 180.17 138.72 181.11C138.67 185.22 138.67 189.3 138.55 193.41C138.45 197.22 138.05 201.04 138.15 204.85C138.2 206.43 138.92 208.17 139.81 209.5C141.48 212.03 143.53 214.28 145.34 216.73C145.74 217.25 146.16 218.19 145.96 218.69C144.55 222.08 145 225.5 145.44 228.94C146.56 237.33 147.03 245.85 150.05 253.9C150.9 256.15 151.62 258.43 152.43 260.85C154.22 260.46 156.01 260.13 157.74 259.66C158.09 259.57 158.39 259 158.51 258.57C158.73 257.86 158.81 257.09 158.93 256.35C159.13 256.35 159.33 256.32 159.53 256.32C159.65 257.19 159.85 258.05 159.92 258.92C160.47 264.96 160.57 271.08 161.66 276.99C162.25 280.16 164.29 283.21 166.12 286.01C168.48 289.57 172.69 288.8 174.82 285.14C176.46 282.32 178.59 279.62 181.02 277.44C184.25 274.52 189.15 275.96 191.09 280.11C192.08 282.29 192.65 284.65 193.47 286.9C195.01 291.23 196.42 295.61 198.2 299.82C201.2 307.03 209.54 311.43 217.25 310.22C218.93 309.95 220.62 309.75 222.28 309.53C225.55 309.11 227.73 307.32 228.8 304.23C229.22 302.97 229.69 301.7 229.97 300.39C231.38 293.76 237.43 288.04 242.44 282.32C242.74 284.05 243.08 285.54 243.18 287.05C243.31 288.58 243.21 290.12 243.21 291.6C255.08 284.82 265.03 276.15 270.88 263.72C273.06 259.07 274 253.8 275.49 248.8C275.71 248.08 275.81 247.31 275.98 246.57C276.18 246.54 276.41 246.54 276.63 246.54Z" />
				<path id="Layer" class="shp5" d="M322.8 163.75C322.94 164.47 323.17 165.21 323.19 165.93C323.34 170.73 323.44 175.51 323.51 180.31C323.51 181.13 323.32 182 323.04 182.79C320.12 191.18 317.32 199.6 314.12 207.89C313 210.79 310.97 213.37 309.26 216.02C308.34 217.43 307.27 218.76 306.18 220.05C305.66 220.67 304.94 221.14 304.57 221.44C304.08 225.97 304 230.5 303.06 234.86C300.78 245.4 293.74 252.66 285.43 258.92C285.33 259 285.18 259.09 285.06 259.12C283.79 259.42 281.66 260.23 281.41 259.86C280.5 258.45 280.17 256.67 279.7 254.98C279.65 254.79 280 254.39 280.25 254.17C287.51 248.4 291.38 240.45 294.65 232.08C296.86 226.46 297.56 220.6 297.95 214.68C298 213.99 298.08 213.27 298.2 212.57C298.22 212.4 298.4 212.25 298.7 211.78C299.66 213.14 300.53 214.38 301.4 215.59C302.74 212.03 304.4 208.54 305.29 204.87C305.81 202.72 305.17 200.27 304.97 197.94C304.82 195.96 304.6 194.01 304.32 192.05C304.13 190.66 304.65 189.82 305.64 188.78C310 184.2 314.42 179.6 318.31 174.59C319.94 172.49 320.39 169.47 321.31 166.82C321.68 165.81 321.88 164.72 322.15 163.68C322.4 163.73 322.6 163.75 322.8 163.75Z" />
			</g>
			<path id="Layer" class="shp5" d="M212.61 173.43C211.99 173.73 211.37 174 210.75 174.27C210.6 174.2 210.43 174.1 210.28 174.03C210.58 173.28 210.68 172.27 211.25 171.85C211.79 171.45 212.91 171.38 213.58 171.65C214.92 172.24 216.18 173.08 217.4 173.93C226.52 180.29 236.61 184.72 246.85 188.83C249.95 190.07 253.45 190.32 256.74 191.08C257.41 191.23 258.55 191.68 258.55 191.93C258.5 192.74 258.23 193.88 257.64 194.28C256.84 194.8 255.63 194.97 254.66 194.85C250.52 194.28 246.4 193.63 242.31 192.82C235.35 191.38 229.2 188.26 223.72 183.73C222.33 182.57 220.57 181.87 218.98 180.96C214.82 178.68 214.05 177.76 212.61 173.43Z" />
			<path id="Layer" class="shp5" d="M174.28 187.96C172.84 187.77 171.63 187.84 170.66 187.37C169.84 186.97 168.9 186.01 168.82 185.19C168.75 184.55 169.69 183.38 170.46 183.09C172.07 182.44 173.86 182.1 175.59 181.8C185.41 180.14 194.73 177.29 202.49 170.66C204.25 169.15 206.29 169.35 207.43 170.76C208.49 172.09 208.37 174.1 206.68 175.49C202.64 178.8 198.5 181.95 193.22 183.21C189.63 184.08 186.2 185.64 182.63 186.58C179.78 187.32 176.88 187.54 174.28 187.96Z" />
		</g>
		<g id="Layer">
			<path id="Layer" class="shp6" d="M240.26 5.62C255.4 6.09 270.6 9.23 284.98 15.99C289.08 17.92 293.22 19.81 297.23 21.86C309.21 27.95 317.61 37.58 324.08 49.12C329.66 59.05 333.51 69.67 336.61 80.59C337.32 83.09 337.75 85.69 338.52 88.19C342.53 101.31 349.6 112.6 359.47 122.11C360.48 123.1 362.09 123.69 363.53 124.01C366.53 124.66 367.97 125.8 368 128.2C368.02 130.5 366.48 132.09 363.71 132.65C359.86 133.45 356.22 132.43 352.65 131.29C342.14 127.95 331.62 124.61 322.05 118.89C314.91 114.61 308.89 109.16 303.63 102.75C301.27 99.85 298.84 96.98 296.34 94.21C291.31 88.58 287.41 82.2 283.62 75.71C278.24 66.55 271.82 58.31 262.37 52.81C255.7 48.95 249.33 44.59 242.69 40.68C238.92 38.45 234.7 36.96 231.01 34.66C226.4 31.79 221.96 28.6 217.74 25.18C215.66 23.5 213.97 21.12 212.66 18.77C210.4 14.73 211.69 10.52 215.98 8.71C219.06 7.43 222.48 6.76 225.8 6.39C230.36 5.82 234.97 5.87 240.26 5.62Z" />
			<path id="Layer" class="shp7" d="M313.03 113.54C308.32 111.98 304.13 110.55 299.89 109.23C282.65 103.89 264.93 101.68 246.95 101.01C242.09 100.84 237.26 100.07 232.42 99.58C230.81 99.4 229.17 99.21 227.56 99.18C226.74 99.18 225.6 99.33 225.21 99.85C223.37 102.23 220.87 101.58 218.59 101.38C207.97 100.39 197.31 99.58 186.9 102.05C176.11 104.63 165.5 107.9 154.91 111.16C152.21 112.01 149.81 113.86 147.33 115.35C144.6 116.96 143.43 116.61 142.05 113.71C141.35 112.25 140.41 110.92 139.72 109.48C137.63 105.22 138.85 100.96 140.11 96.88C141.48 92.52 143.21 88.24 145.17 84.1C149.96 74.03 155.19 64.15 159.82 54C167.61 36.94 179.71 24.04 195.92 14.63C213.45 4.46 232.05 1.91 251.61 6.29C255.43 7.16 259.05 9.36 262.5 11.36C270.36 15.97 277.35 21.71 283.65 28.3C291.28 36.32 295.05 46.37 298.52 56.6C301.52 65.41 304.6 74.23 307.57 83.04C308.02 84.35 308.54 85.84 308.37 87.15C307.77 92 309.36 96.51 310.35 101.11C311.12 105.1 312.03 109.08 313.03 113.54Z" />
			<g id="Layer">
				<path id="Layer" class="shp4" d="M313.1 130.5C312.26 129.56 311.56 128.57 310.67 127.83C309.18 126.59 307.7 125.28 306.01 124.39C303.46 123.02 300.63 122.21 298.1 120.8C285.51 113.89 271.67 110.69 257.76 108.12C246.73 106.09 235.5 104.83 224.29 104.11C215.91 103.59 207.43 104.06 199.05 104.85C189.7 105.74 180.3 106.93 171.18 108.99C161.83 111.09 153.2 115.4 145.86 121.79C144.23 123.22 143.21 125.35 141.9 127.13C141.6 127.53 141.15 128.32 141 128.27C140.41 128.07 139.59 127.73 139.37 127.21C137.43 122.43 135.05 117.75 133.89 112.8C132.72 107.82 132.67 102.57 132.38 97.45C132.05 91.75 135.4 87.89 139.54 84.67C144.6 80.76 150.62 79.15 156.77 77.94C168.45 75.61 180.25 74.13 192.13 73.56C207.6 72.81 223.1 72.05 238.59 71.7C244.2 71.58 249.9 72.24 255.43 73.28C267.45 75.54 279.46 77.96 291.31 80.93C298.2 82.67 304.92 85.32 311.49 88.04C316.08 89.95 319.05 94.08 322.08 97.89C322.47 98.39 322.62 99.23 322.62 99.9C322.57 110.69 319.67 120.67 313.89 129.81C313.84 129.98 313.65 130.08 313.1 130.5Z" />
				<path id="Layer" class="shp4" d="M367.23 115.08C371.17 114.16 374.19 116.91 377.34 119.31C380.96 122.03 384.48 125.15 385.38 129.66C386.02 132.85 385.45 136.39 384.86 139.69C384.01 144.34 382 148.57 378.33 151.79C373.43 156.1 360.83 158.53 353.54 153.53C347.69 149.54 341.96 140.63 345.09 130.67C348.43 120.08 355.87 114.56 367.23 115.08Z" />
			</g>
			<g id="Layer">
				<path id="Layer" class="shp5" d="M139.29 84.8C135.45 99.73 135.33 110.77 138.62 114.38C144.25 112.28 149.91 110.5 155.31 108.09C166.64 103.07 178.54 100.44 190.74 99.06C216.3 96.14 241.5 98.83 266.46 104.38C275.64 106.41 284.84 108.52 293.91 110.94C298.47 112.15 302.79 114.21 307.22 115.87C307.89 116.12 308.54 116.36 309.21 116.61C310.89 117.21 311.71 116.64 312.48 114.93C315.63 107.92 315.58 101.16 311.81 94.4C310.5 92.08 309.53 89.55 308.41 87.1C308.51 86.93 308.64 86.75 308.74 86.58C310.57 87.57 312.63 88.34 314.24 89.65C316.65 91.63 318.73 93.96 320.91 96.19C322.32 97.62 322.77 99.31 322.62 101.41C322.1 107.77 321.66 114.14 318.95 120.03C317.51 123.17 315.85 126.22 314.32 129.31C313.75 130.48 313.03 130.53 312.21 129.61C311.54 128.87 311.02 128.02 310.35 127.31C309.58 126.51 308.79 125.55 307.82 125.1C299.89 121.59 292.05 117.68 283.87 114.83C268.22 109.38 252.01 106.34 235.52 104.93C213.87 103.07 192.33 104.03 171.15 108.99C161.81 111.16 153.18 115.45 145.86 121.86C144.23 123.3 143.24 125.43 141.92 127.23C141.62 127.63 141.23 128.35 140.98 128.3C140.43 128.2 139.72 127.83 139.49 127.36C136.79 121.69 133.89 116.04 133.29 109.65C132.92 105.72 132.65 101.76 132.4 97.82C132.03 92.27 135.08 88.54 139.29 84.8Z" />
				<path id="Layer" class="shp5" d="M383.94 142.41C382.8 148.57 377.49 153.95 371.37 155.16C367.82 155.85 364.38 156.87 360.68 156.17C348.9 154.02 341.71 142.24 345.09 130.7C346.4 126.24 348.58 122.43 352.47 119.19C349.25 129.46 348.83 139.07 358.47 145.55C367.5 151.62 376.05 148.23 383.94 142.41Z" />
			</g>
		</g>
	</g>
	<g id="Слой_3">
		<g id="Layer">
			<path id="Layer" class="shp8" d="M169.57 184.18C170.51 184.23 171.48 184.28 172.42 184.37C182.53 185.24 191.88 182.81 200.56 177.64C200.81 177.49 201.03 177.34 201.25 177.19C204.92 174.5 204.7 174.72 201.65 171.52C199.94 169.74 199.05 167.14 197.93 164.84C197.24 163.4 196.67 161.87 196.22 160.33C195.53 157.96 197.06 156.2 199.54 156.27C203.26 156.4 206.96 156.37 210.68 156.52C212.41 156.6 214.22 156.67 215.86 157.17C218.93 158.11 220.3 161.28 218.73 164.07C217.1 166.99 215.24 169.79 213.25 172.49C211.77 174.5 211.69 175.66 213.58 177.32C221.29 184.08 230.51 187.89 240.21 190.74C244.62 192.05 249.11 193.19 253.59 194.8C250.74 194.85 247.89 195.12 245.07 194.9C233.78 194.03 223.87 189.33 214.44 183.48C212.63 182.34 211.1 180.74 209.54 179.25C208.49 178.28 207.58 178.38 206.34 178.88C200.49 181.21 194.66 183.61 188.68 185.61C183.33 187.42 177.75 187.02 172.25 186.11C171.23 185.93 170.29 185.34 169.32 184.94C169.39 184.7 169.49 184.45 169.57 184.18Z" />
			<path id="Layer" class="shp8" d="M408.71 154.74C399.83 153.48 390.95 152.06 382.05 151.03C360.88 148.55 339.68 147.63 318.41 149.04C307.13 149.79 295.87 150.23 284.91 153.15C280.6 154.29 276.5 157.19 272.31 158.75C271.92 158.9 271.55 159.29 271.17 159.27C270.31 159.22 269.24 159.24 268.67 158.75C267.7 157.93 268.32 157.07 269.14 156.32C272.96 152.86 277.47 150.46 282.36 149.17C288.98 147.44 295.72 145.75 302.51 145.16C312.98 144.22 323.51 143.77 334.03 143.94C350.94 144.19 367.77 145.73 384.41 148.99C391.7 150.43 398.94 152.16 406.18 153.8C407.05 154 407.91 154.34 408.76 154.59C408.76 154.64 408.73 154.69 408.71 154.74Z" />
			<path id="Layer" class="shp8" d="M286.32 164.54C300.6 162.29 314.94 163.4 329.14 165.43C356.66 169.37 381.16 180.12 403.43 196.41C403.35 196.58 403.28 196.78 403.2 196.95C402.61 196.68 401.99 196.46 401.42 196.13C379.6 183.85 356.22 176.2 331.62 171.7C317.71 169.15 303.73 167.59 289.7 166.33C288.53 166.23 287.36 165.81 286.2 165.53C286.25 165.21 286.27 164.86 286.32 164.54Z" />
			<path id="Layer" class="shp8" d="M344.49 229.95C343.4 228.02 342.38 226.07 341.24 224.21C332.04 209.16 319.3 197.99 303.63 189.97C294.28 185.19 284.74 181.08 274.37 179.05C273.31 178.85 272.39 177.86 271.42 177.24C272.49 176.7 290.86 176.6 298.47 179.65C318.38 187.57 332.99 201.26 341.96 220.77C343.28 223.64 344.09 226.74 345.14 229.73C344.94 229.78 344.71 229.88 344.49 229.95Z" />
			<path id="Layer" class="shp8" d="M161.58 153.75C160.54 153.7 159.23 154.05 158.48 153.55C150.65 148.28 141.72 145.92 132.62 144.66C121.32 143.08 109.91 141.82 98.51 141.34C81.52 140.65 64.59 142.11 47.83 145.13C46.71 145.33 45.62 145.5 44.51 145.7C44.31 145.73 44.08 145.7 43.79 145.45C44.36 145.26 44.9 145.01 45.5 144.84C60.2 140.63 75.15 137.88 90.42 137.33C100.91 136.94 111.45 137.04 121.94 137.46C129.85 137.78 137.68 139.26 145.27 141.72C150.6 143.45 155.51 145.97 159.5 149.99C160.39 150.88 161.09 152.02 161.88 153.03C161.76 153.23 161.66 153.5 161.58 153.75Z" />
			<path id="Layer" class="shp8" d="M146.06 159.72C144.48 159.99 142.89 160.33 141.28 160.48C134.86 161.1 128.41 161.4 122.01 162.27C97.54 165.61 74.06 172 52.86 185.19C51.4 186.11 49.94 186.97 48.32 187.59C64.96 172.94 83.95 162.66 105.85 158.53C119.16 156.03 132.62 155.75 145.96 158.55C146.01 158.95 146.04 159.32 146.06 159.72Z" />
			<path id="Layer" class="shp8" d="M96.6 221.91C98.01 217.82 99.1 213.61 100.86 209.68C108.13 193.44 119.19 180.74 135.7 173.36C141.25 170.88 147.15 169.57 153.28 169.72C154.52 169.74 155.81 169.94 157 170.29C157.57 170.46 158.29 171.15 158.34 171.65C158.36 172.09 157.59 172.69 157.07 173.06C156.7 173.33 156.15 173.36 155.66 173.48C129.4 180.41 109.89 195.61 98.28 220.4C97.99 221.02 97.66 221.61 97.37 222.21C97.12 222.13 96.87 222.03 96.6 221.91Z" />
			<path id="Layer" class="shp8" d="M263.39 138.89C253.99 130.4 244.47 130.85 234.31 137.8C234.55 136.37 234.58 135.55 234.8 134.81C236.81 128.05 240.85 123.15 248.04 122.01C256 120.75 262.05 124.48 263.36 134.07C263.56 135.55 263.39 137.11 263.39 138.89Z" />
			<path id="Layer" class="shp8" d="M187.67 132.68C179.66 127.43 171.77 126.02 163.44 130.23C161.71 124.34 167.61 117.3 174.35 117.21C178.57 117.13 181.52 119.31 183.97 122.38C186.23 125.18 187.02 128.57 187.67 132.68Z" />
		</g>
	</g>
</svg>