<svg version="1.2" xmlns="http://www.w3.org/2000/svg" viewBox="0 0 42 42" width="42" height="42">
	<title>Logo - SIWA - Logo-only - White-svg</title>
	<style>
		.s0 { fill: #000000 } 
		.s1 { fill: #ffffff } 
	</style>
	<g id="White-Logo-Square-">
		<path id="Rectangle" class="s0" d="m0 0h42v42h-42z"/>
		<path id="" class="s1" d="m21 13.7c0 0-0.1-0.2-0.1-0.3 0-1 0.5-1.9 1-2.5 0.6-0.7 1.7-1.3 2.6-1.4q0 0.2 0 0.4c0 0.9-0.4 1.9-0.9 2.5-0.6 0.8-1.6 1.3-2.4 1.3q-0.1 0-0.2 0zm-5.3 11.7c-1-1.5-1.9-3.8-1.9-6 0-3.6 2.3-5.4 4.5-5.4 1.1 0 2.1 0.8 2.8 0.8 0.7 0 1.8-0.9 3.1-0.9 0.5 0 2.3 0.1 3.5 1.8-0.1 0.1-1.9 1.2-1.9 3.5 0 2.7 2.3 3.6 2.4 3.7-0.1 0-0.4 1.3-1.2 2.5-0.8 1.1-1.6 2.3-2.8 2.3-1.2 0-1.5-0.8-2.9-0.8-1.3 0-1.8 0.8-2.9 0.8-1.1 0-1.8-1.1-2.7-2.3z"/>
	</g>
</svg>