<svg id="Layer_3" enable-background="new 0 0 64 64" height="512" viewBox="0 0 64 64" width="512" xmlns="http://www.w3.org/2000/svg"><g><path d="m45.707 15.556c-.9-1.305-1.925-2.52-3.058-3.628.86-.224 1.498-.999 1.498-1.929 0-1.105-.895-2-2-2-1.036 0-1.878.79-1.98 1.799-1.367-1.017-2.846-1.895-4.417-2.612.247-.333.397-.74.397-1.186 0-1.105-.895-2-2-2-1.063 0-1.924.832-1.988 1.879-2.001-.553-4.11-.854-6.293-.873.175-.297.281-.637.281-1.006 0-1.105-.895-2-2-2s-2 .895-2 2c0 .542.217 1.032.567 1.392-1.829.482-3.475 1.399-4.828 2.639-.341-.612-.988-1.031-1.739-1.031-1.105 0-2 .895-2 2 0 .913.615 1.674 1.451 1.914-.739 1.327-1.227 2.813-1.39 4.397-.308-.194-.67-.311-1.061-.311-1.105 0-2 .895-2 2s.895 2 2 2c.491 0 .935-.184 1.284-.478.431 1.542 1.34 2.882 2.56 3.851-.509.363-.844.954-.844 1.627 0 1.105.895 2 2 2s2-.895 2-2c0-.053-.011-.102-.015-.153.489.1.996.153 1.515.153 1.27 0 2.464-.318 3.513-.875.066 1.045.925 1.875 1.987 1.875 1.105 0 2-.895 2-2 0-.95-.664-1.741-1.551-1.945.969-1.264 1.551-2.839 1.551-4.555v-.711c0-.988-.801-1.789-1.789-1.789-.731 0-1.389.445-1.661 1.125l-.8 2.001c-.453 1.132-1.549 1.874-2.768 1.874-1.647 0-2.981-1.335-2.981-2.981 0-3.324 2.695-6.018 6.019-6.018 8.021 0 14.289 6.926 13.491 14.907l-.098.981c-.268 2.68-1.328 5.22-3.046 7.295l-20.86 25.204c-.327.396-.506.893-.506 1.406 0 1.218.987 2.206 2.206 2.206h16.496c1.423 0 2.738-.756 3.455-1.985l2.608-4.472" fill="#758190"/><g fill="#e7e4dd"><circle cx="48" cy="20" r="5"/><circle cx="48" cy="36" r="5"/><circle cx="41" cy="51" r="5"/></g><g><path d="m48 21.999c-1.103 0-2-.897-2-2s.897-2 2-2 2 .897 2 2c-.001 1.103-.898 2-2 2z" fill="#a8b0bc"/></g><g><path d="m48 37.998c-1.103 0-2-.896-2-1.999 0-1.104.897-2 2-2s2 .896 2 2c-.001 1.103-.898 1.999-2 1.999z" fill="#a8b0bc"/></g><g><path d="m41 52.998c-1.103 0-2-.896-2-1.999 0-1.104.897-2 2-2s2 .896 2 2c0 1.103-.897 1.999-2 1.999zm0-2.001v.002z" fill="#a8b0bc"/></g><path d="m49.913 31.38c.192-2.274.064-4.499-.346-6.631-.493.163-1.02.251-1.567.251-2.369 0-4.353-1.648-4.869-3.86.36 4.166-.555 8.353-2.639 11.999 0 0-16.492 28.861-16.492 28.861h8.85c1.423 0 2.738-.756 3.455-1.985 0 0 2.608-4.472 2.608-4.471-1.719-.79-2.913-2.528-2.913-4.544 0-2.761 2.239-5 5-5 1.094 0 2.105.351 2.928.948l2.274-3.899c.399-.684.769-1.384 1.107-2.097v.001c-2.434-.337-4.309-2.426-4.309-4.953 0-2.761 2.239-5 5-5 .678 0 1.324.135 1.913.379z" fill="#a8b0bc"/></g></svg>