<svg xmlns="http://www.w3.org/2000/svg" viewBox="0 0 512 512" width="512" height="512">
	<style>
		tspan { white-space:pre }
		.shp0 { fill: #f9ac11 } 
		.shp1 { fill: #fe7829 } 
		.shp2 { fill: #ed5564 } 
		.shp3 { fill: #ccd1d9 } 
		.shp4 { opacity: 0.851;fill: #fe7829 } 
		.shp5 { fill: #aab2bc } 
		.shp6 { fill: #da4453 } 
		.shp7 { fill: #ffce54 } 
		.shp8 { fill: #f6bb42 } 
	</style>
	<path id="Layer" class="shp0" d="M491.78 223.55L491.78 187.59C491.78 196.22 488.35 204.5 482.25 210.61C472.23 220.63 457.31 222.75 445.21 216.98C452.8 212.79 459.94 207.51 466.37 201.07C503.21 164.24 503.21 104.51 466.37 67.67C462.52 63.83 458.41 60.4 454.12 57.36C455.64 83.31 446.5 109.78 426.67 129.61C417.65 138.63 407.27 145.42 396.18 150.02C423.06 111.43 430.79 60.01 410.33 12.26L405.1 0.05C408.97 29.74 394.6 58.84 368.67 73.81L320.92 101.39C324.35 90.21 330.48 79.69 339.32 70.85C339.57 70.61 339.82 70.38 340.07 70.14C312.16 55.68 276.98 60.14 253.57 83.56C252.22 84.9 250.95 86.31 249.73 87.73C240.98 74.68 228.29 64.14 212.62 58.14L204.33 54.97L204.33 86.68C204.33 130.44 186.95 172.4 156.01 203.34C115.64 243.71 113.57 309.19 152.56 350.91C193.53 394.74 262.3 395.61 304.38 353.53C332.08 310.01 380.09 283.66 431.68 283.66L431.68 283.66C464.87 283.66 491.78 256.75 491.78 223.55Z" />
	<path id="Layer" class="shp1" d="M287.37 315.13L347.26 291.6L293.37 276.9C315.55 235.87 351.49 203.95 394.91 186.78L394.91 186.78L394.91 186.78C344.74 179.06 293.53 188.07 249.1 212.25L236.1 145.49L236.1 145.49C224.76 185.69 200.66 221.12 167.44 246.43L151.93 258.25C124.74 285.44 124.74 329.52 151.93 356.71C179.12 383.9 223.2 383.9 250.39 356.71L250.39 356.71C255.38 337.74 269.12 322.3 287.37 315.13Z" />
	<path id="Layer" class="shp1" d="M317.31 103L317.31 103C319.82 112.62 316.74 122.84 309.33 129.48L304.18 134.1L314.46 132.75C326.41 131.18 331.26 116.51 322.61 108.13L317.31 103Z" />
	<path id="Layer" class="shp2" d="M143.61 400.68C143.61 398.44 142.72 396.29 141.14 394.71L117.27 370.84C113.98 367.55 108.64 367.55 105.34 370.84L29.44 446.76C26.14 450.05 26.14 455.39 29.44 458.69L53.3 482.55C56.6 485.84 61.94 485.84 65.23 482.55L141.14 406.64C142.72 405.06 143.61 402.92 143.61 400.68Z" />
	<path id="Layer" class="shp3" d="M388.24 183.42C389.35 182.3 390.13 180.88 390.49 179.35L404.79 117.33C405.43 114.49 404.58 111.52 402.53 109.46C400.48 107.41 397.5 106.55 394.67 107.21L332.65 121.5C331.1 121.85 329.69 122.63 328.58 123.75L111.31 341.01C108.02 344.31 108.02 349.65 111.31 352.95L159.04 400.68C160.62 402.26 162.77 403.15 165.01 403.15C167.24 403.15 169.39 402.26 170.97 400.68L388.24 183.42Z" />
	<path id="Layer" fill-rule="evenodd" class="shp4" d="M404.79 117.33L390.49 179.35C390.13 180.88 389.35 182.3 388.24 183.42L170.97 400.68C169.39 402.26 167.24 403.15 165.01 403.15C162.77 403.15 160.62 402.26 159.04 400.68L111.31 352.95C108.02 349.65 108.02 344.31 111.31 341.01L328.58 123.75C329.69 122.63 331.1 121.85 332.65 121.5L394.67 107.21C397.5 106.55 400.48 107.41 402.53 109.46C404.58 111.52 405.43 114.49 404.79 117.33ZM396.56 115.43L334.54 129.72L117.27 346.98L165.01 394.71L382.27 177.45L396.56 115.43Z" />
	<path id="Layer" class="shp5" d="M135.17 376.81C131.88 373.51 131.88 368.18 135.17 364.88L288.03 212.03C291.33 208.74 296.67 208.74 299.96 212.03C303.26 215.32 303.26 220.67 299.96 223.96L147.1 376.81C143.81 380.1 138.47 380.1 135.17 376.81Z" />
	<g id="Layer">
		<path id="Layer" class="shp6" d="M61.11 415.08L132.7 415.08L141.14 406.64C142.72 405.06 143.61 402.92 143.61 400.68C143.61 399.83 143.48 399 143.24 398.21L77.98 398.21L61.11 415.08Z" />
		<path id="Layer" class="shp6" d="M113.78 434L42.18 434L29.44 446.76C28.26 447.93 27.51 449.37 27.17 450.87L96.91 450.87L113.78 434Z" />
	</g>
	<g id="Layer">
		<path id="Layer" class="shp7" d="M200.8 418.58L93.41 311.19C90.11 307.89 84.77 307.89 81.48 311.19L63.58 329.08C60.28 332.38 60.28 337.72 63.58 341.01L170.97 448.4C172.55 449.98 174.7 450.87 176.93 450.87C179.18 450.87 181.32 449.98 182.9 448.4L200.8 430.51C204.09 427.22 204.09 421.87 200.8 418.58Z" />
		<path id="Layer" class="shp7" d="M67.5 478.24C67.5 469.23 63.99 460.75 57.61 454.37C44.45 441.21 23.05 441.21 9.88 454.37C3.51 460.75 0 469.23 0 478.24C0 487.25 3.51 495.73 9.88 502.1L9.88 502.1L9.88 502.1C16.26 508.48 24.73 511.99 33.75 511.99C42.76 511.99 51.24 508.48 57.61 502.1C63.99 495.73 67.5 487.25 67.5 478.24Z" />
	</g>
	<path id="Layer" class="shp8" d="M33.75 486.68C29.08 486.68 25.31 482.9 25.31 478.23C25.31 473.57 29.08 469.79 33.75 469.79C38.41 469.79 42.18 473.57 42.18 478.23C42.18 482.9 38.41 486.68 33.75 486.68Z" />
	<g id="Layer">
	</g>
	<g id="Layer">
	</g>
	<g id="Layer">
	</g>
	<g id="Layer">
	</g>
	<g id="Layer">
	</g>
	<g id="Layer">
	</g>
	<g id="Layer">
	</g>
	<g id="Layer">
	</g>
	<g id="Layer">
	</g>
	<g id="Layer">
	</g>
	<g id="Layer">
	</g>
	<g id="Layer">
	</g>
	<g id="Layer">
	</g>
	<g id="Layer">
	</g>
	<g id="Layer">
	</g>
</svg>