<svg height="512pt" viewBox="-84 0 512 512.001" width="512pt" xmlns="http://www.w3.org/2000/svg"><path d="m307.328125 354.332031 11.652344 15.804688c4.363281 5.921875 3.398437 14.210937-2.207031 18.972656-5.390626 4.582031-13.355469 4.417969-18.554688-.382813l-19.972656-18.503906s10.257812-13.492187 29.082031-15.890625zm0 0" fill="#56514f"/><path d="m233.492188 412.230469 98.632812-77.339844c4.917969-3.859375 5.875-10.9375 2.152344-15.960937-3.511719-4.738282-10.027344-6.070313-15.117188-3.085938l-89.5 52.464844s-13.703125 26.386718 3.832032 43.921875zm0 0" fill="#776d68"/><path d="m68.476562 343.179688-42.011718 21.078124c-6.226563 3.101563-13.789063 1.160157-17.746094-4.558593l-.035156-.050781c-3.992188-5.765626-3.097656-13.597657 2.089844-18.320313l25.042968-22.773437s17.078125 2.992187 32.660156 24.625zm0 0" fill="#56514f"/><g fill="#776d68"><path d="m125.921875 342.542969-98.539063-79.457031c-6.691406-5.398438-16.375-4.878907-22.453124 1.199218-6.601563 6.601563-6.566407 17.3125.078124 23.871094l115.699219 114.160156 5.136719 4.734375s14.128906-21.234375.078125-64.507812zm0 0"/><path d="m136.929688 216.3125-67.003907-39.183594c-3.65625-2.136718-5.632812-6.296875-4.980469-10.480468l5.710938-36.539063c1.765625-11.296875-7.710938-21.171875-19.074219-19.875-7.914062.90625-14.1875 7.089844-15.207031 14.992187l-6.117188 47.507813c-1.5 11.664063 3.75 23.171875 13.546876 29.683594l101.546874 67.488281s12.515626-25.285156-8.421874-53.59375zm0 0"/><path d="m213.640625 184.601562 63.148437-36.800781c4.601563-2.683593 8.429688-6.503906 11.117188-11.101562l18.996094-32.476563c4.761718-8.144531 1.566406-18.617187-6.929688-22.714844-7.4375-3.585937-16.382812-.988281-20.742187 6.019532l-16.511719 26.550781c-1.371094 2.207031-3.277344 4.03125-5.539062 5.304687l-46.921876 26.421876s-16.410156 22.769531 3.382813 38.796874zm0 0"/><path d="m220.964844 268.601562 73.511718-41.75c3.777344-2.144531 6.78125-5.433593 8.582032-9.386718l8.449218-18.59375c3.9375-8.660156 14.097657-12.558594 22.816407-8.757813 9.003906 3.921875 12.984375 14.507813 8.796875 23.394531l-12.460938 26.445313c-2.457031 5.214844-6.324218 9.636719-11.164062 12.769531l-103.835938 67.148438c.003906 0-3.8125-29.394532 5.304688-51.269532zm0 0"/></g><path d="m211.109375 76.4375 45.996094-68.320312c2.304687-3.421876-.148438-8.117188-4.273438-8.117188h-25.789062c-2.988281 0-5.828125 1.382812-7.785157 3.636719l-57.78125 66.675781c-8.539062 9.847656-13.75 22.164062-14.882812 35.148438l-29.160156 334.425781 61.484375 27.300781 56.984375-27.300781-29.957032-343.488281c-.613281-7.046876 1.210938-14.09375 5.164063-19.960938zm0 0" fill="#a89f9a"/><path d="m211.109375 76.4375c-3.957031 5.863281-5.78125 12.910156-5.160156 19.957031l29.957031 343.492188h-30.90625l-29.957031-343.492188c-.617188-7.046875 1.203125-14.09375 5.160156-19.957031l45.996094-68.320312c1.875-2.769532.609375-6.386719-2.132813-7.652344.960938-.300782 1.960938-.464844 2.980469-.464844h25.785156c4.128907 0 6.582031 4.699219 4.273438 8.117188zm0 0" fill="#8e8178"/><path d="m129.644531 299.828125 27.546875 14.949219c4.371094 2.371094 7.332032 6.703125 7.960938 11.636718l14.398437 113.472657h-62.117187zm0 0" fill="#8e8178"/><path d="m273.867188 486.246094v-36.058594c0-5.6875-4.613282-10.300781-10.300782-10.300781h-182.34375c-5.6875 0-10.300781 4.613281-10.300781 10.300781v36.058594zm0 0" fill="#96bc5e"/><path d="m273.867188 450.1875v36.058594h-30.90625v-36.058594c0-5.683594-4.613282-10.300781-10.300782-10.300781h30.90625c5.6875 0 10.300782 4.617187 10.300782 10.300781zm0 0" fill="#85993d"/><path d="m60.3125 465.640625c-9.886719 0-17.230469 9.15625-15.085938 18.804687l3.433594 15.453126c1.570313 7.070312 7.839844 12.101562 15.085938 12.101562h217.300781c7.242187 0 13.511719-5.027344 15.082031-12.101562l3.4375-15.453126c2.144532-9.648437-5.199218-18.804687-15.085937-18.804687zm0 0" fill="#9e7f56"/><path d="m299.558594 484.441406-3.429688 15.453125c-1.566406 7.078125-7.839844 12.105469-15.082031 12.105469h-30.90625c7.242187 0 13.515625-5.027344 15.082031-12.105469l3.03125-13.648437.402344-1.804688c2.152344-9.640625-5.195312-18.800781-15.082031-18.800781h30.902343c9.890626 0 17.238282 9.160156 15.082032 18.800781zm0 0" fill="#87613c"/></svg>