<?xml version="1.0" encoding="utf-8"?>
<!-- Generator: Adobe Illustrator 26.0.1, SVG Export Plug-In . SVG Version: 6.00 Build 0)  -->
<svg version="1.1" id="Layer_1" xmlns="http://www.w3.org/2000/svg" xmlns:xlink="http://www.w3.org/1999/xlink" x="0px" y="0px"
	 viewBox="0 0 2860 2860" style="enable-background:new 0 0 2860 2860;" xml:space="preserve">
<style type="text/css">
	.st0{fill:#C0C3D0;}
	.st1{fill:#9498A2;}
	.st2{fill:#DED2BD;}
	.st3{fill:#9D9683;}
	.st4{fill:#F5ECDD;}
	.st5{fill:#504D3C;}
	.st6{fill:#39372E;}
	.st7{fill:#3B3930;}
	.st8{fill:#86816B;}
	.st9{fill:#B0AA8E;}
	.st10{fill:#B0AA8F;}
</style>
<g>
	<path class="st0" d="M1318.3,2119.9c22.6,0,37.8-0.3,53,0c97.4,2.1,194.9,0.1,292.4,0.9c22.6,0.2,45.1,2.1,67.5,4.7
		c13.7,1.6,27.5,2,41.2,3.4c18.1,1.7,36.2,4,54.4,5.7c19,1.8,37.9,4.1,56.6,8.2c27.7,6.1,54.5,14.7,80.3,26.5
		c30.8,14,58.7,32.6,84.3,54.6c38.4,32.9,71.4,70.5,97.1,114.3c13.3,22.7,23.5,46.7,27.2,72.9c4.9,34.4-3.2,65.7-24.2,93.5
		c-12,15.9-26.2,29.8-43.2,40.3c-13.1,8.1-23.8,19.1-36,28.3c-17.9,13.4-37.2,24.5-56.3,35.9c-22.2,13.3-45.3,24.7-68.6,35.8
		c-37.1,17.7-75,33.4-113.5,47.9c-31.3,11.9-62.7,23.1-94.5,33.5c-51.6,16.9-103.8,32.1-156.6,44.9c-32.4,7.9-65,14.8-97.7,21.2
		c-3.7,0.7-7.6,1-11.4,1.2c-14.1,0.5-28.3,0.4-42.4,1.2c-20.5,1.2-40.9,0.7-61.4,0.9c-25,0.3-49.7-2.4-74.4-5.8
		c-23.3-3.2-46.6-6.9-69.7-11.4c-35.2-6.8-69.9-16-104.4-25.6c-28.6-8-57.2-16.1-86.2-22.6c-13.6-3.1-26.3-9.3-39.3-14.3
		c-36-13.9-71.7-28.4-107.1-43.7c-20.6-8.9-41.1-18.1-61.4-27.7c-24.3-11.4-48.3-23.2-72-35.8c-35.6-18.9-70.4-39.2-102.6-63.5
		c-24.8-18.7-47.7-39.4-64.5-65.9c-14.8-23.3-21.6-48.6-18.9-76c2.7-27.6,14.6-51.5,31-73.5c22.2-29.7,51.1-51.6,82.5-70.6
		c41.8-25.2,86.6-43.9,132.4-60.2c36.9-13.2,74.1-25.6,112.3-34.7c22.1-5.2,44.5-8.9,66.9-12.9c12.1-2.1,23.8-6.2,35.7-9
		c19.5-4.6,39.4-7.4,59.3-9.9c24.4-3.1,48.8-5.4,73.3-7.1c17.1-1.2,34.1-2.3,51.2-3c19.6-0.9,39.2-1.2,58.8-2.1
		C1288.2,2119.6,1307,2120.4,1318.3,2119.9z"/>
	<path class="st1" d="M1427.3,2656.8c-34.5-0.8-64.6-4.4-94.8-8.6c-39.1-5.4-74.8-20.4-110.4-36.6c-52.1-23.8-100.9-53.5-150.6-81.6
		c-45.4-25.7-89.7-53-133.7-81c-8.6-5.5-14.1-14.1-20.7-21.4c-6.1-6.8-11.9-13.9-18.1-20.6c-1.9-2-2.4-3.8-1.2-6.2
		c0.1-0.3,0.3-0.6,0.4-0.9c2.4-9.7,7.8-14.9,18-18.3c28-9.4,53.1-24.4,76.3-42.7c1.2-0.9,2-2,3.9-1.5c7.2,2.1,14.3,4.3,21,7.8
		c2.6,1.4,3,3,1.2,5.1c-2.9,3.4-5.6,7.2-9.1,10c-8.2,6.5-14.2,15.6-23.6,20.7c-2.1,1.1-1.4,2.5-0.1,3.5c1.6,1.2,3.3,2.2,5.1,3.1
		c57,27.1,114.4,53.3,172.1,78.8c15.2,6.7,30.5,13.5,45.2,21.2c12.7,6.6,26.2,9.5,40.1,11.2c23,2.8,46.1,4.6,69.2,4
		c41.8-1.1,83.2-5.8,124.4-13.3c70.9-12.9,139.8-33,208-55.9c34.1-11.4,68.3-22.4,103.7-29c17.2-3.2,34.5-5.7,52-5.5
		c2.5,0,5,0.2,7.4,0.6c2.7,0.5,4.7-0.2,6.7-2.2c5.2-5.3,11.9-7,19.1-8.8c7.9-2,12.8,0.2,18.3,5.4c4.9,4.6,11.5,6.6,18.1,8
		c3.2,0.7,5.3,2.3,6.9,5.1c4.7,8.4,6.3,17.4,5.3,27c-0.3,2.5-1.6,4.2-3.7,5.6c-12.6,8.4-25.1,16.9-37.9,25.1
		c-4.3,2.8-9.3,4.5-13.8,6.9c-20.2,10.3-40.2,20.9-60.5,31c-30.7,15.2-61.8,29.8-92.5,45.1c-48.3,23.9-97.1,47-144.3,73.3
		c-22.7,12.7-47.3,20.3-71,30.6c-2.3,1-4.7,1.6-7.2,2C1445.5,2655.3,1434.6,2657.5,1427.3,2656.8z M1379.1,2553.9
		c5,2,8.8,1.7,12.6,1.8c27.1,0.2,54.2-1.3,81.3-2.7c23-1.2,45-6.4,66.7-13.7c28.7-9.8,56.5-21.7,84.4-33.4
		c12.3-5.2,24.5-10.7,36.7-16C1569,2518.5,1476.4,2543.7,1379.1,2553.9z"/>
	<path class="st2" d="M1825.5,1727.9c0,7,0,14,0,21c0,3.4-0.3,6.6-1.4,9.8c-1.9,5.5,0.1,11,5,14.1c5.6,3.6,9.3,9.1,13.5,13.9
		c16.5,18.7,32.5,38,51.3,54.4c8.4,7.3,8,16.1,9.4,24.9c0.6,4-3.1,6.3-6.4,7.4c-10,3.3-17.7,10.5-27,14.9c-3.8,1.8-5.7,4.8-4.5,10.1
		c3.6,15.9,0.1,31-9.1,44.1c-9.8,14-20.7,27.3-35.5,36.6c-7,4.4-14.4,7.5-22.2,10c-3.6,1.1-5.4,2.7-2.8,6.3c1.2,1.7,1.1,3.5,0.6,5.3
		c-2.6,8.9-3.1,18-2.8,27.1c0.3,8.3-1.4,16.6-0.8,24.9c1.5,19.5,0.3,38.9,0.8,58.4c0.3,9.8,0.9,19.6,0.8,29.4
		c-0.1,14.9-0.6,29.7-0.9,44.6c0,2.3-0.8,4.1-2,6c-2.8,4.9-5.6,9.8-8.2,14.8c-1.7,3.4,0.8,7.8,5.8,9.3c6.3,2,12.8,4.5,19.3,4.9
		c9.6,0.6,14.9,6.7,19.9,13.3c6,7.9,9.2,17.2,11.6,26.8c0.8,3.1-0.1,6.1-0.7,8.8c-1.2,5.7,0,11.2,0.2,16.8c0.1,3,1.7,4.3,4.7,4.8
		c5.6,0.8,11.1,2,16.6,3c2.4,0.4,2.8,2,2.7,4c-0.4,9.5-0.2,19-1.3,28.4c-1,8.6-1.1,17.2-1.5,25.8c-0.7,15.3-0.2,30.7-0.3,46
		c-0.1,7.6-0.6,15.3-0.8,22.9c-0.1,2.3-1.2,3.7-2.8,5c-6.8,5.4-14.3,9.7-22.2,13.3c-28,12.9-55.2,27.3-82.9,40.9
		c-31.2,15.4-62.2,31.1-93.9,45.3c-32.3,14.5-65,28.1-97.9,41.3c-21.1,8.5-42.3,17-63.4,25.5c-6.2,2.5-10.9,7.6-17.6,9.2
		c-2.4,0.6-4.8,1.3-7.3,1.3c-20.6-0.4-41.3-0.4-61.9-1.2c-19.8-0.8-39.5-1.3-59.3-2.1c-14.7-0.6-29.3-0.5-43.9-0.5
		c-5.2,0-9.2-2.8-13.5-4.7c-35.6-15.4-71.1-30.9-106.4-46.7c-14.7-6.6-28.9-14.5-43.8-20.6c-15-6.1-29.2-13.7-43.7-20.7
		c-17.6-8.4-35.3-16.3-53.2-24.1c-11.8-5.1-22.1-13-32.9-19.7c-23.6-14.7-47.4-29-72.1-41.7c-2.4-1.2-4.5-3.1-7-3.8
		c-7.1-2-8.1-7.3-8.1-13.4c0-10.2-0.1-20.3,0-30.5c0.3-24.1-1.9-48.1-3.1-72.2c-0.2-4.8,0.6-7.2,6.2-7.5c4.5-0.2,9-2.1,13.6-2.6
		c2.8-0.3,4.1-1.9,4.2-4.6c0.2-5.6,1.6-11.1,0.1-16.8c-1.8-6.9,0.4-13.4,2.8-19.8c3.7-10,9-18.9,17.5-25.5c2.4-1.9,5.1-2.9,8.2-3.2
		c7.6-0.9,15-3,22.2-5.4c5.7-1.9,6.6-6,4.2-11.3c-2.3-4.8-4.9-9.4-7.7-13.9c-0.9-1.4-1.1-3.1-1.2-4.8c-0.3-15-1.2-30.1-0.8-45.1
		c0.8-26.6,0.2-53.3,1.1-79.9c0.5-14.3-0.9-28.5-0.4-42.8c0.2-4.6-1-9.2-1.9-13.7c-0.6-3.3-1.6-6.2,0.5-9.5c1.8-2.7-0.4-4-3-4.8
		c-10.4-3.3-20.6-7.3-28.8-14.5c-16.6-14.5-32.4-29.8-38.1-52.3c-2-7.8-2.9-15.9-0.5-23.6c1.6-5.3-0.3-8.7-4.3-10.7
		c-8.2-3.9-15-9.9-23.3-13.5c-10.3-4.5-10.3-4.6-9.3-15.7c0.6-6.6,2.2-12.1,7.9-17.3c18.8-16.9,35.2-36.2,52-55.2
		c4.8-5.4,9.1-11.3,15.5-15.4c4.3-2.7,4.4-8,3-12.6c-1-3.3-1.4-6.5-1.4-9.8c0-15.2,0.1-30.3-0.1-45.5c0-3.9,1-5.4,5.3-5.8
		c18.4-1.5,36.4-5.5,54.2-10c16.1-4,32.7-5.4,49-7.9c18-2.7,36.1-5.2,54.1-7.7c15.3-2.1,30.5-4.1,45.8-6.3
		c19.2-2.8,38.4-5.6,57.5-8.5c18.7-2.8,37.3-5.7,56-8.5c14.2-2.2,28.5-4.4,42.8-6.3c14.3-2,28.6-3.8,42.9-5.6
		c7.1-0.9,14.1-1.9,21.2-2.7c8-0.9,15.8,1.2,23.7,2.1c14.8,1.7,29.6,3.6,44.3,5.7c14.4,2,28.8,4.3,43.3,6.4
		c18.7,2.8,37.3,5.7,56,8.5c14.2,2.2,28.5,4.3,42.8,6.4c15.4,2.2,30.8,4.4,46.2,6.6c17.4,2.4,34.8,4.8,52.2,7.3
		c15.4,2.2,30.8,4.7,46.2,6.5c15.5,1.9,30.5,6.4,45.8,9.5c10.3,2.1,20.6,3.6,31,4.6c3.7,0.3,4.9,1.6,4.8,5.2
		C1825.4,1711.2,1825.5,1719.5,1825.5,1727.9C1825.5,1727.9,1825.5,1727.9,1825.5,1727.9z"/>
	<path class="st3" d="M1300.8,1991.5c-1.8-7.1-7.6-9.3-13.7-10.7c-10.7-2.4-21.4-4.5-32-7.4c-33-9-65.4-20.6-99-27.2
		c-77.2-15.1-152.7-37.6-229.4-54.5c-8.1-1.8-15.3-5.4-21.9-10.3c-4.5-3.2-9.2-5.9-14.4-7.8c-6.4-2.4-7.9-5.1-6.8-11.8
		c0.6-4.1,1.2-8.2,1.9-12.3c0.4-2.5,1.3-3.4,4.1-2.1c29.2,14.2,60.4,22.4,91.8,30.3c63.1,15.8,126.1,32,189.5,46.4
		c35.8,8.1,71.8,15.7,107.8,23.3c4.4,0.9,8.9,0.8,13.4,1.3c2.1,0.2,2.7-0.5,3-2.7c2.3-18.6,6.6-37,9.3-55.5
		c1.8-12.1,2.5-24.4,4.5-36.6c1.2-7.5-2.5-10.5-9.8-12.2c-11.8-2.8-23.4-6.4-35-9.8c-32.1-9.3-65.1-15.2-97.6-22.9
		c-51.3-12.1-103-22.6-153.9-36.1c-15.8-4.2-31.4-8.6-46.7-14.5c-3.3-1.2-4.7-2.8-4.7-6.5c0.1-15,0-30,0-45c0-4.5,1.5-5.7,5.2-4.5
		c26,8.5,52.7,14.1,79.4,19.5c70.4,14.1,141.2,26.9,211,44.2c28.6,7.1,57.7,11.8,86.7,16.4c7.6,1.2,15.6,0.5,23.4,0.1
		c27.1-1.5,54.2-3.3,81.4-2.5c22.8,0.7,44.8-1.9,66.8-8.1c42.6-11.9,86.1-20.1,129.2-30.1c58.5-13.6,116.9-27.3,175.6-39.9
		c5.9-1.3,5.9-1.3,5.9,4.7c0,13.5,0,27-0.1,40.5c0,4.2-0.1,8.2-1.5,12.3c-1.7,4.6,1,10.2,5,13.2c8.3,6.1,13.9,14.7,20.8,22.1
		c8,8.5,15.7,17.3,23.5,25.9c4,4.5,4.1,4.5-1.9,6.6c-29.9,10.2-59.9,20.4-89.9,30.4c-67.4,22.4-135.6,42.6-203.3,64
		c-17,5.4-33.9,11.1-49.8,19.1c-2.7,1.3-5.3,2.8-7.5,4.9c-4.1,4.1-1.9,8.2-0.1,12.3c1.5,3.6,4.3,2,6.8,1.9
		c33.5-2.2,65.4-11.9,97.4-20.9c61.5-17.2,122.3-36.8,183-56.9c9.3-3.1,18.9-5.2,28.6-6.9c19.8-3.5,37.6-12.1,55.3-21
		c9.5-4.7,9.5-4.7,10.9,6c1.2,9.2,0.2,10.9-8.8,14.4c-9.2,3.6-16.6,10.3-25.4,14.7c-3.2,1.6-4.1,4.2-3,8.3
		c3.4,13.1,1.5,26.2-5.1,37.7c-11.5,20-26,37.5-47.3,48c-4.9,2.4-10.1,4.3-15.3,6c-2.9,1-4.2,2.4-2.4,5c2,2.9,1.3,5.5,0.5,8.5
		c-1.6,6-2.1,12.1-2.2,18.3c-0.6,32.6-0.4,65.3,0.4,97.9c0.3,13,0.5,26,0.2,39c-0.2,7.4,0.2,14.8-0.3,22.2
		c-0.4,5.7-1.6,10.6-4.9,15.3c-2,2.8-3.7,5.9-4.8,9.2c-1.4,3.8-4.1,5.2-7.5,6.4c-48,17.1-94.6,37.8-142,56.4
		c-37.2,14.6-74.5,28.7-111.7,43.3c-10.5,4.1-21,8.4-30.5,14.8c-1.5,1-3.1,2-4.4,3.3c-2,2-3.1,4.5-1.9,7.3c1.2,2.8,3.4,4.5,6.6,4.6
		c3.3,0.1,6.2-1,9.2-2.1c41.7-15.9,82.4-34.1,123.2-52.3c51.8-23.1,103.6-46.4,155.4-69.6c3.6-1.6,6.9-2.1,10.9-0.9
		c7.1,2.2,14.3,4.3,21.8,5.1c4.5,0.5,7.8,3.8,10.7,6.9c8,8.6,12.6,19.1,15.6,30.3c1.1,4.3-0.1,8.6-0.3,12.9
		c-0.1,2.5-0.9,5.2-0.3,7.4c1.6,5.6-1.1,7.8-5.8,9.9c-43.3,19.3-86.6,38.7-129.6,58.8c-48.6,22.7-96.6,46.5-144.7,70.1
		c-18.3,9-37.9,15.5-56.8,23.1c-9,3.6-17.3,8.6-25.7,13.4c-1.2,0.7-2.2,2.4-3.9,1c-1.7-1.4-0.8-3,0.1-4.5c1.3-2.1,1.2-4.4,1.2-6.8
		c-0.1-28.8-0.2-57.7-0.3-86.5c0-6.2-1.2-12.2-3-18.1c-0.9-3.1-3.2-3.1-5.5-3.1c-7.5-0.3-15-0.8-22.4-0.9
		c-29.8-0.5-59.5-2.9-89.3-4.2c-1.8-0.1-3.7,0-5.5-0.1c-4.4-0.3-5.7,1.6-6.4,6c-3.6,23-2.6,46.2-2.8,69.3c-0.1,13-1.2,25.8-2.7,38.7
		c-0.5,4.3-2.2,5.2-6.1,3c-7.5-4.2-15.2-7.7-20.5-15c-1.8-2.5-4.1-4.7-7.4-5.6c-52.4-15.5-101.8-38.3-151.8-59.9
		c-56.1-24.2-112.7-47.1-169.6-69.5c-9.8-3.8-19.6-7.6-28.8-12.6c-3.5-1.9-5.9-11.1-3.9-14.4c1-1.6,2.6-1.2,4.1-1.2
		c8.3,0.3,16,3.1,23.7,5.6c37.3,12,73.5,26.7,109.8,41.3c50.7,20.4,100.4,43,150.8,64c25.8,10.8,52.3,19.7,79,28.1
		c4.9,1.5,9.7,3.3,14.6,5c0.3,0.2,0.6,0.5,1,0.7c0.1-0.1,0.1-0.3,0.2-0.4c-0.4-0.1-0.8-0.2-1.2-0.3c-6-9.6-4-20.6-4.7-30.9
		c-0.9-14.1-2.5-28.2-0.3-42.4c0.6-3.7-1.1-6.8-2.7-9.9c-0.5-1-0.9-1.7-2.1-1.7c-11.3,0-20.6-6.3-30.6-10.2
		c-50.2-19.3-101.5-35.4-152.3-52.9c-15.9-5.5-31.7-11.1-47.5-17c-9.9-3.6-20.2-5.5-30.1-8.9c-13.5-4.7-27.2-9-40.3-14.6
		c-5.7-2.4-10.7-7.2-15-12.1c-2.3-2.7-0.3-6.3-2.4-9.7c-2.7-4.2-5.2-8.8-7.8-14.2c8.7,2.1,16.7,4.3,24.4,7.2
		c77.2,29.5,155.2,56.9,234.8,79.4c20.9,5.9,40.5,15.1,60.7,22.5c2.5,0.9,4.6,2.7,6.8,4.1c6.1,3.6,12.2,0.4,12-6.6
		c-0.2-8,1.3-16-0.9-23.9c-1.2-4.5-4.2-7.4-8.1-9.4c-1.3-0.7-2.8-1-3.1-2.8c-1.1-6.7-3.5-13.1-3.7-20.1c-0.7-28.8-0.9-57.6-2.4-86.4
		c-0.9-17.8-2.1-35.5-1.8-53.4c0-2.7-0.2-4.4-3.6-4.3c-3.8,0.1-6.7-2.7-10.1-4c-18.1-6.7-37-11.1-55.6-15.8
		c-72.5-18.5-144.9-37.2-217-57.2c-10.7-3-21.1-7-31.6-10.8c-5.4-1.9-6.8-12.1-2.3-15.6c1.5-1.2,3.2-0.2,4.8,0.2
		c44.1,9.2,87.7,20.3,131,33c57.7,17,116.2,31.6,174.3,47.3c3.2,0.9,7.3,3.3,9.3,2.2c2.2-1.3-0.5-5.7-0.1-8.8
		c1.3-11.5-0.4-22.9-0.1-34.4c0.1-5.1-1.1-10.2-1.9-15.3c-0.3-2.1-1.8-3.3-4.1-3.7c-19.6-3.3-39.3-6.3-58.9-10.1
		c-65.1-12.7-129.6-28-193.8-44.7c-41.2-10.7-82.1-22.4-122.2-37c-0.8-0.3-1.6-0.6-2.3-0.9c-9.4-4-9.3-4-8.8-14.4
		c0.2-3.2,1.2-3.8,4.3-3.3c14.2,2.2,28,5.8,41.7,9.8c77.2,22.1,155.1,41.6,233.3,59.8c32,7.5,64.3,13.9,96.6,19.8
		c1.6,0.3,3.3,0.3,5,0.4c0.3,0.1,0.5,0.2,0.8,0.2C1301,1992,1300.9,1991.8,1300.8,1991.5z M1498.6,1945.5c0.2-2.4-0.9-4.8-1.8-7.3
		c-1.5-4.2-3-8.5-4.3-12.8c-7.1-25.5-12.4-51.4-18-77.3c-0.7-3.4-1.6-5.4-6-5.2c-43,1.2-85.9,1.9-128.8-1c-4.7-0.3-8.1-0.8-11.8,5.2
		c-6.2,9.9-10.4,20-12.6,31.1c-4.6,23.7-8.6,47.4-12.9,71.1c-0.2,1.1,0.3,1.9,1,2.6c3.3,3.2,6.8,5.9,11.7,5.9c1.8,0,3.6,0,5.4,0.7
		c6.2,2.2,12.6,3.1,19.1,3.1c27,0.2,53.9-2.6,80.9-2c17.5,0.4,35-2.2,52.4,0c6,0.8,11.4,0.5,17-1.8
		C1495.5,1955.6,1498.6,1951.9,1498.6,1945.5z M1421.6,2254.5c15.8,0,31,0,46.1,0c2.5,0,3-1.3,3-3.4c0.2-7.8,0.6-15.6,0.7-23.4
		c0.8-77.4-0.4-154.9-0.8-232.3c0-0.4-0.3-0.8-0.8-2.1c-4.5,7.6-8,14.9-12.3,21.8c-19.1,30.1-25.2,64.1-26.8,99
		c-0.9,19.9-1.4,39.9-1.3,59.9c0.1,17.1,1,34.3-1,51.4C1427.4,2235.1,1427.7,2245.1,1421.6,2254.5z M1341.2,1979.2
		c2.9,1.5,6,2.7,8.8,4.4c12.8,7.8,19.2,20.5,24.7,33.6c15,36.1,20.8,74.1,21.9,112.9c0.8,26-0.3,51.9,0.9,77.9
		c0.5,9.4,2.7,18,5.8,26.6c0.4,1.1,0.6,2.7,2.5,2.7c1.1-3.2,2.9-6.1,4-9.5c2.9-9.5,3.2-19.4,3.6-29.1c1.5-36.1-0.4-72.2,3.2-108.2
		c1.4-13.7,2.5-27.4,5.5-40.9c3.6-16.2,12.3-30.1,20.4-44.3c1.9-3.3,3.4-7,6.2-9.6c6.6-6,11.2-13.9,20.3-19
		C1425.5,1978,1383.4,1979.7,1341.2,1979.2z M1339.4,1996.1c0.9,12.2,0.7,22.9,0.5,33.6c-1.2,55.8-0.7,111.6-0.1,167.4
		c0.2,13.9-0.3,28,3.8,41.6c0.9,3,1.5,6.2,1.7,9.3c0.2,2.7,1.2,3.6,3.9,3.9c8.8,0.7,17.5,1.9,26.3,2.5c6.8,0.5,13.7,0.8,21.3-0.1
		c-4.7-5.9-7.1-12-9.5-18.3c-7.2-19-8.3-39-8.7-58.9c-0.6-25.8-0.7-51.5-4-77.2c-3.7-29-11.2-57-22.6-83.9
		C1349.2,2009.2,1345.2,2003,1339.4,1996.1z M1465.4,2304.5C1465.4,2304.5,1465.5,2304.5,1465.4,2304.5c-0.5-9-1.2-17.9-1.6-26.9
		c-0.1-3-0.6-3.8-4-3.3c-17,2.5-34.2,2-51.3,0.7c-18.8-1.4-37.6-1.2-56.4-2.2c-1.4-0.1-3.5-0.5-3.1,1.9c1.3,9.8,0.2,19.6,1,29.4
		c0.3,3.7,1.9,5.2,5.5,5.3c11,0.4,21.9,1.6,32.9,1.3c17.3-0.4,34.5-2,51.9-0.4c7.2,0.6,14.6,0.9,21.9,1.3c3,0.2,3.9-0.9,3.5-3.7
		C1465.5,2306.8,1465.5,2305.6,1465.4,2304.5z M1729.5,2045.6c-0.1-3.5,0.1-6.5-0.7-9.4c-0.8-3-2.2-5.3-5.6-5.4
		c-3.2,0-4.8,2.4-5.4,5.1c-1,4.7-1.9,9.5-2.3,14.3c-2.7,33.3,0.9,66.5,2.1,99.7c0.2,6.9,0.6,6.8-6.3,9
		c-53,16.8-105.6,34.5-157.1,55.3c-8.3,3.4-16.6,7-24.2,11.7c-1.7,1-2.9,2.4-2.3,4.5c0.7,2.2,2.6,2.6,4.5,2.3
		c3.3-0.6,6.5-1.2,9.7-2.2c60.4-18.9,118.8-42.9,176.7-68.4c3-1.3,6.6-2.2,8.9-4.4c3-2.8-0.3-6.5-0.4-9.9
		c-0.2-10.2,1.1-20.2,1.3-30.4C1729,2093.3,1727.5,2069.2,1729.5,2045.6z M1415,1816.2c15.8,0,31.6,0,47.4,0c1.5,0,2.9,0.5,3.3-1.8
		c1.6-9.7-8.5-19-17.8-16.3c-1.8,0.5-3.6,0.7-5.4,0.6c-32.5-0.4-64.9,2.2-97.3,0.2c-1.3-0.1-2.7-0.4-3.8,0.6
		c-1.9,1.6-5.9,14.8-4.4,16.8c2.5,3.2,6.1,0,9.1,0.5c0.5,0.1,1,0,1.5,0C1370.1,1816.1,1392.6,1815.3,1415,1816.2z"/>
	<path class="st3" d="M1491,2594.5c0-15.8,0-31.2,0-46.5c0-6.5,0.3-13,0.5-19.5c0.2-5.7-0.1-11.3,0.8-16.9
		c1.2-7.4-0.9-14.5-2.2-21.7c-0.4-2-1.8-2.5-3.5-3.1c-12.8-4.6-25.3-4-36.6,3.8c-8.8,6.1-14.6,13.6-14.7,25.5
		c-0.2,21.3-1.6,42.5-7.7,63.2c-1.2,4.2-2.7,8.2-5.3,11.8c-5.8,8.1-15,9.2-22.5,2.6c-7.4-6.5-10.5-15.2-12.3-24.5
		c-3.8-19.7-8.1-39.4-11.5-59.2c-2.8-16.2-14.1-19.4-26.6-21.9c-6.7-1.3-13.5-1.5-20.3-2.3c-2.4-0.3-3.1,0.2-3.5,3
		c-4.5,34.5-2.9,69.1-2.2,103.7c0.1,6.5,0.2,6.5-6.2,6.6c-1,0-2-0.1-3,0c-3.7,0.6-4.8-1-4.8-4.7c-0.1-19-0.8-38-0.6-57
		c0.3-19.7-1.8-39.2-2.1-58.9c-0.1-4.1,0.4-6,5.5-6.1c10.7-0.2,21.4-2,32.2-2.2c15.7-0.4,30.4,3.8,42.8,13.8
		c7,5.6,7.5,14.1,8.5,22.2c2.3,18.5,4.6,36.9,7,55.4c0.4,3.3,1.4,6.5,2.2,9.7c0.8,2.9,2.8,4,5.7,3.6c3-0.4,3.8-2.3,4.3-5.1
		c1.5-8.7,1.3-17.4,0.8-26.2c-0.6-11.6,0.8-23.3,2.3-34.8c1.2-9.5,5.4-17.8,14.2-23.5c10.4-6.8,20.6-13.7,33.4-14.8
		c8.6-0.7,17.3-1.1,25.7,0.9c4.2,1,7.4,0.3,10.9-1.4c51-23.7,100.9-49.8,151.7-74c40.9-19.5,81.7-39,122.6-58.5
		c27.3-13,54.7-26.1,82-39.1c5.1-2.4,5.4-2.4,5,3.2c-3,39.5-2.9,79.2-3.7,118.8c0,1.7,0.1,3.7-1.6,4.5c-4.4,2-6.9,6.3-11.2,8.4
		c-52.7,26-105.4,52-158.2,77.8c-47.5,23.2-96.5,42.6-145.3,62.7C1526.1,2580.6,1508.8,2587.4,1491,2594.5z"/>
	<path class="st3" d="M1236.8,1730.2c3.5-1.4,7-2.8,10.4-4.3c5.8-2.6,11.5-5.3,16.7-9c12.7-9.2,12.6-21.7-1.3-29.8
		c8.9-1.5,16.9-2.9,24.9-4.2c2.5-0.4,4.9-0.7,7.4-1.2c6.5-1.3,10.1-5.9,9.1-11.6c-0.9-5.6-5.8-9-12.3-8.2
		c-6.6,0.9-13.1,2.1-19.7,3.2c-19.5,3.2-39,6.6-58.6,9.7c-6,0.9-10.8,4.2-15.9,6.9c-2.2,1.2-3.2,3.5-2.6,6c0.7,2.9,3.2,4,5.7,5
		c10.7,4.5,22.4,4.7,33.5,7.1c4.9,1,9.8,2,15.2,3.1c-3.1,3.2-6.7,4.4-10.1,5.8c-9.7,3.9-19.6,7.4-29.4,11.3
		c-2.9,1.1-5.8,2.5-8.5,4.2c-3.1,1.9-5.9,4.5-5.8,8.2c0.2,5.6-2.6,4.5-6.2,3.9c-20.9-3.9-37.5-15.4-53.5-28.6
		c-7.9-6.5-15.1-14.1-24.9-18.2c-1.7-0.7-3.1-2.5-4.4-4c-2.1-2.7-4.1-5.9-2.8-9.1c1.1-2.6,4.7-1.8,7.2-2.2
		c43.3-6.4,86.6-12.6,129.8-18.9c40.5-5.9,80.8-12.8,121.5-17.4c9.2-1,18.4-2.7,27.7-3.6c7.8-0.8,15.6,1.2,23.3,2.1
		c23.8,3,47.5,6.2,71.2,9.6c27.3,4,54.6,8.4,81.9,12.5c28.8,4.3,57.6,8.4,86.4,12.5c31.1,4.4,62.2,8.7,93.8,13.2
		c-2.9,4.4-6.8,6.8-10.9,8.7c-12.3,5.8-25.4,9.2-38.9,10c-23.3,1.3-46.6,1.9-69.8,4.3c-25.1,2.6-50.2,5.3-75,10.3
		c-9.3,1.9-18.9,1.3-28.3,2.9c-13.2,2.2-25.9,5.9-38.9,8.6c-22.5,4.7-45.4,6.8-68.3,8.9c-24.2,2.2-48.5,3.2-72.9,2.8
		c-13-0.2-26-1.2-39-0.7c-3.8,0.1-6.6-2.8-10.4-3.1c-13.6-1.1-27.2-2.5-40.7-3.7c-5.4-0.5-10.9-0.9-16.3-1.4
		C1237,1731,1236.9,1730.6,1236.8,1730.2z"/>
	<path class="st3" d="M1012.6,2163.2c-0.7-17.4-1.3-34.7-2.1-51.9c-0.9-19.8-1.1-39.6,1-59.4c0.3-2.6,0.3-5.4,3-7
		c1.2-0.7,0.7-1.6,0.6-2.6c-0.4-5.5,2.1-8.4,7.6-8.8c5.6-0.4,10.9,1.1,16.1,2.8c32.4,10.7,64.6,21.6,97,32.2
		c43.9,14.4,88.7,25.5,133.2,38.1c8.3,2.3,16.4,4.8,24.1,8.9c3,1.6,3.8,4.5,4.5,7.4c2.5,10.7,2.1,21.5,1.7,32.3
		c-0.4,12.1-1.3,24.2-1.5,36.4c-0.2,15.3-1.3,30.6-3,45.8c-0.2,1.6,1.3,5-1.8,4.5c-2.9-0.4-6.9-0.1-7.6-4.9
		c-0.7-5.6-1.7-11.2-1.8-16.8c-0.3-11.6,1-23.3-0.8-34.9c-2.4-14.7-1.7-29.6-0.5-44.3c1.1-12.5,1.4-11.9-10.6-15.6
		c-59.2-18.4-119.5-33.1-177.6-54.9c-20.2-7.6-40.5-14.1-61.5-18.3c-1.9-0.4-4-0.4-5.9-0.5c-1-0.1-2,0.1-3,0
		c-1.5-0.3-1.8-3.8-3.6-2.2c-1.5,1.3,0,3.8,0.3,5.7c2.9,19.5,3.5,39.1,3.3,58.8c-0.1,14.3-0.1,28.6,0,43c0,3.4-0.4,5.3-4.5,4.8
		C1017.2,2161.5,1015.1,2162.6,1012.6,2163.2z"/>
	<path class="st4" d="M884.7,1848.7c6.1-5.9,12.1-11.8,18.2-17.7c1.5-1.5,3.1-1.2,5.1-0.8c22.9,4.3,45.6,10,68.3,15.2
		c48.4,11.1,96.9,22,145,34.5c35.9,9.3,71.6,19.5,107.4,29.3c16,4.4,32.3,7.1,48.7,9.5c5.4,0.8,10.5,2.6,15.4,5.3
		c3.4,1.9,4.8,4.5,3.7,7.7c-1.6,4.8-1.5,9.8-2.8,14.6c-0.9,3.6-3,5.1-6.7,5.3c-6.7,0.3-13.3-0.3-19.8-1.2
		c-30.4-4-60.1-11.5-89.7-19.2c-34.6-9-69-18.8-103.8-27.1c-46-11-92.2-21.7-138-33.6c-13.6-3.5-27.3-7.2-40.3-12.6
		c-4.1-1.7-7.2-4.6-10.6-7.3C884.7,1850.1,884.7,1849.4,884.7,1848.7z"/>
	<path class="st4" d="M1386.6,2473.6c-0.6-3.1-3.1-1.9-4.9-1.9c-20-0.1-39.9,0-59.9-0.1c-2.2,0-4.9,1-6-2.1
		c-0.9-2.6,0.8-4.3,2.4-6.1c6.1-6.8,12.6-13.3,16.2-21.8c0.7-1.6,1.4-1.8,3-1.6c16.3,2.4,32.7,2.8,49.1,2.7
		c26.6-0.2,53.3,0,79.9-0.1c4,0,7,0.8,9.2,4.5c2.9,4.7,7.1,8.3,11,12.1c1.6,1.5,2.9,3.2,3.8,5.2c2.8,6,1.5,8.2-4.9,8.2
		c-28.5,0-56.9,0-85.4,0c-1.9,0-4-0.8-5.7,1C1391.9,2473.6,1389.2,2473.6,1386.6,2473.6z"/>
	<path class="st4" d="M1825.3,1705.7c1.2,4.8-1.2,6.6-5.5,8.6c-15.5,7.2-32.4,9.6-48.6,14.5c-22.7,6.9-45.4,13.7-68.5,19
		c-50.5,11.6-100.9,24-151.1,36.9c-20.2,5.2-40.5,10.3-60.3,16.9c-3.5,1.2-6.5,1.2-9.9-1c-5.6-3.6-11.4-6.8-17.3-9.9
		c-3.2-1.7-6.9-2.1-10.6-2.1c-21,0-42-0.2-63,0.1c-11.8,0.1-23.6-0.8-35.4-1c-7.8-0.2-15.8-0.2-22.2,5.1c-7.8,6.4-16.1,4.3-24.5,2.3
		c-21.2-5.2-42.3-11-63.7-15.7c-24.3-5.3-47.9-13.3-72.2-18.7c-37.6-8.4-75.3-16.6-113-25c-20.4-4.5-40.8-8.8-60.9-14.2
		c-10.1-2.7-20.3-4.4-30.3-7.4c-7.7-2.3-9.7-6.1-7.7-13.8c0.5-1.8,1.5-2.4,3.2-2.5c22.8-2.1,45-7.8,67.3-12.5
		c12.4-2.7,25.2-3.7,37.8-5.5c15.7-2.2,31.4-4.5,47.1-6.7c15.1-2.1,30.1-4.2,45.2-6.3c17-2.4,34-4.9,51-7.4
		c14.9-2.2,29.8-4.4,44.6-6.6c13.4-2,26.8-4.3,40.2-6.3c13.2-2,26.5-3.8,39.8-5.7c14.6-2,29.2-3.7,43.7-5.9
		c11.2-1.7,22.1-0.2,33.1,1.1c11.8,1.4,23.6,3.1,35.4,4.8c15.2,2.1,30.4,4.3,45.6,6.6c16.4,2.4,32.7,5,49,7.4
		c14.2,2.2,28.4,4.3,42.7,6.4c12.9,1.9,25.8,3.7,38.8,5.6c15.2,2.2,30.4,4.4,45.6,6.6c12.8,1.8,25.5,3.8,38.3,5.4
		c24.1,3,48.2,6.3,71.8,12.3c12.5,3.2,25.3,5.3,38.1,6.4C1825.4,1698,1826.2,1700.6,1825.3,1705.7z"/>
	<path class="st4" d="M1305.7,2471.6c-8,0.5-13-4.7-19.3-6.8c-6.5-2.1-12.9-4.5-19-7.5c-32.8-15.9-68.3-25.5-100.6-43.2
		c-31.3-17.1-65.7-28.2-97.1-45.5c-29-16-60.2-27.3-90-41.6c-16.1-7.7-31.9-15.9-47.8-23.9c-2.4-1.2-4.7-2.4-7.1-3.5
		c-1.5-0.7-2.3-1.9-2.1-3.6c0.3-1.8,1.6-2.2,3.2-2.5c5.7-0.9,11.4-2,17.1-3c1.4-0.3,2.9-1,3-2.3c0.7-4.7,3-3.2,5.9-2.1
		c16.4,6.1,32,13.9,47.8,21.2c20.7,9.5,42.2,16.9,63.1,25.8c21.4,9.1,42.6,18.7,64.6,26.3c33.6,11.7,65.6,27.2,98.5,40.6
		c18.6,7.6,37.3,14.9,56.1,22.1c12.2,4.7,24.9,8.2,37.4,12.3c7.1,2.4,7.4,4.3,2.9,10c-4.2,5.2-7.5,11-10.2,17.1
		c-0.4,0.9-0.5,1.9-0.5,2.9C1312.3,2471.1,1311.8,2471.6,1305.7,2471.6z"/>
	<path class="st4" d="M1325.6,2362c-11.1-5.6-21-9.2-31-12.9c-24.9-9.2-49.7-18.7-74.8-27.5c-37-12.9-74.3-24.9-111.3-38
		c-29.7-10.6-59.2-21.7-88.5-33.5c-15.5-6.3-30.3-14.5-45.3-21.9c-1.7-0.8-3.4-1.7-2.9-4c0.4-2,1.8-3,3.8-3.5
		c7.3-1.7,14.5-3.4,21.7-5.4c2.4-0.7,4.5-0.4,6.7,0.5c16,6.5,32.2,12.4,48.4,18.4c42.1,15.8,84.6,30.4,126.4,46.9
		c29.5,11.6,60,20.6,90.1,30.5c14,4.6,28,9.3,42.2,13.7c5.1,1.6,8.1,6.3,13.3,7.5c1.3,0.3,1.3,1.9,1.1,3
		C1324.2,2344,1322.2,2352.3,1325.6,2362z"/>
	<path class="st4" d="M1401.6,1962.7c-27.2,0-54.3-0.1-81.5,0.1c-3.9,0-7.6-0.5-11.4-1.2c-5.1-0.9-7.7-4.5-7.1-9.7
		c1.5-12.2,4.2-24.1,8-35.8c1.8-5.5,4.5-6.6,10.2-5.5c14.3,2.9,28.7,4.3,43.3,5.3c20.1,1.3,40.1,2.5,60.2,1.8
		c19.2-0.6,38.2-3.2,56.9-8c5.7-1.5,10,1.4,11.7,7c3.2,10,4.3,20.4,7.5,30.4c3.5,11.1-2.1,15.3-12.5,15.5
		C1458.5,1963.1,1430,1962.7,1401.6,1962.7C1401.6,1962.7,1401.6,1962.7,1401.6,1962.7z"/>
	<path class="st4" d="M1296.6,2257.1c0,7.5-4.8,10.4-11.8,7.7c-13.5-5.2-26.3-11.8-40-16.7c-20.2-7.2-40.5-13.8-61-20.2
		c-20.7-6.5-41.6-12.5-62.4-18.8c-20.2-6.1-40.3-12.2-60.4-18.6c-9.5-3-18.7-6.8-28.1-10.2c-4.1-1.5-8.2-2.6-12.6-2.7
		c-4.7-0.1-9.7-9.5-7.5-13.7c1.1-2.1,2.8-1,4.3-0.5c9.9,3.2,19.7,7.3,29.9,9.3c39.3,7.7,77.1,20.8,115.3,32.3
		c29.4,8.9,58.7,18,87.3,29.3c12.6,4.9,26.1,7.4,39.6,9.3c3.4,0.5,5.8,2,6.2,5.4C1295.8,2251.8,1297.1,2254.5,1296.6,2257.1z"/>
	<path class="st4" d="M1471.6,2345.5c0.1,5.7-0.9,6.4-6.8,5.4c-4.7-0.7-9.6-0.7-14.4-1.1c-16.7-1.4-33.4-1.9-50.1-3.3
		c-13.4-1.1-26.8-2-40.2-1.9c-5.5,0-11,0.3-16.3,1.6c-2.2,0.5-3.1-0.2-3.8-1.9c-2-5,3-12.2,8.2-11.5c13.9,2,27.9,0.6,41.9,0.8
		c14.5,0.2,28.9,1,43.4,1.4c9.9,0.2,19.9,0.7,29.7,1.7C1467.8,2337.1,1471.5,2341,1471.6,2345.5z"/>
	<path class="st3" d="M1746.1,1683.7c-16.1,21.6-37,34.5-63.2,37.6c-17.7,2.1-34.8,7.4-52.4,9.7c-14.5,1.9-29.1,3.1-43.7,3.6
		c-25.2,0.8-50.3-0.9-75.4-0.9c-33.5,0-66.8,2.8-99.9,7.6c-29.3,4.2-58.7,7.6-88.1,10.6c-24.8,2.5-49.7,4.5-74.7,4.5
		c-49.2,0-97.3-8.1-144.4-22.1c-23.7-7.1-47-15.5-69.8-25.2c-6.6-2.8-12.8-6.5-16.4-13.2c-3.3-6.1-2.8-7,3.8-8.6
		c17.8-4.4,36.1-5.7,54.2-8.4c25.2-3.7,50.4-7,75.6-10.6c30.4-4.4,60.9-8.9,91.3-13.4c25.3-3.8,50.6-7.9,76-11.5
		c22.2-3.1,44.5-5.4,66.7-8.7c12-1.8,23.5,1.3,35.1,2.6c21.3,2.4,42.5,5.5,63.7,8.6c27.1,4,54.2,8.4,81.4,12.4
		c29.3,4.3,58.6,8.5,87.9,12.6c24.9,3.5,49.7,7,74.6,10.5C1734,1682.1,1739.9,1682.9,1746.1,1683.7z"/>
</g>
<path class="st5" d="M1211,1731.1c-7,0-14,0-21,0c-24.9-0.5-49.3-4.7-73.8-8.6c-17-2.7-31.6-11.9-46-21c-6.7-4.3-13.2-9-20-13.3
	c-2.6-1.6-2.7-3-1.1-5.1c0.7-0.9,1.2-2,2-2.8c13.6-12.9,16.6-30.2,19.8-47.5c4.2-22.7,2.1-45.5,0.6-68.3c-1-15.8-1.8-31.6-3.3-47.4
	c-3-32.7,6.1-62.5,18.9-92.2c19.8-45.9,52-80.7,90.6-111c38.4-30.1,78.7-57.7,119-85.2c21.8-14.8,42.5-31,62.4-48.3
	c29.7-25.8,46.4-58,51.8-96.7c3.7-26.6,3.6-53.1,1.3-79.7c-1.7-18.8-5.3-37.1-9.8-55.4c-2.1-8.7-5.8-14.4-12.3-20.1
	c-30-26.4-38-64.9-22.4-103.4c7.4-18.2,18.5-34.2,28.1-51.2c2.6-4.6,5.1-9.4,7.7-14c1.1-2,1.1-3.7-0.8-5.2
	c-7.7-5.8-10.7-13.3-10.3-23.3c0.5-10.8-1-21.6-1.4-32.4c-0.1-2.5-0.6-3.3-3.3-3.4c-7.1-0.2-13.3-4-20-6c-8.4-2.6-16.2-1.3-22.8,3.7
	c-12.6,9.6-26.1,17.9-38.3,28c-10.4,8.6-22.3,15.2-31.5,25.3c-3.5,3.8-7.3,7.3-10.8,11.1c-5.9,6.5-12.3,12.1-21.1,14.5
	c-2.4,0.6-3.3,2.1-3.6,4.6c-1.8,17.1-4.4,34-11.6,49.9c-1.8,4,0.6,7.9-0.6,12.2c-5.2,18.4-8.4,37.3-14.3,55.6
	c-0.7,2-0.8,4.2-1.2,6.4c-0.7,3.8-3.6,5.5-6.9,6.4c-3.4,1-5.2-1.5-6.7-4c-3.3-5.5-3.3-11.8-4.3-17.8c-0.2-1.2-0.3-2.5-0.6-5
	c-8.2,17-20.6,30.7-18.2,50.6c1.6,13-0.1,26.3,1.1,39.4c0.1,1.5,1.2,3.9-1.1,4.2c-2.7,0.4-5.4,3-8.4,0.9
	c-12.1-8.5-19.2-20.4-23.5-34.3c-0.6-2.1-0.9-4.2-2.9-5.6c-5.4-3.9-9.2-9.1-11.7-15.3c-0.9-2.2-1.8-2.7-4.4-2.1
	c-9.4,2.2-18.4,5.5-27.2,9.4c-8.9,3.9-18.3,2.8-27.4,0c-11.1-3.5-21.4-8.6-29.6-17c-16.7-17.1-35.6-32.5-48-53.4
	c-7-11.8-15.2-19.9-28.2-25.7c-23.7-10.7-42.8-28.2-57.9-49.4c-9.6-13.6-13.7-29-13-45.8c1.2-30.2,10.3-58.1,23.8-84.9
	c2.3-4.5,5.2-8.5,8.2-12.5c37.1-48.6,79.3-92.6,121.1-136.9c1.1-1.2,2.2-2.5,3.6-4.1c-19.8-5.5-36.8-14.7-47.6-32.6
	c-6.4-10.6-7.7-22.1-6.5-34.2c2.2-22.6,21.1-46.5,40.8-51c-0.3,3-0.3,6-1,8.9c-4.7,19.2,3.3,31.1,22.9,33.8
	c13.3,1.9,25.9,0.1,38.3-5.9c43.3-21,77.3-52.2,103.7-91.9c8.9-13.3,15-28.2,21.5-42.8c1.6-3.5,2.8-7.2,4.9-10.4
	c12.7-18.7,19.3-40.1,27.1-60.9c4.3-11.4,9.6-22.3,14.1-33.6c4.3-10.9,10.5-20.3,17.1-29.7c8.7-12.3,18.5-23.2,31.7-31.2
	c19.3-11.6,39.1-22.1,61.3-25.7c14-2.3,28.5-1.6,42.6,1.8c3.3,0.8,6,2.6,8.2,5.3c3.4,4.1,6.6,8.5,10.6,11.9c9.2,7.6,12.7,18,15.1,29
	c3.8,17,11.1,32.3,20.5,46.8c2.6,4,6.5,7.1,9.5,10.9c4.5,5.6,4.3,8.4-0.6,13.9c-0.7,0.8-1.1,1.5-1.3,2.6
	c-2.3,13.3-5.2,26.4-2.9,40.1c1.2,7.3-1,12.9-8.2,17c-8.7,5-15.9,12.3-22.1,20c-3.7,4.6-3.4,11.4-3.4,17.3c-0.1,13,3.1,25,11.9,35.1
	c3,3.5,6.1,6.8,10.4,8.3c10.7,3.8,18.5,11.2,26.3,19c15.3,15.5,32.1,28.9,52.4,37.7c10.1,4.4,17.9,11.5,19.5,23.5
	c0.1,1,0.4,2,0.9,2.8c6.8,11.6,5.3,23.3,0.5,35c-2.9,7.1-5.8,14-10.5,20.2c-6,8-7,17.4-5.1,27.1c0.2,1.1,0.4,2.3,0.4,3.5
	c0,35.9,6.4,70.8,16.4,105.2c5.5,19,10.4,38.2,12.7,58c2.2,20,4.1,39.9,0.3,60.1c-2.2,11.6-1.4,23.4,6.2,33.8
	c10.4,14.1,12.3,31.4,17,47.6c3.9,13.1,7.1,26.4,12.7,38.8c14.4,32,31.1,62.7,56.9,87.3c15.8,15.1,28.2,32.8,40,51
	c19.4,29.9,39,59.6,55.7,91.2c19.4,36.7,31.3,75.8,36.9,116.9c6.6,48.3,9.8,96.8,8.1,145.5c-1,29.1-3.8,58.1-7.9,87
	c-4.6,31.8-10.1,63.4-19.5,94.2c-11.4,37.4-30.4,70.9-51.9,103.1c-9.3,14-18.7,27.9-28,42c-1.7,2.6-3.7,4.1-6.6,4.9
	c-24.3,7.4-49.2,11.5-74.6,12.3c-13.3,0.4-26.6,1.1-39.9,2.2c-23.9,1.9-47.5-0.8-71.2-3.7c-29.4-3.5-58.4-9.8-87.9-13.1
	c-18.7-2.1-37.6-3.6-56.3-1.1c-10.3,1.4-20.2,5.5-29.6,10.1c-17.5,8.7-34.1,19.4-53,25.5c-24.1,7.9-49,10.7-74.1,12
	C1214,1731,1212.5,1731.1,1211,1731.1z M1026.1,710.4c-0.6,8.5-1.5,16.9-1.7,25.4c-1,41.1,8,79.5,29.6,114.9
	c9.3,15.3,20.6,27.2,39.3,30.1c3.8,0.6,7.5,1.5,11.2,2.5c2.3,0.6,4.5,0.7,6.9,0c5.7-1.8,11.5-1.8,17.3-1.5c3.1,0.2,4.4-0.9,5.5-3.6
	c5.9-14.8,11.9-29.6,18.1-44.4c4.4-10.5,9.2-20.9,13.8-31.5c-2.9-1-5.4,0.2-7.9,1.1c-13.9,4.9-28.1,5.7-42.2,1.2
	c-29.9-9.6-52.5-28.8-70.6-54C1036.7,738.5,1030.8,724.9,1026.1,710.4z M1247.1,505.4c-10.5,8.6-20.3,17.7-31,25.4
	c-18.8,13.4-33.2,30.1-42.6,51c-1.2,2.6-2.7,5-4,7.5c-9.9,19.8-19.8,39.6-22.9,62c-3.5,25.6,12.1,49.3,36.6,55.6
	c3.1,0.8,5,0.7,5.2-3.2c0.4-6.5,1.2-12.9,1.7-19.4c1-14.1,2.1-28.2,4.4-42.2c4-24.3,13.7-46.4,26.3-67.4c3.9-6.5,8.8-12.8,10.3-20.4
	c3.2-15.9,7.5-31.4,15.7-45.5C1247.2,507.9,1247.9,507.1,1247.1,505.4z M1339.3,562.1c-0.8,3.2-4.8,4.4-5.6,7.7
	c-1.1,4.5-3.6,8.2-5.8,12.1c-17.2,30.4-35.2,60.4-51.2,91.6c-0.7,1.4-2.2,2.6-1.4,4.7c0.9-0.6,1.8-1.1,2.5-1.8
	c15.8-13.8,33.2-25.5,47.4-41.2c11.5-12.7,26.5-20,44-21c5.6-0.3,5.6-0.2,3.2-5.3C1364.5,591.3,1353.3,576,1339.3,562.1z"/>
<path class="st6" d="M1255,1726.9c-14.4-10.1-16.1-24.2-12.6-39.9c4-17.9,13.5-33.2,24.6-47.5c18.1-23.4,38.1-44.8,61.7-62.9
	c41.1-31.4,77.2-68.4,113-105.6c5.6-5.8,11.1-11.8,17.5-18.5c-4,15.3-6.5,29.9-11.6,43.5c-3.8,10.2-11.7,18.5-18.3,27.3
	c-12.3,16.5-25.2,32.7-36,50.3c-16.4,27-27.8,55.9-32.8,87.2c-1.1,6.8,0.1,13.3,2.7,19.5c1.3,3,1.1,5-2.5,5.9
	c-14.8,3.9-27.7,11.8-40.9,19.1c-18.6,10.3-38.4,17-59.3,20.6c-0.7,0.1-1.3,0.2-1.5,1C1257.7,1726.9,1256.3,1726.9,1255,1726.9z"/>
<path class="st6" d="M1375.2,614.1c-7.8-15.9-15.4-31.3-28.3-43.5c-4.2-3.9-7-8.3-5-15.3c2.7-9.3,6.6-17.3,12.8-24.8
	c10.3-12.6,17.1-27.1,20.3-43.4c1.6-7.9,1.2-15.8,2.1-23.6c0.8-7.6,3.5-14.9,5.5-22.3c0.3-1.2,1.5-1.1,2.4-1.5
	c7-2.9,13.9-5.2,21.8-3.7c3.3,0.6,5.5,1.7,8,4.1c5.4,5.4,9.4,12,14.5,17.6c26.7,29.2,59.2,46.4,99.7,45.3c5.3-0.1,10.5-1.5,16.1-2.3
	c-5.7,6.6-12.1,12.1-19.3,16.7c-12,7.7-24.3,15.1-37.3,21.2c-6.6,3.1-13.5,5.5-20.3,8c-1.8,0.6-2.7,0.8-2.2,3.1
	c2.5,13.4,1.5,26.7-1.1,40.1c-2.3,11.9-5.4,23.6-8.5,35.3c-0.9,3.5-1,6.6,0.6,10c7.8,17.3,8.8,35.7,7.4,54.3c-0.2,2,0.3,3,2,3.9
	c28.9,15.6,55.1,35.5,82.3,53.8c2.9,2,4.9,1.9,7.4-0.2c4.5-3.6,8.3-7.7,11.9-12.1c0.7-0.9,1.5-2.2,2.7-1.8c1.2,0.3,1.3,1.8,1.6,2.9
	c3.7,12.6-7.8,32.3-20.6,35.3c-14.7,3.4-34.2-4-42.8-16.5c-4.3-6.3-9.5-11.7-15.3-16.3c-4.5-3.5-10.5-3.9-15.9-5.2
	c-9.5-2.3-18.8-5.6-28.7-5.8c-7.7-0.2-15.2,1.9-22.9,1.4c-0.8-0.1-1.8,1.3-2.7,2c-4,3.6-7.9,7.2-11.9,10.7c-1.6,1.4-3.3,2.8-5.2,3.9
	c-3,1.7-6.4,3.7-9.8,2c-3.7-1.8-3.2-5.7-3.3-9.3c-0.5-13.3-1.2-26.6-1.9-39.9c-0.1-1.2,0.6-3-1.7-2.8c-7.7,0.5-14.1-3.6-20.9-5.8
	c-8.7-2.8-16.6-1.3-23.7,3.6c-12.5,8.8-24.9,17.8-36.9,27.2c-10.9,8.5-22.9,15.5-32.4,25.7c-5.8,6.2-11.9,12.1-17.8,18.2
	c-0.2,0.2-0.4,0.5-0.7,0.7c-3,2.8-7.2,6-10.3,4.7c-2.5-1.1-0.1-6.3,0.6-9.6c5.9-27.1,15.2-53,26.2-78.5c0.7-1.7,1.9-3,3.4-4.2
	c11.4-9.2,22.8-18.4,34.3-27.5c2.6-2.1,4.8-4.6,7-7.1c11.2-13.3,24.6-23.2,41.8-27.3C1364.6,614.5,1369.6,614.2,1375.2,614.1z"/>
<path class="st6" d="M1195.2,547.2c-11.4,12.6-18,27.6-25.7,41.8c-9.4,17.4-17.6,35.4-22,54.8c-6.6,30,6.9,54.1,35.7,63.1
	c4,1.3,4.4,4.1,4.6,7.3c0.6,10.4-1.2,20.6-3.1,30.7c-2.5,13.4-5.2,26.8-10.7,39.4c-2.2,5.2-5,10.2-7.4,15.4c-0.5,1-1.3,1.5-2.2,1.8
	c-23.3,8.3-45.9,7.4-67.8-5.1c-10.6-6.1-20.5-13.1-29.5-21.2c-1.8-1.6-3.4-3.3-3.6-5.8c-0.6-5.6-3.4-10.2-6-15.1
	c-15.5-30.3-14.6-60.9-1-91.5c11.3-25.4,29.7-45.3,51.1-62.5c16.1-12.9,32.9-25,49.4-37.4c3.3-2.5,6.9-4.7,10.9-6
	c7.5-2.4,14.7-5.3,21.7-8.7C1191.2,547.6,1192.9,546.7,1195.2,547.2z"/>
<path class="st7" d="M980,838.3c-10.7-2.9-19.7-8.2-28.6-13.8c-7.3-4.6-14.2-9.9-20.8-15.6c-1.8-1.5-2.8-3-2.7-5.5
	c1.6-38.2,13-72.5,40-100.6c0.3-0.3,0.8-0.5,1.7-1.2c-2.1,10-4,19.5-5.9,29c-3.5,17.4-2.3,34.6,1.6,51.9
	c3.5,15.7,5.8,31.7,12.8,46.5C979.4,831.7,980.1,834.6,980,838.3z"/>
<path class="st7" d="M1453.5,285.6c-8.1,7.2-6.9,16.4-7.4,25.2c-0.2,2.8-0.1,5.8,0.9,8.4c2.3,5.9-1.5,7.1-5.6,7.6
	c-20.2,2.4-34.7-3.6-40.6-24.5c-1.9-6.6-3.2-13.2-4.3-19.9c-0.7-4.6,1.1-6.2,5.5-5c13.9,3.8,27.9,7.7,42.6,6.6
	C1447.5,283.6,1450.3,284.4,1453.5,285.6z"/>
<path class="st8" d="M1372.9,1167.9c0.9,2.9-1,5.2-2.3,7.4c-9.1,14.8-19.6,28.5-32.4,40.4c-2.6,2.4-4.9,5-7.1,7.7
	c-12.9,15.8-29,27.7-46.5,38c-23.1,13.6-44.8,29.4-65.7,46.3c-16.2,13.2-27.5,30.3-38.1,47.8c-23.2,38.5-36.5,80.8-46.7,124.2
	c-2.8,11.9-5.3,23.9-7.9,35.9c2.5,0.5,2.7-1.4,3.3-2.6c21.8-45.1,55.1-80.6,93.3-112c31.7-26,64.5-50.6,94-79.1
	c16.8-16.3,32.2-33.7,45.2-53.2c22.8-34.3,33.2-72,31-113.1c-0.5-9.4,1.2-17.6,5.5-26.2c7.7-15.6,10.8-32.8,13.4-49.9
	c3-19.9,2.9-39.9,1.8-59.8c-0.7-12.7-1.4-25.5-4.1-39.1c5.5,4.1,8.2,8.9,10.2,14.2c9.3,24.2,18.8,48.4,27.8,72.8
	c11.4,30.8,25.6,60.4,37.7,90.9c9.5,23.9,16.5,48.6,19.2,74.2c2,19.1-0.6,37.8-6.1,56.2c-11.1,36.9-30.8,68.8-55.7,97.8
	c-28.8,33.5-61.9,62.4-95.4,91c-30.4,25.9-60.8,51.9-90.1,79.1c-43.6,40.5-72.2,89.7-87.3,147c-1.9,7.4-4.5,14.6-6.7,22
	c-0.7,2.5-2,3.6-4.7,3.2c-13.9-2.1-28-3.8-41.8-6.3c-17.2-3.1-32-11.9-46.4-21.1c-6.7-4.3-13.2-9.1-19.9-13.3
	c-2.3-1.5-2.5-2.7-1.1-4.7c0.8-1.1,1.4-2.3,2.3-3.2c13.1-12.4,16.1-29,19.3-45.5c4-20.6,2.9-41.4,1.4-62.2
	c-1.7-23.2-3.4-46.5-4.2-69.8c-0.9-25.3,6.5-48.6,16.8-71.2c7.1-15.6,14.7-31,23.4-45.8c10.5-17.6,25-32,39.9-45.8
	c36-33.4,76.6-60.9,116.7-88.9c26.3-18.4,53.7-35.4,78.3-56.2C1353.4,1186,1363.1,1176.9,1372.9,1167.9L1372.9,1167.9z"/>
<path class="st8" d="M1512.8,928.2c9.4,16.8,20.2,32.9,30.3,49.3c12.1,19.8,27.8,36.3,45,51.8c47,42.6,88.6,89.9,120.7,145
	c23,39.5,37.7,81.9,41.8,127.6c3.3,36.1-0.9,71.6-13.1,105.7c-6.6,18.4-9.9,37.7-17.5,55.7c-12.3,29.1-25.4,57.9-41,85.5
	c-8.4,14.8-18.6,28.5-30.7,40.6c-23,23.1-44.3,48.1-69.6,68.9c-13.5,11-25.8,23.5-41.3,32.2c-11.3,6.4-22.5,7-34.9,5.1
	c-26.1-4-52-9.5-78.3-11.8c-1-0.1-2.3,0.3-2.7-0.8c-0.7-1.5,0.9-2.4,1.6-3.3c12.2-15.3,26.8-28.3,40.9-41.8
	c30.4-29.1,63.5-54.8,95.9-81.5c30.9-25.5,59-54,85-84.4c11.1-12.9,21.7-26.1,29.4-41.4c8.9-17.5,13.8-35.8,14.9-55.5
	c1-17.3-1.6-34.2-3.1-51.2c-2.7-30.9-9.4-60.9-21.3-89.5c-22-53-49.5-102.7-88.8-145.4c-18.7-20.3-34.9-42.8-52.6-64.1
	c-23.2-27.9-46.9-55.4-68-85.1c-20.9-29.4-38-60.6-46.7-96c-3.1-12.7-5.3-25.5-2.7-38.5c1.2-6.1,3.5-11.8,7.5-16.7
	c4.4-5.3,8.9-5.3,13.2,0c24.8,30.2,49.3,60.8,74.5,90.6c11.5,13.5,23.6,26.5,37.7,37.8c10.6,8.5,20.2,18.3,30.7,27.1
	c19.5,16.3,41,29.1,65.1,37.3c18.6,6.4,34.6,17.8,51.7,27c19.4,10.4,37.7,22.6,55,36.3c1.3,1.1,2.5,2.1,3.4,3.6
	c22.9,35.8,42.4,73.1,53.4,114.4c5.8,21.7,9.3,43.9,11.8,66.2c0.9,8,2.2,16,2,24.3c-1.7-0.4-1.6-1.6-1.8-2.4
	c-13.7-57.2-40.8-107.8-75.5-154.7c-6-8.2-12.6-16-18.4-24.3c-6.8-9.6-16.3-15.6-26.3-21c-26.7-14.3-53.3-28.9-78.5-45.7
	c-29.5-19.6-57.1-41.6-81.8-67c-4.7-4.8-10.3-7.7-16.1-10.7c-0.4-0.1-0.7-0.2-1.1-0.3C1512.5,927.5,1512.6,927.9,1512.8,928.2z"/>
<path class="st8" d="M1356.3,151c-7.9,1.5-13.1,5.9-18.1,10.4c-8.3,7.5-15.3,16.3-20.6,26.2c-8.1,15.5-15.5,31.3-22.2,47.5
	c-10,24-13.2,49.4-14.4,75.1c-1.3,28.4-3.1,56.8-9.3,84.8c-7.6,34.1-23.5,63.8-45.7,90.5c-33.3,40.1-73.2,72.6-115.6,102.4
	c-13,9.2-28,15.7-38.3,28.5c-21.2,26.1-36.3,54.8-43.7,88.1c-4.2,19-4.5,37.6-3.5,56.5c1.3,25.1,8.6,48.7,18.7,71.6
	c1,2.2,4.2,5,1.7,7c-3.1,2.5-6.7,0.4-9.4-2c-12.6-11.4-24.5-23.4-33.1-38.3c-0.7-1.2-1.3-2.4-2.1-3.4
	c-11.7-13.2-12.2-29.3-11.3-45.6c2.1-37.1,11.1-72.9,20.8-108.5c5.5-19.9,15.5-37.9,27.6-54.6c6.6-9.1,14.9-16,26.3-19.5
	c17-5.1,33.6-11.5,50.4-17.5c8.3-3,16.6-5.8,25.4-7.2c3.7-0.6,6.9-2.2,9.7-4.7c13.7-12.1,26.1-25.3,35.6-40.9
	c4.3-7.1,7.1-15.2,8.6-23.3c1.8-9.7,4.9-19,6.6-28.6c0.2-0.9,0.2-1.9,0.4-3.6c-6,5-11.5,9.5-17,14c-8.5,6.9-17.2,13.8-26.7,19.4
	c-18,10.7-33.4,25.6-53.2,33.3c-3.6,1.4-7,3.2-10.6,4.5c-43.6,16.7-81.2,42.5-115.1,74.2c-6.3,5.9-14,9.8-21.4,14
	c10.7-13.8,22.3-26.7,34.1-39.4c17.6-18.9,35.9-37.2,52.8-56.7c7.7-8.8,16.8-15.2,26.5-21c7.8-4.8,15.6-9.6,23.7-13.9
	c9.2-4.9,17.4-11,24-19.2c4.4-5.4,9.1-10.7,14-15.6c20.1-19.7,31.4-44.8,43-69.7c3.5-7.6,7.2-14.8,12.6-21.4
	c16-19.5,26.1-42.4,36.3-65.3c0.7-1.5,1.2-3.2,2.1-4.5c14.9-22.4,22.4-48.1,32-72.9c9.6-24.6,21-48.1,38.6-68.2
	c6.1-7,13.6-11.6,21.1-16.5c19-12.4,39.3-22.5,61.8-25.7c13.6-1.9,27.9-1.6,41.6,1.9c1.4,0.4,2.8,1,4.1,1.7c0.9,0.4,1.9,0.9,1.9,2.1
	c-0.1,1.3-1.4,1.3-2.2,1.6c-4.5,1.7-8.8,3.6-13.8,3.8c-8,0.4-14.6,4.4-19.4,10.9c-3.5,4.8-6,9.8-6.5,16.2
	c-1.4,16.9-6.4,33.4-6.7,50.4c-0.5,26.8-2.9,53.7-1,80.4c0.7,10,0,19.7-0.7,29.6c-0.6,9.1-6.2,15.6-12.9,21.1
	c-0.7,0.6-1.9,1.1-2.7,0.9c-1.4-0.4-1.1-1.9-1-3c0.5-4.3,1.3-8.6,1.5-12.9c0.6-11.8-2.1-23.1-6.4-34c-6.5-16.6-9.4-34-10.2-51.7
	C1344.2,190,1347,170.3,1356.3,151z"/>
<path class="st8" d="M1269,590.3c-14.2-1.1-28.5-2.1-42.6-4.3c-4.1-0.6-2.7-3.9-1.8-6.1c1.3-3,3.4-5.7,5.1-8.6
	c10.2-16.7,18.6-34.2,22.7-53.5c0.9-4.3,2.8-8.6,4.8-12.6c9.3-19,13.2-39.7,18.8-59.8c3.2-11.5,6.4-23.1,8.3-34.9
	c4.1-25.1,20.2-41.3,40.3-54.4c4.4-2.9,9.2-5.4,14.1-7.4c19.6-8.4,38.3-0.4,46.6,19.3c5.8,13.8,5.2,27.8,3.4,42.2
	c-2.4,19.9-8.2,39-14,58.1c-2.4,7.7-6.7,14.6-14.6,18.2c-1.4,0.7-2.5,1.4-2.9,3.1c-2.7,12.9-10.1,23.4-17.2,34.1
	c-5.4,8-10.3,16.2-14.4,25.1c-7.2,15.6-18.1,28.2-33.5,36.5C1284.8,589,1277.2,591,1269,590.3z"/>
<path class="st8" d="M1483.3,210.2c-1.6,10.2-4.4,20-4.4,30.2c0,5.8,1.4,11.5,1.2,17.4c-0.1,4-1.2,6-5.7,6
	c-7.2,0.1-14.1,2.2-20.7,4.9c-7.8,3.3-15,2.5-23.2,0.6c-9.5-2.2-14.1-8.6-19-15.5c-6.4-8.9-12.8-17.9-19.1-26.9
	c-2.2-3.1-4.3-6.3-5.6-10c-2.5-7.2-0.2-12,6.4-15.7c7.5-4.3,15.4-5.9,23.9-6.1c8.2-0.3,16.3-0.9,23.4-5.7c1.6-1.1,3.4-1.1,5.3-0.7
	c1.6,0.3,3.2,0,4.1-1.3c1-1.4-0.4-2.5-1.2-3.5c-2.6-3.6-3.9-7.7-4.5-12c-0.7-4.7-7.9-11.4-12.7-11.2c-12.3,0.4-22.7,4.9-30,15.1
	c-1.1,1.6-1.7,2.4-3.1,0.4c-0.2-0.4-1.2-0.2-1.9-0.3c-7.7-0.5-10.9-4.6-9-12.3c2.3-9.6,6-19.1,11.9-26.8c9-11.6,33.6-18.6,47.5-2
	c0.5,0.6,0.8,1.6,1.5,2c9.1,4.8,9.4,14.7,13,22.6c5.6,12.1,10.7,24.4,20.6,33.8c0.5,0.5,1,0.9,1.3,1.5c1.3,2,4.5,3.8,3.2,6.2
	c-0.9,1.8-4-0.1-6-0.1c-1.5,0-2.9,0-4.3,0.6c-5.3,2-10.1,5-15,7.8c-2.4,1.3-5.8,2.9-3.3,6.4c1.9,2.7,4.5,0.7,6.6-0.6
	c4.9-3.1,10.5-4.1,16.1-5C1481.3,209.9,1482.3,210.1,1483.3,210.2z"/>
<path class="st8" d="M1140.7,935.1c-7.8-5.5-11.5-12.2-10.3-20.7c1.3-9.2,1.4-18.5,2.2-27.8c0.9-10.7,6.6-19.8,10.5-29.5
	c7.2-17.9,14.1-35.9,22.7-53.2c2-4.1,3.2-8.6,5-12.8c2.1-4.6,5.8-6.6,10.5-7c5.4-0.5,10.6,0,15.8,1.3c18,4.5,23,14.5,22.4,33.5
	c-0.4,12.6-3.7,24.6-8.2,36.4c-4.2,11.1-5.2,23-7.4,34.6c-0.7,3.5-0.4,8.6-5.3,8.2c-4.1-0.3-3-5.3-3.3-8.3
	c-0.8-8.1-5.7-15.4-3.8-24.1c-2.3,0.5-2.2,2-2.7,3c-4.3,10.1-9.5,19.9-15.2,29.2c-4.3,6.9-5.3,14.2-5.5,21.9
	c-0.5,17.7,0,35.3,4.3,52.5c0.3,1.1,0.9,2.3-0.7,2.9c-1.4,0.5-2.7,1.3-4.2,0.3c-7.1-4.8-12.5-9.9-12.8-19.8
	c-0.5-15.4-0.8-30.9-3-46.3c-1.2-8.3,2.4-16.7,3.8-25c0.6-3.9,1.8-7.7,1.4-12.3c-0.8,0.9-1.3,1.3-1.5,1.8
	c-3.2,9.5-7.5,18.5-12.1,27.4c-5.1,9.7-2.9,19.8-3,29.9C1140.3,932.2,1140.5,933.2,1140.7,935.1z"/>
<path class="st8" d="M1512.7,456c-15.6-0.1-29.3-6.4-43-12.9c-5.1-2.4-6-6.1-7-10.6c-4.1-18-11.1-34.9-22.1-49.9
	c-1.6-2.1-1.5-3.5,0.4-5.5c10-10.1,22.2-15.6,36-18.1c5.2-1,8.8,1.6,12.2,5.2c14.8,16.3,31.4,30.3,51.1,40.4
	c5.8,2.9,11.6,5.8,16.9,9.5c1.7,1.2,3.1,2.5,4.2,4.2c7.1,10.5,6.6,14.3-3.2,22.1C1544.9,451.1,1529.6,456,1512.7,456z"/>
<path class="st8" d="M1112.5,409.5c-2.5,6.3-5.5,10.8-9,14.9c-12,13.8-26.3,24.1-44.7,27.1c-24.1,4-47.6-13-50.3-36
	c-1.7-14.7,11.1-32.1,25.3-34.4c1.8-0.3,2.5,0.1,2.3,2c-0.2,2-0.1,4.1-0.7,5.9c-4.8,15,0.5,30.7,21.5,34c13.6,2.2,26.8,1.3,39.2-5.4
	C1101.1,415,1106.3,412.6,1112.5,409.5z"/>
<path class="st8" d="M1547,818.3c-11.3-4.9-20.8-12.2-30.8-18.6c-19.8-12.8-39.9-25.3-60.5-36.9c-6.3-3.5-12.7-5.5-19.8-1.9
	c-3,1.5-6.5,1.4-9.8,1.2c-5.1-0.3-7-3-5.6-8c2-6.8,6.4-12.4,10.4-18c2.6-3.6,7.9-3.4,12.1-3.4c9.1-0.1,17,1.8,23.9,9.5
	c23.9,26.9,50.9,50.6,78.2,74.1C1545.7,816.8,1546.4,817.6,1547,818.3z"/>
<path class="st8" d="M1309,314.7c0-17.5,15.1-32.6,32.6-32.4c2,0,4,0.3,5.9,0.8c1.7,0.5,4.1,0.6,4.4,2.7c0.3,1.9-2,2.4-3.2,3.5
	c-8,6.7-10.7,15-7.6,25c0.9,2.9,2,5.6,3,8.4c2.4,6.7-0.1,11.9-6.7,14.3C1323.3,342.1,1309,330.8,1309,314.7z"/>
<path class="st9" d="M1747.4,1311.5c-3.4-17.7-6.3-35.6-11.3-53c-11.3-39.3-28.8-75.2-57.3-105c-12.4-13-26.5-24.3-40.5-35.6
	c-23.6-19.1-49.7-34.6-74-52.6c-19.5-14.4-39.7-28.2-56.6-45.7c-28.3-29.2-49.9-62.8-62.5-101.6c-3.5-10.7-5.6-21.9-3.1-33.4
	c1.3-6.2,2.7-7,8.1-4.4c4.9,2.4,10,4.7,15.3,6.1c17.5,4.5,31.5,14.7,44.1,27.1c26.4,25.9,50.7,53.8,75.6,81.1
	c15.9,17.5,31.8,35,47.3,52.8c26.1,30,52.3,60,72.5,94.6c17.2,29.5,30.3,60.7,38.2,94c2.2,9.4,2.9,19.1,3.4,28.7
	C1747.4,1280.1,1748.7,1295.7,1747.4,1311.5z"/>
<path class="st9" d="M1387.3,1389c-6.7,16.4-11,32.8-15.4,49.1c-0.3,1.3-0.9,2.6-0.9,3.9c-0.4,14.2-8.3,23.6-19.7,30.6
	c-12.1,7.5-22.3,17.3-33.1,26.5c-26.7,22.6-51.1,47.7-77.5,70.7c-6.1,5.3-10.9,11.7-15.7,18.1c-2,2.6-3.8,3.2-6.7,1.9
	c-3.3-1.5-1.5-3.8-1-5.5c5.6-19.9,11.3-39.7,16.9-59.5c2-7.1,7-12.4,11-18.3c7.5-11.2,15.1-22.4,23.2-33.1
	c8.9-11.8,20.8-20.5,32.3-29.6c24-18.9,49.5-35.6,76.1-50.5c2.6-1.5,5.3-2.7,8-4C1385.3,1389,1385.9,1389.1,1387.3,1389z"/>
<path class="st10" d="M1428,97.6c-0.5,1.6-2,1.7-3.1,2.2c-6.6,2.6-13.2,5.4-20,7.8c-19,6.8-34.3,18.8-47.6,33.5
	c-2.8,3.1-5.1,3.4-8.9,1.8c-13.4-5.7-26.9-11.4-41.1-15.1c-1-0.3-2.6-0.1-2.8-1.6c-0.1-1.1,1-1.6,1.8-2.1c22.5-15.1,45.9-28.9,73-33
	c14.4-2.1,29.4-2.1,43.8,2.7C1425.2,94.4,1427.2,95.2,1428,97.6z"/>
<path class="st10" d="M1188.3,523.3c-0.3-1.2-0.9-2.2-0.9-3.3c-0.2-17.2-2.6-34.7,6-50.9c5.1-9.6,6.6-20.6,12.3-30
	c4-6.6,8.9-12.5,13.5-18.6c2.3-3.1,3.4-2.3,5.1,0.7c6.3,10.9,12.7,21.9,20.6,31.8c1.6,2,0.9,3.1-0.3,4.7
	c-11.7,16-24.9,30.8-38.4,45.3c-5,5.4-9.5,11.1-14.1,16.8C1190.9,521.2,1190.2,522.7,1188.3,523.3z"/>
<path class="st10" d="M1472.7,416.1c5.9-0.2,11.3,1.2,16.7,4.1c13.5,7.1,27.3,13.8,41.1,20.2c3.8,1.8,7.9,3.1,12.2,3.5
	c2,0.2,4.4,0.3,4.9,2.6c0.5,2.5-1.8,3.7-3.6,4.9c-5.6,3.7-11.7,5.8-18.4,5.4c-15.7-0.9-31.1-3.4-45.8-9.2
	c-10.8-4.2-17.1-12.4-18.9-23.7c-1-6.2,0.8-7.6,7.2-7.8C1469.7,416.1,1471.2,416.1,1472.7,416.1z"/>
</svg>
