<svg id="ed508e0d-89c5-44a1-87ab-ff5b086b47dc" data-name="Layer 1" xmlns="http://www.w3.org/2000/svg" xmlns:xlink="http://www.w3.org/1999/xlink" viewBox="0 0 2000 2000"><defs><style>.e2110e0b-7f7f-41a5-9fcc-3052a63138e4{fill:none;}.ae817165-e3da-406c-aba6-7fd72ef88d5d{fill:#bfc2cf;}.abfce3fd-5758-4452-b6d8-f07ebb7532ba{fill:#9e9784;}.f71bc3c9-241f-4445-946e-4bc9a9292db5{fill:#ddd1bc;}.a92418bd-614b-474f-9ee0-6b805cfd5579{fill:#f3eadb;}.a5336e8a-fa74-4a21-8cab-f02ccbef4485{fill:#9498a2;}.fbd19f81-8b37-446e-aa29-e65835fcd937{fill:#504d3c;}.fdb1e4bd-3a7b-4d85-aaab-2f5e65ec4d57{fill:#9d9683;}.ef8f7e4a-0542-4421-9ae8-5831d0347c42{fill:#39372e;}.bb21fecf-37e3-4359-b7cc-0e5921fc4f7a{fill:#86816b;}.b4c079cc-d4e1-466c-86ea-3cdacf1bb702{fill:#b0aa8e;}.ad5bb25e-261b-453c-b124-291df4100599{fill:#b0aa8f;}.a7b81f1a-d69d-404d-9b79-4d8fa394a734{clip-path:url(#b48e171d-0e70-40c3-89a3-a88f24624641);}</style><clipPath id="b48e171d-0e70-40c3-89a3-a88f24624641"><path class="e2110e0b-7f7f-41a5-9fcc-3052a63138e4" d="M1019.57,1127c-17.8.31-32.22-14.53-52.91-36.47a208.74,208.74,0,0,1-26.51-34.84c-30.19-9.09-77.82-28.27-120.19-70.5C717.48,883,736.54,736.45,739.62,712.77c8.65-66.52,35.76-119.09,54.58-146.85,22.24-32.81,53-61.68,53-61.68a301.65,301.65,0,0,1,23.32-20.13s5.46-4.29,38.22-32.51h0c22.22-14.43,31.68-22.72,36-27.74a48.06,48.06,0,0,1,8.51-7.61,38.43,38.43,0,0,1,13-5.7c12.24-3.11,24.46-2.17,30-1.6,3.51.36,41,4.52,72.3,20.46a38.31,38.31,0,0,1,5.79,3.48c12.59,9.29,11.92,21.81,18.53,32.42,8.24,13.24,19.12,9.53,37.58,22.22,13.84,9.51,20.47,20.36,31,37.42,58,93.74,61.22,94.75,68.1,115.44,9.56,28.78,11.52,51.91,13.17,68.81,3,31.27,13.63,181.86-90,288.32a300.87,300.87,0,0,1-60.68,47.91,215.83,215.83,0,0,1-17.92,31.34C1056.44,1102.46,1040,1126.66,1019.57,1127Z"/></clipPath></defs><path class="ae817165-e3da-406c-aba6-7fd72ef88d5d" d="M1285.22,1433.05c34.69,3.38,69.14,7.43,101.82,21.08,57.39,24,99.25,65.16,131.67,117,10.6,17,17.75,35.31,19.44,55.41,2.7,32-11.59,56.76-35.35,76-32.7,26.54-67.26,50.5-105.44,68.83-70.89,34-144.8,59.8-220.41,81-31.48,8.82-63.15,17.24-95.47,21.75-36.29,5.07-72.92,5.26-109.64,2.67-70.14-4.95-136.71-26.1-203.71-44.61C736.8,1823.57,707,1809,677,1796.09c-53.65-22.95-106.32-47.88-154.21-81.75-16.21-11.47-31.26-24.29-43.13-40.3-25-33.76-23.89-71.87,2.1-106.77,16.95-22.76,39-39.42,63.49-52.61,59.62-32.13,123.23-53.35,189.67-66.18,3.86-.75,7.9-.58,11.85-.84,1.45,8.1-2.33,16.75,2.56,24.49.07,6.37,7.05,10.19,6.24,16.89-7.5,0-14.36,3-21.56,4.52-11.76,7.78-18.29,18.29-17.15,32.81,0,2.63-.07,5.26-.11,7.89-.46,5.93-5.73,5.61-9.37,6.43-4.14.92-6.4,2.3-5.8,6.76-1,17.51,1,34.92,1.87,52.37-4.2-.84-8.13.81-11.3,2.79-5.74,3.59-11,9.5-6.18,16,7.88,10.58,15.83,21.48,27.29,28.83,59.95,38.5,121.41,74.37,185,106.48,40.17,20.28,83.14,28.32,127.59,31.46,26,1.83,49.23-6,71.25-17.61,66.93-35.13,135.55-66.85,202.9-101.11a377.92,377.92,0,0,0,39.86-23.65c4.71-3.17,9.18-6.79,7.41-13s-1.88-14-10.71-15.83c-7-1.47-7.93-6.54-8.18-13-.75-18.76,2.81-37.29,2.28-56-.56-4.39-3.92-4.08-7-4-3.73.07-6.73-1-8.37-4.61,2.34-29.81-8.84-44.66-36.55-47.37l-2.58-2.53c5.64-10.35,10.62-20.74,9.11-33.22C1284.49,1446.66,1285.2,1439.81,1285.22,1433.05Z"/><path class="abfce3fd-5758-4452-b6d8-f07ebb7532ba" d="M716.72,1534.24c0-2.63.07-5.26.11-7.89,6.26-1.39,12.09.38,17.95,2.31,57.48,18.95,112.47,44.06,168.08,67.68a573.68,573.68,0,0,0,68.32,24.35c-.53-6.38-1.14-11.64-1.35-16.92-.24-5.75-.11-11.52-.15-17.28-.2-20.67-.26-20.48-19.8-27.18-36.33-12.45-72.74-24.7-108.81-37.87C812.43,1511,783.3,1501.8,755.54,1489c.81-6.7-6.17-10.52-6.24-16.89a47.91,47.91,0,0,1,6.21,1.6c68.74,27.46,140.67,45.71,209.64,72.48,4.57,1.77,9.22,2.72,10.26-3.16,1.24-7,2.24-14.78-4.1-20.17-5-4.25-5.87-9.65-6.08-15.41-.82-23.68-1.41-47.37-2.26-71-1.13-32,1.06-27-27.74-35-62.55-17.31-126.05-31.12-187.92-51-1.4-3.44-2.23-6.89-.3-10.42,29.25,4.06,57.44,12.59,85.82,20.31q59.8,16.26,119.54,32.7c5.88,1.63,9,1,8.78-6-.26-7.91-.11-15.85-.19-23.77-.06-5.84-2.65-9.39-8.81-10.23-19.91-2.69-39.63-6.46-59.26-10.8-65.24-14.43-130.48-28.81-193.28-52.24,0-3.43,0-6.85,0-10.28,5.6,1.16,11.28,2,16.81,3.51,55.48,14.66,110.76,30.12,166.81,42.56,22.54,5,45.18,9.52,69.18,14.55-2-7.4-7.1-7.36-10.79-8.34-48.86-12.92-97.82-25.39-147.15-36.47-31.79-7.15-63-16.68-95.15-22.55-4.87-2.92-9.45-6.59-14.67-8.57-8.61-3.25-11.45-8.69-9-17.29A120.08,120.08,0,0,0,704.8,1258q64.88,16,129.71,32.09c31.34,7.81,62.22,17.58,94.35,22.06,20,2.79,20,2.85,22.82-17.38,4.08-13.82,4.55-28.25,7-42.35,1.09-6.35-.18-10.86-7.68-12.83-21.49-5.64-42.91-11.48-64.58-16.49-53-12.28-106.8-21.78-158.6-39.1-3.65-9.53-1-19.5-2-29.22,1.75-.06,3.59-.51,5.23-.11,73.23,18,147.32,32.41,220.1,52.33,9.29,2.54,18,1.19,27.9-.57,27.8-5,56.85-5.91,84.27.81,11.84,2.9,21.54,6.42,33.15,1.5,5.89-2.5,12.45-3.43,18.7-5.1,63.48-17,128.2-29.26,190.67-50.1-.37,10.38-.5,20.78-1.21,31.14-.36,5.11,2.84,7.62,5.65,10.89,9.75,11.32,21.43,21,29,34.11q-109.35,35.23-218.68,70.53a94.47,94.47,0,0,0-13.81,6c-3.28,1.69-6.19,4.22-5.2,8.52,1.19,5.21,5.68,3.76,8.89,3.41,7.47-.81,15-1.66,22.28-3.59,75-20,149.31-42.06,222.28-68.56,4,8.26,2.71,13.8-6.71,17.59-10.32,4.14-15.52,10.58-16,24-.86,23.06-17.07,38.08-37,47.69-7.23,3.48-9.77,7.22-10.19,14.84-1.5,27.64-.74,55.24.14,82.85,0,6.76-.73,13.61.08,20.28,1.51,12.48-3.47,22.87-9.1,33.23-25.27,7.34-49,18.58-73.37,28.29-35.72,14.23-71.61,28-107.34,42.23-6.74,2.68-18.67,6-15.9,12.7,3.7,9,13.16.69,19.47-1.81,60.85-24.12,119.75-52.72,179.71-78.89,27.71,2.71,38.89,17.56,36.55,47.38-2.21,1.19-4.36,2.55-6.66,3.54-42.91,18.46-85.43,37.82-127.26,58.61-35.41,17.61-71.14,34.41-108.05,48.65q-2.19-3.36-4.37-6.72-.15-29.28-.28-58.58c1.92-9.86-4.65-11.86-12-12.2-22.26-1-44.53-1.62-66.8-2.52-7.58-.31-10.82,2.79-9.13,10.41-1.78,20.8,1.73,41.84-3,62.5l-5.88,5.11-2.14-.5c.4-4.67-.49-7.89-5.92-9.63-51-16.37-99.43-39.36-148.94-59.57C782.06,1562.14,748.59,1550.08,716.72,1534.24Zm244.07-248.4c-2.07,8.35-4.4,16.63-6.14,25.05-1.27,6.14,1.54,9.7,8.08,9.7q58.28,0,116.53,0c4.85,0,9.65-2.49,8.11-7.58-3-9.78-1.9-21-9.8-29.15-.36-13-5.16-25.1-7.16-37.77-.77-4.85-4.62-5.48-9-5.47-26.52.06-53,.06-79.54-.27-5.9-.08-9.17,2.2-11.71,7.28C964.12,1259.7,961.87,1272.6,960.79,1285.84Zm106.3,59.37c-15.33,17.56-25.62,47.81-26,75.13-.34,24.45,1,49-1.07,73.33-2,23.64-3.44,23.38,20,21.69,4.89-.36,7.07-1.77,7.2-6.9.32-12.19,1.64-24.36,1.54-36.53-.27-34.85-1.07-69.68-1.62-104.53C1067,1360.58,1067.09,1353.75,1067.09,1345.21Zm-82.74-13.38c9,6.27,14.09,13,17.48,20.85a194.53,194.53,0,0,1,13.21,45.38c4.64,28.49,4.09,57.26,4.2,86,0,6,0,12,4.4,17.5,4.18-3.21,3.9-7.5,4.49-11.67,3.3-23.63.91-47.42,2.16-71.09,1.23-23.35,3.36-46.52,16.56-67.13,4.36-6.81,10.18-12.55,14.79-19.82Zm-2,15.29c-1.12,1.67-1.77,2.19-1.77,2.71-.06,47.09-.42,94.19.09,141.28.24,21.89,3.56,24.29,25.24,24.15.71,0,1.44,0,2.15,0,5.71.33,8.31-1.3,5.41-7.47-6.25-13.31-7.19-27.54-7.29-42-.16-24-1.26-48-6.4-71.58C996.23,1378,992,1361.84,982.35,1347.12Zm21.34,181.13c-3.67,0-4.76-.14-5.82,0-4.37.66-11.74-2.57-10.73,6,.8,6.7-5.71,16.4,8.85,18.56,20.09,3,40-3.6,59.94,1,4.15,1,10.52.41,8.12-5.83-2.29-6,4.21-17.29-8.14-17.54C1037.62,1530,1019.31,1530.69,1003.69,1528.25ZM1106,1499.14c6.72,1.84,11.09.13,15.53-1.31,38.32-12.42,75.33-28.17,112.41-43.77,4.88-2,5.9-5.19,5.86-10.07-.15-20.86.26-41.73,0-62.6,0-4.39,3-12.14-3.47-12.36-5.11-.18-4.94,7.79-4.93,12.57,0,18.3-1.56,36.65,1.65,54.87,1.73,9.76-1.07,15.3-11.94,18.57-27.81,8.38-55.22,18.15-82.51,28.14C1127.81,1487.15,1116.18,1490.12,1106,1499.14Zm-85-276v0c11.88,0,23.76.06,35.64,0,2.7,0,6.55,1.14,7.37-2.58s-1.77-6.68-5.12-8.63c-2.64-1.54-5.54-1.15-8.39-1.4-21.14-1.85-42.19,4.62-63.4.44-5-1-8.15,2.91-8.43,7.78-.34,5.85,4.48,4.39,7.77,4.43C997.94,1223.17,1009.46,1223.1,1021,1223.1Z"/><path class="f71bc3c9-241f-4445-946e-4bc9a9292db5" d="M727.79,1184c51.8,17.32,105.55,26.82,158.6,39.1,21.67,5,43.09,10.85,64.58,16.49,7.5,2,8.77,6.48,7.68,12.83-2.42,14.1-2.89,28.53-7,42.35-14.14-5.5-29.48-5.55-43.91-9.66q-74.38-21.2-149.71-38.69c-22.52-5.22-45.64-8.36-67.4-16.72,10.5-11.59,20.87-23.31,31.58-34.71C725.3,1191.76,728,1188.71,727.79,1184Z"/><path class="f71bc3c9-241f-4445-946e-4bc9a9292db5" d="M747.31,1350.43c61.87,19.9,125.37,33.71,187.92,51,28.8,8,26.61,3,27.74,35,.85,23.68,1.44,47.37,2.26,71,.21,5.76,1.07,11.16,6.08,15.41,6.34,5.39,5.34,13.21,4.1,20.17-1,5.88-5.69,4.93-10.26,3.16-69-26.77-140.9-45-209.64-72.48a47.91,47.91,0,0,0-6.21-1.6c-4.89-7.74-1.11-16.39-2.56-24.49ZM950.1,1508.24q2-32.7,4-65.38c.91-14.92-3.08-21.45-16.1-24.85q-79.66-20.79-157.46-47.7c-15.62-5.39-20.23-2.07-20.6,14.8-.34,15.44-.36,30.91.13,46.35.24,7.7-2.11,15.74,2,23.14-.08,4.73-.43,9,6,10.82,23.37,6.8,46.59,14.1,69.82,21.38,34.55,10.82,69.78,19.68,102.67,35.32,6.63,3.15,9.48.35,9.67-6.33C950.26,1513.28,950.13,1510.76,950.1,1508.24Z"/><path class="f71bc3c9-241f-4445-946e-4bc9a9292db5" d="M699.61,1290c62.8,23.43,128,37.81,193.28,52.24,19.63,4.34,39.35,8.11,59.26,10.8,6.16.84,8.75,4.39,8.81,10.23.08,7.92-.07,15.86.19,23.77.23,7-2.9,7.6-8.78,6q-59.72-16.55-119.54-32.7c-28.38-7.72-56.57-16.25-85.82-20.31-22.24-7.43-38.49-21.29-46.65-43.7C699.66,1294.37,699.84,1292.12,699.61,1290Z"/><path class="a92418bd-614b-474f-9ee0-6b805cfd5579" d="M690.67,1229.72c21.76,8.36,44.88,11.5,67.4,16.72q75.38,17.44,149.71,38.69c14.43,4.11,29.77,4.16,43.91,9.66-2.82,20.23-2.81,20.17-22.83,17.38-32.13-4.48-63-14.25-94.35-22.06Q769.68,1274,704.8,1258a120.08,120.08,0,0,1-29.19-10.89C677.73,1238.82,684.88,1234.86,690.67,1229.72Z"/><path class="f71bc3c9-241f-4445-946e-4bc9a9292db5" d="M1355,1246.06c-73,26.5-147.31,48.55-222.28,68.56-7.24,1.93-14.81,2.78-22.28,3.59-3.21.35-7.7,1.8-8.89-3.41-1-4.3,1.92-6.83,5.2-8.52a94.47,94.47,0,0,1,13.81-6q109.32-35.37,218.68-70.53C1345.51,1234.21,1353.34,1237.18,1355,1246.06Z"/><path class="f71bc3c9-241f-4445-946e-4bc9a9292db5" d="M699.33,1273c32.11,5.87,63.36,15.4,95.15,22.55,49.33,11.08,98.29,23.55,147.15,36.47,3.69,1,8.74.94,10.79,8.34-24-5-46.64-9.55-69.18-14.55-56-12.44-111.33-27.9-166.81-42.56-5.53-1.46-11.21-2.35-16.81-3.51C699.52,1277.48,699.43,1275.23,699.33,1273Z"/><path class="f71bc3c9-241f-4445-946e-4bc9a9292db5" d="M958.62,1662c.13,25.16,0,50.33.49,75.49.15,8.39-2,10.06-9.88,6.46-55.13-25.3-110.75-49.54-165.47-75.71-26.47-12.66-50.07-30.87-76.37-44.17-3.47-1.76-4-4.69-4-8.11.07-5.39,0-10.78,0-16.17-.83-17.45-2.86-34.86-1.87-52.37,26.37,12.14,52.85,24,79.08,36.47,47,22.26,93.53,45.52,142.1,64.24C934.7,1652.75,945.67,1660,958.62,1662Z"/><path class="a92418bd-614b-474f-9ee0-6b805cfd5579" d="M958.62,1662c-13-2-23.92-9.26-35.89-13.87-48.57-18.72-95.11-42-142.1-64.24-26.23-12.42-52.71-24.33-79.08-36.47-.6-4.46,1.66-5.84,5.8-6.76,3.64-.82,8.91-.5,9.37-6.43,31.87,15.84,65.34,27.9,98.22,41.32,49.51,20.21,97.91,43.2,148.94,59.57,5.43,1.74,6.32,5,5.92,9.63-5,2.47-7.23,6.44-6.87,12,2.73-4.14,8.32-5.93,9-11.48l5.89-5.11q45.57.21,91.15.39,2.18,3.36,4.37,6.72c1.46,5.07,11.39,6.32,6.45,14.28l-29.39,1.31c-14.7-.34-29.46-2.88-44,1.35C990.63,1660,974.56,1662.35,958.62,1662Z"/><path class="f71bc3c9-241f-4445-946e-4bc9a9292db5" d="M969.68,1586.49c0,5.76-.09,11.53.15,17.28.21,5.28.82,10.54,1.35,16.92a573.68,573.68,0,0,1-68.32-24.35c-55.61-23.62-110.6-48.73-168.08-67.68-5.86-1.93-11.69-3.7-17.95-2.31-1.14-14.52,5.39-25,17.15-32.81,0,3.31,1.79,5.26,4.63,6.58,11.06,5.11,21.64,11.15,33,15.67,34.25,13.59,69.15,25.32,103.89,37.53Q922.62,1569.88,969.68,1586.49Z"/><path class="a92418bd-614b-474f-9ee0-6b805cfd5579" d="M969.68,1586.49q-47.07-16.59-94.15-33.17c-34.74-12.21-69.64-23.94-103.89-37.53-11.39-4.52-22-10.56-33-15.67-2.84-1.32-4.67-3.27-4.63-6.58,7.2-1.47,14.06-4.51,21.56-4.52,27.76,12.78,56.89,22,85.53,32.42,36.07,13.17,72.48,25.42,108.81,37.87C969.42,1566,969.48,1565.82,969.68,1586.49Z"/><path class="f71bc3c9-241f-4445-946e-4bc9a9292db5" d="M1079.8,1661.54c4.94-8-5-9.21-6.45-14.28,36.91-14.24,72.64-31,108.05-48.65,41.83-20.79,84.35-40.15,127.26-58.61,2.3-1,4.45-2.35,6.66-3.54,1.64,3.62,4.64,4.67,8.37,4.6,3.07,0,6.43-.36,7,4-14.58,3.22-27.14,11.28-40.36,17.56-66.59,31.64-132.87,63.94-199.26,96C1087.5,1660.37,1084,1662.45,1079.8,1661.54Z"/><path class="f71bc3c9-241f-4445-946e-4bc9a9292db5" d="M1278.77,1489.08c-60,26.17-118.86,54.77-179.71,78.89-6.31,2.5-15.77,10.84-19.47,1.81-2.77-6.75,9.16-10,15.9-12.7,35.73-14.2,71.62-28,107.34-42.23,24.35-9.71,48.1-20.95,73.37-28.29Z"/><path class="f71bc3c9-241f-4445-946e-4bc9a9292db5" d="M1069,1640.54q-45.59-.18-91.15-.39c4.68-20.66,1.17-41.7,2.95-62.5,29.44-1.27,58.69,1.38,87.92,4.31Q1068.84,1611.26,1069,1640.54Z"/><path class="f71bc3c9-241f-4445-946e-4bc9a9292db5" d="M960.79,1285.84c1.08-13.24,3.33-26.14,9.37-38.21,2.54-5.08,5.81-7.36,11.71-7.28,26.51.33,53,.33,79.54.27,4.38,0,8.23.62,9,5.47,2,12.67,6.8,24.8,7.17,37.77a196.19,196.19,0,0,1-50.7,6.62C1004.69,1290.56,982.83,1287.17,960.79,1285.84Z"/><path class="a92418bd-614b-474f-9ee0-6b805cfd5579" d="M960.79,1285.84c22,1.33,43.9,4.72,66.09,4.64a196.19,196.19,0,0,0,50.7-6.62c7.89,8.12,6.83,19.37,9.79,29.15,1.54,5.09-3.26,7.57-8.11,7.58q-58.26.11-116.53,0c-6.54,0-9.35-3.56-8.08-9.7C956.39,1302.47,958.72,1294.19,960.79,1285.84Z"/><path class="f71bc3c9-241f-4445-946e-4bc9a9292db5" d="M1067.09,1345.21c0,8.54-.09,15.37,0,22.19.55,34.85,1.35,69.68,1.62,104.53.1,12.17-1.22,24.34-1.54,36.53-.13,5.13-2.31,6.54-7.2,6.9-23.42,1.69-22,2-20-21.69,2-24.3.73-48.88,1.07-73.33C1041.47,1393,1051.76,1362.77,1067.09,1345.21Z"/><path class="f71bc3c9-241f-4445-946e-4bc9a9292db5" d="M984.35,1331.83h77.29c-4.61,7.27-10.43,13-14.79,19.82-13.2,20.61-15.33,43.78-16.56,67.13-1.25,23.67,1.14,47.46-2.16,71.09-.59,4.17-.31,8.46-4.49,11.67-4.43-5.45-4.38-11.51-4.4-17.5-.11-28.72.44-57.49-4.2-86a194.53,194.53,0,0,0-13.21-45.38C998.44,1344.78,993.31,1338.1,984.35,1331.83Z"/><path class="f71bc3c9-241f-4445-946e-4bc9a9292db5" d="M982.35,1347.12c9.67,14.72,13.88,30.85,17.43,47.08,5.14,23.54,6.24,47.56,6.4,71.58.1,14.49,1,28.72,7.29,42,2.9,6.17.3,7.8-5.41,7.47-.71,0-1.44,0-2.15,0-21.68.14-25-2.26-25.24-24.15-.51-47.09-.15-94.19-.09-141.28C980.58,1349.31,981.23,1348.79,982.35,1347.12Z"/><path class="f71bc3c9-241f-4445-946e-4bc9a9292db5" d="M1003.69,1528.25c15.62,2.44,33.93,1.75,52.22,2.13,12.35.25,5.85,11.59,8.14,17.54,2.4,6.24-4,6.79-8.12,5.83-19.91-4.56-39.85,2-59.94-1-14.56-2.16-8-11.86-8.85-18.56-1-8.53,6.36-5.3,10.73-6C998.93,1528.11,1000,1528.25,1003.69,1528.25Z"/><path class="f71bc3c9-241f-4445-946e-4bc9a9292db5" d="M1106,1499.14c10.16-9,21.79-12,32.63-16,27.29-10,54.7-19.76,82.51-28.14,10.87-3.27,13.67-8.81,11.94-18.57-3.21-18.22-1.6-36.57-1.65-54.87,0-4.78-.18-12.75,4.93-12.57,6.46.22,3.43,8,3.47,12.36.23,20.87-.18,41.74,0,62.6,0,4.88-1,8-5.86,10.07-37.08,15.6-74.09,31.35-112.41,43.77C1117.11,1499.27,1112.74,1501,1106,1499.14Z"/><path class="f71bc3c9-241f-4445-946e-4bc9a9292db5" d="M1021,1223.1c-11.52,0-23,.07-34.56,0-3.29,0-8.11,1.42-7.77-4.43.28-4.87,3.4-8.76,8.43-7.78,21.21,4.18,42.26-2.29,63.4-.44,2.85.25,5.75-.14,8.39,1.4,3.35,2,6,4.77,5.12,8.63s-4.67,2.55-7.37,2.58c-11.88.1-23.76,0-35.64,0Z"/><path class="a92418bd-614b-474f-9ee0-6b805cfd5579" d="M1068.7,1582c-29.23-2.93-58.48-5.58-87.92-4.31-1.69-7.62,1.55-10.72,9.13-10.41,22.27.9,44.54,1.49,66.8,2.52C1064.05,1570.1,1070.62,1572.1,1068.7,1582Z"/><path class="f71bc3c9-241f-4445-946e-4bc9a9292db5" d="M971.94,1645.26c-.69,5.55-6.28,7.34-9,11.48-.36-5.54,1.91-9.51,6.87-12Z"/><path class="abfce3fd-5758-4452-b6d8-f07ebb7532ba" d="M762.06,1454.6c-4.11-7.4-1.76-15.44-2-23.14-.49-15.44-.47-30.91-.13-46.35.37-16.87,5-20.19,20.6-14.8Q858.34,1397.22,938,1418c13,3.4,17,9.93,16.1,24.85q-2,32.69-4,65.38l-5.56-.39c-5.16-20.92-2.84-42.26-2.87-63.4,0-9.11-2.42-13.33-11.39-16-41.37-12.1-83.09-23.11-123.49-38.44-10-3.8-20.59-6.3-31.06-8.71-3.49-.8-9.66-2.74-8.63,5.12,3,22.6,1,45.28,1.37,67.92Z"/><path class="a92418bd-614b-474f-9ee0-6b805cfd5579" d="M944.54,1507.85l5.56.39c0,2.52.16,5,.09,7.55-.19,6.68-3,9.48-9.67,6.33-32.89-15.64-68.12-24.5-102.67-35.32-23.23-7.28-46.45-14.58-69.82-21.38-6.4-1.87-6-6.09-6-10.82l6.41-.21c2.29,3.21,5.79,3.78,9.33,4.64a1313.75,1313.75,0,0,1,135.82,40.78C923.71,1503.45,933.57,1507.68,944.54,1507.85Z"/><path class="f71bc3c9-241f-4445-946e-4bc9a9292db5" d="M1032.08,1748.67c-15.19,1.48-34.79-2.57-54.55-2.1-5.08.12-7.74-1-8.15-7a453.9,453.9,0,0,1,.37-61.16c.2-3,.64-5.74,3.78-7.13,9.38-4.12,28.07,5.25,30.44,15.72,2.6,11.52,4.5,23.19,6.76,34.79a58.73,58.73,0,0,0,1.79,7.29c2.66,7.85,5,17.65,15.33,16.52,9.67-1.07,11.32-10.86,13-19,2.19-10.59,2.38-21.34,2.65-32.13.39-15.81,14.48-27.21,28.65-24.56,7,1.31,9.87,4.86,9.83,11.62-.1,18.7-.24,37.41-.11,56.11.06,9-6,10.73-12.82,10.95C1058.28,1748.92,1047.48,1748.67,1032.08,1748.67Z"/><path class="f71bc3c9-241f-4445-946e-4bc9a9292db5" d="M1006.39,1664.2c14.56-4.23,29.32-1.69,44-1.35-21.75,12.79-20.21,34-20.22,54.88,0,3.71,2.56,10.35-3.43,10.53-4.63.14-4.47-6.45-5-10.47-1.7-12.4-3.55-24.81-4.37-37.28C1016.85,1672.47,1010.53,1669.28,1006.39,1664.2Z"/><path class="f71bc3c9-241f-4445-946e-4bc9a9292db5" d="M944.54,1507.85c-11-.17-20.83-4.4-30.92-8A1313.75,1313.75,0,0,0,777.8,1459c-3.54-.86-7-1.43-9.33-4.64-.32-22.64,1.59-45.32-1.37-67.92-1-7.86,5.14-5.92,8.63-5.12,10.47,2.41,21,4.91,31.06,8.71,40.4,15.33,82.12,26.34,123.49,38.44,9,2.62,11.37,6.84,11.39,16C941.7,1465.59,939.38,1486.93,944.54,1507.85Z"/><path class="a92418bd-614b-474f-9ee0-6b805cfd5579" d="M1299.8,1142.89c-16.34-1.78-31.85-8.21-48.44-8.43,0,0-155.36-23-197.21-29.89s-62.08-1.76-62.08-1.76L764.4,1136.89c-9.84,1.66-19.64,3.63-29.53,4.88-8.29,1-11.18,5.11-9.1,13,1.75-.06,3.59-.51,5.23-.11,73.23,18,147.32,32.41,220.1,52.33,9.29,2.54,18,1.19,27.9-.57,27.8-5,56.85-5.91,84.27.81,11.84,2.9,21.54,6.42,33.15,1.5,5.89-2.5,12.45-3.43,18.7-5.1,63.48-17,128.2-29.26,190.66-50.09C1308.52,1147.36,1306,1143.57,1299.8,1142.89Z"/><path class="e2110e0b-7f7f-41a5-9fcc-3052a63138e4" d="M1012.52,1729.08a58.73,58.73,0,0,1-1.79-7.29c-2.26-11.6-4.16-23.27-6.76-34.79-2.37-10.47-21.06-19.84-30.44-15.72-3.14,1.39-3.58,4.15-3.78,7.13-1,15.83-1.54,31.65-1,47.5,6.69,1.85,26.22,7.19,47.1,12.08A81.3,81.3,0,0,1,1012.52,1729.08Z"/><path class="e2110e0b-7f7f-41a5-9fcc-3052a63138e4" d="M1081.88,1737.64c-.13-18.7,0-37.41.11-56.11,0-6.76-2.83-10.31-9.83-11.62-14.17-2.65-28.26,8.75-28.65,24.56-.27,10.79-.46,21.54-2.65,32.13-1.15,5.54-2.29,11.84-5.94,15.64,19.2,4,36.51,6.53,42.61,4.51C1080.19,1745.22,1081.91,1742.49,1081.88,1737.64Z"/><path class="abfce3fd-5758-4452-b6d8-f07ebb7532ba" d="M703.42,1599.8a11.64,11.64,0,0,0-2.54-.22l2.55,4.24C703.42,1602.48,703.42,1601.14,703.42,1599.8Z"/><path class="e2110e0b-7f7f-41a5-9fcc-3052a63138e4" d="M1081.88,1737.64c-.13-18.7,0-37.41.11-56.11,0-6.76-2.83-10.31-9.83-11.62-14.17-2.65-28.26,8.75-28.65,24.56-.27,10.79-.46,21.54-2.65,32.13-1.15,5.54-2.29,11.84-5.94,15.64a11.11,11.11,0,0,1-7.07,3.36c-6.47.71-9.81-2.89-12-7.61a81.3,81.3,0,0,1-3.28-8.91,58.73,58.73,0,0,1-1.79-7.29c-2.26-11.6-4.16-23.27-6.76-34.79-2.37-10.47-21.06-19.84-30.44-15.72-3.14,1.39-3.58,4.15-3.78,7.13-1,14.48-1.06,39.49-.7,55.78.1,1.79.2,3.58.33,5.38v.07a31.84,31.84,0,0,0,1.07,4.24c1.26,2.25,3.61,2.77,7.08,2.69,19.76-.47,39.36,3.58,54.55,2.1,15.4,0,26.2.25,37-.08,3.18-.1,6.17-.52,8.47-1.84C1080.19,1745.22,1081.91,1742.49,1081.88,1737.64Z"/><path class="a5336e8a-fa74-4a21-8cab-f02ccbef4485" d="M1347.29,1630c-1.78-6.23-1.88-14-10.71-15.83,0,0-242.88,127.26-259,132.62-2.3,1.32-5.29,1.74-8.47,1.84-10.78.33-21.58.08-37,.08-15.19,1.48-34.79-2.57-54.55-2.1-3.47.08-5.82-.44-7.08-2.69a1.72,1.72,0,0,0,.35.68h.11s0,0-.11,0l-11.68-1.13c0-1.15,0-2.37,0-3.66-.31,6.4-2.76,7.44-9.85,4.19-55.13-25.3-110.75-49.54-165.47-75.71-26.47-12.66-50.07-30.87-76.37-44.17-3.47-1.76-4-4.69-4-8.11.05-4,0-8.1,0-12.15l-2.55-4.24a17.61,17.61,0,0,0-8.76,3c-5.74,3.59-11,9.5-6.18,16,7.88,10.58,15.83,21.48,27.29,28.83,59.95,38.5,121.41,74.37,185,106.48,40.17,20.28,83.14,28.32,127.59,31.46,26,1.83,49.23-6,71.25-17.61,66.93-35.13,135.55-66.85,202.9-101.11a377.92,377.92,0,0,0,39.86-23.65C1344.59,1639.8,1349.06,1636.18,1347.29,1630Z"/><path class="abfce3fd-5758-4452-b6d8-f07ebb7532ba" d="M1077.53,1746.75c16.17-5.36,259-132.62,259-132.62-7-1.47-7.93-6.54-8.18-13-.75-18.76,2.81-37.29,2.28-56-14.58,3.22-27.14,11.28-40.36,17.56-66.59,31.64-132.87,63.94-199.26,96-4.09,2-8.06,4.43-13.2,2.27l-25.47.83c-23.83,12.64-22.19,34.52-22.2,56,0,3.71,2.56,10.35-3.43,10.53-4.63.14-4.47-6.45-5-10.47-1.7-12.4-3.55-24.81-4.37-37.28-.52-8-6.84-11.23-11-16.31-15.76-4.21-31.83-1.85-47.77-2.19.07,14.14.19,39.24.33,59.73,0,3.18,0,6.25.06,9.15,0,2.2.06,4.41.1,6.61,0,.82,0,1.58,0,2.27,0,1.29,0,2.51,0,3.66l11.68,1.13a1.72,1.72,0,0,1-.35-.68,10.14,10.14,0,0,1-1.07-4.24c-.07-.34-.14-.71-.22-1.11,0-1.36-.08-2.81-.11-4.34-.36-16.29-.25-41.3.7-55.78.2-3,.64-5.74,3.78-7.13,9.38-4.12,28.07,5.25,30.44,15.72,2.6,11.52,4.5,23.19,6.76,34.79a58.73,58.73,0,0,0,1.79,7.29,81.3,81.3,0,0,0,3.28,8.91c2.24,4.72,5.58,8.32,12,7.61a11.11,11.11,0,0,0,7.07-3.36c3.65-3.8,4.79-10.1,5.94-15.64,2.19-10.59,2.38-21.34,2.65-32.13.39-15.81,14.48-27.21,28.65-24.56,7,1.31,9.87,4.86,9.83,11.62-.1,18.7-.24,37.41-.11,56.11C1081.91,1742.49,1080.19,1745.22,1077.53,1746.75Z"/><path class="fbd19f81-8b37-446e-aa29-e65835fcd937" d="M942.13,318.38c-37.84-3.79-47.76-10.71-66.62-12.77-44.14-4.83-105.15,21.56-147,67.79C689.33,416.66,667.33,478,672.31,534.45c3,33.52,13.58,71.13-6.91,99.39,7.81,3.64,17.56-3.14,23.4-11.07s10-17.49,17.39-23.72a43.66,43.66,0,0,1,21.39-9.49c25.63-4.84,75.33-35.72,98.59-50.18,79.9-49.64,71.1-194.43,122.92-207.87,11.2-2.9,29.75-.84,56.62,32.94l4.11-7.25c-4.85-8.9-13.09-20.75-26.78-28.85S956.77,319.86,942.13,318.38Z"/><path class="fdb1e4bd-3a7b-4d85-aaab-2f5e65ec4d57" d="M830.38,1127s173.37,101.43,371,0l-179.67-26.85Z"/><path class="ef8f7e4a-0542-4421-9ae8-5831d0347c42" d="M875.51,305.61c-39.35-4.3-92.08,16.21-132.72,53.45,13.68-7.5,27.93-13.77,43.08-17.36,26-6.17,55.38-3.43,76.45,13-40.94,20.4-73.44,54.41-102.07,90.09-16.42,20.46-32,41.95-42.09,66.18-9.12,22-13.44,45.56-20.4,68.29-5.59,18.23-13.15,36.35-25.52,51.08-1.2,1.44-2.35,2.9-3.47,4.38,7.09.79,15-5.17,20-12,5.85-7.92,10-17.49,17.39-23.72a43.66,43.66,0,0,1,21.39-9.49c25.63-4.84,75.33-35.72,98.59-50.18,79.9-49.64,71.1-194.43,122.92-207.87,11.2-2.9,29.75-.84,56.62,32.94l4.11-7.25c-4.85-8.9-13.09-20.75-26.78-28.85s-26.27-8.49-40.91-10C904.29,314.59,894.37,307.67,875.51,305.61Z"/><path class="fbd19f81-8b37-446e-aa29-e65835fcd937" d="M949.38,189.68l44.89,10.16q11.29,53.58,17.5,108.07,3,26.77,4.85,53.67c1.19,17.69,4.34,37.73,2.08,55.26-14.41.44-17-11.7-17-23.33-.06-16.9-.27-33.48-2.49-50.28-4.51-34.1-14.3-67.3-26.57-99.36C965.59,225.51,957.71,207.48,949.38,189.68Z"/><path class="bb21fecf-37e3-4359-b7cc-0e5921fc4f7a" d="M964.93,413.39c-1.34-3.42,18.7-22.22,43.81-20.41,24.51,1.77,37.58,22,39,24.22-40.19-4.71-62.09-4.54-74.84-3.31C969.57,414.21,965.46,414.74,964.93,413.39Z"/><path class="bb21fecf-37e3-4359-b7cc-0e5921fc4f7a" d="M1019.57,1127c-17.8.31-32.22-14.53-52.91-36.47a208.74,208.74,0,0,1-26.51-34.84c-30.19-9.09-77.82-28.27-120.19-70.5C717.48,883,736.54,736.45,739.62,712.77c8.65-66.52,35.76-119.09,54.58-146.85,22.24-32.81,53-61.68,53-61.68a301.65,301.65,0,0,1,23.32-20.13s5.46-4.29,38.22-32.51h0c22.22-14.43,31.68-22.72,36-27.74a48.06,48.06,0,0,1,8.51-7.61,38.43,38.43,0,0,1,13-5.7c12.24-3.11,24.46-2.17,30-1.6,3.51.36,41,4.52,72.3,20.46a38.31,38.31,0,0,1,5.79,3.48c12.59,9.29,11.92,21.81,18.53,32.42,8.24,13.24,19.12,9.53,37.58,22.22,13.84,9.51,20.47,20.36,31,37.42,58,93.74,61.22,94.75,68.1,115.44,9.56,28.78,11.52,51.91,13.17,68.81,3,31.27,13.63,181.86-90,288.32a300.87,300.87,0,0,1-60.68,47.91,215.83,215.83,0,0,1-17.92,31.34C1056.44,1102.46,1040,1126.66,1019.57,1127Z"/><path class="fbd19f81-8b37-446e-aa29-e65835fcd937" d="M794.2,565.92a298.4,298.4,0,0,0-39.56,67.21,340.12,340.12,0,0,0-11.82,33.27C732.36,702.51,705.16,872.55,820,985.21c19.59,19.22,57.9,51.08,120.19,70.5a208.74,208.74,0,0,0,26.51,34.84c20.69,21.94,35.11,36.78,52.91,36.47a28.64,28.64,0,0,0,11.82-2.91c-19.9-7.14-35.61-20.75-41.17-50.23-.46-2.4-.76-5,.38-7.18,1.46-2.76,4.75-3.89,7.74-4.79l52.9-15.81c-28.7-.5-75.4-5.16-125.53-29.48-111.1-53.89-149.67-161-158.42-188C724.62,696.5,783.5,585.33,794.2,565.92Z"/><path class="fbd19f81-8b37-446e-aa29-e65835fcd937" d="M1070.13,423.69c-16-10.38-39.26-13.21-73.89-14.74-10-.45-20.23-.87-30,1.6a38.43,38.43,0,0,0-13,5.7,56.94,56.94,0,0,0-8.51,7.61c-2.49,2.51-8,6.74-19,15.11-5,3.81-11.31,8.57-18.67,14a179.45,179.45,0,0,1,26.35-12.32c9.46-3.52,21-7.59,36.65-9.25a119.18,119.18,0,0,1,41.68,3.37c16.89,4.42,23.45,10.2,26.68,13.68a41.4,41.4,0,0,1,6.38,9.21c9.22,16.91,26.55,28.69,35,35.22,25,19.27,47,50.1,57,64.14,24.93,34.9,35.63,67.31,43.35,91.32,3,9.45,14.58,46.58,18.36,100.39,3.28,46.79,9,143.12-45.4,234.82a329.77,329.77,0,0,1-25.07,36.47,292.29,292.29,0,0,0,24.58-22.52c103.63-106.46,93-257,90-288.32a372.6,372.6,0,0,0-13.17-68.81s-19.17-64.57-63.76-121.52a232.58,232.58,0,0,0-23.16-26.06c-15-14.38-22-17.14-35.88-29.05C1080.24,441,1087.55,435,1070.13,423.69Z"/><path class="b4c079cc-d4e1-466c-86ea-3cdacf1bb702" d="M799.21,722.71c-3.33,64.36,21.55,112.13,30.84,127.5,8.59,14.22,18.33,28,31,38.74s28.53,18.36,45.14,18.68c8.42.17,17.23-1.72,23.66-7.15,7.16-6.06,10.43-15.76,10.66-25.14s-2.22-18.59-4.79-27.6c-15.44-54.3-36-108.8-33.14-165.17,1-19.57,4.86-39.22,2.16-58.64-1.68-12.08-7-25-18.13-29.94-5.89-2.6-12.67-2.58-19-1.2-18,3.93-29,18-36.76,28.41-12.48,16.82-17.45,32.47-21.77,46.51A228.8,228.8,0,0,0,799.21,722.71Z"/><path class="ad5bb25e-261b-453c-b124-291df4100599" d="M811.69,808.55c6.21,15.09,15.76,29.72,31.12,37.12,6.4,3.09,14.06,4.78,21.24,2.69,11.08-3.23,17.8-14.73,18.42-25.35s-3.49-20.67-7.27-30.47c-8.87-23-16.39-47.21-14.05-72.14.87-9.27,3.1-18.56,2.59-27.77s-4.37-18.74-12.84-23.15c-29.12-15.15-42.47,37.12-46,53.29C798.58,751.69,800.7,781.82,811.69,808.55Z"/><path class="b4c079cc-d4e1-466c-86ea-3cdacf1bb702" d="M1019.5,667.9q6.3,21.61,12.59,43.21c3,10.37,6.72,21.66,15.9,27.35,10,6.18,23.77,3.23,32.58-4.54s13.4-19.33,15.79-30.83c7.07-33.91-3.78-80.62-33.11-102.26C1016.33,566.22,1010.61,637.37,1019.5,667.9Z"/><g class="a7b81f1a-d69d-404d-9b79-4d8fa394a734"><path class="fbd19f81-8b37-446e-aa29-e65835fcd937" d="M769.93,622.12s41.81-77,153.13-107.68S980,411.8,980,411.8,757.62,472.06,769.93,622.12Z"/></g></svg>