<svg id="a8cd4896-ec3c-4aaa-a859-aa749890d8e4" data-name="Layer 1" xmlns="http://www.w3.org/2000/svg" viewBox="0 0 2000 2000"><defs><style>.b5409473-02f4-44fd-aba1-e82684a98094{fill:#bfc2cf;}.b297ab80-014f-4987-a349-2413ae17ddf3{fill:#9e9784;}.f75145ae-fe2f-4458-a554-cba183429c3b{fill:#ddd1bc;}.bbdf64d5-860d-4e32-b1f2-b3d725fb22e1{fill:#f3eadb;}.bd136328-6b36-48d2-97e4-e72ab9078ed3{fill:none;}.b75995ab-8e2a-4eb2-9e9f-a7489f10290d{fill:#9498a2;}</style></defs><path class="b5409473-02f4-44fd-aba1-e82684a98094" d="M1241.3,1348.93c34.69,3.38,69.14,7.44,101.82,21.09,57.39,24,99.25,65.15,131.67,117,10.6,17,17.75,35.32,19.44,55.42,2.69,32-11.59,56.75-35.35,76-32.7,26.54-67.26,50.5-105.45,68.83-70.89,34-144.79,59.8-220.4,81-31.48,8.82-63.16,17.25-95.47,21.76-36.29,5.07-72.92,5.26-109.64,2.66-70.14-4.94-136.71-26.1-203.71-44.61-31.33-8.66-61.09-23.28-91.16-36.14-53.65-23-106.32-47.87-154.21-81.74-16.22-11.47-31.26-24.3-43.13-40.3-25-33.77-23.89-71.88,2.1-106.77,16.95-22.76,39-39.42,63.49-52.61,59.62-32.14,123.23-53.35,189.67-66.19,3.86-.74,7.89-.58,11.85-.83,1.45,8.1-2.33,16.74,2.56,24.49.07,6.37,7,10.18,6.24,16.88-7.5,0-14.37,3-21.56,4.53-11.76,7.78-18.29,18.29-17.15,32.81,0,2.63-.07,5.25-.11,7.88-.46,5.94-5.73,5.62-9.37,6.43-4.14.92-6.4,2.3-5.8,6.76-1,17.52,1,34.93,1.86,52.38-4.19-.85-8.12.81-11.29,2.79-5.74,3.58-11,9.5-6.19,16,7.89,10.57,15.84,21.47,27.29,28.83,60,38.5,121.41,74.37,185.05,106.48,40.18,20.27,83.15,28.32,127.6,31.45,25.95,1.83,49.22-6,71.24-17.61,66.94-35.13,135.56-66.84,202.91-101.11a378.24,378.24,0,0,0,39.86-23.65c4.71-3.17,9.18-6.78,7.4-13s-1.87-14-10.71-15.84c-7-1.47-7.92-6.53-8.17-13-.75-18.76,2.81-37.3,2.28-56-.56-4.38-3.92-4.08-7-4-3.73.07-6.73-1-8.37-4.61,2.34-29.81-8.84-44.67-36.55-47.38l-2.58-2.52c5.64-10.36,10.62-20.74,9.11-33.23C1240.57,1362.55,1241.27,1355.7,1241.3,1348.93Z"/><path class="b297ab80-014f-4987-a349-2413ae17ddf3" d="M672.8,1450.12c0-2.63.07-5.25.11-7.88,6.26-1.4,12.09.38,18,2.31,57.48,18.94,112.47,44.06,168.07,67.67a572.7,572.7,0,0,0,68.33,24.35c-.53-6.38-1.14-11.64-1.36-16.91-.23-5.76-.11-11.52-.14-17.29-.2-20.66-.26-20.48-19.8-27.17-36.34-12.45-72.75-24.7-108.82-37.87-28.63-10.46-57.76-19.65-85.52-32.43.81-6.7-6.17-10.51-6.24-16.89a47.94,47.94,0,0,1,6.21,1.61c68.74,27.46,140.67,45.71,209.64,72.48,4.57,1.77,9.22,2.72,10.26-3.16,1.24-7,2.24-14.79-4.1-20.18-5-4.25-5.88-9.65-6.08-15.4-.83-23.69-1.42-47.37-2.26-71-1.14-32,1.06-27-27.74-35-62.55-17.3-126.06-31.12-187.92-51-1.4-3.43-2.23-6.88-.3-10.42,29.25,4.06,57.44,12.6,85.82,20.31q59.79,16.26,119.54,32.7c5.87,1.63,9,1,8.78-6-.26-7.92-.11-15.85-.19-23.77-.06-5.85-2.65-9.4-8.81-10.23-19.91-2.7-39.63-6.47-59.26-10.81-65.24-14.43-130.48-28.81-193.28-52.24,0-3.42,0-6.85,0-10.27,5.6,1.15,11.28,2,16.81,3.51,55.48,14.66,110.76,30.11,166.81,42.55,22.54,5,45.18,9.52,69.18,14.55-2-7.39-7.1-7.36-10.79-8.33-48.86-12.92-97.82-25.4-147.15-36.48-31.79-7.14-63-16.68-95.15-22.55-4.87-2.91-9.45-6.59-14.68-8.56-8.6-3.26-11.44-8.7-9-17.3a120.52,120.52,0,0,0,29.19,10.9q64.88,16,129.71,32.09c31.34,7.8,62.22,17.58,94.35,22,20,2.79,20,2.85,22.82-17.37,4.08-13.83,4.55-28.25,7-42.36,1.08-6.34-.19-10.86-7.68-12.82-21.49-5.64-42.92-11.48-64.58-16.49-53.05-12.28-106.8-21.78-158.61-39.1-3.64-9.54-1-19.51-2-29.23,1.75,0,3.59-.51,5.23-.11,73.23,18,147.32,32.41,220.1,52.33,9.28,2.55,18,1.19,27.9-.56,27.8-4.95,56.85-5.92,84.27.8,11.83,2.91,21.54,6.42,33.15,1.5,5.89-2.5,12.45-3.42,18.69-5.1,63.49-17,128.2-29.26,190.67-50.09-.36,10.38-.49,20.77-1.21,31.13-.35,5.11,2.85,7.63,5.66,10.89,9.74,11.32,21.43,21,29,34.12q-109.35,35.23-218.68,70.53a93,93,0,0,0-13.81,6.05c-3.28,1.68-6.19,4.22-5.2,8.52,1.19,5.2,5.68,3.75,8.89,3.4,7.47-.81,15-1.66,22.28-3.59,75-20,149.31-42.06,222.28-68.56,4.05,8.26,2.71,13.81-6.71,17.59-10.32,4.15-15.52,10.59-16,24-.87,23.06-17.07,38.08-37,47.69-7.23,3.49-9.77,7.23-10.19,14.85-1.5,27.63-.74,55.23.14,82.84,0,6.77-.73,13.62.08,20.28,1.51,12.49-3.47,22.87-9.11,33.23-25.26,7.35-49,18.59-73.37,28.29-35.71,14.23-71.6,28-107.33,42.24-6.74,2.68-18.67,5.94-15.91,12.7,3.71,9,13.17.69,19.48-1.81,60.85-24.13,119.75-52.73,179.71-78.9,27.71,2.71,38.89,17.57,36.55,47.38-2.21,1.19-4.36,2.55-6.66,3.54-42.92,18.47-85.43,37.82-127.26,58.62-35.41,17.61-71.14,34.4-108,48.65l-4.38-6.72-.27-58.59c1.92-9.86-4.65-11.86-12-12.19-22.26-1-44.53-1.63-66.8-2.53-7.58-.3-10.82,2.79-9.13,10.42-1.78,20.79,1.73,41.84-3,62.5l-5.88,5.11-2.14-.51c.39-4.66-.49-7.89-5.92-9.63-51-16.37-99.44-39.36-148.94-59.57C738.14,1478,704.67,1466,672.8,1450.12Zm244.07-248.39c-2.07,8.34-4.41,16.63-6.14,25-1.27,6.14,1.53,9.7,8.08,9.71q58.26,0,116.53,0c4.85,0,9.65-2.48,8.11-7.57-3-9.79-1.9-21-9.8-29.16-.36-13-5.16-25.1-7.17-37.76-.77-4.85-4.61-5.49-9-5.48-26.52.06-53,.07-79.55-.27-5.9-.07-9.16,2.2-11.7,7.28C920.2,1175.58,917.94,1188.49,916.87,1201.73Zm106.3,59.36c-15.33,17.56-25.62,47.81-26,75.13-.34,24.46,1,49-1.07,73.34-2,23.63-3.45,23.37,20,21.68,4.88-.35,7.07-1.76,7.2-6.9.31-12.18,1.64-24.36,1.54-36.53-.27-34.84-1.07-69.68-1.62-104.52C1023.08,1276.46,1023.17,1269.63,1023.17,1261.09Zm-82.75-13.37c9,6.27,14.1,13,17.48,20.84a194.07,194.07,0,0,1,13.22,45.38c4.64,28.5,4.09,57.26,4.2,86,0,6,0,12,4.4,17.49,4.17-3.2,3.9-7.5,4.48-11.67,3.31-23.63.92-47.42,2.17-71.08,1.23-23.35,3.36-46.52,16.56-67.14,4.36-6.81,10.18-12.55,14.78-19.81Zm-2,15.29c-1.12,1.66-1.78,2.18-1.78,2.7,0,47.1-.42,94.2.1,141.29.24,21.89,3.56,24.29,25.23,24.14.72,0,1.44,0,2.16,0,5.7.33,8.31-1.3,5.41-7.47-6.26-13.32-7.19-27.55-7.29-42-.16-24-1.26-48-6.4-71.58C952.31,1293.86,948.1,1277.73,938.43,1263Zm21.34,181.12c-3.67,0-4.77-.14-5.82,0-4.37.67-11.74-2.56-10.73,6,.8,6.7-5.71,16.4,8.85,18.55,20.09,3,40-3.59,59.93,1,4.16.95,10.53.41,8.13-5.84-2.3-5.94,4.21-17.29-8.14-17.54C993.7,1445.89,975.39,1446.57,959.77,1444.13ZM1062.1,1415c6.72,1.83,11.09.13,15.53-1.31,38.32-12.42,75.33-28.17,112.41-43.78,4.88-2,5.89-5.19,5.86-10.06-.15-20.87.26-41.74,0-62.6,0-4.4,3-12.15-3.47-12.37-5.11-.17-4.94,7.8-4.93,12.57,0,18.3-1.56,36.66,1.65,54.88,1.73,9.75-1.07,15.29-11.94,18.57-27.81,8.37-55.23,18.14-82.51,28.14C1083.89,1403,1072.26,1406,1062.1,1415Zm-85-276v0c11.88,0,23.76,0,35.64,0,2.69,0,6.55,1.15,7.36-2.57s-1.76-6.68-5.11-8.64c-2.65-1.54-5.54-1.14-8.39-1.39-21.14-1.86-42.19,4.61-63.4.44-5-1-8.15,2.9-8.43,7.78-.34,5.85,4.48,4.39,7.77,4.42C954,1139.06,965.54,1139,977.06,1139Z"/><path class="f75145ae-fe2f-4458-a554-cba183429c3b" d="M683.86,1099.91c51.81,17.32,105.56,26.82,158.61,39.1,21.66,5,43.09,10.85,64.58,16.49,7.49,2,8.76,6.48,7.68,12.82-2.42,14.11-2.89,28.53-7,42.36-14.13-5.5-29.47-5.56-43.9-9.67q-74.39-21.18-149.71-38.69c-22.52-5.21-45.64-8.35-67.4-16.71,10.5-11.6,20.87-23.31,31.58-34.71C681.38,1107.64,684,1104.59,683.86,1099.91Z"/><path class="f75145ae-fe2f-4458-a554-cba183429c3b" d="M703.39,1266.31c61.86,19.9,125.37,33.72,187.92,51,28.8,8,26.6,3,27.74,35,.84,23.68,1.43,47.36,2.26,71,.2,5.75,1.07,11.15,6.08,15.4,6.34,5.39,5.34,13.22,4.1,20.18-1,5.88-5.69,4.93-10.26,3.16-69-26.77-140.9-45-209.64-72.48a47.94,47.94,0,0,0-6.21-1.61c-4.89-7.74-1.11-16.38-2.56-24.48Zm202.79,157.81q2-32.68,4-65.38c.91-14.91-3.08-21.45-16.1-24.85q-79.67-20.79-157.46-47.69c-15.62-5.4-20.23-2.07-20.6,14.8-.35,15.44-.37,30.91.12,46.34.25,7.71-2.1,15.74,2,23.14-.09,4.74-.43,9,6,10.82,23.37,6.81,46.59,14.11,69.82,21.38,34.55,10.83,69.78,19.68,102.67,35.32,6.62,3.15,9.48.35,9.67-6.32C906.34,1429.16,906.21,1426.64,906.18,1424.12Z"/><path class="f75145ae-fe2f-4458-a554-cba183429c3b" d="M655.69,1205.89c62.8,23.43,128,37.81,193.28,52.24,19.63,4.34,39.35,8.11,59.26,10.81,6.16.83,8.75,4.38,8.81,10.23.08,7.92-.07,15.85.19,23.77.22,7-2.91,7.59-8.78,6q-59.72-16.55-119.54-32.7c-28.38-7.71-56.57-16.25-85.82-20.31-22.24-7.42-38.49-21.28-46.65-43.7C655.73,1210.26,655.92,1208,655.69,1205.89Z"/><path class="bbdf64d5-860d-4e32-b1f2-b3d725fb22e1" d="M646.75,1145.61c21.76,8.36,44.88,11.5,67.4,16.71q75.38,17.45,149.71,38.69c14.43,4.11,29.77,4.17,43.9,9.67-2.81,20.22-2.8,20.16-22.82,17.37-32.13-4.47-63-14.25-94.35-22q-64.83-16.14-129.71-32.09a120.52,120.52,0,0,1-29.19-10.9C633.81,1154.71,641,1150.75,646.75,1145.61Z"/><path class="f75145ae-fe2f-4458-a554-cba183429c3b" d="M1311.11,1161.94c-73,26.5-147.31,48.56-222.28,68.56-7.24,1.93-14.81,2.78-22.28,3.59-3.21.35-7.7,1.8-8.89-3.4-1-4.3,1.92-6.84,5.2-8.52a93,93,0,0,1,13.81-6.05q109.3-35.37,218.68-70.53C1301.59,1150.09,1309.42,1153.06,1311.11,1161.94Z"/><path class="f75145ae-fe2f-4458-a554-cba183429c3b" d="M655.41,1188.87c32.11,5.87,63.36,15.41,95.15,22.55,49.33,11.08,98.29,23.56,147.15,36.48,3.69,1,8.74.94,10.79,8.33-24-5-46.64-9.54-69.18-14.55-56.05-12.44-111.33-27.89-166.81-42.55-5.53-1.47-11.21-2.36-16.81-3.51C655.6,1193.37,655.51,1191.12,655.41,1188.87Z"/><path class="f75145ae-fe2f-4458-a554-cba183429c3b" d="M914.7,1577.89c.13,25.17,0,50.33.49,75.49.14,8.4-2,10.07-9.88,6.46-55.13-25.29-110.76-49.54-165.47-75.7-26.47-12.66-50.07-30.88-76.37-44.18-3.47-1.75-4-4.68-4-8.1.07-5.39,0-10.79,0-16.18-.83-17.44-2.86-34.85-1.87-52.37,26.37,12.14,52.85,24,79.08,36.48,47,22.25,93.53,45.51,142.1,64.23C890.78,1568.63,901.74,1575.87,914.7,1577.89Z"/><path class="bbdf64d5-860d-4e32-b1f2-b3d725fb22e1" d="M914.7,1577.89c-13-2-23.92-9.26-35.89-13.87-48.57-18.72-95.11-42-142.1-64.23-26.23-12.43-52.71-24.34-79.08-36.48-.6-4.46,1.66-5.84,5.8-6.76,3.64-.81,8.91-.49,9.37-6.43,31.87,15.84,65.34,27.9,98.22,41.32,49.5,20.21,97.91,43.2,148.94,59.57,5.43,1.74,6.31,5,5.92,9.63-5,2.47-7.23,6.44-6.88,12,2.74-4.14,8.32-5.93,9-11.48l5.88-5.11,91.15.39,4.38,6.71c1.46,5.07,11.39,6.32,6.45,14.28l-29.39,1.31c-14.7-.34-29.47-2.88-44,1.35C946.71,1575.88,930.64,1578.23,914.7,1577.89Z"/><path class="f75145ae-fe2f-4458-a554-cba183429c3b" d="M925.76,1502.37c0,5.77-.09,11.53.14,17.29.22,5.27.83,10.53,1.36,16.91a572.7,572.7,0,0,1-68.33-24.35c-55.6-23.61-110.59-48.73-168.07-67.67-5.86-1.93-11.69-3.71-18-2.31-1.14-14.52,5.39-25,17.15-32.81,0,3.3,1.79,5.26,4.63,6.57,11.06,5.11,21.64,11.15,33,15.67,34.24,13.6,69.15,25.32,103.89,37.54Q878.7,1485.77,925.76,1502.37Z"/><path class="bbdf64d5-860d-4e32-b1f2-b3d725fb22e1" d="M925.76,1502.37q-47.07-16.57-94.15-33.16c-34.74-12.22-69.65-23.94-103.89-37.54-11.39-4.52-22-10.56-33-15.67-2.84-1.31-4.67-3.27-4.63-6.57,7.19-1.48,14.06-4.51,21.56-4.53,27.76,12.78,56.89,22,85.52,32.43,36.07,13.17,72.48,25.42,108.82,37.87C925.5,1481.89,925.56,1481.71,925.76,1502.37Z"/><path class="f75145ae-fe2f-4458-a554-cba183429c3b" d="M1035.88,1577.42c4.94-8-5-9.21-6.45-14.28,36.91-14.24,72.64-31,108-48.64,41.83-20.8,84.34-40.15,127.26-58.62,2.3-1,4.45-2.35,6.66-3.54,1.64,3.62,4.64,4.68,8.37,4.61,3.07-.06,6.43-.36,7,4-14.58,3.23-27.15,11.28-40.36,17.56-66.59,31.65-132.87,63.94-199.26,96C1043.58,1576.26,1040.11,1578.33,1035.88,1577.42Z"/><path class="f75145ae-fe2f-4458-a554-cba183429c3b" d="M1234.85,1405c-60,26.17-118.86,54.77-179.71,78.9-6.31,2.5-15.77,10.84-19.48,1.81-2.76-6.76,9.17-10,15.91-12.7,35.73-14.21,71.62-28,107.33-42.24,24.36-9.7,48.11-20.94,73.37-28.29Z"/><path class="f75145ae-fe2f-4458-a554-cba183429c3b" d="M1025.05,1556.43,933.9,1556c4.69-20.66,1.18-41.71,3-62.5,29.44-1.27,58.69,1.37,87.92,4.3Z"/><path class="f75145ae-fe2f-4458-a554-cba183429c3b" d="M916.87,1201.73c1.07-13.24,3.33-26.15,9.37-38.22,2.54-5.08,5.8-7.35,11.7-7.28,26.52.34,53,.33,79.55.27,4.38,0,8.22.63,9,5.48,2,12.66,6.81,24.8,7.17,37.76a195.63,195.63,0,0,1-50.69,6.63C960.76,1206.45,938.91,1203.06,916.87,1201.73Z"/><path class="bbdf64d5-860d-4e32-b1f2-b3d725fb22e1" d="M916.87,1201.73c22,1.33,43.89,4.72,66.09,4.64a195.63,195.63,0,0,0,50.69-6.63c7.9,8.12,6.84,19.37,9.8,29.16,1.54,5.09-3.26,7.57-8.11,7.57q-58.26.1-116.53,0c-6.55,0-9.35-3.57-8.08-9.71C912.46,1218.36,914.8,1210.07,916.87,1201.73Z"/><path class="f75145ae-fe2f-4458-a554-cba183429c3b" d="M1023.17,1261.09c0,8.54-.09,15.37,0,22.2.55,34.84,1.35,69.68,1.62,104.52.1,12.17-1.23,24.35-1.54,36.53-.13,5.14-2.32,6.55-7.2,6.9-23.43,1.69-22,2-20-21.68,2-24.31.73-48.88,1.07-73.34C997.55,1308.9,1007.84,1278.65,1023.17,1261.09Z"/><path class="f75145ae-fe2f-4458-a554-cba183429c3b" d="M940.42,1247.72h77.29c-4.6,7.26-10.42,13-14.78,19.81-13.2,20.62-15.33,43.79-16.56,67.14-1.25,23.66,1.14,47.45-2.17,71.08-.58,4.17-.31,8.47-4.48,11.67-4.44-5.45-4.38-11.51-4.4-17.49-.11-28.73.44-57.49-4.2-86a194.07,194.07,0,0,0-13.22-45.38C954.52,1260.67,949.39,1254,940.42,1247.72Z"/><path class="f75145ae-fe2f-4458-a554-cba183429c3b" d="M938.43,1263c9.67,14.72,13.88,30.85,17.43,47.07,5.14,23.55,6.24,47.57,6.4,71.58.1,14.49,1,28.72,7.29,42,2.9,6.17.29,7.8-5.41,7.47-.72-.05-1.44,0-2.16,0-21.67.15-25-2.25-25.23-24.14-.52-47.09-.15-94.19-.1-141.29C936.65,1265.19,937.31,1264.67,938.43,1263Z"/><path class="f75145ae-fe2f-4458-a554-cba183429c3b" d="M959.77,1444.13c15.62,2.44,33.93,1.76,52.22,2.13,12.35.25,5.84,11.6,8.14,17.54,2.4,6.25-4,6.79-8.13,5.84-19.9-4.56-39.84,2-59.93-1-14.56-2.15-8.05-11.85-8.85-18.55-1-8.53,6.36-5.3,10.73-6C955,1444,956.1,1444.13,959.77,1444.13Z"/><path class="f75145ae-fe2f-4458-a554-cba183429c3b" d="M1062.1,1415c10.16-9,21.79-12,32.63-16,27.28-10,54.7-19.77,82.51-28.14,10.87-3.28,13.67-8.82,11.94-18.57-3.21-18.22-1.6-36.58-1.65-54.88,0-4.77-.18-12.74,4.93-12.57,6.46.22,3.42,8,3.47,12.37.23,20.86-.18,41.73,0,62.6,0,4.87-1,8-5.86,10.06-37.08,15.61-74.09,31.36-112.41,43.78C1073.19,1415.16,1068.82,1416.86,1062.1,1415Z"/><path class="f75145ae-fe2f-4458-a554-cba183429c3b" d="M977.06,1139c-11.52,0-23,.07-34.56,0-3.29,0-8.11,1.43-7.77-4.42.28-4.88,3.4-8.77,8.43-7.78,21.21,4.17,42.26-2.3,63.4-.44,2.85.25,5.74-.15,8.39,1.39,3.35,2,6,4.78,5.11,8.64s-4.67,2.55-7.36,2.57c-11.88.1-23.76,0-35.64,0Z"/><path class="bbdf64d5-860d-4e32-b1f2-b3d725fb22e1" d="M1024.78,1497.84c-29.23-2.93-58.48-5.57-87.92-4.3-1.69-7.63,1.55-10.72,9.13-10.42,22.27.9,44.54,1.5,66.8,2.53C1020.13,1486,1026.7,1488,1024.78,1497.84Z"/><path class="f75145ae-fe2f-4458-a554-cba183429c3b" d="M928,1561.15c-.7,5.55-6.28,7.34-9,11.48-.35-5.55,1.91-9.52,6.88-12Z"/><path class="b297ab80-014f-4987-a349-2413ae17ddf3" d="M718.14,1370.48c-4.11-7.4-1.76-15.43-2-23.14-.49-15.43-.47-30.9-.12-46.34.37-16.87,5-20.2,20.6-14.8q77.8,26.9,157.46,47.69c13,3.4,17,9.94,16.1,24.85q-2,32.7-4,65.38l-5.56-.38c-5.16-20.93-2.84-42.26-2.88-63.4,0-9.11-2.41-13.33-11.38-16-41.37-12.1-83.1-23.11-123.49-38.44-10-3.8-20.59-6.29-31.06-8.7-3.49-.8-9.67-2.74-8.63,5.12,3,22.59,1.05,45.27,1.37,67.92Z"/><path class="bbdf64d5-860d-4e32-b1f2-b3d725fb22e1" d="M900.62,1423.74l5.56.38c0,2.52.16,5,.09,7.56-.19,6.67-3,9.47-9.67,6.32-32.89-15.64-68.12-24.49-102.67-35.32-23.23-7.27-46.45-14.57-69.82-21.38-6.4-1.87-6.06-6.08-6-10.82l6.41-.2c2.29,3.21,5.79,3.78,9.33,4.64a1312.78,1312.78,0,0,1,135.81,40.77C879.79,1419.33,889.65,1423.56,900.62,1423.74Z"/><path class="f75145ae-fe2f-4458-a554-cba183429c3b" d="M988.16,1664.56c-15.19,1.48-34.8-2.58-54.55-2.11-5.08.13-7.74-1-8.16-7a452.12,452.12,0,0,1,.38-61.15c.19-3,.64-5.75,3.78-7.13,9.38-4.12,28.07,5.24,30.44,15.71,2.6,11.52,4.5,23.2,6.76,34.79a56.19,56.19,0,0,0,1.79,7.29c2.66,7.85,5,17.66,15.33,16.52,9.67-1.06,11.31-10.85,13-19,2.2-10.58,2.39-21.34,2.66-32.12.39-15.82,14.48-27.22,28.64-24.56,7,1.31,9.88,4.85,9.84,11.62-.1,18.7-.24,37.4-.11,56.1.06,9-6,10.74-12.82,11C1014.36,1664.8,1003.56,1664.56,988.16,1664.56Z"/><path class="f75145ae-fe2f-4458-a554-cba183429c3b" d="M962.47,1580.08c14.55-4.23,29.32-1.69,44-1.35-21.76,12.79-20.21,34-20.22,54.89,0,3.7,2.56,10.34-3.43,10.52-4.63.14-4.47-6.45-5-10.47-1.71-12.39-3.55-24.8-4.37-37.27C972.93,1588.36,966.61,1585.17,962.47,1580.08Z"/><path class="f75145ae-fe2f-4458-a554-cba183429c3b" d="M900.62,1423.74c-11-.18-20.83-4.41-30.93-8a1312.78,1312.78,0,0,0-135.81-40.77c-3.54-.86-7-1.43-9.33-4.64-.32-22.65,1.59-45.33-1.37-67.92-1-7.86,5.14-5.92,8.63-5.12,10.47,2.41,21,4.9,31.06,8.7,40.39,15.33,82.12,26.34,123.49,38.44,9,2.63,11.37,6.85,11.38,16C897.78,1381.48,895.46,1402.81,900.62,1423.74Z"/><path class="bbdf64d5-860d-4e32-b1f2-b3d725fb22e1" d="M1255.87,1058.77c-16.33-1.77-31.84-8.21-48.43-8.43,0,0-155.36-23-197.21-29.89s-62.08-1.75-62.08-1.75l-227.67,34.07c-9.84,1.66-19.64,3.64-29.53,4.88-8.29,1-11.18,5.12-9.1,13,1.75,0,3.59-.51,5.23-.11,73.23,18,147.32,32.41,220.1,52.34,9.28,2.54,18,1.18,27.9-.58,27.8-4.94,56.85-5.91,84.27.81,11.83,2.91,21.54,6.42,33.15,1.5,5.89-2.5,12.45-3.42,18.69-5.1,63.49-17,128.2-29.26,190.67-50.09C1264.59,1063.24,1262.1,1059.45,1255.87,1058.77Z"/><path class="bd136328-6b36-48d2-97e4-e72ab9078ed3" d="M968.6,1645a56.19,56.19,0,0,1-1.79-7.29c-2.26-11.59-4.16-23.27-6.76-34.79-2.37-10.47-21.06-19.83-30.44-15.71-3.14,1.38-3.59,4.14-3.78,7.13-1,15.83-1.54,31.65-1.05,47.49,6.68,1.86,26.22,7.19,47.09,12.09A82.73,82.73,0,0,1,968.6,1645Z"/><path class="bd136328-6b36-48d2-97e4-e72ab9078ed3" d="M1038,1653.52c-.13-18.7,0-37.4.11-56.1,0-6.77-2.83-10.31-9.84-11.62-14.16-2.66-28.25,8.74-28.64,24.56-.27,10.78-.46,21.54-2.66,32.12-1.15,5.54-2.28,11.84-5.93,15.64,19.2,4,36.51,6.54,42.6,4.52C1036.27,1661.11,1038,1658.37,1038,1653.52Z"/><path class="b297ab80-014f-4987-a349-2413ae17ddf3" d="M659.5,1515.68a11.62,11.62,0,0,0-2.54-.21l2.55,4.23C659.5,1518.36,659.5,1517,659.5,1515.68Z"/><path class="bd136328-6b36-48d2-97e4-e72ab9078ed3" d="M1038,1653.52c-.13-18.7,0-37.4.11-56.1,0-6.77-2.83-10.31-9.84-11.62-14.16-2.66-28.25,8.74-28.64,24.56-.27,10.78-.46,21.54-2.66,32.12-1.15,5.54-2.28,11.84-5.93,15.64a11.06,11.06,0,0,1-7.07,3.36c-6.47.72-9.81-2.88-12.06-7.6a82.73,82.73,0,0,1-3.27-8.92,56.19,56.19,0,0,1-1.79-7.29c-2.26-11.59-4.16-23.27-6.76-34.79-2.37-10.47-21.06-19.83-30.44-15.71-3.14,1.38-3.59,4.14-3.78,7.13-1,14.47-1.06,39.48-.7,55.77.09,1.8.2,3.59.32,5.38a.22.22,0,0,1,0,.08,33,33,0,0,0,1.06,4.24c1.27,2.24,3.61,2.77,7.09,2.68,19.75-.47,39.36,3.59,54.55,2.11,15.4,0,26.2.24,37-.09,3.17-.1,6.17-.52,8.46-1.83C1036.27,1661.11,1038,1658.37,1038,1653.52Z"/><path class="b75995ab-8e2a-4eb2-9e9f-a7489f10290d" d="M1303.36,1545.85c-1.77-6.23-1.87-14-10.71-15.84,0,0-242.87,127.26-259.05,132.63-2.29,1.31-5.29,1.73-8.46,1.83-10.78.33-21.58.09-37,.09-15.19,1.48-34.8-2.58-54.55-2.11-3.48.09-5.82-.44-7.09-2.68a1.68,1.68,0,0,0,.36.67h.1s0,0-.1,0l-11.69-1.12c0-1.15,0-2.38,0-3.66-.31,6.39-2.77,7.44-9.85,4.18-55.13-25.29-110.76-49.54-165.47-75.7-26.47-12.66-50.07-30.88-76.37-44.18-3.47-1.75-4-4.68-4-8.1,0-4,0-8.11,0-12.16l-2.55-4.23a17.52,17.52,0,0,0-8.76,3c-5.74,3.58-11,9.5-6.19,16,7.89,10.57,15.84,21.47,27.29,28.83,60,38.5,121.41,74.37,185.05,106.48,40.18,20.27,83.15,28.32,127.6,31.45,25.95,1.83,49.22-6,71.24-17.61,66.94-35.13,135.56-66.84,202.91-101.11a378.24,378.24,0,0,0,39.86-23.65C1300.67,1555.68,1305.14,1552.07,1303.36,1545.85Z"/><path class="b297ab80-014f-4987-a349-2413ae17ddf3" d="M1033.6,1662.64c16.18-5.37,259.05-132.63,259.05-132.63-7-1.47-7.92-6.53-8.17-13-.75-18.76,2.81-37.3,2.28-56-14.58,3.23-27.15,11.28-40.36,17.56-66.59,31.65-132.87,63.94-199.26,96-4.09,2-8.06,4.42-13.2,2.27l-25.47.83c-23.83,12.64-22.19,34.52-22.2,56,0,3.7,2.56,10.34-3.43,10.52-4.63.14-4.47-6.45-5-10.47-1.71-12.39-3.55-24.8-4.37-37.27-.52-8-6.84-11.23-11-16.32-15.76-4.2-31.83-1.85-47.77-2.19.07,14.14.19,39.24.32,59.73,0,3.18.05,6.26.07,9.16q0,3.3.1,6.6,0,1.23,0,2.28c0,1.28,0,2.51,0,3.66l11.69,1.12a1.68,1.68,0,0,1-.36-.67,10.31,10.31,0,0,1-1.06-4.24c-.07-.35-.14-.72-.22-1.11,0-1.36-.08-2.82-.11-4.35-.36-16.29-.25-41.3.7-55.77.19-3,.64-5.75,3.78-7.13,9.38-4.12,28.07,5.24,30.44,15.71,2.6,11.52,4.5,23.2,6.76,34.79a56.19,56.19,0,0,0,1.79,7.29,82.73,82.73,0,0,0,3.27,8.92c2.25,4.72,5.59,8.32,12.06,7.6a11.06,11.06,0,0,0,7.07-3.36c3.65-3.8,4.78-10.1,5.93-15.64,2.2-10.58,2.39-21.34,2.66-32.12.39-15.82,14.48-27.22,28.64-24.56,7,1.31,9.88,4.85,9.84,11.62-.1,18.7-.24,37.4-.11,56.1C1038,1658.37,1036.27,1661.11,1033.6,1662.64Z"/></svg>