<svg version="1.2" xmlns="http://www.w3.org/2000/svg" viewBox="0 0 1752 1752" width="1752" height="1752">
	<title>herald-svg</title>
	<defs>
		<clipPath clipPathUnits="userSpaceOnUse" id="cp1">
			<path d="m1175.87 1007.77c-16.34-1.78-31.84-8.21-48.43-8.43 0 0-155.36-23-197.21-29.89-41.85-6.89-62.08-1.76-62.08-1.76l-227.68 34.07c-9.84 1.66-19.63 3.64-29.52 4.88-8.29 1.04-11.19 5.11-9.1 13.03 1.75-0.06 3.59-0.51 5.23-0.11 73.23 18.02 147.32 32.41 220.1 52.33 9.29 2.54 18.04 1.19 27.9-0.57 27.8-4.95 56.85-5.91 84.27 0.81 11.84 2.9 21.54 6.42 33.15 1.5 5.89-2.5 12.45-3.43 18.7-5.1 63.48-16.98 128.2-29.26 190.66-50.09 2.74-6.21 0.25-10-5.98-10.68z"/>
		</clipPath>
		<clipPath clipPathUnits="userSpaceOnUse" id="cp2">
			<path d="m815.76 110.31c-3.1 2.16-3.59 6.54-1.08 9.37 6.55 7.36 13.47 22.99-6.2 49.42-29.1 39.11-24.56 49.11 0 59.57 24.56 10.46 85.04 21.37 94.14 21.37 9.1 0 36.37-5.03 62.75-24.57 26.38-19.54 27.29-35.46 22.74-43.19-4.55-7.73-20.01-25.92-24.1-35.02-4.09-9.1-14.1-83.22-70.94-85.49 0 0-24.1-6.82-33.2 5-7.71 10.03-29.17 33.14-44.11 43.54z"/>
		</clipPath>
		<clipPath clipPathUnits="userSpaceOnUse" id="cp3">
			<path d="m936.42 248.75c0 0 40.17 12.73 38.73 30.92 0 0 73.6-5 107.25-45.48 0 0-56.39-3.64-79.58-2.73-23.19 0.91-66.39 17.28-66.39 17.28z"/>
		</clipPath>
		<clipPath clipPathUnits="userSpaceOnUse" id="cp4">
			<path d="m915.5 256.87c0 0 33.5-30.01 90.8-47.3 0 0 27.29-12.28 33.65-17.74 0 0-9.55 40.02-16.37 41.38 0 0-15.92-9.55-28.65 18.19 0 0-30.01-12.73-79.43 5.46z"/>
		</clipPath>
		<clipPath clipPathUnits="userSpaceOnUse" id="cp5">
			<path d="m850.85 244.32c0 0-40.17 12.73-38.73 30.92 0 0-73.6-5-107.25-45.48 0 0 56.39-3.64 79.58-2.73 23.19 0.91 66.39 17.28 66.39 17.28z"/>
		</clipPath>
		<clipPath clipPathUnits="userSpaceOnUse" id="cp6">
			<path d="m871.77 252.44c0 0-33.5-30.01-90.8-47.3 0 0-27.29-12.28-33.65-17.74 0 0 9.55 40.02 16.37 41.38 0 0 15.92-9.55 28.65 18.19 0 0 30.01-12.73 79.43 5.46z"/>
		</clipPath>
		<clipPath clipPathUnits="userSpaceOnUse" id="cp7">
			<path d="m684.11 255.5c0 0 13.19-13.87 11.6 17.28l13.19 11.6c0 0 5.87-5.34 14.55-14.78 9.88-10.73 34.2-22.41 34.2-22.41l264.13 19.23c0 0 25.69 35.7 32.97 35.7 7.28 0 17.05-17.96 32.06-16.14 15.01 1.82 47.75-6.29 75.34 95.04 27.1 99.55 11.29 210.78 27.66 231.7 0 0-23.04-22.53-20.99-39.19 2.05-16.65-4.55-20.33-4.55-20.33 0 0-3.79 7.9-2.43 17.68 1.36 9.78 0.68 20.92 0.68 20.92 0 0-16.85-32.4-6.62-45.36 10.23-12.96 5.56-22.93-0.13-30.2-5.68-7.28-16.9-18.57-16.9-18.57 0 0-5.23 18.19-12.96 18.19 0 0 11.14-27.97 4.09-41.61-7.05-13.64-45.25-51.16-45.25-51.16 0 0 3.64 29.56-0.45 36.61 0 0-4.09-19.1-17.28-30.01-13.19-10.91-37.97-30.92-37.97-30.92 0 0 3.87 30.47 26.38 60.48 22.51 30.01 80.95 119.6 109.14 221.24 0 0 19.71 72.84 26.07 80.72 0 0-13.34-5.76-13.34-9.7 0 0-2.12 53.96 2.43 61.85 0 0-6.37-12.13-17.89-7.28-11.52 4.85-18.19-12.13-18.19-12.13 0 0-7.58 23.34-3.03 30.01 4.55 6.67 10.61 55.48 10.61 55.48 0 0-17.89-36.08-27.89-41.84-10-5.76-22.43-4.24-27.29-16.37-4.86-12.13-15.16-28.5-17.28-23.95-2.12 4.55 2.73 36.68 7.28 46.69 4.55 10 2.73 43.43 2.73 43.43 0 0-11.52-34.94-15.77-26.76-4.24 8.19 5.76 21.22 0.61 36.68-5.15 15.46-15.46 29.71-11.82 42.14 3.64 12.43 5.15 19.1 5.15 19.1 0 0-16.98-24.86-20.92-11.22-3.94 13.64-3.64 22.13-3.64 22.13 0 0-15.77-20.31-13.34-30.92 2.43-10.61-14.25-29.41-26.68-36.99 0 0 15.16 29.1 17.89 43.96 2.73 14.86-2.43 33.35 1.21 38.5 0 0-10.31-15.46-10.91-26.07-0.6-10.61-33.96-39.11-33.65-32.14 0.31 6.97 21.65 35.77 22.5 45.78 0.85 10 11.46 37.59 17.52 42.44 0 0-8.79 2.43-6.67 8.49 2.12 6.06 6.06 26.38 6.06 26.38 0 0-20.31-4.55-20.31-14.55 0 0-16.98 3.64-22.43-3.64-5.46-7.28-21.83-8.49-21.83-8.49 0 0-14.55 3.33-10.91 10.31 0 0-6.37 1.52-20.31-12.43-13.95-13.95-40.93-23.65-43.96-11.52-3.03 12.13-4.24 16.77-4.24 16.77 0 0-5.76-5.55-5.46-14.95 0.3-9.4-15.77-48.51-20.31-34.26-4.55 14.25-3.03 16.67-3.03 16.67 0 0-2.19-13.34-7.77-20.31-5.57-6.97-7.7-17.89-11.94-14.86-4.24 3.03-28.2 14.55-26.68 26.07 1.52 11.52 1.82 21.83 0 21.83 0 0-2.73-18.59-5.76-27.03-3.03-8.44-3.03-45.13-11.22-53.61 0 0 4.24 27.59-1.82 27.59 0 0 0.91-11.22-9.4-20.31-10.31-9.1-13.34-34.56-15.77-72.46-2.43-37.9-16.07-60.94-20.62-58.51-4.55 2.43 0 46.69 7.88 54.57 0 0-15.77-7.58-26.38-40.63 0 0 4.55 53.66-0.91 63.67-5.46 10 0.91 36.68 0.91 36.68 0 0-19.4-28.8-26.38-33.65-6.97-4.85-37.59-48.2-37.59-57.6 0-9.4-8.79-9.7-8.79-4.24v16.37c0 0-10.91-25.73-9.1-29.69 1.82-3.96 4.85-46.41-5.76-41.86-10.61 4.55-21.22 34.26-21.22 34.26 0 0 3.64-31.23 7.28-40.63 3.64-9.4 11.82-52.18 20.31-58.83 8.49-6.65 96.56-102.15 110.66-113.98 14.1-11.82 107.4-90.95 28.2-208.73 0 0-12.13 28.2-18.65 26.68-6.52-1.52-12.28-15.99-15.92-11.44-3.64 4.55 3.64 15.46-7.5 29.79-11.14 14.32-27.51 29.56-16.83 67.08 0 0-20.69-23.19-16.83-44.57 0 0-8.64-0.45-5.46 20.01 3.18 20.46-19.33 22.28-20.24 37.06-0.91 14.78 0 17.51 0 17.51 0 0-12.96-25.92-7.96-39.34 5-13.42 3.26-23.8-1.89-23.8-5.15 0-11.22 9.4-6.67 35.77 4.55 26.38 24.25 63.36 18.49 80.34-5.76 16.98-6.97 44.87-5.46 47.3 1.52 2.43-3.03-27.76-11.52-26.46-8.49 1.3-11.82 11.69-11.82 11.69 0 0 3.33-34.04 0.61-40.41-2.72-6.37-28.2-47.9-24.56-53.66 0 0-20.01 15.16-26.98 2.73-6.97-12.43-21.53 13.04-21.53 13.04 0 0 12.43-24.86 10.91-39.72-1.52-14.86-19.71-43.05-13.34-69.12 6.37-26.07 20.77-43.66 35.32-60.94 14.55-17.28 80.27-100.96 80.27-100.96z"/>
		</clipPath>
	</defs>
	<style>
		.s0 { fill: #bfc2cf } 
		.s1 { fill: #9e9784 } 
		.s2 { fill: #ddd1bc } 
		.s3 { fill: #f3eadb } 
		.s4 { fill: none } 
		.s5 { fill: #9498a2 } 
		.s6 { fill: #9d9683 } 
		.s7 { fill: #b0aa8e } 
		.s8 { fill: #39372e } 
		.s9 { opacity: .6;fill: #504d3c } 
		.s10 { fill: #504d3c } 
	</style>
	<g id="Layer">
		<path id="Layer" class="s0" d="m1161.3 1297.9c34.7 3.4 69.2 7.5 101.8 21.1 57.4 24 99.3 65.2 131.7 117 10.6 17 17.7 35.3 19.4 55.4 2.7 32-11.6 56.8-35.3 76.1-32.7 26.5-67.3 50.5-105.5 68.8-70.9 34-144.8 59.8-220.4 81-31.4 8.8-63.1 17.2-95.4 21.7-36.3 5.1-73 5.3-109.7 2.7-70.1-4.9-136.7-26.1-203.7-44.6-31.3-8.7-61.1-23.3-91.2-36.1-53.6-23-106.3-47.9-154.2-81.8-16.2-11.4-31.2-24.3-43.1-40.3-25-33.7-23.9-71.8 2.1-106.7 16.9-22.8 39-39.5 63.5-52.6 59.6-32.2 123.2-53.4 189.7-66.2 3.8-0.8 7.9-0.6 11.8-0.9 1.5 8.1-2.3 16.8 2.6 24.5 0 6.4 7 10.2 6.2 16.9-7.5 0-14.4 3.1-21.5 4.5-11.8 7.8-18.3 18.3-17.2 32.8q0 4-0.1 7.9c-0.5 6-5.7 5.6-9.4 6.5-4.1 0.9-6.4 2.3-5.8 6.7-1 17.5 1.1 34.9 1.9 52.4-4.2-0.9-8.1 0.8-11.3 2.8-5.7 3.6-11 9.5-6.2 16 7.9 10.5 15.9 21.4 27.3 28.8 60 38.5 121.4 74.4 185.1 106.5 40.1 20.2 83.1 28.3 127.6 31.4 25.9 1.8 49.2-6 71.2-17.6 66.9-35.1 135.6-66.8 202.9-101.1 13.9-7 27-15 39.9-23.7 4.7-3.1 9.1-6.7 7.4-13-1.8-6.2-1.9-13.9-10.7-15.8-7-1.5-8-6.5-8.2-13-0.8-18.8 2.8-37.3 2.3-56-0.6-4.4-4-4.1-7-4.1-3.8 0.1-6.8-0.9-8.4-4.6 2.4-29.8-8.8-44.6-36.5-47.4q-1.3-1.2-2.6-2.5c5.6-10.3 10.6-20.7 9.1-33.2-0.8-6.7-0.1-13.5-0.1-20.3z"/>
		<path id="Layer" fill-rule="evenodd" class="s1" d="m592.8 1399.1q0 0 0 0 0 0 0 0zm0.1-7.8c6.3-1.4 12.1 0.4 18 2.3 57.4 18.9 112.4 44 168 67.7 22.1 9.3 44.5 17.6 68.4 24.3-0.6-6.4-1.2-11.6-1.4-16.9-0.2-5.8-0.1-11.5-0.1-17.3-0.2-20.7-0.3-20.5-19.8-27.2-36.4-12.4-72.8-24.7-108.9-37.8-28.6-10.5-57.7-19.7-85.5-32.5 0.8-6.7-6.1-10.5-6.2-16.9 2.1 0.6 4.2 0.9 6.2 1.6 68.7 27.5 140.7 45.8 209.6 72.5 4.6 1.8 9.2 2.7 10.3-3.1 1.2-7 2.2-14.8-4.1-20.2-5-4.3-5.9-9.7-6.1-15.4-0.8-23.7-1.4-47.4-2.2-71.1-1.2-31.9 1-27-27.8-34.9-62.5-17.3-126-31.2-187.9-51.1-1.4-3.4-2.2-6.9-0.3-10.4 29.3 4.1 57.4 12.6 85.8 20.3 39.9 10.9 79.7 21.7 119.6 32.7 5.8 1.7 9 1 8.7-5.9-0.2-8-0.1-15.9-0.2-23.8 0-5.9-2.6-9.4-8.8-10.2-19.9-2.7-39.6-6.5-59.2-10.9-65.3-14.4-130.5-28.8-193.3-52.2q0-5.1 0-10.3c5.6 1.2 11.3 2.1 16.8 3.5 55.5 14.7 110.8 30.2 166.8 42.6 22.6 5 45.2 9.5 69.2 14.5-2.1-7.4-7.1-7.3-10.8-8.3-48.9-12.9-97.8-25.4-147.1-36.5-31.8-7.1-63.1-16.7-95.2-22.5-4.9-2.9-9.4-6.6-14.7-8.6-8.6-3.2-11.4-8.7-9-17.3 9.2 5.1 19 8.4 29.2 10.9q64.8 16 129.7 32.1c31.3 7.8 62.2 17.6 94.3 22.1 20 2.7 20 2.8 22.8-17.4 4.1-13.9 4.6-28.3 7-42.4 1.1-6.3-0.2-10.8-7.7-12.8-21.5-5.6-42.9-11.5-64.6-16.5-53-12.3-106.8-21.8-158.6-39.1-3.6-9.5-1-19.5-2-29.2 1.8-0.1 3.6-0.5 5.3-0.1 73.2 18 147.3 32.4 220.1 52.3 9.2 2.5 18 1.2 27.9-0.6 27.8-4.9 56.8-5.9 84.2 0.8 11.9 2.9 21.6 6.5 33.2 1.5 5.9-2.5 12.4-3.4 18.7-5.1 63.5-16.9 128.2-29.2 190.6-50.1-0.3 10.4-0.4 20.8-1.2 31.2-0.3 5.1 2.9 7.6 5.7 10.9 9.7 11.3 21.4 21 29 34.1-72.9 23.5-145.8 46.9-218.6 70.5-4.8 1.6-9.4 3.8-13.9 6.1-3.2 1.7-6.1 4.2-5.2 8.5 1.2 5.2 5.7 3.7 8.9 3.4 7.5-0.8 15.1-1.7 22.3-3.6 75-20 149.3-42 222.3-68.5 4 8.2 2.7 13.8-6.7 17.5-10.3 4.2-15.5 10.6-16 24.1-0.9 23-17.1 38-37.1 47.7-7.2 3.4-9.7 7.2-10.2 14.8-1.5 27.6-0.7 55.2 0.2 82.8 0 6.8-0.7 13.6 0.1 20.3 1.5 12.5-3.5 22.9-9.1 33.2-25.3 7.4-49.1 18.6-73.4 28.3-35.7 14.3-71.6 28.1-107.3 42.3-6.8 2.7-18.7 5.9-15.9 12.7 3.7 9 13.1 0.7 19.4-1.8 60.9-24.1 119.8-52.8 179.7-78.9 27.8 2.7 38.9 17.5 36.6 47.4-2.2 1.2-4.4 2.5-6.7 3.5-42.9 18.5-85.4 37.8-127.2 58.6-35.4 17.6-71.2 34.4-108.1 48.7q-2.2-3.4-4.3-6.8-0.2-29.3-0.3-58.6c1.9-9.8-4.7-11.8-12-12.2-22.3-1-44.5-1.6-66.8-2.5-7.6-0.3-10.8 2.8-9.1 10.4-1.8 20.8 1.7 41.9-3 62.5q-2.9 2.6-5.9 5.1-1-0.2-2.1-0.5c0.4-4.6-0.5-7.9-5.9-9.6-51.1-16.4-99.5-39.4-149-59.6-32.9-13.4-66.3-25.4-98.2-41.3q0.1-3.9 0.1-7.8zm244-240.5c-2.1 8.3-4.4 16.6-6.2 25-1.3 6.2 1.6 9.7 8.1 9.7 38.8 0 77.7 0.1 116.5 0 4.9 0 9.7-2.5 8.1-7.6-2.9-9.7-1.9-21-9.8-29.1-0.3-13-5.1-25.1-7.1-37.8-0.8-4.8-4.6-5.5-9-5.5-26.5 0.1-53.1 0.1-79.6-0.2-5.9-0.1-9.1 2.2-11.7 7.3-6 12-8.3 24.9-9.3 38.2zm106.3 59.3q0 0 0 0 0 0 0 0zm-26 75.2c-0.4 24.4 0.9 49-1.1 73.3-2 23.6-3.4 23.4 20 21.7 4.9-0.4 7-1.8 7.2-6.9 0.3-12.2 1.6-24.4 1.5-36.5-0.3-34.9-1.1-69.7-1.6-104.6-0.1-6.8 0-13.6 0-22.1-15.4 17.5-25.6 47.8-26 75.1zm-56.8-88.5q0 0 0 0zm17.5 20.8c6.3 14.6 10.7 29.7 13.2 45.4 4.7 28.5 4.1 57.2 4.2 86 0 6 0 12 4.4 17.5 4.2-3.2 3.9-7.5 4.5-11.7 3.3-23.6 0.9-47.4 2.2-71.1 1.2-23.3 3.3-46.5 16.5-67.1 4.4-6.8 10.2-12.6 14.8-19.8h-77.2c8.9 6.2 14 12.9 17.4 20.8zm-19.5-5.6c-1.1 1.7-1.7 2.2-1.7 2.7-0.1 47.1-0.5 94.2 0.1 141.3 0.2 21.9 3.5 24.3 25.2 24.2 0.7 0 1.4 0 2.2 0 5.7 0.3 8.3-1.3 5.4-7.5-6.3-13.3-7.2-27.5-7.3-42-0.2-24-1.3-48-6.4-71.6-3.6-16.2-7.8-32.3-17.5-47.1zm21.4 181.2c-3.7 0-4.8-0.2-5.8 0-4.4 0.6-11.8-2.6-10.8 5.9 0.8 6.7-5.7 16.4 8.9 18.6 20.1 3 40-3.6 59.9 1 4.2 0.9 10.5 0.4 8.1-5.9-2.3-5.9 4.3-17.3-8.1-17.5-18.3-0.4-36.6 0.3-52.2-2.1zm102.3-29.1c6.7 1.8 11.1 0.1 15.5-1.3 38.4-12.5 75.4-28.2 112.5-43.8 4.8-2.1 5.8-5.2 5.8-10.1-0.1-20.8 0.3-41.7 0-62.6 0-4.4 3-12.1-3.4-12.3-5.1-0.2-5 7.8-5 12.5 0.1 18.3-1.5 36.7 1.7 54.9 1.7 9.8-1.1 15.3-11.9 18.6-27.9 8.3-55.3 18.1-82.6 28.1-10.8 4-22.4 6.9-32.6 16zm-85-276.1q0 0 0 0c11.9 0 23.7 0 35.6-0.1 2.7 0 6.6 1.2 7.4-2.5 0.8-3.9-1.8-6.7-5.1-8.7-2.7-1.5-5.6-1.1-8.4-1.4-21.1-1.8-42.2 4.7-63.4 0.5-5-1-8.2 2.9-8.4 7.8-0.4 5.8 4.4 4.4 7.7 4.4 11.5 0.1 23.1 0 34.6 0z"/>
		<path id="Layer" class="s2" d="m603.9 1048.9c51.8 17.3 105.5 26.8 158.6 39.1 21.6 5 43.1 10.9 64.6 16.5 7.5 2 8.7 6.5 7.6 12.8-2.4 14.1-2.8 28.6-6.9 42.4-14.2-5.5-29.5-5.6-43.9-9.7-49.6-14.1-99.5-27-149.8-38.7-22.5-5.2-45.6-8.3-67.3-16.7 10.5-11.6 20.8-23.3 31.5-34.7 3.1-3.2 5.7-6.3 5.6-11z"/>
		<path id="Layer" fill-rule="evenodd" class="s2" d="m623.4 1215.3c61.9 19.9 125.4 33.7 187.9 51 28.8 8 26.6 3 27.7 35 0.9 23.7 1.5 47.4 2.3 71 0.2 5.8 1.1 11.2 6.1 15.5 6.3 5.4 5.3 13.2 4.1 20.1-1.1 5.9-5.7 5-10.3 3.2-68.9-26.8-140.9-45-209.6-72.5-2-0.8-4.2-1.1-6.2-1.6-4.9-7.7-1.1-16.4-2.6-24.5q0.3-48.6 0.6-97.2zm202.8 157.8q1.9-32.7 3.9-65.4c1-14.9-3-21.4-16.1-24.8q-79.6-20.8-157.4-47.7c-15.6-5.4-20.2-2.1-20.6 14.8-0.4 15.4-0.4 30.9 0.1 46.3 0.3 7.8-2.1 15.8 2 23.2-0.1 4.7-0.4 8.9 6 10.8 23.4 6.8 46.6 14.1 69.8 21.4 34.6 10.8 69.8 19.7 102.7 35.3 6.6 3.2 9.4 0.3 9.6-6.3 0.1-2.5 0-5.1 0-7.6z"/>
		<path id="Layer" class="s2" d="m575.7 1154.9c62.8 23.4 128 37.8 193.3 52.2 19.6 4.4 39.3 8.1 59.2 10.8 6.2 0.9 8.8 4.4 8.8 10.3 0.1 7.9 0 15.8 0.2 23.7 0.3 7-2.9 7.6-8.8 6-39.8-11-79.6-21.8-119.5-32.7-28.4-7.7-56.6-16.2-85.8-20.3-22.2-7.4-38.5-21.3-46.6-43.7-0.7-1.9-0.6-4.2-0.8-6.3z"/>
		<path id="Layer" class="s3" d="m566.8 1094.6c21.7 8.4 44.8 11.5 67.4 16.7 50.2 11.7 100.1 24.6 149.7 38.7 14.4 4.1 29.7 4.2 43.9 9.7-2.9 20.2-2.8 20.1-22.9 17.4-32.1-4.5-63-14.3-94.3-22.1q-64.8-16.1-129.7-32.1c-10.2-2.5-20-5.9-29.2-10.9 2.1-8.3 9.3-12.2 15.1-17.4z"/>
		<path id="Layer" class="s2" d="m1231.1 1110.9c-73 26.5-147.3 48.6-222.3 68.6-7.2 1.9-14.8 2.8-22.2 3.6-3.2 0.3-7.7 1.8-8.9-3.4-1-4.3 1.9-6.9 5.2-8.5 4.4-2.3 9-4.6 13.8-6.1 72.8-23.6 145.7-47 218.7-70.5 6.2 4.5 14 7.4 15.7 16.3z"/>
		<path id="Layer" class="s2" d="m575.4 1137.9c32.1 5.8 63.4 15.4 95.2 22.5 49.3 11.1 98.2 23.6 147.1 36.5 3.7 1 8.7 0.9 10.8 8.3-24-5-46.6-9.5-69.2-14.5-56-12.5-111.3-27.9-166.8-42.6-5.5-1.4-11.2-2.3-16.8-3.5q-0.1-3.4-0.3-6.7z"/>
		<path id="Layer" class="s2" d="m834.7 1526.9c0.1 25.2 0 50.3 0.5 75.5 0.1 8.4-2 10-9.9 6.4-55.1-25.3-110.7-49.5-165.5-75.7-26.5-12.6-50.1-30.8-76.3-44.1-3.5-1.8-4.1-4.7-4-8.1 0.1-5.4 0-10.8 0-16.2-0.9-17.5-2.9-34.9-1.9-52.4 26.4 12.2 52.9 24.1 79.1 36.5 47 22.2 93.5 45.5 142.1 64.2 12 4.6 22.9 11.9 35.9 13.9z"/>
		<path id="Layer" class="s3" d="m834.7 1526.9c-13-2-23.9-9.3-35.9-13.9-48.6-18.7-95.1-42-142.1-64.2-26.2-12.4-52.7-24.3-79.1-36.5-0.6-4.4 1.7-5.8 5.8-6.7 3.7-0.9 8.9-0.5 9.4-6.5 31.9 15.9 65.3 27.9 98.2 41.3 49.5 20.3 97.9 43.2 149 59.6 5.4 1.7 6.3 5 5.9 9.6-5 2.5-7.3 6.5-6.9 12 2.7-4.1 8.3-5.9 9-11.4q3-2.6 5.9-5.2 45.6 0.2 91.1 0.4 2.2 3.4 4.4 6.7c1.5 5.1 11.4 6.4 6.5 14.3q-14.7 0.7-29.4 1.3c-14.7-0.3-29.5-2.8-44 1.4-15.8-4.2-31.9-1.9-47.8-2.2z"/>
		<path id="Layer" class="s2" d="m845.8 1451.4c0 5.7-0.1 11.5 0.1 17.3 0.2 5.2 0.8 10.5 1.4 16.9-23.9-6.8-46.3-15-68.4-24.4-55.6-23.6-110.6-48.7-168-67.7-5.9-1.9-11.7-3.7-18-2.3-1.1-14.5 5.4-25 17.2-32.8-0.1 3.3 1.7 5.3 4.6 6.6 11 5.1 21.6 11.2 33 15.7 34.2 13.6 69.2 25.3 103.9 37.5q47.1 16.6 94.1 33.2z"/>
		<path id="Layer" class="s3" d="m845.8 1451.4q-47.1-16.6-94.2-33.2c-34.7-12.2-69.6-23.9-103.9-37.5-11.4-4.5-21.9-10.6-33-15.7-2.8-1.3-4.7-3.3-4.6-6.6 7.2-1.4 14-4.5 21.5-4.5 27.8 12.8 56.9 22 85.6 32.4 36 13.2 72.4 25.4 108.8 37.9 19.5 6.7 19.6 6.5 19.8 27.2z"/>
		<path id="Layer" class="s2" d="m955.9 1526.4c4.9-7.9-5-9.2-6.5-14.3 36.9-14.2 72.7-31 108.1-48.6 41.8-20.8 84.3-40.2 127.2-58.6 2.3-1 4.5-2.4 6.7-3.6 1.6 3.7 4.6 4.7 8.4 4.6 3 0 6.4-0.3 7 4.1-14.6 3.2-27.2 11.3-40.4 17.5-66.6 31.7-132.9 64-199.3 96-3.5 1.8-7 3.8-11.2 2.9z"/>
		<path id="Layer" class="s2" d="m1154.8 1354c-59.9 26.1-118.8 54.7-179.7 78.9-6.3 2.5-15.7 10.8-19.4 1.8-2.8-6.8 9.1-10.1 15.9-12.7 35.7-14.3 71.6-28 107.3-42.3 24.4-9.7 48.1-20.9 73.4-28.3q1.3 1.3 2.5 2.6z"/>
		<path id="Layer" class="s2" d="m945 1505.4q-45.5-0.2-91.1-0.4c4.7-20.6 1.2-41.7 3-62.5 29.4-1.2 58.6 1.4 87.9 4.3q0.1 29.3 0.2 58.6z"/>
		<path id="Layer" class="s2" d="m836.9 1150.7c1-13.2 3.3-26.1 9.3-38.2 2.6-5.1 5.8-7.3 11.7-7.3 26.6 0.4 53.1 0.4 79.6 0.3 4.4 0 8.2 0.6 9 5.5 2 12.6 6.8 24.8 7.2 37.7-16.6 4.5-33.4 6.6-50.7 6.7-22.2 0-44.1-3.4-66.1-4.7z"/>
		<path id="Layer" class="s3" d="m836.9 1150.7c22 1.4 43.9 4.8 66.1 4.7 17.2-0.1 34-2.2 50.7-6.6 7.8 8.1 6.8 19.3 9.8 29.1 1.5 5.1-3.3 7.6-8.2 7.6-38.8 0.1-77.6 0-116.5 0-6.5 0-9.3-3.6-8.1-9.7 1.8-8.4 4.1-16.7 6.2-25.1z"/>
		<path id="Layer" class="s2" d="m943.2 1210.1c0 8.5-0.1 15.4 0 22.2 0.5 34.8 1.3 69.7 1.6 104.5 0.1 12.2-1.2 24.4-1.5 36.5-0.2 5.2-2.3 6.6-7.2 6.9-23.4 1.7-22 2-20-21.6 2-24.3 0.7-48.9 1.1-73.4 0.4-27.3 10.6-57.5 26-75.1z"/>
		<path id="Layer" class="s2" d="m860.4 1196.7h77.3c-4.6 7.3-10.4 13-14.8 19.8-13.2 20.7-15.3 43.8-16.5 67.2-1.3 23.6 1.1 47.4-2.2 71.1-0.6 4.1-0.3 8.4-4.5 11.6-4.4-5.4-4.4-11.5-4.4-17.5-0.1-28.7 0.5-57.5-4.2-86-2.5-15.6-6.9-30.8-13.2-45.3-3.4-7.9-8.5-14.6-17.5-20.9z"/>
		<path id="Layer" class="s2" d="m858.4 1212c9.7 14.7 13.9 30.9 17.4 47.1 5.2 23.5 6.3 47.5 6.5 71.6 0.1 14.4 1 28.7 7.2 42 2.9 6.2 0.3 7.8-5.4 7.5q-1-0.1-2.1-0.1c-21.7 0.2-25-2.2-25.3-24.1-0.5-47.1-0.1-94.2-0.1-141.3 0-0.5 0.7-1 1.8-2.7z"/>
		<path id="Layer" class="s2" d="m879.8 1393.1c15.6 2.5 33.9 1.8 52.2 2.2 12.3 0.2 5.8 11.6 8.1 17.5 2.4 6.3-3.9 6.8-8.1 5.8-19.9-4.5-39.8 2-59.9-0.9-14.6-2.2-8.1-11.9-8.9-18.6-1-8.5 6.4-5.3 10.8-5.9 1-0.2 2.1-0.1 5.8-0.1z"/>
		<path id="Layer" class="s2" d="m982.1 1364c10.2-9 21.8-12 32.6-15.9 27.3-10 54.7-19.8 82.5-28.2 10.9-3.2 13.7-8.8 12-18.5-3.2-18.3-1.6-36.6-1.7-54.9 0-4.8-0.2-12.8 5-12.6 6.4 0.2 3.4 8 3.4 12.4 0.3 20.8-0.2 41.7 0 62.6 0 4.9-1 8-5.9 10-37 15.6-74.1 31.4-112.4 43.8-4.4 1.5-8.8 3.2-15.5 1.3z"/>
		<path id="Layer" class="s2" d="m897.1 1088c-11.6 0-23.1 0.1-34.6-0.1-3.3 0-8.1 1.5-7.8-4.4 0.3-4.9 3.4-8.8 8.5-7.8 21.2 4.2 42.2-2.3 63.4-0.4 2.8 0.2 5.7-0.2 8.3 1.4 3.4 1.9 6 4.8 5.2 8.6-0.9 3.7-4.7 2.6-7.4 2.6-11.9 0.1-23.8 0-35.7 0q0 0.1 0 0.1z"/>
		<path id="Layer" class="s3" d="m944.8 1446.8c-29.3-2.9-58.5-5.5-87.9-4.3-1.7-7.6 1.5-10.7 9.1-10.4 22.3 0.9 44.5 1.5 66.8 2.5 7.3 0.4 13.9 2.4 12 12.2z"/>
		<path id="Layer" class="s2" d="m848 1510.2c-0.7 5.5-6.3 7.3-9 11.4-0.4-5.5 1.9-9.5 6.9-12q1 0.3 2.1 0.6z"/>
		<path id="Layer" class="s1" d="m638.1 1319.5c-4.1-7.4-1.7-15.5-2-23.2-0.5-15.4-0.4-30.9-0.1-46.3 0.4-16.9 5-20.2 20.6-14.8q77.8 26.9 157.5 47.7c13 3.4 17 9.9 16.1 24.8q-2 32.7-4 65.4-2.8-0.2-5.6-0.4c-5.1-20.9-2.8-42.2-2.9-63.4 0-9.1-2.4-13.3-11.3-15.9-41.4-12.1-83.1-23.1-123.5-38.5-10-3.8-20.6-6.3-31.1-8.7-3.5-0.8-9.6-2.7-8.6 5.2 2.9 22.6 1 45.2 1.4 67.9q-3.3 0.1-6.5 0.2z"/>
		<path id="Layer" class="s3" d="m820.6 1372.7q2.8 0.2 5.6 0.4c0 2.6 0.1 5.1 0.1 7.6-0.2 6.7-3.1 9.5-9.7 6.3-32.9-15.6-68.1-24.5-102.7-35.3-23.2-7.3-46.4-14.6-69.8-21.4-6.4-1.9-6-6.1-6-10.8q3.2-0.1 6.5-0.2c2.2 3.2 5.7 3.8 9.3 4.6 46 11.2 91.3 24.7 135.8 40.8 10.1 3.6 20 7.9 30.9 8z"/>
		<path id="Layer" class="s2" d="m908.2 1613.6c-15.2 1.4-34.8-2.6-54.6-2.1-5.1 0.1-7.7-1.1-8.1-7-1.5-20.4-1-40.8 0.3-61.2 0.2-3 0.7-5.7 3.8-7.1 9.4-4.1 28.1 5.2 30.4 15.7 2.7 11.5 4.6 23.2 6.8 34.8 0.5 2.4 1 4.9 1.8 7.3 2.6 7.8 5 17.6 15.3 16.5 9.7-1.1 11.3-10.9 13-19 2.2-10.6 2.4-21.3 2.7-32.1 0.4-15.8 14.5-27.2 28.6-24.6 7 1.3 9.9 4.9 9.9 11.6-0.1 18.7-0.3 37.4-0.1 56.1 0 9.1-6 10.8-12.9 11-10.7 0.3-21.5 0.1-36.9 0.1z"/>
		<path id="Layer" class="s2" d="m882.5 1529.1c14.5-4.3 29.3-1.7 44-1.4-21.8 12.8-20.2 34.1-20.2 54.9 0 3.7 2.5 10.4-3.5 10.6-4.6 0.1-4.4-6.5-5-10.5-1.7-12.4-3.5-24.8-4.3-37.3-0.6-8-6.9-11.2-11-16.3z"/>
		<path id="Layer" class="s2" d="m820.6 1372.7c-10.9-0.1-20.8-4.4-30.9-8-44.5-16.1-89.8-29.6-135.8-40.8-3.5-0.8-7-1.4-9.3-4.6-0.4-22.7 1.6-45.3-1.4-67.9-1-7.9 5.1-6 8.6-5.2 10.5 2.5 21.1 4.9 31.1 8.7 40.4 15.4 82.1 26.4 123.5 38.5 8.9 2.6 11.3 6.8 11.3 15.9 0.1 21.2-2.2 42.5 2.9 63.4z"/>
		<path id="Layer" class="s3" d="m1175.9 1007.8c-16.4-1.8-31.9-8.2-48.5-8.5 0 0-155.3-23-197.2-29.9-41.8-6.8-62.1-1.7-62.1-1.7l-227.6 34.1c-9.9 1.6-19.7 3.6-29.6 4.8-8.2 1.1-11.1 5.2-9.1 13.1 1.8-0.1 3.6-0.5 5.3-0.1 73.2 18 147.3 32.4 220.1 52.3 9.3 2.5 18 1.2 27.9-0.6 27.8-4.9 56.8-5.9 84.2 0.8 11.9 2.9 21.6 6.5 33.2 1.5 5.9-2.5 12.4-3.4 18.7-5.1 63.5-16.9 128.2-29.2 190.7-50.1 2.7-6.2 0.2-10-6-10.6z"/>
		<path id="Layer" class="s4" d="m888.6 1594c-0.8-2.4-1.3-4.9-1.8-7.3-2.2-11.6-4.1-23.3-6.7-34.8-2.4-10.5-21.1-19.9-30.5-15.7-3.1 1.3-3.6 4.1-3.8 7.1-1 15.8-1.5 31.6-1 47.5 6.7 1.8 26.2 7.2 47.1 12.1-1.3-2.8-2.3-6-3.3-8.9z"/>
		<path id="Layer" class="s4" d="m958 1602.5c-0.2-18.7 0-37.4 0.1-56.1 0-6.7-2.9-10.3-9.9-11.6-14.1-2.6-28.2 8.8-28.6 24.6-0.3 10.8-0.5 21.5-2.7 32.1-1.1 5.5-2.2 11.8-5.9 15.6 19.2 4 36.5 6.6 42.6 4.5 2.7-1.5 4.4-4.2 4.4-9.1z"/>
		<path id="Layer" class="s1" d="m579.5 1464.7q-1.3-0.3-2.5-0.2l2.5 4.2q0-2 0-4z"/>
		<path id="Layer" class="s4" d="m958 1602.5c-0.2-18.7 0-37.4 0.1-56.1 0-6.7-2.9-10.3-9.9-11.6-14.1-2.6-28.2 8.8-28.6 24.6-0.3 10.8-0.5 21.5-2.7 32.1-1.1 5.5-2.2 11.8-5.9 15.6-1.7 1.8-4 3-7.1 3.4-6.4 0.7-9.8-2.9-12-7.6-1.4-2.8-2.3-6-3.3-8.9-0.8-2.4-1.3-4.9-1.8-7.3-2.2-11.6-4.1-23.3-6.7-34.8-2.4-10.5-21.1-19.9-30.5-15.7-3.1 1.3-3.6 4.1-3.8 7.1-0.9 14.5-1 39.5-0.7 55.8q0.2 2.6 0.4 5.3 0 0.1 0 0.1c0.4 2.4 0.8 3.6 1 4.3 1.3 2.2 3.6 2.7 7.1 2.7 19.8-0.5 39.4 3.5 54.6 2.1 15.4 0 26.2 0.2 36.9-0.1 3.2-0.1 6.2-0.6 8.5-1.9 2.7-1.5 4.4-4.2 4.4-9.1z"/>
		<path id="Layer" class="s5" d="m1223.4 1494.8c-1.8-6.2-1.9-13.9-10.8-15.8 0 0-242.8 127.3-259 132.6-2.3 1.4-5.3 1.8-8.5 1.9-10.7 0.3-21.5 0.1-36.9 0.1-15.2 1.4-34.8-2.6-54.6-2.1-3.5 0-5.8-0.5-7.1-2.7 0.2 0.4 0.3 0.6 0.4 0.6h0.1c0 0-0.1 0.1-0.1 0l-11.7-1.1q0-1.7 0-3.6c-0.4 6.4-2.8 7.4-9.9 4.1-55.1-25.3-110.7-49.5-165.5-75.7-26.4-12.6-50-30.8-76.3-44.1-3.5-1.8-4.1-4.7-4-8.1 0-4.1 0-8.1 0-12.2l-2.5-4.2c-3.3 0-6.3 1.4-8.8 3-5.7 3.6-11 9.5-6.2 16 7.9 10.5 15.9 21.4 27.3 28.8 60 38.5 121.4 74.4 185.1 106.5 40.1 20.2 83.1 28.3 127.6 31.4 25.9 1.8 49.2-6 71.2-17.6 66.9-35.1 135.5-66.8 202.9-101.1 13.8-7 27-15 39.9-23.7 4.7-3.1 9.1-6.7 7.4-13z"/>
		<path id="Layer" class="s1" d="m953.6 1611.6c16.2-5.3 259-132.6 259-132.6-7-1.4-7.9-6.5-8.1-13-0.8-18.8 2.8-37.3 2.3-56-14.6 3.2-27.2 11.3-40.4 17.5-66.6 31.7-132.9 64-199.3 96-4.1 2-8 4.5-13.2 2.3-8.9 0.3-16.5 0.5-25.4 0.8-23.9 12.7-22.2 34.5-22.2 56 0 3.7 2.5 10.4-3.5 10.5-4.6 0.2-4.4-6.4-5-10.4-1.7-12.4-3.5-24.8-4.4-37.3-0.5-8-6.8-11.2-10.9-16.3-15.8-4.2-31.9-1.9-47.8-2.2 0.1 14.1 0.2 39.2 0.3 59.7 0 3.2 0.1 6.3 0.1 9.2q0 3.3 0.1 6.6 0 1.2 0 2.2 0 2 0 3.7l11.7 1.1c-0.1 0-0.2-0.2-0.4-0.6-0.6-1.1-0.9-2.4-1-4.3q-0.1-0.5-0.3-1.1 0-2-0.1-4.3c-0.3-16.3-0.2-41.3 0.7-55.8 0.2-3 0.7-5.7 3.8-7.1 9.4-4.1 28.1 5.2 30.4 15.7 2.7 11.5 4.6 23.2 6.8 34.8 0.5 2.4 1 4.9 1.8 7.3 1 2.9 1.9 6.1 3.3 8.9 2.2 4.7 5.6 8.3 12 7.6 3.1-0.3 5.4-1.6 7.1-3.4 3.6-3.8 4.8-10.1 5.9-15.6 2.2-10.6 2.4-21.3 2.7-32.1 0.4-15.8 14.5-27.2 28.6-24.6 7 1.3 9.9 4.9 9.9 11.6-0.1 18.7-0.3 37.4-0.1 56.1 0 4.9-1.7 7.6-4.4 9.1z"/>
		<g id="Clip-Path" clip-path="url(#cp1)">
			<g id="Layer">
				<path id="Layer" class="s6" d="m611 1006.7c0 0 105.3-10.3 115.7 1.5 10.3 11.8 20.6 27.2 20.6 27.2 0 0-3.2-27.7 20.1-17 23.2 10.8 33 36.9 45.8 36.9 0 0-22.4-21.5-9.7-29.1 12.7-7.7 26.9 15.3 26.9 15.3 0 0-6.4-25.2 9.8-27.9 8-1.4 14.5 37.6 14.5 37.6 0 0 1.9-27.5 10-22.2 8.1 5.4 11.7 8.4 11.7 8.4 0 0 8.4-34.2 26.7-14.8 0 0-5.4-28.4 16.9-20.1 22.3 8.3 34.2 6.6 32.7 17.9 0 0 11.4-7 16.5-5.2 5.1 1.9 40.7 9.7 35.4 23.7 0 0-5.8 4.3-2.7-11.5 2.7-14.2 27.2-1.4 49.2 0.7 0 0-19.9-20 4.6-19.9 24.5 0.1 41.8 19.9 41.8 19.9 0 0-19.1-35.5 13.6-31.2 32.8 4.4 0-67.2 0-67.2l-328.6-25.1-156.8 72.5c0 0-14.8 29.6-14.7 29.6z"/>
			</g>
		</g>
	</g>
	<g id="Layer">
		<path id="Layer" class="s7" d="m1091.3 288.3l26.9 15.2c0 0 9.5-14.3 20-15 10.4-0.7 22 2.7 25-1.4 2.9-4.1 9.1-20.9 15.7-21.4 0 0-0.5-6.7-8.9-2.5-8.3 4.1-10.9 11.1-12.4 10.7 0 0-5 1-2.5-3.9 2.5-4.9 8.1-7.5 8.5-10.6 0.5-3 0-15.7-5.5-21-5.4-5.3-6.5 7.3-6.5 7.3 0 0 1.6 10.3 0 12.6-1.6 2.3-10.4 7.7-10.4 7.7l3.7-18.7-26.8 8.2c0 0-16 19.3-21.3 2.6-5.3-16.7-10.8-16.4-13-13.8-2.3 2.6-1.7 11.7 0 21.7 1.6 10-1.9 16.9 7.5 22.2z"/>
		<g id="Layer">
			<path id="Layer" class="s8" d="m843.3 991.6c0 0.9 0.2 1.2 0.2 1.2 0 0-0.1-0.4-0.2-1.2z"/>
			<path id="Layer" fill-rule="evenodd" class="s8" d="m1177.3 751.5q0 0.1 0 0.2 0-0.2 0-0.2zm0 0.2c-0.1 3.6-1.9 53.4 2.4 61.5-0.8-1.4-7.1-11.6-17.8-7.1-11.5 4.8-18.2-12.1-18.2-12.1 0 0-7.6 23.3-3 30 4.5 6.6 10.6 55.4 10.6 55.4 0 0-17.9-36-27.9-41.8-10-5.8-22.5-4.2-27.3-16.4-4.9-12.1-15.2-28.5-17.3-23.9-2.1 4.5 2.7 36.7 7.3 46.7 4.5 10 2.7 43.4 2.7 43.4 0 0-11.5-34.9-15.8-26.8-4.2 8.2 5.8 21.3 0.7 36.7-5.2 15.5-15.5 29.7-11.9 42.2 3.7 12.4 5.2 19.1 5.2 19.1 0 0-17-24.9-20.9-11.3-4 13.7-3.7 22.2-3.7 22.2 0 0-15.7-20.3-13.3-30.9 2.4-10.7-14.3-29.5-26.7-37 0 0 15.2 29.1 17.9 43.9 2.7 14.6-2.3 32.8 1 38.3-1.3-2-10.1-16-10.7-25.8-0.6-10.7-34-39.2-33.7-32.2 0.4 7 21.7 35.8 22.5 45.8 0.9 10 11.5 37.6 17.6 42.4 0 0-8.8 2.5-6.7 8.5 2.1 6.1 6.1 26.4 6.1 26.4 0 0-20.4-4.5-20.4-14.5 0 0-16.9 3.6-22.4-3.7-5.4-7.3-21.8-8.5-21.8-8.5 0 0-14.6 3.4-10.9 10.3 0 0-6.4 1.6-20.3-12.4-14-13.9-41-23.6-44-11.5-3 12.1-4.2 16.8-4.2 16.8 0 0-5.8-5.6-5.5-15 0.3-9.4-15.8-48.5-20.3-34.3-3 9.4-3.4 13.7-3.3 15.5-0.7-3.5-3-13.4-7.5-19.1-5.6-7-7.7-17.9-11.9-14.9-4.3 3.1-28.2 14.6-26.7 26.1 1.5 11.5 1.8 21.8 0 21.8 0 0-2.8-18.5-5.8-27-3-8.4-3-45.1-11.2-53.6 0 0 4.2 27.6-1.8 27.6 0 0 0.9-11.2-9.4-20.3-10.3-9.1-13.4-34.6-15.8-72.5-2.4-37.9-16.1-60.9-20.6-58.5-4.6 2.4 0 46.7 7.9 54.6 0 0-15.8-7.6-26.4-40.6 0 0 4.5 53.6-0.9 63.6-5.5 10 0.9 36.7 0.9 36.7 0 0-19.4-28.8-26.4-33.6-7-4.9-37.6-48.3-37.6-57.6 0-9.4-8.8-9.7-8.8-4.3v16.4c0 0-10.9-25.7-9.1-29.7 1.8-4 4.9-46.4-5.7-41.9-10.6 4.6-21.3 34.3-21.3 34.3 0 0 3.7-31.2 7.3-40.6 3.7-9.4 11.8-52.2 20.3-58.9 8.5-6.6 96.6-102.1 110.7-113.9 14.1-11.9 107.4-91 28.2-208.8 0 0-12.1 28.2-18.7 26.7-6.5-1.5-12.2-16-15.9-11.4-3.6 4.5 3.7 15.4-7.5 29.8-11.1 14.3-27.5 29.5-16.8 67 0 0-20.7-23.2-16.8-44.5 0 0-8.7-0.5-5.5 20 3.2 20.4-19.3 22.3-20.2 37-0.9 14.8 0 17.5 0 17.5 0 0-13-25.9-8-39.3 5-13.4 3.3-23.8-1.9-23.8-5.1 0-11.2 9.4-6.7 35.8 4.6 26.4 24.3 63.3 18.5 80.3-4.2 12.4-5.6 29.7-6 40.4-1.6-8.2-5.5-20.4-10.9-19.6-8.5 1.3-11.9 11.7-11.9 11.7 0 0 3.4-34 0.6-40.4-2.7-6.3-28.2-47.9-24.5-53.6 0 0-20 15.1-27 2.7-7-12.4-21.5 13-21.5 13 0 0 12.4-24.8 10.9-39.7-1.5-14.8-19.7-43-13.4-69.1 6.4-26.1 20.8-43.7 35.4-60.9 14.5-17.3 80.2-101 80.2-101 0 0 13.2-13.9 11.6 17.3l13.2 11.6c0 0 6.8-4.6 14.6-14.8 7.7-10.2 117.3-77.8 117.3-77.8l181 74.6c0 0 25.7 35.7 33 35.7 7.2 0 17-17.9 32-16.1 15 1.8 47.8-6.3 75.4 95 27.1 99.6 11.3 210.8 27.6 231.7 0 0-23-22.5-21-39.2 2.1-16.6-4.5-20.3-4.5-20.3 0 0-3.8 7.9-2.4 17.7 1.3 9.8 0.6 20.9 0.6 20.9 0 0-16.8-32.4-6.6-45.4 10.2-12.9 5.6-22.9-0.1-30.2-5.7-7.2-16.9-18.5-16.9-18.5 0 0-5.2 18.2-13 18.2 0 0 11.2-28 4.1-41.7-7-13.6-45.2-51.1-45.2-51.1 0 0 3.6 29.5-0.5 36.6 0 0-4.1-19.1-17.3-30-13.2-10.9-37.9-30.9-37.9-30.9 0 0 3.8 30.4 26.3 60.4 22.6 30.1 81 119.6 109.2 221.3 0 0 19.7 72.8 26.1 80.7 0 0-12.9-5.6-13.4-9.5zm-155.8 232.3q-0.1-0.1-0.2-0.2 0.2 0.2 0.2 0.2zm158.3-170.6q-0.1-0.1-0.1-0.2 0.1 0.2 0.1 0.2zm-522.1-80.7c-7.9-3.9-12.9 8.6-15 13.6q-0.1 0.3-0.2 0.6c-1.4 4.2 3.6 7.7 7.3 5.2 1.7-1.2 4.3-2.9 7.9-5.4 8.9-6.3 7.9-10.1 0-14zm30.6 74.3c-1.1-19.1-10-16.2-15.6-11.4-5.6 4.9-9.4 20.6-2 31.1 7.4 10.5 15-7.4 15-7.4 0 0 0.8-4.9 3.1 1.3 2.2 6.2 7.7 2.9 8.6-7.4 0.9-10.3-9.1-6.2-9.1-6.2zm23.3-21.1c-5 1.2-6.6 6.9-4 10.6 0.6 0.9 1.7 1.5 2.8 1.7 3 0.6 9.1 1.2 9.6-3.6 0.6-6.4-2.6-10-8.4-8.7zm38.7-42.8c1.6-3.5 0-7.8-5.1-8.2-3.8-0.3-6.3 8-7.4 12.6-0.5 1.8-0.2 3.8 0.6 5.5 1.2 2.6 10.3-6.4 11.9-9.9zm55.9 135.4c-9.4-17.9-20.3-22.9-24.1-7.6-3.8 15.4-2.7 27.6 8.7 42.8 0 0 10.1 12.7 15.4 5 5.3-7.7 9.4-22.3 0-40.2zm18.1-18.5c-1.7-6.5-10.5-5.4-11.1 4-0.6 9.4 9.1 12.4 9.1 12.4 6.7 1.8 3.6-9.8 2-16.4zm11 35.2c3.2 18 2 30.3 1.6 40-0.5 9.7 8.1 25.5 17.3 15.8 9.1-9.7-18.9-55.8-18.9-55.8zm123.6 83.3q-0.9-0.9-1.6-1.6c-6.6-7-17.8-6.4-23.7 1.1-3.3 4.2-5.2 9.1-2.6 13.9 6.7 12.4 12.9 10.6 16.5 12.7 3.6 2.2 12.4 12 16.8 5.4 4.4-6.7 3.2-22.4-5.4-31.5zm16.1 10.1c-2.9-0.5-5.3 2.3-4.5 5.1 0.8 2.6 1.6 6 1.6 9.1 0 6.1 6 17 11.6 14.4 5.7-2.6 8.1-9.4 2.2-17.4-4.3-5.9-6.6-10.4-10.9-11.2zm140.8-179.2c1.2-3.6-1.7-6.4-7.3-5.9-3.8 0.3-1.9 4.7-0.2 7.5 0.9 1.5 2.8 2.2 4.4 1.5 1.2-0.5 2.5-1.5 3.1-3.1zm13.3-33c-0.9-4.6-7.3-7.6-12.3 6.2-5 13.8 9.6 17.3 9.6 17.3 7 2.1 3.6-19 2.7-23.5zm32.5-47.3c-5.8 6.6 1.6 18.2 1.6 18.2 4.6 4.7 8.7-4.1 9-13.1 0.3-8.9-4.9-11.8-10.6-5.1z"/>
		</g>
		<path id="Layer" class="s9" d="m871.8 866.7v9.8c0 0 9.9-13 17.6 10.9 0 0 0.4-31.4 21.8-24.6 0 0 3-37 21.2-9.1 0 0 5-24.8 22.7-3.1 0 0-9.1-24.1-2.7-31.9 6.4-7.7 5-22.5 5-22.5 0 0-0.4 22.8 2.1 27.5 2.5 4.8 11.3 13.9 11.3 13.9 0 0-8.4-29.1 4.3-31.8l8.5-67.8c0 0 1.3 51.8 8.2 58 0 0 0.9-16.4 5-10.9 4.1 5.4 2.6 30 2.6 30 0 0 11.5-4.3 12.8-9.1 1.4-4.8-32.4-363.2-32.4-363.2l6.3-186-131.9-48.6-50.7 55.5c0 0 61.8 144.6 76.4 206.4 14.5 61.9 21.2 117.6 21.2 117.6l2.5 63.4c0 0-6.1 124.9-7.6 134.3-1.6 9.4-24.2 81.3-24.2 81.3z"/>
		<path id="Layer" class="s8" d="m809.5 287.3c0 0 34.6 31.8 42.8 32.2 5.6 0.3-13.3-29.7-23-41.3-9.7-11.5 11.2 0 18.8 4.6 7.5 4.5 30.3 17.9 47.3 7.6 16.9-10.3 31.2-34.6 43.3-31.9 12.1 2.8-34 27.3-32.7 47 0 0 10.9-0.3 19.1-6.9 8.2-6.7 40.3-20.7 40.6-14.3 0.3 6.4-13 60.6-8.2 64.3 4.9 3.6 21.2-63.7 26.7-64 5.5-0.3-28.5-43.6-28.5-43.6l-101.5-15.5-48.6 20 4 41.8z"/>
		<path id="Layer" class="s7" d="m983.8 269.6c0 0-16.5 124.1-6.1 226.9 10.4 102.8 26.8 315.6 26.8 315.6 5.9 1.7 10.8 5.8 13.4 11.3l6.6 14.2c0 0-10-43.7-9.1-74.6 0.9-30.9-24-292.9-25.2-312-1.2-19.1-7.4-152.8 5.2-181.4z"/>
		<path id="Layer" class="s7" d="m809.5 269.6c0 0 105.6 211.5 101.6 371.5-3.9 160.1-21.1 212.9-39.3 225.6 0 0 4.3-9.7-11.4-5.8 0 0 41.8-21.5 36.5-250.7 0 0 3.9-116.4-99.8-340.6h12.4z"/>
		<path id="Layer" class="s10" d="m815.8 110.3c-3.1 2.2-3.6 6.5-1.1 9.4 6.5 7.3 13.5 23-6.2 49.4-29.1 39.1-24.6 49.1 0 59.6 24.5 10.4 85 21.3 94.1 21.3 9.1 0 36.4-5 62.8-24.5 26.4-19.6 27.3-35.5 22.7-43.2-4.5-7.7-20-25.9-24.1-35-4.1-9.1-14.1-83.3-70.9-85.5 0 0-24.1-6.8-33.2 5-7.7 10-29.2 33.1-44.1 43.5z"/>
		<g id="Clip-Path" clip-path="url(#cp2)">
			<g id="Layer">
				<path id="Layer" class="s7" d="m808 121.8c0 0 28.7-20.9 35.5-16.8 6.8 4.1 8.6 30.6 8.6 30.6 0 0-27.9-6.3-29.7 10.1-1.7 16.5 18.4 28.8 18.4 28.8l45.6-75.9c0 0 15.2-35 29.1-35 13.9 0-67.5-19.1-67.5-19.1l-55 47.3v24.1l15 5.9z"/>
			</g>
		</g>
		<path id="Layer" class="s10" d="m915.5 256.9c0 0 33.5-30 90.8-47.3 0 0 27.3-12.3 33.7-17.8 0 0-9.6 40-16.4 41.4 0 0-15.9-9.5-28.7 18.2 0 0-30-12.7-79.4 5.5z"/>
		<path id="Layer" class="s10" d="m936.4 248.8c0-0.1 40.2 12.7 38.7 30.9 0 0 73.6-5 107.3-45.5 0 0-56.4-3.6-79.6-2.7-23.2 0.9-66.4 17.2-66.4 17.2z"/>
		<g id="Clip-Path" clip-path="url(#cp3)">
			<g id="Layer">
				<path id="Layer" class="s8" d="m932.8 251.5c0 0 43.8-2.4 60.8 4 0 0 18.8-24.6 30-18.8 0 0 17-9.1 16.3-18.2-0.6-9.1-107.9 19.6-107.1 33z"/>
			</g>
		</g>
		<path id="Layer" class="s10" d="m915.5 256.9c0 0 33.5-30 90.8-47.3 0 0 27.3-12.3 33.7-17.8 0 0-9.6 40-16.4 41.4 0 0-15.9-9.5-28.7 18.2 0 0-30-12.7-79.4 5.5z"/>
		<g id="Clip-Path" clip-path="url(#cp4)">
			<g id="Layer">
				<path id="Layer" class="s7" d="m913.1 259.6c0 0 54.6-32.7 85.5-39.1 30.9-6.4 55-46.4 55-46.4 0 0-138.3 41.4-140.5 85.5z"/>
			</g>
		</g>
		<path id="Layer" class="s8" d="m919.9 235.9c0 0 43.2-18.6 50.5-35 7.3-16.3 3.6-33.6-13.2-55.5-16.8-21.8-15-59.5-52.8-75 0 0-24.4 16.8-29.2 23.2-4.9 6.4-42.6 71.4-46.7 77.8-3.8 5.8-23.9 39 15.2 53.6 5.2 2 10.6 3.2 16.2 3.9 0 0 60 7 60 7z"/>
		<path id="Layer" class="s7" d="m911.1 146.5c0 0 11.1-12.9 25.1-12 0 0-3.3 15.5-13.2 15.4-9.9-0.1-11.9-3.4-11.9-3.4z"/>
		<path id="Layer" class="s7" d="m886.4 146.2c0 0-7.8-14.3-24-11.2 0 0 3.5 18.1 18.1 14.3 0 0 4.5-2.2 5.9-3.1z"/>
		<path id="Layer" class="s10" d="m871.8 252.4c0 0-33.5-30-90.8-47.3 0 0-27.3-12.2-33.7-17.7 0 0 9.6 40 16.4 41.4 0 0 15.9-9.6 28.6 18.2 0 0 30.1-12.8 79.5 5.4z"/>
		<path id="Layer" class="s10" d="m850.9 244.3c0 0-40.2 12.8-38.8 30.9 0 0-73.6-5-107.2-45.4 0 0 56.4-3.7 79.6-2.8 23.1 0.9 66.3 17.3 66.3 17.3z"/>
		<g id="Clip-Path" clip-path="url(#cp5)">
			<g id="Layer">
				<path id="Layer" class="s8" d="m854.5 247.1c0 0-43.8-2.4-60.8 4 0 0-18.8-24.6-30-18.8 0 0-17-9.1-16.4-18.2 0.6-9.1 108 19.6 107.2 33z"/>
			</g>
		</g>
		<path id="Layer" class="s10" d="m871.8 252.4c0 0-33.5-30-90.8-47.3 0 0-27.3-12.2-33.7-17.7 0 0 9.6 40 16.4 41.4 0 0 15.9-9.6 28.6 18.2 0 0 30.1-12.8 79.5 5.4z"/>
		<g id="Clip-Path" clip-path="url(#cp6)">
			<g id="Layer">
				<path id="Layer" class="s7" d="m874.2 255.2c0 0-54.6-32.8-85.5-39.1-30.9-6.4-55-46.4-55-46.4 0 0 138.2 41.4 140.5 85.5z"/>
			</g>
		</g>
		<path id="Layer" fill-rule="evenodd" class="s7" d="m982.9 687.4c4.9 4.5 7.7 11 7.2 17.6-0.5 6.6-4.3 13.4-17.9 12.8-25.9-1.1-6.4-35-6.4-35l-12.9-10.7-15.9 13.4c0 0 11.1 15.7 11.7 20.7 0.5 5-14.5 25-29.3 8.9-14.7-16.2 8.2-31.9 8.2-31.9l-12.1-16.8c0 0 28-33 28.3-37.8 0.2-4.7-6.2-22.2-6.2-22.2-1.8 7.5-14.3 22.2-14.3 22.2-2.5-3.6-14.5-12.9-14.5-12.9l-0.8-8c5.6 3.9 15.8 13.7 15.8 13.7 3.4-2.2 11.5-22.2 11.5-22.2-15.3-26.2-26.4-33.3-31.7-37l-0.5-5.2c17.5 7.3 35 33.7 35 33.7l6.1-8.5-18.2-25.9 19.8-34.8 25.9 34.8-17.5 25.7 10 11.4c4.3-8.5 20.7-31.2 20.7-31.2l1.3 5.5c-3.7 5.4-18.6 27.1-19 31.9l8.9 18.4c0 0 16-21 16.2-24.2l2 8.5-18.9 25.2-12.5-20.5c-3.4 3.2-10.5 22.8-10.5 22.8 0.7 4.1 33.7 33.6 33.7 33.6l-11.8 18.4c2.9 0.8 6 3.2 8.6 5.6zm-33.9-110.9l15.2-19.1-17.9-27.6-13.2 26zm-0.4 44.9c0 0 8.8-19.8 11.3-21.7l-10.5-13.2-8.1 13.2c0 0 6.3 17.8 7.3 21.7zm-18.2 66.1c0 0-15.6 10.4-11.3 19 4.3 8.6 11.4 8.1 14.3 7.7 3-0.3 8-4.5 7.6-10.7-0.3-6.1-10.6-16-10.6-16zm37.7-8.6l9.6-15c0 0-25.3-16.5-30-28.7 0 0-9.1 17.2-23.9 31.4l9.3 13.9c0 0 15.2-6 19.1-18 0 0 10.9 16.1 15.9 16.4zm17.9 22.1c-1.2-4-2.2-9.1-14.5-14.7 0 0-15.1 21.6-2 25.8 13.1 4.2 17.6-7.1 16.5-11.1z"/>
		<path id="Layer" class="s10" d="m845.5 259.5c0 0 20.5 23 31.9 20.1 11.4-2.9 30-14.3 28.1-17.6-1.9-3.3-14.8-2.3-22.2 2.2-7.3 4.5-14.2-3.3-17.1-5.1-2.9-1.8-16.4-7.3-20.7 0.4z"/>
		<path id="Layer" class="s8" d="m906.4 837.1c-1 1.4-3.3 1.1-3.7-0.6-0.8-2.6-1.2-6.7 2-11 5.2-7 7-0.8 4.3 6.4-1 2.5-1.9 4.1-2.6 5.2z"/>
		<path id="Layer" class="s8" d="m927.4 820.1c-2.1 2.6-5.9 2.9-8.4 0.6-2.4-2.3-4.6-5.9-2.7-10.2 3.6-8.2 7.5-21 13.2-19.2 5.6 1.9 3.6 20.8 0 25.9q-1.2 1.7-2.1 2.9z"/>
		<g id="Clip-Path" clip-path="url(#cp7)">
			<g id="Layer">
				<path id="Layer" class="s10" d="m685.9 252.4c0 0 7.5 6.9 6.5 33.3 0 0 36.5-4 11.5 75.1 0 0 23.6-23.6 19.1-51.4-0.4-2.4 2.3-4 4.3-2.7 4.7 3.1 11.2 9.8 13.6 23.8 0 0 2.9-18.6-1-27.3-0.8-1.8-0.7-3.9 0.1-5.7 2.5-5.5 4.8-18.2-14.1-34.7-25.4-22.3-37.9-22.1-40-10.4z"/>
				<path id="Layer" class="s10" d="m1029.7 271.6c0 0-8.8 11.4 21.2 45.5 30 34.1 25.4 49.6 25.4 49.6 0 0 4.1-38.9-0.6-52.3-4.8-13.4 27.9 5.9 36.6 22.5 0 0 9.2-30.9 38.4 8.5 29.1 39.5 3.4-52.6 3.4-52.6l-81.8-21.2h-42.6z"/>
				<path id="Layer" class="s10" d="m786.2 401.9c0 0 26.9 35.7 30.7 94.1 0.4 6.3 2.7 12.4 6.7 17.3 4.5 5.7 11.9 11.4 22 36 0 0-19.2-35.5-33-26.6-13.9 8.8-45.6 48.2-74.9 68.3-29.3 20.1 39.8-153.6 39.8-153.6l8.7-35.5z"/>
				<path id="Layer" class="s10" d="m1015.4 303.7l13.6 95.1 64.3 99.2 19 53.3c0 0-52.9-64.8-67.5-81.5-14.5-16.6-48.5-31.8-29.4-166.1z"/>
				<path id="Layer" class="s10" d="m577.3 495c0 0 11.5-34.9 2.4-57.9-9.1-23 28.9-52.3 31-52.9 2.1-0.6 18.7-28 18.7-28 0 0 28.6 18.2 51.3-19.4 22.7-37.6 25.8-58.6 25.8-58.6 0 0 29.7-36-16.7-36.9-46.4-1-87 26-90.4 40-3.3 13.9-50 94.3-50.9 98.2-0.9 3.9-14.2 59.4-13.3 60.6 0.9 1.2 42.1 54.9 42.1 54.9z"/>
			</g>
		</g>
		<path id="Layer" class="s8" d="m659.5 282.2c0 0-32.8 50.3-34.9 63.3-2.1 13.1-8.8 37.9-13 42.2-4.3 4.2 7.9-6.7 18.2-25.5 10.3-18.8 67-87.6 57.6-100.9-9.4-13.4-27.9 20.9-27.9 20.9z"/>
		<path id="Layer" class="s7" d="m652.4 300.5c0 0 14.7 0.2 30.7-38 0 0-2.1-50.1 16.3-66l-7.3-7c0 0-6.9 7.3-8.1 7.1-1.2-0.1 6-12.8 6-12.8l-23.2-22.8c0 0-14 14.6-14.4 13.1-0.5-1.5 11.5-19.9 11.5-19.9l-7-4.4c0 0-19.8 16.9-19.9 42 0 28.1 14.3 52.6 14.3 52.6l1.1 56.1z"/>
		<path id="Layer" class="s10" d="m1105.4 160c0 0-49.9 70.2 8.7 94.5 10.7 4.5 22.9 4.6 33.3-0.4 7.1-3.4 13.8-9.2 15.8-19.1 0.4-2.1 0.3-4.2-0.1-6.3-1.1-4.9-2.9-15.7-0.9-22.6 0.8-2.6 16.7-13.4 14.6-29.3-1.7-13.2-7.1-15.3-7.1-15.3 0 0 4.6 22.6-5.4 25.5-10 2.9-16.4 14.4-17.2 23.3-0.7 9-18.3 3.7-14.5-5.6 3.8-9.2 23.2-26.8 18.8-55.9 0 0 29.5 7.4 16-23.7 0 0-1.9 14.3-7.5 11.5 0 0 5.4-25.9-13.4-33.8 0 0 7.6 35.2-11 23.1-18.7-12.2-19.1-35.6-14.7-54.1 4.4-18.5-3.1-23.4-3.1-23.4 0 0-4.1 20-8.8 39.3-4.7 19.2 20.2 60 20.1 72.7-0.2 12.8-2.2 31.3-18.2 26.7-8.5-2.4-5.3-27.1-5.3-27.1z"/>
		<path id="Layer" class="s7" d="m1108.4 165.6c0 0-37.8 53 6.4 71.5 8.2 3.4 17.4 3.5 25.4-0.3 5-2.4 9.7-6.4 11.5-13.1 0.6-2.2 0.6-4.5 0.2-6.7-0.8-3.9-2-11.5-0.5-16.5 0.5-2 12.6-10.1 11-22.2-1.3-10-5.4-11.6-5.4-11.6 0 0 3.5 17.1-4.1 19.3-7.6 2.2-12.4 10.9-13 17.7-0.5 6.7-13.9 2.7-11-4.3 2.9-7 17.6-20.3 14.2-42.3 0 0 22.4 5.6 12.2-17.9 0 0-1.5 10.8-5.7 8.7 0 0 4.1-19.6-10.1-25.6 0 0 5.7 26.6-8.4 17.5-14.1-9.2-15.7-26.9-13.4-41.1 1.9-11.8-2.6-22.8-2.6-22.8 0 0-2 16.6-5.7 31.2-6 24 16 49.2 16.8 58.8 0.7 10-1.6 23.7-13.8 20.2-6.4-1.8-4-20.5-4-20.5z"/>
		<path id="Layer" class="s10" d="m712.8 213c0 0-12.1-2.5-18.5-20.7 0 0-21.1-8.8-32.5-29.8-10.8-20-8.4-39.3 0-56.2 0 0-2.2 43.6 21.4 35.3 0 0 9.1-2.7-4.3-18.2-13.4-15.5 3.6-44.8 3.2-58-0.4-10-8.9-16.1-8.2-24.1 0.6-7.9 1.3-18.4 20-33.4 0 0-8.9 39.8 6.8 40 15.7 0.3 18.4-9.3 20.7-24.1 0 0 17.6 15.7-13.7 48.7-8.7 9.1-13.3 21.5-12.1 34 1.1 12 6.9 23.5 25.6 21.2 0 0 18.2-1.8 25-24.3 0 0 17.5 36.8-7.1 61.6-24.5 24.8-32.3 28.9-26.4 48z"/>
		<path id="Layer" class="s7" d="m700.2 185.6c0 0-6.8-1.6-10.4-13.1 0 0-17.5-7.4-24-20.7-6.1-12.7-3.2-22.4 1.5-33 0 0 2.9 26.8 16.2 21.5 0 0 5.1-1.7-2.4-11.5-7.6-9.8 2-28.4 1.8-36.8-0.2-6.3-5-10.2-4.7-15.2 0.4-5.1 0.8-11.7 11.3-21.2 0 0-5 25.2 3.9 25.3 8.9 0.2 10.4-5.9 11.7-15.2 0 0 9.9 9.9-7.8 30.8-4.9 5.8-7.4 13.6-6.8 21.6 0.8 9.9 0.8 12.5 5.2 19.6 3.4 5.4 10.8 6.4 14.9 1.5 4.5-5.6 11-14.5 13.4-23.4 0 0 8.7 28.6-5.2 44.3-13.9 15.7-21.9 13.4-18.6 25.5z"/>
	</g>
</svg>