<svg id="Layer_1" data-name="Layer 1" xmlns="http://www.w3.org/2000/svg" xmlns:xlink="http://www.w3.org/1999/xlink" viewBox="0 0 2000 2000"><defs><style>.cls-1{fill:none;}.cls-2{fill:#aed76a;}.cls-3{clip-path:url(#clip-path);}.cls-4{fill:#fecfae;}.cls-5{fill:#c3c2cc;}.cls-6{fill:#a5a3b2;}.cls-7{fill:#85858e;}.cls-8{fill:#bf9e82;}.cls-9{fill:#e5bf9c;}.cls-10{fill:#eae2dc;}.cls-11{fill:#4c3b36;}.cls-12{fill:#725b51;}.cls-13{fill:#967266;}.cls-14{fill:#ddc6b6;}.cls-15{fill:#993a23;}.cls-16{fill:#aa4226;}.cls-17{fill:#1e1713;}.cls-18{fill:#a29cb7;}.cls-19{clip-path:url(#clip-path-2);}.cls-20{fill:#b6b3c4;}.cls-21{clip-path:url(#clip-path-3);}.cls-22{clip-path:url(#clip-path-4);}.cls-23{clip-path:url(#clip-path-5);}.cls-24{clip-path:url(#clip-path-6);}.cls-25{clip-path:url(#clip-path-7);}.cls-26{clip-path:url(#clip-path-8);}.cls-27{clip-path:url(#clip-path-9);}.cls-28{clip-path:url(#clip-path-10);}.cls-29{clip-path:url(#clip-path-11);}.cls-30{clip-path:url(#clip-path-12);}.cls-31{clip-path:url(#clip-path-13);}.cls-32{clip-path:url(#clip-path-14);}.cls-33{clip-path:url(#clip-path-15);}.cls-34{clip-path:url(#clip-path-16);}.cls-35{clip-path:url(#clip-path-17);}.cls-36{clip-path:url(#clip-path-18);}.cls-37{clip-path:url(#clip-path-19);}.cls-38{fill:#afd86a;}</style><clipPath id="clip-path"><path class="cls-1" d="M633.1,874.4c-85.28-13.57-304.17,51.14-358.5,118.26-89.24,110.26-82.46,219.74-18.43,315.82C391.62,1511.72,570.27,1668.4,940,1669c462.74.74,445.35-213.73,528.29-175.15s373.45-109.93,220.26-427.5C1631.45,948,1321.37,656.9,946.11,797.68,752.62,870.27,685.11,882.67,633.1,874.4Z"/></clipPath><clipPath id="clip-path-2"><path class="cls-1" d="M1094.22,1160.48s-30.21,17.09,2.91,34.52c26.24,13.82,57.07,5.15,68.81.23,4.84-2,8.66-7.62,9.9-12.3,1.3-4.94.32-11.42-8.86-17.57,0,0,4,11.25-4.22,15.5s-15.82,7.22-35.44,6.33c-18.87-.85-35.38-8.74-37.74-14.28C1087.34,1167.68,1094.22,1160.48,1094.22,1160.48Z"/></clipPath><clipPath id="clip-path-3"><path class="cls-1" d="M1082.86,1209.59s-20.7,32.59,44.29,35.49c66.68,3,47.57-38.47,47.57-38.47s.39,28.05-46.23,25.06S1082.86,1209.59,1082.86,1209.59Z"/></clipPath><clipPath id="clip-path-4"><ellipse class="cls-1" cx="1129.2" cy="1160.3" rx="9.21" ry="26" transform="translate(-45.75 2274.25) rotate(-89.25)"/></clipPath><clipPath id="clip-path-5"><path class="cls-1" d="M1008.33,1194.51s-32.05,18.14,3.09,36.64c27.85,14.67,60.58,5.47,73,.25,5.13-2.15,9.2-8.09,10.51-13.06,1.38-5.25.33-12.13-9.4-18.65,0,0,4.22,11.94-4.49,16.45s-16.79,7.66-37.61,6.72c-20-.9-37.55-9.28-40.06-15.16C1001,1202.16,1008.33,1194.51,1008.33,1194.51Z"/></clipPath><clipPath id="clip-path-6"><path class="cls-1" d="M996.28,1246.63s-22,34.6,47,37.68c70.78,3.17,50.49-40.84,50.49-40.84s.42,29.78-49.07,26.6S996.28,1246.63,996.28,1246.63Z"/></clipPath><clipPath id="clip-path-7"><ellipse class="cls-1" cx="1045.46" cy="1194.32" rx="9.77" ry="27.6" transform="matrix(0.01, -1, 1, 0.01, -162.41, 2224.1)"/></clipPath><clipPath id="clip-path-8"><path class="cls-1" d="M911.53,1231.54s-35.85,20.28,3.46,41c31.15,16.4,67.75,6.11,81.69.28,5.74-2.41,10.28-9,11.75-14.6,1.54-5.87.37-13.57-10.52-20.87,0,0,4.73,13.36-5,18.41s-18.77,8.57-42.07,7.51c-22.4-1-42-10.38-44.8-17C903.38,1240.08,911.53,1231.54,911.53,1231.54Z"/></clipPath><clipPath id="clip-path-9"><path class="cls-1" d="M898.05,1289.83s-24.57,38.69,52.58,42.14c79.16,3.54,56.47-45.68,56.47-45.68s.46,33.31-54.89,29.76S898.05,1289.83,898.05,1289.83Z"/></clipPath><clipPath id="clip-path-10"><ellipse class="cls-1" cx="953.06" cy="1231.32" rx="10.93" ry="30.87" transform="translate(-290.6 2168.22) rotate(-89.25)"/></clipPath><clipPath id="clip-path-11"><path class="cls-1" d="M950.67,1126.07s-28.38,16,2.73,32.43c24.66,13,53.63,4.84,64.66.22,4.55-1.91,8.14-7.16,9.3-11.56,1.23-4.65.3-10.74-8.32-16.51,0,0,3.74,10.57-4,14.56s-14.86,6.79-33.3,6c-17.73-.8-33.24-8.21-35.46-13.42C944.21,1132.83,950.67,1126.07,950.67,1126.07Z"/></clipPath><clipPath id="clip-path-12"><path class="cls-1" d="M940,1172.2s-19.45,30.63,41.62,33.36c62.65,2.8,44.7-36.15,44.7-36.15s.36,26.36-43.45,23.55S940,1172.2,940,1172.2Z"/></clipPath><clipPath id="clip-path-13"><ellipse class="cls-1" cx="983.54" cy="1125.9" rx="8.65" ry="24.43" transform="translate(-155.11 2094.65) rotate(-89.25)"/></clipPath><clipPath id="clip-path-14"><path class="cls-1" d="M1039.38,1099.05s-25.75,14.56,2.48,29.43c22.37,11.78,48.66,4.39,58.67.19,4.12-1.72,7.39-6.49,8.44-10.48,1.11-4.22.27-9.75-7.55-15,0,0,3.39,9.59-3.61,13.22s-13.48,6.15-30.21,5.4c-16.09-.73-30.16-7.46-32.18-12.18C1033.52,1105.19,1039.38,1099.05,1039.38,1099.05Z"/></clipPath><clipPath id="clip-path-15"><path class="cls-1" d="M1029.7,1140.91s-17.65,27.79,37.76,30.27c56.85,2.54,40.56-32.81,40.56-32.81s.33,23.92-39.42,21.37S1029.7,1140.91,1029.7,1140.91Z"/></clipPath><clipPath id="clip-path-16"><ellipse class="cls-1" cx="1069.2" cy="1098.89" rx="7.85" ry="22.17" transform="translate(-43.56 2153.65) rotate(-89.25)"/></clipPath><clipPath id="clip-path-17"><path class="cls-1" d="M981.38,1021.81s-26.34,14.9,2.54,30.1c22.88,12,49.78,4.49,60,.2,4.21-1.76,7.55-6.64,8.63-10.72,1.13-4.31.27-10-7.73-15.33,0,0,3.47,9.81-3.68,13.52s-13.8,6.3-30.91,5.52c-16.46-.74-30.85-7.62-32.91-12.46C975.39,1028.09,981.38,1021.81,981.38,1021.81Z"/></clipPath><clipPath id="clip-path-18"><path class="cls-1" d="M971.48,1064.63s-18.05,28.43,38.63,31c58.15,2.6,41.48-33.55,41.48-33.55s.34,24.46-40.32,21.85S971.48,1064.63,971.48,1064.63Z"/></clipPath><clipPath id="clip-path-19"><ellipse class="cls-1" cx="1011.89" cy="1021.65" rx="8.03" ry="22.68" transform="translate(-22.89 2020.11) rotate(-89.25)"/></clipPath></defs><path class="cls-2" d="M633.1,874.4c-85.28-13.57-304.17,51.14-358.5,118.26-89.24,110.26-82.46,219.74-18.43,315.82C391.62,1511.72,570.27,1668.4,940,1669c462.74.74,445.35-213.73,528.29-175.15s373.45-109.93,220.26-427.5C1631.45,948,1321.37,656.9,946.11,797.68,752.62,870.27,685.11,882.67,633.1,874.4Z"/><g class="cls-3"><path class="cls-4" d="M725.31,1349.84s-58.56,26.05-42.09,67.41,111.39,63.57,193,51.32,322.88-37.53,328.24,248.17-251.4-11.49-251.4-11.49-145.3-88.85-264.44-163.15-161.25-144.38-57.85-239.55S725.31,1349.84,725.31,1349.84Z"/></g><polygon class="cls-5" points="406.05 1133.58 493.48 1118.6 559.34 1139.75 474.18 1195.08 406.05 1133.58"/><polygon class="cls-6" points="479.47 1250.29 476.78 1207.42 474.18 1165.82 406.05 1133.58 415.51 1218.42 479.47 1250.29"/><polygon class="cls-7" points="474.18 1165.82 479.47 1250.29 556.31 1224.86 559.34 1139.75 474.18 1165.82"/><polygon class="cls-8" points="487.34 1174.85 491 1233.2 544.08 1215.63 546.17 1156.84 487.34 1174.85"/><polygon class="cls-9" points="464.59 1226.63 462.99 1201.14 461.44 1176.41 420.93 1157.24 426.56 1207.68 464.59 1226.63"/><polygon class="cls-10" points="430.28 1136.31 490.07 1126.06 535.1 1140.53 476.87 1158.36 430.28 1136.31"/><polygon class="cls-5" points="452.8 1082.47 501.02 1075.38 537.04 1087.88 489.71 1117.18 452.8 1082.47"/><polygon class="cls-6" points="492.12 1147.61 491.03 1124 489.97 1101.1 452.8 1082.47 457.23 1129.25 492.12 1147.61"/><polygon class="cls-7" points="489.97 1101.1 492.12 1147.61 534.6 1134.64 537.04 1087.88 489.97 1101.1"/><polygon class="cls-8" points="497.13 1106.23 498.61 1138.37 527.96 1129.4 529.64 1097.1 497.13 1106.23"/><polygon class="cls-9" points="484.14 1134.4 483.5 1120.37 482.87 1106.75 460.77 1095.68 463.41 1123.49 484.14 1134.4"/><polygon class="cls-10" points="466.11 1084.29 499.07 1079.44 523.71 1087.98 491.52 1097.02 466.11 1084.29"/><path class="cls-11" d="M826,1383.91l528-311.57,12-465.52L827.76,878.61S692.6,1166.81,826,1383.91Z"/><polygon class="cls-12" points="526.6 934.86 532.92 1259.72 825.16 1388.01 839.85 863.44 774.35 863.44 526.6 934.86"/><polygon class="cls-11" points="549.92 994.48 819.11 978.41 814.05 918.37 547.34 959.76 549.92 994.48"/><path class="cls-13" d="M549.25,1277.89l12.39-5.63,4.88-304.12-22.83,6.06S529.34,1208.37,549.25,1277.89Z"/><polygon class="cls-14" points="524.48 976.84 527.11 1268.35 549.25 1277.89 551.91 970.19 524.48 976.84"/><polygon class="cls-13" points="505.74 983.59 520.55 986.26 794.32 953.82 794.32 943.98 510.48 978.89 505.74 983.59"/><path class="cls-14" d="M505.92,957.61l-.18,26,310.64-40.52-13.07-40.23S540.33,920.22,505.92,957.61Z"/><polyline class="cls-8" points="452.9 950.76 458.2 967.62 870.92 895.15 867.58 874.82 715.89 869.13 530.07 919.06 454.23 950.76"/><polygon class="cls-10" points="790.79 902.84 1379.46 595.38 1421.46 585.35 817.33 916.11 790.79 902.84"/><polygon class="cls-14" points="825.23 1395.74 808.57 1388.09 817.33 916.11 837.88 942.43 825.23 1395.74"/><polygon class="cls-10" points="810.06 902.84 790.79 902.84 790.79 959.93 810.06 959.93 826.18 920 810.06 902.84"/><polygon class="cls-13" points="867.58 874.82 810.06 902.84 810.06 959.93 995.04 872.29 867.58 874.82"/><polygon class="cls-14" points="1327.18 1107.67 1314.5 1101.56 1321.18 784.01 1336.79 810.34 1327.18 1107.67"/><polygon class="cls-13" points="1337.03 733.24 1327.18 1107.67 1355.71 1089.47 1365.92 703.43 1337.03 733.24"/><path class="cls-15" d="M867.58,874.82s89.35,159.76,422.34,145.36c131.54-5.69,295-149.37,300.15-314.14l-81.61,44.67-352.68-59.82Z"/><path class="cls-16" d="M1421.46,585.35s0,111.55,180.75,114.18c0,0-94.6,272.05-305.06,284.06-320.57,18.29-416.72-119.94-416.72-119.94l-9.06-106.39Z"/><path class="cls-15" d="M1196.58,690.89s-34.48,121.35,250.87,141c0,0-288.75-79.37-198.1-194.5Z"/><path class="cls-15" d="M1257.21,671.19s3.43,88.37,211.08,61.69c0,0-207,7.32-179.92-93.22Z"/><polygon class="cls-9" points="867.58 874.82 1421.46 585.35 979.45 690.89 452.9 950.76 867.58 874.82"/><path class="cls-13" d="M1093.61,1158.07s-20.1,44.24-5.32,84.9a27.92,27.92,0,0,0,12.92,15.07c12.42,6.72,36.07,14.89,58.79-2.81a28.87,28.87,0,0,0,9.36-13c4.7-13,10.94-41.78-4.51-81.43l-23,13.72-23.78,1.17-16.29-6.15-6.9-11.46Z"/><path class="cls-12" d="M1123.84,1176.07s-1.27,78.49.88,87.53l3.33-87.47Z"/><path class="cls-12" d="M1149.42,1173.11s7.5,35.35,1.56,85.54c0,0,12-27,2-87Z"/><path class="cls-12" d="M1103.65,1170.37s-9.47,36.49-4.82,85.62c0,0-10.59-29.92,1-88.2Z"/><ellipse class="cls-12" cx="1129.17" cy="1162.14" rx="15.33" ry="36.57" transform="translate(-47.61 2276.04) rotate(-89.25)"/><ellipse class="cls-17" cx="1129.2" cy="1160.3" rx="9.21" ry="26" transform="translate(-45.75 2274.25) rotate(-89.25)"/><path class="cls-18" d="M1167,1165.36s4,11.25-4.22,15.5-15.82,7.22-35.44,6.33c-18.87-.85-35.21-8.8-37.74-14.28-1.33-2.88,0-6.14,1.58-8.61a3.94,3.94,0,0,1,.27-.93,4.45,4.45,0,0,0,.32-.75c.06-.22.09-.43.17-.64-6.37,4.52-15.44,20.85,4.95,31.45,26.32,13.67,55.19,8.14,66.32,2.19,8-4.26,10.59-6.7,11.83-11.38C1176.32,1179.29,1176.16,1171.51,1167,1165.36Z"/><g class="cls-19"><path class="cls-20" d="M1166.85,1164.21c-4.39-3.17-62.45-4.64-71.56-4.85a.72.72,0,0,1,.58.65.71.71,0,0,1-.75.64H1095a.59.59,0,0,1,.06.14l0,.17a.65.65,0,0,1-.11.33l-.12.13a.47.47,0,0,1-.24.13.67.67,0,0,1-.28.06.72.72,0,0,1-.29-.06l0,0a.65.65,0,0,1-.21.44l-.12.1-.06,4.27c0,.82-1.38.83-1.47.07l-.18.48a.77.77,0,0,1-.92.44.65.65,0,0,1-.5-.81c.26-.66,1.43-4.57,1.55-4.81s.11-.9.11-.9c-3.44,3-9.61,9.94-1.39,16.7,10.84,8.9,25.69,12.07,36.8,12.88s30.8-.93,39.16-8.06C1172.31,1177.58,1171.61,1167.64,1166.85,1164.21Z"/></g><path class="cls-18" d="M1082.86,1210s-11.65,36.18,44.24,39.21c60.87,3.29,47.62-42.63,47.62-42.63s.35,31-46.27,27.79S1082.86,1210,1082.86,1210Z"/><g class="cls-21"><path class="cls-20" d="M1083,1198.78s-16.14,34,44.27,37.09c62.4,3.21,47.6-40.25,47.6-40.25s.37,29.33-46.26,26.23S1083,1198.78,1083,1198.78Z"/></g><g class="cls-22"><path class="cls-13" d="M1154.83,1166c-3.56,3-13.21,5.19-25.51,5-11.79-.15-22-2-25.93-5.59-2.74-2.47,5.51-10.25,26.09-9.88C1151.74,1156,1157.73,1163.56,1154.83,1166Z"/></g><path class="cls-13" d="M1007.69,1192s-21.33,47-5.65,90.11a29.74,29.74,0,0,0,13.72,16c13.18,7.12,38.28,15.79,62.4-3a30.66,30.66,0,0,0,9.94-13.78c5-13.79,11.6-44.34-4.8-86.43l-24.41,14.56-25.25,1.25-17.29-6.53L1009,1192Z"/><path class="cls-12" d="M1039.78,1211.06s-1.35,83.31.93,92.9l3.53-92.84Z"/><path class="cls-12" d="M1066.93,1207.92s8,37.51,1.65,90.79c0,0,12.78-28.67,2.11-92.36Z"/><path class="cls-12" d="M1018.34,1205s-10.05,38.72-5.11,90.87c0,0-11.24-31.75,1.07-93.61Z"/><ellipse class="cls-12" cx="1045.43" cy="1196.27" rx="16.27" ry="38.81" transform="translate(-164.38 2226) rotate(-89.25)"/><ellipse class="cls-17" cx="1045.46" cy="1194.32" rx="9.77" ry="27.6" transform="translate(-162.41 2224.1) rotate(-89.25)"/><path class="cls-18" d="M1085.57,1199.69s4.22,11.94-4.49,16.45-16.79,7.66-37.61,6.72c-20-.9-37.37-9.34-40.06-15.16-1.41-3,0-6.52,1.68-9.13a3.76,3.76,0,0,1,.29-1,5.65,5.65,0,0,0,.34-.8,5.23,5.23,0,0,1,.18-.68c-6.76,4.8-20,25.06,5.52,35.05,29.31,11.47,47.08,7.81,68.47.7a21.49,21.49,0,0,0,12.49-10.69C1094.69,1216.25,1095.3,1206.21,1085.57,1199.69Z"/><g class="cls-23"><path class="cls-20" d="M1085.42,1198.47c-4.65-3.36-66.27-4.92-76-5.15a.69.69,0,1,1-.18,1.37h-.18a1,1,0,0,1,.07.15l0,.18a.63.63,0,0,1-.11.35l-.12.14a.66.66,0,0,1-.26.14.73.73,0,0,1-.3.06.6.6,0,0,1-.3-.07h0a.66.66,0,0,1-.23.46l-.12.11-.06,4.54c0,.86-1.47.87-1.56.07-.07.16-.13.33-.19.5a.82.82,0,0,1-1,.47.69.69,0,0,1-.53-.86c.28-.7,1.52-4.84,1.65-5.1s.11-1,.11-1c-3.65,3.15-10.2,10.55-1.47,17.73,11.5,9.45,27.27,12.8,39,13.67s32.69-1,41.57-8.56C1091.22,1212.66,1090.47,1202.11,1085.42,1198.47Z"/></g><path class="cls-18" d="M996.28,1247.1s-16,39.83,47,41.62,50.55-45.25,50.55-45.25.38,32.94-49.11,29.5S996.28,1247.1,996.28,1247.1Z"/><g class="cls-24"><path class="cls-20" d="M996.43,1235.17s-17.13,36.06,47,39.36c66.23,3.41,50.52-42.72,50.52-42.72s.39,31.12-49.1,27.83S996.43,1235.17,996.43,1235.17Z"/></g><g class="cls-25"><path class="cls-13" d="M1072.67,1200.38c-3.78,3.18-14,5.51-27.08,5.34-12.51-.16-23.32-2.15-27.52-5.94-2.91-2.62,5.84-10.88,27.69-10.48C1069.39,1189.73,1075.75,1197.78,1072.67,1200.38Z"/></g><path class="cls-13" d="M910.81,1228.68s-23.86,52.51-6.32,100.78a33.23,33.23,0,0,0,15.35,17.89c14.74,8,42.81,17.67,69.78-3.35a34.16,34.16,0,0,0,11.12-15.41c5.57-15.43,13-49.59-5.36-96.66l-27.31,16.28-28.23,1.39-19.34-7.3-8.19-13.6Z"/><path class="cls-12" d="M946.7,1250s-1.51,93.17,1,103.91l4-103.84Z"/><path class="cls-12" d="M977.07,1246.53s8.9,42,1.84,101.54c0,0,14.3-32.06,2.36-103.29Z"/><path class="cls-12" d="M922.73,1243.27s-11.24,43.32-5.72,101.64c0,0-12.57-35.51,1.2-104.7Z"/><ellipse class="cls-12" cx="953.03" cy="1233.5" rx="18.19" ry="43.41" transform="translate(-292.81 2170.34) rotate(-89.25)"/><ellipse class="cls-17" cx="953.06" cy="1231.32" rx="10.93" ry="30.87" transform="translate(-290.6 2168.22) rotate(-89.25)"/><path class="cls-18" d="M997.91,1237.32s4.73,13.36-5,18.41-18.77,8.57-42.07,7.51c-22.4-1-41.79-10.45-44.8-17-1.57-3.41,0-7.29,1.89-10.22a3.86,3.86,0,0,1,.32-1.1,6.38,6.38,0,0,0,.38-.9c.07-.26.11-.51.2-.76-7.56,5.37-26.22,22.14,6.18,39.2,31.15,16.4,68.47,7.34,81.69.28,9.47-5.07,10.28-9,11.75-14.6C1010,1252.32,1008.8,1244.62,997.91,1237.32Z"/><g class="cls-26"><path class="cls-20" d="M997.75,1236c-5.21-3.76-74.12-5.5-85-5.76a.84.84,0,0,1,.69.77.85.85,0,0,1-.89.77h-.2a.8.8,0,0,1,.08.16l0,.21a.69.69,0,0,1-.12.39l-.14.15a1,1,0,0,1-.62.22.77.77,0,0,1-.34-.07l0,0a.78.78,0,0,1-.25.52l-.15.12-.06,5.08c0,1-1.64,1-1.75.07l-.21.57a.92.92,0,0,1-1.09.53.78.78,0,0,1-.6-1c.31-.78,1.7-5.42,1.84-5.7l.14-1.07c-4.09,3.52-11.42,11.8-1.65,19.82,12.86,10.57,30.49,14.32,43.67,15.29s36.57-1.11,46.5-9.57C1004.24,1251.83,1003.4,1240,997.75,1236Z"/></g><path class="cls-18" d="M898.05,1290.35s-16.92,45.64,52.52,46.55c76.29,1,56.53-50.61,56.53-50.61s.42,36.84-54.93,33S898.05,1290.35,898.05,1290.35Z"/><g class="cls-27"><path class="cls-20" d="M898.22,1277s-19.16,40.33,52.55,44c74.07,3.81,56.5-47.79,56.5-47.79s.45,34.82-54.9,31.14S898.22,1277,898.22,1277Z"/></g><g class="cls-28"><path class="cls-13" d="M983.49,1238.09c-4.23,3.57-15.68,6.17-30.29,6-14-.18-26.08-2.4-30.78-6.64-3.25-2.93,6.54-12.17,31-11.73C979.82,1226.18,986.93,1235.19,983.49,1238.09Z"/></g><path class="cls-13" d="M1054.57,1419.59s18.72,29.43,43,16L1327.12,872l-74.39-32.32Z"/><ellipse class="cls-14" cx="1289.92" cy="855.83" rx="21.02" ry="40.55" transform="translate(-9.05 1697.86) rotate(-66.52)"/><path class="cls-13" d="M1395.25,1195.68s11.87,21.47,32.53,14.52l242.57-518.44-62.29-29.51Z"/><path class="cls-14" d="M1645,668.78c12,6.61,28.9,16.05,25.34,23s-15.45,9.46-34.29-.2-31.24-23.13-27.68-30.06S1626.48,658.53,1645,668.78Z"/><path class="cls-8" d="M643.71,869.13l339.16-74.55s-123.54,38.35-218.41,55.19S643.71,869.13,643.71,869.13Z"/><path class="cls-8" d="M801.9,791.42l338.21-78.78S1016,752.13,921.3,770.16,801.9,791.42,801.9,791.42Z"/><path class="cls-8" d="M933.29,728.13l338.06-79.39s-108.83,32.25-208.9,53.53C968.2,722.31,933.29,728.13,933.29,728.13Z"/><path class="cls-15" d="M630.77,1302.55,725,1350.73l8.76-196.11-89.37-45.25S622.33,1291.86,630.77,1302.55Z"/><polygon class="cls-13" points="838.19 931.38 825.23 1395.74 862.3 1372.09 876.22 901.57 838.19 931.38"/><path class="cls-15" d="M902.55,905.55l523.16-298s-3.47-12.64-4.25-22.17L867.58,874.82Z"/><polygon class="cls-13" points="607.87 1313.06 630.77 1302.55 644.34 1109.37 603.47 1090.53 607.87 1313.06"/><path class="cls-13" d="M741.38,1378.93l26.24-16.46,14.67-192.58-44.17,2S731.34,1347.53,741.38,1378.93Z"/><polygon class="cls-14" points="588.62 1302.18 607.87 1313.06 621.09 1102.03 588.62 1090.53 588.62 1302.18"/><polygon class="cls-14" points="721.03 1148.27 716.35 1364.45 741.42 1378.93 759.09 1167.33 721.03 1148.27"/><path class="cls-13" d="M781,1182.76s13.33-2.88,14.93-6.52,5.74-18.12,2.65-28.42l-19,3.52S771.77,1177.45,781,1182.76Z"/><polygon class="cls-10" points="577.71 1055.74 594.13 1054.28 798.54 1147.82 784.76 1153.81 716.66 1129.2 577.71 1055.74"/><path class="cls-14" d="M577.71,1055.74s-5.45,24,.53,30.5c0,0,197.32,101.22,202.72,96.52s3.8-29,3.8-29Z"/><polygon class="cls-16" points="650.25 1128.93 644.34 1298.71 653.32 1303.96 664.7 1152.7 680.34 1158.6 670.44 1279.14 677.97 1281.74 702.22 1154.62 650.25 1128.93"/><polygon class="cls-16" points="688.62 1332.15 698.14 1219.81 707.65 1222.48 705.15 1340.6 688.62 1332.15"/><ellipse class="cls-11" cx="986.43" cy="1216.79" rx="33.37" ry="11.02"/><path class="cls-13" d="M950.1,1123.8s-18.88,41.56-5,79.77a26.23,26.23,0,0,0,12.15,14.16c11.66,6.31,33.88,14,55.23-2.64a27.13,27.13,0,0,0,8.8-12.21c4.41-12.21,10.27-39.25-4.24-76.5l-21.62,12.88-22.35,1.11-15.3-5.79-6.49-10.76Z"/><path class="cls-12" d="M978.51,1140.71s-1.2,73.75.82,82.25l3.13-82.2Z"/><path class="cls-12" d="M1002.54,1137.93s7.05,33.21,1.46,80.38c0,0,11.32-25.39,1.87-81.76Z"/><path class="cls-12" d="M959.53,1135.35s-8.89,34.29-4.53,80.45c0,0-9.94-28.1,1-82.87Z"/><ellipse class="cls-12" cx="983.51" cy="1127.62" rx="14.4" ry="34.36" transform="translate(-156.85 2096.33) rotate(-89.25)"/><ellipse class="cls-17" cx="983.54" cy="1125.9" rx="8.65" ry="24.43" transform="translate(-155.11 2094.65) rotate(-89.25)"/><path class="cls-18" d="M1019,1130.65s3.74,10.57-4,14.56-14.86,6.79-33.3,6c-17.73-.8-33.08-8.27-35.46-13.42-1.25-2.7,0-5.77,1.49-8.09a3.44,3.44,0,0,1,.25-.87,4.49,4.49,0,0,0,.31-.71c0-.2.08-.4.15-.6-6,4.25-20.75,17.53,4.89,31,24.66,13,54.2,5.81,64.66.22,7.5-4,8.14-7.16,9.3-11.56C1028.59,1142.51,1027.66,1136.42,1019,1130.65Z"/><g class="cls-29"><path class="cls-20" d="M1018.91,1129.57c-4.12-3-58.67-4.36-67.23-4.56a.66.66,0,0,1,.54.61.68.68,0,0,1-.7.61h-.16l.06.13,0,.17a.52.52,0,0,1-.1.31l-.11.12a.48.48,0,0,1-.22.12.52.52,0,0,1-.27,0,.59.59,0,0,1-.27,0l0,0a.62.62,0,0,1-.2.41l-.12.1,0,4c0,.77-1.3.78-1.38.07-.05.15-.11.3-.17.44a.71.71,0,0,1-.86.42.61.61,0,0,1-.47-.76c.24-.62,1.34-4.29,1.46-4.52s.1-.85.1-.85c-3.24,2.79-9,9.34-1.31,15.7,10.18,8.36,24.14,11.33,34.58,12.1s28.94-.88,36.8-7.58C1024.05,1142.13,1023.38,1132.79,1018.91,1129.57Z"/></g><path class="cls-18" d="M940,1172.62s-13.39,36.12,41.57,36.84c60.39.79,44.75-40,44.75-40s.32,29.16-43.48,26.11S940,1172.62,940,1172.62Z"/><g class="cls-30"><path class="cls-20" d="M940.14,1162.05S925,1194,981.73,1196.9c58.63,3,44.72-37.82,44.72-37.82s.35,27.56-43.46,24.64S940.14,1162.05,940.14,1162.05Z"/></g><g class="cls-31"><path class="cls-13" d="M1007.62,1131.26c-3.34,2.82-12.41,4.88-24,4.73-11.07-.14-20.64-1.9-24.36-5.26-2.58-2.32,5.17-9.63,24.51-9.28C1004.72,1121.83,1010.35,1129,1007.62,1131.26Z"/></g><ellipse class="cls-11" cx="1071.83" cy="1181.38" rx="30.28" ry="10"/><path class="cls-13" d="M1038.86,1097s-17.14,37.72-4.54,72.39a23.88,23.88,0,0,0,11,12.85c10.59,5.72,30.75,12.69,50.12-2.41a24.55,24.55,0,0,0,8-11.07c4-11.08,9.32-35.61-3.85-69.42L1080,1111l-20.28,1-13.89-5.24-5.89-9.77Z"/><path class="cls-12" d="M1064.64,1112.34s-1.09,66.92.75,74.63l2.83-74.59Z"/><path class="cls-12" d="M1086.45,1109.81s6.39,30.14,1.32,72.94c0,0,10.27-23,1.7-74.19Z"/><path class="cls-12" d="M1047.42,1107.47s-8.07,31.11-4.11,73c0,0-9-25.5.86-75.2Z"/><ellipse class="cls-12" cx="1069.18" cy="1100.46" rx="13.07" ry="31.18" transform="translate(-45.14 2155.18) rotate(-89.25)"/><ellipse class="cls-17" cx="1069.2" cy="1098.89" rx="7.85" ry="22.17" transform="translate(-43.56 2153.65) rotate(-89.25)"/><path class="cls-18" d="M1101.42,1103.2s3.39,9.59-3.61,13.22-13.48,6.15-30.21,5.4c-16.09-.73-30-7.51-32.18-12.18-1.13-2.45,0-5.24,1.35-7.34a3.11,3.11,0,0,1,.23-.79,4,4,0,0,0,.28-.64,4.92,4.92,0,0,1,.14-.55c-5.43,3.86-18.83,15.9,4.44,28.16,22.37,11.78,49.18,5.27,58.67.19,6.81-3.63,7.39-6.49,8.44-10.48C1110.08,1114,1109.24,1108.44,1101.42,1103.2Z"/><g class="cls-32"><path class="cls-20" d="M1101.3,1102.22c-3.74-2.7-53.24-4-61-4.13a.55.55,0,1,1-.14,1.1H1040a.43.43,0,0,1,0,.12l0,.14a.7.7,0,0,1-.09.29l-.1.11a.53.53,0,0,1-.21.11.49.49,0,0,1-.24,0,.43.43,0,0,1-.25,0h0a.52.52,0,0,1-.19.37l-.1.09-.05,3.64c0,.7-1.17.7-1.25.06l-.15.41a.68.68,0,0,1-.78.38.55.55,0,0,1-.43-.7c.22-.56,1.22-3.89,1.32-4.1s.09-.76.09-.76c-2.93,2.52-8.19,8.47-1.18,14.23,9.24,7.59,21.9,10.29,31.37,11s26.26-.8,33.39-6.88C1106,1113.62,1105.36,1105.15,1101.3,1102.22Z"/></g><path class="cls-18" d="M1029.69,1141.29s-12.15,32.78,37.72,33.43c54.8.72,40.61-36.35,40.61-36.35s.3,26.47-39.45,23.7S1029.69,1141.29,1029.69,1141.29Z"/><g class="cls-33"><path class="cls-20" d="M1029.82,1131.7s-13.77,29,37.74,31.62c53.2,2.74,40.58-34.32,40.58-34.32s.32,25-39.43,22.37S1029.82,1131.7,1029.82,1131.7Z"/></g><g class="cls-34"><path class="cls-13" d="M1091.06,1103.76c-3,2.55-11.27,4.43-21.75,4.29-10-.13-18.74-1.73-22.11-4.77-2.34-2.11,4.69-8.74,22.24-8.42C1088.42,1095.2,1093.53,1101.67,1091.06,1103.76Z"/></g><ellipse class="cls-11" cx="1014.57" cy="1106.02" rx="30.98" ry="10.23"/><path class="cls-13" d="M980.85,1019.71s-17.52,38.57-4.64,74a24.37,24.37,0,0,0,11.28,13.14c10.82,5.86,31.45,13,51.26-2.46a25.11,25.11,0,0,0,8.17-11.32c4.09-11.33,9.53-36.43-3.94-71l-20.06,12-20.74,1L988,1029.71l-6-10Z"/><path class="cls-12" d="M1007.22,1035.4s-1.11,68.45.77,76.34l2.9-76.29Z"/><path class="cls-12" d="M1029.53,1032.82s6.54,30.83,1.35,74.6c0,0,10.51-23.56,1.74-75.88Z"/><path class="cls-12" d="M989.61,1030.43s-8.26,31.82-4.21,74.67c0,0-9.23-26.09.89-76.92Z"/><ellipse class="cls-12" cx="1011.87" cy="1023.25" rx="13.37" ry="31.89" transform="translate(-24.51 2021.67) rotate(-89.25)"/><ellipse class="cls-17" cx="1011.89" cy="1021.65" rx="8.03" ry="22.68" transform="translate(-22.89 2020.11) rotate(-89.25)"/><path class="cls-18" d="M1044.84,1026.06s3.47,9.81-3.68,13.52-13.8,6.3-30.91,5.52c-16.46-.74-30.7-7.67-32.91-12.46-1.16-2.5,0-5.35,1.38-7.5a2.9,2.9,0,0,1,.24-.81,5.44,5.44,0,0,0,.28-.66,4.42,4.42,0,0,1,.14-.55c-5.55,3.94-19.26,16.26,4.54,28.79,22.88,12,50.31,5.39,60,.2,7-3.72,7.55-6.64,8.63-10.72C1053.7,1037.08,1052.84,1031.42,1044.84,1026.06Z"/><g class="cls-35"><path class="cls-20" d="M1044.72,1025.06c-3.82-2.76-54.45-4-62.4-4.23a.61.61,0,0,1,.5.57.62.62,0,0,1-.65.56H982l.06.12,0,.15a.47.47,0,0,1-.09.28l-.11.12a.53.53,0,0,1-.21.11.51.51,0,0,1-.25,0,.64.64,0,0,1-.24,0h0a.52.52,0,0,1-.19.37l-.1.1,0,3.72c0,.71-1.21.72-1.28.06,0,.14-.11.28-.16.41a.67.67,0,0,1-.8.39.57.57,0,0,1-.44-.71c.23-.57,1.25-4,1.35-4.19s.1-.78.1-.78c-3,2.58-8.38,8.66-1.21,14.56,9.45,7.76,22.4,10.52,32.09,11.23s26.86-.81,34.15-7C1049.49,1036.72,1048.87,1028.05,1044.72,1025.06Z"/></g><path class="cls-18" d="M971.48,1065s-12.43,33.53,38.58,34.19c56,.74,41.53-37.17,41.53-37.17s.31,27.06-40.35,24.23S971.48,1065,971.48,1065Z"/><g class="cls-36"><path class="cls-20" d="M971.61,1055.21s-14.08,29.63,38.6,32.34c54.42,2.8,41.51-35.1,41.51-35.1s.32,25.58-40.34,22.87S971.61,1055.21,971.61,1055.21Z"/></g><g class="cls-37"><path class="cls-13" d="M1034.24,1026.63c-3.1,2.61-11.52,4.53-22.24,4.39-10.28-.13-19.17-1.77-22.62-4.88-2.39-2.15,4.8-8.94,22.76-8.62C1031.55,1017.88,1036.77,1024.5,1034.24,1026.63Z"/></g><polygon class="cls-5" points="337.87 1184.97 393.87 1173.4 439.93 1191.09 382.65 1223.13 337.87 1184.97"/><polygon class="cls-6" points="385.8 1259.49 384.27 1230.62 382.94 1205.48 337.87 1184.97 343.47 1237.48 385.8 1259.49"/><polygon class="cls-7" points="382.94 1205.48 385.8 1259.49 437.07 1242.38 439.93 1191.09 382.94 1205.48"/><polygon class="cls-8" points="391.62 1211.13 393.64 1249.21 429.02 1236.63 430.99 1201.19 391.62 1211.13"/><polygon class="cls-9" points="376.02 1243.23 375.14 1226.62 374.35 1211.67 347.56 1199.47 350.81 1229.99 376.02 1243.23"/><polygon class="cls-10" points="354.36 1186.43 390.37 1178.74 422.55 1189.67 383.62 1199.47 354.36 1186.43"/><path class="cls-38" d="M1090.37,1447.61c-2.39-25.83,11.37-31.07,12.46-37.15,0,0-23.3,6.73-23.93,23.3l-.18-1.19a62,62,0,0,1,2.5-28.66,37.94,37.94,0,0,0-.12-25.3s-13.77,44.45-22,42.92c0,0,9.52-14.37,3.58-31.75,0,0-13.19,31.33-15.43,37.3C1039,1449.1,1091.48,1459.84,1090.37,1447.61Z"/><path class="cls-38" d="M1418.67,1212.38s3.66-30.41-.2-46.09c0,0,18.66,23.06,16.09,40.6S1418.67,1212.38,1418.67,1212.38Z"/><path class="cls-38" d="M1419.81,1213s-10-22.25-10.8-35.1c0,0-8.71,22-2.59,34.71S1419.81,1213,1419.81,1213Z"/><path class="cls-38" d="M414.32,1261.32s-4.33-18.27,11.38-45.6c.21-.36-.29-.71-.59-.43-5.32,4.93-23.91,23.12-25.58,38.76C397.58,1272.33,414.32,1261.32,414.32,1261.32Z"/><path class="cls-38" d="M411.05,1256s-12.08-10.79-3.22-31.81c.1-.22-.38-.53-.52-.35-2.57,3.11-11.29,14.68-8.59,25.76C401.87,1262.58,411.05,1256,411.05,1256Z"/><path class="cls-38" d="M411.12,1259.45s-16.11-1.76-21.1-24c0-.23-.62-.21-.63,0-.29,4-3.47,19,5.17,26.44C404.65,1270.6,411.12,1259.45,411.12,1259.45Z"/></svg>