<?xml version="1.0" encoding="utf-8"?>
<!-- Generator: Adobe Illustrator 26.0.1, SVG Export Plug-In . SVG Version: 6.00 Build 0)  -->
<svg version="1.1" id="Layer_1" xmlns="http://www.w3.org/2000/svg" xmlns:xlink="http://www.w3.org/1999/xlink" x="0px" y="0px"
	 viewBox="0 0 2000 2000" style="enable-background:new 0 0 2000 2000;" xml:space="preserve">
<style type="text/css">
	.st0{fill:#AA4226;}
	.st1{fill:#A29CB7;}
	.st2{fill:#BCB8D1;}
	.st3{fill:#807A99;}
	.st4{fill:#AED76A;}
	.st5{clip-path:url(#SVGID_00000102510347513704566250000002112154010728153499_);}
	.st6{fill:#FECFAE;}
	.st7{fill:#EFD9C4;}
	.st8{fill:#C17E42;}
	.st9{fill:#E8DBD4;}
	.st10{fill:#DECEC2;}
	.st11{fill:#D88D3D;}
	.st12{fill:#D6B192;}
	.st13{fill:#965626;}
	.st14{fill:#4E8BC1;}
	.st15{fill:#356F93;}
	.st16{fill:#62A4CC;}
	.st17{fill:#1E1713;}
	.st18{fill:#E5BDA3;}
	.st19{fill:#AFD86A;}
</style>
<path class="st0" d="M349.3,1008.3c0,0,26.9-12.8,78.2-1.9L388.4,984L349.3,1008.3z"/>
<path class="st1" d="M820.3,423.1c-3.8-10.9-14.2-18.2-25.7-18.2c-70.5,0-54.3,88.3-54.3,88.3l-38.6,50.5
	C618.8,612.2,616.4,706,616.4,706l106.7-145.2c9.2-12.5,41.9-55.5,41.9-55.5C828.9,480.8,827.7,444.2,820.3,423.1z M798.6,463.2
	c-8.1,17.3-20.9,21.8-29.4,22c-4.9,0.1-12.4-4.6-13.1-9.4c-5.8-38.6,24.8-45.3,30.2-46.7C792,427.6,811.4,435.8,798.6,463.2z"/>
<path class="st2" d="M825.9,425.4c-3.8-10.9-14.2-18.2-25.7-18.2c-70.5,0-54.3,88.3-54.3,88.3L707.2,546
	c-82.9,68.5-90.8,160-90.8,160s103.1-130.4,112.3-142.9s41.9-55.5,41.9-55.5C834.5,483.1,833.3,446.5,825.9,425.4z M803.2,465.2
	c-8.1,17.3-20.1,22.1-28.5,22.3c-4.9,0.1-12,0.7-13.1-9.4c-4.2-38.8,24-46.8,30.2-46.7C797.8,431.4,816,437.8,803.2,465.2z"/>
<path class="st3" d="M666.7,507.6c0,0,32.3,43.4,41.3,56s110.9,144,110.9,144s-7-91.7-89.2-161l-38.1-50.9c0,0,17-88.2-53.5-88.8
	c-11.6-0.1-22,7.1-25.9,18C604.6,445.9,603.1,482.5,666.7,507.6z M647.7,431c8.5,1.9,34.3,8.6,28.2,47.2c-0.8,4.8-8.3,9.4-13.2,9.3
	c-8.4-0.3-20.3-5.2-28.3-22.6C621.9,437.4,641.9,429.8,647.7,431L647.7,431z"/>
<path class="st1" d="M669.9,502.7c0,0,32.3,43.4,41.3,55.9s107.7,148.9,107.7,148.9s-3.8-96.6-86-165.9l-38.1-50.9
	c0,0,17-88.2-53.5-88.9c-11.6-0.1-22,7.1-25.9,18C607.8,441,606.3,477.6,669.9,502.7z M649.4,426.3c5.6,0.2,37.9,8.9,29.8,47
	c-1.6,7.7-8.3,9.4-13.2,9.3c-8.4-0.3-20.4-5.2-28.3-22.6C625.1,432.5,641.4,426,649.4,426.3L649.4,426.3z"/>
<circle class="st2" cx="718" cy="552.2" r="5.1"/>
<path class="st4" d="M620.8,933.5c-73.4-9.1-148.7,3-210.1,35.6c-86.5,45.9-163.2,124.3-99.7,250.2
	c120.3,238.7,236.9,405.6,533.6,378.4s371.7,80.8,680-54.7c145.6-64,214.3-286.6,122.1-441.7c-85.8-144.4-405-311.2-728-216.9
	C752.1,933,665.5,939.1,620.8,933.5z"/>
<g>
	<defs>
		<path id="SVGID_1_" d="M620.8,933.5c-73.4-9.1-148.7,3-210.1,35.6c-86.5,45.9-163.2,124.3-99.7,250.2
			c120.3,238.7,236.9,405.6,533.6,378.4s371.7,80.8,680-54.7c145.6-64,214.3-286.6,122.1-441.7c-85.8-144.4-405-311.2-728-216.9
			C752.1,933,665.5,939.1,620.8,933.5z"/>
	</defs>
	<clipPath id="SVGID_00000111175867044190746750000009107663282960688034_">
		<use xlink:href="#SVGID_1_"  style="overflow:visible;"/>
	</clipPath>
	<g style="clip-path:url(#SVGID_00000111175867044190746750000009107663282960688034_);">
		<path class="st6" d="M1143.7,1101.3c0,0,357.8-66.6,441.8,105.9s-112.6,311-225.1,347.2s-114.8,154.6-109.9,164.1
			s-214.4-76.3-214.4-76.3s83.6-198.5,252.7-238.2c189.9-44.6,189.6-184.3,133.6-226.3c-71.5-53.8-306.3-2.6-306.3-2.6
			L1143.7,1101.3z"/>
	</g>
</g>
<path class="st7" d="M476.1,1064.2c0,0,170.9-69.9,312.2-59.2l15.6,23.7L645,1089.5l-126,23.7L476.1,1064.2z"/>
<path class="st8" d="M483.9,1075.7c0,0,68-27.5,143.7-40.8c54.5-9.6,93.3-11.5,151.9-8.8l-18,74.5c0,0-214.3,38.8-244.1,75.4
	S483.9,1075.7,483.9,1075.7z"/>
<polygon class="st9" points="598.9,1162.7 861.7,1310.8 924.9,1220.9 819.2,1024.5 700.4,915.7 511.6,850.1 592.7,1067.5 "/>
<path class="st10" d="M583.9,953.4c0,0,114.2,74,192,62.9s-53.3-43.3-53.3-43.3S616.2,935.6,606,928s-41.1-31.6-41.1-31.6
	L583.9,953.4z"/>
<polygon class="st10" points="970,1260.4 1161.4,1247.6 1265.2,986.8 1062.3,798 884.3,1038.4 "/>
<path class="st11" d="M506,899.1c0,0,59.8,93.1,102.3,271.1l53.5,21.5c0,0-55.1-259.6-107.8-321.2L506,899.1z"/>
<path class="st12" d="M480.1,899.1c0,0,59.8,93.1,102.3,271.1l53.5,21.5c0,0-55.1-259.6-107.8-321.2L480.1,899.1z"/>
<path class="st12" d="M389.7,807.5c0,0,4.3,76.7,15,93.2l55.6,27.3l40-53.6l-39.3-49.2L420,811.8L389.7,807.5z"/>
<path class="st13" d="M447.9,833.8l-38.1-15.7l-20.1-10.6c0,0,156.3,25.4,326.3-234.1l25,116.4L480.1,833.8H447.9z"/>
<path class="st11" d="M716,573.4c0,0-32.5,202.3-268.1,260.5l9.7,54.3l2.6,39.9c0,0,132.5-59.1,228-165.3
	C756.3,687,729.7,611.8,716,573.4z"/>
<path class="st14" d="M556.5,873.6c0,0,48.2,71.4,174.4,93.8s296.8-212.1,296.8-212.1l-116.4-51.6l-190.4-52.3l-7,12.8
	c-12.9,43.6-42.8,86.7-69,121.6C618.4,820.9,590.3,846.2,556.5,873.6z"/>
<path class="st12" d="M1233,1198.2c0,0-39.5,90.3-33.5,122.6l16.8,38.6l86-118.8L1233,1198.2z"/>
<path class="st13" d="M1288.3,1254.9l-55.3-56.7c0,0,55.8-5.3,70.8,0l56.6,50.5L1288.3,1254.9z"/>
<path class="st11" d="M1280.4,1248c0,0-66,78.3-64.2,111.3c0,0,36.4,8.7,52.1,0c0,0,75.5-102.5,92-110.6
	C1360.4,1248.7,1335.8,1240.5,1280.4,1248z"/>
<path class="st12" d="M813.7,1066.7l14.6,25.9c31,55.1,55.2,113.7,71.9,174.7l0,0l48.8-7.9l-81.8-210L813.7,1066.7z"/>
<path class="st11" d="M846.2,1075.3L846.2,1075.3c33.4,58.2,59.9,120.1,78.7,184.5l3.1,10.6l61.4-14.7c0,0-68.2-190.4-77.1-231.3
	L846.2,1075.3z"/>
<path class="st13" d="M1272,1037.6c0,0-61.4,62.9-81.4,200.6c-2.2,15.1-9.4,8.3-9.4,8.3l-54.3-5.9c0,0,29.5-181.7,83.8-240.7
	L1272,1037.6z"/>
<path class="st11" d="M1288.8,1037.6c0,0-61.4,62.9-81.4,200.6c-2.2,15.1-9.4,8.3-9.4,8.3l-54.3-5.9c0,0,29.5-181.7,83.8-240.7
	L1288.8,1037.6z"/>
<path class="st15" d="M556.5,873.6l10.8,29.1c0,0,44.5,62.1,186.2,84.2l12.5-22.7C766,964.2,634.9,966,556.5,873.6z"/>
<path class="st7" d="M931.2,1269.7c0,0,147.8-46,286.8-22.1l9.2,15.9l-161.8,40.5l-128,6.8L931.2,1269.7z"/>
<path class="st11" d="M935.9,1292.7c0,0,63.8-23.4,142.9-31.8c55-5.9,90.7-5.8,148.5,2.7l-23.6,66.8c0,0-217.4,10.4-251.5,38.2
	S935.9,1292.7,935.9,1292.7z"/>
<path class="st11" d="M529.7,1073.8l23.2,96.5c0,0-21.8,24.7-46.9,21.9c0,0-42.4-66.5-43.2-90.9
	C462.8,1101.3,479.3,1078.5,529.7,1073.8z"/>
<path class="st16" d="M758.1,778c2.3-3.3,1.8-7.8-1.3-10.4c-4-3.4-9-7.9-10.6-10.5c-2.9-4.6-24.8,28.4-23.6,35.9
	s14.3,13.6,17.3,12.5C742.2,804.8,751,788,758.1,778z"/>
<path class="st16" d="M711.3,782.6c2.3-3.3,1.8-7.8-1.3-10.4c-4-3.4-9-7.9-10.6-10.5c-2.9-4.6-24.8,28.4-23.6,35.9
	s14.3,13.6,17.3,12.5C695.4,809.3,704.2,792.5,711.3,782.6z"/>
<path class="st16" d="M752.5,893.5c2.2-3,1.7-7.2-1.1-9.7c-3.7-3.2-8.3-7.4-9.8-9.8c-2.7-4.3-23.2,26.3-22.2,33.3s13.2,12.8,16,11.8
	C737.5,918.3,745.8,902.8,752.5,893.5z"/>
<path class="st16" d="M739.6,740.2c1.5-2.2,1.2-5.2-0.8-6.9c-2.7-2.3-6-5.2-7-7c-1.9-3-16.4,18.8-15.7,23.8s9.5,9,11.5,8.3
	C729.1,757.9,734.9,746.8,739.6,740.2z"/>
<path class="st16" d="M868,808.5c2-2.4,1.9-6-0.3-8.3c-3-3-6.6-6.8-7.7-8.9c-2-3.8-21.2,20.8-20.8,26.8s10.4,11.6,12.8,10.9
	C853.9,828.6,861.8,816,868,808.5z"/>
<path class="st16" d="M687.7,848.9c1.6-1.9,1.5-4.7-0.3-6.4c-2.3-2.3-5.1-5.2-5.9-6.9c-1.5-2.9-16.4,16.1-16.1,20.7s8,9,9.9,8.5
	C676.7,864.4,682.8,854.6,687.7,848.9z"/>
<path class="st7" d="M716,573.4l9.9-6.6c0,0,13,82.2,359.1,106.6l0,0l-106.6,22l-198.2-29.5l-56.6-63.7L716,573.4z"/>
<path class="st13" d="M716,573.4c0,0,34.3,107.5,369,100l-41.7,66.9c0,0-189.2,33.6-327.3-79.6V573.4z"/>
<path class="st13" d="M1005.3,1031c19.6-11.7,43.5-13.2,65-5.6c18.4,6.5,40.8,19.8,48,46.6c13,48.1-12.9,87.8-58.9,97
	s-89.5-33-89.4-67.7C970.1,1075.9,978.4,1047,1005.3,1031z"/>
<path class="st11" d="M1017.7,1030.4c19.6-11.6,43.5-13.2,65-5.6c18.4,6.5,40.8,19.8,48,46.6c13,48.1-12.9,87.8-59,97
	s-89.5-33-89.4-67.7C982.5,1075.3,990.8,1046.4,1017.7,1030.4z"/>
<path class="st17" d="M1030.3,1044.8c15.3-8.1,33.4-8.4,49.4-1.8c13.7,5.6,30.2,16.5,34.6,37.1c8,36.9-13,66-48.2,71.2
	s-66.5-28.3-65.2-54.6C1002,1077.5,1009.4,1056,1030.3,1044.8z"/>
<polygon class="st11" points="1049.7,1036.1 1045.7,1156.4 1065.5,1156.6 1070.5,1036.3 "/>
<polygon class="st11" points="997.5,1100.2 1117.7,1106.8 1118.4,1087.1 998.2,1079.3 "/>
<path class="st11" d="M689,1199.1c0,0-45.7-87.5,17.5-107.1s103.3,79.6,82.5,154.5C789,1246.5,700.7,1229.7,689,1199.1z"/>
<path class="st12" d="M687.6,1205.1c0,0-41.4-79.4,15.8-97.1s93.7,72.2,74.8,140.1C778.2,1248.1,698.1,1232.9,687.6,1205.1z"/>
<path class="st3" d="M691,1200.1c0,0-36.8-70.5,14-86.2s83.2,64.1,66.4,124.4C771.5,1238.3,700.4,1224.8,691,1200.1z"/>
<path class="st1" d="M690.4,1202.9c0,0-35.3-67.7,13.5-82.8s79.9,61.5,63.8,119.5C767.7,1239.6,699.4,1226.6,690.4,1202.9z"/>
<path class="st12" d="M723.1,1163.6c-1.1,6.2-4.2,18.2-11.9,26c-1.8,1.7-1.8,4.6-0.1,6.4c0.2,0.2,0.5,0.5,0.8,0.6
	c1.8,1.2,3.8,1.8,5.5,0.7c3.9-2.6,14.6-19,14.5-33c0-0.7-0.2-1.3-0.5-1.9c0,0,0-0.1,0-0.1c-1.1-2.2-3.8-3-6-1.9
	C724.2,1161,723.3,1162.2,723.1,1163.6z"/>
<path class="st12" d="M705.8,1178.6c6.2,0.9,18.4,3.4,26.5,10.8c1.8,1.7,4.7,1.6,6.4-0.2c0.2-0.2,0.4-0.5,0.6-0.8
	c1.1-1.8,1.7-3.9,0.5-5.6c-2.7-3.8-19.6-13.8-33.6-13.1c-0.7,0-1.3,0.2-1.9,0.6l-0.1,0.1c-2.1,1.3-2.8,4-1.6,6.1
	C703.2,1177.6,704.4,1178.4,705.8,1178.6z"/>
<path class="st12" d="M484.9,1117.1c0,0,80.6,25.2,198.2,83c131.6,64.7,120.4,77.9,140.8,84.1l41.7,94.1l-347.7-190.4L484.9,1117.1z
	"/>
<path class="st7" d="M484.9,1116.8l28.9-11l329,161.3l-18.9,16.8l0,0c-102.7-54.8-207-106.5-312.8-155.1L484.9,1116.8z"/>
<path class="st18" d="M506,1192.2l-43.2-90.9l-50.4-27.5c0,0,34.6,78.1,50.4,96.5L506,1192.2z"/>
<path class="st13" d="M462.8,1101.3c0,0,53.5-18.1,66.9-27.5l-53.5-24.4l-63.7,24.4C412.5,1073.8,426.6,1094.2,462.8,1101.3z"/>
<path class="st11" d="M954.5,1269.5l12.3,126.9c0,0-32.1,27.5-63.5,19.5c0,0-42.1-92.1-38.8-123.3
	C864.5,1292.7,889.6,1266.6,954.5,1269.5z"/>
<path class="st12" d="M903.3,1416l-38.8-123.3l-59.2-44c0,0,30.2,105.6,46.9,131.7L903.3,1416z"/>
<path class="st13" d="M864.5,1292.7c0,0,71.3-13.5,90-23.2l-63.8-40.5l-85.4,19.7C805.4,1248.7,819.8,1277.2,864.5,1292.7z"/>
<path class="st1" d="M1202.4,500.5c-3.8-13-15.4-22.2-28.9-23c-82.2-4.5-69.1,99.6-69.1,99.6l-48.3,56.5
	c-101.1,74.6-109.9,184-109.9,184L1080.2,655c11.5-14,52.5-62.1,52.5-62.1C1208.7,568.5,1209.8,525.7,1202.4,500.5z M1174.4,545.9
	c-10.5,19.6-25.8,24.1-35.7,23.8c-5.7-0.2-14.2-6.1-14.7-11.8c-4.3-45.4,31.9-51.3,38.3-52.6C1169.2,504,1191.2,514.8,1174.4,545.9
	L1174.4,545.9z"/>
<path class="st2" d="M1208.8,503.6c-3.8-13-15.4-22.2-28.9-23c-82.2-4.5-69.1,99.6-69.1,99.6l-48.3,56.5
	c-101.1,74.6-116.3,181-116.3,181S1075,672,1086.5,658s52.5-62.1,52.5-62.1C1215.1,571.5,1216.1,528.7,1208.8,503.6z M1179.8,548.6
	c-10.6,19.6-24.8,24.5-34.7,24.2c-5.7-0.2-14.1,0-14.7-11.8c-2.4-45.5,31-53.1,38.3-52.6C1175.7,508.8,1196.5,517.5,1179.8,548.6
	L1179.8,548.6z"/>
<path class="st3" d="M1017.8,589.2c0,0,34.9,52.7,44.6,68s120.1,175.2,120.1,175.2s-2.3-107.4-93.7-193.6l-41.2-61.8
	c0,0,25.5-101.8-56.7-107.1c-13.5-0.8-26.1,6.9-31.4,19.3C949.2,513.3,945.1,555.9,1017.8,589.2z M1000.5,498.7
	c9.8,2.7,39.5,12.3,29.9,56.8c-1.2,5.6-10.3,10.5-16,10c-9.8-0.9-23.4-7.4-31.5-28.2C970,504.5,993.9,496.8,1000.5,498.7
	L1000.5,498.7z"/>
<path class="st1" d="M1021.8,583.7c0,0,34.9,52.7,44.6,68s116,180.8,116,180.8s1.7-113-89.7-199.1l-41.2-61.8
	c0,0,25.5-101.8-56.7-107.1c-13.5-0.8-26.1,6.9-31.4,19.3C953.3,507.8,949.2,550.4,1021.8,583.7z M1002.8,493.2
	c6.5,0.6,43.6,12.8,31.7,56.8c-2.4,8.9-10.3,10.5-16,10c-9.8-0.9-23.4-7.4-31.5-28.2C974.1,498.9,993.5,492.4,1002.8,493.2
	L1002.8,493.2z"/>
<circle class="st2" cx="1074.8" cy="644.6" r="5.9"/>
<path class="st19" d="M880.5,1424.7c9.6-35.6-15.8-44-17.8-52.8c0,0,32.6,7.2,34.5,31.3l0-18.3c0-6.5-1.2-12.9-3.6-18.9
	c-5.3-13.4-5.7-28.3-1-42c0,0,19.7,63.6,31.7,60.9c0,0-8.2-21.4,0.1-32.2c0,0,8.7,25.1,24.9,46.5
	C970,1426.8,879.5,1442.7,880.5,1424.7z"/>
<path class="st19" d="M1156.9,1352.2c0,0,11.5-63.6-0.3-75.1c0,0-13.7,50.6-24.3,53.8s-11.6-50.4-11.6-50.4s-23.7,32.2-14.8,51.3
	S1156.9,1352.2,1156.9,1352.2z"/>
<path class="st19" d="M1141.6,1338.2c0,0,25-4.2,41.7-29.2c0,0-7,34.8-28.1,39.1C1137.8,1351.8,1141.6,1338.2,1141.6,1338.2z"/>
<path class="st19" d="M646.1,1263c0,0-25.7-35.9-31.7-58.4c0,0-7.6,42.1,7.8,62.5S646.1,1263,646.1,1263z"/>
<path class="st19" d="M653.2,1263.6c0,0-9.3-33-8-52c0,0-15.5,32.2-9.7,51.1S653.2,1263.6,653.2,1263.6z"/>
<path class="st19" d="M564.1,1214.3c0,0-16.4-30.2-19.3-48.9c0,0-8,34.8,1.9,52S564.1,1214.3,564.1,1214.3z"/>
<path class="st13" d="M730.8,967.3c0,0,158.2-27.7,289.8-251.5l64.5-42.5l-22.8,139.2L940.3,947.9l-112.5,56.6l10.6-7.5
	C838.5,997.1,742.7,989.2,730.8,967.3z"/>
<polygon class="st12" points="826.3,1091.1 745.2,1067.2 730.8,967.3 804.2,984.1 886.6,999.8 894.4,1029.2 "/>
<path class="st11" d="M1085.1,673.4c0,0-123.5,269-280.8,310.7l12.6,59c0,0,34.6-3.9,58.2-22.8c0,0-35.4,30.7-51.9,32.3l3.2,38.6
	c0,0,195.9-81.8,258.8-250.6c0,0,40.9,159.3,239.1,216.7l14.3-33.4c0,0-23.8,3-45.8-19.3c0,0,32.5,15,51.5,9.3l8.1-25.9
	c0,0-41.5,0.1-65.9-22.8c0,0,54,20.3,75.2,6.2l4.2-19.5C1365.9,951.8,1255.8,990.4,1085.1,673.4z"/>
</svg>
