<svg id="Layer_1" enable-background="new 0 0 512 512" height="512" viewBox="0 0 512 512" width="512" xmlns="http://www.w3.org/2000/svg"><g><path d="m406.625 120.5h-105.5v-105.5c0-8.284-6.716-15-15-15h-60.25c-8.284 0-15 6.716-15 15v105.5h-105.5c-8.284 0-15 6.716-15 15v60.25c0 8.284 6.716 15 15 15h105.5v286.25c0 8.284 6.716 15 15 15h60.25c8.284 0 15-6.716 15-15v-286.25h105.5c8.284 0 15-6.716 15-15v-60.25c0-8.284-6.716-15-15-15z" fill="#b56d3c"/><path d="m406.625 120.5h-105.5v-105.5c0-8.284-6.716-15-15-15h-30.125v512h30.125c8.284 0 15-6.716 15-15v-286.25h105.5c8.284 0 15-6.716 15-15v-60.25c0-8.284-6.716-15-15-15z" fill="#8d5c4d"/></g></svg>