<?xml version="1.0" encoding="utf-8"?>
<!-- Generator: Adobe Illustrator 26.0.1, SVG Export Plug-In . SVG Version: 6.00 Build 0)  -->
<svg version="1.1" id="Layer_1" xmlns="http://www.w3.org/2000/svg" xmlns:xlink="http://www.w3.org/1999/xlink" x="0px" y="0px"
	 viewBox="0 0 2000 2000" style="enable-background:new 0 0 2000 2000;" xml:space="preserve">
<style type="text/css">
	.st0{fill:#AED76A;}
	.st1{clip-path:url(#SVGID_00000101792761046826791510000015621435096889712525_);fill:#FECFAE;}
	.st2{fill:#AAA49B;}
	.st3{fill:#8F65AC;}
	.st4{fill:#E8E3DD;}
	.st5{fill:#60262E;}
	.st6{fill:#BAB6AF;}
	.st7{clip-path:url(#SVGID_00000169540918218277213640000010062845940488646049_);fill:#FECFAE;}
	.st8{fill:#E5BF9C;}
	.st9{fill:#A08470;}
	.st10{fill:#3F2957;}
	.st11{fill:#AFD86A;}
	.st12{clip-path:url(#SVGID_00000139260132328219044010000002874689874168018066_);fill:#FECFAE;}
	.st13{clip-path:url(#SVGID_00000111898059568659925790000014303239853315456415_);fill:#FECFAE;}
	.st14{fill:#877874;}
	.st15{fill:#967266;}
	.st16{fill:#4C3B36;}
	.st17{fill:#725B51;}
	.st18{fill:#DDCBB8;}
	.st19{fill:#441C0C;}
	.st20{fill:#592710;}
	.st21{fill:#724E44;}
	.st22{clip-path:url(#SVGID_00000146497050036082796470000010569186189899768996_);fill:#FECFAE;}
	.st23{fill:#77A22F;}
	.st24{fill:#AA9983;}
	.st25{fill:#EAC794;}
	.st26{fill:#936B3E;}
	.st27{fill:#E0D1B7;}
	.st28{fill:#BF9D71;}
	.st29{fill:#4C94BF;}
	.st30{fill:#FFFFFF;}
	.st31{fill:#7B625C;}
	.st32{fill:#392516;}
	.st33{fill:#551C3B;}
	.st34{fill:#A28A84;}
	.st35{fill:#B48F6C;}
	.st36{fill:#FECFAE;}
	.st37{fill:#402F21;}
	.st38{fill:#381126;}
	.st39{fill:#7A6047;}
	.st40{fill:#6B6969;}
	.st41{fill:#4F3F2F;}
	.st42{fill:#787676;}
	.st43{fill:#908D8E;}
	.st44{fill:#6E899F;}
	.st45{fill:#FDCFAC;}
	.st46{fill:#62534C;}
	.st47{fill:#554A44;}
	.st48{fill:#3D5669;}
	.st49{fill:#293035;}
	.st50{fill:#78685E;}
	.st51{fill:#8F8D8E;}
	.st52{fill:#38444D;}
	.st53{fill:#797677;}
	.st54{fill:#CAB399;}
	.st55{fill:#A5917A;}
	.st56{fill:#8BBC38;}
	.st57{fill:#AA4226;}
	.st58{fill:#312419;}
	.st59{fill:#443428;}
	.st60{fill:#846A55;}
	.st61{fill:none;}
	.st62{fill:#634C3B;}
	.st63{clip-path:url(#SVGID_00000183243895849385413560000012090029768422828219_);}
	.st64{fill:#D6BA9D;}
	.st65{fill:#1E1713;}
	.st66{fill:#B99971;}
	.st67{fill:#8C6D51;}
	.st68{fill:#9E7E5C;}
	.st69{clip-path:url(#SVGID_00000089562109414491538760000010638984151510088582_);}
	.st70{fill:#352820;}
	.st71{fill:#665140;}
	.st72{clip-path:url(#SVGID_00000108278527990389734750000013383707878084611456_);}
	.st73{clip-path:url(#SVGID_00000033361021679720426110000003640859551976955045_);}
	.st74{clip-path:url(#SVGID_00000067957695770222329430000017964136937506484361_);}
	.st75{clip-path:url(#SVGID_00000049922157206761780760000006168457533567240832_);}
	.st76{fill:#8ABD32;}
	.st77{clip-path:url(#SVGID_00000080208726139305043820000011221377755575642297_);}
	.st78{fill:#993A23;}
	.st79{clip-path:url(#SVGID_00000151528321248905688250000001168962439882840739_);fill:#993A23;}
	.st80{fill:#7A291B;}
	.st81{clip-path:url(#SVGID_00000012448942224215277720000004198172942625431446_);fill:#993A23;}
	.st82{fill:#BC4D3B;}
	.st83{fill:#846F5A;}
	.st84{fill:#AD957D;}
	.st85{fill:#D8C9BA;}
	.st86{fill:#C4B19F;}
	.st87{fill:#705E4D;}
	.st88{clip-path:url(#SVGID_00000119807661553424981200000003872464609635564209_);fill:#998776;}
	.st89{fill:#604F40;}
	.st90{fill:#A39386;}
	.st91{clip-path:url(#SVGID_00000033334387553424633440000010545234138054377353_);fill:#998776;}
	.st92{clip-path:url(#SVGID_00000156566644557511907730000017410798808785674886_);fill:#998776;}
	.st93{clip-path:url(#SVGID_00000160884781687114485070000005933866112125091215_);fill:#846F5A;}
	.st94{clip-path:url(#SVGID_00000160884781687114485070000005933866112125091215_);fill:#998776;}
	.st95{fill:#E5D6C7;}
	.st96{fill:#937D69;}
	.st97{fill:#3C3229;}
	.st98{fill:#71BBD8;}
	.st99{fill:#EC7D51;}
	.st100{fill:url(#SVGID_00000072249781693264929860000004186227060842520767_);}
	.st101{opacity:0.65;fill:url(#SVGID_00000162335987522600424900000014393693252048205241_);}
	.st102{opacity:0.65;fill:url(#SVGID_00000083088317657521041680000016339164995342622355_);}
	.st103{clip-path:url(#SVGID_00000155147562899811949970000003567806192143864718_);fill:#998776;}
	.st104{clip-path:url(#SVGID_00000169553955429870913050000002462250112948716975_);fill:#998776;}
	.st105{clip-path:url(#SVGID_00000144300591607822810640000018411321747375310738_);fill:#846F5A;}
	.st106{clip-path:url(#SVGID_00000144300591607822810640000018411321747375310738_);fill:#998776;}
	.st107{fill:#A08975;}
	.st108{clip-path:url(#SVGID_00000038373562828703608040000012784097168909050258_);}
	.st109{fill:url(#SVGID_00000095336686972015964550000014950616090548932257_);}
	.st110{opacity:0.65;fill:url(#SVGID_00000000199741054670772280000011137577556291568539_);}
	.st111{fill:#998776;}
	.st112{fill:#C1AE9F;}
	.st113{clip-path:url(#SVGID_00000131368407520754056620000001159506173722557098_);fill:#846F5A;}
	.st114{clip-path:url(#SVGID_00000131368407520754056620000001159506173722557098_);fill:#998776;}
	.st115{clip-path:url(#SVGID_00000127045496435393796690000005497961883382693515_);}
	.st116{fill:#515151;}
	.st117{fill:#7A7A7A;}
	.st118{fill:#8C8C8C;}
	.st119{fill:#F5E3BA;}
	.st120{fill:#593263;}
	.st121{opacity:0.4;fill:#BB986F;}
	.st122{fill:#A5A5A5;}
	.st123{fill:#BB986F;}
	.st124{fill:#A883C6;}
	.st125{fill:#2E1849;}
	.st126{fill:#6B6B6B;}
	.st127{fill:#724382;}
	.st128{clip-path:url(#SVGID_00000144302008554178440950000012005306790894839209_);fill:#8ABD32;}
	.st129{clip-path:url(#SVGID_00000119813497669689610710000008143354605415548807_);}
	.st130{fill:#70442C;}
	.st131{opacity:0.2;clip-path:url(#SVGID_00000147191779004317093800000000341270461011605125_);fill:#70442C;}
	.st132{fill:#A36B4B;}
	.st133{fill:#875536;}
	.st134{fill:#D5AF73;}
	.st135{opacity:0.2;clip-path:url(#SVGID_00000007419857905644489310000011626637118805619116_);fill:#70442C;}
	.st136{opacity:0.2;clip-path:url(#SVGID_00000080914968454546641610000009040420570463486885_);fill:#70442C;}
	.st137{opacity:0.4;clip-path:url(#SVGID_00000021832568534770601440000018165965699507966614_);fill:#70442C;}
	.st138{opacity:0.2;clip-path:url(#SVGID_00000021832568534770601440000018165965699507966614_);fill:#70442C;}
	.st139{clip-path:url(#SVGID_00000043433581060321803130000005990850568703619506_);fill:#FECFAE;}
	.st140{fill:#9B8572;}
	.st141{fill:#4F2C2A;}
	.st142{fill:#934D3D;}
	.st143{clip-path:url(#SVGID_00000162330462294483207580000009975943224309933465_);fill:#70442C;}
	.st144{fill:#BF975D;}
	.st145{fill:#A57341;}
	.st146{clip-path:url(#SVGID_00000106136216546394231670000002156089143127764625_);fill:#70442C;}
	.st147{clip-path:url(#SVGID_00000151544135009621075760000000829697712392510881_);fill:#70442C;}
	.st148{fill:#4A1F19;}
	.st149{clip-path:url(#SVGID_00000129167744497668147510000011760491417649702566_);fill:#A37A79;}
	.st150{fill:#D19857;}
	.st151{fill:#D6B58E;}
	.st152{fill:#AF8956;}
	.st153{clip-path:url(#SVGID_00000082342155962201694030000000642257304624096187_);fill:#FECFAE;}
	.st154{fill:#93643A;}
	.st155{clip-path:url(#SVGID_00000099643940497413840780000005710299391045101463_);fill:#70442C;}
	.st156{clip-path:url(#SVGID_00000047769385172879746020000012023857809333610134_);fill:#70442C;}
	.st157{clip-path:url(#SVGID_00000121259183908424498740000009721991215602843556_);fill:#70442C;}
	.st158{clip-path:url(#SVGID_00000067222605792829893130000014091821660836569739_);fill:#70442C;}
	.st159{clip-path:url(#SVGID_00000182491945924874423130000016202252744359430307_);fill:#70442C;}
	.st160{clip-path:url(#SVGID_00000031180561221339037700000006684492586490636468_);fill:#70442C;}
	.st161{clip-path:url(#SVGID_00000013875283222003252700000016670818608213309849_);fill:#70442C;}
	.st162{clip-path:url(#SVGID_00000088104428766888380060000014740303934308789933_);fill:#70442C;}
	.st163{clip-path:url(#SVGID_00000101074873380446244640000006326655964136239798_);fill:#70442C;}
	.st164{clip-path:url(#SVGID_00000004514020175239560690000010548154824841193374_);fill:#70442C;}
	.st165{clip-path:url(#SVGID_00000158743621111093005620000013247388067333032102_);fill:#70442C;}
	.st166{clip-path:url(#SVGID_00000158750694744175729000000005393142800000162478_);fill:#70442C;}
	.st167{clip-path:url(#SVGID_00000124131367997679372240000014952436176558737824_);fill:#A37A79;}
	.st168{clip-path:url(#SVGID_00000141432313696353141360000000974057121077196164_);fill:#FECFAE;}
	.st169{clip-path:url(#SVGID_00000173881774545858628000000006981744376179259067_);fill:#70442C;}
	.st170{clip-path:url(#SVGID_00000152253157214381934910000015832870139278812033_);fill:#70442C;}
	.st171{clip-path:url(#SVGID_00000010996993022544779710000015695684358201405374_);fill:#70442C;}
	.st172{fill:#877366;}
	.st173{clip-path:url(#SVGID_00000017486199152087761080000003314463821941676219_);fill:#FECFAE;}
	.st174{fill:#4E8BC1;}
	.st175{fill:#F9EBE8;}
	.st176{fill:#C9B3AD;}
	.st177{fill:#EAD2CC;}
	.st178{fill:#387BAD;}
	.st179{clip-path:url(#SVGID_00000083052993043510346730000012428149780707917739_);fill:#8ABD32;}
	.st180{clip-path:url(#SVGID_00000163769943494443614340000015933209660860615307_);fill:#8ABD32;}
	.st181{clip-path:url(#SVGID_00000127751869614640131240000001759883542141430157_);fill:#8ABD32;}
	.st182{clip-path:url(#SVGID_00000120554486129818125590000010124299469087393715_);fill:#8ABD32;}
	.st183{clip-path:url(#SVGID_00000071526537583538708440000006342003973359934379_);fill:#8ABD32;}
	.st184{clip-path:url(#SVGID_00000096035905245863057110000006088951484052868000_);fill:#FECFAE;}
	.st185{clip-path:url(#SVGID_00000170245251785467187370000003245116496432180126_);fill:#8ABD32;}
	.st186{fill:#5597C9;}
	.st187{fill:#1572A0;}
	.st188{fill:#D6C5C1;}
	.st189{clip-path:url(#SVGID_00000154404983979438631780000014243847138162536077_);fill:#8ABD32;}
	.st190{fill:#61A6D1;}
	.st191{fill:#B2A19D;}
	.st192{clip-path:url(#SVGID_00000032641253898602550640000008843411283161420203_);fill:#8ABD32;}
	.st193{clip-path:url(#SVGID_00000046312715598088675500000010168705652451247488_);fill:#FECFAE;}
	.st194{clip-path:url(#SVGID_00000177476773754266976510000009374232283441511345_);fill:#8ABD32;}
	.st195{clip-path:url(#SVGID_00000021089829003453297420000016565047561471201429_);fill:#FECFAE;}
	.st196{fill:#A07775;}
	.st197{fill:#B79C86;}
	.st198{fill:#8C383B;}
	.st199{fill:#A5606B;}
	.st200{fill:#8F534A;}
	.st201{fill:#523028;}
	.st202{fill:#7A2C32;}
	.st203{fill:#965D59;}
	.st204{clip-path:url(#SVGID_00000101105768058574860080000003729597690178134407_);fill:#8F534A;}
	.st205{clip-path:url(#SVGID_00000165221092259885838250000015231199596160115616_);fill:#8BBC38;}
	.st206{clip-path:url(#SVGID_00000150805977103682691690000002369369590841950133_);fill:#8BBC38;}
	.st207{clip-path:url(#SVGID_00000136406584444335624020000018242124874494758028_);fill:#FDCFAC;}
	.st208{clip-path:url(#SVGID_00000054258782338797077790000010213939521951125398_);fill:#8F534A;}
	.st209{fill:#5B3932;}
	.st210{fill:#9E5F59;}
	.st211{clip-path:url(#SVGID_00000090993705295181196390000017253306544835717815_);fill:#8BBC38;}
	.st212{clip-path:url(#SVGID_00000011738882057472395410000012555345351034207631_);fill:#603D38;}
	.st213{clip-path:url(#SVGID_00000018932774421251364530000009733468723719567546_);fill:#523028;}
	.st214{fill:#914047;}
	.st215{clip-path:url(#SVGID_00000084512937970171926090000011211911559475801535_);fill:#8BBC38;}
	.st216{clip-path:url(#SVGID_00000129178439439346117650000015237168984294283649_);fill:#8BBC38;}
	.st217{clip-path:url(#SVGID_00000183213074614704570820000003129712197587514030_);fill:#603D38;}
	.st218{clip-path:url(#SVGID_00000072241542595460314890000009922432654307197335_);fill:#523028;}
	.st219{clip-path:url(#SVGID_00000062899970350828820930000006484419999862609029_);fill:#8BBC38;}
	.st220{clip-path:url(#SVGID_00000081622925139450260000000011668318056770937271_);fill:#8BBC38;}
	.st221{clip-path:url(#SVGID_00000118396038395091668420000007595738600917549187_);fill:#8ABD32;}
	.st222{clip-path:url(#SVGID_00000083070477011100328110000007727049911306655157_);fill:#441C0C;}
	.st223{fill:#9B786F;}
	.st224{fill:#8E7C75;}
	.st225{opacity:0.8;fill:#A3ACAF;}
	.st226{fill:#838C8E;}
	.st227{fill:#CFE59A;}
	.st228{clip-path:url(#SVGID_00000147222475107070181650000003519456110332220592_);fill:#FECFAE;}
	.st229{clip-path:url(#SVGID_00000100344073417098849550000003421015069387572655_);fill:#441C0C;}
	.st230{fill:#773825;}
	.st231{clip-path:url(#SVGID_00000047038677594310729010000017038990638693177747_);}
	.st232{clip-path:url(#SVGID_00000173120220793512785290000013851084423145086093_);}
	.st233{clip-path:url(#SVGID_00000036239525201423148330000016620964304504815018_);fill:#441C0C;}
	.st234{clip-path:url(#SVGID_00000156578613303956413450000000350789354544858808_);}
	.st235{clip-path:url(#SVGID_00000004531621856402421050000013889585341023393942_);fill:#441C0C;}
	.st236{fill:#2B1009;}
	.st237{opacity:0.8;fill:#B8BFC1;}
	.st238{fill:#B8BFC1;}
	.st239{fill:#F5FFCA;}
	.st240{fill:#A0C45B;}
	.st241{fill:#BCE077;}
	.st242{clip-path:url(#SVGID_00000183228067564486274370000014574793881863401370_);fill:#FECFAE;}
	.st243{clip-path:url(#SVGID_00000141440858984159322780000001237388053890998151_);}
	.st244{fill:#B99AD6;}
	.st245{fill:#EDCCB2;}
	.st246{fill:#9287AB;}
	.st247{fill:#B6B3C4;}
	.st248{fill:#A29CB7;}
	.st249{fill:#5A546D;}
	.st250{fill:#7F6A5C;}
	.st251{fill:#645F77;}
	.st252{fill:#472A51;}
	.st253{clip-path:url(#SVGID_00000026140894545604435250000002948901499953846917_);}
	.st254{fill:#6D407C;}
	.st255{clip-path:url(#SVGID_00000045596447586352373510000015656720185266343864_);fill:#6D407C;}
	.st256{clip-path:url(#SVGID_00000054244271534222536370000001859124267992425616_);fill:#6D407C;}
	.st257{clip-path:url(#SVGID_00000005234106720383490780000012981045328141399732_);fill:#8ABD32;}
	.st258{fill:#76708E;}
	.st259{clip-path:url(#SVGID_00000052089891542260903390000001568654609670571677_);fill:#6D407C;}
	.st260{clip-path:url(#SVGID_00000110462108878037350130000014248353929782889114_);fill:#6D407C;}
	.st261{fill:#9C7ABC;}
	.st262{clip-path:url(#SVGID_00000093158790327751004320000014033433698951917458_);fill:#FECFAE;}
	.st263{clip-path:url(#SVGID_00000065779665221550100790000004408950984423379116_);fill:#6D407C;}
	.st264{clip-path:url(#SVGID_00000173143450700157368850000006375661994789804930_);fill:#B99AD6;}
	.st265{clip-path:url(#SVGID_00000066487765461164221460000007234405695567572869_);fill:#FECFAE;}
	.st266{clip-path:url(#SVGID_00000173864226818658670470000007692380656806633860_);fill:#8ABD32;}
	.st267{fill:#8C796F;}
	.st268{fill:#633C27;}
	.st269{fill:#3F2519;}
	.st270{fill:#6B5E55;}
	.st271{clip-path:url(#SVGID_00000129893088885548386710000014217845707126484156_);fill:#633C27;}
	.st272{fill:#7A6B5F;}
	.st273{fill:#2B1811;}
	.st274{fill:#594E47;}
	.st275{fill:#685C53;}
	.st276{fill:#A8968A;}
	.st277{fill:#996A52;}
	.st278{fill:#B2A197;}
	.st279{fill:#A39081;}
	.st280{clip-path:url(#SVGID_00000045611356671349977690000000172427707614346131_);}
	.st281{clip-path:url(#SVGID_00000169544651273650674170000013756758481703503273_);fill:#FECFAE;}
	.st282{fill:#685443;}
	.st283{fill:#CCB193;}
	.st284{fill:#BB9C75;}
	.st285{fill:#C6A283;}
	.st286{fill:#897056;}
	.st287{fill:#DB6800;}
	.st288{fill:#F28D26;}
	.st289{fill:#702C31;}
	.st290{fill:#9B8067;}
	.st291{fill:#35261D;}
	.st292{fill:#4B3628;}
	.st293{fill:#658723;}
	.st294{fill:#EDD87E;}
	.st295{fill:#992828;}
	.st296{fill:#C93F3F;}
	.st297{fill:#E1C243;}
	.st298{fill:#D8B213;}
	.st299{fill:#E5CA57;}
	.st300{clip-path:url(#SVGID_00000088130082770908451250000008207340278512512681_);}
	.st301{clip-path:url(#SVGID_00000115493713629642779560000012626926102442755460_);fill:#FECFAE;}
	.st302{fill:#AD8B82;}
	.st303{clip-path:url(#SVGID_00000155128134805068668900000000937387961012608660_);}
	.st304{fill:#7C685B;}
	.st305{clip-path:url(#SVGID_00000157298728386857640940000010778281929750502319_);}
	.st306{clip-path:url(#SVGID_00000148649964332076630390000007434541775516956064_);}
	.st307{fill:#E2D3C5;}
	.st308{fill:#FFEEA9;}
	.st309{fill:#2B211F;}
	.st310{fill:#A3847E;}
	.st311{fill:#544541;}
	.st312{clip-path:url(#SVGID_00000010300612088941613320000012531372412666649768_);fill:#7C251C;}
	.st313{fill:#7C251C;}
	.st314{fill:#CEA380;}
	.st315{clip-path:url(#SVGID_00000096042258271868407360000008780944319397999789_);fill:#8E2F20;}
	.st316{clip-path:url(#SVGID_00000031195038074766410100000010852252070967324567_);fill:#AA4226;}
	.st317{fill:#BA9B95;}
	.st318{fill:#6B5956;}
	.st319{fill:#594947;}
	.st320{fill:#877674;}
	.st321{clip-path:url(#SVGID_00000010273179319950692040000009704971143073663889_);fill:#B6B3C4;}
	.st322{clip-path:url(#SVGID_00000157987346340080519880000007092866819325828519_);fill:#B6B3C4;}
	.st323{clip-path:url(#SVGID_00000013881603848667125720000008135467542139941541_);fill:#E5CA57;}
	.st324{clip-path:url(#SVGID_00000045606003184888767130000007180457113801371053_);fill:#E5CA57;}
	.st325{clip-path:url(#SVGID_00000071553088362194967710000017532949810827440776_);fill:#FECFAE;}
	.st326{fill:#EEC8B8;}
	.st327{fill:#CEA697;}
	.st328{fill:#888499;}
	.st329{fill:#9B4329;}
	.st330{fill:#933D2E;}
	.st331{fill:#843523;}
	.st332{fill:#CC6748;}
	.st333{fill:#B7542E;}
	.st334{fill:#7C3237;}
	.st335{fill:#893724;}
	.st336{fill:#914759;}
	.st337{fill:#D67B5F;}
	.st338{clip-path:url(#SVGID_00000132082445516692356480000009568743033767423635_);fill:#B6B3C4;}
	.st339{clip-path:url(#SVGID_00000156553285409361382030000011467043029759824781_);fill:#B6B3C4;}
	.st340{clip-path:url(#SVGID_00000003821921668700110490000002534356097560725425_);fill:#E5CA57;}
	.st341{clip-path:url(#SVGID_00000158740137336223074110000006729091100182785171_);fill:#E5CA57;}
	.st342{clip-path:url(#SVGID_00000021812314140775280740000009332802913195296390_);fill:#B6B3C4;}
	.st343{clip-path:url(#SVGID_00000125581867287334715090000000384512220901932177_);fill:#B6B3C4;}
	.st344{clip-path:url(#SVGID_00000034796308137299734380000001713883567277905838_);fill:#AED76A;}
	.st345{clip-path:url(#SVGID_00000134251388782418056140000018168014992023061178_);fill:#B6B3C4;}
	.st346{clip-path:url(#SVGID_00000007386323133979316860000010093817588138153384_);fill:#B6B3C4;}
	.st347{clip-path:url(#SVGID_00000057838190667088917310000014962506138476034946_);fill:#E5CA57;}
	.st348{clip-path:url(#SVGID_00000091008010984704743760000009719192900968988350_);}
	.st349{clip-path:url(#SVGID_00000127752903894775709590000016512055876656830612_);fill:#8BBC38;}
	.st350{fill:#A37A79;}
	.st351{fill:#7F74B5;}
	.st352{clip-path:url(#SVGID_00000007417170407973242680000016619136967403689893_);fill:#FECFAE;}
	.st353{clip-path:url(#SVGID_00000110469147928738488000000005330473720245707418_);fill:#E0D1B7;}
	.st354{clip-path:url(#SVGID_00000110469147928738488000000005330473720245707418_);}
	.st355{clip-path:url(#SVGID_00000010283665529200055340000016370781640826268598_);fill:#A37A79;}
	.st356{fill:#682A30;}
	.st357{opacity:0.58;fill:#AA9983;}
	.st358{opacity:0.58;fill:#9B4329;}
	.st359{opacity:0.58;fill:#B7542E;}
	.st360{fill:#755959;}
	.st361{fill:#BC9595;}
	.st362{clip-path:url(#SVGID_00000085240710391262292190000003379199309593834120_);}
	.st363{fill:#E2D8C7;}
	.st364{fill:#969189;}
	.st365{fill:#BAB3A8;}
	.st366{fill:#54423E;}
	.st367{clip-path:url(#SVGID_00000142149084043764836160000016527077530034423996_);fill:#877069;}
	.st368{clip-path:url(#SVGID_00000060751670580990403620000004643233011877680060_);fill:#725B51;}
	.st369{fill:#EFE8DF;}
	.st370{clip-path:url(#SVGID_00000072272046106320480550000008214661101623232189_);fill:#969189;}
	.st371{fill:#765196;}
	.st372{clip-path:url(#SVGID_00000099639750461328871190000009141804295737394622_);fill:#A883C6;}
</style>
<path class="st0" d="M561.57,955.53c-109.67-8.06-219.15,21.1-309.11,84.03c-94.68,66.24-169.89,171.3-84.7,324.82
	c173.97,313.5,617.99,75.17,821.52,177.49c203.53,102.33,751.51,134.67,832.19-205.12c20.52-86.4-18.77-155.53-69.46-205.95
	c-62.02-61.7-144.77-98.43-232.24-104.86L561.57,955.53z"/>
<g>
	<defs>
		<path id="SVGID_00000057143790282548107060000001690987404363710889_" d="M561.57,955.53c-109.67-8.06-219.15,21.1-309.11,84.03
			c-94.68,66.24-169.89,171.3-84.7,324.82c173.97,313.5,617.99,75.17,821.52,177.49c203.53,102.33,751.51,134.67,832.19-205.12
			c20.52-86.4-18.77-155.53-69.46-205.95c-62.02-61.7-144.77-98.43-232.24-104.86L561.57,955.53z"/>
	</defs>
	<clipPath id="SVGID_00000139997088740813186050000008116876457328202431_">
		<use xlink:href="#SVGID_00000057143790282548107060000001690987404363710889_"  style="overflow:visible;"/>
	</clipPath>
	<path style="clip-path:url(#SVGID_00000139997088740813186050000008116876457328202431_);fill:#FECFAE;" d="M575.85,1271.15
		c0,0,168.47,166.32,407.94,268.08c396.05,168.29,573.33,126.28,573.33,126.28l-83.91,36.26c0,0,570.69-194.38,261.24-190.98
		c-557.86,6.13-540.17-76.13-632.5-99.75c-197.82-50.62-352.3-80.99-374.23-117.88C695.56,1239.03,582.61,1228.49,575.85,1271.15z"
		/>
</g>
<polygon class="st283" points="1245.37,1372.82 1510.65,1248.3 1510.65,450.53 1195.02,507 "/>
<polygon class="st197" points="1245.37,511.34 1245.37,1372.82 436.34,1248.3 436.34,654.68 "/>
<polygon class="st15" points="607.18,1118.5 607.18,1274.6 633.55,1278.66 630.56,1121.4 "/>
<path class="st15" d="M728.51,1133.54l-20.33-2.52v78.05l-19.55,22.8l-3.06-103.65l-26.11-3.24l2.24,158.01l66.03,10.16l0,0
	C727.72,1293.15,728.23,1219.04,728.51,1133.54z"/>
<path class="st302" d="M728.51,1116.57c-0.28,85.5-0.79,159.61-0.79,159.61l0,0l517.65,79.67v-175.19L728.51,1116.57z"/>
<polygon class="st302" points="557.76,1095.4 436.34,1082.48 427.65,1097.36 436.34,1231.33 557.76,1250.01 557.76,1179.04 "/>
<path class="st15" d="M728.51,1133.54c-0.28,85.5-0.79,159.61-0.79,159.61l0,0l517.65,79.67v-175.19L728.51,1133.54z"/>
<polygon class="st15" points="586.4,1115.92 564.82,1113.25 557.76,1196.01 557.76,1266.99 585.13,1271.2 "/>
<polygon class="st15" points="557.76,1112.37 427.65,1097.36 427.29,1248.3 548.71,1266.99 557.76,1196.01 "/>
<g>
	<defs>
		<polygon id="SVGID_00000164481139338417893730000010403663726008799648_" points="1214.89,601.1 1214.89,1083.25 762.1,1023.16 
			762.1,681.32 		"/>
	</defs>
	<clipPath id="SVGID_00000093174005741611553480000012961666916979626942_">
		<use xlink:href="#SVGID_00000164481139338417893730000010403663726008799648_"  style="overflow:visible;"/>
	</clipPath>
	<g style="clip-path:url(#SVGID_00000093174005741611553480000012961666916979626942_);">
		<path class="st304" d="M806.72,1024.02v-214.3c0-12.18,3.15-24.22,9.48-34.62c6.48-10.64,16.84-20.85,32.77-20.85
			c31.01,0,51.66,18.4,52.87,62.68s0,221.72,0,221.72S806.72,1078.64,806.72,1024.02z"/>
		<path class="st65" d="M830.05,1024.02v-214.3c0-12.18,3.15-24.22,9.48-34.62c6.48-10.64,16.84-20.85,32.77-20.85
			c31.01,0,51.66,18.4,52.87,62.68s-0.91,233.73-0.91,233.73S830.05,1078.64,830.05,1024.02z"/>
	</g>
</g>
<g>
	<defs>
		<polygon id="SVGID_00000122683841996610396920000005384543234527932050_" points="1445.99,622.88 1445.99,1115.04 983.79,1053.7 
			983.79,704.77 		"/>
	</defs>
	<clipPath id="SVGID_00000090989754982117595510000002397563000588405392_">
		<use xlink:href="#SVGID_00000122683841996610396920000005384543234527932050_"  style="overflow:visible;"/>
	</clipPath>
	<g style="clip-path:url(#SVGID_00000090989754982117595510000002397563000588405392_);">
		<path class="st304" d="M1029.34,1054.58V835.83c0-12.43,3.21-24.72,9.68-35.34c6.61-10.86,17.19-21.28,33.45-21.28
			c31.65,0,52.73,18.78,53.97,63.98c1.24,45.2,0,226.33,0,226.33S1029.34,1110.33,1029.34,1054.58z"/>
		<path class="st65" d="M1053.16,1054.58V835.83c0-12.43,3.21-24.72,9.68-35.34c6.61-10.86,17.19-21.28,33.45-21.28
			c31.65,0,52.73,18.78,53.97,63.98c1.24,45.2-0.93,238.59-0.93,238.59S1053.16,1110.33,1053.16,1054.58z"/>
	</g>
</g>
<polygon class="st197" points="1402.7,673.5 1432.93,669.3 1431.71,654.76 1402.15,657.2 "/>
<polygon class="st197" points="1350.8,735.26 1397.98,731.41 1403.03,749.04 1351.91,748.91 "/>
<polygon class="st197" points="1382.68,762.94 1454.83,757.05 1462.17,779.29 1384.09,780.23 "/>
<polygon class="st197" points="1434.65,855.43 1484.41,851.37 1489.69,869.39 1435.79,869.39 "/>
<polygon class="st197" points="1371.71,701.83 1447.57,695.64 1449.59,720.4 1373.25,720.7 "/>
<polygon class="st197" points="1270.45,617.26 1311.79,613.89 1316.33,630.77 1271.51,630.32 "/>
<polygon class="st197" points="1284.09,588.72 1345.88,583.68 1352.49,606.82 1285.56,606.65 "/>
<g>
	<defs>
		<polygon id="SVGID_00000038407762907475191030000018383167639783070093_" points="1204.82,579.95 1204.82,1367.96 464.79,1254.06 
			464.79,711.06 		"/>
	</defs>
	<clipPath id="SVGID_00000183938849152995795740000003474174565081227190_">
		<use xlink:href="#SVGID_00000038407762907475191030000018383167639783070093_"  style="overflow:visible;"/>
	</clipPath>
	<g style="clip-path:url(#SVGID_00000183938849152995795740000003474174565081227190_);">
		<path class="st304" d="M537.72,1270.44V914.89c0-20.21,6.4-40.18,19.28-57.44c13.17-17.65,34.24-34.59,66.61-34.59
			c63.03,0,105.02,30.53,107.49,104s0,367.88,0,367.88S537.72,1361.07,537.72,1270.44z"/>
		<path class="st16" d="M575.85,1271.15V920.91c0-19.91,5.15-39.58,15.5-56.58c10.58-17.38,27.52-34.07,53.55-34.07
			c50.68,0,84.43,30.07,86.42,102.45s0,362.38,0,362.38S575.85,1360.43,575.85,1271.15z"/>
	</g>
</g>
<path class="st307" d="M404.97,415.78l497.82-24.71l649.85,18.2l-375,68.77C1177.64,478.04,428.61,478.04,404.97,415.78z"/>
<polyline class="st197" points="1237.04,558.56 1510.65,498.28 1510.65,454.45 1237.04,504.13 1237.04,556.37 "/>
<g>
	<rect x="1322.58" y="499.7" class="st16" width="6.61" height="418.02"/>
	<g>
		<ellipse class="st308" cx="1325.88" cy="985.12" rx="23.05" ry="37.31"/>
		<path class="st16" d="M1325.88,915.55c-7.18,0-13,5.21-13,11.64c0,6.43,5.82,11.64,13,11.64c7.18,0,13-5.21,13-11.64
			C1338.89,920.76,1333.06,915.55,1325.88,915.55z M1325.88,933.99c-4.19,0-7.6-3.04-7.6-6.8c0-3.75,3.4-6.8,7.6-6.8
			c4.19,0,7.6,3.04,7.6,6.8C1333.48,930.94,1330.08,933.99,1325.88,933.99z"/>
		<path class="st309" d="M1298.93,958.56l3.19,4.15c0,0,22.61,13.67,48.75,0l1.97-4.15H1298.93z"/>
		<path class="st16" d="M1321.97,935.52c0,0-13.55,21.39-23.04,23.04c0,0,27.57,15.36,53.91,0c0,0-16.87-12.29-23.04-23.04H1321.97z
			"/>
		<path class="st309" d="M1342.55,1018.55l-18.7,3.88c0,0-10.26-6.57-14.63-3.88C1309.21,1018.55,1320.54,1005.26,1342.55,1018.55"
			/>
		<path class="st16" d="M1309.21,1018.55c0,0,13.74-7.14,33.34,0c0,0-16.67,10.35-16.67,22.12
			C1325.88,1040.66,1322.43,1018.94,1309.21,1018.55z"/>
	</g>
</g>
<g>
	<ellipse class="st308" cx="1258.93" cy="819.3" rx="34.95" ry="50.66"/>
	<path class="st16" d="M1258.93,724.83c-10.89,0-19.71,7.07-19.71,15.8c0,8.73,8.82,15.8,19.71,15.8s19.71-7.07,19.71-15.8
		C1278.64,731.91,1269.82,724.83,1258.93,724.83z M1258.93,749.86c-6.36,0-11.51-4.13-11.51-9.23c0-5.1,5.16-9.23,11.51-9.23
		s11.51,4.13,11.51,9.23C1270.45,745.73,1265.29,749.86,1258.93,749.86z"/>
	<path class="st309" d="M1218.07,783.24l4.83,5.63c0,0,34.27,18.56,73.9,0l2.98-5.63H1218.07z"/>
	<path class="st16" d="M1253.01,751.95c0,0-20.55,29.05-34.93,31.29c0,0,41.8,20.86,81.72,0c0,0-25.58-16.69-34.93-31.29H1253.01z"
		/>
	<path class="st309" d="M1284.2,864.69l-28.36,5.27c0,0-15.56-8.92-22.18-5.27C1233.66,864.69,1250.83,846.65,1284.2,864.69"/>
	<path class="st16" d="M1233.66,864.69c0,0,20.83-9.7,50.54,0c0,0-25.27,14.05-25.27,30.04
		C1258.93,894.73,1253.7,865.23,1233.66,864.69z"/>
</g>
<rect x="1257.52" y="510.23" class="st16" width="6.61" height="216.2"/>
<path class="st310" d="M1260.17,449.8l292.47-40.54v49.23l-292.47,55.74C1260.17,514.23,1226.87,449.8,1260.17,449.8z"/>
<polygon class="st15" points="433.44,471.16 404.97,470.07 404.97,415.78 1260.17,449.8 1260.17,514.23 "/>
<polygon class="st61" points="656.05,884.38 659.46,1124.98 685.57,1128.22 677.77,863.75 "/>
<path class="st61" d="M708.17,1131.02l20.33,2.52c0.3-91.34,0.34-195.69-0.79-236.56c-0.81-29.64-6.5-52.78-16.21-70.15l-3.34-1.09
	V1131.02z"/>
<polygon class="st61" points="624.56,806.2 607.18,819.23 607.18,1118.5 630.56,1121.4 "/>
<polygon class="st61" points="564.82,1113.25 586.4,1115.92 588.72,833.35 "/>
<path class="st61" d="M607.18,1274.6v32.2l-22.26-11.16l0.2-24.44l-27.37-4.21l0,0c0,45.56,37.04,54.28,76.53,50.63l-0.74-38.96
	L607.18,1274.6z"/>
<path class="st61" d="M662.04,1307.51l-21.09,9.38c43.08-5.39,86.77-23.74,86.78-23.74l-66.03-10.16L662.04,1307.51z"/>
<path class="st311" d="M644.9,830.26c-26.03,0-42.97,16.69-53.55,34.07c-10.35,17.01-15.5,36.67-15.5,56.58v208.81v76.51l6.46-75.71
	l3.13-228.22l12.83-27.81l3.77,258.48l-1.17,142.04l20.17,3.11v-142.78V861.58l15.89-11.92l5.49,288.32l2.74,143.85l25.74,3.96
	l-2.05-144.53l-3.11-220.08l19.87-18.87l7.14,241.91l2.8,94.81l17.88-20.86v-71.39V867.54l3.05,1
	C701.67,842.02,676.6,830.26,644.9,830.26z"/>
<polygon class="st304" points="926,901.22 810.18,890.19 813.59,909.59 925.36,922.62 "/>
<polygon class="st197" points="866.38,778.78 863.04,1088.38 881.01,1082.81 881.01,772.25 "/>
<polygon class="st304" points="1033.78,921.99 1150.66,934.84 1150.66,912.49 1034.44,905.75 "/>
<polygon class="st197" points="1087.91,779.21 1084.56,1088.82 1102.54,1083.25 1102.54,772.68 "/>
<polygon class="st197" points="989.17,913.22 1176.59,930.75 1172.3,908.14 989.83,896.98 "/>
<g>
	<defs>
		<polygon id="SVGID_00000078757639984658825760000010040914961608422841_" points="1247.06,511.34 1101.95,770.47 290.78,696.63 
			442.8,478.37 		"/>
	</defs>
	<use xlink:href="#SVGID_00000078757639984658825760000010040914961608422841_"  style="overflow:visible;fill:#7C251C;"/>
	<clipPath id="SVGID_00000180348366935654848300000005792459132350482105_">
		<use xlink:href="#SVGID_00000078757639984658825760000010040914961608422841_"  style="overflow:visible;"/>
	</clipPath>
	<polygon style="clip-path:url(#SVGID_00000180348366935654848300000005792459132350482105_);fill:#7C251C;" points="
		1193.16,503.34 1028.1,780.25 1101.95,770.47 1243.45,517.78 	"/>
	<polygon style="clip-path:url(#SVGID_00000180348366935654848300000005792459132350482105_);fill:#7C251C;" points="1066.47,496.1 
		901.42,773.01 975.26,763.23 1116.77,510.54 	"/>
	<polygon style="clip-path:url(#SVGID_00000180348366935654848300000005792459132350482105_);fill:#7C251C;" points="947.75,482.35 
		782.69,759.25 856.53,749.48 998.04,496.79 	"/>
	<polygon style="clip-path:url(#SVGID_00000180348366935654848300000005792459132350482105_);fill:#7C251C;" points="827.58,478.37 
		662.52,755.27 736.36,745.5 877.87,492.81 	"/>
	<polygon style="clip-path:url(#SVGID_00000180348366935654848300000005792459132350482105_);fill:#7C251C;" points="719.9,465.34 
		554.84,742.24 628.68,732.47 770.19,479.77 	"/>
	<polygon style="clip-path:url(#SVGID_00000180348366935654848300000005792459132350482105_);fill:#7C251C;" points="612.23,455.2 
		447.17,732.11 521.01,722.33 662.52,469.64 	"/>
	<polygon style="clip-path:url(#SVGID_00000180348366935654848300000005792459132350482105_);fill:#7C251C;" points="504.55,445.79 
		339.49,722.69 413.34,712.92 554.84,460.23 	"/>
</g>
<path class="st313" d="M1101.95,770.47c0,0-5.3,63.45-71.1,57.01c-65.8-6.44,68.84-67.64,68.84-67.64L1101.95,770.47z"/>
<polygon class="st197" points="947.78,896.98 784.65,883.3 789.64,901.89 946.58,918.32 "/>
<path class="st314" d="M281.41,689.43v6.62c0,32.94,24.99,60.5,57.77,63.71l683.14,66.89c37.51,3.67,70.06-25.69,70.25-63.38v0
	C1092.58,763.27,375.89,631.87,281.41,689.43z"/>
<g>
	<defs>
		<path id="SVGID_00000106851475574520525760000013417568841138155181_" d="M281.41,689.43v7.07c0,32.68,24.8,60.03,57.32,63.21
			l692.11,67.77c32.94,3.23,61.52-22.56,61.69-55.66l0.04-8.55C1092.58,763.27,375.89,631.87,281.41,689.43z"/>
	</defs>
	<clipPath id="SVGID_00000127017386883816549830000014498576090346523822_">
		<use xlink:href="#SVGID_00000106851475574520525760000013417568841138155181_"  style="overflow:visible;"/>
	</clipPath>
	<polygon style="clip-path:url(#SVGID_00000127017386883816549830000014498576090346523822_);fill:#8E2F20;" points="384.01,479.78 
		322.65,797.51 396.97,781.52 436.05,474.33 	"/>
	<polygon style="clip-path:url(#SVGID_00000127017386883816549830000014498576090346523822_);fill:#8E2F20;" points="471.47,538.88 
		430.72,860.54 504.63,820.49 515.88,684.36 	"/>
	<polygon style="clip-path:url(#SVGID_00000127017386883816549830000014498576090346523822_);fill:#8E2F20;" points="577.76,558.74 
		538.01,875.29 611.53,834.94 637.95,546.81 	"/>
	<polygon style="clip-path:url(#SVGID_00000127017386883816549830000014498576090346523822_);fill:#8E2F20;" points="667.91,724.75 
		652.03,876.77 725.86,836.76 731.47,730.53 741.13,547.54 	"/>
	<polygon style="clip-path:url(#SVGID_00000127017386883816549830000014498576090346523822_);fill:#8E2F20;" points="783.41,735.12 
		765.68,901.18 842.22,864.62 854.77,571.95 	"/>
	<polygon style="clip-path:url(#SVGID_00000127017386883816549830000014498576090346523822_);fill:#8E2F20;" points="903.81,746.08 
		886.33,909.93 963,868.38 975.43,580.71 	"/>
	<polygon style="clip-path:url(#SVGID_00000127017386883816549830000014498576090346523822_);fill:#8E2F20;" points="
		1028.07,757.39 1020.31,912.08 1098.37,866.61 1091.65,578.56 	"/>
</g>
<polygon class="st8" points="1234.09,510.57 1092.58,763.27 281.41,689.43 433.44,471.16 "/>
<g>
	<defs>
		<polygon id="SVGID_00000078006374993596647270000002938263388556827791_" points="1234.09,510.57 1092.58,763.27 281.41,689.43 
			433.44,471.16 		"/>
	</defs>
	<clipPath id="SVGID_00000116232109313309075370000001067861680143533700_">
		<use xlink:href="#SVGID_00000078006374993596647270000002938263388556827791_"  style="overflow:visible;"/>
	</clipPath>
	<polygon style="clip-path:url(#SVGID_00000116232109313309075370000001067861680143533700_);fill:#AA4226;" points="1183.8,496.14 
		1018.74,773.04 1092.58,763.27 1234.09,510.57 	"/>
	<polygon style="clip-path:url(#SVGID_00000116232109313309075370000001067861680143533700_);fill:#AA4226;" points="1057.11,488.9 
		892.05,765.8 965.89,756.03 1107.4,503.34 	"/>
	<polygon style="clip-path:url(#SVGID_00000116232109313309075370000001067861680143533700_);fill:#AA4226;" points="938.38,475.14 
		773.33,752.05 847.17,742.27 988.68,489.58 	"/>
	<polygon style="clip-path:url(#SVGID_00000116232109313309075370000001067861680143533700_);fill:#AA4226;" points="818.21,471.16 
		653.15,748.07 727,738.29 868.5,485.6 	"/>
	<polygon style="clip-path:url(#SVGID_00000116232109313309075370000001067861680143533700_);fill:#AA4226;" points="710.54,458.13 
		545.48,735.03 619.32,725.26 760.83,472.57 	"/>
	<polygon style="clip-path:url(#SVGID_00000116232109313309075370000001067861680143533700_);fill:#AA4226;" points="602.86,447.99 
		437.81,724.9 511.65,715.13 653.15,462.43 	"/>
	<polygon style="clip-path:url(#SVGID_00000116232109313309075370000001067861680143533700_);fill:#AA4226;" points="495.19,438.58 
		330.13,715.49 403.97,705.72 545.48,453.02 	"/>
</g>
<polygon class="st317" points="1245.37,1355.81 1510.65,1231.29 1524.65,1091.93 1510.65,1080.35 1245.37,1180.62 "/>
<polygon class="st310" points="1245.37,1372.82 1524.65,1242.87 1524.65,1091.93 1510.61,1097.25 1245.37,1197.63 "/>
<path class="st11" d="M500.93,1267.8c28.9-28.99,17.45-49.19,22.24-57.68c0,0,21.54,31.61,5.63,52.38l22.57-20.04
	c0,0,2.27-33.11,30.24-49.17c0,0-27.99,67.85-16.39,74.33c0,0,6.75-25.75,21.18-28.41c0,0-9.07,37.56-12.37,47.06
	C561.89,1321.32,487.28,1281.53,500.93,1267.8z"/>
<path class="st11" d="M453.89,1267.85c0,0,30.81-49.51,20.92-62.92c0,0,21.76,24.17-2.07,62.92S453.89,1267.85,453.89,1267.85z"/>
<path class="st11" d="M445.9,1257.88c0,0,14.79-40.33,5.43-48.85c0,0,19.74,14.84,8.37,46.37S445.9,1257.88,445.9,1257.88z"/>
<g>
	<polygon class="st247" points="1333.1,1231.56 1472.88,1211.59 1578.16,1239.78 1442.02,1313.5 	"/>
	<polygon class="st249" points="1450.49,1387.07 1446.19,1329.95 1442.02,1274.52 1333.1,1231.56 1348.23,1344.61 	"/>
	<polygon class="st246" points="1442.02,1274.52 1450.49,1387.07 1573.32,1353.18 1578.16,1239.78 	"/>
	<polygon class="st284" points="1463.06,1286.55 1468.92,1364.3 1553.77,1340.89 1557.12,1262.55 	"/>
	<polygon class="st283" points="1371.85,1235.2 1467.43,1221.54 1539.42,1240.82 1446.32,1264.57 	"/>
</g>
<g>
	<path class="st318" d="M1240.23,1181.04c0,0-45.21,103.04-9.76,196.77c5.65,14.93,16.49,27.23,30.4,34.52
		c28.96,15.18,83.97,33.38,136.06-8.31c9.78-7.83,17.14-18.37,21.29-30.36c10.48-30.24,24.05-97.07-12.92-188.44l-52.86,32.46
		l-55.04,3.43l-37.91-13.76l-16.33-26.32H1240.23z"/>
	<path class="st319" d="M1310.8,1221.8c0,0-0.57,181.81,4.68,202.68l5.06-202.68H1310.8z"/>
	<path class="st319" d="M1369.95,1214.18c0,0,18.43,81.63,6.18,198.05c0,0,27.07-62.92,1.97-201.58L1369.95,1214.18z"/>
	<path class="st319" d="M1263.86,1209.21c0,0-20.83,84.79-8.58,198.43c0,0-25.42-68.95-0.32-204.29L1263.86,1209.21z"/>
	<ellipse class="st320" cx="1322.71" cy="1189.38" rx="84.69" ry="35.5"/>
	<ellipse class="st65" cx="1322.71" cy="1185.12" rx="60.22" ry="21.32"/>
	<path class="st248" d="M1410.37,1195.69c0,0,9.56,25.93-9.32,36.03c-18.87,10.1-36.41,17.19-81.88,15.73
		c-43.73-1.41-81.8-19.32-87.83-31.94c-3.16-6.61-0.16-14.22,3.42-19.98c0.09-0.76,0.29-1.45,0.6-2.16
		c0.25-0.58,0.57-1.15,0.72-1.75c0.13-0.51,0.19-1.01,0.37-1.49c-14.62,10.67-50.59,43.86,13.05,76.32
		c61.19,31.2,133.78,12.57,159.38-1.55c18.36-10.12,19.83-17.91,22.54-28.78C1434.29,1224.63,1431.81,1209.65,1410.37,1195.69z"/>
	<g>
		<defs>
			<path id="SVGID_00000042017764415101145520000012932708567129926281_" d="M1241.72,1186.6c0,0-69.43,40.48,7.78,79.85
				c61.19,31.2,132.34,10.2,159.38-1.55c11.13-4.84,19.83-17.91,22.54-28.78c2.87-11.49,0.39-26.48-21.05-40.44
				c0,0,9.56,25.93-9.32,36.03c-18.87,10.1-36.41,17.19-81.88,15.73c-43.73-1.41-82.19-19.18-87.83-31.94
				C1226.02,1203.48,1241.72,1186.6,1241.72,1186.6z"/>
		</defs>
		<clipPath id="SVGID_00000157294364358295100180000005682093467721192068_">
			<use xlink:href="#SVGID_00000042017764415101145520000012932708567129926281_"  style="overflow:visible;"/>
		</clipPath>
		<path style="clip-path:url(#SVGID_00000157294364358295100180000005682093467721192068_);fill:#B6B3C4;" d="M1410.02,1193.03
			c-10.25-7.2-144.75-8.84-165.87-9.06c0.78,0.15,1.33,0.77,1.36,1.48c0.04,0.82-0.82,1.52-1.71,1.52h-0.39
			c0.06,0.1,0.12,0.2,0.15,0.32c0.02,0.13,0.04,0.27,0.06,0.4c0,0.27-0.08,0.53-0.23,0.76l-0.27,0.31
			c-0.16,0.15-0.34,0.25-0.55,0.31c-0.2,0.1-0.42,0.14-0.66,0.13c-0.24,0.01-0.46-0.04-0.66-0.13c-0.03-0.01-0.05-0.02-0.07-0.03
			c-0.02,0.37-0.19,0.74-0.49,1.01c-0.09,0.08-0.18,0.17-0.28,0.25v9.89c0,1.88-3.18,1.94-3.4,0.2c-0.13,0.37-0.26,0.74-0.4,1.11
			c-0.3,0.78-1.17,1.29-2.11,1.06c-0.85-0.21-1.5-1.09-1.2-1.86c0.59-1.54,3.18-10.62,3.45-11.18c0.04-0.3,0.23-2.09,0.23-2.09
			c-7.89,6.97-21.97,23.31-2.71,38.72c25.36,20.29,59.86,27.17,85.6,28.71c25.74,1.55,71.3-3.09,90.46-19.86
			C1423.09,1223.84,1421.15,1200.84,1410.02,1193.03z"/>
	</g>
	<path class="st248" d="M1216.9,1301.69c0,0-46.95,84.19,103.64,89.47c154.52,5.41,109.01-100.17,109.01-100.17
		s1.75,71.87-106.33,65.76C1215.15,1350.64,1216.9,1301.69,1216.9,1301.69z"/>
	<g>
		<defs>
			<path id="SVGID_00000132045953856663137190000012227510915134334384_" d="M1216.9,1300.66c0,0-46.95,76.11,103.64,80.87
				c154.52,4.89,109.01-90.55,109.01-90.55s1.75,64.96-106.33,59.44C1215.15,1344.91,1216.9,1300.66,1216.9,1300.66z"/>
		</defs>
		<clipPath id="SVGID_00000149345724877196934410000007092267611785710738_">
			<use xlink:href="#SVGID_00000132045953856663137190000012227510915134334384_"  style="overflow:visible;"/>
		</clipPath>
		<path style="clip-path:url(#SVGID_00000149345724877196934410000007092267611785710738_);fill:#B6B3C4;" d="M1216.9,1275.64
			c0,0-36.36,79.17,103.64,84.54c144.6,5.55,109.01-94.65,109.01-94.65s1.75,67.91-106.33,62.14
			C1215.15,1321.9,1216.9,1275.64,1216.9,1275.64z"/>
	</g>
	<g>
		<defs>
			<ellipse id="SVGID_00000147185983864899915770000016673905290759501977_" cx="1322.71" cy="1185.12" rx="60.22" ry="21.32"/>
		</defs>
		<clipPath id="SVGID_00000172415787182338364750000000764383322002968493_">
			<use xlink:href="#SVGID_00000147185983864899915770000016673905290759501977_"  style="overflow:visible;"/>
		</clipPath>
		<path style="clip-path:url(#SVGID_00000172415787182338364750000000764383322002968493_);fill:#E5CA57;" d="M1382.25,1197.56
			c-8.16,7.06-30.44,12.44-58.93,12.44c-27.3,0-50.94-4.03-60.22-12.18c-6.42-5.63,26.96-12.18,60.22-12.18
			S1388.9,1191.81,1382.25,1197.56z"/>
	</g>
	<g>
		<defs>
			<ellipse id="SVGID_00000070087233573608053850000007185606962718692024_" cx="1322.71" cy="1185.12" rx="60.22" ry="21.32"/>
		</defs>
		<clipPath id="SVGID_00000022553577226746241430000002556478546328790703_">
			<use xlink:href="#SVGID_00000070087233573608053850000007185606962718692024_"  style="overflow:visible;"/>
		</clipPath>
		<path style="clip-path:url(#SVGID_00000022553577226746241430000002556478546328790703_);fill:#E5CA57;" d="M1268.4,1199.53
			c0,0-5.2-8.06,2.36-8.7c0,0,1.59-6.47,6.96-5.98c5.37,0.49,8.16-0.97,8.16-0.97s3.3-8.09,12.53-4.53c0,0,0.8-6.31,9.95-2.26
			c0,0,10.41-4.69,16.54,0.81c0,0,4.96-2.86,10.71,0.97c0,0,10.54-4.21,15.32,1.62c0,0,12.13-1.78,17.31,5.66
			c0,0,11.4,0.26,11.57,6.44L1268.4,1199.53z"/>
	</g>
</g>
<path class="st11" d="M1492.55,1388.55c0,0,9.68-49.79,5.17-76.16c0,0,28.08,40.32,21.74,69
	C1513.13,1410.06,1492.55,1388.55,1492.55,1388.55z"/>
<path class="st11" d="M1483.24,1389.12c0,0-4.37-37.34-13.49-54.94c0,0,28.9,22.15,30.88,43.83S1483.24,1389.12,1483.24,1389.12z"/>
<path class="st11" d="M783.88,1302.2c0,0-6.82-62.5-21.06-70c0,0,1.26,51.04-7.83,56.94c-9.1,5.9-24.76-43.88-24.76-43.88
	s-13.22,36.64,0.34,51.97C744.13,1312.57,783.88,1302.2,783.88,1302.2z"/>
<path class="st11" d="M770.1,1296.02c0,0,24.52-11.95,34.17-42.91c0,0,3.37,38.1-17.08,49.04
	C770.31,1311.17,770.1,1296.02,770.1,1296.02z"/>
</svg>
