<svg id="Capa_1" enable-background="new 0 0 512 512" height="512" viewBox="0 0 512 512" width="512" xmlns="http://www.w3.org/2000/svg"><g><g><path d="m154.016 192.52v-63.48s1.041-24.976-27.057-24.976c0 0-28.733 0-42.934-13.312-2.665-2.498-7.017-.633-7.017 3.02v39.431c0 35.382 38.504 59.317 77.008 59.317z" fill="#78c2a4"/></g><g><path d="m357.984 192.52v-63.48s-1.041-24.976 27.057-24.976c0 0 28.733 0 42.934-13.312 2.665-2.498 7.017-.633 7.017 3.02v39.431c0 35.382-38.504 59.317-77.008 59.317z" fill="#78c2a4"/></g><g><path d="m479.467 336.26c1.793-7.463 2.611-15.303 2.284-23.391-1.859-45.919-40.378-81.844-86.334-81.844h-139.417-139.416c-45.955 0-84.473 35.924-86.334 81.841-.328 8.088.491 15.93 2.283 23.394 1.165 4.85.55 9.942-1.723 14.382-10.332 20.191-29.222 68.134-30.716 150.843-.104 5.769 4.533 10.515 10.303 10.515h245.603 245.603c5.771 0 10.407-4.746 10.303-10.515-1.494-82.708-20.383-130.651-30.716-150.843-2.273-4.441-2.888-9.533-1.723-14.382z" fill="#b3e59f"/></g><g><path d="m415.067 473.1.993-.82c6.771-5.569 19.373-15.935 19.373-36.248 0-4.267-3.459-7.726-7.726-7.726s-7.726 3.459-7.726 7.726c0 10.633-5.084 16.759-10.281 21.39-21.711-18.025-22.134-49.173-22.136-49.488v-16.591c10.683 5.976 19.779 8.283 20.622 8.488.616.15 1.231.222 1.837.222 3.479 0 6.639-2.367 7.5-5.897 1.011-4.146-1.529-8.326-5.675-9.338-.378-.092-37.931-9.607-44.197-41.838-.814-4.188-4.859-6.924-9.059-6.11-4.188.814-6.924 4.87-6.11 9.059 2.934 15.093 10.748 26.248 19.63 34.366v27.64c0 1.638.324 37.311 26.115 60.025-8.846 9.287-22.992 26.829-22.992 44.04h15.453c-.002-14.112 17.535-32.804 24.379-38.9z" fill="#78c2a4"/></g><g><path d="m136.767 512c0-17.215-14.152-34.761-22.998-44.046 13.142-11.615 19.579-26.605 22.717-37.922 1.14-4.112-1.269-8.37-5.38-9.51-4.11-1.139-8.37 1.268-9.51 5.38-2.643 9.531-8.114 22.226-19.304 31.513-5.195-4.631-10.273-10.756-10.273-21.383 0-4.267-3.459-7.726-7.726-7.726s-7.726 3.459-7.726 7.726c0 20.312 12.602 30.679 19.372 36.247l.999.824c6.855 6.108 24.377 24.789 24.377 38.895h15.452z" fill="#78c2a4"/></g><g><g><path d="m101.978 400.054c-3.479 0-6.638-2.366-7.5-5.896-1.011-4.14 1.522-8.316 5.659-9.335.254-.064 12.636-3.246 24.308-11.883.032-.024.064-.047.096-.07 4.108-2.946 15.787-11.996 20.421-18.387 2.504-3.455 7.336-4.225 10.79-1.72 3.455 2.505 4.225 7.336 1.72 10.79-6.877 9.485-21.946 20.453-23.882 21.843-14.319 10.58-29.147 14.282-29.773 14.435-.616.15-1.232.223-1.839.223z" fill="#78c2a4"/></g></g><g><path d="m481.186 350.636c-2.271-4.436-2.885-9.524-1.721-14.37 1.794-7.465 2.613-15.308 2.285-23.397-1.859-45.919-40.378-81.844-86.334-81.844h-139.416-131.599c4.517 15.815 13.055 30.428 24.883 42.074l30.783 30.309c17.91 17.635 42.037 27.519 67.171 27.519h17.522c25.135 0 49.262-9.884 67.172-27.519l30.785-30.31c1.813-1.786 3.549-3.641 5.204-5.56 18.459-21.394 52.34-19.347 67.128 4.731 7.306 11.896 11.757 25.722 12.359 40.599.332 8.203-.515 16.152-2.361 23.711-1.133 4.639-.536 9.52 1.649 13.767 10.726 20.848 30.962 72.052 30.962 161.653h23.944c5.771 0 10.407-4.746 10.303-10.515-1.493-82.716-20.386-130.66-30.719-150.848z" fill="#95d6a4"/></g><g><path d="m129.041 512v-280.976h52.033v52.994c0 23.102 12.755 44.315 33.159 55.148l163.416 86.762c3.268 1.735 5.311 5.133 5.311 8.832v77.24z" fill="#f9f6f9"/></g><g><path d="m173.347 305.419v58.485c0 4.231 3.26 7.92 7.489 8.047 4.376.131 7.964-3.377 7.964-7.723v-50.134c-4.978-9.055-7.726-19.361-7.726-30.076v-52.993h-52.033v12.745c4.838 10.885 11.671 20.889 20.243 29.329l17.915 17.639c3.933 3.872 6.148 9.161 6.148 14.681z" fill="#dddaec"/></g><g><path d="m350.699 411.62v100.38h32.26v-77.239c0-3.7-2.043-7.097-5.311-8.832z" fill="#dddaec"/></g><g><path d="m154.016 101.984v102.894c0 16.728 6.712 32.756 18.632 44.492l30.783 30.31c11.681 11.501 27.415 17.947 43.807 17.947h17.523c16.392 0 32.127-6.446 43.807-17.947l30.783-30.31c11.92-11.736 18.632-27.764 18.632-44.492v-102.894c.001-56.324-45.659-101.984-101.983-101.984-56.324 0-101.984 45.66-101.984 101.984z" fill="#ccf49f"/></g><g><path d="m294.129 7.374c19.466 18.572 31.594 44.768 31.594 73.797v123.707c0 16.728-6.712 32.756-18.632 44.492l-30.783 30.31c-9.916 9.763-22.757 15.866-36.439 17.493 2.435.289 4.892.454 7.369.454h17.523c16.392 0 32.127-6.446 43.807-17.947l30.783-30.31c11.92-11.736 18.632-27.764 18.632-44.492v-102.894c.001-42.843-26.42-79.509-63.854-94.61z" fill="#b3e59f"/></g><g><path d="m306.988 113.873c-1.716 0-3.442-.568-4.874-1.735-.329-.26-16.492-12.834-46.114-12.834-29.779 0-45.957 12.709-46.117 12.837-3.314 2.659-8.171 2.159-10.851-1.136-2.68-3.296-2.215-8.122 1.064-10.823.809-.667 20.241-16.331 55.903-16.331 35.663 0 55.094 15.664 55.903 16.331 3.294 2.713 3.766 7.582 1.052 10.876-1.525 1.855-3.738 2.815-5.966 2.815z" fill="#b3e59f"/></g><g><path d="m276.821 68.086c-.507 0-1.022-.05-1.539-.154-12.656-2.559-25.906-2.559-38.564 0-4.184.843-8.258-1.861-9.104-6.043-.845-4.183 1.86-8.259 6.043-9.104 14.67-2.965 30.019-2.964 44.688 0 4.182.846 6.887 4.922 6.042 9.104-.742 3.665-3.965 6.197-7.566 6.197z" fill="#b3e59f"/></g><g><path d="m293.464 220.019c-1.977 0-3.955-.754-5.463-2.263-3.018-3.017-3.018-7.909-.001-10.927l14.048-14.049c3.018-3.017 7.91-3.018 10.927 0 3.018 3.017 3.018 7.909.001 10.927l-14.048 14.049c-1.509 1.509-3.487 2.263-5.464 2.263z" fill="#f9f6f9"/></g><g><path d="m218.537 220.019c-1.977 0-3.955-.755-5.463-2.263l-14.049-14.049c-3.018-3.017-3.018-7.909 0-10.927 3.017-3.017 7.909-3.017 10.927 0l14.048 14.049c3.018 3.017 3.018 7.909 0 10.927-1.509 1.509-3.486 2.263-5.463 2.263z" fill="#f9f6f9"/></g><g><path d="m404.746 130.814c-3.618-2.26-8.386-1.162-10.648 2.457-12.824 20.517-34.644 19.332-35.52 19.28-.198-.016-.396-.023-.595-.023v15.464c.371.016.89.032 1.556.032 7.466 0 32.28-1.95 47.664-26.562 2.262-3.62 1.161-8.387-2.457-10.648z" fill="#66b394"/></g><g><path d="m107.254 130.814c3.618-2.26 8.386-1.162 10.648 2.457 12.824 20.517 34.644 19.332 35.52 19.28.198-.016.396-.023.595-.023v15.464c-.371.016-.89.032-1.556.032-7.466 0-32.28-1.95-47.664-26.562-2.262-3.62-1.161-8.387 2.457-10.648z" fill="#66b394"/></g><g><path d="m463.093 370.913c1.821 0 3.649-.64 5.12-1.942 5.561-4.925 9.912-11.835 13.075-18.135-.031-.061-.064-.129-.095-.19-2.274-4.444-2.889-9.54-1.724-14.393 1.792-7.461 2.61-15.3 2.282-23.385-.226-5.572-1.001-10.992-2.254-16.224-1.653 17.464-6.625 33.822-6.684 34.016-.011.035-.024.078-.034.113-1.485 5.074-7.042 19.748-14.812 26.629-3.194 2.829-3.491 7.712-.661 10.907 1.526 1.725 3.651 2.604 5.787 2.604z" fill="#78c2a4"/></g><g><path d="m48.907 370.913c-1.821 0-3.649-.64-5.12-1.942-5.561-4.925-9.912-11.835-13.075-18.135.031-.061.064-.129.095-.19 2.274-4.444 2.889-9.54 1.724-14.393-1.792-7.461-2.61-15.3-2.282-23.385.226-5.572 1.001-10.992 2.254-16.224 1.653 17.464 6.625 33.822 6.684 34.016.011.035.024.078.034.113 1.485 5.074 7.042 19.748 14.812 26.629 3.194 2.829 3.491 7.712.661 10.907-1.526 1.725-3.651 2.604-5.787 2.604z" fill="#78c2a4"/></g><g><path d="m248.274 357.24v52.776c0 4.267 3.459 7.726 7.726 7.726 4.268 0 7.726-3.459 7.726-7.726v-44.572z" fill="#dddaec"/></g><g><path d="m306.988 228.344c-1.716 0-3.443-.569-4.876-1.736-.366-.29-16.527-12.833-46.112-12.833-29.779 0-45.957 12.709-46.117 12.837-3.312 2.66-8.171 2.16-10.851-1.136s-2.215-8.122 1.064-10.823c.809-.667 20.241-16.331 55.903-16.331 35.663 0 55.094 15.664 55.903 16.331 3.294 2.713 3.766 7.582 1.052 10.876-1.525 1.855-3.738 2.815-5.966 2.815z" fill="#78c2a4"/></g></g></svg>