<svg id="Capa_1" enable-background="new 0 0 512 512" height="512" viewBox="0 0 512 512" width="512" xmlns="http://www.w3.org/2000/svg"><g><g><g><g><path d="m511.982 16.681c.394-5.757-7.409-7.857-9.966-2.684-16.686 33.759-50.842 91.994-87.903 91.994h-58.096v47.61h66.23c71.318-.001 86.581-90.832 89.735-136.92z" fill="#9e9797"/><path d="m511.986 16.681c-3.163 46.09-18.42 136.92-89.738 136.92h-66.23v-18.77h47.316c52.467 0 74.595-49.15 83.877-93.488 5.8-9.766 10.807-19.264 14.804-27.351 2.554-5.171 10.362-3.069 9.971 2.689z" fill="#756f6f"/><path d="m455.958 387.472c-9.385 6.882-19.986 10.745-31.183 10.745-12.929 0-25.033-5.151-35.428-14.134l-4.368-98.774c-.021-.536.124-1.061.443-1.483 2.782-3.822 6.758-8.128 12.177-11.6 2.957-1.896 1.391-6.49-2.102-6.119-2.091.227-4.337.628-6.686 1.267-1.772.494-3.43-1.102-2.946-2.885 4.327-15.865 18.77-27.671 36.128-27.846 20.789-.196 37.849 16.411 38.189 37.2.474 29.514.093 72.401-4.224 113.629z" fill="#f8f3f1"/><path d="m455.958 387.472c-9.107 6.676-19.347 10.508-30.164 10.734 5.439-44.391 5.954-92.273 5.439-124.363-.258-15.525-9.848-28.722-23.344-34.326 4.337-1.803 9.097-2.823 14.103-2.874 20.789-.196 37.849 16.411 38.189 37.2.475 29.514.094 72.401-4.223 113.629z" fill="#efe2dd"/><g><path d="m422.983 428.235c-.278 0-.557-.015-.84-.046-4.242-.459-7.31-4.27-6.85-8.512 10.639-98.378-.832-181.119-.95-181.944-.6-4.224 2.338-8.136 6.563-8.736 4.216-.598 8.136 2.338 8.736 6.563.12.843 11.857 85.501 1.012 185.779-.427 3.96-3.777 6.896-7.671 6.896z" fill="#e5d8d3"/></g><path d="m456.524 381.909c-2.977 31.137-8.11 61.728-16.684 85.354-6.68 18.409-17.631 27.676-27.077 32.337-8.447 4.166-18.388-1.767-18.798-11.182l-4.849-109.686c10.446 9.11 22.638 14.338 35.661 14.338 11.423 0 22.216-4.018 31.747-11.161z" fill="#fb4a59"/><path d="m456.525 381.909c-2.977 31.142-8.108 61.729-16.689 85.351-6.676 18.409-17.626 27.681-27.073 32.337-7.242 3.575-15.566-.268-18.069-7.366 6.13-5.47 12.002-13.423 16.194-24.972 7.551-20.8 12.424-47.007 15.515-74.225 10.826-.36 21.046-4.326 30.122-11.125z" fill="#f82f40"/><g><path d="m433.232 392.324c-.659 9.478-1.514 19.172-2.575 29.02-.433 3.956-3.781 6.892-7.675 6.892-.278 0-.556-.021-.835-.051-4.244-.453-7.314-4.265-6.851-8.51.989-9.199 1.793-18.265 2.431-27.135 2.318.35 4.667.525 7.047.525 2.864.001 5.687-.247 8.458-.741z" fill="#f82f40"/></g><g><path d="m433.232 392.324c-.659 9.478-1.514 19.172-2.575 29.02-.433 3.956-3.781 6.892-7.675 6.892-.278 0-.556-.021-.835-.051-.319-.031-.639-.093-.948-.165 2.143-11.208 3.843-23.004 5.202-34.985 2.266-.082 4.512-.309 6.717-.701h.01c.032 0 .063 0 .104-.01z" fill="#e22334"/></g><g><g><path d="m400.787 119.483c-5.767-7.372-9.442-14.799-10.923-22.074-.853-4.181-4.932-6.878-9.114-6.029-4.181.852-6.88 4.932-6.029 9.114 1.965 9.643 6.639 19.235 13.894 28.511 33.081 42.294 25.573 83.74 25.46 84.339-.832 4.175 1.871 8.237 6.047 9.081.516.105 1.031.154 1.538.154 3.602 0 6.824-2.531 7.565-6.197.398-1.964 9.29-48.664-28.438-96.899z" fill="#ffd496"/></g><circle cx="422.658" cy="221.222" fill="#fb4a59" r="20.684"/><path d="m443.343 221.226c0 11.424-9.257 20.681-20.681 20.681s-20.692-9.257-20.692-20.681c0-1.305.116-2.577.358-3.819 1.41 6.101 6.88 10.646 13.402 10.646 7.605 0 13.759-6.154 13.759-13.759 0-6.522-4.544-11.992-10.646-13.402 1.241-.242 2.514-.358 3.819-.358 11.424 0 20.681 9.268 20.681 20.692z" fill="#f82f40"/></g></g><g><path d="m.014 16.681c-.394-5.757 7.409-7.857 9.966-2.684 16.686 33.759 50.842 91.994 87.903 91.994h58.096v47.61h-66.229c-71.319-.001-86.582-90.832-89.736-136.92z" fill="#9e9797"/><path d="m127.021 285.309-4.368 98.774c-10.395 8.983-22.499 14.134-35.438 14.134-11.198 0-21.788-3.863-31.183-10.745-4.306-41.238-4.698-84.114-4.224-113.629.34-20.789 17.4-37.396 38.199-37.2 17.359.175 31.802 11.991 36.128 27.866.484 1.772-1.185 3.358-2.956 2.864-2.339-.639-4.595-1.04-6.686-1.267-3.462-.371-5.048 4.224-2.112 6.109 5.429 3.472 9.405 7.788 12.197 11.61.32.433.464.948.443 1.484z" fill="#f8f3f1"/><path d="m127.021 285.309-4.368 98.774c-8.88 7.675-19.007 12.548-29.834 13.804l5.13-116.184c.031-.536-.124-1.061-.433-1.483-2.792-3.832-6.778-8.139-12.197-11.61-2.936-1.885-1.36-6.48 2.112-6.109 2.091.227 4.337.618 6.676 1.267 1.772.484 3.441-1.102 2.967-2.874-2.648-9.715-9.096-17.915-17.678-22.849 3.369-.948 6.933-1.432 10.611-1.401 17.359.175 31.802 11.991 36.128 27.866.484 1.772-1.185 3.358-2.956 2.864-2.339-.639-4.595-1.04-6.686-1.267-3.462-.371-5.048 4.224-2.112 6.109 5.429 3.472 9.405 7.788 12.197 11.61.32.432.464.947.443 1.483z" fill="#efe2dd"/><g><path d="m89.013 428.235c-3.895 0-7.244-2.937-7.672-6.896-10.845-100.278.892-184.936 1.012-185.779.601-4.223 4.509-7.162 8.735-6.562 4.224.6 7.163 4.51 6.564 8.734-.117.825-11.576 83.678-.95 181.945.46 4.242-2.608 8.053-6.85 8.512-.282.031-.561.046-.839.046z" fill="#efe2dd"/></g><path d="m96.703 419.675c.464 4.244-2.606 8.056-6.851 8.51-.041 0-.093.01-.134.01 1.308-3.698 2.091-7.644 2.277-11.723l1.556-35.171c.711 12.414 1.73 25.25 3.152 38.374z" fill="#e5d8d3"/><path d="m121.053 420.078 1.828-41.345c-10.446 9.11-22.638 14.338-35.661 14.338-11.424 0-22.217-4.019-31.747-11.161 2.079 21.751 5.215 43.227 9.838 62.254 2.423 9.972 12.324 16.231 22.392 14.24.165-.033.329-.065.494-.098 18.453-3.65 32.025-19.435 32.856-38.228z" fill="#ba5d4f"/><path d="m122.88 378.736-1.823 41.341c-.835 18.79-14.402 34.583-32.863 38.23-.165.031-.33.062-.494.093-10.065 1.998-19.965-4.265-22.386-14.237-4.626-19.027-7.757-40.507-9.838-62.254 7.139 5.357 14.999 8.952 23.292 10.415 2.771.494 5.594.742 8.447.742 2.38 0 4.739-.175 7.057-.525 10.374-1.515 20.068-6.367 28.608-13.805z" fill="#ba5d4f"/><path d="m122.88 378.736-1.823 41.341c-.834 18.79-14.402 34.583-32.863 38.23-.165.031-.33.062-.494.093-7.294 1.452-14.505-1.442-18.842-6.943 13.331-6.377 22.458-19.687 23.138-34.985l1.051-23.766c10.836-1.309 20.963-6.234 29.833-13.97z" fill="#a34f41"/><g><path d="m89.852 428.185c-.278.031-.567.051-.835.051-3.904 0-7.252-2.936-7.675-6.892-1.061-9.849-1.906-19.543-2.575-29.02 2.771.494 5.594.742 8.447.742 2.38 0 4.739-.175 7.057-.525.639 8.87 1.442 17.935 2.431 27.135.465 4.244-2.605 8.055-6.85 8.509z" fill="#a34f41"/></g><g><path d="m89.852 428.185c-.041 0-.093.01-.134.01 1.308-3.698 2.091-7.644 2.277-11.723l1.051-23.766c.412-.052.814-.103 1.226-.165.639 8.87 1.442 17.935 2.431 27.135.464 4.244-2.606 8.055-6.851 8.509z" fill="#9b473b"/></g><g fill="#e5d8d3"><path d="m85.32 268.609c-2.936-1.885-1.36-6.48 2.112-6.109 2.091.227 4.337.618 6.676 1.267.288.082.577.103.845.082-.299 3.708-.597 7.767-.896 12.146-2.361-2.575-5.255-5.15-8.737-7.386z"/><path d="m97.672 237.498c0 .072-.01.154-.021.237-.031.237-.968 7.005-2.06 18.811-2.823-6.912-7.644-12.805-13.753-16.967.103-.865.196-1.597.268-2.184 2.555-.515 5.192-.773 7.902-.752 2.626.031 5.191.319 7.664.855z"/></g><g><g fill="#ffd496"><path d="m71.957 81.647c-3.856-1.824-8.464-.177-10.288 3.68l-25.196 53.265c-1.825 3.857-.177 8.464 3.68 10.288 1.067.505 2.191.744 3.299.744 2.894 0 5.67-1.635 6.989-4.425l25.196-53.265c1.825-3.857.177-8.463-3.68-10.287z"/><path d="m89.202 91.483c-4.126-1.091-8.356 1.36-9.451 5.485l-15.387 57.95c-1.095 4.125 1.361 8.355 5.485 9.451.665.176 1.331.261 1.988.261 3.418 0 6.544-2.286 7.463-5.745l15.387-57.95c1.095-4.126-1.361-8.357-5.485-9.452z"/><path d="m128.113 122.336c4.588-7.173 7.664-14.492 9.162-21.842.852-4.182-1.846-8.262-6.027-9.114-4.187-.859-8.263 1.847-9.114 6.027-1.483 7.277-5.158 14.704-10.924 22.075-37.729 48.235-28.836 94.935-28.44 96.899.741 3.666 3.964 6.197 7.565 6.197.507 0 1.022-.05 1.539-.155 4.182-.846 6.887-4.922 6.042-9.105-.078-.383-6.908-36.3 19.314-75.791l9.572 26.059c1.149 3.127 4.106 5.064 7.254 5.064.884 0 1.785-.153 2.663-.476 4.006-1.471 6.06-5.911 4.589-9.917z"/></g><circle cx="89.341" cy="221.222" fill="#ba5d4f" r="20.684"/><path d="m110.026 221.226c0 11.424-9.257 20.681-20.681 20.681s-20.692-9.257-20.692-20.681c0-1.305.116-2.577.358-3.819 1.41 6.101 6.88 10.646 13.402 10.646 7.605 0 13.759-6.154 13.759-13.759 0-6.522-4.544-11.992-10.646-13.402 1.241-.242 2.514-.358 3.819-.358 11.424 0 20.681 9.268 20.681 20.692z" fill="#a34f41"/></g></g></g><g><g><g><path d="m359.082 153.448v-47.457c0-2.845-2.306-5.151-5.151-5.151h-36.019c-1.632 0-3.165-.775-4.132-2.09-13.702-18.624-41.876-26.935-57.782-26.935-15.907 0-44.081 8.312-57.782 26.935-.967 1.314-2.5 2.09-4.132 2.09h-36.019c-2.845 0-5.151 2.306-5.151 5.151v47.457c0 1.33.531 2.594 1.442 3.563 7.107 7.564 6.856 19.649-.925 26.89l-9.787 9.109c-3.576 3.328-4.39 8.68-1.966 12.921l32.517 56.886c4.168 7.292 7.152 15.2 8.839 23.428l23.339 113.811c2.499 12.185 9.652 22.915 19.939 29.907l12.476 8.481c10.387 7.061 24.034 7.061 34.421 0l12.476-8.481c10.287-6.993 17.44-17.722 19.939-29.907l23.339-113.811c1.687-8.228 4.671-16.136 8.839-23.428l32.517-56.886c2.424-4.241 1.61-9.593-1.966-12.921l-9.787-9.109c-7.781-7.241-8.032-19.327-.925-26.89.909-.97 1.441-2.234 1.441-3.563z" fill="#fff1e2"/><path d="m370.319 205.933-32.523 56.887c-4.162 7.294-7.149 15.195-8.839 23.426l-23.333 113.814c-2.503 12.177-9.653 22.911-19.934 29.906l-12.486 8.478c-9.787 6.645-22.468 7.036-32.585 1.143.618-.361 1.226-.742 1.823-1.143l12.475-8.478c10.281-6.995 17.441-17.729 19.934-29.906l23.344-113.814c1.679-8.231 4.667-16.133 8.839-23.426l32.513-56.887c2.421-4.244 1.607-9.591-1.968-12.918l-9.787-9.117c-8.272-7.695-8.035-20.882.515-28.268v-54.79h25.621c2.845 0 5.151 2.306 5.151 5.151v47.458c0 1.33-.532 2.595-1.443 3.564-7.105 7.559-6.85 19.649.928 26.885l9.787 9.117c3.575 3.327 4.389 8.674 1.968 12.918z" fill="#fee7c9"/></g></g><g><g><path d="m261.311 400.796h-10.626c-7.48 0-13.804-5.841-14.397-13.298l-5.457-68.611-8.282 11.45c-2.501 3.458-7.33 4.233-10.789 1.732-3.458-2.501-4.233-7.331-1.732-10.789l13.965-19.306c2.952-4.08 7.989-5.84 12.839-4.477 4.847 1.36 8.236 5.482 8.635 10.5l6.151 77.345h8.761l6.151-77.346c.398-5.017 3.788-9.139 8.635-10.499 4.857-1.362 9.888.397 12.838 4.477l13.966 19.306c2.501 3.458 1.725 8.288-1.732 10.789-3.456 2.5-8.289 1.724-10.789-1.732l-8.282-11.45-5.457 68.611c-.594 7.457-6.918 13.298-14.398 13.298z" fill="#ffd496"/></g></g><g><path d="m255.995 247.275c-4.268 0-7.726-3.459-7.726-7.726v-30.692c0-.572-.051-1.15-.152-1.716l-3.166-17.728c-.944-5.275-.205-10.613 2.134-15.435l4.265-8.793c.779-1.606 1.103-3.391.936-5.165l-4.609-49.337c-.396-4.248 2.726-8.014 6.975-8.411 4.243-.383 8.014 2.726 8.411 6.975l4.609 49.335c.429 4.585-.407 9.201-2.419 13.347l-4.265 8.793c-.905 1.867-1.191 3.932-.826 5.973l3.166 17.73c.262 1.46.393 2.952.393 4.433v30.692c0 4.266-3.458 7.725-7.726 7.725z" fill="#ffd496"/></g></g></g></g></svg>