<svg xmlns="http://www.w3.org/2000/svg" viewBox="0 0 512 512" width="512" height="512">
	<style>
		tspan { white-space:pre }
		.shp0 { fill: #1e66e8 } 
		.shp1 { fill: #ffffff } 
	</style>
	<path id="Layer" class="shp0" d="M329.6 73.6C430.93 73.6 512 155.73 512 256C512 356.27 430.93 438.4 329.6 438.4C228.27 438.4 0 256 0 256C0 256 229.33 73.6 329.6 73.6Z" />
	<path id="Layer" class="shp1" d="M464 256C464 329.6 404.27 390.4 329.6 390.4C321.07 390.4 313.6 382.93 313.6 374.4C313.6 365.87 321.07 358.4 329.6 358.4C386.13 358.4 432 312.53 432 256C432 247.47 439.47 240 448 240C456.53 240 464 247.47 464 256Z" />
	<g id="Layer">
	</g>
	<g id="Layer">
	</g>
	<g id="Layer">
	</g>
	<g id="Layer">
	</g>
	<g id="Layer">
	</g>
	<g id="Layer">
	</g>
	<g id="Layer">
	</g>
	<g id="Layer">
	</g>
	<g id="Layer">
	</g>
	<g id="Layer">
	</g>
	<g id="Layer">
	</g>
	<g id="Layer">
	</g>
	<g id="Layer">
	</g>
	<g id="Layer">
	</g>
	<g id="Layer">
	</g>
</svg>