<?xml version="1.0" encoding="UTF-8" standalone="no"?>
<!-- Created with Inkscape (http://www.inkscape.org/) -->

<svg
   version="1.1"
   id="svg4170"
   xml:space="preserve"
   width="682.66669"
   height="682.66669"
   viewBox="0 0 682.66669 682.66669"
   xmlns="http://www.w3.org/2000/svg"
   xmlns:svg="http://www.w3.org/2000/svg"><defs
     id="defs4174"><clipPath
       clipPathUnits="userSpaceOnUse"
       id="clipPath4184"><path
         d="M 0,512 H 512 V 0 H 0 Z"
         id="path4182" /></clipPath></defs><g
     id="g4176"
     transform="matrix(1.3333333,0,0,-1.3333333,0,682.66667)"><g
       id="g4178"><g
         id="g4180"
         clip-path="url(#clipPath4184)"><g
           id="g4186"
           transform="translate(381.7095,500.6729)"><path
             d="m 0,0 c -69.501,0 -127.02,-54.674 -130.102,-123.312 -0.409,-9.099 -0.234,-20.971 -9.929,-45.109 -12.653,-31.505 -34.105,-55.158 -61.244,-70.828 -0.798,-0.484 -2.43,-1.326 -4.55,-2.473 -22.153,-11.34 -47.374,-14.038 -71.589,-7.549 -25.889,6.937 -47.526,23.539 -60.927,46.749 -27.663,47.914 -11.187,109.401 36.727,137.065 11.84,6.837 25.266,9.97 38.839,9.066 22.969,-1.521 43.542,-14.314 55.035,-34.219 9.177,-15.895 11.614,-34.414 6.862,-52.147 -4.751,-17.73 -16.122,-32.551 -32.016,-41.727 -19.491,-11.253 -44.508,-4.552 -55.763,14.942 -5.452,9.443 -6.902,20.444 -4.079,30.977 2.821,10.531 9.577,19.334 19.021,24.787 7.163,4.135 9.617,13.295 5.481,20.457 -4.135,7.163 -13.295,9.618 -20.457,5.481 -16.373,-9.452 -28.084,-24.715 -32.977,-42.973 -4.892,-18.26 -2.381,-37.333 7.072,-53.706 19.513,-33.794 62.882,-45.417 96.678,-25.904 22.823,13.177 39.149,34.454 45.971,59.914 6.822,25.46 3.322,52.052 -9.854,74.874 -16.501,28.58 -46.032,46.948 -78.987,49.13 -19.508,1.302 -38.803,-3.198 -55.802,-13.014 -62.217,-35.92 -83.611,-115.762 -47.689,-177.979 17.4,-30.139 45.496,-51.696 79.113,-60.704 11.226,-3.008 22.618,-4.496 33.935,-4.496 20.759,0 41.264,5.02 60.038,14.837 6.61,3.078 72.175,31.867 134.718,-4.243 47.914,-27.664 64.39,-89.152 36.726,-137.066 -13.399,-23.21 -35.037,-39.812 -60.926,-46.749 -25.889,-6.938 -52.928,-3.377 -76.139,10.023 -11.841,6.836 -21.27,16.898 -27.271,29.102 -10.166,20.651 -9.374,44.865 2.118,64.772 18.946,32.815 61.057,44.096 93.874,25.152 9.444,-5.452 16.199,-14.255 19.021,-24.786 2.822,-10.532 1.373,-21.532 -4.08,-30.977 -5.452,-9.443 -14.255,-16.199 -24.786,-19.021 -10.532,-2.825 -21.533,-1.373 -30.977,4.08 -7.163,4.137 -16.322,1.681 -20.457,-5.482 -4.136,-7.162 -1.682,-16.321 5.481,-20.457 16.372,-9.454 35.445,-11.966 53.705,-7.072 18.259,4.893 33.52,16.604 42.973,32.977 9.453,16.372 11.964,35.444 7.072,53.704 -4.893,18.258 -16.604,33.52 -32.977,42.973 -47.117,27.204 -107.584,11.001 -134.787,-36.116 -16.502,-28.581 -17.642,-63.338 -3.055,-92.969 8.626,-17.544 22.171,-32.005 39.171,-41.819 20.075,-11.592 42.352,-17.512 64.931,-17.511 11.316,0 22.712,1.49 33.935,4.496 33.617,9.008 61.713,30.566 79.113,60.704 34.87,60.396 13.932,134.739 -42.335,174.711 -1.267,0.901 -64.193,43.373 -64.193,119.145 0,55.327 45.011,100.338 100.338,100.338 55.327,0 100.339,-45.011 100.339,-100.338 0,-13.674 -3.999,-26.87 -11.568,-38.17 -12.801,-19.13 -34.167,-30.551 -57.152,-30.551 -37.892,0 -68.72,30.828 -68.72,68.721 0,22.509 18.312,40.82 40.821,40.82 22.509,0 40.822,-18.311 40.822,-40.82 0,-8.272 6.705,-14.977 14.975,-14.977 8.271,0 14.976,6.705 14.976,14.977 0,39.023 -31.748,70.772 -70.773,70.772 -39.024,0 -70.773,-31.749 -70.773,-70.772 0,-54.409 44.263,-98.673 98.672,-98.673 33.002,0 63.673,16.391 82.04,43.839 10.881,16.242 16.632,35.203 16.632,54.834 C 130.291,-58.448 71.843,0 0,0"
             style="fill:#62d8f9;fill-opacity:1;fill-rule:nonzero;stroke:none"
             id="path4188" /></g><g
           id="g4190"
           transform="translate(302.8745,166.5107)"><path
             d="m 0,0 c 4.616,-4.868 7.978,-10.834 9.763,-17.494 2.821,-10.531 1.372,-21.532 -4.08,-30.977 -5.453,-9.443 -14.255,-16.199 -24.787,-19.02 -10.531,-2.825 -21.532,-1.374 -30.976,4.079 -7.163,4.138 -16.322,1.682 -20.457,-5.482 -4.136,-7.162 -1.682,-16.321 5.481,-20.457 16.372,-9.454 35.445,-11.965 53.705,-7.072 18.259,4.893 33.52,16.604 42.973,32.977 9.453,16.372 11.964,35.444 7.072,53.704 C 35.511,2.137 29.426,12.733 21.065,21.301 14.486,13.776 7.448,6.664 0,0"
             style="fill:#00bef7;fill-opacity:1;fill-rule:nonzero;stroke:none"
             id="path4192" /></g><g
           id="g4194"
           transform="translate(381.7095,500.6729)"><path
             d="m 0,0 c -15.94,0 -31.246,-2.883 -45.414,-8.144 6.129,-8.27 11.739,-16.945 16.797,-25.972 9.073,2.704 18.677,4.164 28.617,4.164 55.327,0 100.339,-45.011 100.339,-100.338 0,-13.674 -3.999,-26.87 -11.568,-38.17 -12.801,-19.13 -34.167,-30.551 -57.152,-30.551 -11.672,0 -22.668,2.934 -32.304,8.089 -1.608,-10.226 -3.856,-20.238 -6.697,-29.998 11.97,-5.171 25.155,-8.043 39.001,-8.043 33.002,0 63.673,16.391 82.04,43.839 10.881,16.242 16.632,35.203 16.632,54.834 C 130.291,-58.448 71.843,0 0,0"
             style="fill:#00bef7;fill-opacity:1;fill-rule:nonzero;stroke:none"
             id="path4196" /></g><g
           id="g4198"
           transform="translate(426.251,370.3828)"><path
             d="m 0,0 c 0,-8.271 6.705,-14.977 14.976,-14.977 8.271,0 14.976,6.706 14.976,14.977 0,39.023 -31.749,70.772 -70.774,70.772 -6.555,0 -12.898,-0.915 -18.927,-2.59 3.712,-9.229 6.875,-18.736 9.448,-28.485 3.044,0.728 6.216,1.123 9.479,1.123 C -18.312,40.82 0,22.509 0,0"
             style="fill:#00bef7;fill-opacity:1;fill-rule:nonzero;stroke:none"
             id="path4200" /></g><g
           id="g4202"
           transform="translate(359.0342,240.4102)"><path
             d="m 0,0 c -4.432,-8.987 -9.402,-17.66 -14.869,-25.979 32.848,-31.196 41.42,-82.009 17.796,-122.928 -13.4,-23.21 -35.038,-39.813 -60.927,-46.749 -25.889,-6.939 -52.928,-3.376 -76.139,10.022 -11.841,6.837 -21.27,16.898 -27.271,29.103 -4.045,8.218 -6.349,17 -6.941,25.849 -9.705,-2.025 -19.623,-3.466 -29.715,-4.297 1.078,-11.914 4.331,-23.702 9.781,-34.774 8.626,-17.544 22.171,-32.005 39.171,-41.819 20.075,-11.592 42.353,-17.512 64.931,-17.511 11.316,0 22.712,1.488 33.935,4.496 33.617,9.008 61.713,30.566 79.114,60.704 C 60.793,-108.583 45.926,-41.596 0,0"
             style="fill:#00bef7;fill-opacity:1;fill-rule:nonzero;stroke:none"
             id="path4204" /></g></g></g></g></svg>
