<svg xmlns="http://www.w3.org/2000/svg" viewBox="0 0 514 514" width="514" height="514">
	<style>
		tspan { white-space:pre }
		.shp0 { fill: #e21b1b } 
	</style>
	<g id="Layer">
		<path id="Layer" class="shp0" d="M203.1 391.2L174.38 338.46C162.96 318.02 155.49 303.85 148.03 288.5L146.84 288.5C140.54 303.85 133.47 318.02 122.85 338.46L96.48 391.2L41 391.2L119.7 257.01L44.15 125.97L99.64 125.97L128.36 180.67C137 197.19 143.32 210.18 150.39 225.13L151.19 225.13C158.27 208.61 163.78 196.81 172.04 180.67L200.38 125.97L255.87 125.97L178.34 255.44L259.01 391.2L203.1 391.2Z" />
		<path id="Layer" fill-rule="evenodd" class="shp0" d="M294.74 129.51C312.06 126.37 336.06 124 368.72 124C404.15 124 430.12 131.47 447.03 145.64C462.77 158.62 473 179.49 473 204.27C473 229.45 465.14 250.31 450.19 264.48C430.9 283.77 400.61 292.82 366.37 292.82C357.32 292.82 349.04 292.42 342.75 291.25L342.75 391.2L294.74 391.2L294.74 129.51ZM342.75 253.07C348.66 254.65 356.54 255.06 366.37 255.06C402.58 255.06 424.6 237.35 424.6 206.26C424.6 176.75 404.15 161.01 370.68 161.01C357.32 161.01 347.86 162.19 342.74 163.38L342.74 253.07L342.75 253.07Z" />
	</g>
	<g id="Layer">
	</g>
	<g id="Layer">
	</g>
	<g id="Layer">
	</g>
	<g id="Layer">
	</g>
	<g id="Layer">
	</g>
	<g id="Layer">
	</g>
	<g id="Layer">
	</g>
	<g id="Layer">
	</g>
	<g id="Layer">
	</g>
	<g id="Layer">
	</g>
	<g id="Layer">
	</g>
	<g id="Layer">
	</g>
	<g id="Layer">
	</g>
	<g id="Layer">
	</g>
	<g id="Layer">
	</g>
</svg>