<svg id="bbbeb35b-1990-4ae9-93de-6707897469f3" data-name="Layer 1" xmlns="http://www.w3.org/2000/svg" xmlns:xlink="http://www.w3.org/1999/xlink" viewBox="0 0 2000 2000"><defs><style>.b6997166-84cf-4c34-b12f-20298bb44180{fill:none;}.f83c35fa-7fb9-4737-9438-d3467f8f909d{fill:#aed76a;}.aeb4c4c2-5b2f-45bb-96f4-494cdb43ce29{clip-path:url(#ab39ae59-5a9f-4b36-879c-48b1e7537cf3);}.a315c3dd-065d-4e06-98f4-5a6c0f55c144{fill:#fecfae;}.a48ffc7e-8020-473f-b26e-e7f850368f72{fill:#aa7149;}.bb549e15-178e-4104-baa2-c0b91dcc4d60{fill:#d79160;}.ac0f971d-2441-4942-8d53-093f00d43b4f{fill:#b27d59;}.fe9fa626-9376-4fb6-ad68-533e492f8746{fill:#c6b6ac;}.ff1c5700-5a51-46db-9790-ae2fce201d94{fill:#7c5135;}.fcfd2ab1-bfc2-4ce8-9ce8-2f5ba367d2b3{fill:#686d22;}.b05ca9a3-19cb-42cd-8eb5-e2d229f63cb0{fill:#798428;}.b335fbfe-2af9-4fc2-8812-168ab52e91a6{fill:#633e2a;}.eaa57ad3-c97a-4e43-a284-5072c50415cc{fill:#b57950;}.e439a8cf-0e08-426a-bb1a-63f55383cf1d{fill:#c48458;}.bec459ee-a9e9-4ada-8cfb-f91852699078{fill:#e2dbd7;}.a359452f-10d9-4a17-9896-c401f414193a{fill:#915f3d;}.fc916e86-62c8-4732-9135-db5ac15fed6e{fill:#1e1713;}.acdda082-cc51-49b0-b6b3-a470ddbeea63{fill:#889b2d;}.ab41ea7c-9b3d-430e-bb7d-bbf4cc93ee3f{fill:#77a22f;}.b99545b0-406b-410a-97dc-2866e7088f6c{clip-path:url(#a44c80b6-f12b-4e54-96a9-8bdf3c2db27e);}.a474a7f8-0e06-4d00-b849-37df53d5d84f{fill:#8abd32;}.a10c2e3b-3474-43dc-8695-6397a697482b{clip-path:url(#bdc8b282-8991-4f25-9611-2f7ed1161747);}.b16763a7-fdaf-4b9b-95a7-76f12c8d5d82{fill:#8bbc38;}.f59a45de-2cd2-4169-b788-95504cb8e58c{fill:#8a7b7d;}.a612ee9a-03c4-4354-8d4d-17647c5bcd01{fill:#332525;}.be637b64-9866-40ae-937c-349c6d9bfde3{clip-path:url(#fd514e4c-1075-4735-b3ce-ee14a2aaaca4);}.bc5dcddd-40d1-44be-9268-8198d34c22b6{fill:#5b3b24;}.ea5a5e63-841a-412d-ad08-481ebee61d35{clip-path:url(#ff53b270-dbe5-4499-b806-7a5bc093aa29);}.e3f00387-aa14-4833-9987-373dc7c2b913{fill:#af754e;}.fc59087b-b689-481a-a129-0448e47d3a25{fill:#a29cb7;}.f36ba449-c979-4f41-95ba-096dabdd8761{clip-path:url(#eacc157b-d393-491c-a57d-aa266fd0531f);}.b25a6c96-0113-479c-b533-5b88b4926704{fill:#b6b3c4;}.fe905128-3b8c-4b9e-9cbe-72f916bf03ac{clip-path:url(#b787919c-4a7a-4f74-a621-5974214a502b);}.f589e035-f879-40e4-a4d1-db4eb366ea44{clip-path:url(#b1bcd871-2553-44e5-9008-073f4c89a8d4);}.ad96253b-0f54-407f-8017-002352b65611{clip-path:url(#f26257d0-ccf9-45d2-a4c2-83aaa62f09ff);}.b51cb69f-e98b-44a7-847c-ec22f0ff4234{clip-path:url(#ecd3945d-88c3-40ce-91b1-faaa0147fe5b);}.abde289b-18a3-4a44-a2be-a438ea40cfaf{clip-path:url(#a9ab0c4d-571d-48b0-bf3c-9c27f3a2d03b);}.acc12abe-500e-4183-bc41-96d85ca00ca0{clip-path:url(#f3f095b9-3ab1-439f-9faa-a45ccbf58985);}.bd4b0aaa-fdf9-4b8c-a22a-ab4c496c364e{clip-path:url(#b85b5b4e-1fd5-4597-b9cc-9f911f3608c3);}.aa613c4a-9627-40a2-b1fd-f5f725a7080c{clip-path:url(#a5abd218-b330-4e11-b371-98be596185dc);}.f44d2705-8490-4bca-8ec9-1b13694885fa{clip-path:url(#b454ae03-737d-481a-943a-83420b9af66f);}.aa9e29a0-905a-44e3-a10c-1b08812daef9{fill:#c4c2c2;}.b5cc8f40-0fc9-4857-9291-6f3b0f1c29ce{fill:#999294;}.b3cba657-4d07-4f58-bc64-4e925327047a{fill:#7c6e71;}.bbac6a6b-1f1c-465c-9fc3-652767191284{fill:#a89ea0;}.a563514d-19d8-42d6-883a-fd1523efc174{fill:#dd9f76;}.bdbb0087-c5ea-41cd-ace2-e1a8c30b16f1{fill:#afd86a;}.ba9be2b4-3005-42d8-91a8-4d6d0dde792e{clip-path:url(#e71d49a7-b8c8-404b-9789-8149910b18e9);}.b10f1cfc-89b3-42a7-845e-cf5deb29754a{clip-path:url(#b0e78236-52cf-4d25-afd5-deb563b590e4);}.b70a73b7-2ed0-4142-b4b2-db63e6760720{clip-path:url(#e8281d7d-0514-438d-baa1-dafa1a05f1dc);}.eb00690d-10bf-4a89-97f5-4495e4740968{clip-path:url(#a9e8a35b-7c3a-4736-a43b-ea94d5fe66f1);}.a71ebf9b-d965-4fe1-8453-2f641c4b7404{clip-path:url(#ec730433-86fa-463a-9448-5ee8181b7479);}.add42c96-acaa-40a3-9c4a-cbf49db29547{clip-path:url(#e5568ec1-2928-4d48-b0de-b0eb22587db2);}.ba825a3e-d04d-44ef-9953-fa4b35fad057{clip-path:url(#a1d2d042-81d6-4340-b838-1a2c3a6795ee);}.b7e4a8b2-4544-4bd9-aab6-ffaedc5357f9{clip-path:url(#e7aac0f3-23b9-4963-9f27-3b627ef4d344);}.baf48ab3-28b8-41a1-ac81-8aa857f20c9a{clip-path:url(#e3643243-6e48-4a35-bfe0-22e223832780);}.eeeb7af8-2321-4890-9e3a-a2a0c1503c65{clip-path:url(#ed154676-905f-46c4-b308-dc08c00e8658);}.e2873767-721b-41dd-aee8-fc80eaac31c7{clip-path:url(#fbf20814-0af7-424d-9f60-a90204e0bf01);}.ad2ad904-76fb-4a8d-9b87-f5c4ab3d935d{clip-path:url(#e25b1580-df68-4710-be8f-236ebd572c0b);}.bb6e0726-0723-4468-990e-92c87a87ff46{clip-path:url(#f6be8f8c-d350-47e2-bc69-5daccc0a60ad);}.ecae5f53-9c84-4855-9168-307ddff896c9{clip-path:url(#f018d151-4436-42b2-b3a9-f4fc878221aa);}.bf2681b4-3205-408f-8816-bd1620367214{clip-path:url(#b9b31b97-6e64-42ef-a4ea-f6f5edec266b);}</style><clipPath id="ab39ae59-5a9f-4b36-879c-48b1e7537cf3"><path class="b6997166-84cf-4c34-b12f-20298bb44180" d="M1058.33,941.09C636.26,766.59,93,1084.41,54.74,1220.44,20.51,1342.22,137.2,1487.2,234.82,1452s188.47,260.45,581.83,326.87,784.57,103,1021.08-260.48c116.28-178.73,1.54-323.92-109.63-403.31-78.88-56.32-178.26-81.34-277-72.8C1390.82,1047.52,1275.93,1031.11,1058.33,941.09Z"/></clipPath><clipPath id="a44c80b6-f12b-4e54-96a9-8bdf3c2db27e"><path class="b6997166-84cf-4c34-b12f-20298bb44180" d="M485.83,1104.68c7.95-8.61,13.76-20.45,9.59-35.61,0,0-2.51-15-20.77-21.78,0,0,8.39-57.72-34-57.46-58.45.32-59.46,71.86-59.46,71.86s-2.55-45.49-40.38-23.08c-20.69,12.24-14.54,44.19,3,51.72a75.43,75.43,0,0,0,37.88,18l65.58,11.05C460.65,1121.63,475.07,1116.31,485.83,1104.68Z"/></clipPath><clipPath id="bdc8b282-8991-4f25-9611-2f7ed1161747"><path class="b6997166-84cf-4c34-b12f-20298bb44180" d="M301.33,1083.92c1.48-.11,3-.22,4.64-.32,0,0,4.33-60.53,66.79-50.26,61.8,10.16,45.58,78.13,45.58,78.13s21.48-24.37,45.07-1.64c19.47,17.56,6.42,42.55-11.45,54.13,0,0,28.45,77-100.3,21.08-.91-.08-14.77-1.83-14.77-1.83a91.26,91.26,0,0,1-26.91-7.77h0A89.55,89.55,0,0,1,270.09,1139c-.08-.15-.17-.3-.26-.45a28.58,28.58,0,0,1-1.91-4.15C259.26,1111.08,276.28,1085.86,301.33,1083.92Z"/></clipPath><clipPath id="fd514e4c-1075-4735-b3ce-ee14a2aaaca4"><path class="b6997166-84cf-4c34-b12f-20298bb44180" d="M1517.8,1138.47c44.48-16.13,59.69,30.81,59.69,30.81l-112,47.81S1461,1159,1517.8,1138.47Z"/></clipPath><clipPath id="ff53b270-dbe5-4499-b806-7a5bc093aa29"><path class="b6997166-84cf-4c34-b12f-20298bb44180" d="M1502.41,1049.18,1396.7,1263.64a42.3,42.3,0,0,1-24.64,21.42c-6.15,2-12.81,2.65-18.44-.27-15-7.78-15.09-32.22-15.09-32.22s-19.73,17.65-35.87,10.62c-18-7.82-16-33.2-16-33.2s-19.71,16.19-35.39,9.08c-6.67-3-9.65-9.58-10.86-16.12a41.07,41.07,0,0,1,3.52-25.21L1348.3,976.11Z"/></clipPath><clipPath id="eacc157b-d393-491c-a57d-aa266fd0531f"><path class="b6997166-84cf-4c34-b12f-20298bb44180" d="M1323.33,1333.53c1.82,4.1,14.19,9.83,28.26,10.27,14.63.48,20.29-1.8,26.35-5s3-11.6,3-11.6c6.9,4.49,7.7,9.31,6.78,13-.87,3.5-3.68,7.7-7.26,9.25-8.69,3.78-31.59,10.54-51.28.5-24.85-12.67-2.5-25.69-2.5-25.69S1321.61,1329.66,1323.33,1333.53Z"/></clipPath><clipPath id="b787919c-4a7a-4f74-a621-5974214a502b"><path class="b6997166-84cf-4c34-b12f-20298bb44180" d="M1352.88,1376.94c34.78,1.75,34.21-19.12,34.21-19.12s14.62,30.7-35.07,29.13c-48.45-1.53-33.34-26-33.34-26S1318.11,1375.19,1352.88,1376.94Z"/></clipPath><clipPath id="b1bcd871-2553-44e5-9008-073f4c89a8d4"><ellipse class="b6997166-84cf-4c34-b12f-20298bb44180" cx="1352.72" cy="1323.75" rx="19.38" ry="6.86"/></clipPath><clipPath id="f26257d0-ccf9-45d2-a4c2-83aaa62f09ff"><path class="b6997166-84cf-4c34-b12f-20298bb44180" d="M590.7,1182.55c1.82,4.1,14.2,9.82,28.27,10.28,14.63.46,20.29-1.82,26.35-5.07s3-11.59,3-11.59c6.9,4.49,7.69,9.31,6.77,13-.88,3.5-3.67,7.7-7.26,9.26-8.7,3.78-31.59,10.54-51.28.5-24.85-12.67-2.51-25.69-2.51-25.69S589,1178.67,590.7,1182.55Z"/></clipPath><clipPath id="ecd3945d-88c3-40ce-91b1-faaa0147fe5b"><path class="b6997166-84cf-4c34-b12f-20298bb44180" d="M620.25,1226c34.78,1.74,34.22-19.13,34.22-19.13s14.61,30.71-35.08,29.14c-48.45-1.54-33.35-26-33.35-26S585.48,1224.22,620.25,1226Z"/></clipPath><clipPath id="a9ab0c4d-571d-48b0-bf3c-9c27f3a2d03b"><ellipse class="b6997166-84cf-4c34-b12f-20298bb44180" cx="620.09" cy="1172.77" rx="19.38" ry="6.86"/></clipPath><clipPath id="f3f095b9-3ab1-439f-9faa-a45ccbf58985"><path class="b6997166-84cf-4c34-b12f-20298bb44180" d="M1197.72,1302c3.17,7.13,24.76,17.11,49.31,17.89,25.52.83,35.36-3.15,46-8.82s5.23-20.23,5.23-20.23c12,7.79,13.43,16.25,11.82,22.7-1.53,6.1-6.41,13.44-12.65,16.15-15.16,6.59-55.1,18.39-89.45.87-43.33-22.1-4.36-44.82-4.36-44.82S1194.75,1295.16,1197.72,1302Z"/></clipPath><clipPath id="b85b5b4e-1fd5-4597-b9cc-9f911f3608c3"><path class="b6997166-84cf-4c34-b12f-20298bb44180" d="M1249.32,1377.65c60.68,3.1,59.69-33.37,59.69-33.37s25.54,53.57-61.2,50.83c-84.53-2.67-58.17-45.4-58.17-45.4S1188.65,1374.55,1249.32,1377.65Z"/></clipPath><clipPath id="a5abd218-b330-4e11-b371-98be596185dc"><ellipse class="b6997166-84cf-4c34-b12f-20298bb44180" cx="1249.04" cy="1284.86" rx="33.8" ry="11.97"/></clipPath><clipPath id="b454ae03-737d-481a-943a-83420b9af66f"><path class="b6997166-84cf-4c34-b12f-20298bb44180" d="M957.69,1113.79c-4.34-12.8-19.76-49.38-68.58-38.76s-24.91,152.5-24.91,152.5l88.63,46.71S962,1126.59,957.69,1113.79Z"/></clipPath><clipPath id="e71d49a7-b8c8-404b-9789-8149910b18e9"><path class="b6997166-84cf-4c34-b12f-20298bb44180" d="M536.43,1325.41s-19.48,11.35,2.18,22.4c17.16,8.75,37.12,2.86,44.71-.44,3.12-1.35,5.56-5,6.32-8.07.81-3.22.11-7.43-5.9-11.34,0,0,2.68,7.27-2.61,10.11s-10.22,4.82-23,4.41c-12.27-.4-23.06-5.38-24.64-9C532,1330.15,536.43,1325.41,536.43,1325.41Z"/></clipPath><clipPath id="b0e78236-52cf-4d25-afd5-deb563b590e4"><path class="b6997166-84cf-4c34-b12f-20298bb44180" d="M529.47,1357.4s-13.17,21.35,29.07,22.69c43.35,1.37,30.58-25.4,30.58-25.4s.49,18.22-29.83,16.67S529.47,1357.4,529.47,1357.4Z"/></clipPath><clipPath id="e8281d7d-0514-438d-baa1-dafa1a05f1dc"><ellipse class="b6997166-84cf-4c34-b12f-20298bb44180" cx="559.15" cy="1324.99" rx="16.89" ry="5.98"/></clipPath><clipPath id="a9e8a35b-7c3a-4736-a43b-ea94d5fe66f1"><path class="b6997166-84cf-4c34-b12f-20298bb44180" d="M600.79,1326s-29.51,17.21,3.31,33.94c26,13.26,56.24,4.33,67.73-.66,4.73-2,8.42-7.61,9.58-12.23,1.22-4.88.16-11.25-8.95-17.19,0,0,4.07,11-4,15.32s-15.48,7.31-34.8,6.68c-18.58-.59-34.93-8.15-37.33-13.57C594.12,1333.19,600.79,1326,600.79,1326Z"/></clipPath><clipPath id="ec730433-86fa-463a-9448-5ee8181b7479"><path class="b6997166-84cf-4c34-b12f-20298bb44180" d="M590.25,1374.49s-20,32.34,44,34.37c65.67,2.07,46.33-38.48,46.33-38.48s.74,27.6-45.19,25.26S590.25,1374.49,590.25,1374.49Z"/></clipPath><clipPath id="e5568ec1-2928-4d48-b0de-b0eb22587db2"><ellipse class="b6997166-84cf-4c34-b12f-20298bb44180" cx="635.21" cy="1325.39" rx="25.59" ry="9.06"/></clipPath><clipPath id="a1d2d042-81d6-4340-b838-1a2c3a6795ee"><path class="b6997166-84cf-4c34-b12f-20298bb44180" d="M669.13,1389.06s-22.2,13,2.49,25.54c19.57,10,42.33,3.26,51-.49,3.56-1.55,6.34-5.73,7.21-9.21.92-3.67.13-8.47-6.73-12.93,0,0,3.06,8.29-3,11.52s-11.64,5.5-26.19,5c-14-.45-26.28-6.14-28.09-10.22C664.11,1394.46,669.13,1389.06,669.13,1389.06Z"/></clipPath><clipPath id="e7aac0f3-23b9-4963-9f27-3b627ef4d344"><path class="b6997166-84cf-4c34-b12f-20298bb44180" d="M661.2,1425.54s-15,24.34,33.14,25.87c49.42,1.56,34.87-29,34.87-29s.56,20.77-34,19S661.2,1425.54,661.2,1425.54Z"/></clipPath><clipPath id="e3643243-6e48-4a35-bfe0-22e223832780"><ellipse class="b6997166-84cf-4c34-b12f-20298bb44180" cx="695.04" cy="1388.59" rx="19.26" ry="6.82"/></clipPath><clipPath id="ed154676-905f-46c4-b308-dc08c00e8658"><path class="b6997166-84cf-4c34-b12f-20298bb44180" d="M1378.1,1571.37s41.53,24.21-4.65,47.76c-36.6,18.67-79.16,6.1-95.33-.92-6.66-2.89-11.86-10.71-13.48-17.22-1.72-6.87-.24-15.83,12.58-24.18,0,0-5.71,15.51,5.58,21.55s21.78,10.28,49,9.41c26.16-.84,49.16-11.47,52.54-19.1C1387.49,1581.47,1378.1,1571.37,1378.1,1571.37Z"/></clipPath><clipPath id="fbf20814-0af7-424d-9f60-a90204e0bf01"><path class="b6997166-84cf-4c34-b12f-20298bb44180" d="M1392.94,1639.59s28.09,45.53-62,48.38c-92.42,2.92-65.2-54.16-65.2-54.16s-1,38.85,63.6,35.55S1392.94,1639.59,1392.94,1639.59Z"/></clipPath><clipPath id="e25b1580-df68-4710-be8f-236ebd572c0b"><ellipse class="b6997166-84cf-4c34-b12f-20298bb44180" cx="1329.66" cy="1570.49" rx="36.02" ry="12.75"/></clipPath><clipPath id="f6be8f8c-d350-47e2-bc69-5daccc0a60ad"><path class="b6997166-84cf-4c34-b12f-20298bb44180" d="M1187.61,1629.48s-33.61,19.6,3.77,38.66c29.62,15.11,64.07,4.94,77.16-.75,5.39-2.34,9.6-8.67,10.91-13.93,1.39-5.56.19-12.82-10.19-19.58,0,0,4.63,12.56-4.51,17.45s-17.63,8.32-39.64,7.62c-21.17-.69-39.79-9.29-42.52-15.47C1180,1637.66,1187.61,1629.48,1187.61,1629.48Z"/></clipPath><clipPath id="f018d151-4436-42b2-b3a9-f4fc878221aa"><path class="b6997166-84cf-4c34-b12f-20298bb44180" d="M1175.6,1684.7s-22.73,36.85,50.17,39.16c74.81,2.36,52.78-43.84,52.78-43.84s.85,31.45-51.48,28.78S1175.6,1684.7,1175.6,1684.7Z"/></clipPath><clipPath id="b9b31b97-6e64-42ef-a4ea-f6f5edec266b"><ellipse class="b6997166-84cf-4c34-b12f-20298bb44180" cx="1226.82" cy="1628.77" rx="29.16" ry="10.32"/></clipPath></defs><path class="f83c35fa-7fb9-4737-9438-d3467f8f909d" d="M1058.33,941.09C640,768.14,102.67,1078.77,55.88,1216.75c-.79,2.35-1.54,4.71-2.39,7-72.75,200.93,231.27,326.35,334.46,328,156.14,2.54,35.34,160.66,428.7,227.08s784.57,103,1021.08-260.48c116.28-178.73,1.54-323.92-109.63-403.31-78.88-56.32-178.26-81.34-277-72.8C1390.82,1047.52,1275.93,1031.11,1058.33,941.09Z"/><g class="aeb4c4c2-5b2f-45bb-96f4-494cdb43ce29"><path class="a315c3dd-065d-4e06-98f4-5a6c0f55c144" d="M1082.69,1575.32s272.66,31.73,324.43,107.3-128.52,79.66-252.84,73.54-25.33,181.78,85.51,175.65,387.56-91.91,387.56-91.91,111.54-227.09-111.18-259.59-276.5-64.41-276.5-64.41L1217.62,1504Z"/></g><polygon class="a48ffc7e-8020-473f-b26e-e7f850368f72" points="868.08 1603.72 384.88 1343.27 384.88 1312.71 887.24 1539.04 868.08 1603.72"/><polygon class="bb549e15-178e-4104-baa2-c0b91dcc4d60" points="868.08 1562.76 1159.1 1435.58 1167.51 1409.76 1090.79 1392.97 667.34 1398.83 571.22 1259.62 483.54 1239.44 478.13 1286.79 384.88 1312.71 868.08 1562.76"/><path class="ac0f971d-2441-4942-8d53-093f00d43b4f" d="M1235.77,1449.94c-22,20.16,3.86,66,3.86,66l404.78-180.48v-39.9S1257.74,1429.78,1235.77,1449.94Z"/><path class="a48ffc7e-8020-473f-b26e-e7f850368f72" d="M990.54,1349.67H1072c-198.73-139.17-532.08-343.15-783.47-346.93v18.43l702,365.15Z"/><path class="a48ffc7e-8020-473f-b26e-e7f850368f72" d="M1159.1,1435.58l-.76,26.21h-22.71l104,54.11,2.71-38.94S1230.71,1440.14,1159.1,1435.58Z"/><polygon class="bb549e15-178e-4104-baa2-c0b91dcc4d60" points="889.48 1043.14 1644.41 1295.52 1242.34 1476.96 288.54 1002.75 419.8 956.13 889.48 1043.14"/><polygon class="fe9fa626-9376-4fb6-ad68-533e492f8746" points="681.03 868.93 502 567.97 351.53 700.3 357.54 994.77 607.51 1122.24 681.03 868.93"/><polygon class="fe9fa626-9376-4fb6-ad68-533e492f8746" points="1025.07 717.12 661.5 834.24 656.48 1156.67 1020.64 977.64 1025.07 717.12"/><path class="a48ffc7e-8020-473f-b26e-e7f850368f72" d="M1047.66,737.57h-30.58l3.56,240.07L1041,983.5C1051.63,952,1047.66,737.57,1047.66,737.57Z"/><polygon class="ff1c5700-5a51-46db-9790-ae2fce201d94" points="1039.18 738.72 1041.02 983.5 1081.49 960.97 1081.49 751.98 1039.18 738.72"/><polygon class="a48ffc7e-8020-473f-b26e-e7f850368f72" points="326.84 741.35 362.13 707.89 362.13 1023.36 348.2 1030.17 326.84 741.35"/><polygon class="ff1c5700-5a51-46db-9790-ae2fce201d94" points="348.2 712.42 348.2 1030.17 314.95 1012.78 319.98 735.47 348.2 712.42"/><path class="a48ffc7e-8020-473f-b26e-e7f850368f72" d="M637.45,886.93,681,901.6V1149l-28.31,13.76C631,1129.44,637.45,886.93,637.45,886.93Z"/><path class="fe9fa626-9376-4fb6-ad68-533e492f8746" d="M639.07,868l-50-135.48L512.44,585.66l-26.12-15S319.77,745.68,348.17,745.28s126-106.64,126-106.64L619.24,918.91Z"/><polygon class="ff1c5700-5a51-46db-9790-ae2fce201d94" points="607.99 852.78 607.48 1140.65 652.72 1162.71 652.72 916.46 607.99 852.78"/><path class="fcfd2ab1-bfc2-4ce8-9ce8-2f5ba367d2b3" d="M502,586.17c-61.13,94.07-201,170.51-201,170.51l-8.49-5.51-6.51-9.26L477.91,569C504.2,554.51,502,586.16,502,586.17Z"/><polygon class="a48ffc7e-8020-473f-b26e-e7f850368f72" points="615.91 858.75 477.8 813.72 409.13 754.43 603.97 829.59 615.91 858.75"/><polygon class="ff1c5700-5a51-46db-9790-ae2fce201d94" points="615.91 891.97 339.62 778.52 337.85 735.47 613.02 845.75 615.91 891.97"/><path class="fcfd2ab1-bfc2-4ce8-9ce8-2f5ba367d2b3" d="M471,580.81,628.39,911.86c7.71,15.77,27.43,24.81,44.09,30.38,9.52,3.19,19.88,4.34,28.66-.09,23.43-11.84,24-49.8,24-49.8s30.36,27.76,55.55,17.11c28.05-11.84,25.41-51.31,25.41-51.31s30.33,25.48,54.83,14.71c10.4-4.55,15.15-14.7,17.14-24.85a62.11,62.11,0,0,0-.74-27,63.71,63.71,0,0,0,22.16,12.92c9.52,3.18,19.88,4.33,28.66-.1,23.43-11.84,24-49.8,24-49.8s30.35,27.75,55.54,17.11c28.05-11.85,25.41-51.31,25.41-51.31s30.33,25.48,54.83,14.72c10.4-4.56,15.15-14.69,17.14-24.85a63.76,63.76,0,0,0-5-39.21L993.72,465.19C981.51,438.24,898.38,398,842.37,425.9Z"/><path class="b05ca9a3-19cb-42cd-8eb5-e2d229f63cb0" d="M481.55,561.81l158,329.61a64.68,64.68,0,0,0,37.32,33.15c9.31,3.13,19.55,4.27,28.2-.09,23-11.64,23.59-49,23.59-49s29.88,27.37,54.67,16.9c27.6-11.66,25-50.5,25-50.5s29.85,25.07,54,14.48c10.27-4.5,14.91-14.53,16.89-24.47a61.27,61.27,0,0,0-.73-26.61A62.69,62.69,0,0,0,900.3,818c9.37,3.13,19.55,4.27,28.2-.1,23-11.64,23.6-49,23.6-49s29.87,27.31,54.66,16.83c27.6-11.65,25-50.48,25-50.48s29.82,25.07,54,14.48c10.27-4.51,14.91-14.49,16.9-24.48a62.78,62.78,0,0,0-5-38.58L967.91,408.9l-.13-.28a31.89,31.89,0,0,0-42.42-15.33Z"/><path class="fcfd2ab1-bfc2-4ce8-9ce8-2f5ba367d2b3" d="M1054.13,682.28c-28.67,8.7-54.73-14.95-69.57-37.15l5.86-3.67c.54.88,1.86,3.1,2.4,4,.16.27.43.68.61.94a3.46,3.46,0,0,0-5.9,3.47v0c-.12-.29-.39-.74-.53-1-.77-1.29-1.59-2.58-2.43-3.82l5.83-3.7c8.81,15.47,16.15,38.23,8.52,55.4-3.61,8.24-11.86,13.13-20.35,15.12,4.87-2.38,9.48-5.2,12.92-9.33,8.8-11.16,5.47-27.65,1.19-40.1a106.43,106.43,0,0,0-8.27-17.63,3.46,3.46,0,0,1,5.83-3.7,57.54,57.54,0,0,1,3.43,5.42c.09.19.22.44.29.64a3.5,3.5,0,0,1-5.8,3.7,26.64,26.64,0,0,1-2.12-3.25l-1.58-2.81a3.46,3.46,0,0,1,5.87-3.66c14.24,21.36,35.86,44.13,63.84,41Z"/><path class="fcfd2ab1-bfc2-4ce8-9ce8-2f5ba367d2b3" d="M982.34,711.72c-28.66,8.69-54.66-15-69.57-37.16l5.87-3.66c.53.87,1.85,3.1,2.4,4l.61.94a3.4,3.4,0,0,0-2.7-1.28,3.61,3.61,0,0,0-1.21.23,3.49,3.49,0,0,0-2,4.51v.05c-.12-.28-.39-.73-.53-1-.75-1.3-1.58-2.58-2.43-3.81l5.83-3.71c8.81,15.48,16.16,38.24,8.53,55.41-3.62,8.24-11.86,13.13-20.36,15.12,4.87-2.38,9.48-5.2,12.93-9.33,8.78-11.17,5.46-27.65,1.17-40.1a106.49,106.49,0,0,0-8.26-17.64,3.46,3.46,0,0,1,5.83-3.7,58.91,58.91,0,0,1,3.42,5.43c.09.19.22.43.3.64a3.49,3.49,0,0,1-5.8,3.69,26.08,26.08,0,0,1-2.13-3.26l-1.62-2.79a3.46,3.46,0,0,1,5.86-3.67c14.25,21.36,35.86,44.14,63.84,41Z"/><path class="fcfd2ab1-bfc2-4ce8-9ce8-2f5ba367d2b3" d="M906.92,742c-28.66,8.69-54.71-14.94-69.57-37.16l5.88-3.65c.52.86,1.85,3.1,2.39,4l.62.94a3.45,3.45,0,0,0-2.7-1.28,3.62,3.62,0,0,0-1.21.24,3.48,3.48,0,0,0-2,4.5h0a10.41,10.41,0,0,0-.52-1c-.76-1.29-1.58-2.57-2.44-3.81l5.85-3.7c8.79,15.47,16.15,38.22,8.51,55.4-3.6,8.24-11.85,13.13-20.34,15.12,4.87-2.37,9.48-5.2,12.92-9.33,8.8-11.16,5.47-27.65,1.18-40.1a106.06,106.06,0,0,0-8.27-17.63,3.46,3.46,0,0,1,5.84-3.7,63.35,63.35,0,0,1,3.42,5.42,5.89,5.89,0,0,1,.29.63,3.5,3.5,0,0,1-5.79,3.71,26.08,26.08,0,0,1-2.13-3.26l-1.63-2.8a3.46,3.46,0,0,1,5.87-3.67c14.25,21.37,35.86,44.14,63.84,41Z"/><path class="fcfd2ab1-bfc2-4ce8-9ce8-2f5ba367d2b3" d="M837.7,769.75c-28.65,8.69-54.66-15-69.57-37.16l5.87-3.66c.54.88,1.86,3.11,2.41,4,.16.27.43.68.6.94a3.44,3.44,0,0,0-2.69-1.28,3.87,3.87,0,0,0-1.21.23,3.51,3.51,0,0,0-2,4.52h0a9.33,9.33,0,0,0-.54-1c-.75-1.29-1.58-2.57-2.42-3.82l5.83-3.69c8.8,15.46,16.15,38.22,8.52,55.39-3.61,8.24-11.86,13.13-20.34,15.12,4.87-2.37,9.48-5.2,12.92-9.33,8.79-11.16,5.46-27.65,1.18-40.09A106.16,106.16,0,0,0,768,732.27a3.46,3.46,0,0,1,5.83-3.7,58.86,58.86,0,0,1,3.43,5.42c.09.2.22.44.29.64a3.5,3.5,0,0,1-5.79,3.7,26.72,26.72,0,0,1-2.13-3.25L768,732.27a3.46,3.46,0,0,1,5.86-3.66c14.26,21.37,35.87,44.13,63.85,41Z"/><path class="fcfd2ab1-bfc2-4ce8-9ce8-2f5ba367d2b3" d="M762.31,800c-28.67,8.69-54.73-15-69.58-37.15l5.87-3.67c.53.87,1.86,3.1,2.4,4a10.61,10.61,0,0,0,.61,1,3.46,3.46,0,0,0-5.9,3.47h0c-.12-.29-.39-.75-.53-1-.76-1.29-1.59-2.58-2.44-3.81l5.84-3.71c8.8,15.47,16.15,38.23,8.53,55.41-3.62,8.24-11.86,13.13-20.36,15.11,4.86-2.37,9.47-5.19,12.92-9.33,8.79-11.16,5.46-27.65,1.17-40.09a106.77,106.77,0,0,0-8.25-17.63,3.46,3.46,0,0,1,5.82-3.71,57.69,57.69,0,0,1,3.43,5.43c.09.19.22.42.3.63a3.5,3.5,0,0,1-5.81,3.7,26,26,0,0,1-2.12-3.26l-1.63-2.79a3.47,3.47,0,0,1,5.87-3.67c14.25,21.37,35.86,44.14,63.84,41Z"/><path class="fcfd2ab1-bfc2-4ce8-9ce8-2f5ba367d2b3" d="M974.92,587.67c-28.7,8.58-54.68-15.15-69.45-37.41l5.89-3.64c.52.85,1.84,3.09,2.38,4,.16.31.43.73.61,1a3.43,3.43,0,0,0-2.7-1.29,3.59,3.59,0,0,0-1.21.22,3.51,3.51,0,0,0-2,4.51h0a7.86,7.86,0,0,0-.52-1c-.75-1.29-1.57-2.58-2.42-3.82l5.85-3.68c8.74,15.5,16,38.28,8.33,55.44-3.64,8.23-11.91,13.11-20.41,15,4.84-2.32,9.46-5.15,12.92-9.28,8.84-11.13,5.57-27.63,1.32-40.09a106.41,106.41,0,0,0-8.2-17.66,3.46,3.46,0,0,1,5.85-3.69,59.84,59.84,0,0,1,3.4,5.45c.11.2.21.42.3.63A3.5,3.5,0,0,1,909,556a26,26,0,0,1-2.12-3.26L905.28,550a3.47,3.47,0,0,1,5.89-3.65c14.17,21.38,35.7,44.24,63.7,41.26Z"/><path class="fcfd2ab1-bfc2-4ce8-9ce8-2f5ba367d2b3" d="M899.41,617.65c-28.7,8.58-54.67-15.15-69.45-37.41l5.88-3.64c.53.87,1.85,3.1,2.39,4,.16.27.42.68.6.94a3.44,3.44,0,0,0-2.68-1.28,3.39,3.39,0,0,0-1.22.23,3.49,3.49,0,0,0-2,4.5v0c-.12-.29-.39-.74-.53-1-.75-1.29-1.58-2.59-2.42-3.83l5.85-3.68c8.75,15.51,16,38.29,8.33,55.43-3.65,8.23-11.91,13.12-20.4,15,4.85-2.33,9.47-5.17,12.92-9.28,8.83-11.13,5.56-27.63,1.32-40.1a105.61,105.61,0,0,0-8.2-17.66,3.46,3.46,0,0,1,5.84-3.68,61.19,61.19,0,0,1,3.41,5.44,5.24,5.24,0,0,1,.29.64,3.5,3.5,0,0,1-5.81,3.68,25.65,25.65,0,0,1-2.11-3.27L829.78,580a3.46,3.46,0,0,1,5.87-3.64c14.19,21.37,35.71,44.23,63.7,41.25Z"/><path class="fcfd2ab1-bfc2-4ce8-9ce8-2f5ba367d2b3" d="M890.36,512.89c-28.71,8.58-54.69-15.15-69.46-37.4l5.89-3.65c.52.91,1.84,3.15,2.38,4,.16.27.43.68.61.95a3.47,3.47,0,0,0-6,3.45h0c-.12-.28-.38-.74-.53-1-.75-1.29-1.57-2.57-2.42-3.81l5.85-3.68c8.74,15.49,16,38.28,8.33,55.43-3.64,8.23-11.91,13.12-20.41,15,4.84-2.34,9.46-5.17,12.92-9.3,8.84-11.12,5.57-27.62,1.32-40.08a106.36,106.36,0,0,0-8.19-17.66,3.46,3.46,0,0,1,5.84-3.69,57.72,57.72,0,0,1,3.4,5.45c.1.19.22.43.3.62a3.5,3.5,0,0,1-5.82,3.68A25.93,25.93,0,0,1,822.3,478l-1.62-2.8a3.47,3.47,0,0,1,5.88-3.65c14.17,21.37,35.7,44.23,63.7,41.25Z"/><path class="b05ca9a3-19cb-42cd-8eb5-e2d229f63cb0" d="M482,561.63c17.77-6.33,10.94,14.77,10.94,14.77-45.85,73.9-200.42,174.72-200.42,174.72l-9.4-13.39,188.69-170A30.55,30.55,0,0,1,482,561.63Z"/><path class="b335fbfe-2af9-4fc2-8812-168ab52e91a6" d="M433.75,696.26l7,.68s33.44-12.83,30-18-35.78,12.61-35.78,12.61Z"/><path class="b335fbfe-2af9-4fc2-8812-168ab52e91a6" d="M438.05,731.92s38.65-8.28,35.25-15.58-34.94,4.86-34.94,4.86Z"/><path class="eaa57ad3-c97a-4e43-a284-5072c50415cc" d="M436.08,740.56s27.19-4.59,33.79-9.16,3.43-15.07,3.43-15.07l-33.72,8.85Z"/><path class="eaa57ad3-c97a-4e43-a284-5072c50415cc" d="M435.16,705.94,433.29,695l37.44-16c3.74,4.23-2,18.6-2,18.6l-32.6,8.57Z"/><path class="ff1c5700-5a51-46db-9790-ae2fce201d94" d="M433.59,676.36c-30.92-56.32-78-27.08-78-27.08L370.89,666l-4.6,3.45L349.83,653c-5.07.87-13.08,12.2-13.08,12.2l14.18,15.36-1.64,7.22L329.12,672c-28.91,35.9-24.73,86.44-20.52,110.14s46,31.64,46,31.64S464.51,732.68,433.59,676.36Z"/><path class="bb549e15-178e-4104-baa2-c0b91dcc4d60" d="M368.08,671.6c-46,21.7-40.27,80.08-40.58,82.49s18.15,1.21,18.15,1.21l-16.89,5c-.12,9.41,4.47,35.64,4.47,35.64l35.39-21.17-29.15,27.31c-1.3,3.75,8.16,8.6,8.16,8.6l16.44-15.16-9.55,18.28c9.84,5.16,27-4,52.05-15.34S439.7,746.62,442.64,714s-19-48.83-19-48.83l-11.78,14.26,1.4-10.11A25.16,25.16,0,0,0,399.42,657c-9.78-3.35-23.85,10.08-23.85,10.08v23.85Z"/><path class="fcfd2ab1-bfc2-4ce8-9ce8-2f5ba367d2b3" d="M963.94,401.33a32.34,32.34,0,0,0-7.62-9.47l-6.13-5.22-460,180.23v36.06L967.49,408Z"/><polygon class="bb549e15-178e-4104-baa2-c0b91dcc4d60" points="632.46 456.21 540.37 548.68 490 580.89 456.52 483.11 514.03 449.44 632.46 456.21"/><polygon class="e439a8cf-0e08-426a-bb1a-63f55383cf1d" points="843.04 378.25 937.9 329.39 968.36 388.76 843.04 378.25"/><path class="a48ffc7e-8020-473f-b26e-e7f850368f72" d="M962.88,378.49c-7.44,4.32-40.06,4.43-40.06,4.43,14.81-.69,38-13.77,38-13.77l-6.88-13.09c-23.36,19.51-85.24,18.52-85.24,18.52,27.34-2.36,77.82-28.52,77.82-28.52l-12.25-25.52L514,449.38l3.72,7.34c9.49,5.82,51.68-1.2,51.68-1.2-9.56,6.13-45.82,14.4-45.82,14.4l3.59,19.58c20.22,3.86,78.27-21.76,78.27-21.76-17.48,21.1-76.77,39.16-76.77,39.16l11.68,41.75,429.71-159Z"/><polygon class="bb549e15-178e-4104-baa2-c0b91dcc4d60" points="841.28 246.9 823.12 276.18 655.16 613.91 634.54 599.72 810.03 240.53 841.28 246.9"/><polygon class="bec459ee-a9e9-4ada-8cfb-f91852699078" points="1129.05 789.68 1329.61 452.5 1494.54 584.54 1490.86 1221.81 1211.45 1359.97 1129.05 789.68"/><polygon class="fe9fa626-9376-4fb6-ad68-533e492f8746" points="743.6 619.61 1150.93 750.82 1156.55 1369.92 748.56 1167.24 743.6 619.61"/><path class="a48ffc7e-8020-473f-b26e-e7f850368f72" d="M718.26,642.52h34.28l-4,269L725.76,918C713.83,882.8,718.26,642.52,718.26,642.52Z"/><polygon class="ff1c5700-5a51-46db-9790-ae2fce201d94" points="727.8 643.81 725.74 918.04 680.39 892.78 680.39 658.66 727.8 643.81"/><path class="fe9fa626-9376-4fb6-ad68-533e492f8746" d="M1176.05,788.69,1232,636.89l85.84-164.53,29.26-16.9s186.63,196.09,154.83,195.64-141.13-119.48-141.13-119.48L1198.27,845.69Z"/><path class="a48ffc7e-8020-473f-b26e-e7f850368f72" d="M718.27,898.29l30.53-3.16-.24,272.11-19.1,8.73C717.53,1140.73,718.27,898.29,718.27,898.29Z"/><polygon class="ff1c5700-5a51-46db-9790-ae2fce201d94" points="726.41 828.68 729.46 1175.97 680.39 1148.56 680.39 843.53 726.41 828.68"/><polygon class="ff1c5700-5a51-46db-9790-ae2fce201d94" points="1525.84 646.74 1486.31 609.27 1486.31 962.29 1501.92 970.29 1525.84 646.74"/><path class="ff1c5700-5a51-46db-9790-ae2fce201d94" d="M1177.85,1075.1,1129,1091.54v277.08l42.15,22.86C1195.51,1354.19,1177.85,1075.1,1177.85,1075.1Z"/><polygon class="a48ffc7e-8020-473f-b26e-e7f850368f72" points="1219.02 1036.85 1219.02 1368.38 1171.19 1391.48 1171.19 1108.18 1219.02 1036.85"/><polygon class="a48ffc7e-8020-473f-b26e-e7f850368f72" points="1501.92 614.34 1501.92 970.29 1534.48 954.38 1533.53 640.17 1501.92 614.34"/><path class="ff1c5700-5a51-46db-9790-ae2fce201d94" d="M1177.85,809.85,1129,826.28v277.09l42.15,22.86C1195.51,1088.94,1177.85,809.85,1177.85,809.85Z"/><polygon class="a48ffc7e-8020-473f-b26e-e7f850368f72" points="1219.02 771.59 1219.02 1103.13 1171.19 1126.23 1171.19 842.92 1219.02 771.59"/><path class="a359452f-10d9-4a17-9896-c401f414193a" d="M1211.18,1372.19l-1.23-13.81a30.35,30.35,0,0,0-1.08-5.67l-5.26-18.13,1.14,14.09q.76,9.76.76,19.54v6.69Z"/><path class="a359452f-10d9-4a17-9896-c401f414193a" d="M1200.64,1377.18l-.88-9.86a20.88,20.88,0,0,0-.77-4.07l-3.77-13,.81,10.1c.37,4.67.56,9.33.56,14v4.78Z"/><polygon class="ff1c5700-5a51-46db-9790-ae2fce201d94" points="1349.41 1123.34 1408.64 1129.47 1406.58 1264.38 1349.6 1297.82 1349.41 1123.34"/><polygon class="ff1c5700-5a51-46db-9790-ae2fce201d94" points="1319.12 1154.1 1297.28 1144.14 1295.62 1317.97 1311.25 1320.59 1319.12 1154.1"/><polygon class="a359452f-10d9-4a17-9896-c401f414193a" points="1366.88 1281.2 1364.5 1155.74 1361.79 1142.89 1361.21 1285.43 1366.88 1281.2"/><polygon class="a359452f-10d9-4a17-9896-c401f414193a" points="1377.5 1272.63 1371.37 1190.09 1373.43 1276.3 1377.5 1272.63"/><polygon class="a359452f-10d9-4a17-9896-c401f414193a" points="1384.79 1185.39 1389.9 1244.3 1388.01 1134.61 1379.5 1139.24 1382.32 1269.64 1384.79 1185.39"/><polygon class="a359452f-10d9-4a17-9896-c401f414193a" points="1399.78 1256.38 1393.58 1180.62 1395.71 1259.62 1399.78 1256.38"/><polygon class="a359452f-10d9-4a17-9896-c401f414193a" points="1400.55 1116.02 1396.84 1183.68 1394.59 1113.48 1400.55 1116.02"/><path class="a48ffc7e-8020-473f-b26e-e7f850368f72" d="M1313.35,1125.09l-2,195.5c38.47,1.55,41.74-24.79,41.74-24.79l1.32-140.49Z"/><path class="a48ffc7e-8020-473f-b26e-e7f850368f72" d="M554.6,1040.28a4,4,0,0,1-4,3.74l-7.36-.21-2.72-7.53-45.72-28s.94-60.12,2.26-79.59c1-14.61,12.16-34.74,22.56-43.27l-1.49-4.35,9.94.27a8.28,8.28,0,0,1,1.22,0c11.59,1.38,23.09,53.76,27.49,79.89C558,968.68,555.35,1024.92,554.6,1040.28Z"/><path class="ff1c5700-5a51-46db-9790-ae2fce201d94" d="M482.81,1018.05s-1.34-70.66,3-89.7c4.66-20.47,20.71-48.71,32.27-47.3s27.86,47.87,29,80c.32,8.76-3.86,82.71-3.86,82.71Z"/><path class="fc916e86-62c8-4732-9135-db5ac15fed6e" d="M492.85,942.11l44.25,15.11c-2.92-16.05-8.92-50.8-22.23-53.55C504.51,901.52,494.63,928.25,492.85,942.11Z"/><path class="fc916e86-62c8-4732-9135-db5ac15fed6e" d="M552,984.48l-45.62-18c-.73,22.14-1.33,54.94-1.33,54.94L550,1039.24S551.47,1006.13,552,984.48Z"/><polygon class="ff1c5700-5a51-46db-9790-ae2fce201d94" points="519.16 897.94 515.66 1021.25 505.22 1013.78 510.18 899.88 519.16 897.94"/><path class="a48ffc7e-8020-473f-b26e-e7f850368f72" d="M446.85,997.21a3.45,3.45,0,0,1-3.55,3.28l-6.46-.18-2.4-6.63L394.25,969.1s.83-52.82,2-69.93c.92-12.85,10.74-30.53,19.88-38l-1.32-3.83,8.77.25a6.37,6.37,0,0,1,1.07,0c10.16,1.24,20.29,47.24,24.17,70.2C449.91,934.29,447.57,983.71,446.85,997.21Z"/><path class="ff1c5700-5a51-46db-9790-ae2fce201d94" d="M383.81,977.67s-1.16-62.09,2.64-78.82c4.09-18,18.21-42.8,28.35-41.56s24.49,42.06,25.49,70.31c.28,7.69-3.39,72.68-3.39,72.68Z"/><path class="fc916e86-62c8-4732-9135-db5ac15fed6e" d="M392.65,910.9l38.88,13.32c-2.56-14.1-7.84-44.64-19.54-47.06C402.92,875.28,394.22,898.77,392.65,910.9Z"/><path class="fc916e86-62c8-4732-9135-db5ac15fed6e" d="M432.22,936.16l-40.09-15.78c-.64,19.46-1.17,48.28-1.17,48.28l39.46,15.63S431.74,955.25,432.22,936.16Z"/><path class="fc916e86-62c8-4732-9135-db5ac15fed6e" d="M532.25,970.66l-40.08-15.78c-.65,19.46-1.17,48.28-1.17,48.28l39.45,15.62S531.77,989.74,532.25,970.66Z"/><polygon class="ff1c5700-5a51-46db-9790-ae2fce201d94" points="415.77 872.14 412.7 980.48 403.51 973.91 407.88 873.84 415.77 872.14"/><path class="a48ffc7e-8020-473f-b26e-e7f850368f72" d="M1407.64,1071.57l-1.06,192.81c38.25,1.41,37.91-20.05,37.91-20.05l.34-142.6Z"/><polygon class="b05ca9a3-19cb-42cd-8eb5-e2d229f63cb0" points="1336.08 1179.65 1281.96 1146.92 1284.11 1087.94 1336.08 1179.65"/><path class="acdda082-cc51-49b0-b6b3-a470ddbeea63" d="M1415.92,1025.49l60.8,67.69c-1.81,27.73-31.14,17.57-31.14,17.57-10.5,51.88-54.66,35.61-54.66,35.61-12.48,46-54.84,33.29-54.84,33.29l-51.59-91.93Z"/><path class="b05ca9a3-19cb-42cd-8eb5-e2d229f63cb0" d="M1358.66,1150.29c14.24-12.17,10.58-33.86,3.91-49.17l-3.91,1.85c.31.64,1,2,1.3,2.62.08.17.21.45.29.64a2.17,2.17,0,0,1,3.82-1.94h0c-.09-.14-.24-.44-.32-.6-.43-.83-.83-1.69-1.19-2.56l-3.92,1.82c5.18,9.86,14.68,21.4,26.3,23.18,5.55.87,10.92-1.8,14.82-5.62a23.44,23.44,0,0,1-9.28,3.66c-8.83.84-16.4-6.47-21.5-12.92a65.69,65.69,0,0,1-6.49-10.31,2.19,2.19,0,0,0-4,1.83,40,40,0,0,0,1.71,3.63,2.85,2.85,0,0,0,.23.37,2.19,2.19,0,0,0,3.9-1.8,14.72,14.72,0,0,0-1-2.22l-.92-1.81a2.17,2.17,0,1,0-3.92,1.86c6.45,14.71,11.14,33.76.07,47.45Z"/><path class="b05ca9a3-19cb-42cd-8eb5-e2d229f63cb0" d="M1360.65,1094.75c12.17-10.4,9-28.93,3.34-42l-3.34,1.59c.26.5.88,1.74,1.11,2.24.08.14.18.38.25.54a1.81,1.81,0,0,1,.21-1.58,2,2,0,0,1,.46-.49,1.87,1.87,0,0,1,2.6.41h0c-.08-.12-.2-.38-.28-.5-.34-.72-.68-1.47-1-2.2l-3.35,1.56c4.42,8.42,12.53,18.28,22.47,19.8,4.71.74,9.33-1.54,12.66-4.8a20.08,20.08,0,0,1-8,3.13c-7.55.73-14-5.52-18.38-11a57.08,57.08,0,0,1-5.54-8.8,1.85,1.85,0,0,0-3.35,1.56,32.34,32.34,0,0,0,1.45,3.1c.06.1.13.22.2.32a1.88,1.88,0,0,0,3.34-1.55,13.38,13.38,0,0,0-.86-1.89l-.73-1.57a1.85,1.85,0,0,0-3.34,1.58c5.44,12.57,9.46,28.85,0,40.54Z"/><path class="b05ca9a3-19cb-42cd-8eb5-e2d229f63cb0" d="M1400,1120.78c14.25-12.17,10.6-33.86,3.91-49.18l-3.91,1.86c.31.63,1,2,1.31,2.61.09.18.21.46.29.65a2.19,2.19,0,0,1,.23-1.85,2.82,2.82,0,0,1,.53-.56,2.19,2.19,0,0,1,3.06.46h0c-.09-.15-.24-.43-.33-.59-.42-.84-.82-1.7-1.18-2.58l-3.93,1.83c5.18,9.85,14.68,21.4,26.3,23.18,5.56.87,10.93-1.81,14.82-5.62a23.25,23.25,0,0,1-9.27,3.66c-8.84.86-16.4-6.46-21.5-12.92a65.2,65.2,0,0,1-6.5-10.3,2.16,2.16,0,0,0-3.91,1.82,37.52,37.52,0,0,0,1.69,3.64l.24.37a2.19,2.19,0,0,0,3.91-1.81,18.32,18.32,0,0,0-1-2.22l-.93-1.8a2.16,2.16,0,0,0-3.9,1.85c6.44,14.72,11.14,33.77,0,47.46Z"/><path class="ab41ea7c-9b3d-430e-bb7d-bbf4cc93ee3f" d="M630.36,1125.09c-20.45-50.43-49.9-28.57-49.9-28.57s27.45-57.65-32.38-83.45c-30.72-13.25-61.22,16.3-73.43,34.22-1.4-14.88-14.34-33.1-34.84-34.75-50.53-4.07-63,61.51-63,61.51-5.75-1.24-11.13-2.68-15.94-4.13L332,1124.47c7.59,14.67,21.57,29.32,46.09,33.27h0c61.44,86.44,146.16,39.34,146.16,39.34,16.92,4.92,35.12,4.91,53.08.1C597.76,1191.59,643,1156.25,630.36,1125.09Z"/><g class="b99545b0-406b-410a-97dc-2866e7088f6c"><path class="a474a7f8-0e06-4d00-b849-37df53d5d84f" d="M352.53,1097.06s-12.67-21.45-2.36-33.09c9.48-10.67,18.21-1.43,25.05,8.44,3.87,5.57,13.08,4.34,15.16-3.12,8.85-31.55,47.31-55.49,76.65-8.48,5.28,8.48,8.51-7.29,7.62-13.52-3.2-22.54,41.24-39,6.56-51.17-51.68-18.07-105-11.68-105.86-9.93s-57.19,57.43-57.19,57.43l-2.87,60Z"/></g><path class="ab41ea7c-9b3d-430e-bb7d-bbf4cc93ee3f" d="M301.33,1083.92c1.48-.11,3-.22,4.64-.32,0,0,4.33-60.53,66.79-50.26,61.8,10.16,45.58,78.13,45.58,78.13s21.48-24.37,45.07-1.64c19.47,17.56,36.06,55.24,18.19,66.82,0,0,57,16.7-8.51,39.9-32.79,11.61-118.46-3.71-129.36-21.86-3.71-6.18-6.84-11.48-6.84-11.48a91.26,91.26,0,0,1-26.91-7.77h0A89.55,89.55,0,0,1,270.09,1139c-.08-.15-.17-.3-.26-.45a28.58,28.58,0,0,1-1.91-4.15C259.26,1111.08,276.28,1085.86,301.33,1083.92Z"/><g class="a10c2e3b-3474-43dc-8695-6397a697482b"><path class="b16763a7-fdaf-4b9b-95a7-76f12c8d5d82" d="M418.34,1111.47s-15.49-59.06-56.9-50c-55.34,12.16-33.77,46.66-33.77,46.66s-73.41-13.15-26.16,62.78-93.09-57.42-93.09-57.42l92.68-101.13L407.21,994.9,435,1041S429.31,1092.4,418.34,1111.47Z"/></g><path class="fcfd2ab1-bfc2-4ce8-9ce8-2f5ba367d2b3" d="M1364.31,467,1188,837.8c-8.65,17.68-30.73,27.81-49.39,34.05-10.67,3.57-22.27,4.86-32.11-.11-26.2-13.24-26.83-55.78-26.83-55.78s-34,31.1-62.24,19.17c-31.43-13.28-28.45-57.5-28.45-57.5s-34,28.56-61.43,16.49c-11.66-5.1-17-16.46-19.21-27.83a69.69,69.69,0,0,1,.83-30.28,71.49,71.49,0,0,1-24.85,14.43c-10.66,3.57-22.26,4.86-32.11-.11-26.21-13.26-26.83-55.78-26.83-55.78s-34,31.1-62.24,19.17c-31.44-13.28-28.45-57.5-28.45-57.5s-34,28.56-61.44,16.49c-11.65-5.1-17-16.46-19.21-27.83a71.53,71.53,0,0,1,5.65-43.94L778.71,337.37c13.65-30.22,106.82-75.34,169.56-44Z"/><path class="acdda082-cc51-49b0-b6b3-a470ddbeea63" d="M1352.54,445.61,1175.37,814.92a72.48,72.48,0,0,1-41.8,37.15c-10.5,3.5-21.92,4.78-31.6-.11-25.82-13-26.44-54.91-26.44-54.91s-33.47,30.62-61.24,18.89c-30.92-13.07-28-56.57-28-56.57s-33.43,28.09-60.43,16.22c-11.45-5.05-16.67-16.23-18.89-27.42a68.68,68.68,0,0,1,.83-29.82,70.31,70.31,0,0,1-24.44,14.2c-10.49,3.51-21.91,4.78-31.59-.11-25.83-13-26.44-54.89-26.44-54.89s-33.47,30.61-61.24,18.89c-30.92-13.06-28-56.58-28-56.58s-33.45,28.1-60.45,16.22c-11.46-5-16.68-16.23-18.88-27.41a70.3,70.3,0,0,1,5.55-43.23L807.6,274.29l.12-.27a35.78,35.78,0,0,1,47.58-17.21Z"/><path class="b05ca9a3-19cb-42cd-8eb5-e2d229f63cb0" d="M812.09,265.82a36.19,36.19,0,0,1,8.53-10.61l6.88-5.85,467.12,153L1343.05,467l-9.58,19.11L808.13,273.31Z"/><path class="b05ca9a3-19cb-42cd-8eb5-e2d229f63cb0" d="M691.64,575.14c32.12,9.73,61.31-16.78,78-41.63l-6.58-4.1c-.6,1-2.08,3.5-2.68,4.5l-.69,1.05a3.84,3.84,0,0,1,3-1.43,4,4,0,0,1,1.36.26,3.92,3.92,0,0,1,2.25,5.06v.06c.14-.28.44-.79.6-1.08.84-1.45,1.73-2.88,2.72-4.27L763,529.41c-9.86,17.35-18.09,42.83-9.54,62.07,4,9.2,13.28,14.7,22.79,16.9-5.46-2.62-10.62-5.83-14.47-10.46-9.85-12.5-6.12-31-1.32-44.91a118.88,118.88,0,0,1,9.25-19.76,3.88,3.88,0,0,0-6.53-4.15,70.9,70.9,0,0,0-3.84,6.09,6.29,6.29,0,0,0-.32.7,4,4,0,0,0,6.5,4.15,31.22,31.22,0,0,0,2.37-3.65l1.83-3.14a3.88,3.88,0,0,0-6.58-4.1c-16,23.93-40.21,49.44-71.56,46Z"/><path class="b05ca9a3-19cb-42cd-8eb5-e2d229f63cb0" d="M772.09,608.1c32.14,9.74,61.33-16.78,78-41.62l-6.58-4.11c-.58,1-2.07,3.5-2.68,4.49-.18.3-.49.76-.68,1.06a3.88,3.88,0,0,1,6.61,3.88v.06c.13-.28.43-.78.59-1.07.86-1.44,1.74-2.88,2.73-4.27l-6.54-4.15c-9.85,17.34-18.09,42.83-9.55,62.07,4,9.19,13.29,14.7,22.8,16.89-5.45-2.61-10.62-5.82-14.48-10.45-9.85-12.5-6.12-31-1.32-44.91a119.74,119.74,0,0,1,9.26-19.76,3.88,3.88,0,0,0-6.54-4.15,66.11,66.11,0,0,0-3.82,6.09,6.44,6.44,0,0,0-.34.7A4,4,0,0,0,846,573a30.05,30.05,0,0,0,2.38-3.65l1.82-3.14a3.88,3.88,0,0,0-6.57-4.11c-16,23.94-40.21,49.45-71.55,46Z"/><path class="b05ca9a3-19cb-42cd-8eb5-e2d229f63cb0" d="M856.58,642c32.13,9.74,61.33-16.78,78-41.62L928,596.23c-.59,1-2.07,3.5-2.68,4.5l-.69,1.06a3.9,3.9,0,0,1,3-1.44,3.73,3.73,0,0,1,1.36.26,3.9,3.9,0,0,1,2.23,5v.06c.14-.27.44-.78.6-1.07.85-1.44,1.73-2.88,2.72-4.27L928,596.23c-9.85,17.35-18.08,42.83-9.54,62.07,4.05,9.2,13.28,14.71,22.79,16.9-5.45-2.62-10.61-5.82-14.47-10.45-9.85-12.51-6.12-31-1.32-44.92a118.3,118.3,0,0,1,9.29-19.72,3.88,3.88,0,0,0-6.54-4.15,68.43,68.43,0,0,0-3.83,6.09c-.12.23-.23.46-.33.7a4,4,0,0,0,6.5,4.15,30,30,0,0,0,2.37-3.65l1.83-3.14a3.88,3.88,0,0,0-6.58-4.11c-16,24-40.21,49.46-71.56,46Z"/><path class="b05ca9a3-19cb-42cd-8eb5-e2d229f63cb0" d="M934.11,673.12c32.12,9.73,61.32-16.79,78-41.63l-6.58-4.11c-.6,1-2.08,3.51-2.69,4.5l-.68,1.06a3.8,3.8,0,0,1,4.35-1.17,3.9,3.9,0,0,1,2.23,5.05h0c.14-.27.43-.78.59-1.06.85-1.45,1.73-2.89,2.73-4.27l-6.54-4.15c-9.86,17.34-18.09,42.83-9.54,62.07,4,9.19,13.27,14.7,22.79,16.89-5.46-2.62-10.62-5.82-14.48-10.45-9.85-12.5-6.12-31-1.32-44.92a118.78,118.78,0,0,1,9.33-19.75,3.88,3.88,0,0,0-6.54-4.16,68.43,68.43,0,0,0-3.83,6.09,7.5,7.5,0,0,0-.33.7,4,4,0,0,0,6.5,4.15,30.05,30.05,0,0,0,2.38-3.65l1.82-3.13a3.88,3.88,0,0,0-6.57-4.12c-16,24-40.22,49.46-71.56,46Z"/><path class="b05ca9a3-19cb-42cd-8eb5-e2d229f63cb0" d="M1018.59,707c32.12,9.73,61.31-16.79,78-41.63l-6.58-4.1c-.6,1-2.08,3.5-2.7,4.49-.18.3-.47.76-.68,1.06a3.82,3.82,0,0,1,3-1.43,3.68,3.68,0,0,1,1.35.26,3.91,3.91,0,0,1,2.26,5.05h0c.13-.26.43-.78.59-1.06.85-1.45,1.73-2.88,2.73-4.27l-6.54-4.15c-9.86,17.35-18.1,42.83-9.56,62.07,4.06,9.19,13.29,14.7,22.8,16.9-5.45-2.63-10.62-5.83-14.48-10.46-9.85-12.5-6.12-31-1.31-44.92a119.53,119.53,0,0,1,9.32-19.75,3.88,3.88,0,0,0-6.53-4.16,68.43,68.43,0,0,0-3.83,6.09c-.12.23-.23.46-.33.7a3.92,3.92,0,0,0,6.49,4.16,30.67,30.67,0,0,0,2.39-3.66l1.81-3.13a3.88,3.88,0,0,0-6.57-4.11c-16,23.94-40.21,49.45-71.55,46Z"/><path class="b05ca9a3-19cb-42cd-8eb5-e2d229f63cb0" d="M807.39,486.66c30.54,9.17,58.17-16.07,73.88-39.76L875,443c-.55,1-2,3.35-2.53,4.28-.17.27-.46.71-.65,1a3.65,3.65,0,0,1,2.86-1.37,3.8,3.8,0,0,1,1.3.25,3.7,3.7,0,0,1,2.14,4.78V452c.12-.24.41-.72.56-1,.79-1.37,1.67-2.75,2.57-4.07L875,443.05c-9.3,16.5-17,40.73-8.85,59,3.87,8.76,12.66,14,21.69,16-5.19-2.46-10.1-5.48-13.77-9.87-9.37-11.84-5.93-29.39-1.41-42.65a112.49,112.49,0,0,1,8.72-18.8,3.68,3.68,0,0,0-6.22-3.91,63,63,0,0,0-3.62,5.79c-.1.2-.23.46-.31.67a3.72,3.72,0,0,0,6.19,3.91,27.28,27.28,0,0,0,2.24-3.46l1.72-3a3.68,3.68,0,0,0-6.25-3.88c-15.09,22.79-37.95,47.1-67.76,43.89Z"/><path class="b05ca9a3-19cb-42cd-8eb5-e2d229f63cb0" d="M887.71,518.62c30.53,9.17,58.17-16.07,73.89-39.75L955.34,475c-.55,1-2,3.34-2.54,4.27l-.65,1A3.67,3.67,0,0,1,955,478.9a3.5,3.5,0,0,1,1.28.24,3.72,3.72,0,0,1,2.16,4.8h0l.56-1c.8-1.38,1.67-2.74,2.58-4.06L955.37,475c-9.31,16.49-17,40.73-8.86,59,3.88,8.74,12.67,13.94,21.71,16-5.19-2.48-10.11-5.5-13.79-9.88-9.35-11.85-5.91-29.39-1.4-42.66a113.14,113.14,0,0,1,8.73-18.78,3.68,3.68,0,0,0-6.23-3.92,66.59,66.59,0,0,0-3.61,5.79c-.1.21-.24.45-.32.67a3.73,3.73,0,0,0,6.19,3.92A27.18,27.18,0,0,0,960,481.6l1.72-3h0a3.68,3.68,0,0,0-6.26-3.88c-15.08,22.78-37.94,47.09-67.76,43.88Z"/><path class="b05ca9a3-19cb-42cd-8eb5-e2d229f63cb0" d="M897.39,407.08c30.53,9.17,58.16-16.07,73.89-39.76L965,363.45c-.55,1-2,3.35-2.54,4.28l-.64,1a3.59,3.59,0,0,1,2.86-1.38,3.89,3.89,0,0,1,1.3.25,3.7,3.7,0,0,1,2.14,4.78v.06c.13-.24.4-.72.56-1,.8-1.37,1.67-2.74,2.58-4.07l-6.23-3.91c-9.31,16.5-17,40.73-8.86,59,3.88,8.76,12.67,14,21.71,16-5.19-2.47-10.11-5.49-13.79-9.88-9.35-11.84-5.91-29.39-1.4-42.65a111.29,111.29,0,0,1,8.73-18.79,3.68,3.68,0,0,0-6.23-3.92A66.59,66.59,0,0,0,961.6,369c-.1.2-.24.46-.32.67a3.73,3.73,0,0,0,6.19,3.92,29.41,29.41,0,0,0,2.25-3.47l1.72-3a3.69,3.69,0,0,0-6.26-3.88c-15.08,22.79-37.94,47.1-67.76,43.89Z"/><path class="b05ca9a3-19cb-42cd-8eb5-e2d229f63cb0" d="M1089.36,541.94c36,10.75,68.48-19,87-46.84l-7.37-4.57c-.66,1.15-2.31,3.94-3,5l-.77,1.19a4.26,4.26,0,0,1,3.37-1.61,4.35,4.35,0,0,1,4.05,6v.06c.14-.31.48-.88.66-1.19.9-1.62,1.93-3.23,3-4.79l-7.32-4.61c-11,19.41-20.06,47.94-10.42,69.42,4.56,10.34,14.9,16.45,25.55,18.88-6.12-2.91-11.9-6.47-16.22-11.63-11.07-13.94-7-34.61-1.66-50.21a133.26,133.26,0,0,1,10.27-22.11,4.33,4.33,0,0,0-7.32-4.61,78.33,78.33,0,0,0-4.27,6.8c-.11.24-.26.55-.36.8a4.38,4.38,0,0,0,7.28,4.61,33.93,33.93,0,0,0,2.64-4.09l2-3.51a4.33,4.33,0,0,0-7.36-4.56c-17.75,26.83-44.72,55.45-79.77,51.68Z"/><path class="a359452f-10d9-4a17-9896-c401f414193a" d="M1518.81,963.48c.39-6.54-5.31-30.34-5.31-30.34s0-2.06,1,11.92-1,20.54-1,20.54Z"/><path class="a359452f-10d9-4a17-9896-c401f414193a" d="M1528.81,959.4c-.06-11.8-7.23-44.23-7.23-44.23,2.32,7.5,2.06,46.32,2.06,46.32Z"/><polygon class="ff1c5700-5a51-46db-9790-ae2fce201d94" points="1525.84 908.55 1486.31 871.07 1486.31 1224.08 1501.92 1232.08 1525.84 908.55"/><polygon class="a48ffc7e-8020-473f-b26e-e7f850368f72" points="1501.92 876.14 1501.92 1232.08 1539.21 1217 1533.53 901.97 1501.92 876.14"/><path class="a359452f-10d9-4a17-9896-c401f414193a" d="M1518.81,1225.28c.39-6.49-5.31-30.35-5.31-30.35s0-2.06,1,11.93-1,20.53-1,20.53Z"/><path class="a359452f-10d9-4a17-9896-c401f414193a" d="M1528.81,1221.2c-.06-11.8-7.23-44.24-7.23-44.24,2.32,7.51,2.06,46.33,2.06,46.33Z"/><polygon class="bec459ee-a9e9-4ada-8cfb-f91852699078" points="1452.32 1351.96 1447.19 1285.34 1458.78 1245.2 1564.41 1208.39 1553.84 1317.78 1457.02 1362.33 1452.32 1351.96"/><polygon class="fe9fa626-9376-4fb6-ad68-533e492f8746" points="1333.45 1237.72 1409.87 1249.84 1410.44 1367.32 1333.48 1329.23 1333.45 1237.72"/><polygon class="f59a45de-2cd2-4169-b788-95504cb8e58c" points="1562.95 1124.06 1559.06 1083.67 1511.44 1051.09 1501.13 1134.56 1562.95 1124.06"/><polygon class="ff1c5700-5a51-46db-9790-ae2fce201d94" points="1329.55 1215.07 1294.07 1214.53 1292.49 1320.03 1320.15 1335.39 1329.55 1215.07"/><polygon class="a48ffc7e-8020-473f-b26e-e7f850368f72" points="1335.45 1210.46 1333.67 1329.23 1320.15 1335.39 1321.87 1220.37 1335.45 1210.46"/><path class="fcfd2ab1-bfc2-4ce8-9ce8-2f5ba367d2b3" d="M1502.32,1055.26l-105.71,214.48a42.29,42.29,0,0,1-24.65,21.41c-6.14,2-12.82,2.65-18.44-.26-15-7.78-15.09-32.22-15.09-32.22s-19.73,17.65-35.86,10.62c-18-7.82-16-33.2-16-33.2s-19.69,16.19-35.38,9.08c-6.67-3-9.65-9.58-10.86-16.13a40.93,40.93,0,0,1,3.52-25.19L1348.2,982.21Z"/><polygon class="ff1c5700-5a51-46db-9790-ae2fce201d94" points="1600.14 1252.71 1580.29 1202.25 1555.47 1209.29 1553.84 1317.78 1578.43 1326.38 1600.14 1252.71"/><polygon class="a48ffc7e-8020-473f-b26e-e7f850368f72" points="1578.43 1326.38 1606.79 1313.07 1608.81 1178.82 1580.49 1189.13 1578.43 1326.38"/><polygon class="bb549e15-178e-4104-baa2-c0b91dcc4d60" points="1537.1 1075.55 1512.92 1070.15 1615.48 1191.93 1626.46 1192.1 1537.1 1075.55"/><polygon class="ff1c5700-5a51-46db-9790-ae2fce201d94" points="1561.05 1065.84 1648.7 1174.35 1626.46 1192.1 1552.65 1099.36 1561.05 1065.84"/><polygon class="ff1c5700-5a51-46db-9790-ae2fce201d94" points="1438.02 1267.36 1398.71 1266.77 1397.09 1379.12 1427.78 1393.31 1438.02 1267.36"/><polygon class="a48ffc7e-8020-473f-b26e-e7f850368f72" points="1458.64 1254.54 1456.86 1380.76 1427.78 1393.31 1429.52 1272.64 1458.64 1254.54"/><path class="bb549e15-178e-4104-baa2-c0b91dcc4d60" d="M1421,1271.11l180-81.56.51-34.35c-10.36-89-103.88-51.12-103.88-51.12Z"/><path class="a359452f-10d9-4a17-9896-c401f414193a" d="M1422.44,1279.9l186.12-84.34.51-34.35c-10.37-89-103.88-51.1-103.88-51.1Z"/><path class="a612ee9a-03c4-4354-8d4d-17647c5bcd01" d="M1517.8,1138.47c44.48-16.13,59.69,30.81,59.69,30.81l-112,47.81S1461,1159,1517.8,1138.47Z"/><g class="be637b64-9866-40ae-937c-349c6d9bfde3"><polygon class="bb549e15-178e-4104-baa2-c0b91dcc4d60" points="1457.09 1228.14 1585.55 1174.55 1578.43 1160.75 1459.67 1212.83 1457.09 1228.14"/></g><path class="bb549e15-178e-4104-baa2-c0b91dcc4d60" d="M1529.22,1189.93l-26.5,11.31-3.37-53.6a86.4,86.4,0,0,1,18.45-9.2,60.68,60.68,0,0,1,7.46-2.19Z"/><polygon class="a359452f-10d9-4a17-9896-c401f414193a" points="1530.28 1122.49 1536.72 1209.72 1510.13 1222.77 1504.77 1137.7 1530.28 1122.49"/><polygon class="bb549e15-178e-4104-baa2-c0b91dcc4d60" points="1359.09 992.25 1333.8 979.71 1230.39 1202.01 1240.28 1209.16 1359.09 992.25"/><polygon class="bb549e15-178e-4104-baa2-c0b91dcc4d60" points="1401.55 1260.9 1368.96 1273.45 1390.79 1291.12 1415.85 1291.5 1401.55 1260.9"/><polygon class="ff1c5700-5a51-46db-9790-ae2fce201d94" points="1492.4 1061.38 1386.8 1270.97 1415.85 1291.5 1523.07 1084.34 1492.4 1061.38"/><polygon class="bb549e15-178e-4104-baa2-c0b91dcc4d60" points="1504.59 1064.44 1492.44 1058.41 1380.03 1275.76 1392.38 1284.1 1504.59 1064.44"/><polygon class="ff1c5700-5a51-46db-9790-ae2fce201d94" points="1333.16 443.97 1142.85 863.88 1171.9 884.41 1363.83 466.94 1333.16 443.97"/><polygon class="bb549e15-178e-4104-baa2-c0b91dcc4d60" points="1341.75 446.99 1329.61 440.96 1136.68 857.37 1149.02 865.71 1341.75 446.99"/><polygon class="bc5dcddd-40d1-44be-9268-8198d34c22b6" points="1542.42 1072.43 1409.7 991.29 1301.61 963.74 1318.53 980.47 1552.65 1099.36 1542.42 1072.43"/><path class="acdda082-cc51-49b0-b6b3-a470ddbeea63" d="M1502.41,1049.18,1396.7,1263.64a42.3,42.3,0,0,1-24.64,21.42c-6.15,2-12.81,2.65-18.44-.27-15-7.78-15.09-32.22-15.09-32.22s-19.73,17.65-35.87,10.62c-18-7.82-16-33.2-16-33.2s-19.71,16.19-35.39,9.08c-6.67-3-9.65-9.58-10.86-16.12a41.07,41.07,0,0,1,3.52-25.21L1348.3,976.11Z"/><polygon class="a359452f-10d9-4a17-9896-c401f414193a" points="1486.95 1015.97 1529.3 1076.69 1552.65 1099.36 1582.61 1048.31 1553.79 1023.84 1486.95 1015.97"/><g class="ea5a5e63-841a-412d-ad08-481ebee61d35"><polygon class="b05ca9a3-19cb-42cd-8eb5-e2d229f63cb0" points="1342.98 964.35 1520.53 1043.07 1519.82 1090.62 1331.17 996.12 1342.98 964.35"/></g><polygon class="e3f00387-aa14-4833-9987-373dc7c2b913" points="1378.79 947.04 1328.99 921.35 1301.61 963.74 1378.79 947.04"/><path class="bb549e15-178e-4104-baa2-c0b91dcc4d60" d="M1310.12,949.09c3.74,3.15,18.16,3.36,18.16,3.36-8.22-1.85-15.33-8.81-15.33-8.81l5.71-9.72c11.14,13.22,44.37,13.22,44.37,13.22-15-4-40.75-21.08-40.75-21.08l6-9.94,225.51,107.74-2.81,3.73c-5.9,2.32-28.76-5.75-28.76-5.75,4.74,4.36,24.19,12.55,24.19,12.55l-4,10.59c-11.68.15-41.6-19.88-41.6-19.88,7.71,13.53,39,29.43,39,29.43l-10.63,22.16-227.69-113Z"/><path class="b05ca9a3-19cb-42cd-8eb5-e2d229f63cb0" d="M1266.43,1180.57c17.89,4,32.7-11.6,40.75-25.84l-3.76-2c-.28.57-1,2-1.27,2.56l-.34.6a2.12,2.12,0,0,1,1.59-.9,2.06,2.06,0,0,1,.74.08,2.15,2.15,0,0,1,1.45,2.67h0l.28-.6c.4-.83.85-1.65,1.31-2.45l-3.73-2c-4.64,9.85-8.11,24.08-2.65,34.22,2.58,4.86,7.84,7.49,13.11,8.29a22.78,22.78,0,0,1-8.32-5.1c-5.88-6.41-4.61-16.64-2.57-24.43a64.72,64.72,0,0,1,4.25-11.14,2.12,2.12,0,0,0-3.74-2,36.16,36.16,0,0,0-1.84,3.48,2.74,2.74,0,0,0-.15.4,2.14,2.14,0,0,0,3.71,2,15.77,15.77,0,0,0,1.15-2.09l.87-1.78a2.13,2.13,0,0,0-3.76-2c-7.71,13.7-19.86,28.6-37.08,28Z"/><path class="b05ca9a3-19cb-42cd-8eb5-e2d229f63cb0" d="M1311.65,1195.25c17.89,4,32.71-11.6,40.75-25.84l-3.75-2c-.29.58-1,2-1.28,2.57l-.33.6a2.06,2.06,0,0,1,1.58-.9,2.09,2.09,0,0,1,.78.09,2.12,2.12,0,0,1,1.41,2.65h0c.06-.15.2-.44.28-.61.39-.81.84-1.64,1.31-2.43l-3.74-2c-4.64,9.85-8.1,24.07-2.65,34.21,2.58,4.87,7.84,7.48,13.12,8.3a22.94,22.94,0,0,1-8.32-5.11c-5.89-6.41-4.61-16.63-2.57-24.42a65.29,65.29,0,0,1,4.24-11.15,2.12,2.12,0,0,0-3.74-2c-.66,1.13-1.29,2.28-1.84,3.47a1.31,1.31,0,0,0-.15.4,2.14,2.14,0,0,0,3.71,2,15.77,15.77,0,0,0,1.15-2.09l.87-1.79a2.12,2.12,0,1,0-3.75-2c-7.72,13.71-19.87,28.61-37.09,28Z"/><path class="b05ca9a3-19cb-42cd-8eb5-e2d229f63cb0" d="M1359.08,1210.21c17.89,4,32.7-11.6,40.75-25.84l-3.75-2-1.28,2.56c-.09.17-.24.43-.33.61a2,2,0,0,1,1.58-.9,2.11,2.11,0,0,1,.75.08,2.15,2.15,0,0,1,1.44,2.66h0c.06-.15.19-.44.27-.61.4-.82.85-1.64,1.31-2.43l-3.73-2c-4.64,9.85-8.11,24.08-2.65,34.22,2.58,4.87,7.84,7.48,13.11,8.3a22.94,22.94,0,0,1-8.32-5.11c-5.88-6.41-4.61-16.63-2.56-24.42a63.66,63.66,0,0,1,4.24-11.15,2.12,2.12,0,0,0-3.74-2,34.86,34.86,0,0,0-1.84,3.47,1.31,1.31,0,0,0-.15.4,2.14,2.14,0,0,0,3.71,2A16.18,16.18,0,0,0,1399,1186l.87-1.79a2.13,2.13,0,0,0-3.76-2c-7.71,13.71-19.86,28.6-37.08,28Z"/><path class="b05ca9a3-19cb-42cd-8eb5-e2d229f63cb0" d="M1311.26,1128.15c17.89,4,32.71-11.59,40.75-25.84l-3.75-2c-.28.57-1,2-1.28,2.56-.09.17-.24.43-.33.61a2,2,0,0,1,1.58-.91,1.89,1.89,0,0,1,.75.09,2.13,2.13,0,0,1,1.44,2.65h0c.06-.14.2-.44.28-.6.4-.83.84-1.64,1.3-2.44l-3.73-2c-4.64,9.84-8.1,24.08-2.65,34.21,2.58,4.87,7.84,7.49,13.12,8.29a22.9,22.9,0,0,1-8.33-5.1c-5.87-6.41-4.6-16.62-2.55-24.41a64.53,64.53,0,0,1,4.23-11.16,2.12,2.12,0,0,0-3.74-2c-.67,1.12-1.28,2.28-1.84,3.47a1.07,1.07,0,0,0-.14.39,2.14,2.14,0,0,0,3.7,2,16.36,16.36,0,0,0,1.16-2.09l.86-1.79a2.13,2.13,0,0,0-3.76-2c-7.71,13.7-19.85,28.59-37.08,28Z"/><path class="b05ca9a3-19cb-42cd-8eb5-e2d229f63cb0" d="M1358.69,1143.16c17.89,4,32.7-11.6,40.75-25.84l-3.76-2c-.28.58-1,2-1.27,2.57-.09.17-.24.42-.34.59a2.13,2.13,0,0,1,3.77,1.85h0l.28-.6c.4-.83.85-1.64,1.31-2.44l-3.73-2c-4.65,9.85-8.11,24.08-2.66,34.22,2.59,4.86,7.85,7.49,13.12,8.29a22.78,22.78,0,0,1-8.32-5.1c-5.88-6.41-4.55-16.63-2.57-24.43a65.51,65.51,0,0,1,4.24-11.14,2.12,2.12,0,0,0-3.73-2,34.86,34.86,0,0,0-1.84,3.47,2.74,2.74,0,0,0-.15.4,2.15,2.15,0,0,0,3.71,2,17,17,0,0,0,1.15-2.09l.87-1.79a2.13,2.13,0,0,0-3.76-2c-7.71,13.7-19.86,28.6-37.09,28Z"/><path class="b05ca9a3-19cb-42cd-8eb5-e2d229f63cb0" d="M1359.64,1078.8c17.89,4,32.7-11.6,40.75-25.84l-3.74-2c-.29.58-1,2-1.29,2.56-.09.17-.24.43-.32.61a2,2,0,0,1,1.58-.9,2.12,2.12,0,0,1,2.18,2.74h0l.29-.61c.4-.81.84-1.64,1.3-2.43l-3.72-2c-4.65,9.85-8.11,24.07-2.66,34.21,2.59,4.87,7.84,7.48,13.11,8.3a23,23,0,0,1-8.32-5.11c-5.87-6.41-4.6-16.63-2.55-24.42a64.43,64.43,0,0,1,4.23-11.15,2.12,2.12,0,0,0-3.74-2,37,37,0,0,0-1.83,3.47,2.74,2.74,0,0,0-.15.4,2.13,2.13,0,0,0,3.7,2,15.11,15.11,0,0,0,1.16-2.08l.86-1.79a2.13,2.13,0,0,0-3.76-2c-7.71,13.71-19.85,28.6-37.08,28Z"/><polygon class="a48ffc7e-8020-473f-b26e-e7f850368f72" points="707.47 921.35 1129.05 1051.35 1129.05 1032.21 738.63 883.18 707.47 921.35"/><polygon class="ff1c5700-5a51-46db-9790-ae2fce201d94" points="682.58 928.56 1166.56 1126.03 1169.31 1066.95 684.11 879.33 682.58 928.56"/><path class="bb549e15-178e-4104-baa2-c0b91dcc4d60" d="M1317.85,769s86.48-68.07,67.42-81.24-26-4.23-26-4.23l-59,66.26Z"/><path class="ff1c5700-5a51-46db-9790-ae2fce201d94" d="M1356.85,875.58c-14.88.32-35.08-9.17-35.08-9.17l-21.59-116.65,20.79,8.48S1371.73,875.26,1356.85,875.58Z"/><path class="a48ffc7e-8020-473f-b26e-e7f850368f72" d="M1322.35,749.64l45.33-59.14a12.93,12.93,0,0,1,17.59-2.81L1440.8,726a18.13,18.13,0,0,1,7.84,15.06L1448,846.92a13.75,13.75,0,0,1-11.18,13.42l-80,15.22a13.74,13.74,0,0,1-16-10.58L1319,764.59A18.25,18.25,0,0,1,1322.35,749.64Z"/><path class="a612ee9a-03c4-4354-8d4d-17647c5bcd01" d="M1338.86,761.68l33.66-41.91a9.94,9.94,0,0,1,13-2l41,27a12.55,12.55,0,0,1,5.78,10.63l-.65,74.8a9.94,9.94,0,0,1-8.3,9.52l-59.26,10.93a10.12,10.12,0,0,1-11.85-7.45l-16-71A12.52,12.52,0,0,1,1338.86,761.68Z"/><polygon class="a48ffc7e-8020-473f-b26e-e7f850368f72" points="1383.37 706.9 1399.53 853.46 1390.33 856.64 1375.59 710.07 1383.37 706.9"/><polygon class="a48ffc7e-8020-473f-b26e-e7f850368f72" points="1328.51 786.31 1440.76 769.52 1443.32 778.7 1331.03 794.08 1328.51 786.31"/><path class="a48ffc7e-8020-473f-b26e-e7f850368f72" d="M1327.12,1322.44l5.25,8.46,12.21,4.44,17.71-1.11,17-10.44c11.9,29.4,7.54,50.9,4.16,60.62a21.36,21.36,0,0,1-6.85,9.77c-16.76,13.42-34.46,7.57-43.78,2.68a20.83,20.83,0,0,1-9.78-11.1c-11.41-30.17,3.14-63.32,3.14-63.32Z"/><path class="ff1c5700-5a51-46db-9790-ae2fce201d94" d="M1352,1335.56l-1.63,65.21c-1.69-6.72-1.5-65.21-1.5-65.21Z"/><path class="ff1c5700-5a51-46db-9790-ae2fce201d94" d="M1370.55,1332c8.07,44.61-.64,64.86-.64,64.86,4-37.46-2-63.73-2-63.73Z"/><path class="ff1c5700-5a51-46db-9790-ae2fce201d94" d="M1330.92,1329.61c-8.08,43.55.1,65.74.1,65.74-3.94-36.57,2.76-63.85,2.76-63.85Z"/><ellipse class="ff1c5700-5a51-46db-9790-ae2fce201d94" cx="1352.72" cy="1325.12" rx="27.25" ry="11.42"/><ellipse class="fc916e86-62c8-4732-9135-db5ac15fed6e" cx="1352.72" cy="1323.75" rx="19.38" ry="6.86"/><path class="fc59087b-b689-481a-a129-0448e47d3a25" d="M1387.71,1340.17c-.87,3.5-1.35,6-7.26,9.25-8.23,4.54-31.59,10.55-51.28.5-20.47-10.44-8.9-21.12-4.2-24.55,0,.15-.07.31-.12.48a3.76,3.76,0,0,1-.23.55,2.42,2.42,0,0,0-.19.7c-1.15,1.86-2.1,4.3-1.1,6.43,2,4.06,14.19,9.83,28.26,10.27,14.63.48,20.29-1.8,26.35-5s3-11.6,3-11.6C1387.82,1331.64,1388.62,1336.46,1387.71,1340.17Z"/><g class="f36ba449-c979-4f41-95ba-096dabdd8761"><path class="b25a6c96-0113-479c-b533-5b88b4926704" d="M1380.91,1339.84c-6.16,5.4-20.81,6.89-29.1,6.39s-19.39-2.71-27.55-9.24c-6.19-5-1.66-10.22.88-12.46l-.07.67c-.12.19-.93,3.11-1.12,3.6a.06.06,0,0,1,0,0,.49.49,0,0,0,.4.56.58.58,0,0,0,.68-.33l.13-.36c.1.55,1.09.53,1.09-.07v-3.18l.09-.08a.52.52,0,0,0,.16-.33h0a.37.37,0,0,0,.21,0,.38.38,0,0,0,.21,0,.4.4,0,0,0,.18-.1l.08-.1a.44.44,0,0,0,.08-.25v-.13l0-.1h.13a.49.49,0,0,0,.55-.44.5.5,0,0,0-.44-.55c6.8.07,50.07.6,53.37,2.91C1384.39,1328.81,1385,1336.21,1380.91,1339.84Z"/></g><path class="fc59087b-b689-481a-a129-0448e47d3a25" d="M1352.88,1379c34.78,2,34.21-21.16,34.21-21.16s14.62,34-35.07,32.23c-48.45-1.73-33.34-28.82-33.34-28.82S1318.11,1377.05,1352.88,1379Z"/><g class="fe905128-3b8c-4b9e-9cbe-72f916bf03ac"><path class="b25a6c96-0113-479c-b533-5b88b4926704" d="M1352.88,1369.62c34.78,1.86,34.21-20,34.21-20s11.46,32.25-35.07,30.46c-45-1.73-33.34-27.2-33.34-27.2S1318.11,1367.75,1352.88,1369.62Z"/></g><g class="f589e035-f879-40e4-a4d1-db4eb366ea44"><path class="a48ffc7e-8020-473f-b26e-e7f850368f72" d="M1352.88,1320.14c-15.37-.08-21.4,5.8-19.35,7.61,3,2.68,10.6,4,19.38,4,9.18,0,16.34-1.71,19-4C1374,1325.91,1369.47,1320.31,1352.88,1320.14Z"/></g><path class="a48ffc7e-8020-473f-b26e-e7f850368f72" d="M594.45,1171.43l5.25,8.48,12.19,4.42,17.71-1.11,17-10.44c11.9,29.39,7.53,50.9,4.16,60.63a21.53,21.53,0,0,1-6.86,9.76c-16.7,13.41-34.4,7.56-43.73,2.68a21,21,0,0,1-9.78-11.11c-11.39-30.16,3.15-63.31,3.15-63.31Z"/><path class="ff1c5700-5a51-46db-9790-ae2fce201d94" d="M619.39,1184.57l-1.63,65.21c-1.69-6.7-1.5-65.21-1.5-65.21Z"/><path class="ff1c5700-5a51-46db-9790-ae2fce201d94" d="M637.91,1181c8.08,44.61-.63,64.87-.63,64.87,4-37.47-2-63.73-2-63.73Z"/><path class="ff1c5700-5a51-46db-9790-ae2fce201d94" d="M598.29,1178.63c-8.07,43.54.1,65.74.1,65.74-3.94-36.57,2.76-63.85,2.76-63.85Z"/><ellipse class="ff1c5700-5a51-46db-9790-ae2fce201d94" cx="620.09" cy="1174.14" rx="27.25" ry="11.42"/><ellipse class="fc916e86-62c8-4732-9135-db5ac15fed6e" cx="620.09" cy="1172.77" rx="19.38" ry="6.86"/><path class="fc59087b-b689-481a-a129-0448e47d3a25" d="M655.09,1189.18c-.88,3.5-1.36,6-7.26,9.26-8.24,4.54-31.59,10.54-51.28.5-20.48-10.45-8.91-21.12-4.2-24.56a4.21,4.21,0,0,0-.12.48,3.88,3.88,0,0,1-.23.56,2.51,2.51,0,0,0-.19.7c-1.11,1.85-2.1,4.3-1.11,6.43,1.95,4,14.2,9.82,28.27,10.28,14.63.46,20.29-1.82,26.35-5.07s3-11.59,3-11.59C655.2,1180.66,656,1185.48,655.09,1189.18Z"/><g class="ad96253b-0f54-407f-8017-002352b65611"><path class="b25a6c96-0113-479c-b533-5b88b4926704" d="M648.29,1188.87c-6.17,5.39-20.83,6.88-29.11,6.38s-19.39-2.7-27.55-9.23c-6.19-5-1.66-10.22.87-12.47l-.07.68c-.12.18-.92,3.1-1.11,3.6a.07.07,0,0,0,0,.05.47.47,0,0,0,.4.54.56.56,0,0,0,.67-.33,1,1,0,0,0,.13-.36c.1.56,1.1.54,1.1-.06v-3.18l.08-.09a.42.42,0,0,0,.16-.32h0a.41.41,0,0,0,.22,0,.62.62,0,0,0,.39-.14l.09-.1a.43.43,0,0,0,.07-.25v-.13a.41.41,0,0,0,0-.09h.13a.49.49,0,1,0,.11-1c6.8.07,50.08.61,53.37,2.92C651.77,1177.83,652.38,1185.22,648.29,1188.87Z"/></g><path class="fc59087b-b689-481a-a129-0448e47d3a25" d="M620.25,1228c34.78,2,34.22-21.16,34.22-21.16s14.61,34-35.08,32.23c-48.45-1.73-33.35-28.82-33.35-28.82S585.48,1226.06,620.25,1228Z"/><g class="b51cb69f-e98b-44a7-847c-ec22f0ff4234"><path class="b25a6c96-0113-479c-b533-5b88b4926704" d="M620.25,1218.64c34.78,1.86,34.22-20,34.22-20s11.45,32.24-35.08,30.46c-45-1.73-33.35-27.21-33.35-27.21S585.48,1216.77,620.25,1218.64Z"/></g><g class="abde289b-18a3-4a44-a2be-a438ea40cfaf"><path class="a48ffc7e-8020-473f-b26e-e7f850368f72" d="M620.25,1169.22c-15.36-.08-21.41,5.81-19.34,7.61,3,2.63,10.59,3.92,19.37,3.92,9.17,0,16.34-1.71,19-4C641.38,1174.92,636.85,1169.32,620.25,1169.22Z"/></g><path class="a48ffc7e-8020-473f-b26e-e7f850368f72" d="M1204.35,1282.61l9.16,14.77,21.28,7.73,30.9-1.93,29.68-18.22c20.75,51.28,13.13,88.8,7.24,105.78a37.4,37.4,0,0,1-11.92,17c-29.24,23.4-60.12,13.18-76.37,4.66a36.34,36.34,0,0,1-17.07-19.37c-19.89-52.67,5.45-110.49,5.45-110.49Z"/><path class="ff1c5700-5a51-46db-9790-ae2fce201d94" d="M1247.8,1305.45,1245,1419.22c-3-11.72-2.62-113.77-2.62-113.77Z"/><path class="ff1c5700-5a51-46db-9790-ae2fce201d94" d="M1280.12,1299.19c14.09,77.83-1.1,113.15-1.1,113.15,6.87-65.35-3.48-111.17-3.48-111.17Z"/><path class="ff1c5700-5a51-46db-9790-ae2fce201d94" d="M1211,1295.08c-14.09,76,.18,114.68.18,114.68-6.88-63.79,4.81-111.39,4.81-111.39Z"/><ellipse class="ff1c5700-5a51-46db-9790-ae2fce201d94" cx="1249.04" cy="1287.25" rx="47.54" ry="19.93"/><ellipse class="fc916e86-62c8-4732-9135-db5ac15fed6e" cx="1249.04" cy="1284.86" rx="33.8" ry="11.97"/><path class="fc59087b-b689-481a-a129-0448e47d3a25" d="M1310,1313.51c-1.53,6.1-2.36,10.47-12.65,16.15-14.35,7.92-55.1,18.39-89.45.87-35.72-18.21-15.53-36.88-7.33-42.84-.1.27-.13.55-.21.84a6,6,0,0,1-.39,1,3.9,3.9,0,0,0-.34,1.21c-2,3.27-3.7,7.51-1.92,11.22,3.39,7,24.76,17.11,49.31,17.89,25.52.83,35.36-3.15,46-8.82s5.23-20.23,5.23-20.23C1310.27,1298.64,1311.66,1307,1310,1313.51Z"/><g class="acc12abe-500e-4183-bc41-96d85ca00ca0"><path class="b25a6c96-0113-479c-b533-5b88b4926704" d="M1298.23,1312.92c-10.75,9.42-36.33,12-50.78,11.15s-33.81-4.72-48-16.11c-10.81-8.65-2.91-17.82,1.52-21.74,0,0-.13,1-.13,1.17-.2.32-1.65,5.42-2,6.28a.87.87,0,0,0,.68,1,1,1,0,0,0,1.18-.6c.08-.21.15-.41.22-.61.13,1,1.92.94,1.92-.12v-5.55l.15-.15a.87.87,0,0,0,.28-.57h0a.85.85,0,0,0,.73,0,.59.59,0,0,0,.31-.17l.15-.17a.76.76,0,0,0,.14-.43v-.23a1.42,1.42,0,0,0-.08-.18h.22a.92.92,0,0,0,1-.84.91.91,0,0,0-.76-.84c11.85.12,87.35,1,93.1,5.09C1304.28,1293.67,1305.37,1306.59,1298.23,1312.92Z"/></g><path class="fc59087b-b689-481a-a129-0448e47d3a25" d="M1249.32,1381.23c60.68,3.43,59.69-36.91,59.69-36.91s25.54,59.27-61.2,56.22c-84.53-3-58.17-50.22-58.17-50.22S1188.65,1377.81,1249.32,1381.23Z"/><g class="bd4b0aaa-fdf9-4b8c-a22a-ab4c496c364e"><path class="b25a6c96-0113-479c-b533-5b88b4926704" d="M1249.32,1364.87C1310,1368.11,1309,1330,1309,1330s20,56.25-61.2,53.13c-78.58-3-58.17-47.46-58.17-47.46S1188.65,1361.63,1249.32,1364.87Z"/></g><g class="aa613c4a-9627-40a2-b1fd-f5f725a7080c"><path class="a48ffc7e-8020-473f-b26e-e7f850368f72" d="M1249.37,1278.69c-26.83-.14-37.4,10.11-33.79,13.27,5.2,4.59,18.47,6.84,33.79,6.84,16,0,28.51-3,33.08-7C1286.19,1288.61,1278.24,1278.85,1249.37,1278.69Z"/></g><path class="a48ffc7e-8020-473f-b26e-e7f850368f72" d="M957.69,1113.79c-4.34-12.8-19.76-49.38-68.58-38.76s-24.91,152.5-24.91,152.5l88.63,46.71S962,1126.59,957.69,1113.79Z"/><g class="f44d2705-8490-4bca-8ec9-1b13694885fa"><path class="bb549e15-178e-4104-baa2-c0b91dcc4d60" d="M863.12,1086l-4.54,196.33,18.89,9.58,8.83-184.31,2.46,171.77,21.75,16-8.52-161,7.19-38.39c-2.13,7.47,5,192.33,5,192.33s11.44,7.29,13.32,6.15,5.22-206.62,5.22-206.62,6.52,148.29,5.12,168.46-1.51,30.08-.17,31.25,21.62,2.54,21.62,2.54l-1.73-206.56C913.16,1084.22,863.69,1082.1,863.12,1086Z"/></g><path class="a48ffc7e-8020-473f-b26e-e7f850368f72" d="M843.73,1218.05c2.39,2.54-1.22-3.34,1.46-2.82.92,2,8.74,13.26,11.25,13.26,6.66.08,7.77-.91,7.77-.91s-.59-63.36,3.39-96.59c2.67-22.49,13.08-52.82,48.22-48.24,20.18,2.63,40.38,22.57,44.15,49.84,3,21.7,3.08,155.74,3.08,155.74s.82-10.57,8.77-10.48c1.34,3.9,8.33,19,9.71,18.81,9.27-1.44,12.62-5,12.62-5s2.55-141-7.91-174.93c-14.61-47.39-73.34-91.8-121.6-50.06-20.27,17.54-24.35,52.19-24.84,89.45C839.05,1211.51,843.72,1218,843.73,1218.05Z"/><path class="ff1c5700-5a51-46db-9790-ae2fce201d94" d="M832.68,1158.18c-.7,55.36,1.28,59.75,1.28,59.75,9.29,10.2,22.45,10.57,22.45,10.57s-1.69-63.72,2.14-97c2.63-22.49,13.72-51.39,47.71-46.83,19.53,2.63,39,22.56,42.68,49.82,2.9,21.71,3.2,146.43,3.2,146.43s3.75,13.78,29.38,15.67c0,0,3-147.18-7.1-181.08-14.13-47.4-70.94-88.56-117.66-46.82C837.15,1086.27,833.2,1120.92,832.68,1158.18Z"/><path class="b335fbfe-2af9-4fc2-8812-168ab52e91a6" d="M1573.65,833.29l-9.56,1s-46.11-17.69-41.28-24.79,49.37,17.38,49.37,17.38Z"/><path class="b335fbfe-2af9-4fc2-8812-168ab52e91a6" d="M1567.8,882.35s-53.23-11.39-48.55-21.44,48.13,6.71,48.13,6.71Z"/><path class="eaa57ad3-c97a-4e43-a284-5072c50415cc" d="M1570.52,894.32S1533.05,888,1524,881.68s-4.71-20.77-4.71-20.77l46.44,12.2Z"/><path class="eaa57ad3-c97a-4e43-a284-5072c50415cc" d="M1571.86,846.57l2.55-15-51.6-22.13c-5.18,5.82,2.71,25.62,2.71,25.62l44.93,11.81Z"/><path class="ff1c5700-5a51-46db-9790-ae2fce201d94" d="M1574,805.92c42.61-77.61,107.47-37.32,107.47-37.32l-21.07,23.07,6.35,4.75,22.68-22.74c7,1.2,18,16.81,18,16.81l-19.54,21.17,2.28,9.94,27.79-21.7c39.84,49.47,34.07,119.08,28.27,151.77s-63.32,43.6-63.32,43.6S1531.34,883.53,1574,805.92Z"/><path class="bb549e15-178e-4104-baa2-c0b91dcc4d60" d="M1664.26,799.4c63.36,29.88,55.51,110.33,56,113.65s-25,1.67-25,1.67l23.2,6.8c.17,13-6.17,49.1-6.17,49.1l-48.76-29.16,40.16,37.68c1.79,5.17-11.25,11.85-11.25,11.85l-22.7-20.85,13.17,25.13c-13.57,7.11-37.19-5.47-71.73-21.15s-45.67-71.37-49.7-116.3,26.18-67.3,26.18-67.3l16.24,19.66L1602,796.25s5.56-12.41,19-17,32.9,13.88,32.9,13.88v32.82Z"/><path class="aa9e29a0-905a-44e3-a10c-1b08812daef9" d="M1612.06,838.56c12.11.63,35.69-12.08,35.69-12.08l28.17,46.85s-14.08,11.85-22.46,25.73-4.89,51.08-4.89,51.08C1619,940.93,1608,917.46,1608,917.46Z"/><path class="a359452f-10d9-4a17-9896-c401f414193a" d="M1706.7,856.79l80.94,134.58s-3.46-1.55-15.4.16c-14.13,2-8.19,25.17-8.19,25.17l-87-138.53C1662.77,813.1,1706.7,856.79,1706.7,856.79Z"/><path class="b5cc8f40-0fc9-4857-9291-6f3b0f1c29ce" d="M1608.6,837.48c12.11.63,35.69-12.08,35.69-12.08l28.17,46.85S1658.38,884.1,1650,898s-4.9,51.08-4.9,51.08c-29.61-9.21-40.56-32.68-40.56-32.68Z"/><path class="b3cba657-4d07-4f58-bc64-4e925327047a" d="M1642.23,824.87a14,14,0,0,1-2.13-6.26c-1.31-15,8.07-20,15.9-21.6a13.9,13.9,0,0,1,14.27,6L1708.39,859c-27.27-6.37-31.75,20.14-31.75,20.14Z"/><path class="bb549e15-178e-4104-baa2-c0b91dcc4d60" d="M1782.75,987.3c7.89,4.68,7.37,8.22,7.42,19.28s-9,22-14.85,22.28-13.32-13-14.24-20.81,7.54-18.89,7.54-18.89S1774.87,982.62,1782.75,987.3Z"/><path class="bbac6a6b-1f1c-465c-9fc3-652767191284" d="M414.63,762.17c6.76-17.6,20-12.32,20.31-12.19s-.15-.6-.15-.6c-17.49-5.15-20.47,12.3-20.47,12.3Z"/><path class="bbac6a6b-1f1c-465c-9fc3-652767191284" d="M1656.05,797c-1,8.86,36.38,63.35,36.38,63.35l-8.08,5.77c-3.88-29.85-40.13-62.84-40.13-62.84C1647.39,797.69,1656.05,797,1656.05,797Z"/><path class="aa9e29a0-905a-44e3-a10c-1b08812daef9" d="M1607.32,864.11c3.22,19.88,39.21,54.67,39.21,54.67l2.94-16.48c-19.89-15-40.78-64.88-40.78-64.88Z"/><path class="bb549e15-178e-4104-baa2-c0b91dcc4d60" d="M1136.67,857.37l8.74,10.3,26.48,16.74L1149,865.71C1147.63,852.48,1136.67,857.37,1136.67,857.37Z"/><polygon class="ff1c5700-5a51-46db-9790-ae2fce201d94" points="1337.84 413.81 1582.68 703.68 1580.77 710.8 1566.76 721.08 1320.38 436.72 1337.84 413.81"/><polygon class="bb549e15-178e-4104-baa2-c0b91dcc4d60" points="1341.09 416.42 1352.32 406.25 1592.61 699.35 1580.77 710.8 1341.09 416.42"/><polygon class="a359452f-10d9-4a17-9896-c401f414193a" points="1204.43 326.88 1309.08 431.56 1366.75 468.23 1407.86 358.98 1341.94 320.6 1204.43 326.88"/><polygon class="e3f00387-aa14-4833-9987-373dc7c2b913" points="881.38 254.5 1058.85 264.56 835.15 175.15 804.84 229.66 881.38 254.5"/><path class="bb549e15-178e-4104-baa2-c0b91dcc4d60" d="M802.38,226.59c8.53,4.92,67,15,67,15-17.18-.93-64.32-25.43-64.32-25.43l8.28-14.59c26.61,22.15,119,31.27,119,31.27-31.67-2.94-110.18-42.41-110.18-42.41L837,161.94,1341.9,320.65l-4.49,8.19c-11.13,6.41-59.91-1.92-59.91-1.92,11,7,52.82,16.65,52.82,16.65l-4.62,21.87c-23.54,4.1-90.27-25.25-90.27-25.25,19.79,23.85,88.14,44.73,88.14,44.73l-14.52,46.64L793.79,238.92Z"/><polygon class="a48ffc7e-8020-473f-b26e-e7f850368f72" points="907.11 1322.47 880.34 1343.27 878.3 1355.72 848.25 1377.66 841.75 1396.61 707.47 1313.95 708.18 1299.31 720.99 1301.76 750.03 1291.02 750.83 1274.78 907.11 1322.47"/><polygon class="bb549e15-178e-4104-baa2-c0b91dcc4d60" points="750.83 1274.78 880.34 1343.27 912.47 1325.26 790.17 1262.63 750.83 1274.78"/><polygon class="bb549e15-178e-4104-baa2-c0b91dcc4d60" points="708.18 1299.31 849.47 1376.42 874.59 1357.77 750.03 1291.02 708.18 1299.31"/><path class="a563514d-19d8-42d6-883a-fd1523efc174" d="M912.47,1325.26l-10.14-5.19-69.46,71.07,8.88,5.47C863.36,1391.69,912.47,1325.26,912.47,1325.26Z"/><polygon class="ac0f971d-2441-4942-8d53-093f00d43b4f" points="841.75 1396.61 913.26 1378.06 912.47 1325.26 841.75 1396.61"/><path class="bdbb0087-c5ea-41cd-ace2-e1a8c30b16f1" d="M1329.06,1480.41c2.76-20.11-.85-39.91-.85-39.91,9.48,4,12,21.19,12,21.19,8.94-2.67-1.7-51.93-1.7-51.93a46.09,46.09,0,0,1,14.91,28,39.07,39.07,0,0,0,4.65,13.81l6.77,12.09c-7.73-16.66,11.15-33.49,11.15-33.49,2,6.54-11.7,21.55,7.86,41.43C1391.11,1483.15,1325.52,1506.22,1329.06,1480.41Z"/><path class="bdbb0087-c5ea-41cd-ace2-e1a8c30b16f1" d="M1013.7,1414.36c-12.94-11.48-3.9-38.54-3.9-38.54,1.64,24.13,17.35,37,17.35,37S1024.38,1423.87,1013.7,1414.36Z"/><polygon class="bec459ee-a9e9-4ada-8cfb-f91852699078" points="893.57 1500.21 1119.39 1388.54 1110.33 1079.11 989.07 978.67 826.97 1251.18 893.57 1500.21"/><polygon class="fe9fa626-9376-4fb6-ad68-533e492f8746" points="519.48 1349.61 849.2 1511.7 844.66 1219.77 515.47 1113.72 519.48 1349.61"/><path class="a48ffc7e-8020-473f-b26e-e7f850368f72" d="M501.05,1354.91l18.43-5.3,3.22-217.37H495S491.41,1326.43,501.05,1354.91Z"/><polygon class="ff1c5700-5a51-46db-9790-ae2fce201d94" points="464.38 1145.29 464.38 1334.5 501.03 1354.91 502.7 1133.29 464.38 1145.29"/><polygon class="ff1c5700-5a51-46db-9790-ae2fce201d94" points="1128.32 1397.14 1115.71 1390.67 1115.71 1105.37 1147.66 1135.66 1128.32 1397.14"/><polygon class="a48ffc7e-8020-473f-b26e-e7f850368f72" points="1153.87 1130.34 1158.46 1384.94 1128.32 1397.14 1128.32 1109.47 1153.87 1130.34"/><path class="ff1c5700-5a51-46db-9790-ae2fce201d94" d="M861,1523.17,827,1504.71v-224l39.46-13.29S880.69,1493,861,1523.17Z"/><path class="fe9fa626-9376-4fb6-ad68-533e492f8746" d="M882.92,1296.44l131.35-253.79s92.35,98.79,118.07,99.15c4.47.06,6.16-7.57,1.48-15.57-22.25-38-130.62-145.16-130.62-145.16l-23.65,13.61-69.38,133L865,1250.33Z"/><polygon class="a48ffc7e-8020-473f-b26e-e7f850368f72" points="861.04 1294.21 861.04 1523.17 899.69 1504.5 899.69 1236.56 861.04 1294.21"/><path class="fcfd2ab1-bfc2-4ce8-9ce8-2f5ba367d2b3" d="M1010.88,979.59l173.82,156.57-5.89,8.39-7.69,5s-126.65-69.23-182-154.39C989.11,995.15,987.08,966.49,1010.88,979.59Z"/><polygon class="a48ffc7e-8020-473f-b26e-e7f850368f72" points="560.72 1165.05 554.17 1165.86 560.63 1179.49 562.01 1295.9 627.69 1320.99 631.72 1329.48 637.1 1327.39 643.58 1189.87 560.72 1165.05"/><polygon class="ff1c5700-5a51-46db-9790-ae2fce201d94" points="555.77 1300.47 631.72 1329.48 637.41 1192.61 554.17 1165.86 555.77 1300.47"/><polygon class="a612ee9a-03c4-4354-8d4d-17647c5bcd01" points="596.42 1303.62 619.13 1312.31 621.14 1260.58 597.72 1253.08 596.42 1303.62"/><polygon class="a612ee9a-03c4-4354-8d4d-17647c5bcd01" points="592.56 1193.13 564.09 1183 564.59 1236.49 591.88 1244.59 592.56 1193.13"/><polygon class="a612ee9a-03c4-4354-8d4d-17647c5bcd01" points="564.64 1242.48 565.11 1291.63 591.13 1301.59 591.79 1251.18 564.64 1242.48"/><polygon class="a612ee9a-03c4-4354-8d4d-17647c5bcd01" points="621.42 1253.35 623.33 1204.07 599.2 1195.48 597.89 1246.37 621.42 1253.35"/><polygon class="ff1c5700-5a51-46db-9790-ae2fce201d94" points="590.44 1187.38 588.92 1301.7 594.16 1304.11 597.13 1188.72 590.44 1187.38"/><polygon class="ff1c5700-5a51-46db-9790-ae2fce201d94" points="629.03 1252.69 561.98 1232.8 559.2 1237.86 626.5 1259.43 629.03 1252.69"/><polygon class="a48ffc7e-8020-473f-b26e-e7f850368f72" points="689.42 1216.11 682.06 1217.02 689.32 1232.34 690.88 1363.23 764.73 1391.44 769.25 1400.99 775.3 1398.64 782.58 1244.01 689.42 1216.11"/><polygon class="ff1c5700-5a51-46db-9790-ae2fce201d94" points="683.86 1368.37 769.25 1400.99 775.65 1247.1 682.06 1217.02 683.86 1368.37"/><polygon class="a612ee9a-03c4-4354-8d4d-17647c5bcd01" points="729.57 1371.91 755.1 1381.68 757.36 1323.52 731.02 1315.08 729.57 1371.91"/><polygon class="a612ee9a-03c4-4354-8d4d-17647c5bcd01" points="725.23 1247.68 693.21 1236.29 693.77 1296.43 724.46 1305.54 725.23 1247.68"/><polygon class="a612ee9a-03c4-4354-8d4d-17647c5bcd01" points="693.84 1303.16 694.36 1358.43 723.61 1369.63 724.36 1312.95 693.84 1303.16"/><polygon class="a612ee9a-03c4-4354-8d4d-17647c5bcd01" points="757.67 1315.39 759.82 1259.98 732.68 1250.33 731.22 1307.55 757.67 1315.39"/><polygon class="ff1c5700-5a51-46db-9790-ae2fce201d94" points="722.84 1241.22 721.13 1369.75 727.03 1372.45 730.36 1242.72 722.84 1241.22"/><polygon class="ff1c5700-5a51-46db-9790-ae2fce201d94" points="766.23 1314.65 690.84 1292.28 687.72 1297.98 763.39 1322.23 766.23 1314.65"/><polygon class="bb549e15-178e-4104-baa2-c0b91dcc4d60" points="896.74 1215.56 1131.18 1125.12 1138.59 1129.94 885.93 1241.96 896.74 1215.56"/><polygon class="ff1c5700-5a51-46db-9790-ae2fce201d94" points="1005.22 1450.29 1051.28 1423.26 1052.94 1314.23 1005.07 1309.27 1005.22 1450.29"/><polygon class="ff1c5700-5a51-46db-9790-ae2fce201d94" points="974.23 1468.69 961.59 1466.57 962.94 1326.09 980.6 1334.14 974.23 1468.69"/><polygon class="a48ffc7e-8020-473f-b26e-e7f850368f72" points="888.55 1230.19 1137.69 1130.34 1136.09 1169.31 885.93 1272.03 888.55 1230.19"/><polygon class="a359452f-10d9-4a17-9896-c401f414193a" points="1014.61 1440.28 1015.08 1325.08 1017.27 1335.46 1019.19 1436.85 1014.61 1440.28"/><polygon class="a359452f-10d9-4a17-9896-c401f414193a" points="1024.48 1432.89 1022.82 1363.23 1027.77 1429.93 1024.48 1432.89"/><polygon class="a359452f-10d9-4a17-9896-c401f414193a" points="1031.67 1427.51 1029.39 1322.12 1036.26 1318.39 1037.79 1407.03 1033.67 1359.43 1031.67 1427.51"/><polygon class="a359452f-10d9-4a17-9896-c401f414193a" points="1042.49 1419.42 1040.77 1355.57 1045.78 1416.8 1042.49 1419.42"/><polygon class="a359452f-10d9-4a17-9896-c401f414193a" points="1041.59 1301.31 1043.41 1358.04 1046.4 1303.36 1041.59 1301.31"/><path class="a48ffc7e-8020-473f-b26e-e7f850368f72" d="M1009.07,1335.11,1008,1448.65s-2.65,21.29-33.78,20l1.65-158Z"/><path class="a48ffc7e-8020-473f-b26e-e7f850368f72" d="M1082.18,1291.8l-.26,115.26s.26,17.33-30.64,16.2l.85-155.83Z"/><polygon class="b05ca9a3-19cb-42cd-8eb5-e2d229f63cb0" points="951.3 1278.91 950.56 1328.33 994.29 1354.78 951.3 1278.91"/><path class="acdda082-cc51-49b0-b6b3-a470ddbeea63" d="M951.3,1278.91l43,75.87s34.23,10.23,44.32-26.9c0,0,35.69,13.15,44.17-28.78,0,0,23.7,8.21,25.16-14.2l-49.13-54.71Z"/><path class="b05ca9a3-19cb-42cd-8eb5-e2d229f63cb0" d="M1012.49,1331c9-11.06,5.15-26.46,0-38.35a1.75,1.75,0,0,1,3.16-1.49l.74,1.45a13,13,0,0,1,.81,1.79,1.76,1.76,0,0,1-3.15,1.46,1.81,1.81,0,0,1-.19-.29,30.18,30.18,0,0,1-1.38-2.94,1.75,1.75,0,0,1,3.17-1.47,52.5,52.5,0,0,0,5.25,8.32c4.12,5.22,10.23,11.13,17.38,10.43a19,19,0,0,0,7.49-3c-3.15,3.07-7.49,5.24-12,4.53-9.39-1.43-17.07-10.77-21.25-18.73l3.17-1.47c.29.7.61,1.4,1,2.07.06.13.19.37.26.49l0,0a1.76,1.76,0,0,0-2.89.08,1.69,1.69,0,0,0-.19,1.49l-.24-.51c-.22-.47-.81-1.64-1-2.12l3.16-1.5c5.4,12.38,8.35,29.91-3.16,39.74Z"/><path class="b05ca9a3-19cb-42cd-8eb5-e2d229f63cb0" d="M1014.14,1286.13c7.65-9.45,4.4-22.61,0-32.76a1.5,1.5,0,0,1,2.7-1.28l.64,1.24a11.59,11.59,0,0,1,.69,1.53,1.51,1.51,0,0,1-2.69,1.25c-.06-.08-.12-.18-.17-.26a25.81,25.81,0,0,1-1.17-2.5,1.49,1.49,0,0,1,2.7-1.26,46.52,46.52,0,0,0,4.49,7.11c3.52,4.46,8.74,9.51,14.85,8.91a16.23,16.23,0,0,0,6.4-2.52c-2.69,2.63-6.4,4.48-10.23,3.87-8-1.22-14.59-9.2-18.16-16l2.71-1.26c.25.6.52,1.2.81,1.77l.23.42v0a1.5,1.5,0,0,0-2.64,1.34c-.06-.13-.14-.32-.2-.44-.19-.41-.69-1.41-.9-1.81l2.7-1.28c4.61,10.57,7.14,25.55-2.7,34Z"/><path class="b05ca9a3-19cb-42cd-8eb5-e2d229f63cb0" d="M1045.92,1307.19c8.95-11.06,5.16-26.46-.05-38.35a1.75,1.75,0,0,1,3.16-1.5l.75,1.46a12.39,12.39,0,0,1,.8,1.79,1.77,1.77,0,0,1-3.15,1.46,2.49,2.49,0,0,1-.19-.3c-.52-1-1-1.94-1.38-2.93a1.75,1.75,0,0,1,3.17-1.48,53.79,53.79,0,0,0,5.25,8.33c4.13,5.21,10.23,11.12,17.38,10.43a18.81,18.81,0,0,0,7.49-3c-3.15,3.08-7.48,5.25-12,4.54-9.38-1.44-17.06-10.77-21.25-18.73l3.17-1.48c.29.7.62,1.4,1,2.08.07.13.19.37.26.48v0a1.76,1.76,0,0,0-2.9.08,1.72,1.72,0,0,0-.19,1.49l-.23-.52c-.23-.47-.82-1.64-1.06-2.11l3.16-1.5c5.4,12.37,8.35,29.9-3.16,39.74Z"/><path class="fcfd2ab1-bfc2-4ce8-9ce8-2f5ba367d2b3" d="M680.88,850c-50.7-25.3-126,11.17-137,35.58l-96.23,213a57.72,57.72,0,0,0-4.56,35.5c1.81,9.19,6.1,18.38,15.52,22.52,22.18,9.75,49.65-13.32,49.65-13.32s-2.4,35.73,23,46.46c22.81,9.64,50.29-15.5,50.29-15.5s.51,34.38,21.72,45.09c8,4,17.33,3,26,.09a57.73,57.73,0,0,0,20.06-11.66,56.42,56.42,0,0,0-.67,24.47c1.82,9.19,6.1,18.38,15.53,22.52,22.18,9.75,49.64-13.33,49.64-13.33s-2.39,35.74,23,46.47c22.81,9.63,50.3-15.5,50.3-15.5s.5,34.38,21.71,45.09c8,4,17.34,3,26,.09,15.09-5,32.94-13.23,39.92-27.52l142.49-299.73Z"/><path class="acdda082-cc51-49b0-b6b3-a470ddbeea63" d="M605.75,820.52a28.89,28.89,0,0,0-38.53,14.13L449.76,1086.11a57,57,0,0,0-4.49,34.94c1.79,9,6,18.08,15.28,22.16,21.83,9.59,48.86-13.11,48.86-13.11s-2.36,35.16,22.63,45.72c22.44,9.48,49.49-15.25,49.49-15.25s.5,33.83,21.37,44.37c7.82,4,17.05,2.92,25.53.08a57,57,0,0,0,19.75-11.48,55.47,55.47,0,0,0-.67,24.09c1.79,9,6,18.08,15.28,22.16,21.83,9.59,48.85-13.11,48.85-13.11s-2.36,35.16,22.63,45.72c22.45,9.48,49.5-15.25,49.5-15.25s.5,33.83,21.37,44.37c7.82,4,17.05,2.92,25.53.08a58.53,58.53,0,0,0,33.78-30L1007.59,973.1Z"/><path class="b05ca9a3-19cb-42cd-8eb5-e2d229f63cb0" d="M489.12,1082.11c25.34,2.82,44.9-17.79,57.81-37.14a3.13,3.13,0,0,1,5.31,3.32l-1.47,2.54a24.42,24.42,0,0,1-1.93,2.94,3.17,3.17,0,0,1-5.25-3.35,5.94,5.94,0,0,1,.27-.57,55.71,55.71,0,0,1,3.1-4.92,3.13,3.13,0,0,1,5.28,3.36,97.09,97.09,0,0,0-7.49,16c-3.88,11.27-6.89,26.2,1.07,36.31,3.12,3.74,7.29,6.33,11.7,8.45-7.68-1.78-15.15-6.23-18.42-13.69-6.91-15.55-.25-36.16,7.72-50.16l5.28,3.35c-.77,1.12-1.52,2.28-2.2,3.45-.13.23-.37.64-.48.86l0,0a3.14,3.14,0,0,0-5.35-3.14l.55-.85c.49-.79,1.69-2.81,2.17-3.64l5.32,3.32c-13.45,20.11-37,41.51-63,33.64Z"/><path class="b05ca9a3-19cb-42cd-8eb5-e2d229f63cb0" d="M554.17,1108.77c25.34,2.82,44.9-17.8,57.81-37.15a3.13,3.13,0,0,1,5.31,3.32l-1.47,2.54a25.36,25.36,0,0,1-1.93,3,3.17,3.17,0,0,1-5.25-3.35,6.11,6.11,0,0,1,.27-.58,51.92,51.92,0,0,1,3.09-4.91,3.14,3.14,0,0,1,5.29,3.35,96,96,0,0,0-7.49,16c-3.88,11.27-6.89,26.19,1.07,36.3,3.12,3.74,7.29,6.33,11.7,8.45-7.69-1.78-15.15-6.23-18.42-13.69-6.91-15.55-.25-36.16,7.71-50.16l5.29,3.35c-.77,1.12-1.52,2.28-2.2,3.45-.13.23-.37.64-.48.87l0,0a3.14,3.14,0,0,0-5.35-3.14l.55-.85c.49-.79,1.69-2.81,2.17-3.63l5.32,3.31c-13.45,20.11-37,41.51-63,33.65Z"/><path class="b05ca9a3-19cb-42cd-8eb5-e2d229f63cb0" d="M622.44,1136.16c25.34,2.83,44.9-17.79,57.81-37.14a3.13,3.13,0,0,1,5.31,3.32l-1.47,2.54a24.42,24.42,0,0,1-1.93,2.94,3.17,3.17,0,0,1-5.25-3.35,5.94,5.94,0,0,1,.27-.57,54.12,54.12,0,0,1,3.1-4.91,3.13,3.13,0,0,1,5.28,3.35,96,96,0,0,0-7.48,16c-3.89,11.27-6.9,26.19,1.06,36.3,3.12,3.74,7.29,6.33,11.7,8.45-7.68-1.78-15.15-6.23-18.42-13.69-6.91-15.55-.25-36.16,7.72-50.16l5.28,3.35c-.77,1.12-1.52,2.28-2.2,3.45-.13.23-.37.64-.48.87l0-.05a3.14,3.14,0,0,0-5.35-3.14l.55-.85c.49-.79,1.69-2.81,2.17-3.63l5.32,3.31c-13.45,20.11-37,41.51-63,33.64Z"/><path class="b05ca9a3-19cb-42cd-8eb5-e2d229f63cb0" d="M685.13,1161.27c25.33,2.82,44.9-17.8,57.8-37.15a3.13,3.13,0,0,1,5.31,3.32l-1.47,2.54a24.47,24.47,0,0,1-1.92,3,3.17,3.17,0,0,1-5.26-3.35c.07-.19.19-.4.27-.57a55.71,55.71,0,0,1,3.1-4.92,3.13,3.13,0,0,1,5.28,3.35,96.33,96.33,0,0,0-7.48,16c-3.88,11.27-6.89,26.2,1.07,36.3,3.11,3.74,7.29,6.33,11.7,8.45-7.69-1.77-15.15-6.22-18.43-13.69-6.9-15.55-.25-36.15,7.72-50.16l5.28,3.35c-.77,1.12-1.51,2.28-2.2,3.45-.13.23-.37.65-.48.87l0,0a3.15,3.15,0,0,0-2.91-4.29,3.08,3.08,0,0,0-2.44,1.16c.16-.25.41-.62.55-.86.5-.79,1.7-2.81,2.18-3.63l5.31,3.31c-13.45,20.11-37,41.51-63,33.65Z"/><path class="b05ca9a3-19cb-42cd-8eb5-e2d229f63cb0" d="M753.4,1188.67c25.33,2.82,44.9-17.8,57.8-37.15a3.14,3.14,0,0,1,5.32,3.32l-1.48,2.54a24.47,24.47,0,0,1-1.92,2.95,3.17,3.17,0,0,1-5.25-3.35,6,6,0,0,1,.26-.58,55.55,55.55,0,0,1,3.1-4.91,3.13,3.13,0,0,1,5.28,3.35,96.33,96.33,0,0,0-7.48,16c-3.88,11.27-6.89,26.2,1.07,36.3,3.12,3.74,7.29,6.33,11.7,8.45-7.69-1.78-15.15-6.22-18.42-13.69-6.91-15.55-.26-36.15,7.71-50.16l5.29,3.35c-.77,1.12-1.52,2.28-2.21,3.45-.13.23-.37.65-.48.87l0-.05a3.15,3.15,0,0,0-2.91-4.29,3.11,3.11,0,0,0-2.44,1.15c.16-.24.41-.61.56-.85.49-.79,1.69-2.81,2.17-3.63l5.31,3.31c-13.44,20.11-37,41.51-63,33.65Z"/><path class="b05ca9a3-19cb-42cd-8eb5-e2d229f63cb0" d="M560.93,996.43c25.34,2.73,44.83-18,57.67-37.35a3.13,3.13,0,0,1,5.32,3.3l-1.46,2.54a23.43,23.43,0,0,1-1.92,3,3.17,3.17,0,0,1-5.26-3.33,6.11,6.11,0,0,1,.27-.58,53.28,53.28,0,0,1,3.08-4.92,3.13,3.13,0,0,1,5.29,3.33,97.11,97.11,0,0,0-7.43,16c-3.84,11.29-6.8,26.22,1.2,36.3,3.13,3.73,7.31,6.31,11.73,8.41-7.69-1.75-15.17-6.17-18.47-13.62-7-15.53-.38-36.16,7.54-50.19l5.29,3.33c-.76,1.12-1.51,2.29-2.19,3.46-.13.23-.37.64-.47.87l0,0a3.15,3.15,0,0,0-2.93-4.28,3.11,3.11,0,0,0-2.44,1.16c.17-.24.41-.61.56-.85.49-.8,1.68-2.82,2.15-3.64l5.33,3.29c-13.38,20.16-36.89,41.64-62.88,33.87Z"/><path class="b05ca9a3-19cb-42cd-8eb5-e2d229f63cb0" d="M629.3,1023.59c25.34,2.73,44.83-18,57.67-37.35a3.13,3.13,0,0,1,5.32,3.3l-1.46,2.54a22.63,22.63,0,0,1-1.92,2.95,3.17,3.17,0,0,1-5.26-3.33,5.94,5.94,0,0,1,.27-.57A53.44,53.44,0,0,1,687,986.2a3.13,3.13,0,0,1,5.29,3.34,96.3,96.3,0,0,0-7.43,16c-3.84,11.28-6.8,26.22,1.2,36.3,3.13,3.73,7.31,6.3,11.73,8.41-7.69-1.75-15.17-6.17-18.47-13.63-7-15.52-.38-36.15,7.54-50.19l5.29,3.34c-.76,1.12-1.51,2.28-2.19,3.46-.13.23-.37.64-.47.86l0,0a3.16,3.16,0,0,0-2.93-4.29,3.12,3.12,0,0,0-2.44,1.17c.16-.25.41-.62.55-.86.49-.79,1.69-2.81,2.16-3.64l5.33,3.3c-13.38,20.15-36.89,41.64-62.88,33.87Z"/><path class="b05ca9a3-19cb-42cd-8eb5-e2d229f63cb0" d="M637.53,928.74c25.35,2.73,44.84-18,57.68-37.35a3.13,3.13,0,0,1,5.32,3.3l-1.46,2.54a24.47,24.47,0,0,1-1.92,2.95,3.17,3.17,0,0,1-5.26-3.33,5.86,5.86,0,0,1,.26-.57,58.1,58.1,0,0,1,3.08-4.93,3.14,3.14,0,0,1,5.3,3.34,96.3,96.3,0,0,0-7.43,16c-3.84,11.28-6.8,26.22,1.2,36.3,3.13,3.73,7.31,6.3,11.73,8.4-7.7-1.74-15.18-6.17-18.47-13.62-7-15.52-.38-36.15,7.53-50.19l5.3,3.34c-.77,1.12-1.51,2.28-2.19,3.46-.13.23-.37.64-.48.86l0,0a3.16,3.16,0,0,0-2.92-4.29,3.12,3.12,0,0,0-2.44,1.17l.55-.86c.49-.79,1.68-2.82,2.16-3.64l5.33,3.3C687,915,663.53,936.51,637.53,928.74Z"/><path class="b05ca9a3-19cb-42cd-8eb5-e2d229f63cb0" d="M797.4,1082.74c25.34,2.73,44.84-18,57.67-37.35a3.14,3.14,0,0,1,5.33,3.3l-1.47,2.54a23.76,23.76,0,0,1-1.91,3,3.17,3.17,0,0,1-5.27-3.33c.07-.18.19-.4.27-.57a54.25,54.25,0,0,1,3.08-4.93,3.13,3.13,0,0,1,5.29,3.33,96.63,96.63,0,0,0-7.42,16c-3.84,11.29-6.8,26.23,1.19,36.3,3.13,3.74,7.32,6.31,11.74,8.41-7.7-1.75-15.18-6.17-18.48-13.62-7-15.53-.38-36.16,7.54-50.19l5.3,3.33c-.77,1.13-1.51,2.29-2.19,3.46-.13.23-.37.65-.48.87l0,0a3.14,3.14,0,0,0-5.36-3.12l.55-.85c.49-.8,1.68-2.82,2.16-3.64l5.33,3.29c-13.38,20.16-36.9,41.65-62.89,33.87Z"/><path class="b05ca9a3-19cb-42cd-8eb5-e2d229f63cb0" d="M778.53,982.08c25.34,2.73,44.84-18,57.67-37.35a3.14,3.14,0,0,1,5.33,3.3l-1.47,2.54a23.76,23.76,0,0,1-1.91,3,3.17,3.17,0,0,1-5.27-3.33,5.94,5.94,0,0,1,.27-.57,52.13,52.13,0,0,1,3.08-4.93,3.13,3.13,0,0,1,5.29,3.33,96.63,96.63,0,0,0-7.42,16c-3.84,11.29-6.8,26.23,1.19,36.3,3.13,3.74,7.32,6.31,11.73,8.41-7.69-1.75-15.17-6.17-18.47-13.62-7-15.53-.38-36.16,7.54-50.19l5.3,3.33c-.77,1.13-1.51,2.29-2.19,3.46-.13.23-.37.65-.48.87l0-.05a3.15,3.15,0,0,0-2.93-4.28,3.11,3.11,0,0,0-2.43,1.16l.55-.85c.49-.8,1.68-2.82,2.16-3.64l5.33,3.29c-13.38,20.16-36.9,41.65-62.89,33.87Z"/><path class="b05ca9a3-19cb-42cd-8eb5-e2d229f63cb0" d="M1016.43,978.5l170.85,153.89-8.51,12.12s-140-91.29-181.47-158.2c0,0-6.19-19.11,9.92-13.38A27.86,27.86,0,0,1,1016.43,978.5Z"/><path class="a359452f-10d9-4a17-9896-c401f414193a" d="M871.43,1518.15l-.8-3.32a90.43,90.43,0,0,1-1.22-36.81l3-17.2.82,23.49a85.42,85.42,0,0,0,2.82,18.93l3,11.24Z"/><path class="a359452f-10d9-4a17-9896-c401f414193a" d="M888.78,1509.77v-5.39q0-7.91-.63-15.79l-.92-11.39,4.26,14.64a24,24,0,0,1,.87,4.59l1,11.12Z"/><path class="a359452f-10d9-4a17-9896-c401f414193a" d="M881.57,1513.23v-3.86c0-3.78-.14-7.56-.44-11.32l-.66-8.16,3,10.49a17.67,17.67,0,0,1,.62,3.29l.71,8Z"/><path class="b05ca9a3-19cb-42cd-8eb5-e2d229f63cb0" d="M567.6,833.85l424.82,171.22,12.77-25.27L583.27,814.5l-5.56,4.73a29.49,29.49,0,0,0-6.89,8.57Z"/><path class="a359452f-10d9-4a17-9896-c401f414193a" d="M1137.69,1393.34s1.61-5.29.79-16.59-.79-9.66-.79-9.66,4.6,19.23,4.29,24.52Z"/><path class="a359452f-10d9-4a17-9896-c401f414193a" d="M1145.88,1390s.21-31.38-1.67-37.44c0,0,5.8,26.21,5.85,35.75Z"/><polygon class="a359452f-10d9-4a17-9896-c401f414193a" points="978.18 871.36 1030.25 901.84 999.93 990.38 954.33 961.21 870.95 877.49 978.18 871.36"/><polygon class="a359452f-10d9-4a17-9896-c401f414193a" points="566.82 816.42 594.39 762.66 680.28 806.9 566.82 816.42"/><path class="bb549e15-178e-4104-baa2-c0b91dcc4d60" d="M565.25,817.2l389.08,144,10.58-37.77S911.22,907.09,895.39,888c0,0,52.77,26.43,71.08,22.94l3-21s-23.33-17.69-32-23.23c0,0,28.69,16.54,37.28,11.28l3.37-6.65L597.71,754.7l-11.09,23.11s41.34,33.79,66.1,35.91c0,0-51.67-9.16-72.83-26.85l-6.22,11.85s20.39,18.44,33.81,19.06c0,0-29-6.69-35.71-10.61Z"/><path class="a48ffc7e-8020-473f-b26e-e7f850368f72" d="M536,1323.85s-12.68,28.9-2.73,55.2a18.19,18.19,0,0,0,8.52,9.68c8.12,4.26,23.55,9.36,38.17-2.33a18.8,18.8,0,0,0,6-8.52c2.94-8.48,6.75-27.23-3.62-52.86l-14.83,9.11-15.44,1-10.64-3.86-4.58-7.38Z"/><path class="ff1c5700-5a51-46db-9790-ae2fce201d94" d="M555.81,1335.28s-.16,51,1.31,56.86l1.42-56.86Z"/><path class="ff1c5700-5a51-46db-9790-ae2fce201d94" d="M572.4,1333.15s5.17,22.89,1.73,55.55c0,0,7.6-17.65.56-56.54Z"/><path class="ff1c5700-5a51-46db-9790-ae2fce201d94" d="M542.64,1331.75s-5.84,23.78-2.41,55.66c0,0-7.13-19.34-.08-57.3Z"/><ellipse class="ff1c5700-5a51-46db-9790-ae2fce201d94" cx="559.15" cy="1326.19" rx="23.76" ry="9.96"/><ellipse class="fc916e86-62c8-4732-9135-db5ac15fed6e" cx="559.15" cy="1324.99" rx="16.89" ry="5.98"/><path class="fc59087b-b689-481a-a129-0448e47d3a25" d="M583.74,1328s2.68,7.27-2.61,10.11-10.22,4.82-23,4.41c-12.27-.4-22.95-5.42-24.64-9-.89-1.85,0-4,1-5.6a2.11,2.11,0,0,1,.16-.61,4.25,4.25,0,0,0,.21-.49,2.86,2.86,0,0,1,.1-.42c-4.1,3-14.19,12.3,3.66,21.41,17.16,8.75,37.53,3.52,44.71-.44,5.15-2.83,5.56-5,6.32-8.07C590.45,1336.08,589.75,1331.87,583.74,1328Z"/><g class="ba9be2b4-3005-42d8-91a8-4d6d0dde792e"><path class="b25a6c96-0113-479c-b533-5b88b4926704" d="M583.64,1327.21c-2.87-2-40.6-2.48-46.53-2.54a.47.47,0,0,1,.39.42.46.46,0,0,1-.48.42h-.11l0,.09v.11a.43.43,0,0,1-.06.22l-.08.08a.24.24,0,0,1-.15.09.41.41,0,0,1-.19,0,.39.39,0,0,1-.18,0h0a.42.42,0,0,1-.14.29l-.08.07v2.77c0,.53-.89.55-.95.06,0,.1-.07.21-.11.31a.51.51,0,0,1-.59.3.44.44,0,0,1-.34-.53c.17-.43.89-3,1-3.13l.06-.59c-2.21,2-6.16,6.54-.76,10.86,7.12,5.69,16.79,7.62,24,8s20-.86,25.38-5.57C587.31,1335.85,586.76,1329.4,583.64,1327.21Z"/></g><path class="fc59087b-b689-481a-a129-0448e47d3a25" d="M529.47,1357.69s-13.17,23.62,29.07,25.1c43.35,1.52,30.58-28.1,30.58-28.1s.49,20.16-29.83,18.45S529.47,1357.69,529.47,1357.69Z"/><g class="b10f1cfc-89b3-42a7-845e-cf5deb29754a"><path class="b25a6c96-0113-479c-b533-5b88b4926704" d="M529.47,1350.39s-10.2,22.2,29.07,23.71c40.56,1.56,30.58-26.55,30.58-26.55s.49,19-29.83,17.43S529.47,1350.39,529.47,1350.39Z"/></g><g class="b70a73b7-2ed0-4142-b4b2-db63e6760720"><path class="a48ffc7e-8020-473f-b26e-e7f850368f72" d="M575.85,1328.48c-2.29,2-8.54,3.49-16.53,3.49-7.66,0-14.29-1.13-16.89-3.41-1.8-1.58,3.49-6.71,16.86-6.64C573.76,1322,577.71,1326.87,575.85,1328.48Z"/></g><polygon class="ac0f971d-2441-4942-8d53-093f00d43b4f" points="1159.1 1435.58 1159.1 1473.99 868.08 1603.72 868.08 1562.76 1159.1 1435.58"/><path class="bb549e15-178e-4104-baa2-c0b91dcc4d60" d="M990.73,1104s42.53-33.47,33.15-40-12.79-2.07-12.79-2.07l-29,32.58Z"/><path class="ff1c5700-5a51-46db-9790-ae2fce201d94" d="M1009.91,1156.38c-7.32.16-17.25-4.51-17.25-4.51L982,1094.51l10.22,4.17S1017.23,1156.23,1009.91,1156.38Z"/><path class="a48ffc7e-8020-473f-b26e-e7f850368f72" d="M992.94,1094.45l22.3-29.08a6.35,6.35,0,0,1,8.64-1.39l27.31,18.86a8.89,8.89,0,0,1,3.86,7.4l-.31,52a6.76,6.76,0,0,1-5.5,6.6l-39.32,7.48a6.76,6.76,0,0,1-7.88-5.2l-10.75-49.37A9,9,0,0,1,992.94,1094.45Z"/><path class="a612ee9a-03c4-4354-8d4d-17647c5bcd01" d="M1001.06,1100.37l16.56-20.61a4.89,4.89,0,0,1,6.41-1l20.19,13.3a6.17,6.17,0,0,1,2.84,5.23l-.32,36.78a4.88,4.88,0,0,1-4.08,4.68l-29.14,5.38a5,5,0,0,1-5.83-3.67l-7.87-34.9A6.19,6.19,0,0,1,1001.06,1100.37Z"/><polygon class="a48ffc7e-8020-473f-b26e-e7f850368f72" points="1022.95 1073.43 1030.9 1145.5 1026.38 1147.07 1019.12 1074.99 1022.95 1073.43"/><polygon class="a48ffc7e-8020-473f-b26e-e7f850368f72" points="995.97 1112.48 1051.17 1104.23 1052.43 1108.74 997.21 1116.31 995.97 1112.48"/><path class="a48ffc7e-8020-473f-b26e-e7f850368f72" d="M600.16,1323.65S581,1367.44,596,1407.27a27.5,27.5,0,0,0,12.92,14.67c12.31,6.45,35.68,14.19,57.82-3.53a28.34,28.34,0,0,0,9-12.9c4.45-12.85,10.22-41.25-5.49-80.08l-22.47,13.8-23.39,1.46-16.11-5.85-6.94-11.19Z"/><path class="ff1c5700-5a51-46db-9790-ae2fce201d94" d="M630.15,1341s-.25,77.27,2,86.14l2.15-86.14Z"/><path class="ff1c5700-5a51-46db-9790-ae2fce201d94" d="M655.29,1337.73s7.83,34.69,2.62,84.17c0,0,11.51-26.74.84-85.66Z"/><path class="ff1c5700-5a51-46db-9790-ae2fce201d94" d="M610.2,1335.62s-8.85,36-3.65,84.33c0,0-10.8-29.3-.13-86.82Z"/><ellipse class="ff1c5700-5a51-46db-9790-ae2fce201d94" cx="635.21" cy="1327.19" rx="35.99" ry="15.08"/><ellipse class="fc916e86-62c8-4732-9135-db5ac15fed6e" cx="635.21" cy="1325.39" rx="25.59" ry="9.06"/><path class="fc59087b-b689-481a-a129-0448e47d3a25" d="M672.46,1329.87s4.07,11-4,15.32-15.48,7.31-34.8,6.68c-18.58-.59-34.76-8.21-37.33-13.57-1.34-2.81-.07-6,1.45-8.49a3.33,3.33,0,0,1,.26-.92,5.21,5.21,0,0,0,.3-.74c.06-.22.09-.43.16-.63-6.21,4.53-21.5,18.64,5.55,32.43,26,13.26,56.85,5.34,67.73-.66,7.8-4.3,8.42-7.61,9.58-12.23C682.63,1342.18,681.57,1335.81,672.46,1329.87Z"/><g class="eb00690d-10bf-4a89-97f5-4495e4740968"><path class="b25a6c96-0113-479c-b533-5b88b4926704" d="M672.32,1328.75c-4.36-3.06-61.52-3.76-70.49-3.85a.69.69,0,0,1,.58.63.71.71,0,0,1-.73.64h-.17a.38.38,0,0,1,.06.13l0,.18a.55.55,0,0,1-.1.32l-.11.13a.56.56,0,0,1-.24.13.64.64,0,0,1-.28.06.67.67,0,0,1-.28-.06h0a.61.61,0,0,1-.21.43l-.11.11v4.2c0,.8-1.35.83-1.45.09,0,.15-.11.31-.17.47a.77.77,0,0,1-.89.45.65.65,0,0,1-.51-.8c.25-.65,1.35-4.51,1.46-4.75s.1-.89.1-.89c-3.35,3-9.33,9.91-1.15,16.46,10.77,8.62,25.44,11.54,36.38,12.2s30.3-1.32,38.44-8.44C677.87,1341.84,677.05,1332.06,672.32,1328.75Z"/></g><path class="fc59087b-b689-481a-a129-0448e47d3a25" d="M590.25,1374.92s-20,35.78,44,38c65.67,2.3,46.33-42.56,46.33-42.56s.74,30.54-45.19,27.94S590.25,1374.92,590.25,1374.92Z"/><g class="a71ebf9b-d965-4fe1-8453-2f641c4b7404"><path class="b25a6c96-0113-479c-b533-5b88b4926704" d="M590.25,1363.85s-15.46,33.65,44,35.93c61.45,2.36,46.33-40.22,46.33-40.22s.74,28.86-45.19,26.41S590.25,1363.85,590.25,1363.85Z"/></g><g class="add42c96-acaa-40a3-9c4a-cbf49db29547"><path class="a48ffc7e-8020-473f-b26e-e7f850368f72" d="M660.52,1330.67c-3.47,3-12.94,5.29-25,5.29-11.6,0-21.65-1.72-25.59-5.18-2.73-2.39,5.29-10.16,25.55-10.06C657.34,1320.83,663.34,1328.23,660.52,1330.67Z"/></g><path class="a48ffc7e-8020-473f-b26e-e7f850368f72" d="M668.66,1387.29s-14.46,33-3.12,62.93a20.74,20.74,0,0,0,9.72,11c9.26,4.85,26.85,10.67,43.51-2.66a21.38,21.38,0,0,0,6.81-9.71c3.35-9.67,7.69-31.05-4.13-60.26L704.54,1399l-17.6,1.1-12.13-4.41-5.22-8.41Z"/><path class="ff1c5700-5a51-46db-9790-ae2fce201d94" d="M691.23,1400.32s-.19,58.15,1.49,64.82l1.62-64.82Z"/><path class="ff1c5700-5a51-46db-9790-ae2fce201d94" d="M710.14,1397.88s5.9,26.11,2,63.34c0,0,8.66-20.12.63-64.46Z"/><path class="ff1c5700-5a51-46db-9790-ae2fce201d94" d="M676.21,1396.29s-6.66,27.12-2.74,63.46c0,0-8.13-22-.1-65.33Z"/><ellipse class="ff1c5700-5a51-46db-9790-ae2fce201d94" cx="695.04" cy="1389.95" rx="27.09" ry="11.35"/><ellipse class="fc916e86-62c8-4732-9135-db5ac15fed6e" cx="695.04" cy="1388.59" rx="19.26" ry="6.82"/><path class="fc59087b-b689-481a-a129-0448e47d3a25" d="M723.07,1392s3.06,8.29-3,11.52-11.64,5.5-26.19,5c-14-.45-26.16-6.18-28.09-10.22-1-2.11,0-4.55,1.1-6.39a2.45,2.45,0,0,1,.19-.69,3.88,3.88,0,0,0,.23-.56,4.21,4.21,0,0,1,.12-.48c-4.68,3.42-16.18,14,4.17,24.41,19.57,10,42.78,4,51-.49,5.87-3.24,6.34-5.73,7.21-9.21C730.72,1401.23,729.93,1396.44,723.07,1392Z"/><g class="ba825a3e-d04d-44ef-9953-fa4b35fad057"><path class="b25a6c96-0113-479c-b533-5b88b4926704" d="M723,1391.12c-3.28-2.3-46.29-2.83-53.05-2.9a.48.48,0,1,1-.11,1h-.13a.47.47,0,0,1,.05.1l0,.13a.45.45,0,0,1-.07.25l-.09.09a.42.42,0,0,1-.17.1.54.54,0,0,1-.22.05.54.54,0,0,1-.21-.05h0a.49.49,0,0,1-.16.33l-.08.08v3.16c0,.6-1,.62-1.09.06,0,.12-.08.24-.13.36a.57.57,0,0,1-.67.34.49.49,0,0,1-.39-.6c.19-.49,1-3.39,1.11-3.57l.07-.67c-2.52,2.23-7,7.45-.87,12.38,8.11,6.49,19.15,8.69,27.38,9.18s22.8-1,28.93-6.35C727.14,1401,726.52,1393.62,723,1391.12Z"/></g><path class="fc59087b-b689-481a-a129-0448e47d3a25" d="M661.2,1425.87s-15,26.93,33.14,28.61c49.42,1.73,34.87-32,34.87-32s.56,23-34,21S661.2,1425.87,661.2,1425.87Z"/><g class="b7e4a8b2-4544-4bd9-aab6-ffaedc5357f9"><path class="b25a6c96-0113-479c-b533-5b88b4926704" d="M661.2,1417.54s-11.63,25.32,33.14,27c46.25,1.77,34.87-30.27,34.87-30.27s.56,21.71-34,19.87S661.2,1417.54,661.2,1417.54Z"/></g><g class="baf48ab3-28b8-41a1-ac81-8aa857f20c9a"><path class="a48ffc7e-8020-473f-b26e-e7f850368f72" d="M714.08,1392.57c-2.61,2.26-9.73,4-18.85,4-8.73,0-16.29-1.29-19.26-3.9-2.05-1.8,4-7.64,19.23-7.57C711.69,1385.17,716.2,1390.73,714.08,1392.57Z"/></g><polygon class="a48ffc7e-8020-473f-b26e-e7f850368f72" points="1179.85 1459.45 1179.25 1476.71 1209.03 1490.66 1222.8 1489.19 1222.26 1504.76 1072.82 1580.31 1067.6 1559.68 1037.76 1533.8 1036.71 1520.44 1010.22 1496.04 1179.85 1459.45"/><polygon class="bb549e15-178e-4104-baa2-c0b91dcc4d60" points="1139.29 1443.09 1004.3 1498.52 1036.71 1520.44 1179.85 1459.45 1139.29 1443.09"/><polygon class="bb549e15-178e-4104-baa2-c0b91dcc4d60" points="1179.25 1476.71 1041.49 1536.29 1066.43 1558.26 1222.8 1489.19 1179.25 1476.71"/><path class="a563514d-19d8-42d6-883a-fd1523efc174" d="M1072.81,1580.31l9.88-5-67.21-81.39-11.18,4.59S1050.37,1573.19,1072.81,1580.31Z"/><polygon class="ac0f971d-2441-4942-8d53-093f00d43b4f" points="1004.3 1498.52 1004.3 1543 1072.82 1580.31 1004.3 1498.52"/><path class="a48ffc7e-8020-473f-b26e-e7f850368f72" d="M1379,1568.05s27,61.63,5.84,117.69a38.8,38.8,0,0,1-18.18,20.65c-17.32,9.08-50.22,20-81.38-5a40,40,0,0,1-12.74-18.16c-6.27-18.08-14.38-58.06,7.73-112.71l31.62,19.42,32.92,2,22.68-8.23,9.77-15.74Z"/><path class="ff1c5700-5a51-46db-9790-ae2fce201d94" d="M1336.78,1592.43s.35,108.74-2.79,121.23l-3-121.23Z"/><path class="ff1c5700-5a51-46db-9790-ae2fce201d94" d="M1301.4,1587.87s-11,48.82-3.7,118.46c0,0-16.19-37.64-1.17-120.57Z"/><path class="ff1c5700-5a51-46db-9790-ae2fce201d94" d="M1364.86,1584.89s12.46,50.72,5.13,118.69c0,0,15.2-41.24.19-122.19Z"/><ellipse class="ff1c5700-5a51-46db-9790-ae2fce201d94" cx="1329.66" cy="1573.03" rx="50.66" ry="21.23"/><ellipse class="fc916e86-62c8-4732-9135-db5ac15fed6e" cx="1329.66" cy="1570.49" rx="36.02" ry="12.75"/><path class="fc59087b-b689-481a-a129-0448e47d3a25" d="M1277.22,1576.81s-5.71,15.51,5.58,21.55,21.78,10.28,49,9.41c26.16-.84,48.93-11.56,52.54-19.1,1.89-4,.09-8.51-2-12a4.93,4.93,0,0,0-.36-1.3,6.7,6.7,0,0,1-.43-1c-.08-.31-.12-.61-.22-.89,8.74,6.38,30.26,26.23-7.81,45.64-36.6,18.67-80,7.52-95.33-.92-11-6.06-11.86-10.71-13.48-17.22C1262.92,1594.12,1264.4,1585.16,1277.22,1576.81Z"/><g class="eeeb7af8-2321-4890-9e3a-a2a0c1503c65"><path class="b25a6c96-0113-479c-b533-5b88b4926704" d="M1277.43,1575.22c6.13-4.31,86.58-5.29,99.21-5.42a1,1,0,0,0-.81.88,1,1,0,0,0,1,.91h.24a.66.66,0,0,0-.09.19l0,.24a.86.86,0,0,0,.14.46l.16.18a.92.92,0,0,0,.33.19.9.9,0,0,0,.4.08.85.85,0,0,0,.39-.08l0,0a.86.86,0,0,0,.29.6l.16.15v5.92c0,1.13,1.9,1.16,2,.12q.11.33.24.66a1.07,1.07,0,0,0,1.26.64.91.91,0,0,0,.71-1.12c-.35-.92-1.9-6.35-2.06-6.69l-.14-1.25c4.72,4.17,13.14,14,1.62,23.16-15.16,12.14-35.8,16.25-51.2,17.18s-42.64-1.85-54.1-11.88C1269.62,1593.64,1270.78,1579.89,1277.43,1575.22Z"/></g><path class="fc59087b-b689-481a-a129-0448e47d3a25" d="M1392.94,1640.21s28.09,50.36-62,53.51c-92.42,3.24-65.2-59.91-65.2-59.91s-1,43,63.6,39.33S1392.94,1640.21,1392.94,1640.21Z"/><g class="e2873767-721b-41dd-aee8-fc80eaac31c7"><path class="b25a6c96-0113-479c-b533-5b88b4926704" d="M1392.94,1624.63s21.75,47.35-62,50.57c-86.49,3.32-65.2-56.62-65.2-56.62s-1,40.62,63.6,37.17S1392.94,1624.63,1392.94,1624.63Z"/></g><g class="ad2ad904-76fb-4a8d-9b87-f5c4ab3d935d"><path class="a48ffc7e-8020-473f-b26e-e7f850368f72" d="M1294,1577.93c4.88,4.22,18.21,7.44,35.25,7.44,16.33,0,30.47-2.41,36-7.29,3.84-3.37-7.44-14.3-36-14.15C1298.51,1564.08,1290.07,1574.49,1294,1577.93Z"/></g><path class="a48ffc7e-8020-473f-b26e-e7f850368f72" d="M1186.89,1626.79s-21.88,49.89-4.72,95.27a31.38,31.38,0,0,0,14.71,16.71c14,7.34,40.65,16.16,65.87-4a32.34,32.34,0,0,0,10.31-14.7c5.08-14.64,11.64-47-6.25-91.23l-25.6,15.72-26.64,1.66-18.36-6.66-7.9-12.75Z"/><path class="ff1c5700-5a51-46db-9790-ae2fce201d94" d="M1221.06,1646.53s-.28,88,2.26,98.12l2.45-98.12Z"/><path class="ff1c5700-5a51-46db-9790-ae2fce201d94" d="M1249.69,1642.84s8.93,39.51,3,95.88c0,0,13.1-30.46,1-97.59Z"/><path class="ff1c5700-5a51-46db-9790-ae2fce201d94" d="M1198.33,1640.43s-10.08,41-4.15,96.06c0,0-12.31-33.38-.16-98.9Z"/><ellipse class="ff1c5700-5a51-46db-9790-ae2fce201d94" cx="1226.82" cy="1630.83" rx="41" ry="17.18"/><ellipse class="fc916e86-62c8-4732-9135-db5ac15fed6e" cx="1226.82" cy="1628.77" rx="29.16" ry="10.32"/><path class="fc59087b-b689-481a-a129-0448e47d3a25" d="M1269.26,1633.88s4.63,12.56-4.51,17.45-17.63,8.32-39.64,7.62c-21.17-.69-39.6-9.36-42.52-15.47-1.53-3.2-.08-6.88,1.65-9.67a3.66,3.66,0,0,1,.29-1,5.53,5.53,0,0,0,.35-.84,5.41,5.41,0,0,1,.18-.72c-7.08,5.16-24.49,21.23,6.32,36.94,29.62,15.11,64.76,6.09,77.16-.75,8.88-4.9,9.6-8.67,10.91-13.93C1280.84,1647.9,1279.64,1640.64,1269.26,1633.88Z"/><g class="bb6e0726-0723-4468-990e-92c87a87ff46"><path class="b25a6c96-0113-479c-b533-5b88b4926704" d="M1269.09,1632.6c-5-3.49-70.07-4.29-80.3-4.39a.78.78,0,0,1,.66.72.79.79,0,0,1-.83.73h-.19a.46.46,0,0,1,.07.16l0,.19a.62.62,0,0,1-.11.37l-.13.15a.59.59,0,0,1-.27.15.56.56,0,0,1-.32.06.54.54,0,0,1-.31-.06h0a.66.66,0,0,1-.24.48l-.13.13v4.79c0,.91-1.54.94-1.65.09-.06.18-.12.36-.19.54a.87.87,0,0,1-1,.51.74.74,0,0,1-.58-.9c.29-.75,1.54-5.14,1.67-5.41s.11-1,.11-1c-3.82,3.38-10.63,11.29-1.31,18.75,12.27,9.82,29,13.15,41.44,13.9s34.52-1.5,43.8-9.62C1275.42,1647.51,1274.48,1636.38,1269.09,1632.6Z"/></g><path class="fc59087b-b689-481a-a129-0448e47d3a25" d="M1175.6,1685.2s-22.73,40.76,50.17,43.32c74.81,2.61,52.78-48.5,52.78-48.5s.85,34.79-51.48,31.84S1175.6,1685.2,1175.6,1685.2Z"/><g class="ecae5f53-9c84-4855-9168-307ddff896c9"><path class="b25a6c96-0113-479c-b533-5b88b4926704" d="M1175.6,1672.59s-17.6,38.33,50.17,40.93c70,2.69,52.78-45.82,52.78-45.82s.85,32.87-51.48,30.08S1175.6,1672.59,1175.6,1672.59Z"/></g><g class="bf2681b4-3205-408f-8816-bd1620367214"><path class="a48ffc7e-8020-473f-b26e-e7f850368f72" d="M1255.65,1634.79c-4,3.42-14.73,6-28.53,6-13.22,0-24.66-2-29.16-5.89-3.1-2.73,6-11.58,29.11-11.46C1252,1623.58,1258.86,1632,1255.65,1634.79Z"/></g><path class="bdbb0087-c5ea-41cd-ace2-e1a8c30b16f1" d="M405.24,1221.7s-4.36-39.91-13.45-44.7c0,0,.81,32.6-5,36.36s-15.81-28-15.81-28-8.45,23.4.21,33.19S405.24,1221.7,405.24,1221.7Z"/><path class="bdbb0087-c5ea-41cd-ace2-e1a8c30b16f1" d="M1315.12,1731.61s4.36-39.91,13.45-44.7c0,0-.81,32.6,5,36.36s15.82-28,15.82-28,8.44,23.4-.22,33.19S1315.12,1731.61,1315.12,1731.61Z"/><path class="bdbb0087-c5ea-41cd-ace2-e1a8c30b16f1" d="M393.62,1216.08a42.69,42.69,0,0,0,19.71-24.75s1.94,22-9.86,28.28C393.74,1224.81,393.62,1216.08,393.62,1216.08Z"/></svg>