<svg id="Layer_1" data-name="Layer 1" xmlns="http://www.w3.org/2000/svg" xmlns:xlink="http://www.w3.org/1999/xlink" viewBox="0 0 2000 2000"><defs><style>.cls-1{fill:none;}.cls-2{fill:#aed76a;}.cls-3{clip-path:url(#clip-path);}.cls-4{fill:#fecfae;}.cls-5{fill:#633e2a;}.cls-6{fill:#b57950;}.cls-7{fill:#7c5135;}.cls-8{fill:#d79160;}.cls-9{fill:#c6b6ac;}.cls-10{fill:#e2dbd7;}.cls-11{fill:#915f3d;}.cls-12{fill:#8a7b7d;}.cls-13{fill:#aa7149;}.cls-14{fill:#686d22;}.cls-15{fill:#889b2d;}.cls-16{fill:#798428;}.cls-17{fill:#332525;}.cls-18{clip-path:url(#clip-path-2);}.cls-19{fill:#5b3b24;}.cls-20{clip-path:url(#clip-path-3);}.cls-21{fill:#af754e;}.cls-22{fill:#c4c2c2;}.cls-23{fill:#999294;}.cls-24{fill:#7c6e71;}.cls-25{fill:#a89ea0;}.cls-26{fill:#afd86a;}</style><clipPath id="clip-path"><path class="cls-1" d="M1191.11,1069.82c74.62-6.87,151,4.62,212.93,33.69,87.34,41,176.63,116.1,146.5,213.28-37.43,120.71-161.65,195.3-481.2,204.4-302.5,8.61-279.58-46.83-382.22-41.22-77.84,4.25-433.15,14.82-430-231.42,1.57-123.85,130.65-251.11,551.61-245.25C986.37,1005.78,1145.6,1074,1191.11,1069.82Z"/></clipPath><clipPath id="clip-path-2"><path class="cls-1" d="M895.12,980.48l-245.88-105s33.41-103.08,131.11-67.72C905.05,852.9,895.12,980.48,895.12,980.48Z"/></clipPath><clipPath id="clip-path-3"><path class="cls-1" d="M1152.56,451.3,1381.83,938a90.33,90.33,0,0,1,7.73,55.34c-2.68,14.38-9.21,28.79-23.86,35.41-34.45,15.6-77.72-19.94-77.72-19.94s4.36,55.73-35.1,72.91c-35.44,15.44-78.77-23.32-78.77-23.32s-.2,53.67-33.12,70.75c-12.35,6.41-27,4.93-40.5.58-23.64-7.61-43-24.84-54.12-47l-232.25-471Z"/></clipPath></defs><path class="cls-2" d="M1191.11,1069.82c74.62-6.87,151,4.62,212.93,33.69,87.34,41,176.63,116.1,146.5,213.28-37.43,120.71-161.65,195.3-481.2,204.4-302.5,8.61-279.58-46.83-382.22-41.22-77.84,4.25-433.15,14.82-430-231.42,1.57-123.85,130.65-251.11,551.61-245.25C986.37,1005.78,1145.6,1074,1191.11,1069.82Z"/><g class="cls-3"><path class="cls-4" d="M769.88,1233.33s-24.83,93.29-97.84,86.52-351.58,62.47-420.54-168.58v260.54s320.47,93.3,440.82,0S828.2,1260.9,828.2,1260.9,817.7,1220.06,769.88,1233.33Z"/></g><path class="cls-5" d="M547.58,974.83s37.77-27,42.95-21-34.81,26.9-34.81,26.9l-8.78.17Z"/><path class="cls-5" d="M551.76,1012.46s37.64-19.83,43-11.22S553,1025.91,553,1025.91Z"/><path class="cls-6" d="M553.88,1017.27l40.85-16s5.51,12.67-2.08,19.35S551.76,1037,551.76,1037Z"/><path class="cls-6" d="M551.29,992.85l39.51-15.52s5.05-18.8-.27-23.54l-44.46,25.59L550,992.71Z"/><path class="cls-7" d="M460.61,1140.62s-53.37-3.77-62.12-32.81-21.41-91.58,9.45-140.72l27.53,16.68,1-9.26-20-17.12S424.82,942,431,940.21l23,18.21,5.25-5L437.7,934.75s54.55-43.48,101.5,22.39S460.61,1140.62,460.61,1140.62Z"/><path class="cls-8" d="M468.79,983.87l-3.47-29.79s15.62-18.86,28.37-16.11,19.1,13.43,19.1,13.43l-.27,12.84,12.64-19.57s29.81,17.07,31,58.27-3,92.92-32.68,110.83-49.76,31.86-62.82,26.85l9.26-24.26-18.39,21.34s-12.54-4.67-11.46-9.55l32.42-38.43-41.13,31.67s-9.61-32.11-10.84-43.9l20.35-8.64s-22.93,4.2-22.88,1.16-15.67-75.22,38.6-109.1Z"/><polygon class="cls-9" points="913.8 1299.45 701.19 1201.6 677.98 961.39 909.94 1042.23 935.39 1130.36 924.13 1276.67 913.8 1299.45"/><polygon class="cls-8" points="831.8 1262.6 769.88 1233.34 767.2 1128.21 831.57 1121.55 831.8 1262.6"/><polygon class="cls-10" points="1185.1 1226.76 1016.09 1310.39 1017.34 1052.43 1185.15 1025.8 1185.1 1226.76"/><polygon class="cls-11" points="818.5 1256.32 818.75 1146.67 815.39 1156.57 811.68 1253.09 818.5 1256.32"/><polygon class="cls-11" points="803.8 1249.37 806.86 1183.04 798.9 1246.57 803.8 1249.37"/><polygon class="cls-11" points="793.09 1244.3 797.37 1143.97 787.11 1140.48 784.11 1224.86 790.66 1179.52 793.09 1244.3"/><polygon class="cls-11" points="776.98 1236.69 780.07 1175.9 772.08 1234.22 776.98 1236.69"/><polygon class="cls-11" points="779.29 1124.26 776.1 1178.28 772.07 1126.26 779.29 1124.26"/><polygon class="cls-12" points="816.93 799.25 794.3 615.95 689.7 687.49 681.17 776.2 816.93 799.25"/><path class="cls-7" d="M826.75,1164.16l1.45,96.74s8.2,24.82,51.12,22.79L877,1131.23Z"/><path class="cls-7" d="M727.17,1113.38l1.52,100.87s9.64,24.94,41.19,19.08l-2.29-152.73Z"/><polygon class="cls-13" points="1214.39 1240.27 1275.12 1206.56 1271.64 974.88 1193.74 976.05 1214.39 1240.27"/><polygon class="cls-7" points="1210.6 987.68 1214.39 1240.27 1184.68 1226.77 1180.77 965.91 1210.6 987.68"/><path class="cls-14" d="M1152.76,464.7,1382,951.38a90.29,90.29,0,0,1,7.73,55.35c-2.68,14.37-9.21,28.78-23.86,35.41-34.45,15.6-77.71-20-77.71-20s4.35,55.74-35.11,72.92c-35.43,15.43-78.77-23.33-78.77-23.33s-.2,53.67-33.12,70.76c-12.35,6.4-27,4.93-40.5.58-23.63-7.62-43-24.85-54.12-47l-232.25-471Z"/><polygon class="cls-13" points="647.18 1220.5 701.19 1201.6 697.61 963.36 643.09 947.9 599.5 1058.69 647.18 1220.5"/><polygon class="cls-7" points="642.65 919.08 580.48 896.46 584.9 1191.28 647.18 1220.5 642.65 919.08"/><path class="cls-14" d="M895.5,1078.55l-57,93.48s-47.52,24.26-60.48-27.63c0,0-48,17.69-59.4-38.69,0,0-31.93,8.32-33-27.66l65.21-65Z"/><polygon class="cls-8" points="541.71 925.6 565.83 925.24 791.06 657.81 737.95 669.67 541.71 925.6"/><polygon class="cls-7" points="703.79 721.96 541.71 925.6 492.86 886.64 685.35 648.34 703.79 721.96"/><polygon class="cls-13" points="978.01 1357.31 1045.41 1326.13 1041.86 1089.59 955.53 1090.88 978.01 1357.31"/><polygon class="cls-7" points="974.18 1102.49 978.01 1357.31 914.16 1323.58 910.25 1062.72 974.18 1102.49"/><polygon class="cls-15" points="896.38 1070 897.37 1136.46 838.55 1172.03 896.38 1070"/><path class="cls-16" d="M896.38,1070l-57.83,102s-46,13.76-59.6-36.18c0,0-48,17.68-59.4-38.7,0,0-31.89,11-33.85-19.1l66.08-73.58Z"/><path class="cls-14" d="M814.09,1140.07c-12-14.86-6.94-35.58.07-51.57a2.35,2.35,0,0,0-4.25-2l-1,2a17.25,17.25,0,0,0-1.08,2.41,2.38,2.38,0,0,0,4.24,2,4.37,4.37,0,0,0,.25-.4,41.77,41.77,0,0,0,1.86-4,2.35,2.35,0,0,0-4.26-2,72.2,72.2,0,0,1-7.06,11.19c-5.55,7-13.77,15-23.38,14a25.37,25.37,0,0,1-10.08-4c4.24,4.14,10.07,7,16.11,6.1,12.63-1.93,23-14.48,28.58-25.19l-4.25-2c-.4.94-.83,1.88-1.29,2.79-.1.17-.26.49-.36.65l0,0a2.37,2.37,0,0,1,3.9.1,2.33,2.33,0,0,1,.25,2l.32-.7c.3-.63,1.09-2.2,1.42-2.84l-4.25-2c-7.26,16.64-11.24,40.22,4.25,53.44Z"/><path class="cls-14" d="M822.7,1071c-12-14.87-6.93-35.59.07-51.58a2.35,2.35,0,0,0-4.25-2l-1,2a18.49,18.49,0,0,0-1.08,2.41,2.38,2.38,0,0,0,4.24,2c.09-.12.18-.28.26-.4a43,43,0,0,0,1.85-4,2.35,2.35,0,0,0-4.26-2,72.3,72.3,0,0,1-7.06,11.2c-5.55,7-13.77,15-23.38,14a25.32,25.32,0,0,1-10.07-4c4.23,4.14,10.07,7,16.11,6.1,12.62-1.93,23-14.48,28.58-25.19l-4.26-2c-.4.94-.83,1.88-1.29,2.79-.09.17-.26.49-.36.65l0,0a2.37,2.37,0,0,1,3.89.1,2.33,2.33,0,0,1,.26,2c.08-.2.22-.5.31-.7.3-.63,1.09-2.2,1.42-2.84l-4.25-2c-7.26,16.65-11.24,40.22,4.25,53.45Z"/><path class="cls-14" d="M769.13,1108c-12-14.87-6.94-35.58.06-51.57a2.35,2.35,0,0,0-4.25-2l-1,2a17.85,17.85,0,0,0-1.09,2.41,2.38,2.38,0,0,0,4.25,2,4.37,4.37,0,0,0,.25-.4,40.41,40.41,0,0,0,1.85-3.95,2.35,2.35,0,0,0-4.25-2,73.45,73.45,0,0,1-7.06,11.19c-5.56,7-13.77,15-23.38,14a25.53,25.53,0,0,1-10.08-4c4.24,4.14,10.07,7.06,16.11,6.11,12.63-1.94,23-14.49,28.58-25.19l-4.26-2c-.39.94-.83,1.89-1.29,2.79-.09.18-.25.5-.35.66l0,0a2.36,2.36,0,0,1,4.15,2.12c.09-.21.23-.51.32-.7.3-.63,1.09-2.21,1.41-2.84l-4.24-2c-7.27,16.64-11.24,40.22,4.25,53.44Z"/><path class="cls-8" d="M824.71,732.33S619.35,649.07,596.58,844.57L597.71,920,993,1099.12Z"/><path class="cls-11" d="M808,745.55S602.67,662.29,579.9,857.78L581,933.22l408.72,185.21Z"/><path class="cls-17" d="M895.12,980.48l-245.88-105s33.41-103.08,131.11-67.72C905.05,852.9,895.12,980.48,895.12,980.48Z"/><g class="cls-18"><polygon class="cls-8" points="908 971.14 647.17 856.77 631.56 887.08 913.64 1004.75 908 971.14"/></g><path class="cls-8" d="M764,803a132.74,132.74,0,0,1,16.4,4.8A187,187,0,0,1,820.83,828l-7.4,117.6-58.18-24.84Z"/><polygon class="cls-11" points="808.95 806.17 797.19 992.97 738.77 964.32 752.92 772.75 808.95 806.17"/><polygon class="cls-8" points="1389.77 963.1 1411.49 947.37 1184.4 459.19 1128.87 486.74 1389.77 963.1"/><polygon class="cls-8" points="1004.22 1143.89 1059.25 1143.06 1107.21 1104.26 1035.63 1076.68 1004.22 1143.89"/><polygon class="cls-7" points="768.76 688.97 1004.22 1143.89 1068.01 1098.82 836.11 638.54 768.76 688.97"/><polygon class="cls-8" points="1055.76 1127.65 1082.88 1109.34 836.01 632.03 809.34 645.26 1055.76 1127.65"/><polygon class="cls-19" points="703.79 721.96 1217.93 460.88 1255.08 424.13 1017.7 484.62 726.28 662.81 703.79 721.96"/><path class="cls-15" d="M1152.56,451.3,1381.83,938a90.33,90.33,0,0,1,7.73,55.34c-2.68,14.38-9.21,28.79-23.86,35.41-34.45,15.6-77.72-19.94-77.72-19.94s4.36,55.73-35.1,72.91c-35.44,15.44-78.77-23.32-78.77-23.32s-.2,53.67-33.12,70.75c-12.35,6.41-27,4.93-40.5.58-23.64-7.61-43-24.84-54.12-47l-232.25-471Z"/><polygon class="cls-11" points="701.31 556.1 638.02 609.84 703.79 721.96 755.08 672.18 848.09 538.82 701.31 556.1"/><g class="cls-20"><polygon class="cls-16" points="1190.17 495.23 775.9 702.76 774.33 598.33 1164.24 425.49 1190.17 495.23"/></g><polygon class="cls-21" points="1255.08 424.13 1194.96 331.04 1085.62 387.45 1255.08 424.13"/><path class="cls-8" d="M1255.08,424.12l-500,248.06-23.35-48.67s68.85-35,85.75-64.63c0,0-65.7,44-91.35,43.6l-8.64-23.24s42.71-18,53.12-27.57c0,0-50.25,17.72-63.15,12.63l-6.15-8.2,495.23-236.58,13.25,21.89s-56.43,37.49-89.48,46.28c0,0,73,0,97.45-29L1230.29,380s-15.61,15.31-33.64,19.35c0,0,31.66-.47,39.85-7.38Z"/><path class="cls-16" d="M1332.36,900.25c-37.83,1.35-64.5-31.36-81.45-61.44a4.66,4.66,0,0,0-8.24,4.32l1.9,3.92a36.84,36.84,0,0,0,2.52,4.58,4.71,4.71,0,0,0,8.15-4.38,8.22,8.22,0,0,0-.33-.87,77.14,77.14,0,0,0-4-7.63,4.65,4.65,0,0,0-8.19,4.38,143,143,0,0,1,9.3,24.47c4.49,17.12,7.28,39.56-5.63,53.64-5,5.19-11.5,8.56-18.27,11.2,11.58-1.77,23.13-7.52,28.81-18.21,12-22.26,4.4-53.51-5.83-75.14l-8.2,4.38c1,1.74,2,3.55,2.87,5.35.17.36.48,1,.62,1.34l0-.07a4.69,4.69,0,0,1,4.79-6,4.62,4.62,0,0,1,3.49,2c-.22-.38-.54-1-.73-1.33-.64-1.22-2.19-4.35-2.81-5.62l-8.24,4.32c17.67,31.27,50.22,65.59,89.54,56.84Z"/><path class="cls-16" d="M1233.07,932.46c-37.83,1.35-64.5-31.36-81.45-61.45-3.08-5.1-10.68-1.11-8.24,4.33l1.9,3.92a37.57,37.57,0,0,0,2.52,4.58,4.71,4.71,0,0,0,8.15-4.38,9.32,9.32,0,0,0-.33-.88,80.35,80.35,0,0,0-4-7.62,4.65,4.65,0,0,0-8.19,4.38,142.65,142.65,0,0,1,9.3,24.47c4.48,17.12,7.28,39.56-5.63,53.64-5,5.19-11.5,8.56-18.27,11.2,11.58-1.77,23.13-7.52,28.8-18.21,12-22.26,4.41-53.51-5.83-75.14l-8.19,4.37c1,1.75,2,3.55,2.87,5.36.17.36.48,1,.62,1.34l0-.07a4.69,4.69,0,0,1,4.79-6,4.59,4.59,0,0,1,3.48,2c-.21-.38-.53-1-.72-1.33-.64-1.23-2.19-4.35-2.81-5.62l-8.24,4.31c17.67,31.28,50.21,65.6,89.54,56.85Z"/><path class="cls-16" d="M1128.92,965.41c-37.83,1.36-64.5-31.36-81.45-61.44a4.65,4.65,0,0,0-8.23,4.32l1.89,3.92a35,35,0,0,0,2.53,4.58,4.7,4.7,0,0,0,8.15-4.37,8.44,8.44,0,0,0-.34-.88,79.45,79.45,0,0,0-4-7.63,4.65,4.65,0,0,0-8.19,4.38,143.28,143.28,0,0,1,9.3,24.47c4.49,17.13,7.28,39.57-5.63,53.64-5,5.2-11.5,8.56-18.27,11.21,11.58-1.77,23.13-7.53,28.81-18.22,12-22.25,4.4-53.5-5.83-75.13l-8.2,4.37c1,1.75,2,3.55,2.88,5.36.16.35.47,1,.61,1.33l0-.07a4.69,4.69,0,0,1,4.79-6,4.61,4.61,0,0,1,3.49,2l-.73-1.32c-.64-1.23-2.19-4.36-2.81-5.62l-8.24,4.31c17.67,31.27,50.22,65.6,89.54,56.84Z"/><path class="cls-16" d="M1233.92,785.13c-37.83,1.35-64.5-31.36-81.45-61.44a4.65,4.65,0,0,0-8.23,4.32l1.9,3.92a34.41,34.41,0,0,0,2.52,4.58,4.71,4.71,0,0,0,8.15-4.38c-.08-.28-.23-.61-.33-.87a81.61,81.61,0,0,0-4-7.63,4.65,4.65,0,0,0-8.2,4.38,143,143,0,0,1,9.3,24.47c4.49,17.12,7.29,39.56-5.63,53.64-5,5.19-11.5,8.56-18.27,11.2,11.58-1.77,23.13-7.52,28.81-18.21,12-22.26,4.41-53.51-5.83-75.14l-8.2,4.38c1,1.74,2,3.55,2.88,5.35.16.36.48,1,.61,1.34l0-.07a4.69,4.69,0,0,1,4.79-6,4.62,4.62,0,0,1,3.48,2c-.21-.38-.53-1-.72-1.33-.65-1.22-2.2-4.35-2.82-5.62l-8.24,4.32c17.67,31.27,50.22,65.59,89.54,56.84Z"/><path class="cls-16" d="M1129.78,818.09c-37.83,1.35-64.5-31.36-81.45-61.45a4.66,4.66,0,0,0-8.24,4.32l1.9,3.92a36.14,36.14,0,0,0,2.52,4.58,4.7,4.7,0,0,0,8.15-4.37c-.08-.28-.23-.62-.33-.88a82.71,82.71,0,0,0-4-7.62,4.65,4.65,0,0,0-8.2,4.37,142.24,142.24,0,0,1,9.3,24.48c4.49,17.12,7.29,39.56-5.62,53.63-5,5.2-11.51,8.56-18.27,11.21,11.58-1.77,23.13-7.53,28.8-18.21,12-22.26,4.41-53.51-5.83-75.14l-8.19,4.37c1,1.75,2,3.55,2.87,5.36.17.35.48,1,.61,1.33l0-.07a4.69,4.69,0,0,1,4.79-6,4.62,4.62,0,0,1,3.48,2c-.21-.37-.53-1-.72-1.32-.64-1.23-2.19-4.35-2.81-5.62l-8.24,4.31c17.67,31.28,50.21,65.6,89.54,56.85Z"/><path class="cls-16" d="M1127.65,676.73c-37.82,1.35-64.49-31.36-81.44-61.45a4.66,4.66,0,0,0-8.24,4.33l1.9,3.91a36.14,36.14,0,0,0,2.52,4.58,4.7,4.7,0,0,0,8.15-4.37c-.08-.28-.23-.61-.33-.88a82.71,82.71,0,0,0-4-7.62,4.65,4.65,0,0,0-8.2,4.37,143.07,143.07,0,0,1,9.3,24.48c4.49,17.12,7.29,39.56-5.63,53.63-5,5.2-11.5,8.57-18.26,11.21,11.58-1.77,23.13-7.53,28.8-18.21,12-22.26,4.41-53.51-5.83-75.14l-8.2,4.37c1,1.75,2,3.55,2.88,5.36.17.35.48,1,.61,1.33l0-.06a4.69,4.69,0,0,1,4.79-6,4.6,4.6,0,0,1,3.48,2c-.21-.38-.53-1-.72-1.33-.64-1.23-2.19-4.35-2.81-5.62l-8.24,4.31c17.67,31.28,50.21,65.6,89.53,56.85Z"/><path class="cls-22" d="M459.16,1059s5.23,15.59,23.28,23.47c0,0,.44-23.7,6.69-31.86s16-14.64,16-14.64l-14.44-31.55s-15.77,6.36-23.36,5.11Z"/><path class="cls-11" d="M505.47,1039.13l45.11,93.53s-2.11-15,6.94-15.3c7.66-.24,9.73,1,9.73,1l-41.55-90.6S501.07,997.09,505.47,1039.13Z"/><path class="cls-23" d="M457.1,1058.09s5.23,15.58,23.28,23.46c0,0,.44-23.7,6.69-31.86s16-14.64,16-14.64l-14.44-31.54s-15.77,6.35-23.36,5.1Z"/><path class="cls-24" d="M505.15,1039.73s4.7-16.39,21.46-10.46l-20.06-38a8.83,8.83,0,0,0-8.58-4.77c-5.05.47-11.34,3-11.55,12.5a8.92,8.92,0,0,0,.9,4.09Z"/><path class="cls-8" d="M555.41,1115.61s-6.13,6.37-6.09,11.38,3.82,13.88,7.51,14.13,10.19-6,10.94-13,1.32-9.17-3.31-12.68S555.41,1115.61,555.41,1115.61Z"/><path class="cls-25" d="M504.9,1039.22s4.89-17,21.71-10c0,0,.37.78.07.62s-12.86-6.88-21.53,9.84Z"/><path class="cls-25" d="M490.06,989.59s20.55,23.37,20.88,42.47l5.51-3.07S496.73,992,498,986.46C498,986.46,492.46,986.28,490.06,989.59Z"/><path class="cls-22" d="M465.25,1008.61s9.62,32.95,21.14,43.83l-3,10.18s-20.24-24.48-20.87-37.25Z"/><path class="cls-26" d="M952.58,1366.09c10.75-39.67-17.65-49-19.82-58.88,0,0,36.39,8,38.51,35l0-20.41a57.26,57.26,0,0,0-4-21.09,68,68,0,0,1-1.1-46.79s21.92,70.93,35.32,67.9c0,0-9.17-23.85.1-35.87,0,0,9.66,28,27.73,51.87C1052.45,1368.35,951.56,1386.1,952.58,1366.09Z"/><path class="cls-26" d="M1162.63,1250.63s16-70.2,33.2-76.85c0,0-8.18,57.9,1.39,65.81s34-46.65,34-46.65,10.2,43.43-7.25,59.08S1162.63,1250.63,1162.63,1250.63Z"/><path class="cls-26" d="M1184.5,1243s-23.77-15.21-30-48.17c0,0-8,38.75,11.7,52.43C1182.48,1258.55,1184.5,1243,1184.5,1243Z"/></svg>