<?xml version="1.0" encoding="utf-8"?>
<!-- Generator: Adobe Illustrator 26.0.1, SVG Export Plug-In . SVG Version: 6.00 Build 0)  -->
<svg version="1.1" id="Layer_1" xmlns="http://www.w3.org/2000/svg" xmlns:xlink="http://www.w3.org/1999/xlink" x="0px" y="0px"
	 viewBox="0 0 3380 3380" style="enable-background:new 0 0 3380 3380;" xml:space="preserve">
<style type="text/css">
	.st0{fill:#AED76A;}
	.st1{fill:#FECEAD;}
	.st2{fill:#372415;}
	.st3{fill:#908E8F;}
	.st4{fill:#787677;}
	.st5{fill:#6B696A;}
	.st6{fill:#312319;}
	.st7{fill:#5F5E5E;}
	.st8{fill:#605F5F;}
	.st9{fill:#797778;}
	.st10{fill:#ABA7A9;}
	.st11{fill:#AAA6A8;}
	.st12{fill:#5E5D5D;}
	.st13{fill:#AFD76A;}
</style>
<path class="st0" d="M419.1,2277c0-8.7,0-17.3,0-26c2.3-6,2.1-12.3,2.9-18.5c1.8-14.7,6.1-28.1,16.9-38.9
	c6.8-6.8,12.9-14.4,19.3-21.6c15.7-17.7,34-32.2,54.8-43.7c17.4-9.6,34.6-19.4,50.6-31.1c10.3-7.5,21.4-12.3,33.4-16
	c170.9-52.3,344.3-94.2,520.6-123.7c31.2-5.2,62.6-8.9,94.3-9.8c10.3-0.3,20.6,0.6,31,0c4.3,0.4,8.6,0.7,12.9,1.3
	c11.6,1.6,23.1,4.1,32.7,11.3c2.8,2.1,5.4,2.9,8.7,2.7c14-0.7,27.9-1.6,41.9-1.8c52.2-0.8,104.3,0.4,156.4,3.5
	c54,3.2,108,7.7,161.8,13c49.2,4.8,98.4,10.4,147.4,16.5c50.1,6.2,100.1,12.9,150.1,19.5c69.8,9.2,139.5,19.1,209.2,29.4
	c74.8,11.1,149.4,23.1,223.7,37.1c3.8,0.7,4.8-0.4,5.9-3.7c6-18.7,18.4-31.3,37.2-37.5c10.4-3.4,21.1-2.7,31.7-1.8
	c29.1,2.5,57.9,6.9,86.6,11.9c86.3,15,172.4,30.8,258.3,47.9c11.3,2.3,23.1,3.2,33.1,10.2c11.9,8.4,25.3,13.9,39.1,18.8
	c28,9.8,56,19.6,83,31.9c44.1,20,84.4,45.3,117.3,81.6c23.6,26.1,44,53.9,55.5,87.5c1.4,4.1,2.6,8.2,2.4,12.6
	c-1,18.4-1.2,37-4.9,55.2c-3.8,18.8-6.3,38-14.6,55.4c-13.8,29.2-32.2,55.6-54.1,79.5c-19.1,20.9-42.7,36-66.2,51.3
	c-21.9,14.3-45.2,26.3-66.8,41.1c-39.4,26.9-81.7,47.7-128.9,57.1c-4.2,0.8-7.8,2.6-11.5,4.7c-81.4,47.2-166.1,87.1-255.1,117.6
	c-106.4,36.4-215.4,63-325.8,84c-71,13.5-142.7,22.8-214.7,29.3c-56.3,5.1-112.6,8.6-169.1,9.5c-55.3,0.9-110.6,0.6-165.9-1.5
	c-50.3-1.9-100.5-4-150.8-7c-53.4-3.2-106.6-7.7-159.8-14c-59.4-7-118.3-17.2-176.6-30.8c-72.8-16.9-144.1-38.6-213.9-65.5
	c-80.5-31-157.7-68.4-229.3-116.8c-51.4-34.7-99-74-141.6-119.1c-10.4-11-19.8-22.9-31.1-33.1c-26.1-23.5-49.4-49.6-69.5-78.4
	c-34.4-49.4-57.6-103.4-66.2-163.4C420.7,2289.1,421.3,2282.9,419.1,2277z"/>
<path class="st1" d="M1906,2758.9c0,6.7,0,13.4,0,20.1c-1.9,31-12.9,58.5-32.3,82.7c-22.5,28.1-52.6,45.4-85,59.3
	c-7.2,3.1-14.5,4.3-22.3,4.1c-12.8-0.3-25.7,0-38.5-0.2c-19.8-0.2-39.6-0.3-59.4-1.1c-17.1-0.7-34.2-1.4-51.3-2
	c-21.7-0.7-43.5-1.9-65.2-3c-17.7-0.9-35.5-1.8-53.2-3c-21.8-1.5-43.7-3.2-65.5-5c-12.1-1-24.1-2.6-36.2-3c-0.1-0.6-0.1-1.3-0.2-1.9
	c1.3-0.1,2-0.7,2-2.3c0.2,0.1,0.3,0.5,0.5,1c13.5-8.8,26.3-18.5,38-29.6c-0.4-0.5-0.8-1-1.2-1.5c-12.4,10-24.8,19.9-37.3,30.2
	c-1.3,0.4-2,1-2,2.4c-0.8,0-1.6,0.2-2,1c-11.2-1.1-22.5-1.9-33.7-3.2c-14.6-1.7-29.2-3.9-43.9-5.7c-21.9-2.7-43.6-6.4-65.3-10.3
	c-38.2-6.8-76.2-15.1-113.8-24.8c-51-13.2-101.4-28.6-150.9-46.6c-43.3-15.7-85.8-33.4-127.5-53.2c-26.6-12.7-52.6-26.5-78.1-41.3
	c-0.4-0.2-0.7-0.6-1.9-1.7c5,0.4,9.2,0.3,13.2,1c8.1,1.5,16.3,1.2,24.3,1.5c26.4,1.1,52.9,1.7,79.4,1.2c21.1-0.5,42.2-1,63.3-2
	c20.4-1,40.8-2.2,61.1-4c40.5-3.6,80.7-9,120.3-18.8c14-3.5,27-9.4,40-15.3c31.4-14.2,61.4-31.1,92-47c5.9-3,10.2-7.9,15.1-12.2
	c11.7-10.1,22.8-20.9,34.1-31.5c11.8-11.1,16.5-25,19.2-40.1c3.9-21.5,1.8-43-0.8-64.5c-4.7-39-17.6-75.6-32.3-111.6
	c-8.5-20.8-16.9-41.7-20.2-64c-1.7-11.7-4.7-23-7.3-34.5c-2.1-9.5,0.1-19.2,0.9-28.8c1.1-12.9,3.5-25.7,3.6-38.6
	c0.1-12.3,4.5-23.2,9.1-34.3c7.9-18.8,18.4-36.1,28.3-53.8c2.7-4.8,4.7-9.9,7.1-14.8c8.6-16.9,17.2-33.9,25.9-50.7
	c2.4-4.6,4-9.5,5.1-14.5c1.8-8.3-3-13.3-11.2-11.1c-10.1,2.7-19.1,7.7-27.3,14.2c-16.8,13.4-32,28.6-45.6,45.3
	c-6.7,8.3-10.9,18.2-16.3,27.4c-0.9,1.5-1.7,3.1-2.9,4.6c-0.5-11.3,1.1-22.4,3.7-33.2c7.9-33.2,23-62.7,47.6-86.7
	c14.2-13.9,31.9-21.2,51.5-24.1c14-2.1,27.5-0.8,40.2,5.8c11.9,6.2,19.5,19.6,12.9,34.5c-3.8,8.7-8.3,17.1-10.7,26.3
	c-3.4,13.1-9.3,25.3-14.7,37.6c-0.9,1.9-1.9,3.8-1.7,6.7c6.5-2,12.4-4.8,18.8-6.1c31.6-6.3,57.1,15.6,59,44.1
	c0.3,4.8,1.5,8.9,5.5,12.2c6.6,5.5,12.9,11.5,19.2,17.4c8.6,8.1,17.1,16.3,25.7,24.4c1.6,1.5,3.5,2.8,6,4.8
	c-1-11.2,0.5-20.9,4.8-30.3c10-22.1,36-29.5,57.6-19.9c10.8,4.8,19.7,12.4,27.8,20.8c3,3.1,5.1,2.8,8.4,0.4
	c43.2-31.7,87.3-62,134.6-87.4c13.9-7.5,29.1-10.1,44.7-10.1c8.2,0,16.3,1.7,22.7,7.5c9.7,8.6,10.3,19.5,7.5,31.2
	c-1.5,6.5-4.5,12.5-7.3,18.5c-1,2.1-2.4,4.1,0.1,6.2c1.1,0.9,0.4,2.5,0.2,3.8c-2.4,17.6-9,34-16,50.2c-11.5,26.2-27.4,49.8-44,73
	c-1.5,2.1-3.7,2.7-5.9,3.4c-17.2,5.1-33.8,12-50.6,18.4c-9.1,3.5-13.2,10.7-17.4,18.2c-14.6,26.3-22.5,54.3-20.8,84.6
	c1.4,24.6,9.6,47.1,22.6,67.9c15.3,24.5,35.5,44.7,57.1,63.6c9.8,8.5,19.5,17.1,29,25.9c10.6,9.7,21.1,19.3,31.3,29.3
	c31.2,30.8,56.1,66.3,74.5,106c11.9,25.6,19.6,52.5,22.4,80.7C1905.4,2752,1905.9,2755.4,1906,2758.9z"/>
<path class="st2" d="M1051.9,2031.9c-9.6-10.6-12.6-24.2-16.5-37.4c-4.9-16.5-5.6-33.6-7.7-50.5c-0.5-3.8-1.4-6-5.3-7.4
	c-25.7-9.1-38-28.1-40.4-54.7c-2.8-31.6-2.2-63.2-1.7-94.9c0.6-30.1,2-60.3-0.2-90.4c-1.7-23.5-11.5-43.8-24.6-62.9
	c-18.5-26.8-41.5-49.5-64.8-71.9c-28.4-27.4-58.9-52.7-86.4-81c-8.5-8.7-17.5-15.8-28.7-20.8c-11.2-5-21.7-11.5-32.5-17.5
	c-7.5-4.2-15.4-6.9-24-7.7c-6.2-0.6-12-2.5-18-3.8c-13.1-2.9-25.3-1.8-36.6,6.5c-5.4,4-12.3,5.9-18.8,5.9
	c-15.9-0.2-30.1,5-44.1,11.4c-6.8,3.1-13.2,4.1-20.6,3.1c-24.9-3.4-49.6-8.2-74.3-13c-1.1-0.2-2.1-0.6-4.1-1.3
	c21.8-9,42-19.1,63.8-25.4c6.4-1.9,12.7-3.9,18.6-7.1c5.2-2.9,8.9-7.5,13.2-11.3c5.7-5.1,4.4-14-1.6-20.1c-4-4.1-8.8-7.1-13.8-9.9
	c-16.6-9.3-32.2-20-48.2-30.3c-10.6-6.8-21.4-12.9-34.4-13.7c-7.2-0.5-13.9,0.3-19.1,6.2c-2.6,2.9-6.9,2.3-10.4,2.8
	c-31.9,4.2-63.8,7.7-96.1,5.9c-2.1-0.1-4.2-0.4-7.6-0.7c6.7-2.8,12.7-3.2,18.5-4.2c33.4-6.2,66.1-15,98.2-26.4
	c3.1-1.1,6.4-1.5,9.7-1.9c25.9-3.6,46.4,8.1,66.4,22.2c17.9,12.7,36.2,24.9,53.2,38.9c4.9,4.1,11.4,2.9,17.1,4.4
	c3.5,1,7.7,0.5,10.6,2.1c9.2,5.2,18.5,4.1,28.2,2.3c14.1-2.6,28.5-1.7,42.8-1.8c7.5,0,15,0,22.4,0c0.5-2-1-2.6-1.8-3.5
	c-5.5-6.9-11.2-13.6-16.6-20.7c-2.6-3.4-5.8-4.4-9.8-5.7c-10.4-3.2-21.1-3.8-31.6-5.7c-5.2-1-8.5-4.2-10.6-8.9
	c-7.5-16.4-13.3-33.4-18.2-50.7c-7.4-26.2-14.4-52.6-20-79.2c-3-14.3-5.5-28.7-8.3-43c-4.6-23.8-16.3-43.8-32.7-61.3
	c-5.3-5.7-11.2-11.1-15.9-17.3c-5.4-7-12.6-8.8-20.5-9.4c-12.1-1-23.7,0.4-33.9,7.5c-1.7,1.1-3.1,0.7-4.7,0.3
	c-2.7-0.7-5.5-1.3-8.2-2.2c-15.1-5.3-27.5-0.4-38.3,10.2c-2.4,2.4-5.5,3.8-8.6,5c-17,6.8-34.6,9.9-52.9,10.7
	c-47.6,2.2-84.1-18.3-114.4-53c-2.5-2.9-4.7-6-7.3-9.3c3.1-0.6,4.8,1.4,6.5,2.8c24.2,20,51.9,31.9,82.5,38
	c23.1,4.7,42.9-2.6,62.1-13.9c1.3-0.8,2.7-1.6,3.5-2.8c6.4-9.6,16.8-12.6,26.8-16c9.4-3.1,18.6-5.5,28.9-4.7
	c13.9,1.1,27.9,0.3,42.4,0.3c-0.1-3.1-1.5-5.6-3.1-8c-9.1-14-21.2-25.2-33.9-35.8c-4.3-3.6-10.6-4.6-15.9-7
	c-29.8-13.4-57-31-81.7-52.4c-6.8-5.9-13.9-10.5-22.9-12.3c-15.5-3-28.2-11.6-39.4-22.4c-20-19.3-34.7-42.5-48.3-66.5
	c-9.2-16.1-16.9-32.9-24.3-49.8c-1.4-3.3-2-7-3-10.3c8.6,13.7,16.9,27.7,25.9,41.3c18.6,28.2,39.8,54.2,64.6,77.2
	c12.6,11.7,27.7,17.5,44.9,17.6c7.3,0.1,14.1,2.5,20.4,6c23.8,13.4,47.6,26.7,70.7,41.3c7.4,4.6,15.8,7,23.9,10
	c3.9,1.4,7.3-0.6,9.1-4.3c2.7-5.7,5.3-11.9,4.9-18.1c-0.9-13.3-0.4-26.7-2.8-39.8c-3.1-17.6-9.8-33.4-22.4-46.5
	c-10.8-11.2-18.7-24.2-24.2-38.7c-2.7-7-5.5-13.9-9.7-20.2c-3.3-5-1.3-10.9-2-16.4c0.4-0.2,0.9-0.4,1.3-0.5
	c3.1,5.1,6.3,10.1,9.4,15.3c9.8,16.7,21.4,32.1,35.1,45.9c15.4,15.4,27.8,32.7,31.3,55c2.3,14.9,2.5,29.7,0.8,44.7
	c-1,9.4-1.3,18.9-5.9,27.6c-1.6,3,3.4,12.4,7.2,14.7c13.9,8.3,27.4,17,40.5,26.5c2.5,1.8,4.3,4,6.1,6.4
	c12.1,15.9,23.2,32.6,38.6,45.7c24.4,20.6,37.8,47.6,45.6,78c6.9,26.7,15.5,53,23.9,79.3c0.9,2.8,1.3,5.8,2.2,8.7
	c2,6.8,5.4,11.9,12.4,15.2c5.6,2.6,10.4,6.9,17.1,7.3c12.1,0.7,22.5-1.5,28.4-13.8c1.4-2.9,4.4-4.9,6.6-7.4
	c7.8-9,12.1-19.8,16.3-30.7c0.7-1.9,1.3-3.7,2.7-5.3c13.3-15.5,21.4-33.6,26.4-53.1c6-23.1,9.4-46.6,12.8-70.2
	c1.6-11.2,3.3-22.3,7.3-33c3.6-9.5,5.3-19.6,5.6-29.8c0.1-4.2,2-5.8,5.4-6.9c4.1-1.4,8-3.2,12.1-4.6c3.9-1.4,4.6-3.7,3.6-7.7
	c-4.4-16.2-9-32.3-14.6-48.2c-11.2-32.4-21.6-65-34.2-96.9c-10.1-25.7-23.9-49.4-36.7-73.7c-5.8-11-8-22.5-7.2-34.7
	c0.9-12.1,0.9-24.4,7.3-35.3c1.7-2.9-0.5-4.5-2-6c-8-8.5-16.1-16.9-24.3-25.2c-26.4-26.8-57.1-48.5-86.9-71.1
	c-4.7-3.6-9.3-7.3-14.3-11.2c2.8-1.3,4.4-0.1,6,0.5c30.7,10.7,59,26.1,86.4,43.5c12.1,7.7,23.8,15.9,35.4,24.3
	c4.3,3.1,8.4,6.6,11.9,10.7c1.4,1.7,2.4,2.5,4,0c14-22.8,32.7-42,49-63.1c0.5-0.7,1-1.4,1.5-2c9.4-10.4,10.7-21.6,7.5-35.4
	c-6.8-29.5-14-58.9-21.6-88.3c-0.9-3.4-2.6-6.7-2.3-10.7c1.8,0,2.7,1.3,3.5,2.7c15.9,28.5,30.6,57.7,40.5,88.9
	c8.3,26.1,1.6,49.8-15.5,70.9c-13.9,17.2-26.7,35.3-42.3,51.2c-1.4,1.4-1.9,2.9-1.8,4.9c1.5,21-1.1,41.8-2.1,62.8
	c-0.1,2.6,0.3,4.7,1.8,6.9c14.9,21.3,29.1,43.1,40.6,66.5c1.1,2.2,1.7,3.1,4.2,1.2c22.2-17.3,44.6-34.4,65.8-53
	c16-14,24.2-31.6,28.6-51.8c4.1-18.8,7.1-37.9,12.5-56.5c0.4-1.2,0.4-2.7,2.2-3.9c1.8,5.6,2.5,11.2,3.2,16.8
	c2,17.3,4.3,34.8,3.8,52.2c-0.4,15.8,0.3,32.1-6.4,47.1c-2.1,4.6-4.9,8.7-8,12.6c-1.4,1.8-2,2.6,1.1,3.4
	c35.7,10,70.9,21.7,104.3,38.1c8.4,4.1,14,3.4,21.6-0.7c23.2-12.5,47.4-22.7,72.9-29.5c0.3-0.1,0.7,0.1,1.2,0.1
	c-0.1,2.1-1.9,2.8-3.1,3.8c-21,16.1-41.5,32.9-60.2,51.8c-3,3-6.2,6.1-10.5,7.5c-7.2,2.3-13.9,2.4-20.3-2.5
	c-15.5-11.7-31.9-21.7-49.5-29.8c-16.6-7.6-33.9-13.1-52.1-14.7c-7.8-0.7-15.1-2.1-22.1-5.2c-3-1.3-4.7-0.6-7,1.4
	c-17.8,15.9-36.3,30.9-57.3,42.4c-2.5,1.4-3,3-2.7,5.6c1,9.9,4.2,18.9,8.2,28c11.7,26.3,22.6,52.9,29.6,81
	c3.3,13.2,0.9,26.2,0.1,39.2c-0.3,4.7-0.9,9.3-1.2,13.9c-0.7,9.7-5.3,17.2-14.6,19.4c-10.9,2.6-14.5,9.8-17.4,19.3
	c-5,16.3-10.9,32.4-16.5,48.5c-2.1,6.2-1.9,12.9-4.4,19.1c-0.7,1.7-0.7,3.9,1.2,4.9c1.9,1,3.5-0.5,4.8-1.8
	c5.9-6.4,10.9-13.4,14.8-21.2c1.4-2.7,3.2-4.1,6.2-5c9.2-2.5,17.8-6.6,26.4-10.6c15-6.9,29.7-14.3,44-22.5
	c18.6-10.6,33.9-24.6,44.6-43.4c1.7-3,4.1-5.2,6.7-7.3c14.1-11.3,27-23.8,39.3-36.9c0.6-0.6,1-1.4,2.3-1c-0.1,2.7-1.5,5.1-2.7,7.5
	c-16.8,33.8-41,61.6-68.7,86.9c-16.3,14.8-34.8,26.2-53.5,37.4c-18.3,11-31.4,27-43,44.6c-9.7,14.8-17.8,30.5-28,44.9
	c-6.9,9.6-14,19.1-21.1,28.5c-2.6,3.4-3.9,7-4.2,11.4c-0.5,7.8-0.7,15.6-2.6,23.3c-0.6,2.6-0.7,5.2,0.1,7.9
	c13.7,44.6,34.6,85,68,118.2c21,20.9,44.2,38.9,69,54.9c23.1,14.9,47.7,27.3,70.8,42c11.2,7.2,21.4,15.6,31.1,24.8
	c18.9,18,31.2,40.8,45.6,62c25.9,38.2,48.2,78.6,68.2,120.2c26.4,54.9,44.2,112.4,49.7,173.3c0.4,3.9-0.1,8,1.1,11.8
	c-0.1,8.8,0.3,17.6-0.3,26.4c-1.1,16.4-2.6,32.8-4,49.2c-0.7,7.9-1.1,15.9-2.9,23.7c-1,4.5-3,6.6-8.2,6.5
	c-17.1-0.3-34.3-0.1-51.4-0.1c-12.8,0-12.8,0-15.2-12.7c-2.4-12.4-4.8-24.9-7.2-37.6c-1.9,1.6-1.9,3.6-2.4,5.2
	c-4.2,14.2-9.7,27.9-14.8,41.8c-3.3,8.8-7.5,14.6-17.9,12.2c-0.3-0.1-0.7,0-1,0c-1.6-0.1-2.4,0.5-2.6,2.2c-1.4,9.6-3,19.1-6.9,28
	C1075.9,2031.9,1063.9,2031.9,1051.9,2031.9z"/>
<path class="st3" d="M2072,2224c-16.4,0-32.7,0-49.1,0c-30.3-0.7-60.4-3.8-90.6-6.8c-24.7-2.5-49.3-4.9-74-7.3
	c-24.8-2.5-49.6-5.2-74.5-7.6c-20.5-2-41.1-3.6-61.6-5.4c-21.5-1.9-43.1-3.8-64.6-5.6c-19.1-1.6-38.1-3-57.2-4.4
	c-23.4-1.7-46.8-3.5-70.2-4.6c-16.1-0.8-32.3-1.9-48.4-1.5c-16.4,0.4-32.4-3.3-48.5-5.3c-25.9-3.3-51.7-7.1-77.6-10.6
	c-20.4-2.8-40.9-5.5-61.3-8.1c-35.5-4.5-70.6-11-105.9-16.9c-15.1-2.5-29.9-6.7-45-9.2c-19.4-3.1-38.8-5.4-58.3-7.6
	c-4.1-0.5-5-2-5.1-5.5c-0.8-35.8-5.3-71.4-7.2-107.1c-0.9-17.9-2.1-35.8-1.3-53.9c1.2-27.1,15.1-46.6,35.6-62.5
	c1.1-0.9,2.3-1.1,3.7-1.3c20.3-2.6,33.9-18.3,31.7-38.4c-3.1-28.2-1.8-56.5-2.8-84.8c-1.2-31.8-1.5-63.6-3.1-95.4
	c-1.2-23.4-4-46.7-10-69.5c-1.9-7.1,0-14.3,0.3-21.4c0.4-10.1,1.5-20.2,2.2-30.4c0.1-1.4,1.9-3.8-1.6-4.1c-3.3-0.2-2.6,2.1-2.8,4
	c0,0.3-0.1,0.6-0.4,1.2c-0.2-4.4-2.8-5.9-6.6-6.8c-5.3-1.3-9.7-4.3-13.5-8.3c-14.5-15.4-28-31.7-38.3-50.4c-5-9.1-7.5-18.8-8.8-28.9
	c-0.4-3-0.2-6.3,1.2-8.8c2.3-4.3,2-8.7,1.9-13.1c-0.3-9.7-0.4-19.3-1-29c-0.6-10.4,1.3-20.6,1.1-30.9c-0.2-12.8-4.5-17.8-17.3-19
	c-11.2-1-12.9-2.8-13.9-13.8c-0.3-3.7-1.5-7.2-3.8-10.2c-3.5-4.5-8.7-5-13.2-1.6c-10.1,7.6-7.9,6.3-15.8-0.5
	c-13-11-25.5-22.5-36.8-35.2c-2-2.2-4.7-3.4-6.7-5.8c-6.8-8.2-9.2-18.5-13.9-27.7c-1.2-2.3-2.1-4.8-3.8-7
	c-5.3-6.7-4.8-14.5,0.9-20.9c5.4-6,12-10.6,18.6-15.1c32.1-21.8,65.1-42.2,97.7-63.3c18.5-12,35.5-25.9,53.1-39.1
	c43.2-32.4,86.5-64.6,130.2-96.2c52.3-38,105.7-74.4,159.9-109.6c24.2-15.7,48.1-31.8,72.4-47.3c5.8-3.7,11.2-7,13.6-13.8
	c0.4-1.3,2-2.2,3-3.2c6.3-6.4,9.1-13.9,6.6-22.8c-0.9-3.2-1-6.1,0-9.2c1.8-6.1,3.7-12.1,5.1-18.3c4.7-21.3,19.4-34,37.5-43.4
	c4.4-2.3,7.4-5.6,9.1-9.2c3.3-6.6,7.9-13.1,7.7-20.7c-0.5-22-2.1-43.9-2.5-65.9c-0.5-24.8-2.5-49.6-2.2-74.4c0-2.8-0.3-4.7-3.9-4.8
	c-15.8-0.5-31.6-1.2-47.4-1.9c-2.5-0.1-5-0.1-7,1.9c-1,1-2.4,1-3.8,0.8c-9.5-1.5-18.9-0.4-28.2,1.9c-2.9,0.7-4.3,0.4-4.3-3.1
	c0-20.7-1.6-41.3-3.1-61.9c-0.2-2.7,0.4-3.8,3.3-4c16.9-1.2,33.7-3.8,50.6-0.2c3.1,0.7,6.3,0.5,9.4-0.2c2.6-0.6,5.3-0.8,7.9-0.1
	c6.4,1.7,11.8-1,17.1-3.7c3-1.5,4-4.8,4.5-8c2.1-14,3.2-28.2,3.1-42.4c-0.1-15,0.9-29.9,2.7-44.8c0.5-3.9,1.9-4.5,5.3-4.4
	c16.2,0.2,32.3,0.1,48.5,0c5.8,0,11.6-0.5,17.4-0.9c2.6-0.2,3.9,0.3,3.9,3.4c-0.1,24.1,5.1,47.6,8,71.3c0.6,4.8,2.7,9.2,5.5,13.3
	c3.6,5.1,7.5,8,14.8,7.5c14.2-0.9,28.6,0.1,42.9,0.2c2,0,4,0,6-0.4c12.9-3.2,25.8-1.5,38.7-0.2c6.3,0.6,10.7,5.8,9.8,11.7
	c-1.2,7.8-0.8,15.6-0.7,23.4c0.2,12.5-0.7,25-1.1,37.4c-0.1,3.4-1.5,4.2-4.5,4.3c-25.8,0.5-51.6,0.5-77.3-0.7
	c-6.6-0.3-13.1,1.4-19.6,1.5c-2.9,0-2.2,2.4-2.2,4.1c0.2,11.2,0.6,22.3,0.7,33.5c0.2,24.7,0,49.3,0.6,74c0.3,12.3-0.2,24.6-0.4,36.9
	c0,4.2,1.4,5.3,5.2,4.5c1.1-0.2,2.3-0.4,3.5-0.5c8.9-1.1,16.8-1,24,6.5c9.1,9.5,22.1,10.2,34.4,11c16.3,1.1,32.5-1.9,48.8-2.5
	c14.5-0.6,28.9-1.4,43.4-1.5c35.5-0.2,71,0.3,106.5,0c27-0.2,53.9-1.3,80.9-2c22.6-0.6,45.3-1.1,67.9-2c31-1.3,61.9-2.3,92.9-1.6
	c9.5,0.2,18.9,1.2,28.4,1.9c2.3,0.2,4.1,1.2,5.6,2.8c6.5,6.7,13.3,13.2,20.7,18.8c4.4,3.3,5.7,7.5,5.5,12.5
	c-0.2,6.8,2,12.9,3.6,19.4c3.2,12.5,12.5,20,20.1,28.8c28.8,33.6,60.1,64.7,93,94.2c25.5,22.9,52,44.8,78.1,67
	c27.5,23.4,55.1,46.8,82.7,70.2c37.4,31.6,74.5,63.6,113.1,93.7c15.6,12.2,30.2,25.6,44.7,39.1c27.1,25.1,56.8,46.7,89,65
	c1.3,0.7,2.5,1.6,4.2,2.7c-14.6,10.4-24.6,25.1-39,35.3c-14.4,10.2-27,22.7-41.5,32.9c-8.5,5.9-16.9,12-27.5,13.5
	c-3.5,0.5-2.4,3.1-2.4,5c0,18.8,0,37.7,0.1,56.5c0,3.2-1,5.3-3.4,7.7c-20.6,20.3-41.8,40.2-55.6,66.3c-0.5,1-1.2,2.2-2.1,2.7
	c-8.4,5-11.9,12.5-12.4,22c-0.8,15.2-4.3,29.9-7.2,44.8c-3.3,17.1-3.7,34.4-4,51.7c-0.4,18.7-0.6,37.3-0.3,56
	c0.5,30.3,1.3,60.6,2.2,90.9c0.3,9.5,1.1,18.9,2,28.4c0.8,9,4.9,16.2,12.5,21.2c2.7,1.7,4.5,3.6,5.3,6.8c1,4.4,3.7,7,8,8.7
	c10.8,4.3,20.5,10.4,28.6,18.8c1.7,1.8,3.4,3.7,6.4,3.1c1.4-0.3,2.2,0.6,3,1.4c7.8,7.5,16.5,14,25.5,20c3.1,2.1,4.6,4.8,5.7,8.3
	c3.6,11.7,0.6,23.1-0.4,34.6c-1.4,15.7-3,31.4-2,47.3c1.9,28.3,1.9,56.6,2.3,84.9c0.1,4.9-0.7,9.6-2.5,14.2c-1.4,3.6-1.6,7,1.4,10.5
	c5.7,6.8,4,16.4-3.3,22c-4.7,3.6-10.4,5.1-15.9,7c-40.5,14.2-82.1,23.8-124,32.4c-79.9,16.4-158.3,39.2-237.4,58.9
	c-60.9,15.2-121.2,32.3-181.6,49.5C2077.1,2222.6,2074.6,2223.3,2072,2224z"/>
<path class="st4" d="M1436.4,1064.4c-4.8,0-7.8-0.8-9.1-4.3c-1.3-3.6,0.4-6.5,2.8-9c8.6-8.7,19.3-14.1,30.1-19.4
	c15.8-7.8,31.8-15.4,48.2-21.8c1.8-0.7,3.2-1.6,4.3-3.2c10.8-16.4,36.3-20.6,53.5-3c10.9,11.2,22,22.3,34,32.4
	c40.7,34.5,83.6,66.2,126.6,97.7c39.8,29.1,81.7,55.2,122.3,83.2c14.5,10,28.9,20.3,42.5,31.6c7,5.8,12.2,13,16.9,20.8
	c3,5.1,8,9.1,12.2,13.5c9.6,10,20.1,19,31.1,27.3c6.2,4.7,6.6,5.7,3.8,12.8c-1.1,2.9-1.2,5,0.4,7.8c5.5,9.9,0.8,17.3-10.4,17.2
	c-4.6-0.1-9-0.8-12.7-3.7c-1.6-1.2-3.2-1.4-5.1-1.5c-51.8-2-103.3-6.6-154.8-12.8c-6.1-0.7-10.8-3.4-13.5-9
	c-0.9-1.8-1.9-2.3-3.8-2.4c-21.4-1.2-42.9-2-64.3-4c-35.1-3.2-70.2-2.4-105.3-3.9c-24.8-1.1-49.5-3.2-74.3-4.7
	c-28.8-1.7-57.6-1.4-86.4-1.4c-51.4,0.1-102.5-3.8-153.7-7.5c-15.1-1.1-30.4-0.5-45.3-3.3c-21.1-4.1-42.8-4.3-63.7-9.1
	c-8.1-1.8-15.2-2.8-22.7,1.8c-3.2,1.9-7.2,2.5-11.1,1.8c-6.3-1.1-10.1-4.7-11.2-10.5c-0.9-4.9,1.4-10.3,6.6-12.8
	c3.6-1.8,4.4-3.6,3.8-7.6c-1.7-11,2.6-19.9,11.2-26.7c6.6-5.2,14.2-8.7,21.6-12.5c30.7-15.4,60-33.3,91.1-47.9
	c42.7-20.1,83.9-42.9,125.1-65.7C1397.5,1093.5,1415.9,1078.7,1436.4,1064.4z"/>
<path class="st4" d="M2223.4,813.9c-9.5,1.9-18.3,1.6-27,2c-31.8,1.4-63.6,1.8-95.3,3.5c-26.4,1.4-52.7,4.3-79.1,6.3
	c-16.8,1.3-33.5,2.3-50.3,3.2c-66.7,3.8-133.4,5.9-200.2,5.1c-18.5-0.2-37,0.1-55.2-3.9c-18.3-4-28-19.9-22.2-36.1
	c1.9-5.2,6.2-8.8,8.3-14c0.9-2.3,4.6-2.2,7.2-2.7c19.1-4,38.6-5.3,58-5.9c32.3-0.9,64.6-0.9,96.9-2.4c70.4-3.4,140.9-2.7,211.3-4.1
	c34.6-0.7,69.1-4,103.7-6.2c4.8-0.3,9.7-0.1,14.5-0.2c3.5-0.1,5.1,2.8,7.6,4.3c7.1,4.5,10.4,10.6,9.4,19.2
	c-0.6,5.4,2.3,10.3,3.4,15.4C2215.5,803.8,2219.3,808.4,2223.4,813.9z"/>
<path class="st4" d="M1351.3,1444.7c9,1,17,1.8,25.1,2.7c17.5,1.9,35,4,52.5,5.6c23.4,2.1,46.7,3.9,70.1,5.8
	c11.1,0.9,22.2,1.7,33.4,2.2c28.9,1.2,57.9,2,86.8,3.3c26.8,1.2,53.5,3.3,80,7c5.9,0.8,11.8,2.1,17.1,5.2
	c9.4,5.4,14.7,13.4,14.4,24.5c-0.1,3.8,0.1,6.3,4.7,6.7c2.2,0.2,4.3,1.6,6,3.3c1.3,1.3,1.9,2.9,1.3,4.6c-0.6,2-2.5,1.4-3.8,1.3
	c-17.2-0.2-34.3-1.4-51.3-3.3c-21.4-2.3-42.9-2.5-64.3-3.5c-22.3-1.1-44.5-3.3-66.6-5.5c-18.7-1.9-37.4-3.6-56.1-5.4
	c-23.4-2.2-46.7-4.3-70.1-5.7c-24.4-1.5-48.8-3.4-73.3-0.6c-3.1,0.3-4.1-0.4-3.9-3.7c0.5-8.8,0.8-17.6,1.1-26.4
	C1354.4,1456.6,1354.5,1450.8,1351.3,1444.7z"/>
<path class="st4" d="M1123.4,1549.5c10.8-9.2,21.8-7.9,32.6-7.3c14,0.7,27.9,1.8,41.8,2.7c15.8,1,31.5,2.1,47.3,3.1
	c0.8,0.1,1.7,0.1,2.5,0.4c18,7.2,37.6,7.2,56,12.6c3,0.9,7.8,0.8,8.2,4.3c0.3,3-4.2,4.3-6.9,5.7c-6.7,3.5-13.9,5.4-21.1,7.6
	c-2,0.6-3.6,1.3-4.8,3.2c-3.3,5.2-7.4,7.2-14.2,6.4c-18-2.1-36.2-3.1-54.2-4.4c-18.8-1.3-37.5-2.5-56.3-3.7
	c-7.7-0.5-15.4-0.6-22.9,0.7c-4.5,0.8-4.4-1-4.1-4c0.7-7.6,1.4-15.2,2-22.9C1129.5,1551,1130.3,1547.4,1123.4,1549.5z"/>
<path class="st4" d="M1826.5,1623.5c-3,0-6-0.1-9,0c-12.4,0.3-20.5-10.5-17-22.6c3-10.5,13-15.9,25.5-13.6
	c6.9,1.3,13.8,2.4,20.5,4.4c11.7,3.6,23.4,2.1,35.1,1c36.9-3.7,71.1,6.8,104.9,19.5c1.9,0.7,3.6,1.8,5.3,2.8
	c1.4,0.8,3.2,1.8,2.9,3.7c-0.3,2-2.3,2.2-3.9,2.4c-6.1,1.1-12.2,1.4-18.4,1.4c-3.1,0-3.9,0.9-3.7,4c0.5,7.3,0.3,6.9-7.4,6.7
	c-27.5-1-54.7-5.1-82.1-6.5c-17.6-0.9-35.2-2.3-52.8-3.5C1826.5,1623.3,1826.5,1623.4,1826.5,1623.5z"/>
<path class="st5" d="M2072,2224.2c-9,0.1-18,0.2-27.1,0.3c0.7-17-1.3-33.9-2.4-50.9c-3.4-52.2-6.4-104.4-6.5-156.8
	c0-11.4-1.7-22.5-3.5-33.7c-0.8-5.2-3.3-8.2-6.2-11.9c-9.4-12.2-17-25.5-21.6-40.3c-0.7-2.2-0.9-4.6-1-6.9c-0.2-4.4-2.6-6.9-6.7-7.3
	c-4.4-0.4-6.2,2.9-6.9,6.5c-1.2,5.9,0.4,11.6,2.3,17.1c0.5,1.4,0.9,2.8,1.6,4.9c-5.3-1.9-7.9,1.1-10.7,4.4c-3.3,3.8-7.9,5.5-13,5.3
	c-20.3-0.9-40.6-2-60.9-2.6c-20.5-0.7-40.8-2.8-61.1-5.3c-11.9-1.5-23.8-3-35.5-5.5c-7.4-1.6-14.9-0.3-22.2-2.2
	c-1.1-0.3-2,0.2-2.1,1.4c-0.4,3.5-2.1,6.6-2.3,10.2c-2.5,52.9-3,105.9-2.1,158.9c0.5,29,0.1,58-0.1,87c0,2.2,1.7,5.6-3.3,5.3
	c-7.8-0.3-8.4-0.5-8.4-5.6c-0.1-48,0.1-96-0.3-144c-0.3-33.7-0.8-67.3-2.5-100.9c-0.2-3.1,0.4-5.8,2.4-8.4
	c5.5-7.3,10.4-15.1,16-22.3c6.7-8.7,8.8-19.5,11.9-29.8c3.6-11.9,2.9-24,2.9-36.1c-0.2-55.3-0.5-110.6-1-166
	c-0.2-23.5,0-47-1.4-70.5c-0.5-8.2-1.5-16.2-3.3-24.2c-0.5-2-0.7-3.7-3.8-2.5c-2.7,1-5-1.3-7.2-2.8c-8.3-5.8-14.7-13.5-20.7-21.6
	c-7.3-9.9-14.6-19.9-20.6-30.7c-2.3-4.2-6-7.2-10.1-9.4c-2.6-1.4-3.9-3.3-4.6-6.1c-1.6-6.1-3.2-12.2-5.2-18.3
	c-1.6-5.1-3.5-10.1-8.3-13.3c-2.1-1.4-1.8-3.9-1.9-6c-0.1-2.7-1.3-3.5-4-3.7c-36.9-2.6-73.7-5.4-110.5-8.1c-32-2.4-64.1-4.7-96.1-7
	c-33.4-2.4-66.7-4.7-100.1-7c-6-0.4-12-0.8-17.9-1.6c-3-0.4-4,0.2-4.2,3.4c-1.2,17.4-2.7,34.9-5.6,52.1c-0.8,4.8-2.3,9-7,11.5
	c-3,1.6-2.8,5.4-5.3,7.6c-11.6,10-23,20.3-33.1,31.8c-7.8,8.9-13.4,18.9-14.4,31.1c-2.4,28.4-5.8,56.7-5.1,85.2
	c0.8,27.3,2.7,54.5,3.5,81.8c0.7,23.5,2.6,46.9,3.6,70.3c0.5,11.9,1.6,23.9,1.3,35.8c-0.1,1.8,0.7,3.2,1.8,4.5
	c4.3,5.2,7.2,11.2,9.1,17.6c0.7,2.4,1.8,4,4.3,4.9c8.3,3.2,12.2,9.5,13.5,18.2c4.9,31.8,6.9,63.9,7.9,96
	c1.5,50.8,2.8,101.6,4.3,152.4c0.1,4.3-1.4,4.7-4.8,4.2c-11.5-1.7-23-3.4-34.6-4.8c-3.3-0.4-3-2.3-3.2-4.5
	c-3.2-30.5-4-61.2-5.1-91.8c-1.1-31.3-0.9-62.6-1-94c0-16.8-2.2-33.6-5.9-50c-0.7-3.1-1.4-6.1-0.3-9.3c0.8-2.5,0-3.5-2.8-3.5
	c-15,0-29.9-1.2-44.9-1.9c-21.8-0.9-43.6-1.1-65.4-2.3c-19.3-1-38.5-2.1-57.5-5.9c-3.4-0.7-6.9-1.2-9.8-3.4c-2.1-1.6-3.6-3.3,0-5.1
	c2.8-1.4,5.3-3.4,7.5-5.7c3.1-3.2,7.3-2.6,10.8-2.6c25,0.2,50,0.8,74.9,1.3c19.1,0.4,38.3,0.9,57.4,1.5c2.3,0.1,3.5-0.2,2.6-3
	c-5.9-17.5-5.2-35.8-6.3-53.9c-2-35.2-3.4-70.5-4.8-105.8c-0.7-18.1-1-36.3-1.3-54.5c-0.1-3.5-0.1-5.4-4.9-4
	c-8.2,2.4-16.5-0.3-24.7-1.2c-24.5-2.6-48.9-5.7-73.4-8.7c-8.6-1.1-17.1-2.8-25.5-4.7c-2.3-0.5-3.4-1.2-3.7-3.8
	c-0.4-4.6-1.1-9.3-2-13.8c-0.6-2.9,0.2-3.6,3.1-4c18.3-2,36.6-0.6,54.9,0.6c17.3,1.1,34.5,2.4,51.8,3.6c7.8,0.5,15.6,1.1,23,3.8
	c1-1.7,0.6-3.4,0.6-5c0.1-17.2-0.4-34.3,0.9-51.4c0.3-4.1,1-7.8,4.1-10.9c1.4-1.4,2.6-3.4,1.8-5.4c-0.9-2.3-3.3-1.7-5.3-1.8
	c-20.8-1-41.6-2.1-62.4-2.8c-17-0.5-34,1.1-51-0.4c-7-0.6-13.9-1.1-20.9-1.7c-1.4-0.1-3.2,0.1-3.1-2.2c0.1-1.6,0.2-2.9-2.1-3
	c-2.6-0.2-2.3,1.7-2.9,4.2c-1-3.5-3-4.6-5.7-5.3c-7-2-12.7-6.1-17.7-12.2c7.6-1.9,14.6-1.8,21.3-0.3c15.7,3.3,31.5,2.7,47.2,2.5
	c31.9-0.5,63.6,1.3,95.2,5.5c10.7,1.4,18.7,0,27.2-7c12.5-10.2,26.6-18.4,41.5-24.8c7.2-3.1,9.7-10,14.5-15.1
	c1.4-1.5,0.8-4.2,0.9-6.3c0.2-11.6-0.7-23.4,2.1-34.8c0.6-2.3-0.4-3.5-2.5-4c-1.3-0.3-2.7-0.4-4-0.3c-22.7,1.6-45.1-1-67.7-2.7
	c-18.8-1.4-37.5-2.7-56.3-4.3c-21.9-1.8-43.8-3.9-65.6-5.7c-21.7-1.8-43.4-4.1-65-7.3c-8.9-1.3-17.7-2.8-26.4-5.3
	c-2.4-0.7-3.6-1.8-3.5-4.5c0.1-3.5-0.1-7-0.5-10.5c-0.4-3.1,0.8-3.9,3.8-4.2c10.9-1.2,21.6,0.3,32.4,0.8c16.9,0.8,33.9,2.4,50.8,3.5
	c24.4,1.7,48.8,3.2,73.2,4.8c21.4,1.4,42.8,2.8,64.3,4.3c22.1,1.5,44.2,3.2,66.2,4.7c21.3,1.5,42.5,2.8,63.8,4.3
	c22.4,1.5,44.8,3.2,67.2,4.7c20.8,1.4,41.5,2.8,62.3,4.3c21.1,1.5,42.2,3.1,63.2,4.7c19.6,1.4,39.2,2.8,58.8,4.3
	c24.4,1.8,48.8,3.8,73.2,5.7c16.3,1.2,32.5,2.2,48.8,3.3c23.6,1.6,47.2,3.3,70.7,4.8c17.9,1.2,35.9,2.2,53.8,3.2
	c37.7,2.1,75.5,2.5,113.2,5.9c6,0.5,12,0.8,17.9,1.3c2.4,0.2,3.3-0.6,3.1-3.1c-1.4-13.8-0.5-27.6-1-41.5c-0.2-7.1-2.4-9.2-9.5-9.7
	c-32.6-2.4-65.1-3.9-97.8-5c-45.9-1.6-91.9-3.1-137.8-5.1c-34.3-1.5-68.5-3.5-102.7-6c-38.8-2.8-77.6-6.5-116.4-9.5
	c-30.2-2.3-60.4-4.3-90.7-6.3c-39.4-2.7-78.8-4.5-118.2-6.1c-26.5-1.1-52.9-2.4-79.3-3.9c-38.1-2.1-76.1-4.4-114.2-6.7
	c-22.8-1.4-45.5-2.5-68.3-4.3c-23.2-1.9-46.5-3.2-69.4-7.8c-1.6-0.3-3.2-0.9-4.9-1.2c-4.8-0.9-7.2-3.3-6.8-8.5
	c0.3-3.5-0.8-7-2.9-9.9c-2.2-3-0.7-4,1.9-4.9c3.3-1.2,6.8-1.5,10.3-1.6c16.3-0.4,32.6,1,49.3,1.6c-1.8-4.6-3.8-9-3.7-13.8
	c0.1-4.8,1.9-9,3.9-13.5c-8.2-1.7-15.5-2.3-23.1,2.7c-10.8,7.1-22.4,13.1-33.8,19.4c-4.4,2.4-8.8,5.3-14.3,5.1
	c-3.7-0.1-5.9,3.5-8.8,5.4c-3.2,2-5.4,1.7-8.3-0.7c-7.6-6.6-7.6-6.3,0.4-11.9c13.6-9.6,27.4-19,40.5-29.2
	c16.9-13.2,36.4-22.2,54.3-33.7c39.8-25.5,79.6-51.1,118.7-77.8c23.7-16.1,48.6-30.4,72.9-45.5c74.3-45.8,148.1-92.5,221.5-139.7
	c3.5-2.3,7-4.5,10.7-6.4c8.2-4.3,15.4-9.8,22.4-15.6c8.4-7,13.2-7,22.7-1.5c15,8.6,29,18.9,40.7,31.3
	c41.5,43.9,89.4,80.3,135.7,118.6c47.2,39.1,94.9,77.6,140.8,118.3c41.8,37,86,71.2,128.7,107.1c3.7,3.1,7.6,5.9,11.7,8.5
	c20.8,12.9,39.1,28.9,57.3,45.1c4.1,3.6,8.7,6.6,12.6,10.4c3.6,3.5,8,2.9,11.5-0.4c29.2-27.5,58.5-55,87.6-82.6
	c3.9-3.7,4.3,0.5,6.4,2.1c2.1-4.7,5.9-6.4,10.6-7.3c27-5.3,54.3-8.3,81.4-12.6c45.9-7.3,91.8-14.4,137.7-21.8
	c41.9-6.7,83.8-13.5,125.7-20.6c34.3-5.8,68.5-12.2,102.7-18.4c18.7-3.4,37.4-6.6,56.2-9.2c1.5-0.2,3-0.2,4.4,0.6
	c7.8,4.8,15.6,9.6,23.7,14.6c-11.3,8.5-19.3,19.9-30,28.3c-13.8,10.7-26.8,22.4-40.9,32.8c-6.3,4.6-12.4,9.5-19.2,13.6
	c-4.9,2.9-9.9,5.9-15.5,6.7c-4.6,0.6-5,2.8-5,6.6c0.2,18.5,0,37,0.3,55.5c0.1,4-1.2,5.9-5,6.4c-0.7,0.1-1.3,0.3-1.9,0.5
	c-7.6,2-7.7,2-7.9,9.5c-0.1,2.6-1.6,3.9-3.1,5.4c-13.7,14.6-27.9,28.8-37.8,46.4c-2.5,4.5-5.1,8.7-9.6,11.8
	c-4.6,3.1-7.1,8.2-7.4,13.7c-1.2,19.5-6,38.5-8.9,57.7c-1.6,10.1-2.3,20.2-2.5,30.4c-0.5,20.5-0.7,41-0.7,61.5
	c0,4.4-0.6,7.5-5.6,7.9c-0.6,0.1-1.3,0.3-1.3,1.2c0.2,0.2,0.4,0.7,0.5,0.7c6.3-0.4,6.2-0.4,6.4,6.1c1.2,36.1,1.1,72.3,3.8,108.3
	c0.8,11.1,5,19.9,14.8,25.6c2,1.2,2.5,3.1,3,4.9c1.3,4.6,3.9,7.5,8.6,9.4c10.7,4.3,20.5,10.4,28.5,19c1.6,1.7,3.2,3.6,5.9,2.8
	c1.5-0.4,2.1,0.5,3,1.3c8,7.9,17.1,14.3,26.3,20.6c2.8,1.9,4,4.4,5,7.6c3.5,11.5,1.1,22.8-0.3,34.2c-3,23.1-2.1,46.2-1.1,69.3
	c1,21.5,1,43,1.4,64.5c0.1,4.7-0.8,9.2-2.6,13.6c-1.4,3.4-1.4,6.8,1.5,10.1c5.8,6.7,4.1,16.3-3.2,22c-4.6,3.6-10.1,5-15.4,6.9
	c-53.9,19.1-110,29.2-165.5,41.5c-55.6,12.4-110.3,28.4-165.5,42c-69,17.1-137.4,36.2-205.9,55.4
	C2081.5,2221.2,2076.8,2222.7,2072,2224.2z M1122,1273c0.1,0.4,0.2,0.7,0.3,1.1c0.6,0.1,1.3,0.3,1.9,0.3c28.7,1.9,57.5,3.7,86.2,5.6
	c28.7,1.9,57.4,4,86.2,6c25.9,1.8,51.8,3.5,77.7,5.3c31,2.2,62.1,4.4,93.1,6.6c22.9,1.6,45.8,2.9,68.7,4.4
	c32.9,2.2,65.8,4.4,98.6,6.6c22.4,1.5,44.9,2.7,67.3,4.5c33.5,2.7,67,5.6,100.5,8.6c27,2.5,54,5.4,81,7.9c8.3,0.8,16.6,2.5,24.8,0.9
	c4.2-0.8,8.2-1.2,12.3,0c9.2,2.6,18.5,3.8,28,4.5c1.9,0.1,3-0.4,3.9-2.2c1.1-2.2-0.4-3-1.7-4c-20.8-16.2-41.4-32.5-62.3-48.5
	c-55.2-42.2-111.1-83.4-165.7-126.4c-58.9-46.3-116.2-94.3-167.4-149.1c-2.5-2.7-11.9-3.3-15-1c-26.9,20.3-55.1,38.7-83.2,57.2
	c-100.8,66.3-203.2,130-305.7,193.5C1141.8,1260.8,1131.9,1266.9,1122,1273z M1799.9,1919.6c1.3,0.1,2.1,0.3,2.8,0.3
	c9,0.2,18-0.5,23.1,9.8c1.9,3.8,6.2,3,8-1.5c1.7-4.3,4.3-4.6,8.1-4.1c20,2.6,40,4.5,60.1,5.6c18.9,1,38,0.8,56.9,1.5
	c4.1,0.1,5.9-1,5.8-5.1c0-1.1-0.5-2.6,0.8-3.1c1.4-0.6,2.5,0.6,3.6,1.3c1.5,1,2.2,2.4,2.1,4.3c-0.1,1-0.7,2.5,1.2,2.6
	c2.1,0.1,1.7-1.6,1.8-2.8c0.3-5.7,0.6-11.3,0.7-17c0.4-22.3,0.6-44.6,0.8-66.9c0.4-48.3,0.2-96.6,0.1-144.9c0-1.7,0.6-3.6-0.7-5.2
	c-6.7,4.1-8.9,4.7-17.5,4.7c-11.3,0-22.7,0.4-34-0.2c-33.9-1.7-67.9,0-101.9-2c-2.4-0.1-4.5-0.5-4.5,3.3c0.1,28.2-1,56.3,0.1,84.4
	c1.6,39.8,2.5,79.6,2.5,119.4c0,5.1-2.1,9-5.6,12.3c-2.6,2.5-5.6,3.4-8.5,0.9C1802.4,1914.3,1801.5,1916.8,1799.9,1919.6z
	 M1733.5,1482.2c2.2,6.3,4.8,12.3,6.2,18.6c2.7,11.6,7.4,21.2,16.5,29.6c9.6,8.8,16.8,20.2,24.9,30.5c1.9,2.4,4,3.6,7,4.1
	c23.8,3.3,47.6,5.6,71.5,7.5c7.2,0.6,14.3-1,21.4-0.2c25.3,3.1,50.7,4.2,76.1,6.7c9.6,0.9,18.3-2.7,27.5-3.9c3-0.4,5.2-1.7,7.4-3.6
	c14.5-12.5,29.1-25,47-32.6c2.7-1.1,3.6-2.8,3.8-5.6c0.7-9.7,1.7-19.5,2.8-29.2c0.3-2.7-0.7-3-2.9-3.2c-6.3-0.5-12.6-1.2-18.9-1.7
	c-38.8-3.1-77.8-3.6-116.7-6.1c-19.4-1.2-38.9-2.1-58.3-3.3c-31.9-2.1-63.7-4.6-95.6-6.6C1746.9,1482.8,1740.3,1481.5,1733.5,1482.2
	z M1974.8,1674c-1.2-22.6-2.5-44.5-4.9-66.3c-0.3-2.3-1.5-2.5-3.3-2.6c-11.5-0.6-22.9-1.3-34.4-2.1c-13.3-1-26.5-2-39.8-3.3
	c-25-2.5-49.9-5.3-74.9-8.1c-2.4-0.3-3,0.3-2.8,2.5c0.4,4,0.8,7.9,1.1,11.9c1,17,1.4,33.9,1.4,50.9c0,2.4-0.1,4.1,3.3,3.8
	c20.3-1.8,40.5,0.6,60.8,1.5c19.7,0.9,39.5,2.7,59.1,4.7C1951.9,1668.2,1963.5,1668.2,1974.8,1674z M1898.2,1376.9
	c-4.4-6.6-7.5-12.9-7.1-20.1c0.3-4.1-1.7-4.6-5-4.6c-7.1-0.1-14.3-0.4-21.4-0.7c-14-0.5-27.9-1-41.9-1.5c-1.3,0-3-0.2-2.9,1.7
	c0.3,7.1-2.5,13.3-5.3,19.5c-1.2,2.7,0.6,2.6,2.4,2.7c5.8,0.1,11.6,0.3,17.5,0.5C1855.4,1375.2,1876.4,1376,1898.2,1376.9z
	 M1414.3,1347.3c-5.2-5.7-9.6-11.2-11.5-18.3c-0.5-1.9-2-1.9-3.6-2c-20.6-1.5-41.1-3-61.7-4.5c-1.8-0.1-3.3-0.1-4,1.9
	c-4,11.2-12.4,16.7-23.7,18.2C1344.6,1344.1,1379.5,1345.7,1414.3,1347.3z M1302.5,1342.2c-9.9-4.1-16.6-10.6-19.2-20.9
	c-0.4-1.6-0.9-2.7-2.8-2.8c-15.9-1.1-31.8-2.2-47.7-3.4c-1.6-0.1-3-0.1-3.4,1.9c-2.1,9.6-8.4,15.9-18,20.6
	C1242.5,1339.1,1272.5,1340.7,1302.5,1342.2z M1444.6,1348.7c1.6,0.1,2.3,0.2,3.1,0.3c15.9,0.9,31.9,1.8,47.8,2.8
	c10.8,0.7,21.6,1.4,32.3,2.2c2.7,0.2,4-0.1,3.2-3.4c-0.9-3.4-1-7-0.2-10.4c1.1-4.4-1-4.9-4.6-5c-7.8-0.2-15.6-0.9-23.4-1.4
	c-15.1-0.9-30.2-1.9-45.3-2.8c-2.1-0.1-4.2-0.5-5,2.5C1451.1,1338.8,1448.3,1343.5,1444.6,1348.7z M1772.4,1372
	c-4.5-7.2-6.9-14-5.9-21.6c0.3-2.2-1-2.5-2.7-2.5c-19.6-0.8-39.2-1.7-58.8-2.6c-2.1-0.1-2.9,0.3-2.5,2.8c0.8,5.2,1.3,10.5,1.6,15.8
	c0.2,3.2,1.6,4,4.7,4.2c8,0.3,15.9,1.1,23.9,1.5C1745.7,1370.4,1758.6,1371.1,1772.4,1372z M1657.3,1364.2
	c-4.1-6.5-5.8-12.8-5.3-19.6c0.2-2.7-1.9-2.2-3.5-2.3c-10.5-0.6-20.9-1.3-31.4-1.9c-9.5-0.5-18.9-1-28.4-1.5
	c-2.1-0.1-4.1-0.2-3.7,2.9c0.6,5.4-0.9,10.5-2.9,15.9C1607,1359.9,1631.6,1362,1657.3,1364.2z M1191.9,1336.5
	c-10.6-5.6-15.8-13.5-16.9-24c-0.2-1.8-1.3-2-2.7-2.2c-13.1-1-26.2-1.9-39.3-3c-2.7-0.2-3.2,0.6-2.3,3.1c2.2,6.3,1.5,12.5-1.4,18.4
	c-2.5,5.1-2.5,4.9,3.4,5.2C1152,1334.8,1171.3,1335.6,1191.9,1336.5z M1933.4,1378c24.3,1.1,47.5,2.1,70.7,3.2
	c-13.5-10.4-27-19.7-40.6-29.1c-2.4-1.7-5.3-2-7.4-0.1c-3.4,3.1-7.1,3.2-11.2,2.6c-1.4-0.2-3.5-0.7-3.5,1.5
	C1941.5,1364,1937.8,1370.7,1933.4,1378z"/>
<path class="st5" d="M1619.1,1578.9c-1.4,10.3-8.1,13.9-17.5,15.3c-9.2,1.4-18.2,4-27.2,6.1c-4.6,1.1-8.8,3-12.5,5.9
	c-8,6.2-16.1,12.4-24.2,18.6c-3.7,2.9-6.8,6.4-9.3,10.3c-5.7,9-11.5,18-16.6,27.3c-2.3,4.2-4.7,8.2-3.9,13.5
	c0.5,3.4-1.5,6.4-3.6,9.1c-7.3,9.2-12.2,19.7-16.7,30.5c-2.9,7-4.7,14-4.6,21.7c0.8,106,1.4,212,0.5,317.9
	c-0.1,12.3,0.6,24.7-1.6,36.9c-0.4,2.1,0.2,3.1,2.3,3.4c3.9,0.7,6.3,3.1,6.6,7.1c0.3,4-2.2,6.5-5.5,8.1c-5.2,2.6-10.4,5.3-15.7,7.6
	c-5.1,2.3-9.2,6.1-13.2,9.7c-3.1,2.7-6.2,5-10.1,6.2c-18.6,6-35.2,15.8-51.6,26c-1.5,1-3.1,1.9-5,3c-2.6-9.4-2.6-18.7-3.5-27.8
	c-2-19.2-4.4-38.4-5.5-57.6c-1-16.9-0.8-34-0.7-51c0.2-33.2,0.5-66.3,1.3-99.5c1.6-66,3-131.9,3.1-197.9c0-16.6,3.6-33.1,5.1-49.6
	c1.3-14.9,8.9-27.4,15-40.4c6.4-13.5,13.9-26.5,21-39.7c2.8-5.2,6.2-9.9,10.8-13.6c33.5-27.4,72.1-41.3,115.2-43
	c16.9,4.1,34.5,0.9,51.5,4.7c1.9,0.4,6.3-1.2,4.9,3.9c0,0.1,1.7,0.8,2.6,1.1c22,6.2,39.1,19.5,53.9,36.3c1.2,1.4,2.2,2.9,2.8,4.7
	c11.8,36.2,26.2,71.6,36.1,108.5c7.8,29.2,12.2,59,14.7,89.1c3.5,42.3,6.5,84.7,6.2,127.2c-0.6,79.7,1.4,159.3,3.2,238.9
	c0.3,11.8,0.6,23.6,0.9,35.5c0.1,3.3-1,4.2-4.2,4c-12.7-0.5-12.6-0.4-13-13.2c-1.8-56.3-2.9-112.6-3.4-168.9c-0.3-34-1-68-1.8-101.9
	c-0.7-29.1-1.7-58.3-2.9-87.4c-1.3-30.1-3-60.2-4.9-90.2c-0.8-13.1-0.6-26.7-6.2-38.8c-12-26-18.8-54.4-36.8-77.6
	c-8.3-10.7-16.6-21.3-27.5-29.5c-1.7-1.2-2.6-2.9-3.6-4.7C1622.8,1582.6,1622,1580.2,1619.1,1578.9z"/>
<path class="st5" d="M1557,796c0,3.2-3.5,4.8-3.6,8.3c7.1-0.9,11.3-6.1,16.6-10.8c-0.1,5.9,3.8,6.9,7.8,8.5c7,2.7,13.7,4.3,21.2,1.3
	c3.8-1.5,12,2.7,14.3,6.2c5.2,8,10.6,15.7,17.4,22.5c1.4,1.4,2.9,2.7,4.5,4c7.6,5.9,9.6,5.5,14.4-2.3c3,2.3,6,4.7,9.2,6.8
	c4.3,2.8,5.4,2.2,7.1-2.7c0.2-0.6,0.4-1.3,0.5-1.9c0.8-5.9,2.3-11.5,5.2-16.9c1.8-3.4,3-8.3-1.6-11.6c-0.6-0.4-0.5-1.9-0.5-2.8
	c-0.6-13.8-4.9-26.8-8.1-40c-1.2-4.8-4.9-8-9.3-8.9c-9.8-2.1-19.2-6.8-29.5-5.6c-5,0.6-9.9,0.6-14.8,0.5c-3.3,0-5.6-1.5-7.8-3.8
	c-5.6-5.8-7.2-13.1-7.5-20.7c-1.4-43-2.1-85.9,0.2-128.9c0.2-4,0.6-8,1.1-11.9c0.2-1.7,0.6-3.5,3.1-2.5c8.8,3.7,17.7,1.4,26.5,0.2
	c5-0.7,10-0.2,15,0c3.3,0.2,4.2,1.6,4.1,4.7c-0.2,3.7,0.1,7.3,0,11c0,2.4,1.1,5.4-3.3,5.7c-1.7,0.1-1,2.5-1,3.9
	c0.4,23.2,0.9,46.3,1.3,69.5c0.2,10.8,0.4,21.7,0.7,32.5c0,2.1-0.5,4.3,2.4,5.3c1.8,0.6,1.2,2.6,1.1,4c-0.1,3.8,0,7.7-0.4,11.5
	c-0.3,3.8,1.4,4.4,4.7,3.9c5.4-0.7,11-0.9,16.4-1.4c2-0.2,3.5,0.3,4.9,1.8c7.3,7.6,15.7,13.4,26.5,14.7c2.8,0.3,2.7,2.6,3.2,4.4
	c4.7,16.4,9.3,32.9,14.1,49.4c1.8,6.4,4.2,12.6,8.4,17.9c3,3.8,1.6,9,3.4,13.3c-4.5,2.1-0.4,5-0.6,7.9c-2.7-0.8-5.3-1.2-7.7-2.3
	c-7.3-3.5-14.8-4.1-22.8-2.9c-7.4,1.1-14.9,1.5-22.5,2.2c8.6,11.4,19.1,19.1,32.9,22.5c8.6,2.1,14.8,8.4,23.2,13.9
	c-8.3,1.1-15-1-23.1-1.3c4.8,4.1,8.8,7.5,12.7,10.9c40.9,35.2,80.9,71.5,121.3,107.3c48.2,42.8,96.3,85.7,143.5,129.7
	c39.5,36.8,77.3,75.4,115.2,113.8c24.7,25.1,50.3,49.1,77.2,71.8c3.5,2.9,3,4.7-0.1,7.2c-1.5,1.2-2.3,1.4-3.7-0.1
	c-5.9-6.6-13.8-10.4-21.7-13.8c-7.1-3.1-13.3-7.4-19.5-12c-34.8-25.7-68.4-53.2-104.3-77.4c-2.5-1.7-4.8-3.6-6.9-5.7
	c-57.1-56.8-117.4-110-177.5-163.6c-48.6-43.4-97.1-86.9-145.6-130.4c-0.6-0.6-1.3-1.1-1.8-1.7c-15.5-23.1-38.6-38.4-58.8-56.7
	c-11.1-10.1-22.9-19.4-35.6-27.4c-10.1-6.4-20.8-11-32.9-12.3c-6.1-0.7-11.6,0.4-15.9,5.1c-1.4,1.5-3,2.6-5.1,2.8
	c-1.4-1.1,0-3-1.4-4.3c-4,4.5-7.5,9.3-12.1,13.1c-3,2.5-6.4,2.3-9.7,3.3c-3.6,1-6.3,0.4-9.4-1.9c-4.2-3.1-9.1-2.6-13.8-0.5
	c-2,0.8-3.8,1.9-5.7,2.9c-1.5-2.7,0.3-3.9,1.8-5.3c3.2-2.9,6.6-5.7,8.1-10c0.4-1.2,1.2-1.9,2.6-1.8c10.2,0.6,17.2-5.2,23.7-12
	c2.7-2.8,4.9-6,9.5-2.8c1.5,1,3.2-0.3,4.7-1C1547.6,800.1,1552,797.5,1557,796L1557,796z"/>
<path class="st5" d="M1708.6,534.3c-0.2-9.2-0.9-18.3-2.2-27.4c-0.4-3.1,0.4-4.3,3.5-4.2c9.8,0.1,19.6,0.1,29.3,1.9
	c5.9,1.1,9.4,5.9,8.5,11.7c-1.3,8.5-0.8,17-0.7,25.4c0.1,11.8-0.6,23.6-1.2,35.4c-0.1,3.1-1.3,3.9-4.2,4.1
	c-10,0.6-19.9,0.4-29.9,0.5c-3.5,0-4.9-1-4.9-4.9c0.1-3.9,0-7.9-1.1-12c-0.9-3.5,1.4-8.2,1.7-12.6
	C1707.7,546.2,1708.2,540.2,1708.6,534.3z"/>
<path class="st5" d="M1596.3,473.5c-1-19.7-2.8-39.4-5.6-58.9c-0.5-3.6,0.2-4.5,3.8-4.5c8,0,16-0.5,23.9-1c2.5-0.1,3.5,0.5,3.5,3.2
	c-0.1,22.2,4.4,43.9,7.3,65.8c0.7,5.1,1.3,10.2,3.9,14.9c1.2,2.2,0.5,3.2-1.8,3c-6.1-0.7-11.2,1.6-16.6,4
	c-8.9,4.1-17.8-1.6-18.5-11.6C1596,483.5,1596.3,478.5,1596.3,473.5z"/>
<path class="st5" d="M1628.9,1165.5c0,28.4-15.4,48.3-40.6,54.8c-6.6,1.7-12,6.1-19,7.1c-15.8,2.4-30.4-0.2-44.1-8.4
	c-2.4-1.5-4.8-3-7.3-4.3c-23-12.2-32.2-31.9-26.6-57.5c2.4-10.9,5.9-22,12.1-31c9.7-14.3,23.1-24.5,40.8-28.3
	c10.3-2.2,20.3-4.3,30.9-2.2c7.6,1.5,13.8,5.5,20.7,8.4c1,0.4,1.3,1.5,1.9,2.2C1613.7,1124,1630.3,1141.4,1628.9,1165.5z
	 M1599.2,1167.8c0-2.8-0.2-5.6-1-8.4c-4-14.6-14.6-23.3-27-30.5c-1.2-0.7-2.2-0.2-3.3,0c-11.2,2.1-20.4,7.8-28.1,16
	c-1.5,1.6-2.6,3.3-2.6,5.7c0.4,17.4,11.2,33.4,27.4,39.3C1580.2,1195.5,1600.3,1185.8,1599.2,1167.8z"/>
<path class="st6" d="M1453.1,1881.9c0-24.3,0-48.7,0-73c2-1.3,1-3.3,1-5c0.5-20.1,2.2-40.2,4.4-60.2c2.9-25.6,7-51,11.7-76.3
	c2-10.4,2.8-21,7.1-31c10-23.1,24-43.8,38.8-63.8c7.6-10.2,16.4-20.6,29.8-22.8c8.5-1.4,16.7-3.8,25.2-4.9c18.9-2.4,36.7,2,53.9,9.6
	c26.8,11.8,42.6,34.1,54.4,59.4c10.6,22.8,17.4,47.1,22.4,71.8c8.6,41.6,13.7,83.7,16.2,126.1c2.1,34.9,3.4,69.9,3.3,104.8
	c0,57.1-0.6,114.3-0.5,171.4c0,2.8,0.2,5.7,0.9,8.4c3.4,13.2-0.5,26.6,0.8,39.8c0.1,0.5-0.6,1.1-0.9,1.7c-4.7,0-9.3,0-14,0
	c-1-2.1-2.9-1-4.4-1.2c-8.1-0.8-16.3-0.9-24.3-2.4c-28-5.2-56.1-9.3-84.6-9.6c-30.5-0.3-60.8-2.7-91.3-3.9
	c-5.5-0.2-11.2-0.3-16.1-2.7c-3.7-1.8-7-2.1-10.7-0.5c-2.9,1.2-4.8,0.4-6.2-2.7c-1.6-3.5-3.1-7-4-10.7c-1.9-7.5-2.3-15.2-2.7-22.8
	c-2.1-45.4-3.5-90.8-6.3-136.2c-1.2-20.4-3-40.8-3.1-61.3C1454.1,1883,1454.2,1882.1,1453.1,1881.9z"/>
<path class="st6" d="M1513.9,1164.6c2.5-20.7,9.3-41.4,30-53.8c15.9-9.5,32.6-10.3,50.1-2.3c7.4,3.4,12.2,8.6,17.1,14.4
	c4.3,5.1,8.6,10.2,12.8,15.3c0.9,1.1,2.1,2.4,2.3,3.7c3.6,19.2,5.3,38.2-6.6,55.7c-14.3,20.9-39.3,28.8-62.8,19.3
	c-9.2-3.7-17.6-8.6-25.5-14.4C1519.1,1193.5,1514.2,1181.1,1513.9,1164.6z"/>
<path class="st7" d="M2628.8,1367.5c0,5.7-0.3,11.3,0.1,17c0.3,4-1.5,5-4.9,5.7c-30,6.1-59.9,12.6-89.9,18.7
	c-63.9,12.9-127.8,25.8-191.7,38.5c-65.6,13-131.2,25.7-196.8,38.6c-20.4,4-40.8,8-61.4,10.6c-3,0.4-6.5,1.5-8.8,0.4
	c-3.2-1.7,0-5.1,0-7.8c-0.1-19.6,2.4-39.2-0.1-58.8c-0.5-3.6-1.1-7.3-2.1-10.8c-1.2-4.3,1-5.8,4.6-6.4c5.4-1,10.1,2,13,8.7
	c2.1,5,6.2,5.8,10.3,5.3c76.3-8.1,152-20.2,227.8-31.6c51.6-7.8,103.3-15.3,154.7-24.5c46.3-8.2,92.8-15.6,139.1-24.4
	c6.1-1.2,6.1-1.2,6.1,4.9C2628.8,1356.8,2628.7,1362.2,2628.8,1367.5C2628.8,1367.5,2628.8,1367.5,2628.8,1367.5z"/>
<path class="st8" d="M2042.2,1561.4c4.7-8.4,11.2-15.3,17.5-22.2c1-1.1,2.2-1.2,3.6-1.3c58.4-2.8,115.3-14.8,172-28.2
	c32.5-7.7,64.6-17.2,97.5-23.2c52.5-9.5,104.9-19.5,157.4-29.5c34.9-6.7,69.9-13.4,104.6-21.3c1.4-0.3,2.9-0.6,4.4-0.9
	c0.4,1.9-1.1,2.5-1.8,3.4c-2.8,3.3-6.4,6.1-8.5,9.8c-6.1,10.6-16,14.2-27.1,17.1c-58.1,15.2-116.7,28.2-175.3,40.9
	c-55.3,11.9-110.6,23.5-166.3,33.4c-42.9,7.6-85.9,14.8-129.2,19.8c-14.6,1.7-29.1,3.2-43.8,2.9
	C2045.6,1562,2043.9,1562.4,2042.2,1561.4z"/>
<path class="st9" d="M2551.9,1793.2c-0.5,0.4-1.2,0.7-1.4,1.2c-6.7,15.6-19,24.9-34.7,30.1c-20.7,6.9-41.7,12.6-62.8,18
	c-28.1,7.2-55.1,17.4-82.2,27.6c-44.7,16.8-90.5,30-136.4,43c-40.8,11.6-81.2,24.4-122.4,34.1c-17.3,4.1-34.8,7.1-52.4,9.8
	c-0.7,0.1-1.3,0.3-1.5,1c-4.3,0-8.7,0-13,0c-5.5-9.9-12.4-18.8-20.4-26.9c-3.5-3.6-3.4-7.1,1-9.6c4.6-2.6,9.5-5.2,15-1.7
	c1.5,1,3.2,0.7,4.8,0.2c51.4-15.8,103.7-28.1,155.8-41.4c73-18.6,145.4-39.7,217.7-60.7c30.3-8.8,60.8-17.3,91.2-25.8
	c10.1-2.8,20.6-3.9,30-8.9c1-0.5,2.3-0.7,2.8-1.9c2,0,4,0,6,0c1,1.3,2,2.7,3,4C2551.9,1787.8,2551.9,1790.5,2551.9,1793.2z"/>
<path class="st10" d="M1580,507.1c-0.4,1.4,0.5,1.8,1.6,2c19.3,3.3,31.6,23.8,25.9,47c-3.6,14.7-10.7,25.8-25.9,29.9
	c-16,4.4-31.9-3.9-40.1-20.4c-5-10.1-7.8-20.5-3.9-31.7c1.4-4,3.4-7.7,6.7-10.4c7.6-6.1,14.9-12.9,25.1-14.5
	c1.1-0.2,1.9-0.6,1.6-1.9C1574,507.1,1577,507.1,1580,507.1z"/>
<path class="st11" d="M2736.2,1257.4c-19.4,3.8-38.8,7.4-58,11.6c-33.8,7.3-68,12.6-101.9,19c-25,4.7-49.9,9.6-75.2,12.6
	c-19.3,2.3-38.6,4.4-58,6.3c-15.1,1.5-29.9,4.3-44.7,7.2c-20.7,4-41.6,6.7-62.5,9.9c-19.2,2.9-38.4,6.2-57.6,8.6
	c-17.1,2.1-34.3,4.2-51.6,4.4c-11.8,0.1-23.6,1.1-35.3,2.9c-3.5,0.5-6.7,0-10.1-1.6c-6.7-3.2-14.4-4.2-20.9-8
	c-2-1.2-4.1-2.2-5.7-3.9c-7.8-8.5-17.5-14.9-25.4-23.2c-12.3-12.8-27.5-22-41.2-33.1c-19.4-15.5-38.3-31.6-56.2-48.8
	c-37.8-36.3-76.6-71.7-115.2-107.2c-34.3-31.6-68-63.8-102.6-95.1c-16.3-14.7-34.3-27.4-50.8-42c-31-27.4-64.5-51.5-96.1-78.1
	c-13.5-11.4-29-20.1-42.2-31.9c-11.7-10.4-23.7-20.5-36.2-29.8c-5.7-4.2-11.1-8-18.9-8.9c-14.6-1.6-27.3,2-39.2,9.7
	c-5.9,3.8-11.5,8-17.2,12c-2.9,2-6,3.6-9.4,4.5c-8.5,2.3-13.9-2.6-13.3-11.3c0.4-5.9,2.7-11.7,0.6-17.8c-0.8-2.2,1.1-3.2,2.6-4.4
	c13.2-11,29.2-16.5,44.6-23c4.3-1.8,8.8-3.2,12.9-5.3c14.7-7.3,29.2-6.4,43.7,0.7c18.1,8.8,34.6,20,49.9,33c5.7,4.8,11.7,7.2,19,6.5
	c18.1-1.7,36.2-2,54.4-1.9c13.7,0.1,27.4,0.6,41-0.2c11.9-0.6,23.9-2.7,35.8-1.6c13.1,1.2,26.3,1.3,39.4,0.8
	c41.6-1.7,83.2-3.6,124.8-4.2c22.3-0.3,44.6-1.2,66.9-1.9c36.1-1.3,72.2-2.2,108.3-4.2c27-1.5,54-4.3,80.9-7.5
	c4.4-0.5,7.4,0.6,10.3,4.1c28.3,33.2,58.6,64.5,90.8,94.1c37.9,34.8,77.7,67.3,116.9,100.7c36.2,30.9,72.3,61.9,108.9,92.4
	c25.1,21,50.9,41.3,76.4,61.9c8.5,6.9,16.3,14.7,24.3,22.2c27.2,25.7,57.2,47.8,89.6,66.6
	C2733.8,1255.1,2735.7,1255.4,2736.2,1257.4z"/>
<path class="st10" d="M2006.2,1965c-11.5-1.4-23.2-2.7-34.9-4.3c-12.2-1.7-24.5-1.8-36.8-2.7c-12.4-0.9-24.9-1-37.4-1.1
	c-23.1-0.2-46.3-0.8-69.4-2.3c-15.1-1-30.2-2.1-44.4-8.1c-1.4-0.6-2.8-1.2-3.9-2.1c-4.9-4-4.6-6.1,0.8-9c10-5.5,17.7-13.6,23.7-23.1
	c2.5-4,5.7-5.3,9.9-5.1c21.7,1.3,43.6,0.8,65.3,2.6c8.8,0.7,17.6,0.6,26.4,1c23.1,0.9,46.3,1,69.4,1.4c4.7,0.1,9.3,0.5,13.9,0.8
	c2.6,0.1,4.3,1.6,6,3.2c8.1,8,15.6,16.4,20.4,26.9c0.7,1.5,1.7,2.9,2.7,4.2c2.5,3.3,4.6,6.8,2.5,11c-2.2,4.5-6,6.5-10.9,6.7
	C2008.4,1965.1,2007.4,1965,2006.2,1965z"/>
<path class="st10" d="M1285.2,1928.3c-21.8-1.8-43.7-3.5-65.5-5.3c-17.4-1.4-34.8-2.7-52.1-4.2c-12.6-1.1-25.2-2.3-37.5-5.2
	c-6.1-1.5-12.3-3.3-17-7.8c-1.9-1.8-4.2-1.7-6.5-1.9c-2.2-0.2-4.6-0.8-5.3-3c-0.7-2.1,1.7-3,2.9-4.2c2.3-2.2,4.9-3.5,8.3-4
	c13.4-1.9,22.9-9.2,27.9-21.9c0.8-2,1.9-2.8,4.1-2.8c13.2-0.1,26.2,1.4,39.3,2.6c16.8,1.6,33.6,3.7,50.5,5.5
	c16.2,1.7,32.4,3.3,48.5,5c1.5,0.1,2.5,0.7,3.2,2c6,11.4,15,20.3,23.9,29.2c2.1,2.1,2.1,3.7,0.5,6c-4.2,6-9.9,9.2-17.1,9.8
	c-2.6,0.2-5.3,0-8,0C1285.2,1928.1,1285.2,1928.2,1285.2,1928.3z"/>
<path class="st12" d="M2542.9,1759.1c19.9,0,35.8-0.7,51.6,0.2c27.6,1.6,53.6,8.8,75.3,27.1c13.5,11.4,22.9,25.8,29.3,42.2
	c7.2,18.6,10.3,38.1,13.2,57.8c2.2,14.7,1.2,29.2,0.6,43.8c-1.7,40.5-0.7,81-1.1,121.4c-0.4,43-1.2,86-1.1,129
	c0.1,16-1.2,31.9-2.4,47.9c-1.1,14.3,0.3,28.7,1.2,42.9c2.2,32.9,4.1,65.8,5.5,98.8c0.3,6.3,1.9,10.9,8.1,14
	c8.4,4.3,13.8,12.5,20.9,18.3c10.8,8.9,15.4,19.1,15.7,33.3c0.6,22.1,4,44.1,7,66c0.4,2.7-0.3,4.4-2.7,5.7
	c-6.2,3.3-12.2,6.9-18.4,10.1c-3.8,2-7.7,3.9-11.2,6.6c-1.2,0.9-2.5,1.7-3.9,2.3c-70.1,31.4-139.3,64.6-208.7,97.5
	c-32.6,15.5-65.3,30.8-97.9,46.3c-0.8,0.4-1.6,0.6-2.3,1c-17.2,8.9-33.8,9.1-49.5-3.3c-6.3-5-14.7-4.8-21.4-9
	c-10.7-6.7-21.6-13.2-31.9-20.5c-22-15.7-45-30.2-63-50.5c-10.6-11.9-23.1-20.4-36.9-27.6c-3.4-1.8-4.8-3.8-4.7-7.7
	c0.5-26.3-0.3-52.6-1.2-78.9c-0.3-8-1.2-15.9-2.1-23.9c-0.3-3,0.5-4.7,3.2-6.4c19.1-12.1,37.8-24.8,56.3-37.8
	c2.6-1.8,2.6-3.9,2.6-6.4c0-40.5-0.3-81,0.1-121.5c0.2-22.4,1.1-44.9,2.4-67.2c0.9-15.2,1.5-30.5,2.4-45.7
	c1.1-19.4,2.2-38.7,3.3-58.1c0.9-15.7,2.2-31.4,3.6-47.1c1.7-19.6,3.9-39.2,5.5-58.8c1.2-14.7,3.8-29.3,3.7-44
	c-0.2-21,9.7-37.8,21.1-54.2c21-30.3,45-57.9,71.2-83.8c15.3-15.1,31.3-29.2,50-40.1c15.7-9.2,32.6-14.9,50.7-17.8
	C2506.9,1757.4,2526.9,1760.6,2542.9,1759.1z"/>
<path class="st12" d="M1073,2313.8c-26.5-1-52-0.5-77.1-3.2c-40.5-4.4-81.1-3.7-121.7-5.8c-13.2-0.7-26.1-2.8-37.7-10
	c-5.4-3.4-7.8-7.3-7.2-14.2c1.1-14.1,1.9-28.3-1.7-42.2c-0.5-2.1,0.2-3.1,1.5-4.2c4.1-3.6,8.9-5.9,14.4-6.4c2.9-0.2,4.1-1.1,3.5-4.3
	c-2.7-15-1.9-30.2-1.4-45.3c0.6-19.3-1.3-38.6-1.4-57.9c-0.2-22.8-0.4-45.6-0.6-68.4c-0.1-10-0.3-20-0.2-30c0-3.2-1.1-3.7-4-3.9
	c-6-0.4-11.9,1.1-17.4,2.7c-18.7,5.6-37.7,10.4-55,20.1c-8,4.5-15.7,9.5-21.6,16.7c-3.1,3.8-8.9,2.2-11.8-1.9
	c-6.2-8.7-4.9-18.7-5.4-28.2c-0.8-15.5-0.6-31-0.1-46.5c0.4-14.8,4.9-28.7,12.4-41.5c1.9-3.3,4.5-6.2,8.7-6.9
	c9.7-1.7,19.2-4.5,28.5-7.7c11.7-4.1,24-4.6,36.2-5.8c9.1-0.9,18.2-2.1,27.3-2.9c3.2-0.3,2.6-2.4,2.6-4.3c0.1-9.8,0.1-19.7,0.4-29.5
	c0.4-16.3,6-30.5,18-41.9c3.7-3.6,7.2-7.4,10.1-11.7c11.7-16.8,28.2-26.9,47.2-33.6c27.9-9.8,56.4-12.6,85.5-6.9
	c6.8,1.3,13.2,3.6,18.6,8.1c13.4,11,26.8,21.9,38.6,34.7c2.7,2.9,4.4,6.1,5.8,9.8c18.5,50,29.3,102,38.8,154.3
	c11.7,64.7,22.3,129.6,28.7,195.1c1.1,11.4,1.9,22.9,2.5,34.4c0.2,3.7,1.2,5.3,5.1,5.5c6.8,0.4,11.6,4.1,13.8,10.6
	c3.6,10.8,6.4,21.7,6.5,33.2c0.1,10.3-3.2,15.3-12.7,19.2c-9.6,3.9-18,9.7-27,14.7c-6.9,3.8-14,6.1-21.8,6.1
	C1091.8,2313.8,1081.8,2313.8,1073,2313.8z"/>
<path class="st12" d="M580.8,1746.1c10.8,0,21.7,0,32.5,0c7.4,0,9.9,1.6,12.6,8.7c9,23.8,17.6,47.8,26.9,71.5
	c19.9,50.7,31.5,103.4,39.2,157.1c6,41.9,10.8,83.9,19.1,125.4c6.9,34.8,15.8,69.1,26.8,102.9c4.3,13.2,10.2,25.7,17.9,37.3
	c11.3,16.9,17,35.2,18.6,55.6c1.2,15,5.9,29.7,9,44.5c1.8,8.3,3.5,16.6,5.4,24.9c0.6,2.8,0.3,5.1-1.9,7.2
	c-7.4,7.2-14.8,14.4-22.1,21.7c-0.7,0.7-1.5,1.6-2.6,1.2c-8.5-3.2-16.4,0.6-24.4,2c-30.5,5.3-61.2,9.3-91.5,15.9
	c-8.1,1.8-16.2,3.9-24.1,6.2c-3.3,1-6.2,0.8-9.2-0.4c-7.2-2.9-12.7-7.8-16.9-14.3c-20.1-31.3-32.9-65.6-42.3-101.4
	c-1.2-4.5-1.7-9.2-2.1-13.8c-0.5-6.1-0.4-12.4-3.3-18.1c-2.9-5.7-1.4-10.7,2.3-15.3c1.5-1.9,3.2-4.2,5.3-5.2
	c9.2-4.3,8-12.2,6.5-19.5c-3.6-17.6-7.8-35-11.1-52.7c-6.5-34.7-12.5-69.5-17.8-104.4c-3.8-25.2-8.3-50.3-12.2-75.5
	c-3.4-21.5-6.4-43-9.7-64.5c-2.5-16-5.4-32-7.8-48c-0.8-5.4-0.8-11-0.7-16.4c0.5-19.3,1.2-38.6,1.8-57.9c0.2-5.8,2.4-11,4.6-16.2
	c7.4-17.8,15.3-35.4,25.4-52c3.1-5,6.9-6.6,12.2-6.5C558.4,1746.1,569.6,1746.1,580.8,1746.1z"/>
<path class="st12" d="M2909.4,1772.9c0.1-11.8-1.2-23.6-0.8-35.5c0.5-12.5-12-22.2-24.3-20.7c-9.9,1.2-17.6-3.4-22.9-11.9
	c-5.6-9-6.4-18.1-1.2-27.4c2.3-4.2,5.9-7.2,9.8-9.8c1.1-0.7,2.3-1.3,3.7-1.1c6.6,1.4,13.4,1.5,19.9,4.2c17.2,7.2,35.7-4.5,39.1-24.2
	c0.7-4.3,1.2-8.6,1.1-12.9c-0.3-18.7,1.7-37.3,2-55.9c0-3.2,0.7-4.6,4.7-4.2c11.6,1.2,23.2,1.8,34.8,2.7c6.5,0.5,6.6,0.6,5.9,7
	c-1.7,15-7.1,29.1-10,43.7c-2.6,13.1-5.7,26-5.8,39.5c-0.1,12.6,9.3,24.2,21.4,27.9c13.3,4.1,26.8,6.2,40.6,7.7
	c7.1,0.8,7.2,1,7.2,8.4c0,11.7-3,23.1-4.8,34.6c-0.4,2.3-1.7,2.9-3.8,3.1c-5.4,0.5-10.5-0.8-15.8-1.7c-19.5-3.3-27.7-4.4-39.8,13.1
	c-9.5,13.8-12.8,29.4-14.7,45.6c-1.8,15.7-1.8,31.6-2.2,47.4c-0.3,12,3.7,22.6,8.8,32.9c2.6,5.2,5.1,10.4,7,15.9
	c3.5,10.3,8.8,19.4,18.6,25.1c1.5,0.9,1.8,2,2,3.7c1.6,23.9,3.1,47.8,5,71.7c2.1,26.7,4.6,53.4,7,80.1c2.2,25.7,4.8,51.4,7.8,77
	c1.4,12.1-2,24.2-2.8,36.3c-0.2,3.5-2.1,1.4-3.3,0.6c-46.5-32.2-98.5-52.5-151.9-69.6c-11.6-3.7-23.9-5.2-36-7.2
	c-11-1.8-21.5-5.7-32.8-6.2c-2.7-0.1-2.6-2.2-2.6-4c0-5.5,0.5-11.1,2.9-16.1c3.1-6.4,4.5-13.2,6.3-19.9
	c16.6-59.1,34.4-117.8,58.8-174.3c2-4.6,3.6-9.3,5.1-14.1c0.9-2.9,2-3.6,5-2.9c14.4,3.4,25.2-2,34.9-12.7
	c8.5-9.3,9.4-20.6,11.5-31.7C2908.8,1815.9,2910.2,1794.5,2909.4,1772.9z"/>
<path class="st4" d="M2758.9,2423.9c-91,46.3-184.4,87.5-275.4,133.8c-20.5,10.4-40.9,20.8-63,27.6c-14.6,4.5-28.1,3.1-41.2-4.9
	c-11.7-7.1-22.9-14.8-34.3-22.3c-23.5-15.5-47.4-30.3-71.2-45.3c-18.9-11.9-37.9-23.6-56.4-36.1c-2.8-1.9-4.6-3.8-4.7-7.5
	c-0.3-6.8-1.1-13.6-1.8-20.4c-0.3-2.4,0.5-3.9,2.7-5.3c10.4-6.6,20.6-13.4,30.8-20.3c3.2-2.1,5.7-2,9.1-0.4
	c21.1,10,39.6,24,58.2,37.7c5.3,3.9,10.8,7.1,16.6,10.2c19.1,9.9,38,20,57,30.1c5.5,2.9,10.7,6.2,15.3,10.3c3.1,2.8,5.8,3.2,9.8,1.5
	c57.9-24.9,115.7-50.1,174-74.1c44.8-18.4,90.2-35.2,135.3-52.8c3.1-1.2,5.4-0.7,7.8,1.3c11.5,9.4,21,20.7,31.6,31
	C2758.9,2419.9,2758.9,2421.9,2758.9,2423.9z"/>
<path class="st4" d="M2707.1,1857.4c-13.5-9.7-27-17.9-38.8-28.6c-2-1.8-3.9-2.7-6.6-2.9c-6.6-0.5-13.3-0.9-19.8-2.2
	c-8.2-1.5-15.8,0.1-23.4,2.9c-27.4,10-52.6,24.2-77.1,39.8c-12.2,7.8-24.5,15.4-37,22.8c-4,2.4-7,5.4-9.2,9.4
	c-33,59.4-57.9,122-74.2,188c-10.7,43.5-18.3,87.5-23.2,132.1c-6.7,61.2-6.5,122.7-5.9,184.1c0.2,19.7,0.6,39.3,1,59
	c0.1,3.9-0.3,7.7-1.1,11.4c-1.2,5.5-1.5,5.6-6.2,2.7c-15.3-9.5-29.4-20.7-44.1-31.1c-13.3-9.4-26-19.6-40.9-26.7
	c-8.2-3.9-14.9-10.5-22.9-14.9c-3.4-1.8-4.8-5.1-4.8-9.2c0.1-41.5-0.4-83,0.3-124.4c0.3-19.7,1.1-39.5,2.3-59.2
	c0.9-15.2,1.5-30.5,2.4-45.7c1.1-19.4,2.2-38.7,3.3-58.1c0.9-15.9,2.3-31.7,3.6-47.6c1.4-17.7,2.4-35.4,4.6-52.9
	c2.1-17.7,4.9-35.6,5.1-53.3c0.3-22.1,12.2-38.3,23.6-54.8c22.7-32.7,49.2-62.3,78.3-89.4c18.2-17,37.9-31.9,61.6-40.6
	c9.5-3.5,19.4-5.3,29.3-7.4c8.3-1.7,16.5-1.3,24.7-1.3c27.5-0.2,55-0.6,82.5,0.1c19.3,0.5,37.9,5.2,55.4,13.9
	c26.7,13.4,43.1,35.3,52,63.3C2703.8,1843.1,2706.2,1849.6,2707.1,1857.4z"/>
<path class="st4" d="M892.1,1829.1c24.5,0.3,48.9,1.6,73.2,5c2.3,0.3,4.1,0.9,5.4,3c2.8,4.7,7.1,7.7,11.6,10.7
	c13.5,9.2,23.5,21.6,31.7,35.5c2.4,4.2,4.4,8.7,7.1,12.6c6.5,9.5,6.2,20.9,8.8,31.5c9.3,38.5,15.7,77.5,21.4,116.7
	c3.9,26.5,6.5,53.1,8.6,79.8c1.4,18.1,2.1,36.2,3.3,54.3c0.4,6.8,0.6,13.7,2.1,20.3c2.6,12-1.5,23.1-3.4,34.5
	c-0.8,4.7-3.7,5-6.9,1.3c-1.2-1.4-1.9-2.9-4.4-2.2c-8.8,2.5-17.9,1.5-26.8,0.7c-22.6-2.1-45.2-2.5-67.9-2.2
	c-28.3,0.3-56.6,1.4-84.9-0.7c-6.5-0.5-12.9-1.3-19.4-0.7c-3.2,0.3-4-1.1-4.5-4.2c-3.2-19.4-0.7-38.9-1.4-58.3
	c-1-31.6-1.7-63.2-2.2-94.9c-0.3-15-0.3-29.9,0-44.9c0.1-4.5-1.9-8.4-2.1-12.6c-0.3-5.4,0.8-10.9,1.1-16.4
	c1.4-24.9,6.2-49.6,5.8-74.6c-0.1-3.6,0.5-7.3,0.8-11c0.3-3.8,1.9-8-3.9-9.3c-1.1-0.2-1.1-1.5-1.1-2.6c0.3-10.1-0.6-20.3,1.6-30.4
	c2.5-10.9,7.4-20.6,15.5-28.5c1.6-1.5,3.5-2.8,4.5-4.6c4.3-7.6,11-9.1,19-7.9C887,1829.4,889.6,1829.1,892.1,1829.1z"/>
<path class="st4" d="M535.5,1752.3c8.6,10.3,10.1,22.8,12.4,35c4.7,25.7,9.5,51.3,14,77c16.1,92.6,35.5,184.6,56.3,276.2
	c8,35,14.7,70.3,22.2,105.4c3.4,15.8,9.6,31.1,14.7,46.5c1.3,3.8,2.1,7.2,2.1,11c0,2.7,0.5,3.8,3.8,2.9c31.4-8.1,63.4-13.6,95.2-20
	c0.2,0,0.3-0.1,0.5-0.1c13.4-2.3,16.4,0.4,17.4,13.8c0.6,8,1.1,14.2-6.6,20.7c-7.9,6.8-15.2,13.1-25.2,16
	c-32.7,9.8-65.9,17.5-99.8,21.8c-10.3,1.3-20.6,1.6-30.9,1.2c-7.9-0.3-14.1-3.5-18.3-10.3c-11.9-19.3-22.6-39.2-31.2-60.2
	c-3.2-7.8-5.2-16.1-7.8-24.2c-0.8-2.6-0.4-4.8,2.1-5.9c9.5-4.2,7.6-12.3,6.1-19.5c-3.5-17.4-7.7-34.7-11-52.2
	c-6.9-36.8-13.2-73.7-18.8-110.8c-4.1-27.2-8.9-54.2-13.2-81.4c-3.4-21.3-6.4-42.7-9.6-64c-1.5-9.8-2.9-19.7-5-29.4
	c-1.6-7.8-1.8-15.5-1.6-23.3c0.4-18.8,1.1-37.6,1.7-56.4c0.2-5.6,1.9-10.8,4-15.9C516.5,1787.9,524.5,1769.4,535.5,1752.3z"/>
<path class="st10" d="M2598.7,1747.2c6.1,0.3,11.9,1.5,16.9,5.3c2,1.5,4.2,2.4,6.8,2.8c14.8,2,26.6,10,37.6,19.4
	c24.7,21.2,40.1,47.9,46.8,79.7c0.1,0.3-0.1,0.6-0.3,1.3c-5.9-4.2-11.9-8.1-17.5-12.4c-15.6-11.8-33.3-17.9-52.5-20
	c-10.5-1.1-19.8,3.9-29.1,7.8c-23.7,10-46.1,22.4-67.6,36.5c-8.1,5.3-16.3,10.4-24.6,15.2c-4.3,2.5-7.7,5.6-10.3,9.9
	c-4.4,7.1-9.5,13.7-15.4,19.6c-2.3,2.4-4.3,5.1-5.8,8.1c-20.7,40-38.1,81.3-50.9,124.6c-2,6.8-7.9,9.6-15,7.5
	c-5.6-1.6-9.9-5.3-14.5-8.7c-2.7-2-5.1-4-8.9-3.9c-1.8,0-3.8-1.2-5.4-2.3c-30.6-20.1-60.1-41.8-91-61.4c-4.1-2.6-5.4-5.2-4.5-10.6
	c1.3-8.1,1.7-16.5,2.2-24.7c0.5-7.4,3.9-13.4,7.3-19.4c15.6-26.8,34.8-51,55.4-74.1c11.2-12.5,22.7-24.8,35-36.3
	c21.4-20,44.3-37.7,73-46.2c6.4-1.9,12.9-2.8,19.4-4.2c5.8-1.2,11.6-2.2,17.3-3.6c8.5-2.1,17.3-3.1,26-4.7
	c14.6-2.5,29.1-5.5,43.9-5.4c1.9-0.4,4.1,0.8,5.8-1.1c5,0,10,0,15,0C2595.3,1747.8,2597.1,1746.9,2598.7,1747.2z"/>
<path class="st10" d="M2210.1,2452.9c0.1-0.1,0.4-0.2,0.4-0.2c-1.1-7.5,4.5-9.9,9.5-13.1c8.4-5.4,16.7-10.9,24.9-16.5
	c2.8-1.9,5.2-1.6,8.2-0.2c21.6,10,40.3,24.5,59.5,38.3c8.2,5.9,16.6,11.6,24.9,17.5c7.5,5.3,14.5,11.1,18.8,19.6
	c1.1,2.1,3.5,2.5,5.4,3.4c5.2,2.5,9.4,5.9,10.2,12c0.5,3.6,4.8,2.1,5.8,5c-12.2,15.6-25,30.8-41.8,42.1c-1.6,1.1-3.5,1.9-5.1,3
	c-2.1,1.4-3.5,0.7-5.2-0.8c-26.6-23.4-53.9-46-82.1-67.4c-8-6.1-16.9-10.6-25.5-15.6c-3.3-1.9-5-4.1-4.9-8.3c0-4.6-1-9.2-0.9-13.9
	c0-1.2,0.2-2.9-1.9-2.7C2210.1,2454.3,2210.1,2453.6,2210.1,2452.9z"/>
<path class="st10" d="M2283.2,2081.4c2.4-13.6,1.7-27.6,3.7-41.4c0.4-2.5,0.1-5,0.2-7.5c0.1-4.8,2.8-7.1,7.6-6.4
	c9.8,1.5,19.3,4,28.3,8.3c24.5,11.7,47.4,26.1,70.4,40.4c8,5,15.8,10.2,23.8,15.1c2,1.2,2.6,2.2,2,4.6c-6.2,26-11.6,52.2-15.4,78.6
	c-0.8,5.4-1,5.3-5.1,2c-11.9-9.7-23.9-19.2-37-27.3c-1.7-1-3.4-2.1-4.8-3.5c-18.3-19.5-40.8-33.4-62.7-48.2c-1.6-1.1-3.2-2.3-5-3.3
	C2284.8,2090.4,2281.6,2087.3,2283.2,2081.4z"/>
<path class="st13" d="M2222.3,2096.9c-2.7,3.4-4.8,5.9-6.7,8.5c-15.2,21.3-29.1,43.3-41.1,66.7c-11.6,22.6-20.3,46.2-26.9,70.7
	c-4.4,16.3-11.4,31.2-23.6,43.4c-19.6,19.6-49.2,17.1-65.3-5.6c-8.6-12.2-11.9-25.8-11-40.5c0-0.8,0-1.6,0-3.3
	c-5.3,7.2-9.9,13.8-14.9,20.1c-6.1,7.6-12.8,14.5-22.9,16.7c-11.7,2.6-21.1-1.6-28.5-10.2c-8.4-9.9-12.2-22-14.4-34.6
	c-0.4-2.2,0.9-3.4,2.4-4.6c4-3.4,5.7-7.9,5.5-12.9c-0.2-7.8,2.2-14.1,6.8-20.6c9-12.6,17-25.8,27.2-37.6
	c24-27.7,49.1-54.4,77.9-77.3c1.6-1.2,3.2-2.4,4.9-3.5c0.2-0.2,0.6-0.1,1.9-0.1c-10.2,39.2-19,78.5-26.7,119.3
	C2108.5,2142.7,2157.5,2107.9,2222.3,2096.9z"/>
<path class="st13" d="M1937.9,2285.4c-1.1,19.3-1.8,38.7-5.9,57.9c-0.1,0.3-0.1,0.7-0.2,1c-5.8,25.5-28.3,35.4-50.9,22.3
	c-16.6-9.6-28.1-24.1-38.7-39.7c-12.8-18.8-18.1-39.8-19.3-62.1c-1.5-28.3,3.5-55.9,9.5-83.4c4.8-21.8,11.4-43.1,20.9-63.4
	c3.7-7.8,8.3-15.2,13.6-22.1c0.6-0.7,1.1-1.9,2.3-1.4c0.9,0.4,0.7,1.4,0.8,2.2c4.8,32.2,19.2,60.3,37.2,86.8c3.9,5.7,7,11.6,9,18.1
	c5.4,17.7,13.3,34.5,17.2,52.6C1935.7,2264.5,1937.6,2274.7,1937.9,2285.4z"/>
<path class="st13" d="M1147.1,2004.1c5.5,3.8,10.1,6.6,14.3,10.1c32.8,27,55.8,61,70,100.9c4.7,13.3,5.5,27,0.9,40.6
	c-6.9,19.9-27,24.7-41.9,10c-9.9-9.7-14.8-22.1-17.1-35.4c-6.1-35.7-13.8-71.1-22-106.4C1149.9,2017.7,1148.7,2011.6,1147.1,2004.1z
	"/>
</svg>
