<svg id="a907a669-6134-4f6c-8188-bee3ab81b5fd" data-name="Layer 1" xmlns="http://www.w3.org/2000/svg" xmlns:xlink="http://www.w3.org/1999/xlink" viewBox="0 0 2000 2000"><defs><style>.ad38f575-c85d-42f4-a090-9320ccb46d55{fill:none;}.b8200d62-bbd5-4b41-af42-2fc371e1af09{fill:#aed76a;}.a306dbbe-d954-400d-9a19-15abc5cbfc61{clip-path:url(#b148c4d0-e8b4-4b0c-8b52-740e25db0118);}.a5321d4c-08c2-4c9f-b142-b40886e71af6{fill:#fecfae;}.fcb9fc41-930e-4382-8489-cc2dc2172c52{fill:#356f93;}.b677523d-f518-47f0-b677-30ccd296c49e{fill:#4e8bc1;}.fc5c8ea8-d656-4292-a591-4a17a6f28028{fill:#d88d3d;}.b17e6716-0560-4dcb-93fe-2827302fa8b2{fill:#efd9c4;}.ad4afe1d-0b8a-4221-8602-e9988f7ded42{fill:#62a4cc;}.a671fd96-4d1e-4f19-b40a-fbdf6b60de7f{fill:#decec2;}.e4d96205-baec-4152-b9c5-5aec976d2758{fill:#e8dbd4;}.e8f4bce4-714d-475f-8215-42419b9ae9d2{fill:#d6b192;}.a879c164-cea3-4dcd-b371-a8a0889705f7{fill:#1e1713;}.f3c2e6d1-fbb3-4c43-a18b-cc9b7b13e0af{fill:#965626;}.a49acee0-2a2d-45a6-a0fa-dffbb8716640{fill:#aa9a91;}.b920be0c-ac37-4cb9-a3ee-f3d7638f5885{fill:#c9c7d8;}.aa87737d-d510-47b5-9a9e-d88fa8d9c253{fill:#c9b8ad;}.a632c3fb-deed-4da6-aee1-cfe3b3a5eab7{fill:#807a99;}.f80746bd-fe42-4e32-81cc-20f82fe117b7{fill:#7abcdd;}.aa89d786-1ad6-49fe-95f2-a55c0d2b94fd{fill:#77a22f;}.b4bf25ce-a224-4f03-9c75-ed02c47361ea{clip-path:url(#b967abc5-3b1e-4686-b67a-819fe70ad298);}.e27abfcf-7283-4c1c-8d2d-00c0357ea4bf{fill:#8abd32;}.bcedc6a3-eae0-4eea-99ce-1b657d2e0012{fill:#afd86a;}</style><clipPath id="b148c4d0-e8b4-4b0c-8b52-740e25db0118"><path class="ad38f575-c85d-42f4-a090-9320ccb46d55" d="M1326,1238c104.9-10.5,299.7,42.6,387.9,74.9,95.7,35,186.3,156.7,135.4,269.1-55,121.3-153.3,261.7-526.8,291.7-424.7,34.2-461.7-105.4-606.1-95.4-109.5,7.5-596.5,131.7-613.3-257.9-6.3-145.4,175.8-299.2,769-305.9C1122.3,1211.62,1262,1244.42,1326,1238Z"/></clipPath><clipPath id="b967abc5-3b1e-4686-b67a-819fe70ad298"><path class="ad38f575-c85d-42f4-a090-9320ccb46d55" d="M947.3,1432l94.4,11.6a110.26,110.26,0,0,0,58.9-8.4c26.9-2.9,47.3-41.9,23.4-66-43.7-44-64.1,14-64.1,14s25.4-93.3-55-116.8c-58.4-17.1-68.3,61.2-68.3,61.2-27.7,1.5-36.8,20-36.8,20-11.4,18.1-7.8,35.7-.1,50.1C910.1,1416.92,928,1429.52,947.3,1432Z"/></clipPath></defs><path class="b8200d62-bbd5-4b41-af42-2fc371e1af09" d="M1326,1238c104.9-10.5,299.7,42.6,387.9,74.9,95.7,35,177.8,157,135.4,269.1-47.2,124.5-153.3,261.7-526.8,291.7-424.7,34.2-461.7-105.4-606.1-95.4-109.5,7.5-596.5,131.7-613.3-257.9-6.3-145.4,175.8-299.2,769-305.9C1122.3,1211.62,1262,1244.42,1326,1238Z"/><g class="a306dbbe-d954-400d-9a19-15abc5cbfc61"><path class="a5321d4c-08c2-4c9f-b142-b40886e71af6" d="M591.2,1438.62s-147,22.1-145.3,97.7,575.2,91.7,831,245.1c255.4,153.2,273.7,286,273.7,286L676,1899.92s50.1-112-88.1-148.9-530.2-210.5-99.4-337.2S591.2,1438.62,591.2,1438.62Z"/></g><path class="fcb9fc41-930e-4382-8489-cc2dc2172c52" d="M483.4,1044.72l-27.6-21.1-87.3,43.3L284.2,1090l4.6,25.1c80.6,74.9,158.4-8.5,158.4-8.5Z"/><path class="b677523d-f518-47f0-b677-30ccd296c49e" d="M569.3,964.82c-88.9,73.4-102,48.4-102,48.4l-194.1,67.6c74.5,92.9,173,6.4,173,6.4S668.7,882.82,569.3,964.82Z"/><path class="fc5c8ea8-d656-4292-a591-4a17a6f28028" d="M280,1060.42l-43.3,9.9,70.2,310.8c11.9,9.1,24.8-4.3,24.8-4.3Z"/><ellipse class="b17e6716-0560-4dcb-93fe-2827302fa8b2" cx="258.49" cy="1065.47" rx="22.2" ry="11" transform="translate(-223.13 80.54) rotate(-12.42)"/><path class="fc5c8ea8-d656-4292-a591-4a17a6f28028" d="M695.1,184.42l2.1,35.5,254.7-42.8,11.8-72.7S832.6,153.22,695.1,184.42Z"/><polygon class="ad4afe1d-0b8a-4221-8602-e9988f7ded42" points="472.5 579.62 913.9 550.72 1147 255.72 825.2 312.82 628.1 409.82 472.5 579.62"/><path class="a671fd96-4d1e-4f19-b40a-fbdf6b60de7f" d="M950.1,1416.82l-113.7-25.1-120.5-434-162.6-24.4.7-106.7-43.6-27.9,13.2-211.9,426.5-29.3S998.6,1299.32,950.1,1416.82Z"/><polygon class="e4d96205-baec-4152-b9c5-5aec976d2758" points="1201 1416.12 1366.9 1385.62 1378.9 1098.02 1194.5 1107.42 1201 1416.12"/><polygon class="e8f4bce4-714d-475f-8215-42419b9ae9d2" points="815.4 425.32 909.3 312.82 1043.2 270.92 932 178.32 804 334.52 815.4 425.32"/><polygon class="e4d96205-baec-4152-b9c5-5aec976d2758" points="1028.9 1410.72 1066 1402.92 1152.8 972.12 1327.1 807.32 1320.6 562.92 1155.8 300.62 945.9 530.82 994.1 1397.32 1028.9 1410.72"/><path class="fc5c8ea8-d656-4292-a591-4a17a6f28028" d="M933.1,179.32s59.7,79.5,74.8,88.5,25.7-10.7,25.7-10.7l-74.9-86.2Z"/><path class="e8f4bce4-714d-475f-8215-42419b9ae9d2" d="M1057.6,246.42s-59.5-63.3-78.5-94.2L951.9,177s48.3,61.5,72.2,83.5S1057.6,246.42,1057.6,246.42Z"/><polygon class="a879c164-cea3-4dcd-b371-a8a0889705f7" points="1048.9 713.02 1055 516.52 1147 479.42 1255.6 516.52 1259.6 716.12 1048.9 713.02"/><path class="fc5c8ea8-d656-4292-a591-4a17a6f28028" d="M1142.7,504.42l-4.7-42.9-3.1,241.6,7.8,2.8S1152.3,516.62,1142.7,504.42Z"/><polygon class="a671fd96-4d1e-4f19-b40a-fbdf6b60de7f" points="1066 1402.92 1148.1 1417.12 1152.8 1110.72 1063.8 1129.62 1066 1402.92"/><polygon class="e8f4bce4-714d-475f-8215-42419b9ae9d2" points="1181 1426.12 1204.2 1423.12 1206.9 1119.62 1173.4 1122.42 1181 1426.12"/><polygon class="fc5c8ea8-d656-4292-a591-4a17a6f28028" points="1145.9 1127.42 1139.9 1422.12 1181 1426.12 1181 1122.42 1145.9 1127.42"/><polygon class="e8f4bce4-714d-475f-8215-42419b9ae9d2" points="1385.9 1388.02 1418.2 1381.82 1421.6 1104.82 1378.9 1107.42 1385.9 1388.02"/><polygon class="fc5c8ea8-d656-4292-a591-4a17a6f28028" points="1369.7 1112.02 1366.9 1385.62 1385.9 1388.02 1385.9 1107.42 1369.7 1112.02"/><path class="fc5c8ea8-d656-4292-a591-4a17a6f28028" d="M1387.3,621.52h-87.7s-95.4-160-131.1-230.3l5.6-107.3C1174.2,283.92,1377.7,581,1387.3,621.52Z"/><polygon class="e8f4bce4-714d-475f-8215-42419b9ae9d2" points="1145.3 330.92 1145.3 474.92 1176.3 468.72 1182.2 267.82 1145.3 330.92"/><polygon class="fc5c8ea8-d656-4292-a591-4a17a6f28028" points="1137.8 468.72 1137.8 336.72 1145.3 330.92 1145.3 474.92 1137.8 468.72"/><path class="fc5c8ea8-d656-4292-a591-4a17a6f28028" d="M1140.1,461.52h0c-67.8,0-123.2,56.7-123.2,125.9v212.9a12.81,12.81,0,0,0,12.6,12.9h47.8a22.13,22.13,0,0,1-21.9-22.4v-194c0-50.5,40.4-91.8,89.9-91.8h0c49.4,0,89.9,41.3,89.9,91.8v194a22.13,22.13,0,0,1-21.9,22.4h37.5a12.81,12.81,0,0,0,12.6-12.9V587.42C1263.3,518.12,1207.8,461.52,1140.1,461.52Z"/><path class="f3c2e6d1-fbb3-4c43-a18b-cc9b7b13e0af" d="M1148,461.72c-2.6-.2-5.3-.3-8-.3h0c-67.8,0-123.2,56.7-123.2,125.9v212.9a12.81,12.81,0,0,0,12.6,12.9h47.8a22.13,22.13,0,0,1-21.9-22.4v-194c0-50.5,40.4-91.8,89.9-91.8h2.8v-43.2Z"/><polygon class="fc5c8ea8-d656-4292-a591-4a17a6f28028" points="1263.9 1015.62 1261.4 1142.82 1063.8 1129.62 1066.2 874.22 1263.9 1015.62"/><polygon class="e8f4bce4-714d-475f-8215-42419b9ae9d2" points="1261.4 1142.82 1493.6 1111.62 1497.2 1015.12 1261.4 1009.02 1261.4 1142.82"/><polygon class="fc5c8ea8-d656-4292-a591-4a17a6f28028" points="1314.7 621.52 1299.6 621.52 1296.2 802.92 1309.9 802.92 1314.7 621.52"/><polygon class="e8f4bce4-714d-475f-8215-42419b9ae9d2" points="579.5 826.72 579.5 913.82 560.9 915.72 554 826.72 579.5 826.72"/><polygon class="fc5c8ea8-d656-4292-a591-4a17a6f28028" points="535.2 826.02 539.2 963.22 567.7 943.72 567.7 823.32 535.2 826.02"/><path class="e8f4bce4-714d-475f-8215-42419b9ae9d2" d="M994.1,1426.12l39.1-10v-605l-39.1,7.5C994.1,818.72,949.5,1352.22,994.1,1426.12Z"/><polygon class="fc5c8ea8-d656-4292-a591-4a17a6f28028" points="994.1 818.72 994.1 1426.12 950.1 1416.82 945.9 813.22 994.1 818.72"/><polygon class="e8f4bce4-714d-475f-8215-42419b9ae9d2" points="979.2 530.82 974.4 802.92 945 798.92 941 560.72 979.2 530.82"/><polygon class="fc5c8ea8-d656-4292-a591-4a17a6f28028" points="908.6 582.62 908.6 807.32 945.9 805.12 945.9 570.32 908.6 582.62"/><path class="e8f4bce4-714d-475f-8215-42419b9ae9d2" d="M442.6,628s184.6-165.3,228.2-239.3l5.2-52.1L402.4,588.12Z"/><path class="f3c2e6d1-fbb3-4c43-a18b-cc9b7b13e0af" d="M424.2,575.92s137.3-92,251.9-239.3l-37.3,7.7s-216.9,215.6-267.5,233.9l35.8,24.1Z"/><polygon class="fc5c8ea8-d656-4292-a591-4a17a6f28028" points="371.2 578.32 394.4 629.22 442.6 628.02 424.2 575.92 371.2 578.32"/><path class="fc5c8ea8-d656-4292-a591-4a17a6f28028" d="M1444.7,629.32l-51,2.3s-176.6-208.5-219.5-346.1l-8.9-24.5,40.7-6.5S1430,615.12,1444.7,629.32Z"/><path class="fc5c8ea8-d656-4292-a591-4a17a6f28028" d="M909.3,312.82l291.3-47,18.9-32.5-9.5-41.6S981.1,260,914,270.82Z"/><path class="e8f4bce4-714d-475f-8215-42419b9ae9d2" d="M941,582.62s191.9-208,233.2-297.1v-60.1L890.5,541.22Z"/><path class="f3c2e6d1-fbb3-4c43-a18b-cc9b7b13e0af" d="M1592.9,984.12l21.1,9.3,13.6-13.5s-205.3-125.7-243.4-172.6l-37.1,3.5,94.3,94.1Z"/><path class="fc5c8ea8-d656-4292-a591-4a17a6f28028" d="M1346.1,853.62s76.9,66.4,239.4,169.6l23.6-18.5-16.1-20.6s-137.7-72-245.8-173.3Z"/><path class="b677523d-f518-47f0-b677-30ccd296c49e" d="M1576.4,990s-134.7-65.9-229.6-168.5l-225-10.7-44,10.9,223.3,176.9,63.4,12.3Z"/><polygon class="e8f4bce4-714d-475f-8215-42419b9ae9d2" points="1592.9 984.12 1585.5 1023.22 1619.2 1015.12 1627.6 979.92 1592.9 984.12"/><polygon class="f3c2e6d1-fbb3-4c43-a18b-cc9b7b13e0af" points="1585.1 994.32 1576.4 990.02 1320.6 1001.12 1329.7 1028.02 1585.1 994.32"/><path class="e8f4bce4-714d-475f-8215-42419b9ae9d2" d="M1334.8,1030.82s204.4-5.3,247.1-15.2l3.2-21.3s-230.3,16.8-259.5,15.4S1334.8,1030.82,1334.8,1030.82Z"/><path class="e8f4bce4-714d-475f-8215-42419b9ae9d2" d="M559.4,595.72l-4.8,218-17.3,2.5V600C537.4,600,555.6,596.62,559.4,595.72Z"/><polygon class="fc5c8ea8-d656-4292-a591-4a17a6f28028" points="502.7 600.02 503.1 811.22 541.7 811.22 544.1 600.02 502.7 600.02"/><path class="e8f4bce4-714d-475f-8215-42419b9ae9d2" d="M645.9,589l-3.8,224.7-13.9,2.6V593.42C628.1,593.52,642.8,590,645.9,589Z"/><polygon class="fc5c8ea8-d656-4292-a591-4a17a6f28028" points="600.2 593.52 600.5 811.22 631.6 811.22 633.5 593.52 600.2 593.52"/><path class="e8f4bce4-714d-475f-8215-42419b9ae9d2" d="M857.3,575.12l-4.6,224.7-16.7,2.6V579.62C835.9,579.62,853.6,576.12,857.3,575.12Z"/><polygon class="fc5c8ea8-d656-4292-a591-4a17a6f28028" points="802.3 579.62 802.7 797.32 840.1 797.32 842.4 579.62 802.3 579.62"/><polygon class="a671fd96-4d1e-4f19-b40a-fbdf6b60de7f" points="480.5 1016.12 480.5 1378.42 508 1384.02 518.8 1381.42 824.5 1313.02 818.2 941.42 480.5 1016.12"/><polygon class="a49acee0-2a2d-45a6-a0fa-dffbb8716640" points="517.2 1392.32 519.7 1118.82 663.9 1119.02 648.5 1355.52 517.2 1392.32"/><path class="f3c2e6d1-fbb3-4c43-a18b-cc9b7b13e0af" d="M1313.8,1007.72l22.6,10,14.6-14.5s-220.4-134.9-261.2-185.3l-39.8,3.8,101.1,101Z"/><polygon class="e4d96205-baec-4152-b9c5-5aec976d2758" points="719 1420.32 791.3 1396.12 795.5 974.62 706.5 1039.62 719 1420.32"/><path class="b920be0c-ac37-4cb9-a3ee-f3d7638f5885" d="M627.1,1352.22s-14.5-216.9,18.3-221c81.5-10.2,33.6,218.5,29.8,227.5S627.3,1356.32,627.1,1352.22Z"/><polygon class="a49acee0-2a2d-45a6-a0fa-dffbb8716640" points="591.2 1438.62 663.9 1418.62 671.3 1367.72 617.8 1376.52 581.7 1418.52 591.2 1438.62"/><path class="f3c2e6d1-fbb3-4c43-a18b-cc9b7b13e0af" d="M462.9,575.92l17.9-6.9s187.5-15.3,386.7-32.1l2.4,16.5C870,553.32,524.8,587.12,462.9,575.92Z"/><path class="fcb9fc41-930e-4382-8489-cc2dc2172c52" d="M1593.5,1157.12l122.4-84.9c-16.6,86.1-92,129.2-153.2,143.5-3.4,1-2-1-5.5,0C1477.5,1239.42,1342,1041,1342,1041l1.1-4.6Z"/><path class="b677523d-f518-47f0-b677-30ccd296c49e" d="M1343.1,1036.32s154.5,196.7,255.4,148,117.3-112.2,117.3-112.2c-100.7,50.3-134-56.6-134-56.6Z"/><path class="fc5c8ea8-d656-4292-a591-4a17a6f28028" d="M1540.7,1141.62l46.5,11.6L1504,1487c-13,9.6-26.6-5.2-26.6-5.2Z"/><ellipse class="b17e6716-0560-4dcb-93fe-2827302fa8b2" cx="1563.71" cy="1147.48" rx="11.9" ry="24" transform="translate(82.32 2399.43) rotate(-76.47)"/><path class="fcb9fc41-930e-4382-8489-cc2dc2172c52" d="M1458.4,1026.32c-12.5,46.7,67,105.9,67,105.9-104.2-50.4-83.8-104.4-83.8-104.4Z"/><path class="fcb9fc41-930e-4382-8489-cc2dc2172c52" d="M1492.2,1023.42c9.1,42.1,94,51.9,94,51.9-104.1-2.1-108.3-50.7-108.3-50.7Z"/><polygon class="e8f4bce4-714d-475f-8215-42419b9ae9d2" points="507.8 1392.32 518.5 1389.82 523 1121.82 504.6 1118.82 495.7 1290.32 507.8 1392.32"/><polygon class="fc5c8ea8-d656-4292-a591-4a17a6f28028" points="806.3 1399.92 791.2 1396.22 795.5 974.62 813.5 963.22 825.2 1105.02 821.5 1335.52 806.3 1399.92"/><polygon class="e8f4bce4-714d-475f-8215-42419b9ae9d2" points="813.5 963.22 806.3 1399.92 836.4 1391.72 844.1 941.42 813.5 963.22"/><polygon class="fc5c8ea8-d656-4292-a591-4a17a6f28028" points="474.8 1123.52 480.5 1393.92 510.4 1398.12 510.2 1118.82 474.8 1123.52"/><polygon class="e8f4bce4-714d-475f-8215-42419b9ae9d2" points="721.7 1170.72 804.9 1135.72 805.5 1103.02 713.7 1133.92 721.7 1170.72"/><polygon class="f3c2e6d1-fbb3-4c43-a18b-cc9b7b13e0af" points="805.5 1103.02 794.3 1102.62 715.9 1127.62 715.9 1133.22 805.5 1103.02"/><polygon class="b17e6716-0560-4dcb-93fe-2827302fa8b2" points="529 1367.72 627.1 1352.22 695.2 1362.92 630.9 1384.02 529 1367.72"/><polygon class="aa87737d-d510-47b5-9a9e-d88fa8d9c253" points="488.6 1395.02 488.6 1413.82 591.2 1438.62 591.2 1413.42 488.6 1395.02"/><polygon class="b17e6716-0560-4dcb-93fe-2827302fa8b2" points="488.6 1395.02 529 1385.52 630.9 1402.92 591.2 1416.12 488.6 1395.02"/><polygon class="aa87737d-d510-47b5-9a9e-d88fa8d9c253" points="529 1385.52 529 1367.72 630.9 1384.02 630.9 1402.92 529 1385.52"/><polygon class="e8f4bce4-714d-475f-8215-42419b9ae9d2" points="699.3 1426.12 719 1420.32 722.1 1132.42 690.4 1137.82 699.3 1426.12"/><polygon class="fc5c8ea8-d656-4292-a591-4a17a6f28028" points="663.9 1131.22 663.9 1418.62 699.3 1426.12 705.7 1134.32 663.9 1131.22"/><path class="e8f4bce4-714d-475f-8215-42419b9ae9d2" d="M466.8,1123.22l239,12.2,16.3-3s22.8-86.9-173.5-86.9C415.6,1045.42,466.8,1123.22,466.8,1123.22Z"/><path class="fc5c8ea8-d656-4292-a591-4a17a6f28028" d="M450.4,1127l255.3,9.2s22.8-86.9-173.5-86.9C399.2,1049.32,450.4,1127,450.4,1127Z"/><polygon class="f3c2e6d1-fbb3-4c43-a18b-cc9b7b13e0af" points="445.9 988.82 574 900.82 601 900.82 474.3 997.22 445.9 988.82"/><polygon class="e8f4bce4-714d-475f-8215-42419b9ae9d2" points="472.5 988.32 460.6 1004.32 472.5 1021.72 601 929.72 601 900.82 472.5 988.32"/><path class="ad4afe1d-0b8a-4221-8602-e9988f7ded42" d="M496.1,980.82s39.3-17.7,99.7-66.1l222.4-2.4-125.6,86.8-199.7-5.7Z"/><polygon class="fc5c8ea8-d656-4292-a591-4a17a6f28028" points="472.5 1021.72 446.6 1021.72 445.9 988.82 472.5 988.32 472.5 1021.72"/><polygon class="f3c2e6d1-fbb3-4c43-a18b-cc9b7b13e0af" points="480.5 987.32 491.4 980.62 695.4 991.12 682 1004.72 480.5 987.32"/><polygon class="fc5c8ea8-d656-4292-a591-4a17a6f28028" points="480.5 987.32 687.7 999.42 685.1 1031.72 480.5 1016.12 480.5 987.32"/><polygon class="f3c2e6d1-fbb3-4c43-a18b-cc9b7b13e0af" points="671.1 1004.62 822.1 900.92 854 900.92 704.6 1014.52 671.1 1004.62"/><polygon class="e8f4bce4-714d-475f-8215-42419b9ae9d2" points="702.5 1004.12 688.4 1023.02 702.5 1043.42 854 935.02 854 900.92 702.5 1004.12"/><polygon class="fc5c8ea8-d656-4292-a591-4a17a6f28028" points="702.5 1043.42 671.9 1043.42 671.1 1004.62 702.5 1004.12 702.5 1043.42"/><polygon class="a632c3fb-deed-4da6-aee1-cfe3b3a5eab7" points="640.2 1354.22 644.2 1134.02 649.8 1134.22 648.5 1355.52 640.2 1354.22"/><polygon class="a632c3fb-deed-4da6-aee1-cfe3b3a5eab7" points="657.2 1356.92 663.9 1358.02 663.8 1197.42 657.2 1356.92"/><polygon class="e8f4bce4-714d-475f-8215-42419b9ae9d2" points="925.2 792.82 913.9 805.12 925.2 821.72 1423.2 821.72 1423.2 798.12 925.2 792.82"/><polygon class="fc5c8ea8-d656-4292-a591-4a17a6f28028" points="484.3 808.92 484.3 834.52 925.2 821.72 925.2 792.82 484.3 808.92"/><path class="fc5c8ea8-d656-4292-a591-4a17a6f28028" d="M1048.9,867.62s82.5,71.2,257,182l25.3-19.8-17.3-22.1s-147.7-77.3-263.8-186Z"/><polygon class="e8f4bce4-714d-475f-8215-42419b9ae9d2" points="1313.8 1007.72 1305.8 1049.62 1342 1040.92 1351 1003.22 1313.8 1007.72"/><path class="f3c2e6d1-fbb3-4c43-a18b-cc9b7b13e0af" d="M913.9,525s146.3-119.4,260.3-299.6l-37.7,4.9S909.4,507,853.8,533.22L897.4,557Z"/><polygon class="fc5c8ea8-d656-4292-a591-4a17a6f28028" points="853.7 533.22 886 588.92 941 582.62 913.9 525.02 853.7 533.22"/><polygon class="e8f4bce4-714d-475f-8215-42419b9ae9d2" points="1200.5 265.82 1241.1 267.82 1250.1 208.82 1209.9 191.82 1200.5 265.82"/><path class="e8f4bce4-714d-475f-8215-42419b9ae9d2" d="M1231.4,252.32s153.9,262.4,237.7,346.4l-24.5,30.6s-172.4-215-236.7-371.2Z"/><path class="fc5c8ea8-d656-4292-a591-4a17a6f28028" d="M878.5,575.92l-415.6,33.6v-33.6s362-20.2,407.3-33.9C870.2,542,889.2,557.32,878.5,575.92Z"/><polygon class="e8f4bce4-714d-475f-8215-42419b9ae9d2" points="1347.2 621.52 1351 807.32 1309.8 807.32 1314.7 621.52 1347.2 621.52"/><path class="f3c2e6d1-fbb3-4c43-a18b-cc9b7b13e0af" d="M1246.9,706.32l-11.9-2.6-167.9-4-2.6,6.6C1064.6,706.32,1235.5,714.52,1246.9,706.32Z"/><polygon class="e8f4bce4-714d-475f-8215-42419b9ae9d2" points="1055 703.72 1259.6 706.52 1259.3 728.62 1055.5 728.62 1055 703.72"/><path class="f3c2e6d1-fbb3-4c43-a18b-cc9b7b13e0af" d="M1246.9,601.72l-11.8-2.6-167.8-4-2.6,6.6C1064.6,601.72,1235.5,609.92,1246.9,601.72Z"/><polygon class="e8f4bce4-714d-475f-8215-42419b9ae9d2" points="1055 599.12 1259.6 601.92 1259.3 624.02 1055.5 623.92 1055 599.12"/><polygon class="e8f4bce4-714d-475f-8215-42419b9ae9d2" points="1139.6 716.12 1142.9 497.72 1168.9 498.02 1168.9 715.62 1139.6 716.12"/><polygon class="fc5c8ea8-d656-4292-a591-4a17a6f28028" points="1136.2 596.72 1141.3 600.22 1141.5 586.82 1136.2 596.72"/><path class="e8f4bce4-714d-475f-8215-42419b9ae9d2" d="M1151.9,461.52h0c-67.8,0-123.2,56.7-123.2,125.9v212.9a12.81,12.81,0,0,0,12.6,12.9h47.8a22.13,22.13,0,0,1-21.9-22.4v-194c0-50.5,40.4-91.8,89.9-91.8h0c49.4,0,89.9,41.3,89.9,91.8v194a22.13,22.13,0,0,1-21.9,22.4h37.5a12.81,12.81,0,0,0,12.6-12.9V587.42C1275.1,518.12,1219.7,461.52,1151.9,461.52Z"/><polygon class="fc5c8ea8-d656-4292-a591-4a17a6f28028" points="1134.9 701.32 1139.7 704.82 1139.8 700.52 1134.9 701.32"/><polygon class="f3c2e6d1-fbb3-4c43-a18b-cc9b7b13e0af" points="841.4 1097.62 947.9 1103.02 947.9 1111.92 864.7 1121.32 841.3 1105.62 841.4 1097.62"/><polygon class="fc5c8ea8-d656-4292-a591-4a17a6f28028" points="841.3 1103.02 970 1110.72 970 1148.92 840.7 1136.82 841.3 1103.02"/><polygon class="fc5c8ea8-d656-4292-a591-4a17a6f28028" points="758 347.92 773.4 455.52 800.3 455.52 790.4 341.72 758 347.92"/><polygon class="fc5c8ea8-d656-4292-a591-4a17a6f28028" points="664 466.52 638.4 466.52 629.5 360.12 664.8 353.22 664 466.52"/><polygon class="e8f4bce4-714d-475f-8215-42419b9ae9d2" points="800.3 455.52 816.4 437.72 809 330.92 788.4 341.72 800.3 455.52"/><path class="e8f4bce4-714d-475f-8215-42419b9ae9d2" d="M611.4,386.92s92.9-108.6,126.6-149.3l-1.7-36.1L595.8,360.82Z"/><polygon class="e8f4bce4-714d-475f-8215-42419b9ae9d2" points="664 466.52 671.9 461.52 674.2 339.22 658.7 353.22 664 466.52"/><polygon class="fc5c8ea8-d656-4292-a591-4a17a6f28028" points="671.9 461.52 773.1 450.92 762.3 346.72 667.2 356.12 671.9 461.52"/><path class="ad4afe1d-0b8a-4221-8602-e9988f7ded42" d="M636.6,343.62l140.3-23.2L898,172l-161,40.8S702.3,274.72,636.6,343.62Z"/><path class="f3c2e6d1-fbb3-4c43-a18b-cc9b7b13e0af" d="M620.3,356.12l17.3-14.7s108.6-19.5,134-28.7l14.4,6.8C786.1,319.62,702.3,355.82,620.3,356.12Z"/><path class="fc5c8ea8-d656-4292-a591-4a17a6f28028" d="M620.3,356.12l.9,20.3,170.1-30.9-5.2-26C786.1,319.62,721,341.52,620.3,356.12Z"/><path class="e8f4bce4-714d-475f-8215-42419b9ae9d2" d="M951.9,177.12l29.3,4.5,20.3-65.4-37.8-11.8S942.8,149.42,951.9,177.12Z"/><path class="f3c2e6d1-fbb3-4c43-a18b-cc9b7b13e0af" d="M609.8,350.82s86.6-80.8,126.6-149.3l-31.7,4.4s-98,119.6-130.5,146.9C574.2,352.82,588.7,371.52,609.8,350.82Z"/><polygon class="fc5c8ea8-d656-4292-a591-4a17a6f28028" points="574.2 352.82 580.9 388.22 611.4 386.92 609.8 350.82 574.2 352.82"/><path class="e8f4bce4-714d-475f-8215-42419b9ae9d2" d="M802.3,346.72s96.5-112.7,131.4-155l-1.7-37.5L786.1,319.62Z"/><path class="f3c2e6d1-fbb3-4c43-a18b-cc9b7b13e0af" d="M800.6,309.32s89.9-83.9,131.4-155l-32.9,4.5S797.4,283,763.6,311.32C763.6,311.32,778.7,330.72,800.6,309.32Z"/><polygon class="fc5c8ea8-d656-4292-a591-4a17a6f28028" points="763.6 311.32 770.6 348.02 802.3 346.72 800.6 309.32 763.6 311.32"/><path class="fc5c8ea8-d656-4292-a591-4a17a6f28028" d="M1714.8,1067.82l40.9,12.3-108.3,324c-12.2,5.7-21.2-6-21.2-6Z"/><path class="b17e6716-0560-4dcb-93fe-2827302fa8b2" d="M1715,1067.22c-1.8,5.1,6.6,12.6,19,16.9s19.9,1.2,21.7-3.9-9.3-9.4-17.2-12.4C1726.3,1063.12,1716.8,1062,1715,1067.22Z"/><path class="f3c2e6d1-fbb3-4c43-a18b-cc9b7b13e0af" d="M471.4,727.22s40.2-6.7,42.5,2.7-45.4,9.9-45.4,9.9Z"/><path class="e8f4bce4-714d-475f-8215-42419b9ae9d2" d="M471.9,732.22l42-2.3s1.2,13.2-7.7,17-42.2,2.6-42.2,2.6Z"/><path class="f3c2e6d1-fbb3-4c43-a18b-cc9b7b13e0af" d="M471.5,684.32s40.2-6.7,42.5,2.7-45.4,9.9-45.4,9.9Z"/><path class="e8f4bce4-714d-475f-8215-42419b9ae9d2" d="M472,689.32l42-2.3s1.2,13.2-7.7,17-42.2,2.6-42.2,2.6Z"/><path class="f3c2e6d1-fbb3-4c43-a18b-cc9b7b13e0af" d="M467.4,685.82c-8.8-37-85.9-24.8-147.1-20.1s-35.9,103-35.9,103l7.6,5.1-.3-5.5,180.6-9.7C472.4,758.72,475,717.42,467.4,685.82Z"/><path class="e8f4bce4-714d-475f-8215-42419b9ae9d2" d="M292,773.92s-25.4-98.3,35.9-103,138.3-17,147.1,20.1c7.5,31.6,4.9,72.9,4.9,72.9Z"/><path class="ad4afe1d-0b8a-4221-8602-e9988f7ded42" d="M1330.5,898.52c2.8.9,14.9-5.5,15.6-12.6s-21.2-36.9-23.7-32.5c-1.4,2.5-5.8,6.9-9.4,10.3a7,7,0,0,0-.7,9.7C1319.3,882.52,1328.3,897.82,1330.5,898.52Z"/><path class="ad4afe1d-0b8a-4221-8602-e9988f7ded42" d="M1327.6,971.92c1.6.5,8.2-3,8.6-7s-11.9-20.4-13.3-17.9a35.74,35.74,0,0,1-5.2,5.7,3.9,3.9,0,0,0-.3,5.4C1321.4,963.12,1326.4,971.52,1327.6,971.92Z"/><path class="ad4afe1d-0b8a-4221-8602-e9988f7ded42" d="M1323.2,943.32c2.1.6,10.6-4,11.1-9.1s-15.4-26.3-17.1-23.2c-1,1.8-4.1,5-6.7,7.4a5.21,5.21,0,0,0-.4,7C1315.2,931.92,1321.6,942.72,1323.2,943.32Z"/><path class="ad4afe1d-0b8a-4221-8602-e9988f7ded42" d="M1266.5,867.52c1.8.6,9.8-3.6,10.3-8.3s-14.1-24.4-15.8-21.6c-.9,1.6-3.9,4.6-6.3,6.8a4.81,4.81,0,0,0-.5,6.5C1259,856.92,1264.9,866.92,1266.5,867.52Z"/><path class="ad4afe1d-0b8a-4221-8602-e9988f7ded42" d="M1188.1,871.32c1.8.6,9.8-3.6,10.3-8.3s-14.1-24.4-15.8-21.6c-.9,1.6-3.9,4.6-6.3,6.8a4.81,4.81,0,0,0-.5,6.5C1180.7,860.72,1186.6,870.72,1188.1,871.32Z"/><path class="f80746bd-fe42-4e32-81cc-20f82fe117b7" d="M742.1,248a5.31,5.31,0,0,0-1.2-7.1c-2.9-2.3-6.4-5.2-7.6-6.9-2.1-3.1-16.3,20.3-15.3,25.4s10.2,9.1,12.3,8.2C731.9,266.92,737.5,255.12,742.1,248Z"/><path class="f80746bd-fe42-4e32-81cc-20f82fe117b7" d="M947.5,345.42A7,7,0,0,0,946,336c-3.8-3-8.4-6.9-10-9.1-2.8-4.1-21.5,26.7-20.2,33.5s13.5,11.9,16.2,10.9C934.1,370.42,941.5,354.82,947.5,345.42Z"/><path class="f80746bd-fe42-4e32-81cc-20f82fe117b7" d="M652.7,939.92a7,7,0,0,0-.5-9.5c-3.5-3.4-7.6-7.8-8.9-10.2-2.3-4.4-24.3,24.2-23.8,31s12.1,13.3,14.9,12.6C636.6,963.32,645.7,948.62,652.7,939.92Z"/><path class="f80746bd-fe42-4e32-81cc-20f82fe117b7" d="M710.2,305.32a4,4,0,0,0-.6-5.4,35.33,35.33,0,0,1-5.5-5.5c-1.5-2.4-12.9,14.6-12.4,18.6s7.3,7.1,8.9,6.5C701.9,319.12,706.5,310.42,710.2,305.32Z"/><path class="f80746bd-fe42-4e32-81cc-20f82fe117b7" d="M762.7,471.72a4.39,4.39,0,0,0-.7-6,43.42,43.42,0,0,1-6.1-6.1c-1.7-2.6-14.3,16.2-13.7,20.6s8.1,7.9,9.9,7.3C753.5,487,758.5,477.42,762.7,471.72Z"/><path class="f80746bd-fe42-4e32-81cc-20f82fe117b7" d="M594.7,948.32a4.45,4.45,0,0,0,0-6,38.47,38.47,0,0,1-5.4-6.7c-1.3-2.8-16,14.6-15.9,19s7.2,8.8,9,8.3C583.8,962.52,589.9,953.42,594.7,948.32Z"/><path class="f80746bd-fe42-4e32-81cc-20f82fe117b7" d="M719.5,510.82a3.25,3.25,0,0,0-.5-4.4,31.47,31.47,0,0,1-4.5-4.5c-1.2-2-10.6,12-10.2,15.3s6,5.9,7.3,5.4C712.7,522.22,716.5,515,719.5,510.82Z"/><path class="f80746bd-fe42-4e32-81cc-20f82fe117b7" d="M631.5,508.62a4.5,4.5,0,0,0-.7-6.1c-2.3-2-5.2-4.6-6.2-6.2-1.7-2.7-14.5,16.5-13.9,20.9s8.2,8,10.1,7.4C622.1,524.22,627.3,514.42,631.5,508.62Z"/><path class="f80746bd-fe42-4e32-81cc-20f82fe117b7" d="M779.2,266.82a4,4,0,0,0-.6-5.4c-2.1-1.8-4.6-4.1-5.4-5.5-1.5-2.4-12.9,14.6-12.3,18.5s7.3,7.1,8.9,6.6C770.9,280.52,775.4,271.92,779.2,266.82Z"/><path class="f80746bd-fe42-4e32-81cc-20f82fe117b7" d="M868.7,457.82a4,4,0,0,0-.6-5.4c-2.1-1.8-4.6-4.1-5.4-5.5-1.5-2.4-12.9,14.6-12.3,18.5s7.3,7.1,8.9,6.6C860.4,471.52,865,462.92,868.7,457.82Z"/><path class="f80746bd-fe42-4e32-81cc-20f82fe117b7" d="M704.1,934a4,4,0,0,0-.7-5.4,40.45,40.45,0,0,1-5.5-5.4c-1.5-2.4-12.7,14.7-12.1,18.6s7.4,7,9,6.5C696,947.82,700.5,939.12,704.1,934Z"/><path class="f80746bd-fe42-4e32-81cc-20f82fe117b7" d="M701.8,959.22a4,4,0,0,0-.7-5.4,40.45,40.45,0,0,1-5.5-5.4c-1.5-2.4-12.7,14.7-12.1,18.6s7.4,7,9,6.5C693.7,973,698.1,964.42,701.8,959.22Z"/><path class="f80746bd-fe42-4e32-81cc-20f82fe117b7" d="M654.7,500.12a4,4,0,0,0-.6-5.4c-2.1-1.8-4.6-4.1-5.4-5.5-1.5-2.4-12.9,14.6-12.3,18.5s7.3,7.1,8.9,6.6C646.4,513.82,651,505.22,654.7,500.12Z"/><path class="f80746bd-fe42-4e32-81cc-20f82fe117b7" d="M793.6,228.22a4.83,4.83,0,0,0-.8-6.5c-2.5-2.1-5.6-4.9-6.6-6.5-1.8-2.8-15.4,17.6-14.7,22.3s8.9,8.5,10.7,7.8C783.7,244.72,789.1,234.42,793.6,228.22Z"/><path class="f80746bd-fe42-4e32-81cc-20f82fe117b7" d="M826.1,217.92a4.83,4.83,0,0,0-.8-6.5c-2.5-2.1-5.6-4.9-6.6-6.5-1.8-2.8-15.4,17.6-14.7,22.3s8.9,8.5,10.7,7.8C816.2,234.42,821.6,224.12,826.1,217.92Z"/><path class="f80746bd-fe42-4e32-81cc-20f82fe117b7" d="M948.5,389.22a4.83,4.83,0,0,0-.8-6.5c-2.5-2.1-5.6-4.9-6.6-6.5-1.8-2.8-15.4,17.6-14.7,22.3s8.9,8.5,10.7,7.8C938.6,405.72,944,395.42,948.5,389.22Z"/><path class="ad4afe1d-0b8a-4221-8602-e9988f7ded42" d="M1459.2,962.42c2.8.6,14-7,13.9-14s-24.8-34-26.8-29.4c-1.1,2.6-5,7.3-8.2,11.1a7.12,7.12,0,0,0,.4,9.7C1446.5,947.82,1456.9,961.92,1459.2,962.42Z"/><path class="f3c2e6d1-fbb3-4c43-a18b-cc9b7b13e0af" d="M741.7,437.22c11.6-12.6,10.7-41.7-7.1-54.4s-39.2-7.4-51,14.5c-6.6,12.2-3.9,24.8-.1,33.6,4.3,10.3,12.9,16.6,23,19.3C720.4,453.72,733.3,446.42,741.7,437.22Z"/><path class="a632c3fb-deed-4da6-aee1-cfe3b3a5eab7" d="M736.5,433.92c9.3-10.1,9.4-34.4-4.8-44.6s-31.4-5.9-40.9,11.7c-5.3,9.7-3.1,19.9-.1,26.9,3.4,8.2,10,14.4,18.1,16.5C720,447.22,729.8,441.22,736.5,433.92Z"/><path class="b920be0c-ac37-4cb9-a3ee-f3d7638f5885" d="M733.2,430.62c9.3-10.1,9.7-34.8-4.8-44.6a28,28,0,0,0-40.9,11.6c-3.6,7.6-3.1,19.9-.1,26.9,3.4,8.2,10,14.4,18.1,16.5C716.7,443.92,726.4,437.82,733.2,430.62Z"/><path class="f3c2e6d1-fbb3-4c43-a18b-cc9b7b13e0af" d="M716.4,417.82h0a3.4,3.4,0,0,1-1,.1c-6.8-1.4-13.4-8.7-14.3-11.1a3.11,3.11,0,0,1,1-2.8c.2-.2.4-.3.6-.5a2,2,0,0,1,2.8.8c2.9,4.9,8.4,7.8,11.2,9A2.42,2.42,0,0,1,716.4,417.82Z"/><path class="f3c2e6d1-fbb3-4c43-a18b-cc9b7b13e0af" d="M715.6,402.42h0a4.48,4.48,0,0,1,.1,1.1c-1.2,7.5-8,15.5-10.1,16.5-.9.5-1.9-.1-2.6-.8a.1.1,0,0,1-.1-.1,2.47,2.47,0,0,1,.5-3.6c4.5-3.5,7.1-9.7,8.2-12.9C712.3,400.42,715.1,400.42,715.6,402.42Z"/><path class="f3c2e6d1-fbb3-4c43-a18b-cc9b7b13e0af" d="M794.1,698.62c.1,29.7-37,65.7-76.3,57.8s-61.3-41.8-50.3-82.8c6.1-22.8,25.2-34.2,40.9-39.8,18.4-6.5,38.7-5.2,55.5,4.8C786.9,652.32,794,677,794.1,698.62Z"/><path class="fc5c8ea8-d656-4292-a591-4a17a6f28028" d="M783.6,698.12c.1,29.7-36.9,65.7-76.3,57.8s-61.4-41.8-50.4-82.8c6.1-22.8,25.2-34.2,40.9-39.8,18.4-6.5,38.7-5.2,55.5,4.8C776.3,651.82,783.5,676.52,783.6,698.12Z"/><path class="a879c164-cea3-4dcd-b371-a8a0889705f7" d="M767.6,694.72c1.2,22.5-25.5,51.1-55.6,46.6s-48.1-29.3-41.2-60.8c3.7-17.5,17.8-26.8,29.5-31.6,13.6-5.6,29.2-5.4,42.1,1.6C760.5,660,766.7,678.42,767.6,694.72Z"/><polygon class="fc5c8ea8-d656-4292-a591-4a17a6f28028" points="708.2 643.32 712.6 745.92 729.4 745.72 726.1 643.02 708.2 643.32"/><polygon class="fc5c8ea8-d656-4292-a591-4a17a6f28028" points="769.9 679.92 667.4 686.62 668 703.42 770.6 697.82 769.9 679.92"/><path class="f3c2e6d1-fbb3-4c43-a18b-cc9b7b13e0af" d="M1256.1,1205.22c13-8.2,29.1-9.6,43.7-4.9,12.5,4.1,27.8,12.6,33.1,30.6,9.5,32.2-7.2,59.4-38,66.3s-60.8-20.7-61.4-44.1C1233.2,1236.12,1238.2,1216.42,1256.1,1205.22Z"/><path class="e8f4bce4-714d-475f-8215-42419b9ae9d2" d="M1264.4,1204.62c13-8.2,29.1-9.6,43.7-4.9,12.5,4.1,27.8,12.6,33.1,30.6,9.5,32.2-7.2,59.4-38.1,66.3s-60.8-20.7-61.4-44.1C1241.4,1235.42,1246.6,1215.82,1264.4,1204.62Z"/><path class="a879c164-cea3-4dcd-b371-a8a0889705f7" d="M1273.2,1214.12a39.39,39.39,0,0,1,33.2-2.1c9.3,3.6,20.6,10.6,23.9,24.4,6,24.7-7.7,44.6-31.3,48.8s-45.3-17.9-44.8-35.7C1254.7,1236.62,1259.2,1222,1273.2,1214.12Z"/><polygon class="e8f4bce4-714d-475f-8215-42419b9ae9d2" points="1286.1 1207.92 1285.4 1289.02 1298.7 1288.82 1300.1 1207.72 1286.1 1207.92"/><polygon class="e8f4bce4-714d-475f-8215-42419b9ae9d2" points="1252 1252.02 1333.1 1254.42 1333.2 1241.12 1252.2 1237.92 1252 1252.02"/><path class="a632c3fb-deed-4da6-aee1-cfe3b3a5eab7" d="M655.8,1122.72a16,16,0,0,0,4.9-17.8c-14.3-38.7-59.5-12-59.5-12l-35.5-11c-54.4-31.7-106.4-14-106.4-14l101.3,29.3c8.7,2.5,39,11.8,39,11.8C625.8,1139,645.7,1131,655.8,1122.72Zm-10.2-17.5c2,2.9,1.4,15.1-16.2,13.6-11.1-.9-16.3-7.1-18.1-11.6-1.1-2.7,0-7.8,2.5-9.1,20.1-11,30,4.4,31.8,7.1Z"/><path class="b920be0c-ac37-4cb9-a3ee-f3d7638f5885" d="M655.5,1126.12a16,16,0,0,0,4.9-17.8c-14.2-38.7-59.4-12-59.4-12l-35.5-11c-54.4-31.6-106.2-17.5-106.2-17.5s92.5,30.3,101.2,32.7,39,11.8,39,11.8C625.7,1142.62,645.6,1134.52,655.5,1126.12Zm-10-17.4c1.1,3.3,1.4,14.6-16.3,13.1-11.1-.9-16.2-6.6-18-11.1-1.1-2.7-2.8-6.5,2.5-9.1,20.4-10.3,30.6,3.6,31.8,7.1Z"/><path class="a632c3fb-deed-4da6-aee1-cfe3b3a5eab7" d="M591.8,1063.62s-26,18.1-33.5,23.2-86.1,62.4-86.1,62.4,53.7-2.6,95.7-49.4l30.4-21.4s51.2,11.4,52.9-29.8a16,16,0,0,0-10.1-15.5C628.9,1028.32,607.5,1026.82,591.8,1063.62Zm25.5-18.2c16.3-6.8,20.4,5,19.5,8.3-1.2,5-5.6,20-28,15.7-2.9-.6-5.4-5.1-5.2-7.9.3-4.9,3.4-11.8,13.7-16.1Z"/><path class="b920be0c-ac37-4cb9-a3ee-f3d7638f5885" d="M594.6,1065.52s-25.8,18.1-33.4,23.2-89,60.4-89,60.4,56.5-.6,98.5-47.4l30.4-21.4s51.2,11.4,52.9-29.8a16,16,0,0,0-10.1-15.5C631.7,1030.22,610.4,1028.72,594.6,1065.52Zm45.1-10.8c-.2,3.3-5.9,22-28,16.6-4.5-1.1-5.4-5.1-5.2-7.9.3-4.9,3.4-11.8,13.7-16.1C636.4,1040.52,639.9,1050.22,639.7,1054.72Z"/><circle class="a632c3fb-deed-4da6-aee1-cfe3b3a5eab7" cx="567.7" cy="1093.32" r="4"/><path class="b677523d-f518-47f0-b677-30ccd296c49e" d="M378.5,686.92a.52.52,0,0,0,.4-.2,1.09,1.09,0,0,0,0-1.5c-26.7-27.8-27.7-37.6-27-40.5a2.37,2.37,0,0,1,1.3-1.7h0a1.1,1.1,0,0,0,.7-1.3,1,1,0,0,0-1.3-.7,4.58,4.58,0,0,0-2.8,3.2c-1.9,7.1,7.6,21.8,27.5,42.5A1.09,1.09,0,0,0,378.5,686.92Z"/><ellipse class="fc5c8ea8-d656-4292-a591-4a17a6f28028" cx="437.75" cy="738.38" rx="42.8" ry="22.1" transform="translate(-403.7 908.03) rotate(-70.74)"/><polygon class="fc5c8ea8-d656-4292-a591-4a17a6f28028" points="410.7 773.02 424.3 778.82 452.6 698.12 440.4 693.02 410.7 773.02"/><ellipse class="f3c2e6d1-fbb3-4c43-a18b-cc9b7b13e0af" cx="426.98" cy="733.83" rx="42.8" ry="22.1" transform="translate(-406.63 894.81) rotate(-70.74)"/><ellipse class="a879c164-cea3-4dcd-b371-a8a0889705f7" cx="425.42" cy="733.25" rx="10.8" ry="5.6" transform="translate(-407.13 892.95) rotate(-70.74)"/><path class="b677523d-f518-47f0-b677-30ccd296c49e" d="M360.1,674.72l73,28.4a12.39,12.39,0,0,1,8,10.8c.8,12.4-.7,36-21.4,48.3a12.2,12.2,0,0,1-10.2,1.1l-73.1-23.8Z"/><ellipse class="fc5c8ea8-d656-4292-a591-4a17a6f28028" cx="340.16" cy="706.9" rx="42.8" ry="22.1" transform="translate(-443.89 733.09) rotate(-66.22)"/><polygon class="fc5c8ea8-d656-4292-a591-4a17a6f28028" points="310.4 739.62 323.6 746.52 358.1 668.22 346.3 662.22 310.4 739.62"/><ellipse class="f3c2e6d1-fbb3-4c43-a18b-cc9b7b13e0af" cx="329.81" cy="701.53" rx="42.8" ry="22.1" transform="translate(-445.15 720.41) rotate(-66.22)"/><ellipse class="a879c164-cea3-4dcd-b371-a8a0889705f7" cx="328.21" cy="700.84" rx="10.8" ry="5.6" transform="translate(-445.48 718.54) rotate(-66.22)"/><path class="b920be0c-ac37-4cb9-a3ee-f3d7638f5885" d="M351.2,634.52c4.5.7,28.8,46.2,49.1,85.6a5.08,5.08,0,0,1-1.7,3.4l-27.8-48.8S343.3,633.32,351.2,634.52Z"/><path class="b920be0c-ac37-4cb9-a3ee-f3d7638f5885" d="M429,777.12c-4.4-8.9-14.2-28.4-25.3-50.1a7.74,7.74,0,0,1-1.9,2.8h0l27,47.3Z"/><path class="a632c3fb-deed-4da6-aee1-cfe3b3a5eab7" d="M357.5,646.12s-4.2-8.3-5.3-7.5,3.3,7,4.2,7.3S357.5,646.12,357.5,646.12Z"/><path class="b677523d-f518-47f0-b677-30ccd296c49e" d="M405,702.32a1.05,1.05,0,0,0,.7-1.3c-.5-1.9-12.1-47.5-33.8-59.3a20.84,20.84,0,0,0-17.2-1.6,1.11,1.11,0,0,0,.7,2.1,18.78,18.78,0,0,1,15.5,1.4c20.8,11.3,32.6,57.4,32.7,57.9a1.07,1.07,0,0,0,1.4.8Z"/><path class="fcb9fc41-930e-4382-8489-cc2dc2172c52" d="M424.7,699.92s5.8,20.4-5.9,38.7c0,0,6.6-34.3,4.2-39.4Z"/><path class="fcb9fc41-930e-4382-8489-cc2dc2172c52" d="M367.4,743.72s12.9-16.2,15.1-36.2c0,0-12.2,32.8-16.9,35.8Z"/><path class="fcb9fc41-930e-4382-8489-cc2dc2172c52" d="M363.9,718.42s8-13,7.8-27.8c0,0-6,25.1-9.1,27.8Z"/><path class="fcb9fc41-930e-4382-8489-cc2dc2172c52" d="M376.7,752.72S388.3,736,390.5,716c0,0-12.1,32.7-16.7,35.7Z"/><path class="aa89d786-1ad6-49fe-95f2-a55c0d2b94fd" d="M737.5,1463.72c23,13.4,48,20.6,73.1,20.9l24.6,7.3c63.6,19,129.5,18.7,191.2-.7h0c40.7,5.3,67.3-13.5,82.7-32.5l58-5.5c35.1-.2,51.1-26.4,56.1-41.2,3.7-11,4-24-6.6-36.1,0,0-9-12.5-29.1-11.3,0,0-19.1-54.5-58.8-37.3-27.9,12.2-32.5,36-30.3,56.3a313.74,313.74,0,0,1-38.8-.6s-7.5-113.3-72.7-95.1c-27.9,7.8-43,24.1-50.4,42.8-10.1-28.1-32.6-66.3-79.5-59.1-100.4,15.2-64.2,142.9-64.2,142.9s-17.7-61.7-72.8-14.7C689.8,1425.62,711.9,1448.42,737.5,1463.72Z"/><g class="b4bf25ce-a224-4f03-9c75-ed02c47361ea"><path class="e27abfcf-7283-4c1c-8d2d-00c0357ea4bf" d="M1134.8,1463.62l18.5-79.1s-56.8-94.5-57.3-97.1-71.5-32-149.4-28.9c-52.2,2,.2,55.8-12.6,83.8-3.6,7.7-2.5,14.7,7.9,5.8,57.9-49.5,101.8-3.2,102.3,41.3,0,10.5,12.3,15.7,19.7,10.1,13.1-10.1,28.6-18.6,37.6-1,9.9,19.2-15.5,42-15.5,42Z"/></g><path class="bcedc6a3-eae0-4eea-99ce-1b657d2e0012" d="M399,1690.52s32.8-74.2,53.3-77.8c0,0-21.5,62.3-12.6,73.1s47.6-44.3,47.6-44.3,1.9,50.2-20.7,63.8C443.8,1718.82,399,1690.52,399,1690.52Z"/><path class="bcedc6a3-eae0-4eea-99ce-1b657d2e0012" d="M424.8,1686.82s-23-21.9-22.8-59.7c0,0-17.2,41.1,1.7,60.5C419.2,1703.52,424.8,1686.82,424.8,1686.82Z"/></svg>