<svg xmlns="http://www.w3.org/2000/svg" xmlns:xlink="http://www.w3.org/1999/xlink" viewBox="0 0 2000 2000"><defs><style>.cls-1{fill:none;}.cls-2{isolation:isolate;}.cls-3{fill:#afd86a;}.cls-4{fill:#fecfae;}.cls-5{fill:#846f5a;}.cls-6{fill:#4c94bf;}.cls-7{fill:#ad957d;}.cls-8{fill:#d8c9ba;}.cls-9{fill:#aa4226;}.cls-10{fill:#c4b19f;}.cls-11{fill:#993a23;}.cls-12{fill:#705e4d;}.cls-13{clip-path:url(#clip-path);}.cls-14{fill:#998776;}.cls-15{fill:#604f40;}.cls-16{clip-path:url(#clip-path-2);}.cls-17{fill:#7a291b;}.cls-18{fill:#bc4d3b;}.cls-19{fill:#1e1713;}.cls-20{fill:#e5d6c7;}.cls-21{fill:#937d69;}.cls-22{fill:#3c3229;}.cls-23{fill:#71bbd8;}.cls-24{fill:#ec7d51;}.cls-25{fill:url(#Áåçûìÿííûé_ãðàäèåíò_46);}.cls-26,.cls-27{mix-blend-mode:multiply;opacity:0.65;}.cls-26{fill:url(#Áåçûìÿííûé_ãðàäèåíò_35);}.cls-27{fill:url(#Áåçûìÿííûé_ãðàäèåíò_35-2);}</style><clipPath id="clip-path"><polygon class="cls-1" points="261.19 1696.73 514.31 1758.42 909.7 1540.19 701.38 1511.41 261.19 1696.73"/></clipPath><clipPath id="clip-path-2"><polygon class="cls-1" points="698.62 1323.31 689.66 1534.99 837.01 1557.55 839.27 1329.86 698.62 1323.31"/></clipPath><linearGradient id="Áåçûìÿííûé_ãðàäèåíò_46" x1="2940.43" y1="373.16" x2="3022.87" y2="272.84" gradientTransform="translate(-1665.99)" gradientUnits="userSpaceOnUse"><stop offset="0" stop-color="#9b2565"/><stop offset="1" stop-color="#c2304a"/></linearGradient><linearGradient id="Áåçûìÿííûé_ãðàäèåíò_35" x1="-3561.89" y1="233.49" x2="-3561.77" y2="233.49" gradientTransform="matrix(-1, 0, 0, 1, -2272.21, 0)" gradientUnits="userSpaceOnUse"><stop offset="0" stop-color="#b883c4"/><stop offset="1" stop-color="#d69aae"/></linearGradient><linearGradient id="Áåçûìÿííûé_ãðàäèåíò_35-2" x1="2946.24" y1="284.76" x2="2958.27" y2="284.58" gradientTransform="translate(-1665.99)" xlink:href="#Áåçûìÿííûé_ãðàäèåíò_35"/></defs><g class="cls-2"><g id="Layer_1" data-name="Layer 1"><path class="cls-3" d="M1984,1954l-27.42-3Q1969.92,1952.61,1984,1954Z"/><path class="cls-4" d="M1984.64,1954.09h0l-.66-.06Z"/><polygon class="cls-5" points="1365.8 202.28 1379.38 204.43 1380.36 204.52 1391.89 206.28 1392.09 206.28 1404.88 208.24 1400.49 189.09 1399.9 186.84 1399.9 186.74 1399.22 183.42 1393.16 156.55 1378.8 156.55 1370.59 185.47 1370.1 187.03 1369.32 189.87 1368.83 191.63 1368.83 191.72 1365.8 202.28"/><path class="cls-6" d="M430,1521.09s-167.72,294.33,539.81,346.19,803.43-347.16,803.43-347.16Z"/><path class="cls-3" d="M1362.79,1312.32,632.24,1447.68c-9.7-10.81-40.54,2.49-82,15.2l-93.34,17.3s-189.11,50-47.18,148.87c33.05,23,76.15,39.1,123.12,50.37,66.37,15.92,140.46,22.21,204.87,24.84,81.21,3.31,167.57-37,183-33.37,17.28,4.07,40.46,22.91,93.18,44.45a559.43,559.43,0,0,0,185.91,40.71c41.57,1.91,95.23,3.56,133.5,1.78,23.42-1.09,47.86-2.75,72.81-5.46,133.37-14.46,296.39-31.95,361.35-187.79C1857.37,1348.9,1362.79,1312.32,1362.79,1312.32Z"/><polygon class="cls-5" points="261.19 1696.73 514.31 1758.42 909.7 1540.19 701.38 1511.41 261.19 1696.73"/><polygon class="cls-7" points="1066.79 1243.04 1066.06 1585.5 1456.6 1488.34 1452.47 1210.9 1066.79 1243.04"/><polygon class="cls-8" points="1066.91 1585.5 509.7 1505.1 509.7 1216.08 733.57 959.63 1066.91 1200.67 1066.91 1585.5"/><polygon class="cls-9" points="686.78 911.79 1202.64 1001.27 1475.18 1234.08 1119.57 1238.32 686.78 911.79"/><polygon class="cls-10" points="987.34 1528.03 1066.91 1531.54 1066.91 1562.07 986.27 1557.78 987.34 1528.03"/><polygon class="cls-10" points="1020.71 1445.92 1067.64 1447.99 1067.64 1475.89 1019.63 1475.68 1020.71 1445.92"/><polygon class="cls-1" points="686.78 911.79 1202.64 1001.27 1475.18 1234.08 1119.57 1238.32 686.78 911.79"/><path class="cls-3" d="M1074.53,1609.66s-53.89-52.3-58.83-66.73c0,0,75.14,15.78,93.13,35.51l12.41-13.58s-82.56-44.74-74.56-106.65c0,0,22.13,40.43,98.5,78.1,0,0-28.24-57.06-13.21-60.25,0,0,52.61,74.49,66.21,81.78S1074.53,1609.66,1074.53,1609.66Z"/><polygon class="cls-11" points="1128.55 1232.72 1476.3 1215.65 1455.01 1234.84 1090.62 1265.38 1128.55 1232.72"/><polygon class="cls-7" points="688.46 1320.52 726.89 1263.83 779.82 1332.03 688.46 1320.52"/><polygon class="cls-7" points="717.1 1319.6 708.04 1533.46 855.4 1555.14 857.65 1328.32 717.1 1319.6"/><path class="cls-5" d="M474.88,1743.33s-2.63,143,8.42,147.21,24.66,11.7,36.75-5.13-1.7-142.08-1.7-142.08Z"/><path class="cls-5" d="M279.8,1696s-4.2,136.7,4.74,141.43,25.76,4.2,30-5.26S318.18,1705,318.18,1705Z"/><polygon class="cls-12" points="261.19 1696.73 261.19 1731.62 498.44 1796.05 498.44 1754.55 261.19 1696.73"/><g class="cls-13"><path class="cls-14" d="M623.79,1534.05s99.94,11,125.33,21.11,67.28,8.5,71.1,10,54.84,12.11,54.84,12.11l-66.21,34.39c-1.43-1.1-105.28-26.51-126.23-28.57-80.56-7.88-79.49-20.42-89.2-23.17s4.36-13.06,4.36-13.06Z"/><path class="cls-14" d="M540.73,1571.35s99.49,14.53,124.5,25.57,66.93,10.9,70.7,12.55,54.37,14.06,54.37,14.06l-74.41,37.7S632.19,1632.94,606,1637c-24.77,3.83-129.8-34.18-139.4-37.28s47.66-16.46,47.66-16.46Z"/><path class="cls-14" d="M421.92,1603.44s97.21,21.55,122.57,31.74,70.36,17.68,74.19,19.21,54.81,12.21,54.81,12.21l-76.15,44.17s-76.9-26.13-103-30.37c-201.26-32.67-119.81-34.14-124.82-36.42-9.19-4.17,26.78-8.32,26.78-8.32Z"/><path class="cls-14" d="M309,1653.3s100.57,22.2,126.82,32.69,72.8,18.2,76.75,19.78,56.72,12.58,56.72,12.58L488,1770.24s-78.63-27.93-104.15-37.84c-41.89-16.25-119.09-34.64-129.13-37.49s27.72-8.53,27.72-8.53Z"/></g><polygon class="cls-15" points="498.44 1796.05 876.97 1581.33 876.97 1558.19 498.44 1754.55 498.44 1796.05"/><polygon class="cls-5" points="712.14 1314.07 789.88 1316.65 797.21 1345.3 705.85 1329.56 712.14 1314.07"/><polygon class="cls-15" points="698.62 1323.31 689.66 1534.99 837.01 1557.55 839.27 1329.86 698.62 1323.31"/><g class="cls-16"><polygon class="cls-5" points="828.79 1559.24 831.05 1491.08 828.57 1407.67 831.05 1355.18 799.96 1321.62 796.28 1553.99 828.79 1559.24"/><polygon class="cls-14" points="819.86 1557.55 822.33 1450.91 822.12 1353.49 791.03 1319.93 789.38 1424.36 787.35 1552.31 819.86 1557.55"/><polygon class="cls-5" points="780.87 1549.45 783.13 1447.84 781.52 1319.45 752.04 1311.84 748.36 1544.21 780.87 1549.45"/><polygon class="cls-14" points="774.58 1550.86 775.95 1412.11 776.85 1321.27 745.75 1313.25 742.08 1442.79 742.08 1545.62 774.58 1550.86"/><polygon class="cls-5" points="732.59 1543.79 734.67 1406.18 735.93 1323.31 706.73 1330.66 703.43 1539.09 732.59 1543.79"/><path class="cls-14" d="M727,1541.05l2.26-149,1.08-71.44-29.19,7.36,1.11,106.4q.28,26.87-1.39,53.68l-3,48.34Z"/></g><path class="cls-9" d="M734.14,1239.09s31.75,10.4,68.76,20.45l88.46,106.12-11.15,4.61-60.69,6s-83.27-97.52-83.27-116.27S734.14,1239.09,734.14,1239.09Z"/><path class="cls-17" d="M666.94,1379.74s16,9,75.53-99.17l-15.64-15.66Z"/><path class="cls-1" d="M722.5,1232.39s14,2.49,50,5.74L873.43,1359.2l-11.14,4.61-60.69,6s-83.28-97.52-83.27-116.27S722.5,1232.39,722.5,1232.39Z"/><polygon class="cls-10" points="633.5 1090.14 713.09 1093.01 712.15 1118.99 632.78 1109.94 633.5 1090.14"/><polygon class="cls-11" points="809.68 1378.67 880.64 1376.82 891.36 1365.66 827.04 1365.66 809.68 1378.67"/><path class="cls-18" d="M651.93,1365.93l15,13.81s40.94-67.64,64.85-106.47c0,0,29,41.89,77.89,105.4l17.36-13s-51.32-67.73-92.9-126.57h0S720.91,1252.45,651.93,1365.93Z"/><path class="cls-11" d="M1054.6,1113.82s239.54-28,372.7-4.69l.88,17.27S1157.45,1112.34,1054.6,1113.82Z"/><path class="cls-7" d="M504.91,1216.08h0c24.89-1.2,57-7.65,72.14-26.33L729.26,1017.5s304.77,280.43,357.17,247.88L701.74,950.8Z"/><polyline class="cls-17" points="469.46 1228.3 509.7 1216.08 718.96 976.37 701.42 961.24 474.56 1224.86"/><path class="cls-18" d="M1090.62,1265.38s11.87-6.53,31.66-13.76c17.2-6.28,6.27-17,6.27-17s-420-330.16-441.77-322.81-255.34,277.53-252.92,288.88c0,0,22.71,28.29,35.6,27.62s232-267,232-267S1065.11,1263.82,1090.62,1265.38Z"/><path class="cls-11" d="M827.13,1004.07s221.27,14.12,370.35,39.73L1196,1061S929.35,1014.86,827.13,1004.07Z"/><polygon class="cls-10" points="509.07 1445.15 570.92 1452.71 572.75 1476.77 505.74 1472.41 509.07 1445.15"/><polygon class="cls-10" points="542.88 1481.11 637.46 1492.66 637.81 1523.59 541.49 1509.69 542.88 1481.11"/><polygon class="cls-10" points="542.21 1390.27 621.8 1393.14 620.86 1419.13 541.49 1410.07 542.21 1390.27"/><polygon class="cls-10" points="960.66 1483.06 1040.23 1486.56 1039.14 1516.96 959.77 1507.91 960.66 1483.06"/><polygon class="cls-10" points="684.87 1134.19 764.46 1137.06 763.52 1163.04 684.16 1153.98 684.87 1134.19"/><path class="cls-11" d="M901.22,972.62l160.23,133.57c-21.56-15.63-152.57-102.11-152.57-102.11Z"/><polygon class="cls-11" points="998 965.77 1090.4 1017.5 1036.04 972.37 998 965.77"/><polygon class="cls-11" points="760.84 1253.43 831.71 1349.2 771.94 1256.09 760.84 1253.43"/><polygon class="cls-11" points="794.27 1266.19 840.97 1320.9 794.62 1257.64 794.27 1266.19"/><path class="cls-11" d="M876.74,1349s-48.91,1.32-55.62,6.22c0,0,28-1.84,37.43.24S876.74,1349,876.74,1349Z"/><path class="cls-11" d="M839,1337s-24.17-3.77-27.91-2c0,0,14,1.63,18.38,3.51S839,1337,839,1337Z"/><polygon class="cls-8" points="1660.58 1580.91 1659.4 1566.74 1659.31 1566.15 1658.53 1557.36 1654.13 1507.04 1654.13 1506.94 1637.13 1310.56 1628.43 1210.51 1623.16 1149.25 1617.68 1087.01 1617.1 1079.68 1614.85 1055.06 1591.79 789.69 1589.94 767.61 1587.49 739.96 1574.69 592.72 1569.32 530.68 1568.73 523.55 1566.88 501.76 1566.39 495.99 1565.71 488.27 1505.72 488.47 1500.44 488.47 1421.49 492.99 1410.8 492.29 1314.21 489.06 1306.3 489.15 1300.93 489.15 1238.88 489.25 1238.3 495.99 1238 500.29 1236.05 523.55 1233.41 558.23 1218.07 750.03 1213.58 806.4 1193.45 1061.31 1191.69 1082.32 1186.32 1150.13 1186.22 1150.52 1183.48 1185.89 1182.41 1199.76 1176.06 1279.1 1172.93 1318.08 1169.9 1357.46 1169.41 1363.22 1169.12 1367.13 1165.31 1415.69 1164.53 1425.26 1164.53 1425.36 1164.04 1431.22 1164.04 1431.32 1161.8 1459.75 1159.45 1488.67 1154.37 1552.47 1153.2 1566.74 1153.2 1568.3 1152.12 1580.61 1152.02 1581.69 1152.02 1582.37 1151.83 1583.84 1151.54 1588.43 1661.07 1586.87 1660.58 1580.91"/><path class="cls-3" d="M1843,1954l-27.41-3Q1829,1952.61,1843,1954Z"/><path class="cls-4" d="M1843.7,1954.09h0l-.66-.06Z"/><path class="cls-3" d="M1287.9,1530.21s7.24-66.45,22.41-74.37c0,0-1.38,54.27,8.33,60.51s26.27-46.6,26.27-46.6,14,38.9-.34,55.27S1287.9,1530.21,1287.9,1530.21Z"/><path class="cls-19" d="M1209,1321.91s-2,58.59,4.14,69.39l35-10-.14-61.67S1219,1317,1209,1321.91Z"/><polygon class="cls-20" points="1525.06 294.99 1524.96 295.97 1524.96 296.26 1524.65 298.41 1524.14 302.23 1524.04 303.2 1523.84 304.76 1523.84 304.86 1523.63 306.72 1523.53 307.31 1523.12 311.7 1522 322.45 1521.89 323.52 1521.79 323.82 1521.38 327.63 1521.18 329.88 1509.42 440.28 1509.42 440.38 1509.22 443.21 1509.22 443.31 1506.36 485.42 1506.05 490.21 1506.05 490.89 1505.54 497.73 1505.13 502.71 1499.71 502.62 1464.25 502.13 1419.17 501.54 1418.97 501.54 1400.88 501.35 1353.25 500.66 1292.64 499.88 1292.43 497.73 1292.33 496.75 1291.82 490.89 1291.21 485.42 1287.01 442.43 1287.01 442.33 1286.71 438.91 1286.71 438.62 1275.98 330.85 1275.77 328.61 1275.36 324.5 1274.24 312.48 1273.83 308.09 1273.42 304.28 1273.42 303.98 1272.3 293.33 1270.87 278.48 1270.46 274.18 1270.46 274.08 1270.05 270.18 1273.83 270.57 1276.08 270.76 1276.18 270.76 1277 270.86 1293.25 272.42 1296.72 272.81 1315.63 274.67 1387.9 281.61 1398.63 282.68 1405.17 283.37 1406.81 283.46 1406.81 283.56 1408.85 283.76 1409.26 283.76 1410.59 283.86 1425.41 285.42 1476.41 290.3 1476.51 290.3 1493.48 291.97 1500.02 292.55 1507.99 293.33 1516.58 294.21 1525.06 294.99"/><polygon class="cls-6" points="1277.59 271.82 1284.62 280.96 1304.45 443.45 1304.75 446.98 1308.56 489.99 1297.27 492.52 1297.79 498.35 1297.87 499.33 1298.02 501.49 1490.62 504.31 1490.92 499.33 1491.37 492.52 1491.66 487.03 1494.27 444.88 1494.42 441.87 1507.84 303.83 1508.29 300.03 1508.51 297.87 1508.58 297.61 1508.66 296.63 1485.92 294.21 1480.04 293.55 1464.61 291.92 1464.53 291.92 1405.42 285.57 1403.71 285.37 1393.94 284.32 1281.02 272.21 1277.59 271.82"/><path class="cls-9" d="M1660.58,1580.91l-1.17-14.17-.1-.59-.78-8.79-4.4-50.32v-.1l-17-196.38-67.12,1.07-57.16,1-104.16,1.66-6.83.2h-5.09l-31.85.48-63.21,1.08-128.78,2-3.12,39.38-.49,5.76-.2,3.91-3.81,48.56-.88,9.57v.1l-.39,5.86v.1l-2.24,28.43-2.35,28.92-5.08,63.81-1.17,14.26v1.56l-1.08,12.31-.1,1.08v.68l-.19,1.47-.29,4.59s251.29,58.69,509.53-1.56Z"/><polygon class="cls-10" points="1443.96 845.13 1484.08 842.86 1484.03 823.64 1444.99 823.68 1443.96 845.13"/><polygon class="cls-11" points="1601.86 1349.26 1524.48 1349.26 1518.61 1382.61 1601.86 1377.71 1601.86 1349.26"/><polygon class="cls-11" points="1568.49 1401.89 1451.55 1401.89 1442.67 1431.46 1568.49 1426.08 1568.49 1401.89"/><polygon class="cls-11" points="1514.13 1463.53 1461.4 1463.53 1457.4 1482.4 1514.13 1479.06 1514.13 1463.53"/><polygon class="cls-11" points="1488.96 1478.69 1408.32 1478.69 1402.19 1502.4 1488.96 1498.69 1488.96 1478.69"/><polygon class="cls-11" points="1446.75 1375.85 1365.14 1375.85 1358.94 1401.89 1446.75 1398.14 1446.75 1375.85"/><polygon class="cls-10" points="1369.27 920.59 1431.57 920.59 1436.31 944.25 1369.27 938.62 1369.27 920.59"/><polygon class="cls-10" points="1408.7 953.2 1503.99 953.2 1511.23 983.17 1408.7 976.04 1408.7 953.2"/><polygon class="cls-10" points="1500.46 1023.83 1566.18 1023.83 1571.17 1048.03 1500.46 1042.27 1500.46 1023.83"/><polygon class="cls-10" points="1400.28 878.97 1500.46 878.97 1500.46 911.67 1400.28 903.88 1400.28 878.97"/><polygon class="cls-10" points="1227.75 785.49 1282.35 785.49 1286.5 808.12 1227.75 802.73 1227.75 785.49"/><polygon class="cls-10" points="1248.71 749.5 1330.3 749.5 1336.5 780.58 1248.71 773.18 1248.71 749.5"/><polygon class="cls-11" points="1597.43 1436.88 1556.63 1436.88 1553.53 1462.11 1597.43 1458.35 1597.43 1436.88"/><path class="cls-7" d="M1326.38,694.55c-.09,2.31-.18,3.5-.18,3.5h-65.35s-8.29-135.49,35.25-135.49c5.43,0,9.94,2.58,13.62,7a31.42,31.42,0,0,1,4.51,6.9C1330.07,606.93,1327.31,678.08,1326.38,694.55Z"/><path class="cls-21" d="M1326.38,694.55c-.09,2.31-.18,3.5-.18,3.5h-36.54s-6.17-100.79,20.06-128.49a31.42,31.42,0,0,1,4.51,6.9C1330.07,606.93,1327.31,678.08,1326.38,694.55Z"/><path class="cls-22" d="M1326.38,694.55h-32.12s-5.8-95.91,20-118.09C1330.07,606.93,1327.31,678.08,1326.38,694.55Z"/><path class="cls-7" d="M1323.78,1030.24c-.11,2.78-.22,4.23-.22,4.23h-79.09s-10-164,42.66-164c6.58,0,12,3.12,16.49,8.46a38.84,38.84,0,0,1,5.46,8.36C1328.24,924.19,1324.9,1010.3,1323.78,1030.24Z"/><path class="cls-21" d="M1323.78,1030.24c-.11,2.78-.22,4.23-.22,4.23h-44.22s-7.47-122,24.28-155.51a38.84,38.84,0,0,1,5.46,8.36C1328.24,924.19,1324.9,1010.3,1323.78,1030.24Z"/><path class="cls-22" d="M1323.78,1030.24H1284.9s-7-116.07,24.18-142.92C1328.24,924.19,1324.9,1010.3,1323.78,1030.24Z"/><polygon class="cls-11" points="1287.9 1369.85 1287.9 1396.49 1167 1394.27 1172.11 1335.13 1245.71 1345.55 1245.71 1371.13 1287.9 1369.85"/><path class="cls-11" d="M1197.51,1432.59l-6,28.28,99.93,5.31,5.76,97s-40.93,2.74-111.14-8l-31.31-5.86,11.52-145,126.38,9v27.92Z"/><path class="cls-9" d="M1623.16,1149.25l-5.5-62.24-.59-7.33-22.49,1.29a3750.48,3750.48,0,0,1-404.6,1.35h0l-5.39,67.81-.1.39h2.3C1207.6,1154,1375.2,1180.11,1623.16,1149.25Z"/><path class="cls-8" d="M1172.93,1318.08s165.11,26.84,464.2-7.52C1637.13,1310.56,1297.14,1261.12,1172.93,1318.08Z"/><path class="cls-7" d="M1566.68,496H1238.3l-.3,4.3-2,23.26s147.37,24,332.45-2.8Z"/><path class="cls-3" d="M1511,1621.23s11.29-103.57,34.94-115.93c0,0-2.16,84.61,13,94.33s41-72.65,41-72.65,21.89,60.64-.53,86.16S1511,1621.23,1511,1621.23Z"/><path class="cls-12" d="M506.69,1791.37s15.67,80.56-6.88,104.52c0,0,45.32,15.06,22.33-113.28Z"/><path class="cls-12" d="M298.51,1840.38s11.37-.47,16-8.18,3.61-90.77,3.61-90.77l-19.6-5.79S310.57,1822.9,298.51,1840.38Z"/><path class="cls-23" d="M907.19,1807.82s63.81,38.61,132.3,15.28,163.45,26.28,254.56-20.88c0,0-107.64,9.72-144.87.48s-56.85-3-115.81,1.68S957.42,1815.16,907.19,1807.82Z"/><path class="cls-23" d="M746.72,1731.82s69.36,30,117.83,14.88,63.86,15.68,75.41,15.68,37.39-4.4,37.39-4.4-33.62,21.41-55,9-48.44-15.11-54.2-12.26-36.61,13.78-53.55,8.67S772.49,1758.89,746.72,1731.82Z"/><polyline class="cls-23" points="1389.64 495.99 1382.62 311.9 1289.59 322.47 1308.63 488.3"/><polygon class="cls-20" points="1481.89 312.02 1463.3 490.4 1452.07 490.4 1463.14 316.39 1481.89 312.02"/><rect class="cls-20" x="1281.32" y="351.8" width="225.81" height="10.06" transform="translate(2788.44 713.66) rotate(180)"/><polygon class="cls-20" points="1337.55 315.5 1343.67 489.97 1331.42 489.97 1317.1 319.87 1337.55 315.5"/><polygon class="cls-5" points="1382.02 157.62 1382.02 159.68 1389.55 159.68 1389.37 157.62 1387.27 80.92 1388.23 80.34 1386.22 73.84 1383.87 80.6 1382.02 157.62"/><path class="cls-15" d="M1370.28,187.91l10.36-.78.2-1.66,2.73-25.79.3-3.13h-5.09s-6.83,24-8.3,30C1370.38,187.23,1370.28,187.72,1370.28,187.91Z"/><path class="cls-5" d="M1373,89.11s14.74,9.57,25.53,0c0,0-10-31.79-13.89-54.38C1384.66,34.73,1376.17,79.71,1373,89.11Z"/><polygon class="cls-7" points="1239.18 302.23 1240.15 305.75 1240.35 306.72 1240.84 308.48 1241.52 311.32 1244.36 322.65 1275.13 322.55 1281.48 322.45 1311.28 322.36 1326.33 322.36 1337.57 322.26 1387.2 322.06 1389.64 322.06 1449.63 321.77 1467.02 321.77 1504.84 321.57 1526.53 321.57 1542.16 321.48 1543.63 309.36 1544.31 304.09 1544.51 302.91 1544.7 301.15 1512.85 301.25 1506.79 301.25 1468.98 301.35 1462.14 301.45 1402.25 301.64 1399.22 301.64 1384.95 301.74 1316.07 301.94 1306.5 301.94 1291.35 302.03 1273.28 302.03 1239.18 302.23"/><polygon class="cls-24" points="1384.41 202.04 1239.22 291.39 1544.7 291.39 1384.41 202.04"/><path class="cls-25" d="M1399.19,259.92v42.14c-35.22.75-74.38,2.26-115.63,5l14.22-43C1334.22,261.32,1368.66,260.18,1399.19,259.92Z"/><path class="cls-9" d="M1524.86,265.64c-.49-.59-1.17-1.18-1.76-1.76-.09-.2-.09-.2-.29-.3h-.1l-.1-.09c-.09-.2-.29-.3-.48-.59a473.71,473.71,0,0,0-50.71-42.21h-.1c-1.66-1.17-3.32-2.34-5.08-3.52a6.71,6.71,0,0,0-.88-.58c-4.69-3.13-9.28-6.16-14-8.89l-.29-.2c-3-1.86-6.06-3.52-9-5-.1-.1-.1-.1-.2-.1-2.83-1.56-5.67-3-8.7-4.4a147.72,147.72,0,0,0-23.44-9.08l-5-1.18a1.77,1.77,0,0,0-.68-.09,22.16,22.16,0,0,0-4.2-.78,2.49,2.49,0,0,0-.69-.2l-.78-.2c-3-.48-6.06-.78-8.89-1-1.37-.1-2.64-.1-4-.1a27.82,27.82,0,0,0-2.83.1,2.68,2.68,0,0,0-.88.1,78.6,78.6,0,0,0-9.38,1h-.1a.34.34,0,0,1-.29.1,11.31,11.31,0,0,0-1.86.39h-.09c-.78.1-1.37.29-2,.39-.4.1-.69.2-1.08.29-2.34.59-4.79,1.28-7.23,2.16a2.88,2.88,0,0,0-1,.29,2.84,2.84,0,0,0-.88.19l-.09.1a143.12,143.12,0,0,0-26.19,12.21c-5.76,3.33-11.53,7.14-17.19,11.14a313.48,313.48,0,0,0-24.63,19.64h-.19l-.1.1h-.1c-1.56,1.46-3,2.73-4.49,4.1-2.44,2.15-4.79,4.4-7.13,6.65s-4.6,4.39-6.84,6.64c-1.47,1.37-2.93,2.83-4.4,4.3-2,2-4,4-5.86,6-2.35,2.25-4.4,4.59-6.55,6.84-.58.58-1.07,1.17-1.66,1.76-1.76,1.85-3.42,3.71-5.28,5.76-1.26,1.57-2.63,3.13-4,4.69a1.59,1.59,0,0,1-.39.39l-.3.3c-2.93,3.22-5.47,6.35-7.81,9.18-1.47,1.66-2.93,3.42-4.3,5.08a1.51,1.51,0,0,1-.29.39h-.1c-4.89,6-8.5,10.55-10.55,13.39a7.34,7.34,0,0,1-.79,1.07c-.39.59-.68,1-.87,1.27a1.24,1.24,0,0,0-.4.59h.2l8-.3,14.85-.29h1.08l32.53-.78,6.35-.2,25.7-.58,10.16-.2h.1l69.27-1.66,16.61-.39h.39l6.65-.19h.19l3-.1,6.25-.1h.1l43.19-1.08,6.93-.19,18.76-.49,18.67-.39,6-.19h1.37l30.48-.69,2.84-.1h.58l13.78-.39S1547,286.64,1524.86,265.64Zm-132.29-5.57h-2.93c-.69,0-1.37.09-2.05.09h-5.77a2.6,2.6,0,0,1-.88,0h-.68c-.1,0-.2.1-.39,0s-.2.1-.29,0a1.25,1.25,0,0,1-.59.1c-1,0-2,.1-2.93.1-3.23,0-6.45.1-9.68.19-1.07.1-2.05.1-3.12.1l-7,.3-8.89.29c-1.46.1-3,.1-4.59.19s-2.83.1-4.3.2-2.93.2-4.3.2c-2.34.09-4.69.29-7.13.39-1.07.09-2.15.09-3.23.19-2.34.1-4.68.2-7,.39h-.1c-1.76.1-3.51.2-5.27.39-2.25.1-4.5.2-6.74.39l-6.84.59-2.06,6.16-.19.58-6.84,20.52-3.52,10.65-.1.29-.48,1.66-.69,2.15-.29.88v.1c1,0,1.95-.2,2.93-.2h.39c.39,0,.68-.09,1.17-.09s.69-.1,1.08-.1a3.2,3.2,0,0,1,1-.1c.2,0,.3-.1.49-.1h1c1.76-.09,3.52-.19,5.28-.39h1.17c.39,0,.78-.1,1.17-.1a20.6,20.6,0,0,0,2.35-.09c1.66,0,3.42-.2,5.08-.3v-.09h.09c3.13-.1,6.16-.3,9.19-.49,2.15,0,4.4-.1,6.55-.29.68,0,1.36-.1,2-.1h1.17c1.07-.1,2.15-.1,3.22-.1.3,0,.69-.1,1-.1s.68-.1,1-.1c1.07-.09,2.15-.19,3.22-.19s2,0,3.13-.1l6.35-.29h1c3.51-.2,6.93-.3,10.25-.39,3.52-.2,6.85-.3,10.17-.39h2.44c.19,0,.39-.1.59-.1,1.36-.1,2.73-.1,4-.2,2-.09,4-.09,6-.19h2.64c1.47,0,2.93,0,4.4-.1,1.07,0,2.15-.1,3.12-.1h.59a25.88,25.88,0,0,0,2.64-.09c.49,0,1.07-.1,1.56-.1,2.15,0,4.2-.1,6.25-.1V260C1397,260,1394.82,260,1392.57,260.07Z"/><path class="cls-11" d="M1254.22,283.5c9.09-3.2,18.18-5.53,27.17-7.86h.09c4.3-1.16,8.6-2.33,13-3.2h.1l3.22-.88a59.78,59.78,0,0,0,6.84-1.45,54.6,54.6,0,0,1,6.74-1.16,16.52,16.52,0,0,1,5.28-.88h.09c2.35-.58,4.69-.87,7-1.45,1.07-.29,2.15-.29,3.22-.58,2.45-.29,4.79-.88,7.14-1.17a23,23,0,0,0,4.3-.58c1.46-.29,2.83-.29,4.29-.58s3.13-.29,4.6-.58l8.89-.88c6.74-.87,13.38-1.45,19.83-1.74,1,0,2-.3,2.93-.3,2.93,0,5.77-.28,8.6-.28.68,0,1.37-.3,2.05-.3h2.93a51,51,0,0,1,6.65-.29c8.89-.29,17.39-.29,25.6,0,9.38,0,18.17.59,26.47,1.17h.1c5.18.29,10.16.87,14.85,1.45a76.61,76.61,0,0,1,8.41.58c6.15.88,11.82,1.75,16.9,2.33,15,2.33,25.6,4.66,30.48,5.82a1,1,0,0,0,.78.29h.3a5.93,5.93,0,0,0,2,.3c-.39-.3-1.07-.59-2.25-1.46h-.19c-.2,0-.39-.29-.49-.29-5.28-3.2-17.39-9.32-36.54-14.55-4.69-1.17-10-2.62-15.63-3.5-1.18-.29-2.45-.58-3.72-.87-4.69-.58-9.67-1.45-14.85-2h-.1a221.5,221.5,0,0,0-28.92-1.75,261,261,0,0,0-29.6.87l-10.16.88c-29.22,2.9-52.47,7.27-70.74,11.93h-.1c-6.06,1.45-11.33,3.2-16.32,4.65h-.09c-3.62.88-6.84,2.33-10,3.2C1264.19,275.93,1255.3,282.62,1254.22,283.5Z"/><path class="cls-11" d="M1329.85,235.84c-24.72,6.57-36.74,12.16-40.06,14.09,13-3.28,25.7-6.37,38.3-8.87h.1c5.08-1.16,10-1.94,15-3.09h.09c19.93-3.67,39.09-6.37,57.35-8.5,3.13-.38,6.26-.57,9.39-1,3.61-.39,7-.58,10.55-.77a51.51,51.51,0,0,1,5.37-.58c8.79-.77,17.2-1.35,25.21-1.55.1-.19.19-.19.29,0,5.08-.38,10.07-.57,14.85-.57,1.76-.2,6.39-2.29,8-2.29-2.41-2.13-5.09-3.29-7.23-5-.38-.31-1.31-.8-1.7-1.19-4.49.2-9.18.39-14,.58h-.29c-9.28.58-19.25,1.55-29.9,2.7a17.56,17.56,0,0,0-4.4.58c-.87,0-1.75.2-2.73.2h-.1l-3.71.58c-2.44.19-4.79.57-7.13.77-21.69,3.09-39.67,6.37-54.52,9.46h-.1c-6.94,1.54-13,3.08-18.57,4.43Z"/><path class="cls-26" d="M1289.5,233.54c.09,0,.09,0,.19-.1h-.1Z"/><polygon class="cls-27" points="1298.5 261.85 1297.78 264.05 1283.56 307.07 1283.46 307.39 1278.86 307.39 1294.52 264.3 1295.41 261.85 1298.5 261.85"/><polygon class="cls-11" points="1414.64 307.52 1399.19 307.52 1399.19 259.92 1414.64 307.52"/><path class="cls-11" d="M1217.39,311.9h.19l8-.19,14.85-.39h1.07l32.54-.79,6.35-.19,25.69-.59c.1-.88.3-1.76.4-2.83a.77.77,0,0,1,.09-.39c0-.3.1-.59.1-.88v-.1c.2-1.07.39-2.15.59-3.22a.56.56,0,0,1,.1-.39c.48-3.33,1.17-6.84,1.85-10.56,1.17-6,2.64-12.4,4.3-18.46,0-.1,0-.1.1-.2s.1-.29.1-.49c.48-1.85,1.07-3.61,1.66-5.47.39-1.37.88-2.64,1.36-3.91v-.09l.3-.88c.19-.69-5.47-.88-5.18-1.57a148.94,148.94,0,0,1,8.79-18.95.1.1,0,0,1,.1-.1v-.1a131.72,131.72,0,0,1,7.43-12.21l1.75-2.64c10.46-14.75,23.75-27.55,38.89-34.58v-.1h.1c1.46-.69,2.93-1.37,4.49-2h.1a74.12,74.12,0,0,1,9-2.54c.29-.09.68-.09,1-.19,2-.39,3.52-.78,4.78-1.08h.1a6,6,0,0,1,1.17-.39c-1.36-.1-2.63-.1-4-.1a27.63,27.63,0,0,0-2.83.1,2.62,2.62,0,0,0-.88.1,80.58,80.58,0,0,0-9.38,1h-.1a.38.38,0,0,1-.29.09,10.17,10.17,0,0,0-1.86.4h-.1c-.78.09-1.37.29-2,.39-.39.09-.68.19-1.07.29a73.4,73.4,0,0,0-7.24,2.15,2.76,2.76,0,0,0-1,.29,9.88,9.88,0,0,1-1,.29,143.77,143.77,0,0,0-26.18,12.22c-5.77,3.32-11.53,7.13-17.2,11.14a313.2,313.2,0,0,0-24.62,19.63h-.2l-.09.1h-.1c-1.57,1.47-3,2.74-4.5,4.11-2.44,2.15-4.78,4.39-7.13,6.64s-4.59,4.4-6.84,6.64c-1.46,1.37-2.93,2.84-4.4,4.3-2,2-4,4-5.86,6-2.24,2.35-4.39,4.6-6.45,6.84-.58.59-1.17,1.18-1.66,1.76-1.76,1.86-3.42,3.71-5.18,5.77-1.36,1.56-2.73,3.12-4.2,4.69-2.73,3.22-5.66,6.44-8.5,9.86-1.46,1.66-2.93,3.42-4.3,5.08a1.07,1.07,0,0,1-.29.39c-4.88,6-8.5,10.56-10.55,13.39a11.37,11.37,0,0,1-.88,1.08c-.39.58-.68,1-.88,1.27A1.2,1.2,0,0,0,1217.39,311.9Z"/><path class="cls-15" d="M1586.69,445.28l.54-2.37.94,0,9.68.08,1.93-6.71-12.21,0-73.1-.18-9,.16-8.8-.1-27.46-.25-11.72.21-9.09-.09-14.86-.23-5.28-.15H1415l-5.08.09-25.7,0-11.34-.05-20.52.12-8.3.15-4.69-.17-1.57,0-18.27.08-1.17-.23-12.51,0-2.15,0-5.67-.14-85.41-.21-3.13,0,2.13,9.84,3.22-.06,4.7.17h.48l9.08,38.51.16.67-18.33-.67L1215,496l159.13,7.89q23.13,1.15,46.29.05L1587.85,496l2.35-12.31-12.8.45.1-.5Zm-350.15,39.39-.33-.94L1227,445.16l54.29-.32h0l4.11,38.89.2,2.73,1.21.06Zm129.52-32,1.57,36.44v.19q-12.71-.25-25.42-.72l-46.71-1.72-.48-3.33-5.57-37.9-.18-.82,9.19,0,8.11-.15,12.21,0,20.52-.36,5.08.16,8.21-.15,9.09.09,10.25-.19h.15l-6.37.26Zm67.17-2.53-5.15,36.63-.34,2.55q-23.7.45-47.4.18l-.26-1.76-5.55-35.84-1.18-7.62,10.71,0h.29l25.8-.21,5.47-.09h13.09l5-.09h.41Zm96.59-4.25L1524,483.68l-.42,2.42-71,2.53q-7.2.25-14.39.44l0-.92,3.87-37.19.75-7h0l1.7,0h12.9l11.82-.21,27.46-.23,8.8.09,8.79-.16,7.43.11,4.78-.08,3.69,0Zm37.43,37.81-.27.87-33.64,1.2.14-2,4.27-37.77.33-2.56,43.55-.48-.8,2.31Z"/><path class="cls-7" d="M1609.55,1597.38l-.1,0h0Z"/><path class="cls-11" d="M1661.07,1586.87l-51.52,10.51Q1635.2,1592.86,1661.07,1586.87Z"/><path class="cls-11" d="M1661.07,1586.87l-.49-6-1.17-14.17-.1-.59-.78-8.79-4.4-50.32v-.1l-17-196.38-40.82,4.4,13.14,282.44.1,0Z"/><path class="cls-11" d="M1617.66,1087l-.59-7.33-22.49,1.29c-3,.18-6.09.33-9.13.49l3.34,71.76q16.9-1.8,34.37-4Z"/><path class="cls-7" d="M1623.16,1149.25q-17.46,2.18-34.37,4l7.52,161.74,40.82-4.4-8.7-100Z"/><path class="cls-7" d="M1585.45,1081.46c3-.16,6.09-.31,9.13-.49l22.49-1.29.59,7.33,5.5,62.24-5.48-62.24-.58-7.33-2.25-24.62-23.06-265.37-1.85-22.08L1587.49,740,1574.7,592.72l-5.38-62-.59-7.13-1.85-21.79-.1-4.72-28.43,1.35Z"/><path class="cls-3" d="M533.24,1502.32s-28.83-105.35-52.31-114.5c0,0,12.74,70.16.92,82.63s-45.67-51.79-45.67-51.79-8.81,66.24,16,89S533.24,1502.32,533.24,1502.32Z"/><path class="cls-3" d="M509.65,1510s23,.33,41-56c0,0,1.6,83-28.37,79.28C506.76,1531.31,509.65,1510,509.65,1510Z"/></g></g></svg>