<svg id="e1d95ab9-e466-44a7-9f58-d077c26b5eb9" data-name="Layer 1" xmlns="http://www.w3.org/2000/svg" xmlns:xlink="http://www.w3.org/1999/xlink" viewBox="0 0 2000 2000"><defs><style>.e43d7494-b88d-46df-86cd-e421ce84eed5{fill:none;}.bb31f902-d16b-40c5-9536-def7dbf22355{fill:#4c94bf;}.aa1aad47-e447-4ae4-8833-961622fbaa02{fill:#afd86a;}.b0af3c5f-6980-422d-bb43-ab489c67a8aa{fill:#71bbd8;}.a3ac434f-1b5d-4795-a5d4-178d5254dbb1{fill:#d8c9ba;}.a6b3edf1-9d3b-4625-9220-a29fa03a5d22{fill:#ad957d;}.aa016aa7-232c-40a5-b020-8b59328ca2bb{fill:#aa4226;}.fb7402a4-7739-43d9-9a4f-6ddcc10e6b27{fill:#bc4d3b;}.e811474a-9daf-4c59-a048-0fad0249b03a{fill:#993a23;}.ba5e0fd3-c2fb-4fc1-8279-8a7ebb40fca4{fill:#846f5a;}.e8cd984c-f5b7-43bb-a321-0ffa78ee1009{fill:#a39386;}.ec52671b-790a-45b1-a6a1-aa557b93f64d{clip-path:url(#e5454869-1359-40b7-a578-737e984b2ce0);}.bf3f5eaa-8301-44aa-8334-b4dcc4886ab7{fill:#998776;}.fd4a58bf-68fc-4bee-8830-7c033281a08e{clip-path:url(#ab3f2473-89b5-44bd-8860-2143f203d90e);}.a5a00228-3db8-4d8d-932d-4d433eb572c4{fill:#e5d6c7;}.e15afac0-4b41-4ae3-90c5-98a03b23f5e8{fill:#c4b19f;}.ace2fede-9cac-4b4c-a56b-f4eeea75f3c1{fill:#604f40;}.e3aa91d9-ba93-4fd4-87f1-fb0ee05ef974{fill:#ec7d51;}.ba9b9ef9-69da-4065-822c-64c122f15b61{fill:url(#a649e71c-3086-457b-81f3-32d29944e355);}.a6368993-471d-41f6-8fd8-42240eae494a{isolation:isolate;opacity:0.65;fill:url(#e11fe802-3262-4790-bce6-e57bc77be793);}.ad339208-c9c2-4309-a2d1-2af44471b97a{fill:#937d69;}.f01936f7-38f8-45ce-8279-bf5d74862a5d{fill:#3c3229;}.b9394dfe-52cf-4083-87b8-ef0118e451f9{fill:#a08975;}.bfa6e083-ef6b-4fc8-9c27-528794a47972{fill:#7a291b;}.a9b765b7-9e06-414c-9f55-2ec9196199e3{fill:#c1ae9f;}.bc3e3369-a6b2-4c73-b2f4-3a14c2c0a5dc{clip-path:url(#e159d84d-9107-4d76-b13b-911176dec1c5);}.b6ae5efb-9675-4af9-8021-590e883e0031{fill:#77a22f;}.eb35545c-7fae-44e8-8b7b-14e324033ef6{clip-path:url(#b256a0dc-8348-481d-905b-6ce97b63435a);}.b57fb3c4-7577-4009-aebe-59cf5824abb1{fill:#8abd32;}.bce2c3fb-28bd-41ee-a0a5-6dd5bb97e4fa{clip-path:url(#ab219078-58e1-42fc-881b-40abc6cbd766);}.b2f68b2b-bd1d-40bb-b709-a3899898aa03{fill:#8bbc38;}.bf816aad-edbb-47e0-9143-5c3d128d735e{clip-path:url(#ac648f53-d2a8-4997-9a91-d88f75450426);}</style><clipPath id="e5454869-1359-40b7-a578-737e984b2ce0"><polygon class="e43d7494-b88d-46df-86cd-e421ce84eed5" points="1311.02 1478.54 1147.48 1501.13 1457.87 1672.45 1656.58 1624.02 1311.02 1478.54"/></clipPath><clipPath id="ab3f2473-89b5-44bd-8860-2143f203d90e"><polygon class="e43d7494-b88d-46df-86cd-e421ce84eed5" points="594.55 1555.77 734.1 1589.27 450.97 1711 283.2 1652.15 594.55 1555.77"/></clipPath><linearGradient id="a649e71c-3086-457b-81f3-32d29944e355" x1="-8647.54" y1="10754.69" x2="-8589.45" y2="10825.37" gradientTransform="matrix(1, 0, 0, -1, 9790.79, 11467.17)" gradientUnits="userSpaceOnUse"><stop offset="0" stop-color="#9b2565"/><stop offset="1" stop-color="#c2304a"/></linearGradient><linearGradient id="e11fe802-3262-4790-bce6-e57bc77be793" x1="9745.07" y1="10853.12" x2="9745.16" y2="10853.12" gradientTransform="translate(10899.03 11467.17) rotate(180)" gradientUnits="userSpaceOnUse"><stop offset="0" stop-color="#b883c4"/><stop offset="1" stop-color="#d69aae"/></linearGradient><clipPath id="e159d84d-9107-4d76-b13b-911176dec1c5"><polygon class="e43d7494-b88d-46df-86cd-e421ce84eed5" points="1316.16 1382.81 1315.68 1557.69 1429.92 1545.96 1424.98 1379.12 1316.16 1382.81"/></clipPath><clipPath id="b256a0dc-8348-481d-905b-6ce97b63435a"><path class="e43d7494-b88d-46df-86cd-e421ce84eed5" d="M880.63,1546.79c-3.72-6.8-5.56-15.34-.45-24.4,0,0,4-9.23,16.82-10.66,0,0,3.85-38.4,31.06-31.45,37.48,9.57,26.68,55.67,26.68,55.67s8.92-28.8,29.62-8.35c11.32,11.16,2.26,30.7-10.2,32.72a50,50,0,0,1-27.21,5.51l-43.87-3.41C894.09,1561.7,885.68,1556,880.63,1546.79Z"/></clipPath><clipPath id="ab219078-58e1-42fc-881b-40abc6cbd766"><path class="e43d7494-b88d-46df-86cd-e421ce84eed5" d="M997.69,1554.71l-3-.73s4-40-37.9-40.3c-41.44-.33-38.52,45.82-38.52,45.82s-11.26-18.31-29.2-6.15c-14.68,9.26-9,27,1.37,36.59,0,0-27.23,47,63,25,.6,0,9.83.46,9.83.46a60.34,60.34,0,0,0,18.43-2h0a59.34,59.34,0,0,0,30.12-19.29l.21-.26a17.64,17.64,0,0,0,1.72-2.5C1022.07,1577.16,1013.82,1558.8,997.69,1554.71Z"/></clipPath><clipPath id="ac648f53-d2a8-4997-9a91-d88f75450426"><path class="e43d7494-b88d-46df-86cd-e421ce84eed5" d="M784.56,1536.75c21.2-29.1,40.46,2.26,40.46,2.26s-10.95-34.23,35.44-44c21.66-4.57,32.49,13.49,37.46,27,3.28-9.33,10.09-17.63,23-22.07,30.07-10.4,34.67,44.67,34.67,44.67a141.67,141.67,0,0,0,18-.62c-1.24-9.87.64-21.59,13.51-28.18,18.26-9.37,27.66,16.77,27.66,16.77,9.32-1.07,13.6,4.84,13.6,4.84,5,5.61,5,12,3.44,17.41-2.17,7.35-9.33,20.46-25.57,21.44l-26.84,4c-6.9,9.64-19.08,19.47-38,17.86h0a143.77,143.77,0,0,1-88.67,4.86l-11.48-3a65,65,0,0,1-34.1-8.44C794.85,1584.68,771.46,1554.74,784.56,1536.75Z"/></clipPath></defs><path class="bb31f902-d16b-40c5-9536-def7dbf22355" d="M1410,1561.21s138.27,199.84-135.33,284-377.26-28.3-452.07-23.4S472,1825.42,528.06,1629.33,1410,1561.21,1410,1561.21Z"/><path class="aa1aad47-e447-4ae4-8833-961622fbaa02" d="M604.85,1635.75s215.79,69.07,379.86-3.73,183.64-11.43,279-51.82,56.37-206.72-148.25-179.73-379.3,98.91-399.2,105.84S604.85,1635.75,604.85,1635.75Z"/><polygon class="bb31f902-d16b-40c5-9536-def7dbf22355" points="848.56 393.87 927.66 525.35 1162.16 516.5 1208.41 386.13 848.56 393.87"/><polygon class="b0af3c5f-6980-422d-bb43-ab489c67a8aa" points="947.71 395.32 984.69 525.35 901.08 503.75 862.61 393.87 947.71 395.32"/><polygon class="a3ac434f-1b5d-4795-a5d4-178d5254dbb1" points="890.89 545.29 891.91 970.01 1034.71 929.65 1036.43 525.35 890.89 545.29"/><polygon class="a6b3edf1-9d3b-4625-9220-a29fa03a5d22" points="1021.62 557.64 1024.42 891.08 1176.71 881.96 1170.8 525.35 1021.62 557.64"/><polygon class="a3ac434f-1b5d-4795-a5d4-178d5254dbb1" points="1002.56 395.32 1004.78 511.4 1028.17 507.25 1029.57 390.8 1002.56 395.32"/><polygon class="a3ac434f-1b5d-4795-a5d4-178d5254dbb1" points="762.8 747.29 773.82 933.62 927.66 1013.85 914.74 780.62 822.94 643.52 762.8 747.29"/><polygon class="a6b3edf1-9d3b-4625-9220-a29fa03a5d22" points="981.9 733.28 984.97 863.24 917.86 970.01 913.15 770.51 981.9 733.28"/><path class="a6b3edf1-9d3b-4625-9220-a29fa03a5d22" d="M764.64,788.26s24.3-2.19,52.21-56L836,694.48s58.38,107.32,82.6,95.73l-5.27-33.62L830.15,643.52,780.09,756.2Z"/><path class="aa016aa7-232c-40a5-b020-8b59328ca2bb" d="M938.77,779l66.65-56s-53.51-67.34-66.65-93.89L834.6,610s19,50.81,36.63,84.48S926.64,777.68,938.77,779Z"/><polygon class="a6b3edf1-9d3b-4625-9220-a29fa03a5d22" points="960.85 1027.12 1106.89 1110.48 1160 900.49 1042.21 878.72 960.85 1027.12"/><polygon class="fb7402a4-7739-43d9-9a4f-6ddcc10e6b27" points="884.59 1007.97 1001.73 832.32 1145.44 832.32 1164.25 872.67 1046.47 887.46 953.68 1052.02 884.59 1007.97"/><polygon class="e811474a-9daf-4c59-a048-0fad0249b03a" points="971.06 1040.88 1052.77 892.83 1124.77 892.83 1122.64 870.36 1037.03 870.36 953.68 1031.7 971.06 1040.88"/><path class="b0af3c5f-6980-422d-bb43-ab489c67a8aa" d="M1125.19,1802.87s9.57,38.52,55.69,35.46,58.68-27.06,58.68-27.06-18.63,10.58-28.92,12.82-18-1.82-22,1.46-13.77,6.48-17.49,1.88-8-7.84-14.79-6.74c-6.08,1-14.23.76-17.22-3.26a43.26,43.26,0,0,0-4.59-5.51Z"/><path class="aa1aad47-e447-4ae4-8833-961622fbaa02" d="M1306.91,1656.17s-9.94,41.14-10.21,46.52,3,57.66,3,57.66,8.23-12.47,7.82-17.72S1306.91,1656.17,1306.91,1656.17Z"/><path class="aa1aad47-e447-4ae4-8833-961622fbaa02" d="M1302.37,1768.93s-2-31.67,1.85-40.86c9.23-21.94,35.34-49.52,35.34-49.52s-26.79,48.77-27.54,53.66-4.75,36.89-4.75,36.89Z"/><path class="aa1aad47-e447-4ae4-8833-961622fbaa02" d="M1307.13,1758.87c-3.35-17.49-12.41-50.62-15.71-62.48a16.15,16.15,0,0,0-4.93-7.66l-21.82-19.41c-.86,4,18.49,28.79,18.49,28.79s18.92,72.44,19.54,72.86a3.27,3.27,0,0,0,3.88,0A25.82,25.82,0,0,0,1307.13,1758.87Z"/><path class="aa1aad47-e447-4ae4-8833-961622fbaa02" d="M1303.12,1759.18c-6.37-13.79-13.67-25.79-14.09-28-1.36-7.06-34.83-26.69-34.83-26.69s21.6,22.7,25.31,26.09,10.41,23.1,10.41,23.1c3.16.47,7,3.38,11.35,10.09Z"/><path class="bb31f902-d16b-40c5-9536-def7dbf22355" d="M1325.86,1741.05s-20.87,27.22-52.93,1.63-8.2,42.61,8.19,47.49,33.58,16,39.94-9.33S1335.25,1737.34,1325.86,1741.05Z"/><polygon class="ba5e0fd3-c2fb-4fc1-8279-8a7ebb40fca4" points="1311.02 1478.54 1263.69 1562.04 1457.87 1672.45 1656.58 1624.02 1311.02 1478.54"/><path class="e8cd984c-f5b7-43bb-a321-0ffa78ee1009" d="M1642.73,1630.49s.41,92.45-2.89,99.88-16.51,7.85-23.52,4.13-3.72-111-3.72-111Z"/><path class="ba5e0fd3-c2fb-4fc1-8279-8a7ebb40fca4" d="M1642.78,1654.52s-1.19,45.33-.59,63.51c.56,17.81-9.15,17.81-9.15,17.81,3.47-27.71,0-81.32,0-81.32Z"/><path class="e8cd984c-f5b7-43bb-a321-0ffa78ee1009" d="M1485.84,1655.63s10.17,98.41.59,111.54-20.24,7.17-28.88,3.82-5.83-115.62-5.83-115.62Z"/><path class="ba5e0fd3-c2fb-4fc1-8279-8a7ebb40fca4" d="M1489.76,1678.27s1.24,37.21,2.73,67.27c1.22,24.61-15.84,29.18-15.84,29.18,13.56-26.76,2.36-87,2.36-87Z"/><polygon class="ba5e0fd3-c2fb-4fc1-8279-8a7ebb40fca4" points="1470.34 1669.42 1470.34 1702 1656.58 1651.41 1656.58 1624.02 1470.34 1669.42"/><g class="ec52671b-790a-45b1-a6a1-aa557b93f64d"><path class="bf3f5eaa-8301-44aa-8334-b4dcc4886ab7" d="M1392.33,1506.39s11.05,8.08,3.43,10.25-6.79,12-70,18.19c-16.45,1.61-98,21.56-99.1,22.42l-52-27s40-8.31,43-9.51,35.88.09,55.82-7.87,98.41-16.57,98.41-16.57Z"/><path class="bf3f5eaa-8301-44aa-8334-b4dcc4886ab7" d="M1457.93,1534.94s44.92,10.5,37.38,12.92-90,32.27-109.43,29.27c-20.54-3.18-86.25,19-86.25,19L1263.69,1562s17.26-5.22,20.21-6.52,35.86-1.21,55.49-9.85,97.74-20.07,97.74-20.07Z"/><path class="bf3f5eaa-8301-44aa-8334-b4dcc4886ab7" d="M1550.5,1576.08s28.23,3.26,21,6.54c-3.93,1.78,60,2.93-98,28.59-20.49,3.33-80.86,23.84-80.86,23.84l-59.78-34.67s40-8.4,43-9.59,38.3-7.08,58.24-15.08,96.22-24.92,96.22-24.92Z"/><path class="bf3f5eaa-8301-44aa-8334-b4dcc4886ab7" d="M1639.91,1615.91s29.63,4.44,21.75,6.69-68.47,16.67-101.37,29.43c-20,7.75-81.77,29.71-81.77,29.71L1414.71,1641s41.42-8.65,44.53-9.88,39.66-7.29,60.26-15.53,99.55-25.66,99.55-25.66Z"/></g><polygon class="e8cd984c-f5b7-43bb-a321-0ffa78ee1009" points="1470.34 1669.42 1263.69 1562.04 1263.69 1580.2 1470.34 1702 1470.34 1669.42"/><polygon class="ba5e0fd3-c2fb-4fc1-8279-8a7ebb40fca4" points="594.55 1555.77 604.85 1615.83 450.97 1711 283.2 1652.15 594.55 1555.77"/><path class="e8cd984c-f5b7-43bb-a321-0ffa78ee1009" d="M319.79,1658.52s.57,80.36-2.29,86.83-14.33,6.86-20.44,3.64-3.49-96.5-3.49-96.5Z"/><path class="ba5e0fd3-c2fb-4fc1-8279-8a7ebb40fca4" d="M319.84,1679.4s-.92,39.42-.35,55.21c.54,15.51-7.89,15.51-7.89,15.51,2.95-24.1-.22-76.68-.22-76.68Z"/><path class="e8cd984c-f5b7-43bb-a321-0ffa78ee1009" d="M455.62,1682.05s9.65,85.46,1.43,97-17.53,6.41-25.07,3.56-6-100.44-6-100.44Z"/><path class="ba5e0fd3-c2fb-4fc1-8279-8a7ebb40fca4" d="M459.22,1701.72s1.39,32.33,2.92,58.46c1.26,21.36-13.53,25.49-13.53,25.49,2.8-18,1.34-75.67,1.34-75.67Z"/><polygon class="e8cd984c-f5b7-43bb-a321-0ffa78ee1009" points="439.98 1687.69 440.63 1715.33 283.2 1673.5 283.2 1652.15 439.98 1687.69"/><g class="fd4a58bf-68fc-4bee-8830-7c033281a08e"><path class="bf3f5eaa-8301-44aa-8334-b4dcc4886ab7" d="M462.62,1592.06s-64.31,10.5-58,13.24,74.29,12.23,116.71,29.39c16.75,6.79,68.51,6.5,68.51,6.5l5.61-12.83s11.78-11.12,9.35-12.51-1.3-3.8-17.54-13-105.85-17.15-105.85-17.15Z"/><path class="bf3f5eaa-8301-44aa-8334-b4dcc4886ab7" d="M379,1619.72s-40,4.17-34.07,7.63c3.24,1.88-36.85-6.33,97.64,29.34,17.46,4.63,61,22.7,61,22.7l52.91-27.22s-16.68-4.9-19.18-6.19-41.1-8-57.65-16.64-108.9-16.09-108.9-16.09Z"/><path class="bf3f5eaa-8301-44aa-8334-b4dcc4886ab7" d="M298.29,1646.54s-26,1.33-19.39,3.94,52.25,12.53,98.91,23.13c18.22,4.14,62.15,14.06,62.15,14.06l58.73-7.63s-43.76-2.51-45.38-4.92c-9.14-13.51-34.16-10.56-50.81-18.56-17.37-8.36-93.42-23.17-93.42-23.17Z"/></g><polygon class="ba5e0fd3-c2fb-4fc1-8279-8a7ebb40fca4" points="439.98 1687.69 604.85 1615.83 604.85 1635.75 440.63 1715.33 439.98 1687.69"/><path class="ba5e0fd3-c2fb-4fc1-8279-8a7ebb40fca4" d="M1221,479.21c2.45,14.22,8.74,34.23,8.74,34.23-6.8,6-16.08,0-16.08,0C1215.6,507.52,1221,479.21,1221,479.21Z"/><polygon class="ba5e0fd3-c2fb-4fc1-8279-8a7ebb40fca4" points="1210.98 583.57 1210.98 583.5 1211.29 582.4 1211.78 580.61 1212.09 579.63 1217.25 561.43 1226.29 561.43 1230.1 578.34 1230.54 580.43 1230.54 580.49 1230.91 581.91 1233.67 593.96 1225.61 592.73 1225.5 592.73 1218.24 591.62 1217.62 591.56 1209.08 590.21 1210.98 583.57"/><path class="a3ac434f-1b5d-4795-a5d4-178d5254dbb1" d="M1385.08,1215.45l-.4-5.15-1.59-17.36L1366.84,1006l-1.3-15.55L1363.81,971l-9-103.82L1351,823.42l-.41-5-1.29-15.31L1349,799l-.48-5.45-42.28.14h-3.71l-55.63,3.19-7.53-.49-68.07-2.29-5.57.06h-3.81l-43.72.08-.41,4.75-.21,3.05-1.37,16.39-1.87,24.41L1103.51,978l-3.17,39.73-14.17,179.6-1.22,14.8v.06l-3.82,47.72-.07.28h.4c14.68,2.48,132.77,20.84,307.49-.9Z"/><polygon class="a5a00228-3db8-4d8d-932d-4d433eb572c4" points="1313.84 656.84 1307.79 656.22 1302.18 655.67 1297.57 655.25 1285.61 654.09 1285.54 654.09 1249.61 650.64 1239.16 649.54 1238.22 649.47 1237.93 649.47 1236.49 649.34 1236.49 649.27 1235.34 649.2 1230.73 648.72 1223.17 647.95 1172.25 643.07 1158.93 641.76 1156.48 641.49 1145.03 640.39 1144.45 640.32 1144.38 640.32 1142.8 640.18 1140.13 639.9 1140.42 642.65 1140.42 642.72 1140.71 645.76 1141.71 656.22 1142.51 663.72 1142.51 663.93 1142.8 666.61 1143.09 669.71 1143.88 678.18 1144.16 681.08 1144.31 682.65 1151.87 758.59 1151.87 758.8 1152.09 761.21 1152.09 761.28 1155.04 791.57 1155.47 795.43 1155.83 799.55 1155.9 800.24 1156.05 801.76 1198.76 802.31 1232.31 802.79 1245.07 802.93 1245.21 802.93 1276.97 803.35 1301.96 803.69 1305.78 803.76 1306.07 800.24 1306.43 795.43 1306.43 794.95 1306.64 791.57 1308.66 761.89 1308.66 761.83 1308.8 759.83 1308.8 759.77 1317.08 681.97 1317.23 680.38 1317.52 677.7 1317.59 677.49 1317.66 676.74 1318.46 669.16 1318.74 666.06 1318.82 665.65 1318.96 664.34 1318.96 664.27 1319.11 663.17 1319.17 662.49 1319.53 659.8 1319.75 658.28 1319.75 658.08 1319.82 657.39 1313.84 656.84"/><polygon class="bb31f902-d16b-40c5-9536-def7dbf22355" points="1147.86 641.34 1227.43 649.87 1234.31 650.61 1235.53 650.75 1277.17 655.22 1277.22 655.22 1288.1 656.38 1292.25 656.83 1308.27 658.54 1308.21 659.23 1308.16 659.42 1308 660.94 1307.69 663.62 1298.23 760.88 1298.13 763 1296.29 792.71 1296.08 796.57 1295.76 801.37 1295.55 804.88 1159.84 802.9 1159.73 801.37 1159.68 800.68 1159.31 796.57 1167.27 794.79 1164.58 764.49 1164.38 761.99 1150.39 647.5 1145.44 641.06 1147.86 641.34"/><polygon class="e15afac0-4b41-4ae3-90c5-98a03b23f5e8" points="1174.8 972.27 1202.32 972.24 1202.35 985.78 1174.09 987.38 1174.8 972.27"/><polygon class="e15afac0-4b41-4ae3-90c5-98a03b23f5e8" points="1202.65 1076.63 1249.89 1080.61 1246.56 1063.93 1202.65 1063.93 1202.65 1076.63"/><polygon class="e15afac0-4b41-4ae3-90c5-98a03b23f5e8" points="1266.56 1097.08 1338.8 1102.11 1333.71 1080.99 1266.56 1080.99 1266.56 1097.08"/><polygon class="e15afac0-4b41-4ae3-90c5-98a03b23f5e8" points="1295.09 1149.67 1344.91 1153.73 1341.39 1136.68 1295.09 1136.68 1295.09 1149.67"/><polygon class="e15afac0-4b41-4ae3-90c5-98a03b23f5e8" points="1231.26 1058.44 1301.85 1063.93 1301.85 1040.88 1231.26 1040.88 1231.26 1058.44"/><polygon class="e15afac0-4b41-4ae3-90c5-98a03b23f5e8" points="1042.21 1107.6 1083.6 1111.4 1080.68 1095.45 1042.21 1095.45 1042.21 1107.6"/><polygon class="e15afac0-4b41-4ae3-90c5-98a03b23f5e8" points="1122.64 1052.41 1184.5 1057.63 1180.14 1035.73 1122.64 1035.73 1122.64 1052.41"/><path class="aa016aa7-232c-40a5-b020-8b59328ca2bb" d="M1328.81,1373l-41.37,23-36.81,16.34-53.44-1.42-16.9,23.35-15-26.47L1137,1376.08l-44.55.76-90.73,1.45,2.2-27.46,4.47-55.91.76-9.78,1.93-24.92h-1.22l.07-.27,3.81-47.78,1.2.06a2640.87,2640.87,0,0,0,283.89-1l15.85-.9.41,5.16,3.88,43.85,3.71,43.17Z"/><path class="a6b3edf1-9d3b-4625-9220-a29fa03a5d22" d="M1350.43,816.44c-130.41,18.91-234.25,2-234.25,2l1.38-16.33.2-3.05h231.39Z"/><polyline class="b0af3c5f-6980-422d-bb43-ab489c67a8aa" points="1167.31 793.6 1153.9 676.75 1219.45 669.3 1224.4 799.02"/><polygon class="a5a00228-3db8-4d8d-932d-4d433eb572c4" points="1276.19 672.46 1268.39 795.08 1276.3 795.08 1289.4 669.39 1276.19 672.46"/><rect class="a5a00228-3db8-4d8d-932d-4d433eb572c4" x="1148.07" y="697.42" width="159.11" height="7.09"/><polygon class="a5a00228-3db8-4d8d-932d-4d433eb572c4" points="1173.29 674.92 1183.38 794.78 1192.01 794.78 1187.7 671.84 1173.29 674.92"/><polygon class="ba5e0fd3-c2fb-4fc1-8279-8a7ebb40fca4" points="1220.44 513.63 1221.93 509.38 1223.19 513.47 1222.59 513.83 1223.91 562.1 1224.02 563.4 1219.28 563.4 1219.28 562.1 1220.44 513.63"/><path class="ace2fede-9cac-4b4c-a56b-f4eeea75f3c1" d="M1212,580.29c.92-3.75,5.23-18.88,5.23-18.88h3.19l-.18,2-1.73,16.23-.12,1-6.51.49C1211.9,581,1212,580.74,1212,580.29Z"/><polygon class="e3aa91d9-ba93-4fd4-87f1-fb0ee05ef974" points="1333.67 654.85 1118.41 654.85 1220.72 591.9 1333.67 654.85"/><path class="ba9b9ef9-69da-4065-822c-64c122f15b61" d="M1159.7,635.58l-10,30.32c29.06-1.94,56.65-3,81.47-3.54V632.68C1209.61,632.86,1185.35,633.67,1159.7,635.58Z"/><path class="a6368993-471d-41f6-8fd8-42240eae494a" d="M1153.9,614h.07c-.07.07-.07.07-.13.07Z"/><path class="ace2fede-9cac-4b4c-a56b-f4eeea75f3c1" d="M1363.24,763.23l.39-1.68h.66l6.82.06,1.36-4.73h-8.6l-51.51-.13-6.34.11-6.19-.06-19.35-.18-8.26.07-6.41-.06-10.47-.16-3.72-.11h-9.38l-3.58.07h-26.1l-14.45.08-5.85.11-3.32-.06h-1.1l-12.87.05-.84-.16h-10.34l-4-.11-60.18-.14-2.2,0,1.53,6.93,2.28,0,3.31.13h.3l6.4,27.13.12.47-12.92-.47,2.92,8.69,112.13,5.57q16.3.79,32.62,0l118-5.62,1.65-8.67-9,.32.07-.35ZM1116.5,791l-.23-.66-6.52-27.18L1148,763h0l2.9,27.4.14,1.92.85.05Zm91.25-22.55,1.11,25.67v.13q-9-.18-17.9-.5L1158,792.58l-.34-2.35-3.92-26.69-.13-.58h6.48l5.71-.11h8.61l14.45-.26,3.59.11,5.78-.1,6.4.06,7.23-.12h.11l-4.5.18Zm47.36-1.76-3.62,25.81-.24,1.8q-16.71.33-33.4.13l-.18-1.24-3.9-25.33-.83-5.34h7.74l18.18-.15,3.81-.06h9.23l3.51-.07h.29Zm68.08-3-4.13,26.64-.29,1.71-50,1.78q-5.08.18-10.15.31v-.64l2.74-26.25.53-4.9h10.3l8.33-.16,19.34-.17,6.19.07,6.21-.11,5.23.08,3.37-.06h2.6Zm26.36,26.63-.19.61-23.71.87.1-1.4,3-26.61L1329,762l30.68-.33-.56,1.63Z"/><path class="e811474a-9daf-4c59-a048-0fad0249b03a" d="M1328.78,1373l-28.76,3.1-5.26-114-2.36-50.57c2.15-.11,4.3-.22,6.44-.35l15.85-.9.41,5.16,3.87,43.85,3.72,43.17Z"/><path class="a6b3edf1-9d3b-4625-9220-a29fa03a5d22" d="M1329.16,800.75l20-1,.08,3.33,1.3,15.35.41,5,3.82,43.71,9,103.75,1.73,19.42,1.3,15.57,16.25,187,1.59,17.35.41,5.16,3.85,43.86-3.87-43.84-.42-5.16-15.85.9c-2.14.13-4.29.24-6.44.35Z"/><polygon class="e811474a-9daf-4c59-a048-0fad0249b03a" points="1316.81 1242.74 1258.15 1246.19 1262.29 1222.69 1316.81 1222.69 1316.81 1242.74"/><polygon class="e811474a-9daf-4c59-a048-0fad0249b03a" points="1265.23 1270.94 1176.58 1274.73 1182.83 1253.9 1265.23 1253.9 1265.23 1270.94"/><polygon class="e811474a-9daf-4c59-a048-0fad0249b03a" points="1254.99 1314.15 1215.02 1316.51 1217.84 1303.21 1254.99 1303.21 1254.99 1314.15"/><polygon class="e811474a-9daf-4c59-a048-0fad0249b03a" points="1237.26 1327.99 1176.12 1330.6 1180.43 1313.89 1237.26 1313.89 1237.26 1327.99"/><polygon class="e811474a-9daf-4c59-a048-0fad0249b03a" points="1207.51 1257.14 1145.64 1259.78 1150.01 1241.43 1207.51 1241.43 1207.51 1257.14"/><polygon class="e811474a-9daf-4c59-a048-0fad0249b03a" points="1299.15 1290.55 1259.21 1293.2 1262.04 1275.43 1299.15 1275.43 1299.15 1290.55"/><polygon class="e811474a-9daf-4c59-a048-0fad0249b03a" points="1065.86 1238.11 1065.86 1220.08 1013.99 1212.74 1010.39 1254.41 1095.58 1255.97 1095.58 1237.2 1065.86 1238.11"/><polygon class="a6b3edf1-9d3b-4625-9220-a29fa03a5d22" points="1076.15 1183.58 1043.74 1557.51 942.08 1589.15 942.08 1155.97 1076.15 1183.58"/><path class="a3ac434f-1b5d-4795-a5d4-178d5254dbb1" d="M942.05,1156,765.84,912l-43.48-9.34c-33.25,73-126.05,305.17-126.05,305.17l3.1,349.11,342.67,32.21Z"/><path class="aa016aa7-232c-40a5-b020-8b59328ca2bb" d="M1001.24,1224.55l-18-1.48-6.3-4.45L950.77,1202,850.64,1083.7,729.78,883.86c142.34,106.38,456,232.73,456,232.73,19,56.09,66.23,158,66.23,158l-250.73-50Z"/><polyline class="a3ac434f-1b5d-4795-a5d4-178d5254dbb1" points="431.24 1437.52 431.24 1437.52 479.06 1245.91 491.48 1245.91 604.85 1423.83 604.85 1615.83 428.58 1605.9 431.24 1437.52"/><polygon class="a6b3edf1-9d3b-4625-9220-a29fa03a5d22" points="814.88 1414.52 814.88 1577.42 604.85 1635.75 604.85 1438.62 814.88 1414.52"/><path class="a6b3edf1-9d3b-4625-9220-a29fa03a5d22" d="M1387.75,1123.72l76.11,196.09v222.12l-200.17,20.13V1323.38C1255.52,1305.64,1387.75,1123.72,1387.75,1123.72Z"/><polygon class="a3ac434f-1b5d-4795-a5d4-178d5254dbb1" points="1040.45 1336.05 1263.69 1323.36 1263.69 1580.2 1043.74 1557.51 1040.45 1336.05"/><polygon class="e811474a-9daf-4c59-a048-0fad0249b03a" points="984.7 1218.24 1088.69 1236.88 1101.8 1255.84 957.39 1226.04 984.7 1218.24"/><path class="ad339208-c9c2-4309-a2d1-2af44471b97a" d="M1238,998.32a6,6,0,0,1-3.23-5.34c-.15-16.86-.21-87.48,8.34-101.12,9.73-15.52,24.41-38.28,31.76-34,7,4.17,23.38,31.82,22.12,69.72a646.55,646.55,0,0,0,1.15,66.91l-57.54,5.84Z"/><path class="a6b3edf1-9d3b-4625-9220-a29fa03a5d22" d="M1240.64,1000.4s-1.68-93.16,8.07-108.67,18.38-37.24,26.19-33.8,28.95,31.66,27.7,69.57c-.94,28.12-.21,51.11.2,61.19a5.73,5.73,0,0,1-5.14,5.93Z"/><path class="f01936f7-38f8-45ce-8279-bf5d74862a5d" d="M1251.73,990.4s-1-78.17,5.29-88.62,11.88-25.17,16.87-22.81,18.65,21.36,17.86,47,.31,61.24.31,61.24Z"/><path class="ad339208-c9c2-4309-a2d1-2af44471b97a" d="M1275.16,878c-2.29-.31-5.26,1-7.81,5.26-.68,25.42-1.72,89.51.05,106l8.64-.68C1275.68,971.19,1274.37,899.8,1275.16,878Z"/><path class="a6b3edf1-9d3b-4625-9220-a29fa03a5d22" d="M1271.51,874.55s-3.28,107.31,0,118h8.18s-2.66-113.42-.76-119.87Z"/><path class="a6b3edf1-9d3b-4625-9220-a29fa03a5d22" d="M1246.52,933.33s37,1.52,51.65-3.69l-1.93,11.19s-49.15,8.17-49.78,2.87Z"/><path class="ad339208-c9c2-4309-a2d1-2af44471b97a" d="M860.57,1361.65l-62.47-6.33a704.32,704.32,0,0,0,1.25-72.65c-1.36-41.17,16.39-71.18,24-75.71,8-4.69,23.92,20,34.49,36.86,9.27,14.82,9.22,91.49,9,109.79a6.5,6.5,0,0,1-3.5,5.77Z"/><path class="a6b3edf1-9d3b-4625-9220-a29fa03a5d22" d="M798.67,1355.35a6.24,6.24,0,0,1-5.6-6.44c.45-10.91,1.24-35.92.22-66.43-1.35-41.14,21.59-71.78,30.08-75.52s17.87,19.85,28.44,36.7,8.76,118,8.76,118Z"/><path class="f01936f7-38f8-45ce-8279-bf5d74862a5d" d="M804.73,1347.28s1.18-38.67.34-66.48,14-48.45,19.39-51,11.46,13.4,18.31,24.76,5.76,96.23,5.76,96.23Z"/><path class="ad339208-c9c2-4309-a2d1-2af44471b97a" d="M822.12,1348.8l9.39.76c1.93-17.86.82-87.46.06-115-2.77-4.58-6-6-8.49-5.71C823.94,1252.44,822.51,1329.93,822.12,1348.8Z"/><path class="a6b3edf1-9d3b-4625-9220-a29fa03a5d22" d="M818.94,1223c2.12,7-.77,130.15-.77,130.15H827c3.57-11.63,0-128.15,0-128.15Z"/><path class="a6b3edf1-9d3b-4625-9220-a29fa03a5d22" d="M854.24,1300.08c-.65,5.77-54-3.11-54-3.11l-2.09-12.16c15.88,5.66,56.08,4,56.08,4Z"/><path class="ad339208-c9c2-4309-a2d1-2af44471b97a" d="M859.6,897,802,891.14a645.5,645.5,0,0,0,1.15-67c-1.25-38,15.12-65.64,22.15-69.81,7.36-4.33,22.06,18.45,31.81,34,8.55,13.66,8.5,84.36,8.34,101.25a6,6,0,0,1-3.23,5.32Z"/><path class="a6b3edf1-9d3b-4625-9220-a29fa03a5d22" d="M802.52,891.17a5.76,5.76,0,0,1-5.17-5.94c.42-10.06,1.15-33.12.21-61.26-1.25-37.94,19.91-66.19,27.73-69.64s16.49,18.3,26.24,33.84S859.6,897,859.6,897Z"/><path class="f01936f7-38f8-45ce-8279-bf5d74862a5d" d="M808.11,883.73s1.09-35.67.31-61.31,12.89-44.68,17.88-47,10.57,12.35,16.88,22.83S848.5,887,848.5,887Z"/><path class="ad339208-c9c2-4309-a2d1-2af44471b97a" d="M824.15,885.13l8.66.7c1.77-16.47.75-80.66.05-106.1-2.56-4.22-5.53-5.58-7.83-5.27C825.82,796.27,824.5,867.73,824.15,885.13Z"/><path class="a6b3edf1-9d3b-4625-9220-a29fa03a5d22" d="M821.21,769.1c1.95,6.47-.71,120-.71,120h8.19c3.28-10.72,0-118.17,0-118.17Z"/><path class="a6b3edf1-9d3b-4625-9220-a29fa03a5d22" d="M853.76,840.2c-.59,5.32-49.84-2.87-49.84-2.87L802,826.12c14.65,5.22,51.72,3.7,51.72,3.7Z"/><path class="ad339208-c9c2-4309-a2d1-2af44471b97a" d="M710.62,1352.61l-61-6.2a683.63,683.63,0,0,0,1.21-71c-1.32-40.23,16-69.57,23.49-74,7.77-4.59,23.37,19.56,33.71,36,9.06,14.47,9,89.4,8.84,107.3a6.4,6.4,0,0,1-3.43,5.64Z"/><path class="a6b3edf1-9d3b-4625-9220-a29fa03a5d22" d="M650.16,1346.47a6.09,6.09,0,0,1-5.48-6.3c.44-10.66,1.22-35.09.22-64.93-1.32-40.25,21.11-70.16,29.4-73.81s17.47,19.38,27.8,35.85,8.55,115.32,8.55,115.32Z"/><path class="f01936f7-38f8-45ce-8279-bf5d74862a5d" d="M656.07,1338.56s1.16-37.79.33-65,13.65-47.35,19-49.84,11.22,13.1,17.9,24.2,5.64,94,5.64,94Z"/><path class="ad339208-c9c2-4309-a2d1-2af44471b97a" d="M673.1,1340.05l9.16.72c1.87-17.46.81-85.48,0-112.45-2.71-4.47-5.85-5.91-8.29-5.57C674.85,1245.84,673.47,1321.6,673.1,1340.05Z"/><path class="a6b3edf1-9d3b-4625-9220-a29fa03a5d22" d="M669.94,1217.06c2.06,6.85-.76,127.19-.76,127.19h8.71c3.48-11.32,0-125.21,0-125.21Z"/><path class="a6b3edf1-9d3b-4625-9220-a29fa03a5d22" d="M704.47,1292.44c-.67,5.62-52.83-3-52.83-3l-2-11.89c15.53,5.53,54.81,3.93,54.81,3.93Z"/><path class="ad339208-c9c2-4309-a2d1-2af44471b97a" d="M1215.49,1449.45l-53-5.34a596,596,0,0,0,1.06-61.69c-1.16-35,13.92-60.49,20.4-64.3,6.77-4,20.31,17,29.29,31.28,7.88,12.57,7.82,77.69,7.68,93.24a5.54,5.54,0,0,1-3,4.9Z"/><path class="a6b3edf1-9d3b-4625-9220-a29fa03a5d22" d="M1162.92,1444.16a5.35,5.35,0,0,1-4.76-5.47c.39-9.3,1.06-30.51.19-56.45-1.15-35,18.35-61,25.55-64.15s15.19,16.85,24.15,31.16,7.44,100.21,7.44,100.21Z"/><path class="f01936f7-38f8-45ce-8279-bf5d74862a5d" d="M1168.06,1437.25s1-32.83.28-56.45,11.85-41.15,16.47-43.31,9.76,11.38,15.56,21,4.9,81.72,4.9,81.72Z"/><path class="ad339208-c9c2-4309-a2d1-2af44471b97a" d="M1182.84,1438.56l8,.63c1.63-15.18.67-74.29,0-97.71-2.35-3.89-5.09-5.14-7.2-4.85C1184.38,1356.7,1183.18,1422.55,1182.84,1438.56Z"/><path class="a6b3edf1-9d3b-4625-9220-a29fa03a5d22" d="M1180.17,1331.68c1.78,6-.67,110.53-.67,110.53H1187c3-9.84,0-108.8,0-108.8Z"/><path class="a6b3edf1-9d3b-4625-9220-a29fa03a5d22" d="M1210.14,1397.17c-.57,4.9-45.9-2.64-45.9-2.64l-1.8-10.32c13.49,4.8,47.63,3.41,47.63,3.41Z"/><path class="ad339208-c9c2-4309-a2d1-2af44471b97a" d="M1132.42,1442.18l-53.05-5.34a596.28,596.28,0,0,0,1.06-61.7c-1.16-35,13.92-60.47,20.4-64.29,6.77-4,20.31,17,29.29,31.28,7.87,12.57,7.82,77.68,7.68,93.23a5.54,5.54,0,0,1-3,4.9Z"/><path class="a6b3edf1-9d3b-4625-9220-a29fa03a5d22" d="M1079.85,1436.88a5.34,5.34,0,0,1-4.76-5.47c.39-9.3,1.06-30.51.2-56.44-1.16-35,18.34-61,25.54-64.15S1116,1327.67,1125,1342s7.44,100.2,7.44,100.2Z"/><path class="f01936f7-38f8-45ce-8279-bf5d74862a5d" d="M1085,1430s1-32.82.28-56.45,11.85-41.13,16.47-43.3,9.76,11.38,15.56,21,4.9,81.72,4.9,81.72Z"/><path class="ad339208-c9c2-4309-a2d1-2af44471b97a" d="M1099.77,1431.28l8,.63c1.63-15.17.67-74.28,0-97.71-2.35-3.89-5.09-5.13-7.2-4.85C1101.31,1349.42,1100.11,1415.25,1099.77,1431.28Z"/><path class="a6b3edf1-9d3b-4625-9220-a29fa03a5d22" d="M1097.12,1324.41c1.77,5.95-.67,110.53-.67,110.53H1104c3-9.85,0-108.8,0-108.8Z"/><path class="a6b3edf1-9d3b-4625-9220-a29fa03a5d22" d="M1127,1389.9c-.57,4.9-45.9-2.65-45.9-2.65l-1.77-10.32c13.49,4.81,47.63,3.41,47.63,3.41Z"/><path class="a6b3edf1-9d3b-4625-9220-a29fa03a5d22" d="M731.1,918l-35.33,90-99.49,199.86c14.73.39,26.93-19.35,26.93-19.35,62.34-66.21,114-216,114-216s39.17,83.78,192,250.2c12.42,13.5,28.22,3.35,28.22,3.35Z"/><polygon class="a6b3edf1-9d3b-4625-9220-a29fa03a5d22" points="558.93 1613.24 572.26 1613.99 573.8 1459.76 525.99 1456.79 526.63 1459.29 530.81 1459.49 531.82 1459.54 536.4 1459.75 560.44 1460.87 558.93 1613.24"/><polygon class="ba5e0fd3-c2fb-4fc1-8279-8a7ebb40fca4" points="525.99 1456.79 524.58 1451.28 468.11 1449.41 465.26 1456.44 471.06 1456.71 471.57 1456.74 471.72 1453.42 525.99 1456.79"/><path class="ace2fede-9cac-4b4c-a56b-f4eeea75f3c1" d="M464.5,1458.37l.76-1.93-7-.33-6.37,151.1,6,.34,2-31.82q1.21-19.47,1-39l-.84-77.28Z"/><polygon class="ace2fede-9cac-4b4c-a56b-f4eeea75f3c1" points="553.32 1612.92 558.93 1613.24 560.44 1460.87 536.4 1459.75 554.48 1479.26 552.68 1517.39 554.48 1577.96 553.32 1612.92"/><polygon class="ace2fede-9cac-4b4c-a56b-f4eeea75f3c1" points="489.86 1542.89 492.06 1465.57 485.27 1464.4 484.48 1516.31 483.08 1608.96 489.86 1609.35 489.86 1542.89"/><polygon class="ace2fede-9cac-4b4c-a56b-f4eeea75f3c1" points="518.24 1610.95 522.92 1611.21 524.21 1529.51 525.13 1471.27 518.72 1470.16 519.67 1546.56 518.24 1610.95"/><polygon class="ba5e0fd3-c2fb-4fc1-8279-8a7ebb40fca4" points="554.48 1479.26 536.4 1459.75 531.82 1459.54 531.81 1460.57 547.99 1478.04 548.14 1548.79 546.67 1612.55 553.32 1612.92 554.48 1577.96 552.68 1517.39 554.48 1479.26"/><polygon class="bf3f5eaa-8301-44aa-8334-b4dcc4886ab7" points="531.81 1460.57 530.81 1459.49 526.63 1459.29 529.9 1472.09 525.13 1471.27 524.21 1529.51 522.92 1611.21 529.42 1611.57 531.81 1460.57"/><polygon class="bf3f5eaa-8301-44aa-8334-b4dcc4886ab7" points="529.42 1611.57 546.67 1612.55 548.14 1548.79 547.99 1478.04 531.81 1460.57 529.42 1611.57"/><polygon class="ba5e0fd3-c2fb-4fc1-8279-8a7ebb40fca4" points="519.67 1546.56 518.72 1470.16 514.96 1469.52 514.46 1520.61 513.58 1610.68 518.24 1610.95 519.67 1546.56"/><polygon class="bf3f5eaa-8301-44aa-8334-b4dcc4886ab7" points="494.53 1609.61 496.8 1466.39 492.06 1465.57 489.86 1542.89 489.86 1609.35 494.53 1609.61"/><polygon class="bf3f5eaa-8301-44aa-8334-b4dcc4886ab7" points="514.46 1520.61 514.96 1469.52 496.8 1466.39 494.53 1609.61 513.58 1610.68 514.46 1520.61"/><polygon class="ba5e0fd3-c2fb-4fc1-8279-8a7ebb40fca4" points="484.48 1516.31 485.27 1464.4 481.16 1463.69 480.51 1506.02 478.96 1608.74 483.08 1608.96 484.48 1516.31"/><path class="bf3f5eaa-8301-44aa-8334-b4dcc4886ab7" d="M463.58,1460.66l.93-2.29-4.39,1.1.81,77.28q.21,19.51-1,39l-2,31.82,4,.22,2.29-146.31,1.63-.41Z"/><polygon class="bf3f5eaa-8301-44aa-8334-b4dcc4886ab7" points="464.19 1461.46 461.87 1607.78 465.18 1607.96 471.35 1462 465.81 1461.05 464.19 1461.46"/><polygon class="bf3f5eaa-8301-44aa-8334-b4dcc4886ab7" points="471.35 1462 465.18 1607.96 478.96 1608.74 480.51 1506.02 481.16 1463.69 471.35 1462"/><polygon class="b9394dfe-52cf-4083-87b8-ef0118e451f9" points="1324.74 1216.64 1369.27 1214.84 1371.15 1201.04 1326.63 1202.11 1324.74 1216.64"/><polygon class="b9394dfe-52cf-4083-87b8-ef0118e451f9" points="1347.35 1233.85 1391.88 1232.05 1393.76 1218.24 1349.23 1219.31 1347.35 1233.85"/><path class="ad339208-c9c2-4309-a2d1-2af44471b97a" d="M794.14,1098.46c-8.14-14.27-36.43-21-56.44-5.83a42,42,0,0,0-16.23,30.25c-1.47,18.54-2.62,57.26,13,61.6,20.64,5.73,53,.86,59.64-12S802.16,1112.57,794.14,1098.46Zm-9.36,63.8c-4.78,9.35-28.27,12.89-43.23,8.73-11.34-3.15-10.51-31.22-9.44-44.65a30.46,30.46,0,0,1,11.76-21.94c14.51-11,35-6.11,40.91,4.23S789.55,1152.9,784.78,1162.26Z"/><path class="f01936f7-38f8-45ce-8279-bf5d74862a5d" d="M780.38,1106c5.83,10.23,4.78,44.27,0,53.63s-28.26,12.88-43.23,8.72c-11.33-3.15-10.51-31.21-9.44-44.64a30.47,30.47,0,0,1,11.76-21.94C754,1090.78,774.55,1095.76,780.38,1106Z"/><polygon class="ad339208-c9c2-4309-a2d1-2af44471b97a" points="760.8 1129.61 760.15 1092.61 764 1091.36 764.67 1129.38 760.8 1129.61"/><polygon class="ad339208-c9c2-4309-a2d1-2af44471b97a" points="749.55 1130.29 749.78 1139.3 725.3 1140.59 723.36 1131.88 749.55 1130.29"/><polygon class="ad339208-c9c2-4309-a2d1-2af44471b97a" points="764.83 1138.5 765.43 1172.21 754.53 1174.24 754.52 1173.52 761.56 1172.21 760.97 1138.7 760.91 1135.58 764.78 1135.38 764.67 1129.38 787.01 1128.02 790.34 1137.15 764.83 1138.5"/><path class="ad339208-c9c2-4309-a2d1-2af44471b97a" d="M789.87,1098.46c-7.86-14.27-35.25-21-54.64-5.83a42.33,42.33,0,0,0-15.7,30.25c-1.44,18.54-2.54,57.26,12.6,61.6,20,5.73,51.36.86,57.74-12S797.65,1112.57,789.87,1098.46Zm-9,63.8c-4.63,9.35-27.36,12.89-41.85,8.73-11-3.15-10.19-31.22-9.16-44.65a30.74,30.74,0,0,1,11.39-21.94c14-11,33.91-6.11,39.61,4.23S785.46,1152.9,780.83,1162.26Z"/><path class="a6b3edf1-9d3b-4625-9220-a29fa03a5d22" d="M789.7,1095.8c-8.13-14.27-36.42-21-56.44-5.84A42,42,0,0,0,717,1120.24c-1.47,18.53-2.61,57.25,13,61.6,20.65,5.73,53.05.85,59.64-12S797.77,1109.93,789.7,1095.8Zm-9.32,63.81c-4.77,9.35-28.26,12.88-43.23,8.73-11.33-3.15-10.51-31.22-9.44-44.65a30.47,30.47,0,0,1,11.76-21.94c14.52-11,35-6.11,40.91,4.23S785.16,1150.26,780.38,1159.61Z"/><path class="a6b3edf1-9d3b-4625-9220-a29fa03a5d22" d="M764.75,1135.35l-.77,0a3.24,3.24,0,0,0-3.05,3.28h0l.6,33.51-7,1.31-3.82.72-.88-35h0v0a3.05,3.05,0,0,0-3.19-2.9l-21.36,1.13-1.94-8.71,26.23-1.59-.82-32.09,11.45-3.72v1.24l.54,30.32v.16a3.42,3.42,0,0,0,3.63,3.19l22.58-1.36,3.33,9.15Z"/><path class="ad339208-c9c2-4309-a2d1-2af44471b97a" d="M527.53,1357.73c-4.85-8.52-21.74-12.52-33.69-3.48a25,25,0,0,0-9.69,18.06c-.87,11.06-1.55,34.17,7.78,36.77,12.32,3.42,31.66.51,35.6-7.2S532.37,1366.24,527.53,1357.73ZM522,1395.82c-2.85,5.58-16.87,7.69-25.8,5.21-6.77-1.88-6.28-18.63-5.64-26.65a18.15,18.15,0,0,1,7-13.09c8.65-6.55,20.89-3.66,24.41,2.52S524.83,1390.24,522,1395.82Z"/><path class="f01936f7-38f8-45ce-8279-bf5d74862a5d" d="M519.33,1362.2c3.47,6.1,2.85,26.45,0,32s-16.88,7.69-25.81,5.21c-6.77-1.87-6.28-18.63-5.64-26.65a18.22,18.22,0,0,1,7-13.09C503.57,1353.13,515.86,1356.09,519.33,1362.2Z"/><polygon class="ad339208-c9c2-4309-a2d1-2af44471b97a" points="507.63 1376.32 507.24 1354.24 509.54 1353.49 509.94 1376.19 507.63 1376.32"/><polygon class="ad339208-c9c2-4309-a2d1-2af44471b97a" points="500.92 1376.73 501.06 1382.11 486.44 1382.88 485.28 1377.68 500.92 1376.73"/><polygon class="ad339208-c9c2-4309-a2d1-2af44471b97a" points="510.04 1381.63 510.4 1401.76 503.89 1402.97 503.88 1402.54 508.09 1401.76 507.73 1381.75 507.7 1379.89 510 1379.77 509.94 1376.19 523.28 1375.38 525.27 1380.82 510.04 1381.63"/><path class="ad339208-c9c2-4309-a2d1-2af44471b97a" d="M525,1357.73c-4.69-8.52-21.05-12.52-32.62-3.48a25.3,25.3,0,0,0-9.37,18.06c-.87,11.06-1.51,34.17,7.52,36.77,11.94,3.42,30.66.51,34.47-7.2S529.7,1366.24,525,1357.73Zm-5.42,6.08c3.36,6.11,2.79,26.42,0,32s-16.34,7.69-25,5.21c-6.55-1.87-6.07-18.63-5.45-26.65a18.31,18.31,0,0,1,6.79-13.09c8.39-6.55,20.25-3.65,23.65,2.53Z"/><path class="a6b3edf1-9d3b-4625-9220-a29fa03a5d22" d="M524.9,1356.15c-4.84-8.52-21.73-12.52-33.68-3.48a25,25,0,0,0-9.69,18.06c-.88,11.06-1.56,34.18,7.77,36.77,12.33,3.42,31.67.51,35.6-7.19S529.75,1364.67,524.9,1356.15Zm-5.57,6.08c3.47,6.1,2.86,26.42,0,32s-16.87,7.69-25.8,5.21c-6.77-1.87-6.28-18.63-5.64-26.65a18.19,18.19,0,0,1,7-13.09c8.65-6.55,20.89-3.65,24.41,2.53Z"/><path class="a6b3edf1-9d3b-4625-9220-a29fa03a5d22" d="M510,1379.79h-.45a1.93,1.93,0,0,0-1.82,2h0l.36,20-4.22.76-2.28.43-.53-20.86h0v0a1.82,1.82,0,0,0-1.91-1.72l-12.77.68-1.16-5.21,15.66-.94-.49-19.16,6.86-2.22v.76l.32,18.09s0,.05,0,.08a2,2,0,0,0,2.16,1.92l13.49-.81,2,5.44Z"/><path class="bfa6e083-ef6b-4fc8-9c27-528794a47972" d="M723.61,918l9.95,16.74c-9.28,90-137.25,273.08-137.25,273.08l-23.32-.61C677.33,1090.79,723.61,918,723.61,918Z"/><path class="fb7402a4-7739-43d9-9a4f-6ddcc10e6b27" d="M540.91,1195.42a43.68,43.68,0,0,0,24.54,11l7.52.82C687.59,1092.25,723.59,918,723.59,918c64,131.24,233.79,308.06,233.79,308.06h3a41.64,41.64,0,0,0,24.26-7.8h0C850.2,1070.5,729.8,883.89,729.8,883.89l-22.12,5.88c-64.54,209.83-166.76,305.65-166.76,305.65Z"/><polygon class="ba5e0fd3-c2fb-4fc1-8279-8a7ebb40fca4" points="526.63 1459.29 525.99 1456.79 471.72 1453.42 471.57 1456.74 481.16 1457.18 481.25 1457.18 485.37 1457.38 492.28 1457.7 496.93 1457.91 515.07 1458.76 518.58 1458.92 525.32 1459.24 526.63 1459.29"/><path class="a6b3edf1-9d3b-4625-9220-a29fa03a5d22" d="M621.39,1451.61,488.28,1248l-57,166.51v23c41.92-23,65.69-144.43,65.69-144.43,52.76,96.22,115.56,177.07,115.56,177.07Z"/><polygon class="ace2fede-9cac-4b4c-a56b-f4eeea75f3c1" points="531.81 1460.57 531.82 1459.54 530.81 1459.49 531.81 1460.57"/><polygon class="ace2fede-9cac-4b4c-a56b-f4eeea75f3c1" points="471.06 1456.71 465.26 1456.44 464.48 1458.36 471.06 1456.71"/><polygon class="ace2fede-9cac-4b4c-a56b-f4eeea75f3c1" points="525.13 1471.27 525.32 1459.24 518.58 1458.92 518.72 1470.16 525.13 1471.27"/><polygon class="ace2fede-9cac-4b4c-a56b-f4eeea75f3c1" points="492.06 1465.57 492.28 1457.7 485.37 1457.38 485.27 1464.4 492.06 1465.57"/><polygon class="bf3f5eaa-8301-44aa-8334-b4dcc4886ab7" points="529.9 1472.09 526.63 1459.29 525.32 1459.24 525.13 1471.27 529.9 1472.09"/><polygon class="ba5e0fd3-c2fb-4fc1-8279-8a7ebb40fca4" points="518.72 1470.16 518.58 1458.92 515.07 1458.76 514.96 1469.52 518.72 1470.16"/><polygon class="bf3f5eaa-8301-44aa-8334-b4dcc4886ab7" points="496.8 1466.39 496.93 1457.91 492.28 1457.7 492.06 1465.57 496.8 1466.39"/><polygon class="bf3f5eaa-8301-44aa-8334-b4dcc4886ab7" points="514.96 1469.52 515.07 1458.76 496.93 1457.91 496.8 1466.39 514.96 1469.52"/><polygon class="ba5e0fd3-c2fb-4fc1-8279-8a7ebb40fca4" points="485.27 1464.4 485.37 1457.38 481.25 1457.18 481.16 1463.69 485.27 1464.4"/><polygon class="bf3f5eaa-8301-44aa-8334-b4dcc4886ab7" points="471.45 1459.63 471.57 1456.74 471.06 1456.71 464.48 1458.36 463.55 1460.66 465.81 1461.05 471.45 1459.63"/><polygon class="bf3f5eaa-8301-44aa-8334-b4dcc4886ab7" points="471.45 1459.63 481.16 1457.18 471.57 1456.74 471.45 1459.63"/><polygon class="bf3f5eaa-8301-44aa-8334-b4dcc4886ab7" points="465.81 1461.05 471.35 1462 471.45 1459.63 465.81 1461.05"/><polygon class="bf3f5eaa-8301-44aa-8334-b4dcc4886ab7" points="481.16 1463.69 481.25 1457.18 481.16 1457.18 471.45 1459.63 471.35 1462 481.16 1463.69"/><polygon class="fb7402a4-7739-43d9-9a4f-6ddcc10e6b27" points="589 1442.86 548.63 1495.41 418.41 1494.9 445.44 1442.86 589 1442.86"/><path class="aa016aa7-232c-40a5-b020-8b59328ca2bb" d="M548.66,1494.89l1.27,4.75-3,6.67-115.1-2a14.54,14.54,0,0,1-13.37-9.43H548.66Z"/><path class="e811474a-9daf-4c59-a048-0fad0249b03a" d="M546.88,1506.34a13.94,13.94,0,0,0,0-11.45h0l42.12-52-2.65,11-39.47,52.44Z"/><polygon class="e15afac0-4b41-4ae3-90c5-98a03b23f5e8" points="774.28 1385.93 830.69 1395.26 832.3 1376.72 775.51 1371.81 774.28 1385.93"/><polygon class="e15afac0-4b41-4ae3-90c5-98a03b23f5e8" points="949.06 589.91 1005.47 599.24 1007.07 580.7 950.29 575.79 949.06 589.91"/><polygon class="e15afac0-4b41-4ae3-90c5-98a03b23f5e8" points="904.2 610.66 949.82 618.2 951.12 603.21 905.19 599.24 904.2 610.66"/><polygon class="e15afac0-4b41-4ae3-90c5-98a03b23f5e8" points="831.19 1503.8 875.32 1511.1 876.58 1496.6 832.14 1492.75 831.19 1503.8"/><polygon class="e15afac0-4b41-4ae3-90c5-98a03b23f5e8" points="808.5 1409.88 852.63 1417.17 853.88 1402.67 809.45 1398.83 808.5 1409.88"/><polygon class="e15afac0-4b41-4ae3-90c5-98a03b23f5e8" points="878.73 1495.22 920.98 1500.14 922.24 1485.64 877.95 1480.13 878.73 1495.22"/><polygon class="e15afac0-4b41-4ae3-90c5-98a03b23f5e8" points="723.25 1251.98 762.1 1258.4 763.2 1245.64 724.09 1242.25 723.25 1251.98"/><polygon class="e15afac0-4b41-4ae3-90c5-98a03b23f5e8" points="740.17 1271.09 779.02 1277.5 780.12 1264.74 741.01 1261.35 740.17 1271.09"/><polygon class="e15afac0-4b41-4ae3-90c5-98a03b23f5e8" points="861.13 955.22 899.97 961.64 901.08 948.88 861.97 945.49 861.13 955.22"/><polygon class="e15afac0-4b41-4ae3-90c5-98a03b23f5e8" points="835.12 933.56 875.27 940.19 876.41 927 835.99 923.5 835.12 933.56"/><polygon class="e15afac0-4b41-4ae3-90c5-98a03b23f5e8" points="855.77 925 890.91 930.8 891.91 919.26 856.53 916.19 855.77 925"/><path class="a6b3edf1-9d3b-4625-9220-a29fa03a5d22" d="M1265.23,1321.32l6.15,9.28c-17.31,33.39-36,29.44-36,29.44Z"/><path class="ad339208-c9c2-4309-a2d1-2af44471b97a" d="M1345.23,1325c5.55,10.51,32.17,14.15,49,9.22,12.77-3.74,11.41-35.46,10-50.64a34.45,34.45,0,0,0-13.63-24.63c-16.59-12.19-39.71-6.38-46.21,5.41S1339.67,1314.52,1345.23,1325Zm7.55-8.44c-4-7.61-5.32-35.41-.6-44s21.47-12.76,33.49-3.92a25,25,0,0,1,9.92,17.85c1,11,2,34-7.25,36.7-12.22,3.58-31.51,1-35.54-6.67Z"/><path class="f01936f7-38f8-45ce-8279-bf5d74862a5d" d="M1355.82,1270.4c-4.66,8.45-3.43,36.34.59,44s23.34,10.25,35.54,6.68c9.25-2.71,8.27-25.7,7.24-36.71a25,25,0,0,0-9.92-17.85C1377.24,1257.65,1360.48,1262,1355.82,1270.4Z"/><polygon class="ad339208-c9c2-4309-a2d1-2af44471b97a" points="1372.08 1289.55 1372.2 1259.21 1369.04 1258.22 1368.91 1289.4 1372.08 1289.55"/><polygon class="ad339208-c9c2-4309-a2d1-2af44471b97a" points="1381.31 1289.98 1381.22 1297.37 1401.3 1298.16 1402.8 1290.99 1381.31 1289.98"/><polygon class="ad339208-c9c2-4309-a2d1-2af44471b97a" points="1368.88 1296.88 1368.75 1324.53 1377.71 1326.07 1377.72 1325.48 1371.93 1324.48 1372.05 1297.01 1372.06 1294.45 1368.88 1294.32 1368.91 1289.4 1350.57 1288.54 1347.94 1296.05 1368.88 1296.88"/><path class="ad339208-c9c2-4309-a2d1-2af44471b97a" d="M1348.72,1325c5.38,10.5,31.15,14.16,47.47,9.23,12.37-3.72,11-35.46,9.66-50.64a34.85,34.85,0,0,0-13.22-24.63c-16.06-12.2-38.44-6.39-44.72,5.39S1343.34,1314.47,1348.72,1325Zm6.71-52.42c4.57-8.55,20.79-12.75,32.43-3.91a25.15,25.15,0,0,1,9.57,17.86c1,11,2,34-7,36.7-11.83,3.57-30.51.94-34.41-6.69S1350.87,1281.1,1355.43,1272.56Z"/><path class="a9b765b7-9e06-414c-9f55-2ec9196199e3" d="M1348.81,1322.81c5.54,10.51,32.16,14.14,49,9.21,12.77-3.73,11.41-35.46,10-50.64a34.42,34.42,0,0,0-13.63-24.63c-16.59-12.19-39.7-6.37-46.21,5.41S1343.26,1312.31,1348.81,1322.81Zm7.55-8.45c-4-7.61-5.33-35.42-.61-44s21.47-12.75,33.48-3.92a25,25,0,0,1,9.92,17.85c1,11,2,34-7.24,36.71-12.23,3.57-31.52,1-35.54-6.68Z"/><path class="a9b765b7-9e06-414c-9f55-2ec9196199e3" d="M1368.88,1294.36h.62A2.64,2.64,0,0,1,1372,1297h0l-.11,27.46,5.79,1,3.16.54.34-28.66h0a.15.15,0,0,0,0-.07,2.48,2.48,0,0,1,2.58-2.38l17.55.69,1.48-7.16-21.51-1,.31-26.32-9.44-2.93v1l-.1,24.85v.11a2.82,2.82,0,0,1-2.94,2.68l-18.53-.87-2.63,7.52Z"/><polygon class="e15afac0-4b41-4ae3-90c5-98a03b23f5e8" points="1181.67 1523.68 1238.08 1533 1239.68 1514.47 1182.89 1509.56 1181.67 1523.68"/><polygon class="e15afac0-4b41-4ae3-90c5-98a03b23f5e8" points="1199.81 1536.57 1152.15 1536.15 1153.48 1520.69 1200.84 1524.79 1199.81 1536.57"/><polygon class="e15afac0-4b41-4ae3-90c5-98a03b23f5e8" points="1104.81 1492.6 1057.14 1491.77 1058.6 1476.33 1105.92 1480.83 1104.81 1492.6"/><polygon class="e15afac0-4b41-4ae3-90c5-98a03b23f5e8" points="1102.27 1462.22 1129.77 1462.99 1129.41 1476.52 1101.11 1477.3 1102.27 1462.22"/><path class="e811474a-9daf-4c59-a048-0fad0249b03a" d="M653.69,1466,878,1457.76h0a11.11,11.11,0,0,1-6.26,10h0a8.94,8.94,0,0,1-3.37.87L638,1481.76Z"/><path class="aa016aa7-232c-40a5-b020-8b59328ca2bb" d="M729.78,1296.39c31.42,39.72,148.13,161.37,148.13,161.37L653.64,1466c-158.44-162.79-156.37-227.71-156.37-227.71C650.37,1295.31,729.82,1296.39,729.78,1296.39Z"/><path class="fb7402a4-7739-43d9-9a4f-6ddcc10e6b27" d="M497.27,1238.32H476c-51.52,182.48-88.76,204.12-88.76,204.12h0a33.65,33.65,0,0,0,26.34,2.37l3.46-1.12c66.05-78.86,70.63-187.23,70.63-187.23C528.6,1344.6,638,1481.75,638,1481.75l5.54-3A20.81,20.81,0,0,0,653.68,1466h0C554.58,1351.83,497.27,1238.32,497.27,1238.32Z"/><path class="e811474a-9daf-4c59-a048-0fad0249b03a" d="M952.51,1056c3.38,7.87,42.08,47.28,48.49,52.51s36,17.26,36,17.26c-60.57-32.86-89.77-83.39-89.77-83.39S949.13,1048.09,952.51,1056Z"/><path class="bfa6e083-ef6b-4fc8-9c27-528794a47972" d="M487.63,1256.47l5.14,10.6c-6.37,83-61.53,170.45-61.53,170.45L417,1443.69C468.86,1370.68,487.63,1256.47,487.63,1256.47Z"/><polygon class="b9394dfe-52cf-4083-87b8-ef0118e451f9" points="1361.13 1346.31 1319.29 1344.75 1315.49 1359.32 1358.52 1357.06 1361.13 1346.31"/><polygon class="b9394dfe-52cf-4083-87b8-ef0118e451f9" points="1333.98 1358.17 1292.14 1356.6 1288.35 1371.17 1331.37 1368.91 1333.98 1358.17"/><polygon class="b9394dfe-52cf-4083-87b8-ef0118e451f9" points="1047.23 1018.69 1005.39 1017.13 1001.6 1031.7 1044.62 1029.43 1047.23 1018.69"/><polygon class="b9394dfe-52cf-4083-87b8-ef0118e451f9" points="1079.23 966.8 1037.39 965.24 1033.6 979.81 1076.62 977.54 1079.23 966.8"/><polygon class="b9394dfe-52cf-4083-87b8-ef0118e451f9" points="684.93 1551.56 637.97 1558.28 636.68 1575.29 684.19 1564.07 684.93 1551.56"/><polygon class="b9394dfe-52cf-4083-87b8-ef0118e451f9" points="709.06 1562.51 662.09 1569.22 660.8 1586.23 708.32 1575.02 709.06 1562.51"/><polygon class="b9394dfe-52cf-4083-87b8-ef0118e451f9" points="781.95 1493.76 749.62 1498.38 748.73 1510.09 781.44 1502.37 781.95 1493.76"/><polygon class="b9394dfe-52cf-4083-87b8-ef0118e451f9" points="957.05 838.81 920.59 841.97 918.87 855.02 955.95 848.41 957.05 838.81"/><polygon class="b9394dfe-52cf-4083-87b8-ef0118e451f9" points="975.17 848.28 938.71 851.43 936.99 864.48 974.06 857.88 975.17 848.28"/><polygon class="b9394dfe-52cf-4083-87b8-ef0118e451f9" points="973.99 795.08 948.89 797.25 947.71 806.23 973.23 801.69 973.99 795.08"/><polygon class="b9394dfe-52cf-4083-87b8-ef0118e451f9" points="1037.17 1429 989.75 1427.24 985.46 1443.75 1034.2 1441.18 1037.17 1429"/><polygon class="b9394dfe-52cf-4083-87b8-ef0118e451f9" points="1010.56 1462.65 963.14 1460.89 958.85 1477.39 1007.6 1474.83 1010.56 1462.65"/><polygon class="b9394dfe-52cf-4083-87b8-ef0118e451f9" points="1088.76 604.63 1041.34 602.87 1037.05 619.38 1085.8 616.81 1088.76 604.63"/><polygon class="b9394dfe-52cf-4083-87b8-ef0118e451f9" points="1125.02 653.47 1077.6 651.71 1073.31 668.21 1122.06 665.65 1125.02 653.47"/><polygon class="b9394dfe-52cf-4083-87b8-ef0118e451f9" points="1101.29 678.63 1053.87 676.86 1049.58 693.37 1098.33 690.81 1101.29 678.63"/><polygon class="b9394dfe-52cf-4083-87b8-ef0118e451f9" points="1090.39 770.24 1042.98 768.48 1038.68 784.99 1087.43 782.42 1090.39 770.24"/><polygon class="a9b765b7-9e06-414c-9f55-2ec9196199e3" points="1304.55 1386.59 1304.11 1556.99 1315.68 1557.69 1315.68 1555.66 1418.26 1543.93 1413.38 1379.52 1316.15 1385.73 1316.16 1382.81 1304.55 1386.59"/><polygon class="ace2fede-9cac-4b4c-a56b-f4eeea75f3c1" points="1316.16 1382.81 1315.68 1557.69 1429.92 1545.96 1424.98 1379.12 1316.16 1382.81"/><g class="bc3e3369-a6b2-4c73-b2f4-3a14c2c0a5dc"><polygon class="ba5e0fd3-c2fb-4fc1-8279-8a7ebb40fca4" points="1347.2 1556.54 1346.64 1376.83 1323.28 1382.56 1323.66 1443.08 1320.93 1507.55 1322.01 1560.28 1347.2 1556.54"/><polygon class="bf3f5eaa-8301-44aa-8334-b4dcc4886ab7" points="1354.12 1555.32 1353.81 1456.37 1353.56 1375.61 1329.47 1382.18 1328.07 1476.57 1328.93 1559.06 1354.12 1555.32"/><polygon class="ba5e0fd3-c2fb-4fc1-8279-8a7ebb40fca4" points="1384.36 1552.78 1383.79 1369.73 1360.92 1375.32 1358.41 1474.59 1359.19 1556.9 1384.36 1552.78"/><polygon class="bf3f5eaa-8301-44aa-8334-b4dcc4886ab7" points="1389.38 1553.04 1390.39 1473.53 1388.82 1373.33 1364.7 1379.22 1364.5 1449.47 1364.19 1556.77 1389.38 1553.04"/><polygon class="ba5e0fd3-c2fb-4fc1-8279-8a7ebb40fca4" points="1419.14 1548.79 1418.63 1387.61 1396.12 1376.64 1396.28 1445.72 1396.54 1552.14 1419.14 1548.79"/><path class="bf3f5eaa-8301-44aa-8334-b4dcc4886ab7" d="M1423.74,1548.67l-2.08-42.18q-1-20.74-.55-41.52l2-88.71-22.56.47.13,55.26-1.7,119.76Z"/></g><path class="e811474a-9daf-4c59-a048-0fad0249b03a" d="M730,1393c10.59,13,52.1,42.43,52.1,42.43-16.61-9.59-97-99.6-97-99.6S719.37,1380,730,1393Z"/><path class="e811474a-9daf-4c59-a048-0fad0249b03a" d="M614,1320.81c3.22,15.37,43.18,76.42,52.85,88.15s27.46,17.75,27.46,17.75c-29.85-18.39-84.67-123.57-84.67-123.57S610.82,1305.44,614,1320.81Z"/><path class="e811474a-9daf-4c59-a048-0fad0249b03a" d="M890.11,1016.81c3.81,15.23,62.39,97.94,72.46,109.28s60.2,41.79,60.2,41.79c-100.09-77.24-138.18-177.27-138.18-177.27S886.29,1001.58,890.11,1016.81Z"/><path class="e811474a-9daf-4c59-a048-0fad0249b03a" d="M917.64,666.56c2.23,5.2,27.81,31.25,32.05,34.71s23.81,11.41,23.81,11.41c-40-21.73-59.33-55.12-59.33-55.12S915.4,661.36,917.64,666.56Z"/><path class="e811474a-9daf-4c59-a048-0fad0249b03a" d="M876.39,640.69c2.52,10.07,41.24,64.73,47.9,72.23s39.78,27.62,39.78,27.62c-66.15-51-91.33-117.17-91.33-117.17S873.87,630.62,876.39,640.69Z"/><path class="e811474a-9daf-4c59-a048-0fad0249b03a" d="M635.88,1359.86s8.13,5.75,23.64,11.44,37.32,4.47,37.32,4.47c-17.13-.29-63.37-21.84-63.37-21.84Z"/><path class="e811474a-9daf-4c59-a048-0fad0249b03a" d="M589.12,1319.85s8.13,5.71,23.64,11.4,37.32,4.44,37.32,4.44c-17.13-.28-63.39-21.8-63.39-21.8Z"/><path class="e811474a-9daf-4c59-a048-0fad0249b03a" d="M714,1403.18s8.15,3.1,22.57,4.58,32.67-4.3,32.67-4.3c-14.61,3.47-58.57-4.81-58.57-4.81Z"/><path class="fb7402a4-7739-43d9-9a4f-6ddcc10e6b27" d="M1143.57,1174.67c-31.43,39.72-148.14,161.38-148.14,161.38l222.21,12c130.36-137.32,158.47-231.43,158.47-231.43C1223,1173.59,1143.57,1174.67,1143.57,1174.67Z"/><path class="e811474a-9daf-4c59-a048-0fad0249b03a" d="M1376.08,1116.61h21.31c50.45,117.33,96.58,183.73,109.84,201.72.55.74-.39,2-1.91,3.27a18.21,18.21,0,0,1-14.78,3.81l-9.31-1.62c-83.06-114.18-95.48-189-95.48-189-41,88.13-150.32,225.28-150.32,225.28l-17.09-4.48,1.37-11.24C1318.81,1230.12,1376.08,1116.61,1376.08,1116.61Z"/><path class="aa016aa7-232c-40a5-b020-8b59328ca2bb" d="M1232.77,1359a21.81,21.81,0,0,1-13-14.67h0l-224.27-8.27h0a12.5,12.5,0,0,0,6.86,10.26h0a5.29,5.29,0,0,0,2.09.56l231,13.17Z"/><path class="bfa6e083-ef6b-4fc8-9c27-528794a47972" d="M1385.75,1134.76l-6.17,12.64c16.56,73.17,84.28,172.41,84.28,172.41l17.37,4C1410.57,1218.24,1385.75,1134.76,1385.75,1134.76Z"/><path class="aa016aa7-232c-40a5-b020-8b59328ca2bb" d="M1253.38,1222.16c-2.29,16.75-48.06,76-48.06,76,51.84-43.73,89.5-133.63,89.5-133.63S1255.67,1205.41,1253.38,1222.16Z"/><path class="aa016aa7-232c-40a5-b020-8b59328ca2bb" d="M531,1462.59c-.76,5.42-15.59,24.63-15.59,24.63,16.79-14.17,29-43.31,29-43.31S531.75,1457.17,531,1462.59Z"/><path class="aa016aa7-232c-40a5-b020-8b59328ca2bb" d="M505.32,1455.27c-.44,3.48-7.77,15.44-7.77,15.44,9.72-9.11,16.78-27.83,16.78-27.83S505.76,1451.78,505.32,1455.27Z"/><polygon class="aa016aa7-232c-40a5-b020-8b59328ca2bb" points="1432.57 1377.29 1458.29 1426.29 1335.4 1427.29 1297.1 1377.87 1432.57 1377.29"/><path class="e811474a-9daf-4c59-a048-0fad0249b03a" d="M1458.29,1426.28h0a13.75,13.75,0,0,1-12.58,9l-108.61,2.34-2.9-6.28,1.18-4.49Z"/><path class="fb7402a4-7739-43d9-9a4f-6ddcc10e6b27" d="M1337.1,1437.57l-37.46-49.33-2.54-10.37,40,48.93h0a13.1,13.1,0,0,0,0,10.79Z"/><path class="e811474a-9daf-4c59-a048-0fad0249b03a" d="M1339.19,1378.68s11.63,27.44,27.53,40.75c0,0-14.07-18.07-14.81-23.18S1339.19,1378.68,1339.19,1378.68Z"/><path class="e811474a-9daf-4c59-a048-0fad0249b03a" d="M1367.56,1377.58s6.74,17.64,16,26.19c0,0-7-11.25-7.4-14.53S1367.56,1377.58,1367.56,1377.58Z"/><path class="aa016aa7-232c-40a5-b020-8b59328ca2bb" d="M1165,1250c-4.09,12.11-51.87,71.33-51.87,71.33,27-12.19,107.77-140,107.77-140S1169.1,1237.89,1165,1250Z"/><path class="aa016aa7-232c-40a5-b020-8b59328ca2bb" d="M1171.16,1246.13s8.18,3,22.6,4.44,32.65-4.5,32.65-4.5c-14.6,3.55-58.61-4.46-58.61-4.46Z"/><path class="e811474a-9daf-4c59-a048-0fad0249b03a" d="M1017.11,1085.57c-4.15-1.73-8.66-3.68-13.85-5.73h-.08c-11.13-4.22-24.66-9-41.1-14-1.79-.44-3.56-1-5.43-1.48l-2.8-.91h-.08c-.76-.12-1.42-.38-2.1-.48a13.4,13.4,0,0,0-3.34-1c-8.15-2.21-15.76-4.18-22.88-5.78h-.23c-3.69-.74-7.3-1.46-10.76-2.17-.35.25-1.13.52-1.46.71-1.87,1.08-4.09,1.65-6.23,3,1.29.21,4.62,2.4,6,2.76,3.72.61,7.55,1.37,11.44,2.29.1-.17.18-.16.23,0,6.19,1.14,12.63,2.63,19.35,4.3a41.39,41.39,0,0,1,4.1,1.12c2.7.59,5.33,1.13,8.09,1.9,2.37.68,4.77,1.22,7.15,1.9,13.9,3.9,28.42,8.32,43.41,13.66h.08c3.72,1.51,7.4,2.71,11.21,4.23h.08c9.46,3.5,18.92,7.46,28.6,11.6-2.35-1.9-11-7.72-29.33-15.85Z"/><path class="e811474a-9daf-4c59-a048-0fad0249b03a" d="M953.76,682.94c-1.91-.17-4-.37-6.36-.52h0c-5-.22-11.06-.31-18.22-.06-.76.08-1.54.09-2.33.18l-1.23,0h0c-.3.07-.6,0-.87.11a4.66,4.66,0,0,0-1.45.07c-3.48.27-6.71.57-9.68,1l-.08,0-4.43.73a6.83,6.83,0,0,1-.37.6c-.44.85-1.11,1.5-1.59,2.53.52-.11,2.24.42,2.81.37,1.49-.32,3.07-.59,4.7-.78,0-.11,0-.11.09,0,2.51-.48,5.21-.82,8-1.12a12.52,12.52,0,0,1,1.75-.14c1.12-.16,2.2-.33,3.38-.41s2-.2,3-.26c6-.4,12.28-.65,19-.52l0,0c1.7.13,3.32.1,5.06.22h0c4.25.15,8.61.52,13.09,1-1.29-.55-5.77-2-14.33-2.94Z"/><path class="e811474a-9daf-4c59-a048-0fad0249b03a" d="M963.71,695.92c-1.32-.13-2.78-.29-4.4-.4h0c-3.45-.16-7.55-.22-12.35,0-.5.07-1,.07-1.55.15l-.83,0h0c-.2,0-.4,0-.58.09a2.6,2.6,0,0,0-1,.06c-2.3.22-4.44.47-6.38.8l0,0-2.86.59a4.56,4.56,0,0,1-.15.48c-.14.68-.48,1.2-.62,2,.34-.09,1.59.32,2,.29a24.87,24.87,0,0,1,3.05-.64c0-.08,0-.09,0,0a49.67,49.67,0,0,1,5.25-.91,7.23,7.23,0,0,1,1.16-.12c.73-.13,1.43-.27,2.22-.34s1.33-.16,2-.21a123.17,123.17,0,0,1,12.76-.46h0c1.18.09,2.27.07,3.47.16l0,0c2.91.11,5.93.4,9,.73-1-.44-4.27-1.57-10.24-2.3Z"/><path class="aa1aad47-e447-4ae4-8833-961622fbaa02" d="M1181.07,1784.7s47.91-92.7,51.3-109.13C1232.37,1675.57,1177.45,1747.84,1181.07,1784.7Z"/><polygon class="aa1aad47-e447-4ae4-8833-961622fbaa02" points="1174.17 1700.36 1161.79 1662.26 1165.76 1661.15 1176.46 1696.98 1174.17 1700.36"/><path class="ace2fede-9cac-4b4c-a56b-f4eeea75f3c1" d="M1150.59,1619.34s-2.56.06-2.08,3.42c.36,2.49,7.54,27,11.25,39.63,1.48,5,9,3.25,8.06-1.88l-.06-.32C1165.75,1649.5,1156.57,1617.23,1150.59,1619.34Z"/><path class="b6ae5efb-9675-4af9-8021-590e883e0031" d="M1185.09,1605.27s3.52,62.16,2.9,70.14S1175.2,1760,1175.2,1760s-6.54-19.61-5.22-27.3S1185.09,1605.27,1185.09,1605.27Z"/><polygon class="ace2fede-9cac-4b4c-a56b-f4eeea75f3c1" points="1151.55 1621.37 1143.35 1605.28 1149.61 1621.87 1151.55 1621.37"/><polygon class="aa1aad47-e447-4ae4-8833-961622fbaa02" points="1211.93 1664.77 1227.63 1606.81 1223.61 1605.9 1207.2 1666 1211.93 1664.77"/><path class="ace2fede-9cac-4b4c-a56b-f4eeea75f3c1" d="M1236.69,1563.39s2.56-.07,2.24,3.31c-.23,2.5-6.19,27.38-9.27,40.14-1.22,5.06-8.77,3.69-8.13-1.48,0-.11,0-.21,0-.32C1223.05,1594.26,1230.62,1561.58,1236.69,1563.39Z"/><polygon class="ace2fede-9cac-4b4c-a56b-f4eeea75f3c1" points="1235.83 1565.46 1243.22 1548.98 1237.8 1565.86 1235.83 1565.46"/><path class="b6ae5efb-9675-4af9-8021-590e883e0031" d="M1178.84,1789.27s9.13-60.53-2-73.43-46.26-86.52-46.26-86.52,35.56,86.72,36.38,95.31,4.91,64.64,4.91,64.64Z"/><path class="aa1aad47-e447-4ae4-8833-961622fbaa02" d="M1176,1774.27c8.48-37,26.54-114.56,29.41-115.39,3.76-1.08,37.94-37.34,37.94-37.34.73,7-29.68,47.9-29.68,47.9s-35.63,123.85-36.55,124.5a4,4,0,0,1-5.5-.39S1173.31,1785.91,1176,1774.27Z"/><path class="b6ae5efb-9675-4af9-8021-590e883e0031" d="M1178.69,1799.36l1.07-.15a19.22,19.22,0,0,0,8.93-3.69h0s1.27-21.17,4.27-28.17c4.26-10,41.13-19.95,49.88-20.56,0,0-46.34.88-52.06,8.65S1176.64,1787.93,1178.69,1799.36Z"/><path class="aa1aad47-e447-4ae4-8833-961622fbaa02" d="M1155.4,1713.17c1,7,32.66,94.57,32.66,94.57s-4.2,5.11-15.08,3.06c0,0-22.09-91.82-27.51-98s-41.14-48.79-41.14-48.79S1153.61,1700.21,1155.4,1713.17Z"/><path class="bfa6e083-ef6b-4fc8-9c27-528794a47972" d="M747.28,788.26h17.36s71-114.45,74-134.39l-15.83-20.45S752.89,761.82,747.28,788.26Z"/><path class="fb7402a4-7739-43d9-9a4f-6ddcc10e6b27" d="M733.23,772.65s74.3-112.17,83-162.72l18.39.07s71,140.87,104.17,169L918.6,790.21l-95.75-145s-50.55,110-75.57,143.06Z"/><path class="e811474a-9daf-4c59-a048-0fad0249b03a" d="M1005.42,723,994.89,738.1s-45.7,50.08-76.29,52.11l17.49-13.81Z"/><polygon class="a3ac434f-1b5d-4795-a5d4-178d5254dbb1" points="1115.74 505.05 1182.65 395.32 1201.87 398.38 1130.83 507.25 1115.74 505.05"/><polygon class="a6b3edf1-9d3b-4625-9220-a29fa03a5d22" points="1196.71 398.38 1130.83 507.25 1173.75 507.25 1210.76 401.97 1196.71 398.38"/><polygon class="a6b3edf1-9d3b-4625-9220-a29fa03a5d22" points="949.11 507.25 876.67 390.8 857.45 393.87 929.96 507.25 949.11 507.25"/><polygon class="a3ac434f-1b5d-4795-a5d4-178d5254dbb1" points="862.61 393.87 930.25 505.64 885.57 502.74 848.56 397.46 862.61 393.87"/><polygon class="a6b3edf1-9d3b-4625-9220-a29fa03a5d22" points="1026.64 395.32 1028.17 507.25 1060.43 507.25 1060.43 395.32 1026.64 395.32"/><polygon class="ba5e0fd3-c2fb-4fc1-8279-8a7ebb40fca4" points="1021.62 505.05 1182.83 502.74 1184.6 551.37 1021.62 563.72 1021.62 505.05"/><path class="bf3f5eaa-8301-44aa-8334-b4dcc4886ab7" d="M1021.62,505.05l-136-2.31,5.32,52.47,130.73,8.51S1027.23,518.27,1021.62,505.05Z"/><path class="ba5e0fd3-c2fb-4fc1-8279-8a7ebb40fca4" d="M1020.14,68.22c3.65,21.11,13,50.83,13,50.83-10.09,8.94-23.87,0-23.87,0C1012.21,110.26,1020.14,68.22,1020.14,68.22Z"/><polygon class="ba5e0fd3-c2fb-4fc1-8279-8a7ebb40fca4" points="1005.34 236.81 1005.34 236.71 1005.8 235.07 1006.53 232.42 1006.99 230.96 1014.65 203.93 1028.08 203.93 1033.74 229.04 1034.38 232.15 1034.38 232.24 1034.93 234.34 1039.04 252.24 1027.07 250.41 1026.9 250.41 1016.12 248.77 1015.2 248.68 1002.51 246.66 1005.34 236.81"/><polygon class="ba5e0fd3-c2fb-4fc1-8279-8a7ebb40fca4" points="1019.39 120.78 1021.6 113.42 1023.48 120.5 1022.58 121.13 1024.54 204.61 1024.7 206.85 1017.67 206.85 1017.67 204.61 1019.39 120.78"/><path class="ace2fede-9cac-4b4c-a56b-f4eeea75f3c1" d="M1006.88,231.93c1.37-5.56,7.76-28,7.76-28h4.75l-.27,2.95L1016.56,231l-.19,1.55-9.67.73C1006.7,233.06,1006.79,232.6,1006.88,231.93Z"/><polygon class="a6b3edf1-9d3b-4625-9220-a29fa03a5d22" points="879.66 377.44 902.41 377.44 921.48 377.32 933.55 377.32 1020.28 377.07 1038.24 376.95 1042.05 376.95 1117.48 376.71 1126.08 376.58 1173.69 376.46 1181.33 376.46 1221.43 376.34 1221.18 378.55 1220.94 380.03 1220.08 386.67 1218.23 401.92 1198.54 402.05 1171.24 402.05 1123.63 402.29 1101.72 402.29 1026.19 402.66 1023.11 402.66 960.61 402.91 946.46 403.03 927.52 403.03 890 403.15 881.99 403.27 843.24 403.4 839.67 389.14 838.81 385.57 838.2 383.35 837.95 382.12 836.72 377.69 879.66 377.44"/><path class="aa016aa7-232c-40a5-b020-8b59328ca2bb" d="M1196.42,331.7c-.63-.74-1.49-1.48-2.22-2.23a.58.58,0,0,0-.37-.36h-.13l-.12-.13c-.12-.24-.37-.37-.61-.73a598.65,598.65,0,0,0-63.85-53.17H1129c-2.1-1.47-4.19-2.94-6.41-4.43a8.17,8.17,0,0,0-1.11-.73c-5.9-3.94-11.68-7.76-17.59-11.19l-.37-.25c-3.8-2.34-7.62-4.43-11.32-6.28-.12-.13-.12-.13-.24-.13-3.53-2-7.09-3.8-10.91-5.53a187.15,187.15,0,0,0-29.52-11.44l-6.33-1.62a2.07,2.07,0,0,0-.86-.12,27,27,0,0,0-5.28-1,3.35,3.35,0,0,0-.86-.24l-1-.25c-3.81-.61-7.63-1-11.2-1.23-1.72-.12-3.31-.12-5-.12-1.11,0-2.33,0-3.56.12a3.82,3.82,0,0,0-1.12.13,103.69,103.69,0,0,0-11.8,1.22h-.13a.44.44,0,0,1-.36.13,12.59,12.59,0,0,0-2.35.49h-.12c-1,.13-1.72.38-2.58.5l-1.36.37a90.77,90.77,0,0,0-9.11,2.73,3.61,3.61,0,0,0-1.24.36,3.74,3.74,0,0,0-1.1.25l-.12.12a180.56,180.56,0,0,0-33,15.39c-7.25,4.17-14.52,9-21.65,14a394.59,394.59,0,0,0-31,24.74h-.26l-.11.11h-.14c-2,1.85-3.8,3.44-5.66,5.18-3.06,2.69-6,5.64-9,8.35s-5.78,5.54-8.6,8.37c-1.85,1.76-3.69,3.61-5.53,5.45-2.59,2.59-5.06,5.05-7.39,7.52-2.89,2.82-5.46,5.77-8.18,8.61-.72.74-1.35,1.47-2.09,2.21-2.22,2.33-4.3,4.67-6.64,7.25-1.6,2-3.32,3.94-5,5.92-.14.12-.26.36-.5.49l-.37.37c-3.68,4.06-6.89,8-9.84,11.55-1.88,2.1-3.73,4.31-5.46,6.41a1.6,1.6,0,0,1-.36.49h-.13c-6.14,7.5-10.7,13.28-13.29,16.85a8.69,8.69,0,0,1-1,1.36c-.49.75-.86,1.24-1.1,1.61a1.61,1.61,0,0,0-.49.74h.2l10.09-.37,18.7-.37h1.36l41-1,8-.26,32.36-.73,12.78-.25h.13l87.24-2.09,20.92-.49h.49l8.37-.24h.25l3.8-.12,7.88-.13h.16l54.38-1.36,8.74-.24,23.62-.62,23.5-.49,7.62-.24h1.73l38.39-.86,3.56-.13h.75l17.34-.49S1224.38,358.06,1196.42,331.7Z"/><path class="e811474a-9daf-4c59-a048-0fad0249b03a" d="M1180,348.35c-4.44-1.22-8.91-3.27-14-4.5h-.14c-7-2-14.39-4.48-22.88-6.52h-.14c-25.63-6.53-58.26-12.65-99.24-16.74l-14.26-1.22a362,362,0,0,0-41.53-1.24,312.7,312.7,0,0,0-40.57,2.46h-.14c-7.19.81-14.25,2-20.82,2.86-1.79.41-3.58.82-5.21,1.22-8,1.22-15.36,3.26-21.93,4.9-26.87,7.37-43.87,15.95-51.27,20.45-.14,0-.41.4-.68.4h-.28c-1.65,1.22-2.6,1.63-3.16,2a8.69,8.69,0,0,0,2.73-.41h.41a1.4,1.4,0,0,0,1.09-.41c6.85-1.64,21.66-4.91,42.76-8.18,7.13-.82,15.07-2,23.72-3.26a108.09,108.09,0,0,1,11.79-.82c6.57-.81,13.56-1.63,20.83-2h.13c11.66-.82,24-1.64,37.15-1.64,11.52-.41,23.43-.41,35.92,0a70.6,70.6,0,0,1,9.31.41h4.09c1,0,1.92.41,2.87.41,4,0,8,.41,12.07.41,1.36,0,2.72.41,4.09.41,9,.41,18.36,1.23,27.82,2.45L1093,341c2.06.41,4.38.41,6.44.82s4,.41,6,.8a32.06,32.06,0,0,0,6,.82c3.3.41,6.58,1.23,10,1.63,1.51.41,3,.41,4.52.82,3.29.82,6.59,1.23,9.87,2h.14a23.62,23.62,0,0,1,7.4,1.22,77.93,77.93,0,0,1,9.46,1.63,86.1,86.1,0,0,0,9.54,2l4.53,1.23h.13c6.16,1.22,12.2,2.86,18.23,4.5h.13c12.68,3.25,25.43,6.53,38.17,11C1222.14,368.36,1209.67,359,1180,348.35Z"/><path class="e811474a-9daf-4c59-a048-0fad0249b03a" d="M1117.48,302.77c-7.81-1.9-16.32-4.06-26-6.23h-.14c-20.83-4.34-46-8.93-76.48-13.26-3.29-.28-6.58-.82-10-1.09l-5.21-.81h-.13c-1.37,0-2.61-.27-3.83-.27a23.89,23.89,0,0,0-6.18-.82c-14.94-1.62-28.93-3-41.94-3.79h-.41c-6.72-.27-13.29-.53-19.6-.8-.55.53-1.86,1.22-2.39,1.66-3,2.43-6.75,4.06-10.14,7,2.33,0,8.83,2.95,11.3,3.22,6.71,0,13.7.27,20.83.81.13-.26.27-.26.41,0,11.24.27,23,1.09,35.36,2.16a70.82,70.82,0,0,1,7.55.82c4.93.27,9.72.55,14.79,1.08,4.39.54,8.78.82,13.17,1.36,25.6,3,52.46,6.76,80.42,11.9h.14c7,1.61,13.85,2.71,21,4.34h.13c17.66,3.5,35.45,7.82,53.7,12.43-4.65-2.72-21.51-10.57-56.19-19.77Z"/><path class="e811474a-9daf-4c59-a048-0fad0249b03a" d="M1085.21,267.14c-3.45-1.44-7.22-3.09-11.52-4.72h-.06a326.42,326.42,0,0,0-33.76-9.91c-1.45-.19-2.9-.6-4.41-.79l-2.3-.6h-.06c-.6,0-1.15-.19-1.69-.19a6.28,6.28,0,0,0-2.72-.6c-6.58-1.17-12.75-2.14-18.48-2.69H1010l-8.62-.5c-.23.42-.8,1-1,1.32-1.28,1.92-.45,7.84.63,8a70.46,70.46,0,0,1,9.17.49q.08-.3.18,0a142.57,142.57,0,0,1,15.56,1.47,18.47,18.47,0,0,1,3.33.59c2.17.18,4.27.36,6.51.75,1.93.4,3.87.58,5.8,1a324.52,324.52,0,0,1,35.48,8.81h.06c3.09,1.22,6.12,2,9.27,3.27h.06c7.8,2.63,15.67,5.91,23.74,9.4-2.07-2.1-9.58-8.15-24.92-15.15Z"/><polygon class="a6b3edf1-9d3b-4625-9220-a29fa03a5d22" points="1142.41 662.35 1155.14 662.35 1165.81 662.28 1172.56 662.28 1221.1 662.14 1231.15 662.07 1233.28 662.07 1275.49 661.94 1280.3 661.87 1306.95 661.8 1311.22 661.8 1333.66 661.73 1333.52 662.97 1333.38 663.8 1332.9 667.51 1331.87 676.05 1320.85 676.12 1305.57 676.12 1278.93 676.25 1266.67 676.25 1224.4 676.46 1222.68 676.46 1187.7 676.6 1179.79 676.67 1169.19 676.67 1148.19 676.74 1143.71 676.8 1122.03 676.87 1120.03 668.89 1119.55 666.89 1119.2 665.65 1119.07 664.97 1118.38 662.49 1142.41 662.35"/><path class="aa016aa7-232c-40a5-b020-8b59328ca2bb" d="M1319.66,636.75c-.35-.41-.83-.83-1.24-1.24-.07-.14-.07-.14-.21-.21h-.07l-.06-.07c-.07-.14-.21-.21-.35-.41A334.4,334.4,0,0,0,1282,605.07h-.07c-1.17-.82-2.34-1.65-3.58-2.48a5.11,5.11,0,0,0-.62-.41c-3.3-2.21-6.54-4.34-9.85-6.26l-.2-.14c-2.13-1.31-4.27-2.48-6.33-3.52-.07-.07-.07-.07-.14-.07-2-1.1-4-2.13-6.1-3.09a104.24,104.24,0,0,0-16.53-6.4l-3.54-.91a1.1,1.1,0,0,0-.48-.07,15.47,15.47,0,0,0-3-.56,1.55,1.55,0,0,0-.48-.13l-.55-.14c-2.13-.35-4.27-.55-6.27-.69-1-.07-1.85-.07-2.82-.07a19.58,19.58,0,0,0-2,.07,1.94,1.94,0,0,0-.63.07,56.36,56.36,0,0,0-6.6.69h-.07a.3.3,0,0,1-.21.07,7.43,7.43,0,0,0-1.31.27h-.07c-.55.08-1,.21-1.44.28l-.76.21q-2.58.63-5.1,1.52a2.12,2.12,0,0,0-.69.21,1.92,1.92,0,0,0-.62.14l-.07.07a100.84,100.84,0,0,0-18.45,8.61c-4.06,2.33-8.12,5-12.11,7.84A221.91,221.91,0,0,0,1154,614h-.14l-.07.07h-.07c-1.1,1-2.13,1.93-3.17,2.89-1.71,1.51-3.38,3.16-5,4.68s-3.24,3.1-4.82,4.68c-1,1-2.06,2-3.09,3.06-1.45,1.44-2.83,2.82-4.14,4.2-1.62,1.58-3,3.23-4.58,4.82-.4.41-.75.82-1.16,1.24-1.25,1.3-2.41,2.61-3.72,4.05-.9,1.11-1.86,2.21-2.82,3.31-.08.07-.15.21-.28.28l-.21.2c-2.06,2.28-3.85,4.47-5.51,6.47-1,1.18-2.08,2.41-3,3.59a1.05,1.05,0,0,1-.2.27h-.07c-3.44,4.2-6,7.43-7.44,9.43a4.6,4.6,0,0,1-.55.76c-.27.42-.48.7-.62.9a.9.9,0,0,0-.27.42h.11l5.65-.21,10.46-.21h.77l22.93-.55,4.47-.14,18.11-.41,7.15-.14h.07l48.82-1.17,11.71-.27h.27l4.69-.14h.13l2.13-.07,4.41-.07h.09l30.43-.76,4.89-.14,13.22-.34,13.15-.27,4.27-.14h1l21.49-.48,2-.07h.42l9.7-.27S1335.31,651.5,1319.66,636.75Z"/><path class="e811474a-9daf-4c59-a048-0fad0249b03a" d="M1310.48,646.07c-2.49-.69-5-1.83-7.83-2.52h-.07c-3.92-1.13-8.06-2.51-12.81-3.65h-.08a377.53,377.53,0,0,0-55.53-9.37l-8-.68a202.58,202.58,0,0,0-23.24-.69,177.56,177.56,0,0,0-22.7,1.37h-.08c-4,.46-8,1.15-11.66,1.6-1,.23-2,.46-2.91.69-4.45.68-8.6,1.82-12.27,2.74-15,4.13-24.55,8.92-28.69,11.44-.08,0-.23.23-.38.23h-.16c-.92.68-1.45.91-1.77,1.14a5.25,5.25,0,0,0,1.53-.23h.23a.77.77,0,0,0,.61-.23c3.84-.92,12.12-2.75,23.93-4.58,4-.46,8.43-1.13,13.27-1.82a58.23,58.23,0,0,1,6.6-.46c3.68-.46,7.59-.91,11.65-1.14h.08c6.52-.46,13.43-.92,20.79-.92,6.44-.23,13.11-.23,20.1,0a39.42,39.42,0,0,1,5.21.23h2.29c.53,0,1.07.23,1.61.23,2.22,0,4.46.23,6.75.23.76,0,1.52.23,2.28.23,5.06.23,10.28.68,15.57,1.37l7,.69c1.16.23,2.45.23,3.6.45s2.23.23,3.38.45a17.52,17.52,0,0,0,3.37.46c1.85.23,3.69.69,5.6.92.85.23,1.7.23,2.54.45,1.83.46,3.68.69,5.52,1.15h.08a13,13,0,0,1,4.14.69,43,43,0,0,1,5.29.9,46.58,46.58,0,0,0,5.34,1.15l2.53.68h.08c3.45.69,6.83,1.61,10.2,2.52h.07c7.1,1.82,14.23,3.66,21.36,6.16C1334.06,657.27,1327.08,652,1310.48,646.07Z"/><path class="e811474a-9daf-4c59-a048-0fad0249b03a" d="M1275.49,620.56c-4.37-1.06-9.13-2.27-14.58-3.48h-.08c-11.65-2.43-25.76-5-42.8-7.43-1.83-.15-3.67-.45-5.6-.61l-2.91-.45h-.08c-.76,0-1.45-.15-2.14-.15a13.91,13.91,0,0,0-3.45-.46c-8.37-.9-16.19-1.66-23.48-2.12h-.23c-3.76-.15-7.43-.29-11-.45-.31.3-1,.69-1.34.93-1.67,1.36-3.78,2.28-5.67,3.94,1.3,0,4.94,1.65,6.32,1.8,3.75,0,7.67.15,11.65.45.08-.14.16-.14.23,0,6.3.15,12.89.61,19.79,1.21a39.92,39.92,0,0,1,4.23.46c2.76.15,5.44.31,8.27.6,2.46.31,4.92.46,7.37.77,14.33,1.66,29.36,3.78,45,6.65h.07c3.92.9,7.75,1.52,11.74,2.43h.08c9.88,2,19.83,4.38,30,7-2.6-1.52-12-5.91-31.45-11.06Z"/><path class="b0af3c5f-6980-422d-bb43-ab489c67a8aa" d="M1280.41,1768.3s8.14-2.29,19.75,0,10.24-.23,13.42-1,5.75-4.73,10-4.12,7.27-4.87,7.27-7.59,8.18,11.14-3,13.91S1303.37,1774.71,1280.41,1768.3Z"/><path class="b0af3c5f-6980-422d-bb43-ab489c67a8aa" d="M589.83,1713.66s34.46,82.83,253,76.47a86.86,86.86,0,0,1,19.31,1.57c22.9,4.51,82.8,16.1,138.11,25.13,0,0-74.71-20.1-77.72-27.81-4.37-11.18-31.44-7.48-37.77-1.68-2.76,2.53-26.58-6-40.46-10.39s-21.58-1.89-34.39.86-34.37,1.2-39.82-5-45.48-8.76-51.55-7.4-40.9.19-40.78-3.9-17.69-11.65-22.09-11.06-23.6,1.61-27-3.14S604.26,1735.51,589.83,1713.66Z"/><path class="b0af3c5f-6980-422d-bb43-ab489c67a8aa" d="M765.17,1708.72s49.22,30.79,137.7,29.83,115.61,43.19,153.72,70.13c0,0-12.47-10.7-11.16-16.26s-5.35-14.9-12.3-16.54-15.74-6.09-14.75-10.41.41-8.37-7.47-10.64-16.4-1.75-19.63-4.12-1.77-7-6.87-8.61-31.46-.39-33.27-4.45-10.62-6.17-13.26-5.59-1.89,2.46-8.56,2.38-34.12,1.43-35.48-1.69-23.15-8-24.57-5.88-8.26,3.77-11.65,1.87-7.06-5.36-8.47-4.76-6.41,4.26-11.49,1.87-14.52-4.21-19.33-3.65-11.3-1.85-11.43-3.24-10-2.76-11.6-2.16-11.92-1.7-12.82-4-5.1-1-7.73-1.65Z"/><path class="b6ae5efb-9675-4af9-8021-590e883e0031" d="M784.56,1536.75c21.2-29.1,40.46,2.26,40.46,2.26s-10.95-34.23,35.44-44c21.66-4.57,32.49,13.49,37.46,27,3.28-9.33,10.09-17.63,23-22.07,30.07-10.4,34.67,44.67,34.67,44.67a141.67,141.67,0,0,0,18-.62c-1.24-9.87.64-21.59,13.51-28.18,18.26-9.37,27.66,16.77,27.66,16.77,9.32-1.07,13.6,4.84,13.6,4.84,5,5.61,5,12,3.44,17.41-2.17,7.35-9.33,20.46-25.57,21.44l-26.84,4c-6.9,9.64-19.08,19.47-38,17.86h0a143.77,143.77,0,0,1-88.67,4.86l-11.48-3a65,65,0,0,1-34.1-8.44C794.85,1584.68,771.46,1554.74,784.56,1536.75Z"/><g class="eb35545c-7fae-44e8-8b7b-14e324033ef6"><path class="b57fb3c4-7577-4009-aebe-59cf5824abb1" d="M967.45,1563.24s11.56-11.75,6.81-20.87c-4.38-8.37-11.47-3.83-17.44,1.41a5.65,5.65,0,0,1-9.23-4.43c-.63-21.68-21.5-43.21-47.86-17.71-4.75,4.59-5.31,1.23-3.74-2.63,5.66-14-19.22-39,5-41.19,36.08-3.32,69.31,9.32,69.56,10.58s27.53,46,27.53,46l-7.77,39Z"/></g><path class="b6ae5efb-9675-4af9-8021-590e883e0031" d="M997.69,1554.71l-3-.73s4-40-37.9-40.3c-41.44-.33-38.52,45.82-38.52,45.82s-11.26-18.31-29.2-6.15c-14.68,9.26-9,27,1.37,36.59,0,0-27.23,47,63,25,.6,0,9.83.46,9.83.46a60.34,60.34,0,0,0,18.43-2h0a59.34,59.34,0,0,0,30.12-19.29l.21-.26a17.64,17.64,0,0,0,1.72-2.5C1022.07,1577.16,1013.82,1558.8,997.69,1554.71Z"/><g class="bce2c3fb-28bd-41ee-a0a5-6dd5bb97e4fa"><path class="b2f68b2b-bd1d-40bb-b709-a3899898aa03" d="M918.29,1559.5S935,1522.73,961,1533.32c34.72,14.16,16.77,34.23,16.77,34.23s49.35-.31,10,43.88,67.17-27,67.17-27l-49.05-76.39-67.23-23.35-23.31,27S913.28,1545.83,918.29,1559.5Z"/></g><g class="bf816aad-edbb-47e0-9143-5c3d128d735e"><polygon class="b2f68b2b-bd1d-40bb-b709-a3899898aa03" points="971.1 1522.72 1001.64 1493.5 1053.05 1527.77 1053.05 1571.69 1026.1 1588.71 996.2 1564.22 981.22 1533.91 971.1 1522.72"/></g></svg>