<svg id="Layer_1" data-name="Layer 1" xmlns="http://www.w3.org/2000/svg" xmlns:xlink="http://www.w3.org/1999/xlink" viewBox="0 0 2000 2000"><defs><style>.cls-1{fill:none;}.cls-2{fill:#aed76a;}.cls-3{clip-path:url(#clip-path);}.cls-4{fill:#fecfae;}.cls-5{fill:#93643a;}.cls-6{fill:#4f2c2a;}.cls-7{fill:#934d3d;}.cls-8{clip-path:url(#clip-path-2);}.cls-9{fill:#70442c;}.cls-10{fill:#bf975d;}.cls-11{fill:#a57341;}.cls-12{clip-path:url(#clip-path-3);}.cls-13{clip-path:url(#clip-path-4);}.cls-14{clip-path:url(#clip-path-5);}.cls-15{clip-path:url(#clip-path-6);}.cls-16{fill:#9b8572;}.cls-17{clip-path:url(#clip-path-7);}.cls-18{clip-path:url(#clip-path-8);}.cls-19{clip-path:url(#clip-path-9);}.cls-20{clip-path:url(#clip-path-10);}.cls-21{fill:#1e1713;}.cls-22{fill:#4a1f19;}.cls-23{fill:#e0d1b7;}.cls-24{clip-path:url(#clip-path-11);}.cls-25{clip-path:url(#clip-path-12);}.cls-26{clip-path:url(#clip-path-13);}.cls-27{clip-path:url(#clip-path-14);}.cls-28{fill:#a37a79;}.cls-29{fill:#d19857;}.cls-30{fill:#d6b58e;}.cls-31{fill:#af8956;}.cls-32{fill:#afd86a;}</style><clipPath id="clip-path"><path class="cls-1" d="M1397.58,991.64c105.68-13,213.69,7.63,301.25,60.63C1822.25,1127,1958.65,1296,1905,1442.8c-141.79,388.27-367.6,469.13-793.46,420.15s-326.65-155.55-429.8-115.84-612.87-2-607.06-453.87c2.93-227.27,276.15-580,781.88-421.49C1096.61,947,1333.13,999.58,1397.58,991.64Z"/></clipPath><clipPath id="clip-path-2"><path class="cls-1" d="M546.28,1097.69s-180.5,85.73-199.72,110.43-22.46,23.57-40.1,20.44c-6.41-1.14-47.33-15.79-38.42-53.21,11.21-47.07,47.63-20.63,70.86-40.68s135-60.79,144.3-68.81,11.4-26.72,37.63-28.42C534.14,1036.58,570.73,1077.73,546.28,1097.69Z"/></clipPath><clipPath id="clip-path-3"><path class="cls-1" d="M533.91,1025.92s-181.14,43.74-209.4,37.16-30-3.87-41.05,8.71c-4,4.57-27.48,42,2.67,60.89,33.76,21.1,39.7-17,68.21-16.08s140.51-31.15,151.92-30.79,23.72,12.62,43.84-1.51C560.31,1077.14,563.26,1026,533.91,1025.92Z"/></clipPath><clipPath id="clip-path-4"><path class="cls-1" d="M555.23,1021.44s-167.92,35.11-193.46,50.66-27.71,13.42-40.71,4.48c-4.72-3.25-23.2-32.45-9.55-61.24,20.46-43.16,40.23-16.84,67.84-22.74,32.46-7,139.76,2.89,150.52-1.1s7.3-14.75,29.21-7.17C570.19,988.18,583.09,1012,555.23,1021.44Z"/></clipPath><clipPath id="clip-path-5"><path class="cls-1" d="M572.56,958.54c-23.17,7.32-33.55-1.36-54.07,11.66-20,12.67-75.76,34-85.17,41.18-19.24,14.75-21.45,13.27-34.06,7.46-4.58-2.11-32.38-21.11-18.36-47.41,17.63-33.08,39.74-6.12,61.09-16.59s113.1-19.09,121.64-23.28,13.77-17.8,33.77-13.93C605.47,919.2,604.6,948.43,572.56,958.54Z"/></clipPath><clipPath id="clip-path-6"><path class="cls-1" d="M595.66,1053.11s-172.68,76.2-196.61,98.78-26.75,20.78-42.79,14.13c-5.83-2.41-32.39-29.61-24.29-63.72,12.14-51.13,39.45-27.32,67.8-40,33.36-14.91,151.08-28.86,161.75-35.62s4.48-17.54,29.79-14.4C604.15,1013.89,623.48,1036.54,595.66,1053.11Z"/></clipPath><clipPath id="clip-path-7"><path class="cls-1" d="M1459.8,1252.61s-162.61,143.78-181,176.88-22.06,32.1-41.95,30.42c-7.23-.61-45.83-21.14-48.86-61.34-4.54-60.26,33.68-43.71,60.33-67.49,31.34-28,155.46-84.37,164.79-95.5s-1.22-20.78,27.62-26.17C1455.41,1206.68,1484.49,1224.74,1459.8,1252.61Z"/></clipPath><clipPath id="clip-path-8"><path class="cls-1" d="M600.71,1077.85s-130.93,136-144.51,165.92-16.88,29.37-34.24,29.3c-6.31,0-41.2-15.13-46.63-49.77-8.14-51.92,26.15-40.23,47.59-62.7,25.22-26.44,128.87-84,136.18-94.26s-2.5-17.93,22.12-24.61C593.71,1038.34,620.17,1052,600.71,1077.85Z"/></clipPath><clipPath id="clip-path-9"><path class="cls-1" d="M1663,1420.19s-255.45,82.82-285.36,112.39-34,27.5-57,20.26c-8.34-2.63-60.32-29.28-41.93-77.59,23.14-60.77,67.06-19.21,101.51-41.88s190.49-57.5,204.27-66.57,19.83-33.63,55.08-31.32C1657.49,1336.64,1699.08,1397.85,1663,1420.19Z"/></clipPath><clipPath id="clip-path-10"><path class="cls-1" d="M1664.65,1310.48s-235.24,129.52-259,164.19-28.24,33.42-52.14,30.65c-8.69-1-54.21-25-55.82-68.29-2.41-65,42.85-45.33,76.2-69.59,39.23-28.54,191.81-83.09,203.63-94.59s13.14-36.76,48.19-41.15C1643.46,1229.47,1695.85,1281.74,1664.65,1310.48Z"/></clipPath><clipPath id="clip-path-11"><path class="cls-1" d="M1573.1,1202.63s-192.39,94.37-225.77,94-34.62,3.15-43.89,20c-3.37,6.13-20.34,54.06,18.21,67.68,43.17,15.25,40.33-29,72.56-35.11s149.93-70.08,162.82-72.53,29.79,8.24,48.84-12.65C1615.53,1253.52,1606.07,1195.4,1573.1,1202.63Z"/></clipPath><clipPath id="clip-path-12"><path class="cls-1" d="M1598,1175.66S1351,1281,1323.87,1313.09s-31.45,30.43-55,25.27c-8.54-1.87-51.43-30.25-48.7-73.53,4.11-64.9,47.18-40.82,82.79-61.61,41.89-24.47,199.16-63.47,212.08-73.73s16.75-35.26,52.06-36.12C1585.06,1092.94,1632,1150.19,1598,1175.66Z"/></clipPath><clipPath id="clip-path-13"><path class="cls-1" d="M1589.9,1188.35s-212.19,45.71-244.38,65.58-35,17.19-51.48,6c-6-4.07-29.6-40.88-12.56-77.41,25.56-54.77,50.78-21.61,85.66-29.3,41-9,176.86,2.6,190.45-2.54s9.11-18.71,36.89-9.29C1608.57,1146.15,1625.08,1176.15,1589.9,1188.35Z"/></clipPath><clipPath id="clip-path-14"><path class="cls-1" d="M878.43,1379l-171.72-56.92s-46.68-334,48.66-354.7,125.42,50.69,133.91,75.65S878.43,1379,878.43,1379Z"/></clipPath></defs><path class="cls-2" d="M1397.58,991.64c105.68-13,213.69,7.63,301.25,60.63C1822.25,1127,1958.65,1296,1905,1442.8c-141.79,388.27-367.6,469.13-793.46,420.15s-326.65-155.55-429.8-115.84-613.3,29.65-607.48-422.22c2.92-227.26,186.38-461.52,782.3-453.14C1108.1,875.29,1333.13,999.58,1397.58,991.64Z"/><g class="cls-3"><path class="cls-4" d="M706.71,1322.12s-118,72.17-95.94,165.28,308.92,158.48,343.39,311.84,264.77,225.68,264.77,225.68l447.45-144.21s-326.32-64.63-404.32-162.07-289.88-192.13-354.29-199.9-103.42-59.17-29.34-139.7S706.71,1322.12,706.71,1322.12Z"/></g><path class="cls-5" d="M618.05,874.24,519.36,766l-269,204.15c-19.85,9.48-32.44,18.4-34.31,26.05,0,0,388.08-60.87,446.2-106.62C676.88,878.06,656.72,869.64,618.05,874.24Z"/><polygon class="cls-6" points="314.69 896.69 314.69 896.68 248.51 922.93 244.9 1190.45 294.93 1205.27 298.48 1209.71 310.5 1206.84 314.69 896.68 314.69 896.69"/><polygon class="cls-7" points="237.89 938.05 234.45 1193.15 300.04 1209.73 304.06 911.8 237.89 938.05"/><path class="cls-6" d="M546.28,1097.69s-180.5,85.73-199.72,110.43-22.46,23.57-40.1,20.44c-6.41-1.14-47.33-15.79-38.42-53.21,11.21-47.07,47.63-20.63,70.86-40.68s135-60.79,144.3-68.81,11.4-26.72,37.63-28.42C534.14,1036.58,570.73,1077.73,546.28,1097.69Z"/><g class="cls-8"><path class="cls-9" d="M547.27,1084.18s-180.5,85.73-199.72,110.43-25.44,34.37-43.08,31.24c-6.41-1.14-53.42-9.37-35.44-64,15.13-46,47.63-20.63,70.87-40.68s135-60.79,144.3-68.81,11.39-26.72,37.62-28.42C535.13,1023.07,571.72,1064.22,547.27,1084.18Z"/></g><path class="cls-10" d="M302.29,1221.18a11.68,11.68,0,0,0,17.44-7.33c2-8.6,3.27-21.77-3.48-31.8-10.94-16.23-26.73-23.79-34-19.68-13.3,7.49-11.09,31.1,8.88,50A67.55,67.55,0,0,0,302.29,1221.18Z"/><path class="cls-11" d="M290.91,1169.92c10.3,4.37,19.31,13,22.29,24.11,5.93,26.47-11.17,21.1-24.72,7.56a29.45,29.45,0,0,1-4.8-7.28c-2.15-4.51-4.19-9.19-4.8-14.21-.41-3.49,1.33-5.92,5-4.14a32.91,32.91,0,0,1,10.55,7.23,27.17,27.17,0,0,1,7.86,14.67,28.53,28.53,0,0,0-8.88-13.59,31.48,31.48,0,0,0-11.23-6.58c-.3-.07-.57-.14-.71,0-1.19,4.54,5.75,18.53,9.16,21.85,3.53,3.49,14.46,12.92,19.38,9.76,1.18-1,1.57-3.1,1.64-4.76a32.7,32.7,0,0,0-.66-10c-2.44-10.7-10.61-19.36-20.06-24.67Z"/><path class="cls-6" d="M552.68,1032.91s-196.72,36.4-226.81,27.65-32.05-5.93-44.52,7c-4.53,4.68-29.13,40.58.06,65.7,36.73,31.6,50.6-.16,81.22,2.47s145.33-41,157.57-39.94,24.92,15,47.2,1C578.7,1089.6,584.23,1034.74,552.68,1032.91Z"/><g class="cls-12"><path class="cls-9" d="M542.43,1035.09S361.29,1078.83,333,1072.25s-38.39-9.92-49.45,2.66c-4,4.57-33.57,38,11.07,66.94,37.55,24.32,46.66-13,75.17-12.1s133.56-35.13,145-34.77,23.72,12.62,43.84-1.51C568.83,1086.31,571.78,1035.19,542.43,1035.09Z"/></g><path class="cls-10" d="M282.29,1076a11.7,11.7,0,0,1,18.46-4.29c6.65,5.81,15.43,15.74,15.83,27.83.66,19.58-7.71,35-16.05,35.94-15.17,1.73-27.24-18.72-22.12-45.74A68.13,68.13,0,0,1,282.29,1076Z"/><path class="cls-11" d="M303.15,1124.21c4.55-9.86,6.1-21.68,1.8-31.79a33.1,33.1,0,0,0-5.31-8.47c-1-1.3-2.61-2.81-4.13-2.9-5.83.3-9.2,14.42-10,19.3-.82,4.71,1.75,20.07,5.39,23.1.43,0,.87-.86,1.16-1.21a32.49,32.49,0,0,0,4.68-11.13,28.54,28.54,0,0,0-.78-16.23,27.2,27.2,0,0,1,2.23,16.5,32.75,32.75,0,0,1-4.31,12.06c-1.9,3.56-4.74,2.67-6.46-.43-2.46-4.43-3.55-9.42-4.46-14.34a29.74,29.74,0,0,1-.38-8.73c3.05-18.91,13.74-33.34,24.49-8.38,4.09,10.75,1.86,23.06-3.93,32.65Z"/><path class="cls-6" d="M568,1042.06s-180.71,14.49-206.25,30-27.71,13.42-40.71,4.48c-4.72-3.25-31.9-30.65-9.55-61.24,28.11-38.48,51.24,6.69,78.14-3.29s129.46-16.56,140.22-20.55,20-20.1,41.94-12.52C582.92,982.83,595.88,1032.58,568,1042.06Z"/><g class="cls-13"><path class="cls-9" d="M576.92,1000.94s-6.3,20.68-37.74,24.58c-32,4-61.9,15.81-118.85,14.69-9.39-.18-38.25-7-46.93.6-19,16.62-39.43,38.34-48.35,32.21-4.72-3.25-40.79-30.21-4.13-73.15,30.83-36.12,46.88-2,73.79-12S528.52,980,539.28,976s20-20.1,41.94-12.51C592.34,967.36,604.77,991.46,576.92,1000.94Z"/></g><path class="cls-10" d="M319.46,1060.1c8.46,7.58,19.78,4.38,25.07-1.4,5.86-6.41,7.36-12,7.29-23.45-.11-18.55-10.42-30.72-18.09-30.45-13.93.49-24.22,21.45-18.56,46.21C316.41,1056.43,317.07,1058,319.46,1060.1Z"/><path class="cls-11" d="M327.81,1035c-1.49.29-.79,4.06-.38,5.08a1.38,1.38,0,0,0,.6.73,3.64,3.64,0,0,0,5.28-.74c2.51-3.78,1.1-17-3.43-18.84a4.39,4.39,0,0,0-3.11.58c-3.63,1.91-4.8,6-5.22,10a38,38,0,0,0,2.44,16.84c2.49,6.22,6.08,7.3,11.25,3.53,7.45-4.74,9.49-14.14,8.26-22.46a50.21,50.21,0,0,0-2.57-10.71,11,11,0,0,0-7.93-6.6,6.07,6.07,0,0,0-4.33.4c4-2.61,9.81-.08,12.55,3.41a15.27,15.27,0,0,1,2.27,4.2c3.32,8.5,5.16,19,.46,27.59-3.76,7.07-14.79,15.07-21.17,6.56-3-4-4.09-8.93-4.81-13.65a36.53,36.53,0,0,1-.14-9.52,19.15,19.15,0,0,1,3.4-9.3c2.6-3.61,8.88-6.11,12.11-2,3.56,4.55,3.64,10.85,2.87,16.26-.22,3.26-2.79,7.07-6.47,6.11-1.7-.5-3-1.55-3.06-3.41a7.75,7.75,0,0,1,.3-3.42c.14-.34.43-.74.83-.69Z"/><path class="cls-7" d="M511.86,754.68S330.89,883.58,172.13,912l38.62,88.52S491,909.4,574.12,825.84L582,752.33Z"/><path class="cls-6" d="M611.37,962.51s-160.17,30.4-180.44,45.92-22.6,14-35.88,7.86c-4.82-2.22-34.1-22.24-19.34-49.93,18.57-34.84,41.86-6.45,64.34-17.48s119.12-20.11,128.11-24.52,14.51-18.74,35.57-14.66C614.41,911.77,634.8,951.81,611.37,962.51Z"/><g class="cls-14"><path class="cls-9" d="M608.05,957.85S456,986.71,436.72,1001.45s-25.81,20.78-38.42,15c-4.58-2.11-38.2-17.49-14-54.92,20.35-31.48,39.75-6.12,61.09-16.59S558.48,925.82,567,921.63s13.78-17.8,33.77-13.93C610.93,909.67,630.29,947.69,608.05,957.85Z"/></g><path class="cls-10" d="M405.94,965.72c-4.07-4.86-11.89-4.63-15.4.5-3.89,5.68-8.52,14.87-6.11,24,3.89,14.78,13.9,24.62,20.64,23.66,12.25-1.75,17.08-19.48,7-38.67A54,54,0,0,0,405.94,965.72Z"/><path class="cls-11" d="M400.49,1006c-6.66-5.8-11.4-14.56-10.63-23.67,1.74-14.68,9.27-17.24,18-4.82,2.67,3.71,4.81,8,5.19,12.62,1.74,14.9-2.62,21.77-11.61,5.48a20.38,20.38,0,0,1-1.9-13,21.44,21.44,0,0,0,3.21,12.3c1.78,3,4.28,6.14,7.1,7.83a6.21,6.21,0,0,0,.76-2.76,39.46,39.46,0,0,0-.41-9.46c-.37-4.22-2.38-7.87-4.79-11.3a28,28,0,0,0-4-4.74c-1.44-1.35-3.27-2.4-4.48-2-1.59.48-2.38,2.59-3.09,4.14a23.92,23.92,0,0,0-1.65,6c-1.14,8.52,2.8,17,8.34,23.43Z"/><path class="cls-6" d="M614.14,1072.37S423,1129.31,399.05,1151.89s-26.75,20.78-42.79,14.13c-5.83-2.41-41.35-25.68-24.29-63.72,21.45-47.84,50-12.91,76.66-29.81s142.22-39,152.89-45.8,17-26.21,42.27-23.07C616.63,1005.22,642,1055.8,614.14,1072.37Z"/><g class="cls-15"><path class="cls-9" d="M614.31,1026.08s-2,23.7-35,35.09c-33.54,11.61-94.63,15.63-156.18,27.46C413,1090.58,410,1118,402.38,1128.19c-16.61,22.22-31.64,37.65-42.64,33.09-5.83-2.41-50.81-23.18-21.18-77.78,24.92-45.92,50-12.91,76.66-29.81s142.22-39,152.89-45.8,16.95-26.21,42.27-23.07C623.22,986.42,642.12,1009.51,614.31,1026.08Z"/></g><path class="cls-10" d="M350.76,1148.66c10.84,6.22,16.84,2,21.21-5.43,4.85-8.25,10.63-16.41,7.93-28.72-4.36-19.94-18.24-30.68-26.42-28.63-14.89,3.72-21.16,28.63-9.41,54C346.65,1145.41,347.7,1146.91,350.76,1148.66Z"/><path class="cls-11" d="M353.84,1118.17c-1.67.13-1.38,4.35-1,5.52a1.47,1.47,0,0,0,.57.88,4,4,0,0,0,5.93-.15c3.27-3.87,3.32-18.58-1.49-21.21-1.13-.55-2.49-.1-3.6.25-4.26,1.66-6.09,6.1-7,10.49a41.88,41.88,0,0,0,.66,18.8c2,7,5.74,9,12.17,5.32,8.76-4.35,12.13-14.47,11.74-23.78a55.77,55.77,0,0,0-1.59-12,12.08,12.08,0,0,0-8-8.15,6.6,6.6,0,0,0-4.79,0c4.73-2.33,10.68,1.11,13.25,5.26a16.81,16.81,0,0,1,2,4.84c2.58,9.68,3.32,21.35-2.81,30.11-4.88,7.16-17.73,14.6-23.62,4.67-4.15-7.25-4.36-17.8-2.66-25.79a21,21,0,0,1,4.76-9.69c2.64-2.77,7.29-4.77,11-2.93,6,3.94,5.1,14.14,3.54,20.16-.61,3.52-3.82,7.35-7.7,5.9a5.53,5.53,0,0,1-2.62-2.09,4.9,4.9,0,0,1-.32-2c0-1.13.18-4.39,1.71-4.36Z"/><path class="cls-16" d="M1145.05,1435.47l294.32-172.1,6.86-508.17L1168.82,889.77s-41.51-3.31-41.69,10.25S1098.32,1414.06,1145.05,1435.47Z"/><path class="cls-6" d="M1724.85,1115.2l-4.58,339c0,4.2-.27,9.26-3.91,11l-11.31,3-41.3-19,4.94-366.48Z"/><path class="cls-7" d="M1709.82,1115l-4.77,353.21-43.67-20.11c-7.46-2.59-12.58-5.08-12.47-13.36l4.75-352.23Z"/><polygon class="cls-6" points="1835.38 1037.54 1762.91 1131.84 1750.32 1136.94 1817.81 1043.14 1835.38 1037.54"/><path class="cls-6" d="M1486.77,1267.27s-189.58,129.12-207.92,162.22-22.06,32.1-41.95,30.42c-7.23-.61-54.27-13.71-48.86-61.34,6.8-59.91,50.26-31.6,73.59-59.42s142.2-92.44,151.53-103.57,9.43-34.64,38.26-40C1466.05,1192.82,1511.46,1239.4,1486.77,1267.27Z"/><g class="cls-17"><path class="cls-9" d="M1470.79,1216.49s6,26.68-26.08,50.66c-32.71,24.43-98.24,50.17-161.54,84.61-10.44,5.68-4.16,36.79-8.94,50.6-10.45,30.14-21.53,52.29-35.17,51.14-7.23-.61-63.76-7.66-50.36-77.83,11.27-59,50.26-31.6,73.59-59.42s142.2-92.44,151.53-103.57,9.43-34.64,38.26-40C1466.71,1169.92,1495.48,1188.62,1470.79,1216.49Z"/></g><path class="cls-10" d="M1229.16,1447.72c14.3,1.36,18.58-5.91,19.63-15.77,1.16-10.93,3.34-22.23-5.33-33.85-14-18.8-33.68-23.46-41.28-17.43-13.82,11-8.56,40,15.79,61C1223.3,1446.26,1225.12,1447.33,1229.16,1447.72Z"/><path class="cls-11" d="M1219,1416.06c-1.16,1.22,1.51,3.78,2.41,4.61a3.19,3.19,0,0,0,2.32,1.11,4.73,4.73,0,0,0,4.88-4.91c-.27-5.82-12.25-18.35-18.36-16.56-1.44.45-2.26,1.94-2.93,3.19-2.27,4.84-.2,10.12,2.56,14.54a48.3,48.3,0,0,0,15.67,15.13c7.31,4.28,12.35,2.88,14.73-5.51,3.78-10.75-1.56-21.81-9.44-29.26a62.86,62.86,0,0,0-11-8.67,14,14,0,0,0-13.19-.29,7.71,7.71,0,0,0-4,3.83c1.23-3.79,5.47-5.77,9.17-6.43a16.39,16.39,0,0,1,11.4,2.74c9.81,6,19.66,15,21.57,27.05a28.31,28.31,0,0,1-1.89,15c-3.54,9-11.85,9.53-19.35,5-9.36-5.76-20.18-16.69-20.66-28.31-.2-5.37,3.85-12.52,10-11,7,1.74,11.91,7.87,15.35,13.76,1.6,2.6,2.59,6.08.81,8.85a5.84,5.84,0,0,1-6.16,2.43,5.41,5.41,0,0,1-1.82-1.35c-.86-.92-3.39-3.79-2.1-4.94Z"/><path class="cls-6" d="M625.11,1088.67s-155.33,125.14-168.91,155.1-16.88,29.37-34.24,29.3c-6.31,0-48-8.11-46.63-49.77,1.72-52.4,41.37-30.89,59.64-56.63s116.82-90,124.13-100.33,5.76-30.68,30.38-37.36C602,1025.59,644.57,1062.8,625.11,1088.67Z"/><g class="cls-18"><path class="cls-9" d="M607.72,1045.77s7.09,22.71-19.07,45.74C562,1115,507,1141.83,454.52,1176.1c-8.65,5.65-1,32.18-4.22,44.48-6.95,26.86-15,46.83-26.92,46.78-6.31,0-55.8-2.2-49.08-63.95,5.66-51.94,41.37-30.89,59.65-56.64s116.82-90,124.13-100.33,5.75-30.68,30.37-37.36C600.94,1005.69,627.18,1019.9,607.72,1045.77Z"/></g><path class="cls-10" d="M414.4,1263c12.49.18,15.69-6.42,15.91-15,.24-9.56,1.35-19.51-7-29-13.47-15.33-30.82-18-37-12.24-11.21,10.47-4.63,35.3,17.93,51.77C409.22,1262.18,410.87,1263,414.4,1263Z"/><path class="cls-11" d="M403.36,1236.3c-1,1.31,2.37,3.93,3.44,4.44a1.52,1.52,0,0,0,1.05.15,4,4,0,0,0,3.8-4.55c-.71-5-11.78-14.79-16.9-12.89-1.16.48-1.72,1.79-2.19,2.86-1.58,4.3.55,8.6,3.23,12.21a42,42,0,0,0,14.55,11.93c6.5,3.12,10.57,1.65,12-5.63,2.53-9.45-2.84-18.66-10.09-24.51a54.86,54.86,0,0,0-10.08-6.77,12.08,12.08,0,0,0-11.39.59,6.64,6.64,0,0,0-3.2,3.56c1.38-5.08,7.89-7.28,12.7-6.47a16.72,16.72,0,0,1,4.93,1.73c9,4.46,18.22,11.62,20.74,22a24.71,24.71,0,0,1-.58,13.29c-2.47,8.19-9.82,9.31-16.76,5.82-8.68-4.47-18.71-13.07-20-23.31-.33-3.81,1.23-8.62,5-10.15,6.88-1.94,14,5.53,17.47,10.67,3.08,3.83,2.58,10.09-3.26,10.3-1.47.45-5.89-4-4.53-5.27Z"/><path class="cls-6" d="M1663,1420.19s-255.45,82.82-285.36,112.39-34,27.5-57,20.26c-8.34-2.63-60.32-29.28-41.93-77.59,23.14-60.77,67.06-19.21,101.51-41.88s190.49-57.5,204.27-66.57,19.83-33.63,55.08-31.32C1657.49,1336.64,1699.08,1397.85,1663,1420.19Z"/><g class="cls-19"><path class="cls-9" d="M1666.7,1402.36s-255.45,82.83-285.36,112.39-39.89,41.37-62.84,34.13c-8.35-2.63-69.56-21.78-36.08-91.46,28.15-58.61,67.06-19.21,101.5-41.88s190.49-57.5,204.27-66.57,19.83-33.63,55.09-31.32C1661.16,1318.82,1702.76,1380,1666.7,1402.36Z"/></g><path class="cls-10" d="M1316.4,1542.28a15.7,15.7,0,0,0,24.53-6.74c4.12-11.11,8.14-28.44.88-43-11.74-23.53-31.47-36.36-41.92-32.15-19,7.66-20.18,39.5,3.14,68.13A91.39,91.39,0,0,0,1316.4,1542.28Z"/><path class="cls-11" d="M1310.16,1472c12.82,7.81,23.16,20.83,25.13,36.06a44.41,44.41,0,0,1-.48,14.32c-.78,5.64-4.3,10.76-10.76,9.09-5.79-1.53-10.38-5.54-14.62-9.43a56.78,56.78,0,0,1-9.24-11,71.4,71.4,0,0,1-6.47-18.9,38.35,38.35,0,0,1-.93-8.63c.1-1.6.24-3.48,1.57-4.77,1.58-1.42,3.67-.46,5.18.44a36.27,36.27,0,0,1,4.78,3.21,44.73,44.73,0,0,1,13.67,17.9,32,32,0,0,1,2.44,10.94c-1.44-11.16-8.46-20.75-17.3-27.26a34.29,34.29,0,0,0-5.82-3.45c-.52-.21-1-.39-1.38-.07-2.65,5,3.14,21.45,5.59,26.75,2.24,5,6.16,8.87,10,12.71a49.5,49.5,0,0,0,8.5,6.73c4.43,2.71,9.73,4,11.57-2.2a43.62,43.62,0,0,0,1.45-16.09c-1.48-14.76-11-27.75-22.85-36.33Z"/><path class="cls-6" d="M1664.65,1310.48s-235.24,129.52-259,164.19-28.24,33.42-52.14,30.65c-8.69-1-64.77-17.38-55.82-68.29,11.26-64,62.24-31.51,91.79-60.27s176.22-92.41,188-103.91,13.14-36.76,48.19-41.15C1643.46,1229.47,1695.85,1281.74,1664.65,1310.48Z"/><g class="cls-20"><path class="cls-9" d="M1666.61,1285.9s-235.24,129.52-259,164.19-31.37,48.16-55.28,45.38c-8.68-1-72.41-8.27-52.68-83,16.6-62.87,62.24-31.51,91.79-60.27s176.22-92.4,188-103.91,13.13-36.76,48.19-41.15C1645.41,1204.9,1697.81,1257.16,1666.61,1285.9Z"/></g><path class="cls-10" d="M1351.16,1497.19c17.18,2.15,18.28-9.43,20-20,2-11.7,3.19-25.1-6.68-38-16-20.89-39.43-26.85-48.9-20.74-17.23,11.11-12.36,42.6,15.94,66.31C1337.76,1490,1346.31,1496.58,1351.16,1497.19Z"/><path class="cls-11" d="M1327.89,1427.9c13.34,4.55,28.62,12.55,34.81,25.94a23.44,23.44,0,0,1,.66,17.14c-1.31,3.77-3.1,7.54-6.56,9.93-9,5.79-19.86-1.84-26.75-7.66-7.75-6.85-18.2-19-13.39-30.06,7.86-15.34,21.06,1.79,25.12,10.9a48.18,48.18,0,0,1,3.6,10.38c-3.06-8.38-7.87-16.46-14.82-22.1-2.31-1.74-5.8-3.7-8.26-1.68-3.77,3.29-4.29,8.55-2.35,13.19,3.69,9.81,19.71,25.4,30.57,25.23,5.11-.1,8-4.87,9.56-9.26a20.7,20.7,0,0,0-.07-14.9c-5.53-13-19.73-21.27-32.12-27Z"/><path class="cls-10" d="M1237.65,1182.52c-14.62-22.48-26.8-67-10.63-107.31,18.59-46.33,42-72.07,94.23-60.54,50.47,11.14,76.55,96,40.2,157.3-21.44,36.15-67.18,49.26-103.32,28.83C1250,1196.19,1242.67,1190.23,1237.65,1182.52Z"/><path class="cls-11" d="M1247.07,1186.47c-14.63-22.48-26.57-56.87-14.61-97,15.77-52.85,45.93-82.43,98.2-70.9,50.47,11.13,76.55,96,40.21,157.3-21.44,36.15-67.18,49.26-103.32,28.83C1259.4,1200.14,1252.08,1194.18,1247.07,1186.47Z"/><path class="cls-21" d="M1257.83,1096.27c16.81-45.71,33.84-60.73,72.35-52.24,37.18,8.21,56.39,70.71,29.62,115.88a58,58,0,0,1-22.09,21.39l.53-80.15-7.65,1.66v-.62l-28.53,6.21-.53,79.1a54.83,54.83,0,0,1-17.85-6.34c-6-3.4-11.39-7.79-15.09-13.47C1257.82,1151.13,1246.79,1126.29,1257.83,1096.27Z"/><path class="cls-10" d="M1330.59,1102.19v.62l-20.88,4.54-.54,80.89a54.73,54.73,0,0,1-7.64-.74l.53-79.1Z"/><path class="cls-11" d="M1330.59,1102.81l7.65-1.66-.53,80.15a58,58,0,0,1-7.67,3.48,56,56,0,0,1-20.87,3.46l.54-80.89Z"/><polygon class="cls-11" points="1371.44 1072.44 1249.3 1101.65 1255.28 1142.31 1376.46 1101.4 1371.44 1072.44"/><path class="cls-22" d="M1817.81,1043.14l17.57-5.6s-227.68-91.9-416.15-281.08l-45.57,27.69s164,184.5,301,225.7S1817.81,1043.14,1817.81,1043.14Z"/><path class="cls-7" d="M1421.09,778.17S1616.24,969.63,1829,1037.39l-78.63,99.55s-316.54-145.71-409.73-240.29l4-99.53Z"/><polygon class="cls-11" points="1829.05 1037.52 1810.99 1062.06 1645.07 1178.33 1678.67 1135.64 1829.05 1037.52"/><polygon class="cls-23" points="1151.66 945.8 1145.05 1435.47 537.01 1273.07 543.74 774.47 1151.66 945.8"/><path class="cls-6" d="M1595.91,1205.78s-211.72,90-247.67,87.73-37.47,1.36-48.24,18.94c-3.92,6.39-22.55,52.84,16.5,73.74,49.12,26.29,56.76-12.83,91.78-17.53s152.88-82.35,166.88-84.23,31.73,10.59,53.23-10.71C1639.29,1262.91,1631.78,1200,1595.91,1205.78Z"/><g class="cls-24"><path class="cls-9" d="M1585,1210.79s-192.39,94.37-225.76,94.06-45.57-1.54-54.84,15.34c-3.37,6.14-28.18,51.07,29.16,72.37,48.23,17.92,49.12-26.23,81.34-32.37s141.14-72.81,154-75.27,29.79,8.24,48.84-12.64C1627.39,1261.68,1617.92,1203.56,1585,1210.79Z"/></g><path class="cls-10" d="M1303.17,1321.68a13.46,13.46,0,0,1,19.65-9.43c8.91,4.87,21.25,13.81,24.73,27.29,5.63,21.81.08,41.19-9,44.35-16.6,5.73-35.25-14.2-36.27-45.82A78.67,78.67,0,0,1,1303.17,1321.68Z"/><path class="cls-11" d="M1338.65,1370.64c2.76-12.21,1.55-25.91-5.79-36.23a37.7,37.7,0,0,0-9.94-9.53c-4.56-2.88-7.1.86-8.42,5a42,42,0,0,0-1.69,9.08c-.3,4.6-.65,9.3.68,13.74a65.07,65.07,0,0,0,7.79,17c1,1.37,2,2.93,3.43,3.37.34,0,.51-.35.71-.72a29.44,29.44,0,0,0,1.83-5.46c2.08-9.16,1.28-19.27-4-27.33,6.17,7.64,7.63,18.24,5.94,27.74a29.88,29.88,0,0,1-1.74,6,3.12,3.12,0,0,1-2.79,2.13c-1.65-.08-2.84-1.25-3.83-2.25a33,33,0,0,1-4.28-6.12,60.85,60.85,0,0,1-6.48-15.91,48.43,48.43,0,0,1-.23-12.38c.56-4.93,1.28-10.14,4.19-14.42,3.29-4.77,8.63-3.52,12.34-.19a37.77,37.77,0,0,1,8.39,9c7.28,11,7.88,25.26,3.89,37.53Z"/><path class="cls-6" d="M1568.16,1201.37l-4.56,337.7c-.07,4.92-2.15,8-6.54,9.65l-12.26,5.61-51.17-16.94,5-368.69Z"/><path class="cls-6" d="M1598,1175.66S1351,1281,1323.87,1313.09s-31.45,30.43-55,25.27c-8.54-1.87-62.7-23.77-48.7-73.53,17.62-62.6,65.08-25.12,97.36-50.78s184.59-74.3,197.51-84.56,16.75-35.26,52.06-36.12C1585.06,1092.94,1632,1150.19,1598,1175.66Z"/><g class="cls-25"><path class="cls-9" d="M1602.45,1151.4s-247,105.32-274.17,137.43-36,44.77-59.55,39.61c-8.54-1.87-71.23-15.47-44.11-87.87,22.81-60.89,65.08-25.12,97.36-50.78s184.59-74.29,197.51-84.56,16.74-35.26,52.06-36.11C1589.47,1068.68,1636.37,1125.93,1602.45,1151.4Z"/></g><path class="cls-10" d="M1267.43,1330c16.88,3.87,19.13-7.55,21.94-17.85,3.12-11.44,5.68-24.65-2.84-38.48-13.8-22.39-36.54-30.67-46.58-25.54-18.25,9.33-16.57,41.15,9.22,67.58C1254.81,1321.54,1262.66,1329,1267.43,1330Z"/><path class="cls-11" d="M1251.21,1258.77c12.82,5.87,27.22,15.36,32,29.29a23.51,23.51,0,0,1-1.07,17.13c-1.68,3.61-3.83,7.18-7.52,9.22-9.55,4.86-19.57-3.82-25.85-10.3-7-7.59-16.2-20.74-10.31-31.25,9.35-14.47,20.77,3.89,23.9,13.36a47.68,47.68,0,0,1,2.54,10.69,54.71,54.71,0,0,0-9-19.52c-2.44-3.13-7.27-8.94-11.53-6.46-4.08,2.9-5.12,8.09-3.65,12.9,2.69,10.12,17.06,27.25,27.89,28.16,5.09.41,8.46-4,10.43-8.26a20.75,20.75,0,0,0,1.43-14.83c-4.2-13.51-17.51-23.14-29.26-30.13Z"/><path class="cls-6" d="M1606.24,1214.34s-228.53,19.72-260.72,39.59-35,17.19-51.48,6c-6-4.07-40.6-38.53-12.56-77.41,35.28-48.89,59.3-2.93,93.27-15.76s169.25-10.94,182.84-16.08,25.18-25.58,53-16.16C1624.64,1139.28,1641.41,1202.13,1606.24,1214.34Z"/><g class="cls-26"><path class="cls-9" d="M1617.18,1162.24s-7.81,26.21-47.56,31.4c-40.47,5.27-110.21-4.38-182.27-5.36-11.89-.16-21.65,30-32.58,39.74-23.87,21.16-44.38,35-55.71,27.36-6-4.08-51.84-37.91-5.79-92.52,38.74-45.94,59.3-2.93,93.27-15.77s169.25-10.94,182.84-16.07,25.18-25.58,53-16.16C1636.43,1119.64,1652.35,1150,1617.18,1162.24Z"/></g><path class="cls-10" d="M1291.88,1239.08c10.77,9.52,18.5,6.15,25.15-1.2,7.37-8.16,15.78-16,15.61-30.5-.28-23.46-13.43-38.79-23.12-38.39-17.62.74-30.48,27.34-23.13,58.61C1288,1234.45,1288.84,1236.39,1291.88,1239.08Z"/><path class="cls-11" d="M1302.43,1205.45c-1.89-.49-3.25,6.12-2.07,7.13,2.26,3.34,6.64,2.64,8.58-.6,3-5.44,6.42-17.75,1.57-22.63-2.65-1.65-6.39-.42-8.77,1.26-7.78,6.21-10.3,20.36-9.76,29.89.59,8.45,4.59,11.83,12.86,9.07,11-3,17.11-13.55,18.85-24.29.81-5.33,1.66-11.32.46-16.64-1.39-5-6.57-10.37-12.11-9.53a5.81,5.81,0,0,1,2.87-.24c7.1,1.12,11.85,8.22,11.77,15.15.39,7.71-.27,15.69-3.38,23.1A27.68,27.68,0,0,1,1306,1233.2c-4.15,1.33-8.88,2-12.75-.73-6.81-5.47-5.57-16-4.45-23.56,1.77-10.19,7.59-24.79,20.28-23.4,10.26,2,6.14,18.39,2.73,24.79a10.4,10.4,0,0,1-3.84,4.72,5.76,5.76,0,0,1-6,.12,6.31,6.31,0,0,1-2.45-2.91,5.55,5.55,0,0,1,.09-2.26c.27-1.23,1.22-4.93,2.9-4.52Z"/><path class="cls-10" d="M1421.61,795.8s248,222.07,407.44,241.72L1643,1159S1256.68,1016.82,1236,884.5,1421.61,795.8,1421.61,795.8Z"/><path class="cls-22" d="M1658.87,1149.14l19.9-13.77s-277-115.29-433-266.85L1217,882s164.06,184.5,301,225.7S1658.87,1149.14,1658.87,1149.14Z"/><path class="cls-7" d="M1234.4,878.57s172.07,172.9,424.54,265.26l-76.37,96.69S1266,1094.8,1172.84,1000.22l4-99.53Z"/><path class="cls-11" d="M1227.14,890.56l309.69-150.33.58-42.75s-271.83,86-289.86,105.08-38.61,31.92-34.5,50.94S1227.14,890.56,1227.14,890.56Z"/><path class="cls-23" d="M1191.64,900.89,523.19,757.79l6.44-72.09s169-289.71,255.1-264.49,197.18,56.25,231.2,128.88S1202.92,855.14,1191.64,900.89Z"/><path class="cls-16" d="M1120.44,855.16S985.22,561.62,909.08,513.83c-62.75-39.39-159.47-32.45-205.53,22.65-58,69.41-88,194.12-158.58,228.16-54.81,26.42-20.64-91.83-20.64-91.83L762.39,428.93s159.87-69.3,203.71,31.91,216.83,398,216.83,398S1153.9,930.34,1120.44,855.16Z"/><path class="cls-22" d="M878.43,1379l-171.72-56.92s-46.68-334,48.66-354.7,125.42,50.69,133.91,75.65S878.43,1379,878.43,1379Z"/><g class="cls-27"><path class="cls-28" d="M889,983.86l3.38,403.36s-39.59-2.65-42.22-4.94-2.4-21.63.33-61-10-329-10-329-6.51,401.24-10.2,403.49-26-12-26-12-13.85-361.07-9.69-375.57l-14,75,16.63,314.49-42.47-31.25L749.89,1031,732.63,1390.9l-36.93-18.73,8.91-383.47C705.72,981.16,802.31,985.32,889,983.86Z"/></g><path class="cls-7" d="M659.06,1125.78c1-72.75,8.93-140.42,48.49-174.65,94.24-81.55,208.94,5.19,237.48,97.76,20.41,66.21,14.67,335.74,14.67,335.74s-5.79,6.53-23.87,9.27c-2.71.41-16.37-23-19-30.53-15.56-.18-17.13,20.45-17.13,20.45s-.14-261.72-6-304.11c-7.37-53.24-46.8-92.19-86.21-97.33-68.63-8.93-89,50.29-94.18,94.21-7.72,64.89-6.61,245.53-6.61,245.53s-2.16,1.9-15.19,1.78c-4.88-.05-20.16-22.05-21.94-25.89-5.23-1,1.81,10.47-2.86,5.51C666.72,1303.52,657.6,1233.89,659.06,1125.78Z"/><path class="cls-10" d="M1262.42,814.79l275-117.31s-131.51-210.34-190.14-295.7-163.22-100.34-214.41-88.88c-46.8,10.48-295.55,51.55-295.55,51.55S1078.91,691.29,1262.42,814.79Z"/><path class="cls-11" d="M1181.3,485l167.36-81.24.32-23.1s-146.9,46.48-156.65,56.78-20.87,17.26-18.64,27.53A84.85,84.85,0,0,0,1181.3,485Z"/><path class="cls-23" d="M1162.11,490.57,800.87,413.24l3.48-39S895.7,217.71,942.21,231.34s106.56,30.4,125,69.66S1168.21,465.85,1162.11,490.57Z"/><path class="cls-16" d="M1123.64,465.86s-73.08-158.63-114.23-184.46c-33.91-21.29-86.18-17.54-111.07,12.24-31.35,37.51-47.54,104.91-85.7,123.3-29.62,14.28-11.15-49.62-11.15-49.62L930.14,235.51s86.4-37.44,110.09,17.25,117.18,215.07,117.18,215.07S1141.72,506.49,1123.64,465.86Z"/><path class="cls-10" d="M1200.37,444,1349,380.65s-73.1-112.34-102.76-159.81c-14.16-22.66-63.29-40-96.92-33.75-25.49,4.71-178.67,13.58-178.67,13.58S1101.19,377.3,1200.37,444Z"/><polygon class="cls-7" points="1149.87 478.04 1149.32 518.61 794.25 436.59 795.51 401.54 1149.87 478.04"/><polygon class="cls-6" points="1149.32 518.61 1181.1 499.6 1181.6 462.63 1149.87 478.04 1149.32 518.61"/><path class="cls-22" d="M1195.71,457.38l13-6.72s-49.37-64.5-64.83-101.35-85.39-217.26-252-121.5c0,0,124.27-2,136.89,26.57s117.53,181.25,117.53,181.25Z"/><path class="cls-7" d="M1149.87,478s-30.63-44.37-54.67-94.52c-24.67-51.45-66.61-129.93-129.65-130-53.81-.06-64.11,12.71-100.27,64.88C855.2,333,845.64,347.85,836.4,362.94c-8.21,13.41-22.58,32.45-40.89,38.6L765.82,383s32.61-22.41,56.08-68.59c22.32-43.9,65-117.44,160.28-105.07a117.58,117.58,0,0,1,24.73,6.06h0a119.17,119.17,0,0,1,24.75,12.34c14,9.17,35,24.86,45.12,42.28,1.52,2.62,11.56,17.77,14.59,23.1,16,28.13,67.43,146.38,104.34,164.24Z"/><path class="cls-7" d="M973.84,281.45s-38.1-1.94-43.06,33.53,21.79,49.48,36.82,53,41.64-5,46.79-29.68S1004.6,284.22,973.84,281.45Z"/><path class="cls-29" d="M967.92,279.1s-38.1-1.94-43.06,33.53,21.79,49.48,36.82,53,41.64-5,46.79-29.68S998.68,281.87,967.92,279.1Z"/><path class="cls-21" d="M967.66,289.77c17.86,1.61,28.65,15.12,30.92,29.74l-63-6.85C940.67,288.4,967.66,289.77,967.66,289.77Z"/><path class="cls-21" d="M998.29,332.71C995.11,347.89,981.15,355,970,355.65l-.31-28.14,28.88,3.94C998.44,331.87,998.37,332.29,998.29,332.71Z"/><path class="cls-21" d="M960.19,326.22l-.53,28c-10.24-3.36-24.32-12.4-24.94-31.46Z"/><path class="cls-7" d="M970.36,317.87,970,355.65a24.93,24.93,0,0,1-7-.52c-1-.24-2.13-.55-3.29-.93l.7-37.22Z"/><polygon class="cls-29" points="999.13 317.27 934.81 310.27 933.41 320.26 1001.83 329.6 999.13 317.27"/><polygon class="cls-29" points="965.75 361.85 967.28 317.19 958.13 316.78 955.35 360.12 965.75 361.85"/><polygon class="cls-7" points="1176.66 869.09 1167.97 952.77 510.94 801 513.27 736.15 572.75 736.15 1176.66 869.09"/><path class="cls-22" d="M1154.07,848.18,530.3,716.69l-17,19.46L1169,877.69S1195.63,847.87,1154.07,848.18Z"/><polygon class="cls-6" points="1167.97 952.77 1226.77 917.6 1227.69 849.18 1168.98 877.69 1167.97 952.77"/><path class="cls-22" d="M1253.81,839.47,1278,827s-91.36-119.34-120-187.53-158-402-466.36-224.84c0,0,230-3.64,253.29,49.17s217.48,335.39,217.48,335.39Z"/><path class="cls-7" d="M1169,877.69s-56.68-82.1-101.16-174.89c-45.65-95.21-123.25-240.43-239.9-240.55-98.91-.09-118.38,23.22-184.23,118.16-19.1,27.54-37.26,55.73-54.76,84.31-15.18,24.82-41.79,60-75.66,71.43l-54.95-34.28S518.67,660.4,562.11,575c40.81-80.28,118.39-214.12,290.42-195.16a233,233,0,0,1,53.55,12.54h0a181.75,181.75,0,0,1,39.24,19.79c26.5,17.71,71.86,51.39,95.76,88.44L1055.19,523s120.34,278.56,198.62,316.44Z"/><path class="cls-7" d="M840.27,538.35s-91.08-4.63-102.93,80.17,52.1,118.31,88,126.71,99.57-12,111.87-71S913.84,545,840.27,538.35Z"/><path class="cls-29" d="M826.12,532.73S735,528.1,723.18,612.9s52.1,118.31,88,126.71,99.57-12,111.87-71S899.68,539.35,826.12,532.73Z"/><path class="cls-7" d="M896.49,630.75,746.91,612l-.29,26.85L899,659.65l.08-.36a44.29,44.29,0,0,0,1-6.47l0-.33Z"/><path class="cls-21" d="M825.51,558.25c42.71,3.85,68.49,36.15,73.92,71.1L748.78,613C761,555,825.51,558.25,825.51,558.25Z"/><path class="cls-21" d="M898.73,660.91c-7.58,36.3-41,53.26-67.74,54.84l-.75-67.28,69,9.43C899.11,658.9,898.94,659.91,898.73,660.91Z"/><path class="cls-21" d="M807.64,645.39l-1.25,66.9c-24.5-8-58.15-29.64-59.64-75.21Z"/><polygon class="cls-7" points="829.96 623.29 830.24 648.48 807.64 645.39 808.05 623.31 829.96 623.29"/><path class="cls-7" d="M747.77,618.81q.42-3,1-5.84l150.65,16.38a88.78,88.78,0,0,1-.15,28.55l-69-9.43L830,623.29l-21.91,0-.41,22.08-60.89-8.31A106.89,106.89,0,0,1,747.77,618.81Z"/><path class="cls-7" d="M832,625.43l-1,90.32a59.24,59.24,0,0,1-16.75-1.24c-2.46-.58-5.1-1.31-7.85-2.22l1.66-89Z"/><polygon class="cls-29" points="900.75 623.98 746.96 607.26 743.63 631.14 907.19 653.47 900.75 623.98"/><polygon class="cls-29" points="820.94 730.57 824.61 623.79 802.73 622.82 796.07 726.45 820.94 730.57"/><path class="cls-29" d="M692.19,955.06c91.19-81.59,202.18-1.11,229.74,91.44,19.72,66.21,13.9,347.4,13.9,347.4-39,6.65-57.4-14.86-57.4-14.86s-.57-253.1-6.23-295.48c-7.1-53.24-45.23-92.17-83.35-97.29-66.38-8.91-88,47.54-93.12,91.46-7.5,64.9-4.21,246.17-4.21,246.17s-25.68-.72-43.81-20.64c0,0-4-65.42-2.51-173.53C646.18,1057,653.9,989.32,692.19,955.06Z"/><ellipse class="cls-10" cx="835.36" cy="1180.47" rx="17.74" ry="20.55" transform="translate(-504.41 1724.84) rotate(-76.83)"/><ellipse class="cls-30" cx="842.28" cy="1176.53" rx="6.54" ry="7.58" transform="translate(-495.24 1728.54) rotate(-76.83)"/><polygon class="cls-7" points="1549.57 1201.12 1544.8 1554.33 1475.08 1534.58 1480.02 1168.45 1549.57 1201.12"/><polygon class="cls-7" points="1658.94 1143.83 1655.12 1159.11 1603.5 1220.39 1582.57 1240.52 1596.65 1170.23 1658.94 1143.83"/><polygon class="cls-6" points="1678.77 1135.37 1603.75 1231.26 1582.57 1240.52 1658.94 1143.83 1678.77 1135.37"/><path class="cls-31" d="M1279.19,449.29s87.73,58.24,118.83,140.56c31.5,83.4,44.7,128.71,44.7,128.71s-40.63-76.14-61.49-131.39S1279.19,449.29,1279.19,449.29Z"/><path class="cls-31" d="M1149.1,202.32s63.17,37.35,87.79,93.51c24.95,56.9,35.78,87.95,35.78,87.95s-31-51.51-47.56-89.21S1149.1,202.32,1149.1,202.32Z"/><path class="cls-31" d="M1285.55,509a421,421,0,0,1,32.79,41.05c13.13,18.81,26,41.18,29.72,60.56l8.27,43.32s-9.75-39.14-24.69-58.11S1285.55,509,1285.55,509Z"/><path class="cls-31" d="M1435.81,860.15s156.35,146,240.83,160.34c0,0-18.05,15-140.2-56.28C1493.65,939.23,1435.81,860.15,1435.81,860.15Z"/><path class="cls-31" d="M1387,885.06s72.94,97.7,118.88,114.29c0,0-11.65,6.6-73-45.75C1411.49,935.27,1387,885.06,1387,885.06Z"/><path class="cls-32" d="M978,1403c-13.89-37.69,4.59-51,3.79-60.55,0,0-32.15,19.37-26.47,44.41l-11.93-27.12s11.54-30.45-6.82-56.23c0,0-2.84,72-15.83,73,0,0,4.52-25.73-7.25-34,0,0-7.29,37.21-8.25,47C901.74,1425.78,984.58,1420.86,978,1403Z"/><path class="cls-32" d="M864.13,1712.94c18.81-22.88,9.16-36.64,12-43.08,0,0,17.69,21.28,7.68,37.34l14.87-16s-.66-24,18.37-37.5c0,0-15.46,50.8-6.66,54.67,0,0,3.08-19,13.29-21.93,0,0-3.94,27.68-5.65,34.75C911.74,1747.27,855.25,1723.78,864.13,1712.94Z"/><path class="cls-32" d="M1488.7,1548.56s4.57-56.31,15.26-60.87c0,0,0,48.4,6.23,53.17s20.28-30.09,20.28-30.09,7.4,27-3.2,37.32S1488.7,1548.56,1488.7,1548.56Z"/><path class="cls-32" d="M712.2,1602.61s13.25-54.91,24.52-57.76c0,0-7.49,47.81-2.09,53.49s24.7-26.58,24.7-26.58,3.12,27.84-9,36.37S712.2,1602.61,712.2,1602.61Z"/><path class="cls-32" d="M722.84,1615.72s1.92-99.49-8.6-104.43c0,0-1.75,48.36-8.13,52.91s-19.19-30.8-19.19-30.8-8.36,26.74,1.87,37.41S722.84,1615.72,722.84,1615.72Z"/><path class="cls-32" d="M674.81,1321.71s19.39-47.69,12.56-55.79c0,0-19.88,39.37-26.89,40.7s-4.15-32.81-4.15-32.81-17.12,19-12.72,31.69S674.81,1321.71,674.81,1321.71Z"/><path class="cls-32" d="M645.73,1299.65s-15-49.25-25.4-51.24c0,0,9.38,43.1,4.77,48.56s-23.9-22.87-23.9-22.87-1.35,25.5,10.09,32.62S645.73,1299.65,645.73,1299.65Z"/><path class="cls-32" d="M222.25,1191.89c19.68-22.44,8.21-32.18,11.3-38.58,0,0,20,25.3,9.44,41.16l12.58-9.47s-3.27-24.26,16.34-37.26c0,0-8.15,28.21-2.87,41,0,0,8.78-16.61,22.31-16.39,0,0-18.16,29-16.05,35.9S213,1202.53,222.25,1191.89Z"/><path class="cls-32" d="M1683.37,1469.41c4-25.61-8.95-27.41-9.66-33.53,0,0,26.46,9.21,26.06,25.77l4.82-12.79s-13.68-16.26-5.35-34.9c0,0,7.14,24.46,17,31.4,0,0-1.29-16.26,8.73-22.39,0,0,.2,29.73,4.93,33.78S1681.5,1481.53,1683.37,1469.41Z"/></svg>