<svg id="a356c60c-15ae-4c03-94a5-814d663ddfab" data-name="Layer 1" xmlns="http://www.w3.org/2000/svg" xmlns:xlink="http://www.w3.org/1999/xlink" viewBox="0 0 2000 2000"><defs><style>.b3836057-1df3-4ba2-885a-efd8126bc291{fill:none;}.fa9fcae0-d954-4cae-be9a-527f51cad2b1{fill:#aed76a;}.b4891e9f-ab75-440c-87c7-5517960b41da{clip-path:url(#a550b328-d8c5-4e5c-b3aa-64a2d6052756);}.a4d8b8c8-97bd-4f32-847f-ce99927c2ce2{fill:#fecfae;}.e797019b-329f-4f49-abb5-e511d44a6a01{fill:#9b8572;}.f313161f-2db1-4d4f-9c84-ee3d282360f8{fill:#e0d1b7;}.ae92f7e0-1bc4-48c9-a27e-5325b6fb09f9{fill:#a57341;}.bf3b7ef6-8e2b-4c14-8987-02ed8e583a87{fill:#af8956;}.a7191a22-0ccd-41d4-aeb4-6f277c7e4b29{fill:#bf975d;}.e6d0c4b8-5f6d-44b2-bdf7-102fb8cf53d8{fill:#99774f;}.adafa8e7-ff2e-42dc-8be4-7ab1d13110c6{fill:#934d3d;}.abdc7741-32c5-41b6-bba8-d0c0a6a89cfd{fill:#4a1f19;}.ffb1b233-976b-4bcd-8828-f238db2407b1{fill:#4f2c2a;}.b6121ed0-f8d7-4621-b135-d0c728e804ef{fill:#afd86a;}.e15d9dce-8ed5-4913-80e3-8cca1e8cada2{fill:#93643a;}.f95bebae-ac36-443c-b96e-bc9f669791d3{clip-path:url(#abff727c-1878-435c-95d5-02705a5a36b5);}.a2077847-6485-4a92-b183-40c4f0fd7147{fill:#70442c;}.bf938382-76a4-41ab-820c-74095e018a2f{clip-path:url(#e4111053-8244-4d74-844e-9e8263052509);}.f289c12e-38ed-43f0-8c3e-1178f3d8b48d{clip-path:url(#e89ef213-1549-423c-a4e8-aefb58bdb25c);}.efd4437e-956f-46e1-b172-f920142b6598{clip-path:url(#ba4666a3-b23b-41ea-aaa2-fc23a1dd7023);}.eb7f21bb-d9f4-4121-b700-c26f76626095{clip-path:url(#bc8c164e-027b-409b-851f-bb3953130b40);}.bb526a70-f30f-42b1-aa9a-d612c6618e40{clip-path:url(#be6e0d05-cc78-4307-8ccf-5d5317b7e3cf);}.b3eae404-63f8-4b76-8193-32102e365797{clip-path:url(#a823e4c8-65bc-4705-8c34-ae3ecb51f618);}.a28f0be3-9465-4003-a47b-1f34a6131483{clip-path:url(#a0a3ab42-1af2-4f88-9890-aab38086b9c0);}.f4da989b-03d5-4ba9-a7fa-0c1da5e4138c{clip-path:url(#b89fcb36-ae34-458a-8296-572c49a4e065);}.b06b1ee7-7b84-44f0-8c31-81688eb943e1{fill:#1e1713;}.a62cea6c-182e-43e4-b378-3ed278ac5c7d{clip-path:url(#aa604b41-a62a-44d0-8f8b-0b3df1c66cd0);}.b7ee64b7-88fe-4982-8f02-87215f4e9690{clip-path:url(#a53ce690-29a9-4dc6-abcd-1255e7d8665a);}.b9f4772c-13a1-40a5-9e58-c678c237b1ab{clip-path:url(#b7a9377d-2773-4124-a1e2-9ae0836a989c);}.b20d4a70-8ee8-43cd-8c8e-c3b1f73f0d6a{clip-path:url(#fe6b4a61-e97b-453b-9eba-933051f04d7f);}.f6b2ba51-38f0-4066-9a29-805a2365fb01{fill:#a37a79;}.b919570c-9ef0-4197-942c-035ba7f1af20{fill:#d19857;}.b4b41dac-cc40-429f-911f-022420bbbe43{fill:#d6b58e;}.aa8902d7-203e-4be4-97e9-b966675edc90{fill:#77a22f;}.af4113c0-5c67-43c6-9ffe-fbd0973c1d0c{clip-path:url(#e050ad7f-347b-4be2-b5b4-ed544a154416);}.a5efa436-468c-4985-af7b-409c6db8ad4c{fill:#8bbc38;}.a2845f70-4537-4f24-aabb-4a48404f7eb7{clip-path:url(#bbd0532f-e023-4446-a189-579c249be77e);}</style><clipPath id="a550b328-d8c5-4e5c-b3aa-64a2d6052756"><path class="b3836057-1df3-4ba2-885a-efd8126bc291" d="M630.17,992.12C532,980,483.63,1024.43,402.32,1073.64,287.73,1143,136.44,1252.8,159,1411.06c54.1,380,341.35,435.62,736.79,390.14s303.32-144.44,399.1-107.56,569.49,27.53,564.09-392.07c-2.71-211-173.07-428.55-726.42-420.77C899,884.08,690,999.5,630.17,992.12Z"/></clipPath><clipPath id="abff727c-1878-435c-95d5-02705a5a36b5"><path class="b3836057-1df3-4ba2-885a-efd8126bc291" d="M1525.13,1148.64s127.7,60.65,141.3,78.12,15.89,16.68,28.37,14.47c4.53-.81,33.48-11.17,27.18-37.65-7.94-33.3-33.7-14.59-50.14-28.78s-95.51-43-102.09-48.68-8.06-18.9-26.61-20.1C1533.72,1105.41,1507.83,1134.52,1525.13,1148.64Z"/></clipPath><clipPath id="e4111053-8244-4d74-844e-9e8263052509"><path class="b3836057-1df3-4ba2-885a-efd8126bc291" d="M1533.88,1097.87S1662,1128.81,1682,1124.15s21.21-2.73,29,6.17c2.84,3.23,19.44,29.74-1.89,43.07-23.88,14.93-28.09-12-48.26-11.37s-99.41-22-107.48-21.79-16.78,8.93-31-1.06C1515.21,1134.1,1513.12,1097.94,1533.88,1097.87Z"/></clipPath><clipPath id="e89ef213-1549-423c-a4e8-aefb58bdb25c"><path class="b3836057-1df3-4ba2-885a-efd8126bc291" d="M1518.8,1094.7s118.79,24.83,136.86,35.84,19.61,9.49,28.8,3.16c3.35-2.29,16.42-23,6.76-43.32-14.47-30.54-28.46-11.91-48-16.09-23-4.91-98.88,2-106.49-.77s-5.16-10.44-20.66-5.07C1508.21,1071.17,1499.09,1088,1518.8,1094.7Z"/></clipPath><clipPath id="ba4666a3-b23b-41ea-aaa2-fc23a1dd7023"><path class="b3836057-1df3-4ba2-885a-efd8126bc291" d="M1506.53,1050.2c16.4,5.17,23.74-1,38.26,8.25,14.14,9,53.6,24,60.25,29.13,13.62,10.43,15.18,9.38,24.1,5.28,3.24-1.49,22.91-14.94,13-33.54-12.47-23.4-28.12-4.34-43.22-11.74s-80-13.51-86.05-16.47-9.75-12.59-23.9-9.85C1483.26,1022.36,1483.87,1043,1506.53,1050.2Z"/></clipPath><clipPath id="bc8c164e-027b-409b-851f-bb3953130b40"><path class="b3836057-1df3-4ba2-885a-efd8126bc291" d="M1490.19,1117.1s122.17,53.91,139.1,69.89,18.93,14.7,30.27,10c4.13-1.71,22.92-21,17.19-45.08-8.59-36.18-27.91-19.34-48-28.3-23.6-10.55-106.88-20.42-114.43-25.2s-3.17-12.41-21.08-10.18C1484.19,1089.36,1470.52,1105.38,1490.19,1117.1Z"/></clipPath><clipPath id="be6e0d05-cc78-4307-8ccf-5d5317b7e3cf"><path class="b3836057-1df3-4ba2-885a-efd8126bc291" d="M878.84,1258.24s115,101.72,128,125.14,15.6,22.71,29.68,21.52c5.11-.43,32.42-15,34.56-43.39,3.22-42.64-23.83-30.93-42.68-47.75-22.17-19.8-110-59.69-116.58-67.56s.86-14.71-19.54-18.52C882,1225.75,861.38,1238.53,878.84,1258.24Z"/></clipPath><clipPath id="a823e4c8-65bc-4705-8c34-ae3ecb51f618"><path class="b3836057-1df3-4ba2-885a-efd8126bc291" d="M1486.62,1134.6s92.63,96.19,102.24,117.39,11.94,20.78,24.23,20.72c4.46,0,29.14-10.7,33-35.2,5.76-36.73-18.5-28.47-33.66-44.36-17.85-18.71-91.18-59.4-96.35-66.69s1.77-12.68-15.65-17.41C1491.58,1106.65,1472.85,1116.3,1486.62,1134.6Z"/></clipPath><clipPath id="a0a3ab42-1af2-4f88-9890-aab38086b9c0"><path class="b3836057-1df3-4ba2-885a-efd8126bc291" d="M735.06,1376.8s180.73,58.6,201.89,79.51,24.08,19.46,40.32,14.33c5.9-1.86,42.68-20.71,29.66-54.89-16.36-43-47.44-13.58-71.81-29.62s-134.77-40.69-144.51-47.1-14-23.79-39-22.16C739,1317.69,709.55,1361,735.06,1376.8Z"/></clipPath><clipPath id="b89fcb36-ae34-458a-8296-572c49a4e065"><path class="b3836057-1df3-4ba2-885a-efd8126bc291" d="M733.91,1299.18s166.43,91.63,183.27,116.16,20,23.65,36.89,21.68c6.15-.71,38.35-17.65,39.49-48.31,1.7-46-30.32-32.07-53.91-49.23-27.76-20.19-135.7-58.78-144.07-66.92s-9.29-26-34.09-29.11C748.91,1241.87,711.84,1278.85,733.91,1299.18Z"/></clipPath><clipPath id="aa604b41-a62a-44d0-8f8b-0b3df1c66cd0"><path class="b3836057-1df3-4ba2-885a-efd8126bc291" d="M798.69,1222.88s136.1,66.77,159.72,66.54,24.49,2.23,31.05,14.18c2.39,4.34,14.39,38.24-12.89,47.88-30.54,10.79-28.52-20.49-51.32-24.84s-106.08-49.58-115.2-51.31-21.07,5.82-34.55-8.95C768.66,1258.88,775.36,1217.77,798.69,1222.88Z"/></clipPath><clipPath id="a53ce690-29a9-4dc6-abcd-1255e7d8665a"><path class="b3836057-1df3-4ba2-885a-efd8126bc291" d="M781,1203.8S955.8,1278.31,975,1301s22.25,21.53,38.88,17.88c6-1.33,36.39-21.4,34.45-52-2.9-45.92-33.37-28.88-58.57-43.59-29.63-17.31-140.9-44.9-150-52.16s-11.85-25-36.83-25.55C790.22,1145.28,757,1185.78,781,1203.8Z"/></clipPath><clipPath id="b7a9377d-2773-4124-a1e2-9ae0836a989c"><path class="b3836057-1df3-4ba2-885a-efd8126bc291" d="M786.8,1212.78s150.12,32.34,172.89,46.4,24.73,12.16,36.42,4.23c4.25-2.89,20.94-28.92,8.88-54.77-18.08-38.74-35.92-15.29-60.59-20.72-29-6.4-125.13,1.83-134.74-1.8s-6.45-13.24-26.1-6.58C773.59,1182.93,761.91,1204.15,786.8,1212.78Z"/></clipPath><clipPath id="fe6b4a61-e97b-453b-9eba-933051f04d7f"><path class="b3836057-1df3-4ba2-885a-efd8126bc291" d="M1290.15,1347.69l121.48-40.27s33-236.26-34.43-250.94-88.73,35.86-94.74,53.52S1290.15,1347.69,1290.15,1347.69Z"/></clipPath><clipPath id="e050ad7f-347b-4be2-b5b4-ed544a154416"><path class="b3836057-1df3-4ba2-885a-efd8126bc291" d="M400.22,1383.35q2.64-1,5.57-2.12s-18.65-72.94,62.14-84.38c79.93-11.31,86.93,74.88,86.93,74.88s16.74-36.81,54.71-18.92c30.88,13.36,24.75,47.71,7.38,68.09,0,0,65.46,80-114.86,62.63-1.15.24-18.87,3.4-18.87,3.4a122.88,122.88,0,0,1-36.13,1h0A118.06,118.06,0,0,1,383.65,1460l-.5-.43a34.88,34.88,0,0,1-4-4.18C359.29,1431.2,370.21,1395.08,400.22,1383.35Z"/></clipPath><clipPath id="bbd0532f-e023-4446-a189-579c249be77e"><path class="b3836057-1df3-4ba2-885a-efd8126bc291" d="M335.41,1194.93s-213.14,73-197.79-86.77c0,0-76.05-54.14-43-151.08s103-85.88,83.36-96.39c-68-36.38-40.14-175.84,72.6-145.88,0,0-6.73-107.69,108.19-111,180.07-5.2,130.23,170,130.23,170s128.39,14,50.51,118.45c0,0,130.49,116.43-29.68,201.1C509.83,1093.33,504.66,1264.62,335.41,1194.93Z"/></clipPath></defs><path class="fa9fcae0-d954-4cae-be9a-527f51cad2b1" d="M630.17,992.12C532,980,483.63,1024.43,402.32,1073.64,287.73,1143,136.44,1252.8,159,1411.06c54.1,380,341.35,435.62,736.79,390.14s303.32-144.44,399.1-107.56,569.49,27.53,564.09-392.07c-2.71-211-173.07-428.55-726.42-420.77C899,884.08,690,999.5,630.17,992.12Z"/><g class="b4891e9f-ab75-440c-87c7-5517960b41da"><path class="a4d8b8c8-97bd-4f32-847f-ce99927c2ce2" d="M1411.63,1307.42s83.5,51.06,67.87,116.93S1261,1536.47,1236.56,1645,1050,1916.37,1050,1916.37L408.1,1776.2s142.21-141.61,610.64-188.26c87.87-8.75,205.07-135.92,250.64-141.42s73.18-41.86,20.77-98.83S1411.63,1307.42,1411.63,1307.42Z"/></g><path class="e797019b-329f-4f49-abb5-e511d44a6a01" d="M598.49,1413.44,383.9,1304.94V1030.2l214.59,80.28S683.75,1382.67,598.49,1413.44Z"/><polygon class="f313161f-2db1-4d4f-9c84-ee3d282360f8" points="598.49 1110.48 598.49 1413.44 1400.12 1229.32 1400.12 986.51 598.49 1110.48"/><path class="ae92f7e0-1bc4-48c9-a27e-5325b6fb09f9" d="M598.49,1141.25l40.23-8.63-17.59-18.85-22.64,3.36S584.76,1132.22,598.49,1141.25Z"/><path class="bf3b7ef6-8e2b-4c14-8987-02ed8e583a87" d="M660.81,947.44l287-62.65-7.1,195.13-342.26,37.21S605.71,1016.05,660.81,947.44Z"/><path class="a7191a22-0ccd-41d4-aeb4-6f277c7e4b29" d="M432,887.07s-96.52,122.66-97.24,177l263.78,53.07s29.26-124.71,62.32-169.69Z"/><polygon class="ae92f7e0-1bc4-48c9-a27e-5325b6fb09f9" points="345.25 1054.36 343.72 1073.64 598.49 1141.25 598.49 1117.13 345.25 1054.36"/><path class="e6d0c4b8-5f6d-44b2-bdf7-102fb8cf53d8" d="M678.08,1081.89c-.69-9.74-1.59-25.5-2.14-46.8-.65-25.41,10.93-50.9,18.34-64.5-5.56,15.25-14.56,42.86-14.1,60.77C680.61,1047.66,679.15,1069,678.08,1081.89Z"/><path class="e6d0c4b8-5f6d-44b2-bdf7-102fb8cf53d8" d="M688.21,985.26c-4.71,14.85-9.37,33-9,46.12.29,11-.28,24.19-1,35.61-.45-8.63-.9-19.3-1.23-31.93-.46-18,5.28-36,11.27-49.8M699.42,960s-25.45,37.38-24.48,75.15c1,38.26,3.08,58.42,3.08,58.42s3.82-36.86,3.16-62.21S699.42,960,699.42,960Z"/><path class="e6d0c4b8-5f6d-44b2-bdf7-102fb8cf53d8" d="M742.4,1061.91c-2-8.13-5-20.52-8.38-36.91-4.16-20.08.89-41.89,5-54.73-2.31,13.91-5.21,36.8-2.26,51C739.37,1034.08,741.3,1050.83,742.4,1061.91Z"/><path class="e6d0c4b8-5f6d-44b2-bdf7-102fb8cf53d8" d="M735.56,987.81c-1.22,11.68-1.74,24.47.18,33.69,1.54,7.44,2.84,16.23,3.87,24.46-1.39-6.07-2.94-13.14-4.61-21.16-2.59-12.52-1.56-25.74.56-37m6.6-29.2s-15.64,35.13-9.12,66.6c6.62,31.88,11.42,48.43,11.42,48.43s-2.38-31.43-6.77-52.55,4.47-62.48,4.47-62.48Z"/><polygon class="f313161f-2db1-4d4f-9c84-ee3d282360f8" points="613.13 664.01 1095.7 575.65 1141.95 792.14 649.97 912.93 613.13 664.01"/><path class="e797019b-329f-4f49-abb5-e511d44a6a01" d="M451.46,840.9V622.7l205,28.72,4.34,229S473,930.13,451.46,840.9Z"/><path class="ae92f7e0-1bc4-48c9-a27e-5325b6fb09f9" d="M642.07,681.16l-224.4-31.37V628.11s198.2,5.52,211.44,18.54,24.36-5.61,21.95,7.94S642.07,681.16,642.07,681.16Z"/><path class="a7191a22-0ccd-41d4-aeb4-6f277c7e4b29" d="M624.62,654.06,417.67,628.11s28.27-159.69,67.49-221.57S583.05,299.1,650.24,305.6C684,308.87,903.94,299,903.94,299S751.14,562,624.62,654.06Z"/><path class="bf3b7ef6-8e2b-4c14-8987-02ed8e583a87" d="M592,369.59s-59.72,44.54-78.49,103.9c-19,60.14-26.59,92.65-26.59,92.65s25.74-55.36,38.34-95.2S592,369.59,592,369.59Z"/><path class="bf3b7ef6-8e2b-4c14-8987-02ed8e583a87" d="M589.82,412a298.05,298.05,0,0,0-21.57,30.27c-8.55,13.79-16.79,30.09-18.65,43.93l-4.16,30.92s5.37-28,15.19-42S589.82,412,589.82,412Z"/><path class="bf3b7ef6-8e2b-4c14-8987-02ed8e583a87" d="M660.81,368.41a298,298,0,0,0-23.91,28.47c-9.6,13.08-21.23,29.55-27.42,42.06-29,58.5-27.64,84.9-27.64,84.9s34-81.66,44.87-94.82S660.81,368.41,660.81,368.41Z"/><path class="f313161f-2db1-4d4f-9c84-ee3d282360f8" d="M638.2,672,1111.11,570.8l-4.55-51S987,314.83,926.08,332.68s-139.5,39.79-163.56,91.18S630.22,639.67,638.2,672Z"/><path class="e797019b-329f-4f49-abb5-e511d44a6a01" d="M688.57,639.69S784.24,432,838.11,398.2c44.39-27.86,112.82-22.95,145.4,16,41,49.1,62.23,137.33,112.2,161.42,38.77,18.69,14.59-65,14.59-65L941.89,338.14s-113.11-49-144.12,22.57S644.36,642.27,644.36,642.27,664.9,692.88,688.57,639.69Z"/><polygon class="adafa8e7-ff2e-42dc-8be4-7ab1d13110c6" points="644.09 647.97 650.24 707.17 1117.75 633.88 1113.42 553.92 1087.08 579.38 644.09 647.97"/><path class="abdc7741-32c5-41b6-bba8-d0c0a6a89cfd" d="M660.81,639.46l449.94-77.52,7,17.44L649.52,654.06S631.4,639.24,660.81,639.46Z"/><polygon class="ffb1b233-976b-4bcd-8828-f238db2407b1" points="650.24 707.17 608.64 682.29 607.99 633.88 649.52 654.06 650.24 707.17"/><path class="abdc7741-32c5-41b6-bba8-d0c0a6a89cfd" d="M592.22,632.1l-17.08-8.8S639.77,538.87,660,490.62,771.79,206.2,990,331.56c0,0-162.68-2.58-179.2,34.78S656.89,603.62,656.89,603.62Z"/><path class="adafa8e7-ff2e-42dc-8be4-7ab1d13110c6" d="M652.23,659.14s40.1-58.08,71.57-123.73c32.29-67.36,87.19-170.1,169.72-170.18,70-.07,83.75,16.42,130.34,83.59,13.51,19.48,26.36,39.42,38.74,59.65,10.74,17.55,29.56,42.47,53.52,50.53L1155,534.75s-42.7-29.34-73.43-89.79c-28.87-56.8-83.76-151.49-205.46-138.07a164.43,164.43,0,0,0-37.89,8.87h0a128.44,128.44,0,0,0-27.76,14c-18.75,12.53-50.84,36.36-67.75,62.57l-10,15.9S647.6,605.3,592.22,632.1Z"/><polygon class="abdc7741-32c5-41b6-bba8-d0c0a6a89cfd" points="431.95 837.5 451.46 832.41 660.81 873.65 921.3 834.37 887.25 902.31 649.97 912.93 438.92 858.42 431.95 837.5"/><polygon class="adafa8e7-ff2e-42dc-8be4-7ab1d13110c6" points="660.81 947.44 660.81 887.07 941.62 837.5 934.92 887.07 660.81 947.44"/><path class="b6121ed0-f8d7-4621-b135-d0c728e804ef" d="M1300.26,1583.92c-13.31-16.19-6.48-25.93-8.51-30.48,0,0-12.52,15-5.43,26.41l-10.52-11.31s.46-17-13-26.54c0,0,10.94,36,4.71,38.68,0,0-2.18-13.45-9.4-15.52,0,0,2.78,19.59,4,24.59C1266.58,1608.2,1306.55,1591.58,1300.26,1583.92Z"/><path class="b6121ed0-f8d7-4621-b135-d0c728e804ef" d="M1407.75,1505.86s-9.38-38.85-17.35-40.87c0,0,5.3,33.83,1.48,37.85S1374.4,1484,1374.4,1484s-2.2,19.7,6.34,25.73S1407.75,1505.86,1407.75,1505.86Z"/><path class="b6121ed0-f8d7-4621-b135-d0c728e804ef" d="M1400.22,1515.13s-1.36-70.38,6.08-73.88c0,0,1.24,34.22,5.76,37.43s13.57-21.79,13.57-21.79,5.92,18.92-1.32,26.47S1400.22,1515.13,1400.22,1515.13Z"/><path class="e15d9dce-8ed5-4913-80e3-8cca1e8cada2" d="M1474.35,990.55,1544.18,914l190.3,144.43c14,6.71,23,13,24.28,18.43,0,0-274.56-43.06-315.67-75.43C1432.74,993.26,1447,987.3,1474.35,990.55Z"/><polygon class="ffb1b233-976b-4bcd-8828-f238db2407b1" points="1688.97 1006.44 1688.97 1006.44 1735.79 1025.01 1738.35 1214.27 1702.95 1224.75 1700.44 1227.89 1691.94 1225.86 1688.97 1006.44 1688.97 1006.44"/><polygon class="adafa8e7-ff2e-42dc-8be4-7ab1d13110c6" points="1743.31 1035.7 1745.74 1216.18 1699.34 1227.91 1696.49 1017.13 1743.31 1035.7"/><path class="ffb1b233-976b-4bcd-8828-f238db2407b1" d="M1525.13,1148.64s127.7,60.65,141.3,78.12,15.89,16.68,28.37,14.47c4.53-.81,33.48-11.17,27.18-37.65-7.94-33.3-33.7-14.59-50.14-28.78s-95.51-43-102.09-48.68-8.06-18.9-26.61-20.1C1533.72,1105.41,1507.83,1134.52,1525.13,1148.64Z"/><g class="f95bebae-ac36-443c-b96e-bc9f669791d3"><path class="a2077847-6485-4a92-b183-40c4f0fd7147" d="M1524.43,1139.08s127.7,60.66,141.29,78.13,18,24.31,30.48,22.1c4.54-.8,37.8-6.63,25.07-45.28-10.7-32.52-33.69-14.6-50.13-28.79s-95.51-43-102.09-48.67-8.06-18.91-26.62-20.11C1533,1095.85,1507.13,1125,1524.43,1139.08Z"/></g><path class="a7191a22-0ccd-41d4-aeb4-6f277c7e4b29" d="M1697.75,1236a8.27,8.27,0,0,1-12.35-5.19c-1.39-6.09-2.31-15.4,2.47-22.5,7.74-11.48,18.91-16.83,24.08-13.92,9.4,5.3,7.84,22-6.29,35.35A48.21,48.21,0,0,1,1697.75,1236Z"/><path class="ae92f7e0-1bc4-48c9-a27e-5325b6fb09f9" d="M1705.8,1199.74c-6.57,3.89-12.23,10-13.87,17.54a23.09,23.09,0,0,0-.41,6.94c0,1,.33,2.54,1,3.08,3.37,1.84,10.65-4.47,13.14-6.9,2.4-2.59,4-6.39,5.39-9.72.56-1.56,1.35-3.72,1.14-5.22,0,0,.17.08.14.06a13.46,13.46,0,0,0-3.48,1.34c-5.07,2.68-9.38,7-11.13,12.65a19.09,19.09,0,0,1,5.41-10.54c1.85-1.92,10.12-9,11.4-3.83.4,2.26-.34,4.34-1,6.43-1.38,3.86-3,7.82-5.77,10.88-9.82,10-22.58,13.33-18.13-5.73,2.19-7.91,8.69-14,16.1-17Z"/><path class="ffb1b233-976b-4bcd-8828-f238db2407b1" d="M1520.6,1102.81s139.18,25.75,160.46,19.56,22.68-4.19,31.5,4.92c3.21,3.32,20.61,28.72,0,46.49-26,22.35-35.79-.11-57.45,1.75s-102.82-29-111.48-28.26-17.63,10.6-33.39.68C1502.19,1142.92,1498.28,1104.11,1520.6,1102.81Z"/><g class="bf938382-76a4-41ab-820c-74095e018a2f"><path class="a2077847-6485-4a92-b183-40c4f0fd7147" d="M1527.86,1104.35s128.14,31,148.14,26.29,27.16-7,35,1.88c2.84,3.24,23.75,26.9-7.84,47.36-26.56,17.21-33-9.18-53.17-8.56s-94.49-24.85-102.56-24.6-16.79,8.93-31-1.06C1509.18,1140.59,1507.09,1104.42,1527.86,1104.35Z"/></g><path class="a7191a22-0ccd-41d4-aeb4-6f277c7e4b29" d="M1711.89,1133.26a8.28,8.28,0,0,0-13.06-3c-4.7,4.12-10.91,11.14-11.2,19.7-.46,13.85,5.46,24.75,11.36,25.42,10.74,1.22,19.27-13.24,15.65-32.36A47.48,47.48,0,0,0,1711.89,1133.26Z"/><path class="ae92f7e0-1bc4-48c9-a27e-5325b6fb09f9" d="M1697.14,1167.4c-4.28-6.74-6-15.52-3.1-23.22,7.58-18.06,16-7.87,18.07,6a21.47,21.47,0,0,1-.28,6.3,33.06,33.06,0,0,1-3.26,10.26c-4.41,6.88-7.67-4.85-8.15-8.36a19.08,19.08,0,0,1,1.8-11.72c-1.89,5.6-.93,11.65,1.6,16.79a13.09,13.09,0,0,0,2,3.13s-.1,0-.15,0,0,0,.12-.12a14.35,14.35,0,0,0,2-4.79c.85-3.49,1.75-7.54,1.33-11.05-.61-3.45-2.79-12.8-6.61-13.3-.9,0-2,1-2.66,1.89a23.14,23.14,0,0,0-3.74,5.87c-3.08,7.06-2.09,15.35,1,22.36Z"/><path class="ffb1b233-976b-4bcd-8828-f238db2407b1" d="M1509.75,1109.28s127.84,10.25,145.91,21.26,19.61,9.49,28.8,3.16c3.35-2.29,22.58-21.68,6.76-43.32-19.89-27.22-36.25,4.74-55.28-2.32s-91.59-11.72-99.2-14.54-14.17-14.22-29.67-8.86C1499.2,1067.38,1490,1102.58,1509.75,1109.28Z"/><g class="f289c12e-38ed-43f0-8c3e-1178f3d8b48d"><path class="a2077847-6485-4a92-b183-40c4f0fd7147" d="M1503.46,1080.19s4.45,14.63,26.69,17.39c22.65,2.82,43.8,11.19,84.09,10.4,6.64-.13,27-5,33.2.42,13.42,11.76,27.89,27.13,34.2,22.79,3.34-2.3,28.86-21.37,2.92-51.75-21.81-25.56-33.16-1.44-52.2-8.5s-94.67-5.54-102.28-8.37-14.17-14.22-29.67-8.85C1492.55,1056.44,1483.75,1073.49,1503.46,1080.19Z"/></g><path class="a7191a22-0ccd-41d4-aeb4-6f277c7e4b29" d="M1685.6,1122.05c-6,5.36-14,3.1-17.74-1-4.15-4.54-5.2-8.49-5.15-16.6.07-13.12,7.37-21.73,12.79-21.54,9.86.35,17.14,15.18,13.13,32.69C1687.76,1119.45,1687.29,1120.54,1685.6,1122.05Z"/><path class="ae92f7e0-1bc4-48c9-a27e-5325b6fb09f9" d="M1679.69,1104.25c.6,0,.72.82.82,1.28.09,1.06.27,2.5-.62,3.28a3.42,3.42,0,0,1-5-.21c-3.21-3.92-2.34-17.85,4.84-16.77,9.78,2.15,8.56,16.21,5.83,23.41-4,10.17-13.48,6-17.73-1.5-3.37-6.18-2-13.81.5-19.86,1.13-3.23,4.12-6,7.63-6.09a4.46,4.46,0,0,1,3.13.8,4.29,4.29,0,0,0-3-.19,7.8,7.8,0,0,0-5.84,6.13c-1.58,5.65-2.38,12.25.69,17.47,1.43,2.45,5.44,6,8.12,5.31,4-2,4.92-11.06,4.57-15.21-.25-3.21-1.61-7.16-5.17-7.18-3,1.35-4,10.12-2.44,12.79a2.41,2.41,0,0,0,3.51.57.77.77,0,0,0,.41-.46,5.46,5.46,0,0,0,.31-3c-.07-.24-.21-.52-.5-.53Z"/><path class="adafa8e7-ff2e-42dc-8be4-7ab1d13110c6" d="M1549.48,906s128,91.19,240.35,111.32l-27.32,62.63s-198.24-64.49-257.08-123.6l-5.57-52Z"/><path class="ffb1b233-976b-4bcd-8828-f238db2407b1" d="M1479.08,1053s113.32,21.5,127.66,32.49,16,9.88,25.38,5.55c3.41-1.57,24.12-15.73,13.68-35.32-13.14-24.65-29.61-4.57-45.51-12.37s-84.28-14.22-90.64-17.34-10.26-13.26-25.16-10.38C1476.93,1017.11,1462.51,1045.43,1479.08,1053Z"/><g class="efd4437e-956f-46e1-b172-f920142b6598"><path class="a2077847-6485-4a92-b183-40c4f0fd7147" d="M1481.43,1049.71s107.6,20.42,121.21,30.85,18.26,14.69,27.18,10.59c3.24-1.49,27-12.38,9.91-38.86-14.4-22.27-28.12-4.33-43.22-11.74s-80-13.5-86-16.47-9.75-12.59-23.9-9.85C1479.39,1015.62,1465.69,1042.52,1481.43,1049.71Z"/></g><path class="a7191a22-0ccd-41d4-aeb4-6f277c7e4b29" d="M1624.42,1055.28a6.92,6.92,0,0,1,10.89.35c2.75,4,6,10.52,4.33,17-2.76,10.46-9.84,17.43-14.61,16.75-8.67-1.25-12.08-13.78-5-27.36A37.4,37.4,0,0,1,1624.42,1055.28Z"/><path class="ae92f7e0-1bc4-48c9-a27e-5325b6fb09f9" d="M1628.27,1083.79c4.71-5.68,7.55-13.69,4.38-20.67-.45-1-1-2.4-2-2.67-2-.19-4.32,2.94-5.53,4.64a24.92,24.92,0,0,0-2.64,4.68,30,30,0,0,0-1.1,7.55,11.08,11.08,0,0,0,.44,3.85c0,.06,0,0-.06,0s-.34.09-.07-.08c4.27-3.23,7.34-8.32,7.23-13.85,1.31,5.46-1.39,11.45-5.42,15.21a2.44,2.44,0,0,1-2.69.83c-3.38-1.66-2.11-12.81-.61-15.68,4.79-10,14-16,15.88-.6.49,6.54-3,12.78-7.86,16.79Z"/><path class="ffb1b233-976b-4bcd-8828-f238db2407b1" d="M1477.12,1130.73S1612.36,1171,1629.29,1187s18.93,14.7,30.27,10c4.13-1.71,29.26-18.18,17.19-45.08-15.18-33.85-35.37-9.14-54.24-21.09s-100.61-27.63-108.16-32.41-12-18.54-29.91-16.32C1475.36,1083.22,1457.44,1119,1477.12,1130.73Z"/><g class="eb7f21bb-d9f4-4121-b700-c26f76626095"><path class="a2077847-6485-4a92-b183-40c4f0fd7147" d="M1477,1098s1.45,16.76,24.75,24.83c23.74,8.21,67,11.06,110.49,19.42,7.18,1.38,9.31,20.79,14.69,28,11.76,15.72,22.39,26.64,30.17,23.41,4.12-1.71,36-16.4,15-55-17.63-32.5-35.37-9.14-54.24-21.09s-100.62-27.63-108.16-32.41-12-18.55-29.91-16.32C1470.7,1069.92,1457.33,1086.26,1477,1098Z"/></g><path class="a7191a22-0ccd-41d4-aeb4-6f277c7e4b29" d="M1663.45,1184.7c-7.67,4.4-11.91,1.41-15-3.84-3.43-5.84-7.52-11.61-5.61-20.32,3.08-14.1,12.9-21.7,18.69-20.26,10.53,2.64,15,20.26,6.66,38.19C1666.36,1182.4,1665.62,1183.46,1663.45,1184.7Z"/><path class="ae92f7e0-1bc4-48c9-a27e-5325b6fb09f9" d="M1661.28,1163.13c.66-.07.88.8,1,1.3.22,1.15.57,2.69-.29,3.63-2.9,3.21-6.69.37-7.32-3.09-1.44-4.72-2-15.21,5.13-15.28,10.77,1.15,11.09,16.67,9,24.7-3.11,11.43-13.77,8-19.23.42-4.72-6.9-3.77-16-1.26-23.43,1.47-3.88,6.42-7.32,10.46-5.32a4.77,4.77,0,0,0-3.37.13c-6,1.88-6.23,9-6.4,14.22-.17,6.42,2.13,13.35,8.19,16.31,1.9,1,3.78,1.57,5,1,4.2-2.58,4.2-12.86,3.29-17.4-.65-3.54-2.76-7.87-6.76-7.33-3.19,1.81-3.25,11.74-1.13,14.46a2.7,2.7,0,0,0,4,.18.9.9,0,0,0,.4-.56,6.07,6.07,0,0,0,0-3.38c-.1-.26-.3-.54-.61-.51Z"/><path class="e797019b-329f-4f49-abb5-e511d44a6a01" d="M1101.52,1387.61,893.3,1265.86l-4.86-359.52,196.26,95.2s29.37-2.34,29.5,7.25S1134.58,1372.46,1101.52,1387.61Z"/><path class="ffb1b233-976b-4bcd-8828-f238db2407b1" d="M691.33,1161l3.23,239.83c0,3,.19,6.55,2.77,7.77l8,2.15,29.22-13.46-3.5-259.27Z"/><path class="adafa8e7-ff2e-42dc-8be4-7ab1d13110c6" d="M702,1160.89l3.37,249.89,30.9-14.23c5.28-1.84,8.9-3.6,8.82-9.45l-3.36-249.2Z"/><polygon class="ffb1b233-976b-4bcd-8828-f238db2407b1" points="613.13 1106.09 664.4 1172.8 673.3 1176.41 625.56 1110.05 613.13 1106.09"/><path class="ffb1b233-976b-4bcd-8828-f238db2407b1" d="M859.76,1268.61s134.13,91.35,147.1,114.77,15.6,22.71,29.68,21.52c5.11-.43,38.39-9.7,34.56-43.39-4.81-42.39-35.56-22.36-52.06-42s-100.6-65.4-107.2-73.27-6.67-24.51-27.07-28.32C874.42,1215.94,842.29,1248.9,859.76,1268.61Z"/><g class="bb526a70-f30f-42b1-aa9a-d612c6618e40"><path class="a2077847-6485-4a92-b183-40c4f0fd7147" d="M871.07,1232.69s-4.27,18.87,18.45,35.84c23.14,17.28,69.5,35.49,114.28,59.86,7.39,4,2.94,26,6.33,35.79,7.39,21.33,15.22,37,24.88,36.18,5.11-.43,45.11-5.41,35.63-55-8-41.76-35.56-22.36-52.06-42S918,1237.87,911.37,1230s-6.67-24.5-27.07-28.32C874,1199.74,853.6,1213,871.07,1232.69Z"/></g><path class="a7191a22-0ccd-41d4-aeb4-6f277c7e4b29" d="M1042,1396.28c-10.12,1-13.14-4.19-13.88-11.16-.82-7.73-2.37-15.72,3.77-23.94,9.93-13.31,23.82-16.6,29.2-12.34,9.77,7.76,6.06,28.32-11.17,43.16C1046.16,1395.25,1044.87,1396,1042,1396.28Z"/><path class="ae92f7e0-1bc4-48c9-a27e-5325b6fb09f9" d="M1049.22,1373.88c.6.47.07,1.36-.19,1.89-.75,1.11-1.68,2.63-3.14,2.74-4.81.28-5.74-4.92-3.46-8.3,2.54-4.55,7.76-11.1,13.69-10,3.33,1,5,4.94,5,8.17-.44,8.69-7.89,16.15-14.84,20.53-11.55,6.83-17.24-4.35-15.82-14.73,1.59-9.4,9.59-16.17,17.49-20.31,4.24-2,11.09-1,12.83,3.86a5.46,5.46,0,0,0-2.86-2.64c-6.53-3.31-12.39,2.31-16.81,6.54-5.38,5.19-9.07,12.88-6.41,20.26,1.56,5.35,4.53,6.52,9.6,3.56a33.89,33.89,0,0,0,10.9-10.48c2.33-3.48,4.08-9.18.09-11.84-4.17-1.11-12.31,7.27-12.66,11.28a3.2,3.2,0,0,0,3.25,3.39,1.2,1.2,0,0,0,.81-.17c.85-.5,3.41-2.74,2.53-3.78Z"/><path class="ffb1b233-976b-4bcd-8828-f238db2407b1" d="M1469.36,1142.26s109.89,88.53,119.5,109.73,11.94,20.78,24.23,20.72c4.46,0,34-5.73,33-35.2-1.22-37.07-29.26-21.86-42.2-40.07s-82.64-63.69-87.81-71-4.08-21.71-21.49-26.43C1485.73,1097.63,1455.59,1124,1469.36,1142.26Z"/><g class="b3eae404-63f8-4b76-8193-32102e365797"><path class="a2077847-6485-4a92-b183-40c4f0fd7147" d="M1481.66,1111.91s-5,16.06,13.5,32.36c18.85,16.59,57.76,35.6,94.88,59.85,6.13,4,.74,22.76,3,31.46,4.92,19,10.62,33.13,19,33.1,4.46,0,39.48-1.56,34.72-45.25-4-36.74-29.27-21.85-42.2-40.06s-82.64-63.7-87.82-71-4.07-21.71-21.49-26.44C1486.46,1083.55,1467.89,1093.61,1481.66,1111.91Z"/></g><path class="a7191a22-0ccd-41d4-aeb4-6f277c7e4b29" d="M1618.43,1265.62c-8.83.13-11.1-4.54-11.25-10.63-.18-6.77-1-13.8,4.93-20.5,9.53-10.84,21.81-12.73,26.17-8.66,7.94,7.41,3.28,25-12.69,36.63C1622.1,1265,1620.93,1265.58,1618.43,1265.62Z"/><path class="ae92f7e0-1bc4-48c9-a27e-5325b6fb09f9" d="M1626.24,1246.71c.5.45,0,1.19-.29,1.64a5.74,5.74,0,0,1-2.39,2.14,4.07,4.07,0,0,1-2.42-.39c-2.77-1.43-2.18-5.09-.62-7.12,2.59-4.19,10.09-11.54,14.85-6.24,6.26,8.84-5.18,19.34-12.61,23-10.64,5.22-15.09-5.06-13-14.16,1.83-7.48,8.57-12.61,15-15.7,3.29-1.79,7.7-1.81,10.65.66a4.88,4.88,0,0,1,2,3,4.82,4.82,0,0,0-2.32-2.45c-5.35-3.24-10.87,1.25-14.9,4.6-4.94,4.11-8.61,10.42-6.83,16.92,1,4.83,3.46,5.6,7.72,3.57a29.23,29.23,0,0,0,10.09-8.23c2.22-2.83,4.08-7.27,1-9.92-3.46-1.19-11,5.32-11.59,8.71a2.7,2.7,0,0,0,2.48,3.11.94.94,0,0,0,.7-.08,6,6,0,0,0,2.5-2.27c.12-.24.21-.58,0-.79Z"/><path class="ffb1b233-976b-4bcd-8828-f238db2407b1" d="M735.06,1376.8s180.73,58.6,201.89,79.51,24.08,19.46,40.32,14.33c5.9-1.86,42.68-20.71,29.66-54.89-16.36-43-47.44-13.58-71.81-29.62s-134.77-40.69-144.51-47.1-14-23.79-39-22.16C739,1317.69,709.55,1361,735.06,1376.8Z"/><g class="a28f0be3-9465-4003-a47b-1f34a6131483"><path class="a2077847-6485-4a92-b183-40c4f0fd7147" d="M732.47,1364.19s180.72,58.59,201.88,79.51,28.22,29.27,44.46,24.15c5.9-1.87,49.21-15.41,25.53-64.71-19.93-41.47-47.45-13.59-71.82-29.63s-134.77-40.68-144.51-47.1-14-23.79-39-22.16C736.38,1305.08,707,1348.38,732.47,1364.19Z"/></g><path class="a7191a22-0ccd-41d4-aeb4-6f277c7e4b29" d="M980.29,1463.18a11.11,11.11,0,0,1-17.35-4.77c-2.92-7.87-5.76-20.12-.63-30.4,8.31-16.65,22.27-25.73,29.66-22.75,13.46,5.42,14.28,28-2.22,48.2A64.52,64.52,0,0,1,980.29,1463.18Z"/><path class="ae92f7e0-1bc4-48c9-a27e-5325b6fb09f9" d="M984.71,1413.44c-8.24,6.2-14.86,15.37-15.82,25.74a30.69,30.69,0,0,0,.61,9.46c.26,1.53.9,3.5,2.11,4.24,4.94,2.33,14.06-7.83,17-11.58,2.82-3.6,7.56-17.39,6-21.64,0,0,0,0-.09,0a4.26,4.26,0,0,0-1.36.53,30.74,30.74,0,0,0-8.94,7.15,27.18,27.18,0,0,0-6.72,13.88,25.8,25.8,0,0,1,5.57-14.81,31,31,0,0,1,9.06-8.14c1.16-.72,2.81-1.4,4-.28,3.11,3.34-.27,13.61-1.51,17.62-1.6,5.33-5.06,9.86-9.07,13.59-13.5,12.84-20.69,7.08-18.93-10.24,1.46-10.84,8.91-20.11,18.11-25.48Z"/><path class="ffb1b233-976b-4bcd-8828-f238db2407b1" d="M733.91,1299.18s166.43,91.63,183.27,116.16,20,23.65,36.89,21.68c6.15-.71,45.82-12.29,39.49-48.31-8-45.31-44-22.29-64.94-42.64s-124.67-65.37-133-73.51-9.29-26-34.09-29.11C748.91,1241.87,711.84,1278.85,733.91,1299.18Z"/><g class="f4da989b-03d5-4ba9-a7fa-0c1da5e4138c"><path class="a2077847-6485-4a92-b183-40c4f0fd7147" d="M732.53,1281.8S899,1373.43,915.79,1398,938,1432,954.9,1430.06c6.15-.72,51.23-5.85,37.27-58.73-11.74-44.48-44-22.29-64.94-42.64s-124.67-65.38-133-73.51-9.29-26-34.09-29.12C747.52,1224.49,710.46,1261.46,732.53,1281.8Z"/></g><path class="a7191a22-0ccd-41d4-aeb4-6f277c7e4b29" d="M955.7,1431.27c-12.16,1.53-12.93-6.66-14.18-14.12-1.38-8.27-2.25-17.75,4.73-26.88,11.3-14.78,27.89-19,34.59-14.68,12.19,7.86,8.75,30.14-11.27,46.92C965.18,1426.18,959.13,1430.84,955.7,1431.27Z"/><path class="ae92f7e0-1bc4-48c9-a27e-5325b6fb09f9" d="M972.17,1382.25c-8.78,4.38-18.37,10-22.34,19.3a15.1,15.1,0,0,0,1.55,13.35c5.45,8.56,18-3.33,22.19-8.37,2.67-3.42,5.65-8,4-12.34-1.64-3.84-3.88-3.8-7.12-1.43-4.94,3.9-8.39,9.52-10.7,15.36,1.46-7,5.91-16.5,12.91-19.46,5-1.85,9,4.22,8.79,8.71-.57,9.28-9.51,17.73-17.12,22.11-3.57,2-9.09,3.57-13,.73-5.66-4.4-7.18-13.44-4.26-19.77,4.65-9.69,15.3-15,25-18.19Z"/><path class="a7191a22-0ccd-41d4-aeb4-6f277c7e4b29" d="M1036,1208.65c10.34-15.9,19-47.41,7.52-75.91-13.16-32.78-29.68-51-66.67-42.83-35.7,7.88-54.15,67.9-28.44,111.28,15.17,25.58,47.53,34.86,73.09,20.4A40.94,40.94,0,0,0,1036,1208.65Z"/><path class="ae92f7e0-1bc4-48c9-a27e-5325b6fb09f9" d="M1029.34,1211.45c10.35-15.9,18.8-40.24,10.34-68.59-11.16-37.39-32.49-58.32-69.48-50.16-35.71,7.88-54.16,67.91-28.44,111.28,15.16,25.58,47.53,34.86,73.09,20.4A41,41,0,0,0,1029.34,1211.45Z"/><path class="b06b1ee7-7b84-44f0-8c31-81688eb943e1" d="M1021.73,1147.63c-11.89-32.33-23.94-43-51.19-37-26.3,5.8-39.89,50-20.95,82a40.9,40.9,0,0,0,15.63,15.13l-.38-56.7,5.41,1.18v-.44l20.19,4.39.37,56a38.82,38.82,0,0,0,12.63-4.49,30.08,30.08,0,0,0,10.67-9.53C1021.73,1186.45,1029.54,1168.88,1021.73,1147.63Z"/><path class="a7191a22-0ccd-41d4-aeb4-6f277c7e4b29" d="M970.25,1151.83v.44l14.77,3.21.39,57.22a39.47,39.47,0,0,0,5.4-.52l-.37-56Z"/><path class="ae92f7e0-1bc4-48c9-a27e-5325b6fb09f9" d="M970.25,1152.27l-5.41-1.18.38,56.7a40.65,40.65,0,0,0,5.42,2.47,39.73,39.73,0,0,0,14.77,2.44l-.39-57.22Z"/><polygon class="ae92f7e0-1bc4-48c9-a27e-5325b6fb09f9" points="941.35 1130.78 1027.76 1151.44 1023.53 1180.21 937.8 1151.27 941.35 1130.78"/><path class="abdc7741-32c5-41b6-bba8-d0c0a6a89cfd" d="M625.56,1110.05l-12.43-4s161.08-65,294.41-198.86l32.24,19.59S823.72,1057.35,726.85,1086.5,625.56,1110.05,625.56,1110.05Z"/><path class="adafa8e7-ff2e-42dc-8be4-7ab1d13110c6" d="M906.23,922.59S768.16,1058.05,617.68,1106l55.63,70.43s223.94-103.09,289.87-170L960.34,936Z"/><polygon class="ae92f7e0-1bc4-48c9-a27e-5325b6fb09f9" points="617.61 1106.07 630.38 1123.43 747.77 1205.69 723.99 1175.49 617.61 1106.07"/><polygon class="f313161f-2db1-4d4f-9c84-ee3d282360f8" points="1096.84 1041.18 1101.52 1387.61 1531.69 1272.71 1526.93 919.97 1096.84 1041.18"/><path class="ffb1b233-976b-4bcd-8828-f238db2407b1" d="M782.55,1225.11s149.78,63.7,175.22,62.07,26.5,1,34.12,13.4c2.77,4.52,16,37.38-11.67,52.17-34.75,18.59-40.15-9.08-64.93-12.41s-108.16-58.26-118.07-59.59-22.44,7.5-37.65-7.57C751.85,1265.53,757.17,1221,782.55,1225.11Z"/><g class="a62cea6c-182e-43e4-b378-3ed278ac5c7d"><path class="a2077847-6485-4a92-b183-40c4f0fd7147" d="M790.3,1228.66S926.41,1295.42,950,1295.2s32.24-1.09,38.8,10.85c2.38,4.34,19.93,36.13-20.63,51.2-34.12,12.68-34.75-18.55-57.55-22.9s-99.85-51.51-109-53.25-21.08,5.83-34.55-8.94C760.28,1264.66,767,1223.54,790.3,1228.66Z"/></g><path class="a7191a22-0ccd-41d4-aeb4-6f277c7e4b29" d="M989.65,1307.11a9.51,9.51,0,0,0-13.9-6.67c-6.31,3.44-15,9.77-17.49,19.3-4,15.43-.07,29.15,6.39,31.38,11.74,4.05,24.94-10,25.66-32.42A56,56,0,0,0,989.65,1307.11Z"/><path class="ae92f7e0-1bc4-48c9-a27e-5325b6fb09f9" d="M964.55,1341.75c-3-8.64-2.66-18.87,2.48-26.75,13-18.16,19.43-4.75,18.41,11.13a24.27,24.27,0,0,1-1.86,6.94c-1.62,3.77-3.39,7.56-6.16,10.65-6.42,6.48-7.1-7.43-6.81-11.29a22.13,22.13,0,0,1,4.83-12.71c-3.58,5.78-4.07,12.85-2.54,19.28a16.3,16.3,0,0,0,1.5,4.09c1.63-.94,2.81-3.33,3.8-5,1.86-3.75,3.89-8,4.3-12.16.21-4,.07-15.41-4.28-16.81-1.11-.19-2.62.7-3.6,1.51a26.56,26.56,0,0,0-5.69,5.71c-5.22,7.21-6.13,16.81-4.38,25.45Z"/><path class="ffb1b233-976b-4bcd-8828-f238db2407b1" d="M802.18,1222l3.23,238.92c0,3.48,1.51,5.65,4.62,6.82l8.67,4,36.21-12-3.52-260.84Z"/><path class="ffb1b233-976b-4bcd-8828-f238db2407b1" d="M781,1203.8S955.8,1278.31,975,1301s22.25,21.53,38.88,17.88c6-1.33,44.36-16.82,34.45-52-12.46-44.29-46-17.77-68.88-35.93s-130.59-52.56-139.73-59.82-11.85-25-36.83-25.55C790.22,1145.28,757,1185.78,781,1203.8Z"/><g class="b7ee64b7-88fe-4982-8f02-87215f4e9690"><path class="a2077847-6485-4a92-b183-40c4f0fd7147" d="M777.92,1186.64s174.76,74.51,194,97.23,25.49,31.67,42.13,28c6-1.32,50.39-11,31.2-62.16-16.13-43.08-46-17.78-68.88-35.93S845.75,1161.24,836.61,1154s-11.84-25-36.83-25.55C787.1,1128.12,753.92,1168.62,777.92,1186.64Z"/></g><path class="a7191a22-0ccd-41d4-aeb4-6f277c7e4b29" d="M1014.94,1313c-12,2.74-13.54-5.34-15.52-12.63-2.21-8.09-4-17.44,2-27.22,9.76-15.84,25.85-21.7,33-18.07,12.91,6.6,11.72,29.11-6.52,47.81C1023.86,1307,1018.31,1312.25,1014.94,1313Z"/><path class="ae92f7e0-1bc4-48c9-a27e-5325b6fb09f9" d="M1026.41,1262.6c-8.29,5.24-17.28,11.76-20.29,21.44a15.08,15.08,0,0,0,2.88,13.12c6.27,8,17.58-5.11,21.24-10.55,2.92-4.37,5.78-11.29.78-15-4.3-2.29-10.07,7.51-11.63,10.82a39.81,39.81,0,0,0-2.7,7.19c.75-7.14,4.23-17,10.89-20.66,4.82-2.34,9.43,3.29,9.62,7.79.37,9.29-7.68,18.59-14.82,23.71-3.35,2.38-8.69,4.46-12.83,2-6.09-3.84-8.48-12.63-6.22-19.25,3.66-10.11,13.72-16.49,23.08-20.6Z"/><path class="ffb1b233-976b-4bcd-8828-f238db2407b1" d="M775.24,1231.17s161.68,13.95,184.45,28,24.73,12.16,36.42,4.23c4.25-2.89,28.73-27.26,8.88-54.77-25-34.59-42-2.07-66-11.15s-119.74-7.74-129.35-11.37-17.82-18.1-37.47-11.43C762.22,1178.07,750.35,1222.53,775.24,1231.17Z"/><g class="b9f4772c-13a1-40a5-9e58-c678c237b1ab"><path class="a2077847-6485-4a92-b183-40c4f0fd7147" d="M767.5,1194.31s5.52,18.54,33.64,22.21c28.64,3.73,78-3.1,129-3.79,8.41-.11,15.31,21.26,23,28.11,16.89,15,31.4,24.8,39.42,19.36,4.24-2.88,36.67-26.82,4.09-65.45-27.4-32.5-41.95-2.08-66-11.16s-119.74-7.74-129.35-11.37-17.82-18.1-37.47-11.43C753.88,1164.17,742.61,1185.68,767.5,1194.31Z"/></g><path class="a7191a22-0ccd-41d4-aeb4-6f277c7e4b29" d="M997.64,1248.67c-7.62,6.73-13.09,4.35-17.79-.85-5.22-5.77-11.17-11.32-11.05-21.58.2-16.6,9.5-27.44,16.36-27.15,12.47.52,21.56,19.33,16.36,41.46C1000.38,1245.4,999.79,1246.77,997.64,1248.67Z"/><path class="ae92f7e0-1bc4-48c9-a27e-5325b6fb09f9" d="M990.18,1224.88c.73-.23,1.16.7,1.45,1.23.5,1.24,1.23,2.86.49,4.13-2.47,4.14-7.3,2-8.8-1.82-2.33-4.7-4.8-12.62-.52-16.93,2.7-2.18,6.91-1.36,9.57.48,6.93,5.26,8.89,15.62,8.59,23.82-.87,13.4-13.31,11.79-21.08,4.77-6.38-6-7.69-15.59-7.15-23.77a14,14,0,0,1,.81-4.23c1.42-3.76,5.64-7.45,9.83-6.32a5.5,5.5,0,0,0-3.78.88c-6.42,3.53-5.08,11.54-4.08,17.58,1.26,7.36,5.53,14.74,13.12,16.71,5.31,1.72,7.94-.07,8.35-5.93a33.75,33.75,0,0,0-2.51-14.91c-1.44-3.29-3.5-6.41-7-7a3.86,3.86,0,0,0-2.68.31c-3.27,2.81-.94,14.26,2.18,16.82a3.2,3.2,0,0,0,4.62-.78,1.15,1.15,0,0,0,.32-.77c.07-1-.34-4.36-1.69-4.22Z"/><path class="a7191a22-0ccd-41d4-aeb4-6f277c7e4b29" d="M905.86,935.06s-175.48,157.11-288.25,171L749.27,1192s273.28-100.55,287.89-194.16S905.86,935.06,905.86,935.06Z"/><path class="abdc7741-32c5-41b6-bba8-d0c0a6a89cfd" d="M738,1185l-14.09-9.74s195.94-81.56,306.32-188.79l20.34,9.52s-116.06,130.53-212.93,159.68S738,1185,738,1185Z"/><path class="adafa8e7-ff2e-42dc-8be4-7ab1d13110c6" d="M1038.3,993.62S916.57,1115.94,738,1181.28l54,68.41s223.95-103.09,289.87-170l-2.83-70.42Z"/><path class="ae92f7e0-1bc4-48c9-a27e-5325b6fb09f9" d="M1043.44,1002.1,824.34,895.75l-.41-30.25s192.31,60.85,205.07,74.35,27.32,22.58,24.41,36S1043.44,1002.1,1043.44,1002.1Z"/><path class="f313161f-2db1-4d4f-9c84-ee3d282360f8" d="M1068.56,1009.41l472.91-101.24-4.56-51s-119.59-205-180.47-187.12-139.51,39.79-163.57,91.18S1060.57,977.05,1068.56,1009.41Z"/><path class="e797019b-329f-4f49-abb5-e511d44a6a01" d="M1118.93,977.06s95.66-207.67,149.53-241.48c44.4-27.87,112.82-23,145.41,16,41,49.11,62.23,137.34,112.19,161.42,38.77,18.69,14.6-65,14.6-65L1372.24,675.51s-113.1-49-144.12,22.58-153.4,281.55-153.4,281.55S1095.25,1030.25,1118.93,977.06Z"/><path class="abdc7741-32c5-41b6-bba8-d0c0a6a89cfd" d="M1290.15,1347.69l121.48-40.27s33-236.26-34.43-250.94-88.73,35.86-94.74,53.52S1290.15,1347.69,1290.15,1347.69Z"/><g class="b20d4a70-8ee8-43cd-8c8e-c3b1f73f0d6a"><path class="f6b2ba51-38f0-4066-9a29-805a2365fb01" d="M1282.69,1068.11l-2.4,285.37s28-1.88,29.87-3.5,1.7-15.3-.23-43.18,7.08-232.73,7.08-232.73,4.61,283.86,7.22,285.45,18.39-8.49,18.39-8.49,9.8-255.45,6.86-265.71l9.92,53-11.76,222.5,30-22.11,3.39-237.3,12.21,254.64,26.13-13.25-6.31-271.3C1412.33,1066.2,1344,1069.14,1282.69,1068.11Z"/></g><path class="adafa8e7-ff2e-42dc-8be4-7ab1d13110c6" d="M1445.34,1168.51c-.69-51.47-6.32-99.34-34.31-123.56-66.67-57.69-147.81,3.68-168,69.16-14.44,46.85-10.38,237.53-10.38,237.53s4.09,4.62,16.89,6.56c1.91.29,11.58-16.25,13.42-21.6,11-.12,12.12,14.47,12.12,14.47s.1-185.16,4.25-215.15c5.21-37.67,33.11-65.22,61-68.85,48.56-6.33,62.93,35.57,66.63,66.64,5.46,45.91,4.68,173.71,4.68,173.71s1.53,1.34,10.74,1.26c3.46,0,14.27-15.6,15.53-18.32,3.7-.73-1.28,7.41,2,3.9C1439.92,1294.26,1446.38,1245,1445.34,1168.51Z"/><path class="a7191a22-0ccd-41d4-aeb4-6f277c7e4b29" d="M1018.48,948.5l-194.55-83s93-148.8,134.52-209.2,115.47-71,151.69-62.87c33.11,7.41,209.1,36.46,209.1,36.46S1148.31,861.12,1018.48,948.5Z"/><path class="ae92f7e0-1bc4-48c9-a27e-5325b6fb09f9" d="M1075.87,715.17,957.47,657.7l-.23-16.35s103.93,32.89,110.83,40.18,14.76,12.21,13.19,19.47A60.26,60.26,0,0,1,1075.87,715.17Z"/><path class="f313161f-2db1-4d4f-9c84-ee3d282360f8" d="M1089.45,719.12,1345,664.41l-2.47-27.56S1277.92,526.08,1245,535.73s-75.39,21.5-88.39,49.27S1085.13,701.63,1089.45,719.12Z"/><path class="e797019b-329f-4f49-abb5-e511d44a6a01" d="M1116.67,701.64s51.7-112.23,80.81-130.5c24-15.06,61-12.41,78.58,8.66,22.18,26.54,33.63,74.22,60.63,87.23,21,10.1,7.89-35.11,7.89-35.11l-91-93.24s-61.12-26.5-77.88,12.2S1092.77,703,1092.77,703,1103.87,730.39,1116.67,701.64Z"/><path class="a7191a22-0ccd-41d4-aeb4-6f277c7e4b29" d="M1062.38,686.21,957.24,641.35s51.72-79.47,72.7-113.05c10-16,44.78-28.27,68.57-23.88,18,3.33,126.41,9.6,126.41,9.6S1132.55,639,1062.38,686.21Z"/><polygon class="adafa8e7-ff2e-42dc-8be4-7ab1d13110c6" points="1098.11 710.25 1098.49 738.96 1349.7 680.93 1348.81 656.14 1098.11 710.25"/><polygon class="ffb1b233-976b-4bcd-8828-f238db2407b1" points="1098.49 738.96 1076.01 725.51 1075.66 699.35 1098.11 710.25 1098.49 738.96"/><path class="abdc7741-32c5-41b6-bba8-d0c0a6a89cfd" d="M1065.68,695.64l-9.23-4.75s34.93-45.63,45.86-71.7,60.41-153.71,178.31-86c0,0-87.92-1.39-96.84,18.8s-83.15,128.23-83.15,128.23Z"/><path class="adafa8e7-ff2e-42dc-8be4-7ab1d13110c6" d="M1098.11,710.25s21.67-31.38,38.68-66.86c17.45-36.4,47.12-91.93,91.72-92,38.06,0,45.36,9,70.94,45.9,7.13,10.29,13.89,20.83,20.43,31.51,5.81,9.49,16,22.95,28.93,27.31l21-13.11s-23.07-15.85-39.68-48.52c-15.78-31.06-46-83.08-113.38-74.34a82.88,82.88,0,0,0-17.5,4.29h0a84,84,0,0,0-17.51,8.73c-9.9,6.49-24.73,17.59-31.92,29.92-1.08,1.85-8.18,12.56-10.32,16.34-11.31,19.9-47.71,103.56-73.82,116.19Z"/><path class="adafa8e7-ff2e-42dc-8be4-7ab1d13110c6" d="M1222.65,571.17s26.95-1.36,30.45,23.73-15.41,35-26,37.49-29.46-3.56-33.1-21S1200.88,573.14,1222.65,571.17Z"/><path class="b919570c-9ef0-4197-942c-035ba7f1af20" d="M1226.83,569.51s27-1.37,30.46,23.72-15.41,35-26,37.5-29.46-3.57-33.1-21S1205.07,571.47,1226.83,569.51Z"/><path class="b06b1ee7-7b84-44f0-8c31-81688eb943e1" d="M1227,577.06c-12.64,1.14-20.27,10.7-21.88,21l44.58-4.85C1246.11,576.09,1227,577.06,1227,577.06Z"/><path class="b06b1ee7-7b84-44f0-8c31-81688eb943e1" d="M1205.35,607.44c2.24,10.74,12.12,15.76,20,16.23l.23-19.91-20.43,2.79C1205.24,606.85,1205.29,607.14,1205.35,607.44Z"/><path class="b06b1ee7-7b84-44f0-8c31-81688eb943e1" d="M1232.3,602.85l.37,19.79c7.25-2.37,17.21-8.77,17.65-22.25Z"/><path class="adafa8e7-ff2e-42dc-8be4-7ab1d13110c6" d="M1225.1,596.94l.29,26.73a17.54,17.54,0,0,0,5-.37c.73-.17,1.51-.39,2.32-.66l-.49-26.32Z"/><polygon class="b919570c-9ef0-4197-942c-035ba7f1af20" points="1204.75 596.51 1250.26 591.57 1251.24 598.63 1202.84 605.24 1204.75 596.51"/><polygon class="b919570c-9ef0-4197-942c-035ba7f1af20" points="1228.37 628.05 1227.28 596.46 1233.76 596.17 1235.73 626.84 1228.37 628.05"/><polygon class="adafa8e7-ff2e-42dc-8be4-7ab1d13110c6" points="1079.15 986.91 1085.3 1046.11 1550.13 938.74 1548.48 892.86 1506.41 892.86 1079.15 986.91"/><path class="abdc7741-32c5-41b6-bba8-d0c0a6a89cfd" d="M1095.13,972.12l441.3-93,12,13.76L1084.58,993S1065.73,971.9,1095.13,972.12Z"/><polygon class="ffb1b233-976b-4bcd-8828-f238db2407b1" points="1085.3 1046.11 1043.7 1021.23 1043.05 972.83 1084.59 993 1085.3 1046.11"/><path class="abdc7741-32c5-41b6-bba8-d0c0a6a89cfd" d="M1024.58,966l-17.08-8.8s64.63-84.43,84.87-132.68,111.78-284.42,329.94-159.06c0,0-162.68-2.57-179.2,34.79s-153.86,237.28-153.86,237.28Z"/><path class="adafa8e7-ff2e-42dc-8be4-7ab1d13110c6" d="M1084.58,993s40.11-58.08,71.58-123.73c32.29-67.36,87.19-170.1,169.72-170.18,70-.07,83.75,16.42,130.34,83.59,13.51,19.48,26.36,39.42,38.73,59.65,10.75,17.55,29.57,42.47,53.53,50.53l38.88-24.25s-42.7-29.34-73.43-89.79c-28.87-56.8-83.76-151.49-205.46-138.07a165,165,0,0,0-37.89,8.87h0a128.44,128.44,0,0,0-27.76,14c-18.75,12.53-50.84,36.36-67.75,62.57l-10,15.9S1080,939.16,1024.58,966Z"/><path class="adafa8e7-ff2e-42dc-8be4-7ab1d13110c6" d="M1317.14,752.92s64.43-3.27,72.82,56.73-36.86,83.69-62.27,89.64-70.44-8.52-79.14-50.21S1265.09,757.61,1317.14,752.92Z"/><path class="b919570c-9ef0-4197-942c-035ba7f1af20" d="M1327.15,749s64.44-3.28,72.82,56.72-36.85,83.69-62.26,89.64-70.44-8.52-79.15-50.2S1275.11,753.64,1327.15,749Z"/><path class="adafa8e7-ff2e-42dc-8be4-7ab1d13110c6" d="M1277.37,818.3,1383.19,805l.21,19-107.8,14.72,0-.26a30.53,30.53,0,0,1-.68-4.57l0-.23Z"/><path class="b06b1ee7-7b84-44f0-8c31-81688eb943e1" d="M1327.58,767c-30.21,2.72-48.45,25.57-52.29,50.3l106.57-11.59C1373.24,764.69,1327.58,767,1327.58,767Z"/><path class="b06b1ee7-7b84-44f0-8c31-81688eb943e1" d="M1275.78,839.63c5.36,25.69,29,37.69,47.93,38.8l.53-47.6-48.85,6.67C1275.51,838.21,1275.63,838.93,1275.78,839.63Z"/><path class="b06b1ee7-7b84-44f0-8c31-81688eb943e1" d="M1340.22,828.65l.89,47.33c17.33-5.68,41.14-21,42.19-53.21Z"/><polygon class="adafa8e7-ff2e-42dc-8be4-7ab1d13110c6" points="1324.44 813.01 1324.24 830.84 1340.22 828.65 1339.93 813.03 1324.44 813.01"/><path class="adafa8e7-ff2e-42dc-8be4-7ab1d13110c6" d="M1382.58,809.85c-.19-1.43-.44-2.8-.72-4.13l-106.57,11.59a62.73,62.73,0,0,0,.1,20.19l48.85-6.67.2-17.81h15.49l.29,15.62,43.08-5.88A74.65,74.65,0,0,0,1382.58,809.85Z"/><path class="adafa8e7-ff2e-42dc-8be4-7ab1d13110c6" d="M1323,814.53l.7,63.9a41.75,41.75,0,0,0,11.85-.88c1.74-.41,3.6-.93,5.55-1.57l-1.18-63Z"/><polygon class="b919570c-9ef0-4197-942c-035ba7f1af20" points="1274.36 813.51 1383.16 801.68 1385.51 818.57 1269.79 834.37 1274.36 813.51"/><polygon class="b919570c-9ef0-4197-942c-035ba7f1af20" points="1330.82 888.91 1328.22 813.37 1343.7 812.68 1348.41 886 1330.82 888.91"/><path class="adafa8e7-ff2e-42dc-8be4-7ab1d13110c6" d="M881.65,410.55s64.44-3.27,72.83,56.72-36.86,83.7-62.27,89.65-70.44-8.52-79.15-50.21S829.61,415.24,881.65,410.55Z"/><path class="b919570c-9ef0-4197-942c-035ba7f1af20" d="M891.67,406.57s64.43-3.27,72.82,56.73S927.63,547,902.22,552.94s-70.44-8.52-79.14-50.2S839.62,411.26,891.67,406.57Z"/><path class="b06b1ee7-7b84-44f0-8c31-81688eb943e1" d="M892.1,424.63c-30.22,2.73-48.46,25.58-52.3,50.3l106.58-11.59C937.76,422.31,892.1,424.63,892.1,424.63Z"/><path class="b06b1ee7-7b84-44f0-8c31-81688eb943e1" d="M840.3,497.26c5.36,25.68,29,37.68,47.92,38.79l.53-47.59-48.84,6.67C840,495.84,840.15,496.55,840.3,497.26Z"/><path class="b06b1ee7-7b84-44f0-8c31-81688eb943e1" d="M904.74,486.28l.88,47.33c17.34-5.69,41.14-21,42.2-53.21Z"/><path class="adafa8e7-ff2e-42dc-8be4-7ab1d13110c6" d="M947.1,467.47c-.2-1.42-.44-2.8-.72-4.13L839.8,474.93a63.07,63.07,0,0,0,.11,20.2l48.84-6.67.2-17.82,15.5,0,.29,15.62,43.08-5.88A75.77,75.77,0,0,0,947.1,467.47Z"/><path class="adafa8e7-ff2e-42dc-8be4-7ab1d13110c6" d="M887.53,472.16l.69,63.89a41.35,41.35,0,0,0,11.85-.87c1.74-.41,3.61-.93,5.55-1.57l-1.17-62.95Z"/><polygon class="b919570c-9ef0-4197-942c-035ba7f1af20" points="838.87 471.14 947.67 459.3 950.03 476.2 834.31 491.99 838.87 471.14"/><polygon class="b919570c-9ef0-4197-942c-035ba7f1af20" points="895.33 546.54 892.74 471 908.22 470.31 912.93 543.63 895.33 546.54"/><path class="b919570c-9ef0-4197-942c-035ba7f1af20" d="M1421.9,1047.74c-64.51-57.73-143-.79-162.54,64.69-13.94,46.84-9.82,245.77-9.82,245.77,27.57,4.7,40.61-10.51,40.61-10.51s.4-179.06,4.4-209c5-37.67,32-65.21,59-68.83,47-6.31,62.29,33.63,65.88,64.7,5.3,45.91,3,174.16,3,174.16s18.17-.51,31-14.6c0,0,2.81-46.29,1.78-122.77C1454.45,1119.84,1449,1072,1421.9,1047.74Z"/><ellipse class="a7191a22-0ccd-41d4-aeb4-6f277c7e4b29" cx="1320.62" cy="1207.2" rx="14.54" ry="12.55" transform="translate(-240.35 332.71) rotate(-13.17)"/><ellipse class="b4b41dac-cc40-429f-911f-022420bbbe43" cx="1315.72" cy="1204.42" rx="5.36" ry="4.63" transform="translate(-239.85 331.52) rotate(-13.17)"/><polygon class="adafa8e7-ff2e-42dc-8be4-7ab1d13110c6" points="815.33 1221.81 818.71 1471.7 868.03 1457.73 864.54 1198.7 815.33 1221.81"/><polygon class="adafa8e7-ff2e-42dc-8be4-7ab1d13110c6" points="737.96 1181.28 740.66 1192.09 777.17 1235.45 791.98 1249.69 782.03 1199.96 737.96 1181.28"/><polygon class="ffb1b233-976b-4bcd-8828-f238db2407b1" points="723.92 1175.3 777 1243.13 791.98 1249.69 737.96 1181.28 723.92 1175.3"/><path class="bf3b7ef6-8e2b-4c14-8987-02ed8e583a87" d="M1006.62,689.92s-62.07,41.2-84.07,99.44c-22.29,59-31.63,91.06-31.63,91.06s28.75-53.87,43.5-93S1006.62,689.92,1006.62,689.92Z"/><path class="bf3b7ef6-8e2b-4c14-8987-02ed8e583a87" d="M1098.65,515.2s-44.69,26.42-62.11,66.15c-17.65,40.25-25.31,62.22-25.31,62.22s22-36.44,33.65-63.11S1098.65,515.2,1098.65,515.2Z"/><path class="bf3b7ef6-8e2b-4c14-8987-02ed8e583a87" d="M1002.12,732.18a296.88,296.88,0,0,0-23.2,29c-9.29,13.31-18.41,29.14-21,42.85L952,834.72s6.9-27.69,17.47-41.11S1002.12,732.18,1002.12,732.18Z"/><path class="bf3b7ef6-8e2b-4c14-8987-02ed8e583a87" d="M895.81,980.59S785.2,1083.87,725.44,1094c0,0,12.76,10.64,99.18-39.81C854.89,1036.53,895.81,980.59,895.81,980.59Z"/><path class="bf3b7ef6-8e2b-4c14-8987-02ed8e583a87" d="M930.31,998.21s-51.6,69.12-84.09,80.86c0,0,8.23,4.67,51.6-32.37C913,1033.73,930.31,998.21,930.31,998.21Z"/><path class="b6121ed0-f8d7-4621-b135-d0c728e804ef" d="M1219.68,1364.65c9.83-26.66-3.25-36.09-2.68-42.83,0,0,22.74,13.7,18.73,31.41l8.43-19.18s-8.16-21.54,4.83-39.78c0,0,2,50.92,11.2,51.64,0,0-3.2-18.2,5.13-24.06,0,0,5.16,26.33,5.83,33.27C1273.65,1380.76,1215,1377.28,1219.68,1364.65Z"/><path class="b6121ed0-f8d7-4621-b135-d0c728e804ef" d="M858.4,1467.62s-3.24-39.84-10.8-43.06c0,0,0,34.23-4.41,37.61s-14.35-21.29-14.35-21.29-5.23,19.12,2.27,26.4S858.4,1467.62,858.4,1467.62Z"/><path class="b6121ed0-f8d7-4621-b135-d0c728e804ef" d="M1434.2,1307.13s-13.72-33.74-8.89-39.47c0,0,14.06,27.85,19,28.79s2.93-23.21,2.93-23.21,12.11,13.41,9,22.42S1434.2,1307.13,1434.2,1307.13Z"/><path class="b6121ed0-f8d7-4621-b135-d0c728e804ef" d="M1454.77,1291.53s10.61-34.85,18-36.26c0,0-6.63,30.49-3.37,34.35s16.91-16.17,16.91-16.17,1,18-7.15,23.07S1454.77,1291.53,1454.77,1291.53Z"/><path class="b6121ed0-f8d7-4621-b135-d0c728e804ef" d="M1754.37,1215.29c-13.92-15.88-5.81-22.77-8-27.3,0,0-14.18,17.9-6.67,29.12l-8.9-6.7s2.31-17.16-11.56-26.36c0,0,5.77,20,2,29,0,0-6.21-11.75-15.79-11.6,0,0,12.85,20.55,11.36,25.4S1761,1222.81,1754.37,1215.29Z"/><path class="b6121ed0-f8d7-4621-b135-d0c728e804ef" d="M720.67,1411.62c-2.82-18.11,6.33-19.39,6.83-23.72,0,0-18.72,6.52-18.43,18.23l-3.41-9.05s9.68-11.5,3.79-24.69c0,0-5.06,17.31-12,22.22,0,0,.91-11.5-6.18-15.84,0,0-.14,21-3.49,23.89S722,1420.19,720.67,1411.62Z"/><path class="b6121ed0-f8d7-4621-b135-d0c728e804ef" d="M402.22,1326c-2.82-18.12,6.33-19.39,6.83-23.72,0,0-18.72,6.52-18.44,18.23l-3.4-9s9.68-11.5,3.78-24.69c0,0-5.05,17.31-12,22.21,0,0,.92-11.5-6.17-15.84,0,0-.14,21-3.49,23.9S403.54,1334.52,402.22,1326Z"/><path class="bf3b7ef6-8e2b-4c14-8987-02ed8e583a87" d="M386.14,1009.29c4-8.9,10.74-23.19,20.39-42.18,11.5-22.66,33.81-39.58,46.8-48-12.15,10.77-33.19,30.78-41.3,46.75C404.65,980.38,393.24,998.42,386.14,1009.29Z"/><path class="bf3b7ef6-8e2b-4c14-8987-02ed8e583a87" d="M441,929.11c-11.21,10.82-23.95,24.6-29.88,36.28-5,9.77-11.76,21.14-17.83,30.83,3.71-7.8,8.39-17.4,14.11-28.66,8.14-16,21.78-29.19,33.6-38.45m21.88-16.92S422.74,933,405.63,966.65c-17.33,34.14-25.08,52.86-25.08,52.86s20.89-30.61,32.37-53.22,50-54.1,50-54.1Z"/><path class="bf3b7ef6-8e2b-4c14-8987-02ed8e583a87" d="M472.21,1041.22c4-8.57,8.79-18.76,14.53-30.44,6.65-13.54,16.61-25.41,26.77-35.11a179,179,0,0,0-21.08,31.3C486.85,1017.62,479.26,1030.13,472.21,1041.22Z"/><path class="bf3b7ef6-8e2b-4c14-8987-02ed8e583a87" d="M550.85,944.2s-47.12,25.18-66.8,65.26c-19.94,40.6-28.8,62.85-28.8,62.85s25.94-37.4,39.83-63.95c20.54-39.26,55.77-64.16,55.77-64.16Z"/><path class="bf3b7ef6-8e2b-4c14-8987-02ed8e583a87" d="M580.42,961.52s-38.27,26.65-49.5,60.92c-11.37,34.72-12.54,52.3-12.54,52.3s14.42-32,22.54-54.81C552.93,986.22,580.42,961.52,580.42,961.52Z"/><path class="bf3b7ef6-8e2b-4c14-8987-02ed8e583a87" d="M580.42,961.52s-38.27,26.65-49.5,60.92c-11.37,34.72-12.54,52.3-12.54,52.3s14.42-32,22.54-54.81c12-33.71,39.5-58.41,39.5-58.41Z"/><path class="bf3b7ef6-8e2b-4c14-8987-02ed8e583a87" d="M426.94,978.15c2.06-6.73,7.21-14.83,15.31-24.1,3.81-4.37,7.63-8.22,10.55-11-5.28,8.53-14.84,23.51-19.83,28.6a48,48,0,0,0-7.16,10.23Z"/><path class="bf3b7ef6-8e2b-4c14-8987-02ed8e583a87" d="M447.1,950.2c-5.08,7.92-11.2,17-14.84,20.71a32.58,32.58,0,0,0-2.63,3.08c2.62-5.64,7.09-12.1,13.37-19.28,1.38-1.58,2.76-3.09,4.1-4.51m10.31-12.8a180,180,0,0,0-15.91,16c-6.48,7.42-13,16.37-15.51,24.46L420.44,996s6-16.25,13.25-23.65,23.72-34.91,23.72-34.91Z"/><polygon class="ffb1b233-976b-4bcd-8828-f238db2407b1" points="431.95 887.07 431.95 837.5 660.81 887.07 660.81 947.44 431.95 887.07"/><path class="a2077847-6485-4a92-b183-40c4f0fd7147" d="M325.89,1150.17s-28.71,259.37-31.49,293.45,43.9,20.94,44,6.78S345,1171.12,345,1171.12Z"/><path class="a2077847-6485-4a92-b183-40c4f0fd7147" d="M336.91,1256.35s102.53-69.66,92.93-150.49c0,0,28.06,95-88.52,177.41C341.32,1283.27,317.37,1271.57,336.91,1256.35Z"/><path class="a2077847-6485-4a92-b183-40c4f0fd7147" d="M332.3,1264.4s-74-36.65-74.95-90.85c0,0-12,62.65,72.41,106.46C329.76,1280,346.58,1272.67,332.3,1264.4Z"/><path class="aa8902d7-203e-4be4-97e9-b966675edc90" d="M335.41,1194.93s-213.14,73-197.79-86.77c0,0-76.05-54.14-43-151.08s103-85.88,83.36-96.39c-68-36.38-40.14-175.84,72.6-145.88,0,0-6.73-107.69,108.19-111,180.07-5.2,130.23,170,130.23,170s128.39,14,50.51,118.45c0,0,130.49,116.43-29.68,201.1C509.83,1093.33,504.66,1264.62,335.41,1194.93Z"/><path class="b6121ed0-f8d7-4621-b135-d0c728e804ef" d="M294.28,1472s4-49.51,13.42-53.52c0,0,0,42.55,5.47,46.75S331,1438.73,331,1438.73s6.51,23.76-2.81,32.81S294.28,1472,294.28,1472Z"/><path class="aa8902d7-203e-4be4-97e9-b966675edc90" d="M400.22,1383.35q2.64-1,5.57-2.12s-18.65-72.94,62.14-84.38c79.93-11.31,86.93,74.88,86.93,74.88s16.74-36.81,54.71-18.92c30.88,13.36,24.75,47.71,7.38,68.09,0,0,65.46,80-114.86,62.63-1.15.24-18.87,3.4-18.87,3.4a122.88,122.88,0,0,1-36.13,1h0A118.06,118.06,0,0,1,383.65,1460l-.5-.43a34.88,34.88,0,0,1-4-4.18C359.29,1431.2,370.21,1395.08,400.22,1383.35Z"/><g class="af4113c0-5c67-43c6-9ffe-fbd0973c1d0c"><path class="a5efa436-468c-4985-af7b-409c6db8ad4c" d="M554.86,1371.73s-42.42-63.75-89.69-37.43c-63.16,35.16-23,67.69-23,67.69s-95.39,12.17-7.26,83.81-137.11-32.57-137.11-32.57l73.8-154.06L495,1238.58l52.41,43.88S560.79,1345.13,554.86,1371.73Z"/></g><g class="a2845f70-4537-4f24-aabb-4a48404f7eb7"><path class="a5efa436-468c-4985-af7b-409c6db8ad4c" d="M251.68,1211.14S118,1175,194.35,1079.44c0,0-115.71-90.45,28.29-195.13,0,0-55.88-72.91-10.54-104.68S295.26,766,295.26,766s-2.18-120.3,103.06-96.71S489,773.78,489,773.78l55.22-154.5L325.33,529.9,25.08,631.45-29.34,869.06l13.78,265.09,155,84.13Z"/></g></svg>