<svg id="f4df2907-0889-4bcf-9a7a-ae3d41c5499a" data-name="Layer 1" xmlns="http://www.w3.org/2000/svg" xmlns:xlink="http://www.w3.org/1999/xlink" viewBox="0 0 2000 2000"><defs><style>.f867aa3b-186e-409f-8585-07ecb422fb3c{fill:none;}.bf9d3d1a-539f-48ee-9518-826d39cb60bb{fill:#aed76a;}.bfc12c5a-d837-420f-a160-eb6a9869bed1{clip-path:url(#be9a5292-ef10-4519-ab74-5b3fc8aa0dfd);}.fc51ac56-7572-4230-b60b-2c45b70d1127{fill:#fecfae;}.bf7a21a0-5e39-4c11-b111-9096456766f6{fill:#4c3b36;}.ffee0171-07c0-481e-bfe0-c7617a8c5ce1{fill:#725b51;}.ec7b2825-535b-4d0c-98e4-557086658821{fill:#ddcbb8;}.b6100e45-4f6b-4861-ae59-66b0e91d4b25{fill:#967266;}.e1cd50dc-077a-4a1a-bab6-7a1329b4d93f{fill:#877874;}.b64c774a-c187-42b0-b356-b3be2bd326e1{fill:#443428;}.adcf173b-c569-45e5-aa19-02a68a561f88{fill:#441c0c;}.aedb2e44-4b00-43da-993c-0d7d073c2004{clip-path:url(#e42fd237-c48c-4a8a-a5b9-7b7dabac7f7f);}.a94b3576-36e1-4b44-90f7-9e234952ff78{fill:#592710;}.e20d01cf-2c8d-4b29-bf61-deccf57746a6{fill:#352820;}.a3ceb8e5-b558-4b8f-bff8-527ec2212b3e{clip-path:url(#f1c7d862-af02-4ff8-9784-a0ca68a844cb);}.e4560297-5617-459d-a2b6-cec78817fabd{clip-path:url(#a93f3cf5-c76a-4bc0-8636-0ccb845d421e);}.b9192bbb-7d5c-4849-82ed-60bfb83c2e88{clip-path:url(#f6a0fb4f-c2e9-4bfc-b22d-844fcb1aae12);}.b057bf65-a0bf-44d6-92ee-5fe9a09beef9{fill:#724e44;}.a7b17682-5216-4738-b9c7-f31d29dc0d37{fill:#1e1713;}.b17e4ff2-f9c4-481d-9ee0-b4ab374b05c7{fill:#a3acaf;}.b17e4ff2-f9c4-481d-9ee0-b4ab374b05c7,.b215c6cf-8818-47dc-9552-2dbf56d6bc80{opacity:0.8;}.a23d30ec-9aef-4edc-9c49-913709dbb23d{fill:#838c8e;}.ad2a174d-5299-4d99-acd8-3588660a6083{fill:#cfe59a;}.fc8e2137-e456-47de-a1e5-c7c97e340a3b{fill:#77a22f;}.abaca7d3-a4c9-43c1-88a0-699c1dca1f25{fill:#2b1009;}.b215c6cf-8818-47dc-9552-2dbf56d6bc80,.e7a1804d-8f36-4daa-9c4d-34dbcf67a693{fill:#b8bfc1;}.b8a5e5c6-4a7e-4870-bff5-26b9242b77b4{fill:#f5ffca;}.bc5e98d4-19e2-457a-a6e0-eca6c157bd76{fill:#a0c45b;}.bcde2325-5b05-4410-b72d-5a9a695d0357{fill:#bce077;}.a26b0e65-1db9-4824-803d-660b402cf39b{fill:#afd86a;}.bffbbf22-8199-4f7f-a035-808957ec5a0d{fill:#ffdf57;}.f3975afe-3b11-4a84-901a-88147399f637{fill:#fff2bb;}.ab29747e-5eaf-4312-aa9d-e088c6db4098{clip-path:url(#ed67536e-2b28-4f54-8298-5054cd8cf76f);}.a5444f13-bf7a-4871-be94-8a7f25affb65{fill:#8abd32;}.f6bddf8d-272a-4ec9-9bc4-6ac0ac2addb1{clip-path:url(#aabc649a-f3b6-446d-937e-447f218fb1ee);}.ae844e74-0f7e-4ced-8524-a7bd53cb75c9{fill:#9b786f;}.b6d1e35c-f9b7-4072-b35c-e0cf76987b5f{clip-path:url(#fc8bf913-8124-4e31-92c9-fa86ffb0be2f);}.bbec1c20-e21c-40ab-8fac-c1a3d87c43a5{clip-path:url(#a1b4ab3e-8ecd-497e-8719-20614c45e6ce);}.ba6cfed3-7500-4915-85eb-10d34477c13b{fill:#8bbc38;}.bec4df84-c9df-4f23-ab42-8cb5a782ffac{clip-path:url(#f97ad09f-25fe-4d77-b86e-111c43ec401f);}.b0a001b7-0631-4e58-8e06-cc8eb3fc4586,.b6104823-b273-4950-83e7-1f9084e0a40c{font-size:145.99px;fill:#737373;font-family:MyriadPro-Regular, Myriad Pro;}.b0a001b7-0631-4e58-8e06-cc8eb3fc4586{letter-spacing:0em;}.ff03e916-0b84-4dc7-926c-3adc015fc55d{letter-spacing:0em;}</style><clipPath id="be9a5292-ef10-4519-ab74-5b3fc8aa0dfd"><path class="f867aa3b-186e-409f-8585-07ecb422fb3c" d="M515.75,1094.77c-95.28-6.19-191.42,15.23-268,62.23-108,66.24-200.73,173.85-109.26,332.63,173.35,300.9,395.18,336.07,775.43,278.12s606.91-291.15,700.88-263,373.65-77.83,247.41-275.27c-64.72-101.22-557.5-368.33-966.42-221.22C684.9,1084.08,573.86,1098.55,515.75,1094.77Z"/></clipPath><clipPath id="e42fd237-c48c-4a8a-a5b9-7b7dabac7f7f"><path class="f867aa3b-186e-409f-8585-07ecb422fb3c" d="M1499.42,428.09s-236.18,112.57-453.72,47.35l48.43,243.33,105.33,37.64,72.94,15.15Z"/></clipPath><clipPath id="f1c7d862-af02-4ff8-9784-a0ca68a844cb"><path class="f867aa3b-186e-409f-8585-07ecb422fb3c" d="M1199.46,756.41,973.41,780.53s-85.22-68.2-96.62-106.22S779.61,370.6,780.85,318s20.74-79.38,20.74-79.38,82.41,139,244.11,236.87c0,0,41.66,127.63,63.22,155.77S1199.46,756.41,1199.46,756.41Z"/></clipPath><clipPath id="a93f3cf5-c76a-4bc0-8636-0ccb845d421e"><path class="f867aa3b-186e-409f-8585-07ecb422fb3c" d="M1199.46,756.41,990.91,783.13s-85.22-68.2-96.61-106.22S797.12,373.2,798.35,320.55s20.74-79.37,20.74-79.37,78.33,52.49,176.35,39.28c0,0,109.42,325.21,131,353.35S1199.46,756.41,1199.46,756.41Z"/></clipPath><clipPath id="f6a0fb4f-c2e9-4bfc-b22d-844fcb1aae12"><path class="f867aa3b-186e-409f-8585-07ecb422fb3c" d="M1182,753.81,973.41,780.53s-85.22-68.2-96.62-106.22S779.61,370.6,780.85,318s20.74-79.38,20.74-79.38,82.41,139,244.11,236.87c0,0,41.66,127.63,63.22,155.77S1182,753.81,1182,753.81Z"/></clipPath><clipPath id="ed67536e-2b28-4f54-8298-5054cd8cf76f"><path class="f867aa3b-186e-409f-8585-07ecb422fb3c" d="M825,1021.67l-56.23,8a77.37,77.37,0,0,1-35.79-3.15c-13.13-4.44-24.64-12.32-11.38-25.39,24.25-23.94,33.5-2.61,33.5-2.61s-18.31-38.91,28.91-52.89c34.29-10.16,42.68,21.21,42.68,21.21,16.71.24,23,9.71,23,9.71,7.69,9.18,6.36,18.48,2.37,26.13A36.37,36.37,0,0,1,825,1021.67Z"/></clipPath><clipPath id="aabc649a-f3b6-446d-937e-447f218fb1ee"><path class="f867aa3b-186e-409f-8585-07ecb422fb3c" d="M473.84,974.84l55.71,11.06a77.2,77.2,0,0,0,35.91-1.21c13.35-3.72,25.27-11,12.74-24.73-22.91-25.22-33.31-4.43-33.31-4.43s20.38-37.85-26-54.37c-33.68-12-43.76,18.87-43.76,18.87-16.7-.66-23.5,8.45-23.5,8.45-8.18,8.74-7.35,18.11-3.79,26A36.39,36.39,0,0,0,473.84,974.84Z"/></clipPath><clipPath id="fc8bf913-8124-4e31-92c9-fa86ffb0be2f"><path class="f867aa3b-186e-409f-8585-07ecb422fb3c" d="M1408.59,1248.82c5-11.62,6.67-25.75-3-39.68,0,0-5.62-3.66-26.63-4,0,0-14.45-72.44-57.54-57-59.37,21.28-34.76,94.44-34.76,94.44s-18.89-45.38-49.36-9c-16.67,19.86,1,50.17,21.57,51.55a81.34,81.34,0,0,0,45,4.76l70.69-12.25C1389,1275.08,1401.8,1264.5,1408.59,1248.82Z"/></clipPath><clipPath id="a1b4ab3e-8ecd-497e-8719-20614c45e6ce"><path class="f867aa3b-186e-409f-8585-07ecb422fb3c" d="M1213.4,1293.8q2.19-1,4.61-2s-17.28-63.15,50-75.08c66.52-11.8,74.37,63.18,74.37,63.18s13.13-32.5,45.28-17.82c26.1,10.89,21.78,41,7.74,59.18,0,0,56.56,68.2-94.51,57.4-1,.23-15.68,3.42-15.68,3.42a98.49,98.49,0,0,1-30.17,1.74h0a96.64,96.64,0,0,1-53.65-22.81l-.42-.36a30,30,0,0,1-3.44-3.55C1180.32,1336.5,1188.6,1304.75,1213.4,1293.8Z"/></clipPath><clipPath id="f97ad09f-25fe-4d77-b86e-111c43ec401f"><rect class="f867aa3b-186e-409f-8585-07ecb422fb3c" x="2226.04" y="-1.35" width="2000" height="2000"/></clipPath></defs><path class="bf9d3d1a-539f-48ee-9518-826d39cb60bb" d="M515.75,1094.77c-95.28-6.19-191.42,15.23-268,62.23-108,66.24-200.73,173.85-109.26,332.63,173.35,300.9,395.18,336.07,775.43,278.12s606.91-291.15,700.88-263,373.65-77.83,247.41-275.27c-64.72-101.22-557.5-368.33-966.42-221.22C684.9,1084.08,573.86,1098.55,515.75,1094.77Z"/><g class="bfc12c5a-d837-420f-a160-eb6a9869bed1"><path class="fc51ac56-7572-4230-b60b-2c45b70d1127" d="M1178.75,1349s528.34-55.64,376.84,247.68l-156.61,95s-7.67-254.54-346.47-283C1052.51,1408.64,1059.62,1338.26,1178.75,1349Z"/></g><polygon class="bf7a21a0-5e39-4c11-b111-9096456766f6" points="415.37 1127.38 419.4 1370.65 676.7 1502.64 750.41 1318.58 672.47 1232.79 415.37 1127.38"/><polygon class="ffee0171-07c0-481e-bfe0-c7617a8c5ce1" points="677.39 1241.42 677.39 1501.25 1355.23 1275.61 1362.77 978.13 677.39 1241.42"/><polygon class="ec7b2825-535b-4d0c-98e4-557086658821" points="1254.1 1156.49 1265.85 1147.36 1351.28 1117.66 1346.9 1126.04 1254.1 1156.49"/><polygon class="b6100e45-4f6b-4861-ae59-66b0e91d4b25" points="1254.1 1156.49 1408.09 1103.73 1420.71 1113.62 1254.1 1182.19 1254.1 1156.49"/><polygon class="e1cd50dc-077a-4a1a-bab6-7a1329b4d93f" points="685.46 1228.88 676.7 1242.81 1249.9 1088.23 1235.93 1078.07 685.46 1228.88"/><polygon class="ffee0171-07c0-481e-bfe0-c7617a8c5ce1" points="1321.05 1056.11 1624.16 990.58 1637.9 708.15 1514.91 457.32 1313.85 694.72 1321.05 1056.11"/><path class="bf7a21a0-5e39-4c11-b111-9096456766f6" d="M1188.32,661.45c18.42,4.29,37.46,2.65,55.89,7.69,22.81,6.17,45.74,11.84,68.5,19.52a12,12,0,0,0,8.34,3.27v364.18l-225.24-72.29,34.14-139V650C1147.31,653.52,1162.74,655.41,1188.32,661.45Z"/><path class="b64c774a-c187-42b0-b356-b3be2bd326e1" d="M1128.61,812l1-54.09,24.72-6.84s2.59,236.81,2,236.75l-.19-24.4.19,24.4c-4.32-.39-15.94-.65-23.36-6.46Z"/><path class="adcf173b-c569-45e5-aa19-02a68a561f88" d="M1499.42,428.09s-236.18,112.57-453.72,47.35l48.43,243.33,105.33,37.64,72.94,15.15Z"/><g class="aedb2e44-4b00-43da-993c-0d7d073c2004"><path class="a94b3576-36e1-4b44-90f7-9e234952ff78" d="M1426.73,434.69h0Z"/><path class="a94b3576-36e1-4b44-90f7-9e234952ff78" d="M1153.29,815.7c.29-4,2-6.37,5.85-7.73a59.51,59.51,0,0,0,13.07-6.1c7.13-4.72,10.37-11.45,11.16-19.64a13.3,13.3,0,0,0-.91-5.37c-1.67-5.2.92-8.55,6.5-9.33a31,31,0,0,0,13.91-5.09c.83-.59,1.76-1.12,2.06-2.09,1.92-6.28,5.28-12.39,2.3-19.3-.6-1.38-.2-2.56,1-4,3.94-4.69,9.21-7,14.68-9,.94-.35,1.86-.73,2.82-1,9.07-2.81,11.2-8.54,12.61-17.29a34,34,0,0,0,0-6c-.15-8.23,2.42-11.51,10.57-13.84,3.34-1,6.75-1.71,9.83-3.5,3.52-2,6.12-4.56,6.24-8.93,0-.82.38-1.63.43-2.45.09-1.66,1.51-3.12.86-4.82s-2.54-1.34-3.73-2.25c-2.93-2.23-3.36-4.13-1.42-7.21a13.43,13.43,0,0,1,9.32-6.08,38.79,38.79,0,0,0,13.33-5.33c2.62-1.66,5.36-8.73,4.45-11.52a2.39,2.39,0,0,0-1.7-1.66c-.81-.23-1.65-.31-2.44-.55-4.55-1.36-5.2-3.32-2.47-7.17a16.07,16.07,0,0,1,4.57-4.54c.89-.55,8.4-1.25,11.42-2l1.19-.45h0l1.69-.68v-.06h.11a46.78,46.78,0,0,0,8-4.14c7.13-4.72,10.37-11.45,11.17-19.65a13.47,13.47,0,0,0-.92-5.36c-1.67-5.2.92-8.56,6.5-9.33a31,31,0,0,0,13.91-5.1c.84-.59,1.77-1.11,2.06-2.08,1.93-6.29,5.28-12.4,2.3-19.3-.6-1.39-.2-2.56,1-4,4-4.69,9.21-6.94,14.69-9,.93-.35,1.86-.73,2.81-1,9.07-2.8,11.21-8.54,12.61-17.29a33.09,33.09,0,0,0,0-6c-.15-8.22,2.43-11.51,10.57-13.84,3.34-.95,6.75-1.71,9.84-3.49,3.51-2,6.11-4.57,6.23-8.93,0-.82.38-1.63.43-2.46.09-1.65,1.51-3.11.86-4.82s-2.54-1.33-3.73-2.24c-2.93-2.24-3.35-4.14-1.42-7.22a13.42,13.42,0,0,1,9.32-6.07A39,39,0,0,0,1420,464.2c2.62-1.66,5.36-8.74,4.45-11.52a2.42,2.42,0,0,0-1.7-1.67c-.8-.22-1.64-.3-2.44-.54-4.55-1.37-5.2-3.32-2.47-7.17a15.94,15.94,0,0,1,4.57-4.54c1.69-1.05,3.4-2.14,4.28-4.06a1.07,1.07,0,0,0,1.36.08l15.94,1.47c0,4.32-3.36,6.56-5.85,9.31a11.61,11.61,0,0,1-2.86,2,2.75,2.75,0,0,0-1.3,3.8c3.9,10-1.29,16.92-7.87,23.32a21.79,21.79,0,0,1-9.69,5.92c-1.9.5-2.39,1.61-1.77,3.74,3.67,12.59-5.55,25.52-14.9,31.09-4.46,2.66-9.43,4-14.71,5.41,2.8,5.39,3.34,10.88.65,16-4.87,9.39-11.51,17.1-22.13,20.35-1.11.34-2.24.62-3.35,1-4.82,1.49-5.07,1.55-4,6.69a17.74,17.74,0,0,1-4.22,16.23,10.28,10.28,0,0,0-1.2,1.6,25.35,25.35,0,0,1-15.89,12.06c-2.17.58-3.08,1.45-2.63,3.81,2,10.39-3.6,17.9-10,24.88a29.59,29.59,0,0,1-10.93,7.71c-1.08.42-2.18,1.21-3.25,1.16-5.09-.22-7.36,2.34-8.06,7.14a11.9,11.9,0,0,1-1,3.35c.17,6.78-4.09,12.09-9.2,17a21.86,21.86,0,0,1-9.69,5.93c-1.9.49-2.39,1.6-1.77,3.73,3.67,12.59-5.55,25.52-14.9,31.09-4.46,2.66-9.43,4-14.72,5.42,2.81,5.39,3.34,10.87.66,16-4.88,9.39-11.51,17.11-22.14,20.35-1.11.34-2.23.63-3.34,1-4.82,1.5-5.08,1.56-4,6.7a17.72,17.72,0,0,1-4.23,16.22,10.79,10.79,0,0,0-1.19,1.61,25.37,25.37,0,0,1-15.89,12c-2.17.58-3.08,1.45-2.63,3.81,2,10.39-3.6,17.9-10,24.89a29.56,29.56,0,0,1-10.92,7.7c-1.08.42-2.19,1.22-3.25,1.17-5.1-.23-7.36,2.33-8.07,7.14-.49,3.36-2.53,6.11-4.68,8.69a21.43,21.43,0,0,1-7.61-1.36C1152.09,826.59,1152.89,821.16,1153.29,815.7Z"/><path class="a94b3576-36e1-4b44-90f7-9e234952ff78" d="M1382.63,400.25h0Z"/><path class="a94b3576-36e1-4b44-90f7-9e234952ff78" d="M1109.19,781.26c.29-4,2.06-6.37,5.85-7.73a59.51,59.51,0,0,0,13.07-6.1c7.13-4.72,10.37-11.45,11.16-19.65a13.29,13.29,0,0,0-.91-5.36c-1.67-5.2.92-8.55,6.5-9.33a31.13,31.13,0,0,0,13.91-5.09c.84-.59,1.77-1.12,2.06-2.09,1.93-6.28,5.28-12.39,2.3-19.3-.6-1.39-.2-2.56,1-4,4-4.7,9.21-6.95,14.68-9,.94-.35,1.87-.73,2.82-1,9.07-2.81,11.21-8.54,12.61-17.3a33,33,0,0,0,0-6c-.15-8.23,2.43-11.51,10.57-13.84,3.34-1,6.75-1.71,9.84-3.5,3.51-2,6.11-4.56,6.23-8.93,0-.82.38-1.63.43-2.46.09-1.65,1.51-3.11.86-4.82s-2.54-1.33-3.73-2.24c-2.93-2.23-3.35-4.14-1.42-7.22a13.42,13.42,0,0,1,9.32-6.07,38.79,38.79,0,0,0,13.33-5.33c2.62-1.66,5.36-8.74,4.45-11.52a2.42,2.42,0,0,0-1.7-1.67c-.8-.22-1.65-.3-2.44-.54-4.55-1.36-5.2-3.32-2.47-7.17a16.07,16.07,0,0,1,4.57-4.54c.89-.55,8.41-1.25,11.42-2l1.2-.45h0l1.69-.68v-.06h.11a46.78,46.78,0,0,0,8-4.14c7.14-4.72,10.37-11.45,11.17-19.65a13.29,13.29,0,0,0-.91-5.36c-1.68-5.2.92-8.56,6.5-9.33a30.94,30.94,0,0,0,13.9-5.1c.84-.59,1.77-1.12,2.07-2.09,1.92-6.28,5.27-12.39,2.3-19.29-.6-1.39-.2-2.56,1-4,3.94-4.69,9.21-6.95,14.68-9,.93-.35,1.86-.73,2.81-1,9.07-2.8,11.21-8.54,12.62-17.29a35,35,0,0,0,0-6c-.16-8.22,2.42-11.51,10.56-13.84,3.34-.95,6.76-1.71,9.84-3.49,3.52-2,6.11-4.57,6.23-8.93,0-.82.38-1.63.43-2.46.1-1.65,1.52-3.12.87-4.82s-2.55-1.33-3.73-2.24c-2.93-2.24-3.36-4.14-1.43-7.22a13.5,13.5,0,0,1,9.33-6.08,39.13,39.13,0,0,0,13.33-5.32c2.62-1.66,5.35-8.74,4.44-11.52a2.42,2.42,0,0,0-1.7-1.67c-.8-.22-1.64-.31-2.44-.54-4.55-1.37-5.2-3.32-2.46-7.17a15.78,15.78,0,0,1,4.56-4.54c1.69-1.05,3.4-2.14,4.28-4.06a1.07,1.07,0,0,0,1.36.08l15.94,1.47c0,4.32-3.36,6.56-5.85,9.31a11.43,11.43,0,0,1-2.86,2,2.75,2.75,0,0,0-1.3,3.8c3.9,10-1.28,16.92-7.87,23.32a21.83,21.83,0,0,1-9.69,5.92c-1.9.49-2.38,1.61-1.76,3.74,3.66,12.59-5.55,25.51-14.9,31.09-4.46,2.66-9.44,4-14.72,5.41,2.8,5.39,3.34,10.88.65,16.05-4.87,9.39-11.51,17.1-22.13,20.35-1.11.34-2.24.62-3.34,1-4.82,1.49-5.08,1.55-4,6.69a17.75,17.75,0,0,1-4.23,16.23,11,11,0,0,0-1.2,1.6,25.39,25.39,0,0,1-15.88,12.06c-2.18.57-3.09,1.45-2.63,3.81,2,10.39-3.6,17.9-10,24.88a29.41,29.41,0,0,1-10.92,7.7c-1.08.43-2.19,1.22-3.26,1.17-5.09-.22-7.35,2.34-8.06,7.14a12,12,0,0,1-1,3.35c.18,6.78-4.09,12.09-9.2,17.05a21.81,21.81,0,0,1-9.69,5.93c-1.9.49-2.39,1.6-1.77,3.73,3.67,12.59-5.55,25.52-14.9,31.09-4.46,2.66-9.43,4-14.71,5.41,2.8,5.4,3.33,10.88.65,16-4.87,9.39-11.51,17.1-22.13,20.35-1.11.34-2.24.63-3.35,1-4.82,1.5-5.07,1.56-4,6.7a17.72,17.72,0,0,1-4.22,16.22,9.91,9.91,0,0,0-1.2,1.61,25.37,25.37,0,0,1-15.89,12c-2.17.58-3.08,1.45-2.63,3.81,2,10.39-3.6,17.9-10,24.88A29.59,29.59,0,0,1,1131,782c-1.08.42-2.18,1.21-3.25,1.17-5.09-.23-7.36,2.33-8.07,7.14-.49,3.36-2.53,6.11-4.68,8.69a21.51,21.51,0,0,1-7.61-1.36C1108,792.15,1108.79,786.72,1109.19,781.26Z"/><path class="a94b3576-36e1-4b44-90f7-9e234952ff78" d="M1327.14,373.4h0Z"/><path class="a94b3576-36e1-4b44-90f7-9e234952ff78" d="M1053.7,754.4c.29-4,2.06-6.37,5.85-7.73a59.47,59.47,0,0,0,13.07-6.09c7.13-4.72,10.37-11.45,11.16-19.65a13.29,13.29,0,0,0-.91-5.36c-1.67-5.2.92-8.56,6.5-9.33a31,31,0,0,0,13.91-5.1c.83-.58,1.76-1.11,2.06-2.08,1.93-6.29,5.28-12.39,2.3-19.3-.6-1.39-.2-2.56,1-4,4-4.69,9.21-6.94,14.68-9,.94-.35,1.86-.73,2.82-1,9.07-2.81,11.21-8.55,12.61-17.3a34,34,0,0,0,0-6c-.15-8.22,2.43-11.51,10.57-13.83,3.34-1,6.75-1.72,9.84-3.5,3.51-2,6.11-4.57,6.23-8.93,0-.82.38-1.63.43-2.46.09-1.65,1.51-3.11.86-4.82s-2.54-1.33-3.73-2.24c-2.93-2.24-3.36-4.14-1.42-7.22a13.42,13.42,0,0,1,9.32-6.07,39,39,0,0,0,13.33-5.33c2.62-1.66,5.36-8.74,4.45-11.52a2.42,2.42,0,0,0-1.7-1.67c-.8-.22-1.65-.3-2.44-.54-4.55-1.37-5.2-3.32-2.47-7.17a15.94,15.94,0,0,1,4.57-4.54c.89-.55,8.4-1.25,11.42-2l1.2-.45h0l1.69-.67v-.06h.11a46.84,46.84,0,0,0,8-4.15c7.13-4.71,10.37-11.45,11.17-19.64a13.27,13.27,0,0,0-.92-5.36c-1.67-5.21.93-8.56,6.5-9.34a31,31,0,0,0,13.91-5.09c.84-.59,1.77-1.12,2.06-2.09,1.93-6.28,5.28-12.39,2.3-19.29-.6-1.39-.2-2.56,1-4,3.94-4.69,9.2-6.95,14.68-9,.93-.35,1.86-.72,2.81-1,9.07-2.81,11.21-8.54,12.62-17.29a35,35,0,0,0,0-6c-.16-8.22,2.42-11.51,10.56-13.84,3.34-1,6.76-1.71,9.84-3.5,3.52-2,6.11-4.56,6.23-8.92,0-.83.38-1.64.43-2.46.1-1.66,1.51-3.12.86-4.82s-2.54-1.34-3.73-2.24c-2.92-2.24-3.35-4.14-1.42-7.22a13.51,13.51,0,0,1,9.32-6.08,39.1,39.1,0,0,0,13.34-5.32c2.61-1.66,5.35-8.74,4.44-11.52a2.41,2.41,0,0,0-1.7-1.67c-.8-.23-1.64-.31-2.44-.55-4.55-1.36-5.2-3.31-2.46-7.17a16,16,0,0,1,4.56-4.54c1.69-1,3.4-2.13,4.28-4a1.07,1.07,0,0,0,1.36.08l15.94,1.46c0,4.33-3.36,6.57-5.85,9.32a11.69,11.69,0,0,1-2.86,2,2.74,2.74,0,0,0-1.3,3.8c3.9,10-1.29,16.92-7.87,23.32a21.83,21.83,0,0,1-9.69,5.92c-1.9.49-2.38,1.6-1.76,3.73,3.66,12.59-5.55,25.52-14.9,31.1-4.46,2.66-9.44,4-14.72,5.41,2.8,5.39,3.34,10.88.65,16-4.87,9.39-11.51,17.11-22.13,20.36-1.11.34-2.24.62-3.35,1-4.82,1.5-5.07,1.56-4,6.7a17.72,17.72,0,0,1-4.22,16.23,11,11,0,0,0-1.2,1.6,25.39,25.39,0,0,1-15.88,12.06c-2.18.57-3.09,1.45-2.64,3.81,2,10.39-3.6,17.9-10,24.88a29.49,29.49,0,0,1-10.92,7.7c-1.08.43-2.19,1.22-3.26,1.17-5.09-.23-7.36,2.34-8.06,7.14a11.83,11.83,0,0,1-1,3.34c.17,6.79-4.09,12.09-9.2,17.06a21.79,21.79,0,0,1-9.69,5.92c-1.9.5-2.39,1.61-1.77,3.74,3.67,12.59-5.55,25.52-14.9,31.09-4.46,2.66-9.43,4-14.71,5.41,2.8,5.39,3.33,10.88.65,16-4.88,9.39-11.51,17.1-22.13,20.35-1.11.34-2.24.62-3.35,1-4.82,1.5-5.08,1.55-4,6.69A17.75,17.75,0,0,1,1116.1,705a10.89,10.89,0,0,0-1.19,1.6A25.35,25.35,0,0,1,1099,718.7c-2.17.58-3.08,1.45-2.63,3.81,2,10.39-3.6,17.9-10,24.88a29.47,29.47,0,0,1-10.92,7.71c-1.08.42-2.19,1.21-3.25,1.17-5.09-.23-7.36,2.33-8.07,7.13-.49,3.37-2.53,6.11-4.68,8.69a21.24,21.24,0,0,1-7.61-1.35C1052.5,765.3,1053.3,759.87,1053.7,754.4Z"/><path class="a94b3576-36e1-4b44-90f7-9e234952ff78" d="M1280.45,350.43h0Z"/><path class="a94b3576-36e1-4b44-90f7-9e234952ff78" d="M1007,731.44c.29-4,2.06-6.37,5.85-7.73a59.51,59.51,0,0,0,13.07-6.1c7.13-4.72,10.37-11.45,11.16-19.64a13.3,13.3,0,0,0-.91-5.37c-1.67-5.2.92-8.55,6.5-9.33a31,31,0,0,0,13.91-5.09c.84-.59,1.77-1.12,2.06-2.09,1.93-6.28,5.28-12.39,2.3-19.3-.6-1.38-.2-2.56,1-4,4-4.69,9.21-7,14.69-9,.93-.35,1.86-.73,2.81-1,9.07-2.81,11.21-8.54,12.61-17.29a33.09,33.09,0,0,0,0-6c-.15-8.23,2.43-11.51,10.57-13.84,3.34-1,6.75-1.71,9.84-3.5,3.51-2,6.11-4.56,6.23-8.93,0-.82.38-1.63.43-2.45.09-1.66,1.51-3.12.86-4.82s-2.54-1.34-3.73-2.25c-2.93-2.23-3.35-4.13-1.42-7.21a13.43,13.43,0,0,1,9.32-6.08,38.79,38.79,0,0,0,13.33-5.33c2.62-1.66,5.36-8.73,4.45-11.52a2.39,2.39,0,0,0-1.7-1.66c-.8-.23-1.64-.31-2.44-.55-4.55-1.36-5.2-3.32-2.47-7.17a16.2,16.2,0,0,1,4.57-4.54c.89-.55,8.41-1.25,11.42-2l1.2-.45h0l1.69-.68v-.06h.11a46.78,46.78,0,0,0,8-4.14c7.14-4.72,10.37-11.45,11.17-19.65a13.29,13.29,0,0,0-.91-5.36c-1.68-5.2.92-8.56,6.5-9.33a30.94,30.94,0,0,0,13.9-5.1c.84-.59,1.77-1.11,2.07-2.08,1.92-6.29,5.27-12.4,2.3-19.3-.6-1.39-.2-2.56,1-4,3.94-4.69,9.21-6.95,14.68-9,.93-.35,1.86-.73,2.81-1,9.07-2.8,11.21-8.54,12.62-17.29a34,34,0,0,0,0-6c-.16-8.22,2.42-11.51,10.56-13.84,3.34-.95,6.76-1.71,9.84-3.49,3.52-2,6.11-4.57,6.24-8.93,0-.82.37-1.63.42-2.46.1-1.65,1.52-3.11.87-4.82s-2.55-1.33-3.73-2.24c-2.93-2.24-3.36-4.14-1.43-7.22a13.46,13.46,0,0,1,9.33-6.07,39.15,39.15,0,0,0,13.33-5.33c2.62-1.66,5.35-8.74,4.44-11.52a2.42,2.42,0,0,0-1.7-1.67c-.8-.22-1.64-.3-2.44-.54-4.55-1.37-5.2-3.32-2.46-7.17a15.78,15.78,0,0,1,4.56-4.54c1.69-1.05,3.4-2.14,4.28-4.06a1.07,1.07,0,0,0,1.36.08l15.94,1.47c0,4.32-3.36,6.56-5.84,9.31a11.67,11.67,0,0,1-2.87,2,2.75,2.75,0,0,0-1.3,3.8c3.9,10-1.28,16.92-7.87,23.32a21.74,21.74,0,0,1-9.69,5.92c-1.9.5-2.38,1.61-1.76,3.74,3.66,12.59-5.55,25.52-14.9,31.09-4.46,2.66-9.44,4-14.72,5.41,2.8,5.39,3.34,10.88.65,16.05-4.87,9.39-11.51,17.1-22.13,20.35-1.11.34-2.24.62-3.34,1-4.82,1.49-5.08,1.55-4,6.69a17.75,17.75,0,0,1-4.23,16.23,11,11,0,0,0-1.2,1.6,25.36,25.36,0,0,1-15.88,12.06c-2.18.58-3.09,1.45-2.63,3.81,2,10.39-3.6,17.9-10,24.88a29.33,29.33,0,0,1-10.92,7.7c-1.08.43-2.19,1.22-3.25,1.17-5.1-.22-7.36,2.34-8.07,7.14a11.9,11.9,0,0,1-1,3.35c.18,6.78-4.09,12.09-9.2,17a21.81,21.81,0,0,1-9.69,5.93c-1.9.49-2.39,1.6-1.77,3.73,3.67,12.59-5.55,25.52-14.9,31.09-4.46,2.66-9.43,4-14.71,5.42,2.8,5.39,3.33,10.87.65,16-4.87,9.39-11.51,17.11-22.13,20.35-1.11.34-2.24.63-3.35,1-4.82,1.5-5.07,1.56-4,6.7a17.72,17.72,0,0,1-4.22,16.22,10.86,10.86,0,0,0-1.2,1.61,25.37,25.37,0,0,1-15.89,12.05c-2.17.58-3.08,1.45-2.63,3.81,2,10.39-3.6,17.9-10,24.89a29.68,29.68,0,0,1-10.93,7.7c-1.08.42-2.18,1.22-3.25,1.17-5.09-.23-7.36,2.33-8.07,7.14-.49,3.36-2.53,6.11-4.68,8.69a21.51,21.51,0,0,1-7.61-1.36C1005.81,742.33,1006.62,736.9,1007,731.44Z"/><path class="a94b3576-36e1-4b44-90f7-9e234952ff78" d="M1249.78,312.58h0Z"/><path class="a94b3576-36e1-4b44-90f7-9e234952ff78" d="M976.34,693.58c.29-4,2-6.37,5.85-7.73a59.69,59.69,0,0,0,13.07-6.09c7.13-4.72,10.37-11.45,11.16-19.65a13.29,13.29,0,0,0-.91-5.36c-1.67-5.2.92-8.56,6.5-9.33a31,31,0,0,0,13.91-5.1c.83-.59,1.76-1.11,2.06-2.08,1.92-6.29,5.28-12.4,2.3-19.3-.6-1.39-.2-2.56,1-4,3.94-4.69,9.21-6.94,14.68-9,.94-.35,1.86-.73,2.81-1,9.07-2.8,11.21-8.54,12.62-17.29a34,34,0,0,0,0-6c-.15-8.22,2.42-11.51,10.57-13.84,3.34-1,6.75-1.71,9.83-3.49,3.52-2,6.12-4.57,6.24-8.93,0-.82.38-1.63.42-2.46.1-1.65,1.52-3.11.87-4.82s-2.54-1.33-3.73-2.24c-2.93-2.24-3.36-4.14-1.42-7.22a13.42,13.42,0,0,1,9.32-6.07,39,39,0,0,0,13.33-5.33c2.62-1.66,5.36-8.74,4.45-11.52a2.42,2.42,0,0,0-1.71-1.67c-.8-.22-1.64-.3-2.43-.54-4.56-1.37-5.2-3.32-2.47-7.17a15.82,15.82,0,0,1,4.57-4.54c.89-.55,8.4-1.25,11.42-2l1.19-.46h0l1.7-.67v-.06h.11a46.84,46.84,0,0,0,8-4.15c7.13-4.72,10.37-11.45,11.16-19.64a13.26,13.26,0,0,0-.91-5.36c-1.67-5.21.92-8.56,6.5-9.34a31,31,0,0,0,13.91-5.09c.84-.59,1.76-1.12,2.06-2.09,1.93-6.28,5.28-12.39,2.3-19.29-.6-1.39-.2-2.56,1-4,4-4.69,9.21-6.95,14.68-9,.94-.35,1.87-.72,2.82-1,9.07-2.81,11.21-8.54,12.61-17.29a34,34,0,0,0,0-6c-.15-8.22,2.43-11.51,10.57-13.84,3.34-1,6.75-1.71,9.84-3.5,3.51-2,6.11-4.56,6.23-8.92,0-.83.38-1.64.43-2.46.09-1.66,1.51-3.12.86-4.82s-2.54-1.34-3.73-2.25c-2.93-2.23-3.35-4.13-1.42-7.21a13.46,13.46,0,0,1,9.32-6.08,38.79,38.79,0,0,0,13.33-5.33c2.62-1.65,5.36-8.73,4.45-11.51a2.41,2.41,0,0,0-1.7-1.67c-.8-.23-1.65-.31-2.44-.55-4.55-1.36-5.2-3.31-2.47-7.17a16.2,16.2,0,0,1,4.57-4.54c1.69-1,3.4-2.13,4.28-4.05a1.09,1.09,0,0,0,1.36.08l15.94,1.46c0,4.33-3.36,6.57-5.85,9.32a11.88,11.88,0,0,1-2.86,2,2.74,2.74,0,0,0-1.3,3.8c3.9,10-1.29,16.92-7.87,23.32a21.88,21.88,0,0,1-9.69,5.92c-1.9.49-2.39,1.6-1.77,3.73,3.67,12.59-5.55,25.52-14.9,31.1-4.46,2.66-9.43,4-14.71,5.41,2.8,5.39,3.33,10.88.65,16-4.87,9.39-11.51,17.11-22.13,20.36-1.11.33-2.24.62-3.35,1-4.82,1.5-5.07,1.56-4,6.7a17.72,17.72,0,0,1-4.23,16.23,10.89,10.89,0,0,0-1.19,1.6A25.34,25.34,0,0,1,1158,472.66c-2.17.58-3.08,1.46-2.63,3.82,2,10.38-3.6,17.9-10,24.88a29.56,29.56,0,0,1-10.93,7.7c-1.08.43-2.18,1.22-3.25,1.17-5.09-.23-7.36,2.34-8.07,7.14a11.5,11.5,0,0,1-1,3.34c.17,6.79-4.09,12.09-9.2,17.06a21.85,21.85,0,0,1-9.69,5.92c-1.9.5-2.39,1.61-1.77,3.74,3.67,12.59-5.55,25.52-14.9,31.09-4.46,2.66-9.43,4-14.72,5.41,2.81,5.39,3.34,10.88.66,16.05-4.88,9.39-11.51,17.1-22.14,20.35-1.11.34-2.23.62-3.34,1-4.82,1.49-5.08,1.55-4,6.69a17.75,17.75,0,0,1-4.23,16.23,11,11,0,0,0-1.2,1.6,25.31,25.31,0,0,1-15.88,12.06c-2.17.58-3.09,1.45-2.63,3.81,2,10.39-3.6,17.9-10,24.88a29.47,29.47,0,0,1-10.92,7.71c-1.08.42-2.19,1.21-3.25,1.16-5.1-.22-7.36,2.34-8.07,7.14-.5,3.37-2.53,6.11-4.69,8.69a21.4,21.4,0,0,1-7.6-1.35C975.14,704.48,975.94,699,976.34,693.58Z"/></g><path class="e20d01cf-2c8d-4b29-bf61-deccf57746a6" d="M1122.93,812l1-54.09,24.72-6.84s2.59,236.3,2,236.23l-.2-23.88.2,23.88c-4.33-.38-15.95-.13-23.37-5.94Z"/><polygon class="e1cd50dc-077a-4a1a-bab6-7a1329b4d93f" points="573.35 986.51 1171.61 984.4 1194.48 993.36 1194.65 989.28 887.28 1074.75 573.35 986.51"/><polygon class="bf7a21a0-5e39-4c11-b111-9096456766f6" points="859.5 1045.1 621.65 984.74 602.86 688.3 745.85 399.92 890.74 791.56 859.5 1045.1"/><path class="ffee0171-07c0-481e-bfe0-c7617a8c5ce1" d="M903.06,1052.23l246.25-64.86,24.63-234.44L943.53,785.11s-38,15-38.85,35.55S903.06,1052.23,903.06,1052.23Z"/><path class="b6100e45-4f6b-4861-ae59-66b0e91d4b25" d="M1150.68,1000.77,1144.1,999l10.43-248,12.43.52S1174.55,948.17,1150.68,1000.77Z"/><polygon class="ec7b2825-535b-4d0c-98e4-557086658821" points="1196.83 752.75 1178.3 995.64 1150.68 1000.77 1166.96 751.49 1196.83 752.75"/><path class="b6100e45-4f6b-4861-ae59-66b0e91d4b25" d="M1602,989.75l-6.58-1.82L1607,717.05l12.44.53S1625.88,937.14,1602,989.75Z"/><polygon class="ec7b2825-535b-4d0c-98e4-557086658821" points="1648.16 741.72 1623.09 984.62 1602.01 989.75 1618.29 740.47 1648.16 741.72"/><path class="adcf173b-c569-45e5-aa19-02a68a561f88" d="M976.75,800.25l222.71-34.54v-9.3s-181.75-9.84-215.31,24.12S976.75,800.25,976.75,800.25Z"/><path class="a94b3576-36e1-4b44-90f7-9e234952ff78" d="M1199.46,756.41,973.41,780.53s-85.22-68.2-96.62-106.22S779.61,370.6,780.85,318s20.74-79.38,20.74-79.38,82.41,139,244.11,236.87c0,0,41.66,127.63,63.22,155.77S1199.46,756.41,1199.46,756.41Z"/><path class="adcf173b-c569-45e5-aa19-02a68a561f88" d="M1067.8,496.36c-3.59,1.75-7,.06-10.45-.75a12.44,12.44,0,0,1-3-1.4,2.73,2.73,0,0,0-3.76.53c-6.47,7.06-14.65,5.87-23,3.37a21.9,21.9,0,0,1-9.41-5.09c-1.29-1.27-2.44-1.2-3.92.15-8.76,7.94-23.77,6.06-32.73,1.08-4.28-2.37-7.7-5.67-11.32-9.19-3.18,4.36-7.49,7-13,7-10.06,0-19.54-2-27.16-8.87-.8-.72-1.56-1.48-2.36-2.19-3.47-3.13-3.64-3.3-7.42-.39a17.67,17.67,0,0,1-15.43,3.31,11,11,0,0,0-1.89-.27,25.76,25.76,0,0,1-17.37-7.4c-1.49-1.45-2.64-1.8-4.39-.49-7.7,5.76-16.53,4.48-25.29,2.38a30,30,0,0,1-11.46-5.33c-.85-.66-2-1.2-2.48-2-2.17-4-5.35-4.75-9.66-3.35-3,1-6.25.52-9.39-.1a18,18,0,0,1-2.41-6.43c4.81-1.73,9.7-3.31,14.42-5.22a8.12,8.12,0,0,1,9.13,1.39,58.72,58.72,0,0,0,11.12,7.64c7.22,3.6,14.31,3.37,21.49.66a12,12,0,0,0,4-2.88c3.55-3.4,7.54-2.76,10.76,1.24a30,30,0,0,0,10.68,8.7,4.7,4.7,0,0,0,2.69.75c6.11-1.06,12.74-.95,17.09-6.05.88-1,2-1.2,3.75-.85,5.73,1.14,10,4.3,14.27,7.71.72.58,1.47,1.14,2.15,1.76,6.54,5.88,12.29,5.21,20.21,2.75a32.53,32.53,0,0,0,5-2.45c6.76-3.45,10.68-2.79,16.39,2.56,2.34,2.2,4.55,4.53,7.46,6.19,3.32,1.9,6.62,2.88,10.31,1.21.69-.32,1.53-.37,2.24-.67,1.41-.6,3.28-.09,4.4-1.29s-.07-2.51.13-3.79c.5-3.18,1.89-4.28,5.34-4a13.53,13.53,0,0,1,9.37,4.74,37.86,37.86,0,0,0,10.6,8.16c2.59,1.35,9.74.6,11.63-1.24a2,2,0,0,0,.59-2c-.18-.71-.5-1.4-.67-2.11-1-4.07.34-5.37,4.81-4.81a16.42,16.42,0,0,1,5.89,1.69,10.26,10.26,0,0,0,5.36,1.66h0a.94.94,0,0,0,.56,1.09Z"/><path class="adcf173b-c569-45e5-aa19-02a68a561f88" d="M854.4,516.4a8,8,0,0,1,9.39.81,58.71,58.71,0,0,0,11.81,7.29c7.58,3.3,14.79,2.54,21.93-.87a12.74,12.74,0,0,0,3.93-3.35c3.39-3.87,7.49-3.48,11,.53a30.41,30.41,0,0,0,11.42,8.45,4.61,4.61,0,0,0,2.79.6c6.16-1.58,12.91-1.94,17-7.68.82-1.15,2-1.41,3.76-1.18,5.91.8,10.5,3.84,15,7.15.78.56,1.57,1.11,2.31,1.71,7,5.76,12.84,4.63,20.76,1.43a33.51,33.51,0,0,0,4.88-2.95c6.67-4.17,10.7-3.75,16.86,1.51,2.52,2.16,4.92,4.48,8,6,3.5,1.77,6.93,2.57,10.57.52.69-.38,1.54-.5,2.24-.87,1.41-.74,3.35-.34,4.41-1.69s-.23-2.66-.11-4c.31-3.4,1.65-4.68,5.18-4.67a13.44,13.44,0,0,1,9.84,4.36,38.5,38.5,0,0,0,11.32,7.88c2.72,1.24,10-.08,11.77-2.17A2.15,2.15,0,0,0,1071,533c-.24-.74-.61-1.44-.83-2.18-1.19-4.06-.08-5.58,4-5.49v19.27c-5.84,5.2-13.23,4.47-20.83,2.68a21.73,21.73,0,0,1-9.91-4.72c-1.39-1.25-2.56-1.09-4,.45-8.42,9.07-23.83,8.17-33.27,3.55-4.51-2.21-8.2-5.46-12.11-8.93-3,4.86-7.19,8-12.82,8.4-10.25.78-20-.65-28.23-7.42-.86-.71-1.68-1.46-2.54-2.16-3.74-3.06-3.92-3.23-7.58.13a17.64,17.64,0,0,1-15.52,4.65,10.4,10.4,0,0,0-1.93-.15,25.5,25.5,0,0,1-18.17-6.59c-1.61-1.42-2.8-1.71-4.5-.19-7.48,6.68-16.56,6-25.61,4.37a29.75,29.75,0,0,1-12-4.81c-.91-.64-2.14-1.13-2.65-2-2.47-4.12-5.75-4.65-10.06-2.84-3,1.26-6.33,1-9.57.58a19.56,19.56,0,0,1-2.85-6.66C844.84,520.81,849.71,518.77,854.4,516.4Z"/><path class="ec7b2825-535b-4d0c-98e4-557086658821" d="M919.12,829.21l-15,228.5-18.22,4.75s-11.59-98-7.86-135.17,12.75-135.73,12.75-135.73Z"/><g class="a3ceb8e5-b558-4b8f-bff8-527ec2212b3e"><g class="e4560297-5617-459d-a2b6-cec78817fabd"><path class="adcf173b-c569-45e5-aa19-02a68a561f88" d="M1116.64,597.11c-3.14,2.5-6.71,1.35-10.14,1.13a10.94,10.94,0,0,1-3.1-.93,2.54,2.54,0,0,0-3.51,1.25c-5,8.58-13,8.83-21.49,7.74a20.2,20.2,0,0,1-9.89-3.61c-1.46-1.1-2.55-.81-3.74.87-7,9.93-21.74,10.7-31.18,7.13-4.51-1.71-8.36-4.54-12.43-7.57-2.3,5.15-6,8.71-11.28,9.74-9.64,1.88-19.07,1.51-27.57-4.33-.88-.61-1.74-1.26-2.63-1.87-3.87-2.63-4.06-2.79-7.18,1a16.44,16.44,0,0,1-14.23,6.29,10.41,10.41,0,0,0-1.85.06,23.52,23.52,0,0,1-17.93-4.58c-1.68-1.24-2.84-1.4-4.29.29-6.39,7.45-15.08,7.72-23.83,7.12a27.22,27.22,0,0,1-11.91-3.49c-.93-.54-2.14-.88-2.72-1.68-2.78-3.83-6-4-9.85-1.74-2.73,1.58-5.9,1.69-9,1.61a19.91,19.91,0,0,1-3.41-6.31c4.32-2.69,8.73-5.24,12.92-8.11,3.08-2.1,5.82-2.18,9-.21a55.12,55.12,0,0,0,12,6c7.55,2.45,14.3.92,20.72-3.24a12.44,12.44,0,0,0,3.37-3.76c2.81-4.21,6.74-4.27,10.53-.66a28.8,28.8,0,0,0,11.73,7.16,4.15,4.15,0,0,0,2.71.29c5.67-2.23,12-3.32,15.34-9.47.66-1.24,1.74-1.62,3.45-1.58,5.68.16,10.36,2.68,15,5.48.8.48,1.61.93,2.37,1.45,7.28,5,12.68,3.21,19.85-.82a31.34,31.34,0,0,0,4.31-3.47c5.89-4.85,9.76-4.88,16.16-.31,2.62,1.87,5.14,3.92,8.22,5.13,3.51,1.38,6.84,1.8,10.08-.63.61-.46,1.41-.67,2-1.11,1.25-.88,3.13-.7,4-2.15s-.5-2.62-.53-4c-.07-3.42,1.07-4.82,4.42-5.2a12.51,12.51,0,0,1,9.8,3.27,36.08,36.08,0,0,0,11.57,6.6c2.71.95,9.43-1.15,10.93-3.42a2.23,2.23,0,0,0,.23-2.2c-.3-.71-.73-1.37-1-2.08-1.64-4.1-.6-5.69,3.78-5.93a15,15,0,0,1,5.94.69c1.73.63,3.52,1.24,5.43.77h0a1,1,0,0,0,.73,1Z"/><path class="adcf173b-c569-45e5-aa19-02a68a561f88" d="M1148.27,656.38c-3,2.66-6.63,1.71-10.07,1.68a10.67,10.67,0,0,1-3.14-.76,2.55,2.55,0,0,0-3.44,1.44c-4.51,8.85-12.53,9.54-21,8.91a20.23,20.23,0,0,1-10.08-3.07c-1.51-1-2.58-.67-3.68,1.08-6.47,10.3-21.12,11.88-30.75,8.83-4.59-1.46-8.59-4.08-12.82-6.88-2,5.27-5.49,9-10.73,10.35-9.52,2.4-19,2.55-27.76-2.81-.92-.57-1.81-1.17-2.73-1.73-4-2.42-4.21-2.56-7.12,1.35a16.48,16.48,0,0,1-13.86,7.07,9.5,9.5,0,0,0-1.85.15,23.48,23.48,0,0,1-18.15-3.59c-1.74-1.15-2.91-1.24-4.27.53-6,7.79-14.63,8.53-23.41,8.41a27.21,27.21,0,0,1-12.07-2.83c-1-.48-2.2-.76-2.82-1.53-3-3.67-6.16-3.67-9.92-1.2-2.64,1.73-5.8,2-8.92,2.11a19.94,19.94,0,0,1-3.75-6.11c4.16-2.93,8.42-5.72,12.45-8.81,3-2.27,5.69-2.5,9-.71a55.08,55.08,0,0,0,12.29,5.31c7.66,2,14.33.14,20.5-4.36a12.31,12.31,0,0,0,3.16-3.94c2.58-4.36,6.5-4.63,10.48-1.24a28.9,28.9,0,0,0,12.11,6.51,4.26,4.26,0,0,0,2.72.14c5.54-2.54,11.84-4,14.8-10.3.59-1.27,1.65-1.71,3.36-1.76,5.68-.16,10.49,2.11,15.28,4.65.82.43,1.65.84,2.44,1.32,7.54,4.56,12.83,2.51,19.77-1.91a31.24,31.24,0,0,0,4.12-3.7c5.61-5.17,9.48-5.41,16.12-1.2,2.72,1.73,5.35,3.63,8.49,4.67,3.57,1.18,6.93,1.43,10-1.18.58-.49,1.37-.74,2-1.22,1.2-.95,3.09-.87,3.87-2.37s-.64-2.58-.74-4c-.25-3.41.8-4.88,4.13-5.43a12.5,12.5,0,0,1,10,2.72,36,36,0,0,0,11.91,6c2.77.8,9.36-1.67,10.73-4a2.24,2.24,0,0,0,.11-2.21c-.34-.69-.8-1.33-1.12-2-1.86-4-.91-5.65,3.45-6.13a14.81,14.81,0,0,1,6,.37c1.77.53,3.59,1,5.47.47h0a1,1,0,0,0,.78,1Z"/><path class="adcf173b-c569-45e5-aa19-02a68a561f88" d="M1185.77,715.11c-2.9,2.77-6.56,2-10,2.06a10.77,10.77,0,0,1-3.17-.64,2.54,2.54,0,0,0-3.38,1.57c-4.17,9-12.16,10-20.68,9.69a20.16,20.16,0,0,1-10.18-2.68c-1.55-1-2.61-.57-3.64,1.21-6.08,10.54-20.66,12.66-30.4,10-4.64-1.28-8.73-3.75-13.07-6.39-1.82,5.34-5.15,9.22-10.33,10.74-9.42,2.76-18.85,3.27-27.85-1.76-.94-.53-1.85-1.1-2.79-1.62-4.1-2.27-4.31-2.4-7.07,1.61a16.43,16.43,0,0,1-13.58,7.59,9.44,9.44,0,0,0-1.84.22,23.52,23.52,0,0,1-18.28-2.9c-1.78-1.09-3-1.13-4.24.69-5.68,8-14.3,9.08-23.08,9.29A27.38,27.38,0,0,1,970,751.39c-1-.45-2.22-.68-2.87-1.43-3.12-3.55-6.29-3.43-10-.82-2.58,1.83-5.72,2.23-8.83,2.44a19.76,19.76,0,0,1-4-6c4-3.08,8.2-6,12.11-9.27,2.87-2.38,5.59-2.71,8.94-1.05a55.64,55.64,0,0,0,12.47,4.85c7.74,1.75,14.33-.41,20.33-5.14a12.29,12.29,0,0,0,3-4c2.41-4.46,6.32-4.87,10.42-1.63a28.88,28.88,0,0,0,12.35,6,4.16,4.16,0,0,0,2.72,0c5.44-2.74,11.69-4.42,14.4-10.84.55-1.3,1.59-1.78,3.29-1.89,5.68-.37,10.57,1.71,15.45,4.06.83.41,1.68.78,2.49,1.23,7.7,4.28,12.92,2,19.68-2.65a30.72,30.72,0,0,0,4-3.85c5.41-5.38,9.27-5.76,16.06-1.8,2.78,1.62,5.48,3.42,8.66,4.34,3.62,1,7,1.17,10-1.55.57-.52,1.34-.8,1.92-1.29,1.17-1,3.06-1,3.79-2.52s-.74-2.56-.9-3.94c-.38-3.4.62-4.9,3.93-5.59a12.48,12.48,0,0,1,10,2.35,36.14,36.14,0,0,0,12.13,5.51c2.79.69,9.29-2,10.57-4.42a2.23,2.23,0,0,0,0-2.21c-.37-.68-.85-1.29-1.2-2-2-3.92-1.12-5.61,3.22-6.25a14.83,14.83,0,0,1,6,.14c1.79.46,3.62.91,5.48.26h0a1,1,0,0,0,.82,1Z"/></g></g><g class="b9192bbb-7d5c-4849-82ed-60bfb83c2e88"><g class="e4560297-5617-459d-a2b6-cec78817fabd"><path class="adcf173b-c569-45e5-aa19-02a68a561f88" d="M1026.06,340.56c-3.7,1.44-6.75-.7-9.93-1.91a10.81,10.81,0,0,1-2.66-1.79,2.52,2.52,0,0,0-3.69.15c-7.25,6.66-14.94,4.53-22.61,1a20.12,20.12,0,0,1-8.31-6.34c-1.05-1.46-2.17-1.51-3.79-.27-9.57,7.34-23.72,3.74-31.62-2.42-3.76-2.93-6.57-6.75-9.54-10.81-3.69,4.2-8.21,6.48-13.53,5.9-9.68-1-18.5-4.17-24.82-12.19-.66-.84-1.28-1.71-1.95-2.55-2.89-3.63-3-3.83-7.07-1.21a16.3,16.3,0,0,1-15.32,1.78,10.9,10.9,0,0,0-1.78-.49,23.31,23.31,0,0,1-15.62-9.6c-1.22-1.67-2.27-2.16-4.14-1-8.25,5.18-16.55,2.88-24.66-.26a27.13,27.13,0,0,1-10.24-6.8c-.72-.79-1.77-1.47-2.09-2.4-1.5-4.44-4.45-5.53-8.8-4.54-3,.7-6.08-.13-9-1.12a19.85,19.85,0,0,1-1.38-7c4.88-1.27,9.8-2.4,14.61-3.88,3.54-1.08,6.15-.35,8.58,2.45a55.17,55.17,0,0,0,9.58,9.17c6.42,4.54,13.27,5.08,20.56,3a12.19,12.19,0,0,0,4.29-2.57c3.91-3.17,7.64-2.06,10.17,2.47a28.41,28.41,0,0,0,9,10.22,4.13,4.13,0,0,0,2.47,1.07c6-.44,12.38.4,17.31-4.45,1-1,2.13-1,3.73-.48,5.33,1.82,9,5.58,12.59,9.59.61.69,1.25,1.36,1.82,2.07,5.42,6.84,11,6.77,19,5.06a31.69,31.69,0,0,0,5.11-2c7-2.87,10.67-1.76,15.38,4.45,1.93,2.54,3.72,5.22,6.28,7.27,2.91,2.33,6,3.72,9.73,2.37.71-.26,1.52-.22,2.25-.46,1.45-.47,3.17.26,4.42-.86s.3-2.62.68-3.95c.94-3.25,2.43-4.25,5.71-3.62a12.35,12.35,0,0,1,8.31,6,36,36,0,0,0,9,9.66c2.3,1.69,9.28,1.68,11.36,0a2.23,2.23,0,0,0,.86-2c-.07-.77-.28-1.52-.34-2.28-.35-4.35,1.11-5.56,5.32-4.5a14.63,14.63,0,0,1,5.41,2.4c1.46,1.1,3,2.21,4.92,2.33h0a1,1,0,0,0,.38,1.19Z"/><path class="adcf173b-c569-45e5-aa19-02a68a561f88" d="M1040.46,399.08c-4,1.55-7.27-.75-10.7-2.06a11.48,11.48,0,0,1-2.87-1.93,2.73,2.73,0,0,0-4,.16c-7.8,7.18-16.09,4.89-24.36,1.1a21.69,21.69,0,0,1-8.95-6.82c-1.13-1.58-2.33-1.63-4.08-.3-10.31,7.91-25.56,4-34.07-2.6-4.06-3.17-7.08-7.28-10.28-11.66-4,4.53-8.85,7-14.58,6.37-10.43-1.14-19.94-4.5-26.75-13.15-.71-.9-1.38-1.84-2.09-2.74-3.12-3.91-3.26-4.13-7.63-1.3a17.54,17.54,0,0,1-16.5,1.92,9.85,9.85,0,0,0-1.91-.53,25.15,25.15,0,0,1-16.84-10.35c-1.31-1.8-2.45-2.33-4.46-1.06-8.88,5.57-17.83,3.1-26.57-.29a29.19,29.19,0,0,1-11-7.32c-.78-.85-1.91-1.59-2.25-2.59-1.62-4.78-4.8-6-9.49-4.89-3.29.75-6.55-.14-9.71-1.21a21.23,21.23,0,0,1-1.48-7.51c5.25-1.38,10.56-2.59,15.74-4.18,3.81-1.17,6.63-.39,9.24,2.63a59.32,59.32,0,0,0,10.32,9.88c6.92,4.9,14.3,5.47,22.16,3.27a13.13,13.13,0,0,0,4.62-2.77c4.21-3.41,8.24-2.22,11,2.66a30.69,30.69,0,0,0,9.69,11,4.55,4.55,0,0,0,2.67,1.16c6.5-.48,13.34.43,18.65-4.8,1.07-1.05,2.3-1.1,4-.52,5.75,2,9.72,6,13.57,10.34.66.74,1.34,1.46,2,2.23,5.85,7.37,11.91,7.29,20.5,5.45a33.88,33.88,0,0,0,5.51-2.17c7.54-3.09,11.5-1.89,16.57,4.79,2.08,2.75,4,5.63,6.76,7.84,3.14,2.51,6.41,4,10.49,2.55.76-.27,1.64-.23,2.42-.49,1.56-.5,3.42.28,4.76-.93s.32-2.82.74-4.25c1-3.51,2.61-4.58,6.15-3.9a13.34,13.34,0,0,1,9,6.43A38.6,38.6,0,0,0,1006,387c2.48,1.83,10,1.81,12.24,0a2.36,2.36,0,0,0,.93-2.17c-.08-.82-.31-1.62-.37-2.44-.37-4.7,1.2-6,5.74-4.85a15.91,15.91,0,0,1,5.83,2.58c1.57,1.19,3.2,2.38,5.3,2.51h0a1.07,1.07,0,0,0,.42,1.29Q1038.28,391.45,1040.46,399.08Z"/><path class="adcf173b-c569-45e5-aa19-02a68a561f88" d="M1052.46,455.14c-3.78,1.47-6.89-.71-10.15-2a11.45,11.45,0,0,1-2.72-1.82,2.58,2.58,0,0,0-3.77.15c-7.4,6.8-15.26,4.63-23.1,1a20.58,20.58,0,0,1-8.49-6.47c-1.08-1.5-2.22-1.55-3.87-.28-9.78,7.5-24.25,3.82-32.31-2.47-3.85-3-6.72-6.9-9.75-11.05-3.77,4.29-8.39,6.62-13.83,6-9.89-1.07-18.9-4.26-25.37-12.46-.67-.86-1.3-1.75-2-2.6-3-3.72-3.09-3.92-7.23-1.24a16.67,16.67,0,0,1-15.66,1.82,10.1,10.1,0,0,0-1.81-.5,23.88,23.88,0,0,1-16-9.81c-1.24-1.71-2.32-2.21-4.23-1-8.42,5.29-16.9,2.94-25.19-.27a27.71,27.71,0,0,1-10.47-6.95c-.74-.8-1.81-1.5-2.13-2.45-1.53-4.54-4.55-5.65-9-4.64-3.11.71-6.21-.14-9.2-1.15a20.2,20.2,0,0,1-1.41-7.12c5-1.31,10-2.46,14.93-4,3.61-1.11,6.28-.36,8.77,2.5a55.7,55.7,0,0,0,9.78,9.37c6.56,4.64,13.56,5.19,21,3.1a12.37,12.37,0,0,0,4.39-2.63c4-3.23,7.81-2.1,10.39,2.52a29.11,29.11,0,0,0,9.19,10.45,4.27,4.27,0,0,0,2.53,1.1c6.16-.45,12.65.4,17.69-4.56,1-1,2.17-1,3.81-.48,5.45,1.85,9.22,5.7,12.87,9.8.62.7,1.27,1.38,1.85,2.11,5.55,7,11.3,6.92,19.44,5.17a32.16,32.16,0,0,0,5.22-2.06c7.15-2.93,10.91-1.79,15.72,4.55,2,2.6,3.8,5.33,6.41,7.43,3,2.39,6.08,3.8,9.94,2.42.73-.26,1.56-.22,2.3-.46,1.48-.48,3.25.26,4.52-.89s.3-2.68.7-4c1-3.32,2.48-4.34,5.83-3.7a12.67,12.67,0,0,1,8.5,6.1,36.81,36.81,0,0,0,9.2,9.87c2.35,1.73,9.48,1.71,11.61,0a2.27,2.27,0,0,0,.88-2.06c-.08-.78-.29-1.54-.35-2.32-.36-4.45,1.13-5.68,5.44-4.6a15,15,0,0,1,5.53,2.46c1.49,1.12,3,2.25,5,2.37h0a1,1,0,0,0,.39,1.22Z"/></g></g><polygon class="b057bf65-a0bf-44d6-92ee-5fe9a09beef9" points="952.75 789.29 990.91 783.13 956.35 824.93 919.12 829.21 904.7 755.68 952.75 789.29"/><path class="ec7b2825-535b-4d0c-98e4-557086658821" d="M788.57,208.94l31.21,23.78S756.9,458.87,990.91,783.13c0,0-23.37,9.13-38.16,6.16-5.23-1-26.82-6.12-30.12-19.26s-74.74-105.6-74.74-105.6l-70.46-213L765.37,290.64,776,230.07Z"/><path class="b057bf65-a0bf-44d6-92ee-5fe9a09beef9" d="M742.73,426.87S654,690.45,573.6,761.8l-27.54,6.6S665.88,588,670.4,558.17s62.79-180.62,62.79-180.62Z"/><path class="b6100e45-4f6b-4861-ae59-66b0e91d4b25" d="M952.74,789.29l-11.06,14.15-5.3,5.92-17.26,19.85s-7.61-6.76-19.84-20.77C857.88,761,763.52,630.52,732,397.9c0,0-85.69,269.31-186,370.5l-12.12-20.73L529.89,741l-10.81-17.79s54.1-33.1,175.55-363c0,0,24.52-114.5,24.33-144.11l69.61-7.18S743.43,504.51,952.74,789.29Z"/><path class="ec7b2825-535b-4d0c-98e4-557086658821" d="M805.9,741.34l-60.44-57.65s-7.22-7.84-24.08,5.95,69.45,71.07,69.45,71.07Z"/><path class="b057bf65-a0bf-44d6-92ee-5fe9a09beef9" d="M787.05,750.89l18.85-9.55L794.61,852.43s-18.24,10.44-32.22,11.29S787.05,750.89,787.05,750.89Z"/><path class="b6100e45-4f6b-4861-ae59-66b0e91d4b25" d="M789.44,756.69l-12.83,95.87a13,13,0,0,1-14.22,11.16l-76.22-8.23a13,13,0,0,1-11.5-11.75L666,744.58a17.1,17.1,0,0,1,6.21-14.73l49.18-40.21a12.18,12.18,0,0,1,16.73,1.26l47,52A17.16,17.16,0,0,1,789.44,756.69Z"/><path class="a7b17682-5216-4738-b9c7-f31d29dc0d37" d="M773.75,765.22,764.15,833a9.53,9.53,0,0,1-10.54,7.91l-56.44-5.75a9.35,9.35,0,0,1-8.52-8.3l-6.33-70.13a11.89,11.89,0,0,1,4.61-10.42l36.47-28.48a9.32,9.32,0,0,1,12.39.87l34.8,36.74A11.78,11.78,0,0,1,773.75,765.22Z"/><polygon class="b6100e45-4f6b-4861-ae59-66b0e91d4b25" points="732.16 709.86 729.53 848.5 720.66 846.22 724.62 707.49 732.16 709.86"/><polygon class="b6100e45-4f6b-4861-ae59-66b0e91d4b25" points="780.38 785.28 673.86 779.42 675.56 770.62 782.16 777.8 780.38 785.28"/><path class="b6100e45-4f6b-4861-ae59-66b0e91d4b25" d="M1436.48,698.48l52.89-43s6.38-5.91,19.22,6.39-61.09,53.38-61.09,53.38Z"/><path class="b6100e45-4f6b-4861-ae59-66b0e91d4b25" d="M1451.21,707.47l-14.73-9,2.07,91.14s14.17,9.68,25.49,11.26S1451.21,707.47,1451.21,707.47Z"/><path class="ec7b2825-535b-4d0c-98e4-557086658821" d="M1448.89,712l4.29,78.84a10.58,10.58,0,0,0,10.86,10l62.56-1.81a10.57,10.57,0,0,0,10.12-8.82l13.43-80.16a14,14,0,0,0-4.12-12.38l-37.44-35.88a9.94,9.94,0,0,0-13.7-.05l-41.63,39.31A14,14,0,0,0,1448.89,712Z"/><path class="a7b17682-5216-4738-b9c7-f31d29dc0d37" d="M1461.12,720l3.46,55.81a7.78,7.78,0,0,0,8.07,7.11l46.31-1.06a7.61,7.61,0,0,0,7.46-6.2l9.65-56.68a9.69,9.69,0,0,0-3.08-8.77l-27.85-25.52a7.61,7.61,0,0,0-10.15-.09l-30.68,27.67A9.62,9.62,0,0,0,1461.12,720Z"/><polygon class="ec7b2825-535b-4d0c-98e4-557086658821" points="1498.51 677.6 1491.77 790.61 1499.13 789.31 1504.8 676.14 1498.51 677.6"/><polygon class="ec7b2825-535b-4d0c-98e4-557086658821" points="1454.43 735.88 1541.51 737.95 1540.69 730.67 1453.46 729.68 1454.43 735.88"/><path class="b6100e45-4f6b-4861-ae59-66b0e91d4b25" d="M988.77,860.63l52.89-43s6.38-5.92,19.22,6.38-61.08,53.39-61.08,53.39Z"/><path class="b6100e45-4f6b-4861-ae59-66b0e91d4b25" d="M1003.5,869.61l-14.73-9,2.07,91.14s14.17,9.67,25.5,11.25S1003.5,869.61,1003.5,869.61Z"/><path class="ec7b2825-535b-4d0c-98e4-557086658821" d="M1001.19,874.18l4.29,78.85a10.57,10.57,0,0,0,10.86,10l62.56-1.81a10.56,10.56,0,0,0,10.12-8.82l13.42-80.15a14,14,0,0,0-4.11-12.39L1060.88,824a10,10,0,0,0-13.7-.05l-41.63,39.32A14,14,0,0,0,1001.19,874.18Z"/><path class="a7b17682-5216-4738-b9c7-f31d29dc0d37" d="M1013.41,882.13l3.46,55.81a7.79,7.79,0,0,0,8.08,7.11l46.3-1.06a7.64,7.64,0,0,0,7.47-6.21l9.65-56.67a9.69,9.69,0,0,0-3.09-8.78l-27.85-25.52a7.6,7.6,0,0,0-10.14-.08l-30.68,27.67A9.58,9.58,0,0,0,1013.41,882.13Z"/><polygon class="ec7b2825-535b-4d0c-98e4-557086658821" points="1050.81 839.74 1044.06 952.75 1051.42 951.46 1057.1 838.29 1050.81 839.74"/><polygon class="ec7b2825-535b-4d0c-98e4-557086658821" points="1006.73 898.03 1093.8 900.09 1092.98 892.82 1005.76 891.83 1006.73 898.03"/><path class="ec7b2825-535b-4d0c-98e4-557086658821" d="M1221.06,561.44l42.57-19,7.52-77.12a11.92,11.92,0,0,0-10.07-12.73l-33.51-5.19S1215,484.7,1217,501.26,1221.06,561.44,1221.06,561.44Z"/><path class="b6100e45-4f6b-4861-ae59-66b0e91d4b25" d="M1221.06,561.44l6.51-114-20.3,2.13A11.35,11.35,0,0,0,1197.14,460l-2.83,35.73Z"/><polygon class="b6100e45-4f6b-4861-ae59-66b0e91d4b25" points="897.23 791.83 885.85 1062.45 859.16 1053.21 871.18 767.27 897.23 791.83"/><path class="ec7b2825-535b-4d0c-98e4-557086658821" d="M1343.8,747.13l-11,310.24-18.43,7.89s-11.58-98-7.85-135.16,8.87-220.62,8.87-220.62Z"/><polygon class="b6100e45-4f6b-4861-ae59-66b0e91d4b25" points="1321.05 762.84 1314.4 1065.26 1287.72 1056.02 1287.72 774.16 1321.05 762.84"/><polygon class="bf7a21a0-5e39-4c11-b111-9096456766f6" points="573.35 986.51 570.43 1056.03 882.49 1162.31 887.28 1074.75 573.35 986.51"/><polygon class="ffee0171-07c0-481e-bfe0-c7617a8c5ce1" points="887.28 1074.75 882.26 1166.65 1191.45 1065.45 1194.48 993.36 887.28 1074.75"/><polygon class="e1cd50dc-077a-4a1a-bab6-7a1329b4d93f" points="677.39 1444.37 547.75 1476.17 318.92 1369.74 420.36 1347.27 677.39 1444.37"/><polygon class="ffee0171-07c0-481e-bfe0-c7617a8c5ce1" points="676.8 1502.59 545.04 1540.48 547.75 1476.17 677.39 1444.37 676.8 1502.59"/><path class="bf7a21a0-5e39-4c11-b111-9096456766f6" d="M545,1540.48,325.4,1422.15a10.24,10.24,0,0,1-6.47-10v-42.45l228.83,106.43Z"/><path class="b057bf65-a0bf-44d6-92ee-5fe9a09beef9" d="M396.72,1229.2l1.26-30.15a16.66,16.66,0,0,1,13.8-15.71l35.94-6.25h0a19.43,19.43,0,0,1,1.5,16.35l-.33.9-31.68,5.6,1.5,30.18S405.6,1234.12,396.72,1229.2Z"/><path class="b057bf65-a0bf-44d6-92ee-5fe9a09beef9" d="M473.37,1260.35l1.3-30.91a17.06,17.06,0,0,1,14.14-16.1l36.85-6.41h0a20,20,0,0,1,1.29,17.45l-.09.23-32.49,5.74,1.55,31S482.47,1265.4,473.37,1260.35Z"/><path class="b057bf65-a0bf-44d6-92ee-5fe9a09beef9" d="M564.91,1284.46l1.34-31.75a17.53,17.53,0,0,1,14.52-16.54l37.85-6.58.11.23a23.18,23.18,0,0,1,1.12,17.93h0l-33.36,5.89,1.58,31.79S574.27,1289.64,564.91,1284.46Z"/><path class="b17e4ff2-f9c4-481d-9ee0-b4ab374b05c7" d="M391.59,1230.85s-1.09,37.36-6.61,44.82-58.49,49.65-7.36,91.57c0,0,27.14,19.9,50.5,3,21.47-15.51,37.78-29.53,18-70.36a176.41,176.41,0,0,0-12-19.61c-4.7-6.46-10.51-18-7.08-47.32Z"/><path class="a23d30ec-9aef-4edc-9c49-913709dbb23d" d="M424.46,1227.66a3.51,3.51,0,0,1,4.28,1.46c.83,1.51.31,3.62-5.78,5.69-11.38,3.87-32.41,1.68-34.1-5-.49-2,.85-2.54,2.16-2.67a5.73,5.73,0,0,1,3,.54C397.24,1229.18,408.7,1233.45,424.46,1227.66Z"/><path class="ad2a174d-5299-4d99-acd8-3588660a6083" d="M443.75,1309s-33.72-18.54-73.5-2.14l29.32,15.93Z"/><path class="fc8e2137-e456-47de-a1e5-c7c97e340a3b" d="M443.75,1309s5,64.27-40.63,62.93-32.87-65.07-32.87-65.07S403.48,1323.6,443.75,1309Z"/><path class="b17e4ff2-f9c4-481d-9ee0-b4ab374b05c7" d="M466.09,1262s-1.2,41.18-7.28,49.4-64.47,54.72-8.12,100.92c0,0,29.91,21.94,55.66,3.33,23.67-17.1,41.63-32.55,19.82-77.55A194.22,194.22,0,0,0,513,1316.44c-5.19-7.12-11.58-19.84-7.8-52.16Z"/><path class="a23d30ec-9aef-4edc-9c49-913709dbb23d" d="M502.31,1258.44a3.85,3.85,0,0,1,4.72,1.61c.92,1.66.35,4-6.37,6.26-12.54,4.26-35.72,1.85-37.58-5.47-.55-2.16.94-2.81,2.38-2.95a6.49,6.49,0,0,1,3.33.6C472.31,1260.11,484.94,1264.82,502.31,1258.44Z"/><path class="ad2a174d-5299-4d99-acd8-3588660a6083" d="M523.57,1348.12s-37.16-20.44-81-2.37l32.32,17.56Z"/><path class="fc8e2137-e456-47de-a1e5-c7c97e340a3b" d="M523.57,1348.12s5.56,70.83-44.77,69.36-36.23-71.73-36.23-71.73S479.19,1364.17,523.57,1348.12Z"/><path class="bf9d3d1a-539f-48ee-9518-826d39cb60bb" d="M443.75,1309s5.2,58.68-40.46,57.35-33-59.49-33-59.49S403.52,1322.23,443.75,1309Z"/><path class="bf9d3d1a-539f-48ee-9518-826d39cb60bb" d="M523.57,1348.12s5.77,63.6-44.56,62.13-36.44-64.5-36.44-64.5S479.24,1362.4,523.57,1348.12Z"/><path class="b17e4ff2-f9c4-481d-9ee0-b4ab374b05c7" d="M557,1286.06s-1.31,44.72-7.91,53.64-70,59.42-8.81,109.58c0,0,32.47,23.82,60.43,3.62,25.7-18.57,45.2-35.35,21.52-84.21a209.43,209.43,0,0,0-14.36-23.46c-5.62-7.74-12.57-21.54-8.46-56.64Z"/><path class="a23d30ec-9aef-4edc-9c49-913709dbb23d" d="M596.28,1282.25a4.19,4.19,0,0,1,5.12,1.75c1,1.8.37,4.33-6.92,6.8-13.62,4.63-38.78,2-40.8-6-.6-2.34,1-3,2.58-3.2a7.07,7.07,0,0,1,3.62.65C563.7,1284.07,577.41,1289.17,596.28,1282.25Z"/><path class="ad2a174d-5299-4d99-acd8-3588660a6083" d="M619.36,1379.62s-40.35-22.19-88-2.56l35.09,19.06Z"/><path class="fc8e2137-e456-47de-a1e5-c7c97e340a3b" d="M619.36,1379.62s6,76.91-48.62,75.31-39.33-77.87-39.33-77.87S571.17,1397.05,619.36,1379.62Z"/><path class="bf9d3d1a-539f-48ee-9518-826d39cb60bb" d="M619.36,1379.62s6.26,69.28-48.39,67.68-39.56-70.24-39.56-70.24S571.22,1395.18,619.36,1379.62Z"/><polygon class="a94b3576-36e1-4b44-90f7-9e234952ff78" points="1101.88 1290.3 1035.1 1307.63 1036.5 1148.52 1079.02 1103.33 1112.81 1139.72 1102.53 1274.92 1101.88 1290.3"/><path class="b6100e45-4f6b-4861-ae59-66b0e91d4b25" d="M1126.9,1283.47l-17.86,4.75,5.14-29.77-9.46,31-13.06,3.54,6.11-148.44a10.85,10.85,0,0,0-2.7-7.63l-14.73-16.65a10.83,10.83,0,0,0-16.28.06L1042.62,1149a10.77,10.77,0,0,0-2.66,7.12l-3.45,151.2-16.3,4.29-4.21-17.23-1.71,18.79-13.6,3.58,4.66-176.47a20.7,20.7,0,0,1,5.39-13.36l43.85-48.06a20.68,20.68,0,0,1,29.58-1l42.65,40.93a20.65,20.65,0,0,1,6.34,15.78Z"/><path class="ec7b2825-535b-4d0c-98e4-557086658821" d="M1133.32,1281.78l-13.91,3.38-7.67,2.31-13.87,3.87,6.25-146.56a10.89,10.89,0,0,0-2.71-7.63l-14.73-16.65a10.83,10.83,0,0,0-16.28.06L1049,1149.22a10.81,10.81,0,0,0-2.66,7.13l-3.44,149.26-15.61,4.11-6.44,1.7-14.15,3.72,5-174.63a20.68,20.68,0,0,1,5.39-13.36l43.86-48.06a20.66,20.66,0,0,1,29.57-1l42.65,40.93a20.68,20.68,0,0,1,6.34,15.78Z"/><path class="adcf173b-c569-45e5-aa19-02a68a561f88" d="M1084.53,1294.8c.33-6,2.39-149.27,2.39-149.27l-6.65-16.83-4.51,107.15-3.92-9,.47-84-6.33,2.54.44,137.57-6.33,2.58,0-134.17-7.54,4.21-3.4,148.17Z"/><polygon class="adcf173b-c569-45e5-aa19-02a68a561f88" points="690.5 1096.88 752.99 1118.47 759.71 963.55 721.23 918.36 687.22 951.52 690.62 1081.17 690.5 1096.88"/><path class="ec7b2825-535b-4d0c-98e4-557086658821" d="M666.93,1088.19l16.84,5.38-3.49-28.68,7.14,30.77,12.34,4.5,1.59-143.35a10.37,10.37,0,0,1,2.95-7.16l14.86-15.21a10.37,10.37,0,0,1,15.55.83l19.13,28.4a10.36,10.36,0,0,1,2.2,6.94l-3.88,144.62,15.37,4.87,4.84-16.26-3.23,20.06,16.33,5.37,4.39-172.15a19.78,19.78,0,0,0-4.52-13l-39.61-48a19.77,19.77,0,0,0-28.21-2.34l-42.7,37.08a19.76,19.76,0,0,0-6.8,14.77Z"/><path class="b6100e45-4f6b-4861-ae59-66b0e91d4b25" d="M660.88,1086.84l13.16,4.48,7.06,2.4,13,4.6,1.14-141.55a10.35,10.35,0,0,1,3-7.16l14.86-15.22a10.37,10.37,0,0,1,15.55.83l19.13,28.41a10.33,10.33,0,0,1,2.2,6.93l-4.84,145.18,13.2,4.58L766,1123l13.75,4.4,4-170.31a19.8,19.8,0,0,0-4.52-13l-39.62-48a19.75,19.75,0,0,0-28.2-2.34l-42.7,37.08a19.76,19.76,0,0,0-6.8,14.77Z"/><path class="a94b3576-36e1-4b44-90f7-9e234952ff78" d="M706.35,1102.35c0-5.72,5.33-144,5.33-144l7.15-15.76-.78,102.58,4.17-8.39,3.54-80.31,5.93,2.73-7,131.42,5.93,2.76,6.38-128.19,7,4.39L739,1113.62Z"/><path class="ffee0171-07c0-481e-bfe0-c7617a8c5ce1" d="M1160.46,1324.87l3.43-31.12-148.67,29,13,50.91-29.47-19.75L988,1397.84l45,12.45a28.14,28.14,0,0,0,19.53-1.65L1178.75,1349a8.81,8.81,0,0,0,5-7.48l.88-16Z"/><polygon class="e1cd50dc-077a-4a1a-bab6-7a1329b4d93f" points="1035.1 1326.3 1157.93 1288.54 1133.18 1281.3 1000.69 1316.71 1035.1 1326.3"/><polygon class="e1cd50dc-077a-4a1a-bab6-7a1329b4d93f" points="1164.19 1314.78 1184.96 1320.2 1046.02 1372.69 1019.06 1363.4 1164.19 1314.78"/><polygon class="abaca7d3-a4c9-43c1-88a0-699c1dca1f25" points="1272.39 771.56 1272.39 780.1 1199.46 765.71 1199.46 756.41 1272.39 771.56"/><path class="b6100e45-4f6b-4861-ae59-66b0e91d4b25" d="M1660.48,773l-22.58-5.71s-138.48-159.46-138.48-288.59l26.24-21.36Z"/><path class="b6100e45-4f6b-4861-ae59-66b0e91d4b25" d="M1487.82,420.7,1470.73,426s17.09,38.47-222.14,351.25l28,18.86L1433.3,573S1515.49,440.64,1487.82,420.7Z"/><path class="b057bf65-a0bf-44d6-92ee-5fe9a09beef9" d="M1258.36,780.1l-9.77-2.86L1284.4,809l8.13,1.09S1272.46,778.07,1258.36,780.1Z"/><path class="ec7b2825-535b-4d0c-98e4-557086658821" d="M1258.36,780.1S1455.51,533,1487.82,420.7h42.07s82.22,218,163.59,319.13l-33,33.15S1528.39,595.85,1510.4,483c0,0-53.09,166-217.87,327.11Z"/><polygon class="e1cd50dc-077a-4a1a-bab6-7a1329b4d93f" points="1252.11 1037.05 1426.74 1092.13 1660.52 1024 1570.99 998.56 1252.11 1037.05"/><polygon class="ffee0171-07c0-481e-bfe0-c7617a8c5ce1" points="1296.84 1097.7 1424.92 1156.3 1426.74 1092.13 1296.84 1051.16 1296.84 1097.7"/><path class="ffee0171-07c0-481e-bfe0-c7617a8c5ce1" d="M1424.92,1156.3l227.23-71.61a10.21,10.21,0,0,0,7.14-9.45l1.23-51.24-233.45,59.9Z"/><path class="b6100e45-4f6b-4861-ae59-66b0e91d4b25" d="M1607.22,882.38l.83-29.18a16.12,16.12,0,0,0-12.24-16.1l-34.26-8.48h0a18.76,18.76,0,0,0-2.56,15.67l.25.89,30.2,7.56-3.51,29S1598.31,886.53,1607.22,882.38Z"/><path class="b6100e45-4f6b-4861-ae59-66b0e91d4b25" d="M1523.53,888.7l.85-29.91a16.53,16.53,0,0,0-12.54-16.51l-35.13-8.69h0a19.34,19.34,0,0,0-2.44,16.74l.08.23,31,7.76-3.59,29.76S1514.4,893,1523.53,888.7Z"/><polyline class="e1cd50dc-077a-4a1a-bab6-7a1329b4d93f" points="882.68 1162.31 687.22 1203.46 434.13 1104.95 570.61 1056.03"/><path class="b6100e45-4f6b-4861-ae59-66b0e91d4b25" d="M1432.53,894.25l.87-30.72a17,17,0,0,0-12.88-17l-36.08-8.93-.12.22a22.37,22.37,0,0,0-2.31,17.22h0l31.8,8-3.7,30.57S1423.15,898.62,1432.53,894.25Z"/><path class="b215c6cf-8818-47dc-9552-2dbf56d6bc80" d="M1612.05,884.32s-1.49,36.13,3.33,43.71,53.06,51.9.86,88.86c0,0-27.54,17.36-48.94-.52-19.66-16.43-34.44-31.08-12.56-69.13a170.33,170.33,0,0,1,12.91-18.1c5-5.92,11.37-16.66,10.06-45.19Z"/><path class="e7a1804d-8f36-4daa-9c4d-34dbcf67a693" d="M1580.55,879a3.38,3.38,0,0,0-4.23,1.12c-.9,1.4-.55,3.46,5.19,5.88,10.72,4.5,31.16,3.82,33.24-2.48.62-1.85-.64-2.51-1.9-2.72a5.71,5.71,0,0,0-2.95.31C1606.72,882.33,1595.37,885.67,1580.55,879Z"/><path class="b8a5e5c6-4a7e-4870-bff5-26b9242b77b4" d="M1556.39,956.22s33.81-15.6,71.08,2.93l-29.39,13.38Z"/><path class="bc5e98d4-19e2-457a-a6e0-eca6c157bd76" d="M1556.39,956.22s-9.24,61.67,34.92,63.49,36.16-60.56,36.16-60.56S1594.26,973,1556.39,956.22Z"/><path class="b215c6cf-8818-47dc-9552-2dbf56d6bc80" d="M1530.44,890.74s-1.64,39.82,3.67,48.17,58.48,57.2,1,97.94c0,0-30.35,19.13-53.93-.58-21.68-18.11-38-34.25-13.85-76.18a188.71,188.71,0,0,1,14.23-20c5.49-6.52,12.53-18.35,11.08-49.8Z"/><path class="e7a1804d-8f36-4daa-9c4d-34dbcf67a693" d="M1495.73,884.88a3.74,3.74,0,0,0-4.66,1.23c-1,1.55-.61,3.83,5.72,6.49,11.81,5,34.34,4.21,36.63-2.73.68-2-.71-2.77-2.09-3a6.32,6.32,0,0,0-3.25.35C1524.57,888.54,1512.06,892.22,1495.73,884.88Z"/><path class="b8a5e5c6-4a7e-4870-bff5-26b9242b77b4" d="M1469.1,970s37.26-17.2,78.33,3.23L1515.05,988Z"/><path class="bc5e98d4-19e2-457a-a6e0-eca6c157bd76" d="M1469.1,970s-10.18,68,38.49,70,39.84-66.75,39.84-66.75S1510.84,988.49,1469.1,970Z"/><path class="bcde2325-5b05-4410-b72d-5a9a695d0357" d="M1556.39,956.22s-9,56.27,35.14,58.09,35.94-55.16,35.94-55.16S1594.32,971.69,1556.39,956.22Z"/><path class="bcde2325-5b05-4410-b72d-5a9a695d0357" d="M1469.1,970s-9.89,61,38.78,63,39.55-59.77,39.55-59.77S1510.91,986.78,1469.1,970Z"/><path class="b215c6cf-8818-47dc-9552-2dbf56d6bc80" d="M1440.11,896.34s-1.79,43.24,4,52.3,63.5,62.11,1,106.35c0,0-32.95,20.77-58.56-.63-23.53-19.66-41.22-37.19-15-82.72A202.91,202.91,0,0,1,1387,950c6-7.08,13.6-19.93,12-54.07Z"/><path class="e7a1804d-8f36-4daa-9c4d-34dbcf67a693" d="M1402.41,890a4.06,4.06,0,0,0-5.06,1.34c-1.08,1.68-.66,4.15,6.22,7,12.82,5.39,37.29,4.58,39.77-3,.74-2.22-.77-3-2.27-3.27a6.85,6.85,0,0,0-3.53.38C1433.73,894,1420.15,898,1402.41,890Z"/><path class="b8a5e5c6-4a7e-4870-bff5-26b9242b77b4" d="M1373.5,982.38s40.46-18.67,85.06,3.51l-35.17,16Z"/><path class="bc5e98d4-19e2-457a-a6e0-eca6c157bd76" d="M1373.5,982.38s-11,73.8,41.79,76,43.27-72.47,43.27-72.47S1418.82,1002.48,1373.5,982.38Z"/><path class="bcde2325-5b05-4410-b72d-5a9a695d0357" d="M1373.5,982.38s-10.75,66.42,42.1,68.6,43-65.09,43-65.09S1418.9,1000.67,1373.5,982.38Z"/><polygon class="bf7a21a0-5e39-4c11-b111-9096456766f6" points="1425 1156.49 1191.45 1065.45 1194.65 989.28 1427.07 1083.9 1425 1156.49"/><polygon class="e1cd50dc-077a-4a1a-bab6-7a1329b4d93f" points="677.39 1444.37 808.52 1506.41 1061.64 1413.87 953.42 1371.61 677.39 1444.37"/><path class="ffee0171-07c0-481e-bfe0-c7617a8c5ce1" d="M808.76,1575.05l245.93-90.76a11.07,11.07,0,0,0,7.25-10.59l-.3-59.83-253.19,83.62Z"/><path class="b6100e45-4f6b-4861-ae59-66b0e91d4b25" d="M993.28,1270.27l-.57-31.62a17.46,17.46,0,0,0-14.06-16.81l-37.52-7.45h0a20.36,20.36,0,0,0-2,17.09l.31,1,33.07,6.66-2.33,31.6S983.85,1275.21,993.28,1270.27Z"/><path class="b6100e45-4f6b-4861-ae59-66b0e91d4b25" d="M903,1281.34l-.59-32.42A17.9,17.9,0,0,0,888,1231.68L849.55,1224h0a21,21,0,0,0-1.79,18.26l.09.24,33.91,6.83-2.4,32.4S893.35,1286.4,903,1281.34Z"/><path class="b6100e45-4f6b-4861-ae59-66b0e91d4b25" d="M804.8,1291.94l-.61-33.3a18.37,18.37,0,0,0-14.8-17.7l-39.5-7.85-.13.24a24.31,24.31,0,0,0-1.62,18.76h0l34.82,7-2.46,33.28S794.86,1297.14,804.8,1291.94Z"/><path class="b215c6cf-8818-47dc-9552-2dbf56d6bc80" d="M998.61,1272.13s.21,39.18,5.81,47.14,60.05,53.5,5.42,96.15c0,0-28.94,20.17-53,1.9-22.12-16.8-38.85-31.9-17.09-74.19a183.41,183.41,0,0,1,13.07-20.25c5.09-6.66,11.46-18.6,8.6-49.42Z"/><path class="e7a1804d-8f36-4daa-9c4d-34dbcf67a693" d="M964.25,1268a3.66,3.66,0,0,0-4.52,1.42c-.91,1.56-.42,3.79,5.91,6.11,11.83,4.33,33.92,2.57,35.86-4.36.57-2-.83-2.69-2.2-2.85a6,6,0,0,0-3.18.49C992.74,1270.24,980.62,1274.43,964.25,1268Z"/><path class="b8a5e5c6-4a7e-4870-bff5-26b9242b77b4" d="M942,1352.76s35.81-18.59,77.08-.41l-31.13,16Z"/><path class="bc5e98d4-19e2-457a-a6e0-eca6c157bd76" d="M942,1352.76s-6.89,67.22,41,67,36.07-67.38,36.07-67.38S983.83,1369,942,1352.76Z"/><path class="b215c6cf-8818-47dc-9552-2dbf56d6bc80" d="M910.6,1283.19s.23,43.19,6.4,52,66.19,59,6,106c0,0-31.89,22.23-58.41,2.09-24.38-18.51-42.82-35.15-18.84-81.76a203.55,203.55,0,0,1,14.4-22.32c5.61-7.34,12.64-20.5,9.48-54.47Z"/><path class="e7a1804d-8f36-4daa-9c4d-34dbcf67a693" d="M872.73,1278.61a4,4,0,0,0-5,1.57c-1,1.72-.47,4.17,6.52,6.73,13,4.77,37.39,2.83,39.52-4.81.62-2.25-.91-3-2.42-3.14a6.71,6.71,0,0,0-3.51.54C904.13,1281.11,890.78,1285.73,872.73,1278.61Z"/><path class="b8a5e5c6-4a7e-4870-bff5-26b9242b77b4" d="M848.21,1372.06s39.45-20.49,84.95-.45l-34.31,17.59Z"/><path class="bc5e98d4-19e2-457a-a6e0-eca6c157bd76" d="M848.21,1372.06s-7.6,74.09,45.18,73.81,39.77-74.26,39.77-74.26S894.32,1390,848.21,1372.06Z"/><path class="bcde2325-5b05-4410-b72d-5a9a695d0357" d="M942,1352.76s-6.92,61.36,41,61.11,36.11-61.52,36.11-61.52S983.83,1367.59,942,1352.76Z"/><path class="bcde2325-5b05-4410-b72d-5a9a695d0357" d="M848.21,1372.06s-7.64,66.51,45.14,66.23,39.81-66.68,39.81-66.68S894.31,1388.13,848.21,1372.06Z"/><path class="b215c6cf-8818-47dc-9552-2dbf56d6bc80" d="M813.1,1293.82s.25,46.89,6.95,56.41,71.87,64,6.49,115.06c0,0-34.63,24.14-63.42,2.27-26.47-20.1-46.49-38.17-20.45-88.78a219.86,219.86,0,0,1,15.64-24.23c6.09-8,13.71-22.26,10.29-59.14Z"/><path class="e7a1804d-8f36-4daa-9c4d-34dbcf67a693" d="M772,1288.84a4.39,4.39,0,0,0-5.41,1.7c-1.09,1.87-.5,4.53,7.08,7.31,14.16,5.19,40.6,3.07,42.91-5.22.68-2.44-1-3.21-2.63-3.41a7.32,7.32,0,0,0-3.8.59C806.08,1291.56,791.58,1296.57,772,1288.84Z"/><path class="b8a5e5c6-4a7e-4870-bff5-26b9242b77b4" d="M745.35,1390.31s42.85-22.25,92.24-.49l-37.25,19.1Z"/><path class="bc5e98d4-19e2-457a-a6e0-eca6c157bd76" d="M745.35,1390.31s-8.24,80.44,49.07,80.13,43.17-80.62,43.17-80.62S795.42,1409.78,745.35,1390.31Z"/><path class="bcde2325-5b05-4410-b72d-5a9a695d0357" d="M745.35,1390.31s-8.28,72.44,49,72.13,43.21-72.62,43.21-72.62S795.41,1407.81,745.35,1390.31Z"/><polygon class="bf7a21a0-5e39-4c11-b111-9096456766f6" points="808.76 1575.05 677.39 1500.93 677.39 1444.37 808.45 1497.49 808.76 1575.05"/><polygon class="e1cd50dc-077a-4a1a-bab6-7a1329b4d93f" points="1362.27 1045.1 1179.32 982.37 1178.84 987.33 1388.39 1068.15 1362.27 1045.1"/><polygon class="e1cd50dc-077a-4a1a-bab6-7a1329b4d93f" points="887.28 1074.75 1194.48 993.36 1185.13 987.33 887.28 1074.75"/><path class="a26b0e65-1db9-4824-803d-660b402cf39b" d="M988.87,1514.26c-10-18.85-1.25-27.19-2.36-32.15,0,0-15.54,12.51-10.75,25.28L967.53,1494s3.89-16.86-7.63-29.12c0,0,3.68,38.1-3.09,39.57,0,0,.53-13.87-6.26-17.38,0,0-1.16,20.12-1,25.35C950.33,1531.72,993.6,1523.18,988.87,1514.26Z"/><path class="a26b0e65-1db9-4824-803d-660b402cf39b" d="M682.46,1508.91s-3.38-31-10.43-34.67c0,0,.63,25.28-3.88,28.2s-12.26-21.73-12.26-21.73-6.55,18.15.16,25.74S682.46,1508.91,682.46,1508.91Z"/><path class="b6100e45-4f6b-4861-ae59-66b0e91d4b25" d="M588.74,552l10.92-2.4L721.6,539.12V642.2c0,9.33-4.4,18.24-12.13,24.61L679.71,691.3c-10.18,8.39-25.87,8.77-36.57.89l-41.4-30.51c-7.8-5.75-12.34-14.23-12.4-23.2Z"/><path class="ec7b2825-535b-4d0c-98e4-557086658821" d="M599.66,549.6l132.85-12.88V639.8c0,9.33-4.39,18.24-12.13,24.61L690.63,688.9c-10.19,8.38-25.88,8.76-36.57.88l-41.4-30.5c-7.81-5.75-12.34-14.24-12.41-23.2Z"/><path class="ffee0171-07c0-481e-bfe0-c7617a8c5ce1" d="M620.55,566.05l93.33-9.7v77.58a24.7,24.7,0,0,1-8.52,18.52l-20.91,18.44a20.27,20.27,0,0,1-25.69.66l-29.08-23A22.43,22.43,0,0,1,621,631.13Z"/><path class="fc8e2137-e456-47de-a1e5-c7c97e340a3b" d="M694.73,574a2.08,2.08,0,0,0-1,2.59c-38.83,12.14-45.63,32.1-46.75,40.23a11.34,11.34,0,0,0,4,10.39l.36.28c-3.37,2.87-8.17,7.35-10.63,11.45l-2.06.23.5,3.85,9.55,2.91,7.63-16.3c3.63.7,8.61.21,15.41-2.69,34.26-14.58,26.61-51.72,26.61-51.72Z"/><path class="bf9d3d1a-539f-48ee-9518-826d39cb60bb" d="M643.37,615.63a11.33,11.33,0,0,0,4,10.4l.47.36c-4.16,3.87-8.78,9-9.16,12.82l9.56,2.91,6.29-13.44c3.43.25,7.86-.49,13.59-2.92C702.39,611.17,694.73,574,694.73,574,651.81,586,644.53,607.19,643.37,615.63Z"/><polygon class="ec7b2825-535b-4d0c-98e4-557086658821" points="741.71 517.69 570.43 534.91 570.43 521.81 741.71 504.75 741.71 517.69"/><polygon class="ec7b2825-535b-4d0c-98e4-557086658821" points="632.98 519.75 632.98 555.31 638.68 553.78 640.93 519.75 632.98 519.75"/><rect class="ec7b2825-535b-4d0c-98e4-557086658821" x="695.46" y="516.69" width="6.32" height="28.52"/><polygon class="b6100e45-4f6b-4861-ae59-66b0e91d4b25" points="430.03 980.87 433.94 1108.06 446.94 1113.06 443.84 983.99 430.03 980.87"/><polygon class="b6100e45-4f6b-4861-ae59-66b0e91d4b25" points="561.09 1063.06 555.81 1061.66 555.55 942.77 561.09 944.53 561.09 1063.06"/><polygon class="ec7b2825-535b-4d0c-98e4-557086658821" points="571.86 942.77 572.14 1058.92 561.34 1063.06 560.45 945.35 571.86 942.77"/><polygon class="b6100e45-4f6b-4861-ae59-66b0e91d4b25" points="510.35 1010.95 514.26 1138.14 527.26 1143.14 525.43 1014.36 510.35 1010.95"/><polygon class="b6100e45-4f6b-4861-ae59-66b0e91d4b25" points="584.91 1035.09 585.1 1167.05 598.09 1172.05 598.73 1039.64 584.91 1035.09"/><polygon class="b6100e45-4f6b-4861-ae59-66b0e91d4b25" points="675.47 1060.96 672.47 1201.89 685.46 1207.13 689.22 1064.3 675.47 1060.96"/><polygon class="b6100e45-4f6b-4861-ae59-66b0e91d4b25" points="607.62 712.51 576.12 740.4 595.83 928.87 596.63 936.58 601.87 986.62 627.66 995.64 607.62 712.51"/><polygon class="ec7b2825-535b-4d0c-98e4-557086658821" points="598.09 1167.89 604.48 1166.24 604.79 1040.45 598.09 1038.73 598.09 1167.89"/><polygon class="ec7b2825-535b-4d0c-98e4-557086658821" points="527.26 1139.75 533.65 1138.09 532.13 1010.66 525.43 1008.93 527.26 1139.75"/><polygon class="ec7b2825-535b-4d0c-98e4-557086658821" points="446.93 1107.78 453.32 1106.14 449.65 980.79 443.66 978.84 446.93 1107.78"/><polygon class="ec7b2825-535b-4d0c-98e4-557086658821" points="685.46 1207.13 691.87 1205.7 694.64 1076.09 687.91 1077.89 685.46 1207.13"/><polygon class="b6100e45-4f6b-4861-ae59-66b0e91d4b25" points="870.55 1158.26 864.19 1156.73 867.19 1038.47 874.14 1040.44 870.55 1158.26"/><polygon class="ec7b2825-535b-4d0c-98e4-557086658821" points="889.04 1038.47 883.55 1161.9 870.39 1166.02 873.63 1040.82 889.04 1038.47"/><polygon class="b6100e45-4f6b-4861-ae59-66b0e91d4b25" points="812.11 1172.18 805.75 1170.63 807.98 1050.79 814.63 1052.69 812.11 1172.18"/><polygon class="ec7b2825-535b-4d0c-98e4-557086658821" points="827.4 1051.2 825.14 1174.45 811.97 1178.58 813.53 1053.63 827.4 1051.2"/><polygon class="b6100e45-4f6b-4861-ae59-66b0e91d4b25" points="750.49 1187.31 744.13 1185.73 746.41 1063.49 753.07 1065.43 750.49 1187.31"/><polygon class="ec7b2825-535b-4d0c-98e4-557086658821" points="765.84 1063.9 763.58 1187.15 750.41 1191.27 751.97 1066.34 765.84 1063.9"/><ellipse class="bffbbf22-8199-4f7f-a035-808957ec5a0d" cx="630.01" cy="977.94" rx="13.63" ry="22.05"/><path class="ec7b2825-535b-4d0c-98e4-557086658821" d="M630,953.58c4.25,0,7.69-3.07,7.69-6.87s-3.44-6.88-7.69-6.88-7.69,3.08-7.69,6.88S625.77,953.58,630,953.58Zm0-10.89a4,4,0,1,1-4.49,4A4.27,4.27,0,0,1,630,942.69Z"/><path class="b6100e45-4f6b-4861-ae59-66b0e91d4b25" d="M646,993.64l-1.89-2.45a30.78,30.78,0,0,0-28.82,0l-1.16,2.45Z"/><path class="ec7b2825-535b-4d0c-98e4-557086658821" d="M628.15,1001.36h2.74a12.91,12.91,0,0,0,9.09-3.82c2-2,4.12-3.58,6-3.9,0,0-16.3-9.08-31.87,0,0,0,2.51,1.83,5.48,4.46A12.92,12.92,0,0,0,628.15,1001.36Z"/><path class="b6100e45-4f6b-4861-ae59-66b0e91d4b25" d="M620.16,958.18l11.06-2.29s6.06,3.88,8.65,2.29c0,0-8.6,6.74-19.71,0"/><path class="ec7b2825-535b-4d0c-98e4-557086658821" d="M632.24,952H627.1a31.17,31.17,0,0,1-6.94,6.14,40,40,0,0,0,19.71,0C636.15,958.07,633.75,955.11,632.24,952Z"/><ellipse class="f3975afe-3b11-4a84-901a-88147399f637" cx="624.41" cy="976.47" rx="4.38" ry="8.7"/><ellipse class="ec7b2825-535b-4d0c-98e4-557086658821" cx="630.01" cy="1003.92" rx="12.18" ry="3.29"/><path class="ec7b2825-535b-4d0c-98e4-557086658821" d="M629.24,903.25s-.76,36.62,0,38.26,2,.81,1.91-1.37,0-37.22,0-37.22Z"/><polygon class="ec7b2825-535b-4d0c-98e4-557086658821" points="658.4 903.43 602.37 909.07 602.37 904.78 658.4 899.2 658.4 903.43"/><ellipse class="bffbbf22-8199-4f7f-a035-808957ec5a0d" cx="1160.46" cy="1168.26" rx="22.42" ry="13.85" transform="translate(-41.85 2293.41) rotate(-88.29)"/><path class="ec7b2825-535b-4d0c-98e4-557086658821" d="M1169.21,1136.76c.12-3.86-3.29-7.1-7.6-7.22s-7.9,2.89-8,6.75,3.29,7.1,7.6,7.22S1169.1,1140.62,1169.21,1136.76Zm-3.25-.1a4.59,4.59,0,1,1-4.44-4.22A4.34,4.34,0,0,1,1166,1136.66Z"/><path class="b6100e45-4f6b-4861-ae59-66b0e91d4b25" d="M1143.79,1183.73l2-2.44a31.3,31.3,0,0,1,29.28.88l1.11,2.52Z"/><path class="ec7b2825-535b-4d0c-98e4-557086658821" d="M1161.64,1192.11l-2.78-.08a13.14,13.14,0,0,1-9.13-4.16c-2-2.08-4.07-3.76-5.94-4.14,0,0,16.84-8.73,32.38,1,0,0-2.61,1.79-5.7,4.37A13.15,13.15,0,0,1,1161.64,1192.11Z"/><path class="b6100e45-4f6b-4861-ae59-66b0e91d4b25" d="M1171.07,1148.48l-11.17-2.66s-6.28,3.76-8.86,2.07c0,0,8.53,7.1,20,.59"/><path class="ec7b2825-535b-4d0c-98e4-557086658821" d="M1159,1141.88l5.22.15a31.65,31.65,0,0,0,6.87,6.45,40.68,40.68,0,0,1-20-.59C1154.82,1147.88,1157.35,1145,1159,1141.88Z"/><ellipse class="f3975afe-3b11-4a84-901a-88147399f637" cx="1154.94" cy="1166.6" rx="8.85" ry="4.46" transform="matrix(0.03, -1, 1, 0.03, -45.54, 2286.28)"/><ellipse class="ec7b2825-535b-4d0c-98e4-557086658821" cx="1159.67" cy="1194.65" rx="3.35" ry="12.38" transform="translate(-68.99 2318.22) rotate(-88.29)"/><path class="ec7b2825-535b-4d0c-98e4-557086658821" d="M1163.5,1092.39s-.33,37.24-1.13,38.88-2,.77-1.91-1.44,1.13-37.83,1.13-37.83Z"/><polygon class="ec7b2825-535b-4d0c-98e4-557086658821" points="1133.87 1091.7 1190.63 1099.12 1190.76 1094.76 1134 1087.4 1133.87 1091.7"/><polygon class="ffee0171-07c0-481e-bfe0-c7617a8c5ce1" points="884.48 1153.88 685.46 1202.77 685.46 1228.88 883.69 1174.57 883.69 1160.44 884.48 1153.88"/><polygon class="b6100e45-4f6b-4861-ae59-66b0e91d4b25" points="493.62 1087.74 487.23 1086.24 486.92 959.5 493.62 961.37 493.62 1087.74"/><polygon class="ec7b2825-535b-4d0c-98e4-557086658821" points="506.25 959.5 506.59 1083.32 493.51 1087.74 492.44 962.24 506.25 959.5"/><polygon class="bf7a21a0-5e39-4c11-b111-9096456766f6" points="685.46 1202.77 433.76 1102.12 433.76 1123.04 685.46 1228.88 685.46 1202.77"/><polygon class="b6100e45-4f6b-4861-ae59-66b0e91d4b25" points="429.06 979.45 430.49 991.49 693.87 1095.29 694.59 1083.57 429.06 979.45"/><polygon class="a7b17682-5216-4738-b9c7-f31d29dc0d37" points="849.66 1014.64 814.63 1012.8 727.71 1028.08 754.04 1035.75 849.66 1014.64"/><path class="fc8e2137-e456-47de-a1e5-c7c97e340a3b" d="M824.32,1020.5l-60,11.24c-12,1.79-20.52-2.52-32-6.36-13.13-4.43-24.64-12.31-11.38-25.39,24.2-23.9,35.41.61,35.41.61s-20.22-42.08,27-56.07C817.61,934.37,826,965.74,826,965.74c16.71.25,23,9.71,23,9.71,7.7,9.18,6.36,18.49,2.38,26.13A36.19,36.19,0,0,1,824.32,1020.5Z"/><path class="bf7a21a0-5e39-4c11-b111-9096456766f6" d="M759,1069.28l-18.32-5.79-13-35.41,25.66,4.55S758.47,1055.31,759,1069.28Z"/><g class="ab29747e-5eaf-4312-aa9d-e088c6db4098"><path class="a5444f13-bf7a-4871-be94-8a7f25affb65" d="M713.77,1042.18,699,1001.26s29.77-50.59,30-52,41.54-18.22,88.51-18.28c31.52,0-1.86,16.18,7.14,30.54,2.5,4,6.48,20.61-.21,16.17-37.13-24.61-61.45.5-59.63,23.73.44,5.5-6.67,8.48-11.39,5.66-8.33-5-18-9.14-22.67.24C725.69,1017.59,742,1029,742,1029Z"/></g><polygon class="ffee0171-07c0-481e-bfe0-c7617a8c5ce1" points="849.66 1014.64 841.8 1051.2 759.04 1069.28 753.37 1032.63 849.66 1014.64"/><polygon class="e1cd50dc-077a-4a1a-bab6-7a1329b4d93f" points="676.7 1242.81 415.37 1127.38 433.76 1123.04 685.46 1228.88 694.64 1234.26 676.7 1242.81"/><path class="ec7b2825-535b-4d0c-98e4-557086658821" d="M694.9,1072.88l-250.69-95,152.42-41.27-.8-7.71C559.19,937.07,415.92,970,430,981c17.23,13.42,264.56,102.54,264.56,102.54l192.15-42.43,4-7.8Z"/><polygon class="a7b17682-5216-4738-b9c7-f31d29dc0d37" points="445.83 959.62 470.85 957.43 570.46 985.48 544.12 993.15 445.83 959.62"/><path class="fc8e2137-e456-47de-a1e5-c7c97e340a3b" d="M473.84,974.8l59.28,14.47c11.89,2.44,20.62-1.41,32.34-4.61,13.35-3.72,25.27-11,12.73-24.74-22.87-25.18-35.38-1.31-35.38-1.31s22.46-40.93-23.93-57.45c-33.68-12-43.76,18.87-43.76,18.87-16.7-.66-23.5,8.45-23.5,8.45-8.18,8.74-7.35,18.11-3.79,26A36.25,36.25,0,0,0,473.84,974.8Z"/><path class="ffee0171-07c0-481e-bfe0-c7617a8c5ce1" d="M539.13,1026.69l23.48-3.43,7.85-37.78L544.79,990S539.69,1012.71,539.13,1026.69Z"/><g class="f6bddf8d-272a-4ec9-9bc4-6ac0ac2addb1"><path class="a5444f13-bf7a-4871-be94-8a7f25affb65" d="M583.83,1001.34l16.95-40.05s-27-52.13-27.09-53.51-40.49-20.44-87.39-23c-31.47-1.74,1,16.26-8.79,30.11-2.7,3.82-7.58,20.23-.66,16.16,38.4-22.56,61.33,3.82,58.26,26.92-.74,5.47,6.2,8.84,11.06,6.27,8.59-4.54,18.5-8.15,22.63,1.47,4.47,10.49-12.48,21-12.48,21Z"/></g><polygon class="bf7a21a0-5e39-4c11-b111-9096456766f6" points="445.83 959.62 460.3 995.64 539.13 1026.69 544.79 990.03 445.83 959.62"/><polygon class="ec7b2825-535b-4d0c-98e4-557086658821" points="693.87 1095.29 890.74 1048.68 890.74 1037.37 694.59 1083.57 693.87 1095.29"/><path class="ec7b2825-535b-4d0c-98e4-557086658821" d="M1150.66,1035.59a5.41,5.41,0,0,0-2.16-6.58c-74.35-46.11-136.23-9.26-155,10.52-6.11,6.44-6.14,12-5.3,24.17l1.76,32.49a10.26,10.26,0,0,0,4.7,8.06l5.54,3.54,3.56-9,132.15-25.73Z"/><path class="ae844e74-0f7e-4ced-8524-a7bd53cb75c9" d="M1000.21,1107.79l-2.05-37.71c-.83-12.17-.81-17.74,5.3-24.18,18.79-19.8,65.93-54.16,145.08-16.31a5.75,5.75,0,0,1,3.21,5.94l-5,37.53a9,9,0,0,1-7.17,7.6Z"/><path class="fc8e2137-e456-47de-a1e5-c7c97e340a3b" d="M1130.29,1064.53l-3.42,0c-16.46-19.7-31.39-12.54-31.39-12.54l-11.11-2c16-6.2,14.52-16.59,14.52-16.59-21.76-3.61-27.32,15.07-27.32,15.07-4.32-.61-12.53.75-12.53.75,5.16-9.43-2.66-18.77-2.66-18.77-19.53,8.45-13.68,22-13.68,22-9,2.09-16.21,9.58-19.06,12.9a3.42,3.42,0,0,0-.31,4,5.37,5.37,0,0,0,6.11,2.18,3.33,3.33,0,0,0,1.79-1.08h0l3.27-3.62-1.77-1.57c6.76-10.46,10.73-4.92,10.73-4.92,7.32,23.29,30.23,21.25,30.23,21.25l3.27-3.6-3.34-.3c-1.57-14-17.46-22.28-17.46-22.28,2.22-1.64,14.71-1.31,14.71-1.31.83,22,20.86,24.12,20.86,24.12l3.27-3.61-2.17-.92c.88-7.57-5.46-18.25-5.46-18.25l2.67.45c19.44,20.79,38.77,12.19,38.77,12.19l3.27-3.6Z"/><path class="bf9d3d1a-539f-48ee-9518-826d39cb60bb" d="M1026.91,1061.81c2.85-3.32,10.09-10.81,19.06-12.9,0,0-5.85-13.57,13.68-22,0,0,7.82,9.34,2.66,18.77,0,0,8.21-1.36,12.53-.76,0,0,5.56-18.68,27.32-15.06,0,0,1.49,10.38-14.52,16.59l11.11,2s16.25-6,33.34,16.15c0,0-19.33,8.6-38.77-12.19l-2.67-.46s9.26,16.18,4.36,22.78c0,0-20-2.13-20.86-24.11,0,0-12.49-.34-14.71,1.31,0,0,18.89,9.86,17.53,26.18,0,0-22.91,2-30.23-21.26,0,0-4.35-3.18-11.85,9.58a3.39,3.39,0,0,1-2.18,1.6c-1.71.39-4.43.48-6.11-2.18A3.4,3.4,0,0,1,1026.91,1061.81Z"/><path class="fc8e2137-e456-47de-a1e5-c7c97e340a3b" d="M1545.89,1236c-24.8-25.13-48.24-8.36-48.24-8.36s9-50.69-67.78-59.4c-35.86-4.09-47.15,20.32-53.15,42.93-6.75-14.64-19.08-27.06-40.64-32.3-50.4-12.27-49.43,77.83-49.43,77.83a232.71,232.71,0,0,1-29.3,1.75c.49-16.22-4.36-35-26.25-43.67-31.08-12.41-42.32,31.46-42.32,31.46-15.3-.3-21.33,9.94-21.33,9.94-7.3,9.87-6.34,20.21-2.92,28.79,4.65,11.6,18.28,31.78,44.79,30.87l44.17,2.42c12.68,14.59,34,28.66,64.42,23.15h0a234.24,234.24,0,0,0,144.65-5.71l21.16-15c19-1.06,36.58-15.66,53.13-27C1555.69,1280.72,1558.6,1248.9,1545.89,1236Z"/><g class="b6d1e35c-f9b7-4072-b35c-e0cf76987b5f"><path class="a5444f13-bf7a-4871-be94-8a7f25affb65" d="M1270.21,1288.82s-20.57-17.29-14.26-32.83c5.83-14.25,18-8,28.51-.38,5.94,4.28,14.87-.27,14.31-8.61-2.3-35.28,28.27-73.42,75-36.09,8.42,6.73,9.81,3.39,6.67-2.63-11.32-21.79,24.22-68.37-15.41-68.29-59.07.14-111.06,25.75-111.28,27.84s-37.62,78.93-37.62,78.93l18.58,62.12Z"/></g><path class="fc8e2137-e456-47de-a1e5-c7c97e340a3b" d="M1213.4,1293.8q2.19-1,4.61-2s-17.28-63.15,50-75.08c66.52-11.8,74.37,63.18,74.37,63.18s13.13-32.5,45.28-17.82c26.1,10.89,21.78,41,7.74,59.18,0,0,56.56,68.2-94.51,57.4-1,.23-15.68,3.42-15.68,3.42a98.49,98.49,0,0,1-30.17,1.74h0a96.64,96.64,0,0,1-53.65-22.81l-.42-.36a30,30,0,0,1-3.44-3.55C1180.32,1336.5,1188.6,1304.75,1213.4,1293.8Z"/><g class="bbec1c20-e21c-40ab-8fac-c1a3d87c43a5"><path class="ba6cfed3-7500-4915-85eb-10d34477c13b" d="M1342.34,1279.91s-36.92-54.55-75.81-30.46c-52,32.19-17.64,59.58-17.64,59.58s-79.42,12.92-4.12,73.25-115.31-25.07-115.31-25.07l58.07-136.12,101.72-55.82,44.81,37S1346.67,1256.57,1342.34,1279.91Z"/></g><g class="bec4df84-c9df-4f23-ab42-8cb5a782ffac"><text class="b6104823-b273-4950-83e7-1f9084e0a40c" transform="translate(1540.29 159.63)">Up</text><text class="b0a001b7-0631-4e58-8e06-cc8eb3fc4586" transform="translate(1717.81 159.63)">g<tspan class="ff03e916-0b84-4dc7-926c-3adc015fc55d" x="81.02" y="0">r</tspan></text><text class="b6104823-b273-4950-83e7-1f9084e0a40c" transform="translate(1845.7 159.63)">aded </text></g><g class="bec4df84-c9df-4f23-ab42-8cb5a782ffac"><text class="b6104823-b273-4950-83e7-1f9084e0a40c" transform="translate(1540.29 334.82)">of Healing </text></g></svg>