<?xml version="1.0" encoding="utf-8"?>
<!-- Generator: Adobe Illustrator 26.0.1, SVG Export Plug-In . SVG Version: 6.00 Build 0)  -->
<svg version="1.1" id="Layer_1" xmlns="http://www.w3.org/2000/svg" xmlns:xlink="http://www.w3.org/1999/xlink" x="0px" y="0px"
	 viewBox="0 0 2000 2000" style="enable-background:new 0 0 2000 2000;" xml:space="preserve">
<style type="text/css">
	.st0{fill:#AFD86A;}
	.st1{fill:#FECFAE;}
	.st2{fill:#665140;}
	.st3{fill:#312419;}
	.st4{fill:#443428;}
	.st5{clip-path:url(#SVGID_00000049914106945354896820000003984955885597968521_);}
	.st6{fill:#846A55;}
	.st7{fill:#D6BA9D;}
	.st8{clip-path:url(#SVGID_00000029036224065570708000000017535964250606266266_);}
	.st9{fill:#352820;}
	.st10{fill:#634C3B;}
	.st11{fill:#B99971;}
	.st12{clip-path:url(#SVGID_00000061463441983699382810000011194723055261831072_);}
	.st13{fill:#1E1713;}
	.st14{fill:#8C6D51;}
	.st15{fill:#77A22F;}
	.st16{fill:#9E7E5C;}
	.st17{clip-path:url(#SVGID_00000076592452503597668760000007342420985476458663_);}
	.st18{fill:#8ABD32;}
	.st19{clip-path:url(#SVGID_00000039829785251438200930000013320401723083437215_);}
	.st20{clip-path:url(#SVGID_00000008128762188372598990000003349630981891624097_);}
</style>
<path class="st0" d="M1038.4,1850.2l-22.5-3C1023.2,1848.3,1030.7,1849.3,1038.4,1850.2z"/>
<path class="st1" d="M1038.9,1850.3L1038.9,1850.3l-0.5-0.1L1038.9,1850.3z"/>
<path class="st0" d="M1893.6,1178.7c-181.2-137.5-1843.9,26.8-1843.9,26.8s-7.7,293.2,402.7,342.2s392.5,86.6,464.3,165.4
	c16.2,17.8,74.6,91.8,117.3,107.7c0-9.7,0.8-19.5,2.4-29.1c26.3-159.3,286.2-91.9,332.6-220.6s-215-200.5-215-200.5
	s26.1-76.4,155.6-40.4s379.3,121.6,335.3,281c-24.5,88.8-34.1,133.3-35.2,172.2c53.2-23,104.3-50.4,152.9-81.9
	C2013.9,1522.8,2007.8,1265.4,1893.6,1178.7z"/>
<path class="st1" d="M1309.6,1330.3c-129.6-36-155.6,40.4-155.6,40.4s261.4,71.9,215,200.5s-306.3,61.3-332.6,220.6
	c-1.6,9.6-2.4,19.3-2.4,29.1c121.3,45,337.1,65.2,575.7-37.4c1.2-38.9,10.7-83.4,35.2-172.2
	C1688.9,1452,1439.2,1366.3,1309.6,1330.3z"/>
<polygon class="st2" points="1755.2,1112.8 1009.9,1107.7 382.1,1090 49.7,1164.9 1014.5,1358.1 1892.8,1136.7 "/>
<polygon class="st3" points="1806.4,946.6 1811.9,701.4 1617.8,296.7 1371.2,801 1362.7,1002.7 "/>
<polygon class="st4" points="1332.2,1205.1 756.9,1136.7 756.9,745 988,425.6 1332.2,725.8 "/>
<g>
	<g>
		<defs>
			<polygon id="SVGID_1_" points="1332.2,1205.1 756.9,1105 756.9,745 988,425.6 1332.2,725.8 			"/>
		</defs>
		<clipPath id="SVGID_00000141448393869830612600000000542582156472670371_">
			<use xlink:href="#SVGID_1_"  style="overflow:visible;"/>
		</clipPath>
		<g style="clip-path:url(#SVGID_00000141448393869830612600000000542582156472670371_);">
			<path class="st6" d="M1546.1,911.8c20,19.9-20.9,37-0.9,56.8c4.4,4.4-18.6,9.3-16.2,14.5c-15.6,0.7-31.3,0.5-46.9-0.6
				c-48.3-3.4-96.8-5.2-145.1-7.4c-39-1.8-77.9-5.2-116.8-6.4c-90.2-2.8-183.5-18.9-273.5-24.5c-7.8-0.5-11.6,5.3-18.6,2.7
				c-5.1-1.9-5.5-4-1.5-6.9c3.5-2.5,6.5-5.4,10-7.9c17.7-12.5-23.3-34.1-5.8-46.7c3.6-2.6,1.1,2.5,5.8,2.5
				c29.1-0.2,123.2,7,152.2,7.6c33.2,0.7,66.3,4.6,99.4,5c34.2,0.4,68.1,4.7,102.1,5.1c35.9,0.5,50.2-5.5,86-4.6
				c17,0.5,44.1,2.9,61.1,3.9C1441.2,905.2,1545,916.1,1546.1,911.8z"/>
			<path class="st6" d="M1521.4,787c21.2,18.6-18.5,38.2,2.7,56.8c4.7,4.1-15.2,30.1-12.6,35.2c-15.6,1.7-31.2,2.5-46.8,2.3
				c-48.4-0.3-96.9,0.9-145.3,1.8c-39,0.7-81.2-6.7-120.2-5.5c-90.2,2.9-180-13.3-270.2-13.2c-7.5,0-15-1.1-22.3-3.3
				c-5.2-1.5-5.7-3.7-1.9-6.8c3.4-2.7,6.1-5.8,9.5-8.5c16.8-13.5-25.4-32.5-8.7-46.2c3.4-2.8,1.2,2.4,5.9,2.1
				c29.1-2,123.4-0.8,152.4-2c33.2-1.4,66.4,0.4,99.5-1.3c34.1-1.8,68.2,0.4,102.2-1.3c35.9-1.8,49.7-8.7,85.5-10
				c17-0.6,44.2,0.1,61.2,0C1416.3,787,1520.6,791.4,1521.4,787z"/>
		</g>
	</g>
</g>
<path class="st7" d="M886.8,525.4c0,0,68.8-76.9,103.4-136.5c10.1-17.4,28.4-28.5,48.5-29.5c106-5.2,430.7-30.1,593.4-143.5
	l-300,592.3H1148C1148.1,808.2,870,605.6,886.8,525.4z"/>
<polygon class="st4" points="758,1253.1 182.8,1152.9 182.8,793 413.9,473.5 758,773.8 "/>
<g>
	<g>
		<defs>
			<polygon id="SVGID_00000048469175553986663570000005367874150814275228_" points="758,1253.1 182.8,1152.9 182.8,793 
				413.9,473.5 758,773.8 			"/>
		</defs>
		<clipPath id="SVGID_00000134212252187342679320000016138077403144273574_">
			<use xlink:href="#SVGID_00000048469175553986663570000005367874150814275228_"  style="overflow:visible;"/>
		</clipPath>
		<g style="clip-path:url(#SVGID_00000134212252187342679320000016138077403144273574_);">
			<path class="st6" d="M809.7,912.2c20,19.9-20.9,37-0.9,56.9c4.4,4.4-18.6,9.3-16.2,14.5c-15.6,0.7-31.3,0.5-46.9-0.6
				c-48.3-3.4-96.8-5.2-145.1-7.4c-39-1.8-77.9-5.2-116.9-6.4c-90.2-2.9-183.5-18.9-273.5-24.5c-7.8-0.5-11.6,5.3-18.6,2.7
				c-5.1-1.9-5.5-4-1.5-6.9c3.5-2.5,6.5-5.4,10-7.9c17.7-12.4-23.3-34.1-5.8-46.7c3.6-2.6,1.1,2.5,5.8,2.5
				c29.1-0.2,123.2,7,152.2,7.6c33.2,0.7,66.3,4.6,99.4,4.9c34.2,0.4,68.1,4.7,102.1,5.1c35.9,0.5,50.2-5.5,86-4.5
				c17,0.5,44,2.9,61,3.9C704.8,905.5,808.7,916.4,809.7,912.2z"/>
			<path class="st6" d="M785.1,787.4c21.2,18.6-18.5,38.2,2.7,56.8c4.7,4.1-15.2,30.1-12.6,35.2c-15.6,1.7-31.2,2.5-46.9,2.3
				c-48.5-0.3-96.9,0.9-145.3,1.8c-39,0.7-81.2-6.7-120.2-5.5c-90.2,2.8-179.9-13.3-270.2-13.2c-7.5,0-15-1.1-22.3-3.3
				c-5.2-1.5-5.7-3.7-1.9-6.8c3.4-2.7,6.1-5.8,9.5-8.5c16.9-13.5-25.4-32.5-8.7-46.2c3.4-2.8,1.2,2.4,5.9,2.1
				c29.1-2,123.4-0.8,152.4-2c33.2-1.4,66.4,0.4,99.5-1.3c34.1-1.8,68.2,0.4,102.2-1.3c35.9-1.8,49.7-8.7,85.5-10
				c17-0.6,44.2,0.1,61.2,0C680,787.3,784.3,791.7,785.1,787.4z"/>
			<path class="st6" d="M728.8,687.3c21.9,17.7-17,39,5,56.6c4.8,3.9-17.5,11.2-14.7,16.1c-15.5,2.3-31.1,3.7-46.7,4.2
				c-48.4,1.6-96.8,4.9-145.1,7.7c-39,2.3-78,2.9-116.9,5.8c-90,6.5-180.3,7.2-270.4,11c-7.5,0.3-15.1-0.5-22.4-2.4
				c-5.3-1.3-5.9-3.4-2.2-6.7c3.2-2.8,5.9-6.1,9.1-8.9c16.3-14.2-26.7-31.5-10.6-45.8c3.3-3,1.3,2.4,6,1.8
				c29-3.2,123.2-5.8,152.2-8.2c33.1-2.8,66.4-2.3,99.3-5.4c34-3.2,63.4-10,97.3-13.1c35.8-3.2,54.1-3.1,89.8-5.8
				c17-1.3,44.1-1.7,61.1-2.5C623.8,691.5,728.2,691.7,728.8,687.3z"/>
			<path class="st6" d="M688.9,590.4c20.5,14.9-13.4,35.8,7.2,50.6c4.5,3.3-15.2,10.8-12.4,15.2c-13.8,2.8-27.7,4.8-41.8,6
				c-43.4,3.8-86.7,9-130,13.8c-34.9,3.9-69.9,6.3-104.7,10.7c-80.5,10.1-161.6,15.1-242.4,22.8c-6.8,0.6-13.6,0.3-20.2-1.1
				c-4.8-1-5.4-2.8-2.3-5.9c2.8-2.7,5-5.7,7.8-8.4c14-13.5-25.4-27-11.7-40.7c2.8-2.8,1.3,2.1,5.5,1.4
				c25.9-4.2,110.4-11.1,136.3-14.6c29.6-4,59.5-5.2,89-9.5c30.4-4.5,56.5-12,86.7-16.4c32-4.6,48.4-5.3,80.4-9.5
				c15.2-2,39.5-3.6,54.8-5.1C594.8,599.2,688.5,594.3,688.9,590.4z"/>
			<path class="st6" d="M659.4,506.6c18.1,11.6-9.5,31,8.7,42.5c4,2.5-12.3,10-9.7,13.5c-11.5,3.1-23.2,5.5-35,7.2
				c-36.6,5.4-73,12-109.3,18.2c-29.3,5-58.9,8.9-88.1,14.3c-67.7,12.6-136,20.9-204,31.5c-5.7,0.9-11.5,0.9-17.2,0.1
				c-4.1-0.6-4.8-2.1-2.2-4.9c2.2-2.4,3.9-5.1,6.2-7.5c11.1-12.2-22.9-21.6-11.9-33.8c2.3-2.5,1.2,1.7,4.7,0.9
				c21.6-4.9,92.8-14.9,114.6-19.2c24.9-4.9,50.1-7.5,74.8-12.6c25.5-5.3,47.2-13,72.6-18.2c26.8-5.5,40.7-7,67.6-12.1
				c12.8-2.5,33.3-5,46.1-7.1C580.2,518.8,659.3,510,659.4,506.6z"/>
			<path class="st6" d="M657.9,409.8c19.8,10.5-7.3,33,12.6,43.5c4.4,2.3-12,11.4-9,14.8c-11.7,4.2-23.7,7.7-35.9,10.5
				c-37.6,8.7-74.9,18.6-112.3,28.2c-30.1,7.7-60.5,14.2-90.5,22.4C353.5,548,283,562.4,213.1,579.1c-5.8,1.4-11.9,1.9-17.9,1.5
				c-4.3-0.2-5.1-1.8-2.7-4.9c2.1-2.7,3.7-5.6,5.8-8.3c10.6-13.6-25.7-20.5-15.3-34.2c2.1-2.8,1.4,1.7,5,0.5
				c22.2-6.9,95.5-23.4,117.7-29.7c25.5-7.2,51.6-12,76.8-19.4c26.1-7.7,48-17.5,74-25.1c27.5-8,41.8-10.7,69.3-18.3
				c13.1-3.6,34.2-8,47.4-11.3C576.5,429.2,658.1,413.3,657.9,409.8z"/>
		</g>
	</g>
</g>
<path class="st4" d="M798.8,1023.3l5.4-196.8l-56.7-8.8c0,0-13.3,190.1,0,433.5c3.3,1.4,6.9,2,10.4,1.8c15-0.6,42-4.4,49.7-17.7
	L798.8,1023.3z"/>
<path class="st4" d="M231.4,803.3c0,0,30,115,16.6,358.5l-54.7-9l5-208.3l-1.4-164.8L231.4,803.3z"/>
<path class="st9" d="M217.2,803.3c0,0,30,115,16.6,358.5l-54.7-9l5-208.3l-1.4-164.8L217.2,803.3z"/>
<path class="st3" d="M874.2,794.1c35.8-1.2,50.1,4.7,86,4c34-0.7,67.4,2.2,101.6,1.6c24-0.4,51-1.5,76.8-2.5L758,773.8v30.1
	c23-1.8,52.8-5.3,55.2-5.5C830.2,797.4,857.2,794.7,874.2,794.1z"/>
<path class="st3" d="M857.9,895.3c30-3,42.3,2.2,72.5-0.3c28.5-2.4,56.8-1.1,85.5-3.4c25.4-2,55-5.4,81.2-7.9v-19.2
	c-33,1.1-60.9,1-108.7,3.1c-32.8,1.5-66.5-1.8-99.3,0.3c-40.7,2.5-81.5,4.7-122.1,8.4c-3.4,1-7.2-6.8-10-6.5l0.9,41.3
	c19.6-2.8,46.8-8.3,48.9-8.6C821,900.7,843.6,896.7,857.9,895.3z"/>
<path class="st3" d="M993.4,961c-32.7,3.4-66.5,2.1-99.2,6.1c-40.5,4.9-81.2,9.4-121.6,15.5c-4.7,1.8-9.8,2.7-14.8,2.6V1253
	l338.8-75l0.4-71.4V951.9C1066.2,954.7,1038.8,956.2,993.4,961z"/>
<path class="st10" d="M772.7,982.6c40.5-6.1,81.1-10.6,121.6-15.5c32.7-4,66.5-2.7,99.2-6.1c45.3-4.7,72.7-6.3,103.6-9v-68.2
	c-26.2,2.5-55.8,5.8-81.2,7.9c-28.7,2.3-56.9,1-85.5,3.4c-30.2,2.5-42.4-2.7-72.5,0.3c-14.3,1.4-36.9,5.4-51.1,7.3
	c-2.2,0.3-29.3,5.8-48.9,8.6v74.1C762.9,985.3,767.9,984.4,772.7,982.6z"/>
<path class="st10" d="M889.1,868c32.8-2.1,66.5,1.2,99.3-0.3c47.8-2.2,75.7-2,108.7-3.1v-65.9l-18.9-1.4c-21.7,0.9-44.4,2-64.6,2.5
	c-28.8,0.6-56.9-2.3-85.5-1.6c-30.2,0.7-42.3-5.2-72.4-4c-14.3,0.6-37.1,3.2-51.4,4.3c-2.1,0.2-27.1,3.7-46.5,5.5l-0.8,71.3
	c2.8-0.2,6.6,2.2,9.9,1.2C807.6,872.6,848.4,870.5,889.1,868z"/>
<path class="st4" d="M1094.6,915.6l-1.5-83.8l-38.3-10.6c0,0-4,366.9-3.1,366.8l0.3-37.8l-0.3,37.8c6.7-0.6,24.7-1,36.2-10
	L1094.6,915.6z"/>
<path class="st9" d="M1103.4,915.6l-1.5-83.8l-38.3-10.6c0,0-4,366.1-3.1,366l0.3-37l-0.3,37c6.7-0.6,24.7-0.2,36.2-9.2
	L1103.4,915.6z"/>
<path class="st9" d="M808.3,1023.3l5.4-196.8l-56.7-8.8c0,0-12.4,191.9,1,435.3c0,0,48.3,1.1,59.1-17.7L808.3,1023.3z"/>
<path class="st3" d="M1499.2,952.2c-40.5,4.4-81.2,8.3-121.6,13.8c-4.8,1.6-9.8,2.4-14.8,2.3v236.8l443.3-83.5l0.7-190.7
	C1766.7,930.9,1531.8,948.7,1499.2,952.2z"/>
<path class="st11" d="M401.1,413.8c0,0,93.8,76,485.6,111.6L1148,808.2l-46.9,15.2l-293.6,8.9L401.1,413.8z"/>
<polygon class="st9" points="1011.8,1331.5 1892.8,1136.7 1893.6,1178.7 1009.1,1408.3 "/>
<path class="st4" d="M1011.8,1331.5L49.1,1165c0,0-7.3,29.5,0.6,40.6s959.4,202.8,959.4,202.8S1044,1337.2,1011.8,1331.5z"/>
<g>
	<g>
		<defs>
			<polygon id="SVGID_00000111881203632019750700000001075908019120791224_" points="1806.4,946.6 1811.9,701.4 1617.8,296.7 
				1371.2,801 1362.7,1002.7 			"/>
		</defs>
		<clipPath id="SVGID_00000094619741838632671890000009128123720283305614_">
			<use xlink:href="#SVGID_00000111881203632019750700000001075908019120791224_"  style="overflow:visible;"/>
		</clipPath>
		<g style="clip-path:url(#SVGID_00000094619741838632671890000009128123720283305614_);">
			<path class="st10" d="M1989.6,596.7c30.2,22-19.9,52.7,10.4,74.7c6.7,4.8-22.4,15.9-18.3,22.3c-20.3,4.1-40.9,7-61.6,8.7
				c-64,5.3-127.8,12.8-191.7,19.7c-51.4,5.6-103.1,9-154.4,15.3c-118.8,14.5-238.3,21.4-357.4,32.4c-10,0.9-20,0.3-29.8-1.7
				c-7-1.4-8-4.2-3.3-8.7c4.1-4,7.4-8.4,11.5-12.4c20.6-19.9-37.4-39.9-17-60c4.2-4.2,1.9,3,8,2.1c38.2-6.1,162.8-15.8,201-20.9
				c43.7-5.8,87.8-7.5,131.2-13.7c44.8-6.4,90.1-7.7,134.8-14c47.2-6.6,94.8-8.8,141.9-14.8c22.4-2.9,44.8-5.6,67.2-7.8
				C1867.4,617.3,1989.1,602.5,1989.6,596.7z"/>
			<path class="st10" d="M1942.9,845.5c29.6,22.8-21.3,52.2,8.4,74.9c6.5,5-22.8,15.3-18.9,21.8c-20.4,3.6-41.1,5.9-61.8,7.1
				c-64.1,3.7-128.1,9.5-192.1,14.7c-51.6,4.2-63.6,16.4-115.1,21.4c-119.1,11.5-283.2,53.4-402.5,61.3c-10,0.6-15.3-48.5-25-50.8
				c-7-1.6-7.9-4.4-3.1-8.8c4.2-3.9,7.6-8.2,11.8-12.1c21.2-19.3-36.3-40.9-15.5-60.4c4.3-4,1.8,3.1,8,2.3
				c38.3-5.1,163.2-11.6,201.5-15.7c43.8-4.7,87.9-5.2,131.5-10.2c45-5.2,90.3-5.3,135.1-10.4c47.3-5.4,65-15.7,112.3-20.5
				c22.4-2.3,58.4-3.6,80.9-5.2C1803.8,854.4,1942.2,851.2,1942.9,845.5z"/>
			<path class="st10" d="M1899.2,730.4c29.9,22.5-20.6,52.4,9.4,74.8c6.6,4.9-22.7,15.6-18.7,22.1c-20.4,3.8-41,6.4-61.7,7.8
				c-64.1,4.5-128,11-191.9,17c-51.5,4.8-103.2,7.6-154.6,13.2c-119,12.9-238.5,18.1-357.8,27.4c-10,0.8-20,0-29.8-2.1
				c-7-1.5-8-4.3-3.2-8.8c4.2-3.9,7.5-8.3,11.7-12.2c20.9-19.6-36.8-40.5-16.2-60.2c4.3-4.1,1.9,3.1,8,2.2
				c38.2-5.6,163-13.5,201.3-18.1c43.7-5.2,87.9-13.2,131.4-18.8c44.9-5.8,83.6-9.3,128.3-15c47.2-6,71.5-6.6,118.7-12
				c22.4-2.5,58.4-4.3,80.9-6.2C1760.3,741,1898.6,736.2,1899.2,730.4z"/>
			<path class="st10" d="M1077.1,680.8c-27-20,18.1-47.3-9-67.2c-6-4.4,20.3-14.2,16.6-20c18.3-3.6,36.8-6.1,55.4-7.5
				c57.6-4.5,115-10.9,172.5-16.8c46.3-4.8,92.8-7.6,138.9-13c106.9-12.5,214.4-18.1,321.6-27.4c9-0.8,18-0.2,26.8,1.7
				c6.3,1.3,7.2,3.8,2.9,7.8c-3.7,3.5-6.7,7.5-10.4,11.1c-18.7,17.8,33.4,36.1,15,54c-3.8,3.7-1.7-2.8-7.2-1.9
				c-34.3,5.3-146.5,13.4-180.9,17.8c-39.3,5-79,6.3-118.1,11.7c-40.3,5.5-75,15.3-115.2,20.7c-42.4,5.7-64.3,6.5-106.7,11.7
				c-20.2,2.5-52.5,4.3-72.7,6.2C1201.9,670.2,1077.5,675.5,1077.1,680.8z"/>
			<path class="st10" d="M1333.8,529c-25.8-21.5,20.8-46.2-5.1-67.6c-5.7-4.7,21-13,17.7-19c18.5-2.5,37.1-4,55.8-4.3
				c57.8-1.2,115.5-4.2,173.1-6.8c46.5-2.1,93.1-2.2,139.4-5c107.4-6.3,215.1-5.7,322.6-8.8c9-0.2,18,0.8,26.7,3.2
				c6.2,1.7,7,4.2,2.5,8c-3.9,3.3-7.1,7.1-11,10.5c-19.7,16.7,31.3,38,11.9,54.8c-4,3.5-1.5-2.8-7.1-2.3c-34.6,3.3-147,5-181.6,7.4
				c-39.5,2.8-79.2,1.7-118.5,4.8c-40.6,3.2-75.8,10.9-116.2,14c-42.7,3.3-64.5,2.8-107.2,5.5c-20.3,1.3-52.6,1.3-72.9,2
				C1459.1,525.7,1334.6,523.8,1333.8,529z"/>
			<path class="st10" d="M1347,420.8c-25.8-21.5,20.8-46.2-5.1-67.6c-5.7-4.7,21-13,17.7-19c18.5-2.5,37.1-4,55.8-4.3
				c57.8-1.2,115.5-4.2,173.1-6.8c46.5-2.1,93.1-2.2,139.5-5c107.4-6.3,215.1-5.7,322.6-8.8c9-0.2,18,0.8,26.6,3.2
				c6.2,1.7,7,4.2,2.5,8c-3.9,3.3-7.1,7.1-11,10.5c-19.6,16.7,31.3,38,11.9,54.8c-4,3.5-1.5-2.8-7.1-2.3c-34.6,3.3-147,5-181.6,7.4
				c-39.5,2.8-79.2,1.7-118.5,4.8c-40.6,3.2-75.8,10.9-116.2,14c-42.7,3.3-64.6,2.8-107.2,5.5c-20.3,1.3-52.6,1.3-72.9,2
				C1472.3,417.5,1347.8,415.7,1347,420.8z"/>
		</g>
	</g>
</g>
<path class="st4" d="M1793.9,904.4l4.5-196.8l-37.2-42.5c0,0-20.8,231.5-9.5,475c0,0,30.6,3.6,45.9-10.5L1793.9,904.4z"/>
<path class="st4" d="M1361.9,975.3l5.4-196.8l-63.6,29.6c0,0-5.6,151.1,7.8,394.5c0,0,41.6,8.1,59.1-1.4L1361.9,975.3z"/>
<path class="st9" d="M1808.2,904.4l4.5-196.8l-37.2-42.5c0,0-20.8,231.5-9.6,475c0,0,30.6,3.6,45.9-10.5L1808.2,904.4z"/>
<path class="st4" d="M1820,801.1c0,0-43.5-31.7-76.9-125.8c-39.8-111.9-144.6-322.4-144.6-322.4l42-46L1820,801.1z"/>
<path class="st9" d="M1377.9,975.3l5.4-196.8l-63.6,29.6c0,0-5.5,153.5,7.9,396.9c0,0,41.6,5.6,59.1-3.9L1377.9,975.3z"/>
<path class="st4" d="M1308.5,835.3c0,0,93.1-3.5,127.4-70s216.2-450.7,216.2-450.7l-32.9-20.7L1308.5,835.3z"/>
<path class="st11" d="M1632.2,215.8l-289.6,554.3c-9.4,17.8-25.9,38.3-46,38.3l-148.5-0.2l-21.8,22.8l193.4,4.3
	c0,0,46.7-4.6,71.5-54l227-447.8L1820,801.1c0,0-4.7,2.8,25.1,2c30.6-4.9,20.8-12.6,20.8-12.6S1655,346.3,1632.2,215.8z"/>
<path class="st13" d="M1629.6,500.2c-1.2-0.4-2.4-0.6-3.6-0.9c0.2-1.8,0.5-3.6,0.8-5.4l-11.4-0.5c0,0-0.1,2.1-0.3,5.6
	c-1.7,0.2-3.4,0.5-5.1,0.9c0,0.1,0,0.2,0,0.3c-3.6,1.1-6.9,2.8-9.9,5c-23.3,17.3-7.2,51.1,4.5,56.1c2,0.8,4.1,1.5,6.2,2l0.1,0.4
	c1.7,0.3,3.5,0.6,5.3,0.7c0.6,3.1,1.4,5.5,2.4,6.8l10.4-0.5c0,0-0.5-2.8-1.1-7.5c9.7-2.8,18.4-11,21.1-29.1
	C1652.3,511.9,1640.3,503.4,1629.6,500.2z"/>
<path class="st11" d="M1620.9,498.9c-3.7-0.3-7.4,0.1-11,1c-0.7,13.9-2,47.6,0.8,63.7c3.9,0.8,8,0.9,12,0.4
	C1621,550.8,1617.8,521.3,1620.9,498.9z"/>
<path class="st14" d="M1615.4,493.4c0,0-4.3,67.8,3,77.7l10.4-0.5c0,0-7.7-47-2.1-76.6L1615.4,493.4z"/>
<path class="st11" d="M1628.1,482.9c-15.7-4.8-32.8-1.9-46.1,7.8c-36.4,27-11.3,79.8,7,87.6c22,9.4,61.5,9.4,69.4-42.5
	C1663.6,501.1,1644.8,488,1628.1,482.9z M1641.5,534.4c-5,33.2-30.3,33.2-44.4,27.2c-11.7-5-27.8-38.8-4.5-56.1
	c8.5-6.2,19.4-8.1,29.5-5C1632.9,503.8,1644.9,512.2,1641.5,534.4z"/>
<path class="st14" d="M1635.5,482.6c-15.7-4.8-32.8-2-46.1,7.8c-36.4,27-11.3,79.8,7,87.6c22,9.4,61.5,9.4,69.4-42.5
	C1671,500.8,1652.2,487.6,1635.5,482.6z M1648.9,534c-5,33.2-30.3,33.2-44.4,27.2c-11.7-5-27.8-38.8-4.5-56.1
	c8.5-6.2,19.4-8.1,29.5-5C1640.3,503.4,1652.3,511.9,1648.9,534z"/>
<path class="st14" d="M1580.4,522.3c0,0,27.9,5.9,77,1l-1.8,13c0,0-55.3,5.9-74.6-2.2L1580.4,522.3z"/>
<polygon class="st3" points="921,986.6 919.5,1023.5 911.2,1219.1 922,1216.7 921.2,1023.3 "/>
<path class="st3" d="M987.3,1176.6c1.7-16.5,1.2-100.9,0.6-158.4c-0.3-31.3-0.7-54.7-0.7-54.7s-0.7,22.8-1.8,54.8
	c-1.9,58.1-5.1,146.8-7.2,185.8l7.9-1.8C986,1193.9,986.4,1185.2,987.3,1176.6z"/>
<path class="st3" d="M959.3,964.4l-5.7,1.6l-9.6,245.8l11.1-2.5c0.2-36,0.8-128.3,1.9-188.8C957.7,989.7,958.4,967,959.3,964.4z"/>
<path class="st4" d="M864.5,928.1l-16.8,10.5l-0.5,14c4.2-0.5,12.4-2.3,16.7-2.8L864.5,928.1z"/>
<path class="st4" d="M863,1133.8c-2.5-31.7-2.5-66.4-1.5-98.2l0.7-23.2l1.8-62.5c-4.2,0.5-12.4,2.3-16.7,2.8l-2,62.5v24.4
	c-0.9,31.8-1.6,65.4,0.9,97.2l2.3,96.3l5.5-1.3l11.4-2.7L863,1133.8z"/>
<path class="st13" d="M1033.9,997.7l-0.8-62.4l-0.3-16.9l-168.3,9.8l-0.6,21.7l-1.8,62.5l-0.7,23.2c-0.9,31.8-1,66.5,1.5,98.2
	l2.2,95.1l12.6-3l13.2-3.1l0.5-26.3l-0.1,24.5l-0.4,1.8l115.3-27.6l16.9-4l13.1-3.1L1033.9,997.7z"/>
<path class="st14" d="M904.2,957.6c-4.9,0.7-7.7,1.2-7.7,1.2l-0.2,8.1c32-3.7,65.1-2.5,97-5.8h0.5v-8.5
	C963.9,952.3,934,954,904.2,957.6z"/>
<path class="st11" d="M993.8,1018.6L994,961h-0.5c-32,3.3-65,2.2-97,5.8l-1.2,58.6l-4.2,198.1l20.2-4.5l8.2-195.6l1.5-36.9l0.2,36.7
	l0.8,193.4l22.1-4.9l9.6-245.8l5.7-1.7c-0.9,2.7-1.6,25.3-2.2,56.2c-1.1,60.6-1.7,152.8-1.9,188.8l23-5.1
	c2.1-39,5.3-127.7,7.2-185.8c1.1-32.1,1.8-54.8,1.8-54.8s0.3,23.3,0.7,54.7c0.6,57.5,1.2,141.9-0.6,158.4
	c-0.9,8.6-1.3,17.3-1.2,25.9l7.1-1.6L993.8,1018.6z"/>
<path class="st14" d="M1007.1,950.7c-44.7-0.5-86.2,4.5-102.9,6.9c29.8-3.6,59.8-5.3,89.8-5.2v8.5c4.6-0.5,8.9-0.9,13.2-1.3
	L1007.1,950.7z"/>
<path class="st14" d="M1006.9,1016.9l0.2-57.3c-4.2,0.4-8.6,0.8-13.2,1.3l-0.2,57.6l-0.6,182.4l13.2-2.9L1006.9,1016.9z"/>
<path class="st11" d="M1553.5,942c-3.8-2-6.2-5.9-6.2-10.2c-0.3-32.4-0.1-153.3,16-194.2c17.4-36.9,46.9-73.5,61-65.2
	c13.5,8,44.9,61.1,42.5,133.9s2.2,128.5,2.2,128.5L1558.5,946L1553.5,942z"/>
<path class="st14" d="M1558.5,946c0,0,1.6-176.4,15.5-208.7c14.2-33.1,35.3-71.5,50.3-64.9s55.6,60.8,53.2,133.6
	c-1.8,54-0.4,98.2,0.4,117.5c0.2,5.8-4.1,10.8-9.9,11.4L1558.5,946z"/>
<path class="st13" d="M1579.8,926.8c0,0-1.9-150.1,10.2-170.2s22.8-48.3,32.4-43.8s35.8,41,34.3,90.2s0.6,117.6,0.6,117.6
	L1579.8,926.8z"/>
<path class="st11" d="M1624.8,711c-4.4-0.6-10.1,2-15,10.1c-1.3,48.8-3.3,171.9,0.1,203.5l16.6-1.3
	C1625.8,889.9,1623.3,752.8,1624.8,711z"/>
<path class="st14" d="M1617.8,704.3c0,0-6.3,206.1,0,226.6h15.7c0,0-5.1-217.8-1.4-230.2L1617.8,704.3z"/>
<path class="st14" d="M1569.8,817.2c0,0,71.1,2.9,99.2-7.1l-3.7,21.5c0,0-94.4,15.7-95.6,5.5L1569.8,817.2z"/>
<path class="st15" d="M1895.9,1173.2c8.4-22.8,8.8-49.3-16-72.2c0,0-21-24.2-67.8-18.9c0,0-34.7-84.7-126.9-44
	c-127,56-55.4,166.4-55.4,166.4s-40.1-64.5-99.2,11c-32.4,41.3,2.6,59.2,40.9,66.9c33.6,6.6,68.3,5.3,101.2-4l154.3-42.6
	C1858.6,1227.1,1884.5,1204,1895.9,1173.2z"/>
<path class="st15" d="M806.8,1350.2c-22.4-70-87.7-29.1-90.2-26.3c3.3-3.8,85.7-100.3-29.7-173.9c-85.6-54.6-123.8,16-123.8,16
	c-28-7.8-35.1-0.9-50.2,5.3c-36.6-87.2-115.7-54.2-115.7-54.2s38.9-55.2-45.4-96.1c-72.1-34.9-94.9,41.5-94.9,41.5
	c-127.8-63.9-224,55.2-226.1,125.8c-3,104.7,71.8,140.8,150.6,139c153.9-3.6,159.5-24.1,214.5,14s199.7,119.5,370,69.1
	C795.6,1401,814.5,1374,806.8,1350.2z"/>
<path class="st16" d="M752.3,708.6c-1.2,0-2.2,1-2.2,2.2c0,0.9,0.6,1.8,1.5,2c16.2,5.1,64.2,12.4,205.6,6.2l106-2.7l-12.2-12.1
	L752.3,708.6z"/>
<path class="st16" d="M924.4,611.6c0,0,8.1,11.2,0.4,12.1s-45.7,1.4-45.7,1.4s1.5,4.7,14,7.3S949,640,949,640L924.4,611.6z"/>
<path class="st16" d="M917.9,656.9c-25.6,12.5-140.9,1.9-140.9,1.9s75.5,23.8,114.4,16.3C915.5,670.4,919.9,655.9,917.9,656.9z"/>
<path class="st11" d="M1403.7,377.3c0,0-164.1,250.8-265,299.2c0,0,61.3-14.2,79.6-26.8c10.1-6.9,141-167.4,144.4-187.6
	s31.2-57.5,33.8-57.2S1403.7,377.3,1403.7,377.3z"/>
<path class="st11" d="M1104.4,346.3c0,0-45.9,115.4-139.2,198.4c-3.7,3.3-11.1,13.2-6.5,11c10.5-5,14-20.7,36.3-20.2
	c6.9,0.2,1,2.7,65.6-87.1c12-16.7,45.6-70.8,48.2-70.8S1104.4,346.3,1104.4,346.3z"/>
<path class="st11" d="M1486.2,340.8c0,0-55.5,121-99.3,170c-1.5,1.7-1.3,4.2,0.3,5.7c1.3,1.2,3.2,1.4,4.7,0.5
	c21-12.5,43.6-36.9,64-83.7c14.5-33.2,22.9-70.7,30.1-70.6S1493.5,330.9,1486.2,340.8z"/>
<path class="st11" d="M1085.9,476.3c0,0-70.4,112.9-120.1,156c-1.7,1.4-1.9,4-0.5,5.7c1.2,1.4,3.1,1.8,4.7,1.1
	c22.4-9.7,36.5-25.6,62.7-69.3c18.6-31.1,36-67.6,43.1-66.6S1092.1,452.7,1085.9,476.3z"/>
<path class="st11" d="M1486.2,340.8c0,0-126.3,72-220.9,50.5c0,0,91.9,16,122.6,5.6s98-34.1,98-34.1L1486.2,340.8z"/>
<g>
	<g>
		<defs>
			<path id="SVGID_00000123438418339058407390000008833923149264827065_" d="M806.8,1350.2c-22.4-70-87.7-29.1-90.2-26.3
				c3.3-3.8,85.7-100.3-29.7-173.9c-85.6-54.6-123.8,16-123.8,16c-28-7.8-35.1-0.9-50.2,5.3c-36.6-87.2-115.7-54.2-115.7-54.2
				s38.9-55.2-45.4-96.1c-72.1-34.9-94.9,41.5-94.9,41.5c-127.8-63.9-224,55.2-226.1,125.8c-3,104.7,71.8,140.8,150.6,139
				c153.9-3.6,159.5-24.1,214.5,14s199.7,119.5,370,69.1C795.6,1401,814.5,1374,806.8,1350.2z"/>
		</defs>
		<clipPath id="SVGID_00000137819630872797267580000012508916952636233151_">
			<use xlink:href="#SVGID_00000123438418339058407390000008833923149264827065_"  style="overflow:visible;"/>
		</clipPath>
		<g style="clip-path:url(#SVGID_00000137819630872797267580000012508916952636233151_);">
			<path class="st18" d="M64.3,1287.7c0,0-18.5-220.4,173-186.3c0,0,34.2,10.5,54.6-34.4s103.4-18.4,105.3,50.1l49.7-87.8
				l-210.8-53.7l-160.7,36.2l-80.7,144C-5.3,1155.9-116.4,1274.4,64.3,1287.7z"/>
			<path class="st18" d="M519.2,1191.2c-10.3,2-13.7-12.7-6.2-20s14.6-13.2,28.1-20.4c36.1-19.4,115.5-57.8,136.7-68
				c3.1-1.5,6.8-0.7,9.1,1.9c16.1,18.8,77.9,91.4,77.9,99.8c0,8.8-17.3,96.4-20.4,112.4c-0.3,1.6-1.2,3.1-2.4,4.2l-26,23.4
				c-6.1,5.5-19.1,6.6-9.4-25.6c11.7-38.7,19.4-77.3-30.4-100.8c-59.8-28.2-86-4.8-98.5,7c-3,2.9-7.8,2.8-10.7-0.2
				c-0.1-0.1-0.1-0.1-0.2-0.2C559.9,1196.9,545.3,1186.3,519.2,1191.2z"/>
		</g>
	</g>
</g>
<path class="st4" d="M154.3,844.7c0,0,54.6-14.1,84.2-60.3S447.4,474,447.4,474l-26.2-41L154.3,844.7z"/>
<path class="st4" d="M792.2,844.7c0,0-17.5,32.5-83.1-40.8c-57.5-64.3-326.3-336.3-326.3-336.3l20.4-41.6L792.2,844.7z"/>
<path class="st7" d="M792.2,844.7c0,0,17.1-7.5,37.5-16.5c17.8-7.8,17-7.6,17-7.6S410.1,391.9,399.9,414
	c-17.1,37.2-256.4,380-276,397.5c0,0,17,34,30.4,33.2S415,475.5,415,475.5S765.9,842.8,792.2,844.7z"/>
<path class="st14" d="M846.7,820.7c0,0,240-6.4,301.4-12.5c0,0-21.8,21.9-21.8,22.8s-334.1,13.7-334.1,13.7S823.4,809.4,846.7,820.7
	z"/>
<path class="st16" d="M399.4,821.8c0,0,32.6-27.3,84.9-4.6c0,0-5.9,60-39.8,96.7C444.4,913.8,416.3,885.9,399.4,821.8z"/>
<polygon class="st16" points="484.3,817.1 480.9,805.9 396,810.5 "/>
<path class="st11" d="M396,810.5c0,0,32.6-27.3,84.9-4.6c0,0-9.8,62.4-43.8,99C437.1,904.9,411.2,875.7,396,810.5z"/>
<path class="st7" d="M451.4,826.1c-3.5-1.2-4.6-5.7-3.8-9.3c2-8,6.1-22.8,9.5-28c4.8-7.2-7.9-28.4-5.6-32.1s11.6,0.9,19.4,18.2
	s42.2-35.1,45-58s11.4-28.4,13.1-17.5s-13.9,60.6-10.7,61.2s16.5,9.6,25.6,6s24-40.1,30.3-36.7s-9.6,39-10.3,43.2s7.8,11.3,16.5,3.8
	s17.3-47.9,21.1-46.9s8-6.6-1.6,37s-50.5,20.5-66.3,15s-55.3-0.7-59.7,13.6c-2.4,7.8-4.2,15.8-5.6,23.9c-0.4,2.5-2,4.8-4.2,6
	C460.5,827.7,458,828.4,451.4,826.1z"/>
<path class="st7" d="M426.4,824.5c-3.1,2.2-7.9,3.8-14.7,1.4c-1.8-0.6-3.2-2-4-3.7c-3.9-8.9-18.4-38.8-40.1-40.2
	c-25.6-1.6-51.6,24.2-90.3,4s-29.2-48.2-25.4-46.6s10.6,51.4,78.1,30.4c0,0-22.4-36.7-19.2-38.2s7.6-0.2,30.5,30.3
	s26.8-39.4,24-47.8s3.8-15.5,9.9-6.1s-2.2,59.8,19,73s18.1-22.6,24.1-17.8s-8,30.2-3.6,35.3c2.9,3.4,9.1,11.3,13,16.3
	c2.3,2.9,1.9,7.1-1,9.4C426.5,824.4,426.5,824.4,426.4,824.5z"/>
<g>
	<g>
		<defs>
			<path id="SVGID_00000155105709573832469290000011636449740185834126_" d="M1895.9,1173.2c8.4-22.8,8.8-49.3-16-72.2
				c0,0-21-24.2-67.8-18.9c0,0-34.7-84.7-126.9-44c-127,56-61.9,158.2-61.9,158.2s-33.5-56.3-92.7,19.3
				c-32.4,41.3,2.6,59.2,40.9,66.9c33.6,6.6,68.3,5.3,101.2-4l154.3-42.6C1858.6,1227.1,1884.5,1204,1895.9,1173.2z"/>
		</defs>
		<clipPath id="SVGID_00000049220806955295060520000011656308935421299357_">
			<use xlink:href="#SVGID_00000155105709573832469290000011636449740185834126_"  style="overflow:visible;"/>
		</clipPath>
		<g style="clip-path:url(#SVGID_00000049220806955295060520000011656308935421299357_);">
			<path class="st18" d="M1597.6,1286.1c0,0-49.8-26-39.4-56.4c9.6-27.9,38.2-19.8,63.3-8.8c14.2,6.2,33-4.7,29.8-19.9
				c-13.4-64.3,45.6-143.2,158.2-87.7c20.3,10,3.2-35.1-5.2-45.3c-30.3-36.9,57.2-94.2-30.9-82.8c-131.3,17-240.9,78.9-240.9,82.8
				s-65.1,156-65.1,156l55.9,109.1L1597.6,1286.1z"/>
		</g>
	</g>
</g>
<path class="st11" d="M1020.3,274.9c0,0,121,53.3,218,0C1238.3,274.9,1129.1,200.1,1020.3,274.9z"/>
<path class="st6" d="M1075.2,405.7v-120c0,0,57.5-24.2,115.1,0l4.2,120.7c0.2,4.8-2.4,9.3-6.6,11.7c-15,8.5-53.6,24.1-105.4-0.7
	C1078,415.2,1075.2,410.7,1075.2,405.7z"/>
<path class="st7" d="M1020.3,274.9c0,0,48.4-44.1,54.9-58.9c6-13.4,31.9-107.6,51.8-142.4c1.5-2.7,4.9-3.6,7.6-2.1
	c1,0.6,1.8,1.5,2.3,2.5c9.9,21.8,35.5,80,53.4,138.2c0,0,32.6,53,48,62.6C1238.3,274.9,1155.8,229.1,1020.3,274.9z"/>
<path class="st11" d="M1128.6,106.6c-3,70.1-37.1,135-37.1,135s42.3-53.1,43.3-115.9C1135.1,110.4,1128.6,105.2,1128.6,106.6z"/>
<path class="st11" d="M1176.8,198.2c-27.1-1-54-5.5-80-13.4c-1.5-0.5-3.2,0-4.2,1.3c-0.8,1.1-1.1,2.6,1.4,4.1
	c1.7,1,45.8,10.5,61,11.5s13.5-1.9,17.2-0.2S1179.2,199.9,1176.8,198.2z"/>
<g>
	<g>
		<defs>
			<path id="SVGID_00000053528786638245467300000014159553963343788678_" d="M1075.2,405.7v-120c0,0,57.5-24.2,115.1,0l4.2,120.7
				c0.2,4.8-2.4,9.3-6.6,11.7c-15,8.5-53.6,24.1-105.4-0.7C1078,415.2,1075.2,410.7,1075.2,405.7z"/>
		</defs>
		<clipPath id="SVGID_00000131332373018536382110000006001111299668343200_">
			<use xlink:href="#SVGID_00000053528786638245467300000014159553963343788678_"  style="overflow:visible;"/>
		</clipPath>
		<g style="clip-path:url(#SVGID_00000131332373018536382110000006001111299668343200_);">
			<path class="st10" d="M1071.1,307c0,0,54.3-28.6,126.9,0l-3.6-29.1c0,0-89.1-18.6-104.4-6.6s-29.1,19.4-28.6,24
				S1071.1,307,1071.1,307z"/>
		</g>
	</g>
</g>
<path class="st16" d="M1019,707c0,0-35.2-28-49.4-48.2s-90.2-98.6-95.6-101.2s-129.7-4.2-149.9-1.3s128.6,15.8,146.3,13.3
	s120.5,139,120.5,139l20.5-0.7L1019,707z"/>
<path class="st11" d="M1399.8,432c3.3-1.1,7,0,9.1,2.7c1.8,2.4,2.3,5.7-2.9,8.8c-3.7,2.2-98.3,23.2-131,25.7s-45.9,1.6-37.1-0.1
	C1411.6,435.2,1311,460.2,1399.8,432z"/>
</svg>
