<svg id="ec31985d-5a31-4afc-ab6d-fa1694203b85" data-name="Layer 1" xmlns="http://www.w3.org/2000/svg" xmlns:xlink="http://www.w3.org/1999/xlink" viewBox="0 0 2000 2000"><defs><style>.a1c14515-5d82-4163-a7b6-990c5fba260f{fill:none;}.b6194007-7745-4509-8e8c-9b01c59c385b{fill:#8abd32;}.bfb47323-4956-400f-af2e-d51fcfc3647a{fill:#aed76a;}.e97e70e8-2a38-4cf6-876f-bd430c491f4f{clip-path:url(#fad5fff3-4f08-424b-bf7b-7e836290a669);}.b0931fa5-4528-4e17-b44f-96260610c87a{fill:#fecfae;}.adca7b90-97dc-454d-9d81-b73baea34ceb{fill:#77a22f;}.e9e74a06-f564-4117-a8bc-468cbaed6384{clip-path:url(#a880d48c-ce34-4ded-9554-08d94336c9f8);}.a7b835b4-0aba-4f4a-a836-19fc427fe6b5{fill:#4c3b36;}.bdcc186d-b47b-4659-baee-064ea9213692{fill:#725b51;}.a4075000-3925-4ae4-bb23-cf6a11d145f3{fill:#bf9e82;}.b82bdba6-360f-45ae-b79f-e05d04abb6d6{fill:#eae2dc;}.b348db32-9de7-4beb-8178-721e9627212e{fill:#c9b3ad;}.f3abd68a-6557-4e1c-b63c-f3e99c3d37fd{fill:#ead2cc;}.b0b45878-578f-4b6e-91e6-22a7b9ffc908{fill:#967266;}.adf0abca-76b3-4360-b923-c7ac0e9a5d18{fill:#ddc6b6;}.abc1a904-642a-456f-bde7-7ad38436eeb5{fill:#a58771;}.e7bd96d4-2489-46b3-bd02-9e9dc961a672{fill:#1e1713;}.ed224440-c9ed-4de5-bd94-6a0668a98c31{fill:#a37a79;}.b46e5c28-b8e6-4fe0-a513-d9e162dcf395{fill:#352a28;}.b882117f-2267-4dfa-bc64-a50699411756{fill:#e8e3dd;}.bd73b241-fcc6-4a19-9dff-4d1cb46dd547{fill:#a29cb7;}.b8ca7a1b-e255-45aa-8e48-967438317424{clip-path:url(#a6fac763-ae2a-4908-830d-66979f60d0b9);}.f5686c4e-cbba-4d22-9fd3-987d2e4ce502{fill:#b6b3c4;}.a4f1d9d2-c8cc-473c-ade9-77d68a9be255{clip-path:url(#b044310a-9d0c-49a9-9baa-651a17f6fae3);}.af19c096-294b-4c8d-9769-6b39435f8556{clip-path:url(#b25884f9-d9b8-4311-90bf-64ad706ea7c2);}.a6ef00f7-c96c-4acc-9531-be43a70ba269{fill:#e5bf9c;}.fa39d6ec-a3bb-48a0-b8bf-b84d7ce44664{fill:#969189;}.ad79272a-7490-49f6-aaaa-294508d3335d{fill:#993a23;}.adc730e2-11e3-403d-ac59-0ed4f4ff4b6a{clip-path:url(#e1da6109-3de8-4434-8ed9-52377b0a4f12);}.af10f813-1144-4183-a328-dea365553407{clip-path:url(#bf73d976-24ce-46b4-b5f9-ccc0f5b03ebf);}.b5275e3b-71f4-43e5-9369-7d3017bd1488{clip-path:url(#f58c6c2c-065d-4e72-a363-9f8f7c18deeb);}.b51af854-123a-4ca4-8816-d6f827112e27{clip-path:url(#aea0a2e3-868e-4a49-9e3a-ea6aed181df2);}.adb2d654-244c-4e85-8e5c-cc01438ee69b{clip-path:url(#af6d6dd4-9393-457e-8ca1-a62f68df544a);}.a1c275aa-a45f-4354-8cc0-95ce8a3eb326{clip-path:url(#ffcdf880-dc5c-415c-ba01-e73886d875f2);}.a82ff9a8-2cc4-4041-bc7a-72f89f913749{clip-path:url(#b7787fd8-62d7-4806-9614-baaa54209b2f);}.eee6715a-925a-4238-813a-a1b3d1a5ed9a{clip-path:url(#bf120954-886c-4baf-a8cc-f1ba710b50ba);}.aa35014f-aa81-451f-a5b2-f95be5149b82{clip-path:url(#ee515f76-aff4-4005-9da4-4a1bdf8ca8b5);}.faae5268-99cd-4a15-8348-a27b2856b37f{clip-path:url(#a015993d-0b60-4106-bd5f-c539e5e105c7);}.e0b28b8f-b9a4-48a8-a938-3bb29fbcec22{clip-path:url(#edf0b3b8-2a89-49cd-8290-04b968f7092d);}.a1856865-1170-4e38-9af2-2e0ed0b434d8{clip-path:url(#b52ba90d-25fc-483e-8dae-73f8bce89e77);}.bf5554ad-cb04-4675-ba40-8e2640e8fb9b{clip-path:url(#a1343d20-e8c2-473d-8386-1e8db7607594);}.ba38af77-67cb-477a-b49a-b6ca84207890{clip-path:url(#f5c2a25d-8958-480d-bb81-f120a65b9a48);}.e39b32b9-06ac-454a-a052-4a4ccb4a13e9{clip-path:url(#bdddc7d8-af80-4e8f-a64a-8e6c92982431);}.bab956cf-c325-4a0b-b7bb-be23e19f06b5{clip-path:url(#e0fb61a1-3d25-4062-aeee-1c78f2d47419);}.a707a054-29ae-41d7-9c92-c5ac9871bd0b{clip-path:url(#af9cae41-d198-4f2f-ba31-65b242bbbf2e);}.bca1df5f-867a-47fd-8ebd-e80a0f36201b{clip-path:url(#b88256ec-1b8d-4499-a7fd-e0a534dca973);}.a1231401-c972-4d9d-9333-412cbb25966b{clip-path:url(#aa638070-77cd-457c-a8dc-c837c57444d2);}.e493c55c-4b3b-4005-bc8e-13e7d74dc6d6{clip-path:url(#f59a84af-9266-4cc4-8148-261e68922d23);}.a6640c2e-7a54-414a-86f6-9dd3cee781e0{clip-path:url(#a0fe3f70-d981-4210-8f48-2519350d1e94);}.fc3ac54d-6a7a-4d2c-ad4c-bff53d1c71e0{fill:#aa4226;}.b585a104-e298-439d-9bb9-be74a58eee41{fill:#afd86a;}.a747b2ba-2cbf-4518-a694-e9469e57c393{fill:#adaba8;}.b00a33c2-c9a8-41b7-ac92-6f9210d5c8ac{clip-path:url(#e489b761-46e1-4f53-bf58-0999a857601c);}.a74aeadf-387d-49ab-8b50-5724d0a61acc{clip-path:url(#af7983b3-cca4-4b3c-924d-0026356fb209);}.a71e187b-df0f-41b7-99f0-6a1c22a4a636{clip-path:url(#a1e1d664-b36e-46c7-8a4e-bf7607ab21cc);}.e77f8df6-75fe-4342-81a3-91939d894b30{clip-path:url(#aa1f98f6-efed-4217-bb95-48a53cedc10b);}.b97d3008-b698-495d-9c12-e90ae0749f9b{clip-path:url(#bfdb5ac9-5ee5-4a33-aa94-c241a08cf332);}.a501de72-61eb-4f45-b64f-bc9a441aa119{clip-path:url(#f6d2c815-2653-4671-b623-1c81ec098af2);}.bb0eeb92-f663-4c94-8140-32817e13e51a{clip-path:url(#b05813bb-562d-4a7e-bbdd-1755fb498dde);}</style><clipPath id="fad5fff3-4f08-424b-bf7b-7e836290a669"><path class="a1c14515-5d82-4163-a7b6-990c5fba260f" d="M1487.61,841c94.23-15,190.93,4.92,269.78,58.67,111.12,75.74,209.49,205,128,412.83-147.15,395-345.25,527.39-726.16,482.55s-223.41-214.77-859.22-242.41C6.39,1539.87-112.18,1327.29,59.28,1006.36c118.57-209.64,631.36-401.94,1046-246.42C1319.05,840.16,1430.15,850.14,1487.61,841Z"/></clipPath><clipPath id="a880d48c-ce34-4ded-9554-08d94336c9f8"><path class="a1c14515-5d82-4163-a7b6-990c5fba260f" d="M410,919.42s-92.73-16.65-45.49-111.3c0,0-44.12-25.21-15.46-80,31.26-59.82,83.66-28.48,74.07-39.58C389.91,650,440,570.84,502.29,615.92c0,0,59.65-76.62,128.18-33.22C715.42,636.48,635,708.57,635,708.57s69.57,54.73-6.74,116.86c0,0,39,89.18-79.52,103.4C548.74,928.86,497.65,1002.3,410,919.42Z"/></clipPath><clipPath id="a6fac763-ae2a-4908-830d-66979f60d0b9"><path class="a1c14515-5d82-4163-a7b6-990c5fba260f" d="M1365.48,1154.07s-12.63,7.58,1.61,14.61c11.32,5.56,24.28,1.54,29.18-.67a8.29,8.29,0,0,0,4.06-5.33c.5-2.11,0-4.85-4-7.36,0,0,1.79,4.77-1.62,6.63s-6.62,3.24-15,3.08c-8-.16-15.1-3.32-16.17-5.64S1365.48,1154.07,1365.48,1154.07Z"/></clipPath><clipPath id="b044310a-9d0c-49a9-9baa-651a17f6fae3"><path class="a1c14515-5d82-4163-a7b6-990c5fba260f" d="M1361.21,1175s-8.42,14,19.18,14.57c28.32.53,19.75-16.85,19.75-16.85s.48,11.9-19.33,11.14S1361.21,1175,1361.21,1175Z"/></clipPath><clipPath id="b25884f9-d9b8-4311-90bf-64ad706ea7c2"><ellipse class="a1c14515-5d82-4163-a7b6-990c5fba260f" cx="1380.29" cy="1153.63" rx="11.03" ry="3.91" transform="translate(-14.98 18.17) rotate(-0.75)"/></clipPath><clipPath id="e1da6109-3de8-4434-8ed9-52377b0a4f12"><path class="a1c14515-5d82-4163-a7b6-990c5fba260f" d="M1336,1166.47s-12.63,7.59,1.62,14.63c11.31,5.57,24.29,1.55,29.22-.67a8.29,8.29,0,0,0,4.07-5.35c.5-2.12,0-4.86-4-7.37,0,0,1.79,4.76-1.62,6.63s-6.64,3.24-15,3.08c-8-.15-15.12-3.32-16.18-5.64S1336,1166.47,1336,1166.47Z"/></clipPath><clipPath id="bf73d976-24ce-46b4-b5f9-ccc0f5b03ebf"><path class="a1c14515-5d82-4163-a7b6-990c5fba260f" d="M1331.75,1187.43s-8.43,14.07,19.2,14.59c28.36.52,19.78-16.87,19.78-16.87s.48,11.91-19.36,11.16S1331.75,1187.43,1331.75,1187.43Z"/></clipPath><clipPath id="f58c6c2c-065d-4e72-a363-9f8f7c18deeb"><ellipse class="a1c14515-5d82-4163-a7b6-990c5fba260f" cx="1350.85" cy="1166.01" rx="11.04" ry="3.91" transform="translate(-15.15 17.78) rotate(-0.75)"/></clipPath><clipPath id="aea0a2e3-868e-4a49-9e3a-ea6aed181df2"><path class="a1c14515-5d82-4163-a7b6-990c5fba260f" d="M1402,1170.37s-15.7,9.43,2,18.18c14,6.93,30.2,1.93,36.32-.83,2.53-1.14,4.47-4.17,5.06-6.63.59-2.63,0-6-4.92-9.15,0,0,2.25,5.88-2,8.24s-8.25,4-18.62,3.83c-10-.19-18.79-4.13-20.11-7C1398.48,1174.26,1402,1170.37,1402,1170.37Z"/></clipPath><clipPath id="af6d6dd4-9393-457e-8ca1-a62f68df544a"><path class="a1c14515-5d82-4163-a7b6-990c5fba260f" d="M1396.7,1196.44s-10.48,17.49,23.86,18.13c35.24.65,24.58-21,24.58-21s.6,14.8-24.06,13.87S1396.7,1196.44,1396.7,1196.44Z"/></clipPath><clipPath id="ffcdf880-dc5c-415c-ba01-e73886d875f2"><ellipse class="a1c14515-5d82-4163-a7b6-990c5fba260f" cx="1420.45" cy="1169.81" rx="13.73" ry="4.86" transform="matrix(1, -0.01, 0.01, 1, -15.19, 18.69)"/></clipPath><clipPath id="b7787fd8-62d7-4806-9614-baaa54209b2f"><path class="a1c14515-5d82-4163-a7b6-990c5fba260f" d="M1365.37,1185.78s-15.73,9.44,2,18.2c14.06,6.94,30.23,1.94,36.36-.83,2.53-1.13,4.48-4.16,5.07-6.63.59-2.63,0-6-4.93-9.17,0,0,2.26,5.89-2,8.25s-8.25,4-18.63,3.84c-10-.19-18.81-4.13-20.14-7C1361.84,1189.69,1365.37,1185.78,1365.37,1185.78Z"/></clipPath><clipPath id="bf120954-886c-4baf-a8cc-f1ba710b50ba"><path class="a1c14515-5d82-4163-a7b6-990c5fba260f" d="M1360.05,1211.88s-10.49,17.51,23.89,18.15c35.27.65,24.6-21,24.6-21s.6,14.82-24.08,13.89S1360.05,1211.88,1360.05,1211.88Z"/></clipPath><clipPath id="ee515f76-aff4-4005-9da4-4a1bdf8ca8b5"><ellipse class="a1c14515-5d82-4163-a7b6-990c5fba260f" cx="1383.83" cy="1185.23" rx="13.74" ry="4.86" transform="translate(-15.4 18.22) rotate(-0.75)"/></clipPath><clipPath id="a015993d-0b60-4106-bd5f-c539e5e105c7"><path class="a1c14515-5d82-4163-a7b6-990c5fba260f" d="M1327.59,1190.21s-11.27,6.77,1.44,13c10.07,5,21.66,1.39,26-.6a7.44,7.44,0,0,0,3.63-4.76c.44-1.89,0-4.33-3.53-6.55,0,0,1.62,4.22-1.45,5.91s-5.91,2.89-13.35,2.75c-7.14-.14-13.48-3-14.43-5S1327.59,1190.21,1327.59,1190.21Z"/></clipPath><clipPath id="edf0b3b8-2a89-49cd-8290-04b968f7092d"><path class="a1c14515-5d82-4163-a7b6-990c5fba260f" d="M1323.77,1208.91s-7.51,12.54,17.12,13c25.28.47,17.63-15,17.63-15s.42,10.63-17.26,10S1323.77,1208.91,1323.77,1208.91Z"/></clipPath><clipPath id="b52ba90d-25fc-483e-8dae-73f8bce89e77"><ellipse class="a1c14515-5d82-4163-a7b6-990c5fba260f" cx="1340.81" cy="1189.82" rx="9.85" ry="3.49" transform="translate(-15.46 17.65) rotate(-0.75)"/></clipPath><clipPath id="a1343d20-e8c2-473d-8386-1e8db7607594"><path class="a1c14515-5d82-4163-a7b6-990c5fba260f" d="M1431,1196.9s-17.27,10.72,2.49,20.14c15.67,7.48,33.52,1.7,40.27-1.45,2.78-1.29,4.9-4.66,5.51-7.42.66-2.93-.07-6.7-5.58-10.08,0,0,2.59,6.49-2.12,9.17s-9.09,4.59-20.59,4.51c-11.06-.06-20.9-4.3-22.42-7.49C1427.17,1201.27,1431,1196.9,1431,1196.9Z"/></clipPath><clipPath id="f5c2a25d-8958-480d-bb81-f120a65b9a48"><path class="a1c14515-5d82-4163-a7b6-990c5fba260f" d="M1425.51,1225.9s-11.36,19.54,26.73,19.76c39.09.21,27-23.61,27-23.61s.87,16.41-26.48,15.72S1425.51,1225.9,1425.51,1225.9Z"/></clipPath><clipPath id="bdddc7d8-af80-4e8f-a64a-8e6c92982431"><ellipse class="a1c14515-5d82-4163-a7b6-990c5fba260f" cx="1451.46" cy="1196.05" rx="15.23" ry="5.39" transform="translate(-30.81 38.4) rotate(-1.5)"/></clipPath><clipPath id="e0fb61a1-3d25-4062-aeee-1c78f2d47419"><path class="a1c14515-5d82-4163-a7b6-990c5fba260f" d="M1389.24,1215s-17.79,11.32,2.86,20.84c16.37,7.56,34.82,1.32,41.79-2,2.87-1.39,5-4.91,5.61-7.78.64-3-.16-7-6-10.39,0,0,2.77,6.7-2.07,9.52s-9.37,4.89-21.32,5c-11.48.07-21.75-4.17-23.37-7.48C1385.3,1219.54,1389.24,1215,1389.24,1215Z"/></clipPath><clipPath id="af9cae41-d198-4f2f-ba31-65b242bbbf2e"><path class="a1c14515-5d82-4163-a7b6-990c5fba260f" d="M1383.9,1245.12s-11.53,20.44,28,20.15c40.58-.31,27.66-24.87,27.66-24.87s1.12,17-27.28,16.67S1383.9,1245.12,1383.9,1245.12Z"/></clipPath><clipPath id="b88256ec-1b8d-4499-a7fd-e0a534dca973"><ellipse class="a1c14515-5d82-4163-a7b6-990c5fba260f" cx="1410.51" cy="1213.67" rx="15.81" ry="5.6" transform="translate(-46.36 56.06) rotate(-2.24)"/></clipPath><clipPath id="aa638070-77cd-457c-a8dc-c837c57444d2"><path class="a1c14515-5d82-4163-a7b6-990c5fba260f" d="M1342.57,1236.83s-19.27,12.27,3.1,22.59c17.73,8.19,37.71,1.42,45.25-2.21,3.11-1.5,5.43-5.31,6.08-8.43.69-3.29-.19-7.52-6.42-11.25,0,0,3,7.26-2.25,10.34s-10.12,5.29-23.08,5.36c-12.44.08-23.56-4.54-25.31-8.1C1338.3,1241.8,1342.57,1236.83,1342.57,1236.83Z"/></clipPath><clipPath id="f59a84af-9266-4cc4-8148-261e68922d23"><path class="a1c14515-5d82-4163-a7b6-990c5fba260f" d="M1336.8,1269.5s-12.51,22.14,30.36,21.82c43.94-.33,29.95-26.93,29.95-26.93s1.19,18.45-29.54,18.07S1336.8,1269.5,1336.8,1269.5Z"/></clipPath><clipPath id="a0fe3f70-d981-4210-8f48-2519350d1e94"><ellipse class="a1c14515-5d82-4163-a7b6-990c5fba260f" cx="1365.61" cy="1235.44" rx="17.12" ry="6.06" transform="translate(-47.24 54.32) rotate(-2.24)"/></clipPath><clipPath id="e489b761-46e1-4f53-bf58-0999a857601c"><path class="a1c14515-5d82-4163-a7b6-990c5fba260f" d="M1815.66,940.13s89.9,20.83,83.95-82.61c0,0,49.45-5.64,44.84-66.09-5-65.91-64.3-57.94-51.38-64.23,44.76-21.78,30.26-112.43-43.21-95.9,0,0-24.09-92-102.54-79.43-97.25,15.59-52.7,111.55-52.7,111.55s-83.76,22.39-39.08,107.8c0,0-69.58,65.19,31.63,123.79C1687.15,895,1704.76,980.87,1815.66,940.13Z"/></clipPath><clipPath id="af7983b3-cca4-4b3c-924d-0026356fb209"><path class="a1c14515-5d82-4163-a7b6-990c5fba260f" d="M767.45,1227.63s-27.05,15.76,3,31.1c23.83,12.15,51.54,4,62.07-.61,4.34-1.88,7.73-7,8.78-11.2,1.12-4.48.16-10.32-8.19-15.76,0,0,3.72,10.11-3.63,14s-14.18,6.7-31.89,6.13c-17-.55-32-7.47-34.21-12.44C761.33,1234.2,767.45,1227.63,767.45,1227.63Z"/></clipPath><clipPath id="a1e1d664-b36e-46c7-8a4e-bf7607ab21cc"><path class="a1c14515-5d82-4163-a7b6-990c5fba260f" d="M757.78,1272.05s-18.28,29.64,40.37,31.5c60.18,1.9,42.46-35.27,42.46-35.27s.68,25.31-41.41,23.16S757.78,1272.05,757.78,1272.05Z"/></clipPath><clipPath id="aa1f98f6-efed-4217-bb95-48a53cedc10b"><path class="a1c14515-5d82-4163-a7b6-990c5fba260f" d="M712.08,1277.11s-22.69,13.23,2.54,26.09c20,10.2,43.24,3.33,52.08-.5,3.63-1.58,6.47-5.86,7.36-9.41.94-3.75.13-8.65-6.87-13.21,0,0,3.12,8.47-3.05,11.77s-11.9,5.62-26.75,5.14c-14.29-.46-26.86-6.26-28.7-10.43C707,1282.63,712.08,1277.11,712.08,1277.11Z"/></clipPath><clipPath id="bfdb5ac9-5ee5-4a33-aa94-c241a08cf332"><path class="a1c14515-5d82-4163-a7b6-990c5fba260f" d="M704,1314.38s-15.34,24.87,33.86,26.43c50.49,1.59,35.62-29.59,35.62-29.59s.58,21.23-34.74,19.42S704,1314.38,704,1314.38Z"/></clipPath><clipPath id="f6d2c815-2653-4671-b623-1c81ec098af2"><ellipse class="a1c14515-5d82-4163-a7b6-990c5fba260f" cx="799.14" cy="1227.05" rx="23.46" ry="8.3"/></clipPath><clipPath id="b05813bb-562d-4a7e-bbdd-1755fb498dde"><ellipse class="a1c14515-5d82-4163-a7b6-990c5fba260f" cx="738.66" cy="1276.89" rx="19.49" ry="6.9"/></clipPath></defs><path class="b6194007-7745-4509-8e8c-9b01c59c385b" d="M852.16,639.3s-50,123.93-126.22,33.48c0,0-74.75,9.87-101.2-42.93s-47.25-63.26-50.32-75.76c-3.15-13-24.67-57.53,33.26-91.73,0,0-16.2-48.42,39.36-86.25C692.74,345,768.16,352,781,400.06c0,0,129.84-46.32,120.34,105.4C901.3,505.46,986.81,570.27,852.16,639.3Z"/><path class="bfb47323-4956-400f-af2e-d51fcfc3647a" d="M1487.61,841c94.23-15,190.93,4.92,269.78,58.67,111.12,75.74,209.49,205,128,412.83-147.15,395-345.25,527.39-726.16,482.55s-223.41-214.77-859.22-242.41c-293.67-12.77-278.89-314-163.55-507.82,118.57-209.64,554.13-440.4,968.76-284.88C1319.05,840.16,1430.15,850.14,1487.61,841Z"/><g class="e97e70e8-2a38-4cf6-876f-bd430c491f4f"><path class="b0931fa5-4528-4e17-b44f-96260610c87a" d="M1655.59,1200.38s63.08,18.46,71.25,95.13c9.19,86.26-91.92,104.49-85.14,164.11,13.76,120.82-96.85,325.12-96.85,325.12L1101.39,1849s218.09-330.52,422.61-437.88c29.43-25.19,72.32-47.31,101.13-72.21,38.53-33.3,23.15-96.46-26.4-108.24-1.36-.33-2.13-.46-2.13-.46S1489.35,1160.26,1655.59,1200.38Z"/></g><path class="adca7b90-97dc-454d-9d81-b73baea34ceb" d="M410,919.42s-92.73-16.65-45.49-111.3c0,0-44.12-25.21-15.46-80,31.26-59.82,83.66-28.48,74.07-39.58C389.91,650,440,570.84,502.29,615.92c0,0,59.65-76.62,128.18-33.22C715.42,636.48,635,708.57,635,708.57s69.57,54.73-6.74,116.86c0,0,39,89.18-79.52,103.4C548.74,928.86,497.65,1002.3,410,919.42Z"/><g class="e9e74a06-f564-4117-a8bc-468cbaed6384"><path class="b6194007-7745-4509-8e8c-9b01c59c385b" d="M635,708.59s21.07-44.47-29.81-68.73c-57.23-27.29-80.7,13.88-82.68,26,0,0-63.79-46.08-75.8,39.31,0,0-85.16,37-32.11,108.13,0,0-73.84,48.28-4.54,106.12L244.53,892.65,271.46,789s83.8-170.72,90.33-181S476.86,480.37,476.86,480.37l163,34.38s157.87,98.48,62.22,87.74c-3.56-.39,48,110.34,48,110.34l-110.83-.36Z"/></g><polygon class="a7b835b4-0aba-4f4a-a836-19fc427fe6b5" points="901.59 1289.44 559.49 1119.78 560.9 682.86 730.54 546.89 919.03 908.13 901.59 1289.44"/><polygon class="bdcc186d-b47b-4659-baee-064ea9213692" points="1465.43 679.9 1465.43 1040.18 954.86 1289.44 966.76 922.27 1465.43 679.9"/><path class="a4075000-3925-4ae4-bb23-cf6a11d145f3" d="M767.53,549.8c-3.2-5.74-4.95-8.91-4.95-8.91l9.3-4.61c.35-1,.68-2,1-3l1.78,1.62,546.39-267.15c.3,34.32,12.41,56.11,45.41,139.85,43.86,111.31,128.25,273,128.25,273C1263.08,851,1014,933.35,1014,933.35a11.42,11.42,0,0,1-2.72-1.09C980.26,919.59,810.5,844,767.53,549.8Z"/><path class="b82bdba6-360f-45ae-b79f-e05d04abb6d6" d="M1321.59,250.64l-31.11-7.48S1115.25,346.82,693,520.21l32.59,12.67S965.76,467,992.3,436.31s319.52-161.23,319.52-161.23Z"/><polygon class="b348db32-9de7-4beb-8178-721e9627212e" points="1452.12 707.67 1452.12 1044.82 1443.64 1060.19 1427.39 1058.55 1425.99 719.63 1452.12 707.67"/><polygon class="f3abd68a-6557-4e1c-b63c-f3e99c3d37fd" points="1470.92 697.78 1470.92 1045.08 1443.64 1060.19 1444.77 711.09 1470.92 697.78"/><polygon class="b0b45878-578f-4b6e-91e6-22a7b9ffc908" points="931.04 1313.19 901.59 1295.23 901.59 882.9 939.73 921.05 931.04 1313.19"/><polygon class="adf0abca-76b3-4360-b923-c7ac0e9a5d18" points="931.04 1313.19 967.67 1290.49 967.67 946.62 931.04 913.1 931.04 1313.19"/><polygon class="adf0abca-76b3-4360-b923-c7ac0e9a5d18" points="547.97 1134.27 564.73 1128.98 568.39 671.61 527.55 724.45 547.97 1134.27"/><path class="a4075000-3925-4ae4-bb23-cf6a11d145f3" d="M986.92,948,1014,933.35s-44.92-7.68-255.55-400.08l-9.42,22.35S864.49,888.32,986.92,948Z"/><polygon class="b0b45878-578f-4b6e-91e6-22a7b9ffc908" points="513.41 1114.74 547.97 1134.27 547.97 692.99 513.41 714.38 513.41 1114.74"/><path class="a4075000-3925-4ae4-bb23-cf6a11d145f3" d="M1069.58,913.1s-154-54-320.52-378.29l-36.78,12.08s76.21,150.89,241.34,422.47Z"/><path class="abc1a904-642a-456f-bde7-7ad38436eeb5" d="M733,554s-41.65,46.58-252.85,191.48L473.8,727.7s110-81.54,238.48-180.81l19.21,4.67Z"/><path class="adf0abca-76b3-4360-b923-c7ac0e9a5d18" d="M1321.59,284.16S729.07,571,725.54,572V531.53s74.93-25.91,596.05-280.89Z"/><polyline class="b0b45878-578f-4b6e-91e6-22a7b9ffc908" points="725.54 531.53 692.96 520.21 692.96 553.17 725.54 572.02"/><polygon class="b348db32-9de7-4beb-8178-721e9627212e" points="1120.55 1120.18 1110.21 1117.88 1105.59 953.91 1188.34 917.7 1198.75 918.82 1120.55 1120.18"/><polygon class="f3abd68a-6557-4e1c-b63c-f3e99c3d37fd" points="1116.61 957.33 1120.55 1120.18 1200.32 1080.57 1198.75 918.82 1116.61 957.33"/><polygon class="e7bd96d4-2489-46b3-bd02-9e9dc961a672" points="1127.36 968.27 1130.26 1102.5 1155.8 1090.81 1151.09 956.03 1127.36 968.27"/><polygon class="e7bd96d4-2489-46b3-bd02-9e9dc961a672" points="1188.93 936.5 1160.98 950.92 1165.56 1086.35 1191.59 1074.44 1188.93 936.5"/><polygon class="b348db32-9de7-4beb-8178-721e9627212e" points="1148.91 956.75 1153.45 1091.89 1163.4 1087.55 1158.8 951.64 1148.91 956.75"/><polygon class="f3abd68a-6557-4e1c-b63c-f3e99c3d37fd" points="1125.44 1001.33 1191.33 975.38 1191.28 986.41 1125.39 1013 1125.44 1001.33"/><polygon class="f3abd68a-6557-4e1c-b63c-f3e99c3d37fd" points="1153.84 948 1159.05 1096.8 1168.71 1089.5 1163.81 944.59 1153.84 948"/><polygon class="b348db32-9de7-4beb-8178-721e9627212e" points="1288.45 1034.77 1278.97 1032.66 1274.74 882.35 1350.6 849.16 1360.14 850.18 1288.45 1034.77"/><polygon class="f3abd68a-6557-4e1c-b63c-f3e99c3d37fd" points="1284.84 885.49 1288.45 1034.77 1361.58 998.47 1360.14 850.18 1284.84 885.49"/><polygon class="e7bd96d4-2489-46b3-bd02-9e9dc961a672" points="1294.7 895.52 1297.35 1018.56 1320.77 1007.85 1316.45 884.3 1294.7 895.52"/><polygon class="e7bd96d4-2489-46b3-bd02-9e9dc961a672" points="1351.14 866.39 1325.52 879.62 1329.72 1003.76 1353.58 992.85 1351.14 866.39"/><polygon class="b348db32-9de7-4beb-8178-721e9627212e" points="1314.45 884.96 1318.61 1008.84 1327.73 1004.86 1323.52 880.27 1314.45 884.96"/><polygon class="f3abd68a-6557-4e1c-b63c-f3e99c3d37fd" points="1292.94 925.82 1353.34 902.04 1353.29 912.15 1292.89 936.52 1292.94 925.82"/><polygon class="f3abd68a-6557-4e1c-b63c-f3e99c3d37fd" points="1292.85 975.72 1355.07 949.55 1354.32 960.03 1293.05 986.43 1292.85 975.72"/><polygon class="f3abd68a-6557-4e1c-b63c-f3e99c3d37fd" points="1318.97 876.94 1323.74 1013.34 1332.6 1006.64 1328.11 873.81 1318.97 876.94"/><path class="abc1a904-642a-456f-bde7-7ad38436eeb5" d="M865.61,532.88S976.58,811,1060,897.74c0,0,1.43,3.11-20.4-22.39S930.45,723.43,865.61,532.88Z"/><path class="abc1a904-642a-456f-bde7-7ad38436eeb5" d="M1005.61,477S1118,754.58,1201.84,840.94c0,0,1.45,3.1-20.52-22.3S1071.39,667.27,1005.61,477Z"/><path class="abc1a904-642a-456f-bde7-7ad38436eeb5" d="M1139.22,425s112.35,277.54,196.24,363.89c0,0,1.44,3.11-20.52-22.29S1205,615.26,1139.22,425Z"/><path class="abc1a904-642a-456f-bde7-7ad38436eeb5" d="M1249.76,383.73S1362.1,661.27,1446,747.63c0,0,1.45,3.1-20.52-22.29S1315.54,574,1249.76,383.73Z"/><polygon class="f3abd68a-6557-4e1c-b63c-f3e99c3d37fd" points="1125.35 1055.77 1193.22 1027.21 1192.4 1038.65 1125.56 1067.44 1125.35 1055.77"/><path class="b6194007-7745-4509-8e8c-9b01c59c385b" d="M1479,875s81.41,83.51,113-14.8c0,0,63.63-16.8,67.49-68.2s17.19-66.74,15.52-77.86c-1.76-11.52-12.92-47.29-71-55.7,0,0,10.81-51.81-46.6-63.94-47.2-10-97.2,27.7-91.59,70.76,0,0-128.8-1.41-70.84,117.95C1395,783.16,1347.4,863.84,1479,875Z"/><path class="ed224440-c9ed-4de5-bd94-6a0668a98c31" d="M1768.17,918.21s22.63,166-17.06,216c0,0,40.63,20.39,56.47-1.78C1817.82,1118,1805.16,934.37,1768.17,918.21Z"/><path class="ed224440-c9ed-4de5-bd94-6a0668a98c31" d="M1788.23,1002.11s38-51.92,28.31-154c0,0,32,103.28-29.77,196.32-2.88,4.36,0,2.13,0,2.13Z"/><path class="adca7b90-97dc-454d-9d81-b73baea34ceb" d="M1815.66,940.13s89.9,20.83,83.95-82.61c0,0,49.45-5.64,44.84-66.09-5-65.91-64.3-57.94-51.38-64.23,44.76-21.78,30.26-112.43-43.21-95.9,0,0-24.09-92-102.54-79.43-97.25,15.59-52.7,111.55-52.7,111.55s-83.76,22.39-39.08,107.8c0,0-69.58,65.19,31.63,123.79C1687.15,895,1704.76,980.87,1815.66,940.13Z"/><path class="a1c14515-5d82-4163-a7b6-990c5fba260f" d="M1785.05,940.49s85.47,34.75,95.94-68.31c0,0,49.72,2.24,54.72-58.15,5.45-65.88-54.34-67.38-40.58-71.55,47.63-14.43,47.63-106.22-27.52-101.51,0,0,31.44-73.71-45.9-83.78-117.26-15.25-112.47,91-112.47,91S1623,657,1653.63,748.43c0,0-79,53.38,11.67,127.23C1665.3,875.66,1669.11,963.2,1785.05,940.49Z"/><path class="a1c14515-5d82-4163-a7b6-990c5fba260f" d="M1655.72,1009.79c54.26-8.63,110,2.83,155.35,33.78,64,43.61,120.63,118,73.73,237.72-88.9,226.83-214.53,262-433.87,236.19s-356.81-186-409.6-161.46-216.26-40.59-150.77-190c33.58-76.56,306.25-292.51,545-203C1558.66,1009.3,1622.63,1015.05,1655.72,1009.79Z"/><polygon class="b46e5c28-b8e6-4fe0-a513-d9e162dcf395" points="1511.68 1263.33 1261.21 1181.5 1532.79 858.25 1511.68 1263.33"/><polygon class="a7b835b4-0aba-4f4a-a836-19fc427fe6b5" points="1326.03 961.41 1321.12 1132.63 1079.79 984.4 1101.53 870.25 1322.65 959.88 1326.03 961.41"/><polygon class="bdcc186d-b47b-4659-baee-064ea9213692" points="1724.34 920.56 1340.96 1125.79 1340.96 958.35 1559.89 775.21 1731.49 851.14 1724.34 920.56"/><path class="bdcc186d-b47b-4659-baee-064ea9213692" d="M1701.88,1177l-166.63,83,1.15-231.09L1703.79,943s11.87,49.28,11.87,51.07S1715.72,1170.44,1701.88,1177Z"/><polygon class="b0b45878-578f-4b6e-91e6-22a7b9ffc908" points="1715.66 1183.58 1701.88 1176.95 1701.88 847.11 1726.98 856.84 1715.66 1183.58"/><path class="b0b45878-578f-4b6e-91e6-22a7b9ffc908" d="M1525.14,1040.07c.84,99.22-.15,220.49-9.61,236.24l-22-15.74v-220.5Z"/><polygon class="adf0abca-76b3-4360-b923-c7ac0e9a5d18" points="1539.62 1040.07 1539.62 1262.96 1515.54 1276.31 1515.54 1040.07 1539.62 1040.07"/><path class="b0b45878-578f-4b6e-91e6-22a7b9ffc908" d="M1091.67,1244.77l-22.09-11.31V844.86L1099.1,850S1108,1215.66,1091.67,1244.77Z"/><polygon class="adf0abca-76b3-4360-b923-c7ac0e9a5d18" points="1091.67 860.06 1091.67 1244.77 1115.8 1235.68 1115.8 821.47 1091.67 860.06"/><polygon class="adf0abca-76b3-4360-b923-c7ac0e9a5d18" points="1715.66 845.86 1715.66 1183.58 1738.29 1171.45 1738.29 845.19 1715.66 845.86"/><path class="b882117f-2267-4dfa-bc64-a50699411756" d="M1306.82,1336.29l-215.15-107.9,24.13-7.39v-20.13l176.38-86,153.43,80.81L1421.8,1222l72,31.46,21.68,9.24-153.12,78.86.28-81.69S1319.17,1251,1306.82,1336.29Z"/><path class="b0b45878-578f-4b6e-91e6-22a7b9ffc908" d="M1365.2,1153.05s-8,19-1.33,36.07a11.85,11.85,0,0,0,5.66,6.25c5.36,2.72,15.48,5.92,24.9-1.84a12.27,12.27,0,0,0,3.83-5.62c1.85-5.56,4.17-17.86-2.81-34.49l-9.61,6.08-10.08.76-7-2.44-3.06-4.76Z"/><path class="bdcc186d-b47b-4659-baee-064ea9213692" d="M1378.22,1160.35s.33,33.34,1.34,37.12l.44-37.15Z"/><path class="bdcc186d-b47b-4659-baee-064ea9213692" d="M1389,1158.81s3.57,14.89,1.61,36.27c0,0,4.8-11.59-.13-36.91Z"/><path class="bdcc186d-b47b-4659-baee-064ea9213692" d="M1369.59,1158.14s-3.61,15.59-1.1,36.37c0,0-4.82-12.57-.54-37.42Z"/><ellipse class="bdcc186d-b47b-4659-baee-064ea9213692" cx="1380.3" cy="1154.4" rx="15.52" ry="6.5" transform="translate(-14.99 18.17) rotate(-0.75)"/><ellipse class="e7bd96d4-2489-46b3-bd02-9e9dc961a672" cx="1380.29" cy="1153.63" rx="11.03" ry="3.91" transform="translate(-14.98 18.17) rotate(-0.75)"/><path class="bd73b241-fcc6-4a19-9dff-4d1cb46dd547" d="M1396.4,1155.32s1.78,4.77-1.62,6.63-6.63,3.24-15,3.08c-8-.16-15-3.35-16.17-5.64a3.88,3.88,0,0,1,.59-3.67,1.82,1.82,0,0,1,.11-.4,3.05,3.05,0,0,0,.13-.32.82.82,0,0,1,.06-.27c-2.65,2-9.16,8.15,2.57,14,11.31,5.56,24.54,2,29.17-.67,3.34-1.9,3.58-3.33,4.07-5.33S1400.36,1157.83,1396.4,1155.32Z"/><g class="b8ca7a1b-e255-45aa-8e48-967438317424"><path class="f5686c4e-cbba-4d22-9fd3-987d2e4ce502" d="M1396.33,1154.84c-1.9-1.3-26.54-1.27-30.41-1.26a.29.29,0,0,1,.25.27.31.31,0,0,1-.31.28h-.07v.13a.23.23,0,0,1,0,.14l0,0a.21.21,0,0,1-.1.06h-.24a.34.34,0,0,1-.09.19l0,0v1.79c0,.35-.6.37-.6,0a.76.76,0,0,1-.06.2.34.34,0,0,1-.39.2.27.27,0,0,1-.22-.32v0c.1-.28.55-2,.6-2.06l0-.38c-1.43,1.3-4,4.33-.41,7.1,4.69,3.66,11,4.83,15.75,5.06s13.06-.74,16.53-3.86C1398.8,1160.45,1398.4,1156.25,1396.33,1154.84Z"/></g><path class="bd73b241-fcc6-4a19-9dff-4d1cb46dd547" d="M1361.21,1175.21s-5.62,16.47,19.2,16.14c27.28-.35,19.73-18.61,19.73-18.61s.5,13.16-19.32,12.3S1361.21,1175.21,1361.21,1175.21Z"/><g class="a4f1d9d2-c8cc-473c-ade9-77d68a9be255"><path class="f5686c4e-cbba-4d22-9fd3-987d2e4ce502" d="M1361.15,1170.44s-6.47,14.58,19.19,15.24c26.5.67,19.74-17.6,19.74-17.6s.49,12.43-19.33,11.63S1361.15,1170.44,1361.15,1170.44Z"/></g><g class="af19c096-294b-4c8d-9769-6b39435f8556"><path class="b0b45878-578f-4b6e-91e6-22a7b9ffc908" d="M1391.25,1155.76c-1.47,1.31-5.54,2.38-10.77,2.42-5,.07-9.34-.6-11.06-2.09-1.19-1,2.23-4.41,11-4.48C1389.83,1151.51,1392.44,1154.67,1391.25,1155.76Z"/></g><path class="abc1a904-642a-456f-bde7-7ad38436eeb5" d="M1229.17,1271.63v12l-97-51.93V1220S1231.06,1241.82,1229.17,1271.63Z"/><path class="a4075000-3925-4ae4-bb23-cf6a11d145f3" d="M1229.17,1271.63s-6.64,3.73,0,12l102.2-62.29v-8.5S1230.19,1251,1229.17,1271.63Z"/><polygon class="a6ef00f7-c96c-4acc-9531-be43a70ba269" points="1331.37 1212.88 1229.17 1271.63 1132.13 1219.95 1242.84 1166.48 1331.37 1212.88"/><polygon class="a4075000-3925-4ae4-bb23-cf6a11d145f3" points="1307.15 1200.18 1203.12 1257.75 1196.53 1254.23 1302.08 1197.52 1307.15 1200.18"/><polygon class="a4075000-3925-4ae4-bb23-cf6a11d145f3" points="1273.53 1182.56 1165.13 1237.52 1160.18 1234.88 1271.51 1181.5 1273.53 1182.56"/><path class="abc1a904-642a-456f-bde7-7ad38436eeb5" d="M1220.22,1252.56v12l-97-51.93v-11.79S1222.1,1222.75,1220.22,1252.56Z"/><path class="a4075000-3925-4ae4-bb23-cf6a11d145f3" d="M1220.22,1252.56s-6.64,3.74,0,12l102.2-62.29v-8.5S1221.24,1232,1220.22,1252.56Z"/><polygon class="a6ef00f7-c96c-4acc-9531-be43a70ba269" points="1322.42 1193.81 1220.22 1252.56 1123.18 1200.88 1233.89 1147.4 1322.42 1193.81"/><polygon class="a4075000-3925-4ae4-bb23-cf6a11d145f3" points="1298.19 1181.11 1194.16 1238.68 1187.57 1235.17 1293.13 1178.45 1298.19 1181.11"/><polygon class="a4075000-3925-4ae4-bb23-cf6a11d145f3" points="1264.58 1163.49 1156.17 1218.45 1151.23 1215.82 1262.56 1162.43 1264.58 1163.49"/><polygon class="fa39d6ec-a3bb-48a0-b8bf-b84d7ce44664" points="1306.82 1355.7 1069.58 1233.46 1069.82 1216.25 1306.82 1336.29 1306.82 1355.7"/><path class="abc1a904-642a-456f-bde7-7ad38436eeb5" d="M1238.54,1240.82v12l-97-51.93v-11.8S1240.43,1211,1238.54,1240.82Z"/><path class="a4075000-3925-4ae4-bb23-cf6a11d145f3" d="M1238.54,1240.82s-6.64,3.75,0,12l102.2-62.28v-8.51S1239.56,1220.22,1238.54,1240.82Z"/><polygon class="a6ef00f7-c96c-4acc-9531-be43a70ba269" points="1340.74 1182.08 1238.54 1240.82 1141.5 1189.14 1252.21 1135.68 1340.74 1182.08"/><polygon class="a4075000-3925-4ae4-bb23-cf6a11d145f3" points="1316.52 1169.38 1212.49 1226.95 1205.9 1223.44 1311.45 1166.72 1316.52 1169.38"/><polygon class="a4075000-3925-4ae4-bb23-cf6a11d145f3" points="1282.9 1151.76 1174.5 1206.72 1169.55 1204.08 1280.88 1150.7 1282.9 1151.76"/><path class="abc1a904-642a-456f-bde7-7ad38436eeb5" d="M1229.17,1219v12l-97-51.93v-11.8S1231.06,1189.16,1229.17,1219Z"/><path class="a4075000-3925-4ae4-bb23-cf6a11d145f3" d="M1229.17,1219s-6.64,3.74,0,12l102.2-62.29v-8.5S1230.19,1198.35,1229.17,1219Z"/><polygon class="a6ef00f7-c96c-4acc-9531-be43a70ba269" points="1331.37 1160.22 1229.17 1218.97 1132.13 1167.29 1242.84 1113.81 1331.37 1160.22"/><polygon class="a4075000-3925-4ae4-bb23-cf6a11d145f3" points="1307.15 1147.52 1203.12 1205.09 1196.53 1201.58 1302.08 1144.86 1307.15 1147.52"/><polygon class="a4075000-3925-4ae4-bb23-cf6a11d145f3" points="1273.53 1129.9 1165.13 1184.86 1160.18 1182.22 1271.51 1128.84 1273.53 1129.9"/><path class="abc1a904-642a-456f-bde7-7ad38436eeb5" d="M1240.3,1210v12l-97-51.92v-11.8S1242.18,1180.2,1240.3,1210Z"/><path class="a4075000-3925-4ae4-bb23-cf6a11d145f3" d="M1240.3,1210s-6.64,3.75,0,12l102.21-62.28v-8.51S1241.33,1189.39,1240.3,1210Z"/><polygon class="a6ef00f7-c96c-4acc-9531-be43a70ba269" points="1342.51 1151.25 1240.3 1210 1143.26 1158.32 1253.98 1104.85 1342.51 1151.25"/><polygon class="a4075000-3925-4ae4-bb23-cf6a11d145f3" points="1318.28 1138.55 1214.25 1196.12 1207.66 1192.61 1313.21 1135.9 1318.28 1138.55"/><polygon class="a4075000-3925-4ae4-bb23-cf6a11d145f3" points="1284.66 1120.93 1176.26 1175.89 1171.31 1173.26 1282.64 1119.88 1284.66 1120.93"/><path class="abc1a904-642a-456f-bde7-7ad38436eeb5" d="M1234.77,1191.41v12l-97-51.92v-11.8S1236.65,1161.61,1234.77,1191.41Z"/><path class="a4075000-3925-4ae4-bb23-cf6a11d145f3" d="M1234.77,1191.41s-6.64,3.74,0,12L1337,1141.17v-8.51S1235.79,1170.8,1234.77,1191.41Z"/><polygon class="a6ef00f7-c96c-4acc-9531-be43a70ba269" points="1336.98 1132.66 1234.77 1191.41 1137.73 1139.74 1248.44 1086.27 1336.98 1132.66"/><polygon class="a4075000-3925-4ae4-bb23-cf6a11d145f3" points="1312.74 1119.96 1208.71 1177.54 1202.12 1174.03 1307.68 1117.31 1312.74 1119.96"/><polygon class="a4075000-3925-4ae4-bb23-cf6a11d145f3" points="1279.13 1102.35 1170.72 1157.31 1165.78 1154.67 1277.11 1101.29 1279.13 1102.35"/><path class="ad79272a-7490-49f6-aaaa-294508d3335d" d="M1317,1167s-100,79.27-211.24,68.48-151.79-88-166.9-154.06L1319.62,1137Z"/><path class="abc1a904-642a-456f-bde7-7ad38436eeb5" d="M1303.5,1020.66l-264-147.89v-12.5l262,132.82S1312,1009.42,1303.5,1020.66Z"/><path class="b0b45878-578f-4b6e-91e6-22a7b9ffc908" d="M1335.74,1165.44s-8,19-1.31,36.11a11.93,11.93,0,0,0,5.65,6.26c5.36,2.71,15.48,5.92,24.94-1.85a12.27,12.27,0,0,0,3.83-5.62c1.85-5.57,4.17-17.86-2.82-34.53l-9.62,6.08-10.12.76-7-2.44-3.06-4.76Z"/><path class="bdcc186d-b47b-4659-baee-064ea9213692" d="M1348.78,1172.74s.33,33.34,1.35,37.16l.44-37.18Z"/><path class="bdcc186d-b47b-4659-baee-064ea9213692" d="M1359.62,1171.24s3.57,14.92,1.6,36.31c0,0,4.81-11.6-.12-37Z"/><path class="bdcc186d-b47b-4659-baee-064ea9213692" d="M1340.14,1170.55s-3.61,15.59-1.09,36.41c0,0-4.83-12.59-.55-37.47Z"/><ellipse class="bdcc186d-b47b-4659-baee-064ea9213692" cx="1350.87" cy="1166.79" rx="15.53" ry="6.51" transform="translate(-15.16 17.78) rotate(-0.75)"/><ellipse class="e7bd96d4-2489-46b3-bd02-9e9dc961a672" cx="1350.85" cy="1166.01" rx="11.04" ry="3.91" transform="translate(-15.15 17.78) rotate(-0.75)"/><path class="bd73b241-fcc6-4a19-9dff-4d1cb46dd547" d="M1367,1167.72s1.79,4.76-1.62,6.62-6.64,3.25-15,3.09c-8-.16-15.05-3.35-16.18-5.65-.6-1.19-.06-2.6.59-3.67a1.4,1.4,0,0,1,.11-.4,1.75,1.75,0,0,0,.12-.32.9.9,0,0,1,.07-.27c-2.66,2-9.18,8.16,2.58,14,11.31,5.58,24.56,2,29.22-.66,3.34-1.91,3.57-3.34,4.07-5.36S1371,1170.22,1367,1167.72Z"/><g class="adc730e2-11e3-403d-ac59-0ed4f4ff4b6a"><path class="f5686c4e-cbba-4d22-9fd3-987d2e4ce502" d="M1366.92,1167.23c-1.9-1.3-26.57-1.27-30.45-1.26a.28.28,0,0,1,.25.3.29.29,0,0,1-.3.25h-.08a0,0,0,0,1,0,0v.08a.18.18,0,0,1,0,.14l0,.06-.11.05h-.23a.34.34,0,0,1-.09.19l0,0V1169c0,.35-.6.36-.63,0l-.07.21a.33.33,0,0,1-.38.2.28.28,0,0,1-.23-.33h0c.1-.28.55-2,.59-2.06a1.64,1.64,0,0,0,0-.38c-1.43,1.29-4,4.32-.41,7.11,4.7,3.65,11,4.83,15.77,5.06s13.09-.74,16.54-3.86C1369.38,1172.85,1369,1168.63,1366.92,1167.23Z"/></g><path class="bd73b241-fcc6-4a19-9dff-4d1cb46dd547" d="M1331.75,1187.62s-5.62,16.49,19.23,16.16c27.3-.36,19.75-18.63,19.75-18.63s.49,13.18-19.34,12.31S1331.75,1187.62,1331.75,1187.62Z"/><g class="af10f813-1144-4183-a328-dea365553407"><path class="f5686c4e-cbba-4d22-9fd3-987d2e4ce502" d="M1331.72,1182.85s-6.48,14.6,19.2,15.25c26.54.67,19.77-17.62,19.77-17.62s.49,12.45-19.35,11.65S1331.72,1182.85,1331.72,1182.85Z"/></g><g class="b5275e3b-71f4-43e5-9369-7d3017bd1488"><path class="b0b45878-578f-4b6e-91e6-22a7b9ffc908" d="M1361.83,1168.13c-1.47,1.31-5.55,2.38-10.77,2.42-5,.07-9.36-.59-11.08-2.09-1.19-1,2.22-4.42,11-4.49C1360.41,1163.9,1363,1167.07,1361.83,1168.13Z"/></g><path class="b0b45878-578f-4b6e-91e6-22a7b9ffc908" d="M1401.66,1169.11s-10,23.62-1.64,44.88a14.72,14.72,0,0,0,7,7.77c6.64,3.38,19.24,7.36,31-2.29a15.22,15.22,0,0,0,4.76-7c2.3-6.92,5.2-22.2-3.51-42.91l-12,7.55-12.53,1-8.69-3-3.8-6Z"/><path class="bdcc186d-b47b-4659-baee-064ea9213692" d="M1417.87,1178.18s.4,41.45,1.66,46.19l.55-46.21Z"/><path class="bdcc186d-b47b-4659-baee-064ea9213692" d="M1431.32,1176.27s4.45,18.55,2,45.13c0,0,6-14.42-.15-46Z"/><path class="bdcc186d-b47b-4659-baee-064ea9213692" d="M1407.13,1175.46s-4.5,19.38-1.37,45.24c0,0-6-15.64-.68-46.56Z"/><ellipse class="bdcc186d-b47b-4659-baee-064ea9213692" cx="1420.46" cy="1170.78" rx="19.31" ry="8.09" transform="translate(-15.2 18.69) rotate(-0.75)"/><ellipse class="e7bd96d4-2489-46b3-bd02-9e9dc961a672" cx="1420.45" cy="1169.81" rx="13.73" ry="4.86" transform="matrix(1, -0.01, 0.01, 1, -15.19, 18.69)"/><path class="bd73b241-fcc6-4a19-9dff-4d1cb46dd547" d="M1440.48,1171.94s2.26,5.88-2,8.24-8.25,4-18.62,3.83c-10-.19-18.71-4.17-20.12-7-.74-1.5-.08-3.24.72-4.56a1.76,1.76,0,0,1,.13-.5,2,2,0,0,0,.16-.4,3.38,3.38,0,0,1,.08-.34c-3.3,2.48-11.4,10.12,3.2,17.36,14,6.93,30.53,2.46,36.32-.83,4.17-2.38,4.47-4.17,5.06-6.63C1446,1178.46,1445.43,1175.06,1440.48,1171.94Z"/><g class="b51af854-123a-4ca4-8816-d6f827112e27"><path class="f5686c4e-cbba-4d22-9fd3-987d2e4ce502" d="M1440.39,1171.33c-2.38-1.61-33-1.58-37.83-1.57a.34.34,0,1,1-.07.68h-.09l0,.08v.09a.25.25,0,0,1,0,.17l-.06.08-.13.07a.33.33,0,0,1-.15,0h-.15a.28.28,0,0,1-.11.23l-.06.06,0,2.25c0,.43-.72.46-.77.06l-.09.25a.41.41,0,0,1-.48.25.34.34,0,0,1-.28-.4v0c.13-.35.69-2.43.75-2.56a1.56,1.56,0,0,0,0-.47c-1.79,1.61-4.93,5.35-.5,8.83,5.84,4.55,13.69,6,19.6,6.29s16.24-.92,20.56-4.77C1443.47,1178.32,1443,1173.08,1440.39,1171.33Z"/></g><path class="bd73b241-fcc6-4a19-9dff-4d1cb46dd547" d="M1396.7,1196.68s-7,20.48,23.89,20.08c33.93-.44,24.55-23.16,24.55-23.16s.6,16.38-24,15.31S1396.7,1196.68,1396.7,1196.68Z"/><g class="adb2d654-244c-4e85-8e5c-cc01438ee69b"><path class="f5686c4e-cbba-4d22-9fd3-987d2e4ce502" d="M1396.61,1190.74s-8,18.15,23.88,19c33,.84,24.57-21.9,24.57-21.9s.59,15.48-24.06,14.48S1396.61,1190.74,1396.61,1190.74Z"/></g><g class="a1c275aa-a45f-4354-8cc0-95ce8a3eb326"><path class="b0b45878-578f-4b6e-91e6-22a7b9ffc908" d="M1434.08,1172.43c-1.84,1.63-6.9,2.93-13.4,3-6.22.08-11.62-.77-13.76-2.6-1.48-1.26,2.77-5.49,13.64-5.57C1432.33,1167.19,1435.58,1171.12,1434.08,1172.43Z"/></g><path class="b0b45878-578f-4b6e-91e6-22a7b9ffc908" d="M1365,1184.52s-10,23.65-1.65,44.93a14.82,14.82,0,0,0,7,7.79c6.66,3.37,19.26,7.36,31-2.31a15.19,15.19,0,0,0,4.77-7c2.3-6.93,5.2-22.22-3.51-43l-12,7.57-12.55,1-8.69-3-3.8-6Z"/><path class="bdcc186d-b47b-4659-baee-064ea9213692" d="M1381.24,1193.61s.41,41.49,1.67,46.24l.55-46.27Z"/><path class="bdcc186d-b47b-4659-baee-064ea9213692" d="M1394.71,1191.69s4.46,18.58,2,45.18c0,0,6-14.44-.15-46Z"/><path class="bdcc186d-b47b-4659-baee-064ea9213692" d="M1370.49,1190.88s-4.5,19.41-1.37,45.31c0,0-6-15.66-.68-46.62Z"/><ellipse class="bdcc186d-b47b-4659-baee-064ea9213692" cx="1383.84" cy="1186.2" rx="19.33" ry="8.1" transform="translate(-15.41 18.22) rotate(-0.75)"/><ellipse class="e7bd96d4-2489-46b3-bd02-9e9dc961a672" cx="1383.83" cy="1185.23" rx="13.74" ry="4.86" transform="translate(-15.4 18.22) rotate(-0.75)"/><path class="bd73b241-fcc6-4a19-9dff-4d1cb46dd547" d="M1403.88,1187.35s2.26,5.89-2,8.25-8.25,4-18.63,3.84c-10-.19-18.73-4.17-20.14-7-.74-1.5-.08-3.24.72-4.57a1.61,1.61,0,0,1,.13-.49,3.33,3.33,0,0,0,.16-.4,1.87,1.87,0,0,1,.08-.34c-3.31,2.48-11.42,10.16,3.2,17.37,14.06,6.94,30.57,2.47,36.36-.83,4.17-2.38,4.48-4.16,5.07-6.63C1409.43,1193.89,1408.82,1190.48,1403.88,1187.35Z"/><g class="a82ff9a8-2cc4-4041-bc7a-72f89f913749"><path class="f5686c4e-cbba-4d22-9fd3-987d2e4ce502" d="M1403.8,1186.75c-2.38-1.61-33.06-1.59-37.88-1.58a.39.39,0,0,1,.32.34.38.38,0,0,1-.39.35h-.09v.17a.34.34,0,0,1,0,.17l-.06.07a.57.57,0,0,1-.13.08h-.29a.41.41,0,0,1-.11.23l-.07.06v2.25c0,.43-.71.46-.77.06l-.09.25a.41.41,0,0,1-.48.25.34.34,0,0,1-.28-.4v0c.13-.35.7-2.43.76-2.56l0-.48c-1.79,1.61-5,5.36-.51,8.85,5.85,4.55,13.74,6,19.65,6.29s16.26-.92,20.58-4.8C1406.87,1193.74,1406.36,1188.5,1403.8,1186.75Z"/></g><path class="bd73b241-fcc6-4a19-9dff-4d1cb46dd547" d="M1360.05,1212.12s-7,20.51,23.92,20.1c34-.44,24.57-23.18,24.57-23.18s.6,16.4-24.06,15.33S1360.05,1212.12,1360.05,1212.12Z"/><g class="eee6715a-925a-4238-813a-a1b3d1a5ed9a"><path class="f5686c4e-cbba-4d22-9fd3-987d2e4ce502" d="M1360,1206.18s-8.06,18.17,23.91,19c33,.83,24.59-21.92,24.59-21.92s.59,15.48-24.08,14.49S1360,1206.18,1360,1206.18Z"/></g><g class="aa35014f-aa81-451f-a5b2-f95be5149b82"><path class="b0b45878-578f-4b6e-91e6-22a7b9ffc908" d="M1397.48,1187.86c-1.85,1.64-6.92,2.93-13.42,3-6.23.08-11.64-.77-13.77-2.6-1.49-1.27,2.76-5.49,13.64-5.58C1395.7,1182.61,1399,1186.53,1397.48,1187.86Z"/></g><path class="b0b45878-578f-4b6e-91e6-22a7b9ffc908" d="M1327.33,1189.31s-7.14,16.94-1.19,32.19a10.53,10.53,0,0,0,5,5.57c4.77,2.43,13.8,5.29,22.23-1.64a10.9,10.9,0,0,0,3.41-5c1.65-5,3.73-15.93-2.51-30.78l-8.57,5.42-9,.68-6.22-2.17-2.73-4.27Z"/><path class="bdcc186d-b47b-4659-baee-064ea9213692" d="M1339,1195.82s.29,29.72,1.19,33.12l.39-33.14Z"/><path class="bdcc186d-b47b-4659-baee-064ea9213692" d="M1348.61,1194.46s3.19,13.3,1.43,32.36c0,0,4.3-10.35-.1-33Z"/><path class="bdcc186d-b47b-4659-baee-064ea9213692" d="M1331.25,1193.86a103.34,103.34,0,0,0-1,32.46s-4.31-11.22-.49-33.4Z"/><ellipse class="bdcc186d-b47b-4659-baee-064ea9213692" cx="1340.81" cy="1190.52" rx="13.85" ry="5.8" transform="translate(-15.47 17.65) rotate(-0.75)"/><ellipse class="e7bd96d4-2489-46b3-bd02-9e9dc961a672" cx="1340.81" cy="1189.82" rx="9.85" ry="3.49" transform="translate(-15.46 17.65) rotate(-0.75)"/><path class="bd73b241-fcc6-4a19-9dff-4d1cb46dd547" d="M1355.18,1191.34s1.62,4.22-1.45,5.91-5.91,2.89-13.35,2.74c-7.14-.13-13.41-3-14.43-5a3.5,3.5,0,0,1,.52-3.27,1.06,1.06,0,0,1,.09-.36,2.52,2.52,0,0,0,.12-.29.42.42,0,0,1,0-.24c-2.38,1.79-8.17,7.28,2.3,12.45,10.07,5,21.89,1.78,26-.6,3-1.69,3.2-3,3.63-4.76S1358.71,1193.57,1355.18,1191.34Z"/><g class="faae5268-99cd-4a15-8348-a27b2856b37f"><path class="f5686c4e-cbba-4d22-9fd3-987d2e4ce502" d="M1355.12,1190.88c-1.69-1.15-23.69-1.13-27.14-1.12a.25.25,0,0,1,.22.27.26.26,0,0,1-.27.22h-.06v.11a.17.17,0,0,1,0,.12l0,.06a.19.19,0,0,1-.09,0h-.21a.21.21,0,0,1-.08.17l0,0v1.62c0,.31-.51.32-.55,0l-.07.18a.29.29,0,0,1-.34.18.26.26,0,0,1-.21-.28v0c.09-.25.5-1.74.54-1.83a.93.93,0,0,0,0-.34c-1.27,1.19-3.53,3.85-.36,6.34,4.17,3.26,9.85,4.31,14.06,4.5s11.65-.65,14.75-3.43C1357.32,1195.91,1357,1192.16,1355.12,1190.88Z"/></g><path class="bd73b241-fcc6-4a19-9dff-4d1cb46dd547" d="M1323.78,1209.08s-5,14.7,17.13,14.4c24.34-.31,17.61-16.61,17.61-16.61s.44,11.75-17.26,11S1323.78,1209.08,1323.78,1209.08Z"/><g class="e0b28b8f-b9a4-48a8-a938-3bb29fbcec22"><path class="f5686c4e-cbba-4d22-9fd3-987d2e4ce502" d="M1323.72,1204.82s-5.78,13,17.13,13.6c23.65.6,17.62-15.71,17.62-15.71s.43,11.11-17.27,10.39S1323.72,1204.82,1323.72,1204.82Z"/></g><g class="a1856865-1170-4e38-9af2-2e0ed0b434d8"><path class="b0b45878-578f-4b6e-91e6-22a7b9ffc908" d="M1350.59,1191.7c-1.32,1.2-4.95,2.1-9.61,2.16-4.46.06-8.34-.55-9.87-1.86-1.06-.91,2-3.93,9.78-4C1349.32,1187.94,1351.66,1190.75,1350.59,1191.7Z"/></g><path class="b0b45878-578f-4b6e-91e6-22a7b9ffc908" d="M1430.62,1195.51s-10.72,26.34-1.19,49.8a16.41,16.41,0,0,0,7.91,8.52c7.42,3.65,21.43,7.88,34.33-3a16.85,16.85,0,0,0,5.19-7.81c2.45-7.74,5.44-24.7-4.51-47.54l-13.15,8.55-13.89,1.23-9.67-3.23-4.31-6.55Z"/><path class="bdcc186d-b47b-4659-baee-064ea9213692" d="M1448.72,1205.34s1.06,46,2.52,51.21l-.06-51.27Z"/><path class="bdcc186d-b47b-4659-baee-064ea9213692" d="M1463.62,1203s5.2,20.51,2.88,50c0,0,6.42-16.08-.84-51Z"/><path class="bdcc186d-b47b-4659-baee-064ea9213692" d="M1436.78,1202.47s-4.71,21.57-.86,50.21c0,0-6.88-17.26-1.43-51.63Z"/><ellipse class="bdcc186d-b47b-4659-baee-064ea9213692" cx="1451.49" cy="1197.13" rx="21.41" ry="8.97" transform="translate(-30.84 38.41) rotate(-1.5)"/><ellipse class="e7bd96d4-2489-46b3-bd02-9e9dc961a672" cx="1451.46" cy="1196.05" rx="15.23" ry="5.39" transform="translate(-30.81 38.4) rotate(-1.5)"/><path class="bd73b241-fcc6-4a19-9dff-4d1cb46dd547" d="M1473.72,1198.09s2.59,6.49-2.12,9.17-9.09,4.59-20.59,4.51c-11.06-.06-20.8-4.34-22.42-7.49-.83-1.65-.13-3.57.74-5.07a2,2,0,0,1,.13-.55,3.52,3.52,0,0,0,.18-.45,1.29,1.29,0,0,1,.08-.38c-3.63,2.79-12.5,11.43,3.8,19.21,15.67,7.48,33.9,2.29,40.27-1.45,4.58-2.68,4.9-4.66,5.51-7.42C1480,1205.24,1479.23,1201.47,1473.72,1198.09Z"/><g class="bf5554ad-cb04-4675-ba40-8e2640e8fb9b"><path class="f5686c4e-cbba-4d22-9fd3-987d2e4ce502" d="M1473.61,1197.43c-2.64-1.78-36.64-1.28-42-1.19a.38.38,0,0,1,0,.76h-.17a.25.25,0,0,1,0,.07v.11a.41.41,0,0,1,0,.19l-.07.08a.25.25,0,0,1-.14.08.43.43,0,0,1-.16,0h-.17a.38.38,0,0,1-.11.26l-.07.06.07,2.5c0,.48-.79.51-.87.07l-.09.29a.45.45,0,0,1-.52.28.37.37,0,0,1-.32-.44v0c.14-.4.74-2.71.8-2.86a2,2,0,0,0,0-.53c-1.95,1.79-5.4,6-.43,9.81,6.55,5,15.3,6.47,21.82,6.69s18-1.25,22.73-5.61C1477.12,1205.12,1476.47,1199.32,1473.61,1197.43Z"/></g><path class="bd73b241-fcc6-4a19-9dff-4d1cb46dd547" d="M1425.52,1226.16s-7.46,22.82,26.79,21.93c37.63-1,26.89-26,26.89-26s.92,18.15-26.44,17.32S1425.52,1226.16,1425.52,1226.16Z"/><g class="ba38af77-67cb-477a-b49a-b6ca84207890"><path class="f5686c4e-cbba-4d22-9fd3-987d2e4ce502" d="M1425.34,1219.57s-8.66,20.25,26.76,20.69c36.58.45,26.93-24.65,26.93-24.65s.88,17.16-26.47,16.41S1425.34,1219.57,1425.34,1219.57Z"/></g><g class="e39b32b9-06ac-454a-a052-4a4ccb4a13e9"><path class="b0b45878-578f-4b6e-91e6-22a7b9ffc908" d="M1466.62,1198.75c-2,1.83-7.61,3.34-14.81,3.53-6.9.18-12.9-.68-15.3-2.68-1.66-1.38,3-6.13,15-6.38C1464.58,1192.94,1468.26,1197.25,1466.62,1198.75Z"/></g><path class="b0b45878-578f-4b6e-91e6-22a7b9ffc908" d="M1388.8,1213.51s-10.8,27.49-.55,51.71a17.08,17.08,0,0,0,8.34,8.74c7.74,3.68,22.37,7.89,35.6-3.57a17.58,17.58,0,0,0,5.27-8.18c2.44-8,5.31-25.71-5.32-49.29l-13.54,9-14.4,1.47-10.08-3.22-4.56-6.74Z"/><path class="bdcc186d-b47b-4659-baee-064ea9213692" d="M1407.72,1223.47s1.72,47.7,3.31,53.11l-.75-53.21Z"/><path class="bdcc186d-b47b-4659-baee-064ea9213692" d="M1423.15,1220.87s5.68,21.21,3.66,51.88c0,0,6.46-16.78-1.56-52.89Z"/><path class="bdcc186d-b47b-4659-baee-064ea9213692" d="M1395.28,1220.65s-4.59,22.46-.21,52.14c0,0-7.38-17.83-2.18-53.59Z"/><ellipse class="bdcc186d-b47b-4659-baee-064ea9213692" cx="1410.56" cy="1214.79" rx="22.23" ry="9.32" transform="translate(-46.4 56.06) rotate(-2.24)"/><ellipse class="e7bd96d4-2489-46b3-bd02-9e9dc961a672" cx="1410.51" cy="1213.67" rx="15.81" ry="5.6" transform="translate(-46.36 56.06) rotate(-2.24)"/><path class="bd73b241-fcc6-4a19-9dff-4d1cb46dd547" d="M1433.57,1215.6s2.77,6.71-2.08,9.53-9.37,4.89-21.31,5c-11.48.08-21.65-4.23-23.37-7.48-.89-1.7-.18-3.73.69-5.27a2.39,2.39,0,0,1,.14-.6,2.54,2.54,0,0,0,.17-.46,1.35,1.35,0,0,1,.08-.4c-3.72,3-12.82,12,4.21,19.88,16.37,7.56,35.21,1.93,41.79-2,4.71-2.84,5-4.9,5.61-7.78S1439.34,1219,1433.57,1215.6Z"/><g class="bab956cf-c325-4a0b-b7bb-be23e19f06b5"><path class="f5686c4e-cbba-4d22-9fd3-987d2e4ce502" d="M1433.45,1214.91c-2.77-1.79-38.06-.84-43.59-.68a.4.4,0,0,1,0,.8h-.17l0,.08v.11a.29.29,0,0,1,0,.2l-.07.09a.29.29,0,0,1-.14.08.34.34,0,0,1-.17.05h-.18a.32.32,0,0,1-.12.26l-.06.08.1,2.59a.46.46,0,0,1-.89.08.82.82,0,0,1-.1.3.45.45,0,0,1-.54.3.4.4,0,0,1-.34-.45v0c.14-.41.72-2.81.79-3l0-.55c-2,1.91-5.53,6.34-.32,10.18,6.86,5.06,16,6.51,22.75,6.66s18.67-1.55,23.52-6.15C1437.19,1222.85,1436.45,1216.84,1433.45,1214.91Z"/></g><path class="bd73b241-fcc6-4a19-9dff-4d1cb46dd547" d="M1383.91,1245.39s-7.43,23.82,28.1,22.4c39-1.53,27.57-27.39,27.57-27.39s1.19,18.84-27.21,18.35S1383.91,1245.39,1383.91,1245.39Z"/><g class="a707a054-29ae-41d7-9c92-c5ac9871bd0b"><path class="f5686c4e-cbba-4d22-9fd3-987d2e4ce502" d="M1383.65,1238.56s-8.73,21.13,28,21.11c38,0,27.62-26,27.62-26s1.15,17.79-27.25,17.4S1383.65,1238.56,1383.65,1238.56Z"/></g><g class="bca1df5f-867a-47fd-8ebd-e80a0f36201b"><path class="b0b45878-578f-4b6e-91e6-22a7b9ffc908" d="M1426.21,1216.38c-2.06,1.94-7.85,3.57-15.33,3.87-7.14.28-13.4-.53-15.92-2.58-1.74-1.41,3-6.4,15.53-6.82C1424,1210.39,1427.89,1214.8,1426.21,1216.38Z"/></g><path class="b0b45878-578f-4b6e-91e6-22a7b9ffc908" d="M1342.09,1235.27s-11.69,29.76-.6,56a18.45,18.45,0,0,0,9,9.46c8.4,4,24.22,8.55,38.56-3.87a19,19,0,0,0,5.71-8.86c2.64-8.71,5.75-27.84-5.77-53.38l-14.65,9.81-15.6,1.58-10.92-3.48-4.93-7.3Z"/><path class="bdcc186d-b47b-4659-baee-064ea9213692" d="M1362.59,1246.06s1.86,51.64,3.57,57.52l-.82-57.63Z"/><path class="bdcc186d-b47b-4659-baee-064ea9213692" d="M1379.31,1243.23s6.14,23,4,56.19c0,0,7-18.17-1.68-57.28Z"/><path class="bdcc186d-b47b-4659-baee-064ea9213692" d="M1349.11,1243s-5,24.32-.22,56.46c0,0-8-19.3-2.38-58Z"/><ellipse class="bdcc186d-b47b-4659-baee-064ea9213692" cx="1365.66" cy="1236.65" rx="24.08" ry="10.09" transform="translate(-47.29 54.32) rotate(-2.24)"/><ellipse class="e7bd96d4-2489-46b3-bd02-9e9dc961a672" cx="1365.61" cy="1235.44" rx="17.12" ry="6.06" transform="translate(-47.24 54.32) rotate(-2.24)"/><path class="bd73b241-fcc6-4a19-9dff-4d1cb46dd547" d="M1390.58,1237.53s3,7.26-2.24,10.34-10.12,5.29-23.09,5.36c-12.43.08-23.45-4.58-25.3-8.1-1-1.84-.21-4,.75-5.71a2.41,2.41,0,0,1,.14-.59,5.27,5.27,0,0,0,.19-.51,1.56,1.56,0,0,1,.08-.42c-4,3.19-13.87,13,4.56,21.53,17.73,8.18,38.11,2.08,45.25-2.22,5.1-3.08,5.43-5.3,6.08-8.42C1397.7,1245.49,1396.82,1241.26,1390.58,1237.53Z"/><g class="a1231401-c972-4d9d-9333-412cbb25966b"><path class="f5686c4e-cbba-4d22-9fd3-987d2e4ce502" d="M1390.45,1236.78c-3-1.93-41.21-.9-47.21-.73a.43.43,0,0,1-.07.86h-.11l0,.09v.11a.33.33,0,0,1-.06.22l-.07.1a.46.46,0,0,1-.15.09.67.67,0,0,1-.19,0,.58.58,0,0,1-.19,0h0a.4.4,0,0,1-.12.29l-.08.07.11,2.81a.49.49,0,0,1-1,.09c0,.11-.07.22-.1.33a.53.53,0,0,1-.6.32.45.45,0,0,1-.37-.5v0c.15-.44.79-3,.86-3.22l0-.59c-2.16,2.07-6,6.86-.34,11,7.43,5.49,17.31,7.06,24.63,7.21s20.25-1.67,25.47-6.65C1394.5,1245.39,1393.7,1238.87,1390.45,1236.78Z"/></g><path class="bd73b241-fcc6-4a19-9dff-4d1cb46dd547" d="M1336.81,1269.79s-8,25.77,30.43,24.26c42.27-1.66,29.85-29.66,29.85-29.66s1.3,20.39-29.47,19.86S1336.81,1269.79,1336.81,1269.79Z"/><polygon class="b882117f-2267-4dfa-bc64-a50699411756" points="931.04 1285.97 669.44 1425.3 281.55 1210.13 518.95 1095.96 931.04 1285.97"/><g class="e493c55c-4b3b-4005-bc8e-13e7d74dc6d6"><path class="f5686c4e-cbba-4d22-9fd3-987d2e4ce502" d="M1336.52,1262.4s-9.45,22.89,30.36,22.85c41.13,0,29.91-28.09,29.91-28.09s1.25,19.26-29.51,18.83S1336.52,1262.4,1336.52,1262.4Z"/></g><g class="a6640c2e-7a54-414a-86f6-9dd3cee781e0"><path class="b0b45878-578f-4b6e-91e6-22a7b9ffc908" d="M1382.62,1238.37c-2.24,2.1-8.51,3.88-16.61,4.17-7.74.31-14.51-.59-17.23-2.78-1.89-1.53,3.26-6.93,16.81-7.4C1380.23,1231.89,1384.44,1236.67,1382.62,1238.37Z"/></g><path class="b0b45878-578f-4b6e-91e6-22a7b9ffc908" d="M1333.37,1372.56l-26.55-16.86,3.29-382.57,32.21,4.62S1353,1343.44,1333.37,1372.56Z"/><polygon class="adf0abca-76b3-4360-b923-c7ac0e9a5d18" points="1333.38 987.84 1333.38 1372.56 1362.39 1358.26 1362.39 949.26 1333.38 987.84"/><path class="abc1a904-642a-456f-bde7-7ad38436eeb5" d="M609.12,1330.37l-1.32,23.08L379.36,1240.57l1.29-22.6S616.94,1273.54,609.12,1330.37Z"/><path class="a4075000-3925-4ae4-bb23-cf6a11d145f3" d="M609.12,1330.37s-16.43,6.25-1.32,23.08l253.44-105.19.93-16.3S613.85,1291,609.12,1330.37Z"/><polygon class="a6ef00f7-c96c-4acc-9531-be43a70ba269" points="862.17 1231.96 609.12 1330.37 380.65 1217.97 653.65 1130.85 862.17 1231.96"/><polygon class="a4075000-3925-4ae4-bb23-cf6a11d145f3" points="805.11 1204.3 547.78 1300.19 532.26 1292.55 793.18 1198.51 805.11 1204.3"/><polygon class="a4075000-3925-4ae4-bb23-cf6a11d145f3" points="725.94 1165.9 458.33 1256.18 446.69 1250.46 721.17 1163.59 725.94 1165.9"/><path class="abc1a904-642a-456f-bde7-7ad38436eeb5" d="M593.09,1299.8l-1.32,23.08L363.32,1210l1.3-22.6S600.9,1243,593.09,1299.8Z"/><path class="a4075000-3925-4ae4-bb23-cf6a11d145f3" d="M593.09,1299.8s-16.43,6.25-1.32,23.08L845.21,1217.7l.93-16.3S597.82,1260.47,593.09,1299.8Z"/><polygon class="a6ef00f7-c96c-4acc-9531-be43a70ba269" points="846.14 1201.4 593.09 1299.8 364.62 1187.4 637.62 1100.29 846.14 1201.4"/><polygon class="a4075000-3925-4ae4-bb23-cf6a11d145f3" points="789.08 1173.73 531.75 1269.63 516.23 1261.99 777.14 1167.94 789.08 1173.73"/><polygon class="a4075000-3925-4ae4-bb23-cf6a11d145f3" points="709.9 1135.34 442.3 1225.62 430.66 1219.89 705.14 1133.03 709.9 1135.34"/><path class="abc1a904-642a-456f-bde7-7ad38436eeb5" d="M627.82,1273l-1.32,23.08L398.05,1183.24l1.3-22.6S635.63,1216.22,627.82,1273Z"/><path class="a4075000-3925-4ae4-bb23-cf6a11d145f3" d="M627.82,1273s-16.43,6.25-1.32,23.08l253.44-105.18.93-16.3S632.55,1233.71,627.82,1273Z"/><polygon class="a6ef00f7-c96c-4acc-9531-be43a70ba269" points="880.87 1174.64 627.82 1273.04 399.35 1160.64 672.35 1073.53 880.87 1174.64"/><polygon class="a4075000-3925-4ae4-bb23-cf6a11d145f3" points="823.81 1146.97 566.48 1242.87 550.96 1235.23 811.87 1141.18 823.81 1146.97"/><polygon class="a4075000-3925-4ae4-bb23-cf6a11d145f3" points="744.63 1108.58 477.03 1198.86 465.39 1193.13 739.87 1106.27 744.63 1108.58"/><path class="abc1a904-642a-456f-bde7-7ad38436eeb5" d="M630.83,1243.69V1268l-196.13-105v-23.84S634.64,1183.45,630.83,1243.69Z"/><path class="a4075000-3925-4ae4-bb23-cf6a11d145f3" d="M630.83,1243.69s-13.42,7.56,0,24.35l206.58-125.9v-17.2S632.9,1202,630.83,1243.69Z"/><polygon class="a6ef00f7-c96c-4acc-9531-be43a70ba269" points="837.41 1124.94 630.84 1243.69 434.7 1139.24 658.47 1031.16 837.41 1124.94"/><polygon class="a4075000-3925-4ae4-bb23-cf6a11d145f3" points="788.44 1099.28 578.17 1215.64 564.85 1208.55 778.2 1093.91 788.44 1099.28"/><polygon class="a4075000-3925-4ae4-bb23-cf6a11d145f3" points="720.5 1063.67 501.39 1174.75 491.39 1169.43 716.41 1061.53 720.5 1063.67"/><path class="abc1a904-642a-456f-bde7-7ad38436eeb5" d="M616.41,1222.49l-1.32,23.08L386.64,1132.69l1.3-22.6S624.23,1165.66,616.41,1222.49Z"/><path class="a4075000-3925-4ae4-bb23-cf6a11d145f3" d="M616.41,1222.49s-16.43,6.25-1.32,23.08l253.44-105.19.93-16.3S621.14,1183.15,616.41,1222.49Z"/><polygon class="a6ef00f7-c96c-4acc-9531-be43a70ba269" points="869.46 1124.08 616.41 1222.49 387.94 1110.09 660.94 1022.97 869.46 1124.08"/><polygon class="a4075000-3925-4ae4-bb23-cf6a11d145f3" points="812.4 1096.41 555.07 1192.31 539.55 1184.67 800.47 1090.63 812.4 1096.41"/><polygon class="a4075000-3925-4ae4-bb23-cf6a11d145f3" points="733.23 1058.02 465.62 1148.3 453.98 1142.58 728.46 1055.71 733.23 1058.02"/><path class="abc1a904-642a-456f-bde7-7ad38436eeb5" d="M615.76,1177.5l-1.32,23.08L386,1087.7l1.29-22.6S623.58,1120.67,615.76,1177.5Z"/><path class="a4075000-3925-4ae4-bb23-cf6a11d145f3" d="M615.76,1177.5s-16.43,6.25-1.32,23.08l253.44-105.19.93-16.3S620.49,1138.16,615.76,1177.5Z"/><polygon class="a6ef00f7-c96c-4acc-9531-be43a70ba269" points="868.81 1079.09 615.76 1177.5 387.29 1065.1 660.29 977.98 868.81 1079.09"/><polygon class="a4075000-3925-4ae4-bb23-cf6a11d145f3" points="811.75 1051.42 554.42 1147.32 538.9 1139.68 799.82 1045.64 811.75 1051.42"/><polygon class="a4075000-3925-4ae4-bb23-cf6a11d145f3" points="732.58 1013.03 464.98 1103.32 453.33 1097.59 727.81 1010.72 732.58 1013.03"/><path class="fc3ac54d-6a7a-4d2c-ad4c-bff53d1c71e0" d="M1105.59,1020.7s-73.52,59.74-166.58,61.07c0,0,60.75,121.39,169.12,127.57,165,9.4,204-68.15,204-68.15l-8.9-26.91Z"/><path class="ad79272a-7490-49f6-aaaa-294508d3335d" d="M901.59,1081.38s-199.23,104.8-309.68,121.95c-213.41,33.12-321.64-161.64-336.75-227.65l646.43,69.14Z"/><path class="fc3ac54d-6a7a-4d2c-ad4c-bff53d1c71e0" d="M553.73,879.9s-125.35,84.24-298.57,95.78h0c64,121,231.21,212.07,365.75,187,155.26-28.94,280.68-117.85,280.68-117.85Z"/><path class="ad79272a-7490-49f6-aaaa-294508d3335d" d="M1155.76,1052.8s14.37,50.59-104.59,58.76c0,0,120.37-33.09,82.59-81.08Z"/><path class="ad79272a-7490-49f6-aaaa-294508d3335d" d="M1200.3,1083.37s38.86,98.18-157.38,77.5c0,0,188.26-27.72,133.92-98.3Z"/><path class="ad79272a-7490-49f6-aaaa-294508d3335d" d="M1141.58,1045.5s-1.44,36.87-88,25.72c0,0,86.32,3.06,75-38.86Z"/><path class="b0b45878-578f-4b6e-91e6-22a7b9ffc908" d="M1037,1310s-9.59,11.71-19.08,8.52L907.72,1079.65l28.64-13.56Z"/><path class="adf0abca-76b3-4360-b923-c7ac0e9a5d18" d="M919.35,1069.1c-5.49,3.05-13.29,7.38-11.65,10.56s7.1,4.34,15.76-.09,14.36-10.63,12.72-13.81S927.89,1064.39,919.35,1069.1Z"/><path class="b585a104-e298-439d-9bb9-be74a58eee41" d="M1788.74,1145.28c0-1.35.47-18.73,3.87-28a.15.15,0,0,0-.1-.2.14.14,0,0,0-.16,0c-2.51,2.48-13.15,13.6-13.1,23.48.08,10.62,8.52,5.43,9.39,4.87A.19.19,0,0,0,1788.74,1145.28Z"/><path class="b585a104-e298-439d-9bb9-be74a58eee41" d="M1781.26,1147.46c-.39-1.59-6.29-26.24-4.89-40.33a.16.16,0,0,0-.14-.17.17.17,0,0,0-.16.07c-2.22,3.75-13.35,23.49-9.57,37.35,4,14.71,13.88,4.17,14.72,3.23A.16.16,0,0,0,1781.26,1147.46Z"/><path class="b585a104-e298-439d-9bb9-be74a58eee41" d="M1788,1145.59c.63-1,7.74-12.58,9.6-20.24a.17.17,0,0,1,.19-.12.15.15,0,0,1,.13.12c.63,3,2.73,14.77-1.56,21.22-4.65,7-8,0-8.38-.84A.18.18,0,0,1,1788,1145.59Z"/><polygon class="a6ef00f7-c96c-4acc-9531-be43a70ba269" points="1524.14 822.5 1301.46 1006.36 1039.47 860.26 1268.23 671.15 1360.96 709.75 1524.14 822.5"/><polygon class="abc1a904-642a-456f-bde7-7ad38436eeb5" points="1546.09 819.43 1761.93 869.48 1769.08 859.26 1570.26 768.35 1555.4 781.52 1546.09 819.43"/><polygon class="a4075000-3925-4ae4-bb23-cf6a11d145f3" points="1301.45 1006.36 1303.5 1020.66 1546.09 819.43 1555.4 781.52 1301.45 1006.36"/><polygon class="a4075000-3925-4ae4-bb23-cf6a11d145f3" points="1769.08 859.26 1560.91 808.19 1381.26 723.54 1298.03 659.04 1527.19 716.01 1769.08 859.26"/><path class="b0b45878-578f-4b6e-91e6-22a7b9ffc908" d="M1261.21,652.72l5.17,16.88,264,164.31,2.38-26.43S1317.05,665.37,1261.21,652.72Z"/><polygon class="adf0abca-76b3-4360-b923-c7ac0e9a5d18" points="1559.89 796.72 1559.89 820.85 1530.42 833.91 1522.66 811.49 1526.92 796.72 1559.89 796.72"/><polygon class="b82bdba6-360f-45ae-b79f-e05d04abb6d6" points="1559.89 796.72 1522.66 811.49 1261.21 652.72 1288.53 648.49 1559.89 796.72"/><path class="a4075000-3925-4ae4-bb23-cf6a11d145f3" d="M1396.3,758.42,1194.19,935.8s78-61.06,132.94-111.93S1396.3,758.42,1396.3,758.42Z"/><path class="a4075000-3925-4ae4-bb23-cf6a11d145f3" d="M1312.18,707.34,1110.05,884.72s78-61.06,133-111.93S1312.18,707.34,1312.18,707.34Z"/><path class="abc1a904-642a-456f-bde7-7ad38436eeb5" d="M1563.91,740.92l-142.5-33.58S1506.75,733.65,1563.91,740.92Z"/><path class="abc1a904-642a-456f-bde7-7ad38436eeb5" d="M1645.21,792l-142.5-33.57S1588.08,784.73,1645.21,792Z"/><path class="b0b45878-578f-4b6e-91e6-22a7b9ffc908" d="M1556.5,1113.31V1133l9.07,5.75s6.5-18,0-21.07S1566.59,1109.74,1556.5,1113.31Z"/><path class="b82bdba6-360f-45ae-b79f-e05d04abb6d6" d="M1692.36,1048.33l-10.47-1.41-125.39,66.39,9.07,4.35S1681.89,1066.07,1692.36,1048.33Z"/><polygon class="b0b45878-578f-4b6e-91e6-22a7b9ffc908" points="1579.48 1248.15 1571.31 1242.53 1571.31 1129.91 1582.42 1125.39 1579.48 1248.15"/><path class="ad79272a-7490-49f6-aaaa-294508d3335d" d="M1655.74,1199.93l-67.07,33.94v-119l72.49-34.58S1665.46,1189.25,1655.74,1199.93Z"/><polygon class="b0b45878-578f-4b6e-91e6-22a7b9ffc908" points="1663.77 1203.26 1655.73 1199.93 1655.6 1084.79 1666.71 1080.27 1663.77 1203.26"/><path class="adf0abca-76b3-4360-b923-c7ac0e9a5d18" d="M1681.32,1190.71l-.07-114.42,11.11-7.28v-20.68l-126.82,69.33v21.06l98.83-53.62-.59,118.15S1681.82,1201.6,1681.32,1190.71Z"/><path class="adf0abca-76b3-4360-b923-c7ac0e9a5d18" d="M1597.84,1114.85v123.07s-8.68,12.25-18.39,10.21V1123Z"/><polygon class="fc3ac54d-6a7a-4d2c-ad4c-bff53d1c71e0" points="1649.07 1102.34 1649.07 1194.35 1642.56 1196.57 1642.56 1114.85 1632.6 1120.34 1634.52 1168.99 1628.96 1171.66 1625.53 1114.85 1649.07 1102.34"/><polygon class="fc3ac54d-6a7a-4d2c-ad4c-bff53d1c71e0" points="1634.47 1210.18 1634.47 1178.49 1628.96 1181.61 1628.96 1212.36 1634.47 1210.18"/><polygon class="fc3ac54d-6a7a-4d2c-ad4c-bff53d1c71e0" points="1621.5 1117.66 1623.41 1203.03 1616.91 1205.37 1614.22 1131.06 1606.95 1135.28 1609.68 1218.6 1603.5 1221.08 1599.99 1130.34 1621.5 1117.66"/><polygon class="b0b45878-578f-4b6e-91e6-22a7b9ffc908" points="1312.18 1108.44 1101.53 994.1 1101.53 1024.75 1312.18 1141.19 1312.18 1108.44"/><polygon class="adf0abca-76b3-4360-b923-c7ac0e9a5d18" points="1355.75 1110.52 1725.53 911.92 1725.53 940.52 1355.75 1145.84 1355.75 1110.52"/><polygon class="b82bdba6-360f-45ae-b79f-e05d04abb6d6" points="1715.66 917.22 1701.88 914.94 1362.39 1093.18 1362.39 1106.96 1715.66 917.22"/><polygon class="b82bdba6-360f-45ae-b79f-e05d04abb6d6" points="1309.11 1107.3 1309.11 1096.87 1115.8 994.1 1101.53 994.1 1309.11 1107.3"/><polygon class="a747b2ba-2cbf-4518-a694-e9469e57c393" points="1515.54 1262.62 1515.54 1276.31 1362.39 1358.26 1362.39 1341.48 1515.54 1262.62"/><path class="b82bdba6-360f-45ae-b79f-e05d04abb6d6" d="M1529.88,854.29l8.34-.81L1672,889.85,1400.88,1033a42.21,42.21,0,0,1-10.77,12.08l-7.67-2.32Z"/><polygon class="adf0abca-76b3-4360-b923-c7ac0e9a5d18" points="1680.41 891.53 1390.08 1045.05 1538.19 853.48 1680.41 891.53"/><polygon class="e7bd96d4-2489-46b3-bd02-9e9dc961a672" points="1453.47 990.88 1538.77 887.22 1538.77 945.78 1453.47 990.88"/><polygon class="b0b45878-578f-4b6e-91e6-22a7b9ffc908" points="1538.77 887.22 1543.89 881.01 1543.89 943.07 1538.77 945.78 1538.77 887.22"/><polygon class="e7bd96d4-2489-46b3-bd02-9e9dc961a672" points="1547.93 876.08 1554.29 877.48 1554.29 882.25 1627.95 898.62 1634.47 895.17 1543.89 943.07 1543.89 881.01 1547.93 876.08"/><polygon class="adf0abca-76b3-4360-b923-c7ac0e9a5d18" points="1543.89 874.75 1543.89 868.72 1554.29 874.59 1554.29 945.71 1549.17 948.06 1549.17 877.74 1543.89 874.75"/><polygon class="adf0abca-76b3-4360-b923-c7ac0e9a5d18" points="1543.89 874.75 1549.17 877.74 1549.17 948.06 1543.89 950.5 1543.89 874.75"/><polygon class="b0b45878-578f-4b6e-91e6-22a7b9ffc908" points="1554.29 882.25 1554.29 877.48 1634.47 895.17 1627.95 898.62 1554.29 882.25"/><path class="adf0abca-76b3-4360-b923-c7ac0e9a5d18" d="M723.45,730.71l-8.37-.3L583.79,774.93l279.39,126.2c1.83,2.87,5.26,7,11.49,11.4l7.51-2.8Z"/><polygon class="b0b45878-578f-4b6e-91e6-22a7b9ffc908" points="575.49 777.12 874.7 912.53 715.1 730.41 575.49 777.12"/><polygon class="e7bd96d4-2489-46b3-bd02-9e9dc961a672" points="808.1 862.36 716.6 764.13 720.19 822.58 808.1 862.36"/><polygon class="adf0abca-76b3-4360-b923-c7ac0e9a5d18" points="716.6 764.13 711.11 758.24 714.92 820.19 720.19 822.58 716.6 764.13"/><polygon class="e7bd96d4-2489-46b3-bd02-9e9dc961a672" points="706.77 753.57 700.51 755.36 700.81 760.12 628.29 780.98 621.56 777.94 714.92 820.19 711.11 758.24 706.77 753.57"/><polygon class="b0b45878-578f-4b6e-91e6-22a7b9ffc908" points="710.73 752 710.36 745.97 700.34 752.47 704.7 823.46 709.95 825.49 705.63 755.31 710.73 752"/><polygon class="b0b45878-578f-4b6e-91e6-22a7b9ffc908" points="710.73 752 705.63 755.31 709.95 825.49 715.38 827.6 710.73 752"/><polygon class="b0b45878-578f-4b6e-91e6-22a7b9ffc908" points="700.81 760.12 700.51 755.36 621.56 777.94 628.29 780.98 700.81 760.12"/><path class="b0b45878-578f-4b6e-91e6-22a7b9ffc908" d="M1231.18,1427.37s-9.64,15.18-22.14,8.23l-118.19-290.18,38.3-16.62Z"/><ellipse class="adf0abca-76b3-4360-b923-c7ac0e9a5d18" cx="1110.04" cy="1137.01" rx="20.88" ry="10.83" transform="translate(-361.1 536.42) rotate(-23.48)"/><path class="b0b45878-578f-4b6e-91e6-22a7b9ffc908" d="M354.23,1212s-9.41,11.49-18.71,8.35l-108-234.2,28.07-13.3Z"/><path class="adf0abca-76b3-4360-b923-c7ac0e9a5d18" d="M238.87,975.84c-5.38,3-13,7.23-11.42,10.35s7,4.25,15.45-.09,14.08-10.42,12.47-13.54S247.24,971.22,238.87,975.84Z"/><path class="b0b45878-578f-4b6e-91e6-22a7b9ffc908" d="M683.12,1389.34s-10.38,16.34-23.83,8.85L532.06,1085.84,573.3,1068Z"/><ellipse class="adf0abca-76b3-4360-b923-c7ac0e9a5d18" cx="552.72" cy="1076.78" rx="22.48" ry="11.66" transform="translate(-383.26 309.38) rotate(-23.48)"/><g class="b00a33c2-c9a8-41b7-ac92-6f9210d5c8ac"><path class="b6194007-7745-4509-8e8c-9b01c59c385b" d="M1694.62,663.45s-1.78-48.17,53.39-50.35c62-2.46,67.27,43.67,64.36,55.36,0,0,75.23-16.83,53.05,64.67,0,0,62.36,66.21-12.87,109.73,0,0,47.81,72-36.91,97.28L1975,980l15.81-103.74s-9.47-186-11.36-197.85-54.3-159.27-54.3-159.27l-160-32s-180.15,27.65-89.9,54.95c3.36,1-85.86,80.76-85.86,80.76l99.9,42.49Z"/></g><polygon class="b0b45878-578f-4b6e-91e6-22a7b9ffc908" points="553.73 843.88 907.72 1001.44 901.59 1044.82 553.73 879.9 553.73 843.88"/><polygon class="b82bdba6-360f-45ae-b79f-e05d04abb6d6" points="553.73 843.88 567.07 842.46 901.59 984.67 901.59 998.73 553.73 843.88"/><path class="ad79272a-7490-49f6-aaaa-294508d3335d" d="M602.86,903.19s-32.23,88.24-138,85.2c0,0,124.86,23.67,164.57-72.61Z"/><path class="ad79272a-7490-49f6-aaaa-294508d3335d" d="M668.46,934.29s7.68,107.61-90.37,103.35c0,0,111.69,22.56,117.34-90.56Z"/><polygon class="a747b2ba-2cbf-4518-a694-e9469e57c393" points="931.04 1313.19 669.44 1458.7 669.44 1425.3 931.04 1285.97 931.04 1313.19"/><polygon class="fa39d6ec-a3bb-48a0-b8bf-b84d7ce44664" points="669.44 1458.7 282 1236.45 281.55 1210.13 669.44 1425.3 669.44 1458.7"/><path class="b0b45878-578f-4b6e-91e6-22a7b9ffc908" d="M831.26,1225.46s17.61,40.14,3.8,76.64a25.17,25.17,0,0,1-11.84,13.44c-11.28,5.92-32.7,13-53-3.23a26,26,0,0,1-8.29-11.82c-4.08-11.78-9.37-37.81,5-73.4l20.59,12.65,21.44,1.33,14.76-5.36,6.36-10.25Z"/><path class="bdcc186d-b47b-4659-baee-064ea9213692" d="M803.78,1241.34s.22,70.81-1.83,78.94l-2-78.94Z"/><path class="bdcc186d-b47b-4659-baee-064ea9213692" d="M780.74,1238.37s-7.18,31.79-2.41,77.14c0,0-10.54-24.51-.77-78.51Z"/><path class="bdcc186d-b47b-4659-baee-064ea9213692" d="M822.06,1236.43s8.11,33,3.34,77.29c0,0,9.9-26.86.12-79.57Z"/><ellipse class="bdcc186d-b47b-4659-baee-064ea9213692" cx="799.14" cy="1228.71" rx="32.99" ry="13.82"/><ellipse class="e7bd96d4-2489-46b3-bd02-9e9dc961a672" cx="799.14" cy="1227.05" rx="23.46" ry="8.3"/><path class="bd73b241-fcc6-4a19-9dff-4d1cb46dd547" d="M833.14,1231.16s3.72,10.11-3.63,14-14.18,6.7-31.89,6.13c-17-.55-31.86-7.53-34.21-12.44-1.23-2.58-.06-5.54,1.33-7.78a2.82,2.82,0,0,1,.23-.85,4,4,0,0,0,.28-.68c0-.2.08-.39.14-.58-5.69,4.16-19.7,17.09,5.09,29.73,23.83,12.15,52.1,4.89,62.07-.61,7.15-3.94,7.73-7,8.78-11.2C842.45,1242.44,841.49,1236.6,833.14,1231.16Z"/><g class="a74aeadf-387d-49ab-8b50-5724d0a61acc"><path class="f5686c4e-cbba-4d22-9fd3-987d2e4ce502" d="M833,1230.13c-4-2.8-56.37-3.45-64.6-3.53a.59.59,0,1,1-.14,1.17h-.15l.06.12,0,.16a.55.55,0,0,1-.09.3l-.1.12a.78.78,0,0,1-.22.12.55.55,0,0,1-.26.05.53.53,0,0,1-.25-.05h0a.56.56,0,0,1-.19.39l-.11.1v3.85c0,.73-1.23.76-1.32.08,0,.14-.1.29-.16.43a.69.69,0,0,1-.82.41.6.6,0,0,1-.47-.72c.23-.6,1.24-4.14,1.35-4.36s.09-.81.09-.81c-3.08,2.71-8.56,9.08-1.06,15.08,9.88,7.9,23.32,10.58,33.34,11.18s27.77-1.21,35.23-7.73C838.09,1242.13,837.34,1233.17,833,1230.13Z"/></g><path class="bd73b241-fcc6-4a19-9dff-4d1cb46dd547" d="M757.78,1272.45s-18.28,32.79,40.37,34.85c60.18,2.1,42.46-39,42.46-39s.68,28-41.41,25.62S757.78,1272.45,757.78,1272.45Z"/><g class="a71e187b-df0f-41b7-99f0-6a1c22a4a636"><path class="f5686c4e-cbba-4d22-9fd3-987d2e4ce502" d="M757.78,1262.31s-14.16,30.83,40.37,32.92c56.32,2.17,42.46-36.86,42.46-36.86s.68,26.45-41.41,24.2S757.78,1262.31,757.78,1262.31Z"/></g><path class="b0b45878-578f-4b6e-91e6-22a7b9ffc908" d="M765.61,1275.29s14.77,33.67,3.19,64.3a21.15,21.15,0,0,1-9.93,11.28c-9.46,5-27.44,10.91-44.46-2.72a21.85,21.85,0,0,1-7-9.92c-3.42-9.88-7.86-31.71,4.23-61.57L729,1287.27l18,1.12,12.39-4.5,5.34-8.6Z"/><path class="bdcc186d-b47b-4659-baee-064ea9213692" d="M742.55,1288.61s.19,59.41-1.52,66.23l-1.66-66.23Z"/><path class="bdcc186d-b47b-4659-baee-064ea9213692" d="M723.23,1286.12s-6,26.67-2,64.72c0,0-8.84-20.56-.64-65.87Z"/><path class="bdcc186d-b47b-4659-baee-064ea9213692" d="M757.89,1284.5s6.81,27.7,2.81,64.84c0,0,8.3-22.54.1-66.76Z"/><ellipse class="bdcc186d-b47b-4659-baee-064ea9213692" cx="738.66" cy="1278.02" rx="27.67" ry="11.6"/><ellipse class="e7bd96d4-2489-46b3-bd02-9e9dc961a672" cx="738.66" cy="1276.63" rx="19.68" ry="6.97"/><path class="bd73b241-fcc6-4a19-9dff-4d1cb46dd547" d="M767.19,1280.08s3.12,8.47-3.05,11.77-11.9,5.62-26.75,5.14c-14.29-.46-26.73-6.31-28.7-10.43-1-2.16-.06-4.65,1.11-6.53a2.5,2.5,0,0,1,.2-.71,4,4,0,0,0,.23-.57c0-.17.07-.33.12-.48-4.77,3.48-16.53,14.33,4.27,24.93,20,10.2,43.71,4.11,52.08-.5,6-3.31,6.47-5.86,7.36-9.41C775,1289.54,774.19,1284.64,767.19,1280.08Z"/><g class="e77f8df6-75fe-4342-81a3-91939d894b30"><path class="f5686c4e-cbba-4d22-9fd3-987d2e4ce502" d="M767.07,1279.21c-3.35-2.35-47.29-2.89-54.2-3a.53.53,0,0,1,.45.48.54.54,0,0,1-.56.5h-.13l0,.1,0,.13a.44.44,0,0,1-.08.25l-.08.1a.58.58,0,0,1-.18.11.62.62,0,0,1-.44,0h0a.49.49,0,0,1-.16.33l-.09.08v3.23c0,.62-1,.64-1.11.07l-.13.36a.58.58,0,0,1-.69.34.48.48,0,0,1-.39-.6c.19-.51,1-3.47,1.13-3.66l.07-.68c-2.58,2.28-7.18,7.62-.88,12.65,8.28,6.63,19.56,8.88,28,9.38s23.29-1,29.55-6.49C771.34,1289.28,770.71,1281.76,767.07,1279.21Z"/></g><path class="bd73b241-fcc6-4a19-9dff-4d1cb46dd547" d="M704,1314.72s-15.34,27.51,33.86,29.23c50.49,1.77,35.62-32.73,35.62-32.73s.58,23.48-34.74,21.49S704,1314.72,704,1314.72Z"/><g class="b97d3008-b698-495d-9c12-e90ae0749f9b"><path class="f5686c4e-cbba-4d22-9fd3-987d2e4ce502" d="M704,1306.2s-11.88,25.87,33.86,27.63c47.25,1.81,35.62-30.93,35.62-30.93s.58,22.19-34.74,20.31S704,1306.2,704,1306.2Z"/></g><g class="a501de72-61eb-4f45-b64f-bc9a441aa119"><path class="b0b45878-578f-4b6e-91e6-22a7b9ffc908" d="M775.94,1231.89c3.18,2.75,11.86,4.85,23,4.85,10.63,0,19.84-1.57,23.45-4.74,2.5-2.2-4.84-9.32-23.42-9.22C778.85,1222.88,773.36,1229.66,775.94,1231.89Z"/></g><g class="bb0eeb92-f663-4c94-8140-32817e13e51a"><path class="b0b45878-578f-4b6e-91e6-22a7b9ffc908" d="M719.39,1280.92c2.64,2.28,9.85,4,19.07,4,8.84,0,16.49-1.3,19.5-3.94,2.07-1.82-4-7.74-19.47-7.66C721.8,1273.42,717.24,1279.05,719.39,1280.92Z"/></g><path class="b585a104-e298-439d-9bb9-be74a58eee41" d="M1197.75,1450.35c1.88-20.27-8.92-24.38-9.77-29.15,0,0,18.27,5.28,18.77,18.28l.14-.93a48.59,48.59,0,0,0-2-22.48,29.77,29.77,0,0,1,.1-19.85s10.8,34.87,17.29,33.67c0,0-7.47-11.27-2.81-24.91,0,0,10.35,24.58,12.1,29.26C1238.08,1451.52,1196.88,1459.94,1197.75,1450.35Z"/><path class="b585a104-e298-439d-9bb9-be74a58eee41" d="M1019.3,1328.91s-2.87-23.85.15-36.16c0,0-14.63,18.09-12.62,31.85S1019.3,1328.91,1019.3,1328.91Z"/><path class="b585a104-e298-439d-9bb9-be74a58eee41" d="M1018.4,1329.41s7.85-17.46,8.47-27.54c0,0,6.84,17.24,2,27.23S1018.4,1329.41,1018.4,1329.41Z"/></svg>