<svg id="Layer_1" data-name="Layer 1" xmlns="http://www.w3.org/2000/svg" xmlns:xlink="http://www.w3.org/1999/xlink" viewBox="0 0 2000 2000"><defs><style>.cls-1{fill:none;}.cls-2{fill:#aed76a;}.cls-3{clip-path:url(#clip-path);}.cls-4{fill:#fecfae;}.cls-5{fill:#9b8572;}.cls-6{fill:#4f2c2a;}.cls-7{fill:#934d3d;}.cls-8{clip-path:url(#clip-path-2);}.cls-9{fill:#70442c;}.cls-10{fill:#bf975d;}.cls-11{fill:#a57341;}.cls-12{clip-path:url(#clip-path-3);}.cls-13{clip-path:url(#clip-path-4);}.cls-14{fill:#1e1713;}.cls-15{fill:#4a1f19;}.cls-16{fill:#e0d1b7;}.cls-17{clip-path:url(#clip-path-5);}.cls-18{fill:#a37a79;}.cls-19{fill:#d19857;}.cls-20{fill:#d6b58e;}.cls-21{fill:#af8956;}.cls-22{fill:#afd86a;}</style><clipPath id="clip-path"><path class="cls-1" d="M547.13,900.6c-96-15.27-194.47,5-274.77,59.75C159.19,1037.5,59,1169.15,142,1380.83,299.23,1782,521.44,1844.28,909.4,1798.6s631.14-329,724.48-285.58,382.49-71.81,266.67-336c-59.39-135.44-541.68-517.43-964-359C718.82,899.73,605.66,909.91,547.13,900.6Z"/></clipPath><clipPath id="clip-path-2"><path class="cls-1" d="M682.19,1100.84s148.11,134.55,164.59,165.29,19.94,29.87,38.3,28.57c6.67-.48,42.51-18.92,45.8-55.93,4.94-55.5-30.5-40.72-54.77-63-28.54-26.18-142.26-79.71-150.72-90.08s1.38-19.14-25.13-24.47C686.81,1058.55,659.78,1074.84,682.19,1100.84Z"/></clipPath><clipPath id="clip-path-3"><path class="cls-1" d="M493.79,1246.74S725.28,1334.47,751.5,1363s30.1,26.85,51.56,21.21c7.8-2,56.87-24.25,42.1-69.56-18.57-57-60.89-20.69-91.59-43.12s-172.82-61.5-185.09-70.47-16.76-31.86-49.32-31.32C502.64,1170.06,461.59,1224.55,493.79,1246.74Z"/></clipPath><clipPath id="clip-path-4"><path class="cls-1" d="M500.43,1136.25s215.23,122.32,236.74,154.58,25.61,31.16,47.69,28.89c8-.82,50.27-22.32,52.3-62.25,3-59.87-38.94-42.32-69.38-65.1-35.81-26.79-175.78-79-186.53-89.72s-11.65-34.05-43.91-38.53C521,1061.84,472,1109.37,500.43,1136.25Z"/></clipPath><clipPath id="clip-path-5"><path class="cls-1" d="M1216.53,1224.61l159-50.33s47.19-307.26-40.44-327.57-116.24,45.17-124.38,68.07S1216.53,1224.61,1216.53,1224.61Z"/></clipPath></defs><path class="cls-2" d="M547.13,900.6c-96-15.27-194.47,5-274.77,59.75C159.19,1037.5,59,1169.15,142,1380.83,299.23,1782,521.44,1844.28,909.4,1798.6s631.14-329,724.48-285.58,382.49-71.81,266.67-336c-59.39-135.44-541.68-517.43-964-359C718.82,899.73,605.66,909.91,547.13,900.6Z"/><g class="cls-3"><path class="cls-4" d="M1216.53,1224.61s107,78.35,21.63,191.71-567.55,137.62-605.82,395.11c0,0,143.64,85.91,443.89,15.44,0,0,80.56-137.87,161.93-196.08s297.3-258.81,137.36-456.51S1216.53,1224.61,1216.53,1224.61Z"/></g><path class="cls-5" d="M970.05,1273.31,700.89,1111V642.49l254,127.5s38.3-2.53,38.3,10S1013.4,1254.16,970.05,1273.31Z"/><path class="cls-6" d="M439.57,969.4v296.84c0,3.68.14,8.11,3.47,9.65l10.39,2.8,38.31-16.17V941.62Z"/><path class="cls-7" d="M453.43,969.4v309.29l40.51-17.09c6.91-2.19,11.66-4.3,11.66-11.55V941.62Z"/><polygon class="cls-6" points="338.65 897.91 404.29 985.74 415.82 990.6 354.78 903.29 338.65 897.91"/><path class="cls-6" d="M657.15,1114s173.15,121.38,189.63,152.12,19.94,29.87,38.3,28.57c6.67-.48,50.2-12,45.8-55.93-5.53-55.31-45.94-29.76-67.1-55.7s-129.93-87-138.39-97.35-8.26-32-34.77-37.38C677.17,1045.64,634.73,1088,657.15,1114Z"/><g class="cls-8"><path class="cls-9" d="M672.51,1067.4s-5.9,24.52,23.41,47c29.84,22.92,89.93,47.46,147.85,80,9.56,5.37,3.38,34,7.62,46.75,9.25,27.92,19.18,48.48,31.78,47.58,6.67-.47,58.87-6.26,47.39-71.11-9.65-54.55-45.94-29.76-67.1-55.7s-129.93-87-138.39-97.35-8.26-32-34.77-37.37C676.85,1024.52,650.09,1041.41,672.51,1067.4Z"/></g><path class="cls-10" d="M892.36,1283.56c-13.2,1.07-17.05-5.68-17.89-14.78-.94-10.1-2.81-20.53,5.33-31.14,13.17-17.16,31.34-21.21,38.27-15.55,12.6,10.28,7.39,37-15.31,56C897.78,1282.29,896.09,1283.25,892.36,1283.56Z"/><path class="cls-11" d="M902.15,1254.5c.76.63.05,1.76-.31,2.45-1,1.4-2.24,3.32-4.11,3.42a5.35,5.35,0,0,1-5.8-5.23,9.71,9.71,0,0,1,1.67-5.39,33,33,0,0,1,6.84-8.48c3.47-3.18,9.88-6.5,13.76-2.09a12.23,12.23,0,0,1,3,8.39c-.63,10.84-10.67,20.69-19.47,26-7,4.15-14.81,3.53-18-4.9a26.09,26.09,0,0,1-1.55-14c1.92-11.13,11.16-19.34,20.31-24.7a17.84,17.84,0,0,1,5.07-2.18c5-1.23,12.09.66,13.89,5.9a7.06,7.06,0,0,0-3.64-3.56,12.85,12.85,0,0,0-12.12.14,58.79,58.79,0,0,0-10.22,7.87c-7.28,6.71-12.34,16.88-9,26.73,2.08,7.65,6.56,9,13.3,5.18a44.59,44.59,0,0,0,14.58-13.69c2.58-4,4.54-8.79,2.55-13.25-.59-1.12-1.29-2.49-2.58-2.92-5.58-1.67-16.66,9.56-17,14.92a4.32,4.32,0,0,0,4.38,4.57,1.64,1.64,0,0,0,1.11-.24c1.11-.63,4.49-3.62,3.32-5Z"/><path class="cls-6" d="M493.79,1246.74S725.28,1334.47,751.5,1363s30.1,26.85,51.56,21.21c7.8-2,56.87-24.25,42.1-69.56-18.57-57-60.89-20.69-91.59-43.12s-172.82-61.5-185.09-70.47-16.76-31.86-49.32-31.32C502.64,1170.06,461.59,1224.55,493.79,1246.74Z"/><g class="cls-12"><path class="cls-9" d="M491.21,1230.16s231.49,87.73,257.7,116.3,34.87,39.88,56.34,34.25c7.8-2,65-16.93,37.33-82.6-23.3-55.23-60.89-20.69-91.59-43.12s-172.82-61.5-185.1-70.47-16.75-31.86-49.31-31.32C500.06,1153.47,459,1208,491.21,1230.16Z"/></g><path class="cls-10" d="M807.47,1374.72a14.47,14.47,0,0,1-22.28-7.3c-3.3-10.42-6.22-26.55,1.12-39.61,11.87-21.14,30.61-32.07,40-27.72,17.17,7.91,16.81,37.28-6,62.59A83.5,83.5,0,0,1,807.47,1374.72Z"/><path class="cls-11" d="M816.38,1310.28c-11.27,7.39-20.57,18.93-22.57,32.44a40.42,40.42,0,0,0,.61,14.83c1.41,5.71,6.24,4.74,10.4,2.47a45.32,45.32,0,0,0,8.1-5.8c3.67-3.36,7.45-6.77,9.74-11.22,2.53-4.91,8.47-19.31,6.38-24.26a.45.45,0,0,0-.36-.15c-2.25.44-4.33,1.89-6.32,3.07-8.44,5.58-15.34,14.06-17.2,24.26a29.46,29.46,0,0,1,2.71-10A41.21,41.21,0,0,1,821.25,1320a31.62,31.62,0,0,1,4.55-2.75c1.45-.78,3.47-1.58,4.88-.16,1.2,1.26,1.25,3,1.27,4.53a35.15,35.15,0,0,1-1.24,7.92,65.49,65.49,0,0,1-6.81,17.15,52.58,52.58,0,0,1-9,9.76c-4.09,3.4-8.51,6.9-13.94,8-6,1.25-9.21-3.65-9.61-9a40.52,40.52,0,0,1,.21-13.23c2.52-14,12.64-25.48,24.84-32.06Z"/><path class="cls-6" d="M500.43,1136.25s215.23,122.32,236.74,154.58,25.61,31.16,47.69,28.89c8-.82,59.91-15.21,52.3-62.25-9.58-59.17-57-29.82-83.86-56.7s-161.3-87.37-172-98.12-11.65-34.05-43.91-38.53C521,1061.84,472,1109.37,500.43,1136.25Z"/><g class="cls-13"><path class="cls-9" d="M498.93,1113.57s215.23,122.32,236.74,154.58,28.31,44.77,50.39,42.51c8-.82,66.86-6.72,49.6-75.87-14.52-58.16-57-29.82-83.86-56.7s-161.3-87.37-172-98.12-11.65-34-43.91-38.53C519.48,1039.17,470.53,1086.69,498.93,1113.57Z"/></g><path class="cls-10" d="M787.08,1312.26c-15.86,1.77-16.73-8.92-18.22-18.65-1.66-10.8-2.63-23.17,6.63-34.95,15-19.06,36.68-24.26,45.33-18.51,15.74,10.45,10.87,39.42-15.51,60.93C799.53,1305.79,791.56,1311.76,787.08,1312.26Z"/><path class="cls-11" d="M809.4,1248.68c-11.48,5.23-24.59,12.63-29.84,24.58a19,19,0,0,0-.23,13.64c1.36,4,3.92,8.4,8.58,8.56,10,.24,24.79-13.81,28.35-22.78,1.83-4.22,1.44-9-1.94-12-3.62-2.67-8.55,2.09-11.11,4.66a50.88,50.88,0,0,0-10.39,16.88,43.89,43.89,0,0,1,3.41-9.55c3.86-8.46,16.31-24.09,23.44-9.75,4.33,10.35-5.44,21.41-12.73,27.71-6.5,5.34-16.6,12.22-24.94,6.73-3.19-2.28-4.8-5.8-6-9.32a21.74,21.74,0,0,1,.85-15.88c6-12.32,20.07-19.41,32.52-23.43Z"/><path class="cls-10" d="M887.84,1039c13.76-20.54,25.54-61.45,11.13-98.79-16.56-42.93-37.77-67-86.1-57-46.67,9.63-71.76,87.52-39,144.49,19.31,33.6,61.31,46.25,94.88,27.87C876.3,1051.44,883.12,1046,887.84,1039Z"/><path class="cls-11" d="M879.11,1042.51c13.76-20.54,25.19-52.09,14.67-89.18-13.88-48.91-41.31-76.56-89.64-66.58-46.67,9.64-71.76,87.52-39,144.49,19.31,33.6,61.31,46.26,94.88,27.87C867.57,1055,874.39,1049.56,879.11,1042.51Z"/><path class="cls-14" d="M870.31,959.23c-14.92-42.34-30.44-56.4-66-49.05-34.38,7.1-52.87,64.48-28.75,106.45a53.46,53.46,0,0,0,20.1,20l.5-73.89,7,1.63v-.57l26.22,6.07-.49,72.92a50.39,50.39,0,0,0,16.53-5.62,39.3,39.3,0,0,0,14.08-12.23C869.63,1009.8,880.11,987.05,870.31,959.23Z"/><path class="cls-10" d="M803.16,963.79v.57l19.19,4.44-.51,74.57a49.3,49.3,0,0,0,7-.59l.49-72.92Z"/><path class="cls-11" d="M803.16,964.36l-7-1.63-.5,73.89a52.34,52.34,0,0,0,26.22,6.75l.51-74.57Z"/><polygon class="cls-11" points="765.88 935.85 878.11 964.3 872.09 1001.71 760.89 962.49 765.88 935.85"/><path class="cls-15" d="M354.78,903.29l-16.13-5.38S549.67,816,725.75,644l41.67,26.1s-153.52,168-280.25,204.31S354.78,903.29,354.78,903.29Z"/><path class="cls-7" d="M723.77,664S541.5,838,344.58,897.85l71.24,92.75S709.43,860.22,796.5,774.2l-2.45-91.81Z"/><polygon class="cls-11" points="344.49 897.97 360.82 920.82 512.33 1030.06 481.88 990.28 344.49 897.97"/><polygon class="cls-16" points="970.05 821.85 970.05 1273.31 1532.56 1131.17 1532.56 671.48 970.05 821.85"/><path class="cls-6" d="M582.94,1046.69V1342.4c0,4.3,1.88,7,5.91,8.52l11.23,5.06,47.38-14.23V1018.91Z"/><path class="cls-10" d="M723.07,680.22S491.67,881.84,344.49,898l170,114.25S872.36,886,893,764.3,723.07,680.22,723.07,680.22Z"/><path class="cls-15" d="M500,1003,481.8,990s256.72-102.83,402.43-240.6l26.34,12.77s-153.52,168-280.25,204.31S500,1003,500,1003Z"/><path class="cls-7" d="M894.61,758.85S733.85,916.09,500,998.08l69.19,90.08s293.61-130.38,380.68-216.4L947.39,780Z"/><path class="cls-11" d="M901.16,770,617.55,627.56V588.15s249.5,82.66,265.89,100.47,35.2,29.91,31.16,47.38S901.16,770,901.16,770Z"/><path class="cls-16" d="M933.76,780l618-123.59-5-66.53s-152.23-269.16-231.86-247-182.47,49.4-214.73,115.93S923.92,737.64,933.76,780Z"/><path class="cls-5" d="M1000,738.69s128.29-268.91,199.08-312c58.33-35.53,147.4-27.93,189.17,23.44,52.62,64.7,78.67,180,143.35,212.29,50.18,25,20.16-84.39,20.16-84.39L1335.31,350.24s-146.51-65.87-188.17,26.88S942.3,741.27,942.3,741.27,968.17,807.57,1000,738.69Z"/><path class="cls-15" d="M1216.53,1224.61l159-50.33s47.19-307.26-40.44-327.57-116.24,45.17-124.38,68.07S1216.53,1224.61,1216.53,1224.61Z"/><g class="cls-17"><path class="cls-18" d="M1211.72,860.21,1203.59,1232s36.53-2,39-4,2.48-19.91.46-56.26,13.31-303.12,13.31-303.12,1,369.95,4.38,372.06,24.12-10.75,24.12-10.75,17.26-332.66,13.6-346.08l12,69.28-19.24,289.69,39.54-28.28,8.6-309.13,11.42,332,34.28-16.8L1381.6,867C1380.68,860,1291.59,862.63,1211.72,860.21Z"/></g><path class="cls-7" d="M1421.89,993.88c0-67.07-6.49-129.54-42.53-161.59-85.85-76.35-192.66,2.18-220.12,87.16-19.64,60.78-17.7,309.3-17.7,309.3s5.26,6.09,21.89,8.85c2.49.41,15.37-21,17.87-27.91,14.34,0,15.54,19.06,15.54,19.06s3.39-241.25,9.32-280.25c7.45-49,44.29-84.4,80.68-88.64,63.38-7.39,81.37,47.45,85.64,88,6.31,59.92,3,226.42,3,226.42s2,1.78,14,1.83c4.5,0,18.86-20.08,20.55-23.6,4.83-.88-1.8,9.63,2.56,5.12C1412.61,1157.63,1421.89,1093.56,1421.89,993.88Z"/><path class="cls-10" d="M869.58,699.71l-252-111.56s123.84-192.25,179-270.21,151.71-90.47,198.75-79.27c43,10.25,271.8,51.2,271.8,51.2S1040.28,588.15,869.58,699.71Z"/><polygon class="cls-7" points="954.93 758.85 954.93 828.07 1562.47 696.35 1561.13 636.53 954.93 758.85"/><path class="cls-15" d="M969,731.84l576.63-113.45,15.46,18.14L954.93,758.85S930.73,731,969,731.84Z"/><polygon class="cls-6" points="954.93 828.07 901.16 794.92 901.16 731.84 954.93 758.85 954.93 828.07"/><path class="cls-15" d="M877.21,722.57l-22.1-11.77S940.81,601.92,968,539.42,1118.68,170.8,1400.73,338c0,0-211.93-6.21-234.1,42.17S962,686.6,962,686.6Z"/><path class="cls-7" d="M954.93,758.85s53.27-75,95.43-160c43.26-87.2,116.6-220.1,224.13-218.76,91.4,1.15,108.92,23,168.79,111.85,17.12,25.41,33.35,51.42,49,77.76,13.69,23.07,37.77,55.86,68.86,66.78l51.07-30.91s-55.11-39-94.09-118.28-115.59-215.06-297-178.77l-22.85,26.88-12.09-14.78s-86.91,49.35-103,92.85l3.52,29.46-22.42-9.64s-114.39,255.28-187,289.23Z"/><path class="cls-7" d="M1262.15,450.13s84-3.13,93.89,75.19-49.49,108.4-82.71,115.71-91.63-12.34-102.24-66.81S1194.26,455.33,1262.15,450.13Z"/><path class="cls-19" d="M1275.27,445.13s84-3.13,93.89,75.19-49.49,108.4-82.71,115.7-91.63-12.34-102.24-66.8S1207.38,450.32,1275.27,445.13Z"/><path class="cls-7" d="M1209.19,534.61l138.12-15.42-.07,24.75-140.71,17.28-.07-.34a42.83,42.83,0,0,1-.81-6v-.3Z"/><path class="cls-14" d="M1275.52,468.67c-39.42,3-63.59,32.47-69,64.62l139.07-13.23C1335.05,466.45,1275.52,468.67,1275.52,468.67Z"/><path class="cls-14" d="M1206.75,562.38c6.53,33.56,37.1,49.61,61.76,51.39l1.53-62-63.76,7.83C1206.42,560.53,1206.57,561.46,1206.75,562.38Z"/><path class="cls-14" d="M1290.9,549.21l.32,61.69c22.69-7.11,54-26.6,55.91-68.59Z"/><polygon class="cls-7" points="1270.61 528.56 1270.04 551.77 1290.9 549.21 1290.8 528.86 1270.61 528.56"/><path class="cls-7" d="M1346.43,525.45c-.24-1.86-.53-3.65-.87-5.39l-139.07,13.23a81.8,81.8,0,0,0-.21,26.31l63.76-7.83.57-23.21,20.19.29.1,20.36,56.23-6.9A98,98,0,0,0,1346.43,525.45Z"/><path class="cls-7" d="M1268.73,530.51l-.22,83.26a54,54,0,0,0,15.45-.93c2.28-.5,4.72-1.14,7.26-1.94l-.42-82Z"/><polygon class="cls-19" points="1205.35 528.32 1347.32 514.82 1350.09 536.87 1199.04 555.42 1205.35 528.32"/><polygon class="cls-19" points="1277.59 627.56 1275.53 529.09 1295.72 528.47 1300.57 624.08 1277.59 627.56"/><path class="cls-19" d="M1393.48,836.1c-83-76.34-186.36-3.54-212.92,81.44-19,60.78-17.13,320.06-17.13,320.06,35.85,6.61,53.1-13,53.1-13s3.67-233.3,9.41-272.29c7.21-49,42.84-84.41,78-88.65,61.31-7.38,80.57,44.92,84.7,85.47,6.11,59.91.82,227,.82,227s23.68-.35,40.65-18.48c0,0,4.47-60.26,4.47-159.93C1434.62,930.63,1428.34,868.16,1393.48,836.1Z"/><ellipse class="cls-10" cx="1350.83" cy="1036.36" rx="18.95" ry="16.36" transform="translate(-201.03 335.99) rotate(-13.21)"/><ellipse class="cls-20" cx="1354.93" cy="1030.27" rx="6.99" ry="6.03" transform="translate(-199.53 336.77) rotate(-13.21)"/><polygon class="cls-7" points="600.08 1046.69 600.08 1355.98 664.6 1339.51 664.6 1018.91 600.08 1046.69"/><polygon class="cls-7" points="499.97 998.08 503.3 1012.22 550.12 1069.35 569.16 1088.16 557.07 1023.19 499.97 998.08"/><polygon class="cls-6" points="481.8 990.04 549.76 1079.36 569.16 1088.16 499.97 998.08 481.8 990.04"/><polygon class="cls-15" points="768.61 848.08 782.54 876.21 779.75 844.2 768.61 848.08"/><polygon class="cls-15" points="650.67 914.55 679.05 939.03 673.37 911.18 650.67 914.55"/><polygon class="cls-15" points="790.89 833.8 814.41 868.89 816.27 819.52 790.89 833.8"/><path class="cls-21" d="M960.43,258.84s-116.49,57-167.7,152.46c-51.89,96.75-75.31,149.93-75.31,149.93s61.86-86.4,96.23-150.5S960.43,258.84,960.43,258.84Z"/><path class="cls-21" d="M943.05,330.75a518.27,518.27,0,0,0-46.65,44.83c-19,20.85-38.4,46.08-46,69.14l-17.07,51.57s18.21-46.22,39.5-67S943.05,330.75,943.05,330.75Z"/><path class="cls-21" d="M715.93,736.49S577.14,869.35,501.43,883.17c0,0,16.37,13.3,125.28-52.1C664.87,808.16,715.93,736.49,715.93,736.49Z"/><path class="cls-22" d="M900.09,1290.85c6.41-31.21-9.37-34.18-9.88-41.75,0,0,31.95,12.88,30.48,33.19l6.67-15.43s-15.84-20.77-4.52-43.17c0,0,7.33,30.46,19,39.56,0,0-.63-20,12-27,0,0-1.5,36.52,4.07,41.77S897.08,1305.62,900.09,1290.85Z"/><path class="cls-22" d="M400.51,1262.74c25.39-19.25,15.48-31.88,20.08-37.91,0,0,15.54,30.74,1.05,45.05l15.19-7.21s1.77-26.06,25.06-35.45c0,0-14.57,27.75-11.79,42.28,0,0,12.73-15.49,26.83-12.36,0,0-25.2,26.47-24.46,34.09S388.52,1271.87,400.51,1262.74Z"/><path class="cls-22" d="M1450.76,1148.23c-34-14.79-31-35.6-37.88-41.14,0,0-7.62,33.75,12.67,45.94l-25.66-9.36s-12.91-27.1-41.78-31.32c0,0,46.1,47.79,38.49,57.09,0,0-14.24-19.42-27.26-16.87,0,0,20.12,28.6,26,35.49C1417.25,1213.52,1466.81,1155.25,1450.76,1148.23Z"/><path class="cls-22" d="M602.72,1366.74s-17.94-48.9-10.75-56.85c0,0,18.72,40.5,25.76,42.09s5.34-33,5.34-33,16.64,19.75,11.75,32.47S602.72,1366.74,602.72,1366.74Z"/><path class="cls-22" d="M1432.55,1152.25s8.46-6.13,14.91-35.76c0,0,14.79,27.73-2.84,49.75C1434.64,1178.69,1432.55,1152.25,1432.55,1152.25Z"/><path class="cls-22" d="M1147.45,1246.06c-6.5-14.51-14-28.94-3.81-49,8.17-16,9.82-23.5,9.82-23.5s6.15,31.77,5.54,40.88,4.18,21.63,8.67,23.13,16-24,15.88-37.49-4.88-30.54-4.88-30.54,11,10.27,14.39,30.75,3.66,44.23,3.66,44.23Z"/></svg>