<svg height="512" viewBox="0 0 58 43" width="512" xmlns="http://www.w3.org/2000/svg"><g id="Page-1" fill="none" fill-rule="evenodd"><g id="063---Houses" transform="translate(-1)"><path id="Path" d="m28 3v8.72l-5-4.79v-3.93c0-.55228475.4477153-1 1-1h3c.5522847 0 1 .44771525 1 1z" fill="#c03a2b"/><path id="Path" d="m56 3v8.47l-5-4.79v-3.68c0-.55228475.4477153-1 1-1h3c.5522847 0 1 .44771525 1 1z" fill="#c03a2b"/><g fill="#d1d4d1"><path id="Path" d="m37.972 15.068v4.765l-4.222-4.765z"/><path id="Path" d="m41 14.5 15 1.5v14c-.0032948 1.1032019-.8967981 1.9967052-2 2h-13z"/><path id="Path" d="m18 32h-12c-1.10320187-.0032948-1.9967052-.8967981-2-2v-15.5l20.22 1.5z"/></g><path id="Path" d="m42 25.75v15.25c-.0032948 1.1032019-.8967981 1.9967052-2 2h-20c-1.1032019-.0032948-1.9967052-.8967981-2-2v-15.25z" fill="#ecf0f1"/><path id="Path" d="m28.73 11.67-4.5 4.33h-21.79c-.60651415-.0272555-1.13790532-.4146501-1.34940799-.9837449s-.0620934-1.2095072.37940799-1.6262551l13.56-12.99c.5380113-.53014645 1.4019887-.53014645 1.94 0l6.03 5.78 5 4.79z" fill="#e64c3c"/><path id="Path" d="m28.74 11.68-.01-.01" fill="#ecf0f1"/><path id="Path" d="m35.77 16-4.5-4.33 11.76-11.27c.5380113-.53014645 1.4019887-.53014645 1.94 0l6.03 5.78 5 4.79 2.53 2.42c.4415014.4167479.5909107 1.0571603.379408 1.6262551s-.7428938.9564894-1.349408.9837449z" fill="#e64c3c"/><path id="Path" d="m31.27 11.67-.01.01" fill="#ecf0f1"/><path id="Path" d="m30 32c2.209139 0 4 1.790861 4 4v7h-8v-7c0-2.209139 1.790861-4 4-4z" fill="#cb8252"/><path id="Path" d="m42 14v8.71l-5-4.78v-3.93c0-.5522847.4477153-1 1-1h3c.5522847 0 1 .4477153 1 1z" fill="#2980ba"/><path id="Path" d="m43.56 27h-27.12c-.6065142-.0272555-1.1379053-.4146501-1.349408-.9837449s-.0620934-1.2095072.379408-1.6262551l8.75-8.39h.01l4.5-4.33.3-.28c.541865-.5206602 1.398135-.5206602 1.94 0l.3.28 4.5 4.33h.01l1.22 1.17v.01l5 4.78v.01l2.53 2.42c.4415014.4167479.5909107 1.0571603.379408 1.6262551s-.7428938.9564894-1.349408.9837449z" fill="#3b97d3"/></g></g></svg>