<svg id="Layer_1" data-name="Layer 1" xmlns="http://www.w3.org/2000/svg" xmlns:xlink="http://www.w3.org/1999/xlink" viewBox="0 0 2000 2000"><defs><style>.cls-1{fill:none;}.cls-2{fill:#aed76a;}.cls-3{fill:#8abd32;}.cls-4{fill:#c9b3ad;}.cls-5{fill:#993a23;}.cls-6{fill:#bc4d3b;}.cls-7{fill:#aa4226;}.cls-8{fill:#ead2cc;}.cls-9{fill:#1e1713;}.cls-10{fill:#f9ebe8;}.cls-11{fill:#5597c9;}.cls-12{fill:#4e8bc1;}.cls-13{fill:#387bad;}.cls-14{fill:#61a6d1;}.cls-15{fill:#1572a0;}.cls-16{fill:#d6c5c1;}.cls-17{fill:#b2a19d;}.cls-18{fill:#77a22f;}.cls-19{clip-path:url(#clip-path);}.cls-20{clip-path:url(#clip-path-2);}.cls-21{fill:#fecfae;}.cls-22{clip-path:url(#clip-path-3);}</style><clipPath id="clip-path"><path class="cls-1" d="M979.14,1478.4c.85-.25,1.75-.5,2.7-.76,0,0,4.59-38.5,32.95-38.07,44.49,1.65,37.2,40.84,37.2,40.84s9.52-17.12,26.46-6.51c13.82,8,9.37,24.5.31,33.58,0,0-14.88,21.94-56.6,24.85q-.82.09-1.65.15l-7.33.57a55.45,55.45,0,0,1-16.94-1.32h0A55.26,55.26,0,0,1,967.86,1515l-.21-.24a17.07,17.07,0,0,1-1.68-2.23C957.8,1499.7,964.56,1482.63,979.14,1478.4Z"/></clipPath><clipPath id="clip-path-2"><path class="cls-1" d="M642.77,1097.37c309.22-27.8,660-34.75,884.76,37.57,479.56,154.28,482,501.81,132.15,551s-502.5-20.59-652.78,47.83c-336.84,153.35-806.66,49.38-878.77-145.44C6.84,1260.64,300.41,1128.15,642.77,1097.37Z"/></clipPath><clipPath id="clip-path-3"><path class="cls-1" d="M1474.69,1346.1c2.64-7.38,8-14.42,17.5-20.32,30.54-19,54.21,21.11,54.21,21.11,16.54-3.72,25.77,4.88,25.77,4.88,10.52,8,12.17,18.22,10.68,27.33-19.81,69.15-91.26,53.1-91.26,53.1-7.72-.11-24,11.85-60.21-3.86C1386.05,1408.67,1400.33,1329.87,1474.69,1346.1Z"/></clipPath></defs><path class="cls-2" d="M642.77,1097.37c309.22-27.8,660-34.75,884.76,37.57,479.56,154.28,482,501.81,132.15,551s-502.5-20.59-652.78,47.83c-336.84,153.35-806.66,49.38-878.77-145.44C6.84,1260.64,300.41,1128.15,642.77,1097.37Z"/><path class="cls-3" d="M1272.27,1234.64s201.51-64.64,461.33,21.15c0,0-63.94-13.87-102.62-19.76S1465.7,1202.21,1272.27,1234.64Z"/><path class="cls-3" d="M1241.74,1214.49S1402,1139,1635.41,1192.86C1635.41,1192.86,1436.65,1152,1241.74,1214.49Z"/><path class="cls-3" d="M1248.3,1289.78s264.32-69.71,581.23,66.87c0,0-86.46-26.29-134.62-37.41S1504.24,1270,1248.3,1289.78Z"/><path class="cls-3" d="M1274.84,1336.63s289.64-32,568,148.12c0,0-70.73-29.37-115.35-47.27S1515.11,1355.89,1274.84,1336.63Z"/><path class="cls-3" d="M746.63,1227.42s-201.5-64.64-461.33,21.15c0,0,63.94-13.87,102.63-19.77S553.2,1195,746.63,1227.42Z"/><path class="cls-3" d="M800.5,1188.29s-160.23-75.49-393.67-21.63C406.83,1166.66,605.59,1125.75,800.5,1188.29Z"/><path class="cls-3" d="M770.6,1289.78s-264.31-69.71-581.22,66.87c0,0,86.46-26.29,134.61-37.41S514.67,1270,770.6,1289.78Z"/><path class="cls-3" d="M711.62,1357.31s-289.64-32-568,148.12c0,0,70.73-29.37,115.35-47.27S471.35,1376.57,711.62,1357.31Z"/><path class="cls-3" d="M781.54,1414.14s-325.76,20.43-556.06,237.46c0,0,62.45-39,102-63.06S550.09,1467.68,781.54,1414.14Z"/><polygon class="cls-4" points="576.77 71.91 581.69 95.92 567.52 75.04 576.77 71.91"/><polygon class="cls-5" points="660.07 905.18 658.5 1049.52 589.2 1108.64 587.66 1284.24 747.88 1184.96 866.93 1094.4 831.82 987.64 660.07 905.18"/><polygon class="cls-5" points="671.62 668.01 671.62 893.29 854.47 998.82 849.84 747.1 671.62 668.01"/><polygon class="cls-6" points="843.7 763.08 843.7 998.82 1057.58 811.66 1057.58 668.01 843.7 763.08"/><path class="cls-7" d="M868.3,819.2l187.32-115.66-52.88-23.07S855.82,760.22,868.3,819.2Z"/><polygon class="cls-4" points="1049.81 681.43 1049.81 855.88 1045.42 863.84 1037.01 862.99 1036.29 687.62 1049.81 681.43"/><polygon class="cls-8" points="1059.54 676.31 1059.54 856.02 1045.42 863.84 1046.01 683.2 1059.54 676.31"/><polygon class="cls-4" points="943.75 818.77 943.75 815.87 950.89 815.87 992.17 714.44 984.63 713.51 924.1 738.84 925.06 820.52 932.7 823.42 943.75 818.77"/><polygon class="cls-9" points="955.53 741.7 939.74 749.53 939.87 772.8 955.97 766.75 955.53 741.7"/><polygon class="cls-9" points="956.12 774.94 939.92 781.17 940.09 811.92 956.65 805.26 956.12 774.94"/><polygon class="cls-9" points="984.93 755.89 984.84 727.17 966.55 736.23 967.02 762.61 984.93 755.89"/><polygon class="cls-9" points="967.7 800.82 985.05 793.85 984.95 763.83 967.16 770.68 967.7 800.82"/><polygon class="cls-4" points="957.75 774.31 958.32 804.59 960.51 803.71 959.94 773.47 957.75 774.31"/><polygon class="cls-4" points="957.6 766.15 959.79 765.32 959.3 739.54 955.53 741.41 955.53 741.7 957.12 740.91 957.6 766.15"/><polygon class="cls-4" points="957.6 766.15 957.12 740.91 955.53 741.7 955.97 766.75 957.6 766.15"/><polygon class="cls-4" points="957.75 774.31 956.12 774.94 956.65 805.26 958.32 804.59 957.75 774.31"/><polygon class="cls-8" points="985.96 763.45 986.13 755.44 984.93 755.89 984.95 763.83 985.96 763.45"/><polygon class="cls-8" points="937.96 773.51 937.79 781.99 939.92 781.17 939.87 772.8 937.96 773.51"/><polygon class="cls-8" points="955.97 766.75 939.87 772.8 939.92 781.17 956.12 774.94 955.97 766.75"/><polygon class="cls-8" points="967.16 770.68 984.95 763.83 984.93 755.89 967.02 762.61 967.16 770.68"/><polygon class="cls-8" points="959.94 773.47 959.79 765.32 957.6 766.15 957.75 774.31 959.94 773.47"/><polygon class="cls-8" points="957.6 766.15 955.97 766.75 956.12 774.94 957.75 774.31 957.6 766.15"/><polygon class="cls-8" points="963.92 802.34 965.51 801.7 964.97 771.53 963.38 772.14 963.92 802.34"/><polygon class="cls-8" points="963.24 764.03 964.83 763.43 964.37 737.32 966.55 736.23 966.49 732.75 959.22 735.11 959.3 739.54 962.77 737.81 963.24 764.03"/><polygon class="cls-8" points="964.97 771.53 965.51 801.7 967.7 800.82 967.16 770.68 964.97 771.53"/><polygon class="cls-8" points="964.83 763.43 967.02 762.61 966.55 736.23 964.37 737.32 964.83 763.43"/><polygon class="cls-8" points="963.24 764.03 962.77 737.81 959.3 739.54 959.79 765.32 963.24 764.03"/><polygon class="cls-8" points="959.94 773.47 960.51 803.71 963.92 802.34 963.38 772.14 959.94 773.47"/><polygon class="cls-8" points="964.97 771.53 964.83 763.43 963.24 764.03 963.38 772.14 964.97 771.53"/><polygon class="cls-8" points="967.16 770.68 967.02 762.61 964.83 763.43 964.97 771.53 967.16 770.68"/><polygon class="cls-8" points="963.38 772.14 963.24 764.03 959.79 765.32 959.94 773.47 963.38 772.14"/><path class="cls-8" d="M932.06,741.45l.63,81.95,4.59-1.86,2.85-1.18,16.66-6.86,1.69-.69,2.19-.9,3.39-1.4,1.59-.66,2.19-.9,17.23-7.1,1.09-.44h0l5.48-2.28.53-84.68Zm53.9,22-1,.38.1,30-17.35,7-2.19.88-1.59.64-3.41,1.37-2.19.88-1.67.67-16.56,6.66-.17-30.75-2.13.82.17-8.48,1.91-.71-.13-23.27,15.79-7.83v-.29l3.77-1.87-.09-4.43,7.28-2.36.06,3.48,18.29-9.06.09,28.72,1.2-.45Z"/><polygon class="cls-8" points="669.25 898.6 676.79 895.48 678.43 625.52 660.07 656.71 669.25 898.6"/><polygon class="cls-4" points="653.71 887.07 669.25 898.6 669.25 643.38 653.71 656.71 653.71 887.07"/><polygon class="cls-8" points="598.38 1341.16 605.92 1338.04 607.57 1068.08 589.2 1099.27 598.38 1341.16"/><polygon class="cls-4" points="582.84 1329.64 598.38 1341.16 598.38 1085.94 582.84 1099.27 582.84 1329.64"/><polygon class="cls-8" points="677.97 974.52 678.44 897.52 660.07 912.46 662.27 974.52 677.97 974.52"/><polygon class="cls-4" points="669.25 974.52 669.25 897.52 653.71 892.31 653.71 974.52 669.25 974.52"/><polygon class="cls-4" points="851.96 977.09 837.03 998.82 837.03 760.5 856.36 774.19 851.96 977.09"/><polygon class="cls-8" points="851.96 977.09 870.53 965.35 870.53 787.41 851.96 770.07 851.96 977.09"/><polygon class="cls-4" points="831.45 988.33 842.06 1014.16 653.71 905.82 653.71 884.98 831.45 988.33"/><polygon class="cls-10" points="833.96 989.5 838.26 979.51 676.81 891.07 669.25 893.94 833.96 989.5"/><path class="cls-11" d="M647.05,652.62l230.7,144.51L1085.38,667.9s-77-86.55-278.78-143.58Z"/><polygon class="cls-5" points="862.98 487.49 855.45 713.75 712.03 619.27 711.39 390.46 755.91 355.03 862.98 487.49"/><polygon class="cls-6" points="855.45 493.49 855.45 713.75 964.4 654.47 964.4 423.47 855.45 493.49"/><path class="cls-7" d="M783.51,547.53,978.15,444.67l-51.22-26.56S775,487.85,783.51,547.53Z"/><polygon class="cls-4" points="855.66 714.52 840.38 705.23 840.38 497.93 860.17 511.61 855.66 714.52"/><polygon class="cls-4" points="970.73 425.76 970.73 647.85 966.96 657.97 959.74 656.89 959.12 433.64 970.73 425.76"/><polygon class="cls-8" points="979.08 419.25 979.08 648.02 966.96 657.97 967.46 428.02 979.08 419.25"/><polygon class="cls-8" points="855.66 714.52 874.66 702.77 874.66 524.84 855.66 507.5 855.66 714.52"/><path class="cls-12" d="M764.82,358.06l-1.69-3,3.17-1.58c.12-.34.23-.68.36-1,0,0,.21.18.6.55l160.39-74.15c.1,11.7-.49,32.58,10.76,61.14,15,38,48.47,79.68,48.47,79.68-79,58.12-138,69.24-138,69.24a4.28,4.28,0,0,1-.93-.37C837.38,484.19,779.47,458.4,764.82,358.06Z"/><path class="cls-10" d="M930.75,275.48l-7.06-2.26S892.07,293.07,745.05,348l9.93,8.47s76.91-17.84,86-28.32,69.24-33.82,69.24-33.82Z"/><path class="cls-8" d="M839.65,493.89l9.25-5s-15.33-2.62-87.17-136.46l-3.21,7.62S797.89,473.53,839.65,493.89Z"/><path class="cls-4" d="M839.65,493.89S810,460.31,753.16,349.69l-3.22,16.07s42.51,91,77.8,135.75Z"/><path class="cls-4" d="M752.25,366.56S693.94,419,667.86,424.51l-6.15-11.71s59.66-31.8,88.23-64.66l3.66,10.24Z"/><path class="cls-8" d="M929.94,287.87h0C875.51,323.75,823.08,342.69,760.79,362l-3.7,1.13V349.69s23.71,6,173.66-74.21Z"/><polyline class="cls-4" points="757.09 349.69 745.97 346.55 745.97 357.07 757.09 363.5"/><path class="cls-13" d="M889.22,313.54s35.08,92.67,62.37,122c0,0-2.11,2.22-9.23-6.38S903.94,372.46,889.22,313.54Z"/><path class="cls-13" d="M854.47,329.72s36.41,95.41,64.43,125.44c0,0-2.13,2.31-9.44-6.5S869.88,390.46,854.47,329.72Z"/><path class="cls-13" d="M811.22,349.24s37.85,94.85,66.32,124.45c0,0-2.09,2.34-9.54-6.36S827.56,409.74,811.22,349.24Z"/><polygon class="cls-14" points="559.2 74.7 624.53 85.91 710.2 472.06 1010.45 524.32 1022.11 606.69 733.35 545.28 822.28 926.65 757.44 919.18 664.57 529.28 378.79 477.19 368.47 401.65 649.52 457.74 559.2 74.7"/><polygon class="cls-8" points="760.76 549.1 849.84 924.5 842.74 936.02 723.44 543.26 760.76 549.1"/><path class="cls-8" d="M716.42,472.4l16.67-14.32L648.33,82.68,638.14,94S691.4,466.48,716.42,472.4Z"/><polygon class="cls-4" points="688.16 527.47 1018.64 608.85 1022.11 625.52 688.16 542.61 688.16 527.47"/><polygon class="cls-10" points="704.16 524.32 1029.06 600.74 1018.64 608.85 696.91 529.62 704.16 524.32"/><polygon class="cls-10" points="364.03 383.03 375.16 379.64 644.54 439.95 660.84 483.07 423.92 406.67 364.03 383.03"/><polygon class="cls-4" points="751.62 922.18 770.61 924.5 683.53 528.48 667.93 535.73 751.62 922.18"/><polygon class="cls-4" points="823.13 932.71 842.74 936.02 729.71 538.61 714.49 546.61 823.13 932.71"/><polygon class="cls-6" points="1470.8 1396.28 1175.08 1532.87 1168.29 1231.7 1279.76 1033.25 1428.37 978.88 1482.01 1042.31 1512.21 1118.18 1494.44 1161.24 1470.8 1396.28"/><polygon class="cls-7" points="1493.03 1143.03 1462.4 1070.84 1417.5 1016.83 1294.29 1066.03 1219.1 1193.98 1197.8 1304.04 1144.8 1279.19 1270.87 1044.24 1427.32 985.02 1498.95 1042.95 1520.92 1136.01 1493.03 1143.03"/><polygon class="cls-4" points="1331.23 1216.41 1206.18 1154.43 1189.33 1184.62 1296.43 1233.54 1331.23 1216.41"/><polygon class="cls-5" points="1158.86 1552.82 1007.77 1482.77 1000.74 1271.79 1158.86 1345.18 1158.86 1552.82"/><path class="cls-10" d="M1387.56,1184.75l69.59-153.28s22.12,12.32,16.12,33-46.57,102.28-46.57,102.28Z"/><polygon class="cls-8" points="1334.85 1210.85 1209.81 1148.87 1192.95 1179.06 1300.06 1227.98 1334.85 1210.85"/><path class="cls-8" d="M1395.2,1184.75l69.59-152.22s22.12,12.32,16.13,33-46.58,102.27-46.58,102.27Z"/><polygon class="cls-10" points="1504.51 1130.07 1169.87 1284.79 1175.42 1311.95 1513.72 1139.63 1504.51 1130.07"/><path class="cls-4" d="M1538.55,1167.78l-21-6.54s-44-74.31-43-115.12c0,0-46-32.44-59.26-53.46,0,0,10.33-15.59,22.83-3.63s58.17,37,59.8,47.85S1538.55,1167.78,1538.55,1167.78Z"/><path class="cls-11" d="M1406.86,965.35,1057.58,811.66h0l-.57.07c-34.36,19.53-72,34.92-109.31,48l-36.91,13,67.41,125,263.14,44.58Z"/><path class="cls-4" d="M1157.62,1163.55c1.08,73.94-35.74,183.53-35.74,183.53l16.16,6.66c33.17-25.1,43.13-186,43.13-186l-22.31-6.54"/><path class="cls-12" d="M817.25,998.82S876,944.45,910.79,872.69l330.55,156.94-71.47,146.65Z"/><path class="cls-12" d="M551,1085.87s58.74-54.36,93.53-126.13l330.56,156.94-71.48,146.66Z"/><path class="cls-15" d="M1029.56,1309.05,1138,1353.74l37.38-186-358.17-169-1.15,6.63a655.63,655.63,0,0,1-55.34,172.24h0Z"/><path class="cls-16" d="M1241.34,1029.63l-78.29,130.1s-15.19,107.9-48.93,180.87l23.92,13.14s39.61-51.19,37.38-69.5,31.85-138.63,47.8-158.2,43.49-78.29,60.16-88.44S1255.11,1022.38,1241.34,1029.63Z"/><path class="cls-10" d="M1428.36,968.74l-19.57-6.53-167.45,67.42,22.71,8.21S1429.09,975.26,1428.36,968.74Z"/><polygon class="cls-5" points="722.63 1624.1 545.62 1536.3 550.14 1320.08 634.13 1239.87 729.87 1429.36 722.63 1624.1"/><polygon class="cls-6" points="1014.39 1308.69 1014.39 1495.12 750.2 1624.1 756.36 1434.1 1014.39 1308.69"/><path class="cls-12" d="M653.27,1241.37l-2.57-4.6,4.82-2.39.53-1.56.92.84L939.7,1095.42c.16,17.76,6.42,29,23.5,72.37,22.7,57.6,66.36,141.26,66.36,141.26-119.87,88.18-248.74,130.79-248.74,130.79a6.24,6.24,0,0,1-1.41-.56C763.34,1432.72,675.5,1393.59,653.27,1241.37Z"/><path class="cls-10" d="M940,1086.58l-16.1-3.88s-76.15,57.87-299.18,141.21l15.07,12.86s116.68-27.07,130.41-43,164.74-94.58,164.74-94.58Z"/><path class="cls-7" d="M1014.39,1319.94v7.54s-81.65,62.86-253.63,128.62v-20Z"/><polygon class="cls-4" points="1007.5 1323.06 1007.5 1497.52 1003.11 1505.47 994.7 1504.62 993.98 1329.25 1007.5 1323.06"/><polygon class="cls-8" points="1017.23 1317.94 1017.23 1497.65 1003.11 1505.47 1003.7 1324.83 1017.23 1317.94"/><polygon class="cls-4" points="739.63 1636.38 722.63 1627.09 722.63 1419.79 744.64 1433.47 739.63 1636.38"/><polygon class="cls-8" points="739.63 1636.38 760.76 1624.64 760.76 1446.7 739.63 1429.36 739.63 1636.38"/><polygon class="cls-4" points="1164.86 1565.36 1147.86 1554.59 1147.86 1314.32 1169.87 1330.18 1164.86 1565.36"/><polygon class="cls-8" points="1164.86 1565.36 1185.99 1551.74 1185.99 1314.32 1164.86 1325.42 1164.86 1565.36"/><polygon class="cls-4" points="1484.37 1405.86 1468.19 1397.62 1468.19 1173.88 1489.15 1167.78 1484.37 1405.86"/><polygon class="cls-8" points="1484.37 1405.86 1504.51 1396.67 1504.51 1158.66 1484.37 1169.17 1484.37 1405.86"/><polygon class="cls-8" points="539.66 1543.8 548.33 1541.12 550.22 1309.05 529.09 1335.86 539.66 1543.8"/><path class="cls-8" d="M766.79,1447.43l14-7.59s-23.25-4-132.24-207l-4.87,11.56S703.44,1416.54,766.79,1447.43Z"/><polygon class="cls-4" points="521.77 1533.89 539.66 1543.8 539.66 1324.41 521.77 1335.86 521.77 1533.89"/><path class="cls-4" d="M766.79,1447.43s-45-51-131.21-218.76l-4.88,24.38s64.49,138,118,205.94Z"/><path class="cls-4" d="M634.19,1254.26s-88.45,79.6-128,87.91l-9.34-17.76s90.51-48.23,133.86-98.09l5.54,15.53Z"/><path class="cls-8" d="M940,1103.92,914,1121a1046.83,1046.83,0,0,1-266.88,126.26c-1.92.59-3.79,1.17-5.62,1.72v-20.32S725.33,1234,940,1086.58Z"/><polyline class="cls-4" points="641.54 1228.67 624.68 1223.91 624.68 1239.87 641.54 1249.62"/><polygon class="cls-8" points="650.78 1511.36 657.32 1509.79 658.5 1405.66 605.59 1383.57 598.99 1384.39 650.78 1511.36"/><polygon class="cls-4" points="651.54 1407.96 650.78 1511.36 599.73 1487.07 598.99 1384.39 651.54 1407.96"/><polygon class="cls-9" points="644.83 1415.02 644.43 1500.24 628.1 1493.1 629.64 1407.5 644.83 1415.02"/><polygon class="cls-9" points="605.41 1395.51 623.31 1404.36 621.85 1490.37 605.21 1483.09 605.41 1395.51"/><polygon class="cls-8" points="631.03 1407.93 629.6 1493.75 623.24 1491.11 624.7 1404.8 631.03 1407.93"/><polygon class="cls-4" points="646.4 1435.97 604.31 1420.21 604.46 1427.21 646.57 1443.38 646.4 1435.97"/><polygon class="cls-4" points="647.05 1470.53 603.67 1453.13 604.31 1460.38 647.04 1477.94 647.05 1470.53"/><polygon class="cls-4" points="627.81 1402.43 626.1 1496.93 619.89 1492.4 621.45 1400.38 627.81 1402.43"/><path class="cls-13" d="M904.4,1130.07s59.47,143.07,103.29,187.35c0,0-3.12,3.6-14.61-9.43S930.49,1221.5,904.4,1130.07Z"/><path class="cls-13" d="M870,1156.25s52.5,139.87,93.16,184c0,0-3.12,3.38-13.73-9.56S892.15,1245.26,870,1156.25Z"/><path class="cls-13" d="M824.58,1179.06s53.21,140.59,94.61,185.06c0,0-3.19,3.37-14-9.67S846.9,1268.45,824.58,1179.06Z"/><path class="cls-13" d="M772.29,1201.82s55.24,144.75,97.75,190.29c0,0-3.23,3.51-14.33-9.85S795.68,1294,772.29,1201.82Z"/><path class="cls-13" d="M716.65,1228s57.42,143.9,100.6,188.8c0,0-3.17,3.56-14.47-9.64S741.43,1319.77,716.65,1228Z"/><path class="cls-13" d="M1111.16,1140.7s-14.24,100.43-51.55,150.32c0,0,3.58,3.14,13.17-11.35S1107,1224.13,1111.16,1140.7Z"/><path class="cls-13" d="M1050.48,1125.85s-11.56,81.49-41.83,122c0,0,2.91,2.55,10.68-9.2S1047.07,1193.54,1050.48,1125.85Z"/><path class="cls-13" d="M1104.67,977.09s-29,81.51-68.7,116.83c0,0,2.46,3.24,12.94-7.24S1086.94,1046.1,1104.67,977.09Z"/><path class="cls-13" d="M1056.49,954.35s-23.55,66.12-55.74,94.78c0,0,2,2.63,10.5-5.87S1042.1,1010.33,1056.49,954.35Z"/><path class="cls-13" d="M1002.06,946.41s-18.55,52.1-43.93,74.68c0,0,1.58,2.07,8.28-4.62S990.72,990.52,1002.06,946.41Z"/><path class="cls-13" d="M770.55,1031.59s-28.41,81.72-67.83,117.35c0,0,2.49,3.21,12.89-7.34S753.33,1100.73,770.55,1031.59Z"/><path class="cls-13" d="M722.2,1009.21s-23.05,66.3-55,95.2c0,0,2,2.61,10.46-6S708.23,1065.3,722.2,1009.21Z"/><path class="cls-13" d="M667.71,1001.68s-18.17,52.24-43.37,75c0,0,1.59,2.06,8.24-4.69S656.7,1045.87,667.71,1001.68Z"/><path class="cls-13" d="M1183.16,985s85.49-13.25,127.62-45.62c0,0,2.72,3-9.53,11.36S1254.26,980.52,1183.16,985Z"/><path class="cls-13" d="M1121.7,953.72s86.16-7.82,130.26-37.46c0,0,2.52,3.19-10.24,10.73S1193,953.73,1121.7,953.72Z"/><path class="cls-13" d="M1058.32,917.73s86.51.71,133.31-24.44c0,0,2.19,3.42-11.24,9.67S1129.22,924.76,1058.32,917.73Z"/><path class="cls-13" d="M981.81,650.94s63.9,22.46,104.22,16.14c0,0,.85,3-10.5,4.14S1032.72,674,981.81,650.94Z"/><path class="cls-13" d="M878.4,798.46s-4.31-55.31-23-83.82c0,0,2.07-1.59,6.8,6.65S879,752.78,878.4,798.46Z"/><path class="cls-13" d="M907.17,768s-3.26-41.87-17.38-63.46c0,0,1.56-1.21,5.15,5S907.61,733.43,907.17,768Z"/><path class="cls-13" d="M930.84,745.58s-2.77-35.56-14.76-53.9c0,0,1.33-1,4.37,4.28S931.21,716.21,930.84,745.58Z"/><polygon class="cls-4" points="1373.88 1393.58 1367.03 1391.9 1366.28 1282.66 1421.89 1259.73 1428.81 1260.63 1373.88 1393.58"/><polygon class="cls-8" points="1373.57 1285.1 1373.88 1393.58 1427.56 1368.34 1428.81 1260.63 1373.57 1285.1"/><polygon class="cls-9" points="1380.58 1292.54 1380.6 1381.94 1397.77 1374.53 1396.55 1284.72 1380.58 1292.54"/><polygon class="cls-9" points="1422.02 1272.26 1403.21 1281.46 1404.33 1371.69 1421.83 1364.14 1422.02 1272.26"/><polygon class="cls-4" points="1395.08 1285.17 1396.19 1375.21 1402.87 1372.46 1401.74 1281.91 1395.08 1285.17"/><polygon class="cls-8" points="1378.83 1314.52 1423.07 1298.18 1422.87 1305.52 1378.63 1322.29 1378.83 1314.52"/><polygon class="cls-8" points="1377.99 1350.76 1423.58 1332.71 1422.88 1340.32 1377.97 1358.54 1377.99 1350.76"/><polygon class="cls-8" points="1398.49 1279.42 1399.85 1378.56 1406.38 1373.83 1405.18 1277.29 1398.49 1279.42"/><polygon class="cls-4" points="1269.15 1447.32 1261.65 1445.56 1259.63 1326.41 1320.04 1300.79 1327.59 1301.68 1269.15 1447.32"/><polygon class="cls-8" points="1267.61 1328.99 1269.15 1447.32 1327.42 1419.19 1327.59 1301.68 1267.61 1328.99"/><polygon class="cls-9" points="1275.33 1337.03 1276.34 1434.55 1294.99 1426.27 1292.66 1328.33 1275.33 1337.03"/><polygon class="cls-9" points="1320.31 1314.45 1299.89 1324.7 1302.12 1423.11 1321.12 1414.67 1320.31 1314.45"/><polygon class="cls-4" points="1291.07 1328.83 1293.28 1427.03 1300.54 1423.96 1298.31 1325.2 1291.07 1328.83"/><polygon class="cls-8" points="1273.67 1361.02 1321.74 1342.71 1321.61 1350.72 1273.53 1369.5 1273.67 1361.02"/><polygon class="cls-8" points="1294.73 1322.52 1297.31 1430.65 1304.38 1425.42 1302 1320.12 1294.73 1322.52"/><polygon class="cls-8" points="1273.16 1400.57 1322.69 1380.38 1322 1388.68 1273.22 1409.05 1273.16 1400.57"/><polygon class="cls-8" points="867.25 1573.27 860.1 1570.5 860.1 1434.11 925.05 1408.28 936.61 1409.28 867.25 1573.27"/><polygon class="cls-4" points="867.25 1573.27 867.25 1436.28 936.61 1409.28 936.61 1538.86 867.25 1573.27"/><polygon class="cls-5" points="877.78 1556.51 877.78 1447.66 929.88 1424.72 929.88 1530.76 877.78 1556.51"/><polygon class="cls-4" points="875.29 1489.26 926.17 1423.14 933.04 1424.72 878.12 1496.48 875.29 1489.26"/><polygon class="cls-4" points="875.84 1493.23 929.88 1471.07 931.31 1476.54 875.29 1501.09 875.84 1493.23"/><polygon class="cls-4" points="872.93 1558.26 930.48 1473.37 933.94 1478.78 879.93 1560.66 872.93 1558.26"/><path class="cls-8" d="M1204.46,1191.53s-23.29,139.23-41.41,158.26l-25,4,16.2-61.57q7.9-30,14-60.47l12.89-63.92,82.88-129.94,164.31-69.1,78.61,64.51s17.81,79,51.88,126.48l-20.3,8s-45.88-74.36-49.4-123.66l-62.24-49.29-140.63,57.27Z"/><polygon class="cls-8" points="1506.97 1142.01 1506.97 1167.78 1163.05 1329.37 1164.86 1300.17 1506.97 1142.01"/><path class="cls-5" d="M1313.86,1134.39c6.88,6.62,21.06,14.59,43.71,1.95,21.54-12,25.24-30.23,25.1-41.85a22.12,22.12,0,0,0-1.34-7.31,22.15,22.15,0,0,1,4.26,12.83c.15,11.62-2.11,32.78-23.65,44.79-22.65,12.64-38.28,1.72-45.16-4.89a18,18,0,0,1-4.61-7.41A17.82,17.82,0,0,0,1313.86,1134.39Z"/><path class="cls-9" d="M1357.57,1136.34c-22.65,12.64-36.83,4.67-43.71-1.95a7.33,7.33,0,0,1-2.57-7.56c.08-11.85,4.56-35.91,37.41-47.63,0,0,11.25-3.62,22.53.39a21.32,21.32,0,0,1,10.1,7.59,22.12,22.12,0,0,1,1.34,7.31C1382.81,1106.11,1379.11,1124.33,1357.57,1136.34Z"/><polygon class="cls-4" points="698.26 472.4 1000 513.77 1001.41 529.62 699.5 487.49 698.26 472.4"/><polygon class="cls-4" points="670.79 542.61 376.12 493.6 376.12 475.53 662.22 522 670.79 542.61"/><polygon class="cls-4" points="666.16 484.56 367.14 402.72 364.03 383.03 676.44 467.89 666.16 484.56"/><polygon class="cls-4" points="666.57 471.58 569.59 82.68 549.21 77.35 657.59 489.58 666.57 471.58"/><polygon class="cls-4" points="619.61 89.4 638.14 94.03 712.03 477.54 699.5 487.49 619.61 89.4"/><polygon class="cls-10" points="711.39 474.2 733.09 458.08 1013.77 507.27 1000 513.77 711.39 474.2"/><path class="cls-10" d="M678.94,450.93c.91.07,1.81.12,2.73.1,7.63-.16,41,1.63,41.75,45.34.83,49.36-25.45,37.46-39.48,38.67-19.75,1.7-43.61-47.72-29.62-67.46C665.68,451.54,675.61,450.69,678.94,450.93Z"/><path class="cls-4" d="M669.61,458.06c.92.07,1.82.12,2.73.1,7.64-.16,41,1.63,41.76,45.34.82,49.36-25.46,37.46-39.49,38.67-19.74,1.7-43.6-47.72-29.61-67.46C656.36,458.67,666.29,457.82,669.61,458.06Z"/><polygon class="cls-17" points="1001.41 529.62 1000 513.77 1013.77 507.27 1013.77 524.32 1001.41 529.62"/><polygon class="cls-17" points="1018.64 608.85 1022.11 625.52 1031.2 618.08 1029.06 600.74 1018.64 608.85"/><polygon class="cls-17" points="619.61 89.4 638.14 94.03 648.33 82.68 631.34 78.94 619.61 89.4"/><polygon class="cls-17" points="549.21 77.35 569.59 82.68 576.77 71.91 559.86 67.86 549.21 77.35"/><path class="cls-18" d="M979.14,1478.4c.85-.25,1.75-.5,2.7-.76,0,0,4.59-38.5,32.95-38.07,44.49,1.65,37.2,40.84,37.2,40.84s9.52-17.12,26.46-6.51c13.82,8,9.37,24.5.31,33.58,0,0-14.88,21.94-56.6,24.85q-.82.09-1.65.15l-7.33.57a55.45,55.45,0,0,1-16.94-1.32h0A55.26,55.26,0,0,1,967.86,1515l-.21-.24a17.07,17.07,0,0,1-1.68-2.23C957.8,1499.7,964.56,1482.63,979.14,1478.4Z"/><g class="cls-19"><path class="cls-3" d="M1065.1,1519.46s20.78-28.56-1.09-27.53-24.51-6.39-26-19.49-38.74-26.71-56.2,5.2c0,0-.7-53.71,3.73-60.46s95.06,3.29,95.68,7,42.91,56.09,41.43,57.8-34.07,40.59-34.07,40.59Z"/></g><path class="cls-1" d="M642.77,1097.37c309.22-27.8,660-34.75,884.76,37.57,479.56,154.28,468,456.11,118.17,505.29s-488.52,25.12-638.8,93.54c-336.84,153.35-806.66,49.38-878.77-145.44C6.84,1260.64,300.41,1128.15,642.77,1097.37Z"/><g class="cls-20"><path class="cls-21" d="M936.61,1538.86s19.44,40.52,73.56,55.42c60.9,16.77,143.49,9.48,224.72-33.62,177.72-94.27,551.12,18.78,507.2,123.36S1593,1724.74,1593,1724.74s-72.06-142-252.73-105.19c-49.63,10.12-153.66,59.21-315.4,27.58-121-23.68-157.6-73.86-157.6-73.86"/></g><path class="cls-18" d="M1474.69,1346.1c2.64-7.38,8-14.42,17.5-20.32,30.54-19,54.21,21.11,54.21,21.11,16.54-3.72,25.77,4.88,25.77,4.88,10.52,8,12.17,18.22,10.68,27.33-19.81,69.15-91.26,53.1-91.26,53.1-7.72-.11-24,11.85-60.21-3.86C1386.05,1408.67,1400.33,1329.87,1474.69,1346.1Z"/><g class="cls-22"><path class="cls-3" d="M1491.59,1432.2s-61.32-8.62-47.44-51.63c7.06-21.86,22.88-24.54,44.09-16.13,0,0,13.66-55.65,58.16-17.55,0,0-23.4-77.12-73.84-74.05s-127.12,99.13-120.87,118.89S1408.25,1520.77,1491.59,1432.2Z"/></g></svg>