<?xml version="1.0" encoding="utf-8"?>
<!-- Generator: Adobe Illustrator 26.0.1, SVG Export Plug-In . SVG Version: 6.00 Build 0)  -->
<svg version="1.1" id="Layer_1" xmlns="http://www.w3.org/2000/svg" xmlns:xlink="http://www.w3.org/1999/xlink" x="0px" y="0px"
	 viewBox="0 0 2000 2000" style="enable-background:new 0 0 2000 2000;" xml:space="preserve">
<style type="text/css">
	.st0{fill:#AED76A;}
	.st1{clip-path:url(#SVGID_00000155839748518383051120000013330784957228648637_);}
	.st2{fill:#FECFAE;}
	.st3{fill:#356F93;}
	.st4{fill:#4E8BC1;}
	.st5{fill:#E8DBD4;}
	.st6{fill:#DECEC2;}
	.st7{fill:#D6B192;}
	.st8{fill:#D88D3D;}
	.st9{fill:#965626;}
	.st10{fill:#1E1713;}
	.st11{fill:#EFD9C4;}
	.st12{fill:#807A99;}
	.st13{clip-path:url(#SVGID_00000042716660380955623100000010770766324747150006_);}
	.st14{fill:#A29CB7;}
	.st15{fill:#C9C7D8;}
	.st16{fill:#C17E42;}
	.st17{fill:#62A4CC;}
	.st18{fill:#E5BDA3;}
	.st19{fill:#77A22F;}
	.st20{clip-path:url(#SVGID_00000174563498258058008930000010040676918045759409_);}
	.st21{fill:#8ABD32;}
	.st22{clip-path:url(#SVGID_00000061464839969407341690000008313239684925934993_);}
</style>
<path class="st0" d="M537.1,1155.8c-86.2-5.6-173.3,13.8-242.6,56.3c-97.8,60-181.7,157.4-98.9,301.1
	c156.9,272.4,357.7,304.2,701.9,251.7s549.4-263.6,634.5-238.1s338.2-70.4,224-249.2c-58.6-91.6-504.7-333.4-874.8-200.3
	C690.3,1146.2,589.7,1159.3,537.1,1155.8z"/>
<g>
	<defs>
		<path id="SVGID_1_" d="M537.1,1155.8c-86.2-5.6-173.3,13.8-242.6,56.3c-97.8,60-181.7,157.4-98.9,301.1
			c156.9,272.4,357.7,304.2,701.9,251.7s549.4-263.6,634.5-238.1s338.2-70.4,224-249.2c-58.6-91.6-504.7-333.4-874.8-200.3
			C690.3,1146.2,589.7,1159.3,537.1,1155.8z"/>
	</defs>
	<clipPath id="SVGID_00000029036873803694556990000000309573860457386113_">
		<use xlink:href="#SVGID_1_"  style="overflow:visible;"/>
	</clipPath>
	<g style="clip-path:url(#SVGID_00000029036873803694556990000000309573860457386113_);">
		<path class="st2" d="M983.7,1418.8c0,0,95.1,198.4-234.4,206.5s-412.4,196.1-412.4,196.1l573.2,79.7c0,0,169.9-208.3,206.5-257.4
			s71.4-185.2-8.3-266.2S983.7,1418.8,983.7,1418.8z"/>
	</g>
</g>
<path class="st3" d="M1279,940.6c0,0,105.3,89.8,215.7,12.2l6.2-35.9l-114.8-33l-118.9-62l-37.6,30.2L1279,940.6z"/>
<path class="st4" d="M1280.2,913c0,0,134.2,123.7,235.6-9.2l-264.3-96.7c0,0-17.8,35.7-138.9-69.3
	C977.2,620.5,1280.2,913,1280.2,913z"/>
<polygon class="st5" points="773.8,1444.6 486.7,1231.8 429,820.5 739.8,994 "/>
<path class="st6" d="M725.6,1118c0,0-214.8-194.8-284.2-198v-66.3l220,70.2l48.7,99.9L725.6,1118z"/>
<path class="st6" d="M834.9,1444.6l168.1-38l251.5-74.8l25.6-418.8l-105.1-115.7l-69.7-166.5l-40.2-62.1l-132.8,37.7
	c0,0-40.9,152.5-46.3,166.1S749.3,989.5,749.3,989.5l21.2,91.8l24.1,280.8L834.9,1444.6z"/>
<path class="st7" d="M333.3,765.4c0,0,1.1,18.6,16.1,19.5c10,0.5,19.9,0.5,29.9,0l-6.8,29.2l-24.9,28.8l-37-29l-16-70.9l42.4,11.5
	l-3.6,10L333.3,765.4z"/>
<path class="st8" d="M333.3,765.4c0,0,10.9,31.2,8.2,35.7c0,0,23.5-4.3,27.9-10.5c0,0-4.1,18.8-24.5,23.3l2.7,29l133.9-53L548,660.8
	L333.3,765.4z"/>
<polygon class="st7" points="469.5,1239.2 434.1,1212.2 375.1,802.6 450.1,828.7 "/>
<polygon class="st7" points="1233.6,1350.4 1221.5,1342.6 1212.1,877.5 1261.1,918.2 "/>
<polygon class="st8" points="423.7,841.7 469.5,1239.2 486.6,1231.6 451.4,801 "/>
<polygon class="st9" points="585,1058.4 574.6,1034.8 585.6,1034.5 676.6,1088.3 680.9,1255.4 672.9,1258.6 668.2,1247.8 
	598.5,1206.4 "/>
<polygon class="st8" points="668.7,1091.6 574.6,1034.8 590.5,1209.7 672.9,1258.6 "/>
<polygon class="st10" points="655.2,1107.7 592.3,1064.1 600.1,1193.1 655.2,1230.6 "/>
<polygon class="st8" points="629.6,1080.3 633.1,1220.1 618.8,1210.2 615.4,1075.3 "/>
<polygon class="st8" points="661.6,1162.9 589.4,1121.2 589.7,1134.8 664.3,1179.6 "/>
<path class="st8" d="M440.3,1364.9c0,0-11.3,17.7-28.5,10.6L233,918.9l54.9-21.3L440.3,1364.9z"/>
<path class="st3" d="M706.9,1043.3c0,0-81.4,160.5-190.1,126.5c-4.8-1.5-8.1,4.4-12.7,3c-98.9-31.4-159.4-70.3-198.6-222.7
	l167,121.7L706.9,1043.3z"/>
<path class="st11" d="M255.3,899.6c-10.5,5-25.4,12.2-22.4,19.4s13.5,10.9,30.1,3.7s27.5-18.8,24.5-26S271.7,891.8,255.3,899.6z"/>
<path class="st4" d="M486.6,873.5c0,0-43.7,148.7-181.1,76.6c0,0,28.9,123.8,166.6,193.5s234.8-140.9,234.8-140.9L486.6,873.5z"/>
<path class="st3" d="M655,989.5c0,0-253.5-149.4-294.3-193.7V776l298,130.1C658.7,906.1,685.7,966.5,655,989.5z"/>
<polygon class="st7" points="795.5,1478.1 762,1456.4 703.1,1014.5 790.5,994 "/>
<polygon class="st8" points="1299.1,926.2 1273.7,1337.3 1233.6,1350.4 1233.6,896.8 "/>
<polygon class="st4" points="671.6,975.3 360.7,776 513.5,711.1 707.6,512.4 907.8,649.2 846.5,849.4 718,961.9 "/>
<polygon class="st7" points="644.2,958.9 653.3,1036 718.7,1059.3 762,1007 762,942.7 "/>
<path class="st9" d="M1117.8,637.3l-50.8-22.1c0,0,44,263.7,261.8,334.4c0,0,4.5,1.7,13.7-5.2c4.2-3.1,4.7-11.3,7-19.6
	c0,0-32.8-6.1-41.2-17.7c0,0,27.3,14.7,42.5,10.9c0,0,10.8-11.4,10.1-18.7C1360.8,899.3,1230.4,911.8,1117.8,637.3z"/>
<path class="st9" d="M697.8,526c0,0-78.5,173.5-364.5,239.4L294.5,743c0,0,261.6-59.8,379.9-230L697.8,526z"/>
<path class="st9" d="M714.9,979.6l-70.7-20.7c0,0,199.5-98.5,246.9-310.8c0,0,54.2-0.7,44.6,21.1S826.6,936.4,826.6,936.4
	L714.9,979.6z"/>
<path class="st8" d="M1123.2,627.8l-46.5,3c0,0,48.1,243,266,313.7c0,0,19.4-13.8,12.2-29.2c0,0-32.8-6.1-41.2-17.7
	c0,0,27.3,14.7,42.5,10.9c0,0,10.8-11.4,10.1-18.7C1366.3,889.8,1235.9,902.2,1123.2,627.8z"/>
<path class="st8" d="M954.9,655.3l-44.9,8.9c0,0-26.8,191.8-195.1,315.4l2.2,25.1l36.5-26.9c0,0-22.3,29.3-37.5,34.7l1.2,13.6
	c0,0,15.7-9.4,20.2-16.3c0,0-5.4,20.2-19,25.7v23.8C718.7,1059.3,922.5,949.7,954.9,655.3z"/>
<path class="st9" d="M954.9,655.3l-33.1-21.5l-39.9,6.3l28.2,24.1l0,0C925.5,666,941.2,662.9,954.9,655.3L954.9,655.3z"/>
<path class="st9" d="M1123.2,627.8l-20.7-17.9l-35.5,5.2l9.8,15.6C1076.8,630.8,1107,638.3,1123.2,627.8z"/>
<path class="st12" d="M983.7,1418.8l124.6-41.3c0,0,33.9-242.2-35.3-257.3s-91,36.8-97.1,54.9S983.7,1418.8,983.7,1418.8z"/>
<g>
	<defs>
		<path id="SVGID_00000101064056321772923650000001994167633016714133_" d="M983.7,1418.8l124.6-41.3c0,0,33.9-242.2-35.3-257.3
			s-91,36.8-97.1,54.9S983.7,1418.8,983.7,1418.8z"/>
	</defs>
	<clipPath id="SVGID_00000040571605312968944080000001571832131756621496_">
		<use xlink:href="#SVGID_00000101064056321772923650000001994167633016714133_"  style="overflow:visible;"/>
	</clipPath>
	<g style="clip-path:url(#SVGID_00000040571605312968944080000001571832131756621496_);">
		<path class="st14" d="M976,1132.2l-2.5,292.6c0,0,28.7-1.9,30.6-3.6s1.7-15.7-0.2-44.3s7.2-238.6,7.2-238.6s4.7,291,7.4,292.7
			s18.9-8.7,18.9-8.7s10-261.9,7-272.4l10.2,54.4l-12.1,228.1l30.8-22.7l3.5-243.3l12.5,261.1l26.8-13.6l-6.5-278.2
			C1109,1130.2,1038.9,1133.2,976,1132.2z"/>
	</g>
</g>
<path class="st11" d="M1142.8,1235.1c-0.7-52.8-6.5-101.8-35.2-126.7c-68.4-59.2-151.6,3.8-172.3,70.9
	c-14.8,48-10.7,243.5-10.7,243.5s4.2,4.7,17.3,6.7c2,0.3,11.9-16.7,13.8-22.1c11.3-0.1,12.4,14.8,12.4,14.8s0.1-189.8,4.3-220.6
	c5.3-38.6,34-66.9,62.5-70.6c49.8-6.5,64.5,36.5,68.3,68.3c5.6,47.1,4.8,178.1,4.8,178.1s1.6,1.4,11,1.3c3.6,0,14.6-16,15.9-18.8
	c3.8-0.7-1.3,7.6,2.1,4C1137.3,1364,1143.9,1313.5,1142.8,1235.1z"/>
<path class="st8" d="M1118.8,1111.3c-66.1-59.2-146.7-0.8-166.7,66.3c-14.3,48-10.1,252-10.1,252c28.3,4.8,41.6-10.8,41.6-10.8
	s0.4-183.6,4.5-214.3c5.2-38.6,32.8-66.9,60.5-70.6c48.2-6.5,63.9,34.5,67.6,66.3c5.4,47.1,3,178.6,3,178.6s18.6-0.5,31.8-15
	c0,0,2.9-47.5,1.8-125.9C1152.2,1185.2,1146.6,1136.1,1118.8,1111.3z"/>
<path class="st11" d="M1148.4,958.4c1.5-3.8,0.1-8.2-3.4-10.4c-117.1-72.6-214.6-14.6-244.1,16.6c-9.6,10.2-9.7,18.9-8.3,38.1
	l2.8,51.2c0.3,5.2,3,9.9,7.4,12.7l8.7,5.6l5.6-14.2l208.1-40.5L1148.4,958.4z"/>
<path class="st8" d="M911.5,1072.1l-3.2-59.4c-1.3-19.2-1.3-27.9,8.3-38.1c29.6-31.2,103.8-85.3,228.5-25.7c3.5,1.7,5.6,5.5,5.1,9.3
	l-7.9,59.1c-0.8,6-5.3,10.8-11.3,12L911.5,1072.1z"/>
<path class="st12" d="M982.6,1016.2c0,0,42.4-13,54.6-16.5l142-41c0,0-72.9-24.8-149.1,19.6l-49.8,15.4c0,0-63.4-37.4-83.4,16.8
	c-3.3,8.9-0.6,18.9,6.8,25C917.8,1047.2,945.7,1058.4,982.6,1016.2z M917.9,1011c2.6-3.8,16.5-25.4,44.5-10c3.5,1.9,5,9,3.5,12.8
	c-2.5,6.4-9.7,15-25.3,16.3C916,1032.2,915.1,1015,917.9,1011L917.9,1011z"/>
<path class="st15" d="M982.8,1021.1c0,0,42.4-13,54.6-16.5s141.8-45.9,141.8-45.9s-72.7-19.8-148.9,24.5l-49.8,15.4
	c0,0-63.4-37.4-83.3,16.8c-3.3,8.9-0.6,18.9,6.8,25C918,1052.1,945.9,1063.4,982.8,1021.1z M918.1,1015.9c1.7-4.8,15.9-24.3,44.5-10
	c7.4,3.7,5,9,3.5,12.8c-2.5,6.4-9.7,14.3-25.2,15.6C916.2,1036.4,916.5,1020.5,918.1,1015.9L918.1,1015.9z"/>
<path class="st12" d="M924.2,909.9c-8.8,3.5-14.5,12.2-14.1,21.7c2.3,57.7,74.1,41.7,74.1,41.7l42.6,30
	c58.8,65.7,134.1,69.3,134.1,69.3s-110.2-80.3-120.7-87.4s-46.9-32.5-46.9-32.5C971.3,901.1,941.3,903.2,924.2,909.9z M957.6,927.2
	c14.4,6.1,18.8,15.7,19.2,22.6c0.3,4-3.3,10.3-7.3,11.1c-31.4,6-37.6-15-39.3-22C929,934.2,934.8,917.6,957.6,927.2L957.6,927.2z"/>
<path class="st15" d="M920.3,912.7c-8.8,3.5-14.5,12.2-14.1,21.7c2.3,57.7,74.1,41.7,74.1,41.7l42.6,30c58.8,65.7,138,66.5,138,66.5
	s-114.1-77.6-124.7-84.7s-46.8-32.5-46.8-32.5C967.3,903.8,937.4,905.9,920.3,912.7z M953.6,929.9c14.4,6.1,18.8,15.7,19.2,22.6
	c0.2,4-1,9.5-7.3,11.1c-31.1,7.5-39-18.7-39.3-23.3C925.9,933.9,930.8,920.3,953.6,929.9z"/>
<circle class="st12" cx="1027.1" cy="994.3" r="5.6"/>
<path class="st11" d="M649.8,446.1c0,0,102.1-41.8,186.5-35.4l9.3,14.2l-95,36.3l-75.3,14.1L649.8,446.1z"/>
<path class="st16" d="M654.4,453c0,0,40.7-16.4,85.8-24.4c32.6-5.7,55.8-6.9,90.8-5.2l-10.7,44.5c0,0-128,23.2-145.9,45
	S654.4,453,654.4,453z"/>
<path class="st6" d="M714.2,379.9c0,0,68.2,44.2,114.8,37.6s-31.9-25.9-31.9-25.9s-63.5-22.4-69.7-27s-24.5-18.9-24.5-18.9
	L714.2,379.9z"/>
<polygon class="st5" points="723.2,505 880.2,593.5 918,539.8 854.8,422.4 783.8,357.4 671,318.2 719.5,448.1 "/>
<polygon class="st9" points="756.3,420.5 746.8,404.7 754.5,403.5 823.5,433.2 841.8,550.5 836.5,553.5 832.1,546.3 779.3,523.5 "/>
<polygon class="st8" points="818.3,436.2 746.8,404.7 774,526.5 836.5,553.5 "/>
<polygon class="st10" points="810.2,448.8 762,423.8 779.2,514 821.4,535.4 "/>
<polygon class="st8" points="789.7,431.9 804.9,530 794,524.3 779.2,429.6 "/>
<polygon class="st8" points="819.8,487.1 765.1,464.3 766.6,473.9 823.2,498.6 "/>
<polygon class="st6" points="944.9,563.4 1059.3,555.7 1121.3,399.9 1000,287.1 893.7,430.7 "/>
<path class="st8" d="M667.6,347.5c0,0,35.7,55.6,61.1,162l32,12.8c0,0-32.9-155.1-64.4-191.9L667.6,347.5z"/>
<path class="st7" d="M652.2,347.5c0,0,35.7,55.6,61.1,162l32,12.8c0,0-32.9-155.1-64.4-191.9L652.2,347.5z"/>
<path class="st7" d="M598.1,292.7c0,0,2.6,45.8,8.9,55.7l33.2,16.3l23.9-32l-23.5-29.4l-24.4-8L598.1,292.7z"/>
<path class="st9" d="M632.9,308.5l-22.8-9.4l-12-6.3c0,0,93.4,15.1,195-139.9l14.9,69.6l-155.9,86.1H632.9z"/>
<path class="st8" d="M793.2,152.8c0,0-19.5,120.9-160.2,155.7l5.8,32.4l1.6,23.8c0,0,79.2-35.3,136.2-98.8
	C817.2,220.7,801.3,175.8,793.2,152.8z"/>
<path class="st4" d="M697.8,332.2c0,0,28.8,42.7,104.2,56s177.4-126.8,177.4-126.8l-69.6-30.8L796,199.4l-4.2,7.7
	c-7.7,26-25.6,51.8-41.2,72.7C734.8,300.7,718,315.8,697.8,332.2L697.8,332.2z"/>
<path class="st7" d="M1102,526.2c0,0-23.6,54-20,73.2l10,23l51.3-71L1102,526.2z"/>
<path class="st9" d="M1135.1,560.1l-33.1-33.9c0,0,33.4-3.2,42.3,0l33.8,30.2L1135.1,560.1z"/>
<path class="st8" d="M1130.4,556c0,0-39.4,46.8-38.3,66.5c0,0,21.7,5.2,31.1,0c0,0,45.1-61.2,55-66.1
	C1178.2,556.4,1163.5,551.5,1130.4,556z"/>
<path class="st7" d="M851.5,447.6l8.7,15.5c18.6,32.9,33,68,43,104.4l0,0l29.2-4.7l-48.9-125.5L851.5,447.6z"/>
<path class="st8" d="M870.9,452.8L870.9,452.8c20,34.8,35.7,71.8,47,110.3l1.8,6.3l36.7-8.8c0,0-40.7-113.7-46-138.2L870.9,452.8z"
	/>
<path class="st9" d="M1125.4,430.2c0,0-36.7,37.6-48.7,119.9c-1.3,9-5.6,4.9-5.6,4.9l-32.4-3.5c0,0,17.6-108.6,50.1-143.8
	L1125.4,430.2z"/>
<path class="st8" d="M1135.4,430.2c0,0-36.7,37.6-48.7,119.9c-1.3,9-5.6,4.9-5.6,4.9l-32.4-3.5c0,0,17.6-108.6,50.1-143.8
	L1135.4,430.2z"/>
<path class="st3" d="M697.8,332.2l6.5,17.4c0,0,26.6,37.1,111.3,50.3l7.5-13.6C823,386.4,744.7,387.5,697.8,332.2z"/>
<path class="st11" d="M921.7,569c0,0,88.3-27.5,171.4-13.2l5.5,9.5l-96.7,24.2l-76.5,4.1L921.7,569z"/>
<path class="st8" d="M924.5,582.7c27.7-9.4,56.3-15.8,85.4-19c32.8-3.5,54.2-3.5,88.7,1.6l-14.1,39.9c0,0-129.9,6.2-150.3,22.8
	S924.5,582.7,924.5,582.7z"/>
<path class="st8" d="M681.8,451.9l13.8,57.7c0,0-13,14.8-28,13.1c0,0-25.3-39.7-25.8-54.3C641.8,468.3,651.7,454.7,681.8,451.9z"/>
<path class="st17" d="M818.3,275.1c1.4-2,1.1-4.7-0.8-6.2c-2.4-2-5.4-4.7-6.3-6.3c-1.7-2.7-14.8,17-14.1,21.5s8.5,8.1,10.3,7.5
	C808.8,291.1,814,281.1,818.3,275.1z"/>
<path class="st17" d="M790.3,277.8c1.4-2,1.1-4.7-0.8-6.2c-2.4-2.1-5.4-4.7-6.3-6.3c-1.7-2.7-14.8,17-14.1,21.5s8.5,8.1,10.3,7.5
	C780.8,293.8,786,283.8,790.3,277.8z"/>
<path class="st17" d="M814.9,344.1c1.3-1.8,1-4.3-0.7-5.8c-2.2-1.9-5-4.4-5.8-5.9c-1.6-2.6-13.9,15.7-13.3,19.9s7.9,7.6,9.6,7
	C806,359,810.9,349.7,814.9,344.1z"/>
<path class="st17" d="M807.3,252.5c0.9-1.3,0.7-3.1-0.5-4.1c-1.6-1.2-3-2.6-4.2-4.2c-1.2-1.8-9.8,11.3-9.4,14.2c0.5,3,5.7,5.4,6.8,5
	C801,263.1,804.4,256.5,807.3,252.5z"/>
<path class="st17" d="M884,293.4c1.2-1.4,1.1-3.6-0.2-4.9c-1.7-1.6-3.3-3.4-4.6-5.3c-1.2-2.2-12.7,12.4-12.4,16s6.2,6.9,7.7,6.5
	C875.5,305.3,880.3,297.8,884,293.4z"/>
<path class="st17" d="M776.2,317.5c0.9-1.1,0.9-2.8-0.2-3.8c-1.3-1.2-2.5-2.6-3.5-4.1c-0.9-1.7-9.8,9.6-9.6,12.4s4.8,5.4,5.9,5.1
	C769.7,326.7,773.3,320.9,776.2,317.5z"/>
<path class="st17" d="M736.8,613.4c2.2-3.1,1.7-7.3-1.2-9.8c-3.8-3.2-8.4-7.4-9.9-9.8c-2.7-4.3-23.2,26.6-22.1,33.6
	s13.4,12.8,16.2,11.8C722,638.4,730.2,622.7,736.8,613.4z"/>
<path class="st17" d="M645.4,706.3c2.2-3.1,1.7-7.3-1.2-9.7c-3.8-3.2-8.4-7.4-9.9-9.8c-2.7-4.3-23.2,26.6-22.1,33.6
	s13.4,12.8,16.2,11.8C630.6,731.4,638.8,715.7,645.4,706.3z"/>
<path class="st17" d="M714.3,824.5c2.1-2.8,1.6-6.8-1-9.1c-3.5-3-7.8-6.9-9.2-9.2c-2.5-4-21.7,24.6-20.8,31.2s12.3,12,15,11
	C700.3,847.7,708,833.1,714.3,824.5z"/>
<path class="st17" d="M724,769c2.7-3.7,2.1-8.8-1.3-11.7c-4.5-3.9-10-9-11.8-11.9c-3.2-5.2-28.1,31.8-26.9,40.3s16,15.5,19.4,14.3
	C705.9,799,715.9,780.2,724,769z"/>
<path class="st17" d="M702.3,681c1.5-2,1.1-4.8-0.8-6.5c-2.5-2.1-5.6-4.9-6.6-6.5c-1.8-2.8-15.4,17.6-14.7,22.3s8.9,8.5,10.7,7.8
	C692.4,697.5,697.8,687.2,702.3,681z"/>
<path class="st17" d="M822.4,744.9c1.9-2.3,1.8-5.6-0.3-7.7c-2.8-2.8-6.1-6.3-7.2-8.3c-1.9-3.5-19.8,19.5-19.5,25.1
	s9.7,10.9,12,10.2C809.2,763.7,816.6,751.9,822.4,744.9z"/>
<path class="st17" d="M509.8,785.8c2.5-2.8,2.4-7-0.1-9.7c-3.4-3.6-7.5-8.2-8.7-10.7c-2.2-4.5-25.6,23.7-25.3,30.7
	s11.8,14,14.6,13.3C492.6,808.8,502.3,794.2,509.8,785.8z"/>
<path class="st11" d="M793.2,152.8l5.9-3.9c0,0,7.8,49.1,214.6,63.7l0,0L950,225.7l-118.5-17.6L797.7,170L793.2,152.8z"/>
<path class="st9" d="M793.2,152.8c0,0,20.5,64.2,220.5,59.8l-24.9,40c0,0-113.1,20.1-195.6-47.6V152.8z"/>
<path class="st8" d="M973.4,425.9c11.7-7,26-7.9,38.8-3.3c11,3.9,24.4,11.9,28.7,27.9c7.8,28.7-7.7,52.5-35.2,58
	c-27.5,5.5-53.5-19.7-53.4-40.5C952.3,452.8,957.3,435.5,973.4,425.9z"/>
<path class="st10" d="M981,434.5c9.2-4.7,20-5.1,29.5-1.1c8.2,3.4,18,9.9,20.7,22.2c4.8,22-7.8,39.4-28.8,42.6s-39.8-16.9-38.9-32.6
	C964,454.1,968.4,441.2,981,434.5z"/>
<polygon class="st8" points="992.5,429.3 990.2,501.2 1002,501.4 1005,429.5 "/>
<polygon class="st8" points="961.4,467.6 1033.2,471.6 1033.6,459.8 961.8,455.2 "/>
<path class="st9" d="M987.1,747.4c18.3-10.9,40.6-12.3,60.7-5.2c17.2,6.1,38.1,18.5,44.8,43.5c12.1,44.9-12,82-55,90.6
	s-83.6-30.8-83.5-63.3C954.2,789.4,961.9,762.4,987.1,747.4z"/>
<path class="st8" d="M998.6,746.9c18.3-10.9,40.6-12.3,60.7-5.2c17.2,6.1,38.1,18.5,44.8,43.5c12.1,44.9-12,82-55.1,90.6
	s-83.6-30.8-83.5-63.3C965.7,788.8,973.5,761.8,998.6,746.9z"/>
<path class="st10" d="M1010.5,760.4c14.2-7.6,31.2-7.8,46.1-1.7c12.8,5.3,28.2,15.4,32.3,34.6c7.5,34.4-12.2,61.6-45.1,66.5
	s-62.1-26.4-60.8-51C984,790.9,990.8,770.8,1010.5,760.4z"/>
<polygon class="st8" points="1028.5,752.2 1024.8,864.6 1043.2,864.8 1048,752.5 "/>
<polygon class="st8" points="979.8,812.1 1092,818.3 1092.7,799.9 980.5,792.6 "/>
<path class="st7" d="M655,477.7c0,0,48.2,15,118.5,49.6c78.7,38.7,71.9,46.6,84.1,50.3l24.9,56.2L674.8,520L655,477.7z"/>
<path class="st11" d="M655,477.5l17.3-6.5l196.6,96.4l-11.3,10.1l0,0c-61.4-32.7-123.7-63.6-186.9-92.7L655,477.5z"/>
<path class="st18" d="M667.6,522.6l-25.8-54.3l-30.1-16.5c0,0,20.7,46.7,30.1,57.7L667.6,522.6z"/>
<path class="st9" d="M641.8,468.3c0,0,32-10.8,40-16.5l-32-14.6l-38.1,14.6C611.7,451.9,620.2,464.1,641.8,468.3z"/>
<path class="st8" d="M935.7,568.8l7.3,75.8c0,0-19.2,16.4-38,11.7c0,0-25.2-55-23.2-73.7C881.9,582.7,896.9,567.1,935.7,568.8z"/>
<path class="st7" d="M905.1,656.3l-23.2-73.7l-35.4-26.3c0,0,18,63.1,28,78.7L905.1,656.3z"/>
<path class="st9" d="M881.9,582.7c0,0,42.6-8.1,53.8-13.8l-38.1-24.2l-51,11.8C846.6,556.4,855.1,573.4,881.9,582.7z"/>
<path class="st9" d="M802,388.2c0,0,94.5-16.6,173.1-150.2l38.5-25.4l-13.7,83.2l-72.9,80.9L860,410.5l6.3-4.5
	C866.3,406,809.1,401.3,802,388.2z"/>
<polygon class="st7" points="859,462.2 810.6,447.9 802,388.2 845.9,398.3 895,407.7 899.8,425.2 "/>
<path class="st8" d="M1013.7,212.6c0,0-73.8,160.8-167.8,185.7l7.5,35.2c0,0,20.7-2.4,34.8-13.6c0,0-21.2,18.3-31,19.3l1.9,23
	c0,0,117-48.9,154.7-149.7c0,0,24.4,95.2,142.9,129.5l8.6-20c0,0-14.2,1.8-27.4-11.5c0,0,19.4,8.9,30.8,5.6l4.8-15.5
	c0,0-24.8,0-39.4-13.6c0,0,32.3,12.1,45,3.7l2.5-11.7C1181.6,378.9,1115.7,402,1013.7,212.6z"/>
<polygon class="st8" points="762,1007 795.5,1478.1 853.5,1460 827.2,948.8 "/>
<path class="st8" d="M348,774.2c0,0,270-46.2,359.8-236.1l-12.2-7.8c0,0-4.3-5-11.8,10c-9.2,18.5-97.1,145.6-340.2,222.6L348,774.2z
	"/>
<path class="st8" d="M667.5,1522.9c0,0-15.1,23.8-34.7,12.9l-185.5-455.3l60.1-26.1L667.5,1522.9z"/>
<ellipse transform="matrix(0.9172 -0.3984 0.3984 0.9172 -385.8083 278.577)" class="st11" cx="477.3" cy="1067.5" rx="32.8" ry="17"/>
<path class="st3" d="M626,958.8c0,0,21.6,56.3-87.7,111.8c0,0,83.4-65.2,70.3-116.7L626,958.8z"/>
<path class="st3" d="M591.2,945.1c0,0-4.4,53.6-113.6,55.9c0,0,92.1-20.1,101.6-66.5L591.2,945.1z"/>
<path class="st8" d="M1365.2,1318.1c0,0,15,21.3,32.7,10.4l151.8-428.6l-56.7-21.6L1365.2,1318.1z"/>
<ellipse transform="matrix(0.3556 -0.9346 0.9346 0.3556 149.2781 1995)" class="st11" cx="1521.4" cy="889.2" rx="15.7" ry="30.3"/>
<path class="st8" d="M1009.5,513.2c15-3.9,27.7-13.3,34.1-28.5c5.5-13,9.5-31.6-0.2-49.7c-17.5-32.4-49.2-40.3-75.5-21.5
	s-27.7,62-10.5,80.6C969.8,507.7,988.9,518.5,1009.5,513.2z"/>
<path class="st12" d="M1006.1,504.7c12-3.1,21.7-12.3,26.8-24.4c4.4-10.4,7.6-25.4-0.2-39.8c-14-26-39.5-32.3-60.5-17.3
	s-20.9,51.1-7.1,66C975.1,500,989.6,508.9,1006.1,504.7z"/>
<path class="st15" d="M1011,499.8c12-3.1,21.7-12.3,26.8-24.4c4.4-10.4,5.2-28.6-0.2-39.8c-12.8-26.6-42.6-29.4-60.5-17.2
	c-21.4,14.5-20.9,51.1-7.1,66C980,495.1,994.5,504.1,1011,499.8z"/>
<path class="st8" d="M994.3,458.7c4.2-1.8,12.3-6.1,16.6-13.3c0.8-1.5,2.7-2.1,4.2-1.2c0.3,0.2,0.6,0.4,0.9,0.7
	c1.1,1.2,2,2.7,1.5,4.2c-1.2,3.5-11.1,14.4-21.1,16.4c-0.5,0.1-1,0.1-1.4-0.1h-0.1C991.8,464.5,991.5,460,994.3,458.7z"/>
<path class="st8" d="M1002.1,442.8c1.7,4.7,5.6,13.9,12.2,19.1c1.7,1.3,2,3.7,0.7,5.4c-0.1,0.1-0.1,0.2-0.2,0.2
	c-1.1,1.1-2.5,1.9-3.9,1.2c-3.2-1.5-13.2-13.3-15-24.4c-0.1-0.5-0.1-1.1,0.1-1.6v-0.1C996.8,439.6,1001,439.7,1002.1,442.8z"/>
<path class="st19" d="M1568.6,1272.8c-59.6-34.3-65.4,26.4-65.4,26.4s11.5-125.5-84.8-122.2c-45,1.5-59.4,41-63.9,69
	c-10.2-16.2-27.1-28.8-54.5-31.2c-64-5.6-51.3,101.4-51.3,101.4c-11.9,3.2-23.9,5.6-36.1,7.3c-1.5-19.4-9.9-40.8-38.1-47.3
	c-40.1-9.2-48.4,45-48.4,45c-19,2.4-25.2,15.6-25.2,15.6c-7.8,13.1-5.3,25.2,0.1,34.8c7.2,13,26.7,34.6,59.5,28.7l55.1-5
	c17.6,15.1,45.7,28,82.8,16l0,0c61,7.4,122.6-3.8,178.6-32.6l21.7-11.1c23.4-4.6,45.5-15.7,64.6-32.2
	C1584.6,1316.7,1601.2,1291.6,1568.6,1272.8z"/>
<g>
	<defs>
		<path id="SVGID_00000101071157823793842100000010255700942985660086_" d="M1400.5,1301.9c4.7-14.7,5-31.8-8.8-46.7
			c0,0-11.7-15.7-37.8-12.3c0,0-22.9-71.3-74.4-45.2c-70.9,35.9-31,118.6-31,118.6s-29.2-50.6-62.3-1.9
			c-18.1,26.6,7.7,59.5,33.3,57.5c18.7,4.4,38.2,3.5,56.4-2.4l86.1-27.2C1379.6,1336.6,1394.1,1321.8,1400.5,1301.9z"/>
	</defs>
	<clipPath id="SVGID_00000143608696753255374670000014574741484920003738_">
		<use xlink:href="#SVGID_00000101071157823793842100000010255700942985660086_"  style="overflow:visible;"/>
	</clipPath>
	<g style="clip-path:url(#SVGID_00000143608696753255374670000014574741484920003738_);">
		<path class="st21" d="M1234,1374.2c0,0-27.7-16.9-21.8-36.5c5.4-18,21.3-12.7,35.3-5.6c7.9,4,18.4-3,16.6-12.8
			c-7.3-41.6,25.7-92.4,88.3-56.3c11.3,6.5,11.1-0.2,6.4-6.8c-16.8-23.9,22.8-83.2-26.3-76c-73.2,10.7-134.4,50.5-134.4,53
			s-36.6,100.6-36.6,100.6l31,70.6L1234,1374.2z"/>
	</g>
</g>
<path class="st19" d="M918.6,1491.4c5.3-15.1,6.1-33.2-8.1-50.4c0,0-11.9-17.8-39.5-17c0,0-24.7-76.7-79.6-54.3
	c-75.7,30.8-29.8,127.3-29.8,127.3s-22.4-46.6-58.6,1.6c-19.8,26.4,0.5,40.7,22.9,48.3c19.2,6.5,39.8,7.7,59.6,3.3l91.5-20
	C895.7,1526.1,911.4,1511.9,918.6,1491.4z"/>
<g>
	<defs>
		<path id="SVGID_00000055685965274309094260000012850580657251343773_" d="M918.6,1491.4c5.3-15.1,6.1-33.2-8.1-50.4
			c0,0-11.9-17.8-39.5-17c0,0-22.4-78-77.4-55.7c-75.7,30.8-35.7,122.6-35.7,122.6s-29.6-56.7-65.8-8.5c-19.8,26.4,6.6,64,33.7,64.4
			c19.2,6.5,39.8,7.7,59.6,3.3l91.5-20C895.7,1526.1,911.4,1511.9,918.6,1491.4z"/>
	</defs>
	<clipPath id="SVGID_00000049216640512686392830000002044355539554889628_">
		<use xlink:href="#SVGID_00000055685965274309094260000012850580657251343773_"  style="overflow:visible;"/>
	</clipPath>
	<g style="clip-path:url(#SVGID_00000049216640512686392830000002044355539554889628_);">
		<path class="st21" d="M741.1,1550.9c0,0-28.8-20.8-22.2-41c6.1-18.5,22.8-11.3,37.4-2.2c8.2,5.1,19.5-1.2,17.9-11.8
			c-6.7-44.9,29.4-95.4,94.6-50.6c11.8,8.1,2.5-23.9-2.2-31.3c-17.2-27.1,35.3-61.1-16.7-58.6c-77.5,3.8-143.1,39.6-143.2,42.3
			s-41.1,103-41.1,103l30.9,78.1L741.1,1550.9z"/>
	</g>
</g>
<path class="st19" d="M1020,1456.3c3.6-14.5,2.8-31.2-11.5-45.4c0,0-12.3-15-37.3-11.2c0,0-28.7-67.7-76.8-41
	c-66.2,36.8-16.6,120.3-16.6,120.3s27.4-15.4-1.5,32.9c-15.8,26.4-47.8,12.5-26.8,16.9c18.4,3.8,8.7-0.6,27.4,1.3l76.8-14.6
	C997.4,1511.2,1015.1,1475.9,1020,1456.3z"/>
</svg>
