<svg id="Layer_1" data-name="Layer 1" xmlns="http://www.w3.org/2000/svg" xmlns:xlink="http://www.w3.org/1999/xlink" viewBox="0 0 2000 2000"><defs><style>.cls-1{fill:none;}.cls-2{fill:#aed76a;}.cls-3{clip-path:url(#clip-path);}.cls-4{fill:#fecfae;}.cls-5{fill:#77a22f;}.cls-6{clip-path:url(#clip-path-2);}.cls-7{fill:#8bbc38;}.cls-8{fill:#9e7e7d;}.cls-9{fill:#dd8e8a;}.cls-10{fill:#8e3021;}.cls-11{fill:#ce746b;}.cls-12{fill:#bca7a7;}.cls-13{fill:#ddc8c7;}.cls-14{fill:#332525;}.cls-15{fill:#785a56;}.cls-16{clip-path:url(#clip-path-3);}.cls-17{fill:#896a67;}.cls-18{fill:#f4cc21;}.cls-19{fill:#302323;}.cls-20{fill:#513b3a;}.cls-21{fill:#aa4226;}.cls-22{fill:#ceac9f;}.cls-23{fill:#ffeea9;}.cls-24{fill:#1e1713;}.cls-25{fill:#e0c5b8;}.cls-26{clip-path:url(#clip-path-4);}.cls-27{fill:#e8dbd4;}.cls-28{clip-path:url(#clip-path-5);}.cls-29{fill:#ba5a4a;}.cls-30{clip-path:url(#clip-path-6);}.cls-31{fill:#8abd32;}</style><clipPath id="clip-path"><path class="cls-1" d="M1765.91,1157.62c-64-74.51-246.05-283.67-806.46-243.43-651.7,46.79-887.2,287.18-808.22,475,103.05,245,526.94,157.16,582.16,205.14s790.1,194.74,1007.75-82.21C1857.27,1364.31,1831.41,1233.93,1765.91,1157.62Z"/></clipPath><clipPath id="clip-path-2"><path class="cls-1" d="M260.28,1082.73q4.44-1.35,9.32-2.75S251.12,954.55,383.17,947.32c130.64-7.16,128.22,138.8,128.22,138.8s32.82-59.41,91.2-23.68c47.64,27,32.3,83.89,1.07,115.58,0,0,92.8,144.32-195.09,88.27-1.89.24-30.94,2.92-30.94,2.92a190.61,190.61,0,0,1-58.41-3.7h0a187,187,0,0,1-97.8-56.37c-.25-.26-.49-.53-.74-.8a58.93,58.93,0,0,1-5.78-7.61C186.72,1157.1,210.05,1098,260.28,1082.73Z"/></clipPath><clipPath id="clip-path-3"><polygon class="cls-1" points="750.84 1290.76 892.45 1316.76 892.45 931.73 753.6 950.07 743.51 938.37 750.84 1290.76"/></clipPath><clipPath id="clip-path-4"><polygon class="cls-1" points="610.87 847.23 1121.55 905.39 1083.25 1003.26 570.44 936.59 610.87 847.23"/></clipPath><clipPath id="clip-path-5"><polygon class="cls-1" points="1152.76 903.26 1475.47 879.85 1558.46 963.58 1207.37 996.88 1152.76 903.26"/></clipPath><clipPath id="clip-path-6"><path class="cls-1" d="M1525.61,1342.67c3.82-17.44,2.26-37.16-15.22-52.72,0,0-15.13-16.76-44.78-10.07,0,0-34.18-79.51-90.51-43.84-77.6,49.07-22.71,139.8-22.71,139.8s-39.15-55-71.92,4.63c-17.94,32.6,15.36,67.63,44.62,62.49a121.66,121.66,0,0,0,64.63-8.92l96-40.72C1505.4,1384.93,1520.42,1366.24,1525.61,1342.67Z"/></clipPath></defs><path class="cls-2" d="M1765.91,1157.62c-64-74.51-246.05-283.67-806.46-243.43-651.7,46.79-887.2,287.18-808.22,475,103.05,245,526.94,157.16,582.16,205.14s790.1,194.74,1007.75-82.21C1857.27,1364.31,1831.41,1233.93,1765.91,1157.62Z"/><g class="cls-3"><path class="cls-4" d="M640.33,1392.25s-69.89-1.29-69.89,70.92c0,67,114,137.18,114,137.18l320.43,150.13,104.05-23.76,258.15-45.37s-373.72-29.16-467.69-121S846,1444.05,846,1444.05,832.75,1325.66,640.33,1392.25Z"/></g><path class="cls-5" d="M260.28,1082.73q4.44-1.35,9.32-2.75S251.12,954.55,383.17,947.32c130.64-7.16,128.22,138.8,128.22,138.8s32.82-59.41,91.2-23.68c47.64,27,32.3,83.89,1.07,115.58,0,0,92.8,144.32-195.09,88.27-1.89.24-30.94,2.92-30.94,2.92a190.61,190.61,0,0,1-58.41-3.7h0a187,187,0,0,1-97.8-56.37c-.25-.26-.49-.53-.74-.8a58.93,58.93,0,0,1-5.78-7.61C186.72,1157.1,210.05,1098,260.28,1082.73Z"/><g class="cls-6"><path class="cls-7" d="M511.39,1086.12s-58.25-113.48-138.62-76.24c-107.4,49.76-47.83,110.41-47.83,110.41s-155.68,6.31-25,139.86S84.11,1185,84.11,1185L227.53,936.91l208.56-83.55,77.51,81.56S525.17,1042.28,511.39,1086.12Z"/></g><path class="cls-8" d="M338,1282l341.15-73.71,951.61,70.2,90.93,26.79-598.27,190.12S465.25,1340.91,460.16,1338,338,1282,338,1282Z"/><path class="cls-9" d="M1323.64,357l89.58-30.13-148.13-6.79-95,6.79S1273.68,377.83,1323.64,357Z"/><path class="cls-10" d="M1314.83,338l-33.62,58.55,33.62,106.93L1487,1313s59-33.74,143.71-34.59l-22.78-41.79V700.31s7.64-48.37-62-103.53-132.77-140.87-132.77-140.87v-129Z"/><polygon class="cls-11" points="1314.83 337.94 1170.04 326.91 1170.04 483.91 1314.83 474.1 1314.83 337.94"/><polygon class="cls-12" points="1134.49 711.4 975.61 1061.6 1135.02 1442.13 1513.24 1334.24 1513.24 803.25 1134.49 711.4"/><polygon class="cls-13" points="892.45 981.12 892.45 1383.85 1135.02 1442.13 1135.02 624.73 1068.25 462.09 694.63 438.69 584.63 800.77 584.63 1314.63 645.27 1327.38 714.95 1235.55 734.64 879.85 892.45 981.12"/><polygon class="cls-14" points="1059.13 1195.83 1059.13 1001.41 938.67 973.44 938.67 1174.91 1059.13 1195.83"/><polygon class="cls-15" points="750.84 1290.76 892.45 1316.76 892.45 931.73 753.6 950.07 743.51 938.37 750.84 1290.76"/><g class="cls-16"><polygon class="cls-17" points="770.4 953.8 765.49 1305.77 780.39 1305.77 784.89 1208.24 804.07 1217.46 794.85 1305.77 815.33 1310.03 820.81 1231.3 836.77 1234.49 836.77 1316.76 857.46 1316.76 859.83 1224.38 880.41 1224.38 875.65 968.16 770.4 953.8"/></g><polygon class="cls-18" points="784.16 980.69 784.16 1195.48 857.46 1208.24 857.46 980.69 796.93 955.57 784.16 980.69"/><polygon class="cls-12" points="645.27 939.81 645.27 1327.38 750.84 1290.76 750.84 942.93 645.27 939.81"/><path class="cls-19" d="M1175.54,990.47v228.24l9.84,2.33,276.35-58.93V961.74S1207.45,909.26,1175.54,990.47Z"/><path class="cls-20" d="M1185.38,988.75V1221l286.19-50V960S1217.3,907.54,1185.38,988.75Z"/><path class="cls-14" d="M1210.56,993.72v197.17l238.32-37.66V965.67S1226.16,912.15,1210.56,993.72Z"/><path class="cls-21" d="M1152.75,981.12s.88,37.35,27.12,38.14,27.5-22.38,27.5-22.38S1173.09,968,1152.75,981.12Z"/><path class="cls-22" d="M1207.37,996.88s.36,30.88,36.87,29.35c35.11-1.48,31.93-36.63,31.93-36.63S1216.35,982.22,1207.37,996.88Z"/><path class="cls-10" d="M1276.14,989.57s2.83,37.28,44.53,34.09,34.85-40.83,34.85-40.83S1286.45,974.91,1276.14,989.57Z"/><path class="cls-22" d="M1355.52,982.83s8.89,37.46,41.76,33.09c36.53-4.87,35.88-40.46,35.88-40.46S1365.83,968.17,1355.52,982.83Z"/><polygon class="cls-23" points="784.16 978.67 784.16 1176.14 842.02 1187.88 842.02 978.67 794.24 955.57 784.16 978.67"/><polygon class="cls-15" points="1059.13 1001.41 1059.13 1195.83 938.67 1174.91 938.67 973.44 915.92 968.16 915.92 1195.12 1083.25 1224.38 1083.25 1007.01 1059.13 1001.41"/><polygon class="cls-24" points="1059.13 996.7 938.67 972.77 938.67 973.44 1059.13 1001.41 1059.13 996.7"/><path class="cls-10" d="M1433.16,975.46s7.7,38.42,39.14,34.4c33.47-4.27,30-41,30-41S1442.26,960.8,1433.16,975.46Z"/><polygon class="cls-20" points="1068.19 989.16 1069.3 1199.97 936.66 1177.27 936.48 958.58 915.92 953.8 915.92 1195.12 1083.25 1224.38 1093.83 1221.98 1093.83 995.12 1068.19 989.16"/><polygon class="cls-15" points="1059.13 1001.41 1059.13 1195.83 938.67 1174.91 938.67 973.44 915.92 968.16 915.92 1195.12 1083.25 1224.38 1083.25 998.48 1059.13 1001.41"/><path class="cls-22" d="M1502.24,968.87s-.66,32.15,29,31.23c26.83-.82,27.18-36.52,27.18-36.52S1509.54,954.21,1502.24,968.87Z"/><path class="cls-11" d="M1152.75,903.26v77.86l54.62,15.76S1196.49,922.17,1152.75,903.26Z"/><path class="cls-10" d="M1083.25,1003.27s-.51,22,18.64,21.45S1120.36,990,1120.36,990,1098.85,986.07,1083.25,1003.27Z"/><path class="cls-21" d="M1083.25,1003.27,1120.36,990l1.19-84.59S1065.51,974.42,1083.25,1003.27Z"/><path class="cls-25" d="M570.44,936.59s2.49,31.57,34,31.57c26.62,0,28.45-23.44,28.45-23.44S603.07,922.05,570.44,936.59Z"/><path class="cls-21" d="M632.94,944.75s2.34,31.56,32.15,31.56c25.14,0,26.88-23.92,26.88-23.92S663.75,930.21,632.94,944.75Z"/><path class="cls-25" d="M692,952.38s2.34,31.56,32.15,31.56c25.14,0,29.48-23.53,29.48-23.53S722.78,937.84,692,952.38Z"/><path class="cls-21" d="M753.6,960.47S755.94,992,785.75,992c25.14,0,29-23.71,29-23.71S784.41,945.93,753.6,960.47Z"/><path class="cls-25" d="M814.71,968.33s2.36,33.52,32.17,33.52c25.14,0,36.14-24.61,36.14-24.61S845.52,953.79,814.71,968.33Z"/><path class="cls-21" d="M883,977.24s2.37,33.51,32.17,33.51c25.15,0,34.48-24.83,34.48-24.83S913.83,962.7,883,977.24Z"/><path class="cls-25" d="M949.66,985.87s2.46,31.06,32.17,33.51c25.29,2.09,36.35-24.58,36.35-24.58S980.47,971.33,949.66,985.87Z"/><polygon class="cls-12" points="1144.66 836.02 1036.54 524.83 713.87 473.79 584.63 825.37 584.63 736.49 698.05 443.01 916.33 438.69 1135.02 483.91 1223.41 738.65 1144.66 836.02"/><path class="cls-21" d="M1018.16,994.8s-1.46,30.54,28.25,33c25.29,2.09,36.84-24.53,36.84-24.53S1049,980.26,1018.16,994.8Z"/><path class="cls-10" d="M1532.41,804.63l-17.69,23L1183.16,873s-13.19-21.7,14.66-25.78S1417.51,771.3,1532.41,804.63Z"/><polygon class="cls-11" points="1183.16 873.01 1197.82 847.23 1097.43 484.08 1077.13 491.56 1077.13 491.56 709.96 436.37 709.96 436.37 689.96 433.37 563 790.48 584.63 800.77 703.25 455.9 1060.34 510.53 1183.16 873.01"/><polygon class="cls-21" points="1068.25 462.09 1197.82 847.23 1532.41 804.63 1403.13 478.4 1068.25 462.09"/><path class="cls-9" d="M690,433.37l387.17,58.19,326-13.15-451.1-45Z"/><path class="cls-10" d="M1026.46,729.53c-86.67-14.74-81.09-54.4-75.71-67.75a18.65,18.65,0,0,0,2.77-5.38c5.27-17.5-18.37-89.67-18.37-89.67s27.67-34.23,26.72-50.38,22.93-32.36,45.3-46.09C1048,445.2,1040.08,428,1056,417.19a3.34,3.34,0,0,0-2-6.14c-16.62.57-28.29,19.8-76.25,25.6-70,8.48-95.78,24.79-123.44,50.63S789.67,628.7,789.67,628.7c-11.12,19.79-21.3,24-113.22,16.25-42.31-3.56-63,.7-73,6.34A15.78,15.78,0,0,0,597,671.56c25.7,56.56,107.19,121.49,278.22,138.22,196.27,19.19,204.65-23.62,222.86-50C1111.35,740.47,1080.42,738.71,1026.46,729.53Z"/><path class="cls-21" d="M1005.37,705.13c-83.76-18.94-79.21-53.14-74-66.18a18.36,18.36,0,0,0,2.7-5.25c5.15-17.1-17.94-87.59-17.94-87.59s27-33.44,26.09-49.21,28.32-26.79,50.72-39.25c16.37-9.1,47.46-29.91,63-40.46a3.36,3.36,0,0,0-2-6.14c-16.24.56-49.37,2.33-96.21,8-68.41,8.28-93.56,24.21-120.57,49.45s-63.16,138.13-63.16,138.13c-10.86,19.34-20.81,23.43-110.6,15.88-41.32-3.48-61.51.69-71.27,6.2a15.41,15.41,0,0,0-6.35,19.8c25.1,55.24,70.48,91.83,234,129.68,165.28,38.26,253.63,9.55,274.44-13.88C1112,744.36,1111.77,729.19,1005.37,705.13Z"/><path class="cls-13" d="M693,677.51a34,34,0,0,1-9.7,3.25c-1.46.3-2.92.56-4.4.77s-2.44.33-2.9.36q-1.41,7.88-2.62,13.37a8.6,8.6,0,0,0-.23,3,6.49,6.49,0,0,1,.1,1.53,1.46,1.46,0,0,1-1,1,2.63,2.63,0,0,1-1.58.15c-.63-.14-.94-.68-.91-1.61,0-.09,0-.48.09-1.19a22,22,0,0,1,.48-2.91q1.1-5,3.24-16.45c.72-3.86,1.26-6.61,1.62-8.23.3-1.36.61-2.62.91-3.78s.5-2,.59-2.39a67.68,67.68,0,0,0-7.46.7,30.4,30.4,0,0,0-3,.87c-.58.19-1.14.35-1.69.5a2.68,2.68,0,0,1-1.2.13,1.18,1.18,0,0,1-.8-.64,1.62,1.62,0,0,1-.14-1.17c.12-.56,1.08-1.07,2.89-1.54a42.65,42.65,0,0,1,6.44-1.09,55.24,55.24,0,0,1,6.81-.3,42.39,42.39,0,0,1,7.81,1.06,23.07,23.07,0,0,1,8.81,3.52c2,1.49,2.77,3.25,2.33,5.25A8.61,8.61,0,0,1,693,677.51Zm-.62-9.63a22.6,22.6,0,0,0-6.57-2.39,47.08,47.08,0,0,0-6.1-1c-.12.33-.34,1.1-.68,2.33s-.63,2.38-.88,3.49l-1,4.68c-.19,1-.46,2.34-.8,3.92a28.05,28.05,0,0,0,6.11-.66,33.54,33.54,0,0,0,8-2.55q3.38-1.63,4-4.19Q695,669.39,692.41,667.88Z"/><path class="cls-13" d="M722.66,682.86a2.26,2.26,0,0,1-1.53.43,1.25,1.25,0,0,1-.78-.57,7.93,7.93,0,0,1-.69-1.3,3.76,3.76,0,0,0-.94-1.34,2.85,2.85,0,0,0-1.4-.78q-1.86-.42-6.07,3.78A77.32,77.32,0,0,0,702.39,694c-.18,1-.38,2.24-.6,3.76l-.51,3.37-.38,2.6a3.18,3.18,0,0,1-.73,1.48,1.52,1.52,0,0,1-1.56.36c-.72-.16-1-1.23-.76-3.22s.71-4.84,1.5-8.55c.16-1,.42-2.3.79-4.05s.78-3.85,1.23-6.3c.68-3.7,1.2-6.33,1.55-7.91.22-1,.92-1.34,2.11-1.07a1.21,1.21,0,0,1,1.11,1.21,19.25,19.25,0,0,1-.56,3.6l-2.25,10.17a51.46,51.46,0,0,1,6-7.58,25.43,25.43,0,0,1,5.59-4.5,6.31,6.31,0,0,1,4.23-1,6,6,0,0,1,2.54,1.23,5.86,5.86,0,0,1,1.68,2.08,3.14,3.14,0,0,1,.35,2.06C723.67,682.11,723.31,682.49,722.66,682.86Z"/><path class="cls-13" d="M750,712.46a1.34,1.34,0,0,1,.27.9,3.4,3.4,0,0,1-1,1.61c-.57.57-1.07.8-1.49.71-.73-.16-1.18-.73-1.37-1.71a8.09,8.09,0,0,1,.12-3.26c.22-1,1-4.08,2.23-9.16l.6-2.42a2.65,2.65,0,0,0-.3-2.28q-3.94,4.23-7.24,7.25a34.7,34.7,0,0,1-7.82,5.34,12.79,12.79,0,0,1-8.76,1.39,4.13,4.13,0,0,1-2.88-2,5,5,0,0,1-.38-3.58q.57-2.55,3.85-6.49a59.63,59.63,0,0,1,7.88-7.71,49.38,49.38,0,0,1,8.82-5.93,21.42,21.42,0,0,1,4.35-1.75,6.06,6.06,0,0,1,2.64-.12,4.24,4.24,0,0,1,2,1.11,5.89,5.89,0,0,1,1.46,2.2,4.71,4.71,0,0,1,.18,2.79,7.28,7.28,0,0,1-1.92,3.53l1.16-.08c.47.11.62.74.45,1.91-.11.69-.36,2.09-.76,4.19l-1,5.22c-.27,1.41-.53,2.79-.78,4.12s-.44,2.38-.56,3.16A1.74,1.74,0,0,0,750,712.46Zm-15.91-6a30.5,30.5,0,0,0,7.07-4.83q3.32-3,7.53-7.49a11.46,11.46,0,0,0,1.69-4,3.75,3.75,0,0,0-.29-2.52,2.67,2.67,0,0,0-1.92-1.46c-1.07-.24-2.59.19-4.57,1.27a45.53,45.53,0,0,0-7.51,5.14,56,56,0,0,0-7.09,6.85q-3,3.49-3.49,5.79c-.28,1.28.17,2.06,1.36,2.32A10.76,10.76,0,0,0,734.1,706.48Z"/><path class="cls-13" d="M789,698.4a9.54,9.54,0,0,1-3.56.15l-6.84-.31-4.31-.21q-.74,3.32-1.44,7t-1.13,6.45a25.93,25.93,0,0,0-.37,5.89c.13,1.41.2,2.21.21,2.39-.09.43-.45.76-1.06,1a2.85,2.85,0,0,1-1.62.21,1,1,0,0,1-.6-.37,1.87,1.87,0,0,1-.28-.83,16.14,16.14,0,0,1,0-3.49c.13-1.67.34-3.5.65-5.49q.39-2.65,1.06-6.17c.45-2.33.92-4.59,1.4-6.76-2.47-.15-5-.22-7.66-.22a37.48,37.48,0,0,1-4.19-.19,2.69,2.69,0,0,1-1.34-.77,1.43,1.43,0,0,1-.4-1.36,1.09,1.09,0,0,1,.82-1,5.11,5.11,0,0,1,2,.17,17.1,17.1,0,0,0,2.89.27c1.29,0,2.11.05,2.48,0q4.46.12,6,.2c.2-.89.42-2.07.65-3.54q.52-3,.87-4.5a37.37,37.37,0,0,1,1-3.84,9.49,9.49,0,0,1,1.16-2.32,2,2,0,0,1,2.2-.86,1.14,1.14,0,0,1,.72.37,1,1,0,0,1,0,.74,21.76,21.76,0,0,1-.82,2.17,31.21,31.21,0,0,0-1.41,4.85c-.35,1.58-.7,3.35-1,5.34l-.32,1.73q3,.2,11.9.16a1.49,1.49,0,0,0,1.06-.7c.35-.46.65-.67.91-.61a2.07,2.07,0,0,1,1.26,1.12,2.44,2.44,0,0,1,.37,1.79A1.89,1.89,0,0,1,789,698.4Z"/><path class="cls-13" d="M800.66,690.88c-.51,1.3-1,2-1.41,2.14a1.87,1.87,0,0,1-.89.07,1.33,1.33,0,0,1-.94-.88,14.9,14.9,0,0,1,.62-4l.74-3.93c.11-.74.2-1.83.26-3.3a24.23,24.23,0,0,1,.29-3.15c.14-.6.35-.95.64-1.07a1.81,1.81,0,0,1,.86.06,3.64,3.64,0,0,1,1.28.58,1.89,1.89,0,0,1,.79,1,11.91,11.91,0,0,1-.08,3.1,42.08,42.08,0,0,1-.8,4.82A30.56,30.56,0,0,1,800.66,690.88Z"/><path class="cls-13" d="M822.82,728.18a16.64,16.64,0,0,1-6.9,2.83,20.17,20.17,0,0,1-8.08-.15,9.14,9.14,0,0,1-3.6-1.33,1.61,1.61,0,0,1-.65-1.62c.09-.38.73-.94,1.92-1.69s2-1.07,2.3-1c.51.12.74.28.7.49s-.19.32-.44.44-.39.25-.41.38.19.4.68.69a6.57,6.57,0,0,0,1.89.69,16.25,16.25,0,0,0,5.63.2,13.32,13.32,0,0,0,5-1.6,4.74,4.74,0,0,0,2.48-3,3.71,3.71,0,0,0-.48-3,6.79,6.79,0,0,0-2.38-2.1q-1.53-.84-5.16-2.59-4-1.89-6.18-3.14a11.76,11.76,0,0,1-3.33-2.69,3.55,3.55,0,0,1-.78-3.15,7.55,7.55,0,0,1,4.25-5,23.63,23.63,0,0,1,7.8-2.5,19.26,19.26,0,0,1,6.33-.14c1.45.32,2.08.91,1.89,1.76a3.57,3.57,0,0,1-.88,1.58,1.64,1.64,0,0,1-2.51.12,1.71,1.71,0,0,0-.83-.49,16.06,16.06,0,0,0-4.21-.06,16.49,16.49,0,0,0-5.54,1.39,5,5,0,0,0-3.13,3.53,2.47,2.47,0,0,0,1.25,2.66,48.18,48.18,0,0,0,6.15,3.27,8.57,8.57,0,0,0,1.09.55,8.15,8.15,0,0,1,1,.44,30.49,30.49,0,0,1,7,4.3,4.86,4.86,0,0,1,1.64,5A8.3,8.3,0,0,1,822.82,728.18Z"/><path class="cls-13" d="M887,729.41a11.32,11.32,0,0,1-2.89-.14c-1.1-.18-1.82-.3-2.16-.38-.33,1.31-.75,2.77-1.23,4.35l-1.21,4-.64,1.94-.58,2L876.78,746c-.65,2.13-1.6,3.07-2.83,2.79-.47-.11-.81-.75-1-1.93a7.77,7.77,0,0,1-.08-2.81,2.71,2.71,0,0,1,.74-.91,4.27,4.27,0,0,0,1.06-1.77q.66-1.74,1.9-5.82t2-6.87c-1.69-.24-3.53-.45-5.5-.61l-5.88-.7c-3-.37-5.44-.69-7.16-1q-1.2,4.15-2.86,10.16t-2,7.35a7.51,7.51,0,0,0-.14,1.37,6.73,6.73,0,0,1-.12,1.32c-.09.38-.46.7-1.12,1a3,3,0,0,1-1.5.27c-.43-.09-.72-.45-.87-1.07a4.27,4.27,0,0,1,0-2c.08-.38.27-1,.54-1.85s.51-1.6.7-2.23c.42-1.11.74-2,.94-2.74q1.15-3.7,2.13-7.18c.64-2.31,1.08-3.87,1.3-4.67a45.53,45.53,0,0,1-7.76-1,3.66,3.66,0,0,1-1.95-1.07,2.08,2.08,0,0,1-.47-1.95,1.7,1.7,0,0,1,.69-1.15,2.51,2.51,0,0,1,1.79,0l3.37.81q3.3.87,5.34,1.32c1-3.58,1.77-6.45,2.25-8.63q1.63-7.41,2.81-13.32l.53-2.37a2,2,0,0,1,1.08-1.4,2.64,2.64,0,0,1,1.83-.23c.47.1.71.53.72,1.3a11.29,11.29,0,0,1-.28,2.48q-.32,1.41-1.6,5.68-2,7.34-2.12,7.78l-2.35,9.07q5.4,1.07,18.59,2.38.66-1.8,3.05-9.52,1.17-4.1,1.79-6l1.49-4.9q2.91-9.21,3.43-11.58a1.69,1.69,0,0,1,.94-1.2,2.33,2.33,0,0,1,1.58-.18c.77.17,1,1,.66,2.49-.21.94-1,3.38-2.3,7.33-1.64,5.19-2.54,8.07-2.72,8.66l-2.81,9.23L882.82,726a8.86,8.86,0,0,0,2.17-.13,6.63,6.63,0,0,1,1.87,0,2.5,2.5,0,0,1,1.31,1.1c.44.63.63,1.06.59,1.27C888.61,728.94,888,729.33,887,729.41Z"/><path class="cls-13" d="M919.49,750a1.37,1.37,0,0,1,.27.89,3.45,3.45,0,0,1-1,1.63c-.57.56-1.07.8-1.5.7a1.87,1.87,0,0,1-1.36-1.71,8.07,8.07,0,0,1,.11-3.26c.23-1,1-4.08,2.24-9.16l.6-2.42a2.72,2.72,0,0,0-.3-2.28q-4,4.23-7.24,7.25a35.06,35.06,0,0,1-7.82,5.35,12.85,12.85,0,0,1-8.76,1.38,4.11,4.11,0,0,1-2.88-2,5,5,0,0,1-.39-3.57c.38-1.71,1.67-3.87,3.86-6.5a59.52,59.52,0,0,1,7.87-7.71,49.15,49.15,0,0,1,8.83-5.92,21.78,21.78,0,0,1,4.34-1.76,6.1,6.1,0,0,1,2.65-.12,4.21,4.21,0,0,1,2,1.11,5.85,5.85,0,0,1,1.46,2.2,4.71,4.71,0,0,1,.19,2.79,7.28,7.28,0,0,1-1.92,3.53l1.15-.08c.47.11.62.74.45,1.91-.11.7-.36,2.09-.76,4.19s-.72,3.84-1,5.22-.53,2.79-.78,4.12-.44,2.38-.57,3.16A1.83,1.83,0,0,0,919.49,750Zm-15.92-6a30.91,30.91,0,0,0,7.08-4.84q3.32-3,7.52-7.49a11.2,11.2,0,0,0,1.69-4,3.69,3.69,0,0,0-.28-2.52,2.71,2.71,0,0,0-1.92-1.46c-1.07-.24-2.59.19-4.58,1.27a46.38,46.38,0,0,0-7.51,5.14,55.89,55.89,0,0,0-7.08,6.85c-2,2.33-3.15,4.26-3.5,5.8-.28,1.28.17,2.05,1.37,2.31A10.77,10.77,0,0,0,903.57,744Z"/><path class="cls-13" d="M958.52,735.93a9.33,9.33,0,0,1-3.56.15q-6.11-.29-6.84-.3l-4.31-.22q-.73,3.32-1.45,7c-.47,2.44-.85,4.59-1.12,6.45a25.93,25.93,0,0,0-.37,5.89q.2,2.13.21,2.4a1.56,1.56,0,0,1-1.06,1,2.85,2.85,0,0,1-1.62.21,1,1,0,0,1-.6-.36,2,2,0,0,1-.28-.84,16.14,16.14,0,0,1,0-3.49q.18-2.5.65-5.48.39-2.67,1.06-6.17t1.4-6.77c-2.47-.15-5-.22-7.66-.22a35,35,0,0,1-4.19-.19,2.58,2.58,0,0,1-1.34-.77,1.42,1.42,0,0,1-.4-1.36,1.09,1.09,0,0,1,.82-1,5.11,5.11,0,0,1,2,.17,17.1,17.1,0,0,0,2.89.27c1.29,0,2.11,0,2.47,0q4.47.12,6.06.21c.2-.9.42-2.08.65-3.55.35-2,.64-3.48.86-4.5a37.63,37.63,0,0,1,1-3.84,9.48,9.48,0,0,1,1.15-2.32,2,2,0,0,1,2.21-.85,1.09,1.09,0,0,1,.72.36,1,1,0,0,1,0,.74,21.76,21.76,0,0,1-.82,2.17,30.14,30.14,0,0,0-1.41,4.85q-.52,2.37-1,5.34l-.32,1.73q3,.19,11.91.16a1.46,1.46,0,0,0,1.06-.7c.35-.46.65-.66.91-.61a2.13,2.13,0,0,1,1.26,1.12,2.49,2.49,0,0,1,.37,1.79A1.89,1.89,0,0,1,958.52,735.93Z"/><path class="cls-13" d="M978.74,762.71a16.45,16.45,0,0,1-6.9,2.83,20,20,0,0,1-8.08-.15,9.08,9.08,0,0,1-3.59-1.33,1.59,1.59,0,0,1-.65-1.62c.08-.38.72-1,1.91-1.69s2-1.07,2.3-1c.52.12.75.28.7.49a.7.7,0,0,1-.43.44c-.25.13-.39.25-.42.38s.19.4.69.69a6.46,6.46,0,0,0,1.89.69,16.2,16.2,0,0,0,5.62.2,13.37,13.37,0,0,0,5-1.6,4.72,4.72,0,0,0,2.47-3,3.64,3.64,0,0,0-.48-3,6.82,6.82,0,0,0-2.38-2.11q-1.51-.82-5.16-2.58-4-1.89-6.18-3.14a11.76,11.76,0,0,1-3.33-2.69,3.54,3.54,0,0,1-.77-3.15q.67-3.07,4.25-5a23.58,23.58,0,0,1,7.79-2.5,19.32,19.32,0,0,1,6.34-.14c1.45.32,2.08.91,1.89,1.76a3.7,3.7,0,0,1-.89,1.58,1.68,1.68,0,0,1-1.74.59,1.74,1.74,0,0,1-.77-.47,1.67,1.67,0,0,0-.83-.49,16,16,0,0,0-4.21-.06,16.49,16.49,0,0,0-5.54,1.39,5,5,0,0,0-3.13,3.53,2.48,2.48,0,0,0,1.26,2.66,46.77,46.77,0,0,0,6.15,3.27,7.26,7.26,0,0,0,1.08.54,10.3,10.3,0,0,1,1,.45,31,31,0,0,1,7,4.29,4.9,4.9,0,0,1,1.65,5A8.39,8.39,0,0,1,978.74,762.71Z"/><polygon class="cls-11" points="610.87 847.23 1121.55 905.39 1083.25 1003.26 570.44 936.59 610.87 847.23"/><g class="cls-26"><polygon class="cls-27" points="669.71 853.93 630.74 950.14 563 936.9 605.2 842.26 669.71 853.93"/><polygon class="cls-27" points="787.79 860.97 751.91 965.33 689.61 958.5 729.94 854.88 787.79 860.97"/><polygon class="cls-27" points="910.05 874.71 881.92 981.42 812.91 974.27 845.54 867.97 910.05 874.71"/><polygon class="cls-27" points="1046.35 887.95 1016.95 999.46 948.24 990.94 979.78 879.15 1046.35 887.95"/></g><polygon class="cls-21" points="1152.76 903.26 1475.47 879.85 1558.46 963.58 1207.37 996.88 1152.76 903.26"/><g class="cls-28"><path class="cls-25" d="M1276.17,989.6,1221.91,893l-73.06,5.77,55.68,102.4S1270.85,1007.85,1276.17,989.6Z"/><path class="cls-25" d="M1355.61,983l-65-96.45,75.6-2.13,69.27,94.31S1389.27,997.21,1355.61,983Z"/><path class="cls-25" d="M1503.37,970.17l-83.83-95.71,67.28-4.89,89.37,78-7.45,36.53S1503.25,995.14,1503.37,970.17Z"/></g><path class="cls-29" d="M1371.35,610.09a10.49,10.49,0,0,1,5.19-13.19c6.44-3.13,14.42-7.3,17.41-10.11,5.33-5,22.71,45.55,18.66,55s-23.3,13-26.86,10.54C1383,650.44,1377.26,625.55,1371.35,610.09Z"/><path class="cls-29" d="M1233.68,753.1a9.28,9.28,0,0,1,4.51-11.7c5.68-2.8,12.71-6.54,15.34-9,4.69-4.46,20.36,40.15,16.83,48.53s-20.53,11.62-23.69,9.48C1244.23,788.72,1239,766.74,1233.68,753.1Z"/><path class="cls-29" d="M1333.77,712.74a8.21,8.21,0,0,1,4-10.36c5-2.48,11.26-5.8,13.58-8,4.15-4,18,35.56,14.91,43s-18.18,10.3-21,8.4C1343.12,744.29,1338.48,724.82,1333.77,712.74Z"/><path class="cls-29" d="M1434.82,743.78a8.22,8.22,0,0,1,4-10.36c5-2.48,11.26-5.8,13.58-8,4.15-3.95,18,35.56,14.91,43s-18.18,10.3-21,8.4C1444.16,775.33,1439.53,755.86,1434.82,743.78Z"/><path class="cls-29" d="M1129.82,530.42c-1.55-4,2.56-7.57,6.39-9.46,5-2.48,8.07-1.09,10.4-3.31,4.15-3.95,15.82,30.34,12.7,37.76s-18.19,10.29-21,8.4C1136.16,562.35,1134.53,542.5,1129.82,530.42Z"/><path class="cls-29" d="M1240,676.08a12,12,0,0,1,5.84-15.13c7.34-3.62,16.44-8.46,19.84-11.69,6.06-5.77,26.33,51.94,21.78,62.78s-26.57,15-30.66,12.27C1253.62,722.17,1246.85,693.74,1240,676.08Z"/><path class="cls-29" d="M1301.18,554a7,7,0,0,1,3.44-8.75c4.27-2.08,9.57-4.85,11.55-6.71,3.54-3.32,15.07,30.22,12.38,36.49s-15.46,8.61-17.82,7C1308.91,580.72,1305.1,564.21,1301.18,554Z"/><path class="cls-29" d="M1292.16,602.93a8.24,8.24,0,0,1,4.07-10.36c5.06-2.45,11.33-5.73,13.68-7.93,4.18-3.94,17.83,35.77,14.65,43.19s-18.3,10.2-21.09,8.28C1301.31,634.63,1296.8,615.08,1292.16,602.93Z"/><polygon class="cls-12" points="1050.6 1288.96 1075.23 1291.54 1077.1 1279.84 1053.34 1276.01 1050.6 1288.96"/><polygon class="cls-12" points="941.49 1285.17 974.94 1289.81 973.97 1279.36 941.14 1274.09 941.49 1285.17"/><polygon class="cls-12" points="1018.21 649.64 1042.85 652.22 1044.72 640.53 1020.96 636.7 1018.21 649.64"/><polygon class="cls-12" points="997.69 1327.49 1035.6 1333.65 1036.14 1348.51 995.91 1338.46 997.69 1327.49"/><polygon class="cls-12" points="986.54 667.01 1024.45 673.17 1024.99 688.03 984.76 677.98 986.54 667.01"/><polygon class="cls-12" points="1018.46 1351.23 1076.45 1360.65 1077.89 1379.6 1016.21 1365.13 1018.46 1351.23"/><polygon class="cls-12" points="1048.84 853.29 1088.83 859.79 1089.47 875.01 1047.02 864.51 1048.84 853.29"/><polygon class="cls-12" points="1020.67 1305.23 1081.63 1315.13 1078.4 1335.03 1018.21 1320.39 1020.67 1305.23"/><polygon class="cls-21" points="1561.78 905.39 1586.43 902.96 1585.91 891.13 1561.86 892.15 1561.78 905.39"/><polygon class="cls-21" points="1514.22 656.16 1547.98 655.63 1545.44 645.46 1512.19 645.26 1514.22 656.16"/><polygon class="cls-21" points="1556.84 1080.56 1590.6 1080.04 1588.05 1069.86 1554.8 1069.66 1556.84 1080.56"/><polygon class="cls-21" points="1524.55 1113.14 1558.31 1112.62 1555.77 1102.44 1522.52 1102.24 1524.55 1113.14"/><polygon class="cls-21" points="1551.57 673.45 1589.85 670.38 1593.93 684.68 1552.46 684.53 1551.57 673.45"/><polygon class="cls-21" points="1549.46 766.97 1594.8 765.32 1598.76 779.45 1549.85 777.83 1549.46 766.97"/><polygon class="cls-21" points="1541.82 919.82 1587.16 918.18 1591.12 932.31 1542.21 930.69 1541.82 919.82"/><polygon class="cls-21" points="1519.71 744.89 1581.04 737.58 1583.42 757.6 1521.53 760.14 1519.71 744.89"/><polygon class="cls-21" points="1533.21 1134.1 1594.53 1126.8 1596.92 1146.82 1535.03 1149.36 1533.21 1134.1"/><polygon class="cls-12" points="1039 821.12 1099.96 831.02 1096.72 850.92 1036.54 836.28 1039 821.12"/><polygon class="cls-14" points="1227.3 326.64 1265.51 324.37 1359.08 327.76 1310.91 332.85 1227.3 326.64"/><polygon class="cls-15" points="337.95 1281.95 337.95 1320.13 1142.46 1512.03 1142.46 1472.57 337.95 1281.95"/><path class="cls-20" d="M1138.36,1474.27l583.29-169v37.5L1142.46,1512S1099.89,1491.24,1138.36,1474.27Z"/><path class="cls-5" d="M1727.34,1237.54c-71.59-34.5-83.43,43.2-83.43,43.2s-1.06-98.11-111.47-83.7c-51.57,6.7-63.82,53.69-66,86.37-13.56-17.52-34.34-30.15-66.12-29.88-74.28.58-47.94,122.31-47.94,122.31a351.83,351.83,0,0,1-40.73,12.37c-3.8-22.14-15.8-45.86-49-50.21-47.15-6.2-50.8,57.07-50.8,57.07-21.6,4.81-27.24,20.74-27.24,20.74-7.53,15.88-3.32,29.55,3.88,40,9.75,14.12,34.51,36.82,71.55,26.53l62.78-11.8c21.88,15.44,55.7,27.26,97,9.39h0c71,1.85,140.56-17.83,201.87-57.1l23.72-15.19c35.47-2.93,64.38-13.73,84.52-34.73C1752.81,1348.84,1773.4,1259.74,1727.34,1237.54Z"/><g class="cls-30"><path class="cls-31" d="M1342.08,1444.1s-33.73-16.4-29.15-39.61c4.24-21.3,23.14-17,40-10.26,9.53,3.78,20.84-5.43,17.75-16.54-13-47,19.39-109.12,95.42-74.47,13.7,6.24,12.72-1.4,6.63-8.49-22-25.65,17.13-98.25-38.59-84.61-83,20.34-149.06,72.79-148.79,75.68s-31,119.78-31,119.78l43.35,77.82Z"/></g></svg>