<?xml version="1.0" encoding="utf-8"?>
<!-- Generator: Adobe Illustrator 26.0.1, SVG Export Plug-In . SVG Version: 6.00 Build 0)  -->
<svg version="1.1" id="Layer_1" xmlns="http://www.w3.org/2000/svg" xmlns:xlink="http://www.w3.org/1999/xlink" x="0px" y="0px"
	 viewBox="0 0 3141 3141" style="enable-background:new 0 0 3141 3141;" xml:space="preserve">
<style type="text/css">
	.st0{fill:#C0C3D0;}
	.st1{fill:#9498A2;}
	.st2{fill:#DED2BD;}
	.st3{fill:#9D9683;}
	.st4{fill:#F5ECDD;}
	.st5{fill:#504D3C;}
	.st6{fill:#86816B;}
	.st7{fill:#87826C;}
	.st8{fill:#B0AA8F;}
	.st9{fill:#88836E;}
	.st10{fill:#373B30;}
	.st11{fill:#383C31;}
</style>
<path class="st0" d="M1470.7,2361.2c22.6,0,37.8-0.3,53,0c97.4,2.1,194.9,0.1,292.4,0.9c22.6,0.2,45.1,2.1,67.5,4.7
	c13.7,1.6,27.5,2,41.2,3.4c18.1,1.7,36.2,4,54.4,5.7c19,1.8,37.9,4.1,56.6,8.2c27.7,6.1,54.5,14.7,80.3,26.5
	c30.8,14,58.7,32.6,84.3,54.6c38.4,32.9,71.4,70.5,97.1,114.3c13.3,22.7,23.5,46.7,27.2,72.9c4.9,34.4-3.2,65.7-24.2,93.5
	c-12,15.9-26.2,29.8-43.2,40.3c-13.1,8.1-23.8,19.1-36,28.3c-17.9,13.4-37.2,24.5-56.3,35.9c-22.2,13.3-45.3,24.7-68.6,35.8
	c-37.1,17.7-75,33.4-113.5,47.9c-31.3,11.9-62.7,23.1-94.5,33.5c-51.6,16.9-103.8,32.1-156.6,44.9c-32.4,7.9-65,14.8-97.7,21.2
	c-3.7,0.7-7.6,1-11.4,1.2c-14.1,0.5-28.3,0.4-42.4,1.2c-20.5,1.2-40.9,0.7-61.4,0.9c-25,0.3-49.7-2.4-74.4-5.8
	c-23.3-3.2-46.6-6.9-69.7-11.4c-35.2-6.8-69.9-16-104.4-25.6c-28.6-8-57.2-16.1-86.2-22.6c-13.6-3.1-26.3-9.3-39.3-14.3
	c-36-13.9-71.7-28.4-107.1-43.7c-20.6-8.9-41.1-18.1-61.4-27.7c-24.3-11.4-48.3-23.2-72-35.8c-35.6-18.9-70.4-39.2-102.6-63.5
	c-24.8-18.7-47.7-39.4-64.5-65.9c-14.8-23.3-21.6-48.6-18.9-76c2.7-27.6,14.6-51.5,31-73.5c22.2-29.7,51.1-51.6,82.5-70.6
	c41.8-25.2,86.6-43.9,132.4-60.2c36.9-13.2,74.1-25.6,112.3-34.7c22.1-5.2,44.5-8.9,66.9-12.9c12.1-2.1,23.8-6.2,35.7-9
	c19.5-4.6,39.4-7.4,59.3-9.9c24.4-3.1,48.8-5.4,73.3-7.1c17.1-1.2,34.1-2.3,51.2-3c19.6-0.9,39.2-1.2,58.8-2.1
	C1440.6,2360.9,1459.4,2361.7,1470.7,2361.2z"/>
<path class="st1" d="M1579.7,2898.1c-34.5-0.8-64.6-4.4-94.8-8.6c-39.1-5.4-74.8-20.4-110.4-36.6c-52.1-23.8-100.9-53.5-150.6-81.6
	c-45.4-25.7-89.7-53-133.7-81c-8.6-5.5-14.1-14.1-20.7-21.4c-6.1-6.8-11.9-13.9-18.1-20.6c-1.9-2-2.4-3.8-1.2-6.2
	c0.1-0.3,0.3-0.6,0.4-0.9c2.4-9.7,7.8-14.9,18-18.3c28-9.4,53.1-24.4,76.3-42.7c1.2-0.9,2-2,3.9-1.5c7.2,2.1,14.3,4.3,21,7.8
	c2.6,1.4,3,3,1.2,5.1c-2.9,3.4-5.6,7.2-9.1,10c-8.2,6.5-14.2,15.6-23.6,20.7c-2.1,1.1-1.4,2.5-0.1,3.5c1.6,1.2,3.3,2.2,5.1,3.1
	c57,27.1,114.4,53.3,172.1,78.8c15.2,6.7,30.5,13.5,45.2,21.2c12.7,6.6,26.2,9.5,40.1,11.2c23,2.8,46.1,4.6,69.2,4
	c41.8-1.1,83.2-5.8,124.4-13.3c70.9-12.9,139.8-33,208-55.9c34.1-11.4,68.3-22.4,103.7-29c17.2-3.2,34.5-5.7,52-5.5
	c2.5,0,5,0.2,7.4,0.6c2.7,0.5,4.7-0.2,6.7-2.2c5.2-5.3,11.9-7,19.1-8.8c7.9-2,12.8,0.2,18.3,5.4c4.9,4.6,11.5,6.6,18.1,8
	c3.2,0.7,5.3,2.3,6.9,5.1c4.7,8.4,6.3,17.4,5.3,27c-0.3,2.5-1.6,4.2-3.7,5.6c-12.6,8.4-25.1,16.9-37.9,25.1
	c-4.3,2.8-9.3,4.5-13.8,6.9c-20.2,10.3-40.2,20.9-60.5,31c-30.7,15.2-61.8,29.8-92.5,45.1c-48.3,23.9-97.1,47-144.3,73.3
	c-22.7,12.7-47.3,20.3-71,30.6c-2.3,1-4.7,1.6-7.2,2C1597.9,2896.6,1587,2898.8,1579.7,2898.1z M1531.5,2795.2c5,2,8.8,1.7,12.6,1.8
	c27.1,0.2,54.2-1.3,81.3-2.7c23-1.2,45-6.4,66.7-13.7c28.7-9.8,56.5-21.7,84.4-33.4c12.3-5.2,24.5-10.7,36.7-16
	C1721.4,2759.8,1628.8,2785,1531.5,2795.2z"/>
<path class="st2" d="M1977.9,1969.2c0,7,0,14,0,21c0,3.4-0.3,6.6-1.4,9.8c-1.9,5.5,0.1,11,5,14.1c5.6,3.6,9.3,9.1,13.5,13.9
	c16.5,18.7,32.5,38,51.3,54.4c8.4,7.3,8,16.1,9.4,24.9c0.6,4-3.1,6.3-6.4,7.4c-10,3.3-17.7,10.5-27,14.9c-3.8,1.8-5.7,4.8-4.5,10.1
	c3.6,15.9,0.1,31-9.1,44.1c-9.8,14-20.7,27.3-35.5,36.6c-7,4.4-14.4,7.5-22.2,10c-3.6,1.1-5.4,2.7-2.8,6.3c1.2,1.7,1.1,3.5,0.6,5.3
	c-2.6,8.9-3.1,18-2.8,27.1c0.3,8.3-1.4,16.6-0.8,24.9c1.5,19.5,0.3,38.9,0.8,58.4c0.3,9.8,0.9,19.6,0.8,29.4
	c-0.1,14.9-0.6,29.7-0.9,44.6c0,2.3-0.8,4.1-2,6c-2.8,4.9-5.6,9.8-8.2,14.8c-1.7,3.4,0.8,7.8,5.8,9.3c6.3,2,12.8,4.5,19.3,4.9
	c9.6,0.6,14.9,6.7,19.9,13.3c6,7.9,9.2,17.2,11.6,26.8c0.8,3.1-0.1,6.1-0.7,8.8c-1.2,5.7,0,11.2,0.2,16.8c0.1,3,1.7,4.3,4.7,4.8
	c5.6,0.8,11.1,2,16.6,3c2.4,0.4,2.8,2,2.7,4c-0.4,9.5-0.2,19-1.3,28.4c-1,8.6-1.1,17.2-1.5,25.8c-0.7,15.3-0.2,30.7-0.3,46
	c-0.1,7.6-0.6,15.3-0.8,22.9c-0.1,2.3-1.2,3.7-2.8,5c-6.8,5.4-14.3,9.7-22.2,13.3c-28,12.9-55.2,27.3-82.9,40.9
	c-31.2,15.4-62.2,31.1-93.9,45.3c-32.3,14.5-65,28.1-97.9,41.3c-21.1,8.5-42.3,17-63.4,25.5c-6.2,2.5-10.9,7.6-17.6,9.2
	c-2.4,0.6-4.8,1.3-7.3,1.3c-20.6-0.4-41.3-0.4-61.9-1.2c-19.8-0.8-39.5-1.3-59.3-2.1c-14.7-0.6-29.3-0.5-43.9-0.5
	c-5.2,0-9.2-2.8-13.5-4.7c-35.6-15.4-71.1-30.9-106.4-46.7c-14.7-6.6-28.9-14.5-43.8-20.6c-15-6.1-29.2-13.7-43.7-20.7
	c-17.6-8.4-35.3-16.3-53.2-24.1c-11.8-5.1-22.1-13-32.9-19.7c-23.6-14.7-47.4-29-72.1-41.7c-2.4-1.2-4.5-3.1-7-3.8
	c-7.1-2-8.1-7.3-8.1-13.4c0-10.2-0.1-20.3,0-30.5c0.3-24.1-1.9-48.1-3.1-72.2c-0.2-4.8,0.6-7.2,6.2-7.5c4.5-0.2,9-2.1,13.6-2.6
	c2.8-0.3,4.1-1.9,4.2-4.6c0.2-5.6,1.6-11.1,0.1-16.8c-1.8-6.9,0.4-13.4,2.8-19.8c3.7-10,9-18.9,17.5-25.5c2.4-1.9,5.1-2.9,8.2-3.2
	c7.6-0.9,15-3,22.2-5.4c5.7-1.9,6.6-6,4.2-11.3c-2.3-4.8-4.9-9.4-7.7-13.9c-0.9-1.4-1.1-3.1-1.2-4.8c-0.3-15-1.2-30.1-0.8-45.1
	c0.8-26.6,0.2-53.3,1.1-79.9c0.5-14.3-0.9-28.5-0.4-42.8c0.2-4.6-1-9.2-1.9-13.7c-0.6-3.3-1.6-6.2,0.5-9.5c1.8-2.7-0.4-4-3-4.8
	c-10.4-3.3-20.6-7.3-28.8-14.5c-16.6-14.5-32.4-29.8-38.1-52.3c-2-7.8-2.9-15.9-0.5-23.6c1.6-5.3-0.3-8.7-4.3-10.7
	c-8.2-3.9-15-9.9-23.3-13.5c-10.3-4.5-10.3-4.6-9.3-15.7c0.6-6.6,2.2-12.1,7.9-17.3c18.8-16.9,35.2-36.2,52-55.2
	c4.8-5.4,9.1-11.3,15.5-15.4c4.3-2.7,4.4-8,3-12.6c-1-3.3-1.4-6.5-1.4-9.8c0-15.2,0.1-30.3-0.1-45.5c0-3.9,1-5.4,5.3-5.8
	c18.4-1.5,36.4-5.5,54.2-10c16.1-4,32.7-5.4,49-7.9c18-2.7,36.1-5.2,54.1-7.7c15.3-2.1,30.5-4.1,45.8-6.3
	c19.2-2.8,38.4-5.6,57.5-8.5c18.7-2.8,37.3-5.7,56-8.5c14.2-2.2,28.5-4.3,42.8-6.3c14.3-2,28.6-3.8,42.9-5.6
	c7.1-0.9,14.1-1.9,21.2-2.7c8-0.9,15.8,1.2,23.7,2.1c14.8,1.7,29.6,3.6,44.3,5.7c14.4,2,28.8,4.3,43.3,6.4c18.7,2.8,37.3,5.7,56,8.5
	c14.2,2.2,28.5,4.3,42.8,6.4c15.4,2.2,30.8,4.4,46.2,6.6c17.4,2.4,34.8,4.8,52.2,7.3c15.4,2.2,30.8,4.7,46.2,6.5
	c15.5,1.9,30.5,6.4,45.8,9.5c10.3,2.1,20.6,3.6,31,4.6c3.7,0.3,4.9,1.6,4.8,5.2C1977.8,1952.5,1977.9,1960.8,1977.9,1969.2
	C1977.9,1969.2,1977.9,1969.2,1977.9,1969.2z"/>
<path class="st3" d="M1453.2,2232.9c-1.8-7.1-7.6-9.3-13.7-10.7c-10.7-2.4-21.4-4.5-32-7.4c-33-9-65.4-20.6-99-27.2
	c-77.2-15.1-152.7-37.6-229.4-54.5c-8.1-1.8-15.3-5.4-21.9-10.3c-4.5-3.2-9.2-5.9-14.4-7.8c-6.4-2.4-7.9-5.1-6.8-11.8
	c0.6-4.1,1.2-8.2,1.9-12.3c0.4-2.5,1.3-3.4,4.1-2.1c29.2,14.2,60.4,22.4,91.8,30.3c63.1,15.8,126.1,32,189.5,46.4
	c35.8,8.1,71.8,15.7,107.8,23.3c4.4,0.9,8.9,0.8,13.4,1.3c2.1,0.2,2.7-0.5,3-2.7c2.3-18.6,6.6-37,9.3-55.5
	c1.8-12.1,2.5-24.4,4.5-36.6c1.2-7.5-2.5-10.5-9.8-12.2c-11.8-2.8-23.4-6.4-35-9.8c-32.1-9.3-65.1-15.2-97.6-22.9
	c-51.3-12.1-103-22.6-153.9-36.1c-15.8-4.2-31.4-8.6-46.7-14.5c-3.3-1.2-4.7-2.8-4.7-6.5c0.1-15,0-30,0-45c0-4.5,1.5-5.7,5.2-4.5
	c26,8.5,52.7,14.1,79.4,19.5c70.4,14.1,141.2,26.9,211,44.2c28.6,7.1,57.7,11.8,86.7,16.4c7.6,1.2,15.6,0.5,23.4,0.1
	c27.1-1.5,54.2-3.3,81.4-2.5c22.8,0.7,44.8-1.9,66.8-8.1c42.6-11.9,86.1-20.1,129.2-30.1c58.5-13.6,116.9-27.3,175.6-39.9
	c5.9-1.3,5.9-1.3,5.9,4.7c0,13.5,0,27-0.1,40.5c0,4.2-0.1,8.2-1.5,12.3c-1.7,4.6,1,10.2,5,13.2c8.3,6.1,13.9,14.7,20.8,22.1
	c8,8.5,15.7,17.3,23.5,25.9c4,4.5,4.1,4.5-1.9,6.6c-29.9,10.2-59.9,20.4-89.9,30.4c-67.4,22.4-135.6,42.6-203.3,64
	c-17,5.4-33.9,11.1-49.8,19.1c-2.7,1.3-5.3,2.8-7.5,4.9c-4.1,4.1-1.9,8.2-0.1,12.3c1.5,3.6,4.3,2,6.8,1.9
	c33.5-2.2,65.4-11.9,97.4-20.9c61.5-17.2,122.3-36.8,183-56.9c9.3-3.1,18.9-5.2,28.6-6.9c19.8-3.5,37.6-12.1,55.3-21
	c9.5-4.7,9.5-4.7,10.9,6c1.2,9.2,0.2,10.9-8.8,14.4c-9.2,3.6-16.6,10.3-25.4,14.7c-3.2,1.6-4.1,4.2-3,8.3
	c3.4,13.1,1.5,26.2-5.1,37.7c-11.5,20-26,37.5-47.3,48c-4.9,2.4-10.1,4.3-15.3,6c-2.9,1-4.2,2.4-2.4,5c2,2.9,1.3,5.5,0.5,8.5
	c-1.6,6-2.1,12.1-2.2,18.3c-0.6,32.6-0.4,65.3,0.4,97.9c0.3,13,0.5,26,0.2,39c-0.2,7.4,0.2,14.8-0.3,22.2
	c-0.4,5.7-1.6,10.6-4.9,15.3c-2,2.8-3.7,5.9-4.8,9.2c-1.4,3.8-4.1,5.2-7.5,6.4c-48,17.1-94.6,37.8-142,56.4
	c-37.2,14.6-74.5,28.7-111.7,43.3c-10.5,4.1-21,8.4-30.5,14.8c-1.5,1-3.1,2-4.4,3.3c-2,2-3.1,4.5-1.9,7.3c1.2,2.8,3.4,4.5,6.6,4.6
	c3.3,0.1,6.2-1,9.2-2.1c41.7-15.9,82.4-34.1,123.2-52.3c51.8-23.1,103.6-46.4,155.4-69.6c3.6-1.6,6.9-2.1,10.9-0.9
	c7.1,2.2,14.3,4.3,21.8,5.1c4.5,0.5,7.8,3.8,10.7,6.9c8,8.6,12.6,19.1,15.6,30.3c1.1,4.3-0.1,8.6-0.3,12.9c-0.1,2.5-0.9,5.2-0.3,7.4
	c1.6,5.6-1.1,7.8-5.8,9.9c-43.3,19.3-86.6,38.7-129.6,58.8c-48.6,22.7-96.6,46.5-144.7,70.1c-18.3,9-37.9,15.5-56.8,23.1
	c-9,3.6-17.3,8.6-25.7,13.4c-1.2,0.7-2.2,2.4-3.9,1c-1.7-1.4-0.8-3,0.1-4.5c1.3-2.1,1.2-4.4,1.2-6.8c-0.1-28.8-0.2-57.7-0.3-86.5
	c0-6.2-1.2-12.2-3-18.1c-0.9-3.1-3.2-3.1-5.5-3.1c-7.5-0.3-15-0.8-22.4-0.9c-29.8-0.5-59.5-2.9-89.3-4.2c-1.8-0.1-3.7,0-5.5-0.1
	c-4.4-0.3-5.7,1.6-6.4,6c-3.6,23-2.6,46.2-2.8,69.3c-0.1,13-1.2,25.8-2.7,38.7c-0.5,4.3-2.2,5.2-6.1,3c-7.5-4.2-15.2-7.7-20.5-15
	c-1.8-2.5-4.1-4.7-7.4-5.6c-52.4-15.5-101.8-38.3-151.8-59.9c-56.1-24.2-112.7-47.1-169.6-69.5c-9.8-3.8-19.6-7.6-28.8-12.6
	c-3.5-1.9-5.9-11.1-3.9-14.4c1-1.6,2.6-1.2,4.1-1.2c8.3,0.3,16,3.1,23.7,5.6c37.3,12,73.5,26.7,109.8,41.3
	c50.7,20.4,100.4,43,150.8,64c25.8,10.8,52.3,19.7,79,28.1c4.9,1.5,9.7,3.3,14.6,5c0.3,0.2,0.6,0.5,1,0.7c0.1-0.1,0.1-0.3,0.2-0.4
	c-0.4-0.1-0.8-0.2-1.2-0.3c-6-9.6-4-20.6-4.7-30.9c-0.9-14.1-2.5-28.2-0.3-42.4c0.6-3.7-1.1-6.8-2.7-9.9c-0.5-1-0.9-1.7-2.1-1.7
	c-11.3,0-20.6-6.3-30.6-10.2c-50.2-19.3-101.5-35.4-152.3-52.9c-15.9-5.5-31.7-11.1-47.5-17c-9.9-3.6-20.2-5.5-30.1-8.9
	c-13.5-4.7-27.2-9-40.3-14.6c-5.7-2.4-10.7-7.2-15-12.1c-2.3-2.7-0.3-6.3-2.4-9.7c-2.7-4.2-5.2-8.8-7.8-14.2
	c8.7,2.1,16.7,4.3,24.4,7.2c77.2,29.5,155.2,56.9,234.8,79.4c20.9,5.9,40.5,15.1,60.7,22.5c2.5,0.9,4.6,2.7,6.8,4.1
	c6.1,3.6,12.2,0.4,12-6.6c-0.2-8,1.3-16-0.9-23.9c-1.2-4.5-4.2-7.4-8.1-9.4c-1.3-0.7-2.8-1-3.1-2.8c-1.1-6.7-3.5-13.1-3.7-20.1
	c-0.7-28.8-0.9-57.6-2.4-86.4c-0.9-17.8-2.1-35.5-1.8-53.4c0-2.7-0.2-4.4-3.6-4.3c-3.8,0.1-6.7-2.7-10.1-4
	c-18.1-6.7-37-11.1-55.6-15.8c-72.5-18.5-144.9-37.2-217-57.2c-10.7-3-21.1-7-31.6-10.8c-5.4-1.9-6.8-12.1-2.3-15.6
	c1.5-1.2,3.2-0.2,4.8,0.2c44.1,9.2,87.7,20.3,131,33c57.7,17,116.2,31.6,174.3,47.3c3.2,0.9,7.3,3.3,9.3,2.2
	c2.2-1.3-0.5-5.7-0.1-8.8c1.3-11.5-0.4-22.9-0.1-34.4c0.1-5.1-1.1-10.2-1.9-15.3c-0.3-2.1-1.8-3.3-4.1-3.7
	c-19.6-3.3-39.3-6.3-58.9-10.1c-65.1-12.7-129.6-28-193.8-44.7c-41.2-10.7-82.1-22.4-122.2-37c-0.8-0.3-1.6-0.6-2.3-0.9
	c-9.4-4-9.3-4-8.8-14.4c0.2-3.2,1.2-3.8,4.3-3.3c14.2,2.2,28,5.8,41.7,9.8c77.2,22.1,155.1,41.6,233.3,59.8
	c32,7.5,64.3,13.9,96.6,19.8c1.6,0.3,3.3,0.3,5,0.4c0.3,0.1,0.5,0.2,0.8,0.2C1453.4,2233.3,1453.3,2233.1,1453.2,2232.9z
	 M1651,2186.8c0.2-2.4-0.9-4.8-1.8-7.3c-1.5-4.2-3-8.5-4.3-12.8c-7.1-25.5-12.4-51.4-18-77.3c-0.7-3.4-1.6-5.4-6-5.2
	c-43,1.2-85.9,1.9-128.8-1c-4.7-0.3-8.1-0.8-11.8,5.2c-6.2,9.9-10.4,20-12.6,31.1c-4.6,23.7-8.6,47.4-12.9,71.1
	c-0.2,1.1,0.3,1.9,1,2.6c3.3,3.2,6.8,5.9,11.7,5.9c1.8,0,3.6,0,5.4,0.7c6.2,2.2,12.6,3.1,19.1,3.1c27,0.2,53.9-2.6,80.9-2
	c17.5,0.4,35-2.2,52.4,0c6,0.8,11.4,0.5,17-1.8C1647.9,2196.9,1651,2193.2,1651,2186.8z M1574.1,2495.9c15.8,0,31,0,46.1,0
	c2.5,0,3-1.3,3-3.4c0.2-7.8,0.6-15.6,0.7-23.4c0.8-77.4-0.4-154.9-0.8-232.3c0-0.4-0.3-0.8-0.8-2.1c-4.5,7.6-8,14.9-12.3,21.8
	c-19.1,30.1-25.2,64.1-26.8,99c-0.9,19.9-1.4,39.9-1.3,59.9c0.1,17.1,1,34.3-1,51.4C1579.9,2476.4,1580.1,2486.4,1574.1,2495.9z
	 M1493.6,2220.5c2.9,1.5,6,2.7,8.8,4.4c12.8,7.8,19.2,20.5,24.7,33.6c15,36.1,20.8,74.1,21.9,112.9c0.8,26-0.3,51.9,0.9,77.9
	c0.5,9.4,2.7,18,5.8,26.6c0.4,1.1,0.6,2.7,2.5,2.7c1.1-3.2,2.9-6.1,4-9.5c2.9-9.5,3.2-19.4,3.6-29.1c1.5-36.1-0.4-72.2,3.2-108.2
	c1.4-13.7,2.5-27.4,5.5-40.9c3.6-16.2,12.3-30.1,20.4-44.3c1.9-3.3,3.4-7,6.2-9.6c6.6-6,11.2-13.9,20.3-19
	C1577.9,2219.3,1535.8,2221,1493.6,2220.5z M1491.9,2237.4c0.9,12.2,0.7,22.9,0.5,33.6c-1.2,55.8-0.7,111.6-0.1,167.4
	c0.2,13.9-0.3,28,3.8,41.6c0.9,3,1.5,6.2,1.7,9.3c0.2,2.7,1.2,3.6,3.9,3.9c8.8,0.7,17.5,1.9,26.3,2.5c6.8,0.5,13.7,0.8,21.3-0.1
	c-4.7-5.9-7.1-12-9.5-18.3c-7.2-19-8.3-39-8.7-58.9c-0.6-25.8-0.7-51.5-4-77.2c-3.7-29-11.2-57-22.6-83.9
	C1501.6,2250.6,1497.7,2244.3,1491.9,2237.4z M1617.8,2545.8C1617.9,2545.8,1617.9,2545.8,1617.8,2545.8c-0.5-9-1.2-17.9-1.6-26.9
	c-0.1-3-0.6-3.8-4-3.3c-17,2.5-34.2,2-51.3,0.7c-18.8-1.4-37.6-1.2-56.4-2.2c-1.4-0.1-3.5-0.5-3.1,1.9c1.3,9.8,0.2,19.6,1,29.4
	c0.3,3.7,1.9,5.2,5.5,5.3c11,0.4,21.9,1.6,32.9,1.3c17.3-0.4,34.5-2,51.9-0.4c7.2,0.6,14.6,0.9,21.9,1.3c3,0.2,3.9-0.9,3.5-3.7
	C1617.9,2548.1,1617.9,2546.9,1617.8,2545.8z M1881.9,2286.9c-0.1-3.5,0.1-6.5-0.7-9.4c-0.8-3-2.2-5.3-5.6-5.4
	c-3.2,0-4.8,2.4-5.4,5.1c-1,4.7-1.9,9.5-2.3,14.3c-2.7,33.3,0.9,66.5,2.1,99.7c0.2,6.9,0.6,6.8-6.3,9
	c-53,16.8-105.6,34.5-157.1,55.3c-8.3,3.4-16.6,7-24.2,11.7c-1.7,1-2.9,2.4-2.3,4.5c0.7,2.2,2.6,2.6,4.5,2.3
	c3.3-0.6,6.5-1.2,9.7-2.2c60.4-18.9,118.8-42.9,176.7-68.4c3-1.3,6.6-2.2,8.9-4.4c3-2.8-0.3-6.5-0.4-9.9
	c-0.2-10.2,1.1-20.2,1.3-30.4C1881.4,2334.7,1879.9,2310.5,1881.9,2286.9z M1567.5,2057.5c15.8,0,31.6,0,47.4,0
	c1.5,0,2.9,0.5,3.3-1.8c1.6-9.7-8.5-19-17.8-16.3c-1.8,0.5-3.6,0.7-5.4,0.6c-32.5-0.4-64.9,2.2-97.3,0.2c-1.3-0.1-2.7-0.4-3.8,0.6
	c-1.9,1.6-5.9,14.8-4.4,16.8c2.5,3.2,6.1,0,9.1,0.5c0.5,0.1,1,0,1.5,0C1522.5,2057.4,1545,2056.6,1567.5,2057.5z"/>
<path class="st3" d="M1643.4,2835.8c0-15.8,0-31.2,0-46.5c0-6.5,0.3-13,0.5-19.5c0.2-5.7-0.1-11.3,0.8-16.9
	c1.2-7.4-0.9-14.5-2.2-21.7c-0.4-2-1.8-2.5-3.5-3.1c-12.8-4.6-25.3-4-36.6,3.8c-8.8,6.1-14.6,13.6-14.7,25.5
	c-0.2,21.3-1.6,42.5-7.7,63.2c-1.2,4.2-2.7,8.2-5.3,11.8c-5.8,8.1-15,9.2-22.5,2.6c-7.4-6.5-10.5-15.2-12.3-24.5
	c-3.8-19.7-8.1-39.4-11.5-59.2c-2.8-16.2-14.1-19.4-26.6-21.9c-6.7-1.3-13.5-1.5-20.3-2.3c-2.4-0.3-3.1,0.2-3.5,3
	c-4.5,34.5-2.9,69.1-2.2,103.7c0.1,6.5,0.2,6.5-6.2,6.6c-1,0-2-0.1-3,0c-3.7,0.6-4.8-1-4.8-4.7c-0.1-19-0.8-38-0.6-57
	c0.3-19.7-1.8-39.2-2.1-58.9c-0.1-4.1,0.4-6,5.5-6.1c10.7-0.2,21.4-2,32.2-2.2c15.7-0.4,30.4,3.8,42.8,13.8c7,5.6,7.5,14.1,8.5,22.2
	c2.3,18.5,4.6,36.9,7,55.4c0.4,3.3,1.4,6.5,2.2,9.7c0.8,2.9,2.8,4,5.7,3.6c3-0.4,3.8-2.3,4.3-5.1c1.5-8.7,1.3-17.4,0.8-26.2
	c-0.6-11.6,0.8-23.3,2.3-34.8c1.2-9.5,5.4-17.8,14.2-23.5c10.4-6.8,20.6-13.7,33.4-14.8c8.6-0.7,17.3-1.1,25.7,0.9
	c4.2,1,7.4,0.3,10.9-1.4c51-23.7,100.9-49.8,151.7-74c40.9-19.5,81.7-39,122.6-58.5c27.3-13,54.7-26.1,82-39.1
	c5.1-2.4,5.4-2.4,5,3.2c-3,39.5-2.9,79.2-3.7,118.8c0,1.7,0.1,3.7-1.6,4.5c-4.4,2-6.9,6.3-11.2,8.4c-52.7,26-105.4,52-158.2,77.8
	c-47.5,23.2-96.5,42.6-145.3,62.7C1678.6,2821.9,1661.2,2828.7,1643.4,2835.8z"/>
<path class="st3" d="M1389.2,1971.5c3.5-1.4,7-2.8,10.4-4.3c5.8-2.6,11.5-5.3,16.7-9c12.7-9.2,12.6-21.7-1.3-29.8
	c8.9-1.5,16.9-2.9,24.9-4.2c2.5-0.4,4.9-0.7,7.4-1.2c6.5-1.3,10.1-5.9,9.1-11.6c-0.9-5.6-5.8-9-12.3-8.2c-6.6,0.9-13.1,2.1-19.7,3.2
	c-19.5,3.2-39,6.6-58.6,9.7c-6,0.9-10.8,4.2-15.9,6.9c-2.2,1.2-3.2,3.5-2.6,6c0.7,2.9,3.2,4,5.7,5c10.7,4.5,22.4,4.7,33.5,7.1
	c4.9,1,9.8,2,15.2,3.1c-3.1,3.2-6.7,4.4-10.1,5.8c-9.7,3.9-19.6,7.4-29.4,11.3c-2.9,1.1-5.8,2.5-8.5,4.2c-3.1,1.9-5.9,4.5-5.8,8.2
	c0.2,5.6-2.6,4.5-6.2,3.9c-20.9-3.9-37.5-15.4-53.5-28.6c-7.9-6.5-15.1-14.1-24.9-18.2c-1.7-0.7-3.1-2.5-4.4-4
	c-2.1-2.7-4.1-5.9-2.8-9.1c1.1-2.6,4.7-1.8,7.2-2.2c43.3-6.4,86.6-12.6,129.8-18.9c40.5-5.9,80.8-12.8,121.5-17.4
	c9.2-1,18.4-2.7,27.7-3.6c7.8-0.8,15.6,1.2,23.3,2.1c23.8,3,47.5,6.2,71.2,9.6c27.3,4,54.6,8.4,81.9,12.5
	c28.8,4.3,57.6,8.4,86.4,12.5c31.1,4.4,62.2,8.7,93.8,13.2c-2.9,4.4-6.8,6.8-10.9,8.7c-12.3,5.8-25.4,9.2-38.9,10
	c-23.3,1.3-46.6,1.9-69.8,4.3c-25.1,2.6-50.2,5.3-75,10.3c-9.3,1.9-18.9,1.3-28.3,2.9c-13.2,2.2-25.9,5.9-38.9,8.6
	c-22.5,4.7-45.4,6.8-68.3,8.9c-24.2,2.2-48.5,3.2-72.9,2.8c-13-0.2-26-1.2-39-0.7c-3.8,0.1-6.6-2.8-10.4-3.1
	c-13.6-1.1-27.2-2.5-40.7-3.7c-5.4-0.5-10.9-0.9-16.3-1.4C1389.5,1972.3,1389.3,1971.9,1389.2,1971.5z"/>
<path class="st3" d="M1165.1,2404.5c-0.7-17.4-1.3-34.7-2.1-51.9c-0.9-19.8-1.1-39.6,1-59.4c0.3-2.6,0.3-5.4,3-7
	c1.2-0.7,0.7-1.6,0.6-2.6c-0.4-5.5,2.1-8.4,7.6-8.8c5.6-0.4,10.9,1.1,16.1,2.8c32.4,10.7,64.6,21.6,97,32.2
	c43.9,14.4,88.7,25.5,133.2,38.1c8.3,2.3,16.4,4.8,24.1,8.9c3,1.6,3.8,4.5,4.5,7.4c2.5,10.7,2.1,21.5,1.7,32.3
	c-0.4,12.1-1.3,24.2-1.5,36.4c-0.2,15.3-1.3,30.6-3,45.8c-0.2,1.6,1.3,5-1.8,4.5c-2.9-0.4-6.9-0.1-7.6-4.9
	c-0.7-5.6-1.7-11.2-1.8-16.8c-0.3-11.6,1-23.3-0.8-34.9c-2.4-14.7-1.7-29.6-0.5-44.3c1.1-12.5,1.4-11.9-10.6-15.6
	c-59.2-18.4-119.5-33.1-177.6-54.9c-20.2-7.6-40.5-14.1-61.5-18.3c-1.9-0.4-4-0.4-5.9-0.5c-1-0.1-2,0.1-3,0
	c-1.5-0.3-1.8-3.8-3.6-2.2c-1.5,1.3,0,3.8,0.3,5.7c2.9,19.5,3.5,39.1,3.3,58.8c-0.1,14.3-0.1,28.6,0,43c0,3.4-0.4,5.3-4.5,4.8
	C1169.6,2402.9,1167.5,2403.9,1165.1,2404.5z"/>
<path class="st4" d="M1037.1,2090c6.1-5.9,12.1-11.8,18.2-17.7c1.5-1.5,3.1-1.2,5.1-0.8c22.9,4.3,45.6,10,68.3,15.2
	c48.4,11.1,96.9,22,145,34.5c35.9,9.3,71.6,19.5,107.4,29.3c16,4.4,32.3,7.1,48.7,9.5c5.4,0.8,10.5,2.6,15.4,5.3
	c3.4,1.9,4.8,4.5,3.7,7.7c-1.6,4.8-1.5,9.8-2.8,14.6c-0.9,3.6-3,5.1-6.7,5.3c-6.7,0.3-13.3-0.3-19.8-1.2
	c-30.4-4-60.1-11.5-89.7-19.2c-34.6-9-69-18.8-103.8-27.1c-46-11-92.2-21.7-138-33.6c-13.6-3.5-27.3-7.2-40.3-12.6
	c-4.1-1.7-7.2-4.6-10.6-7.3C1037.1,2091.4,1037.1,2090.7,1037.1,2090z"/>
<path class="st4" d="M1539,2714.9c-0.6-3.1-3.1-1.9-4.9-1.9c-20-0.1-39.9,0-59.9-0.1c-2.2,0-4.9,1-6-2.1c-0.9-2.6,0.8-4.3,2.4-6.1
	c6.1-6.8,12.6-13.3,16.2-21.8c0.7-1.6,1.4-1.8,3-1.6c16.3,2.4,32.7,2.8,49.1,2.7c26.6-0.2,53.3,0,79.9-0.1c4,0,7,0.8,9.2,4.5
	c2.9,4.7,7.1,8.3,11,12.1c1.6,1.5,2.9,3.2,3.8,5.2c2.8,6,1.5,8.2-4.9,8.2c-28.5,0-56.9,0-85.4,0c-1.9,0-4-0.8-5.7,1
	C1544.3,2714.9,1541.7,2714.9,1539,2714.9z"/>
<path class="st4" d="M1977.7,1947c1.2,4.8-1.2,6.6-5.5,8.6c-15.5,7.2-32.4,9.6-48.6,14.5c-22.7,6.9-45.4,13.7-68.5,19
	c-50.5,11.6-100.9,24-151.1,36.9c-20.2,5.2-40.5,10.3-60.3,16.9c-3.5,1.2-6.5,1.2-9.9-1c-5.6-3.6-11.4-6.8-17.3-9.9
	c-3.2-1.7-6.9-2.1-10.6-2.1c-21,0-42-0.2-63,0.1c-11.8,0.1-23.6-0.8-35.4-1c-7.8-0.2-15.8-0.2-22.2,5.1c-7.8,6.4-16.1,4.3-24.5,2.3
	c-21.2-5.2-42.3-11-63.7-15.7c-24.3-5.3-47.9-13.3-72.2-18.7c-37.6-8.4-75.3-16.6-113-25c-20.4-4.5-40.8-8.8-60.9-14.2
	c-10.1-2.7-20.3-4.4-30.3-7.4c-7.7-2.3-9.7-6.1-7.7-13.8c0.5-1.8,1.5-2.4,3.2-2.5c22.8-2.1,45-7.8,67.3-12.5
	c12.4-2.7,25.2-3.7,37.8-5.5c15.7-2.2,31.4-4.5,47.1-6.7c15.1-2.1,30.1-4.2,45.2-6.3c17-2.4,34-4.9,51-7.4
	c14.9-2.2,29.8-4.4,44.6-6.6c13.4-2,26.8-4.3,40.2-6.3c13.2-2,26.5-3.8,39.8-5.7c14.6-2,29.2-3.7,43.7-5.9
	c11.2-1.7,22.1-0.2,33.1,1.1c11.8,1.4,23.6,3.1,35.4,4.8c15.2,2.1,30.4,4.3,45.6,6.6c16.4,2.4,32.7,5,49,7.4
	c14.2,2.2,28.4,4.3,42.7,6.4c12.9,1.9,25.8,3.7,38.8,5.6c15.2,2.2,30.4,4.4,45.6,6.6c12.8,1.8,25.5,3.8,38.3,5.4
	c24.1,3,48.2,6.3,71.8,12.3c12.5,3.2,25.3,5.3,38.1,6.4C1977.9,1939.3,1978.6,1942,1977.7,1947z"/>
<path class="st4" d="M1458.1,2712.9c-8,0.5-13-4.7-19.3-6.8c-6.5-2.1-12.9-4.5-19-7.5c-32.8-15.9-68.3-25.5-100.6-43.2
	c-31.3-17.1-65.7-28.2-97.1-45.5c-29-16-60.2-27.3-90-41.6c-16.1-7.7-31.9-15.9-47.8-23.9c-2.4-1.2-4.7-2.4-7.1-3.5
	c-1.5-0.7-2.3-1.9-2.1-3.6c0.3-1.8,1.6-2.2,3.2-2.5c5.7-0.9,11.4-2,17.1-3c1.4-0.3,2.9-1,3-2.3c0.7-4.7,3-3.2,5.9-2.1
	c16.4,6.1,32,13.9,47.8,21.2c20.7,9.5,42.2,16.9,63.1,25.8c21.4,9.1,42.6,18.7,64.6,26.3c33.6,11.7,65.6,27.2,98.5,40.6
	c18.6,7.6,37.3,14.9,56.1,22.1c12.2,4.7,24.9,8.2,37.4,12.3c7.1,2.4,7.4,4.3,2.9,10c-4.2,5.2-7.5,11-10.2,17.1
	c-0.4,0.9-0.5,1.9-0.5,2.9C1464.7,2712.4,1464.3,2712.9,1458.1,2712.9z"/>
<path class="st4" d="M1478,2603.3c-11.1-5.6-21-9.2-31-12.9c-24.9-9.2-49.7-18.7-74.8-27.5c-37-12.9-74.3-24.9-111.3-38
	c-29.7-10.6-59.2-21.7-88.5-33.5c-15.5-6.3-30.3-14.5-45.3-21.9c-1.7-0.8-3.4-1.7-2.9-4c0.4-2,1.8-3,3.8-3.5
	c7.3-1.7,14.5-3.4,21.7-5.4c2.4-0.7,4.5-0.4,6.7,0.5c16,6.5,32.2,12.4,48.4,18.4c42.1,15.8,84.6,30.4,126.4,46.9
	c29.5,11.6,60,20.6,90.1,30.5c14,4.6,28,9.3,42.2,13.7c5.1,1.6,8.1,6.3,13.3,7.5c1.3,0.3,1.3,1.9,1.1,3
	C1476.7,2585.4,1474.6,2593.6,1478,2603.3z"/>
<path class="st4" d="M1554,2204c-27.2,0-54.3-0.1-81.5,0.1c-3.9,0-7.6-0.5-11.4-1.2c-5.1-0.9-7.7-4.5-7.1-9.7
	c1.5-12.2,4.2-24.1,8-35.8c1.8-5.5,4.5-6.6,10.2-5.5c14.3,2.9,28.7,4.3,43.3,5.3c20.1,1.3,40.1,2.5,60.2,1.8
	c19.2-0.6,38.2-3.2,56.9-8c5.7-1.5,10,1.4,11.7,7c3.2,10,4.3,20.4,7.5,30.4c3.5,11.1-2.1,15.3-12.5,15.5
	C1611,2204.4,1582.5,2204,1554,2204C1554,2204,1554,2204,1554,2204z"/>
<path class="st4" d="M1449,2498.4c0,7.5-4.8,10.4-11.8,7.7c-13.5-5.2-26.3-11.8-40-16.7c-20.2-7.2-40.5-13.8-61-20.2
	c-20.7-6.5-41.6-12.5-62.4-18.8c-20.2-6.1-40.3-12.2-60.4-18.6c-9.5-3-18.7-6.8-28.1-10.2c-4.1-1.5-8.2-2.6-12.6-2.7
	c-4.7-0.1-9.7-9.5-7.5-13.7c1.1-2.1,2.8-1,4.3-0.5c9.9,3.2,19.7,7.3,29.9,9.3c39.3,7.7,77.1,20.8,115.3,32.3
	c29.4,8.9,58.7,18,87.3,29.3c12.6,4.9,26.1,7.4,39.6,9.3c3.4,0.5,5.8,2,6.2,5.4C1448.2,2493.1,1449.5,2495.8,1449,2498.4z"/>
<path class="st4" d="M1624,2586.8c0.1,5.7-0.9,6.4-6.8,5.4c-4.7-0.7-9.6-0.7-14.4-1.1c-16.7-1.4-33.4-1.9-50.1-3.3
	c-13.4-1.1-26.8-2-40.2-1.9c-5.5,0-11,0.3-16.3,1.6c-2.2,0.5-3.1-0.2-3.8-1.9c-2-5,3-12.2,8.2-11.5c13.9,2,27.9,0.6,41.9,0.8
	c14.5,0.2,28.9,1,43.4,1.4c9.9,0.2,19.9,0.7,29.7,1.7C1620.3,2578.5,1623.9,2582.3,1624,2586.8z"/>
<path class="st3" d="M1898.5,1925c-16.1,21.6-37,34.5-63.2,37.6c-17.7,2.1-34.8,7.4-52.4,9.7c-14.5,1.9-29.1,3.1-43.7,3.6
	c-25.2,0.8-50.3-0.9-75.4-0.9c-33.5,0-66.8,2.8-99.9,7.6c-29.3,4.2-58.7,7.6-88.1,10.6c-24.8,2.5-49.7,4.5-74.7,4.5
	c-49.2,0-97.3-8.1-144.4-22.1c-23.7-7.1-47-15.5-69.8-25.2c-6.6-2.8-12.8-6.5-16.4-13.2c-3.3-6.1-2.8-7,3.8-8.6
	c17.8-4.4,36.1-5.7,54.2-8.4c25.2-3.7,50.4-7,75.6-10.6c30.4-4.4,60.9-8.9,91.3-13.4c25.3-3.8,50.6-7.9,76-11.5
	c22.2-3.1,44.5-5.4,66.7-8.7c12-1.8,23.5,1.3,35.1,2.6c21.3,2.4,42.5,5.5,63.7,8.6c27.1,4,54.2,8.4,81.4,12.4
	c29.3,4.3,58.6,8.5,87.9,12.6c24.9,3.5,49.7,7,74.6,10.5C1886.4,1923.4,1892.4,1924.2,1898.5,1925z"/>
<path class="st5" d="M1417,1971.9c-6.3,0-12.7,0-19,0c-0.1-0.9-0.7-0.9-1.4-1c-17.2-2.3-34.5-4.6-51.7-6.8c-7.9-1-15.1-3.8-22.2-7.3
	c-4.9-2.4-6.3-5.9-5.3-11.4c2.8-15.8,7.8-31,11.1-46.6c2.6-12.3,4.3-24.7,0.4-37c-2.1-6.8-1.4-13.2,0-20c4.6-22,6.5-44.4,10.1-66.6
	c2.4-15,4-30.1,3-45.3c-0.6-10.2-3.7-18.3-13.3-24.5c-18.9-12.1-36.9-25.7-55.4-38.5c-9.6-6.7-17.9-15.1-28.3-20.4
	c-7.1-3.6-14.1-7.5-21.2-11.2c-2.1-1.1-1.7-2.6-1.6-4.2c0.2-6.2,0.5-12.3,0.6-18.5c0.7-45,3.7-89.8,11.2-134.3
	c7.6-45.1,18.8-89.2,35.2-131.9c6.2-16.3,15-31.6,21.1-47.9c11-29.3,21.2-58.9,29.8-88.9c7.5-26.2,17.2-51.1,35.1-72.1
	c1.2-1.4,1.7-3.1,2-5c3.3-20.1,2.2-40.5,4.5-60.7c0.7-6.2-1.4-12.5-6.7-16.5c-5.5-4.1-12.3-5.1-18.8-4.8c-5.9,0.2-11.9,2.3-16.8,5.8
	c-20.7,15.1-37,33.6-43.8,58.9c-1.5,5.4-3.2,10.1-7,14.5c-2.5,2.9-3.4,2.2-5.4-0.1c-10.5-12.8-21.1-25.7-27.8-40.8
	c-7-15.8-18.7-25.6-34.1-32.1c-2.6-1.1-4.4-1.4-6.6,0.4c-8.8,7.2-17.4,14.6-26.6,21.1c-5.6,4-8,8.3-8.8,15.3
	c-2.6,25.3-8.1,50.3-12,75.4c-2.6,16.9-5.6,33.8-1.8,51c1.1,4.8,0.9,10,1.4,15.9c-7.3-6.5-13.7-12-20-17.7c-1.5-1.3-2.8-2.9-3.9-4.5
	c-17.6-27.3-31.1-56.5-42.3-86.9c-3.9-10.7-7.2-21.6-11.2-33.4c-1.8,4.7-3.4,8.4-4.8,12.2c-16.6,46.1-24.5,94.1-31.9,142.2
	c-4.6,29.8-8.8,59.6-12.7,89.5c-1.9,14.3-5.3,28.5-4.3,43.1c2,29.7,3.7,59.5,5.6,89.2c2,31.8,10.2,62.3,17,93.1
	c4.3,19.3,10.3,38.2,14.8,57.5c0.6,2.4,1.6,5.5-0.9,6.9c-2.8,1.6-4.3-1.7-5.9-3.3c-14-14.2-25.5-30.3-36.8-46.7
	c-3.3-4.7-6.7-9.3-9.1-14.7c-8.4-19.1-15.1-38.7-20.8-58.7c-23.7-82.9-44.8-166.6-62.8-250.9c-8.5-39.9-15-80.1-19.5-120.7
	c-2.4-21.5-4.3-43.1-5.2-64.7c-0.8-20.1-2-40.3-1.3-60.4c0.7-19.8,1.1-39.6,2.5-59.4c1.3-19.1,2.7-38.2,4.7-57.2
	c2.6-25.8,5.4-51.7,8.6-77.4c3.8-31.4,7.9-62.7,12.4-94c4.2-29.1,9.1-58.2,13.6-87.3c5.7-36.5,12.7-72.8,24.9-107.8
	c6.7-19.4,16.2-37.6,23.2-56.8c16.8-46.5,36-92,59-135.9c4.5-8.6,9.7-16.6,16.3-23.8c10.1-11,19.9-22.4,29.8-33.7
	c31.7-36.1,63.9-71.6,98.2-105.2c3.2-3.1,6.4-4.5,10.9-4.7c18.1-0.6,36.3-1.2,54.2-4.8c22.3-4.5,42.8-0.1,62.6,10.3
	c9.1,4.8,15,13.2,22.9,19.2c6.1,4.6,9.6,10.9,12.7,17.5c1.1,2.3,1.7,4.7,1.5,7.3c-0.1,1.3,0.1,3-1.4,3.5c-1.2,0.4-1.9-1.1-2.7-1.8
	c-11.6-10.8-25.7-16.3-41.2-17c-21.2-0.9-42.3,0.3-62.9,5.9c-5.4,1.5-8.8,3-9.7,10c-2.6,20.3-10.6,39.1-18.8,57.7
	c-13.7,31-27,62.1-38,94.2c-0.7,2-2.1,4.1-1.3,6.2c3.6,10.6,2.7,21.7,4.2,32.5c5.2,37.8,12.1,75.2,23.7,111.7
	c8.2,25.9,21,49.6,34.5,73c5.2,9,13.2,15.2,22,20.7c3.7,2.3,6.6,3.2,9.8,0.3c3-2.7,6.5-4.7,10-6.5c11.6-6.2,23.6-11.7,34.7-18.6
	c27.6-17,55.7-12.5,84-2.7c3.2,1.1,6.2,3,9.6,2.1c10.6-2.9,19.9-7.4,22.5-19.8c1.6-7.6,2.6-15.4,4.7-22.9c2.5-9.1,3.3-18.2,0.9-27.1
	c-1.8-6.5-1.9-14.5-7.7-18.9c-9.3-7-19.4-14.2-31.3-14.2c-9.6,0-14.4-4.5-18.8-11.5c-0.2-0.3-0.4-0.5-0.6-0.8
	c-5.5-10.1-13.3-18.7-14.4-31.3c-2-24.2,2-46.7,14.3-67.6c4.4-7.5,9.5-14.6,13.1-22.4c6.5-14.3,16.3-25.2,29.3-33.6
	c6.1-4,11.7-8.5,18.4-13.4c-0.3,2.3-0.4,3.6-0.6,4.9c-2.7,20.1-9.8,39.4-10.1,59.9c-0.2,14-1.2,27.9,1.4,41.8
	c2.1,10.9,8.5,17.7,19.5,19.1c5.5,0.7,11.8,1.8,15.4-4.2c3.9-6.5,9.2-11.3,15.5-15.2c7.8-4.9,15.4-9.8,23.2-14.7
	c4.6-2.9,9.5-5.4,15-4.5c18.6,3,37.5,2.5,56,6c9.8,1.8,19.9,2.9,27.8,9.9c9.4,8.2,19.2,16,26.9,26c2.2,2.9,5.3,5.8,9.1,5
	c4.1-0.9,4.6-5.3,5.7-8.7c0.2-0.6,0.2-1.3,0.3-2c1.4-7.5,2.3-15.1,4.2-22.5c2.6-10.2,4-20.5,5.6-30.9c1.1-7.3,2.3-14.5,3.4-21.8
	c4.1,6.7,7.3,13.4,10.2,20.2c2.8,6.6,6.4,12.7,8.5,19.7c4.2,13.9,4.8,28,3.8,42.4c-1.1,16-5.5,30.8-14.5,44
	c-3,4.4-6.9,8.1-10.4,12.1c-4.7,5.4-6.8,11.3-3.5,18.4c1.3,2.7,1.7,5.7,2.6,8.6c4.1,13.4,4.8,27.4,8.8,40.8c0.9,3.1,2.3,5.6,5.6,6.5
	c3.3,0.9,5.8-0.8,7.9-3.2c2.8-3.2,4.6-6.9,6.3-10.7c7.7-17.5,14.5-35.1,19.3-53.8c12.2-47.8,28.6-94.6,29.6-144.7
	c0.3-17.7-0.1-35.3-4-52.6c-6.7-29.8-17.4-58.6-21.2-89.1c-0.5-4.1-2.8-2.6-4.9-2.1c-19.2,4.6-38.7,6.9-58.4,7
	c-7.6,0-15.4,0.4-23.5-2.1c1.3-1.2,2.1-2,3-2.7c28.7-21.3,61.8-32.7,95.7-42.4c2.1-0.6,4.1-0.7,5.6,1.7c3.6,5.5,8.4,9.9,14,13.4
	c2.3,1.4,2,5.1,5.5,5.2c3.8,0.1,6.4,2.5,8.8,5.2c6.3,7,10.7,15.2,14.7,23.7c14.3,30.9,25.6,62.9,36.6,95
	c24.3,70.7,44.9,142.5,58.9,216.1c2.5,13.1,4.8,26.2,7.1,39.3c2.8-5.5,4.9-11.1,6.5-16.7c5-17.6,9.7-35.2,14.6-52.8
	c0.4-1.4-0.3-4.1,2.9-3.5c5.1,1,9.5,6.2,9.6,11.5c0.7,24.6,4.1,48.7,12.8,71.9c7.1,19,17.5,35.1,38.1,42.2c4.7,1.6,8.5,4.8,7.2,11.3
	c-1,5.2-0.8,10.6-1.1,15.9c-0.4,8.2-0.8,16.3-1.3,25.4c0.9-1.1,1.2-1.3,1.3-1.5c12.5-28.3,25.2-56.6,33.8-86.4
	c5.6-19.1,13.9-37.5,16.7-57.4c2.2-16.1,7.4-31.8,7.3-48.3c-0.1-15.2-1.8-30.3-4.4-45.2c-7.8-43.9-17-87.5-29.2-130.4
	c-11.4-40-24.7-79.4-38.2-118.7c-5.8-16.9-11.9-33.6-23.2-47.8c-1-1.3-1.4-3-2.1-4.5c-1.8-3.6,0.2-3.8,3-3.6
	c7.2,0.7,13.4,3.6,19.3,7.5c12.2,8.1,20.9,19.5,28.8,31.5c13.2,20.2,23.7,42,35.7,62.9c34.1,59.4,60.9,122.3,82,187.4
	c6.1,19,15.6,36.7,19.4,56.5c0,6.5,0.3,12.9-0.7,19.4c-2.2,14.2-7.3,27.4-14,39.9c-18.2,34.1-33.5,69.5-47.9,105.3
	c-8.7,21.4-18.9,41.8-33,60.2c-1.3,1.8-1.1,3.2-0.5,5c3.8,11.2,7.6,22.4,11.2,33.6c2.8,8.7,5.5,17.5,4.3,26.9
	c-1.5,12.3-8.7,20.9-18.1,28.2c-11.8,9.2-21.7,20.2-29.8,32.8c-4.9,7.6-7.9,16.4-13.3,23.4c-10.6,14-13.3,30.3-16.4,46.6
	c-2.9,14.9-1.8,30.2-2.7,45.3c-0.4,6.8-1.5,13.6-2.2,20.3c-0.2,2.2-1.2,5.5,1.3,6.4c5.7,2.2,8.2,7.6,12.4,11.3
	c5.6,5,8.6,11.2,10.3,18.4c1.6,6.5,0.1,12.9,0.3,19.4c0.4,11.2-1.9,21.8-6.7,32c-0.7,1.5-1.6,3.1-1.5,4.7
	c0.8,13.4-2.8,25.5-9.1,37.3c-3.3,6.1-7.3,10-14,11.5c-3.4,0.7-8.1-1-9.9,2.3c-1.5,3-0.7,7.2-0.9,10.8c-0.1,1,0,2,0,3
	c0.3,24.8-1.3,49.6-2.4,74.4c-1.1,23.4-3,46.8-4.7,70.2c-1.7,24.2-3.4,48.5-5.3,72.7c-2.2,28.9-4.5,57.7-6.6,86.6
	c-1.9,26.2-3.5,52.5-5.2,78.7c-1.9,28.6-4,57.1-5.8,85.7c-2.2,33.4-4.1,66.8-6.3,100.2c-2.1,32.6-4.3,65.1-6.6,97.7
	c-2.6,35.5-5.5,71-8,106.6c-0.7,9.9-2.9,19.8-1.6,29.8c0.4,3.4-1.4,6.3-4.2,8.1c-6.9,4.6-14.4,7.6-23,6.1c-7-1.3-12.3-6-12.5-11.7
	c-0.1-5.8,0-11.6,0.3-17.4c1.2-19.1,2.6-38.2,3.7-57.3c1.2-21.1,2.1-42.2,3.3-63.3c1.7-27.9,3.6-55.8,5.4-83.7
	c1.4-21.8,2.8-43.5,5-65.2c2-19.5,3.7-39.1,5.3-58.7c1.5-18.1,1.8-36.3,4.5-54.2c3.1-21,3.8-42.1,3.9-63.2
	c0.1-24.7,0.8-49.3,2.7-73.9c2.2-28.5,3.7-57.1,5-85.7c0.6-12.8,1.3-25.6,2-38.4c1.6-28.3,3.2-56.5,4.8-84.7
	c0.8-14.1,1.9-28.2,2.7-42.3c0.4-7.9,1.2-15.8-0.5-23.9c-6.1,3.7-5.5,9.6-6.4,14.8c-2.3,14.6-2.4,29.5-6.1,43.9
	c-2.2,8.5-5.2,16.9-5.6,25.8c-0.9,20.5-2.7,40.9-5.5,61.1c-6.4,47.3-14.9,94.3-26.7,140.6c-8.9,34.9-19.4,69.3-32.3,103
	c-11.7,30.5-31.3,56.3-47.5,84.1c-1.6,2.8-3.9,7.6-6.4,6.7c-2.9-1.1-2-6.2-1.8-9.5c1.6-20.2,2.9-40.5,5.1-60.7
	c3.7-33.9,5.2-68,9.1-101.9c3.6-31.5,4.5-63.1,5.7-94.7c1.4-39,1-78-1-116.9c-0.4-7.6-0.8-15.3-2.9-22.7c-1.3-4.4-3.9-7.6-8.6-8.8
	c-4.6-1.1-6.5,2.2-8.9,4.9c-6.6,7.5-13.2,15-21.4,20.9c-2.3,1.6-3.5,1.8-4.1-1.7c-2.2-13.5-4.3-27-7-40.3
	c-4.2-20.5-8.3-41-16.7-60.5c-6-13.9-17.1-18-30.5-19.3c-3.3-0.3-4.3,1-4.4,4.2c-0.4,15-1.1,30-1.7,44.9c-0.2,5.5-0.2,11,0.9,16.4
	c4.9,24.6,11,49,17.6,73.2c4.1,14.8,3.9,30.4,7.6,45.2c13.3,53.3,23.7,107.2,36.2,160.7c5.1,22,6,44.5,8.1,66.9
	c2,20.6,2,41.1-0.8,61.7c-1.9,14.2-6.2,27.5-12.1,40.4c-1.6,3.5-4.4,6.2-8,7c-5.4,1.2-8.5,4.6-11,9.2c-2.8,5.2-7.4,9.2-8.8,15.5
	c-5.3,24.6-9,49.4-8.6,74.7c0.7,36.1,0,72.3,3.4,108.4c0.8,8.6,1.7,16.9,9.9,22.2c1.3,0.9,2.3,2.4,3.1,3.9
	c4,7.3,10.3,12.2,17.1,16.5c20,12.5,39.1,26.3,61.2,35.4c12.2,5,23.6,12.3,37.1,13.7c1.3,0.1,2.6,0.7,3.7,1.4
	c5.5,3.3,6.2,7.1,2.2,12.1c-0.8,1-1.3,1.8-1.3,3.1c0.1,4.5-2.4,7.7-6.1,9.6c-14.5,7.4-29.7,11.8-46.2,8.2
	c-12.4-2.7-23.9-8.2-35.7-12.7c-3.6-1.4-7.2-2.5-11.1-2.8c-26.3-1.5-52.4-4.3-78.8-4.2c-17.8,0.1-29-9.1-30.5-29.8
	c-1.1-15.9-1.8-31.9-3.1-47.8c-2.1-26.2-4.4-52.4-7-78.6c-0.9-8.6-0.7-17.3-3.6-25.6c-4.3-12.2-8.7-24.4-13.6-36.4
	c-7.9-19.4-13.5-39.4-11.3-60.7c1.1-10.6,1.9-21.2,3-31.8c1.3-12.2,0.6-24.7,4.9-36.5c0.8-2.3,0.8-4.8-1.2-7.6
	c-6.3,9.4-12.4,18.5-18.3,27.7c-0.7,1-0.8,2.5-0.9,3.8c-0.6,8.7-3.9,16.4-7.9,24c-14.3,27-31.1,52.4-49.2,77
	c-9.6,13-19.8,25.5-31.2,37.1c-3.5,3.5-7.2,5.4-12.2,5.8c-6.6,0.6-13.2,2.1-19.8,2.9c-3.1,0.4-4.6,1.8-5.4,4.8
	c-4,13.9-8.9,27.7-15.5,40.5c-5.4,10.5-7.4,21-6.8,32.6c0.7,13.2,1.1,26.3,6.2,38.7c2,4.9,3,9.7,3.2,14.9c0.3,7.1,1.5,14.2,3.3,21.2
	c4.5,17.6,13.4,33.3,21.6,49.3c5.4,10.5,3.7,15.7-5.2,25.2c-3.6,3.8-8.4,5.9-13.5,7.3C1419.9,1970.7,1417.9,1970,1417,1971.9z
	 M1877.2,645.8c0.9,20.3,2.1,40.4,2.8,60.5c1.7,49.8,3.2,99.6,3.5,149.4c0.1,14.8,1.3,29.6,1.6,44.4c0.6,22.8,3.6,45.5,2.9,68.3
	c0,1.4-0.6,2.9,1.2,3.9c3.5,2,12.1-1.9,12.4-5.8c1.1-14.3,2.1-28.5,3.2-42.8c1.7-20.4,3.6-40.8,6.6-61c3.6-24.5,6.4-49.1,6.6-74
	c0.2-31.5,1.1-63-2.3-94.4c-1.6-14.7-8.8-27.5-23.1-33.9c-4.9-2.2-8.4-5-11.4-9.1C1879.9,649.5,1878.6,647.7,1877.2,645.8z"/>
<path class="st6" d="M1643.5,660.5c9.9,24.1,18.5,48.3,22.4,74c0.3,1.8,0.5,3.7,1.2,5.4c3.5,8.3,1.3,15.6-2.6,23.3
	c-6.1,12-13.7,22.8-23,32.5c-5.7,5.9-9.2,13.4-13.9,20.1c-2,2.9-2.3,6.3-0.9,9.6c4.2,9.9,4.2,20.5,5,30.9
	c1.1,14.3,0.2,28.6-2.7,42.8c-0.2,1.1-0.3,2.3-0.3,3.5c0,4,1.7,3.1,3.6,1.2c0,9.2-2.7,17.8-8,24.8c-2,2.7-6.2,5.9-10.7,6.6
	c-4.2,0.7-8.3,0.3-11.8-2.6c-2.3-2-4.2-4.3-5.8-6.8c-10.1-15.3-20.7-30.2-29.8-46.2c-2.2-3.9-5.5-2.3-8.4-2.1
	c-7.1,0.4-13.2,4.6-20,6c-1.2,0.3-2.4,1.2-3.4,2.1c-13.8,12.6-25.7,26.5-33.2,43.9c-1,2.4-2.1,5-2.3,7.6c-0.4,4.8-2.9,5.9-7.2,5.3
	c-6.9-1-13.8-2.3-20.4-4.6c-7-2.5-10.3-8.1-10.5-15.5c-0.3-9.2,2.4-18.1,3.7-27.2c1.1-8.2,3.3-16.3,4.5-24.5
	c0.8-5.9,1.6-11.7,2.7-17.5c1.7-8.7,6.4-13.7,14.2-16.3c3.9-1.3,7.9-2.5,12.2-2.5c1.5,0,3.7,0.9,4.1-1.6c0.3-1.9-0.5-3.6-2.3-4.7
	c-2.6-1.6-4.5-3.9-6.1-6.5c-5.5-8.4-2.6-18.4,6.8-21.8c11.8-4.2,24.3-3.5,36.6-3.9c2.8-0.1,2.4,2.2,2.5,4c0.5,6,0,12,1.2,17.9
	c1.1,5.4,1,4.6,5.6,2.8c12.5-4.8,22-14.5,33.8-20.1c5.5-2.6,11.6-4.3,17.5-7.6c-3.2-1.4-6-3-9-4c-12.1-4-23.4-9.6-34.3-16
	c-1.7-1-3.5-2.4-5.4-2.6c-6.4-0.6-6.9-4.7-6.9-9.9c0.2-20.1-9.7-53.2-20.1-67.1c-1.1,3.9-2.3,7.3-1.5,11.1
	c4.6,22,6.5,44.4,10.2,66.8c-11.5-0.8-21.2,3.1-30,9.8c-5.3,4.1-11.7,3.6-17.7,4.1c-26.1,2.2-52.2,2.2-78.2-1.8
	c-2.2-0.3-4.1-1.2-6.1-2.2c-7.2-3.5-14-7.8-21.5-10.5c-2.2-0.8-3.1-2.3-3.8-4.2c-4.7-11.5-5.9-23.5-5.6-35.7c0.1-2.5-0.1-5-0.5-7.4
	c-1-5.7,0.6-10.2,6-11.7c10.1-3,17.3-10.3,25.7-16c11.9-8,23.5-16.4,34.8-25.2c2.6-2,3.2-4.1,2.7-7.3c-1.7-10.4-5-20.3-9.6-29.8
	c-3.1-6.4-3.6-13.4-5.3-20.6c2.7,0.6,3.7,2.7,5.4,3.9c16.7,11.8,31.5,26,49,36.8c6.5,4,13.3,5.5,20.8,6c11.6,0.7,23.3-1.6,34.8,1
	c1.7,0.4,2.7-0.5,3.8-1.7c6.8-6.5,15-10.6,23.9-13c10-2.8,15.8,1.5,18.4,13.3c0.6,2.6,1.6,4.6,3.4,6.4c2.2,2.2,4.4,4.3,5.9,7.3
	c1.3,2.7,4.6,3,7.5,3.2c17,1.2,32.2-3.8,46.2-13C1641.7,661.7,1642.6,661.1,1643.5,660.5z"/>
<path class="st6" d="M1677.8,1605.7c-1.7-1.4-2.2-3.1-2.5-4.7c-0.7-3-2.2-4.6-5.5-5.4c-4.7-1.2-6.5-5.4-7.7-9.7
	c-2.7-9.9-3.2-20-4.2-30.1c-2.1-21.4-3.8-42.8-5.9-64.1c-1.6-16.7-7.3-32.4-11.4-48.5c-9.4-36.8-16.5-74-23.7-111.3
	c-3.5-17.9-9-35.4-13.3-53.2c-4.5-18.8-9.6-37.5-10.8-56.8c-0.9-15.2-3.5-30-6.2-44.9c-0.6-3.5-0.5-7,0.3-10.4
	c0.4-1.7,1.1-3.2,2.3-4.3c9-8.4,18-16.8,27.1-25.1c4.1-3.7,9-4.4,14-2.8c9.7,3.1,18,8.5,25.6,15.1c3.6,3.1,3.4,7.8,4.2,11.9
	c0.4,1.9-1.3,1.8-3.8,2.2c5.5,2.1,5.9,6.1,6.8,9.9c3.3,15.1,8.1,29.8,11.5,44.9c3.2,14.1,4,28.7,7.1,42.8
	c6.1,28.3,13.2,56.4,19.7,84.6c4.3,18.8,7.4,37.9,11,56.8c2.3,11.7,7,22.9,8.5,34.8c3,23.6,4.8,47.4,6.4,71.1
	c1.3,20.1-1.5,39.8-5.2,59.4c-1.6,8.6-6.5,16-9.3,24.2c-0.7,2.1-2.4,3.7-4.3,4.7c-8.2,4.3-16.6,8.9-26.3,5.6
	C1678.4,1601.1,1679.5,1604.6,1677.8,1605.7z"/>
<path class="st7" d="M897.6,1129.8c-3-26.5-4.7-51.7-5.7-77c-0.9-22.8-0.8-45.6,0.1-68.4c1.1-28.4,3.1-56.8,5.7-85.2
	c2.6-28.2,5.8-56.3,9.1-84.4c3.9-32.9,7.9-65.7,13.1-98.4c5.6-35.6,11.1-71.3,16.9-106.9c7.4-45.4,20.8-88.9,39.5-131
	c11.3-25.4,19.5-52,30.6-77.5c11.6-26.6,24-52.8,37.8-78.2c2.7-5,6.5-9.2,10.3-13.5c31.2-35.1,61.7-70.8,94.2-104.7
	c2.2-2.3,4-5.9,8.2-3.8c4.3,2.1,5.6,6,5.1,10.5c-1,8.5-3.6,16.6-6.9,24.4c-8.6,20.2-20.5,38.5-31.9,57.1
	c-21.6,35-44.7,69-69.8,101.7c-26.8,34.9-45.3,74.4-60.7,115.4c-18.6,49.5-31.2,100.8-43.1,152.2c-15.2,65.6-27.1,131.7-34.8,198.6
	c-6.1,52.6-10.2,105.4-12.7,158.4C901,1055.4,899.4,1091.9,897.6,1129.8z"/>
<path class="st6" d="M1277.5,746.2c-13.3-1-25.1-1.9-36.9-0.8c-3.8,0.4-6.7-3.6-6-8c0.6-3.8,3.1-6.2,6.4-7.7c4.5-2,9.3-2.6,14.1-2.7
	c7-0.2,14,0.4,20.9-0.8c4.4-0.8,8.4-2.1,12.2-4.8c23.9-17.3,48.2-33.9,73.7-48.8c2.6-1.5,5.1-3.1,7.7-4.7c7.4-4.7,7.4-6.5,0-10.7
	c-0.3-0.2-0.6-0.2-0.9-0.5c-6.9-6.6-14.2-5.3-22.3-2c-11.9,4.9-23.1,11.1-34,17.8c-2.9,1.8-4.5,4.9-6.6,7.4
	c-9.8,12.1-22.6,20.1-36.7,26.1c-5.3,2.2-11,2.8-16.5,3.4c-5.3,0.6-7.9-2.6-8.7-8c-0.9-6.2,0.5-11.8,2.7-17.4
	c2.4-6.4,1.5-13.2,2.2-19.8c1.4-14.3,3.3-28.4,7.6-42.1c1.5-4.9,4.4-7.9,9.2-11.2c14.2-9.6,30.4-15.3,44.5-24.7
	c20.2-13.5,41.9-14.6,64.7-10c7.3,1.5,15.3,1.4,19.9,9.2c0.9,1.6,3,2.6,4.7,3.7c8,5.4,11.4,13.1,12.8,22.6
	c1.6,10.8,2.6,21.7,4.5,32.5c1.2,6.8-0.8,11.8-5.8,16.3c-14.6,13-31.3,22.7-48.8,31c-25.2,12-46.7,29.4-69.6,44.8
	c-1.8,1.2-3.4,2.8-4.6,4.5C1284.8,745.2,1281.2,747.4,1277.5,746.2z"/>
<path class="st6" d="M1070.2,728.7c10.7,3.3,21.5,4.4,32.5,4.2c10.8-0.2,21.5-1,31.9-4.4c-4.9-2.4-10.2-3.9-15.4-3.4
	c-11.3,1-21.8-1.9-32.4-4.7c-2.1-0.6-4.3-1.6-6.3-1.4c-6.7,0.8-10.3-2.9-13.8-7.8c-9-12.4-18.5-24.4-27.5-36.8
	c-3.8-5.2-6.6-11.1-10.1-16.6c-3.3-5.1-2.7-10.9,0.5-16.1c3.7-5.8,9.5-7.9,16-7.1c3.8,0.5,4.6,0,3.6-3.9c-1.4-5.3-0.2-10.6,1.3-15.8
	c3.1-10.4,7.1-20.4,12.2-30c2-3.9,4.6-7.4,8.1-10c4.9-3.6,10.7-4,14.9-1.1c4.4,3.1,5.7,9.5,1.9,13c-3.5,3.2-5.3,7.2-7.1,11.3
	c-3.4,7.8-6.7,15.6-9,23.8c-0.8,2.9-0.3,5.3,1.6,7.8c4.5,6,9.3,11.8,12.8,18.5c1.1,2.2,2,2,3.8,0.9c9.2-5.7,16.3-13.7,22.8-22.1
	c1.2-1.5,0.9-3.1,0.7-4.8c-0.8-7.1-1.6-14.2-2.4-21.3c-0.1-0.8-0.3-1.7-0.2-2.5c0.2-2.2,1.7-3.9,3.3-4.8c1.7-0.9,2.7,1.5,3.6,2.7
	c6.5,8.9,12.2,18.1,9.9,29.8c-0.8,4.1-2,8.1-6.2,10.3c-1.7,0.9-1.6,2.8-2,4.4c-3.2,11.2-6.4,22.5-13.9,31.8c-1.8,2.2-0.5,3.1,1,4.4
	c6.2,5.4,11.6,11.5,17.5,17.1c4.7,4.5,4.4,10.8,7.4,15.9c3.3,5.6,7.6,9.2,14,11.2c10.1,3.1,19.1,7.5,24.5,17.8
	c6.5,12.4,15.4,23.4,24,34.4c3.9,5,3.6,10.1,0.4,14.3c-20.6,26.6-48.6,44.1-85.4,35.3c-3.3-0.8-5.7-2.3-7.1-5.5
	c-9.9-21.4-17.8-43.4-19.8-67.2c-0.1-1.7-0.3-3.5-1.9-4.4C1073.2,742.1,1073.2,734.8,1070.2,728.7z"/>
<path class="st7" d="M2048.3,527c-1.5-17.6,1.3-34,3.2-50.4c0.7-6,1.5-11.9,2.3-17.8c0.5-3.3-0.6-6.2-1.5-9.3
	c-15.8-53-36.7-104.2-57-155.6c-9.2-23.2-17.7-46.7-28.4-69.3c-6.4-13.5-13.8-26.6-20.8-39.8c-3.2-6-6.4-12-8.7-18.5
	c-4-11-9.4-21.3-16.5-30.6c-2-2.7-4.9-6.3-3.2-8.8c1.6-2.4,6-0.5,8.9,0.4c13.1,3.9,22.8,12.7,31.4,22.9c10.2,12.2,18.4,25.7,25.3,40
	c10.3,21.3,23.9,40.7,34.8,61.7c31.2,60.1,56,122.8,76.8,187.2c3.2,9.9,9.3,18.8,10.6,29.5c0.9,6.8,0.9,13.6,0.4,20.4
	c-0.2,3.3-1.5,3.9-3.9,1.5c-10.4-10.7-22.9-8.2-31.5,3.4c-7,9.5-13.1,19.6-19.6,29.5C2050.1,524.4,2049.4,525.3,2048.3,527z"/>
<path class="st7" d="M1542.7,1513.9c-7.6-23.9-16.6-45.8-26.4-67.5c-4.7-10.5-5-22-6.2-33.2c-3.8-36.3-4.7-72.7-5.5-109.1
	c-0.4-17,0-33.9-0.6-50.9c-0.5-18.1-1-36.2-2.5-54.3c-0.4-4.9,0.7-9.9,1.5-14.8c1.6-9.8,1.3-19.8,4.3-29.8c7.4,2.8,15.4,4.4,22,9.5
	c3.6,2.8,5.2,6.4,5.6,10.7c2.4,24.2,4.9,48.3,7,72.5c6.4,71.5,4.2,143.1,1.3,214.7c-0.5,12.8-2.2,25.6-1.3,38.4
	C1542.4,1504.2,1543.7,1508.4,1542.7,1513.9z"/>
<path class="st7" d="M1583.3,498.5c0,1.4-0.3,2.5,0,3.4c5.8,15.6,2.4,32.1,5,47.9c1.6,9.7-2.6,16.5-6.6,24
	c-5.6,10.3-13,19.3-19.1,29.3c-3.4,5.7-9.2,10-14.1,14.7c-2.3,2.3-5.4,1.3-8.1,0.9c-10.1-1.3-18.6-6.2-26.4-12.3
	c-11.5-8.9-21.2-19.6-30.7-30.7c-5.1-6-3.5-13.6-6.2-20.2c-0.5-1.2-0.3-2.7-0.8-3.9c-6.4-15-2.1-28.9,3.9-42.7c0.9-2,1.7-4,2.2-6.1
	c2.1-9.4,6.9-17.6,11.3-26c1.4-2.7,3.3-1.6,5.1-1.2c13,3,25.4,7.9,38.2,11.7c10.3,3.1,20.6,5.1,31.4,2.4c4.6-1.1,8.9,0,12.6,3.2
	C1582.8,494.6,1584.8,496,1583.3,498.5z M1493.7,509.8c-1.2-0.1-2.4-0.5-3.2,0.7c-1,1.5,0.3,2.4,1,3.5c0.7,1,2.3,1.8,1.4,3.4
	c-1.4,2.7,0.5,4,2.2,5.3c6,4.9,12.7,8.5,20,11c2.4,0.8,4.6,1.8,6.1,4c2.3,3.4,5,2.6,7.7,0.5c3.4-2.8,4.7-8.2,2-11.7
	c-2.8-3.7-5.5-7.7-10.3-9.6C1511.9,513.5,1502.7,512,1493.7,509.8z M1541.7,563c-3.9-0.4-7.6,0.7-11.3,1.6c-5.8,1.5-6.6,4.8-2.4,9.2
	c8.4,8.8,26,6.4,32.2-4.3c1.9-3.2,1-5-2.7-5.3C1552.3,563.7,1547,563.3,1541.7,563z M1556.8,543.1c2.2-4.2,5.6-6.7,10.1-6.4
	c6.6,0.5,10.9-3.9,16.1-6.4c1.6-0.8,2.1-2.4,2-4.2c-0.2-1.9-1.3-3-3-3.6c-10.5-4.1-22.4,1.7-25.5,12.5
	C1555.8,537.3,1553.7,539.8,1556.8,543.1z"/>
<path class="st7" d="M1559.6,1163.6c-4-7-10.9-11.4-15.3-18c-4.6-6.9-9-13.8-10.3-22c-2-11.9,8-28,23.1-26.2
	c1.8,0.2,3.6,0.5,5.4,0.8c1.4,0.3,2.2-0.3,2.5-1.6c0.3-1.2,0.1-2.3-1.3-2.8c-10-3.6-20-7.1-30.2-0.6c-2.1,1.3-3.6,2.2-5.5-0.1
	c-2-2.4-3.1-1.1-4.4,0.9c-4.2,6.6-10.1,11.5-16,16.3c-1.7,1.4-3.1,2.2-5.1,0.2c-3.2-3.3-7.4-5.2-11.9-5.9c-3-0.5-3.7-1.4-2.5-4.5
	c6.2-16,13.3-31.4,29-40.6c1.4-0.8,1.7-2.4,2.2-3.8c4.8-12.4,11.1-23.8,21.3-32.7c0.6-0.5,1.4-1.2,1.6-1.9c2-7.7,8.4-11.3,14.5-15.1
	c8.9-5.6,20.4-3.3,24.8,6.3c3.3,7.2,7.3,13.7,11.2,20.4c1.8,3.1,2,4.7-2.6,5.3c-9.7,1.4-16.5,7.4-21.1,16c-1.2,2.2-2.5,4.8-1.1,7.1
	c1.6,2.7,4.8,2.1,7.3,1.7c8.1-1.1,15.4-4.4,21.2-10.2c2.2-2.2,3.5-2.7,5.1,0.4c0.8,1.6,2.1,3,3,4.6c3.2,5.6,7.3,10,13.4,12.8
	c8.2,3.9,13.3,11,16.4,19.4c3.3,9.2-1,15.8-10.7,17.1c-1.3,0.2-2.8,0.3-3.8,1c-6.7,4.3-13.5,3.5-19.8-0.4c-3.7-2.3-7.8-2.2-11.7-3.5
	c-2.7-0.9-2.6,1.3-2.9,2.8c-1.9,8.8-3.8,17.6-5.5,26.4c-0.7,3.5-1.6,6.5-4.7,8.9c-6.2,4.8-10.7,10.8-13.6,18.2
	C1561.2,1161.5,1561,1163,1559.6,1163.6z M1546.3,1066.1c4.6-0.2,9.2-0.6,13.4-3.1c2-1.2,3.4-2.8,1.4-4.7
	c-6.9-7-13.7-14.2-24.8-13.5c-3.4,0.2-6.3,1.4-7.7,4.6c-1.5,3.3-0.6,6.5,1.6,9.3C1534.3,1063.9,1539.6,1066.3,1546.3,1066.1z"/>
<path class="st7" d="M1496.6,1050c-8.2-5.8-13-14-17.9-22.1c-0.3-0.6-0.6-1.2-0.9-1.8c-5.7-8.9-7.2-18-1.4-27.6
	c0.9-1.5,1.9-3.1,1.4-5.5c-3.5,0.2-7.1,0.5-11.5,0.8c2.5-2.7,4.5-4.7,6.3-6.8c1.6-1.9,3.1-0.7,4.5,0.1c2.7,1.4,4.1,0.8,4.3-2.2
	c0.3-4.4,3.1-5.8,6.8-7.2c8.6-3.1,16.9-7,25.4-10.2c5.4-2,5.7-5,6.9-8.7c2.5-8,5.5-15.7,9.6-23c5.9-10.6,10.9-21.7,14.4-33.4
	c3.3-11.2,13.6-13.6,22-5.5c5.2,5,8.9,11.2,12.4,17.4c9,16.3,14.8,33.8,20.7,51.3c0.1,0.3,0.3,0.6,0.3,1c-0.3,5.5,0.3,10.8,4,15.7
	c-9.2-2.2-18.2-2.5-27.2-2.7c-8-0.2-15.5-0.9-23.7,2.8c-17.2,7.8-35.4,13.8-56,10.4c3,6.2,3.2,13.1,9.6,16.7
	c5.5,3.1,10.9,6.2,17,9.7C1511.4,1027.1,1500.9,1035.7,1496.6,1050z"/>
<path class="st7" d="M1825.3,1083.4c-9-10.4-13.9-21.7-16.3-34.1c-1.7-8.5-2.4-17.2-1.3-25.8c0.4-3-0.4-3.9-3.4-3.5
	c-3.6,0.5-7.1-0.3-10.1-2.1c-4-2.3-7.5-1.7-11.2,0.6c-5.5,3.4-10.9,7.1-16.7,10c-8.4,4.3-17.2,6.1-25.6,0.3
	c-8.8-6.2-10.4-15.5-9-25.4c2.1-14.9,7.8-28.1,19.9-37.9c3.9-3.2,8-4.2,13-3.3c11.4,2.1,22.9,4.1,33.8,8.2c2.6,1,4.7,2.8,6.1,5
	c5.2,7.7,12.9,10.2,21.4,10.5c8,0.3,12.5,5.7,16.7,11.2c2,2.6,0.1,6.1-2.5,7.7c-13.3,7.9-16.3,20.8-17.1,34.6
	c-0.6,11.1,2.7,22.1,2.4,33.3C1825.3,1075.9,1826.2,1079,1825.3,1083.4z"/>
<path class="st7" d="M1001.1,1008.4c-0.7,13.9-1.3,27.4-2.2,40.8c-1.5,21.6-0.9,43.3-0.9,64.9c-0.1,29-3.1,57.9-5.7,86.7
	c-6.9,77.4,0,153.4,21.4,228c2.3,8.2,4.5,16.4,6.7,24.5c0.6,2.1,0.8,4.2,0.1,7.2c-6-12.3-10.7-24.3-15.1-36.4
	c-13.2-36.4-23.7-73.5-28.5-112.1c-3-23.9-3.1-47.9-2.1-71.9c2.3-53.3,7.7-106.3,14.6-159.2c3-23.3,6.7-46.5,10.1-69.7
	C999.6,1010.4,999.5,1009.3,1001.1,1008.4z"/>
<path class="st7" d="M1384.3,1937.5c-2.7,6-6.3,8.3-11.3,7.4c-4.5-0.8-7.9-4.7-7.6-10.4c1.1-20.7-0.6-41.7,5.5-62
	c2.3-7.6,6.1-10.9,14-10.7c5.2,0.1,10.2,0.7,15.3,1.9c10.1,2.3,14.9,9.1,16.9,18.7c2.2,10.5,5.6,20.5,10.3,30.2
	c4.3,8.8,8.5,17.7,13.1,26.4c1.8,3.3,0.9,4.9-1.8,6.9c-16.2,11.9-33.6,10.8-48.6-3.1C1388.2,1940.9,1386.4,1939.3,1384.3,1937.5z"/>
<path class="st7" d="M1482.8,403.9c7.5-4.6,14.8-9.3,22.4-13.7c5.5-3.2,11.6-1.9,17.5-1.1c17.9,2.4,36.1,2.5,54,6
	c10.2,2,19.6,5.1,26.9,12.9c2.1,2.3,4.9,4,7.3,6c3.6,3,6.9,6.2,8.7,10.7c4.8,12.1,11,23.5,16.4,35.3c4.4,9.7,7.7,19.8,11.5,29.7
	c0.2,0.6,0.6,1.4,0.4,1.9c-2.9,7.3,1.8,13.9,1.7,20.8c-0.1,7.1-1.8,14.1-3,21.2c-0.1,0.8-1.3,1.4-2,2.2c-2.2-1.6-1.6-4-2-6
	c-2.4-12-7.1-23.2-12.5-34.1c-5.6-11.3-10.8-23-17.5-33.6c-6.5-10.4-14.2-20.1-23.9-27.8c-22.4-18-47-30.1-76.6-29.5
	c-9.7,0.2-19.3,0-29,0C1483.1,404.5,1483,404.2,1482.8,403.9z"/>
<path class="st7" d="M1253.9,762.3c11.3-0.2,22,3.1,33,4.9c1.4,0.2,2.8,1.2,3.9,2.1c2.6,2.2,5.2,3.9,8.8,4.2c3.2,0.2,4,1.8,1.8,4.6
	c-14.7,19.2-31.3,36.8-48.2,54c-7,7.1-17.2,8.3-26.4,11.1c-3.3,1-6.1,0.5-9-1.1c-6.2-3.2-6.4-9.4-7.3-15c-1.1-6.4-1.5-12.9-2.6-19.3
	c-0.4-2.1,0-3.6,1.6-4.8c9.1-7,14.4-16.7,19.7-26.6C1236.3,763,1238.1,762.3,1253.9,762.3z"/>
<path class="st7" d="M1764.8,1896.8c5.5,6.2,14.1,7.5,16.8,15.6c-7.8,1.2-15.2,0.1-22.3-2.8c-14.1-5.8-27.9-12.5-41.5-19.5
	c-12.3-6.3-25.9-9.4-38.4-15.3c-4.2-2-8.5-3.9-12.5-6.1c-4.3-2.4-8.1-5.5-8-11.1c0-1.7-1.5-2.2-2.7-3.4c13.3-4.6,25.7-10,36.4-18.3
	c1.4-1.1,2.3-0.9,3.2,0.5c3.8,6,9.8,9.5,15.4,13.2c13.8,9,27.6,18,41.8,26.4c7.7,4.6,16.7,6.5,24.5,11c4.3,2.5,8.7,4.7,14,7.6
	C1782.3,1895.7,1774.1,1897,1764.8,1896.8z"/>
<path class="st7" d="M1893.7,493.6c3,0.1,6.7,5.1,6.6,9c-0.1,19.3,2.7,38.1,7.6,56.7c3.9,14.9,9,29.3,19.3,41.3
	c5.9,6.9,12.4,13.1,21.4,15.7c3.4,1,2.4,2.3,0.3,3.8c-2.3,1.6-4.6,3.3-6.8,5c-12,9.4-11.9,9.3-25.1,1.8c-12-6.8-19.9-16.5-22.3-30.3
	c-1.7-9.8-6.4-18.9-7.4-28.9c-2-20.5-4.4-41.1-0.4-61.6c0.6-3.3,1.4-6.5,3.2-9.4C1891,495.2,1892.2,494,1893.7,493.6z"/>
<path class="st7" d="M1379.4,994.1c1.3-1.8,2.2-3.4,3.4-4.8c5.6-7,12.6-8.1,19.9-3.2c3.5,2.3,6.9,4.7,10.2,7.1
	c2.4,1.7,5.1,2.9,7.9,2.7c7.6-0.7,15.2-1.7,22.7-3c1.7-0.3,3.2-2.2,4.8-3.3c2.4-1.6,4.9-2.3,7.5-0.6c2.6,1.8,2.8,4.6,1.8,7.2
	c-3.7,9.9-9.3,18.9-16.9,26.2c-3.2,3.1-7.9,4.6-13.1,4.9c-15,0.8-28.8-4.2-42.9-7.6c-0.8-0.2-1.6-0.5-2.4-0.5
	c-5.4-0.1-9.2-1.6-8.3-8.3c0.3-2.2-1.2-4.5-2.8-6.3c-3.8-4.1-4.7-9.4-6.2-14.5c-0.7-2.5,0.4-2.4,2.3-2.8
	C1373.4,985.9,1376.5,989.6,1379.4,994.1z"/>
<path class="st7" d="M1411.8,1193.9c0-4.1,0.2-7.8,1.1-11.3c2.3-9.5,5-18.8,6.2-28.6c1.3-10,15-18.1,24.8-16
	c5.1,1.1,7.8,5.3,6.7,10.3c-5.6,25.5-9.4,51.3-10.8,77.4c-0.3,6.1-0.8,12.3-0.8,18.4c0,1.4-0.2,2.8-1.6,3.3c-0.9,0.4-1.5-0.5-2-1.2
	c-8.7-10.5-17.6-20.9-21.1-34.6C1412.9,1205.7,1411.5,1199.7,1411.8,1193.9z"/>
<path class="st7" d="M1206.6,171.7c0-5.4,3.2-8.4,8.7-8.6c13.2-0.4,26.2-2.2,39.1-4.6c15-2.8,29-0.3,43.1,4.3
	c14.9,4.8,26.4,14.3,37,25.4c0.8,0.8,2,1.7,1.3,2.9c-0.8,1.4-2.1,0.4-3.1,0c-1.7-0.6-3.4-1.3-5-2.1c-17.1-8.1-35-5.9-52.9-4.6
	c-16.9,1.3-33.8,3.6-50.8,1.7c-5.3-0.6-9.9-2.6-13.8-6.4C1207.8,177.5,1206.8,174.8,1206.6,171.7z"/>
<path class="st7" d="M1974.9,675.9c8.2,8.3,17.3,13.3,28.4,14.3c1.6,0.1,2.2,1.3,2.6,2.6c5.9,18.5,14.3,36.1,18.7,55.1
	c1.1,4.6,1.4,9.2,1,13.9c-0.6,5.9-2.7,7.3-8.2,5.4c-6.7-2.3-13.1-5.4-17.2-11.4c-14.4-21.2-24-44.3-26.4-70.1
	C1973.6,682.8,1973.7,679.8,1974.9,675.9z"/>
<path class="st7" d="M1961.1,993.1c-3.1,0-5.9-1-8.7-2c-9.9-3.8-20.6-5.5-30.3-10c-2.3-1.1-4.2,0.5-6,1.5
	c-12.5,6.2-24.3,13.9-37.2,19.4c-5.2,2.2-10.5,4.1-15.9,6c-2.6,0.9-5.4,1.7-7.2-1.1c-1.8-2.9,0.3-5.1,2.1-7
	c11.6-12.3,25.7-20.9,40.6-28.6c5.7-3,11.4-6,17.1-9c6.6-3.4,13.1-3.2,19.6,0.3c2.1,1.1,4.2,1.9,6.5,2.5c2.2,0.6,4.9,1.1,6.3,2.7
	c6,6.4,13,12,16.6,20.3C1966.8,992.6,1966.4,993.2,1961.1,993.1z"/>
<path class="st7" d="M1432.6,304.7c-8.8,14.4-17.7,28.8-26.4,43.4c-8.6,14.4-15.7,29.7-23.8,44.4c-8.1,14.8-12.5,31.1-20.2,46.1
	c-2-10.6-2.7-20.9-0.6-31.2c3.6-18.2,11.2-34.6,21.4-50c4.4-6.6,8.3-13.7,11.8-20.8c2.8-5.6,6.6-9.8,11.6-13.4
	c8.6-6.3,17-12.8,25.4-19.2C1432.1,304.2,1432.4,304.4,1432.6,304.7z"/>
<path class="st7" d="M1701.4,817.7c8.9,9.3,15.6,20.4,24.3,29.7c16.1,17.3,22,38.6,24.9,60.8c1.8,14,7,25.8,14.9,36.9
	c1,1.5,2,3.1,2.4,4.9c1,4.1-2.3,8-6.3,7.6c-1.6-0.2-5.5,0-1.8-3.5c1.5-1.4,0.9-2.7-0.4-3.8c-0.8-0.6-1.6-1.2-2.5-1.7
	c-5.9-3.5-9.8-8.1-12.2-14.9c-4-11.4-9.2-22.6-11.5-34.5c-4.3-22.9-14.4-43.4-24.4-64.1C1706,829.5,1703.2,823.9,1701.4,817.7z"/>
<path class="st7" d="M1046.5,546.3c-1.2,12.1-4.9,23.3-8.9,34.5c-3.3,9.2-6.9,18.3-9.1,27.9c-0.4,1.9-1.4,4,0.5,5.6
	c3.5,3,1,5-1.3,6.7c-6.4,4.7-16.2,0.6-18.5-7.7c-1.2-4.1-0.8-8.3,0.4-12.3c5.2-18.6,11.6-36.8,20.1-54.1c0.9-1.8,1.9-3.5,3-5.2
	c2.2-3.1,4.7-6.1,9-4.6C1046.1,538.6,1046.4,542.7,1046.5,546.3z"/>
<path class="st7" d="M1623.6,548c4.5,4,6.7,8.4,7.4,14c2.8,21.7-2.5,42-9.5,62.1c-3.3,9.5-7.5,18.5-12.1,27.4
	c-2.8,5.5-3.3,5.9-9.8,8.4c-1.3-1.6-0.1-3.2,0.4-4.6c7.2-25.1,11.5-50.6,11.5-76.8c0-7.1,1.8-13.8,6.9-19.2
	C1621.2,556.3,1621.7,551.9,1623.6,548z"/>
<path class="st7" d="M1327.2,857.6c-0.1-7.9,0.3-14.6,2.1-21c0.4-1.3,0.9-2.5,1.5-3.7c0.8-1.7,1.7-3.7,3.8-3.4
	c2.2,0.4,2.2,2.7,2.1,4.5c-0.3,7.8,1.3,15.2,3.3,22.6c5,18.8,9.9,37.6,14.6,56.5c2.3,9.4,2.5,19.1,3.2,28.7c0.1,1.1,0.5,2.5-0.9,3.1
	c-1.4,0.6-2.6-0.1-3.6-1.1c-0.8-0.8-1.6-1.7-2.1-2.8c-7.6-18.4-17.1-36.1-20.7-56C1328.8,875.5,1326.8,866.1,1327.2,857.6z"/>
<path class="st7" d="M1731.8,179.2c0,3.8-2.7,3.1-4.4,3.5c-13.3,2.9-26.7,5.4-40,8.3c-16.2,3.5-32.4,7.3-48.6,11.1
	c-3.4,0.8-6.8,1.7-9.9,3.4c-1.5,0.8-3.5,1.6-4.4-0.3c-0.8-1.7,1.4-2.3,2.5-3c20.2-13.1,42-22.9,64.9-30c6.8-2.1,13.7-4,20.4-6.3
	c4.3-1.5,7.4-1.1,10.1,3.1c1.8,2.9,4.7,5.1,7.2,7.5C1730.7,177.5,1731.9,178.3,1731.8,179.2z"/>
<path class="st7" d="M1934.4,1046.6c-4.9-0.4-9.5-0.4-14.1-1.6c-3.1-0.8-6.4-2.7-6.5-5.5c-0.2-7.8-4.7-15.1-2.5-23.3
	c1-3.8,2.9-6.1,6.1-7.8c8-4.2,16.4-3.5,24.9-2.3c5.9,0.9,11.9,1.6,17.6,3.4c0.9,0.3,2.2,0.4,2.4,1.6c0.2,1.6-1.3,1.7-2.3,2.1
	c-8.4,3.3-17.2,4.9-26,6.8c-1.1,0.2-2.3,0.4-3.4,0.7c-1.7,0.3-2,1.7-1.9,3c0,1.7,1.4,1.6,2.5,1.6c3.1,0.2,6.3,0.1,9.4,0.6
	c6,0.9,10.4,5.5,10.3,10.4c-0.1,5.1-4.4,9-10.8,9.9C1938.2,1046.5,1936.2,1046.5,1934.4,1046.6z"/>
<path class="st7" d="M1638.9,1002.2c2.7,14.5-7.3,24.3-17.1,34.2c-1.7,1.7-2.8,1.5-4.4-0.3c-4.7-5.6-9.5-11.1-14.4-16.6
	c-1.3-1.5-1.5-2.7-0.6-4.5c5.9-11.3,12.8-22.2,15.6-34.9c0.4-1.8,1.5-1.4,2.6-0.9c1.7,0.7,3.3,1.5,4.6,2.9c1.5,1.6,3.3,3.4,5.3,3.5
	c9.7,0.3,8.6,7,8.3,13.3C1638.9,999.5,1638.9,1000.1,1638.9,1002.2z"/>
<path class="st7" d="M1465.1,495.3c0,9.3-10.2,14.4-18.5,10.3c-5.1-2.5-10.1-5.8-13.2-10.4c-4.9-7.4-12.3-9.6-20-11.9
	c-3.7-1.1-7.3-2.1-10.9-3.4c-1.5-0.5-3.5-1.5-3.3-3.3c0.2-1.9,2.4-1.1,3.8-1.4c9.7-2.1,19.5-4,29.2-6.3c3.6-0.9,6.5-0.3,9.4,1.5
	c4.7,2.9,9.3,5.8,14.6,7.5c0.8,0.3,1.9,0.6,2.1,1.1C1460.4,484.8,1464.3,490.1,1465.1,495.3z"/>
<path class="st7" d="M1693.9,579.2c24.3,17.4,33.3,41.4,35.6,68.7c0.5,5.8,0.1,11.6,0.1,17.5c0,1.4,0.4,3.1-1.9,3.3
	c-2.3,0.2-2.2-1.7-2.5-3c-4.9-25-14.8-48.2-24.3-71.6C1698.9,589.5,1696.6,584.9,1693.9,579.2z"/>
<path class="st7" d="M1689.5,665.8c1.8,1.1,2.5,1.5,3.3,1.9c18.4,7.8,26.4,21.8,25.2,41.5c-0.4,6.9,2.8,13.3,3.4,20.1
	c0.4,3.8,0.6,7.6,0.1,11.5c-4.2-15.5-12.9-28.7-21.5-41.8c-1.5-2.2-1.5-5.4-2.2-8.1C1695.7,682.6,1693,674.7,1689.5,665.8z"/>
<path class="st8" d="M1055.1,599c2.5-4.9,2.4-10.5,4.4-15.6c2.8-7.1,6.4-13.4,13.7-16.9c4-1.9,7.8-1.2,11.5,0.5
	c3.6,1.6,4.7,6.3,2.4,9.3c-7.4,9.7-15,19.3-23.3,28.3c-5.3,5.6-5.3,5.6-7.6-1.5c-0.1-0.4-0.6-0.7-1-1
	C1055.1,601,1055.1,600,1055.1,599z"/>
<path class="st8" d="M1706,1372.3c0,1.6,0.1,2.3,0,3c-0.3,2.4,0.9,6.1-1.6,6.8c-3,0.8-4.4-2.9-5.8-5.2c-2.4-4-4.1-8.2-5.1-12.9
	c-2.9-13.1-9.9-24.6-14.9-36.9c-17.3-42.7-33.9-85.7-47.2-129.9c-4.9-16.2-6.7-33.2-9.6-49.9c-0.1-0.6-0.1-1.3-0.3-1.9
	c-2.4-5.9-2-6.7,4-8.4c14.5-4,30,4.7,33.5,19.2c8.5,35.2,15.7,70.7,22.9,106.2c4.2,20.5,9.5,40.8,14.2,61.2
	c3.2,13.8,6.1,27.6,9.2,41.3C1706,1367.6,1705.8,1370.5,1706,1372.3z"/>
<path class="st8" d="M1347.2,574.2c2.2,0,4.4-0.2,6.5,0.1c3.6,0.5,7.4,2,8.1,5.7c2,10,8.7,18.2,9.8,28.5c0.9,8.9,3.2,17.6,3.5,26.6
	c0.1,4.8-1.9,7.6-6.5,10c-7.9,4.1-15.1,9.6-22.7,14.3c-15.6,9.8-31.3,19.7-47,29.3c-6.1,3.7-12.4,6.9-18.7,10.2
	c-2,1.1-4.7,2.4-6.2-0.3c-1.3-2.4-2.2-4.9,1.4-7.4c12.9-9.1,22.8-21.3,33.5-32.7c7.8-8.3,15.1-17.2,25.7-22.7
	c5.6-2.9,9.3-8.2,9.4-14.5c0.2-11.2-1.6-22.2-8.5-31.6c-1.3-1.7-3.1-3.1-4.4-4.8c-3.2-4.3-2-7.7,3.1-9.3
	C1338.2,574.3,1342.6,573.8,1347.2,574.2z"/>
<path class="st8" d="M1521.5,712.5c2.7,12.3,5.4,24.2,7.9,36c1.1,5.1,0.6,10.3,0.4,15.4c-0.1,2.5-1.7,4.1-3.8,5.5
	c-11.9,8.1-25.8,10.5-39.4,13.4c-18.5,4-37.1,0.5-55.6,0.4c-5.8,0-11.7-0.7-17.5-0.3c-7.8,0.6-13.4-4.5-19.9-7.1
	c-1-0.4-1.9-1.5-1.4-2.9c0.6-1.8,2.2-1.7,3.7-1.9c7-0.7,13.9,0.7,20.9,0.9c19.3,0.6,38.6-0.2,57.8-2.1c5.9-0.6,10.6-3.3,14-8.4
	C1499.4,745.2,1510.3,729.2,1521.5,712.5z"/>
<path class="st8" d="M1624.8,445.7c-0.5,4.6-1.4,8.3-4.2,11.2c-4.4,4.7-8.6,4.6-12.4-0.7c-2.8-3.8-6.1-7-9.9-9.8
	c-15.9-11.7-31.1-24.4-47.9-34.9c-6.5-4.1-5.6-7.9,0.6-12c9.9-6.5,19.9-6.4,30.8-3.6c7.2,1.9,13.8,4.4,19.4,9.6
	c3.3,3.1,6.9,5.7,10.3,8.6c4.8,4,8.6,8.6,9.6,15.2C1622,435.2,1623.6,440.8,1624.8,445.7z"/>
<path class="st8" d="M1776.2,965.9c3.1-0.2,6.6,0.5,9.9,1.5c16.8,4.8,33.3,10.4,49.2,17.8c4,1.9,8.5,2.8,12.9,3.6
	c3.5,0.7,2.8,2.2,1.2,3.9c-5.3,5.7-11.2,10.8-16,17.1c-2.4,3.1-8.5,2.7-12,0.4c-9.2-6.1-19.9-8.4-30.3-11.2c-10.9-3-22-5-33.4-5.7
	c-0.7,0-1.3-0.2-2-0.2c-7.2-0.2-8-0.8-5.6-7.8C1754.8,971.5,1760.8,965.3,1776.2,965.9z"/>
<path class="st8" d="M1606,975c0.6,3.5-1.2,4.4-4.6,3.7c-8.6-1.8-17.3-3-26.2-2.9c-3.2,0-6-0.6-6.1-4.8
	c-0.8-23.4-5.7-46.1-11.3-68.6c-0.2-0.8-0.7-1.6-0.6-2.4c0.2-1.9-2.6-4.2,0.4-5.7c2.5-1.3,5.3-2,8-0.1c7.5,5.2,10.9,13.2,15.1,20.7
	c0.4,0.7,0.7,1.5,0.9,2.3c3.9,17.7,15.1,32.1,22.2,48.3C1604.9,968.5,1606.1,971.4,1606,975z"/>
<path class="st9" d="M1622.9,852.8c-3.5,1.7-3.4,6.5-6.2,5.6c-3.2-1-2.1-5.2-1.8-8c2.3-21.4,8.1-41.7,19.3-60.3
	c1-1.7,1.9-3.5,3.1-5.1c1.3-1.8,1.6-5.4,4.3-4.6c2.2,0.6,1.8,4.1,1.9,6.3c0.3,5.5-0.5,11-3.2,16c-6.5,12.1-9.1,24.6-7.9,38.7
	c2,23.3,1.8,46.8,2.4,70.3c0.2,7.1-2.7,11-8.2,11.8c-2.6,0.4-5.1,0-6.9-2c-2-2.1,0.5-3.6,1.2-5.3c0.9-2.5,2-4.9,2-7.7
	C1622.9,890,1622.9,871.4,1622.9,852.8z"/>
<path class="st8" d="M1141.2,717.2c13.3,3.7,22.1,12.4,29.8,21.9c7.2,8.9,14.3,17.9,20.9,27.3c7.3,10.4,5.4,19.2-4.6,26.8
	c-3.4,2.6-7.6,7.6-10.2,7c-3.3-0.8-2.9-7.3-4.2-11.3c-8.1-24.2-17.3-47.8-31-69.5C1141.6,718.9,1141.6,718.4,1141.2,717.2z"/>
<path class="st8" d="M1622.2,782.2c-9.7-0.3-18.5-3.9-27.7-3.3c-2.3,0.2-3.1-1.8-3-3.8c0.1-1.8,1-2.9,3.2-2.9
	c18.8,0.1,33.7-9.3,47.4-20.7c5.8-4.8,11.4-8.2,19.2-7.6c5.5,0.4,8.5,3.5,6.3,8.4c-3.4,7.5-7,15-15.1,19.1
	C1642.6,776.4,1633.1,782,1622.2,782.2z"/>
<path class="st8" d="M1085.6,663.3c0.6-3.9,0.5-8.6,5.4-10.6c5-2.1,8.2,0.9,11.3,4.2c3.9,4.2,6.4,9.3,9.3,14.1
	c5.4,9,10.9,17.8,16.3,26.8c1.1,1.8,2.2,3.8,2.1,6.1c-0.1,3.3-1.3,5.2-5,3.5c-14.7-6.7-26.8-16.6-35.4-30.5
	C1087.1,672.9,1086.1,668.3,1085.6,663.3z"/>
<path class="st8" d="M1511.4,1027.8c-6.3,0-11.4-1.9-16-6.1c-8.2-7.5-14.8-16.1-19.8-26c-2.5-5-2-10.1-0.4-15c1.4-4,4.6-4.7,7.1-1.5
	c10.9,14,22.8,26.8,37,37.4c3,2.2,3.2,3.9,0.2,6C1516.8,1024.4,1515.8,1028.9,1511.4,1027.8z"/>
<path class="st8" d="M1487.2,1116.4c0.5-4.6,2-9,4-13.2c2.4-5.3,5.2-10.4,7.8-15.6c4.3-8.6,11.6-14,19.9-18.2
	c1.5-0.7,3.1-1.2,4.8-1.4c6-0.8,9.3,3.2,7,8.9c-3.8,9.7-9.2,18.4-17.3,25.2c-7.1,6-13.9,12.4-22.1,17.1
	C1488.1,1120.9,1486.4,1120.7,1487.2,1116.4z"/>
<path class="st8" d="M1913.8,973.6c0-13,10-18.2,21.9-11c10.6,6.4,19.8,14.6,27.3,24.5c2,2.6,5.1,6.1,3.3,8.8
	c-2.1,3-6.1,0.4-9.1-0.6c-9.9-3.3-20-6.3-29.1-11.7c-1.6-1-3.2-0.5-4.9-0.5C1915.7,983,1913.8,981.1,1913.8,973.6z"/>
<path class="st8" d="M1565,1024.1c-0.8-6.1,2.2-12.2,0.7-18.9c-1-4.2,3.7-7,8.2-5.6c6.2,1.9,10.8,5.9,14,11.4
	c3,5.1,4.8,10.7,5.4,16.5c0.3,2.8,0.6,6.2-3.2,7.5c-1.3,0.5-1.5,1.7-2.1,2.7c-2.6,4.2-6.5,6.2-11.3,5.8c-5.3-0.5-8.9-3.4-10.5-8.6
	C1565.1,1031.4,1565,1027.9,1565,1024.1z"/>
<path class="st8" d="M1589.1,1115.5c-0.1,13.5-6.2,24.7-13.1,35.6c-1.4,2.2-2.8,4.5-4.6,6.5c-1.8,2.1-4.3,2.7-6.7,0.8
	c-2.4-1.9-2.4-4.6-0.6-6.7c9.5-11.4,7.6-24.5,5.8-37.5c-0.3-2.5-0.9-4.9-1.1-7.4c-0.2-2.3-2.5-4.6,0.6-7.1c3.4-2.6,6.7-3.6,10.6-2.2
	c4.2,1.6,6.9,4.5,7.7,9C1588.1,1109.6,1588.6,1112.5,1589.1,1115.5z"/>
<path class="st8" d="M1630.9,1103.5c0.2,4.5-2.2,3.2-4.1,2c-6.8-4.3-12.7-9.6-19.1-14.5c-6.6-5.1-11.4-11.5-15-19
	c-1.5-3.1-3-6.3,0-9.2c3.1-2.9,6.2-0.7,9.1,0.8c10.3,5.2,17,13.6,22.1,23.7C1626.7,1092.7,1629.9,1097.8,1630.9,1103.5z"/>
<path class="st8" d="M1129,621.8c0.2,5.1-1.4,8-5.3,9c-3.9,1-7.3-0.6-8.7-4.1c-2.6-6.8-6.3-13.2-7.4-20.5c-0.7-4.9,0.4-9.3,4.7-12.2
	c3.6-2.4,7.2-2.1,10.7,0.2c3.2,2.1,4.4,5.4,4.7,8.9C1128.3,609.8,1127.7,616.5,1129,621.8z"/>
<path class="st8" d="M1640.2,1009c-0.1,3.5-0.5,7-2.5,10c-2,3-4.7,4.7-8.4,4.3c-1-0.1-1.9-0.4-2.8,0.3c-1.1,0.8-1.9,3-3.6,1.7
	c-1.4-1.1-1.1-3.2-0.6-4.7c2.8-8.4,2.6-17,2.7-25.6c0-3.9-0.1-7.7-1.3-11.3c-1.4-4.1,1.1-4.3,3.7-4.1c3.7,0.3,5.8,2.9,7.5,5.9
	C1639.3,992.8,1640.3,1000.8,1640.2,1009z"/>
<path class="st10" d="M1847.1,983.8c-22.8,6.9-39.7-3.8-56.2-16.1c-2-1.5-3.8-3.6-4.4-6c-1.2-5.2-4.7-7.9-9-10.4
	c-7.9-4.7-13.1-11.8-15.7-20.6c-5.6-18.9-14.1-36.9-18.2-56.3c-0.6-2.8-2.3-5.1-4-7.4c-14.1-19.3-24.6-40.3-30.2-63.6
	c-1.2-4.9-1-9.9,0-14.9c3.6-17.3,7.6-34.4,14.8-50.7c1.3-2.8,1.4-5.5,0.6-8.7c-2.2-9.6-1-19.6-2.9-29.3c-1.3-6.7-2.7-13.4-4.6-19.9
	c-2.7-9.2-6.8-17.1-14.6-23.6c-14.7-12.4-23.7-29-29.9-47.1c-5.8-16.9-10.1-34.3-13.7-51.8c1.6-0.6,1.7,0.8,2.3,1.4
	c3.3,3.6,6.8,3.9,10.5,0.7c1.2-1.1,2.4-2.4,3.2-3.8c7.7-15.1,15.8-30.2,19.8-46.7c7-29.6,16.5-58.5,23.5-88.1
	c6-25.5,10-51.3,10.2-77.5c0.1-16.3-0.6-32.6-4.6-48.6c-1.3-5,0.4-9.5,1.4-14.2c0.7-2.8,1.1-5.5-1.6-8.1c-1.8,3.6-0.5,7.6-2.5,11.2
	c-6.3-24.4-14.5-48.1-17.6-73.1c-0.3-2.1,0.9-5.5-3-6.2c-0.5-0.1,0.5-1.4,1.1-1.9c9.6-8.1,20.1-14.8,30.2-22.1
	c2.3-1.7,3.9,0.2,4.7,2c1,2.1,2.4,2.8,4.6,3.1c2.8,0.3,4.9,1.9,6.8,3.9c4.7,5,8.5,10.7,11.6,16.8c2.9,5.6,5,11.7,8.3,17
	c7.5,12.4,7.7,25.7,5.2,39.3c-0.7,4-0.4,6.2,4.5,7.5c6.1,1.6,10.9,5.1,13.4,12.2c28.3,79.9,52.5,161,68.4,244.4
	c1.8,9.3,3.4,18.7,5,28c1.1,6.4-1,12.6-2,18.8c-2.8,18.2-3.6,36.4-3.5,54.8c0,3.8,1.7,7.1,3.2,10.4c5,11.1,9.9,22.2,12,34.3
	c0.9,5.5-0.2,11,0,16.4c0.6,25,0.2,50,2.2,74.9c3,37.2,6.7,74.3,7.7,111.6c0.6,23.3,1.2,46.6,3.6,69.8c0.9,8.6-2.6,15.7-6.4,22.6
	c-4,7.2-9.1,13.9-13.8,20.8c-2.1,3.1-5,5.5-8.6,6.6c-3.7,1.2-7.6,1.6-10.9-1.1C1844.8,991.7,1845.6,988.1,1847.1,983.8z"/>
<path class="st11" d="M1340.7,1158.3c0.9,2.2,1.4,3.5,2,4.9c1.9-1.1,2.3-3.1,3.2-4.6c4.4-7.4,8.8-14.9,13.2-22.4
	c1-1.6,2.9-3.2-0.3-4.6c-1.3-0.6-0.9-2-0.8-3.2c0.8-10,2.1-19.9,2.1-29.9c0-3.6,2.5-2.3,4.3-2.1c11,1.1,21.5,4.3,32.2,6.9
	c12.8,3.1,25.7,5.7,38.9,6.1c3.9,0.1,7.7,0.6,10.9,3.1c3.5,2.8,5.3,6.3,4.9,10.9c-0.5,4.5-2.9,8-7.1,8.7c-6.3,1-9.2,6.2-13.9,9.1
	c-2.1,1.3-3.7,3.3-5.5,5.1c-2.5,2.5-2.5,2.5-6.3,0.6c2.3,10.1-3.3,17.9-6.3,26.4c-11.9,33.2-18.3,67.7-23.9,102.4
	c-5.2,32.7-9.9,65.5-13.7,98.4c-3.3,28.8-6,57.6-7.5,86.5c-1.4,26.5-1.3,52.9-1.1,79.4c0.4,52.9,0.5,105.9,1.3,158.8
	c0.1,6.8,0.9,13.6,1.7,20.4c0.2,2,0.9,3.2,2.9,4c6.8,2.7,13.5,5.5,20.8,6.7c10.7,1.7,21,5.2,31.5,7.5c4,0.9,4.5,2.4,3.3,6.2
	c-5.3,16.5-12.1,32.4-19.3,48.1c-1,2.1-2,2.7-4.5,2.3c-19.3-2.6-38.4-6.2-57.5-10.4c-7.7-1.7-7.8-1.6-6.7-9.5
	c2-14.4,3.7-28.7,2.9-43.3c-0.2-3.3-0.6-6.6-1.3-9.9c-1.3-6.1-4.3-10.6-9.9-14.2c-21.6-13.9-42.7-28.5-62.8-44.4
	c-13.7-10.8-28.7-18.9-43.8-27c-2.5-1.4-2.1-3-2.1-4.8c1-31.8,1.7-63.6,4.5-95.3c4.9-54.6,15.5-108,32.2-160.1
	c8-25.1,19.6-48.7,29.7-72.9c13.3-31.9,23.3-65.1,33.3-98.2c4.2-13.9,8.5-27.7,15.6-40.4C1338.4,1162.1,1339.4,1160.6,1340.7,1158.3
	z M1298.5,1585.6c4.4-8.8,8-17,8.8-25.8c1.8-21,6.3-41.4,9.6-62.1c5.8-36.7,11.9-73.3,19-109.7c3.6-18.4,8.7-36.6,11.5-55.2
	c2.2-15.1,3.6-30.4,6.9-45.4c0.6-2.7,1.8-5.4-1.4-7c-3.2-1.6-5.8,0-7.9,2.5c-3.7,4.4-6.1,9.5-8.2,14.8
	c-6.3,15.9-11.5,32.2-16.4,48.7c-10.4,35.4-17.5,71.4-20.7,108.2c-1.5,17.6-3.1,35.1-4.1,52.7c-1.2,21.6-2.8,43.2-0.6,64.9
	C1295.6,1576.3,1295.8,1580.7,1298.5,1585.6z"/>
<path class="st10" d="M1143.8,1208.6c-5.8-11.8-9.9-24.2-13.7-36.7c-6.8-22.3-10.4-45.4-14.8-68.3c-5.3-27.5-11.2-54.8-14.8-82.5
	c-5.6-43-10.8-86-8.7-129.4c0.5-10.7,1.6-21.3,3.3-31.8c0.5-3.1,1.6-6,3.1-8.9c1.6-3.2,0.8-7,0.2-10.6c-0.3-1.7-0.9-3.7,0.8-4.5
	c1.5-0.7,2.5,1.2,3.5,2.2c4.7,4.5,9.3,9.1,14.6,12.9c1.9,1.4,2.8,3.2,3.5,5.2c6,15.7,13.2,30.9,21.7,45.4
	c8.1,13.8,19.4,23.5,35.1,27.7c9.4,2.5,13.1,0.8,19.6-6.4c5.2-5.8,12.1-9.7,19.4-12.9c23.6-10.1,45.1-23.6,64.6-40.3
	c7.3-6.2,13.4-13.3,17.7-22c3.3-6.8,15.5-8.5,22.7-3.5c4.8,3.4,8.1,8.2,7.2,14c-1.1,7.4,1.4,13.8,3.3,20.4c5,17.4,11,34.4,19.1,50.8
	c5.2,10.4,4.7,22.7,5.9,34.3c0.2,2.5,0.2,5,0.3,7.5c0.2,7.5,0.2,7.5,7.4,7.8c8.5,0.3,15,9,14,19.1c-0.6,5.8-2.1,11.4-4.4,16.9
	c-5.7,14-10.2,28.5-17,41.9c-12.5-9-27.1-9-40.8,1.5c-21,16.2-37.3,36.1-42.4,63.2c-0.7,3.8-3.7,6.1-6.2,8.1c-2.5,2-4.9-0.9-6.6-2.9
	c-5.7-6.9-11.7-13.7-16.3-21.5c-6.3-10.6-13-20.9-18.3-32.1c-1-2-2.3-3.6-4.3-4.7c-7.4-4.1-14.9-8.2-22.2-12.4
	c-2-1.2-3.3-0.6-4.9,0.7c-6.1,4.9-12.5,9.4-18.3,14.6c-4,3.6-8.7,6.2-12.8,9.7c-3,2.6-3.9,5.1-4.3,8.8c-1.1,10.1-2.8,20.1-4.3,30.2
	c-0.2,1.1-0.3,2.8-1.1,3.2c-5,3.1-2.7,7.3-2.4,11.4c0.6,7.4-1.7,14.5-2.7,21.7c-1.9,13.7-4.1,27.3-6.2,41
	C1142.8,1201.2,1144.4,1204.8,1143.8,1208.6z"/>
<path class="st10" d="M1843.5,1331c-0.6-1.7-1.2-3.4-2-5.6c-1.6,2.6-2.3,5.1-1.6,7.5c2.2,7.7,1.3,15.2-0.9,22.6
	c-3.5,11.7-3.8,23.9-6.8,35.7c-8.6,34-19.4,67.4-30.4,100.7c-1.3,0.1-1.8,0.8-1.8,2c-9.4,23.7-20.3,46.6-36.2,66.9
	c-5.3,6.8-7.7,15.5-13.1,22.3c-1.8,2.3-3.6,6.7-5.9,5.9c-2.8-1-2-5.5-1.8-8.5c1-14.3,2.2-28.5,3.5-42.7c2.1-23,4.5-46.1,6.3-69.1
	c1.7-22.1,3.5-44.1,5.8-66.1c2.2-21.5,3.1-43.2,3.7-64.8c0.3-12,0.7-24,1.1-35.9c1.1-32.5-0.1-64.9-1.4-97.4
	c-0.2-6.3-1.2-12.6-2.1-18.8c-0.5-3.6-1.8-7.1-4.8-9.7c-4.1-3.6-8.4-3.2-12.2,0.8c-1.9,2-2.7,6-7.1,4.6c-0.7-0.2-1.2,0.9-1.3,1.8
	c-1.9,8.7-9.6,12.2-15.7,16.9c-2.7,2-2.4-0.8-2.6-2.2c-3-16.7-6-33.4-9.1-50.1c-1-5.2-2.4-10.4-3.4-15.6c-0.4-2.1-2.7-4.4,0.8-6.4
	c1.3-0.7-0.5-2.5-1.3-3.2c-2.5-2.2-3.4-5.1-4.2-8.2c-2.2-8.6-6.1-16.5-10.2-24.3c-3.6-6.9-21.4-14.1-29.2-12.3
	c-2.2,0.5-2,1.9-2.1,3.4c-0.1,3.2,0,6.5-0.6,9.8c-3.4-8.3-4.2-17-5.8-25.6c-2.4-13,0-25.9,0.6-38.8c0.4-8,0.7-16,5.3-23.1
	c1.1-1.7,0.1-3.9-0.2-5.9c-1.1-6.1-2.3-12.1-3.3-18.2c-0.2-1-0.8-2.4,0.6-3.1c1-0.5,1.9,0.3,2.7,1c9.7,8.1,19.8,15.8,23,29.1
	c1.6,6.8,4.9,12.9,9,18.8c3.3,4.7,3.2,11.1,4.5,16.7c0.4,1.9,0.8,3.4,2.6,4.5c14.6,9,28.2,19.5,42.3,29.2c5.9,4,12.1,6.6,19.2,7.9
	c17.7,3.2,35.1,7.8,53.3,6.5c2.5-0.2,5-0.1,7.5-0.6c3.9-0.8,6.1,0.3,6.4,4.5c0.1,1.2,0,2.6,2.2,2.3c16.6-2.5,32.4-0.1,46.9,8.7
	c2.4,1.5,3.9,0.6,5.5-1c1,1.6,1.2,3.4,1.1,5.3c-2.3,3-4.1,6.2-4.6,10c-1.3,0.4-1.8,0.9-0.5,2c-0.5,4.3-1,8.7-1.5,13
	c-1.3,0.4-1.8,1-0.4,2c0,12.2-2,24.2-5.3,35.9c-3.4,12.1-4.8,24.4-5.5,36.8c-1.9,33.2-6.9,66.1-12.7,98.8c-1.4,7.8-3,15.6-4.5,23.5
	C1844.4,1331,1844,1331,1843.5,1331z"/>
<path class="st11" d="M999,1202.1c2.1-60.9,4.7-115.2,7.1-169.4c2.1-47.1,8.5-93.4,20.9-138.9c5.3-19.4,11.3-38.6,19-57.2
	c2.9-6.9,6.2-13.7,10.7-19.7c0.7-0.9,1.3-2.3,2.6-2c1.8,0.3,1.4,2.1,1.4,3.3c0.6,12.2-1.3,24.3-3,36.3c-5,37-9,74-10.7,111.3
	c-1.8,39.1-4.5,78.1-6.5,117.2c-1.6,29.4-2.9,58.9-4.2,88.3c-1.2,25.5-1.7,50.9-3.4,76.4c-1,14.6-3.8,29-5.9,43.5
	c-2.5,18-5.3,35.9-7.5,53.9c-0.6,4.9-2.5,4.5-5.7,2.9c-4.2-2.2-6.8-5.8-8.6-10.1c-2.2-5.3-3.2-10.8-4.2-16.4
	c-2.7-14.7-3.1-29.6-3.2-44.6C997.7,1249.7,998.1,1222.6,999,1202.1z"/>
<path class="st11" d="M1608.7,1844.9c-4.8-5.9-6.9-12.6-7.6-19.4c-2.7-25.8-5.2-51.7-7.2-77.6c-1-13.4-5.5-25.8-10.3-38.1
	c-2.9-7.4-5.8-14.9-8.7-22.3c-8.7-21.5-10.9-43.7-7.5-66.6c0.9-5.9,1.3-11.9,1.6-17.9c0.1-2.5,0.9-3.9,3.5-4.6
	c12-3.5,23.5-8.3,34.7-13.9c2.6-1.3,5.1-1.4,8.1-0.8c11,2.1,21,6.2,29.9,13c6.1,4.7,12.6,5.7,20.1,3.8c9.4-2.4,19.1-2.3,28.7-0.4
	c3.2,0.6,4.3,1.9,2,4.7c-0.4,0.5-0.7,1.2-1.1,1.7c-8.6,9.1-10.9,20.6-12.9,32.3c-0.4,2.5-1.1,4.8-2.7,6.8
	c-15.6,20-31.2,40.1-46.8,60.2c-3.3,4.2-6.3,8.6-10.8,11.7c-1.9,1.3-1.7,3.1-1.9,4.9c-1.9,17.9,0.3,35.6,3.8,53.1
	c1.9,9.3,1.6,17.3-8.2,22c-2,1-1.4,2.8-1.5,4.4c-0.8,12.6-1.5,25.3-3.9,37.8C1609.7,1841.5,1609.2,1843.2,1608.7,1844.9z"/>
<path class="st11" d="M1879.9,1109c0.1-1.9-0.1-3.6-1.1-5.3c2.9-4.4,7.7-5.3,12.3-5.5c11-0.4,22-0.3,32.9,1.5
	c1.6,0.3,2.6,0.1,1.9,2.8c-1,3.8-0.7,7.9-0.7,11.9c-0.1,6.3-0.2,12.6-0.1,18.8c0.1,2.6-0.9,3.2-3.2,2.8c-3.6-0.7-4.1,0.7-3.4,4
	c1.4,6.7,2.3,13.4,5.1,19.8c1.3,2.9,0.5,6.3,0.3,9.4c-1.3,22.9-2.3,45.9-3.9,68.8c-2,29.5-4.5,59.1-6.7,88.6
	c-2.2,28.9-4.2,57.7-6.3,86.6c-1.1,15.9-2.1,31.9-3.2,47.8c0,0.4-0.3,0.9-0.9,2.5c-2.8-9.3-5.3-17.5-7.7-25.8
	c-8-28.3-15.9-56.7-24-85c-1.7-5.8-1.2-11.6-0.9-17.4c1.2-24.4,2.5-48.9,3.9-73.3c2-36.4,3.9-72.8,6.1-109.2
	c0.7-12,2.1-23.9,1.9-35.9C1882,1114.2,1883.1,1111,1879.9,1109z"/>
<path class="st11" d="M1557.6,1303.2c-0.4-3.9-1-7.8-1-11.8c0-14.3-4.4-27.7-7.8-41.3c-3.9-15.5-6.9-31.2-8.5-47.1
	c-0.7-7-0.2-14,0.5-20.9c0.4-3.3-0.7-5.6-2.8-8c-7.9-9-15.8-18.1-19.7-29.8c-1.5-4.5-4.1-9.5,0.4-13.4c4.6-4,9.1-0.6,13.3,1.6
	c12.7,6.6,21.5,17.6,30.9,27.9c5.7,6.2,5.6,6.3,13.6,2.8c1.8-0.8,3.6-1.6,5.5-2.4c1.6-0.6,2.6-0.1,2.8,1.6c0.1,1.3,0.1,2.2-1.7,2.1
	c-4.3-0.3-4.6,3.1-4.9,6c-0.5,4.6-0.5,9.3-1.3,13.9c-6,34.1-8.3,68.7-15.5,102.5c-0.6,2.9,2.4,5.2,0.5,8.2c-1.5,2.4-2.2,5.3-3.3,8
	C1558.2,1303.2,1557.9,1303.2,1557.6,1303.2z"/>
<path class="st11" d="M1451.6,1034.2c0.5-6.7,3.2-15,3.3-23.7c0-2,1.2-3.9,3.4-4.5c2.6-0.8,4,1.1,5.4,2.8
	c6.6,8.6,12.8,17.4,17.2,27.4c2.6,5.9,6.3,11,10.6,16.1c4,4.7,9.1,9.7,9.6,16.7c0.6,7.5-2.3,14-7.1,19.7c-2,2.4-3.9,5-6.2,7.2
	c-8.6,8.5-20.5,6.1-25.1-5.1c-4.4-11-6.7-22.6-8.7-34.3C1452.9,1049.7,1451.9,1042.9,1451.6,1034.2z"/>
<path class="st11" d="M1648.9,933.2c-3.7-10.1-4.5-19.6-5.7-28.9c-1.2-9.1-2.5-18.2-2.4-27.4c0.2-13.5-1-26.9-3.6-40.2
	c-2.2-11.2,1.1-21.8,5.8-31.9c1.8-4,5.7-6.4,9-9.1c1.8-1.4,4.1-1.1,6.2-0.3c6.1,2.6,10,14.5,6.5,20c-1,1.6-1.9,3.1-2.9,4.7
	c-4.8,7.8-6.9,15.7-6.1,25.4c2.5,27.3,0.7,54.6-4.8,81.5c-0.2,1.1-0.6,2.3-0.9,3.4C1649.9,930.9,1649.6,931.5,1648.9,933.2z"/>
<path class="st11" d="M1427.2,464.3c-3.5,0.1-7.5-1.3-11-4.2c-7.3-6.1-7.6-11.6,0.1-16.8c7.5-5,12.7-11.5,16.6-19.4
	c0.9-1.9,1.7-1.9,3.3-0.9c5.4,3.4,11.3,4.8,17.6,3.8c2.7-0.4,3.9,0.7,5,3c5.6,12-5.5,32.2-18.8,33.7
	C1436.2,464,1432.2,464,1427.2,464.3z"/>
<path class="st11" d="M1655.2,653.4c0,3.1,0.2,6.3-0.1,9.4c-0.5,5.1-1.7,5.6-6.3,3c-5.8-3.2-10.1-8.1-13.9-13.3
	c-4.9-6.8-8.1-14.1-6-22.8c0.5-2.1,1.1-4.2,2.1-6.1c3-5.5,8.6-6.6,13.3-2.6c5.5,4.7,9,10.6,9.8,17.9c0.5,4.8,0.9,9.6,1.3,14.4
	C1655.4,653.4,1655.3,653.4,1655.2,653.4z"/>
</svg>
