<?xml version="1.0" encoding="utf-8"?>
<!-- Generator: Adobe Illustrator 26.0.1, SVG Export Plug-In . SVG Version: 6.00 Build 0)  -->
<svg version="1.1" id="Layer_1" xmlns="http://www.w3.org/2000/svg" xmlns:xlink="http://www.w3.org/1999/xlink" x="0px" y="0px"
	 viewBox="0 0 2860 2860" style="enable-background:new 0 0 2860 2860;" xml:space="preserve">
<style type="text/css">
	.st0{fill:#C0C3D0;}
	.st1{fill:#9498A2;}
	.st2{fill:#DED2BD;}
	.st3{fill:#9D9683;}
	.st4{fill:#F5ECDD;}
	.st5{fill:#3B3930;}
	.st6{fill:#39372E;}
	.st7{fill:#86816B;}
	.st8{fill:#87826D;}
</style>
<path class="st0" d="M1334.3,2053.2c22.6,0,37.8-0.3,53,0c97.4,2.1,194.9,0.1,292.4,0.9c22.6,0.2,45.1,2.1,67.5,4.7
	c13.7,1.6,27.5,2,41.2,3.4c18.1,1.7,36.2,4,54.4,5.7c19,1.8,37.9,4.1,56.6,8.2c27.7,6.1,54.5,14.7,80.3,26.5
	c30.8,14,58.7,32.6,84.3,54.6c38.4,32.9,71.4,70.5,97.1,114.3c13.3,22.7,23.5,46.7,27.2,72.9c4.9,34.4-3.2,65.7-24.2,93.5
	c-12,15.9-26.2,29.8-43.2,40.3c-13.1,8.1-23.8,19.1-36,28.3c-17.9,13.4-37.2,24.5-56.3,35.9c-22.2,13.3-45.3,24.7-68.6,35.8
	c-37.1,17.7-75,33.4-113.5,47.9c-31.3,11.9-62.7,23.1-94.5,33.5c-51.6,16.9-103.8,32.1-156.6,44.9c-32.4,7.9-65,14.8-97.7,21.2
	c-3.7,0.7-7.6,1-11.4,1.2c-14.1,0.5-28.3,0.4-42.4,1.2c-20.5,1.2-40.9,0.7-61.4,0.9c-25,0.3-49.7-2.4-74.4-5.8
	c-23.3-3.2-46.6-6.9-69.7-11.4c-35.2-6.8-69.9-16-104.4-25.6c-28.6-8-57.2-16.1-86.2-22.6c-13.6-3.1-26.3-9.3-39.3-14.3
	c-36-13.9-71.7-28.4-107.1-43.7c-20.6-8.9-41.1-18.1-61.4-27.7c-24.3-11.4-48.3-23.2-72-35.8c-35.6-18.9-70.4-39.2-102.6-63.5
	c-24.8-18.7-47.7-39.4-64.5-65.9c-14.8-23.3-21.6-48.6-18.9-76c2.7-27.6,14.6-51.5,31-73.5c22.2-29.7,51.1-51.6,82.5-70.6
	c41.8-25.2,86.6-43.9,132.4-60.2c36.9-13.2,74.1-25.6,112.3-34.7c22.1-5.2,44.5-8.9,66.9-12.9c12.1-2.1,23.8-6.2,35.7-9
	c19.5-4.6,39.4-7.4,59.3-9.9c24.4-3.1,48.8-5.4,73.3-7.1c17.1-1.2,34.1-2.3,51.2-3c19.6-0.9,39.2-1.2,58.8-2.1
	C1304.2,2053,1323,2053.7,1334.3,2053.2z"/>
<path class="st1" d="M1443.3,2590.1c-34.5-0.8-64.6-4.4-94.8-8.6c-39.1-5.4-74.8-20.4-110.4-36.6c-52.1-23.8-100.9-53.5-150.6-81.6
	c-45.4-25.7-89.7-53-133.7-81c-8.6-5.5-14.1-14.1-20.7-21.4c-6.1-6.8-11.9-13.9-18.1-20.6c-1.9-2-2.4-3.8-1.2-6.2
	c0.1-0.3,0.3-0.6,0.4-0.9c2.4-9.7,7.8-14.9,18-18.3c28-9.4,53.1-24.4,76.3-42.7c1.2-0.9,2-2,3.9-1.5c7.2,2.1,14.3,4.3,21,7.8
	c2.6,1.4,3,3,1.2,5.1c-2.9,3.4-5.6,7.2-9.1,10c-8.2,6.5-14.2,15.6-23.6,20.7c-2.1,1.1-1.4,2.5-0.1,3.5c1.6,1.2,3.3,2.2,5.1,3.1
	c57,27.1,114.4,53.3,172.1,78.8c15.2,6.7,30.5,13.5,45.2,21.2c12.7,6.6,26.2,9.5,40.1,11.2c23,2.8,46.1,4.6,69.2,4
	c41.8-1.1,83.2-5.8,124.4-13.3c70.9-12.9,139.8-33,208-55.9c34.1-11.4,68.3-22.4,103.7-29c17.2-3.2,34.5-5.7,52-5.5
	c2.5,0,5,0.2,7.4,0.6c2.7,0.5,4.7-0.2,6.7-2.2c5.2-5.3,11.9-7,19.1-8.8c7.9-2,12.8,0.2,18.3,5.4c4.9,4.6,11.5,6.6,18.1,8
	c3.2,0.7,5.3,2.3,6.9,5.1c4.7,8.4,6.3,17.4,5.3,27c-0.3,2.5-1.6,4.2-3.7,5.6c-12.6,8.4-25.1,16.9-37.9,25.1
	c-4.3,2.8-9.3,4.5-13.8,6.9c-20.2,10.3-40.2,20.9-60.5,31c-30.7,15.2-61.8,29.8-92.5,45.1c-48.3,23.9-97.1,47-144.3,73.3
	c-22.7,12.7-47.3,20.3-71,30.6c-2.3,1-4.7,1.6-7.2,2C1461.5,2588.6,1450.6,2590.8,1443.3,2590.1z M1395.1,2487.2
	c5,2,8.8,1.7,12.6,1.8c27.1,0.2,54.2-1.3,81.3-2.7c23-1.2,45-6.4,66.7-13.7c28.7-9.8,56.5-21.7,84.4-33.4
	c12.3-5.2,24.5-10.7,36.7-16C1585,2451.9,1492.4,2477.1,1395.1,2487.2z"/>
<path class="st2" d="M1841.5,1661.2c0,7,0,14,0,21c0,3.4-0.3,6.6-1.4,9.8c-1.9,5.5,0.1,11,5,14.1c5.6,3.6,9.3,9.1,13.5,13.9
	c16.5,18.7,32.5,38,51.3,54.4c8.4,7.3,8,16.1,9.4,24.9c0.6,4-3.1,6.3-6.4,7.4c-10,3.3-17.7,10.5-27,14.9c-3.8,1.8-5.7,4.8-4.5,10.1
	c3.6,15.9,0.1,31-9.1,44.1c-9.8,14-20.7,27.3-35.5,36.6c-7,4.4-14.4,7.5-22.2,10c-3.6,1.1-5.4,2.7-2.8,6.3c1.2,1.7,1.1,3.5,0.6,5.3
	c-2.6,8.9-3.1,18-2.8,27.1c0.3,8.3-1.4,16.6-0.8,24.9c1.5,19.5,0.3,38.9,0.8,58.4c0.3,9.8,0.9,19.6,0.8,29.4
	c-0.1,14.9-0.6,29.7-0.9,44.6c0,2.3-0.8,4.1-2,6c-2.8,4.9-5.6,9.8-8.2,14.8c-1.7,3.4,0.8,7.8,5.8,9.3c6.3,2,12.8,4.5,19.3,4.9
	c9.6,0.6,14.9,6.7,19.9,13.3c6,7.9,9.2,17.2,11.6,26.8c0.8,3.1-0.1,6.1-0.7,8.8c-1.2,5.7,0,11.2,0.2,16.8c0.1,3,1.7,4.3,4.7,4.8
	c5.6,0.8,11.1,2,16.6,3c2.4,0.4,2.8,2,2.7,4c-0.4,9.5-0.2,19-1.3,28.4c-1,8.6-1.1,17.2-1.5,25.8c-0.7,15.3-0.2,30.7-0.3,46
	c-0.1,7.6-0.6,15.3-0.8,22.9c-0.1,2.3-1.2,3.7-2.8,5c-6.8,5.4-14.3,9.7-22.2,13.3c-28,12.9-55.2,27.3-82.9,40.9
	c-31.2,15.4-62.2,31.1-93.9,45.3c-32.3,14.5-65,28.1-97.9,41.3c-21.1,8.5-42.3,17-63.4,25.5c-6.2,2.5-10.9,7.6-17.6,9.2
	c-2.4,0.6-4.8,1.3-7.3,1.3c-20.6-0.4-41.3-0.4-61.9-1.2c-19.8-0.8-39.5-1.3-59.3-2.1c-14.7-0.6-29.3-0.5-43.9-0.5
	c-5.2,0-9.2-2.8-13.5-4.7c-35.6-15.4-71.1-30.9-106.4-46.7c-14.7-6.6-28.9-14.5-43.8-20.6c-15-6.1-29.2-13.7-43.7-20.7
	c-17.6-8.4-35.3-16.3-53.2-24.1c-11.8-5.1-22.1-13-32.9-19.7c-23.6-14.7-47.4-29-72.1-41.7c-2.4-1.2-4.5-3.1-7-3.8
	c-7.1-2-8.1-7.3-8.1-13.4c0-10.2-0.1-20.3,0-30.5c0.3-24.1-1.9-48.1-3.1-72.2c-0.2-4.8,0.6-7.2,6.2-7.5c4.5-0.2,9-2.1,13.6-2.6
	c2.8-0.3,4.1-1.9,4.2-4.6c0.2-5.6,1.6-11.1,0.1-16.8c-1.8-6.9,0.4-13.4,2.8-19.8c3.7-10,9-18.9,17.5-25.5c2.4-1.9,5.1-2.9,8.2-3.2
	c7.6-0.9,15-3,22.2-5.4c5.7-1.9,6.6-6,4.2-11.3c-2.3-4.8-4.9-9.4-7.7-13.9c-0.9-1.4-1.1-3.1-1.2-4.8c-0.3-15-1.2-30.1-0.8-45.1
	c0.8-26.6,0.2-53.3,1.1-79.9c0.5-14.3-0.9-28.5-0.4-42.8c0.2-4.6-1-9.2-1.9-13.7c-0.6-3.3-1.6-6.2,0.5-9.5c1.8-2.7-0.4-4-3-4.8
	c-10.4-3.3-20.6-7.3-28.8-14.5c-16.6-14.5-32.4-29.8-38.1-52.3c-2-7.8-2.9-15.9-0.5-23.6c1.6-5.3-0.3-8.7-4.3-10.7
	c-8.2-3.9-15-9.9-23.3-13.5c-10.3-4.5-10.3-4.6-9.3-15.7c0.6-6.6,2.2-12.1,7.9-17.3c18.8-16.9,35.2-36.2,52-55.2
	c4.8-5.4,9.1-11.3,15.5-15.4c4.3-2.7,4.4-8,3-12.6c-1-3.3-1.4-6.5-1.4-9.8c0-15.2,0.1-30.3-0.1-45.5c0-3.9,1-5.4,5.3-5.8
	c18.4-1.5,36.4-5.5,54.2-10c16.1-4,32.7-5.4,49-7.9c18-2.7,36.1-5.2,54.1-7.7c15.3-2.1,30.5-4.1,45.8-6.3
	c19.2-2.8,38.4-5.6,57.5-8.5c18.7-2.8,37.3-5.7,56-8.5c14.2-2.2,28.5-4.3,42.8-6.3c14.3-2,28.6-3.8,42.9-5.6
	c7.1-0.9,14.1-1.9,21.2-2.7c8-0.9,15.8,1.2,23.7,2.1c14.8,1.7,29.6,3.6,44.3,5.7c14.4,2,28.8,4.3,43.3,6.4c18.7,2.8,37.3,5.7,56,8.5
	c14.2,2.2,28.5,4.3,42.8,6.4c15.4,2.2,30.8,4.4,46.2,6.6c17.4,2.4,34.8,4.8,52.2,7.3c15.4,2.2,30.8,4.7,46.2,6.5
	c15.5,1.9,30.5,6.4,45.8,9.5c10.3,2.1,20.6,3.6,31,4.6c3.7,0.3,4.9,1.6,4.8,5.2C1841.4,1644.5,1841.5,1652.9,1841.5,1661.2
	C1841.5,1661.2,1841.5,1661.2,1841.5,1661.2z"/>
<path class="st3" d="M1316.8,1924.9c-1.8-7.1-7.6-9.3-13.7-10.7c-10.7-2.4-21.4-4.5-32-7.4c-33-9-65.4-20.6-99-27.2
	c-77.2-15.1-152.7-37.6-229.4-54.5c-8.1-1.8-15.3-5.4-21.9-10.3c-4.5-3.2-9.2-5.9-14.4-7.8c-6.4-2.4-7.9-5.1-6.8-11.8
	c0.6-4.1,1.2-8.2,1.9-12.3c0.4-2.5,1.3-3.4,4.1-2.1c29.2,14.2,60.4,22.4,91.8,30.3c63.1,15.8,126.1,32,189.5,46.4
	c35.8,8.1,71.8,15.7,107.8,23.3c4.4,0.9,8.9,0.8,13.4,1.3c2.1,0.2,2.7-0.5,3-2.7c2.3-18.6,6.6-37,9.3-55.5
	c1.8-12.1,2.5-24.4,4.5-36.6c1.2-7.5-2.5-10.5-9.8-12.2c-11.8-2.8-23.4-6.4-35-9.8c-32.1-9.3-65.1-15.2-97.6-22.9
	c-51.3-12.1-103-22.6-153.9-36.1c-15.8-4.2-31.4-8.6-46.7-14.5c-3.3-1.2-4.7-2.8-4.7-6.5c0.1-15,0-30,0-45c0-4.5,1.5-5.7,5.2-4.5
	c26,8.5,52.7,14.1,79.4,19.5c70.4,14.1,141.2,26.9,211,44.2c28.6,7.1,57.7,11.8,86.7,16.4c7.6,1.2,15.6,0.5,23.4,0.1
	c27.1-1.5,54.2-3.3,81.4-2.5c22.8,0.7,44.8-1.9,66.8-8.1c42.6-11.9,86.1-20.1,129.2-30.1c58.5-13.6,116.9-27.3,175.6-39.9
	c5.9-1.3,5.9-1.3,5.9,4.7c0,13.5,0,27-0.1,40.5c0,4.2-0.1,8.2-1.5,12.3c-1.7,4.6,1,10.2,5,13.2c8.3,6.1,13.9,14.7,20.8,22.1
	c8,8.5,15.7,17.3,23.5,25.9c4,4.5,4.1,4.5-1.9,6.6c-29.9,10.2-59.9,20.4-89.9,30.4c-67.4,22.4-135.6,42.6-203.3,64
	c-17,5.4-33.9,11.1-49.8,19.1c-2.7,1.3-5.3,2.8-7.5,4.9c-4.1,4.1-1.9,8.2-0.1,12.3c1.5,3.6,4.3,2,6.8,1.9
	c33.5-2.2,65.4-11.9,97.4-20.9c61.5-17.2,122.3-36.8,183-56.9c9.3-3.1,18.9-5.2,28.6-6.9c19.8-3.5,37.6-12.1,55.3-21
	c9.5-4.7,9.5-4.7,10.9,6c1.2,9.2,0.2,10.9-8.8,14.4c-9.2,3.6-16.6,10.3-25.4,14.7c-3.2,1.6-4.1,4.2-3,8.3
	c3.4,13.1,1.5,26.2-5.1,37.7c-11.5,20-26,37.5-47.3,48c-4.9,2.4-10.1,4.3-15.3,6c-2.9,1-4.2,2.4-2.4,5c2,2.9,1.3,5.5,0.5,8.5
	c-1.6,6-2.1,12.1-2.2,18.3c-0.6,32.6-0.4,65.3,0.4,97.9c0.3,13,0.5,26,0.2,39c-0.2,7.4,0.2,14.8-0.3,22.2
	c-0.4,5.7-1.6,10.6-4.9,15.3c-2,2.8-3.7,5.9-4.8,9.2c-1.4,3.8-4.1,5.2-7.5,6.4c-48,17.1-94.6,37.8-142,56.4
	c-37.2,14.6-74.5,28.7-111.7,43.3c-10.5,4.1-21,8.4-30.5,14.8c-1.5,1-3.1,2-4.4,3.3c-2,2-3.1,4.5-1.9,7.3c1.2,2.8,3.4,4.5,6.6,4.6
	c3.3,0.1,6.2-1,9.2-2.1c41.7-15.9,82.4-34.1,123.2-52.3c51.8-23.1,103.6-46.4,155.4-69.6c3.6-1.6,6.9-2.1,10.9-0.9
	c7.1,2.2,14.3,4.3,21.8,5.1c4.5,0.5,7.8,3.8,10.7,6.9c8,8.6,12.6,19.1,15.6,30.3c1.1,4.3-0.1,8.6-0.3,12.9c-0.1,2.5-0.9,5.2-0.3,7.4
	c1.6,5.6-1.1,7.8-5.8,9.9c-43.3,19.3-86.6,38.7-129.6,58.8c-48.6,22.7-96.6,46.5-144.7,70.1c-18.3,9-37.9,15.5-56.8,23.1
	c-9,3.6-17.3,8.6-25.7,13.4c-1.2,0.7-2.2,2.4-3.9,1c-1.7-1.4-0.8-3,0.1-4.5c1.3-2.1,1.2-4.4,1.2-6.8c-0.1-28.8-0.2-57.7-0.3-86.5
	c0-6.2-1.2-12.2-3-18.1c-0.9-3.1-3.2-3.1-5.5-3.1c-7.5-0.3-15-0.8-22.4-0.9c-29.8-0.5-59.5-2.9-89.3-4.2c-1.8-0.1-3.7,0-5.5-0.1
	c-4.4-0.3-5.7,1.6-6.4,6c-3.6,23-2.6,46.2-2.8,69.3c-0.1,13-1.2,25.8-2.7,38.7c-0.5,4.3-2.2,5.2-6.1,3c-7.5-4.2-15.2-7.7-20.5-15
	c-1.8-2.5-4.1-4.7-7.4-5.6c-52.4-15.5-101.8-38.3-151.8-59.9c-56.1-24.2-112.7-47.1-169.6-69.5c-9.8-3.8-19.6-7.6-28.8-12.6
	c-3.5-1.9-5.9-11.1-3.9-14.4c1-1.6,2.6-1.2,4.1-1.2c8.3,0.3,16,3.1,23.7,5.6c37.3,12,73.5,26.7,109.8,41.3
	c50.7,20.4,100.4,43,150.8,64c25.8,10.8,52.3,19.7,79,28.1c4.9,1.5,9.7,3.3,14.6,5c0.3,0.2,0.6,0.5,1,0.7c0.1-0.1,0.1-0.3,0.2-0.4
	c-0.4-0.1-0.8-0.2-1.2-0.3c-6-9.6-4-20.6-4.7-30.9c-0.9-14.1-2.5-28.2-0.3-42.4c0.6-3.7-1.1-6.8-2.7-9.9c-0.5-1-0.9-1.7-2.1-1.7
	c-11.3,0-20.6-6.3-30.6-10.2c-50.2-19.3-101.5-35.4-152.3-52.9c-15.9-5.5-31.7-11.1-47.5-17c-9.9-3.6-20.2-5.5-30.1-8.9
	c-13.5-4.7-27.2-9-40.3-14.6c-5.7-2.4-10.7-7.2-15-12.1c-2.3-2.7-0.3-6.3-2.4-9.7c-2.7-4.2-5.2-8.8-7.8-14.2
	c8.7,2.1,16.7,4.3,24.4,7.2c77.2,29.5,155.2,56.9,234.8,79.4c20.9,5.9,40.5,15.1,60.7,22.5c2.5,0.9,4.6,2.7,6.8,4.1
	c6.1,3.6,12.2,0.4,12-6.6c-0.2-8,1.3-16-0.9-23.9c-1.2-4.5-4.2-7.4-8.1-9.4c-1.3-0.7-2.8-1-3.1-2.8c-1.1-6.7-3.5-13.1-3.7-20.1
	c-0.7-28.8-0.9-57.6-2.4-86.4c-0.9-17.8-2.1-35.5-1.8-53.4c0-2.7-0.2-4.4-3.6-4.3c-3.8,0.1-6.7-2.7-10.1-4
	c-18.1-6.7-37-11.1-55.6-15.8c-72.5-18.5-144.9-37.2-217-57.2c-10.7-3-21.1-7-31.6-10.8c-5.4-1.9-6.8-12.2-2.3-15.6
	c1.5-1.2,3.2-0.2,4.8,0.2c44.1,9.2,87.7,20.3,131,33c57.7,17,116.2,31.6,174.3,47.3c3.2,0.9,7.3,3.3,9.3,2.2
	c2.2-1.3-0.5-5.7-0.1-8.8c1.3-11.5-0.4-22.9-0.1-34.4c0.1-5.1-1.1-10.2-1.9-15.3c-0.3-2.1-1.8-3.3-4.1-3.7
	c-19.6-3.3-39.3-6.3-58.9-10.1c-65.1-12.7-129.6-28-193.8-44.7c-41.2-10.7-82.1-22.4-122.2-37c-0.8-0.3-1.6-0.6-2.3-0.9
	c-9.4-4-9.3-4-8.8-14.4c0.2-3.2,1.2-3.8,4.3-3.3c14.2,2.2,28,5.8,41.7,9.8c77.2,22.1,155.1,41.6,233.3,59.8
	c32,7.5,64.3,13.9,96.6,19.8c1.6,0.3,3.3,0.3,5,0.4c0.3,0.1,0.5,0.2,0.8,0.2C1317,1925.3,1316.9,1925.1,1316.8,1924.9z
	 M1514.6,1878.9c0.2-2.4-0.9-4.8-1.8-7.3c-1.5-4.2-3-8.5-4.3-12.8c-7.1-25.5-12.4-51.4-18-77.3c-0.7-3.4-1.6-5.4-6-5.2
	c-43,1.2-85.9,1.9-128.8-1c-4.7-0.3-8.1-0.8-11.8,5.2c-6.2,9.9-10.4,20-12.6,31.1c-4.6,23.7-8.6,47.4-12.9,71.1
	c-0.2,1.1,0.3,1.9,1,2.6c3.3,3.2,6.8,5.9,11.7,5.9c1.8,0,3.6,0,5.4,0.7c6.2,2.2,12.6,3.1,19.1,3.1c27,0.2,53.9-2.6,80.9-2
	c17.5,0.4,35-2.2,52.4,0c6,0.8,11.4,0.5,17-1.8C1511.5,1888.9,1514.6,1885.2,1514.6,1878.9z M1437.6,2187.9c15.8,0,31,0,46.1,0
	c2.5,0,3-1.3,3-3.4c0.2-7.8,0.6-15.6,0.7-23.4c0.8-77.4-0.4-154.9-0.8-232.3c0-0.4-0.3-0.8-0.8-2.1c-4.5,7.6-8,14.9-12.3,21.8
	c-19.1,30.1-25.2,64.1-26.8,99c-0.9,19.9-1.4,39.9-1.3,59.9c0.1,17.1,1,34.3-1,51.4C1443.4,2168.4,1443.7,2178.5,1437.6,2187.9z
	 M1357.2,1912.5c2.9,1.5,6,2.7,8.8,4.4c12.8,7.8,19.2,20.5,24.7,33.6c15,36.1,20.8,74.1,21.9,112.9c0.8,26-0.3,51.9,0.9,77.9
	c0.5,9.4,2.7,18,5.8,26.6c0.4,1.1,0.6,2.7,2.5,2.7c1.1-3.2,2.9-6.1,4-9.5c2.9-9.5,3.2-19.4,3.6-29.1c1.5-36.1-0.4-72.2,3.2-108.2
	c1.4-13.7,2.5-27.4,5.5-40.9c3.6-16.2,12.3-30.1,20.4-44.3c1.9-3.3,3.4-7,6.2-9.6c6.6-6,11.2-13.9,20.3-19
	C1441.5,1911.3,1399.4,1913,1357.2,1912.5z M1355.4,1929.4c0.9,12.2,0.7,22.9,0.5,33.6c-1.2,55.8-0.7,111.6-0.1,167.4
	c0.2,13.9-0.3,28,3.8,41.6c0.9,3,1.5,6.2,1.7,9.3c0.2,2.7,1.2,3.6,3.9,3.9c8.8,0.7,17.5,1.9,26.3,2.5c6.8,0.5,13.7,0.8,21.3-0.1
	c-4.7-5.9-7.1-12-9.5-18.3c-7.2-19-8.3-39-8.7-58.9c-0.6-25.8-0.7-51.5-4-77.2c-3.7-29-11.2-57-22.6-83.9
	C1365.2,1942.6,1361.2,1936.3,1355.4,1929.4z M1481.4,2237.8C1481.4,2237.8,1481.5,2237.8,1481.4,2237.8c-0.5-9-1.2-17.9-1.6-26.9
	c-0.1-3-0.6-3.8-4-3.3c-17,2.5-34.2,2-51.3,0.7c-18.8-1.4-37.6-1.2-56.4-2.2c-1.4-0.1-3.5-0.5-3.1,1.9c1.3,9.8,0.2,19.6,1,29.4
	c0.3,3.7,1.9,5.2,5.5,5.3c11,0.4,21.9,1.6,32.9,1.3c17.3-0.4,34.5-2,51.9-0.4c7.2,0.6,14.6,0.9,21.9,1.3c3,0.2,3.9-0.9,3.5-3.7
	C1481.5,2240.1,1481.5,2239,1481.4,2237.8z M1745.5,1978.9c-0.1-3.5,0.1-6.5-0.7-9.4c-0.8-3-2.2-5.3-5.6-5.4c-3.2,0-4.8,2.4-5.4,5.1
	c-1,4.7-1.9,9.5-2.3,14.3c-2.7,33.3,0.9,66.5,2.1,99.7c0.2,6.9,0.6,6.8-6.3,9c-53,16.8-105.6,34.5-157.1,55.3
	c-8.3,3.4-16.6,7-24.2,11.7c-1.7,1-2.9,2.4-2.3,4.5c0.7,2.2,2.6,2.6,4.5,2.3c3.3-0.6,6.5-1.2,9.7-2.2
	c60.4-18.9,118.8-42.9,176.7-68.4c3-1.3,6.6-2.2,8.9-4.4c3-2.8-0.3-6.5-0.4-9.9c-0.2-10.2,1.1-20.2,1.3-30.4
	C1745,2026.7,1743.5,2002.5,1745.5,1978.9z M1431,1749.5c15.8,0,31.6,0,47.4,0c1.5,0,2.9,0.5,3.3-1.8c1.6-9.7-8.5-19-17.8-16.3
	c-1.8,0.5-3.6,0.7-5.4,0.6c-32.5-0.4-64.9,2.2-97.3,0.2c-1.3-0.1-2.7-0.4-3.8,0.6c-1.9,1.6-5.9,14.8-4.4,16.8c2.5,3.2,6.1,0,9.1,0.5
	c0.5,0.1,1,0,1.5,0C1386.1,1749.5,1408.6,1748.7,1431,1749.5z"/>
<path class="st3" d="M1507,2527.8c0-15.8,0-31.2,0-46.5c0-6.5,0.3-13,0.5-19.5c0.2-5.7-0.1-11.3,0.8-16.9c1.2-7.4-0.9-14.5-2.2-21.7
	c-0.4-2-1.8-2.5-3.5-3.1c-12.8-4.6-25.3-4-36.6,3.8c-8.8,6.1-14.6,13.6-14.7,25.5c-0.2,21.3-1.6,42.5-7.7,63.2
	c-1.2,4.2-2.7,8.2-5.3,11.8c-5.8,8.1-15,9.2-22.5,2.6c-7.4-6.5-10.5-15.2-12.3-24.5c-3.8-19.7-8.1-39.4-11.5-59.2
	c-2.8-16.2-14.1-19.4-26.6-21.9c-6.7-1.3-13.5-1.5-20.3-2.3c-2.4-0.3-3.1,0.2-3.5,3c-4.5,34.5-2.9,69.1-2.2,103.7
	c0.1,6.5,0.2,6.5-6.2,6.6c-1,0-2-0.1-3,0c-3.7,0.6-4.8-1-4.8-4.7c-0.1-19-0.8-38-0.6-57c0.3-19.7-1.8-39.2-2.1-58.9
	c-0.1-4.1,0.4-6,5.5-6.1c10.7-0.2,21.4-2,32.2-2.2c15.7-0.4,30.4,3.8,42.8,13.8c7,5.6,7.5,14.1,8.5,22.2c2.3,18.5,4.6,36.9,7,55.4
	c0.4,3.3,1.4,6.5,2.2,9.7c0.8,2.9,2.8,4,5.7,3.6c3-0.4,3.8-2.3,4.3-5.1c1.5-8.7,1.3-17.4,0.8-26.2c-0.6-11.6,0.8-23.3,2.3-34.8
	c1.2-9.5,5.4-17.8,14.2-23.5c10.4-6.8,20.6-13.7,33.4-14.8c8.6-0.7,17.3-1.1,25.7,0.9c4.2,1,7.4,0.3,10.9-1.4
	c51-23.7,100.9-49.8,151.7-74c40.9-19.5,81.7-39,122.6-58.5c27.3-13,54.7-26.1,82-39.1c5.1-2.4,5.4-2.4,5,3.2
	c-3,39.5-2.9,79.2-3.7,118.8c0,1.7,0.1,3.7-1.6,4.5c-4.4,2-6.9,6.3-11.2,8.4c-52.7,26-105.4,52-158.2,77.8
	c-47.5,23.2-96.5,42.6-145.3,62.7C1542.1,2513.9,1524.8,2520.7,1507,2527.8z"/>
<path class="st3" d="M1252.8,1663.5c3.5-1.4,7-2.8,10.4-4.3c5.8-2.6,11.5-5.3,16.7-9c12.7-9.2,12.6-21.7-1.3-29.8
	c8.9-1.5,16.9-2.9,24.9-4.2c2.5-0.4,4.9-0.7,7.4-1.2c6.5-1.3,10.1-5.9,9.1-11.6c-0.9-5.6-5.8-9-12.3-8.2c-6.6,0.9-13.1,2.1-19.7,3.2
	c-19.5,3.2-39,6.6-58.6,9.7c-6,0.9-10.8,4.2-15.9,6.9c-2.2,1.2-3.2,3.5-2.6,6c0.7,2.9,3.2,4,5.7,5c10.7,4.5,22.4,4.7,33.5,7.1
	c4.9,1,9.8,2,15.2,3.1c-3.1,3.2-6.7,4.4-10.1,5.8c-9.7,3.9-19.6,7.4-29.4,11.3c-2.9,1.1-5.8,2.5-8.5,4.2c-3.1,1.9-5.9,4.5-5.8,8.2
	c0.2,5.6-2.6,4.5-6.2,3.9c-20.9-3.9-37.5-15.4-53.5-28.6c-7.9-6.5-15.1-14.1-24.9-18.2c-1.7-0.7-3.1-2.5-4.4-4
	c-2.1-2.7-4.1-5.9-2.8-9.1c1.1-2.6,4.7-1.8,7.2-2.2c43.3-6.4,86.6-12.6,129.8-18.9c40.5-5.9,80.8-12.8,121.5-17.4
	c9.2-1,18.4-2.7,27.7-3.6c7.8-0.8,15.6,1.2,23.3,2.1c23.8,3,47.5,6.2,71.2,9.6c27.3,4,54.6,8.4,81.9,12.5
	c28.8,4.3,57.6,8.4,86.4,12.5c31.1,4.4,62.2,8.7,93.8,13.2c-2.9,4.4-6.8,6.8-10.9,8.7c-12.3,5.8-25.4,9.2-38.9,10
	c-23.3,1.3-46.6,1.9-69.8,4.3c-25.1,2.6-50.2,5.3-75,10.3c-9.3,1.9-18.9,1.3-28.3,2.9c-13.2,2.2-25.9,5.9-38.9,8.6
	c-22.5,4.7-45.4,6.8-68.3,8.9c-24.2,2.2-48.5,3.2-72.9,2.8c-13-0.2-26-1.2-39-0.7c-3.8,0.1-6.6-2.8-10.4-3.1
	c-13.6-1.1-27.2-2.5-40.7-3.7c-5.4-0.5-10.9-0.9-16.3-1.4C1253,1664.3,1252.9,1663.9,1252.8,1663.5z"/>
<path class="st3" d="M1028.6,2096.6c-0.7-17.4-1.3-34.7-2.1-51.9c-0.9-19.8-1.1-39.6,1-59.4c0.3-2.6,0.3-5.4,3-7
	c1.2-0.7,0.7-1.6,0.6-2.6c-0.4-5.5,2.1-8.4,7.6-8.8c5.6-0.4,10.9,1.1,16.1,2.8c32.4,10.7,64.6,21.6,97,32.2
	c43.9,14.4,88.7,25.5,133.2,38.1c8.3,2.3,16.4,4.8,24.1,8.9c3,1.6,3.8,4.5,4.5,7.4c2.5,10.7,2.1,21.5,1.7,32.3
	c-0.4,12.1-1.3,24.2-1.5,36.4c-0.2,15.3-1.3,30.6-3,45.8c-0.2,1.6,1.3,5-1.8,4.5c-2.9-0.4-6.9-0.1-7.6-4.9
	c-0.7-5.6-1.7-11.2-1.8-16.8c-0.3-11.6,1-23.3-0.8-34.9c-2.4-14.7-1.7-29.6-0.5-44.3c1.1-12.5,1.4-11.9-10.6-15.6
	c-59.2-18.4-119.5-33.1-177.6-54.9c-20.2-7.6-40.5-14.1-61.5-18.3c-1.9-0.4-4-0.4-5.9-0.5c-1-0.1-2,0.1-3,0
	c-1.5-0.3-1.8-3.8-3.6-2.2c-1.5,1.3,0,3.8,0.3,5.7c2.9,19.5,3.5,39.1,3.3,58.8c-0.1,14.3-0.1,28.6,0,43c0,3.4-0.4,5.3-4.5,4.8
	C1033.2,2094.9,1031.1,2096,1028.6,2096.6z"/>
<path class="st4" d="M900.7,1782.1c6.1-5.9,12.1-11.8,18.2-17.7c1.5-1.5,3.1-1.2,5.1-0.8c22.9,4.3,45.6,10,68.3,15.2
	c48.4,11.1,96.9,22,145,34.5c35.9,9.3,71.6,19.5,107.4,29.3c16,4.4,32.3,7.1,48.7,9.5c5.4,0.8,10.5,2.6,15.4,5.3
	c3.4,1.9,4.8,4.5,3.7,7.7c-1.6,4.8-1.5,9.8-2.8,14.6c-0.9,3.6-3,5.1-6.7,5.3c-6.7,0.3-13.3-0.3-19.8-1.2
	c-30.4-4-60.1-11.5-89.7-19.2c-34.6-9-69-18.8-103.8-27.1c-46-11-92.2-21.7-138-33.6c-13.6-3.5-27.3-7.2-40.3-12.6
	c-4.1-1.7-7.2-4.6-10.6-7.3C900.7,1783.4,900.7,1782.7,900.7,1782.1z"/>
<path class="st4" d="M1402.6,2406.9c-0.6-3.1-3.1-1.9-4.9-1.9c-20-0.1-39.9,0-59.9-0.1c-2.2,0-4.9,1-6-2.1c-0.9-2.6,0.8-4.3,2.4-6.1
	c6.1-6.8,12.6-13.3,16.2-21.8c0.7-1.6,1.4-1.8,3-1.6c16.3,2.4,32.7,2.8,49.1,2.7c26.6-0.2,53.3,0,79.9-0.1c4,0,7,0.8,9.2,4.5
	c2.9,4.7,7.1,8.3,11,12.1c1.6,1.5,2.9,3.2,3.8,5.2c2.8,6,1.5,8.2-4.9,8.2c-28.5,0-56.9,0-85.4,0c-1.9,0-4-0.8-5.7,1
	C1407.9,2406.9,1405.2,2406.9,1402.6,2406.9z"/>
<path class="st4" d="M1841.3,1639.1c1.2,4.8-1.2,6.6-5.5,8.6c-15.5,7.2-32.4,9.6-48.6,14.5c-22.7,6.9-45.4,13.7-68.5,19
	c-50.5,11.6-100.9,24-151.1,36.9c-20.2,5.2-40.5,10.3-60.3,16.9c-3.5,1.2-6.5,1.2-9.9-1c-5.6-3.6-11.4-6.8-17.3-9.9
	c-3.2-1.7-6.9-2.1-10.6-2.1c-21,0-42-0.2-63,0.1c-11.8,0.1-23.6-0.8-35.4-1c-7.8-0.2-15.8-0.2-22.2,5.1c-7.8,6.4-16.1,4.3-24.5,2.3
	c-21.2-5.2-42.3-11-63.7-15.7c-24.3-5.3-47.9-13.3-72.2-18.7c-37.6-8.4-75.3-16.6-113-25c-20.4-4.5-40.8-8.8-60.9-14.2
	c-10.1-2.7-20.3-4.4-30.3-7.4c-7.7-2.3-9.7-6.1-7.7-13.8c0.5-1.8,1.5-2.4,3.2-2.5c22.8-2.1,45-7.8,67.3-12.5
	c12.4-2.7,25.2-3.7,37.8-5.5c15.7-2.2,31.4-4.5,47.1-6.7c15.1-2.1,30.1-4.2,45.2-6.3c17-2.4,34-4.9,51-7.4
	c14.9-2.2,29.8-4.4,44.6-6.6c13.4-2,26.8-4.3,40.2-6.3c13.2-2,26.5-3.8,39.8-5.7c14.6-2,29.2-3.7,43.7-5.9
	c11.2-1.7,22.1-0.2,33.1,1.1c11.8,1.4,23.6,3.1,35.4,4.8c15.2,2.1,30.4,4.3,45.6,6.6c16.4,2.4,32.7,5,49,7.4
	c14.2,2.2,28.4,4.3,42.7,6.4c12.9,1.9,25.8,3.7,38.8,5.6c15.2,2.2,30.4,4.4,45.6,6.6c12.8,1.8,25.5,3.8,38.3,5.4
	c24.1,3,48.2,6.3,71.8,12.3c12.5,3.2,25.3,5.3,38.1,6.4C1841.4,1631.3,1842.2,1634,1841.3,1639.1z"/>
<path class="st4" d="M1321.7,2404.9c-8,0.5-13-4.7-19.3-6.8c-6.5-2.1-12.9-4.5-19-7.5c-32.8-15.9-68.3-25.5-100.6-43.2
	c-31.3-17.1-65.7-28.2-97.1-45.5c-29-16-60.2-27.3-90-41.6c-16.1-7.7-31.9-15.9-47.8-23.9c-2.4-1.2-4.7-2.4-7.1-3.5
	c-1.5-0.7-2.3-1.9-2.1-3.6c0.3-1.8,1.6-2.2,3.2-2.5c5.7-0.9,11.4-2,17.1-3c1.4-0.3,2.9-1,3-2.3c0.7-4.7,3-3.2,5.9-2.1
	c16.4,6.1,32,13.9,47.8,21.2c20.7,9.5,42.2,16.9,63.1,25.8c21.4,9.1,42.6,18.7,64.6,26.3c33.6,11.7,65.6,27.2,98.5,40.6
	c18.6,7.6,37.3,14.9,56.1,22.1c12.2,4.7,24.9,8.2,37.4,12.3c7.1,2.4,7.4,4.3,2.9,10c-4.2,5.2-7.5,11-10.2,17.1
	c-0.4,0.9-0.5,1.9-0.5,2.9C1328.3,2404.4,1327.8,2405,1321.7,2404.9z"/>
<path class="st4" d="M1341.6,2295.4c-11.1-5.6-21-9.2-31-12.9c-24.9-9.2-49.7-18.7-74.8-27.5c-37-12.9-74.3-24.9-111.3-38
	c-29.7-10.6-59.2-21.7-88.5-33.5c-15.5-6.3-30.3-14.5-45.3-21.9c-1.7-0.8-3.4-1.7-2.9-4c0.4-2,1.8-3,3.8-3.5
	c7.3-1.7,14.5-3.4,21.7-5.4c2.4-0.7,4.5-0.4,6.7,0.5c16,6.5,32.2,12.4,48.4,18.4c42.1,15.8,84.6,30.4,126.4,46.9
	c29.5,11.6,60,20.6,90.1,30.5c14,4.6,28,9.3,42.2,13.7c5.1,1.6,8.1,6.3,13.3,7.5c1.3,0.3,1.3,1.9,1.1,3
	C1340.2,2277.4,1338.2,2285.6,1341.6,2295.4z"/>
<path class="st4" d="M1417.6,1896c-27.2,0-54.3-0.1-81.5,0.1c-3.9,0-7.6-0.5-11.4-1.2c-5.1-0.9-7.7-4.5-7.1-9.7
	c1.5-12.2,4.2-24.1,8-35.8c1.8-5.5,4.5-6.6,10.2-5.5c14.3,2.9,28.7,4.3,43.3,5.3c20.1,1.3,40.1,2.5,60.2,1.8
	c19.2-0.6,38.2-3.2,56.9-8c5.7-1.5,10,1.4,11.7,7c3.2,10,4.3,20.4,7.5,30.4c3.5,11.1-2.1,15.3-12.5,15.5
	C1474.5,1896.4,1446,1896,1417.6,1896C1417.6,1896,1417.6,1896,1417.6,1896z"/>
<path class="st4" d="M1312.6,2190.4c0,7.5-4.8,10.4-11.8,7.7c-13.5-5.2-26.3-11.8-40-16.7c-20.2-7.2-40.5-13.8-61-20.2
	c-20.7-6.5-41.6-12.5-62.4-18.8c-20.2-6.1-40.3-12.2-60.4-18.6c-9.5-3-18.7-6.8-28.1-10.2c-4.1-1.5-8.2-2.6-12.6-2.7
	c-4.7-0.1-9.7-9.5-7.5-13.7c1.1-2.1,2.8-1,4.3-0.5c9.9,3.2,19.7,7.3,29.9,9.3c39.3,7.7,77.1,20.8,115.3,32.3
	c29.4,8.9,58.7,18,87.3,29.3c12.6,4.9,26.1,7.4,39.6,9.3c3.4,0.5,5.8,2,6.2,5.4C1311.8,2185.2,1313.1,2187.8,1312.6,2190.4z"/>
<path class="st4" d="M1487.6,2278.8c0.1,5.7-0.9,6.4-6.8,5.4c-4.7-0.7-9.6-0.7-14.4-1.1c-16.7-1.4-33.4-1.9-50.1-3.3
	c-13.4-1.1-26.8-2-40.2-1.9c-5.5,0-11,0.3-16.3,1.6c-2.2,0.5-3.1-0.2-3.8-1.9c-2-5,3-12.2,8.2-11.5c13.9,2,27.9,0.6,41.9,0.8
	c14.5,0.2,28.9,1,43.4,1.4c9.9,0.2,19.9,0.7,29.7,1.7C1483.8,2270.5,1487.5,2274.3,1487.6,2278.8z"/>
<path class="st3" d="M1762.1,1617c-16.1,21.6-37,34.5-63.2,37.6c-17.7,2.1-34.8,7.4-52.4,9.7c-14.5,1.9-29.1,3.1-43.7,3.6
	c-25.2,0.8-50.3-0.9-75.4-0.9c-33.5,0-66.8,2.8-99.9,7.6c-29.3,4.2-58.7,7.6-88.1,10.6c-24.8,2.5-49.7,4.5-74.7,4.5
	c-49.2,0-97.3-8.1-144.4-22.1c-23.7-7.1-47-15.5-69.8-25.2c-6.6-2.8-12.8-6.5-16.4-13.2c-3.3-6.1-2.8-7,3.8-8.6
	c17.8-4.4,36.1-5.7,54.2-8.4c25.2-3.7,50.4-7,75.6-10.6c30.4-4.4,60.9-8.9,91.3-13.4c25.3-3.8,50.6-7.9,76-11.5
	c22.2-3.1,44.5-5.4,66.7-8.7c12-1.8,23.5,1.3,35.1,2.6c21.3,2.4,42.5,5.5,63.7,8.6c27.1,4,54.2,8.4,81.4,12.4
	c29.3,4.3,58.6,8.5,87.9,12.6c24.9,3.5,49.7,7,74.6,10.5C1750,1615.5,1755.9,1616.2,1762.1,1617z"/>
<image style="overflow:visible;enable-background:new    ;" width="780" height="1529" xlink:href="2D0BFA43.png"  transform="matrix(1 0 0 1 1059 136)">
</image>
<path class="st5" d="M1462,210.1c6,3.8,11.5,8.3,15.1,14.6c0.6,1,1.5,2.1,0.6,3.2c-0.8,1.1-2.2,0.7-3.2,0.4
	c-7.1-1.7-14.2-3.4-21.2-5.3c-4.6-1.3-7.6-3.9-6.4-9.4c0.2-1.1,0.1-2.3,0.1-3.5C1452,210.1,1457,210.1,1462,210.1z"/>
<path class="st6" d="M1400,869.3c-9.1-1-17.8,0.9-26.3-1.3c-7.6-1.9-15.1-4-21.8-8.3c-1.8-1.2-3.6-2.5-5-4.1c-2.3-2.6-2.2-6.1-1.2-9
	c0.9-2.6,4-2.6,6.5-2.6c15.7,0,31.3,0,47,0c3.4,0,7.4,2.8,10.1,0.2c2.3-2.2,2.6-6.4,4.3-9.4c2.6-4.5,1.8-7.3-2.3-10.7
	c-10.2-8.4-20.6-16.4-31.7-23.5c-5.3-3.4-8.6-7.3-7.7-14.2c0.6-4.8,0.1-9.6,0.1-14.5c0-6.4,0.9-7.2,7.3-8c6.9-0.8,13.8-1.7,20.5-3.5
	c16.2-4.3,32.3-8.8,48.4-13c11.4-2.9,22.9-5.5,34.7-6.4c1.7-0.1,2.7-0.6,3.4-2.2c0.5-1.3,2-0.9,3.1-0.7c1.6,0.3,0.9,1.4,0.7,2.3
	c-9.3,35.6-0.5,68.8,13.2,101.4c5.9,14,12.6,27.6,20.1,40.7c3.2,5.6,4.2,11.9,6,17.9c17.6,59.2,34.6,118.6,48.7,178.8
	c7.6,32.4,20.4,62.6,35.4,92c3.8,7.4,2.1,14.9,1.4,22.4c-0.2,2.5-2.1,2.5-4.1,2.2c-8.2-1.4-15.3-5.6-22.4-9.4c-3.6-2-4-6.8-5.5-10.4
	c-3.3-7.9-3.2-8-11.9-8c-0.2,0-0.3,0-0.5,0c-5.6,1.1-7.7-1.7-9.3-6.7c-13-41.2-27.7-81.8-44-121.8c-4.9-12-9.7-24-14.1-36.2
	c-2.2-6.2-5.5-11.3-10.4-15.5c-12.3-10.5-24.6-20.9-36.9-31.4c-5.8-5-11.6-10.1-17.1-15.4c-2.1-2-3.5-2.1-6-0.7
	c-8.9,4.9-18,9.4-26.3,15.4c-2.7,1.9-4.6,2.4-5.5-1.6c-0.3-1.3-0.4-3.4-2.3-3.3c-1.4,0.1-1.3,2.1-1.9,3.2c-1.9,3.7-1.9,8.6-7.2,10.1
	c-1.3,0.3-0.6,2.1-0.6,3.2c0.2,5.6-1.2,10.9-2.9,16.1c-16.8,49.4-28.4,100.3-39.7,151.2c-1.3,5.8,0,11.3,1.3,16.8
	c0.8,3.5-0.1,4.7-3.8,4.5c-5.6-0.3-11.3-0.3-17,0c-3.9,0.2-4.8-0.9-5.1-4.9c-1.5-20.1,3.3-39.2,8.1-58.4c9.3-37.4,18-74.9,27-112.3
	c3.2-13.4,7.5-26.5,13-39.2c2-4.7,7-7.7,6.9-13.5c0-1.4,2.1-1.3,3.3-1.6c4.2-1.1,9.6-1.1,12.1-3.7c2.6-2.8,0.9-8.3,0.7-12.6
	C1392.5,895.8,1394.2,882.2,1400,869.3z"/>
<path class="st6" d="M1641.8,1409.9c0.8,2.7,1.1,5.4,0.8,8.2c-0.8,2.7-1.3,5.3,0.3,7.8c0.9,2.3,1,4.7,0.7,7.1
	c-0.9,1-0.9,1.9,0.1,2.8c0.5,3.9,0.7,7.8,0.3,11.7c0,3.6,0,7.3,0,10.9c0.6,2.3,0.3,4.6,0,7c-0.3,3,0.4,5.8,1.8,8.5
	c0.1,0.5,0.1,1,0.2,1.5c-0.1,1-0.1,1.9,0.8,2.5c0.1,0.5,0.1,0.9,0.2,1.4c-0.1,1-0.2,2,0.8,2.6c0.1,0.5,0.1,0.9,0.2,1.4
	c-0.1,1-0.3,2,0.8,2.6c0.2,0.7,0.4,1.5,0.6,2.2c-0.7,0.8-0.4,1.4,0.5,1.8c0.2,0.7,0.4,1.4,0.6,2.2c-0.7,1.9,0.4,3.3,1.2,4.8
	c0.1,0.5,0.2,1,0.4,1.4c-0.1,1-0.3,1.9,0.7,2.6c0.2,0.7,0.5,1.4,0.7,2.2c-0.6,1.9,0.3,3.4,1.3,4.8c0.9,1.4,1.4,2.9,1.3,4.6
	c-0.1,0.9-0.2,1.9,0.8,2.5c0.9,1.4,1.4,2.8,1.2,4.5c0.3,3.1,1.2,5.9,2.9,8.5c0.9,1,1.1,2.2,1.2,3.5c-0.5,0.5-1,1.1-1.4,1.6
	c-21.5-15.6-45.4-26.2-71.1-32.7c-3.3-0.8-7.3-2.7-10.1,2.2c-1.2,2.1-5,0.1-5-2.6c-0.1-6.7,0-13.3,0-20c0-2.3,1.1-4.1,2.2-6
	c2.1-3.8,3.8-7.9,6.5-11.2c8.9-10.7,7.1-22.9,5.3-35.1c-2.8-19.1-8.3-37.6-10.9-56.8c-2-15.4-3.1-30.8-2.6-46.3
	c0.3-9.6,4.6-13.4,14.1-14.6c9.4-1.2,18.7-2.6,28.1-3.8c12.7-1.6,20,4.6,18.2,18.1c-0.7,2-1.2,4,0.4,5.8c1,3,0.9,6.1,0.7,9.1
	c-0.9,2-1.3,4,0.3,5.9c1,2.6,1,5.4,0.8,8.1c-1,1-1,1.9,0.1,2.8c1.1,7.4,1.4,14.8,1.7,22.2c-0.8,1-0.8,1.9,0.3,2.8
	c0.2,3.4,0.4,6.9,0.6,10.3c-0.6,1.3-0.8,2.6,0.4,3.7c0.7,3.1,1.1,6.2,0.6,9.3C1640.8,1406.1,1640.3,1408.1,1641.8,1409.9z"/>
<path class="st6" d="M1338.6,1304.9c-1.3,2.8-1,5-0.8,7.4c2.6,34.4,7.3,68.5,8.5,103c0.5,14.8-0.5,29.6,0.7,44.4
	c1.4,16.6,2.3,33.2,4,49.7c0.9,8.9,5.5,17,8.3,25.5c1.4,4.2,0.5,4.7-3.6,5c-10.2,0.8-18.1-3.2-26.1-9.1c-11-8-20.6-17.3-29.3-27.6
	c-2.4-2.8-3.6-5.5-3.6-9.3c0.4-30.5,0.5-60.9-0.8-91.4c-0.7-17.6-3.2-35-10.5-51.4c-1-2.3-1.5-4.7-1.5-7.3c0.1-6.7,0.3-13.3,0-20
	c-0.2-4.8,1.9-7.9,5.9-9.3C1305.4,1309.2,1321.1,1304.5,1338.6,1304.9z"/>
<path class="st5" d="M1555.4,760.1c-4.6-2.8-6.1-7.4-7.3-12c-5.2-20.4-7.3-41.2-7.8-62.3c-0.1-4.6-0.4-8.9-2.5-13
	c-4.2-8.2-3.8-16.4,0.3-24.8c7.9-16.5,16.4-32.7,25-48.8c10-19,20-37.9,30.8-56.5c0.7-1.3,1.6-2.5,2.8-4.5c0.9,4.6-0.5,8.1-1.3,11.7
	c-3.4,16.4-7.3,32.8-12.3,48.8c-1.4,4.6-1.2,9-1,13.6c0.5,12.7-1.7,25.2-3.3,37.7c-3,24.2-6.9,48.2-11.9,72
	C1564.1,734.9,1561.6,748,1555.4,760.1z"/>
<path class="st5" d="M1189.8,570.7c1.2-8,1.3-15.3,2.7-22c1.4-6.9,7.7-12,13.4-16.3c18.3-13.8,36.4-28,56-40.1
	c2.1-1.3,4.3-2.4,7.2-3.9c-1,5.6-3.4,9.8-5.5,14c-6.9,13.5-14.9,26.4-24,38.5c-1.8,2.4-4.4,4.8-0.8,7.9c0.6,0.6,0.5,2.2,0.5,3.3
	c-0.9,30.9,4.1,61,10.8,90.9c0.2,0.8,0.3,1.5,0.5,2.7c-3.2-0.4-5.9-1.3-8.3-2.7c-3.1-1.8-4.3-1.4-5.3,2.4
	c-2.7,10.5-5.8,20.8-8.8,31.2c-0.5,1.7-0.8,3.6-3.1,4.1c-4,1-6.1-0.4-6-4.6c1.5-32.7-0.3-65.6,2.7-98.3c0.2-2.5,0.3-5,0.2-7.5
	c-0.2-7.2-4.9-10.5-11.8-8.1C1203.6,564.4,1196.6,566.2,1189.8,570.7z"/>
<path class="st5" d="M1415.7,343.3c8.4-1.7,14.9-5.9,20.7-11.3c1.8-1.6,3.1-1.4,5.3-0.9c18.4,4.4,36.3,10.8,54.6,15.6
	c4,1.1,3.9,2.8,2.9,5.5c-1.1,2.9-3.2,5.3-3.7,8.6c-0.3,1.9-3.3,1.8-5.2,2.3c-8.3,2.1-16.5,0.3-24.7-1c-16.6-2.6-32.3-7.7-46.7-16.5
	C1418,345,1417.1,344.3,1415.7,343.3z"/>
<path class="st7" d="M1346,534.1c-8.1,3.5-15.2,8.8-22.9,13c-5.7,3.1-11.5,6.1-17.7,7.9c-5.6,1.6-9.9,4.6-13.4,9
	c-1.4,1.8-3,2.8-5.5,2.8c-6.5-0.1-13-0.1-19.5,0c-2.8,0.1-3.8-1-3.7-3.8c0.1-6.5,0.2-13,0-19.5c-0.1-2.9,1.5-4.6,3.3-6.4
	c10.1-10.2,20.5-20,31.7-28.9c9.3-7.3,15.7-16.4,21.1-26.7c10.6-20,23.3-38.5,40.8-53.1c5.6-4.7,11.6-9,17.6-13.1
	c2.2-1.5,2.3-2.6,1.1-4.7c-1.4-2.5-3.1-4.7-5.2-6.6c-10.3-9.8-17-21.2-15.9-36.1c0.2-3,1-3.9,4.1-4.6c11.9-2.8,21.3,2.6,30.8,8.2
	c11.9,7,22.4,16.2,34.7,22.6c2,1,3.9,2.9,6.5,1.5c3.8-2,5.4-0.4,6.9,3.2c6.4,15.4,13.8,30.3,21.5,45c2.1,4,2.2,6.9-0.9,10.6
	c-29.1,35.8-58.6,71.3-85.4,108.9c-10.2,14.4-20.3,28.9-29.7,43.8c-0.7,1.1-1.3,2.2-1.8,3c8.6,0,17.2,0,25.7,0
	c2.4,0,3.2-1.9,2.8-3.9c-2.1-10,3.7-15.6,10.5-21.6c29.3-26.3,56.8-54.4,81.1-85.4c3.6-4.6,7.4-7,13.4-6.4c5.3,0.6,10.7,0.1,16,0.2
	c2.2,0,5.2-1.1,5.3,3.1c0.1,1.8,1.7,0.8,2.8,0.6c2.8-0.7,6.5-1.5,8.1,0.1c1.7,1.7-1,4.8-1.9,7.2c-9.6,24.4-15,50-21.3,75.3
	c-2.4,9.7-5.2,19.3-7.4,29c-2.8,12.6,2.8,20.3,16.1,22.2c-1.6,4.7-3.2,9.3-4.8,13.9c-7.6,21.8-14.8,43.8-24,65
	c-0.8,1.8-1.2,4.1-3.9,3.7c-12.9-2-24.3,3.7-36.2,6.8c-18.1,4.7-36.1,10.1-54.7,12.6c-9.3,1.2-18.6,0.4-27.9,0.3
	c-4.3,0-6.5-2.5-7.2-6.8c-3-18.5-3.4-37.1-2.9-55.7c0.2-5.4,2-7.1,7.5-7.1c18,0,36-0.4,54,0.2c9.6,0.3,19.3,0.5,28.9,0.9
	c3.9,0.1,5.7-1.2,6.8-4.7c1.3-4,3.1-7.9,5-12.5c-25.2,6.4-50,3.7-74.7,4c-13.5,0.2-20.9-5.7-23.2-16.7c-0.7-3.3-0.6-6.6,0.7-9.8
	c0.8-1.9,1.5-3.7,0.6-6.6c-6.1,9.5-11.5,18.8-16.4,28.4c-0.7,1.4-0.4,3.3-0.3,4.9c1.7,33-6.4,64.6-12.8,96.5
	c-0.2,0.8-0.4,1.6-0.7,2.4c-0.4,1.6-0.9,3.5-3,3.5c-2.5,0-2.1-2.4-2.3-3.7c-1.5-11-3-22.1-4.2-33.1c-0.4-4-1.4-7.9-2.6-11.6
	c-5.2-15.5-10.9-31.4-10.3-47.6c0.5-13.6-1.1-27.7,6.5-41c15.2-26.3,31.4-51.8,48.9-76.6C1344,538.1,1346,536.6,1346,534.1
	c0.1-0.2,0.3-0.3,0.5-0.4c-0.1,0-0.3-0.1-0.3,0C1346.2,533.8,1346.1,533.9,1346,534.1z"/>
<path class="st8" d="M1310.3,829.6c5,14.7,12,28.7,19,42.7c3,6.1,6.2,12.1,9.5,18.1c1,1.8,1.3,3.7,1.3,5.7c-0.1,5.5-0.3,11,0.1,16.5
	c0.2,3.9-1.2,4.9-4.9,4.7c-5.1-0.3-10.3-0.2-15.5,0c-3,0.1-5.4-0.8-8-2.2c-13.1-7-27.6-10.3-41.4-16.4c-0.9,9.9,0.3,18.9,1.3,28
	c3.2,27.9,5.8,55.9,4.2,84.1c-1.4,24.4-3.1,48.8-2.4,73.3c13.8-36.5,29.9-72.2,36.9-111.2c3.9,6.6,4.6,13.7,5.6,20.6
	c2,13.5,2.7,27.1,1.2,40.8c-1.1,10.4-4,20.2-7.4,29.9c-15.5,44.8-32.6,89-52,132.2c-2.1,4.7-4.8,9.1-7.5,13.5
	c-1.4,2.3-2.8,4.9-6.2,5.2c-1.3,0.1-5.5,9.7-4.9,10.9c0.9,1.8,2.6,1,4,0.9c11.7-0.6,23.2,0.8,34.5,4.1c11.3,3.3,21,9.9,30.7,16.2
	c5.6,3.7,3.8,11.3-2.5,13.7c-4.1,1.5-8.6,1.8-12.8,1.8c-18.7,0-37.8,2.9-55.8-7.1c-0.5,6.3,1.7,11.6,2.2,17.1c0,0.3,0.2,0.6,0.3,0.9
	c1,3.9-0.3,9.6,3,11.5c3.1,1.8,8.1,0.5,12.2,0.5c14.7,0.1,29.3,0.1,44,0.2c5,0,9.8,0.7,14.9,2.8c-2.3,3-5.2,4.6-8,6.1
	c-14.4,7.6-29.2,14.4-45,18.5c-3.3,0.9-6.6,0.6-9.9,0.5c-3.1-0.2-4.2,0.8-3.6,4c2.1,11.6,3.7,23.3,6.1,34.8c2,9.6-0.4,18.9-1.5,28.2
	c-2.5,19.6-1.9,39.2-1.2,58.8c0.5,14.5,0.7,29,2.4,43.4c0.2,1.3,0.9,3.2-1.3,3.7c-2.3,0.5-2.7-1.2-3.2-2.9
	c-10-35.8-24.4-70-37.1-104.9c-4-11-9.1-21.5-15.4-31.3c-1.1-1.7-1.2-3.2-0.9-5.2c2.5-13.5,6.3-26.5,11.6-39.2
	c14-33.3,24-67.7,31.5-103c8.3-39,13.3-78.4,17.4-118c2.1-20.4,4-40.7,5.6-61.1c1.4-18-2.3-35.5-3.3-53.3
	c-0.5-9.6-1.6-19.3-1.6-28.9c0-15.3-0.1-30.7-0.9-45.9c-1.3-23.3,7.7-44,12.5-65.8c2.6-11.5,6.6-22.7,10-34c0.7-2.4,0.6-5.3,5-2.7
	c2.5,1.5,6.5,0.3,9.8,0.4c4.8,0,9.7,0.1,14.5,0c3.5-0.1,5.8,1.6,6.6,4.9c2.5,10.2,1,20.6,1.2,30.8
	C1315,830.1,1311.7,828.2,1310.3,829.6z"/>
<path class="st7" d="M1190.5,1577.5c-2.6,13.6-5,26.6-7.4,39.5c-1.2,6.7-1.3,6.8-7.1,3.6c-9.3-5.2-18.4-10.7-27.7-15.9
	c-2.6-1.5-3-3.3-3.2-6c-1.5-19.4,3.6-38,6.2-56.9c4-28.1,10.5-55.6,17.5-83c1.5-5.9,2-6.3,7.3-3.5c6,3.2,12,5.7,19,4.7
	c2.9-0.4,3.6,1.8,4.8,3.5c20.2,29.4,34.1,62.1,49.8,93.8c10,20.3,9.8,20.4,29.9,33.7c7.8,5.2,15.6,10.2,23.4,15.4
	c3.5,2.3,7.6,2.4,11.5,2.7c3,0.2,1.6-2.3,1.4-3.6c-2.3-11.9-5.2-23.7-7-35.7c-1.1-7-4.4-13.2-6-20c-0.6-2.8-2.2-6.4,0.8-8.3
	c3.5-2.2,6.9,0.1,9.3,2.8c6.6,7.3,12,15.5,17.5,23.6c9.9,14.8,19.9,29.5,29.7,44.3c1.7,2.6,1.7,5.1-0.4,7.7
	c-6.3,7.8-13.6,13.5-23.6,16.5c-14.2,4.2-27.9,9.9-41.7,15.2c-9.8,3.7-18.1,2.6-26.3-4.6C1242.2,1624.3,1214.4,1603.8,1190.5,1577.5
	z M1313.4,1612.7c-2.7-0.3-5.3,0-7.5,3C1309.3,1615.7,1311.6,1614.9,1313.4,1612.7z"/>
<path class="st7" d="M1617,1604.9c8.2,0,16.3-0.2,24.5,0.1c3.8,0.2,5-0.8,4.4-4.7c-1.2-7.9-1-15.9,0-23.9c0.4-3.5,1.1-6.9,2.3-10.2
	c1.3-3.2,2.8-6.3,2.7-10c0-3.4,2.2-4.4,5-2.4c1.6,1.1,3.1,2.5,4.3,4.1c7,9.1,13.7,18.3,17.7,29.4c2.6,7.1,6.1,14,10.6,20.3
	c4,5.7,2.5,13.8-3.5,18.1c-5.1,3.7-11,4-17.1,4.2c-11.8,0.4-23.5,1.3-35.3,1.7c-12.2,0.3-24.3,0.2-36.5,0.3
	c-9.1,0-18.3,0.3-27.4-0.9c-2.8-0.4-5.1-1.3-7.2-3.1c-10-8.3-21.2-14.9-31.7-22.6c-0.9-0.7-1.8-1.4-3.1-0.9
	c-9.1,3.2-18.5,0.8-27.7,1.5c-2.9,0.2-3.5-1.7-4.1-4c-3.3-13.5-4.2-27.3-6-41c-1.8-13.4-3.6-26.7-8.2-39.5c-0.5-1.4-0.8-2.8-0.7-4.4
	c2.8-24.6,5.6-49.3,8.3-73.9c0.5-4.6,0.5-9.3,0.8-14c0.1-1.7-0.3-3.1-2.1-3.4c-3.9-0.7-4.3-3.3-4-6.6c0.3-3.6-1-6.8-2.8-9.9
	c-4.8-8.2-9.6-16.4-14.3-24.6c-3.1-5.5-3.1-5.5,3-5.5c12.4-0.1,23.7,3.5,34.9,8.7c19.8,9.3,36.3,22.7,51.3,38.3
	c2.3,2.4,4.5,4.9,5.7,8.1c1.8,4.9,0.7,6.9-4.5,7.4c-7,0.7-14-0.3-20.9-1.2c-5.1-0.7-10.1-1.8-15.1-3.1c-3.3-0.8-4.7-0.2-5.3,3.4
	c-0.9,5.8-1,11.5-0.1,17.4c2.2,13.9,0.7,27.9,1,41.9c0.1,3.2,0.6,5.8,3.3,7.8c5,3.9,8.1,9,10.6,14.8c9.7,22.3,25.6,40.4,40.5,59.2
	c5,6.3,10.2,12.3,14.4,19.1c1.8,2.9,4.1,4.3,7.8,4.1C1600.6,1604.7,1608.8,1604.9,1617,1604.9C1617,1604.9,1617,1604.9,1617,1604.9z
	"/>
<path class="st7" d="M1158.9,692c0.3,6.6,0.8,13.3,0.8,19.9c0,24.7,4,48.9,8.9,73c1.8,9,2.4,17.7-1.3,26.4c-2,4.7-3.2,9.8-4.8,14.7
	c-1.9,1.2-2.7,2.8-1.5,4.9c-6.4,25.9-17,50-30.9,72.7c-2.4,4-5,7.8-6.5,12.3c-3.4,10.2-9.6,18.5-17.3,25.8c-1.3,1.2-0.9,1.7-0.3,2.8
	c6.8,12.7,7.1,26.8,9,40.5c1.2,9,2.2,18.1,3,27.2c0.3,3.1,2.4,3.8,4.4,4.7c2.5,1.1,3.3,2.7,3.2,5.4c-0.2,5.5-0.2,11,0,16.5
	c0.1,3-1.1,4.2-4.1,4.1c-6.8-0.1-13.7,0-20.5-0.1c-4.7,0-8.5-2.8-12.6-4.5c-7.1-3.1-14.4-6-19.9-12c-2.4-2.6-4.3-5.1-4.4-8.6
	c-0.5-19.1,3-37.4,10.3-55c1.8-4.4,2.4-8.9,1.7-13.5c-0.7-5.3-0.3-10.6,0-16c0.2-3.8,3.4-2.3,5.4-2.4c2.5-0.1,5.8-1,5.9,3.2
	c0.1,2.8,0.7,4.5,4,4c1.7-0.3,2.9,0.5,3.5,2.2c0.9,2.8,3,2.7,5.1,2.4c-3.2-15.1-2.8-29.8,3-44.2c1-2.4,0.7-4.4-0.1-6.7
	c-5.1-13.2-10.3-26.3-14.5-39.9c-0.9-3-2.8-5.2-4.8-7.5c-10.3-12-16.5-26-20.9-41c-0.8-2.8-1.1-5.5-0.8-8.4c1.3-1.1,1.4-2.1-0.2-3
	c-1.2-6-1-12-0.8-18c1.4-1.7,1.4-3.3,0-5c-0.3-6.2,0-12.3,1.7-18.3c0.7-2.3,1.7-3.7,3.4-1.1c2.7,4.1,6.6,6.4,10.9,8.3
	c2.3,1,2.9,2.8,3.3,5.1c3.2,19,10.3,37.1,14.8,55.8c0.3,1.3,1,2.5,1.8,3.5c9.1,12.7,14.4,27.3,20,41.7c0.1,0.7,0.1,1.7,1.2,1.5
	c0.4-0.1,0.6-0.9,0.9-1.4c7.5-18.5,16.4-36.3,26.1-53.8c2.9-5.2,4.8-10.2,4.3-16.8c-2.8-33.6-1.4-67.1,5.7-100.2
	c0.1-0.5,0.5-0.9,0.7-1.3C1156.9,692,1157.9,692,1158.9,692z"/>
<path class="st8" d="M1716.9,972c5.2,1.3,9.6,4.5,14.4,6.6c2.2,1,4.4,1.8,6.7,1.2c4.9-1.2,9.9-0.8,14.9-1c1.4-0.1,3.8,1.1,4.1-1.5
	c0.2-2.3,1.1-5.1-1.9-6.6c-2.8-1.5-5.5-3.2-8.3-4.6c-11.8-6-22.8-13.6-35.2-18.8c-4.5-1.9-8.4-4.9-11.6-8.5
	c-4.9-5.3-10.6-9.5-16.2-13.9c-15-11.6-24.3-27.3-27.1-45.6c-2.5-15.9-9.8-28.7-19.1-40.9c-12.1-15.9-24.6-31.4-37.2-46.9
	c-0.9-1.1-2.2-2.1-2.3-3.7l-0.1,0.1c4.2,0.8,7.3,3.8,10.9,5.8c11.5,6.4,22.8,13,34.7,18.7c5.8,2.8,11.8,5.6,18.4,5.8
	c2.2,0.1,3.1,1.5,4.3,3c8.1,10.2,13.5,21.6,14.8,34.8c0.5,5.4,2.2,10.8,4.8,15.7c7.6,14.6,15.3,29.1,23.1,43.6
	c1.1,2.1,2.2,4.2,4.6,5.1c14.7,5.5,25.4,16.8,37.3,26.4c3.3,2.7,6.8,4.8,10.5,6.6c11.2,5.6,22.2,11.1,30.5,21.1
	c5.4,6.5,12.5,11.4,18.6,17.3c7.9,7.7,14.6,16.4,18.5,27c0.7,1.8,2.1,4.1,0.4,5.6c-1.7,1.5-3.8-0.2-5.5-1.1
	c-6.7-3.7-13.2-7.8-19.9-11.5c-7.7-4.2-15.6-8.1-23.4-12.1c-2.3-1.2-4.7-1-7.7-0.4c4.3,5.5,9.1,9.9,14,14.3c2.2,1.9,2.8,4,3.2,6.9
	c2.7,23.6-0.6,46.8-4.7,69.9c-0.8,4.6-1,9.3-1.5,13.9c-0.2,2.1-0.6,3.9-2.7,5c-1.9,1-3,1.1-3.2-1.6c-1.7-18.6-5.9-36.7-11.3-54.6
	c-1.5-5-2-10.1-1.8-15.3c0.2-5.3-1.7-9.4-5.4-13.3c-13.7-14.5-27.3-29.1-38.8-45.6C1719,976.8,1717,974.9,1716.9,972L1716.9,972z"/>
<path class="st8" d="M1476.4,312.7c-2.5-5.3-3.9-10.9-5.3-17.8c5.1,4.6,9.8,7.9,15.7,9.2c1.1,0.2,1.7,1.1,1.9,2.1
	c3.8,12.3,8.3,24.5,11.1,38c-4.7-2.3-7.1-5.9-9.2-9.5c-4-7-8.9-11-17.8-11.5c-10.5-0.5-20.9-3.7-31.4-5.5c-2.9-0.5-6-0.4-8.9-0.6
	c-4.9-0.4-6.8-2.8-6.4-7.6c0.3-2.6,0.2-5.4,0.9-7.9c4.7-17.1-1.7-32.5-7.3-47.9c-3.2-8.7-7.4-17-13.3-24.4c-1.6-2-3-3.2-5.7-3.1
	c-1.6,0.1-3.2-0.7-4.8-1c-3.8-0.8-4.8-2.8-4.1-6.8c1.8-9.3,3-18.7,4.3-28.1c0.4-2.6,1.8-4.5,3.6-6.4c11.4-12.3,25.7-21.1,39.1-30.9
	c1.4-1.1,3.1-1.2,4.8-1.2c8.3-0.3,16.6-0.6,25-0.6c5.6,0,9.2,3.2,9,8.8c-0.7,17.4,5.1,33,11.8,48.5c1.5,3.5,1.2,4.3-2.8,4.4
	c-5.9,0.2-11.1-1.3-14.9-5.7c-9.6-11-33.5-8.1-43.6-2.1c-2.6,1.5-0.9,2.7,0,3.9c5,6.7,9.2,13.8,12.5,21.5c5,11.5,7,23.7,8,35.8
	c0.7,9.3-3.6,18.4-7,27.3c-2.4,6.5-2.6,7.1,4.1,7.2c10.2,0.2,17.7,6,25.8,10.9c1.3,0.8,2.6,1.4,3.9,2.1c0.4,0.1,0.9,0.5,1.1,0.4
	C1477.1,313.7,1476.8,313.2,1476.4,312.7z M1477.4,315.4l0.2,0.2l0.1-0.2L1477.4,315.4z"/>
<path class="st8" d="M1535.9,1279.3c0.5,1.2,0.7,2,1.1,2.7c8.3,13.9,11.2,29.4,12.8,45.1c1.4,12.9,2.6,25.8,3.7,38.7
	c0.8,8.7,0.1,17.3-1,25.9c-0.3,2-0.3,4.9-2.9,5.3c-2.2,0.3-3.2-2.1-4.1-3.8c-1.6-2.9-3.3-5.8-4.4-9c-15.7-44.5-34.9-87.7-48.6-133
	c-2.8-9.3-5.3-18.3-4.6-28.2c0.6-9.4-0.7-18.9-1-28.4c0-1.2-0.6-2.9,0.8-3.6c1.4-0.7,2.3,1,3.4,1.6c2,1.1,3,3.1,3.6,5.2
	c5.3,17,14.3,32.2,22.7,47.7c0.8,1.5,1.7,2.7,3.7,2.7c6.1-0.1,12.2,0.2,18.3,0.9c14.6,1.6,28.3-2.7,41.9-7.1c3-1,6.1-1.8,9-2.9
	c3.6-1.3,4.1,0.2,3.2,3.3c-2.4,8-6.5,15-12.5,20.7c-10.5,10-22.2,17.5-37.7,16c-2-0.2-4,0-6,0
	C1537.1,1279,1536.8,1279.1,1535.9,1279.3z"/>
<path class="st8" d="M1133.1,809.8c-2.2-0.9-3.4-2.8-4.8-4.7c-3.5-4.9-6.5-10-9.1-15.5c-0.9-1.9-1.7-3.5-4.1-3.7
	c-2.5-0.3-3.2-2.7-4.2-4.6c-5-9.4-7-19.7-8.2-30.1c-1.6-14.5-3.1-29.1-4.6-43.6c-0.5-5.1,0.3-9.9,2.3-14.6c4.1-9.6,6-19.6,7.6-29.9
	c2-13.5,4.5-26.9,4-40.6c-0.1-4.3-0.7-8.6,0-13c0.3-1.8-0.5-4.4,2.7-4.2c3,0.2,6.6-1.2,8,3.1c0.8,2.7,1.1,5.5,1.1,8.4
	c-0.3,17,1.8,33.8,3.1,50.7c0.3,3.5,0.2,7,0.2,10.5c0.2,21.1,1.6,42.1,3.6,63.1c1.2,13.3,1.9,26.9,2.4,40.3c0.3,8.3,2,16.5,1.1,24.9
	C1134,807.5,1134.4,808.7,1133.1,809.8z"/>
<path class="st8" d="M1151.5,1143.5c0.5,1.2,1,2.4,1.9,4.6c-5.2-2.4-9.6-4.4-14-6.5c-10.4-4.9-21-9.9-28.9-18.5
	c-5.2-5.7-10.4-10.8-17.3-14.2c-3-1.5-5.3-4.1-7.1-7c-9-14.6-12-30.4-9.3-47.4c0.8-4.9,3.3-6.6,8.2-6.5c9.5,0.2,9.6,0,10.1,9.6
	c0.5,10-0.4,20,0.9,30c0.3,2.1,0.5,4,2.1,5.4c9.1,7.6,18.3,15.2,27.5,23c1.2-2.6-0.3-4-1.1-5.6c-7.3-13.9-7-28.9-6.1-43.9
	c0.1-2.2,0.2-5.6,3.5-5.9c3.5-0.4,7.3-1.3,10,2.5c2.7,3.8,5,7.8,6.3,12.4c3,11,8.2,20.9,15,30.2c10.9,14.8,18,31.8,26.2,48.2
	c1.3,2.6,0.3,3.7-2.3,3.8c-4.2,0.2-7.8-1.3-11-4c-4.5-3.7-9-7.3-13.6-11c-0.3-0.3-0.7-0.7-1-1c-0.4-0.6-1.2-0.9-1.6-0.4
	c-0.6,0.7,0.4,0.9,0.8,1.2C1150.9,1142.8,1151.2,1143.2,1151.5,1143.5z"/>
<path class="st8" d="M1100.7,468.1c5.3-7.7,9.3-15,19.1-18.2c14-4.5,27.8-10,40.4-18.2c5.7-3.7,13.2-5.1,20-5.4
	c17.1-0.7,34.4-1.9,51,2.9c21.3,6.1,41.7,14.7,60.7,26.3c1.1,0.7,2.2,1.5,3.2,2.3c0.2,0.2,0.3,0.6,0.5,0.9c-2,2.4-4.7,2.2-7.3,1.9
	c-20.6-2.5-41.2-5.4-61.9-7.3c-8.9-0.8-17.8-1.7-26.8-2.2c-8.6-0.5-16.5,3.2-24.7,5.2c-18.4,4.4-36.7,9-55.5,11.4
	C1113.5,468.5,1107.4,469.2,1100.7,468.1z"/>
<path class="st8" d="M1499.1,597.5c1.7-22.8,2.6-45.8,8-68.1c2.5-10.2,7.6-19.1,15-26.6c2.2-2.2,11.7-3.8,14.1-2.3
	c1.8,1.2,1.4,3.2,1.5,5c0.5,9-1,17.9-2,26.8c-3.1,28.5-17.9,52.4-30.6,77.2c-0.8,1.5-1.6,4-3.7,3.4c-1.8-0.5-1.1-2.9-1.5-4.4
	C1499.1,604.8,1499.1,601.2,1499.1,597.5z"/>
<path class="st8" d="M1289,374.1c-11.3,10.7-22.1,20.2-33.3,29.4c-0.8,0.6-1.7,1.1-2.3,1.9c-5.2,7.6-11.9,8-20.2,5.5
	c-11.5-3.4-23.3-5.4-34.7-9.1c-6-1.9-10.4-6.9-16.7-8.3c-2.9-0.6-2.7-2.5-0.2-4c5.2-3.1,11.2-4.1,17-5.4c16.3-3.7,32.7-7.2,49.4-8.8
	C1261.2,374,1274.6,373.6,1289,374.1z"/>
<path class="st8" d="M1183.1,576.3c1.3-5.8,2.3-11.6,3.9-17.3c5-18.4,11.2-36.2,21-52.6c4.4-7.4,9.8-13.9,16.4-19.3
	c2.2-1.8,4.6-3.3,7.2-4.5c3.3-1.6,6.8-1.7,9.8,1c2.8,2.5,2.9,5.7,2.1,9.2c-1.5,6.2-4,12-7.3,17.4c-14.5,24.3-34,44.6-51.4,66.6
	C1184.2,576.7,1183.6,576.5,1183.1,576.3z"/>
<path class="st8" d="M1612,503.3c-0.1,4.7,0.2,9.3-0.9,13.9c-0.3,1.2,0.2,3.1-1.3,3.5c-1.8,0.5-2.3-1.6-3.1-2.7
	c-6.2-8.3-10.9-17.5-16.3-26.3c-1.9-3.1-3.5-6.5-5.7-9.3c-7-8.7-8.6-18.9-8.5-29.5c0.1-5.5-0.7-11,0.6-16.4c0.3-1.3,0.1-3.2,1.7-3.2
	c5.2-0.3,10.9-2.1,15.5,1.2c6.5,4.6,11.5,10.5,12.7,18.9C1609,469.9,1611.8,486.4,1612,503.3z"/>
<path class="st8" d="M1202.8,1422.8c-10.4-1.2-19.9-5.2-29-10.1c-4.5-2.5-7.2-7-7.9-12.6c-2-15.2-4-30.3-3.6-45.7
	c0.1-3.5-0.5-8.3,2.2-9.8c2.5-1.4,4.2,3.8,6.9,5.2c5.8,3.2,7.5,8.5,9.3,14.7c5.1,18.2,13.4,35,22.8,51.3c0.6,1,1.4,1.9,1.9,2.9
	c0.5,1,0.9,2.2,0.9,3.3C1206.4,1422.9,1205.5,1423,1202.8,1422.8z"/>
<path class="st8" d="M1538.7,379.7c-4.4-1.6-7.1-4.8-9.4-8.3c-11.2-16.7-19.1-34.9-23.4-54.6c-1.3-5.8-3.4-11.4-5.1-17.2
	c-0.6-1.9-1.1-3.8-0.5-6.2c6.2,1.8,11.8,5.2,18.2,6.1c1.2,0.2,1.4,1.2,1.5,2.3c2.2,26.2,11.3,50.8,18.4,75.8
	C1538.5,378.2,1538.6,378.8,1538.7,379.7z"/>
<path class="st8" d="M1492.2,238.8c5.7,1.9,11,4.3,16.8,5.1c1.3,0.2,2.1,0.9,2.5,2.1c2.4,7,4.9,14.1,7.2,21.2
	c0.3,0.9,0.6,2.1-0.5,2.7c-0.5,0.3-1.7-0.1-2.2-0.6C1505.5,261.2,1497.1,251.5,1492.2,238.8z"/>
</svg>
