<?xml version="1.0" encoding="utf-8"?>
<!-- Generator: Adobe Illustrator 26.0.1, SVG Export Plug-In . SVG Version: 6.00 Build 0)  -->
<svg version="1.1" id="Layer_1" xmlns="http://www.w3.org/2000/svg" xmlns:xlink="http://www.w3.org/1999/xlink" x="0px" y="0px"
	 viewBox="0 0 2725 2725" style="enable-background:new 0 0 2725 2725;" xml:space="preserve">
<style type="text/css">
	.st0{fill:#C0C3D0;}
	.st1{fill:#9498A2;}
	.st2{fill:#DED2BD;}
	.st3{fill:#9D9683;}
	.st4{fill:#F5ECDD;}
	.st5{fill:#39372E;}
	.st6{fill:#3C3A31;}
	.st7{fill:#504D3C;}
	.st8{fill:#3A382F;}
	.st9{fill:#86816B;}
	.st10{fill:#87826C;}
	.st11{fill:#B0AA8F;}
	.st12{fill:#B1AC90;}
</style>
<g>
	<path class="st0" d="M1258.5,1836.3c22.6,0,37.8-0.3,53,0c97.4,2.1,194.9,0.1,292.4,0.9c22.6,0.2,45.1,2.1,67.5,4.7
		c13.7,1.6,27.5,2,41.2,3.4c18.1,1.7,36.2,4,54.4,5.7c19,1.8,37.9,4.1,56.6,8.2c27.7,6.1,54.5,14.7,80.3,26.5
		c30.8,14,58.7,32.6,84.3,54.6c38.4,32.9,71.4,70.5,97.1,114.3c13.3,22.7,23.5,46.7,27.2,72.9c4.9,34.4-3.2,65.7-24.2,93.5
		c-12,15.9-26.2,29.8-43.2,40.3c-13.1,8.1-23.8,19.1-36,28.3c-17.9,13.4-37.2,24.5-56.3,35.9c-22.2,13.3-45.3,24.7-68.6,35.8
		c-37.1,17.7-75,33.4-113.5,47.9c-31.3,11.9-62.7,23.1-94.5,33.5c-51.6,16.9-103.8,32.1-156.6,44.9c-32.4,7.9-65,14.8-97.7,21.2
		c-3.7,0.7-7.6,1-11.4,1.2c-14.1,0.5-28.3,0.4-42.4,1.2c-20.5,1.2-40.9,0.7-61.4,0.9c-25,0.3-49.7-2.4-74.4-5.8
		c-23.3-3.2-46.6-6.9-69.7-11.4c-35.2-6.8-69.9-16-104.4-25.6c-28.6-8-57.2-16.1-86.2-22.6c-13.6-3.1-26.3-9.3-39.3-14.3
		c-36-13.9-71.7-28.4-107.1-43.7c-20.6-8.9-41.1-18.1-61.4-27.7c-24.3-11.4-48.3-23.2-72-35.8c-35.6-18.9-70.4-39.2-102.6-63.5
		c-24.8-18.7-47.7-39.4-64.5-65.9c-14.8-23.3-21.6-48.6-18.9-76c2.7-27.6,14.6-51.5,31-73.5c22.2-29.7,51.1-51.6,82.5-70.6
		c41.8-25.2,86.6-43.9,132.4-60.2c36.9-13.2,74.1-25.6,112.3-34.7c22.1-5.2,44.5-8.9,66.9-12.9c12.1-2.1,23.8-6.2,35.7-9
		c19.5-4.6,39.4-7.4,59.3-9.9c24.4-3.1,48.8-5.4,73.3-7.1c17.1-1.2,34.1-2.3,51.2-3c19.6-0.9,39.2-1.2,58.8-2.1
		C1228.3,1836,1247.1,1836.8,1258.5,1836.3z"/>
	<path class="st1" d="M1367.5,2373.2c-34.5-0.8-64.6-4.4-94.8-8.6c-39.1-5.4-74.8-20.4-110.4-36.6c-52.1-23.8-100.9-53.5-150.6-81.6
		c-45.4-25.7-89.7-53-133.7-81c-8.6-5.5-14.1-14.1-20.7-21.4c-6.1-6.8-11.9-13.9-18.1-20.6c-1.9-2-2.4-3.8-1.2-6.2
		c0.1-0.3,0.3-0.6,0.4-0.9c2.4-9.7,7.8-14.9,18-18.3c28-9.4,53.1-24.4,76.3-42.7c1.2-0.9,2-2,3.9-1.5c7.2,2.1,14.3,4.3,21,7.8
		c2.6,1.4,3,3,1.2,5.1c-2.9,3.4-5.6,7.2-9.1,10c-8.2,6.5-14.2,15.6-23.6,20.7c-2.1,1.1-1.4,2.5-0.1,3.5c1.6,1.2,3.3,2.2,5.1,3.1
		c57,27.1,114.4,53.3,172.1,78.8c15.2,6.7,30.5,13.5,45.2,21.2c12.7,6.6,26.2,9.5,40.1,11.2c23,2.8,46.1,4.6,69.2,4
		c41.8-1.1,83.2-5.8,124.4-13.3c70.9-12.9,139.8-33,208-55.9c34.1-11.4,68.3-22.4,103.7-29c17.2-3.2,34.5-5.7,52-5.5
		c2.5,0,5,0.2,7.4,0.6c2.7,0.5,4.7-0.2,6.7-2.2c5.2-5.3,11.9-7,19.1-8.8c7.9-2,12.8,0.2,18.3,5.4c4.9,4.6,11.5,6.6,18.1,8
		c3.2,0.7,5.3,2.3,6.9,5.1c4.7,8.4,6.3,17.4,5.3,27c-0.3,2.5-1.6,4.2-3.7,5.6c-12.6,8.4-25.1,16.9-37.9,25.1
		c-4.3,2.8-9.3,4.5-13.8,6.9c-20.2,10.3-40.2,20.9-60.5,31c-30.7,15.2-61.8,29.8-92.5,45.1c-48.3,23.9-97.1,47-144.3,73.3
		c-22.7,12.7-47.3,20.3-71,30.6c-2.3,1-4.7,1.6-7.2,2C1385.7,2371.7,1374.7,2373.9,1367.5,2373.2z M1319.2,2270.3
		c5,2,8.8,1.7,12.6,1.8c27.1,0.2,54.2-1.3,81.3-2.7c23-1.2,45-6.4,66.7-13.7c28.7-9.8,56.5-21.7,84.4-33.4
		c12.3-5.2,24.5-10.7,36.7-16C1509.1,2234.9,1416.6,2260.1,1319.2,2270.3z"/>
	<path class="st2" d="M1765.6,1444.3c0,7,0,14,0,21c0,3.4-0.3,6.6-1.4,9.8c-1.9,5.5,0.1,11,5,14.1c5.6,3.6,9.3,9.1,13.5,13.9
		c16.5,18.7,32.5,38,51.3,54.4c8.4,7.3,8,16.1,9.4,24.9c0.6,4-3.1,6.3-6.4,7.4c-10,3.3-17.7,10.5-27,14.9c-3.8,1.8-5.7,4.8-4.5,10.1
		c3.6,15.9,0.1,31-9.1,44.1c-9.8,14-20.7,27.3-35.5,36.6c-7,4.4-14.4,7.5-22.2,10c-3.6,1.1-5.4,2.7-2.8,6.3c1.2,1.7,1.1,3.5,0.6,5.3
		c-2.6,8.9-3.1,18-2.8,27.1c0.3,8.3-1.4,16.6-0.8,24.9c1.5,19.5,0.3,38.9,0.8,58.4c0.3,9.8,0.9,19.6,0.8,29.4
		c-0.1,14.9-0.6,29.7-0.9,44.6c0,2.3-0.8,4.1-2,6c-2.8,4.9-5.6,9.8-8.2,14.8c-1.7,3.4,0.8,7.8,5.8,9.3c6.3,2,12.8,4.5,19.3,4.9
		c9.6,0.6,14.9,6.7,19.9,13.3c6,7.9,9.2,17.2,11.6,26.8c0.8,3.1-0.1,6.1-0.7,8.8c-1.2,5.7,0,11.2,0.2,16.8c0.1,3,1.7,4.3,4.7,4.8
		c5.6,0.8,11.1,2,16.6,3c2.4,0.4,2.8,2,2.7,4c-0.4,9.5-0.2,19-1.3,28.4c-1,8.6-1.1,17.2-1.5,25.8c-0.7,15.3-0.2,30.7-0.3,46
		c-0.1,7.6-0.6,15.3-0.8,22.9c-0.1,2.3-1.2,3.7-2.8,5c-6.8,5.4-14.3,9.7-22.2,13.3c-28,12.9-55.2,27.3-82.9,40.9
		c-31.2,15.4-62.2,31.1-93.9,45.3c-32.3,14.5-65,28.1-97.9,41.3c-21.1,8.5-42.3,17-63.4,25.5c-6.2,2.5-10.9,7.6-17.6,9.2
		c-2.4,0.6-4.8,1.3-7.3,1.3c-20.6-0.4-41.3-0.4-61.9-1.2c-19.8-0.8-39.5-1.3-59.3-2.1c-14.7-0.6-29.3-0.5-43.9-0.5
		c-5.2,0-9.2-2.8-13.5-4.7c-35.6-15.4-71.1-30.9-106.4-46.7c-14.7-6.6-28.9-14.5-43.8-20.6c-15-6.1-29.2-13.7-43.7-20.7
		c-17.6-8.4-35.3-16.3-53.2-24.1c-11.8-5.1-22.1-13-32.9-19.7c-23.6-14.7-47.4-29-72.1-41.7c-2.4-1.2-4.5-3.1-7-3.8
		c-7.1-2-8.1-7.3-8.1-13.4c0-10.2-0.1-20.3,0-30.5c0.3-24.1-1.9-48.1-3.1-72.2c-0.2-4.8,0.6-7.2,6.2-7.5c4.5-0.2,9-2.1,13.6-2.6
		c2.8-0.3,4.1-1.9,4.2-4.6c0.2-5.6,1.6-11.1,0.1-16.8c-1.8-6.9,0.4-13.4,2.8-19.8c3.7-10,9-18.9,17.5-25.5c2.4-1.9,5.1-2.9,8.2-3.2
		c7.6-0.9,15-3,22.2-5.4c5.7-1.9,6.6-6,4.2-11.3c-2.3-4.8-4.9-9.4-7.7-13.9c-0.9-1.4-1.1-3.1-1.2-4.8c-0.3-15-1.2-30.1-0.8-45.1
		c0.8-26.6,0.2-53.3,1.1-79.9c0.5-14.3-0.9-28.5-0.4-42.8c0.2-4.6-1-9.2-1.9-13.7c-0.6-3.3-1.6-6.2,0.5-9.5c1.8-2.7-0.4-4-3-4.8
		c-10.4-3.3-20.6-7.3-28.8-14.5c-16.6-14.5-32.4-29.8-38.1-52.3c-2-7.8-2.9-15.9-0.5-23.6c1.6-5.3-0.3-8.7-4.3-10.7
		c-8.2-3.9-15-9.9-23.3-13.5c-10.3-4.5-10.3-4.6-9.3-15.7c0.6-6.6,2.2-12.1,7.9-17.3c18.8-16.9,35.2-36.2,52-55.2
		c4.8-5.4,9.1-11.3,15.5-15.4c4.3-2.7,4.4-8,3-12.6c-1-3.3-1.4-6.5-1.4-9.8c0-15.2,0.1-30.3-0.1-45.5c0-3.9,1-5.4,5.3-5.8
		c18.4-1.5,36.4-5.5,54.2-10c16.1-4,32.7-5.4,49-7.9c18-2.7,36.1-5.2,54.1-7.7c15.3-2.1,30.5-4.1,45.8-6.3
		c19.2-2.8,38.4-5.6,57.5-8.5c18.7-2.8,37.3-5.7,56-8.5c14.2-2.2,28.5-4.3,42.8-6.3c14.3-2,28.6-3.8,42.8-5.6
		c7.1-0.9,14.1-1.9,21.2-2.7c8-0.9,15.8,1.2,23.7,2.1c14.8,1.7,29.6,3.6,44.3,5.7c14.4,2,28.8,4.3,43.3,6.4
		c18.7,2.8,37.3,5.7,56,8.5c14.2,2.2,28.5,4.3,42.8,6.4c15.4,2.2,30.8,4.4,46.2,6.6c17.4,2.4,34.8,4.8,52.2,7.3
		c15.4,2.2,30.8,4.7,46.2,6.5c15.5,1.9,30.5,6.4,45.8,9.5c10.3,2.1,20.6,3.6,31,4.6c3.7,0.3,4.9,1.6,4.8,5.2
		C1765.5,1427.6,1765.6,1435.9,1765.6,1444.3C1765.6,1444.3,1765.6,1444.3,1765.6,1444.3z"/>
	<path class="st3" d="M1240.9,1707.9c-1.8-7.1-7.6-9.3-13.7-10.7c-10.7-2.4-21.4-4.5-32-7.4c-33-9-65.4-20.6-99-27.2
		c-77.2-15.1-152.7-37.6-229.4-54.5c-8.1-1.8-15.3-5.4-21.9-10.3c-4.5-3.2-9.2-5.9-14.4-7.8c-6.4-2.4-7.9-5.1-6.8-11.8
		c0.6-4.1,1.2-8.2,1.9-12.3c0.4-2.5,1.3-3.4,4.1-2.1c29.2,14.2,60.4,22.4,91.8,30.3c63.1,15.8,126.1,32,189.5,46.4
		c35.8,8.1,71.8,15.7,107.8,23.3c4.4,0.9,8.9,0.8,13.4,1.3c2.1,0.2,2.7-0.5,3-2.7c2.3-18.6,6.6-37,9.3-55.5
		c1.8-12.1,2.5-24.4,4.5-36.6c1.2-7.5-2.5-10.5-9.8-12.2c-11.8-2.8-23.4-6.4-35-9.8c-32.1-9.3-65.1-15.2-97.6-22.9
		c-51.3-12.1-103-22.6-153.9-36.1c-15.8-4.2-31.4-8.6-46.7-14.5c-3.3-1.2-4.7-2.8-4.7-6.5c0.1-15,0-30,0-45c0-4.5,1.5-5.7,5.2-4.5
		c26,8.5,52.7,14.1,79.4,19.5c70.4,14.1,141.2,26.9,211,44.2c28.6,7.1,57.7,11.8,86.7,16.4c7.6,1.2,15.6,0.5,23.4,0.1
		c27.1-1.5,54.2-3.3,81.4-2.5c22.8,0.7,44.8-1.9,66.8-8.1c42.6-11.9,86.1-20.1,129.2-30.1c58.5-13.6,116.9-27.3,175.6-39.9
		c5.9-1.3,5.9-1.3,5.9,4.7c0,13.5,0,27-0.1,40.5c0,4.2-0.1,8.2-1.5,12.3c-1.7,4.6,1,10.2,5,13.2c8.3,6.1,13.9,14.7,20.8,22.1
		c8,8.5,15.7,17.3,23.5,25.9c4,4.5,4.1,4.5-1.9,6.6c-29.9,10.2-59.9,20.4-89.9,30.4c-67.4,22.4-135.6,42.6-203.3,64
		c-17,5.4-33.9,11.1-49.8,19.1c-2.7,1.3-5.3,2.8-7.5,4.9c-4.1,4.1-1.9,8.2-0.1,12.3c1.5,3.6,4.3,2,6.8,1.9
		c33.5-2.2,65.4-11.9,97.4-20.9c61.5-17.2,122.3-36.8,183-56.9c9.3-3.1,18.9-5.2,28.6-6.9c19.8-3.5,37.6-12.1,55.3-21
		c9.5-4.7,9.5-4.7,10.9,6c1.2,9.2,0.2,10.9-8.8,14.4c-9.2,3.6-16.6,10.3-25.4,14.7c-3.2,1.6-4.1,4.2-3,8.3
		c3.4,13.1,1.5,26.2-5.1,37.7c-11.5,20-26,37.5-47.3,48c-4.9,2.4-10.1,4.3-15.3,6c-2.9,1-4.2,2.4-2.4,5c2,2.9,1.3,5.5,0.5,8.5
		c-1.6,6-2.1,12.1-2.2,18.3c-0.6,32.6-0.4,65.3,0.4,97.9c0.3,13,0.5,26,0.2,39c-0.2,7.4,0.2,14.8-0.3,22.2
		c-0.4,5.7-1.6,10.6-4.9,15.3c-2,2.8-3.7,5.9-4.8,9.2c-1.4,3.8-4.1,5.2-7.5,6.4c-48,17.1-94.6,37.8-142,56.4
		c-37.2,14.6-74.5,28.7-111.7,43.3c-10.5,4.1-21,8.4-30.5,14.8c-1.5,1-3.1,2-4.4,3.3c-2,2-3.1,4.5-1.9,7.3c1.2,2.8,3.4,4.5,6.6,4.6
		c3.3,0.1,6.2-1,9.2-2.1c41.7-15.9,82.4-34.1,123.2-52.3c51.8-23.1,103.6-46.4,155.4-69.6c3.6-1.6,6.9-2.1,10.9-0.9
		c7.1,2.2,14.3,4.3,21.8,5.1c4.5,0.5,7.8,3.8,10.7,6.9c8,8.6,12.6,19.1,15.6,30.3c1.1,4.3-0.1,8.6-0.3,12.9
		c-0.1,2.5-0.9,5.2-0.3,7.4c1.6,5.6-1.1,7.8-5.8,9.9c-43.3,19.3-86.6,38.7-129.6,58.8c-48.6,22.7-96.6,46.5-144.7,70.1
		c-18.3,9-37.9,15.5-56.8,23.1c-9,3.6-17.3,8.6-25.7,13.4c-1.2,0.7-2.2,2.4-3.9,1c-1.7-1.4-0.8-3,0.1-4.5c1.3-2.1,1.2-4.4,1.2-6.8
		c-0.1-28.8-0.2-57.7-0.3-86.5c0-6.2-1.2-12.2-3-18.1c-0.9-3.1-3.2-3.1-5.5-3.1c-7.5-0.3-15-0.8-22.4-0.9
		c-29.8-0.5-59.5-2.9-89.3-4.2c-1.8-0.1-3.7,0-5.5-0.1c-4.4-0.3-5.7,1.6-6.4,6c-3.6,23-2.6,46.2-2.8,69.3c-0.1,13-1.2,25.8-2.7,38.7
		c-0.5,4.3-2.2,5.2-6.1,3c-7.5-4.2-15.2-7.7-20.5-15c-1.8-2.5-4.1-4.7-7.4-5.6c-52.4-15.5-101.8-38.3-151.8-59.9
		c-56.1-24.2-112.7-47.1-169.6-69.5c-9.8-3.8-19.6-7.6-28.8-12.6c-3.5-1.9-5.9-11.1-3.9-14.4c1-1.6,2.6-1.2,4.1-1.2
		c8.3,0.3,16,3.1,23.7,5.6c37.3,12,73.5,26.7,109.8,41.3c50.7,20.4,100.4,43,150.8,64c25.8,10.8,52.3,19.7,79,28.1
		c4.9,1.5,9.7,3.3,14.6,5c0.3,0.2,0.6,0.5,1,0.7c0.1-0.1,0.1-0.3,0.2-0.4c-0.4-0.1-0.8-0.2-1.2-0.3c-6-9.6-4-20.6-4.7-30.9
		c-0.9-14.1-2.5-28.2-0.3-42.4c0.6-3.7-1.1-6.8-2.7-9.9c-0.5-1-0.9-1.7-2.1-1.7c-11.3,0-20.6-6.3-30.6-10.2
		c-50.2-19.3-101.5-35.4-152.3-52.9c-15.9-5.5-31.7-11.1-47.5-17c-9.9-3.6-20.2-5.5-30.1-8.9c-13.5-4.7-27.2-9-40.3-14.6
		c-5.7-2.4-10.7-7.2-15-12.1c-2.3-2.7-0.3-6.3-2.4-9.7c-2.7-4.2-5.2-8.8-7.8-14.2c8.7,2.1,16.7,4.3,24.4,7.2
		c77.2,29.5,155.2,56.9,234.8,79.4c20.9,5.9,40.5,15.1,60.7,22.5c2.5,0.9,4.6,2.7,6.8,4.1c6.1,3.6,12.2,0.4,12-6.6
		c-0.2-8,1.3-16-0.9-23.9c-1.2-4.5-4.2-7.4-8.1-9.4c-1.3-0.7-2.8-1-3.1-2.8c-1.1-6.7-3.5-13.1-3.7-20.1c-0.7-28.8-0.9-57.6-2.4-86.4
		c-0.9-17.8-2.1-35.5-1.8-53.4c0-2.7-0.2-4.4-3.6-4.3c-3.8,0.1-6.7-2.7-10.1-4c-18.1-6.7-37-11.1-55.6-15.8
		c-72.5-18.5-144.9-37.2-217-57.2c-10.7-3-21.1-7-31.6-10.8c-5.4-1.9-6.8-12.2-2.3-15.6c1.5-1.2,3.2-0.2,4.8,0.2
		c44.1,9.2,87.7,20.3,131,33c57.7,17,116.2,31.6,174.3,47.3c3.2,0.9,7.3,3.3,9.3,2.2c2.2-1.3-0.5-5.7-0.1-8.8
		c1.3-11.5-0.4-22.9-0.1-34.4c0.1-5.1-1.1-10.2-1.9-15.3c-0.3-2.1-1.8-3.3-4.1-3.7c-19.6-3.3-39.3-6.3-58.9-10.1
		c-65.1-12.7-129.6-28-193.8-44.7c-41.2-10.7-82.1-22.4-122.2-37c-0.8-0.3-1.6-0.6-2.3-0.9c-9.4-4-9.3-4-8.8-14.4
		c0.2-3.2,1.2-3.8,4.3-3.3c14.2,2.2,28,5.8,41.7,9.8c77.2,22.1,155.1,41.6,233.3,59.8c32,7.5,64.3,13.9,96.6,19.8
		c1.6,0.3,3.3,0.3,5,0.4c0.3,0.1,0.5,0.2,0.8,0.2C1241.1,1708.4,1241,1708.2,1240.9,1707.9z M1438.8,1661.9c0.2-2.4-0.9-4.8-1.8-7.3
		c-1.5-4.2-3-8.5-4.3-12.8c-7.1-25.5-12.4-51.4-18-77.3c-0.7-3.4-1.6-5.4-6-5.2c-43,1.2-85.9,1.9-128.8-1c-4.7-0.3-8.1-0.8-11.8,5.2
		c-6.2,9.9-10.4,20-12.6,31.1c-4.6,23.7-8.6,47.4-12.9,71.1c-0.2,1.1,0.3,1.9,1,2.6c3.3,3.2,6.8,5.9,11.7,5.9c1.8,0,3.6,0,5.4,0.7
		c6.2,2.2,12.6,3.1,19.1,3.1c27,0.2,53.9-2.6,80.9-2c17.5,0.4,35-2.2,52.4,0c6,0.8,11.4,0.5,17-1.8
		C1435.6,1672,1438.7,1668.3,1438.8,1661.9z M1361.8,1970.9c15.8,0,31,0,46.1,0c2.5,0,3-1.3,3-3.4c0.2-7.8,0.6-15.6,0.7-23.4
		c0.8-77.4-0.4-154.9-0.8-232.3c0-0.4-0.3-0.8-0.8-2.1c-4.5,7.6-8,14.9-12.3,21.8c-19.1,30.1-25.2,64.1-26.8,99
		c-0.9,19.9-1.4,39.9-1.3,59.9c0.1,17.1,1,34.3-1,51.4C1367.6,1951.5,1367.8,1961.5,1361.8,1970.9z M1281.3,1695.6
		c2.9,1.5,6,2.7,8.8,4.4c12.8,7.8,19.2,20.5,24.7,33.6c15,36.1,20.8,74.1,21.9,112.9c0.8,26-0.3,51.9,0.9,77.9
		c0.5,9.4,2.7,18,5.8,26.6c0.4,1.1,0.6,2.7,2.5,2.7c1.1-3.2,2.9-6.1,4-9.5c2.9-9.5,3.2-19.4,3.6-29.1c1.5-36.1-0.4-72.2,3.2-108.2
		c1.4-13.7,2.5-27.4,5.5-40.9c3.6-16.2,12.3-30.1,20.4-44.3c1.9-3.3,3.4-7,6.2-9.6c6.6-6,11.2-13.9,20.3-19
		C1365.6,1694.4,1323.5,1696.1,1281.3,1695.6z M1279.6,1712.5c0.9,12.2,0.7,22.9,0.5,33.6c-1.2,55.8-0.7,111.6-0.1,167.4
		c0.2,13.9-0.3,28,3.8,41.6c0.9,3,1.5,6.2,1.7,9.3c0.2,2.7,1.2,3.6,3.9,3.9c8.8,0.7,17.5,1.9,26.3,2.5c6.8,0.5,13.7,0.8,21.3-0.1
		c-4.7-5.9-7.1-12-9.5-18.3c-7.2-19-8.3-39-8.7-58.9c-0.6-25.8-0.7-51.5-4-77.2c-3.7-29-11.2-57-22.6-83.9
		C1289.3,1725.6,1285.4,1719.4,1279.6,1712.5z M1405.6,2020.9C1405.6,2020.9,1405.6,2020.9,1405.6,2020.9c-0.5-9-1.2-17.9-1.6-26.9
		c-0.1-3-0.6-3.8-4-3.3c-17,2.5-34.2,2-51.3,0.7c-18.8-1.4-37.6-1.2-56.4-2.2c-1.4-0.1-3.5-0.5-3.1,1.9c1.3,9.8,0.2,19.6,1,29.4
		c0.3,3.7,1.9,5.2,5.5,5.3c11,0.4,21.9,1.6,32.9,1.3c17.3-0.4,34.5-2,51.9-0.4c7.2,0.6,14.6,0.9,21.9,1.3c3,0.2,3.9-0.9,3.5-3.7
		C1405.7,2023.2,1405.7,2022,1405.6,2020.9z M1669.7,1762c-0.1-3.5,0.1-6.5-0.7-9.4c-0.8-3-2.2-5.3-5.6-5.4c-3.2,0-4.8,2.4-5.4,5.1
		c-1,4.7-1.9,9.5-2.3,14.3c-2.7,33.3,0.9,66.5,2.1,99.7c0.2,6.9,0.6,6.8-6.3,9c-53,16.8-105.6,34.5-157.1,55.3
		c-8.3,3.4-16.6,7-24.2,11.7c-1.7,1-2.9,2.4-2.3,4.5c0.7,2.2,2.6,2.6,4.5,2.3c3.3-0.6,6.5-1.2,9.7-2.2
		c60.4-18.9,118.8-42.9,176.7-68.4c3-1.3,6.6-2.2,8.9-4.4c3-2.8-0.3-6.5-0.4-9.9c-0.2-10.2,1.1-20.2,1.3-30.4
		C1669.2,1809.7,1667.7,1785.6,1669.7,1762z M1355.2,1532.6c15.8,0,31.6,0,47.4,0c1.5,0,2.9,0.5,3.3-1.8c1.6-9.7-8.5-19-17.8-16.3
		c-1.8,0.5-3.6,0.7-5.4,0.6c-32.5-0.4-64.9,2.2-97.3,0.2c-1.3-0.1-2.7-0.4-3.8,0.6c-1.9,1.6-5.9,14.8-4.4,16.8
		c2.5,3.2,6.1,0,9.1,0.5c0.5,0.1,1,0,1.5,0C1310.3,1532.5,1332.7,1531.7,1355.2,1532.6z"/>
	<path class="st3" d="M1431.2,2310.9c0-15.8,0-31.2,0-46.5c0-6.5,0.3-13,0.5-19.5c0.2-5.7-0.1-11.3,0.8-16.9
		c1.2-7.4-0.9-14.5-2.2-21.7c-0.4-2-1.8-2.5-3.5-3.1c-12.8-4.6-25.3-4-36.6,3.8c-8.8,6.1-14.6,13.6-14.7,25.5
		c-0.2,21.3-1.6,42.5-7.7,63.2c-1.2,4.2-2.7,8.2-5.3,11.8c-5.8,8.1-15,9.2-22.5,2.6c-7.4-6.5-10.5-15.2-12.3-24.5
		c-3.8-19.7-8.1-39.4-11.5-59.2c-2.8-16.2-14.1-19.4-26.6-21.9c-6.7-1.3-13.5-1.5-20.3-2.3c-2.4-0.3-3.1,0.2-3.5,3
		c-4.5,34.5-2.9,69.1-2.2,103.7c0.1,6.5,0.2,6.5-6.2,6.6c-1,0-2-0.1-3,0c-3.7,0.6-4.8-1-4.8-4.7c-0.1-19-0.8-38-0.6-57
		c0.3-19.7-1.8-39.2-2.1-58.9c-0.1-4.1,0.4-6,5.5-6.1c10.7-0.2,21.4-2,32.2-2.2c15.7-0.4,30.4,3.8,42.8,13.8
		c7,5.6,7.5,14.1,8.5,22.2c2.3,18.5,4.6,36.9,7,55.4c0.4,3.3,1.4,6.5,2.2,9.7c0.8,2.9,2.8,4,5.7,3.6c3-0.4,3.8-2.3,4.3-5.1
		c1.5-8.7,1.3-17.4,0.8-26.2c-0.6-11.6,0.8-23.3,2.3-34.8c1.2-9.5,5.4-17.8,14.2-23.5c10.4-6.8,20.6-13.7,33.4-14.8
		c8.6-0.7,17.3-1.1,25.7,0.9c4.2,1,7.4,0.3,10.9-1.4c51-23.7,100.9-49.8,151.7-74c40.9-19.5,81.7-39,122.6-58.5
		c27.3-13,54.7-26.1,82-39.1c5.1-2.4,5.4-2.4,5,3.2c-3,39.5-2.9,79.2-3.7,118.8c0,1.7,0.1,3.7-1.6,4.5c-4.4,2-6.9,6.3-11.2,8.4
		c-52.7,26-105.4,52-158.2,77.8c-47.5,23.2-96.5,42.6-145.3,62.7C1466.3,2297,1448.9,2303.8,1431.2,2310.9z"/>
	<path class="st3" d="M1176.9,1446.6c3.5-1.4,7-2.8,10.4-4.3c5.8-2.6,11.5-5.3,16.7-9c12.7-9.2,12.6-21.7-1.3-29.8
		c8.9-1.5,16.9-2.9,24.9-4.2c2.5-0.4,4.9-0.7,7.4-1.2c6.5-1.3,10.1-5.9,9.1-11.6c-0.9-5.6-5.8-9-12.3-8.2
		c-6.6,0.9-13.1,2.1-19.7,3.2c-19.5,3.2-39,6.6-58.6,9.7c-6,0.9-10.8,4.2-15.9,6.9c-2.2,1.2-3.2,3.5-2.6,6c0.7,2.9,3.2,4,5.7,5
		c10.7,4.5,22.4,4.7,33.5,7.1c4.9,1,9.8,2,15.2,3.1c-3.1,3.2-6.7,4.4-10.1,5.8c-9.7,3.9-19.6,7.4-29.4,11.3
		c-2.9,1.1-5.8,2.5-8.5,4.2c-3.1,1.9-5.9,4.5-5.8,8.2c0.2,5.6-2.6,4.5-6.2,3.9c-20.9-3.9-37.5-15.4-53.5-28.6
		c-7.9-6.5-15.1-14.1-24.9-18.2c-1.7-0.7-3.1-2.5-4.4-4c-2.1-2.7-4.1-5.9-2.8-9.1c1.1-2.6,4.7-1.8,7.2-2.2
		c43.3-6.4,86.6-12.6,129.8-18.9c40.5-5.9,80.8-12.8,121.5-17.4c9.2-1,18.4-2.7,27.7-3.6c7.8-0.8,15.6,1.2,23.3,2.1
		c23.8,3,47.5,6.2,71.2,9.6c27.3,4,54.6,8.4,81.9,12.5c28.8,4.3,57.6,8.4,86.4,12.5c31.1,4.4,62.2,8.7,93.8,13.2
		c-2.9,4.4-6.8,6.8-10.9,8.7c-12.3,5.8-25.4,9.2-38.9,10c-23.3,1.3-46.6,1.9-69.8,4.3c-25.1,2.6-50.2,5.3-75,10.3
		c-9.3,1.9-18.9,1.3-28.3,2.9c-13.2,2.2-25.9,5.9-38.9,8.6c-22.5,4.7-45.4,6.8-68.3,8.9c-24.2,2.2-48.5,3.2-72.9,2.8
		c-13-0.2-26-1.2-39-0.7c-3.8,0.1-6.6-2.8-10.4-3.1c-13.6-1.1-27.2-2.5-40.7-3.7c-5.4-0.5-10.9-0.9-16.3-1.4
		C1177.2,1447.4,1177.1,1447,1176.9,1446.6z"/>
	<path class="st3" d="M952.8,1879.6c-0.7-17.4-1.3-34.7-2.1-51.9c-0.9-19.8-1.1-39.6,1-59.4c0.3-2.6,0.3-5.4,3-7
		c1.2-0.7,0.7-1.6,0.6-2.6c-0.4-5.5,2.1-8.4,7.6-8.8c5.6-0.4,10.9,1.1,16.1,2.8c32.4,10.7,64.6,21.6,97,32.2
		c43.9,14.4,88.7,25.5,133.2,38.1c8.3,2.3,16.4,4.8,24.1,8.9c3,1.6,3.8,4.5,4.5,7.4c2.5,10.7,2.1,21.5,1.7,32.3
		c-0.4,12.1-1.3,24.2-1.5,36.4c-0.2,15.3-1.3,30.6-3,45.8c-0.2,1.6,1.3,5-1.8,4.5c-2.9-0.4-6.9-0.1-7.6-4.9
		c-0.7-5.6-1.7-11.2-1.8-16.8c-0.3-11.6,1-23.3-0.8-34.9c-2.4-14.7-1.7-29.6-0.5-44.3c1.1-12.5,1.4-11.9-10.6-15.6
		c-59.2-18.4-119.5-33.1-177.6-54.9c-20.2-7.6-40.5-14.1-61.5-18.3c-1.9-0.4-4-0.4-5.9-0.5c-1-0.1-2,0.1-3,0
		c-1.5-0.3-1.8-3.8-3.6-2.2c-1.5,1.3,0,3.8,0.3,5.7c2.9,19.5,3.5,39.1,3.3,58.8c-0.1,14.3-0.1,28.6,0,43c0,3.4-0.4,5.3-4.5,4.8
		C957.3,1877.9,955.2,1879,952.8,1879.6z"/>
	<path class="st4" d="M824.8,1565.1c6.1-5.9,12.1-11.8,18.2-17.7c1.5-1.5,3.1-1.2,5.1-0.8c22.9,4.3,45.6,10,68.3,15.2
		c48.4,11.1,96.9,22,145,34.5c35.9,9.3,71.6,19.5,107.4,29.3c16,4.4,32.3,7.1,48.7,9.5c5.4,0.8,10.5,2.6,15.4,5.3
		c3.4,1.9,4.8,4.5,3.7,7.7c-1.6,4.8-1.5,9.8-2.8,14.6c-0.9,3.6-3,5.1-6.7,5.3c-6.7,0.3-13.3-0.3-19.8-1.2
		c-30.4-4-60.1-11.5-89.7-19.2c-34.6-9-69-18.8-103.8-27.1c-46-11-92.2-21.7-138-33.6c-13.6-3.5-27.3-7.2-40.3-12.6
		c-4.1-1.7-7.2-4.6-10.6-7.3C824.8,1566.5,824.8,1565.8,824.8,1565.1z"/>
	<path class="st4" d="M1326.7,2190c-0.6-3.1-3.1-1.9-4.9-1.9c-20-0.1-39.9,0-59.9-0.1c-2.2,0-4.9,1-6-2.1c-0.9-2.6,0.8-4.3,2.4-6.1
		c6.1-6.8,12.6-13.3,16.2-21.8c0.7-1.6,1.4-1.8,3-1.6c16.3,2.4,32.7,2.8,49.1,2.7c26.6-0.2,53.3,0,79.9-0.1c4,0,7,0.8,9.2,4.5
		c2.9,4.7,7.1,8.3,11,12.1c1.6,1.5,2.9,3.2,3.8,5.2c2.8,6,1.5,8.2-4.9,8.2c-28.5,0-56.9,0-85.4,0c-1.9,0-4-0.8-5.7,1
		C1332.1,2190,1329.4,2190,1326.7,2190z"/>
	<path class="st4" d="M1765.5,1422.1c1.2,4.8-1.2,6.6-5.5,8.6c-15.5,7.2-32.4,9.6-48.6,14.5c-22.7,6.9-45.4,13.7-68.5,19
		c-50.5,11.6-100.9,24-151.1,36.9c-20.2,5.2-40.5,10.3-60.3,16.9c-3.5,1.2-6.5,1.2-9.9-1c-5.6-3.6-11.4-6.8-17.3-9.9
		c-3.2-1.7-6.9-2.1-10.6-2.1c-21,0-42-0.2-63,0.1c-11.8,0.1-23.6-0.8-35.4-1c-7.8-0.2-15.8-0.2-22.2,5.1c-7.8,6.4-16.1,4.3-24.5,2.3
		c-21.2-5.2-42.3-11-63.7-15.7c-24.3-5.3-47.9-13.3-72.2-18.7c-37.6-8.4-75.3-16.6-113-25c-20.4-4.5-40.8-8.8-60.9-14.2
		c-10.1-2.7-20.3-4.4-30.3-7.4c-7.7-2.3-9.7-6.1-7.7-13.8c0.5-1.8,1.5-2.4,3.2-2.5c22.8-2.1,45-7.8,67.3-12.5
		c12.4-2.7,25.2-3.7,37.8-5.5c15.7-2.2,31.4-4.5,47.1-6.7c15.1-2.1,30.1-4.2,45.2-6.3c17-2.4,34-4.9,51-7.4
		c14.9-2.2,29.8-4.4,44.6-6.6c13.4-2,26.8-4.3,40.2-6.3c13.2-2,26.5-3.8,39.8-5.7c14.6-2,29.2-3.7,43.7-5.9
		c11.2-1.7,22.1-0.2,33.1,1.1c11.8,1.4,23.6,3.1,35.4,4.8c15.2,2.1,30.4,4.3,45.6,6.6c16.4,2.4,32.7,5,49,7.4
		c14.2,2.2,28.4,4.3,42.7,6.4c12.9,1.9,25.8,3.7,38.8,5.6c15.2,2.2,30.4,4.4,45.6,6.6c12.8,1.8,25.5,3.8,38.3,5.4
		c24.1,3,48.2,6.3,71.8,12.3c12.5,3.2,25.3,5.3,38.1,6.4C1765.6,1414.4,1766.3,1417,1765.5,1422.1z"/>
	<path class="st4" d="M1245.8,2188c-8,0.5-13-4.7-19.3-6.8c-6.5-2.1-12.9-4.5-19-7.5c-32.8-15.9-68.3-25.5-100.6-43.2
		c-31.3-17.1-65.7-28.2-97.1-45.5c-29-16-60.2-27.3-90-41.6c-16.1-7.7-31.9-15.9-47.8-23.9c-2.4-1.2-4.7-2.4-7.1-3.5
		c-1.5-0.7-2.3-1.9-2.1-3.6c0.3-1.8,1.6-2.2,3.2-2.5c5.7-0.9,11.4-2,17.1-3c1.4-0.3,2.9-1,3-2.3c0.7-4.7,3-3.2,5.9-2.1
		c16.4,6.1,32,13.9,47.8,21.2c20.7,9.5,42.2,16.9,63.1,25.8c21.4,9.1,42.6,18.7,64.6,26.3c33.6,11.7,65.6,27.2,98.5,40.6
		c18.6,7.6,37.3,14.9,56.1,22.1c12.2,4.7,24.9,8.2,37.4,12.3c7.1,2.4,7.4,4.3,2.9,10c-4.2,5.2-7.5,11-10.2,17.1
		c-0.4,0.9-0.5,1.9-0.5,2.9C1252.4,2187.5,1252,2188,1245.8,2188z"/>
	<path class="st4" d="M1265.7,2078.4c-11.1-5.6-21-9.2-31-12.9c-24.9-9.2-49.7-18.7-74.8-27.5c-37-12.9-74.3-24.9-111.3-38
		c-29.7-10.6-59.2-21.7-88.5-33.5c-15.5-6.3-30.3-14.5-45.3-21.9c-1.7-0.8-3.4-1.7-2.9-4c0.4-2,1.8-3,3.8-3.5
		c7.3-1.7,14.5-3.4,21.7-5.4c2.4-0.7,4.5-0.4,6.7,0.5c16,6.5,32.2,12.4,48.4,18.4c42.1,15.8,84.6,30.4,126.4,46.9
		c29.5,11.6,60,20.6,90.1,30.5c14,4.6,28,9.3,42.2,13.7c5.1,1.6,8.1,6.3,13.3,7.5c1.3,0.3,1.3,1.9,1.1,3
		C1264.4,2060.4,1262.4,2068.7,1265.7,2078.4z"/>
	<path class="st4" d="M1341.7,1679.1c-27.2,0-54.3-0.1-81.5,0.1c-3.9,0-7.6-0.5-11.4-1.2c-5.1-0.9-7.7-4.5-7.1-9.7
		c1.5-12.2,4.2-24.1,8-35.8c1.8-5.5,4.5-6.6,10.2-5.5c14.3,2.9,28.7,4.3,43.3,5.3c20.1,1.3,40.1,2.5,60.2,1.8
		c19.2-0.6,38.2-3.2,56.9-8c5.7-1.5,10,1.4,11.7,7c3.2,10,4.3,20.4,7.5,30.4c3.5,11.1-2.1,15.3-12.5,15.5
		C1398.7,1679.5,1370.2,1679.1,1341.7,1679.1C1341.7,1679.1,1341.7,1679.1,1341.7,1679.1z"/>
	<path class="st4" d="M1236.7,1973.5c0,7.5-4.8,10.4-11.8,7.7c-13.5-5.2-26.3-11.8-40-16.7c-20.2-7.2-40.5-13.8-61-20.2
		c-20.7-6.5-41.6-12.5-62.4-18.8c-20.2-6.1-40.3-12.2-60.4-18.6c-9.5-3-18.7-6.8-28.1-10.2c-4.1-1.5-8.2-2.6-12.6-2.7
		c-4.7-0.1-9.7-9.5-7.5-13.7c1.1-2.1,2.8-1,4.3-0.5c9.9,3.2,19.7,7.3,29.9,9.3c39.3,7.7,77.1,20.8,115.3,32.3
		c29.4,8.9,58.7,18,87.3,29.3c12.6,4.9,26.1,7.4,39.6,9.3c3.4,0.5,5.8,2,6.2,5.4C1235.9,1968.2,1237.2,1970.9,1236.7,1973.5z"/>
	<path class="st4" d="M1411.7,2061.9c0.1,5.7-0.9,6.4-6.8,5.4c-4.7-0.7-9.6-0.7-14.4-1.1c-16.7-1.4-33.4-1.9-50.1-3.3
		c-13.4-1.1-26.8-2-40.2-1.9c-5.5,0-11,0.3-16.3,1.6c-2.2,0.5-3.1-0.2-3.8-1.9c-2-5,3-12.2,8.2-11.5c13.9,2,27.9,0.6,41.9,0.8
		c14.5,0.2,28.9,1,43.4,1.4c9.9,0.2,19.9,0.7,29.7,1.7C1408,2053.5,1411.7,2057.4,1411.7,2061.9z"/>
	<path class="st3" d="M1686.2,1400.1c-16.1,21.6-37,34.5-63.2,37.6c-17.7,2.1-34.8,7.4-52.4,9.7c-14.5,1.9-29.1,3.1-43.7,3.6
		c-25.2,0.8-50.3-0.9-75.4-0.9c-33.5,0-66.8,2.8-99.9,7.6c-29.3,4.2-58.7,7.6-88.1,10.6c-24.8,2.5-49.7,4.5-74.7,4.5
		c-49.2,0-97.3-8.1-144.4-22.1c-23.7-7.1-47-15.5-69.8-25.2c-6.6-2.8-12.8-6.5-16.4-13.2c-3.3-6.1-2.8-7,3.8-8.6
		c17.8-4.4,36.1-5.7,54.2-8.4c25.2-3.7,50.4-7,75.6-10.6c30.4-4.4,60.9-8.9,91.3-13.4c25.3-3.8,50.6-7.9,76-11.5
		c22.2-3.1,44.5-5.4,66.7-8.7c12-1.8,23.5,1.3,35.1,2.6c21.3,2.4,42.5,5.5,63.7,8.6c27.1,4,54.2,8.4,81.4,12.4
		c29.3,4.3,58.6,8.5,87.9,12.6c24.9,3.5,49.7,7,74.6,10.5C1674.1,1398.5,1680.1,1399.3,1686.2,1400.1z"/>
</g>
<path class="st5" d="M1521.9,609.1c0.4,2.1,0.9,4.2,1.2,6.3c2.2,14.6-9.1,26.4-23.8,24.7c-1-0.1-1.9-0.3-3.5-0.6
	c3.3,11.9-0.2,22.8-2.6,33.9c-0.4,1.9,0.7,3.5,1.4,5.2c9.3,23.4,18.6,46.7,27.9,70c1.1,2.7,1.8,5.4,2.3,9.3
	c-4.7-4.4-6.6-9.9-11.1-13c11.3,32.9,20.8,66.2,29,100.3c1.9-2.1,3.1-4,4.8-5.2c2.5-1.8,2.5-3.9,2.1-6.5
	c-4.2-30.4-9.9-60.5-15.2-90.6c-0.7-4.3-1.4-8.6-1.4-12.9c0-8.6,5.5-15.9,13.1-18.2c8.2-2.4,16.3,0.6,21.2,8.1
	c1.3,1.9,2.4,4,3.1,6.2c18,50.2,30,101.5,31.2,155c0.1,5.8,0.1,11.7-0.1,17.5c-0.1,3,0.2,5.3,3.8,5.7c0.8,0.1,1.5,0.7,2.3,1
	c6.6,2.5,9.5,6.2,8.9,14.2c-1.6,22.2-1.6,44.6-2.7,66.9c-0.5,10.4-2.7,20.8-4.8,31c-1,4.8-2.7,4.3-5.2,1.6
	c-6.7-7.1-14.4-12.9-22-18.8c-22.3-17.6-47.4-30.1-73.8-40.3c-11.3-4.4-21.9-10.5-34.2-12.2c-28-3.9-55.4-2.7-81.8,8.5
	c-4.9,2.1-10,3.7-15.2,4.7c-1.9,0.4-4.2,1-5.3-1.3c-1-2.2,0.7-3.8,2.1-5.2c4.4-4.5,9.9-7.3,15.5-9.9c2.4-1.1,3.8-2.3,4.2-5.4
	c1.4-9.7,14.4-19.4,26.4-20.2c7.5-0.5,14.9-0.8,22.4-1c3.2-0.1,5-0.8,5.7-4.5c1.5-8,7.4-13.3,15.8-14.5c5.6-0.8,11.2-1.2,17.8-1.9
	c-5-4.8-9.9-8.3-14.9-11.7c-3.2-2.1-6.6-4-9.5-6.4c-5.8-4.7-7.9-11.7-5.6-17.9c2.2-5.9,8.6-9.7,16.1-9.5c7.2,0.2,13.5,3.2,19.6,6.8
	c5,3,9.7,6.4,14.3,10c1.2,1,2.5,3.2,4.1,2.2c1.7-1.1,0.6-3.4,0.2-5.1c-2.3-10.2-4.7-20.4-7.2-30.6c-9.6-38.1-21.8-75.4-35.4-112.3
	c-0.4-1.2-1-2.4-1.8-4.3c-6.3,7.6-14.2,10-24.5,8.1c3.1,7.6,4.6,14.8,8.3,21.3c2.6,4.6,5.3,9.2,7.7,14c6.6,13.2,5.8,26-2.2,38.4
	c-8.2,12.6-17.7,24.2-27.4,35.6c-22.8,26.9-46,53.6-70.8,78.8c-4.4,4.4-9.3,7.7-15.7,7.8c-6.8,0-12.3-2.9-15.6-9
	c-3.6-6.6-3.1-13.2,0.7-19.5c3-4.9,6.9-8.9,10.7-13.1c25.5-28.2,49.2-57.8,70.9-89.1c7.5-10.9,8.4-21.5,5.8-33.5
	c-0.6-2.6-1.4-5.2-3.2-7.7c-0.2,3.2-0.4,6.5-0.7,9.7c-1.9,19.3-9.7,36.2-20.9,51.7c-15,20.7-31.5,40.1-49.4,58.3
	c-6.9,7-13.2,14.6-19.4,22.1c-5.6,6.8-12.9,9.4-21.5,7c-8.1-2.2-12.4-8.1-13.8-16.1c-1.2-7.2,1.6-13.4,5.9-19
	c8.8-11.7,19.3-22.1,29.4-32.7c10.9-11.5,21.3-23.4,30.3-36.4c20.4-29.3,25.8-61.1,16.9-95.6c-6-23-14.3-45-25.9-65.8
	c-3.5-6.3-7.2-12.4-11.6-18c-3.6-4.5-6.1-9.4-8.2-14.8c-8.6-22.2-21.4-42.1-33.6-62.4c-9.6-16.1-19.5-32-27.5-49.1
	c1.8-1,2.6,0.3,3.4,1.3c14,16.9,28.6,33.5,37.7,53.9c1.2,2.7,4.3,4.9,10.8,8.2c-1.3-6.8-0.3-13,3.8-18.5c1.4-1.8,0.1-3.2-0.8-4.5
	c-10.1-15.3-17.6-32.1-28.9-46.7c-1.3-1.7-2.4-3.6-3.3-5.6c-3.5-6.8-1.9-7.2-11.4-5.1c-3.9,0.8-7.8,1.6-11.7,2.6
	c-2.7,0.7-4.3,0.5-4.8-2.8c-0.6-4.3-2.3-8.4-2.6-12.7c-0.3-4.2-2.2-6.6-5.6-8.7c-3.3-2-6.1-4.7-8-8.1c-4.9-8.6-1.3-20.3,8.1-23.1
	c4.9-1.5,9.4-3.7,14-5.5c25-9.8,50.6-17.8,77-22.6c4.8-0.9,6.6-6.1,12-6.3c-4.4-3.9-8.8-6.3-12.9-9c-1.9-1.3-3.9-2.6-5.5-4.3
	c-3.8-4.2-2.3-9.7,3.2-11.4c2.3-0.7,4.9-1,7.4-1.1c22.7-0.6,44.6,3.5,64.1,15.4c15.5,9.5,31.9,15.6,49.4,20.2
	c32.3,8.6,59.7,26.7,85.2,47.7c7.9,6.5,15.9,11.2,26.1,13.5c23.4,5.2,45.2,14.6,66.2,26.1c8.5,4.7,17.9,7.2,26.8,10.9
	c14,5.8,27.8,12.1,40.7,20.1c1.8,1.1,3.7,2,5.4,5c-34.7-3.2-67.9-10.6-101.9-14.5c9,19.5-0.7,36-22.3,38.5
	c22.2,14.6,45.2,25.8,64.8,42.4c-8-0.2-15.6-2.4-23.2-4.3c-20.6-5.3-41-11.5-61.2-18.1c-3.8-1.2-4.7-0.3-4.8,3.2
	c-0.2,3.8,1.2,7.2,2,10.7c1.2,5,2.1,10.1,1.8,15.3c-1,15.5-16.5,25-30.8,19c-1.3-0.6-2.4-1.9-4.1-1.4c0.3-0.4,0.1-0.7-0.3-0.7
	c-0.1,0-0.3,0.2-0.4,0.3C1521.5,608.7,1521.7,608.9,1521.9,609.1z M1482.7,467c0.1,0.3,0.2,0.4,0.2,0.4c2.5,2.1,5.1,2.4,8.2-0.1
	C1488.1,467.3,1485.5,467.1,1482.7,467z"/>
<path class="st6" d="M1666.6,883.7c-19.4-7.3-28.3-0.7-32.3,23.8c-3.6-6.9-7.1-12.8-11.2-18.3c-0.6-0.8-0.6-2.3-0.5-3.4
	c1.5-14.2,2.7-28.5,5.4-42.6c1.7-9.1,7.4-14.4,15.1-14.9c7.3-0.5,13.8,4,16.7,12.6C1664.3,854.6,1665.3,868.8,1666.6,883.7z"/>
<path class="st7" d="M2160.9,929c0,1.7,0,3.3,0,5c-2.7,2.7-3-0.6-3.7-1.7c-29-42.3-66.8-75.8-106.7-107.3
	c-11.4-9-24.6-15.4-35.3-25.2c-16.5-15.1-33.1-30-49.6-45c-0.9-0.8-1.6-2.3-3.5-1.7c1.5,7.1,3,14.3,4.5,21.4
	c7,34.1,12.6,68.4,16.6,103c2.9,25.3,5.3,50.7,6.7,76.1c1,17.6,1.8,35.3,0.5,52.9c-1.8,24.6-5.1,49-8.7,73.4
	c-4.4,30.4-10.4,60.4-20.6,89.4c-0.6,1.8-0.7,4.1-2.9,5.5c-1.3-12.2-2.5-24-5-35.5c-12.1-55.9-35.7-106.9-66-154.9
	c-10.4-16.5-23.8-30.8-39.8-42.4c-8.2-6-17.4-8.2-27.3-8c-7.7,0.1-14,6.1-12.6,11.8c1.3,5.3,1.5,10.8,3,16.1c2.3,8.3,3,17,2,25.7
	c-3.1,28.3-10.6,55.6-20.8,82.1c-0.2,0.5-0.8,0.9-1.3,1.5c-0.4-0.7-0.8-1-0.9-1.5c-11.5-41.7-30.4-79.9-54.2-115.8
	c-11.1-16.8-22.5-33.5-37-47.7c-4.6-4.5-9.8-8-15.9-10.1c-11.8-4.1-23.6-0.6-31.3,9.2c-6.5,8.2-8.2,18-9.4,28c-0.8,7-0.7,7-7,4.6
	c-1.1-0.4-2.3-0.9-3.4-0.9c-5.9,0.5-11-2-16.3-4.1c-8.2-3.3-16.2-6.9-24.1-11c-6.3-3.4-12.9-6.2-20-7.8c-27.4-5.9-55.3-5.5-82.5-1.5
	c-33.5,4.9-64.4,18.9-93.1,37c-13.1,8.3-26.4,16.8-36.6,29c-5.4,6.5-5.1,9.9,1.8,15.2c7,5.4,14.1,10.6,21.4,15.7
	c5,3.5,9.4,7.4,12.9,12.3c5.1,7,11.1,13.3,17.8,18.9c5.3,4.4,11.4,6.6,18.4,6.6c4.6,0,9.4,0.3,13.9,1.1c24.5,4.4,45,16.7,63.5,32.8
	c2.4,2.1,4.3,4.6,6.3,7.1c0.9,1.1,2.3,2.5,1.5,4c-0.9,1.7-3,1-4.6,0.8c-4.7-0.9-9.5-1.6-14.1-3c-7.3-2.3-13.1,1-20.2,4.1
	c14.6,9.6,28.3,18.7,42,27.7c0.9,0.6,1.8,0.7,2.8,0.2c11.5-5,22.8-3,33.3,2.3c20.6,10.3,35.1,27.1,46.4,46.9c1.2,2.1,2,4.6,2.9,6.9
	c0.4,1,1,2.5-0.2,3.2c-0.6,0.4-1.9-0.1-2.8-0.5c-3.1-1.5-6.2-3.2-9.3-4.8c-2.6-1.4-5.1-3.3-9.1-2.9c12.5,12.2,23.9,24.5,33.3,38.5
	c0.6,0.9,1.7,1.6,2.7,2c20.6,7.9,31.3,24.9,40.3,43.5c1.1,2.3,2.9,5.4,1.1,7.4c-1.5,1.6-4.3-0.6-6.5-1.1c-0.4-0.1-0.9,0-1.5,0
	c-0.2,1.9,1.3,3,2.1,4.4c5.4,9.2,10.9,18.3,14,28.6c7.3,24.5,6.3,49,0,73.5c-3,11.7-8.6,21.4-20.2,27c-4.5,2.2-8.7,5.1-12.4,8.4
	c-2.2,2-4.1,2.8-7,2.7c-12-0.3-24,0.1-35.9,1.6c-27.8,3.4-54.2,12.1-79.9,22.9c-11.5,4.8-23.3,9.1-33.1,17.3
	c-5.8,4.8-11.5,9.6-18.7,12.9c-12.1,5.6-23.4,12.6-33.1,22.1c-5.3,5.1-11.8,6.6-19,4c-1.7-0.6-3.5-1.2-3.3-3.7c0.2-3.5,0-7,0.4-10.5
	c0.5-6-0.4-8.4-6.2-10.1c-11.9-3.5-24-5.3-36.4-4c-8.1,0.9-16.1,2.6-23.9,4.7c-4.8,1.3-11.5-1.7-11.4-6.1c0.1-7-4.3-6.1-8.4-6.8
	c-1.9-0.3-3.5-0.3-5.2,0.7c-4.2,2.4-8.9,3.7-13.6,4.9c-16.5,4.2-28.1,14.7-36.2,29.1c-2,3.6-3.7,3.9-7,2.6
	c-10.3-4.1-15.2-17.2-10.7-28.8c0.6-1.6,2.2-2.9,1.7-5.2c-14.3,1.7-28.6,2.5-41.5,9.6c-8.9,4.9-18.9,7.4-28.3,11.2
	c-2.9,1.2-6.4,2-9-0.4c-3-2.7-2.1-6.4-1.1-9.8c0.2-0.8,0.5-1.6,0.9-2.3c5.2-12,13.1-21.6,25-27.4c1.9-0.9,3.8-1.5,3.1-4.6
	c-1.3-5.9-1.1-6-7.2-4.5c-2.6,0.6-5.2,1.3-7.7,2c-5.6,1.5-11.1,3.3-16.5,5.5c-3.6,1.4-7.3,1.5-10.1-1.8c-2.8-3.3-2.3-6.9-0.2-10.2
	c1.6-2.5,3.4-4.9,5.4-7.1c6.8-7.3,15.5-11.3,25-13.8c16.9-4.4,34.2-5.9,51.5-4.4c7.7,0.7,13.3-0.4,17.5-7.5c1.6-2.6,2.3-4.3,1.1-7.1
	c-2.5-5.8-4.9-11.7-7.1-17.6c-0.9-2.4-2.2-3.7-4.8-3c-4.7,1.2-9.3,0.5-13.9-0.3c-3.4-0.6-4.6,0.7-5.7,3.6
	c-4.5,11.7-13,19.1-25.1,22.3c-4.7,1.2-9.4,2-14.1,3.1c-23.7,5.3-48,7.3-71.5,13.7c-7.4,2-15.1,2.6-22.8,1.7
	c-8.9-1-11.8-5.2-9.6-14.3c-7.7,1.4-15.6,0-22.6,4.9c-3.5,2.5-7.8,3.9-12,4.7c-5.6,1.1-10.9-1.4-11.9-6.5c-1-5.6-4.4-5.4-8.3-4.7
	c-19.3,3.5-38.6,7.1-57.9,10.6c-8.1,1.5-10.5,0.1-14.2-7.1c0-0.3,0-0.7,0-1c1-0.9,1.8-1.9,2.9-2.7c20.8-14.7,41.7-29.3,62.5-44
	c3.7-2.6,7.6-4.7,11.9-6.3c31-11.6,62.6-20.5,95.4-25.1c1.1-0.2,2.6,0,3.1-1.2c0.5-1.2-0.9-2-1.6-2.8c-0.9-0.9-1.9-1.8-2.9-2.7
	c-15.8-14.5-30-30.3-41.8-48.2c-7.1-10.8-14.4-21.6-21.8-32.3c-9.6-14-17.8-28.9-25.4-44.1c-10.1-20.3-16.9-42-25.5-62.9
	c-18.1-44-25-89.7-19.4-137c4.7-39.9,16.7-77.7,33.1-114.2c16-35.8,35.7-69.6,56.3-103c9.9-16,19-32.6,31.2-47
	c28.6-33.5,55.6-68.1,79.6-105.1c7.6-11.7,15.4-23.4,21.1-36.2c10.8-24.4,17.2-49.7,14.7-76.6c-0.4-3.8-1.2-7.5-0.9-11.4
	c0.9-12.2-0.6-24.3-3.4-36.2c-12.6-53.4-61.5-77.8-104.6-71.6c-24.6,3.5-47.5,11.7-68.7,24.5c-18.8,11.4-35.6,25.2-46.6,45
	c-1.1,2-2.5,2.2-4.5,1.6c-5.6-1.7-9.6-5.5-12.7-10c-11.4-16.5-19.7-34.4-23.6-54.1c-1-5-2.1-9.8-5.3-13.8c-2-2.5-1.5-4.5-0.4-7.3
	c3.7-9.4,10.8-15.9,17.7-22.7c8.3-8.1,15.8-17.2,25.7-23.6c24.2-15.6,47.8-32.2,71.2-49.1c13.4-9.7,22.4-20.9,26.4-37
	c2-8.2,5-16.3,9.9-23.4c12.4-18,19.5-38.1,23.8-59.4c1.4-7,1.9-14,2.6-22.1c1.6,1.9,2.1,3.4,3.4,4.1c15.5,8.7,24.3,22.8,30.9,38.6
	c0.5,1.2,0.4,3.1,1.8,3.3c1.7,0.3,2.2-1.7,3.1-2.8c19.3-26.5,36.2-54.3,46.5-85.7c1.3-4,2.7-3.7,5.4-1.4
	c8.1,6.7,12.8,15.8,16.7,25.2c11.5,27.7,18.5,56.3,16.1,86.6c-0.2,2.2-0.7,4.3,3.1,3.8c13.3-1.7,22.6,4.8,30.2,14.8
	c1.9,2.6,1.8,4.5,0,7c-6.3,8.7-10.8,18.4-14.5,28.4c-2.2,5.9-4,12-4.4,18.4c-0.1,2.1-0.2,3.9,2.9,4c15.3,0.8,27.2,9,38.6,18.1
	c6.3,5,11.8,10.9,15.3,18.2c0.9,1.8,3,3.9,1.4,5.8c-1.3,1.5-3.7,0.2-5.7-0.1c-3.1-0.5-6.1-2-10-1.5c4.6,5.7,8.6,10.8,11.8,16.5
	c1.6,2.9,3.7,4.9,6.7,6.4c10.1,5.3,18.2,12.7,24,22.6c13.4,22.8,19.4,47.3,17.1,73.7c-0.4,4.4-0.6,9.1-3.9,13.6
	c-3.8-6.6-5.7-13.4-8.2-19.8c-1.5-3.8-3.9-2.3-6-1.9c-2.8,0.7-0.9,2.7-0.5,4c4.5,14.7,8.1,29.5,9.9,44.8c0.3,2.8,1.8,4.9,3.5,7
	c6.3,7.5,10.6,16.1,12.9,25.6c3.7,15,4.8,30.3,3.6,45.6c-1.3,17.9-5,35.3-13.9,51.1c-0.7,1.2-1.2,3.4-2.8,3.1
	c-2-0.4-1.2-2.7-1.4-4.3c-0.7-7.1-1.4-14.3-1.8-21.4c-0.2-4.5-4.3-4.5-6.7-5.5c-2.4-0.9-2.2,2.6-2.7,4.2
	c-3.5,11.3-7.3,22.5-11.8,33.4c-0.8,2.1-1.2,3.8,0,6.1c5.4,10.1,6.9,21,4.9,32c-5.8,32.3-18.4,61.8-38.2,88.1
	c-0.9,1.2-1.6,3.1-4.1,2.5c0.4-8.7,2-17.2,3.5-25.7c0.9-5,0.6-8.3-4.7-10.7c-2.9-1.3-4-1.7-5.5,1.4c-6.4,13.5-13,27-19.7,40.4
	c-1.1,2.3-0.7,4,0.6,6c4.8,7.5,7,15.7,7,24.6c0,7.2-0.3,14.3-1.5,21.4c-2.1,11.8-4.5,23.6-10.9,34c-0.8,1.4-1.4,3.5-3.2,3.5
	c-1.9,0-2.3-2.3-2.7-3.8c-1.8-6.4-4.6-11.6-12.1-12.3c-0.3,0-0.6-0.3-0.9-0.5c-2.3-1.5-3.4-0.9-4,1.8c-2.3,10.7-4.5,21.5-5.3,32.5
	c-0.3,4.7-1.5,9.4-0.3,14.8c4.6-4.2,9.5-7,14.4-9.6c5.1-2.8,10.2-5.6,15.3-8.4c54-30,99.6-69.5,135.1-120.2
	c6.4-9.1,12.9-18,15.4-29.4c4.4-19.8,9.8-39.4,14.4-59.2c4.3-18.3,9.2-36.5,9.9-55.4c0.5-14.5,1.3-28.9,2.2-43.4
	c1.2-20.4-0.2-40.6-2.8-60.8c-3.6-27-9.3-53.7-14.6-80.5c-4.3-22.2-8.9-44.4-19.6-64.7c-1.2-2.3-1.4-5.1-2.2-7.6c-1.2-3.7,0-5,3.8-6
	c39.3-10.5,79-19.5,119.7-21.5c15.4-0.8,30.8-2.1,46.4,2c19.9,5.3,39.1,12,57.8,20.4c31.3,14.1,59.8,32.9,87.9,52.3
	c23.3,16.1,46.1,32.8,66.8,52.2c3.2,3,6.5,5.7,10.1,8.1c16.9,11.1,33.1,23,48.9,35.6c44.8,35.8,85.2,76.2,123,119.2
	c36.3,41.3,69.1,85.1,96,133.1c21.6,38.5,40.6,78.3,57.9,119c7,16.4,13.9,32.8,17.9,50.3C2155.9,907.5,2156.5,918.7,2160.9,929z
	 M1394.8,1394.4c-1-0.6-1.4-1-1.8-1c-13-0.6-25.8-2.5-38.5-5c-2.6-0.5-2.8,0.6-2.7,2.6c0.4,5.7-0.2,11.3-1.6,16.8
	c-1.2,5-1.1,5.4,3.8,3.6C1367.7,1406.5,1380.4,1399.1,1394.8,1394.4z"/>
<path class="st8" d="M956.3,1391.9c18.1-11.5,35.6-23.9,52.7-36.7c13.2-9.8,27.2-17,42.8-21.8c14.6-4.5,29.1-9.2,44.1-12.4
	c0.8-0.2,1.6-0.4,2.4-0.6c1.7-0.4,3.9-0.3,4.6,1c1,1.9-1.3,2.8-2.6,3.5c-10,6-20.3,11.4-31.6,14.6c-3.5,1-7.3,0.7-10.9,1.2
	c-7.4,1.1-14.1,4-19.9,8.7c-11.6,9.4-15.2,22.3-10.1,36.6c1.2,3.3,1,4.2-2.9,4.8c-15.4,2.5-30.7,6-46.1,8.4
	c-5.6,0.9-11.4-0.5-17.2,0.8c-2.9,0.6-3.2-3.4-5.5-4.2C956.3,1394.5,956.3,1393.2,956.3,1391.9z"/>
<path class="st8" d="M1709,915.6c-3.9-3.5-8-7.1-12-10.7c-8.9-8-18.8-11.7-31.2-9.8c-4.8,0.8-6.8,5.1-11.5,5.8
	c-1.9-6.2-1.5-12.9-2-19.4c-2.3-27.5-5.3-55-9.5-82.3c-6.3-41.8-14.8-83.2-24.1-124.5c-6.6-29.5-14.1-58.9-20.7-88.4
	c-4-18-5.8-36.4-9-54.6c-1.5-8.8-3.8-17.5-5.9-27c-2.5,2.6-3.6,6-7.4,5.7c-3.9-0.4-6.3-3-8.4-5.8c-8.6-11.4-20-20-29-31
	c-0.2-0.3-0.4-0.6-0.7-0.7c-12.7-5.1-18.5-16.9-25.6-27.2c-5.7-8.3-12.9-14.5-21.5-19.3c-0.2,0.2-0.5,0.5-0.5,0.7
	c1.4,9.9-0.4,19.3-3.9,28.6c-4,10.9-4.7,22.5-4.9,34c-0.7,27.4,2,54.5,5.5,81.6c2.1,15.7,6.2,31,10.7,46.1
	c6.8,22.7,12.7,45.5,16.6,68.8c1.5,8.8,3.8,17.5,6.1,26.2c0.7,2.8,0.3,4.6-1.4,6.8c-13.7,17.3-29.7,32.4-45.1,48.1
	c-15.1,15.5-30.7,30.5-47.1,44.7c-1.4,1.2-3.1,2.5-3.5,4.1c-1.1,4-4.1,5.8-7.2,7.7c-28,17.4-52.1,39.2-73.2,64.5
	c-6.5,7.8-12.4,16.1-17.7,24.8c-8.1,13.3-10.2,19.9-11.3,37.2c-5.8-6.3-11.5-11.7-17.4-17c-7.8-7-15.6-14.1-23.9-20.5
	c-5.6-4.3-6.1-10.8-1.1-15.7c7.4-7.4,15.8-13.8,24.2-20.1c30.7-22.9,62.7-44.1,92-68.8c9.3-7.8,18.5-15.8,27.6-23.9
	c6.2-5.4,10.6-12.4,15.3-19.1c10.5-14.8,21.4-29.3,30.6-45c3.3-5.7,4-12.3,6.2-18.3c3.6-10,1.5-20.4,2.7-30.6
	c3.5-29.4,3.7-59.1,9.7-88.2c0.7-3.3-0.4-6.6-0.4-10c-0.1-12.2-0.3-24.3-0.2-36.5c0.1-18.5-1.4-36.9-2.7-55.4
	c-0.4-5-1.8-10.5,0.2-14.9c4.4-9.9,1.5-20.1,2.7-30.1c0.1-1,0.9-2.6-0.7-3c-5.6-1.6-5.3-6.6-5.4-10.5c-0.3-12.8,0.5-25.3,9.7-35.7
	c2.4-2.7,2.4-6.8,3.3-10.3c0.5-2.1-1.2-2.4-2.4-3.2c-6.1-4.1-6.3-11.3-0.4-15.8c2.4-1.9,5.2-2.9,8-3.9
	c28.9-10.8,58.7-15.8,89.6-13.9c9.3,0.6,18.3,3.3,27.5,4.8c11.8,1.9,23.9,1.1,35.8,2.9c4.1,0.6,8.3,1,13,2.7
	c-6.2,2.4-12.4,1.2-19.2,3.9c17.1,3.4,32.5,8,47.4,14c36.9,14.9,66.9,38.8,91.1,70.1c3.4,4.4,7.4,8,12,11.1
	c11.5,7.7,22.6,16,33.2,24.8c1,0.8,1.8,1.9,3.5,1.9c0.7-2.2-1.2-2.9-2.2-3.9c-6.1-6.2-12.3-12.2-18.3-18.4c-1.9-1.9-3.5-4-5.1-6.1
	c-0.9-1.3-2.5-2.8-0.8-4.4c1.4-1.3,2.9,0.1,4,0.9c13.2,8.2,25.4,17.6,37.4,27.5c23.7,19.5,47.1,39.2,69.5,60.2
	c1.9,1.8,3.6,3.9,5.2,6.2c-9.6-3.4-17.4-10.5-26.4-15.1c-0.3,0.4-0.5,0.9-0.8,1.3c8.1,8.5,16.1,17.2,24.4,25.6
	c10.2,10.3,20.7,20.2,31.2,30.3c3.1,3,5.8,6.3,7.6,10.3c0.4,0.9,1.2,1.8,0.5,2.8c-0.6,0.9-1.8,0.9-2.7,0.6c-2.7-0.9-5.4-1.7-7.9-2.9
	c-9.4-4.7-18.3-10.3-26.3-17.2c-78.4-67.3-163.8-124.2-254.9-172.9c-22.3-11.9-45.4-21.3-70.5-25.4c-17.7-2.9-35.4-3.2-53.2-0.5
	c-5.3,0.8-8.6,3.9-11.8,7.5c-3.1,3.5-6.1,7-9.5,11c10.7,3.4,16.7,11.7,23.4,19.3c10.4,11.9,20.4,24.2,30,36.8
	c10.6,14,15.9,29.8,15.4,47.5c0,1.6,0.1,3,0.9,4.3c23.4,41.9,39.3,86.9,54.7,132.1c24.7,72.5,45.3,146.2,60.3,221.3
	c3.7,18.6,6.9,37.3,9.3,56.1C1709,912.8,1709.5,914.6,1709,915.6z M1834.6,483.7c-0.4,2.4,1.5,3,2.6,3.9
	c6.8,6.4,13.6,12.7,20.5,18.9c1.5,1.3,3.3,4.7,4.7,3.2c1.9-2-0.6-4.8-2.1-6.9c-0.7-0.9-1.8-1.4-2.7-2.1c-6.3-4.9-12.6-9.8-18.9-14.6
	C1837.5,485.2,1836.6,483.6,1834.6,483.7z M1832.2,482.2c-1.2-3.2-3.4-5.3-7.5-6.7C1826.8,479.2,1829.3,481,1832.2,482.2z"/>
<path class="st5" d="M1389.9,1396.5c1.5-0.8,2.7-1.5,5.1-2.8c-6.2-0.6-11.3-1.1-16.4-1.7c-5.8-0.7-11.5-1.5-17.3-2.4
	c-6.1-0.9-7.6-2.6-6.1-8.7c2-8.5,2.6-17.1,3.5-25.7c3.9-35.4-1.2-69.3-15.4-101.9c-4.3-9.9-9.6-19.3-12.5-29.8
	c-1-3.7-0.2-5.3,3.2-6.9c17.9-8.1,35.7-16.4,54.8-21.1c7.5-1.8,15.2-1.8,22.9-1.5c1.4,0.1,3.3-0.3,3.7,1.7c0.3,1.8-1.4,2.5-2.7,3.2
	c-2.5,1.2-5.1,2.4-7.8,3.4c-5.7,2.1-10.7,5.2-15.6,8.7c-1.5,1.1-2.2,2.2-2.5,4c-0.8,6.7-3.7,12.5-9,16.7c-2.2,1.8-1.7,3.2-0.9,5.5
	c2.5,7.1,8.9,11.5,12.4,18c6.9,13.1,14.4,25.9,22,38.6c5.8,9.9,11.7,19.8,18.3,29.2c8,11.5,19.4,19.5,31.1,27c2.1,1.3,2.9-0.1,4.2-1
	c4.2-2.9,5.1-2.5,6.7,2.1c2.7,7.4,5.1,14.7,2.3,22.8c-1.1,3.2,0,6.4,2.7,8.6c2.3,2,1.1,2.9-0.6,4c-5,3.3-10.4,3.4-15.9,1.9
	c-4.5-1.2-8.9-2.9-12.9-5.3c-3.3-2-6.1-1.7-9.2,0.2c-6.1,3.7-12.3,7.2-18.5,10.8c-6.7,3.9-13.5,5.6-20.8,1.8
	C1395.8,1394.6,1393.1,1397.2,1389.9,1396.5z"/>
<path class="st8" d="M1737.9,615.9c5,1.3,6.8,4.9,9,7.8c19.2,25.2,35.2,52.4,50.3,80.2c28.6,52.6,54.5,106.6,79,161.2
	c18.9,41.9,33.7,85.4,43.1,130.5c4.2,20.1,6.9,40.3,7.1,61c-1.9-0.5-1.9-2.5-2.6-3.8c-11.7-25.8-24.4-51.1-40.7-74.4
	c-1.3-1.9-2.1-4.1-2.8-6.3c-11.6-38.3-26.8-75.2-43.6-111.4c-9.9-21.3-16-44-23.8-66.1c-16.4-46.5-32.7-93.1-54.2-137.7
	C1752.2,643.4,1745.1,630.1,1737.9,615.9z"/>
<path class="st8" d="M1177.4,1049.1c-0.4,11.6-4.4,22.5-6.1,33.9c-3.4,23.4,0.1,46.1,7.4,68.4c5.4,16.4,12.5,32,22.5,46.1
	c12.9,18.3,21.2,38.8,30,59.1c5.4,12.3,11.1,24.5,15.6,37.2c1.6,4.5,3.5,9,3.4,14c0,3.9-1.9,5.2-5.4,3.6c-2-0.9-4-1.7-5.7-3
	c-11.2-8.5-21.5-18.2-29.1-30c-13.9-21.5-26.4-43.8-37.4-67c-9.1-19.2-16.3-39-18.8-60.2c-0.8-6.4-1.4-12.9-1.4-19.4
	c-0.1-21.8-1-43.6,1-65.4c0.7-7.4,1.5-14.8,4.2-22c2.4-6.3,5.8-7.7,13.1-6.6C1176,1038.6,1177.8,1042,1177.4,1049.1z"/>
<path class="st8" d="M1178.4,300.8c-16.8,0.8-31.5,7.4-47.3,8.4c-2.9,0.2-5.9,1.2-8.7,2.3c-3,1.1-5.6,0.9-7.6-1.7
	c-2-2.4-2.1-5.2-0.7-8c1.3-2.6,3.1-4.8,5.5-6.4c10.5-7.3,22.2-11.2,35.1-11.3c4.7,0,8.7,1.3,12,5
	C1170.2,293,1174.1,296.5,1178.4,300.8z"/>
<path class="st8" d="M1132.8,1312c9.8,8.5,20.1,15.4,32,19.7c1.7,0.6,3.3,1.5,4.8,2.5c13.8,9.5,28.3,17.4,44.9,21.1
	c3.2,0.7,6.5,1.5,9.1,3.8c1.2,1.1,4.6,0,4,2.8c-1.2,6.2-2.9,7.5-7.7,6.5c-2.3-0.5-4.6-0.9-6.7-1.8c-16.8-7.6-34.1-14-48.8-25.8
	c-10-8-20.9-14.8-30.7-23.1C1131.6,1315.9,1131,1314.5,1132.8,1312z"/>
<path class="st8" d="M1022.4,368.3c0.1,9.6-10.9,19.3-20.4,18.2c-2.8-0.3-4.5-1.9-5.7-4.3c-5-10.3,4-24.5,15.5-24.4
	C1018.5,357.9,1022.4,361.7,1022.4,368.3z"/>
<path class="st9" d="M1481,1419.9c-8.3-7.4-18.3-11.1-29-11.6c-12.2-0.6-23.9-3.9-36-5c-5-0.5-9.9-1.3-14.8-2.7
	c0.1-1.6,1.6-1.8,2.6-2.4c8.8-4.8,17.8-9,27.5-11.6c5.5-1.5,10.6-3.7,15.6-6.5c17.2-9.6,35.6-14.7,55.5-13.4c1.6,0.1,5,1.8,4.6-2.2
	c-0.3-3,1.2-7-4.9-6.8c-23.3,0.8-44.3-6.5-63-20c-10.1-7.3-17.1-17.6-24.4-27.6c-16.2-22.5-30.7-46-39.3-72.6
	c-1.5-4.6-2.9-9.2-3.4-14c-1.5-13.3,3.6-24,14.4-30.9c14.9-9.5,30.8-18.5,48.3-20.4c41.3-4.6,79.2,4.4,110.4,33.7
	c17.9,16.7,33.7,35.1,43.9,57.6c1.9,4.1,3.3,8.3,4.3,12.8c0.2,1.1,0.9,2.5,0,3.3c-1.3,1.1-2.5-0.1-3.5-0.8
	c-8.7-6.4-17.4-12.8-26-19.4c-22.3-17-45.8-31.6-73.6-37.7c-14.9-3.2-30.1-5.6-45.1-8.4c-3-0.6-3.8,0.8-4.1,3.4
	c-0.4,2.9-0.1,4.3,3.5,4.8c32.2,5.1,58.1,21.3,79.1,45.7c5.5,6.4,9.6,13.7,12.5,21.5c8.2,22.1,19.8,42.5,31.9,62.6
	c7.9,13.2,3.9,27.3-10.4,34.4c-9.5,4.7-19.5,8.4-29.4,12.4c-14.2,5.8-28.2,12-41.7,19.2c-1.6,0.8-3.4,1.3-4.6,2.8
	C1481.7,1419.9,1481.3,1419.9,1481,1419.9z"/>
<path class="st9" d="M1275.1,1247.8c18.3,3.1,31.8-5.5,43.8-17.3c3.1-3.1,4.4-3.1,6.4,1.1c13.2,27.1,20.4,55.5,18.9,85.9
	c-0.9,18-5.9,35-10.7,52.2c-2.7,9.7-5.6,19.1-12.2,27c-7,8.4-15.2,12.6-26.3,10.6c-2.6-0.5-5.3,0-8-0.1
	c-13.1-0.3-23.4-9.3-24.8-22.3c-2.8-26.2-8.7-51.8-14.8-77.4c-2.1-8.9-4.5-17.7-6.9-26.6c-2.9-10.7-9.7-19.3-15.5-28.3
	c-13.8-21.6-28.4-42.7-39.7-65.9c-10.9-22.5-19.4-45.7-21.9-70.7c-2.5-25-1.8-49.7,11.6-72.2c9.1-15.3,22-26,39.8-29.3
	c12.6-2.3,25.6-1.3,37.3,3.8c18.7,8.2,36.7,17.9,52.9,30.9c14.3,11.5,21.4,25.7,23.2,43.9c3.4,34.7-1.3,68.3-11.8,101.2
	c-0.8,2.4-1.2,4.8-1.5,7.3c-2.4,15.4-10.9,26.3-24.6,33.1C1284.1,1238.1,1279.9,1243.1,1275.1,1247.8z"/>
<path class="st10" d="M1457,558.9c-1.2-6.8-0.3-13.5-0.2-20.1c0.2-18.5-1.2-36.9-3.4-55.3c-2-16.8-3.2-33.7-6.4-50.5
	c-2.9-15.6-9.1-30.2-11.7-45.8c-2.7-16.1-8-31.2-15.3-45.7c-0.3-0.6-0.5-1.2-0.8-1.8c-4.5-11.2-4.2-11.8,7.1-14.8
	c27.2-7.2,54.5-13.7,82.5-17.3c23.2-3,46.4-4.9,69.7-3.2c9.2,0.7,18.3,4.5,27.3,7.3c32.2,10.3,62.1,25.5,90.8,43.5
	c31.1,19.5,61.7,39.8,89.2,64c28.5,25,61,44.5,89.6,69.4c43.7,38.1,84.2,79.2,121.5,123.5c6.6,7.9,12.9,16.1,19.5,24.1
	c11.2,13.6,17.2,29.8,23.5,45.8c-0.4,0.3-0.7,0.6-1.1,0.9c-5.9-5.7-11.9-11.2-17.7-17c-22.4-22.3-43.6-46-66.6-67.6
	c-47.2-44.4-93.5-89.7-142.4-132.3c-22.5-19.6-44.4-39.8-68.6-57.4c-44.8-32.4-94.1-53.7-149.3-60.2c-25.3-3-50.8-3.9-76.2-0.4
	c-1,0.1-2,0.4-3,0.5c-12.1,1.4-21,6.6-25,19.1c-2,6.4-6,12.2-8.3,18.7c-1.7,4.7-2,9.2-1.2,14.2c3.8,23.6,4.3,47.3,1.9,71.2
	c-0.9,8.3-1.7,16.5-2.1,24.8c-0.2,4.1-1.6,7.8-3,11.5C1470.4,525,1463.7,542,1457,558.9z"/>
<path class="st10" d="M1951.7,1032.3c-0.9-2.9-2-5.8-2.8-8.8c-7.7-29.6-14.1-59.6-22.5-89.1c-13.4-46.7-31.6-91.4-52.2-135.3
	c-36.5-77.7-80.4-150.7-134.8-217.2c-10.8-13.1-17.5-28.2-25.6-42.7c-28.4-50.4-64.2-94.8-108.3-132.3c-15.3-13-32-23.9-51.7-29.3
	c-0.9-0.3-2.7-0.2-2.4-1.9c0.3-1.6,1.7-1.7,3.1-1.8c6.2-0.3,11.8,1.7,17.3,4.1c19.6,8.4,36.8,20.7,54,33
	c40.3,28.9,77.9,60.9,111.5,97.6c17.6,19.2,31.6,40.7,45,62.8c23.3,38.4,45.9,77.3,69.1,115.8c30,49.9,55.7,101.9,72.9,157.8
	c14.9,48.7,25.6,98.2,29.1,149.1c0.7,10.4,0.3,21,0.3,31.5c0,2.2-0.6,4.4-0.9,6.6C1952.4,1032.3,1952.1,1032.3,1951.7,1032.3z"/>
<path class="st10" d="M1549.3,396.7c7.5,7,14.3,14.2,21.9,20.2c17.6,14,28.3,33,38.6,52.2c23.3,43.2,42.4,88.5,61.9,133.5
	c22.5,52.1,42,105.4,55.7,160.6c9.7,39.1,17.5,78.6,22.1,118.7c1.5,13.2,2.9,26.4,2,41c-2.2-4-2.8-7.4-3.7-10.6
	c-9.8-38.4-18.2-77.1-29.6-115c-18.7-62.5-43.8-122.5-69.4-182.3c-25.6-59.8-52.4-119-82.1-177c-5.5-10.8-11.9-21.2-16.6-32.4
	C1549.2,403.1,1547.9,400.4,1549.3,396.7z"/>
<path class="st9" d="M1027.9,1093.6c-7.4,0.6-14.6-0.4-21.8-1.5c-2.5-0.4-3.8-1.4-4.5-3.8c-7.6-27.5-11-55.4-9.9-83.9
	c0.2-6,0.4-6,5.6-3.4c36.3,18.8,72.2,17.6,107.7-2.3c4.7-2.7,6.4-1.7,7.1,3.6c1.4,11.4,3.5,22.6,3,34.2c-0.4,10.8-3.9,20.9-7.5,30.9
	c-1.4,3.9-5.2,6.6-8.9,8.5c-18.6,9.4-38.1,15.7-58.9,17.7C1035.9,1093.9,1031.8,1093.6,1027.9,1093.6z"/>
<path class="st10" d="M970.5,409.7c-3.2-6.9-5.2-13.2-6.2-19.7c-0.8-5.4-2.1-10.5-5.5-14.8c-1.7-2.1-1.6-4-0.5-6.4
	c2.9-6.2,6.4-12,11.5-16.8c8.1-7.7,15.8-15.8,23.7-23.6c6-5.9,13.5-9.7,20.4-14.2c24.6-16.2,48.8-33,71.7-51.6
	c2.5-2,4.7-3.2,7.3-0.4c1.8,1.9,3.3,0.5,4.9-0.3c8.4-4.3,17.1-7.2,26.5-8.3c12.6-1.4,22.1,4.4,30.9,12.3c0.7,0.6,1.2,1.2,0.9,2.1
	c-0.5,1.5-1.9,1.7-3.2,1.8c-6,0.4-11.8,1.8-17.7,2.9c-6.1,1.2-11.9,3.2-17.7,5.1c-2.4,0.7-4,2.1-5.2,4.3c-4.2,8.1-8.9,16-14.1,23.5
	c-1.5,2.2-1.4,4.3-0.9,6.7c1.8,9.6-0.1,13.1-8.3,18.7c-17.4,11.8-37.3,16.4-57.5,19.9c-6.2,1.1-12.5,1.8-18.8,2.7
	c-15.5,2.2-31.1,17.3-31.1,33C981.4,396.8,974.8,401.8,970.5,409.7z"/>
<path class="st9" d="M1039.1,991.9c-17,0-29.6-2.8-41.9-7.2c-3.1-1.1-3.8-2.5-3.3-5.9c3.3-24.7,9.6-48.6,17.5-72.1
	c1.1-3.2,1.7-4.4,5.2-1.7c22,17.4,47.3,23.5,74.9,21.5c7.3-0.5,14.5-1.9,21.7-2.7c6.8-0.8,6.6-0.4,4.8,6
	c-4.7,16.5-13.3,31.1-22.5,45.4c-1.4,2.2-3.1,3.7-5.5,4.8C1072.5,987.7,1054.3,991.8,1039.1,991.9z"/>
<path class="st9" d="M1146.5,828.7c-28.3-1.2-53.9-9.6-75.7-28.1c-5.7-4.9-5.8-4.9-1.9-11.3c8.6-14.1,17.3-28,25.7-42.2
	c2.1-3.5,3.7-3.6,6.9-1.4c20.7,13.5,43.4,20.8,68.4,19.3c4.8-0.3,9.6-0.6,14.4-1.3c2.4-0.4,2.7,0.4,2.7,2.5
	c0.2,27.9-11.8,48.5-36.2,62C1149.3,828.9,1147.9,828.9,1146.5,828.7z"/>
<path class="st10" d="M1088.6,902c-22.6,0.4-44.4-3-64.4-14.3c-3.5-1.9-4.2-3.5-2.6-7.3c9.9-22.9,21.1-45.2,33.3-67
	c1.9-3.4,2.8-2.9,4.9-0.3c13.9,17.2,31,29.5,52.9,34.3c7.7,1.7,15.4,2.9,23.2,2.5c4.3-0.2,5.5,0.3,4.3,5.3
	c-3.7,16.1-13.2,28.4-23.7,40.4c-3.9,4.5-8.8,6.2-14.5,6.2C1097.5,902,1093,901.9,1088.6,902z"/>
<path class="st9" d="M1287.7,599.3c-1.3,17.6-4.6,34.3-14.7,49.6c-6.9,10.3-16.9,16.2-26.1,23.3c-1.6,1.3-3.5,0.9-5.3,0.6
	c-23.6-3.8-47.5-6.5-70.4-13.9c-6.8-2.2-6.8-2-2.7-8c10.1-14.7,20.1-29.5,29.9-44.3c2.3-3.4,4.1-5,8.7-3.8c26,6.5,51.1,3,75.6-7.3
	C1287.8,593.5,1287.9,593.7,1287.7,599.3z"/>
<path class="st9" d="M1239.7,694c-13.5,19.5-27.8,37.2-47.8,49.5c-6.9,4.2-14.1,5.4-22,3.9c-11.7-2.3-23.5-4.2-35.3-6.2
	c-9.1-1.5-17.6-4.9-26.1-8.2c-3.2-1.3-3.3-2.5-1.3-4.9c7.9-9.6,15.8-19.3,23.7-29c6.9-8.5,14-16.9,20.7-25.6c2.4-3,4.1-3.7,7.7-1.7
	c18.6,10,38.2,17.3,59,20.9C1225.2,693.8,1232.2,694.4,1239.7,694z"/>
<path class="st10" d="M1121,1083c-0.3,19.9-2.3,38-9.3,55.2c-3.1,7.6-8.4,13.5-15,18.3c-14.6,10.4-31.2,16.3-48.4,20.6
	c-3.7,0.9-7.9-0.1-11.9-0.3c-1.4-0.1-1.8-1.3-2.3-2.3c-10.3-22-17.2-45.3-27.1-68.3C1048.7,1116.4,1086.9,1112.8,1121,1083z"/>
<path class="st10" d="M1126.4,242.3c1-4.5,3.4-6.8,5.5-9.4c8.1-10.3,18.4-18.3,28.8-26.1c3.5-2.6,6.5-5.7,9.1-9.2
	c12.9-17.4,23.6-35.8,30.5-56.4c6.1-18.3,16.3-35,21.9-53.6c0.7-2.4,1.7-2.7,3.9-1.3c9.9,6.2,15.7,19.6,13.2,30.9
	c-0.5,2.3-0.9,4.6-1.8,6.7c-6.4,14.7-9.9,30.3-15.6,45.2c-9.5,25.3-25.1,46.1-49,59.8c-4.1,2.4-8.3,3.9-13,4.6
	C1148.6,235.4,1137.8,238.6,1126.4,242.3z"/>
<path class="st10" d="M2003.5,755.5c-9.3-4.3-16.4-9.5-23.6-14.5c-16.5-11.3-31.7-24.3-46.8-37.4c-13.2-11.4-21.5-26.6-31.3-40.6
	c-0.7-1-1.2-2-0.6-3.3c6-13.2,9.4-27.3,15.1-41.6C1945.5,663.8,1981.2,704.4,2003.5,755.5z"/>
<path class="st10" d="M1210,587.5c7.6-15,13.4-30,16.6-45.9c1.1-5.5,2.4-11.1,2.5-16.8c0.1-2.7,1.1-3.9,3.6-4.3
	c10.2-1.8,19.7-6.2,29.4-9.4c4.9-1.7,9.2-4.4,13.4-7.6c6.2-4.8,8.4-3.7,10.6,3.8c4.5,15,2.3,29.2-4.8,42.9
	c-4,7.7-7.7,15.5-11.6,23.2c-0.9,1.8-2,3.4-4.1,4.1c-17.4,6-35,10.7-53.6,10.4C1211.6,587.9,1211.2,587.7,1210,587.5z"/>
<path class="st10" d="M1228.6,483.3c-0.6-26.3-7.4-50.2-24.4-70.5c-3.1-3.7-6.7-7-10.5-9.9c-3-2.2-2.3-3.8,0-5.8
	c3.8-3.3,8.2-4.4,13-3.7c7.2,1.1,13.9,3.5,20,7.4c7.2,4.6,6.9,12.1,6.8,19.2c-0.1,7.1-3.8,13-8,18.4c-1,1.3-3,2.6-1.9,4.2
	c1.1,1.7,3.5,0.9,5.1,0.2c3.1-1.5,6.1-3.4,9.1-5.2c5.8-3.6,11.5-6.5,18.8-4.6c4.9,1.3,8.4,3.9,10.1,8.7c4.3,12.4,5.8,25.2,6.7,38.2
	c0.4,5.6-1.9,9.9-7.7,12.6c-10.3,4.8-20.4,9.8-31,13.8c-3.6,1.4-5,0.8-5.2-3.3C1228.8,496.3,1227.9,489.7,1228.6,483.3z"/>
<path class="st10" d="M1054.2,1191c4.4-0.3,9.1,0.3,13.7,0.8c10.1,1.2,19.4-2.1,28.5-5.6c7.7-3,12.3-0.1,11.5,8.1
	c-0.6,6.8-1.7,13.5-3.3,20.1c-3.4,13.7-12.5,22.4-24.8,28.2c-3,1.4-5.1,0.7-7.1-2.1c-10.2-14.4-20.1-29-28.1-44.8
	c-2.4-4.7-2.4-4.8,2.9-4.8C1049.6,1191,1051.8,1191,1054.2,1191z"/>
<path class="st10" d="M1270,203c10.1-0.3,20.7,9.7,24.3,17c1.5,3-1,4.9-4.2,5c-16.4,0.2-32.5,2.8-48.6,5c-11,1.5-20.9,6.7-31.5,9.6
	c-5.3,1.4-6.1,1.1-6.6-4.3c-0.4-4-0.1-8.2,4.3-10.3c18.5-8.8,37-17.5,57.4-21.4C1266.7,203.2,1268.4,203.2,1270,203z"/>
<path class="st10" d="M1143.6,1352.7c4.6-0.1,8.7,0.7,12.1,3.8c3.1,2.8,4.2,6.3,2.7,10.4c-1.4,3.8-3.7,5.7-8.1,6
	c-13.7,0.7-26.4,5-38.2,11.9c-3.9,2.3-8.1,3.9-12.4,5.2c-4.2,1.3-6.4-0.8-5.3-5.1c0.4-1.6,1.1-3.2,2-4.5
	C1107.4,1363,1123.7,1354.7,1143.6,1352.7z"/>
<path class="st10" d="M1092.1,1337.8c4.2-0.2,8.4,0.4,12.1,3.1c2.5,1.8,3.6,4.3,2.6,7.4c-1,3.1-3.5,2.2-5.8,2.4
	c-20.6,2.2-37.1,11.6-49.2,28.5c-0.7,0.9-1.1,2.1-1.9,3c-2.5,2.9-6.4,5.7-9.3,4.2c-2.6-1.3,0.3-5.4,1.6-7.8
	c7.1-13.8,16.5-25.7,29.5-34.5C1077.7,1340.1,1084.4,1337.5,1092.1,1337.8z"/>
<path class="st10" d="M1188.5,301.8c-6,11.2-15.2,18.7-26.3,24.2c-7.7,3.9-15.6,6.8-24.4,4.9c-4.6-1-8.4-3.2-10-8
	c-1.3-4,0.7-7.3,4.8-7.5C1152.1,314.8,1170.9,311.5,1188.5,301.8z"/>
<path class="st11" d="M1588.1,307.7c-11.1,9.6-21.4,18.9-30.9,29.2c-1.7,1.8-3.9,3.4-5,5.5c-3.3,6.6-8.9,7.2-15.2,6.4
	c-5.4-0.6-10.9-1.1-16.4-1.7c-4-0.4-7.5,0.4-10.9,2.7c-10.9,7.3-21.5,15.1-33,21.5c-10.9,6-22.1,10.2-34.7,5.8
	c-6.3-2.2-10.9-5.6-12.7-12.6c-2-7.9-5.4-15.4-9.2-22.6c-0.4-0.7-0.7-1.5-1.1-2.3c-4.5-10.7-3.9-12.1,7.1-14.9
	c24.8-6.4,49.6-12.7,75-16.3c25.6-3.6,51.3-5.3,77.1-4.4c1,0,2.1,0,3,0.3C1583.2,305.3,1585.3,306.4,1588.1,307.7z"/>
<path class="st11" d="M1178,1157.9c-6.9-7.1-10-16.3-14-25.1c-7.1-15.8-7.5-32.6-8.7-49.3c-1.2-17.2,3-33.7,11.9-48.7
	c3.5-6,8.7-10.5,15-13.5c7.4-3.5,14.7-7,22.1-10.5c3.1-1.5,6.2-2.2,9.6-2.1c8.6,0.4,17.3-0.5,25.9,1c4.2,0.7,7.9,2.6,11.7,4.3
	c15.9,6.9,31.8,13.6,46.9,22.1c8.3,4.7,13.9,11.8,18,20.1c0.7,1.5,2.2,3.8,0.4,5c-1.8,1.2-3.2-1.2-4.4-2.4
	c-16-17.3-36.8-22.9-59.2-24.9c-12.4-1.1-22.1,4.8-30.8,12.8c-8.1,7.5-15.1,16-21.3,25c-4,5.8-9.2,10.5-13.1,16.3
	c-11.1,16.4-13.4,34.8-11.6,54C1176.9,1147.4,1178.3,1152.6,1178,1157.9L1178,1157.9z"/>
<path class="st11" d="M1467.2,1185.9c-13.1-3.2-23.4,5.4-33.2,14.3c-6.4,5.8-11.8,12.6-17.9,18.7c-6.9,6.8-15,10.9-25.1,9.7
	c-6.2-0.8-11.2-4-15.9-7.7c-2.3-1.9-2.9-4.8-2.6-8.1c1.1-13.6,9.4-22.3,20.5-27.4c15-6.8,30.2-13.8,46.6-17.1
	c14.4-2.9,28,0,41.4,5.3c1.1,0.4,2.1,1,3.1,1.6c2.3,1.5,4.5,3.3,3.5,6.5c-0.9,2.9-3.4,4.1-6.2,4.2
	C1477.3,1186.1,1473.1,1185.9,1467.2,1185.9z"/>
<path class="st11" d="M1132.6,241.1c-5.7,0.1-6.4-0.9-4.5-4.9c2.1-4.2,5.3-7.7,8.5-11c11-11.4,22.1-22.6,33.1-34
	c3.9-4.1,7.5-8.4,11.2-12.7c1.9-2.1,3.8-2.6,6.6-1.5c5.3,2,10.8,3.6,15.1,7.4c3.9,3.5,4.3,6.8,1.9,11.6c-4,7.9-10.3,13.9-16.9,19.5
	c-10.3,8.7-20.9,16.9-34.8,19.5C1145.6,236.3,1139,240.3,1132.6,241.1z"/>
<path class="st12" d="M1009.4,353.1c-1,1.8-2.1,4.1-3.5,6.1c-5.5,7.9-11.1,15.7-16.6,23.7c-2.3,3.3-4.7,6.5-8.1,8.7
	c-1.7,1.1-2.4,2.6-3.3,4.3c-1.6,3.1-3.3,6.2-5.1,9.2c-0.7,1.1-1.4,2.5-2.9,2.4c-1.7-0.1-1.6-1.9-2-3.1c-1.7-4.5-3.2-9.1-3.8-13.9
	c-0.7-5.7-2.3-11-5.9-15.7c-1.3-1.7-1.2-3.6-0.4-5.6c4.3-11.1,13.2-18.6,21.1-26.9c1.4-1.4,2.7-0.7,4.1,0c7.6,3.9,15.5,6.9,23.9,8.3
	C1007.9,350.7,1009.8,350.5,1009.4,353.1z"/>
<path class="st11" d="M1447.3,1418.7c5.8,0.8,10.8,2.4,13.2,8c2.4,5.6,1.4,10.8-2.4,15.4c-3.9,4.8-9.2,7.8-14.9,9.8
	c-11.6,4.2-19.5,12.8-27.8,21.3c-1.2,1.2-2,3.9-4,2.9c-1.9-0.9-0.8-3.2-0.8-5c0.1-16.3,8.4-29.1,18.1-41.2
	C1433.6,1423.8,1440.1,1420.5,1447.3,1418.7z"/>
<path class="st11" d="M1404.8,1411.1c4.1,0.3,7.6,1.6,10.3,4.7c4.1,4.5,3.8,7.4-1.1,10.9c-6.1,4.4-12.2,8.7-18,13.4
	c-10.9,8.9-24.1,10.8-37.2,12.7c-4.4,0.7-5.5-0.9-4.3-5.1c1.8-6.3,5.5-11.6,11-15.1c7.5-4.7,14.3-10.4,21.8-14.9
	C1392.7,1414.4,1398.5,1411.8,1404.8,1411.1z"/>
<path class="st12" d="M1075.7,901.9c11.8-8.2,22.7-15.2,31.8-24.5c7.2-7.3,12.5-15.9,18.5-24c2-2.8,11.1-4.7,14-3.2
	c1.4,0.8,0.9,1.9,0.7,3c-3.7,18.8-14.8,33.1-27.9,46.1c-2.2,2.2-5.2,2.4-7.9,2.4C1095.6,902,1086.4,901.9,1075.7,901.9z"/>
<path class="st12" d="M1122.9,825.7c12.7-8.4,25.6-14.5,36-24.4c5.3-5.1,10.1-10.6,14-16.8c2.8-4.4,3.3-9.4,4-14.3
	c0.4-2.7,1.6-4.8,4.1-5.9c4.8-2.2,6.3-1.1,5.9,4.1c-1.2,14-2.7,27.8-11.9,39.5c-7.1,9-16.3,15.1-26.2,20.3c-0.7,0.4-1.6,0.7-2.4,0.6
	C1138.8,828.3,1131.2,827.7,1122.9,825.7z"/>
<path class="st12" d="M1231.1,1419.1c4,0.4,8.1,0.5,10.2,4.8c2,4.2-0.5,7.3-2.8,10.4c-2.2,3-5,5.3-8.7,6.3
	c-13.2,3.5-24.6,10.8-36.1,17.7c-1.1,0.7-2.1,1.7-3.2,2.4c-3.3,1.7-7.2,3.9-10.2,1.2c-2.7-2.4,0.5-5.7,2-7.9
	c9.1-13.6,19.8-25.4,35.2-32.1C1221.7,1420,1226.3,1419.4,1231.1,1419.1z"/>
<path class="st11" d="M1251.9,1459c0.5-10.3,2.2-20.1,10.2-27.7c5.9-5.7,13-7.2,20.7-6.3c5.2,0.7,8,5.2,6.3,10.3
	c-2.4,7.2-6,13.8-11.6,19c-6.6,6.1-11.6,13.2-15.2,21.4c-0.7,1.6-1.3,3.9-3.5,3.7c-1.7-0.1-2.5-2-3.3-3.5
	C1252.7,1470.6,1251.6,1465,1251.9,1459z"/>
<path class="st12" d="M1050,990.5c13-6.7,23.6-16.2,33.1-26.9c7.9-8.8,15.1-18.2,20.3-28.9c0.7-1.5,1.4-3.1,1.7-4.7
	c1.2-5.4,8.1-8.8,13.2-6.4c1.5,0.7,1.7,1.6,1.1,3.2c-4.7,13.7-10.5,26.9-18,39.3c-5.1,8.4-11.4,14.8-21.1,17.9
	C1070.4,987.2,1060.6,989.9,1050,990.5z"/>
<path class="st12" d="M1076.3,1085.4c14.2-12.3,20.5-28.4,23.8-46.2c2.1-11.3,2.9-22.8,1.9-34.3c-0.4-4.2,1.6-6.2,4.8-7.6
	c2.6-1.2,4.6-0.4,5.1,2.6c3.6,21.1,5.3,42.1-2.4,62.9c-2.1,5.6-5.2,9.8-10,12.5C1092.2,1079.6,1084.5,1083,1076.3,1085.4z"/>
<path class="st12" d="M1164.7,746.2c8.8-5.5,17.2-9.8,24.7-15.6c11.9-9.2,21.5-20.2,27.3-34.3c0.6-1.5,1.2-3.4,3.3-3.3
	c5.1,0.3,10.3,0.5,15.4,1.2c2.1,0.3,2.8,2.2,1.4,4.2c-11.8,16.1-24.4,31.4-41.3,42.8C1186,747.7,1176.5,749.7,1164.7,746.2z"/>
<path class="st12" d="M1229.8,671.3c23.9-11.2,35.6-30.4,42.6-53.3c0.9-2.9,1.9-5.5,4-7.9c3.7-4.2,7.1-8.7,11.3-14
	c0.5,8-1.3,14.8-2.2,21.7c-1.3,11.3-6.8,20.9-12.3,30.7c-5.5,9.7-14.7,14.6-22.5,21.3C1244.3,675.4,1237.5,672,1229.8,671.3z"/>
<polygon class="st11" points="1178,1158 1178.2,1158.1 1178,1157.9 "/>
</svg>
