<?xml version="1.0" encoding="utf-8"?>
<!-- Generator: Adobe Illustrator 26.0.1, SVG Export Plug-In . SVG Version: 6.00 Build 0)  -->
<svg version="1.1" id="Layer_1" xmlns="http://www.w3.org/2000/svg" xmlns:xlink="http://www.w3.org/1999/xlink" x="0px" y="0px"
	 viewBox="0 0 2000 2000" style="enable-background:new 0 0 2000 2000;" xml:space="preserve">
<style type="text/css">
	.st0{fill:#AED76A;}
	.st1{clip-path:url(#SVGID_00000040553979591753258360000016393485710515028145_);}
	.st2{fill:#FECFAE;}
	.st3{fill:#A37A79;}
	.st4{fill:#969189;}
	.st5{fill:#ADABA8;}
	.st6{fill:#E8E3DD;}
	.st7{fill:#77A22F;}
	.st8{fill:#C3C2CC;}
	.st9{fill:#A5A3B2;}
	.st10{fill:#85858E;}
	.st11{fill:#BF9E82;}
	.st12{fill:#E5BF9C;}
	.st13{fill:#EAE2DC;}
	.st14{fill:#4C3B36;}
	.st15{fill:#967266;}
	.st16{fill:#725B51;}
	.st17{fill:#1E1713;}
	.st18{fill:#A29CB7;}
	.st19{clip-path:url(#SVGID_00000157997665858497380230000004315130474114980024_);}
	.st20{fill:#B6B3C4;}
	.st21{clip-path:url(#SVGID_00000160902841618129184610000016360132937971958153_);}
	.st22{clip-path:url(#SVGID_00000108275565946583106750000005098092088289232815_);}
	.st23{clip-path:url(#SVGID_00000152255271672590559260000009810625296609990796_);}
	.st24{clip-path:url(#SVGID_00000005957069667760606830000016375540519292298136_);}
	.st25{clip-path:url(#SVGID_00000080194339077349349380000002852663944653182139_);}
	.st26{clip-path:url(#SVGID_00000012472432081585681870000005091602668253491613_);}
	.st27{clip-path:url(#SVGID_00000056399916148371026170000005794508958525392555_);}
	.st28{clip-path:url(#SVGID_00000079477954166687588990000001260982141636060039_);}
	.st29{fill:#DDC6B6;}
	.st30{clip-path:url(#SVGID_00000095324073638936092150000006032280571717595558_);}
	.st31{clip-path:url(#SVGID_00000098211490657552912780000008495639353596829856_);}
	.st32{clip-path:url(#SVGID_00000057150602302046489650000018137033252374827675_);}
	.st33{clip-path:url(#SVGID_00000044152949286932425720000013884725950876018621_);}
	.st34{clip-path:url(#SVGID_00000182515789460832014880000004011398721088482467_);}
	.st35{clip-path:url(#SVGID_00000049944323286233698180000009810872350248938387_);}
	.st36{clip-path:url(#SVGID_00000063593517385798310310000005672420723279820440_);}
	.st37{clip-path:url(#SVGID_00000046336132428095848590000006297536040328346783_);}
	.st38{clip-path:url(#SVGID_00000013877007377754952690000012403718857674770609_);}
	.st39{fill:#993A23;}
	.st40{fill:#AA4226;}
	.st41{fill:#AFD86A;}
	.st42{clip-path:url(#SVGID_00000131358957518892026440000000374540037992198794_);}
	.st43{fill:#8ABD32;}
	.st44{clip-path:url(#SVGID_00000059281206299376838040000003760485823143915685_);}
</style>
<path class="st0" d="M1710.3,1237.9c-59.6-64-229.3-243.8-754.4-206.8c-610.6,43-836.8,203.7-758.9,413
	c41.4,111.3,312.1,127.4,413.5,179.8c248.2,128.1,870.2,159.8,1075.1-80C1795.1,1415.9,1771.4,1303.5,1710.3,1237.9z"/>
<g>
	<defs>
		<path id="SVGID_1_" d="M1710.3,1237.9c-59.6-64-229.3-243.8-754.4-206.8c-610.6,43-836.8,203.7-758.9,413
			c41.4,111.3,312.1,127.4,413.5,179.8c248.2,128.1,870.2,159.8,1075.1-80C1795.1,1415.9,1771.4,1303.5,1710.3,1237.9z"/>
	</defs>
	<clipPath id="SVGID_00000103266546249146054270000003996960279776111488_">
		<use xlink:href="#SVGID_1_"  style="overflow:visible;"/>
	</clipPath>
	<g style="clip-path:url(#SVGID_00000103266546249146054270000003996960279776111488_);">
		<path class="st2" d="M1121.4,1533.5c0,0,210.7,40.6,275.7,70.5c86.5,39.8,127,111.8,86.5,165.4s240.1-197.9,240.1-197.9
			s-58.5-41.2-190.2-77.9s-238-47.9-238-47.9S1078.2,1397.3,1121.4,1533.5z"/>
	</g>
</g>
<path class="st3" d="M1440,854.6c0,0-43.8,321.7,33.1,418.5c0,0-78.8,39.5-109.4-3.5C1343.8,1241.8,1368.3,885.9,1440,854.6z"/>
<path class="st3" d="M1401.1,1017.2c0,0-73.5-100.6-54.9-298.3c0,0-62,200.1,57.7,380.4c5.6,8.4,0,4.1,0,4.1L1401.1,1017.2z"/>
<polygon class="st4" points="1267.9,1409.6 1266.6,1384.6 1238.3,1373.6 1237.1,1351.5 998.5,1423.5 998.5,1482.3 1125.3,1538.2 
	1299.5,1450.5 1297.9,1420.6 "/>
<path class="st5" d="M1125.3,1538.2l-1.1-22.3c0,0-2.1-18.6-31.8-16.7l-10.2-17.4l-1-18.9l-25.3,4.7l-11.9-20.2
	c0,0,144.5-102.7,193-96l1.2,22.1l28.3,10.9l1.3,25l30,11.1l1.6,29.9L1125.3,1538.2z"/>
<polygon class="st6" points="998.5,1425.4 1044.1,1447.5 1237.1,1351.5 1190.7,1333.3 "/>
<polygon class="st6" points="1056,1467.7 1238.3,1373.6 1266.6,1384.6 1082.3,1481.9 "/>
<polygon class="st6" points="1092.5,1499.3 1267.9,1409.6 1297.9,1420.6 1124.2,1515.9 "/>
<path class="st5" d="M746.1,1564.3l240.9-95.7l0.4-32.9l-253.2,74.7C734.2,1510.4,714.3,1510.9,746.1,1564.3z"/>
<path class="st4" d="M752.8,1520.3l-0.6,47.7l-399.9-324.9l0.5-36.4C352.8,1206.7,738.1,1429,752.8,1520.3z"/>
<path class="st6" d="M972.8,1442l-220.3,79l-399.7-314.3l166.7-42.5c0,0,42.9-24.8,66.4-18.4c100.2,26.9,340.7,139.8,401.5,289.9"/>
<path class="st3" d="M1440,854.6c0,0-43.8,321.7,33.1,418.5c0,0-78.8,39.5-109.4-3.5C1343.8,1241.8,1368.3,885.9,1440,854.6z"/>
<path class="st3" d="M1401.1,1017.2c0,0-73.5-100.6-54.9-298.3c0,0-62,200.1,57.7,380.4c5.6,8.4,0,4.1,0,4.1L1401.1,1017.2z"/>
<path class="st7" d="M1431.1,897.7c0,0,165.6,67.3,185.9-132.4c0,0,96.3,4.3,106-112.7c10.6-127.7-105.3-130.6-78.6-138.7
	c92.3-28,92.3-205.9-53.3-196.7c0,0,60.9-142.8-88.9-162.4c-227.2-29.6-217.9,176.3-217.9,176.3s-167.1,17.2-107.8,194.3
	c0,0-153.1,103.4,22.6,246.5C1199.1,772.1,1206.4,941.7,1431.1,897.7z"/>
<polygon class="st8" points="1423.1,1209.4 1323.3,1195.4 1249.2,1221.7 1347.8,1281.6 "/>
<polygon class="st9" points="1343.7,1344.5 1345.3,1295.7 1346.8,1248.4 1423.1,1209.4 1415.2,1306.1 "/>
<polygon class="st10" points="1346.8,1248.4 1343.7,1344.5 1255.6,1318.2 1249.2,1221.7 "/>
<polygon class="st11" points="1332.2,1259.1 1330,1325.5 1269.1,1307.3 1264.8,1240.6 "/>
<polygon class="st12" points="1359.8,1317.1 1360.7,1288.1 1361.7,1260 1407,1236.8 1402.3,1294.3 "/>
<polygon class="st13" points="1395.7,1213.4 1327.4,1203.8 1276.8,1221.7 1343.5,1240 "/>
<polygon class="st8" points="1368.3,1153 1313.3,1146.6 1272.8,1162 1327.5,1193.7 "/>
<polygon class="st9" points="1325.8,1228.3 1326.3,1201.4 1326.7,1175.4 1368.3,1153 1364.8,1206.3 "/>
<polygon class="st10" points="1326.7,1175.4 1325.8,1228.3 1277.1,1215 1272.8,1162 "/>
<polygon class="st11" points="1318.7,1181.5 1318.1,1218 1284.5,1208.8 1281.5,1172.2 "/>
<polygon class="st12" points="1334.4,1213 1334.7,1197.1 1334.9,1181.6 1359.7,1168.3 1357.6,1199.9 "/>
<polygon class="st13" points="1353.2,1155.5 1315.6,1151.1 1287.9,1161.7 1324.8,1170.8 "/>
<path class="st14" d="M972.4,1431.8l-451-282.3l8.1-648.5L990.1,695C990.1,695,1093.1,1246.4,972.4,1431.8z"/>
<path class="st15" d="M652.3,1191.6c0,0,20,47.2,3.3,89.6c-2.6,6.7-7.6,12.2-14,15.5c-13.3,6.7-38.4,14.7-61.9-4.6
	c-4.4-3.7-7.7-8.5-9.5-14c-4.6-13.8-10.4-44.3,7-85.7l23.8,15.1l25,1.9l17.3-6l7.6-11.9L652.3,1191.6z"/>
<path class="st16" d="M619.9,1209.8c0,0-0.8,82.8-3.3,92.2l-1.1-92.3L619.9,1209.8z"/>
<path class="st16" d="M593,1206c0,0-8.9,37-4,90.1c0,0-12-28.8,0.3-91.8L593,1206z"/>
<path class="st16" d="M641.4,1204.3c0,0,9,38.7,2.7,90.4c0,0,12-31.2,1.4-93L641.4,1204.3z"/>
<ellipse transform="matrix(1.308960e-02 -0.9999 0.9999 1.308960e-02 -588.1942 1794.0033)" class="st16" cx="614.7" cy="1195" rx="16.2" ry="38.6"/>
<ellipse transform="matrix(1.308960e-02 -0.9999 0.9999 1.308960e-02 -586.2488 1792.1235)" class="st17" cx="614.7" cy="1193" rx="9.7" ry="27.4"/>
<path class="st18" d="M574.8,1197.3c0,0-4.5,11.8,4,16.5s16.5,8,37.2,7.7c19.9-0.4,37.4-8.3,40.2-14c1.5-3,0.2-6.5-1.4-9.1
	c0-0.3-0.1-0.7-0.3-1c-0.1-0.3-0.2-0.5-0.3-0.8c0-0.2-0.1-0.4-0.2-0.7c6.6,4.9,15.7,22.4-6.1,33c-28.1,13.7-58.4,7.1-70,0.5
	c-8.3-4.7-11-7.4-12.2-12.3C564.5,1211.7,564.9,1203.5,574.8,1197.3z"/>
<g>
	<defs>
		<path id="SVGID_00000139292531015328503860000012379808809150473135_" d="M651.6,1194.2c0,0,31.4,18.8-4,36.3
			c-28,13.8-60.3,3.9-72.5-1.7c-5-2.3-8.9-8.3-10.1-13.2c-1.2-5.2,0-12,9.8-18.3c0,0-4.5,11.8,4,16.5s16.5,8,37.2,7.7
			c19.9-0.4,37.5-8.2,40.2-14C658.6,1201.9,651.6,1194.2,651.6,1194.2z"/>
	</defs>
	<clipPath id="SVGID_00000026148522062477459480000000809751219661376941_">
		<use xlink:href="#SVGID_00000139292531015328503860000012379808809150473135_"  style="overflow:visible;"/>
	</clipPath>
	<g style="clip-path:url(#SVGID_00000026148522062477459480000000809751219661376941_);">
		<path class="st20" d="M574.9,1196.1c4.7-3.2,66-3.2,75.6-3.1c-0.3,0-0.6,0.3-0.6,0.7c0,0.4,0.4,0.7,0.8,0.7h0.2
			c0,0-0.1,0.1-0.1,0.1v0.2c0,0.1,0,0.2,0.1,0.3l0.1,0.1c0.1,0.1,0.2,0.1,0.2,0.1c0.1,0,0.2,0.1,0.3,0.1c0.1,0,0.2,0,0.3-0.1l0,0
			c0,0.2,0.1,0.3,0.2,0.5l0.1,0.1l-0.1,4.5c0,0.9,1.4,0.9,1.5,0.1c0.1,0.2,0.1,0.3,0.2,0.5c0.1,0.4,0.6,0.6,1,0.5
			c0.4-0.1,0.6-0.4,0.6-0.8c0,0,0,0,0-0.1c-0.3-0.7-1.4-4.8-1.5-5.1s-0.1-1-0.1-1c3.5,3.2,9.9,10.7,1,17.6
			c-11.7,9.1-27.4,12-39.1,12.6s-32.4-1.8-41.1-9.6C568.8,1210,569.8,1199.6,574.9,1196.1z"/>
	</g>
</g>
<path class="st18" d="M662.2,1246.7c0,0,11.3,38.5-47.7,40.1c-64.3,1.8-49-46.2-49-46.2s-1.2,32.7,48,30.6
	S662.2,1246.7,662.2,1246.7z"/>
<g>
	<defs>
		<path id="SVGID_00000084531988153245644140000006150053805298784440_" d="M662.2,1246.2c0,0,20.9,34.9-47.7,36.2
			c-70.4,1.3-49.1-41.9-49.1-41.9s-1.2,29.6,48.1,27.7S662.2,1246.2,662.2,1246.2z"/>
	</defs>
	<clipPath id="SVGID_00000083804499913131361120000006851839906642567308_">
		<use xlink:href="#SVGID_00000084531988153245644140000006150053805298784440_"  style="overflow:visible;"/>
	</clipPath>
	<g style="clip-path:url(#SVGID_00000083804499913131361120000006851839906642567308_);">
		<path class="st20" d="M662.4,1234.8c0,0,16.1,36.3-47.7,37.9c-65.9,1.7-49.1-43.7-49.1-43.7s-1.2,30.9,48,28.9
			S662.4,1234.8,662.4,1234.8z"/>
	</g>
</g>
<g>
	<defs>
		
			<ellipse id="SVGID_00000022547010479866392270000002619978625655701685_" transform="matrix(1.308960e-02 -0.9999 0.9999 1.308960e-02 -586.2488 1792.1235)" cx="614.7" cy="1193" rx="9.7" ry="27.4"/>
	</defs>
	<clipPath id="SVGID_00000078023568085720470440000013261016204440832410_">
		<use xlink:href="#SVGID_00000022547010479866392270000002619978625655701685_"  style="overflow:visible;"/>
	</clipPath>
	<g style="clip-path:url(#SVGID_00000078023568085720470440000013261016204440832410_);">
		<path class="st15" d="M587.5,1198.3c3.7,3.3,13.8,5.8,26.8,6c12.4,0.2,23.2-1.5,27.5-5.2c3-2.5-5.5-11-27.2-11.1
			C591.1,1187.8,584.5,1195.6,587.5,1198.3z"/>
	</g>
</g>
<path class="st15" d="M741.9,1229.7c0,0,21.2,50.1,3.5,95.1c-2.8,7.1-8.1,13-14.9,16.5c-14.1,7.2-40.8,15.6-65.7-4.9
	c-4.7-3.9-8.2-9-10.1-14.8c-4.9-14.7-11-47.1,7.4-91l25.3,16l26.6,2l18.4-6.4l8.1-12.6L741.9,1229.7z"/>
<path class="st16" d="M707.6,1249c0,0-0.9,87.8-3.5,97.9l-1.2-98L707.6,1249z"/>
<path class="st16" d="M679,1244.9c0,0-9.4,39.3-4.2,95.7c0,0-12.7-30.6,0.3-97.4L679,1244.9z"/>
<path class="st16" d="M730.3,1243.2c0,0,9.5,41.1,2.9,95.9c0,0,12.7-33.2,1.4-98.7L730.3,1243.2z"/>
<ellipse transform="matrix(1.308960e-02 -0.9999 0.9999 1.308960e-02 -540.2927 1919.113)" class="st16" cx="702.1" cy="1233.3" rx="17.2" ry="40.9"/>
<ellipse transform="matrix(1.308960e-02 -0.9999 0.9999 1.308960e-02 -538.2058 1917.1138)" class="st17" cx="702.1" cy="1231.2" rx="10.3" ry="29.1"/>
<path class="st18" d="M659.6,1235.7c0,0-4.8,12.5,4.3,17.5s17.5,8.5,39.5,8.1c21.1-0.4,39.7-8.8,42.7-14.9c1.6-3.2,0.2-6.9-1.5-9.7
	c0-0.3-0.1-0.7-0.3-1c-0.1-0.3-0.3-0.6-0.3-0.9c-0.1-0.2-0.1-0.5-0.2-0.7c7,5.2,20.4,27-6.8,36.8c-31.2,11.3-49.8,6.9-72.2-1.2
	c-5.7-2-10.3-6.2-12.9-11.6C649.6,1252.9,649.2,1242.3,659.6,1235.7z"/>
<g>
	<defs>
		<path id="SVGID_00000147901141868209226390000004958635462835455901_" d="M741.2,1232.4c0,0,33.3,20-4.3,38.5
			c-29.8,14.7-64,4.1-77-1.8c-5.3-2.4-9.5-8.8-10.7-14c-1.3-5.6,0-12.8,10.4-19.4c0,0-4.8,12.5,4.3,17.5s17.5,8.5,39.5,8.1
			c21.1-0.4,39.8-8.8,42.7-14.9C748.7,1240.7,741.2,1232.4,741.2,1232.4z"/>
	</defs>
	<clipPath id="SVGID_00000180331479742353556970000002587264443896999356_">
		<use xlink:href="#SVGID_00000147901141868209226390000004958635462835455901_"  style="overflow:visible;"/>
	</clipPath>
	<g style="clip-path:url(#SVGID_00000180331479742353556970000002587264443896999356_);">
		<path class="st20" d="M659.8,1234.4c5-3.4,70-3.4,80.2-3.3c-0.4,0-0.6,0.3-0.7,0.7c0,0.4,0.4,0.8,0.8,0.8h0.2c0,0-0.1,0.1-0.1,0.2
			v0.2c0,0.1,0,0.3,0.1,0.4l0.1,0.2c0.1,0.1,0.2,0.1,0.3,0.2c0.1,0,0.2,0.1,0.3,0.1c0.1,0,0.2,0,0.3-0.1l0,0c0,0.2,0.1,0.4,0.2,0.5
			l0.1,0.1l-0.1,4.8c0,0.9,1.5,1,1.6,0.1c0.1,0.2,0.1,0.4,0.2,0.5c0.2,0.4,0.6,0.6,1,0.5c0.4-0.1,0.7-0.4,0.6-0.8c0,0,0,0,0-0.1
			c-0.3-0.8-1.5-5.2-1.6-5.4s-0.1-1-0.1-1c3.8,3.4,10.5,11.4,1.1,18.7c-12.4,9.6-29.1,12.8-41.5,13.3s-34.4-1.9-43.6-10.2
			C653.3,1249.2,654.4,1238.1,659.8,1234.4z"/>
	</g>
</g>
<path class="st18" d="M752.5,1288.2c0,0,15.7,42.4-50.6,42.6s-52-49.1-52-49.1s-1.3,34.7,51,32.4S752.5,1288.2,752.5,1288.2z"/>
<g>
	<defs>
		<path id="SVGID_00000001655879333087458990000012579037883839366591_" d="M752.5,1287.7c0,0,22.2,37.1-50.6,38.4
			c-74.7,1.4-52.1-44.4-52.1-44.4s-1.2,31.4,51,29.4S752.5,1287.7,752.5,1287.7z"/>
	</defs>
	<clipPath id="SVGID_00000009572482020983223850000010631492363741546175_">
		<use xlink:href="#SVGID_00000001655879333087458990000012579037883839366591_"  style="overflow:visible;"/>
	</clipPath>
	<g style="clip-path:url(#SVGID_00000009572482020983223850000010631492363741546175_);">
		<path class="st20" d="M752.6,1275.6c0,0,17.1,38.5-50.6,40.2c-69.9,1.8-52.1-46.4-52.1-46.4s-1.3,32.8,51,30.7
			S752.6,1275.6,752.6,1275.6z"/>
	</g>
</g>
<g>
	<defs>
		
			<ellipse id="SVGID_00000013897242829779496160000005928649401209102751_" transform="matrix(1.308960e-02 -0.9999 0.9999 1.308960e-02 -538.2058 1917.1138)" cx="702.1" cy="1231.2" rx="10.3" ry="29.1"/>
	</defs>
	<clipPath id="SVGID_00000100365333243542048920000005442893703927408810_">
		<use xlink:href="#SVGID_00000013897242829779496160000005928649401209102751_"  style="overflow:visible;"/>
	</clipPath>
	<g style="clip-path:url(#SVGID_00000100365333243542048920000005442893703927408810_);">
		<path class="st15" d="M673.2,1236.8c3.9,3.5,14.6,6.2,28.4,6.4c13.2,0.2,24.6-1.6,29.2-5.5c3.1-2.7-5.9-11.6-28.9-11.8
			C677,1225.7,670,1234,673.2,1236.8z"/>
	</g>
</g>
<path class="st15" d="M843,1271.1c0,0,23.7,56,3.9,106.4c-3.1,8-9,14.5-16.7,18.4c-15.8,8-45.6,17.4-73.5-5.4
	c-5.3-4.3-9.2-10.1-11.3-16.6c-5.5-16.4-12.3-52.6,8.3-101.8l28.3,17.9l29.7,2.2l20.6-7.2l9-14.1L843,1271.1z"/>
<path class="st16" d="M804.6,1292.6c0,0-1,98.3-4,109.5l-1.3-109.6L804.6,1292.6z"/>
<path class="st16" d="M772.7,1288.1c0,0-10.5,44-4.7,107c0,0-14.2-34.2,0.4-109L772.7,1288.1z"/>
<path class="st16" d="M830.1,1286.2c0,0,10.7,46,3.2,107.3c0,0,14.2-37.1,1.6-110.4L830.1,1286.2z"/>
<ellipse transform="matrix(1.308960e-02 -0.9999 0.9999 1.308960e-02 -486.9581 2056.7412)" class="st16" cx="798.4" cy="1275.1" rx="19.2" ry="45.8"/>
<ellipse transform="matrix(1.308960e-02 -0.9999 0.9999 1.308960e-02 -484.628 2054.5017)" class="st17" cx="798.5" cy="1272.8" rx="11.5" ry="32.6"/>
<path class="st18" d="M751,1277.8c0,0-5.3,13.9,4.8,19.5s19.6,9.6,44.1,9.1c23.6-0.4,44.3-9.9,47.7-16.6c1.8-3.6,0.2-7.7-1.7-10.8
	c0-0.4-0.1-0.8-0.3-1.2c-0.2-0.3-0.3-0.7-0.4-1c0-0.3-0.1-0.5-0.2-0.8c7.8,5.9,27,24.1-7.6,41.2c-33.3,16.4-72.4,5.8-86.1-2
	c-9.8-5.6-10.6-9.8-12-15.7C737.9,1293.3,739.3,1285.2,751,1277.8z"/>
<g>
	<defs>
		<path id="SVGID_00000179620638346744539990000003920639757199917961_" d="M842.2,1274.1c0,0,37.2,22.4-4.8,43.1
			c-33.3,16.4-71.6,4.6-86.1-2c-6-2.7-10.6-9.8-12-15.7c-1.5-6.2,0-14.3,11.7-21.7c0,0-5.3,13.9,4.8,19.5s19.6,9.6,44.1,9.1
			c23.6-0.4,44.5-9.8,47.7-16.6C850.6,1283.3,842.2,1274.1,842.2,1274.1z"/>
	</defs>
	<clipPath id="SVGID_00000156547795776581585040000013474853589333525896_">
		<use xlink:href="#SVGID_00000179620638346744539990000003920639757199917961_"  style="overflow:visible;"/>
	</clipPath>
	<g style="clip-path:url(#SVGID_00000156547795776581585040000013474853589333525896_);">
		<path class="st20" d="M751.2,1276.4c5.6-3.8,78.3-3.8,89.7-3.7c-0.4,0.1-0.7,0.4-0.8,0.8c0,0.5,0.4,0.8,0.9,0.8h0.2
			c0,0.1-0.1,0.1-0.1,0.2v0.2c0,0.1,0,0.3,0.1,0.4l0.2,0.2c0.1,0.1,0.2,0.1,0.3,0.2c0.1,0,0.2,0.1,0.4,0.1c0.1,0,0.2,0,0.4-0.1l0,0
			c0,0.2,0.1,0.4,0.3,0.6l0.2,0.1l-0.1,5.3c0,1,1.7,1.1,1.8,0.1c0.1,0.2,0.1,0.4,0.2,0.6c0.2,0.4,0.7,0.7,1.1,0.6
			c0.5-0.1,0.7-0.5,0.7-1c0,0,0,0,0,0c-0.3-0.8-1.7-5.8-1.8-6.1s-0.1-1.1-0.1-1.1c4.2,3.8,11.7,12.8,1.2,21
			c-13.8,10.8-32.5,14.3-46.5,14.9s-38.5-2.2-48.8-11.4C743.9,1292.9,745.1,1280.5,751.2,1276.4z"/>
	</g>
</g>
<path class="st18" d="M854.8,1336.5c0,0,16.6,48.6-56.6,47.6c-80.5-1-58.2-54.9-58.2-54.9s-1.5,38.8,57,36.3
	S854.8,1336.5,854.8,1336.5z"/>
<g>
	<defs>
		<path id="SVGID_00000183223530468195657610000013659856137951782032_" d="M854.8,1335.9c0,0,24.8,41.5-56.6,43
			c-83.5,1.6-58.3-49.7-58.3-49.7s-1.4,35.1,57,32.9S854.8,1335.9,854.8,1335.9z"/>
	</defs>
	<clipPath id="SVGID_00000084505005097154750170000002982024387751602304_">
		<use xlink:href="#SVGID_00000183223530468195657610000013659856137951782032_"  style="overflow:visible;"/>
	</clipPath>
	<g style="clip-path:url(#SVGID_00000084505005097154750170000002982024387751602304_);">
		<path class="st20" d="M855,1322.4c0,0,19.1,43-56.6,45c-78.2,2-58.2-51.9-58.2-51.9s-1.4,36.7,57,34.3S855,1322.4,855,1322.4z"/>
	</g>
</g>
<g>
	<defs>
		
			<ellipse id="SVGID_00000075879988582683159080000009494633084901278113_" transform="matrix(1.308960e-02 -0.9999 0.9999 1.308960e-02 -484.628 2054.5017)" cx="798.5" cy="1272.8" rx="11.5" ry="32.6"/>
	</defs>
	<clipPath id="SVGID_00000104686803637717509940000000299628866756140200_">
		<use xlink:href="#SVGID_00000075879988582683159080000009494633084901278113_"  style="overflow:visible;"/>
	</clipPath>
	<g style="clip-path:url(#SVGID_00000104686803637717509940000000299628866756140200_);">
		<path class="st15" d="M766.2,1279c4.4,3.9,16.4,6.9,31.8,7.1c14.8,0.2,27.6-1.8,32.6-6.2c3.5-3-6.5-13-32.3-13.2
			C770.4,1266.6,762.6,1275.9,766.2,1279z"/>
	</g>
</g>
<polygon class="st16" points="1288.2,722.6 1275.7,1318.1 973,1435.3 980.5,660.3 1037.3,661.8 "/>
<polygon class="st14" points="1274.9,782.3 995.5,774.8 1001.3,722.9 1278,752.3 "/>
<path class="st15" d="M1261.1,1333.5l-10.6-5.2l10.6-567.8l19.7,5.8C1280.8,766.3,1280,1273.6,1261.1,1333.5z"/>
<polygon class="st29" points="1297.4,769 1280.5,1325.7 1261.1,1333.5 1273.7,762.6 "/>
<polygon class="st15" points="1313.5,773.9 1300.6,775.9 1017.6,754.1 1017.8,745.5 1309.5,769.7 "/>
<path class="st29" d="M1313.9,751.3l-0.4,22.5l-314.8-29.6l12.3-34.6C1011,709.6,1284.9,718.1,1313.9,751.3z"/>
<polygon class="st11" points="1360.1,746.6 1355.1,761.1 952.5,701.5 955.8,683.9 1087.6,682.4 1275.7,721.8 1358.2,745.9 "/>
<polygon class="st13" points="1021.8,709.9 518.2,483.7 482,474.1 998.5,720.8 "/>
<polygon class="st29" points="543.8,1180.7 555,1175.7 567.5,531.4 553.6,539 "/>
<polygon class="st15" points="553.5,543.9 543.8,1180.7 519.5,1164.3 529.1,517.4 "/>
<polygon class="st29" points="972.8,1442 987.4,1435.8 998.5,718.3 980.1,740.7 "/>
<polygon class="st13" points="1005.1,709.5 1021.8,709.9 1020.5,759.5 1003.8,759 990.7,724 "/>
<polygon class="st15" points="482,474.1 1005.1,709.5 1003.8,759 483.1,511 "/>
<ellipse transform="matrix(2.617695e-02 -0.9997 0.9997 2.617695e-02 -512.4135 1987.1178)" class="st14" cx="763.7" cy="1256.6" rx="11.6" ry="35.2"/>
<path class="st15" d="M804.5,1159.5c0,0,18.8,44.3,3.1,84.2c-2.5,6.3-7.2,11.5-13.2,14.6c-12.5,6.3-36.1,13.8-58.2-4.3
	c-4.2-3.4-7.3-8-8.9-13.1c-4.3-13-9.7-41.7,6.6-80.5l22.4,14.2l23.5,1.8l16.3-5.7l7.1-11.2L804.5,1159.5z"/>
<path class="st16" d="M774.1,1176.5c0,0-0.8,77.8-3.1,86.7l-1-86.7L774.1,1176.5z"/>
<path class="st16" d="M748.8,1172.9c0,0-8.3,34.8-3.8,84.7c0,0-11.2-27.1,0.3-86.2L748.8,1172.9z"/>
<path class="st16" d="M794.3,1171.4c0,0,8.4,36.4,2.6,84.9c0,0,11.3-29.3,1.3-87.4L794.3,1171.4z"/>
<ellipse transform="matrix(1.308960e-02 -0.9999 0.9999 1.308960e-02 -403.3536 1916.5383)" class="st16" cx="769.2" cy="1162.6" rx="15.2" ry="36.2"/>
<ellipse transform="matrix(1.308960e-02 -0.9999 0.9999 1.308960e-02 -401.5097 1914.7588)" class="st17" cx="769.2" cy="1160.8" rx="9.1" ry="25.8"/>
<path class="st18" d="M731.7,1164.8c0,0-4.2,11,3.8,15.5s15.5,7.6,34.9,7.2c18.7-0.3,35.1-7.8,37.8-13.2c1.4-2.8,0.2-6.1-1.3-8.6
	c0-0.3-0.1-0.6-0.2-0.9c-0.1-0.2-0.2-0.5-0.3-0.8c0-0.2-0.1-0.4-0.2-0.6c6.2,4.6,21.4,19-6,32.6c-26.3,13-57.3,4.6-68.2-1.6
	c-7.8-4.4-8.4-7.8-9.5-12.4C721.3,1177,722.4,1170.6,731.7,1164.8z"/>
<g>
	<defs>
		<path id="SVGID_00000114064408526784561960000009408079195787984042_" d="M803.9,1161.8c0,0,29.5,17.7-3.8,34.1
			c-26.3,13-56.7,3.6-68.2-1.6c-4.7-2.1-8.4-7.8-9.5-12.4c-1.2-4.9,0-11.3,9.2-17.2c0,0-4.2,11,3.8,15.5s15.5,7.6,34.9,7.2
			c18.7-0.3,35.3-7.7,37.8-13.2C810.5,1169.1,803.9,1161.8,803.9,1161.8z"/>
	</defs>
	<clipPath id="SVGID_00000163060277258346192960000015898481726403314603_">
		<use xlink:href="#SVGID_00000114064408526784561960000009408079195787984042_"  style="overflow:visible;"/>
	</clipPath>
	<g style="clip-path:url(#SVGID_00000163060277258346192960000015898481726403314603_);">
		<path class="st20" d="M731.8,1163.6c4.4-3,62-3,71-3c-0.3,0-0.6,0.3-0.6,0.6c0,0.4,0.3,0.7,0.7,0.7h0.2l-0.1,0.1v0.2
			c0,0.1,0,0.2,0.1,0.3l0.1,0.1c0.1,0.1,0.1,0.1,0.2,0.1c0.1,0,0.2,0.1,0.3,0.1c0.1,0,0.2,0,0.3,0l0,0c0,0.2,0.1,0.3,0.2,0.4
			c0,0,0.1,0.1,0.1,0.1v4.2c0,0.8,1.3,0.8,1.5,0.1l0.2,0.5c0.1,0.4,0.5,0.6,0.9,0.5c0.4-0.1,0.6-0.4,0.5-0.7c0,0,0,0,0,0
			c-0.2-0.7-1.3-4.6-1.4-4.8s-0.1-0.9-0.1-0.9c3.3,3,9.3,10.1,0.9,16.6c-11,8.5-25.8,11.3-36.8,11.8s-30.5-1.7-38.6-9
			C726.1,1176.7,727,1166.9,731.8,1163.6z"/>
	</g>
</g>
<path class="st18" d="M813.8,1211.2c0,0,13.2,38.4-44.8,37.7c-63.7-0.8-46.1-43.5-46.1-43.5s-1.1,30.7,45.1,28.7
	S813.8,1211.2,813.8,1211.2z"/>
<g>
	<defs>
		<path id="SVGID_00000042702067259249437610000002775205568265690799_" d="M813.8,1210.8c0,0,19.7,32.8-44.8,34
			c-66.1,1.2-46.1-39.3-46.1-39.3s-1.1,27.8,45.2,26S813.8,1210.8,813.8,1210.8z"/>
	</defs>
	<clipPath id="SVGID_00000072961889413126305280000016081298468046950297_">
		<use xlink:href="#SVGID_00000042702067259249437610000002775205568265690799_"  style="overflow:visible;"/>
	</clipPath>
	<g style="clip-path:url(#SVGID_00000072961889413126305280000016081298468046950297_);">
		<path class="st20" d="M814,1200.1c0,0,15.1,34.1-44.8,35.6c-61.9,1.6-46.1-41.1-46.1-41.1s-1.1,29,45.1,27.2
			S814,1200.1,814,1200.1z"/>
	</g>
</g>
<g>
	<defs>
		
			<ellipse id="SVGID_00000093886681031771634010000005539870551461502895_" transform="matrix(9.999500e-03 -0.9999 0.9999 9.999500e-03 -397.7766 1912.4806)" cx="767" cy="1157.1" rx="9.1" ry="25.8"/>
	</defs>
	<clipPath id="SVGID_00000147182507443490005500000012905824020955145912_">
		<use xlink:href="#SVGID_00000093886681031771634010000005539870551461502895_"  style="overflow:visible;"/>
	</clipPath>
	<g style="clip-path:url(#SVGID_00000147182507443490005500000012905824020955145912_);">
		<path class="st15" d="M743.7,1165.7c3.5,3.1,13,5.5,25.1,5.7c11.7,0.2,21.8-1.4,25.8-4.9c2.8-2.4-5.2-10.3-25.6-10.5
			C747,1155.9,740.9,1163.2,743.7,1165.7z"/>
	</g>
</g>
<ellipse transform="matrix(2.617695e-02 -0.9997 0.9997 2.617695e-02 -559.4541 1859.4504)" class="st14" cx="674.7" cy="1216.9" rx="10.5" ry="31.9"/>
<path class="st15" d="M711.7,1128.8c0,0,17,40.2,2.8,76.4c-2.2,5.7-6.5,10.4-12,13.2c-11.3,5.8-32.8,12.5-52.8-3.9
	c-3.8-3.1-6.6-7.2-8.1-11.9c-3.9-11.8-8.8-37.8,6-73.1l20.4,12.9l21.3,1.6l14.8-5.2l6.5-10.1L711.7,1128.8z"/>
<path class="st16" d="M684.1,1144.2c0,0-0.7,70.6-2.8,78.7l-0.9-78.7L684.1,1144.2z"/>
<path class="st16" d="M661.2,1141c0,0-7.6,31.6-3.4,76.8c0,0-10.2-24.6,0.3-78.2L661.2,1141z"/>
<path class="st16" d="M702.4,1139.6c0,0,7.7,33,2.3,77.1c0,0,10.2-26.6,1.2-79.3L702.4,1139.6z"/>
<ellipse transform="matrix(1.308960e-02 -0.9999 0.9999 1.308960e-02 -460.7402 1796.3888)" class="st16" cx="679.7" cy="1131.6" rx="13.8" ry="32.9"/>
<ellipse transform="matrix(1.308960e-02 -0.9999 0.9999 1.308960e-02 -459.0686 1794.7794)" class="st17" cx="679.7" cy="1129.9" rx="8.3" ry="23.4"/>
<path class="st18" d="M645.6,1133.6c0,0-3.8,10,3.4,14s14,6.9,31.7,6.5c17-0.3,31.8-7.1,34.2-12c1.3-2.6,0.1-5.5-1.2-7.8
	c0-0.3-0.1-0.6-0.2-0.8c-0.1-0.2-0.2-0.4-0.3-0.7c0-0.2-0.1-0.4-0.1-0.6c5.6,4.2,19.4,17.3-5.5,29.6c-23.9,11.8-52,4.2-61.9-1.4
	c-7.1-4-7.6-7-8.6-11.3C636.2,1144.7,637.2,1138.9,645.6,1133.6z"/>
<g>
	<defs>
		<path id="SVGID_00000018939379719211324370000003211976303028509885_" d="M711.1,1130.9c0,0,26.8,16.1-3.4,31
			c-23.9,11.8-51.4,3.3-61.9-1.4c-4.3-1.9-7.6-7-8.6-11.3c-1.1-4.5,0-10.3,8.4-15.6c0,0-3.8,10,3.4,14s14,6.9,31.7,6.5
			c17-0.3,32-7,34.2-12C717.1,1137.5,711.1,1130.9,711.1,1130.9z"/>
	</defs>
	<clipPath id="SVGID_00000146496881364830808200000001469271100238050482_">
		<use xlink:href="#SVGID_00000018939379719211324370000003211976303028509885_"  style="overflow:visible;"/>
	</clipPath>
	<g style="clip-path:url(#SVGID_00000146496881364830808200000001469271100238050482_);">
		<path class="st20" d="M645.7,1132.5c4-2.7,56.2-2.7,64.4-2.7c-0.3,0-0.5,0.3-0.5,0.6c0,0.3,0.3,0.6,0.7,0.6h0.2l-0.1,0.1v0.2
			c0,0.1,0,0.2,0.1,0.3l0.1,0.1c0.1,0.1,0.1,0.1,0.2,0.1c0.1,0,0.2,0,0.2,0.1c0.1,0,0.2,0,0.3-0.1l0,0c0,0.1,0.1,0.3,0.2,0.4
			l0.1,0.1l0,3.8c0,0.7,1.2,0.8,1.3,0.1c0,0.1,0.1,0.3,0.2,0.4c0.1,0.3,0.5,0.5,0.8,0.4c0.3-0.1,0.5-0.3,0.5-0.7c0,0,0,0,0-0.1
			c-0.2-0.6-1.2-4.1-1.3-4.3s-0.1-0.8-0.1-0.8c3,2.8,8.4,9.2,0.9,15c-10,7.7-23.4,10.2-33.4,10.7s-27.7-1.6-35-8.2
			C640.5,1144.4,641.4,1135.5,645.7,1132.5z"/>
	</g>
</g>
<path class="st18" d="M720.1,1175.7c0,0,11.9,34.9-40.7,34.2c-57.8-0.8-41.8-39.4-41.8-39.4s-1,27.9,40.9,26.1
	S720.1,1175.7,720.1,1175.7z"/>
<g>
	<defs>
		<path id="SVGID_00000127752779310244141720000007297726850016182666_" d="M720.1,1175.3c0,0,17.8,29.8-40.6,30.9
			c-60,1.1-41.9-35.7-41.9-35.7s-1,25.2,41,23.6S720.1,1175.3,720.1,1175.3z"/>
	</defs>
	<clipPath id="SVGID_00000029728323451969177330000016947794908663361926_">
		<use xlink:href="#SVGID_00000127752779310244141720000007297726850016182666_"  style="overflow:visible;"/>
	</clipPath>
	<g style="clip-path:url(#SVGID_00000029728323451969177330000016947794908663361926_);">
		<path class="st20" d="M720.3,1165.6c0,0,13.7,30.9-40.7,32.3c-56.2,1.4-41.8-37.3-41.8-37.3s-1,26.3,41,24.7
			S720.3,1165.6,720.3,1165.6z"/>
	</g>
</g>
<g>
	<defs>
		
			<ellipse id="SVGID_00000047765918056754095680000017921395686939657608_" transform="matrix(1.308960e-02 -0.9999 0.9999 1.308960e-02 -459.0686 1794.7794)" cx="679.7" cy="1129.9" rx="8.3" ry="23.4"/>
	</defs>
	<clipPath id="SVGID_00000056387261252984030220000015518602412479795892_">
		<use xlink:href="#SVGID_00000047765918056754095680000017921395686939657608_"  style="overflow:visible;"/>
	</clipPath>
	<g style="clip-path:url(#SVGID_00000056387261252984030220000015518602412479795892_);">
		<path class="st15" d="M656.5,1134.4c3.1,2.8,11.8,5,22.8,5.1c10.6,0.1,19.8-1.3,23.4-4.4c2.5-2.2-4.7-9.3-23.2-9.5
			C659.5,1125.5,653.9,1132.2,656.5,1134.4z"/>
	</g>
</g>
<polygon class="st12" points="976.1,689.4 482,474.1 863.1,575.7 1360.1,746.6 "/>
<ellipse transform="matrix(2.617695e-02 -0.9997 0.9997 2.617695e-02 -420.8173 1846.0315)" class="st14" cx="737.1" cy="1139" rx="10.8" ry="32.7"/>
<path class="st15" d="M775,1048.9c0,0,17.4,41.2,2.9,78.2c-2.3,5.9-6.6,10.7-12.2,13.6c-11.6,5.9-33.5,12.8-54-4
	c-3.9-3.2-6.7-7.4-8.3-12.2c-4-12.1-9-38.7,6.1-74.7l20.8,13.2l21.8,1.7l15.1-5.3l6.6-10.4L775,1048.9z"/>
<path class="st16" d="M746.7,1064.7c0,0-0.7,72.2-2.9,80.4l-1-80.5L746.7,1064.7z"/>
<path class="st16" d="M723.3,1061.4c0,0-7.8,32.3-3.5,78.6c0,0-10.4-25.1,0.3-80L723.3,1061.4z"/>
<path class="st16" d="M765.4,1059.9c0,0,7.8,33.8,2.4,78.8c0,0,10.5-27.2,1.2-81.1L765.4,1059.9z"/>
<ellipse transform="matrix(1.308960e-02 -0.9999 0.9999 1.308960e-02 -319.221 1780.1742)" class="st16" cx="742.2" cy="1051.8" rx="14.1" ry="33.6"/>
<ellipse transform="matrix(1.308960e-02 -0.9999 0.9999 1.308960e-02 -317.5089 1778.5245)" class="st17" cx="742.2" cy="1050.1" rx="8.5" ry="23.9"/>
<path class="st18" d="M707.3,1053.8c0,0-3.9,10.2,3.5,14.4s14.4,7,32.4,6.7c17.4-0.3,32.6-7.2,35-12.2c1.3-2.6,0.1-5.6-1.2-7.9
	c0-0.3-0.1-0.6-0.2-0.9c-0.1-0.2-0.2-0.5-0.3-0.7c0-0.2-0.1-0.4-0.1-0.6c5.8,4.3,19.9,17.7-5.6,30.2c-24.5,12.1-53.2,4.3-63.3-1.4
	c-7.2-4.1-7.8-7.2-8.8-11.5C697.7,1065.2,698.8,1059.2,707.3,1053.8z"/>
<g>
	<defs>
		<path id="SVGID_00000103953207451129872990000008004308916531995327_" d="M774.3,1051.1c0,0,27.4,16.4-3.5,31.7
			c-24.5,12.1-52.6,3.4-63.3-1.4c-4.4-2-7.8-7.2-8.8-11.5c-1.1-4.6,0-10.5,8.6-16c0,0-3.9,10.2,3.5,14.4s14.4,7,32.4,6.7
			c17.4-0.3,32.7-7.2,35-12.2C780.5,1057.9,774.3,1051.1,774.3,1051.1z"/>
	</defs>
	<clipPath id="SVGID_00000170971164738535690010000008513752780646676365_">
		<use xlink:href="#SVGID_00000103953207451129872990000008004308916531995327_"  style="overflow:visible;"/>
	</clipPath>
	<g style="clip-path:url(#SVGID_00000170971164738535690010000008513752780646676365_);">
		<path class="st20" d="M707.5,1052.8c4.1-2.8,57.5-2.8,65.9-2.8c-0.3,0-0.6,0.3-0.6,0.6s0.3,0.6,0.6,0.6c0,0,0.1,0,0.1,0h0.2
			c0,0,0,0.1-0.1,0.1v0.2c0,0.1,0,0.2,0.1,0.3l0.1,0.1c0.1,0.1,0.1,0.1,0.2,0.1c0.1,0,0.2,0.1,0.3,0.1c0.1,0,0.2,0,0.3,0l0,0
			c0,0.2,0.1,0.3,0.2,0.4l0.1,0.1l0,3.9c0,0.8,1.2,0.8,1.3,0.1l0.2,0.4c0.1,0.3,0.5,0.5,0.8,0.4c0.3-0.1,0.6-0.4,0.5-0.7
			c0,0,0,0,0,0c-0.2-0.6-1.2-4.2-1.3-4.5s-0.1-0.8-0.1-0.8c3.1,2.8,8.6,9.4,0.9,15.4c-10.2,7.9-23.9,10.5-34.1,11
			s-28.3-1.6-35.8-8.3C702.2,1064.9,703,1055.8,707.5,1052.8z"/>
	</g>
</g>
<path class="st18" d="M783.6,1096.9c0,0,12.2,35.7-41.6,35c-59.1-0.8-42.8-40.3-42.8-40.3s-1.1,28.5,41.9,26.7
	S783.6,1096.9,783.6,1096.9z"/>
<g>
	<defs>
		<path id="SVGID_00000138536357162810839970000018404693910349423550_" d="M783.6,1096.5c0,0,18.2,30.5-41.6,31.6
			c-61.4,1.1-42.8-36.5-42.8-36.5s-1,25.8,41.9,24.2S783.6,1096.5,783.6,1096.5z"/>
	</defs>
	<clipPath id="SVGID_00000045616106573408536310000011562418575717433529_">
		<use xlink:href="#SVGID_00000138536357162810839970000018404693910349423550_"  style="overflow:visible;"/>
	</clipPath>
	<g style="clip-path:url(#SVGID_00000045616106573408536310000011562418575717433529_);">
		<path class="st20" d="M783.7,1086.6c0,0,14,31.6-41.6,33c-57.4,1.4-42.8-38.2-42.8-38.2s-1,27,41.9,25.2
			S783.7,1086.6,783.7,1086.6z"/>
	</g>
</g>
<g>
	<defs>
		
			<ellipse id="SVGID_00000088843278989952906020000005423406040887987603_" transform="matrix(1.308960e-02 -0.9999 0.9999 1.308960e-02 -317.5089 1778.5245)" cx="742.2" cy="1050.1" rx="8.5" ry="23.9"/>
	</defs>
	<clipPath id="SVGID_00000029765674521951719550000006078919497911106975_">
		<use xlink:href="#SVGID_00000088843278989952906020000005423406040887987603_"  style="overflow:visible;"/>
	</clipPath>
	<g style="clip-path:url(#SVGID_00000029765674521951719550000006078919497911106975_);">
		<path class="st15" d="M718.5,1054.7c3.2,2.8,12,5.1,23.3,5.2c10.8,0.2,20.2-1.3,24-4.5c2.6-2.2-4.8-9.6-23.8-9.7
			C721.6,1045.6,715.9,1052.4,718.5,1054.7z"/>
	</g>
</g>
<path class="st11" d="M1165.6,684.5l-273.2-48.2c0,0,73.2,16.3,139.3,29.8S1165.6,684.5,1165.6,684.5z"/>
<path class="st11" d="M1014.2,638.2l-270.9-59.8c0,0,72.5,19.4,137.9,35.7S1014.2,638.2,1014.2,638.2z"/>
<path class="st11" d="M897.5,595l-269.1-67.5c0,0,71.9,21.5,136.8,39.6S897.5,595,897.5,595z"/>
<path class="st39" d="M1189.8,1353l-129,52.2l-8.9-292.2l139.3-47.6C1191.2,1065.5,1197.4,1343.9,1189.8,1353z"/>
<polygon class="st15" points="1209.5,1362.7 1189.8,1353 1185.6,1065.3 1221.4,1049.9 "/>
<path class="st15" d="M1045.9,1429.3l-22.4-14.9l-5.3-286.1l38.3,2.7C1056.5,1131.1,1055.3,1402.3,1045.9,1429.3z"/>
<polygon class="st29" points="1226.4,1353.7 1209.5,1362.7 1205.9,1059.5 1234.3,1050.2 "/>
<polygon class="st29" points="1071.9,1110.9 1068,1417.3 1045.9,1429.3 1038.5,1126.6 "/>
<path class="st15" d="M1019,1142.5c0,0-11.5-2.8-12.8-6s-4.6-15.8-1.7-24.7l16.4,3.5C1021,1115.3,1027.1,1138.1,1019,1142.5z"/>
<polygon class="st13" points="1244.5,1024.4 1230.3,1022.7 1004.6,1111.8 1016.4,1117.3 1076.1,1097.5 "/>
<path class="st29" d="M1244.5,1024.4c0,0,4.2,20.9-1.2,26.4c0,0-219.7,95.9-224.3,91.7s-2.6-25.2-2.6-25.2L1244.5,1024.4z"/>
<polygon class="st40" points="1179.4,1104.3 1178.2,1346.4 1167.9,1350.9 1159.4,1139.6 1106,1158.5 1112.6,1331 1103.5,1334.1 
	1087.6,1136.3 "/>
<polygon class="st40" points="1093.2,1373.7 1086.9,1221.6 1078.6,1223.7 1078.7,1380.7 "/>
<polygon class="st39" points="854.6,915.9 945.3,971.1 945.3,976.2 "/>
<path class="st39" d="M567.5,1005.9c250.5,20.9,359.6-5.8,377.7-24.6l-0.1,12.7c-32.9,37.4-137.1,127.6-367,111.6
	c-107.3-7.4-236.3-121.6-251.8-254.3C354,916.4,426.3,994.2,567.5,1005.9z"/>
<path class="st40" d="M854.6,915.9L563.2,752.6c0,0-89.6,80.8-248.8,67.8c0,0,3.9,12.1,11.9,31c27.7,65,105.1,210.6,246.3,222.4
	c250.5,20.9,354.5-73.6,372.6-92.4v-5.1L854.6,915.9z"/>
<polygon class="st15" points="980.1,731.1 972.8,1442 941.2,1420.7 945.1,994 945.2,981.3 945.3,976.2 945.3,971.1 947.8,704.4 "/>
<polygon class="st8" points="1502.3,1265.5 1438.3,1254.3 1386.6,1275.9 1452.7,1310.4 "/>
<polygon class="st9" points="1450.4,1351.8 1451.1,1318.9 1451.8,1290.3 1502.3,1265.5 1497.7,1325.3 "/>
<polygon class="st10" points="1451.8,1290.3 1450.4,1351.8 1391.6,1334.1 1386.6,1275.9 "/>
<polygon class="st11" points="1442.1,1297 1441.1,1340.4 1400.5,1327.3 1397.1,1287.1 "/>
<polygon class="st12" points="1460.9,1333 1461.4,1314.1 1461.8,1297.1 1491.8,1282.3 1489.1,1317.1 "/>
<polygon class="st13" points="1483.6,1267.7 1442.4,1260.2 1406.3,1273.7 1450.8,1283.5 "/>
<path class="st15" d="M773.3,1457.5c0,0-16.9,25.1-37.7,12.9L549.2,976.2l65.3-26.3L773.3,1457.5z"/>
<ellipse transform="matrix(0.9272 -0.3744 0.3744 0.9272 -318.264 287.9327)" class="st29" cx="581.9" cy="963" rx="35.2" ry="18.2"/>
<path class="st15" d="M482.8,1255.5c0,0-10.8,18.4-28.6,11.9L255.5,812.1l54.7-24.2L482.8,1255.5z"/>
<path class="st29" d="M278,792.7c-10.5,5.5-25.4,13.3-22.5,19.4s13.2,8.6,29.8,0.6s27.6-19.4,24.7-25.5S294.3,784.2,278,792.7z"/>
<path class="st41" d="M915.8,1543.1c-2.4-25.8,11.4-31.1,12.5-37.2c0,0-23.3,6.7-23.9,23.3l-0.2-1.2c-1.4-9.6-0.6-19.4,2.5-28.7
	c2.9-8.2,2.8-17.1-0.1-25.3c0,0-13.8,44.4-22,42.9c0,0,9.5-14.4,3.6-31.8c0,0-13.2,31.3-15.4,37.3
	C864.4,1544.6,916.9,1555.3,915.8,1543.1z"/>
<path class="st41" d="M1292.4,1339c11.1-18.9,2.5-27.8,3.9-32.9c0,0,15.4,13.5,9.9,26.4l0.6-0.8c4.6-6.8,7.4-14.6,8.4-22.8
	c0.8-7.3,4-14.1,9.2-19.3c0,0-5.5,38.9,1.4,40.8c0,0-2.1-14.4,8.7-25.6c0,0-1.2,28.7-1.6,34.1
	C1331.2,1358.7,1287.2,1348,1292.4,1339z"/>
<polygon class="st15" points="902.5,752.6 900.8,900.1 596,734.5 602.6,608.3 "/>
<polygon class="st17" points="878.5,769 875.9,858.8 615.4,722.9 621,642.9 "/>
<polygon class="st17" points="1222.3,818.4 1034.3,800.8 1037.2,906.2 1224.3,834.8 1222.4,820.5 "/>
<path class="st15" d="M1020.9,791l-0.8,150.8l-0.2,8.7l214.9-91.9l8-10.5l-5.3,1.5l0.4-18.5l-188.7-31.5l-12.2-3.7l2.7-4.5
	l-13.4-12.5L1020.9,791z M1048.5,827.7l147.4,16l-149.4,60.4L1048.5,827.7z"/>
<path class="st29" d="M1026.4,779l-0.8,150.8l-0.2,8.7l217.4-90.4l0.7-29l-188.7-31.5l0,0L1026.4,779z M1201.3,836.5L1052,892.1
	l1.9-71.5L1201.3,836.5z"/>
<polygon class="st40" points="1144.8,1138.7 1152,1335.1 1136.1,1341.3 1122.6,1143.1 "/>
<polygon class="st15" points="718.1,676.3 712.7,780.3 737.9,792.7 742.9,685.2 "/>
<g>
	<defs>
		<path id="SVGID_00000143602342970219323790000017882096934015441578_" d="M1431.1,897.7c0,0,165.6,67.3,185.9-132.4
			c0,0,96.3,4.3,106-112.7c10.6-127.7-105.3-130.6-78.6-138.7c92.3-28,92.3-205.9-53.3-196.7c0,0,60.9-142.8-88.9-162.4
			c-227.2-29.6-217.9,176.3-217.9,176.3s-167.1,17.2-107.8,194.3c0,0-153.1,103.4,22.6,246.5
			C1199.1,772.1,1206.4,941.7,1431.1,897.7z"/>
	</defs>
	<clipPath id="SVGID_00000165930514510456212970000011418729162894848925_">
		<use xlink:href="#SVGID_00000143602342970219323790000017882096934015441578_"  style="overflow:visible;"/>
	</clipPath>
	<g style="clip-path:url(#SVGID_00000165930514510456212970000011418729162894848925_);">
		<path class="st43" d="M1284.2,331.3c0,0,11.3-92.7,117.6-80c119.5,14.3,115.4,104.2,106.2,125.6c0,0,149.1-9.2,81.7,140
			c0,0,99.1,145.8-58.2,206c0,0,69.4,152.4-100.4,174.8l292.6,125l62-193.7c0,0,38.8-358.9,38.8-382.1s-55.2-321.4-55.2-321.4
			L1473,15.3c0,0-185.8,71.5-188.8,77.7s-41.4,177.7-41.4,177.7l30.6,62.4L1284.2,331.3z"/>
	</g>
</g>
<g>
	<defs>
		<path id="SVGID_00000124846547795628561620000003157566518796480183_" d="M854.6,915.9L563.2,752.6c0,0-89.6,80.8-248.8,67.8
			c0,0,3.9,12.1,11.9,31c27.7,65,105.1,210.6,246.3,222.4c250.5,20.9,354.5-73.6,372.6-92.4v-5.1L854.6,915.9z"/>
	</defs>
	<clipPath id="SVGID_00000163767084469567630620000003063705956785069450_">
		<use xlink:href="#SVGID_00000124846547795628561620000003157566518796480183_"  style="overflow:visible;"/>
	</clipPath>
	<g style="clip-path:url(#SVGID_00000163767084469567630620000003063705956785069450_);">
		<path class="st39" d="M715,819.4c0,0,27.2,106.1-220.8,116.6c0,0,252.3-62.3,176.3-164.3L715,819.4z"/>
		<path class="st39" d="M654.6,802.3c0,0-5,76.6-184.5,48.7c0,0,179.5,11,158.2-76.8L654.6,802.3z"/>
	</g>
</g>
<path class="st41" d="M741.8,1565.9c0,0-0.6-31.2-6.7-46.4c0,0,22.1,20.6,21.9,38.7S741.8,1565.9,741.8,1565.9z"/>
<path class="st41" d="M753.8,1569.2c0,0,10.6-43.1,7.8-66.3c0,0,22.8,36.4,16,61.2S753.8,1569.2,753.8,1569.2z"/>
<path class="st41" d="M743.1,1566.4c0,0-13.2-21-15.8-33.9c0,0-5.7,23.4,2.3,35.4S743.1,1566.4,743.1,1566.4z"/>
</svg>
