<?xml version="1.0" encoding="utf-8"?>
<!-- Generator: Adobe Illustrator 26.0.1, SVG Export Plug-In . SVG Version: 6.00 Build 0)  -->
<svg version="1.1" id="Layer_1" xmlns="http://www.w3.org/2000/svg" xmlns:xlink="http://www.w3.org/1999/xlink" x="0px" y="0px"
	 viewBox="0 0 3076 3076" style="enable-background:new 0 0 3076 3076;" xml:space="preserve">
<style type="text/css">
	.st0{fill:#AED76A;}
	.st1{fill:#FEEDE2;}
	.st2{fill:#FECEAD;}
	.st3{fill:#362314;}
	.st4{fill:#4E3E2F;}
	.st5{fill:#4F3F2F;}
	.st6{fill:#1D140B;}
	.st7{fill:#1E150C;}
	.st8{fill:#7A6048;}
	.st9{fill:#7C624A;}
	.st10{fill:#83481D;}
	.st11{fill:#A18A84;}
	.st12{fill:#7A625C;}
	.st13{fill:#7C645E;}
	.st14{fill:#FEFEFE;}
	.st15{fill:#6A5540;}
	.st16{fill:#F5F0EB;}
	.st17{fill:#B5906D;}
	.st18{fill:#B6906D;}
	.st19{fill:#B6906E;}
	.st20{fill:#404148;}
	.st21{fill:#9FA4B9;}
	.st22{fill:#67544F;}
	.st23{fill:#AFD86B;}
	.st24{fill:#AFD86C;}
	.st25{fill:#77A22F;}
</style>
<path class="st0" d="M871.4,1655c32.8-1.1,65.6-1.1,98.4-0.7c39.1,0.5,78.3,1.1,117.4,2c27.8,0.6,55.6,1.9,83.4,2.8
	c21.8,0.7,43.6,1.3,65.4,2.2c31.4,1.2,62.9,2.6,94.3,3.9c24.6,1,49.2,2,73.8,3.1c27.9,1.3,55.9,2.6,83.8,3.9c21.4,1,42.9,2,64.3,3.1
	c28.4,1.5,56.8,3.1,85.2,4.6c16.5,0.9,32.9,1.4,49.4,2.3c28.7,1.5,57.5,3.1,86.2,4.7c16,0.8,31.9,1.5,47.9,2.3
	c21.6,1.1,43.2,2,64.8,3.6c14.8,1.1,29.6,1.5,44.4,2.3c34.9,1.7,69.8,3.4,104.7,5.8c14.6,1,29.3,1.4,43.9,2.2
	c30.4,1.6,60.8,3.2,91.2,4.8c16.3,0.8,32.6,1.4,48.9,2.3c32.9,1.8,65.8,3.8,98.7,5.7c13.1,0.8,26.3,1.4,39.4,2.2
	c27.7,1.7,55.5,3.2,83.2,5.7c14.1,1.3,28.2,2.5,42.3,3.2c8.5,0.4,15.1,4.9,22.3,8.2c41.8,19.2,81.3,42.7,121.4,65
	c8,4.5,13.6,11.7,19.3,18.7c23.2,28.5,41.4,59.6,49,96c4.3,20.3,3.8,40.7,0.2,61.1c-0.5,3-0.7,6-0.6,8.9
	c2.1,39.9-7.8,77.2-23.6,113.3c-18.4,41.9-43.7,79.2-73.6,113.6c-46.5,53.5-99.1,100-158.6,138.6c-27.3,17.7-55.6,33.5-84.8,47.9
	c-23.5,11.6-45.5,25.8-69,37.3c-53.4,26.4-108.6,48.3-165.5,65.8c-17.3,5.3-35.5,7.3-53.2,10.8c-24.1,4.8-48.2,10-72.3,15.1
	c-31.4,6.6-63,12.1-94.9,15.7c-24.5,2.8-49.1,4-73.7,5.2c-16.5,0.8-33,0.8-49.4,0.5c-27.5-0.6-54.9-1.6-82.3-3.5
	c-13.9-1-27.9-1.4-41.9-2.3c-27.9-1.8-55.7-4.1-83.5-7.5c-20.3-2.5-40.6-4.9-60.9-7.3c-27.8-3.3-55.3-8.2-82.7-13.3
	c-23.4-4.4-46.7-8.7-69.8-14.7c-19.1-5-36.9-13.3-54.9-21.1c-37.3-16.2-74-33.7-110-52.4c-32-16.6-61.4-37.4-91.1-57.8
	c-46.1-31.7-90.1-66.4-136.7-97.4c-27.9-18.6-57.9-33.4-89.4-45.2c-27.6-10.3-56.4-15.4-84.9-22c-14.3-3.3-28.6-6.3-43-8.7
	c-10.1-1.6-20.3,0.5-30.4,0.9c-30.6,1.4-61.2,2.4-91.9,0.8c-30-1.6-59.7-5.1-88.9-12.1c-61-14.6-115.5-42-163.3-82.7
	c-14.5-12.3-28.4-25.2-39.6-40.7c-10.4-14.3-15.8-30-13.1-47.8c0.7-4.7,13.3-38.8,21.5-47.5c6.9-7.2,16.2-11.6,24.9-16.4
	c25.4-14,53.1-22.1,80.8-30c24.8-7.1,49.7-14.2,71.9-27.9c25.8-15.9,48.8-34.8,65-60.9c1.4-2.3,3.4-4.1,5.5-5.8
	c18.9-15.8,34-34.8,45.1-56.7c9.5-18.7,21.9-35.8,31.2-54.6c1.7-3.5,4.5-6,7.9-8.1c7.5-4.6,14.7-9.8,20.6-16.4
	c3.3-3.7,8.1-5.1,12.3-7.5c7.1-4.1,14.4-7.6,21.4-11.8c9.3-5.6,19.8-6.6,30.2-7.9C793.9,1657.3,832.6,1655.6,871.4,1655z"/>
<path class="st1" d="M1424.1,2012.1c0,0.3,0,0.6,0,0.9c-10.7,0-21.4,0-32.1,0c0-0.3,0-0.6,0-0.9
	C1402.7,2012.1,1413.4,2012.1,1424.1,2012.1z"/>
<path class="st2" d="M1392,2013.1c10.7,0,21.4,0,32.1,0c19.1,2.3,38.3,4.3,55.7,13.9c9,5,16.6,11.6,22.5,20c1.2,1.6,2.3,3.2,4,4.3
	c23.4,15,27.5,43.6,10.8,66.1c-9.5,12.8-8,34.1,3.8,44.8c12.6,11.4,25.9,22.1,42.4,27.4c25.6,8.3,51.9,14.1,78.4,18.5
	c17.6,2.9,35.3,6.1,53,8.6c9.7,1.4,19.5,1.6,29.2,2.4c5.9,0.5,11.9,1.1,17.8,1.8c2.4,0.3,4.6-0.4,6.9-0.6
	c21.7-1.8,43.3-3.1,65.1-0.5c41,5,80.9,14.9,120.4,26.5c43.1,12.7,84.9,29.1,125.8,47.7c53.8,24.4,104.9,53.4,153.5,86.9
	c23.7,16.3,46.6,33.7,69.1,51.6c2.5,2,2.3,3.1-0.5,4.5c-25.5,11.9-50.8,24.1-77,34.2c-21.1,8.2-42.4,15.8-63.6,23.5
	c-19.9,7.1-40.5,11.8-61.3,15.2c-22.9,3.7-45.5,9-68.3,13.7c-22.2,4.6-44.5,8.9-66.8,13.3c-1.9,0.4-3.5,0.3-4.9-1.4
	c-6.6-7.7-13.7-14.9-21-21.9c-19.2-18.5-40.8-33.5-63.8-46.7c-18.2-10.4-36.5-20.6-55.8-29c-31.9-13.9-65.1-24.3-99.1-31.5
	c-25-5.3-50.1-9.8-75.4-13.2c-23.5-3.2-46.9-6.6-70.4-9.7c-20.4-2.6-40.8-4.6-61.2-7.4c-24.8-3.4-49.8-6.1-74-12.8
	c-16.5-4.6-32.2-11.6-48-18.1c-32.3-13.4-63.5-29.1-92.7-48.5c-18.8-12.5-36.1-26.7-51.2-43.5c-16.8-18.8-29.1-40.1-32.3-65.6
	c-3.9-31,4.9-58.8,23.1-83.9c6.8-9.3,14.9-17.4,23.7-24.8c7.5-6.3,13.4-14.3,20.7-20.9c14.9-13.4,32.1-22.5,51-28.4
	c18.4-5.7,37.2-9.9,56.1-13.5C1377.2,2014.4,1384.6,2013.4,1392,2013.1z"/>
<path class="st3" d="M540,1576.2c-10.3,2-19.8,4.5-29.8,5.5c-16,1.6-31.8,1.5-47.8,1.1c-23.9-0.7-48,0.6-71.9,0.7
	c-15.3,0.1-30.6,0.4-45.9-1.7c-19.8-2.6-39.9-2.6-59.9-2.6c-5.1,0-9.9-0.7-14.5-3c-4.2-2-8.4-4.4-12.9-5.3
	c-8.9-1.7-13.8-7.5-17.6-14.9c-6.3-12.1-12.1-24.5-17.7-36.9c-5.2-11.5-2.1-24.2,0.4-36.2c0.4-2,1.8-3.9,3.7-4.5
	c6-2.2,9.3-7.4,13.3-11.7c7.5-8,15.5-15.6,24-22.6c39.3-32.2,75.4-67.6,109.6-105c32.2-35.2,67-67.7,102.6-99.4
	c4.8-4.3,8.9-8.9,12.4-14.3c14.1-21.9,30.4-41.9,47.8-61.3c56.5-63,109.5-129,163.6-194.1C785,867.4,864.5,760,943.5,652.3
	c34.7-47.3,68.5-95.1,101.3-143.7c2-3,4-6.1,6.8-10.5c-7-0.8-13.2-0.4-19.2-0.5c-10.3-0.1-11.2-0.6-14.2-10.2
	c-1.5-4.7-2.9-9.5-2.8-14.6c0.1-2.9-0.3-6.3-1.8-8.7c-4.5-7.3-3.8-15.3-3.8-23.2c0.1-11.7,0-23.3,0.2-35c0.2-7.9,2.3-10.6,9.7-13.1
	c7.4-2.5,15.1-2.8,22.7-2.9c24.3-0.2,48.7-0.8,73,0.4c26.5,1.3,53,3.5,79.4,6.5c82.3,9.5,163.7,24.4,245.2,38.4
	c56,9.6,112,19.1,168.3,27c47.4,6.6,94.8,13.1,142.2,19.3c51.7,6.8,103.4,13.8,155.2,19.8c26.4,3.1,52.9,5.5,79.4,6.9
	c27.2,1.4,54.3,3.6,81.5,5.5c2.8,0.2,6.5-1.3,8.1,2c1.6,3.2,3.3,7,2.4,10.6c-8.1,30.8-1.4,61.5-0.2,92.3c0.1,2.3,0.6,4.6-0.5,6.9
	c-3.3,7.5-1.3,14.3,2.9,20.7c6.9,10.6,14.1,21,22.6,30.5c19.5,21.8,41.1,41.9,57.3,66.6c42.1,45.4,80.1,94.4,121.7,140.2
	c47,51.8,90.2,107,134.7,160.9c45,54.4,90.3,108.6,134.8,163.5c19.3,23.8,37.1,48.8,57.4,71.8c2.9,3.3,3.1,7.1,3.5,11.1
	c1.8,22.2,3.8,44.5,5.5,66.7c2.2,28.9,4.4,57.8,6.3,86.7c1.4,21.6,2.5,43.2,3.6,64.8c0.2,4.6,1.1,9.4-0.5,13.9
	c-7,20.5-7.2,41.9-8.8,63.1c-4.7,60.9-0.3,121.9,0.8,182.8c0.9,48.3,2.1,96.6,3.4,144.9c0.3,10-2.6,19.7-2.5,29.7
	c0,5-3.6,5.4-7.3,6.5c-24.1,6.7-48.3,12.5-73,16.3c-30.6,4.7-60.7,12-91.1,17.9c-17.3,3.4-34.9,5-52.2,8.5
	c-40.8,8.2-81.3,17.4-122.1,25.7c-52.5,10.6-105.3,19.4-158.3,27.3c-42.4,6.4-84.9,12.2-127.5,17.1c-36,4.2-72.1,8.2-108.5,7.3
	c-11.5-0.3-22.3,3.7-33.1,6.8c-6.5,1.9-12.8,2.8-19.6,2.9c-21.7,0.1-43.3-1-64.9-2.1c-13.6-0.7-27.1-2.9-40.6-5
	c-4.8-0.7-8.1-1-10.3,4.4c-1.8,4.3-5.4,7.7-9.3,10.2c-15.6,10.2-31,20.7-47.6,29.3c-4,2.1-7.7,2.8-12.3,2.2
	c-48.9-6.3-97.4-15-146.6-18.7c-16.3-1.2-32.6-3-48.9-1.5c-17.5,1.6-34.5-1.8-51.6-3.9c-45.6-5.6-91.2-11.4-136.7-17.4
	c-41.6-5.5-83.3-10.2-125-14.7c-5.6-0.6-11.3-0.9-16.9-1c-10.9-0.2-15.8-4.8-16.1-15.9c-0.2-5.7,0-11.3,0-17c0-7.6-0.1-7.6-7.3-8.9
	c-14.4-2.5-29-4.2-43.5-5.7c-35.4-3.6-70.8-7.6-106.3-11.1c-14.9-1.4-29.9-1.4-44.8-2.9c-24.9-2.3-49.3-7.3-74-11.2
	c-39.2-6.1-78.4-11.8-118-13.9c-20.4-1.1-40-6.8-60-10c-25.6-4.2-51.1-9.3-77-11.6c-11.7-1-18-9-25.6-15.7c-2-1.8-1.2-4.4-1.3-6.6
	c-0.2-18.7-0.1-37.3-0.5-56c-0.1-4.9,2.2-8.9,2.7-13.5c1.9-15.9,1.2-32,1.4-47.9c0.5-42,0.6-84-0.2-125.9
	c-0.6-34-1.4-67.9-3.7-101.8C541.6,1582.9,541.7,1579.8,540,1576.2z"/>
<path class="st4" d="M2569.9,1517.1c7.3,3.4,14.9,4,22.6,2.4c4.4-0.9,8.8-1.7,13.4-1.4c6.9,0.4,12.3,4.9,12.9,11.7
	c1.6,17.3,1.1,34.6,0.7,51.9c-0.1,2.1-0.4,4.7-1.7,6.1c-5.5,6-4.5,13.2-4.4,20.2c0,3.7-1.1,4.6-4.6,5c-17.9,1.9-35.8,3-53.7,4.4
	c-35.4,2.7-70.8,2.5-106.3,2.4c-11.4,0-22.5-2.7-33.9-1.7c-22.9,2-45.7,3.9-68.6,6.1c-4.1,0.4-8,2.1-12,3.3
	c-2.5,0.8-4.6,1.2-4.9-2.4c-0.2-1.9-1.6-2.8-2.8-4c-1.8-1.9-2.7-4.2-2.3-6.8c1-7.4-4.2-17.8-10.7-21.4c-5.6-3.1-12.3-2.2-17,2.5
	c-3.8,3.7-6.1,8.3-7.5,13.4c-2.1,7.9-4.1,15.8-5.8,23.8c-0.5,2.2-1,3.6-3.6,3.8c-17.4,1.5-34.7,3.2-52.1,4.7
	c-23.3,2.1-46.7,4.1-70.1,6c-14.8,1.2-29.5,2-44.3,3.1c-15.7,1.1-31.5,2.5-47.2,3.5c-11.8,0.8-23.6,1.8-35.4,1.8
	c-12.4,0-24.5,2.5-36.8,3c-10.9,0.5-21.9,1.8-32.8,2.5c-24,1.3-47.9,0.9-71.9,0.8c-12-0.1-12.3-0.2-12.7-12.1
	c-0.9-26.3-1.7-52.6-2.6-78.9c-0.3-7.8-0.5-15.6-1.1-23.4c-0.3-3.7,0-5.2,4.5-5.9c18.2-2.7,36.5-4.5,54.7-6.3
	c33.3-3.3,66.7-2.3,100.1-2.6c25.8-0.2,51.6,0.1,77.3-2.2c19.2-1.7,38.3-4.3,57.5-5.9c16.7-1.5,33.5-2.6,50.3-3.2
	c60.3-2,120.5-3.6,180.8-2.8c40.3,0.5,80.6,0.7,120.9,0.5c3.3,0,6.9,0.2,9.8-1.9c3.7,0,7.3,0,11,0c7.7,1.6,15.3,1.6,23,0
	C2565.3,1517.1,2567.6,1517.1,2569.9,1517.1z"/>
<path class="st5" d="M2562.9,1517.1c-7.7,1.6-15.3,1.6-23,0C2547.6,1517.1,2555.3,1517.1,2562.9,1517.1z"/>
<path class="st4" d="M2277.2,1744.5c-0.1,16,1.1,40.8,1.9,65.6c0.2,5.2,0.5,10.3,0.9,15.5c0.2,2.4-0.9,3.2-3.1,3.5
	c-19.8,2.6-39.5,5.2-59.3,7.8c-22.4,3-44.8,5.9-67.2,8.8c-25.9,3.4-51.7,6.9-77.6,10.3c-25.5,3.3-51.1,6.9-76.7,9.8
	c-19,2.2-38,4.1-57.1,5.4c-17.3,1.1-34.6-0.1-51.9,0.6c-3.1,0.1-4.3-0.6-4.3-4.1c-1.2-47.4-2.5-94.9-3.8-142.3
	c-0.3-9.4-0.3-9.2,8.3-10.7c19.9-3.4,40-5.2,60-7.7c21.4-2.7,42.7-5.1,64.1-7.4c20.2-2.2,40.5-4.4,60.7-6.7
	c20.6-2.3,41.1-4.6,61.7-6.5c20.4-2,40.8-4.2,61.2-6.5c21.5-2.4,43-5.1,64.5-7.6c5.4-0.6,10.9-1,16.3-1.7c2.8-0.4,2.7,0.9,2.6,3.1
	C2277.7,1694.4,2276.6,1715,2277.2,1744.5z"/>
<path class="st4" d="M1914.5,2036.7c-8,0-16-0.1-24,0.1c-2.8,0.1-3.7-0.8-3.7-3.7c-1.2-37.8-2.6-75.5-2.8-113.3
	c0-2.6,0.9-3.6,3.2-3.9c21.6-3.2,43.2-6.6,64.8-9.8c25.1-3.7,50.2-7.3,75.3-11c26.2-3.9,52.4-7.8,78.5-12
	c33.9-5.5,67.9-9.9,101.5-16.9c23.2-4.8,46.5-7.2,70.2-6c3.6,0.2,4.2,1.4,4.4,4.7c2.5,39.2,4.3,78.4,7.9,117.6c0.4,4.2-0.4,6-5,6.7
	c-53.4,8.7-106.8,17.6-160.5,25.1c-30.4,4.3-60.7,9-91.2,13c-24.4,3.2-48.8,6.1-73.3,7.9C1944.7,2036.2,1929.6,2037,1914.5,2036.7z"
	/>
<path class="st4" d="M2612.8,1675.2c1.5,34.1,2.2,68.2,5.7,102.2c1.1,10.8,1.1,10.6-10.2,12.4c-32.5,5.1-65.3,8.1-98,12
	c-29.4,3.5-58.8,6.2-88.2,9.5c-22.8,2.5-45.5,5.3-68.3,8.2c-3.2,0.4-3.6-0.7-3.8-3.3c-1.7-34.4-4.3-68.8-7.4-103.1
	c-1.3-15.1-3.1-30.1-4.9-45.2c-0.3-2.9,0-4,3.3-4.3c10.4-1,20.7-2.4,31-3.6c13.6-1.6,27.3-3.1,40.9-4.5c9.4-1,18.8-1.8,28.2-2.9
	c13.6-1.5,27.3-3.1,40.9-4.6c10-1.1,20.1-2.1,30.1-3.1c10.4-1,20.8-1.9,31.1-3c15-1.7,29.9-3.6,44.9-5.2c2.4-0.3,4.4-0.8,6.4-2.2
	c4-2.8,8.5-4.4,13.1-6c3.9-1.4,5.2-0.8,5.1,3.7C2612.7,1646.6,2612.8,1660.9,2612.8,1675.2z"/>
<path class="st5" d="M2625.2,1880.6c0,13-0.2,26,0.1,39c0.1,3.7-1.3,4.7-4.6,5.4c-44.2,9.5-88.7,17.2-133.1,25.8
	c-39.3,7.6-78.6,15.1-117.9,22.8c-9.9,1.9-9.9,2-10.5-8.3c-2-33.1-4-66.1-6.2-99.2c-0.3-4,0.1-5.9,4.9-6.7
	c25.7-4.2,51.3-8.9,76.9-13.5c27.1-4.9,54.1-10,81.1-15c25.9-4.7,51.9-9.3,77.8-14c7.7-1.4,15.4-2.6,22.9-4.4
	c3.6-0.9,4.3,0.3,4.5,3.4c1.5,18.6,2.8,37.2,3.2,55.8c0.1,3,0.3,6,0.4,9C2624.8,1880.6,2625,1880.6,2625.2,1880.6z"/>
<path class="st6" d="M1535.9,2042.9c-0.1-1.1-1-1.2-1.8-1.3c-42.2-6.4-83.2-18.3-124.4-28.8c-28.5-7.3-56.6-16.1-84.8-24.5
	c-25.2-7.6-34.5-28.6-23.7-52.6c6.1-13.4,13.9-25.8,21.4-38.3c1.8-3,2.7-5.9,2.7-9.4c0.3-24.4-2.8-48.5-5.4-72.7
	c-4.9-45-10-90-14.9-135c-4.3-38.9-8.7-77.8-12.5-116.7c-2.6-26.7-4.9-53.4-5-80.2c0-8.7,0.7-17.3,2.7-25.8
	c3.1-13.3,13.8-24.5,30.7-25.9c33.7-2.8,67.5-2.9,101.3-4.6c21.3-1.1,42.6-1.9,63.9-2.8c8-0.3,15.9,1.4,24.1,0.5
	c8.8-1,16.3,4.1,22.4,10.5c2.6,2.7,5.3,4.9,8.4,7c11.3,7.5,17.4,18.2,18.6,31.6c3.8,41.8,8.5,83.5,11,125.4
	c2.4,40.1,5.6,80.1,9.4,120c3.4,35.3,7.2,70.6,10.4,105.9c4.2,46.9,10.5,93.7,10.7,140.9c0,12.2-1.4,24.3-5,36
	c-6.1,19.4-18,33.1-38.3,38.6c-2.9,0.8-6.5-0.9-8.6,2.4C1544.6,2042.9,1540.3,2042.9,1535.9,2042.9z"/>
<path class="st7" d="M813.6,1646.2c-8.2-16.4-10.2-33.3-10.9-50.2c-1.9-43.6-3-87.2-0.4-130.9c1.1-18.4,13-32.8,29.4-32.1
	c28.4,1.3,55.1-8.5,83-9.6c10.5-0.4,21-0.6,31.5-0.9c2.7-0.1,5.3-0.2,7.9-1.1c20-7.2,38-0.3,48.2,18.5c5.5,10.1,8,21.1,10.2,32.3
	c7.7,39.5,7,79.2,3.7,119c-2.3,28.8-6.3,57.2-15,84.9c-2.6,8.5-6.1,16.6-11.1,23.9c-6.9,10-16.2,16.6-28.2,19.1
	c-51.3,10.9-102.3,7.8-153-4.3c-4.8-1.1-9.5-3-14.1-5.1c-15.7-7.2-23.6-21.7-20.7-37.1c2.9-15,15.6-25.4,32.7-26.5
	C808.8,1646.1,810.9,1646.2,813.6,1646.2z"/>
<path class="st8" d="M1059.3,1192.8c-88,0.2-171.1,2.3-254.3,1.1c-15.8-0.2-31.7-0.6-47.4-2.2c-9.6-1-19.3-3.4-28.1-8
	c-3.7-2-3.9-3.3-1-6.4c28-30.4,55.9-60.8,83.9-91.3c5.3-5.8,10.6-11.6,15.8-17.4c1.7-1.9,3.4-2.7,6-2.9c19.6-1.1,39.2-1.7,58.7-2.8
	c12.1-0.7,24.3,0,36.4-1c20.8-1.7,41.6-0.6,62.3-1.8c22.5-1.4,44.9-0.1,67.3-1.4c24.3-1.4,48.6-0.6,72.8-1.9
	c13.8-0.7,27.6-0.1,41.4-1.1c22.1-1.5,44.3-0.7,66.3-1.9c17.8-0.9,35.6,0.1,53.3-1.3c19.3-1.6,38.6-0.2,57.8-1.6
	c18-1.3,36,0,53.8-1.5c18-1.6,36,0,53.9-1.5c12.2-1,24.3-0.2,36.4-1.1c15.7-1.1,31.5-1.7,47.2-2.7c22.1-1.5,44.2-0.9,66.3-1.2
	c31.7-0.5,63.3-0.7,95-0.9c14.7-0.1,35.7,16.5,38,29.9c0.3,1.8,0.4,3.6,0.4,5.5c0.1,16.2-0.1,32.3,0.5,48.5
	c0.4,10.8-3.4,19.5-10.8,26.9c-5.9,5.9-12.4,11.1-19.3,15.8c-4.4,3-9.6,3.7-14.7,4.4c-26.6,3.8-53.4,4.5-80.2,5.6
	c-41.3,1.7-82.6,2.9-123.9,4c-34.5,1-69,1.6-103.4,2.5c-48.6,1.3-97.3,2.5-145.9,4C1180.8,1191.1,1117.6,1191.8,1059.3,1192.8z"/>
<path class="st8" d="M1294.7,1955.8c-6.7,0-12.2-0.1-17.6,0c-9.3,0.2-14.9,6.2-14.1,15.4c0.3,3.1-0.9,4.6-3.1,6.1
	c-4.4,2.9-9.3,3.6-14.4,3.4c-11.3-0.4-22.7-0.4-33.3-5.1c-2.3-1-3,0.5-3.9,1.8c-3.6,5.4-5.2,11.5-4.9,18c0.1,2.7-0.5,3.5-3.3,3.1
	c-7.9-1.1-15.9-1.7-23.8-2.7c-27.9-3.5-55.9-0.6-83.8-1.8c-17.6-0.7-35.2-1.7-52.8-3c-17.7-1.3-35.4-3.3-53.1-4.8
	c-16.9-1.4-33.7-3.4-50.5-5.1c-14.5-1.5-29.1-2.8-43.6-4.4c-14.7-1.6-29.4-3.5-44.1-5.2c-13.2-1.5-26.4-3-39.6-4.5
	c-15.3-1.8-30.7-3.4-46-5.4c-17-2.2-33.9-4.5-50.7-8.1c-11.9-2.6-22.8-8.1-34.4-11.6c-3.1-0.9-5.6-3-5.3-6.9c0-0.3,0-0.9-0.1-1
	c-5.6-2.3-4.2-9.1-7.9-12.5c-1.4-1.2-1.1-2.6-1.1-4.1c-2.1-36.2,4.1-71.7,8.5-107.4c0.4-3.3,1.7-4,4.7-4c22.7,0,45.3-0.5,68-0.3
	c13.5,0.2,26.6,4.2,39.8,6.6c35.6,6.4,71.3,11.9,107.1,16.6c42.9,5.6,86,10.1,129,14.7c49.2,5.3,98.3,11.3,147.5,15.9
	c36.8,3.4,73.9,3.5,110.8,3.3c4.6,0,5.5,1.3,5.5,5.6c0,16.8,0.4,33.6,0.6,50.5C1284.8,1931.6,1286.6,1944,1294.7,1955.8z"/>
<path class="st8" d="M1262.2,1489.9c-17.7,0-35,0.3-52.3-0.1c-49.1-1-98.3-2.1-147.4-3.3c-13.7-0.3-27.3-1.1-40.9-1.5
	c-2.7-0.1-3.9-0.7-3.8-3.7c0.2-5.2-0.4-9.7,5.1-13.8c4.2-3,7.4-7.1,12.6-9.4c6.7-3.1,9.7-10,11.4-16.9c1.3-5.3,1.5-10.9,1.2-16.4
	c-0.6-9.7-7.1-15.5-16.8-15c-1.7,0.1-3.3,0.2-4.9-0.4c-4.7-1.6-9.3-1.2-13.2,2c-1.8,1.4-2.7,1.1-3.8-0.7
	c-9.8-15.7-24.6-23.3-42.4-25.9c-8.4-1.2-16.9-2.1-25.4-2.1c-27.1,0.1-54.3-1.2-81.4,0.7c-19.2,1.3-37.2,5.3-52.8,17.4
	c-1.2,1-2.4,1.4-4.1,1.1c-6.7-1.2-13.3-2.3-20.2-2.2c-3.6,0-6.1-3.1-8.8-5.1c-7.2-5.2-10.8-4.8-17.5,1c-5.7,4.9-7.8,11-8.2,18.1
	c-0.1,1.8-0.1,3.9,0.7,5.4c2.7,4.9,4.3,10.2,6.3,15.3c3.4,8.8,14.7,9.2,20.2,1.4c0.8-1.2,0.9-4.3,3.6-2.1c1.9,1.5,5,1.4,4.3,5.9
	c-1.6,10.7-7.6,19.5-11.1,29.3c-0.6,1.8-1.8,2.2-3.5,1.9c-24.7-3.3-49.7-5-73.9-11.9c-5.2-1.5-11.7-2.2-15-6.2
	c-3.2-3.9-0.9-10.3-1-15.5c-0.4-23.6,0.2-47.3-2.8-70.9c-0.6-4.4-1.8-8.8-2.9-13.1c-0.6-2.4-0.2-3.6,2.6-4.1
	c11.2-2,22.3-3.9,33.8-4.5c37.1-1.8,74.2-1.2,111.4-1.7c22.2-0.3,44.3-1.2,66.5-0.5c17.3,0.5,34.6-0.3,51.9,0.7
	c10.5,0.6,21-0.4,31.4,0.3c21.2,1.3,42.5,0.9,63.8,1.7c17.9,0.7,35.9,0.8,53.8,1.4c18.8,0.6,37.5,1.1,56.3,1.7
	c18.3,0.5,36.5,1.1,54.8,1.4c23.1,0.4,46.2,1.2,69.3,1.6c11,0.2,21.9,0.1,32.9,0.5c25.3,0.9,50.5,0.9,75.8,1.6
	c10.8,0.3,21.6-0.3,32.4,0.2c22.7,1.2,45.5,0.9,68.3,1.7c17.4,0.6,34.9,0.6,52.3,1.3c16.8,0.6,33.5,1.1,50.3,1.7
	c12.9,0.5,25.8,1.2,38.8,1.6c18.4,0.6,36.8,1.4,55.2,2.4c12.4,0.7,24.8,1.9,37.2,2.5c5.1,0.3,4.4,4,3.8,6.3
	c-6.2,22.1-3.8,44.7-4.6,67.1c-0.7,19.8-0.2,39.7,1.5,59.4c0.3,4.2-0.9,5.3-5.1,5.4c-29.3,0.1-58.7,0.4-88,0.9
	c-4,0.1-5.2-0.9-5.5-5.1c-1.4-21.3-3.6-42.5-9.2-63.2c-3.3-12.5-9.3-23.5-19.5-31.8c-19.3-15.8-46.8-14.6-64.6,3
	c-2.5,2.5-4.7,3.3-8.3,2.6c-22.3-4.3-45-5.2-67.5-6.9c-27.4-2-54.9-3.2-82.4-2.4c-9.7,0.3-19.3,0.7-28.9,1.9
	c-14.8,1.9-26.9,8.6-35.1,21.4c-2.3,3.6-3.8,3-6.2,0c-6-7.6-14.1-8.5-21.4-2.4c-1.8,1.5-3.2,1.6-5.3,1.2
	c-9.5-1.7-16.7,2.9-18.2,12.5c-1.8,11.5-2.1,23.2-0.7,34.9c0.6,4.9,2.8,8.9,6.9,11.6C1257.2,1483.4,1257.9,1488.2,1262.2,1489.9z"/>
<path class="st8" d="M1186.6,1040.7c-29.7-0.2-59.3,0.5-89-0.3c-18.3-0.5-36.6,0.6-55,0.4c-43.8-0.5-87.6-1-131.4-2.1
	c-16.1-0.4-32.3-0.5-48.4-2.3c-1.4-0.2-3.4,0.7-4-1c-0.5-1.6,1.3-2.5,2.3-3.6c27.6-31.1,55.3-62.3,83-93.4
	c4.1-4.6,8.2-9.2,12.2-13.9c1.9-2.2,3.9-3.3,6.8-3.2c6.8,0.1,13.6,0,20.4-0.9c14.6-1.9,28.4,2.9,42.3,5.8c20.1,4.2,40.4,6,60.9,7.1
	c86.9,4.6,173.9,2.5,260.8,2.5c33.5,0,66.9-1.1,100.4-3c13.1-0.7,25.4-3.8,35.3-13.1c1.4-1.3,2.6-1.3,4.5-1
	c36.4,5.3,72.6,11.2,108.3,20.3c11.4,2.9,22.8,6.2,33,12.4c7.2,4.4,11.6,10,10.9,19.1c-0.6,7.6-0.5,15.4,0.1,23
	c0.5,6.9-2.8,11.1-8,14.4c-8.3,5.3-17.6,7.9-27,10.1c-31.8,7.6-64.2,11.1-96.5,16c-51.6,7.8-103.7,6.5-155.6,7
	c-42.1,0.4-84.3,0.1-126.4-0.3C1213.2,1040.5,1199.9,1040.3,1186.6,1040.7z"/>
<path class="st8" d="M1283.3,1726.7c1.2,20.5-0.1,35.7-0.2,50.8c0,4.4,1.4,6.3,5.4,7.1c4.1,0.9,7.8,2.8,11.5,4.7
	c2.5,1.2,2.6,2.5-0.1,3.5c-3.9,1.5-7.7,3.5-11.7,4.3c-4.5,0.9-5.3,3.2-5.1,7.3c0.4,8.8,0.3,17.7,0.6,26.5c0.1,2.9-0.7,3.7-3.7,3.5
	c-27.3-2.5-54.8-3.8-82.1-7.1c-13.8-1.7-28-0.5-41.9-1c-23.4-0.9-46.9-1.8-70.3-3.4c-21-1.5-42-4-63-6c-17.2-1.6-34.4-3.1-51.6-4.8
	c-19.7-1.9-39.3-4.1-58.9-6.1c-21.3-2.2-42.6-4.3-63.9-6.8c-20.4-2.4-40.8-5-61.2-7.9c-23.2-3.3-46-8.2-68.6-14.5
	c-12.5-3.5-26.1-2.3-39.3-0.8c-3.9,0.4-5.3-0.2-5.1-4.5c1.9-38.3-0.1-76.6,0-114.9c0-3.6,1.1-4.4,4.5-4.4c25-0.1,50-0.4,75-0.7
	c3.2,0,4.4,0.9,4.4,4.2c0.2,11.8,0.6,23.7,3.1,35.3c5.9,26.7,29.2,42.7,56.2,38.4c18.8-2.9,37.7-4.6,56.6-6.1
	c19.7-1.5,38.7,2.9,58,5.2c13.6,1.6,27.2,3.3,40.7,0c1.5-0.4,3-0.5,4.3-1.3c5.3-3,9.7-3.9,11.9,3.6c0.5,1.8,2.6,3.1,4.5,3.8
	c8.7,3.3,17.6,5.9,27,5c7.8-0.7,13.2-6.8,13.4-15.6c0.3-9.8,0.8-19.6,1.1-29.4c0.4-10.9-5.5-16.6-16.4-16.8c-2.3,0-3.1-0.5-2.6-2.8
	c0-0.2,0.1-0.3,0.1-0.5c0.7-11.7,2.7-13,14.4-11.4c10.5,1.4,21.1,1.8,31.7,2.8c14.4,1.3,28.8,1.4,43.1,3.2c9,1.1,18.2,1.5,27.3,2
	c16.2,0.9,32.4,2.1,48.6,3.6c9.2,0.9,18.5,1.2,27.8,1.6c12.4,0.5,24.8,2,37.2,2.6c10.9,0.5,21.8,1.8,32.8,1.8c3.5,0,4.6,1,4.5,4.5
	C1283.2,1700.7,1283.3,1716.4,1283.3,1726.7z"/>
<path class="st9" d="M357.4,1566.9c-2,0.3-3.7-0.3-5.2-1.5c-10.3-7.6-21.7-12.9-33.6-17.5c-5.6-2.2-6.2-4.2-2.4-9
	c2.1-2.7,4.8-5.1,7.2-7.6c19.9-21.5,41.2-41.7,58.5-65.6c67.6-93.3,141-182,216.1-269.3c81-94.2,156.2-192.8,229.4-293.1
	c25.8-35.4,54.7-68.4,83.2-101.7c33.9-39.6,68.3-78.8,103.5-117.4c17.4-19.1,37.2-35.3,58.9-49.2c3.2-2.1,6.7-3.7,10.2-5.2
	c2.5-1.1,5.2-1.8,7.5,0.5c2.1,2.1,1.3,4.6,0.6,7.1c-1.5,5.2-4.2,9.8-7,14.4c-16.6,27.5-36.6,52.4-57.4,76.7
	C963.8,802,902.4,877.1,842,953c-17.7,22.2-33.2,45.8-49.6,68.9c-29.1,41.1-62,79.3-93.4,118.5c-64.5,80.5-132,158.5-195.7,239.7
	c-33.1,42.2-64.5,85.7-95.4,129.6c-7.2,10.2-15,20-23.4,29.2c-2.2,2.5-4.2,5.5-7,7.1c-7.4,4.3-10.5,11.8-15,18.3
	C361.1,1566.2,359.8,1567.4,357.4,1566.9z"/>
<path class="st8" d="M1272.2,1665.7c-51.7-2.6-103.4-5.2-155.1-7.9c-31.4-1.6-62.8-3.4-94.3-5.1c-3-0.2-4.9-0.4-4.7-4.4
	c2.2-46-0.2-91.9,0-137.9c0-3.6-1.5-8.1,0.6-10.7c2.3-2.8,6.5-0.1,9.9,0.1c17.9,0.8,35.8,1.4,53.7,2.5c19.4,1.2,38.7,2.5,58.1,3.6
	c20.4,1.2,40.7,2.6,61.1,3.4c16.1,0.6,32.1,2,48.2,2.7c10.1,0.4,20.2,1.5,30.3,1.6c6.4,0,6.7,0.4,6,7.7
	c-3.2,36.2-2.7,72.5-2.9,108.8c-0.1,10.2-0.1,20.3,0.3,30.5c0.2,4.5-0.9,6.5-5.6,5.6c-1.8-0.4-3.6-0.3-5.5-0.4
	C1272.2,1665.8,1272.2,1665.8,1272.2,1665.7z"/>
<path class="st8" d="M1663.5,1858.9c-21.6,0-43.3-0.1-64.9,0.1c-3.7,0-4.8-0.9-4.7-4.7c1.6-42.6-0.7-85.2-2.9-127.8
	c-0.3-5-0.2-10-0.7-15c-0.3-3.5,1.3-4,4.1-3.7c7.6,0.7,15.2,1.5,22.7,2.2c8.6,0.8,17.2,1.5,25.8,2.3c21,2,42,2.3,63,3.4
	c6.1,0.3,12.3,0.2,18.5-0.1c3.7-0.2,4.9,1.2,5.1,4.7c0.7,13.1,1.6,26.2,2.3,39.4c1,17.4,1.7,34.9,2.9,52.3c1,14.5-0.9,28.9-1,43.4
	c0,3.8-2.6,3.2-4.8,3.2c-21.8,0-43.6,0-65.4,0C1663.5,1858.6,1663.5,1858.7,1663.5,1858.9z"/>
<path class="st8" d="M1657.6,1682.8c-20.5,0-41,0.1-61.5,0c-8,0-7.3,1.8-7.9-7.4c-1.4-21.3-2.3-42.6-3.7-63.8
	c-1-16.3-2.2-32.6-3.6-48.8c-0.4-5.2,0.9-8.6,6.2-10.8c6.5-2.7,12.1-7.4,15.7-13.5c2.8-4.6,6.4-4.9,10.9-4.5
	c11.2,0.9,22.5,1.7,33.7,2.3c12.7,0.7,25.4,1.8,38.2,2.6c8.3,0.6,16.5,1.1,24.8,1.7c4.3,0.3,4.8,2.3,5,5.5
	c1.3,16.8,2.5,33.5,3.9,50.3c1.6,20.2,3.4,40.5,5.1,60.7c0.5,6.6,0.8,13.3,1.5,19.9c0.4,3.6-0.6,4.9-4.5,4.9
	c-21.3-0.2-42.6-0.1-64-0.1C1657.6,1682,1657.6,1682.4,1657.6,1682.8z"/>
<path class="st8" d="M1670.6,2034.5c3.2-4,6.5-7.3,8.2-12.2c-8.6,0.5-16.9,0.7-25.1-0.2c-5.2-0.5-10.2-2-14.5-4.9
	c-6-4.1-12.1-8.3-17.7-13c-7.9-6.6-9-15.9-3.8-28.4c-10.1,0.5-19.5-1.8-28.9-3.9c-10.1-2.3-10.1-2.3-7.3-12
	c5.6-19.1,7.4-38.9,9.7-58.5c0-0.2,0-0.3,0-0.5c0.7-9,0.7-8.9,9.5-8.1c16.8,1.6,33.7,2.7,50.5,4.6c13.1,1.5,26.3,2.7,39.3,5.2
	c7.1,1.3,14.6,0.3,21.9,0.3c5.2,0,10.3,0,15.5-0.1c2.4-0.1,3.1,0.7,2.9,3.2c-1.9,31-3.9,62.1-5.5,93.2c-0.5,10.5,0,21,0.1,31.5
	c0,2,0.3,4.1-2.8,4.1C1705.5,2034.5,1688.4,2034.5,1670.6,2034.5z"/>
<path class="st8" d="M721.9,1493.3c13.2,0,26.3,0.1,39.5-0.1c3.5,0,4.3,0.9,3.5,4.3c-6.2,29.3-7.4,59.1-7.6,88.9
	c-0.1,14.2-0.3,28.3-0.3,42.5c0,3.5-1.1,4.2-4.4,3.8c-23.2-2.6-46.3-5.4-69.1-10.3c-8.7-1.9-9-1.8-8.7-10.4
	c0.9-29.3,1.9-58.6,2.9-87.9c0.3-8.7,0.3-17.3,0.3-26c0-3.3,1.2-4.2,4.4-4.2c13.2,0.2,26.3,0.1,39.5,0.1
	C721.9,1493.8,721.9,1493.5,721.9,1493.3z"/>
<path class="st10" d="M1540.8,1579c0.1,28.4-0.3,49.9,1.2,71.3c1.3,19.1,3,38.2,3.1,57.3c0.1,11.7,0.2,23.3-0.8,34.9
	c-1.1,11.6-0.1,23.3,0.2,34.9c0.5,17.6,0.4,35.3,0.6,53c0.3,25.3-2.8,50.6,0.4,75.8c1.1,8.8,1.7,17.6,2.7,26.3
	c0.5,4.2,0.6,8.3,0,12.4c-0.6,3.8-0.4,7.3,1.2,11.1c3.9,9.2-0.9,21.5-9.5,26.7c-1.4,0.8-2.7,1-4.3,0.6c-24.3-5.9-49.1-6.1-73.8-7.6
	c-24.9-1.5-49.9-2.1-74.7-4.7c-5.9-0.6-12-1.3-17.9-1.1c-5.6,0.1-10.2-3.4-15.7-3.3c-1.6,0-1.4-1.6-1.4-2.7
	c-0.7-13.6-1.5-27.3-1.9-40.9c-1-39.2-1.9-78.4-2.8-117.6c-0.1-3.7-0.2-7.3-0.2-11c0.2-65-1.5-129.9-2.6-194.8
	c-0.6-39.8-3.3-79.5-7.9-119c-0.3-2.8,5.1-8.5,8.6-8.4c15.8,0.3,31.6,1,47.4,1.2c10.4,0.1,20.8,1.2,31.2,1.6
	c15.6,0.7,31.3,0.9,46.9,2.1c12.1,0.9,24.2,1.4,36.4,1.9c2.2,0.1,4.4,0,6.5,0.4c4.2,0.9,8,2.1,12.6-0.3c4.4-2.2,6.8,0.1,7.6,5.3
	C1539.3,1518.1,1542.8,1551.8,1540.8,1579z M1412.6,1952c-6-6.3-8.8-13.6-11.4-21c-4.4-12.6-5.1-25.7-5.5-38.9
	c-1.1-43.8-1.1-87.6-1.6-131.4c-0.6-50.8-0.9-101.6-6-152.2c-3.5-34.8-5.9-69.7-8.8-104.6c-0.1-1.6,0.6-4.4-2.5-3.4
	c-2.4,0.8-7.2-0.7-6.5,3.9c3,20.3,3.5,40.8,4.3,61.2c1.6,43.3,3.1,86.5,3.3,129.9c0.3,55.8,1.9,111.6,0.2,167.4
	c-0.5,16.9-1.1,33.7,3.6,50.5c3.3,12,2.2,24.8,2.2,37.3c0,2.2-0.4,4.1,3,4.4C1395.5,1955.8,1403.6,1953.3,1412.6,1952z M1483,1536.1
	c-2.5,1.1-2,3.1-1.8,4.8c2.5,38.4,3.5,76.9,4.4,115.3c1.9,80.4,2.9,160.9,7.6,241.2c1,16.3,2.1,32.6,3.2,48.9
	c0.1,1.4-0.4,3.2,2.3,2.1c8.9-3.7,15.1-13.8,14-23.3c-0.3-2.3-0.7-4.6-0.9-6.9c-5-42.5-8-85.2-11.4-127.9
	c-5.7-71.6-12-143.1-15.8-214.8C1483.9,1562.4,1483.6,1549.3,1483,1536.1z M1425.8,1951.8c4.8,1.2,9.4,0.9,13.8,1.3
	c3.5,0.3,4.6-0.6,4.1-4.3c-1-7.3-1.5-14.6-2-21.9c-5.2-74.5-6.6-149.1-8-223.7c-0.9-50.3-2-100.6,1.5-150.8c0.2-2.6-0.1-5.4-0.6-8
	c-2.1-11-2.7-22.1-2.7-33.3c0-3.7,2.7-8.7-0.2-10.6c-2.8-1.8-7.7-0.5-11.7-0.6c-2.3-0.1-3.2,0.3-2.7,3.1c1.1,5.2,1.7,10.5,2.5,15.8
	c5.2,36.3,6.7,72.9,7.9,109.5c2.7,79.9,3.1,159.9,4.2,239.8c0.3,20.5,2.6,40.9-0.1,61.4C1430.9,1936.9,1431,1944.8,1425.8,1951.8z"
	/>
<path class="st10" d="M921.1,1620.9c0,12.6,0,25.3,0,37.9c0.1,11.2-8.9,22.6-22.1,21.9c-5.6-0.3-11.3,0.1-17,0.1
	c-6.6,0-7.1-0.6-7-7.2c0.3-19.6,1.2-39.3,2.2-58.9c0.5-10.9,0.7-22-0.7-32.9c-0.9-6.9-3.8-9.5-10.7-10.2c-9.8-1.1-19.5-2.3-29.3-3.4
	c-1.5-0.2-3.2-0.1-3.3-2.2c-0.5-10.7-4.2-20.9-4.1-31.6c0.2-10.8,8.3-15.8,18.3-11.8c6.4,2.6,13.4,1.9,20.2,2.7
	c3.2,0.4,2.1-2.4,2-3.9c-0.4-14-0.8-28-0.3-41.9c0.2-6.2,1.1-12.3,1.9-18.4c0.4-3.2,1.8-3.8,5-3.6c10.3,0.7,20.2,4.2,30.6,3.7
	c3.2-0.2,2.8,2.3,3.1,4.1c1.6,11.4,3.2,22.8,4.6,34.2c1,8.1,1.8,16.2,2.4,24.3c0.2,3,1.4,3.9,4.3,4c13.3,0.5,26.6,0.9,39.9,0.3
	c2.1-0.1,4.3-0.5,3.3,2.9c-0.7,2.3,0.6,2.8,2.6,3c4.9,0.4,6.9,3.4,6.9,8.1c0,10.5,0.1,21,0,31.5c0,3.8-4.9,8.6-10.4,8.1
	c-9.7-0.8-19.6,1.5-29.1-2.3c-0.3-0.1-0.6-0.2-1-0.2c-12-2.7-12.1-2.6-12,9.4c0.1,10.8,0,21.6,0,32.5
	C921.4,1620.9,921.2,1620.9,921.1,1620.9z"/>
<path class="st11" d="M2040,1645.9c-1.2-1.8-3.3-1.3-5-1.8c-4.3-1.3-8.8-2.8-12-5.9c-10.2-10.1-21.9-18.3-30.5-30.4
	c-19.4-27.5-38.3-55.4-58.4-82.3c-44.4-59.1-89.2-117.9-137.2-174.3c-26.2-30.8-51.6-62.4-77.8-93.2c-24.6-28.9-49.8-57.4-74.7-86
	c-48.3-55.5-97.1-110.7-144.4-167.1c-42.2-50.3-84.8-100.2-127.5-150c-38.9-45.4-77.9-90.8-117.3-135.7
	c-21-23.9-42.4-47.5-65.2-69.7c-21.2-20.7-39.5-43.7-58.7-66c-7.1-8.3-15.2-15.4-25-20.4c-4.4-2.3-7.2-6.4-10.7-9.6
	c-2.6-2.3-4.3-2.2-7.1-0.1c-21.9,16.7-39.9,37-57.1,58.4c-33.8,41.9-69.9,81.8-105.9,121.7C872.1,792.2,818,850.2,769,912.6
	c-31.9,40.6-62.5,82.2-92.7,124.1c-38,52.7-75.9,105.4-115.3,157.1c-42.1,55.3-83.1,111.3-124.8,166.8c-21,27.9-42.4,55.6-65.8,81.7
	c-3.9,4.4-6,10.4-9.6,15.1c-15,19.4-30.2,38.5-45.4,57.7c-8.3,10.4-16.7,20.8-25.1,31.1c-1.2,1.4-2.2,3.3-3.7,4
	c-8.9,4.1-12.8,12.7-18.3,19.9c-7.3,9.6-5,8.8-15,3c-21.3-12.3-42.7-24.7-64-37c-3.1-1.8-5.6-4-7.5-7.1c-3.5-5.5-7.2-10.8-10.9-16.1
	c-1.1-1.6-1.7-2.9-0.2-4.8c11.4-15,22.1-30.5,34.1-45c14.4-17.4,29.9-34.1,45-50.9c30.1-33.4,59.1-67.8,87.3-102.9
	c42.9-53.4,85.9-106.6,128.4-160.3c29.1-36.7,61.4-70.6,92.1-105.9c33.4-38.3,66.6-76.7,99.2-115.7
	c61.2-73.5,120.5-148.5,177.7-225.1c27.8-37.2,54.9-75,82.3-112.5c3.1-4.2,6.4-8.1,10.1-11.7c30.5-30.5,60-62.1,89.3-93.7
	c5.2-5.6,12.4-8.9,20.5-9.1c19.6-0.4,39.2-2.3,58.6-4.8c5.5-0.7,11,0.5,16.4,0.7c15.3,0.5,30.7-0.3,46,1c8.6,0.7,17.3,2.1,25.9,1.6
	c7.3-0.5,14.4-0.3,21.7,0.5c24.5,2.7,48.9,5.2,73.4,7.8c20.5,2.1,41.1,4,61.5,6.4c21.5,2.5,42.9,5.5,64.3,8.4
	c25.5,3.5,51.1,7,76.6,10.6c25,3.5,50.1,7,75.1,10.3c24.9,3.3,49.8,6.5,74.7,9.6c25.4,3.2,50.8,6.6,76.2,9.6c22,2.6,44,4.9,65.9,7.4
	c28.1,3.2,56.3,4.9,84.5,6.7c11.6,0.7,23.3,1,34.9,1.2c18.5,0.4,37-0.1,55.4,1.3c15.2,1.2,30.2,4.7,45.3,7.1
	c15.1,2.4,30.1,5.8,45.4,6.5c1.6,0.1,2.9,0.5,4.2,1.4c12.1,8,25.2,14.3,35.9,24.4c1,0.9,2.1,1.7,2.7,2.9
	c10.4,18.2,24.3,33.8,37.8,49.6c31.3,36.8,61,74.9,91,112.8c36.4,46,73.2,91.6,110,137.3c7.4,9.2,16.9,16.5,25.6,24.6
	c16.3,15.3,32.2,31,47.6,47.1c20.5,21.5,40.7,43.1,60.9,64.8c38.9,41.7,74.7,86,110.9,130c34.9,42.5,70.2,84.6,104.6,127.5
	c28,35,60.8,65.3,91.6,97.6c28.1,29.4,57.2,57.7,84.4,88c7.6,8.5,14.6,17.3,19.6,27.6c1,2.1,2,4.2,2.7,6.4c3,9.4,1.9,11.5-7.4,14.7
	c-11.5,4-21.4,10.8-31.6,17.1c-4.4,2.7-9.1,4-14.1,4.2c-10,0.3-20,0.3-29.9,0.8c-14,0.7-27.9,1.6-41.9,2.5
	c-18.1,1.2-36.2,2.4-54.3,3.6c-40.7,2.6-81.4,5.3-122.1,7.9c-23.9,1.5-47.9,2.9-71.8,4.5c-37.4,2.5-74.7,5-112.1,7.6
	c-26.7,1.8-53.5,3.5-80.2,5.4c-30.6,2.1-61.1,4.4-91.6,6.6c-19.3,1.4-38.5,2.5-57.8,4.2c-7.5,0.6-13.3,5-17.1,11.3
	c-3.1,5.1-6.7,9.8-12.2,12.1c-14,5.9-26.9,14-40.3,21c-10.4,5.4-21,10.6-32.4,13.7C2047.3,1645.9,2043.6,1645.9,2040,1645.9z"/>
<g>
	<path class="st12" d="M2170,1586.9c-6.1-9.4-13.9-17.4-20.7-26.2c-32.6-42.3-69.7-80.6-105.9-119.8
		c-88.7-95.9-177.7-191.5-266.2-287.7c-75.6-82.2-147.4-167.6-218.1-254.1c-40.4-49.4-80.5-99.1-119.7-149.4
		c-9.9-12.7-22.6-22.6-34.2-33.6c-41.2-39.1-82.2-78.5-122.9-118.1c-38.5-37.4-76.7-75.1-112.3-115.3c-3.2-3.7-7.9-5.9-11.1-10.3
		c5-1.1,9.4,0.1,13.7,0.7c10.8,1.3,21.6-0.6,32.5,0.7c27.7,3.5,55.6,6.2,83.4,8.9c30.1,3,60.3,6.2,90.3,10.3
		c30.2,4.1,60.3,8.4,90.5,12.5c33.1,4.6,66.3,9.1,99.4,13.5c29.9,4,59.7,7.8,89.6,11.6c31.5,3.9,63.1,7.7,94.7,11.5
		c28.8,3.4,57.6,5.8,86.5,7.7c17.9,1.2,35.9,1.7,53.9,2.2c18,0.5,36.1-0.1,54,1.3c15.4,1.2,30.6,4.7,45.8,7.2
		c15.1,2.4,30.1,5.8,45.4,6.5c1.4,0.1,2.6,0.4,3.7,1.2c12,8,25.2,14.4,35.9,24.4c1.1,1,2.4,2,3.1,3.2c10.2,17.9,23.9,33.3,37.2,48.8
		c35.8,41.8,69.1,85.5,103.5,128.4c32.2,40.2,63.7,80.9,96.5,120.6c8.5,10.3,19.2,18.5,28.7,27.8c10.7,10.5,21.5,21,32.2,31.4
		c0.6,0.5,1,1.2,1.9,2.4c-3.9,0-7.1,0-10.4,0c-28-0.2-56-1.4-83.9-0.4c-4,0.1-6-1.8-8.1-4.5c-22.7-29.4-45.2-59-69.3-87.3
		c-7.6-9-16.1-17.2-21.9-27.7c-2.2-4-6.7-6.9-10.3-10.1c-13-11.6-24.4-24.4-34.4-38.7c-8.3-11.8-18.5-22.3-27.9-33.3
		c-26.6-31-51.7-63.2-77.2-95c-6.9-8.5-15.2-15.4-23.4-22.5c-2.2-1.9-4.5-3.9-6.7-5.8c1.5-1.9,3.5-0.1,5-1.9
		c-6.4-7.5-12.7-15.2-19.3-22.6c-2.2-2.5-15.9-3.6-18.8-1.5c-6.5,4.9-14.3,5.2-21.8,6c-14.6,1.6-29,3.8-43.4,6.8
		c-1.2,0.2-3.2-0.2-3.1,1.6c0.1,1.5,1.9,1.7,3.2,1.8c10.1,1.2,20.2,2.4,30.2,3.5c11.1,1.2,22.2,2.4,33.3,3.3
		c2.7,0.2,4.2,1.9,5.7,3.6c16.6,18.3,32.7,37,49.7,54.8c18.2,19,34,39.7,47.9,62c7.7,12.4,18,22.7,27.3,34.1c-1.6,1.3-3.4,0.6-5,0.5
		c-26.9-1.4-53.9-2.9-80.8-4.3c-2.3-0.1-4.7-0.2-7,0.2c-5.4,1-6.7,4.8-3.3,9.1c2,2.6,5,3.8,7.9,5c15.3,6.4,31.6,9.1,47.7,12.7
		c24.4,5.5,49.1,8.7,74.1,10.3c3.4,0.2,5.4,2.1,7.5,4.3c39.9,42,79.9,84.1,119.9,126.1c2.6,2.8,5.8,5,8.2,7.2
		c-1.1,2.8-2.4,2.2-3.4,2.2c-62.3,0.5-124.6,1.2-187,0.9c-3.2,0-5.6-0.9-8-3.1c-54.5-49.3-109-98.6-164.3-146.9
		c-1.5-1.3-3.3-2.3-4.2-4.4c5.8-3.8,12-6.9,17.5-12.9c-7.6-0.7-14.2,0.5-20.4,2.2c-6.5,1.8-10.7-0.2-15.5-4.4
		c-71.5-62.3-140.9-126.8-212.1-189.5c-0.9-0.8-1.8-1.5-3.7-3c9.7-2.3,18.4-3.6,26.7-7.1c-7.7-2.4-15.7-3.4-23.4-3.3
		c-11.7,0.2-20.3-4.3-28.4-12.4c-13.1-13.1-27-25.3-40.7-37.7c-2.6-2.3-5.6-4.2-8.4-6.2c-0.6-0.4-1.5-1-2.2-0.1
		c-0.3,0.5-0.3,1.3-0.2,1.9c0.8,2.8,2.1,5.2,3.7,7.6c9.6,13.9,20.8,26.4,32,39c1.1,1.2,2.5,2.1,3.1,4.7c-7.1-0.4-13.9-0.6-20.8-1.1
		c-39.9-2.6-79.7-5.9-119.7-7.3c-16.8-0.6-33.7-0.6-50.5-0.6c-3.6,0-6.2-0.9-8.9-3.4c-20.3-18.7-40.8-37.3-61.3-55.9
		c-2.4-2.2-4.7-4.8-8.1-5.6c-3.6-0.9-5.1,0.6-4.6,4.1c0.4,2.7,1.9,4.9,3.4,7.2c12.3,18.4,27.2,34.5,42.5,50.4
		c1.3,1.3,2.5,2.7,4.2,4.5c-3.2,0.8-5.9,1.3-8.5,2.1c-2.4,0.8-5.2,1.9-5.2,4.7c0.1,2.9,2.9,3.7,5.4,4.2c6.5,1.3,13.1,2.6,19.6,3.6
		c3,0.5,5.2,1.9,7.3,3.9c55.3,53.8,112.1,106,168,159.2c16.8,16,34.1,31.3,51.2,46.9c1.6,1.4,3.1,2.8,5.8,5.3
		c-5.2-0.3-8.9-0.5-12.6-0.6c-7.8-0.2-15.7-0.4-23.5-0.2c-4.8,0.1-9,2-10.3,7.1c-1.3,4.9,1.4,8.5,5.3,10.8
		c10.5,6.4,22.3,8.5,34.3,9.5c11.8,1.1,23.5,2.5,35.4,1.3c2.3-0.2,3.7,1.1,5.2,2.4c37.6,33.7,75.6,66.9,114,99.7
		c5,4.3,10.1,8.6,15.3,12.6c0.8-0.1,1.1,0.3,1,1c0,0,0.1,0.1,0.1,0.1l-0.1-0.1c-0.7,0-1.1-0.3-1-1c-31.2-34.1-62.7-68-95.1-101.1
		c-4-4-7.9-8.1-11.9-12.2c-2-2-1.5-2.9,1.2-3.4c7.6-1.3,15.1-1.8,22.8-0.1c38.1,8.4,75.8,4.6,113.1-5.3c11.8-3.1,23.5-6.2,34.7-11
		c3.1-1.3,5.1-0.7,7.5,1.4c50.3,42.9,102.5,83.6,155.6,123c8.6,6.4,17.5,12.5,25.9,19.8c-9.4,0-18.9-0.1-28.3,0
		c-41.8,0.4-83.6,0.5-125.5,1.4c-27,0.6-53.9,2.7-80.9,3.2c-14.3,0.3-28.6-1.4-42.9-2c-27-1.2-54,0.9-81,0.3
		c-10.8-0.3-21.7-0.2-32.5-0.1c-4.7,0.1-10.2-0.5-12,5.7c-1.2,4,1.8,7.5,8.8,10.5c15.9,6.8,32.8,9.8,49.7,12.7
		c36.1,6.4,72.5,7.1,109.1,6.4c40.8-0.8,81.6-2.8,122.3-5.2c47.9-2.9,95.9-1.3,143.9-1.5c54.2-0.2,108.3-0.4,162.5-0.7
		c11.7-0.1,23.3-0.5,35-0.8c2,0,4-0.3,5.6,1.3c0.9,0.9,1.7,1.4,2.1-0.7c0.3-1.8,2.5-1.2,3.9-1.2c28.6-1.1,57.2-2.9,85.8-5.5
		c7-0.7,10.8,1.8,15.3,6.4c71.3,73.8,135.2,153.9,200.3,233.1c26,31.7,51.4,63.9,78.4,94.7c20.1,22.9,42.4,43.8,63.5,65.8
		c30.5,31.6,62,62.5,91.5,95.1c7.7,8.6,14.7,17.6,20,28c1.4,2.7,1,3.8-1.7,5.3c-19.6,11-39,22.4-57.4,35.3c-4.2,2.9-9.4,2.3-14,2.3
		c-15.5-0.1-30.9,1.6-46.4,2.5c-23.3,1.2-46.5,3-69.8,4.5c-28.6,1.8-57.2,3.6-85.8,5.5c-3.7,0.3-6.1-0.7-8.5-3.6
		c-55.4-67.7-113.1-133.5-171.1-198.9c-26.3-29.7-53.1-58.9-79.6-88.4c-4.1-4.5-4.1-4.5,1.7-6c2.3-0.6,4.5-1.2,6.7-1.9
		c0.4-0.1,0.8-0.5,1.7-1.2c-6-2.3-12-2.2-17.8-3c-2-0.3-3.8-0.7-5.3-2.3c-23.6-24.7-47.2-49.4-70.8-74.1c-0.3-0.3-0.5-0.8-0.9-1.6
		c2.3-0.9,4.4-0.2,6.4-0.2c29.3,0.3,58.6-1.2,87.9-2.6c22-1.1,43.9-2,65.4-7.2c4.9-1.2,7.8-0.2,11,3.6
		c39.1,46.9,81.7,90.5,123.7,134.8c46.5,49,93.9,96.9,141.7,144.6c5.9,5.9,12,11.7,17.9,17.6c0.3-0.3,0.7-0.6,1-0.9
		c-9.2-12-18.2-24-27.5-35.9c-56.6-72.9-115.7-143.8-177-212.9c-11.5-12.9-22.9-26.2-35.8-37.7c-24.4-21.8-46.3-46-68.7-69.7
		c-7-7.4-15.3-13.1-23-19.6c-2.8-2.4-6.2-3.9-9.6-5.3c-2.7-1-5-0.4-6.8,1.7c-1.8,2.1-1.2,4.3,0.2,6.4c1.4,2,2.7,4,4.5,6.6
		c-5.1,0.8-9.5-0.3-13.8-0.7c-36.4-3.2-72.8-3.8-109.3-4c-22.3-0.1-44.6-0.4-66.9-0.5c-3.3,0-5.6-1-7.9-3.3
		c-13.9-13.5-27.5-27.2-40.4-41.6c-1.6-1.8-3.6-5.7-5.9-4.1c-2.9,2-1.1,5.8,0.4,8.6c6,11,13.6,20.9,21.4,30.7
		c0.5,0.7,1.2,1.2,1.6,1.9c1.6,2.6,6.1,4.8,4.8,7.4c-1.1,2.3-5.8,0.8-8.8,1.2c-2,0.3-3.9,0.5-7.2,0.8c5,2.7,9.5,3.3,13.6,3.6
		c7.6,0.6,12.6,4.3,17.5,9.9c32.4,37.4,66.6,73.2,99.6,110c8.4,9.4,17,18.8,25.5,28.1c0.9,1,1.6,2,2.8,3.5c-5.3,0.9-10,0.4-14.7,0.3
		c-27.8-0.8-55.6-1.5-83.4-2.8c-33.7-1.5-67.3-0.9-100.9,0.4c-4.1,0.2-6.4-1.6-8.8-4.3c-46.7-52.4-93.9-104.2-142.7-154.6
		c-25.9-26.7-52-53.1-79.7-77.9c-2.4-2.1-4.8-4.1-7.9-5.2c-0.8-0.3-1.8-0.5-2.2,0.3c-0.2,0.4-0.1,1.3,0.2,1.9
		c1.4,2.3,2.7,4.6,4.3,6.7c20.7,27,43.5,52.2,65.9,77.8c43.8,50.2,87.3,100.7,130.4,151.6c0.9,1.1,2.8,2.1,2,3.6
		c-0.8,1.5-2.7,0.7-4.1,0.7c-16.5,0.1-33,0.4-49.4,1.6c-2.5,0.2-6.6-0.5-7,2.2c-0.4,3.2,3.7,4.3,6.4,5.1c10.4,3.2,21.2,4.6,31.8,6.2
		c12.5,1.9,25.1,3.4,37.6,5c2,0.3,3.9,0.6,5.3,2.3c8,9.5,16.1,19,24.1,28.4c-0.1,1.4-1.2,1.2-1.9,1.5c-2.9,1.3-5.2,3.3-5,6.7
		c0.1,3.7,2.6,5.6,5.8,6.8c4.5,1.7,9.3,2.5,14.1,3.1c2.5,0.3,4.3,1.4,5.9,3.3c11.4,12.9,22.7,25.7,34.2,38.5
		c2.5,2.8,3.4,4.4-1.3,5.1c-1.5,0.2-2.9,0.7-4.3,1.3c-3.4,1.3-6,3.6-5.7,7.3c0.3,3.6,3.3,5.2,6.6,5.8c6.1,1.2,12.2,2,18.4,1.8
		c3.9-0.1,6.4,1.3,9,4.2c43.7,49.2,87.6,98.3,132,146.8c3.5,3.8,6.9,5.8,12,4.7c2.7-0.6,5.5-0.5,9.5-0.8
		c-41.8-51.6-83-102.5-126.5-153.9c6.2,0,10.9-0.1,15.6,0c25.6,0.3,50.8-3.9,76-7.1c21.8-2.7,43.6-5.3,65.3-9
		c10.6-1.8,21.3-3.9,31.9-6c2.4-0.5,4-0.2,5.7,1.7c60.8,65.2,123,129,185.6,192.5c0.6,0.6,1,1.2,1.9,2.3c-3.1,1.3-6.1,1-9,1.2
		c-50,3.3-100.1,6.3-150.1,9.7c-63.5,4.3-126.9,8.9-190.4,13.4c-14.5,1-28.9,1.9-43.4,3c-1.5,0.1-3.5-0.7-4.4,1.4
		C2176,1586.9,2173,1586.9,2170,1586.9z M2308,990c0.1,0.4,0,1.2,0.7,0.3C2308.5,990.2,2308.2,990.1,2308,990
		c-0.1-0.2-0.1-0.4-0.2-0.7c-0.2,0.1-0.3,0.2-0.5,0.3C2307.6,989.7,2307.8,989.8,2308,990z"/>
	<path class="st12" d="M1868.5,795.5c-12.5,3.1-24.5,4.4-36.6,5.7c-25.6,2.8-51.2,1.6-76.8,2.8c-22.8,1.1-45.6,0.5-68.4,0.9
		c-2.8,0-4.3-1.3-5.9-2.9c-17.5-17.4-34.9-34.8-52.5-52.1c-52.3-51.1-106-100.8-159.2-150.9c-1.2-1.1-2.8-1.8-3.3-3.8
		c11.8,1.6,23.4,3.6,35.1,4.8c32.5,3.2,65.1,3.3,97.8,1.1c15.8-1.1,31.6-1.9,47.3-4c2.9-0.4,5.3-0.1,7.6,2.3
		c49.3,49.9,101.9,96.4,154.2,143.1c19.1,17.1,38.5,33.9,57.8,50.8C1866.5,794.1,1867.5,794.7,1868.5,795.5z"/>
	<path class="st13" d="M2175.9,1107c10.7,1.2,20.6,2.4,30.6,3.5c48.2,5.4,96.5,8.5,145.1,5.7c0.2,0,0.3,0,0.5,0
		c13.2-4.2,22,1.4,29,12.3c2.4,3.8,5.8,6.9,8.7,10.3c0.6,0.7,1.6,1.4,1.2,2.5c-0.5,1.2-1.7,0.7-2.6,0.8
		c-43.9,3.1-86.4,13.4-128.4,25.7c-4.9,1.4-9.8,3.3-14.6,5.1c-2,0.7-3.3,0.5-4.9-1.1c-21-20.9-42.1-41.8-63.1-62.7
		C2176.8,1108.8,2176.6,1108.2,2175.9,1107z"/>
	<path class="st13" d="M2144.5,1324.6c5.1-0.8,9.2,0.3,13.3,0.3c22.1,0.2,44.3,1.3,66.4,0c37-2.3,74.1-4.3,110.9-9.6
		c5-0.7,8.3,0.5,11.7,4.2c10.2,11.1,20.8,21.9,31.5,33.1c-1.9,1.6-3.7,0.8-5.4,0.8c-47.8-1.8-95.6-1.1-143.3,0.9
		c-16.5,0.7-33,3.8-49.4,6.1c-3.3,0.5-5.5,0-7.7-2.7C2163.4,1346.7,2154.2,1336,2144.5,1324.6z"/>
	<path class="st13" d="M2332.4,1305.7c-17.4-1.1-34.6-2.1-51.9-3.3c-48-3.2-96.1-5.3-144.2-2.7c-8.9,0.5-15.1-1.1-20.2-8.7
		c-3.7-5.5-8.5-10.1-13.6-16c3.7,0.3,6.3,0.6,9,0.8c30.8,2.5,61.5,2.1,92.3,0.2c30.2-1.9,60.5-3.4,90.5-8c3.2-0.5,5.2,0.3,7.3,2.7
		c9.8,10.9,19.8,21.6,29.7,32.4C2331.7,1303.8,2332.5,1304.2,2332.4,1305.7z"/>
</g>
<path class="st14" d="M1817,945c0,0.7,0.3,1.1,1,1l0,0C1818.1,945.3,1817.8,944.9,1817,945C1817,945,1817,945,1817,945z"/>
<polygon class="st14" points="1818,946 1818.2,946.1 1818,946 "/>
<path class="st14" d="M2308,990c-0.2-0.1-0.4-0.3-0.7-0.4c0.2-0.1,0.3-0.2,0.5-0.3C2307.9,989.5,2307.9,989.8,2308,990L2308,990z"/>
<path class="st14" d="M2307.9,990.1c0.3,0.1,0.5,0.2,0.8,0.2C2308,991.2,2308.1,990.3,2307.9,990.1
	C2308,990,2307.9,990.1,2307.9,990.1z"/>
<path class="st15" d="M2073.9,538.8c-4.9-2.9-10.5-2.2-15.8-2.8c-13-1.6-26.2-2.3-39.2-3.6c-21.5-2-43-4.2-64.5-6.3
	c-22.7-2.2-45.3-4.5-68-6.6c-22.5-2.2-45-4.3-67.5-6.3c-20.4-1.9-40.7-3.6-61.1-5.5c-18.2-1.7-36.4-3.6-54.6-5.4
	c-17.9-1.7-35.8-3-53.6-5.3c-25.7-3.3-51.6-3.9-77.2-7.9c-17.2-2.7-34.5-5.9-51.9-7.3c-16.4-1.4-32.9-2.6-49.3-3.7
	c-25.4-1.7-50.8-3.7-76-6.6c-18.5-2.2-37.1-3.8-55.5-6.4c-17-2.4-33.7-6.8-50.7-8.1c-26.3-2-52.4-8-79-5.8c-4.8,0.4-5.8-3.9-6.3-7
	c-1.3-7.7-4.7-14.9-5.2-22.8c-0.6-10.3-2.5-20.5-2.5-30.8c0.1-14.4,7.2-22.6,20.7-27.6c13-4.8,25-2.9,37.3,1.4
	c37.5,13,76.2,21.4,115.2,28.7c55.6,10.4,111.7,18,167.7,26.3c30.2,4.5,60.3,8.5,90.7,11.4c35.3,3.3,70.6,6.4,106.1,8.2
	c41.4,2.1,82.8,4.6,124.2,6.4c55.3,2.3,110.6,3.5,165.9,3.4c11.3,0,21.5,4,32.3,5.8c11.2,1.9,22.3,4.1,33.6,4.8c4,0.2,5.8,1.6,6,5.8
	c0.8,23.2,5.8,46.2,3.3,69.6c-0.2,1.5-0.4,2.9-1,4.3C2089.9,538.8,2081.9,538.8,2073.9,538.8z"/>
<path class="st16" d="M1188.2,359.4c7.9,0,15.8,0,23.7,0c0,0.2,0,0.3,0,0.5c-7.9,0-15.8,0-23.6,0
	C1188.3,359.7,1188.3,359.5,1188.2,359.4z"/>
<path class="st16" d="M998.9,470.7c-2.9,0-5.7,0-8.6,0c0-0.2,0-0.3,0-0.5c2.9,0,5.7,0,8.6,0C998.9,470.4,998.9,470.6,998.9,470.7z"
	/>
<path class="st17" d="M967.1,406c0-4.7,0-9.3,0-14c1.7-4.2,4.3-8.3,4.8-12.7c0.5-4.4,1.8-5.3,6-5.4c39.4-0.4,78.8,1.3,118.3-0.8
	c16.8-0.9,33.3-3.1,49.9-5.7c21-3.3,41.8-8.2,63.2-7.5c3.2,0.1,6.2-0.8,8.7-2.9c1.7,0,3.3,0,5,0c6.8,2.7,14.3,4.5,16.6,12.9
	c0,0.1,0.2,0.3,0.3,0.3c4,1.8,3.7,5.3,3.9,8.9c0.7,13.6,1.2,27.2,2.3,40.7c0.3,4-0.4,8.3,1.8,12c0,1.3,0,2.7,0,4
	c-0.5,0.4-1.2,0.7-1.5,1.2c-4.6,7.6-13.1,10.3-19.4,15.8c-2,1.8-5.1,1.9-7.7,1.3c-5-1.2-9.8-0.5-14.8-0.3
	c-16.8,0.6-33.6,0.6-50.4,1.2c-15.5,0.5-30.9,1.1-46.3,2.1c-27.2,1.8-54.5,2.6-81.7,3.8c-14.1,0.6-28.2,1.9-42.1,4.5
	c-2.8,0.5-4.4-0.1-6-2.1c-4-5.2-6.8-10.9-8-17.5c-2-11.2-1.3-22.5-1.7-33.8C968.2,410,969,407.7,967.1,406z"/>
<path class="st18" d="M1832.9,2072.9c-6.3-2.3-13-2.9-19.5-2.8c-18.3,0.2-36.6-2.2-54.9,0.4c-3.2,0.5-6.3-3.6-6.6-8.1
	c-0.2-2.8,0.1-5.7,0-8.5c-0.3-15.1-0.6-30.3-1.1-45.4c-0.3-8.4,1.3-16.6,1-24.9c-1.7-45.4-2.1-90.9-2-136.4c0-29.3-0.2-58.7,0.4-88
	c0.8-42.1-0.2-84.3-0.6-126.4c-0.3-32-1.9-63.9-2.5-95.9c-0.3-15,0.2-30,0.8-45c0.5-11.8-2.2-23.2-3.3-34.7
	c-2.5-25.9-4.9-51.7-2.6-77.7c0.4-4,1-8,2.6-11.6c3.7-8.3,13.3-9.6,18.4-2.1c17,25.3,37.5,48,55.1,72.9
	c7.2,10.2,14.3,20.5,22.1,30.3c4,5,3,11.2,3.4,16.8c2.7,34.9,3.5,69.8,4.6,104.7c1.4,46.3-1,92.6-0.2,138.9
	c0.5,30.3,3.3,60.5,4.6,90.8c0.9,20.5,1.8,40.9,2.6,61.4c1.7,47.6,3.1,95.2,5.2,142.8c0.5,12.1,0.3,23.9-3.8,35.4
	c-0.7,2-1.5,4-2.4,6c-1.9,4.3-4.7,7.2-10,6.2c-1.6-0.3-3.7-0.7-5.2,0.9C1836.9,2072.9,1834.9,2072.9,1832.9,2072.9z"/>
<path class="st18" d="M1394.1,1302.7c-39,0-78,0.2-116.9-0.1c-17.3-0.1-34.6-0.6-52-0.4c-23,0.2-46,1-69,0.4
	c-32.2-0.8-64.3,0.6-96.4,0.1c-38-0.5-75.9-0.9-113.9-2.1c-39.1-1.2-78.1-3.3-117.2-6.3c-9.9-0.8-20-0.5-30-0.3
	c-18.7,0.4-37.3-1.4-55.9-1.4c-3.1,0-6.3-0.5-9.4-1c-6.9-1-13.2,3-20.1,2.7c-19.2-0.9-38.6,1.7-57.7-2.4c-7.2-1.5-8.4-4.3-4.2-10.5
	c8.1-11.9,15.5-24.2,27.5-33.3c11.3-8.6,19.7-20.3,28.3-31.6c2.3-3,4.6-4.1,8.4-3.7c30,3.4,60.2,2.8,90.3,3.2
	c11.3,0.1,22.6,1,34,0.8c28.6-0.6,57.1-2.2,85.7-4.3c20.4-1.5,41-0.8,61.4,0c3.8,0.1,7.6,0.4,11.5,0.5c30,0.8,59.9,1.3,89.9,2.3
	c34.6,1.1,69.2,2.2,103.8,4.1c50.1,2.8,100.2,2.4,150.3,2.9c15.6,0.1,31.3,0.2,46.9,0.2c52.8,0,105.6,0.3,158.4,0.8
	c15.5,0.1,30.9,1,46.4,1.5c11,0.4,21.9-1,32.9,0.1c8.6,0.9,16.7,3,24.6,6c1.2,0.4,2,0.9,2.6,2c7.1,13.6,18.7,23.3,29.6,33.5
	c8.4,7.8,16.9,15.5,25.1,23.5c3.9,3.8,8.5,7.2,12.6,11.1c1.6,1.5,3.1,3,2,5.6c-1.2,2.7-3,3.6-5.9,3.6c-30.5-0.4-60.9,0-91.4-1.7
	c-20.6-1.1-41.3-0.3-62-0.5c-7.7-0.1-15.4-0.1-22.9-0.9C1492.5,1301.7,1443.3,1302.2,1394.1,1302.7z"/>
<path class="st18" d="M624.9,1950.9c-8.7,0.1-16.1-3.4-24.3-3.3c-10,0.2-19.9-1.1-29.9-1.6c-3.3-0.2-6.2-1-8.5-3.5
	c-1-1.1-2.2-1.8-3.8-1.9c-6.3-0.7-8.8-3.4-8.4-9.9c0.5-9.3,1.9-18.5,2.4-27.8c0.7-13.6,0-27.3,2.6-40.8c3.3-17.8,3.6-36,4.7-54
	c0.9-15,0.6-30.2,0.5-45.3c-0.3-29.5-2.2-58.9-2.9-88.3c-0.8-33,1.5-65.9,1-98.9c-0.4-27.8-0.3-55.6,0.1-83.5
	c0.2-18.6,1.7-37.3,1.6-55.9c0-9.3,1-16.8,6.9-25.1c13.8-19.3,23.8-41.1,37-60.9c5.2-7.8,10-15.8,15.9-23c3.5-4.3,8.6-7.3,13.2-10.6
	c1.4-1,3.3-0.9,4.8-0.1c2.6,1.2,5,2.7,8.2,2.9c2.5,0.2,3.2,3.1,3,5.6c-0.6,5.8-1.3,11.6-1.9,17.3c-0.9,8.3-0.5,16.6-0.4,24.9
	c0.5,22.5,0.1,45,0.6,67.5c0.6,26.8,0.6,53.6,0.5,80.4c-0.1,25.6-0.1,51.3-1,76.9c-1.3,38.1-1,76.3-0.7,114.4
	c0.1,15.1,2,30.2,3.4,45.2c0.9,9.5-0.8,19.3-0.3,28.9c0.7,11.7-1.8,23.1-1.3,34.8c0.5,12-1,23.9-0.9,35.9
	c0.2,11.8,0.2,23.7-0.3,35.5c-0.5,10.7-1.1,21.3,0.3,31.9c1.1,8.2-2.1,15.5-5,22.6C639,1948.8,631.9,1950.8,624.9,1950.9z"/>
<path class="st18" d="M1402.4,909.4c-18.6,3-36.2,4.5-53.8,2.7c-6.8-0.7-13.1,1.9-19.8,1.8c-23.7-0.3-47.3-0.4-71-0.7
	c-27.3-0.3-54.6,1-81.9,0.7c-30.1-0.3-60.2-1.2-90.3-2.1c-15.4-0.4-30.8-2.3-45.9-5.3c-3.2-0.6-6.3-0.6-9.4-0.5
	c-14.1,0-28.3-0.4-42.4-1.8c-0.3,0-0.7-0.2-1-0.1c-3.7,1.1-7,1.1-8.9-2.9c-2.1-4.2,1.4-6.5,3.5-9.1c9.4-11.4,18.1-23.7,28.7-33.9
	c22.8-22.1,42.6-46.7,62-71.6c20.3-26,40.4-52.2,63.5-75.7c14.6-14.9,28.7-30.1,42.3-45.8c2.5-2.9,3.6-0.6,5,0.8
	c19.1,17.8,34.9,38.4,50.3,59.4c7.5,10.2,15.9,19.7,24.7,28.8c11.9,12.4,23.1,25.4,35.6,37.2c17.9,16.8,33.9,35.5,51.8,52.4
	c17.1,16.2,31.4,35.3,46.6,53.4C1395.2,901,1398.5,904.8,1402.4,909.4z M1092.4,844.3c0.1,0.5,0.3,1,0.4,1.6c27,0,53.9,0.2,80.9-0.1
	c28.8-0.3,57.6,1.3,86.4,1.5c1.6,0,3.3,0.6,4.9,0.7c9.5,0.5,19,0,28.4,1.8c1.1,0.2,2.6,0.3,3.2-0.8c0.7-1.3-0.7-2.1-1.4-2.8
	c-3.4-3.6-6.9-7.2-10.4-10.8c-28.2-29.4-53.7-61.5-85.5-87.5c-8.8-7.2-8.4-7.7-16.5,0c-18.6,17.5-35.8,36.3-53,55.1
	C1117.1,816.5,1104.8,830.5,1092.4,844.3z"/>
<path class="st18" d="M1573.3,1468.1c6.3,0.5,14.4,1,22.5,2.1c5.3,0.7,8.8,4.2,11.1,9c2.9,6.3,3.9,12.6,2.1,19.3
	c-2.5,9.7,0.3,19.2,1.2,28.7c1.8,19.4,3.4,38.8,4.4,58.2c1.9,38.2,3.5,76.5,5.4,114.7c2,40,4.5,80.1,5.9,120.2
	c1.3,36,0.8,71.9,0.7,107.9c0,18.2,0.1,36.3,0.2,54.5c0,1.5,0.1,3-0.2,4.5c-1.1,6.5-4.5,9.3-10.8,8.5c-12.4-1.5-24.9-0.9-37.4-1.7
	c-11.5-0.8-13.4-2.4-14.7-13.9c-0.9-8,0-15.9,0.1-23.9c0.6-48.5,0.4-96.9-2.2-145.3c-0.6-12-0.8-24-0.7-35.9
	c0.4-35.8-0.5-71.6-1.4-107.4c-0.9-35.5-1.3-70.9-2-106.4c-0.5-24.8-0.4-49.6-2.5-74.3c0-0.5,0-1-0.1-1.5
	C1554,1471.7,1557.6,1467.9,1573.3,1468.1z"/>
<path class="st19" d="M1272.8,1458.8c7,0,14,0,21,0c5.6,0,7.1,1.5,7.2,7.4c0.3,12.5-1.1,24.9-2.5,37.3c-0.6,4.9,0.2,9.6,0.6,14.4
	c1.8,21.4,3,42.8,3.7,64.3c1.4,44.9,2.6,89.9,4.2,134.8c1.1,30.1,2.1,60.2,4,90.3c2.6,42.9,4,85.8,5.3,128.7
	c0.3,10.7-3.3,20.1-5.3,30.1c-0.7,3.2-2.9,5-7.1,4.2c-11.7-2.2-23.5-1.6-35.4-1.6c-7.3,0-10.7-5.2-8.9-12.4
	c2.1-8.3,3.1-16.9,1.5-25.5c-0.6-3.3-1-6.6-1-9.9c0-17.7,0.3-35.3-0.3-53c-0.6-18.5-2.2-36.9-3.4-55.3c-0.5-8.3-0.7-16.6-1.1-24.9
	c-1.4-26.6-2.1-53.2-3.3-79.8c-1.6-36.6-2.3-73.2-3.3-109.8c-0.5-18.3-0.6-36.6,0.1-54.9c0.3-7.4-0.8-14.6-2-21.8
	c-2.4-14.6,0.8-29.2,0.3-43.8c-0.1-4.3-3.4-7.4-2.3-12.1c1.1-4.7,2.3-6.8,7.5-6.3c6.8,0.6,13.6,0.1,20.5,0.1
	C1272.8,1459.1,1272.8,1459,1272.8,1458.8z"/>
<path class="st19" d="M1628.2,1449.2c-26.6-1.6-53.1-3.3-79.7-4.8c-24.1-1.4-48.2-2.7-72.3-3.6c-73.6-2.8-147.2-3.5-220.8-2.6
	c-10.8,0.1-21.6,0.6-32.5,1.1c-3.1,0.1-3.7-0.7-2.8-3.6c5.4-17.8,7.6-36.1,9.1-54.5c0.3-4.2,1.2-5.6,6.2-5.4
	c26.6,1.5,53.2,2.2,79.8,3.6c28.8,1.6,57.6,0.1,86.4,0.2c38.8,0.1,77.6,1.6,116.4,1.5c35.3-0.1,70.6-1.4,105.9-2.2
	c3.2-0.1,5.3,0.2,5.6,4.2c1.5,20.7,7.8,40.4,13.3,60.3c1.2,4.3,0.5,5.8-4,5.4c-3.5-0.3-7-0.1-10.5-0.1
	C1628.2,1448.8,1628.2,1449,1628.2,1449.2z"/>
<path class="st19" d="M759.2,1698c22.7,0.5,48.2,3.2,73.7,5.5c22,2,44,4.2,66,6.5c22.5,2.4,44.9,5.2,67.4,7.5
	c12.5,1.3,24.8,3.7,37.7,1.7c12.1-1.8,24.1,1.8,36.2,3c7.8,0.8,15.5,1.7,23.3,2.6c2,0.2,3.9,0.6,5.9,1.1c7.7,2,7.8,2,7.7,9.8
	c-0.1,14,1.3,27.9,2.1,41.9c0.2,3.7-1.2,5.6-4.3,7.5c-9,5.3-18.7,4.3-28.3,3.4c-27-2.7-53.9-5.7-80.9-8.8
	c-30.4-3.4-60.8-7.1-91.2-10.5c-25.1-2.9-50.3-5.4-75.4-8.4c-22.1-2.7-44.3-5.1-66.1-9.7c-3.9-0.8-5-2.1-4.3-6.4
	c2-12.8,2.1-25.9,2.2-38.8c0-5.2,2-6.4,6.5-7C743.5,1698,749.9,1698.1,759.2,1698z"/>
<path class="st19" d="M784.3,1361.1c0.4-2.3,77.7,0.9,109.9,2.7c19.6,1.1,39.3,1.5,58.9,2.5c31.6,1.6,63.2,1.9,94.9,1.6
	c7-0.1,7.1,0.1,6.9,6.9c-0.3,8.6-0.7,17.3-1.3,25.9c-0.6,7.4,0,14.6,1,21.9c0.6,3.9-0.4,5.4-4.6,5.4c-26.6-0.2-53.3-0.7-79.9-1.8
	c-19.1-0.8-38.2-1.9-57.3-3.1c-27.1-1.8-54.1-3.4-81.2-5.9c-21.1-1.9-42.1-3.9-62.6-9.3c-8.9-2.3-17.3-5.9-24.7-11.7
	c-11.4-8.9-10.1-22.5,3-28.9c7.7-3.8,16-5.5,24.6-6.2C776.1,1360.8,780.3,1361.1,784.3,1361.1z"/>
<path class="st19" d="M1045.9,1568.9c0,18,0.3,36-0.1,53.9c-0.4,20.4-0.6,41-5.8,61c-1.4,5.3-2.9,10.6-4.5,15.8
	c-1.4,4.5-4.7,7.4-9.2,8.3c-7.8,1.6-15.6,3.2-23.7,2.1c-7.7-1.1-13.5-6.9-13.6-14.7c0-6.8-0.4-13.5,1.2-20.3
	c0.9-3.9-0.9-8.5-1.3-12.7c-2.7-25.4-1.9-50.9-1.1-76.3c0.4-12,0.5-24,0.9-35.9c1.1-33.1,3.4-66.1,10.3-98.6
	c0.9-4.1,2.2-5.9,6.7-5.5c10.3,0.8,20.6,1.2,30.9,1.6c3.1,0.1,4.3,1.4,4.8,4.8c4.4,30.9,4.5,62,4.7,93.2c0,7.8,0,15.7,0,23.5
	C1046.1,1568.9,1046,1568.9,1045.9,1568.9z"/>
<path class="st19" d="M807.3,1594.7c1.2,24-3.9,53-10.2,81.8c-2,8.9-2.3,8.8-11.2,7.8c-6.4-0.8-12.9-1.1-19.4-1.5
	c-3.4-0.2-5.3-0.9-5.6-5.1c-0.9-15.1-1.9-30.2-3.6-45.3c-3-27-4.2-54.1-6-81.1c-1.2-18.4-2.1-36.9-3-55.4
	c-1.2-23.4-2.9-46.9-2.3-70.4c0.2-6.1,0.1-6,6.2-5.3c9.9,1,19.9,2.2,29.8,2.8c5,0.3,7.8,1.8,9.3,7.3c4.7,16.9,7.5,34.2,9.4,51.5
	C804.5,1517.5,806.8,1553.2,807.3,1594.7z"/>
<path class="st15" d="M2310.1,1660.1c0-1.3,0-2.7,0-4c10-1.7,20.2-0.7,30.3-1.6c19.8-1.9,39.6-4.5,59.1-8.1c2.9-0.5,3.7,0.2,3.7,3.2
	c0,21.6,2.5,43.1,3.8,64.6c-0.3,2.3-0.6,4.6,0.2,6.9c0.2,1,0.3,2,0.5,3.1c0,0.7,0.1,1.4,0.1,2.1c-0.8,10.7,1.1,21.3,0.9,31.9
	c-0.4,1.1-0.1,2,0.4,3c0.6,8.3-0.6,16.7,0.7,25c0.1,4,0.2,8,0.4,12c-0.1,5.9-0.2,11.8-0.2,17.8c0,0.9-0.5,3.5,1.9,1.3
	c0,1.3,0,2.7,0,4c-1.6-2.8-1.9-0.8-1.9,0.6c-0.1,3.8-0.3,7.7,0.7,11.4c-0.2,27.9-0.5,55.8-0.6,83.7c0,16.8,0.4,33.5,0.6,50.3
	c-0.2,5.1-0.5,10.3-0.5,15.4c0.1,4.4-1.5,6.4-6.1,5.8c-1.4-0.2-4.2-1.3-4.2,1.8c0,3.8-2.7,4.1-5.3,4.7c-17.5,4-34.7,9.2-51.8,14.4
	c-1.3,0.4-3.1,0.1-3.8,1.8c-0.7,0-1.3,0-2,0c0.3-0.9-0.1-1.6-0.9-2c-9.4-5.8-13.7-14.7-16.5-25.1c-2.5-9.4-1.8-18.8-2.1-28.2
	c-0.7-21.8-2.3-43.5-2.7-65.3c-0.8-48.7-0.9-97.5-1.7-146.2C2312.8,1716,2313.8,1688,2310.1,1660.1z"/>
<path class="st20" d="M1601.9,2136.9c-4.6-2.7-9.9-1.9-14.8-2.7c-21.8-3.5-43.7-6.2-65.8-7.4c-49.1-2.9-97.6-10.1-145.8-19.2
	c-20.5-3.9-41.4-4.5-62-6.6c-44.6-4.6-89.2-8.4-133.5-14.8c-13.8-2-27.6-0.6-41.4-1c-10.2-0.3-20.3-0.3-30.3-2.1
	c-9-1.6-11.6-5.1-11-14.4c0.1-1.6-0.4-3-1.1-4.2c-5.4-8.5-2.2-17.9-2.9-26.8c-0.1-1.7,1.5-2,2.6-2.7c7.2-4.2,14.8-7.6,22.3-11.1
	c2.4-1.1,4,0.3,6,0.4c20.4,0.7,40.3,5.2,60.4,7.9c45.6,6.1,91.3,10.3,137.1,14.7c63.3,6,126.7,11.5,190.2,15.9
	c20.3,1.4,40.6,1.8,60.7,4.8c9.5,1.4,18.8,3.1,26.4,9.4c1.6,1.3,2.6,0.9,4.4,0c19.8-10.6,35.7-26.6,53.8-39.5
	c1.3-0.9,2.6-2.2,3.3-3.7c4-8,11-12.7,18.3-17.2c3.1-1.9,6.4-1.9,9.6-0.9c4.2,1.2,7.9,3.4,11.2,6.3c3.4,3,5.7,7.1,10.5,8.8
	c3,1.1,4.1,4.7,3.9,8.1c-0.3,4.3,0.4,8.2,3.5,11.5c2.4,2.5,1.6,6.6,4.4,8.9c0,2,0,4,0,6c-2.1-0.1-1.6,1.7-2,2.8
	c-2.1,6.1-6,10.7-11.7,13.6c-3.7,1.8-7.6,3.4-11.5,4.6c-7,2.2-12.4,5.3-17.3,11.7c-12.3,16-29.6,25.6-48.4,32.6
	c-7.2,2.7-14.9,3.7-22,6.6C1606.6,2136.9,1604.3,2136.9,1601.9,2136.9z"/>
<path class="st21" d="M1590,2095.1c-23.9-0.6-47.8-2.7-71.6-5c-19.5-1.9-39.1-3.4-58.6-5.4c-13.7-1.4-27.4-3.4-41.1-5
	c-14.2-1.7-28.4-3.2-42.6-4.8c-23.1-2.5-46.2-4.9-69.3-7.6c-20-2.3-39.9-4.8-59.8-7.4c-17.6-2.3-35.2-4.9-52.7-7.4
	c-6.3-0.9-12.5-1.6-18.9-1.4c-15.4,0.6-30.5-1.4-45.5-5.1c-7.9-2-16.1-1.9-24.2-2.1c-7-0.2-11.5-4-13-10.2c-0.8-3,0-4.7,2.7-6
	c24.5-12,48.8-24.5,74.4-34.1c14.2-5.3,28.5-10.1,42.3-16.6c4.1-1.9,8-1.4,12.1-1.2c17.3,0.8,34.6,1.2,51.8,2.2
	c27.5,1.5,55,3.1,82.5,5.7c32.1,3,64.1,7,96,10.9c15.2,1.9,30.3,2.3,45.6,0.6c13.5-1.5,27.2,0.3,40.8,1.3c18.4,1.4,36.6,4,54.9,6.3
	c10.2,1.3,20.4,2.8,30.6,4c19.3,2.2,38.7,3.3,58.1,3c10.4-0.2,20.2,3.9,30.6,4c1.4,0,1.9,1.2,2.3,2.3c1.8,4.5,0.1,9.9-3.9,12.8
	c-8.7,6.3-16.4,13.6-23.7,21.4c-4.3,4.5-9,8.2-14.6,11.1c-10.2,5.3-20.2,10.9-30.4,16.2c-8.9,4.7-18.5,8-27.2,13.4
	C1609.3,2096.4,1599.4,2095.1,1590,2095.1z"/>
<path class="st22" d="M2024.2,1639.9c4.7-4.9,10.7-7.2,17.2-8.8c31.2-7.7,60.7-19.6,89.1-34.6c8.1-4.3,16.8-7.3,24.8-11.7
	c14.6-8,30.5-5.5,45.8-6.7c28.8-2.2,57.6-4.6,86.2-9c22-3.4,43.9-6.7,65.9-10c1.5-0.2,3-0.1,4.5-0.1c38.3,0.8,76.6-1,114.8-3.4
	c50-3.1,100-7,149.8-12c50.3-5,100.7-10.2,150.6-18.7c27.9-4.7,55.6-10.5,83.3-16.2c3.1-0.6,6.2,0,9.2-1.3c1.3-0.6,2.6,0.2,3.4,1.4
	c0.9,1.3,0.6,2.5-0.2,3.7c-0.5,0.8-1.9,1.7-1.3,2.5c4,4.8-1,5.5-3.3,6.8c-19.4,11-38.5,22.4-56.8,35.3c-6.5,4.6-14.6,4.2-22,5.5
	c-26.4,4.9-52.8,10.3-79.4,13.9c-20.5,2.8-41.1,5.5-61.6,8.3c-22.4,3-44.7,6-67.1,8.9c-20.4,2.7-40.8,5.4-61.1,8.1
	c-23.3,3.1-46.7,6.3-70,9.3c-18.8,2.4-37.6,4.4-56.3,6.8c-18.9,2.3-37.8,4.9-56.7,7.3c-19.1,2.4-38.2,4.6-57.4,6.9
	c-17.8,2.1-35.5,4.5-53.3,6.5c-16.5,1.8-33,3-49.5,4.9c-18.7,2.2-37.4,3-56.2,4.1c-13.9,0.8-28,0.2-42,0.2c-4.3,0-8.6,0.6-12.8,1.6
	c-7.5,0.1-15,0.2-22.5,0.2c-2,0-4.2,0.4-4.5-2.6c-0.1-0.8-0.7-1.3-1.4-1c-4.2,1.7-6.7-1.3-9.7-3.2
	C2024.2,1641.9,2024.2,1640.9,2024.2,1639.9z"/>
<path class="st23" d="M2171.2,2061.5c0,3.8-0.1,7.5,0,11.2c0.1,2.9-0.7,4.2-3.9,4.1c-6-0.2-12-0.2-18-0.1c-5.2,0.1-8.8-3.1-12.3-5.9
	c-16.7-13.1-26.6-30.5-32.4-50.8c-5.7-19.9-9.2-40-10.7-60.6c-1.1-15.8-0.9-31.6-0.4-47.4c0.4-14.8,3.5-29.4,9.2-43.2
	c0.3-0.9,0.8-1.7,2-2.7c9.9,53.4,35.4,100.3,60.4,147.8c-0.6-33.4-1.8-66.9,15.2-98.2c2.9,6.9,4.1,13.8,5.6,20.5
	c3.4,14.9,7.8,29.5,10.2,44.6c2.2,13.6,2.8,27.4,5.8,40.8c3.5,16,2.9,32,2.2,48.1c-0.1,3.3-1.5,4.9-4.9,4.8
	c-5.2-0.2-10.3-0.2-15.5-0.6c-5.1-0.5-7.4-4.7-9.8-8.5c-0.8-1.2-1.1-2.7-1.7-4.1C2172,2061.5,2171.6,2061.5,2171.2,2061.5z"/>
<path class="st24" d="M2507.2,1780.1c-1.1,71.7-7.8,142.7-14.1,213.8c1.5,0.4,0.7-1.5,1.4-2.2c1.9,0.4,1.2,39.7-2,43.9
	c0.3-6.4,0.7-12.7,0.8-19.1c0.1-6.6,0-13.3,0-20.5c-3,1.9-2.7,4.7-3.2,6.9c-3.4,15.7-7.1,31.4-7.5,47.6c-0.2,8.5-7.5,12.5-15.3,8.7
	c-7.1-3.5-11.3-9.7-14.8-16.4c-4.2-8-6.3-16.8-7.7-25.7c-4.3-27.9,0.2-54.9,7.6-81.7c5.5-19.7,10.7-39.5,16.6-59
	c9.5-31.4,20.2-62.3,34-92.1C2503.8,1782.9,2504,1781,2507.2,1780.1z"/>
<path class="st23" d="M1946.8,1981.1c6.2,1,11.4,1.5,16.5,2.6c29.4,6.1,58,14.7,85.5,26.6c12.1,5.2,24.7,10.3,34.4,19.9
	c7.6,7.5,14.2,16.1,17.6,26.3c2.9,8.8,0.8,18.2,1,27.3c0,1.9-1.6,2.2-3.2,2.3c-30,2.1-56.4-6-78.7-26.8
	c-11.4-10.7-22.7-21.5-33.5-32.8C1972.8,2012.3,1959,1998.3,1946.8,1981.1z"/>
<path class="st23" d="M2612.9,1849c-5.2,6.5-10.1,13.1-14.7,19.9c-17.4,25.4-29.3,53.2-38.1,82.5c-3.7,12.2-8.2,24.2-10.9,36.7
	c-0.5,2.4-1.7,4.7-2.8,6.9c-2.3,4.6-5.7,7.6-11.3,7.5c-7-0.2-14-0.1-20.9-0.5c-4.6-0.3-9-4.7-8.9-10.6c0.3-22-2.9-44.2,4.9-65.7
	c5.8-15.9,16-28.3,28.1-39.4c20.3-18.5,44.3-30.3,70.8-37.3C2610,1848.9,2611.1,1848.1,2612.9,1849z"/>
<path class="st25" d="M691,2118.4c-38,0.9-75.5-3.7-112.2-13.3c-14.2-3.7-28.9-4.5-43.2-7.9c-19.2-4.7-82.4-28.1-90.2-34.7
	c-11.7-9.9-24.1-19-33.7-31.1c-14.6-18.4-22.4-38.9-19.6-62.5c0.7-6.1,10-33.3,12.2-39c6.5-16.3,18.2-28,32.3-37.7
	c2.5-1.7,4.9-3.4,7.2-5.4c4.8-4.3,10.2-7.3,16.4-9.2c6-1.9,11.8-4.4,17.9-6.3c3.9-1.3,5.2-3.3,5.2-7.6c-0.3-24.6,5-47.7,20.8-67.3
	c19-23.4,43.9-36.8,73.3-42.1c2.3-0.4,4.5-0.6,6.6-1.9c19.2-12.5,40.3-17.9,63-17.3c1,0,2-0.1,3-0.1c30.1,3.9,59.4,10.7,85.5,27.1
	c33.7,21.2,56.9,50.3,65.8,89.7c2.6,11.6,3.6,23.4,1.6,35.2c-0.9,5.2,2.4,7.1,5.4,9.6c1.4,1.1,2.1,0,2.8-0.9
	c24.4-31.2,56.3-35.1,91.7-24.5c14.4,4.3,28.2,10.3,38.8,21.7c0.7,0.7,1.5,1.3,2.4,1.8c29.4,18.5,45.3,46.2,53.3,78.9
	c2.4,9.6,2.9,19.8,2.5,29.8c-0.1,2.3,0.5,4.1,2,5.9c24.6,31.1,10.3,73.1-28.4,82.1c-15.4,3.6-30.5,8.4-46.3,10.1
	c-43.1,4.7-86,5.6-128.5-5.6c-1.9-0.5-3.7-1-5.7,0c-18.6,9.6-39,13.1-59.1,17.8c-1.6,0.4-3.2,0.8-4.8,1.2c-0.7-0.5-1.3-0.3-1.9,0.3
	c-1.4,0.2-2.8,0.5-4.1,0.7c-0.7-0.5-1.3-0.3-1.9,0.2c-1.7,0.2-3.4,0.5-5.1,0.7c-0.7-0.4-1.3-0.4-1.9,0.2c-2.4,0.3-4.7,0.5-7.1,0.8
	c-0.7-0.4-1.3-0.4-1.9,0.2C700.4,2118.2,695.7,2118.3,691,2118.4z"/>
</svg>
