<svg version="1.2" xmlns="http://www.w3.org/2000/svg" viewBox="0 0 512 512" width="512" height="512">
	<title>adventure-svg</title>
	<style>
		.s0 { fill: #ff641a } 
		.s1 { fill: #ff0000 } 
		.s2 { fill: #f9ebd7 } 
		.s3 { fill: #f3d6ae } 
		.s4 { fill: #ff9368 } 
		.s5 { fill: #ffb89b } 
		.s6 { fill: #c20010 } 
	</style>
	<g id="Layer">
		<g id="Layer">
			<path id="Layer" class="s0" d="m256 472.2c-119.6 0-216.2-96.6-216.2-216.2 0-119.6 96.6-216.2 216.2-216.2 119.6 0 216.2 96.6 216.2 216.2 0 119.6-96.6 216.2-216.2 216.2z"/>
		</g>
		<g id="Layer">
			<path id="Layer" class="s1" d="m472.2 256c0 119.4-96.8 216.2-216.2 216.2 0-158 0-326.2 0-432.4 119.4 0 216.2 96.8 216.2 216.2z"/>
		</g>
		<g id="Layer">
			<path id="Layer" class="s2" d="m256 405.3c-82.6 0-149.3-66.8-149.3-149.3 0-82.6 66.8-149.3 149.3-149.3 82.6 0 149.3 66.8 149.3 149.3 0 82.6-66.8 149.3-149.3 149.3z"/>
		</g>
		<g id="Layer">
			<path id="Layer" class="s3" d="m405.3 256c0 82.4-66.9 149.3-149.3 149.3 0-93.8 0-235.5 0-298.6 82.4 0 149.3 66.9 149.3 149.3z"/>
		</g>
		<g id="Layer">
			<g id="Layer">
				<path id="Layer" class="s4" d="m282.2 208.6l89.9-89.9 21.2 21.2-89.9 89.9z"/>
			</g>
			<g id="Layer">
				<path id="Layer" class="s5" d="m118.7 139.9l21.2-21.2 89.8 89.9-21.2 21.2z"/>
			</g>
			<g id="Layer">
				<path id="Layer" class="s4" d="m282.2 303.4l21.2-21.2 89.8 89.9-21.2 21.2z"/>
			</g>
			<g id="Layer">
				<path id="Layer" class="s5" d="m118.6 372.1l89.9-89.9 21.2 21.2-89.9 89.9z"/>
			</g>
		</g>
		<g id="Layer">
			<path id="Layer" class="s1" d="m512 254l-215.8-38.2-38.2-215.8h-4l-38.2 215.8-215.8 38.2v4l215.8 38.2 38.2 215.8h4l38.2-215.8 215.8-38.2z"/>
		</g>
		<g id="Layer">
			<path id="Layer" class="s6" d="m512 254l-215.8-38.2-38.2-215.8h-2v512h2l38.2-215.8 215.8-38.2z"/>
		</g>
	</g>
</svg>