<svg id="Layer_1" enable-background="new 0 0 450 450" height="512" viewBox="0 0 450 450" width="512" xmlns="http://www.w3.org/2000/svg"><g><g><g clip-rule="evenodd" fill-rule="evenodd"><ellipse cx="225.26" cy="225.74" fill="#fe646f" rx="184.32" ry="184.32" transform="matrix(.707 -.707 .707 .707 -93.646 225.398)"/><g fill="#e6e9ed"><path d="m225.26 281.35c-4.09 0-7.59-3.49-8.3-8.29l-20.92-141.1c-2.63-17.77 8.85-34.06 24-34.06h10.43c15.15 0 26.63 16.29 24 34.06l-20.92 141.1c-.7 4.8-4.2 8.29-8.29 8.29z"/><path d="m244.4 334.43c0-10.54-8.6-19.14-19.14-19.14s-19.14 8.6-19.14 19.14 8.6 19.14 19.14 19.14 19.14-8.59 19.14-19.14z"/></g></g></g></g></svg>