<svg version="1.2" xmlns="http://www.w3.org/2000/svg" viewBox="0 0 512 512" width="512" height="512">
	<title>surprised-svg</title>
	<style>
		.s0 { fill: #ffd93b } 
		.s1 { fill: #f4c534 } 
		.s2 { fill: #3e4347 } 
		.s3 { fill: #ffffff } 
		.s4 { fill: #5a5f63 } 
	</style>
	<circle id="Layer" class="s0" cx="256" cy="256" r="256"/>
	<path id="Layer" class="s1" d="m512 256c0 141.4-114.6 256-256 256-80.5 0-152.3-37.1-199.3-95.3 43.9 35.5 99.9 56.7 160.7 56.7 141.4 0 256-114.5 256-256 0-60.8-21.2-116.8-56.7-160.7 58.1 47 95.3 118.8 95.3 199.3z"/>
	<circle id="Layer" class="s2" cx="256" cy="398.8" r="44.8"/>
	<circle id="Layer" class="s3" cx="402" cy="150" r="58"/>
	<circle id="Layer" class="s2" cx="402" cy="150.1" r="26.8"/>
	<path id="Layer" class="s4" d="m416.5 147.5c-2.4 1.6-6.2 0.4-8.4-2.8-2.2-3.2-2-7 0.4-8.6 2.4-1.6 6.3-0.3 8.4 2.8 2.1 3.2 2 7.1-0.4 8.6z"/>
	<circle id="Layer" class="s3" cx="110" cy="150" r="58"/>
	<circle id="Layer" class="s2" cx="110" cy="150.1" r="26.8"/>
	<path id="Layer" class="s4" d="m95.1 138.9c2.1-3.1 6-4.4 8.4-2.8 2.4 1.6 2.6 5.4 0.4 8.6-2.2 3.2-6 4.4-8.4 2.8-2.4-1.5-2.5-5.4-0.4-8.6z"/>
	<g id="Layer">
	</g>
	<g id="Layer">
	</g>
	<g id="Layer">
	</g>
	<g id="Layer">
	</g>
	<g id="Layer">
	</g>
	<g id="Layer">
	</g>
	<g id="Layer">
	</g>
	<g id="Layer">
	</g>
	<g id="Layer">
	</g>
	<g id="Layer">
	</g>
	<g id="Layer">
	</g>
	<g id="Layer">
	</g>
	<g id="Layer">
	</g>
	<g id="Layer">
	</g>
	<g id="Layer">
	</g>
</svg>