<svg xmlns="http://www.w3.org/2000/svg" viewBox="0 0 455.3 161.13"><defs><style>.cls-1{fill:#fff;}.cls-2{fill:#bd1818;}.cls-3{fill:#e52320;}.cls-4{fill:#dc9f12;}.cls-5{fill:#f4df61;}</style></defs><g id="Layer_2" data-name="Layer 2"><g id="Layer_1-2" data-name="Layer 1"><path class="cls-1" d="M212,85l-.07-27.39L198.45,80.13h-4.76l-13.37-22V85H170.4V39.3h8.74l17.09,28.37L213.06,39.3h8.67L221.86,85Z"/><path class="cls-1" d="M268,76.47V85H232.69V39.3h34.5v8.48h-24v9.91h21.2v8.22h-21.2V76.47Z"/><path class="cls-1" d="M276.46,39.3H287v37h22.9V85H276.46Z"/><path class="cls-1" d="M356.55,39.3,336.79,85H326.35L306.66,39.3h11.41L332,71.91,346.05,39.3Z"/><path class="cls-1" d="M356.94,62.13c0-13.57,10.57-23.62,25-23.62s25,10,25,23.62-10.63,23.61-25,23.61S356.94,75.69,356.94,62.13Zm39.27,0c0-8.68-6.13-14.61-14.29-14.61s-14.28,5.93-14.28,14.61,6.13,14.61,14.28,14.61S396.21,70.8,396.21,62.13Z"/><path class="cls-1" d="M444,85l-8.8-12.72h-9.72V85H414.86V39.3h19.77c12.19,0,19.82,6.32,19.82,16.56,0,6.85-3.45,11.87-9.39,14.42L455.3,85Zm-9.91-37h-8.61V63.82H434c6.46,0,9.72-3,9.72-8S440.5,47.91,434,47.91Z"/><path class="cls-1" d="M170.4,99.67h3.33v45.65H170.4Z"/><path class="cls-1" d="M189.64,99.67h18.07c14.48,0,24.26,9.52,24.26,22.83s-9.78,22.82-24.26,22.82H189.64Zm17.81,42.65c12.91,0,21.2-8.21,21.2-19.82s-8.29-19.83-21.2-19.83H193v39.65Z"/><path class="cls-1" d="M243.52,99.67h3.33v42.65h26.28v3H243.52Z"/><path class="cls-1" d="M313.18,142.32v3h-31.5V99.67H312.2v3H285v18h24.33v2.94H285v18.71Z"/><polygon class="cls-2" points="36.4 148.68 45.8 141.94 45.8 37.75 36.4 33.41 36.4 148.68"/><polygon class="cls-2" points="36.4 26.48 45.8 33.34 45.8 37.75 36.4 37.7 36.4 26.48"/><polygon class="cls-2" points="6.34 36.41 10.05 38.99 10.05 42.45 6.34 43.73 6.34 36.41"/><polygon class="cls-3" points="109.73 148.68 100.28 141.92 100.28 37.75 109.73 33.41 109.73 148.68"/><polygon class="cls-2" points="20.37 31.73 24.08 34.38 24.08 37.64 20.37 38.91 20.37 31.73"/><polygon class="cls-3" points="109.73 26.48 100.28 33.15 100.28 37.75 109.73 37.7 109.73 26.48"/><polygon class="cls-3" points="139.79 36.41 136.08 38.91 136.08 42.45 139.79 43.73 139.79 36.41"/><polygon class="cls-3" points="125.76 31.73 122.05 34.29 122.05 37.64 125.76 38.91 125.76 31.73"/><polygon class="cls-3" points="109.73 46.78 100.3 46.78 73.08 65.7 73.08 73.25 109.73 46.78"/><polygon class="cls-2" points="36.42 47.08 45.85 46.78 73.08 65.7 73.08 73.25 36.42 47.08"/><polygon class="cls-3" points="73.08 73.25 36.4 47.07 36.4 37.7 36.4 37.7 36.4 26.48 26.95 29.4 26.95 36.66 20.37 38.91 20.37 31.73 12.99 34.19 12.99 41.45 6.34 43.73 6.34 36.41 0 38.52 0 45.9 0 45.9 0 64.43 8.33 70.4 8.33 144.03 36.4 148.68 36.4 97.64 73.08 125.41 73.08 73.25"/><polygon class="cls-2" points="139.79 36.41 139.79 43.73 133.14 41.45 133.14 34.19 125.76 31.73 125.76 38.91 119.18 36.66 119.18 29.4 109.73 26.48 109.73 33.41 109.73 37.7 109.73 46.78 73.08 73.25 73.08 125.41 109.73 97.2 109.73 148.68 137.59 145.32 137.59 70.4 146.13 64.42 146.13 46.78 146.13 45.9 146.13 38.52 139.79 36.41"/><path class="cls-4" d="M73.07,130.71h0v30.42l.26-.35,9.77-13.93c-1.42-2.54-2.15-12.84-2.53-22.2Z"/><path class="cls-4" d="M75.73,7.48l1.65,18.84H90.2l4.41,4.59-5.16,5L86.1,32.45H83.36A7.83,7.83,0,0,0,81,37.62v17l-7.93,6.25h0V0a4,4,0,0,1,3.65,4Z"/><path class="cls-5" d="M73.06,130.71h0v30.42l-.25-.35L63,146.85c1.41-2.54,2.15-12.84,2.53-22.2Z"/><path class="cls-5" d="M70.34,7.48,68.75,26.32H55.93l-4.41,4.59,5.16,5L60,32.45h2.73a7.84,7.84,0,0,1,2.37,5.17v17l7.92,6.25h0V0a4,4,0,0,0-3.66,4Z"/></g></g></svg>