<svg version="1.2" xmlns="http://www.w3.org/2000/svg" viewBox="0 0 500 212" width="500" height="212">
	<title>MI-Throne-of-the-Herald-Logo-ai</title>
	<style>
		tspan { white-space:pre } 
		.s0 { fill: #8a79fc } 
		.s1 { fill: #6366ee } 
		.s2 { fill: #d4d4eb } 
		.s3 { fill: #bd1818 } 
		.s4 { fill: #e52320 } 
		.s5 { fill: #db9e12 } 
		.s6 { fill: #dc9f12 } 
		.s7 { fill: #f3de61 } 
		.s8 { fill: #f4df61 } 
		.s9 { fill: #ffffff } 
		.s10 { fill: #000000 } 
		.s11 { fill: #191430 } 
		.t12 { font-size: 45px;fill: #d4d4eb;font-weight: 800;font-family: "Montserrat-ExtraBold", "Montserrat" } 
	</style>
	<g id="Layer 1">
		<g id="&lt;Group&gt;">
			<g id="&lt;Group&gt;">
				<g id="&lt;Group&gt;">
					<path id="&lt;Path&gt;" class="s0" d="m499.6 114.3l-58.1 66.7h-381.6l-58.6-66.6 56.1-3.4-14.9-16.4 34.5 6.1h61.9l11 15.1h198.8l11.4-15.1h64.1l34.2-6.2-14.8 16.4z"/>
				</g>
				<g id="&lt;Group&gt;">
					<path id="&lt;Path&gt;" class="s1" d="m499.6 114.3l-58.1 66.7-105.2 0.4h-173.3l-103.1-0.4-58.6-66.6 70.8 42.7 354.8-0.6z"/>
				</g>
			</g>
			<g id="&lt;Group&gt;">
				<g id="&lt;Group&gt;">
					<g id="&lt;Group&gt;">
						<g id="&lt;Group&gt;">
							<path id="&lt;Compound Path&gt;" class="s2" d="m177.7 108v-10.6l-5.2 8.7h-1.9l-5.2-8.5v10.4h-3.8v-17.7h3.4l6.6 11 6.5-11h3.4l0.1 17.7z"/>
							<path id="&lt;Compound Path&gt;" class="s2" d="m199.5 104.7v3.3h-13.7v-17.7h13.4v3.3h-9.4v3.8h8.3v3.2h-8.3v4.1z"/>
							<path id="&lt;Compound Path&gt;" class="s2" d="m202.8 90.3h4.1v14.4h8.9v3.3h-13z"/>
							<path id="&lt;Compound Path&gt;" class="s2" d="m233.9 90.3l-7.7 17.7h-4.1l-7.6-17.7h4.4l5.4 12.6 5.5-12.6z"/>
							<path id="&lt;Compound Path&gt;" fill-rule="evenodd" class="s2" d="m234 99.1c0-5.2 4.1-9.1 9.7-9.1 5.6 0 9.7 3.8 9.7 9.1 0 5.3-4.1 9.2-9.7 9.2-5.6 0-9.7-3.9-9.7-9.2zm15.3 0c0-3.1-2.5-5.6-5.6-5.6-3 0-5.5 2.5-5.5 5.6 0 3.2 2.5 5.7 5.5 5.7 3.1 0 5.6-2.5 5.6-5.7z"/>
							<path id="&lt;Compound Path&gt;" fill-rule="evenodd" class="s2" d="m267.8 108l-3.4-4.9h-3.8v4.9h-4.1v-17.7h7.7c4.7 0 7.7 2.4 7.7 6.4 0 2.7-1.3 4.6-3.7 5.6l4 5.7zm-3.8-14.4h-3.4v6.2h3.4c2.5 0 3.7-1.2 3.7-3.1 0-2-1.2-3.1-3.7-3.1z"/>
						</g>
						<g id="&lt;Group&gt;">
							<path id="&lt;Compound Path&gt;" class="s2" d="m282.1 90.3h1.3v17.7h-1.3z"/>
							<path id="&lt;Compound Path&gt;" fill-rule="evenodd" class="s2" d="m289.5 90.3h7.1c5.6 0 9.4 3.7 9.4 8.8 0 5.2-3.8 8.9-9.4 8.9h-7.1zm7 16.6c5 0 8.2-3.2 8.2-7.7 0-4.5-3.2-7.7-8.2-7.7h-5.7v15.4z"/>
							<path id="&lt;Compound Path&gt;" class="s2" d="m310.5 90.3h1.3v16.5h10.2v1.2h-11.5z"/>
							<path id="&lt;Compound Path&gt;" class="s2" d="m337.5 106.8v1.2h-12.2v-17.7h11.8v1.1h-10.5v7h9.4v1.2h-9.4v7.2z"/>
						</g>
					</g>
				</g>
				<g id="&lt;Group&gt;">
					<g id="&lt;Group&gt;">
						<g id="&lt;Group&gt;">
							<path id="&lt;Path&gt;" class="s3" d="m233.5 21.5l4.5 2v49.4l-4.5 3.2z"/>
						</g>
						<g id="&lt;Group&gt;">
							<path id="&lt;Path&gt;" class="s3" d="m233.5 18.2l4.5 3.2v2.1h-4.5z"/>
						</g>
						<g id="&lt;Group&gt;">
							<path id="&lt;Path&gt;" class="s3" d="m219.3 22.9l1.7 1.2v1.6l-1.7 0.6z"/>
						</g>
						<g id="&lt;Group&gt;">
							<path id="&lt;Path&gt;" class="s4" d="m268.2 76.1l-4.4-3.2v-49.4l4.4-2z"/>
						</g>
						<g id="&lt;Group&gt;">
							<path id="&lt;Path&gt;" class="s3" d="m225.9 20.7l1.8 1.2v1.6l-1.8 0.6z"/>
						</g>
						<g id="&lt;Group&gt;">
							<path id="&lt;Path&gt;" class="s4" d="m268.2 23.5h-4.4v-2.2l4.4-3.1z"/>
						</g>
						<g id="&lt;Group&gt;">
							<path id="&lt;Path&gt;" class="s4" d="m282.4 26.3l-1.7-0.6v-1.6l1.7-1.2z"/>
						</g>
						<g id="&lt;Group&gt;">
							<path id="&lt;Path&gt;" class="s4" d="m275.8 24.1l-1.7-0.6v-1.6l1.7-1.2z"/>
						</g>
						<g id="&lt;Group&gt;">
							<path id="&lt;Path&gt;" class="s4" d="m250.9 40.3v-3.5l12.9-9h4.4z"/>
						</g>
						<g id="&lt;Group&gt;">
							<path id="&lt;Path&gt;" class="s3" d="m233.5 27.9l4.5-0.1 12.9 9v3.5z"/>
						</g>
						<g id="&lt;Group&gt;">
							<path id="&lt;Path&gt;" class="s4" d="m250.9 65l-17.4-13.1v24.2l-13.3-2.2v-34.9l-3.9-2.8v-8.8-3.5l3-1v3.4l3.1-1v-3.5l3.5-1.1v3.4l3.1-1.1v-3.4l4.5-1.4v5.3 4.4l17.4 12.4z"/>
						</g>
						<path id="&lt;Path&gt;" class="s3" d="m285.5 23.9v3.5 0.4 8.4l-4.1 2.8v35.5l-13.2 1.6v-24.4l-17.3 13.3v-24.7l17.3-12.5v-4.3-2-3.3l4.5 1.4v3.4l3.1 1.1v-3.4l3.5 1.1v3.5l3.1 1v-3.4z"/>
					</g>
					<g id="&lt;Group&gt;">
						<path id="&lt;Path&gt;" class="s5" d="m254.4 64.7c0.2 4.4 0.5 9.3 1.2 10.5l-4.6 6.6-0.1 0.2v-14.5z"/>
						<path id="&lt;Path&gt;" class="s6" d="m252.1 9.2l0.8 8.9h6.1l2.1 2.2-2.5 2.4-1.6-1.7h-1.3c-0.6 0.7-1 1.5-1.1 2.5v8l-3.7 3v-28.9c0.9 0.1 1.7 0.9 1.7 1.9z"/>
						<path id="&lt;Path&gt;" class="s7" d="m250.9 67.5v14.5l-0.2-0.2-4.6-6.6c0.7-1.2 1-6.1 1.2-10.5z"/>
						<path id="&lt;Path&gt;" class="s8" d="m249.1 7.5c0-1 0.8-1.8 1.8-1.9v28.9l-3.8-3v-8c0-1-0.5-1.8-1.1-2.5h-1.3l-1.6 1.7-2.4-2.4 2.1-2.2h6l0.8-8.9z"/>
					</g>
				</g>
			</g>
		</g>
		<g id="&lt;Group&gt;">
			<g id="&lt;Group&gt;">
				<g id="&lt;Group&gt;" style="opacity: .5">
					<path id="&lt;Compound Path&gt;" class="s9" d="m66.6 166.2c-0.7 0.1-0.7-0.4-0.7-1 0-7.1-0.2-25-0.2-32 0-0.5-0.3-0.8-0.7-0.8-3.1 0.1-4.3 0.3-5.8 0.8-0.4 0.1-0.4-0.1-0.2-0.8l1.3-4c0.2-0.6 0.7-0.6 1.6-0.7 1.7-0.2 3-0.2 7.1-0.1 5 0.1 8.4 0.4 10.4-0.1 0.3-0.1 0.3 0.2 0.1 0.8l-1.2 4c-0.3 0.6-0.8 0.6-1.6 0.6-1.3 0-2.5-0.2-3.5-0.5-0.4-0.1-0.5 0.3-0.5 0.8 0 6.5 0.1 25.5 0.2 32-0.1 0.6 0 1.1-0.8 1.1-1.4-0.1-4.1-0.2-5.5-0.1z"/>
					<path id="&lt;Compound Path&gt;" class="s9" d="m103.1 128.6v36.6c0 0.6 0 1.2-0.8 1.1-1.4-0.1-4-0.1-5.4 0-0.8 0-0.8-0.5-0.8-1.1v-15.4q0-0.3-0.3-0.3h-6.2q-0.3 0-0.3 0.3v15.4c0 0.6 0 1.2-0.8 1.1-1.4-0.1-4-0.1-5.4 0-0.8 0-0.8-0.5-0.8-1.1v-36.6c0-0.6 0-1.1 0.8-1 1.4 0.1 4 0.1 5.4-0.1 0.8 0 0.8 0.5 0.8 1.1v16.1c0 0.2 0.1 0.4 0.3 0.4h6.2q0.3 0 0.3-0.4v-16.1c0-0.6 0-1.1 0.8-1 1.4 0.1 4 0.1 5.4-0.1 0.8 0 0.8 0.5 0.8 1.1z"/>
					<path id="&lt;Compound Path&gt;" fill-rule="evenodd" class="s9" d="m131.6 164.2c-1.3 1-2.6 1.9-4.3 2.8-0.4 0.2-0.8 0-1.1-0.5-1.8-2.9-5.3-10.2-7-13.7-0.2-0.3-0.4-0.4-0.7-0.2l-1.3 0.7c-0.4 0.1-0.5 0.5-0.5 1.1v10.8c0 0.6 0 1.2-0.7 1.1-1.4-0.1-4.1-0.1-5.4 0-0.8 0-0.8-0.5-0.8-1.1v-31.4c0-1.7-0.3-2.7-1.5-3.7-0.3-0.2-0.3-0.6 0.3-0.7 1.7-0.6 2.8-1.3 5.2-2.4 0.4-0.1 0.6 0 0.9 0.4 0.8 0.9 1.2 1.9 1.5 1.9 0.5 0 2.1-2.3 4.4-2.3 2.1 0 10.3 5.3 10.3 10.5 0 5.6-3.2 9-6.3 11.6q-0.4 0.3-0.2 0.8c0.3 0.4 0.6 0.8 0.9 1.4 0.5 1 4.6 8.7 6.7 11.4 0.6 0.7 0.1 1-0.4 1.5zm-12.6-16.9c2.2-1 4.8-3.1 4.8-8.6 0-3.6-5-6.4-6.1-6.4-0.5 0-1 0.3-1 1.1v14.1c0 0.5 0.3 0.7 0.6 0.6z"/>
					<path id="&lt;Compound Path&gt;" fill-rule="evenodd" class="s9" d="m132.9 158.7v-22.9c0-2.6 8.3-8.9 10.3-8.9 2.3 0 11 5.8 11 8.2v23c0 2.5-8.4 8.9-10.4 8.9-2.3 0-10.9-5.8-10.9-8.3zm14.3 2.2v-23.4c0-1.4-5.8-5.3-6.7-5.3-0.4 0-0.7 0.3-0.7 0.9v23.4c0 1.4 5.8 5.4 6.8 5.4 0.3 0 0.6-0.4 0.6-1z"/>
					<path id="&lt;Compound Path&gt;" class="s9" d="m180.2 134.5v30.7c0 0.6 0 1.2-0.8 1.1-1.4-0.1-4-0.1-5.4 0-0.8 0-0.8-0.5-0.8-1.1v-28.7c0-2-4.3-4.4-5.6-4.4-0.5 0-0.7 0.2-0.7 0.7v32.4c0 0.6 0 1.2-0.8 1.1-1.3-0.1-4-0.1-5.3 0-0.8 0-0.8-0.5-0.8-1.1v-31.3c0-1.7-0.3-2.7-1.5-3.7-0.3-0.2-0.3-0.6 0.3-0.7 1.7-0.6 3.3-1.2 5.1-2.3 0.4-0.3 0.5-0.1 0.9 0.3 0.8 0.9 1.2 1.8 1.5 1.8 0.5 0 3.7-2.3 5-2.3 1.5 0 8.9 4.7 8.9 7.5z"/>
					<path id="&lt;Compound Path&gt;" class="s9" d="m187.2 166.2c-0.4 0-0.7-0.3-0.7-0.6v-33.3c0-0.3 0.1-0.7 0.3-1l4.5-3.5c0.3-0.2 0.6-0.5 1-0.4 1 0.1 4.9 0.4 8.5 0.4 0.7 0 2.1-0.1 2.4-0.4 0.4-0.2 0.4 0.1 0.2 0.8-0.4 1.1-0.7 2.5-1 3.7-0.3 0.7-1.5 1.4-2.8 1.4-1.2 0-3.3 0.1-5.5-0.7-0.3-0.2-0.6 0-0.6 0.1v11.4c0 0.5 0.2 0.6 0.9 0.6 1.1 0 3.9-0.2 6.6-0.7 0.3 0 0.5 0.2 0.4 0.6l-1.3 4.2c-0.1 0.2-0.3 0.4-0.6 0.4-1.3 0-4.3-0.6-5.6-0.6-0.2 0-0.4 0.1-0.4 0.4 0 1.7-0.1 8.2-0.2 9.8 0 0.9-0.2 2.3 0.8 2.3 2.5 0 7-0.2 9.6-0.6 0.4-0.1 0.6 0.1 0.4 0.6-0.7 1.3-1.4 3.3-1.8 4.8-0.2 0.4-0.3 0.4-0.6 0.4-2.4 0-11.7-0.2-14.5-0.1z"/>
					<path id="&lt;Compound Path&gt;" fill-rule="evenodd" class="s9" d="m216.9 153.8v-13.4c0-1.5 4.9-5.2 6.1-5.2 1.3 0 6.4 3.4 6.4 4.8v13.4c0 1.5-4.9 5.2-6.1 5.2-1.3 0-6.4-3.4-6.4-4.8zm8.4 1.3v-13.7c0-0.8-3.4-3.1-3.9-3.1-0.3 0-0.4 0.2-0.4 0.5v13.7c0 0.8 3.3 3.1 3.9 3.1 0.3 0 0.4-0.2 0.4-0.5z"/>
					<path id="&lt;Compound Path&gt;" class="s9" d="m233.1 158.1c-0.2 0-0.4-0.1-0.4-0.3v-19.4c0-0.2 0.1-0.5 0.2-0.6l2.6-2c0.2-0.2 0.3-0.3 0.6-0.3 0.6 0.1 2.9 0.2 5 0.2 0.4 0 1.2 0 1.4-0.2 0.2-0.1 0.2 0.1 0 0.5-0.2 0.6-0.3 1.5-0.5 2.1-0.2 0.4-0.9 0.9-1.7 0.9-0.6 0-1.9 0-3.2-0.5-0.1 0-0.3 0-0.3 0.1v6.6c0 0.3 0.1 0.4 0.5 0.4 0.7 0 2.3-0.1 3.9-0.4 0.2 0 0.3 0.1 0.2 0.3l-0.8 2.5c0 0.1-0.1 0.2-0.3 0.2-0.7 0-2.5-0.3-3.3-0.3-0.1 0-0.2 0-0.2 0.2 0 1 0 8.5-0.1 9.4 0 0.5-0.2 0.6-0.8 0.6z"/>
					<path id="&lt;Compound Path&gt;" class="s9" d="m253.5 158.1c-0.5 0.1-0.5-0.2-0.5-0.6 0-4.1-0.1-14.5-0.1-18.6 0-0.3-0.2-0.4-0.4-0.4-1.8 0-2.5 0.1-3.4 0.4-0.2 0-0.2-0.1-0.1-0.5l0.8-2.3c0.1-0.3 0.4-0.3 0.9-0.4 1-0.1 1.8-0.1 4.1-0.1 2.9 0.1 4.9 0.3 6.1 0 0.2-0.1 0.2 0.1 0.1 0.5l-0.8 2.3c-0.1 0.3-0.4 0.3-0.9 0.3-0.7 0-1.4-0.1-2-0.2-0.3-0.1-0.3 0.1-0.3 0.4 0 3.8 0 14.9 0.1 18.6-0.1 0.4 0 0.7-0.5 0.7-0.8-0.1-2.3-0.1-3.1-0.1z"/>
					<path id="&lt;Compound Path&gt;" class="s9" d="m274.7 136.2v21.4c0 0.3 0 0.6-0.5 0.6-0.8-0.1-2.3-0.1-3.1 0-0.5 0-0.5-0.3-0.5-0.6v-9q0-0.2-0.1-0.2h-3.7q-0.2 0-0.2 0.2v9c0 0.3 0 0.6-0.4 0.6-0.8-0.1-2.4-0.1-3.2 0-0.4 0-0.4-0.3-0.4-0.6v-21.4c0-0.3 0-0.6 0.4-0.6 0.8 0.1 2.4 0.1 3.2 0 0.4 0 0.4 0.3 0.4 0.6v9.4c0 0.1 0.1 0.2 0.2 0.2h3.7q0.1 0 0.1-0.2v-9.4c0-0.3 0-0.6 0.5-0.6 0.8 0.1 2.3 0.1 3.1 0 0.5 0 0.5 0.3 0.5 0.6z"/>
					<path id="&lt;Compound Path&gt;" class="s9" d="m279 158.1c-0.2 0-0.4-0.1-0.4-0.3v-19.4c0-0.2 0-0.5 0.2-0.6l2.6-2c0.2-0.2 0.3-0.3 0.5-0.3 0.7 0.1 2.9 0.2 5 0.2 0.4 0 1.2 0 1.4-0.2 0.2-0.1 0.2 0.1 0.1 0.5-0.2 0.6-0.4 1.5-0.6 2.1-0.1 0.4-0.9 0.9-1.6 0.9-0.7 0-1.9 0-3.2-0.5-0.2 0-0.4 0-0.4 0.1v6.7c0 0.2 0.1 0.3 0.6 0.3 0.6 0 2.2-0.1 3.8-0.4 0.2 0 0.3 0.1 0.3 0.3l-0.8 2.5c-0.1 0.1-0.2 0.2-0.4 0.2-0.7 0-2.5-0.3-3.2-0.3-0.2 0-0.3 0-0.3 0.2 0 1 0 4.8 0 5.7-0.1 0.6-0.2 1.4 0.4 1.4 1.5 0 4.1-0.2 5.6-0.4 0.2 0 0.4 0.1 0.2 0.4-0.4 0.7-0.8 1.9-1 2.8-0.1 0.2-0.2 0.2-0.4 0.2-1.4 0-6.8-0.1-8.4-0.1z"/>
					<path id="&lt;Compound Path&gt;" class="s9" d="m324 128.6v36.6c0 0.6 0 1.2-0.8 1.1-1.4-0.1-4-0.1-5.4 0-0.8 0-0.8-0.5-0.8-1.1v-15.4q0-0.3-0.3-0.3h-6.2q-0.3 0-0.3 0.3v15.4c0 0.6 0 1.2-0.8 1.1-1.4-0.1-4-0.1-5.4 0-0.8 0-0.8-0.5-0.8-1.1v-36.6c0-0.6 0-1.1 0.8-1 1.4 0.1 4 0.1 5.4-0.1 0.8 0 0.8 0.5 0.8 1.1v16.1c0 0.2 0.1 0.4 0.3 0.4h6.2q0.3 0 0.3-0.4v-16.1c0-0.6 0-1.1 0.8-1 1.4 0.1 4 0.1 5.4-0.1 0.8 0 0.8 0.5 0.8 1.1z"/>
					<path id="&lt;Compound Path&gt;" class="s9" d="m331.3 166.2c-0.3 0-0.7-0.3-0.7-0.6v-33.3c0-0.3 0.1-0.7 0.4-1l4.4-3.5c0.4-0.2 0.6-0.5 1-0.4 1.1 0.1 5 0.4 8.5 0.4 0.7 0 2.1-0.1 2.5-0.4 0.3-0.2 0.3 0.1 0.1 0.8-0.4 1.1-0.6 2.5-1 3.7-0.2 0.7-1.5 1.4-2.8 1.4-1.2 0-3.3 0.1-5.5-0.7-0.3-0.2-0.6 0-0.6 0.1v11.4c0 0.5 0.2 0.6 0.9 0.6 1.1 0 3.9-0.2 6.6-0.7 0.3 0 0.6 0.2 0.4 0.6l-1.3 4.2c-0.1 0.2-0.3 0.4-0.6 0.4-1.2 0-4.3-0.6-5.6-0.6-0.2 0-0.4 0.1-0.4 0.4 0 1.7 0 8.2-0.1 9.8-0.1 0.9-0.3 2.3 0.7 2.3 2.6 0 7-0.2 9.6-0.6 0.4-0.1 0.7 0.1 0.4 0.6-0.7 1.3-1.3 3.3-1.8 4.8-0.1 0.4-0.3 0.4-0.6 0.4-2.4 0-11.6-0.2-14.5-0.1z"/>
					<path id="&lt;Compound Path&gt;" fill-rule="evenodd" class="s9" d="m374.2 164.2c-1.2 1-2.6 1.9-4.3 2.8-0.4 0.2-0.7 0-1-0.5-1.9-2.9-5.4-10.2-7.1-13.7-0.1-0.3-0.4-0.4-0.7-0.2l-1.2 0.7c-0.4 0.1-0.5 0.5-0.5 1.1v10.8c0 0.6 0 1.2-0.8 1.1-1.4-0.1-4-0.1-5.4 0-0.8 0-0.8-0.5-0.8-1.1v-31.4c0-1.7-0.3-2.7-1.5-3.7-0.3-0.2-0.2-0.6 0.3-0.7 1.8-0.6 2.8-1.3 5.2-2.4 0.4-0.1 0.6 0 1 0.4 0.8 0.9 1.1 1.9 1.5 1.9 0.4 0 2-2.3 4.4-2.3 2.1 0 10.3 5.3 10.3 10.5 0 5.6-3.2 9-6.4 11.6q-0.4 0.3-0.1 0.8c0.2 0.4 0.5 0.8 0.8 1.4 0.5 1 4.7 8.7 6.8 11.4 0.5 0.7 0.1 1-0.5 1.5zm-12.5-16.9c2.1-1 4.8-3.1 4.8-8.6 0-3.6-5.1-6.4-6.2-6.4-0.5 0-0.9 0.3-0.9 1.1v14.1c0 0.5 0.2 0.7 0.5 0.6z"/>
					<path id="&lt;Compound Path&gt;" fill-rule="evenodd" class="s9" d="m398.5 134.4v30.8c0 0.6 0 1.2-0.7 1.1-1.4-0.1-4-0.1-5.4 0-0.8 0-0.8-0.5-0.8-1.1v-11q0-0.3-0.3-0.3h-5.8q-0.3 0-0.3 0.3v11c0 0.6 0 1.2-0.8 1.1-1.4-0.1-4-0.1-5.4 0-0.8 0-0.8-0.5-0.8-1.1v-31.4c0-0.6 0.1-1.4 1-1.8 0.9-0.4 9.1-5.1 10.3-5.1 1.6 0 9 4.7 9 7.5zm-7.2 15.1q0.3 0 0.3-0.4v-12.7c0-2-4.4-4.4-5.7-4.4-0.5 0-0.7 0.2-0.7 0.7v16.4c0 0.2 0.1 0.4 0.3 0.4z"/>
					<path id="&lt;Compound Path&gt;" class="s9" d="m405.7 166.2c-0.3 0-0.7-0.3-0.7-0.6v-37c0-0.6 0-1.1 0.8-1 1.4 0.1 3.8 0.1 5.1-0.1 0.8 0 0.7 0.5 0.8 1.1 0.6 6.5 0 23.8 0 30.2 0 1-0.4 2.4 0.6 2.4 2.5 0 5.6-0.4 8.2-0.7 0.3 0 0.6 0.2 0.3 0.7-0.7 1.3-1.2 3.1-1.7 4.6-0.1 0.4-0.4 0.5-0.6 0.5-2.4 0-9.9-0.2-12.8-0.1z"/>
					<path id="&lt;Compound Path&gt;" fill-rule="evenodd" class="s9" d="m424.5 166.2c-0.5 0 0-0.3 0-0.8v-31.6c0-1.7-0.4-2.7-1.5-3.7-0.3-0.2-0.3-0.6 0.3-0.7 1.7-0.6 3.3-1.3 5.2-2.4 0.4-0.2 0.5 0 0.9 0.4 0.8 0.9 1.2 1.9 1.5 1.9 0.5 0 3-2.3 6-2.3 1.5 0 8.3 4.3 8.3 8.8v22.1c0 2.5-7.6 8.3-9.7 8.3zm13.1-5.4c0.4 0 0.7-0.4 0.7-1v-22c0-3.4-5.1-5.7-6.2-5.7-0.5 0-0.7 0.3-0.7 1.1v24.6c0 2.5-1 3 0.6 3z"/>
				</g>
				<g id="&lt;Group&gt;">
					<g id="&lt;Group&gt;">
						<path id="&lt;Compound Path&gt;" class="s10" d="m66.6 165.5c-0.7 0.1-0.7-0.4-0.7-1 0-7.1-0.2-25-0.2-32 0-0.5-0.3-0.8-0.7-0.8-3.1 0.1-4.3 0.3-5.8 0.8-0.4 0.1-0.4-0.1-0.2-0.8l1.3-4c0.2-0.6 0.7-0.6 1.6-0.7 1.7-0.2 3-0.2 7.1-0.1 5 0.1 8.4 0.4 10.4-0.1 0.3-0.1 0.3 0.2 0.1 0.8l-1.2 4c-0.3 0.6-0.8 0.6-1.6 0.6-1.3 0-2.5-0.2-3.5-0.5-0.4-0.1-0.5 0.3-0.5 0.8 0 6.5 0.1 25.5 0.2 32-0.1 0.6 0 1.1-0.8 1.1-1.4-0.1-4.1-0.2-5.5-0.1z"/>
						<path id="&lt;Compound Path&gt;" class="s10" d="m103.1 127.9v36.6c0 0.6 0 1.2-0.8 1.1-1.4-0.1-4-0.1-5.4 0-0.8 0-0.8-0.5-0.8-1.1v-15.4q0-0.3-0.3-0.3h-6.2q-0.3 0-0.3 0.3v15.4c0 0.6 0 1.2-0.8 1.1-1.4-0.1-4-0.1-5.4 0-0.8 0-0.8-0.5-0.8-1.1v-36.6c0-0.6 0-1.1 0.8-1 1.4 0.1 4 0.1 5.4-0.1 0.8 0 0.8 0.5 0.8 1.1v16.1c0 0.2 0.1 0.4 0.3 0.4h6.2q0.3 0 0.3-0.4v-16.1c0-0.6 0-1.1 0.8-1 1.4 0.1 4 0.1 5.4-0.1 0.8 0 0.8 0.5 0.8 1.1z"/>
						<path id="&lt;Compound Path&gt;" fill-rule="evenodd" class="s10" d="m131.6 163.5c-1.3 1-2.6 1.9-4.3 2.8-0.4 0.2-0.8 0-1.1-0.5-1.8-2.9-5.3-10.2-7-13.7-0.2-0.3-0.4-0.4-0.7-0.2l-1.3 0.7c-0.4 0.1-0.5 0.5-0.5 1.1v10.8c0 0.6 0 1.2-0.7 1.1-1.4-0.1-4.1-0.1-5.4 0-0.8 0-0.8-0.5-0.8-1.1v-31.4c0-1.7-0.3-2.7-1.5-3.7-0.3-0.2-0.3-0.6 0.3-0.7 1.7-0.6 2.8-1.3 5.2-2.4 0.4-0.1 0.6 0 0.9 0.4 0.8 0.9 1.2 1.9 1.5 1.9 0.5 0 2.1-2.3 4.4-2.3 2.1 0 10.3 5.3 10.3 10.5 0 5.6-3.2 9-6.3 11.6q-0.4 0.3-0.2 0.8c0.3 0.4 0.6 0.8 0.9 1.4 0.5 1 4.6 8.7 6.7 11.4 0.6 0.7 0.1 1-0.4 1.5zm-12.6-16.9c2.2-1 4.8-3.1 4.8-8.6 0-3.6-5-6.4-6.1-6.4-0.5 0-1 0.3-1 1.1v14.1c0 0.5 0.3 0.7 0.6 0.6z"/>
						<path id="&lt;Compound Path&gt;" fill-rule="evenodd" class="s10" d="m132.9 158v-22.9c0-2.6 8.3-8.9 10.3-8.9 2.3 0 11 5.8 11 8.2v23c0 2.5-8.4 8.9-10.4 8.9-2.3 0-10.9-5.8-10.9-8.3zm14.3 2.2v-23.4c0-1.4-5.8-5.3-6.7-5.3-0.4 0-0.7 0.3-0.7 0.9v23.4c0 1.4 5.8 5.4 6.8 5.4 0.3 0 0.6-0.4 0.6-1z"/>
						<path id="&lt;Compound Path&gt;" class="s10" d="m180.2 133.8v30.7c0 0.6 0 1.2-0.8 1.1-1.4-0.1-4-0.1-5.4 0-0.8 0-0.8-0.5-0.8-1.1v-28.7c0-2-4.3-4.4-5.6-4.4-0.5 0-0.7 0.2-0.7 0.7v32.4c0 0.6 0 1.2-0.8 1.1-1.3-0.1-4-0.1-5.3 0-0.8 0-0.8-0.5-0.8-1.1v-31.3c0-1.7-0.3-2.7-1.5-3.7-0.3-0.2-0.3-0.6 0.3-0.7 1.7-0.6 3.3-1.2 5.1-2.3 0.4-0.3 0.5-0.1 0.9 0.3 0.8 0.9 1.2 1.8 1.5 1.8 0.5 0 3.7-2.3 5-2.3 1.5 0 8.9 4.7 8.9 7.5z"/>
						<path id="&lt;Compound Path&gt;" class="s10" d="m187.2 165.5c-0.4 0-0.7-0.3-0.7-0.6v-33.3c0-0.3 0.1-0.7 0.3-1l4.5-3.5c0.3-0.2 0.6-0.5 1-0.4 1 0.1 4.9 0.4 8.5 0.4 0.7 0 2.1-0.1 2.4-0.4 0.4-0.2 0.4 0.1 0.2 0.8-0.4 1.1-0.7 2.5-1 3.7-0.3 0.7-1.5 1.4-2.8 1.4-1.2 0-3.3 0.1-5.5-0.7-0.3-0.2-0.6 0-0.6 0.1v11.4c0 0.5 0.2 0.6 0.9 0.6 1.1 0 3.9-0.2 6.6-0.7 0.3 0 0.5 0.2 0.4 0.6l-1.3 4.2c-0.1 0.2-0.3 0.4-0.6 0.4-1.3 0-4.3-0.6-5.6-0.6-0.2 0-0.4 0.1-0.4 0.4 0 1.7-0.1 8.2-0.2 9.8 0 0.9-0.2 2.3 0.8 2.3 2.5 0 7-0.2 9.6-0.6 0.4-0.1 0.6 0.1 0.4 0.6-0.7 1.3-1.4 3.3-1.8 4.8-0.2 0.4-0.3 0.4-0.6 0.4-2.4 0-11.7-0.2-14.5-0.1z"/>
						<path id="&lt;Compound Path&gt;" fill-rule="evenodd" class="s10" d="m216.9 153.1v-13.4c0-1.5 4.9-5.2 6.1-5.2 1.3 0 6.4 3.4 6.4 4.8v13.4c0 1.5-4.9 5.2-6.1 5.2-1.3 0-6.4-3.4-6.4-4.8zm8.4 1.3v-13.7c0-0.8-3.4-3.1-3.9-3.1-0.3 0-0.4 0.2-0.4 0.5v13.7c0 0.8 3.3 3.1 3.9 3.1 0.3 0 0.4-0.2 0.4-0.5z"/>
						<path id="&lt;Compound Path&gt;" class="s10" d="m233.1 157.4c-0.2 0-0.4-0.1-0.4-0.3v-19.4c0-0.2 0.1-0.5 0.2-0.6l2.6-2c0.2-0.2 0.3-0.3 0.6-0.3 0.6 0.1 2.9 0.2 5 0.2 0.4 0 1.2 0 1.4-0.2 0.2-0.1 0.2 0.1 0 0.5-0.2 0.6-0.3 1.5-0.5 2.1-0.2 0.4-0.9 0.9-1.7 0.9-0.6 0-1.9 0-3.2-0.5-0.1 0-0.3 0-0.3 0.1v6.6c0 0.3 0.1 0.4 0.5 0.4 0.7 0 2.3-0.1 3.9-0.4 0.2 0 0.3 0.1 0.2 0.3l-0.8 2.5c0 0.1-0.1 0.2-0.3 0.2-0.7 0-2.5-0.3-3.3-0.3-0.1 0-0.2 0-0.2 0.2 0 1 0 8.5-0.1 9.4 0 0.5-0.2 0.6-0.8 0.6z"/>
						<path id="&lt;Compound Path&gt;" class="s10" d="m253.5 157.4c-0.5 0.1-0.5-0.2-0.5-0.6 0-4.1-0.1-14.5-0.1-18.6 0-0.3-0.2-0.4-0.4-0.4-1.8 0-2.5 0.1-3.4 0.4-0.2 0-0.2-0.1-0.1-0.5l0.8-2.3c0.1-0.3 0.4-0.3 0.9-0.4 1-0.1 1.8-0.1 4.1-0.1 2.9 0.1 4.9 0.3 6.1 0 0.2-0.1 0.2 0.1 0.1 0.5l-0.8 2.3c-0.1 0.4-0.4 0.4-0.9 0.4-0.7 0-1.4-0.2-2-0.3-0.3-0.1-0.3 0.1-0.3 0.4 0 3.8 0 14.9 0.1 18.6-0.1 0.4 0 0.7-0.5 0.7-0.8-0.1-2.3-0.1-3.1-0.1z"/>
						<path id="&lt;Compound Path&gt;" class="s10" d="m274.7 135.5v21.4c0 0.3 0 0.6-0.5 0.6-0.8-0.1-2.3-0.1-3.1 0-0.5 0-0.5-0.3-0.5-0.6v-9q0-0.2-0.1-0.2h-3.7q-0.2 0-0.2 0.2v9c0 0.3 0 0.6-0.4 0.6-0.8-0.1-2.4-0.1-3.2 0-0.4 0-0.4-0.3-0.4-0.6v-21.4c0-0.3 0-0.6 0.4-0.6 0.8 0.1 2.4 0.1 3.2 0 0.4 0 0.4 0.3 0.4 0.6v9.4c0 0.1 0.1 0.2 0.2 0.2h3.7q0.1 0 0.1-0.2v-9.4c0-0.3 0-0.6 0.5-0.6 0.8 0.1 2.3 0.1 3.1 0 0.5 0 0.5 0.3 0.5 0.6z"/>
						<path id="&lt;Compound Path&gt;" class="s10" d="m279 157.4c-0.2 0-0.4-0.1-0.4-0.3v-19.4c0-0.2 0-0.5 0.2-0.6l2.6-2c0.2-0.2 0.3-0.3 0.5-0.3 0.7 0.1 2.9 0.2 5 0.2 0.4 0 1.2 0 1.4-0.2 0.2-0.1 0.2 0.1 0.1 0.5-0.2 0.6-0.4 1.5-0.6 2.1-0.1 0.4-0.9 0.9-1.6 0.9-0.7 0-1.9 0-3.2-0.5-0.2 0-0.4 0-0.4 0.1v6.7c0 0.2 0.1 0.3 0.6 0.3 0.6 0 2.2-0.1 3.8-0.4 0.2 0 0.3 0.1 0.3 0.3l-0.8 2.5c-0.1 0.1-0.2 0.2-0.4 0.2-0.7 0-2.5-0.3-3.2-0.3-0.2 0-0.3 0-0.3 0.2 0 1 0 4.8 0 5.7-0.1 0.6-0.2 1.4 0.4 1.4 1.5 0 4.1-0.2 5.6-0.4 0.2 0 0.4 0.1 0.2 0.4-0.4 0.7-0.8 1.9-1 2.8-0.1 0.2-0.2 0.2-0.4 0.2-1.4 0-6.8-0.1-8.4-0.1z"/>
						<path id="&lt;Compound Path&gt;" class="s10" d="m324 127.9v36.6c0 0.6 0 1.2-0.8 1.1-1.4-0.1-4-0.1-5.4 0-0.8 0-0.8-0.5-0.8-1.1v-15.4q0-0.3-0.3-0.3h-6.2q-0.3 0-0.3 0.3v15.4c0 0.6 0 1.2-0.8 1.1-1.4-0.1-4-0.1-5.4 0-0.8 0-0.8-0.5-0.8-1.1v-36.6c0-0.6 0-1.1 0.8-1 1.4 0.1 4 0.1 5.4-0.1 0.8 0 0.8 0.5 0.8 1.1v16.1c0 0.2 0.1 0.4 0.3 0.4h6.2q0.3 0 0.3-0.4v-16.1c0-0.6 0-1.1 0.8-1 1.4 0.1 4 0.1 5.4-0.1 0.8 0 0.8 0.5 0.8 1.1z"/>
						<path id="&lt;Compound Path&gt;" class="s10" d="m331.3 165.5c-0.3 0-0.7-0.3-0.7-0.6v-33.3c0-0.3 0.1-0.7 0.4-1l4.4-3.5c0.4-0.2 0.6-0.5 1-0.4 1.1 0.1 5 0.4 8.5 0.4 0.7 0 2.1-0.1 2.5-0.4 0.3-0.2 0.3 0.1 0.1 0.8-0.4 1.1-0.6 2.5-1 3.7-0.2 0.7-1.5 1.4-2.8 1.4-1.2 0-3.3 0.1-5.5-0.7-0.3-0.2-0.6 0-0.6 0.1v11.4c0 0.5 0.2 0.6 0.9 0.6 1.1 0 3.9-0.2 6.6-0.7 0.3 0 0.6 0.2 0.4 0.6l-1.3 4.2c-0.1 0.2-0.3 0.4-0.6 0.4-1.2 0-4.3-0.6-5.6-0.6-0.2 0-0.4 0.1-0.4 0.4 0 1.7 0 8.2-0.1 9.8-0.1 0.9-0.3 2.3 0.7 2.3 2.6 0 7-0.2 9.6-0.6 0.4-0.1 0.7 0.1 0.4 0.6-0.7 1.3-1.3 3.3-1.8 4.8-0.1 0.4-0.3 0.4-0.6 0.4-2.4 0-11.6-0.2-14.5-0.1z"/>
						<path id="&lt;Compound Path&gt;" fill-rule="evenodd" class="s10" d="m374.2 163.5c-1.2 1-2.6 1.9-4.3 2.8-0.4 0.2-0.7 0-1-0.5-1.9-2.9-5.4-10.2-7.1-13.7-0.1-0.3-0.4-0.4-0.7-0.2l-1.2 0.7c-0.4 0.1-0.5 0.5-0.5 1.1v10.8c0 0.6 0 1.2-0.8 1.1-1.4-0.1-4-0.1-5.4 0-0.8 0-0.8-0.5-0.8-1.1v-31.4c0-1.7-0.3-2.7-1.5-3.7-0.3-0.2-0.2-0.6 0.3-0.7 1.8-0.6 2.8-1.3 5.2-2.4 0.4-0.1 0.6 0 1 0.4 0.8 0.9 1.1 1.9 1.5 1.9 0.4 0 2-2.3 4.4-2.3 2.1 0 10.3 5.3 10.3 10.5 0 5.6-3.2 9-6.4 11.6q-0.4 0.3-0.1 0.8c0.2 0.4 0.5 0.8 0.8 1.4 0.5 1 4.7 8.7 6.8 11.4 0.5 0.7 0.1 1-0.5 1.5zm-12.5-16.9c2.1-1 4.8-3.1 4.8-8.6 0-3.6-5.1-6.4-6.2-6.4-0.5 0-0.9 0.3-0.9 1.1v14.1c0 0.5 0.2 0.7 0.5 0.6z"/>
						<path id="&lt;Compound Path&gt;" fill-rule="evenodd" class="s10" d="m398.5 133.7v30.8c0 0.6 0 1.2-0.7 1.1-1.4-0.1-4-0.1-5.4 0-0.8 0-0.8-0.5-0.8-1.1v-11q0-0.3-0.3-0.3h-5.8q-0.3 0-0.3 0.3v11c0 0.6 0 1.2-0.8 1.1-1.4-0.1-4-0.1-5.4 0-0.8 0-0.8-0.5-0.8-1.1v-31.4c0-0.6 0.1-1.4 1-1.8 0.9-0.4 9.1-5.1 10.3-5.1 1.6 0 9 4.7 9 7.5zm-7.2 15.1q0.3 0 0.3-0.4v-12.7c0-2-4.4-4.4-5.7-4.4-0.5 0-0.7 0.2-0.7 0.7v16.4c0 0.2 0.1 0.4 0.3 0.4z"/>
						<path id="&lt;Compound Path&gt;" class="s10" d="m405.7 165.5c-0.3 0-0.7-0.3-0.7-0.6v-37c0-0.6 0-1.1 0.8-1 1.4 0.1 3.8 0.1 5.1-0.1 0.8 0 0.7 0.5 0.8 1.1 0.6 6.5 0 23.8 0 30.2 0 1-0.4 2.4 0.6 2.4 2.5 0 5.6-0.4 8.2-0.7 0.3 0 0.6 0.2 0.3 0.7-0.7 1.3-1.2 3.1-1.7 4.6-0.1 0.4-0.4 0.5-0.6 0.5-2.4 0-9.9-0.2-12.8-0.1z"/>
						<path id="&lt;Compound Path&gt;" fill-rule="evenodd" class="s10" d="m424.5 165.5c-0.5 0 0-0.3 0-0.8v-31.6c0-1.7-0.4-2.7-1.5-3.7-0.3-0.2-0.3-0.6 0.3-0.7 1.7-0.6 3.3-1.3 5.2-2.4 0.4-0.2 0.5 0 0.9 0.4 0.8 0.9 1.2 1.9 1.5 1.9 0.5 0 3-2.3 6-2.3 1.5 0 8.3 4.3 8.3 8.8v22.1c0 2.5-7.6 8.3-9.7 8.3zm13.1-5.4c0.4 0 0.7-0.4 0.7-1v-22c0-3.4-5.1-5.7-6.2-5.7-0.5 0-0.7 0.3-0.7 1.1v24.6c0 2.5-1 3 0.6 3z"/>
					</g>
				</g>
			</g>
			<g id="&lt;Group&gt;" style="opacity: .1">
				<path id="&lt;Path&gt;" class="s9" d="m72.7 132.5c0 4.7 0 15.9 0.1 24.2h-2.8l-4.2-2.5c0-7.9-0.1-17.1-0.1-21.7 0-0.5-0.3-0.8-0.7-0.8-3.1 0.1-4.3 0.3-5.8 0.8-0.4 0.1-0.4-0.1-0.2-0.8l1.3-4c0.2-0.6 0.7-0.6 1.6-0.7 1.7-0.2 3-0.2 7.1-0.1 5 0.1 8.4 0.4 10.4-0.1 0.3-0.1 0.3 0.2 0.1 0.8l-1.2 4c-0.3 0.6-0.8 0.6-1.6 0.6-1.3 0-2.5-0.2-3.5-0.5-0.4-0.1-0.5 0.3-0.5 0.8z"/>
				<path id="&lt;Path&gt;" class="s9" d="m103.1 127.9v28.7h-7v-7.5q0-0.3-0.3-0.3h-6.2q-0.3 0-0.3 0.3v7.5h-7v-28.7c0-0.6 0-1.1 0.8-1 1.4 0.1 4 0.1 5.4-0.1 0.8 0 0.8 0.5 0.8 1.1v16.1c0 0.2 0.1 0.4 0.3 0.4h6.2q0.3 0 0.3-0.4v-16.1c0-0.6 0-1.1 0.8-1 1.4 0.1 4 0.1 5.4-0.1 0.8 0 0.8 0.5 0.8 1.1z"/>
				<path id="&lt;Compound Path&gt;" fill-rule="evenodd" class="s9" d="m125.3 150.6c0.3 0.6 1.7 3.3 3.3 6h-7.2c-0.9-1.7-1.6-3.3-2.2-4.5-0.2-0.3-0.4-0.4-0.7-0.2l-1.3 0.7c-0.4 0.1-0.5 0.5-0.5 1.1v2.9h-6.9v-23.5c0-1.7-0.3-2.7-1.5-3.7-0.3-0.2-0.3-0.6 0.3-0.7 1.7-0.6 2.8-1.3 5.2-2.4 0.4-0.1 0.6 0 0.9 0.4 0.8 0.9 1.2 1.9 1.5 1.9 0.5 0 2.1-2.3 4.4-2.3 2.1 0 10.3 5.3 10.3 10.5 0 5.6-3.2 9-6.3 11.6q-0.4 0.3-0.2 0.8c0.3 0.4 0.6 0.8 0.9 1.4zm-1.5-12.6c0-3.6-5-6.4-6.1-6.4-0.5 0-1 0.3-1 1.1v14.1c0 0.5 0.3 0.7 0.6 0.6l1.7-0.8c2.2-1 4.8-3.1 4.8-8.6z"/>
				<path id="&lt;Path&gt;" class="s9" d="m154.2 134.4v22.1h-7v-19.7c0-1.4-5.8-5.3-6.7-5.3-0.4 0-0.7 0.3-0.7 0.9v23.4q0 0.3 0.3 0.8h-7.2v-21.5c0-2.6 8.3-8.9 10.3-8.9 2.3 0 11 5.8 11 8.2z"/>
				<path id="&lt;Path&gt;" class="s9" d="m180.2 133.8v22.7h-7v-20.7c0-2-4.3-4.4-5.6-4.4-0.5 0-0.7 0.2-0.7 0.7v24.4h-6.9v-23.3c0-1.7-0.3-2.7-1.5-3.7-0.3-0.2-0.3-0.6 0.3-0.7 1.7-0.6 3.3-1.2 5.1-2.3 0.4-0.3 0.5-0.1 0.9 0.3 0.8 0.9 1.2 1.8 1.5 1.8 0.5 0 3.7-2.3 5-2.3 1.5 0 8.9 4.7 8.9 7.5z"/>
				<path id="&lt;Path&gt;" class="s9" d="m193.5 148.3c0 1.4 0 5.6-0.1 8.2h-6.9v-24.9c0-0.3 0.1-0.7 0.3-1l4.5-3.5c0.3-0.2 0.6-0.5 1-0.4 1 0.1 4.9 0.4 8.5 0.4 0.7 0 2.1-0.1 2.4-0.4 0.4-0.2 0.4 0.1 0.2 0.8-0.4 1.1-0.7 2.5-1 3.7-0.3 0.7-1.5 1.4-2.8 1.4-1.2 0-3.3 0.1-5.5-0.7-0.3-0.2-0.6 0-0.6 0.1v11.4c0 0.5 0.2 0.6 0.9 0.6 1.1 0 3.9-0.2 6.6-0.7 0.3 0 0.5 0.2 0.4 0.6l-1.3 4.2c-0.1 0.2-0.3 0.4-0.6 0.4-1.3 0-4.3-0.6-5.6-0.6-0.2 0-0.4 0.1-0.4 0.4z"/>
				<path id="&lt;Path&gt;" class="s9" d="m220.2 156.4h5.9c-1.2 0.9-2.3 1.5-2.8 1.5-0.6 0-1.8-0.6-3.1-1.5z"/>
				<path id="&lt;Compound Path&gt;" fill-rule="evenodd" class="s9" d="m226.1 156.4h-5.9c-1.7-1.1-3.3-2.5-3.3-3.3v-13.4c0-1.5 4.9-5.2 6.1-5.2 1.3 0 6.4 3.4 6.4 4.8v13.4c0 0.9-1.7 2.5-3.3 3.7zm-0.8-15.7c0-0.8-3.4-3.1-3.9-3.1-0.3 0-0.4 0.2-0.4 0.5v13.7c0 0.8 3.3 3.1 3.9 3.1 0.3 0 0.4-0.2 0.4-0.5z"/>
				<path id="&lt;Path&gt;" class="s9" d="m232.7 156.4h4q0 0.3 0 0.4c0 0.5-0.2 0.6-0.8 0.6h-2.8c-0.2 0-0.4-0.1-0.4-0.3z"/>
				<path id="&lt;Path&gt;" class="s9" d="m236.8 147.4c0 0.9 0 7.2-0.1 9h-4v-18.7c0-0.2 0.1-0.5 0.2-0.6l2.6-2c0.2-0.2 0.3-0.3 0.6-0.3 0.6 0.1 2.9 0.2 5 0.2 0.4 0 1.2 0 1.4-0.2 0.2-0.1 0.2 0.1 0 0.5-0.2 0.6-0.3 1.5-0.5 2.1-0.2 0.4-0.9 0.9-1.7 0.9-0.6 0-1.9 0-3.2-0.5-0.1 0-0.3 0-0.3 0.1v6.6c0 0.3 0.1 0.4 0.5 0.4 0.7 0 2.3-0.1 3.9-0.4 0.2 0 0.3 0.1 0.2 0.3l-0.8 2.5c0 0.1-0.1 0.2-0.3 0.2-0.7 0-2.5-0.3-3.3-0.3-0.1 0-0.2 0-0.2 0.2z"/>
				<path id="&lt;Path&gt;" class="s9" d="m253 156.4h4.1q0 0.2 0 0.4c-0.1 0.4 0 0.7-0.5 0.7-0.8-0.1-2.3-0.1-3.1-0.1-0.5 0.1-0.5-0.2-0.5-0.6q0-0.2 0-0.4z"/>
				<path id="&lt;Path&gt;" class="s9" d="m257 138.2c0 3.7 0 14 0.1 18.2h-4.1c0-4.4-0.1-14.3-0.1-18.2 0-0.3-0.2-0.4-0.4-0.4-1.8 0-2.5 0.1-3.4 0.4-0.2 0-0.2-0.1-0.1-0.5l0.8-2.3c0.1-0.3 0.4-0.3 0.9-0.4 1-0.1 1.8-0.1 4.1-0.1 2.9 0.1 4.9 0.3 6.1 0 0.2-0.1 0.2 0.1 0.1 0.5l-0.8 2.3c-0.1 0.4-0.4 0.4-0.9 0.4-0.7 0-1.4-0.2-2-0.3-0.3-0.1-0.3 0.1-0.3 0.4z"/>
				<path id="&lt;Path&gt;" class="s9" d="m262.6 156.4l4-0.1v0.6c0 0.3 0 0.6-0.4 0.6-0.8-0.1-2.4-0.1-3.2 0-0.4 0-0.4-0.3-0.4-0.6z"/>
				<path id="&lt;Path&gt;" class="s9" d="m270.6 156.3h4.1v0.6c0 0.3 0 0.6-0.5 0.6-0.8-0.1-2.3-0.1-3.1 0-0.5 0-0.5-0.3-0.5-0.6z"/>
				<path id="&lt;Path&gt;" class="s9" d="m274.7 135.5v20.8h-4.1v-8.4q0-0.2-0.1-0.2h-3.7q-0.2 0-0.2 0.2v8.4l-4 0.1v-20.9c0-0.3 0-0.6 0.4-0.6 0.8 0.1 2.4 0.1 3.2 0 0.4 0 0.4 0.3 0.4 0.6v9.4c0 0.1 0.1 0.2 0.2 0.2h3.7q0.1 0 0.1-0.2v-9.4c0-0.3 0-0.6 0.5-0.6 0.8 0.1 2.3 0.1 3.1 0 0.5 0 0.5 0.3 0.5 0.6z"/>
				<path id="&lt;Path&gt;" class="s9" d="m278.6 156.3h9.5q-0.2 0.5-0.3 1c-0.1 0.2-0.2 0.2-0.4 0.2-1.4 0-6.8-0.1-8.4-0.1-0.2 0-0.4-0.1-0.4-0.3z"/>
				<path id="&lt;Path&gt;" class="s9" d="m288.8 154.5c-0.3 0.5-0.5 1.2-0.7 1.8h-9.5v-18.6c0-0.2 0-0.5 0.2-0.6l2.6-2c0.2-0.2 0.3-0.3 0.5-0.3 0.7 0.1 2.9 0.2 5 0.2 0.4 0 1.2 0 1.4-0.2 0.2-0.1 0.2 0.1 0.1 0.5-0.2 0.6-0.4 1.5-0.6 2.1-0.1 0.4-0.9 0.9-1.6 0.9-0.7 0-1.9 0-3.2-0.5-0.2 0-0.4 0-0.4 0.1v6.7c0 0.2 0.1 0.3 0.6 0.3 0.6 0 2.2-0.1 3.8-0.4 0.2 0 0.3 0.1 0.3 0.3l-0.8 2.5c-0.1 0.1-0.2 0.2-0.4 0.2-0.7 0-2.5-0.3-3.2-0.3-0.2 0-0.3 0-0.3 0.2 0 1 0 4.8 0 5.7-0.1 0.6-0.2 1.4 0.4 1.4 1.5 0 4.1-0.2 5.6-0.4 0.2 0 0.4 0.1 0.2 0.4z"/>
				<path id="&lt;Path&gt;" class="s9" d="m324 127.9v28.4h-7v-7.2q0-0.3-0.3-0.3h-6.2q-0.3 0-0.3 0.3v7.2h-7v-28.4c0-0.6 0-1.1 0.8-1 1.4 0.1 4 0.1 5.4-0.1 0.8 0 0.8 0.5 0.8 1.1v16.1c0 0.2 0.1 0.4 0.3 0.4h6.2q0.3 0 0.3-0.4v-16.1c0-0.6 0-1.1 0.8-1 1.4 0.1 4 0.1 5.4-0.1 0.8 0 0.8 0.5 0.8 1.1z"/>
				<path id="&lt;Path&gt;" class="s9" d="m337.6 148.3c0 1.3 0 5.4-0.1 7.9h-6.9v-24.6c0-0.3 0.1-0.7 0.4-1l4.4-3.5c0.4-0.2 0.6-0.5 1-0.4 1.1 0.1 5 0.4 8.5 0.4 0.7 0 2.1-0.1 2.5-0.4 0.3-0.2 0.3 0.1 0.1 0.8-0.4 1.1-0.6 2.5-1 3.7-0.2 0.7-1.5 1.4-2.8 1.4-1.2 0-3.3 0.1-5.5-0.7-0.3-0.2-0.6 0-0.6 0.1v11.4c0 0.5 0.2 0.6 0.9 0.6 1.1 0 3.9-0.2 6.6-0.7 0.3 0 0.6 0.2 0.4 0.6l-1.3 4.2c-0.1 0.2-0.3 0.4-0.6 0.4-1.2 0-4.3-0.6-5.6-0.6-0.2 0-0.4 0.1-0.4 0.4z"/>
				<path id="&lt;Compound Path&gt;" fill-rule="evenodd" class="s9" d="m367.9 150.6c0.3 0.5 1.6 3 3.1 5.6h-7.2c-0.7-1.6-1.4-3-2-4.1-0.1-0.3-0.4-0.4-0.7-0.2l-1.2 0.7c-0.4 0.1-0.5 0.5-0.5 1.1v2.5h-7v-23.1c0-1.7-0.3-2.7-1.5-3.7-0.3-0.2-0.2-0.6 0.3-0.7 1.8-0.6 2.8-1.3 5.2-2.4 0.4-0.1 0.6 0 1 0.4 0.8 0.9 1.1 1.9 1.5 1.9 0.4 0 2-2.3 4.4-2.3 2.1 0 10.3 5.3 10.3 10.5 0 5.6-3.2 9-6.4 11.6q-0.4 0.3-0.1 0.8c0.2 0.4 0.5 0.8 0.8 1.4zm-1.4-12.6c0-3.6-5.1-6.4-6.2-6.4-0.5 0-0.9 0.3-0.9 1.1v14.1c0 0.5 0.2 0.7 0.5 0.6l1.8-0.8c2.1-1 4.8-3.1 4.8-8.6z"/>
				<path id="&lt;Compound Path&gt;" fill-rule="evenodd" class="s9" d="m398.5 133.7v22.4h-6.9v-2.6q0-0.3-0.3-0.3h-5.8q-0.3 0-0.3 0.3v2.7h-7v-23.1c0-0.6 0.1-1.4 1-1.8 0.9-0.4 9.1-5.1 10.3-5.1 1.6 0 9 4.7 9 7.5zm-6.9 2c0-2-4.4-4.4-5.7-4.4-0.5 0-0.7 0.2-0.7 0.7v16.4c0 0.2 0.1 0.4 0.3 0.4h5.8q0.3 0 0.3-0.4z"/>
				<path id="&lt;Path&gt;" class="s9" d="m411.7 156.1h-6.7v-28.2c0-0.6 0-1.1 0.8-1 1.4 0.1 3.8 0.1 5.1-0.1 0.8 0 0.7 0.5 0.8 1.1 0.6 5.9 0.1 20.7 0 28.2z"/>
				<path id="&lt;Path&gt;" class="s9" d="m429.1 156.1h-4.6v-23c0-1.7-0.4-2.7-1.5-3.7-0.3-0.2-0.3-0.6 0.3-0.7 1.7-0.6 3.3-1.3 5.2-2.4 0.4-0.2 0.5 0 0.9 0.4 0.8 0.9 1.2 1.9 1.5 1.9 0.5 0 3-2.3 6-2.3 1.5 0 8.3 4.3 8.3 8.8v11.6l-6.9 4.1v-13.7c0-3.4-5.1-5.7-6.2-5.7-0.5 0-0.7 0.3-0.7 1.1v22.3z"/>
			</g>
			<g id="&lt;Group&gt;" style="opacity: .4">
				<g id="&lt;Group&gt;">
					<path id="&lt;Compound Path&gt;" fill-rule="evenodd" class="s9" d="m79.8 126.8c0.1 0.1 0 0.4-0.1 0.9l-1.3 4c-0.3 0.7-0.9 0.7-1.7 0.7-1.3 0-2.3-0.3-3.3-0.5h-0.2q-0.1 0-0.1 0-0.2 0-0.2 0.1c-0.1 0.1-0.1 0.3-0.1 0.5 0 6.7 0.1 25.6 0.2 32q0 0.1 0 0.2c-0.1 0.5-0.1 1-0.8 1q-0.1 0-0.1 0c-0.9-0.1-2.2-0.1-3.5-0.1-0.8 0-1.5 0-1.9 0.1q-0.1 0-0.2 0-0.5 0-0.7-0.4c-0.1-0.3-0.1-0.5-0.1-0.8 0-3.6 0-9.9-0.1-16 0-6.2 0-12.5 0-16 0-0.4-0.2-0.6-0.6-0.6-3.1 0-4.2 0.3-5.8 0.7q-0.1 0-0.1 0c-0.2 0-0.2 0-0.3-0.1-0.1-0.1 0-0.4 0.1-0.9l1.3-3.9c0.2-0.6 0.7-0.7 1.4-0.8h0.3c0.9-0.1 1.7-0.2 3-0.2 0.7 0 1.6 0 2.7 0l1.4 0.1q2.3 0 4.2 0.1 1.8 0 3.2 0c1.3 0 2.2 0 2.9-0.2q0.1 0 0.2 0c0.1 0 0.2 0 0.3 0.1zm-0.4 0q-1.2 0.3-3 0.3c-1.9 0-4.3-0.2-7.4-0.2-1.8 0-3.1 0-4.1 0-1.3 0-2.1 0-3 0.1-0.9 0.1-1.4 0.1-1.6 0.7l-1.3 4c-0.1 0.5-0.2 0.8 0.1 0.8q0 0 0.1 0c1.5-0.5 2.7-0.7 5.8-0.8 0.4 0 0.7 0.3 0.7 0.8 0 7 0.2 24.9 0.2 32 0 0.5 0 1 0.6 1q0.1 0 0.1 0c0.6 0 1.3 0 2 0 1.3 0 2.6 0 3.5 0.1q0 0 0.1 0c0.7 0 0.6-0.6 0.7-1.1-0.1-6.5-0.2-25.5-0.2-32 0-0.4 0-0.8 0.4-0.8q0.1 0 0.1 0c1 0.3 2.2 0.5 3.5 0.5 0.8 0 1.3 0 1.6-0.6l1.2-4c0.2-0.5 0.2-0.8 0-0.8q-0.1 0-0.1 0z"/>
				</g>
				<g id="&lt;Group&gt;">
					<path id="&lt;Compound Path&gt;" fill-rule="evenodd" class="s9" d="m103.2 127.9v36.6c0 0.6 0 1.3-0.8 1.3q0 0-0.1 0c-0.9-0.1-2.2-0.2-3.4-0.2-0.8 0-1.5 0.1-2 0.1q0 0-0.1 0-0.5 0-0.7-0.4c-0.1-0.2-0.1-0.5-0.1-0.8v-15.4c0-0.1 0-0.2-0.2-0.2h-6.2c-0.2 0-0.2 0.1-0.2 0.2v15.4c0 0.6 0 1.3-0.8 1.3q-0.1 0-0.1 0c-0.9-0.1-2.2-0.2-3.4-0.2-0.8 0-1.5 0.1-2 0.1q-0.1 0-0.1 0-0.6 0-0.7-0.4c-0.1-0.2-0.1-0.5-0.1-0.8v-36.6c0-0.5 0-1.1 0.8-1.1q0 0 0.1 0c0.5 0 1.2 0 2 0 1.2 0 2.5 0 3.4-0.1q0 0 0.1 0 0.5 0 0.7 0.4c0.1 0.3 0.1 0.5 0.1 0.8v16.1c0 0.1 0.1 0.2 0.2 0.2h6.2c0.2 0 0.2 0 0.2-0.2v-16.1c0-0.5 0-1.1 0.8-1.1q0.1 0 0.1 0c0.5 0 1.2 0 2 0 1.2 0 2.5 0 3.4-0.1q0.1 0 0.1 0c0.8 0 0.8 0.7 0.8 1.2zm-0.9-1.1c-0.8 0.1-2.2 0.2-3.4 0.2-0.8 0-1.5-0.1-2-0.1q0 0-0.1 0c-0.7 0-0.7 0.5-0.7 1v16.1q0 0.4-0.3 0.4h-6.2c-0.2 0-0.3-0.2-0.3-0.4v-16.1c0-0.5 0-1.1-0.7-1.1q-0.1 0-0.1 0c-0.9 0.1-2.2 0.2-3.4 0.2-0.8 0-1.5-0.1-2-0.1q-0.1 0-0.1 0c-0.7 0-0.7 0.5-0.7 1v36.6c0 0.6 0 1.1 0.7 1.1q0 0 0.1 0c0.5-0.1 1.2-0.1 2-0.1 1.2 0 2.5 0.1 3.4 0.1q0 0 0.1 0c0.7 0 0.7-0.5 0.7-1.1v-15.4q0-0.3 0.3-0.3h6.2q0.3 0 0.3 0.3v15.4c0 0.6 0 1.1 0.7 1.1q0.1 0 0.1 0c0.5-0.1 1.2-0.1 2-0.1 1.2 0 2.6 0.1 3.4 0.1q0.1 0 0.1 0c0.7 0 0.7-0.5 0.7-1.1v-36.6c0-0.5 0-1.1-0.7-1.1q0 0-0.1 0z"/>
				</g>
				<g id="&lt;Group&gt;">
					<path id="&lt;Compound Path&gt;" fill-rule="evenodd" class="s9" d="m114.8 126.6c0.4 0.4 0.6 0.8 0.9 1.1 0.2 0.4 0.4 0.7 0.5 0.7 0.1 0 0.4-0.2 0.6-0.4 0.8-0.7 2.1-1.8 3.8-1.8 2.2 0 10.5 5.4 10.5 10.6 0 5.8-3.4 9.3-6.4 11.7q-0.3 0.3-0.1 0.6c0.2 0.4 0.5 0.9 0.8 1.4 0.8 1.7 4.8 8.9 6.7 11.4 0.7 0.8 0.1 1.2-0.4 1.7-1.4 1.1-2.7 1.9-4.3 2.8q-0.2 0.1-0.4 0.1-0.5 0-0.9-0.6c-1.6-2.5-4.3-8.1-6.1-11.8q-0.5-1.1-0.9-1.9-0.2-0.3-0.4-0.3 0 0-0.1 0.1l-1.3 0.7c-0.3 0.1-0.4 0.4-0.4 1v10.8c0 0.6 0 1.3-0.8 1.3q-0.1 0-0.2 0c-0.8-0.1-2.2-0.2-3.4-0.2-0.8 0-1.4 0.1-1.9 0.1q-0.1 0-0.2 0-0.5 0-0.7-0.4c0-0.2 0-0.5 0-0.8v-31.4c0-1.8-0.4-2.7-1.5-3.6q-0.3-0.2-0.2-0.5c0-0.1 0.1-0.3 0.5-0.5 1.1-0.3 1.9-0.7 2.9-1.2 0.6-0.3 1.4-0.7 2.4-1.1q0.2-0.1 0.3-0.1c0.3 0 0.5 0.2 0.7 0.5zm-1-0.3c-2.4 1.1-3.5 1.8-5.2 2.4-0.6 0.1-0.6 0.5-0.3 0.7 1.2 1 1.5 2 1.5 3.7v31.4c0 0.6 0 1.1 0.6 1.1q0.1 0 0.2 0c0.5-0.1 1.2-0.1 1.9-0.1 1.3 0 2.6 0.1 3.5 0.1q0 0 0.1 0c0.6 0 0.6-0.5 0.6-1.1v-10.8c0-0.6 0.1-1 0.5-1.1l1.3-0.7q0.1-0.1 0.2-0.1 0.3 0 0.5 0.3c1.7 3.5 5.2 10.8 7 13.7 0.2 0.4 0.5 0.6 0.8 0.6q0.1 0 0.3-0.1c1.7-0.9 3-1.8 4.3-2.8 0.5-0.5 1-0.8 0.4-1.5-2.1-2.7-6.2-10.4-6.7-11.4-0.3-0.6-0.6-1-0.9-1.4q-0.2-0.5 0.2-0.8c3.1-2.6 6.3-6 6.3-11.6 0-5.2-8.2-10.5-10.3-10.5-2.3 0-3.9 2.3-4.4 2.3-0.3 0-0.7-1-1.5-1.9-0.2-0.3-0.4-0.4-0.6-0.4q-0.1 0-0.3 0zm2.9 20.5v-14.1c0-0.8 0.5-1.1 1-1.1 1.1 0 6.1 2.8 6.1 6.4 0 5.5-2.6 7.6-4.8 8.6l-1.7 0.8q-0.1 0-0.2 0c-0.2 0-0.4-0.2-0.4-0.6zm0.5 0.5l1.8-0.9c3.1-1.4 4.7-4.2 4.7-8.4 0-3.6-5.1-6.3-6-6.3-0.5 0-0.8 0.4-0.8 1v14.1c0 0.3 0.1 0.5 0.2 0.5q0.1 0 0.1 0z"/>
				</g>
				<g id="&lt;Group&gt;">
					<path id="&lt;Compound Path&gt;" fill-rule="evenodd" class="s9" d="m154.3 134.4v23c0 1.7-3.4 4.7-4.5 5.5-2 1.7-4.8 3.5-6 3.5-2.3 0-11.1-5.8-11.1-8.4v-22.9c0-1.8 3.4-4.7 4.5-5.5 2.1-1.7 4.8-3.6 6-3.6 2.3 0 11.1 5.9 11.1 8.4zm-21.4 0.7v22.9c0 2.5 8.6 8.3 10.9 8.3 2 0 10.4-6.4 10.4-8.9v-23c0-2.4-8.7-8.2-11-8.2-2 0-10.3 6.3-10.3 8.9zm6.9 20.7v-23.4c0-0.6 0.3-0.9 0.7-0.9 0.9 0 6.7 3.9 6.7 5.3v23.4c0 0.6-0.3 1-0.6 1-1 0-6.8-4-6.8-5.4zm7.3 4.4v-23.4c0-1.3-5.7-5.2-6.6-5.2-0.5 0-0.6 0.5-0.6 0.8v23.4c0 1.3 5.7 5.2 6.7 5.2 0.3 0 0.5-0.3 0.5-0.8z"/>
				</g>
				<g id="&lt;Group&gt;">
					<path id="&lt;Compound Path&gt;" fill-rule="evenodd" class="s9" d="m180.3 133.8v30.7c0 0.6 0 1.3-0.8 1.3q0 0-0.1 0c-0.9-0.1-2.2-0.2-3.4-0.2-0.8 0-1.5 0.1-2 0.1q0 0-0.1 0-0.5 0-0.7-0.4c-0.1-0.2-0.1-0.5-0.1-0.8v-28.7c0-1.8-4.2-4.3-5.5-4.3-0.4 0-0.5 0.2-0.5 0.6v32.4c0 0.6 0 1.3-0.8 1.3q-0.1 0-0.2 0c-0.8-0.1-2.2-0.2-3.4-0.2-0.8 0-1.4 0.1-1.9 0.1q-0.1 0-0.2 0-0.5 0-0.7-0.4c-0.1-0.2-0.1-0.5-0.1-0.8v-31.3c0-1.8-0.3-2.7-1.4-3.5q-0.3-0.3-0.2-0.6c0-0.1 0.1-0.3 0.5-0.5 1.9-0.6 3.4-1.2 5.1-2.3q0.2-0.1 0.4-0.1c0.3 0 0.5 0.3 0.7 0.6 0.3 0.3 0.6 0.6 0.8 0.9 0.2 0.4 0.5 0.7 0.6 0.7 0.1 0 0.8-0.4 1.3-0.7 1.3-0.7 2.8-1.5 3.7-1.5 1.6 0 9 4.7 9 7.6zm-14-5.2c-0.3 0-0.7-0.9-1.5-1.8-0.2-0.3-0.4-0.4-0.6-0.4q-0.1 0-0.3 0.1c-1.8 1.1-3.4 1.7-5.1 2.3-0.6 0.1-0.6 0.5-0.3 0.7 1.2 1 1.5 2 1.5 3.7v31.3c0 0.6 0 1.1 0.6 1.1q0.1 0 0.2 0c0.5-0.1 1.2-0.1 1.9-0.1 1.3 0 2.6 0.1 3.4 0.1q0.1 0 0.2 0c0.6 0 0.6-0.5 0.6-1.1v-32.4c0-0.5 0.2-0.7 0.7-0.7 1.3 0 5.6 2.4 5.6 4.4v28.7c0 0.6 0 1.1 0.7 1.1q0.1 0 0.1 0c0.5-0.1 1.3-0.1 2-0.1 1.2 0 2.6 0.1 3.4 0.1q0.1 0 0.1 0c0.7 0 0.7-0.5 0.7-1.1v-30.7c0-2.8-7.4-7.5-8.9-7.5-1.3 0-4.5 2.3-5 2.3z"/>
				</g>
				<g id="&lt;Group&gt;">
					<path id="&lt;Compound Path&gt;" fill-rule="evenodd" class="s9" d="m203.6 126.6c0.1 0.1 0.1 0.3-0.1 1-0.2 0.5-0.4 1.2-0.5 1.8-0.2 0.6-0.3 1.3-0.5 1.8-0.2 0.8-1.6 1.6-2.9 1.6q-0.2 0-0.4 0-0.2 0-0.4 0c-1.3 0-3-0.1-4.8-0.8q-0.1 0-0.2 0-0.1 0-0.1 0-0.1 0-0.1 0v11.4c0 0.3 0.1 0.5 0.8 0.5 1.1 0 3.8-0.3 6.6-0.7q0 0 0.1 0 0.3 0 0.4 0.2 0.2 0.2 0.1 0.5l-1.4 4.2c-0.1 0.3-0.3 0.5-0.7 0.5-0.6 0-1.8-0.1-2.8-0.3-1.1-0.1-2.2-0.3-2.8-0.3q-0.3 0-0.3 0.3c0 1.9 0 8.2-0.1 9.8q0 0.1 0 0.3c-0.1 0.6-0.1 1.4 0.2 1.8q0.1 0.1 0.4 0.1c2.5 0 6.9-0.3 9.6-0.7q0 0 0.1 0 0.3 0 0.5 0.3c0 0.1 0.1 0.3-0.1 0.6-0.6 1.1-1.1 2.6-1.6 4q-0.1 0.4-0.2 0.8c-0.2 0.4-0.4 0.4-0.7 0.4-0.7 0-2.1 0-3.7 0-2.4-0.1-5.4-0.1-7.7-0.1-1.4 0-2.5 0-3.1 0.1-0.4 0-0.8-0.4-0.8-0.8v-33.3c0-0.3 0-0.8 0.4-1.1l4.4-3.5q0.1-0.1 0.2-0.1c0.2-0.2 0.5-0.4 0.8-0.4q0 0 0.1 0c0.9 0.1 4.9 0.4 8.5 0.4 0.8 0 2.1-0.1 2.4-0.3q0.1-0.1 0.2-0.1 0.1 0 0.2 0.1zm-0.4 0.1c-0.3 0.3-1.7 0.4-2.4 0.4-3.6 0-7.5-0.3-8.5-0.4q-0.1 0-0.1 0c-0.4 0-0.6 0.2-0.9 0.4l-4.5 3.5c-0.2 0.3-0.3 0.7-0.3 1v33.3c0 0.3 0.3 0.6 0.7 0.6 0.7 0 1.8 0 3.1 0 3.9 0 9.6 0.1 11.4 0.1 0.3 0 0.4 0 0.6-0.4 0.4-1.5 1.1-3.5 1.8-4.8 0.2-0.4 0-0.6-0.3-0.6q-0.1 0-0.1 0c-2.6 0.4-7.1 0.6-9.6 0.6-1 0-0.8-1.4-0.8-2.3 0.1-1.6 0.2-8.1 0.2-9.8 0-0.3 0.2-0.4 0.4-0.4 1.3 0 4.3 0.6 5.6 0.6 0.3 0 0.5-0.2 0.6-0.4l1.3-4.2c0.1-0.4 0-0.6-0.3-0.6q-0.1 0-0.1 0c-2.7 0.5-5.5 0.7-6.6 0.7-0.7 0-0.9-0.1-0.9-0.6v-11.4c0-0.1 0.1-0.2 0.3-0.2q0.1 0 0.3 0.1c1.8 0.7 3.5 0.7 4.7 0.7q0.4 0 0.8 0c1.3 0 2.5-0.7 2.8-1.4 0.3-1.2 0.6-2.6 1-3.7 0.1-0.5 0.2-0.8 0-0.8q-0.1 0-0.2 0z"/>
				</g>
				<g id="&lt;Group&gt;">
					<path id="&lt;Compound Path&gt;" fill-rule="evenodd" class="s9" d="m229.5 139.3v13.4c0 1.6-5 5.3-6.2 5.3-1.3 0-6.5-3.4-6.5-4.9v-13.4c0-1.6 5-5.3 6.2-5.3 1.3 0 6.5 3.4 6.5 4.9zm-12.6 0.4v13.4c0 1.4 5.1 4.8 6.4 4.8 1.2 0 6.1-3.7 6.1-5.2v-13.4c0-1.4-5.1-4.8-6.4-4.8-1.2 0-6.1 3.7-6.1 5.2zm4.1 12.1v-13.7c0-0.3 0.1-0.5 0.4-0.5 0.5 0 3.9 2.3 3.9 3.1v13.7c0 0.3-0.1 0.5-0.4 0.5-0.6 0-3.9-2.3-3.9-3.1zm4.2 2.6v-13.7c0-0.7-3.3-3-3.8-3-0.2 0-0.3 0.3-0.3 0.4v13.7c0 0.7 3.3 3 3.8 3 0.3 0 0.3-0.3 0.3-0.4z"/>
				</g>
				<g id="&lt;Group&gt;">
					<path id="&lt;Compound Path&gt;" fill-rule="evenodd" class="s9" d="m242.7 134.7c0.1 0.1 0.1 0.3 0 0.6-0.1 0.4-0.2 0.7-0.3 1.1q-0.1 0.6-0.3 1.1c-0.2 0.4-0.9 0.9-1.8 0.9h-0.2-0.2c-0.8 0-1.8 0-2.8-0.4q-0.1-0.1-0.1-0.1 0 0-0.1 0v6.6c0 0.2 0 0.2 0.4 0.2 0.6 0 2.2-0.1 3.8-0.3q0.1 0 0.1 0 0.2 0 0.3 0.1 0.1 0.1 0.1 0.4l-0.8 2.4c-0.1 0.2-0.3 0.4-0.5 0.4-0.4 0-1-0.1-1.7-0.2-0.6-0.1-1.2-0.2-1.6-0.2q-0.1 0-0.1 0.1c0 0.9 0 8.5-0.1 9.4 0 0.7-0.3 0.8-0.9 0.8h-2.8c-0.2 0-0.5-0.2-0.5-0.5v-19.4c0-0.2 0-0.5 0.2-0.7l2.6-2.1q0.1 0 0.1 0c0.2-0.1 0.3-0.2 0.5-0.2q0.1 0 0.1 0c0.5 0 2.8 0.2 5 0.2 0.4 0 1.2-0.1 1.3-0.2q0.1 0 0.2 0 0.1 0 0.1 0zm-0.2 0.1c-0.2 0.2-1 0.2-1.4 0.2-2.1 0-4.4-0.1-5-0.2q0 0-0.1 0c-0.2 0-0.3 0.1-0.5 0.3l-2.6 2c-0.1 0.1-0.2 0.4-0.2 0.6v19.4c0 0.2 0.2 0.3 0.4 0.3h2.8c0.6 0 0.8-0.1 0.8-0.6 0.1-0.9 0.1-8.4 0.1-9.4 0-0.2 0.1-0.2 0.2-0.2 0.8 0 2.6 0.3 3.3 0.3 0.2 0 0.3-0.1 0.3-0.2l0.8-2.5c0.1-0.2 0-0.3-0.2-0.3q0 0 0 0c-1.6 0.3-3.2 0.4-3.9 0.4-0.4 0-0.5-0.1-0.5-0.4v-6.6c0 0 0.1-0.1 0.2-0.1q0.1 0 0.1 0c1.1 0.4 2.1 0.5 2.8 0.5q0.2 0 0.4 0c0.8 0 1.5-0.5 1.7-0.9 0.2-0.6 0.3-1.5 0.5-2.1 0.1-0.3 0.2-0.5 0.1-0.5q-0.1 0-0.1 0z"/>
				</g>
				<g id="&lt;Group&gt;">
					<path id="&lt;Compound Path&gt;" fill-rule="evenodd" class="s9" d="m261.1 134.8c0.1 0.1 0.1 0.3 0 0.6l-0.7 2.3c-0.2 0.5-0.6 0.5-1.1 0.5-0.7 0-1.4-0.2-1.9-0.3h-0.1q-0.1 0-0.1 0 0 0-0.1 0c0 0.1 0 0.2 0 0.3 0 3.9 0.1 14.9 0.1 18.6v0.2c0 0.2 0 0.6-0.5 0.6q0 0-0.1 0c-0.5 0-1.3-0.1-2-0.1q-0.7 0-1.1 0.1-0.1 0-0.1 0-0.4 0-0.5-0.3c0-0.1 0-0.3 0-0.5 0-2-0.1-5.7-0.1-9.3 0-3.6 0-7.3 0-9.3q0-0.3-0.3-0.3c-1.8 0-2.5 0.2-3.3 0.4q-0.1 0-0.2 0c-0.1 0-0.1 0-0.2-0.1 0-0.1 0-0.2 0.1-0.5l0.7-2.3c0.1-0.4 0.5-0.5 0.9-0.5h0.2c0.5-0.1 1-0.1 1.7-0.1q0.7 0 1.6 0h0.8q1.4 0 2.5 0.1 1 0 1.8 0c0.8 0 1.3 0 1.7-0.1q0.1-0.1 0.2-0.1c0.1 0 0.1 0.1 0.1 0.1zm-0.2 0.1q-0.7 0.1-1.8 0.1c-1.1 0-2.5 0-4.3-0.1-1 0-1.8 0-2.4 0-0.7 0-1.2 0-1.7 0.1-0.5 0.1-0.8 0.1-0.9 0.4l-0.8 2.3c-0.1 0.4-0.1 0.5 0 0.5q0.1 0 0.1 0c0.9-0.3 1.6-0.4 3.4-0.4 0.2 0 0.4 0.1 0.4 0.4 0 4.1 0.1 14.5 0.1 18.6 0 0.4 0 0.6 0.4 0.6q0 0 0.1 0c0.3 0 0.7 0 1.1 0 0.7 0 1.5 0 2 0.1q0.1 0 0.1 0c0.4 0 0.3-0.3 0.4-0.7-0.1-3.7-0.1-14.8-0.1-18.6 0-0.2 0-0.5 0.2-0.5q0.1 0 0.1 0.1c0.6 0.1 1.3 0.3 2 0.3 0.5 0 0.8 0 0.9-0.4l0.8-2.3c0.1-0.4 0.1-0.5 0-0.5q-0.1 0-0.1 0z"/>
				</g>
				<g id="&lt;Group&gt;">
					<path id="&lt;Compound Path&gt;" fill-rule="evenodd" class="s9" d="m274.8 135.5v21.4c0 0.3 0 0.8-0.5 0.8q0 0-0.1-0.1c-0.5 0-1.2 0-1.9 0q-0.8 0-1.2 0 0 0-0.1 0-0.3 0-0.4-0.2c-0.1-0.2-0.1-0.4-0.1-0.5v-9q0-0.1 0-0.1 0 0 0 0h-3.7q0 0 0 0 0 0 0 0.1v9c0 0.3 0 0.8-0.6 0.8q0 0 0-0.1c-0.5 0-1.3 0-2 0q-0.7 0-1.1 0-0.1 0-0.1 0-0.4 0-0.5-0.2c0-0.2 0-0.4 0-0.5v-21.4c0-0.3 0-0.7 0.5-0.7q0 0 0.1 0 0.4 0 1.1 0c0.7 0 1.5 0 2 0q0 0 0 0 0.4 0 0.5 0.2 0.1 0.3 0.1 0.5v9.4c0 0.1 0 0.1 0 0.1h3.7q0 0 0 0 0 0 0-0.1v-9.4c0-0.3 0-0.7 0.5-0.7q0.1 0 0.1 0 0.4 0 1.2 0c0.7 0 1.4 0 1.9 0q0.1 0 0.1 0c0.5 0 0.5 0.4 0.5 0.7zm-0.6-0.6c-0.5 0-1.2 0.1-1.9 0.1-0.5 0-0.9 0-1.2-0.1q0 0-0.1 0c-0.4 0-0.4 0.3-0.4 0.6v9.4q0 0.2-0.1 0.2h-3.7c-0.1 0-0.2-0.1-0.2-0.2v-9.4c0-0.3 0-0.6-0.4-0.6q0 0 0 0c-0.5 0-1.3 0.1-2 0.1-0.4 0-0.8 0-1.2-0.1q0 0 0 0c-0.4 0-0.4 0.3-0.4 0.6v21.4c0 0.3 0 0.6 0.4 0.6q0 0 0 0c0.4 0 0.8-0.1 1.2-0.1 0.7 0 1.5 0.1 2 0.1q0 0 0 0c0.4 0 0.4-0.3 0.4-0.6v-9q0-0.2 0.2-0.2h3.7q0.1 0 0.1 0.2v9c0 0.3 0 0.6 0.4 0.6q0.1 0 0.1 0c0.3 0 0.7-0.1 1.2-0.1 0.7 0 1.4 0.1 1.9 0.1q0.1 0 0.1 0c0.4 0 0.4-0.3 0.4-0.6v-21.4c0-0.3 0-0.6-0.4-0.6q0 0-0.1 0z"/>
				</g>
				<g id="&lt;Group&gt;">
					<path id="&lt;Compound Path&gt;" fill-rule="evenodd" class="s9" d="m288.6 134.7c0 0.1 0.1 0.3-0.1 0.6-0.1 0.4-0.2 0.7-0.3 1.1q-0.1 0.6-0.3 1.1c-0.1 0.4-0.9 0.9-1.7 0.9h-0.2-0.3c-0.7 0-1.7 0-2.8-0.4q0-0.1-0.1-0.1 0 0 0 0v6.7c0 0.1 0 0.2 0.4 0.2 0.6 0 2.2-0.2 3.8-0.4q0 0 0.1 0 0.2 0 0.3 0.1 0.1 0.1 0 0.4l-0.8 2.4c0 0.2-0.2 0.4-0.5 0.4-0.3 0-1-0.1-1.6-0.2-0.6-0.1-1.3-0.2-1.6-0.2q-0.1 0-0.1 0.1c0 1.1 0 4.8-0.1 5.7q0 0.1 0 0.2c0 0.3-0.1 0.8 0.1 1 0 0 0.1 0.1 0.2 0.1 1.4 0 4-0.2 5.6-0.4q0 0 0.1 0 0.2 0 0.3 0.1c0 0.1 0.1 0.2-0.1 0.5-0.3 0.6-0.6 1.5-0.9 2.3q0 0.2-0.1 0.4c-0.1 0.3-0.3 0.3-0.5 0.3-0.4 0-1.2 0-2.1 0-1.4 0-3.1 0-4.5 0q-1.3 0-1.8 0c-0.3 0-0.6-0.2-0.6-0.5v-19.4c0-0.2 0.1-0.5 0.3-0.7l2.6-2.1q0 0 0.1 0c0.1-0.1 0.3-0.2 0.5-0.2q0 0 0.1 0c0.5 0 2.8 0.2 4.9 0.2 0.5 0 1.2-0.1 1.4-0.2q0 0 0.1 0 0.1 0 0.2 0zm-0.3 0.1c-0.2 0.2-1 0.2-1.4 0.2-2.1 0-4.3-0.1-5-0.2q0 0 0 0c-0.2 0-0.4 0.1-0.5 0.3l-2.6 2c-0.2 0.1-0.2 0.4-0.2 0.6v19.4c0 0.2 0.2 0.3 0.4 0.3 0.4 0 1 0 1.8 0 2.3 0 5.6 0.1 6.6 0.1 0.2 0 0.3 0 0.4-0.2 0.2-0.9 0.6-2.1 1-2.8 0.2-0.3 0-0.4-0.1-0.4q-0.1 0-0.1 0c-1.5 0.2-4.1 0.4-5.6 0.4-0.6 0-0.5-0.8-0.4-1.4 0-0.9 0-4.7 0-5.7 0-0.2 0.1-0.2 0.3-0.2 0.7 0 2.5 0.3 3.2 0.3 0.2 0 0.3-0.1 0.4-0.2l0.8-2.5c0-0.2-0.1-0.3-0.2-0.3q-0.1 0-0.1 0c-1.6 0.3-3.2 0.4-3.8 0.4-0.5 0-0.6-0.1-0.6-0.3v-6.7c0 0 0.1-0.1 0.2-0.1q0.1 0 0.2 0c1 0.4 2 0.5 2.7 0.5q0.3 0 0.5 0c0.7 0 1.5-0.5 1.6-0.9 0.2-0.6 0.4-1.5 0.6-2.1 0.1-0.3 0.1-0.5 0-0.5q0 0-0.1 0z"/>
				</g>
				<g id="&lt;Group&gt;">
					<path id="&lt;Compound Path&gt;" fill-rule="evenodd" class="s9" d="m324.1 127.9v36.6c0 0.6 0 1.3-0.8 1.3q0 0-0.1 0c-0.9-0.1-2.2-0.2-3.4-0.2-0.8 0-1.5 0.1-2 0.1q0 0-0.1 0-0.5 0-0.7-0.4c-0.1-0.2-0.1-0.5-0.1-0.8v-15.4c0-0.1 0-0.2-0.2-0.2h-6.2c-0.2 0-0.2 0.1-0.2 0.2v15.4c0 0.6 0 1.3-0.8 1.3q-0.1 0-0.1 0c-0.9-0.1-2.2-0.2-3.4-0.2-0.8 0-1.5 0.1-2 0.1q-0.1 0-0.1 0-0.6 0-0.7-0.4c-0.1-0.2-0.1-0.5-0.1-0.8v-36.6c0-0.5 0-1.1 0.8-1.1q0 0 0.1 0c0.5 0 1.2 0 2 0 1.2 0 2.5 0 3.4-0.1q0 0 0.1 0 0.5 0 0.7 0.4c0.1 0.3 0.1 0.5 0.1 0.8v16.1c0 0.1 0 0.2 0.2 0.2h6.2c0.2 0 0.2 0 0.2-0.2v-16.1c0-0.5 0-1.1 0.8-1.1q0.1 0 0.1 0c0.5 0 1.2 0 2 0 1.2 0 2.5 0 3.4-0.1q0.1 0 0.1 0c0.8 0 0.8 0.7 0.8 1.2zm-0.9-1.1c-0.8 0.1-2.2 0.2-3.4 0.2-0.8 0-1.5-0.1-2-0.1q0 0-0.1 0c-0.7 0-0.7 0.5-0.7 1v16.1q0 0.4-0.3 0.4h-6.2c-0.2 0-0.3-0.2-0.3-0.4v-16.1c0-0.5 0-1.1-0.7-1.1q-0.1 0-0.1 0c-0.9 0.1-2.2 0.2-3.4 0.2-0.8 0-1.5-0.1-2-0.1q-0.1 0-0.1 0c-0.7 0-0.7 0.5-0.7 1v36.6c0 0.6 0 1.1 0.7 1.1q0 0 0.1 0c0.5-0.1 1.2-0.1 2-0.1 1.2 0 2.5 0.1 3.4 0.1q0 0 0.1 0c0.7 0 0.7-0.5 0.7-1.1v-15.4q0-0.3 0.3-0.3h6.2q0.3 0 0.3 0.3v15.4c0 0.6 0 1.1 0.7 1.1q0.1 0 0.1 0c0.5-0.1 1.2-0.1 2-0.1 1.2 0 2.6 0.1 3.4 0.1q0.1 0 0.1 0c0.7 0 0.7-0.5 0.7-1.1v-36.6c0-0.5 0-1.1-0.7-1.1q0 0-0.1 0z"/>
				</g>
				<g id="&lt;Group&gt;">
					<path id="&lt;Compound Path&gt;" fill-rule="evenodd" class="s9" d="m347.7 126.6c0.1 0.1 0.1 0.3-0.1 1-0.2 0.5-0.3 1.2-0.5 1.8-0.1 0.6-0.3 1.3-0.5 1.8-0.2 0.8-1.5 1.6-2.9 1.6q-0.2 0-0.4 0-0.2 0-0.4 0c-1.3 0-3-0.1-4.8-0.8q-0.1 0-0.2 0 0 0-0.1 0 0 0 0 0v11.4c0 0.3 0 0.5 0.7 0.5 1.1 0 3.8-0.3 6.6-0.7q0 0 0.1 0 0.3 0 0.4 0.2 0.2 0.2 0.1 0.5l-1.4 4.2c-0.1 0.3-0.3 0.5-0.7 0.5-0.6 0-1.7-0.1-2.8-0.3-1.1-0.1-2.2-0.3-2.8-0.3q-0.2 0-0.2 0.3c0 1.9-0.1 8.2-0.2 9.8q0 0.1 0 0.3c-0.1 0.6-0.1 1.4 0.2 1.8q0.1 0.1 0.4 0.1c2.5 0 6.9-0.3 9.6-0.7q0.1 0 0.1 0 0.3 0 0.5 0.3c0.1 0.1 0.1 0.3-0.1 0.6-0.6 1.1-1.1 2.6-1.5 4q-0.2 0.4-0.3 0.8c-0.1 0.4-0.4 0.4-0.7 0.4-0.7 0-2.1 0-3.7 0-2.4-0.1-5.3-0.1-7.7-0.1-1.4 0-2.4 0-3.1 0.1-0.4 0-0.8-0.4-0.8-0.8v-33.3c0-0.3 0-0.8 0.4-1.1l4.4-3.5q0.1-0.1 0.2-0.1c0.3-0.2 0.5-0.4 0.8-0.4q0.1 0 0.1 0c1 0.1 4.9 0.4 8.5 0.4 0.8 0 2.1-0.1 2.4-0.3q0.1-0.1 0.2-0.1 0.1 0 0.2 0.1zm-0.3 0.1c-0.4 0.3-1.8 0.4-2.5 0.4-3.5 0-7.4-0.3-8.5-0.4q0 0-0.1 0c-0.4 0-0.6 0.2-0.9 0.4l-4.4 3.5c-0.3 0.3-0.4 0.7-0.4 1v33.3c0 0.3 0.4 0.6 0.7 0.6 0.7 0 1.8 0 3.1 0 4 0 9.6 0.1 11.4 0.1 0.3 0 0.5 0 0.6-0.4 0.5-1.5 1.1-3.5 1.8-4.8 0.2-0.4 0-0.6-0.3-0.6q0 0-0.1 0c-2.6 0.4-7 0.6-9.6 0.6-1 0-0.8-1.4-0.7-2.3 0.1-1.6 0.1-8.1 0.1-9.8 0-0.3 0.2-0.4 0.4-0.4 1.3 0 4.4 0.6 5.6 0.6 0.3 0 0.5-0.2 0.6-0.4l1.3-4.2c0.1-0.4 0-0.6-0.3-0.6q0 0-0.1 0c-2.7 0.5-5.5 0.7-6.6 0.7-0.7 0-0.9-0.1-0.9-0.6v-11.4c0-0.1 0.2-0.2 0.3-0.2q0.2 0 0.3 0.1c1.8 0.7 3.5 0.7 4.7 0.7q0.4 0 0.8 0c1.3 0 2.6-0.7 2.8-1.4 0.4-1.2 0.6-2.6 1-3.7 0.1-0.5 0.2-0.8 0-0.8q0 0-0.1 0z"/>
				</g>
				<g id="&lt;Group&gt;">
					<path id="&lt;Compound Path&gt;" fill-rule="evenodd" class="s9" d="m357.5 126.6c0.3 0.4 0.6 0.8 0.8 1.1 0.2 0.4 0.5 0.7 0.6 0.7 0.1 0 0.3-0.2 0.6-0.4 0.8-0.7 2.1-1.8 3.8-1.8 2.2 0 10.4 5.4 10.4 10.6 0 5.8-3.4 9.3-6.4 11.7q-0.3 0.3-0.1 0.6c0.3 0.4 0.5 0.9 0.8 1.4 0.9 1.7 4.8 8.9 6.8 11.4 0.6 0.8 0.1 1.2-0.5 1.7-1.3 1.1-2.6 1.9-4.3 2.8q-0.2 0.1-0.4 0.1-0.5 0-0.8-0.6c-1.6-2.5-4.4-8.1-6.2-11.8q-0.5-1.1-0.9-1.9-0.1-0.3-0.3-0.3-0.1 0-0.2 0.1l-1.3 0.7c-0.3 0.1-0.4 0.4-0.4 1v10.8c0 0.6 0 1.3-0.8 1.3q-0.1 0-0.1 0c-0.9-0.1-2.2-0.2-3.4-0.2-0.8 0-1.5 0.1-2 0.1q-0.1 0-0.1 0-0.6 0-0.7-0.4c-0.1-0.2-0.1-0.5-0.1-0.8v-31.4c0-1.8-0.4-2.7-1.4-3.6q-0.3-0.2-0.3-0.5c0-0.1 0.2-0.3 0.6-0.5 1-0.3 1.8-0.7 2.8-1.2 0.7-0.3 1.4-0.7 2.4-1.1q0.2-0.1 0.3-0.1c0.3 0 0.5 0.2 0.8 0.5zm-1.1-0.3c-2.4 1.1-3.4 1.8-5.2 2.4-0.5 0.1-0.6 0.5-0.3 0.7 1.2 1 1.5 2 1.5 3.7v31.4c0 0.6 0 1.1 0.7 1.1q0 0 0.1 0c0.5-0.1 1.2-0.1 2-0.1 1.2 0 2.5 0.1 3.4 0.1q0 0 0.1 0c0.7 0 0.7-0.5 0.7-1.1v-10.8c0-0.6 0.1-1 0.5-1.1l1.2-0.7q0.2-0.1 0.3-0.1 0.3 0 0.4 0.3c1.7 3.5 5.2 10.8 7.1 13.7 0.2 0.4 0.4 0.6 0.7 0.6q0.2 0 0.3-0.1c1.7-0.9 3.1-1.8 4.3-2.8 0.6-0.5 1-0.8 0.5-1.5-2.1-2.7-6.3-10.4-6.8-11.4-0.3-0.6-0.6-1-0.8-1.4q-0.3-0.5 0.1-0.8c3.2-2.6 6.4-6 6.4-11.6 0-5.2-8.2-10.5-10.3-10.5-2.4 0-4 2.3-4.4 2.3-0.4 0-0.7-1-1.5-1.9-0.3-0.3-0.5-0.4-0.7-0.4q-0.1 0-0.3 0zm3 20.5v-14.1c0-0.8 0.4-1.1 0.9-1.1 1.1 0 6.2 2.8 6.2 6.4 0 5.5-2.7 7.6-4.8 8.6l-1.8 0.8q-0.1 0-0.1 0c-0.2 0-0.4-0.2-0.4-0.6zm0.5 0.5l1.7-0.9c3.2-1.4 4.7-4.2 4.7-8.4 0-3.6-5-6.3-6-6.3-0.5 0-0.8 0.4-0.8 1v14.1c0 0.3 0.1 0.5 0.3 0.5q0 0 0.1 0z"/>
				</g>
				<g id="&lt;Group&gt;">
					<path id="&lt;Compound Path&gt;" fill-rule="evenodd" class="s9" d="m398.7 133.7v30.8c0 0.6 0 1.3-0.8 1.3q-0.1 0-0.1 0c-0.9-0.1-2.2-0.2-3.4-0.2-0.8 0-1.5 0.1-2 0.1q-0.1 0-0.1 0-0.6 0-0.7-0.4c-0.1-0.2-0.1-0.5-0.1-0.8v-11c0-0.1-0.1-0.2-0.2-0.2h-5.8c-0.1 0-0.2 0.1-0.2 0.2v11c0 0.6 0 1.3-0.8 1.3q0 0-0.1 0c-0.9-0.1-2.2-0.2-3.4-0.2-0.8 0-1.5 0.1-2 0.1q0 0-0.1 0-0.5 0-0.7-0.4c-0.1-0.2-0.1-0.5-0.1-0.8v-31.4c0-0.5 0-1.4 1-1.9 0.2-0.1 0.9-0.5 1.8-1 3.7-2 7.7-4.2 8.6-4.2 1.7 0 9.2 4.7 9.2 7.7zm-19.5-2.4c-0.9 0.4-1 1.2-1 1.8v31.4c0 0.6 0 1.1 0.7 1.1q0.1 0 0.1 0c0.5-0.1 1.2-0.1 2-0.1 1.2 0 2.6 0.1 3.4 0.1q0.1 0 0.1 0c0.7 0 0.7-0.5 0.7-1.1v-11q0-0.3 0.3-0.3h5.8q0.3 0 0.3 0.3v11c0 0.6 0 1.1 0.7 1.1q0 0 0.1 0c0.5-0.1 1.2-0.1 2-0.1 1.2 0 2.5 0.1 3.4 0.1q0 0 0.1 0c0.6 0 0.6-0.5 0.6-1.1v-30.8c0-2.8-7.4-7.5-9-7.5-1.2 0-9.4 4.7-10.3 5.1zm6 17.1v-16.4c0-0.5 0.2-0.7 0.7-0.7 1.3 0 5.7 2.4 5.7 4.4v12.7q0 0.4-0.3 0.4h-5.8c-0.2 0-0.3-0.2-0.3-0.4zm6.1 0.2c0.1 0 0.2 0 0.2-0.2v-12.7c0-1.9-4.4-4.3-5.6-4.3-0.4 0-0.6 0.2-0.6 0.6v16.4c0 0.1 0.1 0.2 0.2 0.2z"/>
				</g>
				<g id="&lt;Group&gt;">
					<path id="&lt;Compound Path&gt;" fill-rule="evenodd" class="s9" d="m411.8 127.7q0 0.1 0 0.2c0.5 4.6 0.3 14.5 0.1 22.5 0 3.2-0.1 5.9-0.1 7.7q0 0.4 0 0.8c-0.1 0.5-0.1 1.1 0.1 1.3q0.1 0.2 0.4 0.2c1.7 0 3.7-0.3 5.7-0.5q1.3-0.1 2.4-0.2 0.1 0 0.2 0 0.3 0 0.4 0.2c0.1 0.1 0.1 0.3 0 0.7-0.6 1-1.1 2.5-1.5 3.8q-0.2 0.4-0.3 0.8-0.2 0.5-0.7 0.5c-0.8 0-2.1 0-3.5 0-2.1-0.1-4.4-0.1-6.4-0.1q-1.9 0-2.9 0.1c-0.4 0-0.8-0.4-0.8-0.8v-37c0-0.5 0-1.1 0.8-1.1q0.1 0 0.1 0c0.5 0 1.2 0 1.9 0 1.1 0 2.3 0 3.2-0.1q0.1 0 0.1 0c0.8 0 0.8 0.6 0.8 1zm-0.9-0.9c-0.8 0.1-2 0.2-3.2 0.2-0.7 0-1.4-0.1-1.9-0.1q0 0-0.1 0c-0.7 0-0.7 0.5-0.7 1v37c0 0.3 0.4 0.6 0.7 0.6 0.7 0 1.7 0 2.9 0 3.4 0 8.1 0.1 9.9 0.1 0.2 0 0.5-0.1 0.6-0.5 0.5-1.5 1-3.3 1.7-4.6 0.3-0.4 0.1-0.7-0.2-0.7q-0.1 0-0.1 0c-2.6 0.3-5.7 0.7-8.2 0.7-1 0-0.6-1.4-0.6-2.4 0-6.4 0.6-23.7 0-30.2 0-0.5 0-1.1-0.7-1.1q0 0-0.1 0z"/>
				</g>
				<g id="&lt;Group&gt;">
					<path id="&lt;Compound Path&gt;" fill-rule="evenodd" class="s9" d="m429.5 126.6c0.4 0.4 0.6 0.8 0.8 1.1 0.3 0.4 0.5 0.7 0.6 0.7 0.1 0 0.4-0.2 0.8-0.4 1-0.6 3-1.8 5.2-1.8 1.5 0 8.5 4.3 8.5 8.9v22.1c0 2.6-7.8 8.5-9.9 8.5h-11c-0.1 0-0.2-0.1-0.3-0.2-0.1-0.1 0-0.2 0-0.3 0.1-0.1 0.1-0.3 0.1-0.5v-31.6c0-1.8-0.3-2.7-1.4-3.6q-0.3-0.2-0.3-0.5c0.1-0.1 0.2-0.3 0.6-0.5 1.7-0.5 3.3-1.2 5.2-2.3q0.2-0.1 0.4-0.1c0.3 0 0.5 0.2 0.7 0.5zm-1-0.3c-1.9 1.1-3.5 1.8-5.2 2.4-0.6 0.1-0.6 0.5-0.3 0.7 1.1 1 1.5 2 1.5 3.7v31.6c0 0.5-0.5 0.8 0 0.8h11c2.1 0 9.7-5.8 9.7-8.3v-22.1c0-4.5-6.8-8.8-8.3-8.8-3 0-5.5 2.3-6 2.3-0.3 0-0.7-1-1.5-1.9-0.2-0.3-0.4-0.4-0.6-0.4q-0.1 0-0.3 0zm2.9 30.8v-24.6c0-0.8 0.2-1.1 0.7-1.1 1.1 0 6.2 2.3 6.2 5.7v22c0 0.6-0.3 1-0.7 1h-5.6c-1.6 0-0.6-0.5-0.6-3zm6.2 2.8c0.4 0 0.5-0.3 0.5-0.8v-22c0-3.4-5-5.6-6-5.6-0.4 0-0.6 0.2-0.6 1v24.6c0 0.9-0.1 1.5-0.2 2 0 0.3-0.1 0.6 0 0.7 0.1 0.1 0.4 0.1 0.7 0.1z"/>
				</g>
			</g>
		</g>
		<g id="&lt;Group&gt;">
			<path id="&lt;Compound Path&gt;" class="s11" d="m338.9 174.4l-6.2 36.4h-163.7l-6.1-36.4z"/>
		</g>
		<text id="EXPANSION
" style="transform: matrix(.466,0,0,.466,182.572,200.644)" >
			<tspan x="0" y="0" class="t12" dx="0 1 1 1 1 1 1 1 1 1" >EXPANSION
</tspan>
		</text>
	</g>
</svg>