<?xml version="1.0" encoding="UTF-8" standalone="no"?>
<svg
   xmlns:dc="http://purl.org/dc/elements/1.1/"
   xmlns:cc="http://creativecommons.org/ns#"
   xmlns:rdf="http://www.w3.org/1999/02/22-rdf-syntax-ns#"
   xmlns:svg="http://www.w3.org/2000/svg"
   xmlns="http://www.w3.org/2000/svg"
   viewBox="0 0 666.66669 666.66669"
   height="666.66669"
   width="666.66669"
   xml:space="preserve"
   id="svg2"
   version="1.1"><metadata
     id="metadata8"><rdf:RDF><cc:Work
         rdf:about=""><dc:format>image/svg+xml</dc:format><dc:type
           rdf:resource="http://purl.org/dc/dcmitype/StillImage" /></cc:Work></rdf:RDF></metadata><defs
     id="defs6"><clipPath
       id="clipPath22"
       clipPathUnits="userSpaceOnUse"><path
         style="clip-rule:evenodd"
         id="path20"
         d="m 3006.41,4221.39 c -712.75,0 -1292.62,-579.79 -1292.62,-1292.49 0,-710.54 579.87,-1288.63 1292.62,-1288.63 710.53,0 1288.59,578.09 1288.59,1288.63 0,712.7 -578.06,1292.49 -1288.59,1292.49" /></clipPath><clipPath
       id="clipPath34"
       clipPathUnits="userSpaceOnUse"><path
         id="path32"
         d="m 705,4221.39 h 631.12 V 778.609 H 705 Z" /></clipPath></defs><g
     transform="matrix(1.3333333,0,0,-1.3333333,0,666.66667)"
     id="g10"><g
       transform="scale(0.1)"
       id="g12"><path
         id="path14"
         style="fill:#ffffff;fill-opacity:1;fill-rule:evenodd;stroke:none"
         d="m 3006.41,4221.39 c -712.75,0 -1292.62,-579.79 -1292.62,-1292.49 0,-710.54 579.87,-1288.63 1292.62,-1288.63 710.53,0 1288.59,578.09 1288.59,1288.63 0,712.7 -578.06,1292.49 -1288.59,1292.49" /><g
         id="g16"><g
           clip-path="url(#clipPath22)"
           id="g18"><path
             id="path24"
             style="fill:#ffffff;fill-opacity:1;fill-rule:nonzero;stroke:none"
             d="M 1534.27,4400.91 H 4474.52 V 1460.75 H 1534.27 v 2940.16" /></g></g><path
         id="path26"
         style="fill:#ffffff;fill-opacity:1;fill-rule:nonzero;stroke:none"
         d="m 705,4221.39 h 631.12 V 778.609 H 705 V 4221.39" /><g
         id="g28"><g
           clip-path="url(#clipPath34)"
           id="g30"><path
             id="path36"
             style="fill:#ffffff;fill-opacity:1;fill-rule:nonzero;stroke:none"
             d="m 525.48,4400.91 h 990.17 V 599.09 H 525.48 v 3801.82" /></g></g></g></g></svg>