<svg xmlns="http://www.w3.org/2000/svg" viewBox="0 0 96 92" width="96" height="92">
	<style>
		tspan { white-space:pre }
		.shp0 { fill: #ffffff } 
	</style>
	<g id="Layer_2">
		<g id="Layer_1-2">
			<path id="Layer" fill-rule="evenodd" class="shp0" d="M93.89 16.48C93.05 17.36 91.9 17.85 90.69 17.85C89.49 17.85 88.34 17.36 87.5 16.48C86.67 15.61 86.23 14.43 86.29 13.23C86.23 12.03 86.67 10.85 87.5 9.98C88.34 9.1 89.49 8.61 90.69 8.61C91.9 8.61 93.05 9.1 93.89 9.98C94.72 10.85 95.16 12.03 95.1 13.23C95.16 14.43 94.72 15.61 93.89 16.48ZM88.05 15.87C88.75 16.58 89.7 16.97 90.69 16.97C91.68 16.97 92.63 16.58 93.33 15.87C94.04 15.17 94.43 14.22 94.43 13.23C94.43 12.24 94.04 11.29 93.33 10.59C92.63 9.88 91.68 9.49 90.69 9.49C89.7 9.49 88.75 9.88 88.05 10.59C87.34 11.29 86.95 12.24 86.95 13.23C86.95 14.22 87.34 15.17 88.05 15.87ZM90.75 11C91.91 11 92.26 11.61 92.26 12.24C92.26 12.37 92.24 12.49 92.2 12.61C92.17 12.74 92.11 12.85 92.04 12.96C91.97 13.06 91.89 13.16 91.79 13.24C91.7 13.32 91.59 13.39 91.47 13.44L92.47 15.37L91.69 15.37L90.82 13.65L89.9 13.65L89.9 15.37L89.26 15.37L89.26 11L90.75 11ZM89.9 13L90.71 13C90.82 13.01 90.92 13 91.02 12.97C91.13 12.94 91.22 12.88 91.3 12.81C91.38 12.74 91.44 12.65 91.49 12.56C91.53 12.46 91.56 12.36 91.56 12.25C91.56 11.83 91.34 11.56 90.71 11.56L89.9 11.56L89.9 13Z" />
			<path id="Layer" class="shp0" d="M45.45 0C39.77 0 34.13 1.06 28.84 3.14C23.54 5.21 18.68 8.25 14.51 12.11C10.33 15.97 6.92 20.57 4.44 25.69C1.95 30.8 0.45 36.33 0 42L24.44 52.1C24.97 51.74 25.53 51.41 26.11 51.14C26.69 50.86 27.29 50.62 27.91 50.43C28.52 50.24 29.15 50.1 29.79 50C30.42 49.91 31.07 49.86 31.71 49.86L32.43 49.86L43.3 34.07L43.3 33.85C43.3 26.89 47.49 20.62 53.92 17.96C60.35 15.3 67.74 16.77 72.66 21.69C77.58 26.61 79.05 34 76.39 40.43C73.73 46.86 67.46 51.05 60.5 51.05L60.11 51.05L44.6 62.11C44.6 62.31 44.6 62.51 44.6 62.72C44.6 65.93 43.41 69.02 41.26 71.39C39.11 73.77 36.16 75.26 32.97 75.58C29.78 75.9 26.58 75.01 24.01 73.11C21.43 71.2 19.66 68.4 19.03 65.26L1.57 58C6.28 74.65 20 87.21 37.01 90.41C54.02 93.62 71.38 86.91 81.82 73.11C92.26 59.31 93.99 40.79 86.28 25.29C78.57 9.8 62.76 0 45.45 0L45.45 0Z" />
			<path id="Layer" class="shp0" d="M28.58 69.2L23 66.88C24.66 70.34 28.21 72.5 32.05 72.37C35.89 72.24 39.29 69.86 40.71 66.29C42.14 62.73 41.33 58.65 38.64 55.91C35.95 53.17 31.89 52.28 28.3 53.64L34.07 56C35.81 56.74 37.2 58.13 37.92 59.88C38.64 61.63 38.63 63.59 37.91 65.34C37.18 67.08 35.79 68.47 34.04 69.19C32.3 69.91 30.33 69.91 28.59 69.18L28.58 69.2Z" />
			<path id="Layer" fill-rule="evenodd" class="shp0" d="M72 33.85C72 35.36 71.7 36.85 71.12 38.24C70.54 39.63 69.69 40.9 68.62 41.96C67.56 43.03 66.29 43.87 64.89 44.44C63.5 45.02 62.01 45.31 60.5 45.31C55.86 45.3 51.69 42.49 49.92 38.21C48.16 33.92 49.15 28.99 52.43 25.72C55.72 22.44 60.65 21.47 64.93 23.25C69.22 25.03 72 29.21 72 33.85ZM51.91 33.83C51.91 34.97 52.13 36.1 52.57 37.15C53 38.2 53.64 39.16 54.45 39.96C55.26 40.76 56.22 41.4 57.28 41.83C58.33 42.26 59.46 42.47 60.6 42.46C64.08 42.46 67.23 40.37 68.56 37.15C69.9 33.93 69.16 30.23 66.7 27.77C64.24 25.3 60.54 24.56 57.32 25.89C54.1 27.23 52 30.37 52 33.85L51.91 33.83Z" />
		</g>
	</g>
</svg>