<svg xmlns="http://www.w3.org/2000/svg" viewBox="0 0 512 512" width="512" height="512">
	<style>
		tspan { white-space:pre }
		.shp0 { fill: #898890 } 
		.shp1 { fill: #787680 } 
		.shp2 { fill: #57565c } 
		.shp3 { fill: #e0e0e2 } 
		.shp4 { fill: #d8d7da } 
		.shp5 { fill: #c6c5ca } 
		.shp6 { fill: #3e3d42 } 
		.shp7 { fill: #ffd422 } 
		.shp8 { fill: #ffe477 } 
		.shp9 { fill: #ffda44 } 
		.shp10 { fill: #ff3f62 } 
		.shp11 { fill: #ff0c38 } 
		.shp12 { fill: #6dc82a } 
		.shp13 { fill: #5eac24 } 
		.shp14 { fill: #acabb1 } 
		.shp15 { fill: #1bbc86 } 
		.shp16 { fill: #149362 } 
		.shp17 { fill: #e22437 } 
		.shp18 { fill: #c61a33 } 
	</style>
	<path id="Layer" class="shp0" d="M218.27 323.69L159.47 314.26C132 309.85 105.58 326.69 97.99 353.45L85.82 396.3L65.29 399.48C44.34 402.73 27.14 417.74 21.1 438.05L10.81 472.63C4.96 492.26 19.68 511.99 40.16 511.99L179.17 511.99L266.94 443.21L218.27 323.69Z" />
	<path id="Layer" class="shp1" d="M133.02 425.31L133.02 316.52C116.49 322.19 103.05 335.61 97.99 353.45L85.82 396.29L65.29 399.48C53.28 401.34 42.52 407.08 34.37 415.46C49.52 423.85 72.79 437.07 92.92 448.58C110.79 458.79 133.02 445.89 133.02 425.31Z" />
	<path id="Layer" class="shp2" d="M34.37 415.46C49.52 423.85 72.79 437.08 92.92 448.59C102.69 454.17 113.75 452.83 121.78 447.12L85.82 396.3L65.29 399.48C53.28 401.34 42.52 407.08 34.37 415.46Z" />
	<path id="Layer" class="shp0" d="M249.26 332.76L291.47 309.45C312.32 297.94 338.01 299.85 356.92 314.33L401.08 348.15L421.21 345.61C452.99 341.59 482.31 363.25 487.82 394.79L502.01 476.1C505.29 494.84 490.86 511.99 471.84 511.99L306.65 511.99L249.26 332.76Z" />
	<path id="Layer" class="shp1" d="M421.21 345.6L401.08 348.14L356.92 314.33C348 307.5 337.58 303.47 326.87 302.32L331.24 399.53C332.09 418.52 351.89 430.61 369.17 422.7L479 372.4C466.82 353.7 444.69 342.64 421.21 345.6Z" />
	<path id="Layer" class="shp2" d="M369.17 422.7L479 372.4C466.82 353.7 444.69 342.64 421.21 345.6L401.08 348.15L343.92 421.12C351.15 425.6 360.48 426.68 369.17 422.7Z" />
	<path id="Layer" class="shp3" d="M327.52 456.27L268.93 483.65L140.69 209.23L199.28 181.86L327.52 456.27Z" />
	<g id="Layer">
		<path id="Layer" class="shp4" d="M140.69 209.26L199.27 181.88L218.27 222.54L159.69 249.92L140.69 209.26Z" />
		<path id="Layer" class="shp4" d="M298.23 469.96L268.94 483.65L140.7 209.23L169.99 195.54L298.23 469.96Z" />
	</g>
	<path id="Layer" class="shp5" d="M140.69 209.25L169.98 195.56L188.99 236.22L159.7 249.91L140.69 209.25Z" />
	<path id="Layer" class="shp2" d="M115.11 39.96L85.82 53.65C101.13 122.56 134.15 177.56 134.15 177.56L179.17 156.53C179.17 156.53 158.16 95.91 115.11 39.96Z" />
	<path id="Layer" class="shp6" d="M109.63 42.52L85.82 53.65C101.13 122.56 134.15 177.56 134.15 177.56L157.95 166.44C157.95 166.44 124.93 111.44 109.63 42.52Z" />
	<path id="Layer" class="shp7" d="M256.99 151.62L80.47 234.11L65.7 202.51L242.22 120.01L256.99 151.62Z" />
	<path id="Layer" class="shp8" d="M207.81 190.09L141.52 221.07C134.5 224.35 126.14 221.32 122.86 214.3L108.09 182.69C104.81 175.67 107.85 167.31 114.87 164.03L181.16 133.06C188.18 129.78 196.53 132.81 199.82 139.83L214.58 171.43C217.87 178.46 214.83 186.81 207.81 190.09Z" />
	<path id="Layer" class="shp9" d="M154.2 199.65L139.43 168.05C136.15 161.03 139.19 152.67 146.21 149.39L114.87 164.03C107.85 167.32 104.81 175.67 108.1 182.69L122.86 214.3C126.15 221.32 134.5 224.35 141.53 221.07L172.86 206.43C165.84 209.71 157.48 206.68 154.2 199.65Z" />
	<path id="Layer" class="shp10" d="M73.43 239.73C61.49 239.73 51.84 230.08 51.84 218.14C51.84 206.2 61.49 196.56 73.43 196.56C85.37 196.56 95.02 206.2 95.02 218.14C95.02 230.08 85.37 239.73 73.43 239.73Z" />
	<path id="Layer" class="shp11" d="M73.42 218.15C70.04 210.91 71.04 202.77 75.3 196.66C71.64 196.33 67.85 196.92 64.28 198.59C53.48 203.64 48.82 216.48 53.87 227.29C58.91 238.09 71.76 242.75 82.56 237.7C86.13 236.04 89.01 233.51 91.11 230.5C83.69 229.84 76.81 225.38 73.42 218.15Z" />
	<path id="Layer" class="shp8" d="M94.76 69.18C75.63 69.18 60.17 53.72 60.17 34.59C60.17 15.46 75.63 0 94.76 0C113.89 0 129.35 15.46 129.35 34.59C129.35 53.72 113.89 69.18 94.76 69.18Z" />
	<path id="Layer" class="shp9" d="M87.23 38.11C81.11 25.02 83.9 10.05 93.11 0.04C88.74 0.25 84.33 1.29 80.12 3.25C62.81 11.34 55.33 31.93 63.42 49.24C71.51 66.55 92.1 74.02 109.41 65.93C113.62 63.96 117.25 61.25 120.21 58.02C106.62 58.66 93.35 51.2 87.23 38.11Z" />
	<path id="Layer" class="shp12" d="M94.76 51.14C85.61 51.14 78.22 43.74 78.22 34.59C78.22 25.44 85.61 18.05 94.76 18.05C103.91 18.05 111.31 25.44 111.31 34.59C111.31 43.74 103.91 51.14 94.76 51.14Z" />
	<path id="Layer" class="shp13" d="M94.76 34.59C92.17 29.05 92.93 22.81 96.2 18.12C93.39 17.88 90.49 18.33 87.76 19.6C79.48 23.47 75.91 33.32 79.78 41.59C83.64 49.87 93.49 53.45 101.77 49.58C104.5 48.3 106.71 46.36 108.31 44.05C102.63 43.55 97.35 40.13 94.76 34.59Z" />
	<path id="Layer" class="shp10" d="M249.26 157.56C237.32 157.56 227.67 147.91 227.67 135.98C227.67 124.04 237.32 114.39 249.26 114.39C261.2 114.39 270.85 124.04 270.85 135.98C270.85 147.91 261.2 157.56 249.26 157.56Z" />
	<path id="Layer" class="shp11" d="M249.26 135.98C245.88 128.75 246.87 120.6 251.13 114.49C247.47 114.17 243.68 114.76 240.12 116.42C229.32 121.47 224.65 134.32 229.7 145.12C234.75 155.92 247.59 160.59 258.4 155.54C261.96 153.87 264.84 151.34 266.94 148.33C259.52 147.68 252.64 143.22 249.26 135.98Z" />
	<path id="Layer" class="shp5" d="M121.78 511.99L160.27 408.44C172.18 376.38 211.15 364.18 239.22 383.73L266.94 403.04L309.46 393.79C333.84 388.48 359.13 397.3 374.93 416.61L452.98 511.99L121.78 511.99L121.78 511.99Z" />
	<path id="Layer" class="shp14" d="M284.08 465.44C303.7 446.61 331.19 420.16 352.79 399.06C339.58 392.58 324.35 390.55 309.46 393.79L266.94 403.04L239.22 383.73C224.3 373.34 206.3 371.92 190.92 377.68C203.8 399.66 225.35 434.87 240.75 459.9C250.13 475.13 271.17 477.82 284.08 465.44Z" />
	<path id="Layer" class="shp0" d="M284.08 465.44C303.7 446.62 331.19 420.17 352.79 399.06C339.58 392.59 324.35 390.55 309.46 393.8L266.94 403.05L255.66 471.77C265.14 474.97 276.14 473.06 284.08 465.44Z" />
	<g id="Layer">
	</g>
	<g id="Layer">
	</g>
	<g id="Layer">
	</g>
	<g id="Layer">
	</g>
	<g id="Layer">
	</g>
	<g id="Layer">
	</g>
	<g id="Layer">
	</g>
	<g id="Layer">
	</g>
	<g id="Layer">
	</g>
	<g id="Layer">
	</g>
	<g id="Layer">
	</g>
	<g id="Layer">
	</g>
	<g id="Layer">
	</g>
	<g id="Layer">
	</g>
	<g id="Layer">
	</g>
	<path id="Layer" class="shp15" d="M510.44 207.93L421.12 137.59C418.45 135.49 414.53 137.4 414.53 140.8L414.53 187.57L312.86 187.57C288.34 187.57 263.21 180.77 244.64 164.65C241.74 162.12 237.25 164.69 237.97 168.48C239.23 175.18 241.8 185.28 246.89 195.3C259.94 221.02 282.14 234.06 312.86 234.06L413.74 234.06L413.74 278.71C413.74 280.26 414.61 281.67 415.99 282.36C417.35 283.04 419 282.92 420.26 281.98L510.37 214.39C511.38 213.63 511.98 212.45 512 211.18C512.01 209.91 511.44 208.71 510.44 207.93Z" />
	<path id="Layer" class="shp16" d="M510.44 207.93L498.8 198.76C413.92 262.41 419.76 258.48 417.81 258.48C415.58 258.48 413.74 256.67 413.74 254.4L413.74 278.71C413.74 280.26 414.61 281.67 415.99 282.36C417.35 283.04 419 282.92 420.26 281.97L510.37 214.39C511.38 213.63 511.98 212.44 512 211.18C512.01 209.91 511.44 208.71 510.44 207.93Z" />
	<path id="Layer" class="shp17" d="M502.03 114.45C494.56 74.74 469.61 48.86 427.14 48.86L326.26 48.86L326.26 4.21C326.26 0.86 322.42 -1.06 319.74 0.95L229.63 68.54C227.49 70.14 227.45 73.34 229.55 75C325.77 150.76 319.37 146.21 321.4 146.21C323.63 146.21 325.47 144.4 325.47 142.13L325.47 95.36L427.14 95.36C451.71 95.36 476.84 102.19 495.35 118.28C498.27 120.81 502.74 118.23 502.03 114.45Z" />
	<g id="Layer">
		<path id="Layer" class="shp18" d="M321.4 123.65C319.38 123.65 325.32 127.85 240.06 60.71L229.63 68.54C227.49 70.14 227.45 73.34 229.55 75L318.88 145.33C321.54 147.43 325.47 145.53 325.47 142.13L325.47 119.57C325.47 121.84 323.63 123.65 321.4 123.65Z" />
		<path id="Layer" class="shp18" d="M502.03 114.45C501.15 109.76 499.62 103.42 497.05 96.6C494.33 95.93 473.85 72.8 427.14 72.8L350.41 72.8C349.36 73.04 347.78 73.17 345.56 73.17C330.75 73.17 326.51 81.31 325.47 87.73L325.47 95.36L427.14 95.36C451.71 95.36 476.84 102.19 495.35 118.28C498.27 120.81 502.74 118.23 502.03 114.45Z" />
	</g>
	<path id="Layer" class="shp16" d="M391.56 209.75L312.86 209.75C278.8 209.75 255.69 193.58 243.75 164.07C240.73 162.59 237.35 165.21 237.97 168.48C245.45 208.19 270.38 234.06 312.86 234.06L413.74 234.06L413.74 228.28C413 221.09 409.05 209.75 391.56 209.75Z" />
</svg>