<svg xmlns="http://www.w3.org/2000/svg" viewBox="0 0 512 512" width="512" height="512">
	<style>
		tspan { white-space:pre }
		.shp0 { fill: #a6673a } 
		.shp1 { fill: #99522e } 
		.shp2 { fill: #fd6243 } 
		.shp3 { fill: #ff4f19 } 
		.shp4 { fill: #fcd223 } 
		.shp5 { fill: #fdbf00 } 
		.shp6 { fill: #1bbc86 } 
		.shp7 { fill: #149362 } 
		.shp8 { fill: #e22437 } 
		.shp9 { fill: #c61a33 } 
	</style>
	<path id="Layer" class="shp0" d="M284.26 82.85L284.26 192.13L256.73 220.48L203.33 275.53L91.58 275.53L91.58 82.85L284.26 82.85Z" />
	<path id="Layer" class="shp1" d="M284.26 82.85L284.26 192.13L256.73 220.48L256.73 82.85L284.26 82.85Z" />
	<path id="Layer" class="shp2" d="M388.31 37.99C344.26 11.84 299.95 0 256.73 0C214.07 0 172.78 11.56 135.34 33.03C56.34 78.17 9 160.48 9 253.51L9 316.82C9 326.45 18.36 332.79 27.17 329.76L109.74 302.23C115.25 300.58 119.1 295.35 119.1 289.3L119.1 253.51C119.1 200.94 145.25 154.42 189.02 128.82C210.21 116.71 233.61 110.65 256.73 110.38C280.13 110.1 303.25 116.16 324.45 128.27C330.5 131.85 338.21 130.2 342.34 124.69L392.44 58.08C397.11 51.47 395.19 42.12 388.31 37.99Z" />
	<path id="Layer" class="shp3" d="M392.43 58.08L342.34 124.69C338.21 130.2 330.5 131.85 324.45 128.27C303.25 116.16 280.13 110.1 256.73 110.38L256.73 0C299.95 0 344.26 11.84 388.31 37.99C395.19 42.12 397.11 51.47 392.43 58.08Z" />
	<path id="Layer" class="shp4" d="M291.97 301.68L347.02 329.21C356.1 333.61 366.84 327.01 366.84 316.82L366.84 248.01C366.84 186.9 317.56 137.91 256.73 137.91C254.81 137.91 252.88 138.18 250.95 138.18C193.42 140.93 146.63 192.96 146.63 253.51L146.63 401.24C146.63 407.29 150.76 412.8 156.54 414.45L256.73 443.07L349.22 469.5C358.03 471.98 366.83 465.37 366.83 456.29L366.83 375.45C366.83 370.22 364.08 365.54 359.4 363.07L278.75 320.13C265.26 312.97 256.73 298.93 256.73 283.79L256.73 261.77C256.73 254.06 262.79 248.01 270.49 248.01C278.2 248.01 284.26 254.06 284.26 261.77L284.26 289.3C284.26 294.53 287.29 299.21 291.97 301.68Z" />
	<g id="Layer">
		<path id="Layer" class="shp5" d="M366.84 248.01L366.84 316.82C366.84 327.01 356.1 333.61 347.02 329.21L291.97 301.68C287.29 299.2 284.26 294.53 284.26 289.3L284.26 261.77C284.26 254.06 278.2 248.01 270.49 248.01C262.79 248.01 256.73 254.06 256.73 261.77L256.73 137.9C317.57 137.9 366.84 186.9 366.84 248.01Z" />
		<path id="Layer" class="shp5" d="M366.84 375.45L366.84 456.29C366.84 465.37 358.03 471.98 349.22 469.5L256.73 443.07L256.73 283.79C256.73 298.93 265.27 312.97 278.75 320.13L359.4 363.07C364.08 365.54 366.84 370.22 366.84 375.45Z" />
	</g>
	<path id="Layer" class="shp6" d="M510.44 435.93L421.12 365.59C418.45 363.49 414.53 365.4 414.53 368.8L414.53 415.57L312.86 415.57C288.34 415.57 263.21 408.77 244.64 392.65C241.74 390.12 237.25 392.69 237.97 396.48C239.23 403.18 241.8 413.28 246.89 423.3C259.94 449.02 282.14 462.06 312.86 462.06L413.74 462.06L413.74 506.71C413.74 508.26 414.61 509.67 415.99 510.36C417.35 511.04 419 510.92 420.26 509.98L510.37 442.39C511.38 441.63 511.98 440.45 512 439.18C512.01 437.91 511.44 436.71 510.44 435.93Z" />
	<path id="Layer" class="shp7" d="M510.44 435.93L498.8 426.76C413.92 490.41 419.76 486.48 417.81 486.48C415.58 486.48 413.74 484.67 413.74 482.4L413.74 506.71C413.74 508.26 414.61 509.67 415.99 510.36C417.35 511.04 419 510.92 420.26 509.97L510.37 442.39C511.38 441.63 511.98 440.44 512 439.18C512.01 437.91 511.44 436.71 510.44 435.93Z" />
	<path id="Layer" class="shp8" d="M502.03 342.45C494.56 302.74 469.61 276.86 427.14 276.86L326.26 276.86L326.26 232.21C326.26 228.86 322.42 226.94 319.74 228.95L229.63 296.54C227.49 298.14 227.45 301.34 229.55 303C325.77 378.76 319.37 374.21 321.4 374.21C323.63 374.21 325.47 372.4 325.47 370.13L325.47 323.36L427.14 323.36C451.71 323.36 476.84 330.19 495.35 346.28C498.27 348.81 502.74 346.23 502.03 342.45Z" />
	<g id="Layer">
		<path id="Layer" class="shp9" d="M321.4 351.65C319.38 351.65 325.32 355.85 240.06 288.71L229.63 296.54C227.49 298.14 227.45 301.34 229.55 303L318.88 373.33C321.54 375.43 325.47 373.53 325.47 370.13L325.47 347.57C325.47 349.84 323.63 351.65 321.4 351.65Z" />
		<path id="Layer" class="shp9" d="M502.03 342.45C501.15 337.76 499.62 331.42 497.05 324.6C494.33 323.93 473.85 300.8 427.14 300.8L350.41 300.8C349.36 301.04 347.78 301.17 345.56 301.17C330.75 301.17 326.51 309.31 325.47 315.73L325.47 323.36L427.14 323.36C451.71 323.36 476.84 330.19 495.35 346.28C498.27 348.81 502.74 346.23 502.03 342.45Z" />
	</g>
	<path id="Layer" class="shp7" d="M391.56 437.75L312.86 437.75C278.8 437.75 255.69 421.58 243.75 392.07C240.73 390.59 237.35 393.21 237.97 396.48C245.45 436.19 270.38 462.06 312.86 462.06L413.74 462.06L413.74 456.28C413 449.09 409.05 437.75 391.56 437.75Z" />
</svg>