<svg version="1.2" xmlns="http://www.w3.org/2000/svg" viewBox="0 0 513 512" width="513" height="512">
	<title>fishing_adamant-svg</title>
	<style>
		.s0 { fill: #a8d6da } 
		.s1 { fill: #9e3eb2 } 
		.s2 { fill: #f3af3e } 
		.s3 { fill: #b9b9b9 } 
	</style>
	<g id="Layer">
		<path id="Layer" class="s0" d="m494.3 411.8c-4.9 0-8.8-4.1-8.8-9q0 0 0 0v-370.4c0-4.9 4-8.8 8.8-8.8 4.9 0 8.9 3.9 8.9 8.8v370.4c0 4.9-3.9 8.9-8.8 9q-0.1 0-0.1 0z"/>
		<path id="Layer" class="s0" d="m163.8 490c-4.9 0-8.8-3.9-8.8-8.8 0-2.4 1-4.7 2.7-6.4l40.9-39c41-38.9 59.5-95.9 49.3-151.4l-0.6-3.4c-0.9-4.8 2.3-9.4 7.1-10.3q0.8-0.1 1.6-0.1h48c46.6-0.1 84.4-37.8 84.4-84.4v-48c0-4.9 4-8.9 8.8-8.9h17.1c24.7 0 44.7-20 44.7-44.7v-34.7c0-4.9 4-8.8 8.9-8.8 4.8 0 8.8 3.9 8.8 8.8v34.7c0 34.5-27.9 62.3-62.4 62.4h-8.2v39.2c-0.1 56.3-45.8 102-102.1 102h-37.6c8.6 59.3-12.1 119.1-55.6 160.4l-40.9 39c-1.6 1.6-3.8 2.4-6.1 2.4z"/>
		<path id="Layer" class="s1" d="m157.6 375.1l-25-25 341-339.8c6.9-7 18.2-7.1 25.2-0.2q0 0 0 0.1c6.8 6.9 6.8 18.2-0.2 25.1q0 0 0 0z"/>
		<path id="Layer" class="s1" d="m24.8 445.4l101.5-101.5 37.5 37.4-101.6 101.6z"/>
		<path id="Layer" class="s2" d="m7.8 499.9c-10.4-10.3-10.4-27.1 0-37.4l49.9-50 21.7-18.3 26.5 44.1-10.8 11.7-49.9 49.9c-10.3 10.4-27.1 10.4-37.4 0z"/>
		<path id="Layer" class="s1" d="m76.4 356.4l62.4 62.4-37.4 37.4-62.4-62.4c-10.4-10.3-10.4-27.1 0-37.4 10.3-10.4 27.1-10.4 37.4 0z"/>
		<path id="Layer" class="s3" d="m132.6 350.1l62.4-62.4 25 25-62.4 62.4z"/>
		<path id="Layer" class="s3" d="m476.7 491.3c-14.6 0-26.5-11.9-26.5-26.5v-8.9h17.7v8.9c0 4.8 3.9 8.8 8.8 8.8 4.9 0 8.8-4 8.8-8.8v-35.3h17.7v35.3c0 14.6-11.9 26.5-26.5 26.5z"/>
		<path id="Layer" class="s0" d="m185.6 450c0 29.3-23.7 53-53 53-29.3 0-53-23.7-53-53 0-29.3 23.7-53 53-53 29.3 0 53 23.7 53 53z"/>
		<path id="Layer" class="s1" d="m167.9 450c0 19.5-15.8 35.3-35.3 35.3-19.5 0-35.3-15.8-35.3-35.3 0-19.5 15.8-35.3 35.3-35.3 19.5 0 35.3 15.8 35.3 35.3z"/>
		<path id="Layer" class="s1" d="m141.4 450c0 4.9-3.9 8.8-8.8 8.8-4.9 0-8.8-3.9-8.8-8.8 0-4.9 3.9-8.8 8.8-8.8 4.9 0 8.8 3.9 8.8 8.8z"/>
		<path id="Layer" class="s1" d="m494.3 394.2c9.8 0 17.7 7.9 17.7 17.6v8.8c0 9.8-7.9 17.7-17.7 17.7-9.7 0-17.6-7.9-17.6-17.7v-8.8c0-9.7 7.9-17.6 17.6-17.6z"/>
	</g>
</svg>