<svg version="1.2" baseProfile="tiny-ps" xmlns="http://www.w3.org/2000/svg" viewBox="0 0 512 512" width="512" height="512">
	<title>map-svg</title>
	<style>
		tspan { white-space:pre }
		.shp0 { fill: #99918f } 
		.shp1 { fill: #c6bebb } 
		.shp2 { fill: #4689d3 } 
		.shp3 { fill: #6a859b } 
		.shp4 { fill: #c4c4c4 } 
		.shp5 { fill: #e3e3e3 } 
		.shp6 { fill: #776f6e } 
		.shp7 { fill: #3e79af } 
		.shp8 { fill: #f4f8fc } 
	</style>
	<path id="Layer" class="shp0" d="M499.33 200.49L492.63 189.26L499.29 178.17C499.62 177.62 499.9 177.05 500.14 176.45C500.38 175.86 500.56 175.25 500.7 174.62C500.84 174 500.92 173.36 500.96 172.72C500.99 172.09 500.98 171.45 500.91 170.81C499.83 160.48 494.83 150.96 486.94 144.2C479.04 137.45 468.86 133.98 458.49 134.52C448.11 135.05 438.34 139.54 431.18 147.06C424.02 154.59 420.02 164.57 420 174.96L420 318.85L432.03 334.61L420 350.06L420 392.35C419.99 392.58 420.04 392.81 420.16 393C420.28 393.2 420.45 393.35 420.66 393.45C420.87 393.54 421.1 393.57 421.33 393.53C421.55 393.5 421.76 393.39 421.93 393.23C423.91 391.32 426.03 389.56 428.28 387.96C430.53 386.36 432.89 384.94 435.35 383.7C437.81 382.45 440.36 381.4 442.97 380.54C445.59 379.68 448.27 379.01 450.99 378.55C478.24 374.18 497.77 397.88 499.94 400.03L501.01 206.58C501.01 206.05 500.98 205.51 500.91 204.99C500.84 204.46 500.73 203.93 500.59 203.42C500.44 202.91 500.27 202.4 500.06 201.91C499.85 201.42 499.6 200.95 499.33 200.49L499.33 200.49Z" />
	<path id="Layer" class="shp1" d="M450.94 378.55C448.23 379.01 445.55 379.67 442.94 380.54C440.32 381.4 437.78 382.45 435.32 383.7C432.87 384.94 430.51 386.36 428.27 387.96C426.02 389.56 423.9 391.32 421.93 393.23C421.76 393.39 421.55 393.5 421.33 393.53C421.1 393.57 420.87 393.54 420.66 393.45C420.45 393.35 420.28 393.2 420.16 393C420.04 392.81 419.99 392.58 420 392.35L420 350.06L432.03 334.61L420 318.85L420 190.83L92 185.1L92 285.49C92.01 286.15 91.97 286.81 91.87 287.46C91.78 288.11 91.63 288.75 91.42 289.38C91.21 290 90.96 290.61 90.65 291.19C90.34 291.77 89.98 292.33 89.58 292.85L82.61 301.68L88.45 307.35C89.02 307.9 89.53 308.51 89.98 309.17C90.42 309.83 90.8 310.53 91.11 311.26C91.41 311.99 91.64 312.75 91.79 313.53C91.94 314.31 92.01 315.11 92 315.9L92 392.35C92.02 392.57 91.97 392.8 91.86 393C91.75 393.19 91.58 393.35 91.37 393.44C91.17 393.54 90.94 393.57 90.72 393.53C90.5 393.49 90.29 393.39 90.13 393.23C88.15 391.32 86.03 389.55 83.79 387.96C81.54 386.36 79.18 384.94 76.73 383.69C74.27 382.45 71.72 381.39 69.11 380.53C66.49 379.67 63.81 379.01 61.1 378.55C34.08 374.22 14.58 392.78 12.14 395.19L12.19 399.94C12.2 404.3 13.07 408.61 14.75 412.63C16.43 416.65 18.89 420.3 21.98 423.37C25.07 426.44 28.74 428.87 32.77 430.52C36.8 432.18 41.12 433.02 45.48 433L112.07 433C113.43 433.01 114.79 432.9 116.13 432.67C117.47 432.44 118.79 432.1 120.07 431.64C121.35 431.19 122.59 430.62 123.77 429.95C124.95 429.28 126.07 428.51 127.12 427.64L149.32 409.16L170.62 427.4C171.68 428.3 172.81 429.1 174.01 429.8C175.21 430.5 176.47 431.1 177.77 431.57C179.08 432.05 180.42 432.41 181.79 432.65C183.16 432.89 184.54 433 185.93 433L315.55 433L336.78 422.21L352.23 433L367.03 433L381.18 422.21L395.34 433L466.64 433C471 433.02 475.32 432.18 479.35 430.53C483.38 428.87 487.05 426.44 490.14 423.37C493.23 420.3 495.68 416.65 497.36 412.63C499.04 408.61 499.91 404.3 499.92 399.94C497.75 397.79 478.19 374.18 450.94 378.55L450.94 378.55Z" />
	<path id="Layer" class="shp0" d="M92 285.49L92 174.96C92.03 169.64 91 164.37 88.98 159.45C86.96 154.53 83.98 150.06 80.22 146.29C76.47 142.53 72 139.54 67.08 137.51C62.17 135.48 56.9 134.44 51.58 134.46C44.72 134.46 43.12 146.94 37.46 149.92C33.27 152.13 24.72 144.25 21.56 147.71C19.87 149.56 18.35 151.56 17.03 153.69C15.71 155.83 14.59 158.08 13.69 160.42C12.78 162.76 12.1 165.18 11.65 167.64C11.2 170.11 10.98 172.61 10.99 175.12L12.18 395.19C14.62 392.78 34.16 374.22 61.18 378.55C63.88 379.01 66.56 379.67 69.16 380.53C71.77 381.39 74.32 382.45 76.77 383.69C79.22 384.93 81.57 386.36 83.81 387.96C86.04 389.55 88.16 391.32 90.13 393.23C90.29 393.39 90.49 393.5 90.72 393.54C90.94 393.57 91.17 393.54 91.37 393.45C91.58 393.35 91.75 393.19 91.86 393C91.97 392.8 92.02 392.58 92 392.35L92 315.9C92.01 315.11 91.95 314.32 91.8 313.54C91.65 312.76 91.43 312 91.13 311.26C90.83 310.53 90.45 309.83 90.01 309.17C89.57 308.51 89.06 307.9 88.49 307.35L82.61 301.68L89.54 292.85C89.94 292.33 90.31 291.78 90.62 291.19C90.93 290.61 91.19 290.01 91.4 289.38C91.61 288.75 91.76 288.11 91.86 287.46C91.97 286.81 92.01 286.15 92 285.49Z" />
	<path id="Layer" class="shp2" d="M371.52 189.26C371.52 189.78 371.52 190.31 371.5 190.83C370.11 275.87 256 348.82 256 348.82C256 348.82 140.48 274.97 140.48 189.26C140.48 187.87 140.51 186.48 140.57 185.1C142.86 126.04 193.77 78.82 256 78.82C319.69 78.82 371.52 128.28 371.52 189.26Z" />
	<path id="Layer" class="shp3" d="M256 107.96C290.11 107.96 320.87 128.51 333.92 160.02C346.97 191.54 339.76 227.82 315.64 251.94C291.52 276.06 255.24 283.27 223.72 270.22C192.21 257.17 171.66 226.41 171.66 192.3C171.66 181.22 173.84 170.26 178.08 160.02C182.32 149.79 188.53 140.49 196.36 132.66C204.19 124.83 213.49 118.62 223.72 114.38C233.96 110.14 244.92 107.96 256 107.96L256 107.96Z" />
	<path id="Layer" class="shp4" d="M305.88 180.97C305.88 195.44 299.05 207.38 288.29 215.71C287.14 216.59 286.09 217.59 285.16 218.69C284.23 219.79 283.42 220.99 282.75 222.27C282.07 223.55 281.54 224.89 281.15 226.29C280.77 227.68 280.54 229.11 280.46 230.55L280.03 239.61C279.91 242.13 279.31 244.6 278.26 246.89C277.21 249.18 275.74 251.25 273.92 252.99C272.09 254.73 269.95 256.1 267.61 257.04C265.28 257.98 262.78 258.46 260.26 258.46L251.97 258.46C249.43 258.46 246.91 257.97 244.56 257.02C242.2 256.07 240.05 254.68 238.23 252.92C236.4 251.15 234.93 249.05 233.89 246.73C232.86 244.41 232.28 241.92 232.19 239.38L231.87 230.53C231.81 229.09 231.59 227.66 231.22 226.27C230.85 224.88 230.33 223.53 229.66 222.25C228.99 220.98 228.19 219.78 227.26 218.68C226.33 217.57 225.28 216.58 224.13 215.71C213.26 207.38 206.12 195.44 206.12 180.97C206.12 154.8 228.45 133.58 256 133.58C283.55 133.58 305.88 154.8 305.88 180.97L305.88 180.97Z" />
	<g id="Layer">
		<path id="Layer" class="shp5" d="M284.18 173.45C287.14 176.4 287.6 181.04 285.28 184.52C282.96 188 278.51 189.35 274.64 187.75C270.78 186.15 268.58 182.05 269.39 177.95C270.21 173.84 273.81 170.89 277.99 170.89C278.56 170.89 279.14 170.95 279.7 171.06C280.26 171.17 280.81 171.33 281.34 171.55C281.87 171.77 282.38 172.04 282.85 172.36C283.33 172.68 283.77 173.04 284.18 173.45L284.18 173.45Z" />
		<path id="Layer" class="shp5" d="M261.74 203.64C262.64 205.4 262.69 207.48 261.87 209.28C261.04 211.08 259.44 212.4 257.51 212.87C255.59 213.33 253.56 212.89 252 211.67C250.45 210.44 249.54 208.57 249.54 206.59C249.54 206.33 249.55 206.08 249.59 205.83C249.62 205.57 249.66 205.32 249.72 205.07C249.78 204.82 249.86 204.58 249.95 204.34C250.04 204.1 250.14 203.87 250.26 203.64L252.65 199.01C252.97 198.4 253.45 197.88 254.04 197.52C254.63 197.16 255.31 196.97 256 196.97C256.69 196.97 257.37 197.16 257.96 197.52C258.55 197.88 259.03 198.4 259.35 199.01L261.74 203.64Z" />
		<path id="Layer" class="shp5" d="M240.2 173.45C243.16 176.4 243.62 181.04 241.3 184.52C238.98 188 234.53 189.35 230.66 187.75C226.8 186.15 224.6 182.05 225.41 177.95C226.23 173.84 229.83 170.89 234.01 170.89C234.58 170.89 235.16 170.95 235.72 171.06C236.28 171.17 236.83 171.33 237.36 171.55C237.89 171.77 238.4 172.04 238.87 172.36C239.35 172.68 239.79 173.04 240.2 173.45L240.2 173.45Z" />
	</g>
	<path id="Layer" class="shp6" d="M51.56 147.71C54.72 144.25 63.27 152.13 67.46 149.92C70.25 148.45 72.06 144.67 73.99 141.21C72.34 140.12 70.62 139.14 68.82 138.3C67.03 137.46 65.18 136.75 63.29 136.17C61.39 135.6 59.46 135.17 57.5 134.89C55.54 134.6 53.56 134.46 51.58 134.46C44.72 134.46 43.12 146.94 37.46 149.92C33.27 152.13 24.72 144.25 21.56 147.71C19.87 149.56 18.35 151.56 17.03 153.69C15.71 155.83 14.59 158.08 13.69 160.42C12.78 162.76 12.1 165.18 11.65 167.64C11.2 170.11 10.98 172.61 10.99 175.12L12.18 395.19C14.25 393.21 16.45 391.37 18.77 389.69C21.09 388 23.52 386.47 26.05 385.11C28.57 383.75 31.18 382.57 33.86 381.55C36.55 380.54 39.29 379.71 42.09 379.07L40.99 175.12C40.97 172.61 41.2 170.11 41.65 167.64C42.1 165.18 42.78 162.76 43.68 160.42C44.59 158.08 45.71 155.83 47.03 153.69C48.35 151.56 49.87 149.56 51.56 147.71L51.56 147.71Z" />
	<path id="Layer" class="shp7" d="M170.48 189.26C170.48 187.87 170.51 186.48 170.57 185.1C172.67 130.86 215.78 86.61 271.01 79.75C269.77 79.6 268.52 79.46 267.27 79.34C266.02 79.23 264.77 79.13 263.52 79.05C262.27 78.98 261.01 78.92 259.76 78.88C258.51 78.84 257.25 78.82 256 78.82C193.77 78.82 142.86 126.04 140.57 185.1C140.51 186.48 140.48 187.87 140.48 189.26C140.48 274.97 256 348.82 256 348.82C256 348.82 261.89 345.05 271 338.24C239.74 314.88 170.48 255.63 170.48 189.26L170.48 189.26Z" />
	<path id="Layer" class="shp8" d="M37.52 201.04C36.74 201.04 35.96 200.88 35.23 200.58C34.5 200.28 33.84 199.84 33.28 199.28C32.72 198.73 32.28 198.06 31.98 197.34C31.68 196.61 31.52 195.83 31.52 195.04L31.52 188.37C31.52 186.78 32.16 185.26 33.28 184.13C34.41 183.01 35.93 182.37 37.52 182.37C39.12 182.37 40.64 183.01 41.77 184.13C42.89 185.26 43.52 186.78 43.52 188.37L43.52 195.04C43.52 195.83 43.37 196.61 43.07 197.34C42.77 198.06 42.32 198.73 41.77 199.28C41.21 199.84 40.55 200.28 39.82 200.58C39.09 200.88 38.31 201.04 37.52 201.04Z" />
	<path id="Layer" class="shp8" d="M37.52 285.5C36.74 285.5 35.96 285.35 35.23 285.05C34.5 284.75 33.84 284.3 33.28 283.75C32.72 283.19 32.28 282.53 31.98 281.8C31.68 281.07 31.52 280.29 31.52 279.5L31.52 216.67C31.52 215.08 32.16 213.55 33.28 212.43C34.41 211.3 35.93 210.67 37.52 210.67C39.12 210.67 40.64 211.3 41.77 212.43C42.89 213.55 43.52 215.08 43.52 216.67L43.52 279.5C43.52 280.29 43.37 281.07 43.07 281.8C42.77 282.53 42.32 283.19 41.77 283.75C41.21 284.3 40.55 284.75 39.82 285.05C39.09 285.35 38.31 285.5 37.52 285.5Z" />
	<path id="Layer" class="shp5" d="M249.47 245.06C248.68 245.06 247.9 244.9 247.17 244.6C246.44 244.3 245.78 243.86 245.22 243.3C244.67 242.74 244.22 242.08 243.92 241.35C243.62 240.62 243.47 239.84 243.47 239.06L243.47 232.76C243.47 231.16 244.1 229.64 245.22 228.51C246.35 227.39 247.87 226.76 249.47 226.76C251.06 226.76 252.58 227.39 253.71 228.51C254.83 229.64 255.47 231.16 255.47 232.76L255.47 239.06C255.47 239.84 255.31 240.62 255.01 241.35C254.71 242.08 254.26 242.74 253.71 243.3C253.15 243.86 252.49 244.3 251.76 244.6C251.03 244.9 250.25 245.06 249.47 245.06Z" />
	<path id="Layer" class="shp5" d="M262.54 245.06C261.75 245.06 260.97 244.9 260.24 244.6C259.51 244.3 258.85 243.86 258.29 243.3C257.74 242.74 257.29 242.08 256.99 241.35C256.69 240.62 256.54 239.84 256.54 239.06L256.54 232.76C256.54 231.16 257.17 229.64 258.29 228.51C259.42 227.39 260.94 226.76 262.54 226.76C264.13 226.76 265.65 227.39 266.78 228.51C267.9 229.64 268.54 231.16 268.54 232.76L268.54 239.06C268.54 239.84 268.38 240.62 268.08 241.35C267.78 242.08 267.33 242.74 266.78 243.3C266.22 243.86 265.56 244.3 264.83 244.6C264.1 244.9 263.32 245.06 262.54 245.06Z" />
</svg>