<svg version="1.2" xmlns="http://www.w3.org/2000/svg" viewBox="0 0 128 128" width="128" height="128">
	<title>pickaxe_adamant-svg</title>
	<style>
		.s0 { fill: #9b8933 } 
		.s1 { fill: #928130 } 
		.s2 { fill: #fb8c00 } 
		.s3 { fill: #ef6c00 } 
	</style>
	<g id="Layer">
		<path id="Layer" class="s0" d="m96.9 50l-2 2-8.9-0.8-9.2-9.2-0.8-8.9 2-2-29.3-29.4q5.5 1.1 10.8 2.8 5.3 1.7 10.3 4.1 5.1 2.4 9.8 5.3 4.7 3 9 6.5l2.4-2.3 18.9 18.9-2.3 2.3q3.5 4.4 6.5 9.1 2.9 4.7 5.3 9.8 2.4 5 4.1 10.3 1.7 5.3 2.7 10.8z"/>
		<path id="Layer" class="s1" d="m114.1 48.4q2.9 4.7 5.3 9.8 2.4 5 4.1 10.3 1.7 5.3 2.7 10.8l-29.3-29.3-2 2-8.9-0.8-3.5-3.5 8.9 0.8 2-2 27 26.9q-1.1-5.4-2.8-10.7-1.7-5.4-4.1-10.4-2.3-5.1-5.3-9.8-3-4.7-6.5-9l2.3-2.4 5.9 5.9-2.3 2.3q3.5 4.4 6.5 9.1z"/>
		<path id="Layer" class="s2" d="m76.8 42l9.2 9.2-75.1 75-9.1-9.1z"/>
		<path id="Layer" class="s2" d="m102.3 16.5l9.2 9.1-6.5 6.5-9.1-9.2z"/>
		<path id="Layer" class="s3" d="m7.5 122.8l75-75.1 3.5 3.5-75.1 75z"/>
		<path id="Layer" class="s3" d="m101.6 28.7l6.5-6.5 3.4 3.5-6.5 6.4z"/>
		<path id="Layer" class="s1" d="m97 42q-0.2 0-0.4-0.1-0.2 0-0.3-0.1-0.2 0-0.3-0.1-0.2-0.1-0.3-0.3l-9.1-9.1c-0.4-0.3-0.6-0.8-0.6-1.3 0-0.4 0.2-0.9 0.6-1.2 0.3-0.3 0.7-0.5 1.2-0.5 0.5 0 0.9 0.2 1.2 0.5l9.2 9.2q0.4 0.3 0.5 0.9 0.1 0.5-0.1 1-0.2 0.5-0.7 0.8-0.4 0.3-0.9 0.3z"/>
	</g>
</svg>