<svg xmlns="http://www.w3.org/2000/svg" viewBox="0 0 512 512" width="512" height="512">
	<style>
		tspan { white-space:pre }
		.shp0 { fill: #92bd00 } 
		.shp1 { fill: #80a51a } 
		.shp2 { fill: #b7dc3c } 
		.shp3 { fill: #a6d22e } 
		.shp4 { fill: #68544f } 
		.shp5 { fill: #53433f } 
		.shp6 { fill: #fff5f5 } 
		.shp7 { fill: #efe2dd } 
	</style>
	<path id="Layer" class="shp0" d="M139.4 31.29C137.08 30.13 134.32 30.24 132.1 31.62C129.89 32.99 128.54 35.4 128.54 38L128.54 83C128.54 109.84 144.94 134.13 169.54 144.88L195.7 59.19L139.4 31.29Z" />
	<path id="Layer" class="shp1" d="M380.99 31.62C378.78 30.24 376.01 30.13 373.69 30.79L313.19 60.79L343.55 144.88C368.15 134.13 384.54 109.84 384.54 83L384.54 38C384.54 35.4 383.2 32.99 380.99 31.62Z" />
	<path id="Layer" class="shp2" d="M354.04 167.6C354.04 201.35 330.95 230.8 298.54 238.75C293.74 249.1 283.1 256 271.54 256C266.29 256 261.04 254.5 256.54 251.95C252.04 254.5 246.79 256 241.54 256C229.99 256 219.35 249.1 214.54 238.75C182.14 230.8 159.04 201.35 159.04 167.6C159.04 160.55 160.1 153.5 162.2 146.6L184.99 70.55L208.25 74.75L189.35 56L191.45 48.95C200.14 20 226.24 0 256.54 0C286.85 0 312.95 20 321.64 48.95L323.74 56L304.84 74.75L328.1 70.55L350.89 146.6C352.99 153.5 354.04 160.55 354.04 167.6L354.04 167.6Z" />
	<path id="Layer" class="shp3" d="M354.04 167.6C354.04 201.35 330.95 230.8 298.54 238.75C293.74 249.1 283.1 256 271.54 256C266.29 256 261.04 254.5 256.54 251.95L256.54 0C286.85 0 312.95 20 321.64 48.95L323.74 56L304.84 74.75L328.1 70.55L350.89 146.6C352.99 153.5 354.04 160.55 354.04 167.6L354.04 167.6Z" />
	<path id="Layer" class="shp4" d="M233.25 86.36C235.11 82.65 233.61 78.14 229.9 76.29L189.31 56L184.94 70.58L223.19 89.71C226.93 91.57 231.41 90.04 233.25 86.36Z" />
	<path id="Layer" class="shp5" d="M283.19 76.29C279.48 78.14 277.98 82.65 279.84 86.36C281.68 90.03 286.16 91.57 289.9 89.71L328.15 70.58L323.78 56L283.19 76.29Z" />
	<path id="Layer" class="shp6" d="M228.16 193L219.84 176.36C217.98 172.65 219.48 168.14 223.19 166.29C226.89 164.46 231.4 165.94 233.25 169.64L241.58 186.29C243.43 190 241.93 194.5 238.23 196.36C234.48 198.22 230.01 196.68 228.16 193L228.16 193Z" />
	<path id="Layer" class="shp7" d="M274.86 196.36C271.16 194.5 269.66 190 271.51 186.29L279.84 169.64C281.7 165.94 286.2 164.46 289.9 166.29C293.61 168.14 295.11 172.65 293.25 176.36L284.93 193C283.08 196.68 278.6 198.21 274.86 196.36L274.86 196.36Z" />
	<path id="Layer" class="shp0" d="M278.74 106.7C277.1 88.55 268.1 75.5 256.54 75.5C244.99 75.5 235.99 88.55 234.35 106.7C225.49 109.7 219.04 118.1 219.04 128C219.04 138.2 225.79 146.75 234.95 149.6C237.79 158.75 246.35 165.5 256.54 165.5C266.74 165.5 275.29 158.75 278.14 149.6C287.29 146.75 294.04 138.2 294.04 128C294.04 118.1 287.6 109.7 278.74 106.7L278.74 106.7Z" />
	<path id="Layer" class="shp1" d="M256.54 165.5L256.54 75.5C268.1 75.5 277.1 88.55 278.74 106.7C287.6 109.7 294.04 118.1 294.04 128C294.04 138.2 287.29 146.75 278.14 149.6C275.29 158.75 266.74 165.5 256.54 165.5L256.54 165.5Z" />
	<path id="Layer" class="shp0" d="M306.79 208.25C297.2 218 293.29 195.5 265.39 195.5L247.7 195.5C236.29 195.5 225.04 200.15 216.79 208.25C213.95 211.25 209.14 211.25 206.29 208.25C203.29 205.4 203.29 200.6 206.29 197.75C217.24 186.8 232.24 180.5 247.7 180.5L265.39 180.5C280.85 180.5 295.85 186.8 306.79 197.75C309.79 200.6 309.79 205.4 306.79 208.25Z" />
	<path id="Layer" class="shp1" d="M306.79 208.25C297.2 218 293.29 195.5 265.39 195.5L256.54 195.5L256.54 180.5L265.39 180.5C280.85 180.5 295.85 186.8 306.79 197.75C309.79 200.6 309.79 205.4 306.79 208.25Z" />
	<path id="Layer copy" class="shp0" d="M10.86 287.29C8.53 286.13 5.77 286.24 3.56 287.62C1.35 288.99 0 291.4 0 294L0 339C0 365.84 16.39 390.13 41 400.87L67.16 315.19L10.86 287.29Z" />
	<path id="Layer copy 2" class="shp1" d="M252.44 287.62C250.24 286.24 247.47 286.13 245.14 286.79L184.64 316.79L215 400.87C239.61 390.13 256 365.84 256 339L256 294C256 291.4 254.65 288.99 252.44 287.62Z" />
	<path id="Layer copy 3" class="shp2" d="M225.5 423.6C225.5 457.35 202.4 486.8 170 494.75C165.2 505.1 154.55 512 143 512C137.75 512 132.5 510.5 128 507.95C123.5 510.5 118.25 512 113 512C101.45 512 90.8 505.1 86 494.75C53.6 486.8 30.5 457.35 30.5 423.6C30.5 416.55 31.55 409.5 33.65 402.6L56.45 326.55L79.7 330.75L60.8 312L62.9 304.95C71.6 276 97.7 256 128 256C158.3 256 184.4 276 193.1 304.95L195.2 312L176.3 330.75L199.55 326.55L222.35 402.6C224.45 409.5 225.5 416.55 225.5 423.6L225.5 423.6Z" />
	<path id="Layer copy 4" class="shp3" d="M225.5 423.6C225.5 457.35 202.4 486.8 170 494.75C165.2 505.1 154.55 512 143 512C137.75 512 132.5 510.5 128 507.95L128 256C158.3 256 184.4 276 193.1 304.95L195.2 312L176.3 330.75L199.55 326.55L222.35 402.6C224.45 409.5 225.5 416.55 225.5 423.6L225.5 423.6Z" />
	<path id="Layer copy 5" class="shp4" d="M104.71 342.36C106.56 338.65 105.06 334.14 101.36 332.29L60.77 312L56.39 326.58L94.64 345.71C98.38 347.57 102.86 346.04 104.71 342.36Z" />
	<path id="Layer copy 6" class="shp5" d="M154.64 332.29C150.94 334.14 149.44 338.65 151.29 342.36C153.13 346.03 157.61 347.57 161.36 345.71L199.61 326.58L195.23 312L154.64 332.29Z" />
	<path id="Layer copy 7" class="shp6" d="M99.62 449L91.29 432.36C89.44 428.65 90.94 424.14 94.64 422.29C98.34 420.46 102.86 421.94 104.71 425.64L113.04 442.29C114.89 446 113.39 450.5 109.68 452.36C105.94 454.22 101.46 452.68 99.62 449L99.62 449Z" />
	<path id="Layer copy 8" class="shp7" d="M146.32 452.36C142.61 450.5 141.11 446 142.96 442.29L151.29 425.64C153.15 421.94 157.66 420.46 161.36 422.29C165.06 424.14 166.56 428.65 164.71 432.36L156.38 449C154.54 452.68 150.06 454.21 146.32 452.36L146.32 452.36Z" />
	<path id="Layer copy 9" class="shp0" d="M150.2 362.7C148.55 344.55 139.55 331.5 128 331.5C116.45 331.5 107.45 344.55 105.8 362.7C96.95 365.7 90.5 374.1 90.5 384C90.5 394.2 97.25 402.75 106.4 405.6C109.25 414.75 117.8 421.5 128 421.5C138.2 421.5 146.75 414.75 149.6 405.6C158.75 402.75 165.5 394.2 165.5 384C165.5 374.1 159.05 365.7 150.2 362.7L150.2 362.7Z" />
	<path id="Layer copy 10" class="shp1" d="M128 421.5L128 331.5C139.55 331.5 148.55 344.55 150.2 362.7C159.05 365.7 165.5 374.1 165.5 384C165.5 394.2 158.75 402.75 149.6 405.6C146.75 414.75 138.2 421.5 128 421.5L128 421.5Z" />
	<path id="Layer copy 11" class="shp0" d="M178.25 464.25C168.65 474 164.75 451.5 136.85 451.5L119.15 451.5C107.75 451.5 96.5 456.15 88.25 464.25C85.4 467.25 80.6 467.25 77.75 464.25C74.75 461.4 74.75 456.6 77.75 453.75C88.7 442.8 103.7 436.5 119.15 436.5L136.85 436.5C152.3 436.5 167.3 442.8 178.25 453.75C181.25 456.6 181.25 461.4 178.25 464.25Z" />
	<path id="Layer copy 12" class="shp1" d="M178.25 464.25C168.65 474 164.75 451.5 136.85 451.5L128 451.5L128 436.5L136.85 436.5C152.3 436.5 167.3 442.8 178.25 453.75C181.25 456.6 181.25 461.4 178.25 464.25Z" />
	<path id="Layer copy 13" class="shp0" d="M266.86 287.29C264.53 286.13 261.77 286.24 259.56 287.62C257.35 288.99 256 291.4 256 294L256 339C256 365.84 272.39 390.13 297 400.87L323.16 315.19L266.86 287.29Z" />
	<path id="Layer copy 14" class="shp1" d="M508.44 287.62C506.24 286.24 503.47 286.13 501.14 286.79L440.64 316.79L471 400.87C495.61 390.13 512 365.84 512 339L512 294C512 291.4 510.65 288.99 508.44 287.62Z" />
	<path id="Layer copy 15" class="shp2" d="M481.5 423.6C481.5 457.35 458.4 486.8 426 494.75C421.2 505.1 410.55 512 399 512C393.75 512 388.5 510.5 384 507.95C379.5 510.5 374.25 512 369 512C357.45 512 346.8 505.1 342 494.75C309.6 486.8 286.5 457.35 286.5 423.6C286.5 416.55 287.55 409.5 289.65 402.6L312.45 326.55L335.7 330.75L316.8 312L318.9 304.95C327.6 276 353.7 256 384 256C414.3 256 440.4 276 449.1 304.95L451.2 312L432.3 330.75L455.55 326.55L478.35 402.6C480.45 409.5 481.5 416.55 481.5 423.6L481.5 423.6Z" />
	<path id="Layer copy 16" class="shp3" d="M481.5 423.6C481.5 457.35 458.4 486.8 426 494.75C421.2 505.1 410.55 512 399 512C393.75 512 388.5 510.5 384 507.95L384 256C414.3 256 440.4 276 449.1 304.95L451.2 312L432.3 330.75L455.55 326.55L478.35 402.6C480.45 409.5 481.5 416.55 481.5 423.6L481.5 423.6Z" />
	<path id="Layer copy 17" class="shp4" d="M360.71 342.36C362.56 338.65 361.06 334.14 357.36 332.29L316.77 312L312.39 326.58L350.64 345.71C354.38 347.57 358.86 346.04 360.71 342.36Z" />
	<path id="Layer copy 18" class="shp5" d="M410.64 332.29C406.94 334.14 405.44 338.65 407.29 342.36C409.13 346.03 413.61 347.57 417.36 345.71L455.61 326.58L451.23 312L410.64 332.29Z" />
	<path id="Layer copy 19" class="shp6" d="M355.62 449L347.29 432.36C345.44 428.65 346.94 424.14 350.64 422.29C354.34 420.46 358.86 421.94 360.71 425.64L369.04 442.29C370.89 446 369.39 450.5 365.68 452.36C361.94 454.22 357.46 452.68 355.62 449L355.62 449Z" />
	<path id="Layer copy 20" class="shp7" d="M402.32 452.36C398.61 450.5 397.11 446 398.96 442.29L407.29 425.64C409.15 421.94 413.66 420.46 417.36 422.29C421.06 424.14 422.56 428.65 420.71 432.36L412.38 449C410.54 452.68 406.06 454.21 402.32 452.36L402.32 452.36Z" />
	<path id="Layer copy 21" class="shp0" d="M406.2 362.7C404.55 344.55 395.55 331.5 384 331.5C372.45 331.5 363.45 344.55 361.8 362.7C352.95 365.7 346.5 374.1 346.5 384C346.5 394.2 353.25 402.75 362.4 405.6C365.25 414.75 373.8 421.5 384 421.5C394.2 421.5 402.75 414.75 405.6 405.6C414.75 402.75 421.5 394.2 421.5 384C421.5 374.1 415.05 365.7 406.2 362.7L406.2 362.7Z" />
	<path id="Layer copy 22" class="shp1" d="M384 421.5L384 331.5C395.55 331.5 404.55 344.55 406.2 362.7C415.05 365.7 421.5 374.1 421.5 384C421.5 394.2 414.75 402.75 405.6 405.6C402.75 414.75 394.2 421.5 384 421.5L384 421.5Z" />
	<path id="Layer copy 23" class="shp0" d="M434.25 464.25C424.65 474 420.75 451.5 392.85 451.5L375.15 451.5C363.75 451.5 352.5 456.15 344.25 464.25C341.4 467.25 336.6 467.25 333.75 464.25C330.75 461.4 330.75 456.6 333.75 453.75C344.7 442.8 359.7 436.5 375.15 436.5L392.85 436.5C408.3 436.5 423.3 442.8 434.25 453.75C437.25 456.6 437.25 461.4 434.25 464.25Z" />
	<path id="Layer copy 24" class="shp1" d="M434.25 464.25C424.65 474 420.75 451.5 392.85 451.5L384 451.5L384 436.5L392.85 436.5C408.3 436.5 423.3 442.8 434.25 453.75C437.25 456.6 437.25 461.4 434.25 464.25Z" />
</svg>