<svg xmlns="http://www.w3.org/2000/svg" viewBox="0 0 512 512" width="512" height="512"><style>tspan { white-space:pre }.shp0 { fill: #92bd00 } .shp1 { fill: #80a51a } .shp2 { fill: #b7dc3c } .shp3 { fill: #a6d22e } .shp4 { fill: #68544f } .shp5 { fill: #53433f } .shp6 { fill: #fff5f5 } .shp7 { fill: #efe2dd } .shp8 { fill: #62d9fa } .shp9 { fill: #98e5fa } .shp10 { fill: #c8effc } .shp11 { fill: #52cef0 } .shp12 { fill: #8bdef5 } </style><path id="Layer" class="shp0" d="M21.71 62.58C17.07 60.27 11.54 60.49 7.12 63.24C2.7 65.98 0 70.8 0 76L0 166C0 219.69 32.79 268.26 81.99 289.75L134.31 118.38L21.71 62.58Z" /><path id="Layer" class="shp1" d="M504.88 63.24C500.47 60.49 494.93 60.25 490.29 61.58L369.29 121.58L430.01 289.75C479.21 268.26 512 219.69 512 166L512 76C512 70.8 509.3 65.98 504.88 63.24Z" /><path id="Layer" class="shp2" d="M451 335.2C451 402.7 404.8 461.6 340 477.5C330.4 498.2 309.1 512 286 512C275.5 512 265 509 256 503.9C247 509 236.5 512 226 512C202.9 512 181.6 498.2 172 477.5C107.2 461.6 61 402.7 61 335.2C61 321.1 63.1 307 67.3 293.2L112.9 141.1L159.4 149.5L121.6 112L125.8 97.9C143.2 40 195.4 0 256 0C316.6 0 368.8 40 386.2 97.9L390.4 112L352.6 149.5L399.1 141.1L444.7 293.2C448.9 307 451 321.1 451 335.2L451 335.2Z" /><path id="Layer" class="shp3" d="M451 335.2C451 402.7 404.8 461.6 340 477.5C330.4 498.2 309.1 512 286 512C275.5 512 265 509 256 503.9L256 0C316.6 0 368.8 40 386.2 97.9L390.4 112L352.6 149.5L399.1 141.1L444.7 293.2C448.9 307 451 321.1 451 335.2L451 335.2Z" /><path id="Layer" class="shp4" d="M209.42 172.71C213.13 165.3 210.12 156.29 202.71 152.58L121.53 112L112.79 141.16L189.29 179.42C196.77 183.13 205.73 180.07 209.42 172.71Z" /><path id="Layer" class="shp5" d="M309.29 152.58C301.88 156.29 298.88 165.3 302.58 172.71C306.27 180.06 315.22 183.14 322.71 179.42L399.21 141.17L390.47 112L309.29 152.58Z" /><path id="Layer" class="shp6" d="M199.24 386L182.58 352.71C178.88 345.3 181.88 336.29 189.29 332.58C196.69 328.92 205.71 331.88 209.42 339.29L226.07 372.59C229.78 380 226.78 389.01 219.36 392.71C211.88 396.43 202.93 393.36 199.24 386L199.24 386Z" /><path id="Layer" class="shp7" d="M292.64 392.71C285.22 389.01 282.22 380 285.93 372.59L302.58 339.29C306.3 331.88 315.31 328.92 322.71 332.58C330.12 336.29 333.13 345.3 329.42 352.71L312.76 386C309.07 393.37 300.12 396.43 292.64 392.71L292.64 392.71Z" /><path id="Layer" class="shp0" d="M300.4 213.4C297.1 177.1 279.1 151 256 151C232.9 151 214.9 177.1 211.6 213.4C193.9 219.4 181 236.2 181 256C181 276.4 194.5 293.5 212.8 299.2C218.5 317.5 235.6 331 256 331C276.4 331 293.5 317.5 299.2 299.2C317.5 293.5 331 276.4 331 256C331 236.2 318.1 219.4 300.4 213.4L300.4 213.4Z" /><path id="Layer" class="shp1" d="M256 331L256 151C279.1 151 297.1 177.1 300.4 213.4C318.1 219.4 331 236.2 331 256C331 276.4 317.5 293.5 299.2 299.2C293.5 317.5 276.4 331 256 331L256 331Z" /><path id="Layer" class="shp0" d="M356.5 416.5C337.3 436 329.5 391 273.7 391L238.3 391C215.5 391 193 400.3 176.5 416.5C170.8 422.5 161.2 422.5 155.5 416.5C149.5 410.8 149.5 401.2 155.5 395.5C177.4 373.6 207.4 361 238.3 361L273.7 361C304.6 361 334.6 373.6 356.5 395.5C362.5 401.2 362.5 410.8 356.5 416.5Z" /><path id="Layer" class="shp1" d="M356.5 416.5C337.3 436 329.5 391 273.7 391L256 391L256 361L273.7 361C304.6 361 334.6 373.6 356.5 395.5C362.5 401.2 362.5 410.8 356.5 416.5Z" /><g id="Layer"><path id="Layer" fill-rule="evenodd" class="shp8" d="M0 497.15L512 497.15L512 331.78C512 323.9 508.12 319.36 499.78 316.61C483.06 311.08 466.53 298.36 449.83 298.36C428.29 298.36 406.75 319.36 385.23 319.36C363.69 319.36 342.14 298.36 320.6 298.36C299.09 298.36 277.54 319.36 256 319.36C234.46 319.36 212.94 298.36 191.4 298.36C169.85 298.36 148.31 319.36 126.79 319.36C105.25 319.36 83.71 298.36 62.16 298.36C45.41 298.36 28.97 310.94 12.22 316.61C1.79 320.13 0 327.33 0 331.78L0 497.15Z" /><path id="Layer" fill-rule="evenodd" class="shp9" d="M0 369.45L0 497.15L512 497.15L512 369.45C491.28 370.9 470.56 390.34 449.83 390.34C428.29 390.34 406.75 369.36 385.23 369.36C363.69 369.36 342.14 390.34 320.6 390.34C299.09 390.34 277.54 369.36 256 369.36C234.46 369.36 212.94 390.34 191.4 390.34C169.85 390.34 148.31 369.36 126.79 369.36C105.25 369.36 83.71 390.34 62.16 390.34C41.44 390.34 20.72 370.9 0 369.45L0 369.45Z" /><path id="Layer" fill-rule="evenodd" class="shp10" d="M62.16 440.35C41.44 440.35 20.72 459.79 0 461.27L0 499.65C0 508.75 4.48 512.15 12.5 512.15L499.5 512.15C508.26 512.15 512 508.18 512 499.65L512 461.27C491.28 459.79 470.56 440.35 449.83 440.35C428.29 440.35 406.75 461.35 385.23 461.35C363.69 461.35 342.14 440.35 320.6 440.35C299.09 440.35 277.54 461.35 256 461.35C234.46 461.35 212.94 440.35 191.4 440.35C169.85 440.35 148.31 461.35 126.79 461.35C105.25 461.35 83.71 440.35 62.16 440.35L62.16 440.35Z" /></g><path id="Layer" fill-rule="evenodd" class="shp11" d="M126.8 344.36C105.25 344.36 83.71 365.37 62.17 365.37C41.44 365.37 20.72 345.92 0 344.45L0 369.45C20.72 370.9 41.44 390.34 62.17 390.34C83.71 390.34 105.25 369.36 126.8 369.36C148.31 369.36 169.86 390.34 191.4 390.34C199.79 390.34 208.15 387.17 216.54 383.28C229.69 377.19 242.85 369.37 256 369.37C269.15 369.37 282.31 377.19 295.46 383.28C303.85 387.17 312.24 390.34 320.6 390.34C342.15 390.34 363.69 369.36 385.23 369.36C406.75 369.36 428.29 390.34 449.84 390.34C470.56 390.34 491.28 370.9 512 369.45L512 344.45C491.28 345.92 470.56 365.37 449.84 365.37C428.29 365.37 406.75 344.36 385.23 344.36C368.51 344.36 351.81 356.98 335.12 362.65C330.27 364.29 325.45 365.37 320.6 365.37C299.09 365.37 277.54 344.36 256 344.36C234.46 344.36 212.94 365.37 191.4 365.37C186.58 365.37 181.73 364.29 176.91 362.65C160.19 356.98 143.49 344.36 126.79 344.36L126.8 344.36Z" /><path id="Layer" fill-rule="evenodd" class="shp12" d="M62.16 415.34C41.44 415.34 20.72 434.79 0 436.26L0 461.26C20.72 459.79 41.44 440.34 62.16 440.34C83.71 440.34 105.25 461.35 126.79 461.35C148.31 461.35 169.85 440.34 191.4 440.34C212.94 440.34 234.46 461.35 256 461.35C277.54 461.35 299.09 440.34 320.6 440.34C342.15 440.34 363.69 461.35 385.23 461.35C406.75 461.35 428.29 440.34 449.84 440.34C470.56 440.34 491.28 459.79 512 461.26L512 436.26C491.28 434.79 470.56 415.34 449.84 415.34C428.29 415.34 406.75 436.35 385.23 436.35C363.69 436.35 342.15 415.34 320.6 415.34C299.09 415.34 277.54 436.35 256 436.35C234.46 436.35 212.94 415.34 191.4 415.34C169.85 415.34 148.31 436.35 126.79 436.35C105.25 436.35 83.71 415.34 62.16 415.34L62.16 415.34Z" /></svg>