<svg xmlns="http://www.w3.org/2000/svg" viewBox="0 0 300.15 85.66"><defs><style>.cls-1{fill:#009245;}</style></defs><g id="Layer_2" data-name="Layer 2"><g id="Layer_1-2" data-name="Layer 1"><path class="cls-1" d="M42.69,15.51V98.22H25.2V32.11h-.48L5.78,44V28.47l20.47-13Z" transform="translate(-5.78 -14.38)"/><path class="cls-1" d="M94.79,100a31.41,31.41,0,0,1-17.92-5.13A32.23,32.23,0,0,1,65.36,80.17q-4-9.66-4-23.23t4-23.06A31.69,31.69,0,0,1,76.91,19.36a31.58,31.58,0,0,1,17.88-5,31.43,31.43,0,0,1,17.87,5A31.88,31.88,0,0,1,124.19,33.9q4,9.51,4,23t-4,23.27A32.26,32.26,0,0,1,112.68,95,31.06,31.06,0,0,1,94.79,100Zm0-14.5q7.09,0,11.34-7.15t4.2-21.45a54.71,54.71,0,0,0-1.91-15.67Q106.5,35,103,31.86a11.86,11.86,0,0,0-8.21-3.15q-7.08,0-11.31,7.07T79.2,56.94a56.29,56.29,0,0,0,1.91,15.9Q83,79.2,86.55,82.37A11.92,11.92,0,0,0,94.79,85.54Z" transform="translate(-5.78 -14.38)"/><path class="cls-1" d="M141.11,98.22V15.51h33.12q9.12,0,15.22,2.7a20.33,20.33,0,0,1,9.17,7.5,20,20,0,0,1,3.07,11,17.89,17.89,0,0,1-1.94,8.5,16.53,16.53,0,0,1-5.31,6,21.85,21.85,0,0,1-7.7,3.29v.81A18.6,18.6,0,0,1,195.61,58a19,19,0,0,1,6.72,6.89,20.44,20.44,0,0,1,2.59,10.52,21.55,21.55,0,0,1-3.25,11.73,22.11,22.11,0,0,1-9.59,8.14q-6.35,3-15.63,3Zm17.49-48.1h13a15.46,15.46,0,0,0,6.4-1.27,10.68,10.68,0,0,0,4.44-3.62A9.55,9.55,0,0,0,184,39.62a9.11,9.11,0,0,0-3.17-7.23c-2.12-1.83-5.11-2.75-9-2.75H158.6Zm0,33.8h14.25q7.31,0,10.66-2.8a9.29,9.29,0,0,0,3.36-7.5,10.88,10.88,0,0,0-6.37-10.17,16.21,16.21,0,0,0-7.24-1.5H158.6Z" transform="translate(-5.78 -14.38)"/><path class="cls-1" d="M216.27,15.51h21.56l22.78,55.57h1l22.78-55.57h21.56V98.22H289V44.38h-.69l-21.4,53.43H255.32L233.91,44.18h-.68v54h-17Z" transform="translate(-5.78 -14.38)"/></g></g></svg>