<svg xmlns="http://www.w3.org/2000/svg" viewBox="0 0 194.46 85.01"><defs><style>.cls-1{fill:#009245;}</style></defs><g id="Layer_2" data-name="Layer 2"><g id="Layer_1-2" data-name="Layer 1"><path class="cls-1" d="M42.69,15.51V98.22H25.2V32.11h-.48L5.78,44V28.47l20.47-13Z" transform="translate(-5.78 -14.38)"/><path class="cls-1" d="M62.84,98.22V15.51H95.47a35.36,35.36,0,0,1,16,3.33,23.54,23.54,0,0,1,10.14,9.41,28.14,28.14,0,0,1,3.5,14.28,27,27,0,0,1-3.56,14.15,23,23,0,0,1-10.28,9.07A38.08,38.08,0,0,1,95,68.9H73.18V54.84h19a21.76,21.76,0,0,0,8.32-1.37,10,10,0,0,0,5-4.12,13.12,13.12,0,0,0,1.63-6.82,13.67,13.67,0,0,0-1.63-7,10.4,10.4,0,0,0-5-4.3,20.82,20.82,0,0,0-8.38-1.48H80.33V98.22Zm44.67-37.64,20.55,37.64h-19.3L88.65,60.58Z" transform="translate(-5.78 -14.38)"/><path class="cls-1" d="M182.34,39.3a10.23,10.23,0,0,0-4.16-7.6q-3.68-2.7-10-2.7A19.19,19.19,0,0,0,161,30.19a10.06,10.06,0,0,0-4.5,3.29,7.79,7.79,0,0,0-1.56,4.77,6.68,6.68,0,0,0,1,3.87A9.22,9.22,0,0,0,158.72,45a20.53,20.53,0,0,0,4.2,2.06A40,40,0,0,0,168,48.5l7.43,1.78a52.79,52.79,0,0,1,9.93,3.23,30.16,30.16,0,0,1,7.84,5,21,21,0,0,1,5.15,7,22.09,22.09,0,0,1,1.87,9.16,22.83,22.83,0,0,1-3.85,13.15,24.61,24.61,0,0,1-11,8.6,44,44,0,0,1-17.26,3,45.28,45.28,0,0,1-17.43-3.07,25.36,25.36,0,0,1-11.55-9.11q-4.14-6-4.34-15h16.92a12.58,12.58,0,0,0,2.4,6.93,12.94,12.94,0,0,0,5.7,4.16,22.12,22.12,0,0,0,8.1,1.39,21.14,21.14,0,0,0,7.73-1.29,11.81,11.81,0,0,0,5.11-3.6,8.29,8.29,0,0,0,1.82-5.29A6.9,6.9,0,0,0,181,69.87a12.72,12.72,0,0,0-4.77-3.23,48.91,48.91,0,0,0-7.65-2.43l-9-2.26Q149.07,59.41,143,54t-6-14.58a21.56,21.56,0,0,1,4-13.13,26.8,26.8,0,0,1,11.17-8.76,39.44,39.44,0,0,1,16.15-3.15,38.33,38.33,0,0,1,16.09,3.15,25.5,25.5,0,0,1,10.73,8.76,23.24,23.24,0,0,1,3.95,13Z" transform="translate(-5.78 -14.38)"/></g></g></svg>