<svg xmlns="http://www.w3.org/2000/svg" viewBox="0 0 227.13 85.01"><defs><style>.cls-1{fill:#009245;}</style></defs><g id="Layer_2" data-name="Layer 2"><g id="Layer_1-2" data-name="Layer 1"><path class="cls-1" d="M5.45,83.68V69.91L40,15.51H51.86V34.57h-7L23.06,69v.65H72.13v14Zm39.7,14.54V79.48l.33-6.1V15.51H61.87V98.22Z" transform="translate(-5.45 -14.38)"/><path class="cls-1" d="M157.26,44.46H139.57a17.56,17.56,0,0,0-2-6.11,15.79,15.79,0,0,0-3.84-4.59,17.18,17.18,0,0,0-5.39-2.91,21,21,0,0,0-6.61-1A19.64,19.64,0,0,0,110.58,33a20.49,20.49,0,0,0-7.39,9.2,36.67,36.67,0,0,0-2.63,14.64,36.87,36.87,0,0,0,2.65,14.87,19.14,19.14,0,0,0,18.43,12.15,22,22,0,0,0,6.53-.93,16.89,16.89,0,0,0,5.35-2.72,15.56,15.56,0,0,0,3.89-4.38,17.31,17.31,0,0,0,2.16-5.9l17.69.08a31.76,31.76,0,0,1-3.41,11,32.87,32.87,0,0,1-7.31,9.41A34.14,34.14,0,0,1,135.64,97a40,40,0,0,1-14.28,2.4,38.89,38.89,0,0,1-19.77-5,35.37,35.37,0,0,1-13.73-14.5q-5-9.48-5-23t5.09-23a35.69,35.69,0,0,1,13.81-14.48,38.9,38.9,0,0,1,19.63-5,42.54,42.54,0,0,1,13.35,2,33.9,33.9,0,0,1,10.92,5.87,30.9,30.9,0,0,1,7.78,9.43A35.36,35.36,0,0,1,157.26,44.46Z" transform="translate(-5.45 -14.38)"/><path class="cls-1" d="M214.69,39.3a10.23,10.23,0,0,0-4.16-7.6q-3.67-2.7-10-2.7a19.19,19.19,0,0,0-7.23,1.19,10.15,10.15,0,0,0-4.51,3.29,7.85,7.85,0,0,0-1.55,4.77,6.68,6.68,0,0,0,.95,3.87A9.12,9.12,0,0,0,191.07,45a20.53,20.53,0,0,0,4.2,2.06,39.85,39.85,0,0,0,5.08,1.47l7.44,1.78a53,53,0,0,1,9.93,3.23,30.16,30.16,0,0,1,7.84,5,21,21,0,0,1,5.15,7,22.09,22.09,0,0,1,1.87,9.16,22.83,22.83,0,0,1-3.85,13.15,24.61,24.61,0,0,1-11,8.6,44,44,0,0,1-17.26,3,45.28,45.28,0,0,1-17.43-3.07,25.36,25.36,0,0,1-11.55-9.11q-4.14-6-4.34-15h16.92a12.58,12.58,0,0,0,2.4,6.93,12.94,12.94,0,0,0,5.7,4.16,22.1,22.1,0,0,0,8.09,1.39A21.16,21.16,0,0,0,208,83.44a11.81,11.81,0,0,0,5.11-3.6,8.28,8.28,0,0,0,1.81-5.29,6.9,6.9,0,0,0-1.63-4.68,12.72,12.72,0,0,0-4.77-3.23,48.91,48.91,0,0,0-7.65-2.43l-9-2.26q-10.45-2.54-16.51-8t-6-14.58a21.56,21.56,0,0,1,4-13.13,26.77,26.77,0,0,1,11.16-8.76,39.52,39.52,0,0,1,16.16-3.15,38.33,38.33,0,0,1,16.09,3.15,25.41,25.41,0,0,1,10.72,8.76,23.17,23.17,0,0,1,4,13Z" transform="translate(-5.45 -14.38)"/></g></g></svg>