<svg xmlns="http://www.w3.org/2000/svg" viewBox="0 0 255.85 84.97"><defs><style>.cls-1{fill:#009245;}</style></defs><g id="Layer_2" data-name="Layer 2"><g id="Layer_1-2" data-name="Layer 1"><path class="cls-1" d="M5.45,83.68V69.91L40,15.51H51.86V34.57h-7L23.06,69v.65H72.13v14Zm39.7,14.54V79.48l.33-6.1V15.51H61.87V98.22Z" transform="translate(-5.45 -14.38)"/><path class="cls-1" d="M84.29,15.51h21.56l22.78,55.57h1l22.78-55.57h21.56V98.22H157V44.38h-.69l-21.4,53.43H123.34L101.93,44.18h-.68v54h-17Z" transform="translate(-5.45 -14.38)"/><path class="cls-1" d="M261.3,44.46H243.61a17.37,17.37,0,0,0-2-6.11,15.79,15.79,0,0,0-3.84-4.59,17.18,17.18,0,0,0-5.39-2.91,20.94,20.94,0,0,0-6.6-1A19.69,19.69,0,0,0,214.61,33a20.49,20.49,0,0,0-7.39,9.2,36.67,36.67,0,0,0-2.62,14.64,37.05,37.05,0,0,0,2.64,14.87,19.14,19.14,0,0,0,18.44,12.15A22,22,0,0,0,232.2,83a16.78,16.78,0,0,0,5.35-2.72,15.75,15.75,0,0,0,3.9-4.38,17.74,17.74,0,0,0,2.16-5.9L261.3,70a32.19,32.19,0,0,1-3.41,11,33,33,0,0,1-7.31,9.41A34.3,34.3,0,0,1,239.67,97a40,40,0,0,1-14.27,2.4,38.89,38.89,0,0,1-19.77-5,35.39,35.39,0,0,1-13.74-14.5q-5-9.48-5-23t5.08-23a35.71,35.71,0,0,1,13.82-14.48,38.87,38.87,0,0,1,19.63-5,42.43,42.43,0,0,1,13.34,2,34,34,0,0,1,10.93,5.87,30.87,30.87,0,0,1,7.77,9.43A35.37,35.37,0,0,1,261.3,44.46Z" transform="translate(-5.45 -14.38)"/></g></g></svg>