<svg xmlns="http://www.w3.org/2000/svg" viewBox="0 0 222.85 84.97"><defs><style>.cls-1{fill:#009245;}</style></defs><g id="Layer_2" data-name="Layer 2"><g id="Layer_1-2" data-name="Layer 1"><path class="cls-1" d="M36.91,99.35A35.3,35.3,0,0,1,21.67,96.2a26.48,26.48,0,0,1-10.6-8.68A22.2,22.2,0,0,1,7,74.84H24a10.3,10.3,0,0,0,4,7.79,13.9,13.9,0,0,0,8.92,3,14.21,14.21,0,0,0,7.29-1.84,12.92,12.92,0,0,0,5-5.13,16.86,16.86,0,0,0,0-15.24,13.26,13.26,0,0,0-5.07-5.17,14.87,14.87,0,0,0-7.39-1.9,17.54,17.54,0,0,0-7,1.49,12.87,12.87,0,0,0-5.31,4.08L8.76,59.13l3.92-43.62H63.25V29.8H27.1L25,50.52h.48A16.13,16.13,0,0,1,32,45.43a23.44,23.44,0,0,1,9.85-2A25.07,25.07,0,0,1,64.46,56.56a28.23,28.23,0,0,1,3.35,14.08A27.92,27.92,0,0,1,64,85.48,27.33,27.33,0,0,1,53.09,95.65,34,34,0,0,1,36.91,99.35Z" transform="translate(-6.99 -14.38)"/><path class="cls-1" d="M153.47,44.46H135.78a17.37,17.37,0,0,0-2-6.11A15.79,15.79,0,0,0,130,33.76a17.18,17.18,0,0,0-5.39-2.91,20.94,20.94,0,0,0-6.6-1A19.69,19.69,0,0,0,106.78,33a20.49,20.49,0,0,0-7.39,9.2,36.67,36.67,0,0,0-2.62,14.64,37.05,37.05,0,0,0,2.64,14.87,19.14,19.14,0,0,0,18.44,12.15,22,22,0,0,0,6.52-.93,16.78,16.78,0,0,0,5.35-2.72,15.75,15.75,0,0,0,3.9-4.38,17.52,17.52,0,0,0,2.16-5.9l17.69.08a32.19,32.19,0,0,1-3.41,11,33,33,0,0,1-7.31,9.41A34.3,34.3,0,0,1,131.84,97a40,40,0,0,1-14.28,2.4,38.88,38.88,0,0,1-19.76-5,35.39,35.39,0,0,1-13.74-14.5q-5-9.48-5-23t5.09-23A35.62,35.62,0,0,1,97.94,19.36a38.86,38.86,0,0,1,19.62-5,42.45,42.45,0,0,1,13.35,2,34,34,0,0,1,10.93,5.87,30.87,30.87,0,0,1,7.77,9.43A35.37,35.37,0,0,1,153.47,44.46Z" transform="translate(-6.99 -14.38)"/><path class="cls-1" d="M166,98.22V15.51h33.11q9.13,0,15.23,2.7a20.39,20.39,0,0,1,9.17,7.5,20,20,0,0,1,3.07,11,17.89,17.89,0,0,1-1.94,8.5,16.53,16.53,0,0,1-5.31,6,21.93,21.93,0,0,1-7.7,3.29v.81A18.63,18.63,0,0,1,220.53,58a19,19,0,0,1,6.72,6.89,20.44,20.44,0,0,1,2.59,10.52,21.55,21.55,0,0,1-3.25,11.73A22.11,22.11,0,0,1,217,95.23q-6.34,3-15.63,3Zm17.48-48.1h13a15.46,15.46,0,0,0,6.4-1.27,10.68,10.68,0,0,0,4.44-3.62A9.55,9.55,0,0,0,209,39.62a9.11,9.11,0,0,0-3.17-7.23c-2.12-1.83-5.11-2.75-9-2.75H183.51Zm0,33.8h14.26q7.3,0,10.66-2.8a9.29,9.29,0,0,0,3.36-7.5,10.88,10.88,0,0,0-6.37-10.17,16.26,16.26,0,0,0-7.25-1.5H183.51Z" transform="translate(-6.99 -14.38)"/></g></g></svg>