<svg xmlns="http://www.w3.org/2000/svg" viewBox="0 0 216.67 85.22"><defs><style>.cls-1{fill:#009245;}</style></defs><g id="Layer_2" data-name="Layer 2"><g id="Layer_1-2" data-name="Layer 1"><path class="cls-1" d="M38.45,99.35a37.25,37.25,0,0,1-12.3-2.14,27.88,27.88,0,0,1-10.58-6.83A33,33,0,0,1,8.18,77.86Q5.45,70.08,5.41,58.72a69.81,69.81,0,0,1,2.4-18.78,41.41,41.41,0,0,1,6.79-14,29.66,29.66,0,0,1,10.6-8.77,31.32,31.32,0,0,1,13.85-3,31.67,31.67,0,0,1,14.62,3.24A26.89,26.89,0,0,1,68.54,38.61H51.29a11.71,11.71,0,0,0-4.24-7,12.76,12.76,0,0,0-8-2.48A13.41,13.41,0,0,0,26.8,36.17q-4.18,7-4.26,19.32h.56a19.43,19.43,0,0,1,5-6.28,23,23,0,0,1,7.23-4,26.16,26.16,0,0,1,8.58-1.39A24.48,24.48,0,0,1,66.07,56.74a28.08,28.08,0,0,1,3.31,13.77,28.73,28.73,0,0,1-3.89,14.95A27.15,27.15,0,0,1,54.62,95.69,33.55,33.55,0,0,1,38.45,99.35Zm-.08-13.73A13.62,13.62,0,0,0,50.6,78.43a16.07,16.07,0,0,0,0-14.82,13.74,13.74,0,0,0-4.94-5.21,13.47,13.47,0,0,0-7.19-1.94,13.62,13.62,0,0,0-10.08,4.28,15,15,0,0,0-3,4.67,15.29,15.29,0,0,0,.75,12.94,14.3,14.3,0,0,0,5,5.29A13.3,13.3,0,0,0,38.37,85.62Z" transform="translate(-5.41 -14.13)"/><path class="cls-1" d="M79.12,29.93V15.51h67.93V29.93H121.72V98.22H104.44V29.93Z" transform="translate(-5.41 -14.13)"/><path class="cls-1" d="M158.27,98.22V15.51h33.12q9.13,0,15.23,2.7a20.31,20.31,0,0,1,9.16,7.5,19.88,19.88,0,0,1,3.07,11,17.88,17.88,0,0,1-1.93,8.5,16.65,16.65,0,0,1-5.32,6,21.8,21.8,0,0,1-7.69,3.29v.81A18.63,18.63,0,0,1,212.78,58a19,19,0,0,1,6.72,6.89,20.53,20.53,0,0,1,2.58,10.52,21.47,21.47,0,0,1-3.25,11.73,22,22,0,0,1-9.59,8.14q-6.35,3-15.63,3Zm17.49-48.1h13a15.52,15.52,0,0,0,6.4-1.27,10.68,10.68,0,0,0,4.44-3.62,9.55,9.55,0,0,0,1.64-5.61A9.09,9.09,0,0,0,198,32.39q-3.17-2.75-9-2.75H175.76Zm0,33.8H190q7.3,0,10.66-2.8a9.31,9.31,0,0,0,3.35-7.5,11.14,11.14,0,0,0-1.65-6.05,11.3,11.3,0,0,0-4.71-4.12,16.26,16.26,0,0,0-7.25-1.5H175.76Z" transform="translate(-5.41 -14.13)"/></g></g></svg>