<svg xmlns="http://www.w3.org/2000/svg" viewBox="0 0 276.85 84.97"><defs><style>.cls-1{fill:#009245;}</style></defs><g id="Layer_2" data-name="Layer 2"><g id="Layer_1-2" data-name="Layer 1"><path class="cls-1" d="M37.56,99.35A42.48,42.48,0,0,1,21,96.3,27.58,27.58,0,0,1,9.61,88,19,19,0,0,1,5.49,76a19.6,19.6,0,0,1,2.36-9.51,21.1,21.1,0,0,1,6.45-7.23,21.41,21.41,0,0,1,9.12-3.7V55a17.92,17.92,0,0,1-10.74-6.45A18.41,18.41,0,0,1,8.56,36.63a18.6,18.6,0,0,1,3.76-11.45,25.23,25.23,0,0,1,10.32-7.92,36.77,36.77,0,0,1,14.92-2.88,36.44,36.44,0,0,1,14.92,2.91A25.25,25.25,0,0,1,62.8,25.22a18.84,18.84,0,0,1,3.8,11.41,18.46,18.46,0,0,1-4.2,11.91A18.06,18.06,0,0,1,51.73,55v.56a21.15,21.15,0,0,1,9,3.7,21.44,21.44,0,0,1,6.46,7.23A19.67,19.67,0,0,1,69.67,76a19.26,19.26,0,0,1-4.16,12A27.58,27.58,0,0,1,54.14,96.3,42.52,42.52,0,0,1,37.56,99.35Zm0-12.84A16.42,16.42,0,0,0,44.83,85a12,12,0,0,0,4.87-4.2,11.06,11.06,0,0,0,1.75-6.2,11.28,11.28,0,0,0-1.82-6.36,12.7,12.7,0,0,0-4.92-4.36,15.52,15.52,0,0,0-7.15-1.6,15.64,15.64,0,0,0-7.15,1.6,12.51,12.51,0,0,0-4.95,4.36,11.5,11.5,0,0,0-1.79,6.36,11.21,11.21,0,0,0,1.73,6.2A11.72,11.72,0,0,0,30.29,85,16.57,16.57,0,0,0,37.56,86.51Zm0-37a13.21,13.21,0,0,0,6.18-1.41A10.63,10.63,0,0,0,48,44.22a10.84,10.84,0,0,0,1.53-5.77A10.47,10.47,0,0,0,48,32.77a10.65,10.65,0,0,0-4.2-3.83,13.24,13.24,0,0,0-6.22-1.4,13.38,13.38,0,0,0-6.22,1.4,10.25,10.25,0,0,0-5.74,9.51,10.84,10.84,0,0,0,1.54,5.77,10.63,10.63,0,0,0,4.24,3.92A13.15,13.15,0,0,0,37.56,49.55Z" transform="translate(-5.49 -14.38)"/><path class="cls-1" d="M96.6,98.22H77.86l28.56-82.71H129l28.52,82.71H138.73L118,34.41h-.65ZM95.43,65.71H139.7V79.36H95.43Z" transform="translate(-5.49 -14.38)"/><path class="cls-1" d="M167.4,98.22V15.51h17.49V83.8h35.46V98.22Z" transform="translate(-5.49 -14.38)"/><path class="cls-1" d="M265.05,15.51h17.29V73.18a26.21,26.21,0,0,1-3.58,13.89,23.93,23.93,0,0,1-9.91,9.09,32.35,32.35,0,0,1-14.74,3.19,33.5,33.5,0,0,1-13.55-2.65,21.48,21.48,0,0,1-9.63-8.07Q227.38,83.2,227.41,75h17.41a12,12,0,0,0,1.35,5.59,8.72,8.72,0,0,0,3.52,3.55A10.74,10.74,0,0,0,255,85.34a10.15,10.15,0,0,0,5.47-1.4,8.75,8.75,0,0,0,3.41-4.1,16.76,16.76,0,0,0,1.17-6.66Z" transform="translate(-5.49 -14.38)"/></g></g></svg>