<svg xmlns="http://www.w3.org/2000/svg" viewBox="0 0 191.47 85.22"><defs><style>.cls-1{fill:#009245;}</style></defs><g id="Layer_2" data-name="Layer 2"><g id="Layer_1-2" data-name="Layer 1"><path class="cls-1" d="M36.63,14.13a36.32,36.32,0,0,1,12.3,2.12A28.17,28.17,0,0,1,59.51,23.1,33.09,33.09,0,0,1,66.9,35.6q2.73,7.77,2.77,19.12a69.28,69.28,0,0,1-2.41,18.8,41.89,41.89,0,0,1-6.76,14,29.32,29.32,0,0,1-10.6,8.78,31.34,31.34,0,0,1-13.88,3A32,32,0,0,1,21.4,96.14,26.9,26.9,0,0,1,6.54,74.88H23.79a11.64,11.64,0,0,0,4.24,7,12.7,12.7,0,0,0,8,2.49A13.46,13.46,0,0,0,48.3,77.32q4.2-7,4.24-19.33H52a19.46,19.46,0,0,1-5,6.24,23,23,0,0,1-7.21,4,25.85,25.85,0,0,1-8.62,1.42,25,25,0,0,1-13.07-3.44A24.5,24.5,0,0,1,9,56.76,27.93,27.93,0,0,1,5.73,43,28.47,28.47,0,0,1,9.57,28.05,27.26,27.26,0,0,1,20.42,17.81,33.63,33.63,0,0,1,36.63,14.13Zm.12,13.74A13.65,13.65,0,0,0,29.5,29.8a14.14,14.14,0,0,0-5,5.26,14.73,14.73,0,0,0-1.79,7.43,14.84,14.84,0,0,0,1.75,7.39,13.71,13.71,0,0,0,4.95,5.19A13.54,13.54,0,0,0,36.59,57a13.59,13.59,0,0,0,5.59-1.13,13.82,13.82,0,0,0,4.49-3.13,15,15,0,0,0,3-4.64,15.49,15.49,0,0,0,1.13-5.67A15.29,15.29,0,0,0,49,35.1a14,14,0,0,0-5-5.28A13.51,13.51,0,0,0,36.75,27.87Z" transform="translate(-5.73 -14.13)"/><path class="cls-1" d="M82.27,98.22V15.51H99.75V83.8h35.46V98.22Z" transform="translate(-5.73 -14.13)"/><path class="cls-1" d="M179.92,15.51h17.29V73.18a26.3,26.3,0,0,1-3.58,13.89,23.93,23.93,0,0,1-9.91,9.09A32.35,32.35,0,0,1,169,99.35a33.46,33.46,0,0,1-13.55-2.65,21.45,21.45,0,0,1-9.64-8.07Q142.23,83.2,142.28,75h17.41A12,12,0,0,0,161,80.55a8.76,8.76,0,0,0,3.51,3.55,10.8,10.8,0,0,0,5.31,1.24,10.19,10.19,0,0,0,5.48-1.4,8.75,8.75,0,0,0,3.41-4.1,16.76,16.76,0,0,0,1.17-6.66Z" transform="translate(-5.73 -14.13)"/></g></g></svg>