<svg id="Layer_1" enable-background="new 0 0 64 64" height="512" viewBox="0 0 64 64" width="512" xmlns="http://www.w3.org/2000/svg"><g><path d="m24.51 6.92-1.95 4.63c-6.44-2.42-5.56-8.55-5.56-8.55s.95 2.86 7.51 3.92z" fill="#91827b"/><path d="m41.26 13.07c.22 1.77.2 3.76-.3 5.83-.34 1.47-.93 2.98-1.85 4.48l-5.48-3.83c4.63-5.46 5.37-13.55 5.37-13.55s1.76 2.94 2.26 7.07z" fill="#91827b"/><path d="m18.98 40.35c-3.39-4.65-2.98-10.35-2.98-10.35s4.39 8.77 13.33 10.34l-2.21 5.27c-1.39-.34-2.61-.82-3.68-1.4-1.95-1.03-3.4-2.4-4.46-3.86z" fill="#91827b"/><path d="m23.11 24.94c-2.8-.22-5.11-.75-7.03-1.5-1.97-.76-3.52-1.75-4.74-2.85-5.25-4.75-4.34-11.59-4.34-11.59 3 6 9 8 9 8s1.87-1.87 4.72-1.08l1.84-4.37 1.95-4.63 1.89-4.5c.37-.86 1.21-1.42 2.14-1.42 1.28 0 2.31 1.05 2.31 2.32v.14l-.85 13.54 3.63 2.55 5.48 3.83 5.81 4.07c.44-.58 1.1-1.12 2.08-1.45 3-1 4 1 4 1s6-2 9-8c0 0 0 7.71-4.91 12.5-1.49 1.47-3.46 2.67-6.03 3.29l-3.68 14.88c-.37 1.48.45 2.93 1.84 3.55.66.3 1.31.84 1.78 1.78 1 2 0 4 0 4l6 5h-8.56-11.44-13-9l6-5s-2-3 0-5c.98-.98 2.2-1.24 3.19-1.25 1.18-.01 2.24-.76 2.7-1.85l2.23-5.29 2.21-5.27.86-2.03c.43-1.03 1.09-1.91 1.9-2.6z" fill="#736357"/><path d="m63.707 29.293c-.391-.391-1.023-.391-1.414 0-.991.991-2.143 1.578-3.413 1.744-1.18.146-2.248-.081-3.043-.341-.237.274-.481.545-.747.804-.265.262-.565.503-.861.745.615.298 2.197.87 3.907.836.006 0 .013-.001.019-.001.362 1.371 1.423 2.92 3.845 2.92.552 0 1-.447 1-1s-.448-1-1-1c-1.158 0-1.645-.611-1.852-1.199 1.316-.358 2.513-1.048 3.559-2.094.391-.391.391-1.023 0-1.414z" fill="#91827b"/><path d="m32.09 35.71c1.25-1.08 2.86-1.71 4.58-1.71h4.33l-11.304-8.728s-2.912-2.19-6.586-.332z" fill="#5e4f47"/><path d="m30 17 .85-13.54c0-.05 0-.09 0-.14 0-1.27-1.03-2.32-2.31-2.32l-1.54 17z" fill="#5e4f47"/><path d="m11.34 20.59c-1.093.847-2.166 1.281-3.185 1.442-3.952-.967-6.348-3.629-6.4-3.688-.362-.417-.992-.462-1.41-.1-.417.362-.462.993-.1 1.411.112.129 2.27 2.564 5.985 3.887 1.254.862 3.104 1.523 5.741 1.138 1.2-.16 2.56-.55 4.11-1.24-1.971-.76-3.521-1.75-4.741-2.85z" fill="#91827b"/><path d="m11.97 24.68c-.354.052-.692.082-1.019.098-.356 3.437-3.067 4.218-3.2 4.254-.532.137-.855.679-.721 1.212.114.453.521.756.969.756.081 0 .163-.01.244-.03.176-.044 4.381-1.012 4.764-6.482-.357.081-.705.148-1.037.192z" fill="#736357"/><path d="m18.98 40.35c-1.276.123-2.453.04-3.533-.163-4.308-2.326-6.691-4.842-6.716-4.869-.376-.401-1.01-.425-1.413-.048-.404.376-.426 1.008-.05 1.412.097.103 1.997 2.121 5.511 4.277.405.77.99 1.639 1.841 2.381 1.72 1.5 4.48 2.45 8.82.87-1.95-1.03-3.4-2.4-4.46-3.86z" fill="#736357"/><path d="m14.62 43.34c-.265-.231-.495-.475-.711-.723-2.45 1.832-6.356-.45-6.396-.475-.473-.282-1.088-.128-1.371.345-.284.474-.131 1.087.342 1.371.144.086 2.504 1.479 5.11 1.479 1.203 0 2.743-.503 3.87-1.37-.304-.194-.587-.403-.844-.627z" fill="#91827b"/><path d="m51.331 4.057c-.521-.188-1.092.091-1.274.613-.016.047-1.38 3.9-3.503 7.528-1.379.969-3.122 1.458-5.293.872.22 1.77.2 3.76-.3 5.83 2.13-.29 3.7-.97 4.86-1.85 1.788-1.347 2.602-3.157 2.961-4.72 1.919-3.477 3.098-6.814 3.162-7 .182-.52-.092-1.091-.613-1.273z" fill="#736357"/><path d="m53.801 16.403c-.33-.441-.957-.533-1.398-.205-.133.098-3.239 2.339-5.818.182-.235.232-.484.458-.765.67-.267.203-.562.391-.874.57 1.231 1.055 2.631 1.735 4.159 1.694 1.864 0 3.564-.816 4.495-1.515.441-.329.53-.953.201-1.396z" fill="#91827b"/><g fill="#5e4f47"><circle cx="41" cy="48" r="1"/><circle cx="42" cy="44" r="1"/><path d="m27.707 59.707c.266-.266.358-.662.243-1.02-.008-.023-.77-2.453.757-3.98 1.414-1.412 2.716-.873 2.846-.813.495.245 1.095.046 1.342-.447.247-.494.047-1.095-.447-1.342-.108-.055-2.674-1.294-5.154 1.188-1.828 1.828-1.625 4.266-1.399 5.399l-5.309 5.308h2.828z"/><path d="m42.603 58.748c.277-.897.562-2.536-.268-4.194-1.405-2.82-4.277-2.877-5.599-2.519-.53.146-.84.69-.699 1.222.142.529.686.852 1.22.709.233-.06 2.289-.526 3.288 1.481.755 1.51.005 3.096 0 3.105-.192.385-.117.85.188 1.154l4.293 4.294h2.828z"/><path d="m36 57c0-.553-.448-1-1-1s-1 .447-1 1v7h2z"/></g></g></svg>