<svg id="Layer_1" enable-background="new 0 0 463.999 463.999" height="512" viewBox="0 0 463.999 463.999" width="512" xmlns="http://www.w3.org/2000/svg"><g fill="#a07765"><path d="m179.301 294.729c-8.875.261-19.777-2.294-28.441-7.639-14.892-9.184-19.617-23.421-20.599-25.11-6.344-15.303-5.936-30.08-5.915-30.714.148-4.416-3.313-8.115-7.728-8.263-4.448-.139-8.115 3.313-8.263 7.729-.059 1.775-.342 16.32 5.327 32.645-10.915 6.947-25.42 6.235-34.996-2.338-7.386-6.613-10.72-17.019-8.7-27.157.863-4.333-1.949-8.545-6.282-9.409-4.333-.859-8.546 1.949-9.409 6.283-5.431 27.263 14.259 53.282 43.22 53.282 7.894 0 15.823-2.029 22.888-6.052 12.722 21.54 34.391 32.743 58.92 32.743 4.418-.012 7.99-3.604 7.979-8.021-.013-4.412-3.592-7.979-8.001-7.979z"/><path d="m151.978 363.132c-11.65-3.896-24.043-3.931-35.168-.473-8.134-12.43-22.776-17.268-36.585-11.859-4.114 1.611-6.144 6.252-4.532 10.366 1.611 4.115 6.254 6.142 10.366 4.532 6.275-2.459 12.151-.664 16.143 4.097-16.396 11.534-23.354 30.832-20.818 51.192.504 4.049 3.951 7.013 7.929 7.013 4.833 0 8.541-4.229 7.948-8.989-4.082-32.785 24.156-49.227 49.645-40.705 4.188 1.401 8.723-.859 10.124-5.049 1.399-4.191-.862-8.723-5.052-10.125z"/><path d="m388.055 342.842c-1.19-4.255-5.608-6.738-9.86-5.547-4.255 1.191-6.738 5.605-5.548 9.86 1.86 6.632-.972 13.757-8.022 16.848-21.914-19.176-55.752-15.591-73.586 7.61-2.692 3.503-2.036 8.525 1.467 11.218 3.506 2.693 8.527 2.036 11.219-1.467 10.16-13.219 28.28-17.507 43.081-10.195 16.193 8.011 24.039 28.074 16.239 45.572-1.799 4.035.014 8.765 4.049 10.564 4.019 1.792 8.759.002 10.564-4.049 6.819-15.295 5.643-32.638-2.626-46.688 11.731-7.219 16.567-21.063 13.023-33.726z"/></g><path d="m276.111 24.539c-36.3-23.61-83.73-17.13-108.51 21.17-29.03-2.43-51.48 12.5-61.77 34.11h-.01c-48.5-16.64-93.26 30.86-72.47 77.18-3.53 4.95-16.39 24.19-11 45 10.585 40.845 89.419 61.225 126.35 4.05v-.01c21.52 5.44 46.94 3.34 69.18-9.47 5.4 4.52 11.03 8.61 16.8 12.23l-.01.02c-4.74 3.31-47.18 33.63-54.72 71.56-2.981 14.964-3.388 36.222.22 56.62.61 3.47-1.19 6.92-4.35 8.48-27.376 13.494-45.151 41.447-45.27 72.52h-92.2c-12.7 0-23 10.3-23 23s10.3 23 23 23h364c12.7 0 23-10.3 23-23s-10.3-23-23-23h-90.07c.143-37.606-24.474-70.251-59.92-80.9-2.57-.77-4.61-2.74-5.4-5.3-11.804-38.287-2.363-78.257 26.53-106.03 0-.198 8.123 2.534 20.62 3.4-6.63 19.218-4.18 39.607 5.65 54.86 25.601 40.026 105.905 39.618 103.26-23.38 24.4-26.3 9.6-76.48-27.52-86.22.77-2.53 1.46-5.15 2.06-7.86 147.74-36.83 41.21-234.91-101.45-142.03zm1.76 393.46h-113.8c8.98-30.64 38.24-49.36 66.28-45 22.42 3.48 41.26 21.28 47.52 45z" fill="#c79a83"/><path d="m205.311 283.799c-3.653 18.383-2.512 37.714-.98 50.564 1.027 8.615-3.076 17.027-10.45 21.596-13.113 8.125-32.437 24.647-38.649 55.567-.754 3.752-4.02 6.472-7.848 6.472h-16.833c.119-30.842 17.666-58.906 45.3-72.535 3.156-1.556 4.933-5.001 4.32-8.465-3.605-20.382-3.204-41.643-.22-56.62 7.54-37.93 49.98-68.25 54.72-71.56.085-.17 5.878 4.041 16.45 8.9-15.19 12.701-40.09 37.301-45.81 66.081z" fill="#e0b7a3"/><path d="m297.952 417.999h-20.081c-2.967-11.253-8.771-21.173-16.446-28.867-2.901-2.908-.031-7.832 3.909-6.668 15.227 4.499 28.124 15.338 36.104 29.559 1.499 2.673-.422 5.976-3.486 5.976z" fill="#e0b7a3"/><path d="m273.491 225.759c0 .154-3.593 3.239-8.292 8.931-2.148 2.602-5.696 3.627-8.868 2.478-8.823-3.194-17.291-7.218-25.265-11.854-4.941-2.873-5.331-9.858-.774-13.307 2.911-2.203 4.323-3.076 4.389-3.208 12.49 7.85 25.67 13.57 38.81 16.96z" fill="#a07765"/><path d="m402.351 417.999c12.7 0 23 10.3 23 23s-10.3 23-23 23h-364c-12.7 0-23-10.3-23-23s10.3-23 23-23z" fill="#ffbd7b"/><path d="m402.989 432.999h-338.106c-9.885 0-18.084 5.92-21.646 14.007-6.207 14.095-27.307 10.602-27.872-5.162-.469-13.085 10.004-23.845 22.985-23.845 257.108.004 364.275-.018 365.228.032 9.596.505 9.019 14.968-.589 14.968z" fill="#ffd3a6"/><path d="m276.111 24.539c-36.3-23.61-83.73-17.13-108.51 21.17-29.03-2.43-51.48 12.5-61.77 34.11h-.01c-48.5-16.64-93.26 30.86-72.47 77.18-3.53 4.95-16.39 24.19-11 45 10.585 40.845 89.419 61.225 126.35 4.05v-.01c21.52 5.44 46.94 3.34 69.18-9.47 21.612 18.089 48.814 30.699 76.23 32.6-6.45 18.71-4.46 39.14 5.65 54.86 25.598 40.021 105.909 39.639 103.26-23.38 24.4-26.3 9.6-76.48-27.52-86.22.77-2.53 1.46-5.15 2.06-7.86 147.74-36.83 41.21-234.91-101.45-142.03z" fill="#befa91"/><path d="m350.491 296.002c7.713 4.203 4.006 16.001-4.717 14.979-18.091-2.119-36.036-11.353-46.013-26.952-10.11-15.72-12.1-36.15-5.65-54.86 6.028.42 11.955.307 17.707-.357 5.053-.583 9.439 3.584 8.924 8.645-2.389 23.454 7.412 46.373 29.749 58.545z" fill="#daffbf"/><path d="m100.261 98.579c-29.941 8.442-50.151 40.38-39.047 72.998 1.172 3.443.798 7.206-1.088 10.315-5.345 8.815-8.681 18.366-9.043 27.828-.427 11.178-14.639 15.869-21.43 6.979-14.075-18.425-9.473-41.231 3.698-59.7-20.79-46.32 23.97-93.82 72.47-77.18.252 0-3.969 6.959-5.56 18.76z" fill="#daffbf"/><path d="m367.049 32.559c-13.729 2.92-28.159 8.447-43.034 17.107-4.812 2.801-10.683 2.933-15.633.383-32.915-16.957-72.528-10.867-96.331 19.422-2.95 3.754-7.476 5.887-12.249 6-43.7 1.038-69.885 42.651-56.759 83.225 1.064 3.289 1.108 6.848-.03 10.111-1.077 3.087-1.837 6.117-2.304 9.08-2.063 13.102-18.252 18.151-27.395 8.542-12.764-13.414-17.635-31.848-8.354-52.5-18.223-44.483 12.33-92.431 62.64-88.22 24.78-38.3 72.21-44.78 108.51-21.17 32.677-21.275 63.46-27.283 89.724-23.46 17.679 2.574 18.689 27.763 1.215 31.48z" fill="#daffbf"/><path d="m390.201 181.019v.01c-13.992 43.236-50.063 65.263-90.31 64.479-5.093-.099-8.846-4.856-7.672-9.813.519-2.192 1.15-4.37 1.892-6.526 36.33 2.53 69.09-14.26 81.39-54.74 5.39 1.41 10.31 3.68 14.7 6.59z" fill="#9ceb63"/><path d="m148.701 206.039c0 .176-2.891 4.595-7.082 9.463-2.216 2.574-5.833 3.41-8.999 2.178-35.433-13.798-56.734-45.78-45.483-81.826.462-1.479.414-3.061-.019-4.548-4.704-16.142-4.558-33.097.398-48.567 1.222-3.815 5.128-6.071 9.072-5.368 5.671 1.012 8.817 2.449 9.243 2.449-7.56 15.85-8.58 35.29-.87 54.11-15.65 34.819 8.93 63.329 43.74 72.109z" fill="#9ceb63"/><path d="m222.356 158.999c-4.539 0-8.142-3.752-8.001-8.25.556-17.704 14.321-32.891 34.815-32.368 11.494-25.517 37.031-41.528 65.504-40.375 4.414.179 7.849 3.902 7.67 8.317s-3.9 7.848-8.316 7.67c-23.482-.947-44.445 13.362-52.113 35.613-1.345 3.903-5.438 6.139-9.45 5.168-.399-.096-9.847-2.291-16.649 4.069-4.854 4.542-5.412 10.645-5.468 12.407-.137 4.331-3.691 7.749-7.992 7.749z" fill="#daffbf"/><path d="m335.891 268.999c-1.8-.35-3.42-.94-4.87-1.63 1.62-2.04 3.17-4.14 4.65-6.33 2.47-3.66 1.51-8.63-2.15-11.11-3.66-2.47-8.63-1.51-11.11 2.15-18.116 26.811-47.99 38.624-79.89 37.13-.512 5.02-.651 10.443-.34 16 28.181 1.343 56.317-6.863 77.54-25.85 5.753 3.714 12.101 5.49 14.62 5.49 3.74 0 7.08-2.63 7.84-6.44.86-4.33-1.95-8.54-6.29-9.41z" fill="#a07765"/></svg>