<svg id="Layer_1" enable-background="new 0 0 463.999 463.999" height="512" viewBox="0 0 463.999 463.999" width="512" xmlns="http://www.w3.org/2000/svg"><path d="m168.661 365.825c-47.106-8.979-82.68-44.54-73.248-91.405.872-4.331 5.087-7.134 9.421-6.264 4.331.872 7.136 5.09 6.264 9.421-7.665 38.082 22.59 65.293 60.559 72.531 4.34.827 7.188 5.016 6.36 9.356-.829 4.353-5.03 7.187-9.356 6.361z" fill="#a07765"/><path d="m228.72 341.981c-4.408-.295-7.743-4.109-7.447-8.517.295-4.408 4.097-7.739 8.517-7.447 29.312 1.958 56.727-12.593 71.522-37.995 2.197-3.766 6.762-5.014 10.45-3.213 4.15 2.024 5.798 7.197 3.353 11.306-18.027 30.915-51.28 48.224-86.395 45.866z" fill="#a07765"/><path d="m374.425 156.139c44.26-170.08-207.56-219.69-252.54-55.41-34.02-5.22-61.3 25.43-51.15 58.6-69.32 54.42 8.41 154.48 82.05 106.56 11.96 6.58 24.51 11.26 37.29 13.96-.08 92.48-94.66 43.71-98.02 138.15h-29.8c-12.7 0-23 10.3-23 23s10.3 23 23 23h230c12.7 0 23-10.3 23-23s-10.3-23-23-23h-81.03c-36.691-55.739 46.742-64.818 23.72-136.85 11.16-1.73 22.21-5.02 32.92-9.93 127.821 95.409 217.764-79.387 106.56-115.08z" fill="#c79a83"/><path d="m219.532 291.246c-7.463 74.938-89.518 38.629-97.02 119.536-.381 4.104-3.876 7.217-7.998 7.217h-22.459c3.36-94.44 97.94-45.67 98.02-138.15 7.184 1.524 14.442 2.421 21.717 2.673 4.613.159 8.198 4.13 7.74 8.724z" fill="#e0b7a3"/><path d="m229.907 297.815c-11.765 1.302-23.612.87-33.412-.693-4.101-.654-7.047-4.311-6.74-8.452.207-2.79.315-5.728.321-8.821 14.81 3.14 29.94 3.62 44.87 1.3.751 2.35 1.389 4.634 1.921 6.855 1.126 4.696-2.16 9.28-6.96 9.811z" fill="#a07765"/><path d="m292.255 417.999c12.7 0 23 10.3 23 23s-10.3 23-23 23h-230c-12.7 0-23-10.3-23-23s10.3-23 23-23z" fill="#ffbd7b"/><path d="m292.876 433.999h-204.055c-9.422 0-17.661 5.645-21.416 13.559-6.576 13.856-27.571 9.993-28.134-5.714-.469-13.085 10.004-23.845 22.985-23.845 152.664.004 230.284-.019 231.274.035 10.218.557 9.581 15.965-.654 15.965z" fill="#ffd3a6"/><path d="m152.785 265.889c-73.64 47.92-151.37-52.14-82.05-106.56-10.15-33.17 17.13-63.82 51.15-58.6 44.98-164.28 296.8-114.67 252.54 55.41 111.208 35.695 21.259 210.488-106.56 115.08-37.366 17.13-78.916 14.566-115.08-5.33z" fill="#ffa4b8"/><g fill="#ffbfcb"><path d="m323.156 41.553c-59.08-8.685-125.311 18.79-149.021 91.654-1.333 4.096-5.118 6.975-9.426 6.94-28.776-.233-50.718 25.152-45.295 53.84.639 3.383-.641 6.836-3.2 9.138-18.733 16.856-24.642 37.393-21.758 56.446 1.246 8.23-7.657 14.182-14.89 10.062-37.081-21.121-53.536-75.208-8.832-110.305-10.15-33.17 17.13-63.82 51.15-58.6 28.752-104.993 141.982-122.62 208.414-77.266 8.695 5.937 3.275 19.623-7.142 18.091z"/><path d="m165.251 214.001c-3.473 0-6.67-2.279-7.682-5.783-7.195-24.918 8.879-48.391 33.905-51.846 3.194-38.818 37.096-66.114 76.324-52.958 4.189 1.405 6.446 5.939 5.042 10.128s-5.939 6.445-10.128 5.042c-31.004-10.396-56.298 13.289-55.459 45.205.122 4.644-3.729 8.418-8.375 8.202-17.556-.852-31.072 14.006-25.936 31.79 1.475 5.11-2.366 10.22-7.691 10.22z"/><path d="m275.254 232.999c-4.395 0-7.97-3.547-7.999-7.948-.165-25.427 24.226-39.583 47.863-30.522 4.125 1.582 6.188 6.208 4.607 10.333-1.582 4.126-6.209 6.188-10.333 4.607-12.761-4.891-26.231 1.081-26.137 15.478.029 4.429-3.551 8.052-8.001 8.052z"/></g></svg>