<svg xmlns="http://www.w3.org/2000/svg" viewBox="0 0 512 512" width="512" height="512">
	<defs>
		<linearGradient id="grd1" gradientUnits="userSpaceOnUse"  x1="256" y1="512" x2="256" y2="0">
			<stop offset="0" stop-color="#000000"  />
			<stop offset="1" stop-color="#000000"  />
		</linearGradient>
	</defs>
	<style>
		tspan { white-space:pre }
		.shp0 { fill: url(#grd1) } 
	</style>
	<g id="Layer">
		<g id="Layer">
			<path id="Layer" class="shp0" d="M239.74 422.06C155.77 414.59 90 342.09 90 257C90 201.44 118.44 148.2 163.4 117.86L183 144C190.57 154.09 206.49 150.87 209.55 138.64L239.55 18.64C241.92 9.17 234.74 0 225 0L105 0C92.67 0 85.59 14.12 93 24L109.24 45.65C41.47 93.13 0 172.63 0 257C0 385.34 95.32 494.5 221.72 510.9C229.23 511.88 236.35 507.09 238.2 499.67L252.96 440.64C255.19 431.7 248.91 422.88 239.74 422.06L239.74 422.06ZM448.17 86.13C407.16 39.19 351.09 8.99 290.28 1.1C282.73 0.11 275.65 4.95 273.8 12.33L259.04 71.36C256.81 80.3 263.09 89.12 272.26 89.94C356.23 97.41 422 170.35 422 256C422 311.9 394.19 363.71 348.62 394.16L329 368C321.44 357.91 305.51 361.13 302.45 373.36L272.45 493.36C270.08 502.83 277.26 512 287 512L407 512C419.33 512 426.41 497.88 419 488L402.76 466.35C433.48 444.86 459.35 416.52 478.15 383.61C500.3 344.87 512 300.74 512 256C512 193.58 489.33 133.26 448.17 86.13L448.17 86.13Z" />
		</g>
	</g>
</svg>