<svg xmlns="http://www.w3.org/2000/svg" viewBox="0 0 382.82 85.66"><defs><style>.cls-1{fill:#009245;}</style></defs><g id="Layer_2" data-name="Layer 2"><g id="Layer_1-2" data-name="Layer 1"><path class="cls-1" d="M42.69,15.51V98.22H25.2V32.11h-.48L5.78,44V28.47l20.47-13Z" transform="translate(-5.78 -14.38)"/><path class="cls-1" d="M94.79,100a31.41,31.41,0,0,1-17.92-5.13A32.23,32.23,0,0,1,65.36,80.17q-4-9.66-4-23.23t4-23.06A31.69,31.69,0,0,1,76.91,19.36a31.58,31.58,0,0,1,17.88-5,31.43,31.43,0,0,1,17.87,5A31.88,31.88,0,0,1,124.19,33.9q4,9.51,4,23t-4,23.27A32.26,32.26,0,0,1,112.68,95,31.06,31.06,0,0,1,94.79,100Zm0-14.5q7.09,0,11.34-7.15t4.2-21.45a54.71,54.71,0,0,0-1.91-15.67Q106.5,35,103,31.86a11.86,11.86,0,0,0-8.21-3.15q-7.08,0-11.31,7.07T79.2,56.94a56.29,56.29,0,0,0,1.91,15.9Q83,79.2,86.55,82.37A11.92,11.92,0,0,0,94.79,85.54Z" transform="translate(-5.78 -14.38)"/><path class="cls-1" d="M141.11,98.22V15.51H158.6V83.8h35.45V98.22Z" transform="translate(-5.78 -14.38)"/><path class="cls-1" d="M219.62,98.22,196,15.51h19.1L228.75,73h.68l15.11-57.47h16.35L276,73.1h.72l13.7-57.59h19.1L285.81,98.22h-17L253,44.14h-.65L236.66,98.22Z" transform="translate(-5.78 -14.38)"/><path class="cls-1" d="M348.13,98.22H318.81V15.51h29.56q12.48,0,21.48,5a33.75,33.75,0,0,1,13.88,14.19q4.86,9.26,4.86,22.13T383.73,79a33.74,33.74,0,0,1-13.94,14.25Q360.73,98.22,348.13,98.22Zm-11.84-15H347.4a28.06,28.06,0,0,0,13.06-2.77,17.67,17.67,0,0,0,8-8.6q2.69-5.84,2.69-15.09t-2.69-15a17.59,17.59,0,0,0-8-8.56,28,28,0,0,0-13-2.75H336.29Z" transform="translate(-5.78 -14.38)"/></g></g></svg>