<svg xmlns="http://www.w3.org/2000/svg" viewBox="0 0 211.78 84.97"><defs><style>.cls-1{fill:#009245;}</style></defs><g id="Layer_2" data-name="Layer 2"><g id="Layer_1-2" data-name="Layer 1"><path class="cls-1" d="M42.69,15.51V98.22H25.2V32.11h-.48L5.78,44V28.47l20.47-13Z" transform="translate(-5.78 -14.38)"/><path class="cls-1" d="M135.82,44.46H118.13a17.37,17.37,0,0,0-2-6.11,15.79,15.79,0,0,0-3.84-4.59,17.18,17.18,0,0,0-5.39-2.91,20.94,20.94,0,0,0-6.6-1A19.69,19.69,0,0,0,89.13,33a20.49,20.49,0,0,0-7.39,9.2,36.67,36.67,0,0,0-2.62,14.64,37.05,37.05,0,0,0,2.64,14.87A19.14,19.14,0,0,0,100.2,83.88a22,22,0,0,0,6.52-.93,16.78,16.78,0,0,0,5.35-2.72,15.75,15.75,0,0,0,3.9-4.38,17.52,17.52,0,0,0,2.16-5.9l17.69.08a32.19,32.19,0,0,1-3.41,11,33,33,0,0,1-7.31,9.41A34.3,34.3,0,0,1,114.19,97a40,40,0,0,1-14.28,2.4,38.88,38.88,0,0,1-19.76-5,35.39,35.39,0,0,1-13.74-14.5q-5-9.48-5-23t5.08-23A35.71,35.71,0,0,1,80.29,19.36a38.86,38.86,0,0,1,19.62-5,42.45,42.45,0,0,1,13.35,2,34,34,0,0,1,10.93,5.87A30.87,30.87,0,0,1,132,31.7,35.37,35.37,0,0,1,135.82,44.46Z" transform="translate(-5.78 -14.38)"/><path class="cls-1" d="M217.56,15.51V98.22H202.45l-36-52.06h-.61V98.22H148.38V15.51h15.34l35.71,52h.72v-52Z" transform="translate(-5.78 -14.38)"/></g></g></svg>