<svg xmlns="http://www.w3.org/2000/svg" viewBox="0 0 211.91 83.84"><defs><style>.cls-1{fill:#009245;}</style></defs><g id="Layer_2" data-name="Layer 2"><g id="Layer_1-2" data-name="Layer 1"><path class="cls-1" d="M6.7,98.22V85.62L36.15,58.36q3.75-3.64,6.32-6.54a24.7,24.7,0,0,0,3.89-5.72A14,14,0,0,0,47.7,40,11.65,11.65,0,0,0,46,33.74a11.09,11.09,0,0,0-4.52-4.08A14.44,14.44,0,0,0,35,28.23a13.72,13.72,0,0,0-6.63,1.53A10.59,10.59,0,0,0,24,34.17,14.28,14.28,0,0,0,22.5,41H5.9A26.35,26.35,0,0,1,9.57,26.9a24.48,24.48,0,0,1,10.3-9.25,34.07,34.07,0,0,1,15.27-3.27,35.73,35.73,0,0,1,15.48,3.13A24.6,24.6,0,0,1,60.9,26.17a22.41,22.41,0,0,1,3.68,12.68,24.64,24.64,0,0,1-1.84,9.25,39.25,39.25,0,0,1-6.52,10.12A149.66,149.66,0,0,1,43,71.52L30.94,83.36v.56H65.67v14.3Z" transform="translate(-5.9 -14.38)"/><path class="cls-1" d="M78.83,98.22V15.51H112q9.12,0,15.23,2.7a20.31,20.31,0,0,1,9.16,7.5,19.88,19.88,0,0,1,3.07,11,17.77,17.77,0,0,1-1.94,8.5,16.53,16.53,0,0,1-5.31,6,21.8,21.8,0,0,1-7.69,3.29v.81A18.6,18.6,0,0,1,133.33,58a19.1,19.1,0,0,1,6.73,6.89,20.53,20.53,0,0,1,2.58,10.52,21.47,21.47,0,0,1-3.25,11.73,22.06,22.06,0,0,1-9.59,8.14q-6.35,3-15.63,3Zm17.49-48.1h13a15.54,15.54,0,0,0,6.41-1.27,10.68,10.68,0,0,0,4.44-3.62,9.54,9.54,0,0,0,1.63-5.61,9.08,9.08,0,0,0-3.17-7.23c-2.11-1.83-5.11-2.75-9-2.75H96.32Zm0,33.8h14.26q7.31,0,10.66-2.8a9.31,9.31,0,0,0,3.35-7.5,11.06,11.06,0,0,0-1.66-6.05,11.21,11.21,0,0,0-4.7-4.12A16.26,16.26,0,0,0,111,62H96.32Z" transform="translate(-5.9 -14.38)"/><path class="cls-1" d="M154,98.22V15.51h33.12q9.12,0,15.22,2.7a20.28,20.28,0,0,1,9.17,7.5,19.88,19.88,0,0,1,3.07,11,17.89,17.89,0,0,1-1.94,8.5,16.53,16.53,0,0,1-5.31,6,21.88,21.88,0,0,1-7.69,3.29v.81A18.6,18.6,0,0,1,208.49,58a19.1,19.1,0,0,1,6.73,6.89,20.53,20.53,0,0,1,2.58,10.52,21.47,21.47,0,0,1-3.25,11.73A22.06,22.06,0,0,1,205,95.23q-6.35,3-15.63,3Zm17.49-48.1h13a15.46,15.46,0,0,0,6.4-1.27,10.71,10.71,0,0,0,4.45-3.62,9.54,9.54,0,0,0,1.63-5.61,9.08,9.08,0,0,0-3.17-7.23c-2.11-1.83-5.11-2.75-9-2.75H171.48Zm0,33.8h14.26q7.31,0,10.66-2.8a9.31,9.31,0,0,0,3.35-7.5,11.06,11.06,0,0,0-1.66-6.05,11.21,11.21,0,0,0-4.7-4.12,16.29,16.29,0,0,0-7.25-1.5H171.48Z" transform="translate(-5.9 -14.38)"/></g></g></svg>