<svg xmlns="http://www.w3.org/2000/svg" viewBox="0 0 189.37 84.97"><defs><style>.cls-1{fill:#009245;}</style></defs><g id="Layer_2" data-name="Layer 2"><g id="Layer_1-2" data-name="Layer 1"><path class="cls-1" d="M37.28,99.35a39.26,39.26,0,0,1-16.1-3.13,27.08,27.08,0,0,1-11.1-8.64A21.53,21.53,0,0,1,5.9,74.84H23.5a9.09,9.09,0,0,0,2,5.31,11.92,11.92,0,0,0,4.91,3.53,18.06,18.06,0,0,0,6.91,1.25,16.73,16.73,0,0,0,7.06-1.41,11.58,11.58,0,0,0,4.81-3.92A10.37,10.37,0,0,0,49.09,68a12.16,12.16,0,0,0-5.25-4,20.6,20.6,0,0,0-8.1-1.45H28V49.63h7.71a16.83,16.83,0,0,0,7-1.37,11.18,11.18,0,0,0,4.74-3.82,9.68,9.68,0,0,0,1.7-5.71,9.85,9.85,0,0,0-5.59-9.17,13.53,13.53,0,0,0-6.16-1.33,16.18,16.18,0,0,0-6.5,1.27,11.58,11.58,0,0,0-4.73,3.62,9.48,9.48,0,0,0-1.9,5.49H7.55A21.5,21.5,0,0,1,11.63,26a26.59,26.59,0,0,1,10.68-8.54,36,36,0,0,1,15.21-3.09,33.89,33.89,0,0,1,15,3.11,24.75,24.75,0,0,1,10,8.38A20.32,20.32,0,0,1,66,37.68a16.17,16.17,0,0,1-4.3,11.59,19.77,19.77,0,0,1-11.29,5.9v.64Q59.58,57,64.36,62.13A18,18,0,0,1,69.1,75,20.25,20.25,0,0,1,65,87.56,27.42,27.42,0,0,1,53.75,96.2,40.66,40.66,0,0,1,37.28,99.35Z" transform="translate(-5.9 -14.38)"/><path class="cls-1" d="M82.19,98.22V15.51h32.63q9.41,0,16,3.57A24.58,24.58,0,0,1,141,29a29.56,29.56,0,0,1,3.49,14.56,29.08,29.08,0,0,1-3.55,14.54,24.6,24.6,0,0,1-10.28,9.81q-6.72,3.51-16.26,3.51H93.57v-14h18a17.65,17.65,0,0,0,8.34-1.76,11.53,11.53,0,0,0,4.92-4.88,15.36,15.36,0,0,0,1.64-7.21,15.19,15.19,0,0,0-1.64-7.21,11.37,11.37,0,0,0-4.94-4.81,18.24,18.24,0,0,0-8.4-1.72H99.67V98.22Z" transform="translate(-5.9 -14.38)"/><path class="cls-1" d="M178,15.51h17.29V73.18a26.21,26.21,0,0,1-3.58,13.89,23.93,23.93,0,0,1-9.91,9.09A32.35,32.35,0,0,1,167,99.35a33.5,33.5,0,0,1-13.55-2.65,21.37,21.37,0,0,1-9.63-8.07Q140.31,83.2,140.34,75h17.41a12,12,0,0,0,1.35,5.59,8.76,8.76,0,0,0,3.51,3.55,10.81,10.81,0,0,0,5.32,1.24,10.18,10.18,0,0,0,5.47-1.4,8.75,8.75,0,0,0,3.41-4.1A16.76,16.76,0,0,0,178,73.18Z" transform="translate(-5.9 -14.38)"/></g></g></svg>