<svg id="Layer_1" enable-background="new 0 0 512 512" height="512" viewBox="0 0 512 512" width="512" xmlns="http://www.w3.org/2000/svg"><g><path d="m113.835 245.698-8.908 12.332c-5.758 7.786-9.163 17.418-9.163 27.845 0 11.897 4.435 22.756 11.739 31.02 3.465 3.92 3.465 9.792-.018 13.696-9.157 10.268-14.726 23.802-14.726 38.643 0 15.621 6.162 29.802 16.189 40.245l9.523 9.976 249.819 1.202 14.911-11.977c9.581-10.362 15.436-24.221 15.436-39.446 0-14.841-5.569-28.375-14.726-38.643-3.482-3.905-3.482-9.776-.018-13.696 7.304-8.264 11.739-19.122 11.739-31.02 0-10.525-3.469-20.241-9.327-28.064l-7.714-10.052z" fill="#ccf49f"/><path d="m419.243 369.237c0 15.226-5.862 29.082-15.442 39.446l-14.907 11.971-30.741-.134 14.742-11.837c9.581-10.364 15.442-24.22 15.442-39.446 0-7.417-1.391-14.515-3.935-21.036-2.534-6.531-6.222-12.475-10.796-17.606-3.482-3.904-3.482-9.776-.01-13.701 7.304-8.262 11.734-19.12 11.734-31.019 0-5.264-.865-10.322-2.472-15.051-1.597-4.718-3.925-9.096-6.851-13.011l-7.716-10.055h30.905l7.716 10.055c2.926 3.915 5.254 8.293 6.851 13.011 1.607 4.729 2.472 9.787 2.472 15.051 0 11.899-4.43 22.757-11.734 31.019-3.472 3.925-3.472 9.797.01 13.701 4.574 5.13 8.262 11.074 10.796 17.606 2.545 6.521 3.936 13.619 3.936 21.036z" fill="#b3e59f"/><path d="m155.557 176.161s-34.511 3.606-46.864 21.991c-12.832 3.953-22.158 15.904-22.158 30.033 0 17.353 14.067 31.42 31.42 31.42h37.602z" fill="#bc845e"/><path d="m145.256 235.911h-27.815c-4.267 0-7.726-3.459-7.726-7.726 0-4.268 3.459-7.726 7.726-7.726h27.815c4.267 0 7.726 3.459 7.726 7.726 0 4.268-3.459 7.726-7.726 7.726z" fill="#ad775c"/><path d="m356.443 259.606h37.602c17.353 0 31.42-14.067 31.42-31.42 0-14.129-9.326-26.08-22.158-30.033-.603-5.508-46.864-21.991-46.864-21.991z" fill="#bc845e"/><path d="m394.559 235.911h-27.815c-4.267 0-7.726-3.459-7.726-7.726 0-4.268 3.459-7.726 7.726-7.726h27.815c4.267 0 7.726 3.459 7.726 7.726.001 4.268-3.459 7.726-7.726 7.726z" fill="#ad775c"/><path d="m300.813 334.809v61.811h31.678l11.847.839 10.559 104.239h-200.37l12.877-105.078h43.783v-61.811z" fill="#bc845e"/><path d="m344.596 396.62s-.494.587-1.411 1.679c-5.367-1.102-10.92-1.679-16.617-1.679z" fill="#ad775c"/><path d="m356.443 145.256v94.262c0 66.852-55.63 112.475-97.61 119.243 0 0-8.753.758-18.286.826-59.555-7.589-105.593-58.452-105.593-120.069v-93.103z" fill="#d19a6e"/><path d="m377.046 145.256v94.262c0 66.848-54.198 121.046-121.046 121.046-5.233 0-10.395-.33-15.453-.979 59.555-7.592 105.594-58.452 105.594-120.068v-94.117z" fill="#bc845e"/><g fill="#ad775c"><path d="m255.922 308.075c-15.063 0-30.096-5.313-42.61-15.941-3.253-2.763-3.65-7.639-.888-10.891 2.762-3.251 7.637-3.648 10.891-.887 19.154 16.268 46.047 16.259 65.397-.023 3.265-2.746 8.139-2.327 10.886.938 2.747 3.266 2.327 8.14-.938 10.887-12.61 10.611-27.69 15.917-42.738 15.917z"/><path d="m317.296 251.364c-4.267 0-7.726-3.459-7.726-7.726v-15.453c0-4.268 3.459-7.726 7.726-7.726s7.726 3.459 7.726 7.726v15.453c0 4.267-3.459 7.726-7.726 7.726z"/><path d="m194.704 251.364c-4.267 0-7.726-3.459-7.726-7.726v-15.453c0-4.268 3.459-7.726 7.726-7.726s7.726 3.459 7.726 7.726v15.453c.001 4.267-3.459 7.726-7.726 7.726z"/></g><path d="m194.704 156.464v19.697c0 11.383-9.22 20.604-20.604 20.604h-56.145c-3.224 0-6.336.484-9.261 1.391l-.433-.628c-3.348-5.11-5.285-11.208-5.285-17.76 0-2.308.247-4.574.701-6.748.464-2.174 1.133-4.265 2.009-6.253l1.875-3.935z" fill="#ccf49f"/><path d="m373.441 196.765h-35.541c-11.332 0-20.604-9.272-20.604-20.604v-20.089l66.364 4.976 2.39 6.511c5.505 19.762-8.144 28.008-12.609 29.206z" fill="#ccf49f"/><path d="m409.023 179.767c0 3.255-.474 6.397-1.37 9.364s-2.194 5.759-3.853 8.293l-.494.731c-2.926-.907-6.037-1.391-9.261-1.391h-20.727c1.453-2.359 2.606-4.924 3.431-7.634.896-2.967 1.37-6.109 1.37-9.364 0-4.316-.845-8.437-2.369-12.208l-2.39-6.511h30.905l2.39 6.511c1.523 3.771 2.368 7.892 2.368 12.209z" fill="#b3e59f"/><path d="m299.268 0h83.027c12.897 0 20.119 14.867 12.147 25.005l-35.424 45.048z" fill="#514a54"/><path d="m283.027 0h-77.748c-14.52 0-27.624 8.71-33.245 22.098l-34.407 81.952 102.921 44.811 123.107-13.907-47.383-112.856c-5.621-13.388-18.725-22.098-33.245-22.098z" fill="#6f6571"/><path d="m377.348 144.954-20.905-10-47.378-112.857c-5.625-13.392-18.729-22.097-33.244-22.097h30.905c14.515 0 27.619 8.705 33.244 22.097l34.404 81.953z" fill="#5d5360"/><path d="m366.744 134.954-104.562 20.603-137.53-20.603 12.97-30.906h216.152z" fill="#71ddf9"/><path d="m387.348 134.954h-30.905l-12.97-30.906h30.905z" fill="#23c7f7"/><path d="m428.555 134.954c8.534 0 15.453 6.918 15.453 15.453 0 8.534-6.918 15.453-15.453 15.453h-365.714c-8.534 0-15.453-6.918-15.453-15.453 0-8.534 6.918-15.453 15.453-15.453h142.165l11.461-10.302 14.294 10.302z" fill="#6f6571"/><path d="m464.612 150.406c0 8.534-6.918 15.453-15.453 15.453h-25.755c5.687 0 10.302-4.615 10.302-10.302v-10.302c0-5.687-4.615-10.302-10.302-10.302h25.755c8.534.001 15.453 6.919 15.453 15.453z" fill="#5d5360"/><path d="m230.761 134.954h-25.755c-5.69 0-10.302-4.612-10.302-10.302v-25.755c0-5.69 4.612-10.302 10.302-10.302h25.755c5.69 0 10.302 4.612 10.302 10.302v25.755c-.001 5.689-4.613 10.302-10.302 10.302z" fill="#cdf2f9"/><path d="m418.254 479.034v12.362c0 11.384-9.22 20.604-20.604 20.604h-304.934c-11.383 0-20.604-9.22-20.604-20.604v-12.362c0-45.513 36.901-82.414 82.414-82.414h12.877l35.849 42.622s57.64 35.414 105.509-.015c18.994-22.585 35.833-42.606 35.833-42.606s61.297 3.089 73.66 82.413z" fill="#c3aff0"/><path d="m439.887 479.034v12.362c0 11.384-9.22 20.604-20.604 20.604h-30.905c11.383 0 20.604-9.22 20.604-20.604v-12.362c0-39.817-28.248-73.05-65.798-80.735.917-1.092 1.411-1.679 1.411-1.679h12.877c45.514 0 82.415 36.901 82.415 82.414z" fill="#a69ded"/><path d="m308.766 439.228c-9.797 11.651-20.181 23.993-29.113 34.614-12.352 14.68-34.954 14.68-47.306-.01l-29.092-34.594c34.737 13.001 70.773 13.001 105.511-.01z" fill="#cdf2f9"/></g></svg>