<svg id="Capa_1" enable-background="new 0 0 512 512" height="512" viewBox="0 0 512 512" width="512" xmlns="http://www.w3.org/2000/svg"><g><path d="m93.65 45.424v97.777c0 1.953.75 3.832 2.096 5.248l6.441 6.779c2.794 2.941 2.794 7.555 0 10.495l-5.945 6.257c-1.345 1.416-2.096 3.294-2.096 5.248v117.368c0 1.477.43 2.923 1.236 4.161l13.04 20.001c1.856 2.847 1.602 6.579-.623 9.148l-4.323 4.992c-.577.666-1.034 1.428-1.351 2.251l-7.966 20.696c-.336.873-.509 1.801-.509 2.737v107.996h324.7v-78.831c0-3.431-2.293-6.438-5.601-7.346l-10.796-2.964c-1.578-.433-2.974-1.363-3.983-2.652l-5.17-6.607c-2.609-3.335-1.999-8.158 1.36-10.737l21.213-16.291c1.878-1.442 2.978-3.675 2.978-6.042v-84.312c0-1.953-.75-3.832-2.096-5.248l-8.85-9.314c-2.262-2.381-2.744-5.943-1.196-8.839l11.242-21.034c.591-1.105.899-2.338.899-3.591v-157.346z" fill="#ffeee7"/><path d="m406.207 227.39c-1.547 2.897-1.062 6.464 1.196 8.846l8.846 9.31c1.351 1.412 2.103 3.299 2.103 5.248v84.316c0 2.361-1.103 4.598-2.979 6.042l-21.218 16.29c-3.351 2.578-3.969 7.403-1.351 10.733l5.165 6.609c1.01 1.289 2.402 2.217 3.98 2.65l10.795 2.969c3.309.907 5.609 3.918 5.609 7.341v78.831h-20.62v-72.627c0-1.956-1.476-3.052-3.359-3.801-3.198-1.272-6.123-3.143-8.427-5.7-3.444-3.822-7.98-8.876-8.596-9.663l-5.165-6.609c-2.619-3.33-2-8.155 1.351-10.733l21.218-16.29c1.876-1.444 2.979-3.681 2.979-6.042v-84.316c0-1.948-.753-3.835-2.103-5.248l-8.846-9.31c-2.258-2.382-2.743-5.949-1.196-8.846l11.238-21.033c.598-1.103.907-2.34.907-3.588v-157.342h20.62v157.342c0 1.248-.309 2.485-.907 3.588z" fill="#ffe2db"/><g><path d="m37.424 11.322h436.232v34.352h-436.232z" fill="#ae6c6c"/><path d="m423.248 56.867h-334.496c-3.752 0-6.794-3.042-6.794-6.794v-43.151c0-3.752 3.042-6.794 6.794-6.794h334.495c3.752 0 6.794 3.042 6.794 6.794v43.152c0 3.751-3.041 6.793-6.793 6.793z" fill="#efc2bb"/><path d="m430.044 6.922v43.148c0 3.753-3.042 6.794-6.794 6.794h-20.62c3.753 0 6.794-3.042 6.794-6.794v-43.148c0-3.753-3.042-6.794-6.794-6.794h20.62c3.753-.001 6.794 3.041 6.794 6.794z" fill="#d8a69d"/><g><g><circle cx="487.402" cy="28.498" fill="#855151" r="24.598"/></g><g><path d="m512 28.501c0 13.578-11.011 24.6-24.6 24.6-7.846 0-14.836-3.681-19.331-9.403.185.01.371.01.557.01 13.589 0 24.6-11.011 24.6-24.6 0-5.743-1.969-11.011-5.258-15.197 13.33.299 24.032 11.187 24.032 24.59z" fill="#704444"/></g><g><circle cx="24.598" cy="28.498" fill="#855151" r="24.598"/></g><g><path d="m49.196 28.501c0 13.578-11.011 24.6-24.6 24.6-7.846 0-14.836-3.681-19.331-9.403.186.01.371.01.557.01 13.589 0 24.6-11.011 24.6-24.6 0-5.743-1.969-11.011-5.258-15.197 13.331.299 24.032 11.187 24.032 24.59z" fill="#704444"/></g></g><path d="m37.424 466.327h436.232v34.352h-436.232z" fill="#ae6c6c"/><path d="m423.248 511.873h-334.496c-3.752 0-6.794-3.042-6.794-6.794v-43.152c0-3.752 3.042-6.794 6.794-6.794h334.495c3.752 0 6.794 3.042 6.794 6.794v43.152c0 3.752-3.041 6.794-6.793 6.794z" fill="#efc2bb"/><path d="m430.044 461.927v43.148c0 3.753-3.042 6.794-6.794 6.794h-20.62c3.753 0 6.794-3.042 6.794-6.794v-43.148c0-3.753-3.042-6.794-6.794-6.794h20.62c3.753 0 6.794 3.041 6.794 6.794z" fill="#d8a69d"/><g><g><circle cx="487.402" cy="483.503" fill="#855151" r="24.598"/></g><g><path d="m512 483.506c0 13.578-11.011 24.6-24.6 24.6-7.846 0-14.836-3.681-19.331-9.403.185.01.371.01.557.01 13.589 0 24.6-11.011 24.6-24.6 0-5.743-1.969-11.011-5.258-15.197 13.33.3 24.032 11.187 24.032 24.59z" fill="#704444"/></g><g><circle cx="24.598" cy="483.503" fill="#855151" r="24.598"/></g><g><path d="m49.196 483.506c0 13.578-11.011 24.6-24.6 24.6-7.846 0-14.836-3.681-19.331-9.403.186.01.371.01.557.01 13.589 0 24.6-11.011 24.6-24.6 0-5.743-1.969-11.011-5.258-15.197 13.331.3 24.032 11.187 24.032 24.59z" fill="#704444"/></g></g></g><g><g fill="#d8a69d"><path d="m155.36 132.528c1.762-2.127 1.465-5.279-.661-7.04l-12.555-10.399c-1.493-1.236-3.564-1.499-5.317-.674s-2.873 2.587-2.873 4.525v43.446c0 2.761 2.239 5 5 5s5-2.239 5-5v-32.813l4.366 3.616c2.127 1.763 5.279 1.465 7.04-.661z"/><path d="m212.262 167.386c2.761 0 5-2.239 5-5v-15.023l29.74-24.568c2.129-1.759 2.429-4.911.67-7.04-1.758-2.128-4.909-2.429-7.04-.67l-23.371 19.307v-15.452c0-2.761-2.239-5-5-5s-5 2.239-5 5v43.446c.001 2.761 2.239 5 5.001 5z"/><path d="m175.24 159.571v2.815c0 2.761 2.239 5 5 5s5-2.239 5-5v-2.815c8.084-2.205 14.053-9.591 14.053-18.365s-5.969-16.16-14.053-18.365v-3.902c0-2.761-2.239-5-5-5s-5 2.239-5 5v3.902c-8.084 2.205-14.053 9.591-14.053 18.365s5.969 16.161 14.053 18.365zm14.053-18.364c0 3.144-1.613 5.917-4.053 7.54v-15.08c2.44 1.623 4.053 4.395 4.053 7.54zm-14.053-7.54v15.08c-2.44-1.623-4.053-4.396-4.053-7.54s1.613-5.917 4.053-7.54z"/><path d="m225.753 115.052c2.147 0 3.887-1.74 3.887-3.887s-1.74-3.887-3.887-3.887-3.887 1.74-3.887 3.887 1.74 3.887 3.887 3.887z"/><path d="m248.834 136.567c1.4 2.38 4.464 3.174 6.845 1.774.19-.112 2.602-1.555 5.728-4.528v28.573c0 2.761 2.239 5 5 5s5-2.239 5-5v-43.446c0-2.303-1.573-4.308-3.809-4.856-2.24-.551-4.558.501-5.624 2.543-4.663 8.936-11.244 13.021-11.388 13.109-2.362 1.406-3.147 4.458-1.752 6.831z"/><path d="m289.569 167.173c.477.144.962.213 1.442.213 1.645 0 3.224-.814 4.167-2.237l19.645-29.623v26.86c0 2.761 2.239 5 5 5s5-2.239 5-5v-43.446c0-2.206-1.445-4.151-3.557-4.787-2.112-.638-4.391.186-5.61 2.024l-19.644 29.623v-26.86c0-2.761-2.239-5-5-5s-5 2.239-5 5v43.446c0 2.206 1.446 4.151 3.557 4.787z"/><path d="m377.09 159.446-15.626-21.495v-19.011c0-2.761-2.239-5-5-5s-5 2.239-5 5v19.058l-14.97 21.335c-1.586 2.26-1.039 5.378 1.222 6.965 2.26 1.586 5.379 1.039 6.965-1.222l6.783-9.668v4.805c0 2.761 2.239 5 5 5s5-2.239 5-5v-5.256l7.538 10.369c.979 1.346 2.503 2.061 4.048 2.061 1.02 0 2.048-.311 2.936-.956 2.233-1.624 2.727-4.751 1.104-6.985z"/><path d="m357.931 196.558h-203.862c-4.142 0-7.5 3.358-7.5 7.5s3.358 7.5 7.5 7.5h203.862c4.142 0 7.5-3.358 7.5-7.5s-3.358-7.5-7.5-7.5z"/><path d="m357.931 236.5h-203.862c-4.142 0-7.5 3.358-7.5 7.5s3.358 7.5 7.5 7.5h203.862c4.142 0 7.5-3.358 7.5-7.5s-3.358-7.5-7.5-7.5z"/><path d="m357.931 276.442h-203.862c-4.142 0-7.5 3.358-7.5 7.5s3.358 7.5 7.5 7.5h203.862c4.142 0 7.5-3.358 7.5-7.5s-3.358-7.5-7.5-7.5z"/><path d="m357.931 316.385h-203.862c-4.142 0-7.5 3.358-7.5 7.5s3.358 7.5 7.5 7.5h203.862c4.142 0 7.5-3.358 7.5-7.5s-3.358-7.5-7.5-7.5z"/><path d="m357.931 356.327h-203.862c-4.142 0-7.5 3.358-7.5 7.5s3.358 7.5 7.5 7.5h203.862c4.142 0 7.5-3.358 7.5-7.5s-3.358-7.5-7.5-7.5z"/><path d="m357.931 396.269h-203.862c-4.142 0-7.5 3.358-7.5 7.5s3.358 7.5 7.5 7.5h203.862c4.142 0 7.5-3.358 7.5-7.5s-3.358-7.5-7.5-7.5z"/></g></g></g></svg>