<svg xmlns="http://www.w3.org/2000/svg" viewBox="0 0 512 512" width="512" height="512">
	<style>
		tspan { white-space:pre }
		.shp0 { fill: #ffffff } 
	</style>
	<g id="Layer">
		<path id="Layer" class="shp0" d="M185.25 512C109.05 511.56 46.02 356.01 46.02 276.79C46.02 147.39 143.1 119.06 180.51 119.06C197.37 119.06 215.37 125.68 231.25 131.54C242.35 135.62 253.84 139.84 260.23 139.84C264.05 139.84 273.06 136.25 281.01 133.1C297.98 126.35 319.08 117.96 343.66 117.96C343.71 117.96 343.77 117.96 343.81 117.96C362.16 117.96 417.81 121.99 451.27 172.23L459.11 184.01L447.83 192.52C431.72 204.68 402.32 226.85 402.32 270.78C402.32 322.82 435.61 342.83 451.61 352.45C458.67 356.7 465.98 361.08 465.98 370.66C465.98 376.91 416.06 511.22 343.56 511.22C325.82 511.22 313.28 505.89 302.22 501.19C291.03 496.43 281.38 492.33 265.43 492.33C257.34 492.33 247.11 496.15 236.29 500.21C221.5 505.73 204.75 512 185.75 512L185.25 512Z" />
		<path id="Layer" class="shp0" d="M351.34 0C353.23 68.08 304.55 115.3 255.92 112.34C247.91 58.02 304.54 0 351.34 0Z" />
	</g>
</svg>