<svg version="1.2" baseProfile="tiny-ps" xmlns="http://www.w3.org/2000/svg" viewBox="0 0 512 512" width="512" height="512">
	<title>7_arachi (2)-svg</title>
	<style>
		tspan { white-space:pre }
		.s0 { fill: #434343 } 
		.s1 { fill: #cecece } 
		.s2 { fill: #adadad } 
		.s3 { fill: #1f1d1d } 
		.s4 { fill: #bbbbbb } 
		.s5 { fill: #cadded } 
		.s6 { fill: #ffffff } 
		.s7 { fill: #fac600 } 
		.s8 { fill: #e2772c } 
		.s9 { fill: #fea613 } 
		.s10 { fill: #fff364 } 
		.s11 { fill: #f9c502 } 
	</style>
	<g id="Layer_6_xA0_Изображение_1_">
		<path id="Layer" class="s0" d="m256.82 475.37c-123.29 0-222.95-99.66-222.95-222.95c0-123.29 99.66-222.95 222.95-222.95c123.29 0 222.95 99.66 222.95 222.95c0 123.29-99.66 222.95-222.95 222.95z" />
	</g>
	<g id="Group_2_xA0_Изображение_1_">
		<path id="Layer" class="s1" d="m286.81 179.95c-0.05 0.62-5.2 11.8-5.41 12.42c-4.68 14.45-9.41 28.9-14.09 43.35c-1.25 3.85-2.55 7.69-3.69 11.59c-1.2 3.95 0 5.72 4.11 6.03c6.86 0.52 13.78 0.99 20.64 1.56c9.88 0.83 19.75 1.66 29.63 2.5c2.86 0.26 5.67 0.31 8.53 0.62c0.94 0.1 1.82 0.68 2.76 1.04c-0.42 0.83-0.68 1.82-1.3 2.5c-4.63 4.99-9.36 9.93-14.09 14.87c-10.86 11.28-21.78 22.51-32.65 33.79c-9.41 9.77-18.87 19.49-28.23 29.32c-8.73 9.1-17.41 18.3-26.15 27.39c-0.36 0.36-0.68 1.4-1.14 1.66c-0.68-0.16-2.6 2.6-2.86-0.57c1.25-3.85 2.96-8.58 4.31-12.37c4.16-11.75 8.37-23.44 12.58-35.14c3.48-9.67 7.02-19.34 10.5-28.95c0.26-0.73 0.52-1.46 0.73-2.24c0.57-2.29-0.78-4.42-3.12-4.73c-3.07-0.42-6.13-0.73-9.25-1.04c-9.93-0.88-19.91-1.72-29.84-2.6c-6.19-0.52-12.37-1.04-18.56-1.61c-0.57-0.05-11.28 0.21-11.85 0c0.42-2.13 8.27-13.62 9.82-15.02c22.56-20.95 44.76-38.94 67.27-59.94c7.33-6.81 23.96-17.62 31.35-24.43z" />
		<path id="Layer" class="s2" d="m84.96 293.79c0.1-0.57 0.16-1.09 0.31-1.61c0.05-0.21 0.26-0.62 0.31-0.78c1.61-5.3 4.94-9.3 9.25-12.74c8.94-7.23 19.39-10.29 30.46-11.75c8.01-1.09 16.06-1.98 24.07-2.96c0.16 0 0.36-0.05 0.52-0.05c1.72-0.05 4-0.68 5.51-1.2c0.1-0.05 0.26-0.1 0.36-0.16c1.25-0.47 2.5 0.57 2.24 1.87c-0.52 2.6-1.14 5.61-1.87 8.01c-0.21 0.78-0.26 1.51-2.29 0.73c-0.1-0.05-0.21-0.05-0.31-0.05c-1.04-0.21-2.08-0.57-3.12-0.47c-4.99 0.47-9.93 1.09-14.92 1.66c-8.94 0.99-17.83 2.08-26.36 5.41c-4.63 1.82-8.47 4.63-11.96 8.01c-1.4 1.35-2.81 3.38-2.91 5.2c-0.21 3.9 0.83 5.77 3.38 10.81c2.03 3.79 5.77 8.53 8.01 11.18c5.56 6.71 9.88 10.14 16.74 15.65c7.54 6.03 14.19 13.05 22.61 17.93c5.15 2.96 10.03 6.5 15.18 9.41c4.42 2.5 9.05 4.68 13.72 6.71c7.43 3.22 14.97 6.24 22.46 9.36c1.4 0.57 2.76 1.2 4.16 1.87c0.94 0.47 1.2 1.61 0.62 2.5c-0.05 0.05-0.05 0.1-0.1 0.16c-0.36 0.94-0.62 1.92-0.88 2.91c-0.47 2.13-2.55 3.33-4.63 2.65c-11.7-3.74-22.87-8.68-33.89-13.98c-13.15-6.39-25.58-14.04-36.6-23.81c-4.83-4.26-9.88-7.54-14.5-11.9c-0.88-0.78-1.77-1.56-2.7-2.24c-3.17-2.34-4.94-4.47-8.63-8.84c-1.51-1.77-5.09-5.77-7.33-8.99c-2.13-2.81-5.82-10.4-6.97-15.8l-0.16-0.73c-0.05-0.42 0 0-0.1-0.83c0-1.2 0.1-2.08 0.31-3.12z" />
		<path id="Layer" fill-rule="evenodd" class="s2" d="m161.58 279.81c-0.05-0.31 0.05-0.57 0.26-0.83c2.08-2.03 4.11-4.11 6.24-6.08c10.08-9.2 20.17-18.4 30.31-27.55c13.57-12.27 27.19-24.54 40.81-36.8c6.08-5.51 12.16-11.02 18.19-16.58c0.68-0.62 1.2-1.35 1.82-2.03c0.05-0.05 0.1-0.1 0.16-0.16c0.94-0.73 1.92-1.35 2.81-2.13c7.95-7.17 15.96-14.35 23.86-21.62c3.12-2.86 6.08-4.68 10.81-3.79c6.39 1.2 9.67 5.35 7.69 11.59c-2.44 7.75-5.04 15.44-7.54 23.18c-0.26 0.83-0.57 1.25-0.94 2.44c-0.1 0.36-0.16 0.57-0.16 0.62c-0.26 1.14-0.36 1.2-0.73 2.08c-3.85 10.29-7.59 20.59-11.38 30.88c-0.68 1.87-1.51 3.69-2.03 5.56c-0.83 3.07 0.62 4.42 3.74 4.47c5.51 0.16 11.02 0.57 16.53 0.99c3.27 0.21 6.55 0.57 9.82 0.83c8.79 0.57 17.57 1.09 26.36 1.66c3.17 0.21 7.02 4.52 7.28 8.42c0.26 3.38-0.62 6.5-3.07 9.05c-11.54 12.06-23.08 24.12-34.62 36.23c-11.23 11.75-22.51 23.5-33.74 35.3c-9.1 9.51-18.14 19.08-27.19 28.64c-0.47 0.52-0.94 0.88-1.56 1.46l-0.05 0.05c-0.78 0.52-1.14 0.94-1.66 1.46c-5.35 5.46-10.6 10.92-15.85 16.43c-0.05 0.05-0.05 0.1-0.1 0.16c-0.99 0.99-1.04 1.09-1.87 1.92c-0.16 0.16-0.83 0.78-0.94 0.88c-3.22 3.27-6.34 6.6-9.56 9.88c-2.39 2.44-5.2 2.96-8.32 1.66c-1.09-0.47-2.24-0.99-3.27-1.56c-2.81-1.56-3.48-3.48-2.29-6.5c1.25-3.33 2.5-6.65 3.69-9.98c0.05-0.1 0.36-1.2 0.42-1.3c0.52-1.35 0.52-1.72 1.04-2.91c0.05-0.16 0.16-0.31 0.26-0.52c1.51-4.05 2.91-8.11 4.31-12.22c0.73-2.08 1.3-4.21 1.98-6.29c0-0.05 0.05-0.1 0.1-0.21c0.36-0.62 0.78-1.25 1.04-1.92c5.41-15.02 10.76-30.1 16.11-45.12c0.88-2.5 1.87-5.04 2.6-7.59c0.68-2.39 0.1-3.12-2.24-3.53c-13.05-2.39-26.04-4.83-39.09-7.17c-8.16-1.46-16.32-2.81-24.54-4.21c-0.1 0-0.26-0.05-0.36-0.1c-2.91-1.61-4.63-3.95-5.15-7.12zm61.81 87.38c-0.1 0.21-0.16 0.42-0.26 0.68c-0.36 0.94 0.78 1.66 1.51 1.04c0.26-0.21 0.52-0.42 0.73-0.68c0.1-0.1 0.47-0.31 0.47-0.52c0.47-0.26 0.57-0.47 0.94-0.83c8.73-9.15 17.41-18.3 26.15-27.39c9.41-9.77 18.82-19.55 28.23-29.32c10.86-11.28 21.78-22.51 32.65-33.79c4.73-4.89 9.41-9.88 14.09-14.87c0.42-0.47 0.68-1.04 0.88-1.61c0.21-0.47 0-0.99-0.47-1.2c-0.62-0.31-1.25-0.57-1.92-0.68c-2.81-0.31-5.67-0.36-8.53-0.62c-9.88-0.83-19.75-1.72-29.63-2.5c-6.86-0.57-13.78-1.04-20.64-1.56c-4.05-0.31-5.3-2.08-4.11-6.03c1.2-3.9 2.44-7.75 3.69-11.59c4.68-14.45 9.41-28.9 14.09-43.35c0.16-0.52 0.26-0.83 0.42-1.4c0.16-0.47 0.26-0.94 0.31-1.04c0.62-1.35 0.73-2.34 1.25-3.74c0 0 0 0 0-0.05c0.31-0.83-0.78-1.61-1.46-0.99c-8.27 7.38-16.48 14.71-24.69 22.14c-6.03 5.46-12.01 10.92-18.04 16.37c-10.19 9.2-20.43 18.4-30.62 27.55c-4.26 3.79-8.53 7.54-12.79 11.38c-4.63 4.16-9.2 8.37-13.78 12.58c-1.4 1.3-1.3 3.17 0.21 3.43c2.03 0.36 2.44 0.42 4.52 0.47c0.1 0 1.98 0.1 2.08 0.1c0.68 0.05 0.88 0.1 1.4 0.1c6.19 0.57 12.37 1.09 18.56 1.61c9.98 0.88 19.91 1.72 29.84 2.6c3.07 0.26 6.19 0.62 9.25 1.04c2.34 0.31 3.69 2.44 3.12 4.73c-0.21 0.73-0.42 1.51-0.73 2.24c-3.48 9.67-7.02 19.29-10.5 28.95c-4.21 11.7-8.42 23.39-12.58 35.14c-1.2 3.85-2.39 7.75-3.64 11.59z" />
		<path id="Layer" class="s3" d="m228.43 385.54c-0.83-0.16-1.3-1.09-0.83-1.77c0.05-0.05 0.05-0.1 0.1-0.16c5.25-5.51 10.5-11.02 15.85-16.43c0.47-0.52 0.62-0.68 1.2-1.09c0.1-0.1 0.21-0.16 0.36-0.21c1.25-0.47 0.83-0.36 5.46 0.42c0.78 0.16 1.51 0.36 2.29 0.36c9.56 0.16 19.08-0.57 28.38-3.17c23.96-6.86 42.31-20.74 53.91-43.09c0.52-0.99 1.25-2.18 1.51-2.96c0.16-0.42 0.94-0.36 1.87 0c2.44 0.88 4.99 1.56 7.49 2.39c1.14 0.36 2.34 0.62 3.38 1.14c7.28 3.59 14.45 7.43 20.74 12.58c7.75 6.34 15.91 12.27 22.4 20.01c3.02 3.59 4.42 7.9 4.94 12.53c0.68 1.92 0.42 3.53 0 5.2c-0.16 0.57-0.88 1.35-1.14 2.03c-0.1 0.21-0.21 0.42-0.36 0.57c-1.87 1.56-3.95 2.96-6.03 4.05c-5.09 2.55-10.4 4.68-15.65 6.97c-0.1 0.05-0.21 0.1-0.31 0.21c-2.24 1.98-6.6 2.18-9.88 3.38c-1.87 0.68-3.17 0.52-4.89 1.3c-0.16 0.05-0.31 0.1-0.52 0.1h-0.05c-0.26 0-0.52 0.1-0.78 0.26c-2.08 1.61-4.63 2.03-8.53 2.18c-0.05 0-0.1 0-0.16 0c-4.83 0.88-9.82 1.3-14.66 1.92c-12.68 1.61-25.26 2.13-38 1.51c-6.03-0.31-12.22-1.04-18.3-1.66c-6.65-0.68-13.2-2.08-19.7-3.27c-8.06-1.51-16.01-3.59-24.02-5.3c-0.94-0.21-2.08 0.21-3.12 0.42c-0.16 0.05-0.31 0-0.47 0l-2.5-0.42z" />
		<path id="Layer" class="s3" d="m212.47 355.86c0.31 0.62 0.36 1.35 0.21 1.98c-0.52 1.77-1.09 3.59-1.66 5.35c-1.3 3.85-1.98 6.5-3.38 10.34c-0.26 0.57-1.04 2.34-1.4 2.7l-2.6 0.36c-0.47 0.16-0.94 0.16-1.4-0.05c-1.92-0.88-3.79-1.77-5.72-2.6c-7.49-3.12-15.02-6.13-22.46-9.36c-4.68-2.03-9.3-4.21-13.72-6.71c-5.2-2.91-10.03-6.45-15.18-9.41c-8.42-4.89-15.13-11.9-22.61-17.93c-6.86-5.51-10.19-8.32-16.84-14.66c-1.35-2.03-3.59-3.79-5.41-7.33c-0.52-0.94-2.91-5.15-3.33-6.13c-1.77-3.9-2.7-6.13-2.55-9.56c0.1-1.82 1.51-3.85 2.91-5.2c3.48-3.38 7.38-6.19 11.96-8.01c8.47-3.33 17.36-4.42 26.36-5.41c4.99-0.52 9.93-1.2 14.92-1.66c0.88-0.1 1.77 0.16 2.65 0.36c0.42 0.1 0.78 0.26 1.09 0.52c2.13 1.77 4.31 3.48 6.45 5.25c0.47 0.42 0.83 0.99 0.94 1.56c0.47 2.29 1.46 3.53 2.91 5.04c0.73 0.73 0.99 1.82 0.68 2.81v0c-0.1 0.42-0.05 0.47-0.1 0.78c0 0.21 0 0.62 0 0.99c0.05 0.47 0 0.78 0 0.78c-0.1 0.21-0.36 0.31-0.1 1.35c0.73 3.38 1.56 6.71 2.65 9.98c7.33 22.46 21.57 39.35 41.64 51.46c0.21 0.1 0.42 0.16 0.62 0.16c0.88 0.05 1.66 0.62 2.08 1.4l0.42 0.83z" />
		<path id="Layer" class="s3" d="m297.36 199.96c-0.36-0.16-0.57-0.52-0.57-0.94c0-0.68 0-1.4 0.21-2.03c2.5-7.75 5.09-15.44 7.54-23.18c1.98-6.24-1.3-10.4-7.69-11.59c-4.73-0.88-7.69 0.88-10.81 3.79c-7.9 7.28-15.85 14.45-23.86 21.62c-0.78 0.73-1.66 1.3-2.55 1.98c-0.21 0.16-0.47 0.21-0.73 0.21c-3.38-0.42-6.76-1.04-10.08-1.09c-5.15 0-10.34 0.47-15.49 0.73c-2.24 0-1.09-0.88-0.47-1.61c11.59-13.31 23.18-26.62 34.83-39.87c1.72-1.98 2.7-3.27 4.47-5.2c0.36-0.42 1.09-1.25 1.35-1.61c0.78-1.04 1.77-1.87 2.55-2.76c9.36-10.81 18.82-21.47 28.07-32.33c3.79-4.47 8.58-6.13 13.88-5.25c5.25 0.88 10.4 2.65 15.33 4.63c7.33 2.86 12.63 8.11 14.09 16.06c0.83 4.37 3.38 6.08 7.12 7.07c0.99 0.26 2.03 0.42 3.02 0.73c3.07 0.78 4.16 2.24 3.22 5.25c-0.83 2.86-1.82 5.93-3.59 8.27c-1.56 2.08-4.21 3.43-6.55 4.83c-0.73 0.42-2.24 0.42-2.91-0.05c-3.48-2.34-7.17-4.57-10.19-7.43c-5.2-4.99-11.18-6.81-18.14-6.29c-3.85 0.26-5.25 2.18-4.47 6.08c0.31 1.61 0.73 3.22 0.99 4.83c2.86 18.19 5.72 36.39 8.58 54.58c0.94 6.08 1.87 12.16 2.7 18.25c0.1 0.68 0.73 1.72 0 2.29c-0.42 0.31-0.99 0.21-1.3-0.21c-5.77-6.91-13.15-11.7-20.95-16.01c-2.5-1.46-5.09-2.55-7.59-3.74z" />
		<path id="Layer" class="s2" d="m328.92 223.35c-0.94-1.2-1.56-2.65-1.4-4.16c0.05-0.52-0.26-1.2-0.31-1.66c-0.83-6.08-1.77-12.16-2.7-18.25c-2.86-18.19-5.72-36.39-8.58-54.58c-0.26-1.61-0.68-3.22-0.99-4.83c-0.78-3.9 0.62-5.82 4.47-6.08c6.97-0.52 12.94 1.35 18.14 6.29c3.02 2.91 6.71 5.09 10.19 7.43c0.73 0.47 2.18 0.52 2.91 0.05c2.34-1.4 4.99-2.76 6.55-4.83c1.77-2.34 2.76-5.35 3.59-8.27c0.88-3.07-0.21-4.47-3.22-5.25c-0.99-0.26-2.03-0.42-3.02-0.73c-3.74-0.99-6.34-2.65-7.12-7.07c-1.46-7.95-6.76-13.15-14.09-16.06c-4.99-1.92-10.14-3.69-15.33-4.63c-5.3-0.88-10.08 0.78-13.88 5.25c-9.25 10.86-18.71 21.57-28.07 32.33c-0.78 0.88-1.25 1.25-2.03 2.18c-0.42 0.52-1.35 1.51-2.08 2.29c-2.29 2.65-2.96 3.69-6.39 7.38c-10.86 11.75-21.36 23.81-31.55 36.13c-0.99 1.2-1.35 1.61-1.61 1.87c-0.73 0.83-1.72 1.4-2.81 1.66c-2.96 0.68-5.04 1.3-8.42 1.98c-0.99 0.21-2.03 0.42-3.38 0.21c2.18-2.55 4.37-5.09 6.6-7.64c10.71-12.27 21.42-24.48 32.13-36.7c6.5-7.43 13.05-14.82 19.49-22.25c5.56-6.39 11.07-12.84 16.74-19.13c4.78-5.3 10.71-9.51 17.52-11.28c3.22-0.83 6.5-0.94 10.5-0.94c7.23 0.31 13.62 3.48 20.07 6.45c5.2 2.39 9.56 5.98 11.96 11.38c1.3 2.96 2.13 6.08 3.43 9.1c0.36 0.88 1.35 2.03 2.24 2.44c1.72 0.88 3.64 1.25 5.41 1.98c5.15 2.08 6.39 3.64 5.56 9.05c-1.72 11.28-7.12 18.19-17.36 21.42c-2.86 0.88-5.51 0.52-7.9-1.14c-4.63-3.33-9.05-6.91-13.67-10.24c-1.87-1.3-4.05-2.18-6.5-3.48c4.99 31.66 9.93 62.9 14.97 94.66c-3.48-4.26-6.81-8.32-10.03-12.32z" />
		<path id="Layer" class="s2" d="m231.08 386.01c1.09-0.16 2.29-0.68 3.33-0.47c8.01 1.72 15.96 3.79 24.02 5.3c6.55 1.2 13.05 2.24 19.75 2.91c6.29 0.62 12.06 1.14 18.09 1.4c12.74 0.62 25.52 0.73 38.21-0.88c4.89-0.62 9.67-1.77 14.56-2.65c2.91-0.47 3.48-0.52 5.93-1.14c0.1 0 1.87-0.47 3.07-0.99l2.34-0.62c5.82-1.72 8.68-1.3 13.78-3.9c5.3-2.34 10.66-4.47 15.8-7.02c2.18-1.09 3.33-2.55 5.25-4.16c0.05-0.05 0.78-0.68 0.83-0.73c0.47-0.52 0.99-0.47 1.46-6.91c-0.52-4.63-1.92-8.94-4.94-12.53c-6.5-7.75-14.61-13.67-22.4-20.01c-6.34-5.2-13.46-9.05-20.74-12.58c-1.04-0.52-3.17-1.04-4.31-1.4c-0.78-0.42 0-2.39 0.36-4c0.99-4.11 1.61-8.27 2.44-12.42c0.1-0.62 0.36-1.51 0.36-2.34c0.31 0.62 1.2 1.82 1.3 2.44c0.42 2.03 0.83 4.05 0.99 6.13c0.1 1.66 0.94 2.44 2.34 3.07c8.42 3.74 16.37 8.21 23.55 14.04c6.71 5.41 13.31 11.02 19.6 16.95c6.76 6.34 10.66 14.3 12.42 23.44c1.4 7.23-1.3 12.48-6.97 16.58c-10.81 7.8-22.82 13-35.61 16.43c-11.7 3.12-23.55 5.3-35.71 5.93c-7.69 0.42-15.39 1.09-23.03 0.83c-12.48-0.47-25.06-0.78-37.32-3.38c-13.26-2.81-26.51-5.61-39.71-8.53c-3.95-0.88-3.85-0.99-1.72-4.21c0.99-1.56 1.82-3.12 2.7-4.57z" />
		<path id="Layer" class="s2" d="m336.97 316.82c-0.26 0.62-0.73 1.4-0.88 1.82c-0.36 0.83-0.42 0.78-0.94 1.77c-11.59 22.4-29.94 36.23-53.96 43.09c-9.3 2.65-18.77 3.33-28.38 3.17v0c-0.99 0-1.4-1.25-0.73-1.92c3.59-3.64 7.17-7.28 10.86-10.81c0.78-0.73 2.18-1.14 3.27-1.2c10.66-0.73 20.17-4.63 29.53-9.56c8.47-4.47 14.45-11.33 20.53-18.3c4-4.57 7.23-9.56 9.67-14.97c1.66-3.59 2.13-7.75 2.86-11.7c0.94-4.94 1.56-9.93 2.5-14.92c0.21-1.09 0.99-2.24 1.77-3.07c2.55-2.76 5.15-5.35 7.8-8.01c0.16-0.16 0.31-0.31 0.47-0.42c0.62-0.52 1.56-0.26 1.82 0.47c0.1 0.31 0.16 0.62 0.21 0.94c0.26 4.31 0.57 8.63 0.57 12.89c0 7.02-0.94 13.88-3.38 20.48c-1.09 3.07-2.18 6.08-3.17 9.2c-0.05 0.21-0.31 0.73-0.42 1.04z" />
		<path id="Layer" class="s2" d="m330.06 241.76c-3.48-0.26-7.64-0.52-11.75-0.88c-0.52-0.05-1.2-0.31-1.56-0.73c-4.99-4.89-9.93-9.82-14.97-14.66c-2.18-2.08-4.57-3.9-6.71-6.03c-0.47-0.47-0.73-1.66-0.52-2.34c0.94-2.96 2.18-5.82 3.12-8.79c0.52-1.56 1.2-1.72 2.34-0.83c4.47 3.33 9.2 6.39 13.41 10.03c6.97 6.03 12.79 13.1 17.52 21c0.26 0.47 0.52 0.88 0.83 1.35c0.99 1.46 0.88 2.29-1.72 1.87z" />
		<path id="Layer" class="s2" d="m164.13 265.67c0.78-3.69 1.3-7.43 2.29-11.02c3.27-11.54 8.68-21.88 16.58-31.03c11.12-12.89 24.8-21.68 41.01-26.46c5.09-1.51 10.45-2.13 15.7-3.12c0.42-0.1 0.83-0.1 1.3-0.21c0.83-0.16 1.66-0.31 2.44-0.47c-0.52 0.73-0.88 1.56-1.51 2.13c-4.68 4.37-9.36 8.73-14.14 13c-1.04 0.94-2.44 1.56-3.74 2.24c-9.15 4.73-18.51 9.15-25.58 16.95c-5.93 6.55-11.28 13.57-15.54 21.36c-0.31 0.52-0.62 1.04-1.09 1.46c-5.56 5.2-11.12 10.34-16.74 15.49c-0.36-0.1-0.68-0.21-0.99-0.31z" />
		<path id="Layer" class="s2" d="m169.8 291.87c2.18 0.68 4.31 0.99 6.55 1.46c1.87 0.36 2.91 1.09 3.64 3.02c2.86 7.95 5.98 15.8 11.02 22.77c5.15 7.12 10.55 13.88 18.35 18.3c1.77 0.99 3.27 2.5 4.83 3.85c0.42 0.36 0.83 1.25 0.68 1.72c-1.09 3.64-2.34 7.23-3.53 10.81c-0.68-0.05-1.51 0.1-2.03-0.21c-20.07-12.11-34.36-29.01-41.64-51.46c-1.04-3.27-1.66-6.71-2.65-9.98c-0.52-1.72 0.26-1.46 1.4-1.25c1.09 0.26 2.29 0.88 3.38 0.99z" />
	</g>
	<g id="Слой_5">
		<path id="Layer" class="s2" d="m249.23 68.76c-2.5 1.51-6.55 2.86-8.53 4.94c-4.57 4.73-5.51 6.55-7.69 13.83c-0.36 1.2-1.25 3.85-1.56 5.09c-1.87 7.12-1.56 14.4-1.56 21.73c0 1.66 0.1 3.27 0 4.94c-0.1 2.55-1.66 4.11-4.05 4.11c-2.34 0-3.95-1.56-3.95-4.21c-0.05-5.72 0.21-11.44-0.1-17.15c-0.42-8.06-2.76-15.65-6.76-22.61c-3.95-6.86-10.14-10.03-17.73-11.8c-9.05-2.13-18.14-2.03-27.29-2.08c-1.25 0-2.55-0.26-3.74-0.68c-1.46-0.47-2.08-1.77-2.08-3.27c0-1.51 0.52-2.76 2.03-3.33c1.04-0.36 2.13-0.68 3.22-0.68c4-0.1 7.95-0.1 11.96 0c7.54 0.16 14.56-0.78 21.68-2.86c6.6-3.38 9.56-6.86 12.58-11.8c0.42-0.62 0.94-1.2 1.35-1.82c0.57 1.04 1.09 2.13 1.66 3.17c4 8.16 9.77 14.71 17.57 19.39c3.95 2.5 8.01 4.99 13 5.09z" />
		<path id="Layer" class="s4" d="m200.93 55.35c3.12-0.88 5.15-2.81 7.38-4.63c5.41-4.47 7.75-10.86 9.88-17.31c2.5-7.75 2.13-15.7 2.13-23.65c0-1.66-0.1-3.27 0-4.94c0.1-2.55 1.66-4.11 4.05-4.11c2.34 0 3.95 1.56 3.95 4.21c0.05 5.72-0.21 11.44 0.1 17.15c0.42 8.06 2.76 15.65 6.76 22.61c3.95 6.86 10.14 10.03 17.73 11.8c9.05 2.13 18.14 2.03 27.29 2.08c1.25 0 2.55 0.26 3.74 0.68c1.46 0.47 2.08 1.77 2.08 3.27c0 1.51-0.52 2.76-2.03 3.33c-1.04 0.36-2.13 0.68-3.22 0.68c-4 0.1-7.95 0.1-11.96 0c-7.54-0.16-14.76 1.66-21.83 3.74c-5.67 1.66-8.63 5.67-11.64 10.55c-0.94 2.13-1.04 2.5-1.3 3.38c-0.57-1.04-1.92-3.38-2.44-4.47c-4-8.16-9.77-14.71-17.57-19.39c-4.05-2.39-8.11-4.94-13.1-4.99z" />
		<path id="Layer" class="s5" d="m329.33 338.39c-0.99 0.62-2.7 1.2-3.48 2.03c-1.87 1.92-2.24 2.7-3.17 5.67c-0.16 0.52-0.52 1.56-0.62 2.08c-0.78 2.91-0.62 5.93-0.62 8.89c0 0.68 0.05 1.35 0 2.03c-0.05 1.04-0.68 1.66-1.66 1.66c-0.99 0-1.61-0.62-1.61-1.72c0-2.34 0.1-4.68-0.05-7.02c-0.16-3.27-1.14-6.39-2.76-9.25c-1.61-2.81-4.16-4.11-7.28-4.83c-3.69-0.88-7.43-0.83-11.18-0.83c-0.52 0-1.04-0.1-1.56-0.26c-0.62-0.21-0.83-0.73-0.83-1.35c0-0.62 0.21-1.14 0.83-1.35c0.42-0.16 0.88-0.26 1.3-0.26c1.61-0.05 3.27-0.05 4.89 0c3.07 0.05 5.98-0.31 8.89-1.14c2.7-1.4 3.9-2.81 5.15-4.83c0.16-0.26 0.36-0.52 0.57-0.73c0.21 0.42 0.47 0.88 0.68 1.3c1.61 3.33 4 6.03 7.17 7.95c1.66 0.88 3.33 1.92 5.35 1.98z" />
		<path id="Layer" class="s6" d="m309.58 332.88c1.3-0.36 2.13-1.14 3.02-1.87c2.24-1.82 3.17-4.42 4.05-7.12c1.04-3.17 0.88-6.45 0.88-9.67c0-0.68-0.05-1.35 0-2.03c0.05-1.04 0.68-1.66 1.66-1.66c0.99 0 1.61 0.62 1.61 1.72c0 2.34-0.1 4.68 0.05 7.02c0.16 3.27 1.14 6.39 2.76 9.25c1.61 2.81 4.16 4.11 7.28 4.83c3.69 0.88 7.43 0.83 11.18 0.83c0.52 0 1.04 0.1 1.56 0.26c0.62 0.21 0.83 0.73 0.83 1.35c0 0.62-0.21 1.14-0.83 1.35c-0.42 0.16-0.88 0.26-1.3 0.26c-1.61 0.05-3.27 0.05-4.89 0c-3.07-0.05-6.03 0.68-8.94 1.56c-2.34 0.68-3.53 2.34-4.78 4.31c-0.36 0.88-0.42 1.04-0.52 1.4c-0.21-0.42-0.78-1.4-0.99-1.82c-1.61-3.33-4-6.03-7.17-7.95c-1.77-0.94-3.43-1.98-5.46-2.03z" />
		<path id="Layer" class="s6" d="m199.63 147.25c0.88 0 1.72 0 2.6 0c0.47 0.99 1.09 1.92 1.46 2.96c1.4 3.9 5.56 7.69 9.36 9.46c1.51 0.73 1.25 0.78 2.76 1.61c0 0.68 0 1.4 0 2.08c-0.83 0.42-1.61 0.99-2.5 1.25c-4.73 1.4-7.69 4.63-9.62 8.99c-0.52 1.14-1.25 2.18-1.92 3.27c-0.68 0-1.4 0-2.08 0c-0.36-0.68-1.25-2.29-1.46-3.02c-1.87-6.29-5.82-8.94-12.06-10.5c0-0.88 0-1.72 0-2.6c0.83-0.42 1.98-0.73 2.96-1.14c4.52-1.92 7.33-5.09 9.15-9.46c0.47-1.2 0.83-1.77 1.35-2.91z" />
		<path id="Layer" class="s7" d="m110.02 222.37c-0.42-0.62-0.42-1.4 0-1.98c0.42-0.62 1.04-1.25 1.56-1.82c1.46-1.56 2.7-2.7 4.05-4.26c2.03-2.24 3.69-2.24 5.72 0.05c1.3 1.46 2.76 2.7 4.05 4.11c2.08 2.13 1.98 3.33-0.05 5.61c-1.2 1.35-2.5 2.6-3.69 3.95c-1.77 1.92-4.11 2.55-6.39 0.05c-1.35-1.51-2.44-2.44-3.85-3.95c-0.31-0.42-1.09-1.3-1.4-1.77z" />
		<path id="Layer" class="s7" d="m269.14 430.14c-0.42-0.62-0.42-1.4 0-1.98c0.42-0.62 1.04-1.25 1.56-1.82c1.46-1.56 2.7-2.7 4.05-4.26c2.03-2.24 3.69-2.24 5.72 0.05c1.3 1.46 2.76 2.7 4.05 4.11c2.08 2.13 1.98 3.33-0.05 5.61c-1.2 1.35-2.5 2.6-3.69 3.95c-1.77 1.92-4.11 2.55-6.39 0.05c-1.35-1.51-2.44-2.44-3.85-3.95c-0.31-0.42-1.04-1.3-1.4-1.77z" />
		<path id="Layer" class="s8" d="m338.69 123.39c-16.62 0-30.05-13.43-30.05-30.05c0-16.62 13.43-30.05 30.05-30.05c16.62 0 30.05 13.43 30.05 30.05c0 16.62-13.43 30.05-30.05 30.05z" />
		<g id="Layer">
			<path id="Layer" class="s8" d="m338.79 122.72c-16.44 0-29.73-13.29-29.73-29.73c0-16.44 13.29-29.73 29.73-29.73c16.44 0 29.73 13.29 29.73 29.73c0 16.44-13.29 29.73-29.73 29.73z" />
			<path id="Layer" class="s9" d="m339 122.82c-16.44 0-29.73-13.29-29.73-29.73c0-16.44 13.29-29.73 29.73-29.73c16.44 0 29.73 13.29 29.73 29.73c0 16.44-13.29 29.73-29.73 29.73z" />
		</g>
		<path id="Layer" class="s6" d="m338.69 104.78c-6.32 0-11.44-5.11-11.44-11.44c0-6.32 5.11-11.44 11.44-11.44c6.32 0 11.44 5.11 11.44 11.44c0 6.32-5.11 11.44-11.44 11.44z" />
		<path id="Layer" class="s9" d="m345.29 261.82c-13.8 0-24.95-11.15-24.95-24.95c0-13.8 11.15-24.95 24.95-24.95c13.8 0 24.95 11.15 24.95 24.95c0 13.8-11.15 24.95-24.95 24.95z" />
		<g id="Layer">
			<path id="Layer" class="s7" d="m345.45 261.93c-13.8 0-24.95-11.15-24.95-24.95c0-13.8 11.15-24.95 24.95-24.95c13.8 0 24.95 11.15 24.95 24.95c0 13.8-11.15 24.95-24.95 24.95z" />
		</g>
		<path id="Layer" class="s10" d="m345.6 250.02c-7.19 0-13-5.88-13-13.15c0-7.27 5.81-13.15 13-13.15c7.19 0 13 5.88 13 13.15c0 7.27-5.81 13.15-13 13.15z" />
		<path id="Layer" class="s9" d="m200.57 420.68c-9.11 0-16.48-7.37-16.48-16.48c0-9.11 7.37-16.48 16.48-16.48c9.11 0 16.48 7.37 16.48 16.48c0 9.11-7.37 16.48-16.48 16.48z" />
		<g id="Layer">
			<path id="Layer" class="s7" d="m200.67 420.73c-9.11 0-16.48-7.37-16.48-16.48c0-9.11 7.37-16.48 16.48-16.48c9.11 0 16.48 7.37 16.48 16.48c0 9.11-7.37 16.48-16.48 16.48z" />
		</g>
		<path id="Layer" class="s10" d="m200.78 412.88c-4.74 0-8.58-3.88-8.58-8.68c0-4.8 3.83-8.68 8.58-8.68c4.74 0 8.58 3.88 8.58 8.68c0 4.8-3.83 8.68-8.58 8.68z" />
		<path id="Layer" class="s9" d="m115.21 309.54c-9.03 0-16.32-7.3-16.32-16.32c0-9.03 7.3-16.32 16.32-16.32c9.03 0 16.32 7.3 16.32 16.32c0 9.03-7.3 16.32-16.32 16.32z" />
		<g id="Layer">
			<path id="Layer" class="s9" d="m115.21 309.54c-9.03 0-16.32-7.3-16.32-16.32c0-9.03 7.3-16.32 16.32-16.32c9.03 0 16.32 7.3 16.32 16.32c0 9.03-7.3 16.32-16.32 16.32z" />
			<path id="Layer" class="s7" d="m115.27 309.23c-8.94 0-16.17-7.23-16.17-16.17c0-8.94 7.23-16.17 16.17-16.17c8.94 0 16.17 7.23 16.17 16.17c0 8.94-7.23 16.17-16.17 16.17z" />
			<path id="Layer" class="s7" d="m115.37 309.28c-8.94 0-16.17-7.23-16.17-16.17c0-8.94 7.23-16.17 16.17-16.17c8.94 0 16.17 7.23 16.17 16.17c0 8.94-7.23 16.17-16.17 16.17z" />
		</g>
		<path id="Layer" class="s9" d="m376.84 376.7c-9.03 0-16.32-7.3-16.32-16.32c0-9.03 7.3-16.32 16.32-16.32c9.03 0 16.32 7.3 16.32 16.32c0 9.03-7.3 16.32-16.32 16.32z" />
		<g id="Layer">
			<path id="Layer" class="s9" d="m376.84 376.7c-9.03 0-16.32-7.3-16.32-16.32c0-9.03 7.3-16.32 16.32-16.32c9.03 0 16.32 7.3 16.32 16.32c0 9.03-7.3 16.32-16.32 16.32z" />
			<path id="Layer" class="s7" d="m376.9 376.39c-8.94 0-16.17-7.23-16.17-16.17c0-8.94 7.23-16.17 16.17-16.17c8.94 0 16.17 7.23 16.17 16.17c0 8.94-7.23 16.17-16.17 16.17z" />
			<path id="Layer" class="s7" d="m377 376.44c-8.94 0-16.17-7.23-16.17-16.17c0-8.94 7.23-16.17 16.17-16.17c8.94 0 16.17 7.23 16.17 16.17c0 8.94-7.23 16.17-16.17 16.17z" />
		</g>
	</g>
	<g id="Слой_6">
		<path id="Layer" class="s6" d="m192.83 263.38l-1.04-0.88c-1.4-1.2-1.56-3.33-0.36-4.78l115.92-136.09c1.2-1.4 3.33-1.56 4.78-0.36l1.04 0.88c1.4 1.2 1.56 3.33 0.36 4.78l-115.92 136.09c-1.2 1.4-3.38 1.61-4.78 0.36z" />
		<path id="Layer" class="s6" d="m203.85 270.76l-0.26-1.3c-0.36-1.82 0.83-3.59 2.65-3.95l105.01-20.85c1.82-0.36 3.59 0.83 3.95 2.65l0.26 1.3c0.36 1.82-0.83 3.59-2.65 3.95l-105.01 20.85c-1.82 0.36-3.59-0.83-3.95-2.65z" />
		<path id="Layer" class="s6" d="m213.15 384.61l-0.99-0.88c-1.4-1.25-1.51-3.38-0.26-4.78l106.62-119.98c1.25-1.4 3.38-1.51 4.78-0.26l0.99 0.88c1.4 1.25 1.51 3.38 0.26 4.78l-106.62 119.92c-1.25 1.4-3.38 1.56-4.78 0.31z" />
		<path id="Layer" class="s6" d="m185.08 390.53l-1.04 0.83c-1.46 1.14-3.59 0.94-4.73-0.52l-57.8-72.15c-1.14-1.46-0.94-3.59 0.52-4.73l1.04-0.83c1.46-1.14 3.59-0.94 4.73 0.52l57.75 72.15c1.2 1.46 0.99 3.59-0.47 4.73z" />
		<path id="Layer" class="s6" d="m223.34 406.39l-0.31-1.3c-0.47-1.82 0.62-3.64 2.44-4.11l126.01-32.33c1.82-0.47 3.64 0.62 4.11 2.44l0.31 1.3c0.47 1.82-0.62 3.64-2.44 4.11l-126.01 32.33c-1.82 0.47-3.64-0.62-4.11-2.44z" />
		<path id="Layer" class="s9" d="m173.49 261.35c0.31 0.62 0.36 1.2 0.47 1.82c0.83 5.72 3.64 10.55 7.33 14.76c3.48 3.95 7.85 6.91 13.05 8.37c1.3 0.36 2.65 0.73 3.95 1.09c-1.77 0.78-2.76 1.35-3.59 1.87c-5.87 3.07-9.51 7.95-11.7 14.14c-0.47 1.3-0.94 2.6-1.4 3.9c-0.62 1.61-1.87 2.18-3.48 2.18c-1.51 0-2.65-0.62-3.27-2.13c-0.36-0.94-0.78-1.92-1.09-2.91c-2.18-7.17-6.55-12.48-13.31-15.75c-2.39-1.14-4.94-2.13-7.38-3.17c-0.42-0.16-0.83-0.26-1.2-0.47c-1.35-0.68-2.6-1.66-2.5-3.33c0.05-1.72 1.09-2.86 2.7-3.48c1.46-0.57 2.91-1.04 4.37-1.61c7.43-2.91 13.78-7.64 17.05-15.28z" />
		<path id="Layer" class="s11" d="m183.26 301.95c-0.31-0.62-0.31-1.2-0.42-1.82c-0.83-5.72-3.64-10.55-7.33-14.76c-3.48-3.95-7.85-6.91-13.05-8.37c-1.3-0.36-2.65-0.73-3.95-1.09c1.77-0.78 2.76-1.35 3.59-1.87c5.87-3.07 9.51-7.95 11.7-14.14c0.47-1.3 0.94-2.6 1.4-3.9c0.62-1.61 1.87-2.18 3.48-2.18c1.51 0 2.65 0.62 3.27 2.13c0.36 0.94 0.78 1.92 1.09 2.91c2.18 7.17 6.55 12.48 13.31 15.75c2.39 1.14 4.94 2.13 7.38 3.17c0.42 0.16 0.83 0.26 1.2 0.47c1.35 0.68 2.6 1.66 2.5 3.33c-0.05 1.72-1.09 2.86-2.7 3.48c-1.46 0.57-2.91 1.04-4.37 1.61c-7.49 2.96-13.88 7.64-17.1 15.28z" />
		<path id="Layer" class="s2" d="m251.15 462.53c0.31 0.62 0.36 1.2 0.47 1.82c0.83 5.72 3.64 10.55 7.33 14.76c3.48 3.95 7.85 6.91 13.05 8.37c1.3 0.36 2.65 0.73 3.95 1.09c-1.77 0.78-2.76 1.35-3.59 1.87c-5.87 3.07-9.51 7.95-11.7 14.14c-0.47 1.3-0.94 2.6-1.4 3.9c-0.62 1.61-1.87 2.18-3.48 2.18c-1.51 0-2.65-0.62-3.27-2.13c-0.36-0.94-0.78-1.92-1.09-2.91c-2.18-7.17-6.55-12.48-13.31-15.75c-2.39-1.14-4.94-2.13-7.38-3.17c-0.42-0.16-0.83-0.26-1.2-0.47c-1.35-0.68-2.6-1.66-2.5-3.33c0.05-1.72 1.09-2.86 2.7-3.48c1.46-0.57 2.91-1.04 4.37-1.61c7.49-2.91 13.83-7.64 17.05-15.28z" />
		<path id="Layer" class="s4" d="m260.92 503.13c-0.31-0.62-0.31-1.2-0.42-1.82c-0.83-5.72-3.64-10.55-7.33-14.76c-3.48-3.95-7.85-6.91-13.05-8.37c-1.3-0.36-2.65-0.73-3.95-1.09c1.77-0.78 2.76-1.35 3.59-1.87c5.87-3.07 9.51-7.95 11.7-14.14c0.47-1.3 0.94-2.6 1.4-3.9c0.62-1.61 1.87-2.18 3.48-2.18c1.51 0 2.65 0.62 3.27 2.13c0.36 0.94 0.78 1.92 1.09 2.91c2.18 7.17 6.55 12.48 13.31 15.75c2.39 1.14 4.94 2.13 7.38 3.17c0.42 0.16 0.83 0.26 1.2 0.47c1.35 0.68 2.6 1.66 2.5 3.33c-0.05 1.72-1.09 2.86-2.7 3.48c-1.46 0.57-2.91 1.04-4.37 1.61c-7.49 2.91-13.83 7.64-17.1 15.28z" />
	</g>
</svg>