<svg xmlns="http://www.w3.org/2000/svg" viewBox="0 0 512 512" width="512" height="512">
	<style>
		tspan { white-space:pre }
		.shp0 { fill: #703700 } 
		.shp1 { fill: #9a4c00 } 
		.shp2 { fill: #b38a65 } 
		.shp3 { fill: #c8ad92 } 
		.shp4 { fill: #ffaa20 } 
		.shp5 { fill: #ff8900 } 
		.shp6 { fill: #ff633e } 
		.shp7 { fill: #e70020 } 
		.shp8 { fill: #898890 } 
		.shp9 { fill: #787680 } 
		.shp10 { fill: #e8e2e4 } 
		.shp11 { fill: #d6d0d3 } 
		.shp12 { fill: #e95353 } 
		.shp13 { fill: #d44545 } 
	</style>
	<path id="Layer" class="shp0" d="M26.82 204.07L30.47 212.22L39.83 233.14L46.46 247.96L52.8 262.13L212.17 190.82C226.13 184.58 233.68 169.27 230.13 154.42C229.68 152.53 229.04 150.63 228.22 148.8C228.15 148.65 228.08 148.49 228.01 148.34C224.5 140.81 218.31 135.04 210.53 132.07C202.59 129.05 193.95 129.29 186.19 132.76L26.82 204.07Z" />
	<path id="Layer" class="shp1" d="M26.82 204.07L30.47 212.22L39.83 233.14L228.01 148.34C224.5 140.81 218.31 135.04 210.53 132.07C202.59 129.05 193.95 129.29 186.19 132.76L26.82 204.07Z" />
	<path id="Layer" class="shp2" d="M8 233.15C8 237.49 8.89 241.88 10.77 246.09C10.79 246.13 10.81 246.17 10.83 246.21C16.13 257.94 27.73 264.91 39.86 264.91C44.19 264.91 48.59 264.02 52.8 262.13C68.81 254.97 76 236.12 68.84 220.11C68.84 220.1 68.83 220.08 68.83 220.07C61.65 204.09 42.82 196.91 26.82 204.06C15.02 209.35 8 220.98 8 233.15Z" />
	<path id="Layer" class="shp3" d="M8 233.15C8 237.49 8.89 241.88 10.77 246.09C10.79 246.13 10.81 246.17 10.83 246.21L68.83 220.07C61.65 204.09 42.82 196.91 26.82 204.06C15.02 209.35 8 220.98 8 233.15Z" />
	<path id="Layer" class="shp1" d="M212.18 204.07L208.53 212.22L199.17 233.14L192.54 247.96L186.2 262.13L26.83 190.82C12.87 184.58 5.32 169.27 8.87 154.42C9.32 152.53 9.96 150.63 10.78 148.8C10.85 148.65 10.92 148.49 10.99 148.34C14.5 140.81 20.69 135.04 28.47 132.07C36.41 129.05 45.05 129.29 52.81 132.76L212.18 204.07Z" />
	<path id="Layer" class="shp4" d="M174.34 88.5C174.34 118.74 149.74 143.34 119.5 143.34C89.27 143.34 64.67 118.74 64.67 88.5C64.67 75.85 72.88 58.54 89.77 35.56C101.7 19.33 113.45 6.56 113.94 6.03L119.5 0L125.07 6.03C125.56 6.56 137.31 19.33 149.23 35.56C166.13 58.54 174.34 75.85 174.34 88.5L174.34 88.5Z" />
	<path id="Layer" class="shp0" d="M212.18 204.07L208.53 212.22L199.17 233.14L10.99 148.34C14.5 140.81 20.69 135.04 28.47 132.07C36.41 129.05 45.05 129.29 52.81 132.76L212.18 204.07Z" />
	<path id="Layer" class="shp3" d="M231 233.15C231 237.49 230.11 241.88 228.23 246.09C228.21 246.13 228.19 246.17 228.17 246.21C222.87 257.94 211.27 264.91 199.14 264.91C194.81 264.91 190.41 264.02 186.2 262.13C170.19 254.97 163 236.12 170.16 220.11C170.16 220.1 170.17 220.08 170.17 220.07C177.35 204.09 196.18 196.91 212.18 204.06C223.98 209.35 231 220.98 231 233.15L231 233.15Z" />
	<path id="Layer" class="shp2" d="M231 233.15C231 237.49 230.11 241.88 228.23 246.09C228.21 246.13 228.19 246.17 228.17 246.21L170.17 220.07C177.35 204.09 196.18 196.91 212.18 204.06C223.98 209.35 231 220.98 231 233.15L231 233.15Z" />
	<path id="Layer" class="shp5" d="M174.34 88.5C174.34 118.74 149.74 143.34 119.5 143.34L119.5 0L125.07 6.03C125.56 6.56 137.31 19.33 149.23 35.56C166.13 58.54 174.34 75.85 174.34 88.5L174.34 88.5Z" />
	<path id="Layer" class="shp6" d="M150.71 112.65C150.71 129.86 136.71 143.85 119.5 143.85C102.3 143.85 88.3 129.86 88.3 112.65C88.3 105.49 92.65 96.1 101.59 83.94C107.68 75.66 113.69 69.13 113.94 68.85L119.5 62.82L125.07 68.85C125.32 69.13 131.33 75.66 137.42 83.94C146.36 96.1 150.71 105.49 150.71 112.65L150.71 112.65Z" />
	<path id="Layer" class="shp7" d="M150.71 112.65C150.71 129.86 136.71 143.85 119.5 143.85L119.5 62.82L125.07 68.85C125.32 69.13 131.33 75.66 137.42 83.94C146.36 96.1 150.71 105.49 150.71 112.65L150.71 112.65Z" />
	<path id="Layer" class="shp8" d="M127.97 376.38C127.97 379.64 130.61 382.28 133.86 382.28L322.55 382.28C371.4 382.28 411 342.68 411 293.83L411 276.14L127.97 276.14L127.97 376.38Z" />
	<g id="Layer">
		<path id="Layer" class="shp9" d="M92.59 358.69L127.97 358.69L127.97 299.73L74.9 299.73C71.64 299.73 69 302.37 69 305.62L69 335.1C69 348.13 79.56 358.69 92.59 358.69Z" />
		<path id="Layer" class="shp9" d="M169.24 423.55C169.24 426.81 171.88 429.45 175.14 429.45L304.86 429.45C308.12 429.45 310.76 426.81 310.76 423.55L310.76 382.28L169.24 382.28L169.24 423.55Z" />
		<path id="Layer" class="shp9" d="M169.24 476.62C156.22 476.62 145.65 487.18 145.65 500.21L145.65 512L334.35 512L334.35 500.21C334.35 487.18 323.78 476.62 310.76 476.62L169.24 476.62Z" />
	</g>
	<path id="Layer" class="shp8" d="M198.72 429.45L281.28 429.45L281.28 476.62L198.72 476.62L198.72 429.45Z" />
	<path id="Layer" class="shp10" d="M452.39 23.49C446.26 23.49 440.34 24.49 434.78 26.35C430.82 27.67 426.5 26.47 423.73 23.35C410.91 8.96 392.92 0 373 0C354.2 0 336.9 8.24 324.27 21.23C320.57 25.62 314.63 27.3 309.12 25.69C304.17 24.25 298.98 23.49 293.61 23.49C260.69 23.49 234 52.39 234 88.04C234 120.02 255.47 146.56 283.65 151.7C287.36 152.37 290.06 155.61 290.06 159.38L290.06 243.82C290.06 249.79 294.9 254.63 300.87 254.63L444.26 254.63C450.23 254.63 455.07 249.79 455.07 243.82L455.07 159.51C455.07 155.71 457.81 152.46 461.56 151.83C490.13 147.06 512 120.32 512 88.04C512 52.39 485.31 23.49 452.39 23.49L452.39 23.49Z" />
	<g id="Layer">
		<path id="Layer" class="shp11" d="M301.24 243.82L301.24 159.38C301.24 155.61 298.55 152.37 294.84 151.7C266.66 146.56 245.19 120.02 245.19 88.04C245.19 54.43 268.9 26.83 299.2 23.77C297.36 23.59 295.5 23.49 293.61 23.49C260.69 23.49 234 52.39 234 88.04C234 120.02 255.47 146.56 283.65 151.7C287.36 152.37 290.06 155.61 290.06 159.38L290.06 243.82C290.06 249.79 294.9 254.63 300.87 254.63L312.06 254.63C306.09 254.63 301.24 249.79 301.24 243.82L301.24 243.82Z" />
		<path id="Layer" class="shp11" d="M320.3 25.69C325.82 27.3 331.76 25.62 335.46 21.23C346.84 9.53 362.01 1.68 378.65 0.24C376.78 0.08 374.9 0 373 0C354.2 0 336.9 8.24 324.27 21.23C322.73 23.05 320.8 24.4 318.68 25.25C319.22 25.39 319.77 25.54 320.3 25.69Z" />
		<path id="Layer" class="shp11" d="M317.56 228.17C315.24 228.17 313.36 226.29 313.36 223.97L313.36 191.36C313.36 189.04 315.24 187.16 317.56 187.16C319.87 187.16 321.75 189.04 321.75 191.36L321.75 223.97C321.75 226.29 319.87 228.17 317.56 228.17L317.56 228.17Z" />
		<path id="Layer" class="shp11" d="M345.06 228.17C342.74 228.17 340.87 226.29 340.87 223.97L340.87 191.36C340.87 189.04 342.74 187.16 345.06 187.16C347.38 187.16 349.26 189.04 349.26 191.36L349.26 223.97C349.26 226.29 347.38 228.17 345.06 228.17L345.06 228.17Z" />
		<path id="Layer" class="shp11" d="M372.56 228.17C370.25 228.17 368.37 226.29 368.37 223.97L368.37 191.36C368.37 189.04 370.24 187.16 372.56 187.16C374.88 187.16 376.76 189.04 376.76 191.36L376.76 223.97C376.76 226.29 374.88 228.17 372.56 228.17L372.56 228.17Z" />
		<path id="Layer" class="shp11" d="M400.07 228.17C397.75 228.17 395.87 226.29 395.87 223.97L395.87 191.36C395.87 189.04 397.75 187.16 400.07 187.16C402.38 187.16 404.26 189.04 404.26 191.36L404.26 223.97C404.26 226.29 402.38 228.17 400.07 228.17L400.07 228.17Z" />
		<path id="Layer" class="shp11" d="M427.57 228.17C425.25 228.17 423.37 226.29 423.37 223.97L423.37 191.36C423.37 189.04 425.25 187.16 427.57 187.16C429.89 187.16 431.76 189.04 431.76 191.36L431.76 223.97C431.76 226.29 429.88 228.17 427.57 228.17L427.57 228.17Z" />
		<path id="Layer" class="shp11" d="M452.27 63.66C449.99 46.2 442.49 33.24 436.89 25.69C436.18 25.9 435.48 26.12 434.78 26.35C431.2 27.55 427.33 26.67 424.57 24.19C424.59 24.21 424.61 24.23 424.62 24.24C424.78 24.4 440.65 39.5 443.95 64.75C444.25 67.04 446.35 68.66 448.65 68.36C450.95 68.06 452.57 65.96 452.27 63.66Z" />
		<path id="Layer" class="shp11" d="M321.22 24.25C321.47 24.01 321.69 23.75 321.87 23.48C318.26 26.15 313.55 26.99 309.12 25.69C309.07 25.68 309.03 25.67 308.99 25.66C303.38 33.2 295.86 46.17 293.58 63.66C293.25 66.17 295.21 68.4 297.74 68.4C299.82 68.4 301.62 66.86 301.9 64.75C305.19 39.57 320.97 24.49 321.22 24.25Z" />
	</g>
	<path id="Layer" class="shp12" d="M290.06 221.46L290.06 243.82C290.06 249.79 294.9 254.63 300.87 254.63L444.26 254.63C450.23 254.63 455.07 249.79 455.07 243.82L455.07 221.46L290.06 221.46Z" />
	<path id="Layer" class="shp13" d="M301.24 243.82L301.24 221.46L290.06 221.46L290.06 243.82C290.06 249.79 294.9 254.63 300.87 254.63L312.06 254.63C306.09 254.63 301.24 249.79 301.24 243.82L301.24 243.82Z" />
</svg>