<svg id="Flat" height="512" viewBox="0 0 340 340" width="512" xmlns="http://www.w3.org/2000/svg" xmlns:xlink="http://www.w3.org/1999/xlink"><linearGradient id="linear-gradient" gradientUnits="userSpaceOnUse" x1="244.866" x2="21.682" y1="95.196" y2="309.05"><stop offset="0" stop-color="#636c93"/><stop offset="1" stop-color="#444977"/></linearGradient><linearGradient id="linear-gradient-2" x1="248.164" x2="24.98" xlink:href="#linear-gradient" y1="98.638" y2="312.492"/><linearGradient id="linear-gradient-3" gradientUnits="userSpaceOnUse" x1="185.156" x2="4.445" y1="25.221" y2="189.822"><stop offset="0" stop-color="#ffe892"/><stop offset=".481" stop-color="#ffb147"/><stop offset="1" stop-color="#ff7145"/></linearGradient><linearGradient id="linear-gradient-4" x1="312.479" x2="131.768" xlink:href="#linear-gradient-3" y1="165.006" y2="329.607"/><linearGradient id="linear-gradient-5" gradientUnits="userSpaceOnUse" x1="321.185" x2="248.523" y1="26.243" y2="89.755"><stop offset="0" stop-color="#d2e2ff"/><stop offset="1" stop-color="#8b99e5"/></linearGradient><linearGradient id="linear-gradient-6" gradientUnits="userSpaceOnUse" x1="256.519" x2="306.702" y1="59.038" y2="26.528"><stop offset="0" stop-color="#d3e0ff"/><stop offset="1" stop-color="#fff"/></linearGradient><linearGradient id="linear-gradient-7" x1="247.745" x2="24.562" xlink:href="#linear-gradient" y1="98.201" y2="312.055"/><linearGradient id="linear-gradient-8" x1="246.208" x2="23.025" xlink:href="#linear-gradient" y1="96.598" y2="310.452"/><linearGradient id="linear-gradient-9" x1="251.927" x2="71.216" xlink:href="#linear-gradient-3" y1="98.528" y2="263.129"/><linearGradient id="linear-gradient-10" x1="248.299" x2="67.588" xlink:href="#linear-gradient-3" y1="94.544" y2="259.145"/><path d="m234.537 117.505 29.763-29.766c-2.43-6-6.385-10.087-12.041-12.042l-29.82 29.82a3.081 3.081 0 0 0 -.17 4.176 63.479 63.479 0 0 0 8.149 8.034 3.08 3.08 0 0 0 4.119-.222z" fill="url(#linear-gradient)"/><path d="m108.444 231.556s-14.241 4.628-36.756.217a7.685 7.685 0 0 0 -7.265 2.519c-4.93 5.668-15.063 17.4-23.818 28.07a2.2 2.2 0 0 0 2.165 3.557c6.814-1.479 17.433-1.984 25.364 5.947s7.426 18.55 5.947 25.364a2.2 2.2 0 0 0 3.557 2.165c10.669-8.755 22.4-18.888 28.07-23.818a7.685 7.685 0 0 0 2.519-7.265c-4.411-22.512.217-36.756.217-36.756z" fill="url(#linear-gradient-2)"/><path d="m137 71.727a3.212 3.212 0 0 1 -.626-6.362l1.606-.321a3.212 3.212 0 0 1 1.259 6.3l-1.606.321a3.256 3.256 0 0 1 -.633.062z" fill="url(#linear-gradient-3)"/><path d="m271.489 206.214a3.256 3.256 0 0 1 -.633-.062 3.213 3.213 0 0 1 -2.521-3.78l.321-1.606a3.212 3.212 0 0 1 6.3 1.259l-.321 1.606a3.212 3.212 0 0 1 -3.146 2.583z" fill="url(#linear-gradient-4)"/><path d="m277.07 86.085c3.566 3.566 2.483 7.894.337 11.426 4.13 3.576 8.535 7.2 12.73 10.277a1.452 1.452 0 0 0 2.312-1.061c.812-10.975 4.826-54.1 19.127-78.3-19.138 12.1-38.112 21.991-55.943 16.617-10.078 1.492-18.357 2.214-22.36 2.51a1.452 1.452 0 0 0 -1.061 2.312c3.079 4.2 6.7 8.6 10.277 12.73 3.532-2.146 7.86-3.229 11.426.337 2.623 2.624 2.272 5.791 1.384 8.163a13.018 13.018 0 0 1 -3.038 4.6l12.039 12.043a13.035 13.035 0 0 1 4.543-3.014c2.38-.906 5.58-1.287 8.227 1.36z" fill="url(#linear-gradient-5)"/><path d="m255.633 45.039a32.1 32.1 0 0 0 1.031 3.756 16.785 16.785 0 0 0 27.614 6.418l27.3-26.789c-15.378 9.087-38.391 14.017-55.945 16.615z" fill="url(#linear-gradient-6)"/><path d="m120.248 207.71-41.273 41.274a8.707 8.707 0 0 0 -.594 11.833 8.515 8.515 0 0 0 12.429.414l39.119-39.119a44.613 44.613 0 0 1 -9.681-14.402z" fill="url(#linear-gradient-7)"/><path d="m155.748 196.293 56.3-56.3c-4.934-3.026-8.06-7.931-9.624-14.458l-58.735 58.735a3.077 3.077 0 0 0 -.082 4.274c2.242 2.411 4.9 5.1 7.879 7.839a3.087 3.087 0 0 0 4.262-.09z" fill="url(#linear-gradient-8)"/><path d="m238.551 276.933c-3.119-52.176-35.468-79.1-47.5-87.368a2.773 2.773 0 0 0 -4.334 2.473c.28 4.072 1.062 9.353 3.191 11.5 10.167 10.235 15.421 19.59 18.1 26.979a10.016 10.016 0 0 1 -13 12.739c-29.721-11.142-56.53-41.729-56.53-41.729s-30.587-26.809-41.73-56.531a10.016 10.016 0 0 1 12.74-13c7.389 2.677 16.744 7.931 26.979 18.1 2.143 2.129 7.424 2.91 11.5 3.191a2.773 2.773 0 0 0 2.473-4.334c-8.268-12.033-35.192-44.382-87.368-47.5a2.784 2.784 0 0 0 -2.416 4.4c5.447 7.74 10.354 22.909-29.75 27.547a2.774 2.774 0 0 0 -.78 5.313c21.423 9.025 64.561 31.55 49.205 61.613a2.765 2.765 0 0 0 2.262 4.016c8.424.636 26.765 3.4 38.717 15.353s14.717 30.293 15.353 38.717a2.765 2.765 0 0 0 4.016 2.262c30.063-15.356 52.588 27.782 61.613 49.205a2.774 2.774 0 0 0 5.313-.78c4.638-40.1 19.806-35.2 27.547-29.75a2.784 2.784 0 0 0 4.399-2.416z" fill="url(#linear-gradient-9)"/><path d="m269.724 144.188a22.156 22.156 0 0 0 -5.695-9.792l-4.912-4.912a1.252 1.252 0 0 0 -2.108 1.141c.015.079.03.157.044.235a7.662 7.662 0 0 1 -9.644 8.7c-15.086-4.472-28.169-18.8-28.169-18.8s-14.327-13.077-18.8-28.16a7.664 7.664 0 0 1 8.7-9.654l.239.045a1.251 1.251 0 0 0 1.14-2.107l-4.919-4.913a22.156 22.156 0 0 0 -9.792-5.7c-7.589-2.089-21.521-5.158-36.017-4.475a1.255 1.255 0 0 0 -.73 2.225c6.489 5.33 21.142 20.254-1.487 31.611a1.251 1.251 0 0 0 .248 2.338c10.372 2.493 38.876 12.036 37.438 41.434a1.26 1.26 0 0 0 1.327 1.327c29.4-1.438 38.941 27.066 41.434 37.438a1.251 1.251 0 0 0 2.338.248c11.357-22.629 26.281-7.976 31.611-1.487a1.255 1.255 0 0 0 2.225-.73c.687-14.491-2.382-28.423-4.471-36.012z" fill="url(#linear-gradient-10)"/></svg>