<svg id="Flat" height="512" viewBox="0 0 512 512" width="512" xmlns="http://www.w3.org/2000/svg"><path d="m336 184h152v304h-152z" fill="#8d8d54"/><path d="m360 120h104v64h-104z" fill="#ded9af"/><path d="m336 120 72-72 72 72z" fill="#8d8d54"/><path d="m232 152h48v40h-48z" fill="#ef5249"/><path d="m224 136h16v128h-16z" fill="#ccdce5"/><path d="m232 248a208 208 0 0 1 208 208v32a0 0 0 0 1 0 0h-416a0 0 0 0 1 0 0v-32a208 208 0 0 1 208-208z" fill="#6a6a33"/><path d="m56 488v-32a176 176 0 0 1 176-176 176 176 0 0 1 176 176v32z" fill="#8d8d54"/><path d="m200 488v-48a32 32 0 0 1 32-32 32 32 0 0 1 32 32v48z" fill="#6a6a33"/><path d="m50.134 312.113-12.534-9.941a247.721 247.721 0 0 1 153.07-90.728l2.659 15.778a231.746 231.746 0 0 0 -143.195 84.891z" fill="#ccdce5"/><path d="m35.818 332.277-13.518-8.558c2.6-4.111 5.36-8.2 8.2-12.141l12.992 9.338c-2.659 3.692-5.239 7.515-7.674 11.361z" fill="#ccdce5"/><path d="m440 144a24.027 24.027 0 0 0 -24 24v168h16v-16h16v72h16v-224a24.027 24.027 0 0 0 -24-24zm0 16a8.009 8.009 0 0 1 8 8v40h-16v-40a8.009 8.009 0 0 1 8-8zm-8 80v-16h16v16zm16 16v16h-16v-16zm-16 48v-16h16v16z" fill="#6a6a33"/><path d="m128 416h32v32h-32z" fill="#ccdce5"/><path d="m304 416h32v32h-32z" fill="#ccdce5"/><g fill="#ffc119"><path d="m248 368h-32a8 8 0 0 1 -6.656-3.562l-14.162-21.244-36.751-7.349 3.138-15.69 40 8a8 8 0 0 1 5.087 3.407l13.625 20.438h23.438l13.625-20.438a8 8 0 0 1 4.716-3.323l32-8 3.88 15.522-29 7.25-14.285 21.427a8 8 0 0 1 -6.655 3.562z"/><path d="m224 312h16v16h-16z"/></g></svg>