<svg id="Layer_3" enable-background="new 0 0 64 64" height="512" viewBox="0 0 64 64" width="512" xmlns="http://www.w3.org/2000/svg"><path d="m4.731 30.432c-.454.753-.731 1.625-.731 2.568 0 2.761 2.239 5 5 5 1.131 0 2.162-.39 3-1.023.838.633 1.869 1.023 3 1.023 2.761 0 5-2.239 5-5 0-.943-.277-1.815-.731-2.568 1.615-.829 2.731-2.492 2.731-4.432 0-1.642-.802-3.086-2.025-3.998.635-.838 1.025-1.87 1.025-3.002 0-2.45-1.765-4.48-4.092-4.908-.428-2.327-2.458-4.092-4.908-4.092s-4.48 1.765-4.908 4.092c-2.327.428-4.092 2.458-4.092 4.908 0 1.132.39 2.164 1.025 3.002-1.223.912-2.025 2.356-2.025 3.998 0 1.94 1.116 3.603 2.731 4.432z" fill="#7ecb92"/><path d="m11 17h2v41h-2z" fill="#ab927a"/><path d="m8.499 17.964h2v7.071h-2z" fill="#ab927a" transform="matrix(.707 -.707 .707 .707 -12.42 13.014)"/><path d="m10.964 27.5h7.071v2h-7.071z" fill="#ab927a" transform="matrix(.707 -.707 .707 .707 -15.906 18.6)"/><path d="m36 16-24 42h48z" fill="#f8cd6d"/><g fill="#ccc"><path d="m14.286 54-2.286 4h48l-2.286-4z"/><path d="m24.571 36h22.858l-2.286-4h-18.286z"/><path d="m24.571 36h22.858l-2.286-4h-18.286z"/><path d="m24.571 36h22.858l-2.286-4h-18.286z"/></g><path d="m-2.676 34.117h55.635v2h-55.635z" fill="#ab927a" transform="matrix(.498 -.867 .867 .498 -17.831 39.431)"/><path d="m45.854 7.306h2v55.629h-2z" fill="#ab927a" transform="matrix(.867 -.498 .498 .867 -11.268 28.005)"/><path d="m59 12c1.657 0 3-1.343 3-3s-1.343-3-3-3c-.36 0-.7.074-1.019.19.003-.065.019-.125.019-.19 0-2.209-1.791-4-4-4s-4 1.791-4 4c0 .065.016.125.019.19-.319-.116-.659-.19-1.019-.19-1.657 0-3 1.343-3 3s1.343 3 3 3z" fill="#4a92bb"/><path d="m2 58c0-2.209 1.791-4 4-4 .732 0 1.41.211 2 .555.59-.344 1.268-.555 2-.555 2.209 0 4 1.791 4 4" fill="#7ecb92"/><path d="m2 58h60v4h-60z" fill="#666"/><path d="m2 58h57v4h-57z" fill="#999"/><path d="m26 58 10-18 10 18" fill="#ab927a"/><path d="m41.414 32h-2.828l-2.586 2.586-2.586-2.586h-2.828l-4 4h2.828l2.586-2.586 2.586 2.586h2.828l2.586-2.586 2.586 2.586h2.828z" fill="#999"/><path d="m36 40-1 1.8v16.2h2v-16.2z" fill="#56493d"/></svg>