<svg id="aea7eabf-d306-459a-90bb-4d4a8dfbb036" data-name="Layer 1" xmlns="http://www.w3.org/2000/svg" xmlns:xlink="http://www.w3.org/1999/xlink" viewBox="0 0 2000 2000"><defs><style>.a5c195ed-0870-4be8-b55d-e3f717d347f6{fill:none;}.b2f6c73a-b163-49d4-b2f9-320e1cf11583{fill:#aed76a;}.b14e9b1d-a6f7-4f04-9587-8e82eeadff7e{clip-path:url(#f714b443-1e14-48d0-a747-2a58920518bb);}.a3ed7565-33a1-4f5f-b1ac-015c149246fa{fill:#fecfae;}.b8e9429a-6461-409b-944b-bb761a0ce6fc{fill:#feede2;}.b137aefa-eff3-4ec2-a9d8-c12f30ce07cd{fill:#362314;}.a9b04db2-4046-4541-b507-89e373a0a76c{fill:#4f3f2f;}.bee71464-8c7e-43c2-9f7a-09c54e7694aa{fill:#7a6048;}.a221daed-42a8-429a-be52-b2bfd230dfc7{fill:#4e3e2f;}.a5570e88-f520-487b-9476-ed58e350a801{fill:#494918;}.f609b6cc-e206-492d-8086-a32a77fe415a{fill:#798428;}.b0ede80a-003d-486a-a4f3-bdcf4f542217{fill:#fefefe;}.a0e97c85-e5f9-4a9a-b86a-5ff6a201b90c{fill:#6a5540;}.be03da18-1cd7-44b7-aabc-dd27b2e057ea{fill:#f5f0eb;}.a397472e-ce96-45da-9da5-83b40026e953{fill:#b5906d;}.f733eef6-c148-4cc7-93bb-dfb84b39cda9{fill:#afd86c;}.ea657113-8f84-41c5-a114-712fb25439eb{fill:#afd86b;}.a25a8643-831a-4d50-9429-1f535525346b{fill:#1e150c;}.b3e897fb-567c-4146-9eb8-45e298802eaa{fill:#915f3d;}.bd329412-cdc1-461d-bc1e-07a9a2838b38{fill:#aa8b71;}.b9c3265b-45ba-4741-a360-cde159d887d6{fill:#878e2f;}.ef37f0fe-d26f-4d31-9d2d-b49f08ce51d1{fill:#717722;}.f0d5b5c4-b326-4202-9bd2-7be266e43dfd{fill:#1d140b;}</style><clipPath id="f714b443-1e14-48d0-a747-2a58920518bb"><path class="a5c195ed-0870-4be8-b55d-e3f717d347f6" d="M1474.39,1050.26s428.48,101.76,270.23,370.65c-164.11,278.78-582.87,66.81-774.86,157.8s-708.9,119.77-784.92-182.42C165,1317.64,204.32,1255.08,253.78,1210c58.29-53.16,133.27-84.38,212-89.84Z"/></clipPath></defs><path class="b2f6c73a-b163-49d4-b2f9-320e1cf11583" d="M1474.39,1050.26s428.48,101.76,270.23,370.65c-164.11,278.78-582.87,66.81-774.86,157.8s-708.9,119.77-784.92-182.42C165,1317.64,204.32,1255.08,253.78,1210c58.29-53.16,133.27-84.38,212-89.84Z"/><g class="b14e9b1d-a6f7-4f04-9587-8e82eeadff7e"><path class="a3ed7565-33a1-4f5f-b1ac-015c149246fa" d="M943.33,1237.16s36.41,161.16,271.36,152.61,337.55,165.09,251.67,228.36l258.44-55.92s18.73-220.36-258.44-241.87-402.87-37-410.55-87.62S941.75,1185.8,943.33,1237.16Z"/></g><path class="b8e9429a-6461-409b-944b-bb761a0ce6fc" d="M1020.28,1222.47v.4H1006v-.4Z"/><path class="b137aefa-eff3-4ec2-a9d8-c12f30ce07cd" d="M1398.64,1032.87c-1,15.08-1.38,30.16-1.65,45.29-.35,18.64-.31,37.32-.09,56,.09,7.07-.22,14.23.63,21.31.22,2,1.24,3.82,1.2,6-.18,8.32-.14,16.59-.22,24.91,0,1,.31,2.14-.58,2.94-3.38,3-6.19,6.54-11.39,7-11.52,1-22.87,3.3-34.26,5.16-8.89,1.43-17.61,4-26.69,4.45-17.61.94-35,3.47-52.49,6.19-11,1.73-21.84,4-32.92,5-6.63.67-13.3.67-19.93,1.29-15.79,1.56-31.54,3.34-47.29,4.94-6.45.66-12.94,1.42-19.35,2.53-3.2.58-277.51,23.22-279.64,23.54a178.05,178.05,0,0,1-18.06,2.22c-9.61.49-19.22,1-28.87.93a31.67,31.67,0,0,1-8.72-1.29c-4.81-1.37-9.61-3.15-14.73-3-16.19.4-32.25-1.38-48.27-3.25-19-2.18-37.85-4.76-56.72-7.61-23.57-3.51-47.06-7.42-70.42-12.14-18.15-3.69-36.16-7.79-54.32-11.43-7.69-1.56-15.52-2.27-23.22-3.78-13.52-2.63-26.91-5.88-40.52-8a280.38,280.38,0,0,1-32.48-7.25c-1.64-.49-3.25-.67-3.25-2.89.05-4.45-1.24-8.76-1.11-13.21q.87-32.23,1.51-64.46c.49-27.1,2.45-54.23.36-81.32-.71-9.44-.8-19-3.92-28.07-.71-2-.31-4.14-.22-6.19.49-9.61,1-19.22,1.6-28.83.85-12.85,1.83-25.71,2.81-38.57.75-9.87,1.64-19.79,2.44-29.67.18-1.78.27-3.47,1.56-4.94,9-10.23,16.95-21.35,25.54-31.94,19.79-24.42,39.94-48.53,60-72.73,19.8-24,39-48.54,59.93-71.58C643.35,700,660.26,678.23,679,658c7.2-11,16.81-19.93,25.49-29.63a109.65,109.65,0,0,0,10-13.57c1.87-2.84,2.76-5.87,1.29-9.2a6,6,0,0,1-.22-3.07c.53-13.71,3.51-27.36-.09-41.06-.4-1.61.35-3.3,1.07-4.72s2.35-.8,3.6-.89c12.1-.85,24.16-1.82,36.26-2.45,11.78-.62,23.57-1.69,35.32-3.07,23-2.67,46-5.78,69-8.8q31.63-4.14,63.26-8.59c25.05-3.51,50-7.74,74.87-12,36.26-6.23,72.47-12.86,109.08-17.08q17.63-2,35.32-2.9c10.81-.53,21.67-.26,32.48-.17a32.16,32.16,0,0,1,10.1,1.29c3.29,1.11,4.22,2.31,4.31,5.82.09,5.21,0,10.37.09,15.57,0,3.52.31,7.08-1.69,10.33a7.07,7.07,0,0,0-.8,3.87,20.1,20.1,0,0,1-1.25,6.49c-1.33,4.27-1.73,4.49-6.31,4.54a78.77,78.77,0,0,0-8.54.22c1.24,2,2.13,3.34,3,4.67q21.88,32.43,45.06,63.93c35.15,47.91,70.52,95.69,108.6,141.33,24.06,29,47.64,58.32,72.77,86.35a215.89,215.89,0,0,1,21.27,27.27,31.28,31.28,0,0,0,5.52,6.36c15.83,14.1,31.31,28.56,45.64,44.22a467.87,467.87,0,0,0,48.76,46.71A112.71,112.71,0,0,1,1533,979.84c1.78,1.92,3.25,4.23,5.92,5.21a2.62,2.62,0,0,1,1.64,2c1.12,5.34,2.5,11,.18,16.1-2.49,5.52-5.07,11-7.87,16.42-1.69,3.29-3.87,5.87-7.83,6.63a25.64,25.64,0,0,0-5.74,2.36,14.05,14.05,0,0,1-6.45,1.33c-8.9,0-17.84,0-26.65,1.16-6.8.93-13.61.8-20.42.75-10.63,0-21.35-.62-32-.31a169.74,169.74,0,0,1-21.27-.49c-4.45-.44-8.67-1.55-13.25-2.44A8.46,8.46,0,0,0,1398.64,1032.87Z"/><path class="a9b04db2-4046-4541-b507-89e373a0a76c" d="M509.63,1002.26a24.54,24.54,0,0,1-10.24,0Z"/><path class="bee71464-8c7e-43c2-9f7a-09c54e7694aa" d="M1390.73,1165.82c-.24-.24-1-.24-2.66-.1-12.75,1.08-25.45,2.1-38.2,3.19-7.58.65-14.91,1.59-22.31,2.4q-29.93,3.29-60,6.37c-24.06,2.47-48.24,4.86-72.36,7.25-27.6,2.74-55.14,5.54-82.74,8.22-20.65,2-41.49,3.76-62.22,5.49-.94.08-1.6.15-2.06.22l-249.05,22.27,1,11.61s254.78-23.16,294.32-26.94l.87-.08.82-.08,3.36-.34,9.17-.92c15.65-1.59,31.39-2.68,47.05-4.09q14.83-1.33,29.64-2.73c9.93-.94,19.86-1.93,29.79-2.89,9.49-.9,18.91-1.85,28.33-2.78l24.46-2.41q12.38-1.23,24.74-2.49l22.21-2.23c8.58-.86,17.22-1.71,25.8-2.59,9.54-1,19-2,28.43-3,6.66-.77,12.75-1.72,19.24-2.54,1.74-.22,3.13-.51,2.93-.8a.08.08,0,0,1,0-.09c3.13-.44,2.3-.92,4.35-1.36.78-.16.61-.26.6-.38C1397.16,1171,1393.44,1168.45,1390.73,1165.82Z"/><path class="bee71464-8c7e-43c2-9f7a-09c54e7694aa" d="M1404.1,1148.32c-.25-.25-1-.24-2.67-.1-12.75,1.07-25.45,2.1-38.2,3.18-7.58.65-14.91,1.59-22.31,2.4q-29.93,3.29-60,6.37c-24.06,2.47-48.24,4.86-72.36,7.26q-41.4,4.11-82.74,8.22c-20.65,2-41.49,3.76-62.21,5.48-1,.08-1.61.15-2.07.22l-249,22.27,1,11.62s254.78-23.17,294.32-27c.24,0,.52,0,.87-.08l.83-.08c1.9-.18,3-.3,3.35-.34l9.17-.91c15.65-1.6,31.39-2.69,47.06-4.1q14.82-1.32,29.63-2.73c9.94-.93,19.86-1.93,29.8-2.88,9.48-.91,18.9-1.86,28.33-2.79,8.13-.8,16.32-1.59,24.46-2.4s16.49-1.67,24.73-2.5l22.21-2.22c8.59-.87,17.22-1.72,25.81-2.6,9.53-1,19-2,28.42-3,6.66-.76,12.75-1.71,19.24-2.54,1.74-.22,3.13-.5,2.93-.8,0,0,0-.07.05-.08,3.13-.45,2.3-.92,4.36-1.37.78-.16.6-.26.59-.38C1410.53,1153.48,1406.81,1151,1404.1,1148.32Z"/><path class="bee71464-8c7e-43c2-9f7a-09c54e7694aa" d="M1390.73,1132.26c-.24-.24-1-.23-2.66-.09-12.75,1.07-25.45,2.09-38.2,3.18-7.58.65-14.91,1.59-22.31,2.4q-29.93,3.29-60,6.37c-24.06,2.47-48.24,4.86-72.36,7.25q-41.4,4.13-82.74,8.22c-20.65,2-41.49,3.77-62.22,5.49-.94.08-1.6.15-2.06.22l-249.05,22.27,1,11.61s254.78-23.16,294.32-26.94l.87-.08.82-.08c1.91-.18,3.05-.3,3.36-.34l9.17-.91c15.65-1.6,31.39-2.69,47.05-4.1q14.83-1.32,29.64-2.73c9.93-.94,19.86-1.93,29.79-2.88,9.49-.91,18.91-1.86,28.33-2.79,8.14-.8,16.33-1.59,24.46-2.41s16.49-1.66,24.74-2.49l22.21-2.22c8.58-.87,17.22-1.72,25.8-2.6,9.54-1,19-2,28.43-3,6.66-.76,12.75-1.72,19.24-2.54,1.74-.22,3.13-.5,2.93-.8,0,0,0-.07,0-.08,3.13-.45,2.3-.93,4.35-1.37.78-.16.61-.26.6-.38C1397.16,1137.42,1393.44,1134.89,1390.73,1132.26Z"/><path class="bee71464-8c7e-43c2-9f7a-09c54e7694aa" d="M1400.42,1114c-.24-.24-1-.24-2.62-.1-12.52,1-25,2.06-37.51,3.13-7.45.64-14.65,1.56-21.91,2.37q-29.4,3.22-59,6.28c-23.63,2.43-47.38,4.78-71.07,7.14-27.1,2.7-54.15,5.45-81.26,8.1-20.27,2-40.74,3.7-61.09,5.39-.93.08-1.58.15-2,.22l-244.59,21.89,1,11.62s250.23-22.79,289.06-26.5l.85-.08.81-.08c1.87-.19,3-.3,3.29-.34,3-.3,6-.59,9-.9,15.37-1.57,30.83-2.64,46.22-4q14.55-1.31,29.1-2.69c9.76-.92,19.51-1.9,29.26-2.84,9.32-.89,18.57-1.83,27.83-2.74,8-.79,16-1.57,24-2.37s16.19-1.64,24.29-2.46l21.81-2.19c8.43-.85,16.92-1.69,25.34-2.56,9.37-1,18.67-1.93,27.92-3,6.54-.76,12.52-1.7,18.9-2.52,1.7-.21,3.07-.49,2.87-.79,0,0,0-.07,0-.08,3.08-.45,2.26-.92,4.28-1.36.76-.16.59-.26.58-.38C1406.74,1119.2,1403.09,1116.67,1400.42,1114Z"/><path class="bee71464-8c7e-43c2-9f7a-09c54e7694aa" d="M1397.35,1097.29c-.25-.24-1-.24-2.66-.1-12.67,1.07-25.29,2.09-38,3.17-7.54.65-14.82,1.58-22.18,2.39q-29.76,3.27-59.7,6.34c-23.91,2.46-47.95,4.84-71.93,7.22-27.44,2.72-54.82,5.5-82.26,8.18-20.53,2-41.25,3.74-61.85,5.45-.94.08-1.59.15-2,.22l-247.6,22.15,1,11.61s253.3-23,292.61-26.79l.86-.08.83-.09c1.89-.18,3-.29,3.33-.33l9.12-.91c15.55-1.59,31.21-2.67,46.78-4.08q14.73-1.32,29.46-2.71c9.88-.93,19.75-1.92,29.62-2.87,9.43-.9,18.8-1.85,28.17-2.77,8.09-.8,16.23-1.59,24.32-2.4s16.39-1.65,24.59-2.48l22.08-2.21c8.53-.86,17.12-1.71,25.65-2.59,9.48-1,18.9-1.95,28.26-3,6.63-.76,12.68-1.71,19.13-2.53,1.73-.22,3.11-.51,2.92-.8a.07.07,0,0,1,0-.09c3.12-.44,2.29-.92,4.33-1.36.78-.16.6-.26.59-.38C1403.74,1102.46,1400,1099.92,1397.35,1097.29Z"/><path class="bee71464-8c7e-43c2-9f7a-09c54e7694aa" d="M1392.89,1081.2c-.25-.24-1-.24-2.67-.1-12.75,1.07-25.44,2.1-38.19,3.19-7.58.65-14.92,1.59-22.31,2.4q-29.94,3.29-60,6.37c-24.06,2.47-48.24,4.86-72.36,7.25q-41.4,4.11-82.74,8.22c-20.65,2-41.48,3.76-62.21,5.49-.94.08-1.6.15-2.07.22l-249,22.27,1,11.61S1057,1125,1096.55,1121.18l.86-.08.83-.08,3.35-.34,9.17-.92c15.65-1.59,31.4-2.68,47.06-4.09q14.82-1.34,29.64-2.73c9.93-.94,19.86-1.93,29.79-2.89,9.48-.9,18.9-1.86,28.33-2.78l24.46-2.41q12.38-1.23,24.73-2.49l22.22-2.23c8.58-.86,17.22-1.71,25.8-2.6,9.53-1,19-2,28.42-3,6.67-.77,12.75-1.72,19.25-2.54,1.73-.22,3.12-.51,2.93-.8,0,0,0-.07,0-.09,3.13-.44,2.29-.92,4.35-1.36.78-.17.6-.26.59-.38C1399.32,1086.36,1395.6,1083.83,1392.89,1081.2Z"/><path class="bee71464-8c7e-43c2-9f7a-09c54e7694aa" d="M1396.42,1060.74c-.24-.24-1-.24-2.63-.1-12.55,1.06-25,2.06-37.61,3.13-7.46.65-14.68,1.57-22,2.38q-29.46,3.24-59.12,6.29c-23.69,2.44-47.5,4.8-71.25,7.16q-40.77,4.07-81.47,8.11c-20.33,2-40.85,3.71-61.26,5.41-.93.08-1.58.15-2,.22l-245.23,22,1,11.61s250.88-22.84,289.81-26.56l.86-.08.81-.08,3.3-.34c3-.3,6-.59,9-.9,15.41-1.57,30.91-2.64,46.34-4q14.6-1.31,29.18-2.69c9.78-.92,19.56-1.9,29.34-2.84,9.33-.9,18.61-1.84,27.89-2.75l24.09-2.38q12.18-1.21,24.35-2.46l21.88-2.2c8.45-.85,17-1.69,25.4-2.56,9.39-1,18.72-1.93,28-3,6.56-.76,12.55-1.7,19-2.52,1.71-.21,3.07-.5,2.88-.79a.08.08,0,0,1,0-.09c3.08-.44,2.26-.92,4.29-1.36.76-.16.59-.26.58-.37C1402.76,1065.91,1399.09,1063.37,1396.42,1060.74Z"/><path class="bee71464-8c7e-43c2-9f7a-09c54e7694aa" d="M1400.79,1041.73c-.25-.25-1-.24-2.67-.1-12.75,1.07-25.45,2.1-38.19,3.18-7.59.66-14.92,1.59-22.32,2.4q-29.92,3.29-60,6.37c-24.06,2.47-48.24,4.86-72.36,7.26q-41.4,4.11-82.74,8.22c-20.65,2-41.48,3.76-62.21,5.48-.94.08-1.6.15-2.07.23l-249,22.27,1,11.61s254.79-23.17,294.32-27l.87-.07.83-.09c1.9-.18,3-.3,3.35-.34l9.17-.91c15.65-1.6,31.4-2.69,47.06-4.1q14.82-1.32,29.64-2.72c9.93-.94,19.86-1.94,29.79-2.89,9.48-.91,18.9-1.86,28.33-2.79,8.13-.8,16.33-1.59,24.46-2.4s16.49-1.67,24.73-2.5l22.22-2.22c8.58-.87,17.22-1.72,25.8-2.6,9.53-1,19-2,28.42-3,6.67-.77,12.75-1.72,19.25-2.55,1.73-.22,3.12-.5,2.93-.8a.06.06,0,0,1,0-.08c3.13-.45,2.29-.92,4.35-1.37.78-.16.6-.26.59-.38C1407.22,1046.89,1403.5,1044.36,1400.79,1041.73Z"/><path class="bee71464-8c7e-43c2-9f7a-09c54e7694aa" d="M1403.2,1022c-.24-.24-1-.24-2.66-.1-12.75,1.08-25.45,2.1-38.2,3.19-7.58.65-14.91,1.59-22.31,2.4q-29.92,3.29-60,6.37c-24,2.47-48.23,4.86-72.35,7.25-27.6,2.74-55.14,5.54-82.75,8.22-20.64,2-41.48,3.76-62.21,5.49-.94.08-1.6.15-2.06.22l-249,22.27,1,11.61s254.78-23.16,294.32-26.94l.87-.08.82-.08,3.35-.34,9.18-.92c15.64-1.59,31.39-2.68,47.05-4.09q14.82-1.34,29.64-2.73c9.93-.94,19.86-1.93,29.79-2.88,9.49-.91,18.91-1.86,28.33-2.79l24.46-2.41q12.38-1.23,24.74-2.49l22.21-2.23c8.58-.86,17.22-1.71,25.8-2.59,9.54-1,19-2,28.42-3,6.67-.77,12.76-1.72,19.25-2.54,1.73-.22,3.12-.51,2.93-.8,0,0,0-.07,0-.09,3.13-.44,2.3-.92,4.35-1.36.78-.16.6-.26.59-.38C1409.63,1027.17,1405.91,1024.64,1403.2,1022Z"/><path class="bee71464-8c7e-43c2-9f7a-09c54e7694aa" d="M810.65,1066.75c.24.25,1,.25,2.67.13,12.76-.9,25.47-1.76,38.23-2.68,7.59-.55,14.93-1.39,22.34-2.11q30-2.89,60.12-5.59c24.09-2.15,48.3-4.22,72.45-6.3,27.63-2.38,55.21-4.82,82.84-7.14,20.67-1.74,41.53-3.22,62.28-4.67.94-.07,1.6-.13,2.07-.2l249.31-19-.82-11.63s-255.06,19.84-294.65,23.1c-.24,0-.52,0-.87.07l-.82.07-3.36.29-9.18.8c-15.67,1.39-31.43,2.27-47.11,3.48q-14.84,1.13-29.67,2.34c-9.94.81-19.88,1.67-29.83,2.49-9.49.79-18.93,1.62-28.36,2.42-8.15.7-16.35,1.38-24.49,2.09s-16.51,1.45-24.77,2.17l-22.24,1.93c-8.59.75-17.24,1.49-25.83,2.26-9.55.85-19,1.71-28.46,2.67-6.68.68-12.77,1.55-19.28,2.29-1.73.19-3.13.46-2.94.76a.06.06,0,0,1,0,.08c-3.13.41-2.31.89-4.37,1.31-.78.15-.6.25-.59.37C804.29,1061.51,808,1064.09,810.65,1066.75Z"/><path class="bee71464-8c7e-43c2-9f7a-09c54e7694aa" d="M794.23,1050.82c.25.25,1,.25,2.76.13,13.19-.94,26.32-1.83,39.51-2.78,7.84-.57,15.43-1.43,23.09-2.16q31-3,62.14-5.73c24.9-2.21,49.92-4.34,74.88-6.48,28.56-2.44,57.05-4.94,85.62-7.33,21.36-1.79,42.92-3.32,64.36-4.82.88-.06,1.52-.12,2-.18l.3,0,251.74-19.16a5.82,5.82,0,0,0,5.37-6.21h0a5.82,5.82,0,0,0-6.25-5.4c-39,3-261.39,20.29-298.69,23.34l-.9.07-.85.08c-2,.16-3.16.26-3.47.3l-9.49.82c-16.19,1.42-32.48,2.34-48.69,3.59q-15.33,1.17-30.66,2.41c-10.28.83-20.55,1.72-30.83,2.57-9.81.8-19.56,1.65-29.31,2.48l-25.31,2.14-25.6,2.23-23,2c-8.88.77-17.82,1.53-26.69,2.32-9.87.88-19.68,1.76-29.42,2.73-6.9.7-13.2,1.59-19.92,2.34-1.8.2-3.24.47-3,.77a.07.07,0,0,1-.06.08c-3.24.42-2.39.9-4.52,1.32-.8.16-.62.26-.61.37C787.67,1045.59,791.47,1048.16,794.23,1050.82Z"/><path class="bee71464-8c7e-43c2-9f7a-09c54e7694aa" d="M801,1032.06c.25.25,1,.25,2.75.13,13.19-.94,26.32-1.83,39.51-2.78,7.85-.57,15.44-1.43,23.09-2.16q31-3,62.14-5.73c24.9-2.21,49.92-4.34,74.88-6.48,28.56-2.44,57.06-4.94,85.62-7.33,21.36-1.79,42.92-3.32,64.36-4.82.89-.07,1.53-.12,2-.18l.29,0,251.75-19.15a5.82,5.82,0,0,0,5.36-6.22h0a5.82,5.82,0,0,0-6.25-5.39c-39,3-261.39,20.28-298.69,23.34l-.89.07-.86.08c-2,.16-3.15.26-3.47.3l-9.49.82c-16.19,1.42-32.48,2.34-48.68,3.59q-15.33,1.17-30.67,2.41c-10.27.83-20.55,1.72-30.82,2.56-9.82.81-19.57,1.66-29.32,2.49l-25.31,2.14-25.6,2.23-23,2c-8.88.77-17.82,1.53-26.7,2.32-9.87.88-19.67,1.75-29.42,2.73-6.9.7-13.2,1.59-19.92,2.34-1.8.2-3.24.47-3,.77,0,0,0,.07,0,.08-3.24.42-2.39.9-4.52,1.32-.81.15-.63.25-.62.37C794.44,1026.83,798.25,1029.4,801,1032.06Z"/><path class="bee71464-8c7e-43c2-9f7a-09c54e7694aa" d="M796.86,1013.73c.25.25,1,.25,2.75.13,13.19-.93,26.33-1.83,39.52-2.78,7.84-.57,15.43-1.42,23.09-2.16q31-3,62.14-5.73c24.89-2.21,49.91-4.34,74.87-6.47,28.56-2.45,57.06-5,85.62-7.34,21.37-1.78,42.93-3.32,64.37-4.82.88-.06,1.52-.12,2-.18l.3,0,251.74-19.16a5.83,5.83,0,0,0,5.37-6.21h0a5.82,5.82,0,0,0-6.25-5.4c-39,3-261.39,20.29-298.69,23.34l-.9.07-.85.08c-2,.16-3.16.27-3.47.3l-9.49.82c-16.2,1.42-32.48,2.35-48.69,3.59q-15.33,1.17-30.66,2.41c-10.28.83-20.55,1.72-30.83,2.57-9.81.8-19.56,1.66-29.32,2.48-8.41.72-16.89,1.42-25.31,2.15l-25.59,2.22-23,2-26.7,2.32c-9.86.88-19.67,1.76-29.41,2.74-6.9.69-13.21,1.58-19.93,2.33-1.79.2-3.23.47-3,.77,0,0,0,.07,0,.09-3.24.41-2.39.89-4.52,1.31-.81.16-.62.26-.62.38C790.3,1008.5,794.1,1011.07,796.86,1013.73Z"/><path class="bee71464-8c7e-43c2-9f7a-09c54e7694aa" d="M821,993.3c.25.25,1,.25,2.76.13,13.19-.94,26.32-1.83,39.51-2.78,7.84-.57,15.43-1.43,23.09-2.16q31-3,62.14-5.73c24.9-2.21,49.92-4.34,74.88-6.48,28.56-2.44,57.05-4.94,85.62-7.33,21.36-1.79,42.92-3.32,64.36-4.82.88-.07,1.52-.12,2-.18a1.53,1.53,0,0,1,.3,0l251.74-19.16a5.82,5.82,0,0,0,5.37-6.22h0a5.82,5.82,0,0,0-6.25-5.39c-39,3-261.39,20.29-298.69,23.34l-.9.07-.85.08c-2,.16-3.16.26-3.47.3l-9.49.82c-16.19,1.42-32.48,2.34-48.69,3.59q-15.33,1.17-30.66,2.41c-10.28.83-20.55,1.72-30.83,2.57-9.81.8-19.56,1.65-29.31,2.48L948.26,971l-25.6,2.23-23,2c-8.88.77-17.82,1.53-26.69,2.32-9.87.88-19.68,1.76-29.42,2.73-6.9.7-13.2,1.59-19.92,2.34-1.8.2-3.24.47-3,.77a.07.07,0,0,1-.06.08c-3.24.42-2.39.9-4.52,1.32-.8.16-.62.25-.61.37C814.39,988.07,818.19,990.64,821,993.3Z"/><path class="bee71464-8c7e-43c2-9f7a-09c54e7694aa" d="M815,977.5c.25.25,1,.25,2.75.12,13.19-.93,26.33-1.82,39.52-2.77,7.84-.57,15.43-1.43,23.09-2.16q31-3,62.14-5.73c24.89-2.21,49.91-4.34,74.87-6.48q42.84-3.68,85.62-7.33c21.37-1.79,42.92-3.32,64.37-4.83.88-.06,1.52-.12,2-.18l.29,0L1421.37,929a5.82,5.82,0,0,0,5.36-6.22h0a5.81,5.81,0,0,0-6.25-5.39c-39,3-261.39,20.28-298.68,23.34l-.9.07-.86.07c-2,.17-3.15.27-3.47.31l-9.49.81c-16.19,1.43-32.47,2.35-48.68,3.59q-15.33,1.17-30.66,2.42c-10.28.83-20.56,1.71-30.83,2.56-9.81.81-19.57,1.66-29.32,2.49l-25.31,2.14c-8.53.73-17.06,1.49-25.59,2.23l-23,2c-8.88.77-17.82,1.53-26.7,2.32-9.87.87-19.67,1.75-29.41,2.73-6.9.7-13.21,1.58-19.93,2.34-1.79.2-3.24.47-3,.77,0,0,0,.07,0,.08-3.24.41-2.39.9-4.52,1.32-.81.15-.63.25-.62.37C808.42,972.27,812.22,974.84,815,977.5Z"/><path class="a221daed-42a8-429a-be52-b2bfd230dfc7" d="M471.52,1190.13c.08.28.47.41,1.42.59,7.15,1.32,14.26,2.67,21.42,4,4.25.77,8.44,1.22,12.63,1.8q17,2.35,34,4.92c13.59,2,27.23,4.21,40.85,6.34,15.57,2.45,31.13,4.83,46.69,7.33,11.64,1.87,23.33,4,35,6.18a10.59,10.59,0,0,0,1.09.16l.16,0,136.77,23.88c1.73.31,3.61-2,4.19-5.14h0c.58-3.18-.36-6-2.11-6.31-21.2-3.64-142.1-24.42-162.41-27.74l-.48-.09-.47-.07-1.89-.29-5.18-.81c-8.84-1.34-17.62-3.2-26.42-4.73q-8.34-1.44-16.68-2.83c-5.59-.93-11.2-1.8-16.8-2.71-5.34-.87-10.66-1.69-16-2.53l-13.8-2.19c-4.65-.73-9.31-1.44-14-2.16L517,1185.78c-4.85-.75-9.72-1.52-14.57-2.25-5.39-.82-10.75-1.62-16.09-2.32-3.79-.48-7.3-.69-11-1.08-1-.11-1.8-.09-1.76.23,0,0,0,.07,0,.07-1.8-.14-1.46.47-2.67.52-.46,0-.38.14-.41.26C469.21,1183.93,470.65,1187.07,471.52,1190.13Z"/><path class="a221daed-42a8-429a-be52-b2bfd230dfc7" d="M464.77,1170.64c.08.28.48.41,1.42.58,7.15,1.32,14.26,2.68,21.42,4,4.25.77,8.44,1.22,12.63,1.79q17,2.35,34,4.93c13.59,2,27.24,4.2,40.85,6.34,15.57,2.44,31.13,4.83,46.69,7.33,11.65,1.87,23.33,4,35,6.18.48.08.83.14,1.09.16l.17,0,136.76,23.88c1.74.3,3.61-2,4.19-5.15h0c.59-3.17-.36-6-2.11-6.3-21.2-3.65-142.09-24.42-162.4-27.75l-.49-.08-.47-.07-1.89-.29-5.18-.81c-8.84-1.35-17.62-3.2-26.42-4.73q-8.34-1.45-16.68-2.83c-5.59-.93-11.2-1.8-16.79-2.71-5.35-.87-10.67-1.69-16-2.54l-13.79-2.19-14-2.15-12.54-2c-4.85-.75-9.72-1.52-14.57-2.25-5.39-.81-10.74-1.62-16.09-2.31-3.78-.49-7.3-.69-11-1.09-1-.11-1.81-.09-1.77.23,0,0,0,.08,0,.08-1.8-.15-1.45.47-2.67.52-.46,0-.38.14-.4.26C462.46,1164.43,463.9,1167.58,464.77,1170.64Z"/><path class="a221daed-42a8-429a-be52-b2bfd230dfc7" d="M477.24,1153.42c.08.28.48.41,1.42.59,7.15,1.32,14.26,2.67,21.42,4,4.25.77,8.44,1.22,12.63,1.8q17,2.35,34,4.92c13.59,2,27.24,4.21,40.85,6.34,15.57,2.45,31.13,4.83,46.69,7.33,11.64,1.87,23.33,4,34.95,6.18a10.59,10.59,0,0,0,1.09.16l.16,0,136.77,23.88c1.73.31,3.61-2,4.19-5.14h0c.58-3.18-.36-6-2.11-6.31-21.2-3.65-142.09-24.42-162.41-27.74l-.48-.09-.47-.07L644,1169l-5.18-.81c-8.84-1.34-17.62-3.2-26.42-4.73q-8.34-1.44-16.68-2.83c-5.59-.93-11.2-1.8-16.8-2.71-5.34-.87-10.66-1.69-16-2.53l-13.8-2.19c-4.65-.73-9.31-1.44-14-2.16l-12.54-2-14.57-2.25c-5.39-.81-10.75-1.61-16.09-2.31-3.79-.48-7.3-.69-11-1.09-1-.1-1.81-.09-1.77.24,0,0,0,.07-.05.07-1.8-.14-1.45.47-2.67.52-.46,0-.38.14-.41.26C474.93,1147.22,476.37,1150.36,477.24,1153.42Z"/><path class="a221daed-42a8-429a-be52-b2bfd230dfc7" d="M464.77,1132.23c.08.28.48.41,1.42.58,7.15,1.32,14.26,2.67,21.42,4,4.25.77,8.44,1.21,12.63,1.79q17,2.36,34,4.93c13.59,2,27.24,4.2,40.85,6.34,15.57,2.44,31.13,4.83,46.69,7.32,11.65,1.88,23.33,4,35,6.18.48.09.83.14,1.09.17H658l136.76,23.89c1.74.3,3.61-2,4.19-5.15h0c.59-3.17-.36-6-2.11-6.31-21.2-3.64-142.09-24.41-162.4-27.74l-.49-.08-.47-.07c-1.07-.18-1.72-.28-1.89-.29l-5.18-.81c-8.84-1.35-17.62-3.2-26.42-4.73q-8.34-1.46-16.68-2.83c-5.59-.93-11.2-1.8-16.79-2.71-5.35-.88-10.67-1.7-16-2.54L536.71,1132c-4.66-.73-9.32-1.43-14-2.15l-12.54-2c-4.85-.75-9.72-1.52-14.57-2.25-5.39-.82-10.74-1.62-16.09-2.31-3.78-.49-7.3-.69-11-1.09-1-.11-1.81-.09-1.77.23,0,0,0,.07,0,.08-1.8-.15-1.45.47-2.67.52-.46,0-.38.14-.4.26C462.46,1126,463.9,1129.17,464.77,1132.23Z"/><path class="a221daed-42a8-429a-be52-b2bfd230dfc7" d="M469.32,1111.75c.08.28.5.41,1.5.6,7.56,1.39,15.08,2.82,22.64,4.2,4.5.81,8.92,1.3,13.35,1.93q17.93,2.52,35.9,5.27c14.37,2.2,28.79,4.49,43.17,6.78,16.46,2.6,32.9,5.15,49.35,7.81,12.3,2,24.66,4.26,36.94,6.55.51.09.88.15,1.15.17l.17,0,144.56,25.32c1.84.32,3.79-2,4.37-5.11h0c.58-3.18-.44-6-2.29-6.34-22.41-3.87-150.19-25.91-171.65-29.45l-.52-.09-.49-.07c-1.13-.19-1.82-.3-2-.31l-5.47-.87c-9.34-1.44-18.62-3.39-27.93-5q-8.8-1.53-17.63-3c-5.91-1-11.83-1.92-17.75-2.89-5.65-.93-11.27-1.8-16.89-2.7-4.85-.77-9.73-1.57-14.58-2.33l-14.76-2.31-13.25-2.08-15.4-2.4c-5.69-.87-11.35-1.73-17-2.48-4-.52-7.71-.76-11.62-1.2-1.05-.12-1.91-.11-1.87.22,0,0,0,.07,0,.07-1.9-.17-1.53.45-2.81.49-.49,0-.41.14-.43.26C466.82,1105.51,468.37,1108.67,469.32,1111.75Z"/><path class="a221daed-42a8-429a-be52-b2bfd230dfc7" d="M466.32,1094c.07.28.47.41,1.41.58,7.12,1.32,14.2,2.66,21.32,4,4.23.77,8.4,1.21,12.57,1.79q16.89,2.33,33.83,4.89c13.53,2,27.11,4.18,40.66,6.31,15.5,2.43,31,4.8,46.48,7.28,11.58,1.86,23.22,4,34.79,6.15a10.1,10.1,0,0,0,1.08.16l.16,0,136.13,23.77c1.73.3,3.6-2,4.18-5.15h0c.58-3.18-.35-6-2.1-6.31-21.1-3.62-141.43-24.29-161.65-27.6l-.49-.08-.46-.07-1.88-.29-5.16-.81c-8.8-1.34-17.53-3.18-26.3-4.7q-8.29-1.46-16.6-2.82c-5.57-.92-11.15-1.79-16.72-2.7-5.32-.86-10.61-1.68-15.91-2.52-4.56-.72-9.16-1.46-13.73-2.17s-9.27-1.43-13.9-2.15l-12.48-1.94c-4.83-.74-9.68-1.5-14.51-2.23-5.36-.81-10.69-1.61-16-2.3-3.77-.48-7.27-.68-11-1.08-1-.11-1.79-.09-1.76.24,0,0,0,.07,0,.07-1.79-.15-1.45.47-2.66.52-.46,0-.38.14-.4.26C464,1087.83,465.45,1091,466.32,1094Z"/><path class="a221daed-42a8-429a-be52-b2bfd230dfc7" d="M473.05,1074.37c.08.28.48.41,1.42.59,7.12,1.31,14.2,2.66,21.32,4,4.23.76,8.4,1.2,12.57,1.78q16.89,2.34,33.82,4.89c13.54,2.05,27.12,4.19,40.66,6.31,15.51,2.43,31,4.8,46.48,7.29,11.59,1.86,23.23,4,34.79,6.15a10.59,10.59,0,0,0,1.09.16l.16,0,136.13,23.77c1.73.3,3.59-2,4.18-5.15h0c.58-3.18-.36-6-2.1-6.31-21.1-3.63-141.43-24.29-161.65-27.6l-.49-.09-.46-.07-1.89-.29-5.15-.8c-8.8-1.34-17.54-3.19-26.3-4.71q-8.29-1.44-16.6-2.82c-5.57-.92-11.15-1.79-16.72-2.69-5.32-.87-10.62-1.68-15.91-2.52-4.57-.72-9.16-1.47-13.73-2.18l-13.91-2.14L518.28,1070c-4.82-.74-9.67-1.51-14.5-2.24-5.36-.81-10.69-1.61-16-2.3-3.77-.48-7.27-.68-11-1.07-1-.11-1.8-.09-1.76.23,0,0,0,.07,0,.07-1.79-.14-1.45.47-2.66.53-.46,0-.39.14-.41.25C470.76,1068.17,472.19,1071.32,473.05,1074.37Z"/><path class="a221daed-42a8-429a-be52-b2bfd230dfc7" d="M473.05,1055.3c.08.28.48.41,1.42.59,7.12,1.31,14.2,2.66,21.32,3.95,4.23.77,8.4,1.21,12.57,1.79q16.89,2.34,33.82,4.89c13.54,2,27.12,4.18,40.66,6.31,15.51,2.43,31,4.8,46.48,7.29,11.59,1.86,23.23,4,34.79,6.15.48.08.83.14,1.09.16l.16,0,136.13,23.76c1.73.31,3.59-2,4.18-5.15h0c.58-3.17-.36-6-2.1-6.3-21.1-3.63-141.43-24.3-161.65-27.6l-.49-.09L641,1071l-1.89-.29-5.15-.8c-8.8-1.34-17.54-3.19-26.3-4.71q-8.29-1.44-16.6-2.82c-5.57-.92-11.15-1.79-16.72-2.69-5.32-.87-10.62-1.69-15.91-2.52-4.57-.72-9.16-1.47-13.73-2.18s-9.27-1.43-13.91-2.14l-12.48-1.94c-4.82-.74-9.67-1.51-14.5-2.24-5.36-.81-10.69-1.61-16-2.3-3.77-.48-7.27-.68-11-1.08-1-.1-1.8-.08-1.76.24,0,0,0,.07,0,.07-1.79-.14-1.45.47-2.66.53-.46,0-.39.14-.41.25C470.76,1049.1,472.19,1052.25,473.05,1055.3Z"/><path class="a221daed-42a8-429a-be52-b2bfd230dfc7" d="M473.05,1035.38c.08.28.48.41,1.42.58,7.12,1.32,14.2,2.66,21.32,4,4.23.77,8.4,1.21,12.57,1.79q16.89,2.32,33.82,4.89c13.54,2,27.12,4.18,40.66,6.31,15.51,2.43,31,4.8,46.48,7.28,11.59,1.86,23.23,4,34.79,6.15a10.59,10.59,0,0,0,1.09.16l.16,0,136.13,23.77c1.73.3,3.59-2,4.18-5.15h0c.58-3.18-.36-6-2.1-6.3-21.1-3.63-141.43-24.3-161.65-27.61l-.49-.08-.46-.07-1.89-.29-5.15-.81c-8.8-1.33-17.54-3.18-26.3-4.7q-8.29-1.44-16.6-2.82c-5.57-.92-11.15-1.79-16.72-2.7-5.32-.86-10.62-1.68-15.91-2.52-4.57-.72-9.16-1.46-13.73-2.17s-9.27-1.43-13.91-2.15L518.28,1031c-4.82-.75-9.67-1.51-14.5-2.24-5.36-.81-10.69-1.61-16-2.3-3.77-.48-7.27-.68-11-1.08-1-.11-1.8-.09-1.76.24,0,0,0,.07,0,.07-1.79-.15-1.45.47-2.66.52-.46,0-.39.14-.41.26C470.76,1029.18,472.19,1032.32,473.05,1035.38Z"/><path class="a221daed-42a8-429a-be52-b2bfd230dfc7" d="M483,1016.3c.08.28.47.41,1.42.58,7.11,1.32,14.19,2.66,21.31,4,4.24.77,8.4,1.21,12.58,1.79q16.88,2.33,33.82,4.89c13.53,2,27.11,4.18,40.66,6.31,15.5,2.43,31,4.8,46.48,7.28,11.59,1.86,23.22,4,34.79,6.15a10.1,10.1,0,0,0,1.08.16l.17,0,136.13,23.77c1.73.3,3.59-2,4.17-5.15h0c.59-3.18-.35-6-2.09-6.31-21.11-3.62-141.44-24.29-161.66-27.6l-.48-.08-.47-.07-1.88-.29-5.15-.81c-8.8-1.34-17.54-3.18-26.31-4.7q-8.28-1.46-16.59-2.82c-5.57-.92-11.15-1.79-16.72-2.7-5.32-.86-10.62-1.68-15.91-2.52-4.57-.72-9.17-1.46-13.74-2.17s-9.27-1.43-13.9-2.15l-12.48-1.94c-4.82-.74-9.68-1.5-14.5-2.23-5.37-.81-10.7-1.61-16-2.3-3.77-.48-7.26-.68-10.95-1.08-1-.11-1.8-.09-1.76.24,0,0,0,.07-.05.07-1.79-.15-1.45.47-2.66.52-.45,0-.38.14-.4.26C480.69,1010.1,482.12,1013.24,483,1016.3Z"/><path class="a221daed-42a8-429a-be52-b2bfd230dfc7" d="M479.47,995.32c.08.29.48.42,1.42.59,7.12,1.31,14.19,2.66,21.32,4,4.23.76,8.4,1.21,12.57,1.78q16.89,2.34,33.82,4.89c13.53,2.05,27.11,4.19,40.66,6.31,15.51,2.43,31,4.8,46.48,7.29,11.59,1.86,23.23,4,34.79,6.15a10.59,10.59,0,0,0,1.09.16l.16,0,136.13,23.77c1.73.3,3.59-2,4.17-5.15h0c.59-3.18-.35-6-2.09-6.31-21.1-3.63-141.44-24.29-161.65-27.6l-.49-.09-.46-.07-1.89-.29-5.15-.8c-8.8-1.34-17.54-3.19-26.3-4.71q-8.29-1.44-16.6-2.82c-5.57-.92-11.15-1.78-16.72-2.69-5.32-.87-10.62-1.68-15.91-2.52-4.57-.72-9.16-1.47-13.73-2.18l-13.91-2.14-12.48-1.94c-4.82-.74-9.67-1.51-14.5-2.24-5.36-.81-10.69-1.6-16-2.29-3.77-.49-7.27-.69-11-1.08-1-.11-1.8-.09-1.76.23,0,0,0,.07-.05.07-1.79-.14-1.44.47-2.65.53-.46,0-.39.14-.41.26C477.18,989.12,478.61,992.27,479.47,995.32Z"/><path class="a221daed-42a8-429a-be52-b2bfd230dfc7" d="M483,975.42c.08.29.47.42,1.42.59,7.11,1.31,14.19,2.66,21.31,4,4.24.76,8.4,1.21,12.58,1.78q16.88,2.34,33.82,4.89c13.53,2.05,27.11,4.19,40.66,6.31,15.5,2.43,31,4.8,46.48,7.29,11.59,1.86,23.22,4,34.79,6.15a10.1,10.1,0,0,0,1.08.16l.17,0,136.13,23.77c1.73.3,3.59-2,4.17-5.15h0c.59-3.18-.35-6-2.09-6.31-21.11-3.63-141.44-24.29-161.66-27.6l-.48-.09-.47-.07-1.88-.29-5.15-.8c-8.8-1.34-17.54-3.19-26.31-4.71q-8.28-1.44-16.59-2.82c-5.57-.92-11.15-1.79-16.72-2.69-5.32-.87-10.62-1.68-15.91-2.52-4.57-.72-9.17-1.47-13.74-2.18L540.69,973,528.21,971c-4.82-.74-9.68-1.51-14.5-2.24-5.37-.81-10.7-1.61-16-2.29-3.77-.49-7.26-.69-10.95-1.08-1-.11-1.8-.09-1.76.23,0,0,0,.07-.05.07-1.79-.14-1.45.47-2.66.53-.45,0-.38.14-.4.25C480.69,969.22,482.12,972.37,483,975.42Z"/><path class="a221daed-42a8-429a-be52-b2bfd230dfc7" d="M473.05,955.27c.08.28.48.41,1.42.58,7.12,1.32,14.2,2.66,21.32,4,4.23.77,8.4,1.21,12.57,1.79q16.89,2.32,33.82,4.89c13.54,2,27.12,4.18,40.66,6.31,15.51,2.43,31,4.8,46.48,7.28,11.59,1.86,23.23,4,34.79,6.15a10.59,10.59,0,0,0,1.09.16l.16,0,136.13,23.77c1.73.3,3.59-2,4.18-5.15h0c.58-3.18-.36-6-2.1-6.31-21.1-3.62-141.43-24.29-161.65-27.6l-.49-.08L641,971l-1.89-.29-5.15-.81c-8.8-1.34-17.54-3.18-26.3-4.7q-8.29-1.45-16.6-2.82c-5.57-.92-11.15-1.79-16.72-2.7-5.32-.86-10.62-1.68-15.91-2.52-4.57-.72-9.16-1.46-13.73-2.17s-9.27-1.43-13.91-2.15l-12.48-1.94c-4.82-.74-9.67-1.5-14.5-2.23-5.36-.81-10.69-1.61-16-2.3-3.77-.48-7.27-.68-11-1.08-1-.11-1.8-.09-1.76.24,0,0,0,.07,0,.07-1.79-.15-1.45.47-2.66.52-.46,0-.39.14-.41.26C470.76,949.07,472.19,952.21,473.05,955.27Z"/><path class="a221daed-42a8-429a-be52-b2bfd230dfc7" d="M489.8,938.57c.07.28.47.41,1.41.58,7.12,1.32,14.2,2.66,21.32,4,4.23.77,8.4,1.21,12.57,1.79q16.89,2.33,33.83,4.89c13.53,2,27.11,4.18,40.66,6.31,15.5,2.43,31,4.8,46.48,7.28,11.58,1.86,23.22,4,34.79,6.15a10.1,10.1,0,0,0,1.08.16l.16,0,136.14,23.77c1.72.3,3.59-2,4.17-5.15h0c.58-3.18-.35-6-2.1-6.31-21.1-3.62-141.43-24.29-161.65-27.6l-.48-.08-.47-.07-1.88-.29-5.16-.81c-8.8-1.34-17.53-3.18-26.3-4.7q-8.29-1.46-16.6-2.82c-5.57-.92-11.15-1.79-16.72-2.7-5.32-.86-10.61-1.68-15.91-2.52-4.56-.72-9.16-1.46-13.73-2.17s-9.27-1.43-13.9-2.15L535,934.17c-4.83-.74-9.68-1.5-14.51-2.23-5.36-.81-10.69-1.61-16-2.3-3.77-.48-7.27-.68-10.95-1.08-1-.11-1.8-.09-1.77.24,0,0,0,.07,0,.07-1.79-.15-1.45.47-2.66.52-.46,0-.38.14-.4.26C487.5,932.37,488.93,935.51,489.8,938.57Z"/><path class="bee71464-8c7e-43c2-9f7a-09c54e7694aa" d="M821,956.54c.25.25,1,.25,2.76.12,13.19-.93,26.32-1.82,39.51-2.77,7.84-.57,15.43-1.43,23.09-2.16q31-3,62.14-5.73c24.9-2.21,49.92-4.34,74.88-6.48,28.56-2.44,57.05-4.94,85.62-7.33,21.36-1.79,42.92-3.32,64.36-4.82.88-.07,1.52-.12,2-.19l.3,0L1427.34,908a5.82,5.82,0,0,0,5.37-6.22h0a5.82,5.82,0,0,0-6.25-5.39c-39,3-261.39,20.28-298.69,23.34l-.9.07-.85.08c-2,.16-3.16.26-3.47.3l-9.49.81c-16.19,1.43-32.48,2.35-48.69,3.6q-15.33,1.17-30.66,2.41c-10.28.83-20.55,1.72-30.83,2.56-9.81.81-19.56,1.66-29.31,2.49l-25.31,2.14c-8.54.73-17.07,1.49-25.6,2.23l-23,2c-8.88.77-17.82,1.53-26.69,2.32-9.87.88-19.68,1.75-29.42,2.73-6.9.7-13.2,1.58-19.92,2.34-1.8.2-3.24.47-3,.77a.07.07,0,0,1-.06.08c-3.24.41-2.39.9-4.52,1.32-.8.15-.62.25-.61.37C814.39,951.31,818.19,953.88,821,956.54Z"/><path class="bee71464-8c7e-43c2-9f7a-09c54e7694aa" d="M825.08,936.78c.25.24,1,.25,2.75.12,13.19-.93,26.33-1.82,39.52-2.77,7.84-.57,15.43-1.43,23.09-2.17q31-3,62.14-5.72c24.89-2.21,49.91-4.35,74.87-6.48,28.56-2.45,57.06-5,85.62-7.34,21.37-1.78,42.93-3.32,64.37-4.82.88-.06,1.52-.12,2-.18l.3,0,251.74-19.15a5.84,5.84,0,0,0,5.37-6.22h0a5.82,5.82,0,0,0-6.25-5.39c-39,3-261.39,20.28-298.69,23.34-.25,0-.54,0-.9.07l-.85.07c-2,.17-3.16.27-3.47.31-3.17.27-6.35.53-9.49.81-16.2,1.43-32.48,2.35-48.69,3.59q-15.33,1.17-30.66,2.41c-10.28.84-20.55,1.72-30.83,2.57-9.81.81-19.56,1.66-29.32,2.48-8.41.72-16.89,1.42-25.31,2.15s-17.06,1.49-25.59,2.23l-23,2c-8.88.78-17.82,1.54-26.7,2.33-9.86.87-19.67,1.75-29.41,2.73-6.9.69-13.21,1.58-19.93,2.34-1.79.2-3.23.47-3,.76a.06.06,0,0,1-.05.09c-3.24.41-2.39.89-4.52,1.32-.81.15-.62.25-.62.37C818.52,931.55,822.32,934.12,825.08,936.78Z"/><path class="bee71464-8c7e-43c2-9f7a-09c54e7694aa" d="M825.08,917.13c.25.24,1,.24,2.75.12,13.19-.93,26.33-1.82,39.52-2.77,7.84-.58,15.43-1.43,23.09-2.17q31-3,62.14-5.72c24.89-2.22,49.91-4.35,74.87-6.48,28.56-2.45,57.06-5,85.62-7.34,21.37-1.78,42.93-3.32,64.37-4.82.88-.06,1.52-.12,2-.18l.3,0,251.74-19.16a5.83,5.83,0,0,0,5.37-6.21h0a5.82,5.82,0,0,0-6.25-5.39c-39,3-261.39,20.28-298.69,23.34-.25,0-.54,0-.9.07l-.85.07c-2,.16-3.16.27-3.47.3l-9.49.82c-16.2,1.43-32.48,2.35-48.69,3.59q-15.33,1.17-30.66,2.41c-10.28.83-20.55,1.72-30.83,2.57-9.81.81-19.56,1.66-29.32,2.48-8.41.72-16.89,1.42-25.31,2.15s-17.06,1.49-25.59,2.23l-23,2c-8.88.78-17.82,1.54-26.7,2.33-9.86.87-19.67,1.75-29.41,2.73-6.9.69-13.21,1.58-19.93,2.34-1.79.19-3.23.46-3,.76,0,0,0,.07-.05.09-3.24.41-2.39.89-4.52,1.32-.81.15-.62.25-.62.37C818.52,911.9,822.32,914.47,825.08,917.13Z"/><path class="bee71464-8c7e-43c2-9f7a-09c54e7694aa" d="M1429.46,844.68a5.81,5.81,0,0,0-6.25-5.4c-39,3-261.39,20.29-298.68,23.34l-.9.07-.86.08c-2,.16-3.15.27-3.47.3l-9.49.82c-16.19,1.42-32.47,2.34-48.68,3.59q-15.33,1.17-30.66,2.41c-10.28.83-20.56,1.72-30.83,2.57-9.81.8-19.57,1.65-29.32,2.48L945,877.08l-25.59,2.23-23,2c-8.88.77-17.82,1.53-26.7,2.32-9.87.88-19.67,1.76-29.41,2.73l-1.12.12v11.78L860,896.78c7.84-.57,15.43-1.43,23.09-2.16q31-3,62.14-5.73c24.89-2.21,49.91-4.34,74.87-6.48,28.56-2.44,57.06-4.94,85.62-7.33,21.37-1.78,42.92-3.32,64.37-4.82.88-.06,1.52-.12,2-.18a1.43,1.43,0,0,1,.29,0l251.75-19.16A5.81,5.81,0,0,0,1429.46,844.68Z"/><path class="bee71464-8c7e-43c2-9f7a-09c54e7694aa" d="M1412.76,828.57h0a5.82,5.82,0,0,0-6.25-5.39c-39,3-261.39,20.28-298.69,23.34l-.89.07-.86.07c-2,.17-3.15.27-3.47.31l-9.49.81c-16.19,1.43-32.48,2.35-48.68,3.6q-15.33,1.17-30.67,2.41c-10.27.83-20.55,1.72-30.82,2.56-9.82.81-19.57,1.66-29.32,2.49L928.31,861c-8.53.73-17.06,1.49-25.6,2.23l-23,2c-8.88.77-17.82,1.53-26.7,2.32l-13.83,1.24V881l4.07-.29c7.85-.57,15.44-1.43,23.09-2.16q31-3,62.14-5.73c24.9-2.21,49.92-4.34,74.88-6.48,28.56-2.44,57.06-4.94,85.62-7.33,21.36-1.79,42.92-3.32,64.36-4.83.89-.06,1.53-.11,2-.18l.29,0,251.75-19.15A5.82,5.82,0,0,0,1412.76,828.57Z"/><path class="bee71464-8c7e-43c2-9f7a-09c54e7694aa" d="M1363.09,809.73c-77.86,6-227.16,17.66-257.11,20.11l-.9.07-.85.08c-2,.16-3.16.26-3.47.3l-9.49.82c-16.19,1.42-32.48,2.34-48.68,3.59q-15.35,1.17-30.67,2.41c-10.28.83-20.55,1.72-30.83,2.57-9.81.8-19.56,1.65-29.31,2.48l-25.31,2.14-25.6,2.23-23,2c-8.89.77-17.82,1.53-26.7,2.32l-12,1.08v12.24l2.23-.16c7.84-.57,15.43-1.43,23.09-2.16q31-3,62.14-5.73c24.9-2.21,49.92-4.34,74.88-6.48,28.56-2.44,57-4.94,85.62-7.33,21.36-1.79,42.92-3.32,64.36-4.82.88-.06,1.52-.12,2-.18l.3,0,209.28-15.93Z"/><path class="bee71464-8c7e-43c2-9f7a-09c54e7694aa" d="M839.2,844.58v2.53l2.23-.15c7.84-.58,15.43-1.43,23.09-2.17l2.27-.21Z"/><path class="bee71464-8c7e-43c2-9f7a-09c54e7694aa" d="M1363.09,792.68c-77.86,6.05-227.16,17.66-257.11,20.11l-.9.07-.85.08c-2,.16-3.16.27-3.47.3l-9.49.82c-16.19,1.42-32.48,2.35-48.68,3.59q-15.35,1.17-30.67,2.41c-10.28.83-20.55,1.72-30.83,2.57-9.81.8-19.56,1.66-29.31,2.48-8.42.72-16.9,1.42-25.31,2.15-7,.59-14,1.21-20.92,1.82V841l21.11-1.91c24.9-2.21,49.92-4.34,74.88-6.47,28.56-2.45,57-5,85.62-7.34,21.36-1.78,42.92-3.32,64.36-4.82.88-.06,1.52-.12,2-.18l.3,0,209.28-15.93Z"/><path class="bee71464-8c7e-43c2-9f7a-09c54e7694aa" d="M1363.09,775.48c-77.18,6-229.16,17.82-259.41,20.3l-.9.06-.85.08c-2,.16-3.16.27-3.47.3L1089,797c-16.2,1.43-32.48,2.35-48.69,3.59q-15.33,1.17-30.66,2.41c-10.28.83-20.55,1.72-30.83,2.57-9.81.8-19.56,1.66-29.32,2.48-8.41.72-16.89,1.42-25.31,2.15l-18.61,1.62v11.89q9.41-.86,18.81-1.71c24.89-2.21,49.91-4.34,74.87-6.47,28.56-2.45,57.06-5,85.62-7.34,21.37-1.78,42.93-3.32,64.37-4.82.88-.06,1.52-.12,2-.18l.3,0,211.58-16.1Z"/><path class="bee71464-8c7e-43c2-9f7a-09c54e7694aa" d="M1363.09,758c-76.18,5.91-231.73,18-262.38,20.52l-.89.07-.86.07c-2,.17-3.15.27-3.47.31-3.16.27-6.34.53-9.49.81-16.19,1.43-32.48,2.35-48.68,3.59q-15.33,1.17-30.67,2.42c-10.27.83-20.55,1.71-30.82,2.56-9.82.81-19.57,1.66-29.32,2.49L921.2,793l-15.65,1.36v11.88l15.84-1.43c24.9-2.21,49.92-4.34,74.88-6.48q42.84-3.67,85.62-7.33c21.36-1.79,42.92-3.32,64.37-4.83.88-.06,1.52-.12,2-.18l.29,0,214.55-16.32Z"/><path class="bee71464-8c7e-43c2-9f7a-09c54e7694aa" d="M1312.17,749.07l-5.76-6.18C1227,749.07,1124.91,757,1100.71,759l-.89.07-.86.08c-2,.16-3.15.26-3.47.3l-9.49.82c-16.19,1.42-32.48,2.34-48.68,3.59q-15.33,1.17-30.67,2.41c-10.27.83-20.55,1.72-30.82,2.57q-12.62,1-25.12,2.12v11.75l45.56-3.92c28.56-2.44,57.06-4.94,85.62-7.33,21.36-1.79,42.92-3.32,64.37-4.82.88-.06,1.52-.12,2-.18a1.43,1.43,0,0,1,.29,0l185.87-14.15Z"/><path class="bee71464-8c7e-43c2-9f7a-09c54e7694aa" d="M1306.41,723.05c-79.34,6.17-181.19,14.11-205.36,16.09l-.9.07-.85.08c-2,.16-3.16.26-3.47.3l-9.49.81c-16.19,1.43-32.48,2.35-48.69,3.6q-15.33,1.17-30.66,2.41c-10.28.83-20.55,1.72-30.83,2.56-8.52.7-17,1.44-25.45,2.16v11.75l45.9-4c28.56-2.44,57.05-4.94,85.62-7.33,21.36-1.79,42.92-3.32,64.36-4.82.88-.07,1.52-.12,2-.18l.3,0,157.53-12Z"/><path class="bee71464-8c7e-43c2-9f7a-09c54e7694aa" d="M1306.41,703.6c-78.94,6.14-178.83,13.93-202.73,15.89-.25,0-.54,0-.9.07l-.85.07c-2,.17-3.16.27-3.47.31-3.17.27-6.35.53-9.49.81-16.2,1.43-32.48,2.35-48.69,3.59q-11.15.85-22.3,1.76v.09h-1.24l-7.12.56c-10.28.84-20.55,1.72-30.83,2.57-9.4.77-18.74,1.59-28.08,2.38v11.76q24.25-2.12,48.52-4.18c28.56-2.45,57.06-4.95,85.62-7.34,21.37-1.78,42.93-3.32,64.37-4.82.88-.06,1.52-.12,2-.18l.3,0,154.9-11.79Z"/><path class="bee71464-8c7e-43c2-9f7a-09c54e7694aa" d="M1281.53,687.54c-73.78,5.74-156.41,12.19-177.85,14-.25,0-.54,0-.9.07l-.85.07c-2,.17-3.16.27-3.47.31-3.17.27-6.35.53-9.49.81-16.2,1.43-32.48,2.35-48.69,3.59q-11.15.85-22.3,1.76v11.56q33.43-2.88,66.87-5.72c21.37-1.78,42.93-3.32,64.37-4.82.88-.06,1.52-.12,2-.18l.3,0,130-9.89Z"/><path class="bee71464-8c7e-43c2-9f7a-09c54e7694aa" d="M1281.53,668.18c-73.78,5.75-156.41,12.2-177.85,14l-.9.06-.85.08c-2,.16-3.16.27-3.47.3l-9.49.82c-16.2,1.43-32.48,2.35-48.69,3.59q-11.15.85-22.3,1.75v11.57q33.43-2.88,66.87-5.72c21.37-1.78,42.93-3.32,64.37-4.82.88-.06,1.52-.12,2-.18l.3,0,130-9.89Z"/><path class="bee71464-8c7e-43c2-9f7a-09c54e7694aa" d="M1250.2,651.46c-64.4,5-128.08,10-146.52,11.52l-.9.06-.85.08c-2,.16-3.16.27-3.47.3l-9.49.82c-16.2,1.43-32.48,2.35-48.69,3.59-7.34.56-14.68,1.15-22,1.73a30.68,30.68,0,0,1-.27,7.64v3.95q33.43-2.88,66.87-5.72c21.37-1.78,42.93-3.32,64.37-4.82.88-.06,1.52-.12,2-.18l.3,0,98.69-7.51Z"/><path class="bee71464-8c7e-43c2-9f7a-09c54e7694aa" d="M1250.2,630.88c-63.6,5-126,9.84-144.22,11.34-.24,0-.53,0-.9.07l-.85.07c-2,.17-3.16.27-3.47.31-3.17.27-6.34.53-9.49.81-8.13.72-16.29,1.31-24.45,1.87v2h-28.06q-10.4.81-20.78,1.64v11.58q34.59-3,69.18-5.92c21.36-1.78,42.92-3.32,64.36-4.82.88-.06,1.52-.12,2-.18l.3,0,96.39-7.33Z"/><path class="bee71464-8c7e-43c2-9f7a-09c54e7694aa" d="M1231.23,615.8c-64.39,5-109.11,7.27-127.55,8.79l-.9.06-.85.08c-2,.16-3.16.27-3.47.3l-9.49.82c-7.37.65-14.76,1.19-22.15,1.71v11l18-1.53c21.37-1.78,42.93-3.32,64.37-4.82.88-.06,1.52-.12,2-.18l.3,0,98.69-7.51Z"/><path class="bee71464-8c7e-43c2-9f7a-09c54e7694aa" d="M1207.81,598.27c-46.34,3.62-86.06,6.74-100,7.89l-.89.06-.86.08c-2,.16-3.15.27-3.47.3l-9.49.82c-8.74.77-17.52,1.39-26.29,2V620.5q11.09-.94,22.18-1.89c21.36-1.78,42.92-3.32,64.36-4.82.89-.06,1.53-.12,2-.18l.29,0,52.16-4Z"/><path class="bee71464-8c7e-43c2-9f7a-09c54e7694aa" d="M1156.17,585.93c-46.34,3.62-34.42,1.17-48.35,2.31l-.89.07-.86.08c-2,.16-3.15.27-3.47.3l-9.49.82c-8.74.77-17.52,1.39-26.29,2v11.08q11.09-1,22.18-1.89c21.36-1.78,42.92-3.32,64.36-4.82.89-.06,1.53-.12,2-.18l.29,0,16.61.48Z"/><path class="a5570e88-f520-487b-9476-ed58e350a801" d="M1494.78,1007.1c-2-2.89-3.39-6.23-6.68-8.14a14.15,14.15,0,0,1-3.11-3.16,131.56,131.56,0,0,1-10.41-13c-13.75-19.53-27.72-38.88-42.44-57.65-28.34-36.13-58.37-70.82-87.06-106.64-14-17.43-28.61-34.43-41.55-52.71-7.3-10.28-14.19-20.78-22.07-30.65-26.87-33.77-54.18-67.18-82.25-99.87-9.25-10.81-18.15-21.89-25.54-34.13a26.88,26.88,0,0,1-3.11-6.4c-.31-1.11-10-18.32-9.11-19.25s11.6,15.38,12.71,15.87a28.5,28.5,0,0,1,4.54,2.31,129.86,129.86,0,0,1,26.2,21.89q23.49,25.75,46,52.22c12.67,14.82,25.53,29.5,37,45.25,32.56,44.62,66,88.48,102,130.39,33.41,38.83,66.06,78.29,96.13,119.8,7.7,10.63,17.18,19.62,26,29.18a44.19,44.19,0,0,1,3.2,3.38c1.69,2.14,1.43,3-1.07,4a62.65,62.65,0,0,0-14.94,7.78,2.93,2.93,0,0,1-2.32.67C1496,1008.48,1495.4,1008,1494.78,1007.1Z"/><path class="f609b6cc-e206-492d-8086-a32a77fe415a" d="M727,1059.79a73.43,73.43,0,0,1-14.41-6.1c-6-3.11-11.7-6.72-17.93-9.34-2.45-1-4.05-3.12-5.43-5.38a9.73,9.73,0,0,0-7.61-5c-8.58-.76-17.12-1.25-25.71-1.87-13.57-1-27.13-2-40.75-2.94-11.88-.84-23.8-1.6-35.68-2.4q-24.94-1.73-49.86-3.38c-10.64-.71-21.31-1.33-31.95-2q-27.15-1.74-54.31-3.52l-24.16-1.6c-6.23-.4-12.41-.8-18.64-1.11-4.4-.22-8.85-.22-13.3-.35a12.72,12.72,0,0,1-6.27-1.87c-4.54-2.81-8.94-5.83-14.06-7.61-4.14-1.42-4.63-2.36-3.29-6.54a22.08,22.08,0,0,1,1.2-2.85,53.87,53.87,0,0,1,8.72-12.27c12.1-13.48,25-26.07,37.54-39.15,13.71-14.37,28.3-27.85,40.75-43.42,15.31-19.09,31-37.81,46.54-56.72,16.1-19.58,32-39.28,49.33-57.83,9-9.66,18-19.27,27.09-28.83q10.27-10.74,21.18-20.95c3.87-3.61,8.1-6.85,11.39-11,16.37-20.33,32.74-40.61,48.93-61.08,13.35-16.86,26.56-33.81,40.48-50.18,6-7,12.19-14,16.82-22.06a4.75,4.75,0,0,1,1.2-1.29c4.76-4.5,10.59-7.3,16-10.86a3.45,3.45,0,0,1,1.87-.62c6.81-.31,13.48-1.82,20.2-2.89s13.39-2.63,20.15-3.16c8.19-.62,16.41-.4,24.64-.58,5.17-.09,10.37-.22,15.53-.53,12.55-.8,25.09-1.56,37.59-3,9.74-1.11,19.53-2.14,29.32-3.29,11.3-1.34,22.6-2.85,33.9-4.28q16.61-2.06,33.23-4.27c11.12-1.46,22.29-3,33.41-4.58,11.34-1.6,22.73-3.16,34.07-4.71,9.52-1.29,19-2.63,28.61-3.74,9.07-1.07,18.24-1.91,27.36-2.85,10.9-1.15,21.75-2.27,32.65-3.47a54.63,54.63,0,0,1,9.65-.22c3.83.22,7.7-.4,11.53-.71,6.8-.58,13.65-.22,20.46-.45,2.4-.09,4.85-.62,7.29-.31a244.3,244.3,0,0,0,26.07,2.14,12.67,12.67,0,0,1,9.12,4.05c13,14,26.16,28.11,39.73,41.68a42.11,42.11,0,0,1,4.49,5.2c12.19,16.69,24.25,33.5,36.61,50q38.18,51.12,79.06,100.14c14.5,17.35,29.27,34.43,44.13,51.47,13.65,15.7,28,30.78,41,47.11,18.91,23.89,38,47.56,57.12,71.31q18.81,23.43,38.84,45.78c6.71,7.47,13.61,14.9,20,22.64,5.34,6.45,10.1,13.35,15.17,20,.67.85.4,1.42-.08,2.14-1.65,2.35-3.3,4.71-4.85,7.16a9.12,9.12,0,0,1-3.34,3.16c-9.48,5.47-19,11-28.47,16.46-4.45,2.58-3.43,2.93-6.67-1.34-2.45-3.2-4.19-7-8.15-8.85-.66-.31-1.11-1.16-1.64-1.78-3.74-4.58-7.48-9.21-11.17-13.83-6.76-8.55-13.52-17-20.19-25.67-1.61-2.09-2.54-4.76-4.27-6.72-10.41-11.61-19.93-23.93-29.28-36.35-18.55-24.69-36.79-49.6-55.52-74.2-17.52-23-34.38-46.44-51.29-69.89-13.43-18.64-27.05-37.14-41.24-55.2-21.8-27.76-45.86-53.57-69.62-79.68-16-17.75-32.07-35.5-47.11-54.14-7.65-9.52-15.66-18.55-25.4-26-1.25-.93-2-1-3.16.05-1.56,1.42-2.8,3.24-4.76,4.27a36.53,36.53,0,0,0-11.12,9.07c-8.54,9.92-16.68,20.15-26.11,29.36-10.15,9.88-19.67,20.38-29,31-17.53,20-34.88,40.17-52.18,60.37q-28.5,33.23-56.72,66.73c-21,25.09-42.75,49.64-64.24,74.33-11.08,12.73-22.29,25.4-33.23,38.26-11.66,13.7-23,27.76-34.61,41.46-21.35,25.09-41.28,51.25-61,77.54-8.94,12-17.35,24.38-26,36.61-3.82,5.39-9,9-13.56,13.53a12.86,12.86,0,0,1-5.34,2.62c-.76.22-1.69,0-2.23.8A37.12,37.12,0,0,0,727,1059.79Z"/><path class="a5570e88-f520-487b-9476-ed58e350a801" d="M1153.44,567.19a28,28,0,0,0-1.61,6.23c-2,12.32-1.5,42.54,34.59,87.17,48.11,59.51,304.3,360.25,304.3,360.25s16.58,13.17,12.9-6.9"/><path class="f609b6cc-e206-492d-8086-a32a77fe415a" d="M670,1033.18c-.4-.93-1.29-.58-1.95-.62-6.45-.49-12.86-.89-19.31-1.33q-42.37-3-84.7-6c-22.25-1.51-44.53-2.84-66.78-4.31a11.77,11.77,0,0,1-4-.53c.4-.49.58-.76.85-1,27.84-28.25,55.51-56.63,82.56-85.63a2.31,2.31,0,0,1,2.54-.76c4.71.93,9.47,1.87,14.19,2.67,9.65,1.65,19.35,2.8,29,4,11.21,1.43,22.42,3.29,33.81,3.16,2.09,0,4.18,0,6.94,0-19.35,22.87-37.68,45.51-56.28,68.47a31.77,31.77,0,0,1,4.23.35c2.27.49,3.78-.4,5.34-2.09,19.75-21.58,39.28-43.42,58.72-65.31a4.73,4.73,0,0,1,4-1.86,36.47,36.47,0,0,0,8.19-.8c1.47-.27,2.8-1,2.93-2.58s-1-2.67-2.53-3.25a7.26,7.26,0,0,0-1.91-.58c-2.1-.31-1.7-1-.58-2.27,5.11-5.69,10.14-11.39,15.21-17.13a3.83,3.83,0,0,1,2.63-1.46,27.75,27.75,0,0,0,6.27-1.38c1.42-.54,2.53-1.38,2.58-3s-.94-2.4-2.23-3c-.31-.13-.8,0-.84-.67,3.56-4.18,7.16-8.4,10.72-12.63a3.34,3.34,0,0,1,2.36-1c5.56-.72,11.16-1.38,16.73-2.23a95.71,95.71,0,0,0,14.14-2.76c1.2-.35,3-.84,2.85-2.26-.18-1.21-2-.89-3.12-1-7.29-.54-14.63-.67-22-.72-.62,0-1.47.36-1.83-.31s.49-1.11.89-1.6q28.77-34,58-67.44c10-11.39,20.11-22.6,29.32-34.61a33.61,33.61,0,0,0,1.91-3,1.14,1.14,0,0,0,.09-.85c-.18-.35-.62-.26-1-.13a11.15,11.15,0,0,0-3.51,2.31c-12.32,11-23.93,22.78-35.46,34.66-21.71,22.42-42.7,45.46-63.48,68.77a4.5,4.5,0,0,1-3.91,1.92c-15-.58-29.9-.85-44.89-.18-12.37.58-24.73.89-37.1,1.25a32.9,32.9,0,0,1-6.54-.14c.53-.67.85-1.11,1.25-1.55,3.78-4.14,7.6-8.32,11.34-12.51,14.68-16.37,29.89-32.29,44.31-48.93,2.18-2.49,4.4-4.14,7.78-4.4a14.08,14.08,0,0,0,6-1.61c-1.46-.13-2.31-.22-3.2-.35-1.33-.18-3.43.49-3.91-.54s1.42-2.13,2.13-3.29c.18-.31.49-.53.71-.84a96.5,96.5,0,0,0,9.52-13.66c.67-1.25,1.47-2.94.18-3.83-1-.71-1.91,1-2.62,1.83-5.74,6.4-11.79,12.5-18,18.5a4.51,4.51,0,0,1-3.51,1.47c-9.92,0-19.84.18-29.76.22-16.24.09-32.43.36-48.63,1.78-1.91.18-3.87.67-6.13.32.8-1.16,1.37-2.05,2-2.94a2.18,2.18,0,0,0,.09-2.85,2.53,2.53,0,0,0-3-.75,15.6,15.6,0,0,0-4.27,2.35c-3.43,2.9-7.12,5.43-10.23,8.72-10,10.55-19.71,21.31-30.56,31-5.74,5.12-10.81,11-15.93,16.77Q487.9,915.36,450.06,964c-4.14,5.3-8.14,10.63-12.23,16,.13.14.31.27.44.4,2.63-2.62,5.34-5.2,8-7.83,21.27-21.22,42.35-42.53,63-64.32,18.69-19.71,37.64-39.11,55-60a4.19,4.19,0,0,1,4.89-1.6c9.57,2.31,19.31,2.71,29.1,3.2,13,.62,26.07,1.29,39.1,1.16a6.91,6.91,0,0,1,2.85.09,3.6,3.6,0,0,1-.4.71l-31.5,33a3.74,3.74,0,0,1-2.36,1c-2.58.35-5.25.31-7.91,1.33.4.31.57.49.75.53,1,.32,2,.58,3,.85,2.58.67,2.58.67.76,2.67-11.79,13.12-23.71,26.11-35.41,39.32-25.8,29.1-51.47,58.37-76.12,88.49a4,4,0,0,1-3.78,1.6q-19.08-1.27-38.17-2.45c-10.36-.67-20.69-1.47-31.05-2-6.9-.4-13.75-1.16-20.64-1.11-2.05,0-4.36.26-6.23-1-8.19-5.73-16.82-10.81-25.54-15.7-1.2-.67-1.37-1.16-.75-2.36a58.7,58.7,0,0,1,8.9-12.45c13.12-14.51,27.13-28.25,40.7-42.31,9.39-9.79,19.31-19.08,28.25-29.27,12-13.7,23.31-28,34.88-42.13,29-35.23,57.38-70.87,89.1-103.7,2-2,3.69-3.16,6.81-2.84q19.08,1.72,38.17,2.44c.62,0,1.6-.26,1.73.54s.54.71.94.31c.71-.71,1.6-.58,2.49-.58,5.2.13,10.36.31,15.57.36q36.17.19,72.29.31c21.35.09,42.71-.63,64,.66,18.11,1.07,36.26,2,54.41,2.32,16.28.31,32.48,0,48.54-2.85,7.51-1.29,15-2.62,22.11-5.65,3.11-1.33,4.44-2.89,3.91-4.67-.8-2.76-3.25-2.49-5.34-2.54-4.8,0-9.65-.09-14.46,0-12,.27-24-.67-36-.14-6.36.27-12.72,1-19.08.89-12-.22-24-1.15-36-1.42-18.64-.4-37.24-.44-55.83-.62-4.19-.05-8.41,0-12.59,0,3.73-3.25,7.69-6,11.52-8.81,23.62-17.53,46.84-35.63,69.22-54.72a2.77,2.77,0,0,1,3.33-.62,110.34,110.34,0,0,0,15.44,4.89c16.59,4.41,33.37,6.1,50.32,2.36a26,26,0,0,1,10.14,0c1.2.23,1.42.63.53,1.52-1.78,1.82-3.51,3.65-5.29,5.42-14.42,14.73-28.43,29.81-42.31,45,0,.31-.13.45-.44.45l-.05,0,.05,0c-.05-.32.09-.49.44-.45,2.32-1.78,4.58-3.69,6.81-5.6q25.62-21.9,50.71-44.36a3,3,0,0,1,2.32-1.07c5.29.54,10.49-.08,15.74-.57s10.59-1.38,15.26-4.23c1.74-1,2.94-2.62,2.36-4.8s-2.45-3.12-4.58-3.16c-3.47-.09-7,0-10.46.09-1.64,0-3.29.13-5.6.26,1.2-1.11,1.87-1.73,2.58-2.35,7.61-6.94,15.3-13.75,22.78-20.87,24.86-23.67,50.13-46.89,74.73-70.82a6.06,6.06,0,0,1,3.25-1.74c2.89-.44,5.83-1,8.72-1.6,1.11-.22,2.36-.58,2.4-1.87s-1.24-1.73-2.31-2.09-2.36-.58-3.78-.93c.75-.8,1.29-1.42,1.87-2,6.8-7.08,13.43-14.24,18.9-22.42a8.25,8.25,0,0,0,1.52-3.21c.22-1.55-.45-2.22-2-1.82s-2.54,1.51-3.6,2.49c-9.12,8.27-18.24,16.55-27.27,24.87a5.31,5.31,0,0,1-4,1.51c-7.48,0-15,0-22.47.27-17.79.62-35.5,2.09-53.25,3.25-3.07.22-6.09.31-9.25.48a4,4,0,0,1,1.38-2.09,182,182,0,0,0,14.23-17.35,11.93,11.93,0,0,0,1.65-3.38,1.4,1.4,0,0,0-.09-.84c-.31-.4-.71-.14-1,0a45.6,45.6,0,0,0-3.74,2.76C919,570,912.81,575.46,907,581.29c-3.61,3.61-7.43,5.61-12.64,5.52a33.47,33.47,0,0,0-10.41,1.47c3.7,1.55,7.57,2.13,11.88,3.15-.84.67-1.24,1-1.64,1.34-31.68,27.89-62.55,56.59-94.36,84.3-2.14,1.87-4,2.76-6.9,2a24.69,24.69,0,0,0-9.07-1c2.45,2.67,5.2,4.05,7.78,5.74a5.74,5.74,0,0,1-1.86,2c-24.6,21.48-48.85,43.41-73.09,65.35a4.9,4.9,0,0,1-3.56,1.37c-27.76.14-55.48-.17-83.19-.4-.45,0-1,.27-1.52-1,1.07-1,2.5-2,3.65-3.21q26.7-28,53.34-56.09a4.88,4.88,0,0,1,3.34-1.92,210,210,0,0,0,33-4.58c7.16-1.6,14.42-2.8,21.22-5.65a8,8,0,0,0,3.52-2.22c1.51-1.92.93-3.61-1.47-4a14.15,14.15,0,0,0-3.12-.09c-12,.62-24,1.29-35.94,1.91-.71,0-1.51.36-2.22-.22,4.13-5.07,8.71-9.65,12.14-15.17a167.91,167.91,0,0,1,21.31-27.58c7.56-7.92,14.72-16.24,22.11-24.38a3.67,3.67,0,0,1,2.53-1.6c4.94-.4,9.88-.94,14.82-1.47,4.45-.49,8.94-1,13.43-1.56.58,0,1.38-.13,1.43-.8s-.85-.62-1.38-.71c-6.41-1.33-12.81-2.31-19.31-3-3.34-.36-6.81-.49-9.7-2.67-1.29-.94-7.38-.45-8.36.66-2.94,3.3-5.74,6.72-8.59,10.06.67.8,1.56,0,2.23.84l-3,2.58a82.05,82.05,0,0,0-10.41,10c-11.35,14.15-22.51,28.47-34.35,42.26-4.18,4.9-8.72,9.57-12.41,14.82a99,99,0,0,1-15.3,17.21c-1.6,1.43-3.6,2.72-4.58,4.5-2.58,4.67-6.36,8.32-9.75,12.32-10.72,12.59-20.73,25.76-30.82,38.84a4.08,4.08,0,0,1-3.61,2c-12.41-.45-24.87.09-37.32.18h-4.63a6.21,6.21,0,0,1,.85-1.07c4.76-4.63,9.56-9.3,14.32-14,4.23-4.14,9-7.78,12.77-12.37,14.59-17.66,28.6-35.76,42.93-53.65,15.3-19.08,30.12-38.52,46-57.12,5.92-6.89,12-13.74,16.55-21.71A6.85,6.85,0,0,1,715,591c4.76-4.45,10.63-7.3,16-10.85a3,3,0,0,1,1.65-.54c6.8-.31,13.48-1.82,20.19-2.89s13.53-2.67,20.38-3.2c8-.63,16-.36,24-.58s16-.45,24-1c12.85-.85,25.67-1.91,38.48-3.43q21.09-2.53,42.13-5.11c13.3-1.69,26.56-3.38,39.86-5.16,14.72-2,29.49-4,44.22-6,13.43-1.82,26.82-3.73,40.26-5.56s26.78-3.25,40.17-4.58c12.36-1.2,24.78-2.4,37.1-4,4.85-.58,9.65.27,14.46-.31,1.91-.27,3.87-.8,6.09-.31-1.42,2-3.51,2.93-4.94,4.58-15.83,17.88-32.83,34.65-50,51.29q-27.16,26.43-54.68,52.54c-5.16,4.89-10.81,9.3-15.21,15-17.44,22.37-35.28,44.48-53.25,66.46-31.45,38.48-63.4,76.47-97,113-39.37,42.8-79,85.32-118.42,128-16.1,17.44-32.61,34.47-47.11,53.29-3,3.92-6.5,7.47-9.21,11.66C672.85,1033.32,671.51,1033.32,670,1033.18ZM613.1,767.6c-.09,0-.13-.09-.22-.13,0,.13,0,.22-.09.31l-.31.13c.31.4.27.05.31-.13A.69.69,0,0,1,613.1,767.6Z"/><path class="f609b6cc-e206-492d-8086-a32a77fe415a" d="M809.6,680.27c8.58-7.51,17.21-15,25.71-22.6C858.58,636.9,882,616.21,903.91,594a3.52,3.52,0,0,1,3.38-1c7,.94,14,1.29,21,1.78a262.23,262.23,0,0,0,43.51-.49c5.2-.53,10.36-1.42,15.61-2.13-.22.89-.93,1.2-1.46,1.69-23.67,22.28-47.56,44.39-70.83,67.13-7.83,7.69-15.57,15.43-23.35,23.17a3.4,3.4,0,0,1-2.63,1.29c-10.14-.17-20.28.09-30.43-.4-11.38-.53-22.77,0-34.16-1.24a118.78,118.78,0,0,1-16.28-2.54C808.75,680.9,809.2,680.63,809.6,680.27Z"/><path class="f609b6cc-e206-492d-8086-a32a77fe415a" d="M670.89,820.76c-9.34,9.3-18.73,18.6-28.07,27.89a1.79,1.79,0,0,1-2.18.49c-2.14-.8-4.32-1.64-6.5-2.27-18.68-5.47-37.59-10-57.12-11.43-.4,0-.93.18-1.15-.35s.26-.81.53-1.12a42.22,42.22,0,0,0,3.87-4.58c3.11-4.85,7-7.34,12.9-5.47h.22c21.62,1.25,43.11-.13,64.55-2.54,4.45-.49,8.86-1,13.62-1.55C671.25,820.36,671.16,820.63,670.89,820.76Z"/><path class="f609b6cc-e206-492d-8086-a32a77fe415a" d="M673.07,931.35a3.2,3.2,0,0,1-3.43,1.21c-7.29-1-14.63-2.41-22-2.72-21.22-.89-42.49-1.2-63.75-.4-.76,0-1.56.36-2.4-.35,4.76-5,9.47-9.79,14-14.73a5.27,5.27,0,0,1,5.2-1.87c16.38,2.36,32.88,3.25,49.34,4.27,9.83.58,19.71.09,29.54,0,1.82,0,3.65-.49,5.92-.13C681.21,921.7,677.12,926.46,673.07,931.35Z"/><path class="f609b6cc-e206-492d-8086-a32a77fe415a" d="M602.42,907.06c4.41-4.8,8.86-9.56,13.22-14.41a3.14,3.14,0,0,1,3.24-1.2c13.35,2,26.83,2.71,40.26,3.56a288.7,288.7,0,0,0,41.07-.09c1.2-.09,2.35-.22,4-.36a81.67,81.67,0,0,0-6.05,7.12c-2.27,3.38-5,4.09-9,3.87-21.39-1.15-42.79-.22-64.15,1.2-7.69.54-15.34,1-23.08,1.47C601.89,907.55,602.25,907.38,602.42,907.06Z"/><path class="b0ede80a-003d-486a-a4f3-bdcf4f542217" d="M831.22,747.76c-.36,0-.49.13-.45.44h0c.31,0,.45-.13.45-.44Z"/><path class="b0ede80a-003d-486a-a4f3-bdcf4f542217" d="M830.68,748.25l.09,0Z"/><path class="b0ede80a-003d-486a-a4f3-bdcf4f542217" d="M612.79,767.78c0-.09,0-.22.09-.31s.13.09.22.13a1.49,1.49,0,0,0-.31.18Z"/><path class="b0ede80a-003d-486a-a4f3-bdcf4f542217" d="M612.83,767.82c-.08.09,0,.49-.35.09a.91.91,0,0,0,.35-.09Z"/><path class="a0e97c85-e5f9-4a9a-b86a-5ff6a201b90c" d="M706.21,567.19a7,7,0,0,1-.44-1.91c-1.12-10.41,1.11-20.64,1.46-31,.09-1.86.89-2.49,2.67-2.58a143,143,0,0,0,15-2.13c4.81-.8,9.34-2.58,14.37-2.58q36.9.06,73.8-1.51c18.42-.8,36.84-1.92,55.25-2.85,15.8-.8,31.5-2.18,47.2-3.65,13.53-1.29,26.92-3.07,40.35-5.07,24.92-3.69,49.87-7.07,74.61-11.7,17.35-3.25,34.56-7,51.24-12.77,5.48-1.91,10.82-2.76,16.6-.62,6,2.22,9.16,5.87,9.21,12.28,0,4.58-.85,9.12-1.12,13.7-.22,3.51-1.73,6.72-2.31,10.14-.22,1.38-.67,3.29-2.8,3.12-11.83-1-23.45,1.69-35.15,2.58-7.56.57-15,2.53-22.55,3.6-8.19,1.16-16.46,1.87-24.69,2.85-11.21,1.29-22.51,2.18-33.81,2.93-7.29.49-14.64,1-21.93,1.65-7.74.62-15.44,2-23.09,3.25-11.39,1.78-22.91,2-34.34,3.51-7.92,1-15.88,1.6-23.85,2.36s-16.19,1.64-24.29,2.4c-9.07.85-18.1,1.6-27.18,2.45q-15,1.33-30,2.8c-10.09.93-20.15,2-30.25,2.94-9.56.93-19.13,1.91-28.69,2.8-5.78.58-11.66.89-17.44,1.6-2.36.27-4.85,0-7,1.25C713.37,567.06,709.81,567.06,706.21,567.19Z"/><path class="be03da18-1cd7-44b7-aabc-dd27b2e057ea" d="M1125.11,426.08h-11.63v-.25h11.68A.37.37,0,0,0,1125.11,426.08Z"/><path class="be03da18-1cd7-44b7-aabc-dd27b2e057ea" d="M1195.16,536.54H1199v.22h-3.83Z"/><path class="a397472e-ce96-45da-9da5-83b40026e953" d="M1208.77,510.65c-.18,5,.14,10.05-.75,15a17.86,17.86,0,0,1-3.56,7.79,2.39,2.39,0,0,1-2.67.93,134,134,0,0,0-18.73-2c-12.1-.53-24.25-.89-36.35-1.69-6.85-.44-13.7-.71-20.59-.93-7.48-.27-14.95-.27-22.42-.54-2.23-.09-4.36-.4-6.59.14a3.88,3.88,0,0,1-3.42-.58c-2.81-2.45-6.59-3.65-8.63-7a2.75,2.75,0,0,0-.67-.53v-1.78c1-1.65.67-3.56.8-5.34.49-6,.71-12.06,1-18.11.09-1.6,0-3.16,1.74-4a.21.21,0,0,0,.13-.13c1-3.74,4.36-4.54,7.39-5.74h2.22a5.64,5.64,0,0,0,3.87,1.29c9.52-.31,18.77,1.87,28.12,3.34a220.25,220.25,0,0,0,22.19,2.53c17.58.94,35.1.18,52.63.36,1.87,0,2.45.44,2.67,2.4s1.38,3.78,2.14,5.65V508C1208.46,508.73,1208.82,509.76,1208.77,510.65Z"/><path class="a5570e88-f520-487b-9476-ed58e350a801" d="M739.26,1058.18c-1.33.85-2.44,2.18-4.31,1.43-.31-.14-.58.09-.62.44-.14,1.34-1.12,1.16-2,1.16-3.33,0-6.67,0-10-.09a25,25,0,0,0-5.7-.71c-6.23,0-12.5.27-18.68-.09-8.37-.49-16.69-.85-25-1.82-7.34-.85-14.68-1.38-22-2.18-7.91-.89-15.79-2-23.71-2.9-8.54-1-17-2-25.53-3.07s-16.82-2.22-25.22-3.24-16.69-2-25.05-3c-10.37-1.33-20.78-2.76-31.14-4.14l-27.18-3.6c-10-1.29-19.89-2.62-29.85-4-9.12-1.24-18.29-2.44-27.41-3.69-11.83-1.6-23.57-4-35.32-6.18-3.29-.58-6.89-.4-9.79-2.45-8.14-5.74-16.63-10.81-25.26-15.7-1-.58-3.25-.89-1.47-3,.27-.36-.36-.76-.58-1.11a1.34,1.34,0,0,1-.09-1.65,1.24,1.24,0,0,1,1.51-.62c1.34.58,2.72.31,4.1.58,12.32,2.53,24.64,5.11,37.05,7.2,22.2,3.79,44.62,6.1,67,8.32,22.15,2.23,44.4,4,66.64,5.34,17,1.07,34,1.87,51.07,1.51a14.8,14.8,0,0,1,2,.05c9.79,1.47,19.53,2.94,29.32,4.45,12.72,2,25.53,3,38.35,4,6.8.54,13.88-.58,20.37,3,3.56,2,7.43,3.29,11,5.21A174.39,174.39,0,0,0,731.39,1053a15,15,0,0,1,7.65,3.91A2.58,2.58,0,0,0,739.26,1058.18Z"/><path class="f733eef6-c148-4cc7-93bb-dfb84b39cda9" d="M683.41,1157.67a310.93,310.93,0,0,1,15.12,41c2.63,8.68,4.94,17.48,7.39,26.25,3.29,11.92,5.29,23.93,3.38,36.34a36.48,36.48,0,0,1-3.43,11.44c-1.55,3-3.42,5.74-6.58,7.29-3.47,1.69-6.72-.09-6.81-3.87-.17-7.2-1.82-14.19-3.33-21.17-.22-1-.09-2.23-1.43-3.07,0,3.2,0,6.18,0,9.12s.23,5.65.36,8.49c-1.42-1.86-1.73-19.35-.89-19.53.31.32,0,1.16.62,1-2.8-31.63-5.78-63.21-6.27-95.11C683,1156.2,683.05,1157.05,683.41,1157.67Z"/><path class="ea657113-8f84-41c5-a114-712fb25439eb" d="M636.21,1186.45c11.79,3.12,22.46,8.37,31.5,16.6,5.38,4.93,9.92,10.45,12.5,17.52,3.47,9.57,2,19.44,2.18,29.23a4.55,4.55,0,0,1-4,4.72c-3.07.17-6.19.13-9.3.22-2.49,0-4-1.29-5-3.34a12.92,12.92,0,0,1-1.24-3.07c-1.2-5.56-3.21-10.9-4.85-16.32-3.92-13-9.21-25.41-17-36.71-2-3-4.23-6-6.54-8.85A2.18,2.18,0,0,1,636.21,1186.45Z"/><path class="bee71464-8c7e-43c2-9f7a-09c54e7694aa" d="M1400.79,1181.87c-.25-.24-1-.24-2.67-.09-12.75,1.07-25.45,2.09-38.19,3.18-7.59.65-14.92,1.59-22.32,2.4q-29.92,3.29-60,6.37c-24.06,2.47-48.24,4.86-72.36,7.25-27.6,2.74-55.14,5.54-82.74,8.22-20.65,2-41.48,3.77-62.21,5.49-.94.08-1.6.15-2.07.22l-249,22.27,1,11.61s254.79-23.16,294.32-26.94l.87-.08.83-.08,3.35-.34c3.06-.31,6.13-.6,9.17-.92,15.65-1.59,31.4-2.68,47.06-4.09q14.82-1.33,29.64-2.73c9.93-.94,19.86-1.93,29.79-2.88,9.48-.91,18.9-1.86,28.33-2.79l24.46-2.41,24.73-2.49,22.22-2.22c8.58-.87,17.22-1.72,25.8-2.6,9.53-1,19-2,28.42-3,6.67-.77,12.75-1.72,19.25-2.54,1.73-.22,3.12-.51,2.93-.8,0,0,0-.07,0-.09,3.13-.44,2.29-.92,4.35-1.36.78-.16.6-.26.59-.38C1407.22,1187,1403.5,1184.5,1400.79,1181.87Z"/><path class="a25a8643-831a-4d50-9429-1f535525346b" d="M1280.62,1059.65c7.6.49,13.25,5.12,14.54,11.79,1.29,6.85-2.22,13.3-9.2,16.51a33.49,33.49,0,0,1-6.28,2.26c-22.55,5.39-45.24,6.77-68.06,1.92a19.76,19.76,0,0,1-12.55-8.5,38.57,38.57,0,0,1-4.93-10.63c-3.87-12.32-5.65-25-6.68-37.77-1.46-17.71-1.78-35.37,1.65-52.94,1-5,2.09-9.88,4.54-14.37,4.53-8.36,12.54-11.43,21.44-8.23a11.63,11.63,0,0,0,3.51.49c4.67.13,9.35.22,14,.4,12.41.49,24.29,4.85,36.92,4.27,7.3-.31,12.59,6.1,13.08,14.28,1.16,19.44.67,38.84-.18,58.23-.31,7.52,12.19,2,8.54,9.26C1292.18,1046.62,1279.73,1059.65,1280.62,1059.65Z"/><path class="b3e897fb-567c-4146-9eb8-45e298802eaa" d="M1229.64,1048.53c0-4.85-.05-9.65,0-14.46,0-5.34,0-5.38-5.34-4.18a1.5,1.5,0,0,0-.45.09c-4.22,1.69-8.63.67-12.94,1-2.45.23-4.63-1.91-4.63-3.6,0-4.67,0-9.34,0-14,0-2.09.89-3.43,3.07-3.61.89-.09,1.47-.31,1.16-1.33-.45-1.51.53-1.34,1.47-1.29,5.91.27,11.83.09,17.75-.14,1.29,0,1.82-.44,1.91-1.77q.39-5.41,1.07-10.81c.62-5.08,1.33-10.15,2-15.22.14-.8,0-1.91,1.38-1.82,4.63.22,9-1.34,13.61-1.65,1.43-.09,2,.18,2.23,1.6.35,2.72.75,5.43.84,8.19.23,6.18,0,12.41-.13,18.64,0,.67-.53,1.91.89,1.73,3-.35,6.14,0,9-1.2,4.44-1.78,8,.45,8.14,5.25s-1.6,9.3-1.83,14.06c0,.93-.8.89-1.47,1-4.35.49-8.67,1-13,1.51-3.07.31-4.36,1.47-4.76,4.54a85.15,85.15,0,0,0-.31,14.63c.44,8.72.84,17.49,1,26.21,0,2.93-.18,3.2-3.12,3.2-2.53,0-5.07-.18-7.56,0-5.87.32-9.87-4.76-9.83-9.74v-16.86S1229.64,1048.44,1229.64,1048.53Z"/><path class="bd329412-cdc1-461d-bc1e-07a9a2838b38" d="M1311.49,1083.14c2,.27,2.89.8,2.89,3.11a118.76,118.76,0,0,0,1,17.27c.31,1.91-.18,2.49-1.91,2.84-9.7,2.05-19.58,3.12-29.41,4.32-11.16,1.33-22.37,2.44-33.54,3.73-13.52,1.52-27,3.16-40.57,4.68-12,1.37-24,2.71-36,3.91-4.27.4-8.59.85-12.59-1.51a3.26,3.26,0,0,1-1.91-3.34c.35-6.23,1-12.41.93-18.64,0-3.47,0-3.47,3.43-4.36a18.56,18.56,0,0,1,2.62-.49c3.47-.4,6.9-.8,10.37-1.15,5.38-.54,10.72-2.14,16.1-1.34,5.74.89,11.21-.18,16.77-.75,10-1,20-2.27,30-3.34q14.67-1.53,29.36-2.89c11.34-1,22.68-2.23,32.78-2.45A74.23,74.23,0,0,1,1311.49,1083.14Z"/><path class="bd329412-cdc1-461d-bc1e-07a9a2838b38" d="M1296.14,932.87a29.86,29.86,0,0,1,10.95,2.75c5.82,2.85,6.4,8.9,1.33,12.86a29.53,29.53,0,0,1-11,5.21c-9.12,2.4-18.46,3.29-27.85,4.13-12,1.12-24.06,1.83-36.12,2.63-8.49.53-17,1-25.49,1.38-11.83.49-23.71.71-35.54.8-1.87,0-2.32-.67-2-2.4a44.79,44.79,0,0,0,.45-9.75c-.27-3.82-.45-7.69-.58-11.52-.09-3,0-3.11,3.07-3.07,14.1.13,28.16,0,42.21-.71,8.72-.45,17.49-.62,26.21-1.11,14.32-.8,48.71-2.23,48.89-1.2C1292.41,932.87,1294.27,932.73,1296.14,932.87Z"/><path class="b9c3265b-45ba-4741-a360-cde159d887d6" d="M1149,536.65s-148.15,228.46-289,227.2c0,0,94.67-158.48,154.35-202.93C1061.62,525.68,1149,536.65,1149,536.65Z"/><path class="b9c3265b-45ba-4741-a360-cde159d887d6" d="M1040.94,553.8S899.68,771.31,758.8,770.05c0,0,94.33-158.95,154.35-202.94S1040.94,553.8,1040.94,553.8Z"/><path class="b9c3265b-45ba-4741-a360-cde159d887d6" d="M923.36,561.27s-116,232-256.14,246.49c0,0,75.93-168.52,130.65-219S923.36,561.27,923.36,561.27Z"/><path class="b9c3265b-45ba-4741-a360-cde159d887d6" d="M836.07,578.23S694.81,795.74,553.94,794.48c0,0,94.32-159,154.35-202.94S836.07,578.23,836.07,578.23Z"/><path class="ef37f0fe-d26f-4d31-9d2d-b49f08ce51d1" d="M1035.39,547.06S933.23,708.18,855.1,762.81c0,0,65.71-58.77,172.26-215.42Z"/><path class="bd329412-cdc1-461d-bc1e-07a9a2838b38" d="M1174.16,1025.4v-10.46c.09-13.88.14-27.71,2.09-41.46.23-1.51.76-2.09,2.14-2.13,4.58-.18,9.16-.36,13.74-.71,2-.18,2.58.62,3,2.44,3.07,14.46,4.1,29.14,4.59,43.87.17,5.29.22,10.63.4,16,.35,11.3.71,22.64-.49,33.94-.18,1.87-1,3.91-.58,5.65.71,3,.53,6,.53,9a6.71,6.71,0,0,1-6,6.54c-3.6.49-7.07-.22-10.54-.94a5.18,5.18,0,0,1-4.09-3.69c-.71-2.31-1.38-4.67-2-7-2.32-8.89-2.41-18.06-2.58-27.13-.18-8,0-16,0-24C1174.21,1025.31,1174.16,1025.31,1174.16,1025.4Z"/><path class="f609b6cc-e206-492d-8086-a32a77fe415a" d="M1018.17,701.09c-47.63,58.08-146.54,161.19-247.79,160.28,0,0,94.32-159,154.34-202.94,24.52-18,49.51-20.57,70.49-17.36C1023.53,645.4,1036.33,679,1018.17,701.09Z"/><path class="f609b6cc-e206-492d-8086-a32a77fe415a" d="M951.34,651.32S810.09,868.83,669.21,867.57c0,0,94.32-159,154.35-202.94S951.34,651.32,951.34,651.32Z"/><path class="f609b6cc-e206-492d-8086-a32a77fe415a" d="M815.3,670.92c-36.77,63.17-131,205.29-239.67,216.56,0,0,75.92-168.51,130.65-219,29.6-27.29,63.91-33.11,89.16-32.7A23.35,23.35,0,0,1,815.3,670.92Z"/><path class="f609b6cc-e206-492d-8086-a32a77fe415a" d="M781.53,656.15S640.27,873.65,499.39,872.39c0,0,94.33-158.95,154.35-202.93S781.53,656.15,781.53,656.15Z"/><path class="ef37f0fe-d26f-4d31-9d2d-b49f08ce51d1" d="M921.94,599S826.14,764,750.2,821.57c0,0,63.37-61.28,163.73-222Z"/><path class="ef37f0fe-d26f-4d31-9d2d-b49f08ce51d1" d="M829.38,730.75s5.33,49.07-11,69.8c0,0,19.33-16,16.6-74.92Z"/><path class="ef37f0fe-d26f-4d31-9d2d-b49f08ce51d1" d="M959.29,698s3.59,49.22-13.43,69.37c0,0,19.88-15.29,19.24-74.29Z"/><path class="ef37f0fe-d26f-4d31-9d2d-b49f08ce51d1" d="M911.24,749.09s.5,49.35-17.74,68.39c0,0,20.8-14,23.85-72.94Z"/><path class="ef37f0fe-d26f-4d31-9d2d-b49f08ce51d1" d="M889.54,649.81s-49.25,3.14-66.89,22.74c0,0,12.44-21.78,71-29.17Z"/><path class="ef37f0fe-d26f-4d31-9d2d-b49f08ce51d1" d="M1036.64,610.39S921.77,762.72,839.48,810.83c0,0,70.25-53.25,189.13-200.76Z"/><path class="ef37f0fe-d26f-4d31-9d2d-b49f08ce51d1" d="M857.23,581.84s-109.47,156.25-190,207.22c0,0,68.34-55.67,182-207.25Z"/><path class="ef37f0fe-d26f-4d31-9d2d-b49f08ce51d1" d="M778,678.67S781.46,727.9,764.4,748c0,0,19.92-15.25,19.39-74.25Z"/><path class="ef37f0fe-d26f-4d31-9d2d-b49f08ce51d1" d="M749.11,713.17s-49.34,1.3-67.7,20.23c0,0,13.25-21.3,72-26.5Z"/><path class="bd329412-cdc1-461d-bc1e-07a9a2838b38" d="M1283.33,986.56a144.81,144.81,0,0,1,4.18-22.91c.67-2.45,1.92-3.11,4.14-3.25,4.4-.26,8.85-.8,13.26-1.24,2.71-.31,2.67-.36,2.75,2.36.27,10.45-.48,20.9-1,31.31-.4,8.23-.8,16.46-1.33,24.65-.8,12-1.34,24.07-2.67,36.08-.76,6.72-1.2,13.43-1.6,20.15-.14,1.87-1,2.18-2.49,2.27-2.9.18-5.79.31-8.64.67-4,.44-4.09.49-5-3.47-2.8-12.82-5.07-25.72-4.54-36.39C1280.62,1018.32,1281.64,1002.44,1283.33,986.56Z"/><path class="ef37f0fe-d26f-4d31-9d2d-b49f08ce51d1" d="M760,576.87s-92.15,167.06-166.8,226.34c0,0,62-62.66,158.81-225.51Z"/><path class="b9c3265b-45ba-4741-a360-cde159d887d6" d="M844.08,866.68c-49.4,63.34-150.22,174.05-250.84,173.15,0,0,94.32-158.95,154.34-202.94a122.15,122.15,0,0,1,69.64-23.65C845.12,812.41,861.24,844.67,844.08,866.68Z"/><path class="b9c3265b-45ba-4741-a360-cde159d887d6" d="M755.29,860c-50.41,63.88-149.19,170.15-247.78,169.27,0,0,94.32-158.95,154.34-202.94a121.41,121.41,0,0,1,63.08-23.3C755.55,800.64,774.32,835.92,755.29,860Z"/><path class="b9c3265b-45ba-4741-a360-cde159d887d6" d="M679.7,817.84c-41.34,68-130.09,192.24-231.45,202.75,0,0,75.92-168.51,130.65-219C601.55,780.77,627,772.45,649,769.88,675.17,766.82,693.42,795.29,679.7,817.84Z"/><path class="b9c3265b-45ba-4741-a360-cde159d887d6" d="M654.15,789.26S512.89,1006.76,372,1005.5c0,0,94.33-159,154.35-202.93S654.15,789.26,654.15,789.26Z"/><path class="f0d5b5c4-b326-4202-9bd2-7be266e43dfd" d="M945.1,1242.44c7.29-1,14.38-.63,21.7-.58,14.09.11,27.83-4,41.93-4.4a369.74,369.74,0,0,0,41.23-3.61c3-.43,6.08-.76,9.1-1,2.72-4.36,2.88-10,.15-16.08s9.43-7.09,6.09-12.65c-.8-1.33-3.57-10.11-3.57-11.67-.13-10.85-.23-17.52.92-28.28,2.18-20-7.31-41-5.13-61,1.91-17.31,3.87-34.61,5.56-51.92,1.15-11.87,2.18-23.75,2.22-35.67a49.81,49.81,0,0,0-1.2-11.48,14.76,14.76,0,0,0-13.66-11.52c-15-1.25-30-1.29-45.06-2-9.48-.49-19-.84-28.43-1.24-3.56-.14-7.07.62-10.72.22-3.91-.45-7.25,1.82-10,4.67a22.71,22.71,0,0,1-3.74,3.11,18,18,0,0,0-8.27,14.06c-1.7,18.6-3.79,37.15-4.9,55.79q-1.61,26.76-4.18,53.38c-1.51,15.7-3.2,31.41-4.63,47.11-1.86,20.86-4.67,41.68-4.76,62.68a55.51,55.51,0,0,0,1.8,14.52C933.47,1244.31,939.25,1243.2,945.1,1242.44Z"/><path class="b3e897fb-567c-4146-9eb8-45e298802eaa" d="M1039,1233.87c-.35,2.31-1.42,3.33-3.38,2.36s-3.74-.54-5.6-.14a19.81,19.81,0,0,1-2.9.18c-5.42.22-10.81.45-16.19.85-6.94.53-13.92.62-20.86.93-4.63.18-9.26.67-13.88.71-7,.09-14.06.4-21.09.54-1.56,0-4-2.5-3.82-3.74a528.85,528.85,0,0,0,3.51-52.94c.49-28.87,1.25-57.74,1.16-86.66,0-1.65,0-3.25.09-4.89q.6-26.16,1.24-52.32c.18-6,.54-12.14.85-18.19,0-.49-.09-1.2.62-1.2,2.45,0,4.49-1.52,7-1.47a60.9,60.9,0,0,0,8-.49c11-1.16,22.15-1.43,33.23-2.09s22-.76,32.83-3.38a2.41,2.41,0,0,1,1.91.26c3.83,2.32,6,7.79,4.23,11.88a8.72,8.72,0,0,0-.54,4.94,20.41,20.41,0,0,1,0,5.52c-.44,3.87-.71,7.78-1.2,11.69-1.42,11.22,0,22.47-.18,33.73-.08,7.87,0,15.74-.26,23.57-.14,5.16-.58,10.37-.09,15.53s.4,10.32.35,15.52c0,8.5-.8,17-1.37,25.5-.67,9.52-.49,19.08-.54,31.71C1043,1203.88,1041.41,1218.88,1039,1233.87Zm-65.39-209.4c-1.51.13-1.34,1-1.34,2,0,5.56.49,11.25-1,16.59-2.09,7.48-1.82,15-1.6,22.47.76,24.82,0,49.64-.09,74.47-.08,19.3-.75,38.52-1.46,57.79-.36,9.07-.58,18.19-1.92,27.22-.31,2,1.83,1.38,2.89,1.74,1.38.44,1.07-.81,1.12-1.52,1.29-15.52,2.35-31,3.91-46.53,2.27-22.51,2.4-45.11,2.67-67.71.22-19.48.22-39,.71-58.45.18-5.87.49-11.7,2.45-17.31,1.16-3.29,2.4-6.54,5.07-9.34C981.05,1025.27,977.44,1024.16,973.62,1024.47Zm43.46,168.87c1.69-31.9,4.49-63.7,7-95.56,1.51-19,2.85-38,5.07-56.89.09-1,.27-2.05.4-3.07a10.45,10.45,0,0,0-6.23-10.37c-1.2-.49-1,.31-1,.94-.49,7.25-1,14.5-1.42,21.75-2.09,35.72-2.54,71.53-3.38,107.3-.4,17.08-.85,34.21-2,51.29-.09.76-.31,1.65.8,2.14C1016.64,1205,1016.77,1199.17,1017.08,1193.34Zm-23.49-157.48c1.2,9.12.18,18.19,0,27.31-.49,35.55-.67,71.14-1.87,106.68-.54,16.28-1.2,32.57-3.52,48.71-.35,2.36-.62,4.72-1.11,7-.22,1.25.18,1.43,1.2,1.38,1.78,0,4,.54,5.21-.26s.09-3.07.09-4.72a78.12,78.12,0,0,1,1.2-14.81,13.83,13.83,0,0,0,.26-3.56c-1.55-22.33-1.06-44.71-.66-67.09.62-33.18,1.24-66.37,3.56-99.51.22-3.25.44-6.5.89-9.75.22-1.64-.27-2-1.83-1.91a38.28,38.28,0,0,0-6.14.58C993.24,1029.05,993.19,1032.57,993.59,1035.86Z"/><path class="bd329412-cdc1-461d-bc1e-07a9a2838b38" d="M946.78,1017.71a3,3,0,0,0,0,.67c-.93,11-.89,22-1.11,33.05-.31,15.79-.49,31.54-.89,47.33s-.8,31.86-.62,47.78c0,5.3-.05,10.63-.31,16-1.16,21.53-1.25,43.07-1,64.64,0,3.56.44,7.07,0,10.63-.57,5.12-1.42,5.83-6.54,6.19-5.56.35-11.12.09-16.63.75-2.81.36-4.32-.89-4.81-3.78a10.31,10.31,0,0,1-.09-2c.05-8.1.09-16.15.09-24.25,0-16-.27-32,.31-48,.63-17.83,1.74-35.67,2.63-53.47.84-17,1.55-34,2.4-51,.44-8.63,1.16-17.26,2-25.89.4-4.23,1.64-8.46.53-12.77a12.26,12.26,0,0,1,.94-8.59,6.39,6.39,0,0,1,4.93-4c3.61-.49,7.21-.71,10-.94C945.58,1009.92,947.18,1011.62,946.78,1017.71Z"/><path class="bd329412-cdc1-461d-bc1e-07a9a2838b38" d="M1072.27,1006.1c3.07,0,6.1.22,9.12-.05,2.32-.22,2.85.72,3.34,2.81s-1,3.47-1,5.38c-.23,6.49,1.2,13,.13,19.48a47.72,47.72,0,0,0-.89,9.7c.31,8.14.27,16.28,0,24.43-.45,16.28-.76,32.56-1.47,48.84-.54,11.84-.85,23.67-1.47,35.5-.18,3.69-.27,7.39-.49,11.08-.53,8.18-1.25,16.37-1.51,24.6-.27,7.87-.14,15.7-.14,23.58a24.31,24.31,0,0,1-.44,4.4,26.35,26.35,0,0,0,.67,11.35c.8,3.2-.72,5.51-4,5.51-5.3,0-10.55-.27-15.75.71-1.87.36-2.85-.44-3.16-1.86-.89-4.45-2.49-8.64-2.36-13.4.58-19.08,1.2-38.16,2.36-57.25.85-13.39,1.29-26.78,1.78-40.17.71-20,1.25-40,1.87-60q.46-14.34,1.64-28.6a30.49,30.49,0,0,0,.27-6.41,122.74,122.74,0,0,1-1.11-16.59c0-2.63.71-3.29,3.2-3.29h9.34Z"/><path class="ef37f0fe-d26f-4d31-9d2d-b49f08ce51d1" d="M850.23,798.18S735.36,950.51,653.07,998.63c0,0,70.25-53.25,189.13-200.76Z"/><path class="ef37f0fe-d26f-4d31-9d2d-b49f08ce51d1" d="M762.9,786.73S655.44,944.37,575.54,996.36c0,0,67.62-56.54,179.33-209.57Z"/><path class="ef37f0fe-d26f-4d31-9d2d-b49f08ce51d1" d="M983.26,670.26s-49.35-.43-68.37,17.85c0,0,14-20.83,72.9-24Z"/><path class="ef37f0fe-d26f-4d31-9d2d-b49f08ce51d1" d="M685.08,753.63s-97.3,164.12-173.75,221c0,0,63.92-60.7,165.73-220.47Z"/><path class="ef37f0fe-d26f-4d31-9d2d-b49f08ce51d1" d="M618.88,752.14S511.42,909.78,431.52,961.78c0,0,67.62-56.55,179.32-209.57Z"/><path class="ef37f0fe-d26f-4d31-9d2d-b49f08ce51d1" d="M767.63,892.18s1.77,49.32-16,68.82c0,0,20.44-14.54,22-73.52Z"/><path class="ef37f0fe-d26f-4d31-9d2d-b49f08ce51d1" d="M661.07,911.5s1.77,49.32-16,68.82c0,0,20.43-14.55,22-73.52Z"/><path class="ef37f0fe-d26f-4d31-9d2d-b49f08ce51d1" d="M633.32,826.7s1.77,49.33-16,68.83c0,0,20.44-14.55,22-73.53Z"/><path class="ef37f0fe-d26f-4d31-9d2d-b49f08ce51d1" d="M530.19,862.69s1.77,49.33-16,68.83c0,0,20.44-14.55,22-73.53Z"/><path class="ef37f0fe-d26f-4d31-9d2d-b49f08ce51d1" d="M726.92,835.11s-49.35-.43-68.37,17.85c0,0,14-20.83,72.9-24Z"/><path class="ef37f0fe-d26f-4d31-9d2d-b49f08ce51d1" d="M737.58,925.65s-49.35-.43-68.36,17.85c0,0,14-20.82,72.9-24Z"/><path class="ef37f0fe-d26f-4d31-9d2d-b49f08ce51d1" d="M605,871.18s-45-.39-62.27,16.25c0,0,12.74-19,66.4-21.82Z"/><path class="ef37f0fe-d26f-4d31-9d2d-b49f08ce51d1" d="M998.42,590.17S954.79,601,942.16,621.42c0,0,7.62-21.54,58.88-37.67Z"/><path class="ef37f0fe-d26f-4d31-9d2d-b49f08ce51d1" d="M561.66,822.05s-44.95-.38-62.27,16.26c0,0,12.74-19,66.4-21.83Z"/><path class="ea657113-8f84-41c5-a114-712fb25439eb" d="M1076.69,1240.17a10.76,10.76,0,0,1-.08,2c-.42,1.95-.73,4.06-2.79,5s-4.24,1.74-6.38,2.62c-1.4.57-2.23.11-2.78-1.25-2.76-6.61-5.46-13.2-6.46-20.42-.8-6.06-2.66-11.91-3.83-17.93-1.31-6.67-1.71-13.45-2.58-20.19a52,52,0,0,1-.8-9.42c11.9,10.47,16.53,24.64,21.4,38.68,3.16-23.67,6.62-47.17,2.57-71a2.56,2.56,0,0,1,1.25.82,54.28,54.28,0,0,1,10.46,16.63,208.29,208.29,0,0,1,7.1,19.85,132.49,132.49,0,0,1,4.82,27c.69,9.37-.77,18.15-5.74,26.18-1,1.71-2,3.6-4.23,4.35-2.52.88-5,1.8-7.5,2.8-1.32.54-1.86.12-2.26-1.11-.53-1.56-1.13-3.09-1.72-4.68C1077,1240.16,1076.81,1240.23,1076.69,1240.17Z"/><path class="ea657113-8f84-41c5-a114-712fb25439eb" d="M1141.94,1208.57c-2.78,6.38-5.84,12.62-9,18.83-6.13,12.11-15.91,19.54-28.76,23.26-.68.21-1.4.33-1.69-.47-1.31-3.83-3.63-7.43-3.77-11.55a30.24,30.24,0,0,1,3.32-13.68c2.58-5.5,7.06-9.56,11.32-13.59a195.4,195.4,0,0,1,31.62-24.21c2-1.25,4.06-2.25,6.5-3.62C1149.06,1192.59,1145.44,1200.56,1141.94,1208.57Z"/><path class="bd329412-cdc1-461d-bc1e-07a9a2838b38" d="M918.86,1008.82c-1.55.06-3.11,0-4.66.23-2,.26-2.34-.39-1.88-2.33,2.09-8.94,4.54-17.81,4.84-27,.06-1.78,1-1.95,2.41-2,15.71-.28,31.42-.33,47.11-.92,17.25-.64,34.47-2,51.72-2.74,12.8-.56,25.62-.41,38.4-1.63,11.8-1.1,23.61-1.89,35.4-3,2.22-.18,2.65.43,2.86,2.29,1,8.15,2.3,16.25,5,24.06.45,1.28.19,1.64-1.18,1.65-4.86,0-9.67,0-14.47.1-32.73.91-65.44,2.54-98.1,5.09-10.7.83-21.39,1.84-32.07,2.9-11.8,1.14-23.55,2.37-35.35,3.55C918.91,1009,918.91,1008.86,918.86,1008.82Z"/></svg>