<svg id="Layer_1" enable-background="new 0 0 512 512" height="512" viewBox="0 0 512 512" width="512" xmlns="http://www.w3.org/2000/svg"><g><g clip-rule="evenodd" fill-rule="evenodd"><path d="m107.105 126.17 43.879-30.727 246.412 351.887c18.085 25.88 22.96 53.716 10.828 62.191-12.131 8.504-36.623-5.584-54.736-31.436z" fill="#9dc6fb"/><path d="m122.922 115.115 12.246-8.589 277.876 396.872c-1.105 2.552-2.693 4.649-4.819 6.123-2.126 1.502-4.62 2.296-7.398 2.438z" fill="#80b4fb"/><path d="m404.908 126.17-43.908-30.726-246.384 351.886c-18.113 25.88-22.96 53.716-10.828 62.191 12.103 8.504 36.623-5.584 54.707-31.436z" fill="#9dc6fb"/><path d="m389.062 115.115-12.217-8.589-277.904 396.873c1.105 2.552 2.722 4.649 4.848 6.123 2.126 1.502 4.62 2.296 7.398 2.438z" fill="#80b4fb"/><path d="m216.152 102.729c-4.876-.114-8.305 2.551-10.545 6.973-23.924 46.998-59.754 76.193-112.25 86.115-5.131.964-7.994 3.94-8.107 9.213-.992 39.23 3.742 214.551 164.181 303.103 4.167 2.296 8.957 2.296 13.152 0 160.438-88.553 165.172-263.873 164.18-303.104-.142-5.273-2.977-8.249-8.107-9.213-52.525-9.922-88.354-39.117-112.279-86.115-2.239-4.422-5.669-7.087-10.516-6.973h-79.709z" fill="#61a2f9"/><path d="m85.505 202.648c-.142.737-.255 1.531-.255 2.382-.992 39.23 3.742 214.551 164.181 303.103 4.167 2.296 8.957 2.296 13.152 0 160.438-88.553 165.172-263.873 164.18-303.104-.028-.851-.114-1.645-.284-2.382-2.806 62.106-25.001 203.808-163.897 280.484-4.195 2.296-8.986 2.296-13.152 0-138.924-76.676-161.091-218.377-163.925-280.483z" fill="#5490f9"/><path d="m86.321 26.892h32.525v92.258h-32.525z" fill="#5490f9" transform="matrix(.819 -.574 .574 .819 -23.331 72.03)"/></g><path d="m81.962 152.901c-3.373 2.381-8.05 1.53-10.403-1.843s-1.531-8.021 1.842-10.402l102.726-71.914c3.373-2.381 8.05-1.56 10.403 1.843 2.352 3.373 1.531 8.021-1.843 10.402z" fill="#ff9838"/><path clip-rule="evenodd" d="m54.636 4.566c11.423-7.993 27.128-5.216 35.121 6.18 7.965 11.423 5.216 27.127-6.208 35.121-11.394 7.965-27.099 5.215-35.092-6.208-7.994-11.396-5.216-27.099 6.179-35.093z" fill="#ffd064" fill-rule="evenodd"/><path clip-rule="evenodd" d="m91.004 12.73c6.378 11.168 3.317 25.597-7.455 33.137-11.394 7.965-27.099 5.215-35.092-6.208-5.783-8.249-5.924-18.737-1.247-26.957.396.681.793 1.332 1.247 1.956 7.993 11.423 23.697 14.201 35.092 6.207 3.174-2.212 5.669-5.017 7.455-8.135z" fill="#ffc250" fill-rule="evenodd"/><path clip-rule="evenodd" d="m449.269 44.449-26.645-18.652-52.979 75.684 26.617 18.651z" fill="#5490f9" fill-rule="evenodd"/><path d="m438.611 140.655c3.373 2.381 4.195 7.029 1.842 10.402-2.381 3.373-7.03 4.224-10.403 1.843l-102.725-71.914c-3.402-2.381-4.224-7.029-1.843-10.402 2.353-3.402 7.002-4.224 10.375-1.843z" fill="#ff9838"/><path clip-rule="evenodd" d="m457.348 4.566c-11.395-7.993-27.099-5.216-35.092 6.18-7.994 11.423-5.216 27.127 6.18 35.121 11.423 7.965 27.127 5.215 35.12-6.208 7.965-11.396 5.215-27.099-6.208-35.093z" fill="#ffd064" fill-rule="evenodd"/><path clip-rule="evenodd" d="m421.009 12.73c-6.406 11.168-3.317 25.597 7.427 33.137 11.423 7.965 27.127 5.215 35.12-6.208 5.754-8.249 5.924-18.737 1.247-26.957-.396.681-.821 1.332-1.247 1.956-7.993 11.423-23.697 14.201-35.12 6.207-3.147-2.212-5.642-5.017-7.427-8.135z" fill="#ffc250" fill-rule="evenodd"/><path d="m272.872 155.792 37.19 53.092 62.361 19.077c10.715 3.26 16.753 14.569 13.521 25.284-.708 2.296-1.757 4.45-3.175 6.378l-39.288 52.128 1.105 65.196c.199 11.225-8.758 20.438-19.955 20.607-2.325.028-4.677-.283-6.916-1.02l-61.681-21.232-61.709 21.232c-10.63 3.628-22.194-2.041-25.851-12.643-.964-2.862-1.276-5.811-.992-8.617l1.077-63.523-39.259-52.128c-6.775-8.957-4.989-21.713 3.968-28.487 2.381-1.786 5.018-2.977 7.739-3.6l60.972-18.651 37.417-53.433c6.434-9.155 19.048-11.395 28.232-4.988 2.126 1.473 3.884 3.287 5.244 5.328z" fill="#ffd064"/><path d="m382.543 234.905c3.883 5.017 5.386 11.792 3.401 18.34-.708 2.296-1.757 4.45-3.175 6.378l-38.862 51.59-.34-19.474c-.057-3.571.964-6.406 2.75-8.759zm-38.296 121.208.34 20.834c.199 11.225-8.758 20.438-19.955 20.607-2.325.028-4.677-.283-6.916-1.02l-61.681-21.232-61.709 21.232c-10.63 3.628-22.194-2.041-25.851-12.643-.964-2.862-1.276-5.811-.992-8.617l.312-18.878c.17.851.397 1.673.681 2.494 3.657 10.63 15.221 16.271 25.851 12.643l52.724-18.142c5.981-2.069 11.849-2.126 17.943 0l52.724 18.142c2.239.736 4.592 1.049 6.916 1.021 9.777-.142 17.827-7.199 19.613-16.441zm-176.085-44.9-38.862-51.59c-5.669-7.512-5.329-17.688.17-24.746l37.048 49.152c1.559 2.154 2.183 4.677 1.984 7.483z" fill="#ffc250"/><path clip-rule="evenodd" d="m256.006 338.085c30.784 0 55.87-25.087 55.87-55.87 0-30.784-25.086-55.898-55.87-55.898s-55.898 25.114-55.898 55.898c0 30.783 25.115 55.87 55.898 55.87z" fill="#fff3bf" fill-rule="evenodd"/><path clip-rule="evenodd" d="m310.487 269.715c.907 4.025 1.389 8.192 1.389 12.5 0 30.869-25.001 55.87-55.87 55.87s-55.898-25.001-55.898-55.87c0-4.308.482-8.475 1.417-12.5 5.669 24.859 27.921 43.398 54.481 43.398 26.56-.001 48.812-18.539 54.481-43.398z" fill="#fff0af" fill-rule="evenodd"/><path clip-rule="evenodd" d="m101.33 81.958h32.524v25.015h-32.524z" fill="#4a81f6" fill-rule="evenodd" transform="matrix(.819 -.574 .574 .819 -32.915 84.51)"/><path clip-rule="evenodd" d="m388.269 74.893 26.616 18.651-14.314 20.494-26.645-18.651z" fill="#4a81f6" fill-rule="evenodd"/></g></svg>