<?xml version="1.0" encoding="utf-8"?>
<!-- Generator: Adobe Illustrator 26.0.1, SVG Export Plug-In . SVG Version: 6.00 Build 0)  -->
<svg version="1.1" id="Layer_1" xmlns="http://www.w3.org/2000/svg" xmlns:xlink="http://www.w3.org/1999/xlink" x="0px" y="0px"
	 viewBox="0 0 3145.7 3145.7" style="enable-background:new 0 0 3145.7 3145.7;" xml:space="preserve">
<style type="text/css">
	.st0{fill:#3F4047;}
	.st1{fill:#B1B1B1;}
	.st2{fill:#644F3A;}
	.st3{fill:#7B797A;}
	.st4{fill:#918F90;}
	.st5{fill:#5B595A;}
	.st6{fill:#5C5A5B;}
	.st7{fill:#F87A03;}
	.st8{fill:#F8EB0A;}
	.st9{fill:#444444;}
	.st10{fill:#ACACAC;}
	.st11{fill:#ADADAD;}
	.st12{fill:#402F21;}
	.st13{fill:#7B6148;}
	.st14{fill:#402F22;}
	.st15{fill:#7A6148;}
	.st16{fill:#2A6077;}
	.st17{fill:#1F4E64;}
	.st18{fill:#53A7B8;}
	.st19{fill:#1A4E60;}
	.st20{fill:#908E8F;}
	.st21{fill:#6C6A6B;}
	.st22{fill:#454545;}
	.st23{fill:#CACACA;}
	.st24{fill:#5F4538;}
	.st25{fill:#216FA6;}
	.st26{fill:#976E3F;}
	.st27{fill:#55564D;}
	.st28{fill:#956B3C;}
	.st29{fill:#6F6D6E;}
	.st30{fill:#706E6F;}
	.st31{fill:#56574E;}
	.st32{fill:#241B1C;}
	.st33{display:none;fill:#212223;}
</style>
<path class="st0" d="M1751.4,2544.3c2.4,0,4.7,0,7.1,0c9.6,5.3,19.8,8.5,30.8,9.4c42.4,3.5,84.7,7.5,127,10.6
	c57.7,4.2,114.6,15.9,172.6,16.5c34.2,0.4,68.7,0.6,102.6,4.3c113.3,12.4,227.1,18.9,340.2,33.2c79.5,10.1,159.7,15.7,239.7,23.2
	c3,0.3,6.3,1.8,8.6-1.6c4-5.9,10.5-6.1,16.7-7.2c14.8-2.6,29.6-3.6,44.6-4.5c38.2-2.3,76.1-6.4,112.8-17.9c6.5-2,13.1-2.4,19.8-0.3
	c5.8,1.9,7.8,4.9,6.1,11.4c-3.4,12.4-6.7,25-8,37.7c-0.7,6.4-3.3,8.1-8.1,10c-121.1,47.4-242.6,93.9-365.6,136.1
	c-164.3,56.4-330.3,107.7-492,171.4c-4.1,1.6-8.2,2.1-12.7,1.8c-120.7-7.2-240.6-22.4-360.7-35.7c-128.3-14.2-256-32.7-383.9-50.3
	c-159-22-317.8-45.7-476.2-71.3c-190.3-30.7-379.7-66.4-569.1-102.1c-17.5-3.3-34.7-8.6-52.9-7.9c0-11.8,0-23.5,0-35.3
	c3.3-0.7,2.5-3.5,2.8-5.6c2.7-18.9,7.5-21.2,25.3-14.2c33.1,13,68.7,17.7,102.9,14.4c89.2-8.7,178-22.1,266.5-36.7
	c148.6-24.5,297.4-48.4,446.2-72c28.7-4.6,57.1-13,86.3-12.1c147.6,4.6,295.1,10,442.6,15.1c35.8,1.2,71.6,2.3,107.4,3.5
	c4.8,0.2,9.3,1,9.1-6.6C1739.6,2553.7,1745.2,2548.6,1751.4,2544.3z"/>
<path class="st1" d="M240.6,2661.5c0-1.6,0-3.1,0-4.7c5.1-0.5,10.2-0.6,15.2-1.6c86.6-16.5,172.2-38.3,260.3-46.9
	c31.4-3.1,61.6-12.8,92.4-19.1c31.6-6.5,63.7-10.4,95.6-15.6c138-22.3,276-44.8,414-66.9c17.8-2.9,35.5-7.7,53.8-7
	c29.1,1.1,58.2,2.6,87.4,3.6c100,3.4,200,6.7,300,9.9c52.8,1.7,105.5,3.4,158.3,5c4,0.1,10.8,2.2,11.5-2.6
	c1.3-10,8.4-15.9,13.1-23.5c1.6,0,3.2,0,4.7,0c9,9.2,21,10.7,32.9,11.8c41.2,3.7,82.4,7,123.6,10.6c43.9,3.8,87.6,12.1,131.4,14.4
	c79,4.1,158.2,6.2,236.9,14.9c43.8,4.8,87.9,6.9,131.7,11.8c45.3,5,90.7,8.3,135.8,14.5c34.7,4.8,69.8,6.6,104.6,10.1
	c82.7,8.2,165.3,16.6,248,24.9c31.9,3.2,63.9,6.3,95.8,9.5c-5.2,3.9-10.8,5.5-16.3,7c-59.3,16.2-118.5,32.7-176.1,54
	c-203.2,75.1-409.5,141.1-615.6,207.7c-40.8,13.2-81,28-120.7,44.1c-7.9,0-15.8,0-23.6,0c-1.8-2-4.2-2-6.5-2.2
	c-54.5-5.4-108.9-10.8-163.4-16.3c-114.8-11.7-229.4-25.2-343.6-40.8c-182.9-25.1-365.9-50.1-548.3-78.8
	c-214.4-33.7-428-71.3-641.1-112.3C302,2670.9,271.8,2663.5,240.6,2661.5z"/>
<path class="st2" d="M1319.6,1317c0,0.8,0,1.6,0,2.3c-2.1,14-2.4,28.1,0,42.1c0,8.6,0,17.2,0,25.8c-4.6,2.5-2.4,7-2.6,10.4
	c-4.1,80.2-7.6,160.5-13.3,240.6c-0.9,13.2-4.6,27-2.1,39.5c4.5,22.2,3.7,44.3,3.3,66.4c-0.8,49.5-1.1,99.1-8.3,148.2
	c-1.9,12.7-3.3,27.1-14.2,34.7c-10.2,7.1-11.6,16-12.9,26.4c-0.9,7.7-2.6,15.4-3.2,23.2c-1.5,20.9-16.4,34.8-25.8,53
	c-1.3-11.8-8.3-16.3-17.6-19c-2.5-0.7-5.5-4-6.1-6.6c-2.7-12.1-6.9-22.6-18.3-29.4c-3.7-2.2-4-8.2-4.2-12.9
	c-0.5-11.7-1.4-23.4-1.3-35.1c2.4-163.5-6.4-326.8-8.3-490.2c-0.7-58.9-1.5-117.8,0.6-176.7c0.3-9.6,0.7-20,10-24.7
	c8.3-4.2,8.9-10.1,9.4-17.7c0.7-10.9,2.6-21.7,3.8-32.5c0.6-6.1,3.1-11.1,7.2-15.4c1.5,0,3.1,0,4.6,0c4.6,4.6,6.3,10.2,7.3,16.6
	c2.9,19.3,4.1,38.7,5.2,58.1c0.3,5.2,1.4,7.9,7.3,7c4.5-0.7,9.2,0.4,13.6-0.4c20.7-3.5,34.7,6.3,38.8,27.7c0.6,2.9-0.6,6.9,3.1,8.2
	C1310.2,1291.7,1314.3,1304.8,1319.6,1317z"/>
<path class="st3" d="M1278.6,1018.8c120.4,0,240.8,0,361.1,0c0.2,1.2,0.6,2.3,0.6,3.5c-1.2,70.6,8.4,140.6,13.7,210.8
	c0.2,2.9-1.2,6.9,2.2,8.5c2.6,1.2,5-1.3,7.1-3c13.3-10.4,22.7-6.6,26,10.4c3.2,16.7,3.4,33.7,3.6,50.6
	c1.4,138.6,8.7,276.9,24.7,414.7c4,34,7.8,68,11.8,102c0.5,4.2,2.1,12.1,3.5,11.7c9.9-3,15.1,7.4,24.1,7.2
	c11.7-0.4,23.4,1.8,34.4,6.6c5,2.2,10.2,7,14.7,6.4c13.8-1.9,16.5,6.2,18.1,16.7c0.6,3.8,2.2,7.5,3.5,11.3
	c30.6,90.5,73.4,175.4,119.1,258.9c3.7,6.8,6.7,13.2,6,21.1c-6.5,80.2-6,160.4-4.3,240.8c1.1,53.5,2.9,107,6.2,160.4
	c0.5,7.9-2,10.1-9,11.6c-31.9,6.6-63.8,13.4-95.6,20.6c-68.6,15.5-136.9,32.6-206.7,42c-14.2,1.9-28.6,0.9-41.8,9.2
	c-7,4.5-16.1,2.7-23.9-0.9c-4-1.8-7.6-3.7-12.3-2.1c-8.4,2.9-17,2.1-25.7,0.6c-131.4-22.9-264-36.1-396.2-53.1
	c-33.9-4.3-68.3-6.7-100.4-19.4c-10.6-4.2-17.6-6.2-21.5,6.9c-0.5,1.7-2.4,3.1-4.5,2.1c-3.4-11.3,4.3-24.9-7.7-34.1
	c0-3.9,0-7.9,0-11.8c6.3-4.3,6.9-10.7,7-17.6c1.2-121.7,1.3-243.4-4.6-365c-0.2-3.3,1.4-7.2-2.4-9.7c0-5.5,0-11,0-16.5
	c9.4-6.6,13.6-17,18.9-26.4c45.6-80.8,91-161.6,136.2-242.6c5.5-9.8,12.5-15.7,24.2-15.7c9.8-0.1,19.7-1.9,29.4-1
	c10.4,0.9,13.2-3.6,14.9-12.9c7.4-40.3,16.1-80.3,23.2-120.6c12.2-68.6,24.6-137.1,22.8-207.4c-0.8-29.5,0.6-59.1,2.4-88.6
	c5-84.2,2.3-168.4,0.4-252.7C1280.9,1107.7,1279.7,1063.2,1278.6,1018.8z"/>
<path class="st4" d="M1351.7,1823.8c-18.6-7.4-38.2-9.2-57.9-9.9c-15.6-0.5-31.2-0.7-46.7,0.1c-9.5,0.5-11.7-3.1-9.8-11.5
	c2.5-10.6,4.5-21.3,7.3-31.8c5.2-19.6,9.4-39.4,8.7-59.8c-0.2-6.6,1.9-8.6,8.6-8.5c31.9,0.5,63.9,0.4,95.8,0.4c3.6,0,7,0.3,10.2,2
	c17.7,9.5,33.8,20.7,45.7,37.3c21.1,29.4,11.3,61.8-22.7,74.2c-7.5,2.8-15.3,4.9-22.9,7.4
	C1362.6,1823.8,1357.1,1823.8,1351.7,1823.8z"/>
<path class="st4" d="M1533.3,1574.2c-2.1,9.5-13.9,12.3-13.7,18.5c0.2,5.8,9,11,11.3,18.2c4.7,14.6,1.3,26.8-8.2,39
	c-12.9,16.6-28.1,24.7-49.5,25.4c-19.3,0.6-38.4,4.2-58.1,1.9c-43-4.9-67.4-50.3-46.6-87.9c3.3-6,4.4-12.2,4.7-19
	c0.7-15.6,5.3-19.6,20.6-19.4c27.2,0.4,54.4-0.7,81.5,2.2c9.7,1,19.4,3.3,24.3,11.8c5.6,9.8,13,10.7,22.4,9.4
	C1525.5,1573.8,1529,1574.2,1533.3,1574.2z"/>
<path class="st5" d="M1958.2,2567.6c-6.4-0.9-12.5,1.4-18.6,2.7c-7.8,1.7-15.2,4-11.9-10c-9,3.9-16.6,7.5-25.1,6.4
	c-3.3-0.4-4.6,1.8-6.4,4.1c-14.4,18-36.8,20.7-55.3,6.1c-3.5-2.7-4.8-2.3-7.5,0.4c-10.8,10.6-23.5,13.9-37.8,8.2
	c-3.3-1.3-4.8,0-7.2,1.7c-16.4,12.5-22.7,13.5-41.5,7c-2.9,3.4-2.6,7.9-3,11.9c-0.5,5.4-2.2,8.2-8.1,9.5c-13.8,3.1-14.2,3.6-15.2-11
	c-5.7-83.8-7.4-167.6-4.5-251.5c1.1-30.3,0.7-60.7,5.1-90.8c0.9-5.8-4.9-8.5-3.9-14.2c0.8-4.4,0.4-7.5,6.4-6.5
	c6.3,1,13,0.4,18.3-3.2c25.4-17.7,55.4-23.8,84-33.6c39.1-13.3,78.2-26.5,117.1-40.2c8.8-3.1,11.5-2.3,10.8,7.8
	c-3.5,50.7-5.2,101.5-4.3,152.3c0.9,58.3,2.9,116.5,4,174.8c0.1,3.8,3.9,9.8-3.7,11.7c-0.4,0.1-0.8,1.9-0.8,1.9
	c13.5,6.2,0.6,20.7,9,28.5C1958.2,2550.2,1958.2,2558.9,1958.2,2567.6z"/>
<path class="st5" d="M1509.9,2224.5c-89.3-3.8-178-13.3-266.3-26.7c-10.9-1.7-21.8-3.4-32.8-3.8c-12.9-0.4-23.8-7.2-36.1-9.3
	c-6.7-1.1-9.2-8.1-11.4-14.1c-6.1-17-4.2-34.2-0.1-51.2c23.9-98,100.6-164.2,200.9-174.1c46.2-4.5,91.1-0.9,133.7,19.1
	c8.5,4,15.7,7.8,14.3,19.5c-0.7,6.1,3.2,11.9,6.3,17.5c16.1,29.7,30.9,60.2,48.3,89.2c12.1,20.1,14.9,40.9,12.9,63.3
	c-1,11.8-2.2,23.5-3.7,35.2c-2.5,19.4-11.9,29.6-30.8,33.8c-3.1,0.7-6.2,1.5-9.3,1.6C1527.2,2224.7,1518.6,2224.5,1509.9,2224.5z
	 M1511.8,2131.1c1.9,6.5,4.1,12,4.9,17.8c0.8,5.7,0.4,11.7,0.1,17.5c-0.2,3.5-1.6,7.2,4.1,7.4c4.2,0.1,7.8,0.3,8.2-5.5
	c0.4-6.6,1.4-13.2,1.8-19.8C1532,2128.2,1531.9,2128.2,1511.8,2131.1z"/>
<path class="st6" d="M1724.4,1872.2c5.8,0,10.3,0,14.8,0c-31.2,10.1-61.9,20.9-92.8,31c-5.1,1.7-9.2-1.1-13.1-3.7
	c-14.8-9.6-20.3-24.4-22.5-41c-0.9-6.5-1.9-10.8-10.4-12.5c-16.6-3.3-22.9-17-24.4-32.4c-2.5-25.1-4.8-50.2-6.2-75.3
	c-5.5-101.4-10.5-202.9-15.9-304.4c-2.4-46-4.3-92.1,0.2-138.1c0.9-8.9,2-18.2,13.1-19.5c10.5-1.3,15.4,6.5,18.8,14.9
	c10.5,26.2,14.4,53.9,17.8,81.6c6.1,50.4,10.9,101,13,151.8c0.2,4.2,0.9,8.4,2.3,12.6c2.7-116,13.4-231.3,30.3-345.9
	c1.2,0.1,2.4,0.1,3.6,0.2c1.2,14.7,2.5,29.3,3.5,44c0.5,7.5,3.5,7.6,8.7,3.8c15.3-11.1,23.9-7.9,26.6,11.1
	c2.2,15.9,3.6,32.1,3.7,48.2c0.2,98.9,4.9,197.7,12.8,296.2c5.9,73.3,15.3,146.4,23.5,219.6c0.8,6.8-1.4,19.1,14.1,12.4
	C1745.3,1845.4,1736.2,1858.8,1724.4,1872.2z M1673,1828.9c8.8-9.6,3.1-16.3,0-23.2C1673,1812.5,1673,1819.4,1673,1828.9z"/>
<path class="st6" d="M1087.5,2383.1c15.2-19.9,8.6-39.1-2.6-58.1c-1.4-2.4-7.2-6,1.1-8c1.9-0.5,0-5-0.5-7.7
	c-3.4-21.4-7-42.8-3.6-64.6c0.4-2.3,0.4-4.8,1-7c1.6-5.9,1.9-14.1,9.7-14.5c8.4-0.4,8.7,8,10,13.8c5.8,26.6,8.5,53.7,8,80.9
	c-0.2,7.7,2.4,11.2,9.6,13.2c11.4,3.3,22.7,5.5,34.7,6.1c31.5,1.5,61.8,10.8,92.7,16.4c78.9,14.4,157.5,30.1,237.9,34.4
	c13.8,0.7,27.3,3.9,39.8,10c11.8,5.8,19.4,14.8,19.4,28.6c0,4.4,1.4,7.2,4.7,10c6.2,5.4,4.5,11.7,1.7,18.3c-2.9,7-8.2,5.6-13.8,4.8
	c-114.1-15.9-227.1-38.1-339.9-61.3c-33.6-6.9-67.3-11.9-101.6-13.2C1093.1,2385.4,1090.2,2386.1,1087.5,2383.1z"/>
<path class="st7" d="M1404.1,1953.4c11.7,0,23.4,0,35.1,0c2.7,4.5,7.7,3,11.5,3.8c51,11,90.2,39.5,119.8,81.5
	c14.7,20.9,19.2,43.3,3.5,66.1c-2.3,3.4-1.5,6.7-1,10c2,15.4,0.7,30.7-12.1,40.6c-11.5,8.8-21,23-36,24.3
	c-14.9,1.3-30.8,4.1-45.2,0.9c-43.6-9.7-88.3-7.8-132.2-14.8c-31-4.9-62.8-5.4-93.7-12.3c-19-4.3-22.9-8-25.9-26.5
	c-0.5-2.9-1.2-6.1-4.2-7.9c0-7,0-14,0-21c3.9-1.7,3.3-5.8,4.6-8.8c9.4-22.1,19.2-44.6,36.1-61.5c26.5-26.6,57.9-46.9,93.9-59.3
	C1373.4,1963.2,1388.8,1958.4,1404.1,1953.4z"/>
<path class="st8" d="M1502,2100.4c0,10.9,0,21.8,0,32.7c-4.1,2.2-3.2,6.7-4.9,10c-15.3,31.4-26.6,45.2-54.2,45.4
	c-39.3,0.3-77.9-6-116.1-14.9c-2.4-0.6-4.1-1.9-5.6-3.7c-11.8-13.9-28.1-25.9-19.2-48.1c0.3-0.6-0.1-1.5-0.2-2.3
	c-2.8-19.2,4.7-35,16.5-49.2c7.9-9.6,16.6-18.5,21.2-30.4c1.6-4.2,5.2-7.7,11.1-8.2c-0.3,2.8-0.8,5.5-0.8,8.1
	c0.4,18.3,2.8,35.8,19,47.7c2.6,1.9,5.2,5.4,8.9,1.4c17.9-19.9,31-41.1,27.3-70c-2.3-18.2-5.8-35.9-10.2-53.5c0.8,0,1.6,0,2.3,0
	c19.9,7.6,37.7,20.1,50.6,35.6c17.9,21.4,34.2,45,44.7,71.6C1496.2,2081.5,1496.8,2091.7,1502,2100.4z"/>
<path class="st9" d="M1154.3,2146.1c7.1-7.6,12.7-15.4,12.2-27c-0.4-9.8,3.7-19.6,10.2-26.8c10.8-11.8,16.9-26.1,24-39.7
	c17.4-33.1,44.7-54.1,79.3-67c14.8-5.5,29.2-11.9,45.3-15.8c-8.9,9.3-17.4,18.9-26.6,27.7c-43.6,41.8-58.6,93.3-51.6,152
	c1.6,13.6-4.5,25.9-5.1,39.1c-0.2,3.8-3.3,3.6-6.2,3.4c-13.2-0.9-26.5-1.5-39.7-2.7c-19.4-1.7-32.6-12.8-41.9-29.2
	C1154.3,2155.4,1154.3,2150.7,1154.3,2146.1z"/>
<path class="st10" d="M1492.7,2291.2c-13.4-6.5-28.2-5-42.3-6.6c-38.1-4.2-76.4-6.1-114.5-10.1c-69.2-7.4-138.6-12.6-206.4-29.8
	c-15.3-3.9-27.9-10.4-37.2-23.3c-4-5.5-1.2-9.2,3-11.7c26-15.7,53.6-24.6,84.6-21.2c43.5,4.9,87.1,8.9,130.7,13.7
	c40.4,4.4,80.8,9.3,121,15c41.4,5.8,83,10.3,124.5,15.2c4.3,0.5,8.5,0.7,12.6,2.5c9.7,4.3,15.3,11.5,13.2,22.2
	c-1.9,10.3-9.1,16.4-19.6,17.2c-6.5,0.5-13-0.9-15.7,7.9c-0.9,3-5.9,3.3-9,4.8c-4.6,2.1-10.4,0-14.2,4.2
	C1513.2,2291.2,1502.9,2291.2,1492.7,2291.2z"/>
<path class="st11" d="M1822.4,1849.3c-13.3,22.1-37.3,27.3-59,31.8c-32.6,6.7-63.9,18-96.5,24.2c-2.3,0.4-5.1,0.7-6.6,2.2
	c-14.9,14.7-31.8,6.4-48.1,4.5c-43-4.9-85.8-12.1-129-16c-54.1-4.9-108.2-10.7-162.3-15.6c-18.3-1.7-36.7-2.6-55.1-2.9
	c-31.3-0.7-61.1-8.1-90.7-17.5c-7.4-2.4-5.9-3.9-2.6-10c11.2-20.6,29.9-16.5,46.5-14c30,4.6,60.1,3.7,90.2,6.2
	c45.2,3.9,90.4,8.4,135.5,13.4c34.6,3.8,69.3,6.9,104,10.2c30.4,2.9,60.8,5.6,91.1,8.8c6.2,0.7,11.6-0.8,17.2-2.5
	c43.7-13.8,87.3-27.8,131-41.3c18.3-5.7,25.2-2.6,34.4,13.8C1822.4,1846.1,1822.4,1847.7,1822.4,1849.3z"/>
<path class="st4" d="M848.9,2610.9c2.1,3.5,6.3,2.4,9.4,3.9c11.2,5.4,14.6,13.6,9.3,24.5c-3.2,6.6-6.2,13.5-11.7,18.5
	c-7.3,6.8-2.6,8,3.7,9.5c30.7,7.5,61.9,9.1,93.2,7.3c24.1-1.4,48.4-2.6,72.1-8.2c1.4-0.3,2.7-0.9,4.1-1.3
	c-1.5-6.1-11.8-1.4-10.4-8.6c1.2-6.2,6.5-10.3,12.1-13.4c18.3-10.4,44.9-4.4,57.7,13.2c11.8,16.1,7.8,38.1-9.7,52.3
	c-15.3,12.4-33.6,17.8-52.7,20.7c-59.4,9.1-118.9,12.4-178.2-1c-18.9-4.3-36.4-11.5-50.1-25.9c-6.9-7.2-9.3-16.6-14.5-24.6
	c0-6.9,0-13.8,0-20.8c6.7-15.3,15.4-28.9,30.8-37.5c5.3-3,11.9-3.7,16.1-8.6C836.4,2610.9,842.6,2610.9,848.9,2610.9z"/>
<path class="st4" d="M1760.9,2736.9c10.9,5.8,21.3,11.1,31.3,16.8c5.2,3,9.6,7.1,8.4,13.9c-1.3,7.3-7.2,9.6-13.7,10.7
	c-14.5,2.3-29.2,1.2-43.1-2.1c-39.9-9.4-79.7-19.2-118.7-31.7c-8.8-2.8-18.1-5.5-23-14.6c-2.6-4.7-7.5-3.4-11.6-3.6
	c-16.5-1.1-31.4-6.1-43.7-17.2c-4-3.6-8.1-7.6-5.7-13.9c2.5-6.5,8-8.4,14.2-7.8c25.4,2.6,51.2,0.2,75.7-3.7
	c25.4-4.1,50.3-5.9,75.6-5.1c60.6,1.8,121.2,3.4,181.6,7.1c19.5,1.2,38.7,8.3,58,13.2c5.2,1.3,11,4.1,10.4,10.7
	c-0.6,5.9-6.4,7.5-11.3,8.5c-29.7,5.5-58.4,15.8-89.7,13.2c-26.4-2.2-53.2,0.5-79.7-2.1C1768.7,2728.4,1765.9,2733.7,1760.9,2736.9z
	"/>
<path class="st12" d="M682.6,2599.4c0-11,0-22,0-33.1c3.7-1.3,2.5-4.6,2.5-7c0-25.6-0.2-51.2-0.4-76.7c0-1.7-0.4-3.1-2.1-3.7
	c0-11,0-22,0-33.1c3.7-2.5,2.2-6.4,2.2-9.7c0.2-79.4,0.2-158.9,0.2-238.3c0-3.2,1.8-7.2-2.4-9.5c0-5.5,0-11,0-16.5
	c4.8-17.2,1.1-34.7,2-52c0.3-4.6,2.5-10-2-14.1c0-7.9,0-15.7,0-23.6c4.6-1.9,2.5-6.2,2.6-9.2c1.4-91.2,3-182.4,6.1-273.6
	c1.9-54.2,3.1-108.5,7.1-162.6c0.6-8.1-3.6-19.5,2.3-23.3c5.3-3.4,15.6,0.4,23.5,2.1c6.9,1.5,7.7-1.5,7.5-7.2
	c-0.5-15.7-0.6-31.5-1.1-47.2c-2.9-108.9-7.2-217.7-2.4-326.7c0.9-21,3.3-39.6,23.9-50c2.3,0,4.6,0,7,0c6.3,3.1,15.3,10.5,18.6,8.4
	c10.8-6.6,20.4,8.3,30.7-0.6c3.1-2.7,8.6,1.9,11,6.3c3.9,7.4,6,15.1,5,23.7c-2.5,22.3-5,44.6-6.8,66.9
	c-11.8,141.7-5.4,283.9-8.8,425.8c-1,40.1,1.5,80.2,1.5,120.3c0.1,189.6-0.1,379.3,0,568.9c0,62.2,0.1,124.3-1.7,186.5
	c-0.1,4.2,0.9,8.8-4.8,10.5c-29.6,8.8-57.8,23.9-90.8,15.7C700.5,2613.8,687.1,2615.5,682.6,2599.4z"/>
<path class="st13" d="M750.8,1191.5c0,3.9,0,7.9,0,11.8c-7.2,14-7.2,29.9-6.1,44.3c3.7,50.7,2.6,101.4,2.5,152.1
	c-0.4,154.5-9.4,308.8-10.2,463.3c-0.6,125.5-4.7,250.9-1.8,376.4c1.2,50.7,0.7,101.4-0.5,152.1c-1.8,77.8-4.5,155.7-4.1,233.6
	c-23.4,0.1-46.3-4.7-69.5-6.9c-19-1.8-21.4-4-20.9-23.8c1.3-59-1.2-118-1.3-177c-0.3-147.9,0.5-295.8,3.3-443.7
	c1.5-77.9,3.5-155.7,6.2-233.5c3.3-94,2.8-187.9,0.1-281.9c-2-70.8-3.4-141.6,1.5-212.3c0.9-13.7,2.2-27.5,6.3-40.7
	c2.5-8.1,8.1-14.5,16.1-10c8.7,4.8,13.5,0.5,18.9-4.2C709.4,1175.1,734.3,1175.3,750.8,1191.5z"/>
<path class="st14" d="M1581.8,2713.3c-7.5-5-16.2-4.1-24.4-4.8c-6.7-0.5-9.3-2.5-9.4-9.8c-2.5-144.7-0.8-289.5,0.5-434.2
	c0.9-92.8,3-185.6,6-278.4c1.8-55.4,3.5-110.8,7.4-166.1c1.4-20.3-0.6-40.9,3.1-61.2c0.8-4.2,1.8-8.4,2.8-12.6
	c1.3-5.3,3.9-8.4,10-6.5c7.6,2.4,8.1-1.6,7.7-7.9c-4.8-66.3-4.5-132.8-5.7-199.3c-1.1-62.9-1.9-125.8-2-188.8
	c-0.1-33.4-0.1-66.9,3.9-100.1c1.4-12.1,1-26,17.8-29.4c3.6-0.7,2.6-5.2,3.1-8.2c1.4-7.7,2.5-15.5,4.1-23.2
	c1.3-6.2,5.1-10.6,11.6-11.9c6.6-1.3,11.5,1.7,14.8,7.2c4.2,6.9,8.7,10.1,17.8,8.2c9.3-2,13,6.6,16.1,14.1c1.3,3.1,0.6,8,7.1,6.8
	c8.4-1.5,11.9,4.4,13.4,11.6c2.1,10.4,3.8,20.8,1.9,32c-3.2-3.7-1.8-11.9-8.8-10.5c-7.5,1.5-6.7,8.9-7,14.5
	c-3.9,72.3-3.5,144.7-2.6,217.1c1.8,138.8,7.1,277.6,6,416.5c-1.7,213.1-1.4,426.3-2,639.4c-0.2,51.9,0,103.8,0.7,155.8
	c0.1,9.3-3.3,12.6-11.7,15.2c-20.8,6.4-42.3,8.1-63.4,12.4c-1.8,0.4-4-0.1-4.9,2.3C1591.2,2713.3,1586.5,2713.3,1581.8,2713.3z"/>
<path class="st12" d="M2221.6,1929.6c1,110.1,1.9,220.3,2.9,330.4c0.9,101.1,1.7,202.2,3,303.3c0.1,9.7-1.7,14.2-12.4,16.2
	c-25.8,4.9-50.9,12.7-75.5,22c-21.9,8.3-28.9,0.1-29.3-19c-1.8-87.3-5.6-174.5-7.4-261.8c-4.7-225.7-7-451.4-4.8-677.1
	c0.8-87.7,1.4-175.3,6.8-262.9c2.2-35.9-2-72.3-0.3-108.4c2.7-56.8-4.4-113.1-8.3-169.5c-3.5-50.7-3.9-101.4-4.5-152.1
	c-0.2-16.5,12.3-23.8,22.8-31.8c4.3-3.3,6-5.7,6-10.9c-0.3-21.8,12.4-35.5,34.3-37.4c13.3-1.1,26.7-1,39.9-2.6
	c9.2-1.1,10.9,1.9,11,10.7c0.1,57.4-0.1,114.9,1.4,172.3c2,74.3,3.1,148.6,4.2,223c1.7,117.5,6.6,235,6.1,352.6
	C2217,1727.5,2221.5,1828.5,2221.6,1929.6z"/>
<path class="st15" d="M2148,1538c-4.6,3.6-2.2,8.7-2.4,13c-4.6,119.9,1.1,239.9,0.6,359.8c-0.6,153.4-1.4,306.8-4,460.1
	c-1.3,74,1.5,147.8,3.2,221.7c0.2,9.5-1.2,13.1-11.6,12.5c-17.6-1-35.3-0.5-52.9-0.3c-12.3,0.1-17-3.9-17.3-16.3
	c-1.8-59.7-2.5-119.5-5.4-179.2c-3.2-64.1,0.8-128.2-2.6-192.2c-10.8-203.2-1.6-406.5-4.4-609.8c-2.2-158.9,0.9-317.7,0.3-476.6
	c-0.3-75.5,0-151,7.7-226.2c0.5-4.5-0.9-8.5-1.7-12.7c-3.4-16.7,11.8-33.2,28.4-31.7c15.6,1.5,31.3,2.6,46.9,3.3
	c5.8,0.3,8.1,1.6,8.4,7.9c4.1,75.4,5.1,150.9,5.5,226.4c0,0.7-0.4,1.5-0.7,2.2c0,87.2,0,174.4,0,261.7c0,44.5-0.1,89.1,0.1,133.6
	c0,4-2.2,8.6,1.9,12C2148,1517.6,2148,1527.8,2148,1538z"/>
<path class="st13" d="M1573.9,2717.9c-13.4-6.1-28.1-4.9-42.2-6.6c-30.7-3.7-30.3-3.2-31-34c-3.3-152.2-0.3-304.4,1.1-456.6
	c0.7-75.1,4.3-150.1,5.3-225.2c0.3-21.8-4.3-43.5-4.1-65.5c0.8-95.2,7-190.2,9.2-285.3c2.4-103,0.7-206-3.3-309
	c-1.2-32.6-0.2-65.3-0.1-97.9c0-3.1,0.6-6.3,1.2-9.3c1.7-8.2,6.6-13.6,15.3-13.6c9.3,0.1,14.6,5.9,15.5,14.7
	c1.4,13.2,1.8,26.5,4.7,40c0-4.1,0-8.3,0-12.4c0.1-9.9,4.5-16.9,14.5-18.6c9.5-1.6,15.6,3.5,19,12.2c1,2.6,2.2,5.2,2.4,7.9
	c0.8,11.7,6.1,18.6,18.6,19.3c7.6,0.4,7.6,6.1,7.1,12.1c-4,48.6-6.6,97.3-6.4,146.1c0.4,69.6,1.6,139.2,3.7,208.7
	c3.8,129-5.4,257.7-5,386.7c0.5,161.6-6.9,323.2-7.4,484.8c-0.2,64.9-1.7,129.8-0.1,194.7c0.1,2.3,0.5,4.7,0.8,7
	C1586.4,2717.9,1580.2,2717.9,1573.9,2717.9z"/>
<path class="st16" d="M327.8,1268.4c0-0.8,0-1.6,0-2.4c11.5-3.8,21.5-11.6,33.6-13.7c26-4.6,51.3-12,76.3-20.3
	c87-28.7,168.2-70.2,249.3-111.8c117.4-60.1,231.8-125.4,337.7-204.1c51.5-38.3,103.7-75.3,157.9-109.5c26-16.4,53.5-30.2,85.8-28.7
	c52,0.1,103.9,0.3,155.9,2.4c50.8,2,101.7,1.6,152.2,6.1c94.2,8.5,188.4,16.5,282.9,16.9c132,0.6,263.6,8.9,395.3,16
	c64.5,3.5,129,6.4,193.6,3.7c30.8-1.3,30.1-1.1,41.1,27.8c4.1,10.8,1.6,18-4.1,26.7c-42.5,63.5-94.1,118.7-150.9,169.5
	c-47,42.1-98.5,78.3-149.2,115.5c-53.4,39.3-106,79.7-160.7,117.2c-37.9,25.9-77.7,49.3-114.8,76.4c-9.2,6.7-18.3,13.5-28.8,18.3
	c-29,13.2-57.8,26.7-86.7,40.1c-2.8,1.3-5.4,2.9-8.8,2.8c-64.2-0.5-128.4-0.4-192.6-1.5c-88.2-1.5-176.3-7.8-264.4-10.8
	c-161.4-5.5-322.8-8.8-484.1-15.8c-77.1-3.3-154.2-7-231.1-14.4c-63.9-6.1-127.3-16.1-191.6-18.4c-16.9-0.6-33.9-1.2-50.2-6.4
	c-5.2-1.7-10.1-6.6-14.2,1.9c-1.5,3.1-5,1.4-6.8-1c-10.6-14.1-19.3-29.2-17.1-47.4C334.7,1291,332.3,1279.7,327.8,1268.4z"/>
<path class="st17" d="M597.5,1167.8c17.2-8.5,34.5-16.8,51.6-25.5c5.4-2.8,8.8-3.3,11.8,3.2c4.9,10.7,13.7,14.8,25.2,18.2
	c30.3,8.9,59.9,5.9,89.5-1.2c49.3-11.7,95.4-30.8,137.1-60c29.1-20.3,56.6-9.5,65,24.9c9.8,40.1,32.5,58.1,78,61.3
	c67,4.7,124.6-19.1,176.7-58.9c6.9-5.2,13.2-11.2,20.2-16.1c22.4-15.6,47.7-7.5,57.1,17.9c0.1,0.4,0.2,0.8,0.3,1.1
	c26.4,86.1,94.4,102.9,161.4,86.1c35.9-9,68.2-25.4,96-50.2c26.5-23.6,48.1-20.4,66.7,9.3c27.1,43.3,69,61.9,117.3,69.8
	c39.5,6.4,77.9-1.3,114.5-14.4c15.5-5.5,29.9-16.5,44.4-25.6c16.7-10.5,29.8-8.8,46.1,1c9.4,5.7,16.5,16.5,29.9,16
	c7.9-0.3,3.1,5.6,1.8,8.2c-7.1,13.9-29.6,20.6-46.9,13.5c-4.7-1.9-7.5-1.9-11.6,1c-45.8,32.5-96.1,54.3-152.3,61.3
	c-1.6,0.2-3,0.6-3.5,2.4c-11,0-22,0-33,0c-1.2-3.4-4.5-2.9-7-3.2c-53.9-7.7-98.6-32.3-134.1-73.3c-4.4-5.1-6.7-5.1-11.9-1.2
	c-38.6,28.3-81.8,46-129.2,53.4c-78.6,12.3-150.6-20.1-188.8-86.2c-5.8-10-8.8-8.4-16.7-3.1c-65.2,43.8-135.9,67.5-215.6,57.4
	c-47.7-6.1-87.1-25.8-110.7-69.7c-3.8-7-6.8-3.6-10.8-1.4c-40.6,22.8-84,38.7-129.4,48.9c-40.7,9.2-81.6,12.3-122-1.6
	c-20.3-7-38.6-16.7-49.6-36.9c-4.7-8.7-12-16-18.1-23.9C597.5,1169.4,597.5,1168.6,597.5,1167.8z"/>
<path class="st17" d="M1118.5,851.5c14.7-9.9,28.7-19.2,42.6-28.8c3.4-2.4,5.1-2.6,8.5,0.9c6.3,6.6,14.5,9.9,23.8,11.6
	c36.2,6.5,72.3,10.5,108.7,1.7c28.4-6.9,54-20,76.5-37.8c18.4-14.6,38.1-16.4,59.7-14.7c4.6,0.4,7,3,9.7,5.8
	c7.7,8.3,11.5,18.5,14.7,29.1c9.2,30,18.4,37.4,49.8,40.9c21,2.3,41.6,0.6,61.9-4.6c40.6-10.4,78.8-26.2,112-52.3
	c3.1-2.4,5.9-1.6,8.8-1.5c9,0.3,18.1,2,27,1.3c11.8-1,17.2,5.1,20.9,14.7c1.5,4,2.9,8.1,4.2,12.2c12.8,39.8,33.7,57,75.8,60.4
	c66.3,5.4,124.5-16.3,176.5-55.6c19.4-14.7,36.6-10.7,47.2,11.4c7.4,15.4,15.9,30.6,26,44.4c15.7,21.5,40.1,26.1,64.8,28.1
	c31.2,2.5,60.8-5.7,90.2-14.3c21.1-6.1,41.9-13.4,63.1-19.1c15-4,27-12.1,38-22.4c14.3-13.5,21.6-13.6,36-0.7c1.1,1,2.4,2.7,3.6,2.7
	c17.3,0,25,14.9,36.5,23.7c6.1,4.7,3.4,14.6-6.7,16c-17.6,2.4-13.6,13.6-13.1,24.1c0.3,5.9,1.5,11.7,1.6,17.5
	c0.3,10-5.1,14-14.2,10.4c-11-4.2-18.5-12.8-25.6-21.9c-2.5-3.2-0.9-4.8,1.4-6.7c3-2.5,6-5,8.8-7.8c2.3-2.4,7.8-4.9,6.2-7.4
	c-2.8-4.4-7.7-7.7-12.4-10.3c-2.7-1.5-4.9,1.9-6.1,4.3c-4.3,8.9-12.4,13.8-20,19.4c-31.9,23.7-67.6,39.4-105,51.9
	c-13.2,4.4-26.2,5.9-40.4,3.3c-10.1-1.9-21,1.1-31.6,1.4c-26.3,0.7-51.6-3.8-75.8-14c-24.6-10.4-44.4-26.5-58-49.5
	c-4-6.7-6.6-8-14-3.8c-53.2,30.7-110.1,47.3-172.1,43.2c-40.2-2.7-77.3-13.7-106.8-42.9c-5.3-5.2-9.7-11.3-14.6-16.9
	c-5.3-6.1-6.6-17.9-13.8-19c-6.1-0.9-13.2,7.2-20.2,10.8c-51.1,26.4-104.6,42.6-162.9,37.9c-16.5-1.3-32.5-5.1-48-11.1
	c-23.7-9.3-41.7-24.8-52.8-47.7c-3.1-6.3-4.5-7.7-11.2-2.9c-60.5,43.4-127.8,54-199.5,37.7C1165.7,896.9,1140.6,876.6,1118.5,851.5z
	"/>
<path class="st17" d="M2190.1,1112.1c-10.2-0.1-19.1-3.9-23.9-12.6c-4.5-8.1-8-6.4-14.1-2.2c-26.5,18.3-53.1,36.4-83.9,46.9
	c-46.8,16-93.3,14.5-139.7-1.8c-14.4-5-29.9-5.6-43.5-14.3c-13.6-8.8-27.3-17.3-37.3-30c-4.9-6.2-7.8-7.2-15.8-3.5
	c-76.2,35.9-155.7,53.9-240,37.8c-43.4-8.3-77-32.3-99.2-70.9c-4-7-6.7-6.8-13.2-3.1c-55.6,32.2-115.3,49.2-179.9,45.8
	c-57.3-3.1-104-25.6-132.5-77.7c-3.7-6.8-6.8-3.9-10.9-1.7c-33.7,18.1-68.7,32.8-106.9,38.3c-47.4,6.8-92.4,1.2-133.1-26
	c-8.9-5.9-16.3-13.4-23.4-21.4c-3.3-3.7-3.6-6,1.2-8.9c16.4-10.1,32.5-20.6,48.6-31c2.8-1.8,4.8-2.7,8.2-0.1
	c33.7,26.4,71.6,24.7,109.9,14.3c35.5-9.7,68.1-25.5,96.9-49c25.5-20.8,55-8.8,60,23.7c6.3,40.9,30.7,66.8,72.9,70.9
	c72,7,136.8-12,191.4-60.7c9.8-8.7,20.3-13.4,33.3-9c11.9,4,18.6,12.6,21,24.6c10.8,54.1,39.7,80,94.9,83.1
	c62.8,3.5,122.3-11,180.2-33.9c7.3-2.9,13.3-6.7,16-15.5c3.9-12.5,16.3-19.3,28.5-18.2c12.4,1.2,22.3,10,23.8,23.7
	c0.9,8.6,5.1,12.9,11.6,17.5c18.9,13.3,37.2,27.4,58.7,36.7c19.5,8.4,39.6,11.3,60.8,11.4c52,0.3,98.9-14.9,141-44.8
	c9.5-6.8,19.4-4.6,29.4-4.2c1.1,0,3.1,0.9,3.1,1.1c-2.4,11.9,9.6,11.3,14.7,16.6c8.7,9,12.5,19.9,13.8,31.6
	C2213.6,1105.7,2203.8,1112.5,2190.1,1112.1z"/>
<path class="st18" d="M345,1276.2c11.7,0,23.5,0,35.2,0c2.6,4.1,7,2.7,10.6,2.9c35.9,2.4,71.8,4.3,107.7,6.9
	c151.8,10.9,303.6,20.7,455.8,24.2c118.9,2.7,237.7,8.3,356.3,16.9c87,6.3,173.9,14.3,261.2,15.6c54.4,0.8,108.8-1.8,163.2,0.7
	c39.8,1.8,79.5,5.8,119.3,0.9c6.8-0.8,13.3,1.1,18.5,5.7c10.6,9.3,8.1,21.7-4.1,28.4c-15.7,8.5-32.3,10.9-49.7,11.1
	c-3.1,0-7.9-1.6-8.5,3.6c-2.2,20.2-19.2,23.3-33.4,23.6c-87.3,1.7-174.5,0.8-261.7-2.7c-107.5-4.3-214.9-10.3-322.5-12.8
	c-131-3-262.1-7.2-393-13.4c-77.8-3.6-155.5-8.2-232.9-16.9c-18.9-2.1-37.3-7.6-56-9.3c-22.1-2-44.6-0.9-66.8-2.7
	c-23.7-2-47.8-0.8-70.8-8.3c-4.9-1.6-8.9-4.7-12.6,2.1c-2.1,3.8-5.7,1.5-7.6-1.1c-10-13.2-18.1-27.5-16.7-44.4
	c0.7-8.2,0.4-16-1-23.9C336.3,1277.9,342.3,1279.2,345,1276.2z"/>
<path class="st19" d="M2475.8,822.6c9.7,11.8,11.2,27,16.6,40.6c2,4.9-3.7,9.1-6.4,13.2c-47.5,72.8-107.4,134.4-173.4,190.3
	c-62.8,53.2-132.6,97.2-196.9,148.3c-61.7,49-130.1,87.8-193.4,134.2c-22,16.1-45.7,28.5-70.4,39.4c-18.6,8.2-37,16.9-55.1,26.1
	c-9.1,4.6-14.2,3.1-18.3-6.2c-5.6-12.9-11.9-25.4-18.1-38.1c-1.4-3-1.7-7.2-6.3-7.5c0-5.5,0-11,0-16.4
	c98-39.2,190.9-88.4,276.7-149.7c58.2-41.6,115.3-85,170.6-130.3c86.4-70.8,166.4-148.4,235.2-236.9c1.6-2.1,2.7-4.6,4.1-6.9
	C2452.3,822.6,2464.1,822.6,2475.8,822.6z"/>
<path class="st20" d="M2689.6,2324.6c11.7,0,23.5,0,35.2,0c1.5,2.3,4.4,1.4,6.2,2.6c6.8,4.6,17.7,5.6,19.8,14.2
	c2.1,8.8,1.3,18.8-0.7,27.8c-6.1,26.2-14,51.9-24.4,76.7c-2.7,6.5-4.7,13.3-11.8,16.8c-1.2,0.6-3,2.6-2.7,3.4
	c3.7,12-6.6,15-13.3,18.7c-11.2,6.2-23.4,10.7-35.2,16c-3.9,1.7-8,2.9-10.5,7c-6.1,9.9-13.1,19.3-17.9,30.1
	c-8.7,19.6-8.9,19.3,9,29.4c11.3,6.4,21.3,14.8,32,21.9c16.2,10.8,27.4,26,26.1,45.3c-0.4,6.7-2.7,13.2-8.4,15.8
	c-13.8,6.2-25.9,16.6-41,19.1c-14.4,2.3-28.1,6.7-41.6,11.6c-7,2.5-12.3,1.8-18.4-2.5c-19.6-13.7-41.4-19.9-65.4-17.1
	c-26.2,3.1-46.8,27.6-42.5,52.2c1.4,8.3-1.1,11-8.1,13.3c-19.7,6.4-39.9,12.1-58.6,20.1c-24.3,10.4-47.1,8.2-69.4,0
	c-65.6-24-132.9-40.8-201.8-52.1c-14.6-2.4-29.3-1.6-39.1-17.5c-6.7-10.9-9.2-20.8,0.7-29.8c7.3-6.6,15.7-12.1,24.9-15.2
	c11.9-4,16.3-12.9,20.9-24c-5-0.2-8.8-0.4-12.6-0.5c-31.3-1-62.5-3.5-93.2-9.9c-13.2-2.8-27.3-5.3-36.8-15.9
	c-7.5-8.4-13.3-18.2-19.9-27.4c0.6-0.6,1.2-1.2,1.7-1.7c11,2.3,4.1-4.4,3-6.8c-5.8-12.8,1.8-30,15.2-33.8
	c14.3-4.1,28.5-8.3,42.7-12.7c8.1-2.5,17.3-6.5,17.7-15.2c0.6-14.2,10.6-15.7,20-18.3c7.4-2,9.2-4.8,6.6-12.3
	c-4-11.7-8.1-23.7-7-36.5c0.8-9,5.9-11.7,11.8-5.8c4,4,5.4,2.6,9,0c11.2-8.1,23.7-13.9,37.7-14.6c35.3-1.7,70-7.3,104.8-12.6
	c77.8-11.8,154.1-31.2,231.3-46.3c23.7-4.7,48.2-11.7,72-6.6c32.7,7,64.5,10.6,96.9,0.8c4.5-1.4,9.3-1.4,13.9-2.4
	C2675.5,2328,2683.4,2329.8,2689.6,2324.6z M2057.5,2554.5c18-0.3,36-0.6,53.9-3c31.8-4.2,63.6-8.1,95.5-11.8
	c8.3-1,9.4-3.8,4.1-10.1c-5.5-6.7-9.8-14.2-11.5-22.7c-1-5.1-3.3-6-8.1-5.3c-57.2,8.7-115.2,12.4-170.9,29.4
	c-15.7,4.8-15.5,4.3-7.7,18.6c3.1,5.7,7.5,4.8,11.9,4.8C2035.6,2554.6,2046.5,2554.5,2057.5,2554.5z"/>
<path class="st21" d="M1984.2,2550.7c3.4,1.7,6.9,3.3,11.4,5.6c-0.6-8.8-11-16.1-2.9-23.8c4.8-4.5,11.2-1.5,16.8,0.1
	c1.7,4.6-10.3,3.1-4.1,10c4.7,5.2,4.1,13.9,15.6,14.1c57.5,1.1,114.3-5.9,171-13.9c1.2-0.2,2.3-0.4,3.5-0.6
	c17.1-2.5,17.3-2.6,8.2-17.5c-3.4-5.6-2.8-7.7,3.9-9.3c34.6-8.6,69.1-17.6,103.6-26.7c3.5-0.9,6.2-0.4,8.8,1.4
	c4.4,2.9,8.1,6.4,14.5,5.6c4.1-0.5,5.9,4.4,7.5,8.1c2.1,5,1.5,10.4,1.6,15.7c4.1-0.7,3-3.9,4.1-5.7c4-6.8,8.5-13.1,17.6-9.5
	c8.4,3.3,11.8,10.4,9.9,19.1c-2.8,12.8-8.3,24.4-17.7,33.9c-17.2,17.3-36.1,32.5-57.2,44.8c-5.7,3.4-14.4,7.1-12.7,13.4
	c1.6,6.1,11,3.2,17,3.7c19.2,1.4,37.1-4.8,55.5-8.8c19.2-4.3,26.1-20.8,36.1-34.2c1.9-2.5,2.6-5.8,4.6-8.2
	c25.9-32.4,22.9-70.7,22.2-108.4c-0.2-9.7,3.3-15.5,12-14.4c23.9,3,45.6-6.2,66.5-14.2c79.5-30.3,159.6-58.8,239.8-87.1
	c6.6-2.3,9.6-3,9.4,6c-0.8,38.5-16.6,72.7-30,107.7c-11.9,5.1-7.4,21.3-19.3,27c-10.6,5.1-20.7,11.4-32,14.6
	c-19,5.4-27.2,20.8-33.5,36.4c-5.8,14.2-14.3,21.9-29,25c-10.7,2.2-20.9,6.8-31.5,9.5c-12,3-21.8,9.5-31.4,18
	c27-3.8,54.1-7.7,84.7-12c-17.9,12.5-35.1,19.1-53.6,28c18.7,2.9,33.2,8.4,36.1,27.8c0.9,5.8,4.6,2.5,7.1,1.7
	c18.3-5.8,36.6-11.7,54.9-17.5c16.1-5.2,23.3-4,26.8,4.6c5.6,13.7-0.5,29.9-13.7,35.8c-22.2,9.9-46,15.6-68.7,24.1
	c-11.9,4.5-21.2,4.8-32.4-3.2c-16.7-11.9-36.5-15.7-57.1-14.1c-28.3,2.2-48.2,25.4-45.3,53.5c0.5,4.3-0.4,6-4,8.1
	c-15.5,9.5-32.5,15.5-49.8,20.2c-11.3,3.1-21.7,7.8-32.3,12.5c-10.2,0-20.4,0-30.6,0c1.6-6.6-4-6-7.4-6.9c-7.9-2.2-16.2-3.1-24-5.8
	c-66.2-22.6-133.6-40.6-203.1-48.7c-17.3-2-22.7-13.6-31.5-23.3c-3.4-3.8-4.1-9.9-0.5-14.3c3.7-4.5,7.9,0.1,11.6,1.3
	c21.3,6.7,42.4,14.1,64.4,18.1c70.1,12.6,140.3,24.5,211.2,31.8c2.3,0.8,4.7,1.6,7.6-1c-3-1-5.1-1.7-7.3-2.5
	c-4.4-1.6-8.7-3.3-13.1-4.9c-2.1-0.8-5.5-0.6-5.4-3.3c0-1.8,2.4-3.8,4.2-5.1c10.2-7.5,22.7-3.3,30.4,9.5c1.7,2.9,1.1,9.3,6.6,7.5
	c4-1.3,9.4-2.9,10.2-8.6c1.7-12.1,10.2-17.9,20.4-22c14.1-5.7,28.2-11.2,44-17.4c-12-3.3-19.6-9.7-20.9-21.1
	c-1.9-18-4.6-19.3-21.2-13.7c-13.5,4.6-25.9,16.4-42.1,8.3c-0.6-0.3-2.5,0.7-2.8,1.5c-5,13-15.6,10.8-25.8,9.4
	c-45-6.2-89.8-13.8-134.3-23.3c-15.1-3.2-30.3-4.9-45-12c-8.9-4.3-23.6-13-33.3,3.7c-3.1,5.4-7.2,4.3-10-0.3
	c1.7-1.4,3.7-2.8-0.1-4.1c-35.2-1.2-70.3-3.2-104.8-10.5c-18.6-3.9-35.9-9.7-45.7-28.5c-3.5-6.8-9.5-12.2-14.4-18.3
	C1984.2,2552.3,1984.2,2551.5,1984.2,2550.7z"/>
<path class="st22" d="M2134,2604.1c35.9-1.8,71.6-0.9,107.6,2.8c30.3,3.1,60.1,8.9,90.2,13c21.8,3,25-1.8,38.7-18.8
	c9-11.1,17.9-24.3,35.5-28.7c79.6-20,156.8-47.7,234.6-73.4c9.4-3.1,17.2-10.3,30.8-12.7c-12.1,10.8-22.1,18.7-29.8,28.9
	c-6.2,8.2-11.3,16.4-10.2,27.6c0.8,8.7-2.7,14.8-12.7,17.7c-30.5,8.9-60.7,18.8-91.4,29.6c15.3,1.7,24.7,10.6,31.9,22.7
	c1.2,1.9,2.9,3.9,4.9,4.9c19.2,9.9,20.5,29.8,26.7,46.8c1,2.8,1.8,6.8-0.5,8.9c-2.9,2.7-5.7-1-8.2-2.2
	c-16.8-8.3-34.4-12.7-53.3-10.5c-13.3,1.5-25,6.8-33.2,17.7c-7.3,9.8-10.3,1.2-11.2-3.2c-2.8-13.4-2.6-27.2,1.8-40.2
	c3.9-11.6,9-22.8,13.6-34c-1.7-2-3.6-1.7-5.5-1.1c-39.5,12.3-78.6,26-119.3,34.2c-3.6,0.7-4.1,2.6-5,5.2
	c-3.2,9.2-9.8,12.5-19.3,10.7c-59.2-11-118.2-22.5-177.5-32.3c-13.5-2.2-24.4-13.1-39-9.9C2134.2,2606.3,2134.1,2605.2,2134,2604.1z
	"/>
<path class="st23" d="M2546.5,2300.4c0.2,4.5,3.4,4.5,6.7,4.6c14.8,0.8,29.6,1.6,44.5,2.4c16,0.8,32.2,3.5,47.9,2
	c32.9-3.2,62.5,11,94,15c8.4,1.1,4.8,8.3,1.7,12.7c-5.8,8.4-14.7,12.9-23.9,16.2c-83.9,30-167.8,60.3-253.8,83.9
	c-46.5,12.8-94.6,14.4-142.8,7.1c-26.6-4-53.6-4.6-80.3-8c-28.2-3.5-56.2-8.5-84.3-12.8c-2.7-0.4-5.5-1.5-8.1-1
	c-21.3,4.1-40.3,1.7-53.6-19.3c14.5-4.3,29.6-10.6,45.3-12.9c10-1.5,18.8-4.6,27.8-8c36.8-13.8,75.3-20.7,113.7-27.2
	c54.3-9.2,107-25.2,160.7-36.7c17.9-3.9,35.6-8.6,53.5-12.9c3-0.7,6.6-0.4,6.4-5.1c1.6,0,3.1,0,4.7,0c1.6,3,3.1,2.1,4.7,0
	c6.3,0,12.5,0,18.8,0c2.4,3,4.7,3.3,7.1,0C2540.3,2300.4,2543.4,2300.4,2546.5,2300.4z"/>
<path class="st23" d="M1984.4,2530.3c4.4,1,8-0.9,10.1-4.4c16.8-28.1,45.1-39.3,73.6-50.1c10.6-4,20.8-10.2,31.8-11.7
	c14-2,28.5,0.9,42.6,3.5c56.6,10.6,112.8,24,171.1,23.4c14.6-0.1,29.2,4.6,43.9,6.1c6.8,0.7,8.7,6,9.8,10c1.3,4.7-4.9,4.2-8.1,5.2
	c-24.5,8.1-48.9,16.4-73.6,23.7c-19.5,5.8-40,5.6-60.1,8.3c-37,5-74.3,8.3-111.6,11.3c-19.2,1.5-38.3-1.2-57.2-3
	c-13.1-1.2-26.3-1-39.5-2.9c-10.9-1.6-22.1-1.9-32.8-5.3C1984.4,2539.6,1984.4,2535,1984.4,2530.3z"/>
<path class="st23" d="M2529.8,2605.2c-14.2,2-28.6,2.9-40.8,12.3c-15.5,12-20.3,32.1-10.5,48.9c2.7,4.6,5.3,7.1-2.3,9.8
	c-29.1,10.2-57.6,22.1-85.6,35.1c-5.5,2.5-11.2,3.5-15.5-0.5c-12.8-12.3-29.3-20.7-38.5-36.8c-3-5.3-5.7-10.3-2-16.3
	c3.4-5.5,7.8-7.5,14.7-6.7c7.4,0.9,13.5-4.8,20.4-7c62-20.4,123.7-41.4,184.5-65c21.4-8.3,43.5-15.1,64.8-23.7
	c6-2.4,9.2,0.9,11.9,4.5c12.7,17.2,33.7,18.4,51,26.5c6,2.8,12.6,4,12.2,11.6c-0.4,8.1-6.4,11.1-14.2,10c-5.7-0.8-10.9,0.9-16,2.7
	c-20,6.8-40.1,13.1-59.7,20.9c-11.3,4.5-19.4,3.9-27.2-6.2C2565.2,2609.9,2547.7,2607.1,2529.8,2605.2z"/>
<path class="st24" d="M915.4,2324.3c3.9,0,7.8,0,11.7,0c2,4.3,6.1,2.4,9.3,3c44.2,8.2,89.9,9.3,130,34.3
	c19.7,12.3,28.6,25.2,25.1,48.7c-3.5,23.5-6.6,47.1-9.8,70.7c-7.3,54.5-14.7,109.2-18.3,164c-1.7,25.8-14.4,37.6-34.8,46.2
	c-5.4,2.3-10.9,4.2-16.5,5.9c-44.3,13.2-88.6,10.5-132.8,0c-41.3-9.8-61.7-29.2-67.3-75.1c-7.5-62-14.9-124-30-184.7
	c-1.6-6.6-1.4-14-6.9-19.2c0-5.5,0-10.9,0-16.4c3.4-1,2.5-4.5,3.8-6.7c7.3-12.6,9.5-29.1,22.9-37.1c19.3-11.6,35.2-29.9,59.9-31.3
	c0.8,0,1.5-1.5,2.3-2.3c4.7,0,9.4,0,14,0C890.5,2327.5,903,2329,915.4,2324.3z"/>
<path class="st25" d="M998.8,2447c-4.6,0-9.3,0-13.9,0c-3-4.3-8.1-3.8-12.3-4.1c-48-3.8-94.9-15.5-142.7-20.3
	c-5.6-0.6-8.5-4.2-9.9-8.2c-1.2-3.7,3.1-5.5,6.2-7c2.4-1.2,5.2-1.5,5.8-4.7c2.8-15.1,14.5-19.2,27.9-20.4c39.2-3.3,78.4-4.3,117.7-4
	c10.5,0.1,21,1.4,27.1,11.6c1.3,2.2,3.5,2.1,5.9,2.2c13.5,0.6,19.2,6,20.3,18.9c0.3,3.9-1.4,8.4,3.2,11.2
	C1026.5,2436.2,1013.9,2443.3,998.8,2447z"/>
<path class="st26" d="M898.1,2448.9c-30.1-3.8-60.4-6.4-88.6-18.6c-17.2-7.4-28.9-19.3-30.6-38.7c-1.6-19.4,6.1-34.5,22.1-45.4
	c17.3-11.8,35.3-21,57.6-21.8c30.3-1,60.7,0.7,90.8-0.6c49.5-2.1,90,15.2,126.7,45.6c5.1,4.2,9.8,8.1,12.2,14.3c0,5.4,0,10.8,0,16.2
	c-8.8,22.6-27.2,33.1-49.7,38.4c-12,2.8-24.2,5.2-36.2,8.2C990.7,2449.6,904.6,2449.8,898.1,2448.9z M914.5,2348.6
	c-11.7,0-23.3,0.1-35,0c-16.8-0.1-32.2,4.8-47,12c-7.6,3.8-12.8,10.3-16.1,17.6c-2.7,6.1,5.4,7.3,7.8,11.3c1.2,1.9,1.3,4.4,2,6.6
	c1.3,4.3,4.1,7.8,8.5,8.7c13.3,2.7,25.4,10.3,39.1,10.7c37.6,1.3,75,7.9,112.8,5.3c15.3-1.1,30.2-3.1,44-9.9
	c15.2-7.4,18.3-18.8,9.7-33.2c-7.3-12.2-20.1-15.1-32.3-18.9C977.7,2349.5,946.1,2349.4,914.5,2348.6z"/>
<path class="st27" d="M2392.3,2316.9c0-6.2,0-12.4,0-18.6c11-10.6,22.2-21.1,37.7-24.9c29.9-7.4,59.8-14.4,89.7-21.5
	c3.6-0.9,7-1.4,11.2-0.4c18.3,4.2,37,6.3,55.7,4c9.9-1.2,18.6,2.3,27.8,3.7c7.3,1.1,12,7.5,12.7,15c1,11.5,1.7,23.1,1.3,34.6
	c-0.5,14.2-8.2,23.7-22.3,27.8c-26.6,7.6-53.1,15.1-79.7,22.8c-5.7,1.7-12.3,1.5-16.8,6.3c-16.4,0-32.8,0-49.3,0
	c-2.5-4.4-7-2.6-10.4-2.6c-18.8-0.3-31.3-13-45.4-22.3C2396.4,2335.3,2397.8,2324.2,2392.3,2316.9z"/>
<path class="st28" d="M2538.8,2249.7c0,3.8,0,7.7,0,11.5c-5.6,12.5-13.5,22.6-26.1,27.6c-2.9,0-5.8,0-8.7,0
	c-20.3-8.6-24.9-25.5-24.6-47c0.8-52.9,0.3-105.9,0.3-158.8c0-8.3,7.1-14.2,16-14.2c14.6,0,28,1.3,32.7,20c1.2,4.8,5.7,8.7,8.7,13
	c-0.2,47.6-0.3,95.2-0.4,142.8C2536.7,2246.7,2537,2248.6,2538.8,2249.7z"/>
<path class="st23" d="M1702.1,2294.2c0.3,1.1,0.3,2.9,1,3.2c26,12.4,34.7,36.5,42.1,61.6c3.4,11.4,1.6,22.6-3,33.1
	c-2.6,5.9-2.3,9.8,2.6,14.3c58.1,53.9,104.1,118.2,153.9,179.2c20.7,25.4,42.1,50.2,62.9,75.5c6.2,7.6,10.4,16,10.9,26.5
	c0.9,20.7-20.1,31-39.3,22.2c-8.6-4-13.2-12.1-18.7-19c-35.9-44.7-73.4-88-106.9-134.6c-20.8-28.8-41.5-57.6-58.7-88.8
	c-1.5-2.7-1.6-9.5-7.2-6.5c-4.3,2.3-8.2,6.7-6.4,12.6c1.7,5.6,4.1,10.9,6.2,16.4c30.6,80.3,56.3,162.1,73,246.5
	c0.9,4.6,1.6,9.2,2.3,13.8c1.7,11-0.7,19.7-11.8,25.3c-5.7,2.9-12.5,5.6-15.8,12.2c-1.6,0-3.1,0-4.7,0
	c-11.6-8.1-19.1-18.7-23.7-32.2c-22.9-66-45.5-132.1-65.8-198.9c-8.7-28.7-17.8-57.3-18.8-87.7c-0.3-8.3-10.3-16.6-18.6-17.3
	c-24.1-2-43.6-12.5-59.2-31.2c-10.3-12.4-14-27.5-20.4-41.5c0-6.3,0-12.5,0-18.8c3.4-3.1,3.3-7.7,4.9-11.7
	c5.6-14.4,15.3-24.3,30.3-28.7c14.2-4.2,22.6,4,22.1,18.6c-0.6,16.7,4.1,32.5,16.5,44.8c5.1,5.1,11.7,6.9,18.4,4.3
	c15.5-6.1,24.3-28.9,17.1-43.7c-2.8-5.6-3.9-12-6.4-17.5c-5.3-11.6,4.7-21.1,2.8-32c3.1,0,6.3,0,9.4,0c0.8,2,1.6,2.2,2.3,0
	C1697.4,2294.2,1699.8,2294.2,1702.1,2294.2z"/>
<path class="st29" d="M1578.1,2357.8c5.9-9.8,8.2-21.9,18-29.3c4-3,8.3-5.5,12.8-8.5c2.5,6.1,0.1,10.4-2.5,13.9
	c-5.4,6.9-5.7,15.1-8.1,22.8c-8.8,29.3,19.6,58.2,43.9,61.4c22,2.8,33.5,14.7,41.8,35.1c25.9,63.4,40.7,130.6,65.7,194.1
	c15.9,40.5,26.1,82.6,41.3,123.2c1.3,3.5,6.1,9,0,12.3c-5.2,2.9-10.8,0.8-15.4-2.6c-5.2-3.9-8.3-9.4-10.4-15.3
	c-31.5-87.1-62.9-174.2-84.7-264.4c-2.2-9.1-3.1-18.5-4.1-27.8c-1.6-14.2-7.6-20.3-21.8-21.5c-33.2-2.8-62.2-28.4-72.9-64.3
	c-0.8-2.8,0.1-6.5-3.5-8.1C1578.1,2371.9,1578.1,2364.9,1578.1,2357.8z"/>
<path class="st30" d="M1950.6,2713.2c-13.4,1.5-22.2-4.6-29.3-13.4c-54-66.8-110-132-156.3-204.7c-1-1.6-2.2-3.1-3.4-4.8
	C1780.9,2493.7,1919.1,2656.5,1950.6,2713.2z"/>
<path class="st30" d="M1683.4,2303.1c15.9,17.4,19.5,37.4,17.9,58.2c-0.7,9.4-8,15.3-20.8,16.6c13.8-14.7,11.2-28.2,3.2-42.7
	C1678.6,2325.9,1677,2315.2,1683.4,2303.1z"/>
<path class="st31" d="M1703.4,2394.1c3.8,0,7.5,0,11.3,0c19.7,9.3,30.1,25.9,34.5,46.5c2.5,11.5-1.4,21.6-10.4,29.2
	c-17.8,15.2-49,4.4-56.3-19.2c-1.1-3.7,0.2-8.5-4-11.1c0-6.1,0-12.1,0-18.2C1683.9,2409.6,1691.3,2399.8,1703.4,2394.1z"/>
<path class="st32" d="M1345.1,356.3c0-15.6,0-31.2,0-46.8c3.8-10.5,5.4-21.7,12.5-31.2c8.5-11.3,11.7-25,13.6-39.1
	c5.2-37.7,7.9-75.7,11.7-113.6c3-29.9,4.8-42.6,38.6-50.9c6.4-1.6,13.7-1.5,19.2-6.2c15.6,0,31.1,0,46.7,0c2.1,3.5,6.1,2.8,9.2,4
	c26.4,10.2,44.4,26.5,43.3,57.4c-0.1,3.5,0.6,7,0.5,10.5c-0.5,43.5,5.5,86,17.9,127.6c2.5,8.2,5.3,15.5,12.2,21.7
	c14.3,12.6,20.4,29,17.9,48.2c-0.9,7.1-2.5,13.2-12,14.6c-5,0.7-10.1,5-13.9,9.5c-24.6,29.1-60.3,37.7-95.2,23
	c-2.5-1-5.2-2.4-7.6-2.3c-15.7,1.2-30.5-1.4-44-9.8c-1,2.1-1.7,3.1-2,4.2c-3.1,10.2-8.6,17.8-20.4,17.1
	c-12.4-0.7-16.8-9.6-18.7-20.4c-1.8-10.5-3.3-21-5.1-32.3c-5.4,5.8-10.1,10.8-14.6,15.9C1351,362,1348,360.1,1345.1,356.3z"/>
<path class="st3" d="M1386.5,323.7c11.8,0,23.5,0,35.3,0c2.7,4.3,7.1,2.4,10.7,2.7c33.2,3.2,66.7-1.2,99.8,1.8
	c49.1,4.5,98.8,0,147.7,9.6c12,2.4,16.6,7,15.6,18.7c-2.2,29-7.3,57.6-12.2,86.3c-1.6,9.3-6.5,12.5-15,12.7
	c-12.9,0.4-25.9,1.3-38.8,1.6c-9.5,0.2-13.8,4.5-12.7,13.9c0.8,7,1.8,13.9,2.4,20.9c4.4,48.9,8.5,97.8,13.1,146.7
	c5.7,60.2,11.7,120.4,17.9,180.6c0.9,9-2.2,13.7-9.5,18.9c-37,26.4-75.6,50.3-114.4,74c-11.3,6.9-23.1,9.3-36,5.1
	c-2.6-0.8-5.3-1.9-7.9-1.8c-21.6,1.5-43.1-1-64.6-2.5c-34-2.5-68.2-3.6-101.8-9.7c-29.3-5.3-43-17.1-32.3-50.4
	c3.6-11.2,5.4-22.8,6.3-34.7c5-67.8,11.2-135.4,15-203.2c2.6-46.4,12.7-92.5,7.2-139.3c-0.5-4.5,1.1-11.5-5.3-11
	c-16.1,1.3-29.9-8.2-45.6-8.2c-9.1,0-14.5-4.3-15-15.3c-1.5-33.7,0.9-67.6-6.2-100.9c-1.4-7.7,1.9-9.9,9.5-9.7
	c36.3,1,72.5-0.7,108.7-2.6C1367.8,327.3,1377.8,329.3,1386.5,323.7z"/>
<path class="st20" d="M1372.5,675.6c-10,0-20.1,0-30.1,0c-7.6-5.3-17-2.7-25.3-5.8c-8.7-3.2-13.9-7.3-11.9-17.6
	c2.6-13.4,4.9-27.6,4.9-40.5c0-18.8,3.1-37.3,2.4-55.9c-0.3-7.2,2.7-10.7,9.9-10.9c35.1-1.1,69.3,2.4,100.5,20.5
	c6.2,3.6,10.3,8.9,13.7,15.2c6.4,12.1,12.8,24.2,17.1,37.2c0,4.6,0,9.2,0,13.9c-4.3,2.5-3.5,7.3-4.8,11.1
	c-5.3,15.9-14.7,27.5-32.1,30.9C1402.1,674.6,1387.1,670.4,1372.5,675.6z"/>
<path class="st6" d="M1699.7,367.6c-6.9,14.7-5,31.1-9,46.4c-1.3,4.9-1.4,10.1-2.5,15.1c-5.8,27.7,1.2,25.7-32.3,28
	c-7.8,0.6-15.7,0.4-23.6,0.2c-10.3-0.3-14.3,4.5-13.3,14.4c2.8,28.8,5.6,57.7,8.3,86.5c6.7,70.2,13.5,140.5,20.2,210.7
	c1.7,17.9,3.5,35.8,5.1,53.6c0.4,4.3,0.6,8.2-4,11.3c-25.8,17.2-51,35.4-77.3,51.8c-25.4,15.9-25.6,15.1-28.2-14.2
	c-7.1-80.5-10.5-161.2-15.9-241.7c-3.2-46.9-7.9-93.7-14.4-140.3c-0.5-3.9-1.2-7.8-2.4-11.5c-1.5-4.6-4.9-7.4-8-1.8
	c-2.7,4.9-6.3,4.9-10.7,5c-46,0.6-92,1.2-138,1.9c-9.5,0.1-18.9-0.5-28.2-2.1c-6.8-1.2-14.6-0.4-13.6-11.3c0.3-3.4-2.8-5.2-6.5-5.1
	c-4.7,0.1-9.4-0.2-14.2-0.3c-1.8-9.6,5.2-12.1,12.1-14.1c18-5.1,36.4-5.6,54.9-4.6c50.6,2.8,101.1,5.3,151.8,3.9
	c7.5-0.2,9.4-1.7,8.8-10c-2.8-37.1-6.2-74.3-3.5-111.7c11,0,22,0,33.1,0c1.7,4,5.4,2.4,8.2,2.6c32.2,1.3,64.5,1.4,96.6,4.2
	c16.3,1.4,35.6-1.5,46.4,16.8C1699.7,356.6,1699.7,362.1,1699.7,367.6z"/>
<path class="st33" d="M480.1,1814.5c18-2.1,35.9-2.8,53.9-0.6c1.7,0.2,3.9,0.4,3.9,2.7c0,2.5-2.4,2.3-4,2.5
	c-13.5,1.2-27-0.5-40.4-1.9C489,1816.8,484.3,1816.7,480.1,1814.5z"/>
</svg>
