<?xml version="1.0" encoding="utf-8"?>
<!-- Generator: Adobe Illustrator 26.0.1, SVG Export Plug-In . SVG Version: 6.00 Build 0)  -->
<svg version="1.1" id="Layer_1" xmlns="http://www.w3.org/2000/svg" xmlns:xlink="http://www.w3.org/1999/xlink" x="0px" y="0px"
	 viewBox="0 0 3145.7 3145.7" style="enable-background:new 0 0 3145.7 3145.7;" xml:space="preserve">
<style type="text/css">
	.st0{fill:#908E8F;}
	.st1{fill:#6B696A;}
	.st2{fill:#787677;}
	.st3{fill:#6C6A6B;}
	.st4{fill:#413022;}
	.st5{fill:#7B6149;}
	.st6{fill:#55564D;}
	.st7{fill:#CACACA;}
	.st8{fill:#5F4538;}
	.st9{fill:#7A6047;}
	.st10{fill:#7A6148;}
	.st11{fill:#423123;}
	.st12{fill:#402F21;}
	.st13{fill:#3F2F21;}
	.st14{fill:#2A6077;}
	.st15{fill:#1D4050;}
	.st16{fill:#B99971;}
	.st17{fill:#271E1F;}
	.st18{fill:#7A6048;}
	.st19{fill:#3F4047;}
	.st20{fill:#B1B1B1;}
	.st21{fill:#644F3A;}
	.st22{fill:#7B797A;}
	.st23{fill:#918F90;}
	.st24{fill:#5B595A;}
	.st25{fill:#5C5A5B;}
	.st26{fill:#F87A03;}
	.st27{fill:#F8EB0A;}
	.st28{fill:#444444;}
	.st29{fill:#ACACAC;}
	.st30{fill:#ADADAD;}
	.st31{fill:#7B6148;}
	.st32{fill:#402F22;}
	.st33{fill:#1F4E64;}
	.st34{fill:#53A7B8;}
	.st35{fill:#1A4E60;}
	.st36{fill:#454545;}
	.st37{fill:#216FA6;}
	.st38{fill:#976E3F;}
	.st39{fill:#956B3C;}
	.st40{fill:#6F6D6E;}
	.st41{fill:#706E6F;}
	.st42{fill:#56574E;}
	.st43{fill:#241B1C;}
	.st44{fill:#404148;}
	.st45{fill:#B0B0B0;}
	.st46{fill:#A88665;}
	.st47{fill:#6E6C6D;}
	.st48{display:none;fill:#212223;}
</style>
<path class="st0" d="M2801.4,2174.4c0,36.9,0,73.9,0,110.7c-2.1,1.8-1.1,4.4-1.3,6.7c-1.6,25.4-2.7,51-9,75.9
	c-1.6,6.1-3,11.7-0.7,17.9c1.6,4.3,0.3,8.4-1.4,12.4c-2.6,6.4-9.1,9.8-12.2,14.9c-5.8,9.5-14.5,12.2-23.6,15.2
	c-48.2,15.8-97.3,27.7-146.4,40.4c-65.8,16.9-132.4,30-197.9,47.7c-97.2,26.4-194.8,51.3-292.9,74.6
	c-49.9,11.8-100.5,21.2-149.9,34.7c-1.8,0.4-3.8,1-5.5,0.6c-19.6-5.7-39.9-4.8-59.8-5.4c-71.2-1.7-142.2-5.8-213.4-7.2
	c-86-1.7-171.2-12.8-256.3-23.9c-61-8-121.8-17.3-182.6-26c-77.3-10.9-155-17.9-232.5-28.4c-55.3-7.5-109.4-19.5-162-38.4
	c-20.7-7.4-33.4-21.6-38.2-42.9c-1.4-6.4-2.7-12.9-3.6-19.5c-7.1-53.6-9.7-107.4-12.2-161.3c-3.7-76-6.7-152.2-10.1-228.2
	c-3.1-69.5-7.5-138.8-12.1-208.2c-3.8-57.8-7.8-115.7-5.3-173.6c0.6-12.1,1-24.2,4.3-35.8c3.3-11.5,13.8-18.3,24.7-16.8
	c11.4,1.6,19,10.7,19,22.7c0.1,30.7,1.1,61.5,2.7,92.2c0.9,17.1,1.8,34.2,2.8,51.3c6.8-9.4,13.5-18.2,21.7-25.7
	c1.7-1.6,2-3.7,2.6-5.7c12.4-49.9,43.5-82.8,91.5-100c27-9.7,55.1-13.1,83.6-15.3c3.1-0.3,6-0.4,8.4-2.8c9.8-9.1,21.2-15.9,33.4-21
	c1.4-0.6,4.5-0.9,3.3-3.4c-1.3-2.7-3.4-0.4-4.8,0.1c-13.8,6.1-28.3,9.4-43.5,9.1c-5.4-0.1-10.1,0.9-15.1,2.8
	c-66.5,27.1-141-12.2-155.5-82.3c-0.9-4.3-2.8-7.1-6.1-9.8c-17.8-14.4-30.1-32.5-37.5-54.1c-1.7-5.1-3-10.2-4.8-16.9
	c-1.1,1.8-1.6,2.7-2.1,3.4c-13.9,19.2-27.9,38.2-41.8,57.4c-1.3,1.7-2.1,3.6-2.8,5.7c-4.3,12.9-19.2,21-31,17.1
	c-12.6-4.3-18.3-17.9-13.2-32.3c2.7-7.4,6.8-14.1,11.1-20.6c20.7-31.3,40.2-63.5,60-95.5c11.2-18,21.5-36.8,36.7-52
	c1.8-1.8,2.8-4.7,6.8-3.8c11.7,2.7,20.6-2.3,28.4-10.4c13.4-13.9,25.3-28.8,36.2-44.5c71-100.5,131.4-207,183-318.9
	c2.6-5.4,5.5-10.4,9-15.2c25.2-34,50.9-67.6,75-102.5c25.7-36.9,50.4-74.3,70.5-114.7c1.3-2.7,2.8-5,1.4-8.5
	c-5.1-12.9-1.1-23.2,11.1-29.6c2.7-1.4,5.8-2.1,6.8-5.7c1.4-5.4,5-6.8,10.2-6.3c2.6,0.3,5.3-0.1,7.8,0.1c4,0.3,5.4-1.1,5.1-5.3
	c-0.6-9-1.1-17.9-0.9-27c0.4-13.8,2-27.4,8.1-40.1c6.3-13.1,18.6-17.1,31.3-9.9c2.7,1.6,4.5,1.1,7.1,0c16.5-6.7,32.7-2.3,43.8,11.8
	c4.5,5.8,7.7,12.5,10.2,19.3c5.4,14.4,9.7,29.1,13.1,44.2c1.4,5.8,3.7,8,9.9,8c50.4-0.3,100.7-0.3,151.2-0.4c7.5,0,15.3,0.6,22.6-1
	c20.3-4.5,40.8-5.3,61.4-4.4c43.8,1.8,87.4,3.7,131.2,2.8c75.2-1.6,150.5-1.7,225.7-2.1c14.4-0.1,28.6-1.3,43.2,0.9
	c13.2,2,27.3-1,40.8-3.8c13.2-2.8,26.9-3.6,40.2-1.1c9.4,1.7,18.8,1.6,28.3,1.4c9.7-0.1,19.5,0,29.1-0.6c5.7-0.3,9.1,1.8,12.5,6
	c41.6,50.9,83.8,101.3,127,150.9c142.8,163.8,290.5,323.7,429.6,490.8c15.5,18.6,29.7,38.8,49.2,53.9c4.4,3.4,5.5,8.2,1.8,13.1
	c-1.1,1.4-1.1,2.7-0.6,4.5c4.3,12.2,4.7,25.2,4.5,37.9c-0.9,59.8,3.1,119.6,3.3,179.5c0.3,139.5-1.4,279.2,1.3,418.8
	c0.9,49,2,97.9,3.1,146.9C2800.1,2171.4,2799.7,2173.1,2801.4,2174.4z M2024,2554.8c0.1,10.7,7.7,19,18.3,21.3
	c7.7,1.7,14.8,0,22.3-1.1c40.9-5.8,82-11.8,122.2-21.3c126.9-29.6,251.9-66.4,378-99c41.4-10.8,81.8-25.3,124.8-29.3
	c10.5-1,18.3-8.4,25.3-15.9c4.1-4.5,3.1-9.4-1-13.2c-10.1-9.7-21.3-16.3-36.2-13.8c-12.5,2.1-25.3,4.4-37.9,0.4
	c-5-1.6-9.2-0.3-13.5,2.3c-7.2,4.3-14.9,7-23.2,8.7c-11.7,2.3-23.2,4.7-34.8,7.1c-81.1,16.5-161.7,35.4-242.3,54.1
	c-64.5,14.9-129.7,26.7-194.1,41.8c-29.4,7-59,13.9-88,22.2c-5.4,1.6-9.2,3.3-9.8,10.1c-0.3,4.1-2.3,8.5-5.4,12.1
	C2025.4,2544.8,2024.3,2549.6,2024,2554.8z M937.8,2467.5c-0.3-1.6-0.3-2.1-0.4-2.4c-12.2-30.1-11.1-59.5,4-88.4
	c1.4-2.7,1.4-5.3,1-8.1c-8.1-46.3-18.6-92.2-23.4-139.1c-0.1-2-0.6-3.8-2.4-4.8c-14.6-8.8-23-22.9-32.5-36.7
	c-13.9-20.2-21.7-42.1-24.9-65.6c-4.7-35.7-8.4-71.3-12.4-107.1c-0.6-5.1-2.3-9.2-5.7-13.1c-1.4,1.4-0.7,3-0.7,4.3
	c3.7,84.5,7.7,169.1,11.2,253.8c2.4,55.6,5.5,111,11.5,166.3c1.6,14.5,6.3,23,21.5,26.6C902.3,2456.8,919.3,2463.5,937.8,2467.5z"/>
<path class="st1" d="M1969.9,2624.7c-1,0-1.8,0-2.8,0c-1.3-66.1-2.7-132.2-3.8-198.2c-0.4-28.3-0.4-56.6-0.6-85c0-34,0-67.8,0-101.7
	c-0.1-2.8-0.3-5.7-0.3-8.5c0.4-78,2-155.9,4.1-233.9c2.6-95.9,4.7-191.8,10.7-287.6c1.7-27.9,3.1-55.7,9.8-83
	c4.4-17.8,13.6-32.1,30.8-40.1c3.4-1.6,3.4-3.8,3.6-6.8c1-14.1,0.9-28.4,3.7-42.3c4.3-21.5,15.9-36.9,37.8-42.2
	c21.2-5.1,38.5,1.8,51.9,19.2c0.4,0.6,1.1,0.7,2,1.3c7-12.8,16.9-22.3,30.8-26.7c4.4-1.4,7.2-3.6,9.9-7.1
	c12.8-16.9,32.8-17.9,47.6-2.7c5,5.1,8.7,11.2,11.9,17.5c1.6,3,3,6.1,4.7,9.5c19.5-21.6,41.8-28.4,68.5-16.3
	c3.3,1.4,3.6-0.4,4.1-2.6c2-7.5,4.4-14.9,8.1-21.9c11.7-21.6,33.3-23,47.6-3.3c2.7,3.7,5,7.7,7.5,11.9c8.7-12.5,19.8-20.5,34.1-23.3
	c4.1-0.9,4.4-3.4,5-6.5c2.6-13.2,4.8-26.6,11.5-38.5c11.1-19.6,32.4-22.9,48.7-7.4c6.4,6.1,11.1,13.5,14.8,21.5
	c1.4,3.1,2.4,4.5,6.1,2.1c4.3-2.8,8.8-5.1,12.8-8.7c19-16.8,42.3-11.8,51.6,11.7c4.5,11.5,11.9,21.3,15.1,33.4
	c22.7-14.1,41.8-8.7,54,15.1c1.8,3.6,3.6,7.2,5,10.9c1.4,3.6,6.4,6,7.4,4.7c5-6.5,14.1-9.7,15.3-19.5c2-14.5,4.4-29,8.5-43.1
	c3.8-13.5,7.4-27.4,16.9-38.5c10.8-12.6,26.7-13.2,38.4-1.3c5,5.1,8.7,11.2,11.5,17.8c1.7,3.7,3.1,7.4,5.3,12.8
	c2-12.6,1.4-24,6.5-33.7c4.3-8.2,6.3-16.5,7-25.4c0.9-9.8,5.8-17.3,15.3-21.2c2.4-1,4.8-1.8,6.8,1.1c8.4,12.2,19.6,21.6,30.6,31.4
	c4.1,3.7,5.7,8.2,1.8,13.1c-1.4,1.8-1.3,3.1-0.4,5.1c2.4,6,3,12.4,3.3,18.8c2.1,49.3,2.1,98.8,3.4,148.1
	c1.6,60.7,0.7,121.5,0.9,182.2c0.3,111.1-0.6,222.1,2.4,333.2c2,72.9,4.5,145.9,2,219c-1,26.1-2.6,52.4-8.8,78
	c-1.6,6.3-3,12.1-0.7,18.5c1.4,4,0.1,7.8-1.4,11.7c-2.6,6.3-9,9.9-12.1,14.8c-5.8,9.1-13.8,12.2-22.7,15.2
	c-64.1,20.7-129.6,36-194.7,52.4c-16.5,4.3-16.3,4-19.5-12.9c-0.9-4.7,0.4-6,4.7-7.1c20.5-5.4,40.9-11.2,61.4-16.9
	c24.6-7,49-14.4,74.5-16.3c12.9-1,23-6.3,32-14.8c6.7-6.4,6.5-10.9-0.1-17.3c-11.7-11.2-25.3-14.9-41.1-11.5
	c-10.2,2.3-20.5,2.7-30.8-0.3c-5-1.4-9.7-0.7-14.2,2.1c-9.1,5.7-19.5,8.1-30,10.2c-18.8,3.7-37.5,7.4-56.1,11.5
	c-5.7,1.3-7.7,0.4-8.1-5.8c-3.3-42.2-6.8-84.3-10.2-126.5c-1.7-21-3.1-42.2-4.7-63.5c-3,1.3-2.3,3.7-2.4,5.7
	c-0.4,7.5-0.7,15.1-0.9,22.6c-1.6,56.3-3.3,112.4-4.7,168.7c-0.1,3.4-0.4,5.5-4.5,6.4c-34.1,7.5-68.2,15.2-102.2,23
	c-3.8,0.9-5.1-0.3-5.3-4c-0.3-4.7-0.9-9.4-1.4-14.1c-1.3-11.5-2.7-23-4.1-36.1c-5.7,8.7-11.4,15.1-19.2,18.8c-4.3,2-5.5,5-6.1,9.2
	c-1.1,10.1-2.8,20-4,30.1c-0.4,4-2,5.5-5.8,6.4c-12.6,2.6-25.4,5.4-37.9,8.7c-4.4,1.1-6.1,0.7-6.7-4.3c-1.4-12.6-3.4-25.3-5.4-37.8
	c-0.9-5.4-0.4-11.1-3.1-18c-2.8,21.7-5.5,41.5-7.8,61.2c-0.6,4.3-3.1,4.7-6.1,5.3c-3.7,0.9-3.4-2.3-4-4.4
	c-3.3-12.4-6.7-24.6-9.9-36.9c-2.1-8.1-4.4-16.1-6.7-24.2c-4,15.2-11.1,28.7-25.3,34.4c-12.5,5-16.8,12.2-15.9,24.4
	c0,0.1-0.6,0.4-1,0.9c-1.1-5.1-1.8-10.4-3.4-15.2c-2.1-6.1-8.1-2.8-12.2-4c-3.7-1-2.8,3-3.1,5c-1.6,10.8-3.6,21.5-4.1,32.3
	c-0.4,7.1-5,7-9.5,7.7c-5.5,0.9-4.3-4.1-4.8-6.7c-2.6-10.9-4.7-22-7.2-33.8c-18.9,18.3-39.5,21.5-62.4,9.7c-0.1,1.7-0.3,2.8-0.3,4.1
	c-0.4,12.5,0.6,25-2.8,37.4c-1.4,5.3-4.3,8.1-9.9,9.4c-20.9,5-41.6,10.5-62.4,15.8c-5,1.3-9.1,3-9.1,9.7c0,3.7-2.4,7.7-4.7,10.8
	c-7,10.4-7.7,19.3-1.8,27.4c5.3,7.4,19.5,12.6,28.7,9.7c6.8-2.1,14.1-1.8,20.9-3.6c2.8-0.7,4,0.4,3.4,3.3c-1,5.8-2.3,11.7-2.8,17.5
	c-0.4,4-2.1,5.4-6,6.3c-20.6,4.4-41.1,8.8-61.4,13.8C1996.7,2616.9,1982.8,2619.1,1969.9,2624.7z"/>
<path class="st2" d="M982.4,1345.8c0-4.7,0-9.4,0-14.2c0.4-0.4,1.3-0.9,1.4-1.4c3.1-19.2,14.1-34.2,25.3-49.2
	c18.3-24.3,37.2-48.2,54.6-73.2c19.5-28.1,39.5-56.3,52.9-87.8c38.4-90.2,79.6-179.3,118.7-269.3c6.8-15.8,13.8-31.5,22.3-46.5
	c13.5-23.4,37.7-34.5,61.5-27.4c9.2,2.7,17.5,5.8,27.3,2.4c6.5-2.3,13.5,0.7,19.3,5c4.7,3.3,8.7,7.2,12.2,11.7
	c15.1,18.5,26.7,38.8,36.5,60.4c32.5,72.2,62.1,145.8,96.3,217.3c28.6,59.4,59.1,117.5,100.9,169.1c15.3,18.9,28.4,39.4,37.2,62.4
	c1.1,3.1,3.7,4.8,6.1,6.5c13.1,9,25.7,18.3,37.7,28.7c6.7,5.7,12.5,12.2,16.8,19.9c17.3,31,1.6,67.8-33,76.7
	c-2.8,0.7-6.1,0.1-8.5,2.4c-6.1,0-12.2,0-18.5,0c-4.7-3-10.2-2.6-15.5-3.6c-50.2-9.1-99.9-20.2-149.6-31
	c-41.6-9.1-83.7-17.2-123.8-32.1c-3.4-1.3-4.5,0.3-6.1,2.6c-10.7,15.2-25.6,22.5-43.9,23.3c-12.1,0.6-24,1.1-36.1,1.8
	c-60.1,3.7-120.1,7.7-180.3,7c-20.3-0.3-40.6-0.4-60.4-6.4c-25.9-7.8-43.8-23.4-49.7-50.9C983.8,1348.6,984.3,1346.6,982.4,1345.8z"
	/>
<path class="st3" d="M1728,2004.7c-1.4,0-2.8,0-4.3,0c-3.7-3.3-8.4-2.1-12.6-2.6c-30-2.8-60-5.3-89.9-8.1
	c-54.9-5.1-109.3-13.5-164.3-17.2c-4.1-0.3-5.1-1.7-4.8-5.5c0.7-10.8-1-21.3-3.6-31.8c-2.3-9.4-4.8-18.6-7.5-28.7
	c8.8,4.5,16.8,7.4,26.1,6.3c6-0.7,13.4,1.4,16.6,6.3c8.4,12.5,19.8,11.4,32.5,10.5c22.6-1.4,45.2,0.7,67.6,2.3
	c5,0.3,9.2,0.6,12.8-4.5c3.7-5.3,10.2-5.1,12.8,0.3c3.1,6.7,8.2,7.1,14.2,7.4c5.8,0.3,11.8,1,17.6,1.7c2.4,0.3,3.7,0.1,4.7-2.6
	c2.4-6.5,7.5-7.5,13.8-5.7c7.7,2.3,14.2,6.5,20.5,11.4c4-8.7,4.5-8.1,12.5-15.9c4.3-4.3,10.1-7.1,13.1-13.2c5-10.1,13.9-10.2,20-0.7
	c1.4,2.1,2.4,4.5,3.6,6.8C1742.9,1949.4,1740.2,1977.1,1728,2004.7z"/>
<path class="st4" d="M1649,1953.2c-27.3-3-54.6-6.3-81.8-8.8c-42.8-3.8-85.5-7.1-128.3-10.7c-12.6-1-25.2-2.6-37.8-3.7
	c-3.6-0.3-5.3-1.7-6.4-5c-3-9-6.7-17.6-6.5-27.1c31.3-3.8,62.2,1.6,93.2,4.7c47,4.8,94.1,10.4,141,16.1c8.8,1.1,15.5-0.3,22.7-5.3
	c6.7-4.5,14.2-10.1,23-3.1c0.9,0.7,1.6,0.6,2.6,0c13.5-8.5,30.7-7.2,44.5-15.5c8-4.7,17.5-2.6,26.1-4.1c3.3-0.6,2.7,1.7,2.4,3.4
	c-1.7,9.2-3.7,18.5-5.4,27.9c-0.6,3.1-3,4-5.3,5c-24.4,11.8-49.5,22-77,24.7C1653.5,1952.1,1651.3,1952.8,1649,1953.2z"/>
<path class="st5" d="M1665.3,1924.7c-1,0-1.8,0-2.8,0c-4.8-4.5-10.8-2.7-16.5-3.1c-39.5-2.7-79.1-5-118.7-8.2
	c-39.1-3.1-78.2-4.8-116.9-11.1c-6.7-1.1-13.8-0.7-20.9-3.4c3.1-4.7,7-6.3,11.8-6.1c2.6,0,5.4,0.4,7.7-0.3
	c20.3-6.7,41.1-12.4,59.5-23.3c3.8-2.3,7.5-3.1,11.9-3c41.9,1.8,83.8,3.1,125.8,8.1c43.3,5.1,86.8,8.4,130.4,10.7
	c4.3,0.3,9-0.3,12.1,3.7c0,0.9,0,1.8,0,2.7c-2.3,0.6-4.3,2-4.3,4c-0.1,6.3-4.5,7.1-9.5,8c-21.7,3.3-42.5,9.8-63,17.2
	C1669.7,1921.4,1666.8,1921.8,1665.3,1924.7z"/>
<path class="st6" d="M1573.7,1904.1c-3.7-3.1-8.7-4.1-12.5-7.2c-9.9-8.4-13.9-19.3-15.2-31.8c-3-30.1,15.6-65.4,42.3-79.9
	c24.7-13.4,53.6-9.9,75,9.2c20.9,18.8,31.1,43.3,36.8,69.9c3.1,14.8-3.7,22.9-18.9,26.3c-2.6,0.6-4.8,1.8-7.4,2.3
	c-7.8,1.3-16.1-3.1-17.9-11.2c-3.3-13.4-10.7-24.7-16.9-36.5c-2.7-5.1-5.7-10.2-5.7-16.3c0-2.7-1.8-3.6-3.7-4.4
	c-7.7-3.6-17.1-1.3-24.2,6.1c-9.1,9.4-12.5,21.2-12.8,33.8c-0.1,8.8-1.6,17.6-0.9,26.4c0.6,7.5-5.1,10.7-10.9,13.4
	C1578.4,1904.1,1576.1,1904.1,1573.7,1904.1z"/>
<path class="st7" d="M1454.2,1841.1c3.6-7,6.8-14.1,10.5-21c6.7-12.4,15.8-14.5,27.9-7.2c27.9,16.8,28.7,49.2,17.8,66.8
	c-10.1,16.2-34.5,16.2-46,1c-5.5-7.2-6.4-16.2-9.9-24.2C1454.2,1851.5,1454.2,1846.2,1454.2,1841.1z"/>
<path class="st8" d="M2370.9,1889.2c4.3,0,8.4,0,12.6,0c28.8,7.2,35.7,29,36.4,55.1c0.6,20.7-0.1,41.4-0.9,62.1
	c-1.8,60.7-6.8,121.2-10.9,181.7c-3.7,54.6-4.1,109,8,162.8c3.4,15.2,5,30.8,11.1,45.5c0,2.8,0,5.7,0,8.5c-0.4,0.3-1,0.4-1.1,0.7
	c-4,15.9-15.3,23.2-30.1,27.1c-27.9,7.4-54.4,18.6-80.4,31c-14.9,7.1-30,14.4-46.3,18c-24.9,5.7-46.3-6.4-53.9-30.8
	c-1.6-5.1-2.7-10.5-3.3-15.9c-3.6-40.4-1.7-80.9-0.6-121.4c0.4-14.6,2.8-28.8,16.9-37.4c2.3-1.4,0.7-2.8,0-4.1
	c-3.8-6.5-4.7-13.6-5.1-21c-1.6-28.7-2-57.4-1.1-86.1c1.7-54.1,3.8-108.1,2.7-162.3c-0.3-16.2-0.9-32.5-0.1-48.7
	c0.9-19,10.9-32.1,28.8-38.5c4.4-1.6,9-2.7,13.5-3.6c22-4.3,44.2-8.2,66.2-12.8C2345.9,1896.4,2358.8,1894.6,2370.9,1889.2z"/>
<path class="st9" d="M1921.4,2634.5c-17.8-6.4-36.1-10.9-54.9-12.8c-2.8-0.3-5.1,0.7-7.5,1.6c-9.9,3.4-18.9,1.7-25.4-6.8
	c-3-3.8-6.3-5.3-10.8-4.8c-0.4,0-1,0-1.4,0c-16.6-1.1-17.8-2.3-17.8-18.6c-0.1-213.7,0-427.3-0.4-641c-0.1-84.4-0.7-169-2.8-253.4
	c-0.7-29.3-2.4-58.5-4-88c-0.3-4.5,0.4-6.7,5.7-7c7-0.4,13.4-3.3,18.8-7.7c6.1-4.8,9-11.5,6.3-18.9c-1.7-5.1,0.6-7,4.1-9
	c7.2-4,17.5-2,20.7,6.1c5.4,13.8,13.9,26.1,17.9,40.4c5.3,18.8,7.8,37.9,9.2,58.5c4.5-6.4,8.5-12.9,17.1-8.4
	c7.1,3.7,5.8,11.8,8.7,19c0.6-2.1,0.9-3.3,1.1-4.3c1.7-5.1,3.6-10.4,10.1-10.2c6.4,0,8.7,5.1,10.1,10.2c1.6,5.4,2.6,11.1,4,16.5
	c0.4,1.6-0.4,4.4,2.8,3.6c7.4-1.8,9.7,3.3,11.2,8.7c2.8,10.1,3.1,20.6,4.1,30.8c4.4,42.3,0.4,84.5-0.6,126.9
	c-0.9,33.4-1.8,66.6-2.3,100c-2.7,217.4-1.4,435-1.3,652.4c0,7.7-2.1,11.1-9.5,12.1c-3.6,0.6-7.5,1.1-10.4,3.8
	C1923.2,2634.5,1922.3,2634.5,1921.4,2634.5z"/>
<path class="st9" d="M967.3,1388.7c-6.1-3.6-12.8-5.1-15.6-11.8c3.8-1,6.7,0.3,9.7,1.8c6.3,3.4,12.6,5.5,20.2,5
	c42.9-3.7,86-3.3,129-0.7c37.1,2.1,74.2,4.4,111.1,6.7c8,0.4,16.1,1,25.3,1.6c-4.7-3.3-8.1-5.8-11.8-8.1c-2-1.3-4.3-1.6-6.7-0.7
	c-8.7,2.6-12.6-1.1-12.1-10.2c1.3-21.3,1.1-42.5-1.7-63.7c-6.5-48.9-28.1-90.7-58.4-128.7c-15.1-18.9-30.1-37.7-49-53.7
	c8-5,15.9-2.6,24.4-1.7c-3.4-11.1-3.6-21.3,2.8-30.8c6.5-9.7,16.1-13.5,27.6-13.9c-0.9-2.6-1.6-4.8-2.1-7.1
	c-3.6-12.2,1-24.6,11.2-31c10.2-6.4,22.5-5,32,3.7c3.7,3.3,7,7.1,10.5,10.7c30.8,32.1,59.8,65.8,80.1,106.4c0-2.1,0-4.4,0-6.5
	c-0.6-75-2-150.1-1.1-225.1c0.6-47.7,1-95.5,5.3-143.2c1-10.8,2.8-21.5,2.8-32.4c0-12.6,10.8-22.7,23.6-22.7c5.1,0,7-1.7,8.1-6.3
	c1.1-3.8,3-7.4,5.1-10.9c3.7-6.3,9.1-10.2,16.9-9.7c7.7,0.7,12.4,5.4,14.9,12.4c4.4,11.4,5.4,23.4,6.1,35.5
	c0.7,12.1,0.4,12.8,11.8,14.5c7.8,1.1,10.9,5.7,13.1,12.1c4.8,14.9,6.1,30.6,8.2,46c5.4,39.6,6.5,79.6,7.5,119.6
	c1.3,57,2.8,114,4.3,170.9c0.6,20.3,1.3,40.6,1.8,61.2c3.3-1.7,3.4-4.5,4.5-6.7c18.5-33.5,35-68.3,63-95.5
	c5.8-5.7,11.9-10.8,18.5-15.5c9.9-7.2,19.6-7.4,29.3,0.3c2.6,2,4.4,1.8,7,0.7c16.2-7.7,31.8-4.1,47.2,3c5.1,2.4,10.2,5.4,10.2,12.2
	c0,2.4,2.3,2.8,3.7,3.8c11.7,9,15.6,21,11.4,35.2c-0.7,2.6-1.1,4.8-0.4,7.5c4.4,14.9-0.3,26.4-13.9,35c-12.5,7.7-24.7,15.8-34.4,27
	c-2.1,2.6-4,4-0.1,7c3.8,3,2.4,7.1,0,10.8c-7,10.1-17.3,15.9-27,22.7c-3.3,2.3-5.7,4.5-7.7,8c-21.5,37.2-33.4,78-43.6,119.5
	c-2,8.2-3.8,16.6-5.8,24.9c-0.3,1.1-0.7,2.4-0.3,3.4c3.4,7.1,1.1,12.6-4.4,18.8c27.6,0,55.1,0,82.7,0c54.1-0.1,108.4-0.3,162.6-0.4
	c6.4,0,12.8,0.4,18.8,2.8c12.4,5,20.2,16.3,20.3,29c0,12.9-7.5,24-19.9,29.3c-4.4,1.8-8.2,9.1-7.2,13.9c0.6,2.8,2.8,2,4.4,2.1
	c7.5,0.7,15.1,0.9,22.6,2c20.3,2.8,31.7,16.8,30.4,37.4c-0.1,2.3,0.4,4.7,0.9,7c3.3,19.8-10.2,35.4-30.1,35.5
	c-64.7,0.7-129.2-2-193.5-7.8c-50.3-4.5-100.7-2-151.1-4c-34.2-1.3-68.5-2.6-102.3-9.5c-2.3-0.4-4.5-1.1-6.8-2
	c-4.8-1.8-7.7-4.7-4.7-10.7c-20-1.6-39.8-2.6-59.4-4.5c-61.4-6-122.8-13.2-184-20.6c-43.5-5.3-86.8-10.8-130.4-13.8
	c-6-0.4-11.7-1.6-16.9-4.8c-11.4-7-11.9-21.3-0.7-28.6c2.7-1.8,4.4-3.7,5.4-6.8c2.1-6.4,6.8-10.7,12.9-13.4c2.8-1.3,4.3-2.4,4.4-6
	c0.1-6.1,5.1-9.1,10.1-11.7c1.3-0.7,3.7-0.3,3.1-3.6c-2.8-14.5-0.4-18,14.2-21.3C965.5,1389.3,965.9,1389.1,967.3,1388.7z"/>
<path class="st10" d="M2122.2,1876.8c15.1,17.1,18.5,48,8.4,69.2c-1.8,3.7-3.6,4.5-6.8,2.1c-3.6-2.6-7.2-5.1-10.8-7.8
	c-1.6,5.3,3.1,13.1,8.5,14.2c13.4,2.6,16.3,5.4,18.6,18.3c3.4,19.6,5.4,39.4,7.2,59.1c3.1,35.7,3.7,71.3,4.4,107
	c1.4,75.7,2.1,151.5,2.1,227.1c0,45.9-1.6,91.8-0.9,137.7c0.1,13.1-4.5,25.2-10.2,36.5c-4.5,9.1-12.5,10.7-18.8,2.8
	c-9.8-12.5-20.6-24.4-28.4-38.4c-4.3-7.7-4.5-16.3-4.5-24.9c-0.9-87.1,1.6-174.1,2.6-261.2c0.7-54.9,4.3-109.7,3.7-164.6
	c-0.3-22.5-2.8-44.9-1.3-67.4c0.3-3.1-1.3-4.1-3.8-4.7c-10.1-2.7-20-5.7-30.6-6.3c-4.4-0.3-5.4-1.6-5.7-5.7
	c-1.7-30.4-3.7-60.8-5.8-91.2c-0.6-7.7-2.7-15.2,3-22.3c3.3-4.1,7.4-6.5,11.7-8.8c15.8-8.5,33.1-10.4,50.4-13.1
	c40.2-6.4,79.9-15.5,119.6-23.2c47-9.1,94.6-15.9,141.8-24.4c32.8-5.8,65.8-11.2,97.1-23.3c2.6-1,4.4-0.4,6.7,0.4
	c23.6,8.7,47.5,15.9,72,20.7c4.4,0.9,7.2,2.3,5.1,7.5c-0.4,1.1-0.4,3,0.1,4.1c3.6,7.8-1.4,10.7-7.4,12.9c-2.7,1-5.3,2-8,2.8
	c-4.5,1.6-10.1,1.3-10.1,8.8c0,3.4-4.8,4.7-8.2,5.8c-18.3,6.4-37.4,9.9-56.6,13.4c-37.7,6.7-74.7,16.6-112.3,24
	c-20.6,4.1-41.6,6.4-62.5,8.1c-4.5,0.4-9.5,0.9-11.2-4.8c-1.6-5.1,2.6-7.7,6.1-9.9c11.4-7.4,24-12.1,36.7-16.8
	c3.4-1.3,7.2-2,11.7-6.3c-14.2,2.7-26.7,2.7-38.9,5.5c-52.4,12.1-104.7,25.4-158,34.1C2133.4,1874.9,2128,1875.8,2122.2,1876.8z
	 M2336.5,1834.3l-0.3,0.3h0.4L2336.5,1834.3z"/>
<path class="st10" d="M2633.3,1586.3c1.3-3.3,2.1-6.3,3.4-9c3-5.7,7.5-6.8,13.6-5c8.4,2.6,16.2,5.3,19.3,14.5c0.4,1.3,1.7,1.3,3,0.9
	c6.3-1.7,9.1,2.3,11.1,7.2c4.4,10.8,5.8,22.5,7.1,34c6.3,59.8,6,120.1,5.3,180c-1,87.5,2.8,175.1,3.6,262.6
	c0.3,44.9,2.1,89.8,5.1,134.7c0.9,12.1,2.4,24,2.7,36.1c0.3,10.1-0.6,20.3-1.4,30.4c-3.1,38.4-0.3,76.6-0.7,115
	c-0.1,6.5-0.6,8.7-8.2,7.4c-20.2-3.1-40.6-2.6-61-1.3c-4.3,0.3-5.5-1-6.8-4.7c-7.7-21.5-5.4-43.6-4.7-65.4c1.6-47,4.4-94.1,4-141.1
	c-0.7-73.3-1.4-146.6-2.3-220c-0.4-40.5-3.3-80.9-4.8-121.2c-2.6-64.9-4.7-130-2.3-195.1c0.6-17.1,0.4-34.1,1.7-51
	c0.1-1.7,0-3.4,0.4-5c0.7-3.4,0.3-7.5,4.4-9C2630.2,1579.5,2631,1584.1,2633.3,1586.3z"/>
<path class="st10" d="M2424.9,1903.4c1.6-4.7,2.8-9.5,4.5-14.1c2.3-6.4,6.3-11.2,13.6-11.7c7.4-0.4,11.9,3.8,15.2,9.7
	c5.3,9.4,8,19.6,10.1,30.1c5,24,13.6,47.2,18.2,71.3c7.2,38.7,7.4,77.6,6.8,116.5c-0.6,36.7-4.1,73.2-7.8,109.6
	c-2.3,22.2,0.7,44.3,1.6,66.6c1.6,38.5,5.3,76.9,4.7,115.5c-0.1,8.2-1,16.5-3.7,24.4c-3.6,10.5-10.1,18.2-21.6,20.2
	c-2,0.4-3.4,1.3-4.5,2.8c-1,1.3-2,2.7-3.4,3.6c-10.1,6-19.8,12.5-29,20c-11.9,9.8-29.8,1.8-35.1-13.8c-2.6-7.5-2.8-15.3-2.8-23.2
	c0-43.5-1.1-87.1,0.1-130.6c3.6-112.3,2.3-224.7,3.1-336.9c0.1-15.8,0.6-31.7,3-47.3C2400.8,1896.7,2408.2,1893.3,2424.9,1903.4z"/>
<path class="st11" d="M968.2,1368.4c3.6-6.5,9.1-8.4,16.2-8.7c37.2-1.4,74.2,2.1,111.3,4c38.1,1.8,76,4.4,114.1,6.4
	c4.1,0.3,7.2,1.1,9.4,4.8c2.3,3.8,6.1,5,10.4,4.8c16.1-0.3,32.1,1.8,48,3.8c3.7,0.4,5-0.1,4.8-4.1c-0.4-49.2,1.1-98.5-2.4-147.5
	c-1.3-17.5-8.4-34.4-14.4-51c-10.5-29.1-27.6-54-49.7-75.6c-10.5-10.2-20.6-20.9-30.7-31.5c-3.6-3.7-6.7-8-9.4-12.4
	c-2.8-4.5-3-9.5-0.1-14.1c2.8-4.7,7.4-6.4,12.8-6.1c7.1,0.4,13.2,3.1,19,7c1.7,1.1,3.6,2.3,5.1,3.8c30.4,28.6,59.7,58,76.9,97.1
	c3.6,8,4.7,15.9,4.5,24.7c-0.3,10.8-0.4,21.6-0.1,32.3c1,57.6-0.7,115-0.6,172.4c0,6.3,1.7,7.8,7.8,8.2c28.1,2,56.3,2.4,84.3,4.1
	c5.1,0.3,5.5-1.7,6-6c2.1-20.9-0.1-41.6-0.1-62.4c-0.1-57.3,0.9-114.5,0-171.8c-1.1-72.2-2-144.2-3.3-216.4
	c-0.4-24.9-2.7-49.6-1.8-74.5c0.1-5.8,0.7-11.7,4-16.8c1.4,0,2.8,0,4.3,0c1.1,2.7,2.4,5.4,3.1,8.2c1,3.8,1.3,7.4,6.8,7.8
	c3,0.3,4,4,4.5,7.2c8.8,51.9,12.9,104,14.2,156.6c1.1,44.1,1.8,88,1.8,132c0,10.1-2.6,19.6-6.8,28.7c-4.8,10.2-7.2,21-7.2,32.1
	c0,32.7,0.3,65.2,0.6,97.9c0.3,23.6-2.7,47.2-0.3,70.9c0.6,5.3,1.8,6.8,7,6.7c13.9-0.3,27.9-0.1,41.9-0.1c1.4,0,2.8-0.1,4.3,0.1
	c11.4,1.7,15.6-1.4,13.8-12.6c-5.4-32.4,2.6-63,12.8-93.1c4.7-13.6,11.1-26.6,18.6-38.9c17.3-28.4,43.1-44.9,74.7-53.1
	c1.8-0.4,3.7-0.9,5.5-0.7c3.4,0.3,4.8,2.3,2.6,5.3c-2.8,3.6-5.8,6.8-9.1,9.8c-7.8,7.2-15.1,15.1-22.9,22.2
	c-27.1,24.7-40.6,56.3-47.7,91.4c-3.8,19-4.8,38.5-7.2,57.7c-0.6,4.7,2.4,3.6,4.7,3.6c29.8,0.6,59.5,1.3,89.4,1.8
	c31.7,0.6,63.4-1.6,95.1,1c19.8,1.6,39.5,4.5,58.7,9.7c4.4,1.1,10.7,1.7,10.9,7.2c0.1,5.8-6.1,7.1-10.7,8.7
	c-23,7.7-46.9,11.4-71,11.2c-58-0.6-116-1.3-173.8-3.3c-81-2.7-162.1-6.3-243.1-9.9c-59.3-2.7-118.5-6.4-177.6-11.2
	c-31.5-2.6-63.2-3.8-94.2-11.1c-9.5-2.1-19.3-4.4-24.7-14.1C968.2,1371.2,968.2,1369.8,968.2,1368.4z"/>
<path class="st12" d="M2139.5,2255.5c-3.3-59.5-3.3-111.3-0.3-163c2.1-35.2,1.8-70.5,2-105.7c0-6-1.8-7.1-7.1-6.1
	c-7.7,1.6-15.5,1.1-23.3-0.1c-3.8-0.7-5.5-1.8-5.4-6.4c1.1-27.7-0.1-55.3-3.8-82.8c-1.6-11.4,0.6-14.1,11.7-15.6
	c18-2.6,34.8-9.9,52.7-13.6c54.9-11.4,110.3-19.9,165.1-30.8c50.3-9.9,100.5-20.7,151.1-29.1c21.5-3.6,42.8-7.2,64.2-10.8
	c18.8-3.1,19.9-2.1,20.6,17.3c0.9,22.9,1.7,45.9,2.6,68.8c0.1,3.7-0.6,7-2.1,10.2c-1.8,3.7-3.7,5.1-8.2,4.1
	c-8.2-1.8-15.6,2.8-23.4,4.5c-3.1,0.7-2,3.8-2.1,6.1c-2.1,41.1-1.6,82.3-1.7,123.5c-0.4,126.8-0.7,253.6-1,380.4
	c0,4.7-0.4,9.1-2.7,13.6c-2.6,5.3-0.3,11.1,3.1,15.9c4.3,6.4,3.1,9-4.5,10.1c-0.7,0.1-1.4,0.4-2.1,0.1c-9.8-3-13.5,2.8-16.5,10.7
	c-2.1,5.7-5.5,10.9-9.9,15.5c-8.7,9.1-19,13.2-31.4,9.5c-12.4-3.7-18.8-12.8-21.2-25.2c-2-9.7-1.6-19.6,0.6-29
	c4.8-21.2,2.6-42.3,1.7-63.5c-3.1-78.6-3.4-157-1.4-235.6c1.1-42.6-1.1-85.1-1.7-127.7c-0.3-20-1.3-40.1-1.8-60.3
	c-0.1-6.1-1.1-12.2-3-18.2c-1-3.1-3-6-6.7-4.4c-15.1,6-31.1,7.4-46.8,11.1c-46.9,11.2-94.2,20.3-141.8,28.3
	c-7.8,1.3-9.1,4.3-9.8,11.9c-2.3,24.6-2.3,49-3,73.6c-0.1,4-0.4,8,0.4,11.9c3,14.5,3,29.1,3.1,43.8c0.4,59,0.3,117.8,2,176.6
	c2,64.4,4,128.6,4.5,193c0.1,16.5-1.1,33.1,3.4,49.3c0.7,2.6-0.3,4-2.4,5.1c-4.3,2.3-8.7,3.6-13.4,4.4c-11.8,1.8-23.7,1.4-35.2-0.9
	c-6-1.1-7.1,1-8.2,5.7c-3.4,13.4-7,26.6-14.1,38.5c-3,5-5,12.2-14.1,9.4c-2.3-0.7-2.1,3.1-3.4,4.7c-1.7,2.1-2.6,5.8-5.7,5.7
	c-3.6-0.1-4.4-4.1-5.3-6.8c-4-12.9-4.5-26.4-6.1-39.9c-4.8-42.1-1.3-84.1-0.9-126.2C2137.7,2360.8,2138.8,2304.2,2139.5,2255.5z"/>
<path class="st12" d="M2711.1,2417.8c-1.6-0.6-2,0.4-2.7,1.1c-4.5,4-9.2,7.5-15.9,4.7c-7-3.1-11.8-8.2-12.1-16.1
	c-0.6-23.6-2.8-47.2-2.8-70.9c-0.1-106-0.3-211.9-0.7-317.9c-0.3-63.4-0.9-126.8-1.7-190.1c-0.7-57.4-1-115-0.4-172.4
	c0.1-22,0.7-43.9,5.3-65.7c1.3-5.8,3.8-10.5,8.8-13.9c9.5-6.4,19-4.1,24.3,6.1c2,3.8,3.8,7.8,5.8,11.8c0.9,0,1.7-0.1,2.6-0.1
	c0-18.5-0.1-37.1,0-55.6c0-4,0.6-8.1,1.4-11.9c3.1-14.5,15.9-24.6,30-24.2c14.6,0.4,26.7,10.8,29.3,26c1.8,10.4,2.7,21,4,31.5
	c11.7,92.8,8.5,186,9.2,279.1c1,125.6,0,251.2-0.7,376.8c-0.4,60.8-0.6,121.6-0.7,182.3c0,18-11.4,26.4-28.3,21.2
	c-2.1-0.7-3.4-0.3-5.1,0.7c-3,1.7-6.5,4.3-9.7,4.1c-8.5-0.6-9.8,4.4-10.7,11.1c-0.7,5.7-2.4,11.1-4.7,16.3c-1.4,3.3-2.6,7.4-6.5,7.7
	c-4.4,0.3-6.1-4-7.8-7.2c-4.3-8-6.3-16.8-8.4-25.6C2712.3,2423.5,2711.8,2420.5,2711.1,2417.8z"/>
<path class="st12" d="M1951.5,1709.8c2.3-12.2,4.3-24,6.7-35.8c3-14.5,12.4-22.5,25.3-21.9c12.4,0.7,21.3,10.4,22.5,24.9
	c0.3,3.3,0.6,6.7,0.3,9.9c-0.9,10.4,6.8,18.2,7.8,28c0.4,3.6,1.7,7.2,2.3,11.1c0.6,4.8,0.7,9.5,4.5,13.6c3.1,3.3,2.4,8.5,2.6,12.9
	c0.4,23.4-0.6,46.8-0.3,70.2c3.8,251.7,1.3,503.3,1.8,755c0,5.7-0.7,11.4-0.6,17.1c0,4.4-4.3,4.1-6.3,6.5
	c-11.1,13.5-28.4,14.9-41.4,3.4c-3.1-2.8-5.3-2.8-8.4-0.7c-4.1,2.7-8.5,5.1-12.9,7.4c-14.2,7.4-27.3,1.4-30.6-14.5
	c-1.4-7-2.1-14.1-2.3-21.2c-0.4-30-3.3-60,2.8-89.8c2.1-10.7,0.1-22.2,0-33.3c-0.9-52.4-1.6-105-2.4-157.4
	c-1.8-125.8-3.6-251.7-5.7-377.4c-1-61.5-0.6-122.9,2.1-184.4c0.4-8,1.3-16.1,2.6-24c1-6.4,3.6-12.1,10.8-13.2
	c7.8-1.3,12.2,3.6,15.8,9.7C1949.3,1707.1,1949.1,1709.3,1951.5,1709.8z"/>
<path class="st13" d="M823,1463.9c3.4-5,6.8-9.9,10.4-14.8c1.3-1.7,1.3-3.4,0.9-5.3c-3.1-11.7-1.4-23,3.6-33.8
	c21.5-47,46.6-91.7,81.1-130.4c35.5-40.1,73.2-78.4,106.6-120.4c63.8-80.3,116-167.8,162.8-258.8c22.7-44.3,36.1-92.1,51-139.3
	c4-12.6,7.7-25.3,10.5-38.2c4-17.6,13.5-32.3,24-46c5.4-7,13.2-12.2,15.3-21.7c4,1.7,1.6,5.1,3.8,7.4c2.1-3,4.1-6.1,6.4-9
	c5.1-6.7,11.2-11.8,20.3-10.4c9.5,1.4,13.6,8.7,17.6,16.6c13.5,27,9.7,54.3,1.4,81.3c-17.3,57.4-40.8,112.5-68.3,165.7
	c-46.3,89.5-88.8,181-140.5,267.7c-57,95.6-119.8,187.1-190.7,273c-8.4,10.2-16.3,20.9-24.4,31.3c-10.9,13.9-21,29.1-40.8,31.8
	c-1.4,0-2.8,0-4.3,0c-0.3-2-2-1.7-3.3-2c-8.2-2-14.9-6.5-19.9-13.5c-0.9-1.1-1.7-2.8-2.7-3c-10.2-1.7-15.9-9-20.9-16.9
	C823,1471.4,823,1467.5,823,1463.9z"/>
<path class="st14" d="M1323.7,456.8c2.4,0,4.7,0,7.1,0c8,4.4,15.6,7.8,25.6,6.4c9.9-1.4,20.3-0.3,30.4,0.3
	c38.4,2.1,75.9,9.8,113.7,15.3c59.4,8.8,118.8,17.5,178.6,22c38.9,3,77.9,5,116.8,6.1c51.3,1.4,102.6,1.6,153.8-3
	c41.1-3.6,82.1-6.8,122.8-15.2c37.8-7.8,76.7-10.5,114.8-18c6.7-1.3,12.6,1,18,4.4c6,3.7,11.9,6.3,19.2,5.5c4.1-0.4,7.2,2,9.8,4.8
	c3.6,3.8,6,8.5,8.4,13.1c12.8,24,18.3,50.4,25.9,76.3c4.4,14.9,7,30.6,13.9,44.5c48.2,97.9,99.2,194.3,153.3,289
	c67.5,118.1,144.5,229.3,234.9,331.2c19.2,21.6,40.5,41.1,59.3,63.1c66.1,77.7,139,151.6,216.6,218c4.1,3.6,2.1,6.4-0.4,11.2
	c-3.6,6.5-30,17.2-29.7,24.4c0.3,13.5,17.1,19,3.6,20.7c-86.4,10.2-172.4,23.6-258.5,34.8c-88.1,11.4-176.2,23.2-263.9,37.7
	c-82.3,13.6-164.7,26.4-246.3,43.5c-37.9,8-76.2,14.5-114.8,17.1c-7,0.4-13.8,0.1-19-5.5c-5.1-5.5-5.3-12.1-3.1-19.5
	c-18.5,1.8-36.4,3.7-54.1,5.4c-4.7,0.4-11.9-1-13.5,1.3c-2.4,3.7,2.6,8.8,3.7,13.5c0,0.1-0.1,0.4-0.4,0.7c-0.6-0.3-1.3-0.4-1.7-0.7
	c-4.1-3.3-8.2-6.4-12.2-9.7c-3.3-2.7-17.9-5.1-21.3-3.3c-0.7,0.4-1.3,1.3-1.7,2.1c-4.4,8.1-6,9.1-14.8,5.7
	c-17.6-7-33-16.8-42.9-34.1c-12.1-21.2-24.6-42.1-37.4-62.7c-136.1-217.7-254.1-444.6-350.6-682.6c-24.4-60.4-48.7-120.8-77.6-179.2
	c-16.8-33.8-32.3-68.3-44.5-104.2c-1-3-3-6.1-1.8-9.5c2.4-7.1,0.7-14.1-0.9-20.9c-9.9-43.9-22-87.5-31-131.6
	c-1.8-9.2-0.6-11.9,8-15.9C1321,458.4,1323.2,458.9,1323.7,456.8z M2636.3,1304.8c-0.4-0.4-1-1-1.4-1.4c-0.4-0.4-1-1-1.4-1.4
	c-0.4-0.4-1-1-1.4-1.4c-0.4-0.4-1-1-1.4-1.4c-0.4-0.4-1-1-1.4-1.4c-0.4-0.4-1-1-1.4-1.4c-0.4-0.4-1-1-1.4-1.4l-0.3-0.3l0.3,0.4
	c0.4,0.4,1,1,1.4,1.4c0.4,0.4,1,1,1.4,1.4c0.4,0.4,1,1,1.4,1.4c0.4,0.4,1,1,1.4,1.4c0.4,0.4,1,1,1.4,1.4c0.4,0.4,1,1,1.4,1.4
	C2635.3,1303.9,2635.7,1304.4,2636.3,1304.8c0.4,0.4,0.9,1,1.4,1.4c0.4,0.4,1,1,1.4,1.4c0.4,0.4,0.9,1,1.4,1.4c0.4,0.4,1,1,1.4,1.4
	c0.4,0.4,1,1,1.4,1.4c0.4,0.4,1,1,1.4,1.4c0.4,0.4,1,1,1.4,1.4c0.4,0.4,1,1,1.4,1.4c0.4,0.4,1,1,1.4,1.4c0.4,0.4,0.9,1,1.4,1.4
	c2.8,5.7,7.1,9.9,12.8,12.8c0.4,0.4,1,1,1.4,1.4c0.4,0.4,1,1,1.4,1.4c0.4,0.4,1,1,1.4,1.4c0.4,0.4,1,1,1.4,1.4c0.4,0.4,1,1,1.4,1.4
	c0.4,0.4,1,1,1.4,1.4c0.4,0.4,1,1,1.4,1.4c0.4,0.4,1,1,1.4,1.4c0.4,0.4,1,1,1.4,1.4c0.4,0.4,1,1,1.4,1.4c0.4,0.4,1,1,1.4,1.4
	c0.4,0.4,1,1,1.4,1.4c0.4,0.4,1,1,1.4,1.4c0.4,0.4,1,1,1.4,1.4c-0.4-0.4-1-1-1.4-1.4c-0.4-0.4-1-1-1.4-1.4c-0.4-0.4-1-1-1.4-1.4
	c-0.4-0.4-1-1-1.4-1.4c-0.4-0.4-1-1-1.4-1.4c-0.4-0.4-1-1-1.4-1.4c-0.4-0.4-1-1-1.4-1.4c-0.4-0.4-1-1-1.4-1.4c-0.4-0.4-1-1-1.4-1.4
	c-0.4-0.4-1-1-1.4-1.4c-0.4-0.4-1-1-1.4-1.4c-0.4-0.4-1-1-1.4-1.4c-0.4-0.4-1-1-1.4-1.4c-0.4-0.4-1-1-1.4-1.4
	c-3-5.7-7.1-9.9-12.8-12.8c-0.4-0.4-1-1-1.4-1.4c-0.4-0.4-1-1-1.4-1.4c-0.4-0.4-1-1-1.4-1.4c-0.4-0.4-1-1-1.4-1.4
	c-0.4-0.4-1-1-1.4-1.4c-0.4-0.4-1-1-1.4-1.4c-0.4-0.4-1-1-1.4-1.4c-0.4-0.4-1-0.9-1.4-1.4c-0.4-0.4-1-1-1.4-1.4
	C2637.2,1305.7,2636.7,1305.3,2636.3,1304.8z M2849,1490.7l0.4,0.3l-0.3-0.4c-0.4-0.4-1-0.9-1.4-1.4c-1-0.4-1.8-1-2.8-1.4
	c-0.4-0.4-1-1-1.4-1.4l-0.4-0.3l0.3,0.4c0.4,0.4,1,1,1.4,1.4c1,0.4,1.8,1,2.8,1.4C2848,1489.7,2848.6,1490.1,2849,1490.7z
	 M2839.1,1483.6l0.4,0.3L2839.1,1483.6c-0.4-0.6-0.9-1-1.3-1.6c-1-0.4-1.8-1-2.8-1.4c-0.3-0.6-0.7-1.1-1-1.7
	c-0.3,0.3-0.4,0.4-0.7,0.7c0.6,0.3,1.1,0.7,1.7,1c1,0.4,1.8,1,2.8,1.4C2838.1,1482.6,2838.7,1483,2839.1,1483.6z M2829.1,1476.5
	l0.4,0.3L2829.1,1476.5c-0.4-0.6-0.9-1-1.3-1.4l-0.4-0.3l0.3,0.3C2828.3,1475.5,2828.7,1475.9,2829.1,1476.5z M2823.5,1472.2
	l0.4,0.3L2823.5,1472.2c-0.4-0.6-0.9-1-1.4-1.4l-0.4-0.3l0.3,0.3C2822.6,1471.2,2823,1471.7,2823.5,1472.2z M2817.8,1468l0.4,0.3
	L2817.8,1468c-0.4-0.6-0.9-1-1.3-1.6l-0.4-0.3l0.3,0.4C2816.9,1467,2817.3,1467.5,2817.8,1468z M2619.3,1286.4l-0.4-0.3
	L2619.3,1286.4l0.3,0.4L2619.3,1286.4z M2721.3,1387.1l0.4,0.3L2721.3,1387.1c-0.3-0.6-0.9-1.1-1.3-1.6c-0.4-0.4-1-1-1.4-1.4
	c-0.1,0-0.4,0-0.6-0.1c0.1,0.1,0.3,0.1,0.3,0.3c0.4,0.4,1,1,1.4,1.4C2720.3,1386.3,2720.9,1386.7,2721.3,1387.1z M2701.4,1368.8
	l0.6,0.3l-0.3-0.6c-0.6-0.4-1-0.9-1.6-1.4c-0.4-0.4-1-1-1.4-1.4c-0.4-0.4-1-1-1.4-1.4c-0.4-0.4-1-1-1.4-1.4c-0.4-0.4-1-1-1.4-1.4
	l-0.3-0.3l0.3,0.3c0.4,0.4,1,1,1.4,1.4c0.4,0.4,1,1,1.4,1.4c0.4,0.4,1,1,1.4,1.4c0.4,0.4,1,1,1.4,1.4
	C2700.5,1367.8,2701,1368.4,2701.4,1368.8z M2210.4,764.6l0.4,0.3l-0.3-0.4l-0.4-0.3C2210.1,764.2,2210.4,764.6,2210.4,764.6z
	 M1657.1,1185.8c0.4,1,1,1.8,1.4,2.8s1,1.8,1.4,2.8s1,1.8,1.4,2.8c3.6,11.2,8.8,21.6,15.6,31.3c0.1,2.3,0.9,4.3,2.8,5.7
	c0.4,1,1,1.8,1.4,2.8s1,1.8,1.4,2.8l0.4,0.3l-0.3-0.4c-0.4-1-1-1.8-1.4-2.8s-1-1.8-1.4-2.8c0-2.3-0.9-4.3-2.8-5.7
	c-3.7-11.1-8.8-21.6-15.6-31.3c-0.4-1-1-1.8-1.4-2.8s-0.9-2-1.4-2.8c-0.4-1-1-1.8-1.4-2.8c-0.3-0.3,0.3-1.4-0.9-0.9
	C1656.7,1185.1,1656.8,1185.5,1657.1,1185.8z M1905.5,1618.3l0.4,0.3l-0.3-0.4c-0.4-1-1-1.8-1.4-2.8l-0.4-0.3l0.3,0.4
	C1904.5,1616.5,1904.9,1617.3,1905.5,1618.3z M1889.9,1591.3c-0.4-0.4-1-1-1.4-1.4c-0.4-1-1-1.8-1.4-2.8c-0.4-1-1-1.8-1.4-2.8
	s-1-1.8-1.4-2.8c-0.4-0.4-1-1-1.4-1.4c-0.3-1-0.7-2-1-3c-0.3,0.1-0.6,0.3-0.9,0.6c0.6,0.9,1.3,1.7,1.8,2.6c0.4,0.4,1,1,1.4,1.4
	c0.4,1,1,1.8,1.4,2.8s1,1.8,1.4,2.8s1,1.8,1.4,2.8C1889,1590.3,1889.4,1590.9,1889.9,1591.3c0.4,1,1,1.8,1.4,2.8
	c0.1,1.8,1.1,3.4,2.8,4.3c0.4,1,1,1.8,1.4,2.8c0.6,2.8,1.6,5.4,4.3,7.1c0.3,1,0.6,2,1,3c0.3-0.1,0.9-0.3,0.9-0.4
	c0-1.3-1-1.8-1.8-2.4c-0.6-2.8-1.6-5.5-4.3-7.1c-0.4-1-1-1.8-1.4-2.8c-0.1-1.8-1.1-3.3-2.8-4.3
	C1890.9,1593.2,1890.4,1592.3,1889.9,1591.3z M2217.5,775.9l0.4,0.3L2217.5,775.9c-0.4-1.1-0.9-2-1.3-3c-0.4-0.4-0.9-1-1.4-1.4
	c-0.4-1-1-2-1.4-2.8l-0.4-0.3l0.3,0.4c0.4,1,1,1.8,1.4,2.8c0.4,0.4,1,1,1.4,1.4C2216.7,774,2217.1,775,2217.5,775.9z M2867.5,1503.4
	c-0.4-0.4-1-1-1.4-1.4c-1-0.4-1.8-1-2.8-1.4c-0.4-0.4-1-1-1.4-1.4c-1-0.4-1.8-1-2.8-1.4c-0.4-0.6-0.7-1.1-1.1-1.7
	c-0.3,0.3-0.4,0.4-0.7,0.7c0.6,0.3,1.1,0.7,1.7,1c1,0.4,1.8,1,2.8,1.4c0.4,0.4,1,1,1.4,1.4c1,0.4,1.8,1,2.8,1.4
	C2866.5,1502.5,2867.1,1502.9,2867.5,1503.4c0.9,0.6,1.8,1,2.8,1.6c0.4,0.4,1,1,1.4,1.4c0.3,0.9,0.4,1.8,1.6,1.8
	c0.1,0,0.4-0.3,0.4-0.4c-0.1-1.1-1-1.3-1.8-1.6c-0.4-0.4-1-1-1.4-1.4C2869.5,1504.4,2868.5,1503.8,2867.5,1503.4z M1809.1,1453.6
	l-0.4-0.3l0.3,0.4c0.4,1,1,1.8,1.4,2.8l0.6,0.3l-0.3-0.6C1810.1,1455.5,1809.6,1454.5,1809.1,1453.6z M1806,1449.6l0.4,0.3l-0.3-0.4
	c-0.6-1-1-1.8-1.6-2.8c-0.4-0.4-1-1-1.4-1.4c-0.3-0.3,0.3-1.4-0.9-1c0.3,0.3,0.4,0.7,0.7,1c0.4,0.4,0.9,1,1.4,1.4
	C1805.2,1447.7,1805.6,1448.7,1806,1449.6z M1715.2,1297.9l0.6,0.3l-0.3-0.6c-0.4-0.9-1-1.8-1.4-2.7c-0.3-2.4-0.4-4.7-3.4-6.3
	c-0.1,3.3,1.3,5,3.1,6.4C1714.4,1295.9,1714.8,1296.9,1715.2,1297.9z M1701.3,1270.6l-0.6-0.3l0.3,0.6c0.4,1,1,1.8,1.4,2.8
	c0.3,3.4,1.4,6.4,4.3,8.5l0.4,0.3l-0.3-0.4c-0.3-3.4-1.4-6.4-4.3-8.5C1702.3,1272.6,1701.7,1271.6,1701.3,1270.6z M1698.3,1266.6
	l0.4,0.3l-0.3-0.4c-0.4-1-1-1.8-1.4-2.8c-0.6-4.5-2.3-8.4-5.7-11.4c-0.4-1-1-1.8-1.4-2.8l-0.4-0.3l0.3,0.4c0.4,1,1,1.8,1.4,2.8
	c0.6,4.4,2.3,8.4,5.7,11.4C1697.3,1264.8,1697.7,1265.6,1698.3,1266.6z M1875.6,1567.2l-0.3-0.3L1875.6,1567.2c0.3,1,0.6,2,1,3
	c0.3-0.1,0.9-0.3,0.9-0.6C1877.6,1568.4,1876.6,1567.7,1875.6,1567.2z M1827.3,1485l0.4,0.3l-0.3-0.4c-0.4-1-0.9-2-1.3-3
	c-0.3,0.1-0.6,0.4-0.9,0.6C1826.1,1483.3,1826.8,1484.2,1827.3,1485z M1848.6,1522l0.4,0.3l-0.3-0.4c-0.4-1-0.7-2-1.1-3
	c-0.3,0.1-0.6,0.4-0.9,0.6C1847.4,1520.1,1848.1,1521.1,1848.6,1522z M1762.1,1378.6c0.4,0.4,0.9,1,1.4,1.4c0.1,1.1,0,2.3,1.1,3
	c0.1,0.1,0.9-0.3,0.9-0.6c0-1.3-0.9-2-1.8-2.6C1763.2,1379.4,1762.7,1379,1762.1,1378.6c0-1.3,0.1-2.4-1-3.1
	c-0.1-0.1-0.9,0.3-0.9,0.6C1760.3,1377.3,1761.3,1378,1762.1,1378.6z M1830.3,1489.1l-0.4-0.3l0.3,0.4c0.4,1,0.7,2,1.1,2.8
	c0.3-0.1,0.6-0.4,0.9-0.6C1831.6,1490.7,1831,1489.9,1830.3,1489.1z M1767.9,1387l-0.4-0.3l0.3,0.6c0.4,1,0.9,1.8,1.1,2.8
	c0.3-0.1,0.6-0.4,0.9-0.6C1769.2,1388.7,1768.5,1387.8,1767.9,1387z M1909.6,1625.4l0.6,0.3l-0.1-0.6c-0.4-1-0.9-2-1.3-3
	c-0.3,0.1-0.6,0.4-0.9,0.6C1908.5,1623.7,1909,1624.6,1909.6,1625.4z M1757.8,1371.6l0.4,0.3l-0.3-0.4c-0.4-1-0.9-2-1.1-3
	c-0.3,0.1-0.6,0.4-0.9,0.6C1756.6,1369.9,1757.3,1370.8,1757.8,1371.6z M1743.6,1347.5l0.4,0.3l-0.3-0.4c-0.4-1-0.9-2-1.3-3
	c-0.3,0.1-0.6,0.4-0.9,0.6C1742.4,1345.8,1743.1,1346.6,1743.6,1347.5z M1746.6,1351.5l-0.4-0.3l0.3,0.4c0.4,1,0.9,2,1.1,3
	c0.3-0.1,0.6-0.4,0.9-0.6C1747.9,1353.3,1747.3,1352.3,1746.6,1351.5z M1851.6,1526l-0.4-0.3l0.3,0.4c0.4,1,0.9,2,1.1,3
	c0.3-0.1,0.6-0.4,0.9-0.6C1852.9,1527.7,1852.3,1526.8,1851.6,1526z M1862.9,1546l0.4,0.3l-0.3-0.4c-0.4-1-0.7-2-1.1-3
	c-0.3,0.1-0.6,0.4-0.9,0.6C1861.6,1544.3,1862.3,1545.1,1862.9,1546z M1814.7,1463.7c0.4,0.4,1,1,1.4,1.4c0,2.4,0.9,4.4,2.8,5.7
	c0.4,0.4,0.9,1,1.3,1.4c0,2.4,0.9,4.4,2.8,5.7l0.4,0.3l-0.3-0.4c0-2.4-0.9-4.4-2.8-5.7c-0.4-0.4-1-0.9-1.4-1.4
	c0-2.4-0.7-4.4-2.8-5.7c-0.4-0.4-0.9-1-1.4-1.4c-0.1-1.1,0-2.3-1.1-3c-0.1-0.1-0.6,0.3-0.9,0.6
	C1813.4,1462,1814,1462.9,1814.7,1463.7z M1871.5,1560.1l-0.4-0.3L1871.5,1560.1c0.3,1.1,0.6,2.1,1,3.1c0.3-0.1,0.6-0.4,0.9-0.6
	C1872.8,1561.8,1872.1,1560.9,1871.5,1560.1z M1613,1085.2c0.4,1.4,1,2.8,1.4,4.1c0.3,2.7,0.7,5.3,4,7.5c0-3.8-1.4-6-3.6-7.8
	c-0.4-1.4-1-2.8-1.4-4.1c-0.1-2.3-0.9-4.4-2.8-5.7c-0.1-0.4-0.4-0.7-0.6-1.1c-0.9,0.6,0,1,0.3,1.4
	C1610.3,1081.7,1611.1,1083.7,1613,1085.2z M1868.5,1555.9l0.4,0.3L1868.5,1555.9c0.1-2.4-0.7-4.4-2.7-5.8l-0.4-0.3l0.3,0.4
	C1865.7,1552.7,1866.4,1554.7,1868.5,1555.9z M1918.4,1639.3l-0.6-0.3l0.1,0.6c0.1,2.3,1,4.3,2.8,5.7c10.9,1.6,20.6-3.6,30.4-7.1
	c-9.9,2.3-20,4.5-30,6.8C1921.1,1642.8,1920.4,1640.6,1918.4,1639.3z M1855.9,1533.1l-0.4-0.3L1855.9,1533.1
	c-0.1,2.6,0.7,4.5,2.7,5.8l0.4,0.3l-0.3-0.4C1858.7,1536.5,1858,1534.5,1855.9,1533.1z M1912.7,1629.4l-0.6-0.3l0.1,0.6
	c0.1,2.3,0.9,4.3,2.8,5.7l0.6,0.3l-0.1-0.6C1915.6,1632.8,1914.7,1630.8,1912.7,1629.4z M1739.4,1340.4l0.4,0.3l-0.3-0.4
	c0-2.4-0.9-4.3-2.8-5.7l-0.4-0.3l0.3,0.4C1736.5,1337.1,1737.4,1339.1,1739.4,1340.4z M1844.4,1514.7l0.4,0.3l-0.3-0.4
	c0-2.4-0.9-4.4-2.8-5.7l-0.4-0.3l0.3,0.4C1841.5,1511.5,1842.4,1513.4,1844.4,1514.7z M1733.7,1330.4l0.4,0.3l-0.3-0.4
	c0-2.4-0.9-4.4-2.8-5.7l-0.4-0.3l0.3,0.4C1730.8,1327.2,1731.7,1329.1,1733.7,1330.4z M1750.9,1358.6l-0.4-0.3l0.3,0.4
	c0,2.4,0.9,4.3,2.8,5.7l0.4,0.3l-0.3-0.4C1753.7,1362,1753,1360,1750.9,1358.6z M1725.4,1314.7l-0.4-0.3l0.3,0.4
	c0.1,2.3,0.9,4.3,2.8,5.7l0.4,0.3l-0.3-0.4C1728.1,1317.9,1727.4,1315.9,1725.4,1314.7z M1557.8,953.3c0.4,1.4-0.4,3.8,2.4,3.7
	c0.4-2-1-2.8-2.1-4c-0.4-1.8,0.6-4.3-2.1-5.4C1554.9,950.2,1556.6,951.6,1557.8,953.3z M1638.9,1144.4c-0.3-0.3,0.1-1.4-1-0.9
	c0.3,0.3,0.4,0.7,0.7,1c0.3,2.7,0.7,5.3,4,7.5C1642.5,1148.4,1641.2,1146.3,1638.9,1144.4z M1654.3,1178.8c0.3,0.3-0.1,1.4,0.9,0.9
	c-0.3-0.3-0.4-0.7-0.7-1c-0.3-3.4-1.4-6.4-4.3-8.5c-0.3-0.3,0.1-1.4-0.9-0.9c0.3,0.3,0.4,0.7,0.7,1
	C1650.3,1173.5,1651.4,1176.5,1654.3,1178.8z M1722.3,1310.7l0.4,0.3l-0.3-0.4c-0.3-3.4-1.4-6.4-4.4-8.5l-0.4-0.3l0.3,0.4
	C1718.3,1305.6,1719.5,1308.5,1722.3,1310.7z M1644.6,1157.2c-0.3-0.3,0.1-1.4-0.9-0.9c0.3,0.3,0.4,0.7,0.7,1
	c0.3,2.7,0.7,5.3,3.8,7.5C1648.1,1161.2,1646.9,1158.9,1644.6,1157.2z M1586.5,1021.1c-0.6-1.4,0.4-3.8-2.6-3.7c-0.4,2,1,2.8,2.1,4
	c0.1,3.1,0.7,6.1,3.6,8C1589.6,1026,1588.3,1023.5,1586.5,1021.1z M2867.2,1508.8c-7.2,1.4-14.8-0.6-21.9,1.8
	C2853,1513,2860,1509.8,2867.2,1508.8z M1582.5,1012.4c-0.6-4.5-2-8.8-5.1-12.2C1578.1,1004.7,1578.9,1009.1,1582.5,1012.4z
	 M1607.1,1073.5c0.3-4.8-1.1-9-3.4-12.6c-0.6,0.3-1.1,0.6-1.8,0.9C1603.7,1065.7,1605.4,1069.7,1607.1,1073.5z M2814.9,1514
	c4.5,1.4,8-0.4,11.5-0.9C2822.7,1511.6,2819.2,1511.3,2814.9,1514z M2830.4,1512c4.1,1.3,6.4,1.6,9.5-0.3
	C2836.8,1510.2,2834.5,1510.3,2830.4,1512z M1622.6,1109.2c1.6,4.7,2.4,7.5,5.3,9.5C1627.3,1115.9,1627.1,1112.6,1622.6,1109.2z
	 M1636.9,1139.4c0-3.3-0.7-5.1-3.1-6.4C1633.4,1135.9,1634.2,1137.5,1636.9,1139.4z M1570.1,981.9c-0.1-3.1-0.7-5-3.7-6.5
	C1567,978.3,1567.3,980.3,1570.1,981.9z M1598,1050.5c0.1,3.3,0.7,5,3.3,6.3C1601.5,1054,1600.8,1052.3,1598,1050.5z M1597.1,1047.4
	c0-3.3-0.6-5-3.4-6.7C1593.9,1043.5,1594.4,1045.2,1597.1,1047.4z M1622.4,1106.6c0.4-3-0.4-4.7-3-6.3
	C1619.2,1103.2,1620,1104.9,1622.4,1106.6z M1632.9,1130.2c-1.1-3.6-1.1-5.5-3.7-7.5C1629.2,1125.9,1630,1127.5,1632.9,1130.2z
	 M1572,985.7c-0.4,0.4-1,0.7-1,0.9c0.1,0.6,0.3,1.4,0.9,1.7c0.9,0.4,1.3-0.3,1.1-1C1572.8,986.8,1572.4,986.3,1572,985.7z
	 M1575.8,993.9c-0.3-0.3-0.9-0.7-1.3-1.1c-0.1,0.6-0.6,1.1-0.6,1.7c0,0.3,0.6,0.9,0.9,1C1575.8,995.6,1576,994.9,1575.8,993.9z
	 M1592.9,1035c-0.4-0.3-0.9-0.7-1.4-1c-0.3,0.4-0.7,0.9-0.6,1c0.3,0.6,0.6,1.4,1.1,1.6C1592.9,1036.8,1593,1036,1592.9,1035z
	 M1563.3,963.4c-0.3-0.6-0.6-1.3-1.1-1.6c-0.9-0.4-1.3,0.4-1.1,1.1c0.1,0.6,0.7,1,1.1,1.6C1562.6,964.1,1562.9,963.8,1563.3,963.4z
	 M1564.9,968.6c-0.4,0.4-1,0.9-0.9,1c0.1,0.6,0.4,1.4,0.9,1.7c0.9,0.4,1.3-0.4,1.1-1.1C1565.7,969.6,1565.3,969.2,1564.9,968.6z
	 M2852.9,1493.1c0,0.1,0,0.4,0,0.6c0.3-0.1,0.6-0.1,0.9-0.3c-0.1-0.1-0.3-0.4-0.4-0.4C2853.3,1493,2853,1493.1,2852.9,1493.1z"/>
<path class="st15" d="M2016.2,1707c4.1-5.8,10.4-8.2,16.9-10.4c42.5-13.6,86.3-21.6,129.9-30.3c117.5-23.3,235.5-44.8,353.4-65.7
	c75.6-13.4,151.6-23.7,227.8-33c53.3-6.5,101.2-23.6,154.6-28.6c14.8-1.4,38.4-12.9,54.1-14.2c-5.8,9.8-25,51.9-27.6,52.4
	c-33.8,7.1-68.2,11.9-102.5,17.1c-69.9,10.4-140.3,17.8-210.2,27c-38.7,5.1-76.7,14.2-115.2,21.5c-127.9,24.2-255.4,50.6-383.5,73.5
	c-22.3,4-44.6,7.2-67.4,7c-4.7,0-9.4-0.6-14.1-1.1c-6.8-0.9-12.2-4.3-16.3-9.7C2016.2,1710.7,2016.2,1708.8,2016.2,1707z"/>
<path class="st16" d="M1619.4,1090.3c56.3,115.7,118.8,227.9,187.3,336.8c37.7,59.8,79.7,116.7,126,170.2
	c15.3,17.6,30.8,35.4,48,51.2c20.7,18.9,39.6,39.9,62.5,56.4c3.8,2.7,6.3,6.8,9.8,10.1c4.3,3.8,2.8,9.8-2.4,13.1
	c-7,4.4-14.8,6.1-22.7,7.4c-28,4.7-55,12.8-82.7,18.9c-7.5,1.7-15.3,2.3-22.2,6.4c-1.8,0-3.8,0-5.7,0c-19-15.3-31.4-36.4-44.6-56.3
	c-35-52.6-74-102.2-113.1-151.8c-11.1-14.1-18.6-30.3-27-45.8c-44.3-82.1-95.5-160.3-139.3-242.7c-42.3-79.7-83.1-160.1-122.1-241.6
	c-27.7-58-55-116.1-80.9-174.9c-17.9-40.6-35.4-81.4-50-123.3c-6-16.9-10.9-34.1-16.2-51.3c-1.3-4.3-2.3-8.2-8.2-7.4
	c-5.8,0.9-12.4-0.7-15.2,7.2c-9.7,28.4-19.9,56.6-30.8,84.5c-17.9,45.5-38.1,90.1-57.7,134.9c-18,41.2-41.9,79.3-62.1,119.4
	c-38.2,75.9-86.5,145.2-135.8,214c-28.8,40.4-56.8,81.6-89.1,119.2c-23.9,27.7-40.8,60.3-63.4,88.8c-14.2,17.9-25.6,38.2-44.1,52.6
	c-7.1,5.5-13.9,11.4-22.7,14.2c-8.8,2.8-14.8,1.4-19.8-6.3c-2.8-4.4-4.5-1.4-6.5-0.1c-18.3,11.7-35.8,24.7-53.1,37.7
	c-9.8,7.2-21.9,7.4-33,10.5c-3,0.9-6.4-0.3-8.5-2.7c-3.6-4.3-5.3-1.4-7.4,1.3c-6,7.2-11.4,15.2-18.9,21c-3.3,2.6-0.7,3.4,0.9,4.5
	c6.3,4.7,10.8,10.5,14.2,17.3c1.3,2.6,2.7,5.4,0.4,8c-2.3,2.6-4.8,0.6-7.2-0.1c-11.5-3.8-20.2-11.9-29.6-19.3
	c-4.5-3.6-0.3-5.3,1.6-7c23-21.7,44.3-45.3,64.9-69.3c32.7-38.2,64.8-77.2,89.2-121.5c4.5-8.2,11.8-13.2,18.3-19.2
	c19.6-17.9,37.2-37.7,53.6-58.5c64.8-82.3,121.4-169.8,170.1-262.6c19.5-36.9,42.3-72,62.2-109c46.2-86,92.1-172.2,127.9-263
	c14.5-36.7,33.1-71.6,46.2-108.8c10.1-28.8,24.4-55.7,37.2-83.4c0.6-1.3,1.3-2.6,2-3.8c5.4-9.2,10.1-12.1,17.2-10.7
	c6.4,1.1,9.9,6.3,11.4,16.2c0.3,1.8,0,4,2,5c16.9,9.4,25.2,26,34,41.8c18.9,33.4,32.7,69.2,48.9,103.9
	c41.2,88.4,73.5,180.8,113.5,269.7 M704.9,1511.5c5.4-2.8,9.4-7.1,12.8-12.1C711.7,1501.5,708.6,1506.8,704.9,1511.5z"/>
<path class="st17" d="M2341.7,2044.2c-2.8,2.7-4.8,5.1-7.4,6.8c-22.9,15.1-46.9,27.9-73.5,35.4c-7.2,2-14.8,2.4-22.5,2.6
	c-4.3,0-6.3-0.6-5.7-5.8c0.9-9.4,1-18.9,1-28.3c0-3.7,1-5.5,4.4-6.8c8-2.8,15.9-6,24.4-6.7c21.6-1.8,43.2-3.6,64.8-1.3
	C2332.1,2040.5,2336.8,2041.2,2341.7,2044.2z"/>
<path class="st17" d="M2280.5,2292c15.5-1.7,31,3.3,46.6,5.7c1.8,0.3,4.1,0.9,4.5,2.8c0.3,2-1.7,3.1-3.1,4.3
	c-6.7,5-14.1,8.5-21.6,11.8c-8.5,3.7-16.2,8.4-23.7,13.8c-10.4,7.4-22,11.8-34.4,14.1c-10.7,2-12.4,0.3-12.4-10.2
	c0-10.2,0.3-20.3,0-30.4c-0.1-4.1,1.4-5.7,5.1-6.8C2254.1,2293.1,2266.6,2290.4,2280.5,2292z"/>
<path class="st17" d="M2443.2,1935.1c0.9-7,2-13.5,2.4-20c0.3-3.1,2-3.4,4.1-3.6c24.7-1.3,48.9-7.1,73.5-10.1c1.6-0.1,3.3-0.3,5-0.3
	c2.4,0,6.4,1.3,5.8,2.6c-1.8,3.7,5.8,8.5-1.6,11.4c-3.4,1.3-6.5,3.3-10.5,3.7C2495.2,1921,2469.5,1927.8,2443.2,1935.1z"/>
<path class="st17" d="M2237.4,1965.6c2.3,8.7-4.7,9.2-9,9.5c-27.6,1.4-54.7,6.4-81.8,10.9c-3.8,0.7-4.4-1.4-5-4s-2.3-5,2.1-6.7
	c13.4-5,27.3-7.1,41.4-8.7c14.9-1.7,30-3.3,44.6-7C2235.3,1958.2,2240,1957.7,2237.4,1965.6z"/>
<path class="st12" d="M1355.7,317.5c19.9,0,39.8,0,59.5,0c1,2,3.4,2.3,4.7,4.5c8.4,16.1,19.5,30.3,31.4,44.1
	c13.1,14.9,28.7,24.7,47.5,30.4c27,8.2,54.7,10.1,82.6,11.1c63.5,2.1,127.2,2,190.7,0.6c65.5-1.6,130.9-2.1,196.2-6.1
	c36.9-2.3,73.3-7.2,109.1-16.2c8.4-2.1,13.4-9.9,11.2-18.3c-0.7-3-1.8-6-3.6-8.4c-4-5.4-1.1-6.8,3.8-8.2c13.4-3.4,26.9-6,40.6-4.5
	c18.3,1.8,36.4-0.4,54.4-1.7c28-2,56-4.4,83.7-9.1c0.7,2.6-0.3,5.1-0.7,7.7c-4.5,27-14.1,53-17.2,80.4c-1.4,12.9-2.3,26.4-13.2,36.1
	c-0.7,0.7-0.7,2.1-1,3.3c-2.1,10.7-9.2,16.5-19.3,19.2c-13.5,3.6-26.6,2.6-39.5-2.4c-2.6-1-5.1-2.7-8.1-1.6
	c-8.7,3.3-17.9,4.1-27,5.7c-24.9,4.4-49.5,10.9-74.7,12.1c-40.4,1.8-80.6,5.8-120.8,9.2c-83.8,7-167.8,10.1-251.9,11.7
	c-50,1-100.2-1.1-150.2-1.7c-62.8-0.7-124.8-9.8-186.9-16.5c-3.4-0.4-7.4-1.1-8.1-4.7c-0.9-5-4.3-6.5-7.8-8.8
	c-7.8-5-8.7-15.1-0.7-17.1c14.9-3.7,12.9-12.6,10.5-22.9c-0.3-1.3-0.3-2.8-0.1-4.3c0.3-2.8-0.7-3.7-4-4.1
	c-22.5-2.7-33-23.7-21.7-43.2c4.1-7.2,10.1-12.9,16.5-18.3c1.8-1.6,3.7-2.7,3.8-5.5c0.9-12.1,7.4-21,16.2-28.7
	c2.3-2,3.7-3.4,0.4-5.8C1356.1,331,1354.6,324.8,1355.7,317.5z"/>
<path class="st18" d="M1354.6,502.7c-2.8,0-5.7,0-8.4,0c-4.3-1.7-8.4-2-12.6,0c-6.1,0-12.2,0-18.2,0c-1.6-2.8-4.1-1.3-6.3-1.4
	c-5.4-0.6-10.7-0.7-16.1-1.1c-7.8-0.6-12.5-4.8-14.2-12.4c-2.4-10.9-4.7-22-7.1-33c-3.8-16.8-3.3-34.1-7.2-50.7
	c-6.5-27.6-13.8-55-21.2-82.3c-1.7-6.3,0.1-6.8,5.5-6.8c51.2,0,102.5,1.6,153.6,3.3c0,1.8,0,3.7,0,5.7c-2.6,1.3-1.8,4.1-2.3,6.3
	c-1.7,8.7-3.3,17.5-4.7,26.1c-6.8,41.2-13.5,82.4-23.2,123.1C1369.6,490.3,1364.5,498,1354.6,502.7z"/>
<path class="st19" d="M1072.4,2538c1.4,0,2.8,0,4.3,0c5.8,3.1,11.9,5.1,18.5,5.7c25.4,2.1,50.9,4.5,76.3,6.4
	c34.7,2.6,68.8,9.5,103.6,9.9c20.6,0.3,41.2,0.4,61.7,2.6c67.9,7.4,136.3,11.4,204.2,19.9c47.7,6.1,95.9,9.4,143.8,13.9
	c1.8,0.1,3.8,1.1,5.3-1c2.4-3.6,6.3-3.7,10.1-4.4c8.8-1.6,17.8-2.1,26.7-2.7c22.9-1.4,45.6-3.8,67.6-10.8c3.8-1.3,7.8-1.4,11.8-0.1
	c3.4,1.1,4.7,3,3.7,6.8c-2,7.4-4,15.1-4.8,22.6c-0.4,3.8-2,4.8-4.8,6c-72.8,28.4-145.7,56.4-219.5,81.7
	c-98.6,33.8-198.2,64.7-295.3,102.9c-2.4,1-5,1.3-7.7,1.1c-72.5-4.3-144.4-13.5-216.6-21.5c-77-8.5-153.8-19.6-230.5-30.3
	c-95.5-13.2-190.7-27.4-285.9-42.8c-114.2-18.5-227.9-39.8-341.6-61.2c-10.5-2-20.9-5.3-31.7-4.7c0-7.1,0-14.1,0-21.2
	c2-0.4,1.6-2.1,1.7-3.4c1.6-11.4,4.5-12.6,15.2-8.5c19.9,7.8,41.2,10.7,61.8,8.7c53.6-5.3,106.9-13.2,160-22
	c89.2-14.8,178.5-29,267.9-43.2c17.2-2.7,34.2-7.8,51.9-7.2c88.5,2.7,177.2,6,265.7,9.1c21.5,0.7,43.1,1.4,64.5,2.1
	c2.8,0.1,5.5,0.6,5.4-4C1065.3,2543.7,1068.7,2540.5,1072.4,2538z"/>
<path class="st20" d="M165.5,2608.3c0-1,0-1.8,0-2.8c3-0.3,6.1-0.4,9.1-1c52-9.9,103.4-23,156.3-28.1c18.9-1.8,36.9-7.7,55.6-11.5
	c18.9-3.8,38.2-6.3,57.4-9.4c82.8-13.4,165.7-26.9,248.5-40.2c10.7-1.7,21.3-4.5,32.3-4.3c17.5,0.7,35,1.6,52.4,2.1
	c60,2,120.1,4,180.2,6c31.7,1,63.4,2.1,95.1,3c2.4,0.1,6.5,1.3,6.8-1.6c0.7-6,5.1-9.5,7.8-14.1c1,0,1.8,0,2.8,0
	c5.4,5.5,12.6,6.4,19.8,7.1c24.7,2.3,49.5,4.3,74.2,6.4c26.4,2.3,52.6,7.2,78.9,8.7c47.5,2.6,94.9,3.7,142.2,9
	c26.3,2.8,52.7,4.1,79.1,7.1c27.1,3,54.4,5,81.6,8.7c20.9,2.8,41.9,4,62.8,6.1c49.6,5,99.2,9.9,148.9,14.9c19.2,2,38.4,3.8,57.6,5.7
	c-3.1,2.3-6.4,3.3-9.8,4.3c-35.5,9.7-71.2,19.6-105.7,32.4c-121.9,45-245.8,84.7-369.5,124.6c-24.4,8-48.6,16.8-72.5,26.4
	c-4.7,0-9.5,0-14.2,0c-1-1.1-2.6-1.1-3.8-1.3c-32.7-3.3-65.4-6.5-98-9.8c-68.9-7.1-137.7-15.1-206.3-24.6
	c-109.8-15.1-219.7-30.1-329.1-47.3c-128.7-20.3-256.9-42.8-384.8-67.5C202.3,2614,184.2,2609.6,165.5,2608.3z"/>
<path class="st21" d="M813.2,1801.3c0,0.4,0,1,0,1.4c-1.3,8.4-1.4,16.9,0,25.3c0,5.1,0,10.4,0,15.5c-2.7,1.4-1.4,4.1-1.6,6.3
	c-2.4,48.2-4.5,96.3-8,144.5c-0.6,8-2.8,16.2-1.3,23.7c2.7,13.4,2.3,26.6,2,39.8c-0.6,29.7-0.6,59.5-5,89c-1.1,7.7-2,16.3-8.5,20.9
	c-6.1,4.3-7,9.7-7.7,15.8c-0.6,4.7-1.6,9.2-1.8,13.9c-0.9,12.5-9.8,20.9-15.5,31.8c-0.9-7.1-5-9.8-10.5-11.4c-1.6-0.4-3.3-2.4-3.7-4
	c-1.7-7.2-4.1-13.6-10.9-17.6c-2.3-1.3-2.4-5-2.6-7.8c-0.3-7-0.9-14.1-0.7-21c1.4-98.2-3.8-196.2-5-294.3
	c-0.4-35.4-0.9-70.8,0.3-106c0.1-5.7,0.4-12.1,6-14.8c5-2.6,5.4-6.1,5.7-10.7c0.4-6.5,1.6-13.1,2.3-19.5c0.4-3.7,1.8-6.7,4.3-9.2
	c0.9,0,1.8,0,2.7,0c2.7,2.7,3.8,6.1,4.4,9.9c1.7,11.5,2.4,23.2,3.1,34.8c0.1,3.1,0.9,4.7,4.4,4.1c2.7-0.4,5.5,0.3,8.2-0.3
	c12.4-2.1,20.7,3.8,23.3,16.6c0.3,1.7-0.4,4.1,1.8,5C807.5,1786.1,810,1794,813.2,1801.3z"/>
<path class="st22" d="M788.6,1622.3c72.3,0,144.5,0,216.8,0c0.1,0.7,0.3,1.4,0.3,2.1c-0.7,42.3,5,84.4,8.2,126.5
	c0.1,1.7-0.7,4.1,1.3,5.1c1.6,0.7,3-0.9,4.3-1.8c8-6.3,13.6-4,15.6,6.3c1.8,10.1,2,20.2,2.1,30.4c0.9,83.3,5.3,166.3,14.8,249
	c2.4,20.5,4.7,40.8,7.1,61.2c0.3,2.6,1.3,7.2,2.1,7.1c6-1.8,9.1,4.4,14.5,4.3c7-0.3,14.1,1.1,20.6,4c3,1.3,6.1,4.3,8.8,3.8
	c8.4-1.1,9.9,3.7,10.9,10.1c0.4,2.3,1.3,4.5,2.1,6.8c18.3,54.3,44.1,105.3,71.5,155.5c2.3,4.1,4,8,3.6,12.6
	c-4,48.2-3.6,96.3-2.6,144.5c0.7,32.1,1.7,64.2,3.7,96.3c0.3,4.7-1.1,6.1-5.4,7c-19.2,4-38.4,8.1-57.4,12.4
	c-41.2,9.2-82.1,19.6-124.1,25.2c-8.5,1.1-17.2,0.6-25,5.5c-4.3,2.7-9.7,1.7-14.4-0.6c-2.4-1.1-4.5-2.1-7.4-1.3
	c-5.1,1.7-10.2,1.3-15.3,0.4c-78.9-13.8-158.4-21.7-237.9-31.8c-20.3-2.6-41.1-4-60.3-11.7c-6.4-2.6-10.5-3.7-12.9,4.1
	c-0.3,1-1.4,1.8-2.7,1.3c-2-6.8,2.6-14.9-4.7-20.5c0-2.4,0-4.7,0-7.1c3.8-2.6,4.1-6.4,4.1-10.5c0.7-73,0.7-146.1-2.7-219.1
	c-0.1-2,0.9-4.3-1.4-5.8c0-3.3,0-6.7,0-9.9c5.7-4,8.1-10.2,11.4-15.9c27.4-48.5,54.6-97.1,81.7-145.7c3.3-5.8,7.5-9.4,14.5-9.5
	c5.8,0,11.8-1.1,17.6-0.6c6.3,0.6,8-2.1,9-7.7c4.4-24.2,9.7-48.2,13.9-72.3c7.2-41.2,14.8-82.3,13.6-124.5
	c-0.4-17.8,0.4-35.5,1.4-53.1c3-50.6,1.4-101.2,0.3-151.6C790,1675.6,789.3,1648.9,788.6,1622.3z"/>
<path class="st23" d="M832.5,2105.4c-11.2-4.4-22.9-5.5-34.7-6c-9.4-0.3-18.8-0.4-28,0c-5.7,0.3-7.1-1.8-5.8-7
	c1.4-6.4,2.7-12.8,4.4-19c3.1-11.8,5.7-23.6,5.3-35.8c-0.1-4,1.1-5.1,5.1-5.1c19.2,0.3,38.4,0.3,57.6,0.3c2.1,0,4.3,0.1,6.1,1.1
	c10.7,5.7,20.3,12.5,27.4,22.3c12.6,17.6,6.8,37.1-13.6,44.5c-4.5,1.7-9.1,3-13.8,4.4C839,2105.4,835.8,2105.4,832.5,2105.4z"/>
<path class="st23" d="M941.5,1955.7c-1.3,5.7-8.4,7.4-8.2,11.1c0.1,3.6,5.4,6.5,6.8,10.9c2.8,8.7,0.7,16.1-5,23.4
	c-7.7,9.9-16.9,14.8-29.7,15.2c-11.7,0.4-23,2.6-34.8,1.1c-25.9-3-40.5-30.1-28-52.9c2-3.6,2.6-7.2,2.8-11.4
	c0.4-9.4,3.1-11.8,12.4-11.7c16.3,0.3,32.7-0.4,48.9,1.3c5.8,0.6,11.7,2,14.5,7.1c3.4,5.8,7.8,6.4,13.5,5.7
	C936.8,1955.4,938.9,1955.7,941.5,1955.7z"/>
<path class="st24" d="M1196.6,2552.1c-3.8-0.6-7.5,0.9-11.1,1.6c-4.7,1-9.1,2.4-7.1-6c-5.4,2.4-9.9,4.5-15.1,3.8
	c-2-0.3-2.7,1.1-3.8,2.4c-8.7,10.8-22,12.4-33.3,3.7c-2.1-1.7-2.8-1.4-4.5,0.3c-6.5,6.4-14.1,8.4-22.7,5c-2-0.9-2.8,0-4.3,1
	c-9.8,7.5-13.6,8.1-24.9,4.3c-1.7,2-1.6,4.8-1.8,7.1c-0.3,3.3-1.3,4.8-4.8,5.7c-8.2,1.8-8.5,2.1-9.1-6.5
	c-3.4-50.3-4.4-100.6-2.7-151.1c0.7-18.2,0.4-36.4,3.1-54.4c0.6-3.4-3-5.1-2.3-8.5c0.4-2.7,0.3-4.5,3.8-4c3.8,0.6,7.8,0.3,10.9-2
	c15.2-10.7,33.3-14.4,50.4-20.2c23.4-8,46.9-15.9,70.3-24.2c5.3-1.8,6.8-1.4,6.4,4.7c-2.1,30.4-3.1,61-2.6,91.5
	c0.6,35,1.7,69.9,2.4,105c0,2.3,2.4,6-2.3,7c-0.3,0-0.4,1.1-0.4,1.1c8.1,3.7,0.4,12.5,5.4,17.1
	C1196.6,2541.5,1196.6,2546.8,1196.6,2552.1z"/>
<path class="st24" d="M927.4,2346c-53.6-2.3-106.9-8-159.9-16.1c-6.5-1-13.1-2-19.8-2.3c-7.7-0.3-14.2-4.3-21.7-5.5
	c-4-0.7-5.5-4.8-6.8-8.4c-3.7-10.2-2.6-20.6,0-30.7c14.4-58.8,60.4-98.6,120.6-104.4c27.7-2.7,54.7-0.6,80.3,11.5
	c5.1,2.4,9.4,4.7,8.7,11.7c-0.4,3.7,2,7.1,3.7,10.5c9.7,17.9,18.6,36.1,29,53.6c7.2,12.1,9,24.6,7.8,37.9
	c-0.6,7.1-1.3,14.1-2.3,21.2c-1.4,11.7-7.1,17.8-18.5,20.3c-1.8,0.4-3.7,0.9-5.5,1C937.8,2346.2,932.7,2346,927.4,2346z M928.6,2290
	c1.1,4,2.4,7.2,3,10.7c0.4,3.4,0.3,7,0.1,10.5c-0.1,2.1-1,4.3,2.4,4.4c2.6,0.1,4.7,0.1,4.8-3.3c0.3-4,0.9-8,1.1-11.9
	C940.6,2288.3,940.6,2288.3,928.6,2290z"/>
<path class="st25" d="M1056.2,2134.6c3.4,0,6.1,0,8.8,0c-18.8,6.1-37.1,12.5-55.7,18.6c-3.1,1-5.5-0.7-8-2.3
	c-9-5.7-12.2-14.6-13.5-24.6c-0.6-4-1.1-6.4-6.3-7.5c-9.9-2-13.8-10.2-14.6-19.5c-1.6-15.1-2.8-30.1-3.7-45.2
	c-3.3-61-6.3-121.8-9.5-182.7c-1.4-27.6-2.6-55.3,0.1-82.8c0.6-5.3,1.3-10.9,8-11.8c6.3-0.7,9.2,3.8,11.2,9
	c6.3,15.8,8.7,32.4,10.7,49c3.7,30.3,6.5,60.7,7.8,91.1c0.1,2.6,0.6,5,1.4,7.5c1.7-69.6,8.1-138.8,18.2-207.6c0.7,0,1.4,0.1,2.1,0.1
	c0.7,8.8,1.6,17.6,2.1,26.4c0.3,4.5,2.1,4.5,5.3,2.3c9.1-6.7,14.4-4.7,15.9,6.7c1.3,9.5,2.1,19.3,2.1,29c0.1,59.4,3,118.7,7.7,177.8
	c3.6,44.1,9.2,88,14.1,131.9c0.4,4.1-0.9,11.5,8.5,7.4C1068.7,2118.5,1063.3,2126.5,1056.2,2134.6z M1025.3,2108.6
	c5.3-5.7,1.8-9.8,0-13.9C1025.3,2098.8,1025.3,2102.9,1025.3,2108.6z"/>
<path class="st25" d="M673.9,2441.2c9.1-11.9,5.1-23.4-1.6-35c-0.9-1.4-4.3-3.6,0.7-4.8c1.1-0.3,0-3-0.3-4.5
	c-2-12.8-4.3-25.7-2.1-38.8c0.3-1.4,0.3-2.8,0.6-4.3c1-3.6,1.1-8.4,5.8-8.7c5-0.3,5.3,4.8,6,8.2c3.6,16.1,5.1,32.3,4.8,48.6
	c-0.1,4.7,1.4,6.7,5.8,8c6.8,2,13.6,3.3,20.7,3.7c18.9,0.9,37.1,6.5,55.7,9.8c47.3,8.7,94.5,18,142.8,20.6c8.2,0.4,16.3,2.3,23.9,6
	c7.1,3.4,11.7,9,11.7,17.2c0,2.7,0.9,4.4,2.8,6c3.7,3.3,2.7,7.1,1,10.9c-1.7,4.3-4.8,3.4-8.2,2.8c-68.5-9.5-136.3-22.9-204.1-36.8
	c-20.2-4.1-40.5-7.1-61-8C677.2,2442.6,675.5,2443.1,673.9,2441.2z"/>
<path class="st26" d="M863.9,2183.3c7,0,14.1,0,21,0c1.7,2.7,4.5,1.8,7,2.3c30.7,6.7,54.1,23.7,71.9,48.9c8.8,12.5,11.5,26,2.1,39.6
	c-1.4,2-0.9,4-0.6,6c1.3,9.2,0.4,18.5-7.2,24.3c-6.8,5.3-12.6,13.8-21.6,14.6c-9,0.7-18.5,2.4-27.1,0.6c-26.1-5.8-53-4.7-79.4-8.8
	c-18.6-3-37.7-3.3-56.3-7.4c-11.4-2.6-13.8-4.8-15.6-15.9c-0.3-1.7-0.7-3.7-2.6-4.7c0-4.3,0-8.4,0-12.6c2.3-1,2-3.4,2.7-5.3
	c5.7-13.2,11.5-26.7,21.6-36.9c15.9-15.9,34.8-28.1,56.4-35.5C845.4,2189.1,854.7,2186.3,863.9,2183.3z"/>
<path class="st27" d="M922.7,2271.6c0,6.5,0,13.1,0,19.6c-2.4,1.3-2,4-3,6c-9.2,18.8-16.1,27.1-32.5,27.3c-23.6,0.1-46.8-3.6-69.6-9
	c-1.4-0.3-2.4-1.1-3.4-2.3c-7.1-8.4-16.9-15.5-11.5-28.8c0.1-0.4,0-0.9-0.1-1.4c-1.7-11.5,2.8-21,9.9-29.6
	c4.7-5.7,9.9-11.1,12.8-18.2c1-2.6,3.1-4.7,6.7-5c-0.1,1.7-0.6,3.3-0.4,4.8c0.3,10.9,1.7,21.5,11.4,28.6c1.6,1.1,3.1,3.3,5.4,0.9
	c10.8-11.9,18.6-24.6,16.3-42.1c-1.4-10.9-3.4-21.6-6.1-32.1c0.4,0,1,0,1.4,0c11.9,4.5,22.6,12.1,30.4,21.3
	c10.8,12.8,20.5,27,26.9,43.1C919.2,2260.2,919.6,2266.3,922.7,2271.6z"/>
<path class="st28" d="M714,2299c4.3-4.5,7.7-9.2,7.4-16.2c-0.3-5.8,2.1-11.8,6.1-16.1c6.4-7.1,10.1-15.6,14.5-23.9
	c10.5-19.9,26.9-32.5,47.6-40.2c8.8-3.3,17.5-7.1,27.3-9.5c-5.3,5.5-10.4,11.4-15.9,16.6c-26.1,25.2-35.1,56-31,91.2
	c1,8.2-2.7,15.5-3,23.4c-0.1,2.3-2,2.1-3.7,2c-8-0.6-15.9-0.9-23.9-1.6c-11.7-1-19.6-7.7-25.2-17.5C714,2304.5,714,2301.8,714,2299z
	"/>
<path class="st29" d="M917.2,2386.1c-8.1-4-16.9-3-25.4-4c-22.9-2.6-45.9-3.7-68.8-6.1c-41.5-4.4-83.3-7.5-123.9-17.9
	c-9.2-2.3-16.8-6.3-22.3-13.9c-2.4-3.3-0.7-5.5,1.7-7c15.6-9.4,32.3-14.8,50.7-12.6c26.1,3,52.3,5.4,78.4,8.2
	c24.3,2.7,48.5,5.5,72.6,9c24.9,3.6,49.9,6.3,74.7,9.1c2.6,0.3,5.1,0.4,7.5,1.6c5.8,2.6,9.1,7,8,13.4c-1.1,6.3-5.4,9.8-11.8,10.4
	c-3.8,0.3-7.8-0.6-9.4,4.7c-0.6,1.8-3.6,2-5.4,2.8c-2.7,1.3-6.3,0-8.5,2.6C929.4,2386.1,923.3,2386.1,917.2,2386.1z"/>
<path class="st30" d="M1115,2120.8c-8,13.4-22.3,16.3-35.4,19c-19.6,4-38.4,10.8-57.8,14.5c-1.4,0.3-3.1,0.4-4,1.3
	c-9,8.8-19,3.8-28.8,2.7c-25.9-3-51.4-7.2-77.4-9.7c-32.5-3-64.9-6.4-97.5-9.4c-10.9-1-22-1.6-33.1-1.7
	c-18.8-0.4-36.7-4.8-54.4-10.5c-4.4-1.4-3.6-2.4-1.6-6c6.7-12.4,17.9-9.9,27.9-8.4c18,2.7,36.1,2.1,54.1,3.7
	c27.1,2.3,54.3,5.1,81.3,8.1c20.7,2.3,41.6,4.1,62.4,6.1c18.2,1.7,36.5,3.4,54.7,5.3c3.7,0.4,7-0.4,10.4-1.6
	c26.1-8.2,52.4-16.6,78.7-24.9c10.9-3.4,15.1-1.6,20.6,8.2C1115,2118.9,1115,2119.9,1115,2120.8z"/>
<path class="st23" d="M530.7,2578.1c1.3,2.1,3.8,1.4,5.7,2.3c6.7,3.3,8.8,8.2,5.5,14.6c-2,4-3.7,8.1-7,11.1
	c-4.4,4.1-1.6,4.8,2.3,5.7c18.3,4.5,37.1,5.5,56,4.4c14.5-0.9,29.1-1.6,43.3-5c0.9-0.1,1.6-0.6,2.6-0.9c-0.9-3.7-7.1-0.9-6.3-5.1
	c0.7-3.7,4-6.1,7.2-8.1c10.9-6.3,26.9-2.6,34.7,8c7.1,9.7,4.7,22.9-5.8,31.4c-9.1,7.4-20.2,10.7-31.7,12.5
	c-35.7,5.5-71.3,7.5-107-0.6c-11.4-2.6-21.9-7-30.1-15.5c-4.1-4.3-5.5-9.9-8.7-14.8c0-4.1,0-8.2,0-12.5c4-9.2,9.2-17.3,18.5-22.5
	c3.3-1.7,7.1-2.3,9.7-5.3C523.1,2578.1,526.8,2578.1,530.7,2578.1z"/>
<path class="st23" d="M1078,2653.7c6.5,3.6,12.8,6.7,18.8,10.1c3.1,1.8,5.8,4.3,5.1,8.4c-0.9,4.4-4.3,5.8-8.2,6.4
	c-8.7,1.4-17.5,0.7-25.9-1.3c-23.9-5.7-47.9-11.5-71.2-19c-5.3-1.7-10.8-3.3-13.8-8.8c-1.6-2.8-4.5-2-7-2.1
	c-9.9-0.7-18.9-3.7-26.3-10.4c-2.4-2.1-4.8-4.5-3.4-8.4c1.4-3.8,4.8-5,8.5-4.7c15.2,1.6,30.7,0.1,45.5-2.3
	c15.2-2.4,30.3-3.6,45.3-3.1c36.4,1.1,72.8,2,109,4.3c11.8,0.7,23.3,5,34.8,8c3.1,0.9,6.7,2.4,6.3,6.4c-0.3,3.6-3.8,4.5-6.8,5.1
	c-17.9,3.3-35.1,9.5-53.9,8c-15.9-1.3-32,0.3-47.9-1.3C1082.7,2648.5,1081,2651.8,1078,2653.7z"/>
<path class="st12" d="M430.8,2571.1c0-6.7,0-13.2,0-19.9c2.1-0.7,1.6-2.7,1.6-4.3c0-15.3-0.1-30.7-0.3-46c0-1-0.3-1.8-1.3-2.1
	c0-6.7,0-13.2,0-19.9c2.3-1.6,1.3-3.8,1.3-5.8c0.1-47.7,0.1-95.3,0.1-143.1c0-2,1.1-4.3-1.4-5.7c0-3.3,0-6.7,0-9.9
	c2.8-10.2,0.7-20.9,1.3-31.3c0.1-2.7,1.6-6-1.3-8.5c0-4.7,0-9.5,0-14.2c2.7-1.1,1.6-3.7,1.6-5.5c0.9-54.7,1.8-109.6,3.7-164.3
	c1.1-32.5,1.8-65.1,4.3-97.6c0.4-4.8-2.1-11.7,1.4-13.9c3.1-2,9.4,0.3,14.1,1.3c4.1,0.9,4.5-0.9,4.5-4.3c-0.3-9.4-0.4-18.9-0.6-28.3
	c-1.7-65.4-4.3-130.7-1.4-196.1c0.6-12.6,2-23.7,14.4-30c1.4,0,2.8,0,4.1,0c3.8,1.8,9.1,6.3,11.1,5.1c6.4-4,12.2,5,18.5-0.4
	c1.8-1.7,5.1,1.1,6.5,3.8c2.3,4.4,3.6,9.1,3,14.2c-1.6,13.4-3,26.7-4.1,40.2c-7.1,85.1-3.3,170.4-5.3,255.6c-0.6,24,0.9,48.2,1,72.2
	c0.1,113.8,0,227.6,0,341.5c0,37.4,0,74.6-1,112c-0.1,2.6,0.6,5.3-2.8,6.3c-17.8,5.3-34.7,14.4-54.4,9.4
	C441.6,2579.8,433.5,2580.8,430.8,2571.1z"/>
<path class="st31" d="M471.7,1725.9c0,2.4,0,4.7,0,7.1c-4.3,8.4-4.3,17.9-3.7,26.6c2.3,30.4,1.6,60.8,1.6,91.4
	c-0.3,92.8-5.7,185.4-6.1,278.1c-0.4,75.3-2.8,150.6-1.1,225.9c0.7,30.4,0.4,60.8-0.3,91.4c-1.1,46.8-2.7,93.5-2.4,140.3
	c-14.1,0-27.9-2.8-41.6-4.1c-11.4-1.1-12.8-2.4-12.5-14.4c0.9-35.4-0.7-70.8-0.9-106.3c-0.1-88.8,0.3-177.6,2-266.3
	c0.9-46.8,2.1-93.5,3.7-140.1c2-56.4,1.7-112.8,0-169.2c-1.1-42.5-2-85,1-127.5c0.6-8.2,1.3-16.5,3.8-24.4c1.6-4.8,4.8-8.7,9.7-6
	c5.3,2.8,8.1,0.3,11.4-2.6C446.8,1716.1,461.8,1716.2,471.7,1725.9z"/>
<path class="st32" d="M970.6,2639.4c-4.5-3-9.7-2.6-14.6-2.8c-4-0.3-5.5-1.6-5.7-6c-1.6-86.8-0.4-173.8,0.3-260.6
	c0.6-55.7,1.8-111.4,3.6-167.1c1-33.3,2.1-66.5,4.4-99.8c0.9-12.2-0.4-24.6,1.8-36.7c0.4-2.6,1.1-5.1,1.7-7.5c0.7-3.1,2.3-5.1,6-3.8
	c4.5,1.4,4.8-1,4.5-4.8c-2.8-39.8-2.7-79.7-3.4-119.6c-0.7-37.8-1.1-75.6-1.1-113.3c0-20,0-40.2,2.3-60.1
	c0.9-7.2,0.6-15.6,10.7-17.6c2.1-0.4,1.6-3.1,1.8-5c0.9-4.7,1.4-9.4,2.4-13.9c0.9-3.7,3-6.4,7-7.1c4-0.7,7,1,9,4.3
	c2.6,4.1,5.3,6.1,10.7,4.8c5.5-1.1,7.8,4,9.7,8.5c0.7,1.8,0.3,4.8,4.3,4.1c5-0.9,7.1,2.6,8.1,7c1.3,6.3,2.3,12.5,1.1,19.2
	c-2-2.3-1.1-7.1-5.3-6.3c-4.5,1-4,5.4-4.1,8.7c-2.4,43.3-2.1,86.8-1.6,130.3c1,83.3,4.3,166.7,3.7,250c-1,127.9-0.9,255.9-1.3,383.8
	c-0.1,31.1,0,62.4,0.4,93.5c0,5.5-2,7.5-7,9.1c-12.5,3.8-25.4,4.8-38.1,7.4c-1.1,0.3-2.4,0-3,1.4
	C976.2,2639.4,973.5,2639.4,970.6,2639.4z"/>
<path class="st12" d="M1354.7,2169.1c0.6,66.1,1.1,132.3,1.7,198.4c0.6,60.7,1,121.4,1.8,182c0.1,5.8-1,8.5-7.4,9.8
	c-15.5,3-30.6,7.7-45.3,13.2c-13.2,5-17.3,0.1-17.6-11.4c-1.1-52.4-3.4-104.7-4.4-157.2c-2.8-135.4-4.1-271-2.8-406.4
	c0.6-52.6,0.9-105.3,4.1-157.9c1.3-21.5-1.1-43.3-0.1-65.1c1.6-34.1-2.7-67.9-5-101.7c-2.1-30.4-2.3-60.8-2.7-91.4
	c-0.1-9.9,7.4-14.2,13.6-19c2.6-2,3.6-3.4,3.6-6.5c-0.1-13.1,7.4-21.3,20.6-22.5c8-0.7,16.1-0.6,24-1.6c5.5-0.7,6.5,1.1,6.5,6.4
	c0,34.5-0.1,68.9,0.9,103.4c1.1,44.6,1.8,89.2,2.6,133.9c1,70.6,4,141.1,3.7,211.7C1351.9,2047.7,1354.6,2108.4,1354.7,2169.1z"/>
<path class="st10" d="M1310.5,1933.9c-2.7,2.1-1.3,5.3-1.4,7.8c-2.8,72,0.6,143.9,0.4,216c-0.3,92.1-0.9,184.2-2.4,276.2
	c-0.7,44.5,1,88.7,1.8,133.1c0.1,5.7-0.7,7.8-7,7.5c-10.5-0.6-21.2-0.3-31.8-0.1c-7.4,0-10.2-2.3-10.4-9.8
	c-1.1-35.8-1.4-71.8-3.3-107.6c-1.8-38.5,0.4-77-1.6-115.4c-6.5-121.9-1-244-2.7-366c-1.3-95.3,0.6-190.7,0.1-286
	c-0.1-45.3,0-90.7,4.7-135.8c0.3-2.7-0.6-5.1-1-7.7c-2-9.9,7.1-19.9,17.1-19c9.4,0.9,18.8,1.6,28.1,2c3.6,0.1,4.8,1,5.1,4.8
	c2.4,45.3,3.1,90.7,3.3,135.8c0,0.4-0.3,0.9-0.4,1.3c0,52.3,0,104.7,0,157c0,26.7,0,53.4,0,80.1c0,2.4-1.3,5.1,1.1,7.2
	C1310.5,1921.7,1310.5,1927.8,1310.5,1933.9z"/>
<path class="st31" d="M965.8,2642.3c-8.1-3.7-16.9-3-25.3-4c-18.5-2.3-18.2-1.8-18.6-20.5c-2-91.4-0.1-182.7,0.7-274.1
	c0.4-45,2.6-90.1,3.1-135.1c0.1-13.1-2.6-26.1-2.6-39.4c0.4-57.1,4.3-114.1,5.5-171.2c1.4-61.8,0.4-123.6-2-185.4
	c-0.7-19.6-0.1-39.2,0-58.8c0-1.8,0.3-3.7,0.7-5.5c1-5,4-8.1,9.2-8.1c5.5,0,8.8,3.6,9.4,8.8c0.9,8,1,15.9,2.8,24c0-2.4,0-5,0-7.4
	c0.1-6,2.7-10.1,8.7-11.1c5.7-1,9.4,2.1,11.4,7.4c0.6,1.6,1.3,3.1,1.4,4.7c0.6,7.1,3.7,11.2,11.1,11.5c4.5,0.3,4.5,3.7,4.3,7.2
	c-2.4,29.1-4,58.4-3.8,87.7c0.3,41.8,1,83.6,2.1,125.3c2.3,77.4-3.3,154.7-3,232c0.3,97.1-4.1,194-4.4,291c-0.1,38.9-1,77.9,0,116.8
	c0,1.4,0.3,2.8,0.4,4.3C973.3,2642.3,969.6,2642.3,965.8,2642.3z"/>
<path class="st14" d="M217.8,1772.1c0-0.4,0-1,0-1.4c7-2.3,12.9-7,20.2-8.2c15.6-2.7,30.8-7.2,45.8-12.2
	c52.2-17.2,100.9-42.2,149.6-67.1c70.5-36.1,139.1-75.3,202.8-122.5c30.8-23,62.2-45.2,94.8-65.8c15.6-9.8,32.1-18.2,51.4-17.2
	c31.3,0,62.4,0.1,93.5,1.4c30.4,1.3,61.1,1,91.4,3.7c56.6,5.1,113.1,9.9,169.8,10.2c79.3,0.3,158.3,5.4,237.3,9.7
	c38.7,2.1,77.4,3.8,116.2,2.3c18.5-0.7,18-0.7,24.6,16.8c2.4,6.5,1,10.8-2.4,16.1c-25.4,38.1-56.6,71.2-90.5,101.7
	c-28.1,25.3-59.1,47-89.5,69.3c-32.1,23.6-63.7,47.9-96.5,70.3c-22.7,15.6-46.6,29.6-68.9,45.9c-5.5,4-10.9,8.1-17.3,10.9
	c-17.3,8-34.7,16.1-52,24c-1.7,0.9-3.3,1.7-5.3,1.7c-38.5-0.3-77-0.3-115.7-0.9c-53-0.9-105.9-4.7-158.7-6.4
	c-96.9-3.3-193.8-5.3-290.6-9.5c-46.3-2-92.5-4.3-138.7-8.7c-38.4-3.7-76.4-9.7-115-11.1c-10.1-0.4-20.3-0.7-30.1-3.8
	c-3.1-1-6-4-8.5,1.1c-0.9,1.8-3,0.9-4.1-0.6c-6.4-8.4-11.5-17.6-10.2-28.4C222,1785.7,220.5,1778.9,217.8,1772.1z"/>
<path class="st33" d="M379.8,1711.7c10.4-5.1,20.7-10.1,31-15.3c3.3-1.7,5.3-2,7.1,1.8c3,6.4,8.2,9,15.2,10.9
	c18.2,5.4,36,3.6,53.7-0.7c29.6-7.1,57.3-18.5,82.3-36c17.5-12.2,34-5.7,39.1,14.9c6,24,19.5,34.8,46.9,36.8
	c40.2,2.8,74.7-11.5,106-35.4c4.1-3.1,8-6.7,12.2-9.7c13.5-9.4,28.7-4.5,34.2,10.8c0.1,0.3,0.1,0.4,0.1,0.7
	c15.9,51.7,56.7,61.8,96.9,51.7c21.6-5.4,40.9-15.2,57.7-30.1c15.9-14.2,28.8-12.2,40.1,5.5c16.3,26,41.5,37.2,70.5,41.9
	c23.7,3.8,46.8-0.9,68.8-8.7c9.4-3.3,17.9-9.9,26.7-15.3c9.9-6.3,17.9-5.3,27.7,0.6c5.7,3.4,9.9,9.9,17.9,9.7c4.7-0.1,1.8,3.4,1,5
	c-4.3,8.4-17.8,12.4-28.1,8.1c-2.8-1.1-4.5-1.1-7,0.6c-27.6,19.5-57.7,32.5-91.4,36.8c-1,0.1-1.8,0.4-2.1,1.4c-6.5,0-13.2,0-19.8,0
	c-0.7-2-2.7-1.7-4.1-2c-32.4-4.7-59.3-19.3-80.6-44.1c-2.7-3.1-4-3-7.1-0.7c-23.2,17.1-49,27.6-77.6,32
	c-47.2,7.4-90.4-12.1-113.4-51.7c-3.4-6-5.3-5.1-10.1-1.8c-39.1,26.3-81.6,40.5-129.5,34.4c-28.6-3.7-52.3-15.5-66.5-41.9
	c-2.3-4.3-4.1-2.1-6.5-0.9c-24.4,13.6-50.4,23.2-77.7,29.4c-24.4,5.5-49,7.4-73.2-1c-12.2-4.3-23.2-10.1-29.7-22.2
	c-2.8-5.3-7.2-9.7-10.8-14.4C379.8,1712.7,379.8,1712.1,379.8,1711.7z"/>
<path class="st33" d="M692.5,1521.8c8.8-6,17.2-11.5,25.6-17.3c2.1-1.4,3.1-1.6,5.1,0.6c3.8,4,8.7,6,14.4,7
	c21.7,3.8,43.3,6.4,65.2,1c17.1-4.1,32.4-11.9,45.9-22.7c11.1-8.8,22.9-9.8,35.8-8.8c2.7,0.3,4.3,1.8,5.8,3.6
	c4.7,5,6.8,11.1,8.8,17.5c5.5,18,11.1,22.5,30,24.6c12.6,1.4,25,0.4,37.2-2.7c24.4-6.3,47.3-15.8,67.2-31.4c1.8-1.4,3.6-1,5.3-1
	c5.4,0.1,10.9,1.3,16.2,0.7c7.1-0.6,10.4,3.1,12.5,8.8c0.9,2.4,1.7,4.8,2.6,7.2c7.7,23.9,20.2,34.2,45.5,36.2
	c39.8,3.3,74.7-9.8,106-33.4c11.7-8.8,21.9-6.4,28.3,6.8c4.4,9.2,9.5,18.3,15.6,26.7c9.4,12.9,24,15.6,38.9,16.9
	c18.8,1.4,36.5-3.4,54.1-8.5c12.6-3.7,25.2-8.1,37.8-11.5c9-2.4,16.2-7.2,22.7-13.5c8.5-8.1,12.9-8.2,21.6-0.4
	c0.7,0.6,1.4,1.6,2.1,1.6c10.4,0,14.9,9,21.9,14.2c3.7,2.8,2,8.8-4,9.5c-10.5,1.4-8.2,8.1-7.8,14.5c0.1,3.6,0.9,7,1,10.5
	c0.1,6-3,8.4-8.5,6.3c-6.7-2.6-11.1-7.7-15.3-13.1c-1.6-1.8-0.6-2.8,0.9-4c1.8-1.6,3.7-3,5.3-4.7c1.4-1.4,4.7-3,3.7-4.4
	c-1.7-2.6-4.7-4.7-7.4-6.3c-1.6-0.9-3,1.1-3.7,2.6c-2.6,5.4-7.4,8.2-11.9,11.7c-19.2,14.2-40.6,23.7-63.1,31.1
	c-8,2.7-15.8,3.6-24.3,2c-6.1-1.1-12.6,0.7-18.9,0.9c-15.8,0.4-31-2.3-45.5-8.4c-14.8-6.3-26.7-15.9-34.8-29.7
	c-2.4-4.1-4-4.8-8.4-2.3c-32,18.5-66.1,28.4-103.3,25.9c-24.2-1.6-46.5-8.2-64.1-25.7c-3.1-3.1-5.8-6.8-8.8-10.1
	c-3.3-3.7-4-10.8-8.2-11.4c-3.7-0.6-8,4.3-12.1,6.5c-30.7,15.9-62.8,25.6-97.8,22.7c-9.9-0.9-19.5-3-28.8-6.7
	c-14.2-5.5-25-14.9-31.7-28.6c-1.8-3.8-2.7-4.7-6.7-1.7c-36.4,26-76.7,32.4-119.8,22.6C720.8,1549.1,705.7,1536.9,692.5,1521.8z"/>
<path class="st33" d="M1335.8,1678.3c-6.1,0-11.5-2.4-14.4-7.5c-2.7-4.8-4.8-3.8-8.5-1.3c-15.9,10.9-31.8,21.9-50.3,28.1
	c-28.1,9.7-56,8.7-83.8-1.1c-8.7-3-17.9-3.4-26.1-8.5c-8.2-5.3-16.3-10.4-22.5-18c-3-3.7-4.7-4.4-9.5-2.1
	c-45.8,21.5-93.5,32.4-144.1,22.7c-26-5-46.2-19.5-59.5-42.6c-2.4-4.1-4-4.1-8-1.8c-33.4,19.3-69.2,29.6-108,27.4
	c-34.4-1.8-62.4-15.3-79.6-46.6c-2.3-4.1-4.1-2.4-6.5-1c-20.2,10.9-41.2,19.8-64.1,23c-28.4,4.1-55.4,0.7-79.9-15.6
	c-5.3-3.6-9.8-8.1-14.1-12.8c-2-2.3-2.1-3.6,0.7-5.4c9.8-6.1,19.5-12.4,29.1-18.6c1.7-1.1,2.8-1.6,4.8,0
	c20.2,15.9,43.1,14.9,65.9,8.5c21.3-5.8,40.9-15.3,58.1-29.4c15.3-12.5,33-5.3,36,14.2c3.7,24.6,18.3,40.1,43.8,42.5
	c43.2,4.1,82.1-7.2,115-36.4c5.8-5.3,12.2-8.1,20-5.4c7.1,2.4,11.2,7.5,12.6,14.8c6.5,32.5,23.9,48,57,49.9
	c37.7,2.1,73.5-6.7,108.1-20.3c4.4-1.7,8-4,9.7-9.4c2.4-7.5,9.8-11.7,17.2-10.9c7.4,0.7,13.4,6,14.4,14.2c0.6,5.1,3,7.7,7,10.5
	c11.4,8,22.3,16.5,35.2,22c11.7,5.1,23.7,6.8,36.5,6.8c31.3,0.1,59.4-9,84.7-26.9c5.7-4.1,11.7-2.7,17.6-2.6c0.7,0,1.8,0.6,1.8,0.6
	c-1.4,7.1,5.8,6.8,8.8,9.9c5.3,5.4,7.5,11.9,8.2,19C1349.9,1674.4,1344.1,1678.4,1335.8,1678.3z"/>
<path class="st34" d="M228.1,1776.8c7.1,0,14.1,0,21.2,0c1.6,2.6,4.3,1.6,6.4,1.7c21.6,1.4,43.1,2.6,64.7,4.1
	c91.1,6.5,182.3,12.5,273.7,14.5c71.3,1.6,142.7,5,213.9,10.1c52.2,3.8,104.4,8.5,156.7,9.4c32.7,0.4,65.4-1,97.9,0.4
	c23.9,1.1,47.7,3.4,71.6,0.6c4.1-0.6,8,0.6,11.1,3.4c6.4,5.5,4.8,13.1-2.4,17.1c-9.4,5.1-19.3,6.5-29.8,6.7c-1.8,0-4.7-1-5.1,2.1
	c-1.3,12.1-11.5,13.9-20,14.2c-52.4,1-104.7,0.4-157.2-1.6c-64.5-2.6-129-6.1-193.7-7.7c-78.7-1.8-157.3-4.4-235.9-8
	c-46.8-2.1-93.4-5-139.8-10.1c-11.4-1.3-22.5-4.5-33.7-5.5c-13.2-1.3-26.7-0.6-40.1-1.7c-14.2-1.1-28.7-0.4-42.5-5
	c-3-1-5.4-2.8-7.5,1.3c-1.3,2.3-3.4,0.9-4.5-0.7c-6-8-10.8-16.5-10.1-26.6c0.4-5,0.3-9.5-0.6-14.4
	C222.9,1777.8,226.6,1778.6,228.1,1776.8z"/>
<path class="st35" d="M1507.3,1504.5c5.8,7.1,6.7,16.2,9.9,24.3c1.1,3-2.3,5.4-3.8,8c-28.6,43.6-64.5,80.7-104.2,114.2
	c-37.7,32-79.6,58.4-118.2,89.1c-36.9,29.4-78.2,52.7-116.1,80.6c-13.2,9.7-27.4,17.1-42.3,23.6c-11.2,5-22.2,10.1-33.1,15.6
	c-5.4,2.7-8.5,1.8-10.9-3.7c-3.4-7.7-7.1-15.2-10.8-22.9c-0.9-1.8-1-4.3-3.8-4.5c0-3.3,0-6.5,0-9.8c58.8-23.4,114.5-53,166.1-89.8
	c35-25,69.2-51,102.5-78.3c51.9-42.5,99.9-89.1,141.2-142.2c1-1.3,1.7-2.7,2.4-4.1C1493.1,1504.5,1500.2,1504.5,1507.3,1504.5z"/>
<path class="st0" d="M1635.5,2406.1c7.1,0,14.1,0,21.2,0c0.9,1.4,2.7,0.9,3.7,1.6c4.1,2.7,10.7,3.4,11.8,8.5
	c1.3,5.3,0.9,11.4-0.4,16.6c-3.7,15.8-8.4,31.1-14.6,46c-1.6,3.8-2.8,8-7.1,10.1c-0.7,0.4-1.7,1.6-1.6,2c2.3,7.2-4,9-8,11.2
	c-6.7,3.7-14.1,6.4-21.2,9.5c-2.3,1-4.8,1.7-6.3,4.3c-3.7,6-7.8,11.5-10.8,18c-5.3,11.8-5.3,11.7,5.4,17.6c6.8,3.8,12.8,9,19.2,13.1
	c9.8,6.4,16.5,15.6,15.6,27.1c-0.3,4-1.6,8-5.1,9.5c-8.2,3.7-15.5,9.9-24.6,11.5c-8.7,1.4-16.9,4-25,7c-4.3,1.6-7.4,1.1-11.1-1.4
	c-11.8-8.2-24.9-11.9-39.2-10.2c-15.8,1.8-28.1,16.6-25.6,31.3c0.9,5-0.7,6.7-4.8,8c-11.8,3.8-24,7.2-35.2,12.1
	c-14.6,6.3-28.3,5-41.6,0c-39.4-14.4-79.9-24.6-121.1-31.3c-8.8-1.4-17.6-1-23.4-10.5c-4-6.5-5.5-12.5,0.4-17.9
	c4.4-4,9.4-7.2,14.9-9.1c7.1-2.4,9.8-7.8,12.5-14.4c-3-0.1-5.3-0.3-7.5-0.3c-18.8-0.6-37.5-2.1-56-6c-8-1.7-16.3-3.1-22-9.5
	c-4.5-5-8-10.9-11.9-16.5c0.3-0.3,0.7-0.7,1-1c6.7,1.4,2.4-2.6,1.8-4.1c-3.6-7.7,1.1-18,9.1-20.3c8.5-2.4,17.2-5,25.6-7.7
	c4.8-1.6,10.4-4,10.7-9.1c0.3-8.5,6.4-9.4,12.1-10.9c4.4-1.1,5.5-2.8,4-7.4c-2.4-7.1-4.8-14.2-4.3-21.9c0.4-5.4,3.6-7,7.1-3.4
	c2.4,2.4,3.3,1.6,5.4,0c6.7-4.8,14.2-8.4,22.6-8.8c21.2-1,42.1-4.4,63-7.5c46.8-7.1,92.5-18.8,138.8-27.9c14.2-2.8,29-7,43.2-4
	c19.6,4.3,38.7,6.4,58.1,0.4c2.7-0.9,5.5-0.9,8.4-1.4C1627.1,2408.3,1631.8,2409.2,1635.5,2406.1z M1256.1,2544.1
	c10.8-0.1,21.6-0.4,32.4-1.8c19-2.6,38.2-4.8,57.3-7.1c5-0.6,5.7-2.3,2.6-6.1c-3.3-4-6-8.5-7-13.6c-0.6-3-2-3.6-4.8-3.1
	c-34.2,5.3-69.2,7.4-102.6,17.6c-9.5,2.8-9.2,2.6-4.7,11.2c1.8,3.4,4.5,2.8,7.1,2.8C1243,2544.2,1249.6,2544.1,1256.1,2544.1z"/>
<path class="st3" d="M1212.2,2541.8c2,1,4.1,2,6.8,3.3c-0.3-5.3-6.5-9.7-1.7-14.4c2.8-2.7,6.7-0.9,10.1,0c1,2.7-6.3,1.8-2.4,6
	c2.8,3.1,2.4,8.4,9.4,8.5c34.5,0.7,68.6-3.6,102.7-8.4c0.7-0.1,1.4-0.3,2.1-0.4c10.2-1.4,10.4-1.6,5-10.5c-2.1-3.4-1.7-4.5,2.3-5.5
	c20.7-5.1,41.5-10.5,62.2-16.1c2.1-0.6,3.7-0.3,5.3,0.9c2.7,1.7,4.8,3.8,8.7,3.4c2.4-0.3,3.6,2.7,4.4,4.8c1.3,3,0.9,6.3,1,9.4
	c2.4-0.4,1.8-2.3,2.4-3.4c2.4-4.1,5.1-7.8,10.5-5.7c5,2,7.1,6.3,6,11.5c-1.7,7.7-5,14.6-10.7,20.3c-10.4,10.4-21.6,19.5-34.4,26.9
	c-3.4,2-8.7,4.3-7.7,8.1c1,3.7,6.5,2,10.2,2.1c11.5,0.9,22.3-2.8,33.3-5.3c11.5-2.6,15.6-12.5,21.7-20.6c1.1-1.4,1.6-3.4,2.7-4.8
	c15.5-19.5,13.8-42.5,13.4-65.1c-0.1-5.8,2-9.4,7.2-8.7c14.4,1.8,27.3-3.7,39.9-8.5c47.7-18.2,95.8-35.2,143.9-52.3
	c4-1.4,5.8-1.8,5.7,3.6c-0.4,23.2-9.9,43.6-18,64.7c-7.1,3-4.4,12.8-11.5,16.2c-6.4,3-12.5,6.8-19.2,8.8
	c-11.4,3.3-16.3,12.5-20.2,21.9c-3.4,8.5-8.7,13.2-17.5,15.1c-6.4,1.3-12.5,4.1-18.9,5.7c-7.2,1.8-13.1,5.7-18.9,10.8
	c16.2-2.3,32.5-4.5,50.9-7.2c-10.8,7.5-21,11.5-32.3,16.8c11.2,1.7,19.9,5,21.7,16.6c0.6,3.4,2.8,1.4,4.3,1c10.9-3.4,22-7,33-10.5
	c9.7-3.1,13.9-2.4,16.1,2.7c3.4,8.2-0.3,17.9-8.2,21.5c-13.4,6-27.6,9.4-41.2,14.5c-7.1,2.7-12.8,2.8-19.5-1.8
	c-10.1-7.1-21.9-9.4-34.2-8.4c-17.1,1.3-29,15.2-27.1,32.1c0.3,2.6-0.3,3.6-2.4,4.8c-9.2,5.7-19.5,9.4-29.8,12.1
	c-6.8,1.8-13.1,4.7-19.3,7.5c-6.1,0-12.2,0-18.3,0c1-4-2.4-3.6-4.4-4.1c-4.7-1.3-9.8-1.8-14.4-3.4c-39.8-13.6-80.1-24.4-121.9-29.3
	c-10.4-1.1-13.6-8.1-18.9-14.1c-2-2.3-2.4-6-0.3-8.5c2.3-2.7,4.8,0.1,7,0.9c12.8,4,25.4,8.5,38.7,10.8c42.1,7.5,84.3,14.8,126.8,19
	c1.4,0.4,2.8,1,4.5-0.6c-1.8-0.6-3.1-1-4.4-1.4c-2.6-1-5.3-2-7.8-3c-1.3-0.4-3.3-0.3-3.3-2c0-1,1.4-2.3,2.6-3.1
	c6.1-4.5,13.6-2,18.3,5.7c1,1.7,0.7,5.5,4,4.5c2.4-0.9,5.7-1.7,6.1-5.1c1-7.2,6.1-10.8,12.2-13.2c8.4-3.4,16.9-6.7,26.4-10.5
	c-7.2-2-11.8-5.8-12.5-12.6c-1.1-10.8-2.8-11.7-12.6-8.2c-8.1,2.7-15.5,9.8-25.3,5c-0.3-0.1-1.4,0.4-1.7,0.9
	c-3,7.8-9.4,6.5-15.5,5.7c-27-3.7-54-8.2-80.6-14.1c-9.1-2-18.2-3-27-7.2c-5.3-2.6-14.2-7.8-20,2.3c-1.8,3.3-4.3,2.6-6-0.1
	c1-0.9,2.3-1.7,0-2.4c-21.2-0.7-42.2-1.8-63-6.3c-11.1-2.4-21.6-5.8-27.4-17.1c-2.1-4.1-5.7-7.4-8.7-10.9
	C1212.2,2542.8,1212.2,2542.4,1212.2,2541.8z"/>
<path class="st36" d="M1302.1,2573.9c21.6-1.1,43.1-0.6,64.7,1.7c18.2,1.8,36.1,5.4,54.1,7.8c13.1,1.8,15.1-1.1,23.3-11.4
	c5.4-6.7,10.8-14.6,21.3-17.2c47.7-12.1,94.1-28.7,140.8-44.1c5.7-1.8,10.4-6.1,18.5-7.7c-7.2,6.4-13.2,11.2-17.9,17.3
	c-3.7,4.8-6.8,9.8-6.1,16.5c0.4,5.3-1.6,9-7.7,10.7c-18.3,5.4-36.5,11.2-54.9,17.8c9.2,1,14.8,6.4,19.2,13.6c0.7,1.1,1.7,2.3,3,3
	c11.5,6,12.4,17.9,16.1,28.1c0.6,1.7,1,4.1-0.3,5.4c-1.7,1.7-3.4-0.6-5-1.3c-10.1-5-20.6-7.7-32-6.4c-8,1-15.1,4.1-19.9,10.7
	c-4.4,6-6.1,0.7-6.7-2c-1.7-8.1-1.6-16.3,1.1-24.2c2.3-7,5.4-13.6,8.1-20.5c-1-1.1-2.1-1-3.3-0.7c-23.7,7.4-47.2,15.6-71.6,20.5
	c-2.1,0.4-2.4,1.6-3,3.1c-2,5.5-5.8,7.5-11.7,6.4c-35.5-6.5-70.9-13.5-106.6-19.3c-8.1-1.3-14.6-7.8-23.4-6
	C1302.1,2575.2,1302.1,2574.5,1302.1,2573.9z"/>
<path class="st7" d="M1549.7,2391.6c0.1,2.7,2,2.7,4,2.8c9,0.4,17.8,1,26.7,1.4c9.7,0.4,19.3,2.1,28.8,1.1c19.8-1.8,37.5,6.7,56.4,9
	c5.1,0.6,2.8,5,1,7.7c-3.6,5-8.8,7.8-14.4,9.8c-50.4,18-100.7,36.2-152.3,50.3c-27.9,7.7-56.8,8.7-85.7,4.3
	c-15.9-2.4-32.3-2.8-48.2-4.8c-16.9-2.1-33.8-5.1-50.6-7.7c-1.6-0.3-3.3-0.9-4.8-0.6c-12.8,2.4-24.2,1-32.3-11.7
	c8.7-2.6,17.8-6.4,27.1-7.8c6-0.9,11.2-2.7,16.8-4.8c22-8.2,45.2-12.4,68.2-16.3c32.7-5.5,64.2-15.1,96.5-22
	c10.8-2.3,21.5-5.3,32.1-7.8c1.8-0.4,4-0.3,3.8-3c1,0,1.8,0,2.8,0c1,1.8,1.8,1.3,2.8,0c3.7,0,7.5,0,11.2,0c1.4,1.8,2.8,2,4.3,0
	C1546,2391.6,1547.8,2391.6,1549.7,2391.6z"/>
<path class="st7" d="M1212.2,2529.6c2.7,0.6,4.8-0.6,6.1-2.7c10.1-16.9,27-23.6,44.2-30.1c6.4-2.4,12.5-6.1,19-7
	c8.4-1.1,17.1,0.6,25.6,2.1c34,6.4,67.8,14.4,102.7,14.1c8.8-0.1,17.5,2.7,26.3,3.7c4.1,0.4,5.3,3.6,5.8,6c0.7,2.8-3,2.6-4.8,3.1
	c-14.6,4.8-29.4,9.8-44.2,14.2c-11.7,3.4-24,3.4-36.1,5c-22.3,3-44.6,5-66.9,6.8c-11.5,0.9-23-0.7-34.4-1.8
	c-7.8-0.7-15.8-0.6-23.7-1.7c-6.5-1-13.2-1.1-19.8-3.1C1212.2,2535.3,1212.2,2532.4,1212.2,2529.6z"/>
<path class="st7" d="M1539.6,2574.5c-8.5,1.1-17.2,1.7-24.4,7.4c-9.4,7.1-12.2,19.2-6.3,29.4c1.6,2.7,3.1,4.3-1.4,5.8
	c-17.5,6.1-34.5,13.2-51.4,21c-3.3,1.6-6.7,2.1-9.2-0.3c-7.7-7.4-17.6-12.4-23.2-22c-1.8-3.3-3.4-6.3-1.3-9.8c2-3.3,4.7-4.5,8.8-4
	c4.4,0.6,8.1-2.8,12.2-4.3c37.2-12.2,74.2-24.9,110.8-39.1c12.8-5,26.1-9.1,38.9-14.2c3.6-1.4,5.5,0.6,7.1,2.7
	c7.7,10.2,20.2,11.1,30.7,15.9c3.6,1.7,7.5,2.4,7.4,7c-0.3,4.8-3.8,6.7-8.5,6c-3.4-0.4-6.5,0.6-9.7,1.6c-11.9,4.1-24.2,8-35.8,12.5
	c-6.8,2.7-11.7,2.3-16.3-3.7C1560.9,2577.3,1550.4,2575.6,1539.6,2574.5z"/>
<path class="st8" d="M570.6,2406c2.3,0,4.7,0,7,0c1.1,2.6,3.7,1.4,5.5,1.8c26.6,4.8,54,5.5,78,20.6c11.8,7.4,17.2,15.1,15.1,29.3
	c-2.1,14.1-4,28.3-5.8,42.5c-4.4,32.7-8.8,65.5-10.9,98.5c-1,15.5-8.7,22.6-20.9,27.7c-3.3,1.4-6.5,2.6-9.9,3.6
	c-26.6,8-53.1,6.3-79.7,0c-24.9-6-37.1-17.5-40.4-45c-4.5-37.2-9-74.5-18-110.8c-1-4-0.9-8.4-4.1-11.5c0-3.3,0-6.5,0-9.8
	c2-0.6,1.6-2.7,2.3-4c4.4-7.5,5.7-17.5,13.8-22.3c11.7-7,21.2-17.9,36-18.8c0.4,0,0.9-0.9,1.4-1.4c2.8,0,5.7,0,8.4,0
	C555.5,2408,563.1,2408.8,570.6,2406z"/>
<path class="st37" d="M620.6,2479.6c-2.8,0-5.5,0-8.4,0c-1.8-2.6-4.8-2.3-7.4-2.4c-28.8-2.3-57-9.2-85.7-12.2
	c-3.3-0.3-5.1-2.6-6-4.8c-0.7-2.3,1.8-3.3,3.7-4.1c1.4-0.7,3.1-0.9,3.4-2.8c1.7-9.1,8.7-11.5,16.8-12.2c23.4-2,47-2.6,70.6-2.4
	c6.3,0,12.6,0.9,16.3,7c0.9,1.3,2.1,1.3,3.6,1.3c8.1,0.3,11.5,3.6,12.2,11.4c0.1,2.4-0.9,5,1.8,6.7
	C637.2,2473,629.7,2477.3,620.6,2479.6z"/>
<path class="st38" d="M560.1,2480.7c-18-2.3-36.2-3.8-53.1-11.1c-10.4-4.4-17.3-11.5-18.3-23.2s3.7-20.7,13.2-27.3
	c10.4-7.1,21.2-12.6,34.5-13.1c18.2-0.6,36.4,0.4,54.6-0.3c29.7-1.3,54,9.1,76,27.4c3,2.6,5.8,4.8,7.2,8.5c0,3.3,0,6.5,0,9.7
	c-5.3,13.5-16.3,19.9-29.8,23c-7.2,1.7-14.5,3.1-21.7,5C615.8,2481.1,564.1,2481.3,560.1,2480.7z M570,2420.6c-7,0-14.1,0-21,0
	c-10.1-0.1-19.3,2.8-28.1,7.2c-4.5,2.3-7.7,6.3-9.7,10.5c-1.6,3.7,3.3,4.4,4.7,6.8c0.7,1.1,0.7,2.7,1.1,4c0.9,2.6,2.4,4.7,5.1,5.3
	c8,1.6,15.2,6.1,23.4,6.4c22.6,0.7,45,4.8,67.8,3.1c9.2-0.7,18.2-1.8,26.4-6c9.1-4.4,10.9-11.4,5.8-19.9
	c-4.4-7.2-12.1-9.1-19.3-11.4C608,2421,588.9,2421,570,2420.6z"/>
<path class="st6" d="M1457.2,2401.6c0-3.7,0-7.4,0-11.1c6.7-6.4,13.4-12.6,22.6-14.9c17.9-4.4,36-8.7,53.9-12.9
	c2.1-0.6,4.3-0.9,6.7-0.3c10.9,2.6,22.2,3.8,33.4,2.4c6-0.7,11.2,1.4,16.6,2.3c4.4,0.7,7.2,4.5,7.5,9c0.6,7,1,13.9,0.7,20.7
	c-0.3,8.5-5,14.2-13.4,16.6c-15.9,4.5-31.8,9.1-47.7,13.6c-3.4,1-7.4,0.9-10.1,3.8c-9.8,0-19.8,0-29.6,0c-1.6-2.6-4.3-1.6-6.3-1.6
	c-11.2-0.1-18.8-7.8-27.3-13.4C1459.6,2412.5,1460.4,2405.8,1457.2,2401.6z"/>
<path class="st39" d="M1545,2361.2c0,2.3,0,4.5,0,7c-3.4,7.5-8.1,13.5-15.6,16.6c-1.7,0-3.6,0-5.3,0c-12.2-5.1-14.9-15.3-14.8-28.3
	c0.4-31.8,0.1-63.5,0.1-95.3c0-5,4.3-8.5,9.7-8.5c8.8,0,16.8,0.7,19.6,12.1c0.7,2.8,3.4,5.3,5.3,7.8c-0.1,28.6-0.1,57.1-0.3,85.7
	C1543.8,2359.4,1544,2360.5,1545,2361.2z"/>
<path class="st7" d="M1042.8,2387.9c0.1,0.7,0.1,1.7,0.6,1.8c15.6,7.4,20.9,21.9,25.3,36.9c2,6.8,1,13.5-1.8,19.9
	c-1.6,3.6-1.4,5.8,1.6,8.7c34.8,32.4,62.5,70.9,92.4,107.6c12.4,15.2,25.3,30.1,37.8,45.3c3.7,4.5,6.3,9.7,6.5,15.9
	c0.6,12.4-12.1,18.6-23.6,13.4c-5.1-2.4-8-7.2-11.2-11.4c-21.6-26.9-44.1-52.9-64.2-80.9c-12.5-17.3-24.9-34.7-35.2-53.3
	c-0.9-1.7-1-5.7-4.3-4c-2.6,1.4-5,4-3.8,7.5c1,3.4,2.4,6.5,3.7,9.8c18.3,48.2,33.8,97.3,43.8,147.9c0.6,2.7,1,5.5,1.4,8.2
	c1,6.7-0.4,11.8-7.1,15.2c-3.4,1.7-7.5,3.4-9.5,7.2c-1,0-1.8,0-2.8,0c-7-4.8-11.5-11.2-14.2-19.3c-13.8-39.6-27.3-79.3-39.5-119.4
	c-5.3-17.2-10.7-34.4-11.2-52.7c-0.1-5-6.1-9.9-11.2-10.4c-14.5-1.3-26.1-7.5-35.5-18.8c-6.3-7.4-8.4-16.5-12.2-24.9
	c0-3.7,0-7.5,0-11.2c2-1.8,2-4.7,3-7c3.3-8.7,9.2-14.6,18.2-17.2c8.5-2.6,13.6,2.4,13.2,11.2c-0.3,9.9,2.4,19.5,9.9,26.9
	c3,3,7,4.1,11.1,2.6c9.4-3.7,14.5-17.3,10.2-26.1c-1.7-3.4-2.3-7.2-3.8-10.5c-3.3-7,2.8-12.6,1.7-19.2c1.8,0,3.7,0,5.7,0
	c0.4,1.1,1,1.3,1.4,0C1040,2387.9,1041.4,2387.9,1042.8,2387.9z"/>
<path class="st40" d="M968.3,2426.2c3.6-5.8,5-13.2,10.8-17.6c2.4-1.8,5-3.3,7.7-5.1c1.6,3.7,0.1,6.3-1.6,8.4
	c-3.3,4.1-3.4,9.1-4.8,13.8c-5.3,17.6,11.8,35,26.3,36.8c13.2,1.7,20,8.8,25.2,21c15.5,38.1,24.4,78.4,39.4,116.5
	c9.5,24.3,15.6,49.6,24.7,73.9c0.9,2.1,3.7,5.4,0,7.4c-3.1,1.7-6.4,0.4-9.2-1.6c-3.1-2.3-5-5.7-6.3-9.2
	c-18.9-52.3-37.8-104.6-50.9-158.7c-1.3-5.4-1.8-11.1-2.4-16.6c-1-8.5-4.5-12.2-13.1-12.9c-19.9-1.7-37.4-17.1-43.8-38.5
	c-0.4-1.7,0.1-4-2.1-4.8C968.3,2434.5,968.3,2430.3,968.3,2426.2z"/>
<path class="st41" d="M1192,2639.4c-8.1,0.9-13.4-2.7-17.6-8.1c-32.4-40.1-66.1-79.3-93.8-122.9c-0.6-1-1.3-1.8-2-2.8
	C1090.1,2507.6,1173.1,2605.3,1192,2639.4z"/>
<path class="st41" d="M1031.6,2393.2c9.5,10.5,11.7,22.5,10.7,35c-0.4,5.7-4.8,9.2-12.5,9.9c8.2-8.8,6.7-16.9,2-25.6
	C1028.7,2407,1027.7,2400.4,1031.6,2393.2z"/>
<path class="st42" d="M1043.5,2447.9c2.3,0,4.5,0,6.8,0c11.8,5.5,18,15.5,20.7,27.9c1.4,7-0.9,12.9-6.3,17.6
	c-10.7,9.1-29.4,2.6-33.8-11.5c-0.7-2.3,0.1-5.1-2.4-6.7c0-3.7,0-7.2,0-10.9C1031.9,2457.1,1036.4,2451.3,1043.5,2447.9z"/>
<path class="st43" d="M828.5,1224.6c0-9.4,0-18.8,0-28.1c2.3-6.3,3.3-13.1,7.5-18.8c5.1-6.8,7-14.9,8.2-23.4
	c3.1-22.6,4.7-45.5,7-68.2c1.8-17.9,2.8-25.6,23.2-30.6c3.8-1,8.2-0.9,11.5-3.7c9.4,0,18.6,0,28,0c1.3,2.1,3.7,1.7,5.5,2.4
	c15.9,6.1,26.6,15.9,26,34.4c0,2.1,0.3,4.3,0.3,6.3c-0.3,26.1,3.3,51.6,10.8,76.6c1.4,5,3.1,9.4,7.4,12.9c8.7,7.5,12.2,17.5,10.8,29
	c-0.6,4.3-1.6,8-7.2,8.7c-3,0.4-6.1,3-8.4,5.7c-14.8,17.5-36.2,22.6-57.1,13.8c-1.4-0.6-3.1-1.4-4.5-1.4c-9.4,0.7-18.3-0.9-26.4-5.8
	c-0.6,1.3-1,1.8-1.3,2.6c-1.8,6.1-5.1,10.7-12.2,10.2c-7.4-0.4-10.1-5.8-11.2-12.2c-1-6.3-2-12.6-3.1-19.3c-3.3,3.6-6,6.5-8.8,9.5
	C832.1,1228,830.2,1226.8,828.5,1224.6z"/>
<path class="st22" d="M853.4,1204.9c7.1,0,14.1,0,21.2,0c1.6,2.6,4.3,1.4,6.4,1.7c19.9,2,40.1-0.7,60,1.1c29.6,2.7,59.4,0,88.7,5.7
	c7.2,1.4,9.9,4.3,9.4,11.2c-1.3,17.5-4.4,34.5-7.2,51.7c-1,5.5-3.8,7.5-9,7.7c-7.8,0.3-15.5,0.9-23.3,1c-5.7,0.1-8.2,2.7-7.7,8.4
	c0.4,4.1,1.1,8.4,1.4,12.5c2.7,29.4,5.1,58.7,7.8,88.1c3.4,36.1,7,72.3,10.8,108.4c0.6,5.4-1.3,8.2-5.7,11.4
	c-22.2,15.9-45.5,30.1-68.6,44.3c-6.8,4.1-13.9,5.5-21.6,3.1c-1.6-0.6-3.3-1.1-4.7-1c-12.9,0.9-25.9-0.6-38.8-1.6
	c-20.5-1.4-40.9-2.1-61.1-5.8c-17.6-3.1-25.9-10.2-19.3-30.3c2.1-6.8,3.3-13.6,3.8-20.7c3-40.6,6.7-81.3,9.1-122.1
	c1.6-27.9,7.7-55.6,4.4-83.7c-0.3-2.7,0.7-7-3.1-6.7c-9.7,0.7-17.9-5-27.4-5c-5.4,0-8.7-2.6-9-9.2c-1-20.2,0.6-40.6-3.7-60.5
	c-0.9-4.7,1.1-6,5.7-5.8c21.7,0.6,43.5-0.4,65.2-1.6C842.2,1207.2,848.1,1208.4,853.4,1204.9z"/>
<path class="st0" d="M845,1416.3c-6,0-12.1,0-18,0c-4.5-3.1-10.2-1.6-15.2-3.4c-5.3-2-8.4-4.4-7.1-10.5c1.6-8.1,3-16.6,3-24.3
	c0-11.2,1.8-22.3,1.4-33.5c-0.1-4.3,1.6-6.4,6-6.5c21-0.7,41.6,1.4,60.4,12.2c3.7,2.1,6.3,5.4,8.2,9.1c3.8,7.2,7.7,14.5,10.2,22.3
	c0,2.8,0,5.5,0,8.4c-2.6,1.6-2.1,4.4-2.8,6.7c-3.1,9.5-8.8,16.5-19.2,18.6C862.6,1415.7,853.7,1413.1,845,1416.3z"/>
<path class="st25" d="M1041.4,1231.4c-4.1,8.8-3,18.6-5.4,27.9c-0.7,3-0.9,6.1-1.4,9.1c-3.4,16.6,0.7,15.3-19.3,16.8
	c-4.7,0.3-9.4,0.3-14.2,0.1c-6.1-0.1-8.5,2.7-8,8.7c1.7,17.3,3.3,34.7,5,51.9c4,42.2,8.1,84.3,12.1,126.5c1,10.8,2.1,21.5,3.1,32.3
	c0.3,2.6,0.4,5-2.4,6.8c-15.5,10.2-30.6,21.2-46.3,31.1c-15.2,9.5-15.3,9.1-16.9-8.5c-4.3-48.3-6.3-96.8-9.5-145.1
	c-1.8-28.1-4.7-56.3-8.7-84.3c-0.3-2.3-0.7-4.7-1.4-7c-0.9-2.7-3-4.4-4.8-1.1c-1.6,3-3.7,3-6.4,3c-27.6,0.3-55.3,0.7-82.8,1.1
	c-5.7,0.1-11.4-0.3-16.9-1.3c-4.1-0.7-8.8-0.3-8.2-6.8c0.1-2.1-1.7-3.1-4-3.1c-2.8,0-5.7-0.1-8.5-0.1c-1-5.8,3.1-7.2,7.2-8.5
	c10.8-3.1,21.9-3.4,33-2.7c30.4,1.7,60.7,3.3,91.1,2.4c4.5-0.1,5.7-1,5.3-6c-1.7-22.3-3.7-44.6-2.1-67.1c6.7,0,13.2,0,19.9,0
	c1,2.4,3.3,1.4,5,1.6c19.3,0.9,38.7,0.9,58,2.6c9.8,0.9,21.3-0.9,27.9,10.1C1041.4,1224.7,1041.4,1228.1,1041.4,1231.4z"/>
<path class="st44" d="M2990,2535.7c-3.6,6.4-9.2,9.1-16.1,11.5c-111.5,38.1-226.1,65.7-340.5,93.6c-152,37.1-302.8,78.7-453.7,120.2
	c-121.1,33.3-243,63.7-364.6,94.6c-22.9,5.8-46.5,8-69.5,13.2c-20.5,4.7-41.5-0.3-62-3.3c-53.7-8.1-106.9-19.8-160.3-29.1
	c-15.3-2.7-31-2.6-46.6-3.7c-46.9-3.3-92.6-12.9-138.4-22c-18.6-3.7-37.5-4-56.3-6.5c-24.2-3.3-48.3-5.8-71.8-12.8
	c-4.3-1.3-8.5-2.8-12.5-4.7c-4.1-1.8-7.4-4.7-7-9.7c0.6-5.1,4.4-7.4,9.2-8.4c13.8-2.7,27.7-3.6,41.6-3.3c12.1,0.3,24,1.1,36.1,1.7
	c2.7,0.1,5.3,0.9,6.7-3.1c1.3-4,5.5-4.7,9.4-5.3c18.6-2.7,37.4-0.4,55.8,0.9c44.2,3.3,87.4,12.5,131,19.3c37.9,6,76.2,7.7,114.4,9.9
	c17.2,1,34.4,2.3,51.6,3.3c1.6,0.1,3.4,0.3,4.8-0.3c52.2-17.8,106.3-26,160.3-35.4c61.4-10.8,122.2-24.6,182.7-39.6
	c10.2-2.6,20.5-5,31.4-6.1c-12.5,6.4-25,12.8-37.5,19.3c1.8,1,3.7,0.4,5.7-0.1c183.7-48.3,367.9-94.9,551.3-144.8
	c119.5-32.5,239-65.5,358.4-98.3c26-7.1,52.3-12.4,78.7-17.9c3.6-0.4,4.8,0.3,5.1,4.7c0.3,7.5,0.3,15.2,3.4,22.5c0,4.3,0,8.5,0,12.8
	C2988.6,2517.7,2991.3,2526.8,2990,2535.7z M1765.2,2807.7c13.4,7.5,21.6-4,32-4.7c-0.1-0.7-0.3-1.3-0.4-2
	C1786.7,2803.1,1776.7,2805.3,1765.2,2807.7z"/>
<path class="st45" d="M2992.1,2461.3c0,4.7,0,9.4,0,14.1c-2.3,1.8-1.7,4.8-2.7,7.1c-5.3,13.2-11.8,24.6-27.3,29
	c-115.2,32.4-230.6,63.9-346.6,93.9c-153.9,39.8-308.2,77.2-462.3,116.1c-88.5,22.5-175.8,49.9-264.2,73
	c-44.3,11.7-88.2,24.9-134.1,28.7c-1.7,0.1-3.4,0.3-3.4,2.6c-1.8,0-3.8,0-5.7,0c-4.4-4.1-10.4-5.1-15.8-5.1
	c-21-0.1-41.9-2.3-62.8-4.5c-64.5-7-128.9-16.1-193.1-25.2c-25.3-3.6-50.4-8-75.7-10.4c-38.2-3.7-76.7-5.7-114.8-11.2
	c-20.2-3-39.1-10.5-58.8-15.5c-5.8-1.4-10.9-5.1-10.5-12.5c0.3-7,5.7-9.4,11.2-11.1c3.1-1,6.3-1.8,8.8-4.3c2.8-2.7,6.5-3.4,10.5-3.4
	c16.5-0.1,33.1,0,49.6,1c15.3,1,30.6,2.4,45.9,0.9c3.1-0.3,5.7,0,6.3-4.5c1.8-17.2,9.2-25,26.1-28.4c8.8-1.7,17.6-3.1,26.4-5.1
	c68.1-15.6,135.7-33.8,203.1-52.2c30.3-8.2,60.7-16.2,91.1-24.3c2.8-0.7,6.4-0.6,5.8-5.4c-1-7.8,3.7-11.1,10.2-12.8
	c9.2-2.4,18.6-3,28-3.8c44.2-4.1,88.2-3.6,132.2,1.7c14.1,1.7,27.4,3,40.4-4.3c3.8-2.1,8.4-3,12.8-4.1c29.1-8.2,58.5-15.1,88.2-21
	c10.9-2.1,16.1-6.1,18-17.8c1.7-10.7,5.4-22.6,17.5-27.4c16.5-6.5,34.1-9.2,51.4-13.1c0.7-0.1,1.4-0.1,2.1,0
	c14.6,4.5,29.6,6,44.8,6.4c1.4,0,3.6,0.1,3.3,1.8c-2.1,12.6,6.7,7.2,11.5,6.5c17.2-2.4,33.1-9.2,49.3-15.2c4.4-1.7,8.7-4.1,13.5-3.6
	c8.7,0.9,13.5-7.1,21-9.1c1.4-0.4,1.3-2.3,1.4-3.7c0.1-3.3,0.1-6.5-0.9-9.8c-1.3-4.4,0.1-6.8,5.1-8c47.2-11.1,94.2-22.3,141.2-33.7
	c3.8-1,7.4-0.7,11.1,0.7c10.1,4.1,20.6,6.7,31.1,9.4c12.2,3.1,24,2.8,36-2.3c19.3-8.4,38.7-16.5,59-22c4-1.1,5.8-3,6-7.4
	c0.1-4.5,2.8-8.1,6-11.5c6-6.5,13.1-9.4,21.7-11.4c16.5-3.8,32.5-9.8,48.9-14.6c9.5-2.8,18.6-2.6,28.1,1.8
	c13.6,6.4,28.3,8.8,43.3,7.5c1.3-0.1,2.6-0.4,3.1,0.9c1.8,5.3,4.5,2.6,7.5,1.3c3.3-1.3,6.8-2.1,10.2-2.6c11.4-1.1,22.3-3.4,33.3-6.7
	c14.2-4.3,28.7-7.7,43.9-6.3c6.3,0.6,12.5-1.6,18.3-4.1c2.4,0,4.7,0,7.1,0c15.9,5.5,32.4,9.1,48.2,15.3
	c16.5,6.5,33.5,10.4,51.4,11.9c16.9,1.4,33.7,4,50.4,6.4c10.9,1.6,18.6,6.4,22.7,17.8C2983.2,2432.4,2987.6,2446.9,2992.1,2461.3z"
	/>
<path class="st9" d="M1980.5,2683.5c-2.4,0-4.7,0-7.1,0c-1-2.3-3.3-1.7-5-1.7c-30.1-0.1-59.1-8-88.5-13.2
	c-42.1-7.7-84-16.5-126.5-22.3c-6.4-0.9-12.6-4-18.3-7.1c-2.6-1.4-0.4-5.7-0.4-8.4c0.1-25.9-2.6-51.6,0.7-77.4
	c1.4-11.4,1.4-11.4,12.9-10.8c0.9,3.4,15.1-14.2,15.5-19.8c9.8-5.8,20.6-9.2,31.7-11.4c46.6-9.1,93.4-17.9,140-26.9
	c25.4-4.8,50.7-9.8,76.2-14.6c2.6-0.4,6.3-1.7,7.2,0.6c4.1,9,12.9,9,20.3,10.1c14.2,2.3,28.6,2.7,42.8,4.8
	c34.4,5.3,68.8,11.1,103.2,16.8c11.4,1.8,22.9,1.7,34.1,4.8c0,13.6,0,27.3,0,40.9c-3.3,2.7-3.3,2.7-2.4,25.4c0,13.6,0,27.1,0.1,40.8
	c0,3.6-2,4.3-4.5,5.1c-36.5,11.7-72.2,25.7-109.1,35.5c-38.8,10.4-77.3,21.9-117.5,26C1984.1,2681.2,1981.7,2681.1,1980.5,2683.5z"
	/>
<path class="st13" d="M1965.7,2536.4c7.1-9.2,11.5-7.8,18.2,6.4c2.4-8.4,4.7-16.6,7-24.7c0.3-1.1,0.9-2.1,1.3-3.3
	c3.7-8.5,8.2-16.3,18.9-16.1c10.8,0.3,15.8,8.1,17.8,17.1c1.7,8.1,7.7,12.5,12.4,17.9c0.7,0.9,1.3,1.4,2.7,0.6
	c9.8-5.3,9.9-5.1,16.5,5.3c1.6-3.8,2.8-7.7,4.5-11.2c6.7-14.2,17.2-23.2,33.4-24.3c3.4-0.3,4.4-1.4,4.7-4.5c0.6-7.2,3-14.1,5.7-20.9
	c34.1,4.8,68.6,5.7,103,7.2c5,0.3,5.3,2.3,5.4,6.4c1.7,39.6-1.4,79.1-0.9,118.8c0,3.4-0.4,5.5-4.3,6.8c-68.8,24-138.1,46.2-210,59.8
	c-4.8,0.9-9.8,0.7-14.6,1.7c-5.5,1.1-7.4,0.1-7.4-6.3c0-31-0.6-61.8-1.1-92.8c-0.1-6.3-0.9-12.6-1.4-18.9
	C1976.8,2551.8,1973.8,2543,1965.7,2536.4z"/>
<path class="st46" d="M2218.4,2504.2c0,1.8,0,3.7,0,5.5c-12.6,8.4-27,13.1-41.2,17.5c-57.3,17.9-114,37.7-172.5,51.4
	c-18.8,4.4-37.5,7.7-57.1,4.3c-37.2-6.4-74.7-11.4-112.1-16.3c-32.3-4.3-65.4-3.3-96.6-14.4c-4-1.4-8.8-2.4-7.7-7.1
	c1-4.1,4-7.2-0.6-11.2c-1.6-1.3,0.6-4,2.6-4.8c2.6-1.1,5.3-1.8,8-2.8c8-3.1,16.8-2,24.6-5.8c10.2-5,20.9-8.4,32-10.8
	c61.1-12.6,122.6-22.9,184-34.8c9.1-1.7,18.5-2.4,26.9-6.8c6.5,0,13.2,0,19.8,0c8.4,4.4,17.8,3.8,26.7,5.3
	c38.2,5.7,76.3,12.6,114.2,20.2C2185.6,2496.6,2202.3,2498.9,2218.4,2504.2z"/>
<path class="st7" d="M2044.2,2481.1c-13.6,4.7-27.3,9.7-39.6,17.1c-5.4,3.3-8,1.6-10.7-2.7c-5-8.1-7.4-17.2-9.4-26.3
	c-10.4-47.7-19-95.8-26.9-144.1c-4.4-27.4-7.7-55-9.1-83c-0.9-14.5-0.3-29-1.7-43.5c-0.7-7.4-0.1-15.5,1.4-23
	c1.1-5.1,1.4-11.1,8.7-11.9c7.1-0.9,9.1,4.4,11.4,9.2c9.1,19.3,14.5,40.1,21.3,60.3c12.6,38.4,20.5,77.7,28.3,117.2
	c6.4,32.8,13.5,65.5,20,98.3c1.6,7.5,3.6,15.1,3.7,22.9c0,1.8,0,3.8,2.7,4C2044.2,2477.5,2044.2,2479.3,2044.2,2481.1z"/>
<path class="st7" d="M1884.5,2443.1c3.7-0.4,2.7-3.3,2.7-5.4c0.1-8.2,0-16.5,0.1-24.7c0.4-22.5,0.7-45,1.6-67.5
	c1.7-41.5,7.1-82.4,16.8-122.8c1.1-5,2.7-9.9,5.1-14.5c2-3.7,4.4-6.5,9.1-6.4c4.7,0.1,7,3.4,8.7,7.1c4.4,10.4,6.1,21.6,7.7,32.7
	c6,43.1,8.5,86.3,7,129.6c-1.6,43.6-0.7,87.2-1.3,130.9c-0.1,7.4-2.3,14.4-7.5,19.9c-1.1,1.1-2.4,2.3-2.1,4.3c-11.7,0-23.3,0-35,0
	c-1.4-1.7-2.8-2-4.3,0c-1,0-1.8,0-2.8,0c-3-2.6-4.3-6.3-5.5-9.8c0-10.4,0-20.7,0-31c1-0.4,1.3-1,0-1.4
	C1884.5,2470.3,1884.5,2456.7,1884.5,2443.1z"/>
<path class="st47" d="M1917.1,2461.5c3.1-8.7,2-17.9,2.4-26.9c2.1-57.7,4.8-115.5,4.5-173.4c-0.1-17.9-1.4-35.7-2.1-53.6
	c-0.1-1.8-0.9-3.7,0.7-6c5.1,2.4,6.8,7.4,8.2,12.1c4.1,13.1,5.1,26.7,7.1,40.2c8.7,61.1,4.3,122.5,4.3,183.7c0,20.2-0.1,40.4,0,60.7
	c0.1,11.4-2.7,21.2-12.6,27.9c-3.7,0-7.4,0-11.2,0c-0.1-13.8-0.1-27.6-0.4-41.4c-0.1-4.1,1.4-8.4-1-12.2
	C1917.1,2469.1,1917.1,2465.2,1917.1,2461.5z"/>
<path class="st47" d="M2042.5,2478.3c-1,6.8-8,6.4-12.6,8c-4.3,1.4-3.3-3.8-3.8-6.3c-16.5-72.8-25.9-147.1-45.9-219.1
	c-8.1-29.4-15.3-59.1-28.4-86.8c-1.8-3.8-1.6-6.8,1.8-9.2c3.7-2.7,7.5-2.3,10.8,1c3,3,4.7,7,6.3,10.9c15.6,41.4,29,83.3,37.8,126.6
	c10.9,53.4,21.6,106.9,32.3,160.1C2041.5,2468.2,2041.8,2472.9,2042.5,2478.3z"/>
<path class="st33" d="M2252.8,531.1c-2.7-3.6-5.1-7.2-7.5-11.4c-6.7-11.4-13.6-14.4-25.4-13.1c-12.1,1.3-12.5,0.7-11.7,12.6
	c1.4,20.9-8.4,34.7-26,44.1c-16.5,8.8-34.2,11.9-52.9,10.8c-28.4-1.7-52-13.9-72.8-32.8c-7.5-6.8-13.9-14.5-16.5-24.3
	c-1.7-6.5-5-7.4-10.9-7.5c-8.4-0.1-13.2,1.8-17.3,10.2c-7.1,14.8-14.6,29.6-24.7,42.9c-10.1,13.5-23.4,20-40.4,19.5
	c-20.3-0.7-37.4-9.1-52.7-21.7c-12.5-10.2-23.3-22.3-33.5-34.5c-8.5-10.2-17.6-13.6-29.8-11.5c-0.7,0.1-1.4,0.1-2.1,0.1
	c-2.1,0-2.8,0.9-3.6,3.1c-6,20.6-14.2,39.9-30.8,54.6c-13.4,11.8-28.7,15.6-46.2,11.8c-18.3-4-33.8-13.1-46.9-26.4
	c-8.2-8.4-16.8-16.9-23.6-26.4c-7.7-10.9-17.8-13.6-29.8-12.4c-0.3,0-0.4,0-0.7,0c-4.4-0.7-5.3,1.4-4.7,5.3
	c0.6,3.7,1.6,7.2-0.6,10.9c-8,14.5-16.2,28.8-27.1,41.4c-8.4,9.7-18,17.5-30.4,21.3c-27.6,8.7-51.7,2-72.9-17.1
	c-17.5-15.8-29.1-36-41.1-55.7c-6.1-10.1-12.2-15.6-24-15.5c-5.1,0.1-6.5,1.7-5.7,6c1.7,8.1-0.9,15.2-4.4,22.3
	c-10.4,21.5-14.5,45.3-26.7,66.1c-2.7,4.7,1.6,9.1,4,12.8c1.8,2.7,5.3-0.3,7.5-1.3c13.5-5.8,24.6-14.9,34.1-26
	c4-4.7,5.5-5.4,9.5,0.3c21.2,30,48.9,50,86.3,53.4c48.9,4.4,84-18,108.8-58.8c1.3-2.1,1.7-4.8,4.1-6.1
	c23.3,23.9,37.4,33.7,59.3,41.5c49,17.5,94.8-0.3,118.8-46.2c0.6-1.1,0.7-2.7,2.7-3.1c2,2.3,4,4.5,6,6.8
	c18.2,20.2,39.4,36.1,65.9,43.6c48.3,13.6,87.5-2.6,112.3-46.2c0.4-0.7,0.9-1.6,1.6-2.8c4.8,5.8,9.8,10.9,15.5,15.1
	c30.4,22.2,64.7,32.4,102,28.7c41.5-4.1,76.6-19.6,95.3-60.5c0.6,0.4,1.1,0.9,1.6,1.4c9.4,13.4,19,23.9,29.1,32.1
	C2265.4,570,2255.6,551.6,2252.8,531.1z"/>
<path class="st33" d="M2348,739c-8.4-4-16.5-8.8-24.4-14.6c-8.1-5.8-16.6-11.1-14.4-23.3c0.4-1.8-0.7-4.1-1.4-6.1
	c-4.1-11.7-14.4-19-25.7-18.8c-11.1,0.4-20.5,8.1-24,19.8c-1.7,5.5-2.1,11.1-1.3,16.8c0.4,2.8,0,4.8-2,7
	c-28.6,32.1-83.8,46.8-123.3,31.4c-17.3-6.7-34.1-14.6-45.5-31c-6.4-9.2-17.8-11.2-28-6.7c-10.2,4.4-15.6,13.2-13.9,24.4
	c0.7,4.4-0.7,7.1-3.3,10.1c-16.8,18.8-38.2,28.8-62.2,34.5c-13.4,3.1-25.9,0.4-37.2-7.2c-5.8-4-11.4-8.4-16.9-12.9
	c-11.1-9.1-22-18.6-33.3-27.7c-13.9-11.5-30.4-8.5-39.8,7.1c-1.8,3-3.3,6.3-5.1,9.4c-13.9,24.3-34,41.5-60.8,50.2
	c-14.5,4.7-27.4,2.4-38.9-7.7c-8.7-7.4-16.2-15.9-23.9-24.3c-8.1-9-15.9-18.2-24.6-26.6c-17.9-17.2-36.9-12.8-46.2,10.1
	c-6.1,15.2-13.5,30-24.3,42.1c-22.2,24.9-39.9,25-63.7,10.4c-2-1.3-4.1-2.4-6-4c-15.8-12.4-32.4-23.7-45-39.8
	c-8.5-10.8-23.9-11.2-33.5-2.4c-3.1,2.8-4.1,5.5-2.3,9.8c5.4,12.1,10.1,24.4,15.1,36.7c1,2.4,2,4.8,4.1,6.5
	c15.1,12.5,29.8,25.6,46.9,35.4c39.6,23,79.4,18.2,112.4-13.6c9.4-9.1,16.9-19.6,23.6-30.8c1.4-2.3,2.1-5.1,4.8-6.7
	c9.9,11.2,19.8,22.2,30.8,31.7c25.7,22.2,54.6,27.6,86.7,16.9c30.8-10.2,55.7-28.6,74.9-54.7c2.8-3.8,4.4-4.1,8-0.9
	c6.8,6.3,13.9,12.1,21.2,17.8c14.9,11.7,31.5,20.6,50.7,21.9c46.2,3.1,84.1-15.5,116.1-47.5c4.4-4.4,6.8-4.5,11.8-1.4
	c24.9,15.6,52,25.4,81.6,25c44.3-0.7,82.7-17.5,115.5-47c4.1-3.7,6.1-4.3,10.7-0.7c26.1,20.2,53.1,32.3,81.1,36.1
	C2362.5,776.7,2354.7,757.9,2348,739z"/>
<path class="st33" d="M2644.4,1099.1c-5.5,4.1-11.8,7.5-18.8,10.4c-32.3,12.9-62.5,7.4-91.1-11.1c-6.7-4.3-11.5-8.2-11.2-17.9
	c0.4-14.1-12.5-23.7-24.2-18.8c-11.9,5.1-21.3,14.5-25.4,26.7c-2.8,8.8-6.8,16.3-12.1,23.6c-13.9,19.3-32.8,28.3-56.6,24.9
	c-38.9-5.8-72.6-23-101.6-49.5c-9.1-8.2-13.1-7.8-17.5,3.7c-1.7,4.4-2.4,9.1-2.4,13.9c0,2.6-0.4,5.1-1.1,7.7
	c-10.5,33.3-33.5,53.4-66.5,62.7c-20,5.5-36.9-0.7-49.9-16.8c-4.8-6.1-8.8-12.9-13.4-19.2c-11.1-15.5-26.4-24.7-44.6-29.3
	c-8.1-2-10.2,0.4-8.1,8.5c1.3,4.5,0.6,7.8-2.4,11.4c-4,4.7-7.1,9.9-10.5,15.1c-6,9.1-12.4,17.9-20.2,25.6
	c-26.9,26.7-61.8,32.5-95.8,15.9c-20.3-9.9-36.8-24.7-50.7-42.3c-5-6.3-10.9-10.9-17.9-14.8c-5.8-3.4-10.9-2.6-15.3,2.1
	c-7.5,7.8-10.2,17.1-6.7,27.4c1.4,4.1,1,7.5-0.7,11.4c-19.6,44.3-70.8,61.2-113,36.7c-14.1-8.1-27.7-17.1-38.8-29.4
	c-8.1-9.1-18.6-15.2-29.8-19.9c-2.6-1.1-5.3-2-8.2-2c-5.5,0-11.9,8.5-8.4,12.5c8.1,9.2,7,20.3,7.5,30.8c0.9,18,3.8,35.2,14.8,50.3
	c4.8,6.7,7.5,7.4,12.8,0.7c1.7-2.1,2.6-4.4,3.3-7c2.4-8.1,4-16.3,1.7-25.2c5.1,1.3,8.1,4.1,10.8,7.4c10.7,12.4,23.2,22.2,38.5,28.1
	c51.2,19.9,109.7,0.6,139.1-46c3-4.8,4.7-6.3,9.5-1.8c8.4,7.7,18,13.6,28.3,18.9c40.6,20.7,81.6,22.3,122.1-0.3
	c21.3-11.8,37.5-29.1,51-50.3c2.1,3.1,3.6,5.5,5.3,7.8c1.8,2.6,3.6,5,5.5,7.4c23.6,28.1,53.7,39.9,89.8,32.8
	c39.2-7.7,69.9-29,91.1-63.1c2.1-3.4,3.3-5,7.8-2.4c19.9,11.2,41.1,19.3,63.2,24.3c45.9,10.4,84.8-0.7,114.1-38.9
	c4.5-6,7-7.2,13.8-2.7c47,31.1,100.9,30.6,142.2,9.2C2650.4,1131.9,2647.2,1115.6,2644.4,1099.1z"/>
<path class="st33" d="M2490.2,925.2c-1,0.4-2,0.7-2.8,1.1c-26.6,9.2-51.4,7.1-74.6-9.9c-11.1-8.2-21-17.5-30.4-27.6
	c-6.1-6.5-12.1-13.4-18.6-19.5c-7.2-6.7-15.9-8.1-25-3.8c-8.4,4-13.5,11.1-12.5,20.5c1.3,12.5-4.8,21.5-12.6,29.4
	c-12.5,12.9-28.1,21.3-45,27.1c-20.3,7-38.7,3.6-54.7-10.9c-10.9-9.9-20.3-20.9-26.7-34.4c-4.8-10.4-14.6-15.9-24.4-14.6
	c-10.8,1.4-18.2,8.5-20.9,20.2c-0.6,2.3-1,4.7-1.4,7c-9.4,47.7-58.4,80.4-105.2,69.8c-23.7-5.4-43.2-18.5-61-34.5
	c-5.4-4.8-10.1-10.1-13.4-16.9c-7.7-15.8-28.7-16.5-38.2-1.7c-3.6,5.4-5.8,11.4-5.3,18c0.1,2.4-0.1,4.5-1.3,6.8
	c-12.5,22.6-30.1,38.9-55.1,47c-32.4,10.4-61.7,2.4-83.8-23.3c-7.1-8.2-12.5-17.6-17.6-27.3c-5.4-10.1-15.5-14.8-25.4-12.4
	c-10.2,2.4-17.3,10.2-18,21c-1.1,21-12.1,36-29.1,46.8c-17.5,11.1-37.1,16.1-57.7,18c-4.5,0.4-8.7-0.4-12.9-2.4
	c-9.9-4.7-20.5-8.2-32.3-6.1c6.8,14.1,14.2,27.3,19.5,41.4c4,10.5,10.8,13.2,20.6,12.8c48.2-2.4,90.8-16.8,122.1-58.4
	c2,2.6,3.7,5.3,5.8,7.4c25.3,23.7,55.1,35.7,89.8,32.8c43.5-3.6,79.1-22.5,104-59.1c2.3-3.4,3.6-3.8,6.8-1
	c8.4,7.2,17.6,13.5,27.3,19c42.3,24.4,86,28.8,130.9,7.7c26.6-12.5,47.2-31.7,62.7-59.4c1.8,2.7,2.8,5.1,4.5,6.7
	c24.4,23.4,53.1,35.5,87.2,29c36.7-7.1,67.6-24.7,90.8-54.7c2.7-3.4,4-4.3,7.2-0.9c6,6.4,13.1,11.7,20,16.8
	c22.9,16.9,48.2,26.7,77.2,25.9c21-0.7,40.8-6.4,59.5-14.9C2509.1,951,2498.9,938.7,2490.2,925.2z"/>
<path class="st33" d="M2767.9,1342.2c-0.4-0.4-1-0.7-1.4-1.1l0,0l0,0c-11.5-8.8-21.2-19.5-28.6-32c-0.6-1-0.9-2-1-3
	c-28.7,7-55.8-1.6-78.3-25.2c-7.8-8.2-16.9-15.1-24-24c-2.4-3-6.5-4.5-10.1-6.3c-3.8-1.8-6.8-0.3-9,3.3
	c-6.5,10.9-13.2,21.7-19.5,32.8c-30.8,53-96.1,65.2-142.2,26.4c-9.1-7.5-16.9-15.9-18.6-28.8c-1.3-9.5-7-17.2-16.5-20.6
	c-3.1-1.1-6-2.1-8.2-4.8c-3.4-4.1-6.8-3.4-9.7,0.9c-4.7,7.1-7.1,15.3-6.5,23.6c0.7,11.4-4.4,19.9-10.9,28.3
	c-8,10.1-17.1,19-27.3,26.7c-28,20.7-78.6,30.1-115,0.3c-10.9-9-22.7-16.8-33.3-26.4c-7.5-6.8-8.2-6.5-14.5,1
	c-0.3,0.4-0.7,0.7-1.1,0.9c-9.1,4.1-11.1,12.8-13.8,21.2c-2,6.1-3.4,12.4-6,18c-22.5,50.6-103.3,62.8-139.5,21
	c-12.1-13.9-23-28.7-36.4-41.5c-5.3-5.1-10.4-10.4-16.5-14.5c-2.8-2-6.7-5.4-9.2-3.8c-3.1,1.8-2,7-1.6,10.7c1,10.1,3.7,19.9,6,29.8
	c0.6,2.4,0.7,4.4-0.7,6.7c-20.2,30.3-47.5,50.2-83.4,57.7c-5.3,1.1-10.9,3.1-16.1,1.4c-18.2-5.7-37.1-9.9-53-21.3
	c-3.4-2.6-5.8-5.3-6.4-9.7c-1.1-7.5-3.4-14.6-7.8-21c-6.4-9.2-11.4-9-16.3,1c-0.3,0.6-0.6,1.3-1.1,1.8c-6.3,6.7-6,14.6-2.1,21.7
	c9.2,17.1,19,33.7,33,47.5c7.2,7.2,15.9,11.5,25.9,13.9c26.4,6.5,52.7,2.4,78.6-2.1c28.1-5,49.3-23,66.9-44.8c3.1-4,4.5-5.1,8.5-0.6
	c9.1,10.7,20.3,19,32.8,25.4c55.4,28.1,148.6,12.8,181.2-59.3c33.5,24.2,49.2,30.3,82.4,30.1c47.2-0.3,85.4-20,115.7-55.6
	c3.6-4.3,5.1-5.1,9.9-1c32.8,28.6,70.9,41.2,114.2,34.4c41.1-6.4,71.9-29.4,95.5-63.8c29.7,31.1,66.4,39.8,107.3,32.8
	c10.1-1.7,19.6-4.4,28.4-7.8C2768,1342.4,2767.9,1342.4,2767.9,1342.2z"/>
<path class="st33" d="M2897.9,1472.7c-8.4,9.7-19,16.9-32.1,21.2c-47.6,15.5-91.4,10.1-129.3-25c-2.1-2-2.7-4.3-3.4-6.7
	c-2.4-7.8-7-13.9-14.9-16.9c-7.8-3-14.8-0.3-18.3,7.2c-1.3,2.7-2.4,5.8-2.7,8.8c-1.3,20.7-13.8,34.1-29.6,45.2
	c-17.8,12.4-37.5,19.2-59.5,15.3c-14.4-2.4-26-10.9-37.4-19.3c-9.1-6.7-17.9-14.1-28.8-17.8c-4.4-1.4-7.4-4-9.9-8.2
	c-7.7-13.2-21.5-12.9-29.1,0.3c-2.7,4.7-4.4,9.9-6.4,14.9c-13.5,34.1-49.6,64.1-92.1,59.7c-22.6-2.3-42.2-11.8-59.7-25.6
	c-10.1-8-21-14.5-32-20.9c-10.2-6.1-22.7-5.3-28.3,8c-1.6,3.7-3.4,7.2-5,10.9c-4.7,11.4-11.8,21-20.5,29.4
	c-25.3,24.3-64.4,29-91.1,9.4c-13.6-9.9-27.7-19.5-41.1-29.8c-6.7-5.1-13.1-4.1-19.8-1.1c-5.4,2.4-3.1,7-2.7,11.1
	c0.1,1.1-0.6,2.3-0.9,3.4c-18.2,49.7-60.3,69.5-106.4,68.3c-23.2-0.6-43.3-10.5-63.1-21.5c-0.3,0.4-0.6,0.9-1,1.1
	c9.9,12.6,21.3,24,32.3,35.8c19.3,20.7,44.6,27.6,71,23.7c39.1-5.5,69.6-26.9,91.1-60.1c2.3-3.4,3.1-4.8,7-1.6
	c43.2,36.8,101.6,31.7,141.4,3.6c15.1-10.7,26.6-24.6,35.7-40.6c73.6,64.7,173.9,49.6,218.7-33.8c9.5,10.1,20.5,18.3,32,25.7
	c16.6,10.5,34.5,17.8,54.6,17.5c43.9-0.6,78.7-19.2,105-53.9c2.4-3.1,3.3-5.7,7.2-1c7.7,9.2,17.8,15.5,28.6,20.6
	c27.4,12.9,56.4,15.1,86,11.5c33.5-4.1,62.7-15.8,84.3-40.5C2917.2,1491.7,2907.6,1482.2,2897.9,1472.7z"/>
<path class="st33" d="M1931.6,1592.5c-0.3-0.1-0.7-0.4-1-0.6c0.9-0.4,1.3-0.1,0.9,0.9C1931.6,1592.6,1931.6,1592.5,1931.6,1592.5z"
	/>
<path class="st33" d="M1932.9,1594.2c-0.9-0.3-1.4-0.7-1.1-1.7l-0.1,0.1c0.9-0.7,1.6-0.1,2.3,0.3
	C1933.5,1593.3,1933.2,1593.7,1932.9,1594.2z"/>
<path class="st48" d="M480.1,1814.5c18-2.1,35.9-2.8,53.9-0.6c1.7,0.2,3.9,0.4,3.9,2.7c0,2.5-2.4,2.3-4,2.5
	c-13.5,1.2-27-0.5-40.4-1.9C489,1816.8,484.3,1816.7,480.1,1814.5z"/>
<path class="st43" d="M2595.7,572.2c-3.3,3.6-3.7,8.4-5,12.6c-3.4,11.2-10.4,18.6-21.7,20.9c-11.7,2.3-21.3-2.3-28.6-11.5
	c-0.7-0.9-1.4-1.7-2.1-2.6c-2.1,1.6-1.3,3.6-1.6,5.3c-1.8,15.9-14.2,28-30,29c-15.2,0.9-29.7-10.1-32.5-25.9
	c-2.1-11.1-3-22.5-4.5-34.5c-3.3,6.4-6,12.2-9.2,17.8c-4.1,7-9.7,12.4-18.6,12.1c-8.7-0.3-13.6-5.8-16.6-13.2
	c-1.3-3.3-2.4-2.7-5.1-1.8c-8.1,2.6-15.5,0.9-21-6c-5.1-6.3-5.7-14.1-0.7-21.7c2.6-4,1.7-7.5,1.1-11.5c-0.4-2.6,15.3-12.9,19.9-18.9
	c10.5-13.9,13.6-30.3,16.2-46.9c3.6-22.7,6-45.5,7.4-68.3c0.4-7.4,3.8-14.4,4.3-22c1.8-35.8-1.3-71.5-2.1-107.1
	c-0.1-6.1-0.4-12.4-0.9-18.5c-0.4-6.1,2.7-9.2,8.1-11.2c8.5-3.1,17.8-4,26-8c1.4,0,2.8,0,4.3,0c1,2.3,3.4,2.1,5.3,3
	c12.8,5.5,25.4,11.1,38.2,16.3c4.3,1.8,5.7,4.5,6,9.1c2,28,5,56,8.1,83.8c2.4,21,8.7,41.6,7.8,63.1c-0.9,19.9,0.3,39.6,7.4,58.7
	c0.7,1.7,0.7,3.7,1,5.5c2.8,20.6,10.9,38.5,26.7,52.4c4,3.6,6.1,7.4,7.7,12.2c2.3,7.2,2,15.2,5.3,22.2
	C2595.7,568.3,2595.7,570.2,2595.7,572.2z"/>
<path class="st0" d="M2348.1,1107.8c0-17.1,0-34,0-51c2.4-1.7,2-4.5,3-7c4.4-10.5,12.1-17.5,23.4-17.6c7.1,0,8.2-3.1,8.7-8.5
	c0.1-1.7,0.3-3.4,0.7-4.8c1.6-5.1,20.9-69.1,22.2-87.1c5.1-68.3,3.1-136.8,3-205.3c0-8.5,0.9-17.6,4.4-25.4
	c8.2-17.6,1.6-30.7-17.8-32.5c-8.7-0.9-17.3-1.3-26.1-1.3c-4.8,0-6.4-1.4-6.5-6.4c-0.6-23.2-0.7-46.3-2.7-69.3
	c-0.1-1.7-0.7-3.7,0.7-4.7c10.1-6.5,18.2-16.5,30.8-19.2c8.2-1.7,16.6-3.1,25-4.3c13.5-1.8,27.4-1.4,40.6-4.8
	c11.5-2.8,22.9-5.3,34.5-6.8c10.4-1.4,43.5,2.4,48.7,1.8c14.1-1.4,27.4,1.3,40.5,6.7c16.5,6.8,33.5,12.5,50.4,18.5
	c4.1,1.6,5.7,3.8,5.1,8.5c-1,7.5-1.3,15.1-1.6,22.6c-0.6,21.7-1,43.5-1.3,65.2c0,4.1-1,6.3-5.5,7.1c-7.8,1.4-15.5,4.1-23.3,5.5
	c-4.8,0.9-6.8,2.7-6.8,7.8c-0.1,7.2,1,15.2-6.7,20.2c-1.1,0.7-1.7,3.1-1.6,4.5c1.3,8.7-1.6,16.9-1.8,25.3c-1,32.8,1.3,65.7,2.4,98.3
	c2.4,69.5,12.1,138.3,21.9,207c0.9,5.8,3.1,8.2,9.1,9c19.3,2.4,28.8,11.2,33.5,30.3c1.1,4.4,2,8.8,2.6,13.2
	c5.3,37.5,7.4,75.2,11.4,112.8c0.7,6.8,2,13.6,1.8,20.5c-0.1,12.8-1.1,19.8-16.8,21.7c-20,2.7-40.1,6.3-60,9.9
	c-20.7,3.8-42.1,6-62.2,12.6c-5.4,1.7-10.8,3.4-13.4,9.4c-1.6,3.7-3.4,1.4-4.7-0.1c-2.4-2.8-3.8-6.7-6.7-9
	c-9.7-7.7-17.6-17.1-25.7-26.3c-19.8-22.6-41.2-43.5-64.2-62.7c-15.2-12.6-30.3-25.6-45.5-38.2c-13.4-11.1-22-24.4-22.3-42.3
	C2349.5,1110,2349.7,1108.5,2348.1,1107.8z"/>
<path class="st22" d="M2484.7,930.7c-3.3-2.8-7.4-2-11.2-2.7c-5.4-0.9-10.7-1.7-15.6-4c-6.5-3-10.9-7.5-9.2-15.3
	c0.6-2.6-0.6-4-1.7-5.8c-3.8-6.8-4.1-13.9-1.6-21.2c1.4-4,2.7-8,4.1-11.9c1.4-3.8,3.4-7.2,6.1-10.2c17.8-20.6,56.8-17.6,70.8,5.5
	c1.3,2.3,2.7,3.7,5.3,4.1c1.1,0.1,2.3,0.6,3.4,1c19.9,6.4,23.7,21.3,9.2,36.4c-11.2,11.7-24.3,19.9-40.4,22.9
	c-1,0.1-1.8,0.4-2.1,1.4C2495.9,930.7,2490.2,930.7,2484.7,930.7z"/>
<path class="st22" d="M2560.6,683.2c-9.2,0.1-18.2-0.3-27.4,3.6c-13.9,6-38.7-7.2-36-25.4c0.3-1.8,0.6-3.7,1.3-5.5
	c1.8-5.3,1.6-12.6-1.1-17.9c-3.6-6.7-4.4-13.9-5-21.2c-1.3-16.6-2.4-33.4-3-50c-0.4-12.8,1.1-14.1,13.6-14.9
	c6.5-0.4,36.5,2.7,38.7,2.6c14.8-1.1,28.7,1.3,42.5,7c16.2,6.7,33,12.2,49.6,18.2c4.3,1.6,5.4,4,5.1,8.4
	c-2.3,27.3-3.1,54.6-2.7,81.8c0.1,5.3-2,6.8-6.5,7.8C2606.5,682.6,2583.4,682.3,2560.6,683.2z"/>
<path class="st22" d="M2411.1,804.5c0-9.4,0.3-18.9-0.1-28.3c-0.3-5.3,2-6.1,6.1-5.1c0.3,0,0.4,0,0.7,0.1
	c16.1,6.5,33.3,11.2,45.9,24.4c10.9,11.4,10.4,22.7-1,33.8c-13.9,13.4-30.1,14.8-47.7,10.4c-3.1-0.9-3.8-2.7-3.8-5.7
	C2411.2,824.4,2411.1,814.5,2411.1,804.5L2411.1,804.5z"/>
<path class="st1" d="M2673.1,1243.2c-2,1-1.8,3.1-2.4,4.8c-1.8,4.8-4.7,7.4-10.1,8.2c-37.2,6.3-74.5,12.9-111.7,19.5
	c-7,1.3-13.6,3.4-20.3,5.8c-3.4,1.3-6.5,3.3-7.7,6.7c-1.7,5-3.7,3-5.5,0.6c-2.7-3.3-4.7-7-6.3-10.9c-9.2-24.9-10.9-50.7-10.8-76.9
	c0.3-29.4,2-58.8,1.4-88.4c-0.1-4.8-0.3-9.2-2.1-13.8c-2-5.1-0.3-10.2,0.6-14.4c-14.5,0-29-0.3-43.5,0c-33.1,0.7-66.2-0.9-99-5.4
	c-7.2-1-4.7-5.5-5-9.2c-0.3-3.8-0.6-7.2,5.3-7.7c34.8-2.6,69.5-1.4,104,3.4c13.2,1.8,26.6,3.3,39.5,7c3.1,0.9,4,0.3,4.7-2.8
	c1.3-6,2-12.2,6.8-16.8c0.6-0.6,0.6-2.1,0.4-3.3c-3.7-36.4-3.6-73-5-109.6c-2.3-57.3-5.1-114.5-5-171.8c0-19,0.3-38.2,4-57.1
	c0.7-3.7,0.3-5-4.1-4c-7,1.7-13.9-0.7-21-0.7c-19.9,0-39.9,0.9-59.8-1.1c-4.7-0.4-8.8-0.1-4.3-6.8c3.3-5,4.8-11.2,2-16.9
	c-2.8-5.7,0.4-5.8,4.3-6c14.1-0.4,28.1-0.6,42.2-1.3c9.5-0.4,19.2,1.1,28.6-2.8c6.1-2.6,12.1,1.3,16.5,6c2.7,3,4.5,2.6,7.4-0.4
	c6.3-6.7,10.5-7.1,18.8-2.7c1.6,0.9,2.8,1.6,4.4,0.6c7.7-4.8,16.2-4.1,24.7-4c9.4,0.1,18.8-0.4,28.1,1.4c6.5,1.4,11.7,4.8,15.6,10.1
	c2,2.6,1.8,4.4-1.7,4.5c-6.3,0.4-8,4.3-7,9.7c2,9.9-5.7,16.1-9.1,23.7c-0.3,0.6-1.1,1-1.7,1c-8.2-0.9-6,4.1-4.8,8.7
	c5.8,25.2,7.1,50.9,7,76.6c-0.3,41.8,3.3,83.3,7.5,124.8c4,38.5,9.1,76.7,14.9,115c0.9,5.5-1.6,6.3-6,6.4c-27,1.4-53.9,2.8-80.9,4.4
	c-3.3,0.1-6.5,0-10.4,2.1c5.4,2.6,10.7,2.8,15.6,3.3c32.8,3.4,65.5,5.4,98.2-0.9c5.5-1.1,9.5,1.8,13.4,4.8
	c8.7,7,11.8,16.6,13.8,27.1c4.5,24.6,6,49.6,8.4,74.5c1.8,18.8,3.6,37.5,5.4,56.3c0.1,1.6-0.4,3.4,1.6,4.3
	C2673.1,1233.8,2673.1,1238.5,2673.1,1243.2z"/>
</svg>
