<svg version="1.2" xmlns="http://www.w3.org/2000/svg" viewBox="0 0 42 42" width="42" height="42">
	<title>btn_google_dark_normal_ios-svg</title>
	<style>
		.s0 { fill: #4285f4 } 
		.s1 { fill: none } 
		.s2 { fill: #ffffff } 
		.s3 { fill: #34a853 } 
		.s4 { fill: #fbbc05 } 
		.s5 { fill: #ea4335 } 
	</style>
	<g id="Google-Button">
		<g id="9-PATCH">
		</g>
		<g id="btn_google_dark_normal">
			<g id="button">
				<g id="button-bg">
					<rect id="path-2" class="s0" width="42" height="42" rx="2"></rect>
					<rect id="path-2" class="s1" width="42" height="42" rx="2"></rect>
					<rect id="path-2" class="s1" width="42" height="42" rx="2"></rect>
					<rect id="path-2" class="s1" width="42" height="42" rx="2"></rect>
				</g>
			</g>
			<g id="button-bg-copy">
				<rect id="path-3" class="s2" x="1.1" y="1.1" width="39.9" height="39.9" rx="1"></rect>
				<rect id="path-3" class="s1" x="1.1" y="1.1" width="39.9" height="39.9" rx="1"></rect>
				<rect id="path-3" class="s1" x="1.1" y="1.1" width="39.9" height="39.9" rx="1"></rect>
				<rect id="path-3" class="s1" x="1.1" y="1.1" width="39.9" height="39.9" rx="1"></rect>
			</g>
			<g id="logo_googleg_48dp">
				<path id="Shape" fill-rule="evenodd" class="s0" d="m27.3 28.2h-3.1v-2.4c1-0.7 1.7-1.7 1.9-2.9h-5.1v-3.6h8.9q0.2 0.9 0.2 1.9c0 2.9-1.1 5.3-2.8 7z"/>
				<path id="Shape" fill-rule="evenodd" class="s3" d="m12.6 25.2v-2.4h3.1c0.8 2.2 2.8 3.9 5.3 3.9 1.3 0 2.4-0.3 3.2-0.9l3.1 2.4c-1.6 1.4-3.7 2.3-6.3 2.3-3.7 0-6.9-2.2-8.4-5.3z"/>
				<path id="Shape" fill-rule="evenodd" class="s4" d="m12.6 25.2c-0.7-1.2-1-2.7-1-4.2 0-1.5 0.3-3 1-4.2h3.1v2.4q-0.3 0.9-0.3 1.8 0 0.9 0.3 1.8z"/>
				<path id="Shape" fill-rule="evenodd" class="s5" d="m15.7 19.2l-3.1-2.4c1.5-3.1 4.7-5.2 8.4-5.2 2.5 0 4.7 0.9 6.3 2.4l-2.7 2.7c-1-0.9-2.2-1.4-3.6-1.4-2.5 0-4.5 1.7-5.3 3.9z"/>
				<path id="Shape" class="s1" d="m11.5 11.5h19v19h-19z"/>
			</g>
			<g id="handles_square">
			</g>
		</g>
	</g>
</svg>