<svg id="Layer_1" data-name="Layer 1" xmlns="http://www.w3.org/2000/svg" xmlns:xlink="http://www.w3.org/1999/xlink" viewBox="0 0 2000 2000"><defs><style>.cls-1{fill:none;}.cls-2{fill:#aed76a;}.cls-3{clip-path:url(#clip-path);}.cls-4{fill:#fecfae;}.cls-5{fill:#b27d59;}.cls-6{fill:#aa7149;}.cls-7{fill:#d79160;}.cls-8{fill:#c6b6ac;}.cls-9{fill:#7c5135;}.cls-10{fill:#686d22;}.cls-11{fill:#798428;}.cls-12{fill:#633e2a;}.cls-13{fill:#b57950;}.cls-14{fill:#c48458;}.cls-15{fill:#e2dbd7;}.cls-16{fill:#915f3d;}.cls-17{fill:#1e1713;}.cls-18{fill:#889b2d;}.cls-19{fill:#8a7b7d;}.cls-20{fill:#332525;}.cls-21{clip-path:url(#clip-path-2);}.cls-22{fill:#5b3b24;}.cls-23{clip-path:url(#clip-path-3);}.cls-24{fill:#af754e;}.cls-25{fill:#a29cb7;}.cls-26{clip-path:url(#clip-path-4);}.cls-27{fill:#b6b3c4;}.cls-28{clip-path:url(#clip-path-5);}.cls-29{clip-path:url(#clip-path-6);}.cls-30{clip-path:url(#clip-path-7);}.cls-31{clip-path:url(#clip-path-8);}.cls-32{clip-path:url(#clip-path-9);}.cls-33{clip-path:url(#clip-path-10);}.cls-34{clip-path:url(#clip-path-11);}.cls-35{clip-path:url(#clip-path-12);}.cls-36{clip-path:url(#clip-path-13);}.cls-37{fill:#c4c2c2;}.cls-38{fill:#999294;}.cls-39{fill:#7c6e71;}.cls-40{fill:#a89ea0;}.cls-41{fill:#dd9f76;}.cls-42{fill:#afd86a;}.cls-43{fill:#77a22f;}.cls-44{clip-path:url(#clip-path-14);}.cls-45{fill:#8abd32;}.cls-46{clip-path:url(#clip-path-15);}.cls-47{fill:#8bbc38;}</style><clipPath id="clip-path"><path class="cls-1" d="M549.45,997.34c-92.52-8-185.61,15.43-259.5,68.19-104.14,74.36-211.61,210.37-102.69,377.78,221.54,340.52,588,306.22,956.46,244s453.55-339.14,545-306.18,200.75-102.85,168.69-216.92c-35.82-127.42-544.72-425.13-940.08-261.67C713.5,986.86,605.88,1002.23,549.45,997.34Z"/></clipPath><clipPath id="clip-path-2"><path class="cls-1" d="M486.55,1267.94l-112.65-48.1s15.3-47.23,60.06-31C491.1,1209.49,486.55,1267.94,486.55,1267.94Z"/></clipPath><clipPath id="clip-path-3"><path class="cls-1" d="M604.5,1025.48l105,223a41.35,41.35,0,0,1,3.54,25.36c-1.22,6.58-4.22,13.18-10.93,16.22-15.78,7.15-35.61-9.14-35.61-9.14s2,25.54-16.08,33.41c-16.24,7.07-36.09-10.69-36.09-10.69s-.09,24.59-15.18,32.42c-5.66,2.94-12.37,2.26-18.55.27a42.56,42.56,0,0,1-24.8-21.55L449.44,1099Z"/></clipPath><clipPath id="clip-path-4"><path class="cls-1" d="M626.28,1375.74s22.48,13.11-2.52,25.85c-19.81,10.11-42.85,3.3-51.6-.5-3.6-1.56-6.42-5.79-7.3-9.31-.93-3.73-.12-8.58,6.82-13.1,0,0-3.1,8.4,3,11.67s11.79,5.57,26.51,5.09c14.16-.45,26.61-6.21,28.44-10.34C631.36,1381.21,626.28,1375.74,626.28,1375.74Z"/></clipPath><clipPath id="clip-path-5"><path class="cls-1" d="M634.31,1412.67s15.2,24.64-33.55,26.18c-50,1.58-35.29-29.31-35.29-29.31s-.57,21,34.42,19.24S634.31,1412.67,634.31,1412.67Z"/></clipPath><clipPath id="clip-path-6"><ellipse class="cls-1" cx="600.06" cy="1375.26" rx="19.5" ry="6.9"/></clipPath><clipPath id="clip-path-7"><path class="cls-1" d="M1363.43,1223.83s22.48,13.1-2.52,25.85c-19.81,10.1-42.85,3.3-51.6-.5-3.61-1.57-6.42-5.8-7.3-9.32-.93-3.72-.13-8.57,6.81-13.09,0,0-3.09,8.39,3,11.66s11.79,5.57,26.51,5.1c14.16-.46,26.61-6.21,28.44-10.34C1368.51,1229.29,1363.43,1223.83,1363.43,1223.83Z"/></clipPath><clipPath id="clip-path-8"><path class="cls-1" d="M1371.46,1260.75s15.2,24.64-33.55,26.19c-50,1.58-35.3-29.32-35.3-29.32s-.56,21,34.43,19.25S1371.46,1260.75,1371.46,1260.75Z"/></clipPath><clipPath id="clip-path-9"><ellipse class="cls-1" cx="1337.2" cy="1223.35" rx="19.5" ry="6.9"/></clipPath><clipPath id="clip-path-10"><path class="cls-1" d="M750.13,1337s39.21,22.86-4.39,45.09c-34.56,17.63-74.75,5.76-90-.87-6.28-2.73-11.19-10.11-12.73-16.25-1.62-6.49-.22-15,11.89-22.84,0,0-5.4,14.64,5.26,20.35s20.56,9.71,46.24,8.88c24.7-.79,46.42-10.83,49.61-18C759,1346.5,750.13,1337,750.13,1337Z"/></clipPath><clipPath id="clip-path-11"><path class="cls-1" d="M764.14,1401.38s26.52,43-58.53,45.68c-87.27,2.76-61.57-51.14-61.57-51.14s-1,36.69,60.05,33.57S764.14,1401.38,764.14,1401.38Z"/></clipPath><clipPath id="clip-path-12"><ellipse class="cls-1" cx="704.38" cy="1336.13" rx="34.01" ry="12.04"/></clipPath><clipPath id="clip-path-13"><path class="cls-1" d="M1002.41,1325.45l89.18-47s24.05-142.75-25.07-153.44-64.63,26.12-69,39S1002.41,1325.45,1002.41,1325.45Z"/></clipPath><clipPath id="clip-path-14"><path class="cls-1" d="M1593.77,1118.32c3.37-12.77,2.91-27.62-9.24-40.5,0,0-10.4-13.61-32.15-10.73,0,0-22.07-61.87-64.18-39.24-58,31.14-21.29,102.87-21.29,102.87s-26.52-43.93-52.35-1.68c-14.14,23.09,8.82,51.64,30.23,49.89a84.91,84.91,0,0,0,47.21-2l71.09-23.57C1577.64,1148.45,1589.19,1135.56,1593.77,1118.32Z"/></clipPath><clipPath id="clip-path-15"><path class="cls-1" d="M1399.2,1194.92c1.41-.89,2.89-1.82,4.45-2.77,0,0-27.6-62.52,40-85.23,66.86-22.46,86.54,53.73,86.54,53.73s8.54-35.58,44-25.39c28.64,7.22,28.83,39,17.15,59.91,0,0,68.92,61.67-88.71,73.86-.95.39-15.67,6-15.67,6a102.88,102.88,0,0,1-30.88,6.45h0a100.82,100.82,0,0,1-58.91-15.25l-.5-.32a31.29,31.29,0,0,1-4.09-3.12C1371.65,1244.12,1375.29,1210.06,1399.2,1194.92Z"/></clipPath></defs><path class="cls-2" d="M549.45,997.34c-92.52-8-185.61,15.43-259.5,68.19-104.14,74.36-211.61,210.37-102.69,377.78,221.54,340.52,588,306.22,956.46,244s453.55-339.14,545-306.18,200.75-102.85,168.69-216.92c-35.82-127.42-544.72-425.13-940.08-261.67C713.5,986.86,605.88,1002.23,549.45,997.34Z"/><g class="cls-3"><path class="cls-4" d="M1205.66,1370.09l43.62-4.69s70.49,3.72,128.44,24.19c109.47,38.67,86.1,178.36,37.69,251S1212.08,1698,1212.08,1698s177.48-252.79-89-255C1123.11,1443.07,1154.7,1338.07,1205.66,1370.09Z"/></g><path class="cls-5" d="M306.57,1346.86V1387L713.84,1568.6s26-46.09,3.89-66.37S306.57,1346.86,306.57,1346.86Z"/><path class="cls-6" d="M1670.8,1052.27v18.55l-957,497.78-2.72-39.18S1286.25,1058.06,1670.8,1052.27Z"/><polygon class="cls-7" points="1538.73 1005.38 1670.8 1052.28 711.12 1529.42 306.57 1346.86 1066.15 1092.92 1538.73 1005.38"/><polygon class="cls-8" points="1349.86 1172.51 1601.37 1044.25 1607.42 747.97 1456.02 614.82 1275.89 917.64 1349.86 1172.51"/><polygon class="cls-8" points="934.18 1027.02 1300.59 1207.15 1295.54 882.73 929.73 764.89 934.18 1027.02"/><path class="cls-6" d="M913.71,1032.91l20.47-5.89,3.58-241.55H907S903,1001.26,913.71,1032.91Z"/><polygon class="cls-9" points="872.96 799.97 872.96 1010.24 913.68 1032.91 915.53 786.63 872.96 799.97"/><polygon class="cls-6" points="1610.77 1079.87 1596.75 1073.02 1596.75 755.61 1632.26 789.27 1610.77 1079.87"/><polygon class="cls-9" points="1639.16 783.36 1644.22 1062.38 1610.77 1079.87 1610.77 760.16 1639.16 783.36"/><path class="cls-6" d="M1304.37,1213.23l-28.48-13.85V950.51l43.84-14.76S1326.21,1179.75,1304.37,1213.23Z"/><path class="cls-8" d="M1338.06,967.93l146-282s98.17,106.9,126.74,107.3-139-175.74-139-175.74l-26.28,15.13-77.1,147.77L1318.11,916.7Z"/><polygon class="cls-9" points="1304.37 965.46 1304.37 1213.23 1349.89 1191.03 1349.38 901.39 1304.37 965.46"/><path class="cls-10" d="M1480.26,615.84l193.16,174-6.55,9.31-8.54,5.55s-140.75-76.92-202.26-171.56C1456.07,633.13,1453.81,601.28,1480.26,615.84Z"/><polygon class="cls-6" points="1353.42 878.06 1549.46 802.43 1480.37 862.09 1341.41 907.4 1353.42 878.06"/><polygon class="cls-9" points="1344.32 894.32 1621.18 783.36 1619.4 826.67 1341.41 940.82 1344.32 894.32"/><path class="cls-10" d="M1113.55,471.88c-56.35-28.12-140,12.41-152.28,39.53L854.33,748.13a64.2,64.2,0,0,0-5.07,39.45c2,10.22,6.78,20.42,17.25,25,24.65,10.83,55.17-14.81,55.17-14.81s-2.66,39.71,25.56,51.63c25.35,10.71,55.89-17.22,55.89-17.22s.56,38.2,24.13,50.11c8.84,4.46,19.26,3.3,28.84.1a64.21,64.21,0,0,0,22.3-13,62.56,62.56,0,0,0-.75,27.2c2,10.21,6.78,20.42,17.25,25,24.65,10.84,55.17-14.8,55.17-14.8s-2.66,39.71,25.56,51.63c25.35,10.71,55.89-17.22,55.89-17.22s.56,38.2,24.13,50.11c8.84,4.46,19.26,3.3,28.84.09,16.76-5.6,36.6-14.7,44.36-30.57l158.34-333.09Z"/><path class="cls-11" d="M1030.05,439.07a32.09,32.09,0,0,0-42.81,15.7L856.71,734.21a63.15,63.15,0,0,0-5,38.82c2,10.05,6.67,20.1,17,24.63C893,808.32,923,783.09,923,783.09s-2.62,39.07,25.15,50.8c24.94,10.54,55-16.94,55-16.94s.55,37.59,23.74,49.3c8.7,4.4,18.95,3.25,28.37.1a63.16,63.16,0,0,0,22-12.76,61.67,61.67,0,0,0-.74,26.77c2,10,6.67,20.09,17,24.62,24.26,10.66,54.29-14.57,54.29-14.57s-2.62,39.08,25.15,50.81c24.94,10.54,55-17,55-17s.55,37.6,23.74,49.31c8.7,4.39,19,3.24,28.37.09a65.06,65.06,0,0,0,37.55-33.35L1476.6,608.63Z"/><path class="cls-10" d="M900.45,729.76c28.15,3.14,49.9-19.77,64.23-41.27a3.49,3.49,0,0,1,5.91,3.69L969,695a26.66,26.66,0,0,1-2.14,3.27,3.52,3.52,0,0,1-5.83-3.72c.07-.2.2-.45.29-.64a58.34,58.34,0,0,1,3.45-5.46,3.48,3.48,0,0,1,5.87,3.73,106.57,106.57,0,0,0-8.32,17.74c-4.31,12.52-7.66,29.11,1.19,40.34,3.46,4.16,8.1,7,13,9.39-8.54-2-16.84-6.92-20.47-15.21-7.68-17.28-.29-40.18,8.57-55.74l5.87,3.72c-.85,1.25-1.68,2.54-2.45,3.84-.14.25-.41.71-.53,1l0-.05a3.48,3.48,0,0,0-5.94-3.49c.18-.27.45-.68.61-.95.55-.88,1.88-3.12,2.42-4l5.9,3.69c-14.94,22.34-41.16,46.13-70,37.38Z"/><path class="cls-10" d="M972.74,759.38c28.15,3.14,49.89-19.78,64.23-41.27a3.48,3.48,0,0,1,5.9,3.69l-1.63,2.81a27.19,27.19,0,0,1-2.14,3.28,3.52,3.52,0,0,1-5.84-3.72c.08-.21.21-.45.3-.64a60.38,60.38,0,0,1,3.44-5.46,3.48,3.48,0,0,1,5.87,3.72,107,107,0,0,0-8.31,17.75c-4.32,12.52-7.66,29.11,1.18,40.34,3.47,4.16,8.1,7,13,9.39-8.55-2-16.84-6.92-20.48-15.21-7.68-17.28-.28-40.18,8.58-55.75l5.87,3.73c-.86,1.24-1.69,2.53-2.45,3.83-.14.26-.41.72-.53,1l0-.05a3.51,3.51,0,0,0-3.23-4.77,3.44,3.44,0,0,0-2.72,1.29l.62-.95c.55-.88,1.88-3.13,2.41-4l5.91,3.68c-15,22.35-41.16,46.13-70,37.39Z"/><path class="cls-10" d="M1048.6,789.83c28.16,3.13,49.9-19.78,64.24-41.28a3.48,3.48,0,0,1,5.9,3.69l-1.64,2.82a25,25,0,0,1-2.14,3.28,3.52,3.52,0,0,1-5.83-3.73,5.18,5.18,0,0,1,.3-.63,60.38,60.38,0,0,1,3.44-5.46,3.48,3.48,0,0,1,5.87,3.72,107.32,107.32,0,0,0-8.32,17.74c-4.31,12.53-7.66,29.12,1.19,40.35,3.46,4.16,8.1,7,13,9.39-8.54-2-16.84-6.92-20.47-15.21-7.68-17.29-.28-40.18,8.57-55.75l5.88,3.73c-.86,1.24-1.69,2.53-2.45,3.83-.15.26-.41.72-.53,1l0,0a3.51,3.51,0,0,0-3.24-4.77,3.46,3.46,0,0,0-2.71,1.28l.62-.94c.54-.88,1.88-3.13,2.41-4l5.91,3.68c-14.95,22.35-41.16,46.13-70,37.39Z"/><path class="cls-10" d="M1118.26,817.73c28.15,3.13,49.9-19.78,64.24-41.28a3.48,3.48,0,0,1,5.9,3.69l-1.64,2.82a25.54,25.54,0,0,1-2.14,3.27,3.52,3.52,0,0,1-5.83-3.72c.07-.2.2-.44.29-.64a61.92,61.92,0,0,1,3.45-5.46,3.48,3.48,0,0,1,5.87,3.73,106.57,106.57,0,0,0-8.32,17.74c-4.31,12.52-7.66,29.11,1.19,40.34,3.46,4.16,8.1,7,13,9.39-8.54-2-16.84-6.92-20.47-15.21-7.68-17.28-.28-40.18,8.57-55.74l5.87,3.72c-.85,1.25-1.68,2.54-2.44,3.84-.15.25-.42.71-.54,1l0,0a3.52,3.52,0,0,0-3.24-4.78,3.48,3.48,0,0,0-2.71,1.29c.18-.27.45-.68.61-.95.55-.88,1.88-3.12,2.42-4l5.91,3.68c-15,22.34-41.17,46.13-70,37.39Z"/><path class="cls-10" d="M1194.13,848.17c28.15,3.14,49.89-19.77,64.23-41.27a3.49,3.49,0,0,1,5.91,3.69l-1.64,2.81a27.19,27.19,0,0,1-2.14,3.28,3.52,3.52,0,0,1-5.84-3.72c.08-.21.21-.45.3-.64a58.34,58.34,0,0,1,3.45-5.46,3.48,3.48,0,0,1,5.86,3.73,107.33,107.33,0,0,0-8.31,17.74c-4.31,12.52-7.66,29.11,1.18,40.34,3.47,4.16,8.11,7,13,9.39-8.55-2-16.84-6.92-20.48-15.21-7.67-17.28-.28-40.18,8.58-55.75l5.87,3.73c-.85,1.24-1.69,2.54-2.45,3.84-.14.25-.41.71-.53,1l0,0a3.48,3.48,0,0,0-5.94-3.49c.18-.27.45-.68.61-1,.55-.88,1.88-3.12,2.42-4l5.9,3.69c-14.94,22.34-41.16,46.13-70,37.38Z"/><path class="cls-10" d="M980.24,634.55c28.17,3,49.83-20,64.09-41.51a3.49,3.49,0,0,1,5.92,3.67l-1.63,2.83a26,26,0,0,1-2.13,3.28,3.52,3.52,0,0,1-5.85-3.7,6.27,6.27,0,0,1,.3-.64,59.69,59.69,0,0,1,3.42-5.48,3.48,3.48,0,0,1,5.88,3.71,108.11,108.11,0,0,0-8.25,17.77c-4.27,12.54-7.56,29.14,1.33,40.34,3.48,4.15,8.13,7,13,9.34-8.55-1.94-16.87-6.85-20.53-15.13-7.74-17.26-.42-40.18,8.38-55.78l5.88,3.7c-.85,1.25-1.68,2.55-2.43,3.85-.15.25-.41.71-.53,1l0,0a3.51,3.51,0,0,0-3.25-4.76,3.46,3.46,0,0,0-2.71,1.3c.18-.27.45-.69.61-1,.55-.89,1.87-3.14,2.4-4l5.92,3.66c-14.86,22.4-41,46.28-69.88,37.64Z"/><path class="cls-10" d="M1056.22,664.73c28.16,3,49.82-20,64.09-41.51a3.48,3.48,0,0,1,5.91,3.67l-1.63,2.82a26,26,0,0,1-2.12,3.29,3.52,3.52,0,0,1-5.85-3.7,6.22,6.22,0,0,1,.29-.64,62,62,0,0,1,3.43-5.48,3.48,3.48,0,0,1,5.88,3.71,106.12,106.12,0,0,0-8.25,17.77c-4.27,12.54-7.56,29.14,1.33,40.34,3.47,4.14,8.12,7,13,9.34-8.55-1.94-16.86-6.86-20.53-15.14-7.73-17.25-.42-40.17,8.38-55.77l5.89,3.7c-.85,1.25-1.68,2.55-2.44,3.85-.14.25-.41.71-.53,1l0-.05a3.51,3.51,0,0,0-3.26-4.76,3.43,3.43,0,0,0-2.7,1.29c.18-.27.45-.68.61-.95.54-.88,1.87-3.13,2.4-4l5.92,3.66c-14.87,22.4-41,46.27-69.88,37.64Z"/><path class="cls-10" d="M1065.37,559.32c28.17,3,49.83-20,64.09-41.5a3.49,3.49,0,0,1,5.92,3.67l-1.63,2.82a26,26,0,0,1-2.13,3.28,3.52,3.52,0,0,1-5.85-3.7c.08-.2.2-.44.3-.63a58.36,58.36,0,0,1,3.42-5.48,3.48,3.48,0,0,1,5.88,3.71,107.35,107.35,0,0,0-8.25,17.77c-4.27,12.54-7.56,29.14,1.33,40.33,3.48,4.15,8.13,7,13,9.35-8.55-1.94-16.87-6.86-20.53-15.14-7.74-17.25-.42-40.18,8.38-55.77l5.88,3.7c-.85,1.25-1.68,2.54-2.43,3.84-.15.26-.41.72-.53,1l0,0a3.49,3.49,0,0,0-6-3.47c.18-.27.45-.68.61-.95.55-.88,1.87-3.13,2.4-4.05l5.92,3.67c-14.86,22.39-41,46.27-69.88,37.63Z"/><path class="cls-11" d="M1486.43,614.63l189.85,171-9.46,13.47S1511.3,697.66,1465.17,623.3c0,0-6.88-21.23,11-14.86A30.87,30.87,0,0,1,1486.43,614.63Z"/><path class="cls-12" d="M1523.55,739.17s-32.49-17.87-36-12.68,30.14,18.1,30.14,18.1l7-.69Z"/><path class="cls-12" d="M1520.05,769s-31.73-12.23-35.15-4.89,35.46,15.67,35.46,15.67Z"/><path class="cls-13" d="M1518.82,773l-33.92-8.9s-3.19,10.56,3.45,15.16,34,9.22,34,9.22Z"/><path class="cls-13" d="M1522.29,753.82l-32.81-8.62s-5.76-14.46-2-18.71l37.67,16.15-1.88,11Z"/><path class="cls-9" d="M1604.37,862.17s42-8,46.24-31.84,8.44-74.69-20.64-110.82l-20.3,15.82-1.65-7.26,14.27-15.46s-8.06-11.4-13.16-12.27l-16.56,16.6-4.63-3.47,15.39-16.84s-47.37-29.42-78.48,27.25S1604.37,862.17,1604.37,862.17Z"/><path class="cls-7" d="M1583.23,738.52l0-24s-14.16-13.51-24-10.14a25.34,25.34,0,0,0-13.91,12.44l1.41,10.17-11.86-14.35s-22.07,16.33-19.12,49.13,11.07,73.48,36.29,84.93,42.47,20.63,52.37,15.44l-9.61-18.39L1611.34,859s9.52-4.88,8.21-8.65l-29.33-27.48,35.61,21.3s4.62-26.39,4.5-35.86l-17-5s18.59,1.2,18.27-1.22,5.41-61.16-40.83-83Z"/><path class="cls-10" d="M987.66,453.89,1467.94,650V613.72L1005.07,432.38l-6.17,5.25a32.59,32.59,0,0,0-7.67,9.53Z"/><polygon class="cls-7" points="1443.92 495.56 1501.78 529.44 1468.09 627.82 1417.41 595.41 1324.76 502.37 1443.92 495.56"/><polygon class="cls-14" points="986.79 434.51 1017.43 374.77 1112.88 423.93 986.79 434.51"/><path class="cls-6" d="M985.05,435.38l432.36,160,11.76-42s-59.66-18.17-77.25-39.4c0,0,58.41,25.77,78.75,21.89l3.62-19.7s-36.49-8.32-46.11-14.49c0,0,42.45,7.06,52,1.21l3.75-7.39-422.8-129.63-12.33,25.68s50.79,26.32,78.3,28.69c0,0-62.26,1-85.77-18.63l-6.92,13.17s23.29,13.16,38.2,13.85c0,0-32.83-.11-40.31-4.45Z"/><polygon class="cls-7" points="1146.09 285.36 1322.66 646.77 1301.92 661.05 1132.92 321.23 1114.65 291.77 1146.09 285.36"/><polygon class="cls-15" points="742.2 1411.71 461.06 1272.69 457.36 631.5 623.31 498.64 825.11 837.9 742.2 1411.71"/><polygon class="cls-8" points="1207.94 1217.79 797.44 1421.72 803.09 798.8 1212.93 666.78 1207.94 1217.79"/><path class="cls-6" d="M1230.88,967.05l-22.94-6.6-4-270.62h34.49S1242.88,931.59,1230.88,967.05Z"/><polygon class="cls-9" points="1276.53 706.07 1276.53 941.64 1230.9 967.05 1228.83 691.13 1276.53 706.07"/><path class="cls-8" d="M755.46,894.25l-163.52-316s-110,119.77-142,120.22S605.72,501.62,605.72,501.62l29.44,17,86.37,165.55,56.28,152.73Z"/><path class="cls-6" d="M1227.16,1226.57l-19.22-8.78L1207.7,944l30.72,3.18S1239.16,1191.11,1227.16,1226.57Z"/><polygon class="cls-9" points="1276.53 892.08 1276.53 1198.99 1227.16 1226.57 1230.23 877.14 1276.53 892.08"/><polygon class="cls-9" points="449.94 1019.62 465.64 1011.57 465.64 656.38 425.87 694.08 449.94 1019.62"/><path class="cls-9" d="M782.7,1443.41l42.41-23V1141.62L776,1125.08S758.24,1405.89,782.7,1443.41Z"/><polygon class="cls-6" points="782.7 1158.36 782.7 1443.41 734.58 1420.17 734.58 1086.59 782.7 1158.36"/><polygon class="cls-6" points="418.13 687.47 417.18 1003.61 449.94 1019.62 449.94 661.48 418.13 687.47"/><path class="cls-9" d="M782.7,1176.52l42.41-23V874.73L776,858.19S758.24,1139,782.7,1176.52Z"/><polygon class="cls-6" points="782.7 891.47 782.7 1176.52 734.58 1153.28 734.58 819.7 782.7 891.47"/><path class="cls-16" d="M748.17,1426.73V1420q0-9.84.77-19.66l1.15-14.18-5.3,18.24a30.61,30.61,0,0,0-1.08,5.71L742.47,1424Z"/><path class="cls-16" d="M757.15,1431v-4.81q0-7.05.56-14.09l.82-10.16-3.8,13.07a20.94,20.94,0,0,0-.77,4.09l-.89,9.92Z"/><polygon class="cls-9" points="603.2 1349.17 545.86 1315.53 543.79 1179.78 603.39 1173.62 603.2 1349.17"/><polygon class="cls-9" points="641.78 1372.08 657.51 1369.45 655.84 1194.55 633.86 1204.57 641.78 1372.08"/><polygon class="cls-16" points="591.51 1336.71 590.93 1193.29 588.2 1206.22 585.81 1332.45 591.51 1336.71"/><polygon class="cls-16" points="579.22 1327.52 581.29 1240.78 575.12 1323.83 579.22 1327.52"/><polygon class="cls-16" points="570.27 1320.82 573.11 1189.61 564.55 1184.96 562.65 1295.32 567.79 1236.05 570.27 1320.82"/><polygon class="cls-16" points="556.8 1310.74 558.94 1231.25 552.71 1307.48 556.8 1310.74"/><polygon class="cls-16" points="557.93 1163.7 555.66 1234.33 551.93 1166.25 557.93 1163.7"/><path class="cls-6" d="M598.41,1205.78l1.32,141.36s3.29,26.5,42,24.94l-2.06-196.7Z"/><path class="cls-6" d="M1067,848.63c6-30.21,21.1-90.64,34.57-91.9a8.42,8.42,0,0,1,1.42,0h11.6l-1.88,5c11.79,10.25,24.11,34,24.78,51,.9,22.66,0,92.53,0,92.53l-54.07,31-3.4,8.67h-8.55a4.57,4.57,0,0,1-4.57-4.47C1066.56,922.63,1065.33,857.21,1067,848.63Z"/><path class="cls-9" d="M1080.05,944.93s-2.41-86-1.76-96.21c2.39-37.3,22.86-90.73,36.33-92s31.19,32,35.92,56c4.39,22.25.54,104.29.54,104.29Z"/><path class="cls-17" d="M1117.58,783.11C1102,785.87,1093.91,826,1090,844.58l51.9-16.14C1140.28,812.34,1129.69,781,1117.58,783.11Z"/><path class="cls-17" d="M1089.21,924,1142,904.86s.38-38.15.25-63.87l-53.58,19.37C1088.55,885.53,1089.21,924,1089.21,924Z"/><polygon class="cls-9" points="1123.16 778.88 1125.17 911.34 1112.78 919.68 1112.78 776.33 1123.16 778.88"/><path class="cls-6" d="M1386.71,1024.26c4.43-26.29,16-79,27.66-80.38a7.16,7.16,0,0,1,1.23,0l10-.28-1.5,4.38c10.46,8.58,21.7,28.84,22.7,43.54,1.33,19.59,2.27,80.08,2.27,80.08l-46,28.15-2.74,7.58-7.4.21a4,4,0,0,1-4.06-3.76C1388.12,1088.32,1385.44,1031.73,1386.71,1024.26Z"/><path class="cls-9" d="M1400.34,1107.29s-4.2-74.41-3.88-83.22c1.15-32.34,17.55-79.09,29.18-80.51s27.78,27,32.47,47.6c4.34,19.15,3,90.25,3,90.25Z"/><path class="cls-17" d="M1428.85,966.32c-13.39,2.77-19.43,37.73-22.37,53.88L1451,1005C1449.21,991.05,1439.27,964.16,1428.85,966.32Z"/><path class="cls-17" d="M1407.75,1089l45.19-17.89s-.6-33-1.34-55.28l-45.9,18.07C1406.24,1055.68,1407.75,1089,1407.75,1089Z"/><polygon class="cls-9" points="1433.57 962.51 1438.56 1077.11 1428.05 1084.63 1424.53 960.56 1433.57 962.51"/><path class="cls-6" d="M1490.83,987.35c3.9-23.1,14.09-69.38,24.31-70.63a6.47,6.47,0,0,1,1.08,0l8.82-.25-1.32,3.85c9.19,7.54,19.07,25.33,20,38.26,1.17,17.21,2,70.36,2,70.36l-40.44,24.73-2.41,6.67-6.5.18a3.47,3.47,0,0,1-3.57-3.3C1492.07,1043.64,1489.72,993.91,1490.83,987.35Z"/><path class="cls-9" d="M1502.81,1060.31s-3.69-65.39-3.41-73.13c1-28.42,15.43-69.49,25.64-70.74s24.41,23.68,28.53,41.82c3.82,16.83,2.66,79.3,2.66,79.3Z"/><path class="cls-17" d="M1527.87,936.43c-11.77,2.44-17.08,33.16-19.66,47.35l39.12-13.4C1545.75,958.17,1537,934.54,1527.87,936.43Z"/><path class="cls-17" d="M1509.33,1044.22l39.7-15.72s-.53-29-1.18-48.58l-40.33,15.88C1508,1015,1509.33,1044.22,1509.33,1044.22Z"/><polygon class="cls-9" points="1532.01 933.09 1536.4 1033.78 1527.16 1040.39 1524.07 931.38 1532.01 933.09"/><path class="cls-6" d="M903.87,899.63c6.64-33.55,23.43-100.64,38.39-102a8.34,8.34,0,0,1,1.58,0h12.88l-2.09,5.56c13.1,11.39,26.77,37.76,27.52,56.64,1,25.17,0,102.75,0,102.75l-60,34.41-3.78,9.62h-9.5a5.07,5.07,0,0,1-5.07-5C903.35,981.81,902,909.16,903.87,899.63Z"/><path class="cls-9" d="M918.33,1006.57s-2.68-95.55-2-106.83C919,858.32,941.76,799,956.72,797.59s34.63,35.57,39.89,62.2c4.87,24.71.59,115.81.59,115.81Z"/><path class="cls-17" d="M960,826.88c-17.27,3.06-26.29,47.67-30.65,68.26L987,877.21C985.21,859.33,973.45,824.5,960,826.88Z"/><path class="cls-17" d="M928.49,983.37l58.59-21.29s.43-42.36.29-70.92l-59.5,21.5C927.76,940.62,928.49,983.37,928.49,983.37Z"/><polygon class="cls-9" points="966.2 822.18 968.43 969.27 954.67 978.53 954.67 819.35 966.2 822.18"/><path class="cls-6" d="M507.38,1151.87l.34,143.48s-.34,21.59,38.14,20.18l-1.06-194Z"/><polygon class="cls-11" points="669.09 1138 671.25 1197.34 616.8 1230.27 669.09 1138"/><path class="cls-18" d="M668.71,1137.78l-51.91,92.49s-42.62,12.74-55.18-33.49c0,0-44.43,16.37-55-35.83,0,0-29.51,10.22-31.33-17.68l61.18-68.11Z"/><path class="cls-11" d="M594.15,1200.69c-11.14-13.77-6.42-32.94.07-47.74a2.18,2.18,0,0,0-3.94-1.87l-.93,1.82a15.34,15.34,0,0,0-1,2.23,2.2,2.2,0,0,0,3.93,1.81,3.32,3.32,0,0,0,.23-.37,37.93,37.93,0,0,0,1.72-3.65,2.18,2.18,0,0,0-4-1.84,66.75,66.75,0,0,1-6.53,10.37c-5.14,6.49-12.75,13.85-21.64,13a23.44,23.44,0,0,1-9.33-3.68c3.92,3.84,9.32,6.53,14.91,5.65,11.69-1.79,21.25-13.4,26.46-23.32l-3.94-1.83c-.37.87-.77,1.74-1.2,2.58-.08.16-.23.46-.32.6l0,0a2.18,2.18,0,0,1,3.84,1.95c.08-.19.21-.47.29-.64.28-.59,1-2,1.31-2.64l-3.93-1.86c-6.72,15.4-10.4,37.23,3.93,49.47Z"/><path class="cls-11" d="M592.1,1144.8c-9.52-11.76-5.48-28.14,0-40.79a1.86,1.86,0,0,0-3.36-1.59L588,1104a13.39,13.39,0,0,0-.86,1.9,1.89,1.89,0,0,0,3.36,1.56c.07-.1.14-.22.2-.32a34,34,0,0,0,1.46-3.12,1.86,1.86,0,0,0-3.37-1.57,57.3,57.3,0,0,1-5.58,8.85c-4.39,5.55-10.89,11.84-18.49,11.1a20.05,20.05,0,0,1-8-3.15c3.35,3.28,8,5.58,12.74,4.83,10-1.53,18.16-11.45,22.61-19.92l-3.37-1.57c-.32.74-.66,1.49-1,2.21-.08.13-.2.39-.28.51v0a1.87,1.87,0,0,1,3.08.08,1.85,1.85,0,0,1,.21,1.59c.07-.16.17-.4.25-.55.23-.5.86-1.75,1.12-2.25l-3.36-1.6c-5.75,13.16-8.89,31.81,3.36,42.27Z"/><path class="cls-11" d="M552.53,1171c-11.15-13.77-6.42-32.94.06-47.75a2.18,2.18,0,0,0-3.93-1.86l-.93,1.81a17.77,17.77,0,0,0-1,2.23,2.2,2.2,0,0,0,3.93,1.82,3.87,3.87,0,0,0,.24-.37,38,38,0,0,0,1.71-3.66,2.18,2.18,0,0,0-3.94-1.83,66,66,0,0,1-6.54,10.36c-5.13,6.5-12.74,13.86-21.63,13a23.44,23.44,0,0,1-9.33-3.68c3.92,3.83,9.32,6.53,14.91,5.65,11.69-1.79,21.25-13.41,26.46-23.32l-3.95-1.84c-.36.88-.76,1.75-1.19,2.59-.09.16-.24.45-.33.6l0,0a2.2,2.2,0,0,1,3.61.1,2.16,2.16,0,0,1,.23,1.86c.09-.19.21-.47.3-.65.28-.58,1-2,1.31-2.63l-3.93-1.87c-6.73,15.41-10.4,37.24,3.93,49.48Z"/><path class="cls-10" d="M1007,338.5c63.13-31.5,156.87,13.9,170.6,44.3L1297.4,648a71.94,71.94,0,0,1,5.68,44.21c-2.26,11.44-7.6,22.87-19.33,28-27.61,12.14-61.81-16.59-61.81-16.59s3,44.49-28.63,57.85c-28.4,12-62.62-19.29-62.62-19.29s-.63,42.79-27,56.13c-9.91,5-21.58,3.7-32.31.11a71.93,71.93,0,0,1-25-14.52,70.22,70.22,0,0,1,.84,30.47c-2.26,11.44-7.6,22.87-19.33,28-27.62,12.14-61.81-16.59-61.81-16.59s3,44.49-28.63,57.85c-28.4,12-62.62-19.29-62.62-19.29s-.63,42.8-27,56.13c-9.9,5-21.57,3.7-32.3.11-18.78-6.28-41-16.47-49.7-34.26L588.39,513.21Z"/><path class="cls-18" d="M1100.54,301.74a36,36,0,0,1,48,17.59L1294.73,632.4a70.78,70.78,0,0,1,5.59,43.5c-2.22,11.25-7.47,22.51-19,27.58-27.17,11.95-60.82-16.32-60.82-16.32s2.94,43.78-28.18,56.92c-27.94,11.8-61.61-19-61.61-19s-.62,42.11-26.61,55.23c-9.74,4.92-21.23,3.64-31.78.11a70.75,70.75,0,0,1-24.59-14.29,69.07,69.07,0,0,1,.83,30c-2.23,11.26-7.48,22.51-19,27.59-27.17,11.95-60.81-16.32-60.81-16.32s2.93,43.77-28.18,56.92c-27.94,11.8-61.62-19-61.62-19s-.62,42.12-26.6,55.24c-9.74,4.92-21.23,3.64-31.79.11a72.93,72.93,0,0,1-42.06-37.37L600.24,491.71Z"/><path class="cls-11" d="M1148,318.35,619.42,532.44l-9.63-19.23,48.72-65.06,470-153.9,6.93,5.89a36.34,36.34,0,0,1,8.58,10.67Z"/><path class="cls-11" d="M1265.25,622c-31.54,3.51-55.9-22.16-72-46.24a3.9,3.9,0,0,0-6.62,4.13l1.84,3.16a30.42,30.42,0,0,0,2.39,3.67,4,4,0,0,0,6.54-4.17,7.7,7.7,0,0,0-.33-.71,69.38,69.38,0,0,0-3.86-6.13,3.9,3.9,0,0,0-6.57,4.18,119.92,119.92,0,0,1,9.31,19.88c4.83,14,8.58,32.61-1.33,45.19-3.88,4.66-9.07,7.89-14.56,10.52,9.57-2.21,18.86-7.75,22.93-17,8.6-19.36.32-45-9.6-62.45l-6.58,4.17c1,1.4,1.89,2.84,2.74,4.3.16.29.46.8.6,1.08l0-.06a3.94,3.94,0,0,1,3.63-5.35,3.87,3.87,0,0,1,3,1.44l-.69-1.06c-.61-1-2.1-3.5-2.7-4.52l-6.62,4.12c16.75,25,46.12,51.68,78.44,41.89Z"/><path class="cls-11" d="M1184.27,655.16c-31.54,3.51-55.9-22.16-72-46.24a3.9,3.9,0,0,0-6.61,4.13l1.83,3.16a30.48,30.48,0,0,0,2.4,3.67,4,4,0,0,0,6.54-4.17,7.75,7.75,0,0,0-.34-.71,65.54,65.54,0,0,0-3.85-6.12,3.9,3.9,0,0,0-6.58,4.17,120.77,120.77,0,0,1,9.32,19.88c4.83,14,8.58,32.61-1.33,45.19-3.88,4.66-9.08,7.89-14.57,10.52,9.57-2.21,18.87-7.75,22.94-17,8.6-19.36.31-45-9.61-62.45l-6.58,4.17c1,1.4,1.89,2.85,2.75,4.3.16.29.46.8.59,1.08l0-.06a3.91,3.91,0,0,1,6.66-3.91c-.2-.3-.51-.76-.69-1.06-.61-1-2.11-3.5-2.7-4.52l-6.62,4.13c16.74,25,46.11,51.68,78.44,41.88Z"/><path class="cls-11" d="M1099.27,689.27c-31.54,3.52-55.9-22.15-72-46.24a3.9,3.9,0,0,0-6.62,4.13l1.84,3.16a30.42,30.42,0,0,0,2.39,3.67,4,4,0,0,0,6.54-4.17,7.7,7.7,0,0,0-.33-.71,67.78,67.78,0,0,0-3.86-6.12,3.9,3.9,0,0,0-6.58,4.17A119.16,119.16,0,0,1,1030,667c4.83,14,8.58,32.61-1.33,45.2-3.88,4.66-9.07,7.88-14.56,10.51,9.57-2.2,18.86-7.74,22.93-17,8.6-19.36.32-45-9.6-62.45l-6.58,4.17c1,1.4,1.89,2.85,2.74,4.3.16.29.46.8.6,1.08l0-.06a3.93,3.93,0,0,1,3.62-5.35,3.89,3.89,0,0,1,3,1.45l-.69-1.07c-.61-1-2.1-3.5-2.7-4.52l-6.62,4.13c16.74,25,46.12,51.68,78.44,41.88Z"/><path class="cls-11" d="M1021.23,720.53c-31.54,3.51-55.9-22.16-72-46.25a3.91,3.91,0,0,0-6.62,4.14l1.84,3.15a28.54,28.54,0,0,0,2.39,3.67,4,4,0,0,0,6.54-4.17c-.08-.22-.23-.5-.33-.71a69.21,69.21,0,0,0-3.86-6.12,3.9,3.9,0,0,0-6.58,4.18A118.69,118.69,0,0,1,952,698.29c4.83,14,8.58,32.62-1.33,45.2-3.88,4.66-9.07,7.88-14.57,10.52,9.58-2.21,18.87-7.75,22.94-17,8.6-19.36.32-45-9.6-62.45l-6.58,4.17c1,1.39,1.89,2.84,2.74,4.3.16.28.46.8.6,1.07l0,0a3.93,3.93,0,0,1,3.62-5.35,3.85,3.85,0,0,1,3,1.44l-.69-1.06c-.61-1-2.1-3.5-2.7-4.53l-6.62,4.13c16.74,25,46.12,51.68,78.44,41.89Z"/><path class="cls-11" d="M936.23,754.64c-31.54,3.51-55.9-22.16-72-46.24a3.9,3.9,0,0,0-6.61,4.13l1.83,3.15a29.44,29.44,0,0,0,2.4,3.68,3.94,3.94,0,0,0,6.53-4.18,7.51,7.51,0,0,0-.33-.71,68.37,68.37,0,0,0-3.86-6.12,3.9,3.9,0,0,0-6.57,4.18A119.44,119.44,0,0,1,867,732.4c4.84,14,8.59,32.62-1.32,45.2-3.88,4.66-9.08,7.88-14.57,10.52,9.57-2.21,18.86-7.75,22.94-17,8.6-19.36.31-45-9.61-62.45l-6.58,4.17c1,1.4,1.89,2.84,2.74,4.3.16.28.46.8.6,1.07l0,0a3.94,3.94,0,0,1,3.63-5.35,3.88,3.88,0,0,1,3,1.44c-.21-.3-.51-.76-.69-1.06-.62-1-2.11-3.5-2.71-4.52l-6.62,4.12c16.75,25,46.12,51.68,78.44,41.89Z"/><path class="cls-11" d="M1148.73,533.07c-30,3.23-53-21.23-68.18-44.16a3.71,3.71,0,0,0-6.29,3.91l1.73,3a28.15,28.15,0,0,0,2.26,3.49,3.74,3.74,0,0,0,6.22-3.94c-.08-.21-.21-.47-.31-.67a64.63,64.63,0,0,0-3.64-5.83,3.7,3.7,0,0,0-6.26,3.94,113.85,113.85,0,0,1,8.78,18.91c4.54,13.34,8,31-1.42,42.91-3.7,4.42-8.64,7.46-13.86,9.94,9.09-2.06,17.93-7.29,21.83-16.1,8.24-18.36.45-42.74-8.91-59.34l-6.26,3.94c.91,1.33,1.79,2.71,2.59,4.09.15.27.44.76.56,1l0-.06a3.73,3.73,0,0,1,3.46-5.06,3.64,3.64,0,0,1,2.88,1.38c-.19-.29-.48-.73-.65-1-.58-.94-2-3.34-2.55-4.31l-6.3,3.9c15.81,23.83,43.61,49.23,74.34,40Z"/><path class="cls-11" d="M1067.9,565.17c-30,3.23-53-21.23-68.18-44.15a3.7,3.7,0,0,0-6.29,3.9l1.73,3a27.54,27.54,0,0,0,2.26,3.5,3.75,3.75,0,0,0,6.23-3.94c-.08-.22-.22-.47-.32-.68a65.9,65.9,0,0,0-3.64-5.82,3.7,3.7,0,0,0-6.26,3.94,114.13,114.13,0,0,1,8.78,18.9c4.54,13.35,8,31-1.41,42.92-3.7,4.41-8.65,7.45-13.87,9.94,9.09-2.07,17.94-7.3,21.84-16.1,8.23-18.36.45-42.75-8.91-59.34l-6.27,3.94c.91,1.33,1.79,2.7,2.59,4.09.15.27.44.76.57,1l0,0a3.74,3.74,0,0,1,3.46-5.07,3.7,3.7,0,0,1,2.88,1.38c-.19-.29-.48-.73-.65-1-.58-.94-2-3.33-2.55-4.3l-6.3,3.89c15.81,23.83,43.62,49.23,74.34,40Z"/><path class="cls-11" d="M1058.16,453c-30,3.23-53-21.23-68.18-44.16a3.71,3.71,0,0,0-6.29,3.91l1.73,3a28.15,28.15,0,0,0,2.26,3.49,3.75,3.75,0,0,0,6.23-3.94c-.08-.21-.22-.47-.32-.67a64.63,64.63,0,0,0-3.64-5.83,3.7,3.7,0,0,0-6.26,3.94,113.05,113.05,0,0,1,8.78,18.91c4.54,13.34,8,31-1.41,42.91-3.7,4.42-8.65,7.46-13.87,9.94,9.09-2.06,17.94-7.29,21.84-16.1,8.23-18.36.45-42.74-8.91-59.34L983.85,413c.91,1.33,1.79,2.71,2.59,4.09.16.27.44.76.57,1l0-.06a3.73,3.73,0,0,1,3.46-5.06,3.63,3.63,0,0,1,2.88,1.38l-.65-1c-.58-.94-2-3.34-2.55-4.31l-6.3,3.9c15.82,23.83,43.62,49.23,74.34,40Z"/><path class="cls-11" d="M865.09,588.74c-35.27,3.8-62.4-25-80.26-52a4.36,4.36,0,0,0-7.41,4.59l2,3.53a33.73,33.73,0,0,0,2.66,4.12,4.41,4.41,0,0,0,7.33-4.64c-.1-.25-.26-.56-.37-.8a77.86,77.86,0,0,0-4.29-6.85,4.36,4.36,0,0,0-7.37,4.64,134.16,134.16,0,0,1,10.34,22.25c5.34,15.7,9.46,36.49-1.67,50.52-4.35,5.19-10.17,8.77-16.32,11.7,10.71-2.44,21.11-8.59,25.7-19,9.7-21.61.54-50.31-10.48-69.84l-7.37,4.63c1.06,1.57,2.1,3.19,3,4.82.18.32.52.89.67,1.2l0-.06a4.39,4.39,0,0,1,4.07-6,4.31,4.31,0,0,1,3.39,1.62l-.77-1.19c-.68-1.11-2.34-3.92-3-5.07l-7.42,4.59c18.62,28,51.35,57.95,87.52,47.13Z"/><path class="cls-16" d="M438.28,1014.9s-2-6.59-1-20.66,1-12,1-12-5.73,23.95-5.34,30.53Z"/><path class="cls-16" d="M428.08,1010.77s-.26-39.06,2.08-46.61c0,0-7.22,32.63-7.28,44.51Z"/><polygon class="cls-9" points="449.94 1283.03 465.64 1274.98 465.64 919.79 425.87 957.5 449.94 1283.03"/><polygon class="cls-6" points="418.13 950.88 412.42 1267.85 449.94 1283.03 449.94 924.89 418.13 950.88"/><path class="cls-16" d="M438.28,1278.31s-2-6.59-1-20.66,1-12,1-12-5.73,24-5.34,30.53Z"/><path class="cls-16" d="M428.08,1274.18s-.26-39.06,2.08-46.61c0,0-7.22,32.64-7.28,44.51Z"/><polygon class="cls-15" points="495.11 1414.08 397.7 1369.25 387.06 1259.19 493.34 1296.23 505 1336.61 499.84 1403.65 495.11 1414.08"/><polygon class="cls-8" points="619.41 1380.78 541.98 1419.1 542.55 1300.9 619.44 1288.7 619.41 1380.78"/><polygon class="cls-19" points="450.73 1184.9 440.36 1100.92 392.44 1133.7 388.53 1174.34 450.73 1184.9"/><polygon class="cls-9" points="632.83 1386.97 660.66 1371.52 659.07 1265.37 623.37 1265.91 632.83 1386.97"/><polygon class="cls-6" points="631.1 1271.24 632.83 1386.97 619.22 1380.78 617.43 1261.27 631.1 1271.24"/><path class="cls-10" d="M604.6,1031.62l105,223a41.26,41.26,0,0,1,3.54,25.35c-1.22,6.59-4.22,13.19-10.93,16.23-15.78,7.15-35.6-9.14-35.6-9.14s2,25.54-16.09,33.41c-16.23,7.07-36.09-10.69-36.09-10.69s-.09,24.59-15.18,32.42c-5.65,2.93-12.37,2.26-18.55.26a42.55,42.55,0,0,1-24.8-21.54L449.53,1105.12Z"/><polygon class="cls-9" points="372.95 1377.91 397.7 1369.25 396.06 1260.1 371.08 1253.01 351.11 1303.78 372.95 1377.91"/><polygon class="cls-6" points="370.88 1239.81 342.39 1229.44 344.42 1364.52 372.95 1377.91 370.88 1239.81"/><polygon class="cls-7" points="324.63 1242.8 335.68 1242.63 438.87 1120.1 414.54 1125.53 324.63 1242.8"/><polygon class="cls-9" points="398.89 1149.49 324.63 1242.8 302.25 1224.94 390.44 1115.76 398.89 1149.49"/><polygon class="cls-9" points="524.53 1445.25 555.41 1430.97 553.78 1317.93 514.23 1318.52 524.53 1445.25"/><polygon class="cls-6" points="522.78 1323.84 524.53 1445.25 495.27 1432.62 493.48 1305.62 522.78 1323.84"/><path class="cls-7" d="M454.29,1154.24s-94.09-38.14-104.52,51.43l.52,34.56,181.1,82.07Z"/><path class="cls-16" d="M446.65,1160.3s-94.09-38.15-104.52,51.42l.51,34.56,187.27,84.86Z"/><path class="cls-20" d="M486.55,1267.94l-112.65-48.1s15.3-47.23,60.06-31C491.1,1209.49,486.55,1267.94,486.55,1267.94Z"/><g class="cls-21"><polygon class="cls-7" points="492.45 1263.66 372.95 1211.26 365.79 1225.14 495.04 1279.06 492.45 1263.66"/></g><path class="cls-7" d="M426.45,1186.61a61.79,61.79,0,0,1,7.51,2.2,86.41,86.41,0,0,1,18.56,9.26L449.13,1252l-26.66-11.38Z"/><polygon class="cls-16" points="447.07 1188.07 441.68 1273.66 414.92 1260.53 421.4 1172.76 447.07 1188.07"/><polygon class="cls-7" points="713.19 1259.97 723.14 1252.77 619.09 1029.1 593.65 1041.72 713.19 1259.97"/><polygon class="cls-7" points="536.54 1342.81 561.75 1342.43 583.72 1324.65 550.93 1312.02 536.54 1342.81"/><polygon class="cls-9" points="428.66 1134.38 536.54 1342.81 565.77 1322.16 459.51 1111.27 428.66 1134.38"/><polygon class="cls-7" points="560.15 1335.37 572.58 1326.98 459.47 1108.29 447.25 1114.35 560.15 1335.37"/><polygon class="cls-9" points="588.88 513.17 781.99 933.21 811.22 912.56 619.74 490.06 588.88 513.17"/><polygon class="cls-7" points="805.01 914.4 817.43 906.01 623.31 487.03 611.09 493.1 805.01 914.4"/><polygon class="cls-22" points="398.89 1149.49 634.46 1029.87 651.48 1013.03 542.72 1040.75 409.19 1122.39 398.89 1149.49"/><path class="cls-18" d="M604.5,1025.48l105,223a41.35,41.35,0,0,1,3.54,25.36c-1.22,6.58-4.22,13.18-10.93,16.22-15.78,7.15-35.61-9.14-35.61-9.14s2,25.54-16.08,33.41c-16.24,7.07-36.09-10.69-36.09-10.69s-.09,24.59-15.18,32.42c-5.66,2.94-12.37,2.26-18.55.27a42.56,42.56,0,0,1-24.8-21.55L449.44,1099Z"/><polygon class="cls-16" points="397.75 1073.5 368.75 1098.12 398.89 1149.49 422.39 1126.68 465 1065.58 397.75 1073.5"/><g class="cls-23"><polygon class="cls-11" points="621.74 1045.61 431.93 1140.69 431.21 1092.85 609.86 1013.65 621.74 1045.61"/></g><polygon class="cls-24" points="651.48 1013.03 623.93 970.38 573.83 996.23 651.48 1013.03"/><path class="cls-7" d="M651.48,1013,422.39,1126.68l-10.7-22.3s31.54-16,39.29-29.61c0,0-30.1,20.15-41.85,20l-4-10.65s19.57-8.24,24.34-12.63c0,0-23,8.12-28.94,5.79l-2.82-3.76,226.9-108.4,6.07,10s-25.85,17.18-41,21.21c0,0,33.44,0,44.65-13.3l5.74,9.78s-7.15,7-15.42,8.86c0,0,14.51-.21,18.27-3.38Z"/><path class="cls-11" d="M686.88,1231.18c-17.33.62-29.55-14.37-37.31-28.15a2.14,2.14,0,0,0-3.78,2l.87,1.79a15.83,15.83,0,0,0,1.16,2.1,2.15,2.15,0,0,0,3.73-2,2.74,2.74,0,0,0-.15-.4,36.44,36.44,0,0,0-1.85-3.5,2.13,2.13,0,0,0-3.76,2,65.19,65.19,0,0,1,4.27,11.21c2.05,7.84,3.33,18.13-2.58,24.58a23,23,0,0,1-8.37,5.13c5.3-.81,10.59-3.45,13.19-8.34,5.49-10.2,2-24.52-2.67-34.43l-3.75,2c.46.8.91,1.63,1.31,2.46.08.16.22.45.29.61l0,0a2.16,2.16,0,0,1,2.2-2.77,2.13,2.13,0,0,1,1.6.91l-.34-.61c-.29-.56-1-2-1.28-2.57l-3.78,2c8.1,14.33,23,30.06,41,26Z"/><path class="cls-11" d="M641.39,1245.94c-17.33.62-29.55-14.37-37.32-28.16a2.13,2.13,0,0,0-3.77,2l.87,1.8a15.83,15.83,0,0,0,1.16,2.1,2.15,2.15,0,0,0,3.73-2c0-.12-.1-.28-.15-.4-.55-1.2-1.19-2.36-1.85-3.49a2.13,2.13,0,0,0-3.76,2,65.57,65.57,0,0,1,4.26,11.22c2.06,7.84,3.34,18.12-2.58,24.57a23.12,23.12,0,0,1-8.37,5.14c5.31-.82,10.6-3.45,13.2-8.35,5.48-10.2,2-24.51-2.67-34.42l-3.76,2c.47.8.92,1.63,1.32,2.45.08.17.22.46.28.61v0a2.14,2.14,0,0,1,2.2-2.76,2.08,2.08,0,0,1,1.59.91l-.33-.61c-.29-.56-1-2-1.29-2.58l-3.77,2c8.09,14.33,23,30.06,41,26Z"/><path class="cls-11" d="M593.67,1261c-17.33.62-29.55-14.37-37.31-28.16a2.14,2.14,0,0,0-3.78,2l.87,1.8a15.83,15.83,0,0,0,1.16,2.1,2.15,2.15,0,0,0,3.73-2c0-.12-.1-.28-.15-.4a37.49,37.49,0,0,0-1.85-3.49,2.13,2.13,0,0,0-3.76,2,64.74,64.74,0,0,1,4.26,11.22c2.06,7.84,3.34,18.12-2.57,24.57a23.16,23.16,0,0,1-8.38,5.14c5.31-.82,10.6-3.45,13.2-8.35,5.49-10.2,2-24.52-2.67-34.43l-3.75,2c.46.8.91,1.62,1.31,2.45.08.17.22.46.28.61v0a2.15,2.15,0,0,1,2.2-2.76,2.06,2.06,0,0,1,1.59.91c-.09-.18-.24-.44-.33-.61-.29-.56-1-2-1.29-2.58l-3.77,2c8.1,14.33,23,30.06,41,26Z"/><path class="cls-11" d="M641.78,1178.43c-17.33.62-29.55-14.36-37.31-28.15a2.14,2.14,0,0,0-3.78,2l.87,1.8a15.83,15.83,0,0,0,1.16,2.1,2.16,2.16,0,0,0,3.73-2c0-.13-.1-.28-.15-.4a37.49,37.49,0,0,0-1.85-3.49,2.13,2.13,0,0,0-3.76,2,65.25,65.25,0,0,1,4.26,11.22c2.06,7.84,3.34,18.12-2.57,24.57a23,23,0,0,1-8.38,5.13c5.31-.81,10.6-3.44,13.2-8.34,5.48-10.2,2-24.52-2.67-34.43l-3.75,2c.46.8.91,1.62,1.31,2.45.08.16.22.46.28.61v0a2.15,2.15,0,0,1,2.2-2.76,2.06,2.06,0,0,1,1.59.91c-.09-.18-.24-.44-.33-.61-.29-.56-1-2-1.29-2.58l-3.77,2c8.09,14.33,23,30,41,26Z"/><path class="cls-11" d="M594.07,1193.53c-17.34.62-29.56-14.37-37.32-28.15a2.14,2.14,0,0,0-3.78,2l.87,1.8a17.06,17.06,0,0,0,1.16,2.1,2.16,2.16,0,0,0,3.73-2,2.74,2.74,0,0,0-.15-.4,35.25,35.25,0,0,0-1.85-3.49,2.13,2.13,0,0,0-3.75,2,66,66,0,0,1,4.26,11.21c2,7.85,3.33,18.13-2.58,24.58a23,23,0,0,1-8.37,5.13c5.3-.81,10.59-3.45,13.2-8.34,5.48-10.2,2-24.52-2.68-34.43l-3.75,2c.46.8.91,1.62,1.32,2.45l.28.61v0a2.14,2.14,0,0,1,3.79-1.86c-.1-.17-.25-.43-.34-.6-.29-.57-1-2-1.28-2.58l-3.78,2c8.1,14.33,23,30,41,26Z"/><path class="cls-11" d="M593.09,1128.77c-17.33.62-29.55-14.37-37.31-28.16a2.14,2.14,0,0,0-3.78,2l.87,1.8a15.83,15.83,0,0,0,1.16,2.1,2.15,2.15,0,0,0,3.73-2,3.25,3.25,0,0,0-.15-.4,37.49,37.49,0,0,0-1.85-3.49,2.13,2.13,0,0,0-3.76,2,64.74,64.74,0,0,1,4.26,11.22c2.06,7.84,3.34,18.12-2.57,24.57a23.2,23.2,0,0,1-8.37,5.14c5.3-.82,10.59-3.45,13.19-8.35,5.49-10.2,2-24.51-2.67-34.42l-3.75,2c.46.8.91,1.63,1.31,2.45l.29.61,0,0a2.15,2.15,0,0,1,2.2-2.76,2.06,2.06,0,0,1,1.59.91c-.09-.18-.24-.44-.33-.61-.29-.56-1-2-1.29-2.58l-3.77,2c8.1,14.33,23,30.06,41,26Z"/><polygon class="cls-6" points="1217.93 931.98 825.11 1081.93 825.11 1101.18 1249.28 970.38 1217.93 931.98"/><polygon class="cls-9" points="1272.79 928.1 784.6 1116.88 787.36 1176.32 1274.33 977.64 1272.79 928.1"/><path class="cls-7" d="M652.88,797.73l-59.39-66.66s-7-9-26.18,4.25,67.83,81.74,67.83,81.74Z"/><path class="cls-9" d="M632,806.27l20.92-8.54L631.2,915.1s-20.33,9.55-35.3,9.23S632,806.27,632,806.27Z"/><path class="cls-6" d="M634,812.66l-22,101a13.83,13.83,0,0,1-16.12,10.65L515.42,909a13.84,13.84,0,0,1-11.25-13.51L503.54,789a18.26,18.26,0,0,1,7.89-15.15l55.88-38.57A13,13,0,0,1,585,738.11l45.61,59.5A18.35,18.35,0,0,1,634,812.66Z"/><path class="cls-20" d="M616.55,820.38,600.44,891.8a10.19,10.19,0,0,1-11.92,7.5l-59.63-11a10,10,0,0,1-8.35-9.58l-.66-75.26a12.68,12.68,0,0,1,5.82-10.7L567,765.56a10,10,0,0,1,13.13,2L614,809.73A12.6,12.6,0,0,1,616.55,820.38Z"/><polygon class="cls-6" points="577.05 757.8 562.21 905.27 552.96 902.07 569.22 754.61 577.05 757.8"/><polygon class="cls-6" points="621.88 842.33 508.9 826.85 511.47 817.62 624.42 834.51 621.88 842.33"/><path class="cls-6" d="M626.76,1373.94s14.64,33.36,3.16,63.71a21,21,0,0,1-9.84,11.17c-9.38,4.92-27.19,10.81-44.05-2.69a21.5,21.5,0,0,1-6.89-9.83c-3.4-9.78-7.79-31.42,4.18-61l17.11,10.51,17.82,1.11,12.28-4.46,5.28-8.52Z"/><path class="cls-9" d="M603.91,1387.14s.19,58.86-1.51,65.62l-1.64-65.62Z"/><path class="cls-9" d="M584.76,1384.67s-6,26.43-2,64.12c0,0-8.76-20.37-.64-65.26Z"/><path class="cls-9" d="M619.11,1383.06s6.74,27.45,2.78,64.24c0,0,8.23-22.32.1-66.14Z"/><ellipse class="cls-9" cx="600.06" cy="1376.64" rx="27.42" ry="11.49"/><ellipse class="cls-17" cx="600.06" cy="1375.26" rx="19.5" ry="6.9"/><path class="cls-25" d="M571.68,1378.68s-3.1,8.4,3,11.67,11.79,5.57,26.51,5.09c14.16-.45,26.48-6.25,28.44-10.34,1-2.14.05-4.6-1.11-6.47a2.51,2.51,0,0,0-.19-.7,3.88,3.88,0,0,1-.23-.56c-.05-.17-.07-.33-.12-.48,4.73,3.45,16.37,14.2-4.23,24.7-19.81,10.11-43.31,4.07-51.6-.5-5.94-3.27-6.42-5.79-7.3-9.31C563.93,1388.05,564.74,1383.2,571.68,1378.68Z"/><g class="cls-26"><path class="cls-27" d="M571.79,1377.82c3.32-2.33,46.86-2.86,53.7-2.93a.49.49,0,1,0,.11,1h.13l-.05.1,0,.13a.46.46,0,0,0,.08.25l.08.1a.4.4,0,0,0,.18.1.41.41,0,0,0,.22,0,.39.39,0,0,0,.21,0h0a.49.49,0,0,0,.16.33l.09.08v3.2c0,.61,1,.63,1.1.07l.13.36a.58.58,0,0,0,.68.34.49.49,0,0,0,.39-.61c-.19-.49-1-3.43-1.12-3.62l-.07-.67c2.55,2.25,7.11,7.54.88,12.53-8.21,6.57-19.38,8.8-27.72,9.3s-23.08-1-29.28-6.43C567.56,1387.8,568.19,1380.35,571.79,1377.82Z"/></g><path class="cls-25" d="M634.31,1413s15.2,27.26-33.55,29c-50,1.75-35.29-32.43-35.29-32.43s-.57,23.26,34.42,21.29S634.31,1413,634.31,1413Z"/><g class="cls-28"><path class="cls-27" d="M634.31,1404.57s11.77,25.63-33.55,27.37c-46.82,1.8-35.29-30.65-35.29-30.65s-.57,22,34.42,20.12S634.31,1404.57,634.31,1404.57Z"/></g><g class="cls-29"><path class="cls-6" d="M580.78,1379.29c2.64,2.28,9.85,4,19.08,4,8.84,0,16.49-1.31,19.5-4,2.07-1.82-4-7.74-19.47-7.66C583.2,1371.8,578.63,1377.43,580.78,1379.29Z"/></g><path class="cls-6" d="M1363.91,1222s14.63,33.36,3.16,63.7a21,21,0,0,1-9.84,11.18c-9.38,4.91-27.19,10.8-44-2.69a21.7,21.7,0,0,1-6.9-9.83c-3.39-9.79-7.78-31.43,4.19-61l17.11,10.51,17.82,1.11,12.27-4.45L1363,1222Z"/><path class="cls-9" d="M1341.06,1235.22s.19,58.87-1.51,65.62l-1.64-65.62Z"/><path class="cls-9" d="M1321.91,1232.76s-6,26.42-2,64.12c0,0-8.77-20.38-.64-65.27Z"/><path class="cls-9" d="M1356.26,1231.15s6.74,27.45,2.78,64.24c0,0,8.22-22.33.1-66.14Z"/><ellipse class="cls-9" cx="1337.2" cy="1224.73" rx="27.42" ry="11.49"/><ellipse class="cls-17" cx="1337.2" cy="1223.35" rx="19.5" ry="6.9"/><path class="cls-25" d="M1308.82,1226.77s-3.09,8.39,3,11.66,11.79,5.57,26.51,5.1c14.16-.46,26.48-6.26,28.44-10.34,1-2.14,0-4.61-1.11-6.47a2.91,2.91,0,0,0-.19-.7,4,4,0,0,1-.24-.57,4.21,4.21,0,0,0-.12-.48c4.74,3.46,16.38,14.2-4.22,24.71-19.81,10.1-43.31,4.07-51.6-.5-5.94-3.28-6.42-5.8-7.3-9.32C1301.08,1236.14,1301.88,1231.29,1308.82,1226.77Z"/><g class="cls-30"><path class="cls-27" d="M1308.94,1225.91c3.31-2.33,46.86-2.87,53.7-2.94a.52.52,0,0,0-.44.48.53.53,0,0,0,.55.5h.13a.31.31,0,0,0-.05.1l0,.13a.45.45,0,0,0,.07.25l.09.1a.66.66,0,0,0,.39.14.54.54,0,0,0,.22,0h0a.45.45,0,0,0,.16.32l.09.09v3.2c0,.61,1,.63,1.1.06,0,.12.08.24.13.36a.57.57,0,0,0,.68.34.48.48,0,0,0,.39-.6c-.19-.5-1-3.44-1.12-3.62l-.07-.68c2.55,2.26,7.11,7.55.88,12.54-8.21,6.57-19.39,8.79-27.72,9.29s-23.08-1-29.29-6.42C1304.71,1235.88,1305.33,1228.44,1308.94,1225.91Z"/></g><path class="cls-25" d="M1371.46,1261.09s15.2,27.26-33.55,29c-50,1.75-35.3-32.43-35.3-32.43s-.56,23.27,34.43,21.29S1371.46,1261.09,1371.46,1261.09Z"/><g class="cls-31"><path class="cls-27" d="M1371.46,1252.65s11.77,25.64-33.55,27.38c-46.82,1.79-35.3-30.65-35.3-30.65s-.56,22,34.43,20.12S1371.46,1252.65,1371.46,1252.65Z"/></g><g class="cls-32"><path class="cls-6" d="M1317.93,1227.38c2.64,2.28,9.85,4,19.08,4,8.83,0,16.49-1.3,19.49-3.94,2.08-1.82-4-7.74-19.46-7.66C1320.34,1219.88,1315.78,1225.51,1317.93,1227.38Z"/></g><path class="cls-6" d="M751,1333.83S776.5,1392,756.48,1445a36.55,36.55,0,0,1-17.17,19.49c-16.35,8.57-47.42,18.85-76.84-4.69a37.7,37.7,0,0,1-12-17.14c-5.92-17.08-13.59-54.83,7.29-106.43l29.86,18.34,31.09,1.94,21.41-7.78,9.22-14.86Z"/><path class="cls-9" d="M711.11,1356.85s.33,102.68-2.64,114.47l-2.85-114.47Z"/><path class="cls-9" d="M677.71,1352.54s-10.41,46.1-3.5,111.86c0,0-15.28-35.54-1.11-113.85Z"/><path class="cls-9" d="M737.63,1349.73s11.76,47.89,4.84,112.07c0,0,14.36-38.94.18-115.38Z"/><ellipse class="cls-9" cx="704.38" cy="1338.54" rx="47.83" ry="20.05"/><ellipse class="cls-17" cx="704.38" cy="1336.13" rx="34.01" ry="12.04"/><path class="cls-25" d="M654.88,1342.1s-5.4,14.64,5.26,20.35,20.56,9.71,46.24,8.88c24.7-.79,46.2-10.91,49.61-18,1.79-3.74.09-8-1.93-11.29a4.12,4.12,0,0,0-.34-1.22,6,6,0,0,1-.4-1c-.08-.29-.11-.57-.21-.84,8.25,6,28.57,24.78-7.37,43.1-34.56,17.63-75.56,7.1-90-.87-10.36-5.72-11.19-10.11-12.73-16.25C641.37,1358.45,642.77,1350,654.88,1342.1Z"/><g class="cls-33"><path class="cls-27" d="M655.07,1340.6c5.79-4.07,81.75-5,93.68-5.12a.91.91,0,0,0-.77.84.93.93,0,0,0,1,.85h.22a1.42,1.42,0,0,0-.08.18l0,.23a.76.76,0,0,0,.14.43l.15.17a.61.61,0,0,0,.31.18.9.9,0,0,0,.74,0l0,0a.84.84,0,0,0,.28.57l.15.15v5.58c0,1.07,1.8,1.1,1.93.12.07.21.14.41.22.62a1,1,0,0,0,1.19.6.86.86,0,0,0,.68-1c-.34-.87-1.8-6-2-6.32,0-.17-.13-1.18-.13-1.18,4.46,3.94,12.41,13.17,1.53,21.87-14.32,11.46-33.81,15.34-48.34,16.21s-40.27-1.74-51.09-11.21C647.7,1358,648.79,1345,655.07,1340.6Z"/></g><path class="cls-25" d="M764.14,1402s26.52,47.56-58.53,50.53c-87.27,3.06-61.57-56.57-61.57-56.57s-1,40.59,60.05,37.14S764.14,1402,764.14,1402Z"/><g class="cls-34"><path class="cls-27" d="M764.14,1387.25S784.68,1432,705.61,1435c-81.67,3.14-61.57-53.46-61.57-53.46s-1,38.36,60.05,35.1S764.14,1387.25,764.14,1387.25Z"/></g><g class="cls-35"><path class="cls-6" d="M670.76,1343.16c4.6,4,17.19,7,33.28,7,15.42,0,28.77-2.27,34-6.88,3.63-3.18-7-13.5-34-13.36C675,1330.08,667,1339.91,670.76,1343.16Z"/></g><path class="cls-6" d="M1002.41,1325.45l89.18-47s24.05-142.75-25.07-153.44-64.63,26.12-69,39S1002.41,1325.45,1002.41,1325.45Z"/><g class="cls-36"><path class="cls-7" d="M997.68,1133.51l-1.74,207.83s20.4-1.37,21.75-2.55,1.24-11.14-.17-31.44,5.16-169.5,5.16-169.5,3.36,206.74,5.25,207.89,13.4-6.19,13.4-6.19,7.14-186,5-193.51l7.23,38.62-8.57,162,21.89-16.1,2.47-172.83,8.89,185.45,19-9.64L1092.67,1136C1092.1,1132.12,1042.33,1134.26,997.68,1133.51Z"/></g><path class="cls-6" d="M1116.14,1206.63c-.5-37.49-4.6-72.35-25-90-48.55-42-107.65,2.68-122.35,50.37-10.52,34.12-7.95,176-7.95,176s3.37,3.56,12.69,5c1.39.21,8.43-15,9.77-18.92,8-.09,8.83,10.54,8.83,10.54s.07-134.86,3.1-156.7c3.79-27.43,24.11-47.5,44.42-50.14,35.36-4.61,45.83,25.9,48.52,48.53,4,33.44,3.41,97.19,3.41,97.19s1.11,1,7.82.91c2.52,0,10.39-11.36,11.31-13.34,2.7-.52-.93,5.4,1.47,2.84C1112.19,1268.88,1116.89,1262.33,1116.14,1206.63Z"/><path class="cls-9" d="M1099.07,1118.67c-47-42-104.17-.58-118.38,47.11-10.15,34.11-7.15,182.19-7.15,182.19,25.79-1.9,29.57-15.76,29.57-15.76s.3-125.49,3.21-147.33c3.66-27.43,23.3-47.49,42.95-50.13,34.2-4.59,45.36,24.49,48,47.12,3.86,33.44,2.16,97.55,2.16,97.55s13.24-.37,22.58-10.63c0,0,2-4.42,1.29-60.12C1122.78,1171.18,1118.8,1136.32,1099.07,1118.67Z"/><path class="cls-12" d="M383.72,872.38s39-21.44,43.23-15.22-36.15,21.71-36.15,21.71l-8.37-.83Z"/><path class="cls-12" d="M387.92,908.1s38.05-14.67,42.15-5.87S387.55,921,387.55,921Z"/><path class="cls-13" d="M389.4,912.91l40.67-10.68s3.83,12.67-4.13,18.18-40.77,11.07-40.77,11.07Z"/><path class="cls-13" d="M385.23,889.94l39.35-10.34s6.91-17.34,2.37-22.44l-45.18,19.38L384,889.67Z"/><path class="cls-9" d="M286.79,1019.88s-50.37-9.56-55.45-38.18-10.13-89.58,24.76-132.9l24.33,19,2-8.7-17.11-18.54s9.66-13.67,15.77-14.72l19.86,19.91,5.56-4.16-18.45-20.2s56.8-35.28,94.11,32.68S286.79,1019.88,286.79,1019.88Z"/><path class="cls-7" d="M312.14,871.59l0-28.74s17-16.21,28.81-12.16,16.68,14.91,16.68,14.91L356,857.8l14.22-17.21s26.46,19.59,22.93,58.93-13.27,88.11-43.52,101.84-50.93,24.75-62.81,18.52l11.53-22-19.88,18.25s-11.42-5.85-9.85-10.37l35.17-33-42.7,25.54s-5.55-31.64-5.4-43L276,949.35s-22.3,1.43-21.91-1.47-6.49-73.35,49-99.52Z"/><path class="cls-37" d="M1587.79,834.69s-7,15-25.92,20.88c0,0,2.22-23.77-3.13-32.64s-14.35-16.44-14.35-16.44l18-29.94s15.07,8.12,22.81,7.72Z"/><path class="cls-16" d="M1543.68,809.58l-55.61,88.53s3.8-14.8-5.23-16.09c-7.63-1.09-9.84-.1-9.84-.1l51.72-86S1552.79,768,1543.68,809.58Z"/><path class="cls-38" d="M1590,834s-7,15-25.92,20.88c0,0,2.22-23.77-3.13-32.64s-14.35-16.44-14.35-16.44l18-29.94s15.07,8.12,22.81,7.72Z"/><path class="cls-39" d="M1543.93,810.22s-2.86-16.94-20.29-12.87L1548,761.52a8.87,8.87,0,0,1,9.12-3.8c5,1,11,4.23,10.16,13.8a9,9,0,0,1-1.36,4Z"/><path class="cls-7" d="M1485.15,880.51s5.41,7.06,4.82,12.07-5.38,13.46-9.1,13.3-9.52-7.17-9.49-14.24-.3-9.33,4.74-12.32S1485.15,880.51,1485.15,880.51Z"/><path class="cls-40" d="M1544.24,809.73s-3-17.56-20.6-12.38c0,0-.46.73-.15.6s13.64-5.44,20.44,12.27Z"/><path class="cls-40" d="M1564.65,761.73s-23.17,21.08-25.65,40.16l-5.16-3.69s23.87-34.82,23.25-40.48C1557.09,757.72,1562.62,758.15,1564.65,761.73Z"/><path class="cls-37" d="M1587.35,783.54S1574,815.43,1561.29,825l1.88,10.53s23-22.23,25.06-34.93Z"/><path class="cls-7" d="M805,914.4l-23,18.81,26.64-16.84,8.8-10.36S806.41,901.09,805,914.4Z"/><polygon class="cls-9" points="632.59 482.76 384.7 768.88 370.6 758.53 368.68 751.37 615.03 459.71 632.59 482.76"/><polygon class="cls-7" points="370.6 758.53 358.69 747.01 600.46 452.11 611.76 462.34 370.6 758.53"/><polygon class="cls-16" points="610.9 365.93 544.58 404.54 585.94 514.47 643.97 477.57 749.26 372.25 610.9 365.93"/><polygon class="cls-24" points="1162.43 270.69 1129.77 217.1 908.45 315.94 1086.47 298.73 1162.43 270.69"/><path class="cls-7" d="M1162.43,283.74,644,477.57l-14.61-46.93s68.77-21,88.68-45c0,0-67.14,29.53-90.83,25.4l-4.65-22s42.13-9.73,53.15-16.75c0,0-49.08,8.38-60.28,1.93l-4.52-8.24L1119,206.29l14.89,28.65s-79,39.71-110.86,42.67c0,0,93-9.18,119.77-31.47l8.33,14.68s-47.43,24.66-64.71,25.59c0,0,58.79-10.12,67.37-15.07Z"/><polygon class="cls-6" points="1205.66 1325.99 1206.46 1342.33 1235.68 1353.14 1248.57 1350.67 1249.28 1365.4 1114.18 1448.57 1107.63 1429.5 1077.4 1407.43 1075.35 1394.9 1048.41 1373.97 1205.66 1325.99"/><polygon class="cls-7" points="1166.07 1313.76 1043.02 1376.78 1075.35 1394.9 1205.66 1325.99 1166.07 1313.76"/><polygon class="cls-7" points="1206.46 1342.33 1081.13 1409.49 1106.41 1428.26 1248.57 1350.67 1206.46 1342.33"/><path class="cls-41" d="M1114.18,1448.57l8.93-5.5-69.89-71.51-10.2,5.22S1092.43,1443.62,1114.18,1448.57Z"/><polygon class="cls-5" points="1043.02 1376.78 1042.22 1429.91 1114.18 1448.57 1043.02 1376.78"/><path class="cls-42" d="M568.74,1524.07c19.68-20,5.91-35.1,7.91-41.68,0,0,19,16.93,11.22,33.69l6.81-12.16a39.19,39.19,0,0,0,4.68-13.89,46.43,46.43,0,0,1,15-28.23s-10.7,49.57-1.71,52.25c0,0,2.53-17.27,12.07-21.32,0,0-3.64,19.92-.86,40.16C627.42,1558.86,561.43,1535.64,568.74,1524.07Z"/><path class="cls-42" d="M944,1468.54s-17.59-49.2-30.54-52.51c0,0,10.88,41,4.66,47.54s-28.49-30.69-28.49-30.69-3.61,32.17,10.31,41.94S944,1468.54,944,1468.54Z"/><path class="cls-42" d="M927.63,1464.93s15.81-13,17.46-37.28c0,0,9.1,27.23-3.92,38.78C930.42,1476,927.63,1464.93,927.63,1464.93Z"/><path class="cls-43" d="M1748.37,1062.43c-46.94-39.41-64.73-2.12-64.73-2.12s-3.07-71.84-76.22-66c-37.56,3-52.34,48.5-55,72.77-9.24-14.07-31.72-25.39-53-16.22-52.42,22.59-30.29,94.45-30.29,94.45-6.38,1.8-12.5,3.2-18,4.29v69.52c15.29,10.6,36.92,17.82,63.4,8.82h0c106.73,53.63,166.21-37.9,166.21-37.9,19.43-4,37.54-13.63,52.88-27.89C1751,1145.8,1777.37,1086.78,1748.37,1062.43Z"/><g class="cls-44"><path class="cls-45" d="M1457.08,1181s-23.91-14.67-19.79-31.69c3.81-15.62,17.37-11,29.37-4.8,6.79,3.5,15.32-2.57,13.45-11.1-7.83-36.06,17.83-80.17,71.81-48.84,9.74,5.65,4.64-11.75.46-17.48-15.06-20.74,20.46-60.6-20.44-54.39-61,9.27-110.69,43.75-110.59,45.93s-26.64,87.31-26.64,87.31l28.78,61.26Z"/></g><path class="cls-43" d="M1399.2,1194.92c1.41-.89,2.89-1.82,4.45-2.77,0,0-27.6-62.52,40-85.23,66.86-22.46,86.54,53.73,86.54,53.73s8.54-35.58,44-25.39c28.64,7.22,65,36,53.33,56.92,0,0,17.68,91.8-59.64,104.23a101,101,0,0,1-68.06-13.6c-7-4.2-12.86-7.82-12.86-7.82a102.88,102.88,0,0,1-30.88,6.45h0a100.82,100.82,0,0,1-58.91-15.25l-.5-.32a31.29,31.29,0,0,1-4.09-3.12C1371.65,1244.12,1375.29,1210.06,1399.2,1194.92Z"/><g class="cls-46"><path class="cls-47" d="M1530.17,1160.65s-46.55-50.61-83-19.73c-48.67,41.27-9,64.24-9,64.24s-80,25.61,7.07,76.27-122.93-8.07-122.93-8.07l38.93-149.51,96.39-73.35,52,31.26S1531,1135.89,1530.17,1160.65Z"/></g></svg>