<svg id="Layer_1" data-name="Layer 1" xmlns="http://www.w3.org/2000/svg" xmlns:xlink="http://www.w3.org/1999/xlink" viewBox="0 0 2000 2000"><defs><style>.cls-1{fill:none;}.cls-2{fill:#aed76a;}.cls-3{clip-path:url(#clip-path);}.cls-4{fill:#fecfae;}.cls-5{fill:#e2dbd7;}.cls-6{fill:#c6b6ac;}.cls-7{fill:#aa7149;}.cls-8{fill:#7c5135;}.cls-9{fill:#686d22;}.cls-10{fill:#798428;}.cls-11{fill:#332525;}.cls-12{fill:#d79160;}.cls-13{fill:#915f3d;}.cls-14{fill:#889b2d;}.cls-15{fill:#633e2a;}.cls-16{fill:#b57950;}.cls-17{fill:#c4c2c2;}.cls-18{fill:#999294;}.cls-19{fill:#7c6e71;}.cls-20{fill:#a89ea0;}.cls-21{fill:#c48458;}.cls-22{fill:#1e1713;}.cls-23{fill:#a29cb7;}.cls-24{clip-path:url(#clip-path-2);}.cls-25{fill:#b6b3c4;}.cls-26{clip-path:url(#clip-path-3);}.cls-27{clip-path:url(#clip-path-4);}.cls-28{clip-path:url(#clip-path-5);}.cls-29{clip-path:url(#clip-path-6);}.cls-30{clip-path:url(#clip-path-7);}.cls-31{fill:#afd86a;}</style><clipPath id="clip-path"><path class="cls-1" d="M1718.71,1163.24c-28.31-40.93-157-303.34-723.61-263-658.88,46.92-897.37,282.52-817.86,466.08C281,1605.84,692.57,1557.54,765.39,1566c298.28,34.68,693.17,235,913.68-36.32C1796.72,1384.9,1735.27,1187.2,1718.71,1163.24Z"/></clipPath><clipPath id="clip-path-2"><path class="cls-1" d="M575.77,1181.51s-54.66,31.86,6.12,62.85c48.16,24.56,104.17,8,125.45-1.21,8.76-3.81,15.6-14.1,17.74-22.66,2.26-9,.31-20.84-16.56-31.83,0,0,7.52,20.42-7.34,28.37s-28.66,13.53-64.45,12.38c-34.41-1.11-64.69-15.1-69.13-25.14C563.41,1194.8,575.77,1181.51,575.77,1181.51Z"/></clipPath><clipPath id="clip-path-3"><path class="cls-1" d="M556.24,1271.29s-37,59.9,81.57,63.65c121.62,3.85,85.8-71.26,85.8-71.26s1.38,51.13-83.69,46.78S556.24,1271.29,556.24,1271.29Z"/></clipPath><clipPath id="clip-path-4"><ellipse class="cls-1" cx="639.52" cy="1180.35" rx="47.4" ry="16.78"/></clipPath><clipPath id="clip-path-5"><path class="cls-1" d="M693.89,1286.3s-42.78,24.94,4.79,49.2c37.7,19.23,81.54,6.28,98.2-1,6.86-3,12.21-11,13.89-17.73,1.77-7.08.24-16.31-13-24.92,0,0,5.89,16-5.74,22.2s-22.43,10.6-50.45,9.7c-26.94-.87-50.63-11.82-54.11-19.68C684.22,1296.71,693.89,1286.3,693.89,1286.3Z"/></clipPath><clipPath id="clip-path-6"><path class="cls-1" d="M678.6,1356.58s-28.92,46.89,63.86,49.82c95.2,3,67.16-55.78,67.16-55.78s1.08,40-65.51,36.62S678.6,1356.58,678.6,1356.58Z"/></clipPath><clipPath id="clip-path-7"><ellipse class="cls-1" cx="743.79" cy="1285.4" rx="37.1" ry="13.14"/></clipPath></defs><path class="cls-2" d="M1718.71,1163.24c-28.31-40.93-157-303.34-723.61-263-658.88,46.92-897.37,282.52-817.86,466.08C281,1605.84,692.57,1557.54,765.39,1566c298.28,34.68,693.17,235,913.68-36.32C1796.72,1384.9,1735.27,1187.2,1718.71,1163.24Z"/><g class="cls-3"><path class="cls-4" d="M1276.64,1376.86s133.11,51.49,106.49,99.89c-33.05,60.08-73.27,16.16-153,69.27s123.23,268.6,123.23,268.6L1622.7,1639s-215.18-35.37-149.41-110.81c70.77-81.19,80.48-126.13-125.93-192.79C1130.86,1265.44,1276.64,1376.86,1276.64,1376.86Z"/></g><polygon class="cls-5" points="1089.6 1461.13 1458.69 1278.61 1443.88 772.87 1245.69 608.71 980.75 1054.1 1089.6 1461.13"/><polygon class="cls-6" points="478.17 1214.98 1017.08 1479.91 1009.66 1002.76 471.62 829.44 478.17 1214.98"/><path class="cls-7" d="M448.06,1223.64l30.11-8.66,5.26-355.27H438.16S432.3,1177.09,448.06,1223.64Z"/><polygon class="cls-8" points="388.12 881.03 388.12 1190.29 448.02 1223.64 450.74 861.42 388.12 881.03"/><polygon class="cls-8" points="1473.29 1292.66 1452.68 1282.09 1452.68 815.79 1504.9 865.29 1473.29 1292.66"/><polygon class="cls-7" points="1515.05 856.6 1522.54 1272.72 1473.29 1292.66 1473.29 822.48 1515.05 856.6"/><path class="cls-8" d="M1036.43,1498.65l-55.68-30.16v-366l64.49-21.72S1068.55,1449.4,1036.43,1498.65Z"/><path class="cls-6" d="M1072.19,1128.07l214.68-414.8s144.39,157.23,186.42,157.82-204.51-258.47-204.51-258.47l-38.66,22.25L1116.73,852.21l-73.88,200.5Z"/><polygon class="cls-7" points="1036.43 1124.43 1036.43 1498.65 1099.6 1468.13 1099.6 1030.2 1036.43 1124.43"/><path class="cls-9" d="M1281.34,610.21l284.1,255.9-9.63,13.71L1543.24,888s-207-113.15-297.48-252.34C1245.76,635.64,1242.43,588.8,1281.34,610.21Z"/><polygon class="cls-9" points="545.57 913.33 534.88 914.66 545.43 936.93 547.69 1127.2 655.04 1168.2 661.62 1182.09 670.41 1178.67 681 953.89 545.57 913.33"/><polygon class="cls-10" points="537.49 1134.67 661.62 1182.09 670.92 958.38 534.88 914.66 537.49 1134.67"/><polygon class="cls-11" points="603.93 1139.81 641.05 1154.02 644.33 1069.47 606.05 1057.2 603.93 1139.81"/><polygon class="cls-11" points="597.62 959.22 551.08 942.67 551.9 1030.1 596.51 1043.33 597.62 959.22"/><polygon class="cls-11" points="551.99 1039.88 552.75 1120.22 595.27 1136.5 596.36 1054.1 551.99 1039.88"/><polygon class="cls-11" points="644.79 1057.66 647.91 977.1 608.46 963.08 606.33 1046.25 644.79 1057.66"/><polygon class="cls-9" points="596.51 1043.33 551.9 1030.1 551.99 1039.88 596.36 1054.1 596.51 1043.33"/><polygon class="cls-9" points="606.33 1046.25 606.05 1057.2 644.33 1069.47 644.79 1057.66 606.33 1046.25"/><polygon class="cls-10" points="594.15 949.83 591.67 1136.67 600.24 1140.61 605.08 952.01 594.15 949.83"/><polygon class="cls-10" points="657.22 1056.57 547.64 1024.06 543.09 1032.34 653.09 1067.59 657.22 1056.57"/><polygon class="cls-9" points="755.93 996.78 743.9 998.27 755.77 1023.32 758.32 1237.25 879.01 1283.35 886.41 1298.96 896.3 1295.12 908.2 1042.39 755.93 996.78"/><polygon class="cls-10" points="746.85 1245.65 886.41 1298.96 896.87 1047.44 743.9 998.27 746.85 1245.65"/><polygon class="cls-11" points="821.54 1251.42 863.28 1267.4 866.97 1172.34 823.93 1158.55 821.54 1251.42"/><polygon class="cls-11" points="814.45 1048.38 762.12 1029.77 763.04 1128.07 813.2 1142.95 814.45 1048.38"/><polygon class="cls-11" points="763.15 1139.07 764 1229.4 811.81 1247.7 813.04 1155.06 763.15 1139.07"/><polygon class="cls-11" points="867.48 1159.06 870.99 1068.49 826.64 1052.71 824.24 1146.23 867.48 1159.06"/><polygon class="cls-9" points="813.2 1142.95 763.04 1128.07 763.15 1139.07 813.04 1155.06 813.2 1142.95"/><polygon class="cls-9" points="824.24 1146.23 823.93 1158.55 866.97 1172.34 867.48 1159.06 824.24 1146.23"/><polygon class="cls-10" points="810.55 1037.82 807.77 1247.9 817.4 1252.32 822.84 1040.27 810.55 1037.82"/><polygon class="cls-10" points="881.46 1157.84 758.25 1121.28 753.14 1130.59 876.82 1170.23 881.46 1157.84"/><polygon class="cls-12" points="1094.78 995.88 1383.13 884.65 1281.5 972.4 1077.12 1039.04 1094.78 995.88"/><polygon class="cls-8" points="1272.09 1379.53 1347.36 1335.36 1350.08 1157.15 1271.84 1149.06 1272.09 1379.53"/><polygon class="cls-8" points="1221.43 1409.61 1200.78 1406.15 1202.98 1176.54 1231.84 1189.7 1221.43 1409.61"/><polygon class="cls-7" points="1081.4 1019.8 1488.6 856.6 1485.98 920.3 1077.12 1088.19 1081.4 1019.8"/><polygon class="cls-13" points="1287.44 1363.17 1288.19 1174.88 1291.77 1191.86 1294.92 1357.57 1287.44 1363.17"/><polygon class="cls-13" points="1303.57 1351.1 1300.85 1237.24 1308.94 1346.26 1303.57 1351.1"/><polygon class="cls-13" points="1315.32 1342.31 1311.59 1170.05 1322.82 1163.96 1325.32 1308.83 1318.58 1231.03 1315.32 1342.31"/><polygon class="cls-13" points="1332.99 1329.08 1330.19 1224.73 1338.38 1324.8 1332.99 1329.08"/><polygon class="cls-13" points="1331.52 1136.03 1334.5 1228.76 1339.39 1139.39 1331.52 1136.03"/><path class="cls-7" d="M1278.38,1191.28l-1.74,185.58s-4.32,34.8-55.21,32.75l2.71-258.24Z"/><path class="cls-7" d="M1397.88,1120.5l-.44,188.38s.44,28.33-50.08,26.48l1.4-254.7Z"/><polygon class="cls-10" points="1183.96 1099.43 1182.74 1180.2 1254.23 1223.43 1183.96 1099.43"/><path class="cls-14" d="M1184,1099.43l70.27,124s56,16.73,72.44-44c0,0,58.33,21.5,72.19-47,0,0,38.75,13.41,41.13-23.21l-80.31-89.42Z"/><path class="cls-10" d="M1284,1184.6c14.64-18.07,8.43-43.25-.08-62.68a2.86,2.86,0,0,1,5.17-2.45l1.22,2.38a21.72,21.72,0,0,1,1.31,2.93,2.89,2.89,0,0,1-5.15,2.39,5,5,0,0,1-.31-.49,47.6,47.6,0,0,1-2.25-4.8,2.85,2.85,0,0,1,5.17-2.4,88.47,88.47,0,0,0,8.58,13.6c6.75,8.53,16.73,18.19,28.41,17.05a31,31,0,0,0,12.25-4.83c-5.15,5-12.24,8.57-19.58,7.41-15.34-2.34-27.9-17.6-34.73-30.61l5.17-2.41c.48,1.14,1,2.29,1.57,3.39.11.21.31.6.43.79l0,0a2.88,2.88,0,0,0-4.73.12,2.84,2.84,0,0,0-.31,2.44c-.11-.24-.27-.61-.38-.84-.37-.77-1.33-2.69-1.72-3.46l5.16-2.45c8.82,20.22,13.65,48.88-5.17,64.95Z"/><path class="cls-10" d="M1286.66,1111.23c12.5-15.44,7.2-37-.07-53.55a2.44,2.44,0,0,1,4.41-2.09l1,2a18.56,18.56,0,0,1,1.12,2.5,2.47,2.47,0,0,1-4.41,2c-.09-.12-.18-.29-.26-.41a45.09,45.09,0,0,1-1.92-4.11,2.44,2.44,0,0,1,4.42-2.05,74.54,74.54,0,0,0,7.33,11.62c5.76,7.29,14.29,15.54,24.27,14.57a26.61,26.61,0,0,0,10.47-4.13c-4.4,4.3-10.46,7.33-16.73,6.34-13.11-2-23.83-15-29.68-26.16l4.42-2.06c.42,1,.87,2,1.34,2.9.1.18.27.51.37.68l0,0a2.46,2.46,0,0,0-4,.11,2.4,2.4,0,0,0-.27,2.09c-.09-.21-.23-.53-.33-.73-.31-.65-1.13-2.29-1.47-3l4.41-2.09c7.54,17.28,11.67,41.76-4.41,55.49Z"/><path class="cls-10" d="M1338.61,1145.65c14.63-18.08,8.42-43.25-.09-62.68a2.86,2.86,0,0,1,5.17-2.45l1.22,2.38a21.91,21.91,0,0,1,1.32,2.93,2.89,2.89,0,0,1-5.16,2.38,4.9,4.9,0,0,1-.31-.48,51,51,0,0,1-2.25-4.8,2.86,2.86,0,0,1,5.18-2.41,87.06,87.06,0,0,0,8.58,13.61c6.74,8.52,16.73,18.18,28.41,17a30.7,30.7,0,0,0,12.24-4.83c-5.14,5-12.23,8.58-19.58,7.42-15.34-2.35-27.89-17.6-34.73-30.61l5.18-2.41c.48,1.14,1,2.28,1.56,3.39.12.21.32.6.43.79l0,0a2.88,2.88,0,0,0-4.73.12,2.83,2.83,0,0,0-.32,2.45c-.1-.25-.27-.62-.38-.85-.36-.77-1.33-2.68-1.72-3.45l5.16-2.46c8.83,20.23,13.66,48.88-5.16,65Z"/><path class="cls-9" d="M742,398.47c-82.88-41.35-206,18.26-224,58.15L360.72,804.79a94.46,94.46,0,0,0-7.46,58c3,15,10,30,25.38,36.81,36.26,15.93,81.14-21.78,81.14-21.78s-3.92,58.41,37.59,75.94c37.28,15.75,82.21-25.32,82.21-25.32s.83,56.18,35.49,73.69c13,6.57,28.33,4.85,42.41.14a94.31,94.31,0,0,0,32.8-19.06,92.26,92.26,0,0,0-1.1,40c3,15,10,30,25.38,36.81,36.25,15.93,81.14-21.78,81.14-21.78s-3.92,58.4,37.59,75.94c37.28,15.75,82.21-25.33,82.21-25.33s.82,56.19,35.49,73.7c13,6.56,28.33,4.85,42.41.14,24.65-8.24,53.83-21.62,65.25-45l232.88-489.9Z"/><path class="cls-10" d="M619.17,350.22a47.2,47.2,0,0,0-63,23.09l-192,411a92.86,92.86,0,0,0-7.34,57.1c2.92,14.79,9.81,29.56,25,36.22,35.67,15.68,79.85-21.43,79.85-21.43s-3.86,57.47,37,74.73c36.69,15.5,80.9-24.92,80.9-24.92s.81,55.29,34.92,72.51c12.8,6.46,27.88,4.78,41.73.15a93,93,0,0,0,32.28-18.77,90.62,90.62,0,0,0-1.08,39.37c2.91,14.78,9.81,29.55,25,36.21,35.67,15.68,79.84-21.43,79.84-21.43s-3.85,57.48,37,74.73c36.69,15.5,80.9-24.92,80.9-24.92s.81,55.29,34.92,72.52c12.79,6.46,27.88,4.77,41.73.14,24.26-8.11,44-26.08,55.22-49.06l234-487.85Z"/><path class="cls-9" d="M428.56,777.78c41.4,4.61,73.38-29.09,94.47-60.71,3.81-5.35,11.82-.34,8.69,5.42l-2.41,4.15a39.16,39.16,0,0,1-3.15,4.82,5.18,5.18,0,0,1-8.58-5.48,9.9,9.9,0,0,1,.44-.93,86.85,86.85,0,0,1,5.06-8c3.86-5.22,11.7-.22,8.63,5.48a157.42,157.42,0,0,0-12.23,26.1c-6.34,18.42-11.26,42.81,1.75,59.33,5.09,6.12,11.91,10.35,19.12,13.81-12.56-2.9-24.76-10.17-30.11-22.37-11.29-25.42-.41-59.1,12.61-82l8.64,5.48c-1.26,1.83-2.48,3.73-3.6,5.64-.21.38-.61,1-.79,1.41l0-.07a5.17,5.17,0,0,0-4.76-7,5.1,5.1,0,0,0-4,1.89c.27-.4.66-1,.91-1.39.8-1.3,2.76-4.6,3.55-5.94l8.69,5.42c-22,32.86-60.55,67.84-103,55Z"/><path class="cls-9" d="M534.88,821.34c41.4,4.61,73.38-29.09,94.47-60.71,3.81-5.35,11.82-.34,8.69,5.42l-2.41,4.15a40.35,40.35,0,0,1-3.15,4.82,5.18,5.18,0,0,1-8.58-5.48,9.9,9.9,0,0,1,.44-.93,86.85,86.85,0,0,1,5.06-8c3.86-5.22,11.7-.22,8.63,5.48a157.42,157.42,0,0,0-12.23,26.1c-6.34,18.42-11.27,42.82,1.74,59.33,5.1,6.12,11.92,10.35,19.13,13.81-12.57-2.9-24.77-10.17-30.11-22.37-11.29-25.42-.42-59.09,12.61-82l8.63,5.48c-1.25,1.83-2.48,3.73-3.59,5.64-.22.38-.61,1.05-.79,1.42l0-.08a5.17,5.17,0,0,0-4.76-7,5.09,5.09,0,0,0-4,1.89c.26-.39.66-1,.9-1.39.81-1.3,2.77-4.6,3.55-5.94l8.69,5.42c-22,32.86-60.54,67.84-103,55Z"/><path class="cls-9" d="M646.46,866.12c41.41,4.61,73.39-29.09,94.48-60.71,3.8-5.35,11.81-.34,8.68,5.43L747.21,815a38.35,38.35,0,0,1-3.14,4.82,5.18,5.18,0,0,1-8.59-5.48,9.9,9.9,0,0,1,.44-.93,92.79,92.79,0,0,1,5.06-8c3.86-5.22,11.71-.22,8.64,5.48a156.62,156.62,0,0,0-12.23,26.1c-6.35,18.42-11.27,42.82,1.74,59.33,5.1,6.12,11.91,10.35,19.13,13.81-12.57-2.9-24.77-10.17-30.12-22.37-11.29-25.41-.41-59.09,12.61-82l8.64,5.47c-1.26,1.84-2.48,3.73-3.6,5.65-.21.37-.6,1-.78,1.41l0-.08a5.16,5.16,0,0,0-4.76-7,5.1,5.1,0,0,0-4,1.89c.27-.39.67-1,.91-1.39.81-1.29,2.76-4.6,3.55-5.94l8.69,5.42c-22,32.86-60.54,67.85-103,55Z"/><path class="cls-9" d="M748.91,907.15c41.41,4.61,73.39-29.09,94.48-60.71,3.81-5.35,11.82-.34,8.68,5.43l-2.4,4.14a39.56,39.56,0,0,1-3.15,4.82,5.18,5.18,0,0,1-8.58-5.48c.11-.3.3-.65.43-.93a90.54,90.54,0,0,1,5.07-8c3.86-5.22,11.7-.22,8.63,5.48A157.42,157.42,0,0,0,839.84,878c-6.34,18.42-11.27,42.82,1.74,59.33,5.1,6.12,11.92,10.35,19.13,13.81-12.57-2.9-24.77-10.17-30.11-22.37-11.29-25.42-.42-59.09,12.61-82l8.63,5.48c-1.25,1.83-2.48,3.73-3.6,5.64-.21.38-.6,1-.78,1.42l0-.08a5.16,5.16,0,0,0-4.75-7,5.09,5.09,0,0,0-4,1.89c.26-.39.66-1,.9-1.39.81-1.3,2.77-4.6,3.55-5.94l8.69,5.42c-22,32.86-60.54,67.85-103,55Z"/><path class="cls-9" d="M860.5,951.93c41.41,4.61,73.39-29.09,94.48-60.71,3.8-5.35,11.81-.34,8.68,5.43l-2.41,4.14a38.41,38.41,0,0,1-3.15,4.82,5.18,5.18,0,0,1-8.58-5.47,10.08,10.08,0,0,1,.44-.94,90.44,90.44,0,0,1,5.06-8c3.86-5.22,11.7-.22,8.64,5.49a156.53,156.53,0,0,0-12.23,26.09c-6.35,18.42-11.27,42.82,1.74,59.34,5.09,6.11,11.91,10.34,19.12,13.81-12.56-2.91-24.76-10.18-30.11-22.37-11.29-25.42-.41-59.1,12.61-82l8.64,5.47c-1.26,1.84-2.48,3.73-3.6,5.65-.21.37-.61,1.05-.78,1.41l0-.07a5.17,5.17,0,0,0-4.76-7,5.11,5.11,0,0,0-4,1.9c.27-.4.67-1,.91-1.4.8-1.29,2.76-4.59,3.55-5.94l8.69,5.42c-22,32.87-60.54,67.85-103,55Z"/><path class="cls-9" d="M545.92,637.73c41.42,4.46,73.28-29.35,94.26-61,3.78-5.37,11.81-.39,8.7,5.39l-2.39,4.15a40.77,40.77,0,0,1-3.13,4.83,5.18,5.18,0,0,1-8.61-5.44,10.08,10.08,0,0,1,.44-.94,88.06,88.06,0,0,1,5-8c3.84-5.23,11.7-.27,8.65,5.45a157.73,157.73,0,0,0-12.13,26.14c-6.28,18.44-11.12,42.86,2,59.33,5.12,6.1,11.95,10.3,19.18,13.74-12.58-2.86-24.81-10.09-30.2-22.27-11.38-25.37-.62-59.09,12.32-82l8.66,5.45c-1.25,1.84-2.47,3.74-3.58,5.65-.21.38-.6,1.06-.78,1.42l0-.07a5.16,5.16,0,0,0-4.78-7,5.08,5.08,0,0,0-4,1.91c.26-.4.66-1,.9-1.4.8-1.3,2.75-4.61,3.53-6l8.71,5.39c-21.87,32.94-60.3,68.06-102.78,55.35Z"/><path class="cls-9" d="M657.66,682.12c41.42,4.46,73.28-29.35,94.26-61,3.79-5.36,11.81-.38,8.7,5.4l-2.39,4.15a38.4,38.4,0,0,1-3.13,4.83,5.18,5.18,0,0,1-8.6-5.44,9,9,0,0,1,.43-.94,89.14,89.14,0,0,1,5-8.06c3.84-5.23,11.7-.26,8.65,5.45a157.78,157.78,0,0,0-12.14,26.14c-6.28,18.45-11.11,42.86,2,59.33,5.11,6.1,11.95,10.31,19.17,13.74-12.58-2.85-24.8-10.08-30.19-22.26-11.38-25.38-.62-59.09,12.32-82l8.65,5.44c-1.25,1.84-2.46,3.74-3.58,5.66-.21.37-.6,1-.77,1.41l0-.07a5.16,5.16,0,0,0-4.78-7,5.09,5.09,0,0,0-4,1.9c.27-.4.66-1,.9-1.4.81-1.29,2.75-4.6,3.53-6l8.71,5.39c-21.86,32.94-60.3,68.06-102.78,55.36Z"/><path class="cls-9" d="M671.12,527.09c41.43,4.46,73.29-29.35,94.27-61,3.78-5.37,11.81-.39,8.7,5.39l-2.4,4.15a38.4,38.4,0,0,1-3.13,4.83A5.18,5.18,0,0,1,760,475a10.08,10.08,0,0,1,.44-.94,88.06,88.06,0,0,1,5-8.05c3.84-5.24,11.7-.27,8.65,5.45A156.55,156.55,0,0,0,762,497.58c-6.28,18.44-11.12,42.85,1.95,59.33,5.12,6.09,12,10.3,19.17,13.74-12.57-2.86-24.8-10.09-30.19-22.27-11.38-25.37-.62-59.09,12.32-82l8.66,5.45c-1.25,1.83-2.47,3.74-3.58,5.65-.21.38-.6,1.05-.78,1.42l0-.08a5.16,5.16,0,0,0-4.78-7,5.08,5.08,0,0,0-4,1.91c.26-.4.66-1,.9-1.4.8-1.3,2.75-4.61,3.53-5.95l8.71,5.38c-21.87,32.95-60.3,68.06-102.79,55.36Z"/><path class="cls-10" d="M1290.41,608.43,1569.65,860l-13.92,19.81S1327,730.55,1259.14,621.18c0,0-10.12-31.22,16.22-21.85A45.16,45.16,0,0,1,1290.41,608.43Z"/><path class="cls-15" d="M1315.12,813.73s-57.88-31.84-64.21-22.6,53.68,32.24,53.68,32.24l12.44-1.22Z"/><path class="cls-15" d="M1308.88,866.78s-56.52-21.78-62.61-8.71S1309.43,886,1309.43,886Z"/><path class="cls-16" d="M1306.68,873.93l-60.41-15.86s-5.69,18.82,6.15,27S1313,901.5,1313,901.5Z"/><path class="cls-16" d="M1312.87,839.81l-58.44-15.36s-10.26-25.74-3.52-33.32l67.1,28.78-3.36,19.5Z"/><path class="cls-8" d="M1459.07,1032.81s74.82-14.21,82.36-56.72,15-133-36.77-197.38l-36.15,28.17L1465.57,794,1491,766.41s-14.34-20.3-23.43-21.86l-29.5,29.58L1429.8,768l27.41-30s-84.36-52.39-139.78,48.54S1459.07,1032.81,1459.07,1032.81Z"/><path class="cls-12" d="M1421.42,812.56l-.05-42.69s-25.22-24.07-42.78-18.06S1353.82,774,1353.82,774l2.51,18.11-21.12-25.56s-39.31,29.09-34.06,87.52,19.71,130.87,64.64,151.26,75.65,36.76,93.28,27.51l-17.13-32.76,29.54,27.11s17-8.69,14.62-15.41l-52.23-48.94,63.42,37.93s8.24-47,8-63.86L1475.1,928s33.12,2.13,32.54-2.17,9.65-109-72.72-147.8Z"/><path class="cls-17" d="M1442.83,924.15s-9.86,21.22-36.64,29.51c0,0,3.13-33.6-4.42-46.13s-20.3-23.25-20.3-23.25L1406.9,842s21.3,11.48,32.24,10.91Z"/><path class="cls-13" d="M1380.47,888.64l-78.62,125.17s5.37-20.92-7.39-22.74c-10.8-1.54-13.92-.15-13.92-.15l73.12-121.6S1393.35,829.87,1380.47,888.64Z"/><path class="cls-18" d="M1445.9,923.12s-9.86,21.22-36.64,29.51c0,0,3.13-33.6-4.43-46.13s-20.29-23.25-20.29-23.25L1410,840.91s21.31,11.49,32.24,10.92Z"/><path class="cls-19" d="M1380.83,889.55s-4-23.94-28.7-18.2l34.4-50.65a12.58,12.58,0,0,1,12.9-5.38c7.07,1.46,15.57,6,14.36,19.51a12.65,12.65,0,0,1-1.92,5.65Z"/><path class="cls-12" d="M1297.71,988.93s7.66,10,6.82,17.07-7.6,19-12.87,18.8-13.45-10.14-13.4-20.14-.43-13.19,6.69-17.41S1297.71,988.93,1297.71,988.93Z"/><path class="cls-20" d="M1381.26,888.87S1377,864,1352.13,871.35c0,0-.65,1-.2.86s19.28-7.69,28.9,17.34Z"/><path class="cls-20" d="M1410.11,821s-32.76,29.8-36.25,56.77l-7.31-5.22s33.76-49.21,32.88-57.23C1399.43,815.32,1407.25,815.93,1410.11,821Z"/><path class="cls-17" d="M1442.2,851.83s-18.82,45.09-36.84,58.66l2.67,14.89s32.51-31.44,35.43-49.39Z"/><path class="cls-13" d="M1053.41,1490.45l-1.31-5.42a148.08,148.08,0,0,1-2-60.17l4.88-28.11,1.34,38.39a138.78,138.78,0,0,0,4.6,30.93l4.89,18.38Z"/><path class="cls-13" d="M1081.77,1476.75V1468q0-12.93-1-25.82l-1.5-18.61,7,23.93a39.84,39.84,0,0,1,1.41,7.5l1.62,18.18Z"/><path class="cls-13" d="M1070,1482.4v-6.31q0-9.25-.73-18.5l-1.08-13.33,5,17.15a28,28,0,0,1,1,5.37l1.17,13Z"/><path class="cls-9" d="M556.82,372l706.4,288.37V607.1L582.44,340.39l-9.09,7.72a48.08,48.08,0,0,0-11.27,14Z"/><path class="cls-13" d="M1488.6,1286.46s2.62-8.65,1.28-27.12-1.28-15.79-1.28-15.79,7.52,31.44,7,40.08Z"/><path class="cls-13" d="M1502,1281s.34-51.28-2.74-61.18c0,0,9.48,42.84,9.56,58.42Z"/><polygon class="cls-12" points="1227.89 433.31 1313 483.13 1263.43 627.84 1188.9 580.17 1052.63 443.33 1227.89 433.31"/><polygon class="cls-21" points="555.55 343.51 600.61 255.65 740.99 327.96 555.55 343.51"/><path class="cls-7" d="M553,344.79,1188.9,580.17l17.3-61.74s-87.75-26.72-113.62-57.94c0,0,85.91,37.9,115.83,32.19l5.32-29s-53.67-12.24-67.82-21.31c0,0,62.44,10.38,76.47,1.77l5.52-10.86L606,242.65l-18.13,37.76s74.69,38.73,115.16,42.2c0,0-91.58,1.52-126.16-27.4l-10.17,19.37S601,333.94,622.93,335c0,0-48.29-.15-59.29-6.55Z"/><path class="cls-7" d="M574.6,1177.14S539,1258.24,566.91,1332a51.07,51.07,0,0,0,23.93,27.17c22.79,11.94,66.09,26.27,107.09-6.54a52.58,52.58,0,0,0,16.76-23.9c8.25-23.8,18.93-76.4-10.17-148.32L662.92,1206l-43.33,2.71-29.84-10.83-12.86-20.72Z"/><path class="cls-8" d="M630.14,1209.22s-.45,143.1,3.68,159.54l4-159.54Z"/><path class="cls-8" d="M676.7,1203.22s14.51,64.25,4.87,155.89c0,0,21.3-49.53,1.54-158.66Z"/><path class="cls-8" d="M593.19,1199.31s-16.39,66.73-6.75,156.18c0,0-20-54.27-.25-160.8Z"/><ellipse class="cls-8" cx="639.52" cy="1183.7" rx="66.66" ry="27.94"/><ellipse class="cls-22" cx="639.52" cy="1180.35" rx="47.4" ry="16.78"/><path class="cls-23" d="M708.52,1188.66s7.52,20.42-7.34,28.37-28.66,13.53-64.45,12.38c-34.41-1.11-64.38-15.21-69.13-25.14-2.49-5.2-.13-11.19,2.69-15.72a6,6,0,0,1,.47-1.71,10.16,10.16,0,0,0,.57-1.37c.1-.41.15-.8.28-1.17-11.5,8.39-39.81,34.52,10.28,60.06,48.16,24.56,105.29,9.9,125.45-1.21,14.45-8,15.6-14.1,17.74-22.66C727.34,1211.45,725.39,1199.65,708.52,1188.66Z"/><g class="cls-24"><path class="cls-25" d="M708.24,1186.57c-8.07-5.66-113.93-7-130.55-7.13a1.19,1.19,0,1,1-.28,2.36h-.31a1.15,1.15,0,0,1,.12.25l0,.32a1.12,1.12,0,0,1-.19.6l-.21.24a1,1,0,0,1-.43.25,1.15,1.15,0,0,1-.52.1,1.13,1.13,0,0,1-.52-.1l-.06,0a1.19,1.19,0,0,1-.38.8,2.09,2.09,0,0,0-.22.2v7.78c0,1.49-2.5,1.53-2.68.16-.1.29-.2.58-.31.87a1.41,1.41,0,0,1-1.66.83,1.18,1.18,0,0,1-.94-1.46c.46-1.21,2.5-8.36,2.71-8.8,0-.24.18-1.65.18-1.65-6.21,5.49-17.29,18.35-2.13,30.47,20,16,47.12,21.39,67.38,22.61s56.12-2.44,71.2-15.64C718.53,1210.82,717,1192.72,708.24,1186.57Z"/></g><path class="cls-23" d="M556.24,1272.1s-37,66.27,81.57,70.42c121.62,4.26,85.8-78.84,85.8-78.84s1.38,56.56-83.69,51.76S556.24,1272.1,556.24,1272.1Z"/><g class="cls-26"><path class="cls-25" d="M556.24,1251.6s-28.62,62.31,81.57,66.54c113.82,4.37,85.8-74.5,85.8-74.5s1.38,53.45-83.69,48.91S556.24,1251.6,556.24,1251.6Z"/></g><g class="cls-27"><path class="cls-7" d="M686.38,1190.14c-6.41,5.55-24,9.79-46.38,9.79-21.49,0-40.1-3.17-47.4-9.59-5.05-4.43,9.79-18.81,47.32-18.62C680.51,1171.92,691.61,1185.62,686.38,1190.14Z"/></g><path class="cls-7" d="M693,1282.88s-27.85,63.49-6,121.23a40,40,0,0,0,18.73,21.27c17.84,9.35,51.73,20.56,83.83-5.12a41.23,41.23,0,0,0,13.12-18.7c6.45-18.63,14.81-59.81-8-116.1l-32.56,20-33.92,2.12-23.35-8.48-10.07-16.22Z"/><path class="cls-8" d="M736.45,1308s-.35,112,2.88,124.88L742.45,1308Z"/><path class="cls-8" d="M772.9,1303.3s11.35,50.29,3.81,122c0,0,16.67-38.77,1.21-124.19Z"/><path class="cls-8" d="M707.53,1300.23s-12.83,52.24-5.28,122.26c0,0-15.66-42.48-.2-125.87Z"/><ellipse class="cls-8" cx="743.79" cy="1288.02" rx="52.18" ry="21.87"/><ellipse class="cls-22" cx="743.79" cy="1285.4" rx="37.1" ry="13.14"/><path class="cls-23" d="M797.8,1291.9s5.89,16-5.74,22.2-22.43,10.6-50.45,9.7c-26.94-.87-50.39-11.91-54.11-19.68-2-4.07-.1-8.76,2.1-12.31a4.89,4.89,0,0,1,.37-1.33,9.14,9.14,0,0,0,.45-1.08c.08-.32.12-.62.22-.92-9,6.58-31.17,27,8,47,37.7,19.23,82.42,7.75,98.2-1,11.31-6.24,12.21-11,13.89-17.73C812.54,1309.74,811,1300.51,797.8,1291.9Z"/><g class="cls-28"><path class="cls-25" d="M797.59,1290.27c-6.32-4.44-89.18-5.45-102.2-5.59a.93.93,0,1,1-.21,1.85h-.24a1.21,1.21,0,0,1,.09.2l0,.24a.85.85,0,0,1-.15.48l-.16.18a.79.79,0,0,1-.34.2.94.94,0,0,1-.41.08,1,1,0,0,1-.41-.08l0,0a.94.94,0,0,1-.3.62l-.17.16v6.09c0,1.16-2,1.2-2.1.12l-.24.69a1.11,1.11,0,0,1-1.3.65.94.94,0,0,1-.74-1.15c.37-1,2-6.54,2.13-6.89l.14-1.29c-4.86,4.3-13.54,14.36-1.67,23.86,15.62,12.5,36.88,16.73,52.74,17.69s43.93-1.91,55.73-12.24C805.64,1309.25,804.44,1295.08,797.59,1290.27Z"/></g><path class="cls-23" d="M678.6,1357.21s-28.92,51.87,63.86,55.12c95.2,3.34,67.16-61.71,67.16-61.71s1.08,44.28-65.51,40.51S678.6,1357.21,678.6,1357.21Z"/><g class="cls-29"><path class="cls-25" d="M678.6,1341.16s-22.4,48.78,63.86,52.09c89.09,3.42,67.16-58.32,67.16-58.32s1.08,41.84-65.51,38.29S678.6,1341.16,678.6,1341.16Z"/></g><g class="cls-30"><path class="cls-7" d="M780.48,1293.06c-5,4.35-18.75,7.66-36.31,7.66-16.82,0-31.39-2.48-37.1-7.5-4-3.47,7.66-14.73,37-14.58C775.88,1278.8,784.57,1289.52,780.48,1293.06Z"/></g><path class="cls-31" d="M404.66,1216.53c29.9-35.68,5.16-58.81,7.6-70,0,0,33.64,25.49,23,54.24l9.65-21a64.78,64.78,0,0,0,5.91-23.59,77.05,77.05,0,0,1,21.11-48.64s-11.17,83.36,4.05,86.62c0,0,1.91-28.89,17.15-36.84,0,0-3.39,33.41,3.86,66.52C506.28,1266.34,394.1,1236.62,404.66,1216.53Z"/></svg>