<svg id="Capa_1" enable-background="new 0 0 512 512" height="512" viewBox="0 0 512 512" width="512" xmlns="http://www.w3.org/2000/svg"><path d="m418.539 65.016v48.762l39.459-16.911c6.567-2.815 6.567-12.125 0-14.94z" fill="#ff8086"/><path d="m418.539 170.667c-4.488 0-8.127-3.639-8.127-8.127v-97.524c0-4.488 3.639-8.127 8.127-8.127 4.488 0 8.127 3.639 8.127 8.127v97.524c0 4.488-3.638 8.127-8.127 8.127z" fill="#dad8db"/><path d="m467.301 430.73h-88.222v-170.666l88.222 24.381z" fill="#ffe09f"/><path d="m418.539 284.445h48.762v-24.381h-97.524v170.666h16.254v-113.777c0-17.954 14.555-32.508 32.508-32.508z" fill="#f6d190"/><path d="m425.893 145.658c-1.709-3.632-5.436-5.144-8.825-4.536l-52.239 115.481 42.25 7.147 68.827-11.813z" fill="#ff8086"/><circle cx="418.539" cy="316.953" fill="#d19a6e" r="16.254"/><path d="m475.906 251.937h-55.058c-9.83 0-17.411-8.658-16.111-18.402l12.33-92.413c-2.407.44-4.667 1.955-5.882 4.536l-52.209 110.945c-2.536 5.39 1.396 11.587 7.353 11.587h104.42c5.957 0 9.89-6.197 7.353-11.587z" fill="#e5646e"/><path d="m256 8.127v48.762l39.459-16.911c6.567-2.815 6.567-12.125 0-14.94z" fill="#ff8086"/><path d="m256 113.778c-4.488 0-8.127-3.639-8.127-8.127v-97.524c0-4.488 3.638-8.127 8.127-8.127 4.488 0 8.127 3.639 8.127 8.127v97.524c0 4.488-3.639 8.127-8.127 8.127z" fill="#dad8db"/><path d="m304.762 373.841h-88.223v-170.666l88.223 24.381z" fill="#ffe09f"/><path d="m256 227.556h48.762v-24.381h-97.524v170.667h16.254v-113.778c0-17.954 14.554-32.508 32.508-32.508z" fill="#f6d190"/><path d="m263.353 88.769c-1.709-3.632-5.436-5.144-8.825-4.536l-52.239 115.481 42.25 7.147 68.827-11.813z" fill="#ff8086"/><circle cx="256" cy="260.064" fill="#d19a6e" r="16.254"/><path d="m313.367 195.048h-55.058c-9.83 0-17.411-8.658-16.111-18.402l12.33-92.413c-2.407.44-4.667 1.955-5.882 4.536l-52.209 110.945c-2.536 5.39 1.396 11.587 7.353 11.587h104.42c5.957 0 9.89-6.197 7.353-11.587z" fill="#e5646e"/><path d="m93.46 65.016v48.762l39.459-16.911c6.567-2.815 6.567-12.125 0-14.94z" fill="#ff8086"/><path d="m93.46 170.666c-4.488 0-8.127-3.639-8.127-8.127v-97.523c0-4.488 3.639-8.127 8.127-8.127 4.488 0 8.127 3.639 8.127 8.127v97.524c0 4.488-3.638 8.126-8.127 8.126z" fill="#dad8db"/><path d="m142.222 430.73h-88.222v-170.667l88.222 24.381z" fill="#ffe09f"/><path d="m93.46 284.444h48.762v-24.381h-97.524v170.667h16.254v-113.778c0-17.953 14.555-32.508 32.508-32.508z" fill="#f6d190"/><path d="m100.814 145.658c-1.709-3.632-5.436-5.144-8.825-4.536l-52.239 115.481 42.25 7.147 68.827-11.813z" fill="#ff8086"/><circle cx="93.46" cy="316.952" fill="#d19a6e" r="16.254"/><path d="m150.827 251.936h-55.058c-9.83 0-17.411-8.658-16.111-18.402l12.33-92.413c-2.407.44-4.667 1.955-5.882 4.536l-52.209 110.946c-2.536 5.39 1.396 11.587 7.353 11.587h104.42c5.957 0 9.89-6.197 7.353-11.587z" fill="#e5646e"/><path d="m402.286 406.349v-8.127c0-4.488 3.639-8.127 8.127-8.127h16.254c4.488 0 8.127 3.639 8.127 8.127v8.127c0 4.488 3.639 8.127 8.127 8.127h16.254c4.488 0 8.127-3.639 8.127-8.127v-8.127c0-4.488 3.639-8.127 8.127-8.127h16.254c4.488 0 8.127 3.639 8.127 8.127v105.651c0 4.488-3.639 8.127-8.127 8.127h-121.905l-16.254-97.524h40.635c4.488 0 8.127-3.639 8.127-8.127z" fill="#e2a975"/><path d="m109.714 406.349v-8.127c0-4.488-3.639-8.127-8.127-8.127h-16.254c-4.488 0-8.127 3.639-8.127 8.127v8.127c0 4.488-3.639 8.127-8.127 8.127h-16.254c-4.488 0-8.127-3.639-8.127-8.127v-8.127c0-4.488-3.639-8.127-8.127-8.127h-16.254c-4.488 0-8.127 3.639-8.127 8.127v105.651c0 4.488 3.639 8.127 8.127 8.127h105.651l8.127-48.762-8.127-48.762h-8.127c-4.488 0-8.127-3.639-8.127-8.127z" fill="#e2a975"/><path d="m337.27 316.952v8.127c0 4.488-3.639 8.127-8.127 8.127h-16.254c-4.488 0-8.127-3.639-8.127-8.127v-8.127c0-4.488-3.639-8.127-8.127-8.127h-16.254c-4.488 0-8.127 3.639-8.127 8.127v8.127c0 4.488-3.639 8.127-8.127 8.127h-16.254c-4.488 0-8.127-3.639-8.127-8.127v-8.127c0-4.488-3.639-8.127-8.127-8.127h-16.254c-4.488 0-8.127 3.639-8.127 8.127v8.127c0 4.488-3.639 8.127-8.127 8.127h-16.254c-4.488 0-8.127-3.639-8.127-8.127v-8.127c0-4.488-3.639-8.127-8.127-8.127h-16.254c-4.488 0-8.127 3.639-8.127 8.127v195.048h48.762c4.488 0 8.127-3.639 8.127-8.127v-46.377c0-31.15 24.003-58.313 55.138-59.248 32.218-.967 58.639 24.862 58.639 56.862v48.762c0 4.488 3.639 8.127 8.127 8.127h48.762v-195.047c0-4.488-3.639-8.127-8.127-8.127h-16.254c-4.488 0-8.126 3.639-8.126 8.127z" fill="#ecbd83"/><path d="m125.968 414.476h16.254v97.524h-16.254z" fill="#d19a6e"/></svg>