<?xml version="1.0" encoding="utf-8"?>
<!-- Generator: Adobe Illustrator 26.0.1, SVG Export Plug-In . SVG Version: 6.00 Build 0)  -->
<svg version="1.1" id="Layer_1" xmlns="http://www.w3.org/2000/svg" xmlns:xlink="http://www.w3.org/1999/xlink" x="0px" y="0px"
	 viewBox="0 0 2000 2000" style="enable-background:new 0 0 2000 2000;" xml:space="preserve">
<style type="text/css">
	.st0{fill:#AED76A;}
	.st1{clip-path:url(#SVGID_00000165947326558275310520000016191584618301008772_);fill:#FECFAE;}
	.st2{fill:#AAA49B;}
	.st3{fill:#8F65AC;}
	.st4{fill:#E8E3DD;}
	.st5{fill:#60262E;}
	.st6{fill:#BAB6AF;}
	.st7{clip-path:url(#SVGID_00000057141229562684536850000006023731126154067344_);fill:#FECFAE;}
	.st8{fill:#E5BF9C;}
	.st9{fill:#A08470;}
	.st10{fill:#3F2957;}
	.st11{fill:#AFD86A;}
	.st12{clip-path:url(#SVGID_00000047038422040686536140000001149333040735827363_);fill:#FECFAE;}
	.st13{clip-path:url(#SVGID_00000176725416319833745210000011359133883287654305_);fill:#FECFAE;}
	.st14{fill:#877874;}
	.st15{fill:#967266;}
	.st16{fill:#4C3B36;}
	.st17{fill:#725B51;}
	.st18{fill:#DDCBB8;}
	.st19{fill:#441C0C;}
	.st20{fill:#592710;}
	.st21{fill:#724E44;}
	.st22{clip-path:url(#SVGID_00000041271707610074172690000008211547125399814559_);fill:#FECFAE;}
	.st23{fill:#77A22F;}
	.st24{fill:#AA9983;}
	.st25{fill:#EAC794;}
	.st26{fill:#936B3E;}
	.st27{fill:#E0D1B7;}
	.st28{fill:#BF9D71;}
	.st29{fill:#4C94BF;}
	.st30{fill:#FFFFFF;}
	.st31{fill:#7B625C;}
	.st32{fill:#392516;}
	.st33{fill:#551C3B;}
	.st34{fill:#A28A84;}
	.st35{fill:#B48F6C;}
	.st36{fill:#FECFAE;}
	.st37{fill:#402F21;}
	.st38{fill:#381126;}
	.st39{fill:#7A6047;}
	.st40{fill:#6B6969;}
	.st41{fill:#4F3F2F;}
	.st42{fill:#787676;}
	.st43{fill:#908D8E;}
	.st44{fill:#6E899F;}
	.st45{fill:#FDCFAC;}
	.st46{fill:#62534C;}
	.st47{fill:#554A44;}
	.st48{fill:#3D5669;}
	.st49{fill:#293035;}
	.st50{fill:#78685E;}
	.st51{fill:#8F8D8E;}
	.st52{fill:#38444D;}
	.st53{fill:#797677;}
	.st54{fill:#CAB399;}
	.st55{fill:#A5917A;}
	.st56{fill:#8BBC38;}
	.st57{fill:#AA4226;}
	.st58{fill:#312419;}
	.st59{fill:#443428;}
	.st60{fill:#846A55;}
	.st61{fill:none;}
	.st62{fill:#634C3B;}
	.st63{clip-path:url(#SVGID_00000055701467420473281440000001239606200700675516_);}
	.st64{fill:#D6BA9D;}
	.st65{fill:#1E1713;}
	.st66{fill:#B99971;}
	.st67{fill:#8C6D51;}
	.st68{fill:#9E7E5C;}
	.st69{clip-path:url(#SVGID_00000010990026780997926150000011891164787253547658_);}
	.st70{fill:#352820;}
	.st71{fill:#665140;}
	.st72{clip-path:url(#SVGID_00000070097084109317022600000002047165816228739205_);}
	.st73{clip-path:url(#SVGID_00000165213963992471863470000001257368188149774517_);}
	.st74{clip-path:url(#SVGID_00000022527798689937463020000001459665884792172476_);}
	.st75{clip-path:url(#SVGID_00000076586150402479882090000004554399953793109928_);}
	.st76{fill:#8ABD32;}
	.st77{clip-path:url(#SVGID_00000092421514831282240280000005553076047386539194_);}
	.st78{fill:#993A23;}
	.st79{clip-path:url(#SVGID_00000183250712170878963440000011143450220458019980_);fill:#993A23;}
	.st80{fill:#7A291B;}
	.st81{clip-path:url(#SVGID_00000144303683206861020130000007372435699234383232_);fill:#993A23;}
	.st82{fill:#BC4D3B;}
	.st83{fill:#846F5A;}
	.st84{fill:#AD957D;}
	.st85{fill:#D8C9BA;}
	.st86{fill:#C4B19F;}
	.st87{fill:#705E4D;}
	.st88{clip-path:url(#SVGID_00000005946083216723448240000003232098216754882475_);fill:#998776;}
	.st89{fill:#604F40;}
	.st90{fill:#A39386;}
	.st91{clip-path:url(#SVGID_00000140714782016155433780000002939722682149478834_);fill:#998776;}
	.st92{clip-path:url(#SVGID_00000137829676740387911200000012949204217615505826_);fill:#998776;}
	.st93{clip-path:url(#SVGID_00000178913907462248941430000013425790221033520512_);fill:#846F5A;}
	.st94{clip-path:url(#SVGID_00000178913907462248941430000013425790221033520512_);fill:#998776;}
	.st95{fill:#E5D6C7;}
	.st96{fill:#937D69;}
	.st97{fill:#3C3229;}
	.st98{fill:#71BBD8;}
	.st99{fill:#EC7D51;}
	.st100{fill:url(#SVGID_00000154409872071573429540000015195756415337342907_);}
	.st101{opacity:0.65;fill:url(#SVGID_00000182520540861835553660000003887880973443718536_);}
	.st102{opacity:0.65;fill:url(#SVGID_00000096745112430212799210000013430757971231878550_);}
	.st103{clip-path:url(#SVGID_00000045603212268888136130000017508841324803499683_);fill:#998776;}
	.st104{clip-path:url(#SVGID_00000154390094445183318930000016675963029843960497_);fill:#998776;}
	.st105{clip-path:url(#SVGID_00000166647269356641784720000002989047908784592022_);fill:#846F5A;}
	.st106{clip-path:url(#SVGID_00000166647269356641784720000002989047908784592022_);fill:#998776;}
	.st107{fill:#A08975;}
	.st108{clip-path:url(#SVGID_00000036220325150726993370000012871300920031307919_);}
	.st109{fill:url(#SVGID_00000008871373370071410900000005512935114728968852_);}
	.st110{opacity:0.65;fill:url(#SVGID_00000139295556189331013690000010767058651363318692_);}
	.st111{fill:#998776;}
	.st112{fill:#C1AE9F;}
	.st113{clip-path:url(#SVGID_00000006674606386381757240000010200552551766884490_);fill:#846F5A;}
	.st114{clip-path:url(#SVGID_00000006674606386381757240000010200552551766884490_);fill:#998776;}
	.st115{clip-path:url(#SVGID_00000039820765843188357960000012478554189008204190_);}
	.st116{fill:#515151;}
	.st117{fill:#7A7A7A;}
	.st118{fill:#8C8C8C;}
	.st119{fill:#F5E3BA;}
	.st120{fill:#593263;}
	.st121{opacity:0.4;fill:#BB986F;}
	.st122{fill:#A5A5A5;}
	.st123{fill:#BB986F;}
	.st124{fill:#A883C6;}
	.st125{fill:#2E1849;}
	.st126{fill:#6B6B6B;}
	.st127{fill:#724382;}
	.st128{clip-path:url(#SVGID_00000155867675300418975490000016047371648749208222_);fill:#8ABD32;}
	.st129{clip-path:url(#SVGID_00000093868219931979606550000015711944367226140840_);}
	.st130{fill:#70442C;}
	.st131{opacity:0.2;clip-path:url(#SVGID_00000016789720112604427370000003317029687558422196_);fill:#70442C;}
	.st132{fill:#A36B4B;}
	.st133{fill:#875536;}
	.st134{fill:#D5AF73;}
	.st135{opacity:0.2;clip-path:url(#SVGID_00000011739682259951393190000016866107214442928540_);fill:#70442C;}
	.st136{opacity:0.2;clip-path:url(#SVGID_00000018952990013394050830000011661150188181273530_);fill:#70442C;}
	.st137{opacity:0.4;clip-path:url(#SVGID_00000060009744055578486610000010169739928615348353_);fill:#70442C;}
	.st138{opacity:0.2;clip-path:url(#SVGID_00000060009744055578486610000010169739928615348353_);fill:#70442C;}
	.st139{clip-path:url(#SVGID_00000057140285443778382380000004073096100922940080_);fill:#FECFAE;}
	.st140{fill:#9B8572;}
	.st141{fill:#4F2C2A;}
	.st142{fill:#934D3D;}
	.st143{clip-path:url(#SVGID_00000129903230449400866580000005774082458042717871_);fill:#70442C;}
	.st144{fill:#BF975D;}
	.st145{fill:#A57341;}
	.st146{clip-path:url(#SVGID_00000049188181484226376330000016399761472362118079_);fill:#70442C;}
	.st147{clip-path:url(#SVGID_00000021817929581197578500000011586803015428326800_);fill:#70442C;}
	.st148{fill:#4A1F19;}
	.st149{clip-path:url(#SVGID_00000128457761222548357630000013588858914261334959_);fill:#A37A79;}
	.st150{fill:#D19857;}
	.st151{fill:#D6B58E;}
	.st152{fill:#AF8956;}
	.st153{clip-path:url(#SVGID_00000076602641608232828240000016317103864612301962_);fill:#FECFAE;}
	.st154{fill:#93643A;}
	.st155{clip-path:url(#SVGID_00000085237531041250055880000008904001620175997089_);fill:#70442C;}
	.st156{clip-path:url(#SVGID_00000039129481150769951770000011520290847347789488_);fill:#70442C;}
	.st157{clip-path:url(#SVGID_00000108274079154289640780000004733017129823766685_);fill:#70442C;}
	.st158{clip-path:url(#SVGID_00000117655429131181939430000001566240148869695671_);fill:#70442C;}
	.st159{clip-path:url(#SVGID_00000037664838978417077600000002382597111382847895_);fill:#70442C;}
	.st160{clip-path:url(#SVGID_00000022534814331797144260000007611199263997030279_);fill:#70442C;}
	.st161{clip-path:url(#SVGID_00000008868811735535168420000014797020596364328343_);fill:#70442C;}
	.st162{clip-path:url(#SVGID_00000100356290998349001280000007337074947394803349_);fill:#70442C;}
	.st163{clip-path:url(#SVGID_00000008872062627527655180000002312649662339575485_);fill:#70442C;}
	.st164{clip-path:url(#SVGID_00000085220505727661093780000015614880920570535870_);fill:#70442C;}
	.st165{clip-path:url(#SVGID_00000095337823843315190760000016272072955353019317_);fill:#70442C;}
	.st166{clip-path:url(#SVGID_00000024720062132544763370000014248326677916704188_);fill:#70442C;}
	.st167{clip-path:url(#SVGID_00000148655929844412913640000011070490160485582264_);fill:#A37A79;}
	.st168{clip-path:url(#SVGID_00000091713591470492924430000006885224528907778701_);fill:#FECFAE;}
	.st169{clip-path:url(#SVGID_00000045582616254644627850000006915811830019706557_);fill:#70442C;}
	.st170{clip-path:url(#SVGID_00000147922978639169764390000004187827499376629695_);fill:#70442C;}
	.st171{clip-path:url(#SVGID_00000116226369342156311590000002554256446236681617_);fill:#70442C;}
	.st172{fill:#877366;}
	.st173{clip-path:url(#SVGID_00000031180187351343696720000003467876884808145597_);fill:#FECFAE;}
	.st174{fill:#4E8BC1;}
	.st175{fill:#F9EBE8;}
	.st176{fill:#C9B3AD;}
	.st177{fill:#EAD2CC;}
	.st178{fill:#387BAD;}
	.st179{clip-path:url(#SVGID_00000119823410334786475850000013323803088379552446_);fill:#8ABD32;}
	.st180{clip-path:url(#SVGID_00000147925753182223938860000000176348666573680050_);fill:#8ABD32;}
	.st181{clip-path:url(#SVGID_00000047050643975812120420000004648339727766340269_);fill:#8ABD32;}
	.st182{clip-path:url(#SVGID_00000131352677864027707950000012347659344576659900_);fill:#8ABD32;}
	.st183{clip-path:url(#SVGID_00000150797900992060692450000011920053235629876147_);fill:#8ABD32;}
	.st184{clip-path:url(#SVGID_00000137825320442964375320000012165578024703738258_);fill:#FECFAE;}
	.st185{clip-path:url(#SVGID_00000002363500018228547970000006983127729001992887_);fill:#8ABD32;}
	.st186{fill:#5597C9;}
	.st187{fill:#1572A0;}
	.st188{fill:#D6C5C1;}
	.st189{clip-path:url(#SVGID_00000083775510629690873000000008358825943698834355_);fill:#8ABD32;}
	.st190{fill:#61A6D1;}
	.st191{fill:#B2A19D;}
	.st192{clip-path:url(#SVGID_00000150809598882455383970000017814249322020712368_);fill:#8ABD32;}
	.st193{clip-path:url(#SVGID_00000089552835954767187470000011097173705891671216_);fill:#FECFAE;}
	.st194{clip-path:url(#SVGID_00000023246758703114330240000002385885175700860561_);fill:#8ABD32;}
	.st195{clip-path:url(#SVGID_00000139986354074733999100000011715423476274558361_);fill:#FECFAE;}
	.st196{fill:#A07775;}
	.st197{fill:#B79C86;}
	.st198{fill:#8C383B;}
	.st199{fill:#A5606B;}
	.st200{fill:#8F534A;}
	.st201{fill:#523028;}
	.st202{fill:#7A2C32;}
	.st203{fill:#965D59;}
	.st204{clip-path:url(#SVGID_00000164501132836721119150000013688903909431680951_);fill:#8F534A;}
	.st205{clip-path:url(#SVGID_00000036935678663929770480000017335465061341044608_);fill:#8BBC38;}
	.st206{clip-path:url(#SVGID_00000006689869396031667930000009754609877996694173_);fill:#8BBC38;}
	.st207{clip-path:url(#SVGID_00000045583558585644495180000009879935032732405178_);fill:#FDCFAC;}
	.st208{clip-path:url(#SVGID_00000119839329858484928800000009505243433034375049_);fill:#8F534A;}
	.st209{fill:#5B3932;}
	.st210{fill:#9E5F59;}
	.st211{clip-path:url(#SVGID_00000049196253949993285030000017422445081419578784_);fill:#8BBC38;}
	.st212{clip-path:url(#SVGID_00000174600640691856821490000016335912925505741211_);fill:#603D38;}
	.st213{clip-path:url(#SVGID_00000064319320606784243910000014786743311406245505_);fill:#523028;}
	.st214{fill:#914047;}
	.st215{clip-path:url(#SVGID_00000028317611702811177150000015109447631250482576_);fill:#8BBC38;}
	.st216{clip-path:url(#SVGID_00000127030589285673253300000016350323835438582945_);fill:#8BBC38;}
	.st217{clip-path:url(#SVGID_00000001624590262670957460000013995872740435143603_);fill:#603D38;}
	.st218{clip-path:url(#SVGID_00000123415123821710407180000011285128217807839903_);fill:#523028;}
	.st219{clip-path:url(#SVGID_00000178201943920250959950000002030318501671879044_);fill:#8BBC38;}
	.st220{clip-path:url(#SVGID_00000075868938603356198430000010657394668466531759_);fill:#8BBC38;}
	.st221{clip-path:url(#SVGID_00000160183648984371367450000012788059214920860049_);fill:#8ABD32;}
	.st222{clip-path:url(#SVGID_00000067935232915723657320000000981942470893691276_);fill:#441C0C;}
	.st223{fill:#9B786F;}
	.st224{fill:#8E7C75;}
	.st225{opacity:0.8;fill:#A3ACAF;}
	.st226{fill:#838C8E;}
	.st227{fill:#CFE59A;}
	.st228{clip-path:url(#SVGID_00000106867468019971956930000011196186470270248372_);fill:#FECFAE;}
	.st229{clip-path:url(#SVGID_00000057132106978549338370000011042381536473426571_);fill:#441C0C;}
	.st230{fill:#773825;}
	.st231{clip-path:url(#SVGID_00000041272013982870198590000001405306234439623061_);}
	.st232{clip-path:url(#SVGID_00000029006239029999274220000003129133724000551556_);}
	.st233{clip-path:url(#SVGID_00000058585972995510666030000006352708192841624460_);fill:#441C0C;}
	.st234{clip-path:url(#SVGID_00000183954307908251683920000014868190232738394518_);}
	.st235{clip-path:url(#SVGID_00000058553890276740987530000012150031997715462076_);fill:#441C0C;}
	.st236{fill:#2B1009;}
	.st237{opacity:0.8;fill:#B8BFC1;}
	.st238{fill:#B8BFC1;}
	.st239{fill:#F5FFCA;}
	.st240{fill:#A0C45B;}
	.st241{fill:#BCE077;}
	.st242{clip-path:url(#SVGID_00000050651900677815604370000006883251189340959643_);fill:#FECFAE;}
	.st243{clip-path:url(#SVGID_00000071549144543352385930000009046609818340152500_);}
	.st244{fill:#B99AD6;}
	.st245{fill:#EDCCB2;}
	.st246{fill:#9287AB;}
	.st247{fill:#B6B3C4;}
	.st248{fill:#A29CB7;}
	.st249{fill:#5A546D;}
	.st250{fill:#7F6A5C;}
	.st251{fill:#645F77;}
	.st252{fill:#472A51;}
	.st253{clip-path:url(#SVGID_00000031170209902719404670000015567578514110557886_);}
	.st254{fill:#6D407C;}
	.st255{clip-path:url(#SVGID_00000183206665178843744360000006591463759119431043_);fill:#6D407C;}
	.st256{clip-path:url(#SVGID_00000152969848939127715700000004458397667766460084_);fill:#6D407C;}
	.st257{clip-path:url(#SVGID_00000157291893372877774580000013045095997337649822_);fill:#8ABD32;}
	.st258{fill:#76708E;}
	.st259{clip-path:url(#SVGID_00000181088200902195492090000008821555761983944354_);fill:#6D407C;}
	.st260{clip-path:url(#SVGID_00000085945941881921891010000005550873430672274605_);fill:#6D407C;}
	.st261{fill:#9C7ABC;}
	.st262{clip-path:url(#SVGID_00000061460632967369565320000018083189464883671475_);fill:#FECFAE;}
	.st263{clip-path:url(#SVGID_00000042018267357678355450000002333492499483399577_);fill:#6D407C;}
	.st264{clip-path:url(#SVGID_00000110431946713262257560000016512822078526582938_);fill:#B99AD6;}
	.st265{clip-path:url(#SVGID_00000034069737713668605670000014779084374668891286_);fill:#FECFAE;}
	.st266{clip-path:url(#SVGID_00000104694904487400890380000003322253049408802703_);fill:#8ABD32;}
	.st267{fill:#8C796F;}
	.st268{fill:#633C27;}
	.st269{fill:#3F2519;}
	.st270{fill:#6B5E55;}
	.st271{clip-path:url(#SVGID_00000080886988424269205380000003700426519153117880_);fill:#633C27;}
	.st272{fill:#7A6B5F;}
	.st273{fill:#2B1811;}
	.st274{fill:#594E47;}
	.st275{fill:#685C53;}
	.st276{fill:#A8968A;}
	.st277{fill:#996A52;}
	.st278{fill:#B2A197;}
	.st279{fill:#A39081;}
	.st280{clip-path:url(#SVGID_00000012431890712378574190000000001845397738023607_);}
	.st281{clip-path:url(#SVGID_00000004542067594123449760000015441684081838910344_);fill:#FECFAE;}
	.st282{fill:#685443;}
	.st283{fill:#CCB193;}
	.st284{fill:#BB9C75;}
	.st285{fill:#C6A283;}
	.st286{fill:#897056;}
	.st287{fill:#DB6800;}
	.st288{fill:#F28D26;}
	.st289{fill:#702C31;}
	.st290{fill:#9B8067;}
	.st291{fill:#35261D;}
	.st292{fill:#4B3628;}
	.st293{fill:#658723;}
	.st294{fill:#EDD87E;}
	.st295{fill:#992828;}
	.st296{fill:#C93F3F;}
	.st297{fill:#E1C243;}
	.st298{fill:#D8B213;}
	.st299{fill:#E5CA57;}
	.st300{clip-path:url(#SVGID_00000116915429579709140170000008612448822339686534_);}
	.st301{clip-path:url(#SVGID_00000012438403150015989210000013589625559880058556_);fill:#FECFAE;}
	.st302{fill:#AD8B82;}
	.st303{clip-path:url(#SVGID_00000072968399482665057540000002300535772329169335_);}
	.st304{fill:#7C685B;}
	.st305{clip-path:url(#SVGID_00000097501689289442129970000004115526032831784580_);}
	.st306{clip-path:url(#SVGID_00000072969931160302855830000008798542391197326763_);}
	.st307{fill:#E2D3C5;}
	.st308{fill:#FFEEA9;}
	.st309{fill:#2B211F;}
	.st310{fill:#A3847E;}
	.st311{fill:#544541;}
	.st312{clip-path:url(#SVGID_00000098203791339969806060000003656892732932260242_);fill:#7C251C;}
	.st313{fill:#7C251C;}
	.st314{fill:#CEA380;}
	.st315{clip-path:url(#SVGID_00000083061747048465655970000010340133434846681273_);fill:#8E2F20;}
	.st316{clip-path:url(#SVGID_00000114794533453670122430000007113645486264568986_);fill:#AA4226;}
	.st317{fill:#BA9B95;}
	.st318{fill:#6B5956;}
	.st319{fill:#594947;}
	.st320{fill:#877674;}
	.st321{clip-path:url(#SVGID_00000129928782460667777550000002370899306195459715_);fill:#B6B3C4;}
	.st322{clip-path:url(#SVGID_00000076605140717240182590000016814611612860857758_);fill:#B6B3C4;}
	.st323{clip-path:url(#SVGID_00000098201362943336095770000015693343265027862199_);fill:#E5CA57;}
	.st324{clip-path:url(#SVGID_00000109005077116993367710000015589602702955495865_);fill:#E5CA57;}
	.st325{clip-path:url(#SVGID_00000096771695179427742390000004192967106205695873_);fill:#FECFAE;}
	.st326{fill:#EEC8B8;}
	.st327{fill:#CEA697;}
	.st328{fill:#888499;}
	.st329{fill:#9B4329;}
	.st330{fill:#933D2E;}
	.st331{fill:#843523;}
	.st332{fill:#CC6748;}
	.st333{fill:#B7542E;}
	.st334{fill:#7C3237;}
	.st335{fill:#893724;}
	.st336{fill:#914759;}
	.st337{fill:#D67B5F;}
	.st338{clip-path:url(#SVGID_00000182515047337625985970000012457553780141458335_);fill:#B6B3C4;}
	.st339{clip-path:url(#SVGID_00000181804751334748482250000003312921620662915746_);fill:#B6B3C4;}
	.st340{clip-path:url(#SVGID_00000010308586300508412330000012681472451581218696_);fill:#E5CA57;}
	.st341{clip-path:url(#SVGID_00000123405885377311450670000015420036801690724536_);fill:#E5CA57;}
	.st342{clip-path:url(#SVGID_00000075164492131582173440000012901807641986242222_);fill:#B6B3C4;}
	.st343{clip-path:url(#SVGID_00000001625806815288235900000007764428517527769996_);fill:#B6B3C4;}
	.st344{clip-path:url(#SVGID_00000036232296005035188680000005599412981505689742_);fill:#AED76A;}
	.st345{clip-path:url(#SVGID_00000091706804550875025430000010021518849218188974_);fill:#B6B3C4;}
	.st346{clip-path:url(#SVGID_00000008858997371953800050000005469058133393252535_);fill:#B6B3C4;}
	.st347{clip-path:url(#SVGID_00000175281824432603537260000009165399771774380424_);fill:#E5CA57;}
	.st348{clip-path:url(#SVGID_00000074404549027600775310000010845797977981291664_);}
	.st349{clip-path:url(#SVGID_00000098905180715659736650000003781579370010822297_);fill:#8BBC38;}
	.st350{fill:#A37A79;}
	.st351{fill:#7F74B5;}
	.st352{clip-path:url(#SVGID_00000163065598443159751520000010113433681852541116_);fill:#FECFAE;}
	.st353{clip-path:url(#SVGID_00000060017951806886869160000015157823354900648117_);fill:#E0D1B7;}
	.st354{clip-path:url(#SVGID_00000060017951806886869160000015157823354900648117_);}
	.st355{clip-path:url(#SVGID_00000183935395657792037190000006103846558718020499_);fill:#A37A79;}
	.st356{fill:#682A30;}
	.st357{opacity:0.58;fill:#AA9983;}
	.st358{opacity:0.58;fill:#9B4329;}
	.st359{opacity:0.58;fill:#B7542E;}
	.st360{fill:#755959;}
	.st361{fill:#BC9595;}
	.st362{clip-path:url(#SVGID_00000030466832134416448210000006361140372887704995_);}
	.st363{fill:#E2D8C7;}
	.st364{fill:#969189;}
	.st365{fill:#BAB3A8;}
	.st366{fill:#54423E;}
	.st367{clip-path:url(#SVGID_00000016796608729760242440000018116693379120442248_);fill:#877069;}
	.st368{clip-path:url(#SVGID_00000145045679578879350990000015895475223560353195_);fill:#725B51;}
	.st369{fill:#EFE8DF;}
	.st370{clip-path:url(#SVGID_00000017480127853576802950000003305613386493331121_);fill:#969189;}
	.st371{fill:#765196;}
	.st372{clip-path:url(#SVGID_00000049197292458132832420000006148583977717474696_);fill:#A883C6;}
</style>
<path class="st0" d="M1757.8,1410.83c-61.25-63.94-235.69-243.43-776.24-205.66c-628.59,43.92-856.96,252.62-781.84,414.22
	c98.03,210.84,507.2,132.74,560.18,173.85s760.73,163.74,972.08-76.41C1844.77,1588.68,1820.54,1476.32,1757.8,1410.83z"/>
<g>
	<defs>
		<path id="SVGID_00000021822434031394418080000017912956661832798353_" d="M1757.8,1410.83
			c-61.25-63.94-235.69-243.43-776.24-205.66c-628.59,43.92-856.96,252.62-781.84,414.22c98.03,210.84,507.2,132.74,560.18,173.85
			s760.73,163.74,972.08-76.41C1844.77,1588.68,1820.54,1476.32,1757.8,1410.83z"/>
	</defs>
	<clipPath id="SVGID_00000168082934510139558490000002265657437846904451_">
		<use xlink:href="#SVGID_00000021822434031394418080000017912956661832798353_"  style="overflow:visible;"/>
	</clipPath>
	<path style="clip-path:url(#SVGID_00000168082934510139558490000002265657437846904451_);fill:#FECFAE;" d="M938.22,1628.41
		c0,0,268.71,41.35,303.94,88.84c35.23,47.49-14.12,65.87-35.4,94.98c-21.29,29.11,88.68,72.34,326.13,115.23l260.43-104.68
		c0,0-482.66,31.91-451.4-33.7c54.81-115.06-109.33-155.59-361.05-186.7C980.86,1602.38,913.18,1601.02,938.22,1628.41z"/>
</g>
<path class="st23" d="M962.37,1441.18c-34.17-56.74-80.9-12.35-80.9-12.35s31.04-52.46-58.37-87.09
	c-41.75-16.2-68.15,9.45-81.67,29.81c-3.98-16.79-15.24-33.27-39.56-45.76c-56.85-29.22-80.95,60.35-80.95,60.35
	c-13.9-2.41-26.31-5.55-35.54-8.19c5.14-15.9,4.59-36.09-19.15-52.15c-33.7-22.82-59.45,16.83-59.45,16.83
	c-18.21-5.48-28.3,2.62-28.3,2.62c-11.5,7.31-13.26,17.87-11.56,27.53c2.31,13.06,12.95,37.67,44.92,45.75l52.15,17.35
	c11.08,18.75,32.58,39.9,70.56,44.75l0,0c53.42,29.48,113.64,44.42,174.64,43.35l23.6-0.42c23,5.38,46.98,5.18,69.96-0.43
	C928.93,1516.61,983.49,1476.24,962.37,1441.18z"/>
<path class="st23" d="M580.56,1429.05c-1.44-0.12-2.96-0.23-4.54-0.34c0,0-19.64-59.76-64.61-49.99
	c-70.24,16.89-46.08,76.89-46.08,76.89s-20.64-24.18-44.17-1.87c-19.41,17.24-7.06,41.98,10.27,53.51c0,0,30.71,30.12,97.99,21.37
	c0.89-0.08,1.78-0.17,2.67-0.28l11.84-1.45c9.29-1.14,18.22-3.71,26.53-7.52c0,0,0.01,0,0.01,0l0,0
	c16.39-7.52,30.35-19.89,39.76-35.78c0.09-0.15,0.17-0.3,0.26-0.44c0.71-1.21,1.37-2.59,1.95-4.09
	C621.34,1456.09,605.1,1431.1,580.56,1429.05z"/>
<g>
	<defs>
		<path id="SVGID_00000030489118736085988900000008104449013860349850_" d="M580.56,1429.05c-1.44-0.12-2.96-0.23-4.54-0.34
			c0,0-19.64-59.76-64.61-49.99c-70.24,16.89-46.08,76.89-46.08,76.89s-20.64-24.18-44.17-1.87c-19.41,17.24-7.06,41.98,10.27,53.51
			c0,0,30.71,30.12,97.99,21.37c0.89-0.08,1.78-0.17,2.67-0.28l11.84-1.45c9.29-1.14,18.22-3.71,26.53-7.52c0,0,0.01,0,0.01,0l0,0
			c16.39-7.52,30.35-19.89,39.76-35.78c0.09-0.15,0.17-0.3,0.26-0.44c0.71-1.21,1.37-2.59,1.95-4.09
			C621.34,1456.09,605.1,1431.1,580.56,1429.05z"/>
	</defs>
	<clipPath id="SVGID_00000147186502909873438080000001447592085088850109_">
		<use xlink:href="#SVGID_00000030489118736085988900000008104449013860349850_"  style="overflow:visible;"/>
	</clipPath>
	<path style="clip-path:url(#SVGID_00000147186502909873438080000001447592085088850109_);fill:#8ABD32;" d="M457,1521.93
		c0,0-42.21-38.76-7.1-44.14s36.94-18.02,35.06-39.32s53.06-54.9,91.06-9.75c0,0-16.11-85.65-25.32-94.97
		c-9.22-9.32-150.15,35.72-149.93,41.85c0.22,6.14-50.27,102.98-47.37,105.22c2.91,2.25,67.21,53.65,67.21,53.65L457,1521.93z"/>
</g>
<path class="st267" d="M1111.83,1625.79l413.62-135.38v-464.17l-413.62-65.87C1111.83,960.37,1026.55,1376.03,1111.83,1625.79z"/>
<polygon class="st85" points="1111.83,1625.79 541.96,1527.18 545.02,983.35 721.19,703.01 716.6,548.28 900.43,502.32 
	900.43,695.35 1111.83,960.37 "/>
<polygon class="st268" points="891.07,226.07 1071.49,562.07 899.92,492.28 859.07,441.56 "/>
<polygon class="st133" points="690.89,544.71 899.92,492.28 891.07,226.07 "/>
<path class="st133" d="M891.06,107.6c4.81,57.92,4.85,116.21,0,174.13C886.22,223.81,886.25,165.52,891.06,107.6L891.06,107.6z"/>
<path class="st133" d="M862.95,167.23c14.88-10.01,38.32-17.96,56.24-19C904.32,158.27,880.86,166.16,862.95,167.23L862.95,167.23z"
	/>
<polygon class="st269" points="692.9,544.21 716.6,548.28 900.43,502.32 1048.88,565.81 1071.49,562.07 899.92,492.28 "/>
<polygon class="st111" points="574.13,1493.47 574.13,1012.45 600,1012.45 600,969.22 626.55,969.22 626.55,917.81 654.47,917.81 
	654.47,862.66 678.64,862.66 678.64,810.24 704.85,810.24 704.85,765.98 713.36,765.98 713.36,1053.81 744.17,1045.39 
	744.17,565.81 859.07,539.09 859.07,1115.09 900.43,1151.09 900.43,502.32 716.6,548.28 716.6,716.03 545.02,983.35 545.02,1527.18 
	869.65,1583.88 "/>
<polygon class="st270" points="574.13,1507.09 574.13,1026.07 600,1026.07 600,982.83 626.55,982.83 626.55,931.43 654.47,931.43 
	654.47,876.28 678.64,876.28 678.64,823.86 704.85,823.86 704.85,779.6 713.36,779.6 713.36,1067.43 744.17,1059.01 744.17,579.43 
	859.07,552.71 859.07,1128.71 900.43,1164.71 900.43,515.94 716.6,561.9 716.6,729.64 545.02,996.96 545.02,1513.9 872.85,1570.58 
	"/>
<polygon class="st269" points="803.15,1511.86 722.72,1501.3 708.94,1223.09 765.62,1108.2 832.64,1197.05 823.07,1475.86 "/>
<g>
	<defs>
		<polygon id="SVGID_00000128467459180763798260000001430809513948577463_" points="803.15,1511.86 722.72,1501.3 708.94,1223.09 
			765.62,1108.2 832.64,1197.05 823.07,1475.86 		"/>
	</defs>
	<clipPath id="SVGID_00000125602935455462640400000007910913273098185663_">
		<use xlink:href="#SVGID_00000128467459180763798260000001430809513948577463_"  style="overflow:visible;"/>
	</clipPath>
	<polygon style="clip-path:url(#SVGID_00000125602935455462640400000007910913273098185663_);fill:#633C27;" points="731.1,1193.27 
		731.1,1499.35 748.77,1499.35 748.77,1228.4 759.73,1229.68 759.73,1496.2 774.23,1496.2 770.79,1115.05 796.26,1115.05 
		788.38,1502.72 802.89,1505.89 806.76,1168.47 840.12,1170.24 819.58,1505.89 890.53,1491.97 858.78,1143.86 777.37,1061.2 
		695.27,1113.72 	"/>
</g>
<polygon class="st111" points="574.13,1493.47 574.13,1012.45 600,1012.45 600,969.22 626.55,969.22 626.55,917.81 654.47,917.81 
	654.47,862.66 678.64,862.66 678.64,810.24 704.85,810.24 704.85,765.98 713.36,765.98 713.36,1060.96 744.17,1045.39 
	744.17,565.81 859.07,539.09 859.07,1115.09 900.43,1151.09 900.43,502.32 716.6,548.28 716.6,716.03 545.02,983.35 541.96,1527.18 
	869.65,1583.88 "/>
<path class="st272" d="M778.47,1129.39c0,0-53.19,38.3-55.74,104.68c-2.55,66.38,0,267.23,0,267.23l-42.13-5.27l-1.53-313.02
	l64.6-81.7L778.47,1129.39z"/>
<path class="st111" d="M675.96,1507.97l4.64-10.87c0-9.76,5.18-25.13,14.67-27.38l0,0v-206.81c0,0-7.01-91.15,60.39-145.53
	c0,0,57.45,27.57,60.51,144c3.06,116.43,0,208.34,0,208.34l-8.07,14.35c-3.74,6.64-5.54,14.19-5.21,21.81l78.13,100.5l49.28-73.72
	c0,0-9.96-36.12-29.87-50.68v-314.94l-140.69-144.41l-116.67,147.61v278.04v11.31c0,0-22.79,5.49-22.79,22.98
	c0,6.13,0.64,17.62,0.64,17.62L675.96,1507.97z"/>
<polygon class="st269" points="900.43,695.35 900.43,710.15 1111.83,982.15 1525.45,1038.49 1525.45,1026.24 913.5,683.26 "/>
<polygon class="st268" points="913.5,698.31 1124.91,964.91 1525.45,1026.24 1267.32,754.32 933.36,637.13 "/>
<polygon class="st270" points="900.43,711.15 900.43,753.27 910.13,753.27 910.13,792.85 938.21,792.85 938.21,847.49 
	968.34,847.49 968.34,895.49 998.47,895.49 998.47,940.42 1032.17,940.42 1032.17,997.61 1066.38,997.61 1066.38,1248.85 
	1043.66,1248.85 1043.66,1274.89 1066.38,1274.89 1066.38,1294.81 1042.13,1294.81 1042.13,1315.49 1066.38,1315.49 
	1066.38,1344.59 1042.89,1344.59 1042.89,1553.7 1042.89,1576.68 574.13,1509.27 569.53,1517.98 1111.83,1625.79 1111.83,997.95 "/>
<polygon class="st267" points="900.43,502.32 1048.88,565.81 1048.88,729.05 900.43,695.35 "/>
<path class="st273" d="M990.15,698.31l-42.49-6.2l-3.68-1.66l-0.13-68.48c-0.02-9.59,3.47-18.96,10.14-25.86
	c4.02-4.16,9.53-7.88,16.99-9.68c0,0,15.74,15.8,17.45,30.1C990.13,630.83,990.15,698.31,990.15,698.31z"/>
<polygon class="st274" points="1048.88,729.05 1048.88,579.43 900.43,515.94 900.43,695.35 927.75,701.55 927.75,558.32 
	1012.77,593.05 1013.26,720.96 "/>
<polygon class="st275" points="1048.88,729.05 1048.88,565.81 900.43,502.32 900.43,695.35 927.75,701.55 927.75,544.71 
	1012.77,579.43 1013.26,720.96 "/>
<polygon class="st111" points="900.43,695.35 892.94,737.47 910.13,737.47 910.13,777.05 938.21,777.05 938.21,831.69 
	968.34,831.69 968.34,879.69 998.47,879.69 998.47,924.62 1032.17,924.62 1032.17,981.81 1066.38,981.81 1066.38,1233.05 
	1043.66,1233.05 1043.66,1259.09 1066.38,1259.09 1066.38,1279.01 1042.13,1279.01 1042.13,1299.69 1066.38,1299.69 
	1066.38,1328.79 1042.89,1328.79 1042.89,1537.9 1042.89,1560.88 574.13,1493.47 545.02,1527.18 1111.83,1625.79 1115.95,982.71 "/>
<path class="st269" d="M781.79,690.78l42.21-6.16l3.83-1.87l0.6-70.01c0-5.41-1.31-10.78-3.98-15.49
	c-3.82-6.74-10.96-15.05-23.77-18.3c0,0-15.15,15.8-16.85,30.1C782.13,623.35,781.79,690.78,781.79,690.78z"/>
<path class="st268" d="M777.36,691.43l46.64-6.81v-69c0-10.35-3.71-20.47-10.81-28c-3.23-3.43-7.34-6.57-12.51-8.67
	c0,0-19.57,15.8-21.28,30.1C777.7,623.35,777.36,691.43,777.36,691.43z"/>
<path class="st65" d="M783.32,683.26l34.72-5.71v-58.4c0-7.79-2.35-15.47-7.06-21.68c-2.54-3.35-5.91-6.5-10.3-8.52
	c0,0-14.57,13.25-15.84,25.23C783.57,626.18,783.32,683.26,783.32,683.26z"/>
<path class="st269" d="M777.37,959.66l42.21,0.29l3.83-1.62l0.6-86.97c0-6.18-1.31-12.3-3.98-17.68
	c-3.82-7.69-10.96-17.19-23.77-20.9c0,0-15.15,18.04-16.85,34.36C777.7,883.47,777.37,959.66,777.37,959.66z"/>
<path class="st268" d="M772.94,959.95l46.64-0.01v-85.3c0-11.82-3.71-23.37-10.81-31.97c-3.23-3.91-7.34-7.5-12.51-9.9
	c0,0-19.57,18.04-21.28,34.36C773.28,883.47,772.94,959.95,772.94,959.95z"/>
<path class="st65" d="M778.9,951.88h34.72v-73.19c0-8.89-2.35-17.67-7.06-24.75c-2.54-3.82-5.91-7.42-10.3-9.72
	c0,0-14.57,15.12-15.84,28.81C779.15,886.71,778.9,951.88,778.9,951.88z"/>
<path class="st269" d="M994.3,702.4l-46.64-10.29v-69c0-10.35,3.71-20.47,10.81-28c3.23-3.43,7.34-6.57,12.51-8.67
	c0,0,19.57,15.8,21.28,30.1C993.96,630.83,994.3,702.4,994.3,702.4z"/>
<path class="st65" d="M988.34,694.23l-34.72-9.19v-58.4c0-7.79,2.35-15.47,7.06-21.68c2.54-3.35,5.91-6.5,10.3-8.52
	c0,0,14.57,13.25,15.84,25.23S988.34,694.23,988.34,694.23z"/>
<path class="st273" d="M1334.08,1187.26l-42.49,123.49l-3.68-0.02l-0.13-193.52c-0.02-9.59,3.47-18.96,10.14-25.86
	c4.02-4.16,9.53-7.88,16.99-9.68c0,0,15.74,15.8,17.45,30.1C1334.06,1126.07,1334.08,1187.26,1334.08,1187.26z"/>
<path class="st269" d="M1338.23,1310.15l-46.64,0.6v-192.41c0-10.35,3.71-20.47,10.81-28c3.23-3.43,7.34-6.57,12.51-8.67
	c0,0,19.57,15.8,21.28,30.1S1338.23,1310.15,1338.23,1310.15z"/>
<path class="st65" d="M1332.27,1303.01h-34.72v-181.13c0-7.79,2.35-15.47,7.06-21.68c2.54-3.35,5.91-6.5,10.3-8.52
	c0,0,14.57,13.25,15.84,25.23C1332.01,1128.91,1332.27,1303.01,1332.27,1303.01z"/>
<path class="st273" d="M1456.49,1188.32l-37.47,108.91l-3.25-0.02l-0.12-170.66c-0.02-8.46,3.06-16.72,8.94-22.8
	c3.55-3.67,8.4-6.95,14.99-8.54c0,0,13.89,13.93,15.39,26.54C1456.47,1134.35,1456.49,1188.32,1456.49,1188.32z"/>
<path class="st269" d="M1460.15,1296.7l-41.13,0.53v-169.68c0-9.13,3.27-18.05,9.53-24.69c2.85-3.02,6.47-5.79,11.03-7.65
	c0,0,17.26,13.93,18.76,26.54C1459.85,1134.35,1460.15,1296.7,1460.15,1296.7z"/>
<path class="st65" d="M1454.89,1290.39h-30.62v-159.74c0-6.87,2.07-13.65,6.22-19.12c2.24-2.95,5.21-5.73,9.09-7.51
	c0,0,12.85,11.68,13.97,22.25S1454.89,1290.39,1454.89,1290.39z"/>
<polygon class="st276" points="1111.83,1365.81 1525.45,1315.77 1525.45,1482.24 1111.83,1617.62 "/>
<path class="st272" d="M900.43,1481.98v-323.53l-29.87,11.79v305.87c0,0,15.9,9.86,24.94,21.45c2.26,2.9,4.09,5.9,5.61,8.85
	c5.93,11.52,8.34,24.53,7.4,37.45l-2.76,37.76l29.16,12.19v-49.96c0-14.48-3.89-28.76-11.67-40.97
	C917.96,1494.62,910.58,1486.58,900.43,1481.98z"/>
<polygon class="st275" points="1111.83,1373.98 1525.45,1323.94 1525.45,1490.41 1111.83,1625.79 "/>
<path class="st133" d="M984.51,758.43c-1.25-3.48,0.34-7.34,3.7-8.89c4.42-2.04,9.89-4.77,11.96-6.64
	c3.69-3.33,14.83,31.24,11.96,37.61c-2.87,6.37-16,8.51-18.39,6.81C991.9,786,988.32,769.01,984.51,758.43z"/>
<path class="st133" d="M1351.49,931.72c-0.99-2.28-0.08-4.94,2.1-6.12c2.87-1.56,6.43-3.62,7.74-4.96
	c2.33-2.39,11.28,20.32,9.63,24.72s-10.37,6.4-12.04,5.35C1357.62,949.9,1354.5,938.66,1351.49,931.72z"/>
<path class="st133" d="M1379.15,940.48c-0.99-2.28-0.08-4.94,2.1-6.12c2.87-1.56,6.43-3.62,7.74-4.96
	c2.33-2.39,11.28,20.32,9.63,24.72c-1.66,4.39-10.37,6.4-12.04,5.35C1385.29,958.66,1382.16,947.42,1379.15,940.48z"/>
<path class="st133" d="M1191.86,783.94c-0.62-1.92,0.31-3.99,2.17-4.78c2.44-1.03,5.47-2.43,6.63-3.41
	c2.07-1.75,7.53,17.28,5.86,20.7s-8.87,4.36-10.14,3.39C1195.4,799.09,1193.75,789.78,1191.86,783.94z"/>
<path class="st133" d="M1152.53,823.82c-1.05-3.24,0.53-6.76,3.67-8.09c4.13-1.75,7.42-4.78,11.76-4.58
	c4.58,0.21,12.21,28.04,9.37,33.83s-15,7.38-17.15,5.73C1158.53,849.45,1155.74,833.68,1152.53,823.82z"/>
<path class="st133" d="M1218.87,876.23c-0.89-2.73,0.45-5.7,3.09-6.82c3.48-1.47,7.81-3.46,9.46-4.86
	c2.95-2.5,10.75,24.64,8.36,29.52c-2.39,4.88-12.65,6.22-14.46,4.83C1223.92,897.84,1221.57,884.55,1218.87,876.23z"/>
<path class="st133" d="M1010.78,510.14c-0.65-2,0.33-4.16,2.26-4.98c2.54-1.08,5.71-2.53,6.92-3.55c2.16-1.83,7.86,18.02,6.11,21.58
	c-1.75,3.56-9.24,4.55-10.57,3.53C1014.47,525.93,1012.75,516.22,1010.78,510.14z"/>
<path class="st133" d="M945.65,471.69c-0.59-2.41,0.74-4.89,3.09-5.69c3.09-1.05,6.95-2.5,8.46-3.6c2.7-1.97,7.73,21.92,5.36,25.98
	c-2.37,4.06-11.29,4.57-12.77,3.27C948.66,490.63,947.46,479.03,945.65,471.69z"/>
<path class="st133" d="M908.77,361.95c-0.84-3.14,0.84-6.4,3.89-7.51c4.01-1.46,7.3-4.18,11.41-3.78
	c4.34,0.42,10.24,27.27,7.26,32.64c-2.98,5.36-14.63,6.28-16.59,4.62C913.23,386.63,911.34,371.5,908.77,361.95z"/>
<path class="st133" d="M971.92,428.36c-0.61-2.28,0.61-4.65,2.83-5.46c2.92-1.06,6.54-2.5,7.96-3.58
	c2.52-1.92,7.76,20.65,5.59,24.54c-2.17,3.89-10.63,4.56-12.05,3.35C975.15,446.28,973.78,435.29,971.92,428.36z"/>
<path class="st277" d="M850.88,454.53c0.14-2.48-1.63-4.66-4.09-5.02c-3.24-0.46-7.29-1.17-8.98-1.97
	c-3.02-1.44-3.55,22.97-0.47,26.52c3.08,3.55,11.94,2.41,13.15,0.85C851.42,473.71,850.46,462.08,850.88,454.53z"/>
<path class="st277" d="M752.75,498.74c0.1-1.85-1.22-3.47-3.05-3.73c-2.41-0.35-5.43-0.87-6.68-1.47
	c-2.24-1.07-2.64,17.1-0.35,19.74c2.29,2.64,8.89,1.79,9.79,0.63C753.16,513.01,752.44,504.36,752.75,498.74z"/>
<path class="st277" d="M864.01,440.07c0.14-2.48-1.63-4.66-4.09-5.02c-3.24-0.46-7.29-1.17-8.98-1.97
	c-3.02-1.44-3.55,22.97-0.47,26.52c3.08,3.55,11.94,2.41,13.15,0.85C864.56,459.25,863.59,447.62,864.01,440.07z"/>
<path class="st277" d="M869.09,390.64c0.22-3.24-2.05-6.12-5.26-6.62c-4.22-0.66-7.96-2.7-11.93-1.51
	c-4.18,1.25-4.8,28.74-0.84,33.42c3.96,4.69,15.57,3.35,17.17,1.33C869.47,415.71,868.41,400.5,869.09,390.64z"/>
<path class="st277" d="M817.05,416.81c0.18-2.35-1.46-4.46-3.78-4.84c-3.06-0.5-6.89-1.25-8.48-2.05
	c-2.83-1.42-3.81,21.73-0.96,25.16c2.85,3.43,11.29,2.52,12.46,1.06C817.19,435.01,816.5,423.96,817.05,416.81z"/>
<path class="st133" d="M1019.32,782.03c-0.75-2.52,0.53-5.19,2.97-6.16c3.21-1.27,7.2-3,8.74-4.24c2.75-2.22,9.3,22.74,7.01,27.14
	c-2.29,4.4-9.86,6.8-11.48,5.5C1025.31,803.26,1021.61,789.68,1019.32,782.03z"/>
<g>
	<polygon class="st276" points="980.86,1597.2 962.99,1590.03 962.99,1583.54 944.62,1574.05 944.62,1567.56 926.55,1560.39 
		926.55,1553.9 911.83,1544.64 911.83,1538.16 903.36,1530.75 903.36,1524.26 655.81,1524.26 892.52,1627.38 	"/>
	<polygon class="st275" points="840.12,1537.23 903.36,1524.26 903.36,1530.75 844.94,1546.49 	"/>
	<polygon class="st275" points="848.59,1551.12 911.83,1538.16 911.83,1544.64 853.4,1560.39 	"/>
	<polygon class="st275" points="863.31,1566.87 926.55,1553.9 926.55,1560.39 868.13,1576.13 	"/>
	<polygon class="st275" points="881.38,1580.53 944.62,1567.56 944.62,1574.05 886.2,1589.79 	"/>
	<polygon class="st275" points="899.75,1596.51 962.99,1583.54 962.99,1590.03 904.57,1605.77 	"/>
	<polygon class="st275" points="914.81,1614.8 980.86,1597.2 980.86,1603.69 919.63,1624.06 	"/>
	<g>
		<polygon class="st275" points="894.93,1606.08 894.93,1646.53 938.22,1628.41 938.22,1592.95 		"/>
		<polygon class="st85" points="633.97,1602.47 771.25,1623.96 769.05,1535.38 632.52,1519.94 		"/>
		<polygon class="st272" points="754.22,1491.52 662.43,1479.8 640.87,1483.44 620.27,1481.97 620.27,1486.91 784.1,1512.6 
			841.93,1502.72 841.93,1497.78 		"/>
		<polygon class="st278" points="620.27,1481.97 784.1,1507.66 841.93,1497.78 668.43,1476.28 		"/>
		<polygon class="st275" points="784.1,1512.6 784.1,1541.14 841.93,1530.59 841.93,1502.72 		"/>
		<polygon class="st278" points="938.22,1592.95 894.93,1606.08 841.92,1604.53 885.14,1588.33 		"/>
		<polygon class="st272" points="885.14,1588.33 841.92,1604.53 784.1,1541.15 841.92,1530.59 		"/>
		<polygon class="st279" points="894.93,1646.53 757,1623.06 759.41,1541.14 640.24,1521.93 637.74,1604.53 516.67,1585.7 
			516.67,1544.02 572.69,1550.82 620.27,1512.6 620.27,1486.91 784.1,1512.6 784.1,1541.15 847.2,1602.53 894.93,1606.08 		"/>
		<polygon class="st278" points="516.67,1544.02 563.05,1530.59 593.31,1534.25 572.69,1550.82 		"/>
	</g>
</g>
<polygon class="st269" points="748.77,1013.22 757.96,1038.49 870.55,1170.24 911.92,1166.41 916.51,1157.22 "/>
<polygon class="st268" points="793.96,1013.22 748.77,1013.22 872.85,1160.57 916.51,1157.22 "/>
<polygon class="st268" points="748.77,1013.22 630.81,1160.57 643.07,1170.24 759.73,1026.24 "/>
<polygon class="st269" points="643.07,1170.24 647.65,1170.87 757.96,1038.49 759.73,1026.24 "/>
<path class="st11" d="M596.14,1600.38c-12.89-24.23-1.61-34.97-3.03-41.35c0,0-19.98,16.09-13.82,32.51l-10.58-17.26
	c0,0,5-21.69-9.82-37.45c0,0,4.73,48.99-3.97,50.89c0,0,0.68-17.84-8.05-22.36c0,0-1.5,25.87-1.24,32.61
	C546.59,1622.84,602.22,1611.85,596.14,1600.38z"/>
<path class="st11" d="M814.82,1635.36c0,0-4.66-42.68-14.38-47.8c0,0,0.86,34.86-5.35,38.88c-6.21,4.03-16.91-29.97-16.91-29.97
	s-9.03,25.02,0.23,35.49S814.82,1635.36,814.82,1635.36z"/>
<path class="st11" d="M805.41,1631.13c0,0,16.14-15.78,21.17-26.58c0,0,0.08,21.87-9.5,30.76
	C807.5,1644.21,805.41,1631.13,805.41,1631.13z"/>
<path class="st11" d="M900.67,1653.04c0,0-11.52-27.6-12.06-43.36c0,0-11.41,26.63-4.34,42.43
	C891.35,1667.91,900.67,1653.04,900.67,1653.04z"/>
<path class="st11" d="M905.29,1654.48c0,0-1.11-23.21,2.6-35.52c0,0-15.13,18.87-14.15,32.23
	C894.72,1664.56,905.29,1654.48,905.29,1654.48z"/>
<path class="st23" d="M1606.36,1448.24c-46.25-34.57-69.38,16.65-69.38,16.65s7.8-52.56-75.78-51.11
	c-39.04,0.66-51.91,30.06-56.13,50.94c-8.73-12.24-23.25-21.85-47-23.93c-55.51-4.89-45.5,75.36-45.5,75.36
	c-12.02,2.63-23.07,4.17-31.39,5.08c-1.08-14.52-8.17-30.65-32.62-35.8c-34.72-7.33-42.46,33.15-42.46,33.15
	c-16.51,1.57-21.99,11.43-21.99,11.43c-6.88,9.69-4.82,18.79-0.28,26.03c6.16,9.78,22.85,26.15,51.32,22.16l47.82-3.15
	c15.11,11.49,39.43,21.49,71.69,12.91h0c52.83,6.22,106.36-1.52,155.26-22.46l18.92-8.1c20.34-3.22,39.64-11.28,56.34-23.37
	C1604.18,1520.15,1634.94,1469.6,1606.36,1448.24z"/>
<g>
	<defs>
		<path id="SVGID_00000081629277628618024790000013900390921965956506_" d="M1444.54,1507.07c4.24-10.96,4.63-23.77-7.18-35.03
			c0,0-9.97-11.86-32.64-9.66c0,0-19.22-53.61-64.11-34.64c-61.83,26.11-28.05,88.41-28.05,88.41s-24.86-38.21-54.06-2.11
			c-15.98,19.72,6.11,44.63,28.36,43.39c16.19,3.45,32.98,3.08,48.96-1.16l74.93-19.42
			C1426.1,1532.85,1438.79,1521.88,1444.54,1507.07z"/>
	</defs>
	<clipPath id="SVGID_00000183943624673179069660000001940882283606961280_">
		<use xlink:href="#SVGID_00000081629277628618024790000013900390921965956506_"  style="overflow:visible;"/>
	</clipPath>
	<g style="clip-path:url(#SVGID_00000183943624673179069660000001940882283606961280_);">
		<path class="st76" d="M1299.45,1559.38c0,0-23.88-12.95-18.62-27.57c4.85-13.42,18.62-9.28,30.67-3.77
			c6.82,3.11,15.99-2.02,14.56-9.39c-5.99-31.19,23.14-68.89,77.16-41.19c9.74,4.99,9.61,0,5.63-5
			c-14.37-18.07,20.58-62.05-22.1-57.22c-63.61,7.22-117.08,36.31-117.11,38.19s-32.67,74.93-32.67,74.93l26.19,53.18
			L1299.45,1559.38z"/>
	</g>
</g>
</svg>
