<svg id="Capa_1" enable-background="new 0 0 512 512" height="512" viewBox="0 0 512 512" width="512" xmlns="http://www.w3.org/2000/svg"><g><g><g><path d="m159.608 251.654-33.972 185.39-65.123 48.974c-7.836 5.893-3.668 18.368 6.136 18.368h398.251c9.809 0 13.973-12.486 6.128-18.374l-28.8-21.616c-.847-.636-1.789-1.136-2.79-1.482l-95.827-33.098-10.715-35.931c-.59-1.979-1.768-3.733-3.378-5.027l-33.39-26.858-1.159-83.118c-.481-34.464-26.283-63.305-60.482-67.604l-10.892-1.369-19.699-34.114 154.101-56.488c9.025-3.308 15.258-11.617 15.909-21.207l2.938-43.267c.4-5.885-4.266-10.879-10.165-10.879h-13.868c-5.462 0-9.952 4.307-10.18 9.764l-1.547 37.118-50.924 18.038-35.48-102.03c-1.737-4.996-7.009-7.832-12.135-6.528l-13.14 3.342c-5.573 1.417-8.869 7.163-7.281 12.689l29.484 102.575-82.462 30.99c-1.589.597-3.004 1.582-4.116 2.865l-33.7 38.892-56.93-22.37-11.94-48.576c-1.233-5.014-6.022-8.314-11.146-7.679l-12.111 1.5c-5.803.718-9.812 6.163-8.775 11.918l9.96 55.293c1.368 7.595 6.256 14.091 13.175 17.51z" fill="#873f30"/><path d="m203.898 175.793 19.695 34.122 10.892 1.365c34.203 4.3 60.001 33.133 60.49 67.602l1.15 83.118 33.398 26.857c1.6 1.294 2.781 3.046 3.372 5.033l10.718 35.925 95.824 33.103c.998.346 1.946.846 2.792 1.477l28.798 21.617c7.845 5.888 3.68 18.374-6.129 18.374l-53.276-39.99c-.846-.632-1.793-1.131-2.792-1.477l-91.343-31.555c-2.813-.972-4.986-3.239-5.837-6.091l-9.363-31.382c-.591-1.987-1.773-3.739-3.383-5.033l-30.002-24.133c-2.145-1.725-3.409-4.318-3.447-7.07l-1.101-78.773c-.479-34.468-26.276-63.302-60.48-67.602l-10.892-1.365-7.416-12.848z" fill="#6c3328"/><path d="m97.787 388.22c-.111 0-.221-.002-.332-.007-4.2-.18-7.458-3.731-7.278-7.932.945-22.005 11.343-41.147 30.07-55.359 13.829-10.495 27.373-14.607 27.942-14.778 4.029-1.203 8.268 1.089 9.47 5.119 1.2 4.023-1.084 8.257-5.103 9.465-1.866.566-45.367 14.247-47.17 56.207-.176 4.088-3.546 7.285-7.599 7.285z" fill="#54231d"/><path d="m176.796 466.767v-58.551c0-2.496.56-4.962 1.63-7.214l25.512-53.653v-61.713c0-6.174-3.383-11.85-8.813-14.784l-35.518-19.195-33.968 185.383-65.125 48.979c-7.835 5.893-3.668 18.368 6.136 18.368h72.74c12.472-12.537 24.929-25.088 37.406-37.62z" fill="#6c3328"/><path d="m203.938 285.636v61.713l-25.512 53.653c-1.07 2.252-1.63 4.717-1.63 7.214v58.554c-12.481 12.532-24.932 25.084-37.402 37.616h-23.118c12.471-12.532 24.932-25.084 37.413-37.616v-58.554c0-2.496.56-4.962 1.63-7.214l25.512-53.653v-52.543c0-6.174-3.383-11.85-8.813-14.784l-16.017-8.66 3.607-19.705 35.518 19.195c5.43 2.935 8.812 8.61 8.812 14.784z" fill="#54231d"/><g fill="#6c3328"><path d="m246.356 305.775c-4.204 0-7.611-3.407-7.611-7.611v-26.239c0-4.204 3.408-7.611 7.611-7.611 4.204 0 7.611 3.407 7.611 7.611v26.239c.001 4.204-3.407 7.611-7.611 7.611z"/><path d="m359.941 461.493-7.599-26.538h-15.834l8.799 30.728c.956 3.342 4.003 5.518 7.313 5.518.694 0 1.399-.096 2.099-.296 4.042-1.156 6.38-5.371 5.222-9.412z"/><path d="m270.742 396.663h-20.514c-4.204 0-7.611-3.407-7.611-7.611s3.408-7.611 7.611-7.611h20.514c4.204 0 7.611 3.407 7.611 7.611.001 4.204-3.407 7.611-7.611 7.611z"/><path d="m326 427.546h-66.588c-4.204 0-7.611-3.407-7.611-7.611s3.407-7.611 7.611-7.611h66.588c4.204 0 7.611 3.407 7.611 7.611s-3.407 7.611-7.611 7.611z"/></g><path d="m139.611 360.794-2.821 15.385c-8.992 1.411-42.878 8.342-57.725 33.805-21.748 37.276 5.775 90.313 6.059 90.85 1.969 3.714.538 8.322-3.177 10.28-1.137.599-2.344.883-3.542.883-2.74 0-5.379-1.471-6.739-4.059-.325-.619-8.028-15.325-12.686-35.439-6.323-27.3-3.928-51.565 6.931-70.188 21.058-36.098 69.508-41.386 71.558-41.599.731-.081 1.452-.04 2.142.082z" fill="#873f30"/><path d="m185.036 387.089-6.607 13.914c-.01.03-.03.061-.041.091-3.217-.507-10.281-1.441-18.816-1.441-15.142 0-34.911 2.943-46.105 16.4-13.579 16.319-12.239 45.091 3.988 85.502 1.573 3.897-.325 8.332-4.222 9.895-.934.376-1.898.548-2.842.548-3.014 0-5.866-1.806-7.063-4.78-18.481-46.024-18.998-79.992-1.532-100.948 25.625-30.73 79.23-20.226 81.493-19.77.62.132 1.209.325 1.747.589z" fill="#934a3e"/><path d="m450.799 437.626c-15.928-10.361-33.919-14.017-42.191-15.419v15.491c29.785 5.79 61.947 22.084 57.49 65.918-.425 4.182 2.62 7.918 6.803 8.343.262.026.521.04.779.04 3.857 0 7.164-2.923 7.564-6.842 2.976-29.287-7.551-52.638-30.445-67.531z" fill="#6c3328"/><path d="m370.541 512c-.795 0-1.605-.126-2.4-.39-3.989-1.325-6.149-5.633-4.824-9.622 20.298-61.112-4.182-108.907-4.432-109.383-1.95-3.716-.529-8.317 3.183-10.276 3.712-1.958 8.304-.551 10.272 3.158 1.149 2.164 27.855 53.769 5.423 121.301-1.06 3.191-4.031 5.212-7.222 5.212z" fill="#6c3328"/><path d="m425.639 506.386c-.924 3.39-3.988 5.612-7.337 5.612-.66 0-1.34-.081-2.01-.264-4.049-1.106-6.444-5.287-5.338-9.347.041-.173 4.993-19.029 1.279-41.569-4.851-29.451-21.647-51.291-49.921-64.911-31.075-14.959-52.803-31.856-66.433-51.626l-.589-42.381c3.034 23.23 17.222 53.128 73.628 80.296 41.366 19.922 54.61 52.732 58.436 76.754 4.08 25.677-1.471 46.563-1.715 47.436z" fill="#934a3e"/></g><path d="m293.819 187.668c-3.278 1.482-6.637 2.222-10.078 2.222-11.914 0-24.742-8.91-38.281-26.62-.538-.7-.934-1.471-1.187-2.273l14.553-5.338c11.529 14.614 21.941 21.201 28.71 18.136 13.183-5.967 21.18-44.826 15.284-74.247-.822-4.12 1.847-8.129 5.967-8.961 4.13-.832 8.129 1.847 8.961 5.968 6.162 30.729.032 80.254-23.929 91.113z" fill="#a55e55"/><path d="m249.95 168.83c1.984-.912 3.968-1.824 5.964-2.708 2.874-1.272 5.755-2.529 8.647-3.764-1.872-2.001-3.786-4.229-5.734-6.699l-14.553 5.338c.254.802.65 1.573 1.187 2.273 1.506 1.971 3.001 3.81 4.489 5.56z" fill="#934a3e"/><path d="m137.885 184.106-6.556 7.561-8.119-3.187c-1.086-6.038-3.643-14.583-7.825-17.527-1.005-.71-2.395-1.34-5.044-.649-5.115 1.33-2.578 25.646-.903 41.741 3.187 30.71 7.571 72.776-7.733 107.697-1.248 2.862-4.039 4.557-6.972 4.557-1.025 0-2.06-.203-3.055-.639-3.846-1.685-5.602-6.18-3.917-10.027 13.69-31.237 9.722-69.376 6.536-100.015-1.441-13.833-2.689-25.788-2.091-35.175.832-12.93 5.643-20.622 14.299-22.875 6.465-1.674 12.574-.65 17.679 2.963 8.475 5.988 12.159 17.903 13.701 25.575z" fill="#a55e55"/></g><path d="m185.036 387.089-6.607 13.914c-.01.03-.03.061-.041.091-3.217-.507-10.281-1.441-18.816-1.441-1.187 0-2.405.02-3.643.061l7.256-15.253c11.153.284 19.252 1.867 20.104 2.04.62.131 1.209.324 1.747.588z" fill="#873f30"/></g></svg>