<svg id="Layer_1" enable-background="new 0 0 511.33 511.33" height="512" viewBox="0 0 511.33 511.33" width="512" xmlns="http://www.w3.org/2000/svg"><g fill="#c69a85"><path d="m511.33 509.68h-511.33v-360.345l149.718-68.804 105.947 62.219 186.288 13.826z"/><path d="m149.718 80.531-14.89 205.269-134.828-136.465z"/><path d="m0 509.68 133.764-134.009 1.064-89.871-134.828-136.465z"/></g><path d="m289.045 509.68h-289.045l133.764-134.009 76.577 24.912c8.717 12.082 70.717 98.026 78.704 109.097z" fill="#9f7766"/><path d="m459.461 509.68h-161.471l2.959-27.513c7.286-67.735-2.825-122.39-2.325-119.104-5.04-33.094 20.576-62.906 54.052-62.906 25.039 0 46.529 16.931 52.824 40.557 4.289 16.095-1.832-3.577 53.961 168.966z" fill="#825e51"/><path d="m283.974 144.851 44.924-85.059 66.749-49.988 115.683-8.154v508.03l-69.377-353.104z" fill="#c69a85"/><path d="m47.259 197.167-47.259-47.832v352.426l48.924-71.693s-30.843-67.159-17.017-144.268c6.619-36.913 11.774-67.142 15.352-88.633z" fill="#9f7766"/><path d="m115.867 353.336s5.893 12.229 13.947 26.292l3.95-3.957 1.064-89.871-42.869-43.39z" fill="#dfb7a4"/><path d="m113.393 264.105c.996 1.005-38.352-86.738-61.636-138.555l-51.757 23.785z" fill="#9f7766"/><path d="m120.183 129.61c8.066 21.791 15.128 43.853 21.528 61.299l8.007-110.378-39.551 18.176c2.223 8.369 5.435 18.528 10.016 30.903z" fill="#dfb7a4"/><path d="m194.633 425.659c1.967-2.53 8.244-11.97 16.119-24.507-.617-.855 5.455 1.339-76.988-25.481l-133.764 134.009h28.152c34.149-21.553 75.014-48.924 75.014-48.924s84.022-25.525 91.467-35.097z" fill="#dfb7a4"/><path d="m441.953 156.576-184.656-13.705c17.768 27.523 31.749 48.965 31.749 48.965l-73.203 46.635 113.055-1.064z" fill="#dfb7a4"/><path d="m197.823 160.723c6.214-19.211 12.978-32.009 19.611-40.425l-67.716-39.767s-15.84 285.541-15.954 295.14 39.597-139.327 64.059-214.948z" fill="#9f7766"/><path d="m494.558 118.984-53.343 6.565-121.871-47.668c-36.966 69.994-35.282 66.708-35.282 66.977l157.89 11.719 69.378 353.103v-309.342z" fill="#9f7766"/><path d="m358.824 37.38c49.654.64 104.72-1.158 152.507-15.711v-20.019l-115.684 8.154z" fill="#e0c8bf"/></svg>