<svg id="Capa_1" enable-background="new 0 0 512 512" height="512" viewBox="0 0 512 512" width="512" xmlns="http://www.w3.org/2000/svg"><g><g><path d="m242.352 30.148c15.183-15.529 36.802-32.178 60.905-29.946 38.893 3.603 49.809 53.175 86.352 55.168 38.671 2.109 63.824-51.367 71.842-46.238 9.313 5.957-8.421 88.465-61.645 109.247-47.476 18.538-118.082-14.033-157.454-88.231z" fill="#ff8087"/><g><path d="m461.451 9.132c-4.689-3-15.243 14.047-30.932 28.295-6.888 27.7-26.493 67.416-61.159 80.952-4.313 1.684-8.82 2.941-13.474 3.788 15.652 2.57 30.685 1.379 43.92-3.788 53.225-20.781 70.958-103.29 61.645-109.247z" fill="#e6646e"/></g><g><path d="m425.365 501.851v-93.534c0-25.414-16.224-47.991-40.311-56.096l-85.654-28.82c-8.029-2.702-13.437-10.227-13.437-18.699v-32.126h-87.793v32.126c0 8.471-5.408 15.997-13.437 18.699l-85.654 28.821c-24.087 8.105-40.311 30.682-40.311 56.096v93.534c0 5.605 4.544 10.149 10.149 10.149h346.299c5.605-.001 10.149-4.545 10.149-10.15z" fill="#7a6d79"/><path d="m394.919 393.094v108.757c0 5.605-4.544 10.149-10.149 10.149h30.446c5.605 0 10.149-4.544 10.149-10.149v-108.757z" fill="#685e68"/><g><path d="m372.084 504.388c0 4.204-3.408 7.612-7.612 7.612s-7.611-3.407-7.611-7.612v-99.257c0-4.204 3.408-7.611 7.611-7.611 4.204 0 7.612 3.407 7.612 7.611" fill="#595159"/></g><g><path d="m119.66 512c-4.204 0-7.611-3.407-7.611-7.612v-99.312c0-4.204 3.408-7.612 7.611-7.612s7.611 3.407 7.611 7.612v99.312c.001 4.205-3.407 7.612-7.611 7.612z" fill="#595159"/></g><g><path d="m240.363 512c-4.204 0-7.611-3.407-7.611-7.612v-123.729c0-4.204 3.408-7.611 7.611-7.611 4.204 0 7.611 3.407 7.611 7.611v123.729c0 4.205-3.407 7.612-7.611 7.612z" fill="#595159"/></g><path d="m339.697 329.195-93.551 64.878c-3.478 2.412-8.089 2.412-11.567 0l-93.551-64.878 99.335-99.335z" fill="#918291"/><path d="m321.719 341.663 17.978-12.468-99.334-99.334-15.223 15.222z" fill="#7a6d79"/><path d="m425.24 404.902-79.982.231c-5.257.015-9.752-3.777-10.622-8.962l-10.041-59.837c-1.254-7.476 5.423-13.863 12.836-12.279l50.553 10.807c27.974 5.98 47.964 30.695 47.964 59.301 0 5.919-4.789 10.722-10.708 10.739z" fill="#685e68"/><path d="m387.984 334.862-50.553-10.807c-4.401-.941-8.527.939-10.904 4.177l31.011 6.629c27.974 5.98 47.964 30.695 47.964 59.301 0 5.919-4.789 10.722-10.708 10.739l-50.834.146c.427.051.859.085 1.298.084l79.982-.23c5.919-.017 10.708-4.82 10.708-10.739 0-28.605-19.99-53.32-47.964-59.3z" fill="#595159"/><g><circle cx="333.773" cy="398.95" fill="#918291" r="15.73"/></g><g><path d="m58.893 404.902 79.982.231c5.257.015 9.752-3.777 10.622-8.962l10.041-59.837c1.254-7.476-5.423-13.863-12.836-12.279l-50.553 10.807c-27.974 5.98-47.964 30.695-47.964 59.301 0 5.919 4.789 10.722 10.708 10.739z" fill="#685e68"/><path d="m146.702 324.056-19.542 4.177c1.627 2.217 2.441 5.063 1.932 8.101l-10.042 59.836c-.797 4.751-4.641 8.324-9.324 8.878l29.148.084c5.257.015 9.752-3.778 10.622-8.962l10.041-59.836c1.255-7.476-5.422-13.863-12.835-12.278z" fill="#595159"/><g><circle cx="150.36" cy="398.95" fill="#918291" r="15.73"/></g></g><circle cx="242.067" cy="48.046" fill="#918291" r="23.797"/><path d="m242.067 24.249c-4.336 0-8.397 1.166-11.898 3.192 7.111 4.115 11.898 11.799 11.898 20.606s-4.788 16.49-11.898 20.605c3.501 2.026 7.562 3.192 11.898 3.192 13.143 0 23.797-10.654 23.797-23.797s-10.655-23.798-23.797-23.798z" fill="#7a6d79"/><path d="m242.067 54.487c-53.92 0-97.631 43.711-97.631 97.631v24.153h195.262v-24.153c-.001-53.921-43.711-97.631-97.631-97.631z" fill="#685e68"/><path d="m242.067 54.487c-5.179 0-10.262.407-15.223 1.184 46.689 7.31 82.408 47.706 82.408 96.447v24.153h30.446v-24.153c-.001-53.921-43.711-97.631-97.631-97.631z" fill="#595159"/><path d="m242.066 144.091c4.204 0 7.611-3.407 7.611-7.612v-81.7c-2.511-.194-5.049-.293-7.61-.293-2.562 0-5.1.1-7.612.294v81.699c-.001 4.205 3.407 7.612 7.611 7.612z" fill="#595159"/><path d="m336.353 272.201-88.915 55.456c-3.287 2.05-7.454 2.05-10.741 0l-88.915-55.456c-2.08-1.298-3.345-3.576-3.345-6.028v-66.997h195.262v66.997c-.002 2.452-1.266 4.731-3.346 6.028z" fill="#685e68"/><path d="m309.251 199.176v55.006c0 2.452-1.264 4.73-3.345 6.028l-88.676 55.307 19.465 12.141c3.287 2.05 7.454 2.05 10.741 0l88.915-55.456c2.08-1.297 3.345-3.576 3.345-6.028v-66.997h-30.445z" fill="#595159"/><g><path d="m339.697 217.65-95.516 28.171c-1.377.406-2.853.406-4.23 0l-95.516-28.171v-52.695l95.516-28.171c1.377-.406 2.853-.406 4.23 0l95.516 28.171z" fill="#4e8db7"/><path d="m339.697 217.65-95.516 28.171c-1.377.406-2.853.406-4.23 0l-95.516-28.171v-52.695l95.516-28.171c1.377-.406 2.853-.406 4.23 0l95.516 28.171z" fill="#918291"/><g><g><path d="m242.067 219.517c-4.204 0-7.611-3.407-7.611-7.611v-35.824c0-4.204 3.408-7.611 7.611-7.611 4.204 0 7.611 3.407 7.611 7.611v35.824c0 4.204-3.408 7.611-7.611 7.611z" fill="#685e68"/></g><g><path d="m272.513 213.093c-4.204 0-7.611-3.407-7.611-7.611v-23.442c0-4.204 3.408-7.611 7.611-7.611 4.204 0 7.612 3.407 7.612 7.611v23.442c-.001 4.204-3.409 7.611-7.612 7.611z" fill="#685e68"/></g><g><path d="m302.959 206.924c-4.204 0-7.612-3.407-7.612-7.611v-16.286c0-4.204 3.408-7.611 7.612-7.611s7.611 3.407 7.611 7.611v16.286c0 4.203-3.408 7.611-7.611 7.611z" fill="#685e68"/></g><g><path d="m211.621 213.093c-4.204 0-7.611-3.407-7.611-7.611v-23.442c0-4.204 3.408-7.611 7.611-7.611 4.204 0 7.611 3.407 7.611 7.611v23.442c0 4.204-3.408 7.611-7.611 7.611z" fill="#685e68"/></g><g><path d="m181.175 206.924c-4.204 0-7.611-3.407-7.611-7.611v-16.286c0-4.204 3.408-7.611 7.611-7.611 4.204 0 7.611 3.407 7.611 7.611v16.286c0 4.203-3.408 7.611-7.611 7.611z" fill="#685e68"/></g></g></g></g></g><path d="m309.251 155.975v70.654l30.446-8.979v-52.695z" fill="#7a6d79"/></g></svg>