<svg version="1.2" baseProfile="tiny-ps" xmlns="http://www.w3.org/2000/svg" viewBox="0 0 512 512" width="512" height="512">
	<title>1_deedree-svg</title>
	<style>
		tspan { white-space:pre }
		.s0 { fill: #314dc9 } 
		.s1 { fill: #252d99 } 
		.s2 { fill: #87b9fb } 
		.s3 { fill: #87b9fa } 
		.s4 { fill: #ffffff } 
		.s5 { fill: #fea613 } 
		.s6 { fill: #fac600 } 
		.s7 { fill: #fff364 } 
		.s8 { fill: #e2772c } 
		.s9 { fill: #6c7fd8 } 
		.s10 { fill: #8896de } 
		.s11 { opacity: .3;fill: #feb233 } 
		.s12 { fill: #cadded } 
		.s13 { fill: #fda616 } 
		.s14 { fill: #e27a31 } 
		.s15 { fill: #fdb233 } 
		.s16 { fill: #f9c502 } 
		.s17 { fill: #8795de } 
	</style>
	<g id="Ellipse_1_xA0_Изображение_1_">
		<path id="Layer" class="s0" d="m256 510.69c-139.76 0-252.74-112.97-252.74-252.74c0-139.76 112.97-252.74 252.74-252.74c139.76 0 252.74 112.97 252.74 252.74c0 139.76-112.97 252.74-252.74 252.74z" />
	</g>
	<g id="Vector_Smart_Object_xA0_Изображение_1_">
		<path id="Layer" fill-rule="evenodd" class="s1" d="m211.33 340.22c-2.59 0.77-4.66 1.24-6.72 1.94c-10.9 4.48-21.33 2.71-31.58-2.12c-5.6-2.65-11.2-5.42-14.61-11.02c-1.36-2.24-2.83-4.54-3.65-7.01c-1.18-3.36-3.48-5.72-6.13-7.72c-1.41-1.06-3.65-1.41-5.54-1.53c-11.02-0.65-20.51-5.13-29.7-10.72c-9.43-5.77-15.5-14.14-19.62-24.1c-1.83-4.42-3.65-8.96-4.71-13.67c-0.82-3.59-0.47-7.48-0.65-11.25c0-0.71 0.06-1.3 0-1.94c-0.71-6.36 1.71-12.26 4.01-17.85c3.3-8.01 7.48-15.67 14.26-21.39c3.36-2.89 7.13-5.3 10.9-7.66c3.48-2.18 7.13-3.95 9.78-7.25c0.41-0.53 1.06-2.06 1.18-2.59c0.88-3.65 0.94-6.6-0.71-10.25c-2.83-6.42-5.36-12.96-4.95-20.09c0.77-12.37 5.19-23.51 12.85-33.23c5.6-7.07 13.2-11.43 21.51-14.32c5.3-1.89 10.96-3.3 16.56-3.83c3.95-0.35 8.13 1.06 12.14 1.77c1.18 0.18 2.36 0.53 3.36 1.06c4.54 2.42 9.43 2.36 14.38 2.12c1.06-0.06 2.24-0.59 3.06-1.24c2.83-2.24 4.6-5.13 5.95-8.54c1.59-4.07 3.77-7.96 5.95-11.79c3.54-6.13 9.02-10.25 15.03-13.73c7.48-4.36 15.56-7.13 24.1-8.19c5.07-0.65 9.9 0.94 14.73 2.18c8.84 2.24 16.62 6.66 23.16 12.9c5.83 5.54 9.84 12.49 12.2 20.21c1.06 3.48 3.77 5.36 5.95 7.78c0.18 0.18 0.53 0.41 0.77 0.41c3.89-0.18 8.07 0.41 11.61-0.77c5.77-1.94 11.55-3.89 17.68-4.36c2.59-0.18 5.3 0.18 7.9 0.65c11.37 2.12 21.51 7.13 29.93 14.97c6.25 5.83 10.02 13.55 12.37 21.8c1.24 4.3 2.3 8.78 2.71 13.2c0.29 3.12-0.47 6.42-1.12 9.55c-0.53 2.65-1.18 5.48-2.47 7.84c-2.53 4.66-2.12 8.49-2.18 13.32c0 0.77 0.88 2.71 1.41 3.3c2.53 2.89 5.54 5.19 8.96 7.01c5.3 2.83 10.31 6.13 14.32 10.72c7.78 8.84 12.55 19.15 14.91 30.58c0.77 3.59 1.36 7.42 1.06 11.02c-0.71 9.19-3.65 17.68-7.96 25.87c-8.54 16.38-22.57 25.04-40.01 29.17c-2.77 0.65-5.6 1-8.37 1.65c-3.89 0.88-9.31 6.42-10.72 10.14c-2.18 5.77-5.95 10.31-11.25 13.55c-4.01 2.47-8.19 4.42-12.9 5.54c-3.59 0.88-7.07 2.42-10.84 2.06c-2.36-0.24-4.71-0.41-6.95-1.18c-2.24-0.77-2.59 0.47-2.77 2c-0.29 2.3-0.41 4.66-0.59 7.01c-0.94 9.96-3.95 19.33-7.9 28.46c-4.83 11.14-12.96 18.62-25.04 21.04c-3.3 0.65-6.84 0.47-10.19 0.12c-3.48-0.35-5.48 0.77-5.95 4.18c-1.18 8.72-0.35 17.44 0.82 26.05c0.53 3.89 1.3 7.72 2.18 11.55c0.53 2.18 1.47 4.24 2.47 6.25c1.65 3.24 0.53 6.25-3.01 7.37c-0.82 0.24-1.77 0.47-2.59 0.35c-5.89-0.77-11.84-1.47-17.68-2.53c-1.12-0.18-2.3-1.47-3.01-2.53c-3.3-5.19-4.24-11.08-4.6-17.09c-0.47-7.78 1.06-15.38 2.65-22.98c0.53-2.65 1.06-5.36 1.3-8.07c0.12-1.47-0.12-3.18-0.71-4.54c-2-4.36-3.89-8.9-8.72-11.08c-1.59-0.71-3.3-1.3-4.95-1.77c-2.06-0.65-4.12-1.3-6.25-1.59c-7.07-1-10.19-5.83-12.32-11.9c-3.06-8.66-5.07-17.5-4.66-26.75c0.24-1.94 0.18-4.01 0.18-6.48zm13.32 3.77c0.12 1.36-0.24 3.24-0.29 5.01c-0.18 7.48 2.59 13.97 6.78 19.98c1.47 2.12 3.36 3.3 5.95 3.89c7.66 1.71 15.03 4.18 19.86 10.96c1.3 1.83 3.06 2.71 5.13 3.01c4.83 0.77 9.66 1.94 14.5 2.12c7.01 0.29 13.55-1.24 18.8-6.6c3.65-3.77 6.13-8.13 7.9-12.96c1.94-5.19 2.59-10.55 1.94-16.15c-0.47-3.89-0.12-7.84-0.18-11.79c-0.06-2.53-0.82-4.42-3.54-5.36c-6.95-2.42-13.73-5.3-20.74-7.48c-9.43-3.01-19.15-3.59-29.05-2.53c-9.13 1-17.62 3.77-25.69 7.9c-0.65 0.35-1.47 1.12-1.59 1.77c-0.29 2.71 0.41 5.19 0.24 8.25z" />
		<path id="Layer" fill-rule="evenodd" class="s2" d="m273.03 66.15c9.43 1.83 17.62 6.07 25.04 12.08c6.78 5.48 12.2 12.08 16.15 19.8c1.36 2.59 2.24 5.42 3.3 8.13c1 2.59 1.65 2.95 4.12 1.77c5.95-2.83 12.26-4.12 18.86-4.77c15.97-1.53 29.88 3.48 42.31 12.9c11.96 9.02 19.09 21.21 21.86 35.95c0.71 3.83 1.53 7.66 1.59 11.55c0.12 7.66-1.47 15.09-4.54 22.16c-0.41 1-0.88 1.94-1.12 3.01c-0.41 1.83-0.29 3.24 1.89 4.24c6.84 3.36 13.14 7.72 18.56 13.14c6.48 6.48 11.61 13.97 14.85 22.63c1.36 3.65 2.77 7.37 3.42 11.14c1.47 8.37 2.12 16.74 0.71 25.28c-1.94 11.79-6.84 22.16-14.02 31.47c-9.49 12.26-22.1 19.92-37.12 23.51c-2.95 0.71-5.89 1.18-8.9 1.77c-3.18 0.65-5.13 2.18-6.36 5.54c-1.18 3.18-3.42 6.13-5.6 8.84c-6.01 7.54-13.91 12.26-23.04 15.32c-4.77 1.59-9.43 3.24-14.55 2.71c-1.3-0.12-2.18 0.12-2.42 1.77c-0.65 4.71-1.77 9.43-2.24 14.2c-1 9.43-4.77 17.8-10.08 25.4c-3.01 4.3-6.78 8.13-10.72 11.67c-3.95 3.54-6.89 4.83-12.2 5.13c-3.01 0.18-7.01 0.06-11.08-0.29c-2.12-0.88-4.3 1.59-4.42 4.66c-0.29 6.78 0.06 13.49 2.06 20.09c1.3 4.18 2.59 8.37 5.72 11.73c2.77 2.95 2.42 6.84 0.59 9.9c-2.83 4.54-6.31 6.84-11.61 8.13c-0.71 0.18-1.41 0.29-2.12 0.29c-2.65 0.12-6.42 0.12-8.66-0.24c-4.54-0.71-9.02-1.65-13.49-2.53c-4.77-0.94-7.96-3.48-9.37-8.49c-2-6.95-3.77-13.67-3.65-21.04c0.59-5.6 1.65-11.25 2.59-16.79c0.65-3.83 1.36-7.72 1.47-11.61c0.12-3.95-1.59-6.84-5.42-8.9c-3.89-2.06-7.78-3.54-12.14-3.77c-6.54-0.35-10.43-4.48-13.44-9.72c-4.24-7.42-6.42-15.5-7.78-23.87c-0.12-0.59-0.06-1.18-0.18-1.77c-0.24-1.41-0.12-3.71-0.88-4.07c-1.41-0.71-3.42-0.53-5.07-0.24c-6.36 1-12.43-0.24-18.44-1.89c-7.96-2.12-15.2-5.72-21.39-11.14c-4.12-3.59-7.48-8.01-9.49-13.2c-1.47-3.77-3.36-5.66-7.84-6.13c-13.08-1.36-24.63-6.84-34.94-15.09c-12.61-10.08-20.39-23.33-23.45-38.83c-3.42-17.32-0.77-33.94 8.84-49.26c6.42-10.14 14.79-18.03 25.22-23.81c1.18-0.65 2.36-1.36 3.59-2c2.42-1.3 2.59-1.71 1.47-4.12c-2.3-4.77-3.77-9.78-4.77-15.03c-1.36-7.19-1-14.32 0.35-21.45c1.71-9.02 5.54-17.03 10.78-24.45c6.42-9.02 14.97-15.38 24.98-19.68c6.66-2.83 13.61-4.48 20.98-4.95c8.49-0.53 16.5 0.82 24.28 3.89c5.19 2.06 5.24 2.18 7.25-3.01c3.59-9.25 8.84-17.38 16.32-24.04c5.72-5.07 12.32-8.66 19.27-11.49c6.07-2.47 12.49-3.65 19.03-4.07c0.06 0 0.12-0.06 0.18-0.06c2-0.06 5.13 0.24 7.84 0.29m-54.62 275.07c0 2.42 0.06 5.13 0 7.19c-0.41 9.25 1.65 18.09 4.66 26.75c2.12 6.07 5.3 10.9 12.32 11.9c2.12 0.29 4.18 1 6.25 1.59c1.71 0.53 3.36 1.06 4.95 1.77c4.77 2.18 6.66 6.72 8.66 11.08c0.65 1.36 0.82 3.06 0.71 4.54c-0.24 2.71-0.77 5.42-1.3 8.07c-1.59 7.6-3.06 15.2-2.65 22.98c0.35 6.01 1.3 11.9 4.6 17.09c0.71 1.06 1.89 2.36 3.01 2.53c5.83 1 11.79 1.77 17.68 2.53c0.82 0.12 1.77-0.12 2.59-0.35c3.54-1.12 4.66-4.12 3.01-7.37c-1-2-1.94-4.07-2.47-6.25c-0.94-3.77-1.65-7.66-2.18-11.55c-1.18-8.66-2-17.32-0.82-26.05c0.47-3.42 2.47-4.54 5.95-4.18c3.36 0.35 6.89 0.53 10.19-0.12c12.08-2.47 20.15-9.9 24.98-21.04c4.01-9.13 6.95-18.56 7.9-28.46c0.24-2.36 0.29-4.71 0.59-7.01c0.18-1.53 0.53-2.71 2.77-2c2.18 0.77 4.6 0.94 6.95 1.18c3.83 0.35 7.25-1.18 10.84-2.06c4.71-1.12 8.84-3.12 12.85-5.54c5.3-3.24 9.07-7.84 11.2-13.55c1.41-3.71 6.78-9.25 10.72-10.14c2.77-0.65 5.6-1 8.37-1.65c17.44-4.07 31.41-12.73 39.95-29.17c4.24-8.19 7.25-16.74 7.96-25.87c0.29-3.65-0.35-7.42-1.06-11.02c-2.36-11.43-7.13-21.8-14.91-30.58c-4.01-4.54-9.02-7.9-14.32-10.72c-3.42-1.83-6.42-4.12-8.96-7.01c-0.53-0.65-1.89-1.94-1.89-2.71c0-4.83-1.53-8.72 2.12-13.97c1.3-2.36 2.24-5.07 2.77-7.78c0.65-3.12 1.41-6.42 1.12-9.55c-0.41-4.48-1.47-8.9-2.71-13.2c-2.36-8.19-6.13-15.91-12.37-21.8c-8.37-7.84-18.27-12.85-29.64-14.97c-2.59-0.47-5.3-0.82-7.9-0.65c-6.07 0.47-11.84 2.42-17.62 4.36c-3.54 1.18-7.72 0.59-11.61 0.77c-0.24 0-0.59-0.24-0.77-0.41c-2.24-2.42-4.89-4.3-5.95-7.78c-2.42-7.66-6.36-14.67-12.2-20.21c-6.54-6.25-14.32-10.67-23.16-12.9c-4.83-1.24-9.66-2.83-14.73-2.18c-8.54 1.06-16.62 3.83-24.1 8.19c-6.01 3.48-11.49 7.6-15.03 13.73c-2.18 3.83-4.36 7.72-5.95 11.79c-1.3 3.42-3.12 6.31-5.95 8.54c-0.82 0.65-2 1.18-3.06 1.24c-4.89 0.24-9.78 0.29-14.38-2.12c-1-0.53-2.18-0.88-3.36-1.06c-4.07-0.71-8.19-2.12-12.14-1.77c-5.6 0.53-11.2 1.94-16.56 3.83c-8.31 2.95-15.91 7.25-21.51 14.32c-7.66 9.72-12.08 20.86-12.85 33.23c-0.47 7.13 2.06 13.67 4.95 20.09c1.65 3.71 1.06 6.42 1.18 10.19c0 0.53-1.24 2.18-1.71 2.71c-2.65 3.24-6.31 5.07-9.78 7.25c-3.77 2.36-7.54 4.77-10.9 7.66c-6.72 5.72-10.9 13.44-14.2 21.39c-2.3 5.6-4.18 11.43-4.01 17.8c0 0.88 0 1.3 0 2c0.12 3.77-0.18 7.66 0.65 11.25c1.06 4.66 2.83 9.19 4.66 13.67c4.12 9.96 10.19 18.33 19.62 24.1c9.19 5.66 18.68 10.14 29.7 10.72c1.89 0.12 4.12 0.47 5.54 1.53c2.59 2 4.95 4.36 6.13 7.72c0.82 2.47 2.3 4.77 3.65 7.01c3.42 5.6 8.96 8.37 14.55 11.02c10.19 4.83 20.8 5.89 31.64 1.41c2.18-0.88 4.18-1.24 6.78-2z" />
		<path id="Layer" fill-rule="evenodd" class="s3" d="m223.88 339.57c0.06-1.36 0.12-2 0.35-3.83c0.06-0.65 0.88-1.41 1.59-1.77c8.07-4.12 16.56-6.89 25.63-7.9c9.9-1.12 19.56-0.47 29.05 2.53c7.01 2.24 13.79 5.07 20.68 7.48c2.71 0.94 3.48 2.83 3.54 5.36c0.06 3.95-0.24 7.9 0.18 11.79c0.65 5.6-0.06 10.9-1.94 16.15c-1.77 4.83-4.18 9.19-7.9 12.96c-5.24 5.36-11.79 6.95-18.8 6.6c-4.83-0.24-9.66-1.36-14.5-2.12c-2.06-0.35-3.83-1.18-5.13-3.01c-4.83-6.78-12.2-9.25-19.86-10.96c-2.59-0.59-4.48-1.83-5.95-3.89c-4.18-6.01-6.95-12.49-6.78-19.98m71.36 2.53c0-1.06-0.12-2.18 0-3.24c0.29-2.53-0.77-4.07-3.18-4.89c-5.3-1.77-10.43-3.95-15.85-5.42c-7.66-2.12-15.56-3.24-23.51-1.77c-5.19 0.94-10.25 2.36-15.38 3.59c-2.77 0.65-4.07 2.71-3.95 5.36c0.35 5.89 1.24 11.73 4.89 16.62c1.83 2.42 4.01 4.95 7.13 5.42c4.71 0.71 8.43 2.95 11.84 6.01c1.12 1.06 2.3 2.42 3.71 2.77c4.54 1.18 9.13 2.36 13.79 2.59c7.96 0.41 15.32-4.42 18.03-11.9c0-0.06 0.06-0.12 0.06-0.18c1.77-4.83 2.53-9.84 2.42-14.97z" />
	</g>
	<g id="Слой_7">
		<path id="Layer" class="s4" d="m109.15 259.02l-1.24-0.88c-1.71-1.18-2.18-3.59-0.94-5.3l91.28-131.58c1.18-1.71 3.59-2.18 5.3-0.94l1.24 0.88c1.71 1.18 2.18 3.59 0.94 5.3l-91.22 131.58c-1.24 1.71-3.65 2.18-5.36 0.94z" />
		<path id="Layer" class="s4" d="m273.5 96.79l0.47-1.41c0.71-2 2.89-3.06 4.89-2.36l65.17 22.45c2 0.71 3.06 2.89 2.36 4.89l-0.47 1.41c-0.71 2-2.89 3.06-4.89 2.36l-65.17-22.45c-2-0.71-3.06-2.89-2.36-4.89z" />
		<path id="Layer" class="s4" d="m406.38 265.91l-1.53 0.24c-2.06 0.29-4.01-1.18-4.3-3.24l-13.91-99.88c-0.29-2.06 1.18-4.01 3.24-4.3l1.53-0.24c2.06-0.29 4.01 1.18 4.3 3.24l13.91 99.88c0.35 2.06-1.12 4.01-3.24 4.3z" />
		<path id="Layer" class="s4" d="m341.21 302.15l-0.06-1.53c-0.06-2.12 1.65-3.89 3.77-3.89l33.18-0.71c2.12-0.06 3.89 1.65 3.89 3.77l0.06 1.53c0.06 2.12-1.65 3.89-3.77 3.89l-33.18 0.71c-2.06 0-3.83-1.65-3.89-3.77z" />
		<path id="Layer" class="s4" d="m264.07 432.02l-1.36-0.35c-2.06-0.53-3.3-2.59-2.77-4.66l22.92-89.86c0.53-2.06 2.59-3.3 4.66-2.77l1.36 0.35c2.06 0.53 3.3 2.59 2.77 4.66l-22.92 89.86c-0.53 2-2.59 3.24-4.66 2.77z" />
	</g>
	<g id="Слой_8">
		<path id="Layer" class="s5" d="m232.43 126.31c-20.72 0-37.48-16.75-37.48-37.48c0-20.72 16.75-37.48 37.48-37.48c20.72 0 37.48 16.75 37.48 37.48c0 20.72-16.75 37.48-37.48 37.48z" />
		<g id="Layer">
			<path id="Layer" class="s6" d="m232.72 126.43c-20.72 0-37.48-16.75-37.48-37.48c0-20.72 16.75-37.48 37.48-37.48c20.72 0 37.48 16.75 37.48 37.48c0 20.72-16.75 37.48-37.48 37.48z" />
		</g>
		<path id="Layer" class="s7" d="m232.96 108.58c-10.82 0-19.56-8.82-19.56-19.74c0-10.92 8.74-19.74 19.56-19.74c10.82 0 19.56 8.82 19.56 19.74c0 10.92-8.74 19.74-19.56 19.74z" />
		<path id="Layer" class="s5" d="m377.33 156.48c-15.22 0-27.52-12.3-27.52-27.52c0-15.22 12.3-27.52 27.52-27.52c15.22 0 27.52 12.3 27.52 27.52c0 15.22-12.3 27.52-27.52 27.52z" />
		<g id="Layer">
			<path id="Layer" class="s6" d="m377.51 156.54c-15.22 0-27.52-12.3-27.52-27.52c0-15.22 12.3-27.52 27.52-27.52c15.22 0 27.52 12.3 27.52 27.52c0 15.22-12.3 27.52-27.52 27.52z" />
		</g>
		<path id="Layer" class="s8" d="m303.02 334.27c-18.83 0-34.06-15.22-34.06-34.06c0-18.83 15.22-34.06 34.06-34.06c18.83 0 34.06 15.22 34.06 34.06c0 18.83-15.22 34.06-34.06 34.06z" />
		<g id="Layer">
			<path id="Layer" class="s8" d="m303.14 333.56c-18.64 0-33.71-15.07-33.71-33.71c0-18.64 15.07-33.71 33.71-33.71c18.64 0 33.71 15.07 33.71 33.71c0 18.64-15.07 33.71-33.71 33.71z" />
			<path id="Layer" class="s5" d="m303.38 333.68c-18.64 0-33.71-15.07-33.71-33.71c0-18.64 15.07-33.71 33.71-33.71c18.64 0 33.71 15.07 33.71 33.71c0 18.64-15.07 33.71-33.71 33.71z" />
		</g>
		<path id="Layer" class="s4" d="m303.02 313.17c-7.17 0-12.96-5.79-12.96-12.96c0-7.17 5.79-12.96 12.96-12.96c7.17 0 12.96 5.79 12.96 12.96c0 7.17-5.79 12.96-12.96 12.96z" />
		<path id="Layer" class="s8" d="m417.81 319.42c-13.78 0-24.93-11.14-24.93-24.93c0-13.78 11.14-24.93 24.93-24.93c13.78 0 24.93 11.14 24.93 24.93c0 13.78-11.14 24.93-24.93 24.93z" />
		<g id="Layer">
			<path id="Layer" class="s8" d="m417.87 318.89c-13.65 0-24.69-11.04-24.69-24.69c0-13.65 11.04-24.69 24.69-24.69c13.65 0 24.69 11.04 24.69 24.69c0 13.65-11.04 24.69-24.69 24.69z" />
			<path id="Layer" class="s5" d="m418.05 318.94c-13.65 0-24.69-11.04-24.69-24.69c0-13.65 11.04-24.69 24.69-24.69c13.65 0 24.69 11.04 24.69 24.69c0 13.65-11.04 24.69-24.69 24.69z" />
		</g>
		<path id="Layer" class="s5" d="m260.36 474.04c-10.23 0-18.5-8.27-18.5-18.5c0-10.23 8.27-18.5 18.5-18.5c10.23 0 18.5 8.27 18.5 18.5c0 10.23-8.27 18.5-18.5 18.5z" />
		<g id="Layer">
			<path id="Layer" class="s5" d="m260.36 474.04c-10.23 0-18.5-8.27-18.5-18.5c0-10.23 8.27-18.5 18.5-18.5c10.23 0 18.5 8.27 18.5 18.5c0 10.23-8.27 18.5-18.5 18.5z" />
			<path id="Layer" class="s6" d="m260.42 473.63c-10.13 0-18.33-8.19-18.33-18.33c0-10.13 8.19-18.33 18.33-18.33c10.13 0 18.33 8.19 18.33 18.33c0 10.13-8.19 18.33-18.33 18.33z" />
			<path id="Layer" class="s6" d="m260.54 473.69c-10.13 0-18.33-8.19-18.33-18.33c0-10.13 8.19-18.33 18.33-18.33c10.13 0 18.33 8.19 18.33 18.33c0 10.13-8.19 18.33-18.33 18.33z" />
		</g>
	</g>
	<g id="star_background_xA0_Изображение_1_">
		<path id="Layer" class="s9" d="m145.1 443.99c-2.83 1.71-7.42 3.24-9.66 5.6c-5.19 5.36-6.25 7.42-8.72 15.67c-0.41 1.36-1.41 4.36-1.77 5.77c-2.12 8.07-1.77 16.32-1.77 24.63c0 1.89 0.12 3.71 0 5.6c-0.12 2.89-1.89 4.66-4.6 4.66c-2.65 0-4.48-1.77-4.48-4.77c-0.06-6.48 0.24-12.96-0.12-19.45c-0.47-9.13-3.12-17.74-7.66-25.63c-4.48-7.78-11.49-11.37-20.09-13.38c-10.25-2.42-20.57-2.3-30.94-2.36c-1.41 0-2.89-0.29-4.24-0.77c-1.65-0.53-2.36-2-2.36-3.71c0-1.71 0.59-3.12 2.3-3.77c1.18-0.41 2.42-0.77 3.65-0.77c4.54-0.12 9.02-0.12 13.55 0c8.54 0.18 16.5-0.88 24.57-3.24c7.48-3.83 10.84-7.78 14.26-13.38c0.47-0.71 1.06-1.36 1.53-2.06c0.65 1.18 1.24 2.42 1.89 3.59c4.54 9.25 11.08 16.68 19.92 21.98c4.54 2.83 9.13 5.72 14.73 5.77z" />
		<path id="Layer" class="s10" d="m90.42 428.78c3.54-1 5.83-3.18 8.37-5.24c6.13-5.07 8.78-12.32 11.2-19.62c2.83-8.78 2.42-17.8 2.42-26.81c0-1.89-0.12-3.71 0-5.6c0.12-2.89 1.89-4.66 4.6-4.66c2.65 0 4.48 1.77 4.48 4.77c0.06 6.48-0.24 12.96 0.12 19.45c0.47 9.13 3.12 17.74 7.66 25.63c4.48 7.78 11.49 11.37 20.09 13.38c10.25 2.42 20.57 2.3 30.94 2.36c1.41 0 2.89 0.29 4.24 0.77c1.65 0.53 2.36 2 2.36 3.71c0 1.71-0.59 3.12-2.3 3.77c-1.18 0.41-2.42 0.77-3.65 0.77c-4.54 0.12-9.02 0.12-13.55 0c-8.54-0.18-16.74 1.89-24.75 4.24c-6.42 1.89-9.78 6.42-13.2 11.96c-1.06 2.42-1.18 2.83-1.47 3.83c-0.65-1.18-2.18-3.83-2.77-5.07c-4.54-9.25-11.08-16.68-19.92-21.98c-4.6-2.71-9.19-5.54-14.85-5.66z" />
		<path id="Layer" class="s6" d="m166.2 54.42c-0.47-0.71-0.47-1.59 0-2.24c0.47-0.71 1.18-1.41 1.77-2.06c1.65-1.77 3.06-3.06 4.6-4.83c2.3-2.53 4.18-2.53 6.48 0.06c1.47 1.65 3.12 3.06 4.6 4.66c2.36 2.42 2.24 3.77-0.06 6.36c-1.36 1.53-2.83 2.95-4.18 4.48c-2 2.18-4.66 2.89-7.25 0.06c-1.53-1.71-2.77-2.77-4.36-4.48c-0.35-0.47-1.18-1.47-1.59-2z" />
		<path id="Layer" class="s10" d="m418.11 109.93c-0.47-0.71-0.47-1.59 0-2.24c0.47-0.71 1.18-1.41 1.77-2.06c1.65-1.77 3.06-3.06 4.6-4.83c2.3-2.53 4.18-2.53 6.48 0.06c1.47 1.65 3.12 3.06 4.6 4.66c2.36 2.42 2.24 3.77-0.06 6.36c-1.36 1.53-2.83 2.95-4.18 4.48c-2 2.18-4.66 2.89-7.25 0.06c-1.53-1.71-2.77-2.77-4.36-4.48c-0.41-0.47-1.24-1.47-1.59-2z" />
		<path id="Layer" class="s6" d="m233.96 288.66c-0.47-0.71-0.47-1.59 0-2.24c0.47-0.71 1.18-1.41 1.77-2.06c1.65-1.77 3.06-3.06 4.6-4.83c2.3-2.53 4.18-2.53 6.48 0.06c1.47 1.65 3.12 3.06 4.6 4.66c2.36 2.42 2.24 3.77-0.06 6.36c-1.36 1.53-2.83 2.95-4.18 4.48c-2 2.18-4.66 2.89-7.25 0.06c-1.53-1.71-2.77-2.77-4.36-4.48c-0.35-0.47-1.24-1.47-1.59-2z" />
		<path id="Layer" class="s11" d="m395.42 355.24c-0.47-0.71-0.47-1.59 0-2.24c0.47-0.71 1.18-1.41 1.77-2.06c1.65-1.77 3.06-3.06 4.6-4.83c2.3-2.53 4.18-2.53 6.48 0.06c1.47 1.65 3.12 3.06 4.6 4.66c2.36 2.42 2.24 3.77-0.06 6.36c-1.36 1.53-2.83 2.95-4.18 4.48c-2 2.18-4.66 2.89-7.25 0.06c-1.53-1.71-2.77-2.77-4.36-4.48c-0.35-0.41-1.18-1.41-1.59-2z" />
		<path id="Layer" class="s4" d="m395.42 355.24c-0.47-0.71-0.47-1.59 0-2.24c0.47-0.71 1.18-1.41 1.77-2.06c1.65-1.77 3.06-3.06 4.6-4.83c2.3-2.53 4.18-2.53 6.48 0.06c1.47 1.65 3.12 3.06 4.6 4.66c2.36 2.42 2.24 3.77-0.06 6.36c-1.36 1.53-2.83 2.95-4.18 4.48c-2 2.18-4.66 2.89-7.25 0.06c-1.53-1.71-2.77-2.77-4.36-4.48c-0.35-0.41-1.18-1.41-1.59-2z" />
		<path id="Layer" class="s4" d="m170.79 372.74c1 0 1.94 0 2.95 0c0.53 1.12 1.24 2.18 1.65 3.36c1.59 4.42 6.31 8.72 10.61 10.72c1.71 0.82 1.41 0.88 3.12 1.83c0 0.77 0 1.59 0 2.36c-0.94 0.47-1.83 1.12-2.83 1.41c-5.36 1.59-8.72 5.24-10.9 10.19c-0.59 1.3-1.41 2.47-2.18 3.71c-0.77 0-1.59 0-2.36 0c-0.41-0.77-1.41-2.59-1.65-3.42c-2.12-7.13-6.6-10.14-13.67-11.9c0-1 0-1.94 0-2.95c0.94-0.47 2.24-0.82 3.36-1.3c5.13-2.18 8.31-5.77 10.37-10.72c0.53-1.36 0.94-2 1.53-3.3z" />
		<path id="Layer" class="s12" d="m337.38 194.61c-1.83 1.12-4.83 2.12-6.31 3.65c-3.36 3.48-4.07 4.83-5.66 10.25c-0.29 0.88-0.94 2.83-1.18 3.77c-1.41 5.24-1.12 10.67-1.12 16.03c0 1.24 0.06 2.42 0 3.65c-0.06 1.89-1.24 3.06-3.01 3.01c-1.77 0-2.89-1.18-2.95-3.12c-0.06-4.24 0.18-8.43-0.06-12.67c-0.29-5.95-2-11.55-5.01-16.74c-2.95-5.07-7.48-7.42-13.08-8.72c-6.72-1.59-13.44-1.47-20.21-1.53c-0.94 0-1.89-0.18-2.77-0.47c-1.06-0.35-1.53-1.3-1.53-2.42c0-1.12 0.41-2.06 1.47-2.47c0.77-0.29 1.59-0.47 2.42-0.53c2.95-0.06 5.89-0.06 8.84 0c5.6 0.12 10.78-0.53 16.03-2.12c4.89-2.47 7.07-5.07 9.31-8.72c0.29-0.47 0.65-0.88 1-1.36c0.41 0.77 0.82 1.59 1.24 2.36c2.95 6.01 7.19 10.9 12.96 14.32c2.95 1.89 5.95 3.77 9.61 3.83z" />
		<path id="Layer" class="s4" d="m301.73 184.71c2.3-0.65 3.83-2.06 5.48-3.42c4.01-3.3 5.72-8.01 7.31-12.79c1.83-5.72 1.53-11.61 1.53-17.5c0-1.24-0.06-2.42 0-3.65c0.06-1.89 1.24-3.06 3.01-3.01c1.77 0 2.89 1.18 2.95 3.12c0.06 4.24-0.18 8.43 0.06 12.67c0.29 5.95 2 11.55 5.01 16.74c2.95 5.07 7.48 7.42 13.08 8.72c6.72 1.59 13.44 1.47 20.21 1.53c0.94 0 1.89 0.18 2.77 0.47c1.06 0.35 1.53 1.3 1.53 2.42c0 1.12-0.41 2.06-1.47 2.47c-0.77 0.29-1.59 0.47-2.42 0.53c-2.95 0.06-5.89 0.06-8.84 0c-5.6-0.12-10.9 1.24-16.15 2.77c-4.18 1.24-6.36 4.18-8.6 7.84c-0.71 1.59-0.77 1.83-0.94 2.47c-0.41-0.77-1.41-2.47-1.83-3.3c-2.95-6.01-7.19-10.9-12.96-14.32c-3.06-1.89-6.07-3.71-9.72-3.77z" />
		<g id="stars_main_xA0_Изображение_1_">
			<path id="Layer" class="s13" d="m400.43 148.35c0.35-0.24 0.65-0.53 1-0.77c-0.35 0.24-0.71 0.47-1 0.77z" />
			<path id="Layer" class="s14" d="m289.53 270.33c-0.18 0.12-0.41 0.24-0.59 0.41c0.18-0.12 0.41-0.24 0.59-0.41z" />
			<path id="Layer" class="s14" d="m406.79 273.69c-0.24 0.18-0.47 0.35-0.71 0.53c0.24-0.18 0.47-0.35 0.71-0.53z" />
			<path id="Layer" class="s14" d="m436.37 311.52v0v0z" />
			<path id="Layer" class="s13" d="m273.68 465.91c0.24-0.24 0.53-0.41 0.77-0.65c-0.24 0.24-0.47 0.47-0.77 0.65z" />
			<path id="Layer" class="s15" d="m223.53 103.39c0.18 0.41 0.41 0.77 0.59 1.18c-0.18-0.41-0.41-0.77-0.59-1.18z" />
			<path id="Layer" class="s5" d="m91.3 266.09c0.35 0.71 0.41 1.36 0.53 2.06c0.94 6.48 4.12 11.96 8.31 16.74c3.95 4.48 8.9 7.84 14.79 9.49c1.47 0.41 3.01 0.82 4.48 1.24c-2 0.88-3.12 1.53-4.07 2.12c-6.66 3.48-10.78 9.02-13.26 16.03c-0.53 1.47-1.06 2.95-1.59 4.42c-0.71 1.83-2.12 2.47-3.95 2.47c-1.71 0-3.01-0.71-3.71-2.42c-0.41-1.06-0.88-2.18-1.24-3.3c-2.47-8.13-7.42-14.14-15.09-17.85c-2.71-1.3-5.6-2.42-8.37-3.59c-0.47-0.18-0.94-0.29-1.36-0.53c-1.53-0.77-2.95-1.89-2.83-3.77c0.06-1.94 1.24-3.24 3.06-3.95c1.65-0.65 3.3-1.18 4.95-1.83c8.49-3.3 15.67-8.66 19.33-17.32z" />
			<path id="Layer" class="s16" d="m102.38 312.11c-0.35-0.71-0.35-1.36-0.47-2.06c-0.94-6.48-4.12-11.96-8.31-16.74c-3.95-4.48-8.9-7.84-14.79-9.49c-1.47-0.41-3.01-0.82-4.48-1.24c2-0.88 3.12-1.53 4.07-2.12c6.66-3.48 10.78-9.02 13.26-16.03c0.53-1.47 1.06-2.95 1.59-4.42c0.71-1.83 2.12-2.47 3.95-2.47c1.71 0 3.01 0.71 3.71 2.42c0.41 1.06 0.88 2.18 1.24 3.3c2.47 8.13 7.42 14.14 15.09 17.85c2.71 1.3 5.6 2.42 8.37 3.59c0.47 0.18 0.94 0.29 1.36 0.53c1.53 0.77 2.95 1.89 2.83 3.77c-0.06 1.94-1.24 3.24-3.06 3.95c-1.65 0.65-3.3 1.18-4.95 1.83c-8.49 3.3-15.67 8.66-19.39 17.32z" />
			<path id="Layer" class="s9" d="m355 9.82c0.35 0.71 0.41 1.36 0.53 2.06c0.94 6.48 4.12 11.96 8.31 16.74c3.95 4.48 8.9 7.84 14.79 9.49c1.47 0.41 3.01 0.82 4.48 1.24c-2 0.88-3.12 1.53-4.07 2.12c-6.66 3.48-10.78 9.02-13.26 16.03c-0.53 1.47-1.06 2.95-1.59 4.42c-0.71 1.83-2.12 2.47-3.95 2.47c-1.71 0-3.01-0.71-3.71-2.42c-0.41-1.06-0.88-2.18-1.24-3.3c-2.47-8.13-7.42-14.14-15.09-17.85c-2.71-1.3-5.6-2.42-8.37-3.59c-0.47-0.18-0.94-0.29-1.36-0.53c-1.53-0.77-2.95-1.89-2.83-3.77c0.06-1.94 1.24-3.24 3.06-3.95c1.65-0.65 3.3-1.18 4.95-1.83c8.49-3.3 15.67-8.66 19.33-17.32z" />
			<path id="Layer" class="s17" d="m366.07 55.84c-0.35-0.71-0.35-1.36-0.47-2.06c-0.94-6.48-4.12-11.96-8.31-16.74c-3.95-4.48-8.9-7.84-14.79-9.49c-1.47-0.41-3.01-0.82-4.48-1.24c2-0.88 3.12-1.53 4.07-2.12c6.66-3.48 10.78-9.02 13.26-16.03c0.53-1.47 1.06-2.95 1.59-4.42c0.71-1.83 2.12-2.47 3.95-2.47c1.71 0 3.01 0.71 3.71 2.42c0.41 1.06 0.88 2.18 1.24 3.3c2.47 8.13 7.42 14.14 15.09 17.85c2.71 1.3 5.6 2.42 8.37 3.59c0.47 0.18 0.94 0.29 1.36 0.53c1.53 0.77 2.95 1.89 2.83 3.77c-0.06 1.94-1.24 3.24-3.06 3.95c-1.65 0.65-3.3 1.18-4.95 1.83c-8.49 3.36-15.67 8.66-19.39 17.32z" />
		</g>
	</g>
</svg>