<svg id="Layer_1" height="512" viewBox="0 0 256 256" width="512" xmlns="http://www.w3.org/2000/svg"><g><g><g><g><g><circle cx="128" cy="128" fill="#e63950" r="109.357"/></g></g></g><g><path d="m24.64 130c-1.1 0-2-.9-2-2 0-1.101.9-2 2-2s1.99.89 2 1.99v.01c0 1.1-.89 2-2 2zm.31-7.99c-.05 0-.1 0-.16-.01-1.09-.08-1.92-1.04-1.84-2.141 2.03-26.369 13.87-50.859 33.33-68.979 19.57-18.2 45.04-28.23 71.72-28.24 11.17 0 22.16 1.75 32.69 5.19 10.17 3.33 19.77 8.189 28.52 14.46.43.31.72.77.8 1.3.09.53-.03 1.05-.34 1.49-.62.859-1.93 1.08-2.79.46-17.27-12.36-37.63-18.9-58.88-18.9-52.64 0-97.03 41.08-101.06 93.521-.08 1.039-.95 1.849-1.99 1.849z" fill="#e8566f"/></g><g><path d="m200.166 45.834c16.927 19.257 27.191 44.513 27.191 72.166 0 60.396-48.961 109.357-109.357 109.357-27.654 0-52.909-10.265-72.166-27.191 20.042 22.801 49.423 37.191 82.166 37.191 60.396 0 109.357-48.961 109.357-109.357 0-32.743-14.39-62.125-37.191-82.166z" fill="#d10028"/></g><g><path d="m202.787 48.213c18.339 19.557 29.57 45.86 29.57 74.787 0 60.396-48.961 109.357-109.357 109.357-28.926 0-55.229-11.231-74.787-29.57 19.952 21.277 48.317 34.57 79.787 34.57 60.396 0 109.357-48.961 109.357-109.357 0-31.47-13.293-59.835-34.57-79.787z" fill="#b7022d"/></g><g><g><g><g><path d="m128 37.114c-50.114 0-90.885 40.771-90.885 90.885s40.771 90.886 90.885 90.886 90.885-40.771 90.885-90.886c0-50.113-40.771-90.885-90.885-90.885zm-77.421 90.886c0-7.14.992-14.049 2.809-20.618h24.842c-.831 6.608-1.283 13.5-1.283 20.618 0 6.513.371 12.842 1.07 18.934h-25.087c-1.529-6.062-2.351-12.403-2.351-18.934zm39.833 0c0-7.109.504-14.023 1.424-20.618h29.432v39.552h-29.667c-.774-6.083-1.189-12.43-1.189-18.934zm44.32-76.094c11.657 4.552 21.612 20.611 26.867 42.011h-26.867zm-13.464 0v42.011h-26.866c5.255-21.399 15.21-37.459 26.866-42.011zm0 108.493v43.695c-11.96-4.671-22.129-21.456-27.267-43.695zm13.464 43.695v-43.695h27.268c-5.137 22.238-15.307 39.024-27.268 43.695zm0-57.16v-39.552h29.433c.92 6.595 1.424 13.509 1.424 20.618 0 6.504-.415 12.851-1.19 18.934zm43.039-39.552h24.84c1.818 6.569 2.809 13.478 2.809 20.618 0 6.531-.821 12.872-2.351 18.934h-25.086c.699-6.092 1.07-12.421 1.07-18.934.001-7.118-.451-14.009-1.282-20.618zm19.723-13.465h-22.04c-3.134-14.171-8.177-26.496-14.61-36.005 15.92 7.49 28.887 20.241 36.65 36.005zm-102.338-36.005c-6.433 9.51-11.476 21.835-14.61 36.005h-22.04c7.763-15.764 20.731-28.515 36.65-36.005zm-37.445 102.487h22.469c3.099 14.881 8.29 27.804 14.976 37.689-16.481-7.755-29.792-21.152-37.445-37.689zm103.133 37.689c6.687-9.885 11.878-22.808 14.977-37.689h22.468c-7.653 16.537-20.963 29.934-37.445 37.689z" fill="#b7022d"/></g></g></g></g></g><g><g><g><g><g><g><g><g><ellipse cx="77.051" cy="75.914" fill="#f1f2f2" rx="10.031" ry="10.031" transform="matrix(.951 -.309 .309 .951 -19.661 27.472)"/></g><g><path d="m83.39 68.139c-2.375-1.937-5.37-2.605-8.165-2.089 1.601.296 3.152.987 4.503 2.089 4.294 3.501 4.937 9.82 1.437 14.114-1.564 1.919-3.691 3.108-5.948 3.525 3.488.646 7.211-.582 9.611-3.525 3.499-4.294 2.856-10.613-1.438-14.114z" fill="#e6e7e8"/></g><g><ellipse cx="66.722" cy="88.585" fill="#f1f2f2" rx="10.031" ry="10.031" transform="matrix(.995 -.101 .101 .995 -8.628 7.212)"/></g></g><g><g><ellipse cx="189.278" cy="167.415" fill="#f1f2f2" rx="10.031" ry="10.031" transform="matrix(.151 -.989 .989 .151 -4.844 329.188)"/></g><g><path d="m197.204 161.263c.356 2.652-.343 5.439-2.167 7.676-3.501 4.294-9.82 4.937-14.114 1.437-.601-.49-1.131-1.035-1.587-1.623.327 2.438 1.546 4.761 3.603 6.438 4.294 3.501 10.613 2.857 14.114-1.437 3.011-3.693 2.957-8.884.151-12.491z" fill="#e6e7e8"/></g><g><circle cx="178.949" cy="180.086" fill="#f1f2f2" r="10.031"/></g><g><path d="m176.635 182.924c-3.431-2.797-4.528-7.392-3.046-11.317-.892.564-1.711 1.277-2.415 2.14-3.501 4.294-2.857 10.613 1.437 14.114s10.613 2.857 14.114-1.437c.704-.863 1.237-1.809 1.61-2.796-3.547 2.242-8.269 2.093-11.7-.704z" fill="#d1d3d4"/></g><g><path d="m64.408 91.424c-3.431-2.797-4.528-7.392-3.046-11.317-.892.564-1.711 1.277-2.415 2.14-3.501 4.294-2.857 10.613 1.437 14.114s10.613 2.857 14.114-1.437c.704-.863 1.237-1.809 1.61-2.796-3.547 2.241-8.269 2.093-11.7-.704z" fill="#d1d3d4"/></g></g><g><path d="m189.278 167.414-10.329 12.673-58.409-47.626-17.68-14.413-36.138-29.463 10.328-12.671 48.473 39.517 40.309 32.867z" fill="#f1f2f2"/></g><g><path d="m72.749 93.498 100.173 81.674c-.388-3.808 1.799-6.682-.905-8.886l-90.382-73.692c-2.704-2.204-5.059.515-8.886.904z" fill="#d1d3d4"/></g></g></g></g><g><g><g><g><g><ellipse cx="178.949" cy="75.914" fill="#f1f2f2" rx="10.031" ry="10.031" transform="matrix(.309 -.951 .951 .309 51.533 222.716)"/></g><g><path d="m172.61 68.139c2.375-1.937 5.37-2.605 8.165-2.089-1.601.296-3.152.987-4.503 2.089-4.294 3.501-4.937 9.82-1.437 14.114 1.564 1.919 3.691 3.108 5.948 3.525-3.488.646-7.211-.582-9.611-3.525-3.499-4.294-2.856-10.613 1.438-14.114z" fill="#e6e7e8"/></g><g><ellipse cx="189.278" cy="88.585" fill="#f1f2f2" rx="10.031" ry="10.031" transform="matrix(.101 -.995 .995 .101 81.981 267.919)"/></g></g><g><g><ellipse cx="66.722" cy="167.415" fill="#f1f2f2" rx="10.031" ry="10.031" transform="matrix(.989 -.151 .151 .989 -24.559 12.021)"/></g><g><path d="m58.796 161.263c-.356 2.652.343 5.439 2.167 7.676 3.501 4.294 9.82 4.937 14.114 1.437.601-.49 1.131-1.035 1.587-1.623-.327 2.438-1.546 4.761-3.603 6.438-4.294 3.501-10.613 2.857-14.114-1.437-3.011-3.693-2.957-8.884-.151-12.491z" fill="#e6e7e8"/></g><g><circle cx="77.051" cy="180.086" fill="#f1f2f2" r="10.031"/></g><g><path d="m79.365 182.924c3.431-2.797 4.528-7.392 3.046-11.317.892.564 1.711 1.277 2.415 2.14 3.501 4.294 2.857 10.613-1.437 14.114s-10.613 2.857-14.114-1.437c-.704-.863-1.237-1.809-1.61-2.796 3.547 2.242 8.269 2.093 11.7-.704z" fill="#d1d3d4"/></g><g><path d="m191.592 91.424c3.431-2.797 4.528-7.392 3.046-11.317.892.564 1.711 1.277 2.415 2.14 3.501 4.294 2.857 10.613-1.437 14.114s-10.613 2.857-14.114-1.437c-.704-.863-1.237-1.809-1.61-2.796 3.547 2.241 8.269 2.093 11.7-.704z" fill="#d1d3d4"/></g></g><g><path d="m66.722 167.414 10.329 12.673 58.409-47.626 17.68-14.413 36.138-29.463-10.328-12.671-48.473 39.517-40.309 32.867z" fill="#f1f2f2"/></g><g><path d="m183.251 93.498-100.173 81.674c.388-3.808-1.799-6.682.905-8.886l90.382-73.692c2.704-2.204 5.059.515 8.886.904z" fill="#d1d3d4"/></g></g></g></g><g><g><path d="m172.545 120.46c0-25.213-20.947-45.533-46.387-44.508-22.906.923-41.573 19.453-42.653 42.352-.833 17.667 8.631 33.205 22.906 41.129v16.473c0 2.308 1.871 4.179 4.179 4.179h34.819c2.308 0 4.179-1.871 4.179-4.179v-16.473c13.692-7.6 22.957-22.205 22.957-38.973z" fill="#fff"/></g><g><path d="m170.264 106.349c.135 1.377.204 2.772.204 4.184 0 23.454-19.014 42.468-42.468 42.468s-42.468-19.013-42.468-42.468c0-1.39.067-2.765.198-4.121-1.262 3.77-2.029 7.759-2.224 11.891-.833 17.667 8.631 33.205 22.906 41.129v16.473c0 2.308 1.871 4.179 4.179 4.179h34.819c2.308 0 4.179-1.871 4.179-4.179v-16.473c13.691-7.6 22.957-22.205 22.957-38.973-.001-4.931-.802-9.675-2.282-14.11z" fill="#d1d3d4"/></g><g><g><g><path d="m123.594 125.563c-7.057 7.057-18.499 7.057-25.557 0-7.057-7.057-7.057-18.499 0-25.557 7.057-7.057 7.006 4.436 14.063 11.494 7.058 7.058 18.552 7.006 11.494 14.063z" fill="#58595b"/></g></g><g><g><path d="m132.406 125.563c7.057 7.057 18.499 7.057 25.557 0 7.057-7.057 7.057-18.499 0-25.557-7.057-7.057-7.006 4.436-14.063 11.494-7.058 7.058-18.552 7.006-11.494 14.063z" fill="#58595b"/></g></g></g><g><g><path d="m124.203 119.248c-.185.207-.388.421-.609.642-7.057 7.057-18.499 7.057-25.557 0-2.805-2.805-4.495-6.302-5.07-9.942-.872 5.518.818 11.363 5.07 15.615 7.057 7.057 18.499 7.057 25.557 0 3.051-3.05 2.635-4.773.609-6.315z" fill="#808285"/></g><g><path d="m157.962 119.89c-7.057 7.057-18.499 7.057-25.557 0-.221-.221-.424-.435-.609-.642-2.026 1.542-2.442 3.265.609 6.316 7.057 7.057 18.499 7.057 25.557 0 4.253-4.252 5.942-10.097 5.07-15.615-.575 3.639-2.265 7.136-5.07 9.941z" fill="#808285"/></g></g><g><path d="m135.598 138.97c0 4.196-3.402-1.064-7.598-1.064s-7.598 5.26-7.598 1.064 3.402-7.598 7.598-7.598 7.598 3.402 7.598 7.598z" fill="#58595b"/></g><g><g><path d="m119.571 180.086h-6.82v-16.576c0-1.883 1.527-3.41 3.41-3.41 1.883 0 3.41 1.527 3.41 3.41z" fill="#fff"/></g></g><g><g><path d="m131.41 180.086h-6.82v-16.576c0-1.883 1.527-3.41 3.41-3.41 1.883 0 3.41 1.527 3.41 3.41z" fill="#fff"/></g></g><g><g><path d="m143.249 180.086h-6.82v-16.576c0-1.883 1.527-3.41 3.41-3.41 1.883 0 3.41 1.527 3.41 3.41z" fill="#fff"/></g></g></g></g></g></g></g></svg>