<svg id="icons" height="512" viewBox="0 0 340 340" width="512" xmlns="http://www.w3.org/2000/svg" xmlns:xlink="http://www.w3.org/1999/xlink"><linearGradient id="linear-gradient" gradientUnits="userSpaceOnUse" x1="204.041" x2="204.041" y1="297.659" y2="238.61"><stop offset="0" stop-color="#abb2ff"/><stop offset="1" stop-color="#d0d7ff"/></linearGradient><linearGradient id="linear-gradient-2" x1="142.038" x2="142.038" xlink:href="#linear-gradient" y1="297.659" y2="238.61"/><linearGradient id="linear-gradient-3" x1="158.845" x2="158.845" xlink:href="#linear-gradient" y1="297.659" y2="238.61"/><linearGradient id="linear-gradient-4" gradientUnits="userSpaceOnUse" x1="92.826" x2="92.826" y1="322.113" y2="168.257"><stop offset="0" stop-color="#858ce3"/><stop offset="1" stop-color="#aab1ff"/></linearGradient><linearGradient id="linear-gradient-5" x1="249.033" x2="249.033" xlink:href="#linear-gradient-4" y1="322.113" y2="168.257"/><linearGradient id="linear-gradient-6" gradientUnits="userSpaceOnUse" x1="35.332" x2="35.332" y1="111.463" y2="298.296"><stop offset="0" stop-color="#6972c9"/><stop offset="1" stop-color="#8e97e7"/></linearGradient><linearGradient id="linear-gradient-7" x1="304.668" x2="304.668" xlink:href="#linear-gradient-6" y1="111.463" y2="298.296"/><linearGradient id="linear-gradient-8" gradientUnits="userSpaceOnUse" x1="113.429" x2="113.429" y1="204.996" y2="130.243"><stop offset="0" stop-color="#9ba4ff"/><stop offset=".5" stop-color="#b4dcff"/><stop offset="1" stop-color="#ebf8ff"/></linearGradient><linearGradient id="linear-gradient-9" x1="236.087" x2="236.087" xlink:href="#linear-gradient-6" y1="115.779" y2="367.427"/><linearGradient id="linear-gradient-10" x1="85.179" x2="85.179" xlink:href="#linear-gradient-6" y1="123.487" y2="28.977"/><linearGradient id="linear-gradient-11" x1="245.938" x2="245.938" xlink:href="#linear-gradient-8" y1="87.912" y2="37.632"/><linearGradient id="linear-gradient-12" x1="184.181" x2="167.911" xlink:href="#linear-gradient-6" y1="130.623" y2="198.242"/><linearGradient id="linear-gradient-13" x1="145.263" x2="162.957" xlink:href="#linear-gradient-8" y1="103.916" y2="200.508"/><linearGradient id="linear-gradient-14" x1="137.673" x2="184.773" xlink:href="#linear-gradient-8" y1="47.949" y2="137.02"/><path d="m249.032 269.207a3.131 3.131 0 0 1 -2.775-4.578 5.529 5.529 0 0 0 .686-2.588c0-5.076-8.063-10.6-21.57-14.787-15.038-4.659-35.092-7.224-56.469-7.224-3.6 0-7.223.074-10.765.221a3.131 3.131 0 1 1 -.26-6.257c3.628-.151 7.338-.227 11.025-.227 40.867 0 84.3 9.909 84.3 28.274a11.8 11.8 0 0 1 -1.393 5.481 3.133 3.133 0 0 1 -2.779 1.685z" fill="url(#linear-gradient)"/><path d="m141.191 241.533a3.131 3.131 0 0 1 -.346-6.243q.852-.1 1.71-.186a3.131 3.131 0 1 1 .65 6.229q-.833.087-1.66.18a3.025 3.025 0 0 1 -.354.02z" fill="url(#linear-gradient-2)"/><path d="m168.9 290.315a268.559 268.559 0 0 1 -33.19-2.162c-20.555-2.54-32.709-7.99-33.753-8.471-14.339-6.116-17.357-12.968-17.357-17.641 0-10.512 14.878-19.414 40.818-24.425a3.131 3.131 0 0 1 1.188 6.149c-24.691 4.769-35.743 12.616-35.743 18.276 0 3.885 4.955 8.222 13.593 11.9l.1.046c.114.053 11.937 5.484 31.919 7.953a262.407 262.407 0 0 0 32.422 2.114c18.372 0 43.791-1.984 60.034-7.553a3.131 3.131 0 1 1 2.03 5.924c-16.961 5.817-43.18 7.89-62.061 7.89z" fill="url(#linear-gradient-3)"/><path d="m151.663 304.119c-2.8.036-6.6 0-11.141-.266a16.825 16.825 0 0 1 -10.282-4.192c-11.639-10.45-12.85-24.86-12.407-33.126a6.116 6.116 0 0 0 -5.242-6.5 5.961 5.961 0 0 0 -6.615 5.24l-2.746 22.49a6.921 6.921 0 0 1 -8.579 5.89s-22.926-6.655-33.886-18.842c-10.842-12.053-8.129-30.957 6.464-38.018 13.405-6.486 34.271-12.584 66.021-13.629a5.725 5.725 0 0 0 5.535-4.669 5.593 5.593 0 0 0 -5.015-6.497 179 179 0 0 0 -37.734.66 8.638 8.638 0 0 1 -9.183-5.333 28.251 28.251 0 0 1 -1.659-8.056 5.585 5.585 0 0 0 -5.581-5.164 5.62 5.62 0 0 0 -5.591 5.392 40.61 40.61 0 0 1 -4.461 16.485 9.874 9.874 0 0 1 -5.055 4.661q-2.858 1.168-5.655 2.527a10.062 10.062 0 0 1 -13.6-4.646c-2.689-5.822-3.6-13.329-3.9-18.474a6.3 6.3 0 0 0 -6.287-5.945 6.3 6.3 0 0 0 -6.3 6.3s-.105 58.227 0 59.583a26.287 26.287 0 0 0 2.339 8.989c8.878 19.245 36.276 47.669 120.754 45.55a5.214 5.214 0 0 0 5.079-5.208 5.2 5.2 0 0 0 -5.273-5.202z" fill="url(#linear-gradient-4)"/><path d="m190.2 304.119c2.8.036 6.6 0 11.141-.266a16.825 16.825 0 0 0 10.282-4.192c11.639-10.45 12.85-24.86 12.407-33.126a6.116 6.116 0 0 1 5.242-6.5 5.961 5.961 0 0 1 6.615 5.24l2.746 22.49a6.921 6.921 0 0 0 8.578 5.89s22.927-6.661 33.887-18.846c10.841-12.053 8.129-30.957-6.464-38.018-13.4-6.486-34.271-12.584-66.021-13.629a5.727 5.727 0 0 1 -5.536-4.669 5.6 5.6 0 0 1 5.012-6.493 179 179 0 0 1 37.734.66 8.638 8.638 0 0 0 9.183-5.333 28.251 28.251 0 0 0 1.659-8.056 5.585 5.585 0 0 1 5.581-5.164 5.62 5.62 0 0 1 5.591 5.392 40.61 40.61 0 0 0 4.461 16.485 9.87 9.87 0 0 0 5.055 4.661q2.856 1.168 5.655 2.527a10.06 10.06 0 0 0 13.6-4.646c2.69-5.822 3.6-13.329 3.9-18.474a6.3 6.3 0 0 1 6.287-5.945 6.3 6.3 0 0 1 6.3 6.3s.105 58.227 0 59.583a26.266 26.266 0 0 1 -2.34 8.989c-8.877 19.245-36.275 47.669-120.753 45.55a5.214 5.214 0 0 1 -5.079-5.208 5.2 5.2 0 0 1 5.277-5.202z" fill="url(#linear-gradient-5)"/><ellipse cx="35.332" cy="162.651" fill="url(#linear-gradient-6)" rx="8.474" ry="9.845"/><ellipse cx="304.668" cy="145.486" fill="url(#linear-gradient-7)" rx="8.474" ry="9.845"/><path d="m113.647 148.138-12.803 23.06 13.689 22.977 11.481-22.74z" fill="url(#linear-gradient-8)"/><path d="m236.819 126.897-10.978 22.25 10.547 24.218 9.945-23.554z" fill="url(#linear-gradient-9)"/><path d="m85.179 57.181-12.585 28.523 13.903 32.602 11.267-32.602z" fill="url(#linear-gradient-10)"/><path d="m245.938 52.695-9.851 18.142 10.883 17.883 8.818-17.883z" fill="url(#linear-gradient-11)"/><path d="m205.639 124.394-36.734 96.637-7.428-79.002z" fill="url(#linear-gradient-12)"/><path d="m170 150.131-21.989-28.861h-15.84l36.734 99.761z" fill="url(#linear-gradient-13)"/><path d="m132.171 121.27 37.829 28.861 35.639-25.737-35.639-99.038z" fill="url(#linear-gradient-14)"/></svg>