<svg id="icons" height="512" viewBox="0 0 340 340" width="512" xmlns="http://www.w3.org/2000/svg" xmlns:xlink="http://www.w3.org/1999/xlink"><linearGradient id="linear-gradient" gradientUnits="userSpaceOnUse" x1="153.699" x2="153.699" y1="124.782" y2="307.884"><stop offset="0" stop-color="#ffe892"/><stop offset=".481" stop-color="#ffb147"/><stop offset="1" stop-color="#ff7145"/></linearGradient><linearGradient id="linear-gradient-2" x1="188.173" x2="188.173" xlink:href="#linear-gradient" y1="124.782" y2="307.884"/><linearGradient id="linear-gradient-3" x1="170" x2="170" xlink:href="#linear-gradient" y1="113.509" y2="216.398"/><linearGradient id="linear-gradient-4" x1="170" x2="170" xlink:href="#linear-gradient" y1="31.626" y2="556.871"/><linearGradient id="linear-gradient-5" x1="80.604" x2="80.604" xlink:href="#linear-gradient" y1="31.626" y2="556.871"/><linearGradient id="linear-gradient-6" x1="259.396" x2="259.396" xlink:href="#linear-gradient" y1="31.626" y2="556.871"/><linearGradient id="linear-gradient-7" x1="170" x2="170" xlink:href="#linear-gradient" y1="26.245" y2="358.39"/><linearGradient id="linear-gradient-8" x1="80.604" x2="80.604" xlink:href="#linear-gradient" y1="26.245" y2="358.39"/><linearGradient id="linear-gradient-9" x1="259.396" x2="259.396" xlink:href="#linear-gradient" y1="26.245" y2="358.39"/><path d="m170 117.404-106.773 52.596 106.773 55.007 106.773-55.007z" fill="#fff"/><path d="m86.162 170s12.47 0 32.47-19.494a74.988 74.988 0 0 1 102.736 0c20 19.494 32.47 19.494 32.47 19.494 13.326 3.874 17.708-10.9 14.952-17.784a61.138 61.138 0 0 1 -29.309-17.816c-30.934-33.82-69.481-32.7-69.481-32.7s-38.547-1.122-69.481 32.7a61.006 61.006 0 0 1 -39.149 19.61c-2.958.285-6.059.539-9.252.74a15.282 15.282 0 0 0 0 30.5c3.193.2 6.294.455 9.252.74a60.506 60.506 0 0 1 13.107 2.762 57.6 57.6 0 0 1 11.685-18.752z" fill="url(#linear-gradient)"/><path d="m302.177 170a15.272 15.272 0 0 0 -14.3-15.25c-3.193-.2-6.294-.455-9.252-.74a60.383 60.383 0 0 1 -9.84-1.794c-.256 7.581-2.752 18.32-14.952 17.784 0 0-12.47 0-32.47 19.494a74.988 74.988 0 0 1 -102.736 0c-19.995-19.494-32.465-19.494-32.465-19.494s-14.247 1.5-11.685 18.752a61.19 61.19 0 0 1 26.042 16.848c30.934 33.82 69.481 32.7 69.481 32.7s38.547 1.122 69.481-32.7a61.006 61.006 0 0 1 39.149-19.61c2.958-.285 6.059-.539 9.252-.74a15.272 15.272 0 0 0 14.295-15.25z" fill="url(#linear-gradient-2)"/><circle cx="170" cy="170" fill="url(#linear-gradient-3)" r="21.127"/><path d="m181.3 32.608a13.58 13.58 0 0 0 -22.608 0 16.815 16.815 0 0 0 -2.381 9.191c.235 19.201 13.689 30.735 13.689 30.735s13.454-11.534 13.685-30.734a16.815 16.815 0 0 0 -2.385-9.192z" fill="url(#linear-gradient-4)"/><path d="m80.687 61.622a12.6 12.6 0 0 0 -12.552 2.625 12.6 12.6 0 0 0 -4.772 11.9 16.818 16.818 0 0 0 4.081 8.572c12.515 14.566 30.236 14.759 30.236 14.759s2.9-17.483-9.263-32.344a16.828 16.828 0 0 0 -7.73-5.512z" fill="url(#linear-gradient-5)"/><path d="m259.313 61.622a13.582 13.582 0 0 1 17.324 14.528 16.818 16.818 0 0 1 -4.081 8.572c-12.515 14.563-30.236 14.756-30.236 14.756s-2.9-17.483 9.263-32.344a16.828 16.828 0 0 1 7.73-5.512z" fill="url(#linear-gradient-6)"/><path d="m181.3 307.392a13.58 13.58 0 0 1 -22.608 0 16.815 16.815 0 0 1 -2.381-9.191c.235-19.201 13.689-30.735 13.689-30.735s13.454 11.534 13.685 30.734a16.815 16.815 0 0 1 -2.385 9.192z" fill="url(#linear-gradient-7)"/><path d="m80.687 278.378a12.6 12.6 0 0 1 -12.552-2.625 12.6 12.6 0 0 1 -4.772-11.9 16.818 16.818 0 0 1 4.081-8.572c12.515-14.563 30.236-14.756 30.236-14.756s2.9 17.483-9.263 32.344a16.828 16.828 0 0 1 -7.73 5.509z" fill="url(#linear-gradient-8)"/><path d="m259.313 278.378a13.582 13.582 0 0 0 17.324-14.528 16.818 16.818 0 0 0 -4.081-8.572c-12.515-14.563-30.236-14.756-30.236-14.756s-2.9 17.483 9.263 32.344a16.828 16.828 0 0 0 7.73 5.512z" fill="url(#linear-gradient-9)"/></svg>