<svg version="1.2" xmlns="http://www.w3.org/2000/svg" viewBox="0 0 287 287" width="287" height="287">
	<title>upgrade-svg</title>
	<style>
		.s0 { fill: #ff9600 } 
	</style>
	<g id="Layer">
		<path id="Layer" fill-rule="evenodd" class="s0" d="m143 0c79.1 0 143.1 63.9 143.1 143 0 79.1-64 143.1-143.1 143.1-79.1 0-143-64-143-143.1 0-79.1 63.9-143 143-143zm-116.2 143c0 64.3 52 116.2 116.2 116.2 64.3 0 116.2-51.9 116.2-116.2 0-64.2-51.9-116.2-116.2-116.2-64.2 0-116.2 52-116.2 116.2zm64.5-8.9h24.9v-44.7c0-5 4-9 8.9-9h35.8c4.9 0 8.9 4 8.9 9v44.7h24.9c9.7 0 13.7 6.4 8.8 14.3l-51.7 51.1c-4.8 7.9-12.7 7.9-17.6 0l-51.7-51.1c-4.8-7.9-0.9-14.3 8.8-14.3z"/>
	</g>
	<g id="Layer">
	</g>
	<g id="Layer">
	</g>
	<g id="Layer">
	</g>
	<g id="Layer">
	</g>
	<g id="Layer">
	</g>
	<g id="Layer">
	</g>
	<g id="Layer">
	</g>
	<g id="Layer">
	</g>
	<g id="Layer">
	</g>
	<g id="Layer">
	</g>
	<g id="Layer">
	</g>
	<g id="Layer">
	</g>
	<g id="Layer">
	</g>
	<g id="Layer">
	</g>
	<g id="Layer">
	</g>
</svg>