<svg id="Layer_3" data-name="Layer 3" xmlns="http://www.w3.org/2000/svg" viewBox="0 0 421.69 421.69"><defs><style>.cls-1{fill:#231f20;}</style></defs><title>dragons_den</title><path class="cls-1" d="M500,189.15h0c-116.45,0-210.85,94.4-210.85,210.85V610.85h97.24c18-8.78,144.34-75.06,111.24-187.17,0,0,51.2,79.94-36.82,155.83H530s20.2-25.59,29.19-46.25h-50.3l52.54-9.88s5.84-14.37,5.84-29.64l-51.2,9,49.85-18.41a81.74,81.74,0,0,0-7.18-30.54l-43.56,15.72,40-25.6s-18.41-30.54-49.84-34.13-23.81,13-32.79,26.05-37.27,13-54.34,20.65S380.65,492.17,366.5,487c-5.91-2.15-17.29-9-13.25-24.25,0,0,4.27,10.56,7.41,10.56s14.37-5.17,16.62-10.11-5.39-11.68-5.39-11.68,10.78,2.25,13,6.29,9-11.67,20.66-16.61,46.7-21.11,46.7-21.11-40.41,10.78-52.54,13.47-43.85,5.92-44.91,11.68c-2,11,3.93,14,3.93,14s-11.45,1-12.46-14.48c0,0-11.11-2.25-15.94,4.71-3,4.31,1.46,16.51,1.46,16.51s-25.6-22.23-.34-37.39c10.73-6.43,46.56-12.18,61-25.6,16.51-15.38,46.37-13.92,46.37-30.08s-15.27-10.78-22.9,0S389,402.13,389,400.33s-9-17.51,5.39-33.68S512.45,278.18,477.42,240c0,0,31.43,15.72,7.18,78.59,0,0,27.4-27.85,80.39-14.82,0,0-33.68.9-46.7,23.8,0,0,49.4-13.92,70.5,15.72s41.77,37.27,45.81,36.82c0,0-9.43,9-30.54-4s-38.62-22-55.68-10.78c0,0,14.37-6.73,42.66,14.82s40.87,41.32,60.63,40.87c0,0-24.7,12.57-44.91-1.35S565,403,549.72,407.51c0,0,35.48,22.46,35.48,87.58,0,70.91-47.67,109.25-56.52,115.76H556.1c83.74-116,12.75-192.33,12.75-192.33s16.4,7.41,55.24,17.51c10.32,2.69,27.58,13.7,27.58,13.7-18.87-10.11-48.46-5.62-48.46-5.62,9.43,1.35,51.19,13.48,66.69,31.67s35,33,35,33-13.48-1.34-33.69-16.16-49.84-3.37-49.84-3.37c25.41,5.41,41.09,25.6,48.5,43.78s20.88,33.68,20.88,33.68-12.13-8.08-31-29S613.31,527,613.31,527c21.56,3.37,36.38,20.88,44.46,42.44s37.72,31.66,37.72,31.66-31-9.43-52.54-25.6-46.48-8.08-46.48-8.08,4,21.55,29,24.25c21.34,2.3,38.71,15.47,43.27,19.21h42.14V400C710.85,283.55,616.45,189.15,500,189.15Z" transform="translate(-289.15 -189.15)"/></svg>