<svg id="Capa_1" enable-background="new 0 0 510 510" height="512" viewBox="0 0 510 510" width="512" xmlns="http://www.w3.org/2000/svg" xmlns:xlink="http://www.w3.org/1999/xlink"><linearGradient id="SVGID_1_" gradientUnits="userSpaceOnUse" x1="261.568" x2="274.948" y1="414.068" y2="514.418"><stop offset="0" stop-color="#f0ddfc"/><stop offset=".4474" stop-color="#c1aec7"/><stop offset="1" stop-color="#8a7889"/></linearGradient><linearGradient id="lg1"><stop offset="0" stop-color="#6e566e" stop-opacity="0"/><stop offset=".2944" stop-color="#674d66" stop-opacity=".294"/><stop offset="1" stop-color="#593b56"/></linearGradient><linearGradient id="SVGID_2_" gradientUnits="userSpaceOnUse" x1="312.742" x2="307.058" xlink:href="#lg1" y1="528.418" y2="389.556"/><linearGradient id="lg2"><stop offset="0" stop-color="#8a7889"/><stop offset="1" stop-color="#6e566e"/></linearGradient><linearGradient id="SVGID_3_" gradientTransform="matrix(-.933 .361 .361 .933 92.949 -17.335)" gradientUnits="userSpaceOnUse" x1="-30.329" x2="29.208" xlink:href="#lg2" y1="77.725" y2="77.725"/><linearGradient id="SVGID_4_" gradientTransform="matrix(.066 .998 -.998 .066 -10.168 -96.254)" gradientUnits="userSpaceOnUse" x1="161.219" x2="249.013" xlink:href="#lg2" y1="-112.989" y2="-112.989"/><linearGradient id="SVGID_5_" gradientTransform="matrix(.531 .847 .847 -.531 -6.841 -7.402)" gradientUnits="userSpaceOnUse" x1="110.051" x2="310.631" xlink:href="#lg2" y1="-41.957" y2="121.274"/><linearGradient id="SVGID_6_" gradientUnits="userSpaceOnUse" x1="391.787" x2="479.093" xlink:href="#lg2" y1="76.977" y2="106.659"/><linearGradient id="SVGID_7_" gradientTransform="matrix(.947 .321 .321 -.947 -86.042 522.599)" gradientUnits="userSpaceOnUse" x1="313.572" x2="400.877" xlink:href="#lg2" y1="397.353" y2="427.034"/><linearGradient id="SVGID_8_" gradientTransform="matrix(.997 .081 .081 -.997 -41.014 565.992)" gradientUnits="userSpaceOnUse" x1="96.486" x2="183.791" xlink:href="#lg2" y1="256.204" y2="285.885"/><linearGradient id="SVGID_9_" gradientTransform="matrix(-.615 .817 -.472 -.355 612.376 25.313)" gradientUnits="userSpaceOnUse" x1="76.989" x2="284.894" xlink:href="#lg2" y1="158.738" y2="327.93"/><linearGradient id="SVGID_10_" gradientUnits="userSpaceOnUse" x1="299.346" x2="436.683" xlink:href="#lg2" y1="235.251" y2="235.251"/><linearGradient id="SVGID_11_" gradientUnits="userSpaceOnUse" x1="263.305" x2="322.842" xlink:href="#lg2" y1="35.673" y2="35.673"/><linearGradient id="SVGID_12_" gradientTransform="matrix(.298 .955 .955 -.298 67.737 -110.784)" gradientUnits="userSpaceOnUse" x1="208.493" x2="296.288" xlink:href="#lg2" y1="179.849" y2="179.849"/><linearGradient id="SVGID_13_" gradientTransform="matrix(.967 -.253 -.253 -.967 107.268 783.598)" gradientUnits="userSpaceOnUse" x1="122.997" x2="242.735" xlink:href="#lg2" y1="462.422" y2="462.422"/><linearGradient id="SVGID_14_" gradientUnits="userSpaceOnUse" x1="196.798" x2="380.666" xlink:href="#lg2" y1="235.193" y2="357.214"/><linearGradient id="SVGID_15_" gradientUnits="userSpaceOnUse" x1="282.218" x2="48.832" xlink:href="#lg1" y1="276.609" y2="201.102"/><linearGradient id="SVGID_16_" gradientUnits="userSpaceOnUse" x1="355.725" x2="164.484" xlink:href="#lg1" y1="283.413" y2="388.169"/><linearGradient id="SVGID_17_" gradientUnits="userSpaceOnUse" x1="258.305" x2="362.774" xlink:href="#lg1" y1="352.433" y2="437.45"/><g><path d="m482.326 483.333c0 35.556-423.184 35.556-423.184 0s94.733-64.381 211.592-64.381 211.592 28.824 211.592 64.381z" fill="url(#SVGID_1_)"/><path d="m482.326 483.333c0-35.556-94.733-64.381-211.592-64.381-33.267 0-64.736 2.339-92.741 6.501-4.634 3.913-9.683 7.55-15.137 10.854l-20.548 12.444c-5.716 3.462-4.9 10.058-.139 13.063l46.307 46.307c124.444 5.971 293.85-2.292 293.85-24.788z" fill="url(#SVGID_2_)"/><g><g><path d="m111.8 96.291c-1.493 0-3.007-.366-4.406-1.138-4.417-2.439-6.022-7.996-3.584-12.413l10.896-19.74c4.176-7.564 6.532-16.128 6.815-24.764l.516-15.759c.165-5.044 4.4-8.999 9.429-8.832 5.043.165 8.997 4.387 8.832 9.429l-.516 15.759c-.377 11.508-3.517 22.918-9.08 32.996l-10.895 19.74c-1.666 3.017-4.787 4.722-8.007 4.722z" fill="url(#SVGID_3_)"/><path d="m144.574 142.99c-1.879 0-3.774-.578-5.405-1.777l-.717-.527c-8.517-6.269-14.479-15.606-16.79-26.294-1.292-5.973-4.493-11.253-9.014-14.868l-30.548-24.434c-3.94-3.152-4.58-8.901-1.428-12.841 3.15-3.94 8.901-4.579 12.841-1.429l30.549 24.433c7.792 6.233 13.282 15.208 15.459 25.275 1.37 6.331 4.836 11.815 9.76 15.439l.713.525c4.065 2.988 4.937 8.706 1.948 12.771-1.791 2.436-4.561 3.727-7.368 3.727z" fill="url(#SVGID_4_)"/></g><path d="m241.569 216.17c-3.926 0-7.85-1.508-10.828-4.521l-36.75-37.171c-8.793-8.894-20.494-14.44-32.947-15.616l-64.207-6.061c-17.55-1.656-33.857-8.649-47.157-20.222l-24.64-21.441c-6.344-5.521-7.011-15.138-1.491-21.482 5.521-6.343 15.138-7.011 21.481-1.49l24.64 21.441c8.47 7.369 18.853 11.823 30.029 12.878l64.208 6.061c19.556 1.847 37.931 10.556 51.74 24.524l36.75 37.171c5.912 5.98 5.857 15.62-.123 21.532-2.968 2.933-6.838 4.397-10.705 4.397z" fill="url(#SVGID_5_)"/><path d="m471.398 110.04h-13.814c-7.512 0-15.005-1.83-21.67-5.292l-38.564-20.023c-4.478-2.326-6.223-7.84-3.898-12.318 2.326-4.477 7.839-6.222 12.318-3.898l38.564 20.025c4.076 2.117 8.657 3.236 13.25 3.236h13.814c5.045 0 9.136 4.09 9.136 9.136s-4.091 9.134-9.136 9.134z" fill="url(#SVGID_6_)"/><path d="m347.508 259.354c-4.433 0-8.324-3.232-9.018-7.749-.767-4.987 2.654-9.651 7.641-10.418l42.947-6.604c7.421-1.14 15.107-.473 22.222 1.935l13.085 4.429c4.779 1.618 7.342 6.803 5.725 11.583s-6.8 7.343-11.582 5.725l-13.086-4.429c-4.35-1.474-9.046-1.884-13.586-1.184l-42.948 6.604c-.471.074-.939.108-1.4.108z" fill="url(#SVGID_7_)"/><path d="m85.702 328.775c-3.569 0-6.959-2.104-8.427-5.602-1.953-4.652.234-10.006 4.887-11.96l40.064-16.821c6.924-2.907 14.541-4.122 22.027-3.513l13.77 1.124c5.029.412 8.772 4.82 8.362 9.849-.41 5.028-4.828 8.757-9.849 8.362l-13.769-1.124c-4.573-.374-9.233.37-13.467 2.147l-40.066 16.823c-1.155.485-2.353.715-3.532.715z" fill="url(#SVGID_8_)"/><path d="m297.505 160.803c-3.836 0-7.674-1.441-10.636-4.332-6.017-5.875-6.132-15.514-.256-21.531l36.756-37.643c13.118-13.435 28.346-23.137 42.879-27.317l48.291-13.889c8.379-2.41 17.727-8.165 26.323-16.208l23.703-22.172c6.141-5.745 15.776-5.424 21.521.718 5.744 6.142 5.423 15.777-.718 21.521l-23.703 22.172c-12.219 11.43-25.605 19.464-38.709 23.233l-48.289 13.889c-9.54 2.744-20.02 9.608-29.509 19.326l-36.758 37.644c-2.983 3.056-6.938 4.589-10.895 4.589z" fill="url(#SVGID_9_)"/><path d="m314.566 293.751c-3.486 0-6.988-1.19-9.852-3.623-6.408-5.445-7.188-15.054-1.743-21.462l40.6-47.78c10.534-12.397 25.183-20.633 41.249-23.187 9.435-1.501 17.877-6.469 23.77-13.988l.88-1.124c5.185-6.62 14.756-7.781 21.375-2.598 6.62 5.185 7.784 14.755 2.599 21.376l-.883 1.128c-10.652 13.592-25.907 22.568-42.959 25.28-8.89 1.413-16.996 5.97-22.825 12.83l-40.601 47.78c-3.012 3.545-7.298 5.368-11.61 5.368z" fill="url(#SVGID_10_)"/><g><path d="m313.701 71.346c-2.071 0-4.153-.701-5.864-2.135l-17.279-14.485c-8.823-7.398-15.864-16.908-20.363-27.505l-6.162-14.514c-1.972-4.644.195-10.008 4.839-11.979 4.645-1.971 10.008.194 11.98 4.839l6.162 14.514c3.376 7.952 8.661 15.091 15.283 20.643l17.278 14.485c3.867 3.24 4.373 9.002 1.132 12.87-1.807 2.156-4.397 3.267-7.006 3.267z" fill="url(#SVGID_11_)"/><path d="m299.962 126.72c-1.681 0-3.382-.464-4.904-1.435-4.254-2.713-5.503-8.361-2.789-12.615l.479-.751c3.284-5.153 4.54-11.517 3.536-17.918-1.598-10.173.288-20.524 5.31-29.146l19.688-33.803c2.539-4.362 8.134-5.837 12.492-3.296 4.36 2.538 5.836 8.132 3.297 12.491l-19.688 33.803c-2.913 5.002-3.996 11.082-3.048 17.118 1.695 10.803-.5 21.662-6.18 30.575l-.481.753c-1.743 2.731-4.696 4.224-7.712 4.224z" fill="url(#SVGID_12_)"/></g><path d="m218.907 327.197c-3.214 0-6.454-1.013-9.209-3.111l-1.14-.867c-7.599-5.775-17.02-8.442-26.53-7.502-16.194 1.598-32.449-2.655-45.779-11.979-.221-.155-.437-.314-.649-.481l-29.899-23.367c-6.625-5.178-7.799-14.747-2.62-21.372 5.178-6.626 14.747-7.8 21.373-2.621l29.552 23.097c7.319 5.013 16.188 7.293 25.026 6.418 17.182-1.699 34.213 3.123 47.959 13.568l1.147.873c6.692 5.092 7.988 14.646 2.896 21.337-2.994 3.937-7.534 6.006-12.127 6.007z" fill="url(#SVGID_13_)"/><g><path d="m205.479 216.327c-17.143 16.392-22.809 39.184-14.919 60.008l17.199 45.393c16.054 42.37-2.081 88.643-44.904 114.578l-20.548 12.444c-7.551 4.573-3.718 14.629 5.576 14.629h258.809c8.372 0 12.703-8.436 6.978-13.591-25.334-22.813-44.166-50.205-55.061-80.089l-26.49-72.658c-6.154-16.879-3.501-35.171 7.294-50.3 17.909-25.097 20.782-55.843 7.758-82.999l-15.488-32.293c-5.598-11.673-2.381-25.039 8.17-33.944l16.033-13.531c4.442-3.749-1.566-9.622-6.609-6.459l-71.907 45.099c-12.279 7.701-28.893 8.268-41.869 1.429l-46.759-24.646c-5.956-3.139-12.587 3.096-8.247 7.756l27.665 29.7c21.95 23.567 20.822 57.001-2.681 79.474z" fill="url(#SVGID_14_)"/><path d="m406.693 463.381h-234.446c-9.294 0-13.131-10.054-5.579-14.629l20.549-12.449c42.828-25.926 60.953-72.208 44.899-114.572l-17.199-45.397c-7.881-20.828-2.217-43.619 14.922-60.005 23.509-22.472 24.63-55.913 2.68-79.476l-26.311-28.24 29.295 15.43c9.696 5.109 21.438 6.086 31.865 3.022 3.52-1.018 6.894-2.508 10.001-4.451l71.904-45.099c5.043-3.166 11.06 2.714 6.614 6.456l-16.03 13.539c-1.255 1.059-2.4 2.169-3.423 3.341-7.759 8.707-9.684 20.314-4.751 30.604l15.494 32.29c5.396 11.246 8.064 23.11 8.064 34.932 0 16.726-5.335 33.369-15.823 48.07-10.804 15.122-13.448 33.421-7.296 50.29l26.493 72.66c5.445 14.937 12.875 29.267 22.108 42.693 9.233 13.446 20.281 25.988 32.949 37.399 5.725 5.152 1.389 13.592-6.979 13.592z" fill="url(#SVGID_15_)"/><path d="m380.723 412.391c-9.233-13.426-16.663-27.756-22.108-42.693l-26.493-72.66c-6.151-16.87-3.508-35.168 7.296-50.29 10.488-14.701 15.823-31.344 15.823-48.07 0-11.822-2.668-23.685-8.064-34.932l-15.494-32.29c-4.933-10.29-3.009-21.897 4.751-30.604.467-.535.967-1.055 1.484-1.565 1.628-6.02 5.391-11.68 11.122-16.222l6.658-5.276c-1.62-1.266-4.119-1.721-6.425-.272l-71.904 45.099c-1.432.896-2.926 1.684-4.46 2.385l16.937 57.518c5.853 19.878-.384 40.78-16.851 56.475-17.107 16.305-23.135 38.187-16.158 58.658l27.877 81.793c15.734 46.166 66.061 79.177 125.247 83.451 6.111-1.843 8.631-8.681 3.712-13.106-12.669-11.411-23.717-23.952-32.95-37.399z" fill="url(#SVGID_16_)"/><path d="m305.737 463.381h-157.852c-9.294 0-13.131-10.054-5.579-14.629l20.549-12.449c42.828-25.926 60.953-72.208 44.899-114.572l-17.199-45.397c-7.881-20.828-2.217-43.619 14.922-60.005 23.509-22.472 24.63-55.913 2.68-79.476l-25.117-26.965-2.546-2.735c-4.336-4.657 2.29-10.897 8.247-7.751l5.981 3.156 20.415 10.753c-1.486 5.952-.901 12.264 1.925 18.144l15.482 32.29c5.396 11.246 8.064 23.12 8.064 34.942 0 16.715-5.335 33.359-15.823 48.06-10.792 15.122.219 33.421 6.383 50.29l26.481 72.66c5.457 14.937 12.887 29.267 22.121 42.693 9.233 13.446 20.281 25.988 32.949 37.399 5.723 5.152 1.387 13.592-6.982 13.592z" fill="url(#SVGID_17_)"/></g></g></g></svg>