<svg id="icons" height="512" viewBox="0 0 340 340" width="512" xmlns="http://www.w3.org/2000/svg" xmlns:xlink="http://www.w3.org/1999/xlink"><linearGradient id="linear-gradient" gradientUnits="userSpaceOnUse" x1="260.649" x2="260.649" y1="153.651" y2="350.347"><stop offset="0" stop-color="#ffcac0"/><stop offset="1" stop-color="#f99393"/></linearGradient><linearGradient id="linear-gradient-2" gradientUnits="userSpaceOnUse" x1="289.377" x2="-82.397" y1="170" y2="170"><stop offset=".004" stop-color="#a3b0e5"/><stop offset="1" stop-color="#9266bc"/></linearGradient><linearGradient id="linear-gradient-3" x1="289.377" x2="-82.397" xlink:href="#linear-gradient-2" y1="276.866" y2="276.866"/><linearGradient id="linear-gradient-4" x1="289.377" x2="-82.397" xlink:href="#linear-gradient-2" y1="129.208" y2="129.208"/><linearGradient id="linear-gradient-5" x1="289.377" x2="-82.397" xlink:href="#linear-gradient-2" y1="26.986" y2="26.986"/><linearGradient id="linear-gradient-6" x1="289.377" x2="-82.397" xlink:href="#linear-gradient-2" y1="260.992" y2="260.992"/><linearGradient id="linear-gradient-7" x1="289.377" x2="-82.397" xlink:href="#linear-gradient-2" y1="183.731" y2="183.731"/><linearGradient id="linear-gradient-8" x1="289.377" x2="-82.397" xlink:href="#linear-gradient-2" y1="91.897" y2="91.897"/><linearGradient id="linear-gradient-9" x1="289.377" x2="-82.397" xlink:href="#linear-gradient-2" y1="311.174" y2="311.174"/><linearGradient id="linear-gradient-10" x1="289.377" x2="-82.397" xlink:href="#linear-gradient-2" y1="254.118" y2="254.118"/><linearGradient id="linear-gradient-11" x1="289.377" x2="-82.397" xlink:href="#linear-gradient-2" y1="153.302" y2="153.302"/><linearGradient id="linear-gradient-12" x1="289.377" x2="-82.397" xlink:href="#linear-gradient-2" y1="86.404" y2="86.404"/><linearGradient id="linear-gradient-13" x1="289.377" x2="-82.397" xlink:href="#linear-gradient-2" y1="43.646" y2="43.646"/><linearGradient id="linear-gradient-14" gradientUnits="userSpaceOnUse" x1="247.79" x2="278.143" y1="112.462" y2="167.874"><stop offset="0" stop-color="#ed7d7a"/><stop offset="1" stop-color="#d35454"/></linearGradient><linearGradient id="linear-gradient-15" x1="260.649" x2="260.649" xlink:href="#linear-gradient" y1="53.702" y2="162.968"/><path d="m287.769 165.732a58.9 58.9 0 0 1 -11.069-11.424 13.322 13.322 0 0 1 -1.108-1.868c-9.764-5.4-19.209-8.577-28.252-8.967v1.647a15.985 15.985 0 0 1 -2.734 9.188 58.934 58.934 0 0 1 -11.073 11.424c-11.012 8.9-23.038 26.256-21.848 53.081l-.082 94.633h98.018v-94.633c1.186-26.825-10.84-44.183-21.852-53.081z" fill="url(#linear-gradient)"/><path d="m218.505 30.229a5.38 5.38 0 0 0 -7.851-7.357 104.774 104.774 0 0 0 -19.554 33.073c-6.737 18.493-10.507 46.753 9.79 76.355 7.175 10.464 3.64 25.654-9 38.7a79.373 79.373 0 0 0 -22.277 47.043c-2.121 21.425-1.122 53.7 2.97 95.923a5.379 5.379 0 0 0 5.348 4.86c.174 0 .349-.008.525-.025a5.38 5.38 0 0 0 4.836-5.873c-4.025-41.529-5.025-73.1-2.973-93.825a68.581 68.581 0 0 1 19.3-40.616c16.364-16.881 20.35-37.4 10.153-52.269-14.151-20.632-17.072-42.918-8.685-66.247a95.547 95.547 0 0 1 17.418-29.742z" fill="url(#linear-gradient-2)"/><path d="m139.667 240.332a5.379 5.379 0 0 0 -5.332-5.425h-.048a5.38 5.38 0 0 0 -5.378 5.333c-.314 36.386 3.538 73.4 3.577 73.77a5.379 5.379 0 0 0 5.343 4.815 5.209 5.209 0 0 0 .57-.03 5.377 5.377 0 0 0 4.786-5.913c-.038-.363-3.827-36.793-3.518-72.55z" fill="url(#linear-gradient-3)"/><path d="m161.658 42.244a5.378 5.378 0 0 0 -7.23 2.363c-8.5 16.755-16 44.209-3.456 79.864a33.5 33.5 0 0 1 -3.241 29.324c-7.818 12.254-13.187 27.362-15.956 44.9-.59 3.732-1.1 7.828-1.5 12.174a5.38 5.38 0 0 0 4.852 5.859c.171.016.341.023.51.023a5.379 5.379 0 0 0 5.349-4.875c.388-4.122.866-7.992 1.42-11.5 2.538-16.072 7.382-29.8 14.4-40.8a44.187 44.187 0 0 0 4.321-38.681c-11.282-32.07-4.65-56.542 2.9-71.426a5.379 5.379 0 0 0 -2.369-7.225z" fill="url(#linear-gradient-4)"/><path d="m173.017 32.785a5.364 5.364 0 0 0 3.82-1.591c.385-.389.622-.609.673-.656a5.379 5.379 0 0 0 -7.217-7.979s-.4.355-1.1 1.059a5.379 5.379 0 0 0 3.82 9.167z" fill="url(#linear-gradient-5)"/><path d="m94.194 209.227a5.379 5.379 0 0 0 -10.67-1.377c-6.739 52.234 2.376 104.35 2.762 106.541a5.379 5.379 0 0 0 10.591-1.891c-.092-.519-9.204-52.726-2.683-103.273z" fill="url(#linear-gradient-6)"/><path d="m95.512 177.956a5.378 5.378 0 0 0 -6.615 3.756l-.329 1.2a5.379 5.379 0 1 0 10.384 2.815l.316-1.157a5.378 5.378 0 0 0 -3.756-6.614z" fill="url(#linear-gradient-7)"/><path d="m129.1 30.679a5.38 5.38 0 0 0 -6.9-8.258c-.458.382-11.33 9.568-19.193 26.854-7.21 15.848-13.2 41.852-.79 75.735a29.441 29.441 0 0 1 -.861 22.256c-1.17 2.615-2.31 5.289-3.392 7.947a5.38 5.38 0 1 0 9.966 4.054c1.035-2.546 2.128-5.106 3.247-7.61a40.142 40.142 0 0 0 1.143-30.347c-8.886-24.261-8.794-46.844.272-67.121 6.763-15.11 16.281-23.314 16.508-23.51z" fill="url(#linear-gradient-8)"/><path d="m45.4 308.105a5.38 5.38 0 0 0 -10.641 1.59c.445 2.975.738 4.626.751 4.695a5.379 5.379 0 0 0 10.59-1.89c0-.013-.282-1.587-.7-4.395z" fill="url(#linear-gradient-9)"/><path d="m37.8 290.67a5.379 5.379 0 0 0 4.887-5.83 386.755 386.755 0 0 1 -.7-61.507 5.379 5.379 0 1 0 -10.727-.819 397.932 397.932 0 0 0 .712 63.27 5.38 5.38 0 0 0 5.353 4.907c.151 0 .311-.007.475-.021z" fill="url(#linear-gradient-10)"/><path d="m58.145 110.432a5.379 5.379 0 1 0 -10.415 2.695c1.014 3.918 2.264 7.916 3.717 11.883a29.446 29.446 0 0 1 -.861 22.256 238.493 238.493 0 0 0 -15.409 46.439 5.379 5.379 0 1 0 10.523 2.24 227.542 227.542 0 0 1 14.707-44.288 40.142 40.142 0 0 0 1.142-30.347c-1.332-3.639-2.478-7.299-3.404-10.878z" fill="url(#linear-gradient-11)"/><path d="m49.615 92.381h.018a5.38 5.38 0 0 0 5.367-5.397c0-.377 0-.751 0-1.124a5.379 5.379 0 1 0 -10.758-.107q-.006.63 0 1.266a5.38 5.38 0 0 0 5.373 5.362z" fill="url(#linear-gradient-12)"/><path d="m71.43 22.421c-.628.524-15.479 13.1-22.978 36.686a5.379 5.379 0 1 0 10.248 3.261c6.5-20.427 19.47-31.557 19.63-31.692a5.379 5.379 0 0 0 -6.9-8.255z" fill="url(#linear-gradient-13)"/><path d="m247.336 128.4v15.071c5.716 3.526 14.9 7.561 28.257 8.964a16.753 16.753 0 0 1 -1.631-7.317v-16.718z" fill="url(#linear-gradient-14)"/><path d="m291.9 91.462s7.486-38.491-21.156-47.314a34.355 34.355 0 0 0 -20.194 0c-28.64 8.823-21.15 47.314-21.15 47.314s-7.6-4.557-7.6 8.464 10.418 14.325 10.418 14.325a29.037 29.037 0 0 0 16.493 19.255 28.385 28.385 0 0 0 23.876 0 29.037 29.037 0 0 0 16.493-19.255s10.418-1.3 10.418-14.325-7.598-8.464-7.598-8.464z" fill="url(#linear-gradient-15)"/><g fill="#fff"><ellipse cx="246.953" cy="94.648" rx="7.735" ry="9.405" transform="matrix(.997 -.083 .083 .997 -6.979 20.738)"/><ellipse cx="274.345" cy="94.648" rx="9.405" ry="7.735" transform="matrix(.083 -.997 .997 .083 157.343 360.23)"/></g></svg>