<svg clip-rule="evenodd" fill-rule="evenodd" height="512" image-rendering="optimizeQuality" shape-rendering="geometricPrecision" text-rendering="geometricPrecision" viewBox="0 0 1707 1707" width="512" xmlns="http://www.w3.org/2000/svg"><g id="Layer_x0020_1"><path d="m853 1707c-6 0-12-4-15-10-19-42-44-92-75-155-47 52-84 95-113 130-5 5-11 7-18 6-6-2-10-7-12-14-8-45-18-100-33-169-58 39-105 70-142 97-6 3-13 4-18 0-6-3-9-9-9-16 4-45 8-102 12-171-66 22-120 40-163 56-6 2-12 0-17-4-5-5-6-12-4-18 16-43 34-96 56-163-70 4-126 8-172 12-6 1-12-2-16-8-3-6-3-13 1-18 27-38 58-85 96-143-68-14-123-25-169-33-6-1-11-6-13-12s1-13 6-17c35-29 77-67 129-113-62-31-113-56-154-76-6-2-10-8-10-15 0-6 4-12 10-15 41-19 92-44 154-75-52-47-94-84-129-113-5-5-8-11-6-18 2-6 7-10 13-12 46-8 101-18 169-33-38-58-69-105-96-142-4-6-4-13-1-18 4-6 10-9 16-9 46 4 102 8 172 12-22-66-40-119-56-163-2-6-1-12 4-17s11-6 17-4c43 16 97 34 163 56-4-70-8-126-12-172 0-6 3-12 9-16 5-3 12-3 18 1 37 27 84 58 142 96 15-68 25-124 33-169 2-6 6-11 12-13 7-2 13 1 18 6 29 35 66 77 113 129 31-62 56-113 75-154 3-6 9-10 15-10 7 0 13 4 15 10 20 41 45 92 76 154 47-52 84-94 113-129 4-5 11-8 17-6s11 7 12 13c8 46 19 101 33 169 59-38 105-69 143-96 5-4 12-4 18-1 6 4 9 10 8 16-4 46-8 102-12 172 67-22 120-40 163-56 6-2 13-1 18 4 4 5 6 11 4 17-16 44-35 97-56 163 69-4 126-8 171-12 7 0 13 3 16 9 4 5 3 12 0 18-27 37-58 84-97 142 69 15 124 25 169 33 7 2 12 6 14 12 1 7-1 13-6 18-35 29-78 66-130 113 63 31 114 56 155 75 6 3 10 9 10 15 0 7-4 13-10 15-42 20-93 45-155 76 52 47 95 84 130 113 5 4 7 11 6 17-2 6-7 11-14 12-45 8-100 19-169 33 39 59 70 105 97 143 3 5 4 12 0 18-3 6-9 9-16 8-45-4-102-8-171-12 21 67 40 120 56 163 2 6 0 13-4 18-5 4-12 6-18 4-43-16-96-35-163-56 4 70 8 126 12 171 1 7-2 13-8 16-6 4-13 3-18 0-38-27-85-59-143-97-14 69-25 124-33 169-1 7-6 12-12 14-6 1-13-1-17-6-29-35-66-78-113-130-31 62-56 113-76 155-2 6-8 10-15 10z" fill="#ff812d"/><g id="_579679048"><path d="m823 1372c-138 0-268-54-366-152s-152-228-152-367c0-138 54-268 152-366s228-152 366-152c40 0 80 5 119 14 4 1 7 4 8 8v5 5l-64 198 62 67c3 3 3 8 1 11l-75 157c4 3 12 6 18 8 26 11 59 24 63 47v3l-9 49 9 53c0 3-1 6-3 8l-68 73 63 15c5 1 8 6 8 12l-9 48 9 53v3l-9 49 9 53v3l-9 48 4 21c1 6-3 11-8 12-39 9-79 14-119 14z" fill="#e8b5b1"/><g fill="#d6948c"><path d="m479 1241c-7-6-14-13-21-20 123-17 252-14 384 10 36 7 72 11 108 13l3 23c-38-2-77-7-115-14-123-22-244-26-359-12z"/><path d="m337 1035c-2-7-5-14-7-21 99-28 279-59 512-17 24 5 49 8 73 11l-19 20c-19-2-39-5-58-9-227-41-404-11-501 16z"/><path d="m307 810c0-8 1-16 2-25 103-31 289-67 533-22 15 3 31 5 46 7l-10 22c-14-2-27-4-40-7-247-45-433-7-531 25z"/><path d="m402 551 21-27c101-17 245-27 419 5 17 3 35 6 53 8l-7 22c-17-2-34-5-50-8-185-34-335-20-436 0z"/></g><path d="m1118 1315c-3 0-5-1-6-2-3-3-5-6-4-10l7-45-4-23c0-1 0-1 0-2v-265c0-7-1-15-2-22-1-2-1-5-2-7 0-5 3-9 7-11l74-23-77-60c-3-2-4-5-4-9l8-49-8-49c0-4 2-8 5-10l57-32-58-52c-3-2-4-6-4-9l8-49-4-23c0-1 0-1 0-1 0-6 0-24 0-52 0-33 1-81-1-89 0 0 0-1 0-2 1-6 1-11 1-15s2-7 5-9c3-1 7-1 10 0 170 90 276 266 276 458 0 97-27 191-78 273-49 80-119 144-202 187-1 1-3 2-4 2z" fill="#e8b5b1"/><path d="m1115 1259v-1l-3-21c54-7 107-21 159-39-11 12-22 23-34 35-40 12-81 21-122 26z" fill="#d6948c"/><path d="m1111 1026v-23c129-18 227-63 286-98 1-1 2-1 2-1-1 9-2 18-3 27-63 35-160 77-285 95z" fill="#e8b5b1"/><path d="m1114 791 1-4-3-18c115-17 205-55 261-85 3 7 5 14 7 22-58 30-150 69-266 85z" fill="#d6948c"/><path d="m1111 558c0-5 0-13 0-23 51-7 102-20 150-36 6 5 11 12 16 18-53 19-109 33-166 41z" fill="#d6948c"/><path d="m649 936c-73 0-151-23-151-65 0-41 78-64 151-64s151 23 151 64c0 42-78 65-151 65z" fill="#495560"/></g></g></svg>