<svg id="a2ea93c1-0bbd-4c2d-b830-c04af2a7cbbb" data-name="Layer 1" xmlns="http://www.w3.org/2000/svg" xmlns:xlink="http://www.w3.org/1999/xlink" viewBox="0 0 2000 2000"><defs><style>.a871b567-50df-41be-a7f6-ad0ce2c8c086{fill:none;}.ffe17229-c78f-454e-ae96-76a471e9fe90{fill:#aed76a;}.b06d129c-b1a5-42a8-9cd8-04a26f4f496c{clip-path:url(#b83446f0-f83f-4961-86f9-ebcbabbd43f1);}.ee61ee0c-61ee-46c4-897c-14f91a35a9d2{fill:#fecfae;}.ac2a7511-f43b-42b5-899a-5b08001dece2{fill:#bc4d3b;}.a2ca8224-01a9-4bc0-8d4a-50008f2382da{fill:#993a23;}.e60ebbd5-5065-4b12-9b7f-a306aff70386{fill:#aa4226;}.bec613e1-3156-4c21-95b4-3dc0a63e0635{fill:#f9ebe8;}.e666e448-7502-4f44-a4fb-fe35251677c6{fill:#c9b3ad;}.ad0330a3-257b-487c-a41f-db9adb1d39bd{fill:#ead2cc;}.ad1369fe-7165-4dfe-a4fa-d02e1554372d{fill:#77a22f;}.f1331982-9726-47aa-bf0c-48bf78878839{clip-path:url(#a019d409-06a2-4e00-a421-bba63f0b2e9e);}.bd13d07e-7c3f-430f-81f8-3ec7802f4041{fill:#8abd32;}.b7fec1a4-6580-4b9e-907e-4745dda9eb33{fill:#4e8bc1;}.f177714b-ee62-44e2-802c-b5a2bf924f93{fill:#1e1713;}.bf8af24d-a8b0-40b1-b3a5-e5bbdd9818a1{fill:#387bad;}.ae522326-0e7f-40f5-b776-7d884aab40b9{fill:#5597c9;}.aaf05d45-8220-45fc-8ddb-2bdc16b3080c{fill:#1572a0;}.bf2ecda0-babf-45d0-ab8d-c8767cb137e5{fill:#d6c5c1;}.f8222836-e249-4f4c-b2d1-19305b906e4a{fill:#61a6d1;}.bde07b66-8662-4157-8157-6e5e6c170587{fill:#b2a19d;}.b491f75c-ac64-4559-b638-5a8384ce5d7a{clip-path:url(#b3db6015-bc3f-45a8-be98-59c5619acc91);}.bc3b81da-e562-4d03-b46c-b5f4fc7cba94{clip-path:url(#bae1a625-b86d-44ee-ae1b-84c01d9651de);}.b83a496f-7af1-4ca4-8820-928773c0a8df{clip-path:url(#b385cd97-fd13-4b28-b416-860dab4ab13c);}.ba3f14e5-1cfc-44b4-a1b0-b6a671a64e1b{fill:#afd86a;}</style><clipPath id="b83446f0-f83f-4961-86f9-ebcbabbd43f1"><path class="a871b567-50df-41be-a7f6-ad0ce2c8c086" d="M755.93,1092.28s-362.82-189.11-637.74,91.55C-44.23,1349.65-10,2074.15,1018.29,1825.3c123.69-29.94,245.77-64.76,360.82-115.17,73.42-32.17,269.8-15.47,379.47-48.09,230.2-68.49,261.33-350.82,101.15-493C1706.44,1032.88,1234.58,712.23,755.93,1092.28Z"/></clipPath><clipPath id="a019d409-06a2-4e00-a421-bba63f0b2e9e"><path class="a871b567-50df-41be-a7f6-ad0ce2c8c086" d="M368.91,1035.51C287.84,1012.75,299,1096.2,299,1096.2s-39.52-29.82-62.86,43.7c-21.19-11.87-47.45-18.06-56.62,15.7-11.53,42.45,38.14,51.85,67.05,36.77,32.38,18.75,104.87-2.88,104.87-2.88l92.9-37.6S439.72,1055.39,368.91,1035.51Z"/></clipPath><clipPath id="b3db6015-bc3f-45a8-be98-59c5619acc91"><path class="a871b567-50df-41be-a7f6-ad0ce2c8c086" d="M1282.9,1232.44c2.41-6.74,7.31-13.17,16-18.56,27.89-17.36,49.49,19.27,49.49,19.27,15.11-3.39,23.54,4.47,23.54,4.47,9.6,7.27,11.11,16.63,9.75,25-18.09,63.14-83.33,48.48-83.33,48.48-7-.09-21.94,10.82-55-3.52C1202,1289.57,1215,1217.62,1282.9,1232.44Z"/></clipPath><clipPath id="bae1a625-b86d-44ee-ae1b-84c01d9651de"><path class="a871b567-50df-41be-a7f6-ad0ce2c8c086" d="M1719.37,1032.76c-1.08.25-2.2.52-3.38.82,0,0-28.32-38.73-58.65-21.06-47,28.81-15.32,66.65-15.32,66.65s-20.67-12.69-32.5,9c-10,17.08,4.77,32.12,20.06,36.41,0,0,29.37,14.62,76.13-7.58.63-.27,1.26-.54,1.88-.83l8.24-3.84a68.77,68.77,0,0,0,17.48-11.71h0a68.32,68.32,0,0,0,20.42-35.32l.09-.39a21.76,21.76,0,0,0,.45-3.43C1755.32,1042.78,1737.66,1028.47,1719.37,1032.76Z"/></clipPath><clipPath id="b385cd97-fd13-4b28-b416-860dab4ab13c"><path class="a871b567-50df-41be-a7f6-ad0ce2c8c086" d="M1370.79,1211.92l2.09-1.14s-3.44-32.63,20-37.6c37-7,38.37,26.72,38.37,26.72s4.65-15.92,20.62-10.33c12.91,4,12.33,18.46,6.56,27.65,0,0-8.17,20.9-42,31.12-.44.16-.88.31-1.33.45l-5.94,1.84a46.86,46.86,0,0,1-14.23,2.09h0a46.74,46.74,0,0,1-26.56-8.51l-.22-.16a14.37,14.37,0,0,1-1.8-1.53C1357.18,1233.5,1359.56,1218.14,1370.79,1211.92Z"/></clipPath></defs><path class="ffe17229-c78f-454e-ae96-76a471e9fe90" d="M755.93,1092.28s-362.82-189.11-637.74,91.55C-44.23,1349.65-10,2074.15,1018.29,1825.3c123.69-29.94,245.77-64.76,360.82-115.17,73.42-32.17,269.8-15.47,379.47-48.09,230.2-68.49,261.33-350.82,101.15-493C1706.44,1032.88,1234.58,712.23,755.93,1092.28Z"/><g class="b06d129c-b1a5-42a8-9cd8-04a26f4f496c"><path class="ee61ee0c-61ee-46c4-897c-14f91a35a9d2" d="M948.93,1373.3s-5,180.82,149.74,160.15,517.21-77.52,333.7,203.28l-361,75.37s299.05-151.74,174.17-204.57c-129.25-54.68-364.07,42.94-333.45-216.11"/></g><polygon class="ac2a7511-f43b-42b5-899a-5b08001dece2" points="1280.02 1275.65 1653.76 1090.29 1644.22 633.78 1466.89 464.42 1264.73 864.5 1280.02 1275.65"/><polygon class="a2ca8224-01a9-4bc0-8d4a-50008f2382da" points="664.03 609.73 664.03 1003.34 1221.83 1275.65 1208.82 874.52 664.03 609.73"/><path class="e60ebbd5-5065-4b12-9b7f-a306aff70386" d="M1319.05,816s70.61-109.18,155.07-284.64c0,0,146.49,120.25,178.12,118.3l2.74-36.57L1469,478.77,1289,800.7Z"/><polygon class="bec613e1-3156-4c21-95b4-3dc0a63e0635" points="1662.41 660.23 1289.31 850.28 1283.18 820.33 1652.24 649.7 1662.41 660.23"/><polygon class="e666e448-7502-4f44-a4fb-fe35251677c6" points="658.62 608.6 658.62 976.94 666.32 993.74 681.09 991.95 682.36 621.67 658.62 608.6"/><polygon class="ad0330a3-257b-487c-a41f-db9adb1d39bd" points="641.54 597.8 641.54 977.23 666.32 993.74 665.29 612.35 641.54 597.8"/><path class="bec613e1-3156-4c21-95b4-3dc0a63e0635" d="M1498.1,722.73l-148-52.41s-6,22.85,11.76,32.16,98.87,34.87,98.87,34.87Z"/><path class="ad0330a3-257b-487c-a41f-db9adb1d39bd" d="M1491.65,726l-145.82-49.9s-6,22.85,11.73,32.19,97.52,33.24,97.52,33.24Z"/><path class="ad1369fe-7165-4dfe-a4fa-d02e1554372d" d="M266,1161.74s-70.18-66.12-86.48-6.14S269.16,1209.59,266,1161.74Z"/><path class="ad1369fe-7165-4dfe-a4fa-d02e1554372d" d="M351.43,1189.49s-140.58,42-117.65-41.63S299,1096.2,299,1096.2s-11.15-83.45,69.92-60.69c70.81,19.88,75.42,116.38,75.42,116.38Z"/><g class="f1331982-9726-47aa-bf0c-48bf78878839"><path class="bd13d07e-7c3f-430f-81f8-3ec7802f4041" d="M370.39,1071.31s-59.5-21.49-59.54,42.37c0,0-43.74-29.7-69.49,33.7,0,0-66.11-9.35-44.21,49.26S86,1108.3,86,1108.3l166.68-86.4L382,996S440.76,1022.72,370.39,1071.31Z"/></g><polygon class="ad0330a3-257b-487c-a41f-db9adb1d39bd" points="1277.66 837.3 1275.67 869.5 1654.97 691.28 1654.97 662.85 1277.66 837.3"/><path class="b7fec1a4-6580-4b9e-907e-4745dda9eb33" d="M1426.48,467.6c3.5-6.27,5.41-9.73,5.41-9.73l-10.16-5c-.38-1.1-.75-2.19-1.14-3.29,0,0-.67.6-1.94,1.77L821.71,159.45c-.32,37.49-13.55,61.3-49.6,152.79C724.19,433.84,632,610.49,632,610.49c253.1,186.18,525.19,276.14,525.19,276.14a12.85,12.85,0,0,0,3-1.19C1194.08,871.59,1379.54,789,1426.48,467.6Z"/><path class="bec613e1-3156-4c21-95b4-3dc0a63e0635" d="M821.17,140.77l34-8.18s160.77,122.18,631.68,298.14L1455,457.87s-246.34-57.15-275.33-90.71S831.85,167.47,831.85,167.47Z"/><polygon class="ad0330a3-257b-487c-a41f-db9adb1d39bd" points="1244.14 1301.6 1280.02 1281.98 1280.02 844.29 1233.55 873.19 1244.14 1301.6"/><polygon class="e666e448-7502-4f44-a4fb-fe35251677c6" points="1244.14 1301.6 1199.52 1276.8 1199.52 901.12 1244.14 864.5 1244.14 1301.6"/><polygon class="e666e448-7502-4f44-a4fb-fe35251677c6" points="1666.35 1106.13 1648.04 1100.46 1644.04 610.49 1688.66 667.1 1666.35 1106.13"/><path class="e666e448-7502-4f44-a4fb-fe35251677c6" d="M1186.8,902.65l-29.62-16s49.07-8.39,279.18-437.09l10.3,24.41S1320.55,837.43,1186.8,902.65Z"/><polygon class="ad0330a3-257b-487c-a41f-db9adb1d39bd" points="1704.11 1085.21 1666.35 1106.13 1666.35 642.91 1704.11 667.1 1704.11 1085.21"/><path class="ad0330a3-257b-487c-a41f-db9adb1d39bd" d="M1186.8,902.65s95.1-107.56,277-461.88l10.29,51.49S1338,783.65,1224.94,927.05Z"/><path class="e666e448-7502-4f44-a4fb-fe35251677c6" d="M821.17,177.38l54.72,36.09a2210,2210,0,0,0,563.48,266.58q6.08,1.88,11.87,3.63V440.77s-176.91,11.22-630.07-300Z"/><polyline class="ad0330a3-257b-487c-a41f-db9adb1d39bd" points="1451.24 440.77 1486.84 430.73 1486.84 464.42 1451.24 485.01"/><polygon class="e666e448-7502-4f44-a4fb-fe35251677c6" points="1040.81 1090.74 1052.11 1088.23 1057.15 909.09 966.75 869.53 955.37 870.75 1040.81 1090.74"/><polygon class="ad0330a3-257b-487c-a41f-db9adb1d39bd" points="1045.12 912.83 1040.81 1090.74 953.66 1047.47 955.37 870.75 1045.12 912.83"/><polygon class="f177714b-ee62-44e2-802c-b5a2bf924f93" points="1033.37 924.78 1030.2 1071.42 1002.3 1058.65 1007.45 911.41 1033.37 924.78"/><polygon class="f177714b-ee62-44e2-802c-b5a2bf924f93" points="966.1 890.07 996.63 905.83 991.63 1053.78 963.2 1040.77 966.1 890.07"/><polygon class="e666e448-7502-4f44-a4fb-fe35251677c6" points="1009.83 912.19 1004.86 1059.83 994 1055.09 999.01 906.61 1009.83 912.19"/><polygon class="ad0330a3-257b-487c-a41f-db9adb1d39bd" points="1004.43 902.63 998.75 1065.2 988.2 1057.22 993.55 898.91 1004.43 902.63"/><polygon class="e666e448-7502-4f44-a4fb-fe35251677c6" points="857.37 997.43 867.73 995.13 872.36 830.91 789.48 794.65 779.05 795.77 857.37 997.43"/><polygon class="ad0330a3-257b-487c-a41f-db9adb1d39bd" points="861.32 834.34 857.37 997.43 777.48 957.76 779.05 795.77 861.32 834.34"/><polygon class="f177714b-ee62-44e2-802c-b5a2bf924f93" points="850.55 845.3 847.65 979.72 822.07 968.02 826.79 833.04 850.55 845.3"/><polygon class="f177714b-ee62-44e2-802c-b5a2bf924f93" points="788.89 813.48 816.88 827.92 812.29 963.55 786.23 951.62 788.89 813.48"/><polygon class="e666e448-7502-4f44-a4fb-fe35251677c6" points="828.97 833.76 824.42 969.1 814.46 964.75 819.06 828.64 828.97 833.76"/><polygon class="ad0330a3-257b-487c-a41f-db9adb1d39bd" points="852.47 878.4 786.48 852.42 786.54 863.46 852.53 890.09 852.47 878.4"/><polygon class="ad0330a3-257b-487c-a41f-db9adb1d39bd" points="852.57 932.92 784.6 904.32 785.41 915.78 852.35 944.61 852.57 932.92"/><polygon class="ad0330a3-257b-487c-a41f-db9adb1d39bd" points="824.03 825 818.82 974.01 809.14 966.7 814.05 821.58 824.03 825"/><path class="bf8af24d-a8b0-40b1-b3a5-e5bbdd9818a1" d="M896.24,232.61S770.69,534.67,678.16,628.15c0,0,6.6,7.61,30.85-19.91S841.17,425.64,896.24,232.61Z"/><path class="bf8af24d-a8b0-40b1-b3a5-e5bbdd9818a1" d="M968.8,287.87S858,583.19,772.11,676.27c0,0,6.58,7.13,29-20.17S922.12,475.8,968.8,287.87Z"/><path class="bf8af24d-a8b0-40b1-b3a5-e5bbdd9818a1" d="M1092,360S979.67,656.8,892.27,750.7c0,0,6.74,7.11,29.54-20.42S1044.9,548.7,1092,360Z"/><path class="bf8af24d-a8b0-40b1-b3a5-e5bbdd9818a1" d="M1175.18,384.09S1058.54,689.7,968.8,785.86c0,0,6.82,7.41,30.25-20.81S1125.8,578.65,1175.18,384.09Z"/><path class="bf8af24d-a8b0-40b1-b3a5-e5bbdd9818a1" d="M1292.66,439.32s-121.23,303.82-212.42,398.62c0,0,6.71,7.51,30.56-20.35S1240.34,633.12,1292.66,439.32Z"/><polygon class="a2ca8224-01a9-4bc0-8d4a-50008f2382da" points="652.29 1369.14 385.03 1236.59 391.85 910.14 518.66 789.03 663.22 1075.13 652.29 1369.14"/><polygon class="ac2a7511-f43b-42b5-899a-5b08001dece2" points="1092.78 892.94 1092.78 1174.41 693.9 1369.14 703.2 1082.29 1092.78 892.94"/><path class="b7fec1a4-6580-4b9e-907e-4745dda9eb33" d="M547.55,791.3l-3.86-6.95,7.26-3.61c.27-.78.53-1.56.82-2.35l1.38,1.26L980,570.94c.23,26.82,9.69,43.84,35.47,109.27,34.27,87,121.79,199.41,121.79,199.41C956.29,1012.76,740.13,1091,740.13,1091a9.33,9.33,0,0,1-2.13-.85C713.75,1080.2,581.12,1021.13,547.55,791.3Z"/><path class="bec613e1-3156-4c21-95b4-3dc0a63e0635" d="M980.41,557.59l-24.31-5.85s-115,87.37-451.71,213.2l22.76,19.41S703.31,743.48,724,719.48s248.74-142.8,248.74-142.8Z"/><path class="e60ebbd5-5065-4b12-9b7f-a306aff70386" d="M1092.78,909.93v11.38s-123.28,94.91-382.92,194.18v-30.27Z"/><polygon class="e666e448-7502-4f44-a4fb-fe35251677c6" points="1082.38 914.63 1082.38 1178.03 1075.76 1190.04 1063.06 1188.76 1061.97 923.98 1082.38 914.63"/><polygon class="ad0330a3-257b-487c-a41f-db9adb1d39bd" points="1097.07 906.91 1097.07 1178.24 1075.76 1190.04 1076.64 917.31 1097.07 906.91"/><polygon class="e666e448-7502-4f44-a4fb-fe35251677c6" points="677.95 1387.69 652.29 1373.67 652.29 1060.67 685.51 1081.34 677.95 1387.69"/><polygon class="ad0330a3-257b-487c-a41f-db9adb1d39bd" points="677.95 1387.69 709.86 1369.96 709.86 1101.31 677.95 1075.13 677.95 1387.69"/><polygon class="ad0330a3-257b-487c-a41f-db9adb1d39bd" points="376.03 1247.91 389.12 1243.86 391.98 893.49 360.07 933.97 376.03 1247.91"/><path class="ad0330a3-257b-487c-a41f-db9adb1d39bd" d="M719,1102.4,740.13,1091S705,1085,540.49,778.39l-7.37,17.46S623.31,1055.77,719,1102.4Z"/><polygon class="e666e448-7502-4f44-a4fb-fe35251677c6" points="349.02 1232.95 376.03 1247.91 376.03 916.67 349.02 933.97 349.02 1232.95"/><path class="e666e448-7502-4f44-a4fb-fe35251677c6" d="M719,1102.4s-68-76.91-198.1-330.28l-7.36,36.82s97.36,208.37,178.18,310.92Z"/><path class="e666e448-7502-4f44-a4fb-fe35251677c6" d="M518.76,810.76S385.21,930.94,325.48,943.49l-14.09-26.82S448,843.85,513.49,768.57L521.85,792Z"/><path class="ad0330a3-257b-487c-a41f-db9adb1d39bd" d="M980.41,583.77l-39.13,25.8A1580.58,1580.58,0,0,1,538.34,800.21c-2.9.89-5.73,1.76-8.49,2.59V772.12S742.4,718.51,980.41,557.59Z"/><polyline class="e666e448-7502-4f44-a4fb-fe35251677c6" points="529.85 772.12 504.39 764.94 504.39 789.03 529.85 803.75"/><polygon class="e666e448-7502-4f44-a4fb-fe35251677c6" points="974.16 1181.09 966.75 1179.44 963.44 1062.01 1022.71 1036.08 1030.16 1036.88 974.16 1181.09"/><polygon class="ad0330a3-257b-487c-a41f-db9adb1d39bd" points="971.33 1064.47 974.16 1181.09 1031.29 1152.73 1030.16 1036.88 971.33 1064.47"/><polygon class="f177714b-ee62-44e2-802c-b5a2bf924f93" points="979.04 1072.3 981.11 1168.43 999.4 1160.06 996.03 1063.54 979.04 1072.3"/><polygon class="f177714b-ee62-44e2-802c-b5a2bf924f93" points="1023.13 1049.55 1003.12 1059.88 1006.39 1156.86 1025.03 1148.34 1023.13 1049.55"/><polygon class="e666e448-7502-4f44-a4fb-fe35251677c6" points="994.47 1064.05 997.72 1160.83 1004.85 1157.73 1001.55 1060.39 994.47 1064.05"/><polygon class="ad0330a3-257b-487c-a41f-db9adb1d39bd" points="977.66 1095.97 1024.85 1077.39 1024.81 1085.29 977.62 1104.34 977.66 1095.97"/><polygon class="ad0330a3-257b-487c-a41f-db9adb1d39bd" points="977.6 1134.96 1026.2 1114.51 1025.62 1122.7 977.75 1143.32 977.6 1134.96"/><polygon class="ad0330a3-257b-487c-a41f-db9adb1d39bd" points="998 1057.79 1001.73 1164.35 1008.65 1159.12 1005.14 1055.34 998 1057.79"/><path class="bf8af24d-a8b0-40b1-b3a5-e5bbdd9818a1" d="M926.73,623.26s89.78,216,155.94,282.86c0,0-4.71,5.44-22.05-14.24S966.11,761.3,926.73,623.26Z"/><path class="bf8af24d-a8b0-40b1-b3a5-e5bbdd9818a1" d="M874.84,662.78S954.11,874,1015.49,940.52c0,0-4.7,5.1-20.72-14.42S908.22,797.17,874.84,662.78Z"/><path class="bf8af24d-a8b0-40b1-b3a5-e5bbdd9818a1" d="M806.21,697.22s80.34,212.26,142.84,279.41c0,0-4.82,5.08-21.12-14.6S839.91,832.18,806.21,697.22Z"/><path class="bf8af24d-a8b0-40b1-b3a5-e5bbdd9818a1" d="M727.26,731.58s83.41,218.54,147.58,287.31c0,0-4.87,5.3-21.63-14.88S762.57,870.71,727.26,731.58Z"/><path class="bf8af24d-a8b0-40b1-b3a5-e5bbdd9818a1" d="M643.25,771.08s86.69,217.26,151.9,285.05c0,0-4.8,5.38-21.85-14.55S680.66,909.66,643.25,771.08Z"/><polygon class="ad0330a3-257b-487c-a41f-db9adb1d39bd" points="846.74 1197.49 899.76 1175.19 899.12 1184.12 846.9 1206.61 846.74 1197.49"/><polygon class="ac2a7511-f43b-42b5-899a-5b08001dece2" points="1245.51 1172.69 1254.95 1149.79 1238.89 1109.45 1210.38 1075.73 1131.37 1104.64 1072.1 1210.15 1075.71 1370.27 1232.94 1297.65 1245.51 1172.69"/><polygon class="e60ebbd5-5065-4b12-9b7f-a306aff70386" points="1252.17 1157.48 1240.69 1108.83 1206.03 1080.8 1130.32 1109.45 1069.32 1223.14 1090.94 1240.79 1100.8 1185.29 1139.7 1120.78 1202 1094.59 1226.38 1117.17 1245.51 1159.85 1252.17 1157.48"/><polygon class="e666e448-7502-4f44-a4fb-fe35251677c6" points="1140.23 1211.13 1083.29 1185.11 1092.25 1169.07 1158.73 1202.02 1140.23 1211.13"/><path class="bec613e1-3156-4c21-95b4-3dc0a63e0635" d="M1209.47,1175.6s21.56-43.39,24.76-54.37-8.55-17.54-8.55-17.54l-37,81.5Z"/><polygon class="ad0330a3-257b-487c-a41f-db9adb1d39bd" points="1142.16 1208.17 1085.22 1182.16 1094.18 1166.11 1160.66 1199.06 1142.16 1208.17"/><path class="ad0330a3-257b-487c-a41f-db9adb1d39bd" d="M1213.55,1176.17s21.58-43.39,24.77-54.38-8.58-17.54-8.58-17.54l-37,80.94Z"/><path class="bec613e1-3156-4c21-95b4-3dc0a63e0635" d="M1564.44,690.6s32.93-66.31,37.84-83.09-13.08-26.8-13.08-26.8l-56.53,124.53Z"/><path class="ad0330a3-257b-487c-a41f-db9adb1d39bd" d="M1570.68,691.47s33-66.31,37.84-83.1-13.11-26.8-13.11-26.8L1538.9,705.24Z"/><polygon class="bec613e1-3156-4c21-95b4-3dc0a63e0635" points="1255.76 1161.19 1075.9 1252.81 1072.94 1238.37 1250.86 1156.12 1255.76 1161.19"/><path class="e666e448-7502-4f44-a4fb-fe35251677c6" d="M1247.37,1106.58c-.87-5.79-25.15-19.09-31.8-25.44s-12.14,1.93-12.14,1.93c7.07,11.18,31.51,28.42,31.51,28.42-.53,21.7,22.84,61.21,22.84,61.21l11.17,3.47S1248.24,1112.36,1247.37,1106.58Z"/><path class="ae522326-0e7f-40f5-b776-7d884aab40b9" d="M1110.94,1109.46,971,1085.75l-35.84-66.48,19.62-6.88c19.83-7,39.85-15.14,58.12-25.53l.3,0h0l185.7,81.71Z"/><path class="e666e448-7502-4f44-a4fb-fe35251677c6" d="M1067.09,1172.7l11.86,3.47s-5.3,85.51-22.93,98.86l-8.61-3.54s19.58-58.27,19-97.57"/><path class="b7fec1a4-6580-4b9e-907e-4745dda9eb33" d="M1072.94,1180.67l38-78L935.2,1019.27c-18.5,38.16-49.73,67.06-49.73,67.06Z"/><path class="aaf05d45-8220-45fc-8ddb-2bdc16b3080c" d="M855.44,1181.43h0a349.4,349.4,0,0,0,29.42-91.57l.61-3.53,190.43,89.84L1056,1275l-57.67-23.76Z"/><polygon class="a2ca8224-01a9-4bc0-8d4a-50008f2382da" points="1067.09 1270.48 983.02 1231.46 986.76 1343.63 1067.09 1380.88 1067.09 1270.48"/><path class="bf2ecda0-babf-45d0-ab8d-c8767cb137e5" d="M1133.29,1107c-8.86,5.4-23.51,36.63-32,47s-26.59,74.36-25.41,84.09-19.88,37-19.88,37l-12.73-7c17.94-38.8,26-96.16,26-96.16l41.64-69.18C1118.27,1098.86,1142.16,1101.58,1133.29,1107Z"/><path class="bec613e1-3156-4c21-95b4-3dc0a63e0635" d="M1123,1107.08l-12.06-4.37,89-35.84,10.41,3.47C1210.76,1073.81,1123,1107.08,1123,1107.08Z"/><polygon class="a2ca8224-01a9-4bc0-8d4a-50008f2382da" points="839.01 1315.24 788.11 1214.49 743.45 1257.14 741.05 1372.1 835.17 1418.77 839.01 1315.24"/><polygon class="ac2a7511-f43b-42b5-899a-5b08001dece2" points="853.1 1317.76 849.82 1418.77 990.28 1350.2 990.28 1251.08 853.1 1317.76"/><path class="b7fec1a4-6580-4b9e-907e-4745dda9eb33" d="M865.34,1320.51a3.46,3.46,0,0,0,.75.3s68.52-22.65,132.25-69.54c0,0-23.23-44.48-35.28-75.1-9.08-23-12.41-29-12.49-38.47l-150.32,73.49-.48-.44c-.1.27-.19.55-.29.82l-2.56,1.27,1.36,2.45C810.1,1296.22,856.81,1317,865.34,1320.51Z"/><path class="bec613e1-3156-4c21-95b4-3dc0a63e0635" d="M948,1139.71s-80.29,41.83-87.59,50.28-69.33,22.83-69.33,22.83l-8-6.81c118.58-44.31,159.06-75.08,159.06-75.08l8.56,2.06Z"/><path class="e60ebbd5-5065-4b12-9b7f-a306aff70386" d="M855.44,1318.77v10.66c91.44-35,134.84-68.38,134.84-68.38v-4Z"/><polygon class="e666e448-7502-4f44-a4fb-fe35251677c6" points="979.43 1262.01 979.82 1355.25 984.28 1355.7 986.62 1351.47 986.62 1258.72 979.43 1262.01"/><polygon class="ad0330a3-257b-487c-a41f-db9adb1d39bd" points="984.6 1259.66 984.28 1355.7 991.79 1351.54 991.79 1256 984.6 1259.66"/><polygon class="e666e448-7502-4f44-a4fb-fe35251677c6" points="846.87 1317.42 835.17 1310.15 835.17 1420.36 844.2 1425.3 846.87 1317.42"/><polygon class="ad0330a3-257b-487c-a41f-db9adb1d39bd" points="844.2 1315.24 855.44 1324.45 855.44 1419.06 844.2 1425.3 844.2 1315.24"/><polygon class="e666e448-7502-4f44-a4fb-fe35251677c6" points="1072.94 1262.51 1061.24 1254.08 1061.24 1381.82 1070.28 1387.54 1072.94 1262.51"/><polygon class="ad0330a3-257b-487c-a41f-db9adb1d39bd" points="1070.28 1259.97 1081.52 1254.08 1081.52 1380.3 1070.28 1387.54 1070.28 1259.97"/><polygon class="e666e448-7502-4f44-a4fb-fe35251677c6" points="1242.69 1176.16 1231.55 1179.4 1231.55 1298.36 1240.15 1302.74 1242.69 1176.16"/><polygon class="ad0330a3-257b-487c-a41f-db9adb1d39bd" points="1240.15 1176.9 1250.86 1171.31 1250.86 1297.85 1240.15 1302.74 1240.15 1176.9"/><polygon class="ad0330a3-257b-487c-a41f-db9adb1d39bd" points="732.26 1265.53 743.5 1251.27 742.49 1374.65 737.88 1376.08 732.26 1265.53"/><path class="ad0330a3-257b-487c-a41f-db9adb1d39bd" d="M793.2,1216.89l2.6-6.14c57.94,108,70.3,110.06,70.3,110.06l-7.46,4C825,1308.42,793.2,1216.89,793.2,1216.89Z"/><polygon class="e666e448-7502-4f44-a4fb-fe35251677c6" points="728.37 1265.53 737.88 1259.44 737.88 1376.08 728.37 1370.81 728.37 1265.53"/><path class="e666e448-7502-4f44-a4fb-fe35251677c6" d="M849,1331c-28.47-36.1-62.75-109.47-62.75-109.47l2.59-13c45.81,89.23,69.76,116.31,69.76,116.31Z"/><path class="e666e448-7502-4f44-a4fb-fe35251677c6" d="M789.25,1215.54l-3-8.25c-23,26.5-71.16,52.15-71.16,52.15l5,9.44c21-4.42,68.06-46.74,68.06-46.74Z"/><path class="ad0330a3-257b-487c-a41f-db9adb1d39bd" d="M950.71,1133c-114.11,78.37-158.66,75.54-158.66,75.54v10.81c1-.29,2-.6,3-.92a555.81,555.81,0,0,0,141.89-67.13l13.78-9.08Z"/><polyline class="e666e448-7502-4f44-a4fb-fe35251677c6" points="792.05 1219.68 783.08 1214.49 783.08 1206.01 792.05 1208.54"/><polygon class="ad0330a3-257b-487c-a41f-db9adb1d39bd" points="769.43 1291.33 772.94 1290.89 801.07 1302.64 800.44 1357.99 796.96 1358.83 769.43 1291.33"/><polygon class="e666e448-7502-4f44-a4fb-fe35251677c6" points="769.43 1291.33 769.82 1345.92 796.96 1358.83 797.37 1303.86 769.43 1291.33"/><polygon class="f177714b-ee62-44e2-802c-b5a2bf924f93" points="785.73 1303.62 784.9 1349.12 793.59 1352.92 793.8 1307.61 785.73 1303.62"/><polygon class="f177714b-ee62-44e2-802c-b5a2bf924f93" points="772.74 1343.8 781.58 1347.67 782.36 1301.95 772.84 1297.24 772.74 1343.8"/><polygon class="ad0330a3-257b-487c-a41f-db9adb1d39bd" points="783.1 1302.17 782.32 1348.06 785.7 1349.47 786.46 1303.84 783.1 1302.17"/><polygon class="e666e448-7502-4f44-a4fb-fe35251677c6" points="794.72 1322.69 772.33 1314.1 772.25 1310.37 794.63 1318.75 794.72 1322.69"/><polygon class="e666e448-7502-4f44-a4fb-fe35251677c6" points="794.97 1341.06 772.25 1331.73 771.91 1327.87 794.98 1337.12 794.97 1341.06"/><polygon class="e666e448-7502-4f44-a4fb-fe35251677c6" points="781.37 1299.83 780.54 1348.75 783.84 1351.16 784.75 1300.92 781.37 1299.83"/><polygon class="ad0330a3-257b-487c-a41f-db9adb1d39bd" points="529.76 1208.31 533.27 1207.87 561.4 1219.62 560.77 1274.97 557.3 1275.81 529.76 1208.31"/><polygon class="e666e448-7502-4f44-a4fb-fe35251677c6" points="529.76 1208.31 530.16 1262.9 557.3 1275.81 557.7 1220.84 529.76 1208.31"/><polygon class="f177714b-ee62-44e2-802c-b5a2bf924f93" points="546.06 1220.6 545.24 1266.1 553.92 1269.9 554.13 1224.59 546.06 1220.6"/><polygon class="f177714b-ee62-44e2-802c-b5a2bf924f93" points="533.07 1260.78 541.92 1264.65 542.69 1218.93 533.17 1214.22 533.07 1260.78"/><polygon class="ad0330a3-257b-487c-a41f-db9adb1d39bd" points="543.43 1219.15 542.65 1265.04 546.04 1266.45 546.8 1220.82 543.43 1219.15"/><polygon class="e666e448-7502-4f44-a4fb-fe35251677c6" points="555.05 1239.67 532.67 1231.08 532.59 1227.35 554.97 1235.73 555.05 1239.67"/><polygon class="e666e448-7502-4f44-a4fb-fe35251677c6" points="555.3 1258.04 532.59 1248.71 532.25 1244.85 555.31 1254.1 555.3 1258.04"/><polygon class="e666e448-7502-4f44-a4fb-fe35251677c6" points="541.7 1216.81 540.87 1265.73 544.17 1268.14 545.08 1217.9 541.7 1216.81"/><polygon class="ad0330a3-257b-487c-a41f-db9adb1d39bd" points="430.53 1170.93 434.05 1170.49 462.17 1182.24 461.55 1237.6 458.07 1238.43 430.53 1170.93"/><polygon class="e666e448-7502-4f44-a4fb-fe35251677c6" points="430.53 1170.93 430.93 1225.52 458.07 1238.43 458.48 1183.46 430.53 1170.93"/><polygon class="f177714b-ee62-44e2-802c-b5a2bf924f93" points="446.83 1183.22 446.01 1228.73 454.69 1232.53 454.91 1187.21 446.83 1183.22"/><polygon class="f177714b-ee62-44e2-802c-b5a2bf924f93" points="433.84 1223.41 442.69 1227.27 443.46 1181.55 433.95 1176.85 433.84 1223.41"/><polygon class="ad0330a3-257b-487c-a41f-db9adb1d39bd" points="444.21 1181.78 443.43 1227.67 446.81 1229.08 447.57 1183.45 444.21 1181.78"/><polygon class="e666e448-7502-4f44-a4fb-fe35251677c6" points="455.83 1202.3 433.44 1193.7 433.36 1189.98 455.74 1198.36 455.83 1202.3"/><polygon class="e666e448-7502-4f44-a4fb-fe35251677c6" points="456.08 1220.67 433.36 1211.33 433.02 1207.48 456.08 1216.73 456.08 1220.67"/><polygon class="e666e448-7502-4f44-a4fb-fe35251677c6" points="442.48 1179.43 441.64 1228.36 444.95 1230.77 445.86 1180.53 442.48 1179.43"/><polygon class="ad0330a3-257b-487c-a41f-db9adb1d39bd" points="529.76 1089.49 533.27 1089.05 561.4 1100.8 560.77 1156.16 557.3 1156.99 529.76 1089.49"/><polygon class="e666e448-7502-4f44-a4fb-fe35251677c6" points="529.76 1089.49 530.16 1144.08 557.3 1156.99 557.7 1102.02 529.76 1089.49"/><polygon class="f177714b-ee62-44e2-802c-b5a2bf924f93" points="546.06 1101.78 545.24 1147.29 553.92 1151.09 554.13 1105.77 546.06 1101.78"/><polygon class="f177714b-ee62-44e2-802c-b5a2bf924f93" points="533.07 1141.97 541.92 1145.83 542.69 1100.11 533.17 1095.4 533.07 1141.97"/><polygon class="ad0330a3-257b-487c-a41f-db9adb1d39bd" points="543.43 1100.34 542.65 1146.23 546.04 1147.64 546.8 1102.01 543.43 1100.34"/><polygon class="e666e448-7502-4f44-a4fb-fe35251677c6" points="555.05 1120.86 532.67 1112.26 532.59 1108.54 554.97 1116.92 555.05 1120.86"/><polygon class="e666e448-7502-4f44-a4fb-fe35251677c6" points="555.3 1139.23 532.59 1129.89 532.25 1126.04 555.31 1135.29 555.3 1139.23"/><polygon class="e666e448-7502-4f44-a4fb-fe35251677c6" points="541.7 1097.99 540.87 1146.91 544.17 1149.33 545.08 1099.08 541.7 1097.99"/><polygon class="ad0330a3-257b-487c-a41f-db9adb1d39bd" points="430.53 1052.12 434.05 1051.68 462.17 1063.43 461.55 1118.78 458.07 1119.62 430.53 1052.12"/><polygon class="e666e448-7502-4f44-a4fb-fe35251677c6" points="430.53 1052.12 430.93 1106.71 458.07 1119.62 458.48 1064.65 430.53 1052.12"/><polygon class="f177714b-ee62-44e2-802c-b5a2bf924f93" points="446.83 1064.41 446.01 1109.91 454.69 1113.71 454.91 1068.4 446.83 1064.41"/><polygon class="f177714b-ee62-44e2-802c-b5a2bf924f93" points="433.84 1104.59 442.69 1108.46 443.46 1062.74 433.95 1058.03 433.84 1104.59"/><polygon class="ad0330a3-257b-487c-a41f-db9adb1d39bd" points="444.21 1062.96 443.43 1108.85 446.81 1110.26 447.57 1064.63 444.21 1062.96"/><polygon class="e666e448-7502-4f44-a4fb-fe35251677c6" points="455.83 1083.48 433.44 1074.88 433.36 1071.16 455.74 1079.54 455.83 1083.48"/><polygon class="e666e448-7502-4f44-a4fb-fe35251677c6" points="456.08 1101.85 433.36 1092.52 433.02 1088.66 456.08 1097.91 456.08 1101.85"/><polygon class="e666e448-7502-4f44-a4fb-fe35251677c6" points="442.48 1060.62 441.64 1109.54 444.95 1111.95 445.86 1061.71 442.48 1060.62"/><path class="bf8af24d-a8b0-40b1-b3a5-e5bbdd9818a1" d="M979,1250.73c6.11,6.94,7.77,5,7.77,5-23.3-23.56-54.91-99.62-54.91-99.62C945.67,1204.72,972.84,1243.78,979,1250.73Z"/><path class="bf8af24d-a8b0-40b1-b3a5-e5bbdd9818a1" d="M955.77,1262.76c5.64,6.87,7.3,5.07,7.3,5.07-21.62-23.43-49.53-97.8-49.53-97.8C925.29,1217.36,950.13,1255.88,955.77,1262.76Z"/><path class="bf8af24d-a8b0-40b1-b3a5-e5bbdd9818a1" d="M932.23,1275.4c5.74,6.92,7.44,5.14,7.44,5.14-22-23.63-50.3-98.38-50.3-98.38C901.23,1229.7,926.48,1268.47,932.23,1275.4Z"/><path class="bf8af24d-a8b0-40b1-b3a5-e5bbdd9818a1" d="M905.92,1290.19c5.9,7.11,7.62,5.24,7.62,5.24-22.6-24.21-52-101.17-52-101.17C874,1243.25,900,1283.08,905.92,1290.19Z"/><path class="bf8af24d-a8b0-40b1-b3a5-e5bbdd9818a1" d="M877.76,1303.42c6,7,7.71,5.12,7.71,5.12-23-23.87-53.49-100.37-53.49-100.37C845.16,1257,871.73,1296.41,877.76,1303.42Z"/><path class="bf8af24d-a8b0-40b1-b3a5-e5bbdd9818a1" d="M1021.32,1235.65c-5.07,7.7-7,6-7,6,19.84-26.53,27.41-79.93,27.41-79.93C1039.5,1206.12,1026.39,1227.94,1021.32,1235.65Z"/><path class="bf8af24d-a8b0-40b1-b3a5-e5bbdd9818a1" d="M992.91,1213.82c-4.14,6.25-5.68,4.89-5.68,4.89,16.09-21.52,22.24-64.84,22.24-64.84C1007.65,1189.86,997,1207.57,992.91,1213.82Z"/><path class="bf8af24d-a8b0-40b1-b3a5-e5bbdd9818a1" d="M1008.63,1133c-5.57,5.58-6.88,3.85-6.88,3.85,21.1-18.77,36.53-62.11,36.53-62.11C1028.85,1111.47,1014.2,1127.46,1008.63,1133Z"/><path class="bf8af24d-a8b0-40b1-b3a5-e5bbdd9818a1" d="M988.61,1110c-4.52,4.52-5.58,3.12-5.58,3.12,17.1-15.24,29.64-50.39,29.64-50.39C1005,1092.45,993.13,1105.44,988.61,1110Z"/><path class="bf8af24d-a8b0-40b1-b3a5-e5bbdd9818a1" d="M964.77,1095.72c-3.56,3.56-4.4,2.46-4.4,2.46,13.49-12,23.36-39.71,23.36-39.71C977.68,1081.92,968.33,1092.16,964.77,1095.72Z"/><path class="bf8af24d-a8b0-40b1-b3a5-e5bbdd9818a1" d="M1142.79,1060.78c6.52-4.43,5.07-6,5.07-6C1125.46,1072,1080,1079,1080,1079,1117.81,1076.6,1136.28,1065.2,1142.79,1060.78Z"/><path class="bf8af24d-a8b0-40b1-b3a5-e5bbdd9818a1" d="M1111.14,1048.15c6.78-4,5.44-5.71,5.44-5.71-23.43,15.76-69.25,19.92-69.25,19.92C1085.22,1062.36,1104.36,1052.16,1111.14,1048.15Z"/><path class="bf8af24d-a8b0-40b1-b3a5-e5bbdd9818a1" d="M1078.55,1035.37c7.14-3.32,6-5.14,6-5.14-24.89,13.37-70.89,13-70.89,13C1051.33,1047,1071.41,1038.69,1078.55,1035.37Z"/><polygon class="e666e448-7502-4f44-a4fb-fe35251677c6" points="1210.61 1225.53 1206.93 1225.05 1177.37 1237.24 1177.77 1295.32 1181.41 1296.21 1210.61 1225.53"/><polygon class="ad0330a3-257b-487c-a41f-db9adb1d39bd" points="1210.61 1225.53 1209.95 1282.79 1181.41 1296.21 1181.24 1238.54 1210.61 1225.53"/><polygon class="f177714b-ee62-44e2-802c-b5a2bf924f93" points="1193.46 1238.34 1194.11 1286.08 1184.98 1290.03 1184.97 1242.49 1193.46 1238.34"/><polygon class="f177714b-ee62-44e2-802c-b5a2bf924f93" points="1206.9 1280.56 1197.6 1284.58 1197 1236.6 1207 1231.71 1206.9 1280.56"/><polygon class="e666e448-7502-4f44-a4fb-fe35251677c6" points="1196.22 1236.85 1196.82 1284.99 1193.27 1286.44 1192.68 1238.58 1196.22 1236.85"/><polygon class="ad0330a3-257b-487c-a41f-db9adb1d39bd" points="1183.93 1258.31 1207.46 1249.39 1207.56 1245.49 1184.04 1254.18 1183.93 1258.31"/><polygon class="ad0330a3-257b-487c-a41f-db9adb1d39bd" points="1183.58 1277.58 1207.46 1267.9 1207.83 1263.85 1183.6 1273.45 1183.58 1277.58"/><polygon class="ad0330a3-257b-487c-a41f-db9adb1d39bd" points="1198.05 1234.38 1198.69 1285.71 1195.21 1288.23 1194.49 1235.52 1198.05 1234.38"/><polygon class="e666e448-7502-4f44-a4fb-fe35251677c6" points="1156.8 1247.35 1152.78 1246.88 1120.66 1260.5 1121.74 1323.85 1125.73 1324.78 1156.8 1247.35"/><polygon class="ad0330a3-257b-487c-a41f-db9adb1d39bd" points="1156.8 1247.35 1156.71 1309.83 1125.73 1324.78 1124.91 1261.87 1156.8 1247.35"/><polygon class="f177714b-ee62-44e2-802c-b5a2bf924f93" points="1138.23 1261.52 1139.47 1313.59 1129.55 1318 1129.01 1266.15 1138.23 1261.52"/><polygon class="f177714b-ee62-44e2-802c-b5a2bf924f93" points="1153.36 1307.43 1143.26 1311.91 1142.07 1259.59 1152.93 1254.14 1153.36 1307.43"/><polygon class="e666e448-7502-4f44-a4fb-fe35251677c6" points="1141.23 1259.86 1142.42 1312.37 1138.56 1314 1137.38 1261.79 1141.23 1259.86"/><polygon class="ad0330a3-257b-487c-a41f-db9adb1d39bd" points="1128.06 1283.41 1153.62 1273.43 1153.69 1269.16 1128.13 1278.9 1128.06 1283.41"/><polygon class="ad0330a3-257b-487c-a41f-db9adb1d39bd" points="1143.19 1257.16 1144.46 1313.14 1140.7 1315.92 1139.33 1258.43 1143.19 1257.16"/><polygon class="ad0330a3-257b-487c-a41f-db9adb1d39bd" points="1127.89 1304.44 1153.83 1293.61 1154.19 1289.19 1127.86 1299.93 1127.89 1304.44"/><polygon class="e666e448-7502-4f44-a4fb-fe35251677c6" points="1382.5 1107.37 1378.49 1106.9 1346.37 1120.52 1347.45 1183.87 1351.43 1184.8 1382.5 1107.37"/><polygon class="ad0330a3-257b-487c-a41f-db9adb1d39bd" points="1382.5 1107.37 1382.41 1169.85 1351.43 1184.8 1350.61 1121.89 1382.5 1107.37"/><polygon class="f177714b-ee62-44e2-802c-b5a2bf924f93" points="1363.93 1121.54 1365.17 1173.62 1355.26 1178.02 1354.72 1126.17 1363.93 1121.54"/><polygon class="f177714b-ee62-44e2-802c-b5a2bf924f93" points="1379.07 1167.45 1368.96 1171.93 1367.78 1119.61 1378.64 1114.16 1379.07 1167.45"/><polygon class="e666e448-7502-4f44-a4fb-fe35251677c6" points="1366.93 1119.88 1368.12 1172.39 1364.26 1174.02 1363.09 1121.81 1366.93 1119.88"/><polygon class="ad0330a3-257b-487c-a41f-db9adb1d39bd" points="1353.76 1143.43 1379.33 1133.45 1379.39 1129.18 1353.83 1138.92 1353.76 1143.43"/><polygon class="ad0330a3-257b-487c-a41f-db9adb1d39bd" points="1368.89 1117.18 1370.16 1173.16 1366.4 1175.94 1365.03 1118.45 1368.89 1117.18"/><polygon class="ad0330a3-257b-487c-a41f-db9adb1d39bd" points="1353.6 1164.46 1379.53 1153.63 1379.89 1149.21 1353.56 1159.95 1353.6 1164.46"/><polygon class="e666e448-7502-4f44-a4fb-fe35251677c6" points="1487.7 1061.49 1483.68 1061.01 1451.56 1074.64 1452.64 1137.99 1456.63 1138.92 1487.7 1061.49"/><polygon class="ad0330a3-257b-487c-a41f-db9adb1d39bd" points="1487.7 1061.49 1487.6 1123.97 1456.63 1138.92 1455.81 1076.01 1487.7 1061.49"/><polygon class="f177714b-ee62-44e2-802c-b5a2bf924f93" points="1469.12 1075.66 1470.36 1127.73 1460.45 1132.13 1459.91 1080.28 1469.12 1075.66"/><polygon class="f177714b-ee62-44e2-802c-b5a2bf924f93" points="1484.26 1121.56 1474.15 1126.05 1472.97 1073.73 1483.83 1068.28 1484.26 1121.56"/><polygon class="e666e448-7502-4f44-a4fb-fe35251677c6" points="1472.12 1074 1473.32 1126.51 1469.45 1128.14 1468.28 1075.92 1472.12 1074"/><polygon class="ad0330a3-257b-487c-a41f-db9adb1d39bd" points="1458.95 1097.55 1484.52 1087.57 1484.59 1083.3 1459.03 1093.04 1458.95 1097.55"/><polygon class="ad0330a3-257b-487c-a41f-db9adb1d39bd" points="1474.09 1071.3 1475.36 1127.28 1471.59 1130.06 1470.22 1072.57 1474.09 1071.3"/><polygon class="ad0330a3-257b-487c-a41f-db9adb1d39bd" points="1458.79 1118.57 1484.72 1107.74 1485.09 1103.33 1458.76 1114.07 1458.79 1118.57"/><polygon class="e666e448-7502-4f44-a4fb-fe35251677c6" points="1584.84 1023 1581.25 1022.57 1552.57 1034.74 1553.54 1091.31 1557.09 1092.14 1584.84 1023"/><polygon class="ad0330a3-257b-487c-a41f-db9adb1d39bd" points="1584.84 1023 1584.76 1078.79 1557.09 1092.14 1556.36 1035.96 1584.84 1023"/><polygon class="f177714b-ee62-44e2-802c-b5a2bf924f93" points="1568.26 1035.65 1569.36 1082.15 1560.51 1086.08 1560.03 1039.78 1568.26 1035.65"/><polygon class="f177714b-ee62-44e2-802c-b5a2bf924f93" points="1581.77 1076.64 1572.75 1080.65 1571.69 1033.93 1581.38 1029.06 1581.77 1076.64"/><polygon class="e666e448-7502-4f44-a4fb-fe35251677c6" points="1570.93 1034.16 1572 1081.06 1568.55 1082.51 1567.5 1035.89 1570.93 1034.16"/><polygon class="ad0330a3-257b-487c-a41f-db9adb1d39bd" points="1559.17 1055.2 1582 1046.28 1582.06 1042.48 1559.24 1051.17 1559.17 1055.2"/><polygon class="ad0330a3-257b-487c-a41f-db9adb1d39bd" points="1572.69 1031.75 1573.82 1081.74 1570.46 1084.22 1569.24 1032.89 1572.69 1031.75"/><polygon class="ad0330a3-257b-487c-a41f-db9adb1d39bd" points="1559.03 1073.97 1582.19 1064.3 1582.51 1060.36 1559 1069.95 1559.03 1073.97"/><polygon class="e666e448-7502-4f44-a4fb-fe35251677c6" points="1383.34 978.74 1379.33 978.26 1347.21 991.89 1348.29 1055.24 1352.27 1056.17 1383.34 978.74"/><polygon class="ad0330a3-257b-487c-a41f-db9adb1d39bd" points="1383.34 978.74 1383.25 1041.22 1352.27 1056.17 1351.45 993.26 1383.34 978.74"/><polygon class="f177714b-ee62-44e2-802c-b5a2bf924f93" points="1364.77 992.91 1366.01 1044.98 1356.1 1049.38 1355.56 997.53 1364.77 992.91"/><polygon class="f177714b-ee62-44e2-802c-b5a2bf924f93" points="1379.9 1038.81 1369.8 1043.3 1368.62 990.98 1379.47 985.53 1379.9 1038.81"/><polygon class="e666e448-7502-4f44-a4fb-fe35251677c6" points="1367.77 991.25 1368.96 1043.76 1365.1 1045.39 1363.93 993.17 1367.77 991.25"/><polygon class="ad0330a3-257b-487c-a41f-db9adb1d39bd" points="1354.6 1014.8 1380.16 1004.82 1380.23 1000.55 1354.67 1010.29 1354.6 1014.8"/><polygon class="ad0330a3-257b-487c-a41f-db9adb1d39bd" points="1369.73 988.54 1371 1044.53 1367.24 1047.31 1365.87 989.82 1369.73 988.54"/><polygon class="ad0330a3-257b-487c-a41f-db9adb1d39bd" points="1354.44 1035.82 1380.37 1024.99 1380.73 1020.58 1354.4 1031.32 1354.44 1035.82"/><polygon class="e666e448-7502-4f44-a4fb-fe35251677c6" points="1488.54 932.86 1484.52 932.38 1452.4 946.01 1453.48 1009.36 1457.46 1010.29 1488.54 932.86"/><polygon class="ad0330a3-257b-487c-a41f-db9adb1d39bd" points="1488.54 932.86 1488.44 995.34 1457.46 1010.29 1456.64 947.38 1488.54 932.86"/><polygon class="f177714b-ee62-44e2-802c-b5a2bf924f93" points="1469.96 947.03 1471.2 999.1 1461.29 1003.5 1460.75 951.65 1469.96 947.03"/><polygon class="f177714b-ee62-44e2-802c-b5a2bf924f93" points="1485.1 992.93 1474.99 997.42 1473.81 945.1 1484.67 939.64 1485.1 992.93"/><polygon class="e666e448-7502-4f44-a4fb-fe35251677c6" points="1472.96 945.36 1474.15 997.88 1470.29 999.5 1469.12 947.29 1472.96 945.36"/><polygon class="ad0330a3-257b-487c-a41f-db9adb1d39bd" points="1459.79 968.92 1485.36 958.93 1485.42 954.67 1459.87 964.41 1459.79 968.92"/><polygon class="ad0330a3-257b-487c-a41f-db9adb1d39bd" points="1474.93 942.66 1476.19 998.65 1472.43 1001.42 1471.06 943.94 1474.93 942.66"/><polygon class="ad0330a3-257b-487c-a41f-db9adb1d39bd" points="1459.63 989.94 1485.57 979.11 1485.93 974.7 1459.6 985.43 1459.63 989.94"/><polygon class="e666e448-7502-4f44-a4fb-fe35251677c6" points="1585.68 894.37 1582.09 893.94 1553.41 906.11 1554.38 962.68 1557.93 963.51 1585.68 894.37"/><polygon class="ad0330a3-257b-487c-a41f-db9adb1d39bd" points="1585.68 894.37 1585.6 950.16 1557.93 963.51 1557.2 907.33 1585.68 894.37"/><polygon class="f177714b-ee62-44e2-802c-b5a2bf924f93" points="1569.1 907.02 1570.2 953.52 1561.35 957.45 1560.87 911.15 1569.1 907.02"/><polygon class="f177714b-ee62-44e2-802c-b5a2bf924f93" points="1582.61 948.01 1573.59 952.01 1572.53 905.3 1582.22 900.42 1582.61 948.01"/><polygon class="e666e448-7502-4f44-a4fb-fe35251677c6" points="1571.77 905.53 1572.84 952.42 1569.39 953.88 1568.34 907.25 1571.77 905.53"/><polygon class="ad0330a3-257b-487c-a41f-db9adb1d39bd" points="1560.01 926.56 1582.84 917.65 1582.9 913.84 1560.08 922.54 1560.01 926.56"/><polygon class="ad0330a3-257b-487c-a41f-db9adb1d39bd" points="1573.53 903.12 1574.66 953.11 1571.3 955.59 1570.08 904.26 1573.53 903.12"/><polygon class="ad0330a3-257b-487c-a41f-db9adb1d39bd" points="1559.87 945.34 1583.03 935.67 1583.35 931.73 1559.84 941.31 1559.87 945.34"/><polygon class="e666e448-7502-4f44-a4fb-fe35251677c6" points="1383.53 840.9 1379.52 840.43 1347.4 854.06 1348.48 917.4 1352.46 918.33 1383.53 840.9"/><polygon class="ad0330a3-257b-487c-a41f-db9adb1d39bd" points="1383.53 840.9 1383.44 903.38 1352.46 918.33 1351.64 855.43 1383.53 840.9"/><polygon class="f177714b-ee62-44e2-802c-b5a2bf924f93" points="1364.96 855.07 1366.2 907.15 1356.29 911.55 1355.74 859.7 1364.96 855.07"/><polygon class="f177714b-ee62-44e2-802c-b5a2bf924f93" points="1380.09 900.98 1369.99 905.46 1368.8 853.14 1379.66 847.69 1380.09 900.98"/><polygon class="e666e448-7502-4f44-a4fb-fe35251677c6" points="1367.96 853.41 1369.15 905.92 1365.29 907.55 1364.12 855.34 1367.96 853.41"/><polygon class="ad0330a3-257b-487c-a41f-db9adb1d39bd" points="1354.79 876.96 1380.35 866.98 1380.42 862.72 1354.86 872.45 1354.79 876.96"/><polygon class="ad0330a3-257b-487c-a41f-db9adb1d39bd" points="1369.92 850.71 1371.19 906.69 1367.43 909.47 1366.06 851.98 1369.92 850.71"/><polygon class="ad0330a3-257b-487c-a41f-db9adb1d39bd" points="1354.63 897.99 1380.56 887.16 1380.92 882.75 1354.59 893.48 1354.63 897.99"/><polygon class="e666e448-7502-4f44-a4fb-fe35251677c6" points="1482.39 797.49 1478.37 797.01 1446.25 810.64 1447.34 873.99 1451.32 874.92 1482.39 797.49"/><polygon class="ad0330a3-257b-487c-a41f-db9adb1d39bd" points="1482.39 797.49 1482.3 859.97 1451.32 874.92 1450.5 812.01 1482.39 797.49"/><polygon class="f177714b-ee62-44e2-802c-b5a2bf924f93" points="1463.82 811.66 1465.06 863.73 1455.14 868.14 1454.6 816.28 1463.82 811.66"/><polygon class="f177714b-ee62-44e2-802c-b5a2bf924f93" points="1478.95 857.57 1468.85 862.05 1467.66 809.73 1478.52 804.28 1478.95 857.57"/><polygon class="e666e448-7502-4f44-a4fb-fe35251677c6" points="1466.82 810 1468.01 862.51 1464.15 864.14 1462.97 811.93 1466.82 810"/><polygon class="ad0330a3-257b-487c-a41f-db9adb1d39bd" points="1453.65 833.55 1479.21 823.57 1479.28 819.3 1453.72 829.04 1453.65 833.55"/><polygon class="ad0330a3-257b-487c-a41f-db9adb1d39bd" points="1468.78 807.3 1470.05 863.28 1466.29 866.06 1464.92 808.57 1468.78 807.3"/><polygon class="ad0330a3-257b-487c-a41f-db9adb1d39bd" points="1453.48 854.58 1479.42 843.74 1479.78 839.33 1453.45 850.07 1453.48 854.58"/><polygon class="e666e448-7502-4f44-a4fb-fe35251677c6" points="1585.87 756.53 1582.28 756.1 1553.6 768.27 1554.57 824.84 1558.12 825.67 1585.87 756.53"/><polygon class="ad0330a3-257b-487c-a41f-db9adb1d39bd" points="1585.87 756.53 1585.79 812.32 1558.12 825.67 1557.39 769.5 1585.87 756.53"/><polygon class="f177714b-ee62-44e2-802c-b5a2bf924f93" points="1569.28 769.18 1570.39 815.68 1561.54 819.61 1561.06 773.31 1569.28 769.18"/><polygon class="f177714b-ee62-44e2-802c-b5a2bf924f93" points="1582.8 810.17 1573.78 814.18 1572.72 767.46 1582.41 762.59 1582.8 810.17"/><polygon class="e666e448-7502-4f44-a4fb-fe35251677c6" points="1571.96 767.7 1573.03 814.59 1569.58 816.04 1568.53 769.42 1571.96 767.7"/><polygon class="ad0330a3-257b-487c-a41f-db9adb1d39bd" points="1560.2 788.73 1583.03 779.82 1583.09 776.01 1560.27 784.7 1560.2 788.73"/><polygon class="ad0330a3-257b-487c-a41f-db9adb1d39bd" points="1573.71 765.28 1574.85 815.28 1571.49 817.76 1570.27 766.42 1573.71 765.28"/><polygon class="ad0330a3-257b-487c-a41f-db9adb1d39bd" points="1560.06 807.5 1583.21 797.83 1583.54 793.89 1560.03 803.48 1560.06 807.5"/><polygon class="ad0330a3-257b-487c-a41f-db9adb1d39bd" points="948.93 1304.56 942.78 1304.03 908.25 1317.77 908.25 1390.28 912.05 1391.75 948.93 1304.56"/><polygon class="e666e448-7502-4f44-a4fb-fe35251677c6" points="948.93 1373.45 948.93 1304.56 912.05 1318.92 912.05 1391.75 948.93 1373.45"/><polygon class="a2ca8224-01a9-4bc0-8d4a-50008f2382da" points="945.35 1369.14 945.35 1312.77 917.65 1324.96 917.65 1382.83 945.35 1369.14"/><polygon class="e666e448-7502-4f44-a4fb-fe35251677c6" points="917.83 1350.92 947.03 1312.77 943.38 1311.93 916.33 1347.08 917.83 1350.92"/><polygon class="e666e448-7502-4f44-a4fb-fe35251677c6" points="916.33 1353.37 946.11 1340.32 945.35 1337.41 916.62 1349.19 916.33 1353.37"/><polygon class="e666e448-7502-4f44-a4fb-fe35251677c6" points="918.79 1385.05 947.51 1341.51 945.67 1338.63 915.07 1383.77 918.79 1385.05"/><path class="ad0330a3-257b-487c-a41f-db9adb1d39bd" d="M1134.85,1114.67l74.75-30.45,33.09,26.21c1.87,26.2,26.26,65.74,26.26,65.74l10.8-4.28c-18.12-25.24-27.58-67.25-27.58-67.25l-41.79-34.3L1123,1107.08,1079,1176.17l-6.85,34q-3.27,16.17-7.48,32.14L1056,1275l13.29-2.1c9.65-10.12,22-84.14,22-84.14Z"/><polygon class="ad0330a3-257b-487c-a41f-db9adb1d39bd" points="1070.28 1246.55 1069.32 1262.08 1252.17 1176.16 1252.17 1162.46 1070.28 1246.55"/><polygon class="e666e448-7502-4f44-a4fb-fe35251677c6" points="1088.25 111.85 1078.1 126.81 1081.62 109.61 1088.25 111.85"/><polygon class="ac2a7511-f43b-42b5-899a-5b08001dece2" points="886.01 593.28 882.7 773.6 1013.68 698 1013.68 536.62 886.01 593.28"/><polygon class="a2ca8224-01a9-4bc0-8d4a-50008f2382da" points="737.2 536.62 737.2 650.01 890.41 773.6 890.41 604.73 737.2 536.62"/><polygon class="ad0330a3-257b-487c-a41f-db9adb1d39bd" points="752.45 550.67 751.99 662.7 744.46 666.84 740.64 667.08 742.76 546.24 752.45 550.67"/><polygon class="e666e448-7502-4f44-a4fb-fe35251677c6" points="745.49 547.5 744.46 666.84 735.79 670.11 735.79 542.57 745.49 547.5"/><polygon class="ad0330a3-257b-487c-a41f-db9adb1d39bd" points="826.65 647.95 832.13 645.87 832.82 587.36 789.46 569.22 784.05 569.88 813.63 642.54 818.74 642.54 818.74 644.62 826.65 647.95"/><polygon class="f177714b-ee62-44e2-802c-b5a2bf924f93" points="809.99 607.36 821.52 611.69 821.61 595.02 810.3 589.41 809.99 607.36"/><polygon class="f177714b-ee62-44e2-802c-b5a2bf924f93" points="809.5 634.94 821.36 639.71 821.48 617.68 809.88 613.22 809.5 634.94"/><polygon class="f177714b-ee62-44e2-802c-b5a2bf924f93" points="802.07 604.39 802.41 585.49 789.3 579 789.24 599.58 802.07 604.39"/><polygon class="f177714b-ee62-44e2-802c-b5a2bf924f93" points="801.97 610.17 789.23 605.26 789.15 626.77 801.58 631.76 801.97 610.17"/><polygon class="ad0330a3-257b-487c-a41f-db9adb1d39bd" points="807.14 612.17 806.73 633.83 808.3 634.46 808.71 612.77 807.14 612.17"/><polygon class="ad0330a3-257b-487c-a41f-db9adb1d39bd" points="809.16 588.84 810.3 589.41 810.3 589.2 807.6 587.86 807.25 606.33 808.82 606.92 809.16 588.84"/><polygon class="ad0330a3-257b-487c-a41f-db9adb1d39bd" points="809.99 607.36 810.3 589.41 809.16 588.84 808.82 606.92 809.99 607.36"/><polygon class="ad0330a3-257b-487c-a41f-db9adb1d39bd" points="808.3 634.46 809.5 634.94 809.88 613.22 808.71 612.77 808.3 634.46"/><polygon class="e666e448-7502-4f44-a4fb-fe35251677c6" points="789.23 605.26 789.24 599.58 788.38 599.25 788.5 604.99 789.23 605.26"/><polygon class="e666e448-7502-4f44-a4fb-fe35251677c6" points="821.52 611.69 821.48 617.68 823.01 618.27 822.89 612.2 821.52 611.69"/><polygon class="e666e448-7502-4f44-a4fb-fe35251677c6" points="809.88 613.22 821.48 617.68 821.52 611.69 809.99 607.36 809.88 613.22"/><polygon class="e666e448-7502-4f44-a4fb-fe35251677c6" points="802.07 604.39 789.24 599.58 789.23 605.26 801.97 610.17 802.07 604.39"/><polygon class="e666e448-7502-4f44-a4fb-fe35251677c6" points="808.71 612.77 808.82 606.92 807.25 606.33 807.14 612.17 808.71 612.77"/><polygon class="e666e448-7502-4f44-a4fb-fe35251677c6" points="808.71 612.77 809.88 613.22 809.99 607.36 808.82 606.92 808.71 612.77"/><polygon class="e666e448-7502-4f44-a4fb-fe35251677c6" points="804.68 611.22 803.54 610.78 803.15 632.39 804.29 632.85 804.68 611.22"/><polygon class="e666e448-7502-4f44-a4fb-fe35251677c6" points="805.12 586.62 807.6 587.86 807.66 584.69 802.45 583 802.41 585.49 803.97 586.27 803.64 604.98 804.78 605.41 805.12 586.62"/><polygon class="e666e448-7502-4f44-a4fb-fe35251677c6" points="801.97 610.17 801.58 631.76 803.15 632.39 803.54 610.78 801.97 610.17"/><polygon class="e666e448-7502-4f44-a4fb-fe35251677c6" points="803.97 586.27 802.41 585.49 802.07 604.39 803.64 604.98 803.97 586.27"/><polygon class="e666e448-7502-4f44-a4fb-fe35251677c6" points="807.25 606.33 807.6 587.86 805.12 586.62 804.78 605.41 807.25 606.33"/><polygon class="e666e448-7502-4f44-a4fb-fe35251677c6" points="804.68 611.22 804.29 632.85 806.73 633.83 807.14 612.17 804.68 611.22"/><polygon class="e666e448-7502-4f44-a4fb-fe35251677c6" points="804.68 611.22 804.78 605.41 803.64 604.98 803.54 610.78 804.68 611.22"/><polygon class="e666e448-7502-4f44-a4fb-fe35251677c6" points="803.54 610.78 803.64 604.98 802.07 604.39 801.97 610.17 803.54 610.78"/><polygon class="e666e448-7502-4f44-a4fb-fe35251677c6" points="807.14 612.17 807.25 606.33 804.78 605.41 804.68 611.22 807.14 612.17"/><path class="e666e448-7502-4f44-a4fb-fe35251677c6" d="M784.05,569.89l.38,60.66,3.93,1.63h0l.78.32,12.34,5.08,1.57.65,1.14.47,2.43,1,1.57.65,1.21.49,11.93,4.92,2,.84,3.29,1.34.45-58.71Zm4.32,29.37.86.32L789.3,579l13.1,6.49,0-2.49,5.22,1.69-.07,3.17,2.7,1.34v.21L821.61,595l-.1,16.67,1.37.5.12,6.08-1.52-.59-.13,22L809.49,635l-1.19-.48-1.57-.63-2.45-1-1.14-.46-1.56-.63-12.43-5,.07-21.49-.72-.27Z"/><polygon class="e666e448-7502-4f44-a4fb-fe35251677c6" points="1021.95 528.53 1008.8 510.23 1009.98 699.57 1015.38 701.8 1021.95 528.53"/><polygon class="ad0330a3-257b-487c-a41f-db9adb1d39bd" points="1026.51 528.53 1015.38 518.98 1015.38 701.8 1026.51 693.54 1026.51 528.53"/><polygon class="ad0330a3-257b-487c-a41f-db9adb1d39bd" points="881.34 612.68 895.19 602.88 895.19 773.6 884.49 758.03 881.34 612.68"/><polygon class="e666e448-7502-4f44-a4fb-fe35251677c6" points="884.49 609.73 871.19 622.15 871.19 749.62 884.49 758.03 884.49 609.73"/><polygon class="ad0330a3-257b-487c-a41f-db9adb1d39bd" points="1026.51 692.05 1026.51 713.14 883.88 785.17 884.49 766.92 1026.51 692.05"/><polygon class="bec613e1-3156-4c21-95b4-3dc0a63e0635" points="1015.38 698.47 1009.96 696.41 884.49 758.03 884.49 766.92 1015.38 698.47"/><path class="aaf05d45-8220-45fc-8ddb-2bdc16b3080c" d="M917,433.69C772.44,474.54,717.28,536.54,717.28,536.54L866,629.12,1031.28,525.6Z"/><polygon class="ac2a7511-f43b-42b5-899a-5b08001dece2" points="953.3 312.42 985.19 337.8 984.73 501.71 881.99 569.39 876.6 407.31 953.3 312.42"/><polygon class="a2ca8224-01a9-4bc0-8d4a-50008f2382da" points="803.95 361.45 803.95 526.92 881.99 569.39 881.99 411.61 803.95 361.45"/><path class="e60ebbd5-5065-4b12-9b7f-a306aff70386" d="M878.61,425.71l20.9,35.66,68.06-135.09C924.56,322.4,878.61,425.71,878.61,425.71Z"/><polygon class="ad0330a3-257b-487c-a41f-db9adb1d39bd" points="878.61 424.59 892.79 414.79 892.79 563.28 881.84 569.94 878.61 424.59"/><polygon class="ad0330a3-257b-487c-a41f-db9adb1d39bd" points="807.73 368.73 807.28 528.66 802.11 529.43 799.41 522.18 799.41 363.09 807.73 368.73"/><polygon class="e60ebbd5-5065-4b12-9b7f-a306aff70386" points="951.43 334.84 985.57 359.7 983.25 335.57 956.8 318.49 951.43 334.84"/><polygon class="e666e448-7502-4f44-a4fb-fe35251677c6" points="801.75 364.71 802.11 529.43 793.43 522.3 793.43 358.43 801.75 364.71"/><polygon class="e666e448-7502-4f44-a4fb-fe35251677c6" points="881.84 421.64 868.23 434.06 868.23 561.52 881.84 569.94 881.84 421.64"/><path class="aaf05d45-8220-45fc-8ddb-2bdc16b3080c" d="M887.37,408.08a2.94,2.94,0,0,1-.67.27s-42.26-8-98.86-49.6c0,0,24-29.86,34.73-57.08,8-20.46,7.63-35.42,7.7-43.8L945.17,311l.43-.4c.09.23.17.48.26.72l2.27,1.13-1.21,2.15C936.42,386.47,894.94,404.94,887.37,408.08Z"/><path class="bec613e1-3156-4c21-95b4-3dc0a63e0635" d="M842.76,268.94s43.09,16.72,49.6,24.23S954,313.45,954,313.45l6.8-6.86c-105.32-39.35-127.65-52.77-127.65-52.77l-5.06,1.62Z"/><path class="e666e448-7502-4f44-a4fb-fe35251677c6" d="M951.43,316l-2.3-5.46c-51.46,95.87-62.45,97.75-62.45,97.75l6.63,3.58C923.23,397.31,951.43,316,951.43,316Z"/><path class="ad0330a3-257b-487c-a41f-db9adb1d39bd" d="M901.84,417.35c25.28-32.05,55.73-97.24,55.73-97.24l-2.3-11.51c-40.72,79.24-62,103.29-62,103.29Z"/><path class="ad0330a3-257b-487c-a41f-db9adb1d39bd" d="M955,314.82l2.62-7.33C978,331,1020.78,353.8,1020.78,353.8l-4.41,8.39c-18.68-3.94-60.45-41.51-60.45-41.51Z"/><path class="e666e448-7502-4f44-a4fb-fe35251677c6" d="M828.05,255.44c107.42,57.45,124.4,53.16,124.4,53.16v9.62l-2.65-.81c-44.62-13.83-82.18-27.4-121.17-53.1h0Z"/><polyline class="ad0330a3-257b-487c-a41f-db9adb1d39bd" points="952.45 318.49 960.42 313.88 960.76 306.59 952.45 308.6"/><path class="bf8af24d-a8b0-40b1-b3a5-e5bbdd9818a1" d="M819.74,365.52c-5.1,6.16-6.62,4.57-6.62,4.57,19.55-21,44.68-87.39,44.68-87.39C847.26,324.91,824.84,359.36,819.74,365.52Z"/><path class="bf8af24d-a8b0-40b1-b3a5-e5bbdd9818a1" d="M843.3,379.49c-5.23,6.31-6.76,4.66-6.76,4.66,20.07-21.51,46.16-89.86,46.16-89.86C871.66,337.8,848.54,373.18,843.3,379.49Z"/><path class="bf8af24d-a8b0-40b1-b3a5-e5bbdd9818a1" d="M873,392.87c-5.33,6.23-6.83,4.55-6.83,4.55,20.39-21.2,47.51-89.15,47.51-89.15C902,351.61,878.34,386.63,873,392.87Z"/><polygon class="f8222836-e249-4f4c-b2d1-19305b906e4a" points="1029.51 386 1230.84 345.82 1223.44 399.93 1018.73 437.24 952.2 716.55 905.75 721.9 969.46 448.71 762.61 492.7 770.96 433.69 986.04 396.25 1047.41 119.64 1094.21 111.61 1029.51 386"/><polygon class="ad0330a3-257b-487c-a41f-db9adb1d39bd" points="976.56 447.26 891.1 728.61 886.01 720.36 949.82 451.44 976.56 447.26"/><path class="ad0330a3-257b-487c-a41f-db9adb1d39bd" d="M1037.66,125.43l-7.3-8.1L969.64,386.24l12,10.26C999.51,392.26,1037.66,125.43,1037.66,125.43Z"/><polygon class="ad0330a3-257b-487c-a41f-db9adb1d39bd" points="1001.83 446.79 762.61 506.19 765.09 494.24 1001.83 435.95 1001.83 446.79"/><polygon class="ad0330a3-257b-487c-a41f-db9adb1d39bd" points="995.56 437.49 765.09 494.24 757.63 488.43 990.37 433.69 995.56 437.49"/><polygon class="bec613e1-3156-4c21-95b4-3dc0a63e0635" points="1191.12 349.41 1021.4 404.14 1033.08 373.25 1226.05 330.05 1234.02 332.48 1191.12 349.41"/><polygon class="ad0330a3-257b-487c-a41f-db9adb1d39bd" points="1016.32 441.87 1005.15 436.67 942.77 720.36 956.37 718.7 1016.32 441.87"/><polygon class="ad0330a3-257b-487c-a41f-db9adb1d39bd" points="982.97 449.66 972.07 443.93 891.1 728.61 905.14 726.24 982.97 449.66"/><path class="bf8af24d-a8b0-40b1-b3a5-e5bbdd9818a1" d="M724.34,538.92c-8.13-.81-7.52-3-7.52-3,28.88,4.52,74.66-11.57,74.66-11.57C755,540.91,732.47,539.74,724.34,538.92Z"/><path class="bf8af24d-a8b0-40b1-b3a5-e5bbdd9818a1" d="M877.16,574.79c3.39-5.9,4.87-4.76,4.87-4.76-13.39,20.42-16.48,60-16.48,60C865.12,597.35,873.77,580.69,877.16,574.79Z"/><path class="bf8af24d-a8b0-40b1-b3a5-e5bbdd9818a1" d="M853.7,566.37c2.58-4.45,3.69-3.58,3.69-3.58-10.11,15.47-12.45,45.46-12.45,45.46C844.63,583.49,851.13,570.82,853.7,566.37Z"/><path class="bf8af24d-a8b0-40b1-b3a5-e5bbdd9818a1" d="M835.43,556.64c2.18-3.78,3.13-3.06,3.13-3.06C830,566.72,828,592.19,828,592.19,827.72,571.15,833.25,560.43,835.43,556.64Z"/><polygon class="ad0330a3-257b-487c-a41f-db9adb1d39bd" points="993.71 407.31 777.43 437.49 778.45 426.13 994.6 396.5 993.71 407.31"/><polygon class="ad0330a3-257b-487c-a41f-db9adb1d39bd" points="1020.41 432.03 1225.36 398.74 1225.36 411.69 1014.27 446.79 1020.41 432.03"/><polygon class="ad0330a3-257b-487c-a41f-db9adb1d39bd" points="1010.23 393.27 1234.02 332.48 1231.79 346.58 1017.59 405.21 1010.23 393.27"/><polygon class="ad0330a3-257b-487c-a41f-db9adb1d39bd" points="1023.73 408.81 1101.37 113.51 1086.77 117.33 1017.3 395.91 1023.73 408.81"/><polygon class="ad0330a3-257b-487c-a41f-db9adb1d39bd" points="993.71 407.31 984.73 400.18 1037.66 125.46 1050.94 122.14 993.71 407.31"/><polygon class="bec613e1-3156-4c21-95b4-3dc0a63e0635" points="778.45 426.13 768.58 421.48 969.64 386.24 985.19 397.79 778.45 426.13"/><path class="bec613e1-3156-4c21-95b4-3dc0a63e0635" d="M1026.07,393.05c10,14.14-7.07,49.54-21.22,48.32-10.05-.87-28.87,7.66-28.28-27.7.54-31.31,24.44-32.59,29.91-32.48.66,0,1.3,0,1.95-.07C1010.82,381,1017.93,381.56,1026.07,393.05Z"/><path class="ad0330a3-257b-487c-a41f-db9adb1d39bd" d="M1032.75,398.15c10,14.14-7.07,49.55-21.21,48.33-10-.87-28.88,7.66-28.29-27.7.54-31.31,24.44-32.6,29.91-32.48.65,0,1.3,0,2-.07C1017.5,386.05,1024.61,386.66,1032.75,398.15Z"/><polygon class="bde07b66-8662-4157-8157-6e5e6c170587" points="768.58 433.69 768.58 421.48 778.45 426.13 777.43 437.49 768.58 433.69"/><polygon class="bde07b66-8662-4157-8157-6e5e6c170587" points="757.63 488.43 756.1 500.86 762.61 506.19 765.09 494.24 757.63 488.43"/><polygon class="bde07b66-8662-4157-8157-6e5e6c170587" points="1042.53 114.65 1030.36 117.33 1037.66 125.46 1050.94 122.14 1042.53 114.65"/><polygon class="bde07b66-8662-4157-8157-6e5e6c170587" points="1093.74 106.71 1081.62 109.61 1086.77 117.33 1101.37 113.51 1093.74 106.71"/><polygon class="e666e448-7502-4f44-a4fb-fe35251677c6" points="884.49 766.92 735.79 651.84 735.79 670.11 883.88 785.17 884.49 766.92"/><polygon class="bec613e1-3156-4c21-95b4-3dc0a63e0635" points="884.49 766.92 744.53 658.61 752.01 656.6 884.49 758.03 884.49 766.92"/><path class="e666e448-7502-4f44-a4fb-fe35251677c6" d="M1445.26,643.69c5.76,22.65,30.77,29.53,44.62,25.58s38.07-17.89,32-50.56-41.3-29.33-41.3-29.33C1452.18,593.2,1439.51,621,1445.26,643.69Z"/><path class="ad0330a3-257b-487c-a41f-db9adb1d39bd" d="M1450.69,641.26c5.76,22.65,30.76,29.53,44.61,25.58s38.08-17.88,32-50.56S1486,587,1486,587C1457.48,590.78,1444.94,618.74,1450.69,641.26Z"/><path class="f177714b-ee62-44e2-802c-b5a2bf924f93" d="M1517.29,616.72l-58.15,8.86c1.46-13.57,10.92-26.6,27.42-28.87C1486.57,596.84,1511.56,594.46,1517.29,616.72Z"/><path class="f177714b-ee62-44e2-802c-b5a2bf924f93" d="M1459.76,636.75l26.55-4.77.89,26.08c-10.43-.19-23.69-6.17-27.26-20.16C1459.92,637.51,1459.77,637.13,1459.76,636.75Z"/><path class="f177714b-ee62-44e2-802c-b5a2bf924f93" d="M1518.48,626.06c.26,17.75-12.47,26.67-21.84,30.17L1495,630.31Z"/><path class="e666e448-7502-4f44-a4fb-fe35251677c6" d="M1518.48,626.06,1495,630.31l-.51-8.6-8.48.37.3,9.77-26.55,4.77a31.92,31.92,0,0,1-.48-11l58.15-8.85c.16.76.33,1.53.49,2.29A45.19,45.19,0,0,1,1518.48,626.06Z"/><path class="e666e448-7502-4f44-a4fb-fe35251677c6" d="M1494.49,621.84l2.15,34.52a27.21,27.21,0,0,1-3,1,25.68,25.68,0,0,1-6.52.8l-1.93-35Z"/><polygon class="ad0330a3-257b-487c-a41f-db9adb1d39bd" points="1456.6 635.21 1519.66 623.7 1517.97 614.5 1458.54 623.68 1456.6 635.21"/><polygon class="ad0330a3-257b-487c-a41f-db9adb1d39bd" points="1500.86 661.58 1496.53 621.49 1488.07 622.25 1491.3 663.54 1500.86 661.58"/><path class="ad0330a3-257b-487c-a41f-db9adb1d39bd" d="M509.82,895.08s-21.65-2.05-25.38,18,11.23,28.72,19.67,31.07,23.87-1.8,27.41-15.72S527.27,897.43,509.82,895.08Z"/><path class="e666e448-7502-4f44-a4fb-fe35251677c6" d="M506.49,893.59s-21.66-2.05-25.38,18,11.23,28.72,19.66,31.07,23.88-1.8,27.42-15.72S524,895.94,506.49,893.59Z"/><path class="f177714b-ee62-44e2-802c-b5a2bf924f93" d="M506.14,899.59c10.14,1.39,16,9.39,16.86,17.74l-35.74-5.45C490.79,898.2,506.14,899.67,506.14,899.59Z"/><path class="f177714b-ee62-44e2-802c-b5a2bf924f93" d="M522.51,924.89c-2.2,8.6-10.35,12.28-16.76,12.39l.55-16,16.32,2.93C522.6,924.42,522.52,924.66,522.51,924.89Z"/><path class="f177714b-ee62-44e2-802c-b5a2bf924f93" d="M501,920.23l-1,15.93c-5.75-2.15-13.58-7.63-13.42-18.54Z"/><path class="ad0330a3-257b-487c-a41f-db9adb1d39bd" d="M486.88,913.29l.3-1.41,35.74,5.44a19.77,19.77,0,0,1-.3,6.79l-16.32-2.93.19-6-5.21-.23-.31,5.28-14.44-2.61A28.49,28.49,0,0,1,486.88,913.29Z"/><path class="ad0330a3-257b-487c-a41f-db9adb1d39bd" d="M507,915.83l-1.18,21.54a16.1,16.1,0,0,1-4-.5,16.44,16.44,0,0,1-1.87-.63L501.27,915Z"/><polygon class="e666e448-7502-4f44-a4fb-fe35251677c6" points="523.36 916.15 486.85 910.52 485.81 916.17 524.55 923.25 523.36 916.15"/><polygon class="e666e448-7502-4f44-a4fb-fe35251677c6" points="503.23 940.65 505.22 915.28 500.02 914.82 497.36 939.45 503.23 940.65"/><path class="ad0330a3-257b-487c-a41f-db9adb1d39bd" d="M1466.75,494.8S1653.51,662.87,1737,680.42l19.71-37.51s-191.08-101.83-282.62-207.1l-11.69,32.8Z"/><path class="bd13d07e-7c3f-430f-81f8-3ec7802f4041" d="M387.41,1306.36s-135.62-27.53-280.27,79.16c0,0,36.89-20.17,59.65-30.27S262.52,1304.83,387.41,1306.36Z"/><path class="bd13d07e-7c3f-430f-81f8-3ec7802f4041" d="M347.59,1272.12S246.8,1237,125.17,1303.52C125.17,1303.52,229.49,1250.44,347.59,1272.12Z"/><path class="bd13d07e-7c3f-430f-81f8-3ec7802f4041" d="M436.83,1342.34s-174.67-20.55-346.6,129.85c0,0,48.77-32.31,76.54-47.51S275.82,1360.35,436.83,1342.34Z"/><path class="bd13d07e-7c3f-430f-81f8-3ec7802f4041" d="M472.54,1378.88s-183.83,12.81-324.62,192.69c0,0,38.56-32.68,63-52.8S327.83,1425.89,472.54,1378.88Z"/><path class="bd13d07e-7c3f-430f-81f8-3ec7802f4041" d="M538.43,1421s-197.17,59.22-302,262.14c0,0,31.82-39.28,52.08-63.59S405,1494.12,538.43,1421Z"/><path class="bd13d07e-7c3f-430f-81f8-3ec7802f4041" d="M641.77,1470s-229.36,34.87-282.47,284.43c0,0,21.13-39.8,34.72-64.54S467.28,1530.5,641.77,1470Z"/><path class="bd13d07e-7c3f-430f-81f8-3ec7802f4041" d="M722.41,1487s-184.13,81.44-171.76,302.52c0,0,8.63-38.14,14.37-62S590.07,1577.4,722.41,1487Z"/><path class="bd13d07e-7c3f-430f-81f8-3ec7802f4041" d="M819.17,1522.88S680.8,1643.25,751,1832.33c0,0-2.73-35.51-4.13-57.78S728.28,1637.13,819.17,1522.88Z"/><path class="bd13d07e-7c3f-430f-81f8-3ec7802f4041" d="M1652.22,1241.86s118.37-11.09,230.08,79.64c0,0-29.24-17.83-47.54-27.07S1758.68,1249.61,1652.22,1241.86Z"/><path class="bd13d07e-7c3f-430f-81f8-3ec7802f4041" d="M1679.78,1212.27s99.1-21.35,205.79,43.74C1885.57,1256,1793.59,1203.5,1679.78,1212.27Z"/><path class="bd13d07e-7c3f-430f-81f8-3ec7802f4041" d="M1700.55,1185s69.08-25.59,152.55,10.23C1853.1,1195.26,1781.52,1167,1700.55,1185Z"/><path class="bd13d07e-7c3f-430f-81f8-3ec7802f4041" d="M1609.61,1276.7s150.87-3,281.11,122.59c0,0-38-27.83-60.06-41.26S1744.73,1301.76,1609.61,1276.7Z"/><path class="bd13d07e-7c3f-430f-81f8-3ec7802f4041" d="M1551,1319s157.33,9.36,273.69,145.29c0,0-32.27-24.67-52.74-39.86S1673.92,1354.32,1551,1319Z"/><path class="bd13d07e-7c3f-430f-81f8-3ec7802f4041" d="M1485.32,1361.11s170.51,36,265.37,184.63c0,0-28.23-28.27-46.2-45.73S1601.52,1410.4,1485.32,1361.11Z"/><path class="bd13d07e-7c3f-430f-81f8-3ec7802f4041" d="M1363.09,1402.24s219.87,30.67,264.4,242.63c0,0-19.3-33.86-31.72-54.91S1529.46,1454.39,1363.09,1402.24Z"/><path class="ad1369fe-7165-4dfe-a4fa-d02e1554372d" d="M1282.9,1232.44c2.41-6.74,7.31-13.17,16-18.56,27.89-17.36,49.49,19.27,49.49,19.27,15.11-3.39,23.54,4.47,23.54,4.47,9.6,7.27,11.11,16.63,9.75,25-18.09,63.14-83.33,48.48-83.33,48.48-7-.09-21.94,10.82-55-3.52C1202,1289.57,1215,1217.62,1282.9,1232.44Z"/><g class="b491f75c-ac64-4559-b638-5a8384ce5d7a"><path class="bd13d07e-7c3f-430f-81f8-3ec7802f4041" d="M1298.33,1311.05s-56-7.87-43.31-47.14c6.44-20,20.89-22.4,40.25-14.72,0,0,12.48-50.82,53.1-16,0,0-21.36-70.41-67.41-67.61s-116.08,90.52-110.37,108.56S1222.24,1391.93,1298.33,1311.05Z"/></g><path class="ad1369fe-7165-4dfe-a4fa-d02e1554372d" d="M1719.37,1032.76c-1.08.25-2.2.52-3.38.82,0,0-28.32-38.73-58.65-21.06-47,28.81-15.32,66.65-15.32,66.65s-20.67-12.69-32.5,9c-10,17.08,4.77,32.12,20.06,36.41,0,0,29.37,14.62,76.13-7.58.63-.27,1.26-.54,1.88-.83l8.24-3.84a68.77,68.77,0,0,0,17.48-11.71h0a68.32,68.32,0,0,0,20.42-35.32l.09-.39a21.76,21.76,0,0,0,.45-3.43C1755.32,1042.78,1737.66,1028.47,1719.37,1032.76Z"/><g class="bc3b81da-e562-4d03-b46c-b5f4fc7cba94"><path class="bd13d07e-7c3f-430f-81f8-3ec7802f4041" d="M1651.59,1129.25s-39.76-18.19-15.55-30.36,22.56-21.77,16.18-36.79,25.57-52.33,63.77-28.52c0,0-31.86-58.35-40.74-62.94s-100.53,61.27-98.93,65.68-12.22,86.55-9.58,87.5,61.4,23.1,61.4,23.1Z"/></g><path class="ad1369fe-7165-4dfe-a4fa-d02e1554372d" d="M1370.79,1211.92l2.09-1.14s-3.44-32.63,20-37.6c37-7,38.37,26.72,38.37,26.72s4.65-15.92,20.62-10.33c12.91,4,12.33,18.46,6.56,27.65,0,0-8.17,20.9-42,31.12-.44.16-.88.31-1.33.45l-5.94,1.84a46.86,46.86,0,0,1-14.23,2.09h0a46.74,46.74,0,0,1-26.56-8.51l-.22-.16a14.37,14.37,0,0,1-1.8-1.53C1357.18,1233.5,1359.56,1218.14,1370.79,1211.92Z"/><g class="b83a496f-7af1-4ca4-8820-928773c0a8df"><path class="bd13d07e-7c3f-430f-81f8-3ec7802f4041" d="M1449.44,1229.67s11.79-27.47-6.07-22.52-21.42-.67-25.08-11.21-37-14.77-45.41,14.84c0,0-10.66-44.19-8.27-50.59s79.07-15.13,80.28-12.16,45.94,38.23,45,39.92-20.5,39.9-20.5,39.9Z"/></g><path class="ba3f14e5-1cfc-44b4-a1b0-b6a671a64e1b" d="M1215.86,1615.81c15.58-19,7.59-30.36,10-35.7,0,0,14.67,17.63,6.37,30.94l12.32-13.25s-.54-19.89,15.23-31.09c0,0-12.81,42.11-5.52,45.31,0,0,2.56-15.76,11-18.17,0,0-3.26,22.94-4.68,28.8C1255.31,1644.27,1208.49,1624.8,1215.86,1615.81Z"/></svg>