<?xml version="1.0" encoding="utf-8"?>
<!-- Generator: Adobe Illustrator 26.0.1, SVG Export Plug-In . SVG Version: 6.00 Build 0)  -->
<svg version="1.1" id="Layer_1" xmlns="http://www.w3.org/2000/svg" xmlns:xlink="http://www.w3.org/1999/xlink" x="0px" y="0px"
	 viewBox="0 0 2000 2000" style="enable-background:new 0 0 2000 2000;" xml:space="preserve">
<style type="text/css">
	.st0{fill:#AED76A;}
	.st1{clip-path:url(#SVGID_00000022548324229208243240000017712479494623846804_);fill:#FECFAE;}
	.st2{fill:#AAA49B;}
	.st3{fill:#8F65AC;}
	.st4{fill:#E8E3DD;}
	.st5{fill:#60262E;}
	.st6{fill:#BAB6AF;}
	.st7{clip-path:url(#SVGID_00000052093064589108445880000016470241776475298462_);fill:#FECFAE;}
	.st8{fill:#E5BF9C;}
	.st9{fill:#A08470;}
	.st10{fill:#3F2957;}
	.st11{fill:#AFD86A;}
	.st12{clip-path:url(#SVGID_00000035497350660993366670000010104701433654984588_);fill:#FECFAE;}
	.st13{clip-path:url(#SVGID_00000128477377445188543550000001151879290848608686_);fill:#FECFAE;}
	.st14{fill:#877874;}
	.st15{fill:#967266;}
	.st16{fill:#4C3B36;}
	.st17{fill:#725B51;}
	.st18{fill:#DDCBB8;}
	.st19{fill:#441C0C;}
	.st20{fill:#592710;}
	.st21{fill:#724E44;}
	.st22{clip-path:url(#SVGID_00000038390136342042436120000010835706095948563331_);fill:#FECFAE;}
	.st23{fill:#77A22F;}
	.st24{fill:#AA9983;}
	.st25{fill:#EAC794;}
	.st26{fill:#936B3E;}
	.st27{fill:#E0D1B7;}
	.st28{fill:#BF9D71;}
	.st29{fill:#4C94BF;}
	.st30{fill:#FFFFFF;}
	.st31{fill:#7B625C;}
	.st32{fill:#392516;}
	.st33{fill:#551C3B;}
	.st34{fill:#A28A84;}
	.st35{fill:#B48F6C;}
	.st36{fill:#FECFAE;}
	.st37{fill:#402F21;}
	.st38{fill:#381126;}
	.st39{fill:#7A6047;}
	.st40{fill:#6B6969;}
	.st41{fill:#4F3F2F;}
	.st42{fill:#787676;}
	.st43{fill:#908D8E;}
	.st44{fill:#6E899F;}
	.st45{fill:#FDCFAC;}
	.st46{fill:#62534C;}
	.st47{fill:#554A44;}
	.st48{fill:#3D5669;}
	.st49{fill:#293035;}
	.st50{fill:#78685E;}
	.st51{fill:#8F8D8E;}
	.st52{fill:#38444D;}
	.st53{fill:#797677;}
	.st54{fill:#CAB399;}
	.st55{fill:#A5917A;}
	.st56{fill:#8BBC38;}
	.st57{fill:#AA4226;}
	.st58{fill:#312419;}
	.st59{fill:#443428;}
	.st60{fill:#846A55;}
	.st61{fill:none;}
	.st62{fill:#634C3B;}
	.st63{clip-path:url(#SVGID_00000141416627465767125910000015802240798690894721_);}
	.st64{fill:#D6BA9D;}
	.st65{fill:#1E1713;}
	.st66{fill:#B99971;}
	.st67{fill:#8C6D51;}
	.st68{fill:#9E7E5C;}
	.st69{clip-path:url(#SVGID_00000121263451684260988220000013433476283945891247_);}
	.st70{fill:#352820;}
	.st71{fill:#665140;}
	.st72{clip-path:url(#SVGID_00000101823091405897400160000001056521763094012035_);}
	.st73{clip-path:url(#SVGID_00000002363988788185807370000012843718056254533806_);}
	.st74{clip-path:url(#SVGID_00000096766573899262180000000007170514481678156429_);}
	.st75{clip-path:url(#SVGID_00000095339263989467991010000006492389597275779771_);}
	.st76{fill:#8ABD32;}
	.st77{clip-path:url(#SVGID_00000048464647829384253670000002471300615701069738_);}
	.st78{fill:#993A23;}
	.st79{clip-path:url(#SVGID_00000016760768201524038190000017658737489506379941_);fill:#993A23;}
	.st80{fill:#7A291B;}
	.st81{clip-path:url(#SVGID_00000004508042128305185340000015361714100962332312_);fill:#993A23;}
	.st82{fill:#BC4D3B;}
	.st83{fill:#846F5A;}
	.st84{fill:#AD957D;}
	.st85{fill:#D8C9BA;}
	.st86{fill:#C4B19F;}
	.st87{fill:#705E4D;}
	.st88{clip-path:url(#SVGID_00000177452741415346577680000012033265543545047963_);fill:#998776;}
	.st89{fill:#604F40;}
	.st90{fill:#A39386;}
	.st91{clip-path:url(#SVGID_00000183952420869415905440000006768164675552115899_);fill:#998776;}
	.st92{clip-path:url(#SVGID_00000045577280014577193060000001846122068574293933_);fill:#998776;}
	.st93{clip-path:url(#SVGID_00000005951085192449206310000002508459133479587515_);fill:#846F5A;}
	.st94{clip-path:url(#SVGID_00000005951085192449206310000002508459133479587515_);fill:#998776;}
	.st95{fill:#E5D6C7;}
	.st96{fill:#937D69;}
	.st97{fill:#3C3229;}
	.st98{fill:#71BBD8;}
	.st99{fill:#EC7D51;}
	.st100{fill:url(#SVGID_00000072281165169978894450000018374935511016853947_);}
	.st101{opacity:0.65;fill:url(#SVGID_00000019648827413733055770000005594743524201346985_);}
	.st102{opacity:0.65;fill:url(#SVGID_00000157996180476177074860000014563687140570199197_);}
	.st103{clip-path:url(#SVGID_00000071552117912747945790000011504398293518420668_);fill:#998776;}
	.st104{clip-path:url(#SVGID_00000153694602507023124690000004976442156401382842_);fill:#998776;}
	.st105{clip-path:url(#SVGID_00000107589578253072384710000016250071449109533095_);fill:#846F5A;}
	.st106{clip-path:url(#SVGID_00000107589578253072384710000016250071449109533095_);fill:#998776;}
	.st107{fill:#A08975;}
	.st108{clip-path:url(#SVGID_00000026125988184047442940000006175316389189669807_);}
	.st109{fill:url(#SVGID_00000044880019332478000170000000713104880228534412_);}
	.st110{opacity:0.65;fill:url(#SVGID_00000072280867437318394870000014744139474933246618_);}
	.st111{fill:#998776;}
	.st112{fill:#C1AE9F;}
	.st113{clip-path:url(#SVGID_00000151538302889926965040000010039135017989951659_);fill:#846F5A;}
	.st114{clip-path:url(#SVGID_00000151538302889926965040000010039135017989951659_);fill:#998776;}
	.st115{clip-path:url(#SVGID_00000005951273866786501120000014674661617810220461_);}
	.st116{fill:#515151;}
	.st117{fill:#7A7A7A;}
	.st118{fill:#8C8C8C;}
	.st119{fill:#F5E3BA;}
	.st120{fill:#593263;}
	.st121{opacity:0.4;fill:#BB986F;}
	.st122{fill:#A5A5A5;}
	.st123{fill:#BB986F;}
	.st124{fill:#A883C6;}
	.st125{fill:#2E1849;}
	.st126{fill:#6B6B6B;}
	.st127{fill:#724382;}
	.st128{clip-path:url(#SVGID_00000179606781188240053560000014187616603838508470_);fill:#8ABD32;}
	.st129{clip-path:url(#SVGID_00000106118720597377406700000003978820121231877811_);}
	.st130{fill:#70442C;}
	.st131{opacity:0.2;clip-path:url(#SVGID_00000064345134871732715200000003388035228086372514_);fill:#70442C;}
	.st132{fill:#A36B4B;}
	.st133{fill:#875536;}
	.st134{fill:#D5AF73;}
	.st135{opacity:0.2;clip-path:url(#SVGID_00000091722737266280144270000013352075302093184142_);fill:#70442C;}
	.st136{opacity:0.2;clip-path:url(#SVGID_00000080888409410466602050000009224773640458782865_);fill:#70442C;}
	.st137{opacity:0.4;clip-path:url(#SVGID_00000148626972266291261740000004085491617300092302_);fill:#70442C;}
	.st138{opacity:0.2;clip-path:url(#SVGID_00000148626972266291261740000004085491617300092302_);fill:#70442C;}
	.st139{clip-path:url(#SVGID_00000038394788226872821710000017297296020051894946_);fill:#FECFAE;}
	.st140{fill:#9B8572;}
	.st141{fill:#4F2C2A;}
	.st142{fill:#934D3D;}
	.st143{clip-path:url(#SVGID_00000129889386739131069720000012974593164870651580_);fill:#70442C;}
	.st144{fill:#BF975D;}
	.st145{fill:#A57341;}
	.st146{clip-path:url(#SVGID_00000075141034911243330490000013382871421514207392_);fill:#70442C;}
	.st147{clip-path:url(#SVGID_00000143618334287681404960000011126549061593090226_);fill:#70442C;}
	.st148{fill:#4A1F19;}
	.st149{clip-path:url(#SVGID_00000081637584027737535530000003987440109107941546_);fill:#A37A79;}
	.st150{fill:#D19857;}
	.st151{fill:#D6B58E;}
	.st152{fill:#AF8956;}
	.st153{clip-path:url(#SVGID_00000120549784463975109970000009908508870756513705_);fill:#FECFAE;}
	.st154{fill:#93643A;}
	.st155{clip-path:url(#SVGID_00000080207675389927289580000009759223586851970733_);fill:#70442C;}
	.st156{clip-path:url(#SVGID_00000084518503030699220820000013510654415617553817_);fill:#70442C;}
	.st157{clip-path:url(#SVGID_00000055687717022696142420000008705230535520658824_);fill:#70442C;}
	.st158{clip-path:url(#SVGID_00000085968715527249092930000000205872978727215510_);fill:#70442C;}
	.st159{clip-path:url(#SVGID_00000041981447060525674920000009584426739909950122_);fill:#70442C;}
	.st160{clip-path:url(#SVGID_00000111889580752467903560000017286802391787295620_);fill:#70442C;}
	.st161{clip-path:url(#SVGID_00000153706016601464653680000018376084911465383306_);fill:#70442C;}
	.st162{clip-path:url(#SVGID_00000133510206151190887460000010207313198138269621_);fill:#70442C;}
	.st163{clip-path:url(#SVGID_00000076568363868251976250000008545120976018546612_);fill:#70442C;}
	.st164{clip-path:url(#SVGID_00000179647345048648946770000001738661124976756893_);fill:#70442C;}
	.st165{clip-path:url(#SVGID_00000152984065293406274510000015020236731576564127_);fill:#70442C;}
	.st166{clip-path:url(#SVGID_00000142876129367681318810000014699321136099800760_);fill:#70442C;}
	.st167{clip-path:url(#SVGID_00000087396135719466451750000013474953743209942712_);fill:#A37A79;}
	.st168{clip-path:url(#SVGID_00000049936845561369515200000014997856386176129952_);fill:#FECFAE;}
	.st169{clip-path:url(#SVGID_00000153679461318441903590000009534224924355455413_);fill:#70442C;}
	.st170{clip-path:url(#SVGID_00000038407080754665178440000016657361350430978971_);fill:#70442C;}
	.st171{clip-path:url(#SVGID_00000078724923069074515950000001869936881606554038_);fill:#70442C;}
	.st172{fill:#877366;}
	.st173{clip-path:url(#SVGID_00000103980564476787636870000002822293861625547650_);fill:#FECFAE;}
	.st174{fill:#4E8BC1;}
	.st175{fill:#F9EBE8;}
	.st176{fill:#C9B3AD;}
	.st177{fill:#EAD2CC;}
	.st178{fill:#387BAD;}
	.st179{clip-path:url(#SVGID_00000081618314780036996310000002143552234390002315_);fill:#8ABD32;}
	.st180{clip-path:url(#SVGID_00000167393938995894917560000011297210255177318565_);fill:#8ABD32;}
	.st181{clip-path:url(#SVGID_00000014618124437622282690000005254874462967316892_);fill:#8ABD32;}
	.st182{clip-path:url(#SVGID_00000054256566106940607940000000545065486840810401_);fill:#8ABD32;}
	.st183{clip-path:url(#SVGID_00000047778228580010848160000010746436790510667912_);fill:#8ABD32;}
	.st184{clip-path:url(#SVGID_00000054229876509078194510000016285738135470786945_);fill:#FECFAE;}
	.st185{clip-path:url(#SVGID_00000115508004393517134060000015377164093453812412_);fill:#8ABD32;}
	.st186{fill:#5597C9;}
	.st187{fill:#1572A0;}
	.st188{fill:#D6C5C1;}
	.st189{clip-path:url(#SVGID_00000162343485688303770340000013763913923958651558_);fill:#8ABD32;}
	.st190{fill:#61A6D1;}
	.st191{fill:#B2A19D;}
	.st192{clip-path:url(#SVGID_00000008841115626816131830000016563896363364453812_);fill:#8ABD32;}
	.st193{clip-path:url(#SVGID_00000160880429439883787330000007207664339266873748_);fill:#FECFAE;}
	.st194{clip-path:url(#SVGID_00000061459027426472304030000003822855267747829128_);fill:#8ABD32;}
	.st195{clip-path:url(#SVGID_00000101086643553506848880000018374791092337151398_);fill:#FECFAE;}
	.st196{fill:#A07775;}
	.st197{fill:#B79C86;}
	.st198{fill:#8C383B;}
	.st199{fill:#A5606B;}
	.st200{fill:#8F534A;}
	.st201{fill:#523028;}
	.st202{fill:#7A2C32;}
	.st203{fill:#965D59;}
	.st204{clip-path:url(#SVGID_00000055666397672935880350000005960489012467735700_);fill:#8F534A;}
	.st205{clip-path:url(#SVGID_00000037654865668498383240000002244017380523284159_);fill:#8BBC38;}
	.st206{clip-path:url(#SVGID_00000048494534405059887320000012416589794599625895_);fill:#8BBC38;}
	.st207{clip-path:url(#SVGID_00000078039082563618560990000015364689319437978527_);fill:#FDCFAC;}
	.st208{clip-path:url(#SVGID_00000072968371915683019560000013014477971519774385_);fill:#8F534A;}
	.st209{fill:#5B3932;}
	.st210{fill:#9E5F59;}
	.st211{clip-path:url(#SVGID_00000094605433804358146990000011702337533101516222_);fill:#8BBC38;}
	.st212{clip-path:url(#SVGID_00000018958863767041493440000003324033883084424329_);fill:#603D38;}
	.st213{clip-path:url(#SVGID_00000055693997810656902650000003659486221380592286_);fill:#523028;}
	.st214{fill:#914047;}
	.st215{clip-path:url(#SVGID_00000003789667481923825530000017921849523527642018_);fill:#8BBC38;}
	.st216{clip-path:url(#SVGID_00000005254554100127194940000013028686265456404387_);fill:#8BBC38;}
	.st217{clip-path:url(#SVGID_00000023998946345323317740000012078849168691419023_);fill:#603D38;}
	.st218{clip-path:url(#SVGID_00000097490258014824254920000012403826960880767129_);fill:#523028;}
	.st219{clip-path:url(#SVGID_00000161612139520174134950000018224513360625598640_);fill:#8BBC38;}
	.st220{clip-path:url(#SVGID_00000103260402064990225280000003619069268991788990_);fill:#8BBC38;}
	.st221{clip-path:url(#SVGID_00000037682341408088617130000001134140109305772936_);fill:#8ABD32;}
	.st222{clip-path:url(#SVGID_00000181766123061537098050000013583471400498574984_);fill:#441C0C;}
	.st223{fill:#9B786F;}
	.st224{fill:#8E7C75;}
	.st225{opacity:0.8;fill:#A3ACAF;}
	.st226{fill:#838C8E;}
	.st227{fill:#CFE59A;}
	.st228{clip-path:url(#SVGID_00000075856909007879121560000014317814647561926814_);fill:#FECFAE;}
	.st229{clip-path:url(#SVGID_00000113331332657536124990000005190008801506317501_);fill:#441C0C;}
	.st230{fill:#773825;}
	.st231{clip-path:url(#SVGID_00000003806070288371973690000016094549691431345815_);}
	.st232{clip-path:url(#SVGID_00000023266228864874515130000015417073451952377498_);}
	.st233{clip-path:url(#SVGID_00000016774767052271597830000013617746529647990665_);fill:#441C0C;}
	.st234{clip-path:url(#SVGID_00000137844520087405497910000006550063379363196573_);}
	.st235{clip-path:url(#SVGID_00000156564781259256329950000015412455228815112839_);fill:#441C0C;}
	.st236{fill:#2B1009;}
	.st237{opacity:0.8;fill:#B8BFC1;}
	.st238{fill:#B8BFC1;}
	.st239{fill:#F5FFCA;}
	.st240{fill:#A0C45B;}
	.st241{fill:#BCE077;}
	.st242{clip-path:url(#SVGID_00000134957477098598138070000001492879446744141196_);fill:#FECFAE;}
	.st243{clip-path:url(#SVGID_00000136369559604567133150000006110728009199548598_);}
	.st244{fill:#B99AD6;}
	.st245{fill:#EDCCB2;}
	.st246{fill:#9287AB;}
	.st247{fill:#B6B3C4;}
	.st248{fill:#A29CB7;}
	.st249{fill:#5A546D;}
	.st250{fill:#7F6A5C;}
	.st251{fill:#645F77;}
	.st252{fill:#472A51;}
	.st253{clip-path:url(#SVGID_00000183936292915365468230000007139931796752763544_);}
	.st254{fill:#6D407C;}
	.st255{clip-path:url(#SVGID_00000060746060458958235190000001021345647691363465_);fill:#6D407C;}
	.st256{clip-path:url(#SVGID_00000073722448761079924600000002475844319533481890_);fill:#6D407C;}
	.st257{clip-path:url(#SVGID_00000083059081266054451970000010050811832369267361_);fill:#8ABD32;}
	.st258{fill:#76708E;}
	.st259{clip-path:url(#SVGID_00000005985898080109599470000005157194304192638624_);fill:#6D407C;}
	.st260{clip-path:url(#SVGID_00000120532164977361966390000008138765862911978156_);fill:#6D407C;}
	.st261{fill:#9C7ABC;}
	.st262{clip-path:url(#SVGID_00000109009812780638867330000014044619236470244516_);fill:#FECFAE;}
	.st263{clip-path:url(#SVGID_00000116923543997573805550000002287444302039020170_);fill:#6D407C;}
	.st264{clip-path:url(#SVGID_00000091732628687447029030000005396311404949391781_);fill:#B99AD6;}
	.st265{clip-path:url(#SVGID_00000055701203145888104960000001653106317522181513_);fill:#FECFAE;}
	.st266{clip-path:url(#SVGID_00000053532014769444946610000002578057263058463679_);fill:#8ABD32;}
	.st267{fill:#8C796F;}
	.st268{fill:#633C27;}
	.st269{fill:#3F2519;}
	.st270{fill:#6B5E55;}
	.st271{clip-path:url(#SVGID_00000100356327495613643000000014368656599963932342_);fill:#633C27;}
	.st272{fill:#7A6B5F;}
	.st273{fill:#2B1811;}
	.st274{fill:#594E47;}
	.st275{fill:#685C53;}
	.st276{fill:#A8968A;}
	.st277{fill:#996A52;}
	.st278{fill:#B2A197;}
	.st279{fill:#A39081;}
	.st280{clip-path:url(#SVGID_00000182507152490614925160000010249536062541175441_);}
	.st281{clip-path:url(#SVGID_00000027570370487384203840000004181134879602450307_);fill:#FECFAE;}
	.st282{fill:#685443;}
	.st283{fill:#CCB193;}
	.st284{fill:#BB9C75;}
	.st285{fill:#C6A283;}
	.st286{fill:#897056;}
	.st287{fill:#DB6800;}
	.st288{fill:#F28D26;}
	.st289{fill:#702C31;}
	.st290{fill:#9B8067;}
	.st291{fill:#35261D;}
	.st292{fill:#4B3628;}
	.st293{fill:#658723;}
	.st294{fill:#EDD87E;}
	.st295{fill:#992828;}
	.st296{fill:#C93F3F;}
	.st297{fill:#E1C243;}
	.st298{fill:#D8B213;}
	.st299{fill:#E5CA57;}
	.st300{clip-path:url(#SVGID_00000154394452861855039380000012950282830512091544_);}
	.st301{clip-path:url(#SVGID_00000112597988462810776510000013312016443906241206_);fill:#FECFAE;}
	.st302{fill:#AD8B82;}
	.st303{clip-path:url(#SVGID_00000050635189516416394190000009041032574665222571_);}
	.st304{fill:#7C685B;}
	.st305{clip-path:url(#SVGID_00000146470159247961571360000018179474875741322656_);}
	.st306{clip-path:url(#SVGID_00000040541624282975854730000009650536752014336670_);}
	.st307{fill:#E2D3C5;}
	.st308{fill:#FFEEA9;}
	.st309{fill:#2B211F;}
	.st310{fill:#A3847E;}
	.st311{fill:#544541;}
	.st312{clip-path:url(#SVGID_00000012453486708990099710000018312380303200902822_);fill:#7C251C;}
	.st313{fill:#7C251C;}
	.st314{fill:#CEA380;}
	.st315{clip-path:url(#SVGID_00000039835944337298255690000006303152655569379476_);fill:#8E2F20;}
	.st316{clip-path:url(#SVGID_00000033327594195809180050000003848401023109095599_);fill:#AA4226;}
	.st317{fill:#BA9B95;}
	.st318{fill:#6B5956;}
	.st319{fill:#594947;}
	.st320{fill:#877674;}
	.st321{clip-path:url(#SVGID_00000159445535481926631940000006331563757752976006_);fill:#B6B3C4;}
	.st322{clip-path:url(#SVGID_00000122698647614306469140000006878585220585453736_);fill:#B6B3C4;}
	.st323{clip-path:url(#SVGID_00000019675767004649306140000015710667165585361807_);fill:#E5CA57;}
	.st324{clip-path:url(#SVGID_00000122688599859879572670000016342338666285305523_);fill:#E5CA57;}
	.st325{clip-path:url(#SVGID_00000101092638321730998700000010076052434210416306_);fill:#FECFAE;}
	.st326{fill:#EEC8B8;}
	.st327{fill:#CEA697;}
	.st328{fill:#888499;}
	.st329{fill:#9B4329;}
	.st330{fill:#933D2E;}
	.st331{fill:#843523;}
	.st332{fill:#CC6748;}
	.st333{fill:#B7542E;}
	.st334{fill:#7C3237;}
	.st335{fill:#893724;}
	.st336{fill:#914759;}
	.st337{fill:#D67B5F;}
	.st338{clip-path:url(#SVGID_00000123427696127171075310000017153337454981050768_);fill:#B6B3C4;}
	.st339{clip-path:url(#SVGID_00000110452595324190307960000005443503966535624353_);fill:#B6B3C4;}
	.st340{clip-path:url(#SVGID_00000108309475217920548640000003557586333563099035_);fill:#E5CA57;}
	.st341{clip-path:url(#SVGID_00000097483784805998845170000010749104645508939932_);fill:#E5CA57;}
	.st342{clip-path:url(#SVGID_00000146470159586050031370000003320101768642652602_);fill:#B6B3C4;}
	.st343{clip-path:url(#SVGID_00000063618252970702408110000015430906035447447436_);fill:#B6B3C4;}
	.st344{clip-path:url(#SVGID_00000001645868353152700690000001227014111730358932_);fill:#AED76A;}
	.st345{clip-path:url(#SVGID_00000123420444291950076750000013586417355859224192_);fill:#B6B3C4;}
	.st346{clip-path:url(#SVGID_00000097474848824374541390000011475445830344852123_);fill:#B6B3C4;}
	.st347{clip-path:url(#SVGID_00000100363628095239132020000005234028443046787772_);fill:#E5CA57;}
	.st348{clip-path:url(#SVGID_00000069386500639278922880000016301152176763624382_);}
	.st349{clip-path:url(#SVGID_00000000188834688183914390000013041696059524485553_);fill:#8BBC38;}
	.st350{fill:#A37A79;}
	.st351{fill:#7F74B5;}
	.st352{clip-path:url(#SVGID_00000014591963391711140330000006434123635387164558_);fill:#FECFAE;}
	.st353{clip-path:url(#SVGID_00000116230366084990042340000010848154689741597606_);fill:#E0D1B7;}
	.st354{clip-path:url(#SVGID_00000116230366084990042340000010848154689741597606_);}
	.st355{clip-path:url(#SVGID_00000107585064173847814260000001312509927594936457_);fill:#A37A79;}
	.st356{fill:#682A30;}
	.st357{opacity:0.58;fill:#AA9983;}
	.st358{opacity:0.58;fill:#9B4329;}
	.st359{opacity:0.58;fill:#B7542E;}
	.st360{fill:#755959;}
	.st361{fill:#BC9595;}
	.st362{clip-path:url(#SVGID_00000111149078325694849880000011528004298683954344_);}
	.st363{fill:#E2D8C7;}
	.st364{fill:#969189;}
	.st365{fill:#BAB3A8;}
	.st366{fill:#54423E;}
	.st367{clip-path:url(#SVGID_00000153686573627988558110000016845101918529624966_);fill:#877069;}
	.st368{clip-path:url(#SVGID_00000049932974428924475360000000421829734118314383_);fill:#725B51;}
	.st369{fill:#EFE8DF;}
	.st370{clip-path:url(#SVGID_00000026884411115313518190000005144646040603323294_);fill:#969189;}
	.st371{fill:#765196;}
	.st372{clip-path:url(#SVGID_00000148654651809227009970000004181775095471641785_);fill:#A883C6;}
</style>
<path class="st5" d="M849.69,649.21c0,0,85.44,98.67,172.25,114.69c0,0-10.72,49.02,17.81,53.96c22.56,3.91,25.07-94.3,25.07-94.3
	L926.96,623.47L849.69,649.21z"/>
<path class="st0" d="M1422.24,1072.09c99.49-13.99,166.07,26.2,251.12,58.11c119.87,44.98,255.12,160.23,180.5,284.24
	c-115.03,191.16-237.91,195.32-592.44,237.37c-403.15,47.82-385.12-13.03-522.23,1.41c-103.99,10.95-579.26,49.85-592.26-258.61
	c-6.54-155.14,157.5-323.76,721.87-346.84C1106.99,1038.04,1361.56,1080.62,1422.24,1072.09z"/>
<g>
	<defs>
		<path id="SVGID_00000014623407248348882330000009997398460243035535_" d="M1385.74,1103.4c99.49-13.99,202.57-5.12,287.61,26.8
			c119.87,44.98,255.12,160.23,180.5,284.24c-115.03,191.16-237.91,195.32-592.44,237.37c-403.15,47.82-385.12-13.03-522.23,1.41
			c-103.99,10.95-579.26,49.85-592.26-258.61c-6.54-155.14,157.5-323.76,721.87-346.84
			C1106.99,1038.04,1325.07,1111.94,1385.74,1103.4z"/>
	</defs>
	<clipPath id="SVGID_00000018917776629789583500000007140286110047178154_">
		<use xlink:href="#SVGID_00000014623407248348882330000009997398460243035535_"  style="overflow:visible;"/>
	</clipPath>
	<path style="clip-path:url(#SVGID_00000018917776629789583500000007140286110047178154_);fill:#FECFAE;" d="M649.23,1139.66
		c0,0-424.73,74.89-296.44,244.66s643.56,74.71,776.84,88.71s657.72-163.28,795.35,97.97c137.62,261.25-304.41,85.72-304.41,85.72
		s-59.59-122.46-727.67-72.31c-176.47,13.25-598.05,22.57-649.74-158.62c-52.5-184.06,123.21-284.66,356.68-347.6
		C833.31,1015.26,649.23,1139.66,649.23,1139.66z"/>
</g>
<path class="st282" d="M389.83,619.29c0,0,826.71-5.55,931.35-55.4c104.65-49.85-741.6-144.04-741.6-144.04L389.83,619.29z"/>
<polygon class="st283" points="452.81,1010.26 1284.37,928.14 1560.99,1015.69 688.69,1142 "/>
<path class="st284" d="M709.1,1062.49c0,0,90.58,24.42,170.08-2.66s-73.65-55.07-118.08-37.58
	C716.68,1039.75,709.1,1062.49,709.1,1062.49z"/>
<path class="st285" d="M661.45,954.69c0,0-31.88,19.58-24.76,33.55c6.88,13.52,30.11,72.02,151.88,67.77
	c9.8-0.34,19.52-1.98,28.92-5.06c21.08-6.91,56.26-23,67.79-55.63c16.86-47.7-136.58-71.82-136.58-71.82L661.45,954.69z"/>
<path class="st8" d="M665.66,952.9c0,0-32.03,17.21-25.04,29.24c6.77,11.64,29.48,62.05,151.22,57.34
	c9.8-0.38,19.53-1.88,28.94-4.62c21.12-6.16,56.42-20.38,68.23-48.7c17.26-41.41-135.9-60.97-135.9-60.97L665.66,952.9z"/>
<path class="st284" d="M795.46,988.24c0,0,7.12,14.54,22.28,13.07c15.16-1.47,38.47-21.12,38.47-21.12s-17.87-17.05-31.65-16.22
	C810.78,964.79,795.46,988.24,795.46,988.24z"/>
<path class="st285" d="M650.08,939.81c10.45,20.95,39.11,50.84,117.44,48.21c5.77-0.19,11.51-0.9,17.14-2.14
	c19.77-4.35,66.22-17.3,74.28-44.27c10.29-34.43-78.93-65.7-115.33-62.24c-30.85,2.93-60.29,10.52-85.99,29.47
	C647.92,916,644.71,929.05,650.08,939.81z"/>
<path class="st8" d="M657.93,932.28c9.02,18.13,32.49,43.39,93.38,45.42c16.82,0.56,33.61-1.52,49.71-6.44
	c20.56-6.28,47.12-17.95,52.86-37.24c9.65-32.4-74.07-61.84-108.21-58.59c-28.94,2.75-56.56,9.89-80.67,27.72
	C655.89,909.86,652.89,922.15,657.93,932.28z"/>
<path class="st284" d="M768.88,930.63c0,0,18.87,26.88,28.7,27.17s27.27-16.21,27.27-16.21s-16.02-25.12-29.04-22.24
	C782.79,922.22,768.88,930.63,768.88,930.63z"/>
<path class="st285" d="M679.75,875.05c7.46,14.94,27.9,36.26,83.77,34.39c4.11-0.14,8.21-0.64,12.23-1.52
	c14.1-3.1,47.24-12.34,52.99-31.58c7.34-24.56-56.31-46.86-82.27-44.39c-22.01,2.09-43.01,7.5-61.34,21.02
	C678.21,858.06,675.92,867.38,679.75,875.05z"/>
<path class="st8" d="M685.35,869.67c6.44,12.94,23.18,30.95,66.61,32.4c12,0.4,23.98-1.08,35.46-4.59
	c14.66-4.48,33.61-12.8,37.71-26.56c6.88-23.11-52.83-44.11-77.19-41.8c-20.65,1.96-40.35,7.05-57.55,19.77
	C683.9,853.69,681.75,862.45,685.35,869.67z"/>
<path class="st284" d="M767.46,874.08c0,0,14.29,18.76,17.34,13.8c4.66-7.56,19.59-11.32,19.59-11.32s-9.45-15.56-18.86-14.14
	C774.37,864.11,767.46,874.08,767.46,874.08z"/>
<path class="st284" d="M1400.9,1011.47l27.99-6.47c0,0-43.19-178.54,30.26-362.86l-26.27-29.91c0,0-67.97,87.42-60.35,240.56
	C1380.15,1005.93,1400.9,1011.47,1400.9,1011.47z"/>
<path class="st286" d="M1448.91,627.29c0,0-75.07,123.19-48,384.19c0,0-46.85,14.32-49.62-16.17
	c-2.77-30.49-3.7-312.28,67.44-396.35L1448.91,627.29z"/>
<path class="st286" d="M1252.95,954.13l-25.77-6.47c0,0,39.78-178.54-27.87-362.86l24.19-29.91c0,0,62.59,87.42,55.58,240.56
	S1252.95,954.13,1252.95,954.13z"/>
<path class="st284" d="M975.11,1038.18c0,0,45.4,33.97,103.71,18.06c58.32-15.91,2.6-22.53,2.6-22.53L975.11,1038.18z"/>
<path class="st284" d="M1092.82,1014.2c0,0,33.12,43.2,113.07,29.4c79.95-13.8,59.01-41.96,38.25-42.15
	C1223.38,1001.25,1111.48,966.14,1092.82,1014.2z"/>
<path class="st284" d="M1208.74,569.94c0,0,69.13,123.19,44.21,384.19c0,0,43.15,14.32,45.7-16.17
	c2.55-30.49,3.4-312.28-62.11-396.35L1208.74,569.94z"/>
<path class="st284" d="M732.67,1084.65l35.33-8.16c0,0-54.52-225.39,38.2-458.07l-33.16-37.75c0,0-85.8,110.36-76.18,303.67
	C706.48,1077.65,732.67,1084.65,732.67,1084.65z"/>
<g>
	<path class="st287" d="M1185.67,873.5c0,0,62.51-11.15,93.65,21.37s36.83,126.91-78.25,130.14s-149.64-52.64-132.92-97.48
		S1116.56,848.17,1185.67,873.5z"/>
	<path class="st23" d="M1176.78,881.37c0,0-0.06-56.21,16.61-56.44c16.66-0.23,20.35,10.13,20.35,10.13s-18.86,7.86-20.09,40.01
		S1176.78,881.37,1176.78,881.37z"/>
	<path class="st288" d="M1184.67,867.78c0,0,61.71-10.72,92.5,20.85s36.55,123.05-77.08,126.02
		c-113.63,2.97-147.83-51.24-131.39-94.67C1085.15,876.54,1116.41,843.13,1184.67,867.78z"/>
	<path class="st287" d="M1157.84,1014.76c0,0-49.33-56.61-17.52-99.17c0,0-23.86,49.82,34.41,98.8L1157.84,1014.76z"/>
	<path class="st287" d="M1186.41,1016.62c0,0,54.69-30.6,55.39-74.54c0,0,5.39,48.15-37.29,72.49L1186.41,1016.62z"/>
</g>
<g>
	<path class="st287" d="M1021.89,923.01c0,0-42.61-10.03-63.37,16.64c-20.76,26.67-23.49,105.08,54.75,109.16
		c78.23,4.08,101.04-41.96,89.13-79.44S1068.54,902.78,1021.89,923.01z"/>
	<path class="st23" d="M1017.39,928.83c0,0-1.04-43.96-10.1-44.45c-9.06-0.49-10.87,7.54-10.87,7.54s10.4,6.5,11.68,31.67
		S1017.39,928.83,1017.39,928.83z"/>
	<path class="st288" d="M1015.68,918.26c0,0-42.06-9.66-62.6,16.21c-20.54,25.87-23.35,101.87,53.9,105.71
		c77.24,3.84,99.82-40.81,88.13-77.12C1083.41,926.76,1061.77,898.59,1015.68,918.26z"/>
	<path class="st287" d="M1037.04,1040.42c0,0,38.68-45.46,9.36-81.87c0,0,16.82,41.72-22.18,81.74L1037.04,1040.42z"/>
	<path class="st287" d="M1010.17,1040.35c0,0-31.4-24.46-32.41-61c0,0-6.76,42.47,22.53,63.23L1010.17,1040.35z"/>
</g>
<path class="st289" d="M1039.75,754c0,0-19.24,54.23,0,63.86c18.39,9.2,444.24-8.77,623.95-118.8
	c21.16-12.96,38.07-32.02,47.35-55.03c3.86-9.57,6.61-20.15,6.61-30.85c0-0.46-39.67,21.35-64.73,24.2
	C1509.58,653.7,1039.75,754,1039.75,754z"/>
<path class="st198" d="M883.04,652c0,0,69.24,85.38,156.71,102c0,0,478.48,2.62,677.92-140.83c0,0-76.1,10.16-166.2-30.35
	c-90.1-40.51-649.05-48.38-649.05-48.38L883.04,652z"/>
<path class="st286" d="M723.68,1358.69l-30.32-15.89v-187.55l27.7,21.4C721.06,1176.64,762.17,1272.63,723.68,1358.69z"/>
<path class="st284" d="M721.06,1176.64l2.62,182.05l55.4-11.33v-182.82C779.08,1164.54,729.22,1115.01,721.06,1176.64z"/>
<path class="st286" d="M509.69,1260.15l-27.64-15.89V1056.7l27.64,14.63C509.69,1071.34,544.77,1174.09,509.69,1260.15z"/>
<path class="st284" d="M509.69,1085.14v175.01l50.5-11.33V1066C560.19,1066,517.13,1023.51,509.69,1085.14z"/>
<path class="st286" d="M1466.17,1234.13l-24.82-14.53v-171.43l24.82,25.99C1466.17,1074.16,1497.66,1155.47,1466.17,1234.13z"/>
<path class="st284" d="M1466.17,1074.16v159.97l45.34-10.35v-167.11C1511.5,1056.67,1472.85,1017.83,1466.17,1074.16z"/>
<path class="st286" d="M710.56,1118.99l-257.75-108.73l29.16,63.32l239.09,103.06C721.06,1176.64,753.19,1136.97,710.56,1118.99z"/>
<polygon class="st284" points="712.31,1118.7 1560.99,1015.69 1512.2,1078.53 721.06,1176.64 "/>
<polygon class="st290" points="1382.33,1283.5 1532.84,1254.74 1528.52,1273.98 1380.72,1301.98 "/>
<path class="st286" d="M1371.8,1252.5v76.87l38.36-7.1c0,0-23.22-66.14,45.64-80.02C1455.8,1242.24,1376.06,1225.37,1371.8,1252.5z"
	/>
<path class="st286" d="M1556.45,1220.4l-5.89,76.66l-36.84,4.42c0,0,21.7-77.67-47.16-91.55
	C1466.56,1209.93,1552.18,1193.27,1556.45,1220.4z"/>
<path class="st290" d="M1194.15,1304.13v31.05c0,6.86,5.26,12.33,11.19,11.34c0.1-0.02,0.2-0.03,0.29-0.05
	c4.77-0.9,8.24-5.71,8.24-11.25v-40.34C1213.87,1294.88,1197.34,1279.28,1194.15,1304.13z"/>
<path class="st290" d="M1249.73,1291.68v30.13c0,6.86,5.26,12.33,11.19,11.34c0.1-0.02,0.2-0.03,0.29-0.05
	c4.77-0.9,8.24-5.71,8.24-11.25v-33.7c0-5.03-2.84-9.55-7.06-10.93c-4.8-1.57-10.61-0.43-12.53,12.63
	C1249.77,1290.45,1249.73,1291.07,1249.73,1291.68z"/>
<path class="st290" d="M1301.06,1282.74v30.13c0,6.86,5.26,12.33,11.19,11.34c0.1-0.02,0.2-0.03,0.29-0.05
	c4.77-0.9,8.24-5.71,8.24-11.25v-33.7c0-5.03-2.84-9.55-7.06-10.93c-4.8-1.57-10.61-0.43-12.53,12.63
	C1301.09,1281.51,1301.06,1282.13,1301.06,1282.74z"/>
<polygon class="st290" points="1154.71,1333.6 1367.89,1292.86 1360.64,1318.6 1151.29,1358.25 "/>
<path class="st284" d="M1387.71,1261.92c0,0-11.09,23.42-8.81,76.63c2.28,53.21-43.96,40.01-48.66,28.66s17.06-84.39,8.31-106.04
	C1329.79,1239.51,1387.71,1261.92,1387.71,1261.92z"/>
<path class="st284" d="M1168.44,1286.85c0,0-9.14,23.98-2.48,76.94c6.66,52.96-40.56,42.37-46.18,31.3
	c-5.62-11.06,9.63-93.23-0.88-114.35C1108.38,1259.64,1168.44,1286.85,1168.44,1286.85z"/>
<path class="st286" d="M1358.31,1223.1l-100.95-102.53l0.43,36.62l100.52,108.13C1378.27,1257.56,1358.31,1223.1,1358.31,1223.1z"/>
<polygon class="st286" points="1360.64,1223.1 1558.37,1190.36 1555.96,1228.05 1360.64,1265.31 "/>
<path class="st284" d="M1452.64,1096.07l-192.95,24.6l100.95,102.53l197.73-32.74L1452.64,1096.07z M1289.99,1128.58l156.59-19.97
	l81.49,75.6l-157.61,26.1L1289.99,1128.58z"/>
<polygon class="st291" points="1446.58,1108.62 1289.99,1128.58 1370.46,1210.31 1528.07,1184.21 "/>
<path class="st286" d="M1143.75,1256.6l-136.65-138.79l0.58,49.57l136.07,146.37C1170.77,1303.25,1143.75,1256.6,1143.75,1256.6z"/>
<polygon class="st292" points="1260.08,1101.63 1048.11,1128.66 1157.04,1239.29 1370.4,1203.96 "/>
<polygon class="st61" points="1048.11,1128.66 1157.04,1239.29 1370.4,1203.96 1260.08,1101.63 "/>
<path class="st286" d="M804.05,1216.29v69.22l22.65,25.89c0,0-8.95-80.37,18.05-51.33C871.75,1289.11,854.29,1192.33,804.05,1216.29
	z"/>
<path class="st286" d="M909.45,1288.33v115.79l-22.02-24.69c0,0,12.06-63.79-19.03-93.92
	C841.87,1259.79,866.94,1253.78,909.45,1288.33z"/>
<polygon class="st290" points="930.85,1353.92 1095.58,1322.44 1090.85,1343.5 929.08,1374.14 "/>
<path class="st284" d="M909.45,1319.99v84.13l41.99-7.78c0,0-25.42-72.39,49.95-87.58
	C1001.38,1308.77,914.11,1290.29,909.45,1319.99z"/>
<path class="st284" d="M1114.97,1284.63v84.13l-40.32,4.84c0,0,23.75-85-51.61-100.2
	C1023.03,1273.41,1110.3,1254.93,1114.97,1284.63z"/>
<path class="st286" d="M909.45,1285.4L803.6,1177.9l0.45,38.39l105.39,113.38C930.38,1321.54,909.45,1285.4,909.45,1285.4z"/>
<polygon class="st284" points="909.45,1285.4 1116.77,1251.07 1114.59,1288.31 909.45,1329.67 "/>
<path class="st283" d="M1005.91,1152.21l-202.31,25.8l105.85,107.5l207.33-34.33L1005.91,1152.21z M835.37,1186.3l164.19-20.94
	l85.45,79.26l-165.26,27.36L835.37,1186.3z"/>
<polygon class="st292" points="999.55,1165.36 835.37,1186.3 919.74,1271.99 1085,1244.63 "/>
<g>
	
		<ellipse transform="matrix(0.8227 -0.5685 0.5685 0.8227 -398.6111 1053.0511)" class="st293" cx="1488.64" cy="1165.46" rx="14.67" ry="35.07"/>
	
		<ellipse transform="matrix(0.8227 -0.5685 0.5685 0.8227 -397.1723 1053.4879)" class="st23" cx="1490.06" cy="1163.38" rx="13.15" ry="34.16"/>
	<path class="st293" d="M1509.48,1191.47c0,0-5.81-29.5-23.24-39.86c0,0,12.24,8.89,19.83,42.21
		C1506.07,1193.83,1508.72,1195.4,1509.48,1191.47z"/>
	<path class="st293" d="M1502.17,1192.05c0,0-4.58-23.23-18.3-31.39c0,0,9.64,7,15.62,33.24
		C1499.48,1193.91,1501.57,1195.14,1502.17,1192.05z"/>
</g>
<path class="st286" d="M793.27,599.66c0,0-94.76,155.51-60.6,484.99c0,0-59.14,18.08-62.64-20.41
	c-3.5-38.49-4.67-394.21,85.14-500.35L793.27,599.66z"/>
<path class="st286" d="M545.9,1012.26l-32.54-8.16c0,0,50.21-225.39-35.18-458.07l30.54-37.75c0,0,79.02,110.36,70.16,303.67
	S545.9,1012.26,545.9,1012.26z"/>
<path class="st284" d="M490.09,527.27c0,0,87.27,155.51,55.81,484.99c0,0,54.47,18.08,57.69-20.41
	c3.22-38.49,4.3-394.21-78.41-500.35L490.09,527.27z"/>
<polygon class="st247" points="403.36,1202.2 544.64,1182.02 651.06,1210.5 513.45,1285.02 "/>
<g>
	
		<ellipse transform="matrix(0.7769 -0.6296 0.6296 0.7769 -389.2088 1161.9517)" class="st293" cx="1445.17" cy="1130.24" rx="12.8" ry="30.61"/>
	
		<ellipse transform="matrix(0.7769 -0.6296 0.6296 0.7769 -387.7607 1162.2156)" class="st23" cx="1446.26" cy="1128.32" rx="11.48" ry="29.81"/>
	<path class="st293" d="M1465.03,1151.49c0,0-7.02-25.28-22.88-33.14c0,0,11.24,6.93,20.07,35.42
		C1462.22,1153.76,1464.63,1154.95,1465.03,1151.49z"/>
	<path class="st293" d="M1458.71,1152.48c0,0-5.53-19.91-18.02-26.1c0,0,8.85,5.45,15.8,27.89
		C1456.49,1154.27,1458.39,1155.21,1458.71,1152.48z"/>
</g>
<g>
	
		<ellipse transform="matrix(0.7769 -0.6296 0.6296 0.7769 -398.1346 1144.0864)" class="st293" cx="1415.49" cy="1133.9" rx="14.38" ry="34.38"/>
	
		<ellipse transform="matrix(0.7769 -0.6296 0.6296 0.7769 -396.508 1144.3829)" class="st23" cx="1416.72" cy="1131.75" rx="12.9" ry="33.49"/>
	<path class="st293" d="M1437.81,1157.77c0,0-7.89-28.4-25.7-37.23c0,0,12.63,7.78,22.54,39.79
		C1434.65,1160.33,1437.36,1161.67,1437.81,1157.77z"/>
	<path class="st293" d="M1430.7,1158.88c0,0-6.21-22.36-20.24-29.32c0,0,9.94,6.13,17.75,31.33
		C1428.22,1160.9,1430.35,1161.95,1430.7,1158.88z"/>
</g>
<g>
	
		<ellipse transform="matrix(0.7769 -0.6296 0.6296 0.7769 -408.9457 1128.1464)" class="st293" cx="1387.59" cy="1141.19" rx="15.38" ry="36.77"/>
	
		<ellipse transform="matrix(0.7769 -0.6296 0.6296 0.7769 -407.2063 1128.4635)" class="st23" cx="1388.91" cy="1138.89" rx="13.79" ry="35.81"/>
	<path class="st293" d="M1411.45,1166.71c0,0-8.43-30.37-27.48-39.81c0,0,13.5,8.32,24.11,42.55
		C1408.08,1169.45,1410.97,1170.88,1411.45,1166.71z"/>
	<path class="st293" d="M1403.86,1167.9c0,0-6.64-23.92-21.64-31.35c0,0,10.63,6.55,18.98,33.5
		C1401.2,1170.06,1403.48,1171.18,1403.86,1167.9z"/>
</g>
<g>
	
		<ellipse transform="matrix(0.7769 -0.6296 0.6296 0.7769 -422.0959 1112.2041)" class="st293" cx="1358.52" cy="1151.77" rx="15.47" ry="36.99"/>
	
		<ellipse transform="matrix(0.7769 -0.6296 0.6296 0.7769 -420.346 1112.5231)" class="st23" cx="1359.84" cy="1149.46" rx="13.87" ry="36.03"/>
	<path class="st293" d="M1382.52,1177.45c0,0-8.49-30.55-27.65-40.05c0,0,13.59,8.37,24.25,42.8
		C1379.13,1180.21,1382.04,1181.64,1382.52,1177.45z"/>
	<path class="st293" d="M1374.88,1178.65c0,0-6.68-24.06-21.77-31.54c0,0,10.7,6.59,19.1,33.71
		C1372.21,1180.82,1374.5,1181.95,1374.88,1178.65z"/>
</g>
<g>
	<circle class="st294" cx="606.29" cy="723.48" r="47.21"/>
	<path class="st246" d="M606.29,635.44c-10.15,0-18.37,6.59-18.37,14.72c0,8.13,8.22,14.72,18.37,14.72
		c10.15,0,18.37-6.59,18.37-14.72C624.66,642.04,616.43,635.44,606.29,635.44z M606.29,658.77c-5.93,0-10.73-3.85-10.73-8.6
		c0-4.75,4.8-8.6,10.73-8.6c5.93,0,10.73,3.85,10.73,8.6C617.02,654.92,612.22,658.77,606.29,658.77z"/>
	<path class="st249" d="M555.36,689.87l6.03,5.25c0,0,42.72,17.3,92.11,0l3.72-5.25H555.36z"/>
	<path class="st246" d="M598.9,660.71c0,0-25.61,27.07-43.54,29.16c0,0,52.1,19.44,101.86,0c0,0-31.88-15.55-43.54-29.16H598.9z"/>
	<path class="st249" d="M644.49,765.78l-42.86,4.91c0,0-23.52-8.31-33.53-4.91C568.09,765.78,594.04,748.97,644.49,765.78"/>
	<path class="st246" d="M568.09,765.78c0,0,31.49-9.04,76.39,0c0,0-38.2,13.12-38.2,27.99
		C606.29,793.77,593.46,766.65,568.09,765.78z"/>
</g>
<rect x="604.97" y="435.45" class="st246" width="6.16" height="201.48"/>
<polygon class="st249" points="522.01,1359.38 517.67,1301.64 513.45,1245.62 403.36,1202.2 418.65,1316.46 "/>
<g>
	
		<ellipse transform="matrix(0.8227 -0.5685 0.5685 0.8227 -407.1719 1036.3639)" class="st293" cx="1457.61" cy="1170.84" rx="15.47" ry="36.99"/>
	
		<ellipse transform="matrix(0.8227 -0.5685 0.5685 0.8227 -405.6543 1036.8246)" class="st23" cx="1459.11" cy="1168.64" rx="13.87" ry="36.03"/>
	<path class="st293" d="M1479.59,1198.28c0,0-6.13-31.11-24.52-42.04c0,0,12.91,9.38,20.92,44.53
		C1476,1200.76,1478.79,1202.42,1479.59,1198.28z"/>
	<path class="st293" d="M1471.88,1198.89c0,0-4.83-24.5-19.3-33.11c0,0,10.16,7.39,16.47,35.06
		C1469.05,1200.85,1471.25,1202.15,1471.88,1198.89z"/>
</g>
<g>
	
		<ellipse transform="matrix(0.8227 -0.5685 0.5685 0.8227 -414.7977 1018.2556)" class="st293" cx="1424.77" cy="1174.01" rx="15.47" ry="36.99"/>
	
		<ellipse transform="matrix(0.8227 -0.5685 0.5685 0.8227 -413.2801 1018.7162)" class="st23" cx="1426.27" cy="1171.81" rx="13.87" ry="36.03"/>
	<path class="st293" d="M1446.75,1201.45c0,0-6.13-31.11-24.52-42.04c0,0,12.91,9.38,20.92,44.53
		C1443.16,1203.93,1445.95,1205.59,1446.75,1201.45z"/>
	<path class="st293" d="M1439.04,1202.06c0,0-4.83-24.5-19.3-33.11c0,0,10.16,7.39,16.47,35.06
		C1436.21,1204.01,1438.41,1205.32,1439.04,1202.06z"/>
</g>
<g>
	
		<ellipse transform="matrix(0.8227 -0.5685 0.5685 0.8227 -424.4564 1001.3534)" class="st293" cx="1392.85" cy="1181.04" rx="15.47" ry="36.99"/>
	
		<ellipse transform="matrix(0.8227 -0.5685 0.5685 0.8227 -422.9387 1001.8141)" class="st23" cx="1394.35" cy="1178.84" rx="13.87" ry="36.03"/>
	<path class="st293" d="M1414.83,1208.48c0,0-6.13-31.11-24.52-42.04c0,0,12.91,9.38,20.92,44.53
		C1411.24,1210.96,1414.03,1212.62,1414.83,1208.48z"/>
	<path class="st293" d="M1407.12,1209.09c0,0-4.83-24.5-19.3-33.11c0,0,10.16,7.39,16.47,35.06
		C1404.29,1211.05,1406.49,1212.35,1407.12,1209.09z"/>
</g>
<polygon class="st246" points="513.45,1245.62 522.01,1359.38 646.16,1325.13 651.06,1210.5 "/>
<polygon class="st284" points="534.72,1257.78 540.64,1336.36 626.41,1312.7 629.79,1233.52 "/>
<polygon class="st286" points="497.96,1327.51 495.37,1293.19 492.87,1259.88 427.42,1234.07 436.51,1302 "/>
<polygon class="st283" points="442.52,1205.87 539.13,1192.07 611.9,1211.55 517.8,1235.56 "/>
<path class="st284" d="M407.71,1134.02c0,0,23.77,71.13,70.88,83.47c54.32,14.22,126.66,1.85,148.68-21.24s25.69-65.9,25.69-65.9
	S548.98,1152.98,407.71,1134.02z"/>
<path class="st292" d="M619.16,1108.33c0,0-69.44-32.32-166.22-7.6c-7.41,1.89-14.47,4.8-20.68,8.89
	c-7.88,5.19-15.53,12.79-10.04,20.75c9.87,14.31,79.91,49.58,167.69,25.35C677.69,1131.48,619.16,1108.33,619.16,1108.33z"/>
<polygon class="st61" points="1048.11,1128.66 1157.04,1239.29 1285.05,1218.09 1370.4,1203.96 1260.08,1101.63 "/>
<polygon class="st283" points="1157.04,1239.29 1285.05,1218.09 1157.04,1239.29 1048.11,1128.66 1260.08,1101.63 1370.4,1203.96 
	1370.4,1203.96 1397.3,1199.82 1268.28,1084.65 1007.09,1117.96 1143.75,1256.75 1130.45,1243.25 "/>
<polygon class="st283" points="1370.4,1203.96 1370.4,1203.96 1285.05,1218.09 "/>
<g>
	<circle class="st295" cx="1248.12" cy="1116.93" r="28.2"/>
	
		<ellipse transform="matrix(0.9991 -0.0413 0.0413 0.9991 -44.7767 52.4378)" class="st296" cx="1248.04" cy="1111.03" rx="28.2" ry="26.08"/>
	<path class="st23" d="M1245.46,1097.12c0,0-5.8-14.77,6.36-18.64c0,0-6.67,5.58-0.38,17.54c0,0,11.97-6.17,17.76,1.78
		c0,0-12.73-2.5-13.98,3.07c0,0,12.96,2.84,8.18,15.57c0,0-3.3-11.48-11.48-12.27c0,0-0.91,12.73-5.91,13.75
		c0,0,3.07-13.64-0.34-16.14c0,0-11.02-4.77-16.59,1.02C1229.1,1102.8,1236.71,1091.78,1245.46,1097.12z"/>
	<circle class="st295" cx="1194.54" cy="1124.27" r="28.2"/>
	
		<ellipse transform="matrix(0.9991 -0.0413 0.0413 0.9991 -45.125 50.2335)" class="st296" cx="1194.46" cy="1118.37" rx="28.2" ry="26.08"/>
	<path class="st23" d="M1193.17,1103.88c0,0-0.67-12.04,9.02-11.94c0,0-6.14,2.44-4.44,12.57c0,0,10.11-1.61,12.4,5.51
		c0,0-8.59-4.83-10.82-1.11c0,0,8.68,5.13,2.21,13.18c0,0,0.35-9.07-5.37-11.59c0,0-3.68,8.97-7.53,8.52c0,0,5.46-9.11,3.59-11.73
		c0,0-6.82-6.07-12.22-3.21C1180.01,1104.09,1188.12,1097.94,1193.17,1103.88z"/>
	<circle class="st295" cx="1139.49" cy="1131.82" r="28.2"/>
	
		<ellipse transform="matrix(0.9991 -0.0413 0.0413 0.9991 -45.4834 47.9687)" class="st296" cx="1139.41" cy="1125.92" rx="28.2" ry="26.08"/>
	<path class="st23" d="M1138.84,1106.34c0,0,9.59-11.33,18.17-3.03c0,0-7.56-3.02-14.61,7.48c0,0,10.4,7.11,6.42,15.42
		c0,0-3.59-11.59-8.73-10.15c0,0,3.41,11.93-9.19,13.65c0,0,7.99-7.81,5.01-14.9c0,0-10.88,4.9-13.95,1.24
		c0,0,12.59-3.53,13.14-7.45c0,0-0.96-11.2-8.21-13.21C1126.9,1095.39,1139.35,1096.76,1138.84,1106.34z"/>
	<circle class="st295" cx="1086.81" cy="1140.83" r="28.2"/>
	
		<ellipse transform="matrix(0.9991 -0.0413 0.0413 0.9991 -45.8999 45.8026)" class="st296" cx="1086.72" cy="1134.93" rx="28.2" ry="26.08"/>
	<path class="st23" d="M1084.92,1121.24c0,0-4.59-11.69,5.04-14.75c0,0-5.28,4.42-0.3,13.88c0,0,9.47-4.89,14.06,1.41
		c0,0-10.08-1.98-11.06,2.43c0,0,10.26,2.25,6.48,12.32c0,0-2.61-9.09-9.09-9.72c0,0-0.72,10.08-4.68,10.88
		c0,0,2.43-10.79-0.27-12.77c0,0-8.73-3.78-13.13,0.81C1071.97,1125.74,1077.99,1117.01,1084.92,1121.24z"/>
</g>
<polygon class="st283" points="1397.3,1199.82 1397.3,1199.82 1411.41,1212.43 "/>
<g>
	<circle class="st295" cx="1297.83" cy="1153.47" r="29.34"/>
	
		<ellipse transform="matrix(0.9991 -0.0413 0.0413 0.9991 -46.2322 54.5195)" class="st296" cx="1297.74" cy="1147.34" rx="29.34" ry="27.13"/>
	<path class="st23" d="M1295.06,1132.86c0,0-6.03-15.37,6.62-19.39c0,0-6.94,5.81-0.39,18.25c0,0,12.45-6.42,18.48,1.85
		c0,0-13.24-2.6-14.54,3.19c0,0,13.48,2.96,8.51,16.2c0,0-3.43-11.94-11.94-12.77c0,0-0.95,13.24-6.15,14.31
		c0,0,3.19-14.19-0.35-16.79c0,0-11.47-4.97-17.26,1.06C1278.04,1138.77,1285.96,1127.3,1295.06,1132.86z"/>
	<circle class="st295" cx="1242.08" cy="1161.11" r="29.34"/>
	
		<ellipse transform="matrix(0.9991 -0.0413 0.0413 0.9991 -46.5946 52.2261)" class="st296" cx="1242" cy="1154.97" rx="29.34" ry="27.13"/>
	<path class="st23" d="M1240.66,1139.9c0,0-0.7-12.53,9.39-12.42c0,0-6.39,2.54-4.62,13.08c0,0,10.51-1.68,12.9,5.73
		c0,0-8.94-5.03-11.26-1.15c0,0,9.03,5.34,2.3,13.72c0,0,0.36-9.44-5.59-12.06c0,0-3.83,9.33-7.84,8.87c0,0,5.68-9.48,3.73-12.2
		c0,0-7.1-6.31-12.71-3.33C1226.96,1140.12,1235.41,1133.72,1240.66,1139.9z"/>
	<circle class="st295" cx="1184.81" cy="1168.96" r="29.34"/>
	
		<ellipse transform="matrix(0.9991 -0.0413 0.0413 0.9991 -46.9675 49.8697)" class="st296" cx="1184.72" cy="1162.83" rx="29.34" ry="27.13"/>
	<path class="st23" d="M1184.13,1142.45c0,0,9.98-11.79,18.91-3.16c0,0-7.87-3.14-15.2,7.78c0,0,10.82,7.4,6.68,16.04
		c0,0-3.74-12.06-9.09-10.56c0,0,3.55,12.41-9.56,14.2c0,0,8.31-8.13,5.21-15.5c0,0-11.32,5.1-14.51,1.29c0,0,13.1-3.67,13.67-7.75
		c0,0-1-11.65-8.54-13.74C1171.7,1131.06,1184.67,1132.49,1184.13,1142.45z"/>
	<circle class="st295" cx="1129.99" cy="1178.33" r="29.34"/>
	
		<ellipse transform="matrix(0.9991 -0.0413 0.0413 0.9991 -47.4009 47.6161)" class="st296" cx="1129.91" cy="1172.2" rx="29.34" ry="27.13"/>
	<path class="st23" d="M1128.03,1157.96c0,0-4.77-12.17,5.24-15.35c0,0-5.49,4.6-0.31,14.44c0,0,9.86-5.08,14.63,1.47
		c0,0-10.48-2.06-11.51,2.53c0,0,10.67,2.34,6.74,12.82c0,0-2.71-9.45-9.45-10.11c0,0-0.75,10.48-4.87,11.32
		c0,0,2.53-11.23-0.28-13.29c0,0-9.08-3.93-13.66,0.84C1114.55,1162.64,1120.83,1153.56,1128.03,1157.96z"/>
</g>
<g>
	<circle class="st295" cx="1343.57" cy="1194.21" r="30.78"/>
	
		<ellipse transform="matrix(0.9991 -0.0413 0.0413 0.9991 -47.8617 56.4412)" class="st296" cx="1343.48" cy="1187.78" rx="30.78" ry="28.46"/>
	<path class="st23" d="M1340.68,1172.59c0,0-6.33-16.12,6.95-20.34c0,0-7.28,6.09-0.41,19.14c0,0,13.06-6.74,19.39,1.95
		c0,0-13.89-2.73-15.26,3.35c0,0,14.14,3.1,8.93,16.99c0,0-3.6-12.53-12.53-13.4c0,0-0.99,13.89-6.45,15.01
		c0,0,3.35-14.88-0.37-17.61c0,0-12.03-5.21-18.11,1.12C1322.81,1178.79,1331.12,1166.76,1340.68,1172.59z"/>
	<circle class="st295" cx="1285.1" cy="1202.22" r="30.78"/>
	
		<ellipse transform="matrix(0.9991 -0.0413 0.0413 0.9991 -48.2419 54.0354)" class="st296" cx="1285.01" cy="1195.79" rx="30.78" ry="28.46"/>
	<path class="st23" d="M1283.6,1179.97c0,0-0.73-13.14,9.85-13.03c0,0-6.7,2.67-4.85,13.72c0,0,11.03-1.76,13.53,6.01
		c0,0-9.38-5.27-11.81-1.21c0,0,9.47,5.6,2.41,14.39c0,0,0.38-9.9-5.86-12.65c0,0-4.02,9.79-8.22,9.3c0,0,5.95-9.95,3.92-12.8
		c0,0-7.45-6.62-13.34-3.5C1269.23,1180.2,1278.09,1173.49,1283.6,1179.97z"/>
	<circle class="st295" cx="1225.02" cy="1210.46" r="30.78"/>
	
		<ellipse transform="matrix(0.9991 -0.0413 0.0413 0.9991 -48.633 51.5635)" class="st296" cx="1224.92" cy="1204.03" rx="30.78" ry="28.46"/>
	<path class="st23" d="M1224.31,1182.65c0,0,10.47-12.37,19.83-3.31c0,0-8.25-3.29-15.94,8.16c0,0,11.35,7.76,7.01,16.83
		c0,0-3.92-12.65-9.53-11.08c0,0,3.72,13.02-10.03,14.9c0,0,8.72-8.52,5.47-16.26c0,0-11.88,5.35-15.22,1.35
		c0,0,13.74-3.85,14.34-8.13c0,0-1.05-12.22-8.96-14.42C1211.27,1170.7,1224.87,1172.2,1224.31,1182.65z"/>
	<circle class="st295" cx="1167.51" cy="1220.29" r="30.78"/>
	
		<ellipse transform="matrix(0.9991 -0.0413 0.0413 0.9991 -49.0876 49.1994)" class="st296" cx="1167.42" cy="1213.86" rx="30.78" ry="28.46"/>
	<path class="st23" d="M1165.45,1198.92c0,0-5.01-12.76,5.5-16.1c0,0-5.76,4.82-0.32,15.15c0,0,10.34-5.33,15.35,1.54
		c0,0-11-2.16-12.08,2.65c0,0,11.19,2.45,7.07,13.45c0,0-2.85-9.92-9.92-10.6c0,0-0.79,11-5.11,11.88c0,0,2.65-11.78-0.29-13.94
		c0,0-9.52-4.12-14.33,0.88C1151.32,1203.83,1157.9,1194.3,1165.45,1198.92z"/>
</g>
<polygon class="st283" points="1397.3,1199.82 1370.4,1203.96 1370.4,1203.96 1370.4,1203.96 1285.05,1218.09 1157.04,1239.29 
	1130.45,1243.25 1143.75,1256.75 1411.41,1212.43 "/>
<g>
	<path class="st297" d="M1013.45,1194.67c0,0,2.93,11.36,6.08,13.43c3.15,2.08,4.77,7.16,4.77,7.16l-4.42-13.97l-2.42-8.55
		L1013.45,1194.67z"/>
	<g>
		<path class="st23" d="M996.08,1162.82c0,0-6.21-28.02-12.36-24.17S996.08,1162.82,996.08,1162.82z"/>
		<path class="st23" d="M993.64,1164.16c0,0-10.08-18.84-13.43-18.37C976.87,1146.25,993.64,1164.16,993.64,1164.16z"/>
		<path class="st23" d="M992.72,1163.97c0,0-16.65-19.22-16.14-12.49C977.08,1158.21,992.72,1163.97,992.72,1163.97z"/>
		<path class="st23" d="M998.69,1161.13c0,0-8.93-19.41-6.54-21.8C994.55,1136.94,998.69,1161.13,998.69,1161.13z"/>
		<path class="st23" d="M999.1,1160.28c0,0-5.27-24.87-0.21-20.41C1003.95,1144.33,999.1,1160.28,999.1,1160.28z"/>
	</g>
	<path class="st298" d="M1004.41,1156.02c0,0-30.78,4.78-20.91,30.28c9.36,24.18,46.78,13.75,41.73-10.75
		C1020.78,1153.91,1004.41,1156.02,1004.41,1156.02z"/>
	<path class="st299" d="M1006.88,1156.6c0,0-27.95,4.34-18.99,27.49c8.49,21.96,42.47,12.49,37.89-9.76
		C1021.74,1154.69,1006.88,1156.6,1006.88,1156.6z"/>
</g>
<g>
	<path class="st297" d="M972.26,1203.56c0,0,2.93,11.36,6.08,13.43c3.14,2.08,4.77,7.16,4.77,7.16l-4.42-13.97l-2.42-8.55
		L972.26,1203.56z"/>
	<g>
		<path class="st23" d="M954.89,1171.7c0,0-6.21-28.02-12.36-24.17C936.39,1151.38,954.89,1171.7,954.89,1171.7z"/>
		<path class="st23" d="M952.45,1173.05c0,0-10.08-18.84-13.43-18.37C935.67,1155.14,952.45,1173.05,952.45,1173.05z"/>
		<path class="st23" d="M951.52,1172.86c0,0-16.65-19.22-16.14-12.49C935.88,1167.1,951.52,1172.86,951.52,1172.86z"/>
		<path class="st23" d="M957.49,1170.02c0,0-8.93-19.41-6.54-21.8C953.35,1145.83,957.49,1170.02,957.49,1170.02z"/>
		<path class="st23" d="M957.9,1169.17c0,0-5.27-24.87-0.21-20.41S957.9,1169.17,957.9,1169.17z"/>
	</g>
	<path class="st298" d="M963.21,1164.9c0,0-30.78,4.78-20.91,30.28c9.36,24.18,46.78,13.75,41.73-10.75
		C979.58,1162.8,963.21,1164.9,963.21,1164.9z"/>
	<path class="st299" d="M965.68,1165.49c0,0-27.95,4.34-18.99,27.49c8.49,21.96,42.47,12.49,37.89-9.76
		C980.54,1163.57,965.68,1165.49,965.68,1165.49z"/>
</g>
<g>
	<path class="st297" d="M929.79,1208.97c0,0,2.93,11.36,6.08,13.43c3.15,2.08,4.77,7.16,4.77,7.16l-4.42-13.97l-2.42-8.55
		L929.79,1208.97z"/>
	<g>
		<path class="st23" d="M912.42,1177.12c0,0-6.21-28.02-12.36-24.17C893.92,1156.79,912.42,1177.12,912.42,1177.12z"/>
		<path class="st23" d="M909.98,1178.46c0,0-10.08-18.84-13.43-18.37S909.98,1178.46,909.98,1178.46z"/>
		<path class="st23" d="M909.05,1178.27c0,0-16.65-19.22-16.14-12.49C893.41,1172.51,909.05,1178.27,909.05,1178.27z"/>
		<path class="st23" d="M915.03,1175.43c0,0-8.93-19.41-6.54-21.8C910.88,1151.24,915.03,1175.43,915.03,1175.43z"/>
		<path class="st23" d="M915.44,1174.58c0,0-5.27-24.87-0.21-20.41S915.44,1174.58,915.44,1174.58z"/>
	</g>
	<path class="st298" d="M920.75,1170.32c0,0-30.78,4.78-20.91,30.28c9.36,24.18,46.78,13.75,41.73-10.75
		C937.11,1168.21,920.75,1170.32,920.75,1170.32z"/>
	<path class="st299" d="M923.22,1170.9c0,0-27.95,4.34-18.99,27.49c8.49,21.96,42.47,12.49,37.89-9.76
		C938.08,1168.99,923.22,1170.9,923.22,1170.9z"/>
</g>
<g>
	<path class="st297" d="M886.48,1222.54c0,0,2.93,11.36,6.08,13.43c3.14,2.08,4.77,7.16,4.77,7.16l-4.42-13.97l-2.42-8.55
		L886.48,1222.54z"/>
	<g>
		<path class="st23" d="M869.11,1190.69c0,0-6.21-28.02-12.36-24.17C850.61,1170.37,869.11,1190.69,869.11,1190.69z"/>
		<path class="st23" d="M866.66,1192.03c0,0-10.08-18.84-13.43-18.37C849.89,1174.12,866.66,1192.03,866.66,1192.03z"/>
		<path class="st23" d="M865.74,1191.84c0,0-16.65-19.22-16.14-12.49C850.1,1186.08,865.74,1191.84,865.74,1191.84z"/>
		<path class="st23" d="M871.71,1189c0,0-8.93-19.41-6.54-21.8C867.57,1164.82,871.71,1189,871.71,1189z"/>
		<path class="st23" d="M872.12,1188.15c0,0-5.27-24.87-0.21-20.41C876.97,1172.21,872.12,1188.15,872.12,1188.15z"/>
	</g>
	<path class="st298" d="M877.43,1183.89c0,0-30.78,4.78-20.91,30.28c9.36,24.18,46.78,13.75,41.73-10.75
		C893.8,1181.78,877.43,1183.89,877.43,1183.89z"/>
	<path class="st299" d="M879.9,1184.47c0,0-27.95,4.34-18.99,27.49c8.49,21.96,42.47,12.49,37.89-9.76
		C894.76,1182.56,879.9,1184.47,879.9,1184.47z"/>
</g>
<polygon class="st284" points="1143.75,1256.6 1411.41,1212.28 1400.82,1264.7 1143.75,1313.75 "/>
<path class="st283" d="M1048.11,1128.66l-14.75-14.05l-26.27,3.35l136.65,138.65l21.56-3.42
	C1165.3,1253.18,1147.93,1223.2,1048.11,1128.66z"/>
<path class="st283" d="M631.34,1106.09c0,0-78.85-40.97-188.76-9.64c-8.41,2.4-16.43,6.09-23.48,11.27
	c-8.95,6.58-17.63,16.22-11.4,26.3c11.21,18.14,90.75,62.85,190.42,32.14C697.8,1135.45,631.34,1106.09,631.34,1106.09z
	 M589.91,1155.71c-87.78,24.23-157.81-11.04-167.69-25.35c-5.49-7.95,2.16-15.56,10.04-20.75c6.21-4.09,13.27-7,20.68-8.89
	c96.78-24.72,166.22,7.6,166.22,7.6S677.69,1131.48,589.91,1155.71z"/>
<g>
	<path class="st76" d="M418.66,1078.2c0,0,20.36,15.16,22.54,17.54c2.19,2.38,20.74,27.73,20.74,27.73s-8.57-2.59-10.4-5.17
		C449.72,1115.71,418.66,1078.2,418.66,1078.2z"/>
	<path class="st76" d="M463.99,1128.46c0,0-11.22-15.38-16.52-18.13c-12.67-6.58-35.28-9.29-35.28-9.29s31.05,12.22,33.28,14.19
		s16.34,15.19,16.34,15.19L463.99,1128.46z"/>
	<path class="st76" d="M457.94,1125.65c-5.16-9.35-13.68-28.11-16.71-34.84c-0.73-1.62-0.96-3.49-0.67-5.42l2.62-17.32
		c1.92,1.5,2.51,20.37,2.51,20.37s19.05,40.66,18.93,41.09c-0.44,1.5-1.77,1.51-1.77,1.51S459.94,1129.27,457.94,1125.65z"/>
	<path class="st76" d="M459.91,1124.25c-2.36-8.8-3.59-17.13-4.24-18.31c-2.08-3.78,5.83-25.67,5.83-25.67s-1.26,18.75-1.67,21.74
		c-0.41,2.98,4.06,14.64,4.06,14.64c-1.28,1.43-1.93,4.24-1.36,9.01L459.91,1124.25z"/>
	<path class="st287" d="M485.53,1167.71c0,0-44.27-31.73-27.01-48.2c17.26-16.47,43.68,33.76,43.68,33.76s-11.02,11.48-11.26,15.58
		S485.53,1167.71,485.53,1167.71z"/>
	<path class="st288" d="M487.87,1164.84c-1.16-0.99-2.31-1.97-3.52-2.91c-8.27-6.44-34-28.18-21.22-40.38
		c15.12-14.42,39.11,31.58,39.11,31.58s-6.64,8.12-9.74,12.03C491.05,1167,489.07,1165.86,487.87,1164.84z"/>
</g>
<g>
	<path class="st76" d="M509.42,1087.4c0,0,11.89,16.27,12.99,18.59c1.1,2.32,9.23,25.89,9.23,25.89s-5.9-3.98-6.68-6.36
		S509.42,1087.4,509.42,1087.4z"/>
	<path class="st76" d="M532.03,1136.15c0,0-4.91-14.29-8.28-17.63c-8.07-7.96-24.59-15.31-24.59-15.31s20.69,16.54,21.92,18.56
		c1.22,2.02,8.83,15.35,8.83,15.35L532.03,1136.15z"/>
	<path class="st76" d="M528.1,1132.6c-1.73-8.3-3.79-24.53-4.51-30.35c-0.17-1.4,0.09-2.87,0.77-4.27l6.04-12.53
		c1.1,1.59-2.87,16.04-2.87,16.04s4.92,35.31,4.73,35.61c-0.68,1.03-1.7,0.73-1.7,0.73S528.77,1135.82,528.1,1132.6z"/>
	<path class="st76" d="M529.92,1132c0.28-7.23,1.29-13.83,1.08-14.88c-0.69-3.35,10.44-18.1,10.44-18.1s-5.35,13.93-6.36,16.1
		c-1.01,2.17-0.35,12.06-0.35,12.06c-1.3,0.79-2.46,2.76-3.15,6.51L529.92,1132z"/>
	<path class="st287" d="M539.17,1170.98c0,0-26.15-34.44-9.19-42.89c16.95-8.44,25.22,35.84,25.22,35.84s-11.05,6.12-12.19,9.18
		C541.86,1176.16,539.17,1170.98,539.17,1170.98z"/>
	<path class="st288" d="M541.62,1169.34c-0.65-1.02-1.29-2.04-1.99-3.03c-4.76-6.82-19.19-29.35-6.63-35.6
		c14.85-7.4,22.26,33.12,22.26,33.12s-6.94,4.6-10.21,6.84C543.52,1171.73,542.29,1170.4,541.62,1169.34z"/>
</g>
<g>
	<path class="st76" d="M538.52,1059.83c0,0-3.02,18.68-4.3,21.94c-1.28,3.25-12.03,30.89-12.03,30.89s-1.53-9.57,0.12-12.57
		C523.96,1097.09,538.52,1059.83,538.52,1059.83z"/>
	<path class="st76" d="M518.3,1117.01c0,0,7.84-18.22,8.02-24.69c0.42-15.44-5.99-20.08-5.99-20.08s2.09,17.74,1.22,20.84
		c-0.87,3.1-6.19,22.71-6.19,22.71L518.3,1117.01z"/>
	<path class="st76" d="M518.18,1109.79c7.41-8.34,14.52-16.64,19.64-22.77c1.23-1.47,8.57-13.39,10.59-14.02l11.12-13.16
		c-0.56,2.58-9.34,20.69-9.34,20.69s-32.16,37.52-32.64,37.6c-1.67,0.28-2.31-1.01-2.31-1.01S515.2,1113.14,518.18,1109.79z"/>
	<path class="st76" d="M518.72,1112.82c7.45-6.45,15.34-9.38,16.18-10.57c2.69-3.81,15.53-11.84,15.53-11.84
		s-12.83,15.84-15.93,16.85c-3.1,1.01-6.51,5.85-6.51,5.85c-1.99-0.57-5.04,0.13-9.41,2.93L518.72,1112.82z"/>
	<path class="st287" d="M490.27,1156.52c0,0,9.96-58.08,34.15-49.06s-12.22,58.46-12.22,58.46s-16.38-5.3-20.48-3.6
		S490.27,1156.52,490.27,1156.52z"/>
	<path class="st288" d="M494.17,1157.44c0.41-1.6,0.83-3.19,1.17-4.8c2.36-11.09,11.37-46.41,29.27-39.73
		c21.18,7.9-12.26,52.99-12.26,52.99s-11.04-2.63-16.31-3.8C493.57,1161.55,493.75,1159.09,494.17,1157.44z"/>
</g>
<g>
	<path class="st76" d="M631.99,1068.59c0,0-3.87,17.03-5.68,20.02c-1.8,3-19.21,29.35-19.21,29.35s0.08-9.69,2.21-12.37
		C611.43,1102.92,631.99,1068.59,631.99,1068.59z"/>
	<path class="st76" d="M602.54,1121.61c0,0,12.55-16.32,13.8-22.67c2.98-15.15-4.36-21.13-4.36-21.13s0.03,17.63-1.34,20.54
		c-1.37,2.91-10.8,21.58-10.8,21.58L602.54,1121.61z"/>
	<path class="st76" d="M603.62,1114.47c8.14-8.21,25.02-22.76,31.09-27.95c1.46-1.25,3.33-2.05,5.43-2.34l12.57-12.1
		c-0.98,2.45-12.65,18.85-12.65,18.85s-37.95,31.65-38.43,31.65c-1.69,0-2.1-1.38-2.1-1.38S600.47,1117.65,603.62,1114.47z"/>
	<path class="st76" d="M605.67,1116.09c8.42-5.12,16.69-8.93,17.72-9.97c3.29-3.31,17.27-6.86,17.27-6.86s-14.52,11.21-17.74,11.69
		c-3.22,0.48-8.15,6.96-8.15,6.96c-1.87-0.89-4.99-0.71-9.77,1.32L605.67,1116.09z"/>
	<path class="st287" d="M568.33,1155.92c0,0,19.48-55.62,41.83-42.7c22.35,12.91-21.76,55.62-21.76,55.62s-15.27-7.95-19.6-6.95
		C564.47,1162.87,568.33,1155.92,568.33,1155.92z"/>
	<path class="st288" d="M572.03,1157.47c0.67-1.51,1.35-3,1.95-4.54c4.17-10.54,18.92-43.87,35.47-34.31
		c19.58,11.31-20.9,50.21-20.9,50.21s-10.45-4.43-15.45-6.45C570.75,1161.43,571.33,1159.03,572.03,1157.47z"/>
</g>
<g>
	<path class="st76" d="M579.17,1075.9c0,0-9.26,20.97-10.12,23.65s-7.42,27.99-7.42,27.99s5.82-5.2,6.31-7.91
		C568.44,1116.93,579.17,1075.9,579.17,1075.9z"/>
	<path class="st76" d="M561.85,1132.24c0,0,3.21-16.26,6.38-20.39c7.58-9.85,24.44-20.3,24.44-20.3s-20.03,21.06-21.06,23.43
		c-1.03,2.37-7.32,17.99-7.32,17.99L561.85,1132.24z"/>
	<path class="st76" d="M565.6,1127.8c0.64-9.28,0.28-40.08,0.39-33.65c0.23,13.93-0.49-0.91-1.47-4.52l-4.66-8.59
		c-0.96,1.89,1.72,20.72,1.72,20.72s-0.09,31.27,0.17,31.56c0.9,1.02,1.95,0.54,1.95,0.54S565.35,1131.39,565.6,1127.8z"/>
	<path class="st76" d="M563.53,1127.42c-1.37-7.81-4.36-13.77-4.28-14.94c0.25-3.75-2.85-14.39-2.85-14.39s-2.4,9.54-0.97,11.74
		c1.42,2.2,2.18,13.05,2.18,13.05c1.53,0.66,3.08,2.64,4.39,6.61L563.53,1127.42z"/>
	<path class="st287" d="M559.28,1171.15c0,0,23.29-41.32,3.61-47.98c-19.68-6.66-22.08,42.7-22.08,42.7s12.91,5.01,14.61,8.16
		C557.12,1177.18,559.28,1171.15,559.28,1171.15z"/>
	<path class="st288" d="M559.86,1171.84c0.56-1.21,1.1-2.41,1.71-3.59c4.16-8.12,16.48-34.75,1.91-39.67
		c-17.24-5.83-19.27,39.31-19.27,39.31s8.23,3.97,12.11,5.92C558.15,1174.71,559.29,1173.09,559.86,1171.84z"/>
</g>
<path class="st283" d="M629.41,1139.66c-7.25,5.12-19.61,10.56-39.5,16.05c-71.97,19.86-132-0.27-156.74-16.05h-20.63
	c21.28,20.13,95.14,54.36,185.59,26.49c29.88-9.2,44.82-18.29,51.11-26.49H629.41z"/>
<g>
	<path class="st297" d="M1067.76,1252.16l-1.38-4.37l-2.42-8.55l-4.01,1.92c0,0,1.8,6.98,4.1,11H1067.76z"/>
	<g>
		<path class="st23" d="M1042.58,1209.31c0,0-6.21-28.02-12.36-24.17C1024.08,1188.99,1042.58,1209.31,1042.58,1209.31z"/>
		<path class="st23" d="M1040.14,1210.65c0,0-10.08-18.84-13.43-18.37C1023.36,1192.74,1040.14,1210.65,1040.14,1210.65z"/>
		<path class="st23" d="M1039.21,1210.47c0,0-16.65-19.22-16.14-12.49C1023.57,1204.7,1039.21,1210.47,1039.21,1210.47z"/>
		<path class="st23" d="M1045.18,1207.62c0,0-8.93-19.41-6.54-21.8S1045.18,1207.62,1045.18,1207.62z"/>
		<path class="st23" d="M1045.59,1206.77c0,0-5.27-24.87-0.21-20.41S1045.59,1206.77,1045.59,1206.77z"/>
	</g>
	<path class="st298" d="M1050.91,1202.51c0,0-30.78,4.78-20.91,30.28c9.36,24.18,46.78,13.75,41.73-10.75
		C1067.27,1200.41,1050.91,1202.51,1050.91,1202.51z"/>
	<path class="st299" d="M1053.37,1203.09c0,0-27.95,4.34-18.99,27.49c8.49,21.96,42.47,12.49,37.89-9.76
		C1068.23,1201.18,1053.37,1203.09,1053.37,1203.09z"/>
</g>
<g>
	<path class="st297" d="M1017.69,1246.57c0,0,2.93,11.36,6.08,13.43c3.15,2.08,4.77,7.16,4.77,7.16l-4.42-13.97l-2.42-8.55
		L1017.69,1246.57z"/>
	<g>
		<path class="st23" d="M1000.32,1214.72c0,0-6.21-28.02-12.36-24.17C981.82,1194.4,1000.32,1214.72,1000.32,1214.72z"/>
		<path class="st23" d="M997.87,1216.06c0,0-10.08-18.84-13.43-18.37S997.87,1216.06,997.87,1216.06z"/>
		<path class="st23" d="M996.95,1215.88c0,0-16.65-19.22-16.14-12.49C981.31,1210.11,996.95,1215.88,996.95,1215.88z"/>
		<path class="st23" d="M1002.92,1213.04c0,0-8.93-19.41-6.54-21.8C998.78,1188.85,1002.92,1213.04,1002.92,1213.04z"/>
		<path class="st23" d="M1003.33,1212.19c0,0-5.27-24.87-0.21-20.41S1003.33,1212.19,1003.33,1212.19z"/>
	</g>
	<path class="st298" d="M1008.64,1207.92c0,0-30.78,4.78-20.91,30.28c9.36,24.18,46.78,13.75,41.73-10.75
		C1025.01,1205.82,1008.64,1207.92,1008.64,1207.92z"/>
	<path class="st299" d="M1011.11,1208.5c0,0-27.95,4.34-18.99,27.49c8.49,21.96,42.47,12.49,37.89-9.76
		C1025.97,1206.59,1011.11,1208.5,1011.11,1208.5z"/>
</g>
<g>
	<path class="st297" d="M981.16,1263.41l-1.49-4.71l-2.42-8.55l-4.01,1.92c0,0,1.91,7.39,4.3,11.34H981.16z"/>
	<g>
		<path class="st23" d="M955.87,1220.22c0,0-6.21-28.02-12.36-24.17S955.87,1220.22,955.87,1220.22z"/>
		<path class="st23" d="M953.43,1221.56c0,0-10.08-18.84-13.43-18.37C936.66,1203.66,953.43,1221.56,953.43,1221.56z"/>
		<path class="st23" d="M952.51,1221.38c0,0-16.65-19.22-16.14-12.49C936.87,1215.61,952.51,1221.38,952.51,1221.38z"/>
		<path class="st23" d="M958.48,1218.53c0,0-8.93-19.41-6.54-21.8C954.34,1194.35,958.48,1218.53,958.48,1218.53z"/>
		<path class="st23" d="M958.89,1217.69c0,0-5.27-24.87-0.21-20.41C963.74,1201.74,958.89,1217.69,958.89,1217.69z"/>
	</g>
	<path class="st298" d="M964.2,1213.42c0,0-30.78,4.78-20.91,30.28c9.36,24.18,46.78,13.75,41.73-10.75
		C980.57,1211.32,964.2,1213.42,964.2,1213.42z"/>
	<path class="st299" d="M966.67,1214c0,0-27.95,4.34-18.99,27.49c8.49,21.96,42.47,12.49,37.89-9.76
		C981.53,1212.09,966.67,1214,966.67,1214z"/>
</g>
<g>
	<path class="st297" d="M935.19,1272.14l-0.83-1.48l-4.57-7.62l4.14-1.6c0,0,2.44,3.86,4.11,7.66L935.19,1272.14z"/>
	<g>
		<path class="st23" d="M915.79,1229.18c0,0-6.21-28.02-12.36-24.17C897.29,1208.86,915.79,1229.18,915.79,1229.18z"/>
		<path class="st23" d="M913.35,1230.52c0,0-10.08-18.84-13.43-18.37C896.57,1212.62,913.35,1230.52,913.35,1230.52z"/>
		<path class="st23" d="M912.42,1230.34c0,0-16.65-19.22-16.14-12.49C896.78,1224.57,912.42,1230.34,912.42,1230.34z"/>
		<path class="st23" d="M918.4,1227.5c0,0-8.93-19.41-6.54-21.8C914.25,1203.31,918.4,1227.5,918.4,1227.5z"/>
		<path class="st23" d="M918.81,1226.65c0,0-5.27-24.87-0.21-20.41C923.66,1210.7,918.81,1226.65,918.81,1226.65z"/>
	</g>
	<path class="st298" d="M924.12,1222.38c0,0-30.78,4.78-20.91,30.28c9.36,24.18,46.78,13.75,41.73-10.75
		C940.48,1220.28,924.12,1222.38,924.12,1222.38z"/>
	<path class="st299" d="M926.59,1222.96c0,0-27.95,4.34-18.99,27.49c8.49,21.96,42.47,12.49,37.89-9.76
		C941.45,1221.05,926.59,1222.96,926.59,1222.96z"/>
</g>
<polygon class="st283" points="1077.46,1237.63 1085,1244.63 919.74,1271.99 856.6,1208.32 833.44,1208.32 909.45,1285.51 
	1116.77,1251.18 1101.59,1237.63 "/>
<polygon class="st284" points="1558.37,1190.46 1538.64,1172.85 1515.83,1172.85 1528.07,1184.21 1434.57,1199.69 1440.8,1209.93 
	"/>
<path class="st284" d="M1428.71,1203.87v3.4C1428.8,1205.98,1428.78,1204.85,1428.71,1203.87z"/>
<path class="st284" d="M1440.8,1209.93l-6.23-10.24l-5.85,0.97v3.21c0.07,0.98,0.09,2.11,0,3.4v4.66L1440.8,1209.93z"/>
<path class="st11" d="M506.09,1350.66c-17.07-38.16,1.19-53.3-0.31-63.13c0,0-32.03,22.36-24.38,47.96l-14.28-27.32
	c0,0,9.85-32.43-11.03-57.91c0,0,2.1,74.93-11.32,76.91c0,0,2.89-27.03-9.91-34.81c0,0-4.96,39.15-5.27,49.41
	C428.47,1379.64,514.14,1368.73,506.09,1350.66z"/>
<path class="st11" d="M1607.41,1131.85c29.52-29.61,17.82-50.24,22.72-58.91c0,0,21.99,32.28,5.75,53.5l23.05-20.46
	c0,0,2.32-33.81,30.88-50.22c0,0-28.58,69.3-16.74,75.91c0,0,6.9-26.3,21.63-29.01c0,0-9.27,38.36-12.63,48.06
	C1669.67,1186.52,1593.46,1145.88,1607.41,1131.85z"/>
<path class="st11" d="M929.27,1591.52c-29.52-29.61-17.82-50.24-22.72-58.91c0,0-21.99,32.28-5.75,53.5l-23.05-20.46
	c0,0-2.32-33.81-30.88-50.22c0,0,28.58,69.3,16.74,75.91c0,0-6.9-26.3-21.63-29.01c0,0,9.27,38.36,12.63,48.06
	C867.01,1646.18,943.22,1605.55,929.27,1591.52z"/>
<path class="st11" d="M940.32,1404.37c0,0-7.09-64.93-21.88-72.72c0,0,1.31,53.03-8.14,59.15c-9.45,6.13-25.73-45.59-25.73-45.59
	s-13.74,38.07,0.35,53.99C899.02,1415.14,940.32,1404.37,940.32,1404.37z"/>
<path class="st11" d="M849.18,1309.65c0,0-4.7-43.05-14.5-48.21c0,0,0.87,35.16-5.4,39.22c-6.27,4.06-17.06-30.23-17.06-30.23
	s-9.11,25.24,0.23,35.8S849.18,1309.65,849.18,1309.65z"/>
<path class="st11" d="M878.57,1375.66c0,0,19.19-18.76,25.16-31.6c0,0,0.09,26-11.29,36.57
	C881.06,1391.21,878.57,1375.66,878.57,1375.66z"/>
<path class="st11" d="M804.05,1601.91c0,0,6.37-36.08,2.79-55.06c0,0,20.78,28.77,16.56,49.55
	C819.18,1617.18,804.05,1601.91,804.05,1601.91z"/>
<path class="st11" d="M1532.53,1303.31c0,0,5.12-26.35,2.74-40.3c0,0,14.86,21.34,11.5,36.51
	C1543.42,1314.69,1532.53,1303.31,1532.53,1303.31z"/>
<path class="st11" d="M1527.61,1303.61c0,0-2.31-19.76-7.14-29.07c0,0,15.29,11.72,16.34,23.19
	C1537.86,1309.19,1527.61,1303.61,1527.61,1303.61z"/>
<path class="st11" d="M1560.21,1128.27c0,0,34.77-61.03,23.61-77.56c0,0,24.56,29.79-2.34,77.56
	C1554.59,1176.04,1560.21,1128.27,1560.21,1128.27z"/>
<path class="st11" d="M1551.2,1115.98c0,0,16.69-49.72,6.13-60.22c0,0,22.28,18.29,9.45,57.15
	C1553.96,1151.78,1551.2,1115.98,1551.2,1115.98z"/>
<path class="st198" d="M828.94,608.8c0,0,62.89,22.83,223.06,14.87c410.54-20.41,509.09-67.35,509.09-67.35
	s-230.93-55.11-303.53-140.83c0,0-428.68,34.68-673.57-9.77C583.98,405.71,767.71,592.18,828.94,608.8z"/>
<g>
	<defs>
		<path id="SVGID_00000164492075366023058730000007483624479180249270_" d="M828.94,608.8c0,0,62.89,22.83,223.06,14.87
			c410.54-20.41,509.09-67.35,509.09-67.35s-230.93-55.11-303.53-140.83c0,0-428.68,34.68-673.57-9.77
			C583.98,405.71,767.71,592.18,828.94,608.8z"/>
	</defs>
	<clipPath id="SVGID_00000156575772383731335190000001259847296457968036_">
		<use xlink:href="#SVGID_00000164492075366023058730000007483624479180249270_"  style="overflow:visible;"/>
	</clipPath>
	<g style="clip-path:url(#SVGID_00000156575772383731335190000001259847296457968036_);">
		<path class="st289" d="M680.42,489.47c-2.78,0-5.82-0.14-9.55-0.43c-12.74-1.01-25.91-3.35-35.87-13.62
			c-1.68-1.74-3.56-2.62-5.58-2.62c-2.61,0-4.87,1.47-6.88,2.76c-0.56,0.36-1.1,0.71-1.62,1.01c-3.59-3.59-6.97-7.84-10.66-13.4
			c1.87-0.94,3.45-2.22,4.99-3.47c1.19-0.97,2.32-1.88,3.53-2.59c3.16-1.85,6.08-2.75,8.93-2.75c2.33,0,4.7,0.59,7.23,1.8
			c2.31,1.1,4.66,2.31,6.93,3.48c9.32,4.79,18.96,9.75,29.95,9.92c0.35,0.01,1.06,0.01,1.07,0.01c16.09,0,27.25-5.57,34.14-17.04
			c1.63-2.72,4.87-4.47,8.25-4.47c1.94,0,3.78,0.58,5.32,1.67c5.95,4.22,12.4,8.21,19.72,12.19c3.3,1.8,7.43,2.75,11.92,2.75
			c10.86,0,22.47-5.28,28.91-13.15c3.93-4.8,7.35-6.76,11.81-6.76c2.46,0,5.35,0.59,9.09,1.87c6.12,2.08,11.85,5.26,17.39,8.33
			c2.16,1.2,4.4,2.44,6.63,3.6c5.66,2.94,11.33,4.44,16.83,4.44c9.11,0,17.78-4.13,25.08-11.93c6.04-6.45,11.47-9.46,17.1-9.46
			c5.99,0,12.25,3.43,18.66,7.26c1.09,0.65,2.15,1.31,3.21,1.97c5.15,3.21,10.48,6.52,17.48,7.59c1.19,0.18,2.39,0.27,3.55,0.27
			c6.77,0,11.98-3.02,17.01-5.94c1.29-0.75,2.63-1.53,3.96-2.23c1.67-0.88,3.46-2.79,2.48-6.89c-0.27-1.12-0.67-2.26-1.06-3.36
			c-1.57-4.42-1.92-6.24,0.66-7.79c1.92-1.16,4.07-1.74,6.4-1.74c2.99,0,6.34,0.95,9.94,2.81c2.17,1.13,4.46,2.43,7.43,4.22
			l0.17,0.1l0.19,0.07c0.51,0.2,1.03,0.41,1.55,0.66c2.31,1.1,4.66,2.31,6.93,3.48c9.32,4.79,18.96,9.75,29.95,9.92
			c0.36,0.01,0.71,0.01,1.07,0.01c16.08,0,27.25-5.57,34.13-17.04c1.63-2.72,4.87-4.47,8.25-4.47c1.94,0,3.78,0.58,5.32,1.67
			c5.95,4.22,12.4,8.21,19.72,12.19c3.3,1.8,7.43,2.75,11.92,2.75c10.86,0,22.47-5.28,28.91-13.15c3.93-4.8,7.35-6.76,11.81-6.76
			c2.46,0,5.35,0.59,9.09,1.87c6.12,2.08,11.85,5.26,17.39,8.33c2.16,1.2,4.4,2.44,6.64,3.6c5.66,2.94,11.33,4.44,16.83,4.44
			c9.1,0,17.78-4.13,25.08-11.93c6.04-6.45,11.47-9.46,17.1-9.46c5.99,0,12.25,3.43,18.66,7.26c1.09,0.65,2.15,1.31,3.21,1.97
			c5.16,3.21,10.49,6.52,17.49,7.59c1.19,0.18,2.39,0.27,3.55,0.27c6.77,0,11.98-3.02,17.01-5.95c1.29-0.75,2.63-1.53,3.96-2.23
			c1.67-0.88,3.46-2.8,2.48-6.89c-0.27-1.12-0.67-2.26-1.06-3.36c-1.57-4.42-1.92-6.24,0.66-7.79c1.92-1.16,4.07-1.74,6.4-1.74
			c3,0,6.34,0.95,9.93,2.82c4.04,2.1,8.01,4.55,11.86,6.91c4.56,2.81,9.27,5.71,14.24,8.14c1.99,0.97,4.01,1.42,6.36,1.42
			c0.2,0,0.4,0,0.6-0.01c-0.03,5.03-0.44,10.57-2.21,15.89c-0.53-0.07-1.05-0.14-1.58-0.2c-7.59-0.98-14.77-1.9-21.12-5.84
			c-1.93-1.2-3.83-1.8-5.64-1.8c-2.09,0-5.07,0.81-7.38,4.65c-8.49,14.16-22.28,15.31-38.1,15.31l-1.2,0
			c-13.14-0.03-25.39-4.56-35.43-13.09c-1.92-1.63-3.83-2.46-5.67-2.46c-1.91,0-4.58,0.87-6.53,5.02
			c-4.31,9.19-12.34,11.37-21.63,13.09c-4.53,0.84-8.99,1.27-13.25,1.27c-14.85,0-28.06-4.98-40.38-15.22
			c-2.32-1.93-4.46-2.87-6.54-2.87c-3.01,0-5.46,1.91-7.28,5.67c-3.72,7.7-10.03,11.62-19.28,12c-3.12,0.13-6.21,0.58-9.2,1.02
			c-3.53,0.52-6.86,1.01-10.26,1.01c-2.07,0-3.95-0.19-5.75-0.57c-6.65-1.41-13.01-4.24-19.44-8.65c-1.57-1.07-3.41-2.22-5.47-2.22
			c-1.98,0-3.69,1.03-5.08,3.06c-6.83,9.95-16.58,14.39-31.61,14.39c-2.78,0-5.82-0.14-9.55-0.43c-9.3-0.73-20.02-2.26-29.01-8.03
			l-0.27-0.17l-0.3-0.09c-2.86-0.87-5.33-1.96-7.55-3.33c-1.93-1.2-3.83-1.8-5.64-1.8c-2.09,0-5.07,0.81-7.38,4.65
			c-8.5,14.16-22.28,15.32-38.1,15.32l-1.2,0c-13.14-0.03-25.39-4.56-35.43-13.09c-1.92-1.63-3.83-2.46-5.67-2.46
			c-1.91,0-4.58,0.87-6.53,5.02c-4.31,9.19-12.34,11.36-21.63,13.09c-4.53,0.84-8.99,1.27-13.25,1.27
			c-14.85,0-28.06-4.98-40.38-15.22c-2.32-1.93-4.46-2.87-6.54-2.87c-3.01,0-5.46,1.91-7.28,5.67c-3.72,7.7-10.03,11.62-19.28,12
			c-3.12,0.13-6.21,0.58-9.2,1.02c-3.53,0.52-6.86,1.01-10.26,1.01c-2.07,0-3.95-0.19-5.75-0.57c-6.66-1.41-13.01-4.24-19.44-8.65
			c-1.57-1.07-3.41-2.22-5.47-2.22c-1.98,0-3.69,1.03-5.08,3.06C705.19,485.03,695.44,489.47,680.42,489.47z"/>
		<path class="st198" d="M1299.24,415.43c2.62,0,5.61,0.86,8.88,2.56c3.97,2.06,7.73,4.38,11.71,6.83
			c4.61,2.84,9.37,5.77,14.44,8.25c1.81,0.88,3.63,1.39,5.64,1.57c-0.12,3.63-0.5,7.44-1.51,11.16c-7.22-0.93-14.03-1.85-19.87-5.47
			c-2.3-1.42-4.6-2.14-6.85-2.14c-3.79,0-7.11,2.05-9.33,5.76c-7.88,13.14-21.03,14.21-36.14,14.21l-1.2,0
			c-12.59-0.03-24.33-4.37-33.95-12.54c-2.35-1.99-4.75-3.01-7.15-3.01c-2.1,0-6.01,0.82-8.6,6.33c-3.52,7.5-9.49,9.86-19.98,11.82
			c-4.39,0.82-8.71,1.23-12.83,1.23c-14.29,0-27.02-4.81-38.92-14.69c-2.75-2.28-5.36-3.39-8-3.39c-2.72,0-6.55,1.21-9.34,6.96
			c-3.37,6.96-8.87,10.37-17.32,10.71c-3.24,0.13-6.39,0.6-9.44,1.05c-3.44,0.51-6.7,0.99-9.93,0.99c-1.91,0-3.63-0.17-5.28-0.52
			c-6.35-1.35-12.45-4.06-18.62-8.3c-1.98-1.36-4.18-2.62-6.76-2.62c-1.91,0-4.67,0.7-6.97,4.05c-6.45,9.39-15.33,13.4-29.72,13.4
			c-2.72,0-5.7-0.13-9.37-0.42c-9.02-0.71-19.39-2.18-27.96-7.67l-0.53-0.34l-0.61-0.18c-2.67-0.81-4.96-1.82-7.01-3.09
			c-2.3-1.42-4.6-2.14-6.85-2.14c-3.79,0-7.11,2.05-9.33,5.76c-7.88,13.14-21.03,14.21-36.14,14.21l-1.2,0
			c-12.59-0.03-24.33-4.37-33.95-12.54c-2.35-1.99-4.75-3.01-7.15-3.01c-2.1,0-6.01,0.82-8.6,6.33c-3.52,7.5-9.49,9.86-19.98,11.82
			c-4.39,0.82-8.71,1.23-12.83,1.23c-14.29,0-27.02-4.81-38.92-14.69c-2.75-2.28-5.36-3.39-8-3.39c-2.72,0-6.55,1.21-9.34,6.96
			c-3.32,6.87-8.98,10.37-17.32,10.71c-3.24,0.13-6.39,0.6-9.44,1.05c-3.44,0.51-6.7,0.99-9.93,0.99c-1.91,0-3.63-0.17-5.28-0.52
			c-6.35-1.35-12.45-4.06-18.62-8.3c-1.98-1.36-4.18-2.62-6.76-2.62c-1.91,0-4.67,0.7-6.97,4.05c-6.45,9.39-15.33,13.4-29.72,13.4
			c-2.72,0-5.7-0.13-9.37-0.42c-12.3-0.97-24.98-3.21-34.41-12.93c-2.13-2.2-4.56-3.31-7.22-3.31c-3.28,0-5.96,1.73-8.12,3.13
			c-0.01,0.01-0.02,0.01-0.02,0.02c-2.59-2.75-5.11-5.91-7.77-9.76c1.15-0.78,2.19-1.62,3.18-2.42c1.12-0.91,2.19-1.77,3.24-2.39
			c2.84-1.66,5.31-2.43,7.77-2.43c1.98,0,4.03,0.52,6.25,1.58c2.28,1.09,4.61,2.29,6.87,3.45c9.56,4.91,19.44,9.99,30.96,10.17
			c0.37,0.01,0.74,0.01,1.11,0.01c16.72,0,28.86-6.1,36.09-18.15c1.23-2.04,3.7-3.36,6.3-3.36c1.46,0,2.84,0.43,4,1.25
			c6.03,4.27,12.55,8.31,19.95,12.33c3.64,1.98,8.14,3.02,13.01,3.02c11.5,0,23.83-5.62,30.67-13.98c4.02-4.91,6.92-5.92,10.04-5.92
			c2.2,0,4.86,0.55,8.35,1.74c5.93,2.02,11.32,5,17.02,8.16c2.17,1.2,4.42,2.45,6.69,3.63c5.99,3.11,12.01,4.69,17.89,4.69
			c9.75,0,19-4.37,26.75-12.65c7.33-7.83,12.32-8.73,15.43-8.73c5.41,0,11.36,3.28,17.49,6.93c1.07,0.64,2.13,1.29,3.17,1.95
			c5.35,3.33,10.88,6.77,18.35,7.91c1.3,0.2,2.62,0.3,3.9,0.3c7.39,0,13.11-3.32,18.16-6.25c1.33-0.77,2.59-1.5,3.88-2.18
			c1.57-0.83,5.08-3.41,3.64-9.44c-0.3-1.24-0.72-2.44-1.13-3.6c-1.54-4.34-1.25-4.51-0.31-5.07c1.58-0.95,3.29-1.41,5.22-1.41
			c2.63,0,5.61,0.86,8.88,2.56c2.72,1.41,5.34,2.96,7.31,4.15l0.34,0.21l0.37,0.14c0.53,0.2,0.97,0.39,1.39,0.59
			c2.28,1.09,4.61,2.29,6.87,3.45c9.56,4.91,19.44,9.99,30.96,10.17c0.37,0.01,0.74,0.01,1.1,0.01c16.72,0,28.86-6.1,36.09-18.15
			c1.23-2.04,3.7-3.36,6.3-3.36c1.46,0,2.84,0.43,4,1.25c6.03,4.27,12.55,8.31,19.95,12.33c3.69,2.01,8.07,3.02,13.01,3.02
			c11.5,0,23.83-5.62,30.67-13.98c4.02-4.91,6.92-5.92,10.04-5.92c2.2,0,4.86,0.55,8.35,1.74c5.93,2.02,11.32,5,17.02,8.16
			c2.18,1.21,4.42,2.45,6.69,3.63c5.99,3.11,12.01,4.69,17.89,4.69c9.75,0,19-4.37,26.75-12.65c7.33-7.83,12.32-8.73,15.43-8.73
			c5.41,0,11.36,3.28,17.49,6.94c1.07,0.64,2.13,1.29,3.17,1.95c5.35,3.33,10.88,6.77,18.35,7.91c1.3,0.2,2.62,0.3,3.9,0.3
			c7.39,0,13.11-3.32,18.16-6.25c1.33-0.77,2.59-1.5,3.88-2.18c1.57-0.83,5.08-3.41,3.64-9.44c-0.3-1.24-0.72-2.44-1.13-3.6
			c-1.54-4.34-1.25-4.51-0.31-5.07C1295.6,415.89,1297.3,415.43,1299.24,415.43 M1299.24,410.86c-2.6,0-5.16,0.62-7.58,2.07
			c-5.66,3.41-1.74,9.04-0.64,13.65c0.47,1.98,0.28,3.5-1.33,4.34c-6.39,3.37-12.07,7.91-19.9,7.91c-1.03,0-2.1-0.08-3.21-0.25
			c-7.91-1.21-13.56-5.5-19.87-9.26c-7.2-4.29-13.46-7.58-19.83-7.58c-5.88,0-11.86,2.8-18.77,10.18
			c-6.53,6.98-14.48,11.2-23.42,11.2c-4.98,0-10.26-1.31-15.78-4.18c-7.98-4.14-15.61-9.09-24.34-12.06
			c-3.76-1.28-6.95-1.99-9.83-1.99c-5.13,0-9.22,2.26-13.58,7.6c-6.18,7.56-17.34,12.31-27.14,12.31c-3.97,0-7.72-0.78-10.83-2.47
			c-6.69-3.64-13.22-7.6-19.49-12.04c-2.03-1.44-4.34-2.09-6.64-2.09c-4.11,0-8.12,2.1-10.21,5.58
			c-7.37,12.27-19.42,15.93-32.18,15.93c-0.34,0-0.69,0-1.03-0.01c-13.1-0.2-24.37-7.65-35.93-13.17c-0.58-0.28-1.15-0.51-1.72-0.73
			c-2.48-1.49-4.99-2.95-7.56-4.29c-3.54-1.84-7.31-3.07-10.99-3.07c-2.6,0-5.16,0.62-7.58,2.07c-5.66,3.41-1.74,9.04-0.64,13.65
			c0.47,1.98,0.28,3.49-1.33,4.34c-6.39,3.37-12.07,7.91-19.9,7.91c-1.03,0-2.1-0.08-3.21-0.25c-7.91-1.21-13.56-5.5-19.87-9.26
			c-7.2-4.29-13.46-7.58-19.83-7.58c-5.88,0-11.86,2.8-18.77,10.18c-6.53,6.98-14.48,11.2-23.42,11.2c-4.98,0-10.26-1.31-15.78-4.18
			c-7.98-4.14-15.61-9.09-24.34-12.06c-3.76-1.28-6.95-1.99-9.83-1.99c-5.13,0-9.22,2.26-13.58,7.6
			c-6.19,7.56-17.34,12.31-27.14,12.31c-3.97,0-7.72-0.78-10.83-2.47c-6.69-3.64-13.22-7.6-19.49-12.04
			c-2.03-1.44-4.35-2.09-6.64-2.09c-4.1,0-8.12,2.1-10.21,5.58c-7.37,12.27-19.42,15.93-32.17,15.93c-0.35,0-0.69,0-1.04-0.01
			c-13.1-0.2-24.37-7.65-35.93-13.17c-2.87-1.37-5.57-2.02-8.22-2.02c-3.38,0-6.66,1.06-10.08,3.06c-3.71,2.17-6.45,5.85-10.84,6.89
			c3.98,6.24,8.31,12.19,13.7,17.31c2.94-1.19,5.84-4.26,8.93-4.26c1.28,0,2.58,0.52,3.94,1.92c10.34,10.66,23.75,13.23,37.33,14.31
			c3.26,0.26,6.52,0.44,9.73,0.44c12.81,0,24.91-2.89,33.49-15.38c1.03-1.5,2.09-2.07,3.2-2.07c1.32,0,2.71,0.81,4.18,1.82
			c6.17,4.24,12.79,7.42,20.26,9c2.1,0.44,4.17,0.62,6.22,0.62c6.59,0,13.01-1.77,19.55-2.04c9.7-0.4,17.01-4.54,21.24-13.29
			c1.5-3.1,3.28-4.38,5.22-4.38c1.6,0,3.32,0.88,5.08,2.34c12.64,10.5,26.49,15.75,41.84,15.75c4.43,0,8.98-0.44,13.67-1.31
			c9.89-1.84,18.59-4.37,23.28-14.37c1.1-2.34,2.6-3.7,4.46-3.7c1.24,0,2.64,0.6,4.19,1.92c10.61,9.02,23.4,13.6,36.9,13.63
			c0.4,0,0.81,0,1.21,0c15.12,0,30.71-0.84,40.06-16.42c1.42-2.36,3.28-3.54,5.42-3.54c1.38,0,2.87,0.49,4.44,1.46
			c2.59,1.6,5.3,2.73,8.09,3.58c9.01,5.78,19.48,7.55,30.06,8.38c3.26,0.26,6.52,0.44,9.73,0.44c12.81,0,24.91-2.89,33.49-15.38
			c1.03-1.5,2.09-2.07,3.2-2.07c1.32,0,2.71,0.81,4.18,1.82c6.17,4.24,12.79,7.42,20.26,9c2.1,0.44,4.17,0.62,6.22,0.62
			c6.59,0,13.01-1.77,19.55-2.04c9.7-0.4,17.01-4.54,21.24-13.29c1.5-3.1,3.28-4.38,5.22-4.38c1.6,0,3.32,0.88,5.08,2.34
			c12.64,10.5,26.49,15.75,41.84,15.75c4.43,0,8.98-0.44,13.67-1.31c9.89-1.84,18.59-4.37,23.28-14.37c1.1-2.34,2.6-3.7,4.46-3.7
			c1.24,0,2.64,0.6,4.19,1.92c10.61,9.02,23.4,13.6,36.9,13.63c0.4,0,0.81,0,1.21,0c15.12,0,30.71-0.84,40.06-16.42
			c1.42-2.36,3.28-3.54,5.42-3.54c1.38,0,2.87,0.49,4.44,1.46c7.78,4.82,16.69,5.4,25.43,6.61c2.64-6.71,3.06-13.73,2.96-20.83
			c-0.99,0.09-1.94,0.16-2.88,0.16c-1.73,0-3.45-0.26-5.36-1.19c-9.06-4.41-17.15-10.4-26.05-15.02
			C1306.68,412.1,1302.92,410.86,1299.24,410.86L1299.24,410.86z"/>
	</g>
	<g style="clip-path:url(#SVGID_00000156575772383731335190000001259847296457968036_);">
		<path class="st289" d="M747.8,550.34c-2.4,0-4.98-0.09-8.1-0.28c-12.76-0.79-25.96-2.92-36.1-13.02
			c-1.68-1.67-3.53-2.52-5.51-2.52c-2.66,0-4.93,1.53-6.94,2.88c-0.55,0.37-1.09,0.73-1.6,1.04c-3.65-3.53-7.1-7.72-10.89-13.22
			c1.86-0.97,3.41-2.28,4.93-3.55c1.18-0.99,2.29-1.92,3.49-2.65c3.21-1.95,6.19-2.9,9.11-2.9c2.26,0,4.56,0.55,7.03,1.68
			c2.33,1.07,4.7,2.23,6.99,3.37c9.38,4.63,19.09,9.41,30.05,9.41c16.71-0.02,28.14-5.78,34.97-17.61c1.62-2.8,4.89-4.61,8.34-4.61
			c1.88,0,3.67,0.55,5.18,1.58c6.03,4.12,12.54,8,19.92,11.86c3.24,1.69,7.09,2.55,11.42,2.55c11.03,0,22.78-5.48,29.22-13.63
			c3.91-4.94,7.37-6.95,11.95-6.95c2.41,0,5.22,0.55,8.86,1.72c6.15,1.98,11.94,5.06,17.53,8.04c2.18,1.16,4.44,2.36,6.69,3.49
			c5.53,2.76,11.05,4.16,16.39,4.16c9.3,0,18.08-4.27,25.39-12.35c6.02-6.65,11.49-9.74,17.21-9.74c5.91,0,12.13,3.29,18.51,6.95
			c1.1,0.63,2.17,1.27,3.24,1.91c5.21,3.12,10.59,6.35,17.61,7.3c1.07,0.15,2.14,0.22,3.18,0.22c6.96,0,12.21-3.17,17.29-6.23
			c1.28-0.77,2.61-1.57,3.92-2.3c1.66-0.91,3.41-2.85,2.37-6.93c-0.29-1.12-0.71-2.25-1.12-3.35c-1.64-4.4-2.02-6.21,0.53-7.8
			c1.96-1.23,4.19-1.85,6.61-1.85c2.93,0,6.21,0.89,9.74,2.65c2.19,1.09,4.5,2.35,7.5,4.09l0.17,0.1l0.19,0.07
			c0.52,0.19,1.04,0.39,1.57,0.64c2.32,1.06,4.7,2.23,6.99,3.37c9.38,4.63,19.09,9.41,30.05,9.41c16.71-0.02,28.13-5.79,34.97-17.61
			c1.62-2.8,4.89-4.61,8.34-4.61c1.88,0,3.67,0.55,5.18,1.58c6.03,4.12,12.54,8,19.92,11.86c3.24,1.69,7.09,2.55,11.42,2.55
			c11.03,0,22.78-5.48,29.22-13.63c3.91-4.94,7.37-6.96,11.95-6.96c2.41,0,5.22,0.55,8.86,1.72c6.15,1.98,11.94,5.06,17.53,8.04
			c2.18,1.16,4.44,2.36,6.69,3.49c5.53,2.76,11.05,4.16,16.39,4.16c9.3,0,18.08-4.27,25.39-12.35c6.02-6.65,11.49-9.74,17.21-9.74
			c5.91,0,12.13,3.29,18.51,6.95c1.1,0.63,2.17,1.27,3.24,1.91c5.21,3.12,10.59,6.35,17.61,7.3c1.07,0.14,2.14,0.22,3.18,0.22
			c6.96,0,12.21-3.17,17.29-6.23c1.28-0.77,2.6-1.57,3.92-2.29c1.66-0.91,3.41-2.85,2.37-6.93c-0.29-1.12-0.71-2.25-1.12-3.35
			c-1.64-4.4-2.02-6.21,0.53-7.8c1.96-1.23,4.19-1.85,6.61-1.85c2.93,0,6.21,0.89,9.74,2.65c4.07,2.03,8.09,4.41,11.97,6.71
			c4.61,2.73,9.37,5.56,14.38,7.9c1.92,0.9,3.85,1.32,6.06,1.32c0.31,0,0.62-0.01,0.92-0.02c0.05,5.03-0.26,10.58-1.95,15.92
			c-0.53-0.06-1.05-0.12-1.58-0.18c-7.61-0.85-14.8-1.66-21.22-5.49c-1.9-1.13-3.76-1.71-5.53-1.71c-2.13,0-5.15,0.83-7.43,4.77
			c-8.31,14.39-22.01,15.72-39.05,15.96c-0.28,0-0.55,0.01-0.83,0.01c-12.82,0-24.86-4.32-34.81-12.5c-1.91-1.57-3.8-2.37-5.6-2.37
			c-1.59,0-4.55,0.67-6.55,5.13c-4.15,9.26-12.15,11.57-21.4,13.45c-4.89,1-9.71,1.5-14.31,1.5c-14.42,0-27.36-4.76-39.55-14.56
			c-2.31-1.85-4.43-2.76-6.47-2.76c-2.1,0-5.08,1-7.3,5.79c-3.59,7.76-9.83,11.79-19.08,12.32c-3.12,0.18-6.2,0.69-9.18,1.18
			c-3.71,0.61-7.22,1.19-10.8,1.19c-1.85,0-3.55-0.16-5.2-0.48c-6.68-1.3-13.08-4.03-19.58-8.33c-1.56-1.03-3.39-2.13-5.42-2.13
			c-2.02,0-3.74,1.06-5.13,3.15c-6.93,10.46-16.74,14.92-32.82,14.92c-2.4,0-4.98-0.09-8.1-0.28c-9.31-0.58-20.06-1.93-29.14-7.54
			l-0.27-0.17l-0.31-0.09c-2.88-0.82-5.36-1.87-7.6-3.2c-1.9-1.13-3.76-1.71-5.53-1.71c-2.13,0-5.15,0.83-7.43,4.77
			c-8.31,14.39-22.01,15.72-39.05,15.97c-0.27,0-0.55,0.01-0.82,0.01c-12.83,0-24.86-4.32-34.82-12.5c-1.91-1.57-3.8-2.37-5.6-2.37
			c-1.59,0-4.55,0.67-6.55,5.13c-4.15,9.26-12.15,11.57-21.41,13.45c-4.89,0.99-9.7,1.5-14.3,1.5c-14.42,0-27.36-4.76-39.55-14.56
			c-2.31-1.85-4.43-2.76-6.47-2.76c-2.1,0-5.08,1-7.3,5.79c-3.59,7.76-9.83,11.79-19.08,12.32c-3.12,0.18-6.2,0.69-9.18,1.18
			c-3.71,0.61-7.22,1.19-10.8,1.19c-1.85,0-3.56-0.16-5.2-0.48c-6.68-1.3-13.08-4.02-19.58-8.33c-1.56-1.03-3.39-2.13-5.42-2.13
			c-2.02,0-3.74,1.06-5.13,3.14C773.69,545.87,763.88,550.34,747.8,550.34z"/>
		<path class="st198" d="M1366.96,466c2.58,0,5.51,0.81,8.72,2.41c4,1.99,7.8,4.25,11.82,6.63c4.65,2.76,9.47,5.62,14.58,8
			c1.83,0.85,3.66,1.34,5.66,1.48c-0.06,3.63-0.38,7.45-1.32,11.18c-7.23-0.81-14.06-1.62-19.96-5.14
			c-2.26-1.35-4.51-2.03-6.71-2.03c-3.86,0-7.21,2.1-9.41,5.92c-7.71,13.35-20.8,14.59-37.1,14.82c-0.26,0-0.53,0.01-0.79,0.01
			c-12.29,0-23.83-4.14-33.37-11.98c-2.33-1.92-4.71-2.89-7.05-2.89c-2.14,0-6.1,0.84-8.63,6.48c-3.39,7.56-9.32,10.02-19.78,12.15
			c-4.74,0.96-9.4,1.45-13.85,1.45c-13.88,0-26.35-4.6-38.12-14.05c-2.73-2.19-5.32-3.26-7.9-3.26c-2.77,0-6.64,1.24-9.37,7.12
			c-3.25,7.02-8.69,10.51-17.13,11c-3.24,0.19-6.38,0.7-9.42,1.2c-3.62,0.6-7.03,1.16-10.43,1.16c-1.71,0-3.26-0.14-4.76-0.43
			c-6.38-1.24-12.51-3.85-18.76-7.99c-1.97-1.3-4.14-2.51-6.68-2.51c-1.95,0-4.75,0.72-7.03,4.17c-6.45,9.74-15.7,13.9-30.91,13.9
			c-2.36,0-4.88-0.09-7.96-0.28c-9.03-0.56-19.43-1.86-28.08-7.21l-0.54-0.33l-0.61-0.17c-2.68-0.76-4.99-1.73-7.06-2.97
			c-2.26-1.35-4.51-2.03-6.71-2.03c-3.87,0-7.21,2.1-9.41,5.92c-7.71,13.35-20.8,14.59-37.1,14.82c-0.26,0-0.53,0.01-0.79,0.01
			c-12.29,0-23.83-4.14-33.36-11.98c-2.33-1.92-4.71-2.89-7.06-2.89c-2.14,0-6.1,0.84-8.63,6.48c-3.39,7.56-9.32,10.02-19.78,12.15
			c-4.74,0.96-9.4,1.45-13.85,1.45c-13.88,0-26.35-4.6-38.12-14.05c-2.73-2.19-5.32-3.26-7.9-3.26c-2.77,0-6.64,1.24-9.37,7.12
			c-3.25,7.02-8.69,10.51-17.13,11c-3.24,0.19-6.38,0.7-9.42,1.2c-3.62,0.6-7.03,1.16-10.43,1.16c-1.7,0-3.26-0.14-4.76-0.43
			c-6.38-1.24-12.51-3.86-18.76-7.99c-1.97-1.3-4.14-2.51-6.68-2.51c-1.95,0-4.75,0.72-7.03,4.17c-6.45,9.74-15.7,13.9-30.91,13.9
			c-2.36,0-4.88-0.09-7.96-0.28c-12.31-0.77-25.03-2.79-34.62-12.36c-2.12-2.12-4.52-3.19-7.12-3.19c-3.35,0-6.05,1.81-8.22,3.26
			c-0.01,0.01-0.02,0.01-0.02,0.02c-2.64-2.71-5.21-5.83-7.93-9.63c1.14-0.8,2.17-1.66,3.14-2.48c1.11-0.93,2.16-1.81,3.2-2.45
			c2.88-1.75,5.4-2.57,7.92-2.57c1.92,0,3.91,0.48,6.08,1.47c2.3,1.05,4.65,2.21,6.93,3.34c9.62,4.74,19.57,9.65,31.06,9.65h0.06h0
			c17.3-0.03,29.71-6.34,36.89-18.75c1.2-2.07,3.76-3.47,6.36-3.47c1.41,0,2.76,0.41,3.89,1.18c6.1,4.17,12.69,8.1,20.15,12
			c3.57,1.87,7.77,2.81,12.48,2.81c11.69,0,24.16-5.83,31.01-14.5c4-5.05,6.95-6.09,10.16-6.09c2.16,0,4.76,0.51,8.16,1.61
			c5.96,1.92,11.4,4.81,17.15,7.88c2.2,1.17,4.47,2.38,6.75,3.52c5.85,2.92,11.71,4.4,17.41,4.4c9.96,0,19.33-4.53,27.09-13.1
			c7.3-8.06,12.35-8.99,15.52-8.99c5.35,0,11.27,3.14,17.37,6.64c1.08,0.62,2.15,1.26,3.21,1.89c5.41,3.24,11,6.59,18.48,7.6
			c1.17,0.16,2.34,0.24,3.49,0.24c7.59,0,13.37-3.48,18.47-6.56c1.32-0.8,2.56-1.55,3.84-2.25c1.56-0.86,5.02-3.5,3.48-9.5
			c-0.32-1.24-0.76-2.43-1.19-3.58c-1.61-4.31-1.33-4.49-0.4-5.07c1.62-1.01,3.38-1.5,5.4-1.5c2.58,0,5.51,0.81,8.72,2.41
			c2.74,1.37,5.38,2.87,7.38,4.02l0.34,0.2l0.37,0.14c0.54,0.2,0.99,0.38,1.41,0.57c2.29,1.05,4.65,2.21,6.93,3.34
			c9.62,4.74,19.57,9.65,31.06,9.65h0.06h0c17.3-0.03,29.71-6.34,36.89-18.75c1.2-2.07,3.76-3.47,6.36-3.47
			c1.41,0,2.76,0.41,3.89,1.18c6.1,4.18,12.69,8.1,20.15,11.99c3.57,1.87,7.77,2.81,12.48,2.81c11.69,0,24.16-5.83,31.01-14.5
			c4-5.05,6.95-6.09,10.16-6.09c2.16,0,4.76,0.51,8.16,1.61c5.96,1.92,11.39,4.81,17.15,7.88c2.2,1.17,4.47,2.38,6.75,3.52
			c5.85,2.92,11.71,4.4,17.41,4.4c9.96,0,19.33-4.53,27.09-13.1c7.3-8.06,12.35-8.99,15.52-8.99c5.35,0,11.27,3.14,17.37,6.65
			c1.08,0.62,2.15,1.26,3.21,1.89c5.41,3.24,11,6.59,18.48,7.6c1.17,0.16,2.34,0.24,3.49,0.24c7.59,0,13.37-3.48,18.47-6.56
			c1.32-0.8,2.56-1.55,3.84-2.25c1.56-0.86,5.02-3.5,3.48-9.5c-0.32-1.24-0.76-2.43-1.19-3.58c-1.61-4.31-1.33-4.48-0.4-5.07
			C1363.18,466.49,1364.95,466,1366.96,466 M1366.96,461.43c-2.7,0-5.35,0.65-7.82,2.2c-5.6,3.5-1.59,9.07-0.42,13.66
			c0.5,1.97,0.34,3.49-1.25,4.37c-6.43,3.53-12.1,8.24-20.11,8.24c-0.92,0-1.88-0.06-2.87-0.2c-7.93-1.08-13.64-5.27-20.03-8.93
			c-7.15-4.1-13.38-7.25-19.65-7.25c-5.98,0-12,2.86-18.91,10.49c-6.53,7.21-14.57,11.6-23.7,11.6c-4.84,0-9.98-1.23-15.37-3.92
			c-8.04-4.01-15.76-8.83-24.54-11.65c-3.65-1.17-6.77-1.83-9.56-1.83c-5.27,0-9.39,2.32-13.75,7.82
			c-6.16,7.79-17.51,12.76-27.43,12.76c-3.79,0-7.36-0.72-10.37-2.29c-6.75-3.52-13.35-7.38-19.69-11.72
			c-1.99-1.36-4.24-1.98-6.47-1.98c-4.17,0-8.25,2.18-10.32,5.75c-7.36,12.72-19.8,16.45-32.94,16.47c-0.02,0-0.04,0-0.05,0
			c-13.08,0-24.46-7.25-36.09-12.57c-0.58-0.27-1.16-0.5-1.73-0.7c-2.51-1.45-5.03-2.87-7.63-4.16c-3.48-1.73-7.17-2.89-10.76-2.89
			c-2.7,0-5.35,0.65-7.82,2.2c-5.6,3.5-1.59,9.07-0.42,13.66c0.5,1.97,0.34,3.49-1.25,4.37c-6.43,3.53-12.1,8.24-20.11,8.24
			c-0.92,0-1.88-0.06-2.87-0.2c-7.93-1.08-13.64-5.27-20.03-8.93c-7.15-4.1-13.38-7.25-19.65-7.25c-5.98,0-12,2.86-18.91,10.49
			c-6.53,7.21-14.57,11.6-23.7,11.6c-4.84,0-9.98-1.23-15.37-3.92c-8.04-4.01-15.76-8.83-24.54-11.65
			c-3.65-1.17-6.77-1.83-9.56-1.83c-5.27,0-9.39,2.32-13.74,7.82c-6.16,7.79-17.51,12.76-27.43,12.76c-3.79,0-7.36-0.72-10.37-2.29
			c-6.75-3.53-13.35-7.38-19.69-11.72c-1.99-1.36-4.24-1.98-6.47-1.98c-4.17,0-8.25,2.18-10.32,5.75
			c-7.36,12.72-19.8,16.45-32.94,16.47c-0.02,0-0.04,0-0.05,0c-13.08,0-24.46-7.25-36.09-12.57c-2.79-1.28-5.42-1.89-7.98-1.89
			c-3.47,0-6.82,1.12-10.29,3.23c-3.68,2.23-6.35,5.95-10.72,7.07c4.08,6.17,8.51,12.05,13.99,17.08c2.95-1.25,5.82-4.41,8.93-4.41
			c1.25,0,2.54,0.51,3.89,1.86c10.52,10.48,23.97,12.84,37.57,13.68c2.76,0.17,5.51,0.29,8.24,0.29c13.37,0,26.03-2.82,34.72-15.95
			c1.02-1.54,2.09-2.12,3.22-2.12c1.31,0,2.69,0.78,4.15,1.75c6.24,4.13,12.91,7.2,20.41,8.67c1.9,0.37,3.78,0.52,5.64,0.52
			c6.8,0,13.38-1.98,20.11-2.37c9.69-0.56,16.93-4.82,21.02-13.64c1.46-3.16,3.25-4.47,5.22-4.47c1.58,0,3.29,0.84,5.04,2.25
			c12.5,10.04,26.07,15.06,40.98,15.06c4.78,0,9.7-0.52,14.76-1.55c9.86-2.01,18.52-4.68,23.03-14.75c1.07-2.39,2.57-3.78,4.46-3.78
			c1.22,0,2.61,0.58,4.16,1.85c10.53,8.65,23.08,13.02,36.26,13.02c0.29,0,0.57,0,0.86-0.01c15.49-0.22,31.66-0.95,40.99-17.11
			c1.4-2.42,3.27-3.63,5.45-3.63c1.35,0,2.82,0.46,4.36,1.39c2.61,1.56,5.35,2.64,8.15,3.44c9.1,5.63,19.6,7.22,30.2,7.88
			c2.76,0.17,5.51,0.29,8.24,0.29c13.37,0,26.03-2.82,34.72-15.95c1.02-1.54,2.09-2.12,3.22-2.12c1.31,0,2.69,0.78,4.15,1.75
			c6.24,4.13,12.91,7.21,20.41,8.66c1.9,0.37,3.78,0.52,5.64,0.52c6.8,0,13.37-1.98,20.11-2.37c9.69-0.56,16.93-4.82,21.02-13.64
			c1.46-3.16,3.25-4.47,5.22-4.47c1.58,0,3.29,0.84,5.04,2.25c12.5,10.04,26.07,15.06,40.98,15.06c4.78,0,9.7-0.52,14.76-1.55
			c9.86-2,18.52-4.68,23.03-14.75c1.07-2.39,2.57-3.78,4.46-3.78c1.22,0,2.61,0.58,4.15,1.85c10.53,8.65,23.08,13.02,36.27,13.02
			c0.29,0,0.57,0,0.86-0.01c15.49-0.22,31.66-0.95,40.99-17.11c1.4-2.42,3.27-3.63,5.45-3.63c1.35,0,2.82,0.46,4.36,1.39
			c7.86,4.69,16.78,5.12,25.53,6.19c2.53-6.75,2.83-13.78,2.62-20.88c-1.09,0.11-2.12,0.21-3.15,0.21c-1.64,0-3.28-0.25-5.1-1.1
			c-9.13-4.26-17.32-10.12-26.29-14.59C1374.24,462.59,1370.56,461.43,1366.96,461.43L1366.96,461.43z"/>
	</g>
	<g style="clip-path:url(#SVGID_00000156575772383731335190000001259847296457968036_);">
		<path class="st289" d="M845.77,599.62c-2.4,0-4.98-0.09-8.1-0.28c-12.76-0.79-25.96-2.92-36.1-13.02
			c-1.68-1.67-3.53-2.52-5.51-2.52c-2.66,0-4.93,1.53-6.94,2.88c-0.55,0.37-1.09,0.73-1.6,1.04c-3.65-3.53-7.1-7.72-10.89-13.22
			c1.86-0.97,3.41-2.28,4.93-3.55c1.18-0.99,2.29-1.92,3.49-2.65c3.21-1.95,6.19-2.9,9.11-2.9c2.26,0,4.56,0.55,7.03,1.68
			c2.33,1.07,4.7,2.23,6.99,3.37c9.38,4.63,19.09,9.41,30.05,9.41c16.71-0.02,28.14-5.78,34.97-17.61c1.62-2.8,4.89-4.61,8.34-4.61
			c1.88,0,3.67,0.55,5.18,1.58c6.03,4.12,12.54,8,19.92,11.86c3.24,1.69,7.09,2.55,11.42,2.55c11.03,0,22.78-5.48,29.22-13.63
			c3.91-4.94,7.37-6.95,11.95-6.95c2.41,0,5.22,0.55,8.86,1.72c6.15,1.98,11.94,5.06,17.53,8.04c2.18,1.16,4.44,2.36,6.69,3.49
			c5.53,2.76,11.05,4.16,16.39,4.16c9.3,0,18.08-4.27,25.39-12.35c6.02-6.65,11.49-9.74,17.21-9.74c5.91,0,12.13,3.29,18.51,6.95
			c1.1,0.63,2.17,1.27,3.24,1.91c5.21,3.12,10.59,6.35,17.61,7.3c1.07,0.14,2.14,0.22,3.18,0.22c6.96,0,12.21-3.17,17.29-6.23
			c1.28-0.77,2.61-1.57,3.92-2.3c1.66-0.91,3.41-2.85,2.37-6.93c-0.29-1.12-0.71-2.25-1.12-3.35c-1.64-4.4-2.02-6.21,0.53-7.8
			c1.96-1.23,4.19-1.85,6.61-1.85c2.93,0,6.21,0.89,9.74,2.65c2.19,1.09,4.5,2.35,7.5,4.09l0.17,0.1l0.19,0.07
			c0.52,0.19,1.04,0.39,1.57,0.64c2.32,1.06,4.7,2.23,6.99,3.37c9.38,4.63,19.09,9.41,30.05,9.41c16.71-0.02,28.13-5.79,34.97-17.61
			c1.62-2.8,4.89-4.61,8.34-4.61c1.88,0,3.67,0.55,5.18,1.58c6.03,4.12,12.54,8,19.92,11.86c3.24,1.69,7.09,2.55,11.42,2.55
			c11.03,0,22.78-5.48,29.22-13.63c3.91-4.94,7.37-6.96,11.95-6.96c2.41,0,5.22,0.55,8.86,1.72c6.15,1.98,11.94,5.06,17.53,8.04
			c2.18,1.16,4.44,2.36,6.69,3.49c5.53,2.76,11.05,4.16,16.39,4.16c9.3,0,18.08-4.27,25.39-12.35c6.02-6.65,11.49-9.74,17.21-9.74
			c5.91,0,12.13,3.29,18.51,6.95c1.1,0.63,2.17,1.27,3.24,1.91c5.21,3.12,10.59,6.35,17.61,7.3c1.07,0.14,2.14,0.22,3.18,0.22
			c6.96,0,12.21-3.17,17.29-6.23c1.28-0.77,2.6-1.57,3.92-2.29c1.66-0.91,3.41-2.85,2.37-6.93c-0.29-1.12-0.71-2.25-1.12-3.35
			c-1.64-4.4-2.02-6.21,0.53-7.8c1.96-1.23,4.19-1.85,6.61-1.85c2.93,0,6.21,0.89,9.74,2.65c4.07,2.03,8.09,4.41,11.97,6.71
			c4.61,2.73,9.37,5.56,14.38,7.9c1.92,0.9,3.85,1.32,6.06,1.32c0.31,0,0.62-0.01,0.92-0.02c0.05,5.03-0.26,10.58-1.95,15.92
			c-0.53-0.06-1.05-0.12-1.58-0.18c-7.61-0.85-14.8-1.66-21.22-5.49c-1.9-1.13-3.76-1.71-5.54-1.71c-2.13,0-5.15,0.83-7.43,4.77
			c-8.31,14.39-22.01,15.72-39.05,15.96c-0.28,0-0.55,0.01-0.83,0.01c-12.82,0-24.86-4.32-34.81-12.5c-1.91-1.57-3.8-2.37-5.6-2.37
			c-1.59,0-4.55,0.67-6.55,5.13c-4.15,9.26-12.15,11.57-21.4,13.45c-4.89,1-9.71,1.5-14.31,1.5c-14.42,0-27.36-4.76-39.55-14.56
			c-2.31-1.85-4.43-2.76-6.47-2.76c-2.1,0-5.08,1-7.3,5.79c-3.59,7.76-9.83,11.79-19.08,12.32c-3.12,0.18-6.2,0.69-9.18,1.18
			c-3.71,0.61-7.22,1.19-10.8,1.19c-1.85,0-3.55-0.16-5.2-0.48c-6.68-1.3-13.08-4.03-19.58-8.33c-1.56-1.03-3.39-2.13-5.42-2.13
			c-2.02,0-3.74,1.06-5.13,3.15c-6.93,10.46-16.74,14.92-32.82,14.92c-2.4,0-4.98-0.09-8.1-0.28c-9.31-0.58-20.06-1.93-29.14-7.54
			l-0.27-0.17l-0.31-0.09c-2.88-0.82-5.36-1.87-7.6-3.2c-1.9-1.13-3.76-1.71-5.53-1.71c-2.13,0-5.15,0.83-7.43,4.77
			c-8.31,14.39-22.01,15.72-39.05,15.97c-0.27,0-0.55,0.01-0.82,0.01c-12.83,0-24.86-4.32-34.82-12.5c-1.91-1.57-3.8-2.37-5.6-2.37
			c-1.59,0-4.55,0.67-6.55,5.13c-4.15,9.26-12.15,11.57-21.41,13.45c-4.89,0.99-9.7,1.5-14.3,1.5c-14.42,0-27.36-4.76-39.55-14.56
			c-2.31-1.85-4.43-2.76-6.47-2.76c-2.1,0-5.08,1-7.3,5.79c-3.59,7.76-9.83,11.79-19.08,12.32c-3.12,0.18-6.2,0.69-9.18,1.18
			c-3.71,0.61-7.22,1.19-10.8,1.19c-1.85,0-3.56-0.16-5.2-0.48c-6.68-1.3-13.08-4.02-19.58-8.33c-1.56-1.03-3.39-2.13-5.42-2.13
			c-2.02,0-3.74,1.06-5.13,3.14C871.66,595.16,861.85,599.62,845.77,599.62z"/>
		<path class="st198" d="M1464.93,515.29c2.58,0,5.51,0.81,8.72,2.41c4,1.99,7.8,4.25,11.82,6.63c4.65,2.76,9.47,5.62,14.58,8
			c1.83,0.85,3.66,1.34,5.66,1.48c-0.06,3.63-0.38,7.45-1.32,11.18c-7.23-0.81-14.06-1.62-19.96-5.14
			c-2.26-1.35-4.51-2.03-6.71-2.03c-3.86,0-7.21,2.1-9.41,5.92c-7.71,13.35-20.8,14.59-37.1,14.82c-0.26,0-0.53,0.01-0.79,0.01
			c-12.29,0-23.83-4.14-33.37-11.98c-2.33-1.92-4.71-2.89-7.05-2.89c-2.14,0-6.1,0.84-8.63,6.48c-3.39,7.56-9.32,10.02-19.78,12.15
			c-4.74,0.96-9.4,1.45-13.85,1.45c-13.88,0-26.35-4.6-38.12-14.05c-2.73-2.19-5.32-3.26-7.9-3.26c-2.77,0-6.64,1.24-9.37,7.12
			c-3.25,7.02-8.69,10.51-17.13,11c-3.24,0.19-6.38,0.7-9.42,1.2c-3.62,0.6-7.03,1.16-10.43,1.16c-1.71,0-3.26-0.14-4.76-0.43
			c-6.38-1.24-12.51-3.85-18.76-7.99c-1.97-1.3-4.14-2.51-6.68-2.51c-1.95,0-4.75,0.72-7.03,4.17c-6.45,9.74-15.7,13.9-30.91,13.9
			c-2.36,0-4.88-0.09-7.96-0.28c-9.03-0.56-19.43-1.86-28.08-7.21l-0.54-0.33l-0.61-0.17c-2.68-0.76-4.99-1.73-7.06-2.97
			c-2.26-1.35-4.51-2.03-6.71-2.03c-3.87,0-7.21,2.1-9.41,5.92c-7.71,13.35-20.8,14.59-37.1,14.82c-0.26,0-0.53,0.01-0.79,0.01
			c-12.29,0-23.83-4.14-33.36-11.98c-2.33-1.92-4.71-2.89-7.06-2.89c-2.14,0-6.1,0.84-8.63,6.48c-3.39,7.56-9.32,10.02-19.78,12.15
			c-4.74,0.96-9.4,1.45-13.85,1.45c-13.88,0-26.35-4.6-38.12-14.05c-2.73-2.19-5.32-3.26-7.9-3.26c-2.77,0-6.64,1.24-9.37,7.12
			c-3.25,7.02-8.69,10.51-17.13,11c-3.24,0.19-6.38,0.7-9.42,1.2c-3.62,0.6-7.03,1.16-10.43,1.16c-1.7,0-3.26-0.14-4.76-0.43
			c-6.38-1.24-12.51-3.86-18.76-7.99c-1.97-1.3-4.14-2.51-6.68-2.51c-1.95,0-4.75,0.72-7.03,4.17c-6.45,9.74-15.7,13.9-30.91,13.9
			c-2.36,0-4.88-0.09-7.96-0.28c-12.31-0.77-25.03-2.79-34.62-12.36c-2.12-2.12-4.52-3.19-7.12-3.19c-3.35,0-6.05,1.81-8.22,3.26
			c-0.01,0.01-0.02,0.01-0.02,0.02c-2.64-2.71-5.21-5.83-7.93-9.63c1.14-0.8,2.17-1.66,3.14-2.48c1.11-0.93,2.16-1.81,3.2-2.45
			c2.88-1.75,5.4-2.57,7.92-2.57c1.92,0,3.91,0.48,6.08,1.47c2.3,1.05,4.65,2.21,6.93,3.34c9.62,4.74,19.57,9.65,31.06,9.65h0.06h0
			c17.3-0.03,29.71-6.34,36.89-18.75c1.2-2.07,3.76-3.47,6.36-3.47c1.41,0,2.76,0.41,3.89,1.18c6.1,4.17,12.69,8.1,20.15,12
			c3.57,1.87,7.77,2.81,12.48,2.81c11.69,0,24.16-5.83,31.01-14.5c4-5.05,6.95-6.09,10.16-6.09c2.16,0,4.76,0.51,8.16,1.61
			c5.96,1.92,11.4,4.81,17.15,7.88c2.2,1.17,4.47,2.38,6.75,3.52c5.85,2.92,11.71,4.4,17.41,4.4c9.96,0,19.33-4.53,27.09-13.1
			c7.3-8.06,12.35-8.99,15.52-8.99c5.35,0,11.27,3.14,17.37,6.64c1.08,0.62,2.15,1.26,3.21,1.89c5.41,3.24,11,6.59,18.48,7.6
			c1.17,0.16,2.34,0.24,3.49,0.24c7.59,0,13.37-3.48,18.47-6.56c1.32-0.8,2.56-1.55,3.84-2.25c1.56-0.86,5.02-3.5,3.48-9.5
			c-0.32-1.24-0.76-2.43-1.19-3.58c-1.61-4.31-1.33-4.49-0.4-5.07c1.62-1.01,3.38-1.5,5.4-1.5c2.58,0,5.51,0.81,8.72,2.41
			c2.74,1.37,5.38,2.87,7.38,4.02l0.34,0.2l0.37,0.14c0.54,0.2,0.99,0.38,1.41,0.57c2.29,1.05,4.65,2.21,6.93,3.34
			c9.62,4.74,19.57,9.65,31.06,9.65h0.06h0c17.3-0.03,29.71-6.34,36.89-18.75c1.2-2.07,3.76-3.47,6.36-3.47
			c1.41,0,2.76,0.41,3.89,1.18c6.1,4.18,12.69,8.1,20.15,11.99c3.57,1.87,7.77,2.81,12.48,2.81c11.69,0,24.16-5.83,31.01-14.5
			c4-5.05,6.95-6.09,10.16-6.09c2.16,0,4.76,0.51,8.16,1.61c5.96,1.92,11.39,4.81,17.15,7.88c2.2,1.17,4.47,2.38,6.75,3.52
			c5.85,2.92,11.71,4.4,17.41,4.4c9.96,0,19.33-4.53,27.09-13.1c7.3-8.06,12.35-8.99,15.52-8.99c5.35,0,11.27,3.14,17.37,6.65
			c1.08,0.62,2.15,1.26,3.21,1.89c5.41,3.24,11,6.59,18.48,7.6c1.17,0.16,2.34,0.24,3.49,0.24c7.59,0,13.37-3.48,18.47-6.56
			c1.32-0.8,2.56-1.55,3.84-2.25c1.56-0.86,5.02-3.5,3.48-9.5c-0.32-1.24-0.76-2.43-1.19-3.58c-1.61-4.31-1.33-4.48-0.4-5.07
			C1461.15,515.78,1462.92,515.29,1464.93,515.29 M1464.93,510.72c-2.7,0-5.35,0.65-7.82,2.2c-5.6,3.5-1.59,9.07-0.42,13.66
			c0.5,1.97,0.34,3.49-1.25,4.37c-6.43,3.53-12.1,8.24-20.11,8.24c-0.92,0-1.88-0.06-2.87-0.2c-7.93-1.08-13.64-5.27-20.03-8.93
			c-7.15-4.1-13.38-7.25-19.65-7.25c-5.98,0-12,2.86-18.91,10.49c-6.53,7.21-14.57,11.6-23.7,11.6c-4.84,0-9.98-1.23-15.37-3.92
			c-8.04-4.01-15.76-8.83-24.54-11.65c-3.65-1.17-6.77-1.83-9.56-1.83c-5.27,0-9.39,2.32-13.75,7.82
			c-6.16,7.79-17.51,12.76-27.43,12.76c-3.79,0-7.36-0.72-10.37-2.29c-6.75-3.52-13.35-7.38-19.69-11.72
			c-1.99-1.36-4.24-1.98-6.47-1.98c-4.17,0-8.25,2.18-10.32,5.75c-7.36,12.72-19.8,16.45-32.94,16.47c-0.02,0-0.04,0-0.05,0
			c-13.08,0-24.46-7.25-36.09-12.57c-0.58-0.27-1.16-0.5-1.73-0.7c-2.51-1.45-5.03-2.87-7.63-4.16c-3.48-1.73-7.17-2.89-10.76-2.89
			c-2.7,0-5.35,0.65-7.82,2.2c-5.6,3.5-1.59,9.07-0.42,13.66c0.5,1.97,0.34,3.49-1.26,4.37c-6.43,3.53-12.1,8.24-20.11,8.24
			c-0.92,0-1.88-0.06-2.87-0.2c-7.93-1.08-13.65-5.27-20.03-8.93c-7.15-4.1-13.38-7.25-19.65-7.25c-5.98,0-12,2.86-18.91,10.49
			c-6.53,7.21-14.57,11.6-23.7,11.6c-4.84,0-9.98-1.23-15.37-3.92c-8.04-4.01-15.76-8.83-24.54-11.65
			c-3.65-1.17-6.77-1.83-9.56-1.83c-5.27,0-9.39,2.32-13.74,7.82c-6.16,7.79-17.51,12.76-27.43,12.76c-3.79,0-7.36-0.72-10.37-2.29
			c-6.75-3.53-13.35-7.38-19.69-11.72c-1.99-1.36-4.24-1.98-6.47-1.98c-4.17,0-8.25,2.18-10.32,5.75
			c-7.36,12.72-19.8,16.45-32.94,16.47c-0.02,0-0.04,0-0.05,0c-13.08,0-24.46-7.25-36.09-12.57c-2.79-1.28-5.42-1.89-7.98-1.89
			c-3.47,0-6.82,1.12-10.29,3.23c-3.68,2.23-6.35,5.95-10.72,7.07c4.08,6.17,8.51,12.05,13.99,17.08c2.95-1.25,5.82-4.41,8.93-4.41
			c1.25,0,2.54,0.51,3.89,1.86c10.52,10.48,23.97,12.84,37.57,13.68c2.76,0.17,5.51,0.29,8.24,0.29c13.37,0,26.03-2.82,34.72-15.95
			c1.02-1.54,2.09-2.12,3.22-2.12c1.31,0,2.69,0.78,4.15,1.75c6.24,4.13,12.91,7.2,20.41,8.67c1.9,0.37,3.78,0.52,5.64,0.52
			c6.8,0,13.38-1.98,20.11-2.37c9.69-0.56,16.93-4.82,21.02-13.64c1.46-3.16,3.25-4.47,5.22-4.47c1.58,0,3.29,0.84,5.04,2.25
			c12.5,10.04,26.07,15.06,40.98,15.06c4.78,0,9.7-0.52,14.76-1.55c9.86-2.01,18.52-4.68,23.03-14.75c1.07-2.39,2.57-3.78,4.46-3.78
			c1.22,0,2.61,0.58,4.16,1.85c10.53,8.65,23.08,13.02,36.26,13.02c0.29,0,0.57,0,0.86-0.01c15.49-0.22,31.66-0.95,40.99-17.11
			c1.4-2.42,3.27-3.63,5.45-3.63c1.35,0,2.82,0.46,4.36,1.39c2.61,1.56,5.35,2.64,8.15,3.44c9.1,5.63,19.6,7.22,30.2,7.88
			c2.76,0.17,5.51,0.29,8.24,0.29c13.37,0,26.03-2.82,34.72-15.95c1.02-1.54,2.09-2.12,3.22-2.12c1.31,0,2.69,0.78,4.15,1.75
			c6.24,4.13,12.91,7.21,20.41,8.66c1.9,0.37,3.78,0.52,5.64,0.52c6.8,0,13.37-1.98,20.11-2.37c9.69-0.56,16.93-4.82,21.02-13.64
			c1.46-3.16,3.25-4.47,5.22-4.47c1.58,0,3.29,0.84,5.04,2.25c12.5,10.04,26.07,15.06,40.98,15.06c4.78,0,9.7-0.52,14.76-1.55
			c9.86-2,18.52-4.68,23.03-14.75c1.07-2.39,2.57-3.78,4.46-3.78c1.22,0,2.61,0.58,4.15,1.85c10.53,8.65,23.08,13.02,36.27,13.02
			c0.29,0,0.57,0,0.86-0.01c15.49-0.22,31.66-0.95,40.99-17.11c1.4-2.42,3.27-3.63,5.45-3.63c1.35,0,2.82,0.46,4.36,1.39
			c7.86,4.69,16.78,5.12,25.53,6.19c2.53-6.75,2.83-13.78,2.62-20.88c-1.09,0.11-2.12,0.21-3.15,0.21c-1.64,0-3.28-0.25-5.1-1.1
			c-9.13-4.26-17.32-10.12-26.29-14.59C1472.21,511.87,1468.53,510.72,1464.93,510.72L1464.93,510.72z"/>
	</g>
</g>
<path class="st286" d="M583.98,405.71c6.73-0.91,13.56,0.75,19.35,4.29c16.5,10.1,60.02,39.18,111.01,92.96
	c76.41,80.58,114.59,105.84,114.59,105.84l-4.37,34.99c0,0-119.84-110.22-166.2-155.7c-46.36-45.49-61.23-67.35-86.6-44.61
	C546.4,466.22,447.56,612.3,389.83,619.29V587.8c0,0,78.73-47.24,146.95-139.96C560.23,415.98,572.12,407.31,583.98,405.71z"/>
<path class="st284" d="M828.94,608.8c0,0,404.13,9.62,732.15-52.48l-9.62,26.51c0,0-613.19,99.45-726.9,60.96
	C824.57,643.79,807.94,608.47,828.94,608.8z"/>
</svg>
