<?xml version="1.0" encoding="iso-8859-1"?>
<!-- Generator: Adobe Illustrator 19.0.0, SVG Export Plug-In . SVG Version: 6.00 Build 0)  -->
<svg version="1.1" id="Capa_1" xmlns="http://www.w3.org/2000/svg" xmlns:xlink="http://www.w3.org/1999/xlink" x="0px" y="0px"
	 viewBox="0 0 512.365 512.365" style="enable-background:new 0 0 512.365 512.365;" xml:space="preserve">
<g transform="translate(-1)">
	<polygon style="fill:#F29C1F;" points="487.737,303.108 487.737,465.241 342.67,465.241 342.67,277.508 	"/>
	<rect x="9.87" y="465.241" style="fill:#CC6F56;" width="494.933" height="34.133"/>
	<path style="fill:#BDC3C7;" d="M411.534,29.444c-24.405-24.397-61.102-31.695-92.984-18.49s-52.673,44.312-52.68,78.821v213.333
		l170.667,8.533l0-221.867C436.561,67.139,427.563,45.427,411.534,29.444z"/>
	<g>
		<rect x="265.87" y="200.708" style="fill:#95A5A5;" width="170.667" height="42.667"/>
		<rect x="265.87" y="115.374" style="fill:#95A5A5;" width="170.667" height="42.667"/>
	</g>
	<polygon style="fill:#E57E25;" points="487.737,300.292 487.737,334.425 351.203,311.641 351.203,277.508 	"/>
	<path style="fill:#B0D3F0;" d="M393.87,362.841h42.667c4.713,0,8.533,3.821,8.533,8.533v25.6c0,4.713-3.821,8.533-8.533,8.533
		H393.87c-4.713,0-8.533-3.821-8.533-8.533v-25.6C385.337,366.662,389.157,362.841,393.87,362.841z"/>
	<path style="fill:#805333;" d="M513.251,304.473c-0.72,4.113-4.272,7.128-8.448,7.168c-0.457,0.014-0.914-0.014-1.365-0.085
		l-152.235-25.344v-17.237c0.457-0.014,0.914,0.014,1.365,0.085l153.6,25.6c2.243,0.356,4.253,1.592,5.582,3.434
		C513.08,299.936,513.62,302.232,513.251,304.473z"/>
	<polygon style="fill:#E64C3C;" points="351.203,175.108 351.203,465.241 44.003,465.241 44.003,175.534 87.694,132.441 
		197.603,89.774 307.513,132.441 	"/>
	<g>
		<path style="fill:#CB8252;" d="M385.337,217.774c-2.236-0.005-4.381-0.887-5.973-2.458l-76.561-75.563L197.603,98.931
			L92.43,139.754l-76.587,75.563c-2.128,2.338-5.375,3.307-8.436,2.519c-3.062-0.788-5.437-3.204-6.172-6.278
			c-0.736-3.075,0.289-6.304,2.662-8.392l77.824-76.8c0.831-0.818,1.822-1.457,2.91-1.877L194.54,81.821
			c1.986-0.777,4.192-0.777,6.178,0l109.909,42.667c1.088,0.42,2.078,1.059,2.91,1.877l77.824,76.8
			c2.469,2.435,3.219,6.123,1.897,9.329C391.936,215.701,388.805,217.788,385.337,217.774z"/>
		<path style="fill:#CB8252;" d="M291.47,286.041v179.2H103.737v-179.2c0-4.713,3.821-8.533,8.533-8.533h170.667
			C287.649,277.508,291.47,281.328,291.47,286.041z"/>
	</g>
	<g>
		<path style="fill:#805333;" d="M291.47,286.041v3.584l-62.208,62.208c-3.365,3.3-8.752,3.3-12.117,0
			c-3.328-3.354-3.328-8.764,0-12.117l62.208-62.208h3.584C287.649,277.508,291.47,281.328,291.47,286.041z"/>
		<path style="fill:#805333;" d="M178.062,403.033l-62.208,62.208h-12.117v-12.117l62.208-62.208c3.346-3.346,8.771-3.346,12.117,0
			C181.408,394.262,181.408,399.687,178.062,403.033z"/>
		<path style="fill:#805333;" d="M291.47,453.124v12.117h-12.117L103.737,289.625v-3.584c0-4.713,3.821-8.533,8.533-8.533h3.584
			L291.47,453.124z"/>
	</g>
	<path style="fill:#B0D3F0;" d="M172.003,166.574h51.2c4.713,0,8.533,3.821,8.533,8.533v51.2c0,4.713-3.821,8.533-8.533,8.533h-51.2
		c-4.713,0-8.533-3.82-8.533-8.533v-51.2C163.47,170.395,167.29,166.574,172.003,166.574z"/>
	<g>
		<path style="fill:#C03A2B;" d="M129.337,209.241h-25.6c-4.713,0-8.533-3.821-8.533-8.533s3.821-8.533,8.533-8.533h25.6
			c4.713,0,8.533,3.82,8.533,8.533S134.049,209.241,129.337,209.241z"/>
		<path style="fill:#C03A2B;" d="M291.47,209.241h-25.6c-4.713,0-8.533-3.821-8.533-8.533s3.821-8.533,8.533-8.533h25.6
			c4.713,0,8.533,3.82,8.533,8.533S296.183,209.241,291.47,209.241z"/>
	</g>
	<g>
		<path style="fill:#804537;" d="M9.87,473.774h494.933c4.713,0,8.533-3.82,8.533-8.533s-3.821-8.533-8.533-8.533H9.87
			c-4.713,0-8.533,3.82-8.533,8.533S5.157,473.774,9.87,473.774z"/>
		<path style="fill:#804537;" d="M86.67,490.841H9.87c-4.713,0-8.533,3.82-8.533,8.533s3.821,8.533,8.533,8.533h76.8
			c4.713,0,8.533-3.82,8.533-8.533S91.383,490.841,86.67,490.841z"/>
		<path style="fill:#804537;" d="M504.803,490.841h-384c-4.713,0-8.533,3.82-8.533,8.533s3.821,8.533,8.533,8.533h384
			c4.713,0,8.533-3.82,8.533-8.533S509.516,490.841,504.803,490.841z"/>
	</g>
</g>
<g>
</g>
<g>
</g>
<g>
</g>
<g>
</g>
<g>
</g>
<g>
</g>
<g>
</g>
<g>
</g>
<g>
</g>
<g>
</g>
<g>
</g>
<g>
</g>
<g>
</g>
<g>
</g>
<g>
</g>
</svg>
