<svg xmlns="http://www.w3.org/2000/svg" xmlns:xlink="http://www.w3.org/1999/xlink" viewBox="0 0 2000 2000"><defs><style>.cls-1{fill:none;}.cls-2{isolation:isolate;}.cls-3{fill:#4c94bf;}.cls-4{fill:#afd86a;}.cls-5{fill:#846f5a;}.cls-6{fill:#a39386;}.cls-7{clip-path:url(#clip-path);}.cls-8{fill:#998776;}.cls-9{clip-path:url(#clip-path-2);}.cls-10{fill:#71bbd8;}.cls-11{fill:#d8c9ba;}.cls-12{fill:#e5d6c7;}.cls-13{fill:#c4b19f;}.cls-14{fill:#aa4226;}.cls-15{fill:#ad957d;}.cls-16{fill:#604f40;}.cls-17{fill:#ec7d51;}.cls-18{fill:url(#Áåçûìÿííûé_ãðàäèåíò_46);}.cls-19{mix-blend-mode:multiply;opacity:0.65;fill:url(#Áåçûìÿííûé_ãðàäèåíò_35);}.cls-20{fill:#993a23;}.cls-21{fill:#937d69;}.cls-22{fill:#3c3229;}.cls-23{fill:#a08975;}.cls-24{fill:#7a291b;}.cls-25{fill:#bc4d3b;}.cls-26{fill:#c1ae9f;}.cls-27{clip-path:url(#clip-path-3);}.cls-28{fill:#77a22f;}.cls-29{clip-path:url(#clip-path-4);}.cls-30{fill:#8abd32;}</style><clipPath id="clip-path"><polygon class="cls-1" points="104.58 1564.12 365.07 1627.61 771.98 1403.02 557.59 1373.4 104.58 1564.12"/></clipPath><clipPath id="clip-path-2"><polygon class="cls-1" points="1905 1601 1685.06 1678.14 1313.89 1518.56 1496.83 1474.65 1905 1601"/></clipPath><linearGradient id="Áåçûìÿííûé_ãðàäèåíò_46" x1="2724.82" y1="369.12" x2="2800.97" y2="276.45" gradientTransform="matrix(-1, 0, 0, 1, 3594.1, 0)" gradientUnits="userSpaceOnUse"><stop offset="0" stop-color="#9b2565"/><stop offset="1" stop-color="#c2304a"/></linearGradient><linearGradient id="Áåçûìÿííûé_ãðàäèåíò_35" x1="-8132.86" y1="240.11" x2="-8132.75" y2="240.11" gradientTransform="translate(8988.07)" gradientUnits="userSpaceOnUse"><stop offset="0" stop-color="#b883c4"/><stop offset="1" stop-color="#d69aae"/></linearGradient><clipPath id="clip-path-3"><polygon class="cls-1" points="408.19 1243.07 401.71 1461.79 551.48 1477.16 550.85 1247.9 408.19 1243.07"/></clipPath><clipPath id="clip-path-4"><path class="cls-1" d="M886.81,1504.29c-8.3-12.74-12.23-28.84-.29-46.26,0,0,9.44-17.68,38.72-21,0,0,10-73,71.86-61,85.24,16.48,59.16,104.38,59.16,104.38s21.24-55,67.86-17.15c25.51,20.69,4.22,58.13-24.28,62.52a136.27,136.27,0,0,1-62.27,11.63l-100-4.52A64.06,64.06,0,0,1,886.81,1504.29Z"/></clipPath></defs><g class="cls-2"><g id="Layer_1" data-name="Layer 1"><path class="cls-3" d="M373.8,1534.14s-15.62,294.51,381,255.48a287.81,287.81,0,0,1,174.66,38.47c58,34.23,145.6,73.68,250.86,81.76,213.83,16.41,386.83-43.11,489.43-263S373.8,1534.14,373.8,1534.14Z"/><path class="cls-4" d="M1341.84,1310.18l-814.7,57c-9.8-11.07-44.8-1.55-91.47,6.4h0c-55.21-12.32-112.95,4.21-151.51,43.59-42.65,43.57-81.15,97-36.28,138.26C471.19,1761,809.62,1599,826.34,1603.89c18.68,5.46,42.65,25.32,98.89,50.55,63.1,28.3,131.23,47,201.21,55.89,45.58,5.77,104.47,12.44,146.72,14.43,25.86,1.21,52.88,2,80.54,1.84,147.9-.81,328.66-1.62,412.81-141.42C1883,1391.7,1341.84,1310.18,1341.84,1310.18Z"/><polygon class="cls-5" points="104.58 1564.12 365.07 1627.61 619.63 1482.86 557.59 1373.4 104.58 1564.12"/><path class="cls-6" d="M162.23,1563.4s4.33,140.68-4.87,145.55-26.51,4.33-30.84-5.41-3.79-130.94-3.79-130.94Z"/><path class="cls-5" d="M135.44,1604.1s-4.56,70.28,0,106.61c0,0-12.73,0-12-23.35.79-23.83-.77-83.26-.77-83.26Z"/><path class="cls-6" d="M373.14,1605.22s3.68,147.16-7.65,151.56-25.3,12.21-37.86-5,.78-146.23.78-146.23Z"/><path class="cls-5" d="M337.36,1647.59s-14.68,79,3.09,114.09c0,0-22.36-6-20.76-38.26,1.95-39.41,3.58-88.18,3.58-88.18Z"/><polygon class="cls-5" points="104.58 1564.12 104.58 1600.03 348.73 1666.34 348.73 1623.63 104.58 1564.12"/><g class="cls-7"><path class="cls-8" d="M477.74,1396.7s102.86,11.28,129,21.72,69.24,8.75,73.18,10.32,56.43,12.46,56.43,12.46l-68.14,35.39c-1.47-1.13-108.35-27.28-129.91-29.39-82.9-8.11-81.8-21-91.8-23.85s4.49-13.44,4.49-13.44Z"/><path class="cls-8" d="M392.26,1435.09s102.39,15,128.13,26.32,68.88,11.21,72.75,12.91,26.49,8.54,26.49,8.54l-47.11,44.73s-86.14-29.11-113.07-24.95c-25.49,3.94-133.58-35.18-143.46-38.36S365,1447.34,365,1447.34Z"/><path class="cls-8" d="M270,1468.11s100,22.18,126.14,32.67,72.41,18.2,76.35,19.77,56.41,12.57,56.41,12.57l-78.37,45.46s-79.14-26.89-106-31.26c-207.12-33.63-123.29-35.14-128.45-37.48-9.45-4.3,27.56-8.57,27.56-8.57Z"/><path class="cls-8" d="M153.77,1519.43s103.5,22.84,130.51,33.64,74.92,18.73,79,20.35,58.37,12.95,58.37,12.95L338,1639.78S257.06,1611,230.8,1600.84c-43.12-16.73-122.56-35.65-132.89-38.59s28.52-8.77,28.52-8.77Z"/></g><polygon class="cls-6" points="348.73 1666.34 619.63 1506.67 619.63 1482.86 348.73 1623.63 348.73 1666.34"/><polygon class="cls-5" points="1905 1601 1685.06 1678.14 1483.33 1553.38 1496.83 1474.65 1905 1601"/><path class="cls-6" d="M1891.41,1601.44s3.43,122.3-4.58,126.51-23.06,3.7-26.8-4.78-3-113.83-3-113.83Z"/><path class="cls-5" d="M1868.05,1628.9s-4.15,68.93-.28,100.53c0,0-11.06,0-10.34-20.34.74-20.7-.47-72.37-.47-72.37Z"/><path class="cls-6" d="M1717.85,1640.3s2,127.94-7.89,131.67-22.09,10.41-32.87-4.67,1.87-127.11,1.87-127.11Z"/><path class="cls-5" d="M1686.4,1676.83s-1.92,75.56,1.75,99.2c0,0-19.38-5.41-17.73-33.42,2-34.25,3.83-76.63,3.83-76.63Z"/><polygon class="cls-6" points="1905 1601 1905 1628.98 1698.61 1683.82 1699.47 1647.58 1905 1601"/><g class="cls-9"><path class="cls-8" d="M1645.12,1513.92s-117.46,10.45-138.76,22.48-19.82,15.17-23,17,12.26,16.4,12.26,16.4l7.35,16.82s67.86.38,89.82-8.51c55.61-22.5,144.69-34.93,153-38.53s-76-17.36-76-17.36Z"/><path class="cls-8" d="M1790.14,1550s-121.08,9.79-142.77,21.09-72.31,20.13-75.58,21.82-25.14,8.11-25.14,8.11l69.37,35.69s57.11-23.69,80-29.76c176.31-46.76,123.75-36,128-38.47,7.81-4.53-44.66-10-44.66-10Z"/><path class="cls-8" d="M1871.07,1576.4s-99.69,19.41-122.47,30.37c-21.83,10.49-54.62,6.63-66.6,24.34-2.13,3.16-59.5,6.45-59.5,6.45l77,10s57.59-13,81.47-18.43c61.17-13.9,121-26.91,129.67-30.33s-25.42-5.16-25.42-5.16Z"/></g><polygon class="cls-5" points="1698.61 1683.82 1483.33 1579.49 1483.33 1553.38 1699.47 1647.58 1698.61 1683.82"/><path class="cls-10" d="M1121.74,1799.2s74.39,33.29,122,7.15c40.7-22.33,44.91,17.08,81.43,14.46,21.46-1.55,35.2-11.37,35.2-11.37s-33.06,30.57-55.83,16.94-49.9-12.78-56.5-10.18C1198.29,1835.78,1150.07,1831,1121.74,1799.2Z"/><path class="cls-5" d="M778.22,98.59s-13.62,8.84-23.59,0c0,0,9.22-29.37,12.83-50.24C767.46,48.35,775.3,89.91,778.22,98.59Z"/><polygon class="cls-5" points="784.88 211.27 772.34 213.26 771.43 213.35 760.78 214.97 760.61 214.97 748.78 216.78 752.84 199.09 753.38 197.01 753.38 196.92 754.02 193.85 759.61 169.03 772.88 169.03 780.46 195.75 780.91 197.19 781.63 199.81 782.09 201.43 782.09 201.53 784.88 211.27"/><path class="cls-11" d="M547.15,1086c229.05,28.5,383.86,4.43,403.1,1.18h.52l-.09-.36-5-62.56v-.08l-1.61-19.41L925.5,769.33l-4.16-52.08L907.18,540.08l-2.44-32-1.8-21.48-.28-4-.53-6.23-57.32-.1h-5l-7.3-.08-89.23,3-9.87.64-72.93-4.17h-4.86l-55.43-.19-.63,7.14-.45,5.32L597.42,508l-.53,6.58-5,57.32L580.1,708l-2.26,25.54-1.71,20.39L554.83,999l-2.08,22.75-.53,6.76Z"/><polygon class="cls-12" points="637.77 296.92 637.86 297.82 637.86 298.09 638.15 300.08 638.62 303.6 638.71 304.5 638.9 305.94 638.9 306.03 639.09 307.75 639.19 308.29 639.56 312.35 640.6 322.28 640.7 323.27 640.79 323.54 641.17 327.06 641.36 329.14 652.22 431.13 652.22 431.21 652.4 433.83 652.4 433.92 655.05 472.82 655.33 477.25 655.33 477.88 655.8 484.19 656.18 488.8 661.18 488.71 693.95 488.26 735.58 487.71 735.77 487.71 752.49 487.53 796.48 486.9 852.47 486.18 852.66 484.19 852.75 483.29 853.23 477.88 853.79 472.82 857.66 433.11 857.66 433.02 857.95 429.86 857.95 429.59 867.86 330.04 868.05 327.97 868.42 324.17 869.46 313.07 869.84 309.01 870.22 305.49 870.22 305.22 871.26 295.38 872.58 281.67 872.96 277.69 872.96 277.6 873.34 273.99 869.84 274.36 867.76 274.54 867.67 274.54 866.92 274.63 851.9 276.07 848.69 276.43 831.23 278.14 764.47 284.55 754.56 285.55 748.52 286.18 747.01 286.27 747.01 286.36 745.12 286.54 744.74 286.54 743.51 286.63 729.82 288.07 682.71 292.59 682.62 292.59 666.94 294.12 660.9 294.66 653.54 295.38 645.61 296.2 637.77 296.92"/><polygon class="cls-3" points="866.37 275.51 859.88 283.95 841.55 434.05 841.28 437.32 837.76 477.04 848.19 479.38 847.71 484.76 847.64 485.67 847.5 487.67 669.59 490.27 669.31 485.67 668.9 479.38 668.62 474.31 666.21 435.37 666.07 432.59 653.68 305.08 653.27 301.57 653.06 299.58 652.99 299.33 652.92 298.43 673.92 296.19 679.36 295.59 693.62 294.07 693.68 294.07 748.28 288.21 749.87 288.03 758.89 287.06 863.2 275.88 866.37 275.51"/><polygon class="cls-13" points="662.55 756.51 625.5 754.41 625.54 736.66 661.61 736.7 662.55 756.51"/><polygon class="cls-13" points="791.38 829.87 733.82 829.87 729.45 851.73 791.38 846.52 791.38 829.87"/><polygon class="cls-13" points="707.6 852.24 619.57 852.24 612.89 879.92 707.6 873.33 707.6 852.24"/><polygon class="cls-13" points="670.19 925.24 609.49 925.24 604.88 947.6 670.19 942.27 670.19 925.24"/><polygon class="cls-13" points="753.87 799.66 661.33 799.66 661.33 829.87 753.87 822.68 753.87 799.66"/><polygon class="cls-13" points="909.98 871.19 859.55 871.19 855.72 892.1 909.98 887.12 909.98 871.19"/><polygon class="cls-13" points="896.26 792.9 820.89 792.9 815.17 821.61 896.26 814.77 896.26 792.9"/><path class="cls-14" d="M542.28,1142.61l4.87-56.59,5.08-57.49.55-6.76,20.77,1.18a3460.79,3460.79,0,0,0,372.16,1.33l1.58-.08,5,62.64.09.36h-1.6l2.52,32.67,1,12.81,5.86,73.3,2.89,36-118.95-1.9-58.4-1-37,41.55-19.74,34.7-22.15-30.62-70.06,1.87-48.25-21.43L534.26,1235Z"/><path class="cls-15" d="M599.32,482.59H902.66l.27,4L904.74,508s-136.13,22.21-307.09-2.58Z"/><polyline class="cls-10" points="762.86 482.59 769.35 312.54 855.28 322.3 837.7 475.48"/><polygon class="cls-12" points="677.65 312.65 694.82 477.42 705.2 477.42 694.97 316.68 677.65 312.65"/><rect class="cls-12" x="654.34" y="349.4" width="208.59" height="9.29"/><polygon class="cls-12" points="810.98 315.86 805.32 477.03 816.64 477.03 829.87 319.9 810.98 315.86"/><polygon class="cls-5" points="769.9 170.02 769.9 171.92 762.95 171.92 763.11 170.02 765.05 99.17 764.16 98.64 766.02 92.63 768.2 98.87 769.9 170.02"/><path class="cls-16" d="M780.74,198l-9.56-.72-.18-1.53-2.53-23.83L768.2,169h4.69s6.32,22.21,7.67,27.71C780.65,197.37,780.74,197.82,780.74,198Z"/><polygon class="cls-15" points="901.85 303.6 900.95 306.85 900.77 307.75 900.32 309.38 899.69 312 897.07 322.46 868.64 322.37 862.77 322.28 835.24 322.19 821.35 322.19 810.97 322.1 765.12 321.92 762.86 321.92 707.45 321.65 691.38 321.65 656.45 321.47 636.42 321.47 621.98 321.38 620.62 310.19 619.99 305.32 619.81 304.23 619.63 302.61 649.05 302.7 654.65 302.7 689.58 302.79 695.89 302.88 751.22 303.06 754.02 303.06 767.19 303.15 830.82 303.33 839.67 303.33 853.66 303.42 870.35 303.42 901.85 303.6"/><polygon class="cls-17" points="767.69 211.06 901.81 293.59 619.62 293.59 767.69 211.06"/><path class="cls-18" d="M754,264.52v38.92c32.54.7,68.71,2.09,106.81,4.64l-13.13-39.75C814.06,265.82,782.25,264.76,754,264.52Z"/><path class="cls-14" d="M604.11,304.91l12.72.36h.55l2.61.09,28.16.63h1.27l5.59.18,17.24.36,17.33.45,6.41.18,39.89,1H736l5.78.09,2.79.09h.18l6.14.18h.36l15.35.36,64,1.53h.09l9.38.18,23.74.54,5.86.19,30.06.72h1l13.72.27,7.4.27H922a1.15,1.15,0,0,0-.36-.54c-.18-.27-.45-.63-.81-1.18a6.87,6.87,0,0,1-.72-1c-1.9-2.62-5.24-6.86-9.75-12.36h-.09a1.24,1.24,0,0,1-.27-.36c-1.27-1.54-2.62-3.16-4-4.7-2.17-2.62-4.52-5.5-7.22-8.48l-.27-.27c-.18-.09-.27-.27-.37-.36-1.26-1.45-2.52-2.89-3.7-4.34-1.71-1.89-3.24-3.61-4.87-5.32-.54-.54-1-1.08-1.53-1.62-2-2.08-3.88-4.25-6-6.32-1.71-1.81-3.52-3.61-5.42-5.51-1.35-1.35-2.7-2.71-4.06-4-2.07-2.08-4.15-4.15-6.31-6.14s-4.34-4.15-6.59-6.13c-1.36-1.27-2.71-2.44-4.15-3.8h-.1l-.08-.08h-.19c-7.31-6.41-14.89-12.55-22.74-18.15-5.23-3.7-10.56-7.22-15.88-10.28a132.3,132.3,0,0,0-24.19-11.29l-.09-.09a2.63,2.63,0,0,0-.81-.18,2.7,2.7,0,0,0-.91-.27,68.55,68.55,0,0,0-6.68-2l-1-.27c-.63-.09-1.17-.27-1.89-.37h-.09a9.87,9.87,0,0,0-1.72-.36.33.33,0,0,1-.27-.09h-.09a74.7,74.7,0,0,0-8.66-.9,2.58,2.58,0,0,0-.82-.09c-.9-.09-1.8-.09-2.61-.09-1.27,0-2.44,0-3.7.09-2.62.18-5.42.45-8.22.9l-.72.18a2.29,2.29,0,0,0-.63.18,20.13,20.13,0,0,0-3.88.73,1.53,1.53,0,0,0-.63.09L744.27,199a137.45,137.45,0,0,0-21.66,8.39c-2.8,1.27-5.41,2.62-8,4.06-.09,0-.09,0-.18.09-2.71,1.36-5.51,2.89-8.3,4.61l-.27.18c-4.34,2.52-8.58,5.32-12.91,8.21a6.32,6.32,0,0,0-.81.54c-1.63,1.09-3.16,2.17-4.7,3.25h-.09a439,439,0,0,0-46.84,39c-.18.27-.36.36-.45.54l-.09.09h-.09c-.18.09-.18.09-.27.27-.54.55-1.17,1.09-1.63,1.63C617.47,289.2,604.11,304.91,604.11,304.91Z"/><path class="cls-19" d="M855.37,240.15c-.09,0-.09,0-.18-.09h.09Z"/><path class="cls-16" d="M589.33,471.22l.1.46-11.83-.42,2.17,11.37L734.42,490q21.38,1,42.76-.05l147-7.29L928,471.26l-16.93.62.15-.62,8.39-35.57H920l4.34-.16,3,.06,2-9.09-2.88-.05-78.9.19-5.24.14-2,0-11.56,0-1.09.21-16.88-.07-1.44,0L805,427l-7.67-.14-18.95-.11-10.47,0-23.74,0-4.69-.08H727.18l-4.88.14-13.72.21-8.4.08L689.35,427l-25.37.24-8.12.08-8.31-.15-67.52.18-11.28,0,1.78,6.19,8.94-.07.87,0,.51,2.2Zm268.56,2.62,1.12-.06.18-2.52L863,435.34h0l50.16.29-8.55,35.63-.3.87ZM785,435l-5.89-.24h.14l9.48.16,8.39-.08,7.58.14,4.7-.15,18.95.34,11.28,0,7.49.14,8.49,0-.17.76-5.14,35-.44,3.07-43.16,1.59q-11.73.43-23.47.66v-.17l1.46-33.65Zm-63.17-.57h.38l4.6.08h12.1l5,.09,23.83.19H768l9.89,0-1.09,7L771.69,475l-.24,1.62q-21.88.26-43.78-.17l-.32-2.35-4.75-33.84ZM633,434.06l3.41,0,4.42.08,6.86-.11,8.13.15,8.12-.09,25.36.22,10.92.2,11.92,0,1.57,0h0l.7,6.43L718,475.35l0,.84q-6.64-.17-13.3-.41l-65.55-2.33-.38-2.24-5.42-34.92Zm-46.76,1.69-.73-2.14,40.22.44.31,2.37L630,471.3l.13,1.83L599.05,472l-.25-.8Z"/><path class="cls-20" d="M542.28,1142.61l4.88-56.59,5.07-57.49.54-6.77,20.78,1.19c2.81.17,5.63.31,8.44.46l-3.09,66.29L572,1239.1l-37.7-4.07Z"/><path class="cls-15" d="M582,1023.41c-2.81-.15-5.63-.29-8.44-.46l-20.78-1.19-.54,6.77L547.16,1086l5.05-57.49.54-6.77L554.83,999l21.3-245.13,1.71-20.4L580.1,708l11.82-136,5-57.31.54-6.59,1.71-20.13.1-4.36,26.26,1.25Z"/><polygon class="cls-20" points="550 1038 621.47 1038 626.9 1068.81 550 1064.28 550 1038"/><polygon class="cls-20" points="617.61 1078.91 725.63 1078.91 733.83 1106.22 617.61 1101.25 617.61 1078.91"/><polygon class="cls-20" points="631.03 1143.55 679.74 1143.55 683.44 1160.99 631.03 1157.9 631.03 1143.55"/><polygon class="cls-20" points="654.28 1157.56 728.78 1157.56 734.43 1179.46 654.28 1176.04 654.28 1157.56"/><polygon class="cls-20" points="693.28 1062.56 768.66 1062.56 774.39 1086.62 693.28 1083.16 693.28 1062.56"/><polygon class="cls-20" points="573.14 1107.13 621.8 1107.13 625.5 1130.43 573.14 1126.96 573.14 1107.13"/><polygon class="cls-20" points="840.01 1057.02 840.01 1081.63 951.69 1079.58 946.97 1024.95 878.98 1034.58 878.98 1058.21 840.01 1057.02"/><polygon class="cls-15" points="1041.24 950.53 1041.24 1518.4 907.97 1476.92 865.49 986.72 1041.24 950.53"/><path class="cls-11" d="M1041.24,1518.4l449.22-42.22,4.07-457.66S1372.87,714.1,1329.28,618.46l-57,12.24-231,319.83Z"/><path class="cls-14" d="M963.69,1040.44,635,1106s61.9-133.57,86.82-207.1c0,0,411.14-165.63,597.74-305.09L1161.12,855.79l-131.27,155.14-34.32,21.73-8.26,5.84-23.58,1.94Z"/><polyline class="cls-11" points="1710.93 1319.63 1714.41 1540.36 1483.33 1553.38 1483.33 1301.68 1631.96 1068.43 1648.23 1068.43 1710.93 1319.63 1710.93 1319.63"/><polygon class="cls-15" points="1483.33 1321.07 1483.33 1579.49 1208 1503.03 1208 1289.47 1483.33 1321.07"/><path class="cls-15" d="M619.63,1170v312.89L357.22,1456.5V1165.31L457,908.25S630.34,1146.74,619.63,1170Z"/><polygon class="cls-11" points="907.97 1476.92 619.63 1506.67 619.63 1169.97 912.28 1186.6 907.97 1476.92"/><polygon class="cls-20" points="1021.17 1042.39 831.86 1081.45 849.05 1056.6 985.37 1032.16 1021.17 1042.39"/><path class="cls-21" d="M788.11,743.86a7.87,7.87,0,0,1-4.24-7c-.2-22.11-.27-114.68,10.93-132.56,12.76-20.35,32-50.18,41.64-44.51,9.21,5.46,30.65,41.71,29,91.4a845.5,845.5,0,0,0,1.5,87.72l-75.43,7.65Z"/><path class="cls-15" d="M791.52,746.59s-2.19-122.13,10.58-142.47,24.1-48.81,34.34-44.3,37.95,41.5,36.31,91.2c-1.23,36.86-.27,67,.27,80.21a7.54,7.54,0,0,1-6.75,7.78Z"/><path class="cls-22" d="M806.06,733.48S804.76,631,813,617.3s15.57-33,22.12-29.9,24.44,28,23.41,61.57.41,80.28.41,80.28Z"/><path class="cls-21" d="M836.78,586.17c-3-.41-6.9,1.36-10.24,6.89-.89,33.32-2.25,117.35.07,138.92l11.33-.89C837.46,708.29,835.75,614.7,836.78,586.17Z"/><path class="cls-15" d="M832,581.6s-4.3,140.68,0,154.68h10.72s-3.49-148.68-1-157.14Z"/><path class="cls-15" d="M799.23,658.66s48.54,2,67.72-4.84l-2.53,14.67s-64.44,10.72-65.26,3.76Z"/><path class="cls-21" d="M1144.39,1217.19a8.52,8.52,0,0,1-4.59-7.56c-.23-24-.3-124.51,11.85-143.93,13.86-22.09,34.76-54.48,45.22-48.32,10,5.93,33.27,45.28,31.49,99.24a919.4,919.4,0,0,0,1.64,95.24l-81.9,8.3Z"/><path class="cls-15" d="M1148.1,1220.16s-2.38-132.6,11.48-154.68,26.17-53,37.29-48.1,41.2,45.06,39.43,99c-1.34,40-.3,72.78.29,87.08a8.19,8.19,0,0,1-7.34,8.45Z"/><path class="cls-22" d="M1163.88,1205.93s-1.41-111.25,7.56-126.15,16.9-35.8,24-32.46,26.53,30.39,25.42,66.85.44,87.16.44,87.16Z"/><path class="cls-21" d="M1197.24,1046c-3.27-.44-7.49,1.49-11.12,7.49-1,36.17-2.45,127.41.07,150.83l12.31-1C1198,1178.58,1196.12,1077,1197.24,1046Z"/><path class="cls-15" d="M1192.05,1041s-4.67,152.75,0,168h11.63s-3.78-161.43-1-170.62Z"/><path class="cls-15" d="M1156.47,1124.7s52.7,2.15,73.53-5.27l-2.75,15.94s-70,11.64-70.85,4.08Z"/><path class="cls-21" d="M1341,1205.4a8.35,8.35,0,0,1-4.49-7.39c-.21-23.47-.29-121.69,11.59-140.67,13.55-21.59,34-53.25,44.19-47.23,9.78,5.79,32.52,44.26,30.79,97a897.51,897.51,0,0,0,1.59,93.08l-80,8.12Z"/><path class="cls-15" d="M1344.63,1208.3s-2.32-129.59,11.22-151.18,25.57-51.79,36.44-47,40.27,44,38.54,96.77c-1.31,39.12-.29,71.14.29,85.12a8,8,0,0,1-7.18,8.26Z"/><path class="cls-22" d="M1360.05,1194.39s-1.37-108.73,7.39-123.29,16.52-35,23.47-31.73,25.94,29.7,24.85,65.34.43,85.19.43,85.19Z"/><path class="cls-21" d="M1392.65,1038.07c-3.19-.44-7.31,1.45-10.86,7.31-1,35.35-2.39,124.52.07,147.41l12-.94C1393.38,1167.66,1391.57,1068.35,1392.65,1038.07Z"/><path class="cls-15" d="M1387.58,1033.21s-4.56,149.3,0,164.15H1399s-3.69-157.77-1-166.75Z"/><path class="cls-15" d="M1352.81,1115s51.5,2.1,71.86-5.15l-2.68,15.58s-68.38,11.37-69.25,4Z"/><path class="cls-21" d="M679.67,1332.76a7.25,7.25,0,0,1-3.9-6.42c-.19-20.39-.26-105.75,10.07-122.24,11.77-18.75,29.52-46.26,38.39-41,8.5,5,28.26,38.46,26.75,84.29a779,779,0,0,0,1.39,80.88l-69.55,7Z"/><path class="cls-15" d="M682.82,1335.28s-2-112.61,9.75-131.37,22.22-45,31.66-40.85,35,38.27,33.49,84.1c-1.13,34-.25,61.81.25,74a7,7,0,0,1-6.23,7.17Z"/><path class="cls-22" d="M696.22,1323.19s-1.19-94.48,6.42-107.13,14.35-30.4,20.4-27.57,22.53,25.81,21.59,56.78.37,74,.37,74Z"/><path class="cls-21" d="M724.55,1187.36c-2.77-.38-6.36,1.26-9.44,6.36-.82,30.71-2.08,108.2.06,128.09l10.45-.82C725.18,1300,723.6,1213.67,724.55,1187.36Z"/><path class="cls-15" d="M720.14,1183.14s-4,129.73,0,142.63H730s-3.21-137.09-.88-144.89Z"/><path class="cls-15" d="M689.93,1254.21s44.75,1.82,62.44-4.47L750,1263.27s-59.42,9.88-60.17,3.46Z"/><path class="cls-21" d="M788.57,1323.22a7.25,7.25,0,0,1-3.9-6.42c-.19-20.39-.25-105.74,10.07-122.23,11.77-18.76,29.52-46.27,38.39-41,8.5,5,28.27,38.46,26.75,84.28a779,779,0,0,0,1.39,80.88l-69.55,7Z"/><path class="cls-15" d="M791.72,1325.74s-2-112.6,9.75-131.36,22.22-45,31.66-40.85,35,38.27,33.49,84.09c-1.13,34-.25,61.81.25,74a7,7,0,0,1-6.23,7.17Z"/><path class="cls-22" d="M805.12,1313.66s-1.19-94.48,6.42-107.13,14.35-30.41,20.4-27.57,22.53,25.8,21.59,56.77.37,74,.37,74Z"/><path class="cls-21" d="M833.45,1177.82c-2.77-.37-6.36,1.26-9.44,6.36-.82,30.72-2.08,108.2.06,128.09l10.45-.82C834.08,1290.43,832.5,1204.13,833.45,1177.82Z"/><path class="cls-15" d="M829,1173.61s-4,129.72,0,142.63h9.88s-3.21-137.09-.88-144.9Z"/><path class="cls-15" d="M798.83,1244.67s44.75,1.83,62.44-4.47l-2.33,13.53s-59.42,9.89-60.17,3.47Z"/><path class="cls-15" d="M1021.17,1042.39s20.72,13.3,37-4.39c200.33-218.17,251.67-328,251.67-328s67.7,196.39,149.42,283.19c0,0,16,25.88,35.31,25.36l-130.43-262-46.31-118Z"/><polygon class="cls-15" points="1541.55 1350.24 1573.07 1348.77 1579.07 1348.49 1580.4 1348.43 1585.88 1348.17 1586.72 1344.89 1524.04 1348.78 1526.05 1550.97 1543.53 1549.98 1541.55 1350.24"/><polygon class="cls-5" points="1657.86 1340.47 1658.05 1344.82 1658.73 1344.78 1666.33 1344.43 1662.59 1335.21 1588.57 1337.66 1586.72 1344.89 1657.86 1340.47"/><path class="cls-16" d="M1673.1,1348.4,1672,1449.71q-.27,25.57,1.32,51.1l2.61,41.71,7.87-.44L1675.45,1344l-9.12.43,1,2.53Z"/><polygon class="cls-16" points="1549.37 1503.74 1551.73 1424.33 1549.37 1374.35 1573.07 1348.77 1541.55 1350.24 1543.53 1549.98 1550.89 1549.57 1549.37 1503.74"/><polygon class="cls-16" points="1634.08 1544.88 1642.97 1544.38 1641.13 1422.91 1640.1 1354.87 1631.2 1356.4 1634.08 1457.76 1634.08 1544.88"/><polygon class="cls-16" points="1595 1462.57 1596.25 1362.42 1587.84 1363.87 1589.05 1440.22 1590.74 1547.32 1596.88 1546.98 1595 1462.57"/><polygon class="cls-5" points="1551.73 1424.33 1549.37 1503.74 1550.89 1549.57 1559.61 1549.08 1557.67 1465.49 1557.87 1372.74 1579.09 1349.84 1579.07 1348.49 1573.07 1348.77 1549.37 1374.35 1551.73 1424.33"/><polygon class="cls-8" points="1582.22 1547.8 1590.74 1547.32 1589.05 1440.22 1587.84 1363.87 1581.59 1364.94 1585.88 1348.17 1580.4 1348.43 1579.09 1349.84 1582.22 1547.8"/><polygon class="cls-8" points="1579.09 1349.84 1557.87 1372.74 1557.67 1465.49 1559.61 1549.08 1582.22 1547.8 1579.09 1349.84"/><polygon class="cls-5" points="1596.88 1546.98 1602.99 1546.63 1601.83 1428.55 1601.17 1361.57 1596.25 1362.42 1595 1462.57 1596.88 1546.98"/><polygon class="cls-8" points="1634.08 1544.88 1634.08 1457.76 1631.2 1356.4 1624.98 1357.47 1627.96 1545.23 1634.08 1544.88"/><polygon class="cls-8" points="1602.99 1546.63 1627.96 1545.23 1624.98 1357.47 1601.17 1361.57 1601.83 1428.55 1602.99 1546.63"/><polygon class="cls-5" points="1642.97 1544.38 1648.37 1544.08 1646.33 1409.42 1645.49 1353.94 1640.1 1354.87 1641.13 1422.91 1642.97 1544.38"/><path class="cls-8" d="M1665.6,1350.47l2.13.54,3,191.8,5.2-.29-2.61-41.71q-1.59-25.51-1.32-51.1l1.06-101.31-5.75-1.44,1.22,3Z"/><polygon class="cls-8" points="1665.6 1350.47 1658.34 1351.72 1666.44 1543.06 1670.77 1542.82 1667.73 1351.01 1665.6 1350.47"/><polygon class="cls-8" points="1645.49 1353.94 1646.33 1409.42 1648.37 1544.08 1666.44 1543.06 1658.34 1351.72 1645.49 1353.94"/><polygon class="cls-23" points="537.12 1011.01 478.76 1009.61 481.22 1027.7 539.6 1030.06 537.12 1011.01"/><polygon class="cls-23" points="507.49 1033.57 449.12 1032.16 451.58 1050.26 509.96 1052.62 507.49 1033.57"/><path class="cls-21" d="M1235.2,972.11c8.65,16.92,51.12,23.31,78.18,15.79,20.5-5.69,19-56.45,17.07-80.75a55,55,0,0,0-21.27-39.66c-26.24-19.85-63.33-11.06-74,7.65C1224.67,893.64,1226.56,955.2,1235.2,972.11Zm12.26-83.64c7.71-13.56,34.6-19.93,53.63-5.54a39.9,39.9,0,0,1,15.41,28.75c1.41,17.61,2.49,54.41-12.37,58.54-19.62,5.45-50.41.81-56.67-11.45S1239.82,901.88,1247.46,888.47Z"/><path class="cls-22" d="M1306.85,879.46a39.93,39.93,0,0,1,15.42,28.76c1.4,17.61,2.48,54.4-12.38,58.53-19.62,5.45-50.41.82-56.67-11.44s-7.64-56.89,0-70.3S1287.82,865.07,1306.85,879.46Z"/><polygon class="cls-21" points="1273.82 915.67 1274.7 865.83 1279.75 867.47 1278.89 915.97 1273.82 915.67"/><polygon class="cls-21" points="1327.97 918.95 1325.43 930.37 1293.34 928.67 1293.64 916.87 1327.97 918.95"/><polygon class="cls-21" points="1240.17 925.86 1244.53 913.89 1273.82 915.67 1273.68 923.54 1278.75 923.8 1278.67 927.89 1277.9 971.82 1287.13 973.54 1287.11 974.48 1272.82 971.82 1273.61 927.63 1240.17 925.86"/><path class="cls-21" d="M1240.78,972.11c8.37,16.92,49.5,23.31,75.7,15.79,19.84-5.69,18.4-56.45,16.52-80.75-1.2-15.61-8.49-30.21-20.59-39.66-25.41-19.85-61.32-11.06-71.63,7.65C1230.59,893.64,1232.41,955.2,1240.78,972.11Zm11.87-83.64c7.47-13.56,33.5-19.93,51.92-5.54a40.26,40.26,0,0,1,14.93,28.75c1.36,17.61,2.4,54.41-12,58.54-19,5.45-48.8.81-54.87-11.45S1245.26,901.88,1252.65,888.47Z"/><path class="cls-15" d="M1241,968.65c8.65,16.91,51.12,23.3,78.19,15.79,20.49-5.7,19-56.46,17.07-80.75A55.08,55.08,0,0,0,1315,864c-26.25-19.85-63.34-11.06-74,7.65C1230.43,890.17,1232.32,951.73,1241,968.65ZM1253.22,885c7.72-13.56,34.6-19.94,53.63-5.55a39.93,39.93,0,0,1,15.42,28.76c1.4,17.61,2.48,54.4-12.38,58.53-19.62,5.45-50.41.82-56.67-11.44S1245.58,898.42,1253.22,885Z"/><path class="cls-15" d="M1240.31,921.77l4.36-12,29.61,1.79a4.48,4.48,0,0,0,4.76-4.4l.71-39.74,0-1.63,15,4.88-1.07,42.07,34.38,2.08-2.54,11.42-28-1.48a4,4,0,0,0-4.19,3.87h0l-1.16,45.81-5-.94-9.23-1.72.78-43.93h0a4.24,4.24,0,0,0-4-4.3l-1-.05Z"/><path class="cls-21" d="M1584.7,1272.91c5.16,10.1,30.51,13.91,46.67,9.43,12.23-3.4,11.34-33.7,10.19-48.2a32.85,32.85,0,0,0-12.7-23.68c-15.67-11.85-37.81-6.6-44.16,4.56S1579.54,1262.82,1584.7,1272.91ZM1592,1223c4.61-8.1,20.66-11.9,32-3.31a23.81,23.81,0,0,1,9.2,17.16c.84,10.51,1.48,32.48-7.39,34.94-11.71,3.25-30.09.49-33.83-6.83S1587.46,1231,1592,1223Z"/><path class="cls-22" d="M1627.47,1217.61a23.85,23.85,0,0,1,9.2,17.16c.84,10.51,1.48,32.48-7.39,34.94-11.71,3.25-30.09.49-33.83-6.83s-4.55-34,0-42S1616.11,1209,1627.47,1217.61Z"/><polygon class="cls-21" points="1607.75 1239.22 1608.28 1209.47 1611.29 1210.45 1610.78 1239.4 1607.75 1239.22"/><polygon class="cls-21" points="1640.08 1241.18 1638.56 1247.99 1619.4 1246.98 1619.58 1239.93 1640.08 1241.18"/><polygon class="cls-21" points="1587.66 1245.3 1590.27 1238.16 1607.75 1239.22 1607.67 1243.92 1610.69 1244.08 1610.65 1246.52 1610.18 1272.74 1615.7 1273.77 1615.68 1274.33 1607.15 1272.74 1607.62 1246.36 1587.66 1245.3"/><path class="cls-21" d="M1588,1272.91c5,10.1,29.54,13.91,45.19,9.43,11.84-3.4,11-33.7,9.86-48.2a33.18,33.18,0,0,0-12.29-23.68c-15.17-11.85-36.61-6.6-42.76,4.56S1583,1262.82,1588,1272.91Zm7.08-49.92c4.46-8.1,20-11.9,31-3.31a24,24,0,0,1,8.91,17.16c.81,10.51,1.43,32.48-7.15,34.94-11.34,3.25-29.13.49-32.76-6.83S1590.7,1231,1595.11,1223Z"/><path class="cls-15" d="M1588.14,1270.84c5.16,10.1,30.51,13.92,46.67,9.43,12.23-3.4,11.34-33.7,10.19-48.2a32.85,32.85,0,0,0-12.7-23.68c-15.67-11.85-37.81-6.6-44.16,4.57S1583,1260.75,1588.14,1270.84Zm7.31-49.92c4.61-8.1,20.66-11.9,32-3.31a23.85,23.85,0,0,1,9.2,17.16c.84,10.51,1.48,32.48-7.39,34.94-11.71,3.25-30.09.49-33.83-6.83S1590.9,1228.92,1595.45,1220.92Z"/><path class="cls-15" d="M1587.75,1242.86l2.6-7.14,17.68,1.07a2.68,2.68,0,0,0,2.84-2.63l.42-23.71,0-1,9,2.91-.64,25.12,20.52,1.24-1.51,6.82-16.75-.89a2.38,2.38,0,0,0-2.5,2.31h0l-.69,27.35-3-.57-5.52-1,.47-26.22h0a2.53,2.53,0,0,0-2.39-2.57l-.59,0Z"/><path class="cls-24" d="M1525.1,1017.71l-30.57.81s-167.76-240-179.93-358l13.05-21.94S1388.32,865.08,1525.1,1017.71Z"/><path class="cls-25" d="M1567.14,1002.25s-134-125.62-218.61-400.7l-29-7.7s-157.83,244.63-334.14,438.31h0a54.56,54.56,0,0,0,31.8,10.23h4s222.63-231.8,306.48-403.85c0,0,47.19,228.46,197.45,379.17l9.86-1.07a57.4,57.4,0,0,0,32.18-14.39Z"/><polygon class="cls-5" points="1587.59 1348.1 1596.43 1347.68 1601.03 1347.47 1624.81 1346.36 1630.91 1346.08 1639.96 1345.66 1645.36 1345.4 1645.48 1345.4 1658.05 1344.82 1657.86 1340.47 1586.72 1344.89 1585.88 1348.17 1587.59 1348.1"/><path class="cls-15" d="M1473.32,1362.42s82.33-106,151.49-232.14c0,0,31.16,159.2,86.12,189.35v-30.15l-74.78-218.29-174.5,266.91Z"/><polygon class="cls-16" points="1580.4 1348.43 1579.07 1348.49 1579.09 1349.84 1580.4 1348.43"/><polygon class="cls-16" points="1667.35 1346.95 1666.33 1344.43 1658.73 1344.78 1667.35 1346.95"/><polygon class="cls-16" points="1596.25 1362.42 1596.43 1347.68 1587.59 1348.1 1587.84 1363.87 1596.25 1362.42"/><polygon class="cls-16" points="1640.1 1354.87 1639.96 1345.66 1630.91 1346.08 1631.2 1356.4 1640.1 1354.87"/><polygon class="cls-8" points="1587.84 1363.87 1587.59 1348.1 1585.88 1348.17 1581.59 1364.94 1587.84 1363.87"/><polygon class="cls-5" points="1601.17 1361.57 1601.03 1347.47 1596.43 1347.68 1596.25 1362.42 1601.17 1361.57"/><polygon class="cls-8" points="1631.2 1356.4 1630.91 1346.08 1624.81 1346.36 1624.98 1357.47 1631.2 1356.4"/><polygon class="cls-8" points="1624.98 1357.47 1624.81 1346.36 1601.03 1347.47 1601.17 1361.57 1624.98 1357.47"/><polygon class="cls-5" points="1645.49 1353.94 1645.36 1345.4 1639.96 1345.66 1640.1 1354.87 1645.49 1353.94"/><polygon class="cls-8" points="1665.6 1350.47 1668.57 1349.96 1667.35 1346.95 1658.73 1344.78 1658.05 1344.82 1658.21 1348.61 1665.6 1350.47"/><polygon class="cls-8" points="1658.05 1344.82 1645.48 1345.4 1658.21 1348.61 1658.05 1344.82"/><polygon class="cls-8" points="1658.21 1348.61 1658.34 1351.72 1665.6 1350.47 1658.21 1348.61"/><polygon class="cls-8" points="1658.34 1351.72 1658.21 1348.61 1645.48 1345.4 1645.36 1345.4 1645.49 1353.94 1658.34 1351.72"/><polygon class="cls-25" points="1692.31 1326.63 1727.75 1394.85 1557.03 1395.52 1504.11 1326.63 1692.31 1326.63"/><path class="cls-14" d="M1727.75,1394.84h0a19.09,19.09,0,0,1-17.53,12.36l-150.89,2.61-4-8.75,1.67-6.22Z"/><path class="cls-20" d="M1559.33,1409.81l-51.75-68.75-3.47-14.43,55.22,68.21h0a18.26,18.26,0,0,0,0,15Z"/><polygon class="cls-13" points="1244.42 1235.69 1169.98 1242.13 1172.08 1266.43 1246.03 1254.2 1244.42 1235.69"/><polygon class="cls-13" points="1171.64 1410.97 1113.39 1416.01 1115.04 1435.02 1172.89 1425.46 1171.64 1410.97"/><polygon class="cls-13" points="1130.29 1388.6 1072.23 1395.82 1073.88 1414.83 1129.27 1408.38 1130.29 1388.6"/><polygon class="cls-13" points="1327.02 1063.64 1275.74 1068.08 1277.19 1084.81 1328.12 1076.4 1327.02 1063.64"/><polygon class="cls-13" points="1304.83 1088.68 1253.56 1093.12 1255.01 1109.85 1305.93 1101.44 1304.83 1088.68"/><path class="cls-15" d="M656.68,1218.06s-24.44,5.17-47.13-38.6l8.06-12.17Z"/><path class="cls-21" d="M513.81,1092.65c-8.52-15.46-38.83-23.07-60.57-7.09a45.11,45.11,0,0,0-17.87,32.28c-1.86,19.9-3.65,61.49,13.09,66.39,22.11,6.46,57,1.69,64.28-12.08S522.24,1107.93,513.81,1092.65Zm-11,68.43c-5.28,10-30.57,13.44-46.59,8.75-12.14-3.55-10.84-33.7-9.5-48.12a32.72,32.72,0,0,1,13-23.4c15.76-11.59,37.73-6.07,43.91,5.14S508.11,1151.1,502.84,1161.08Z"/><path class="cls-22" d="M455,1095.4a32.71,32.71,0,0,0-13,23.4c-1.35,14.43-2.64,44.58,9.49,48.13,16,4.68,41.32,1.23,46.59-8.76s6.89-46.55.78-57.63S470.78,1083.82,455,1095.4Z"/><polygon class="cls-21" points="481.7 1125.45 481.53 1084.58 477.38 1085.87 477.54 1125.64 481.7 1125.45"/><polygon class="cls-21" points="437.27 1127.54 439.23 1136.93 465.55 1135.89 465.44 1126.21 437.27 1127.54"/><polygon class="cls-21" points="509.18 1134.17 505.74 1124.32 481.7 1125.45 481.73 1131.9 477.57 1132.07 477.58 1135.42 477.74 1171.44 470.15 1172.75 470.16 1173.52 481.9 1171.5 481.74 1135.25 509.18 1134.17"/><path class="cls-21" d="M509.23,1092.59c-8.24-15.45-37.58-23.06-58.63-7.07-10,7.61-16.17,19.5-17.33,32.29-1.8,19.9-3.55,61.5,12.66,66.38,21.4,6.46,55.18,1.67,62.23-12.1S517.39,1107.87,509.23,1092.59ZM498.58,1161c-5.11,10-29.6,13.45-45.11,8.77-11.75-3.54-10.48-33.69-9.17-48.11a33,33,0,0,1,12.55-23.41c15.26-11.59,36.53-6.08,42.51,5.12S503.69,1151,498.58,1161Z"/><path class="cls-26" d="M509.13,1089.74c-8.53-15.45-38.83-23.07-60.57-7.09a45.13,45.13,0,0,0-17.88,32.29c-1.85,19.89-3.64,61.49,13.1,66.38,22.1,6.47,57,1.7,64.27-12.07S517.56,1105,509.13,1089.74Zm-11,68.43c-5.27,10-30.56,13.44-46.59,8.76-12.13-3.55-10.84-33.7-9.49-48.13a32.71,32.71,0,0,1,13-23.4c15.75-11.58,37.72-6.06,43.9,5.14S503.43,1148.19,498.15,1158.17Z"/><path class="cls-26" d="M509.11,1130.82l-3.45-9.85-24.29,1.14a3.69,3.69,0,0,1-3.86-3.66l-.13-32.58v-1.35L465,1088.36l.41,34.5-28.2,1.33,1.95,9.39,23-.91a3.26,3.26,0,0,1,3.39,3.22h0l.45,37.57,4.15-.71,7.59-1.31-.15-36h0a3.47,3.47,0,0,1,3.33-3.49l.81,0Z"/><polygon class="cls-13" points="725.55 1414.06 651.11 1420.5 653.21 1444.8 727.15 1432.58 725.55 1414.06"/><polygon class="cls-13" points="702.03 1434.03 764.11 1428.66 765.86 1448.93 703.37 1449.47 702.03 1434.03"/><polygon class="cls-13" points="826.46 1376.4 888.49 1370.5 890.41 1390.74 827.92 1391.83 826.46 1376.4"/><polygon class="cls-13" points="832.77 1371.78 795.67 1370.75 795.2 1353.01 831.25 1352.01 832.77 1371.78"/><path class="cls-20" d="M1439.94,1377.62l-302-17.22a11.72,11.72,0,0,1-4.42-1.15h0a14.54,14.54,0,0,1-8.21-13.09h0l294,10.85Z"/><path class="cls-14" d="M1624.37,1058.5s2.71,85.11-205,298.51l-294-10.85s153-159.48,194.19-211.55C1319.51,1134.61,1423.66,1133.19,1624.37,1058.5Z"/><path class="cls-25" d="M1419.32,1357h0a27.26,27.26,0,0,0,13.36,16.72l7.26,3.89s143.35-179.8,197.06-295.34c0,0,6,142.06,92.6,245.44l4.53,1.47a44.14,44.14,0,0,0,34.53-3.1h0s-48.82-28.37-116.36-267.59h-27.93S1549.24,1207.29,1419.32,1357Z"/><path class="cls-20" d="M1034.45,801.55s-38.27,66.24-117.68,109.33c0,0,38.82-15.77,47.23-22.63s59.14-58.53,63.57-68.84S1034.45,801.55,1034.45,801.55Z"/><path class="cls-24" d="M1729.6,1327.72l-18.67-8.09s-72.32-114.63-80.66-223.45l6.73-13.9S1661.61,1232,1729.6,1327.72Z"/><polygon class="cls-23" points="495.32 1214.14 551.72 1217.11 546.75 1198.01 491.9 1200.06 495.32 1214.14"/><polygon class="cls-23" points="530.91 1229.68 587.3 1232.65 582.33 1213.55 527.48 1215.6 530.91 1229.68"/><polygon class="cls-23" points="1379.32 1485.53 1441.61 1500.24 1439.92 1477.94 1378.35 1469.13 1379.32 1485.53"/><polygon class="cls-23" points="1347.69 1499.88 1409.98 1514.58 1408.29 1492.28 1346.72 1483.48 1347.69 1499.88"/><polygon class="cls-23" points="1251.84 1404.64 1294.71 1414.76 1293.55 1399.41 1251.17 1393.35 1251.84 1404.64"/><polygon class="cls-23" points="920.48 1324.43 984.38 1327.79 978.75 1306.15 916.59 1308.46 920.48 1324.43"/><polygon class="cls-23" points="955.35 1368.54 1019.26 1371.9 1013.63 1350.26 951.47 1352.57 955.35 1368.54"/><polygon class="cls-26" points="550.85 1247.9 550.86 1251.73 423.39 1243.59 417 1459.12 551.48 1474.5 551.48 1477.16 566.65 1476.24 566.07 1252.86 550.85 1247.9"/><polygon class="cls-16" points="408.19 1243.07 401.71 1461.79 551.48 1477.16 550.85 1247.9 408.19 1243.07"/><g class="cls-27"><polygon class="cls-5" points="543.18 1480.55 544.59 1411.43 541.01 1326.92 541.51 1247.58 510.89 1240.06 510.16 1475.66 543.18 1480.55"/><polygon class="cls-8" points="534.11 1478.96 535.24 1370.82 533.4 1247.08 501.82 1238.46 501.49 1344.34 501.09 1474.06 534.11 1478.96"/><polygon class="cls-5" points="494.43 1476.13 495.46 1368.22 492.17 1238.09 462.19 1230.76 461.44 1470.73 494.43 1476.13"/><polygon class="cls-8" points="487.88 1475.96 487.48 1335.29 487.21 1243.2 455.59 1235.47 453.54 1366.83 454.86 1471.07 487.88 1475.96"/><polygon class="cls-5" points="445.47 1469.89 445.81 1330.38 446.03 1239.81 416.51 1254.19 415.85 1465.5 445.47 1469.89"/><path class="cls-8" d="M442.31,1469.37l-2.23-157,.18-72.44-29.58-.61,2.58,116.29q.63,27.23-.72,54.43l-2.72,55.3Z"/></g><path class="cls-28" d="M886.81,1504.29c-8.3-12.74-12.23-28.84-.29-46.26,0,0,9.44-17.68,38.72-21,0,0,12.56-72.15,74.45-60.15,85.24,16.49,53.75,109.44,53.75,109.44s15.48-44.92,62-7.09c25.5,20.68,6.65,36.46-15.64,46.48a136.17,136.17,0,0,1-62.27,11.64l-100-4.52A63.83,63.83,0,0,1,886.81,1504.29Z"/><g class="cls-29"><path class="cls-30" d="M1084.43,1531.65s26.75-22.78,16.18-39.87c-9.73-15.68-26-6.77-39.83,3.43-7.79,5.76-20.78,1.73-20.94-8-.77-41.08-47.72-81-108.67-31.48-11,8.92-6.84-21-3.13-28.35,13.34-26.72-48-49.49,7.32-54.79,82.44-7.9,157.89,14.61,158.43,17s61.4,86.08,61.4,86.08L1136.28,1550Z"/></g><path class="cls-28" d="M773.79,1487.66c-6.35-12.42-8.39-27.51,4.19-42.26,0,0,10.31-15.24,37.36-15.42,0,0,18.39-64.66,73.75-47.77,76.25,23.25,38.57,105.09,38.57,105.09s-31.57-9.79,7.3,29.21c21.3,21.33,52.58,4.21,31.27,11.22-18.7,6.06-9.31.73-28.7,5.15L854,1531C807.17,1533.43,782.4,1504.44,773.79,1487.66Z"/><path class="cls-10" d="M767.79,1727.33s89.47-11.42,175.12,49.6,195.93,90.48,215,84.77c0,0-36.93-6.55-47.55-18-16.82-18.22-33.9-20.33-44.34-19.52-4.24.32-27.14-7.94-27.89-12.7s-5-18.89-18.56-15.46-56.06-23.14-56.06-23.14-33.07-31.21-58.9-37.53S838.43,1708,767.79,1727.33Z"/><path class="cls-20" d="M1378.19,1186.31s-105.4,118-127.17,130.58c0,0,54.42-38.59,68.3-55.63S1378.19,1186.31,1378.19,1186.31Z"/><path class="cls-20" d="M1477,1143.46s-71.87,137.88-111,162c0,0,23.32-7.89,36-23.27s65.07-95.42,69.29-115.57S1477,1143.46,1477,1143.46Z"/><path class="cls-20" d="M1116.61,733.75s-49.93,131.13-181.14,232.39c0,0,65.7-39.91,78.91-54.78s90-123.29,95-143.26S1116.61,733.75,1116.61,733.75Z"/><path class="cls-20" d="M1445.82,1210.05s-60.63,28.24-83.08,28.62c0,0,28.58,1.62,48.92-5.85s31-15,31-15Z"/><path class="cls-20" d="M1507.14,1157.56s-60.65,28.2-83.1,28.57c0,0,28.58,1.64,48.92-5.82s31-14.94,31-14.94Z"/><path class="cls-20" d="M1344.68,1268.67s-57.64,10.85-76.79,6.31c0,0,23.93,7.57,42.83,5.63s29.59-6,29.59-6Z"/><path class="cls-25" d="M472.25,898.94S509.1,1022.32,680,1202.33l291.3-15.73s-153-159.48-194.2-211.55C777.1,975.05,673,973.63,472.25,898.94Z"/><path class="cls-20" d="M677.29,1197.45l1.79,14.73-22.4,5.88s-143.36-179.8-197.06-295.34c0,0-16.29,98.13-125.17,247.81l-12.2,2.13a23.88,23.88,0,0,1-19.38-5c-2-1.68-3.23-3.31-2.51-4.29,17.39-23.58,77.86-110.63,144-264.44h27.94S547.37,1047.73,677.29,1197.45Z"/><path class="cls-14" d="M656.68,1218.06l302.87-17.27a7.19,7.19,0,0,0,2.73-.73h0a16.4,16.4,0,0,0,9-13.46h0l-294,10.85h0a28.63,28.63,0,0,1-17.12,19.23Z"/><path class="cls-24" d="M334.45,1170.53l22.77-5.22S446,1035.22,467.7,939.3l-8.08-16.58S427.08,1032.16,334.45,1170.53Z"/><path class="cls-14" d="M578.82,961.75s49.37,117.86,117.33,175.18c0,0-60-77.67-63-99.63S578.82,961.75,578.82,961.75Z"/><path class="cls-14" d="M1562.58,1328s16,38.2,38,56.78c0,0-19.44-25.18-20.43-32.29S1562.58,1328,1562.58,1328Z"/><path class="cls-14" d="M1602,1326.65s9.26,24.54,22,36.48c0,0-9.61-15.67-10.19-20.24S1602,1326.65,1602,1326.65Z"/><path class="cls-14" d="M675.72,983.82S781.64,1151.32,817,1167.29c0,0-62.64-77.63-68-93.5S675.72,983.82,675.72,983.82Z"/><path class="cls-14" d="M745.34,1062.8s-57.7,10.5-76.83,5.84c0,0,23.88,7.72,42.79,5.9s29.63-5.82,29.63-5.82Z"/><path class="cls-20" d="M618,297.66c9.35-3.29,18.7-5.69,28-8.08h.1c4.42-1.2,8.85-2.4,13.37-3.3h.1l3.32-.9a63.39,63.39,0,0,0,7-1.5,57.87,57.87,0,0,1,6.94-1.19,17.17,17.17,0,0,1,5.43-.9h.1c2.41-.6,4.83-.9,7.24-1.5,1.1-.3,2.21-.3,3.32-.6,2.51-.3,4.92-.9,7.34-1.2a23.52,23.52,0,0,0,4.42-.6c1.51-.29,2.92-.29,4.43-.59s3.21-.3,4.72-.6l9.15-.9c6.94-.9,13.78-1.5,20.41-1.8,1,0,2-.3,3-.3,3,0,5.93-.3,8.85-.3.7,0,1.41-.3,2.11-.3h3a52,52,0,0,1,6.83-.3c9.16-.3,17.9-.3,26.35,0,9.65,0,18.7.6,27.25,1.2h.1c5.33.3,10.46.9,15.28,1.5a78.15,78.15,0,0,1,8.65.6c6.34.9,12.17,1.79,17.4,2.39,15.48,2.4,26.34,4.8,31.37,6a1,1,0,0,0,.8.3h.3a6.34,6.34,0,0,0,2,.3c-.41-.3-1.11-.6-2.32-1.49h-.2c-.2,0-.4-.3-.5-.3-5.43-3.3-17.9-9.59-37.61-15-4.82-1.2-10.25-2.7-16.09-3.59-1.2-.3-2.51-.6-3.82-.9-4.82-.6-10-1.5-15.28-2.1h-.1a230.59,230.59,0,0,0-29.76-1.8,265.16,265.16,0,0,0-30.47.91l-10.46.89c-30.06,3-54,7.49-72.8,12.28h-.1c-6.23,1.5-11.66,3.3-16.79,4.79h-.1c-3.72.9-7,2.4-10.26,3.3C628.26,289.87,619.11,296.76,618,297.66Z"/><path class="cls-20" d="M695.83,248.62c-25.44,6.75-37.81,12.51-41.22,14.5C668,259.74,681.05,256.57,694,254h.1c5.23-1.19,10.26-2,15.39-3.18h.1c20.51-3.77,40.22-6.55,59-8.73,3.22-.4,6.44-.6,9.66-1,3.72-.39,7.23-.59,10.85-.79a52.37,52.37,0,0,1,5.54-.6c9.05-.79,17.69-1.39,25.94-1.59q.15-.28.3,0c5.23-.39,10.36-.59,15.28-.59,1.81-.2,6.58-2.36,8.29-2.36-2.49-2.18-5.25-3.38-7.44-5.16-.39-.32-1.35-.83-1.75-1.22-4.63.2-9.45.39-14.38.59h-.3c-9.55.6-19.81,1.59-30.77,2.78a17.63,17.63,0,0,0-4.53.6c-.9,0-1.81.2-2.81.2h-.1l-3.82.59c-2.52.2-4.93.6-7.34.8-22.33,3.18-40.83,6.55-56.11,9.73H715c-7.14,1.59-13.38,3.18-19.11,4.57Z"/><path class="cls-20" d="M942.84,858.26c-24.06,10.66-35.37,18.29-38.44,20.79,12.68-5.43,25.09-10.62,37.49-15.21l.1,0c5-2,9.82-3.57,14.7-5.55l.1,0c19.66-7,38.69-12.79,56.91-17.9,3.12-.9,6.27-1.6,9.38-2.5,3.61-1,7.06-1.72,10.6-2.49a54,54,0,0,1,5.37-1.46c8.81-2.2,17.26-4.15,25.37-5.64.07-.21.17-.23.3,0,5.1-1.21,10.13-2.21,15-3,1.76-.48,6.12-3.35,7.81-3.62-2.8-1.77-5.71-2.52-8.16-3.94-.43-.25-1.46-.6-1.92-.93-4.53.93-9.27,1.88-14.1,2.85l-.3,0c-9.34,2.09-19.32,4.68-30,7.58a17.87,17.87,0,0,0-4.38,1.3c-.89.14-1.75.48-2.75.64h-.1l-3.68,1.19c-2.45.59-4.77,1.36-7.12,1.94-21.55,6.64-39.29,12.88-53.88,18.42l-.1,0c-6.8,2.69-12.71,5.24-18.15,7.51Z"/></g></g></svg>