<svg xmlns="http://www.w3.org/2000/svg" viewBox="0 0 64 64" width="64" height="64">
	<style>
		tspan { white-space:pre }
		.shp0 { fill: #f3fbfe } 
		.shp1 { fill: #e1f4fd } 
		.shp2 { fill: #32b0e2 } 
	</style>
	<path id="Layer" class="shp0" d="M56.88 34.09C57.54 32.81 57.92 31.4 57.99 29.96C58.06 28.52 57.81 27.08 57.27 25.74C56.73 24.4 55.9 23.2 54.85 22.21C53.8 21.23 52.54 20.48 51.17 20.02C51.9 18.54 52.16 16.88 51.9 15.25C51.65 13.62 50.89 12.11 49.75 10.93C48.6 9.74 47.11 8.94 45.49 8.64C43.87 8.33 42.2 8.54 40.7 9.22C40.2 7.3 39.07 5.59 37.5 4.38C35.92 3.16 33.99 2.5 32 2.5C30.01 2.5 28.08 3.16 26.5 4.38C24.93 5.59 23.8 7.3 23.3 9.22C21.8 8.54 20.13 8.33 18.51 8.64C16.89 8.94 15.4 9.74 14.25 10.93C13.11 12.11 12.35 13.62 12.1 15.25C11.84 16.88 12.1 18.54 12.83 20.02C11.46 20.48 10.2 21.23 9.15 22.21C8.1 23.2 7.27 24.4 6.73 25.74C6.19 27.08 5.94 28.52 6.01 29.96C6.08 31.4 6.46 32.81 7.12 34.09C6.07 35.23 5.37 36.65 5.11 38.19C4.85 39.72 5.05 41.29 5.67 42.72C6.3 44.14 7.32 45.35 8.62 46.2C9.92 47.05 11.45 47.5 13 47.5C13.08 47.5 13.16 47.5 13.24 47.5C13.31 47.49 13.39 47.49 13.47 47.48C13.55 47.48 13.63 47.47 13.7 47.47C13.78 47.46 13.86 47.45 13.94 47.44C15.42 48.57 17.19 49.27 19.04 49.45C20.9 49.63 22.77 49.29 24.44 48.47C26.11 47.64 27.52 46.36 28.5 44.78C29.48 43.19 30 41.36 30 39.5C30 36.15 34 36.15 34 39.5C34 41.36 34.52 43.19 35.5 44.78C36.48 46.36 37.89 47.64 39.56 48.47C41.23 49.29 43.1 49.63 44.96 49.45C46.81 49.27 48.58 48.57 50.06 47.44C51.18 47.58 52.32 47.48 53.4 47.14C54.48 46.8 55.48 46.24 56.32 45.49C57.17 44.74 57.85 43.82 58.31 42.78C58.77 41.75 59.01 40.63 59 39.5C59 39 58.95 38.51 58.86 38.02C58.77 37.53 58.63 37.06 58.45 36.59C58.27 36.13 58.05 35.69 57.78 35.27C57.52 34.85 57.22 34.45 56.88 34.09L56.88 34.09Z" />
	<path id="Layer" class="shp1" d="M44 8.5C43.72 8.5 43.43 8.52 43.15 8.55C42.87 8.58 42.59 8.62 42.31 8.68C42.03 8.74 41.76 8.82 41.49 8.91C41.22 9 40.96 9.1 40.7 9.22C40.65 9.05 40.6 8.88 40.55 8.7C40.49 8.53 40.43 8.37 40.36 8.2C40.3 8.03 40.23 7.87 40.15 7.71C40.07 7.54 39.99 7.38 39.91 7.23C38.76 6.22 37.37 5.52 35.87 5.2C34.37 4.88 32.82 4.95 31.35 5.4C29.89 5.85 28.56 6.66 27.5 7.77C26.45 8.88 25.69 10.24 25.3 11.72C23.8 11.04 22.13 10.83 20.51 11.14C18.89 11.44 17.4 12.24 16.25 13.43C15.11 14.61 14.35 16.12 14.1 17.75C13.84 19.38 14.1 21.04 14.83 22.52C13.46 22.98 12.2 23.73 11.15 24.71C10.1 25.7 9.27 26.9 8.73 28.24C8.19 29.58 7.94 31.02 8.01 32.46C8.08 33.9 8.46 35.31 9.12 36.59C8.57 37.18 8.11 37.86 7.76 38.6C7.41 39.33 7.18 40.12 7.07 40.93C6.96 41.73 6.98 42.55 7.12 43.35C7.25 44.15 7.51 44.93 7.89 45.65C8.24 45.95 8.62 46.21 9.02 46.44C9.43 46.67 9.85 46.87 10.28 47.03C10.72 47.18 11.16 47.3 11.62 47.38C12.08 47.46 12.54 47.5 13 47.5C13.08 47.5 13.16 47.5 13.24 47.5C13.31 47.49 13.39 47.49 13.47 47.48C13.55 47.48 13.63 47.47 13.7 47.47C13.78 47.46 13.86 47.45 13.94 47.44C15.42 48.57 17.19 49.27 19.04 49.45C20.9 49.63 22.77 49.29 24.44 48.47C26.11 47.64 27.52 46.36 28.5 44.78C29.48 43.19 30 41.36 30 39.5C30 36.15 34 36.15 34 39.5C34 41.36 34.52 43.19 35.5 44.78C36.48 46.36 37.89 47.64 39.56 48.47C41.23 49.29 43.1 49.63 44.96 49.45C46.81 49.27 48.58 48.57 50.06 47.44C51.18 47.58 52.32 47.48 53.4 47.14C54.48 46.8 55.48 46.24 56.32 45.49C57.17 44.74 57.85 43.82 58.31 42.78C58.77 41.75 59.01 40.63 59 39.5C59 39 58.95 38.51 58.86 38.02C58.77 37.53 58.63 37.06 58.45 36.59C58.27 36.13 58.05 35.69 57.78 35.27C57.52 34.85 57.22 34.45 56.88 34.09C57.54 32.81 57.92 31.4 57.99 29.96C58.06 28.52 57.81 27.08 57.27 25.74C56.73 24.4 55.9 23.2 54.85 22.21C53.8 21.23 52.54 20.48 51.17 20.02C51.78 18.8 52.06 17.45 51.99 16.09C51.92 14.74 51.51 13.42 50.79 12.27C50.08 11.11 49.07 10.16 47.89 9.5C46.7 8.84 45.36 8.5 44 8.5L44 8.5Z" />
	<path id="Layer" class="shp2" d="M30 61.5L34 61.5C36.5 61.5 38.97 61.01 41.27 60.05C43.58 59.1 45.67 57.7 47.44 55.94C49.2 54.17 50.6 52.08 51.55 49.77C52.51 47.47 53 45 53 42.5C53 38.5 50 30.5 50 30.5C50 30.5 48 40.5 44 42.5L43.89 42.5C44.36 40.94 44.67 39.33 44.83 37.7C44.99 36.08 44.98 34.44 44.82 32.81C44.66 31.19 44.34 29.58 43.87 28.02C43.39 26.45 42.77 24.94 42 23.5C41.23 22.06 41 34.03 36.78 37.03C38 25.5 30 16.5 30 16.5C30 21.5 24.59 30.5 24 37.5C21.59 35.5 21 25.5 21 25.5C21 25.5 14 34.5 18 44.5C14 42.5 14 33.5 14 33.5C13.53 34.15 13.12 34.84 12.75 35.56C12.39 36.27 12.08 37.01 11.82 37.77C11.57 38.54 11.37 39.32 11.24 40.11C11.1 40.9 11.02 41.7 11 42.5C11 45 11.49 47.47 12.45 49.77C13.4 52.08 14.8 54.17 16.56 55.94C18.33 57.7 20.42 59.1 22.73 60.05C25.03 61.01 27.5 61.5 30 61.5L30 61.5Z" />
</svg>