<svg id="b91fc48b-4b57-45a1-baa3-79c73af3fe5f" data-name="Layer 1" xmlns="http://www.w3.org/2000/svg" xmlns:xlink="http://www.w3.org/1999/xlink" viewBox="0 0 2000 2000"><defs><style>.bb844335-7794-4904-adc4-3a587462b2ca{fill:none;}.bfa80190-89fb-45c0-8883-dd1520bf4f2f{fill:#aed76a;}.bdc6bd2f-e81c-4c32-b113-97ae95655599{clip-path:url(#a7185c00-dadf-4a04-ae1e-b57b6774bd9c);}.be3cf411-34af-42bf-8dd7-3213e3f024c8{fill:#fecfae;}.bdcdf4bb-f147-4035-8e80-5e7469163a30{fill:#523028;}.acd3dc40-a6ef-491e-b110-105d9cd3e0a2{fill:#77a22f;}.edfc604d-6e1e-4c4c-ad7f-d4ac0410af12{fill:#8bbc38;}.be93a01d-0418-4805-a5d5-ec724d39a228{fill:#8f534a;}.aea02a2e-33bb-4a63-888a-db504f4e9407{fill:#b79c86;}.a2e35991-9ecd-499e-a83c-d1916b500162{fill:#7a2c32;}.bee15285-3a0a-4af9-b8b9-1c92bed5dc57{fill:#8c383b;}.a1ef4696-8e5e-48db-9679-dfb5042c6d82{fill:#a07775;}.a2737331-df7b-4236-b11e-a157b878a3f8{fill:#d6ba9d;}.bfbb16f2-278d-4fc7-a8ff-4ea4ef8a06f1{fill:#5b3932;}.b5a8e72a-1ddb-4b2d-a91e-9da15d44febe{fill:#a5606b;}.e6cfbb1d-4b0e-4301-a016-2c8a4b30a1c7{fill:#1e1713;}.f2e76c08-1cf2-4480-806c-78eb8d4776df{clip-path:url(#b247bb0b-c060-446c-b5a8-10f11f2c684a);}.a66d2cb9-1c3c-4214-9271-858293011428{fill:#8abd32;}.b1195bfd-8a4d-42da-80b3-92f8c74825ff{clip-path:url(#ee9c9abc-9506-4583-a37d-f7cfb644c66a);}.be611a05-d45e-480d-9401-4beab01f80bb{fill:#9e5f59;}.b9a8e7d1-2b17-49a9-9949-54aab913b581{fill:#965d59;}.bb7264cf-d007-4fb6-b82e-e23829b0a11f{clip-path:url(#a3f82eb2-fa49-4246-a195-19301b040eb4);}.b1d96432-d30f-462f-bbd9-3d1d3f6220d4{clip-path:url(#e9ea092a-09e0-4a0a-b339-d4fc4495b710);}.f0287c85-b33d-44c9-a5fb-1903840f048a{fill:#603d38;}.b0b793b2-07e2-4d00-9852-465883e77e9b{clip-path:url(#b7a5db38-ef32-46f5-95be-97d127665562);}.f7617c7a-a962-4f8d-b359-45b3bb1c1146{fill:#914047;}.bd3209cf-491b-436f-9f98-23e8ca237912{fill:#d19857;}.ba0e849b-6ec6-40f7-92e3-611fda360c8f{clip-path:url(#ab91e023-3669-4c69-b3d0-19cf9c2363df);}.a2713b88-8950-4103-b92d-64a8540fbddd{clip-path:url(#b540f2e1-c430-46bb-9b3b-ec41e7059e73);}.a5341583-9909-481c-b881-e5a268f235ba{clip-path:url(#b1c8154e-1589-4cbc-b60e-0a724d942041);}.bb11319f-c069-409c-92b5-6da94db3a2bf{fill:#afd86a;}.ba900a91-ec87-41f3-8335-f81768fca45c{clip-path:url(#f298ac93-e541-4169-9bf6-dbd007683ab9);}</style><clipPath id="a7185c00-dadf-4a04-ae1e-b57b6774bd9c"><path class="bb844335-7794-4904-adc4-3a587462b2ca" d="M1477.06,1359.12s402,95.46,253.5,347.7c-154,261.53-546.78,62.68-726.89,148s-665,112.36-736.33-171.12c-41.54-164.73,193.5-254.2,193.5-254.2Z"/></clipPath><clipPath id="b247bb0b-c060-446c-b5a8-10f11f2c684a"><path class="bb844335-7794-4904-adc4-3a587462b2ca" d="M594.33,1446.9s-106.25-29.12-100.3,71.65c0,0-53.48-20-66.41,37.63-7.92,35.64,29.36,63.14,65,40.3,27.26-17.47,76.89-23.53,86-20.62S594.33,1446.9,594.33,1446.9Z"/></clipPath><clipPath id="ee9c9abc-9506-4583-a37d-f7cfb644c66a"><path class="bb844335-7794-4904-adc4-3a587462b2ca" d="M1468.05,1266.11s128-42.59,122.94,102.54c0,0,64.31-29.15,81.18,53.68,10.38,51.21-43.42,66.19-77.87,58.41-40.71-9.21-93.68-33.28-104.54-29.15S1468.05,1266.11,1468.05,1266.11Z"/></clipPath><clipPath id="a3f82eb2-fa49-4246-a195-19301b040eb4"><path class="bb844335-7794-4904-adc4-3a587462b2ca" d="M775.19,1146.5c-3,3-12,1.84-13.41,6-1.93,5.5-3.19,11.68,1.16,11.68,7.91-.1,14.76,7,14.76,7s-13,21.43,0,24,17.57,2.42,14.29,7.72c-1.45,2.42,7.33.29,2-11.29-5.88-12.74-13.32-22.49.1-20.36,5.89.87,11.19,2.12,15.44,3.18a17.29,17.29,0,0,0,15.64-3.76l.19-.19c5.69-4.73,11.39-7.92,15.63.67s20.08,15.44,27.51,13.71a14,14,0,0,0,9.84-7.92l5.41,5.6s14.48-22.87-.39-21.43-26-8.87-32.14-10.42-37,8.88-40.24-5c-1.93-8.1,1.06-15.92,3.76-20.94a10.1,10.1,0,0,0-1.16-11.2c-5.11-5.79-12.54-14.57-14.09-18.14-2.51-5.4,5.41-10.52,5.41-10.52s9.17-16.79-1.45-7.62-6.56,12.93-11.58,22.58-7.82,4.82-14.28,15.34-5.41,14.67-6,20.27C771.53,1138.4,776.64,1145.15,775.19,1146.5Z"/></clipPath><clipPath id="e9ea092a-09e0-4a0a-b339-d4fc4495b710"><polygon class="bb844335-7794-4904-adc4-3a587462b2ca" points="868.04 1689.38 612.38 1588.14 593.08 1423.3 604.66 1338.27 685.92 1234.33 861.76 1509.39 885.89 1566.81 882.71 1626.84 868.04 1689.38"/></clipPath><clipPath id="b7a5db38-ef32-46f5-95be-97d127665562"><polygon class="bb844335-7794-4904-adc4-3a587462b2ca" points="868.52 1689.38 612.86 1588.14 593.56 1423.3 605.14 1338.27 686.4 1234.33 862.25 1509.39 886.38 1566.81 883.19 1626.84 868.52 1689.38"/></clipPath><clipPath id="ab91e023-3669-4c69-b3d0-19cf9c2363df"><path class="bb844335-7794-4904-adc4-3a587462b2ca" d="M832.52,1323.22s37.93,22.68,47.58,45.07,12.35,27,21.52,21,27.9,14.86,26.64,17.18-16.5,7.43-12.74,14.67,9.46,8.68,14,13.22,14.57,6.46,8.39,16.79-7.82,11,1.55,20.27,33.68,6,38.31,12,17.18,13.32,11.49,28.18,5.11,24.51,11.87,25,2.8,10.43,0,15.74-15.16,12.25-20.66,10.71-21.9-14.09-36.19-28.67S832.52,1323.22,832.52,1323.22Z"/></clipPath><clipPath id="b540f2e1-c430-46bb-9b3b-ec41e7059e73"><path class="bb844335-7794-4904-adc4-3a587462b2ca" d="M1349.44,1165.13s28,16,32.33-.87-7.14-20.94-12.45-20.17-8.49-13.7-8.49-13.7,13.41,3,17.18,3.28,16.6,4.44,11.58-5.31-8.3-14.19-14.09-12.84-15.93.58-20.08-.29-11.19-3-11.19-6.56-7.63-9.65-1.26-11.1,22.39.58,16.31-7-5.79-11.58-10.9-9.36-7.44,6.76-13.23,4.64-23.26-22.49-23.26-22.49-2.22-2-2.22-8.3-7.62-14.58-9.16-16.31-9.85-7.43-7.63-12.36,12.26-10.13.58-18.33-10.91-12.55-18.82-15.45-9.84.49-12-10.32,4.73-21-4.24-26.74-10.72-6.17-15.93-10.13-18.33-10.13-18-18.14.19-45.27-14.67-25.77,10.81,62.83,18.15,82.52,62.25,66.2,67.26,83.28S1336.51,1161.85,1349.44,1165.13Z"/></clipPath><clipPath id="b1c8154e-1589-4cbc-b60e-0a724d942041"><path class="bb844335-7794-4904-adc4-3a587462b2ca" d="M1094.55,1549.54c1.16-.29,2.51-.58,3.76-.87,0,0,8.5-53.08,47.78-51,61.57,4.73,49.32,58.68,49.32,58.68s14.09-23.16,37.06-7.53c18.72,11.87,11.67,34.46-1.45,46.52,0,0-21.81,29.63-79.82,31.37a19.83,19.83,0,0,1-2.31.09l-10.23.39a79.55,79.55,0,0,1-23.46-2.7h0a76.77,76.77,0,0,1-38.41-24.81,1.43,1.43,0,0,1-.29-.38,27.63,27.63,0,0,1-2.22-3.19C1063.86,1577.91,1074.19,1554.65,1094.55,1549.54Z"/></clipPath><clipPath id="f298ac93-e541-4169-9bf6-dbd007683ab9"><path class="bb844335-7794-4904-adc4-3a587462b2ca" d="M722.62,496.87s27.53-11.8,32.75,5.28,29.24,7.93,24.36,24.1-8.82,11.9-4,17.31-7.08,10.17-3.43,14,9.47-2.3,36.3.38,9.27-8,31-6.71S862.75,539,878.23,540s41.45-21.71,53.38-19.25,28.49,30.08,5.77,30.9-37.65,3.82-45.64,12.16-24.63,9.47-37.55,2.72-18.17,3.76-33.32,10.18-39.3,7.7-36-.14S779.31,568.7,772,570s-16.33,4.77-12-5.12,7.57-9.76,1.35-21-5.86-10.25-6.5-18.12-1.71-13-8.51-13.92-13-3.61-10.28-7.58S722.62,496.87,722.62,496.87Z"/></clipPath></defs><path class="bfa80190-89fb-45c0-8883-dd1520bf4f2f" d="M1477.06,1359.12s402,95.46,253.5,347.7c-154,261.53-546.78,62.68-726.89,148s-665,112.36-736.33-171.12C248.73,1610,285.62,1551.26,332,1509c54.69-49.87,125-79.16,198.84-84.27Z"/><g class="bdc6bd2f-e81c-4c32-b113-97ae95655599"><path class="be3cf411-34af-42bf-8dd7-3213e3f024c8" d="M758.69,1655.12S687.75,1732.64,771,1762c61.29,21.65,221.4-14.94,263.38-33.09,49.9-21.54,272.84-156.27,565.47-53.29,112.43,39.58,83.57,117.82,83.57,117.82l-165.8,102.47s-12.65-118.24-110.32-143.8c-151.33-39.59-272-6.6-378,31.44s-233.08,94.22-342.71,3.3c-68.14-56.49-21.82-127.93,6.17-162S775.87,1625.13,758.69,1655.12Z"/></g><path class="bdcdf4bb-f147-4035-8e80-5e7469163a30" d="M908.65,650.16s25.74-30.29,63.22-12.35,76.38,8.45,59.68-7.39-59-13.93-52.62-59.92,132.43,1.12,132.43,1.12c3.8-39.12-34.25-43-34.25-43l16.11-3.28c36.69,20,31.19,45.38,33.72,45.52s16.1-12,16.1-12c8.64-18.4-3.78-33-3.78-33l5.81-.07c11.42,7.43,7.66,29.85,7.66,29.85,16-8.69,53.69-12.24,53.69-12.24l17,6.89c-33.07-3.15-63,13.94-63,13.94,19.25,2,30,25.73,30,25.73l-8.88,3c-15.89-31.83-45.32-10.31-45.32-10.31-39.89,43.91-73.16-8.77-107.52-5s16.5,23.71,43,42.76,19,90.39-47.12,71.41-83.42,6-83.42,6Z"/><path class="acd3dc40-a6ef-491e-b110-105d9cd3e0a2" d="M1311.51,457.13c1.33,26.41-9.23,37.15-9.23,37.15-11.3,26.26-60.63-7.3-60.63-7.3-42.83,12.23-54.72-40.49-54.72-40.49-44.89-7.12-22.28-43-22.28-43s-24.22-15.6,1.55-35.65S1217,395.16,1217,395.16s4-21.62,34.32-13.2,30.15,38.9,30.15,38.9S1310.18,430.71,1311.51,457.13Z"/><path class="edfc604d-6e1e-4c4c-ad7f-d4ac0410af12" d="M1363.68,578.08c1.33,26.42-27.55,23.1-27.55,23.1-11.31,26.26-42.31,6.76-42.31,6.76-42.84,12.23-54.73-40.49-54.73-40.49-44.88-7.12-22.28-43-22.28-43s-24.22-15.6,1.56-35.65,50.83,27.35,50.83,27.35,11.26-28.8,41.61-20.37,22.86,46.07,22.86,46.07S1362.26,551.64,1363.68,578.08Z"/><path class="edfc604d-6e1e-4c4c-ad7f-d4ac0410af12" d="M1208.05,557.84c16.92,56.07,62,16.41,62,16.41,44.49,11.41,29.17-27.64,29.17-27.64,30.09-42.57-21.61-53.21-21.61-53.21C1265,459.28,1235,476.29,1235,476.29c-46.78-28-48.48,21.65-48.48,21.65C1151,536.5,1207.93,557.9,1208.05,557.84Z"/><path class="edfc604d-6e1e-4c4c-ad7f-d4ac0410af12" d="M1123.62,523c11.57,38,42.12,11.13,42.12,11.13,30.23,7.66,19.83-18.79,19.83-18.79,20.37-28.92-14.68-36.13-14.68-36.13-8.55-23.17-28.94-11.6-28.94-11.6-31.68-19.05-32.91,14.66-32.91,14.66C1085,508.44,1123.62,523,1123.62,523Z"/><path class="acd3dc40-a6ef-491e-b110-105d9cd3e0a2" d="M1243.7,583.69s-1.56-16.06-18-18.83-17.35,8.82-17.35,8.82-15.81-23.54-28.22-11.6,1.14,18.87,1.14,18.87-9.9,20.09,14,21.42c0,0,9.13,27.07,31,18.26,0,0,17.4,8.56,21.89-5.88,0,0,15.42.17,13.22-13.67S1243.7,583.69,1243.7,583.69Z"/><path class="be93a01d-0418-4805-a5d5-ec724d39a228" d="M916.8,667.6s24.25,2.18,41.74-2,59.47,5.95,74.1,10.67,23.66-2.78,23.66-2.78c-6.92,16.88-34.84,4.22-68.24-2.16s-59,12.4-59,12.4Z"/><path class="be93a01d-0418-4805-a5d5-ec724d39a228" d="M1059.51,637c.23-8.78-20.34-20.41-20.34-20.41,20.82,7.18,25.52,19.8,26,23.18s-6.25,8.88-3.57,14.85-18.79,11.45-18.79,11.45C1062.4,652.76,1059.34,645.61,1059.51,637Z"/><path class="edfc604d-6e1e-4c4c-ad7f-d4ac0410af12" d="M899.38,449.37a72,72,0,0,0,14.52,8C953.61,548.82,1019,483.93,1019,483.93c87.34,93.84,124.89,18.28,124.89,18.28,52.33,37.83,64.21-33.74,64.21-33.74,41.84-6.63,11.35-51.13,11.35-51.13s16.82-25-8.72-53.17-60.23-10.78-60.23-10.78c-31.22-61.6-90.55-7-90.55-7s-19.33-49.27-66.29-35.56a47,47,0,0,0-24.59,16.85c-5.93,7.93-5.85,13-10.9,24.68l-.2.55c-.27-.85-25.33-29.07-54.38-10.36-14.21,9.16-20.81,15.69-18.09,32.79C873.83,393.3,913,421.7,899.38,449.37Z"/><path class="acd3dc40-a6ef-491e-b110-105d9cd3e0a2" d="M1088.21,420.59c-50.47-61.83-85.83,5.21-85.83,5.21-61.4,4.3-21.89,45.92-21.89,45.92-15.31,64.5,54.64,56.48,54.64,56.48,33.56,36.65,62,3.53,62,3.53,72.88,15.3,49.06-46.31,49.06-46.31C1170.35,423.59,1088.21,420.59,1088.21,420.59Z"/><path class="be93a01d-0418-4805-a5d5-ec724d39a228" d="M552.15,993.34s-7.43-29.44-75.85-35.23S426,883,457.57,874.63s86.28-9,55.4-24.71-80.59,21.72-102.3-33.49c0,0-14.28-29-40.44-4.92l-12.84-7.43s16.8-17.76,35.52-12.84c0,0-20.65-26.25-52.69-35l18.72-1.35s34,16.7,45.84,30.5c0,0,4.44-22.3,17.76-25.19l5.4,2.12s-16.79,9.27-15.24,29.53c0,0,8.39,16.12,10.8,16.89s6.28-24.9,47.68-30.59l13.9,8.78s-37-9.84-47.29,28.09c0,0,134.54.67,124.21,45.94s-49.32,28.47-70.45,37.35,11.87,31.56,53.17,28.08,54.73,34,54.73,34Z"/><polygon class="aea02a2e-33bb-4a63-888a-db504f4e9407" points="521.85 1138.11 549.26 1413.65 666.81 1196.79 521.85 1138.11"/><path class="be93a01d-0418-4805-a5d5-ec724d39a228" d="M493.48,1136.18s52.11,92.07,25.47,251.31l44.4-44.2s-4.54-152.58-15.54-178.26S493.48,1136.18,493.48,1136.18Z"/><path class="a2e35991-9ecd-499e-a83c-d1916b500162" d="M468.38,1053.56l-5.69,27S483.05,1186,654,1217.05s16.41-80.87,16.41-80.87Z"/><path class="bee15285-3a0a-4af9-b8b9-1c92bed5dc57" d="M530.73,1034s-36.68,16.79-62.35,19.59c0,0,53.08,133.29,219.28,138s348-186,348-186L691.23,945l-65.05-4.25Z"/><path class="a1ef4696-8e5e-48db-9679-dfb5042c6d82" d="M749.52,232.44s16.22-27.31,85.51-26.25c0,0,53.18,4.73,61.57,22.58l-6.36,28.38-87.35,14-51-25Z"/><path class="a1ef4696-8e5e-48db-9679-dfb5042c6d82" d="M654.07,497.08s-48.74,5.88-49.61,23.64,37.26,85.71,137.63,86.67,210.68,50.77,314.63-99.31c0,0-43.43-29.53-92.85-36.19S654.07,497.08,654.07,497.08Z"/><path class="aea02a2e-33bb-4a63-888a-db504f4e9407" d="M654.07,614.53s49.9,146.31,38.22,229.8c0,0-40.63,50.47,103.75,57.13s145.54-59.84,145.54-59.84,1.74-98.34,17.27-131.54,37-125.66,37-125.66S842.75,640.49,771,630.17,654.07,614.53,654.07,614.53Z"/><path class="a2737331-df7b-4236-b11e-a157b878a3f8" d="M771,614.53S803.76,760.84,796,844.33c0,0-26.73,50.47,68.23,57.13s71.81-54,71.81-54,14.86-109.73,25.09-142.93,34.55-120.26,34.55-120.26S895.06,640.49,848,630.17,771,614.53,771,614.53Z"/><path class="aea02a2e-33bb-4a63-888a-db504f4e9407" d="M818.24,667.66s121.49-3.28,155.49-36.92S961.2,605.1,961.2,605.1L823.86,638.67Z"/><path class="bdcdf4bb-f147-4035-8e80-5e7469163a30" d="M760.33,650.72S783.4,765.57,773.55,896c0,0,29.63,17.57,35.52,2.8s1-229.7-7.43-255.85Z"/><path class="be93a01d-0418-4805-a5d5-ec724d39a228" d="M833.58,899.72s-10.9-225.25-1.06-254.3l-29.63,7.14s13.32,199.58,5.5,249.77Z"/><path class="be93a01d-0418-4805-a5d5-ec724d39a228" d="M952,841.72S970.73,643,1038.67,580.37l-67.85,32.71s-47.19,126.24-51,255.57S952,841.72,952,841.72Z"/><path class="bdcdf4bb-f147-4035-8e80-5e7469163a30" d="M593.08,795l-10.62,14.77S686.69,921.25,513,1005.6L530.73,1034,589,994.5a102.49,102.49,0,0,0,36.48-43.72L658.12,877l-49-82.13h-16Z"/><path class="be93a01d-0418-4805-a5d5-ec724d39a228" d="M593.08,795s78,51,27.79,165.13c0,0,64.28-89.76,56.27-114.17s-35.42-61.77-54.63-69.68Z"/><path class="bfbb16f2-278d-4fc7-a8ff-4ea4ef8a06f1" d="M947.56,896s-92.84,80.2-318-17.47c0,0-4.35,64.18,2,71s146.12,119.87,331.33,17C962.81,966.61,969.57,900.11,947.56,896Z"/><path class="a1ef4696-8e5e-48db-9679-dfb5042c6d82" d="M696.05,823.87s-79.62,13-64.66,66.3,215.7,69.58,269.08,40.53,81.93-78.85,81.93-78.85-1.44-8.78-31-7.81c0,0-30.11,56.65-145.44,54.62-56.17-1-85.51-9.94-100.66-19A29.67,29.67,0,0,1,691.52,848C693.45,838.63,695.86,826.76,696.05,823.87Z"/><polygon class="be93a01d-0418-4805-a5d5-ec724d39a228" points="996.59 914.49 976.13 881.48 1007.79 837.57 1051.99 834.77 1039.44 882.93 996.59 914.49"/><polygon class="a1ef4696-8e5e-48db-9679-dfb5042c6d82" points="1001.61 860.93 1039.44 833.61 1017.44 808.71 976.13 832.26 976.13 860.93 1001.61 860.93"/><polygon class="a1ef4696-8e5e-48db-9679-dfb5042c6d82" points="717 885.92 733.4 865.65 778.38 874.82 763.32 914.78 717 885.92"/><path class="b5a8e72a-1ddb-4b2d-a91e-9da15d44febe" d="M645.87,508.18s69.58,81.36,215.7,54.72,140.14-62.83,140.14-62.83-104.24-141.2-124.21-224L765.93,281S720.28,449,645.87,508.18Z"/><path class="bee15285-3a0a-4af9-b8b9-1c92bed5dc57" d="M781.08,430.77c14.86-4.34,23.55-19.59,27.41-33.68a97.2,97.2,0,0,0,2.8-14.76l-6-.49c0,1-.2,2.8-.2,3.77v.09a3,3,0,0,1,5.89.39v-.58c.1-1,.1-2.12.29-3.09l-6-.48c-.19,9.26,1,18.72,5.22,27.12,5.11,9.84,13.51,13.32,23.84,8.68-4.25.58-8.69.78-12.46-1.25-9.94-6-11.09-23.74-10.61-34.26a3,3,0,0,0-6-.58,22.6,22.6,0,0,0-.28,3.57,10.11,10.11,0,0,0,0,1.74,3.07,3.07,0,0,0,5.5,1.25,3,3,0,0,0,.58-2c.09-1.07.19-2.9.19-4.06a3,3,0,0,0-6-.48,132.42,132.42,0,0,1-2.21,14c-3.19,13.8-9.37,27.8-22,35.13Z"/><path class="bee15285-3a0a-4af9-b8b9-1c92bed5dc57" d="M798.26,338.8c14.86-4.34,23.55-19.59,27.41-33.68a97.56,97.56,0,0,0,2.8-14.77l-6-.48c0,1-.19,2.8-.19,3.76v.1a3,3,0,0,1,5.89.38v-.58a29.15,29.15,0,0,1,.29-3.08l-6-.49c-.19,9.27,1,18.73,5.22,27.12,5.11,9.85,13.51,13.32,23.83,8.69-4.24.58-8.68.77-12.45-1.26-9.94-6-11.09-23.74-10.61-34.26a3,3,0,0,0-6-.58,22.71,22.71,0,0,0-.29,3.57,11.23,11.23,0,0,0,0,1.74,3.08,3.08,0,0,0,5.51,1.26,3,3,0,0,0,.57-2c.1-1.06.2-2.9.2-4a3,3,0,0,0-6-.49,130.47,130.47,0,0,1-2.22,14c-3.28,13.8-9.36,27.7-22,35.13Z"/><path class="be93a01d-0418-4805-a5d5-ec724d39a228" d="M759.75,896l18.63-21.14s54.14,84.93,17.08,194.67l-32.14,11.19Z"/><path class="bdcdf4bb-f147-4035-8e80-5e7469163a30" d="M717,885.92s45.07,62.06,3.37,204l51.45-4.25s33.68-144.19-12-189.74Z"/><path class="bdcdf4bb-f147-4035-8e80-5e7469163a30" d="M953.55,944.31s-23.74-82,22.48-111.95l25.58,28.57s-15.92,20.55-5,46.42S953.55,944.31,953.55,944.31Z"/><path class="bfbb16f2-278d-4fc7-a8ff-4ea4ef8a06f1" d="M604.46,520.72s-3.47,59.65,0,64.09,77.5,97.86,299.48,57.9c0,0,144.57-37.73,154.42-93.13l-1.64-41.4S993.79,596.68,856.55,604C725.39,611.06,630.81,596.87,604.46,520.72Z"/><path class="bdcdf4bb-f147-4035-8e80-5e7469163a30" d="M629.56,607.39s48.35,39,53.46,234.91a53.59,53.59,0,0,0,12.17,27.41s5.21-210.2-31-242.73C664.2,627,639.79,615.21,629.56,607.39Z"/><path class="bfbb16f2-278d-4fc7-a8ff-4ea4ef8a06f1" d="M749.52,232.44s28,39.48,94.39,28.09c48.93-8.4,52.69-31.75,52.69-31.75v34.64s-3.28,21.72-59.83,28.28a138.4,138.4,0,0,1-57.23-5.11c-13.32-4.25-26.45-10.81-30.12-20.75v-33.4Z"/><path class="b5a8e72a-1ddb-4b2d-a91e-9da15d44febe" d="M780.6,231.38s36,25.87,84.25,2.51c0,0-30.78-97.57-37-144.86C827.89,89,795.17,212.66,780.6,231.38Z"/><path class="be93a01d-0418-4805-a5d5-ec724d39a228" d="M705.32,498.53l19-1.74a40.52,40.52,0,0,1,37.35,17.95c7.63,11.68,13.22,28.47,7.05,50.67l-28.09,17.18s-1-63.7-23.35-70.94S705.32,498.53,705.32,498.53Z"/><path class="bdcdf4bb-f147-4035-8e80-5e7469163a30" d="M726,504.51c-29.72-20.08-71,9.17-60.51,61.77l75.18,16.5C740.64,582.68,755.6,524.49,726,504.51Z"/><path class="e6cfbb1d-4b0e-4301-a016-2c8a4b30a1c7" d="M717.58,517.06c-20-13.52-47.78,6.17-40.73,41.5l50.57,11.09S737.55,530.57,717.58,517.06Z"/><path class="bb844335-7794-4904-adc4-3a587462b2ca" d="M1431.86,1368.66s353,95.46,222.65,347.7c-135.21,261.53-480.24,62.68-638.42,148S432,1976.75,369.36,1693.27c-36.48-164.73,170-254.2,170-254.2Z"/><path class="acd3dc40-a6ef-491e-b110-105d9cd3e0a2" d="M594.33,1446.9s-106.25-29.12-100.3,71.65c0,0-53.48-20-66.41,37.63-7.92,35.64,29.36,63.14,65,40.3,27.26-17.47,76.89-23.53,86-20.62S594.33,1446.9,594.33,1446.9Z"/><g class="f2e76c08-1cf2-4480-806c-78eb8d4776df"><path class="a66d2cb9-1c3c-4214-9271-858293011428" d="M591,1482.32s-64.89-33.67-89,43.68c0,0-92.27-2.79-60.11,71,0,0-76.89,17.71-51.38-48s45.32-83.06,64.77-89.82,86.56-43.8,90.17-44,52.19-.59,52.19-.59Z"/></g><path class="acd3dc40-a6ef-491e-b110-105d9cd3e0a2" d="M1468.05,1268.59s128-42.59,122.94,102.53c0,0,64.31-29.14,81.18,53.69,10.38,51.21-45.31,61.82-77.87,58.4-41.53-4.36-93.68-33.27-104.54-29.14S1468.05,1268.59,1468.05,1268.59Z"/><g class="b1195bfd-8a4d-42da-80b3-92f8c74825ff"><path class="a66d2cb9-1c3c-4214-9271-858293011428" d="M1472.89,1317s77.87-48.85,108.67,62.18c0,0,111.73-4.49,74.21,101.58,0,0,93.45,25,61.24-69.37s-56.64-119.17-80.35-128.85-105.72-62.53-110.21-62.88-63.12-.59-63.12-.59Z"/></g><polygon class="aea02a2e-33bb-4a63-888a-db504f4e9407" points="902.59 1052.6 1090.98 766.54 1339.59 1125.66 1279.18 1596.06 1012.8 1500.41 966.87 1391.55 962.04 1305.94 964.55 1301.12 902.59 1052.6"/><polygon class="a2737331-df7b-4236-b11e-a157b878a3f8" points="1322.22 1588.62 1484.84 1495.88 1480.21 1030.79 1295.87 1105.2 1322.22 1588.62"/><path class="aea02a2e-33bb-4a63-888a-db504f4e9407" d="M1478.38,1114.75l.38,24.9s-7.72,3.28-14.09,1.64-14.09,12.07-32.71,17.76-30.41,31.56-77,38.41c0,0-17.08,31.56-39.76,34.36s-11.1-72.19-11.1-72.19Z"/><polygon class="bdcdf4bb-f147-4035-8e80-5e7469163a30" points="1455.7 1064.86 1457.72 1511.03 1469.02 1513.25 1469.02 1072.29 1455.7 1064.86"/><polygon class="be93a01d-0418-4805-a5d5-ec724d39a228" points="1469.02 1513.25 1490.25 1501.38 1491.12 1113.21 1467.57 1075.18 1469.02 1513.25"/><path class="b5a8e72a-1ddb-4b2d-a91e-9da15d44febe" d="M1090.88,781.59l232.79,32.53,177.48,297.45s-13.41,17.27-38.12,11c0,0-3.67,24.71-26.83,10.81,0,0-2.6,27.6-30.59,16.21,0,0-6.76,35.33-60.23,28.86,0,0-15.53,15-31.65.1S1086.35,819.62,1090.88,781.59Z"/><polygon class="a2737331-df7b-4236-b11e-a157b878a3f8" points="920.44 1685.42 1114.53 1577.72 1119.55 1405.44 886.38 1495.78 920.44 1685.42"/><path class="aea02a2e-33bb-4a63-888a-db504f4e9407" d="M1109.51,1422.62l-88.89-3.57-26.06,39.77c-2.12-2.42-3.37-3.77-3.37-3.77l-106.36,19.11,38.22,154.61s54.43-33.2,73.15-57.61a169.51,169.51,0,0,0,24.33-45.08s16.69,8.3,27.89,6.86a2,2,0,0,0,.87-.39c3.66-1.93,17.66-10,18.72-25,1.25-17.17,45.07-6.37,56.27-17.66C1135.76,1478.7,1109.51,1422.62,1109.51,1422.62Z"/><polygon class="bdcdf4bb-f147-4035-8e80-5e7469163a30" points="1109.51 1418.96 1109.51 1580.9 1123.99 1586.98 1139.43 1503.5 1121.28 1413.65 1109.51 1418.96"/><path class="be93a01d-0418-4805-a5d5-ec724d39a228" d="M1124,1587l22.58-16.21a17.05,17.05,0,0,0,6.76-13.8l1.25-143.42L1124,1437.2V1587Z"/><polygon class="aea02a2e-33bb-4a63-888a-db504f4e9407" points="868.42 1690.35 612.86 1587.56 593.46 1422.62 605.04 1337.69 686.31 1233.75 862.15 1508.81 886.38 1566.14 883.09 1626.26 868.42 1690.35"/><polygon class="be93a01d-0418-4805-a5d5-ec724d39a228" points="603.02 1596.63 614.6 1589.4 615.08 1433.43 603.02 1433.43 603.02 1596.63"/><path class="bdcdf4bb-f147-4035-8e80-5e7469163a30" d="M572.23,1419.92v152.59c0,6.37,3.47,12.16,8.69,14.47l22.1,9.75V1429.57Z"/><polygon class="bdcdf4bb-f147-4035-8e80-5e7469163a30" points="866.01 1563.53 868.52 1691.7 900.18 1706.27 900.18 1565.85 866.01 1563.53"/><polygon class="be93a01d-0418-4805-a5d5-ec724d39a228" points="900.18 1706.27 929.51 1683.4 930.87 1578.01 900.18 1571.16 900.18 1706.27"/><polygon class="a1ef4696-8e5e-48db-9679-dfb5042c6d82" points="572.04 1425.62 841.21 1508.81 806.17 1444.63 587.19 1381.99 572.04 1425.62"/><polygon class="bfbb16f2-278d-4fc7-a8ff-4ea4ef8a06f1" points="574.84 1427.26 841.21 1518.27 806.17 1454.09 587.09 1391.74 574.84 1427.26"/><polygon class="be93a01d-0418-4805-a5d5-ec724d39a228" points="1298.38 1602.42 1323.19 1588.14 1324.25 1199.97 1298.38 1178.35 1298.38 1602.42"/><path class="a1ef4696-8e5e-48db-9679-dfb5042c6d82" d="M1097.93,1218.79h6.66v.39h26l-8-5.7c.77.39-.19-.38-.19-1.35l.67-5.6,154.42,30.6,16.7,45.65-201-45.36Z"/><polygon class="bfbb16f2-278d-4fc7-a8ff-4ea4ef8a06f1" points="1093.1 1245.53 1294.62 1298.7 1282.85 1245.82 1123.02 1213.1 1093.1 1245.53"/><polygon class="bdcdf4bb-f147-4035-8e80-5e7469163a30" points="1273.87 1158.66 1275.9 1595.28 1298.38 1602.42 1302.73 1166.1 1273.87 1158.66"/><path class="b5a8e72a-1ddb-4b2d-a91e-9da15d44febe" d="M983.08,1563.53s34.26-8,29.82-63.12c0,0,44.2,31.95,46.52-21.33,0,0,53.66,9.46,46.52-30.2,0,0,50.86,17.75,49.51-20.18s-107.8-192.44-107.8-192.44L829.72,1102.88l-107.13,83Z"/><path class="bee15285-3a0a-4af9-b8b9-1c92bed5dc57" d="M959.05,1467.41c10.61.48,21.13-5.31,26.83-14.38,5.31-8.4,6.75-18.63,6.37-28.48a108.89,108.89,0,0,0-4-23.06l-7.91,2.51c6,16.5,23.26,41.88,42.56,26.44a32.86,32.86,0,0,0,6.27-7,53.38,53.38,0,0,0,4.54-7.81c-2,2.22-4.06,4.43-6.18,6.37-9.17,8.39-18.14,11.19-27.12,1-5.5-6.27-9.26-14-12.26-21.81-1.83-4.92-9.16-2.7-7.91,2.41,6.66,24.71,9.17,55.79-21.23,63.8Z"/><path class="bee15285-3a0a-4af9-b8b9-1c92bed5dc57" d="M1048.42,1507.55c17.08-12.74,17.85-37.83,12.64-56.84a94.72,94.72,0,0,0-7.33-18.72l-4,1.64,1.54,2.6c.39.68,1.06,1.74,1.45,2.32.1.09,0-.1,0-.19a1.24,1.24,0,0,1,2.22-.78c0,.1-.1-.09-.1-.09-.86-1.26-2.31-3.38-3.18-4.73.1,1.06.29,2,.48,3.09a19.6,19.6,0,0,0,.77,3.18,1.23,1.23,0,0,0,2.22-1c-.38-2-1-4.15-1.54-6.18a2.15,2.15,0,0,0-4.15,1.06c5.4,24.51,11.58,51.54-1.06,74.6Z"/><path class="bee15285-3a0a-4af9-b8b9-1c92bed5dc57" d="M1029.21,1422.62c15.15-14.38,15.64-38,11.2-57.13a120.48,120.48,0,0,0-6.08-19.21l-7.63,3.38c.68,1.35,1.64,3.57,2.22,4.92a4,4,0,0,1-.19-1.54,4.18,4.18,0,0,1,7.53-2.12c0,.09.09.19.19.29a4,4,0,0,0-.48-.87c-.58-1.26-1.16-2.61-1.64-3.86l-7.53,3.28c6.85,13.61,17.08,28,31.85,33.78,10.13,3.86,19-.1,25.57-8.11-4.73,3.28-10,6.18-15.92,5.79-15.35-1.45-28.09-22.2-34.07-35-2.32-4.73-9.36-1.74-7.62,3.18a26.78,26.78,0,0,0,1.25,3c.39.87,1,2.13,1.35,3a4.25,4.25,0,0,0,5.31,1.93,4.15,4.15,0,0,0,2.12-5.7c-.29-.77-.87-1.93-1.15-2.6l-1.36-2.8a4.12,4.12,0,0,0-7.52,3.37,148.22,148.22,0,0,1,6.17,18c5.12,17.86,7,38.51-3.57,55Z"/><path class="bee15285-3a0a-4af9-b8b9-1c92bed5dc57" d="M771,1286c10.61.49,21.13-5.3,26.83-14.38,5.31-8.39,6.75-18.62,6.37-28.47a108.89,108.89,0,0,0-4-23.06l-7.91,2.51c6,16.5,23.26,41.88,42.56,26.44a32.86,32.86,0,0,0,6.27-7,53,53,0,0,0,4.54-7.82c-2,2.22-4.06,4.44-6.18,6.37-9.17,8.4-18.14,11.2-27.12,1-5.5-6.27-9.26-14-12.26-21.81-1.83-4.93-9.17-2.71-7.91,2.41,6.76,24.61,9.26,55.69-21.23,63.79Z"/><path class="bee15285-3a0a-4af9-b8b9-1c92bed5dc57" d="M841.21,1241.18c15.15-14.38,15.63-38,11.19-57.13a120.16,120.16,0,0,0-6.08-19.21l-7.62,3.38c.67,1.35,1.64,3.57,2.22,4.92a3.84,3.84,0,0,1-.2-1.54,4.18,4.18,0,0,1,7.53-2.13c0,.1.1.2.2.29a3.77,3.77,0,0,0-.49-.86c-.58-1.26-1.16-2.61-1.64-3.87l-7.53,3.29c6.86,13.6,17.09,28,31.85,33.78,10.14,3.86,19-.1,25.58-8.11-4.73,3.28-10,6.17-15.93,5.79-15.34-1.45-28.08-22.2-34.06-35-2.32-4.73-9.37-1.74-7.63,3.18a26.81,26.81,0,0,0,1.26,3c.38.87,1,2.12,1.35,3a4.23,4.23,0,0,0,5.31,1.93,4.14,4.14,0,0,0,2.12-5.69c-.29-.77-.87-1.93-1.16-2.61l-1.35-2.79a4.13,4.13,0,0,0-7.53,3.37,147.68,147.68,0,0,1,6.18,18.05c5.11,17.76,7,38.41-3.57,55Z"/><path class="bee15285-3a0a-4af9-b8b9-1c92bed5dc57" d="M771.82,1209.43c10.61.48,21.13-5.31,26.83-14.38,5.3-8.4,6.75-18.63,6.37-28.47a108.87,108.87,0,0,0-4-23.07l-7.92,2.51c6,16.51,23.26,41.89,42.57,26.45a32.86,32.86,0,0,0,6.27-7,53.48,53.48,0,0,0,4.54-7.82c-2,2.22-4.06,4.44-6.18,6.37-9.17,8.4-18.15,11.19-27.12,1-5.5-6.27-9.27-14-12.26-21.81-1.83-4.92-9.17-2.7-7.91,2.42,6.75,24.61,9.17,55.68-21.23,63.79Z"/><path class="bee15285-3a0a-4af9-b8b9-1c92bed5dc57" d="M842.08,1164.65c15.15-14.38,15.63-38,11.19-57.14a120,120,0,0,0-6.08-19.2l-7.62,3.38c.67,1.35,1.64,3.57,2.22,4.92a3.89,3.89,0,0,1-.2-1.55,4.18,4.18,0,0,1,7.53-2.12c0,.1.1.19.19.29a3.77,3.77,0,0,0-.48-.87c-.58-1.25-1.16-2.6-1.64-3.86l-7.53,3.28c6.86,13.61,17.09,28,31.85,33.78,10.14,3.86,19-.1,25.58-8.11-4.73,3.29-10,6.18-15.93,5.8-15.34-1.45-28.08-22.2-34.07-35-2.31-4.73-9.36-1.74-7.62,3.19a29.75,29.75,0,0,0,1.25,3c.39.87,1,2.12,1.36,3a4.21,4.21,0,0,0,5.3,1.93,4.14,4.14,0,0,0,2.13-5.69c-.29-.78-.87-1.93-1.16-2.61l-1.35-2.8a4.13,4.13,0,0,0-7.53,3.38,147.68,147.68,0,0,1,6.18,18.05c5,17.85,6.85,38.5-3.57,55Z"/><path class="bee15285-3a0a-4af9-b8b9-1c92bed5dc57" d="M924.3,1427.26c15.16-14.38,15.64-38,11.2-57.14a120,120,0,0,0-6.08-19.2l-7.63,3.37c.68,1.36,1.65,3.57,2.22,4.93a4.11,4.11,0,0,1-.19-1.55,4.18,4.18,0,0,1,7.53-2.12c0,.1.1.19.19.29a3.77,3.77,0,0,0-.48-.87c-.58-1.26-1.16-2.61-1.64-3.86l-7.53,3.28c6.85,13.61,17.08,28,31.85,33.78,10.13,3.86,19-.1,25.58-8.11-4.73,3.28-10,6.18-15.93,5.79-15.34-1.44-28.08-22.19-34.07-35-2.31-4.73-9.36-1.74-7.62,3.18a26.94,26.94,0,0,0,1.25,3c.39.86,1,2.12,1.35,3a4.23,4.23,0,0,0,5.31,1.93,4.16,4.16,0,0,0,2.13-5.7c-.29-.77-.87-1.93-1.16-2.6l-1.35-2.8a4.13,4.13,0,0,0-7.53,3.38,147.06,147.06,0,0,1,6.17,18c5.12,17.85,7,38.5-3.57,55Z"/><path class="bee15285-3a0a-4af9-b8b9-1c92bed5dc57" d="M977.48,1382.86c15.15-14.38,15.64-38,11.2-57.13a120.16,120.16,0,0,0-6.08-19.21L975,1309.9c.68,1.35,1.64,3.57,2.22,4.92a4,4,0,0,1-.19-1.54,4.18,4.18,0,0,1,7.53-2.13.46.46,0,0,0,.19.29,4.46,4.46,0,0,0-.48-.87c-.58-1.25-1.16-2.6-1.64-3.86l-7.53,3.29c6.85,13.6,17.08,28,31.85,33.77,10.13,3.86,19-.09,25.57-8.1-4.73,3.28-10,6.17-15.92,5.79-15.35-1.45-28.09-22.2-34.07-35-2.32-4.72-9.36-1.73-7.62,3.19a26.78,26.78,0,0,0,1.25,3c.39.87,1,2.12,1.35,3a4.23,4.23,0,0,0,5.31,1.93,4.14,4.14,0,0,0,2.12-5.69c-.29-.77-.87-1.93-1.16-2.61l-1.35-2.8a4.12,4.12,0,0,0-7.52,3.38,147.64,147.64,0,0,1,6.17,18c5.12,17.76,7,38.41-3.57,55Z"/><path class="bee15285-3a0a-4af9-b8b9-1c92bed5dc57" d="M848.54,1377.65c15.15-14.38,15.64-38,11.2-57.14a120.36,120.36,0,0,0-6.08-19.2l-7.63,3.38c.68,1.35,1.64,3.57,2.22,4.92a4.08,4.08,0,0,1-.19-1.55,4.18,4.18,0,0,1,7.53-2.12c0,.1.09.19.19.29a4.46,4.46,0,0,0-.48-.87c-.58-1.25-1.16-2.6-1.64-3.86l-7.53,3.28c6.85,13.61,17.08,28,31.85,33.78,10.13,3.86,19-.09,25.57-8.1-4.73,3.28-10,6.17-15.92,5.79-15.35-1.45-28.09-22.2-34.07-35-2.32-4.73-9.36-1.73-7.62,3.19a27.59,27.59,0,0,0,1.25,3c.39.87,1,2.12,1.35,3a4.23,4.23,0,0,0,5.31,1.93,4.14,4.14,0,0,0,2.12-5.69c-.29-.78-.87-1.93-1.15-2.61l-1.36-2.8a4.12,4.12,0,0,0-7.52,3.38,147.64,147.64,0,0,1,6.17,18.05c5.12,17.85,6.95,38.51-3.57,55Z"/><path class="bee15285-3a0a-4af9-b8b9-1c92bed5dc57" d="M1095.13,1470.2c8.88-20,2.12-42.46-4.83-62l-7.43,3.29c1.16,2.22,2.22,4.15,2.9,5.88l7.33-3.76a53,53,0,0,1-2.8-5.6l-7.52,3.57c6.75,13,16.5,26.06,30.69,31.56,10.61,4.15,23.26.48,29.24-9.36-6.76,6.18-15.83,8.3-24,5.31-8-3.19-14.09-9.36-19.3-16.22a107.15,107.15,0,0,1-9.17-15.05,4.18,4.18,0,0,0-5.6-1.84,4.14,4.14,0,0,0-1.93,5.41,51.34,51.34,0,0,0,3.47,6.85,4.12,4.12,0,0,0,7.24-3.86,52.66,52.66,0,0,0-3.47-6.66c-2.51-4.34-9.07-1.35-7.34,3.38,1.45,3.57,4.25,10.81,5.6,14.38,5.41,14.48,9.17,29.15,7,44.68Z"/><path class="bee15285-3a0a-4af9-b8b9-1c92bed5dc57" d="M973.52,1562.47c14.19-.1,27-9.56,33.69-21.81a52.57,52.57,0,0,0,4.73-13.51c3.47-18.53-.29-37.35-7.43-54.44l-7.15,3c.2.38.29.77.49,1.15L1005,1474c-.2-.39-.29-.77-.48-1.16l-7,2.9c6.66,12.64,15.25,25.86,28.66,32.13a26.77,26.77,0,0,0,14.19,2.32,30.66,30.66,0,0,1-12.74-4.92c-7.43-5.12-12.74-12.74-17.18-20.56-2.22-4-4.24-8.11-6.08-12.26a3.81,3.81,0,0,0-7,2.9c.29.68.48,1.35.77,2a3.88,3.88,0,0,0,5,2.12,3.84,3.84,0,0,0,2.12-5l-.77-2a3.87,3.87,0,0,0-7.24,2.71c6.47,17.95,11,39.37,5.79,58.19-4.25,14-15.05,25.29-29.44,29.15Z"/><path class="bee15285-3a0a-4af9-b8b9-1c92bed5dc57" d="M1337.57,1126.91c10.71,2.61,21.62-3.28,26.73-12.83,5.12-9.37,6.08-20.17,5.69-30.6l-6,.48a53.68,53.68,0,0,0,1.35,6.86c2.8,11.19,10.43,25,24,19.11,4.54-2.13,8.21-5.7,11.3-9.56a28.12,28.12,0,0,0-2.71,1.93c-5.4,3.57-13.32,8.11-19.2,3.19-5.21-4.73-7-12.36-8.3-19.11-.2-1.06-.39-2.13-.49-3.09a3,3,0,0,0-6.08.39c.78,19.2-3.08,41.88-26.34,43.23Z"/><path class="bee15285-3a0a-4af9-b8b9-1c92bed5dc57" d="M1425.39,1150.75c14.38-6.66,19.4-24.42,18.92-39.18a64.75,64.75,0,0,0-2.12-14.87l-3.09.49.67,2.12c.2.48.49,1.45.68,1.93a.92.92,0,0,1,1.64-.48c0,.09.1.09.1.19-.1-.1-.1-.29-.2-.39-.38-1-1-2.7-1.35-3.66-.1,1.06-.19,2.31-.19,3.38a6.86,6.86,0,0,0,.09,1.35.92.92,0,0,0,1.74-.49v-.58c0-1.25,0-2.7-.09-4a1.57,1.57,0,1,0-3.09.48c-.2,18.72-.68,38.89-13.71,53.66Z"/><path class="bee15285-3a0a-4af9-b8b9-1c92bed5dc57" d="M1396.25,1104.71c13.31-8,17.85-24.9,17.85-39.57a96.83,96.83,0,0,0-1.06-15l-6,1.06c.19,1,.57,2.7.77,3.66v.1a3,3,0,0,1,5.79-1.16v.1a2,2,0,0,0-.19-.68c-.2-1-.39-2.12-.58-3.08l-5.89,1.06c2.12,9,5.69,17.85,12,24.8,7.43,8.2,16.4,9.46,25.19,2.41-4,1.64-8.21,3-12.36,1.93-11.1-3.18-16.79-20.17-18.91-30.4a3,3,0,0,0-5.89,1c.19,1.16.38,2.41.58,3.57a4.46,4.46,0,0,0,.48,1.64,3,3,0,0,0,5.6-.19,3.92,3.92,0,0,0,.09-2.13c-.19-1.06-.57-2.89-.77-3.95a3,3,0,0,0-6,1.06,101.67,101.67,0,0,1,1.35,14.18c.68,14.1-1.64,29.15-12.06,39.57Z"/><path class="bee15285-3a0a-4af9-b8b9-1c92bed5dc57" d="M1303.31,1077.31c13.31-8,17.85-24.9,17.85-39.57a96.87,96.87,0,0,0-1.06-15l-6,1.06c.2,1,.58,2.7.78,3.67v.09a3,3,0,0,1,5.79-1.16v.1a1.81,1.81,0,0,0-.2-.68c-.19-1-.38-2.12-.57-3.08l-5.89,1.06c2.12,9,5.69,17.85,12,24.8,7.43,8.2,16.4,9.46,25.19,2.41-4,1.64-8.21,3-12.36,1.93-11.1-3.18-16.79-20.17-18.91-30.4a3,3,0,0,0-5.89,1c.19,1.16.38,2.41.58,3.57a4.46,4.46,0,0,0,.48,1.64,3,3,0,0,0,5.6-.19,3.92,3.92,0,0,0,.09-2.13c-.19-1.06-.58-2.89-.77-4a3,3,0,0,0-6,1.06,101.66,101.66,0,0,1,1.35,14.19c.67,14.18-1.74,29.24-12.06,39.57Z"/><path class="bee15285-3a0a-4af9-b8b9-1c92bed5dc57" d="M1349.53,1052.89c13.32-8,17.86-24.9,17.86-39.57a96.87,96.87,0,0,0-1.06-15l-6,1.06c.2,1,.58,2.7.78,3.67v.09a3,3,0,0,1,5.79-1.15v.09a1.72,1.72,0,0,0-.2-.67c-.19-1-.38-2.13-.58-3.09l-5.88,1.06c2.12,9,5.69,17.86,12,24.8,7.44,8.21,16.41,9.46,25.19,2.42-4,1.64-8.2,3-12.35,1.93-11.1-3.19-16.79-20.17-18.92-30.4a3,3,0,0,0-5.88,1c.19,1.16.38,2.41.58,3.57a4.46,4.46,0,0,0,.48,1.64,3,3,0,0,0,5.6-.19,3.89,3.89,0,0,0,.09-2.12c-.19-1.07-.58-2.9-.77-4-1-3.76-6.47-2.7-6,1.06a101.66,101.66,0,0,1,1.35,14.19c.67,14.09-1.64,29.14-12.07,39.57Z"/><path class="bee15285-3a0a-4af9-b8b9-1c92bed5dc57" d="M1280.14,914.49c13.32-8,17.86-24.9,17.86-39.57a98.13,98.13,0,0,0-1.06-15l-6,1.06c.19,1,.58,2.71.77,3.67v.1a3,3,0,0,1,5.79-1.16v.1a1.7,1.7,0,0,0-.19-.68c-.19-1-.38-2.12-.58-3.09l-5.88,1.06c2.12,9,5.69,17.86,12,24.81,7.43,8.2,16.41,9.45,25.19,2.41-4,1.64-8.2,3-12.35,1.93-11.1-3.19-16.79-20.17-18.92-30.4a3,3,0,0,0-5.88,1c.19,1.16.38,2.42.57,3.57a4.67,4.67,0,0,0,.49,1.64,3,3,0,0,0,5.59-.19,3.88,3.88,0,0,0,.1-2.12c-.19-1.06-.58-2.9-.77-4-1-3.76-6.47-2.7-6,1.06a101.66,101.66,0,0,1,1.35,14.19c.67,14.09-1.64,29.15-12.07,39.57Z"/><path class="bee15285-3a0a-4af9-b8b9-1c92bed5dc57" d="M1326.47,889.49c13.32-8,17.85-24.9,17.85-39.57a95.81,95.81,0,0,0-1.06-15l-6,1.07c.19,1,.58,2.7.77,3.66v.1a3,3,0,0,1,5.79-1.16v.1a2,2,0,0,0-.19-.68c-.2-1-.39-2.12-.58-3.09l-5.89,1.07c2.12,9,5.7,17.85,12,24.8,7.43,8.2,16.41,9.46,25.19,2.41-4,1.64-8.21,3-12.36,1.93-11.09-3.18-16.79-20.17-18.91-30.4a3,3,0,0,0-5.89,1c.19,1.15.39,2.41.58,3.57a4.66,4.66,0,0,0,.48,1.64,3,3,0,0,0,5.6-.19,4,4,0,0,0,.1-2.13c-.2-1.06-.58-2.89-.78-4a3,3,0,0,0-6,1.06,100,100,0,0,1,1.35,14.18c.68,14.09-1.74,29.15-12.06,39.57Z"/><path class="bee15285-3a0a-4af9-b8b9-1c92bed5dc57" d="M817.08,505.38c14.86-4.35,23.55-19.59,27.41-33.69a97.2,97.2,0,0,0,2.8-14.76l-6.08-.48c0,1-.2,2.79-.2,3.76v.1a3,3,0,0,1,5.89.38v-.58c.1-1,.1-2.12.29-3.08l-6-.49c-.2,9.27,1,18.73,5.21,27.12,5.11,9.85,13.51,13.32,23.84,8.69-4.25.58-8.69.77-12.45-1.26-9.94-6-11.1-23.74-10.62-34.26a3,3,0,0,0-6-.58,21.58,21.58,0,0,0-.29,3.57,10.11,10.11,0,0,0,0,1.74,3.07,3.07,0,0,0,5.5,1.26,3,3,0,0,0,.58-2c.09-1.06.19-2.9.19-4.05a3,3,0,0,0-6-.49,135.68,135.68,0,0,1-2.22,14c-3.09,13.8-9.27,27.79-21.91,35.13Z"/><path class="bee15285-3a0a-4af9-b8b9-1c92bed5dc57" d="M912.43,524.49c13.8-7,19.5-23.65,20.66-38.22a99.62,99.62,0,0,0,0-15.06l-6,.68c.1,1,.39,2.7.49,3.67v.09a3,3,0,0,1,5.88-.77v.1c0-.2-.09-.58-.09-.68-.1-1-.29-2.12-.29-3.09l-6,.68c1.55,9.17,4.44,18.24,10.23,25.57,6.86,8.69,15.73,10.52,25,4.15-4.05,1.35-8.4,2.42-12.55,1.07-10.9-4-15.34-21.24-16.79-31.66-.58-3.76-6.08-3.19-6,.58.09,1.16.19,2.41.38,3.57a11.7,11.7,0,0,0,.29,1.74,3,3,0,0,0,5.6.19,3.88,3.88,0,0,0,.19-2.12c-.09-1.07-.38-2.9-.48-4a3,3,0,0,0-6,.67,116,116,0,0,1,.38,14.19c-.48,14.09-3.95,29-15,38.61Z"/><path class="bee15285-3a0a-4af9-b8b9-1c92bed5dc57" d="M832.23,418.42c14.86-4.34,23.55-19.59,27.41-33.68a97.56,97.56,0,0,0,2.8-14.77l-6-.48c0,1-.1,2.8-.2,3.76v.1a3,3,0,0,1,5.89.39v-.58c.1-1,.1-2.13.29-3.09l-6-.48c-.2,9.26,1,18.72,5.21,27.12,5.11,9.84,13.51,13.31,23.84,8.68-4.25.58-8.69.77-12.45-1.25-9.94-6-11.1-23.75-10.62-34.26a3,3,0,0,0-6-.58,21.4,21.4,0,0,0-.29,3.57,10,10,0,0,0,0,1.73,3.07,3.07,0,0,0,5.5,1.26,3,3,0,0,0,.58-2c.09-1.06.19-2.89.19-4.05a3,3,0,0,0-6-.48,135.49,135.49,0,0,1-2.22,14c-3.29,13.8-9.37,27.7-22,35.13Z"/><path class="a2e35991-9ecd-499e-a83c-d1916b500162" d="M692.88,1079.23c-9.78-12-10.66-28.18-8.65-43a139.55,139.55,0,0,1,3-14.7,3.18,3.18,0,0,0-6.11-1.77c-.43,1.15-1,3-1.32,4.09a3.15,3.15,0,0,0-.19,2.23,3.25,3.25,0,0,0,5.92.81,9.37,9.37,0,0,0,.65-1.72,22.65,22.65,0,0,0,1-3.64,3.18,3.18,0,0,0-6.14-1.67c-3.47,10.6-11.26,27.77-23.36,30-4.49.6-8.82-1.26-12.81-3.42,8.5,8.46,18.13,8.16,26.88.32,7.36-6.73,12-15.67,15.33-24.93l-6.12-1.76c-.17,1-.6,2.18-.87,3.17l-.25.67,0-.1a3.17,3.17,0,0,1,6,1.82l0,.1.07-.19c.36-1,.86-2.85,1.22-3.8l-6.11-1.77a103.22,103.22,0,0,0-2.76,15.69c-1.45,15.41,1.45,33.77,14.55,43.64Z"/><path class="a2e35991-9ecd-499e-a83c-d1916b500162" d="M646.81,1047.83c-9.74-12.1-10.56-28.15-8.64-43.06a138.08,138.08,0,0,1,3-14.7,3.18,3.18,0,0,0-6.11-1.76c-.44,1.15-1,3-1.33,4.09a3.13,3.13,0,0,0-.19,2.22,3.26,3.26,0,0,0,5.93.82,11.91,11.91,0,0,0,.65-1.72,23.85,23.85,0,0,0,1.05-3.65,3.19,3.19,0,0,0-6.15-1.67c-3.46,10.61-11.26,27.78-23.35,30-4.49.6-8.82-1.25-12.81-3.42,8.5,8.46,18.12,8.16,26.88.32,7.35-6.73,12-15.67,15.32-24.92L635,988.6c-.17,1-.61,2.17-.87,3.17l-.25.66,0-.09a3.17,3.17,0,0,1,6,1.82l0,.1a1.72,1.72,0,0,0,.08-.19c.26-1,.85-2.85,1.22-3.81L635,988.5a103.07,103.07,0,0,0-2.75,15.68c-1.46,15.41,1.44,33.78,14.54,43.65Z"/><path class="a2e35991-9ecd-499e-a83c-d1916b500162" d="M620.52,1140.26c-8.48-13-7.68-29.07-4.27-43.71a139.33,139.33,0,0,1,4.51-14.32,3.18,3.18,0,0,0-5.9-2.37c-.55,1.1-1.33,2.88-1.74,3.93a3.14,3.14,0,0,0-.4,2.2,3.25,3.25,0,0,0,5.8,1.41,11.07,11.07,0,0,0,.83-1.65,25.09,25.09,0,0,0,1.41-3.52,3.19,3.19,0,0,0-6-2.28c-4.51,10.2-14,26.5-26.26,27.47-4.52.15-8.64-2.13-12.39-4.69,7.6,9.27,17.2,10,26.71,3,8-6,13.56-14.38,17.75-23.26l-5.9-2.37a32.49,32.49,0,0,1-1.19,3.07l-.31.64,0-.09a3.17,3.17,0,0,1,5.77,2.41l0,.1a1.92,1.92,0,0,1,.09-.19c.37-1,1.14-2.74,1.6-3.66l-5.91-2.37a103.64,103.64,0,0,0-4.32,15.33c-3,15.18-2,33.75,10.08,44.89Z"/><path class="bee15285-3a0a-4af9-b8b9-1c92bed5dc57" d="M1378.29,1170.83c7.15,1.73,14.77-1.55,19.6-6.86,4.92-5.5,7.14-13.12,7.72-20.26a53.91,53.91,0,0,0-.68-14.19l-5.5,1a4.08,4.08,0,0,0,.1.49l5.5-.87c0-.2-.1-.29-.1-.49l-5.4.87c1.93,7,4.82,14.48,11,18.82a12.19,12.19,0,0,0,6.85,2.32c-4.34-1.74-7.14-5.41-8.88-9.56a52.72,52.72,0,0,1-3.57-12.83,2.67,2.67,0,0,0-3.18-2.22,2.7,2.7,0,0,0-2.22,3.09c0,2,1.06,3.76,3.28,3.47a2.7,2.7,0,0,0,2.32-3.18l-.1-1.16a2.8,2.8,0,1,0-5.5,1c1,10.33.67,21.82-5.12,30.69-4,5.51-9.46,9.17-16.12,9.95Z"/><polygon class="bdcdf4bb-f147-4035-8e80-5e7469163a30" points="1177.55 1435.36 1155.26 1428.8 1061.54 1273.71 1085.67 1266.66 1177.55 1435.36"/><polygon class="a1ef4696-8e5e-48db-9679-dfb5042c6d82" points="1074.57 1270.71 1177.55 1435.36 1185.75 1427.84 1176.68 1406.22 1192.41 1421.27 1200.62 1415.58 1100.63 1257.49 1074.57 1270.71"/><polygon class="bdcdf4bb-f147-4035-8e80-5e7469163a30" points="1503.08 1116.3 1481.08 1108.96 1314.21 814.5 1334.67 803.6 1503.08 1116.3"/><polygon class="a1ef4696-8e5e-48db-9679-dfb5042c6d82" points="1327.34 812 1503.08 1116.3 1511.67 1109.06 1503.37 1087.15 1518.43 1102.69 1526.92 1097.28 1353.97 799.54 1327.34 812"/><path class="acd3dc40-a6ef-491e-b110-105d9cd3e0a2" d="M832.52,1323.22s37.93,22.68,47.58,45.07,12.35,27,21.52,21,27.9,14.86,26.64,17.18-16.5,7.43-12.74,14.67,9.46,8.68,14,13.22,14.57,6.46,8.39,16.79-7.82,11,1.55,20.27,33.68,6,38.31,12,17.18,13.32,11.49,28.18,5.11,24.51,11.87,25,2.8,10.43,0,15.74-15.16,12.25-20.66,10.71-21.9-14.09-36.19-28.67S832.52,1323.22,832.52,1323.22Z"/><path class="a1ef4696-8e5e-48db-9679-dfb5042c6d82" d="M943.51,1600l19.4-18.33s-46.23-50.48-51.54-65a143.2,143.2,0,0,0-10.9-23.46s25.76,39.48,29.43,41.79,38.32,46,38.32,46l14.86-17.37L746.14,1180l-54.82,8.69Z"/><path class="bdcdf4bb-f147-4035-8e80-5e7469163a30" d="M710.53,1194.76l233,405.25-90.62-34.45s-147.76-244-166.49-302.08c0,0-91.2,173.81-142.26,199.49,0,0-24.12-2.51-21.42-10s18.14-25,18.14-25l-34.07,23.17s-26.34-11.3-25.28-25c0,0,98.34-106.26,169.76-226.22S710.53,1194.76,710.53,1194.76Z"/><path class="a1ef4696-8e5e-48db-9679-dfb5042c6d82" d="M1329.75,1210l19.78-18.53s-46.71-51.54-52-66.3,11.59,14.67,11.59,14.67a79.3,79.3,0,0,1,7.14,4.05c3.76,2.41,38.7,46.9,38.7,46.9l15.15-17.56-238.77-391-55.78,8.59Z"/><path class="bdcdf4bb-f147-4035-8e80-5e7469163a30" d="M1095.13,797.13,1329.85,1210l-92-35.42S1089,926,1070.23,866.81c0,0-93.62,176.23-145.64,202.1,0,0-24.51-2.61-21.71-10.23s-5.79-9-5.79-9l-10.43,7s-26.73-11.58-25.57-25.57c0,0,113.21-99.41,186.36-221S1095.13,797.13,1095.13,797.13Z"/><polygon class="be93a01d-0418-4805-a5d5-ec724d39a228" points="711.5 1196.79 828.18 1153.07 832.71 1075.57 716.8 1101.43 677.04 1145.06 711.5 1196.79"/><polygon class="a1ef4696-8e5e-48db-9679-dfb5042c6d82" points="658.13 1090.82 852.98 1053.47 844.78 1075.57 716.8 1101.43 658.13 1090.82"/><path class="bfbb16f2-278d-4fc7-a8ff-4ea4ef8a06f1" d="M658.32,1090.91s47.29-7,58.68,10.62l-5.31,95.35-46.52-16Z"/><path class="a1ef4696-8e5e-48db-9679-dfb5042c6d82" d="M848.54,940.84l25.38-2s75.38,27.12,219.18,27.8l-28.85,11C1064.25,977.51,861.09,970.27,848.54,940.84Z"/><polygon class="aea02a2e-33bb-4a63-888a-db504f4e9407" points="838.89 1237.22 838.89 1153.55 980.09 1205.38 976.13 1270.71 838.89 1237.22"/><path class="a2737331-df7b-4236-b11e-a157b878a3f8" d="M1115.69,1212v-77.41L1067,1053.56,976,1197v75.57C976.13,1272.55,1084,1251.61,1115.69,1212Z"/><polygon class="aea02a2e-33bb-4a63-888a-db504f4e9407" points="1052.95 1110.6 1064.63 1085.03 1117.33 1156.35 1115.69 1130 1062.7 1057.71 1043.21 1110.22 1052.95 1110.6"/><path class="aea02a2e-33bb-4a63-888a-db504f4e9407" d="M968.12,1219.37s9.65,6.85,18.53-1.06,25.67-33.3,25.67-33.3l12.74-35.42-24.22,13.22-31.66,51.54Z"/><path class="bee15285-3a0a-4af9-b8b9-1c92bed5dc57" d="M1083,1150.75c-.68-13.7-12.93-32.91-24.61-41.21l1.83-4h-12.93c-13.42,1.06-28.37,49.8-34.36,74.21-1.93,8,0,77.79,0,77.79l70-32C1083,1225.45,1083.84,1169,1083,1150.75Z"/><path class="b5a8e72a-1ddb-4b2d-a91e-9da15d44febe" d="M1025.83,1257.49s-1.73-69.68,0-77.79c3.77-17.66,21-73.15,34.36-74.21s34.75,26.92,35.71,45.26,0,74.7,0,74.7Z"/><path class="be93a01d-0418-4805-a5d5-ec724d39a228" d="M1087.41,989.29l80.1,116.49c4.44,6.37,3.86,15.63-1.44,21.13l-21.82,22.68-84.93-119.19Z"/><polygon class="bdcdf4bb-f147-4035-8e80-5e7469163a30" points="1144.25 1149.69 1115.69 1142.74 1054.11 1053.95 1067.24 1041.5 1144.25 1149.69"/><path class="bee15285-3a0a-4af9-b8b9-1c92bed5dc57" d="M811.67,1170.63s55.89,20.27,70.07.39c0,0-.87,19,42.27,28.37s108.1-208.17,108.1-208.17L891.39,977.9Z"/><path class="a2e35991-9ecd-499e-a83c-d1916b500162" d="M878.94,1046.61a40.49,40.49,0,0,0,17.18,13.13c9.07,3.86,19.88,2.8,28.57-1.83,15.06-8.21,24.9-23.36,32.52-38.13l-7.52-3.47a92.83,92.83,0,0,0-3.77,11.48c-3.86,15.06-6.27,34.75,5.12,47.2,8.78,9.26,22.58,9.46,34.16,6.85l-2.89-.1c-6.47-.28-13.22-1.06-19.11-3.86-21-9.94-12.36-41.21-5.89-58.29,1.93-4.92-5-8.11-7.53-3.47-4,7.72-8.49,15.63-13.89,22.48a58.75,58.75,0,0,1-14.48,13.61c-14.19,9.07-30.11,4.73-42.47-5.6Z"/><path class="a2e35991-9ecd-499e-a83c-d1916b500162" d="M841.88,1175.26c15.44,12.07,33.69,9.17,43.24-8.39a61.6,61.6,0,0,0,5.79-15.54,3.42,3.42,0,0,0-2.51-4.15c-2.7-.58-3.86,1.54-4.73,3.57a56.7,56.7,0,0,0-2.22,5.6c-3.57,10.23-3.86,23.84,6.08,30.59,6.66,4.64,15.16,5.12,22.78,4.35-15.35-2.42-28.18-8-24.42-26.06a53.7,53.7,0,0,1,4.73-13.13l-6.27-2.41a68.06,68.06,0,0,1-5,14.09c-7.72,16-22.1,17.85-37.45,11.48Z"/><path class="e6cfbb1d-4b0e-4301-a016-2c8a4b30a1c7" d="M1060.67,1131.74c-9.26.67-21,36.48-24.9,52.21l51.54-19.69C1085.67,1150.56,1070.33,1131,1060.67,1131.74Z"/><path class="e6cfbb1d-4b0e-4301-a016-2c8a4b30a1c7" d="M1034.91,1245.53l52.4-23.94s.39-25.29.29-43l-53.27,23C1034.33,1218.89,1034.91,1245.53,1034.91,1245.53Z"/><path class="bee15285-3a0a-4af9-b8b9-1c92bed5dc57" d="M1087.31,1164.26,1035.77,1184c-.28,1.26-.57,2.41-.77,3.38-.38,1.74-.48,7.24-.58,14.19l53.28-23c0-5.22-.1-9.75-.29-12.84C1087.41,1165.13,1087.31,1164.75,1087.31,1164.26Z"/><polygon class="b5a8e72a-1ddb-4b2d-a91e-9da15d44febe" points="1031.43 1191.38 1091.56 1168.41 1091.56 1182.6 1031.43 1208.56 1031.43 1191.38"/><path class="a2e35991-9ecd-499e-a83c-d1916b500162" d="M901.82,1137.14C921.31,1142.45,939,1127,949.4,1112a137.41,137.41,0,0,0,9.74-16.11l-7.43-3.38a107.85,107.85,0,0,0-4.05,11.87c-4.92,16.7-7.24,43.62,10.42,53.66,9.27,5.31,20.56,5.5,30.6,2.7-6.08,0-12-.38-17.66-2.12a31.53,31.53,0,0,1-13.13-7.63c-9.46-11.38-6.08-31.07-2.22-44.29,1.06-3.77,2.32-7.53,3.67-11.2a4.11,4.11,0,0,0-7.53-3.28c-5.21,10.61-11.2,21-19.21,29.92-7.81,8.78-18.62,15.54-30.78,15.05Z"/><path class="a2e35991-9ecd-499e-a83c-d1916b500162" d="M819.2,1107.42c10.14,15.44,31.37,21.62,47.87,12.25,15.73-8.68,26.45-24.41,33.59-40.53l-7.34-3.19c-.19.39-.29.78-.48,1.16l7.14,3.28c.2-.38.29-.77.49-1.15l-7.15-3.19a131.23,131.23,0,0,0-4.24,14.77c-3.19,14.67-3.28,32.33,7.24,44.2a61.3,61.3,0,0,1-2.71-7l-.87-3.57c-2.79-15.64,2.13-31.17,7.92-45.75,1.74-4.63-4.83-7.52-7.14-3.18-.29.67-.68,1.35-1,2a4,4,0,0,0,7.14,3.38v-.09l1-1.93a4,4,0,1,0-7.34-3.19c-8.1,16.5-21.81,37.35-40.53,41.89-12.07,2.51-24.23-1.93-33.59-10.23Z"/><polygon class="be611a05-d45e-480d-9401-4beab01f80bb" points="824.7 1239.06 838.89 1237.22 976.13 1270.71 1123.02 1206.44 1123.02 1213.1 1072.26 1256.82 966.58 1291.75 833.29 1250.74 824.7 1239.06"/><path class="be93a01d-0418-4805-a5d5-ec724d39a228" d="M976.13,1337.69l141.2-81.36c3.47-1.93,5.69-6.08,5.69-10.52V1213.1l-147,67.17C976.13,1280.27,954.51,1328,976.13,1337.69Z"/><path class="bdcdf4bb-f147-4035-8e80-5e7469163a30" d="M976.13,1280.27v57.42l-143-46.42c-4.34-1.45-7.33-5.89-7.43-11l-.87-41.21Z"/><path class="be93a01d-0418-4805-a5d5-ec724d39a228" d="M1085.67,1008.59S1038.48,1152.87,982,1208.18a14.65,14.65,0,0,1-12.93,4.15l-6.18-1.07,95.45-202Z"/><path class="be93a01d-0418-4805-a5d5-ec724d39a228" d="M924.21,973.84s-51.73,162.72-98.35,196.79c-5.11,3.77-10.9,4-15.54,3.09l-3.66-.68L903,970.37Z"/><path class="bdcdf4bb-f147-4035-8e80-5e7469163a30" d="M1058.36,1009.26s-45.27,131-95.45,202l-40-8.78c-4.93-1.06-7.15-7.72-4.15-12.26,17.46-26.15,64.47-101.24,90.23-190.51Z"/><path class="bdcdf4bb-f147-4035-8e80-5e7469163a30" d="M903.84,983.5s-36.57,113.78-81.36,183.56c-3.28,5.21-9,7.63-14.47,6.27l-36.87-9.26c-7.24-1.83-10.33-11.58-5.69-18.14,13.51-19.5,40-65.44,86.18-172.09Z"/><path class="bdcdf4bb-f147-4035-8e80-5e7469163a30" d="M1067.53,971.34l12.74,17.95-9.65,22.19s-163.69,2-219-37.64l-3.09-33S940.42,973.84,1067.53,971.34Z"/><polygon class="b9a8e7d1-2b17-49a9-9949-54aab913b581" points="1070.62 1011.77 1094.65 1001.93 1093.1 966.61 1067.53 971.34 1070.62 1011.77"/><path class="acd3dc40-a6ef-491e-b110-105d9cd3e0a2" d="M775.19,1146.5c-3,3-12,1.84-13.41,6-1.93,5.5-3.19,11.68,1.16,11.68,7.91-.1,14.76,7,14.76,7s-13,21.43,0,24,17.57,2.42,14.29,7.72c-1.45,2.42,7.33.29,2-11.29-5.88-12.74-13.32-22.49.1-20.36,5.89.87,11.19,2.12,15.44,3.18a17.29,17.29,0,0,0,15.64-3.76l.19-.19c5.69-4.73,11.39-7.92,15.63.67s20.08,15.44,27.51,13.71a14,14,0,0,0,9.84-7.92l5.41,5.6s14.48-22.87-.39-21.43-26-8.87-32.14-10.42-37,8.88-40.24-5c-1.93-8.1,1.06-15.92,3.76-20.94a10.1,10.1,0,0,0-1.16-11.2c-5.11-5.79-12.54-14.57-14.09-18.14-2.51-5.4,5.41-10.52,5.41-10.52s9.17-16.79-1.45-7.62-6.56,12.93-11.58,22.58-7.82,4.82-14.28,15.34-5.41,14.67-6,20.27C771.53,1138.4,776.64,1145.15,775.19,1146.5Z"/><g class="bb7264cf-d007-4fb6-b82e-e23829b0a11f"><path class="edfc604d-6e1e-4c4c-ad7f-d4ac0410af12" d="M799.71,1095.55s-3,11.19,2.7,17-2.7,20.56-1.74,22.49-2.41,24.71,11,25,32.24-12.84,39.86-9.27C859.06,1154.51,799.71,1095.55,799.71,1095.55Z"/></g><g class="b1d96432-d30f-462f-bbd9-3d1d3f6220d4"><path class="f0287c85-b33d-44c9-a5fb-1903840f048a" d="M697.5,1629.35l73.64,33.2V1558l-63.5-39.09-25,26.54S658.51,1601.27,697.5,1629.35Z"/></g><g class="b0b793b2-07e2-4d00-9852-465883e77e9b"><polygon class="bdcdf4bb-f147-4035-8e80-5e7469163a30" points="703.97 1622.5 703.97 1545.97 709.86 1537.96 710.82 1618.93 715.16 1620.38 716.8 1524.64 729.06 1528.21 724.52 1620.86 729.06 1607.44 734.56 1528.02 742.28 1533.81 732.92 1636.69 739.97 1639.29 748.46 1541.53 761.01 1551.56 753.28 1650.3 767.86 1650.3 739.97 1675.1 664.11 1624.53 679.26 1553.88 703.97 1622.5"/></g><path class="b5a8e72a-1ddb-4b2d-a91e-9da15d44febe" d="M743,1510c-43.34-14.58-61.29,7.43-67.08,21.91-5.5,13.8-3.76,73.34-3.57,79.13a1.14,1.14,0,0,0,.29.78c1.35,1.64,7.72,8.3,19.79,9.94h0l.38,2.22,4.44-1.55a1.24,1.24,0,0,0,.77-1.15v-62.06a29.8,29.8,0,0,1,2.71-12.74c3.08-6.56,9.74-13.8,23.64-12.45,23.36,2.22,36.68,24.71,39.57,43,2.7,17.18.39,66.89,0,73.06a1.44,1.44,0,0,0,.39,1.06,43.46,43.46,0,0,0,18.05,9.65,1.34,1.34,0,0,1,.77.68l.38.87a1,1,0,0,0,1.35.58l4.25-2.13a1.32,1.32,0,0,0,.68-1.15l.77-83.87v-.1C790.35,1573.76,786.58,1524.64,743,1510Z"/><path class="f7617c7a-a962-4f8d-b359-45b3bb1c1146" d="M667.2,1613.33s8.1,10.71,25.57,10.71v-63a30,30,0,0,1,2.7-12.74c3.09-6.56,9.75-13.8,23.65-12.45,23.36,2.22,36.67,24.71,39.57,43.05s0,73.63,0,73.63,11.1,10.81,25.19,10.81l1.35-76.63a86.45,86.45,0,0,0-9.55-41.88c-6.86-13-18.34-26.35-37.84-32.91-43.33-14.58-61.28,7.43-67.07,21.91S667.2,1613.33,667.2,1613.33Z"/><path class="bd3209cf-491b-436f-9f98-23e8ca237912" d="M713.33,1577.53s-3.09-2.51-6.85.57-2.8,11,2.31,12.84,7.43-.87,8.79-5.69S713.33,1577.53,713.33,1577.53ZM715,1584c-.77,2.8-2.12,4.34-5.12,3.28s-3.57-5.69-1.35-7.52a3.07,3.07,0,0,1,4-.39S715.74,1581.19,715,1584Z"/><g class="ba0e849b-6ec6-40f7-92e3-611fda360c8f"><path class="edfc604d-6e1e-4c4c-ad7f-d4ac0410af12" d="M859.45,1343s23.26,37.26,25.48,45.36,12.45,13.61,12.64,13.32,15.92-1.45,14.57,3-6.27,7.53-6.27,11.29,1.64,11.1,10.71,17,14.29,5.41,11.78,10.52-3.28,20.65,1.54,16.79c13-10.52,15.25-23.83,18.44-21.33s6.94,31.56,10.61,33.11-9.17,4-9.36,4.92,23.93,7.53,29.73,23.65c1.93,5.3,2.41,12.16,3.76,31,.58,8.2,15.63,4.72,15.63,4.72s19.6-24.51,14.48-30.49-52.31-61-58.1-67.27S922,1375,915.62,1369.06,859.45,1343,859.45,1343Z"/></g><path class="edfc604d-6e1e-4c4c-ad7f-d4ac0410af12" d="M1092.23,1431.89s12.07-10.13,17.67,2.22,6.37,14.19,9.94,12.84,2.8-14.1,12.35-6,15.35.77,15.63,0,8.4-13.61,7.53-9.07-4.44,20.85-6,25.86-2.8,13.71-17.08,7.15-26.64-18.05-30.6-15.25-10.13,2-13.8-5.31-2-16.41-7-25.87-19.69-31.94-17.28-30.69,7.53,2.22,7.91,6.37c.49,6.08,9.17,11.1,13.9,16.12,4.92,5.31,6.85,13.61,6.85,21.62Z"/><path class="edfc604d-6e1e-4c4c-ad7f-d4ac0410af12" d="M747.59,1251.22s-12,4.15-1.64,18.43,14.67,31.47,13.51,34.46,8.49,17.76,13.42,22.2,18.53,12.64,18.91,21,8.59,32,11.49,36,12,8.59,13.22,21.53,5.89,34.16,13.22,29,12.07-9.84,16.12.77,10.52,14.57,10.52,14.57,6.85-2.21-3.09-15.34-18.63-21.33-11.58-20.94,12.35-1.64,6.56-8.21-4.53-10.13-14.76-14.28-20.37-13.71-19.11-17.76,12.83,3.77,4.24-12-5.4-15.25-15.63-22.58-17.28-10.13-17.47-18-4.73-17.76-7.24-22.2-8.59-6.94-14.86-17.95-2.12-28.47-2.12-28.47,1.93-9.07-10.14-19.88-21.71-20.07-17.27-8.59,12.64,18,13.89,19.88S747.59,1251.22,747.59,1251.22Z"/><path class="bee15285-3a0a-4af9-b8b9-1c92bed5dc57" d="M1373.47,1459.4c3.47-17.57,12.26-52.7,20.07-53.47h7.63l-1.06,2.89c6.85,6,14,19.79,14.38,29.63.48,13.22,0,53.86,0,53.86l-31.47,18-2,5h-7.53S1372.31,1465.19,1373.47,1459.4Z"/><path class="b5a8e72a-1ddb-4b2d-a91e-9da15d44febe" d="M1381.09,1515.37s-1-50.18,0-56c2.22-12.65,12.26-52.7,20.08-53.47s20.36,19.4,20.84,32.62,0,53.85,0,53.85Z"/><path class="e6cfbb1d-4b0e-4301-a016-2c8a4b30a1c7" d="M1401.46,1421.27c-5.41.39-12.36,21.33-14.58,30.6l30.21-11.58C1416.13,1432.37,1407.15,1420.89,1401.46,1421.27Z"/><path class="e6cfbb1d-4b0e-4301-a016-2c8a4b30a1c7" d="M1386.4,1503.21l30.69-16.12s.2-23.93.2-38.41l-31.18,18.73C1386,1481.59,1386.4,1503.21,1386.4,1503.21Z"/><path class="bee15285-3a0a-4af9-b8b9-1c92bed5dc57" d="M1417,1440.38,1386.79,1452c-.2.78-.29,1.35-.48,1.93a70.27,70.27,0,0,0-.29,8.3l31.17-13.51c0-3.09-.1-5.69-.19-7.53A1.12,1.12,0,0,0,1417,1440.38Z"/><polygon class="b5a8e72a-1ddb-4b2d-a91e-9da15d44febe" points="1384.38 1456.21 1419.51 1442.8 1419.51 1451.1 1384.38 1466.25 1384.38 1456.21"/><polygon class="b5a8e72a-1ddb-4b2d-a91e-9da15d44febe" points="1406.19 1418.86 1407.35 1495.88 1400.11 1500.7 1400.11 1417.32 1406.19 1418.86"/><path class="b5a8e72a-1ddb-4b2d-a91e-9da15d44febe" d="M753.73,796.91l-7.51.48-2.34-4.88-32.55-16s-3.06-40.52-3.41-53.74c-.24-9.85,6-24.08,12.47-30.49l-1.24-2.82,6.74-.43.87,0c7.85.27,18.84,34.78,23.42,52.08C751.7,746.75,753.73,796.91,753.73,796.91Z"/><path class="bee15285-3a0a-4af9-b8b9-1c92bed5dc57" d="M703.83,777.06s-3.06-40.51-3.42-53.74,10.89-34.15,18.74-33.88,20.4,39.61,23.42,52.09c1.33,5.72,3.55,55.86,3.55,55.86Z"/><path class="e6cfbb1d-4b0e-4301-a016-2c8a4b30a1c7" d="M705.43,724.74l30.89,9.64c-2.81-9.1-11.07-29.56-16.49-29.61C714.12,704.75,705.89,716.78,705.43,724.74Z"/><path class="e6cfbb1d-4b0e-4301-a016-2c8a4b30a1c7" d="M738.07,749.84l-32.3-16.71c.92,14.45,2.63,38.32,2.63,38.32l31.65,14.14S739.07,764,738.07,749.84Z"/><path class="b5a8e72a-1ddb-4b2d-a91e-9da15d44febe" d="M705.58,725.6c0,1.84.09,4.44.29,7.53l32,11.5a72.2,72.2,0,0,0-.82-8.26c-.23-.57-.36-1.14-.6-1.9l-30.88-9.64A1,1,0,0,0,705.58,725.6Z"/><polygon class="bee15285-3a0a-4af9-b8b9-1c92bed5dc57" points="739.73 748.58 703.71 735.68 703.18 727.4 739.1 738.56 739.73 748.58"/><polygon class="bee15285-3a0a-4af9-b8b9-1c92bed5dc57" points="720.93 700.74 726.22 783.96 718.69 779.6 714.96 702.67 720.93 700.74"/><path class="bee15285-3a0a-4af9-b8b9-1c92bed5dc57" d="M1373.47,1331.52c3.47-17.57,12.26-52.7,20.07-53.47h7.63l-1.06,2.89c6.85,6,14,19.79,14.38,29.63.48,13.23,0,53.86,0,53.86l-31.47,18-2,5h-7.53S1372.31,1337.31,1373.47,1331.52Z"/><path class="b5a8e72a-1ddb-4b2d-a91e-9da15d44febe" d="M1381.09,1387.49s-1-50.18,0-56c2.22-12.65,12.26-52.7,20.08-53.47s20.36,19.4,20.84,32.62,0,53.85,0,53.85Z"/><path class="e6cfbb1d-4b0e-4301-a016-2c8a4b30a1c7" d="M1401.46,1293.39c-5.41.39-12.36,21.33-14.58,30.6l30.21-11.58C1416.13,1304.4,1407.15,1293,1401.46,1293.39Z"/><path class="e6cfbb1d-4b0e-4301-a016-2c8a4b30a1c7" d="M1386.4,1375.33l30.69-16.11s.2-23.94.2-38.42l-31.18,18.73C1386,1353.71,1386.4,1375.33,1386.4,1375.33Z"/><path class="bee15285-3a0a-4af9-b8b9-1c92bed5dc57" d="M1417,1312.41,1386.79,1324c-.2.77-.29,1.35-.48,1.93a70.15,70.15,0,0,0-.29,8.3l31.17-13.51c0-3.09-.1-5.7-.19-7.53A1.12,1.12,0,0,0,1417,1312.41Z"/><polygon class="b5a8e72a-1ddb-4b2d-a91e-9da15d44febe" points="1384.38 1328.33 1419.51 1314.92 1419.51 1323.22 1384.38 1338.37 1384.38 1328.33"/><polygon class="b5a8e72a-1ddb-4b2d-a91e-9da15d44febe" points="1406.19 1290.98 1407.35 1368 1400.11 1372.82 1400.11 1289.44 1406.19 1290.98"/><path class="acd3dc40-a6ef-491e-b110-105d9cd3e0a2" d="M1349.44,1165.13s28,16,32.33-.87-7.14-20.94-12.45-20.17-8.49-13.7-8.49-13.7,13.41,3,17.18,3.28,16.6,4.44,11.58-5.31-8.3-14.19-14.09-12.84-15.93.58-20.08-.29-11.19-3-11.19-6.56-7.63-9.65-1.26-11.1,22.39.58,16.31-7-5.79-11.58-10.9-9.36-7.44,6.76-13.23,4.64-23.26-22.49-23.26-22.49-2.22-2-2.22-8.3-7.62-14.58-9.16-16.31-9.85-7.43-7.63-12.36,12.26-10.13.58-18.33-10.91-12.55-18.82-15.45-9.84.49-12-10.32,4.73-21-4.24-26.74-10.72-6.17-15.93-10.13-18.33-10.13-18-18.14.19-45.27-14.67-25.77,10.81,62.83,18.15,82.52,62.25,66.2,67.26,83.28S1336.51,1161.85,1349.44,1165.13Z"/><g class="a2713b88-8950-4103-b92d-64a8540fbddd"><path class="edfc604d-6e1e-4c4c-ad7f-d4ac0410af12" d="M1370.19,1177.68s9.65-16.89-1.06-21.91-11.3-7-12.74-14.09,5.88-8.3-2.8-14.67-14.87-9.07-19.59-20.27.48-12.26-4.25-16.31-8.3-8.3-11.68-10.81-5.79-6.56-7.53-10.13-.58-10.62-.58-10.62,13.52-12.45,32-1.16,54.34,11.2,54.34,29.15,38,57.52,29.14,69-35.22,29.34-40.24,28.18S1370.19,1177.68,1370.19,1177.68Z"/></g><path class="edfc604d-6e1e-4c4c-ad7f-d4ac0410af12" d="M1322.8,801.86s16.79-1.54,17.47,11.29,9.94,33.4,13.12,32,36.39,19,22.68,17.28-19.39-13.32-19.3-7.53S1374,875.11,1374,875.11s13.61,7.15,9.46,12.36-10-4.06-11.2,0,11.1,15.15,11.59,20.07,18.91,17.08,5.4,15.35-22.1-19.31-21.71-23.26-5.7-19.3-10.81-24.42-6.86-6.56-8.5-2.61-2,9.27-8.39-4.15c-9.65-20.26-2.42-20.65-5.41-28.08s.77-10.23-6.75-13.8-5.12-11-8.21-14.48C1316.33,808.42,1322.8,801.86,1322.8,801.86Z"/><polygon class="be93a01d-0418-4805-a5d5-ec724d39a228" points="1098.12 823.87 1354.65 814.6 1360.34 756.21 1221.66 742.8 1108.45 739.32 1098.12 823.87"/><polygon class="a1ef4696-8e5e-48db-9679-dfb5042c6d82" points="1056.62 730.15 1092.91 729.48 1325.21 751 1360.34 756.21 1108.45 739.32 1056.62 730.15"/><path class="bfbb16f2-278d-4fc7-a8ff-4ea4ef8a06f1" d="M1056.62,730.15s49.51-7.14,59,10l-17.47,83.68L1052,813.44Z"/><polygon class="be93a01d-0418-4805-a5d5-ec724d39a228" points="1321.84 1243.4 1473.26 1164.26 1473.26 1194.76 1311.32 1288.38 1321.84 1243.4"/><polygon class="a1ef4696-8e5e-48db-9679-dfb5042c6d82" points="1324.25 1233.08 1456.18 1165.13 1468.05 1166.96 1468.05 1186.46 1324.06 1270.42 1324.25 1233.08"/><polygon class="be93a01d-0418-4805-a5d5-ec724d39a228" points="1321.84 1243.4 1473.26 1164.26 1473.26 1194.76 1311.32 1288.38 1321.84 1243.4"/><path class="acd3dc40-a6ef-491e-b110-105d9cd3e0a2" d="M1094.55,1549.54c1.16-.29,2.51-.58,3.76-.87,0,0,8.5-53.08,47.78-51,61.57,4.73,49.32,58.68,49.32,58.68s14.09-23.16,37.06-7.53c18.72,11.87,11.67,34.46-1.45,46.52,0,0-21.81,29.63-79.82,31.37a19.83,19.83,0,0,1-2.31.09l-10.23.39a79.55,79.55,0,0,1-23.46-2.7h0a76.77,76.77,0,0,1-38.41-24.81,1.43,1.43,0,0,1-.29-.38,27.63,27.63,0,0,1-2.22-3.19C1063.86,1577.91,1074.19,1554.65,1094.55,1549.54Z"/><g class="a5341583-9909-481c-b881-e5a268f235ba"><path class="a66d2cb9-1c3c-4214-9271-858293011428" d="M1211.43,1611.21s30.4-38.41,0-38.22-33.59-10.23-34.94-28.47-52.21-39.09-78.18,4.15c0,0,1.93-74.51,8.5-83.58s131.54,9.75,132.22,15,56.36,80.1,54.24,82.42-49.42,54.43-49.42,54.43Z"/></g><path class="bb11319f-c069-409c-92b5-6da94db3a2bf" d="M1350.13,1756.65s6.7-60.89,20.46-68.21c0,0-1.24,49.73,7.69,55.44s24.06-42.79,24.06-42.79,12.89,35.72-.37,50.6S1350.13,1756.65,1350.13,1756.65Z"/><path class="bb11319f-c069-409c-92b5-6da94db3a2bf" d="M1363.52,1750.57s-33-26.91-33.23-41.79c0,0,3,35.1,16.62,47.74S1363.52,1750.57,1363.52,1750.57Z"/><path class="bb11319f-c069-409c-92b5-6da94db3a2bf" d="M715.27,1823.78s1.49-34.77,1.93-56.77c0,0-10.25,25.71-12.48,31.81S715.27,1823.78,715.27,1823.78Z"/><path class="bb11319f-c069-409c-92b5-6da94db3a2bf" d="M710.81,1813.08s-17.24-48.89-9.66-66c0,0-21.1,19.17-16.35,46.22C689.26,1820.37,710.81,1813.08,710.81,1813.08Z"/><path class="bee15285-3a0a-4af9-b8b9-1c92bed5dc57" d="M840.15,745c-1.16,21.91,19.3,35,32.71,35.52s39.09-5.41,42.85-36.29-28.66-37.83-28.66-37.83C860.51,701.76,841.3,723.19,840.15,745Z"/><path class="b5a8e72a-1ddb-4b2d-a91e-9da15d44febe" d="M847.87,744.42c-1.16,21.91,19.3,35,32.71,35.52s39.09-5.41,42.86-36.29-28.67-37.83-28.67-37.83C868.23,701.09,849.12,722.51,847.87,744.42Z"/><path class="e6cfbb1d-4b0e-4301-a016-2c8a4b30a1c7" d="M912.14,741.14l-54.53-8.4c5.22-11.77,17.28-20.75,32.72-18C890.33,714.7,913.3,719.62,912.14,741.14Z"/><path class="e6cfbb1d-4b0e-4301-a016-2c8a4b30a1c7" d="M855,742.88l25.19,3.18-6.56,23.65c-9.27-3.09-19.4-12.16-18.73-25.67C854.91,743.55,855,743.17,855,742.88Z"/><path class="e6cfbb1d-4b0e-4301-a016-2c8a4b30a1c7" d="M910.6,749.83c-4.83,15.92-18.63,20.36-28.09,20.84l5.8-23.64Z"/><path class="bee15285-3a0a-4af9-b8b9-1c92bed5dc57" d="M910.6,749.83,888.4,747l1.93-7.82-7.72-2-2.51,8.88-25.19-3.18a32.78,32.78,0,0,1,2.61-10l54.53,8.4a15.34,15.34,0,0,1-.2,2.12A27.59,27.59,0,0,1,910.6,749.83Z"/><path class="bee15285-3a0a-4af9-b8b9-1c92bed5dc57" d="M885.8,737.38l-3.38,32.23c-1.06.19-2,.39-2.9.48a21.55,21.55,0,0,1-6.08-.29l3.67-32.71Z"/><polygon class="b5a8e72a-1ddb-4b2d-a91e-9da15d44febe" points="852.6 740.56 912.24 747.99 913.4 739.31 857.71 730.72 852.6 740.56"/><polyline class="b5a8e72a-1ddb-4b2d-a91e-9da15d44febe" points="890.04 737.47 882.03 736.8 878.65 775.59 887.82 775.21"/><path class="acd3dc40-a6ef-491e-b110-105d9cd3e0a2" d="M332.2,613.66s10.62-28.56,42-25.67,27.41,24.52,27.41,24.52,40.24-35.42,57.23-7.53-11.2,33.87-11.2,33.87,8.4,41.6-36.09,32.33c0,0-29.82,45.08-65.53,18.44,0,0-35.91,7.24-37.16-21.33,0,0-28.18-7.14-17.57-31.37S332.2,613.66,332.2,613.66Z"/><path class="edfc604d-6e1e-4c4c-ad7f-d4ac0410af12" d="M240.52,708.24s10.62-28.56,42-25.67,27.41,24.52,27.41,24.52,40.25-35.42,57.23-7.53S356,733.43,356,733.43s8.39,41.6-36.1,32.34c0,0-29.82,45.07-65.53,18.43,0,0-35.9,7.24-37.16-21.33,0,0-28.18-7.14-17.56-31.37S240.52,708.24,240.52,708.24Z"/><path class="edfc604d-6e1e-4c4c-ad7f-d4ac0410af12" d="M393.68,719.44s16-47-37.64-37.45c0,0-22-26.54-45.94.87,0,0-52.11-8.39-39.08,42.08,0,0-28.18,31.08,17.47,36.19,0,0,28.08,53.08,63.79,6.66C352.38,767.89,413.18,768.08,393.68,719.44Z"/><path class="edfc604d-6e1e-4c4c-ad7f-d4ac0410af12" d="M471.66,732.28s10.81-31.95-25.57-25.39c0,0-15-18-31.17.58,0,0-35.33-5.69-26.55,28.57,0,0-19.1,21,11.88,24.61,0,0,19,36,43.33,4.54C443.58,765.19,484.89,765.28,471.66,732.28Z"/><path class="acd3dc40-a6ef-491e-b110-105d9cd3e0a2" d="M346.1,778.19S335.29,760,314.16,765.84,298.43,786,298.43,786s-31.95-19.2-40.06,1.93,11.87,21.81,11.87,21.81-.57,29.44,28.67,17.66c0,0,26,27.12,47.1,4.44,0,0,25.48.49,22.77-19.2,0,0,18.44-8.4,8.11-23.65S346.1,778.19,346.1,778.19Z"/><path class="bdcdf4bb-f147-4035-8e80-5e7469163a30" d="M568.47,984.46s-17.28-26.64-50.77-32.52-64.08-4-64.57-22.2c0,0,5.79,10.23,21.14,11s58.2,6.18,73.06,16.31,38.31,16.7,38.31,16.7Z"/><path class="bdcdf4bb-f147-4035-8e80-5e7469163a30" d="M468.38,927.62s-18-12.84-13.51-17.38.29-12.16,1.93-15.15,10.52-13.12,32.53-12.45c0,0-23.36,3.57-26.26,11.87C460.18,902.62,454.77,908.22,468.38,927.62Z"/><path class="bdcdf4bb-f147-4035-8e80-5e7469163a30" d="M585.45,961.59s-30.3-21.91-49.22-21-31.08-4.54-39-7.63c0,0,22.49,6.18,31.17,4.83s30,4.54,41.89,9.75,18.92,7.81,18.92,7.81Z"/><path class="bb844335-7794-4904-adc4-3a587462b2ca" d="M640.46,714.9c3-3.18,14.29-14.38,27.32-16-2.9-13.22-6-24.61-9.08-34.45C660.54,690.49,644.32,710.56,640.46,714.9Z"/><path class="edfc604d-6e1e-4c4c-ad7f-d4ac0410af12" d="M640.46,714.9c-.48.58-.77.87-.77.87A10.44,10.44,0,0,1,640.46,714.9Z"/><path class="edfc604d-6e1e-4c4c-ad7f-d4ac0410af12" d="M667.87,698.79c11.39-19.88-2.41-41.79-5.4-38.61-.1.1-1.45,1.93-3.67,4.73v-.58a220.35,220.35,0,0,0-15-36.77q-1.87-2.46-4.05-4.92c-43.24-48.06-74,0-74,0s-36.09-72.1-87.15-25.58c0,0-26.25-28.56-60.12-11.29s-27,46.62-27,46.62-44.3,30.78-7.52,51.82c0,0-14.29,71.13,48.06,54.34,0,0,8.3,84,123.24,27.22,0,0,38.13,83.86,107.71,12.45a71.79,71.79,0,0,0,16.41-2.32A657.46,657.46,0,0,0,667.87,698.79Z"/><path class="bdcdf4bb-f147-4035-8e80-5e7469163a30" d="M693.74,769.72c-1.06-21.13-2.7-43.14-5.21-63.6C684,669.45,676.46,638,664.2,627c0,0-24.51-11.77-34.64-19.59,0,0,6.17,4.92,14.28,20.17,4.63,8.59,9.85,20.56,15,36.77,3.09,9.85,6.18,21.23,9.07,34.46A638,638,0,0,1,679.26,776c1.83,19.78,3.09,41.79,3.76,66.3a53.59,53.59,0,0,0,12.17,27.41S696.34,822.71,693.74,769.72Z"/><path class="acd3dc40-a6ef-491e-b110-105d9cd3e0a2" d="M455.16,742.31s-37.74,30.31,14.09,47.39c0,0,5.89,31.46,40.63,20.56,0,0,41.41,30.78,55.4-15.73,0,0,40.34-11.87,3-37.16,0,0,2.22-55.49-52.5-34.84C515.77,722.53,462.59,694.25,455.16,742.31Z"/><path class="bee15285-3a0a-4af9-b8b9-1c92bed5dc57" d="M801.48,218.13c11.85-3.46,18.78-15.63,21.86-26.87a76.89,76.89,0,0,0,2.23-11.78l-4.77-.38c0,.77-.15,2.23-.15,3v.08a2.38,2.38,0,0,1,4.69.3V182c.08-.77.08-1.69.23-2.46l-4.77-.39c-.15,7.39.77,14.94,4.16,21.64,4.08,7.85,10.78,10.62,19,6.93-3.39.46-6.93.61-9.94-1-7.93-4.78-8.85-18.94-8.47-27.34a2.4,2.4,0,0,0-4.77-.46,18.35,18.35,0,0,0-.23,2.85,8.07,8.07,0,0,0,0,1.39,2.45,2.45,0,0,0,4.39,1,2.39,2.39,0,0,0,.46-1.62c.08-.85.15-2.31.15-3.23a2.39,2.39,0,0,0-4.77-.39A104.4,104.4,0,0,1,819,190.11c-2.62,11-7.47,22.09-17.55,28Z"/><path class="acd3dc40-a6ef-491e-b110-105d9cd3e0a2" d="M722.62,496.87s27.53-11.8,32.75,5.28,29.24,7.93,24.36,24.1-8.82,11.9-4,17.31-7.08,10.17-3.43,14,9.47-2.3,36.3.38,9.27-8,31-6.71,25.62-19.72,38.65-11.3c20.08,13,50.36,1.32,62.47,0,16.34-1.81,17.52-3.17-5.42,10.84-19.41,11.84-35.55,4.64-43.54,13s-23.72,13-36.63,6.24-19.09.24-34.24,6.66-39.3,7.7-36-.14S779.31,568.7,772,570s-16.33,4.77-12-5.12,7.57-9.76,1.35-21-5.86-10.25-6.5-18.12-1.71-13-8.51-13.92-13-3.61-10.28-7.58S722.62,496.87,722.62,496.87Z"/><g class="ba900a91-ec87-41f3-8335-f81768fca45c"><path class="edfc604d-6e1e-4c4c-ad7f-d4ac0410af12" d="M721.41,497.17s20.15-3.82,26.2,3.68,10.72,15.91,18.53,17,4.54,11.64,3.77,14.7,4.05,6.24,1.46,13-2.41,10,.24,10.64,15.86-9.73,16.37-11.77,14.46-32.32-1.12-43-38.46-22.23-45.26-21S721.41,497.17,721.41,497.17Z"/></g><path class="edfc604d-6e1e-4c4c-ad7f-d4ac0410af12" d="M809.72,153.15s-16.05-3.53-5.7-22.75-4.68-18.73,1.11-25.14,6.64-19.71,19.77-20.7S846.4,98.86,842,109.7s-7.81,14.29,2,25.13,8.74,31.54,7.55,34.5-11,15.95-7,20,14.13,2.92,12.92,20.28c0,0-8.93-1.69-9.42-8.43-.22-2.94-2.55-5.47-5.1-7.38a14.34,14.34,0,0,1-4.15-18.35,10.5,10.5,0,0,1,2.84-3.35c6.24-4.6-1-11.66-5.09-17.74s-2.47-11.33-5.59-14.13-12-15.6-14.29-4.76S816.73,151.59,809.72,153.15Z"/><path class="edfc604d-6e1e-4c4c-ad7f-d4ac0410af12" d="M468.38,1053.56s11.23-2.91,25.1,18.7-4.62,14.22,7.94,19.89,24.89,5.72,22.92,12-8.12,7.73,4.07,13.15S553.17,1130.09,551,1135s5.9,18.75,10.43,21.4S584,1168.36,584,1168.36s-42.69-11.51-46.88-23.16-8.37-6.49-14-10.18-3.77-4.93-10.14-13.8-6.12-11.42-11.3-12.11-9.86-4.15-10.1-10.06-3.45-9.37-7.39-11.59-8.14-.93-8.38-8.23-.55-12.11-3.94-11.23c-6,1.54-8.88-7.83-6.41-12.08C466.83,1053.55,468.38,1053.56,468.38,1053.56Z"/><path class="b5a8e72a-1ddb-4b2d-a91e-9da15d44febe" d="M691.15,1328.76s-31.33-2-35.83,27.16,17.45,40.95,29.78,44,34.36-3.66,38.86-23.92S716.43,1331.37,691.15,1328.76Z"/><path class="bee15285-3a0a-4af9-b8b9-1c92bed5dc57" d="M684.26,1326.15s-31.34-2-35.83,27.16,17.45,41,29.77,44,34.37-3.66,38.86-23.92S709.54,1328.76,684.26,1326.15Z"/><path class="e6cfbb1d-4b0e-4301-a016-2c8a4b30a1c7" d="M686,1335.45c14.73,1.46,23.4,12.74,25.07,24.75l-51.82-6.26C663.79,1334.09,686,1335.45,686,1335.45Z"/><path class="e6cfbb1d-4b0e-4301-a016-2c8a4b30a1c7" d="M710.69,1371.17c-2.82,12.43-14.31,18.18-23.61,18.6v-23.19l23.71,3.55A1.78,1.78,0,0,1,710.69,1371.17Z"/><path class="e6cfbb1d-4b0e-4301-a016-2c8a4b30a1c7" d="M679.46,1365.43l-.74,23c-8.35-2.93-19.84-10.45-20.16-26.12Z"/><path class="b5a8e72a-1ddb-4b2d-a91e-9da15d44febe" d="M659,1356a11.45,11.45,0,0,1,.42-2l51.81,6.27a30.83,30.83,0,0,1-.21,9.82l-23.71-3.55v-8.67l-7.52-.11-.21,7.63-20.89-3.14A25.8,25.8,0,0,1,659,1356Z"/><path class="b5a8e72a-1ddb-4b2d-a91e-9da15d44febe" d="M692.3,1359.26l-5,30.72a22.26,22.26,0,0,1-5.64-1.26,25.42,25.42,0,0,1-2.51-1.15l5.22-30.19Z"/><polygon class="bee15285-3a0a-4af9-b8b9-1c92bed5dc57" points="711.63 1358.43 658.77 1352.06 657.52 1360.2 713.72 1368.67 711.63 1358.43"/><polyline class="bee15285-3a0a-4af9-b8b9-1c92bed5dc57" points="672.77 1391.23 681.02 1393.94 687.81 1357.7 680.39 1356.34"/></svg>