<svg id="icons" height="512" viewBox="0 0 340 340" width="512" xmlns="http://www.w3.org/2000/svg" xmlns:xlink="http://www.w3.org/1999/xlink"><linearGradient id="linear-gradient" gradientUnits="userSpaceOnUse" x1="235.998" x2="191.524" y1="29.45" y2="366.177"><stop offset="0" stop-color="#ffcac0"/><stop offset="1" stop-color="#f99393"/></linearGradient><linearGradient id="linear-gradient-2" gradientUnits="userSpaceOnUse" x1="145.413" x2="150.265" y1="161.83" y2="200.948"><stop offset="0" stop-color="#ed7d7a"/><stop offset="1" stop-color="#d35454"/></linearGradient><linearGradient id="linear-gradient-3" gradientUnits="userSpaceOnUse" x1="172.257" x2="-29.528" y1="294.179" y2="294.179"><stop offset=".004" stop-color="#a3b0e5"/><stop offset="1" stop-color="#9266bc"/></linearGradient><linearGradient id="linear-gradient-4" x1="172.257" x2="-29.528" xlink:href="#linear-gradient-3" y1="261.032" y2="261.032"/><linearGradient id="linear-gradient-5" x1="172.257" x2="-29.528" xlink:href="#linear-gradient-3" y1="138.255" y2="138.255"/><linearGradient id="linear-gradient-6" x1="172.257" x2="-29.528" xlink:href="#linear-gradient-3" y1="211.794" y2="211.794"/><linearGradient id="linear-gradient-7" x1="172.257" x2="-29.528" xlink:href="#linear-gradient-3" y1="93.27" y2="93.27"/><linearGradient id="linear-gradient-8" x1="172.257" x2="-29.528" xlink:href="#linear-gradient-3" y1="48.96" y2="48.96"/><linearGradient id="linear-gradient-9" x1="172.257" x2="-29.528" xlink:href="#linear-gradient-3" y1="64.972" y2="64.972"/><linearGradient id="linear-gradient-10" x1="172.257" x2="-29.528" xlink:href="#linear-gradient-3" y1="285.208" y2="285.208"/><path d="m205.745 26.553h110.391s-68.1 72.955-91.985 130.13c0 0-11.748 43.076 18.014 90.461 12.824 20.417 31.538 29.638 48.684 33.52 0 0 25.287.158 25.287 18.955a13.241 13.241 0 0 1 -15.107 13.094 60.183 60.183 0 0 1 -11.488-2.681 34.7 34.7 0 0 0 -21.052-.648c-13.273 3.8-35.525 6.874-54.128-6.632a241.737 241.737 0 0 1 -30.383-34.06 77.541 77.541 0 0 0 -41.826-28.678c-15.1-4.13-32.332-11.63-39.008-24.982a43.735 43.735 0 0 1 -4.656-18.8c-.348-16.083 9.31-30.677 23.949-37.347 9.9-4.512 22.394-11.52 28.483-20.219 10.146-14.491 54.825-112.113 54.825-112.113z" fill="url(#linear-gradient)"/><path d="m153.871 173.354c-3.512 4.34-7.545 12.039-1.556 20.317a2.255 2.255 0 0 1 -2.595 3.454c-5.654-2.038-9.822-7.974-9.221-15.421a13.092 13.092 0 0 1 11.443-12.04 2.257 2.257 0 0 1 1.929 3.69z" fill="url(#linear-gradient-2)"/><path d="m185.735 309.169a99.725 99.725 0 0 1 -19.073-19.869 97.878 97.878 0 0 0 -18.2-18.628 5.379 5.379 0 1 0 -6.629 8.473 87.161 87.161 0 0 1 16.2 16.58 110.388 110.388 0 0 0 21.177 21.994 5.379 5.379 0 0 0 6.525-8.554z" fill="url(#linear-gradient-3)"/><path d="m121.72 255.789a5.379 5.379 0 0 0 -3.714 10.1q.5.181.988.369a5.379 5.379 0 1 0 3.819-10.058c-.363-.14-.727-.277-1.093-.411z" fill="url(#linear-gradient-4)"/><path d="m103.476 117.894c-13.715 7.726-24.694 17.08-32.633 27.8a72.612 72.612 0 0 0 -14.257 50.321c1.935 24.39 14.667 44.075 37.843 58.507a5.38 5.38 0 0 0 5.688-9.133c-20.117-12.526-31.156-29.423-32.806-50.223-2.8-35.244 20.995-56.377 41.446-67.9a91.6 91.6 0 0 0 38.265-42.2l25.212-56.311a5.38 5.38 0 1 0 -9.82-4.4l-25.214 56.311a80.768 80.768 0 0 1 -33.724 37.228z" fill="url(#linear-gradient-5)"/><path d="m106.3 279.5c-28.687-16.349-49.022-33.522-60.443-51.043-11.831-18.151-14.082-44.911-5.875-69.834a109.044 109.044 0 0 1 28.5-44.61 5.379 5.379 0 1 0 -7.466-7.746 119.687 119.687 0 0 0 -31.254 48.991c-9.205 27.952-6.491 58.251 7.082 79.074 12.369 18.978 33.96 37.328 64.172 54.54l.092.051c6.562 3.576 24.618 15.324 29.3 26.589a5.38 5.38 0 0 0 9.934-4.132c-7.014-16.88-32.366-30.965-34.042-31.88z" fill="url(#linear-gradient-6)"/><path d="m85.752 98.9a5.355 5.355 0 0 0 3.266-1.108q.35-.267.693-.538a5.379 5.379 0 0 0 -6.656-8.454c-.19.151-.383.3-.576.448a5.379 5.379 0 0 0 3.273 9.652z" fill="url(#linear-gradient-7)"/><path d="m100.807 75.994a5.376 5.376 0 0 0 7.37-1.884l26.563-44.81a5.379 5.379 0 0 0 -9.254-5.486l-26.563 44.81a5.378 5.378 0 0 0 1.884 7.37z" fill="url(#linear-gradient-8)"/><path d="m30.691 108.767a5.349 5.349 0 0 0 2.593-.67c49.438-27.273 66.65-77.715 67.358-79.849a5.379 5.379 0 0 0 -10.209-3.395c-.162.483-16.7 48.64-62.346 73.824a5.38 5.38 0 0 0 2.6 10.09z" fill="url(#linear-gradient-9)"/><path d="m60.891 281.742c-20.148-12.562-26.941-22.917-27.091-23.142a5.379 5.379 0 0 0 -9.138 5.678c.31.5 7.846 12.45 30.532 26.6 16.575 10.335 24.154 17.722 27.412 21.593a5.3 5.3 0 0 0 6.041 1.491l.146-.059a5.317 5.317 0 0 0 2.1-8.342c-4.234-5.061-12.809-13.098-30.002-23.819z" fill="url(#linear-gradient-10)"/></svg>