<?xml version="1.0" encoding="UTF-8" standalone="no"?>
<!-- Generator: Adobe Illustrator 19.0.0, SVG Export Plug-In . SVG Version: 6.00 Build 0)  -->

<svg
   xmlns:dc="http://purl.org/dc/elements/1.1/"
   xmlns:cc="http://creativecommons.org/ns#"
   xmlns:rdf="http://www.w3.org/1999/02/22-rdf-syntax-ns#"
   xmlns:svg="http://www.w3.org/2000/svg"
   xmlns="http://www.w3.org/2000/svg"
   xmlns:sodipodi="http://sodipodi.sourceforge.net/DTD/sodipodi-0.dtd"
   xmlns:inkscape="http://www.inkscape.org/namespaces/inkscape"
   inkscape:version="0.92.4 (5da689c313, 2019-01-14)"
   sodipodi:docname="graveyard3.svg"
   xml:space="preserve"
   style="enable-background:new 0 0 512.001 512.001;"
   viewBox="0 0 512.001 512.001"
   y="0px"
   x="0px"
   id="Layer_1"
   version="1.1"><metadata
   id="metadata87"><rdf:RDF><cc:Work
       rdf:about=""><dc:format>image/svg+xml</dc:format><dc:type
         rdf:resource="http://purl.org/dc/dcmitype/StillImage" /><dc:title></dc:title></cc:Work></rdf:RDF></metadata><defs
   id="defs85" /><sodipodi:namedview
   pagecolor="#ffffff"
   bordercolor="#666666"
   borderopacity="1"
   objecttolerance="10"
   gridtolerance="10"
   guidetolerance="10"
   inkscape:pageopacity="0"
   inkscape:pageshadow="2"
   inkscape:window-width="1920"
   inkscape:window-height="1001"
   id="namedview83"
   showgrid="false"
   showguides="false"
   inkscape:zoom="0.92187324"
   inkscape:cx="354.27886"
   inkscape:cy="159.63828"
   inkscape:window-x="-9"
   inkscape:window-y="-9"
   inkscape:window-maximized="1"
   inkscape:current-layer="Layer_1" />









<path
   style="fill:#acabb1"
   d="M 318.13281 31.871094 L 189.97461 33.976562 C 151.40161 51.137563 120.68184 82.76775 104.71484 121.96875 L 106.39062 249.51953 C 123.57263 288.66753 155.61119 319.81645 195.36719 335.81445 L 189.79688 400.41797 L 316.83594 398.84766 L 311.59961 338.12891 C 354.13061 322.95691 388.54642 290.69877 406.60742 249.63477 L 408.29297 121.86523 C 391.63497 81.052234 358.98781 48.456094 318.13281 31.871094 z M 308.99609 96.746094 C 322.52209 104.92609 334.01389 116.18897 342.46289 129.54297 L 339.875 241.85547 C 331.036 254.50247 319.39736 265.03092 305.94336 272.54492 L 201.13477 268.91992 C 190.10577 261.70692 180.47222 252.33967 172.94922 241.51367 L 170.38672 129.86523 C 177.82872 118.03423 187.71395 107.7528 199.25195 99.841797 L 308.99609 96.746094 z "
   id="path2" /><path
   style="fill:#c3c2c6;stroke:none;stroke-width:1px;stroke-linecap:butt;stroke-linejoin:miter;stroke-opacity:1;fill-opacity:1"
   d="M 189.797,400.417 203.816,237.8 65.964,254.388 V 117.31 L 204.049,133.912 185.19,0 h 137.433 l -18.881,134.058 143.344,-16.706 v 136.994 l -144.159,-16.797 13.908,161.298 z"
   id="path999"
   inkscape:connector-curvature="0" />







<path
   style="fill:#999999;fill-opacity:1"
   d="M 234.536,337.149343333 A 7.33333333333,7.33333333333,0,0,1,241.869333333,329.81601 L 242.908666667,329.81601 A 7.33333333333,7.33333333333,0,0,1,250.242,337.149343333 L 250.242,348.658676667 A 7.33333333333,7.33333333333,0,0,1,242.908666667,355.99201 L 241.869333333,355.99201 A 7.33333333333,7.33333333333,0,0,1,234.536,348.658676667 Z "
   id="rect44" />

<path
   sodipodi:nodetypes="ccccccccccccccccccccc"
   inkscape:connector-curvature="0"
   id="path32"
   d="m 412.53906,151.82227 c -4.04983,-3.6e-4 -7.33326,3.2822 -7.33398,7.33203 v 1.03906 c -3.6e-4,4.05059 3.28339,7.33434 7.33398,7.33398 l 34.54688,-0.002 v -15.70508 z m -23.03515,26.17578 c -4.04984,-3.6e-4 -7.33327,3.28219 -7.33399,7.33203 v 1.04101 c 7.2e-4,4.04984 3.28415,7.33239 7.33399,7.33203 l 57.58203,-0.002 v -15.70508 z m 20.9414,26.17578 c -4.05059,-3.6e-4 -7.33434,3.28339 -7.33398,7.33398 v 1.03907 c 7.2e-4,4.04983 3.28415,7.33239 7.33398,7.33203 h 36.64063 v -15.70703 z"
   style="fill:#999999;fill-opacity:1" /><path
   inkscape:connector-curvature="0"
   style="fill:#999999;fill-opacity:1"
   d="m 368.55701,159.15334 a 7.3333333,7.3333333 0 0 1 7.33333,-7.33333 h 11.50934 a 7.3333333,7.3333333 0 0 1 7.33333,7.33333 v 1.03934 a 7.3333333,7.3333333 0 0 1 -7.33333,7.33333 h -11.50934 a 7.3333333,7.3333333 0 0 1 -7.33333,-7.33333 z"
   id="rect48" /><path
   sodipodi:nodetypes="ccccccccccccccccccccc"
   inkscape:connector-curvature="0"
   id="path32-0"
   d="m 100.51088,151.82227 c 4.04983,-3.6e-4 7.33326,3.2822 7.33398,7.33203 v 1.03906 c 3.6e-4,4.05059 -3.28339,7.33434 -7.33398,7.33398 l -34.54688,-0.002 v -15.70508 z m 23.03515,26.17578 c 4.04984,-3.6e-4 7.33327,3.28219 7.33399,7.33203 v 1.04101 c -7.2e-4,4.04984 -3.28415,7.33239 -7.33399,7.33203 l -57.58203,-0.002 v -15.70508 z m -20.9414,26.17578 c 4.05059,-3.6e-4 7.33434,3.28339 7.33398,7.33398 v 1.03907 c -7.2e-4,4.04983 -3.28415,7.33239 -7.33398,7.33203 H 65.964 v -15.70703 z"
   style="fill:#999999;fill-opacity:1" />

<g
   id="g52">
</g>
<g
   id="g54">
</g>
<g
   id="g56">
</g>
<g
   id="g58">
</g>
<g
   id="g60">
</g>
<g
   id="g62">
</g>
<g
   id="g64">
</g>
<g
   id="g66">
</g>
<g
   id="g68">
</g>
<g
   id="g70">
</g>
<g
   id="g72">
</g>
<g
   id="g74">
</g>
<g
   id="g76">
</g>
<g
   id="g78">
</g>
<g
   id="g80">
</g>
<path
   style="fill:#999999;fill-opacity:1"
   d="M 269.09375 345.52148 A 7.3333333 7.3333333 0 0 0 261.75977 352.85547 L 261.75977 400.81445 L 277.46484 400.81445 L 277.46484 352.85547 A 7.3333333 7.3333333 0 0 0 270.13086 345.52148 L 269.09375 345.52148 z "
   id="path1848" /><path
   style="fill:#999999;fill-opacity:1"
   d="m 242.91601,366.39314 a 7.3333333,7.3333333 0 0 0 -7.33398,7.33398 v 27.01953 h 15.70508 v -27.01953 a 7.3333333,7.3333333 0 0 0 -7.33399,-7.33398 z"
   id="path20-4"
   inkscape:connector-curvature="0" /><path
   style="fill:#6A563D;"
   d="M456.194,512H55.807c37.63-72.183,113.153-121.456,200.193-121.456S418.563,439.817,456.194,512z"
   id="path14" /><path
   d="M 356.908659141,463.974601825 A 7.33333333333,7.33333333333,0,0,0,356.237517977,453.155734672 L 346.702396787,445.489804736 A 7.33333333333,7.33333333333,0,0,0,335.990668626,447.160060257 L 335.452491299,447.973880293 A 7.33333333333,7.33333333333,0,0,0,336.973977104,457.7338722 L 346.367663368,465.287230529 A 7.33333333333,7.33333333333,0,0,0,356.229046889,464.675850256 Z "
   id="path18"
   style="fill:#543a19;fill-opacity:1"
   inkscape:connector-curvature="0"
   sodipodi:nodetypes="ccccc" /><path
   style="fill:#543a19;fill-opacity:1"
   d="m 209.37025,499.28835 a 7.3333333,7.3333333 0 0 1 7.33334,-7.33333 h 11.50933 a 7.3333333,7.3333333 0 0 1 7.33333,7.33333 v 1.03934 a 7.3333333,7.3333333 0 0 1 -7.33333,7.33333 h -11.50933 a 7.3333333,7.3333333 0 0 1 -7.33334,-7.33333 z"
   id="rect24"
   inkscape:connector-curvature="0" /><path
   style="fill:#543a19;fill-opacity:1"
   d="m 251.28711,390.625 c -5.28241,0.13237 -10.51889,0.44421 -15.70508,0.93359 v 25.17188 c -16.00747,2.21925 -31.60572,6.95317 -46.08398,14.04492 -3.74809,1.83981 -5.13877,7.23308 -3.0625,10.79688 2.07627,3.56381 7.88176,4.60219 11.93554,2.36328 18.07906,-8.50116 38.02106,-12.96485 58.15235,-12.96485 20.13129,0 40.07328,4.46369 58.15234,12.96485 4.05378,2.23891 9.85928,1.20053 11.93555,-2.36328 2.07627,-3.5638 0.68559,-8.95707 -3.0625,-10.79688 -14.47826,-7.09175 -30.07652,-11.82567 -46.08399,-14.04492 v -25.17188 c -5.18619,-0.48938 -10.42266,-0.80122 -15.70507,-0.93359 v 24.73633 c -1.743,-0.06 -3.48738,-0.0957 -5.23634,-0.0957 -1.74895,0 -3.49332,0.0357 -5.23632,0.0957 z"
   id="path14-2"
   inkscape:connector-curvature="0"
   sodipodi:nodetypes="ccccccscccccccccc" /><g
   id="g12">
	
	
	
	
</g><g
   id="g1473"
   transform="matrix(0,-1,-1,0,429.28534,447.08594)"
   style="fill:#999999"><path
     style="fill:#999999;fill-opacity:1"
     d="m 412.53906,151.82227 c -4.04983,-3.6e-4 -7.33326,3.2822 -7.33398,7.33203 v 1.03906 c -3.6e-4,4.05059 3.28339,7.33434 7.33398,7.33398 l 34.54688,-0.002 v -15.70508 z m -23.03515,26.17578 c -4.04984,-3.6e-4 -7.33327,3.28219 -7.33399,7.33203 v 1.04101 c 7.2e-4,4.04984 3.28415,7.33239 7.33399,7.33203 l 57.58203,-0.002 v -15.70508 z"
     id="path32-4"
     inkscape:connector-curvature="0"
     sodipodi:nodetypes="cccccccccccccc" /><path
     id="rect48-4"
     d="m 368.55701,159.15334 a 7.3333333,7.3333333 0 0 1 7.33333,-7.33333 h 11.50934 a 7.3333333,7.3333333 0 0 1 7.33333,7.33333 v 1.03934 a 7.3333333,7.3333333 0 0 1 -7.33333,7.33333 h -11.50934 a 7.3333333,7.3333333 0 0 1 -7.33333,-7.33333 z"
     style="fill:#999999;fill-opacity:1"
     inkscape:connector-curvature="0" /></g></svg>