<svg id="Layer_1" enable-background="new 0 0 68 68" height="512" viewBox="0 0 68 68" width="512" xmlns="http://www.w3.org/2000/svg"><g><g><g><g><path d="m65.9958878 33.3775864c0 3.1873894-1.2894287 6.074276-3.3776131 8.1588364-2.0881844 2.0919914-4.9713097 3.3812828-8.1587448 3.3812828h-40.9231234c-6.3710623-.0000001-11.5364065-5.1653443-11.5364065-11.5401192 0-3.1836739 1.2932398-6.0705605 3.3776155-8.1588364 1.6013551-1.5974083 3.6743093-2.7308807 5.9907002-3.1684456-.0113754-.1938953-.0189905-.3916893-.0189905-.5894852 0-5.1464005 4.1725588-9.3188677 9.3188667-9.3188677 1.0193443 0 2.0007076.1636229 2.921154.4717379 2.4381313-5.2756639 7.7783813-8.9347897 13.970686-8.9347897 8.4973183 0 15.3856201 6.8883018 15.3856201 15.3857136 0 .9470043-.0874786 1.8750648-.2510071 2.7765675h1.7648849c6.3710633 0 11.536358 5.1653442 11.536358 11.5364056z" fill="#e5e8ef"/></g><g><path d="m66 33.3817825c0 3.1794815-1.2899551 6.0694351-3.3799095 8.1591415-2.0897102 2.0901985-4.9694061 3.3796692-8.1593895 3.3796692h-3.9997406c3.1899796 0 6.0696754-1.2894707 8.1593857-3.3796692 2.0899544-2.0897064 3.3799095-4.97966 3.3799095-8.1591415 0-6.3799629-5.16959-11.539299-11.5392952-11.539299h-1.7699089c.1701584-.9003334.2499847-1.8299599.2499847-2.7800941 0-7.8295755-5.8394661-14.2788687-13.3990402-15.2490215.6598701-.089838 1.3297462-.1298745 2.0198898-.1298745 8.4994545 0 15.3788948 6.8794413 15.3788948 15.3788958 0 .9501343-.0798302 1.8797607-.2499847 2.7800941h1.7699051c6.369709.0000002 11.539299 5.1593363 11.539299 11.5392992z" fill="#cdd4df"/></g></g><g opacity=".28"><path d="m21.6498756 21.0936508c-1.6699219 1.6699219-3.8200684 2.2294922-4.8000488 1.2597656-.9699707-.9799805-.4099121-3.1298828 1.2600098-4.7998047s3.8200684-2.2304697 4.8000488-1.2602539c.9699707.9799805.4099121 3.1201172-1.2600098 4.800293z" fill="#fff"/></g></g><g><g><path d="m51.078289 42.598484v5.5381775c0 3.7799377-3.0615578 6.8415718-6.84161 6.8415718v5.2683525c0 1.6429367-1.8703194 2.7888489-4.4802208 3.437439-.7608566.191082-1.5853958.3365822-2.4462738.4427071-.6790047.0818481-1.3792534.1394272-2.0885658.1697693-.8124008.0333023-1.6338692.0333023-2.443203-.0031128-.7093468-.0303421-1.4095936-.0848083-2.0886002-.1666565-.8578434-.1061249-1.685379-.254734-2.4462376-.4456673-2.6069031-.6487389-4.4771862-1.7945023-4.4771862-3.437439v-5.2653923h-.0030346c-3.7800503 0-6.8416481-3.0616341-6.8416481-6.8415718v-5.5381775c0-9.4304581 7.6479454-17.0784016 17.0782909-17.0784016 9.4333803.0000001 17.0782892 7.6479436 17.0782892 17.0784016z" fill="#ffd80c"/></g><g><g><g><path d="m33.0360336 44.0109673c0 3.276844-2.6554165 5.9323311-5.9322243 5.9323311-3.276844 0-5.9322224-2.6554871-5.9322224-5.9323311 0-3.2768478 2.6553783-5.9321861 5.9322224-5.9321861 3.2768078-.0000001 5.9322243 2.6553382 5.9322243 5.9321861z" fill="#435e88"/></g><g><path d="m33.0360336 44.0109673c0 3.276844-2.6554165 5.9323311-5.9322243 5.9323311-2.1886215 0-4.101347-1.1852798-5.1289597-2.94944.876049.5091629 1.894558.8032646 2.9828186.8032646 3.2768078 0 5.9322224-2.6554909 5.9322224-5.9321861 0-1.085228-.2940636-2.1068077-.803299-2.9828949 1.7642328 1.0276489 2.949442 2.9404144 2.949442 5.1289253z" fill="#33527d"/></g></g><g><g><path d="m46.8284111 44.0109673c0 3.276844-2.6554146 5.9323311-5.9322205 5.9323311-3.276844 0-5.9322243-2.6554871-5.9322243-5.9323311 0-3.2768478 2.6553802-5.9321861 5.9322243-5.9321861 3.2768059-.0000001 5.9322205 2.6553382 5.9322205 5.9321861z" fill="#435e88"/></g><g><path d="m46.8284111 44.0109673c0 3.276844-2.6554146 5.9323311-5.9322205 5.9323311-2.1886215 0-4.1013489-1.1852798-5.1289597-2.94944.8760452.5091629 1.894558.8032646 2.9828186.8032646 3.2768059 0 5.9322205-2.6554909 5.9322205-5.9321861 0-1.085228-.2940636-2.1068077-.803299-2.9828949 1.7642327 1.0276489 2.9494401 2.9404144 2.9494401 5.1289253z" fill="#33527d"/></g></g></g><g><path d="m36.2787514 55.1424294h-4.5575008c-1.0980148 0-1.6479073-1.3275414-.8715-2.1039619l2.0134926-2.0135269c.6278-.6278076 1.645668-.6278152 2.2734718-.0000114l2.0135307 2.0135307c.7764167.7764167.2265243 2.1039695-.8714943 2.1039695z" fill="#33527d"/></g><g><path d="m30.6898155 58.7007446v5.4259872c-.8578434-.1061249-1.685379-.254734-2.4462376-.4456673v-4.98032c0-.6761208.548645-1.2216949 1.2246552-1.2216949.3364677 0 .6426315.1364708.8639107.3577461.2212791.2212793.3576717.5244104.3576717.8639489z" fill="#33527d"/></g><g><path d="m35.2216187 58.7007446v5.5957565c-.8124008.0333023-1.6338692.0333023-2.443203-.0031128v-5.5926437c0-.6761208.5456123-1.2216949 1.224617-1.2216949.3364716 0 .6426353.1364708.8639107.3577461.2212791.2212792.3546753.5244103.3546753.8639488z" fill="#33527d"/></g><g><path d="m39.7564583 58.7007446v4.9832802c-.7608566.191082-1.5853958.3365822-2.4462738.4427071v-5.4259872c0-.6761208.5486832-1.2216949 1.2246552-1.2216949.3364296 0 .6425934.1364708.8639107.3577461.221279.2212791.3577079.5244102.3577079.8639487z" fill="#33527d"/></g></g></g></svg>