<svg id="Layer_1" enable-background="new 0 0 512 512" height="512" viewBox="0 0 512 512" width="512" xmlns="http://www.w3.org/2000/svg"><g id="XMLID_1_"><g id="XMLID_2877_"><path id="XMLID_1121_" d="m430.9 47.7v.3c-.7 23.4-78.8 42.4-174.9 42.4-96.3 0-175-19-175-42.4v-.3c0-23.6 78.3-42.7 175-42.7 96.6 0 174.9 19.1 174.9 42.7z" fill="#c6c2e1"/><path id="XMLID_825_" d="m104.8 69.2c30.3 12.7 86.8 21.2 151.3 21.2s120.7-8.5 151-21.2c-30.3-12.7-86.6-21.2-151.1-21.2s-120.9 8.5-151.2 21.2z" fill="#b0add6"/><path id="XMLID_823_" d="m423.2 212.3c-46.9 102.9-165.4 119.7-181.6 213.6-5.1 29.6 1.8 56.3 9.2 75.1 1.5 3.9-2.5 7.6-6.2 5.7-123-61.4-150.8-114-152-151.8-1.8-56 54.3-92.8 35-153-9.8-30.7-30.6-40.7-42-86-6.9-27.6-6.3-52-4.6-68 .6 23.5 78.7 42.4 174.9 42.4s174.2-18.9 174.9-42.4c20.1 81.1 6.8 132.9-7.6 164.4z" fill="#a59aa0"/><path id="XMLID_1409_" d="m430.9 48c-.6 21-63.3 38.4-145.6 41.8v95.2c0 27.4-7.9 54.3-22.8 77.3l-41.4 63.9c-26.2 40.4-71.1 64.8-119.3 64.8 15.7 32.7 55 72 142.8 115.8 3.7 1.9 7.8-1.8 6.2-5.7-7.4-18.9-14.3-45.6-9.2-75.1 16.2-93.9 134.7-110.7 181.6-213.7 14.4-31.5 27.7-83.3 7.7-164.3z" fill="#7f757b"/><g id="XMLID_1149_"><path id="XMLID_795_" d="m256 216.4c-68 0-130.5-4.5-178.1-12.6-23.4-4-41.8-8.6-54.8-13.9-15.4-6.2-22.8-13.1-22.8-21.3 0-7.9 7.1-14.8 21.8-20.9 12.4-5.1 30-9.7 52.3-13.7l1.7 9.8c-52 9.2-65.9 19.8-65.9 24.7 0 5 14.6 15.9 69.3 25.3 47.1 8 109.4 12.4 176.4 12.4v10.2z" fill="#c6c2e1"/></g><g id="XMLID_1146_"><path id="XMLID_793_" d="m256 154.4c-30.4 0-60-.9-88.2-2.7l.6-10c28 1.8 57.4 2.7 87.6 2.7 66.7 0 129.4-4.4 176.4-12.4 54.7-9.3 69.3-20.3 69.3-25.3 0-3.5-8.6-11.6-41-19.5l2.4-9.7c32.7 8 48.6 17.6 48.6 29.2 0 8.1-7.5 15.1-22.8 21.3-13 5.2-31.4 9.9-54.8 13.9-47.6 8-110.9 12.5-178.1 12.5z" fill="#c6c2e1"/></g><g id="XMLID_1145_"><path id="XMLID_792_" d="m205 365.7c-50 0-96.5-3.3-131.7-9.3-52.3-8.9-58.4-19.8-58.4-27.2 0-7.5 6.2-18.5 59.5-27.4l1.7 9.9c-41.8 7-51.2 15.2-51.2 17.6 0 2.3 9.1 10.4 50 17.4 34.7 5.9 81 9.2 130 9.2v9.8z" fill="#c6c2e1"/></g><g id="XMLID_1126_"><path id="XMLID_790_" d="m260.1 289.3c-33.6 0-65.8-1.3-95.7-3.9l.9-10c29.6 2.5 61.5 3.8 94.9 3.8 56.4 0 109.4-3.7 149.2-10.5 47.6-8.1 58-17.6 58-20.6 0-.1-.4-7.1-31.3-15l2.5-9.7c26.4 6.8 38.8 14.7 38.8 24.7 0 7.2-6.5 13.3-19.8 18.7-11 4.4-26.7 8.4-46.5 11.8-40.4 6.9-94 10.7-151 10.7z" fill="#c6c2e1"/></g><g id="XMLID_1122_"><path id="XMLID_789_" d="m177 432.6v-10c28 0 55.3-1.8 76.1-5 24-3.7 30.8-7.9 32.5-9.4-1.2-1-4.5-3.1-13.6-5.6l2.6-9.7c14.9 4 21.5 8.7 21.5 15.2 0 5.7-4.3 13-37.6 18.7-21.8 3.7-50.5 5.8-81.5 5.8z" fill="#c6c2e1"/></g><g id="XMLID_822_"><path id="XMLID_787_" d="m205.1 486.9c-23.4 0-45.4-1.6-62-4.4-20.7-3.5-29.5-8.1-29.5-15.4 0-6.2 6.7-10.5 21.9-13.9l2.2 9.8c-7.3 1.6-11 3.2-12.8 4.1 6.9 3.8 34.1 9.7 80.3 9.7 13.6 0 26.6-.5 38.6-1.6l.9 10c-12.4 1.2-25.7 1.7-39.6 1.7z" fill="#c6c2e1"/></g><g fill="#b0add6"><path id="XMLID_814_" d="m239.1 319.9h10v10h-10z"/><path id="XMLID_808_" d="m308.6 174.2h10v10h-10z"/><path id="XMLID_803_" d="m59.3 228.3h10v10h-10z"/><path id="XMLID_800_" d="m474.2 169.2h10v10h-10z"/><path id="XMLID_797_" d="m456.5 186.9h10v10h-10z"/><path id="XMLID_794_" d="m434.8 425.4h10v10h-10z"/><path id="XMLID_791_" d="m417 407.7h10v10h-10z"/><path id="XMLID_788_" d="m46.6 434.3h10v10h-10z"/><path id="XMLID_779_" d="m64.3 416.6h10v10h-10z"/></g></g></g></svg>