<svg version="1.2" xmlns="http://www.w3.org/2000/svg" viewBox="0 0 512 512" width="512" height="512">
	<title>haemir-svg</title>
	<style>
		.s0 { fill: #67a099 } 
		.s1 { fill: #2a776c } 
		.s2 { fill: #61bcb1 } 
		.s3 { fill: #5ae1d0 } 
		.s4 { fill: none;stroke: #5ae1d0;stroke-width: 9 } 
		.s5 { fill: #fea613 } 
		.s6 { fill: #fac600 } 
		.s7 { fill: #fff364 } 
		.s8 { fill: #e2772c } 
		.s9 { fill: #ffffff } 
		.s10 { fill: #cadded } 
		.s11 { fill: #fda616 } 
		.s12 { fill: #e27a31 } 
		.s13 { fill: #fdb233 } 
		.s14 { fill: #f9c502 } 
	</style>
	<g id="Layer_3">
		<g id="_x30_60---Spell-Book">
			<g id="Ellipse_1_xA0_Изображение_1_">
				<g id="Layer">
					<ellipse id="Layer" class="s0" cx="255.6" cy="271.9" rx="240.4" ry="240.3"/>
				</g>
			</g>
		</g>
	</g>
	<g id="Layer_7">
		<path id="Layer" class="s1" d="m145.1 224.2c2.7-2.2 108.5-83 110.3-83.5 1.8-0.4 110.3 82.2 110.3 82.2v175.4l-216.5-0.9z"/>
		<path id="Layer" class="s2" d="m219.3 266.4h73.8v135.1h-73.8z"/>
		<path id="Layer" class="s3" d="m115.2 247.3c-6.3-4.7-6.3-15.2 0-19.9l138.9-103.5c1.1-0.9 2.6-0.9 3.7 0l138.9 103.5c6.4 4.7 6.4 15.2 0 19.9-3.6 2.7-8.2 2.7-11.8 0l-127.1-94.7c-1.1-0.8-2.6-0.8-3.7 0l-127.1 94.7c-3.5 2.6-8.2 2.6-11.8 0z"/>
		<path id="Layer" class="s4" d="m293.1 269.3v137.3h-74.3v-137.3c0-2.9 2.2-5.4 4.9-5.4h64.5c2.7 0 4.9 2.5 4.9 5.4z"/>
		<path id="Layer" class="s3" d="m395 400.2c0 6.2-4.4 11.1-9.9 11.1h-258.2c-5.4 0-9.9-5-9.9-11.1 0-6.2 4.5-11.1 9.9-11.1h258.2c5.4 0 9.8 5 9.9 11.1z"/>
		<path id="Layer" class="s4" d="m364.6 214.8v191.7h-217.2v-191.7l108.5-80.9 108.6 80.9z"/>
	</g>
	<g id="Layer_1">
		<path id="Layer" class="s5" d="m284.2 209c-2.6 16.1-17.7 27-33.8 24.4-16.1-2.6-27-17.7-24.4-33.8 2.6-16.1 17.7-27 33.8-24.4 16.1 2.6 27 17.7 24.4 33.8z"/>
		<g id="Layer">
			<g id="Layer">
				<path id="Layer" class="s6" d="m284.4 209.1c-2.6 16.1-17.7 27-33.8 24.4-16.1-2.6-27-17.8-24.4-33.8 2.6-16.1 17.7-27 33.8-24.4 16.1 2.6 27 17.7 24.4 33.8z"/>
			</g>
		</g>
		<ellipse id="Layer" class="s7" cx="255.5" cy="204.3" rx="15.4" ry="15.5"/>
		<ellipse id="Layer" class="s5" cx="365.5" cy="397.1" rx="22.6" ry="22.6"/>
		<g id="Layer">
			<g id="Layer">
				<ellipse id="Layer" class="s6" cx="365.7" cy="397.1" rx="22.6" ry="22.6"/>
			</g>
		</g>
		<ellipse id="Layer" class="s8" cx="365.9" cy="221.2" rx="15.3" ry="15.3"/>
		<g id="Layer">
			<g id="Layer">
				<ellipse id="Layer" class="s8" cx="365.9" cy="221" rx="15.1" ry="15.1"/>
			</g>
			<g id="Layer">
				<ellipse id="Layer" class="s5" cx="366.1" cy="221.1" rx="15.1" ry="15.1"/>
			</g>
		</g>
		<circle id="Layer" class="s9" cx="365.9" cy="221.2" r="5.8"/>
		<circle id="Layer" class="s8" cx="147.8" cy="372.8" r="12.6"/>
		<g id="Layer">
			<g id="Layer">
				<circle id="Layer" class="s8" cx="147.9" cy="372.6" r="12.4"/>
			</g>
			<g id="Layer">
				<circle id="Layer" class="s5" cx="147.9" cy="372.7" r="12.4"/>
			</g>
		</g>
		<ellipse id="Layer" class="s5" cx="146.4" cy="201.3" rx="17.6" ry="17.6"/>
		<g id="Layer">
			<g id="Layer">
				<ellipse id="Layer" class="s5" cx="146.4" cy="201.3" rx="17.6" ry="17.6"/>
			</g>
			<g id="Layer">
				<ellipse id="Layer" class="s6" cx="146.4" cy="201" rx="17.4" ry="17.4"/>
			</g>
			<g id="Layer">
				<ellipse id="Layer" class="s6" cx="146.5" cy="201.1" rx="17.4" ry="17.4"/>
			</g>
		</g>
		<path id="Layer" class="s2" d="m369.2 78c-2.6 1.6-7 3.1-9.1 5.3-5 5.1-6 7.1-8.3 14.9-0.4 1.3-1.4 4.1-1.7 5.5-2 7.7-1.7 15.5-1.7 23.4 0 1.8 0.1 3.5 0 5.3-0.1 2.8-1.8 4.5-4.4 4.5-2.5 0-4.2-1.7-4.2-4.6-0.1-6.1 0.2-12.3-0.2-18.5-0.4-8.7-2.9-16.8-7.2-24.3-4.3-7.4-11-10.9-19.2-12.8-9.7-2.3-19.5-2.1-29.4-2.2-1.3 0-2.7-0.3-4-0.7-1.6-0.5-2.3-1.9-2.3-3.6 0-1.6 0.6-2.9 2.2-3.5 1.1-0.4 2.3-0.8 3.5-0.8 4.3-0.1 8.6-0.1 12.9 0 8.1 0.2 15.7-0.8 23.4-3 7.1-3.7 10.3-7.4 13.5-12.8 0.5-0.6 1-1.3 1.5-1.9 0.6 1.1 1.2 2.3 1.8 3.4 4.3 8.8 10.5 15.8 18.9 20.9 4.3 2.7 8.7 5.4 14 5.5z"/>
		<path id="Layer" class="s3" d="m318.8 61.2c3.4-0.9 5.5-3 8-5 5.8-4.8 8.3-11.7 10.6-18.6 2.7-8.4 2.3-16.9 2.3-25.5 0-1.8-0.1-3.5 0-5.3 0.1-2.8 1.8-4.4 4.4-4.4 2.5 0 4.2 1.6 4.2 4.5 0.1 6.2-0.2 12.3 0.1 18.5 0.5 8.7 3 16.8 7.3 24.3 4.3 7.4 11 10.9 19.2 12.8 9.7 2.3 19.5 2.1 29.4 2.2 1.3 0 2.7 0.3 4 0.7 1.6 0.5 2.3 1.9 2.3 3.6 0 1.6-0.6 2.9-2.2 3.5-1.1 0.4-2.3 0.8-3.5 0.8-4.3 0.1-8.6 0.1-12.9 0-8.1-0.2-15.9 1.8-23.5 4-6.1 1.8-9.3 6.1-12.6 11.4-1 2.3-1.1 2.7-1.4 3.6-0.6-1.1-2.1-3.6-2.6-4.8-4.3-8.8-10.6-15.9-19-20.9-4.4-2.6-8.7-5.3-14.1-5.4z"/>
		<path id="Layer" class="s6" d="m379.7 197.5c-0.5-0.7-0.5-1.5 0-2.1 0.4-0.7 1.1-1.4 1.7-2 1.5-1.7 2.9-2.9 4.3-4.6 2.2-2.4 4-2.4 6.2 0.1 1.4 1.6 3 2.9 4.4 4.4 2.2 2.3 2.1 3.6-0.1 6.1-1.3 1.4-2.7 2.8-4 4.2-1.9 2.1-4.4 2.8-6.9 0.1-1.4-1.6-2.6-2.7-4.1-4.3-0.3-0.4-1.1-1.4-1.5-1.9z"/>
		<path id="Layer" class="s3" d="m36.6 221.8c-0.4-0.6-0.4-1.5 0-2.1 0.5-0.7 1.2-1.3 1.7-2 1.6-1.6 2.9-2.9 4.4-4.6 2.2-2.4 4-2.4 6.2 0.1 1.4 1.6 2.9 2.9 4.3 4.4 2.3 2.3 2.2 3.6 0 6.1-1.3 1.4-2.7 2.8-4 4.2-1.9 2.1-4.4 2.8-6.9 0.1-1.5-1.6-2.6-2.6-4.1-4.3-0.4-0.4-1.2-1.4-1.6-1.9z"/>
		<path id="Layer" class="s6" d="m266 330.1c-0.4-0.7-0.4-1.5 0-2.1 0.5-0.7 1.2-1.4 1.7-2 1.6-1.7 2.9-2.9 4.4-4.6 2.2-2.4 4-2.4 6.2 0.1 1.4 1.6 2.9 2.9 4.3 4.4 2.3 2.3 2.2 3.6 0 6.1-1.3 1.4-2.7 2.8-4 4.2-1.9 2.1-4.4 2.8-6.9 0.1-1.5-1.7-2.6-2.7-4.1-4.3-0.4-0.4-1.2-1.4-1.6-1.9z"/>
		<path id="Layer" class="s9" d="m365.3 107.9c-0.4-0.6-0.4-1.5 0-2.1 0.5-0.7 1.1-1.3 1.7-1.9 1.6-1.7 2.9-3 4.4-4.6 2.2-2.4 4-2.4 6.1 0 1.4 1.6 3 2.9 4.4 4.4 2.3 2.3 2.1 3.6 0 6.1-1.3 1.5-2.7 2.8-4 4.3-1.9 2-4.4 2.7-6.9 0-1.5-1.6-2.7-2.6-4.2-4.2-0.3-0.4-1.1-1.4-1.5-2z"/>
		<path id="Layer" class="s9" d="m182.5 284.7c0.9 0 1.8 0 2.8 0 0.5 1 1.1 2.1 1.5 3.2 1.5 4.2 6 8.3 10.1 10.2 1.6 0.8 1.4 0.8 3 1.7 0 0.7 0 1.5 0 2.2-0.9 0.5-1.8 1.1-2.7 1.4-5.1 1.5-8.3 5-10.4 9.7-0.5 1.2-1.3 2.3-2 3.5-0.8 0-1.6 0-2.3 0-0.4-0.7-1.3-2.5-1.6-3.2-2-6.8-6.2-9.7-13-11.4 0-0.9 0-1.8 0-2.8 0.9-0.4 2.2-0.7 3.2-1.2 4.9-2.1 7.9-5.5 9.9-10.2 0.5-1.3 0.9-1.9 1.5-3.1z"/>
		<path id="Layer" class="s10" d="m126.8 436.5c-2.3 1.5-6.2 2.8-8.1 4.7-4.3 4.5-5.3 6.3-7.3 13.3-0.4 1.1-1.2 3.6-1.5 4.8-1.8 6.8-1.4 13.8-1.4 20.7 0 1.6 0 3.2 0 4.7-0.1 2.4-1.6 4-3.9 3.9-2.3 0-3.7-1.5-3.8-4-0.1-5.5 0.2-10.9-0.1-16.4-0.4-7.7-2.6-14.9-6.4-21.6-3.8-6.5-9.7-9.6-16.9-11.2-8.7-2.1-17.3-1.9-26.1-2-1.2 0-2.4-0.2-3.6-0.6-1.3-0.5-1.9-1.7-1.9-3.1 0-1.5 0.5-2.7 1.9-3.2q1.5-0.6 3.1-0.7 5.8-0.1 11.4 0c7.2 0.2 13.9-0.7 20.7-2.8 6.3-3.1 9.1-6.5 12-11.2 0.4-0.6 0.8-1.1 1.3-1.8 0.5 1.1 1 2.1 1.5 3.1 3.9 7.7 9.3 14 16.8 18.5 3.7 2.5 7.6 4.9 12.3 4.9z"/>
		<path id="Layer" class="s9" d="m80.8 423.8c3-0.9 4.9-2.7 7.1-4.5 5.1-4.2 7.4-10.3 9.4-16.4 2.4-7.4 2-15 2-22.6 0-1.6-0.1-3.1 0-4.7 0-2.4 1.5-4 3.8-3.9 2.3 0 3.7 1.5 3.8 4.1 0.1 5.5-0.2 10.8 0.1 16.3 0.4 7.7 2.6 14.9 6.4 21.6 3.9 6.5 9.7 9.6 16.9 11.2 8.7 2.1 17.3 2 26.1 2 1.2 0 2.4 0.2 3.6 0.6 1.3 0.5 1.9 1.7 1.9 3.2 0 1.4-0.5 2.6-1.9 3.2q-1.5 0.5-3.1 0.6-5.7 0.1-11.4 0c-7.2-0.1-14.1 1.6-20.8 3.6-5.4 1.6-8.2 5.4-11.1 10.1-0.9 2.1-1.1 2.3-1.3 3.2-0.5-1-1.8-3.2-2.3-4.3-3.8-7.7-9.3-14-16.7-18.5-3.9-2.4-7.8-4.7-12.5-4.8z"/>
		<path id="Layer" class="s11" d="m1030.8 265.4c0.3-0.3 0.6-0.5 0.9-0.8-0.3 0.3-0.7 0.5-0.9 0.8z"/>
		<path id="Layer" class="s12" d="m569.4 215.8c-0.2 0.1-0.4 0.3-0.6 0.4 0.2-0.1 0.4-0.2 0.6-0.4z"/>
		<path id="Layer" class="s12" d="m167.5 488.9q-0.4 0.3-0.7 0.5 0.3-0.2 0.7-0.5z"/>
		<path id="Layer" class="s12" d=""/>
		<path id="Layer" class="s11" d="m910.2 567.2c0.2-0.2 0.5-0.4 0.7-0.6-0.2 0.2-0.4 0.5-0.7 0.6z"/>
		<path id="Layer" class="s13" d="m862.5 222.6c0.1 0.4 0.4 0.7 0.5 1.1-0.1-0.4-0.4-0.7-0.5-1.1z"/>
		<path id="Layer" class="s5" d="m251 88.4c0.4 0.7 0.4 1.3 0.5 2 0.9 6.1 3.9 11.3 7.9 15.9 3.8 4.2 8.5 7.4 14.1 9 1.4 0.4 2.9 0.8 4.3 1.2-1.9 0.8-3 1.4-3.9 2-6.3 3.3-10.3 8.5-12.6 15.2q-0.8 2.1-1.5 4.2c-0.7 1.8-2.1 2.4-3.8 2.4-1.6 0-2.9-0.7-3.5-2.3-0.4-1-0.9-2.1-1.2-3.2-2.4-7.7-7.1-13.4-14.4-16.9-2.5-1.3-5.3-2.3-7.9-3.5-0.5-0.1-0.9-0.2-1.3-0.5-1.5-0.7-2.8-1.8-2.7-3.5 0.1-1.9 1.2-3.1 2.9-3.8 1.6-0.6 3.2-1.1 4.7-1.7 8.1-3.2 14.9-8.3 18.4-16.5z"/>
		<path id="Layer" class="s14" d="m261.6 132.1c-0.4-0.6-0.4-1.2-0.5-1.9-0.9-6.2-3.9-11.4-7.9-15.9-3.8-4.3-8.5-7.5-14.1-9-1.4-0.4-2.8-0.8-4.2-1.2 1.9-0.9 2.9-1.5 3.8-2 6.4-3.3 10.3-8.6 12.7-15.3q0.7-2.1 1.5-4.2c0.6-1.7 2-2.3 3.7-2.3 1.6 0 2.9 0.6 3.6 2.3 0.3 1 0.8 2 1.1 3.1 2.4 7.7 7.1 13.5 14.4 17 2.6 1.2 5.3 2.3 7.9 3.4 0.5 0.2 0.9 0.3 1.3 0.5 1.5 0.7 2.8 1.8 2.7 3.6 0 1.8-1.2 3.1-2.9 3.7-1.6 0.7-3.1 1.2-4.7 1.8-8.1 3.1-14.9 8.2-18.4 16.4z"/>
		<path id="Layer" class="s2" d="m327.3 255.5c0.2 0.4 0.2 0.8 0.3 1.3 0.6 4 2.5 7.4 4.9 10.3 2.3 2.8 5.2 4.9 8.7 5.9 0.9 0.3 1.8 0.5 2.7 0.8-1.2 0.6-1.9 1-2.4 1.3-3.9 2.1-6.3 5.6-7.8 9.9-0.3 0.9-0.6 1.9-0.9 2.8-0.4 1.1-1.3 1.5-2.3 1.5-1.1 0-1.8-0.5-2.2-1.5-0.3-0.7-0.5-1.4-0.8-2.1-1.4-5-4.3-8.7-8.8-11-1.6-0.8-3.3-1.5-4.9-2.2-0.3-0.1-0.6-0.2-0.8-0.4-0.9-0.4-1.7-1.1-1.7-2.3 0.1-1.2 0.8-2 1.8-2.5 1-0.4 1.9-0.7 2.9-1.1 5-2 9.2-5.3 11.3-10.7z"/>
		<path id="Layer" class="s3" d="m333.8 284c-0.2-0.5-0.2-0.9-0.3-1.3-0.5-4.1-2.4-7.4-4.8-10.4-2.3-2.7-5.3-4.9-8.7-5.9-0.9-0.3-1.8-0.5-2.7-0.8 1.2-0.5 1.9-0.9 2.4-1.3 4-2.1 6.4-5.6 7.8-9.9 0.4-0.9 0.7-1.8 1-2.7 0.4-1.1 1.2-1.5 2.3-1.5 1 0 1.7 0.4 2.2 1.5 0.2 0.7 0.5 1.3 0.7 2 1.5 5 4.4 8.7 8.9 11 1.5 0.8 3.3 1.6 4.8 2.3 0.3 0.1 0.6 0.1 0.8 0.3 0.9 0.5 1.8 1.2 1.7 2.4-0.1 1.1-0.7 2-1.8 2.4-0.9 0.4-1.9 0.8-2.9 1.2-5 2-9.2 5.3-11.4 10.7z"/>
		<path id="Layer" class="s6" d="m153.1 169.6c-0.3-0.5-0.3-1.2 0-1.7 0.4-0.5 0.9-1.1 1.3-1.5 1.3-1.3 2.3-2.3 3.4-3.6 1.7-1.9 3.1-1.9 4.9 0 1 1.3 2.3 2.3 3.4 3.5 1.7 1.8 1.7 2.8-0.1 4.7-1 1.1-2 2.2-3.1 3.3-1.4 1.6-3.4 2.1-5.3 0-1.2-1.3-2.1-2-3.3-3.3-0.2-0.3-0.8-1-1.2-1.4z"/>
		<path id="Layer" class="s9" d="m463.5 303.2c-0.5-0.6-0.5-1.5 0-2.1 0.4-0.7 1.1-1.4 1.7-2 1.5-1.6 2.9-2.9 4.3-4.6 2.2-2.4 4-2.4 6.2 0.1 1.4 1.6 3 2.9 4.4 4.4 2.2 2.3 2.1 3.6-0.1 6.1-1.3 1.4-2.7 2.8-4 4.2-1.9 2.1-4.4 2.8-6.9 0.1-1.4-1.6-2.6-2.6-4.1-4.3-0.3-0.4-1.1-1.3-1.5-1.9z"/>
		<path id="Layer" class="s3" d="m137.8 460.9c-0.4-0.7-0.4-1.6 0-2.2 0.5-0.6 1.1-1.3 1.7-1.9 1.6-1.7 2.9-2.9 4.4-4.6 2.2-2.4 4-2.4 6.1 0 1.5 1.6 3 2.9 4.4 4.5 2.3 2.3 2.2 3.5 0 6-1.3 1.5-2.7 2.8-4 4.3-1.9 2-4.4 2.7-6.9 0-1.5-1.6-2.6-2.6-4.2-4.2-0.4-0.5-1.1-1.4-1.5-1.9z"/>
	</g>
	<g id="Layer_4">
		<path id="Layer" class="s9" d="m356.3 198.5l-1 1c-1.4 1.4-3.7 1.5-5.1 0.1l-74.1-65.2c-1.4-1.3-1.5-3.7-0.1-5.1l1-1c1.3-1.4 3.7-1.5 5.1-0.1l74.1 65.2c1.4 1.4 1.5 3.7 0.1 5.1z"/>
		<path id="Layer" class="s9" d="m168.7 188.8l-1.3-0.5q-0.2-0.1-0.4-0.2c-2-1.2-2.1-4-0.4-5.6l64.8-53.9c0.9-1.9 3-2.7 4.9-1.8l1.3 0.5c1.8 0.9 2.6 3 1.8 4.8l-65.4 54.5q-0.4 0.3-0.7 0.8c-0.9 1.6-2.9 2.3-4.6 1.4z"/>
		<rect id="Layer" class="s9" x="251.4" y="144.2" width="8.9" height="25.2" rx="4"></rect>
		<path id="Layer" class="s9" d="m146.7 223.9l1.5-0.1c2 0 3.6 1.6 3.7 3.6l0.2 123.3c0.1 2-1.5 3.7-3.6 3.7l-1.4 0.1c-2 0-3.7-1.6-3.7-3.6l-0.2-123.3c-0.1-2 1.5-3.7 3.5-3.7z"/>
		<path id="Layer" class="s9" d="m363.4 241.8h1.5c1.9-0.1 3.6 1.5 3.7 3.6l0.2 117.1c0.1 1.9-1.6 3.6-3.6 3.7h-1.4c-2 0.1-3.7-1.5-3.7-3.5l-0.3-117.2c0-1.9 1.6-3.6 3.6-3.7z"/>
	</g>
</svg>