<svg id="Layer_1" data-name="Layer 1" xmlns="http://www.w3.org/2000/svg" xmlns:xlink="http://www.w3.org/1999/xlink" viewBox="0 0 2000 2000"><defs><style>.cls-1{fill:none;}.cls-2{fill:#aed76a;}.cls-3{clip-path:url(#clip-path);}.cls-4{fill:#fecfae;}.cls-5{fill:#967266;}.cls-6{fill:#725b51;}.cls-7{fill:#4c3b36;}.cls-8{fill:#ddcbb8;}.cls-9{fill:#592710;}.cls-10{clip-path:url(#clip-path-2);}.cls-11{fill:#441c0c;}.cls-12{fill:#773825;}.cls-13{fill:#724e44;}.cls-14{fill:#77a22f;}.cls-15{fill:#1e1713;}.cls-16{fill:#a3acaf;opacity:0.8;}.cls-17{fill:#838c8e;}.cls-18{fill:#cfe59a;}.cls-19{fill:#afd86a;}</style><clipPath id="clip-path"><path class="cls-1" d="M1295,982.17c88.16-10.86,178.25,6.37,251.29,50.58,102.94,62.31,232.34,210.15,172,325.76-115.66,221.56-191.81,299.68-569.2,315.12-357.27,14.61-329.93-70.36-451.17-61.29-91.94,6.88-511.57,24.73-506.72-352.19,2.44-189.57,155.47-385,652.54-378C1053.5,885.12,1241.2,988.8,1295,982.17Z"/></clipPath><clipPath id="clip-path-2"><path class="cls-1" d="M1603.05,962.07s-298.47-137.58-228.24-327.83l-514,44.69s-15.39,93.7,20.4,177.33,122.76,157.16,139.13,167.39c32.73,20.46,161.69,0,161.69,0Z"/></clipPath></defs><path class="cls-2" d="M1312.94,982.42c84.58-10.92,171,6.27,241.06,50.43,98.73,62.25,222.79,210,164.83,325.66-111.09,221.63-184.19,299.79-546.28,315.43-342.77,14.81-316.5-70.17-432.82-61-88.22,6.93-490.83,25-486-351.91C256.21,1071.43,403.13,875.94,880,882.66,1081.32,885.5,1261.35,989.07,1312.94,982.42Z"/><g class="cls-3"><path class="cls-4" d="M687.88,1321.2S578,1373.77,639.52,1437.08s348.24,73.08,361.17,191.66-86,145.6-86,145.6l324.76-30.87s64.53-142.76-324.76-266.81c-287.68-91.67-144.07-128-144.07-128Z"/></g><path class="cls-5" d="M580.38,698.23s-16,88.84-137.8,117.31L466.7,859.9s85.37-15.28,104.14-32.3,26.64-117.52,26.64-117.52Z"/><polygon class="cls-6" points="1023.67 1382.13 1455.19 1284.81 1442.7 996.89 1023.67 1055.61 1023.67 1382.13"/><polygon class="cls-7" points="1021.75 1091.36 1466.71 1023.65 1455.19 943.23 1050.48 977.72 1021.75 1091.36"/><path class="cls-7" d="M914.67,1401.26,564.82,1275.44,552.35,887.83l55-49.39V700.63l31.33-54.58,179.58,45L939.4,1018.58S968.48,1377.89,914.67,1401.26Z"/><path class="cls-5" d="M639.52,651.84s-20,119.16-50.35,160.47l-36.88-37.62S579,725.85,596.88,625.3,639.52,651.84,639.52,651.84Z"/><polygon class="cls-8" points="1480.78 1313.29 1531.86 1302.04 1531.86 992.41 1468.01 992.41 1480.78 1313.29"/><path class="cls-5" d="M1433.69,943.23l-4.08,351.58s23.23,19.28,51.17,18.48V987.86Z"/><path class="cls-9" d="M1603.05,962.07s-298.47-137.58-228.24-327.83l-514,44.69s-15.39,93.7,20.4,177.33,122.76,157.16,139.13,167.39c32.73,20.46,556-45.46,556-45.46Z"/><g class="cls-10"><path class="cls-11" d="M1389.39,704.16c-6,5.68-13.52,4-20.59,4.12a22.37,22.37,0,0,1-6.52-1.35c-3.31-1-5.54.11-7,3.18-8.7,18.48-25.15,20.42-42.67,19.68-7.32-.3-14.49-1.62-20.93-5.66-3.17-2-5.35-1.2-7.5,2.45-12.64,21.61-42.67,25.8-62.67,20.15-9.55-2.7-17.93-7.83-26.83-13.31-3.8,11-10.7,18.91-21.39,22-19.43,5.56-38.83,6.48-57.28-4-1.93-1.09-3.8-2.28-5.73-3.37-8.41-4.72-8.82-5-14.55,3.23-6.93,10-16.12,15-28.06,15.44a20.86,20.86,0,0,0-3.79.44,48.42,48.42,0,0,1-37.57-6.21c-3.65-2.26-6.06-2.37-8.74,1.36-11.78,16.41-29.55,18.5-47.6,18.82a56.29,56.29,0,0,1-25-5c-2-.94-4.56-1.44-5.89-3-6.37-7.36-12.9-7.14-20.49-1.81-5.32,3.73-11.8,4.51-18.2,4.9a41,41,0,0,1-8.12-12.33c8.37-6.27,17-12.29,25.05-18.92,5.94-4.86,11.54-5.5,18.4-2,8.19,4.14,16.48,8,25.61,10.12,15.91,3.7,29.49-.65,41.9-10.3,2.79-2.17,4.53-5.18,6.24-8.3,5-9.15,13.08-10,21.48-3.24,7.45,6,15.72,10.67,25.31,12.61,1.92.38,3.87,1,5.61.11,11.24-5.57,24.11-8.94,29.78-22.13,1.14-2.66,3.29-3.64,6.79-3.85,11.68-.69,21.72,3.65,31.73,8.57,1.71.84,3.45,1.63,5.11,2.56,15.8,8.89,26.56,4.33,40.54-5.2,3.1-2.11,5.53-5.21,8.24-7.88,11.2-11,19.14-11.74,33.06-3.51,5.71,3.38,11.24,7.12,17.77,9.06,7.43,2.2,14.35,2.49,20.56-3.07,1.17-1.05,2.76-1.62,4-2.64,2.42-2,6.31-2,7.82-5.13,1.42-3-1.49-5.27-1.79-8.11-.74-7,1.34-10.09,8.14-11.45,7.7-1.54,14.42.54,20.67,5a74.36,74.36,0,0,0,24.88,11.49c5.74,1.46,19.15-4,21.81-9a4.62,4.62,0,0,0,.09-4.55c-.75-1.4-1.74-2.68-2.45-4.1-4.08-8.1-2.22-11.56,6.71-12.83a30.49,30.49,0,0,1,12.29.38c3.67,1,7.43,1.91,11.27.61h0a2,2,0,0,0,1.67,2Z"/><path class="cls-11" d="M1405,798.3c-5.73,6-13.32,4.58-20.39,5.06a22.42,22.42,0,0,1-6.57-1.05c-3.35-.81-5.52.37-6.82,3.5-7.84,18.87-24.19,21.56-41.72,21.63-7.32,0-14.55-1-21.17-4.69-3.26-1.84-5.4-1-7.38,2.8-11.63,22.17-41.44,27.73-61.68,23-9.66-2.25-18.27-7-27.41-12.06-3.29,11.13-9.82,19.38-20.36,22.93-19.14,6.45-38.49,8.27-57.4-1.34-2-1-3.9-2.11-5.88-3.1-8.61-4.33-9-4.59-14.39,3.89-6.46,10.27-15.41,15.7-27.31,16.71a20.89,20.89,0,0,0-3.77.62,48.41,48.41,0,0,1-37.81-4.47c-3.76-2.09-6.17-2.09-8.67,1.76-11,16.93-28.67,19.84-46.69,21a56.32,56.32,0,0,1-25.22-3.88c-2-.84-4.62-1.22-6-2.7-6.71-7.06-13.22-6.54-20.55-.87-5.15,4-11.58,5.05-18,5.74a40.88,40.88,0,0,1-8.67-11.94c8.07-6.66,16.37-13.07,24.15-20.06,5.71-5.13,11.27-6,18.29-2.87,8.36,3.76,16.83,7.24,26,8.93,16.06,3,29.43-2,41.38-12.22,2.69-2.29,4.29-5.38,5.86-8.58,4.59-9.37,12.6-10.55,21.3-4.22,7.71,5.61,16.2,9.94,25.87,11.42,1.93.3,3.91.8,5.6-.14,11-6.09,23.68-10,28.73-23.48,1-2.7,3.12-3.79,6.61-4.15,11.63-1.23,21.86,2.64,32.09,7.09,1.75.76,3.52,1.47,5.22,2.32,16.2,8.16,26.73,3.11,40.26-7.06,3-2.25,5.28-5.46,7.87-8.25,10.68-11.51,18.58-12.61,32.86-5,5.86,3.12,11.56,6.6,18.16,8.23,7.54,1.86,14.46,1.82,20.4-4,1.13-1.1,2.69-1.74,3.85-2.81,2.32-2.15,6.21-2.28,7.57-5.49,1.29-3-1.72-5.2-2.15-8-1.07-7,.86-10.14,7.6-11.81,7.62-1.89,14.43-.13,20.87,4A74.64,74.64,0,0,0,1335,805c5.8,1.19,18.94-4.92,21.38-10a4.64,4.64,0,0,0-.13-4.55c-.81-1.37-1.86-2.6-2.63-4-4.46-7.91-2.76-11.45,6.1-13.13a30.69,30.69,0,0,1,12.3-.19c3.71.8,7.51,1.57,11.28.09h0a2,2,0,0,0,1.76,1.91Z"/></g><path class="cls-12" d="M638.48,579.33l511.14-26.16L1390.13,587,896.62,662.33S612.41,617,638.48,579.33Z"/><polygon class="cls-8" points="584.42 579.33 638.48 579.33 896.62 634.24 805.67 653.39 584.42 579.33"/><path class="cls-11" d="M1478.59,901.53c-5.72,5.94-13.32,4.57-20.38,5.06a22.06,22.06,0,0,1-6.57-1.06c-3.36-.81-5.53.37-6.83,3.5-7.84,18.87-24.19,21.57-41.71,21.64-7.33,0-14.55-1-21.17-4.69-3.27-1.85-5.41-1-7.38,2.79-11.64,22.17-41.44,27.73-61.69,23-9.65-2.25-18.27-7-27.4-12.06-3.29,11.13-9.83,19.38-20.36,22.93-19.15,6.45-38.49,8.27-57.4-1.34-2-1-3.9-2.11-5.88-3.1-8.62-4.33-9-4.59-14.39,3.89-6.47,10.27-15.41,15.7-27.31,16.72a19.9,19.9,0,0,0-3.77.61,48.39,48.39,0,0,1-37.82-4.47c-3.75-2.08-6.16-2.09-8.67,1.76-11,16.93-28.66,19.84-46.68,21a56.34,56.34,0,0,1-25.23-3.87c-2-.85-4.62-1.23-6-2.71-6.7-7.06-13.21-6.54-20.55-.87-5.14,4-11.57,5-18,5.74a41.06,41.06,0,0,1-8.67-11.94c8.07-6.66,16.37-13.07,24.15-20,5.71-5.13,11.27-6,18.29-2.88,8.37,3.76,16.83,7.24,26,8.94,16.06,3,29.43-2,41.38-12.23,2.68-2.29,4.28-5.38,5.85-8.58,4.59-9.37,12.6-10.54,21.3-4.22,7.72,5.62,16.2,9.94,25.87,11.43,1.93.29,3.91.8,5.61-.14,11-6.09,23.67-10.05,28.72-23.49,1-2.7,3.12-3.78,6.61-4.15,11.64-1.23,21.87,2.64,32.09,7.09,1.75.76,3.53,1.47,5.23,2.32,16.19,8.16,26.73,3.11,40.26-7.06,3-2.25,5.28-5.46,7.86-8.25,10.69-11.51,18.58-12.61,32.87-5,5.86,3.11,11.55,6.59,18.16,8.22,7.53,1.86,14.45,1.83,20.4-4,1.12-1.11,2.69-1.75,3.84-2.82,2.33-2.15,6.21-2.28,7.58-5.48,1.28-3-1.73-5.2-2.16-8-1.06-6.95.87-10.13,7.61-11.81,7.61-1.89,14.42-.12,20.87,4a74.35,74.35,0,0,0,25.39,10.34c5.8,1.19,18.94-4.92,21.37-9.95a4.61,4.61,0,0,0-.13-4.55c-.8-1.37-1.85-2.6-2.63-4-4.45-7.9-2.75-11.45,6.11-13.12a30.46,30.46,0,0,1,12.29-.2c3.71.8,7.52,1.58,11.29.09h0a2.06,2.06,0,0,0,1.76,1.92Z"/><path class="cls-11" d="M896.62,686.91l478.19-52.67L1390.13,587,889.6,640S866.61,674.46,896.62,686.91Z"/><path class="cls-8" d="M1076.45,1019.85S880.26,943.23,880.45,694l-50.3-3s12.52,209.72,79.56,265.27,114,61,114,61S1056.44,1041.24,1076.45,1019.85Z"/><polygon class="cls-8" points="977.7 1438.03 1038.99 1424.62 1038.99 1055.61 962.38 1055.61 977.7 1438.03"/><polygon class="cls-9" points="664.56 1317.04 798.96 1358.62 807.73 1044.03 729.09 943.3 658.9 1016.84 664.69 1305.2 664.56 1317.04"/><path class="cls-8" d="M616.24,1294.83l28.89,13.71-1.55-39.61,15.32,45.63,25.49,6.71,3.5-292.57a24.09,24.09,0,0,1,6.13-15.91l30.68-33.73c9-9.93,24-9,31.94,1.94l39,63.28a24.38,24.38,0,0,1,4.47,15.43l-8.74,297.63,33.83,14.13,2.35-43.21,8,46,24.94,8.88,9.18-353.2a46.27,46.27,0,0,0-9.16-29l-81-107c-14.46-19.1-40.63-21.53-57.94-5.38l-88.07,82.2a45.6,45.6,0,0,0-14.12,32.82Z"/><path class="cls-5" d="M603.86,1286.06l26.84,19,3-52.77,9.36,55.33,29.24,12.77,3.11-291.86a24.08,24.08,0,0,1,6.12-15.91l30.68-33.73c9-9.93,24-9,31.95,1.94l39,63.28a24.33,24.33,0,0,1,4.48,15.43l-8.42,293,30.67,12.16,7.37-32.74,4.24,38,27.5,11.2,8.24-351.38a46.27,46.27,0,0,0-9.16-29l-81-107c-14.45-19.1-40.63-21.53-57.93-5.38l-88.07,82.2A45.6,45.6,0,0,0,607,1003.45Z"/><path class="cls-11" d="M698.67,1327.59c0-12.73,10.42-295.52,10.42-295.52l14.84-35-2.55,228.12,8.64-18.64L738,1028l12.16,6.11L734.7,1326.3l12.16,6.17,14.31-285,14.34,9.78-8.41,291.53Z"/><polygon class="cls-5" points="584.42 579.33 584.42 638.07 834.69 700.63 834.69 634.24 584.42 579.33"/><path class="cls-5" d="M921.2,997l-4.9,419s27.88,23,61.4,22V1050.18Z"/><polygon class="cls-8" points="543.67 1278.65 564.82 1275.44 566.09 887.83 527.79 887.83 543.67 1278.65"/><path class="cls-5" d="M494.76,823.79l-4.42,442.94s24.65,12.88,53.33,11.92l-.56-441.89Z"/><polygon class="cls-13" points="1023.67 1017.3 1076.45 1019.85 1038.99 1081.99 998.77 1077.95 947 1006.66 1023.67 1017.3"/><path class="cls-5" d="M808.94,686.91S765.1,909.4,998.77,1078l5.75-26.18-40.86-28.72,48.52,16,11.49-21.71S873.25,979,846.37,699Z"/><path class="cls-13" d="M834.69,634.24h61.93l-4.47,58.09-57.46,8.3S824.48,660.41,834.69,634.24Z"/><polygon class="cls-11" points="1057.26 1051.69 1584.22 984.1 1603.05 962.07 1343.32 990.57 1076.45 1019.85 1057.26 1051.69"/><path class="cls-5" d="M517.71,760.62l13.11-2.89,146.43-12.58V868.93c0,11.2-5.28,21.9-14.57,29.55L627,927.89C614.72,938,595.88,938.41,583,929l-49.72-36.63c-9.37-6.91-14.81-17.09-14.89-27.86Z"/><path class="cls-8" d="M530.82,757.73l159.53-15.47V866.05c0,11.2-5.27,21.9-14.57,29.54L640.06,925c-12.24,10.07-31.08,10.53-43.92,1.07l-49.71-36.64c-9.37-6.9-14.82-17.09-14.89-27.85Z"/><path class="cls-6" d="M555.91,777.48,668,765.83V859a29.67,29.67,0,0,1-10.24,22.24l-25.09,22.14a24.34,24.34,0,0,1-30.85.79L566.87,876.6a27,27,0,0,1-10.46-21Z"/><path class="cls-14" d="M645,787.07a2.5,2.5,0,0,0-1.17,3.12C597.2,804.77,589,828.73,587.68,838.5A13.65,13.65,0,0,0,592.49,851l.43.33c-4,3.45-9.82,8.83-12.77,13.75l-2.47.27.59,4.63,11.48,3.49,9.16-19.57c4.36.84,10.33.25,18.5-3.23,41.15-17.51,32-62.1,32-62.1Z"/><path class="cls-2" d="M583.31,837a13.63,13.63,0,0,0,4.8,12.49c.18.14.37.29.57.43-5,4.65-10.55,10.78-11,15.39l11.48,3.5,7.56-16.14c4.11.3,9.43-.58,16.31-3.51,41.15-17.51,32-62.11,32-62.11C593.45,801.43,584.7,826.88,583.31,837Z"/><polygon class="cls-8" points="701.4 719.41 497.72 739.89 495.72 724.36 701.4 703.88 701.4 719.41"/><polygon class="cls-8" points="570.84 721.88 570.84 764.58 577.68 762.75 580.38 721.88 570.84 721.88"/><rect class="cls-8" x="645.86" y="718.22" width="7.58" height="34.25"/><path class="cls-5" d="M1291.24,1164.9l-8.41,68.2c-2.36,19.15-16.61,34.35-34.92,37.24l-98.14,15.46c-19.24,3-37.92-8.31-44.89-27.26l-24.51-66.6c-9.65-26.22,6.85-54.92,33.56-58.4l131.06-17C1271.87,1113,1294.69,1136.88,1291.24,1164.9Z"/><path class="cls-8" d="M1290.83,1151.39l-8.4,68.2c-2.36,19.15-16.62,34.35-34.93,37.23l-98.14,15.46c-19.24,3-37.91-8.3-44.89-27.25l-24.51-66.6c-9.65-26.22,6.85-54.92,33.57-58.4l131-17C1271.46,1099.48,1294.28,1123.37,1290.83,1151.39Z"/><path class="cls-15" d="M1255.85,1166.26l-5.81,42a27.32,27.32,0,0,1-22.63,23.16l-63.06,10.17a26,26,0,0,1-28.63-16.48l-15.32-40.85c-6-16.07,4.73-33.85,21.89-36.17l84.18-11.37A26,26,0,0,1,1255.85,1166.26Z"/><polygon class="cls-8" points="1190.18 1258.1 1172.59 1135.11 1182 1131.69 1211.12 1250.49 1190.18 1258.1"/><polygon class="cls-8" points="1266.07 1170.04 1113.52 1187.55 1115.59 1196.82 1264 1182.25 1266.07 1170.04"/><path class="cls-5" d="M1390.2,1134l-1.7-40.38a22.31,22.31,0,0,0-18.47-21l-48.15-8.37-.14.29a29.45,29.45,0,0,0-1.42,22.81h0l42.44,7.5-2,40.43S1378.3,1140.62,1390.2,1134Z"/><path class="cls-16" d="M1400.33,1136.06s1.66,56.88,10.06,68.23,89,75.58,11.21,139.39c0,0-41.31,30.29-76.87,4.6-32.69-23.62-57.5-45-27.38-107.11,3.77-7.78,13.18-22.85,18.26-29.84,7.16-9.85,16-27.41,10.78-72Z"/><path class="cls-17" d="M1350.3,1131.21a5.32,5.32,0,0,0-6.51,2.23c-1.27,2.29-.48,5.5,8.8,8.65,17.32,5.89,49.33,2.56,51.9-7.57.75-3-1.29-3.87-3.29-4.06a8.92,8.92,0,0,0-4.6.82C1391.74,1133.52,1374.3,1140,1350.3,1131.21Z"/><path class="cls-18" d="M1320.94,1255.07s51.33-28.23,111.88-3.26l-44.64,24.25Z"/><path class="cls-14" d="M1320.94,1255.07s-7.67,97.83,61.84,95.79,50-99,50-99S1382.24,1277.24,1320.94,1255.07Z"/><path class="cls-2" d="M1320.94,1255.07s-8,88.12,61.56,86.09,50.32-89.35,50.32-89.35S1382.17,1274.86,1320.94,1255.07Z"/><path class="cls-19" d="M1228.64,1391s-9-82.81-27.9-92.74c0,0,1.67,67.63-10.38,75.44s-32.81-58.14-32.81-58.14-17.52,48.54.45,68.85S1228.64,1391,1228.64,1391Z"/><path class="cls-19" d="M900.92,1410.12s20.54-26.51,27.38-45.85c0,0,21.42,57.18-9.47,62.23C902.84,1429.13,900.92,1410.12,900.92,1410.12Z"/><path class="cls-19" d="M1125.72,1395.14s-53.9-75.49-54.69-137c0,0-21.58,99.84-4.28,125.4S1125.72,1395.14,1125.72,1395.14Z"/><path class="cls-19" d="M1092.87,1370.59l32.82-78.57s14.91,90-16.41,92.39S1092.87,1370.59,1092.87,1370.59Z"/><path class="cls-19" d="M513.66,1306.15s-31.27-67.51-22.75-116.15c0,0-31.85,75.49-22,98.21S513.66,1306.15,513.66,1306.15Z"/><path class="cls-19" d="M497.34,1280.57l20.8-63s9.46,72.19-10.4,74.11S497.34,1280.57,497.34,1280.57Z"/><path class="cls-19" d="M513.42,1307.58l20.8-63s9.45,72.19-10.4,74.1S513.42,1307.58,513.42,1307.58Z"/><path class="cls-19" d="M909.28,1409.31s-20.74-21.51-14-60c0,0-17.36,47.42-6.27,60S909.28,1409.31,909.28,1409.31Z"/></svg>