<?xml version="1.0" encoding="utf-8"?>
<!-- Generator: Adobe Illustrator 26.0.1, SVG Export Plug-In . SVG Version: 6.00 Build 0)  -->
<svg version="1.1" id="Layer_1" xmlns="http://www.w3.org/2000/svg" xmlns:xlink="http://www.w3.org/1999/xlink" x="0px" y="0px"
	 viewBox="0 0 2000 2000" style="enable-background:new 0 0 2000 2000;" xml:space="preserve">
<style type="text/css">
	.st0{fill:#AFD86A;}
	.st1{fill:#FECFAE;}
	.st2{fill:#443428;}
	.st3{clip-path:url(#SVGID_00000058583177688450815740000006922828615979597965_);}
	.st4{fill:#846A55;}
	.st5{fill:#352820;}
	.st6{fill:#1E1713;}
	.st7{fill:#B99971;}
	.st8{fill:#665140;}
	.st9{fill:#D6BA9D;}
	.st10{fill:#9E7E5C;}
	.st11{fill:#312419;}
	.st12{fill:#634C3B;}
	.st13{fill:#8C6D51;}
</style>
<path class="st0" d="M1056.8,1847.2l-23.4-3.2C1041,1845.1,1048.8,1846.2,1056.8,1847.2z"/>
<path class="st1" d="M1057.4,1847.2L1057.4,1847.2l-0.6-0.1L1057.4,1847.2z"/>
<path class="st0" d="M1405.4,1024.6L400.1,1248.9c-13.4-17.9-55.8,4.1-112.9,25.2l-128.4,28.6c0,0-260.2,82.8-64.9,246.7
	c45.5,38.2,104.8,64.8,169.4,83.5c91.3,26.4,193.3,36.8,281.9,41.2c111.7,5.5,202.3,1.4,223.6,7.4c37.3,10.6,103.1,91,312.2,121.4
	l23.1,3.1l0.6,0.1c67.3,8.1,148.4,11.2,246.7,5.7c32.2-1.8,65.9-4.6,100.2-9c183.5-24,386.9-97.3,502.3-340.1
	C2108.3,1137.3,1405.4,1024.6,1405.4,1024.6z"/>
<path class="st0" d="M1405.4,1024.6L400.1,1248.9c-13.4-17.9-55.8,4.1-112.9,25.2l-128.4,28.6c0,0-260.2,82.8-64.9,246.7
	c45.5,38.2,104.8,64.8,169.4,83.5c91.3,26.4,193.3,36.8,281.9,41.2C405.5,1509.3,444.1,1350,444.1,1350s425.7-61.5,378.5,68
	c-62.6,171.6,506.3,348.7,628.9,384.7c183.5-24,386.9-97.3,502.3-340.1C2108.3,1137.3,1405.4,1024.6,1405.4,1024.6z"/>
<path class="st1" d="M822.6,1417.8c47.2-129.5-400.6-71.7-400.6-71.7s-55.2,172.4,123.2,327.9c111.7,5.5,202.3,1.4,223.6,7.4
	c37.3,10.6,103.1,91,312.2,121.4l23.1,3.1l0.6,0.1c67.3,8.1,148.4,11.2,246.7,5.7c32.2-1.8,65.9-4.6,100.2-9
	C1328.9,1766.5,760,1589.3,822.6,1417.8z"/>
<polygon class="st2" points="1265.7,1362.6 432.8,1217.6 432.8,696.4 767.4,234 1265.7,668.6 "/>
<g>
	<g>
		<g>
			<g>
				<defs>
					<polygon id="SVGID_1_" points="1265.7,1362.6 432.8,1217.6 432.8,696.4 767.4,234 1265.7,668.6 					"/>
				</defs>
				<clipPath id="SVGID_00000010293768908788344760000002790180416309300374_">
					<use xlink:href="#SVGID_1_"  style="overflow:visible;"/>
				</clipPath>
				<g style="clip-path:url(#SVGID_00000010293768908788344760000002790180416309300374_);">
					<path class="st4" d="M1307.3,1188.8c27.2,30.5-33.4,51.7-6.1,82.1c6,6.7-27.6,11.8-24.7,19.6c-22.7-0.3-45.3-1.9-67.8-4.9
						c-69.6-9-139.4-15.8-209.1-23.1c-56.2-5.9-112.2-14.1-168.3-19.2c-130.2-11.8-259.3-32-389-47.7c-10.8-1.3-21.4-4.3-31.4-8.7
						c-7.2-3.2-7.6-6.3-1.5-10.1c5.3-3.3,9.8-7.3,15.1-10.6c26.6-16.5-30.7-51.2-4.4-68c5.5-3.5,1.3,3.7,8.1,4.1
						c42.1,2.3,177.4,20.6,219.4,23.9c48,3.8,95.4,12.2,143.2,15.6c49.3,3.5,98,12.6,147.1,16.1c51.9,3.8,103.2,12.4,154.8,16.9
						c24.6,2.1,49.1,4.4,73.6,7.2C1172.1,1182.7,1305.5,1194.8,1307.3,1188.8z"/>
					<path class="st4" d="M1306.4,1020.7c29,28.7-30.1,53.7-1,82.3c6.4,6.3-26.8,13.5-23.5,21.1c-22.6,1.1-45.3,0.8-67.9-0.7
						c-70-4.8-140.1-7.2-210.2-10.2c-56.5-2.4-112.8-7.2-169.2-8.8c-130.6-3.8-260.8-16-391.1-23.7c-10.9-0.7-21.7-2.9-31.9-6.8
						c-7.4-2.7-8-5.8-2.1-10c5.1-3.6,9.4-7.9,14.5-11.5c25.5-18.1-33.8-49.2-8.6-67.6c5.2-3.8,1.5,3.6,8.3,3.5
						c42.2-0.3,178.4,9.7,220.4,10.4c48.1,0.9,96,6.3,143.9,6.8c49.5,0.4,98.6,6.5,147.8,7c52,0.6,103.7,6.1,155.6,7.3
						c24.6,0.6,49.2,1.3,73.8,2.6C1171.1,1022.9,1304.9,1026.8,1306.4,1020.7z"/>
					<path class="st4" d="M1303.8,868.4c30.7,26.9-26.8,55.4,4,82.2c6.8,5.9-26,15.1-22.2,22.5c-22.5,2.5-45.2,3.6-67.8,3.4
						c-70.2-0.5-140.3,1.3-210.4,2.5c-56.5,1-113-0.3-169.4,1.4c-130.6,4.1-261.2-0.2-391.9,0c-10.9,0-21.8-1.6-32.2-4.8
						c-7.5-2.2-8.3-5.3-2.7-9.8c4.9-3.9,8.9-8.4,13.7-12.3c24.4-19.6-36.7-47.1-12.6-66.9c5-4.1,1.8,3.5,8.5,3
						c42.1-2.9,178.6-1.2,220.7-3c48.1-2,96.2,0.5,144-2c49.4-2.6,98.8,0.5,147.9-1.9c52-2.6,72-12.6,123.8-14.5
						c24.6-0.9,63.9,0.2,88.6,0C1151.7,868.3,1302.7,874.7,1303.8,868.4z"/>
					<path class="st4" d="M1304.1,691.8c30.7,26.9-26.8,55.4,4,82.2c6.8,5.9-26,15.1-22.2,22.5c-22.5,2.5-45.2,3.6-67.8,3.4
						c-70.2-0.5-140.3,1.3-210.4,2.5c-56.5,1-113.7,18.7-170.2,20.5c-130.6,4.1-260.5-19.2-391.2-19c-10.9,0-21.8-1.6-32.2-4.8
						c-7.5-2.2-8.3-5.3-2.7-9.8c4.9-3.9,8.9-8.4,13.7-12.3c24.4-19.6-36.7-47.1-12.6-66.9c5-4.1,1.8,3.5,8.5,3
						c42.1-2.9,178.6-1.2,220.7-3c48.1-2,96.2,0.5,144-2c49.4-2.6,98.8,0.5,147.9-1.9c52-2.6,72-12.6,123.8-14.5
						c24.6-0.9,63.9,0.2,88.6,0C1151.9,691.8,1303,698,1304.1,691.8z"/>
					<path class="st4" d="M1227.6,544.4c31.7,25.7-24.5,56.4,7.3,82c7,5.6-25.3,16.1-21.2,23.3c-22.4,3.4-45,5.4-67.7,6.2
						c-70.1,2.4-140.1,7-210.1,11.1c-56.4,3.3-113,4.2-169.2,8.3c-130.3,9.4-261,10.5-391.5,16c-10.9,0.4-21.8-0.7-32.4-3.5
						c-7.6-1.9-8.5-5-3.1-9.7c4.7-4.1,8.5-8.8,13.2-12.9c23.6-20.6-38.6-45.6-15.4-66.3c4.8-4.3,1.9,3.4,8.7,2.7
						c42-4.6,178.4-8.4,220.4-11.9c47.9-4,96.2-3.4,143.8-7.8c49.2-4.6,91.8-14.5,140.8-19c51.8-4.7,78.3-4.5,130-8.5
						c24.6-1.9,63.9-2.4,88.5-3.6C1075.6,550.6,1226.8,550.7,1227.6,544.4z"/>
					<path class="st4" d="M1165.6,403.1c29.7,21.5-19.4,51.8,10.5,73.3c6.6,4.7-22,15.7-18,22c-20,4.1-40.1,7-60.4,8.7
						c-62.9,5.4-125.5,13-188.2,19.9c-50.5,5.6-101.2,9.1-151.5,15.5c-116.7,14.7-234,21.9-351,33c-9.8,0.9-19.6,0.4-29.3-1.6
						c-6.9-1.4-7.9-4.1-3.3-8.5c4-3.9,7.2-8.3,11.3-12.2c20.2-19.6-36.9-39.1-16.9-58.9c4.1-4.1,1.9,3,7.9,2
						c37.5-6.1,159.9-16,197.4-21.2c42.9-5.9,86.2-7.6,128.8-13.8c44-6.4,81.8-17.4,125.6-23.7c46.3-6.7,70.1-7.7,116.4-13.8
						c22-2.9,57.3-5.2,79.3-7.4C1029.4,415.9,1165.2,408.8,1165.6,403.1z"/>
					<path class="st4" d="M1122.9,281.8c26.2,16.7-13.8,44.9,12.5,61.5c5.8,3.7-17.8,14.4-14.1,19.5c-16.7,4.5-33.6,8-50.8,10.4
						c-52.9,7.8-105.6,17.3-158.3,26.4c-42.5,7.3-85.2,12.9-127.6,20.8c-98,18.3-197,30.2-295.4,45.6c-8.2,1.3-16.6,1.3-24.9,0.1
						c-5.9-0.8-6.9-3-3.2-7.1c3.2-3.5,5.7-7.4,8.9-10.9c16.1-17.6-33.2-31.2-17.3-49c3.3-3.7,1.7,2.4,6.8,1.3
						c31.4-7.1,134.5-21.6,166-27.9c36-7.1,72.6-10.8,108.3-18.2c37-7.7,68.4-18.9,105.2-26.4c38.9-8,59-10.1,97.8-17.5
						c18.5-3.5,48.2-7.3,66.8-10.3C1008.2,299.5,1122.8,286.7,1122.9,281.8z"/>
					<path class="st4" d="M1120.8,141.7c28.7,15.2-10.6,47.9,18.2,63c6.3,3.3-17.3,16.5-13,21.5c-17,6.1-34.4,11.1-52,15.1
						c-54.5,12.6-108.5,26.9-162.6,40.8c-43.6,11.2-87.7,20.6-131,32.4c-100.4,27.3-202.4,48-303.6,72.3c-8.5,2-17.2,2.7-25.9,2.2
						c-6.2-0.4-7.4-2.6-3.9-7.1c3-3.9,5.3-8.2,8.4-12.1c15.3-19.7-37.1-29.7-22.1-49.5c3.1-4.1,2,2.4,7.2,0.8
						c32.1-10,138.2-33.9,170.4-43c36.9-10.5,74.7-17.3,111.2-28.1c37.8-11.1,69.6-25.4,107.2-36.3c39.8-11.6,60.5-15.4,100.4-26.5
						c18.9-5.2,49.6-11.6,68.6-16.3C1002.8,169.7,1121,146.8,1120.8,141.7z"/>
				</g>
			</g>
		</g>
	</g>
</g>
<path class="st5" d="M898.3,1060l-2.9-135.6l-216.4-18l-16.8,9.6l17.5,8.8l13.1,332.8l207.1,36l-0.4-124
	C901.5,1134.2,900.4,1095.5,898.3,1060z"/>
<path class="st6" d="M673.6,949.8l4.6,320.6l195.8,26.8l-0.3-120.3c1.9-33.6,0.8-70.2-1.2-103.7L865.8,960L673.6,949.8z"/>
<path class="st2" d="M497.4,710.6c0,0,47.2,248.5,27.8,601l-85.6-25.7l12.7-307L444.6,694L497.4,710.6z"/>
<path class="st2" d="M1285.2,750.3c0,0,47.2,248.5,27.8,601l-85.6-25.7l12.7-307l-7.8-284.9L1285.2,750.3z"/>
<path class="st7" d="M695,964.8l9.6,306.6c0,0,18.3,1.8,20.2,0s3.8-21,0-49.9S718,978.8,718,978.8s17.7,294.6,20.6,296.1
	s24.4,0,24.4,0s-9.3-285.6-13.1-296.1l20.7,1.3l-1.9,295.4l32.3,5.5l-6.7-278.1l19.7,279.9h22.6l-15.4-312.4
	C821.2,970.4,761,962.2,695,964.8z"/>
<path class="st5" d="M479.8,710.6c0,0,47.2,248.5,27.8,601l-85.6-25.7l12.7-307L426.9,694L479.8,710.6z"/>
<polygon class="st8" points="158.9,1277 432.8,1217.6 1255.3,1336.9 951.2,1442.4 "/>
<path class="st2" d="M944.4,1421.1L158.9,1277c0,0-6.4,16.5,0,25.7S947,1462.4,947,1462.4S970.8,1425.9,944.4,1421.1z"/>
<path class="st5" d="M1267,1362.6l-320,99.8c0,0-8.6-39.4-2.7-41.3s310.9-84.2,310.9-84.2S1265.1,1348.3,1267,1362.6z"/>
<path class="st5" d="M922.8,999.5l8.3,383.8c0,0,17.3,15.7,46.1,12.6s3.2-407.4,3.2-407.4L922.8,999.5z"/>
<path class="st5" d="M253.4,930l9.3,332c0,0,22.3,19.9,41.4,0s0-325.4,0-325.4L253.4,930z"/>
<path class="st7" d="M474.4,769.4c-25.7,23.5-131,91-256.8,126c0,0,33,20.6,99.6,32.6c138.7,25,398.6,49.4,636.6,29.7
	c0,0,181.1-100.6,258.6-190.5c0,0-405.7,55.8-723.7-1.9C483.5,764.3,478.2,765.9,474.4,769.4z"/>
<path class="st9" d="M217.6,895.4c0,0-11.5,33.5,0,44.5s663.9,122,736.1,76.6v-58.9C953.7,957.7,393.3,954.2,217.6,895.4z"/>
<path class="st10" d="M953.7,1016.6c0,0,222.2-154.5,255.1-205.6c2.3-3.6,3.5-7.8,3.5-12v-31.7L953.7,957.7V1016.6z"/>
<path class="st11" d="M1434,698.1c51.8-1.7,72.5,6.8,124.5,5.8c49.2-1,97.7,3.3,147.1,2.3c34.7-0.6,73.9-2.2,111.2-3.5l-551.1-34
	v43.6c33.4-2.6,76.4-7.7,80-7.9C1370.3,702.8,1409.4,699,1434,698.1z"/>
<path class="st11" d="M1435.2,1150.6c50.7-13,74.6-2.5,125.6-14.8c48.2-11.6,109.3-24.4,157.8-36c45.9-10.9,84.2-33.6,130.6-44.7
	v-29.3c-55.3,11-110.6,21.4-166.3,30c-56,8.6-111.5,20.9-167.5,30.6c-69.4,11.9-142.3,14.7-211.5,28.7
	c-12.6,2.5-23.4,17.2-38.4,21.6v58.2c38.9-12.7,80.2-27.2,83.1-28.1C1372.7,1159.6,1411.1,1156.7,1435.2,1150.6z"/>
<path class="st11" d="M1448.6,1000.6c51.5-8.3,72.8,0.2,124.5-7.3c48.9-7.1,96.4-7.1,145.5-14.1c40.5-5.8,88.1-18.1,130.6-21.9
	v-41.5c-53.1,5.2-100.3,8.1-178.3,16.9c-56.2,6.4-114.3,3.9-170.6,11.4c-69.7,9.2-141-6.9-210.6,4.5c-8.3,3.4-15.5,29.7-24.2,29.5
	v64.4c42.4-9.7,92.2-22.8,95.5-23.5C1385.5,1014.2,1424.1,1004.6,1448.6,1000.6z"/>
<path class="st11" d="M1502.2,1217.6c-68.2,16.2-131.9,40.8-199.7,58.7c-13.3,3.5-23.3,14-36.8,16.6v69.8l583.6-175.2v-36.9
	c-57.9,15.2-114,8.7-172.5,21.7C1621.7,1184.5,1557.2,1204.5,1502.2,1217.6z"/>
<path class="st11" d="M1437.8,851.8c51.7-5.7,72.8,4.3,124.7-0.5c49.1-4.5,97.7-2,147.1-6.5c43.8-4,94.6-10.3,139.8-15.1v-36.9
	c-56.8,2.1-104.7,1.8-187,6c-56.4,2.9-114.4-3.4-170.8,0.5c-70,4.9-140.1,9-210,16.2c-5.8,1.9-12.4-13-17.2-12.5l1.5,79.2
	c33.7-5.4,80.4-15.9,84.2-16.5C1374.3,862.1,1413.2,854.5,1437.8,851.8z"/>
<path class="st12" d="M1702,1087.8c-48.5,9.8-95.6,25-143.8,34.8c-51,10.4-72.9,5.7-123.5,16.7c-24.1,5.2-61.9,16-85.8,21.9
	c-3,0.7-44.2,13-83.1,23.8v107.9c13.4-2.6,26.8-5.6,40.2-9.1c67.8-17.8,136.3-33.5,204.5-49.6c55-13,109.4-28.3,164.5-40.6
	c58.5-13,116.5-27.7,174.4-42.9V1067C1802.8,1076.4,1747.9,1078.5,1702,1087.8z"/>
<path class="st12" d="M1515.5,1093.4c55.9-8.1,111.5-18.5,167.5-25.8c55.6-7.3,111-16,166.3-25.3v-83.5c-42.5,3-89.3,1.5-129.8,5.9
	c-49.2,5.4-97.4,16.4-146.3,21.9c-51.7,5.8-73.1-0.8-124.5,5.6c-24.4,3.1-63.1,10.5-87.4,14.2c-3.3,0.5-53.1,10.7-95.5,18.2v111.2
	c15-3.7,29.2-9,41.8-11.1C1376.6,1112.9,1446.2,1103.4,1515.5,1093.4z"/>
<path class="st12" d="M1291.2,971c69.6-8.8,139.5-15.4,209.2-22.5c56.2-5.8,114.3-3.8,170.6-8.8c78-6.8,125.1-9.1,178.3-13.1v-98.7
	c-45.1,3.6-96,8.5-139.8,11.4c-49.3,3.3-98,1.5-147.1,4.9c-51.9,3.6-73-3.9-124.7,0.4c-24.6,2-63.5,7.8-88,10.5
	c-3.7,0.4-50.4,8.3-84.2,12.4v107.3C1274.3,974.9,1283,973.7,1291.2,971z"/>
<path class="st12" d="M1491.5,805c56.4-3,114.4,1.8,170.8-0.4c82.3-3.2,130.2-2.9,187-4.5v-95.4l-32.4-2
	c-37.3,1.3-76.5,2.9-111.2,3.5c-49.4,0.9-97.9-3.4-147.1-2.3c-52,1.1-72.7-7.5-124.5-5.8c-24.6,0.8-63.8,4.7-88.4,6.2
	c-3.6,0.2-46.6,5.4-80,7.9l-1.3,103.2c4.8-0.3,11.3,3.2,17.1,1.7C1351.4,811.8,1421.5,808.7,1491.5,805z"/>
<path class="st2" d="M1835,866.7l-2.2-121.3l-55.5-15.3c0,0-4.9,469.5-3.6,469.3c0,0,5.4,4.6,16.8,5.5c13.3,1.1,29.9-10.2,42.3-16.3
	L1835,866.7z"/>
<path class="st5" d="M1851.6,865.5l-2.2-121.3l-55.5-15.3c0,0-5.4,476.4-4.1,476.2v0.2l0.8-0.2c9.8-0.9,42.2-4.7,58.8-17.7
	L1851.6,865.5z"/>
<path class="st5" d="M1338.5,1029.9l7.8-284.9l-82.2-12.7c0,0-17.9,277.8,1.5,630.3c0,0,69.9,1.6,85.6-25.7L1338.5,1029.9z"/>
<path class="st0" d="M1353.5,1336.9c0,0-57.8-59.3-57.8-76c0,0,92.8,33.4,104.4,60.3l17.7-14.2c0,0-32.4-66.9-4.1-114.5
	c0,0,14.2,85.7,38.5,107.4c0,0,11.2-77,27.9-75c0,0-8.9,69,2.7,81.4S1353.5,1336.9,1353.5,1336.9z"/>
<path class="st0" d="M1671.4,1242.9c0,0,10.8-99.3,33.5-111.2c0,0-2.1,81.1,12.4,90.5s39.3-69.7,39.3-69.7s21,58.1-0.5,82.6
	S1671.4,1242.9,1671.4,1242.9z"/>
<path class="st6" d="M1553.5,931.5c0,0-2.9,87.6,6.2,103.7l52.3-15l-0.2-92.2C1611.8,928.1,1568.4,924.3,1553.5,931.5z"/>
<path class="st7" d="M1496.8,863.3c0,0-14.3,1.1-14.7,4.6c-0.3,3.1-1.1,55.3,6.7,57.4s17-2.3,17-2.3S1523.2,882.2,1496.8,863.3z"/>
<path class="st7" d="M1535.7,1077.8c0,0-18.4,1.6-22.5-6.5s-23.4-132,1.2-159.2c11.1-12.2,17.1,4.5,19.3,13.5
	S1535.7,1077.8,1535.7,1077.8z"/>
<path class="st10" d="M1523.3,923.4c0,0-12.6,134.5,12.5,154.4l108-25.3l-0.1-130.6c0,0,31.5-44.1,3.7-58.4
	c-32.5-16.7-157.2,0.8-157.2,0.8s18.5,39.9,9.4,60.9L1523.3,923.4z"/>
<path class="st6" d="M1556.3,931.9c0,0-2.9,87.6,6.2,103.7l38.9-11.2v-96.8C1587.3,927.1,1565.8,927.2,1556.3,931.9z"/>
<path class="st7" d="M1614.6,928.4c0,0-5.5-0.5-13.2-0.8v96.8l13.4-3.8L1614.6,928.4z"/>
<path class="st10" d="M576,778.2c0,0-122.3,125.3-144.9,130.2c0,0,3.5,5.1,17.3,0s156.8-127,156.8-127S585.7,779.4,576,778.2z"/>
<path class="st10" d="M742.5,790.2c0,0-67.4,81-103.4,92.5c0,0,8.4,11.5,26,0S768,790.9,768,790.9L742.5,790.2z"/>
<path class="st10" d="M596.6,817.9c0,0,159.3,30,327.7,14.6c0,0,8.8,10.9,1.2,12.7s-143.4,13.4-201.2,4.7s-77.3-20.1-92.9-16.6
	S586.3,822.3,596.6,817.9z"/>
<path class="st10" d="M760.7,874c0,0-83-1.1-171.9-28.7c-3.3-1.1-7,0-9.1,2.8c-1.8,2.5-2.3,5.7,3,8.8c3.7,2.2,98.5,22.6,131.2,24.8
	s29-4.2,37.1-0.4S765.8,877.7,760.7,874z"/>
<path class="st2" d="M369.2,778.2c0,0,87.8-44,130.5-105.5s325-456.5,325-456.5l-36.2-6.9L369.2,778.2z"/>
<path class="st2" d="M1316.5,771.6c0,0-28.3,36.5-123.1-61.2C1110.3,624.7,732.8,234,732.8,234l8.8-40.9L1316.5,771.6z"/>
<path class="st7" d="M749,147.5c0,0,142.3,110,736.9,161.5l396.4,409.4l-71.1,22l-445.5,12.9L749,147.5z"/>
<path class="st9" d="M1316.5,771.6c0,0,23.4-11.1,53-24.1c25.7-11.3,24.6-11,24.6-11S759.6,119.2,749.2,152.7
	C731.6,209.3,326.8,724.5,330.4,745c0,0,26.1,8.4,38.7,33.2c8.7,17.2,399.9-541.4,399.9-541.4S1278.4,768.8,1316.5,771.6z"/>
<path class="st13" d="M1394.1,736.5c0,0,405.6,6.7,488.2-18.1c0,0-33,31.7-33,33s-532.7,20.1-532.7,20.1S1358.8,720.2,1394.1,736.5z
	"/>
<path class="st10" d="M1308.9,610.5c-1.7,0-3.1,1.4-3,3.1c0,1.3,0.9,2.5,2.2,2.9c22.6,7.2,89.7,17.3,287,8.7l147.9-3.8l-17-17
	L1308.9,610.5z"/>
<path class="st10" d="M1685,604.7c0,0-43.4-34.4-63.1-62.5s-121.1-139.9-128.6-143.4s-181-5.8-209.2-1.8s179.4,22.1,204.3,18.5
	s168.2,194,168.2,194l28.6-0.9L1685,604.7z"/>
<path class="st10" d="M1565.7,480.2c0,0,11.3,15.6,0.6,16.8s-63.8,1.9-63.8,1.9s2.1,6.6,19.5,10.1s78,10.9,78,10.9L1565.7,480.2z"/>
<path class="st10" d="M1598.5,683.5c-35.3-18.2-119.5-156.1-119.5-156.1s45.1,107.7,86,144.9
	C1590.2,695.3,1601.2,684.9,1598.5,683.5z"/>
<path class="st10" d="M734.9,653.7c0,0,38.8-29.7,97.7-0.9c0,0-9.8,68.6-50.8,109C781.9,761.8,751,728.3,734.9,653.7z"/>
<polygon class="st10" points="832.6,652.8 829.3,639.7 731.6,640.7 "/>
<path class="st7" d="M731.6,640.7c0,0,38.8-29.7,97.7-0.9c0,0-14.5,71.1-55.4,111.5C774,751.2,745.6,716.2,731.6,640.7z"/>
<path class="st9" d="M794.4,661.4c-3.9-1.6-5-6.8-3.8-10.8c2.7-9.1,8.1-25.9,12.3-31.6c5.9-8-7.5-33-4.8-37.2s13.3,1.7,21.3,21.8
	s50.3-38.1,54.7-64.3s14.5-32,16-19.5s-19.1,68.8-15.5,69.8s18.5,11.8,29.1,8.3s29.7-44.8,36.7-40.6s-13,44.3-14,49
	s8.4,13.4,18.8,5.3s22.3-54.1,26.7-52.8s9.5-7.2-3.8,42.4s-59.1,21-77,13.8s-63.5-3.7-69.3,12.5c-3.1,8.9-5.7,18-7.6,27.2
	c-0.6,2.9-2.5,5.4-5.2,6.7C804.8,663.7,801.9,664.4,794.4,661.4z"/>
<path class="st9" d="M765.8,658.2c-3.7,2.4-9.3,4-17,0.9c-2-0.8-3.6-2.4-4.3-4.5c-4-10.4-19.1-45.6-44-48.2
	c-29.3-3.2-60.5,25.1-103.9-0.1s-31-56.8-26.8-54.8s9.5,59.6,88.2,39c0,0-23.8-43.3-20.1-44.8s8.8,0.1,33.5,36.3s32.8-43.9,30-53.7
	s5.2-17.7,11.7-6.5s-5.6,68.6,18.1,84.9s21.9-25,28.6-19.2s-10.7,34.3-6,40.3c3.1,4,9.9,13.5,14.1,19.4c2.5,3.5,1.6,8.3-1.8,10.7
	C765.9,658.2,765.9,658.2,765.8,658.2z"/>
<path class="st4" d="M1264.3,168.9l-64.5,10.6c-4.5,0.7-7.9,4.5-8.1,9.1l-6.2,116.3c-0.3,5.3,3.7,9.8,9,10.2
	c22.5,1.7,91.6,10.7,101,16.3l-4.4-132.1L1264.3,168.9z"/>
<path class="st12" d="M1351.3,348.5l-29.3-160c-0.7-3.8-3.6-6.9-7.4-7.7l-50.3-11.8l17.4,158.3
	C1281.6,327.2,1338.5,364.1,1351.3,348.5z"/>
</svg>
