<svg id="b7898782-d2fe-44a9-abb3-fc81842c972a" data-name="Layer 1" xmlns="http://www.w3.org/2000/svg" xmlns:xlink="http://www.w3.org/1999/xlink" viewBox="0 0 2000 2000"><defs><style>.beecbdb1-fba3-4782-af13-7d3c2f3e61e9{fill:none;}.b349b432-eff7-4f20-93e2-5e5258d79fe0{fill:#8abd32;}.ae8363ac-0f0e-4521-9611-95c64113cca8{fill:#77a22f;}.bc99a5f1-aea4-4e70-9530-4786af7cf672{fill:#afd86a;}.f7647c43-70f3-4434-a526-fb958e7aa419{clip-path:url(#fdc72f0b-f947-43c5-8f2e-b027b2d3a89d);}.b6c1ed27-ce6c-4342-9503-9f9773c3a7ca{fill:#fecfae;}.edc6dc25-3db1-4f08-8cb1-deba3ab6d7d3{fill:#b99971;}.b96008a2-cbcc-41b6-b8f4-8133f52ce11c{fill:#846a55;}.ed8ad345-25c0-4bb1-91f6-f03e0b7de309{clip-path:url(#ae20dd2a-22c7-411a-b896-61912de7a77c);}.b7262333-5e49-4819-9f11-3aad55d006e1{fill:#443428;}.a409612d-adac-4f68-a69a-5b7ebd9c4c92{clip-path:url(#e80d7684-3109-48cb-9e58-82a31099aeb7);}.a5836422-5efc-41f6-81e1-c9856b6290c5{fill:#d6ba9d;}.bb568a94-9960-457e-8d08-f6bb01123507{fill:#665140;}.a7b2b465-ec93-4483-a8e4-590157454af6{fill:#312419;}.bddddc93-593b-40ab-85ee-df7e36172732{clip-path:url(#a3cc5db0-50c7-497a-ad05-8fdc1784b574);}.eb4bd09b-23dd-47da-ac7b-9268046ab100{clip-path:url(#fc27a43d-667f-4a9e-ae6f-ed7400857821);}.e9fe8142-9664-49e3-a3ac-21337bcffe96{clip-path:url(#f1865a28-6069-4684-ac42-0a206bda9853);}.b8b43a6e-1f7c-41b1-bd2a-5a87bb173900{fill:#352820;}.b208234e-1bf4-4297-9e78-5b75a513ea78{fill:#634c3b;}.a3214537-8dd7-461f-b290-f08481e6edb6{clip-path:url(#b4ff87eb-ce2e-4bfd-b390-4980837d4b50);}.b06beccd-47bf-4050-9ed1-97068fdcd499{fill:#1e1713;}.ecf5c525-06f5-49db-8514-e0239ff6c2cd{fill:#8c6d51;}.b0441bc3-c649-4619-a3fc-b6200560de6a{fill:#9e7e5c;}.b4fcde38-ab07-4604-964a-e0d14df38119{clip-path:url(#ff114140-b14e-495b-adee-f18117f6fead);}.fda19f75-460c-49f3-a66e-5fef0e5b3542{clip-path:url(#b1dbaa85-a188-495e-93e9-d98cefaaec4e);}.fa3e6059-43bf-479b-9b5b-bdb9741b0bb6{clip-path:url(#e1274f99-0361-43e6-89ee-911f3ba8ef79);}.b600b367-596c-47ec-83c7-2e3735b44b94{clip-path:url(#fa256af5-ad4c-492e-af95-93f05907d03b);}</style><clipPath id="fdc72f0b-f947-43c5-8f2e-b027b2d3a89d"><path class="beecbdb1-fba3-4782-af13-7d3c2f3e61e9" d="M485.7,1278.64s-561.6,143.89-260.83,402.84,839.94,121.3,989.4,167.14,813.51-122.06,661.44-344.39-423.62-224.21-749.23-200S485.7,1278.64,485.7,1278.64Z"/></clipPath><clipPath id="ae20dd2a-22c7-411a-b896-61912de7a77c"><path class="beecbdb1-fba3-4782-af13-7d3c2f3e61e9" d="M756.44,931.52s134.55,30.54,123-94.94c0,0,35.44-17.87,27.33-91.13-8.85-79.91-80.56-67.76-65.11-75.94,53.49-28.33,34.74-157.5-53.86-134.36,0,0-35.76-91.22-130.58-72.67-117.54,23-59.41,137.77-59.41,137.77s-100.87,30.69-43,132.64c0,0-81.86,82.13,43.59,149.14C598.37,882.06,623.35,985.65,756.44,931.52Z"/></clipPath><clipPath id="e80d7684-3109-48cb-9e58-82a31099aeb7"><polygon class="beecbdb1-fba3-4782-af13-7d3c2f3e61e9" points="948.6 694.66 1167.09 595.55 1413.04 842.43 1433.7 1270.78 787.81 1387.31 948.6 694.66"/></clipPath><clipPath id="a3cc5db0-50c7-497a-ad05-8fdc1784b574"><polygon class="beecbdb1-fba3-4782-af13-7d3c2f3e61e9" points="792.66 1206.43 1026.05 1002.87 1182.75 1219.44 1182.75 1463.55 792.66 1531.42 792.66 1206.43"/></clipPath><clipPath id="fc27a43d-667f-4a9e-ae6f-ed7400857821"><polygon class="beecbdb1-fba3-4782-af13-7d3c2f3e61e9" points="1182.01 1238.97 1415.33 1035.35 1572.03 1251.99 1572.03 1496.03 1182.01 1563.97 1182.01 1238.97"/></clipPath><clipPath id="f1865a28-6069-4684-ac42-0a206bda9853"><polygon class="beecbdb1-fba3-4782-af13-7d3c2f3e61e9" points="979.85 407.87 1180.67 204.25 1315.54 420.89 1315.54 664.93 979.85 670.47 979.85 407.87"/></clipPath><clipPath id="b4ff87eb-ce2e-4bfd-b390-4980837d4b50"><polygon class="beecbdb1-fba3-4782-af13-7d3c2f3e61e9" points="771.98 1394.18 766.22 1257.42 599 915.47 467.39 1189.88 471.12 1356.14 771.98 1394.18"/></clipPath><clipPath id="ff114140-b14e-495b-adee-f18117f6fead"><path class="beecbdb1-fba3-4782-af13-7d3c2f3e61e9" d="M1176.65,1670.63c115.48,34.18,213.59-21,250.89-46.85s41.09-11.94,145.44-9.5c53.43,1.22,104.15-23.25,102.12-94.25-1.43-47.87-66.66-128.63-153.31-85.3,0,0-15.46-51.8-64.35-28.14-57.16,27.73-30.79,65.16-30.79,65.16s-53.63-22.37-78.45,36.75c-10.24-4.2-15-8.88-34-3.59,0,0-25.9-47.87-83.94-10.85C1152,1544,1207.84,1609.4,1210.08,1612c-1.7-1.9-46-29.63-61.16,17.83C1143.7,1646,1156.51,1664.26,1176.65,1670.63Z"/></clipPath><clipPath id="b1dbaa85-a188-495e-93e9-d98cefaaec4e"><path class="beecbdb1-fba3-4782-af13-7d3c2f3e61e9" d="M457.15,1552.31l104.63,28.88a147.71,147.71,0,0,0,68.62,2.72c26-5.23,49.7-17.36,27.73-45.37-40.14-51.26-62.85-13.08-62.85-13.08s44.14-69.3-42-107.27c-62.51-27.6-86,29.83-86,29.83-31.74-3.59-46,12.82-46,12.82-16.81,15.52-16.54,33.49-10.85,49A69.49,69.49,0,0,0,457.15,1552.31Z"/></clipPath><clipPath id="e1274f99-0361-43e6-89ee-911f3ba8ef79"><path class="beecbdb1-fba3-4782-af13-7d3c2f3e61e9" d="M831.2,855.3c-42.66,20.42-74.44,7.57-86.79.57a10.66,10.66,0,0,1-5.44-9.63l3.46-99.39c47.43-19.93,94.78,0,94.78,0v98.81A10.68,10.68,0,0,1,831.2,855.3Z"/></clipPath><clipPath id="fa256af5-ad4c-492e-af95-93f05907d03b"><path class="beecbdb1-fba3-4782-af13-7d3c2f3e61e9" d="M1024.53,301.93c-23.11,11.06-40.32,4.11-47,.31a5.75,5.75,0,0,1-2.95-5.21l1.88-53.84c25.69-10.79,51.34,0,51.34,0v53.52A5.78,5.78,0,0,1,1024.53,301.93Z"/></clipPath></defs><path class="b349b432-eff7-4f20-93e2-5e5258d79fe0" d="M1542.78,997.86s-23.18,170.81-185.52,39.64c0,0-108.31-56.93-114.84-132.08s45.94-83.33,49.12-99.41-27.29-64.7,23.82-86.49c0,0-38.2-110.93,47.3-103.16s64.12,76.94,64.12,76.94,57.59-21.91,50.13,41.2c0,0,158.63,11.38,64.65,167.18C1541.56,901.68,1629.58,953.63,1542.78,997.86Z"/><path class="ae8363ac-0f0e-4521-9611-95c64113cca8" d="M1225.28,742.53,1300.57,671s92.76-27.06,101.52,51.07c0,0,61.37-7.66,51.67,43.4,0,0,124.32,34.66,52.85,150.25,0,0,46.72,49.57,2.3,85.62,0,0-36.5,94.69-114.38,32S1225.28,742.53,1225.28,742.53Z"/><path class="b349b432-eff7-4f20-93e2-5e5258d79fe0" d="M513.78,789.91s-106.13-40.14-54.37-127.17c0,0-26.29-55.25,6.34-93.86,24.4-28.87,50.11-15.82,59.33-21.78,9.6-6.21,26.08-55.87,70-18.61,0,0,28.69-57.77,73-21.14,47,38.81,12.27,63.48,12.27,63.48s32.68,39.66-2.61,63.49c0,0,68.5,69.71-56.84,104.56C620.91,738.88,607.33,879.43,513.78,789.91Z"/><path class="bc99a5f1-aea4-4e70-9530-4786af7cf672" d="M485.7,1278.64s-561.6,143.89-260.83,402.84,839.94,121.3,989.4,167.14,813.51-122.06,661.44-344.39-423.62-224.21-749.23-200S485.7,1278.64,485.7,1278.64Z"/><g class="f7647c43-70f3-4434-a526-fb958e7aa419"><path class="b6c1ed27-ce6c-4342-9503-9f9773c3a7ca" d="M580.63,1806.85c16.61,60.22,23,90.39,23.87,116.77,161.78,69.57,308.11,55.87,390.36,25.36a119.21,119.21,0,0,0-1.63-19.73c-17.83-108-194.06-62.39-225.52-149.59s145.78-136,145.78-136-17.63-51.8-105.5-27.39S550.79,1698.84,580.63,1806.85Z"/></g><path class="edc6dc25-3db1-4f08-8cb1-deba3ab6d7d3" d="M1450.34,970.12s-32.6,24.19-51.66-24.75,22.53-33.62,37.74-15.24A62.67,62.67,0,0,1,1450.34,970.12Z"/><path class="edc6dc25-3db1-4f08-8cb1-deba3ab6d7d3" d="M1337.94,459.26s-24,5.26-39.93-11.6,9.36-67,9.36-67Z"/><path class="b96008a2-cbcc-41b6-b8f4-8133f52ce11c" d="M697.81,906.86s34.4,200.83-11.76,263.17c0,0,50.23,23.09,68.56-4.52C766.45,1147.66,743.44,925,697.81,906.86Z"/><path class="b96008a2-cbcc-41b6-b8f4-8133f52ce11c" d="M725.68,1008s44-64.69,28-188.31c0,0,43.2,124.2-28,239.85-3.33,5.41.09,2.59.09,2.59Z"/><path class="ae8363ac-0f0e-4521-9611-95c64113cca8" d="M756.44,931.52S941.54,971,930,845.56c0,0-15.11-26.85-23.22-100.11-8.85-79.91-80.56-67.76-65.11-75.94,53.49-28.33,32.09-137.89-56.51-114.75,0,0-33.11-110.83-127.93-92.28-117.54,23-59.41,137.77-59.41,137.77s-100.87,30.69-43,132.64c0,0-81.86,82.13,43.59,149.14C598.37,882.06,623.35,985.65,756.44,931.52Z"/><g class="ed8ad345-25c0-4bb1-91f6-f03e0b7de309"><path class="b349b432-eff7-4f20-93e2-5e5258d79fe0" d="M597.82,600.28s-4.17-58.46,62.79-63.41c75.32-5.56,83.59,50.28,80.53,64.61,0,0,90.74-23.59,67.16,76.39,0,0,78.55,77.87-11.08,133.9,0,0,61.11,85.51-40.81,119.77l195.3,41.77,14.9-126.73s-19.25-225.72-22-240S872,415.28,872,415.28L676.13,383s-217.8,41.09-107,70.52c4.12,1.09-101,101.72-101,101.72l123.18,47.49Z"/></g><path class="b349b432-eff7-4f20-93e2-5e5258d79fe0" d="M545.71,1109.47s-116.7,38.49-132.39-70c0,0-59.76-28.63-58.58-83.35.88-40.93,31.42-47.45,35.12-58.76,3.85-11.75-16.09-64.79,46.24-63.31,0,0-15.18-68.18,47.11-67.54,66,.68,53.56,45.09,53.56,45.09s54.53,11.14,41,55.23c0,0,105.15,12.05,23.35,126.75C601.16,993.54,685.45,1121.14,545.71,1109.47Z"/><polygon class="b7262333-5e49-4819-9f11-3aad55d006e1" points="834.02 912.85 1166.97 541.12 1416.16 904.23 1433.7 1267.88 857.37 1397.15 834.02 912.85"/><g class="a409612d-adac-4f68-a69a-5b7ebd9c4c92"><path class="b96008a2-cbcc-41b6-b8f4-8133f52ce11c" d="M898.23,1045.93c17.13-1.84,44.3-5.58,61.45-6.91,36.12-2.75,50.87,2.61,87.12.36,34.33-2.06,68.38-8.06,102.91-10.13,33.43-1.92,66.69-7.47,100.2-9.79,29.28-2,124-13.88,153.42-15.1,4.75-.23,15.68-3,19.45-.57,18.29,11.88-35.79,33.57-17.3,45.23,3.66,2.36,6.83,5.14,10.49,7.5,4.19,2.73,3.88,4.88-1.18,7-6.94,3-11.07-2.7-18.92-1.82-90.67,10-184.16,30.76-275.16,38.08-39.35,3.11-78.49,8.45-117.81,12.16-48.7,4.58-97.62,8.76-146.26,14.55a412.2,412.2,0,0,1-47.36,2.89c2.17-5.37-21.3-9.2-17.07-13.86,19.24-21.08-22.92-36.37-3.68-57.45C789.74,1062.3,894.19,1046.23,898.23,1045.93Z"/><path class="b96008a2-cbcc-41b6-b8f4-8133f52ce11c" d="M920,927.31c17.18-.73,44.63-2.76,61.84-3,36.24-.43,50.52,5.87,86.88,5.94,34.44.06,68.79-3.83,103.33-3.67,33.53.11,67-3.33,100.6-3.53,29.36-.2,124.59-6,154.09-5.41,4.76.08,2.29-5.07,5.86-2.41,17.54,13-24.27,34.29-6.54,47.11,3.57,2.56,6.45,5.56,10,8.13,4,2.94,3.6,5.19-1.58,7a77.93,77.93,0,0,1-22.38,4.42c-91.24,4.3-181.1,24.94-272.37,26.5-39.47.69-81.75,10.22-121.19,11.42-49,1.44-97.91,2.59-146.91,5.26a394.12,394.12,0,0,1-47.5,0c2.38-5.28-19-30.58-14.44-35,20.51-19.82-20.56-37.69,0-57.52C810.64,936.83,915.81,927.31,920,927.31Z"/><path class="b96008a2-cbcc-41b6-b8f4-8133f52ce11c" d="M969.87,826.05c17.21,0,44.62-.94,61.86-.45,36.2,1,54.69,0,91,1.48,34.4,1.48,64.44,6.92,99,8.5,33.4,1.53,67-.6,100.6.62,29.42,1,124.73-1,154.19.87,4.78.37,2.49-5,6-2.11,17,13.66-25.64,33.24-8.47,46.79,3.37,2.67,6.25,5.88,9.62,8.55,3.9,3.15,3.4,5.3-1.89,6.88a78.07,78.07,0,0,1-22.52,3.51c-91.23.55-182.5,4.25-273.76,2.06-39.45-1-78.88.26-118.4-.16-48.94-.48-98-1.46-147-.71a412.54,412.54,0,0,1-47.39-2c2.59-5.09-20.3-11.38-15.64-15.56,21.37-18.85-19-38.48,2.29-57.43C860.13,831.34,965.61,826.05,969.87,826.05Z"/><path class="b96008a2-cbcc-41b6-b8f4-8133f52ce11c" d="M994.18,731.7c15.54.77,40.17,1.2,55.62,2.48,32.54,2.69,49.15,2.59,81.71,5.68,30.73,3,57.46,9.28,88.4,12.35,30,2.91,60.29,2.66,90.39,5.26,26.34,2.28,112.06,5.13,138.44,8.12,4.27.5,2.52-4.38,5.49-1.69,14.51,13.18-24.65,28.74-9.84,41.7,3,2.59,5.33,5.51,8.29,8.11,3.28,3,2.76,4.82-2,6.07a68.83,68.83,0,0,1-20.36,2.09c-82-3.84-164.21-4.94-246-11.22-35.38-2.75-70.86-3.47-106.31-5.71-44-2.75-88-5.89-132-7.62a368,368,0,0,1-42.53-4c2.61-4.58-17.66-11.2-13.27-14.76,20.09-15.95-15.18-35.42,4.81-51.48C895.5,731,990.42,731.37,994.18,731.7Z"/><path class="b96008a2-cbcc-41b6-b8f4-8133f52ce11c" d="M1004.22,649.89c13,1.5,33.87,3,46.92,4.92,27.43,3.85,41.55,4.69,68.9,8.94,25.92,4,48.22,10.74,74.24,14.85,25.21,3.95,50.8,5.35,76.2,9.09,22.23,3.28,94.66,9.92,116.73,13.82,3.57.63,2.26-3.56,4.7-1.14,11.71,11.79-22.18,22.94-10.37,34.73,2.44,2.31,4.29,5,6.63,7.28,2.76,2.7,2.13,4.25-2,5a58.91,58.91,0,0,1-17.38.74c-69.23-7.4-138.65-12.46-207.67-21.89-29.76-4-59.86-6.53-89.71-10.16-37-4.49-74.09-9.39-111.33-13.06a300.74,300.74,0,0,1-35.72-5.57c2.46-3.66-14.38-10.45-10.46-13.17,17.83-12.51-11-30.76,6.72-43.37C920.9,644.38,1001.26,649.42,1004.22,649.89Z"/><path class="b96008a2-cbcc-41b6-b8f4-8133f52ce11c" d="M1004,559.25c13.5,2.69,35,6.11,48.44,9.11,28.16,6.34,42.74,8.37,70.92,15.12,26.64,6.41,49.25,15.24,76,21.75,25.83,6.25,52.43,9.83,78.55,15.86,22.74,5.29,97.61,18.39,120.38,24.28,3.69,1,2.77-3.48,5-.75,11.18,13.34-25.16,22.08-13.79,35.3,2.25,2.63,4,5.48,6.27,8.11,2.57,3,1.84,4.67-2.49,5.08a60.38,60.38,0,0,1-18.16-.64c-71.45-13.47-143.38-24.59-214.32-40.21-30.72-6.82-61.75-11.91-92.54-18.22C1030,626.16,991.84,618,953.42,611a315.67,315.67,0,0,1-36.78-8.86c2.86-3.58-14.15-12-9.82-14.51,19.6-11.58-8.88-33,10.61-44.57C917.4,546.62,1000.63,558.71,1004,559.25Z"/></g><polygon class="b7262333-5e49-4819-9f11-3aad55d006e1" points="904.86 965.58 1078.13 678.06 1203 682.93 1419.53 985.99 1417.67 918.13 1235.99 641.69 1032.7 657.77 865.67 956.07 904.86 965.58"/><polygon class="edc6dc25-3db1-4f08-8cb1-deba3ab6d7d3" points="806.37 669.64 651.05 915.47 822.27 1018.05 961.86 798.01 1032.7 657.77 806.37 669.64"/><polygon class="a5836422-5efc-41f6-81e1-c9856b6290c5" points="983.46 694.47 834.02 958.51 865.67 970.12 878.95 970.12 1050.9 682.93 983.46 694.47"/><path class="a5836422-5efc-41f6-81e1-c9856b6290c5" d="M1315.54,692.29,1485,944.08s-22.37,23.22-34.63,26S1249.67,681.7,1249.67,681.7Z"/><path class="bc99a5f1-aea4-4e70-9530-4786af7cf672" d="M961.78,1881.53,943.11,1884Q952.7,1882.9,961.78,1881.53Z"/><path class="b6c1ed27-ce6c-4342-9503-9f9773c3a7ca" d="M943.11,1884l-.42.08h0Z"/><polygon class="bb568a94-9960-457e-8d08-f6bb01123507" points="412.54 1485.04 1008.08 1635.17 1662.28 1504.16 1436.89 1453.38 1011.2 1465.38 505.84 1468.84 412.54 1485.04"/><polygon class="a7b2b465-ec93-4483-a8e4-590157454af6" points="771.98 1394.18 766.22 1257.42 599 915.47 467.39 1189.88 471.12 1356.14 771.98 1394.18"/><polygon class="b7262333-5e49-4819-9f11-3aad55d006e1" points="792.66 1206.43 1026.05 1002.87 1182.75 1219.44 1182.75 1485.04 792.66 1531.42 792.66 1206.43"/><g class="bddddc93-593b-40ab-85ee-df7e36172732"><path class="b96008a2-cbcc-41b6-b8f4-8133f52ce11c" d="M721.33,1327.87c11.53-.68,29.9-2.31,41.43-2.65,24.27-.61,34,3.46,58.31,3.12,23.06-.27,46-3.18,69.23-3.46,22.45-.27,44.89-2.91,67.4-3.39,19.67-.4,83.47-5.29,103.2-5.15,3.19,0,1.5-3.46,3.94-1.69,11.86,8.54-15.94,23.19-3.94,31.66,2.38,1.7,4.41,3.66,6.79,5.36,2.71,2,2.44,3.39-1,4.68-4.75,1.76-7.32-2.17-12.61-1.83-61,3.79-124.29,14.71-185.46,16.61-26.37.81-52.75,3.12-79.19,4.34-32.75,1.49-65.64,2.71-98.39,5a276.59,276.59,0,0,1-31.8.4c1.62-3.52-14-6.85-11-9.83,13.56-13.43-14.17-25-.61-38.51C648.37,1335.46,718.75,1328.07,721.33,1327.87Z"/><path class="b96008a2-cbcc-41b6-b8f4-8133f52ce11c" d="M738.35,1248c11.53.07,30-.41,41.5,0,24.27.88,33.63,5.56,58,6.78,23,1.15,46.18-.34,69.3.88,22.44,1.16,45-.06,67.47.88,19.66.82,83.6,0,103.33,1.36,3.19.2,1.7-3.32,4-1.42,11.33,9.29-17.29,22.17-5.89,31.32,2.3,1.83,4.13,3.94,6.44,5.77,2.57,2.1,2.23,3.59-1.29,4.61a52.44,52.44,0,0,1-15.12,2.24c-61.16-.07-122,10.91-183.22,8.95-26.44-.82-55.05,4.2-81.5,3.73-32.82-.61-65.7-1.43-98.52-1.22a263.54,263.54,0,0,1-31.74-1.56c1.77-3.46-11.73-21.09-8.54-23.87,14.37-12.61-12.54-25.9,1.83-38.52C664.91,1250.91,735.64,1247.92,738.35,1248Z"/></g><path class="a5836422-5efc-41f6-81e1-c9856b6290c5" d="M917.56,1262.3H792.73L589.31,860.68C699.63,937.57,919.8,954.46,991.67,958a40.39,40.39,0,0,1,32.89,20c23.46,40.42,70.11,92.56,70.11,92.56C1106.06,1124.92,917.49,1262.3,917.56,1262.3Z"/><polygon class="b7262333-5e49-4819-9f11-3aad55d006e1" points="1182.01 1238.97 1415.33 1035.35 1572.03 1251.99 1572.03 1496.03 1182.01 1563.97 1182.01 1238.97"/><g class="eb4bd09b-23dd-47da-ac7b-9268046ab100"><path class="b96008a2-cbcc-41b6-b8f4-8133f52ce11c" d="M1220.79,1328.21c11.53-.68,29.84-2.31,41.37-2.65,24.27-.68,34,3.39,58.31,3,23-.27,46-3.18,69.23-3.45,22.44-.21,44.89-2.85,67.4-3.33,19.66-.4,83.47-5.29,103.2-5.15,3.19,0,1.49-3.46,3.93-1.7,11.87,8.55-15.93,23.26-3.93,31.67,2.38,1.7,4.41,3.66,6.78,5.36,2.71,2,2.44,3.39-1,4.68-4.75,1.76-7.33-2.17-12.62-1.84-61,3.8-124.29,14.65-185.45,16.62-26.44.81-52.82,3.12-79.26,4.34-32.76,1.49-65.64,2.71-98.39,5a274.38,274.38,0,0,1-31.8.41c1.62-3.52-14-6.85-11-9.83,13.56-13.49-14.17-25.09-.61-38.58C1147.63,1335.67,1218.08,1328.27,1220.79,1328.21Z"/><path class="b96008a2-cbcc-41b6-b8f4-8133f52ce11c" d="M1237.68,1248.26c11.52.07,30-.4,41.49,0,24.28.88,33.64,5.56,58,6.78,23,1.16,46.18-.34,69.3.88,22.44,1.16,45-.06,67.47.89,19.66.81,83.6,0,103.33,1.35,3.19.21,1.7-3.32,4-1.42,11.33,9.29-17.35,22.17-5.9,31.33,2.31,1.83,4.14,3.93,6.45,5.76,2.57,2.1,2.23,3.59-1.29,4.61a52.44,52.44,0,0,1-15.12,2.24c-61.23-.07-122.05,10.85-183.22,9-26.44-.82-55.06,4.2-81.5,3.73-32.82-.61-65.64-1.43-98.52-1.22a264,264,0,0,1-31.81-1.56c1.77-3.46-11.73-21.09-8.54-23.87,14.38-12.61-12.54-25.9,1.83-38.52C1164.17,1251.11,1234.9,1248.13,1237.68,1248.26Z"/><path class="b96008a2-cbcc-41b6-b8f4-8133f52ce11c" d="M1275.85,1183.3c11.53.55,29.91.82,41.43,1.7,24.21,1.83,36.62,1.76,60.89,3.93,23,2.1,42.92,6.71,66,8.88,22.31,2.11,44.89,1.77,67.33,3.67,19.66,1.62,83.54,3.39,103.2,5.56,3.19.4,1.83-3.26,4.07-1.22,10.92,9.69-18.24,21.42-7.19,31,2.17,1.9,4,4.14,6.17,6,2.51,2.23,2.11,3.66-1.49,4.54a52.27,52.27,0,0,1-15.19,1.63c-61.09-2.58-122.32-3.06-183.35-7.46-26.37-2-52.82-2.38-79.26-3.94-32.75-1.89-65.57-4.13-98.39-5.22a276.16,276.16,0,0,1-31.67-2.84c1.9-3.33-13.22-8.28-10-10.92,14.91-11.94-11.46-26.38,3.39-38.38C1202.21,1183.3,1273,1183.17,1275.85,1183.3Z"/><path class="b96008a2-cbcc-41b6-b8f4-8133f52ce11c" d="M1295.18,1120.92c10.37,1,26.85,2.1,37.16,3.46,21.69,2.85,32.81,3.32,54.51,6.44,20.48,3,38.18,8.07,58.79,11.12,20,2.92,40.28,3.73,60.35,6.44,17.56,2.38,74.86,7,92.42,9.9,2.85.48,1.83-2.85,3.73-1,9.29,9.29-17.43,18.45-7.93,27.6,1.89,1.83,3.39,3.87,5.28,5.7,2.11,2.1,1.7,3.32-1.56,4a46.14,46.14,0,0,1-13.69.74c-54.79-5.22-109.78-8.61-164.37-15.46-23.59-3-47.33-4.61-71-7.25-29.36-3.26-58.72-6.78-88.15-9.36a247,247,0,0,1-28.34-4.07c1.9-3-11.46-8.07-8.41-10.3,14-10-9-24.21,4.88-34.31C1229.13,1117.26,1292.67,1120.58,1295.18,1120.92Z"/><path class="b96008a2-cbcc-41b6-b8f4-8133f52ce11c" d="M1304.53,1066.47c8.68,1.43,22.58,3.12,31.26,4.82,18.24,3.45,27.67,4.47,45.84,8.2,17.22,3.53,31.94,8.75,49.23,12.34,16.75,3.46,33.83,5.22,50.72,8.55,14.78,2.91,63.06,9.69,77.7,13,2.38.55,1.63-2.3,3.19-.61,7.46,8.28-15.59,14.65-8.07,22.92,1.56,1.63,2.71,3.46,4.21,5.09,1.76,1.9,1.28,2.91-1.5,3.32a39.63,39.63,0,0,1-11.66-.07c-46.11-7.18-92.42-12.81-138.32-21.36-19.8-3.66-39.87-6.3-59.74-9.69-24.62-4.21-49.3-8.68-74.11-12.34a201.48,201.48,0,0,1-23.74-4.89c1.77-2.37-9.29-7.45-6.57-9.15,12.34-7.8-6.38-20.95,5.9-28.82C1248.93,1060.1,1302.57,1066.07,1304.53,1066.47Z"/><path class="b96008a2-cbcc-41b6-b8f4-8133f52ce11c" d="M1307.31,1005.79c9,2.23,23.26,5.22,32.15,7.66,18.64,5.15,28.34,7,47,12.41,17.62,5.15,32.47,11.79,50.17,17,17.09,5,34.79,8.27,52.08,13.15,15,4.27,64.75,15.46,79.81,20.14,2.44.81,2-2.24,3.39-.34,7,9.29-17.57,14-10.38,23.19,1.43,1.83,2.51,3.8,3.94,5.63,1.62,2.1,1.08,3.18-1.84,3.32a40.5,40.5,0,0,1-12.13-1c-47.4-11.32-95.2-21.08-142.19-33.83-20.35-5.56-41-10-61.37-15.19-25.36-6.51-50.65-13.22-76.15-19.12a213,213,0,0,1-24.34-7.12c2-2.31-9.08-8.48-6.1-10,13.49-7.12-4.88-22.37,8.54-29.49C1249.75,994.53,1305.08,1005.31,1307.31,1005.79Z"/></g><polygon class="b7262333-5e49-4819-9f11-3aad55d006e1" points="979.85 407.87 1180.67 204.25 1315.54 420.89 1315.54 664.93 979.85 662.81 979.85 407.87"/><g class="e9fe8142-9664-49e3-a3ac-21337bcffe96"><path class="b96008a2-cbcc-41b6-b8f4-8133f52ce11c" d="M1032.38,499.93c9.94-.24,25.75-1.16,35.68-1.05,20.9.25,29.06,4.69,50,5.29,19.83.61,39.73-1.42,59.68-.8,19.31.66,38.72-1.12,58.1-.73,16.93.35,72-2.08,89-1.18,2.74.12,1.44-3.4,3.46-1.54,9.82,9-14.74,22.62-4.8,31.48,2,1.78,3.63,3.83,5.59,5.61,2.25,2.07,3.09,12.85.06,14-4.16,1.57-6.06,8.84-10.62,9-52.64,1.45-42.14-5.39-94.82-5.77-33,6.19-108.86-5.07-131.66-4.86-28.22.23-54.52,6.86-82.79,7.91-9.13.34-23.68-5.89-32.75-6.77,1.56-3.46-11.71-7.38-9-10.24,12.27-13-10.31-40.67,2-53.63C969.89,489.51,1030,499.89,1032.38,499.93Z"/><path class="b96008a2-cbcc-41b6-b8f4-8133f52ce11c" d="M1033.71,413.08c9.91.51,25.79.74,35.68,1.59,20.84,1.82,28.67,6.85,49.55,9,19.77,2,39.72,1.43,59.55,3.54,19.24,2,37.31,6.8,56.63,8.61,16.87,1.57,72.39,4.14,89.3,6.25,2.73.33,2.44-9.32,4.34-7.33,9.32,9.71-15.92,21.48-6.47,31.07,1.9,1.91,3.38,4.08,5.28,6,2.12,2.2,1.76,3.68-1.32,4.56-4.32,1.3-6.33,8.16-10.71,8-52.64-2.42-111.83,6-164.34,1.79-22.7-1.83-43.51-4.11-66.23-5.6-28.19-1.87-56.38-3.95-84.66-5A193.86,193.86,0,0,1,973,472.74c1.67-3.38-9.14-21.51-6.28-24.17,12.93-12-9.63-26.36,3.3-38.4C970.38,413.1,1031.33,412.84,1033.71,413.08Z"/><path class="b96008a2-cbcc-41b6-b8f4-8133f52ce11c" d="M1060.73,349.65c9.89,1,25.68,2,35.55,3.29,20.73,2.76,31.41,3.17,52.18,6.27,19.67,3,36.61,8.35,56.34,11.4,19.08,3,38.51,3.49,57.73,6.25,16.83,2.38,71.68,6.6,88.49,9.52,2.72.53,1.72-3.18,3.55-1.06,9,10.1-16.64,20.7-7.57,30.74,1.79,2,3.26,4.29,5,6.27,2.06,2.33,1.64,3.74-1.48,4.48a38.91,38.91,0,0,1-13.14,1c-52.41-4.92-105-7.74-157.32-14.49-22.59-3-45.31-4.4-68-7-28.08-3.15-56.19-6.65-84.37-9a206.58,206.58,0,0,1-27.1-4.06c1.79-3.25-11-8.78-8.08-11.29,13.36-11.35-8.68-26.79,4.63-38.21C997.42,346.82,1058.29,349.41,1060.73,349.65Z"/><path class="b96008a2-cbcc-41b6-b8f4-8133f52ce11c" d="M1267.3,626.22c-10.1.09-26.16.84-36.28.58-21.25-.54-32.07.23-53.4-.66-20.2-.89-37.91-4.57-58.18-5.53-19.61-.93-39.29.7-59,0-17.27-.59-73.13,1.19-90.44,0-2.81-.25-1.38,3.49-3.47,1.5-10.18-9.49,14.47-23.37,4.18-32.79-2-1.86-3.78-4.08-5.8-5.94-2.34-2.19-2.08-3.7,1-4.82A38.5,38.5,0,0,1,979,576c53.49-.77,107-3.74,160.52-2.6,23.15.56,46.26-.51,69.44-.38,28.71.13,57.5.6,86.22-.12a200.9,200.9,0,0,1,27.82,1.18c-1.43,3.57,12.1,7.87,9.44,10.81-12.21,13.29,11.79,26.86-.36,40.21C1331.56,622.06,1269.79,626.2,1267.3,626.22Z"/><path class="b96008a2-cbcc-41b6-b8f4-8133f52ce11c" d="M1079.32,290.66c8.88,1.42,23,3.14,31.8,4.89,18.53,3.68,28.07,4.58,46.59,8.53,17.47,3.76,32.46,9.52,50,13.36,17.07,3.69,34.47,5.28,51.6,8.76,15,3,64.06,9.92,79,13.44,2.43.58,1.7-2.78,3.25-.81,7.57,9.64-15.81,17.76-8.05,27.27,1.55,1.9,2.74,4,4.29,5.89,1.71,2.18,1.31,3.39-1.52,3.94a34.43,34.43,0,0,1-11.81.22c-46.88-7.32-94-12.82-140.64-21.76-20.16-3.89-40.49-6.43-60.72-10-25.1-4.38-50.19-9-75.38-12.73a185.59,185.59,0,0,1-24.19-5.16c1.77-2.9-9.49-8.5-6.77-10.61,12.46-9.49-6.67-24.53,5.73-34.09C1022.7,284.47,1077.18,290.23,1079.32,290.66Z"/><path class="b96008a2-cbcc-41b6-b8f4-8133f52ce11c" d="M1090.61,237.05c7.4,1.76,19.28,4,26.66,6,15.53,4.16,23.59,5.54,39,10,14.65,4.19,27.07,10,41.78,14.22,14.25,4.1,28.86,6.52,43.23,10.49,12.58,3.48,53.79,12.1,66.23,16,2,.63,1.51-2.24,2.77-.49,6.05,8.55-14.06,14-8,22.59,1.27,1.68,2.18,3.55,3.39,5.24,1.43,2,1,3-1.43,3.26a29.43,29.43,0,0,1-10-.52c-39.32-8.95-78.89-16.35-118-26.65-16.87-4.42-34-7.83-50.94-12-21-5.15-42-10.57-63.17-15.18A152.69,152.69,0,0,1,1042,264.2c1.62-2.3-7.66-7.8-5.25-9.39,11-7.32-4.54-21.18,6.36-28.57C1043.09,228.55,1088.94,236.57,1090.61,237.05Z"/><path class="b96008a2-cbcc-41b6-b8f4-8133f52ce11c" d="M1095.71,177.6c7.6,2.58,19.77,6.11,27.29,8.89,15.81,5.87,24.06,8.07,39.86,14.21,14.92,5.82,27.4,13,42.38,18.93,14.47,5.67,29.54,9.6,44.19,15.14,12.75,4.84,55,17.93,67.72,23.18,2.07.91,1.8-2.16,2.94-.21,5.64,9.56-15.73,13.28-10,22.77,1.14,1.89,2,3.89,3.13,5.78,1.31,2.16.79,3.22-1.72,3.25a30.28,30.28,0,0,1-10.39-1.49c-40.25-13.13-80.92-24.72-120.76-39.26-17.24-6.34-34.77-11.53-52.08-17.53-21.52-7.48-43-15.16-64.62-22a165.78,165.78,0,0,1-20.62-8c1.85-2.22-7.43-8.82-4.8-10.26,11.92-6.59-3.2-22.54,8.67-29.14C1046.71,164.15,1093.81,177,1095.71,177.6Z"/></g><path class="b7262333-5e49-4819-9f11-3aad55d006e1" d="M1148.38,1551.9c5.22,9,23.52,11.6,33.7,12a15.77,15.77,0,0,0,7.05-1.22c9-165,0-293.94,0-293.94l-38.45,6,3.66,133.44Z"/><path class="b7262333-5e49-4819-9f11-3aad55d006e1" d="M1562.47,1243l-1,111.75,3.39,141.24-37.09,6.1C1518.74,1337,1539.08,1259,1539.08,1259Z"/><path class="b8b43a6e-1f7c-41b1-bd2a-5a87bb173900" d="M1572.1,1243l-.95,111.75,3.39,141.24-37.09,6.1C1528.36,1337,1548.71,1259,1548.71,1259Z"/><path class="a7b2b465-ec93-4483-a8e4-590157454af6" d="M1144.58,1255.65c1.63.14,21.83,2.51,37.43,3.73V1239l-258.08,15.87c17.5.68,35.81,1.42,52.08,1.69,23.19.41,45.84-1.55,68.89-1.08,24.35.47,34-3.53,58.32-2.71C1114.74,1253.14,1133.05,1255,1144.58,1255.65Z"/><path class="a7b2b465-ec93-4483-a8e4-590157454af6" d="M1148.92,1326.24c1.42.2,19.87,3.93,33.16,5.83l.61-28c-1.9-.21-4.48,5.08-6.78,4.4-27.53-2.5-55.2-4-82.8-5.69-22.24-1.42-45.09.81-67.33-.2-32.41-1.43-51.33-1.36-73.71-2.11v13c17.77,1.7,37.84,4,55.06,5.36,19.46,1.56,38.65.68,58,2.3,20.48,1.7,28.82-1.83,49.16.21C1124,1322.31,1139.29,1325,1148.92,1326.24Z"/><path class="a7b2b465-ec93-4483-a8e4-590157454af6" d="M952.14,1359.74v104.89l.27,48.42,229.73,50.85V1382.32a26.9,26.9,0,0,1-10-1.77c-27.4-4.13-55-7.18-82.46-10.51-22.17-2.71-45.09-1.83-67.26-4.13C991.61,1362.65,973,1361.64,952.14,1359.74Z"/><path class="b208234e-1bf4-4297-9e78-5b75a513ea78" d="M1182.08,1382.45v-50.24c-13.29-1.9-31.67-5.63-33.16-5.83-9.63-1.29-25-4-34.65-5-20.41-2-28.68,1.49-49.16-.21-19.39-1.62-38.52-.74-58-2.3-17.22-1.43-37.29-3.66-55.06-5.36v46.24c21,1.84,39.54,2.92,70.25,6.11,22.18,2.3,45.09,1.42,67.27,4.13,27.46,3.33,55,6.38,82.45,10.51A30.32,30.32,0,0,0,1182.08,1382.45Z"/><path class="b208234e-1bf4-4297-9e78-5b75a513ea78" d="M1176,1308.61c2.24.68,4.82-.95,6.72-.81l-.55-48.35c-13.15-1.22-30.1-3.59-31.53-3.73-9.69-.74-25.15-2.51-34.85-2.91-20.41-.82-28.61,3.18-49.09,2.71-19.39-.48-38.45,1.49-58,1.08-13.69-.34-29.09-1.08-43.8-1.69l-12.82.95v44.68c22.38.75,41.3.61,73.71,2.1,22.24,1,45.09-1.22,67.33.21C1120.71,1304.54,1148.38,1306,1176,1308.61Z"/><path class="b7262333-5e49-4819-9f11-3aad55d006e1" d="M958.31,1513.05c7.8,6.1,20,6.37,24.55,6.78l-.2-25.63.2,25.63c.61.07-2.1-248.72-2.1-248.72l-26,7.19-1,56.82Z"/><path class="b8b43a6e-1f7c-41b1-bd2a-5a87bb173900" d="M952.35,1513.05c7.79,6.1,20,5.83,24.54,6.24l-.2-25.09.2,25.09c.61.06-2.1-248.18-2.1-248.18l-26,7.19-1,56.82Z"/><path class="b8b43a6e-1f7c-41b1-bd2a-5a87bb173900" d="M1141.93,1551.9c7.33,12.75,40.08,12,40.08,12,9.08-165,.68-295.16.68-295.16l-38.45,6,3.66,133.44Z"/><path class="b7262333-5e49-4819-9f11-3aad55d006e1" d="M964.48,652.9c5.22,9,23.53,11.6,33.7,12a15.72,15.72,0,0,0,7.05-1.22c9-165,0-293.94,0-293.94l-38.44,6,3.66,133.44Z"/><path class="a7b2b465-ec93-4483-a8e4-590157454af6" d="M919.58,557.62c-21.76,4.79-43.1,13.26-64.75,18.44-12.08,2.91-22.19,5.49-31.29,7.86v16.39c6.16-1.14,12.19-2.28,17.87-3.45,19.14-3.89,37.33-10.05,56.35-13.83,20.15-4,27.19-9.74,47.3-13.42,9.58-1.77,25.05-3.4,34.64-4.9.85-.12,7.85-.7,16.18-1.55v-22C970.36,546.13,945,552,919.58,557.62Z"/><path class="a7b2b465-ec93-4483-a8e4-590157454af6" d="M818.73,460.74V565.63l4.56,116.07,175-16.8V483.32a16.94,16.94,0,0,1-7.83-1.77c-21.38-4.13-42.93-7.18-64.36-10.51-17.31-2.71-35.2-1.83-52.5-4.13C849.53,463.65,835,462.64,818.73,460.74Z"/><path class="b208234e-1bf4-4297-9e78-5b75a513ea78" d="M982.88,427.14c-13.29,1.86-32,3.36-33.47,3.58-9.61,1.43-25.09,3.06-34.67,4.83-20.17,3.7-27.14,9.38-47.29,13.42-15.77,3.14-30.89,7.86-46.46,11.6v5.9h-6l1.44,56.17c7.13-1.39,12.87-7.87,21.71-9.45,21.94-3.92,44.7-17.29,66.76-20.82,32.75-5.29,48.31-12.88,53.18-13.9,7.19-.91,15.53-.37,28.59-2.09a30.07,30.07,0,0,0,10.16-1Z"/><path class="b208234e-1bf4-4297-9e78-5b75a513ea78" d="M987.46,497.21c-11.78,2.07-24.44,3.88-25.65,4.11-9.52,2-24.87,4.56-34.3,6.85-19.84,4.87-26.61,11-46.42,16.2-18.77,4.91-36.53,12.07-55.41,17.09l-3.41.88v46.8c9.43-2.48,19.92-5.15,32.58-8.17,21.65-5.18,43-13.66,64.75-18.45,22.57-5,45.14-10.24,67.86-14.79Z"/><path class="b208234e-1bf4-4297-9e78-5b75a513ea78" d="M997.6,572.82c-11.66,1.3-24.19,2.32-25.39,2.47-9.44,1.3-24.63,2.89-34,4.48-19.7,3.39-26.6,8.44-46.29,12.13-18.65,3.47-36.4,9-55.17,12.51l-3.39.62L831.53,646c9.38-1.75,19.8-3.62,32.37-5.71,21.49-3.58,42.81-10.06,64.41-13.29,22.39-3.4,44.79-7,67.31-10Z"/><path class="b7262333-5e49-4819-9f11-3aad55d006e1" d="M823.27,674.82c5.63,4,13.56,5.28,19.24,5.81a4.83,4.83,0,0,0,5.26-4.86l-.16-18.2-1.9-204.16-26,6.58-1,52Z"/><path class="b8b43a6e-1f7c-41b1-bd2a-5a87bb173900" d="M839.75,453.41l-15.1,3.83v12.21H813.59L812.76,512l3.38,165.76c7.8,5.58,21.17,2.41,25.71,2.78C842.46,680.59,839.75,453.41,839.75,453.41Z"/><path class="b8b43a6e-1f7c-41b1-bd2a-5a87bb173900" d="M958,664.91c7.32,12.75,40.07,0,40.07,0,9.09-165,.68-295.16.68-295.16l-38.44,6L964,509.15Z"/><path class="a7b2b465-ec93-4483-a8e4-590157454af6" d="M470.85,1345.5l.47,137.44,300.59,48.48V1370.86a30.13,30.13,0,0,1-10-1.56c-27.4-3.73-55-6.38-82.46-9.36C657.32,1357.57,498,1345.5,470.85,1345.5Z"/><path class="edc6dc25-3db1-4f08-8cb1-deba3ab6d7d3" d="M1148.44,1278.64l-199.08-6-31.8-10.31,177.18-191.76C1360.41,1046.4,1424,994.87,1424,994.87Z"/><polygon class="b8b43a6e-1f7c-41b1-bd2a-5a87bb173900" points="1011.75 1669.21 411.99 1513.52 412.54 1485.04 1009.91 1617.13 1011.75 1669.21"/><path class="b7262333-5e49-4819-9f11-3aad55d006e1" d="M1011.74,1669.27s645.19-130,650.54-137.51.41-27.53.41-27.53l-652.78,112.9C988.08,1621,1011.74,1669.27,1011.74,1669.27Z"/><g class="a3214537-8dd7-461f-b290-f08481e6edb6"><path class="b208234e-1bf4-4297-9e78-5b75a513ea78" d="M433.35,1133.26c15.19,1.49,30.38,3.32,45.57,5.29,31.94,4.07,64.21,5.56,96.22,10,30.31,4.27,61,5.15,91.4,9.49,29.43,4.2,59.33,5.36,89,9.29,25.91,3.46,110.39,10,136.29,14.17,4.14.61,2.58-4.27,5.43-1.42,13.83,13.63-25.5,27.19-11.53,40.68,2.78,2.71,5,5.7,7.8,8.41,3.19,3,2.51,5-2.24,5.9a69.82,69.82,0,0,1-20.2,1.15c-80.76-7.46-161.79-12.14-242.35-22-34.78-4.27-69.84-6.58-104.69-10.37-43.33-4.68-86.59-9.77-130-13.36a359.27,359.27,0,0,1-41.76-5.9c2.78-4.34-17-11.87-12.41-15.12,20.54-14.92-13.43-35.74,7-50.65C347.24,1122.82,429.76,1132.86,433.35,1133.26Z"/><path class="b208234e-1bf4-4297-9e78-5b75a513ea78" d="M476.55,1294c15.25,1.09,39.66,2,54.85,3.53,32.07,3.25,44.08,10.24,76.15,13.9,30.38,3.46,61.09,3.53,91.61,7,29.56,3.39,59.46,3.73,89.16,6.92,26,2.78,110.66,7.19,136.63,10.64,4.21.55,2.51-4.27,5.43-1.56,14.1,13.23-24.89,27.87-10.51,41,2.84,2.64,5.15,5.56,8,8.2,3.25,3,2.64,4.89-2.1,6a69.5,69.5,0,0,1-20.14,1.7c-80.9-5.36-162.06-7.87-242.82-15.67-34.92-3.39-70-4.81-105-7.66-43.4-3.52-86.8-7.46-130.26-10a361.53,361.53,0,0,1-41.91-4.81c2.65-4.41-17.22-11.39-12.81-14.78,20.14-15.39-14.38-35.33,5.69-50.79C379,1291.46,472.88,1293.63,476.55,1294Z"/><path class="b208234e-1bf4-4297-9e78-5b75a513ea78" d="M506,1217.07c15.26,1.29,39.67,2.51,54.86,4.21,32,3.66,48.48,4.06,80.49,8.13,30.31,3.87,56.55,11,87,14.92,29.5,3.8,59.47,4.47,89.1,8,26,3.12,110.59,8.48,136.5,12.27,4.13.61,2.5-4.27,5.42-1.49,14,13.36-25.16,27.53-11,40.82,2.84,2.65,5.08,5.63,7.93,8.27,3.25,3.06,2.58,5-2.17,6a69.68,69.68,0,0,1-20.21,1.43C853,1313.29,772,1309.76,691.29,1301c-34.85-3.8-69.91-5.7-104.83-9-43.33-4.07-86.66-8.48-130.12-11.53a361.32,361.32,0,0,1-41.84-5.29c2.71-4.41-17.15-11.66-12.68-15,20.34-15.18-13.9-35.46,6.38-50.72C408.6,1213.48,502.38,1216.73,506,1217.07Z"/><path class="b208234e-1bf4-4297-9e78-5b75a513ea78" d="M877.83,1168.39c-13.7-1.29-35.6-2.51-49.3-4.21-28.75-3.52-43.6-4.07-72.35-7.93-27.26-3.66-50.79-10.31-78.11-14-26.51-3.66-53.43-4.54-80.08-7.93-23.33-3-99.41-8.48-122.66-12.07-3.73-.61-2.31,3.8-4.89,1.29-12.47-12.14,22.85-24.55,10.17-36.62-2.5-2.44-4.54-5.15-7.05-7.52-2.91-2.72-2.3-4.41,2-5.29a60.58,60.58,0,0,1,18.17-1.16c72.69,6.31,145.58,10.11,218.07,18.58,31.26,3.66,62.79,5.56,94.18,8.82,39,4,77.91,8.34,117,11.39a316.74,316.74,0,0,1,37.56,5.09c-2.51,3.93,15.33,10.57,11.26,13.56-18.38,13.49,12.2,32-6.1,45.56C965.36,1172.32,881,1168.73,877.83,1168.39Z"/><path class="b208234e-1bf4-4297-9e78-5b75a513ea78" d="M703.36,1070.54c-13.77-.47-35.67-.47-49.43-1.36-29-1.83-43.74-1.49-72.69-3.72-27.39-2.11-51.26-7.33-78.79-9.5-26.65-2.1-53.57-1.35-80.35-3.25-23.46-1.63-99.68-2.78-123.14-5-3.8-.34-2.1,3.93-4.81,1.56-13.16-11.39,21.42-25.83,8.06-37.16-2.64-2.3-4.81-4.88-7.45-7.12-3.06-2.57-2.51-4.27,1.69-5.42a62.55,62.55,0,0,1,18.11-2.17c72.89,2.1,145.92,1.69,218.74,6,31.39,1.9,63,2,94.52,3.39,39.06,1.77,78.18,3.8,117.38,4.62a321,321,0,0,1,37.83,2.91c-2.24,4.07,15.87,9.7,12,12.88-17.56,14.52,14,31.26-3.45,45.84C791,1069.46,706.61,1070.74,703.36,1070.54Z"/><path class="b208234e-1bf4-4297-9e78-5b75a513ea78" d="M694.41,997.17c-13.77-.47-35.67-.47-49.43-1.35-28.89-1.83-43.74-1.49-72.69-3.73C544.9,990,521,984.77,493.5,982.6c-26.65-2.11-53.57-1.36-80.35-3.26-23.46-1.63-99.68-2.78-123.14-5-3.8-.34-2.1,3.94-4.82,1.56-13.15-11.39,21.36-25.83,8.07-37.16-2.64-2.3-4.81-4.88-7.45-7.12-3.06-2.57-2.51-4.27,1.69-5.42a61.79,61.79,0,0,1,18-2.17c72.89,2.1,145.92,1.7,218.74,6,31.46,1.9,63.06,2,94.59,3.39,39.06,1.76,78.18,3.79,117.38,4.61a321,321,0,0,1,37.83,2.91c-2.24,4.07,15.87,9.7,12,12.89-17.56,14.51,14,31.26-3.45,45.83C782.08,996.16,697.66,997.38,694.41,997.17Z"/></g><path class="b7262333-5e49-4819-9f11-3aad55d006e1" d="M477.09,1480.23c10.37,9.56,31.12,7.12,31.12,7.12,7.66-165.11-6.44-322.08-6.44-322.08l-25.22,28.81,3.05,133.45Z"/><path class="b7262333-5e49-4819-9f11-3aad55d006e1" d="M766.62,1528.78c11.87,6.44,40.08,1,40.08,1,9.08-165,5.29-267.5,5.29-267.5l-43.13-20.07,3.66,133.44Z"/><path class="b8b43a6e-1f7c-41b1-bd2a-5a87bb173900" d="M467.46,1480.23c10.37,9.56,31.12,7.12,31.12,7.12,7.6-165.11-6.51-322.08-6.51-322.08l-25.22,28.81,3,133.45Z"/><path class="b7262333-5e49-4819-9f11-3aad55d006e1" d="M583.61,922.38l22,28.41S541,1096.31,514,1172.18c-22.64,63.81-48.95,71.2-48.95,71.2Z"/><path class="b8b43a6e-1f7c-41b1-bd2a-5a87bb173900" d="M755.71,1528.71c11.86,6.44,40.07,2.65,40.07,2.65,9.09-165,5.36-269.13,5.36-269.13L758,1242.16l3.66,133.44Z"/><path class="b7262333-5e49-4819-9f11-3aad55d006e1" d="M598.06,913.57l-22.31,14s123.34,260.52,146.6,305.61,86.38,47.46,86.38,47.46Z"/><path class="edc6dc25-3db1-4f08-8cb1-deba3ab6d7d3" d="M444.54,1186.49c-4.68,11.19-5.22,40.28,7.12,52a17.42,17.42,0,0,0,11.66,4.74l4.68.14,130.73-303,153.93,303.64c16.81,33.49,48.48,36.61,48.48,36.61l131.14-2.91-14.79-15.46-99.33-6.17a36.87,36.87,0,0,1-32.55-19.67L589.24,860.61Z"/><path class="b06beccd-47bf-4050-9ed1-97068fdcd499" d="M577.85,1076.44c1.83,12.27,7.73,17.83,14.31,19.73-.41,3.19-.75,5.09-.75,5.09l7.05.34a11.93,11.93,0,0,0,1.63-4.61,31.68,31.68,0,0,0,3.59-.48l.07-.27a29.52,29.52,0,0,0,4.21-1.36c7.93-3.39,18.85-26.31,3-38a22.62,22.62,0,0,0-6.72-3.39v-.2a32,32,0,0,0-3.45-.61c-.14-2.37-.21-3.8-.21-3.8l-7.73.34c.21,1.22.41,2.44.54,3.66-.81.21-1.62.34-2.44.61C583.75,1055.62,575.61,1061.39,577.85,1076.44Z"/><path class="edc6dc25-3db1-4f08-8cb1-deba3ab6d7d3" d="M595.68,1096.71a25,25,0,0,0,8.14-.27c1.9-10.91,1-33.76.54-43.19a23.16,23.16,0,0,0-7.46-.68C599,1067.76,596.84,1087.76,595.68,1096.71Z"/><path class="ecf5c525-06f5-49db-8514-e0239ff6c2cd" d="M593,1049.25c3.8,20.07-1.42,51.94-1.42,51.94l7.05.34c4.95-6.71,2-52.69,2-52.69Z"/><path class="edc6dc25-3db1-4f08-8cb1-deba3ab6d7d3" d="M571.48,1077.59c5.35,35.19,32.14,35.19,47,28.82,12.41-5.29,29.43-41.09,4.75-59.4a35.49,35.49,0,0,0-31.26-5.29C580.7,1045.18,568,1054.06,571.48,1077.59Zm24.61-23.93a22.59,22.59,0,0,1,20,3.39c15.8,11.73,4.88,34.65-3.05,38-9.56,4.07-26.71,4.07-30.11-18.45C580.63,1061.59,588.77,1055.89,596.09,1053.66Z"/><path class="ecf5c525-06f5-49db-8514-e0239ff6c2cd" d="M566.46,1077.39c5.35,35.19,32.14,35.19,47.06,28.82,12.4-5.29,29.42-41.09,4.74-59.4a35.25,35.25,0,0,0-31.26-5.29C575.68,1044.91,562.93,1053.86,566.46,1077.39Zm24.61-24a22.59,22.59,0,0,1,20,3.39c15.8,11.73,4.89,34.65-3.05,38-9.56,4.06-26.71,4.06-30.1-18.45C575.61,1061.39,583.75,1055.62,591.07,1053.39Z"/><path class="ecf5c525-06f5-49db-8514-e0239ff6c2cd" d="M624,1076.44c-13.09,5.49-50.59,1.49-50.59,1.49l-1.22-8.81c33.3,3.32,52.21-.68,52.21-.68Z"/><path class="b06beccd-47bf-4050-9ed1-97068fdcd499" d="M1184.91,312.41c-.94-.42-1.9-.68-2.85-1,.31-1.44.69-2.88,1.08-4.31l-9.2-1.32s-.25,1.69-.69,4.51a37.46,37.46,0,0,0-4.2.32l0,.25a26.88,26.88,0,0,0-8.42,3.25c-20.27,12.16-9.93,40.84-.85,45.83a36,36,0,0,0,4.86,2.11l.05.34a38,38,0,0,0,4.24,1,14.17,14.17,0,0,0,1.4,5.7l8.47.43s-.18-2.31-.29-6.17c8.08-1.49,15.79-7.44,19.43-21.89C1202.36,323.71,1193.32,315.86,1184.91,312.41Z"/><path class="ecf5c525-06f5-49db-8514-e0239ff6c2cd" d="M1178,310.66a27.67,27.67,0,0,0-9-.08c-1.69,11.21-5.44,38.42-4.46,51.69a30.36,30.36,0,0,0,9.69,1.29C1173.88,352.72,1173.65,328.56,1178,310.66Z"/><path class="edc6dc25-3db1-4f08-8cb1-deba3ab6d7d3" d="M1173.94,305.76s-8.92,54.6-3.79,63.2l8.46.43s-2.47-38.7,4.44-62.24Z"/><path class="ecf5c525-06f5-49db-8514-e0239ff6c2cd" d="M1185.08,298.27a42.64,42.64,0,0,0-38,2.62c-31.66,19-15.55,63.76-1.35,71.55,17.08,9.38,49.09,12.55,59.65-28.88C1212.39,315.86,1198.2,303.74,1185.08,298.27Zm6.73,42.81c-6.71,26.5-27.22,24.47-38.16,18.48-9.08-5-19.42-33.67.85-45.82a27.16,27.16,0,0,1,24.3-1.69C1187.29,315.59,1196.34,323.36,1191.81,341.08Z"/><path class="edc6dc25-3db1-4f08-8cb1-deba3ab6d7d3" d="M1191.1,298.62a42.39,42.39,0,0,0-38,2.62c-31.66,19-15.55,63.76-1.34,71.55,17.07,9.38,49.08,12.55,59.64-28.88C1218.41,316.21,1204.23,304,1191.1,298.62Zm6.74,42.72c-6.72,26.51-27.22,24.48-38.16,18.49-9.08-5-19.42-33.67.85-45.83a27.19,27.19,0,0,1,24.3-1.68C1193.32,315.86,1202.36,323.71,1197.84,341.34Z"/><path class="edc6dc25-3db1-4f08-8cb1-deba3ab6d7d3" d="M1143.26,326.37s22.14,7,62.32,7l-2.5,10.39s-45.28.35-60.28-7.76Z"/><polygon class="a7b2b465-ec93-4483-a8e4-590157454af6" points="1071.35 1408.15 1070.81 1539.29 1078.13 1540.92 1072.5 1408.29 1071.48 1383.27 1071.35 1408.15"/><path class="a7b2b465-ec93-4483-a8e4-590157454af6" d="M1027.34,1529.52l5.36,1.23c-1.43-26.45-3.6-86.59-4.88-126-.75-21.7-1.23-37.16-1.23-37.16s-.27,15.87-.47,37.09c-.41,39-.75,96.22.41,107.41A150.8,150.8,0,0,1,1027.34,1529.52Z"/><path class="a7b2b465-ec93-4483-a8e4-590157454af6" d="M1047.07,1406.25c.75,41,1.15,103.61,1.29,128l7.53,1.7-6.51-166.67-3.87-1.09C1046.12,1370,1046.6,1385.37,1047.07,1406.25Z"/><path class="b7262333-5e49-4819-9f11-3aad55d006e1" d="M1110.2,1372.48c2.92.34,8.48,1.43,11.32,1.77l-.33-8.82-11.4-6.57Z"/><path class="b7262333-5e49-4819-9f11-3aad55d006e1" d="M1109.18,1547.83l7.73,1.7,3.73.81,1.56-60.48c1.7-19.94,1.22-41,.61-61v-15.32l-1.35-39.26c-2.92-.34-8.48-1.43-11.33-1.77l1.22,39.26.48,14.58c.68,20,.68,41.77-1,61.71Z"/><path class="b06beccd-47bf-4050-9ed1-97068fdcd499" d="M993.37,1522.07l8.88,2,11.46,2.51,78.18,17.36-.27-1.15-.07-15.39.34,16.54,8.95,2,8.55,1.9,1.49-59.74c1.69-19.94,1.63-41.7,1-61.71l-.48-14.58-1.22-39.26-.41-13.62-114.12-9.36-.2,13.83-.54,39.19Z"/><path class="ecf5c525-06f5-49db-8514-e0239ff6c2cd" d="M1022.12,1360.21V1366h.34c21.63,2.23,44.07,1.42,65.77,3.93l-.13-5.49s-1.9-.34-5.23-.82A468,468,0,0,0,1022.12,1360.21Z"/><path class="edc6dc25-3db1-4f08-8cb1-deba3ab6d7d3" d="M1022.46,1528.58l4.81,1.08a151.76,151.76,0,0,0-.81-17.56c-1.22-11.19-.81-68.42-.41-107.41.27-21.29.48-37.09.48-37.09s.47,15.39,1.22,37.16c1.29,39.4,3.46,99.54,4.88,126l15.59,3.45c-.13-24.41-.54-86.92-1.28-128-.41-21-.88-36.27-1.5-38.1l3.87,1.15,6.51,166.67,15,3.32.55-131.14.13-24.88,1,25,5.56,132.63,13.7,3.05-2.85-134.33-.81-39.73c-21.7-2.44-44.08-1.7-65.78-3.93H1022l.14,39Z"/><path class="ecf5c525-06f5-49db-8514-e0239ff6c2cd" d="M1013,1365c2.92.27,5.83.54,9,.88v-5.76a493.61,493.61,0,0,1,60.89,3.52,483.75,483.75,0,0,0-69.77-4.68Z"/><path class="ecf5c525-06f5-49db-8514-e0239ff6c2cd" d="M1013.64,1526.61l9,2-.4-123.68-.14-39.06c-3.12-.34-6.1-.61-8.95-.88l.14,38.85Z"/><path class="edc6dc25-3db1-4f08-8cb1-deba3ab6d7d3" d="M639.21,1355.74l-74.92-7.6a839.52,839.52,0,0,0,1.49-87.13c-1.63-49.36,19.66-85.37,28.82-90.79,9.56-5.63,28.68,24,41.36,44.21,11.12,17.76,11,109.71,10.85,131.68a7.8,7.8,0,0,1-4.21,6.91Z"/><path class="ecf5c525-06f5-49db-8514-e0239ff6c2cd" d="M565,1348.21a7.51,7.51,0,0,1-6.72-7.73c.55-13.09,1.49-43.06.27-79.67-1.62-49.37,25.91-86.12,36.08-90.59s21.42,23.8,34.1,44,10.51,141.52,10.51,141.52Z"/><path class="b06beccd-47bf-4050-9ed1-97068fdcd499" d="M572.22,1338.51s1.43-46.38.41-79.74,16.75-58.11,23.26-61.16,13.76,16.07,22,29.7,6.91,115.41,6.91,115.41Z"/><path class="edc6dc25-3db1-4f08-8cb1-deba3ab6d7d3" d="M593.11,1340.34l11.25.89c2.31-21.43.95-104.9.07-138-3.32-5.49-7.19-7.26-10.17-6.85C595.28,1224.73,593.58,1317.7,593.11,1340.34Z"/><path class="ecf5c525-06f5-49db-8514-e0239ff6c2cd" d="M589.31,1189.41c2.51,8.4-.95,156.09-.95,156.09H599c4.28-13.9,0-153.65,0-153.65Z"/><path class="ecf5c525-06f5-49db-8514-e0239ff6c2cd" d="M631.62,1281.89c-.81,6.92-64.82-3.72-64.82-3.72l-2.51-14.58c19.05,6.78,67.26,4.81,67.26,4.81Z"/><path class="ecf5c525-06f5-49db-8514-e0239ff6c2cd" d="M1120.33,978.47a8.94,8.94,0,0,1-4.62-8c.37-25.13,2.81-130.32,16-150.34,15.06-22.77,37.75-56.15,48.53-49.45,10.33,6.46,33.7,48.23,30.49,104.66a962.66,962.66,0,0,0-.68,99.72l-85.92,6.64Z"/><path class="edc6dc25-3db1-4f08-8cb1-deba3ab6d7d3" d="M1124.14,981.67S1125,842.83,1140,820.06s28.71-54.81,40.22-49.41,42,48.19,38.79,104.62c-2.39,41.86-2.13,76.17-1.86,91.16a8.59,8.59,0,0,1-7.89,8.66Z"/><path class="b06beccd-47bf-4050-9ed1-97068fdcd499" d="M1141,967.17s1.3-116.47,11.06-131.84,18.59-37.05,26-33.38,27,32.47,24.93,70.61-1.71,91.24-1.71,91.24Z"/><path class="ecf5c525-06f5-49db-8514-e0239ff6c2cd" d="M1179.92,800.6c-3.4-.55-7.87,1.37-11.82,7.56-1.91,37.83-5.74,133.28-3.69,157.86l12.9-.7C1177.38,939.4,1178,833,1179.92,800.6Z"/><path class="edc6dc25-3db1-4f08-8cb1-deba3ab6d7d3" d="M1174.62,795.27s-8.71,159.76-4.2,175.78l12.18.29s.08-169,3.18-178.59Z"/><path class="edc6dc25-3db1-4f08-8cb1-deba3ab6d7d3" d="M1135.29,882s55.1,3.57,77.08-3.67l-3.26,16.61s-73.52,10.43-74.27,2.5Z"/><path class="ecf5c525-06f5-49db-8514-e0239ff6c2cd" d="M1056.93,573.39a6.54,6.54,0,0,1-3.38-5.87c.27-18.39,2-95.32,11.71-110,11-16.66,27.61-41.07,35.49-36.17,7.55,4.72,24.65,35.28,22.3,76.55a701.79,701.79,0,0,0-.49,72.93l-62.85,4.85Z"/><path class="edc6dc25-3db1-4f08-8cb1-deba3ab6d7d3" d="M1059.71,575.72s.61-101.54,11.63-118.19,21-40.08,29.41-36.14,30.72,35.25,28.37,76.52c-1.75,30.61-1.55,55.71-1.36,66.67a6.28,6.28,0,0,1-5.77,6.33Z"/><path class="b06beccd-47bf-4050-9ed1-97068fdcd499" d="M1072.06,565.12s1-85.18,8.09-96.42,13.59-27.1,19-24.41,19.75,23.74,18.23,51.64-1.25,66.72-1.25,66.72Z"/><path class="ecf5c525-06f5-49db-8514-e0239ff6c2cd" d="M1100.51,443.3c-2.49-.4-5.75,1-8.64,5.53-1.4,27.66-4.21,97.48-2.71,115.45l9.44-.51C1098.66,544.81,1099.1,467,1100.51,443.3Z"/><path class="edc6dc25-3db1-4f08-8cb1-deba3ab6d7d3" d="M1096.63,439.4s-6.37,116.85-3.07,128.56l8.91.21s.06-123.63,2.32-130.62Z"/><path class="edc6dc25-3db1-4f08-8cb1-deba3ab6d7d3" d="M1067.87,502.8s40.3,2.61,56.38-2.68l-2.39,12.15s-53.77,7.63-54.32,1.82Z"/><path class="ecf5c525-06f5-49db-8514-e0239ff6c2cd" d="M1202.84,566.54a5.8,5.8,0,0,1-3-5.23c.23-16.38,1.82-84.94,10.43-98,9.81-14.84,24.6-36.59,31.63-32.22,6.73,4.2,22,31.43,19.87,68.2a624.26,624.26,0,0,0-.44,65l-56,4.32Z"/><path class="edc6dc25-3db1-4f08-8cb1-deba3ab6d7d3" d="M1205.32,568.62s.54-90.48,10.35-105.32,18.71-35.72,26.22-32.2,27.37,31.41,25.28,68.18c-1.56,27.28-1.39,49.64-1.22,59.41a5.6,5.6,0,0,1-5.14,5.65Z"/><path class="b06beccd-47bf-4050-9ed1-97068fdcd499" d="M1216.32,559.18s.85-75.91,7.21-85.93,12.11-24.14,16.91-21.75,17.6,21.16,16.25,46-1.12,59.47-1.12,59.47Z"/><path class="ecf5c525-06f5-49db-8514-e0239ff6c2cd" d="M1241.67,450.62c-2.21-.36-5.13.89-7.7,4.92-1.25,24.66-3.75,86.87-2.41,102.89L1240,558C1240,541.08,1240.41,471.73,1241.67,450.62Z"/><path class="edc6dc25-3db1-4f08-8cb1-deba3ab6d7d3" d="M1238.22,447.14s-5.68,104.13-2.74,114.57l7.94.19s0-110.18,2.07-116.4Z"/><path class="edc6dc25-3db1-4f08-8cb1-deba3ab6d7d3" d="M1212.58,503.64s35.92,2.33,50.24-2.39l-2.13,10.83s-47.91,6.79-48.4,1.62Z"/><path class="ae8363ac-0f0e-4521-9611-95c64113cca8" d="M457.15,1552.24l104.63,28.89a147.85,147.85,0,0,0,68.62,2.71c26-5.22,49.7-17.36,27.73-45.36-40.07-51.2-67.26-7.46-67.26-7.46s48.55-74.86-37.57-112.83c-62.51-27.6-86,29.83-86,29.83-31.74-3.59-46,12.82-46,12.82-16.81,15.52-16.54,33.49-10.85,49A69.24,69.24,0,0,0,457.15,1552.24Z"/><path class="ae8363ac-0f0e-4521-9611-95c64113cca8" d="M1176.65,1670.63c115.48,34.18,213.59-21,250.89-46.85s41.09-11.94,145.44-9.5c53.43,1.22,104.15-23.25,102.12-94.25-1.43-47.87-66.66-128.63-153.31-85.3,0,0-15.46-51.8-64.35-28.14-57.16,27.73-30.79,65.16-30.79,65.16s-53.63-22.37-78.45,36.75c-10.24-4.2-15-8.88-34-3.59,0,0-25.9-47.87-83.94-10.85C1152,1544,1207.84,1609.4,1210.08,1612c-1.7-1.9-46-29.63-61.16,17.83C1143.7,1646,1156.51,1664.26,1176.65,1670.63Z"/><path class="b0441bc3-c649-4619-a3fc-b6200560de6a" d="M983.33,1191.78l-8.27,8.2,71.88,1.83c95.88,4.21,128.42-.74,139.41-4.2a1.38,1.38,0,0,0,1-1.36,1.5,1.5,0,0,0-1.49-1.49Z"/><path class="b0441bc3-c649-4619-a3fc-b6200560de6a" d="M1052.5,1148.25s29.42-3.39,37.9-5.16,9.49-4.95,9.49-4.95-25.76-.33-31-1,.27-8.2.27-8.2Z"/><path class="b0441bc3-c649-4619-a3fc-b6200560de6a" d="M1091.55,1172.05c26.38,5.08,77.57-11,77.57-11s-78.18,7.18-95.54-1.29C1072.23,1159,1075.21,1168.86,1091.55,1172.05Z"/><path class="b0441bc3-c649-4619-a3fc-b6200560de6a" d="M828.75,794.8c26.38,5.08,77.57-11.06,77.57-11.06s-78.18,7.19-95.54-1.28C809.43,781.78,812.41,791.61,828.75,794.8Z"/><path class="b0441bc3-c649-4619-a3fc-b6200560de6a" d="M795.68,831.6c26.38,5.09,77.57-11.05,77.57-11.05s-78.18,7.19-95.54-1.29C776.35,818.58,779.34,828.42,795.68,831.6Z"/><path class="edc6dc25-3db1-4f08-8cb1-deba3ab6d7d3" d="M749.06,988.83c1.76-.2,20.61,25.09,22.92,38.79s91.06,122.53,97.91,127.2c12.41,8.55,54,18.18,54,18.18-68.42-32.82-179.69-202.88-179.69-202.88S747.3,989,749.06,988.83Z"/><path class="edc6dc25-3db1-4f08-8cb1-deba3ab6d7d3" d="M949,979.51c1.76,0,24.54,36.69,32.68,48,43.8,60.89,39.8,59.2,44.48,59.06,15.12-.34,17.5,10.31,24.62,13.7,3.12,1.49-1.9-5.22-4.41-7.46C983.1,1036.54,952,958.29,952,958.29S947.23,979.51,949,979.51Z"/><path class="edc6dc25-3db1-4f08-8cb1-deba3ab6d7d3" d="M688.37,960.22c4.89-.07,10.58,25.36,20.41,47.87,13.84,31.73,29.16,48.28,43.4,56.76a2.67,2.67,0,0,0,3.19-.34,2.77,2.77,0,0,0,.2-3.87c-29.7-33.22-67.33-115.27-67.33-115.27C683.29,938.66,683.49,960.29,688.37,960.22Z"/><path class="edc6dc25-3db1-4f08-8cb1-deba3ab6d7d3" d="M966.52,1055.49c4.81-.68,16.61,24.07,29.22,45.16,17.77,29.63,27.33,40.41,42.52,47a2.73,2.73,0,0,0,3.18-.75,2.77,2.77,0,0,0-.33-3.86c-33.7-29.23-81.44-105.78-81.44-105.78C955.47,1021.25,961.7,1056.17,966.52,1055.49Z"/><path class="edc6dc25-3db1-4f08-8cb1-deba3ab6d7d3" d="M688.44,960.29s45.64,16.07,66.45,23.12,83.13-3.8,83.13-3.8c-64.14,14.58-149.78-34.24-149.78-34.24Z"/><g class="b4fcde38-ab07-4604-964a-e0d14df38119"><path class="b349b432-eff7-4f20-93e2-5e5258d79fe0" d="M1699.58,1498l-54.72-97.64-109-24.54L1393,1412.22l33.7,59.53c1.29-46.44,57.57-64.41,71.41-34s37,23.33,37,23.33c129.85-23.12,117.3,126.32,117.3,126.32C1774.91,1578.41,1699.58,1498.06,1699.58,1498Z"/><path class="b349b432-eff7-4f20-93e2-5e5258d79fe0" d="M1311.65,1531.15l-.13.14a5.14,5.14,0,0,1-7.26.13c-8.47-8-26.24-23.86-66.79-4.74-33.76,15.93-28.54,42.11-20.61,68.35,6.58,21.83-2.24,21.08-6.37,17.35l-17.63-15.86a5.21,5.21,0,0,1-1.63-2.85c-2.1-10.85-13.83-70.25-13.83-76.21,0-5.7,41.9-54.93,52.82-67.68a5.2,5.2,0,0,1,6.17-1.28c14.37,6.91,68.21,33,92.69,46.1a75.37,75.37,0,0,1,19.05,13.84c5.09,5,2.78,14.91-4.2,13.56C1326.23,1518.68,1316.33,1525.86,1311.65,1531.15Z"/></g><path class="b7262333-5e49-4819-9f11-3aad55d006e1" d="M1410.38,1007.89l-17.76,27.8s117.5,179.14,137.58,210.47,48.82,15.73,48.82,15.73Z"/><path class="b7262333-5e49-4819-9f11-3aad55d006e1" d="M1422.59,1003.14l13.83,28.21s-182.27,184.43-221.25,228c-44.49,49.71-56.35,27.67-56.35,27.67Z"/><path class="a5836422-5efc-41f6-81e1-c9856b6290c5" d="M1414.59,1036.71s153.24,225,162.32,225.59,25-23.33,25-23.33c1.69-9.56-161.79-237.73-177-244s-303,275.71-303,275.71-.54-.14,11.53,5.15c13.83,6.1,25.43,11.19,25.43,11.19C1176.65,1285.76,1414.59,1036.71,1414.59,1036.71Z"/><path class="ecf5c525-06f5-49db-8514-e0239ff6c2cd" d="M1158.82,1287.05s-226.54-8.68-226.54-9.29-14.79-15.46-14.79-15.46c41.64,4.13,204.37,8.47,204.37,8.47C1137.66,1263.11,1158.82,1287.05,1158.82,1287.05Z"/><path class="edc6dc25-3db1-4f08-8cb1-deba3ab6d7d3" d="M942.78,455.49l-147.26,37h0L929.24,299c54.39,1.28,257.11-133.09,257.11-133.09Z"/><path class="b0441bc3-c649-4619-a3fc-b6200560de6a" d="M1394.58,1334c-23-24.88-27-65.57-27-65.57,35.47-15.39,57.57,3.12,57.57,3.12C1413.7,1315,1394.65,1333.9,1394.58,1334Z"/><polygon class="b0441bc3-c649-4619-a3fc-b6200560de6a" points="1427.47 1263.86 1369.9 1260.74 1367.6 1268.33 1427.47 1263.86"/><path class="edc6dc25-3db1-4f08-8cb1-deba3ab6d7d3" d="M1399.6,1327.87c-23-24.82-29.7-67.13-29.7-67.13,35.46-15.39,57.57,3.12,57.57,3.12C1417.16,1308.07,1399.6,1327.87,1399.6,1327.87Z"/><path class="a5836422-5efc-41f6-81e1-c9856b6290c5" d="M1381.29,1274a5.76,5.76,0,0,1-2.85-4.07,132.49,132.49,0,0,0-3.79-16.21c-3-9.69-29.77-13-40.48-9.22s-38.45,19.4-45-10.17-3.66-24.41-1.08-25.09,8.4,26.72,14.3,31.8,11.67.28,11.19-2.57-11.26-27-7-29.29,14.37,22.44,20.54,24.88,15.19-3.66,17.36-4.07-8.41-34.1-7.25-41.5,7-3.66,8.88,11.87,25.22,51.06,30.51,39.33,11.6-14.85,13.16-12.34-7.06,16.88-3.8,21.76c2.3,3.53,5.08,13.57,6.44,19,.54,2.44-.2,5.49-2.58,6.31C1385.43,1276,1383.73,1275.52,1381.29,1274Z"/><path class="a5836422-5efc-41f6-81e1-c9856b6290c5" d="M1406.65,1273.15a4.54,4.54,0,0,1-.68-6.38c2.65-3.39,6.85-8.74,8.82-11,3-3.46-6.51-20.68-2.44-23.93s2,21,16.34,12.07,8.75-43.13,12.88-49.5,8.61-1.56,6.71,4.13.75,53.1,16.28,32.41,18.51-21.56,20.68-20.54-13,25.9-13,25.9c45.77,14.24,50.38-19.53,53-20.61s9,17.9-17.23,31.6-43.87-3.8-61.22-2.72c-14.72,1-24.55,21.23-27.2,27.26a4.71,4.71,0,0,1-2.71,2.51c-4.61,1.63-7.86.54-10-1Z"/><g class="fda19f75-460c-49f3-a66e-5fef0e5b3542"><path class="b349b432-eff7-4f20-93e2-5e5258d79fe0" d="M663.08,1618.22l37.91-74s-44.15-103.14-44.15-105.78-74.31-44.62-163.34-56.14c-59.74-7.73-.41,31.12-20.95,56.14-5.7,6.92-17.3,37.5-3.53,30.72,76.35-37.64,116.36,15.86,107.27,59.46-2.17,10.31,10.58,17.7,20.21,13.5,17-7.46,36.41-13,42.92,6,7.05,20.62-26.72,38.25-26.72,38.25Z"/></g><path class="b0441bc3-c649-4619-a3fc-b6200560de6a" d="M1010.19,1194.29l13.9.47s69.7-95.94,81.7-94.25,112.9-7,99.2-9-98-.88-101.64.88-55.19,54.93-64.82,68.63-33.5,32.68-33.5,32.68Z"/><path class="edc6dc25-3db1-4f08-8cb1-deba3ab6d7d3" d="M856.6,1032.37c6,1.15-3,1.76-25.15.06s-86.32-15.93-88.83-17.42c-3.53-2.1-3.19-4.34-2-6a5.62,5.62,0,0,1,6.17-1.83C807,1026.33,738.82,1009.38,856.6,1032.37Z"/><polygon class="ecf5c525-06f5-49db-8514-e0239ff6c2cd" points="973.89 451.81 816.65 504.08 795.52 492.48 940.53 433.04 973.89 451.81"/><path class="b0441bc3-c649-4619-a3fc-b6200560de6a" d="M849.17,421.87l-3.26,6.71,43.82-14.12c58.82-17.78,77.44-27.67,83.34-32.08a.89.89,0,0,0,.33-1,1,1,0,0,0-1.22-.58Z"/><path class="b0441bc3-c649-4619-a3fc-b6200560de6a" d="M909.78,346.15s22.31-9,28.57-12.19,6.37-5.92,6.37-5.92-20.25,5.28-24.47,5.92-1.55-6.48-1.55-6.48Z"/><path class="b0441bc3-c649-4619-a3fc-b6200560de6a" d="M941.14,358.07c21.75-1.69,58.36-25.34,58.36-25.34s-59.67,22.45-75.08,19.54C923.21,352,927.66,359.09,941.14,358.07Z"/><polygon class="a5836422-5efc-41f6-81e1-c9856b6290c5" points="812.76 664.93 812.76 657.77 979.03 637.79 1315.78 642.9 1315.82 654.85 927.25 669.64 816.14 677.75 812.76 664.93"/><polygon class="edc6dc25-3db1-4f08-8cb1-deba3ab6d7d3" points="983.46 648.85 1315.87 648.85 1315.54 692.29 983.46 694.47 983.46 648.85"/><path class="b0441bc3-c649-4619-a3fc-b6200560de6a" d="M983.46,648.85l-170.7,16.08,2.87,29.54H983.46S992,662.47,983.46,648.85Z"/><path class="edc6dc25-3db1-4f08-8cb1-deba3ab6d7d3" d="M702.9,738c79.88,43.9,179.52,0,179.52,0C792.83,676.36,702.9,738,702.9,738Z"/><path class="b96008a2-cbcc-41b6-b8f4-8133f52ce11c" d="M831.2,855.3c-42.66,20.42-74.44,7.57-86.79.57a10.66,10.66,0,0,1-5.44-9.63l3.46-99.39c47.43-19.93,94.78,0,94.78,0v98.81A10.68,10.68,0,0,1,831.2,855.3Z"/><path class="a5836422-5efc-41f6-81e1-c9856b6290c5" d="M702.9,737.87c12.69-7.9,39.53-51.55,39.53-51.55,14.74-47.92,35.82-95.85,44-113.8a5.08,5.08,0,0,1,1.9-2.06,4.59,4.59,0,0,1,6.26,1.73c16.38,28.66,37.71,106.23,42.65,117.26,5.35,12.19,45.21,48.5,45.21,48.5C770.84,700.24,702.9,738,702.9,737.87Z"/><path class="edc6dc25-3db1-4f08-8cb1-deba3ab6d7d3" d="M788.13,615.1c.83,51.71,35.66,95.43,35.66,95.43s-28.08-53.44-30.55-111.16C793.24,598.21,787.89,602.5,788.13,615.1Z"/><path class="edc6dc25-3db1-4f08-8cb1-deba3ab6d7d3" d="M757.33,677.51c3-1.4,1.65,1,14.17.17s48.83-8.65,50.23-9.47c2.06-1.24,1.81-2.47,1.15-3.38a3.13,3.13,0,0,0-3.46-1.07,259.64,259.64,0,0,1-65.87,11C751.57,676.2,754.29,678.91,757.33,677.51Z"/><path class="edc6dc25-3db1-4f08-8cb1-deba3ab6d7d3" d="M777.26,679c-1.31,6.25,10.87,10.29,10.87,10.29-5.6-13.59-5.19-42.49-5.19-42.49S778.58,672.74,777.26,679Z"/><g class="fa3e6059-43bf-479b-9b5b-bdb9741b0bb6"><path class="b208234e-1bf4-4297-9e78-5b75a513ea78" d="M848.57,754.75c.42-3.78-11-9.88-23.55-19.76s-86,5.44-86,5.44l-3,24c59.78-23.55,104.5,0,104.5,0S848.16,758.54,848.57,754.75Z"/></g><path class="edc6dc25-3db1-4f08-8cb1-deba3ab6d7d3" d="M955,238.37c43.26,23.78,97.23,0,97.23,0C1003.74,205,955,238.37,955,238.37Z"/><path class="b96008a2-cbcc-41b6-b8f4-8133f52ce11c" d="M1024.53,301.93c-23.11,11.06-40.32,4.11-47,.31a5.75,5.75,0,0,1-2.95-5.21l1.88-53.84c25.69-10.79,51.34,0,51.34,0v53.52A5.78,5.78,0,0,1,1024.53,301.93Z"/><path class="a5836422-5efc-41f6-81e1-c9856b6290c5" d="M955,238.33c6.87-4.28,21.41-27.92,21.41-27.92,8-26,19.4-51.92,23.81-61.65a2.81,2.81,0,0,1,1-1.11,2.48,2.48,0,0,1,3.39.94c8.88,15.52,20.43,57.53,23.11,63.51,2.89,6.6,24.48,26.27,24.48,26.27C991.83,217.94,955,238.37,955,238.33Z"/><path class="edc6dc25-3db1-4f08-8cb1-deba3ab6d7d3" d="M1001.2,171.82c.45,28,19.31,51.7,19.31,51.7s-15.21-29-16.54-60.22C1004,162.68,1001.07,165,1001.2,171.82Z"/><path class="edc6dc25-3db1-4f08-8cb1-deba3ab6d7d3" d="M984.52,205.63c1.65-.75.89.54,7.67.09s26.45-4.68,27.21-5.13c1.11-.67,1-1.33.62-1.83a1.69,1.69,0,0,0-1.87-.58,140,140,0,0,1-35.68,6C981.4,204.92,982.87,206.39,984.52,205.63Z"/><path class="edc6dc25-3db1-4f08-8cb1-deba3ab6d7d3" d="M995.31,206.44c-.71,3.39,5.89,5.57,5.89,5.57-3-7.36-2.81-23-2.81-23S996,203.05,995.31,206.44Z"/><g class="b600b367-596c-47ec-83c7-2e3735b44b94"><path class="b208234e-1bf4-4297-9e78-5b75a513ea78" d="M1033.94,247.47c.22-2.05-5.93-5.35-12.76-10.7s-46.56,2.94-46.56,2.94l-1.61,13c32.38-12.76,56.6,0,56.6,0S1033.72,249.52,1033.94,247.47Z"/></g><path class="b7262333-5e49-4819-9f11-3aad55d006e1" d="M973.89,451.81s23.52,1.63,44-21.09S1178.58,238,1178.58,238s120.11,213.54,137,230.6V425.91l-137-229.81Z"/><path class="a5836422-5efc-41f6-81e1-c9856b6290c5" d="M1182.33,209.66s146.9,249,155.61,249.6,23.92-25.81,23.92-25.81c1.62-10.58-155.09-263-169.72-269.93S940.53,433,940.53,433s-.39,3.45,11.18,9.3a161.82,161.82,0,0,0,21.85,9.48C990.65,450.39,1182.33,209.66,1182.33,209.66Z"/></svg>