<svg version="1.2" baseProfile="tiny-ps" xmlns="http://www.w3.org/2000/svg" viewBox="0 0 512 512" width="512" height="512">
	<title>10_hyden (2)-svg</title>
	<style>
		tspan { white-space:pre }
		.s0 { fill: #6c732b } 
		.s1 { fill: #b6b88c } 
		.s2 { fill: #55581c } 
		.s3 { fill: #aaaa94 } 
		.s4 { fill: #bbbd91 } 
		.s5 { fill: #b9bb92 } 
		.s6 { fill: #babd91 } 
		.s7 { fill: #abac8f } 
		.s8 { fill: #b3b3a6 } 
		.s9 { fill: #b2b391 } 
		.s10 { fill: #bdbe80 } 
		.s11 { fill: #c6c896 } 
		.s12 { fill: #fac600 } 
		.s13 { fill: #fff364 } 
		.s14 { fill: #ffffff } 
		.s15 { fill: #cadded } 
		.s16 { fill: #fea613 } 
		.s17 { fill: #e2772c } 
	</style>
	<g id="Layer_6_xA0_Изображение_1_">
		<path id="Layer" class="s0" d="m255.59 509.9c-132.77 0-240.09-107.32-240.09-240.09c0-132.77 107.32-240.09 240.09-240.09c132.77 0 240.09 107.32 240.09 240.09c0 132.77-107.32 240.09-240.09 240.09z" />
	</g>
	<g id="Group_2_xA0_Изображение_1_">
		<path id="Layer" fill-rule="evenodd" class="s1" d="m269.59 134.35c-0.78 7.39-1.57 14.78-2.24 22.17c-0.34 3.86-0.39 7.78-0.67 11.7c-0.28 3.75-4.48 7.61-7.95 7.5c-3.19-0.11-6.77-4.31-7.05-7.84c-1.18-13.71-2.46-27.43-3.69-41.14c-0.39-4.09-0.78-8.12-1.23-12.2c-0.06-0.5-0.28-0.95-0.45-1.4c-0.39 0.34-0.84 0.67-1.23 1.06c-0.39 0.39-0.67 0.9-1.01 1.29c-1.96 2.18-4.42 3.36-7.22 2.52c-3.13-0.95-5.54-3.53-5.49-6.61c0-2.24 2.07-4.53 3.3-6.77c0.39-0.73 0.95-1.34 1.4-2.02c-0.78-0.22-1.57-0.5-2.41-0.62c-12.04-1.34-24.07-2.69-36.05-4.03c-5.99-0.67-11.98-1.18-17.97-1.79c-3.53-0.39-6.16-3.3-6.16-6.77c-0.06-2.74 2.85-6.33 5.65-6.55c7.28-0.62 14.55-1.06 21.83-1.62c11.59-0.9 23.17-1.9 34.76-2.8c1.85-0.17 2.3-0.28 1.01-2.13c-2.02-2.85-6.1-5.15-4.48-9.46c0.84-2.18 2.57-4.42 4.59-5.6c1.29-0.78 4.03-0.22 5.54 0.62c1.74 1.01 2.91 3.02 4.37 4.59c0.28 0.28 0.67 0.5 1.06 0.73c0.06-0.39 0.11-0.73 0.17-1.12c0.67-10.52 1.4-20.99 2.07-31.52c0.56-8.9 1.01-17.86 1.9-26.76c0.22-2.02 1.96-3.86 3.08-5.77c0.39-0.67 0.84-1.34 1.29-2.02c1.85 0 3.75 0 5.6 0c4.87 4.37 5.32 10.19 5.6 16.18c0.84 16.63 1.9 33.25 2.91 49.88c0 0.39 0.28 0.78 0.39 1.18c0.28-0.22 0.67-0.39 0.84-0.67c0.67-0.9 1.12-1.96 1.9-2.74c2.18-2.18 4.59-4.42 8-2.97c4.09 1.74 6.1 5.04 4.76 9.18c-0.78 2.46-3.02 4.53-4.81 6.66c-1.06 1.29-0.84 1.57 0.73 1.68c10.13 0.73 20.21 1.62 30.34 2.24c7.78 0.5 15.62 0.62 23.4 1.23c4.81 0.39 9.18 3.69 8.96 7.61c-0.22 3.86-2.46 6.33-6.38 6.77c-16.74 1.79-33.42 3.69-50.16 5.54c-1.96 0.22-3.86 0.5-5.77 0.78c0.95 1.51 2.02 2.97 2.91 4.48c2.41 3.92 2.07 6.77-1.12 9.12c-3.75 2.85-6.94 2.63-10.08-0.62c-0.78-0.78-1.51-1.57-2.3-2.3c-0.22 1.23-0.45 2.46-0.67 3.69c-0.67 5.82-1.23 11.59-1.79 17.41zm-11.81-64.93c-1.12 1.51-2.3 3.02-3.41 4.53c-0.73 0.9-1.4 1.85-2.13 2.74c-4.81 0.06-4.76 0.06-5.09 4.76c-0.06 0.95-0.56 1.9-1.12 2.69c-2.35 3.36-5.65 4.37-9.63 4.42c-4.09 0.06-8.17 0.62-12.2 1.06c-0.56 0.06-1.12 0.56-1.62 0.84c0.5 0.11 1.01 0.22 1.57 0.28c3.81 0.39 7.56 0.78 11.36 1.18c6.61 0.73 9.35 3.47 10.13 9.96c0.06 0.67 1.29 1.62 2.07 1.68c5.21 0.39 8.56 3.3 9.12 8.34c0.45 3.97 0.73 7.95 1.18 11.92c0.17 1.23 0.67 2.35 1.06 3.58c0.39-1.01 0.84-1.96 1.12-2.97c0.28-1.23 0.45-2.52 0.56-3.81c0.67-6.16 0-12.76 6.16-16.91c1.85-0.06 3.75-0.06 5.6-0.11c0.17-0.78 0.5-1.57 0.5-2.35c0.11-4.7 3.02-8.23 7.67-8.84c4.65-0.67 9.4-1.12 14.05-1.62c0.45-0.06 0.84-0.17 1.29-0.22c-0.45-0.11-0.84-0.28-1.29-0.34c-2.46-0.39-4.93-0.73-7.39-1.06c-5.54-0.84-11.76 0.45-15.56-5.37c-0.11-0.17-0.5-0.17-0.78-0.22c-0.06-2.07-0.06-4.09-0.11-6.16c-1.18-0.17-2.3-0.45-3.47-0.5c-2.24-0.11-6.44-3.75-6.66-5.93c-0.39-4.93-0.73-9.91-1.12-14.83c0-0.39 0-0.73 0-1.12c0-0.84 0.11-1.68-0.06-2.52c-0.17-1.01-0.62-2.02-0.95-3.02c-0.06 0.95-0.11 1.85-0.17 2.8c0 1.12 0 2.24 0 3.36c-0.22 4.48-0.45 9.12-0.67 13.77z" />
		<path id="Layer" fill-rule="evenodd" class="s1" d="m258.56 333.91c0.62-0.5 1.51-0.5 2.07 0c6.55 5.6 6.21 5.88-0.62 12.37c-2.41 2.3-4.53 4.98-7.17 7.05c-1.62 1.34-3.81 2.41-5.88 2.69c-8.45 1.12-16.96 1.9-25.47 2.85c-0.56 0.06-1.46 0.73-1.46 0.9c0.17 0.67 0.56 1.34 1.06 1.85c3.36 3.02 6.77 6.05 10.19 9.01c1.74 1.51 2.24 2.69 0.22 4.7c-10.36 10.19-20.54 20.6-30.79 30.9c-8.45 8.51-16.96 17.02-25.25 25.64c-3.13 3.25-6.94 5.09-10.86 6.72c-2.41 0.95-4.93 1.46-7.5 1.46c-0.9 0-1.23 0-2.13-0.06c-0.17 0-1.62-0.39-1.74-0.45c-7.56-2.13-11.36-10.02-10.36-17.74c1.01-7.89 6.77-12.87 11.42-18.47c11.76-14.22 23.57-28.38 35.38-42.54c4.03-4.87 8.06-9.74 12.26-14.5c0.39-0.45 2.02-0.5 2.52-0.11c3.86 3.47 7.56 7.11 11.36 10.69c0.9 0.78 2.3 0.39 2.57-0.78c0-0.11 0.06-0.22 0.06-0.34c0.28-9.29 0.45-18.58 0.78-27.82c0.06-1.46 0.56-2.85 1.51-3.97c4.2-5.09 8.51-10.13 12.82-15.11c0.34-0.39 1.85-0.5 2.24-0.17c1.85 1.74 3.58 3.64 5.32 5.54c0.28 0.34 0.45 0.73 0.45 1.18c0 0.45-0.06 0.95-0.28 1.23c-3.81 4.65-7.72 9.29-11.59 13.88c-0.22 0.28-0.39 0.67-0.39 1.01c0 3.47 0 6.94 0 10.36c0 0.17 0 0.34-0.06 0.5c-1.29 4.03-0.56 5.15 3.02 4.76c2.35-0.28 4.65-0.73 7-1.06c0.11 0 0.17 0 0.28 0h3.81c0.34 0 0.67-0.11 0.95-0.34c2.3-1.79 4.7-3.53 6.94-5.37c2.41-2.18 4.81-4.31 7.28-6.44zm-99.08 94.83c0.28 0 0.5-0.06 0.73-0.17c1.79-0.84 4.48-1.79 6.55-3.47c3.92-3.25 7.39-7 10.97-10.58c6.77-6.72 13.49-13.43 20.21-20.21c6.27-6.33 12.37-12.82 18.64-19.14c1.51-1.51 1.12-2.3-0.22-3.47c-3.53-3.13-6.94-6.33-10.36-9.52c-1.29-1.18-2.3-1.62-3.69 0.06c-7.33 9.01-14.72 18.02-22.11 26.98c-4.09 4.93-8.34 9.68-12.37 14.72c-4.65 5.82-9.24 11.64-13.6 17.69c-1.96 2.8 0.67 6.94 5.26 7.11z" />
		<path id="Layer" fill-rule="evenodd" class="s1" d="m373.2 436.46c-5.37-5.43-10.69-10.86-16.07-16.29c-14.78-14.72-29.5-29.56-44.45-44.17c-28.44-27.71-56.99-55.31-85.53-82.96c-24.29-23.57-48.64-47.08-73.05-70.53c-0.73-0.67-1.85-1.18-2.85-1.34c-3.64-0.73-7.39-1.01-10.97-1.96c-2.35-0.62-4.42-2.24-6.72-3.25c-0.62-0.28-1.51-0.06-2.3-0.06c0.11 0.73 0.06 1.62 0.45 2.18c3.92 5.43 7.72 10.92 11.92 16.07c2.35 2.85 2.52 4.87-0.28 7.45c-5.09 4.76-9.96 9.68-15 14.55c-5.37 5.26-10.75 10.47-16.29 15.62c-0.5 0.45-2.18 0.39-2.69-0.06c-10.86-10.41-21.72-20.82-32.47-31.35c-5.99-5.82-11.92-11.76-17.91-17.63c0.34-0.62 0.5-1.4 1.01-1.85c10.24-10.08 20.49-20.1 30.79-30.06c4.2-4.03 4.25-3.97 9.07-0.5c6.21 4.48 12.37 9.01 18.64 13.49c0.62 0.45 1.57 0.45 2.41 0.67c-0.17-0.78-0.22-1.62-0.62-2.3c-4.37-8.28-6.61-17.02-4.03-26.31c3.64-13.15 12.37-21.22 25.75-23.68c6.49-1.18 13.1-0.78 19.14 2.57c0.78 0.45 1.68 0.84 2.57 1.06c0.62 0.17 1.34-0.06 2.07-0.11c-0.34-0.62-0.5-1.34-0.95-1.79c-2.13-2.18-4.31-4.31-6.38-6.55c-0.39-0.45-0.62-1.74-0.34-2.02c6.89-6.33 13.32-13.27 20.88-18.58c4.98-3.47 11.48-2.91 17.52-0.34c11.98 5.04 16.91 17.47 15.95 25.92c-0.73 6.27-3.69 11.25-8.4 15.45c-4.14 3.69-7.89 7.84-11.98 11.64c-0.56 0.56-2.41 0.62-2.97 0.11c-2.07-1.85-3.81-4.09-5.77-6.05c-0.45-0.45-1.23-0.56-1.85-0.84c-0.11 0.62-0.45 1.34-0.22 1.74c3.3 6.16 3.19 12.87 3.3 19.59c0 1.34 0.78 2.91 1.68 3.92c8.06 8.45 16.18 16.79 24.29 25.13c15.84 16.23 31.8 32.36 47.58 48.7c16.18 16.74 32.19 33.64 48.25 50.44c13.21 13.77 26.42 27.54 39.58 41.31c13.83 14.44 27.6 29 41.42 43.44c2.69 2.8 5.54 5.54 8.17 8.4c0.45 0.5 0.5 1.9 0.17 2.52c-1.29 2.24-2.52 4.53-4.25 6.44c-4.59 4.93-9.35 9.57-14.16 14.33c-0.28 0.28-1.23 0.22-1.68-0.06c-0.84-0.62-1.62-1.4-2.46-2.13zm-198.78-292.04c-1.51 1.29-1.51 2.63 0 3.92c0.17 3.58 0.45 7.22 0.5 10.8c0 1.01-0.73 1.96-1.12 2.97c-0.28 0.73-0.62 1.46-0.9 2.18c0.67-0.45 1.4-0.95 2.07-1.4c0.39 0 0.73 0 1.12 0c3.92 0.17 7.84 0.39 11.76 0.56c1.23 0.56 2.91 1.96 3.53 1.57c4.93-3.08 9.01-7.45 10.13-13.04c0.62-2.97-1.23-6.66-2.63-9.8c-2.07-4.76-10.02-7.78-14.67-5.43c-2.97 1.51-5.49 3.97-8.17 6.05c-0.17 0.17-0.39 0.39-0.56 0.56c-0.11 0.11-0.34 0.34-0.5 0.5c-0.17 0.17-0.39 0.39-0.56 0.56zm-14.55 21.83c-6.33-2.8-12.43-5.6-19.76-1.9c-3.58 1.79-6.94 3.36-9.24 6.61c-4.76 6.61-6.61 13.6-2.8 21.5c1.57 3.3 2.07 7.17 3.36 10.64c0.39 1.01 1.9 1.79 3.02 2.24c3.86 1.57 7.78 2.91 11.7 4.31c1.34 0.45 2.85 1.18 4.2 0.95c3.97-0.56 7.5-0.28 10.3 3.13c2.13 2.57 4.42 5.04 6.77 7.39c5.15 5.09 10.36 10.08 15.56 15.06c7.17 6.83 14.33 13.66 21.55 20.43c1.9 1.79 4.2 3.3 6.05 5.21c4.65 4.76 8.96 9.8 13.77 14.39c7.39 7.17 15.06 13.94 22.45 21.05c7.17 6.83 14.22 13.71 21.22 20.66c3.53 3.47 6.94 7.11 10.47 10.69c2.63 2.24 5.21 4.48 7.84 6.72c1.68 1.74 3.25 3.53 4.98 5.21c3.64 3.41 7.45 6.66 10.97 10.13c5.43 5.37 10.58 10.92 15.95 16.29c4.98 4.98 10.13 9.68 15.11 14.67c5.77 5.77 11.36 11.7 17.13 17.41c8.12 7.95 16.23 15.79 24.41 23.62c0.45 0.45 1.74 0.62 2.13 0.28c1.79-1.57 3.41-3.3 4.98-5.04c0.22-0.22-0.06-1.23-0.39-1.57c-1.18-1.29-2.63-2.35-3.81-3.64c-5.49-5.93-10.92-11.92-16.46-17.8c-3.47-3.64-7.28-6.89-10.69-10.52c-2.57-2.69-4.65-5.77-7.22-8.4c-5.54-5.77-11.25-11.25-16.79-17.02c-4.7-4.87-9.18-9.91-13.83-14.83c-3.92-4.25-7.89-8.45-11.87-12.71c-2.63-2.63-5.21-5.21-7.84-7.84c-4.53-4.65-9.12-9.24-13.6-13.88c-4.42-4.59-8.62-9.4-13.1-13.94c-3.58-3.69-7.5-7.11-11.08-10.86c-6.61-6.94-12.99-14.11-19.54-21.1c-3.41-3.64-7.05-7.05-10.58-10.64c-7.28-7.45-14.5-14.95-21.83-22.34c-5.43-5.49-11.08-10.75-16.51-16.23c-3.47-3.47-6.77-7.11-10.02-10.75c-0.84-0.95-1.29-2.24-1.85-3.41c0.17-3.58 0.39-7.11 0.45-10.69c0-0.34-1.01-0.73-1.57-1.06c-0.73-2.97-1.51-5.99-2.24-8.96c0-4.31 0-8.56 0-12.87c-0.39-0.17-0.73-0.39-1.12-0.56c-3.53 0-7.11 0-10.64 0zm-45.9 89c2.07-1.85 4.09-3.75 6.16-5.6c3.53-3.58 7.11-7.11 10.47-10.86c0.67-0.73 0.95-2.63 0.5-3.47c-0.9-1.68-2.63-2.85-3.69-4.48c-2.74-4.25-7.05-7.89-6.27-13.83c0.06-0.56-1.01-1.68-1.79-1.96c-2.18-0.84-4.53-1.18-6.61-2.13c-1.85-0.84-3.47-2.24-5.21-3.41c-2.8-1.9-5.93-3.53-8.23-5.88c-2.46-2.52-4.14-2.02-6.27 0.11c-5.88 5.77-11.87 11.48-17.69 17.3c-0.45 0.45-0.5 1.96-0.11 2.41c4.53 4.65 9.12 9.29 13.83 13.77c6.21 5.88 12.76 11.48 18.75 17.58c2.35 2.3 3.75 4.31 6.16 0.45z" />
		<path id="Layer" class="s2" d="m294.27 296.12c-2.41-1.96-4.98-3.75-7.28-5.88c-4.2-3.92-8.23-7.95-12.37-11.92c-0.34-0.28-0.73-0.45-1.12-0.67c2.74-3.25 5.49-6.49 8.23-9.74c4.93-5.77 9.8-11.59 14.72-17.35c3.53-4.09 7.39-7.95 10.75-12.15c5.43-6.72 10.47-13.71 15.95-20.38c6.27-7.61 12.82-14.95 19.26-22.39c5.93-6.89 11.87-13.83 17.91-20.66c4.48-5.04 9.01-10.08 13.66-14.95c0.45-0.45 2.13-0.34 2.69 0.11c2.46 1.9 4.76 4.03 7.05 6.16c5.04 4.53 9.96 9.07 15 13.55c1.29 1.18 1.12 1.96-0.06 3.13c-7.5 7.95-14.83 15.95-22.28 23.96c-3.47 3.69-6.94 7.33-10.36 11.08c-4.93 5.37-9.8 10.86-14.78 16.23c-2.3 2.52-4.87 4.76-7.17 7.22c-9.4 10.36-18.75 20.82-28.16 31.24c-3.75 4.14-7.56 8.34-11.36 12.43c-3.36 3.64-6.83 7.28-10.3 10.97z" />
		<path id="Layer" class="s1" d="m294.27 296.12c3.47-3.64 6.94-7.33 10.36-11.03c3.81-4.14 7.61-8.28 11.36-12.43c9.4-10.41 18.75-20.82 28.16-31.24c2.3-2.52 4.87-4.76 7.17-7.22c4.98-5.37 9.8-10.86 14.78-16.23c3.41-3.75 6.94-7.33 10.36-11.08c7.45-8 14.78-16.01 22.28-23.96c1.18-1.23 1.34-2.02 0.06-3.13c-5.04-4.48-10.02-9.07-15-13.55c-2.3-2.07-4.59-4.25-7.05-6.16c-0.62-0.45-2.3-0.56-2.69-0.11c-4.65 4.87-9.18 9.85-13.66 14.95c-6.05 6.83-11.92 13.77-17.91 20.66c-6.44 7.45-12.99 14.78-19.26 22.39c-5.49 6.66-10.52 13.66-15.95 20.38c-3.41 4.2-7.22 8.06-10.75 12.15c-4.98 5.77-9.85 11.59-14.72 17.35c-2.74 3.25-5.49 6.49-8.23 9.74c-0.67-0.06-1.62 0.17-2.02-0.22c-1.9-1.68-3.69-3.41-5.37-5.32c-0.39-0.45-0.39-1.74-0.06-2.18c8.73-10.52 17.52-20.99 26.31-31.52c10.97-13.15 21.83-26.37 32.92-39.46c8.79-10.36 17.8-20.54 26.7-30.79c6.55-7.5 13.27-14.89 19.76-22.45c1.68-1.96 2.69-2.24 4.81-0.34c12.2 11.08 24.57 22 37 32.86c1.9 1.62 1.68 2.63 0.17 4.25c-12.32 13.27-24.57 26.53-36.83 39.8c-20.99 22.73-41.87 45.51-62.86 68.29c-4.09 4.48-8.34 8.79-12.43 13.27c-1.23 1.34-2.13 1.46-3.3 0.06c-1.23-1.4-2.52-2.8-3.97-3.92c-1.85-1.46-1.68-2.57-0.11-3.81z" />
		<path id="Layer" class="s2" d="m259.57 333.01c-2.8 2.41-5.54 4.87-8.4 7.22c-2.41 1.96-4.93 3.81-7.39 5.71c-1.51 0-2.97 0-4.48 0c-2.35 0.39-4.76 0.84-7.11 1.12c-3.64 0.39-4.31-0.78-2.97-5.04c0.17 0 0.39 0 0.56 0c0-3.75 0-7.45 0-11.2c-0.17 0-0.39 0-0.56 0c4.03-4.76 8-9.52 11.98-14.33c0.34-0.45 0.22-1.23 0.34-1.85c3.36 3.64 6.66 7.33 10.08 10.86c2.57 2.57 5.32 4.98 7.95 7.5z" />
		<path id="Layer" class="s2" d="m259.51 55.98c0.34 4.93 0.67 9.91 1.12 14.83c0.17 2.18 4.42 5.77 6.66 5.93c1.18 0.06 2.3 0.34 3.47 0.5c-1.18 0-2.41 0-3.58 0c-0.28 0-0.5 0.11-0.78 0.17c0.28 0.11 0.56 0.39 0.78 0.34c2.85-0.5 3.19 1.12 3.02 3.36c-0.06 0.73 0.39 1.51 0.62 2.24c0.28 0.06 0.67 0.06 0.78 0.22c3.81 5.82 10.08 4.53 15.56 5.37c2.46 0.39 4.93 0.73 7.39 1.06c0.45 0.06 0.84 0.22 1.29 0.34c-0.45 0.06-0.84 0.22-1.29 0.22c-4.7 0.56-9.4 1.01-14.05 1.62c-4.59 0.67-7.5 4.2-7.67 8.84c0 0.78-0.34 1.57-0.5 2.35c0-1.85 0-3.69 0-5.49c0.45 3.97-1.34 5.54-5.21 5.21c-0.11 0-0.28 0.22-0.39 0.39c-6.16 4.14-5.54 10.75-6.16 16.91c-0.11 1.29-0.28 2.57-0.56 3.81c-0.22 1.01-0.73 1.96-1.12 2.97c-0.34-1.18-0.9-2.35-1.06-3.58c-0.45-3.97-0.73-7.95-1.18-11.92c-0.56-4.98-3.86-7.95-9.12-8.34c-0.73-0.06-1.96-1.01-2.07-1.68c-0.78-6.49-3.53-9.24-10.13-9.96c-3.75-0.39-7.56-0.78-11.36-1.18c-0.5-0.06-1.06-0.17-1.57-0.28c0.56-0.28 1.06-0.78 1.62-0.84c4.09-0.45 8.12-1.01 12.2-1.06c3.97-0.06 7.33-1.06 9.63-4.42c0.56-0.78 1.06-1.79 1.12-2.69c0.34-4.7 0.28-4.7 5.09-4.76c1.85-1.68 3.75-3.36 5.6-5.04c0.17-1.18 0.39-2.3 0.5-3.47c0.62-3.81 1.01-7.89 1.34-11.98z" />
		<path id="Layer" class="s2" d="m259.51 55.98c-0.39 4.09-0.73 8.17-1.18 12.26c-0.11 1.18-0.34 2.3-0.5 3.47c0-0.73-0.06-1.51-0.06-2.24c0.22-4.65 0.39-9.29 0.62-13.94c0.34-0.17 0.73-0.39 1.06-0.56c0.06 0.28 0.06 0.62 0.06 1.01z" />
		<path id="Layer" class="s2" d="m257.78 69.41c0 0.73 0.06 1.51 0.06 2.24c-1.85 1.68-3.75 3.36-5.6 5.04c0.73-0.9 1.46-1.85 2.13-2.74c1.18-1.51 2.3-3.02 3.41-4.53z" />
		<path id="Layer" class="s2" d="m259.51 54.86c-0.34 0.17-0.73 0.39-1.06 0.56c0-1.12-0.06-2.24 0-3.36c0-0.95 0.11-1.85 0.17-2.8c0.34 1.01 0.73 2.02 0.95 3.02c0.06 0.9-0.06 1.74-0.06 2.57z" />
		<path id="Layer" class="s2" d="m270.82 83.41c-0.22-0.73-0.67-1.51-0.62-2.24c0.17-2.24-0.17-3.86-3.02-3.36c-0.22 0.06-0.5-0.22-0.78-0.34c0.28-0.06 0.5-0.17 0.78-0.17c1.18 0 2.41 0 3.58 0c0 2.02 0.06 4.03 0.06 6.1z" />
		<path id="Layer" class="s2" d="m266.79 103.62c0.11-0.11 0.28-0.39 0.39-0.39c3.86 0.34 5.65-1.23 5.21-5.21c0 1.85 0 3.69 0 5.49c-1.85 0.06-3.75 0.06-5.6 0.11z" />
		<path id="Layer" class="s2" d="m159.87 428.73c-4.81 0.06-7.67-4.25-5.54-7.17c4.37-6.05 8.96-11.92 13.6-17.69c4.03-4.98 8.28-9.74 12.37-14.72c7.39-8.96 14.78-17.91 22.11-26.98c1.34-1.68 2.41-1.23 3.69-0.06c3.41 3.19 6.83 6.44 10.36 9.52c1.34 1.23 1.74 1.96 0.22 3.47c-6.27 6.33-12.43 12.76-18.64 19.14c-6.66 6.77-13.43 13.49-20.21 20.21c-3.58 3.58-7.11 7.33-10.97 10.58c-2.3 1.85-5.26 2.8-7 3.69z" />
		<path id="Layer" class="s2" d="m229.28 330.83c0.17 0 0.39 0 0.56 0c0 3.75 0 7.45 0 11.2c-0.17 0-0.39 0-0.56 0c0-3.75 0-7.45 0-11.2z" />
		<path id="Layer" class="s3" d="m239.36 345.94c1.51 0 2.97 0 4.48 0c-1.51 0-2.97 0-4.48 0z" />
		<path id="Layer" class="s2" d="m278.54 328.59c-3.47-3.58-6.89-7.22-10.47-10.69c-7.05-6.94-14.05-13.83-21.22-20.66c-7.45-7.05-15.11-13.88-22.45-21.05c-4.76-4.59-9.12-9.68-13.77-14.39c-1.85-1.9-4.09-3.36-6.05-5.21c-7.22-6.77-14.39-13.6-21.55-20.43c-5.21-4.98-10.47-9.96-15.56-15.06c-2.35-2.35-4.7-4.81-6.77-7.39c-2.8-3.41-6.33-3.69-10.3-3.13c-1.34 0.17-2.8-0.5-4.2-0.95c-3.92-1.34-7.84-2.74-11.7-4.31c-1.18-0.45-2.69-1.23-3.02-2.24c-1.34-3.47-1.79-7.33-3.36-10.64c-3.81-7.89-1.96-14.89 2.8-21.5c2.3-3.19 5.71-4.81 9.24-6.61c7.33-3.69 13.38-0.9 19.76 1.9c0 0.17 0 0.39 0 0.56c2.52 0.17 5.04 0.56 7.61 0.5c1.96 0 2.52 0.62 2.52 2.57c0 3.08 0.34 6.16 0.5 9.24c0.17 0 0.39 0 0.56 0c0.17 0.17 0.39 0.39 0.56 0.56c0.73 2.97 1.51 5.99 2.24 8.96c0.39 3.92 0.73 7.84 1.12 11.76c0.62 1.12 1.06 2.46 1.85 3.41c3.25 3.64 6.55 7.28 10.02 10.75c5.43 5.49 11.08 10.75 16.51 16.23c7.33 7.39 14.55 14.89 21.83 22.34c3.53 3.58 7.17 7 10.58 10.64c6.55 7 12.93 14.11 19.54 21.1c3.53 3.75 7.45 7.17 11.08 10.86c4.42 4.59 8.68 9.35 13.1 13.94c4.48 4.7 9.07 9.29 13.6 13.88c2.63 2.63 5.21 5.21 7.84 7.84c3.97 4.25 7.89 8.45 11.87 12.71c4.59 4.93 9.12 9.96 13.83 14.83c5.54 5.71 11.25 11.25 16.79 17.02c2.57 2.63 4.65 5.77 7.22 8.4c3.47 3.58 7.28 6.89 10.69 10.52c5.6 5.88 10.97 11.87 16.46 17.8c1.18 1.29 2.57 2.35 3.81 3.64c0.34 0.34 0.62 1.34 0.39 1.57c-1.57 1.79-3.19 3.53-4.98 5.04c-0.39 0.34-1.68 0.11-2.13-0.28c-8.17-7.84-16.29-15.67-24.29-23.62c-5.77-5.71-11.36-11.64-17.13-17.41c-4.98-4.98-10.13-9.68-15.11-14.67c-5.37-5.37-10.58-10.97-15.95-16.29c-3.53-3.53-7.33-6.72-10.97-10.13c-1.74-1.62-3.36-3.47-4.98-5.21c-2.74-2.24-5.32-4.48-7.95-6.72z" />
		<path id="Layer" class="s2" d="m113.97 255.26c-2.41 3.86-3.81 1.85-6.16-0.5c-5.99-6.1-12.54-11.64-18.75-17.58c-4.7-4.48-9.29-9.12-13.83-13.77c-0.39-0.39-0.34-1.96 0.11-2.41c5.82-5.82 11.81-11.53 17.69-17.3c2.13-2.13 3.81-2.57 6.27-0.11c2.35 2.35 5.49 3.97 8.23 5.88c1.74 1.18 3.3 2.57 5.21 3.41c2.07 0.95 4.48 1.29 6.61 2.13c0.78 0.28 1.9 1.4 1.79 1.96c-0.84 5.99 3.47 9.57 6.27 13.83c1.06 1.62 2.8 2.8 3.69 4.48c0.45 0.84 0.17 2.74-0.5 3.47c-3.36 3.75-6.94 7.28-10.47 10.86c-2.07 1.9-4.09 3.81-6.16 5.65z" />
		<path id="Layer" class="s2" d="m176.1 142.74c2.69-2.07 5.21-4.59 8.17-6.05c4.65-2.3 12.6 0.73 14.67 5.43c1.34 3.13 3.19 6.83 2.63 9.8c-1.12 5.65-5.21 9.96-10.13 13.04c-0.62 0.39-2.35-1.01-3.53-1.57c-0.17-0.39-0.39-0.73-0.56-1.12c-1.06-0.39-2.18-1.06-3.3-1.06c-6.77-0.11-6.72-0.06-6.83-6.83c0-1.46-0.67-2.91-1.06-4.37c-0.17-0.17-0.39-0.39-0.56-0.56c-0.17-0.39-0.39-0.73-0.56-1.12c-0.73-1.46-0.9-2.8 0.73-3.92c0.28-0.22 0.22-1.06 0.34-1.68z" />
		<path id="Layer" class="s2" d="m176.1 150.02c0.39 1.46 1.06 2.91 1.06 4.37c0.11 6.77 0.06 6.77 6.83 6.83c1.12 0 2.18 0.67 3.3 1.06v0c-3.75 0.17-7.45 0.39-11.2 0.56v0c-0.39 0-0.73 0-1.12 0c0.17-0.39 0.39-0.73 0.56-1.12c0.17-3.86 0.39-7.78 0.56-11.7z" />
		<path id="Layer" class="s4" d="m174.98 200.4c-0.39-3.92-0.73-7.84-1.12-11.76c0.56 0.34 1.57 0.73 1.57 1.06c-0.06 3.58-0.28 7.11-0.45 10.69z" />
		<path id="Layer" class="s2" d="m175.54 161.78c-0.17 0.39-0.39 0.73-0.56 1.12c-0.67 0.45-1.4 0.95-2.07 1.4c0.28-0.73 0.62-1.46 0.9-2.18c0.39-1.01 1.12-1.96 1.12-2.97c-0.06-3.58-0.34-7.22-0.5-10.8c0.17 0 0.39 0 0.56 0c0.17 0.39 0.39 0.73 0.56 1.12c0 4.09 0 8.23 0 12.32z" />
		<path id="Layer" class="s5" d="m300.93 331.39c-2.63-2.63-5.21-5.21-7.84-7.84c2.63 2.63 5.21 5.21 7.84 7.84z" />
		<path id="Layer" class="s5" d="m278.54 328.59c2.63 2.24 5.21 4.48 7.84 6.72c-2.63-2.24-5.21-4.48-7.84-6.72z" />
		<path id="Layer" class="s5" d="m113.97 255.26c2.07-1.85 4.09-3.75 6.16-5.6c-2.07 1.85-4.09 3.75-6.16 5.6z" />
		<path id="Layer" class="s2" d="m171.63 179.69c-0.17-0.17-0.39-0.39-0.56-0.56c0-3.92 0-7.84 0-11.76c0-0.17 0-0.39 0-0.56c0.17 0 0.39 0 0.56 0c0 4.31 0 8.56 0 12.87z" />
		<path id="Layer" class="s2" d="m187.3 162.34c0.17 0.39 0.39 0.73 0.56 1.12c-3.92-0.17-7.84-0.39-11.76-0.56v0c3.75-0.17 7.45-0.39 11.2-0.56v0z" />
		<path id="Layer" class="s2" d="m171.63 166.81c-0.17 0-0.39 0-0.56 0c-3.75 0-7.45 0-11.2 0c0-0.17 0-0.39 0-0.56v0c3.53 0 7.11 0 10.64 0c0.39 0.17 0.73 0.39 1.12 0.56z" />
		<path id="Layer" class="s6" d="m170.51 166.25c-3.53 0-7.11 0-10.64 0c3.53 0 7.11 0 10.64 0z" />
		<path id="Layer" class="s2" d="m174.98 148.34c-0.17 0-0.39 0-0.56 0c-1.51-1.29-1.51-2.63 0-3.92c0.17-0.17 0.39-0.39 0.56-0.56v0c0.17-0.17 0.39-0.39 0.56-0.56c0.17-0.17 0.39-0.39 0.56-0.56c-0.11 0.56-0.06 1.46-0.39 1.74c-1.62 1.06-1.46 2.41-0.73 3.86z" />
		<path id="Layer" class="s7" d="m175.54 143.3c-0.17 0.17-0.39 0.39-0.56 0.56c0.17-0.17 0.39-0.39 0.56-0.56z" />
		<path id="Layer" class="s7" d="m174.98 143.86c-0.17 0.17-0.39 0.39-0.56 0.56c0.17-0.17 0.39-0.39 0.56-0.56z" />
		<path id="Layer" class="s8" d="m229.84 342.03c0-3.75 0-7.45 0-11.2c0 3.75 0 7.45 0 11.2z" />
		<path id="Layer" class="s2" d="m159.87 166.81c3.75 0 7.45 0 11.2 0c0 0.17 0 0.39 0 0.56c-0.17 3.92-0.39 7.84-0.56 11.76c-0.17-3.08-0.5-6.16-0.5-9.24c0-1.9-0.62-2.57-2.52-2.57c-2.57 0.06-5.09-0.34-7.61-0.5z" />
		<path id="Layer" class="s2" d="m170.51 179.13c0.17-3.92 0.39-7.84 0.56-11.76c0 3.92 0 7.84 0 11.76c-0.17 0-0.39 0-0.56 0z" />
		<path id="Layer" class="s2" d="m175.54 161.78c0-4.09 0-8.23 0-12.32c0.17 0.17 0.39 0.39 0.56 0.56c-0.17 3.92-0.39 7.84-0.56 11.76z" />
		<path id="Layer" class="s9" d="m187.3 162.34c-3.75 0.17-7.45 0.39-11.2 0.56c3.75-0.17 7.45-0.39 11.2-0.56z" />
	</g>
	<path id="Layer" class="s10" d="m117.05 362.46c0.28 0.62 0.34 1.18 0.45 1.85c0.84 5.82 3.69 10.69 7.45 15c3.53 4.03 7.95 7 13.21 8.45c1.34 0.39 2.69 0.73 4.03 1.12c-1.79 0.78-2.8 1.34-3.64 1.9c-5.99 3.13-9.63 8.06-11.87 14.33c-0.45 1.34-0.95 2.63-1.46 3.92c-0.62 1.62-1.85 2.24-3.53 2.24c-1.57 0-2.69-0.67-3.3-2.13c-0.39-0.95-0.78-1.96-1.12-2.97c-2.24-7.28-6.61-12.65-13.49-15.95c-2.46-1.18-4.98-2.13-7.45-3.19c-0.39-0.17-0.84-0.28-1.23-0.5c-1.4-0.73-2.63-1.68-2.57-3.36c0.06-1.74 1.12-2.91 2.74-3.53c1.46-0.56 2.97-1.06 4.42-1.68c7.67-2.97 14.11-7.78 17.35-15.51z" />
	<path id="Layer" class="s11" d="m126.95 403.6c-0.28-0.62-0.34-1.18-0.45-1.85c-0.84-5.82-3.69-10.69-7.45-15c-3.53-4.03-7.95-7-13.21-8.45c-1.34-0.39-2.69-0.73-4.03-1.12c1.79-0.78 2.8-1.34 3.64-1.9c5.99-3.13 9.63-8.06 11.87-14.33c0.45-1.34 0.95-2.63 1.46-3.92c0.62-1.62 1.85-2.24 3.53-2.24c1.57 0 2.69 0.67 3.3 2.13c0.39 0.95 0.78 1.96 1.12 2.97c2.24 7.28 6.61 12.65 13.49 15.95c2.46 1.18 4.98 2.13 7.45 3.19c0.39 0.17 0.84 0.28 1.23 0.5c1.4 0.73 2.63 1.68 2.57 3.36c-0.06 1.74-1.12 2.91-2.74 3.53c-1.46 0.56-2.97 1.06-4.42 1.68c-7.61 2.97-14.05 7.72-17.35 15.51z" />
	<path id="Layer" class="s12" d="m254.3 67.79c0.34 0.67 0.39 1.29 0.5 1.96c0.9 6.16 3.92 11.36 7.89 15.9c3.75 4.25 8.45 7.45 14.05 9.01c1.4 0.39 2.85 0.78 4.25 1.18c-1.9 0.84-2.97 1.46-3.86 2.02c-6.33 3.3-10.24 8.56-12.6 15.23c-0.5 1.4-1.01 2.8-1.51 4.2c-0.67 1.74-2.02 2.35-3.75 2.35c-1.62 0-2.85-0.67-3.53-2.3c-0.39-1.01-0.84-2.07-1.18-3.13c-2.35-7.72-7.05-13.43-14.33-16.96c-2.57-1.23-5.32-2.3-7.95-3.41c-0.45-0.17-0.9-0.28-1.29-0.5c-1.46-0.73-2.8-1.79-2.69-3.58c0.06-1.85 1.18-3.08 2.91-3.75c1.57-0.62 3.13-1.12 4.7-1.74c8-3.13 14.83-8.23 18.36-16.46z" />
	<path id="Layer" class="s13" d="m264.83 111.56c-0.34-0.67-0.34-1.29-0.45-1.96c-0.9-6.16-3.92-11.36-7.89-15.9c-3.75-4.25-8.45-7.45-14.05-9.01c-1.4-0.39-2.85-0.78-4.25-1.18c1.9-0.84 2.97-1.46 3.86-2.02c6.33-3.3 10.24-8.56 12.6-15.23c0.5-1.4 1.01-2.8 1.51-4.2c0.67-1.74 2.02-2.35 3.75-2.35c1.62 0 2.85 0.67 3.53 2.3c0.39 1.01 0.84 2.07 1.18 3.13c2.35 7.72 7.05 13.43 14.33 16.96c2.57 1.23 5.32 2.3 7.95 3.41c0.45 0.17 0.9 0.28 1.29 0.5c1.46 0.73 2.8 1.79 2.69 3.58c-0.06 1.85-1.18 3.08-2.91 3.75c-1.57 0.62-3.13 1.12-4.7 1.74c-8.12 3.13-14.95 8.23-18.42 16.46z" />
	<path id="Layer" class="s10" d="m215.74 50.32c-1.18 0.73-3.19 1.4-4.14 2.41c-2.18 2.3-2.63 3.19-3.69 6.72c-0.17 0.62-0.62 1.85-0.78 2.46c-0.9 3.47-0.73 7-0.73 10.47c0 0.78 0.06 1.57 0 2.41c-0.06 1.23-0.84 2.02-1.96 1.96c-1.12 0-1.9-0.78-1.9-2.02c-0.06-2.74 0.11-5.54-0.06-8.28c-0.22-3.86-1.34-7.56-3.3-10.92c-1.9-3.3-4.93-4.87-8.56-5.71c-4.37-1.01-8.79-0.95-13.21-1.01c-0.62 0-1.23-0.11-1.79-0.34c-0.73-0.22-1.01-0.84-1.01-1.57c0-0.73 0.28-1.34 0.95-1.62c0.5-0.17 1.06-0.34 1.57-0.34c1.9-0.06 3.86-0.06 5.77 0c3.64 0.11 7.05-0.39 10.47-1.4c3.19-1.62 4.65-3.3 6.1-5.71c0.17-0.34 0.45-0.56 0.67-0.9c0.28 0.5 0.56 1.01 0.78 1.57c1.9 3.92 4.7 7.11 8.51 9.35c1.96 1.18 3.92 2.41 6.33 2.46z" />
	<path id="Layer" class="s11" d="m192.39 43.83c1.51-0.45 2.52-1.34 3.58-2.24c2.63-2.18 3.75-5.26 4.76-8.4c1.23-3.75 1.01-7.61 1.01-11.42c0-0.78-0.06-1.57 0-2.41c0.06-1.23 0.84-2.02 1.96-1.96c1.12 0 1.9 0.78 1.9 2.02c0.06 2.74-0.11 5.54 0.06 8.28c0.22 3.86 1.34 7.56 3.3 10.92c1.9 3.3 4.93 4.87 8.56 5.71c4.37 1.01 8.79 0.95 13.21 1.01c0.62 0 1.23 0.11 1.79 0.34c0.73 0.22 1.01 0.84 1.01 1.57c0 0.73-0.28 1.34-0.95 1.62c-0.5 0.17-1.06 0.34-1.57 0.34c-1.9 0.06-3.86 0.06-5.77 0c-3.64-0.11-7.11 0.78-10.58 1.79c-2.74 0.78-4.2 2.74-5.65 5.09c-0.45 1.01-0.5 1.23-0.62 1.62c-0.28-0.5-0.9-1.62-1.18-2.13c-1.9-3.92-4.7-7.11-8.51-9.35c-1.9-1.18-3.92-2.41-6.33-2.41z" />
	<path id="Layer" class="s14" d="m88.83 156.91c-0.45-0.67-0.45-1.51 0-2.13c0.45-0.67 1.12-1.34 1.68-1.96c1.57-1.68 2.91-2.91 4.37-4.59c2.18-2.41 3.97-2.41 6.16 0.06c1.4 1.57 2.97 2.91 4.37 4.42c2.24 2.3 2.13 3.58-0.06 6.05c-1.29 1.46-2.69 2.8-3.97 4.25c-1.9 2.07-4.42 2.74-6.89 0.06c-1.46-1.62-2.63-2.63-4.14-4.25c-0.34-0.39-1.12-1.4-1.51-1.9z" />
	<path id="Layer" class="s1" d="m433.88 280.28c-0.45-0.67-0.45-1.51 0-2.13c0.45-0.67 1.12-1.34 1.68-1.96c1.57-1.68 2.91-2.91 4.37-4.59c2.18-2.41 3.97-2.41 6.16 0.06c1.4 1.57 2.97 2.91 4.37 4.42c2.24 2.3 2.13 3.58-0.06 6.05c-1.29 1.46-2.69 2.8-3.97 4.25c-1.9 2.07-4.42 2.74-6.89 0.06c-1.46-1.62-2.63-2.63-4.14-4.25c-0.39-0.45-1.18-1.4-1.51-1.9z" />
	<path id="Layer" class="s1" d="m190.77 312.86c-0.45-0.67-0.45-1.51 0-2.13c0.45-0.67 1.12-1.34 1.68-1.96c1.57-1.68 2.91-2.91 4.37-4.59c2.18-2.41 3.97-2.41 6.16 0.06c1.4 1.57 2.97 2.91 4.37 4.42c2.24 2.3 2.13 3.58-0.06 6.05c-1.29 1.46-2.69 2.8-3.97 4.25c-1.9 2.07-4.42 2.74-6.89 0.06c-1.46-1.62-2.63-2.63-4.14-4.25c-0.34-0.45-1.18-1.4-1.51-1.9z" />
	<path id="Layer" class="s14" d="m299.53 155.62c0.95 0 1.85 0 2.8 0c0.5 1.06 1.18 2.07 1.57 3.19c1.51 4.2 5.99 8.28 10.08 10.19c1.62 0.78 1.34 0.84 2.97 1.74c0 0.73 0 1.51 0 2.24c-0.9 0.45-1.74 1.06-2.69 1.34c-5.09 1.51-8.28 4.98-10.36 9.68c-0.56 1.23-1.34 2.35-2.07 3.53c-0.73 0-1.51 0-2.24 0c-0.39-0.73-1.34-2.46-1.57-3.25c-2.02-6.77-6.27-9.63-12.99-11.31c0-0.95 0-1.85 0-2.8c0.9-0.45 2.13-0.78 3.19-1.23c4.87-2.07 7.89-5.49 9.85-10.19c0.5-1.29 0.9-1.9 1.46-3.13z" />
	<path id="Layer" class="s14" d="m204.99 433.83c0.95 0 1.85 0 2.8 0c0.5 1.06 1.18 2.07 1.57 3.19c1.51 4.2 5.99 8.28 10.08 10.19c1.62 0.78 1.34 0.84 2.97 1.74c0 0.73 0 1.51 0 2.24c-0.9 0.45-1.74 1.06-2.69 1.34c-5.09 1.51-8.28 4.98-10.36 9.68c-0.56 1.23-1.34 2.35-2.07 3.53c-0.73 0-1.51 0-2.24 0c-0.39-0.73-1.34-2.46-1.57-3.25c-2.02-6.77-6.27-9.63-12.99-11.31c0-0.95 0-1.85 0-2.8c0.9-0.45 2.13-0.78 3.19-1.23c4.87-2.07 7.89-5.49 9.85-10.19c0.5-1.29 0.84-1.9 1.46-3.13z" />
	<path id="Layer" class="s15" d="m426.55 345.89c-1.4 0.9-3.75 1.68-4.93 2.85c-2.63 2.74-3.19 3.75-4.42 8c-0.22 0.73-0.73 2.24-0.9 2.91c-1.06 4.09-0.9 8.28-0.9 12.48c0 0.95 0.06 1.9 0 2.85c-0.06 1.46-0.95 2.35-2.35 2.35c-1.34 0-2.24-0.9-2.3-2.41c-0.06-3.3 0.11-6.61-0.06-9.85c-0.28-4.65-1.57-9.01-3.92-13.04c-2.3-3.92-5.88-5.77-10.24-6.83c-5.21-1.23-10.47-1.18-15.73-1.18c-0.73 0-1.46-0.17-2.18-0.39c-0.84-0.28-1.18-1.01-1.18-1.9c0-0.9 0.34-1.57 1.18-1.9c0.62-0.22 1.23-0.39 1.85-0.39c2.3-0.06 4.59-0.06 6.89 0c4.37 0.11 8.4-0.45 12.48-1.62c3.81-1.96 5.49-3.97 7.22-6.77c0.22-0.39 0.5-0.67 0.78-1.06c0.34 0.62 0.62 1.23 0.95 1.85c2.3 4.7 5.65 8.45 10.13 11.2c2.41 1.34 4.76 2.8 7.61 2.85z" />
	<path id="Layer" class="s14" d="m398.73 338.16c1.79-0.5 2.97-1.62 4.25-2.69c3.13-2.57 4.48-6.27 5.65-9.96c1.46-4.48 1.23-9.07 1.23-13.6c0-0.95-0.06-1.9 0-2.85c0.06-1.46 0.95-2.35 2.35-2.35c1.34 0 2.24 0.9 2.3 2.41c0.06 3.3-0.11 6.61 0.06 9.85c0.28 4.65 1.57 9.01 3.92 13.04c2.3 3.92 5.88 5.77 10.24 6.83c5.21 1.23 10.47 1.18 15.73 1.18c0.73 0 1.46 0.17 2.18 0.39c0.84 0.28 1.18 1.01 1.18 1.9c0 0.9-0.34 1.57-1.18 1.9c-0.62 0.22-1.23 0.39-1.85 0.39c-2.3 0.06-4.59 0.06-6.89 0c-4.37-0.11-8.51 0.95-12.6 2.18c-3.3 0.95-4.98 3.25-6.72 6.1c-0.56 1.23-0.62 1.46-0.78 1.96c-0.34-0.62-1.12-1.96-1.4-2.57c-2.3-4.7-5.65-8.45-10.13-11.2c-2.35-1.4-4.7-2.85-7.56-2.91z" />
	<path id="Layer" class="s12" d="m373.15 234.83c-0.45-0.67-0.45-1.51 0-2.13c0.45-0.67 1.12-1.34 1.68-1.96c1.57-1.68 2.91-2.91 4.37-4.59c2.18-2.41 3.97-2.41 6.16 0.06c1.4 1.57 2.97 2.91 4.37 4.42c2.24 2.3 2.13 3.58-0.06 6.05c-1.29 1.46-2.69 2.8-3.97 4.25c-1.9 2.07-4.42 2.74-6.89 0.06c-1.46-1.62-2.63-2.63-4.14-4.25c-0.39-0.39-1.18-1.34-1.51-1.9z" />
	<path id="Layer" class="s12" d="m122.36 236.51c-0.45-0.67-0.45-1.51 0-2.13c0.45-0.67 1.12-1.34 1.68-1.96c1.57-1.68 2.91-2.91 4.37-4.59c2.18-2.41 3.97-2.41 6.16 0.06c1.4 1.57 2.97 2.91 4.37 4.42c2.24 2.3 2.13 3.58-0.06 6.05c-1.29 1.46-2.69 2.8-3.97 4.25c-1.9 2.07-4.42 2.74-6.89 0.06c-1.46-1.62-2.63-2.63-4.14-4.25c-0.34-0.39-1.18-1.34-1.51-1.9z" />
	<path id="Layer" class="s16" d="m150.47 205.72c-10.62 0-19.2-8.58-19.2-19.2c0-10.62 8.58-19.2 19.2-19.2c10.62 0 19.2 8.58 19.2 19.2c0 10.62-8.58 19.2-19.2 19.2z" />
	<g id="Layer">
		<g id="Layer">
			<path id="Layer" class="s12" d="m150.58 205.77c-10.62 0-19.2-8.58-19.2-19.2c0-10.62 8.58-19.2 19.2-19.2c10.62 0 19.2 8.58 19.2 19.2c0 10.62-8.58 19.2-19.2 19.2z" />
		</g>
	</g>
	<path id="Layer" class="s13" d="m150.69 196.65c-5.54 0-10.02-4.53-10.02-10.13c0-5.6 4.48-10.13 10.02-10.13c5.54 0 10.02 4.53 10.02 10.13c0 5.6-4.48 10.13-10.02 10.13z" />
	<path id="Layer" class="s17" d="m352.77 425.38c-17.89 0-32.36-14.46-32.36-32.36c0-17.89 14.46-32.36 32.36-32.36c17.89 0 32.36 14.46 32.36 32.36c0 17.89-14.46 32.36-32.36 32.36z" />
	<g id="Layer">
		<g id="Layer">
			<path id="Layer" class="s17" d="m352.88 424.7c-17.71 0-32.02-14.31-32.02-32.02c0-17.71 14.31-32.02 32.02-32.02c17.71 0 32.02 14.31 32.02 32.02c0 17.71-14.31 32.02-32.02 32.02z" />
		</g>
		<g id="Layer">
			<path id="Layer" class="s16" d="m353.11 424.82c-17.71 0-32.02-14.31-32.02-32.02c0-17.71 14.31-32.02 32.02-32.02c17.71 0 32.02 14.31 32.02 32.02c0 17.71-14.31 32.02-32.02 32.02z" />
		</g>
	</g>
	<path id="Layer" class="s14" d="m352.77 405.34c-6.81 0-12.32-5.5-12.32-12.32c0-6.81 5.5-12.32 12.32-12.32c6.81 0 12.32 5.5 12.32 12.32c0 6.81-5.5 12.32-12.32 12.32z" />
	<path id="Layer" class="s16" d="m171.68 422.69c-7.43 0-13.43-6.01-13.43-13.43c0-7.43 6.01-13.43 13.43-13.43c7.43 0 13.43 6.01 13.43 13.43c0 7.43-6.01 13.43-13.43 13.43z" />
	<g id="Layer">
		<g id="Layer">
			<path id="Layer" class="s16" d="m171.68 422.69c-7.43 0-13.43-6.01-13.43-13.43c0-7.43 6.01-13.43 13.43-13.43c7.43 0 13.43 6.01 13.43 13.43c0 7.43-6.01 13.43-13.43 13.43z" />
		</g>
		<g id="Layer">
			<path id="Layer" class="s12" d="m171.74 422.41c-7.34 0-13.27-5.93-13.27-13.27c0-7.34 5.93-13.27 13.27-13.27c7.34 0 13.27 5.93 13.27 13.27c0 7.34-5.93 13.27-13.27 13.27z" />
		</g>
		<g id="Layer">
			<path id="Layer" class="s12" d="m171.79 422.47c-7.34 0-13.27-5.93-13.27-13.27c0-7.34 5.93-13.27 13.27-13.27c7.34 0 13.27 5.93 13.27 13.27c0 7.34-5.93 13.27-13.27 13.27z" />
		</g>
	</g>
	<path id="Layer" class="s16" d="m370.4 199.11c-7 0-12.65-5.66-12.65-12.65c0-7 5.66-12.65 12.65-12.65c7 0 12.65 5.66 12.65 12.65c0 7-5.66 12.65-12.65 12.65z" />
	<g id="Layer">
		<g id="Layer">
			<path id="Layer" class="s16" d="m370.4 199.11c-7 0-12.65-5.66-12.65-12.65c0-7 5.66-12.65 12.65-12.65c7 0 12.65 5.66 12.65 12.65c0 7-5.66 12.65-12.65 12.65z" />
		</g>
		<g id="Layer">
			<path id="Layer" class="s12" d="m370.46 198.83c-6.93 0-12.54-5.6-12.54-12.54c0-6.93 5.6-12.54 12.54-12.54c6.93 0 12.54 5.6 12.54 12.54c0 6.93-5.6 12.54-12.54 12.54z" />
		</g>
		<g id="Layer">
			<path id="Layer" class="s12" d="m370.51 198.89c-6.93 0-12.54-5.6-12.54-12.54c0-6.93 5.6-12.54 12.54-12.54c6.93 0 12.54 5.6 12.54 12.54c0 6.93-5.6 12.54-12.54 12.54z" />
		</g>
	</g>
	<path id="Layer" class="s16" d="m268.75 320.81c-10.46 0-18.92-8.46-18.92-18.92c0-10.46 8.46-18.92 18.92-18.92c10.46 0 18.92 8.46 18.92 18.92c0 10.46-8.46 18.92-18.92 18.92z" />
	<g id="Layer">
		<g id="Layer">
			<path id="Layer" class="s12" d="m268.91 320.87c-10.46 0-18.92-8.46-18.92-18.92c0-10.46 8.46-18.92 18.92-18.92c10.46 0 18.92 8.46 18.92 18.92c0 10.46-8.46 18.92-18.92 18.92z" />
		</g>
	</g>
	<path id="Layer" class="s14" d="m246.86 285.32l-1.01 1.01c-1.4 1.4-3.69 1.46-5.15 0.06l-76.02-75.23c-1.4-1.4-1.46-3.69-0.06-5.15l1.01-1.01c1.4-1.4 3.69-1.46 5.15-0.06l76.02 75.18c1.46 1.46 1.46 3.75 0.06 5.21z" />
	<path id="Layer" class="s14" d="m288.73 284.65l-1.12-0.95c-1.51-1.29-1.68-3.58-0.39-5.15l66-77.36c1.29-1.51 3.58-1.68 5.15-0.39l1.12 0.95c1.51 1.29 1.68 3.58 0.39 5.15l-66 77.31c-1.29 1.51-3.58 1.74-5.15 0.45z" />
	<path id="Layer" class="s14" d="m187.35 394.08l-1.06-0.95c-1.51-1.34-1.62-3.64-0.34-5.15l58.83-66.78c1.34-1.51 3.64-1.62 5.15-0.34l1.06 0.95c1.51 1.34 1.62 3.64 0.34 5.15l-58.83 66.78c-1.34 1.51-3.64 1.68-5.15 0.34z" />
	<path id="Layer" class="s14" d="m327.69 362.74l-1.01 1.01c-1.4 1.4-3.69 1.46-5.15 0.06l-38.01-37.62c-1.4-1.4-1.46-3.69-0.06-5.15l1.01-1.01c1.4-1.4 3.69-1.46 5.15-0.06l38.01 37.62c1.46 1.4 1.46 3.69 0.06 5.15z" />
	<path id="Layer" class="s14" d="m169.27 166.53l-0.9-1.12c-1.23-1.57-1.01-3.86 0.56-5.09l62.47-50.44c1.57-1.23 3.86-1.01 5.09 0.56l0.9 1.12c1.23 1.57 1.01 3.86-0.56 5.09l-62.42 50.44c-1.57 1.29-3.86 1.01-5.15-0.56z" />
</svg>