<svg height="512" viewBox="0 0 58 58" width="512" xmlns="http://www.w3.org/2000/svg"><g id="Page-1" fill="none" fill-rule="evenodd"><g id="017---Skull"><path id="Path" d="m13.77 38.58-3.52 3.52c-.85311528.8599318-2.1423162 1.1169811-3.26.65-2.04302608-.8812675-4.42258196-.3064896-5.83808069 1.4101791-1.41549874 1.7166687-1.52633091 4.1621486-.27191931 5.9998209 1.07422782 1.5800937 2.96165373 2.4012212 4.85 2.11-.28882421 1.93637.58091544 3.8628253 2.22432992 4.9268447 1.64341449 1.0640193 3.75709628 1.0691632 5.40567008.0131553 2.0620803-1.3258886 2.8617887-3.9492707 1.89-6.2-.4669811-1.1176838-.2099318-2.4068847.65-3.26l4.7-4.69 23.42-23.43 3.73-3.73c.8531153-.8599318 2.1423162-1.1169811 3.26-.65 2.0430261.8812675 4.422582.3064896 5.8380807-1.4101791s1.5263309-4.16214858.2719193-5.9998209c-1.0742278-1.58009368-2.9616537-2.40122125-4.85-2.11.2888242-1.93637003-.5809154-3.86282533-2.2243299-4.92684467s-3.7570963-1.06916323-5.4056701-.01315533c-2.0620803 1.3258886-2.8617887 3.94927067-1.89 6.2.4669811 1.1176838.2099318 2.40688472-.65 3.26l-2.76 2.76z" fill="#fac176"/><path id="Path" d="m44.23 38.58 3.52 3.52c.8531153.8599318 2.1423162 1.1169811 3.26.65 2.0430261-.8812675 4.422582-.3064896 5.8380807 1.4101791s1.5263309 4.1621486.2719193 5.9998209c-1.0742278 1.5800937-2.9616537 2.4012212-4.85 2.11.2888242 1.93637-.5809154 3.8628253-2.2243299 4.9268447-1.6434145 1.0640193-3.7570963 1.0691632-5.4056701.0131553-2.0620803-1.3258886-2.8617887-3.9492707-1.89-6.2.4669811-1.1176838.2099318-2.4068847-.65-3.26l-4.69-4.69-23.43-23.43-3.73-3.73c-.85311528-.8599318-2.1423162-1.1169811-3.26-.65-2.04302608.8812675-4.42258196.3064896-5.83808069-1.4101791-1.41549874-1.7166687-1.52633091-4.16214858-.27191931-5.9998209 1.07422782-1.58009368 2.96165373-2.40122125 4.85-2.11-.28882421-1.93637003.58091544-3.86282533 2.22432992-4.92684467 1.64341449-1.06401934 3.75709628-1.06916323 5.40567008-.01315533 2.0620803 1.3258886 2.8617887 3.94927067 1.89 6.2-.4669811 1.1176838-.2099318 2.40688472.65 3.26l2.76 2.76z" fill="#fac176"/><path id="Path" d="m43 33c0 2 4 6-2 9-1.17.59-4 .18-4 2v2c-.0032948 1.1032019-.8967981 1.9967052-2 2h-12c-1.1032019-.0032948-1.9967052-.8967981-2-2v-2c0-1.82-2.83-1.41-4-2-6-3-2-7-2-9s-2-3-2-7c0-9 5-16 16-16s16 7 16 16c0 4-2 5-2 7z" fill="#f9eab0"/><path id="Path" d="m30 45v3h-2v-3c0-.5522847.4477153-1 1-1s1 .4477153 1 1z" fill="#fac176"/><path id="Path" d="m26 45v3h-2v-3c0-.5522847.4477153-1 1-1s1 .4477153 1 1z" fill="#fac176"/><path id="Path" d="m34 45v3h-2v-3c0-.5522847.4477153-1 1-1s1 .4477153 1 1z" fill="#fac176"/><path id="Path" d="m29 40.062c0 .813 3 1.625 3 0s-2-4.062-3-4.062-3 2.437-3 4.062 3 .813 3 0z" fill="#3f5c6c"/><path id="Path" d="m26 32c0 2.209-1.791 3-4 3s-4-.791-4-3 .791-4 3-4 5 1.791 5 4z" fill="#3f5c6c"/><path id="Path" d="m32 32c0 2.209 1.791 3 4 3s4-.791 4-3-.791-4-3-4-5 1.791-5 4z" fill="#3f5c6c"/><g fill="#f18d46"><path id="Path" d="m52.267 53.268c-.4961138-.0002142-.9170635-.3641293-.989-.855-.1232542-.8557307-.5138631-1.6505987-1.116-2.271-.3843902-.3970927-.3740927-1.0306098.023-1.415s1.0306098-.3740927 1.415.023c.8948871.9212336 1.4755652 2.1018407 1.659 3.373.0798339.5461472-.2979212 1.0536997-.844 1.134-.0490154.0071232-.0984701.0107989-.148.011z"/><path id="Path" d="m8.553 8.119c-.26120872.00103148-.51245271-.10018395-.7-.282-.61865403-.6010414-1.41137469-.99127696-2.265-1.115-.54504966-.08131199-.92158649-.58825762-.84195484-1.13355531s.5854143-.92339524 1.13095484-.84544469c1.27049648.18235488 2.45059189.76242551 3.371 1.657.292298.28335889.3836448.71562756.23097574 1.09301667-.15266905.37738911-.518876.62455891-.92597574.62498333z"/><path id="Path" d="m5.733 53.268c-.04886216-.000294-.09764539-.0039695-.146-.011-.54607881-.0803003-.92383393-.5878528-.844-1.134.18287943-1.2709191.76284387-2.4514985 1.657-3.373.38534133-.391409 1.01424747-.3987577 1.40862953-.0164598.39438205.382298.40660206 1.0111283.02737047 1.4084598-.60213695.6204013-.9927458 1.4152693-1.116 2.271-.07182515.4901211-.49164551.8537953-.987.855z"/><path id="Path" d="m49.447 8.119c-.4080112.00161778-.7760869-.24480763-.9300434-.62266101-.1539566-.37785337-.0629142-.81134665.2300434-1.09533899.9202739-.89494001 2.1003832-1.47536757 3.371-1.658.3540814-.05282282.7093881.08766591.9315984.36835514.2222103.28068924.2774202.65875254.1447578.99126502s-.4329559.56874072-.7873562.61937984c-.8550444.12291642-1.6492781.51320753-2.269 1.115-.1853108.17965051-.4329056.28069498-.691.282z"/></g></g></g></svg>