<svg xmlns="http://www.w3.org/2000/svg" viewBox="0 0 512 512" width="512" height="512">
	<style>
		tspan { white-space:pre }
		.shp0 { fill: #f59898;stroke: #ff0000;paint-order:stroke fill markers;stroke-width: 74 } 
		.shp1 { fill: #f59898 } 
		.shp2 { fill: #ed9191 } 
		.shp3 { fill: #e07777 } 
	</style>
	<path id="Layer copy" class="shp0" d="M473 291.19C473 267.38 457.81 247.2 436.82 240.25C437.86 238.29 438.77 236.27 439.56 234.21C440.35 232.14 441.02 230.02 441.55 227.87C442.08 225.72 442.48 223.54 442.75 221.34C443.01 219.14 443.14 216.93 443.14 214.72C443.14 185.14 419.74 161.18 390.88 161.18C390.25 161.18 389.63 161.19 389 161.22C388.38 161.24 387.75 161.27 387.13 161.32C386.51 161.37 385.89 161.43 385.26 161.5C384.64 161.57 384.02 161.65 383.4 161.74C383.4 161.55 383.41 161.37 383.41 161.18C383.42 159.27 383.32 157.36 383.12 155.46C382.92 153.57 382.63 151.68 382.23 149.81C381.84 147.94 381.34 146.1 380.75 144.28C380.16 142.47 379.48 140.69 378.7 138.94C370.46 120.48 352.27 107.65 331.16 107.65C328.09 107.65 325.03 107.93 322.01 108.48C318.99 109.02 316.03 109.84 313.16 110.92C310.29 111.99 307.52 113.33 304.88 114.9C302.25 116.47 299.76 118.27 297.45 120.29C292.65 113.98 286.45 108.87 279.35 105.35C272.25 101.83 264.43 100 256.5 100C248.57 100 240.75 101.83 233.65 105.35C226.55 108.87 220.35 113.98 215.55 120.29C213.24 118.27 210.75 116.47 208.12 114.9C205.48 113.33 202.71 111.99 199.84 110.92C196.97 109.84 194.01 109.02 190.99 108.48C187.97 107.93 184.91 107.65 181.84 107.65C152.98 107.65 129.59 131.62 129.59 161.18C129.59 161.37 129.6 161.55 129.6 161.74C128.98 161.65 128.36 161.57 127.74 161.5C127.11 161.43 126.49 161.37 125.87 161.32C125.25 161.27 124.62 161.24 124 161.22C123.37 161.19 122.75 161.18 122.12 161.18C93.26 161.18 69.86 185.14 69.86 214.72C69.86 216.93 69.99 219.14 70.25 221.34C70.52 223.54 70.92 225.72 71.45 227.87C71.98 230.02 72.65 232.14 73.44 234.21C74.23 236.27 75.14 238.29 76.18 240.25C55.19 247.2 40 267.38 40 291.19C40 318.95 60.63 341.78 87.04 344.46C86.84 345.14 86.65 345.82 86.48 346.51C86.2 347.61 85.96 348.72 85.74 349.84C85.53 350.96 85.36 352.08 85.22 353.21C85.07 354.34 84.97 355.47 84.9 356.61C84.83 357.74 84.79 358.88 84.79 360.01C84.79 389.59 108.19 413.55 137.05 413.55C141.02 413.54 144.97 413.08 148.82 412.16C152.68 411.25 156.42 409.9 159.97 408.13C163.52 406.37 166.85 404.2 169.91 401.67C172.96 399.14 175.71 396.27 178.11 393.11C182.61 399.08 188.36 403.99 194.96 407.51C201.55 411.02 208.83 413.06 216.3 413.47C223.76 413.89 231.22 412.67 238.16 409.91C245.11 407.14 251.36 402.9 256.5 397.47C261.64 402.9 267.89 407.14 274.84 409.91C281.78 412.67 289.24 413.89 296.7 413.47C304.17 413.06 311.45 411.02 318.04 407.51C324.64 403.99 330.39 399.08 334.89 393.11C337.29 396.27 340.04 399.14 343.09 401.67C346.15 404.2 349.48 406.37 353.03 408.13C356.58 409.9 360.32 411.25 364.18 412.16C368.03 413.08 371.98 413.54 375.95 413.55C404.81 413.55 428.21 389.59 428.21 360.01C428.21 358.7 428.16 357.39 428.07 356.07C427.97 354.76 427.83 353.46 427.64 352.16C427.45 350.85 427.22 349.56 426.94 348.28C426.66 346.99 426.33 345.72 425.96 344.46C452.37 341.78 473 318.95 473 291.19ZM425.96 344.46C426.33 345.72 426.66 346.99 426.94 348.28C427.22 349.56 427.45 350.85 427.64 352.16C427.83 353.46 427.97 354.76 428.07 356.07C428.16 357.39 428.21 358.7 428.21 360.01C428.21 389.59 404.81 413.55 375.95 413.55C371.98 413.54 368.03 413.08 364.18 412.16C360.32 411.25 356.58 409.9 353.03 408.13C349.48 406.37 346.15 404.2 343.09 401.67C340.04 399.14 337.29 396.27 334.89 393.11C330.39 399.08 324.64 403.99 318.04 407.51C311.45 411.02 304.17 413.06 296.7 413.47C289.24 413.89 281.78 412.67 274.84 409.91C267.89 407.14 261.64 402.9 256.5 397.47C251.36 402.9 245.11 407.14 238.16 409.91C231.22 412.67 223.76 413.89 216.3 413.47C208.83 413.06 201.55 411.02 194.96 407.51C188.36 403.99 182.61 399.08 178.11 393.11C175.71 396.27 172.96 399.14 169.91 401.67C166.85 404.2 163.52 406.37 159.97 408.13C156.42 409.9 152.68 411.25 148.82 412.16C144.97 413.08 141.02 413.54 137.05 413.55C108.19 413.55 84.79 389.59 84.79 360.01C84.79 358.88 84.83 357.74 84.9 356.61C84.97 355.47 85.07 354.34 85.22 353.21C85.36 352.08 85.53 350.96 85.74 349.84C85.96 348.72 86.2 347.61 86.48 346.51C203.99 324.83 316.24 265.14 378.7 138.94C379.48 140.69 380.16 142.47 380.75 144.28C381.34 146.1 381.84 147.94 382.23 149.81C382.63 151.68 382.92 153.57 383.12 155.46C383.32 157.36 383.42 159.27 383.41 161.18C383.41 161.37 383.4 161.55 383.4 161.74C384.02 161.65 384.64 161.57 385.26 161.5C385.89 161.43 386.51 161.37 387.13 161.32C387.75 161.27 388.38 161.24 389 161.22C389.63 161.19 390.25 161.18 390.88 161.18C419.74 161.18 443.14 185.14 443.14 214.72C443.14 216.93 443.01 219.14 442.75 221.34C442.48 223.54 442.08 225.72 441.55 227.87C441.02 230.02 440.35 232.14 439.56 234.21C438.77 236.27 437.86 238.29 436.82 240.25C457.81 247.2 473 267.38 473 291.19C473 318.95 452.37 341.78 425.96 344.46L425.96 344.46Z" />
	<g id="Flat">
		<path id="Layer" class="shp1" d="M473 291.19C473 267.38 457.81 247.2 436.82 240.25C437.86 238.29 438.77 236.27 439.56 234.21C440.35 232.14 441.02 230.02 441.55 227.87C442.08 225.72 442.48 223.54 442.75 221.34C443.01 219.14 443.14 216.93 443.14 214.72C443.14 185.14 419.74 161.18 390.88 161.18C390.25 161.18 389.63 161.19 389 161.22C388.38 161.24 387.75 161.27 387.13 161.32C386.51 161.37 385.89 161.43 385.26 161.5C384.64 161.57 384.02 161.65 383.4 161.74C383.4 161.55 383.41 161.37 383.41 161.18C383.42 159.27 383.32 157.36 383.12 155.46C382.92 153.57 382.63 151.68 382.23 149.81C381.84 147.94 381.34 146.1 380.75 144.28C380.16 142.47 379.48 140.69 378.7 138.94C370.46 120.48 352.27 107.65 331.16 107.65C328.09 107.65 325.03 107.93 322.01 108.48C318.99 109.02 316.03 109.84 313.16 110.92C310.29 111.99 307.52 113.33 304.88 114.9C302.25 116.47 299.76 118.27 297.45 120.29C292.65 113.98 286.45 108.87 279.35 105.35C272.25 101.83 264.43 100 256.5 100C248.57 100 240.75 101.83 233.65 105.35C226.55 108.87 220.35 113.98 215.55 120.29C213.24 118.27 210.75 116.47 208.12 114.9C205.48 113.33 202.71 111.99 199.84 110.92C196.97 109.84 194.01 109.02 190.99 108.48C187.97 107.93 184.91 107.65 181.84 107.65C152.98 107.65 129.59 131.62 129.59 161.18C129.59 161.37 129.6 161.55 129.6 161.74C128.98 161.65 128.36 161.57 127.74 161.5C127.11 161.43 126.49 161.37 125.87 161.32C125.25 161.27 124.62 161.24 124 161.22C123.37 161.19 122.75 161.18 122.12 161.18C93.26 161.18 69.86 185.14 69.86 214.72C69.86 216.93 69.99 219.14 70.25 221.34C70.52 223.54 70.92 225.72 71.45 227.87C71.98 230.02 72.65 232.14 73.44 234.21C74.23 236.27 75.14 238.29 76.18 240.25C55.19 247.2 40 267.38 40 291.19C40 318.95 60.63 341.78 87.04 344.46C86.84 345.14 86.65 345.82 86.48 346.51C86.2 347.61 85.96 348.72 85.74 349.84C85.53 350.96 85.36 352.08 85.22 353.21C85.07 354.34 84.97 355.47 84.9 356.61C84.83 357.74 84.79 358.88 84.79 360.01C84.79 389.59 108.19 413.55 137.05 413.55C141.02 413.54 144.97 413.08 148.82 412.16C152.68 411.25 156.42 409.9 159.97 408.13C163.52 406.37 166.85 404.2 169.91 401.67C172.96 399.14 175.71 396.27 178.11 393.11C182.61 399.08 188.36 403.99 194.96 407.51C201.55 411.02 208.83 413.06 216.3 413.47C223.76 413.89 231.22 412.67 238.16 409.91C245.11 407.14 251.36 402.9 256.5 397.47C261.64 402.9 267.89 407.14 274.84 409.91C281.78 412.67 289.24 413.89 296.7 413.47C304.17 413.06 311.45 411.02 318.04 407.51C324.64 403.99 330.39 399.08 334.89 393.11C337.29 396.27 340.04 399.14 343.09 401.67C346.15 404.2 349.48 406.37 353.03 408.13C356.58 409.9 360.32 411.25 364.18 412.16C368.03 413.08 371.98 413.54 375.95 413.55C404.81 413.55 428.21 389.59 428.21 360.01C428.21 358.7 428.16 357.39 428.07 356.07C427.97 354.76 427.83 353.46 427.64 352.16C427.45 350.85 427.22 349.56 426.94 348.28C426.66 346.99 426.33 345.72 425.96 344.46C452.37 341.78 473 318.95 473 291.19Z" />
		<path id="Layer" class="shp2" d="M425.96 344.46C426.33 345.72 426.66 346.99 426.94 348.28C427.22 349.56 427.45 350.85 427.64 352.16C427.83 353.46 427.97 354.76 428.07 356.07C428.16 357.39 428.21 358.7 428.21 360.01C428.21 389.59 404.81 413.55 375.95 413.55C371.98 413.54 368.03 413.08 364.18 412.16C360.32 411.25 356.58 409.9 353.03 408.13C349.48 406.37 346.15 404.2 343.09 401.67C340.04 399.14 337.29 396.27 334.89 393.11C330.39 399.08 324.64 403.99 318.04 407.51C311.45 411.02 304.17 413.06 296.7 413.47C289.24 413.89 281.78 412.67 274.84 409.91C267.89 407.14 261.64 402.9 256.5 397.47C251.36 402.9 245.11 407.14 238.16 409.91C231.22 412.67 223.76 413.89 216.3 413.47C208.83 413.06 201.55 411.02 194.96 407.51C188.36 403.99 182.61 399.08 178.11 393.11C175.71 396.27 172.96 399.14 169.91 401.67C166.85 404.2 163.52 406.37 159.97 408.13C156.42 409.9 152.68 411.25 148.82 412.16C144.97 413.08 141.02 413.54 137.05 413.55C108.19 413.55 84.79 389.59 84.79 360.01C84.79 358.88 84.83 357.74 84.9 356.61C84.97 355.47 85.07 354.34 85.22 353.21C85.36 352.08 85.53 350.96 85.74 349.84C85.96 348.72 86.2 347.61 86.48 346.51C203.99 324.83 316.24 265.14 378.7 138.94C379.48 140.69 380.16 142.47 380.75 144.28C381.34 146.1 381.84 147.94 382.23 149.81C382.63 151.68 382.92 153.57 383.12 155.46C383.32 157.36 383.42 159.27 383.41 161.18C383.41 161.37 383.4 161.55 383.4 161.74C384.02 161.65 384.64 161.57 385.26 161.5C385.89 161.43 386.51 161.37 387.13 161.32C387.75 161.27 388.38 161.24 389 161.22C389.63 161.19 390.25 161.18 390.88 161.18C419.74 161.18 443.14 185.14 443.14 214.72C443.14 216.93 443.01 219.14 442.75 221.34C442.48 223.54 442.08 225.72 441.55 227.87C441.02 230.02 440.35 232.14 439.56 234.21C438.77 236.27 437.86 238.29 436.82 240.25C457.81 247.2 473 267.38 473 291.19C473 318.95 452.37 341.78 425.96 344.46L425.96 344.46Z" />
		<g id="Layer">
			<path id="Layer" class="shp3" d="M177.31 316.51C174.47 319.36 171.91 322.49 169.68 325.84C167.46 329.19 165.56 332.76 164.03 336.48C162.5 340.2 161.35 344.07 160.58 348.02C159.81 351.97 159.43 355.99 159.45 360.02C159.45 369.62 163.5 381.83 167.66 390.27C168.13 391.24 168.8 392.1 169.63 392.78C170.46 393.46 171.42 393.96 172.46 394.24C173.5 394.52 174.58 394.57 175.64 394.4C176.7 394.22 177.71 393.82 178.6 393.21C179.34 392.71 179.98 392.07 180.5 391.34C181.01 390.6 181.39 389.78 181.61 388.91C181.84 388.04 181.9 387.14 181.81 386.25C181.71 385.36 181.46 384.49 181.06 383.69C177.91 377.29 174.38 367.32 174.38 360.02C174.36 356.97 174.65 353.92 175.23 350.93C175.81 347.94 176.68 345.01 177.84 342.18C179 339.36 180.43 336.66 182.12 334.12C183.8 331.58 185.74 329.21 187.89 327.05L177.31 316.51Z" />
			<path id="Layer" class="shp3" d="M297.77 120.69C297.07 119.88 296.21 119.23 295.24 118.79C294.27 118.34 293.21 118.11 292.14 118.11C291.07 118.11 290.02 118.34 289.04 118.78C288.07 119.22 287.2 119.86 286.5 120.67C284.09 123.45 281.93 126.45 280.05 129.61C278.17 132.78 276.58 136.11 275.3 139.56C274.02 143.01 273.04 146.57 272.39 150.2C271.75 153.82 271.42 157.5 271.43 161.18L286.36 161.18C286.35 158.4 286.6 155.62 287.08 152.88C287.57 150.14 288.3 147.45 289.27 144.84C290.23 142.23 291.43 139.72 292.84 137.32C294.26 134.92 295.88 132.66 297.7 130.55C298.29 129.88 298.76 129.1 299.08 128.26C299.4 127.42 299.57 126.53 299.58 125.63C299.59 124.74 299.43 123.84 299.12 123C298.82 122.16 298.36 121.37 297.77 120.69L297.77 120.69Z" />
			<path id="Layer" class="shp3" d="M428.1 343.44C427.97 342.58 427.68 341.75 427.26 340.99C426.83 340.23 426.27 339.55 425.61 338.99C424.94 338.42 424.18 337.98 423.36 337.69C422.54 337.39 421.68 337.25 420.81 337.26L420.74 337.26C417.84 337.26 414.94 336.97 412.09 336.4C409.25 335.83 406.46 334.97 403.78 333.85C401.11 332.73 398.54 331.34 396.14 329.72C393.73 328.09 391.5 326.23 389.46 324.16L378.88 334.7C381.61 337.46 384.6 339.95 387.82 342.13C391.04 344.3 394.47 346.15 398.05 347.65C401.64 349.15 405.36 350.28 409.17 351.05C412.98 351.81 416.86 352.19 420.74 352.19L421.11 352.19C422.14 352.18 423.16 351.94 424.09 351.5C425.02 351.07 425.85 350.43 426.52 349.65C427.19 348.86 427.68 347.94 427.97 346.95C428.25 345.96 428.32 344.92 428.16 343.9L428.1 343.44Z" />
			<path id="Layer" class="shp3" d="M383.5 162.3L383.49 162.25C383.33 161.19 382.95 160.18 382.37 159.28C381.78 158.38 381.01 157.62 380.11 157.04C379.2 156.47 378.18 156.1 377.12 155.96C376.06 155.81 374.98 155.9 373.95 156.21C371.51 156.96 369.12 157.86 366.79 158.91C364.46 159.96 362.21 161.15 360.03 162.49C357.86 163.83 355.77 165.31 353.79 166.91C351.8 168.51 349.92 170.24 348.16 172.09L358.95 182.41C360.26 181.03 361.67 179.74 363.15 178.54C364.63 177.34 366.18 176.24 367.8 175.24C369.42 174.24 371.11 173.34 372.84 172.55C374.58 171.77 376.36 171.09 378.18 170.53C379.04 170.28 379.84 169.88 380.56 169.34C381.27 168.81 381.89 168.15 382.37 167.41C382.85 166.66 383.2 165.83 383.39 164.96C383.59 164.08 383.62 163.19 383.5 162.3L383.5 162.3Z" />
			<path id="Layer" class="shp3" d="M165.85 173.17C164.08 171.21 162.2 169.34 160.22 167.59C158.25 165.84 156.17 164.2 154.01 162.68C151.84 161.16 149.6 159.76 147.27 158.5C144.95 157.23 142.56 156.09 140.12 155.1C138.92 154.62 137.63 154.44 136.34 154.56C135.06 154.68 133.83 155.1 132.74 155.79C131.65 156.48 130.74 157.41 130.08 158.52C129.42 159.63 129.04 160.87 128.95 162.16C128.9 163.08 129 164.01 129.26 164.9C129.51 165.79 129.91 166.62 130.45 167.38C130.98 168.13 131.64 168.79 132.39 169.33C133.14 169.87 133.98 170.27 134.87 170.53C136.68 171.09 138.45 171.75 140.18 172.54C141.9 173.32 143.57 174.21 145.19 175.2C146.8 176.19 148.34 177.29 149.81 178.48C151.28 179.68 152.68 180.96 153.98 182.33C151.87 184.42 149.92 186.66 148.14 189.04C146.36 191.41 144.75 193.91 143.33 196.52C141.91 199.13 140.69 201.83 139.66 204.62C138.64 207.41 137.82 210.26 137.21 213.17L151.82 216.26C152.3 213.98 152.94 211.75 153.75 209.57C154.56 207.39 155.54 205.28 156.67 203.25C157.8 201.22 159.08 199.28 160.5 197.44C161.92 195.6 163.48 193.88 165.17 192.27C167.31 190.21 169.66 188.36 172.18 186.77C174.7 185.18 177.37 183.86 180.16 182.81C182.95 181.76 185.84 181 188.78 180.54C191.73 180.08 194.71 179.92 197.68 180.07L198.4 165.15C195.57 165.01 192.73 165.07 189.91 165.34C187.09 165.62 184.29 166.09 181.54 166.77C178.78 167.45 176.09 168.33 173.46 169.4C170.84 170.47 168.29 171.73 165.85 173.17L165.85 173.17Z" />
			<path id="Layer" class="shp3" d="M331.16 234.49C329.87 234.54 328.58 234.65 327.29 234.81C326.01 234.98 324.73 235.19 323.46 235.46C322.2 235.73 320.94 236.04 319.7 236.42C318.46 236.79 317.24 237.21 316.03 237.68C315.73 233.85 314.99 230.08 313.81 226.43C312.64 222.78 311.03 219.28 309.04 216.01C307.04 212.73 304.67 209.71 301.96 206.99C299.26 204.27 296.24 201.88 292.98 199.86L285.14 212.57C287.62 214.11 289.9 215.96 291.91 218.08C293.92 220.2 295.65 222.56 297.06 225.12C298.47 227.68 299.54 230.41 300.26 233.24C300.97 236.07 301.32 238.98 301.29 241.91C301.29 260.75 286.41 276.08 268.11 276.08C267.31 276.08 266.52 276.05 265.72 275.99C264.93 275.93 264.13 275.84 263.34 275.73C262.55 275.61 261.77 275.46 260.99 275.29C260.21 275.11 259.44 274.91 258.68 274.68L254.32 288.96C255.44 289.3 256.57 289.6 257.7 289.85C258.84 290.11 259.99 290.32 261.14 290.49C262.3 290.67 263.45 290.79 264.62 290.88C265.78 290.97 266.95 291.01 268.11 291.01C290.03 291.01 308.56 275.97 314.34 255.47C317.41 253.27 320.83 251.61 324.47 250.59C328.1 249.56 331.89 249.18 335.65 249.46C339.42 249.74 343.11 250.67 346.55 252.22C350 253.77 353.14 255.91 355.85 258.54L366.19 247.77C363.88 245.53 361.35 243.53 358.64 241.81C355.93 240.09 353.05 238.64 350.05 237.5C347.04 236.36 343.93 235.54 340.76 235.03C337.59 234.52 334.37 234.34 331.16 234.49Z" />
			<path id="Layer" class="shp3" d="M166.53 268.15C163.77 266.95 161.13 265.47 158.65 263.74C156.18 262.01 153.89 260.04 151.81 257.85C149.73 255.67 147.88 253.28 146.27 250.72C144.67 248.16 143.33 245.45 142.27 242.63L128.33 247.98C129.16 250.16 130.12 252.29 131.19 254.36C132.27 256.44 133.46 258.44 134.77 260.38C136.07 262.31 137.49 264.17 139.01 265.94C140.53 267.71 142.15 269.39 143.86 270.97C143.64 272.56 143.29 274.12 142.84 275.66C142.39 277.19 141.82 278.69 141.16 280.15C140.49 281.6 139.71 283.01 138.84 284.35C137.97 285.69 137 286.97 135.94 288.17C129.15 295.79 119.11 299.58 107.66 298.86L106.71 313.76C107.97 313.84 109.22 313.88 110.46 313.88C125.05 313.88 137.96 308.35 147.09 298.11C148.24 296.82 149.31 295.47 150.31 294.06C151.31 292.65 152.22 291.19 153.06 289.69C153.9 288.18 154.65 286.63 155.32 285.04C155.99 283.45 156.57 281.82 157.06 280.17C158.21 280.76 159.39 281.33 160.59 281.85C163.38 283.07 166.25 284.07 169.2 284.84C172.14 285.6 175.14 286.14 178.16 286.44C181.19 286.74 184.23 286.8 187.27 286.62C190.31 286.44 193.32 286.03 196.29 285.38L193.14 270.79C190.92 271.27 188.67 271.58 186.41 271.71C184.15 271.84 181.88 271.8 179.63 271.57C177.37 271.35 175.14 270.95 172.94 270.38C170.75 269.8 168.61 269.06 166.53 268.15L166.53 268.15Z" />
			<path id="Layer" class="shp3" d="M308.03 321.4C298.95 339.09 278.02 348.44 258.27 343.62L254.73 358.13C255.91 358.42 257.09 358.67 258.29 358.89C259.48 359.1 260.67 359.28 261.88 359.43C263.08 359.58 264.29 359.68 265.49 359.76C266.7 359.83 267.91 359.87 269.13 359.87C274.49 359.89 279.82 359.18 284.99 357.75C290.15 356.32 295.1 354.18 299.68 351.4C304.27 348.62 308.44 345.22 312.1 341.31C315.76 337.39 318.86 332.98 321.31 328.22L322.87 325.19L309.58 318.37L308.03 321.4Z" />
		</g>
	</g>
</svg>