<svg xmlns="http://www.w3.org/2000/svg" viewBox="0 0 512 512" width="512" height="512">
	<style>
		tspan { white-space:pre }
		.shp0 { fill: #f59898;stroke: #c100ff;paint-order:stroke fill markers;stroke-width: 50 } 
		.shp1 { fill: #ed9191 } 
		.shp2 { fill: #e07777 } 
	</style>
	<g id="Flat">
		<path id="Layer" class="shp0" d="M488 292.88C488 267.36 471.72 245.74 449.23 238.29C450.34 236.19 451.32 234.03 452.17 231.81C453.02 229.6 453.73 227.33 454.3 225.03C454.87 222.72 455.3 220.39 455.58 218.03C455.87 215.67 456.01 213.3 456 210.93C456 179.24 430.93 153.56 400 153.56C399.33 153.56 398.66 153.57 397.99 153.6C397.32 153.62 396.65 153.66 395.98 153.71C395.32 153.76 394.65 153.82 393.98 153.9C393.32 153.97 392.65 154.06 391.99 154.16C391.99 153.96 392 153.76 392 153.56C392 151.51 391.9 149.47 391.69 147.44C391.48 145.4 391.16 143.38 390.73 141.38C390.31 139.38 389.78 137.4 389.15 135.45C388.52 133.51 387.78 131.6 386.95 129.73C378.12 109.95 358.63 96.2 336 96.2C332.71 96.2 329.43 96.5 326.2 97.08C322.97 97.67 319.79 98.55 316.71 99.7C313.64 100.85 310.67 102.28 307.85 103.96C305.02 105.65 302.36 107.58 299.88 109.74C294.73 102.98 288.1 97.5 280.49 93.73C272.87 89.96 264.49 88 256 88C247.51 88 239.13 89.96 231.51 93.73C223.9 97.5 217.27 102.98 212.12 109.74C209.64 107.58 206.98 105.65 204.15 103.96C201.33 102.28 198.36 100.85 195.29 99.7C192.21 98.55 189.03 97.67 185.8 97.08C182.57 96.5 179.29 96.2 176 96.2C145.07 96.2 120 121.88 120 153.56C120 153.76 120.01 153.96 120.01 154.16C119.35 154.06 118.68 153.97 118.02 153.9C117.35 153.82 116.68 153.76 116.02 153.71C115.35 153.66 114.68 153.62 114.01 153.6C113.34 153.57 112.67 153.56 112 153.56C81.07 153.56 56 179.24 56 210.93C55.99 213.3 56.13 215.67 56.42 218.03C56.7 220.39 57.13 222.72 57.7 225.03C58.27 227.33 58.98 229.6 59.83 231.81C60.68 234.03 61.66 236.19 62.77 238.29C40.28 245.74 24 267.36 24 292.88C24 322.63 46.11 347.09 74.41 349.96C74.19 350.69 73.99 351.42 73.81 352.16C73.51 353.34 73.25 354.53 73.02 355.73C72.79 356.93 72.6 358.13 72.45 359.34C72.3 360.55 72.19 361.76 72.11 362.98C72.04 364.19 72 365.41 72 366.63C72 398.32 97.07 424 128 424C132.25 423.99 136.48 423.49 140.62 422.51C144.75 421.54 148.76 420.09 152.56 418.19C156.36 416.3 159.94 413.98 163.21 411.27C166.48 408.56 169.43 405.48 172 402.1C176.83 408.49 182.99 413.75 190.05 417.52C197.12 421.29 204.92 423.47 212.92 423.92C220.91 424.36 228.91 423.06 236.35 420.1C243.79 417.13 250.5 412.59 256 406.77C261.5 412.59 268.21 417.13 275.65 420.1C283.09 423.06 291.09 424.36 299.08 423.92C307.08 423.47 314.88 421.29 321.95 417.52C329.01 413.75 335.17 408.49 340 402.1C342.57 405.48 345.52 408.56 348.79 411.27C352.06 413.98 355.64 416.3 359.44 418.19C363.24 420.09 367.25 421.54 371.38 422.51C375.52 423.49 379.75 423.99 384 424C414.93 424 440 398.32 440 366.63C440 365.22 439.95 363.81 439.85 362.41C439.75 361 439.6 359.6 439.4 358.21C439.19 356.81 438.94 355.43 438.64 354.05C438.34 352.68 437.99 351.31 437.59 349.96C465.89 347.09 488 322.63 488 292.88Z" />
		<path id="Layer" class="shp1" d="M437.59 349.96C437.99 351.31 438.34 352.68 438.64 354.05C438.94 355.43 439.19 356.81 439.4 358.21C439.6 359.6 439.75 361 439.85 362.41C439.95 363.81 440 365.22 440 366.63C440 398.32 414.93 424 384 424C379.75 423.99 375.52 423.49 371.38 422.51C367.25 421.54 363.24 420.09 359.44 418.19C355.64 416.3 352.06 413.98 348.79 411.27C345.52 408.56 342.57 405.48 340 402.1C335.17 408.49 329.01 413.75 321.95 417.52C314.88 421.29 307.08 423.47 299.08 423.92C291.09 424.36 283.09 423.06 275.65 420.1C268.21 417.13 261.5 412.59 256 406.77C250.5 412.59 243.79 417.13 236.35 420.1C228.91 423.06 220.91 424.36 212.92 423.92C204.92 423.47 197.12 421.29 190.05 417.52C182.99 413.75 176.83 408.49 172 402.1C169.43 405.48 166.48 408.56 163.21 411.27C159.94 413.98 156.36 416.3 152.56 418.19C148.76 420.09 144.75 421.54 140.62 422.51C136.48 423.49 132.25 423.99 128 424C97.07 424 72 398.32 72 366.63C72 365.41 72.04 364.19 72.11 362.98C72.19 361.76 72.3 360.55 72.45 359.34C72.6 358.13 72.79 356.93 73.02 355.73C73.25 354.53 73.51 353.34 73.81 352.16C199.73 328.93 320.02 264.96 386.95 129.73C387.78 131.6 388.52 133.51 389.15 135.45C389.78 137.4 390.31 139.38 390.73 141.38C391.16 143.38 391.48 145.4 391.69 147.44C391.9 149.47 392 151.51 392 153.56C392 153.76 391.99 153.96 391.99 154.16C392.65 154.06 393.32 153.97 393.98 153.9C394.65 153.82 395.32 153.76 395.98 153.71C396.65 153.66 397.32 153.62 397.99 153.6C398.66 153.57 399.33 153.56 400 153.56C430.93 153.56 456 179.24 456 210.93C456.01 213.3 455.87 215.67 455.58 218.03C455.3 220.39 454.87 222.72 454.3 225.03C453.73 227.33 453.02 229.6 452.17 231.81C451.32 234.03 450.34 236.19 449.23 238.29C471.72 245.74 488 267.36 488 292.88C488 322.63 465.89 347.09 437.59 349.96L437.59 349.96Z" />
		<g id="Layer">
			<path id="Layer" class="shp2" d="M171.14 320.01C168.1 323.07 165.36 326.41 162.97 330.01C160.58 333.6 158.55 337.42 156.91 341.41C155.27 345.4 154.03 349.54 153.21 353.78C152.38 358.01 151.98 362.32 152 366.63C152 376.92 156.34 390.01 160.8 399.06C161.3 400.09 162.02 401.01 162.91 401.74C163.8 402.48 164.83 403.01 165.94 403.31C167.05 403.61 168.22 403.66 169.35 403.47C170.49 403.28 171.57 402.85 172.52 402.21C173.32 401.66 174 400.98 174.55 400.19C175.11 399.41 175.51 398.53 175.75 397.6C175.99 396.67 176.06 395.7 175.96 394.74C175.86 393.79 175.59 392.86 175.16 392C171.78 385.14 168 374.45 168 366.63C167.98 363.37 168.29 360.1 168.91 356.9C169.53 353.69 170.47 350.55 171.71 347.52C172.95 344.5 174.48 341.6 176.29 338.88C178.1 336.16 180.17 333.62 182.48 331.3L171.14 320.01Z" />
			<path id="Layer" class="shp2" d="M300.23 110.17C299.48 109.31 298.55 108.61 297.51 108.13C296.47 107.66 295.34 107.41 294.19 107.41C293.05 107.4 291.92 107.65 290.87 108.12C289.83 108.6 288.9 109.29 288.15 110.15C285.56 113.13 283.25 116.34 281.24 119.73C279.23 123.13 277.52 126.7 276.15 130.39C274.77 134.09 273.73 137.91 273.03 141.79C272.34 145.68 271.99 149.61 272 153.56L288 153.56C287.99 150.58 288.25 147.6 288.77 144.67C289.29 141.73 290.08 138.85 291.11 136.05C292.15 133.26 293.43 130.56 294.94 127.99C296.46 125.42 298.2 123 300.15 120.74C300.78 120.02 301.29 119.19 301.63 118.29C301.98 117.39 302.16 116.43 302.16 115.47C302.17 114.51 302.01 113.55 301.68 112.65C301.35 111.74 300.86 110.9 300.23 110.17L300.23 110.17Z" />
			<path id="Layer" class="shp2" d="M439.88 348.87C439.74 347.95 439.44 347.06 438.98 346.24C438.53 345.43 437.93 344.7 437.22 344.1C436.5 343.49 435.69 343.02 434.81 342.71C433.93 342.39 433 342.23 432.07 342.24L432 342.24C428.89 342.24 425.78 341.93 422.73 341.32C419.68 340.71 416.7 339.79 413.83 338.59C410.96 337.39 408.21 335.91 405.64 334.16C403.06 332.42 400.66 330.43 398.48 328.21L387.14 339.5C390.06 342.46 393.27 345.13 396.72 347.46C400.17 349.79 403.85 351.77 407.69 353.38C411.53 354.98 415.52 356.2 419.6 357.02C423.68 357.84 427.84 358.25 432 358.24L432.39 358.24C433.5 358.23 434.59 357.98 435.59 357.51C436.59 357.04 437.48 356.36 438.19 355.52C438.91 354.68 439.44 353.69 439.74 352.63C440.05 351.57 440.12 350.45 439.95 349.36L439.88 348.87Z" />
			<path id="Layer" class="shp2" d="M392.09 154.76L392.08 154.71C391.92 153.57 391.5 152.48 390.88 151.52C390.25 150.56 389.43 149.74 388.46 149.13C387.48 148.51 386.39 148.12 385.26 147.96C384.12 147.81 382.96 147.9 381.86 148.24C379.24 149.03 376.68 150 374.19 151.12C371.69 152.25 369.28 153.53 366.95 154.97C364.62 156.4 362.38 157.98 360.25 159.7C358.13 161.42 356.11 163.27 354.22 165.25L365.78 176.31C367.19 174.83 368.7 173.45 370.28 172.16C371.87 170.88 373.54 169.7 375.27 168.62C377.01 167.55 378.81 166.59 380.67 165.75C382.53 164.9 384.44 164.18 386.39 163.58C387.31 163.31 388.17 162.88 388.94 162.31C389.71 161.74 390.36 161.03 390.88 160.23C391.4 159.43 391.77 158.54 391.98 157.61C392.18 156.67 392.22 155.71 392.09 154.76L392.09 154.76Z" />
			<path id="Layer" class="shp2" d="M158.86 166.41C156.97 164.3 154.95 162.31 152.83 160.43C150.71 158.55 148.49 156.79 146.17 155.16C143.85 153.54 141.44 152.04 138.96 150.68C136.47 149.33 133.91 148.11 131.28 147.04C130 146.53 128.62 146.34 127.24 146.47C125.87 146.6 124.54 147.05 123.38 147.79C122.21 148.52 121.24 149.53 120.53 150.71C119.83 151.9 119.41 153.23 119.32 154.61C119.26 155.6 119.37 156.59 119.65 157.54C119.92 158.5 120.35 159.39 120.92 160.2C121.49 161.01 122.2 161.72 123 162.29C123.81 162.87 124.71 163.31 125.66 163.58C127.6 164.18 129.5 164.89 131.35 165.73C133.2 166.56 134.99 167.52 136.72 168.58C138.44 169.65 140.1 170.82 141.68 172.1C143.25 173.38 144.74 174.76 146.14 176.23C143.88 178.46 141.79 180.87 139.88 183.41C137.97 185.95 136.25 188.63 134.73 191.43C133.21 194.22 131.9 197.12 130.8 200.11C129.7 203.1 128.82 206.16 128.17 209.27L143.83 212.58C144.34 210.14 145.03 207.75 145.9 205.41C146.77 203.08 147.81 200.82 149.02 198.64C150.23 196.47 151.6 194.38 153.13 192.42C154.65 190.45 156.32 188.6 158.13 186.88C160.43 184.67 162.94 182.69 165.64 180.99C168.34 179.28 171.21 177.86 174.2 176.74C177.19 175.62 180.28 174.8 183.44 174.31C186.59 173.81 189.78 173.64 192.97 173.8L193.74 157.82C190.71 157.66 187.67 157.73 184.64 158.02C181.62 158.31 178.62 158.82 175.67 159.55C172.72 160.28 169.83 161.22 167.02 162.36C164.2 163.51 161.48 164.86 158.86 166.41L158.86 166.41Z" />
			<path id="Layer" class="shp2" d="M336.01 232.12C334.62 232.18 333.24 232.29 331.86 232.47C330.48 232.64 329.12 232.87 327.76 233.16C326.4 233.44 325.06 233.78 323.73 234.18C322.4 234.58 321.08 235.03 319.79 235.53C319.48 231.44 318.68 227.39 317.42 223.48C316.15 219.57 314.44 215.82 312.3 212.31C310.16 208.8 307.61 205.56 304.72 202.65C301.82 199.73 298.59 197.17 295.09 195.01L286.69 208.63C289.35 210.28 291.79 212.26 293.94 214.53C296.1 216.8 297.95 219.34 299.46 222.08C300.97 224.82 302.12 227.75 302.89 230.78C303.66 233.81 304.03 236.94 304 240.07C304 260.26 288.05 276.68 268.44 276.68C267.59 276.68 266.73 276.65 265.88 276.59C265.03 276.53 264.18 276.43 263.33 276.31C262.49 276.18 261.65 276.03 260.81 275.84C259.98 275.65 259.15 275.43 258.33 275.18L253.67 290.49C254.86 290.85 256.07 291.17 257.29 291.45C258.51 291.72 259.74 291.95 260.97 292.13C262.21 292.32 263.45 292.45 264.7 292.55C265.95 292.64 267.19 292.68 268.44 292.68C291.93 292.68 311.79 276.57 317.98 254.6C321.27 252.24 324.94 250.47 328.83 249.37C332.73 248.27 336.79 247.86 340.82 248.16C344.86 248.46 348.81 249.46 352.5 251.12C356.19 252.78 359.56 255.07 362.46 257.89L373.54 246.35C371.07 243.95 368.36 241.81 365.46 239.96C362.55 238.12 359.46 236.57 356.25 235.35C353.03 234.13 349.69 233.24 346.29 232.7C342.89 232.15 339.45 231.96 336.01 232.12Z" />
			<path id="Layer" class="shp2" d="M159.59 268.19C156.63 266.9 153.8 265.32 151.15 263.47C148.5 261.61 146.04 259.5 143.81 257.15C141.59 254.81 139.6 252.25 137.88 249.51C136.17 246.77 134.73 243.86 133.59 240.84L118.66 246.58C119.54 248.91 120.57 251.2 121.72 253.42C122.87 255.64 124.15 257.79 125.55 259.86C126.95 261.93 128.47 263.92 130.1 265.82C131.73 267.71 133.46 269.52 135.3 271.21C135.06 272.91 134.69 274.59 134.2 276.23C133.72 277.88 133.11 279.49 132.4 281.05C131.68 282.6 130.85 284.11 129.92 285.55C128.98 286.98 127.95 288.35 126.81 289.64C119.54 297.81 108.77 301.87 96.5 301.1L95.49 317.07C96.84 317.15 98.18 317.19 99.5 317.19C115.14 317.19 128.97 311.27 138.76 300.29C139.99 298.91 141.14 297.46 142.21 295.95C143.27 294.45 144.26 292.88 145.16 291.27C146.05 289.65 146.86 287.99 147.58 286.28C148.29 284.58 148.91 282.84 149.44 281.07C150.68 281.7 151.94 282.31 153.22 282.87C156.21 284.18 159.29 285.25 162.45 286.07C165.6 286.89 168.81 287.46 172.05 287.79C175.3 288.11 178.56 288.17 181.81 287.98C185.07 287.79 188.3 287.35 191.48 286.66L188.1 271.02C185.73 271.54 183.32 271.87 180.89 272.01C178.47 272.15 176.04 272.1 173.62 271.86C171.21 271.62 168.81 271.19 166.46 270.57C164.11 269.96 161.82 269.16 159.59 268.19L159.59 268.19Z" />
			<path id="Layer" class="shp2" d="M311.22 325.25C301.49 344.21 279.06 354.22 257.89 349.06L254.11 364.61C255.37 364.92 256.64 365.19 257.91 365.42C259.19 365.65 260.47 365.85 261.76 366C263.05 366.16 264.34 366.28 265.64 366.35C266.93 366.43 268.23 366.47 269.53 366.47C275.27 366.5 280.99 365.74 286.53 364.2C292.06 362.67 297.36 360.38 302.27 357.4C307.18 354.42 311.66 350.78 315.58 346.58C319.5 342.38 322.82 337.66 325.45 332.56L327.12 329.31L312.88 322.01L311.22 325.25Z" />
		</g>
	</g>
</svg>