<svg xmlns="http://www.w3.org/2000/svg" viewBox="0 0 1527.9 2268.01"><defs><style>.cls-1{fill:#b4ada5;stroke:#b4ada5;}.cls-1,.cls-10,.cls-11,.cls-12,.cls-13,.cls-14,.cls-15,.cls-16,.cls-17,.cls-18,.cls-19,.cls-2,.cls-20,.cls-21,.cls-22,.cls-23,.cls-24,.cls-25,.cls-26,.cls-27,.cls-3,.cls-4,.cls-5,.cls-6,.cls-7,.cls-8,.cls-9{stroke-miterlimit:22.93;}.cls-1,.cls-10,.cls-11,.cls-12,.cls-13,.cls-14,.cls-15,.cls-16,.cls-17,.cls-18,.cls-19,.cls-2,.cls-20,.cls-21,.cls-22,.cls-23,.cls-24,.cls-25,.cls-27,.cls-3,.cls-4,.cls-5,.cls-6,.cls-7,.cls-8,.cls-9{stroke-width:0.57px;}.cls-1,.cls-10,.cls-11,.cls-12,.cls-13,.cls-14,.cls-15,.cls-16,.cls-17,.cls-18,.cls-19,.cls-20,.cls-21,.cls-22,.cls-23,.cls-24,.cls-25,.cls-26,.cls-27,.cls-3,.cls-4,.cls-7,.cls-8,.cls-9{fill-rule:evenodd;}.cls-2{fill:#de7171;stroke:#de7171;}.cls-3{fill:#b2aba3;stroke:#b2aba3;}.cls-4{fill:#8c8c8a;stroke:#8c8c8a;}.cls-5,.cls-8{fill:#4f473c;stroke:#4f473c;}.cls-6,.cls-7{fill:#877261;stroke:#877261;}.cls-9{fill:none;}.cls-10,.cls-25,.cls-9{stroke:#010101;}.cls-10{fill:#010101;}.cls-11{fill:#2a292a;stroke:#2a292a;}.cls-12{fill:#4c4c4a;stroke:#4c4c4a;}.cls-13{fill:#7f7f7d;stroke:#7f7f7d;}.cls-14{fill:#6d6e6d;stroke:#6d6e6d;}.cls-15{fill:#b2aca5;stroke:#b2aca5;}.cls-16{fill:#71726d;stroke:#71726d;}.cls-17{fill:#4e4e4c;stroke:#4e4e4c;}.cls-18{fill:#4b4a49;stroke:#4b4a49;}.cls-19{fill:#727270;stroke:#727270;}.cls-20{fill:#8a8a88;stroke:#8a8a88;}.cls-21{fill:#aea79f;stroke:#aea79f;}.cls-22{fill:#737172;stroke:#737172;}.cls-23{fill:#222423;stroke:#222423;}.cls-24,.cls-25{fill:#0a0b0d;}.cls-24{stroke:#0a0b0d;}.cls-26,.cls-27{fill:#fff;stroke:#fff;}.cls-26{stroke-width:0.48px;}</style></defs><g id="Layer_2" data-name="Layer 2"><g id="Ñëîé_1" data-name="Ñëîé 1"><path class="cls-1" d="M1135.66,2037.37c-27.85-35-72.14-95-69.28-137.85s52.86-68.58,87.55-73.56,54.08,10.77,71.23,41.24,32,75.68,39.72,105.66,8.16,44.75-6.12,62.13-43.33,37.38-63.57,42.38S1163.52,2072.37,1135.66,2037.37Z"/><circle class="cls-2" cx="353.57" cy="371.53" r="353.29"/><path class="cls-3" d="M264.94,1272.15c-41,5.62-91.46,33.23-94.66,61s40.81,55.87,34.47,75.55-63.07,31-101.59,26.51-58.84-24.82-63.28-21,7,31.75,30.47,49.53,59.05,25.39,87.62,24.12,50.16-11.43,70-10.79,37.87,12.06,23.9,22.86-59.95,21-79.77,30.47-13.47,18.41-.14,24.13,33.65,8.25,36.19,14-12.7,14.6-34.92,14.6-51.43-8.89-66.67-7.62-16.5,12.7-2.54,24.76,43.18,24.76,58.42,37.46,16.5,25.4,3.17,30.48-41.27,2.54-51.43,3.17-2.54,4.45,8.26,15.24,24.76,28.57,32.38,39.36,8.89,14.61-5.08,19-43.18,9.52-70.48,12.06-52.69,2.54-66,9.53S-1.39,1787.58,5,1806s20.32,41.27,38.09,50.8,39.37,5.71,59.16,2.91,37.77-4.61,47.77,1.11,12,18.94,1.75,30.63-32.8,21.85-47.88,28.2-22.7,8.89-11.06,17,42.54,21.9,42.54,30.79-30.9,12.91-43,22.51-5.25,24.76,11.05,29.31,42.09-1.52,81.48-22.42,92.39-56.64,148.21-133.36,114.46-194.42,137.06-288.4,9.16-164.24-13.67-206.27-55-55.8-87-70.87S306,1266.53,264.94,1272.15Z"/><path class="cls-4" d="M1297.85,333.71c12.65,13.23,35.11,31,29.51,43.09s-39.25,18.42-48.73,30.65,5.2,30.33,22.34,39.22,36.75,8.56,52.26,8.4,27-.17,33.61,5.86,8.57,18.1,20,28.57,32.38,19.37,47.62,26,24.76,11.11,29.52,16.19,4.77,10.79-6.66,14.92-34.29,6.66-41.59,11.74,1,12.7,10.16,19.05,19.36,11.43,19.36,19.68-10.15,19.68-21.18,24.9-22.91,4.22-21,8,17.6,12.43,30.84,17.06,24,5.26,32,8.43,13,8.89,13,15.88-5.08,15.23-14,18.73-21.59,2.22-29.53,1.58a86.68,86.68,0,0,0-18.09,0c-7,.64-17.78,1.91-12.38,8.26s27,17.78,41.9,26,23.18,13.33,21,19-14.92,12.06-32.06,9.84-38.73-13-49.21-14.29-9.84,7-4.44,16.51,15.56,20.32,28.25,24.76,27.94,2.54,37.15,3.49,12.38,4.77,21.27,12.38,23.49,19,32.06,30.16,11.11,21.91-4.76,23.49-50.16-6-67-5.39-16.19,9.52-12.69,14.28,9.84,5.4,15.55,13,10.79,22.22-1.59,33.65-42.22,19.68-50.15,35.87,6,40.32.41,50.69-30.83,7-33,15.24,18.54,28.14,18.45,39.36-21,13.76-55.64,2.41-82.8-36.59-106.29-76-22.26-92.85-6.72-141.18,45.38-91.51,58-127.88,8.1-66,2.07-87.86-13.55-36.13-35.77-80.93-59.15-120.17-63.59-167.47,23.59-66.54,45.91-72.87,38.94.22,48.66,7.83S1285.21,320.48,1297.85,333.71Z"/><path class="cls-1" d="M463.88,1025.78C533,931.33,667.63,834,796.09,787.43s250.72-42.23,341.59,44.73S1288,1088.75,1321.1,1275.34s39.79,390.11-29.16,519.29-213.57,184-336.81,203.74S730,2002.76,649.07,1985s-140.94-38.07-172.48-113.17-34.62-205-44.67-308.91-27.08-181.73-33.85-266.42S394.8,1120.23,463.88,1025.78Z"/><ellipse class="cls-5" cx="764.48" cy="2261.06" rx="14.29" ry="6.67"/><ellipse class="cls-6" cx="879.71" cy="2198.68" rx="12.38" ry="10"/><path class="cls-7" d="M1028.28,2239.16c11.54,0,21-2.57,21-5.72s-9.41-5.71-21-5.71-20.95,2.56-20.95,5.71S1016.74,2239.16,1028.28,2239.16Z"/><ellipse class="cls-5" cx="1285.42" cy="2225.82" rx="40" ry="15.24"/><ellipse class="cls-5" cx="585.91" cy="2226.77" rx="20.48" ry="9.52"/><path class="cls-8" d="M1390.18,2222c6.3,0,11.43-3.42,11.43-7.62s-5.13-7.62-11.43-7.62-11.43,3.43-11.43,7.62S1383.89,2222,1390.18,2222Z"/><ellipse class="cls-5" cx="1450.66" cy="2206.77" rx="12.86" ry="6.67"/><path class="cls-7" d="M326.39,2214.39c7.87,0,14.28-2.14,14.28-4.76s-6.41-4.76-14.28-4.76-14.29,2.14-14.29,4.76S318.52,2214.39,326.39,2214.39Z"/><ellipse class="cls-6" cx="373.05" cy="2235.35" rx="9.52" ry="4.76"/><ellipse class="cls-5" cx="89.25" cy="2196.3" rx="7.62" ry="10.48"/><path class="cls-9" d="M257.21,2059.48c-3.94-6.67-1.35-10.16,0-11.91s1.29-1.74-1.27-5.71-7.7-11.91-8.52-20.48,2.67-17.78,9.81-19.2,17.94,4.92,25.56,8.57,12.06,4.6,17.78,6.36,12.73,4.32,18,8.76,8.71,10.77,10.6,9.33,2.22-10.64.63-18.42-5.08-14.13-13-17.78-20.32-4.6-26.19-8.89-5.24-11.9-5.24-17.46-.64-9.05,1.27-11.9,6.35-5.08,7.93-10,.32-12.54,1.27-19.68,4.13-13.81,9.05-13.65,11.59,7.14,17.3,11.58,10.48,6.35,14.45,8.26,7.14,3.81,8.09,8.88-.32,13.34-.79,20.32-.16,12.7,2.85,17.78,8.73,9.52,10.8,15.4.47,13.17,6.19,18.25,18.73,7.94,26.82,6.83,11.27-6.2,7.62-13.18-14.12-15.87-20.31-21.11-8.1-6.83-4-8.73,14.28-4.13,20-6.83,7-5.87,6-9.68-4.13-8.25-10.32-12.7-15.4-8.88-20.47-13.81-6-10.31-3.81-14,7.62-5.56,10.31-8.57,2.7-7.15,3.34-12.07,1.9-10.63,5.39-14.28a15.29,15.29,0,0,1,14-4.13c4.76,1.11,8.57,4.92,10.95,8.09s3.34,5.72,5.24,7.78,4.76,3.65,7.14,9,4.29,14.6,2.7,19.52-6.66,5.56-5.87,7.78,7.46,6,11.27,11.27,4.76,11.91,9.84,14.13,14.29,0,15.24-7.78-6.35-21.11-6.67-28.89,6.35-10,13.81-11.11,15.72-1.11,20.64,1.11,6.5,6.67,9.84,9.21,8.41,3.17,12.06,6.35,5.87,8.89.16,15.08-19.37,12.85-23.65,23.81.79,26.19,6.19,39.2,11.11,23.81,3.33,31.75-29,13-58.89,20.47-68.25,17.3-94.6,21.59-40.63,3-53-2.54S261.15,2066.14,257.21,2059.48Z"/><path class="cls-10" d="M842.09,864.89c.64,32.38-.63,81.91-1.27,137.78s-.63,118.09-.63,182.22,0,130.15-.64,205.71-1.9,160.63-1.9,271.74,1.27,248.25,15.24,321.9,40.63,83.81,57.77,82.54,24.77-14,23.11-33.32-12.61-45.37-18.95-72.67-8.11-55.89-7.72-156.54,2.93-273.34.39-394.6S897.33,1218.54,891,1158.22s-11.43-111.11-12.7-156.82a945.66,945.66,0,0,1,4.45-118.73c3.17-32.38,7-56.51-.64-68.57s-26.66-12.06-34.92-4.44S841.46,832.51,842.09,864.89Z"/><path class="cls-10" d="M861.78,600.61c-5.72-.48-13.65-2.38-23-3.12s-20.08-.32-27.7-5.71S799,575.16,791.33,571.14s-18.44-.85-31.46,3.6-28.25,10.16-42.85,13a120.36,120.36,0,0,1-41.11,1c-12.54-1.91-23.65-5.72-31.43-6.35s-12.22,1.9-10.48,8.57,9.68,17.46,6.35,24.76-17.94,11.11-34.28,8.57S571.62,612.83,562.73,600s-8.57-29.69-13.33-40.8-14.6-16.5-17.62-27,.79-26,10.16-32.86,24.28-4.92,32.22-3.81,8.89,1.43,2.22-2.85-21-13.18-23.17-19.69,7.62-10.63,18.89-12.06,24-.16,31.9-.79,11.11-3.18,12.38-7.46.64-10.32,2.86-14.61,7.3-6.82,16.35-8.09,22.06-1.27,32.86,1.43,19.36,8.09,18.88,14-10,12.22-3,18.25,30.47,11.74,43.17,14.44,14.61,2.38,16.83,2.54,4.76.8-.32-3.81-17.78-14.44-24.44-20.15-7.31-7.31-6.19-9.37,4-4.6.79-9-12.38-10.79-16.35-17.77a18.51,18.51,0,0,1,1-19.85c3.65-5.23,9.68-8.09,17-9.36s15.87-.95,19.52-2.06,2.38-3.65-8.41-5.88-31.11-4.12-43.34-7.93-16.34-9.53-17.77-15.56-.16-12.38,4.6-15.24,13-2.22,11.9-4.44-11.58-7.3-18.25-14.45-9.52-16.34-15.4-16.82-14.76,7.78-26.5,10.95-26.35,1.27-30.8-4.28,1.27-14.77,8.42-21.75S615.43,282,616.86,274.9s-4.29-16.66,4.92-24.44,33.33-13.81,47.94-14.61,19.68,3.66,25.39,4.13,12.07-3,20.64.64,19.36,14.44,27.61,39.2,14,63.49,21,89.05,15.23,37.93,22.06,40.63,12.22-4.28,23-10.79,27-12.54,39.68-16.83a284.9,284.9,0,0,1,32.06-9c10.16-2.23,21.27-4.13,28.89,1.27s11.74,18.09,7.78,29.36-16,21.11-31,29.84-32.69,16.35-36.19,37.46,7.31,55.72,13.66,79.37,8.25,36.34,7.46,43.17S867.49,601.09,861.78,600.61Z"/><path class="cls-10" d="M644.21,236.87c-3.81-4.6-8.2-12.57-7.85-21.79s5.42-19.7,14.15-26.84a41.34,41.34,0,0,1,33.65-8.57c12.54,2.38,25.24,11,39.21,18.41s29.2,13.81,39.2,20.95,14.76,15.08,13.33,22.7-9,14.92-23.17,18.25-34.76,2.7-49.68-2-24.13-13.42-31.27-16.43-12.22-.32-16.38.41S648,241.47,644.21,236.87Z"/><path class="cls-10" d="M1063.1,389.36c-1.39-4.5-10.14-13.22-19.78-15.94s-20.2.57-24.21,4.12-1.46,7.36-10.83,8.31-30.63-1-45.75-.14S938.44,390,942.73,397s21.82,17.43,34.72,26.94S998.6,442,1003,454.9s5.08,30,7.46,34.6,6.51-3.33,6.83-11.9-3.18-17.78.32-25.87,14-15.08,28.25-17.78,32.38-1.11,42.06-3.81,11-9.68,3.65-16.35-23.17-13-28.13-16.33S1064.49,393.86,1063.1,389.36Z"/><path class="cls-10" d="M915.21,479.42c11.06,4.68,27.15,8.65,41.11,10.64s25.82,2,28.73-1.75-3.12-11.19-9.94-16.66-14.45-9-18.18-13.1-3.57-8.89-4.52-13.81-3-10-8.65-12.38-14.84-2.06-19.49-3.43-4.72-4.4-5-6.79-.78-4.11.61-6.48,4.66-5.37,3-8.3-8.36-5.79-17.56-5.16-21,4.76-26,12.22-3.49,18.26-.23,27.07,8.17,15.63,13.65,21.74A58.48,58.48,0,0,0,915.21,479.42Z"/><path class="cls-11" d="M379.08,938.39c-3-11.59-5.24-21.11-5.87-32.54s.32-24.76,5.24-35.72,13.81-19.52,18.36-28.14,4.76-17.31,1.27-22.39S387.39,813,385.18,805s.56-22.65,2.94-37.89,4.37-31.11,21.4-40.79,49.09-13.17,60.51-22.53,2.23-24.61-16-36.35-45.55-20-80.63-26.83-77.94-12.22-99.68-7.14-22.38,20.63-28.1,36.19-16.5,31.11-14.28,47,17.46,32.07,28.7,48.49,18.49,33.1,29.13,45.48,24.65,20.48,34.84,34.68,16.53,34.53,18.46,50.41-.58,27.32-.74,42.88,2,35.22,10.18,45.43,22.29,11,29.6,8.29,7.77-8.86,6.1-18.77S382.1,950,379.08,938.39Z"/><path class="cls-12" d="M675.26,895.27c-9.14,2.51-27.82,19.64-44.78,35.82s-32.19,31.42-51.23,33.75-41.87-8.24-46.5-18.94,8.94-21.52,18.58-27.64,15.36-7.52,26-6.66,26.27,4,40.74,4,27.8-3.2,25.26-5.11-21-2.54-28.88-5.71-5.4-8.89-4.13-14.29,1.27-10.47-6.67-16.51-23.81-13-20.55-23.69,25.66-25.06,40.58-34.9,22.37-15.15,26.68-28,5.5-33.26,6.09-43.47.6-10.2,11.67-11,33.21-2.45,38.07,17.64-7.56,61.9-14.21,93.27-7.55,52.3-7.79,56.7S684.39,892.76,675.26,895.27Z"/><path class="cls-13" d="M322.77,1895.12c-9.39-4.37-26,5.79-43.8,6.11s-36.87-9.21-58.14-10.16-44.76,6.67-56.82,1.9-12.7-21.9-6-39.68,20.64-36.19,41.59-41.58,48.89,2.22,64.44-2.54,18.73-21.91,16.83-34.61-8.89-21-8.25-31.74,8.88-24.13,20.62-36.22,27-22.93,41.88-31.5,29.54-14.87,42.56-22.78,24.46-17.44,37.16-22.52,26.66-5.71,38.73-4.76a127.73,127.73,0,0,1,30.79,6.35c8.57,2.86,15.55,6,23.81,7.3s17.78.64,2.85-19-54.28-58.42-72.09-82.8-14.06-34.44-17.91-47.57-15.3-29.34-11.77-29.07,22,17,32.85,18.69,14-11.63,18.77-18.62,11.11-7.62,15.87-1.9,7.94,17.78,11.75,34,8.25,36.5,17.77,59,24.13,47.3,39.68,48.57,32.07-21,43.81-30.79,18.73-7.3,24.34,64.47,9.85,212.77,4.34,282.07-20.74,66.91-49.52,70.37-71.11,12.8-118.09,19-98.62,9.11-118.43-2.71-7.81-38.45-2.9-61.2S332.17,1899.48,322.77,1895.12Z"/><path class="cls-14" d="M562.41,1668.85c-5.08-26.67-8.89-81.27-13.65-117.14s-10.47-53-16.51-69.21-12.38-31.42-27.46-31.87-38.91,13.92-56.3,18-28.33-2.17-33.25-14.11-3.79-29.59,4.71-38.41,24.37-8.82,31.67-12.95,6-12.38-5.31-15.23-32.74-.29-46.71-.6-20.5-3.51-25-30.83-7.07-78.73-6.44-114.69,4.44-56.43,14.6-60.88,26.67,7.15,40.64,19.3,25.39,24.84,29.2,36.58,0,22.54,1,27.62,6.66,4.45,10.15.32,4.77-11.75,11.11-14,17.78,1,26,7,13.33,14.92,13,25.71-6,23.49-1.9,33.65,18.09,17.78,18.73,24.13-12.07,11.43-12.07,25.08,12.7,35.87,23.5,52.06,19.68,26.35,22.53,15.55-.31-42.54-.31-78.09,3.17-74.92,4.44-99.36.64-34-12.38-39.69-38.41-7.61-49.61-17-8.21-26.17,3.22-32.84,31.29-3.19,41.86-4.3,11.83-6.84,13.47-15.09,3.66-19,4.67-24.44,1-5.4,9.34-7.87,25-7.43,38.11-12.72,22.7-10.92,32.79-14.8,20.72-6,20.88-2.63-10.14,12.29-20.06,26.58-19.43,34-23.56,49.53-2.86,27,6.51,35.45,26.82,14,21.74,26-32.69,30.69-46.5,48.57-13.81,35-6.19,35.66,22.85-15.24,36.66-33.12,26.19-37.78,32.38-47.72,6.19-9.95,1.91,6-12.86,47.93-17.14,71.53-4.29,38.84-12.86,49.63-25.72,17.14-33.33,33.65-5.72,43.17-3.91,82.2,3.52,90.4,3.2,126-2.66,55.28-8,69-13.56,21.29-20.86,25.73S567.49,1695.52,562.41,1668.85Z"/><path class="cls-15" d="M313.16,1000.13c.69,13,15.16,24.91,25.57,45.68s16.76,50.46,15.86,82.66-9,66.92-19.65,79.35-23.7,2.57-34-9.49S283,1172,279.83,1158.87s-2-25.14-16.88-27.68-46,4.39-63.42,12-21.24,15.77-29.49,12.6-20.95-17.73-35.87-32.62S102.1,1093,93.85,1071.4s-7.62-49.52,0-73,22.22-42.54,40.63-54.29,40.64-16.19,64.76-18.41,50.16-2.22,69.13,2.77,30.87,15,41.4,20.84,19.69,7.58,17.73,15.56S312.46,987.08,313.16,1000.13Z"/><path class="cls-14" d="M281.3,1225.43c-7.43-4.92-15.81-5-14.95-.07s11,14.92,8,24.81-19,19.68-22.93,31.25,4.35,24.9,10.38,36.33,9.84,21,17.14,21.58,18.1-7.62,28.05-11,19-2,20.63,4.68-4.34,18.57-20,21-41.06-4.52-51.85-2.3-7,13.65-9.52,21.91-11.43,13.33-7.62,16.51,20.31,4.44,23.17,8.25-7.93,10.16-6.66,18.73,14.6,19.36,26.34,21.9,21.91-3.17,15.88,2.86-28.26,23.81-27.94,38.73,23.18,27,38.12,29.52,22-4.46,31.49-24.78,21.54-54,29.77-91.12,12.68-77.84,11.94-103.83-6.67-37.3-14.63-43.34-18-6.82-29.06-5.48-23.24,4.81-32.55,1.67S288.72,1230.35,281.3,1225.43Z"/><path class="cls-16" d="M976.56,1911.09c-8.67-64.91-4.43-190.08,2.14-276.79s15.45-135,16.09-174.33-7-69.84-9.53-103.49,0-70.48,4.45-113,10.79-90.79,15.87-128.89,8.89-66-12.48-93.1-67.92-53.29-90.51-76.28-21.23-42.75-9.38-45.52,34.17,11.47,42.16,11.6,1.64-13.84,6.08-24,19.69-16.51,32.38-5.08,22.86,40.63,28.57,37.46,7-38.73,19.69-52.07,36.82-4.44,43.17,26-5.08,82.53-16.51,136.5-22.85,109.84-29.84,163.81a1099.13,1099.13,0,0,0-8.89,154.92c.64,48.88,4.45,94.6,5.08,142.22s-1.9,97.14.64,151.1,10.16,112.38,14.6,165.08,5.72,99.68,4.87,128.4-3.82,39.17-16.1,42.08S985.24,1976,976.56,1911.09Z"/><path class="cls-17" d="M1065.9,1951.7c1.27-62.53,12.06-180.63,17.14-284.12s4.44-192.38,4.13-260-.32-114,.31-175.87,1.91-139.37,7-178.73,14-40.64,20.31-37.78,10.16,9.84,10.8,34.6-1.91,67.3,3.81,83.18,19.68,5.08,33.65-12.7,27.93-42.54,40.31-52.7,23.18-5.71,20,8.25-20.31,37.46-37.77,57.46-35.24,36.51-44.45,55.56-9.84,40.63-10.16,120-.31,216.5-1.58,330.79-3.81,205.71-7.94,269.2-9.84,99-16.82,114.28-15.24,10.16-23.5,4.13S1064.63,2014.24,1065.9,1951.7Z"/><path class="cls-18" d="M1229.65,1074.47c13,1.37,32.22,1.37,33.91-7.51s-14.18-26.67-3.7-34.61,47.3-6,67.62-15.55,24.13-30.48,3.81-41.27-64.76-11.43-93.65-21.91-42.22-30.79-50.48-25.39-11.42,36.51-28.25,45.39-47.3-4.44-70.48-9.84-39-2.85-31.63,12.81,38.09,44.44,66.4,61.8,54.23,23.28,67.19,26.24,13,3,16.3,4.34S1216.69,1073.09,1229.65,1074.47Z"/><path class="cls-18" d="M1246.53,955.58c21.48-13.91,51.85-25.87,52.11-38.52s-29.57-26-21-29.78,55.55,1.9,84.12.63,38.73-9.52,35.88-20.95-18.73-26-41-33-50.79-6.35-68.25-6.66-23.81-1.59-14.6,0,34,6,51.74,4.76,28.57-8.25,31.75-17.14-1.27-19.69-8.25-29.84-16.51-19.69-18.1-26.35,4.76-10.48-2.86-15.88-29.2-12.38-55.23-13.65-56.51,3.18-72.7,7-18.1,7-31.11,13.33-37.14,15.87-51.43,25.4-18.73,19-28.31,34.39-24.28,36.5-24,54.91,15.66,34.08,24,47.62,9.58,25,20,34.93,30,18.41,46.62,27.24,30.26,18,43.38,14.71S1225,969.49,1246.53,955.58Z"/><path class="cls-18" d="M1084.94,870.66c-18.41,2.44-40.63-.31-57.77-6S998,850.24,994.79,836.7s2.53-32,11.05-44.34,19.85-18.73,29.53-20.77,17.73.24,33,5.63,37.82,13.92,49.73,27.07,13.17,30.92,6.5,43.62S1103.36,868.23,1084.94,870.66Z"/><path class="cls-18" d="M984.9,811.19c-14.44,4.71-40,7.06-58.94,18.59S894.9,862,886.14,864s-14.08-14.62-12.32-32.64A77.22,77.22,0,0,1,901,780.15c16.56-13.79,40.8-22,61.86-24.7s39,0,51.79,7,20.6,18.28,18.29,24-14.71,5.79-22.53,9.37S999.33,806.48,984.9,811.19Z"/><path class="cls-18" d="M1176.8,766.65c-21.36,8.06-35,33.26-58.45,35.48s-56.73-18.57-58.86-49.79,26.9-72.91,51.38-97.69,44.42-32.66,67.91-31.71,50.54,10.74,68.51,26.11a75.65,75.65,0,0,1,26.86,58.55c0,22.22-8.89,45.71-27.89,52.91S1198.17,758.6,1176.8,766.65Z"/><path class="cls-18" d="M1248.5,730.29c-23.81-21-67-50.08-86.9-86.52s-16.44-80.2-12.89-109.75,7.24-44.88,13.28-55.71,14.44-17.15,35.33-20.3,54.25-3.13,76.65-3.12,33.83,0,46.52,11.12,26.67,33.34,34,46,7.94,15.88,14.29,28.89,18.41,35.88,28.89,57.14S1417,639,1408.43,654s-34.6,25.08-41.9,39.36,4.12,32.7-7,47.3-44.76,25.4-63.79,24.4S1272.31,751.24,1248.5,730.29Z"/><path class="cls-19" d="M1129.13,320.5c-6-8.67-12.71-20-5.27-32s29-24.71,30.17-35.29-18.15-19.06-39.42-29.53-44.51-23-40.27-38.09,36-32.91,71.24-39.25,74-1.27,87.93,14.28,3.18,41.59-6.67,60.64-18.72,31.11-6.66,42.53,45.08,22.23,59.36,39.37,9.84,40.63-6,48.57-43.17.32-50.16,7.62,6.35,29.52,11.75,53.65,2.86,50.16,1,64.44-3.17,16.83-20.45,10.4-50.55-21.83-68.67-36.75-21.08-29.37-18.1-38.34,11.9-12.47,15.69-23.48,2.43-29.55-.87-41.82S1135.11,329.17,1129.13,320.5Z"/><path class="cls-20" d="M1232.77,1958.68c-5.71-113.64-14.86-327.77-15.63-445s6.85-137.53,17-157.53,22.85-39.68,23.49-54.92-10.8-26-25.08-12.7-31.43,50.79-39.68,50.16-7.62-39.37-6.15-81.37,3.77-87.27,0-110.66-13.73-24.88-22.34-14.2-15.92,33.53-21.2,57.57-8.56,49.25-5.55,146.61,12.32,266.84,19.83,400.15,13.23,230.46,27.19,284.74,36.19,65.72,46.17,64.84S1238.49,2072.33,1232.77,1958.68Z"/><path class="cls-21" d="M1249.28,2054.87c25.4,26.35,63.86,48.42,83.66,54s20.92-5.33,32.35-13.27,33.16-12.9,40.53-19.51.39-14.86,4.51-29.47,19.37-35.55,17.78-48.57-20-18.09-33.65-11.74-22.54,24.12-34.28,29.84-26.35-.64-23.81-12.38,22.22-28.89,47.3-35.88,55.55-3.8,72.7-7.61,21-14.61,14-23.81-24.76-16.83-33.33-28.26-7.94-26.66-17.14-33.33-28.26-4.76-40.64-4.76-18.09-1.91-18.41-9.53,4.76-20.95,8.89-31.74,7.3-19-10.48-13.65-56.5,24.44-78.73,23.17-27.93-22.85-24.76-36.19,15.24-18.41,28.89-15.24,28.89,14.61,57.78,18.1,71.43-1,96.5-9.21,32.7-20.31,23.81-33.33-34.28-27-41.27-35.87,4.45-12.7,11.43-16.51,9.53-7.62-5.71-13.33-48.25-13.34-65.71-22.54-19.37-20-8.89-22.86,33.33,2.22,46.35,4.13,16.19.63,14.28-7.94-8.89-24.44-10.16-36.51,3.18-20.31-1-31.74-16.82-26-37.14-19-48.26,35.56-54,59.68,10.79,43.81,7.62,46-26-13-34.29-30.47-1.9-37.14,5.72-49.52,16.51-17.46,22.22-26.35,8.25-21.59,1.9-30.16-21.58-13-25.07-25.4,4.76-32.7,6-52.38-4.45-38.73-14.92-46-25.72-2.86-36.07-3.47-15.81-6.28-25.65.7-24.06,26.62-28,122.79,2.42,268.86,11.76,370.53S1223.89,2028.53,1249.28,2054.87Z"/><path class="cls-1" d="M1242.33,1394.29c19.36,4.76,50,4.11,75.84,6s46.77,6.34,55,1.58,3.81-18.73,8.89-29.52,19.68-18.41,28.25-31.75,11.11-32.38,5.72-47-18.73-24.76-22.56-37.82,1.85-29-5.87-45-28.86-31.81-50.74-33.35-44.53,11.26-55.43,32.4-10,50.59-20.5,78.53-32.29,54.34-39.17,72.64S1223,1389.53,1242.33,1394.29Z"/><path class="cls-20" d="M1260.93,1302c6.44-8.63,16.18-16.46,24.22-22.6s14.39-10.58,27.41-12.49,32.7-1.27,34.92-8.57-13-22.54-22.22-32.06-12.38-13.33,1-14.92,43.17-1,61.27-.64,24.44.32,23.81-5.71S1403,1187,1388.11,1180s-37.14-8.89-50.47-16.82-17.78-21.91-11.43-28.89,23.49-7,30.47-10.8,3.81-11.43,24.77-13.33,66,1.9,86-9.21,14.92-37.14-18.24-52.33-94.38-19.55-128.35-25.9-40.67-14.69-63.07-2.35-60.5,45.35-82.23,77.08-27.08,62.17-25.81,105.35,9.17,99.07,26.67,122.33,44.6,13.85,59.74,4.43S1254.48,1310.68,1260.93,1302Z"/><path class="cls-18" d="M924.85,617.87c-9.26-17.49-12.84-40.54-6.16-57.2s23.61-26.93,51.49-22.51,66.72,23.51,80.24,46.66,1.72,50.34-16.9,63.41-44.07,12-64.27,5.52S934.12,635.35,924.85,617.87Z"/><path class="cls-10" d="M1021.29,724.52C1004.77,742,988.23,777,963.52,787.43s-57.6-3.53-76.15-35.3-22.78-81.3-20.45-109.25,11.23-34.3,32.46-29.33,54.78,21.28,77,21.5,33-15.64,20-34.93-50-42-71.07-63.68-26.19-42.33-16.41-58.23,34.45-27.06,64.58-35,65.71-12.79,94.15-7.46,49.75,20.81,70.06,44.55,39.62,55.74,49,89.51,8.71,69.34,1.7,94.07-20.4,38.65-41,44-48.52,2.27-70.72.71S1037.82,707,1021.29,724.52Z"/><path class="cls-22" d="M1072.3,479.88c-54.49-4.1-153.82-18.35-208.65-40.49s-65.15-52.21-51.49-81.79,51.27-58.68,77.38-77.68,40.72-27.88,53.1-32.33,22.54-4.44,57.24,4.9,93.93,28,130.12,44.2,49.33,29.89,48.17,58.69S1161.52,428,1149,453,1126.78,484,1072.3,479.88Z"/><path class="cls-10" d="M1067.31,410.54c-6.45-7-20.42-14.63-25.66-26.22s-1.75-27.14,8.41-34.28,27-5.88,37.78-7,15.56-4.6,21.59-5.4,13.33,1.12,22.7,9.85,20.79,24.28,29.52,37.61a280.68,280.68,0,0,1,17.78,30.8c3,6.35,3,7.93-5.4,7.93a105.46,105.46,0,0,1-43.17-10c-17.94-8.41-37-23.65-47-22s-11.11,20.08-11.11,26.11S1073.77,417.55,1067.31,410.54Z"/><path class="cls-10" d="M887.22,824c1-6,3.18-15,14.26-26.55s31.09-25.89,47.12-36.52S976.69,743.31,985,742s12.7,3.17,17.93,6.82,11.27,6.51,16.83,9.37,10.63,5.71,17.3,9,14.92,7.14,24.13,6.82,19.36-4.76,24.44-9.68,5.08-10.32,5.08-15.24,0-9.36,7-12.7,20.95-5.55,29.68-9.05,12.22-8.25,8.89-13.65-13.5-11.42-18.89-17.3-6-11.58-5.72-17.3,1.59-11.43-6.19-15.55-24.6-6.67-31.9-1.59-5.08,17.78-12.54,22.22-24.6.64-29-4.6,3.81-11.91,8.41-17.3,5.56-9.53.16-11.59-17.14-2.06-28.57-3.65-22.54-4.76-31.43-3.49-15.55,7-16.5,15.55,3.81,20,1.58,25.56-11.42,5.23-17.3,4.44-8.41-2.06-10,.79-2.22,9.85.64,15.72,9.2,10.63,10.31,16.66-3,13.34-11.9,22.7-22.54,20.8-32.06,26.67-14.92,6.19-15.24-9.37,4.44-47,12.38-67.77,19.05-31,25.4-38.73,7.93-13.18,2.54-11.59-17.78,10.16-25.72,16-11.43,9.05-11.9,5.56,2.06-13.65,4.44-21,4.61-11.75,10.16-20.32,14.44-21.27,23.33-31.11,17.78-16.83,26.19-19.05,16.35.32,23,6.35,12.06,15.56,22.06,20.16,24.61,4.28,30.8-.16,4-13,7.14-17.3,11.74-4.29,17.14-5.56,7.62-3.81,12.06-7.46,11.12-8.41,18.73-10.79,16.19-2.38,12.38,1.43-20,11.43-24.44,19.68,2.86,17.14,13.49,19.21,24.61-2.7,31.75-7.78,7.46-10.48,13.65-14,18.25-5.08,21.43-10.32-2.54-14.12-10-19.68-16.67-7.78-20.8-15.08-3.17-19.68-9.52-26.66-20-8.58-25.71-12.86-3.5-11.27-2.07-14.29,2.07-2.06,7.46-1.11,15.56,1.91,20.8-1.27,5.55-10.47.63-15.71-15.08-8.41-12.86-10.64,16.83-3.49,27.78,0,18.26,11.75,23,17.46,7,8.89,11,9.84,9.68-.31,14.44-7.14,8.57-19.2-2.38-30.95-36.66-22.86-54.92-32.54-29-17.94-36.19-18.25-10.63,7.3-17.3,17-16.51,21.43-26.82,33.17-21.11,23.5-36.35,31.75S971.3,484,958.44,492s-18.89,19.52-28.09,32.22-21.59,26.67-29.84,40.64-12.39,27.93-16.19,46-7.31,40.32-11.27,84-8.42,108.72-6.33,137.83,10.72,22.23,15.11,16.84,4.55-9.32,4.55-12.86A63.66,63.66,0,0,1,887.22,824Z"/><path class="cls-10" d="M870.35,370.81c4.08-6.16,7.43-17,14.19-22.24s16.92-4.94,27.23-.65,20.8,12.54,34.45,16.35,30.47,3.17,46.26-1.39,30.55-13,31.66-18.59-11.42-8.19-25.31-12-29.12-8.94-35.47-18.3-3.81-23,5.4-28.73,25.08-3.49,32.38,1.27,6,12.06,12.38,19,20.32,13.57,31.9,9.6,20.8-18.51,17.15-30.23-20.16-20.61-27.94-31.25-6.83-23,.79-24.6,21.91,7.62,37.15,15.71,31.42,15.08,41.11,17.15,12.85-.8,17-2.7,9.21-2.86,7.14-7.14-11.27-11.91-16.66-18.73-7-12.86-3.34-15.88,12.54-3,14.76-6.66-2.22-11-10.31-16.67-19.84-9.84-23.65-14.6.31-10.16,1.11-14.13-1.75-6.51-4.61-10.63-6-9.85-4-14.61,9.36-8.57,9.2-14.28-7.78-13.34-20.63-17.15-31-3.8-35.24-8.25,5.24-13.33-.63-22.7S1016.69,58.56,1001.3,59,976.38,70.3,966.85,74.27s-19,1.11-23.65,3.81-4.28,11-10.32,13.33-18.41-1.11-26.19-4.12-11-5.56-6.34-7,17-1.74,25.55-4.92,13.33-9.2,11.11-13.81-11.43-7.77-11.74-14.92,8.25-18.25,1.27-28.41S897-1.12,884.63.46s-14.6,14-17,21.43-4.92,10-10.32,11.11-13.65.8-19.05-1.74-7.93-7.31-16.35-4.77-22.69,12.38-33.65,20-18.57,13-26.82,19.21-17.14,13.17-17.3,21.9,8.41,19.21,14.12,25.08,8.58,7.15,3.66,9.21-17.62,4.92-24.45,4.13-7.78-5.24-10.16-12.07-6.19-16-14.44-18.57-20.95,1.59-26.35,9.37-3.49,19.2,5.24,27.93,24.28,14.76,33.17,20,11.11,9.68,7.94,13.34-11.75,6.5-9.37,11.42,15.72,11.91,27.78,14.45,22.86.63,28.57-3.18,6.35-9.52,13.49-11.9,20.8-1.43,28.1,1.75,8.25,8.57.95,12.69-22.86,7-34.21,11.41S769.71,213.05,768,224.32s1.9,27.83,12.3,40.87,27.54,22.57,40.08,32.25,20.47,19.53,25.08,29.05,5.87,18.73,5.92,27.91-1.11,18.33-.42,22.59,3.22,3.61,6.89,2.54S866.28,377,870.35,370.81Z"/><path class="cls-10" d="M876.74,581c10.32,2.07,25.45-3.67,30.64-12.09s.43-19.53-6.72-27.46-16.66-12.7-18.73-17.62,3.34-10,9.69-14.45,13.65-8.25,18.09-13.81,6-12.85,3-13.33-10.64,5.87-16.19,10.63-9,7.94-6.35,4.77,11.59-12.7,20-17.46,16.35-4.77,25.08-4,18.25,2.38,23.33,2.22,5.71-2.06,4.6-7.62-4-14.76-9.2-20.32-12.86-7.46-19.53-11.74-12.38-10.95-15-17.22-2.14-12.15.72-16.11,8.09-6,9.28-11.83-1.66-15.32-4.68-22.3-6.19-11.43-12.72-10.9-16.41,6-23.5,9.26-11.38,4.2-17.5,5.86a242,242,0,0,0-28.47,9.83c-14.42,5.79-35.32,15-45.85,24.23S786.06,428,790,436.62s11.83,16.53,18.65,23.52,12.54,13,16.51,21.11,6.19,18.25,7.62,26.51,2.06,14.6,5.71,22.85S848.76,549,854.84,559,866.42,578.9,876.74,581Z"/><path class="cls-11" d="M388.34,1995.56c2.23-39,2.28-107.24,4.21-153.72s5.74-71.24,7.33-103.63.95-72.38-1.27-154-6-204.76-10.8-281-10.47-105.39-11.74-123.17,1.9-24.13,8.25-27.62,15.87-4.13,15.56-8.25-10.48-11.75-14-20.32-.32-18.1,5.4-31.11,14-29.53,26.66-40,29.84-14.92,47.94-17.14,37.14-2.23,42.54-5.08-2.86-8.57-1.59-14,12.06-10.48,10.47-15.56-15.55-10.16-19.68-16.82,1.59-14.92,10.16-18.41,20-2.23,19.37-6.67-13.34-14.6-27.94-23.49-31.11-16.51-44.76-14.92-24.45,12.38-27,25.71,3.18,29.21-1.26,38.1-19.05,10.79-29.53,11.11-16.82-1-14.28,4.12,14,16.51,15.87,28.89-5.72,25.72-16.51,38.73-24.76,25.72-33.65,65.71-12.7,107.3-13,194.6,2.85,194.6,1.27,298.15-7.94,203.33-6.09,278.6,11.89,126,21.1,146.93,17.57,11.94,24,2.51S386.12,2034.61,388.34,1995.56Z"/><path class="cls-14" d="M600.94,1575.8c11.93,37.15,15.68,118,19.29,203.07s7.08,174.4-6.42,219.06-44,44.66-58,29.43-11.55-45.68-7.74-95.84,9-120,10.8-172.71.34-88.23-1.9-119.88-5.23-59.44,3.34-76.6S589,1538.64,600.94,1575.8Z"/><path class="cls-23" d="M329.72,1226c-7.57-6.79-22.83-17.74-31.57-25.44s-11-12.14-7-13.41,14.12.64,18.25-.95,2.22-6.67-.47-11.9-6.2-10.64-4.77-14.77,7.78-7,11.59-10.63,5.08-8.1-1.59-13.18-21.27-10.79-35.08-14-26.82-3.81-38.25-7.62-21.27-10.8-29.52-11.59-14.92,4.6-18.1,9.21-2.85,8.41-7.77,10.79-15.08,3.33-21.27,8.73-8.42,15.24-3.34,22.22,17.46,11.11,13.65,13.65-23.81,3.49-38.57,4.29-24.28,1.43-26,7,4.29,16,2.86,24.76-10.32,15.72-8.57,20.64,14.12,7.78,24.92,7.62,20-3.34,32.54-3.65,28.41,2.22,39.52,3.65,17.46,1.74,19.52-1.59-.16-10.32-1.11-16-.63-10.16,6-13.33,19.69-5.08,29.69-4.45,17,3.81,15.07,7.3-12.69,7.3-23.33,9-21.11,1.43-25.39,3.17-2.39,5.56,10.31,5.88,36.19-2.86,50.32-.8,18.89,9.37,17,14.13-10.47,7-12.85,10.16,1.42,7.3,6.66,7.3,11.91-4.13,16.67-6.19,7.62-2.06,11.74,0,9.49,6.2,13.3,8,6.05,1.1,6.17-2-1.88-8.51-2.82-12.56S337.29,1232.76,329.72,1226Z"/><path class="cls-24" d="M75,2127.56c28.57-23.58,95.24-69.35,184.45-107.72s200.94-69.35,298.09-88,179.68-25,273.32-15.85,198.41,33.8,265.08,56.68,95.24,44,141.27,62,109.52,32.74,152.06,47.87,64.12,30.63,71.43,42.6.31,20.42-26.35,26.05-73,8.45-116.19,11.26-83.17,5.64-196.82,5.64-300.95-2.82-480.31-4.93-350.79-3.52-445.39-4.93-112.38-2.82-126-4.23S46.39,2151.15,75,2127.56Z"/><path class="cls-7" d="M992.26,2198.59c-8.57-5.64-13.63-12.79-11.57-21.21s11.26-18.08,16.49-25.45,6.5-12.46,12.05-20.87a114.27,114.27,0,0,1,29-29.68c13.65-9.52,31.11-16.83,46.35-15.71s28.25,10.63,40.48,16.5,23.65,8.1,34.6,12.54a80.69,80.69,0,0,1,47.93,51.27c3.34,10.64,3.66,20.48-.47,26.67s-12.7,8.73-22.7,10.79-21.43,3.65-38.41,4.6-39.53,1.27-60.64,1.91-40.79,1.59-56.66,0S1000.82,2204.24,992.26,2198.59Z"/><path class="cls-8" d="M247.66,2180.27c-7.78-2.54-15.71-7.3-14.45-16.43s11.75-22.62,22-31,20.24-11.75,31.66-10.8,24.29,6.19,32.15,13.66,10.71,17.14,12.62,25.23,2.85,14.61-2.94,18.57-18.33,5.4-29.13,5.64-19.84-.72-28.17-1.35S255.44,2182.81,247.66,2180.27Z"/><path class="cls-25" d="M304.66,1915.78c-21.75-12.56-50.15-8.67-63.72-1s-12.3,19.09-25,24.17-39.37,3.81-52.38,10.48-12.38,21.27-5.72,28.57,19.37,7.3,10.8,10.79-38.41,10.48-59.37,14.6-33,5.4-30.15,14,20.63,24.45,40.95,34.6,43.17,14.61,75.55,10.48,74.29-16.82,102.7-30.93,43.35-29.61,43.27-51.87S326.41,1928.35,304.66,1915.78Z"/><path class="cls-25" d="M565.91,1946.63c-7.62-7.83-16.5-19.68-17.14-29.83s7-18.62,14.6-20.1,15.23,4,19,3.17,3.81-8,.21-13.75-10.79-9.94-13.54-12.9-1.05-4.66,3-3.18,10.36,6.14,15.44,10,8.89,6.77,11,7.4,2.54-1.06.21-7.19-7.4-16.72-8.25-23.49,2.54-9.73,8.68-11.21,15-1.48,20.31,1.06,7,7.61,9.73,10.37,6.56,3.17,9.73,3.59a44.06,44.06,0,0,1,8.88,1.91c3.18,1,7,2.75,7,6.34s-3.81,9.1-4.66,14.39,1.27,10.37,7.2,11.42,15.65-1.9,19.25-7.19,1.05-12.91-2.75-21.79-8.89-19-15.66-26.23-15.23-11.43-18.4-14.81-1.06-5.93,5.07-6.56,16.29.63,20.52-2.75,2.54-11.43,1.49-16.72-1.49-7.82,2.53-10.79,12.49-6.34,20.95-8,16.92-1.7,22.64.21,8.67,5.71,9.73,10.58.21,10.78,2.32,14.17,7.2,4.23,11.43,4.65,7.61.43,10.58,2.75,5.5,7,4.65,10.79-5.08,6.77-6.35,9.31.43,4.66,5.29,7,12.91,4.87,18,7.2,7.19,4.44,6.13,8.25-5.29,9.31-7,12.69-.85,4.66,1.9,6.77A30.63,30.63,0,0,0,784,1880.2c7,1,16.29.21,20.94-1.91s4.66-5.5,4.66-8.25,0-4.86,1.27-6.13,3.81-1.7,8.46-1.06a58.52,58.52,0,0,1,16.93,5.08A25.6,25.6,0,0,1,849,1881c3,6.56,4.65,15.87,4.44,26.66s-2.33,23.06-14.38,32S805,1954,777.26,1960.59s-61.14,14.17-84.84,14.6-37.65-6.35-53.73-9.73-34.28-3.39-46.55-5.29S573.53,1954.45,565.91,1946.63Z"/><path class="cls-18" d="M451.79,534.65c-38.82,44-103.36,113.66-119.73,199.12s15.46,186.68,53.16,235,81.3,43.76,144.1,16.3,144.79-77.83,207.81-141.19S844.19,704.19,859.71,634s2.5-134.1-34.22-168.55-97.16-39.41-147-33.74-88.95,21.94-114.13,27.45-36.37.24-48.53,6.73S490.62,490.68,451.79,534.65Z"/><path class="cls-11" d="M451.62,666c2.86-7.78,3.33-17,12.6-20.41s27.32-.86,37.56-.12,12.65-.3,14.09-8.07,1.93-22.26,1.22-30.14-2.61-9.15,5.48-13,26.19-10.16,30.81-18.65-4.24-19.13-13-26.27-17.33-10.8-25.76-14.21-16.68-6.59-18.11.24,4,23.65-2.38,33.49-24.44,12.7-32.38,9.2-5.71-13.33,1.43-18.88S482.41,552.36,490,549s10.8-8.73,12.07-14.13.63-10.79,3.33-22.7,8.73-30.31,4.76-36.35-17.93.32-26.35,2.23-11.27-.64-10.79-6,4.29-13.65,1.11-18.25-13.33-5.55-16.82-9.84-.32-11.9-2.07-19.21-8.41-14.28-14.76-16.5-12.38.31-17.62,3.33-9.68,6.51-13.81.79-7.93-20.63-15.55-25.87-19-.79-24,8.25-3.33,22.7-5.56,30-8.25,8.26-23.17,8.73-38.73.48-48.73,6.83-6.19,19.05-8.73,20.95-11.43-7-19.21-11.43-14.44-4.44-19.2,3-7.62,22.38-13.65,29.84-15.24,7.46-23.81,9.84-16.51,7.14-18.1,15.87,3.18,21.43,5.24,30.16,1.43,13.49-4,18.89S175.12,568.87,169.56,569s-6.51-5.56-11.9-7.62-15.24-.48-23.81,7.46S118,591.09,114.33,599.19s-3.66,10-12.7,16.19S74.48,632,73.69,640.93s15.72,16.19,28.25,17.62,21.12-3,29.85-8.57,17.61-12.22,24.76-14,12.54,1.43,21.9,5.24,22.7,8.25,36,9.29a93.94,93.94,0,0,0,34.44-4c8-2.64,10.71-5.54,9.66-10.22s-5.87-11.15-5.91-17.56S257.34,606,262.89,606s11.91,6.35,17.78,9.37,11.27,2.69,12.7,0-1.11-7.78-1.27-11.59,2.06-6.35,6-8.1a20.66,20.66,0,0,1,16.35,0c6.67,2.7,14.29,9,10.64,17s-18.58,17.46-25.72,28.25-6.51,22.86,2.38,32.22,26,16,44.76,19.37,39,3.33,54.61,1.74,26.34-4.76,34.36-9.49S448.76,673.73,451.62,666Z"/><path class="cls-11" d="M284.8,805.41c-6,9.6-19.6,10.5-37.26,12.37s-39.41,4.74-49.49,3.23-8.49-7.38-14-8.57-18.26,2.3-34.13,4.92-34.92,4.36-44.52,2.14-9.76-8.41-20.08-11.9-30.8-4.29-43.57-8-17.86-10.4-11.19-17.86,25.08-15.71,42.22-19,33-1.75,39.2-3.26,2.7-6.11-6-10.08-22.7-7.3-28-12-2-10.72,4.36-14.53,15.72-5.39,26.19-7,22.07-3.17,30.87-4,14.85-.79,19.85-1.35,9-1.66,11-4.76,2-8.17,2.78-12.3a20.94,20.94,0,0,1,4.92-10.24c2.54-2.93,6-5.63,11.58-8.09a88,88,0,0,1,20-5.8c6.83-1.11,12.86-1.11,23.1-.16s24.68,2.86,34.84,8.34,16,14.52,18.73,28.73,2.22,33.57,2.74,52.41S290.83,795.81,284.8,805.41Z"/><path class="cls-11" d="M349.45,1114.36c-2.69-19.2-4.07-57.19-6.66-77.46s-6.4-22.8-11.17-26.29-10.47-7.94-19.2-9.05-20.48,1.11-25.88-1.75-4.44-10.79,2.07-14.76,18.57-4,24.6-7.93,6-11.91,3.49-17.46-7.62-8.73-13.81-6.83-13.49,8.89-25.39,14.29-28.42,9.2-39.53,9.36-16.82-3.33-22.85-3.17-12.38,4-22.07,3.65-22.69-4.76-31.27-3.81-12.69,7.3-23.17,12.22-27.3,8.41-32.22,5.08,2.06-13.49,6.19-18.57,5.4-5.08-2.38-5.72-24.6-1.9-36.67-3.33-19.36-3-23.81-6.83-6-9.84-5.39-16.82,3.49-14.92,8.09-19.84,10.95-6.83,13-10.64-.16-9.52,1.74-15.23S75.12,882,89.4,877.91s36.83-6.67,55.88-4.44,34.6,9.2,44.76,11.9,14.92,1.11,6.35-2.06-30.48-7.94-41.43-13.65-11-12.38-.32-16.19,31.91-4.77,45.24-5.88,18.73-2.38,25.87-4.28,16-4.45,22.7-7.94,11.11-7.93,15.87-11.74,9.84-7,21.43-8.73,29.68-2.07,43.18.31,22.38,7.46,26,15.56a23,23,0,0,1-6.35,26.51c-8.42,7.3-23.65,10.79-30.95,16.82s-6.67,14.6-2.23,19.68,12.7,6.67,19.21,10.32,11.27,9.37,9.84,17.3-9.05,18.1-9.52,26.35,6.19,14.6,12.38,18.57,11.9,5.56,18.25,8.41,13.33,7,16.19,25.56,1.59,51.59-2.7,76.35-11.58,41.27-17.25,49.31S352.15,1133.57,349.45,1114.36Z"/><path class="cls-11" d="M381.56,987.89c8.09,10.16,20.51,23.1,33.22,26.56s25.73-2.57,29.7-13.37-1.11-26.35-14-36.35S397,950.29,395,934.42s14.44-43.18,30.31-54.6,31.11-7,41.75,2.38,16.66,23.65,36,29.68,52.06,3.81,69.36-2.54,19.21-16.83,5.24-22.54-43.81-6.67-58.41-9.68-14-8.1-9.21-8.73,13.65,3.17,17.62-.32,3-14.29-3-22.38-17.15-13.49-22.86-18.57-6-9.84-.64-10,16.51,4.28,34.13,9.2S577,836.64,595.11,836.8s30.16-4.92,34.76-12.7,1.75-18.25-7.14-23.81S598.92,794.1,591,788.86s-8.88-15.07-20.31-20.47S537.33,762,530,755.69s0-18.09,11.11-24.44,26-7.3,27.62-12.7S558.6,703.31,555,698.23s.8-5.4,10.16-4.92,23.65,1.75,36.67-.63,24.76-8.42,23.81-19.21-14.61-26.35-30.8-34-34.92-7.3-52.85-3.33-35.08,11.59-48.73,19.52-23.81,16.19-36.83,26S427.49,703,411.3,715.06s-32.69,24.76-33,36,15.55,21.11,26.82,28.09,17.94,11.11,22.23,15.24,6.19,8.25,1.27,12.06-16.67,7.3-26.83,9.53-18.73,3.17-21.9,7.77-1,12.86,3.17,20.8,10.16,15.55,12.54,25.24,1.11,21.42-5.71,33.49-19.21,24.44-24.13,34.44-2.38,17.62.78,25.11A98.18,98.18,0,0,0,381.56,987.89Z"/><path class="cls-10" d="M441.67,411.41c6.67-7.94,14.5-12.7,27-12.22s29.62,6.19,55.2,14.75,59.59,19.95,87.52,27.18,49.78,10.3,62.77,4.49,17.11-20.51,6-33.14-37.44-23.19-49.66-38.29-10.31-34.73,8.74-48.38,55.23-21.32,86.66-21,58.09,8.55,80.31,33.72,40,67.25,24.68,113.86S767.17,550.1,696.06,572.24s-164.92,15.25-215.95-6.92-59.28-59.62-61.51-82.8,1.59-32.06,6.25-42.06S435,419.35,441.67,411.41Z"/><path class="cls-10" d="M841,864.89c-9.36-3.81-25.55-19-52.38-36.19S724.32,792.51,702.73,777s-27.3-27.62-34.92-35.24-17.14-10.79-22.06-15.24-5.24-10.16-15.24-12.85-29.68-2.39-40.48-6-12.69-11.27-9.68-16,10.95-6.66,9.53-9.2-12.23-5.72-15.08-13.65,2.22-20.64,18.57-23,44,5.56,66.5,11.9,40,11.12,37.78,7.15-24.13-16.67-38.09-23.34-20-7.3-12.7-12.85,27.93-16,42.86-21.11,24.12-4.77,29-6.19,5.56-4.61,8.73-6.83,8.89-3.49,14.45-2.38,10.95,4.6,15.55,6.51A20,20,0,0,0,769.71,600c3.81-.8,7.62-2.7,14.13-3.65A63.4,63.4,0,0,1,808,597.6c8.41,2.22,16,6.66,23.49,12.38s14.76,12.69,21.59,17,13.17,5.87,8.41,12.38S840.82,657.28,832.41,663s-9.36,5.72-6.67,9.84,9,12.38,10.16,16.83-3,5.08,2.86,18.89,21.75,40.79,29,56.19,6,19.2,1.11,16.34-13.49-12.38-26.67-29.2-31-41-43.17-55.08-18.89-18.25-14-10.79,21.43,26.5,23.49,37.93-10.32,15.24-20.47,17.94-18.1,4.28-18.26,9.52,7.46,14.13,13,20.8,9.05,11.11,15.55,17.3,16,14.12,23.73,20.08,13.56,9.95,18.64,13.76,9.37,7.44,11.68,12.43,2.62,11.34,1.51,18.33S850.35,868.7,841,864.89Z"/><path class="cls-12" d="M674.49,955.87c-8.33,1-25.12,12.37-43.36,16.81s-37.92,1.9-48.08,5.07-10.8,12.06-23.3,12.23-36.88-8.38-46.69-6.64-5,13.75-10.47,24.19-21.06,19.3-33.07,24.6-20.43,7-25.67,17.7-7.3,30.24-16.43,44.08-25.32,21.93-34.56,39.72-11.54,45.25-.9,50.41,34.19-12,48.2-14.22,18.45,10.47,24.48,18.72,13.65,12.06,22.54-1.9,19-45.72,30.79-58.41,25.08-6.35,35.24-6,17.14-5.39,35.23-10.47,47.31-9.53,61.27-25.72,12.7-44.12,2.54-59-29.2-16.83-45.39-14-29.53,10.47-28.57,9.84a282.9,282.9,0,0,1,30.47-15.56c14.29-6,27.62-9.2,39.76-14.29s23.08-12.1,28.62-20.34S682.82,954.91,674.49,955.87Z"/><path class="cls-12" d="M690.93,809.87c-7.61,44.76-8.23,138.7-8.85,214.56s-1.26,133.64-3.8,191.73-7,116.51-10.79,167-7,93-9.84,137.78-5.4,91.74-5.81,164.12,1.32,170.14,8.49,218.53,19.79,47.42,28.77,48.7,14.32,4.8,15.72-46.14-1.14-156.33-1.46-246.8,1.59-166,10.16-202.22,23.81-33,30.16-35.87,3.81-11.75-4.13-13.34-21.27,4.13-26.66.32-2.86-17.14-3.18-50.79-3.49-87.62,10.8-114.92,46-27.94,57.14-32.38,1.59-12.7-12.38-15.87-32.38-1.27-42.54-28.58-12.07-83.8-13-123.49-1-62.53,9.21-72.38,30.47-6.66,39.05,5.72,5.39,34,11.74,55.87,22.22,44.13,35.57,54.58,24.16,9.12,27-2.31-2.25-33-11.15-46-21.6-17.43-27.31-24.1-4.45-15.55,4.52-14.61,25.62,11.7,34,11.38,8.52-11.72-2.35-20.28-32.73-14.27-50.65-27.28-31.88-33.33-45.53-53-27-38.73-27.94-61.27,10.48-48.57,8.88-63.8S698.55,765.11,690.93,809.87Z"/><path class="cls-10" d="M173.58,218.38c5.19.88,15.17.74,23.46,2.43s14.89,5.19,18.47,8.69,4.11,7,5.93,9,4.92,2.57,6.2,1.82.74-2.76,2.36-3.7,5.39-.81,7.75-.68,3.3.27,3.1-.74-1.55-3.17-2.69-5.46-2.09-4.72,0-8.22,7.21-8.09,15.37-12.34a135.85,135.85,0,0,1,25.81-9.77c6.47-1.62,8.23-.95,9.24-3.37s1.28-8,.74-11.6-1.89-5.39-5.39-6.74a29.15,29.15,0,0,0-15.44-1.08c-6.27,1.22-13.14,4.59-20.36,10.45s-14.76,14.22-19.95,19-8,6-14,3.78S199,202,191.17,199.3s-14.29-2.42-18.47-1.08-6.06,3.78-6.54,6.54.48,5.87,1.15,8.36S168.39,217.5,173.58,218.38Z"/><path class="cls-10" d="M252.06,251.86c2.08.35,6.08.3,9.41,1a15.25,15.25,0,0,1,7.4,3.48c1.44,1.41,1.65,2.82,2.38,3.63a2.4,2.4,0,0,0,2.49.73c.51-.3.3-1.11.95-1.49a7.06,7.06,0,0,1,3.11-.27c.94.05,1.32.11,1.24-.3a17.28,17.28,0,0,0-1.08-2.19,3,3,0,0,1,0-3.3c.84-1.4,2.89-3.24,6.16-4.94a53.45,53.45,0,0,1,10.36-3.92c2.59-.65,3.3-.38,3.7-1.36a11,11,0,0,0,.3-4.65,2.94,2.94,0,0,0-2.16-2.7,11.69,11.69,0,0,0-6.2-.43,18.93,18.93,0,0,0-8.16,4.19c-2.89,2.35-5.92,5.7-8,7.62s-3.22,2.41-5.63,1.52-6.08-3.17-9.22-4.25a12,12,0,0,0-7.4-.43,3.38,3.38,0,0,0-2.63,2.62,8.18,8.18,0,0,0,.46,3.35C249.81,250.75,250,251.51,252.06,251.86Z"/><path class="cls-10" d="M290.55,273.82c1.2.2,3.49.17,5.4.56a8.74,8.74,0,0,1,4.24,2,12.83,12.83,0,0,1,1.36,2.08,1.37,1.37,0,0,0,1.43.41c.29-.17.17-.63.54-.85a4.07,4.07,0,0,1,1.78-.15c.54,0,.76.06.72-.17a10.51,10.51,0,0,0-.62-1.26,1.71,1.71,0,0,1,0-1.89,9,9,0,0,1,3.53-2.83,30.73,30.73,0,0,1,5.93-2.25c1.49-.37,1.89-.22,2.12-.77a6.21,6.21,0,0,0,.17-2.67,1.67,1.67,0,0,0-1.24-1.55,6.64,6.64,0,0,0-3.54-.25,10.92,10.92,0,0,0-4.68,2.41C306,268,304.3,269.9,303.1,271s-1.84,1.38-3.22.87-3.49-1.81-5.28-2.43a6.88,6.88,0,0,0-4.25-.25,1.94,1.94,0,0,0-1.5,1.5,4.74,4.74,0,0,0,.26,1.92C289.27,273.19,289.36,273.62,290.55,273.82Z"/><path class="cls-26" d="M346.94,2170.69c-5.34-7-8.54-15.46-8.4-23.13s3.6-14.52,7.57-13.6,8.44,9.6,11.07,10,3.4-7.38,3.8-14.83.41-14.52,2.86-22.19,7.33-15.91,10.73-16.21,5.3,7.35,5.57,14.48-1.08,13.72,1.66,16,9.56.15,13.55.31,5.13,2.61,4.76,5.76-2.27,7-1.22,10.44,5.05,6.37,8.3,9.3,5.74,5.86,7.14,10.41a33.44,33.44,0,0,1,.14,17.25c-1.57,6.51-5,13.35-13.22,15.73s-21.1.27-31.3-3.51S352.28,2177.67,346.94,2170.69Z"/><path class="cls-27" d="M1221.2,2180.67a136.27,136.27,0,0,1-12.8-24.23c-3.87-9.76-6.37-20.35-5.77-27.44s4.28-10.65,6.43-8.63,2.73,9.65,4.22,13.69,3.87,4.53,3.51,1.19-3.45-10.47-4.88-18.27-1.19-16.25,1.25-20.53a7.65,7.65,0,0,1,10-3.1c2.92,1.31,4.11,4.05,4,9.29s-1.55,13-1.07,18.63,2.86,9.22,5.83,8.63,6.55-5.36,7.77-10.13.07-9.54,1.5-13a8.67,8.67,0,0,1,8.73-5.1c3.31.48,5.93,3.58,6.82,8.52s.06,11.72-1.3,17.55a74.56,74.56,0,0,1-5.18,14.77c-1.91,4-3.81,7.26-3.63,9.16s2.44,2.5,5.11-.83,5.78-10.6,8.46-14.82,4.94-5.42,7.08-4.29,4.17,4.59,5.24,8a34.91,34.91,0,0,1-.54,19.22c-1.13,3-3,5.84-4.16,11.49s-1.49,14.11-4,19.35-7.14,7.26-12,7.74a32.23,32.23,0,0,1-13.81-2,27.77,27.77,0,0,1-8.63-5.18C1227,2188.35,1224.89,2186.21,1221.2,2180.67Z"/></g></g></svg>