<svg xmlns="http://www.w3.org/2000/svg" viewBox="0 0 64 64" width="64" height="64">
	<defs>
		<linearGradient id="grd1" gradientUnits="userSpaceOnUse"  x1="32.05" y1="3" x2="32.05" y2="61">
			<stop offset="0" stop-color="#975ca8"  />
			<stop offset="0.66" stop-color="#975ca8"  />
		</linearGradient>
		<linearGradient id="grd2" gradientUnits="userSpaceOnUse"  x1="426.07" y1="785.421" x2="426.07" y2="1066.21">
			<stop offset="0" stop-color="#694673"  />
			<stop offset="0.66" stop-color="#694673"  />
		</linearGradient>
		<linearGradient id="grd3" gradientUnits="userSpaceOnUse"  x1="1147.062" y1="861.139" x2="1147.062" y2="1261.209">
			<stop offset="0" stop-color="#694673"  />
			<stop offset="0.66" stop-color="#694673"  />
		</linearGradient>
	</defs>
	<style>
		tspan { white-space:pre }
		.shp0 { fill: url(#grd1) } 
		.shp1 { fill: #a32a02 } 
		.shp2 { fill: #000000 } 
		.shp3 { fill: url(#grd2) } 
		.shp4 { fill: url(#grd3) } 
	</style>
	<path id="Layer" class="shp0" d="M60.92 43C60.92 42.97 60.92 42.95 60.92 42.92C60.91 42.89 60.91 42.86 60.91 42.84C60.9 42.81 60.9 42.78 60.89 42.76C60.89 42.73 60.88 42.71 60.87 42.68L54 22.67C53.96 22.57 53.91 22.47 53.85 22.39C53.78 22.3 53.7 22.23 53.61 22.17C53.52 22.11 53.42 22.06 53.32 22.03C53.22 22.01 53.11 21.99 53 22L46.32 22C46.32 21.71 46.32 21.42 46.32 21.13L46.71 17.48C46.72 17.43 46.72 17.38 46.72 17.33C46.72 17.28 46.71 17.23 46.7 17.19C46.69 17.14 46.68 17.09 46.66 17.04C46.65 17 46.62 16.95 46.6 16.91L41.38 7C41.35 6.94 41.31 6.88 41.27 6.83C41.22 6.78 41.17 6.73 41.12 6.69C41.07 6.65 41.01 6.61 40.95 6.58C40.89 6.55 40.83 6.53 40.76 6.51L28 3C27.93 2.98 27.87 2.97 27.8 2.97C27.73 2.96 27.66 2.96 27.59 2.97C27.53 2.98 27.46 3 27.39 3.02C27.33 3.04 27.27 3.07 27.21 3.11C27.15 3.15 27.1 3.19 27.05 3.24C27 3.28 26.95 3.34 26.92 3.39C26.88 3.45 26.84 3.51 26.82 3.57C26.79 3.64 26.77 3.7 26.76 3.77L25.25 11.59C25.14 12.01 25.05 12.43 24.95 12.85L19.81 15.31C19.75 15.34 19.69 15.37 19.64 15.41C19.59 15.45 19.54 15.5 19.5 15.54C19.45 15.59 19.42 15.65 19.38 15.7C19.35 15.76 19.32 15.82 19.3 15.88L16.74 23.14C16.46 23.73 16.22 24.35 15.99 24.96L9.6 27.84C9.54 27.87 9.48 27.9 9.42 27.94C9.37 27.98 9.32 28.02 9.27 28.07C9.23 28.12 9.18 28.17 9.15 28.23C9.11 28.29 9.08 28.35 9.06 28.41L3.15 44.9C3.14 44.93 3.13 44.95 3.12 44.98C3.12 45.01 3.11 45.04 3.11 45.07C3.1 45.1 3.1 45.12 3.09 45.15C3.09 45.18 3.09 45.21 3.09 45.24L3.09 60C3.09 60.13 3.12 60.26 3.17 60.38C3.22 60.5 3.29 60.61 3.38 60.71C3.48 60.8 3.59 60.87 3.71 60.92C3.83 60.97 3.96 61 4.09 61L60 61C60.07 61 60.13 60.99 60.2 60.98C60.26 60.97 60.32 60.95 60.38 60.93C60.44 60.9 60.5 60.87 60.56 60.83C60.61 60.8 60.66 60.76 60.71 60.71C60.76 60.66 60.8 60.61 60.83 60.56C60.87 60.5 60.9 60.44 60.93 60.38C60.95 60.32 60.97 60.26 60.98 60.2C60.99 60.13 61 60.07 61 60L60.92 43Z" />
	<g id="Layer">
		<path id="Layer" class="shp1" d="M16.64 23.84C16.52 24.29 16.39 24.74 16.26 25.18C16.12 25.62 15.97 26.06 15.82 26.5C15.66 26.94 15.5 27.37 15.32 27.8C15.15 28.23 14.96 28.66 14.77 29.08C14.59 29.51 14.39 29.94 14.18 30.37C13.97 30.79 13.75 31.21 13.52 31.62C13.29 32.03 13.05 32.43 12.79 32.83C12.54 33.23 12.28 33.62 12 34C12.03 33.53 12.06 33.06 12.12 32.59C12.17 32.12 12.23 31.65 12.31 31.19C12.39 30.72 12.48 30.26 12.58 29.8C12.69 29.34 12.8 28.88 12.93 28.43C13.14 27.63 13.37 26.84 13.63 26.05L16 25C16.2 24.47 16.41 23.93 16.65 23.41C16.66 23.45 16.66 23.48 16.67 23.52C16.67 23.55 16.67 23.59 16.67 23.63C16.67 23.66 16.67 23.7 16.66 23.73C16.66 23.77 16.65 23.81 16.64 23.84L16.64 23.84Z" />
		<path id="Layer" class="shp1" d="M48.33 22C48.31 22.36 48.28 22.71 48.25 23.07C48.21 23.42 48.17 23.78 48.13 24.13C48.08 24.48 48.03 24.84 47.97 25.19C47.91 25.54 47.84 25.89 47.77 26.24C47.69 26.67 47.6 27.1 47.5 27.52C47.4 27.95 47.29 28.37 47.16 28.79C47.03 29.2 46.89 29.62 46.74 30.03C46.59 30.44 46.43 30.84 46.25 31.24C46.16 30.81 46.09 30.38 46.03 29.94C45.97 29.51 45.92 29.07 45.88 28.63C45.85 28.19 45.83 27.76 45.82 27.32C45.81 26.88 45.82 26.44 45.84 26C45.84 25.57 45.85 25.14 45.88 24.71C45.9 24.28 45.93 23.85 45.98 23.43C46.02 23 46.07 22.57 46.14 22.15C46.2 21.72 46.28 21.3 46.36 20.88C46.44 20.46 46.36 20.83 46.36 20.81L46.36 21.1L46.36 21.97L48.33 22Z" />
		<path id="Layer" class="shp1" d="M29 25.25C28.39 24.92 27.78 24.58 27.19 24.22C26.59 23.87 26 23.5 25.41 23.12C24.83 22.75 24.25 22.36 23.68 21.96C23.11 21.56 22.55 21.15 22 20.73C21.94 20.68 21.88 20.63 21.83 20.56C21.79 20.5 21.75 20.43 21.72 20.36C21.69 20.29 21.67 20.21 21.66 20.13C21.65 20.06 21.65 19.98 21.66 19.9L21.66 19.8C21.94 17.85 22.25 15.9 22.66 13.97L25 12.89C25.09 12.52 25.17 12.15 25.26 11.78C25.26 11.8 25.26 11.82 25.27 11.84C25.27 11.86 25.27 11.88 25.27 11.9C25.27 11.91 25.27 11.93 25.27 11.95C25.26 11.97 25.26 11.99 25.26 12.01C25.17 12.65 25.08 13.3 24.97 13.94C24.87 14.58 24.75 15.22 24.63 15.86C24.5 16.49 24.37 17.13 24.23 17.76C24.09 18.4 23.94 19.03 23.78 19.66C24.25 20.09 24.71 20.54 25.16 20.99C25.61 21.44 26.06 21.89 26.49 22.36C26.93 22.83 27.35 23.3 27.77 23.78C28.19 24.26 28.6 24.75 29 25.25L29 25.25Z" />
		<path id="Layer" class="shp1" d="M41.86 7.93C41.16 8.93 40.41 9.85 39.64 10.78C39.31 11.19 38.97 11.59 38.62 11.98C38.27 12.37 37.91 12.75 37.54 13.13C37.17 13.5 36.79 13.86 36.4 14.22C36.01 14.57 35.62 14.92 35.21 15.25C35.4 14.76 35.6 14.27 35.81 13.8C36.03 13.32 36.25 12.84 36.49 12.37C36.73 11.9 36.98 11.44 37.24 10.99C37.5 10.53 37.78 10.08 38.06 9.64C38.76 8.54 39.47 7.44 40.24 6.4L40.76 6.54C40.83 6.56 40.89 6.58 40.95 6.61C41.01 6.64 41.07 6.68 41.12 6.72C41.17 6.76 41.22 6.81 41.27 6.86C41.31 6.91 41.35 6.97 41.38 7.03L41.86 7.93Z" />
	</g>
	<path id="Layer" class="shp2" d="M47.06 42.42L40.81 33.67C40.77 33.61 40.72 33.55 40.66 33.5C40.61 33.45 40.55 33.41 40.48 33.38C40.42 33.34 40.35 33.31 40.28 33.29C40.21 33.27 40.13 33.25 40.06 33.25L36.06 33C36 33 35.94 33 35.88 33.01C35.81 33.01 35.75 33.03 35.69 33.05C35.64 33.06 35.58 33.09 35.52 33.12C35.47 33.15 35.42 33.18 35.37 33.22L31.73 36.22L24.44 34.81C24.33 34.79 24.21 34.79 24.1 34.8C23.98 34.82 23.87 34.86 23.77 34.91C23.67 34.97 23.58 35.04 23.5 35.13C23.42 35.21 23.36 35.31 23.32 35.42L18.57 47.13C18.56 47.16 18.55 47.2 18.54 47.24C18.53 47.27 18.52 47.31 18.51 47.35C18.51 47.38 18.5 47.42 18.5 47.46C18.5 47.5 18.5 47.53 18.5 47.57L19.38 60.07C19.39 60.2 19.42 60.32 19.48 60.43C19.53 60.54 19.6 60.65 19.7 60.73C19.79 60.82 19.9 60.89 20.01 60.93C20.13 60.98 20.25 61 20.38 61L46.25 61C46.38 61 46.51 60.97 46.63 60.92C46.75 60.87 46.86 60.8 46.96 60.71C47.05 60.61 47.12 60.5 47.17 60.38C47.22 60.26 47.25 60.13 47.25 60L47.25 43C47.25 42.95 47.25 42.9 47.24 42.85C47.23 42.79 47.22 42.74 47.2 42.69C47.19 42.64 47.17 42.6 47.14 42.55C47.12 42.51 47.09 42.46 47.06 42.42L47.06 42.42Z" />
	<path id="Layer" class="shp3" d="M21.84 48.21C21.82 48.17 21.79 48.14 21.76 48.1C21.73 48.07 21.7 48.04 21.67 48.01C21.64 47.98 21.6 47.95 21.56 47.93C21.53 47.9 21.49 47.88 21.45 47.86L16.45 45.36C16.42 45.34 16.39 45.33 16.36 45.32C16.33 45.31 16.3 45.3 16.27 45.29C16.24 45.28 16.21 45.27 16.18 45.26C16.14 45.26 16.11 45.25 16.08 45.25L4.18 44.25C4.11 44.24 4.04 44.25 3.97 44.25C3.91 44.26 3.84 44.28 3.77 44.3C3.71 44.32 3.64 44.35 3.59 44.39C3.53 44.42 3.47 44.46 3.42 44.51C3.37 44.56 3.32 44.61 3.28 44.66C3.24 44.72 3.21 44.78 3.18 44.85C3.15 44.91 3.13 44.97 3.11 45.04C3.1 45.11 3.09 45.18 3.09 45.25L3.09 60C3.09 60.13 3.12 60.26 3.17 60.38C3.22 60.5 3.29 60.61 3.38 60.71C3.48 60.8 3.59 60.87 3.71 60.92C3.83 60.97 3.96 61 4.09 61L28.25 61C28.43 61 28.61 60.95 28.76 60.86C28.91 60.77 29.04 60.64 29.13 60.48C29.21 60.32 29.25 60.14 29.25 59.96C29.24 59.79 29.19 59.61 29.09 59.46L21.84 48.21Z" />
	<path id="Layer" class="shp4" d="M60.16 42.05L47.33 41C47.26 40.99 47.19 41 47.11 41.01C47.04 41.02 46.97 41.03 46.9 41.06C46.83 41.08 46.77 41.12 46.71 41.15C46.65 41.19 46.59 41.24 46.54 41.29L41.29 46.54C41.25 46.58 41.22 46.62 41.19 46.66C41.16 46.7 41.13 46.75 41.11 46.79C41.08 46.84 41.06 46.89 41.05 46.94C41.03 46.99 41.02 47.04 41.01 47.09L38.93 59.84C38.91 59.98 38.92 60.13 38.95 60.27C38.99 60.41 39.06 60.54 39.16 60.65C39.25 60.76 39.37 60.85 39.51 60.91C39.64 60.97 39.78 61 39.93 61L60 61C60.13 61 60.26 60.97 60.38 60.92C60.5 60.87 60.61 60.8 60.71 60.71C60.8 60.61 60.87 60.5 60.92 60.38C60.97 60.26 61 60.13 61 60L61.08 43C61.07 42.88 61.05 42.76 61 42.65C60.95 42.54 60.88 42.44 60.8 42.35C60.72 42.26 60.62 42.19 60.51 42.14C60.4 42.09 60.28 42.06 60.16 42.05L60.16 42.05Z" />
</svg>