<svg id="Capa_1" enable-background="new 0 0 512 512" height="512" viewBox="0 0 512 512" width="512" xmlns="http://www.w3.org/2000/svg"><g><g><path d="m497.137 169.831c-3.384-9.468-7.309-18.678-11.739-27.594-45.398-79.57-128.877-138.904-229.398-138.904l-10.667 252.667 10.667 252.499c102.176 0 186.664-59.794 231.429-142.921 4.266-8.994 8.023-18.276 11.234-27.809 6.92-30.668 9.416-53.175 9.416-81.768 0-30.234-3.745-53.668-10.942-86.17z" fill="#6ec8a0"/><path d="m24.571 146.423c-4.266 8.994-8.023 18.276-11.234 27.81-6.751 27.49-10.412 53.174-10.412 81.767 0 102.177 59.278 183.566 143.501 231.431 8.994 4.266 18.275 8.022 27.808 11.233 28.609 6.759 53.174 9.834 81.766 9.834v-505.165c-102.176 0-187.333 61.001-231.429 143.09z" fill="#aae596"/></g><g><g fill="#d3edb6"><path d="m286.972 367.795-11.467-28.053c-6.272 1.461-12.795 2.258-19.505 2.258l-10.667 14.666 10.667 15.334c10.723 0 21.108-1.469 30.972-4.205z"/><path d="m301.881 106.889 11.58-27.793c-13.544-4.41-27.763-7.311-42.461-8.489v-40.105c49.749 3.239 96.377 22.553 133.845 55.44l-28.424 28.424c-10.776-9.175-22.603-17.15-35.28-23.705l-11.584 27.802c9.104 4.889 17.674 10.649 25.587 17.179l-28.452 28.453c-19.585-15.098-44.106-24.095-70.692-24.095l-10.667 52.001 10.667 47.999c8.822 0 16 7.178 16 16v15h68.663c-4.196 23.746-18.155 44.153-37.583 56.915l11.512 28.163c34.319-20.17 57.408-57.475 57.408-100.078 0-26.585-8.996-51.106-24.096-70.691l28.452-28.453c6.3 7.635 11.887 15.878 16.664 24.625l27.709-11.774c-6.439-12.241-14.2-23.68-23.096-34.128l28.424-28.424c12.614 14.371 23.239 30.085 31.719 46.811l27.674-11.759c-12.213-24.569-28.464-47.26-48.431-67.227-48.352-48.351-112.639-74.98-181.019-74.98l-10.667 42.666 10.667 57.334c15.962 0 31.369 2.415 45.881 6.889zm-2.392 134.111c-4.606-13.317-15.172-23.874-28.489-28.481v-41.183c35.416 6.259 63.405 34.248 69.663 69.664z"/><path d="m498.71 337.783c8.737-26.009 13.29-53.545 13.29-81.783 0-29.836-5.072-58.893-14.804-86.187l-27.692 11.767c6.605 18.999 10.661 38.944 11.994 59.42h-40.105c-1.214-15.146-4.252-29.784-8.891-43.698l-27.717 11.777c4.683 14.816 7.215 30.578 7.215 46.921 0 86.019-69.981 156-156 156l-10 52.334 10 47.666c68.38 0 132.667-26.629 181.019-74.98 21.098-21.098 38.057-45.23 50.475-71.412l-27.902-11.262c-8.763 18.105-19.999 35.077-33.535 50.499l-28.424-28.424c24.608-28.9 40.55-65.39 43.76-105.42h40.105c-1.242 19.082-4.841 37.706-10.672 55.529zm-93.865 88.275c-37.468 32.888-84.096 52.202-133.845 55.441v-40.105c40.031-3.21 76.521-19.152 105.421-43.76z"/></g><path d="m74.98 74.98c-21.097 21.098-38.057 45.23-50.475 71.412l27.902 11.261c10.891-22.501 25.589-43.262 43.787-61.46 39.13-39.13 90.085-62.13 144.806-65.692v40.104c-14.698 1.179-28.916 4.079-42.46 8.489l11.581 27.793c14.511-4.472 29.918-6.887 45.879-6.887v-100c-68.38 0-132.667 26.629-181.02 74.98z" fill="#dfefcb"/><path d="m256 412c-37.619 0-72.171-13.385-99.143-35.643l28.452-28.453c19.585 15.1 44.105 24.096 70.691 24.096v-30c-42.303 0-77.543-30.71-84.663-71h-30.368c2.695 20.781 10.914 39.851 23.128 55.691l-28.452 28.453c-22.259-26.973-35.645-61.524-35.645-99.144s13.385-72.171 35.643-99.144l28.453 28.453c-12.213 15.841-20.433 34.91-23.128 55.691h30.368c6.258-35.415 34.247-63.405 69.663-69.664v41.188c-18.019 6.235-31 23.363-31 43.476 0 15.897 8.052 30.456 21.538 38.947l15.984-25.388c-4.71-2.965-7.521-8.034-7.521-13.559 0-8.822 7.178-16 16-16v-100c-26.586 0-51.106 8.996-70.691 24.096l-28.453-28.453c7.914-6.53 16.483-12.291 25.588-17.179l-11.584-27.802c-55.648 28.772-95 84.819-100.253 150.338h-40.105c1.242-19.081 4.84-37.705 10.672-55.529l-27.884-11.254c-8.737 26.009-13.29 53.545-13.29 81.783 0 68.38 26.629 132.668 74.98 181.02 21.098 21.098 45.231 38.057 71.412 50.475l11.261-27.901c-18.105-8.764-35.077-19.999-50.498-33.535l28.424-28.424c28.899 24.608 65.389 40.55 105.42 43.76v40.105c-19.081-1.242-37.705-4.84-55.528-10.671l-11.254 27.883c26.01 8.735 53.545 13.288 81.783 13.288zm-170.057-7.155c-32.888-37.468-52.202-84.096-55.441-133.845h40.105c3.21 40.031 19.152 76.521 43.76 105.421z" fill="#dfefcb"/></g></g></svg>