<svg height="512" viewBox="0 0 46 58" width="512" xmlns="http://www.w3.org/2000/svg"><g id="022---Medieval-Knight-Helmet" fill="none"><path id="Shape" d="m38 45.6c.3159373 5.2475319 3.3492295 9.9491347 8 12.4h-46c4.65077054-2.4508653 7.68406271-7.1524681 8-12.4z" fill="#7f8c8d"/><path id="Shape" d="m42.04 22.14c.07-2.82-.17-11.79-6.04-15.14-7-4-12-2-13-7-1 5-6 3-13 7-5.87 3.35-6.09 12.32-6.02 15.14v8.86l18.02 6 19-7z" fill="#7f8c8d"/><g fill="#35495e"><path id="Shape" d="m23 18c-.5522847 0-1-.4477153-1-1v-1c0-.5522847.4477153-1 1-1s1 .4477153 1 1v1c0 .5522847-.4477153 1-1 1z"/><path id="Shape" d="m17 17c-.5522847 0-1-.4477153-1-1v-1c0-.5522847.4477153-1 1-1s1 .4477153 1 1v1c0 .5522847-.4477153 1-1 1z"/><path id="Shape" d="m11 15c-.5522847 0-1-.4477153-1-1v-1c0-.5522847.4477153-1 1-1s1 .4477153 1 1v1c0 .5522847-.4477153 1-1 1z"/><path id="Shape" d="m29 17c-.5522847 0-1-.4477153-1-1v-1c0-.5522847.4477153-1 1-1s1 .4477153 1 1v1c0 .5522847-.4477153 1-1 1z"/><path id="Shape" d="m35 15c-.5522847 0-1-.4477153-1-1v-1c0-.5522847.4477153-1 1-1s1 .4477153 1 1v1c0 .5522847-.4477153 1-1 1z"/><path id="Shape" d="m35 30-12 6-12-6v-5.23c.0026209-.6409864.312314-1.2418793.8328384-1.6159444.5205245-.3740651 1.1888034-.4759734 1.7971616-.2740556l8.74 2.91c.4083397.1399619.8516603.1399619 1.26 0l8.74-2.91c.6083582-.2019178 1.2766371-.1000095 1.7971616.2740556.5205244.3740651.8302175.974958.8328384 1.6159444z"/></g><path id="Shape" d="m24.756 32.342 13.609-5.1c.4116912-.1543717.7610395-.4401063.994-.813l2.793-4.468c.2364371-.3783021.6948592-.5542376 1.1236828-.4312524.4288236.1229851.7243189.5151414.7243172.9612524v12.709c-.0011564 4.1547192-2.1513321 8.0132329-5.684 10.2l-12.684 7.851c-1.6126394.9984197-3.6513606.9984197-5.264 0l-12.684-7.851c-3.53266788-2.1867671-5.68284356-6.0452808-5.684-10.2v-12.713c-.00000168-.446111.29549363-.8382673.72431721-.9612524.42882358-.1229852.88724566.0529503 1.12368279.4312524l2.793 4.468c.23296045.3728937.58230882.6586283.994.813l13.609 5.1c1.1317865.4253195 2.3792476.4267403 3.512.004z" fill="#95a5a5"/><path id="Shape" d="m19 47c-1.1045695 0-2-.8954305-2-2v-7c0-1.1045695.8954305-2 2-2s2 .8954305 2 2v7c0 1.1045695-.8954305 2-2 2z" fill="#2c3e50"/><path id="Shape" d="m11 42c-1.1045695 0-2-.8954305-2-2v-5c0-1.1045695.8954305-2 2-2s2 .8954305 2 2v5c0 1.1045695-.8954305 2-2 2z" fill="#2c3e50"/><path id="Shape" d="m27 47c1.1045695 0 2-.8954305 2-2v-7c0-1.1045695-.8954305-2-2-2s-2 .8954305-2 2v7c0 1.1045695.8954305 2 2 2z" fill="#2c3e50"/><path id="Shape" d="m35 42c1.1045695 0 2-.8954305 2-2v-5c0-1.1045695-.8954305-2-2-2s-2 .8954305-2 2v5c0 1.1045695.8954305 2 2 2z" fill="#2c3e50"/><path id="Shape" d="m37.07 7.73c-7.637 5.7-20.482 5.719-28.14 0 .33650988-.27163817.69433115-.51575922 1.07-.73 7-4 12-2 13-7 1 5 6 3 13 7 .3756689.21424078.7334901.45836183 1.07.73z" fill="#955ba5"/></g></svg>