<?xml version="1.0" encoding="utf-8"?>
<!-- Generator: Adobe Illustrator 26.0.1, SVG Export Plug-In . SVG Version: 6.00 Build 0)  -->
<svg version="1.1" id="Layer_1" xmlns="http://www.w3.org/2000/svg" xmlns:xlink="http://www.w3.org/1999/xlink" x="0px" y="0px"
	 viewBox="0 0 2000 2000" style="enable-background:new 0 0 2000 2000;" xml:space="preserve">
<style type="text/css">
	.st0{fill:#AED76A;}
	.st1{clip-path:url(#SVGID_00000088831604429841363170000010541510272170745522_);fill:#FECFAE;}
	.st2{fill:#AAA49B;}
	.st3{fill:#8F65AC;}
	.st4{fill:#E8E3DD;}
	.st5{fill:#60262E;}
	.st6{fill:#BAB6AF;}
	.st7{clip-path:url(#SVGID_00000088854108157753960390000017468634172370354328_);fill:#FECFAE;}
	.st8{fill:#E5BF9C;}
	.st9{fill:#A08470;}
	.st10{fill:#3F2957;}
	.st11{fill:#AFD86A;}
	.st12{clip-path:url(#SVGID_00000169537792617530803290000000470519807227545531_);fill:#FECFAE;}
	.st13{clip-path:url(#SVGID_00000051367298606666615210000002565569125539723667_);fill:#FECFAE;}
	.st14{fill:#877874;}
	.st15{fill:#967266;}
	.st16{fill:#4C3B36;}
	.st17{fill:#725B51;}
	.st18{fill:#DDCBB8;}
	.st19{fill:#441C0C;}
	.st20{fill:#592710;}
	.st21{fill:#724E44;}
	.st22{clip-path:url(#SVGID_00000106111017752884034910000006477927393708922811_);fill:#FECFAE;}
	.st23{fill:#77A22F;}
	.st24{fill:#AA9983;}
	.st25{fill:#EAC794;}
	.st26{fill:#936B3E;}
	.st27{fill:#E0D1B7;}
	.st28{fill:#BF9D71;}
	.st29{fill:#4C94BF;}
	.st30{fill:#FFFFFF;}
	.st31{fill:#7B625C;}
	.st32{fill:#392516;}
	.st33{fill:#551C3B;}
	.st34{fill:#A28A84;}
	.st35{fill:#B48F6C;}
	.st36{fill:#FECFAE;}
	.st37{fill:#402F21;}
	.st38{fill:#381126;}
	.st39{fill:#7A6047;}
	.st40{fill:#6B6969;}
	.st41{fill:#4F3F2F;}
	.st42{fill:#787676;}
	.st43{fill:#908D8E;}
	.st44{fill:#6E899F;}
	.st45{fill:#FDCFAC;}
	.st46{fill:#62534C;}
	.st47{fill:#554A44;}
	.st48{fill:#3D5669;}
	.st49{fill:#293035;}
	.st50{fill:#78685E;}
	.st51{fill:#8F8D8E;}
	.st52{fill:#38444D;}
	.st53{fill:#797677;}
	.st54{fill:#CAB399;}
	.st55{fill:#A5917A;}
	.st56{fill:#8BBC38;}
	.st57{fill:#AA4226;}
	.st58{fill:#312419;}
	.st59{fill:#443428;}
	.st60{fill:#846A55;}
	.st61{fill:none;}
	.st62{fill:#634C3B;}
	.st63{clip-path:url(#SVGID_00000124878416580464556780000003242188827198203291_);}
	.st64{fill:#D6BA9D;}
	.st65{fill:#1E1713;}
	.st66{fill:#B99971;}
	.st67{fill:#8C6D51;}
	.st68{fill:#9E7E5C;}
	.st69{clip-path:url(#SVGID_00000103249287191274752830000000822439810555055006_);}
	.st70{fill:#352820;}
	.st71{fill:#665140;}
	.st72{clip-path:url(#SVGID_00000165941424979658985150000000020017215534174871_);}
	.st73{clip-path:url(#SVGID_00000145035070865621600010000013232310998224787380_);}
	.st74{clip-path:url(#SVGID_00000013195290438881060600000005009325725533992857_);}
	.st75{clip-path:url(#SVGID_00000132076357171276836720000012870061402177942170_);}
	.st76{fill:#8ABD32;}
	.st77{clip-path:url(#SVGID_00000084494512235450178610000008314780429902975921_);}
	.st78{fill:#993A23;}
	.st79{clip-path:url(#SVGID_00000065758047314977931670000018338801301162239638_);fill:#993A23;}
	.st80{fill:#7A291B;}
	.st81{clip-path:url(#SVGID_00000068642716630563591040000001666786441192481935_);fill:#993A23;}
	.st82{fill:#BC4D3B;}
	.st83{fill:#846F5A;}
	.st84{fill:#AD957D;}
	.st85{fill:#D8C9BA;}
	.st86{fill:#C4B19F;}
	.st87{fill:#705E4D;}
	.st88{clip-path:url(#SVGID_00000128447266056028224660000010782078895232661935_);fill:#998776;}
	.st89{fill:#604F40;}
	.st90{fill:#A39386;}
	.st91{clip-path:url(#SVGID_00000090260860524938274140000012608793504487522706_);fill:#998776;}
	.st92{clip-path:url(#SVGID_00000005224186822558902090000008783324811882301118_);fill:#998776;}
	.st93{clip-path:url(#SVGID_00000040570455356223436330000007325036464289021353_);fill:#846F5A;}
	.st94{clip-path:url(#SVGID_00000040570455356223436330000007325036464289021353_);fill:#998776;}
	.st95{fill:#E5D6C7;}
	.st96{fill:#937D69;}
	.st97{fill:#3C3229;}
	.st98{fill:#71BBD8;}
	.st99{fill:#EC7D51;}
	.st100{fill:url(#SVGID_00000049204015820318826640000006519110980725205123_);}
	.st101{opacity:0.65;fill:url(#SVGID_00000057828679254155012730000018351186124219511430_);}
	.st102{opacity:0.65;fill:url(#SVGID_00000098924987318189127930000006099098066691061650_);}
	.st103{clip-path:url(#SVGID_00000049217818335012662400000002364970521149647239_);fill:#998776;}
	.st104{clip-path:url(#SVGID_00000044150294950239929030000005048053933775535021_);fill:#998776;}
	.st105{clip-path:url(#SVGID_00000000906806185368918990000003297186671018386823_);fill:#846F5A;}
	.st106{clip-path:url(#SVGID_00000000906806185368918990000003297186671018386823_);fill:#998776;}
	.st107{fill:#A08975;}
	.st108{clip-path:url(#SVGID_00000140719333188066443570000012251769345455854246_);}
	.st109{fill:url(#SVGID_00000031901266591539699710000000104226513777108664_);}
	.st110{opacity:0.65;fill:url(#SVGID_00000145018496965073207980000017288151397445131169_);}
	.st111{fill:#998776;}
	.st112{fill:#C1AE9F;}
	.st113{clip-path:url(#SVGID_00000168830742216483072390000003227732070575050634_);fill:#846F5A;}
	.st114{clip-path:url(#SVGID_00000168830742216483072390000003227732070575050634_);fill:#998776;}
	.st115{clip-path:url(#SVGID_00000030471176150047479980000012026364692974368648_);}
	.st116{fill:#515151;}
	.st117{fill:#7A7A7A;}
	.st118{fill:#8C8C8C;}
	.st119{fill:#F5E3BA;}
	.st120{fill:#593263;}
	.st121{opacity:0.4;fill:#BB986F;}
	.st122{fill:#A5A5A5;}
	.st123{fill:#BB986F;}
	.st124{fill:#A883C6;}
	.st125{fill:#2E1849;}
	.st126{fill:#6B6B6B;}
	.st127{fill:#724382;}
	.st128{clip-path:url(#SVGID_00000036932815286504035930000012952135808348929424_);fill:#8ABD32;}
	.st129{clip-path:url(#SVGID_00000096044954027049791830000009358412972578870702_);}
	.st130{fill:#70442C;}
	.st131{opacity:0.2;clip-path:url(#SVGID_00000170258514607172736650000003539806114137069999_);fill:#70442C;}
	.st132{fill:#A36B4B;}
	.st133{fill:#875536;}
	.st134{fill:#D5AF73;}
	.st135{opacity:0.2;clip-path:url(#SVGID_00000013181089820776469650000004118138966920925874_);fill:#70442C;}
	.st136{opacity:0.2;clip-path:url(#SVGID_00000077324803487166132900000000363182750958372752_);fill:#70442C;}
	.st137{opacity:0.4;clip-path:url(#SVGID_00000096034149305116357230000011262948127237848981_);fill:#70442C;}
	.st138{opacity:0.2;clip-path:url(#SVGID_00000096034149305116357230000011262948127237848981_);fill:#70442C;}
	.st139{clip-path:url(#SVGID_00000067201477330424483820000002588778271786104963_);fill:#FECFAE;}
	.st140{fill:#9B8572;}
	.st141{fill:#4F2C2A;}
	.st142{fill:#934D3D;}
	.st143{clip-path:url(#SVGID_00000041285550554858010470000001768728920141112506_);fill:#70442C;}
	.st144{fill:#BF975D;}
	.st145{fill:#A57341;}
	.st146{clip-path:url(#SVGID_00000000214524271729026880000015458091714228523446_);fill:#70442C;}
	.st147{clip-path:url(#SVGID_00000155854935332168109680000001919731142921405372_);fill:#70442C;}
	.st148{fill:#4A1F19;}
	.st149{clip-path:url(#SVGID_00000093148961530010273030000001821662568480027790_);fill:#A37A79;}
	.st150{fill:#D19857;}
	.st151{fill:#D6B58E;}
	.st152{fill:#AF8956;}
	.st153{clip-path:url(#SVGID_00000000204954118437277310000000800061732905914541_);fill:#FECFAE;}
	.st154{fill:#93643A;}
	.st155{clip-path:url(#SVGID_00000109714807647854742180000014216653706037491117_);fill:#70442C;}
	.st156{clip-path:url(#SVGID_00000091714669488415439100000008687827426268479132_);fill:#70442C;}
	.st157{clip-path:url(#SVGID_00000000930582031032069340000016002345139393826469_);fill:#70442C;}
	.st158{clip-path:url(#SVGID_00000164484772717489338380000005026309848608077188_);fill:#70442C;}
	.st159{clip-path:url(#SVGID_00000178916690327337152790000005286026783716841659_);fill:#70442C;}
	.st160{clip-path:url(#SVGID_00000080182687586088738670000001656045489093213627_);fill:#70442C;}
	.st161{clip-path:url(#SVGID_00000113318787660075275150000000052049432896082305_);fill:#70442C;}
	.st162{clip-path:url(#SVGID_00000093855351998425597490000004651293051463544475_);fill:#70442C;}
	.st163{clip-path:url(#SVGID_00000033355684871494687060000018096670495076184493_);fill:#70442C;}
	.st164{clip-path:url(#SVGID_00000011000927693292012380000017728848214074570928_);fill:#70442C;}
	.st165{clip-path:url(#SVGID_00000088126217176959908930000014671555862257180075_);fill:#70442C;}
	.st166{clip-path:url(#SVGID_00000164502493544865644170000012291147446251293073_);fill:#70442C;}
	.st167{clip-path:url(#SVGID_00000147926335767097269230000010429839265977505982_);fill:#A37A79;}
	.st168{clip-path:url(#SVGID_00000023257465558723224580000016184162259236408729_);fill:#FECFAE;}
	.st169{clip-path:url(#SVGID_00000104667431755982047690000015209025357988754596_);fill:#70442C;}
	.st170{clip-path:url(#SVGID_00000068647875126157776790000014314946667010189440_);fill:#70442C;}
	.st171{clip-path:url(#SVGID_00000111149733502182126950000017697115398788787364_);fill:#70442C;}
	.st172{fill:#877366;}
	.st173{clip-path:url(#SVGID_00000047051290772475525130000003532694405026575498_);fill:#FECFAE;}
	.st174{fill:#4E8BC1;}
	.st175{fill:#F9EBE8;}
	.st176{fill:#C9B3AD;}
	.st177{fill:#EAD2CC;}
	.st178{fill:#387BAD;}
	.st179{clip-path:url(#SVGID_00000054960966605516484060000002004541202208526747_);fill:#8ABD32;}
	.st180{clip-path:url(#SVGID_00000161630913620929289280000009241188093006506644_);fill:#8ABD32;}
	.st181{clip-path:url(#SVGID_00000132770175201263352050000010192805512895124867_);fill:#8ABD32;}
	.st182{clip-path:url(#SVGID_00000091010229524033977560000009120578751325521076_);fill:#8ABD32;}
	.st183{clip-path:url(#SVGID_00000164496224321765138340000017070077176231902647_);fill:#8ABD32;}
	.st184{clip-path:url(#SVGID_00000088830256586343093770000002207356323497239440_);fill:#FECFAE;}
	.st185{clip-path:url(#SVGID_00000072260179675731417290000015308521056583090878_);fill:#8ABD32;}
	.st186{fill:#5597C9;}
	.st187{fill:#1572A0;}
	.st188{fill:#D6C5C1;}
	.st189{clip-path:url(#SVGID_00000060722118305266472730000001575399134158287802_);fill:#8ABD32;}
	.st190{fill:#61A6D1;}
	.st191{fill:#B2A19D;}
	.st192{clip-path:url(#SVGID_00000031908129573290755980000014718156277557265059_);fill:#8ABD32;}
	.st193{clip-path:url(#SVGID_00000005979081688439087060000016741932176120390558_);fill:#FECFAE;}
	.st194{clip-path:url(#SVGID_00000005264799508800664270000007070222519992100270_);fill:#8ABD32;}
	.st195{clip-path:url(#SVGID_00000046337789416574241130000013304650470750070950_);fill:#FECFAE;}
	.st196{fill:#A07775;}
	.st197{fill:#B79C86;}
	.st198{fill:#8C383B;}
	.st199{fill:#A5606B;}
	.st200{fill:#8F534A;}
	.st201{fill:#523028;}
	.st202{fill:#7A2C32;}
	.st203{fill:#965D59;}
	.st204{clip-path:url(#SVGID_00000047738663678111406630000002092828502625986492_);fill:#8F534A;}
	.st205{clip-path:url(#SVGID_00000005949218785856761140000000458394569682763441_);fill:#8BBC38;}
	.st206{clip-path:url(#SVGID_00000001635292721538536800000006024681415548657337_);fill:#8BBC38;}
	.st207{clip-path:url(#SVGID_00000097485081639012825810000002038407449290846852_);fill:#FDCFAC;}
	.st208{clip-path:url(#SVGID_00000122000152880853882630000016639051806209148083_);fill:#8F534A;}
	.st209{fill:#5B3932;}
	.st210{fill:#9E5F59;}
	.st211{clip-path:url(#SVGID_00000131345810439494569600000015726709756749100945_);fill:#8BBC38;}
	.st212{clip-path:url(#SVGID_00000180328595464571983810000009478048405319724186_);fill:#603D38;}
	.st213{clip-path:url(#SVGID_00000011740568901426839670000005770812072026241707_);fill:#523028;}
	.st214{fill:#914047;}
	.st215{clip-path:url(#SVGID_00000157299934014659517300000000042396323063119260_);fill:#8BBC38;}
	.st216{clip-path:url(#SVGID_00000038386790590730495000000015823929741211433901_);fill:#8BBC38;}
	.st217{clip-path:url(#SVGID_00000160186552435798922910000012322584631153431431_);fill:#603D38;}
	.st218{clip-path:url(#SVGID_00000142865071269448669400000007280807703773118623_);fill:#523028;}
	.st219{clip-path:url(#SVGID_00000134233637815382823830000008629653098667327880_);fill:#8BBC38;}
	.st220{clip-path:url(#SVGID_00000008846170663837907110000018037712974213432966_);fill:#8BBC38;}
	.st221{clip-path:url(#SVGID_00000040555561286044897110000003805317297606475404_);fill:#8ABD32;}
	.st222{clip-path:url(#SVGID_00000125586168149597383440000007661107486531409809_);fill:#441C0C;}
	.st223{fill:#9B786F;}
	.st224{fill:#8E7C75;}
	.st225{opacity:0.8;fill:#A3ACAF;}
	.st226{fill:#838C8E;}
	.st227{fill:#CFE59A;}
	.st228{clip-path:url(#SVGID_00000169549018059622694810000004391458220916355734_);fill:#FECFAE;}
	.st229{clip-path:url(#SVGID_00000173142808608822713730000005909446760196874390_);fill:#441C0C;}
	.st230{fill:#773825;}
	.st231{clip-path:url(#SVGID_00000070837546392972623800000009385732258571539076_);}
	.st232{clip-path:url(#SVGID_00000169552221301695490460000012263437817475120318_);}
	.st233{clip-path:url(#SVGID_00000149369599832283139680000016784993692732062366_);fill:#441C0C;}
	.st234{clip-path:url(#SVGID_00000063634237131024561310000013706353717209370505_);}
	.st235{clip-path:url(#SVGID_00000061473559357159038990000000952020199183938223_);fill:#441C0C;}
	.st236{fill:#2B1009;}
	.st237{opacity:0.8;fill:#B8BFC1;}
	.st238{fill:#B8BFC1;}
	.st239{fill:#F5FFCA;}
	.st240{fill:#A0C45B;}
	.st241{fill:#BCE077;}
	.st242{clip-path:url(#SVGID_00000165203296995175981420000011968835964005184688_);fill:#FECFAE;}
	.st243{clip-path:url(#SVGID_00000067223184408218123880000003068005101344009600_);}
	.st244{fill:#B99AD6;}
	.st245{fill:#EDCCB2;}
	.st246{fill:#9287AB;}
	.st247{fill:#B6B3C4;}
	.st248{fill:#A29CB7;}
	.st249{fill:#5A546D;}
	.st250{fill:#7F6A5C;}
	.st251{fill:#645F77;}
	.st252{fill:#472A51;}
	.st253{clip-path:url(#SVGID_00000005959954054007617450000017389992899908407725_);}
	.st254{fill:#6D407C;}
	.st255{clip-path:url(#SVGID_00000121278924523904704850000003423150245461089680_);fill:#6D407C;}
	.st256{clip-path:url(#SVGID_00000022541103043886060080000012445945789282111396_);fill:#6D407C;}
	.st257{clip-path:url(#SVGID_00000152223482117118562720000012735279645668218021_);fill:#8ABD32;}
	.st258{fill:#76708E;}
	.st259{clip-path:url(#SVGID_00000078724252353829659150000006521504542866687913_);fill:#6D407C;}
	.st260{clip-path:url(#SVGID_00000168099559394390137390000004867369752432594575_);fill:#6D407C;}
	.st261{fill:#9C7ABC;}
	.st262{clip-path:url(#SVGID_00000013871121745566622090000008222961029151024319_);fill:#FECFAE;}
	.st263{clip-path:url(#SVGID_00000025440195574175393980000016685915466785908135_);fill:#6D407C;}
	.st264{clip-path:url(#SVGID_00000148648892393245453030000011916957111015406764_);fill:#B99AD6;}
	.st265{clip-path:url(#SVGID_00000049930948677949230060000007780488001665355171_);fill:#FECFAE;}
	.st266{clip-path:url(#SVGID_00000122714933930635031840000016210676439872021936_);fill:#8ABD32;}
	.st267{fill:#8C796F;}
	.st268{fill:#633C27;}
	.st269{fill:#3F2519;}
	.st270{fill:#6B5E55;}
	.st271{clip-path:url(#SVGID_00000166659928802187759780000002028852738563098017_);fill:#633C27;}
	.st272{fill:#7A6B5F;}
	.st273{fill:#2B1811;}
	.st274{fill:#594E47;}
	.st275{fill:#685C53;}
	.st276{fill:#A8968A;}
	.st277{fill:#996A52;}
	.st278{fill:#B2A197;}
	.st279{fill:#A39081;}
	.st280{clip-path:url(#SVGID_00000161605282587086328690000001293651873121904572_);}
	.st281{clip-path:url(#SVGID_00000147905318197871344360000011578174926633729417_);fill:#FECFAE;}
	.st282{fill:#685443;}
	.st283{fill:#CCB193;}
	.st284{fill:#BB9C75;}
	.st285{fill:#C6A283;}
	.st286{fill:#897056;}
	.st287{fill:#DB6800;}
	.st288{fill:#F28D26;}
	.st289{fill:#702C31;}
	.st290{fill:#9B8067;}
	.st291{fill:#35261D;}
	.st292{fill:#4B3628;}
	.st293{fill:#658723;}
	.st294{fill:#EDD87E;}
	.st295{fill:#992828;}
	.st296{fill:#C93F3F;}
	.st297{fill:#E1C243;}
	.st298{fill:#D8B213;}
	.st299{fill:#E5CA57;}
	.st300{clip-path:url(#SVGID_00000140002105226663925670000005540080144556149405_);}
	.st301{clip-path:url(#SVGID_00000002386076911893399970000001211650854879091876_);fill:#FECFAE;}
	.st302{fill:#AD8B82;}
	.st303{clip-path:url(#SVGID_00000134966919314458718900000007095699568836532097_);}
	.st304{fill:#7C685B;}
	.st305{clip-path:url(#SVGID_00000030472462528066629500000014488609913994104250_);}
	.st306{clip-path:url(#SVGID_00000098206828315964414490000011301465686539191711_);}
	.st307{fill:#E2D3C5;}
	.st308{fill:#FFEEA9;}
	.st309{fill:#2B211F;}
	.st310{fill:#A3847E;}
	.st311{fill:#544541;}
	.st312{clip-path:url(#SVGID_00000101794375218167625420000008129907053174847649_);fill:#7C251C;}
	.st313{fill:#7C251C;}
	.st314{fill:#CEA380;}
	.st315{clip-path:url(#SVGID_00000158029183754079939020000009040213544807661498_);fill:#8E2F20;}
	.st316{clip-path:url(#SVGID_00000074427140358962840800000000763904431208894853_);fill:#AA4226;}
	.st317{fill:#BA9B95;}
	.st318{fill:#6B5956;}
	.st319{fill:#594947;}
	.st320{fill:#877674;}
	.st321{clip-path:url(#SVGID_00000098182180906651318480000008157476345525645473_);fill:#B6B3C4;}
	.st322{clip-path:url(#SVGID_00000148645407538706007940000003080179479617254064_);fill:#B6B3C4;}
	.st323{clip-path:url(#SVGID_00000004512390373892454410000009238733412011276675_);fill:#E5CA57;}
	.st324{clip-path:url(#SVGID_00000004544368010802624990000012570789554335964578_);fill:#E5CA57;}
	.st325{clip-path:url(#SVGID_00000141414133876849848680000005863675560407888039_);fill:#FECFAE;}
	.st326{fill:#EEC8B8;}
	.st327{fill:#CEA697;}
	.st328{fill:#888499;}
	.st329{fill:#9B4329;}
	.st330{fill:#933D2E;}
	.st331{fill:#843523;}
	.st332{fill:#CC6748;}
	.st333{fill:#B7542E;}
	.st334{fill:#7C3237;}
	.st335{fill:#893724;}
	.st336{fill:#914759;}
	.st337{fill:#D67B5F;}
	.st338{clip-path:url(#SVGID_00000127728304263543304700000001460760783041622171_);fill:#B6B3C4;}
	.st339{clip-path:url(#SVGID_00000155849594794024569300000000463200084806850456_);fill:#B6B3C4;}
	.st340{clip-path:url(#SVGID_00000150062316065404534530000000441425105291243951_);fill:#E5CA57;}
	.st341{clip-path:url(#SVGID_00000125566424711507890290000012150117383791608199_);fill:#E5CA57;}
	.st342{clip-path:url(#SVGID_00000052801059605799587870000018254488652106985397_);fill:#B6B3C4;}
	.st343{clip-path:url(#SVGID_00000012431740897811724580000014698357579324119459_);fill:#B6B3C4;}
	.st344{clip-path:url(#SVGID_00000142859331512089350730000005156579276005473443_);fill:#AED76A;}
	.st345{clip-path:url(#SVGID_00000096766120943338213330000001915540742981622205_);fill:#B6B3C4;}
	.st346{clip-path:url(#SVGID_00000025435963330550884220000005021502478197793983_);fill:#B6B3C4;}
	.st347{clip-path:url(#SVGID_00000021839976997447947000000006252561446475655329_);fill:#E5CA57;}
	.st348{clip-path:url(#SVGID_00000052080660036410135410000012455938402793830811_);}
	.st349{clip-path:url(#SVGID_00000000930501149759138920000011459287440625162382_);fill:#8BBC38;}
	.st350{fill:#A37A79;}
	.st351{fill:#7F74B5;}
	.st352{clip-path:url(#SVGID_00000109001531255743049970000016301577886214302360_);fill:#FECFAE;}
	.st353{clip-path:url(#SVGID_00000096035006080733945720000010329918807974719670_);fill:#E0D1B7;}
	.st354{clip-path:url(#SVGID_00000096035006080733945720000010329918807974719670_);}
	.st355{clip-path:url(#SVGID_00000061469293554879422430000011973798896274896050_);fill:#A37A79;}
	.st356{fill:#682A30;}
	.st357{opacity:0.58;fill:#AA9983;}
	.st358{opacity:0.58;fill:#9B4329;}
	.st359{opacity:0.58;fill:#B7542E;}
	.st360{fill:#755959;}
	.st361{fill:#BC9595;}
	.st362{clip-path:url(#SVGID_00000068678350294020630860000003649647779055242660_);}
	.st363{fill:#E2D8C7;}
	.st364{fill:#969189;}
	.st365{fill:#BAB3A8;}
	.st366{fill:#54423E;}
	.st367{clip-path:url(#SVGID_00000003102886839526459610000004470430594575450785_);fill:#877069;}
	.st368{clip-path:url(#SVGID_00000121992763769473266970000003980468345143038592_);fill:#725B51;}
	.st369{fill:#EFE8DF;}
	.st370{clip-path:url(#SVGID_00000106111155729298135540000013332221168877921467_);fill:#969189;}
	.st371{fill:#765196;}
	.st372{clip-path:url(#SVGID_00000157297239560723870020000016958577041633646466_);fill:#A883C6;}
</style>
<path class="st0" d="M580.81,1039.81c-80.01-9.9-162.13,3.26-229.08,38.77c-94.36,50.05-177.9,135.47-108.72,272.81
	c131.11,260.27,258.25,442.13,581.7,412.49c323.45-29.63,596.34-270.46,674.16-242.29c77.82,28.17,306.86-131.03,210.3-302.42
	c-49.51-87.87-451.6-335.71-803.69-232.92C723.94,1039.25,629.61,1045.85,580.81,1039.81z"/>
<g>
	<defs>
		<path id="SVGID_00000079465768635100824120000003532189499566687903_" d="M580.81,1039.81c-80.01-9.9-162.13,3.26-229.08,38.77
			c-94.36,50.05-177.9,135.47-108.72,272.81c131.11,260.27,258.25,442.13,581.7,412.49c323.45-29.63,596.34-270.46,674.16-242.29
			c77.82,28.17,306.86-131.03,210.3-302.42c-49.51-87.87-451.6-335.71-803.69-232.92C723.94,1039.25,629.61,1045.85,580.81,1039.81z
			"/>
	</defs>
	<clipPath id="SVGID_00000070837794709877287160000013654414182166112180_">
		<use xlink:href="#SVGID_00000079465768635100824120000003532189499566687903_"  style="overflow:visible;"/>
	</clipPath>
	<path style="clip-path:url(#SVGID_00000070837794709877287160000013654414182166112180_);fill:#FECFAE;" d="M707.13,1385.02
		c0,0-115.88,47.3-122.22,119.04c-6.34,71.73,169.57,73.32,187.95,122.74c18.39,49.41-175.01,149.84-175.01,149.84l219.65,57.38
		c0,0,193.53-154.09,111.46-221.04s-271.13-87.24-231.76-133.9s82.62-64.9,82.62-64.9S792.65,1304.24,707.13,1385.02z"/>
</g>
<polygon class="st8" points="475.7,1138.86 1212.31,1435.34 1442.14,944.73 1012.86,884.2 475.7,734.9 "/>
<polygon class="st9" points="475.7,772.55 475.7,783.71 1218.52,990.39 1218.52,961.73 "/>
<polygon class="st9" points="1212.31,1435.34 1495.2,1277.65 1498.87,800.85 1204.26,927.89 "/>
<polygon class="st9" points="1498.63,832.16 1498.87,795.88 1431.84,693.97 1393.34,525.7 1374.22,490.63 1318.13,509.24 
	1250.63,662.32 1212.31,858.8 1250.63,986.68 1436.77,955.44 "/>
<polygon class="st10" points="459,762.13 469.24,770.85 1212.31,967.13 1196.95,948.89 465.69,763.76 "/>
<g>
	<polygon class="st252" points="1055.38,1216.76 1050.47,1217.56 1055.74,1227.65 1060.15,1315.38 1110.39,1332.4 1113.67,1338.68 
		1117.67,1336.95 1118.58,1233.08 	"/>
	<polygon class="st3" points="1055.57,1319.01 1113.67,1338.68 1114.01,1235.32 1050.47,1217.56 	"/>
	<polygon class="st65" points="1086.31,1320.2 1103.69,1326.1 1103.7,1287.04 1085.83,1282.06 	"/>
	<polygon class="st65" points="1080.21,1237.01 1058.44,1230.2 1060.37,1270.51 1081.18,1275.83 	"/>
	<polygon class="st65" points="1060.59,1275.02 1062.36,1312.07 1082.26,1318.83 1081.31,1280.8 	"/>
	<polygon class="st65" points="1103.71,1281.58 1103.72,1244.37 1085.28,1238.59 1085.76,1277 	"/>
	<polygon class="st252" points="1085.76,1277 1085.28,1238.59 1080.21,1237.01 1081.18,1275.83 	"/>
	<polygon class="st252" points="1081.18,1275.83 1060.37,1270.51 1060.59,1275.02 1081.31,1280.8 	"/>
	<polygon class="st252" points="1085.76,1277 1085.83,1282.06 1103.7,1287.04 1103.71,1281.58 	"/>
	<polygon class="st3" points="1078.44,1232.74 1080.6,1318.97 1084.62,1320.64 1083.52,1233.55 	"/>
	<polygon class="st3" points="1109.42,1280.86 1058.3,1267.8 1056.35,1271.7 1107.72,1286.02 	"/>
</g>
<g>
	<polygon class="st252" points="1055.38,980.3 1050.47,981.1 1055.74,991.19 1060.15,1078.92 1110.39,1095.94 1113.67,1102.22 
		1117.67,1100.49 1118.58,996.61 	"/>
	<polygon class="st3" points="1055.57,1082.55 1113.67,1102.22 1114.01,998.86 1050.47,981.1 	"/>
	<polygon class="st65" points="1086.31,1083.74 1103.69,1089.64 1103.7,1050.58 1085.83,1045.6 	"/>
	<polygon class="st65" points="1080.21,1000.55 1058.44,993.73 1060.37,1034.05 1081.18,1039.37 	"/>
	<polygon class="st65" points="1060.59,1038.56 1062.36,1075.61 1082.26,1082.37 1081.31,1044.34 	"/>
	<polygon class="st65" points="1103.71,1045.12 1103.72,1007.91 1085.28,1002.13 1085.76,1040.54 	"/>
	<polygon class="st252" points="1085.76,1040.54 1085.28,1002.13 1080.21,1000.55 1081.18,1039.37 	"/>
	<polygon class="st252" points="1081.18,1039.37 1060.37,1034.05 1060.59,1038.56 1081.31,1044.34 	"/>
	<polygon class="st252" points="1085.76,1040.54 1085.83,1045.6 1103.7,1050.58 1103.71,1045.12 	"/>
	<polygon class="st3" points="1078.44,996.28 1080.6,1082.51 1084.62,1084.18 1083.52,997.09 	"/>
	<polygon class="st3" points="1109.42,1044.4 1058.3,1031.34 1056.35,1035.24 1107.72,1049.56 	"/>
</g>
<g>
	<polygon class="st252" points="510.61,1028.32 506.49,1028.99 510.9,1037.45 514.6,1111.01 556.73,1125.28 559.48,1130.55 
		562.83,1129.1 563.59,1042 	"/>
	<polygon class="st3" points="510.77,1114.05 559.48,1130.55 559.76,1043.88 506.49,1028.99 	"/>
	<polygon class="st65" points="536.54,1115.05 551.11,1120 551.12,1087.25 536.14,1083.07 	"/>
	<polygon class="st65" points="531.42,1045.29 513.17,1039.58 514.79,1073.39 532.24,1077.85 	"/>
	<polygon class="st65" points="514.97,1077.17 516.45,1108.24 533.14,1113.9 532.34,1082.01 	"/>
	<polygon class="st65" points="551.13,1082.67 551.14,1051.47 535.67,1046.63 536.08,1078.83 	"/>
	<polygon class="st252" points="536.08,1078.83 535.67,1046.63 531.42,1045.29 532.24,1077.85 	"/>
	<polygon class="st252" points="532.24,1077.85 514.79,1073.39 514.97,1077.17 532.34,1082.01 	"/>
	<polygon class="st252" points="536.08,1078.83 536.14,1083.07 551.12,1087.25 551.13,1082.67 	"/>
	<polygon class="st3" points="529.94,1041.71 531.75,1114.02 535.13,1115.42 534.2,1042.4 	"/>
	<polygon class="st3" points="555.92,1082.07 513.05,1071.12 511.42,1074.39 554.49,1086.39 	"/>
</g>
<g>
	<polygon class="st252" points="510.61,830.05 506.49,830.72 510.9,839.18 514.6,912.74 556.73,927.01 559.48,932.28 562.83,930.83 
		563.59,843.73 	"/>
	<polygon class="st3" points="510.77,915.78 559.48,932.28 559.76,845.61 506.49,830.72 	"/>
	<polygon class="st65" points="536.54,916.78 551.11,921.73 551.12,888.98 536.14,884.8 	"/>
	<polygon class="st65" points="531.42,847.03 513.17,841.31 514.79,875.12 532.24,879.58 	"/>
	<polygon class="st65" points="514.97,878.9 516.45,909.97 533.14,915.63 532.34,883.74 	"/>
	<polygon class="st65" points="551.13,884.4 551.14,853.2 535.67,848.36 536.08,880.56 	"/>
	<polygon class="st252" points="536.08,880.56 535.67,848.36 531.42,847.03 532.24,879.58 	"/>
	<polygon class="st252" points="532.24,879.58 514.79,875.12 514.97,878.9 532.34,883.74 	"/>
	<polygon class="st252" points="536.08,880.56 536.14,884.8 551.12,888.98 551.13,884.4 	"/>
	<polygon class="st3" points="529.94,843.45 531.75,915.75 535.13,917.15 534.2,844.13 	"/>
	<polygon class="st3" points="555.92,883.8 513.05,872.85 511.42,876.12 554.49,888.12 	"/>
</g>
<path class="st120" d="M1374.22,490.63c15.04-1.48,26.17,5.03,31.54,19.16c5.19,13.67,13.67,29.33,16.77,47.22
	c10.21,58.83,19.16,203.55,111.68,239.79l-21.9,4.05c0,0-90.33-21.57-100.55-147.77c-12.43-153.47-41.91-158.07-52.74-138.09
	c-30.95,57.12-29.37,169.94-54.2,246.76c-18.75,58.02-92.52,205.38-92.52,205.38l-21.31-17.04l100.15-372.28l33.4-84.86
	L1374.22,490.63z"/>
<path class="st244" d="M590.74,458.42c0,0,34.95-41.66,55.65-38.82c681.99,93.53,685.04,49.45,745.54,73.83
	c0,0-52.06-4.9-61.37,7.84c-9.31,12.74-763.29,11.76-763.29,11.76L590.74,458.42z"/>
<path class="st3" d="M535.58,498.19c7.18-33.41,31.59-60.83,63.36-73.43c15.28-6.06,32.86-8.87,51.67-4.25
	c60.22,14.78,569.13,92.77,680.82,79.77c0,0-19.53,59.96-33.94,152.15c-21.23,135.8-106.5,297.66-106.5,297.66L459,762.13
	C459,762.13,498.01,673.04,535.58,498.19z"/>
<path class="st254" d="M948.01,739.82c22.56-2.73,35.32-24.62,42.56-44.05c1.35-3.32,6.23-1.66,5.29,1.79c0,0-0.76,2.5-0.76,2.5
	c-0.31,0.91-0.62,2.11-1.07,2.95c-1.57,2.69-5.67,1.29-5.24-1.83c0.02-0.17,0.08-0.38,0.12-0.55c0.46-1.67,1.05-3.3,1.68-4.9
	c1.4-3.25,6.18-1.58,5.27,1.83c-1.52,5.02-2.65,10.17-3.23,15.38c-1.06,10.57-0.62,24.14,8.35,31.28c3.47,2.61,7.62,4,11.88,4.94
	c-7.03,0.03-14.42-2.3-18.78-8.11c-9.17-12.08-7.61-31.32-3.56-45.1c0,0,5.27,1.83,5.27,1.83c-0.44,1.13-0.85,2.29-1.2,3.45
	c-0.06,0.22-0.19,0.63-0.24,0.85c0,0,0.01-0.04,0.01-0.04c0.34-1.89-1.55-3.61-3.4-3.13c-0.84,0.19-1.55,0.78-1.88,1.5
	c0.09-0.24,0.23-0.62,0.31-0.85c0.27-0.79,0.89-2.79,1.14-3.6c0,0,5.29,1.79,5.29,1.79C988.24,717.95,972.15,741.34,948.01,739.82
	L948.01,739.82z"/>
<path class="st254" d="M1009.9,749.65c22.56-2.73,35.32-24.62,42.56-44.05c1.35-3.32,6.23-1.66,5.29,1.79c0,0-0.76,2.5-0.76,2.5
	c-0.31,0.91-0.62,2.11-1.07,2.95c-1.57,2.69-5.67,1.29-5.24-1.83c0.02-0.17,0.08-0.38,0.12-0.55c0.46-1.67,1.05-3.3,1.68-4.9
	c1.4-3.25,6.18-1.58,5.27,1.83c-1.52,5.02-2.65,10.17-3.23,15.38c-1.06,10.57-0.62,24.14,8.35,31.28c3.47,2.61,7.62,4,11.88,4.94
	c-7.03,0.03-14.42-2.3-18.78-8.11c-9.17-12.08-7.61-31.32-3.56-45.1c0,0,5.27,1.83,5.27,1.83c-0.44,1.13-0.85,2.29-1.2,3.45
	c-0.06,0.22-0.19,0.63-0.24,0.85c0,0,0.01-0.04,0.01-0.04c0.34-1.89-1.55-3.61-3.4-3.13c-0.84,0.19-1.55,0.78-1.88,1.5
	c0.09-0.24,0.23-0.62,0.31-0.85c0.27-0.79,0.89-2.79,1.14-3.6c0,0,5.29,1.79,5.29,1.79C1050.13,727.77,1034.04,751.16,1009.9,749.65
	L1009.9,749.65z"/>
<path class="st254" d="M1171.84,686.48c22.56-2.73,35.32-24.62,42.56-44.05c1.35-3.32,6.23-1.66,5.29,1.79c0,0-0.76,2.5-0.76,2.5
	c-0.31,0.91-0.62,2.11-1.07,2.95c-1.57,2.69-5.67,1.29-5.24-1.83c0.02-0.17,0.08-0.38,0.12-0.55c0.46-1.67,1.05-3.3,1.68-4.9
	c1.4-3.25,6.18-1.58,5.27,1.83c-1.52,5.02-2.65,10.17-3.23,15.38c-1.06,10.57-0.62,24.14,8.35,31.28c3.47,2.61,7.62,4,11.88,4.94
	c-7.03,0.03-14.42-2.3-18.78-8.11c-9.17-12.08-7.61-31.32-3.56-45.1c0,0,5.27,1.83,5.27,1.83c-0.44,1.13-0.85,2.29-1.2,3.45
	c-0.06,0.22-0.19,0.63-0.24,0.85c0,0,0.01-0.04,0.01-0.04c0.34-1.89-1.55-3.61-3.4-3.13c-0.84,0.19-1.55,0.78-1.88,1.5
	c0.09-0.24,0.23-0.62,0.31-0.85c0.27-0.79,0.89-2.79,1.14-3.6c0,0,5.29,1.79,5.29,1.79C1212.07,664.6,1195.98,687.99,1171.84,686.48
	L1171.84,686.48z"/>
<path class="st254" d="M1019.41,838.05c22.56-2.73,35.32-24.62,42.56-44.05c1.35-3.32,6.23-1.66,5.29,1.79c0,0-0.76,2.5-0.76,2.5
	c-0.31,0.91-0.62,2.11-1.07,2.95c-1.57,2.69-5.67,1.29-5.24-1.83c0.02-0.17,0.08-0.38,0.12-0.55c0.46-1.67,1.05-3.3,1.68-4.9
	c1.4-3.25,6.18-1.58,5.27,1.83c-1.52,5.02-2.65,10.17-3.23,15.38c-1.06,10.57-0.62,24.14,8.35,31.28c3.47,2.61,7.62,4,11.88,4.94
	c-7.03,0.03-14.42-2.3-18.78-8.11c-9.17-12.08-7.61-31.32-3.56-45.1c0,0,5.27,1.83,5.27,1.83c-0.44,1.13-0.85,2.29-1.2,3.45
	c-0.06,0.22-0.19,0.63-0.24,0.85c0,0,0.01-0.04,0.01-0.04c0.34-1.89-1.55-3.61-3.4-3.13c-0.84,0.19-1.55,0.78-1.88,1.5
	c0.09-0.24,0.23-0.62,0.31-0.85c0.27-0.79,0.89-2.79,1.14-3.6c0,0,5.29,1.79,5.29,1.79
	C1059.64,816.18,1043.54,839.57,1019.41,838.05L1019.41,838.05z"/>
<path class="st254" d="M1105.2,853.6c22.56-2.73,35.32-24.62,42.56-44.05c1.35-3.32,6.23-1.66,5.29,1.79c0,0-0.76,2.5-0.76,2.5
	c-0.31,0.91-0.62,2.11-1.07,2.95c-1.57,2.69-5.67,1.29-5.24-1.83c0.02-0.17,0.08-0.38,0.12-0.55c0.46-1.67,1.05-3.3,1.68-4.9
	c1.4-3.25,6.18-1.58,5.27,1.83c-1.52,5.02-2.65,10.17-3.23,15.38c-1.06,10.57-0.62,24.14,8.35,31.28c3.47,2.61,7.62,4,11.88,4.94
	c-7.03,0.03-14.42-2.3-18.78-8.11c-9.17-12.08-7.61-31.32-3.56-45.1c0,0,5.27,1.83,5.27,1.83c-0.44,1.13-0.85,2.29-1.21,3.45
	c-0.06,0.22-0.19,0.63-0.24,0.85c0,0,0.01-0.04,0.01-0.04c0.34-1.89-1.55-3.61-3.4-3.13c-0.84,0.19-1.55,0.78-1.88,1.5
	c0.09-0.24,0.23-0.62,0.31-0.85c0.27-0.79,0.89-2.79,1.14-3.6c0,0,5.29,1.79,5.29,1.79C1145.43,831.73,1129.34,855.12,1105.2,853.6
	L1105.2,853.6z"/>
<path class="st254" d="M954.89,829.93c22.56-2.73,35.32-24.62,42.56-44.05c1.35-3.32,6.23-1.66,5.29,1.79c0,0-0.76,2.5-0.76,2.5
	c-0.31,0.91-0.62,2.11-1.07,2.95c-1.57,2.69-5.67,1.29-5.24-1.83c0.02-0.17,0.08-0.38,0.12-0.55c0.46-1.67,1.05-3.3,1.68-4.9
	c1.4-3.25,6.18-1.58,5.27,1.83c-1.52,5.02-2.65,10.17-3.23,15.38c-1.06,10.57-0.62,24.14,8.35,31.28c3.47,2.61,7.62,4,11.88,4.94
	c-7.03,0.03-14.42-2.3-18.78-8.11c-9.17-12.08-7.61-31.32-3.56-45.1c0,0,5.27,1.83,5.27,1.83c-0.44,1.13-0.85,2.29-1.2,3.45
	c-0.06,0.22-0.19,0.63-0.24,0.85c0,0,0.01-0.04,0.01-0.04c0.34-1.89-1.55-3.61-3.4-3.13c-0.84,0.19-1.55,0.78-1.88,1.5
	c0.09-0.24,0.23-0.62,0.31-0.85c0.27-0.79,0.89-2.79,1.14-3.6l5.29,1.79C995.12,808.05,979.03,831.45,954.89,829.93L954.89,829.93z"
	/>
<path class="st254" d="M501.25,765.21c22.56-2.73,35.32-24.62,42.56-44.05c1.35-3.32,6.23-1.66,5.29,1.79c0,0-0.76,2.5-0.76,2.5
	c-0.31,0.91-0.62,2.11-1.07,2.95c-1.57,2.69-5.67,1.29-5.24-1.83c0.02-0.17,0.08-0.38,0.12-0.55c0.46-1.67,1.05-3.3,1.68-4.9
	c1.4-3.25,6.18-1.58,5.27,1.83c-1.52,5.02-2.65,10.17-3.23,15.38c-1.06,10.57-0.62,24.14,8.35,31.28c3.47,2.61,7.62,4,11.88,4.94
	c-7.03,0.03-14.42-2.3-18.78-8.11c-9.17-12.08-7.61-31.32-3.56-45.1c0,0,5.27,1.83,5.27,1.83c-0.44,1.13-0.85,2.29-1.21,3.45
	c-0.06,0.22-0.19,0.63-0.24,0.85c0,0,0.01-0.04,0.01-0.04c0.34-1.89-1.55-3.61-3.4-3.13c-0.84,0.19-1.55,0.78-1.88,1.5
	c0.09-0.24,0.23-0.62,0.31-0.85c0.27-0.79,0.89-2.79,1.14-3.6c0,0,5.29,1.79,5.29,1.79C541.48,743.33,525.39,766.73,501.25,765.21
	L501.25,765.21z"/>
<path class="st254" d="M531.48,574.98c22.56-2.73,35.32-24.62,42.56-44.05c1.35-3.32,6.23-1.66,5.29,1.79c0,0-0.76,2.5-0.76,2.5
	c-0.31,0.91-0.62,2.11-1.07,2.95c-1.57,2.69-5.67,1.29-5.24-1.83c0.02-0.17,0.08-0.38,0.12-0.55c0.46-1.67,1.05-3.3,1.68-4.9
	c1.4-3.25,6.18-1.58,5.27,1.83c-1.52,5.02-2.65,10.17-3.23,15.38c-1.06,10.57-0.62,24.14,8.35,31.28c3.47,2.61,7.62,4,11.88,4.94
	c-7.03,0.03-14.42-2.3-18.78-8.11c-9.17-12.08-7.61-31.32-3.56-45.1c0,0,5.27,1.83,5.27,1.83c-0.44,1.13-0.85,2.29-1.21,3.45
	c-0.06,0.22-0.19,0.63-0.24,0.85c0,0,0.01-0.04,0.01-0.04c0.34-1.89-1.55-3.61-3.4-3.13c-0.84,0.19-1.55,0.78-1.88,1.5
	c0.09-0.24,0.23-0.62,0.31-0.85c0.27-0.79,0.89-2.79,1.14-3.6c0,0,5.29,1.79,5.29,1.79C571.71,553.1,555.62,576.49,531.48,574.98
	L531.48,574.98z"/>
<path class="st254" d="M893,643.15c22.56-2.73,35.32-24.62,42.56-44.05c1.35-3.32,6.23-1.66,5.29,1.79c0,0-0.76,2.5-0.76,2.5
	c-0.31,0.91-0.62,2.11-1.07,2.95c-1.57,2.69-5.67,1.29-5.24-1.83c0.02-0.17,0.08-0.38,0.12-0.55c0.46-1.67,1.05-3.3,1.68-4.9
	c1.4-3.25,6.18-1.58,5.27,1.83c-1.52,5.02-2.65,10.17-3.23,15.38c-1.06,10.57-0.62,24.14,8.35,31.28c3.47,2.61,7.62,4,11.88,4.94
	c-7.03,0.03-14.42-2.3-18.78-8.11c-9.17-12.08-7.61-31.32-3.56-45.1c0,0,5.27,1.83,5.27,1.83c-0.44,1.13-0.85,2.29-1.2,3.45
	c-0.06,0.22-0.19,0.63-0.24,0.85c0,0,0.01-0.04,0.01-0.04c0.34-1.89-1.55-3.61-3.4-3.13c-0.84,0.19-1.55,0.78-1.88,1.5
	c0.09-0.24,0.23-0.62,0.31-0.85c0.27-0.79,0.89-2.79,1.14-3.6c0,0,5.29,1.79,5.29,1.79C933.23,621.27,917.14,644.67,893,643.15
	L893,643.15z"/>
<path class="st254" d="M954.89,652.97c22.56-2.73,35.32-24.62,42.56-44.05c1.35-3.32,6.23-1.66,5.29,1.79c0,0-0.76,2.5-0.76,2.5
	c-0.31,0.91-0.62,2.11-1.07,2.95c-1.57,2.69-5.67,1.29-5.24-1.83c0.02-0.17,0.08-0.38,0.12-0.55c0.46-1.67,1.05-3.3,1.68-4.9
	c1.4-3.25,6.18-1.58,5.27,1.83c-1.52,5.02-2.65,10.17-3.23,15.38c-1.06,10.57-0.62,24.14,8.35,31.28c3.47,2.61,7.62,4,11.88,4.94
	c-7.03,0.03-14.42-2.3-18.78-8.11c-9.17-12.08-7.61-31.32-3.56-45.1c0,0,5.27,1.83,5.27,1.83c-0.44,1.13-0.85,2.29-1.2,3.45
	c-0.06,0.22-0.19,0.63-0.24,0.85c0,0,0.01-0.04,0.01-0.04c0.34-1.89-1.55-3.61-3.4-3.13c-0.84,0.19-1.55,0.78-1.88,1.5
	c0.09-0.24,0.23-0.62,0.31-0.85c0.27-0.79,0.89-2.79,1.14-3.6c0,0,5.29,1.79,5.29,1.79C995.12,631.09,979.03,654.49,954.89,652.97
	L954.89,652.97z"/>
<path class="st254" d="M1165.21,583.56c22.15-5.06,32.57-28.16,37.75-48.23c1-3.44,6.02-2.3,5.45,1.23c0,0-0.5,2.57-0.5,2.57
	c-0.21,0.94-0.4,2.17-0.76,3.05c-1.28,2.84-5.51,1.87-5.4-1.28c0-0.17,0.04-0.39,0.06-0.56c0.28-1.7,0.7-3.39,1.16-5.05
	c1.05-3.38,5.99-2.22,5.43,1.27c-0.99,5.15-1.58,10.39-1.61,15.64c0.04,10.63,1.89,24.07,11.56,30.24
	c3.72,2.24,7.99,3.19,12.33,3.68c-6.99,0.76-14.58-0.79-19.53-6.11c-10.38-11.06-10.83-30.36-8.23-44.49c0,0,5.43,1.27,5.43,1.27
	c-0.32,1.17-0.61,2.37-0.84,3.55c-0.04,0.23-0.12,0.65-0.15,0.87c0,0,0-0.04,0-0.04c0.14-1.91-1.92-3.43-3.71-2.76
	c-0.82,0.28-1.46,0.94-1.71,1.69c0.06-0.25,0.16-0.64,0.22-0.88c0.18-0.81,0.6-2.86,0.76-3.7c0,0,5.45,1.23,5.45,1.23
	C1202.95,557.62,1189.37,582.56,1165.21,583.56L1165.21,583.56z"/>
<path class="st254" d="M1227.79,586.9c22.15-5.06,32.57-28.16,37.75-48.23c1-3.44,6.02-2.3,5.45,1.23c0,0-0.5,2.57-0.5,2.57
	c-0.21,0.94-0.4,2.17-0.76,3.05c-1.28,2.84-5.51,1.87-5.4-1.28c0-0.17,0.04-0.39,0.06-0.56c0.28-1.7,0.7-3.39,1.16-5.05
	c1.05-3.38,5.99-2.22,5.43,1.27c-0.99,5.15-1.58,10.39-1.61,15.64c0.04,10.63,1.89,24.07,11.56,30.24
	c3.72,2.24,7.99,3.19,12.33,3.68c-6.99,0.76-14.58-0.79-19.53-6.11c-10.38-11.06-10.83-30.36-8.23-44.49c0,0,5.43,1.27,5.43,1.27
	c-0.32,1.17-0.61,2.37-0.84,3.55c-0.04,0.23-0.12,0.65-0.15,0.87c0,0,0-0.04,0-0.04c0.14-1.91-1.92-3.43-3.71-2.76
	c-0.82,0.28-1.46,0.94-1.71,1.69c0.06-0.25,0.16-0.64,0.22-0.88c0.18-0.81,0.6-2.86,0.76-3.7c0,0,5.45,1.23,5.45,1.23
	C1265.52,560.95,1251.95,585.9,1227.79,586.9L1227.79,586.9z"/>
<path class="st254" d="M979.65,562.73c20.17-2.95,31.13-22.87,37.2-40.45c1.14-3.01,5.55-1.63,4.78,1.49c0,0-0.63,2.26-0.63,2.26
	c-0.26,0.82-0.51,1.91-0.89,2.67c-1.35,2.45-5.06,1.28-4.74-1.53c0.02-0.16,0.06-0.35,0.09-0.5c0.37-1.5,0.87-2.98,1.4-4.43
	c1.18-2.95,5.51-1.56,4.77,1.52c-1.25,4.54-2.15,9.18-2.55,13.87c-0.72,9.51-0.02,21.67,8.18,27.87c3.17,2.26,6.92,3.42,10.77,4.17
	c-6.31,0.18-12.99-1.74-17.03-6.86c-8.5-10.63-7.52-27.92-4.2-40.38c0,0,4.77,1.52,4.77,1.52c-0.37,1.02-0.71,2.07-1,3.12
	c-0.05,0.2-0.16,0.57-0.2,0.77c0,0,0.01-0.04,0.01-0.04c0.26-1.7-1.47-3.21-3.12-2.73c-0.75,0.19-1.37,0.73-1.65,1.39
	c0.08-0.22,0.19-0.56,0.26-0.77c0.22-0.71,0.74-2.52,0.94-3.25c0,0,4.79,1.49,4.79,1.49
	C1015.25,542.21,1001.33,563.55,979.65,562.73L979.65,562.73z"/>
<path class="st254" d="M1053.7,666.62c22.56-2.73,35.32-24.62,42.56-44.05c1.35-3.32,6.23-1.66,5.29,1.79c0,0-0.76,2.5-0.76,2.5
	c-0.31,0.91-0.62,2.11-1.07,2.95c-1.57,2.69-5.67,1.29-5.24-1.83c0.02-0.17,0.08-0.38,0.12-0.55c0.46-1.67,1.05-3.3,1.68-4.9
	c1.4-3.25,6.18-1.58,5.27,1.83c-1.52,5.02-2.65,10.17-3.23,15.38c-1.06,10.57-0.62,24.14,8.35,31.28c3.47,2.61,7.62,4,11.88,4.94
	c-7.03,0.03-14.42-2.3-18.78-8.11c-9.17-12.08-7.61-31.32-3.56-45.1c0,0,5.27,1.83,5.27,1.83c-0.44,1.13-0.85,2.29-1.2,3.45
	c-0.06,0.22-0.19,0.63-0.24,0.85c0,0,0.01-0.04,0.01-0.04c0.34-1.89-1.55-3.61-3.4-3.13c-0.84,0.19-1.55,0.78-1.88,1.5
	c0.09-0.24,0.23-0.62,0.31-0.85c0.27-0.79,0.89-2.79,1.14-3.6c0,0,5.29,1.79,5.29,1.79C1093.93,644.74,1077.83,668.14,1053.7,666.62
	L1053.7,666.62z"/>
<path class="st3" d="M1336.88,835.35c0,0-5.78-96.48,31.82-116.14c37.6-19.66,35.22,85.82,35.22,85.82l-59.48,30.32H1336.88z"/>
<path class="st120" d="M1343.68,835.35c0,0-5.25-96.07,28.73-115.53c33.98-19.46,31.83,84.95,31.83,84.95L1343.68,835.35z"/>
<path class="st65" d="M1353.02,821.16c0,0-3.99-72.95,21.81-87.72c25.8-14.78,24.17,64.5,24.17,64.5L1353.02,821.16z"/>
<polygon class="st120" points="1376.81,729.25 1375.91,814.96 1383.3,811.33 1382.57,727.22 "/>
<g>
	<polygon class="st3" points="1332.11,971.88 1341.04,938.61 1333.18,938.57 1298.88,956.36 1295.45,1095.17 1303.31,1095.21 
		1304.85,1088.16 1328.94,1070.2 	"/>
	<polygon class="st120" points="1306.75,956.4 1341.04,938.61 1336.8,1070.24 1303.31,1095.21 	"/>
	<polygon class="st65" points="1313.22,965.41 1335.93,951.87 1332.22,1067.2 1310.09,1083.86 	"/>
	<polygon class="st120" points="1322.11,955.95 1319.21,1078.19 1324.16,1075.18 1327.02,954.36 	"/>
	<polygon class="st120" points="1308.81,1027.81 1338.08,1013.44 1335.19,1009.44 1306.26,1023.64 	"/>
</g>
<g>
	<polygon class="st3" points="1422,934.82 1429.76,905.92 1422.93,905.89 1393.13,921.34 1390.15,1041.92 1396.98,1041.95 
		1398.32,1035.83 1419.24,1020.23 	"/>
	<polygon class="st120" points="1399.96,921.38 1429.76,905.92 1426.07,1020.26 1396.98,1041.95 	"/>
	<polygon class="st65" points="1405.59,929.2 1425.32,917.43 1422.09,1017.62 1402.87,1032.09 	"/>
	<polygon class="st120" points="1413.31,920.98 1410.79,1027.17 1415.09,1024.55 1417.57,919.6 	"/>
	<polygon class="st120" points="1401.76,983.41 1427.19,970.92 1424.67,967.44 1399.54,979.78 	"/>
</g>
<g>
	<polygon class="st3" points="1332.11,1183.34 1341.04,1150.07 1333.18,1150.03 1298.88,1167.83 1295.45,1306.63 1303.31,1306.67 
		1304.85,1299.62 1328.94,1281.66 	"/>
	<polygon class="st120" points="1306.75,1167.86 1341.04,1150.07 1336.8,1281.7 1303.31,1306.67 	"/>
	<polygon class="st65" points="1313.22,1176.87 1335.93,1163.33 1332.22,1278.66 1310.09,1295.32 	"/>
	<polygon class="st120" points="1322.11,1167.41 1319.21,1289.65 1324.16,1286.64 1327.02,1165.82 	"/>
	<polygon class="st120" points="1308.81,1239.27 1338.08,1224.9 1335.19,1220.9 1306.26,1235.1 	"/>
</g>
<g>
	<polygon class="st3" points="1422,1146.28 1429.76,1117.38 1422.93,1117.35 1393.13,1132.8 1390.15,1253.38 1396.98,1253.41 
		1398.32,1247.29 1419.24,1231.69 	"/>
	<polygon class="st120" points="1399.96,1132.84 1429.76,1117.38 1426.07,1231.72 1396.98,1253.41 	"/>
	<polygon class="st65" points="1405.59,1140.66 1425.32,1128.89 1422.09,1229.08 1402.87,1243.55 	"/>
	<polygon class="st120" points="1413.31,1132.44 1410.79,1238.63 1415.09,1236.01 1417.57,1131.06 	"/>
	<polygon class="st120" points="1401.76,1194.87 1427.19,1182.38 1424.67,1178.9 1399.54,1191.24 	"/>
</g>
<polygon class="st248" points="875.7,984.32 968.35,922.24 974.59,923.53 878.03,990.19 "/>
<g>
	<path class="st254" d="M554.19,649.64c22.52-3.01,35.01-25.06,42.02-44.57c1.31-3.33,6.21-1.74,5.31,1.73c0,0-0.73,2.51-0.73,2.51
		c-0.3,0.92-0.59,2.12-1.03,2.96c-1.54,2.71-5.66,1.36-5.26-1.77c0.02-0.17,0.07-0.39,0.11-0.55c0.44-1.67,1.01-3.31,1.62-4.92
		c1.36-3.27,6.16-1.66,5.29,1.77c-1.46,5.04-2.53,10.2-3.04,15.42c-0.93,10.58-0.33,24.15,8.73,31.18c3.5,2.57,7.67,3.91,11.94,4.79
		c-7.03,0.12-14.45-2.12-18.88-7.88c-9.32-11.97-8-31.22-4.12-45.06c0,0,5.29,1.76,5.29,1.76c-0.42,1.14-0.82,2.3-1.16,3.46
		c-0.06,0.23-0.18,0.63-0.23,0.85c0,0,0.01-0.04,0.01-0.04c0.32-1.89-1.6-3.6-3.44-3.09c-0.84,0.2-1.54,0.8-1.86,1.53
		c0.09-0.25,0.22-0.62,0.3-0.86c0.26-0.79,0.86-2.8,1.1-3.61c0,0,5.31,1.72,5.31,1.72C594.15,627.27,578.34,650.86,554.19,649.64
		L554.19,649.64z"/>
	<path class="st254" d="M608.98,569.05c22.52-3.01,35.01-25.06,42.02-44.57c1.31-3.33,6.21-1.74,5.31,1.73c0,0-0.73,2.51-0.73,2.51
		c-0.3,0.92-0.59,2.12-1.03,2.96c-1.54,2.71-5.66,1.36-5.26-1.77c0.02-0.17,0.07-0.39,0.11-0.55c0.44-1.67,1.01-3.31,1.62-4.92
		c1.36-3.27,6.16-1.66,5.29,1.77c-1.46,5.04-2.53,10.2-3.04,15.42c-0.93,10.58-0.33,24.15,8.73,31.18c3.5,2.57,7.67,3.91,11.94,4.79
		c-7.03,0.12-14.45-2.12-18.88-7.88c-9.32-11.97-8-31.22-4.12-45.06c0,0,5.29,1.76,5.29,1.76c-0.42,1.14-0.82,2.3-1.16,3.46
		c-0.06,0.23-0.18,0.63-0.23,0.85c0,0,0.01-0.04,0.01-0.04c0.32-1.89-1.6-3.6-3.44-3.09c-0.84,0.2-1.54,0.8-1.86,1.53
		c0.09-0.24,0.22-0.62,0.3-0.86c0.26-0.79,0.86-2.8,1.1-3.61c0,0,5.31,1.72,5.31,1.72C648.94,546.68,633.14,570.27,608.98,569.05
		L608.98,569.05z"/>
	<path class="st254" d="M671.48,497.27c22.52-3.01,35.01-25.06,42.02-44.57c1.31-3.33,6.21-1.74,5.31,1.73c0,0-0.73,2.51-0.73,2.51
		c-0.3,0.92-0.59,2.12-1.03,2.96c-1.54,2.71-5.66,1.36-5.26-1.77c0.02-0.17,0.07-0.39,0.11-0.55c0.44-1.67,1.01-3.31,1.62-4.92
		c1.36-3.27,6.16-1.66,5.29,1.77c-1.46,5.04-2.53,10.2-3.04,15.42c-0.93,10.58-0.33,24.15,8.73,31.18c3.5,2.57,7.67,3.91,11.94,4.79
		c-7.03,0.12-14.45-2.12-18.88-7.88c-9.32-11.97-8-31.22-4.12-45.06c0,0,5.29,1.76,5.29,1.76c-0.42,1.14-0.82,2.3-1.16,3.46
		c-0.06,0.23-0.18,0.63-0.23,0.85c0,0,0.01-0.04,0.01-0.04c0.32-1.89-1.6-3.6-3.44-3.09c-0.84,0.2-1.54,0.8-1.86,1.53
		c0.09-0.25,0.22-0.62,0.3-0.86c0.26-0.79,0.86-2.8,1.1-3.61c0,0,5.31,1.72,5.31,1.72C711.44,474.9,695.63,498.49,671.48,497.27
		L671.48,497.27z"/>
	<path class="st130" d="M625.71,820.77l220.15-13.81l0.52,1.94c1.16,4.31,0.31,8.99-2.26,12.44c-3.81,5.13-8.51,8.26-13.51,8.89
		L597.03,859.4L625.71,820.77z"/>
	<path class="st246" d="M726.99,321.88c0,0,28.93-24.65,57.78-70.2l18.65-0.23l55.09,65.6l-45.75,46.19L726.99,321.88z"/>
	<polygon class="st249" points="812.86,371.85 791.95,254.47 809.15,258.29 871.93,329.46 	"/>
	<polygon class="st250" points="986.4,1017.11 990.15,1323.37 896.77,1436.03 865.33,1211.46 868.11,694.77 992.58,632.88 	"/>
	<polygon class="st248" points="892.57,1282.34 988.99,1205.38 995.24,1206.58 894.97,1288.18 	"/>
	<polygon class="st251" points="886.78,1296.05 995.24,1206.58 996.97,1347.29 906.9,1432.57 	"/>
	<polygon class="st251" points="855.55,999.35 988.19,907.7 986.44,1040.14 857.28,1141 	"/>
	<path class="st8" d="M665.67,976.93c2.83,1.04,161.28,63.76,161.28,63.76L838.6,1372l-164.38-67.36L665.67,976.93z"/>
	<polygon class="st247" points="690.43,1274.67 826.96,1323.21 816.52,1339.91 688.09,1294.43 	"/>
	<polygon class="st246" points="693.16,1282.65 830.52,1332.11 815.26,1385.28 688.63,1338.48 	"/>
	<path class="st247" d="M783.35,1418.39c0,0,11.22-5.17,19.78-0.69s73.61-3.4,73.61-3.4l33.5-22.89c0,0,8.1-1.14,8.14,2.37
		c0.04,3.51-51.56,69.9-51.56,69.9L783.35,1418.39z"/>
	<path class="st247" d="M583.96,1342.76c0,0,4.39-3.63,15.52,0.62s70.75,4.48,70.75,4.48l23.6-11.23l123.68,44.21l-45.34,7.37
		l-97.12-16.5l-24.81,18l-66.05-28.36L583.96,1342.76z"/>
	<path class="st246" d="M657.22,1304.85c0,0,26.92-12.83,35.93-22.2c8.5-8.83,0.96-20.58,0.96-20.58l-0.36-24.13l-31.94,14.31
		C661.82,1252.25,645.42,1296.03,657.22,1304.85z"/>
	<path class="st246" d="M901.53,1285.19l-0.78,17.31c0,0,20.76,17.5,8.81,33.91c-11.95,16.42-46.08,43.24-46.08,43.24
		s-34.48-24.54-22.72-36.16c11.76-11.62,26.34-32.18,26.34-32.18S892.23,1284.27,901.53,1285.19z"/>
	<path class="st249" d="M695.48,1023.91c0,0,24.07-26.36,71.48-0.88s-36.93-44.74-86.39-33.85c-49.46,10.89-13.9,47.55-13.9,47.55
		S694.42,1034.44,695.48,1023.91z"/>
	<path class="st9" d="M865.74,1312.86l35.79-27.67c0,0-4.84-34.32-16.59-56c-10.31-19.01,10.84-133.45,10.84-133.45l-42.19,30
		L865.74,1312.86z"/>
	<path class="st9" d="M669.05,1252.16l24.71-14.22c0,0,2.66-28.98-9.26-54.35c-9.19-19.57,5.98-131.89,5.98-131.89l-36.68,13.37
		L669.05,1252.16z"/>
	<path class="st245" d="M619.68,1043.23c0,0,7.92,149.36-0.82,162.38c-8.74,13.02,0.37,30.12,0.37,30.12l49.82,16.43l-9.92-191.23
		L619.68,1043.23z"/>
	<path class="st245" d="M817.81,1104.39c0,0,7.92,149.36-0.82,162.38s0.37,30.12,0.37,30.12l49.82,16.43l-9.92-191.23
		L817.81,1104.39z"/>
	<path class="st246" d="M666.67,1036.73c0,0,31.05-38.82,71.07-24.89c40.02,13.93,55.65,52.62,59.95,65.65
		c4.3,13.03,60.31,19.2,60.31,19.2l-0.97-79.54l-60.66-47.82l-118.67-33.88l-68.32,8.22l1.43,78.02L666.67,1036.73z"/>
	<path class="st8" d="M649.12,957.76l22.05-22.24l131.8,40.2l12.97,31.93l28.19-311.59l-198.67-36.3l-42.2,144.57
		C603.27,804.33,597.28,932.57,649.12,957.76z"/>
	<path class="st249" d="M667.94,915.63c0,0-30.17-181.91,46.43-201.85s-36.94-25.17-36.94-25.17l-41.37,75.55l-6.62,119l16.1,43.25
		C645.54,926.42,666.05,944.68,667.94,915.63z"/>
	<path class="st246" d="M584.91,683.81l5.27,227.45l54.21,12.16c0,0-23.92-166.63,46.46-214.36L584.91,683.81z"/>
	<polyline class="st249" points="858.64,999.31 884.52,980.33 885.75,706.67 844.68,750.21 859.18,996.79 	"/>
	<polygon class="st248" points="672.58,911.39 840.05,957.57 808.82,984.74 672.96,942.16 	"/>
	<path class="st246" d="M858.54,694.89l1.09,291.59l-53.9,13.48c0,0,19.28-230.73-52.24-276.72L858.54,694.89z"/>
	<polygon class="st246" points="753.54,220.27 790.77,158.36 834.82,219.27 796.79,237.55 	"/>
	<polygon class="st10" points="528.94,652.58 543.23,677.15 870.14,749.9 1034.73,629.52 1042.8,605.51 848.42,704.26 
		611.38,637.77 	"/>
	<path class="st252" d="M733.34,786.19c0,0-41.48-1.6-46.4,37.07c-4.92,38.66,24.37,53.55,40.77,57.18
		c16.39,3.63,45.25-6.04,50.52-32.92C783.5,820.63,766.86,788.8,733.34,786.19z"/>
	<path class="st3" d="M726.87,783.72c0,0-41.48-1.6-46.4,37.07c-4.92,38.66,24.37,53.55,40.77,57.18
		c16.39,3.63,45.25-6.04,50.52-32.92S760.39,786.32,726.87,783.72z"/>
	<path class="st65" d="M726.73,795.34c19.46,1.51,31.37,16.07,34.04,31.95l-68.66-6.62C697.34,794.21,726.73,795.34,726.73,795.34z"
		/>
	<path class="st65" d="M760.63,841.65c-3.25,16.57-18.35,24.47-30.53,25.34l-0.72-30.61l31.48,3.9
		C760.79,840.74,760.72,841.2,760.63,841.65z"/>
	<path class="st65" d="M719.09,835.1l-0.2,30.46c-11.2-3.52-26.63-13.17-27.56-33.9L719.09,835.1z"/>
	<path class="st252" d="M691.69,823.33c0.12-0.92,0.26-1.8,0.43-2.66l68.66,6.62c0.72,4.31,0.77,8.72,0.09,12.99l-31.48-3.9
		l-0.27-11.46l-9.97,0.13l-0.06,10.05l-27.76-3.44C691.21,829.05,691.31,826.29,691.69,823.33z"/>
	<path class="st252" d="M730.05,825.88l0.06,41.11c-2.75,0.2-5.35,0.03-7.63-0.47c-1.12-0.25-2.33-0.57-3.58-0.96l0.26-40.51
		L730.05,825.88z"/>
	<polygon class="st3" points="761.34,824.83 691.26,818.08 689.87,828.97 764.44,838.22 	"/>
	<polygon class="st3" points="725.62,873.79 726.69,825.17 716.72,824.85 714.27,872.06 	"/>
	<path class="st252" d="M854.98,653.96l14.9,74.06l172.93-122.51l-54.27-28.51C988.53,577.01,866.22,634.46,854.98,653.96z"/>
	<path class="st244" d="M854.98,653.96l14.9,74.06l-340.94-75.44l53.26-43.69C582.2,608.89,813.44,600.67,854.98,653.96z"/>
	<path class="st120" d="M813.74,350.23c-4.79-17.14,4.35-39.47,21.93-42.23l0,0c8.84-1.39,19.85,6.12,26.48,12.13
		c28.44,25.75,102.93,105.96,126.38,256.88l-133.55,76.96C854.98,653.96,851.37,484.98,813.74,350.23z"/>
	<path class="st124" d="M854.98,653.96L582.2,608.89c0,0,34.43-172.82,131.79-275.87c15.59-16.5,37.51-25.87,60.18-24.91
		c15.94,0.67,31.63,6.4,37.06,24.68C823.64,374.55,860.84,430.09,854.98,653.96z"/>
	<polygon class="st249" points="753.54,220.27 780.07,258.68 793.27,261.87 809.15,258.29 834.82,219.27 802.39,226.54 	"/>
	<polygon class="st247" points="795.87,165.4 790.04,98.83 786.47,165.52 	"/>
	<polygon class="st248" points="796.36,969.32 796.82,1006.85 861.92,1024.71 861.44,985.66 	"/>
	<polygon class="st248" points="587.66,908.06 588.05,940.05 645.77,959.96 645.32,923.4 	"/>
	<path class="st249" d="M861.92,1024.71l43.44-31.83l-0.44-36.1l-43.47,28.88C861.44,985.66,853.5,1010.93,861.92,1024.71z"/>
	<path class="st249" d="M860.87,1134.73l38.77-35.8l-0.37-30.54l-38.86,28.75C860.41,1097.14,852.46,1120.95,860.87,1134.73z"/>
	<polygon class="st248" points="783.35,1418.39 783.88,1461.9 869.43,1497.2 868.87,1451.3 	"/>
	<polygon class="st248" points="583.96,1342.76 584.42,1380.16 657.96,1410.49 657.47,1371.04 	"/>
	<polygon class="st248" points="788.56,1073.89 789.11,1109.97 860.87,1134.73 860.41,1097.14 	"/>
	<polygon class="st248" points="596.31,1014.32 596.45,1047.46 667.11,1071.84 666.67,1036.73 	"/>
	<polygon class="st249" points="657.96,1410.49 702.25,1375.79 699.62,1342.78 657.47,1371.04 	"/>
	<path class="st248" d="M699.62,1342.78l108.83,41.83c0,0-0.54,18.88-6.85,21.11l0.14,11.48l-100.8-40.43L699.62,1342.78z"/>
	<polygon class="st249" points="868.87,1451.3 918.38,1393.78 918.87,1433.95 869.43,1497.2 	"/>
	<polygon class="st249" points="667.11,1071.84 695.85,1054.03 695.48,1023.91 666.67,1036.73 	"/>
	<polygon class="st249" points="645.77,959.96 672.96,942.16 672.58,911.39 645.32,923.4 	"/>
	<polygon class="st246" points="597.85,1342.81 656.05,1363.2 657.22,1304.85 600.69,1285.22 	"/>
	<polygon class="st246" points="801.74,1417.2 864.22,1440.04 863.48,1379.65 800.81,1356.89 	"/>
	<path class="st248" d="M619.23,1235.73l0.16,12.91c0,0-30.46,10.42-18.7,36.58c0,0,25.15,16.79,56.53,19.63
		c0,0-1.9-26.88,12.01-37.69l-0.18-15L619.23,1235.73z"/>
	<path class="st248" d="M817.36,1296.9l0.08,10.89c0,0-37.33,12.77-16.64,49.1c0,0,53,22.43,62.67,22.76c0,0-20.43-30.81,3.91-45.64
		l-0.28-22.71L817.36,1296.9z"/>
	<polygon class="st249" points="864.22,1440.04 910.24,1391.41 909.56,1336.42 863.48,1379.65 	"/>
	<path class="st249" d="M656.05,1363.2l37.77-26.58l-0.66-53.97l-35.93,22.2C657.22,1304.85,654.62,1355.37,656.05,1363.2z"/>
	<path class="st247" d="M596.31,1014.32c0,0,10.4-2.85,14.36-0.18c3.96,2.68,55.56,16.81,55.56,16.81l0.44,5.77L596.31,1014.32z"/>
	<path class="st247" d="M788.56,1073.89l71.85,23.25l38.86-28.75c0,0-12.8-2.71-19.37,3.43c-3.8,3.55-21.98,18.24-21.98,18.24
		S797.57,1067.49,788.56,1073.89z"/>
	<path class="st247" d="M587.66,908.06l57.66,15.34l27.27-12.02l135.38,37.34l0.09-7.5l-135.54-35.16l-28.87,11.38
		C643.65,917.45,597.42,904.36,587.66,908.06z"/>
	<path class="st247" d="M796.36,969.32l65.07,16.34l43.47-28.88c0,0-15.75-1.6-21.4,6.36c-5.64,7.96-23.12,15.71-23.12,15.71
		S808.01,961.46,796.36,969.32z"/>
	<polygon class="st252" points="716.76,1081.82 712.38,1082.48 716.95,1091.52 719.88,1169.72 764.44,1185.45 767.29,1191.09 
		770.87,1189.59 772.87,1097.08 	"/>
	<polygon class="st3" points="715.76,1172.9 767.29,1191.09 768.77,1099.03 712.38,1082.48 	"/>
	<polygon class="st65" points="743.13,1174.31 758.54,1179.77 759,1144.97 743.14,1140.33 	"/>
	<polygon class="st65" points="738.64,1100.14 719.34,1093.82 720.59,1129.76 739.07,1134.73 	"/>
	<polygon class="st65" points="720.73,1133.78 721.88,1166.8 739.54,1173.04 739.12,1139.16 	"/>
	<polygon class="st65" points="759.06,1140.11 759.5,1106.96 743.14,1101.61 743.14,1135.82 	"/>
	<polygon class="st252" points="743.14,1135.82 743.14,1101.61 738.64,1100.14 739.07,1134.73 	"/>
	<polygon class="st252" points="739.12,1139.16 739.54,1173.04 743.13,1174.31 743.14,1140.33 	"/>
	<polygon class="st252" points="739.07,1134.73 720.59,1129.76 720.73,1133.78 739.12,1139.16 	"/>
	<polygon class="st252" points="743.14,1135.82 743.14,1140.33 759,1144.97 759.06,1140.11 	"/>
	<polygon class="st252" points="738.93,1139.32 743.4,1140.57 743.41,1135.76 738.87,1134.59 	"/>
	<polygon class="st3" points="737.12,1096.31 738.06,1173.15 741.62,1174.68 741.63,1097.1 	"/>
	<polygon class="st3" points="764.17,1139.54 718.78,1127.32 716.99,1130.77 762.58,1144.11 	"/>
	<path class="st254" d="M596.84,594.84c29.51-3.94,45.88-32.83,55.05-58.39c1.72-4.37,8.13-2.27,6.96,2.27c0,0-0.96,3.29-0.96,3.29
		c-0.39,1.2-0.78,2.78-1.35,3.88c-2.02,3.55-7.41,1.78-6.9-2.32c0.02-0.23,0.09-0.51,0.14-0.72c0.57-2.19,1.33-4.34,2.13-6.45
		c1.78-4.28,8.08-2.17,6.93,2.31c-1.91,6.6-3.31,13.37-3.98,20.2c-1.22,13.87-0.43,31.64,11.44,40.85
		c4.59,3.36,10.05,5.12,15.64,6.28c-9.21,0.16-18.93-2.78-24.74-10.32c-12.21-15.68-10.48-40.91-5.39-59.03c0,0,6.93,2.31,6.93,2.31
		c-0.56,1.49-1.08,3.02-1.52,4.53c-0.08,0.3-0.24,0.83-0.3,1.11c0,0,0.01-0.06,0.01-0.06c0.42-2.48-2.09-4.71-4.51-4.05
		c-1.1,0.27-2.02,1.05-2.44,2c0.12-0.32,0.29-0.81,0.39-1.12c0.34-1.04,1.12-3.66,1.44-4.73c0,0,6.96,2.26,6.96,2.26
		C649.2,565.53,628.49,596.44,596.84,594.84L596.84,594.84z"/>
	<path class="st254" d="M678.08,606.71c29.51-3.94,45.88-32.83,55.05-58.39c1.72-4.37,8.13-2.27,6.96,2.27c0,0-0.96,3.29-0.96,3.29
		c-0.39,1.2-0.78,2.78-1.35,3.88c-2.02,3.55-7.41,1.78-6.9-2.32c0.02-0.23,0.09-0.51,0.14-0.72c0.57-2.19,1.33-4.34,2.13-6.45
		c1.78-4.28,8.08-2.17,6.93,2.31c-1.91,6.6-3.31,13.37-3.98,20.2c-1.22,13.87-0.43,31.64,11.44,40.85
		c4.59,3.36,10.05,5.12,15.64,6.28c-9.21,0.16-18.93-2.78-24.74-10.32c-12.21-15.68-10.48-40.91-5.39-59.03c0,0,6.93,2.31,6.93,2.31
		c-0.56,1.49-1.08,3.02-1.52,4.53c-0.08,0.3-0.24,0.83-0.3,1.11c0,0,0.01-0.06,0.01-0.06c0.42-2.48-2.09-4.71-4.51-4.05
		c-1.1,0.27-2.01,1.05-2.44,2c0.12-0.32,0.29-0.81,0.39-1.12c0.34-1.04,1.12-3.66,1.44-4.73c0,0,6.96,2.26,6.96,2.26
		C730.44,577.4,709.73,608.31,678.08,606.71L678.08,606.71z"/>
	<path class="st254" d="M763.19,618.53c29.51-3.94,45.88-32.83,55.05-58.39c1.72-4.37,8.13-2.27,6.96,2.27c0,0-0.96,3.29-0.96,3.29
		c-0.39,1.2-0.78,2.78-1.35,3.88c-2.02,3.55-7.41,1.78-6.9-2.32c0.02-0.23,0.09-0.51,0.14-0.72c0.57-2.19,1.33-4.34,2.13-6.45
		c1.78-4.28,8.08-2.17,6.93,2.31c-1.91,6.6-3.31,13.37-3.98,20.2c-1.22,13.87-0.43,31.64,11.44,40.85
		c4.59,3.36,10.05,5.12,15.64,6.28c-9.21,0.16-18.93-2.78-24.74-10.32c-12.21-15.68-10.48-40.91-5.39-59.03c0,0,6.93,2.31,6.93,2.31
		c-0.56,1.49-1.08,3.02-1.52,4.53c-0.08,0.3-0.24,0.83-0.3,1.11c0,0,0.01-0.06,0.01-0.06c0.42-2.48-2.09-4.71-4.51-4.05
		c-1.1,0.27-2.01,1.05-2.44,2c0.12-0.32,0.29-0.81,0.39-1.12c0.34-1.04,1.12-3.66,1.44-4.73c0,0,6.96,2.26,6.96,2.26
		C815.54,589.22,794.83,620.12,763.19,618.53L763.19,618.53z"/>
	<path class="st254" d="M651.57,518.7c29.02-6.66,42.64-36.93,49.41-63.23c1.31-4.51,7.89-3.02,7.14,1.61c0,0-0.65,3.36-0.65,3.36
		c-0.28,1.23-0.52,2.84-0.99,3.99c-1.68,3.72-7.22,2.46-7.08-1.67c0-0.23,0.05-0.51,0.07-0.73c0.37-2.23,0.92-4.44,1.52-6.62
		c1.37-4.43,7.84-2.91,7.12,1.66c-1.29,6.75-2.06,13.62-2.09,20.49c0.07,13.92,2.5,31.54,15.17,39.61
		c4.88,2.92,10.48,4.17,16.16,4.8c-9.16,1.01-19.1-1.02-25.59-7.99c-13.61-14.48-14.22-39.76-10.83-58.28c0,0,7.12,1.66,7.12,1.66
		c-0.42,1.53-0.79,3.1-1.1,4.66c-0.05,0.3-0.16,0.85-0.19,1.14c0,0,0-0.06,0-0.06c0.18-2.5-2.52-4.5-4.87-3.61
		c-1.07,0.37-1.91,1.23-2.24,2.22c0.08-0.33,0.21-0.83,0.28-1.15c0.24-1.06,0.78-3.75,0.99-4.84c0,0,7.14,1.6,7.14,1.6
		C700.98,484.67,683.22,517.36,651.57,518.7L651.57,518.7z"/>
	<path class="st254" d="M740.1,522.55c29.02-6.66,42.64-36.93,49.41-63.23c1.31-4.51,7.89-3.02,7.14,1.61c0,0-0.65,3.36-0.65,3.36
		c-0.28,1.23-0.52,2.84-0.99,3.99c-1.68,3.72-7.22,2.46-7.08-1.67c0-0.23,0.05-0.51,0.07-0.73c0.37-2.23,0.92-4.44,1.52-6.62
		c1.37-4.43,7.84-2.91,7.12,1.66c-1.29,6.75-2.06,13.62-2.09,20.49c0.07,13.92,2.5,31.54,15.17,39.61
		c4.88,2.92,10.48,4.17,16.16,4.8c-9.16,1.01-19.1-1.02-25.59-7.99c-13.61-14.48-14.22-39.76-10.83-58.28c0,0,7.12,1.66,7.12,1.66
		c-0.42,1.53-0.79,3.1-1.1,4.66c-0.05,0.3-0.16,0.85-0.19,1.14c0,0,0-0.06,0-0.06c0.18-2.5-2.52-4.5-4.87-3.61
		c-1.07,0.37-1.91,1.23-2.24,2.22c0.08-0.33,0.21-0.83,0.28-1.15c0.24-1.06,0.78-3.75,0.99-4.84c0,0,7.14,1.6,7.14,1.6
		C789.51,488.53,771.75,521.22,740.1,522.55L740.1,522.55z"/>
	<path class="st254" d="M707.01,430.69c28.91-7.12,42.05-37.61,48.4-64.01c1.23-4.53,7.84-3.14,7.16,1.5c0,0-0.59,3.37-0.59,3.37
		c-0.26,1.23-0.47,2.85-0.92,4.01c-1.62,3.74-7.18,2.57-7.11-1.56c0-0.23,0.04-0.51,0.06-0.74c0.33-2.24,0.85-4.46,1.41-6.64
		c1.3-4.45,7.79-3.03,7.14,1.55c-1.18,6.77-1.84,13.65-1.77,20.52c0.29,13.92,3,31.5,15.8,39.37c4.93,2.85,10.54,4,16.23,4.55
		c-9.14,1.15-19.12-0.72-25.71-7.58c-13.84-14.26-14.85-39.53-11.76-58.1c0,0,7.14,1.54,7.14,1.54c-0.39,1.54-0.74,3.11-1.02,4.67
		c-0.05,0.3-0.15,0.85-0.18,1.14c0,0,0-0.06,0-0.06c0.14-2.51-2.59-4.46-4.92-3.54c-1.06,0.38-1.89,1.26-2.21,2.25
		c0.08-0.33,0.2-0.84,0.26-1.16c0.22-1.07,0.72-3.76,0.92-4.86c0,0,7.16,1.49,7.16,1.49C755.87,395.88,738.64,428.85,707.01,430.69
		L707.01,430.69z"/>
	<path class="st254" d="M864.33,631.06c20.99-21.11,16.36-53.99,8.05-79.84c-1.3-4.51,5.06-6.76,6.9-2.44c0,0,1.25,3.19,1.25,3.19
		c0.42,1.19,1.08,2.68,1.3,3.9c0.56,4.04-4.79,5.93-6.88,2.37c-0.12-0.2-0.23-0.46-0.33-0.66c-0.88-2.08-1.59-4.25-2.24-6.41
		c-1.2-4.48,5.08-6.64,6.91-2.39c2.51,6.4,5.52,12.62,9.16,18.45c7.48,11.74,18.94,25.34,33.97,25.41
		c5.69-0.13,11.09-2.06,16.23-4.56c-7.21,5.74-16.7,9.33-25.9,6.9c-19.24-4.99-33.24-26.05-40.25-43.51c0,0,6.9-2.4,6.9-2.4
		c0.47,1.52,0.98,3.05,1.56,4.52c0.12,0.28,0.32,0.81,0.44,1.07c0,0-0.03-0.05-0.03-0.05c-1.18-2.22-4.53-2.46-6.04-0.46
		c-0.71,0.88-0.96,2.06-0.72,3.07c-0.1-0.32-0.27-0.82-0.38-1.13c-0.37-1.03-1.34-3.59-1.74-4.63c0,0,6.89-2.45,6.89-2.45
		C887.97,575.91,890.39,613.04,864.33,631.06L864.33,631.06z"/>
	<path class="st254" d="M866.11,533.26c18.95-22.96,11.3-55.27,0.63-80.25c-1.71-4.37,4.41-7.2,6.64-3.07c0,0,1.54,3.06,1.54,3.06
		c0.53,1.15,1.32,2.56,1.65,3.77c0.94,3.97-4.22,6.35-6.63,2.99c-0.14-0.18-0.27-0.43-0.39-0.63c-1.07-1.99-1.98-4.08-2.83-6.17
		c-1.61-4.35,4.44-7.09,6.65-3.02c3.09,6.14,6.67,12.05,10.83,17.52c8.54,11,21.21,23.48,36.17,22.16
		c5.65-0.66,10.85-3.08,15.74-6.04c-6.65,6.38-15.77,10.83-25.15,9.26c-19.62-3.19-35.51-22.86-44.11-39.6c0,0,6.65-3.02,6.65-3.02
		c0.6,1.47,1.26,2.94,1.97,4.36c0.14,0.27,0.39,0.77,0.54,1.02c0,0-0.03-0.05-0.03-0.05c-1.38-2.1-4.74-2.03-6.06,0.1
		c-0.62,0.94-0.76,2.14-0.43,3.13c-0.13-0.31-0.34-0.79-0.48-1.09c-0.46-0.99-1.67-3.45-2.16-4.45c0,0,6.64-3.08,6.64-3.08
		C884.55,476.16,890.39,512.9,866.11,533.26L866.11,533.26z"/>
	<g>
		<defs>
			<path id="SVGID_00000020376503144176665900000008112078161426338725_" d="M813.74,350.23c-4.79-17.14,4.35-39.47,21.93-42.23l0,0
				c8.84-1.39,19.85,6.12,26.48,12.13c28.44,25.75,102.93,105.96,126.38,256.88l-133.55,76.96
				C854.98,653.96,851.37,484.98,813.74,350.23z"/>
		</defs>
		<clipPath id="SVGID_00000182511882000888834770000018140088903531823007_">
			<use xlink:href="#SVGID_00000020376503144176665900000008112078161426338725_"  style="overflow:visible;"/>
		</clipPath>
		<path style="clip-path:url(#SVGID_00000182511882000888834770000018140088903531823007_);fill:#6D407C;" d="M935.98,590.96
			c20.99-21.11,16.36-53.99,8.05-79.84c-1.3-4.51,5.06-6.76,6.9-2.44c0,0,1.25,3.19,1.25,3.19c0.42,1.19,1.08,2.68,1.3,3.9
			c0.56,4.04-4.79,5.93-6.88,2.37c-0.12-0.2-0.23-0.46-0.33-0.66c-0.88-2.08-1.59-4.25-2.24-6.41c-1.2-4.48,5.08-6.64,6.91-2.39
			c2.51,6.4,5.52,12.62,9.16,18.45c7.48,11.74,18.94,25.34,33.97,25.41c5.69-0.13,11.09-2.06,16.23-4.56
			c-7.21,5.74-16.7,9.33-25.9,6.9c-19.24-4.99-33.24-26.05-40.25-43.51c0,0,6.9-2.4,6.9-2.4c0.47,1.52,0.98,3.05,1.56,4.52
			c0.12,0.28,0.32,0.81,0.44,1.07c0,0-0.03-0.05-0.03-0.05c-1.18-2.22-4.53-2.46-6.04-0.46c-0.71,0.88-0.96,2.06-0.72,3.07
			c-0.1-0.32-0.27-0.82-0.38-1.13c-0.37-1.03-1.34-3.59-1.74-4.63c0,0,6.89-2.45,6.89-2.45
			C959.62,535.81,962.04,572.94,935.98,590.96L935.98,590.96z"/>
		<path style="clip-path:url(#SVGID_00000182511882000888834770000018140088903531823007_);fill:#6D407C;" d="M933.85,486.44
			c18.95-22.96,11.3-55.27,0.63-80.25c-1.71-4.37,4.41-7.2,6.64-3.07c0,0,1.54,3.06,1.54,3.06c0.53,1.15,1.32,2.57,1.65,3.77
			c0.94,3.97-4.22,6.35-6.63,2.99c-0.14-0.18-0.27-0.43-0.39-0.63c-1.07-1.99-1.98-4.08-2.83-6.17c-1.61-4.35,4.44-7.09,6.65-3.02
			c3.09,6.14,6.67,12.05,10.83,17.52c8.54,11,21.21,23.48,36.17,22.16c5.65-0.66,10.85-3.08,15.74-6.04
			c-6.65,6.38-15.77,10.83-25.15,9.26c-19.62-3.19-35.51-22.86-44.11-39.6c0,0,6.65-3.02,6.65-3.02c0.6,1.47,1.26,2.94,1.97,4.36
			c0.14,0.27,0.39,0.77,0.54,1.02c0,0-0.03-0.05-0.03-0.05c-1.38-2.1-4.74-2.03-6.06,0.1c-0.62,0.94-0.76,2.14-0.43,3.13
			c-0.13-0.31-0.34-0.79-0.48-1.09c-0.46-0.99-1.67-3.45-2.16-4.45c0,0,6.64-3.08,6.64-3.08
			C952.28,429.34,958.13,466.09,933.85,486.44L933.85,486.44z"/>
		<path style="clip-path:url(#SVGID_00000182511882000888834770000018140088903531823007_);fill:#6D407C;" d="M859.92,432.04
			c18.58-23.26,10.41-55.44-0.65-80.25c-1.78-4.34,4.3-7.27,6.59-3.18c0,0,1.59,3.04,1.59,3.04c0.55,1.14,1.36,2.54,1.71,3.74
			c1,3.96-4.12,6.41-6.58,3.1c-0.14-0.18-0.28-0.43-0.4-0.62c-1.1-1.98-2.04-4.05-2.92-6.13c-1.68-4.32,4.33-7.16,6.61-3.13
			c3.19,6.09,6.86,11.94,11.1,17.34c8.71,10.86,21.58,23.14,36.52,21.58c5.64-0.75,10.8-3.25,15.64-6.29
			c-6.55,6.49-15.59,11.08-25,9.66c-19.67-2.87-35.87-22.29-44.73-38.89c0,0,6.6-3.13,6.6-3.13c0.63,1.46,1.31,2.92,2.04,4.33
			c0.15,0.27,0.4,0.77,0.56,1.01c0,0-0.03-0.05-0.03-0.05c-1.41-2.08-4.77-1.95-6.06,0.2c-0.61,0.95-0.73,2.15-0.38,3.13
			c-0.14-0.31-0.35-0.78-0.5-1.08c-0.47-0.98-1.72-3.42-2.23-4.41c0,0,6.59-3.18,6.59-3.18
			C877.44,374.66,883.87,411.3,859.92,432.04L859.92,432.04z"/>
	</g>
	<polygon class="st252" points="711.92,1231.93 705.29,1235.04 712.16,1251.54 713.76,1381.91 776.94,1407.26 779.82,1414.18 
		786.45,1411.07 784.55,1256.56 	"/>
	<polygon class="st3" points="707.13,1385.02 705.29,1235.04 777.93,1259.67 779.82,1414.18 	"/>
	
		<ellipse transform="matrix(0.1981 -0.9802 0.9802 0.1981 -682.8785 1807.8077)" class="st248" cx="763.39" cy="1321.24" rx="6.12" ry="7.09"/>
	
		<ellipse transform="matrix(0.1981 -0.9802 0.9802 0.1981 -681.9819 1804.444)" class="st247" cx="761.78" cy="1319.01" rx="2.26" ry="2.62"/>
</g>
<polygon class="st261" points="713.53,1239.71 715.12,1382.91 729.21,1389.7 730.27,1270.29 742.56,1274.67 737.97,1383.17 
	748.86,1383.71 754.04,1258.04 770.38,1262.29 770.38,1404.63 779.75,1408.37 777.93,1259.67 "/>
<path class="st11" d="M1523.43,1280.39c-16.11-22.86-6.06-35.14-8.31-41.41c0,0-18.16,18.79-9.85,34.62l-12.88-16.1
	c0,0,2.3-22.55-14.68-36.6c0,0,11,48.92,2.44,51.94c0,0-1.57-18.12-10.97-21.58c0,0,1.77,26.34,2.88,33.12
	C1476.19,1309.38,1531.04,1291.22,1523.43,1280.39z"/>
<path class="st11" d="M1395.79,1336.5c0,0-6.08-52.91,4.28-61.78c0,0,8.53,42.41,17.15,45.57c8.62,3.17,12.23-40.9,12.23-40.9
	s17.79,27.79,9.46,43C1430.58,1337.61,1395.79,1336.5,1395.79,1336.5z"/>
<path class="st11" d="M854.3,1491.72c0,0,6.08-52.91-4.28-61.78c0,0-8.53,42.41-17.15,45.57c-8.62,3.17-12.23-40.9-12.23-40.9
	s-17.79,27.79-9.46,43C819.51,1492.82,854.3,1491.72,854.3,1491.72z"/>
<path class="st11" d="M501.31,1157.08c0,0-4.93-45.17-15.22-50.59c0,0,0.91,36.89-5.66,41.15c-6.57,4.26-17.9-31.72-17.9-31.72
	s-9.56,26.48,0.24,37.56C472.57,1164.57,501.31,1157.08,501.31,1157.08z"/>
<path class="st11" d="M491.34,1152.6c0,0,24.47-19.93,24.69-31.01c0,0-2.21,26.03-12.35,35.44S491.34,1152.6,491.34,1152.6z"/>
<path class="st11" d="M659.11,1410.49c0,0,1.4-46.32-8.89-51.74c0,0,0.91,36.89-5.66,41.15s-17.9-31.72-17.9-31.72
	s-9.56,26.48,0.24,37.56S659.11,1410.49,659.11,1410.49z"/>
<path class="st11" d="M655.44,1401.04c0,0,18.64-23.16,24.69-31.01c0,0-7.87,28.62-18.01,38.04
	C651.99,1417.48,655.44,1401.04,655.44,1401.04z"/>
<path class="st11" d="M1237.72,1434.33c0,0,20.43-49.05,6.27-71.17c0,0-14.52,63.14-27.46,65.26c-7.73,1.26-17.9-31.72-17.9-31.72
	s-9.56,26.48,0.24,37.56C1208.68,1445.34,1237.72,1434.33,1237.72,1434.33z"/>
</svg>
