<svg version="1.2" xmlns="http://www.w3.org/2000/svg" viewBox="0 0 512 512" width="512" height="512">
	<title>lava_lake-svg</title>
	<style>
		.s0 { fill: #6c463a } 
		.s1 { fill: #5c3b31 } 
		.s2 { fill: #bf4722 } 
		.s3 { fill: #a7482b } 
		.s4 { fill: #845a4d } 
		.s5 { fill: #cd6140 } 
	</style>
	<path id="Layer" class="s0" d="m512 328.8c0 29.1-23.5 47.1-37.5 55.2-14.4 8.4-33.7 15.6-57.5 21.4-43.5 10.7-100.7 16.6-161 16.6-60.3 0-117.5-5.9-161-16.6-23.8-5.8-43.1-13-57.5-21.4-14-8.1-37.5-26.1-37.5-55.2 0-29.1 23.5-47.1 37.5-55.2 14.4-8.4 33.7-15.6 57.5-21.4 18.4-4.5 39.4-8.2 61.9-10.9 36.4-4.4 68.1-26.8 84.2-59.7l16.1-32.8c3.8-7.7 14.7-7.7 18.5 0l22.3 45.5 8.6 17.4v0.1l57-116c3.7-7.7 14.7-7.7 18.5 0l81.6 166.2c2.4 4.9 6.1 8.9 10.8 11.6 14 8.2 37.5 26.1 37.5 55.2z"/>
	<path id="Layer" class="s1" d="m512 328.8c0 29.1-23.5 47.1-37.5 55.2-12.3 7.1-28.1 13.4-47.2 18.7 10.6-3.8 19.8-8 27.7-12.5 13.9-8.2 37.4-26.1 37.4-55.2 0-29.1-23.5-47.1-37.4-55.2h-0.1c-4.7-2.7-8.4-6.8-10.8-11.6l-81.6-166.3q-0.5-0.9-1.1-1.7l2.2-4.4c3.7-7.7 14.7-7.7 18.5 0l81.6 166.2c2.4 4.8 6.1 8.9 10.8 11.6 14 8.1 37.5 26.1 37.5 55.2z"/>
	<ellipse id="Layer" class="s2" cx="256" cy="328.8" rx="197" ry="52"/>
	<path id="Layer" class="s3" d="m453 328.8c0 28.7-88.2 52-197 52-105 0-190.9-21.7-196.7-49 27.6 19.9 100 34.1 185 34.1 108.8 0 197.1-23.3 197.1-52q0-1.5-0.4-3c7.8 5.6 12 11.6 12 17.9z"/>
	<path id="Layer" class="s4" d="m377.8 237.9h-1c-4.3 0-7.8-3.5-7.8-7.8 0-4.2 3.5-7.7 7.8-7.7h1c4.3 0 7.7 3.5 7.7 7.7 0 4.3-3.4 7.8-7.7 7.8z"/>
	<path id="Layer" class="s4" d="m244.2 242.6h-1.1c-4.3 0-7.7-3.4-7.7-7.7 0-4.3 3.4-7.7 7.7-7.7h1.1c4.2 0 7.7 3.4 7.7 7.7 0 4.3-3.5 7.7-7.7 7.7z"/>
	<path id="Layer" class="s4" d="m407.1 264.5h-1.1c-4.3 0-7.7-3.5-7.7-7.8 0-4.2 3.4-7.7 7.7-7.7h1.1c4.2 0 7.7 3.5 7.7 7.7 0 4.3-3.5 7.8-7.7 7.8z"/>
	<path id="Layer" class="s4" d="m306.6 211.7l-10.9 20.9c-1.4 2.7-4.1 4.2-6.9 4.2-1.2 0-2.4-0.3-3.5-0.9-3.8-1.9-5.3-6.6-3.3-10.4l16-31.2z"/>
	<g id="Layer">
		<path id="Layer" class="s5" d="m161.1 322.5c-3.5 0-6.6-2.4-7.5-5.9-1-4.1 1.5-8.3 5.6-9.4 6-1.5 13-2.3 20.3-2.3 7.2 0 14.2 0.8 20.2 2.3 4.2 1.1 6.7 5.3 5.6 9.4-1 4.1-5.2 6.7-9.3 5.6-4.8-1.2-10.5-1.8-16.5-1.8-6 0-11.7 0.6-16.5 1.8q-1 0.3-1.9 0.3z"/>
		<path id="Layer" class="s5" d="m266.2 349.2q-1 0-1.9-0.2c-4.8-1.2-10.5-1.8-16.5-1.8-6 0-11.7 0.6-16.5 1.8-4.1 1-8.3-1.5-9.4-5.7-1-4.1 1.5-8.3 5.7-9.3 5.9-1.5 12.9-2.3 20.2-2.3 7.3 0 14.3 0.8 20.2 2.3 4.2 1 6.7 5.2 5.7 9.3-0.9 3.6-4.1 5.9-7.5 5.9z"/>
		<path id="Layer" class="s5" d="m396.2 333.2q-0.9 0.1-1.9-0.2c-4.8-1.2-10.5-1.8-16.5-1.8-6 0-11.7 0.6-16.5 1.8-4.1 1-8.3-1.5-9.3-5.6-1.1-4.1 1.4-8.3 5.6-9.4 6-1.5 12.9-2.3 20.2-2.3 7.3 0 14.3 0.8 20.3 2.3 4.1 1.1 6.6 5.3 5.6 9.4-0.9 3.5-4.1 5.8-7.5 5.8z"/>
	</g>
</svg>