<svg xmlns="http://www.w3.org/2000/svg" viewBox="0 0 443.57 133.29"><defs><style>.cls-1{fill:red;}.cls-2{fill:#bd0c0c;}.cls-3{fill:#fff;}</style></defs><g id="Layer_2" data-name="Layer 2"><g id="Capa_1" data-name="Capa 1"><polygon class="cls-1" points="160.9 0 160.9 133.29 113.33 133.29 113.33 70.04 80.5 102.87 80.49 102.87 80.45 102.91 77.11 99.58 47.57 70.04 47.57 133.29 0 133.29 0 0 44.81 0 80.45 35.64 116.09 0 160.9 0"/><polygon class="cls-2" points="160.9 0 160.9 133.29 113.33 133.29 113.33 70.04 80.5 102.87 80.49 102.87 80.45 102.91 80.45 35.64 116.09 0 160.9 0"/><path class="cls-3" d="M206.4,10.64h13.65l14.42,35.18h.62l14.42-35.18h13.65V63H252.42V28.92H252L238.43,62.74h-7.31L217.57,28.79h-.43V63H206.4Z"/><path class="cls-3" d="M290,63.77a20.89,20.89,0,0,1-10.42-2.47,16.75,16.75,0,0,1-6.71-7,23,23,0,0,1-2.35-10.75,22.9,22.9,0,0,1,2.35-10.63,17.41,17.41,0,0,1,6.64-7.14,19.29,19.29,0,0,1,10.06-2.55,20.72,20.72,0,0,1,7.25,1.24,16.18,16.18,0,0,1,5.88,3.72,16.83,16.83,0,0,1,3.92,6.22A24.84,24.84,0,0,1,308,43.16v3H274.82V39.4h22.91a8.27,8.27,0,0,0-1-4.17,7.42,7.42,0,0,0-2.82-2.85,8.25,8.25,0,0,0-4.18-1,8.46,8.46,0,0,0-4.39,1.13,8.22,8.22,0,0,0-3,3.05,8.64,8.64,0,0,0-1.09,4.23v6.42a10.94,10.94,0,0,0,1.08,5,7.81,7.81,0,0,0,3.08,3.28,9.39,9.39,0,0,0,4.73,1.15,10.38,10.38,0,0,0,3.33-.51A7.13,7.13,0,0,0,296,53.59a6.72,6.72,0,0,0,1.64-2.5l10.07.66a13.8,13.8,0,0,1-3.13,6.33,15.78,15.78,0,0,1-6.09,4.19A22.82,22.82,0,0,1,290,63.77Z"/><path class="cls-3" d="M326,10.64V63H315.09V10.64Z"/><path class="cls-3" d="M371.28,23.73,357.56,63H345.28L331.55,23.73h11.51l8.15,28.1h.41l8.13-28.1Z"/><path class="cls-3" d="M393.3,63.77A19.93,19.93,0,0,1,383,61.22a17.17,17.17,0,0,1-6.69-7.1A22.84,22.84,0,0,1,374,43.52a22.9,22.9,0,0,1,2.35-10.65A17.25,17.25,0,0,1,383,25.76a22.11,22.11,0,0,1,20.58,0,17.25,17.25,0,0,1,6.69,7.11,22.9,22.9,0,0,1,2.35,10.65,22.84,22.84,0,0,1-2.35,10.6,17.17,17.17,0,0,1-6.69,7.1A19.93,19.93,0,0,1,393.3,63.77Zm.05-8.44a6.75,6.75,0,0,0,4.53-1.55,9.57,9.57,0,0,0,2.75-4.23,18.63,18.63,0,0,0,.93-6.11,18.63,18.63,0,0,0-.93-6.11,9.66,9.66,0,0,0-2.75-4.24,6.7,6.7,0,0,0-4.53-1.56,6.9,6.9,0,0,0-4.59,1.56A9.46,9.46,0,0,0,386,37.33a18.36,18.36,0,0,0-.94,6.11,18.36,18.36,0,0,0,.94,6.11,9.37,9.37,0,0,0,2.78,4.23A7,7,0,0,0,393.35,55.33Z"/><path class="cls-3" d="M419.74,63V23.73H430.3v6.85h.41a10.18,10.18,0,0,1,3.6-5.54,9.54,9.54,0,0,1,5.83-1.88,16.14,16.14,0,0,1,1.77.11,12.69,12.69,0,0,1,1.66.28v9.66a14.68,14.68,0,0,0-2.13-.41,20.52,20.52,0,0,0-2.47-.17,8.75,8.75,0,0,0-4.29,1,7.66,7.66,0,0,0-3,2.88,8.11,8.11,0,0,0-1.09,4.24V63Z"/><path class="cls-3" d="M274.68,78.64V131H263.61V78.64Z"/><path class="cls-3" d="M298.07,131.64a14.72,14.72,0,0,1-8.09-2.31,15.84,15.84,0,0,1-5.73-6.83,26.18,26.18,0,0,1-2.11-11.09,25.66,25.66,0,0,1,2.18-11.23,15.62,15.62,0,0,1,5.79-6.73,14.81,14.81,0,0,1,7.94-2.23,12.26,12.26,0,0,1,5.51,1.11,11.07,11.07,0,0,1,3.58,2.76,14.73,14.73,0,0,1,2.08,3.23h.33V78.64h10.87V131H309.68v-6.29h-.46a14.06,14.06,0,0,1-2.16,3.24,10.94,10.94,0,0,1-3.61,2.64A12.44,12.44,0,0,1,298.07,131.64Zm3.45-8.67a7,7,0,0,0,4.47-1.44,9.27,9.27,0,0,0,2.81-4.06,19.54,19.54,0,0,0,0-12.19,8.75,8.75,0,0,0-2.81-4,7.15,7.15,0,0,0-4.48-1.41,7.06,7.06,0,0,0-4.52,1.46,8.89,8.89,0,0,0-2.79,4,19.62,19.62,0,0,0,0,12A9.1,9.1,0,0,0,297,121.5,7,7,0,0,0,301.52,123Z"/><path class="cls-3" d="M340.23,78.64V131H329.34V78.64Z"/><path class="cls-3" d="M366.82,131.77a20.78,20.78,0,0,1-10.42-2.47,16.75,16.75,0,0,1-6.71-7,25.49,25.49,0,0,1,0-21.38,17.41,17.41,0,0,1,6.64-7.14,19.29,19.29,0,0,1,10.06-2.55,20.72,20.72,0,0,1,7.25,1.24,16.18,16.18,0,0,1,5.88,3.72,17,17,0,0,1,3.92,6.22,24.84,24.84,0,0,1,1.41,8.76v3H351.69V107.4H374.6a8.37,8.37,0,0,0-1-4.17,7.42,7.42,0,0,0-2.82-2.85,8.25,8.25,0,0,0-4.18-1,8.46,8.46,0,0,0-4.39,1.13,8.22,8.22,0,0,0-3,3,8.76,8.76,0,0,0-1.1,4.23v6.42a10.94,10.94,0,0,0,1.09,5,7.81,7.81,0,0,0,3.08,3.28,9.39,9.39,0,0,0,4.73,1.15,10.38,10.38,0,0,0,3.33-.51,7.13,7.13,0,0,0,2.58-1.54,6.7,6.7,0,0,0,1.63-2.5l10.08.66a13.8,13.8,0,0,1-3.13,6.33,15.78,15.78,0,0,1-6.09,4.19A22.82,22.82,0,0,1,366.82,131.77Z"/></g></g></svg>