<svg xmlns="http://www.w3.org/2000/svg" xmlns:xlink="http://www.w3.org/1999/xlink" viewBox="0 0 2000 2000"><defs><style>.cls-1{fill:none;}.cls-2{isolation:isolate;}.cls-3{fill:#afd86a;}.cls-4{fill:#fecfae;}.cls-5{fill:#515151;}.cls-6{fill:#7a7a7a;}.cls-7{fill:#8c8c8c;}.cls-8{fill:#f5e3ba;}.cls-9{fill:#593263;}.cls-10{fill:#1e1713;}.cls-11{fill:#3f2957;}.cls-12{fill:#8f65ac;}.cls-13,.cls-15{fill:#bb986f;}.cls-13{mix-blend-mode:multiply;opacity:0.4;}.cls-14{fill:#a5a5a5;}.cls-16{fill:#a883c6;}.cls-17{fill:#2e1849;}.cls-18{fill:#6b6b6b;}.cls-19{fill:#77a22f;}.cls-20{fill:#724382;}.cls-21{clip-path:url(#clip-path);}.cls-22{fill:#8abd32;}.cls-23{clip-path:url(#clip-path-2);}</style><clipPath id="clip-path"><path class="cls-1" d="M1771.72,1456s-16.82-19-52.36-13c0,0-38.08-86.24-107.1-50-95.07,49.87-43.43,124.44-43.43,124.44s-32-36.45-67.38-5.85c-8.81-6.71-20.86-11.24-37.32-11.73-53-1.62-53.72,60-53.72,60-23.88,6.67-29.34,22.63-29.34,22.63-7.56,16.08-2.13,28.93,6.48,38.39,76.24,66.17,155.71.56,155.71.56,9.79-5.22,11-4.68,13.89-5.69a156.42,156.42,0,0,0,62.32-8.41l116.34-39.92c23.83-8.15,42.83-27.82,50.51-53.25C1792,1495.35,1791.41,1473.79,1771.72,1456Z"/></clipPath><clipPath id="clip-path-2"><path class="cls-1" d="M453.89,1508.25c6.66-10.22,9.82-23.15.23-37.14,0,0-7.58-14.19-31.08-16.82,0,0-8-58.61-57.7-49-68.44,13.24-47.5,83.81-47.5,83.81s-17.06-44.17-54.48-13.77C242.88,1492,260,1522,282.85,1525.54a109.3,109.3,0,0,0,50,9.35l80.31-3.63A51.45,51.45,0,0,0,453.89,1508.25Z"/></clipPath></defs><g class="cls-2"><g id="Layer_1" data-name="Layer 1"><path class="cls-3" d="M590.28,1251.71l948.93,109.67c11.07-16.31,52-1,106.55,12.32h0c63.82-16.85,147.58-35.78,193.57,24.46,50.88,66.65,84.66,146.17,33.7,206.82-253.56,301.81-305.93,271.89-516.1,244.8-138.62-17.87-207.44-105.34-272.09-69.15a660.07,660.07,0,0,1-232.29,77.92c-52.82,7.31-121.1,15.58-170.16,17.31-30,1.06-61.42,1.43-93.59.39-172-5.59-382.19-12.15-484.15-224.43C-36.46,1358,590.28,1251.71,590.28,1251.71Z"/><path class="cls-4" d="M771.58,1646.19s-164.79-18-198.05,75.93-203.22,159.79-356.2,67.64c0,0,91.76,159.08,293,122.32,149.33-27.28,116.67-137.88,175.56-180.77S840.43,1694,983.06,1675,771.58,1646.19,771.58,1646.19Z"/><polygon class="cls-5" points="531.08 523.07 527.24 567.94 539.34 571.29 546.92 526.74 531.08 523.07"/><path class="cls-5" d="M449.32,595.87c7.63-30.5,42-48.94,71.79-38.78,30,10.27,69.86,27.36,77.28,49,11.7,34-13.74,93.31-41.65,94.4s-102-10.81-107.67-50.24C446.38,631.52,445.1,612.75,449.32,595.87Z"/><polygon class="cls-5" points="637.52 496.13 668.4 503.41 656.42 814.32 648.24 813.62 637.52 496.13"/><polygon class="cls-6" points="629.44 494.27 609.61 811.49 648.34 812.47 660.33 501.56 629.44 494.27"/><polyline class="cls-7" points="622.02 797.49 637.42 502.53 642.3 502.94 634.97 795.51 649.19 542.29 657.35 533.86 648.34 812.47"/><path class="cls-6" d="M440.07,595.79c7.63-30.49,42-48.94,71.79-38.77,30,10.27,69.85,27.35,77.28,49,11.69,34-13.75,93.32-41.66,94.41s-102-10.81-107.66-50.24C437.13,631.44,435.85,612.68,440.07,595.79Z"/><path class="cls-8" d="M457.08,603c5.88-23.5,32.4-37.72,55.33-29.88,23.15,7.91,53.83,21.08,59.56,37.75,9,26.23-10.6,71.92-32.11,72.76s-78.6-8.33-83-38.72C454.81,630.44,453.83,616,457.08,603Z"/><path class="cls-6" d="M489.33,467s45,42.77,146.32,51l-3.51,41s-141.9-15.84-149.28-43.36A64.07,64.07,0,0,1,489.33,467Z"/><path class="cls-9" d="M548.12,611.73c1.21,4,1.92,8.35,3.73,12.11,6.29,13,3.66,23.24-8.77,30.58a9.48,9.48,0,0,0-4.91,6.38c-.27,1.1-1.33,2-2,3-.77-.83-1.59-1.63-2.28-2.52a18.59,18.59,0,0,1-1.29-2.25,26.62,26.62,0,0,0-5.23,1.07,6.19,6.19,0,0,0-3,2.7c-1.38,2.77-2.38,5.74-3.53,8.63l-1.53.11c-.93-2.16-2.26-4.24-2.7-6.49-.67-3.46-2.2-4.7-5.85-5-9.36-.73-17.27-4-28.47-10.78l-7.1,6.91-1.53-.51c.13-3.41-.08-6.87.47-10.2a10,10,0,0,0-1.31-7.35c-5.19-8.72-3.58-18.5,3.83-25.58,2.65-2.54,5.14-5.25,7.67-7.91,1.3-1.38,1.5-2.55,0-4.24-2.92-3.35-2.26-5.54,1.75-7.45,5.78-2.76,12-2.86,18.14-2.54,12.73.68,25.25,2.76,37.07,7.79a32.58,32.58,0,0,1,8.65,5.43c4,3.54,3.19,6.36-1.9,8.18l3.66-3.73c-9.76,5.13-20,3-30,3.06a36.37,36.37,0,0,0,7.35,1C535.4,612.16,541.76,611.9,548.12,611.73Zm-15.76,32c1.41.14,2.82.37,4.24.4,9.65.2,14.49-6.53,11-15.42a34.09,34.09,0,0,0-3-5.26c-1.62-2.64-3.9-3.19-6.74-2.08a37.68,37.68,0,0,0-15,10.47c-2.74,3.17-2.22,6.88,1.46,9A39.29,39.29,0,0,0,532.36,643.78ZM492,600l-.35.92c.1.2.15.5.32.59,9.35,5.22,20,5.65,30.11,7.85a2.48,2.48,0,0,0,1.7-.26,11.15,11.15,0,0,0,1.94-2.46c-1.62-1.39-4.09-2-5.77-3.31-.24.32-1,1-1.21,1.34a13.94,13.94,0,0,0,1.22,1.43,18.25,18.25,0,0,0,1.61,1.1l-.23.66L515,606.77l2.34-3.5c-4.16-.31-5.16-3.39-6.45-6.93a1.58,1.58,0,0,0-1-1c-1.41-.15-4.46,1.14-5.89,1.09.33,1.24-1.17,4.17-.37,4.85,1.33,1.14,4.64.41,6.29,1.17.65.31,1.31.6,2.35,1.07-.88.67-1.27,1.17-1.78,1.34-5.36,1.79-9.85-.46-14.3-3.07A38.34,38.34,0,0,0,492,600Zm30.75.62,8.52,5.32a19.74,19.74,0,0,0-.26-5.2C530.06,598.62,526.13,598.4,522.72,600.61Z"/><polygon class="cls-6" points="527.41 522.75 523.57 567.62 535.67 570.98 543.25 526.42 527.41 522.75"/><path class="cls-8" d="M693.8,1288.31l33.25,266.15L1245,1625.27l63.67-361.46S1055.68,332.45,962,297.05L693.8,1197Z"/><polygon class="cls-10" points="918.73 981.12 922.23 1079.5 1016.72 1084.55 1024.34 941.01 948.86 915.13 918.73 981.12"/><polygon class="cls-11" points="970.66 914.28 967.21 1083.4 976.31 1083.59 978.22 906.42 970.66 914.28"/><polygon class="cls-12" points="966.24 928.76 963.12 1081.97 972.22 1082.15 973.8 920.91 966.24 928.76"/><polygon class="cls-12" points="1024.84 978.97 919.71 976.83 919.52 985.93 1030.18 986.48 1024.84 978.97"/><polygon class="cls-12" points="1016.89 1033.22 917.49 1031.19 917.3 1040.3 1021.93 1040.72 1016.89 1033.22"/><polygon class="cls-11" points="922.47 957.95 919.7 1093.99 936.37 1094.33 936.13 952.73 922.47 957.95"/><polygon class="cls-12" points="914.73 967.79 912.18 1092.91 928.85 1093.25 928.39 962.57 914.73 967.79"/><polygon class="cls-11" points="1019.99 943.66 1014.92 1104.19 1031.59 1104.75 1033.76 937.46 1019.99 943.66"/><polygon class="cls-12" points="1010.52 955.51 1005.89 1102.82 1022.55 1103.38 1024.28 949.31 1010.52 955.51"/><path class="cls-11" d="M914.73,967.79s13.37-3.24,16.82-6.94,11.85-28,31.33-36.7-32.1-3.23-32.1-3.23Z"/><path class="cls-9" d="M951.52,881.26s17.27-.89,27.41-.94c30.53-.16,59.1,42.6,65,58.73,15.47,42.62-41.63-4.55-41.63-4.55Z"/><path class="cls-12" d="M879.53,967.07l35.2.72s19.26-48.28,42.53-47.06c29.09,1.52,49.45,28.81,68,55.13,0,0,6.93,10.47,31.29,10.44l.9-43.93s-25.5,3.71-29.38-.34-22.38-59.91-76.38-60.77c0,0-23.8.9-33.17,36a12,12,0,0,1-11.41,8.91l-26.73.43Z"/><polygon class="cls-11" points="1057.43 942.37 1074.1 942.71 1073.25 984.39 1056.53 986.3 1057.43 942.37"/><path class="cls-8" d="M188.2,1163.43l47.08,320.51,500.13,56.38-30.83-259-29.16-87.08s-177.84-27.41-264.64-115.35-155.91-64.27-195.53-12.73C182.35,1109,188.2,1163.43,188.2,1163.43Z"/><path class="cls-13" d="M192.44,1201.48s20.34-140.49,92.17-123.71,121.76,91.83,186.84,121.71c71.73,32.94,125.86,38.76,184.66,30.49s-268.27-206.44-268.27-206.44l-167,21-32.68,98S186.74,1162.46,192.44,1201.48Z"/><polygon class="cls-9" points="192.14 1125.2 237.94 1472.5 265.85 1472.54 222.22 1069.88 192.14 1125.2"/><polygon class="cls-6" points="926.44 286.2 939.03 288.2 939.93 288.29 950.62 289.92 950.8 289.92 962.66 291.73 958.59 273.98 958.05 271.9 958.05 271.81 957.41 268.73 951.8 243.82 938.48 243.82 930.88 270.63 930.42 272.08 929.7 274.7 929.25 276.33 929.25 276.43 926.44 286.2"/><path class="cls-6" d="M941.47,244.81v1.91h7l-.17-1.91-1.94-46.6.89-.54h0a2.07,2.07,0,0,0-3.94-.07h0a2.34,2.34,0,0,0-.12.64Z"/><path class="cls-14" d="M937,285.19l3.23-13,3,2.09V243.82h-4.71s-10.67,36.52-12,42C922.1,301.78,937,285,937,285.19Z"/><path class="cls-12" d="M802.55,782.63s-279.8-3.43-398-45.68c0,0-36.54,16-42,85.65s-47.68,174.17-47.68,174.17l370.68,90.73s127.26-97,133-162.11S802.55,782.63,802.55,782.63Z"/><path class="cls-9" d="M217.33,1040.16S373.14,931.1,416.54,900.26s113.06,44,161,72.25,111.55,49.8,139.14,39.6-62.81,172-62.81,172-59.77,12-112.59-9.72-121.93-68.36-151-92.51C309.75,1015.07,217.33,1040.16,217.33,1040.16Z"/><polygon class="cls-15" points="1233.97 1628.89 1661.68 1487.93 1732.77 1214.33 1297.64 1267.44 1233.97 1628.89"/><path class="cls-12" d="M83.62,1209.76s32.55,13.71,54.25,0,35.8-28.19,51.59-70.63,55.76-136.08,146-79,101.64,101.65,174.16,122.77,128.49,26.84,128.49,26.84l13.32-32s-141.75-7.42-238.6-97.93c-43.57-40.72-83.14-60.43-119.06-64.24-35.16-3.73-73.54,12-90.79,42.83-10.06,18-24.33,51.32-34.26,81.66-21.7,66.24-52,64-66.24,58.81Z"/><path class="cls-13" d="M1379.91,1440.46l-196.2-805.95L973.84,313.06l-8,48-8.67-17.65-274,944.39s71.66-29.59,125.5-165.76c96.74-244.66,144.49-520.75,163.19-651.73C1020.44,689.22,1191.79,1400.06,1379.91,1440.46Z"/><path class="cls-11" d="M1379.87,1440.46s243.26-63.38,401.44-155.89l9.7-17.13-392.3,146.18S1373,1424.47,1379.87,1440.46Z"/><path class="cls-9" d="M853.4,839.2S970.5,712.46,1107.81,831l-23.74-78.56s-100.57-67.88-213,12Z"/><path class="cls-9" d="M752.87,1107.69s57.49.5,64.53,0,69.45-49.5,178.54-36.93c122,14.07,163.09,67.92,185.78,70.43s36.39,4.67,36.39,4.67l17.38,49.93s-53-.75-67.55-.68c-8.94.05-179.22-125.39-319-50.92l-125-3.24Z"/><path class="cls-12" d="M754.59,1120.68s57.87.57,64.91,0,67.73-44.66,176.94-33.18c122.18,12.85,165.43,80.57,188.14,82.86s35.11,0,35.11,0l17.88,49.75s-53-.21-67.56,0-179.55-135.69-327.14-47.87l-117.41-1.88Z"/><path class="cls-12" d="M855.22,841s115.39-123.69,248.08,0l-16.89-68.17s-95.66-75.53-211,0Z"/><path class="cls-11" d="M1256.81,1621.57l51.68-306.17-33.89-67.87L1234,1628.89S1243.3,1628.89,1256.81,1621.57Z"/><path class="cls-11" d="M761.65,1564.32l-17.39-394-45.09,36.74,48,355.7A46.31,46.31,0,0,0,761.65,1564.32Z"/><path class="cls-12" d="M747.17,1562.8,727.9,1204.62l-45.1,5.05L714.43,1558S724.32,1561.8,747.17,1562.8Z"/><path class="cls-12" d="M1234,1628.89l51.68-313.49-33.89-67.87-52.31,376.64S1208.56,1630.56,1234,1628.89Z"/><path class="cls-9" d="M944.55,264.62s125.25,148,488.43,77.74c0,0,202.14,758.91,358,925.08,0,0-177,96.5-392.3,154.18,0,0-54-16.28-139.61-161s-206.43-618.43-206.43-618.43Z"/><path class="cls-11" d="M553.3,1325.68s113.54-18.26,137.52-27.68c0,0,174.2-326.93,240.62-736.36L970,338.93l-25.46-58.24s-21,16.94-32.21,53.53-128.63,715.65-272.53,866.41Z"/><path class="cls-16" d="M553.3,1325.68s187.58-48,382.88-1024.24c0,0,5.71-11.8,14.84-.76,12.83,15.49,180.45,935.92,428.85,1139.78l18.84-18.84s-172.45-149-265-545.34c0,0-139.9-597.8-189.2-607C903.44,261.58,807.69,787.77,722,999c-59.19,145.94-75.38,188.81-180.73,312.15Z"/><path class="cls-5" d="M1005.46,319.33l-17.13,7.23s78.3,109.76,465.47,46.38l7.44-8.31s-215.56,19.09-320.63-8.15S1005.46,319.33,1005.46,319.33Z"/><path class="cls-6" d="M944.55,264.62s126.11,136,488.43,77.74l28.26,22.27s-365.17,66.81-455.78-45.3C1005.46,319.33,947.63,282.53,944.55,264.62Z"/><polygon class="cls-14" points="887.45 310.95 944.55 264.62 1005.46 319.33 988.33 326.56 944.55 283.16 907.22 317.81 887.45 310.95"/><path class="cls-15" d="M1699.08,1137.81l-13.65,132.4L1499.79,1308v-86.8L1636,652.43S1729.91,1025.89,1699.08,1137.81Z"/><polygon class="cls-12" points="185.1 1147.6 230.87 1457.03 253.09 1457.03 210.6 1087.51 185.1 1147.6"/><polyline class="cls-8" points="1499.79 1307.98 1396.74 1221.18 1417.7 1132.24 1501.5 1158.65 1499.79 1307.98"/><polygon class="cls-10" points="1637.94 1037.4 1633.1 1156.73 1570.88 1154.51 1576.98 1033.99 1612.18 1003.61 1637.94 1037.4"/><polygon class="cls-17" points="1607.56 1011.75 1602.73 1150.52 1597.13 1150.32 1603.24 1005.02 1607.56 1011.75"/><polygon class="cls-9" points="1609.94 1016.23 1605.3 1149.5 1599.7 1149.3 1605.35 1017.06 1609.94 1016.23"/><polygon class="cls-9" points="1571.61 1062.69 1636.3 1064.99 1636.04 1072.46 1568.01 1068.64 1571.61 1062.69"/><polygon class="cls-9" points="1574.26 1107.46 1635.43 1109.64 1635.17 1117.11 1570.86 1113.42 1574.26 1107.46"/><polygon class="cls-17" points="1635.38 1049.41 1632.06 1144.57 1621.8 1144.21 1627.19 1044.6 1635.38 1049.41"/><polygon class="cls-9" points="1639.73 1057.77 1636.73 1143.97 1626.47 1143.61 1631.55 1052.97 1639.73 1057.77"/><polygon class="cls-11" points="1576.98 1033.99 1574.07 1149.32 1563.81 1149.13 1568.78 1028.38 1576.98 1033.99"/><polygon class="cls-9" points="1581.37 1044.01 1578.73 1148.49 1568.47 1148.3 1573.17 1038.4 1581.37 1044.01"/><path class="cls-17" d="M1639.73,1057.77s-8.09-3.17-10-6.34-6.13-23.39-17.75-31.28,19.86-1.42,19.86-1.42Z"/><path class="cls-9" d="M1619,984.55s-12-1-18.44-.43c-18.78,1.77-33.16,34.66-37.42,47.66-11.26,34.34,20.85-4.15,20.85-4.15Z"/><path class="cls-9" d="M1661.39,1058.54l-21.66-.77s-9.85-40.31-24.2-40.21c-17.94.12-31.58,21.7-44,42.57,0,0-4.69,8.31-19.66,7.34l1.25-36s15.52,4,18.07.86,14.68-49.11,47.89-47.73c0,0,16.13,2.52,20.45,31.64.64,4.3,3.35,7.46,6.64,7.74l16.41,1.38Z"/><polygon class="cls-11" points="1553.08 1031.42 1542.82 1031.06 1541.63 1065.26 1551.83 1067.47 1553.08 1031.42"/><path class="cls-9" d="M1647.71,1139.24l-85.18,3.79c-3.09.34-5.51,4.11-5.51,8.56v25.34c0,2.84,1.63,5.06,3.6,4.9,16.24-1.34,82-7,84.34-10.93C1647.69,1166.43,1647.71,1139.24,1647.71,1139.24Z"/><polygon class="cls-11" points="1562.53 1143.03 1546.97 1144.49 1545.76 1179.22 1559.01 1181.79 1562.53 1143.03"/><path class="cls-12" d="M1356.93,1201.48l142.86,19.7S1609.43,1007,1616.28,823.74s75.37-233.06,75.37-233.06-98.78,69.75-277,49.19C1414.7,639.87,1443.25,925.39,1356.93,1201.48Z"/><polygon class="cls-11" points="1356.93 1201.48 1375.02 1221.18 1499.79 1221.18 1488.94 1201.48 1356.93 1201.48"/><path class="cls-11" d="M1691.65,602.75S1724.2,713,1726.49,824.88s24,276.39,49.11,294.66l-76.52,18.27s-58.25-338.21-49.11-418S1691.65,602.75,1691.65,602.75Z"/><path class="cls-9" d="M1499.79,1221.18s82.23-65.1,136.19-410c29.1-186,44.73-191.46,58.13-199.63,0,0,18.57,128.49,29,248.17s28.55,249.16,52.54,259.82l7.42-11.42s-24.71-52.8-45.11-237.84c-16.28-147.61-17.13-266.39-40-279.52-25.82-14.84-54.37,47-68,123.34-49.68,279.24-110.21,468.25-141,487.67Z"/><polygon class="cls-11" points="1092.02 1389.78 1092.02 1616.77 1128.9 1616.77 1128.9 1375.2 1092.02 1389.78"/><polygon class="cls-12" points="1075.34 1389.78 1075.34 1616.77 1112.22 1616.77 1112.22 1375.2 1075.34 1389.78"/><polygon class="cls-6" points="873.46 1330.82 1071.08 1364.16 1071.08 1572.04 880.25 1551.05 873.46 1330.82"/><path class="cls-6" d="M772,1606.93l-.46,41.46s44.74,44.43,205.38,30.78c137.4-11.66,151.94-40.3,151.94-40.3v-37Z"/><path class="cls-14" d="M838.81,1572.4l290.09,29.5s-122.3,78.39-297.48,35.91C693.6,1604.39,838.81,1572.4,838.81,1572.4Z"/><polygon class="cls-11" points="845.04 1345.41 845.04 1572.4 881.93 1572.4 881.93 1330.82 845.04 1345.41"/><polygon class="cls-18" points="888.59 1335.23 889.04 1552.9 901.92 1552.42 900.75 1334.79 888.59 1335.23"/><polygon class="cls-18" points="975 1342.82 975.45 1560.48 998.11 1559.65 982.49 1342.55 975 1342.82"/><polygon class="cls-12" points="831.72 1345.41 831.72 1572.4 868.6 1572.4 868.6 1330.82 831.72 1345.41"/><polygon class="cls-7" points="909.17 1545.05 902.34 1374.8 909.17 1374.8 916.95 1547.66 916.95 1350.49 928.79 1350.49 931.75 1552.7 939.38 1365.85 944.69 1323.72 953.73 1335.81 948.83 1552.7 909.17 1545.05"/><polygon class="cls-7" points="1037.5 1342.77 1044.92 1521.19 1037.77 1521.2 1029.34 1340.05 1029.65 1546.69 1017.24 1546.71 1013.83 1334.79 1006.12 1530.63 1000.62 1574.78 991.13 1562.13 995.93 1334.82 1037.5 1342.77"/><path class="cls-6" d="M816.32,1575.41V1605s36.49,29.06,159.26,23.91c73-3.06,117.44-30.82,117.44-30.82v-32Z"/><path class="cls-14" d="M868.79,1539.82,1093,1563.19s-73.76,52.08-229.94,28.46C754.64,1575.24,868.79,1539.82,868.79,1539.82Z"/><polygon class="cls-14" points="963.42 1340.39 962.73 1558.09 977.56 1557.55 977.42 1339.88 963.42 1340.39"/><polygon class="cls-14" points="881.93 1335.23 882.38 1552.9 895.26 1552.42 894.08 1334.79 881.93 1335.23"/><polygon class="cls-14" points="1058.52 1354.89 1054.4 1572.72 1075.1 1571.96 1078.05 1354.17 1058.52 1354.89"/><path class="cls-9" d="M954.83,1228.32c76.21-23.58,76.9,53,186.35,56.84L1025.26,1360,796,1278.86S792.53,1278.54,954.83,1228.32Z"/><path class="cls-12" d="M777.71,1369.11s66.82-12.57,97.09-20.56,68.23,1.14,99,20.56,67.5,35.4,88,36.54v-92.22s-58.23-14-88-46-88.8-18.16-141.3,0c-40.37,14-54.76,12.56-54.76,12.56Z"/><polygon class="cls-11" points="1061.8 1405.65 1141.18 1373.67 1141.18 1285.16 1061.8 1313.43 1061.8 1405.65"/><path class="cls-14" d="M969.56,196.29,935,194.87c-2.06-1.88-4.12-3.82-6.1-5.74l.17-4.14c-17.86-19.39-9.64-63-4.9-70.75,3.11-5.1,12.05-16.7,22.92-18.09l.11-2.73,13.76.56.26-6.46c-.72-.92-1.48-1.86-2.28-2.81a29.24,29.24,0,0,0-8.4-7c1.31-1.27,2.07-2,2.07-2s-13.27-2.85-22.6,1h0c-14.84,5.4-28.22,22.28-31.06,38.84-4.72,27.6-7.68,80.38,36.52,93.57,0,0,6.62,2.52,18.3,2l-1.33-1.1C960.17,208.14,965.7,202.79,969.56,196.29Z"/><path class="cls-6" d="M986.57,165.68s-9.82,32.17-36.68,24.36c-33.17-9.65-20.39-69.09-16.23-78.76,5.25-12.18,29.44-36,49.94,9.74,0,0-.36-15.58-15.71-35.94-19.68-26.11-55.26,3.24-60,30.84s-7.69,80.38,36.52,93.57C979.2,219.87,986.82,179.08,986.57,165.68Z"/><polygon class="cls-12" points="492.12 1276.6 492.83 1353.94 502.96 1353.85 500.31 1272.48 492.12 1276.6"/><polygon class="cls-11" points="515.77 1269.11 524.96 1268.94 525.49 1293.08 516.33 1294.57 515.77 1269.11"/><polygon class="cls-10" points="287.44 1268.49 289.78 1347.78 344.91 1346.57 341.46 1266.48 310.8 1246.15 287.44 1268.49"/><polygon class="cls-10" points="441.25 1276.99 443.6 1356.28 498.73 1355.07 495.28 1274.99 464.61 1254.65 441.25 1276.99"/><polygon class="cls-11" points="314.75 1251.58 316.78 1343.78 321.74 1343.67 318.69 1247.13 314.75 1251.58"/><polygon class="cls-12" points="312.58 1254.85 314.52 1343.09 319.48 1342.98 316.62 1255.12 312.58 1254.85"/><polygon class="cls-12" points="345.76 1285.57 288.44 1286.83 288.55 1291.79 348.84 1289.53 345.76 1285.57"/><polygon class="cls-12" points="342.68 1315.3 288.49 1316.49 288.6 1321.45 345.6 1319.27 342.68 1315.3"/><polygon class="cls-11" points="289.51 1276.48 290.9 1339.71 299.99 1339.51 296.83 1273.32 289.51 1276.48"/><polygon class="cls-12" points="285.52 1282.01 286.78 1339.29 295.87 1339.09 292.84 1278.86 285.52 1282.01"/><polygon class="cls-11" points="341.46 1266.48 342.17 1343.1 351.26 1343.02 348.82 1262.79 341.46 1266.48"/><polygon class="cls-12" points="337.42 1273.12 338.05 1342.53 347.14 1342.45 344.77 1269.42 337.42 1273.12"/><path class="cls-11" d="M285.52,1282s7.21-2.07,9-4.16,5.8-15.51,16.21-20.71-17.56-1-17.56-1Z"/><path class="cls-9" d="M305,1233.46s10.69-.63,16.33-.2c16.6,1.25,28.79,23.16,32.36,31.81,9.41,22.86-18.4-2.84-18.4-2.84Z"/><path class="cls-12" d="M266.34,1282.43l19.18-.42s9.38-26.73,22.08-26.61c15.88.16,27.6,14.55,38.3,28.46,0,0,4,5.55,17.29,5l-.53-23.95s-13.8,2.61-16,.49-12.19-32.69-41.62-31.91c0,0-14.32,1.61-18.62,20.93a6.54,6.54,0,0,1-6,5.12l-14.55.85Z"/><polygon class="cls-11" points="362.66 1264.88 371.75 1264.68 372.25 1287.4 363.19 1288.83 362.66 1264.88"/><path class="cls-12" d="M277.13,1336.1l75.36,2.87a5.43,5.43,0,0,1,4.73,5.71l-.42,16.84a3.18,3.18,0,0,1-3.27,3.24c-14.35-1-72.44-5-74.49-7.62C276.71,1354.16,277.13,1336.1,277.13,1336.1Z"/><polygon class="cls-11" points="352.49 1338.97 366.24 1340.01 366.75 1363.09 354.98 1364.73 352.49 1338.97"/><polygon class="cls-11" points="464.85 1254.98 467 1352.97 472.28 1352.85 469.04 1250.25 464.85 1254.98"/><polygon class="cls-12" points="462.55 1258.74 464.6 1352.24 469.88 1352.12 466.84 1258.74 462.55 1258.74"/><polygon class="cls-12" points="497.8 1291.1 436.9 1292.44 437.01 1297.71 501.08 1295.32 497.8 1291.1"/><polygon class="cls-12" points="494.53 1322.7 436.94 1323.96 437.06 1329.24 497.63 1326.92 494.53 1322.7"/><polygon class="cls-11" points="438.03 1281.44 439.51 1348.64 449.17 1348.43 445.81 1278.09 438.03 1281.44"/><polygon class="cls-12" points="433.79 1287.33 435.13 1348.2 444.79 1347.99 441.57 1283.97 433.79 1287.33"/><polygon class="cls-11" points="493.24 1270.82 493.99 1352.25 503.65 1352.16 501.06 1266.89 493.24 1270.82"/><polygon class="cls-12" points="488.9 1270.82 489.65 1352.25 499.31 1352.16 496.72 1266.89 488.9 1270.82"/><path class="cls-11" d="M433.79,1287.33s7.66-2.2,9.57-4.43,6.17-16.48,17.24-22-18.67-1.09-18.67-1.09Z"/><path class="cls-9" d="M454.52,1235.74s11.36-.68,17.36-.23c17.64,1.33,30.6,24.62,34.38,33.81,10,24.29-19.54-3-19.54-3Z"/><path class="cls-12" d="M413.4,1287.78l20.39-.45s10-28.42,23.47-28.28c16.87.16,29.33,15.46,40.7,30.24,0,0,4.27,5.89,18.37,5.28l-.56-25.46s-14.66,2.78-17,.53-13-34.92-44.23-34.09c0,0-15.22,1.89-19.79,22.42a7,7,0,0,1-6.38,5.44l-15.47.91Z"/><path class="cls-12" d="M424.87,1344.81l80.09,3a5.78,5.78,0,0,1,5,6.07l-.45,17.89a3.38,3.38,0,0,1-3.47,3.44c-15.25-1-77-5.31-79.16-8.09C424.43,1364,424.87,1344.81,424.87,1344.81Z"/><polygon class="cls-11" points="504.96 1347.86 519.57 1348.96 520.11 1373.49 507.61 1375.24 504.96 1347.86"/><path class="cls-11" d="M1722.49,1308l-52.42,175.42s-1.73,4.55-16,1.86l37.63-165.57Z"/><path class="cls-7" d="M491.84,480.81s43.22,33.18,136,45.33L624.9,534,572.57,522l-.12,4.63,42.7,9.69-1,4.69-67.07-16.54-1.44-9.82-56.87-31.21Z"/><path class="cls-7" d="M488.07,492l43,31.06s15.23,10.43,30.14,13.39,66.32,12.69,66.32,12.69l-1.25,4.67s-79.55-9.95-84.79-17.11-47.76-32.14-47.76-32.14Z"/><path class="cls-7" d="M486.48,510.68l43.68,23.11S493.69,528.15,486.48,510.68Z"/><path class="cls-7" d="M487.67,560.3s-29.75,2-44.73,32.7c0,0,14.41-15.25,20.13-16.54s23.37-19.26,43.68-11.53,54.41,24.87,54.41,24.87l4.19-.77s18.76,17.08,18.28,22.59,1,14.23,1,14.23l4.74-9.51-14.14-22L533.72,572Z"/><path class="cls-19" d="M1771.72,1456s-16.82-19-52.36-13c0,0-38.08-86.24-107.1-50-95.07,49.87-43.43,124.44-43.43,124.44s-32-36.45-67.38-5.85c-8.81-6.71-20.86-11.24-37.32-11.73-53-1.62-53.72,60-53.72,60-23.88,6.67-29.34,22.63-29.34,22.63-7.56,16.08-2.13,28.93,6.48,38.39,76.24,66.17,155.71.56,155.71.56,9.79-5.22,11-4.68,13.89-5.69a156.42,156.42,0,0,0,62.32-8.41l116.34-39.92c23.83-8.15,42.83-27.82,50.51-53.25C1792,1495.35,1791.41,1473.79,1771.72,1456Z"/><path class="cls-16" d="M405.35,803.19s-18.2-5.36-24.18-5.05,9.85-40.46,17.38-44.23,21.38-.89,22.31,2.52S405.54,798.59,405.35,803.19Z"/><path class="cls-16" d="M452.85,849.58a8.58,8.58,0,0,1-10.21,5.5c-5.67-1.44-12.87-3.05-16.22-2.87-6,.31,9.85-40.47,17.37-44.24s21.42,4.19,22.36,7.59C466.87,818.19,457.32,836.79,452.85,849.58Z"/><path class="cls-20" d="M525.27,1116.1a7.86,7.86,0,0,1-10.09,3.33c-4.88-2.21-11.11-4.8-14.16-5.18-5.44-.67,15.35-34.91,22.73-37.11s18.64,7.2,18.94,10.42C542.92,1090,531.34,1105.28,525.27,1116.1Z"/><path class="cls-20" d="M601.92,1101a7.86,7.86,0,0,1-9.82,4c-5-1.85-11.43-4-14.5-4.15-5.47-.28,12.79-35.92,20-38.65s19.11,5.84,19.65,9C617.65,1073.72,607.2,1089.75,601.92,1101Z"/><path class="cls-20" d="M1061.73,440.64a10.87,10.87,0,0,1,6.08-13.39c6.84-2.9,15.34-6.8,18.59-9.55,5.79-4.91,21.12,48.43,16.42,58s-24.85,12.22-28.41,9.5C1071.66,483.11,1067,457,1061.73,440.64Z"/><path class="cls-20" d="M1371.51,1343.17a8.42,8.42,0,0,1,.91-11.33c4.21-3.9,9.37-9,11-11.81,2.92-5.08,28,29.66,27.13,37.85s-14.86,15.39-18.15,14.35C1389.86,1371.42,1379.65,1353.66,1371.51,1343.17Z"/><path class="cls-20" d="M1422.38,1346a8.42,8.42,0,0,1,.91-11.33c4.21-3.9,9.36-9,11-11.81,2.93-5.09,28,29.65,27.14,37.85s-14.86,15.39-18.16,14.35C1440.73,1374.29,1430.52,1356.53,1422.38,1346Z"/><path class="cls-20" d="M1324.84,832.91a8.07,8.07,0,0,1,4.52-9.95c5.08-2.15,11.39-5.05,13.8-7.09,4.3-3.65,15.69,36,12.2,43.08s-18.46,9.08-21.1,7.06C1332.22,864.45,1328.78,845.05,1324.84,832.91Z"/><path class="cls-20" d="M975.09,1249.7a6.25,6.25,0,0,1-2.08-8.17c2-3.74,4.43-8.53,4.9-10.93.84-4.27,26.79,14.11,28.12,20.08s-6.74,14.37-9.31,14.42C994.74,1265.15,983.32,1255.12,975.09,1249.7Z"/><path class="cls-20" d="M1271.89,782.67a13,13,0,0,1,7.28-16c8.19-3.47,14.73-9.47,23.33-9.08,9.08.42,24.2,55.61,18.58,67.08s-29.75,14.63-34,11.37C1283.79,833.5,1278.24,802.24,1271.89,782.67Z"/><path class="cls-20" d="M1315,530a10.89,10.89,0,0,1,6.08-13.4c6.84-2.89,15.34-6.8,18.59-9.55,5.79-4.9,21.12,48.43,16.42,58s-24.85,12.21-28.41,9.49C1324.89,572.5,1320.26,546.39,1315,530Z"/><path class="cls-20" d="M427.47,959a7.73,7.73,0,0,1-10.24,2.1c-4.52-2.73-10.31-6-13.25-6.7-5.24-1.29,19-32.35,26.5-33.65s17.39,5.69,17.31,8.87C447.73,932.06,434.65,949.12,427.47,959Z"/><path class="cls-20" d="M1113.74,478.38a7.71,7.71,0,0,1,4.84-9.26c5-1.79,11.14-4.23,13.56-6.05,4.3-3.25,13.08,35.18,9.37,41.79s-15.39,9.9-17.8,7.83C1121.84,511.1,1116.86,490.18,1113.74,478.38Z"/><path class="cls-20" d="M427,986.33a5.89,5.89,0,0,1-7.8,1.6c-3.44-2.08-7.85-4.56-10.09-5.11-4-1,14.5-24.65,20.19-25.63s13.25,4.33,13.19,6.75C442.44,965.81,432.48,978.81,427,986.33Z"/><path class="cls-16" d="M1555.29,826.56a8.6,8.6,0,0,1-9.42,6.77c-5.81-.7-13.15-1.37-16.45-.76-5.89,1.08,4.56-41.4,11.53-46.11s21.79,1.4,23.15,4.66C1565.16,793.63,1558.08,813.3,1555.29,826.56Z"/><path class="cls-16" d="M1570.13,863.45a8.6,8.6,0,0,1-9.42,6.77c-5.81-.7-13.15-1.37-16.45-.76-5.89,1.08,4.56-41.4,11.53-46.11s21.78,1.4,23.15,4.65C1580,830.52,1572.92,850.19,1570.13,863.45Z"/><path class="cls-16" d="M1482,719.5a6.4,6.4,0,0,1-7,5c-4.33-.53-9.79-1-12.25-.57-4.38.8,3.4-30.81,8.59-34.32s16.21,1,17.23,3.47C1489.34,695,1484.07,709.64,1482,719.5Z"/><path class="cls-16" d="M523.79,827.07a9.86,9.86,0,0,1-11.67,6.29c-5.48-1.36-12-2.76-15.13-2.6-6,.32,9.85-40.46,17.37-44.23s21.38-.89,22.32,2.52C537.38,791.6,528.4,814.07,523.79,827.07Z"/><path class="cls-16" d="M667.73,956.43a23.64,23.64,0,0,1-25.87,15.11,26.09,26.09,0,0,0-5-.43c-6,.32,9.85-40.46,17.37-44.23s21.39-.89,22.32,2.52C677.12,931.32,672.18,944.49,667.73,956.43Z"/><path class="cls-20" d="M578.31,1050.72a18.41,18.41,0,0,1-20.13,11.76,20,20,0,0,0-3.86-.34c-4.64.25,7.67-31.48,13.52-34.41s16.64-.69,17.36,2C585.61,1031.18,581.77,1041.43,578.31,1050.72Z"/><path class="cls-16" d="M1457.34,1011a19.93,19.93,0,0,1-19.81,15.69,22.44,22.44,0,0,0-4.19.24c-4.95,1,3.42-35,9.25-39s17.75-3.28,18.94-.55C1462.2,989,1459.64,1000.54,1457.34,1011Z"/><path class="cls-20" d="M1026.45,1264.93a17.7,17.7,0,0,1-6.35-21.52,19.08,19.08,0,0,0,1.2-3.53c.84-4.4,27.66,14.42,29,20.56s-3.19,15.71-5.83,15.78C1043,1276.26,1034.34,1270.3,1026.45,1264.93Z"/><path class="cls-16" d="M1494,1165.51a20,20,0,0,1-19.82,15.7,21.73,21.73,0,0,0-4.19.23c-5,1,3.42-35,9.25-39s17.76-3.28,18.94-.54C1498.83,1143.43,1496.27,1155,1494,1165.51Z"/><path class="cls-16" d="M1609.59,682.34a23.65,23.65,0,0,1-23.91,18.06,26.61,26.61,0,0,0-5,.16c-5.9,1,5-41.34,12-46s21.13-3.4,22.46-.13C1615.94,656.29,1612.59,670,1609.59,682.34Z"/><g class="cls-21"><path class="cls-22" d="M1431.32,1645.84s-53.84-44.82-23.81-61.09c22.12-12,21.51-39.78,36.88-46.65,46.64-20.84,71,30.37,71,30.37s-14-56.89,99.57-31.45c22.63,5.07-48.29-46.64-29.94-84.61,8.63-17.87,33.24-59.3,134.29-9.43,17.3,8.54,50.64-164.59-131.37-75.18-16.52,8.12-91,89-91,89s-54.81,6.51-71.08,16.27-95.94,138.67-95.16,143.1S1431.32,1645.84,1431.32,1645.84Z"/></g><path class="cls-19" d="M606.65,1519.38c-46.54-37.82-62,7.09-62,7.09s31.49-93-53.75-109.44c-39.82-7.71-59.21,19.39-68,39.71-6.24-14.32-18.92-27.2-42.61-34.42-55.36-16.9-62.43,66.8-62.43,66.8a311.61,311.61,0,0,1-33-1.59c2-15-1.71-32.89-25.45-43.39-33.7-14.91-50.27,24.56-50.27,24.56-17.11-2-24.8,6.89-24.8,6.89-9.07,8.36-8.93,18.05-5.87,26.39,4.16,11.27,17.6,31.49,47.38,33.54l49.27,7.08c12.89,14.92,35.44,30.31,70.07,28.53h0a315.73,315.73,0,0,0,162.59,10.54l21-4.16A136.3,136.3,0,0,0,591,1565.87C613.3,1555.85,632.15,1540.06,606.65,1519.38Z"/><g class="cls-23"><path class="cls-22" d="M295.22,1530.22s-21.48-18.29-13-32c7.82-12.59,20.92-5.43,32,2.76,6.26,4.62,16.68,1.38,16.81-6.42.62-33,38.32-65,87.26-25.28,8.82,7.17,9.76,2.07,6.79-3.86-10.72-21.45,34.25-58.63-10.16-62.89-66.19-6.34-126.77,11.73-127.2,13.64s-49.3,69.11-49.3,69.11l15.19,59.67Z"/></g><path class="cls-9" d="M211.51,1091.6c-13.38,22.72-12.78,32.62-12.78,32.62l1.64,8.43c5.31-11,17-30.37,17-30.37Z"/></g></g></svg>