<svg id="Layer_1" data-name="Layer 1" xmlns="http://www.w3.org/2000/svg" xmlns:xlink="http://www.w3.org/1999/xlink" viewBox="0 0 2000 2000"><defs><style>.cls-1{fill:none;}.cls-2{fill:#77a22f;}.cls-3{clip-path:url(#clip-path);}.cls-4{fill:#8abd32;}.cls-5{clip-path:url(#clip-path-2);}.cls-6{fill:#8bbc38;}.cls-7{fill:#aed76a;}.cls-8{clip-path:url(#clip-path-3);}.cls-9{fill:#fecfae;}.cls-10{fill:#d8d7c5;}.cls-11{fill:#a09f98;}.cls-12{fill:#593263;}.cls-13{fill:#a08165;}.cls-14{fill:#332525;}.cls-15{fill:#f7debf;}.cls-16{fill:#ce924a;}.cls-17{clip-path:url(#clip-path-4);}.cls-18{fill:#efcd9f;}.cls-19{fill:#b2b1a8;}.cls-20{fill:#e8e8e6;}.cls-21{fill:#836848;}.cls-22{fill:#d0a156;}.cls-23{fill:#1e1713;}.cls-24{fill:#a883c6;}.cls-25{fill:#8f65ac;}.cls-26{fill:#775e43;}.cls-27{fill:#f4cc21;}.cls-28{fill:#ffeea9;}.cls-29{clip-path:url(#clip-path-5);}.cls-30{fill:#634e39;}.cls-31{fill:#afd86a;}.cls-32{fill:#8e3021;}.cls-33{fill:#aa4226;}.cls-34{fill:#785a56;}</style><clipPath id="clip-path"><path class="cls-1" d="M575.44,1160c2.32-16.27-.62-34.64-18.34-49,0,0-15.58-15.52-43.17-9.11,0,0-38.29-73.87-89-40.29-69.87,46.2-11.14,130.4-11.14,130.4s-41.17-51-67.78,4.75c-14.58,30.48,19,56.59,46.91,58a113.68,113.68,0,0,0,60.56-8.7l87.95-38.53C559.43,1199.49,572.27,1182,575.44,1160Z"/></clipPath><clipPath id="clip-path-2"><path class="cls-1" d="M1446.94,1052.43c2,.36,4.19.76,6.44,1.19,0,0,27.21-81,108.8-45,80.72,35.6,34.67,122.61,34.67,122.61s37.89-25.69,62.07,13.63c20.38,30.81-6.21,60.3-34.67,69.81,0,0,11.7,115.11-144.25-6.54-1.21-.43-19.49-7.69-19.49-7.69a128.72,128.72,0,0,1-34-20.07h0a126.15,126.15,0,0,1-41.58-63.76c-.06-.24-.13-.47-.19-.71a39.6,39.6,0,0,1-1.15-6.34C1380,1074.67,1412.07,1046.25,1446.94,1052.43Z"/></clipPath><clipPath id="clip-path-3"><path class="cls-1" d="M1320.63,1184.66c71-7.47,143.88,2.45,203.28,29.22,83.73,37.74,205.36,103.15,144,206.69-116.35,196.21-444.61,260.41-731.63,238.07s-309.68-147.8-504.9-151.91c-74.74-1.57-197.68-57.65-112-186.86,43.93-66.25,400.74-253.08,713.17-175.59C1193.62,1184.24,1277.33,1189.21,1320.63,1184.66Z"/></clipPath><clipPath id="clip-path-4"><polygon class="cls-1" points="945.19 1226.15 1459.92 1158.16 1436.25 1326.72 936.25 1434.98 945.19 1226.15"/></clipPath><clipPath id="clip-path-5"><polygon class="cls-1" points="639.59 1156.91 730.63 1184.47 730.63 1380.8 639.59 1350.25 639.59 1156.91"/></clipPath></defs><path class="cls-2" d="M575.44,1160c2.32-16.27-.62-34.64-18.34-49,0,0-15.58-15.52-43.17-9.11,0,0-40.27-72.09-91-38.52-69.87,46.2-4.25,133.92-4.25,133.92s-31.95-42.29-58.51,13.43c-14.58,30.48,8.69,40.82,32.72,43.91a113.69,113.69,0,0,0,60.56-8.7l87.95-38.53C559.43,1199.49,572.27,1182,575.44,1160Z"/><g class="cls-3"><path class="cls-4" d="M409.09,1255.62s-33.17-15.08-30.56-36.73c2.44-19.87,20.66-15.94,37.13-9.8,9.31,3.46,19.34-5.19,15.58-15.52-15.82-43.72,10.28-101.79,84.88-70,13.44,5.73-2.3-24.48-8.59-31-22.72-23.76,23.17-68.55-28.6-55.5-77.16,19.46-135.82,68.73-135.35,71.42s-20.5,111.79-20.5,111.79l46.84,72.24Z"/></g><path class="cls-2" d="M670.18,1104.28c.7-15.29-3.53-31.93-20.74-43.3,0,0-15.39-12.64-39.73-3.71,0,0-42.5-62.21-85.39-25.66-59.08,50.32,7.63,124.2,7.63,124.2s24.39-21,5.19,33.36c-10.54,29.76-45.5,22.2-23.56,22.42,19.23.11,8.66-2.36,27.83-4.23l74.22-30.14C658.62,1164,669.2,1124.94,670.18,1104.28Z"/><path class="cls-2" d="M1446.94,1052.43c2,.36,4.19.76,6.44,1.19,0,0,27.21-81,108.8-45,80.72,35.6,34.67,122.61,34.67,122.61s37.89-25.69,62.07,13.63c20.38,30.81-6.21,60.3-34.67,69.81,0,0,11.7,115.11-144.25-6.54-1.21-.43-19.49-7.69-19.49-7.69a128.72,128.72,0,0,1-34-20.07h0a126.15,126.15,0,0,1-41.58-63.76c-.06-.24-.13-.47-.19-.71a39.6,39.6,0,0,1-1.15-6.34C1380,1074.67,1412.07,1046.25,1446.94,1052.43Z"/><g class="cls-5"><path class="cls-6" d="M1596.85,1131.18s-.34-86-60-88.18c-79.77-2.9-62.49,51.76-62.49,51.76s-95.52-43.77-57.77,76.44-106.79-111.09-106.79-111.09l162-105.35,150.91,13.49,21.68,72.71S1618.53,1109,1596.85,1131.18Z"/></g><path class="cls-7" d="M1320.63,1184.66c71-7.47,143.88,2.45,203.28,29.22,83.73,37.74,205.36,103.15,144,206.69-116.35,196.21-444.61,260.41-731.63,238.07s-309.68-147.8-504.9-151.91c-74.74-1.57-197.68-57.65-112-186.86,43.93-66.25,400.74-253.08,713.17-175.59C1193.62,1184.24,1277.33,1189.21,1320.63,1184.66Z"/><g class="cls-8"><path class="cls-9" d="M585.76,1379.18s-53.47,64,39.92,143.69,284.45,186.89,526,177.7,471.83-197.16,471.83-197.16-173.88,81.76-391.15,76.65c-135.82-3.19-497.69-8.53-466.72-155.23S608.68,1344,585.76,1379.18Z"/></g><path class="cls-10" d="M1479.48,662.41v89L857.56,559.24,786.9,472.47l66.41-29.65S1418.7,607,1479.48,662.41Z"/><path class="cls-11" d="M868.25,463.62V638.11L770.56,520.27S763.73,467.57,868.25,463.62Z"/><polygon class="cls-12" points="559.25 538.2 693.2 339.66 852.15 503.6 1479.48 671.27 1504.95 654.27 820.4 394.22 687.59 282.03 522.39 529.51 559.25 538.2"/><polygon class="cls-13" points="914.88 691.7 914.88 1209.38 1448.51 1183.52 1452.16 787.49 914.88 691.7"/><polygon class="cls-14" points="1004.74 729.23 998.14 1131.62 1371.59 1108.68 1383.32 796.68 1004.74 729.23"/><polygon class="cls-11" points="893.11 585.28 865.02 537.31 852.15 503.6 691.04 337.43 559.25 538.2 557.91 708.51 551.64 1369.32 585.76 1379.18 633.92 1336.94 763.22 1416.29 763.22 1438.06 851.63 1471.23 863.56 596.14 893.11 585.28"/><polygon class="cls-15" points="939.07 1166.9 1355.88 1133.78 1459.92 1158.16 928.77 1228.14 939.07 1166.9"/><polygon class="cls-16" points="945.19 1226.15 1459.92 1158.16 1436.25 1326.72 936.25 1434.98 945.19 1226.15"/><g class="cls-17"><polygon class="cls-13" points="984.37 1412.02 986.23 1194.73 1019.39 1197.28 1019.39 1359.76 1043.84 1354.37 1045.54 1231.73 1082.49 1228.1 1082.49 1340.49 1106.71 1333.24 1109.96 1253.73 1147.09 1247.57 1146.55 1336.87 1180.57 1329.01 1180.57 1202.61 1225.64 1197.88 1225.64 1366.4 1262.31 1359.76 1262.31 1144.16 1287.48 1151.35 1287.48 1298.19 1312.89 1294.46 1319.65 1142.94 1336.68 1145.14 1333.39 1294.46 1351.56 1292.09 1359.62 1144.16 1371.57 1150.45 1369.55 1277.73 1397.06 1272.22 1412.38 1109.13 973.59 1130.67 926.26 1202.61 923.58 1427.75 984.37 1412.02"/></g><polygon class="cls-18" points="957.45 1454.38 1391.49 1350.72 1410.9 1297.11 922.77 1400.26 957.45 1454.38"/><polygon class="cls-19" points="1403.24 1171.38 1391.49 1350.72 1422.45 1357.36 1449.59 1227.15 1426.22 1169.56 1413.96 1155.15 1403.24 1171.38"/><path class="cls-20" d="M1476.74,1161.28s5.08-7,0-14.12-42.94,5-42.94,5,.84,12.38-7.58,17.37S1471.61,1168.43,1476.74,1161.28Z"/><path class="cls-16" d="M1433.8,1152.19l42.94-5-.62-344.83-36.49-13.86S1405.21,1109,1433.8,1152.19Z"/><polygon class="cls-21" points="1401.14 788.98 1397.87 1143.62 1433.8 1151.92 1439.63 788.2 1401.14 788.98"/><path class="cls-10" d="M1426.22,1169.56l-3.77,187.8s32.11,4.6,46.66-15.32V1174.3l7.63-13Z"/><path class="cls-18" d="M980.23,1201.16l453.57-49s9.35,15.33-8.48,19.19-467.87,62.41-467.87,62.41Z"/><path class="cls-10" d="M834.9,1200.09S828,1184,841,1173.53s75.07,3.07,75.07,3.07l20.16,28.77-21.14,20.78-70.77-19.42Z"/><path class="cls-20" d="M916.09,1182.73s10.11,19,6.83,26.22c0,0,58,3.39,65.17-8.86s-15.32-24.51-15.32-24.51S930.39,1156.68,916.09,1182.73Z"/><path class="cls-16" d="M916.09,1182.73s42.38,1,56.68-7.15V612.85l-100,30.64Z"/><path class="cls-21" d="M829.45,546.47,841,1173.53l75.07,9.2V607.49S860.77,536,829.45,546.47Z"/><polygon class="cls-22" points="816.02 520.26 881.71 536.1 871.62 554.35 814.7 547.65 816.02 520.26"/><ellipse class="cls-21" cx="815.91" cy="534.05" rx="11.99" ry="13.87" transform="translate(-85.75 162.67) rotate(-10.82)"/><path class="cls-21" d="M742.86,486.84c-15-12.34-35-16.73-54.1-13-16.36,3.15-37,11.5-46.49,33.18-17.11,38.88-.37,75.7,37.3,89.38s79.72-16.33,84.08-45.69C766.83,529.24,763.54,503.81,742.86,486.84Z"/><path class="cls-16" d="M732.51,484.75c-15-12.34-35-16.73-54.1-13.06-16.36,3.15-36.95,11.51-46.49,33.18-17.11,38.88-.37,75.71,37.3,89.39s79.73-16.33,84.08-45.7C756.48,527.15,753.19,501.72,732.51,484.75Z"/><path class="cls-23" d="M720,495.31c-11.84-8.78-27.13-11.36-41.45-7.87-12.27,3-27.55,10.09-34,26.86-11.51,30.07,2.54,57.33,31.57,66.29s59.76-15.33,62-37.73C739.7,526.53,736.26,507.4,720,495.31Z"/><polygon class="cls-16" points="704.77 485.49 692.71 587.47 676.02 585.14 687.15 483.02 704.77 485.49"/><polygon class="cls-16" points="740.57 546.21 638.34 536.45 640.3 519.71 742.64 528.54 740.57 546.21"/><path class="cls-12" d="M945,688s6.62,109,131.64,108c0,0,63.75,4.08,93.37-67.41C1170.05,728.61,1028.46,653.5,945,688Z"/><path class="cls-12" d="M1130.22,731.68s66.38,156.25,163.4,39.83S1130.22,731.68,1130.22,731.68Z"/><path class="cls-12" d="M1270.13,742.91s4.09,85.79,62.3,90.89,89.47-47,89.47-47S1455,705.12,1270.13,742.91Z"/><path class="cls-12" d="M1398.81,796.06s46,108.21,136.85,26.51C1535.66,822.57,1472.34,699.08,1398.81,796.06Z"/><path class="cls-12" d="M1602.05,822.57s-28.6,62.74-86.81-8,7.15-31.08,7.15-31.08Z"/><path class="cls-12" d="M829.45,523.5s13.28-4.94,20.77,4.59,34.72,109.27,83.23,125.61l26,32.69,91.13,99.71s-100.49-14.44-107.81-99.37C942.81,686.73,875.75,660.86,829.45,523.5Z"/><path class="cls-24" d="M951,680.49s6.61,109,131.64,108c0,0,63.75,4.09,93.36-67.4C1176,721.11,1034.42,646,951,680.49Z"/><path class="cls-24" d="M1136.17,724.17s66.39,156.26,163.41,39.83S1136.17,724.17,1136.17,724.17Z"/><path class="cls-24" d="M1276.09,735.41s4.08,85.78,62.3,90.89,89.47-47,89.47-47S1460.94,697.62,1276.09,735.41Z"/><path class="cls-24" d="M1404.77,788.56s46,108.21,136.85,26.51C1541.62,815.07,1478.3,691.58,1404.77,788.56Z"/><path class="cls-24" d="M1608,815.07s-28.59,62.73-86.81-8,7.15-31.08,7.15-31.08Z"/><path class="cls-25" d="M850.22,528.09s9.87,84.76,100.78,152.4l657,134.58s-90.89-46-138.89-123.58Z"/><path class="cls-12" d="M1145.5,708.3s-74.49-38.61-98.12-112C1047.38,596.26,1043.71,659.79,1145.5,708.3Z"/><path class="cls-12" d="M1278.2,735s-66.08-34-87.2-99C1191,636,1187.92,692.32,1278.2,735Z"/><path class="cls-12" d="M1411.89,764.21s-70.34-36.07-84.5-99C1327.39,665.25,1323.49,720.72,1411.89,764.21Z"/><path class="cls-12" d="M1515.69,786.09s-64.16-38.06-72.33-92.53C1443.36,693.56,1437.68,743.42,1515.69,786.09Z"/><polygon class="cls-19" points="840 1480.94 916.09 1503.41 945.19 1456.43 937.02 1255.24 922.92 1208.95 834.9 1200.09 843.07 1219.49 840 1480.94"/><polygon class="cls-10" points="922.92 1208.95 913.19 1230.38 916.09 1503.41 972.77 1484 972.77 1225.62 988.09 1200.09 922.92 1208.95"/><path class="cls-10" d="M708.89,884.77s-54.24-29.11-93.53,6.61c-17.57,16-31.15,48.76-30.77,72.52l1.17,415.28,31.35-7,69.7-278.6Z"/><path class="cls-26" d="M763.22,992.51C763.22,931.81,736,889,704,881.15c-11.65-2.86-21.69-3.35-30.36-2a98.48,98.48,0,0,1,10.48,2c32,7.85,59.24,50.66,59.24,111.36v416.7l19.87,7.08Z"/><path class="cls-21" d="M684.11,881.15a98.48,98.48,0,0,0-10.48-2c-62.14,9.61-53.39,113.37-53.39,113.37l-3.13,379.66,126.24,37V992.51C743.35,931.81,716.1,889,684.11,881.15Z"/><path class="cls-27" d="M713.26,933.26a175.46,175.46,0,0,1,4.77,41.8v154.47l-81.92-23L636,1125,736.5,1153.3V1014.51C736.5,978.07,726.87,949.28,713.26,933.26Z"/><path class="cls-28" d="M718,975.06a175.46,175.46,0,0,0-4.77-41.8c-5.55-6.54-11.76-11-18.26-12.89-66.63-19.75-58.67,94.14-58.67,94.14l-.22,92,81.92,23Z"/><path class="cls-25" d="M607.4,746.54c-10.16,15.22,11.57-12,15.82-23.15s3.21-66.17,13.29-72.52,46.77,28.45,46.77,28.45,54.65,23.72,73,14.66c10.13-5,24.42-8.41,35.17-10.45l2.49-11.66,12.57,9.26c13.67,9.2-10.35,70.33-10.35,70.33s9.68,11.27,2.69,52.66c-8.62,51.1-104.57,40.7-151.91,27.64-19.35-5.34-40.21-21-51.81-35-8.63-10.39-11.17-15.17-14.58-27.31C571.55,737.54,611.88,739.82,607.4,746.54Z"/><path class="cls-12" d="M670.71,667.88s-36.69-34.8-46.77-28.44-9,61.38-13.29,72.52-.61,13-15.83,23.14-21.47,25.94-.4,51.55c9.06,11,33.33,30.93,58.37,36.41,39.66,8.69,125.08,22.46,133.46-30.37,6.36-40.13-2.7-52.66-2.7-52.66s17.21-43.78,14.22-62.82a8.21,8.21,0,0,0-9.39-6.74c-9.94,1.52-31.08,5.34-44.71,12.08C725.35,691.61,670.71,667.88,670.71,667.88Z"/><path class="cls-15" d="M666.6,736.59a1.89,1.89,0,0,1-1.26.11,3.88,3.88,0,0,1-.85-.27.63.63,0,0,1-.37-.5,16.85,16.85,0,0,1,0-4.3q.25-3.51.78-8,2.05-13.67,1.53-14.08-.76,1-2.53,3.77c-1.18,1.87-2.61,4.32-4.3,7.37q-2.75,4.91-4,6.71a4.47,4.47,0,0,1-3,2.54,2,2,0,0,1-1,.08,1,1,0,0,1-.57-.25,1.8,1.8,0,0,1-.15-.79c0-.48,0-2,.13-4.48s.27-4.74.48-6.72l.18-2a62.94,62.94,0,0,0,.51-6.88,8,8,0,0,0-2.47,3.07q-1.39,2.49-3.56,7.15-1.86,3.57-5.25,11.8a1.34,1.34,0,0,1-.9.76,2.27,2.27,0,0,1-1.24.14c-.49-.12-.65-.65-.49-1.61s.47-3.05.83-6.28.66-6.07.92-8.53a80.8,80.8,0,0,0,.48-9.83,13.42,13.42,0,0,1,.05-1.63,1.32,1.32,0,0,1,.92-1,2.65,2.65,0,0,1,1.55-.09c.24,0,.28,1.06.11,3s-.45,4.4-.82,7.34l-.21,1.54c-.12,1-.23,2.12-.34,3.26-.52,4.8-.89,7.81-1.1,9q2.16-5.1,4.57-10.18l.88-1.91a34.48,34.48,0,0,1,3.93-6.83q1.77-2.22,3.65-1.77c.4.09.6,1.22.6,3.4a58,58,0,0,1-.55,7.48c-.25,2-.42,4-.53,5.91a26.82,26.82,0,0,0,0,4.1c.31-.47,1-1.53,1.93-3.16l2.77-4.66a135.55,135.55,0,0,1,8-12.57,5,5,0,0,1,1.22-1.18,2.22,2.22,0,0,1,1.64-.08q.59.15.05,5.52t-1.7,12.35c-.7,6.67-.79,10.36-.25,11.1a1.75,1.75,0,0,1,.38,1.44C667.24,736.22,667,736.41,666.6,736.59Z"/><path class="cls-15" d="M690.36,741.61a1,1,0,0,1,.19.65,2.57,2.57,0,0,1-.75,1.15c-.42.4-.78.56-1.09.49a1.34,1.34,0,0,1-1-1.24,5.9,5.9,0,0,1,.12-2.34q.25-1.1,1.69-6.56L690,732a1.89,1.89,0,0,0-.19-1.63q-2.88,3-5.27,5.13a24.84,24.84,0,0,1-5.67,3.76,9.2,9.2,0,0,1-6.3.91,2.94,2.94,0,0,1-2-1.45,3.53,3.53,0,0,1-.24-2.57,12.11,12.11,0,0,1,2.82-4.62,43,43,0,0,1,5.73-5.46,35,35,0,0,1,6.39-4.17,15.42,15.42,0,0,1,3.14-1.22,4.43,4.43,0,0,1,1.9-.06,3.16,3.16,0,0,1,1.4.81,4.21,4.21,0,0,1,1,1.6,3.39,3.39,0,0,1,.1,2,5.21,5.21,0,0,1-1.41,2.52l.83-.05q.51.12.3,1.38c-.08.5-.28,1.5-.58,3s-.56,2.75-.76,3.73-.41,2-.6,3-.34,1.71-.44,2.27A1.3,1.3,0,0,0,690.36,741.61ZM679,737.17a22.07,22.07,0,0,0,5.12-3.41c1.61-1.41,3.43-3.17,5.48-5.3a8.17,8.17,0,0,0,1.25-2.85,2.64,2.64,0,0,0-.18-1.8,1.93,1.93,0,0,0-1.37-1.07,5.18,5.18,0,0,0-3.29.87,32.11,32.11,0,0,0-5.44,3.62,38.92,38.92,0,0,0-5.15,4.84,10.73,10.73,0,0,0-2.57,4.13,1.21,1.21,0,0,0,1,1.68A7.74,7.74,0,0,0,679,737.17Z"/><path class="cls-15" d="M698.69,745.43a3.13,3.13,0,0,1-1.39,0c-.37-.09-.61-.6-.72-1.55a12.3,12.3,0,0,1,.45-4.07q1.26-5.16,3.1-12.45t2.8-11A7.94,7.94,0,0,1,704,714a1.6,1.6,0,0,1,1.8-.78.49.49,0,0,1,.39.5,6.9,6.9,0,0,1-.24,1.51l-.09.3c-.06.16-.13.46-.23.88q-3.66,11.85-6.36,23.28a8.66,8.66,0,0,0-.07,3.27c.19,1.2.27,1.84.26,1.9A.88.88,0,0,1,698.69,745.43Z"/><path class="cls-15" d="M718.78,741.85a28.53,28.53,0,0,1-2.5,2.12A33.66,33.66,0,0,1,711,747.4a6.29,6.29,0,0,1-4.32.62,3.52,3.52,0,0,1-2.51-2.18,5.82,5.82,0,0,1-.3-3.74,24.42,24.42,0,0,1,3.3-7.05,30.92,30.92,0,0,1,5.77-6.85c2.1-1.82,4-2.55,5.54-2.17a2.37,2.37,0,0,1,1.56,1.14,4.8,4.8,0,0,1,.52,1.28,2.78,2.78,0,0,1,.08,1.32,11.22,11.22,0,0,1-.63,1.76c-.3.65-.53,1-.68.93a.61.61,0,0,1-.48-.65,6.9,6.9,0,0,1,.12-1.32,8.73,8.73,0,0,0,.1-1.64c0-.28-.14-.45-.32-.49q-2.16-.51-4.87,2a28.29,28.29,0,0,0-4.94,6.18,22.37,22.37,0,0,0-2.72,5.8c-.47,2,0,3.18,1.31,3.5a5.2,5.2,0,0,0,2.85-.11,13.52,13.52,0,0,0,3-1.46,46.89,46.89,0,0,0,4.87-3.44c.08-.08.31-.27.69-.58s.63-.46.75-.43c.37.09.52.27.46.54A6.34,6.34,0,0,1,718.78,741.85Z"/><path class="cls-15" d="M730.46,727.43c-.38.93-.73,1.44-1,1.52a1.17,1.17,0,0,1-.63,0,1,1,0,0,1-.67-.64,10.62,10.62,0,0,1,.48-2.88l.57-2.82a23,23,0,0,0,.22-2.36,15.76,15.76,0,0,1,.24-2.26c.1-.43.26-.68.47-.76a1.27,1.27,0,0,1,.61.05,2.55,2.55,0,0,1,.92.43,1.4,1.4,0,0,1,.56.69,9.11,9.11,0,0,1-.09,2.22,32.67,32.67,0,0,1-.62,3.45A21.49,21.49,0,0,1,730.46,727.43Z"/><path class="cls-15" d="M746,754.42a11.82,11.82,0,0,1-5,2,14.53,14.53,0,0,1-5.8-.18,6.65,6.65,0,0,1-2.57-1,1.13,1.13,0,0,1-.44-1.17c.06-.28.52-.67,1.39-1.2s1.41-.75,1.66-.69.53.21.49.36a.52.52,0,0,1-.31.31c-.18.09-.28.17-.31.27s.14.29.49.5a4.77,4.77,0,0,0,1.35.51,11.55,11.55,0,0,0,4,.2,9.58,9.58,0,0,0,3.61-1.1,3.38,3.38,0,0,0,1.81-2.14,2.67,2.67,0,0,0-.31-2.15,4.87,4.87,0,0,0-1.7-1.53c-.72-.41-1.95-1-3.68-1.91q-2.85-1.4-4.4-2.31a8.77,8.77,0,0,1-2.37-2,2.56,2.56,0,0,1-.52-2.28,5.4,5.4,0,0,1,3.1-3.52,17.21,17.21,0,0,1,5.62-1.72,13.7,13.7,0,0,1,4.55,0c1,.24,1.48.67,1.34,1.28a2.73,2.73,0,0,1-.65,1.12,1.23,1.23,0,0,1-1.26.41,1.11,1.11,0,0,1-.54-.35,1.28,1.28,0,0,0-.6-.35,11.17,11.17,0,0,0-3-.09,11.66,11.66,0,0,0-4,1,3.61,3.61,0,0,0-2.28,2.5,1.78,1.78,0,0,0,.88,1.92,33.34,33.34,0,0,0,4.38,2.41,5.13,5.13,0,0,0,.77.4,6.67,6.67,0,0,1,.7.33,22.52,22.52,0,0,1,5,3.15,3.51,3.51,0,0,1,1.13,3.6A6,6,0,0,1,746,754.42Z"/><path class="cls-15" d="M652,781.17a25.73,25.73,0,0,1-6.37,3.84,11.92,11.92,0,0,1-7.71.77,9.93,9.93,0,0,1-6.17-3.95q-2.06-3-1-7.59a28.42,28.42,0,0,1,2.78-6.88,40.37,40.37,0,0,1,4.19-6.31,19.6,19.6,0,0,1,4.67-4.11,6,6,0,0,1,4.47-1,3.67,3.67,0,0,1,2.7,2.14,5.79,5.79,0,0,1,.25,3.78,4.65,4.65,0,0,1-.67,1.5,6.58,6.58,0,0,1-1,1.2c-.33.31-.56.45-.68.42s-.33-.23-.27-.5a2.38,2.38,0,0,1,.31-.58,2.87,2.87,0,0,0,.35-.76,8.6,8.6,0,0,0,.23-2.22,2.86,2.86,0,0,0-.58-1.66,2.35,2.35,0,0,0-1.37-.92q-3.3-.78-7.68,4.9a35,35,0,0,0-3.28,5.31,27.3,27.3,0,0,0-2.23,6,8.39,8.39,0,0,0,0,4,6.93,6.93,0,0,0,1.79,3.27,6.85,6.85,0,0,0,3.45,1.88,12.1,12.1,0,0,0,6.44-.18,30.76,30.76,0,0,0,6.34-2.85,11.3,11.3,0,0,0,.89-.88c.51-.54.86-.79,1-.74a.43.43,0,0,1,.34.22,1.11,1.11,0,0,1,0,.53A4,4,0,0,1,652,781.17Z"/><path class="cls-15" d="M672.18,790.45a1,1,0,0,1,.19.65,2.52,2.52,0,0,1-.76,1.15c-.41.4-.78.56-1.08.49-.52-.12-.84-.53-1-1.24a5.72,5.72,0,0,1,.11-2.34q.27-1.1,1.69-6.56l.46-1.72a1.91,1.91,0,0,0-.2-1.64c-1.91,2-3.67,3.7-5.26,5.13a24.84,24.84,0,0,1-5.67,3.76,9.22,9.22,0,0,1-6.3.91,2.91,2.91,0,0,1-2-1.45,3.58,3.58,0,0,1-.24-2.57,12.29,12.29,0,0,1,2.83-4.62,43,43,0,0,1,5.73-5.46,35,35,0,0,1,6.39-4.17,15.2,15.2,0,0,1,3.14-1.22,4.39,4.39,0,0,1,1.89-.06,3.12,3.12,0,0,1,1.41.82,4.08,4.08,0,0,1,1,1.59,3.39,3.39,0,0,1,.11,2,5.29,5.29,0,0,1-1.41,2.52l.83,0c.33.07.43.53.3,1.37-.08.5-.28,1.5-.59,3s-.55,2.75-.75,3.74-.41,2-.6,3-.34,1.7-.44,2.26A1.3,1.3,0,0,0,672.18,790.45ZM660.81,786a22.13,22.13,0,0,0,5.13-3.41c1.6-1.4,3.43-3.17,5.47-5.3a8,8,0,0,0,1.25-2.84,2.61,2.61,0,0,0-.17-1.81,1.93,1.93,0,0,0-1.37-1.07,5.22,5.22,0,0,0-3.3.87,32.51,32.51,0,0,0-5.44,3.62,39.6,39.6,0,0,0-5.15,4.85,10.66,10.66,0,0,0-2.56,4.12c-.22.92.1,1.48,1,1.68A7.73,7.73,0,0,0,660.81,786Z"/><path class="cls-15" d="M700.33,780.73a6.73,6.73,0,0,1-2.55.08l-4.91-.29-3.09-.2q-.56,2.38-1.11,5T687.8,790a19,19,0,0,0-.32,4.23c.08,1,.13,1.59.13,1.72a1.1,1.1,0,0,1-.77.71,2,2,0,0,1-1.17.13.68.68,0,0,1-.42-.27,1.31,1.31,0,0,1-.2-.6,11.16,11.16,0,0,1,0-2.5c.1-1.2.28-2.51.52-3.94.2-1.27.47-2.74.82-4.41s.7-3.29,1.07-4.85c-1.78-.13-3.61-.2-5.5-.23a23.28,23.28,0,0,1-3-.18,1.82,1.82,0,0,1-1-.56,1,1,0,0,1-.27-1c.09-.4.29-.63.59-.68a3.76,3.76,0,0,1,1.42.14,11.8,11.8,0,0,0,2.07.22l1.77.06c2.14.08,3.59.15,4.35.2.15-.64.32-1.49.5-2.54.27-1.42.49-2.49.67-3.22a27.05,27.05,0,0,1,.76-2.75,7.18,7.18,0,0,1,.85-1.66,1.4,1.4,0,0,1,1.59-.59.85.85,0,0,1,.52.27.75.75,0,0,1,0,.53c0,.19-.25.7-.61,1.55a23.07,23.07,0,0,0-1.06,3.47c-.26,1.13-.53,2.4-.8,3.82l-.25,1.25c1.43.11,4.27.18,8.55.22a1.06,1.06,0,0,0,.77-.49c.25-.33.47-.47.65-.43a1.51,1.51,0,0,1,.9.82,1.79,1.79,0,0,1,.25,1.29A1.35,1.35,0,0,1,700.33,780.73Z"/><path class="cls-15" d="M714.6,800.15a11.93,11.93,0,0,1-5,2,14.4,14.4,0,0,1-5.81-.19,6.28,6.28,0,0,1-2.56-1,1.15,1.15,0,0,1-.45-1.17c.06-.27.53-.67,1.39-1.19s1.42-.75,1.66-.69.53.2.5.35-.14.23-.32.32-.28.17-.3.26.13.29.48.5a4.55,4.55,0,0,0,1.36.52,11.73,11.73,0,0,0,4,.2,9.63,9.63,0,0,0,3.62-1.11,3.4,3.4,0,0,0,1.8-2.13,2.63,2.63,0,0,0-.31-2.15,5,5,0,0,0-1.69-1.54c-.73-.41-1.95-1-3.68-1.9-1.91-.93-3.38-1.71-4.41-2.32a8.23,8.23,0,0,1-2.36-2,2.55,2.55,0,0,1-.53-2.27,5.41,5.41,0,0,1,3.1-3.52,17,17,0,0,1,5.62-1.72,13.75,13.75,0,0,1,4.55,0c1,.25,1.48.67,1.34,1.28a2.6,2.6,0,0,1-.65,1.13,1.24,1.24,0,0,1-1.26.41,1.19,1.19,0,0,1-.54-.35,1.2,1.2,0,0,0-.59-.36,11.8,11.8,0,0,0-3-.08,12,12,0,0,0-4,.94,3.62,3.62,0,0,0-2.28,2.51,1.78,1.78,0,0,0,.88,1.92,34.05,34.05,0,0,0,4.38,2.41,5.74,5.74,0,0,0,.78.4,7.52,7.52,0,0,1,.69.33,21.81,21.81,0,0,1,5,3.15,3.5,3.5,0,0,1,1.13,3.6A6,6,0,0,1,714.6,800.15Z"/><polygon class="cls-26" points="639.59 1156.91 730.42 1184.47 730.42 1380.8 639.59 1351.4 639.59 1156.91"/><g class="cls-29"><polygon class="cls-30" points="652.53 1359.1 654.99 1186.56 677.03 1191.42 671.74 1329.48 691.84 1328.97 695.87 1156.91 718.03 1165.06 706.7 1389.23 742.66 1392.29 748.08 1139.02 617.56 1125.03 614.11 1307.53 630.36 1362.17 652.53 1359.1"/></g><polygon class="cls-25" points="687.59 282.03 1397.87 534.31 1504.95 654.27 884.35 485.19 687.59 282.03"/><path class="cls-24" d="M951.65,411.33a8,8,0,0,1,.07-10.66c3.62-3.92,8-9,9.35-11.77,2.35-4.94,27.9,26,27.62,33.67s-12.66,15.36-15.77,14.6C970.51,436.58,959.88,420.62,951.65,411.33Z"/><path class="cls-24" d="M947.91,466.25a8.56,8.56,0,0,1,.32-11.44c4-4.13,8.82-9.48,10.3-12.42,2.63-5.26,29.3,28.39,28.83,36.68s-13.94,16.22-17.26,15.34C967.54,493.72,956.51,476.39,947.91,466.25Z"/><path class="cls-24" d="M811.05,370.69a6.53,6.53,0,0,1,.49-8.74c3.13-3.06,7-7,8.16-9.24,2.14-4,21.85,22.49,21.31,28.81s-8.23,12.83-10.76,12.06C828.3,393,817.42,378.67,811.05,370.69Z"/><path class="cls-24" d="M1146,509.09a6.54,6.54,0,0,1,.49-8.74c3.14-3.06,7-7,8.17-9.25,2.13-4,21.85,22.5,21.3,28.82s-8.23,12.82-10.75,12.06C1163.28,531.39,1152.41,517.07,1146,509.09Z"/><path class="cls-24" d="M1313.13,556a5.28,5.28,0,0,1,.4-7.06c2.53-2.47,5.62-5.67,6.59-7.46,1.72-3.2,17.65,18.17,17.21,23.27s-6.65,10.36-8.69,9.74C1327.06,574,1318.28,562.47,1313.13,556Z"/><path class="cls-24" d="M1255.83,517.54a7.15,7.15,0,0,1,.54-9.56c3.43-3.34,7.61-7.67,8.92-10.1,2.33-4.32,23.87,24.58,23.28,31.49s-9,14-11.76,13.18C1274.68,541.9,1262.8,526.25,1255.83,517.54Z"/><path class="cls-24" d="M891.72,435.17a7,7,0,0,1,.28-9.43c3.29-3.38,7.31-7.77,8.53-10.19,2.19-4.32,24.18,23.61,23.77,30.44s-8.5,14.05-11.25,13.3C910.93,458.71,898.81,443.59,891.72,435.17Z"/><path class="cls-27" d="M717.07,1204.94s8.86,2.91,7.53-7.15-15-8.71-15.71,2.94c-.45,7.72,11.5,34.09,7.75,38.29-3.57,4-7.75.07-7.75.07s0,9.21,8.18,7.59C725.85,1244.94,722.38,1223.72,717.07,1204.94Z"/><path class="cls-31" d="M887.53,1505.25c9.64-35.58-15.82-44-17.77-52.8,0,0,32.64,7.15,34.53,31.34l0-18.3a51.4,51.4,0,0,0-3.59-18.91,61,61,0,0,1-1-42s19.66,63.61,31.68,60.9c0,0-8.22-21.39.09-32.17,0,0,8.66,25.13,24.87,46.52C977.1,1507.28,886.62,1523.19,887.53,1505.25Z"/><path class="cls-31" d="M1183.49,1412.13s-8.08-47.07-19.22-52.09c0,0,3.33,38.64-3.29,43.54s-20.82-32.12-20.82-32.12-8.31,28.39,2.68,39.38S1183.49,1412.13,1183.49,1412.13Z"/><path class="cls-31" d="M1169.29,1406.3a50.76,50.76,0,0,0,21.59-30.82s3.91,26-9.64,34.29C1170.07,1416.66,1169.29,1406.3,1169.29,1406.3Z"/><path class="cls-31" d="M1140.9,1413.66s-21.16-29.54-26.08-48.06c0,0-6.26,34.63,6.41,51.42S1140.9,1413.66,1140.9,1413.66Z"/><path class="cls-31" d="M1146.76,1414.11s-7.63-27.18-6.59-42.77c0,0-12.78,26.47-8,42S1146.76,1414.11,1146.76,1414.11Z"/><ellipse class="cls-18" cx="1050.33" cy="1167.66" rx="31.07" ry="14.43"/><path class="cls-32" d="M1014.45,1130l4.14,34.7a6.54,6.54,0,0,0,3.24,4.77c7.09,4.07,27.1,12.77,54.7,1.81a6.52,6.52,0,0,0,4-4.86l6.63-35.73S1025.59,1118.63,1014.45,1130Z"/><path class="cls-33" d="M1007.1,1109.45s13.16-13.79,43-11.87,41.35,5.33,43.33,13-6.33,8.56-6.33,8.56l-59.09,8.68Z"/><path class="cls-33" d="M1007.1,1109.45s38,24.94,86.35,1.14c0,0,2.62,7.59-2.28,17.23a16.07,16.07,0,0,1-9.77,8.07c-10.1,3-33.17,6.56-59.28.22a20.91,20.91,0,0,1-15.33-25.57C1006.89,1110.18,1007,1109.82,1007.1,1109.45Z"/><ellipse class="cls-14" cx="1049.93" cy="1111.46" rx="38.46" ry="10.59"/><path class="cls-34" d="M1044.52,1108.73l1.49-48.58,5,3.23,2.85,45.62a2.79,2.79,0,0,1-1.71,2.51,6.81,6.81,0,0,1-6.39-.43A2.76,2.76,0,0,1,1044.52,1108.73Z"/><path class="cls-6" d="M1019.6,1060.37s-29.94-.76-19.27-23.61c0,0-28.55-25.52-.93-31,0,0-7.14-32.7,23.73-21,0,0,4.6-34.15,25.95-11.8,0,0,29.48-16.64,30,12.17,0,0,37.14-14,22.28,27.91,0,0,27.39,19,2.32,30.46,0,0,9.06,39.2-33.19,17,0,0-6.73,26-25.77,4.14C1044.67,1064.62,1024.24,1086.44,1019.6,1060.37Z"/><path class="cls-6" d="M1029.64,1073.17c3.28,0,6.73-1.87,9.51-3.82-.64-.65-1.29-1.35-2-2.12A36.27,36.27,0,0,1,1029.64,1073.17Z"/><path class="cls-2" d="M1101.31,1013c14.86-41.9-22.28-27.91-22.28-27.91-.47-28.81-30-12.17-30-12.17-13.5-14.13-20.3-5.68-23.48,2.45,3.64-2,8.71-1.18,15.71,6.15,0,0,27.56-15.56,28,11.38,0,0,34.72-13.08,20.83,26.08,0,0,25.6,17.8,2.17,28.48,0,0,3.17,13.75-3.45,19.63,20.82,2.52,14.78-23.63,14.78-23.63C1128.7,1032.06,1101.31,1013,1101.31,1013Z"/><path class="cls-2" d="M1021.14,1037c-.6,23.35,15.68,10.31,15.68,10.31,4.92,14.32,16.94,1.2,16.94,1.2,9,4.86,11.07-.47,11.33-5-1.49,1.59-4.16,2-8.85-.52,0,0-11.23,12.26-15.83-1.12,0,0-15.22,12.19-14.66-9.64,0,0-15.69-4.72-5.72-13.87,0,0-3.83-6.36-1.48-10.37-10.81,2.13-3.53,14.21-3.53,14.21C1004.35,1032,1021.14,1037,1021.14,1037Z"/></svg>