<svg height="512pt" viewBox="0 0 512 512" width="512pt" xmlns="http://www.w3.org/2000/svg"><path d="m93.054688 512c0-89.992188 72.953124-162.945312 162.945312-162.945312s162.945312 72.953124 162.945312 162.945312zm0 0" fill="#dfe0e0"/><path d="m339.726562 372.191406c-24.46875-14.6875-53.109374-23.136718-83.726562-23.136718s-59.257812 8.449218-83.726562 23.136718c25.363281 12.179688 53.761718 19.011719 83.726562 19.011719s58.363281-6.832031 83.726562-19.011719zm0 0" fill="#c9caca"/><path d="m299.019531 362.535156c0 23.757813-19.261719 43.019532-43.019531 43.019532s-43.019531-19.261719-43.019531-43.019532c0-23.761718 19.261719-43.019531 43.019531-43.019531s43.019531 19.257813 43.019531 43.019531zm0 0" fill="#e3b098"/><path d="m256 319.515625c-23.757812 0-43.019531 19.257813-43.019531 43.019531 0 9.578125 3.136719 18.425782 8.429687 25.574219 11.230469 2.03125 22.785156 3.089844 34.589844 3.089844 11.800781 0 23.359375-1.058594 34.585938-3.089844 5.296874-7.148437 8.429687-15.996094 8.429687-25.574219.003906-23.757812-19.257813-43.019531-43.015625-43.019531zm0 0" fill="#cc9883"/><path d="m324.617188 364.949219s32.582031 41.144531 68.320312 41.066406c35.738281-.074219 68.320312-41.066406 68.320312-41.066406s-32.582031-40.988281-68.320312-41.0625-68.320312 41.0625-68.320312 41.0625zm0 0" fill="#a24555"/><path d="m187.382812 364.949219s-32.582031 41.144531-68.320312 41.066406c-35.738281-.074219-68.320312-41.066406-68.320312-41.066406s32.582031-40.988281 68.320312-41.0625 68.320312 41.0625 68.320312 41.0625zm0 0" fill="#a24555"/><path d="m461.589844 204.316406c0 19.554688-15.851563 35.40625-35.40625 35.40625-19.554688 0-35.40625-15.851562-35.40625-35.40625 0-19.554687 15.851562-35.40625 35.40625-35.40625 19.554687 0 35.40625 15.851563 35.40625 35.40625zm0 0" fill="#cc9883"/><path d="m121.222656 204.316406c0 19.554688-15.851562 35.40625-35.40625 35.40625-19.554687 0-35.40625-15.851562-35.40625-35.40625 0-19.554687 15.851563-35.40625 35.40625-35.40625 19.554688 0 35.40625 15.851563 35.40625 35.40625zm0 0" fill="#cc9883"/><path d="m81.296875 159.867188c-2.554687 12.023437-3.90625 24.488281-3.90625 37.273437 0 98.640625 79.964844 178.609375 178.609375 178.609375 98.640625 0 178.609375-79.96875 178.609375-178.609375 0-12.785156-1.355469-25.25-3.910156-37.273437zm0 0" fill="#fbc4ac"/><path d="m77.414062 195.464844h357.171876c-.113282-12.195313-1.441407-24.101563-3.882813-35.597656h-349.40625c-2.441406 11.496093-3.769531 23.402343-3.882813 35.597656zm0 0" fill="#e3b098"/><path d="m108.296875 197.140625c0-12.785156 1.351563-25.25 3.90625-37.273437h-30.90625c-2.554687 12.023437-3.90625 24.488281-3.90625 37.273437 0 98.640625 79.964844 178.609375 178.609375 178.609375 5.207031 0 10.359375-.238281 15.453125-.675781-91.40625-7.832031-163.15625-84.5-163.15625-177.933594zm0 0" fill="#e3b098"/><path d="m386.820312 44.8125c-10.085937-22.664062-60.792968-44.8125-130.820312-44.8125s-120.734375 22.148438-130.820312 44.8125c-10.085938 22.664062-23.957032 95.230469-23.957032 95.230469h309.554688s-13.871094-72.566407-23.957032-95.230469zm0 0" fill="#535860"/><path d="m271.453125.367188c-5.039063-.238282-10.1875-.367188-15.453125-.367188-70.027344 0-120.734375 22.148438-130.820312 44.8125-10.085938 22.664062-23.957032 95.230469-23.957032 95.230469h30.90625s13.867188-72.566407 23.957032-95.230469c9.324218-20.960938 53.402343-41.476562 115.367187-44.445312zm0 0" fill="#3f444c"/><path d="m256 129.742188c-87.082031 0-208.007812-25.644532-244.886719-33.949219-5.699219-1.28125-11.113281 3.054687-11.113281 8.894531v66.210938c0 5.035156 4.082031 9.113281 9.117188 9.113281h493.765624c5.035157 0 9.117188-4.078125 9.117188-9.113281v-66.210938c0-5.839844-5.414062-10.175781-11.113281-8.894531-36.878907 8.304687-157.804688 33.949219-244.886719 33.949219zm0 0" fill="#5c626b"/><path d="m30.90625 170.898438v-66.210938c0-1.585938.410156-3.054688 1.105469-4.335938-8.480469-1.796874-15.570313-3.359374-20.898438-4.558593-5.699219-1.28125-11.113281 3.054687-11.113281 8.894531v66.210938c0 5.035156 4.082031 9.113281 9.117188 9.113281h30.902343c-5.03125 0-9.113281-4.082031-9.113281-9.113281zm0 0" fill="#535860"/><path d="m239.757812 224.691406-134.523437 68.246094c31.699219 49.78125 87.371094 82.8125 150.765625 82.8125s119.066406-33.027344 150.765625-82.8125l-134.523437-68.246094c-10.210938-5.179687-22.273438-5.179687-32.484376 0zm0 0" fill="#e15f76"/><path d="m129.09375 280.832031-23.859375 12.105469c31.699219 49.78125 87.371094 82.8125 150.765625 82.8125 5.191406 0 10.324219-.242188 15.402344-.679688-61.796875-5.3125-114.597656-42.089843-142.308594-94.238281zm0 0" fill="#bf5164"/><path d="m435.4375 289.398438c1.894531-3.835938-.898438-8.332032-5.179688-8.332032h-64.617187c-24.316406 0-44.03125 19.710938-44.03125 44.03125v186.902344h97.335937c0-39.105469-13.78125-74.988281-36.746093-103.070312-2.1875-2.675782-2.636719-6.367188-1.105469-9.46875zm0 0" fill="#5c626b"/><path d="m76.5625 289.398438c-1.894531-3.835938.898438-8.332032 5.179688-8.332032h64.617187c24.316406 0 44.03125 19.710938 44.03125 44.03125v186.902344h-97.335937c0-39.105469 13.78125-74.988281 36.742187-103.070312 2.1875-2.675782 2.640625-6.367188 1.109375-9.46875zm0 0" fill="#5c626b"/><path d="m161.8125 399.460938-54.34375-110.0625c-1.894531-3.835938.898438-8.332032 5.179688-8.332032h-30.90625c-4.28125 0-7.074219 4.496094-5.179688 8.332032l54.34375 110.0625c1.53125 3.097656 1.078125 6.792968-1.109375 9.46875-22.960937 28.082031-36.742187 63.964843-36.742187 103.070312h30.90625c0-39.105469 13.777343-74.988281 36.742187-103.070312 2.1875-2.675782 2.640625-6.367188 1.109375-9.46875zm0 0" fill="#535860"/><g fill="#3f444c"><path d="m321.609375 227.035156c-4.140625 0-7.5-3.355468-7.5-7.5v-11.695312c0-4.144532 3.359375-7.5 7.5-7.5 4.144531 0 7.5 3.355468 7.5 7.5v11.695312c0 4.144532-3.355469 7.5-7.5 7.5zm0 0"/><path d="m190.386719 227.035156c-4.140625 0-7.5-3.355468-7.5-7.5v-11.695312c0-4.144532 3.359375-7.5 7.5-7.5 4.144531 0 7.5 3.355468 7.5 7.5v11.695312c0 4.144532-3.355469 7.5-7.5 7.5zm0 0"/></g></svg>