<?xml version="1.0" encoding="iso-8859-1"?>
<!-- Generator: Adobe Illustrator 19.0.0, SVG Export Plug-In . SVG Version: 6.00 Build 0)  -->
<svg version="1.1" id="Capa_1" xmlns="http://www.w3.org/2000/svg" xmlns:xlink="http://www.w3.org/1999/xlink" x="0px" y="0px"
	 viewBox="0 0 511.999 511.999" style="enable-background:new 0 0 511.999 511.999;" xml:space="preserve">
<g>
	<path style="fill:#E8E8E8;" d="M502.42,89.036c-12.773,12.763-33.47,12.763-46.243,0c-0.409-0.42-0.819-0.84-1.207-1.27
		L151.994,390.741l-64.233,64.233c0.43,0.388,0.861,0.787,1.27,1.207c12.773,12.763,12.773,33.47,0,46.243
		c-12.773,12.763-33.47,12.763-46.243,0c-6.518-6.528-9.698-15.114-9.561-23.647c-8.543,0.136-17.129-3.054-23.647-9.572
		c-12.773-12.763-12.773-33.47,0-46.243c12.763-12.763,33.47-12.763,46.243,0c0.409,0.42,0.808,0.84,1.196,1.27L424.228,57.024
		c-0.43-0.388-0.85-0.787-1.259-1.207c-12.773-12.763-12.773-33.47,0-46.243c12.763-12.763,33.47-12.763,46.243,0
		c6.518,6.518,9.698,15.103,9.561,23.647c8.543-0.136,17.129,3.054,23.647,9.572C515.192,55.555,515.192,76.264,502.42,89.036z"/>
	<path style="fill:#E8E8E8;" d="M502.42,469.207c-6.518,6.518-15.103,9.708-23.647,9.572c0.136,8.533-3.044,17.118-9.561,23.646
		c-12.773,12.763-33.481,12.763-46.243,0c-12.773-12.773-12.773-33.481,0-46.243c0.409-0.42,0.829-0.819,1.259-1.207l-64.233-64.233
		l-8.47-8.47l-95.531-95.531L225.253,256L99.034,129.78L57.02,87.767c-0.388,0.43-0.787,0.85-1.196,1.27
		c-12.773,12.763-33.481,12.763-46.243,0c-12.773-12.773-12.773-33.481,0-46.243c6.518-6.518,15.103-9.708,23.647-9.572
		c-0.136-8.543,3.044-17.129,9.561-23.647c12.773-12.763,33.47-12.763,46.243,0c12.773,12.773,12.773,33.481,0,46.243
		c-0.409,0.42-0.84,0.819-1.27,1.207l33.596,33.596l134.637,134.637L286.736,256l98.165,98.165l9.803,9.803l60.266,60.266
		c0.388-0.43,0.798-0.85,1.207-1.27c12.773-12.763,33.47-12.763,46.243,0C515.192,435.737,515.192,456.443,502.42,469.207z"/>
</g>
<path style="fill:#C1C0BF;" d="M384.901,354.164l9.803,9.803h-1.973c-8.921,0-17.297,3.474-23.615,9.782
	c-4.712,4.723-7.84,10.601-9.121,16.992l-8.47-8.47l-95.531-95.531L151.994,390.741c-3.075-15.25-16.583-26.774-32.725-26.774
	h-1.984l107.968-107.968l-126.22-126.22l-8.019-8.019c6.014-13.865,13.718-26.827,22.859-38.624l7.483,7.483l134.637,134.637
	l142.12-142.12c9.152,11.797,16.856,24.759,22.859,38.624L286.736,255.999L384.901,354.164z"/>
<path style="fill:#E8E8E8;" d="M404.213,192.984V332.48h-11.482c-17.916,0-34.132,7.263-45.876,19.007
	c-11.734,11.734-18.997,27.95-18.997,45.866v37.091c0,18.105-14.673,32.778-32.778,32.778h-78.171
	c-18.094,0-32.767-14.673-32.767-32.778v-37.091c0-35.821-29.052-64.873-64.873-64.873h-11.482V192.984
	c0-81.855,66.353-148.208,148.208-148.208S404.213,111.129,404.213,192.984z"/>
<path style="fill:#C1C0BF;" d="M156.371,298.247c1.21,14.851,8.869,28.403,20.9,37.193c17.27,12.617,40.666,40.951,40.666,101.871
	c0,12.374,2.225,22.198,6.098,29.912h-7.126c-18.094,0-32.767-14.673-32.767-32.778v-37.091c0-35.829-29.044-64.873-64.873-64.873
	h-11.482V192.985c0-81.855,66.353-148.208,148.208-148.208C219.581,44.777,140.182,99.543,156.371,298.247z"/>
<g>
	<path style="fill:#423D3D;" d="M256.497,284.554h-0.499H255.5c-14.607,0-26.449,11.841-26.449,26.449v15.969
		c0,7.441,6.033,13.474,13.474,13.474c7.441,0,13.474-6.033,13.474-13.474c0,7.441,6.033,13.474,13.474,13.474
		c7.441,0,13.474-6.033,13.474-13.474v-15.969C282.945,296.395,271.104,284.554,256.497,284.554z"/>
	<circle style="fill:#423D3D;" cx="329.802" cy="243.402" r="43.915"/>
	<circle style="fill:#423D3D;" cx="182.203" cy="243.402" r="43.915"/>
</g>
<g>
	<path style="fill:#C1C0BF;" d="M269.472,348.316c-5.105,0-9.797-1.801-13.474-4.802c-3.677,3.001-8.369,4.802-13.473,4.802
		c-11.77,0-21.345-9.575-21.345-21.345v-15.969c0-18.925,15.396-34.321,34.321-34.321h0.998c18.925,0,34.32,15.396,34.32,34.321
		v15.969C290.817,338.741,281.242,348.316,269.472,348.316z M255.998,319.099c4.347,0,7.872,3.524,7.872,7.872
		c0,3.089,2.514,5.602,5.603,5.602s5.602-2.513,5.602-5.602v-15.969c0-10.244-8.333-18.577-18.577-18.577h-0.998
		c-10.244,0-18.577,8.333-18.577,18.577v15.969c0,3.089,2.514,5.602,5.601,5.602s5.601-2.513,5.601-5.602
		C248.126,322.624,251.651,319.099,255.998,319.099z"/>
	<path style="fill:#C1C0BF;" d="M329.798,295.184c-28.555,0-51.786-23.231-51.786-51.786s23.231-51.786,51.786-51.786
		s51.786,23.231,51.786,51.786S358.353,295.184,329.798,295.184z M329.798,207.356c-19.874,0-36.043,16.168-36.043,36.043
		s16.168,36.043,36.043,36.043s36.043-16.168,36.043-36.043S349.672,207.356,329.798,207.356z"/>
	<path style="fill:#C1C0BF;" d="M182.198,295.184c-28.555,0-51.786-23.231-51.786-51.786s23.231-51.786,51.786-51.786
		s51.786,23.231,51.786,51.786S210.753,295.184,182.198,295.184z M182.198,207.356c-19.874,0-36.043,16.168-36.043,36.043
		s16.168,36.043,36.043,36.043s36.043-16.168,36.043-36.043S202.072,207.356,182.198,207.356z"/>
	<path style="fill:#C1C0BF;" d="M219.07,432.177c-4.347,0-7.872-3.524-7.872-7.872v-56.889c0-4.347,3.524-7.872,7.872-7.872
		s7.872,3.524,7.872,7.872v56.889C226.942,428.652,223.418,432.177,219.07,432.177z"/>
	<path style="fill:#C1C0BF;" d="M255.998,432.177c-4.347,0-7.872-3.524-7.872-7.872v-56.889c0-4.347,3.524-7.872,7.872-7.872
		c4.347,0,7.872,3.524,7.872,7.872v56.889C263.87,428.652,260.345,432.177,255.998,432.177z"/>
	<path style="fill:#C1C0BF;" d="M292.926,432.177c-4.347,0-7.872-3.524-7.872-7.872v-56.889c0-4.347,3.524-7.872,7.872-7.872
		c4.347,0,7.872,3.524,7.872,7.872v56.889C300.797,428.652,297.273,432.177,292.926,432.177z"/>
	<rect x="184.144" y="389.48" style="fill:#C1C0BF;" width="143.716" height="15.743"/>
</g>
<g>
</g>
<g>
</g>
<g>
</g>
<g>
</g>
<g>
</g>
<g>
</g>
<g>
</g>
<g>
</g>
<g>
</g>
<g>
</g>
<g>
</g>
<g>
</g>
<g>
</g>
<g>
</g>
<g>
</g>
</svg>
