<svg xmlns="http://www.w3.org/2000/svg" viewBox="0 0 512 512" width="512" height="512">
	<style>
		tspan { white-space:pre }
		.shp0 { fill: #ff9f00 } 
		.shp1 { fill: #493a22 } 
		.shp2 { fill: #ff7816 } 
		.shp3 { fill: #ffd400 } 
		.shp4 { fill: #ec5569 } 
		.shp5 { fill: #cc2e43 } 
		.shp6 { fill: #697c86 } 
		.shp7 { fill: #465a61 } 
	</style>
	<path id="Layer" class="shp0" d="M256 512C114.43 512 0 397.57 0 256C0 114.43 114.43 0 256 0C397.57 0 512 114.43 512 256C512 397.57 397.57 512 256 512Z" />
	<path id="Layer" class="shp1" d="M256 482.27C130.87 482.27 29.73 381.13 29.73 256C29.73 130.87 130.87 29.73 256 29.73C381.13 29.73 482.27 130.87 482.27 256C482.27 381.13 381.13 482.27 256 482.27Z" />
	<g id="Layer">
	</g>
	<path id="Layer" class="shp2" d="M376.34 110L351.68 110L334.17 127.11L376.34 127.11C381.06 127.11 384.89 130.94 384.89 135.66L384.89 148.7C384.89 165.94 378.96 182.85 368.18 196.32C358.98 207.82 346.74 216.36 332.77 221.01L320.71 225.03C316.23 226.52 313.8 231.37 315.29 235.86C316.49 239.44 319.83 241.7 323.41 241.7C324.31 241.7 325.22 241.56 326.12 241.27L338.18 237.24C355.28 231.55 370.28 221.09 381.55 207.01C394.73 190.52 402 169.81 402 148.7L402 135.66C402 121.51 390.49 110 376.34 110Z" />
	<path id="Layer" class="shp0" d="M191.29 225.03L179.23 221.02C165.26 216.36 153.02 207.82 143.82 196.32C133.04 182.85 127.11 165.94 127.11 148.7L127.11 135.66C127.11 130.94 130.94 127.11 135.66 127.11L179.87 127.11L160.32 110L135.66 110C121.51 110 110 121.51 110 135.66L110 148.7C110 169.81 117.27 190.52 130.45 207.01C141.72 221.09 156.72 231.55 173.82 237.25L185.88 241.27C186.78 241.56 187.69 241.7 188.59 241.7C192.17 241.7 195.51 239.44 196.71 235.86C198.2 231.37 195.77 226.52 191.29 225.03Z" />
	<path id="Layer" class="shp3" d="M282.23 276.99L282.23 289.65C282.23 294.44 286 298.2 290.79 298.2C304.99 298.2 316.45 309.67 316.45 323.87L316.45 340.98C316.45 345.77 312.69 349.53 307.9 349.53L204.1 349.53C199.31 349.53 195.55 345.77 195.55 340.98L195.55 323.87C195.55 309.67 207.01 298.2 221.21 298.2C226 298.2 229.77 294.44 229.77 289.65L229.77 276.99C197.94 266.89 174.67 238.83 170.91 205.47L160.3 110L351.7 110L341.09 205.47C337.33 238.83 314.06 266.89 282.23 276.99L282.23 276.99Z" />
	<path id="Layer" class="shp0" d="M307.9 349.53L256 349.53L256 110L351.7 110L341.09 205.47C337.33 238.83 314.06 266.89 282.23 276.99L282.23 289.65C282.23 294.44 286 298.2 290.79 298.2C304.99 298.2 316.45 309.67 316.45 323.87L316.45 340.98C316.45 345.77 312.69 349.53 307.9 349.53Z" />
	<path id="Layer" class="shp0" d="M298.43 174.5C297.4 171.25 294.67 169.03 291.42 168.51L272.25 165.78L263.7 148.84C262.16 145.93 259.08 144.56 256 144.56C252.92 144.56 249.84 145.93 248.3 148.84L239.75 165.78L220.58 168.51C217.33 169.03 214.6 171.25 213.57 174.5C212.71 177.58 213.57 181 215.96 183.23L229.65 196.4L226.4 214.88C225.89 217.96 227.09 221.21 229.82 223.26C232.39 225.15 235.98 225.49 238.72 223.95L256 215.05L273.28 223.95C276.19 225.49 279.61 225.15 282.18 223.26C284.91 221.21 286.11 217.96 285.6 214.88L282.35 196.4L296.04 183.23C298.43 181 299.29 177.58 298.43 174.5L298.43 174.5Z" />
	<path id="Layer" class="shp4" d="M333.56 340.98L333.56 392.76L178.44 392.76L178.44 340.98C178.44 336.18 182.2 332.42 186.99 332.42L325.01 332.42C329.8 332.42 333.56 336.18 333.56 340.98Z" />
	<path id="Layer" class="shp2" d="M273.28 223.95L256 215.05L256 144.56C259.08 144.56 262.16 145.93 263.7 148.84L272.25 165.78L291.42 168.51C294.67 169.03 297.4 171.25 298.43 174.5C299.29 177.58 298.43 181 296.04 183.23L282.35 196.4L285.6 214.88C286.11 217.96 284.91 221.21 282.18 223.26C279.61 225.15 276.19 225.49 273.28 223.95Z" />
	<path id="Layer" class="shp5" d="M333.56 340.98L333.56 392.76L256 392.76L256 332.42L325.01 332.42C329.8 332.42 333.56 336.18 333.56 340.98Z" />
	<path id="Layer" class="shp6" d="M350.67 393.45C350.67 398.24 346.91 402 342.12 402L169.88 402C165.09 402 161.33 398.24 161.33 393.45C161.33 388.65 165.09 384.89 169.88 384.89L342.12 384.89C346.91 384.89 350.67 388.65 350.67 393.45Z" />
	<path id="Layer" class="shp7" d="M350.67 393.45C350.67 398.24 346.91 402 342.12 402L256 402L256 384.89L342.12 384.89C346.91 384.89 350.67 388.65 350.67 393.45Z" />
</svg>