<?xml version="1.0" encoding="utf-8"?>
<!-- Generator: Adobe Illustrator 26.0.1, SVG Export Plug-In . SVG Version: 6.00 Build 0)  -->
<svg version="1.1" id="Layer_1" xmlns="http://www.w3.org/2000/svg" xmlns:xlink="http://www.w3.org/1999/xlink" x="0px" y="0px"
	 viewBox="0 0 2000 2000" style="enable-background:new 0 0 2000 2000;" xml:space="preserve">
<style type="text/css">
	.st0{fill:#AED76A;}
	.st1{fill:#969087;}
	.st2{fill:#ADABA7;}
	.st3{fill:#E8E2DB;}
	.st4{fill:#442715;}
	.st5{fill:#AA683A;}
	.st6{fill:#D18538;}
	.st7{fill:#E2A26E;}
	.st8{fill:#D8C09C;}
	.st9{fill:#E0CFB1;}
	.st10{fill:#A57A5E;}
	.st11{fill:#859B1D;}
	.st12{fill:#77841A;}
	.st13{fill:#8E5731;}
	.st14{fill:#676D17;}
	.st15{clip-path:url(#SVGID_00000016792309300418621130000008555200839904964233_);}
	.st16{fill:#824C27;}
	.st17{clip-path:url(#SVGID_00000067220872174550029920000002846031241051829125_);}
	.st18{fill:#AFD86A;}
</style>
<path class="st0" d="M943.9,929c0,0-608.1-146.2-719.8,31.6c-104.5,166.3-191.8,870.2,754.6,638.6
	c113.8-27.9,230.8-94.5,336.7-141.4c67.6-30,227.2,26,363.1-36.6c184.5-85,230.1-274.9,134.5-449.4
	C1692.7,752.2,1384.4,575.3,943.9,929z"/>
<path class="st1" d="M322.8,1371.6c0,0-32.1-14.2-34-34.2s9.4-52.4,9.4-52.4l35.7,24.2L322.8,1371.6z"/>
<path class="st2" d="M326.4,1314.8c0,0-20.6,23.1-3.6,56.8c2.4,4.8,35,1.4,35,1.4s9.5-20.6,21.4-24.3s15-16.9-0.7-42.6
	s-47-18.1-47-18.1L326.4,1314.8z"/>
<path class="st3" d="M378.4,1306l-15.1,21.5l-36.2-23l-23.9,0.8l-5-20.5l30.7-11.4C328.9,1273.5,385.3,1279.1,378.4,1306z"/>
<polygon class="st4" points="247.3,1082.9 536.2,1082.9 973.6,1222 1011.3,1262.6 909.2,1337.7 752.2,1318.1 567.6,1328 
	334.8,1243.9 299.5,1137.9 "/>
<path class="st5" d="M1204.4,1101.8l358.3,91.5l2-47.1c0,0-342.6-134.4-358.1-85.3C1206.6,1060.9,1172,1093.5,1204.4,1101.8z"/>
<path class="st6" d="M988.4,1235.1l216-133.3l2.2-40.9c0,0-213,106.7-215,132.4L988.4,1235.1z"/>
<path class="st5" d="M456.2,1032.7l6.7,50.3l525.5,152.1l3.2-41.7C991.6,1193.4,667.5,1020.1,456.2,1032.7z"/>
<path class="st1" d="M631.6,994.4c0,0,74.7-16.2,78-50.9s-16.2-90.6-16.2-90.6l-61.7,41.9L631.6,994.4z"/>
<path class="st2" d="M644.6,904.5c0,0-7.6,82.3-13,89.9s-60.6-4.4-60.6-4.4s3-20.6-17.4-27.1s-25.9-29.2,1.2-73.6
	s81.2-31.3,81.2-31.3L644.6,904.5z"/>
<path class="st3" d="M554.7,889.3l48.7-8.7l40.5,30.3l40.7-22.8l8.7-35.4L624,799.5C624,799.5,542.8,842.8,554.7,889.3z"/>
<path class="st1" d="M1160.2,361.9l21.9,50.9l0.5,78.3c0,0,80.4,49.3,40,119.2c-12.6,21.9-15.4,67.4-30.8,83.7
	c-32.5,34.3-124.2,26.7-124.2,26.7l-43.8-366.9L1160.2,361.9"/>
<path class="st2" d="M842.6,364.2l-42.5,136.7c0,0,24.9,178.9,37.3,220.4l89,69.8c0,0,221.4,0,141.2-70.5c0,0,11.7-89.3,0-115.2
	s13.6-81.3,13.6-81.3l6.4-67.7c0,0-14-34.1-20-43c-15-22.1-28.3-73.9-28.3-73.9L842.6,364.2z"/>
<path class="st3" d="M1055.1,392l105.2-30.1c0,0-125.9-60.4-155.9-62.9s-88.3,8.6-88.3,8.6l-73.4,56.6l53,35l81.7-19.7l-11.4,13
	L1055.1,392z"/>
<path class="st1" d="M537,1223l10.9,25.2l0.3,38.8c0,0,39.9,24.5,19.9,59.1c-6.3,10.8-7.7,33.4-15.3,41.4
	c-16.1,17-66.6,26.5-66.6,26.5L469.4,1219L537,1223"/>
<path class="st2" d="M379.6,1224.2l-21.1,67.7c0,0,12.3,88.6,18.5,109.2l44.1,34.6c0,0,109.7,0,70-35c0,0,5.8-44.2,0-57.1
	s6.7-40.3,6.7-40.3l3.2-33.6c0,0-6.9-16.9-9.9-21.3c-7.4-11-14-36.6-14-36.6L379.6,1224.2z"/>
<path class="st3" d="M484.9,1237.9L537,1223c0,0-62.4-29.9-77.3-31.2s-43.8,4.3-43.8,4.3l-36.4,28.1l22,22.4l46.6,13.6l-7.5-22
	L484.9,1237.9z"/>
<path class="st1" d="M1312.2,631l28.3,321.3c0,0,67.7,7.6,91.7-26.7c11.3-16.2,74.8-61.3,84.1-83.2c29.8-69.9,24.5-97.3,24.5-97.3
	l-115.4-151.6"/>
<path class="st1" d="M1253.6,441.8l-5.7,101.7l49.1,35.3l96.2-90.2c0,0-23.7-73.7-38.8-83.6S1238.9,383.6,1253.6,441.8z"/>
<path class="st1" d="M1467.8,995.6c0,0,107.7-23.4,112.4-73.4s-23.4-130.7-23.4-130.7l-138.5,75.1L1467.8,995.6z"/>
<path class="st2" d="M1448.5,933.9c0,0,27.1,50.8,19.3,61.8s-87.4-6.2-87.4-6.2s-11.6,15.6-41.1,6.2S1324.2,869.2,1363,796
	c35.2-66.2,111,3,111,3L1448.5,933.9z"/>
<path class="st3" d="M1357,844.2l100.4,42.9l53.9-26l33-18.5l12.5-51l-48.5-41.7l-70.8-23.6C1437.6,726.3,1339.8,777.1,1357,844.2z"
	/>
<path class="st2" d="M1337.9,512.8c0,0-18,59.8-0.5,96.8c10.6,22.3,59.5,3.9,59.5,3.9s12.8-21.3-2-60.7S1337.9,512.8,1337.9,512.8z"
	/>
<path class="st2" d="M1174.4,595.9c0,0-123.1,145-88.7,300.7l129.4,56.4c0,0,62.6,1.3,125.4-0.7c0,0,8.6-89.3,0-115.2
	s10-81.3,10-81.3s1-88.6-10-110.7s-20.9-73.9-20.9-73.9L1174.4,595.9z"/>
<path class="st1" d="M1394.9,552.8l9.2,60.7l98.2,91.3l11.1-115.2l-57-90.9C1456.4,498.7,1371.9,462.6,1394.9,552.8z"/>
<path class="st3" d="M1394.9,552.8c0,0-63.6-32-57-44.3s42.2-52.9,66.2-50.4s52.3,40.6,52.3,40.6l-22.8,44.3L1394.9,552.8z"/>
<path class="st2" d="M251,994.7c0,0-20.3,46.1-2.7,83.2c10.6,22.3,61.8,17.6,61.8,17.6s12.7-21.3-2-60.7S251,994.7,251,994.7z"/>
<path class="st1" d="M324.1,1110.8l74.8-24l7.7-3.9h16.4l-53.4-88.3c0,0-84.5-36.1-61.5,54.1l2,60.7L324.1,1110.8z"/>
<path class="st3" d="M308,1048.8c0,0-63.6-32-57-44.3s42.2-52.9,66.2-50.4s52.3,40.6,52.3,40.6l-22.8,44.3L308,1048.8z"/>
<path class="st2" d="M1204.4,402.4c0,0-64.1,146.8-58.3,202.6s121.3-55.2,121.3-55.2s-10.5-93.2-13.8-108S1204.4,402.4,1204.4,402.4
	z"/>
<path class="st3" d="M1253.6,441.8h55.1l45.8-36.9c0,0-44.3-34.4-83.7-28.3s-66.4,25.8-66.4,25.8L1253.6,441.8z"/>
<path class="st3" d="M1340.5,645.1l84.9-51.7c0,0-109.5-60.3-131.6-62.7s-65.2,8.6-65.2,8.6l-54.1,56.6l73.8,19.7l64-27.9
	l-46.8,36.5L1340.5,645.1z"/>
<polygon class="st2" points="1001.4,399.2 1042.7,374.2 982,396.6 "/>
<polygon class="st7" points="692.3,934.7 456.2,1032.7 991.6,1193.3 1206.6,1060.9 1564.7,1146.2 1750.2,1032.7 822.2,830.9 "/>
<polygon class="st1" points="1055.1,392 970.5,464.8 913.3,645.8 926.4,791.1 1033.7,786.6 1114.4,399.2 "/>
<path class="st1" d="M796.2,1089.1l51.3-28.2l44.3-25.3l3.1-54.8l-65.2,22.7l-37.5,57.5C792.3,1060.9,785.8,1082.5,796.2,1089.1z"/>
<path class="st2" d="M662,1032.7c0,0-8.8,12.9,0,18.8s134.3,37.6,134.3,37.6s2.5-18.1,4.7-22.1s37.6-10.9,0-11.2
	S662,1032.7,662,1032.7z"/>
<path class="st2" d="M732.8,980c0,0-9.1,5.5-7.2,21.8l104.6,38.7l12.2-3.1v-28.2l-76-29.2H732.8z"/>
<path class="st3" d="M725.6,1001.8l-63.6,30.9c0,0,26.1,11.6,38.5,12.9s13.8,2.4,27.4,7.5s24.1,8.3,35.3,10.3s26.3,2,27,0
	s7.3-6.3,7.3-6.3s10.3,6.9,18.4,0s26.6-19.7,26.6-19.7L725.6,1001.8z"/>
<path class="st3" d="M782.6,946.2l-53.5,37.5l19.5,6.7l15.8-5.7v6.9l41.6,13.2c0,0,20.1,5,22.6,5.9s28.4,5.5,31.2,3.1
	s29.2-19.6,29.2-19.6L782.6,946.2z"/>
<path class="st8" d="M988.4,999.2l159-97.3c0,0,23.7-173.2,36.8-192.2l-204.2,49L988.4,999.2z"/>
<path class="st6" d="M1184.2,727.2c0,0-24.3,102.1-36.8,174.7l-33,21.3c0,0,27.8-185.6,31.3-192.2S1184.2,727.2,1184.2,727.2z"/>
<polygon class="st9" points="733.2,949.3 894.5,988.7 894.2,995 940.3,1008.1 966.2,743.5 684.7,693.8 697.2,813.5 "/>
<polygon class="st6" points="733.2,949.3 743.7,940.1 708.6,720.2 684.7,720.2 "/>
<path class="st6" d="M967.5,1016l20.9-16.8c0,0,11.6-195,27.3-219.9l-34.1-4.9L967.5,1016z"/>
<polygon class="st10" points="645.6,710.2 692.3,934.7 733.2,949.3 690.6,710.2 "/>
<polygon class="st10" points="942.6,766.2 931.8,1005.7 967.5,1016 1000.6,773.3 "/>
<polygon class="st11" points="641.9,662.2 715.1,564.7 800.1,513.2 888.4,547.4 982.7,644.3 1019.5,701.6 965.9,727.2 701.5,720.2 
	638.1,662.2 "/>
<path class="st12" d="M675,669.8c0,0,44.6-81.1,65.1-96.4c34.7-26,72.3-30.9,113.6-7.6S965.4,696,973.5,704.8s29.8,4.5,30.3,2.3
	s-35.8-74.8-39-78.5s-69.1-69.7-80-77.7s-50.5-27.4-77.6-26.9s-79.1,19-81.8,22.2s-34.1,42.8-47.1,61.8s-36.5,45-32,48.5
	S675,669.8,675,669.8z"/>
<path class="st12" d="M884.8,508.5l3.2,0.3c58.3,6.2,117.1,6.3,175.5,0.3l0,0c0,0,65.4-1.5,95.3,48.4s27.8,62.4,70.1,99.1
	s-177.3,64.9-177.3,64.9L945.3,605L884.8,508.5z"/>
<path class="st7" d="M768.5,510.1c0,0,53.6-17.7,116.3-1.6c34.9,8.9,80.9,61.3,103.7,99s82.8,107.2,91.2,104.6s-68.7,33.7-90.1-29.1
	S886.6,541,853.2,534.5S768.5,510.1,768.5,510.1z"/>
<polygon class="st6" points="1051.5,712.1 1228.8,656.6 1254.1,662.2 1059.6,731 "/>
<polygon class="st13" points="1063.4,723.2 1254.1,662.2 1254.1,704.8 1071,779.3 "/>
<path class="st5" d="M622.8,653.9c0,0,32.2-14.1,64.7-74s107.6-106.9,196.1-47c90.1,61,107,158.2,141.8,171.9h-37
	c0,0-64.5-104.7-88.4-123.5s-44.2-54.9-117.2-46.2S680.9,665.8,650.6,662.2S622.8,653.9,622.8,653.9z"/>
<polygon class="st5" points="726.3,870.5 729.1,983.7 740.2,987.5 736.9,863.8 "/>
<polygon class="st6" points="736.9,863.8 740.2,987.5 744.1,983.7 743,862.8 "/>
<path class="st6" d="M723.9,870.5l0.9,22.2l48.8-31.6l1.1-17.4C774.8,843.8,726.7,862.4,723.9,870.5z"/>
<polygon class="st7" points="713.8,861.1 705.3,866 724.9,869 774.8,843.8 759.6,841 "/>
<polygon class="st5" points="705.3,866 706.4,888.5 724.9,892.7 724.9,869 "/>
<path class="st14" d="M756.2,825.7l8.6,132.8L881,991.3l2.6-134l-72-65c-1.1-3.4-46.5,4.1-61.8,17.5
	C744.7,814.2,756.2,820.5,756.2,825.7z"/>
<path class="st12" d="M762.3,825.1l10.2,124.2l101.8,27.8V859.4c0,0-76.3-62.8-91.5-53.6S762.3,825.1,762.3,825.1z"/>
<g>
	<defs>
		<path id="SVGID_1_" d="M762.3,825.1l10.2,124.2l101.8,27.8V859.4c0,0-76.3-62.8-91.5-53.6S762.3,825.1,762.3,825.1z"/>
	</defs>
	<clipPath id="SVGID_00000146490256615062150560000002445421509217119388_">
		<use xlink:href="#SVGID_1_"  style="overflow:visible;"/>
	</clipPath>
	<g style="clip-path:url(#SVGID_00000146490256615062150560000002445421509217119388_);">
		<polygon class="st14" points="768.7,832.3 778.5,945.5 785.9,946.7 780.6,832.3 		"/>
		<polygon class="st14" points="786.8,828 787.7,828.5 794.7,832.3 797.4,949.9 789.8,948.6 		"/>
		<polygon class="st14" points="803.1,839.2 803.1,949.9 811.6,951.4 815.3,876.8 827.7,880.5 818.3,953.1 840.5,957.7 850,873 
			855.4,877.3 852,961.3 865.1,965 865.1,852 837,850.2 832.6,864.8 814.2,861 814.1,839.2 		"/>
	</g>
</g>
<polygon class="st5" points="847.5,868.3 847.5,1008.1 859.7,1012.4 859.7,856.9 "/>
<polygon class="st6" points="859.7,862.3 859.7,1012.4 866,1006.4 867,856.9 "/>
<polygon class="st5" points="881.5,879.4 878.8,990.7 889,994.2 893.5,879.4 "/>
<polygon class="st6" points="893.4,879.9 889,994.2 894.3,991.8 900.5,879.9 "/>
<path class="st13" d="M725.3,864.8l32-15.2l-0.9-27.4c0,0-3.2-14.8-12.6-5.8S729,837,727.9,840.6S725.3,864.8,725.3,864.8z"/>
<path class="st7" d="M852,887.6l39.2-22.8c0,0-3.2-59.6-59.6-78.5l-48.8,19.5l31.4,29.4l13.5,11.5l14.1,25.7L852,887.6z"/>
<path class="st5" d="M751.9,820.5c0,0-19.7,7.2-21.9,22s-4.7,22.4-4.7,22.4l-14.1-2.2c0,0,2.2-15.8,5.1-20l6.1,4l-5.4-8.2
	c0,0,4.3-12.5,11.6-18l3,7.5v-11.2c0,0,11.5-11.2,23-11C754.6,805.8,755,802.1,751.9,820.5z"/>
<path class="st6" d="M1037.4,792.2c0,0,18.6-9.2,27.6-10.9c2.1-0.4,4.1-1.1,6-2.1l6-3.4c0,0-8-46.7,2.6-63.8l-52.7,12.3l-38.5,30.6
	L1037.4,792.2z"/>
<path class="st6" d="M850.9,898.2l1.1,25l55-35.6l1.3-19.5C908.3,868,854,889,850.9,898.2z"/>
<polygon class="st7" points="839.5,887.6 830,893.1 850.9,898.2 909.2,867.5 891.1,864.8 "/>
<path class="st7" d="M1047.2,722.9l32.5-10.8L632,652.5l-13.9-1.8l-42.3,11.6C575.9,662.2,1005.2,728,1047.2,722.9z"/>
<path class="st5" d="M1047.2,722.9c0,0-17.3,20.6-13,31.4h-33.6l32.5,10.8l4.3,27.1L575.8,711v-26h23.3l-23.3-14.1v-8.7
	L1047.2,722.9z"/>
<path class="st5" d="M749.7,797.7c0,0,2,8.8,1.8,12.2v2.7l0.7,12.7l20.3,2.9l2.3-30.3L749.7,797.7z"/>
<path class="st6" d="M772.5,800.9V828l16.8-6v-16.2l42.3-19.5l2.2-16.8C833.7,769.5,772.5,793.3,772.5,800.9z"/>
<polygon class="st7" points="749.7,797.7 772.5,800.9 833.7,769.5 811.5,766.2 "/>
<path class="st5" d="M789.3,822c0,0,42.6,17.5,50.2,65.5H852v-14l-4.9-1.8l3.2-4l-4-12.9l-12.6-22.1l-6-4.7l-5.6,2.9l1.1-8.8
	l-11.7-5.2v6.9l-5.2-10.8l-17-7C789.2,805.8,783.6,819.2,789.3,822z"/>
<polygon class="st5" points="830,893.1 831.2,918.5 852,923.2 852,896.5 "/>
<path class="st10" d="M1107.3,929c0,0,15-154.2,21.6-173.3l15.9-6.5c0,0-25.1,138.3-26.2,171.2L1107.3,929z"/>
<path class="st14" d="M1056.2,527c0,0,48.1,1.1,60.7,33.5c15.7,40.5,55.7,80.2,55.7,80.2s-43.3-21.8-59.6-63.9
	C1105,556.3,1083.9,529.2,1056.2,527z"/>
<path class="st14" d="M1004.5,534.2c0,0,54.3,6.6,62,31c13.2,41.5,43.4,68.2,55.8,68.2c0,0-40.8-3.5-62-55.8
	C1052.9,559.5,1016.9,534.2,1004.5,534.2z"/>
<path class="st14" d="M956.5,534.2c0,0,44.2,5.4,50.5,25.2c10.7,33.8,35.3,55.5,45.4,55.5c0,0-33.2-2.8-50.5-45.4
	C995.9,554.8,966.6,534.2,956.5,534.2z"/>
<path class="st6" d="M1750.2,1032.7l-11.2,56.4l-176.3,104.2c0,0-22.6-49.6-5.9-59.8S1750.2,1032.7,1750.2,1032.7z"/>
<path class="st7" d="M860.4,585.6l-37.8-37.1c0,0-4.5-5-15.3,3.6s43.4,45.7,43.4,45.7L860.4,585.6z"/>
<path class="st6" d="M848.4,591.5l12-5.9l-8.1,70.4c0,0-11.7,6.5-20.5,6.9S848.4,591.5,848.4,591.5z"/>
<path class="st5" d="M849.8,595.2l-9,60.7c-0.6,4.4-4.7,7.5-9.1,7l-48.3-5.9c-3.9-0.5-6.9-3.6-7.2-7.5l-4.6-63
	c-0.3-3.6,1.3-7.1,4.1-9.3l31.6-25.1c3.2-2.5,7.9-2.1,10.6,1l29.4,33.4C849.3,588.9,850.3,592.1,849.8,595.2z"/>
<path class="st4" d="M839.8,600.5l-6.7,42.9c-0.6,3.2-3.5,5.4-6.8,4.9l-35.8-4.2c-2.8-0.3-5.1-2.5-5.3-5.3l-3.4-44.5
	c-0.2-2.6,0.9-5,3-6.6l23.4-17.7c2.4-1.8,5.8-1.5,7.9,0.7l21.8,23.6C839.4,595.9,840.1,598.2,839.8,600.5z"/>
<path class="st6" d="M1144.8,929l522.8,121.1c0,0-414.8-87-452.6-97.1C1191.2,946.5,1167.7,938.4,1144.8,929z"/>
<path class="st6" d="M1097.5,953.4l507.4,135.7c0,0-211.1-45.3-239.1-54.2S1097.5,953.4,1097.5,953.4z"/>
<path class="st6" d="M1042.7,980.7l172.4,54.9C1215.1,1035.6,1058.4,1002.5,1042.7,980.7z"/>
<path class="st6" d="M1011.3,1013l172.4,54.9C1183.7,1067.9,1027,1034.8,1011.3,1013z"/>
<path class="st6" d="M956.6,1055.5l172.4,54.9C1128.9,1110.4,972.2,1077.3,956.6,1055.5z"/>
<path class="st6" d="M857.7,1083l172.3,54.9C1030,1137.9,873.4,1104.8,857.7,1083z"/>
<path class="st6" d="M537.2,1013l103.9,33.1C641.1,1046.1,546.7,1026.2,537.2,1013z"/>
<path class="st6" d="M614.5,985.2l76.8,24.5C691.3,1009.7,621.5,994.9,614.5,985.2z"/>
<polygon class="st16" points="619.3,1117.7 725.8,1151.5 720.6,1178.3 615,1148 "/>
<polygon class="st16" points="607.5,1178.3 709.9,1209.7 705.3,1229.3 607.5,1196.8 "/>
<polygon class="st16" points="607.1,1227.3 696.7,1253.8 694.7,1270.7 604,1243.2 "/>
<polygon class="st16" points="599.9,1273.8 689.5,1300.2 687.6,1317.1 596.9,1289.6 "/>
<g>
	<defs>
		<polygon id="SVGID_00000039846369013816553890000012857721262077164473_" points="251.9,1091.7 536.2,1082.9 973.6,1222 
			1011.3,1262.6 909.2,1337.7 752.2,1318.1 567.6,1328 334.8,1243.9 299.5,1137.9 		"/>
	</defs>
	<clipPath id="SVGID_00000084500066801228581470000012961004674962587063_">
		<use xlink:href="#SVGID_00000039846369013816553890000012857721262077164473_"  style="overflow:visible;"/>
	</clipPath>
	<g style="clip-path:url(#SVGID_00000084500066801228581470000012961004674962587063_);">
		<path class="st16" d="M597.9,1335.3c0,0-11.8,6.4-17.5-2.7l29.6-256.5l31.1,3L597.9,1335.3z"/>
		<path class="st13" d="M689.2,1353.3c0,0-13.6,5.8-18.8-4.8l55.2-251.6l33.7,6.6L689.2,1353.3z"/>
	</g>
</g>
<polygon class="st16" points="605.8,1288.8 641.1,1079.2 610,1076.2 585.5,1288.8 "/>
<polygon class="st16" points="707.3,1288.8 759.3,1103.5 725.6,1096.9 683.5,1288.8 "/>
<ellipse transform="matrix(9.619315e-02 -0.9954 0.9954 9.619315e-02 -507.2844 1596.564)" class="st9" cx="625.5" cy="1077.6" rx="8.1" ry="15.6"/>
<ellipse transform="matrix(0.1917 -0.9815 0.9815 0.1917 -479.6904 1618.0452)" class="st9" cx="742.5" cy="1100.2" rx="8.9" ry="17.2"/>
<path class="st2" d="M685.7,1268.4L650,1442.5l45.5,33.7l55.4-11.8c0,0-12.6-141.9-15.9-156.7S685.7,1268.4,685.7,1268.4z"/>
<path class="st1" d="M583.6,1467.2c0,0,68.3-14.8,71.2-46.5s-14.8-82.8-14.8-82.8l-56.4,38.3L583.6,1467.2z"/>
<path class="st2" d="M595.5,1385c0,0-6.9,75.2-11.9,82.1s-55.4-4-55.4-4s2.8-18.8-15.9-24.7s-23.6-26.7,1.1-67.3
	c24.7-40.6,74.2-28.6,74.2-28.6L595.5,1385z"/>
<path class="st3" d="M513.4,1371.2l44.5-7.9l37,27.8l37.2-20.8l7.9-32.3l-20.6-27.9C619.4,1309.9,496.5,1319.8,513.4,1371.2z"/>
<path class="st1" d="M734.9,1307.8l-5.7,101.7l21.6,55l48.1-7c28.7-4.2,60-23.9,68.2-51.8l7.4-51.2c0,0-23.7-73.7-38.8-83.7
	S720.2,1249.5,734.9,1307.8z"/>
<path class="st1" d="M1004.1,1428.3c0,0,107.7-23.4,112.4-73.4s-23.4-130.7-23.4-130.7l-138.5,75.1L1004.1,1428.3z"/>
<path class="st2" d="M1063.1,1310.7c0,0-51.2,106.7-59,117.6s-87.4-6.2-87.4-6.2s-11.6,15.6-41.1,6.2s-15.1-126.5,23.8-199.6
	c35.2-66.2,84.1,50.9,84.1,50.9L1063.1,1310.7z"/>
<path class="st3" d="M893.2,1276.8l100.4,42.8l69.5-9l-28.8-23l58.8-63.5l-48.5-41.7l-70.8-23.6
	C973.8,1158.9,876,1209.7,893.2,1276.8z"/>
<path class="st3" d="M734.9,1307.8H790l45.8-36.9c0,0-44.3-34.4-83.7-28.3s-66.4,25.8-66.4,25.8L734.9,1307.8z"/>
<path class="st1" d="M645,1510.2c0,0-43.2-9.4-45.1-29.4s9.4-52.4,9.4-52.4l35.7,24.2V1510.2z"/>
<path class="st2" d="M637.5,1458.3c0,0,4.4,47.6,7.5,52s35.1-2.5,35.1-2.5s-1.8-11.9,10.1-15.7s15-16.9-0.7-42.6s-47-18.1-47-18.1
	L637.5,1458.3z"/>
<path class="st3" d="M689.5,1449.5l-28.2-5l-23.4,17.6l-23.5-13.2l-5-20.5l40.1-30.9C649.4,1397.5,696.3,1422.6,689.5,1449.5z"/>
<polygon class="st5" points="840.7,605.3 779.6,600 779.8,606.5 841.9,613.3 "/>
<path class="st18" d="M834,1469.7c-22.8-23.2-6.9-40.7-9.2-48.3c0,0-22,19.6-13,39.1l-7.8-14.1c-2.8-5-4.7-10.5-5.4-16.1
	c-1.7-12.6-7.9-24.2-17.4-32.7c0,0,12.4,57.5,2,60.6c0,0-2.9-20-14-24.7c0,0,4.2,23.1,1,46.6C766,1510.1,842.5,1483.2,834,1469.7z"
	/>
<path class="st18" d="M1271.1,1138.1c0,0-15.9-24.5-8.1-58.3c0-0.1-0.1-0.2-0.2-0.3c-0.1,0-0.2,0-0.2,0.1
	c-3.8,5.6-22.7,35-10.9,54.7C1262.4,1152.2,1271.1,1138.1,1271.1,1138.1z"/>
<path class="st18" d="M1289.9,1158.7c0,0-15.9-24.5-8.1-58.3c0-0.1,0-0.2-0.1-0.3c-0.1,0-0.2,0-0.2,0.1c-3.8,5.6-22.7,35-10.9,54.6
	C1281.2,1172.8,1289.9,1158.7,1289.9,1158.7z"/>
<path class="st18" d="M1341.1,1142.8c0,0,23.2-19.4,25.8-55.3c0-0.1,0.2-0.2,0.3-0.2c0.1,0,0.1,0.1,0.2,0.2
	c2.1,6.7,11.8,41.6-5.8,57.4C1345.5,1159.4,1341.1,1142.8,1341.1,1142.8z"/>
<path class="st18" d="M1344.3,1156.2c0,0,26.8-11.7,38.9-44.2c0-0.1,0.2-0.2,0.3-0.1c0.1,0,0.1,0.1,0.1,0.2
	c0.1,6.7-0.3,41.7-21,51.6C1343.8,1172.8,1344.3,1156.2,1344.3,1156.2z"/>
<path class="st18" d="M1389.3,1167.7c0,0,13.7-17.2,10.4-43.1c0-0.1,0-0.2,0.1-0.2c0.1,0,0.1,0,0.2,0.1c2.4,4.4,14.4,27.9,4.2,41.8
	C1394.8,1178.9,1389.3,1167.7,1389.3,1167.7z"/>
<path class="st18" d="M456.3,1442.4c0,0-6.9-63-21.2-70.6c0,0,1.3,51.4-7.9,57.4s-25-44.2-25-44.2s-13.3,36.9,0.3,52.4
	S456.3,1442.4,456.3,1442.4z"/>
<path class="st18" d="M442.4,1436.2c0,0,23.8-23.3,31.2-39.2c0,0,0.1,32.3-14,45.4S442.4,1436.2,442.4,1436.2z"/>
</svg>
