<svg version="1.2" baseProfile="tiny-ps" xmlns="http://www.w3.org/2000/svg" viewBox="0 0 505 505" width="505" height="505">
	<title>natures_call-svg</title>
	<style>
		tspan { white-space:pre }
		.shp0 { fill: #a24343 } 
		.shp1 { fill: #ba4f4f } 
	</style>
	<path id="Layer" class="shp0" d="M339.77 0C339.77 0 384.31 108.95 193.44 182.14C89.72 221.89 10.06 323.79 105.17 481.19C113.05 410.84 146.83 255.71 292.06 220.31C292.06 220.31 156.89 270.85 144.94 499.66C214.4 509.41 377.31 515.96 425.67 374.59C489.54 187.82 339.77 0 339.77 0Z" />
	<path id="Layer" class="shp1" d="M145.01 498.7C292.46 439.86 399.75 301.99 414.56 137.42C384.42 56.11 339.77 0 339.77 0C339.77 0 384.31 108.95 193.44 182.14C89.72 221.89 10.06 323.79 105.17 481.19C113.05 410.84 146.83 255.71 292.06 220.31C292.05 220.31 157.28 270.73 145.01 498.7Z" />
	<path id="Layer" class="shp1" d="M90.46 185.77C82.84 185.77 76.67 179.61 76.67 171.99C76.67 164.36 82.84 158.2 90.46 158.2C98.08 158.2 104.24 164.36 104.24 171.99C104.24 179.61 98.08 185.77 90.46 185.77Z" />
	<g id="Layer">
		<path id="Layer" class="shp1" d="M133.78 168.05C128.34 168.05 123.94 163.64 123.94 158.2C123.94 152.76 128.34 148.35 133.78 148.35C139.23 148.35 143.63 152.76 143.63 158.2C143.63 163.64 139.23 168.05 133.78 168.05Z" />
		<path id="Layer" class="shp1" d="M124.92 89.28C111.31 89.28 100.31 78.27 100.31 64.66C100.31 51.05 111.31 40.05 124.92 40.05C138.53 40.05 149.54 51.05 149.54 64.66C149.54 78.27 138.53 89.28 124.92 89.28Z" />
		<path id="Layer" class="shp1" d="M200.74 128.66C196.38 128.66 192.86 125.14 192.86 120.78C192.86 116.43 196.38 112.91 200.74 112.91C205.09 112.91 208.61 116.43 208.61 120.78C208.61 125.14 205.09 128.66 200.74 128.66Z" />
		<path id="Layer" class="shp1" d="M266.71 99.12C254.19 99.12 244.07 89 244.07 76.48C244.07 63.95 254.19 53.83 266.71 53.83C279.24 53.83 289.36 63.95 289.36 76.48C289.36 89 279.24 99.12 266.71 99.12Z" />
	</g>
	<g id="Layer">
	</g>
	<g id="Layer">
	</g>
	<g id="Layer">
	</g>
	<g id="Layer">
	</g>
	<g id="Layer">
	</g>
	<g id="Layer">
	</g>
	<g id="Layer">
	</g>
	<g id="Layer">
	</g>
	<g id="Layer">
	</g>
	<g id="Layer">
	</g>
	<g id="Layer">
	</g>
	<g id="Layer">
	</g>
	<g id="Layer">
	</g>
	<g id="Layer">
	</g>
	<g id="Layer">
	</g>
</svg>