<svg version="1.2" xmlns="http://www.w3.org/2000/svg" viewBox="0 0 512 512" width="512" height="512">
	<title>cartography_arheology-svg</title>
	<defs>
		<clipPath clipPathUnits="userSpaceOnUse" id="cp1">
			<path d="m-102.62-76.15h681.4v664.84h-681.4z"/>
		</clipPath>
		<clipPath clipPathUnits="userSpaceOnUse" id="cp2">
			<path d="m-102.62-76.15h681.4v664.84h-681.4z"/>
		</clipPath>
		<clipPath clipPathUnits="userSpaceOnUse" id="cp3">
			<path d="m-102.62-76.15h681.4v664.84h-681.4z"/>
		</clipPath>
		<clipPath clipPathUnits="userSpaceOnUse" id="cp4">
			<path d="m-102.62-76.15h681.4v664.84h-681.4z"/>
		</clipPath>
		<clipPath clipPathUnits="userSpaceOnUse" id="cp5">
			<path d="m-102.62-76.15h681.4v664.84h-681.4z"/>
		</clipPath>
		<clipPath clipPathUnits="userSpaceOnUse" id="cp6">
			<path d="m-102.62-76.15h681.4v664.84h-681.4z"/>
		</clipPath>
		<clipPath clipPathUnits="userSpaceOnUse" id="cp7">
			<path d="m-102.62-76.15h681.4v664.84h-681.4z"/>
		</clipPath>
		<clipPath clipPathUnits="userSpaceOnUse" id="cp8">
			<path d="m-102.62-76.15h681.4v664.84h-681.4z"/>
		</clipPath>
		<clipPath clipPathUnits="userSpaceOnUse" id="cp9">
			<path d="m-102.62-76.15h681.4v664.84h-681.4z"/>
		</clipPath>
		<clipPath clipPathUnits="userSpaceOnUse" id="cp10">
			<path d="m-102.62-76.15h681.4v664.84h-681.4z"/>
		</clipPath>
		<clipPath clipPathUnits="userSpaceOnUse" id="cp11">
			<path d="m-102.62-76.15h681.4v664.84h-681.4z"/>
		</clipPath>
		<clipPath clipPathUnits="userSpaceOnUse" id="cp12">
			<path d="m-102.62-76.15h681.4v664.84h-681.4z"/>
		</clipPath>
		<clipPath clipPathUnits="userSpaceOnUse" id="cp13">
			<path d="m-102.62-76.15h681.4v664.84h-681.4z"/>
		</clipPath>
		<clipPath clipPathUnits="userSpaceOnUse" id="cp14">
			<path d="m-102.62-76.15h681.4v664.84h-681.4z"/>
		</clipPath>
		<clipPath clipPathUnits="userSpaceOnUse" id="cp15">
			<path d="m-102.62-76.15h681.4v664.84h-681.4z"/>
		</clipPath>
		<clipPath clipPathUnits="userSpaceOnUse" id="cp16">
			<path d="m-102.62-76.15h681.4v664.84h-681.4z"/>
		</clipPath>
		<clipPath clipPathUnits="userSpaceOnUse" id="cp17">
			<path d="m-102.62-76.15h681.4v664.84h-681.4z"/>
		</clipPath>
		<clipPath clipPathUnits="userSpaceOnUse" id="cp18">
			<path d="m-102.62-76.15h681.4v664.84h-681.4z"/>
		</clipPath>
		<clipPath clipPathUnits="userSpaceOnUse" id="cp19">
			<path d="m-102.62-76.15h681.4v664.84h-681.4z"/>
		</clipPath>
		<clipPath clipPathUnits="userSpaceOnUse" id="cp20">
			<path d="m-102.62-76.15h681.4v664.84h-681.4z"/>
		</clipPath>
		<clipPath clipPathUnits="userSpaceOnUse" id="cp21">
			<path d="m-102.62-76.15h681.4v664.84h-681.4z"/>
		</clipPath>
		<clipPath clipPathUnits="userSpaceOnUse" id="cp22">
			<path d="m123.79 348.26c-20.17 0-36.48-16.3-36.48-36.47 0-20.17 16.31-36.47 36.48-36.47 20.18 0 36.49 16.3 36.49 36.47 0 20.17-16.31 36.47-36.49 36.47z"/>
		</clipPath>
		<clipPath clipPathUnits="userSpaceOnUse" id="cp23">
			<path d="m123.79 348.26c-20.17 0-36.48-16.3-36.48-36.47 0-20.17 16.31-36.47 36.48-36.47 20.18 0 36.49 16.3 36.49 36.47 0 20.17-16.31 36.47-36.49 36.47z"/>
		</clipPath>
		<clipPath clipPathUnits="userSpaceOnUse" id="cp24">
			<path d="m-86.71-88.09h681.4v664.84h-681.4z"/>
		</clipPath>
		<clipPath clipPathUnits="userSpaceOnUse" id="cp25">
			<path d="m-86.71-88.09h681.4v664.84h-681.4z"/>
		</clipPath>
		<clipPath clipPathUnits="userSpaceOnUse" id="cp26">
			<path d="m303.89 346.09c-7.6 0-13.74-6.14-13.74-13.73 0-7.59 6.14-13.73 13.74-13.73 7.59 0 13.73 6.14 13.73 13.73 0 7.59-6.14 13.73-13.73 13.73z"/>
		</clipPath>
		<clipPath clipPathUnits="userSpaceOnUse" id="cp27">
			<path d="m-102.62-76.15h681.4v664.84h-681.4z"/>
		</clipPath>
		<clipPath clipPathUnits="userSpaceOnUse" id="cp28">
			<path d="m365.24 429.56c-9.34 0-16.88-7.54-16.88-16.88 0-9.33 7.54-16.87 16.88-16.87 9.34 0 16.89 7.54 16.89 16.87 0 9.34-7.55 16.88-16.89 16.88z"/>
		</clipPath>
		<clipPath clipPathUnits="userSpaceOnUse" id="cp29">
			<path d="m365.24 429.56c-9.34 0-16.88-7.54-16.88-16.88 0-9.33 7.54-16.87 16.88-16.87 9.34 0 16.89 7.54 16.89 16.87 0 9.34-7.55 16.88-16.89 16.88z"/>
		</clipPath>
		<clipPath clipPathUnits="userSpaceOnUse" id="cp30">
			<path d="m365.24 429.56c-9.34 0-16.88-7.54-16.88-16.88 0-9.33 7.54-16.87 16.88-16.87 9.34 0 16.89 7.54 16.89 16.87 0 9.34-7.55 16.88-16.89 16.88z"/>
		</clipPath>
		<clipPath clipPathUnits="userSpaceOnUse" id="cp31">
			<path d="m-102.62-76.15h681.4v664.84h-681.4z"/>
		</clipPath>
		<clipPath clipPathUnits="userSpaceOnUse" id="cp32">
			<path d="m265.72 100.29c-19.1 0-34.53-15.43-34.53-34.52 0-19.08 15.43-34.51 34.53-34.51 19.09 0 34.53 15.43 34.53 34.51 0 19.09-15.44 34.52-34.53 34.52z"/>
		</clipPath>
		<clipPath clipPathUnits="userSpaceOnUse" id="cp33">
			<path d="m-102.62-76.15h681.4v664.84h-681.4z"/>
		</clipPath>
		<clipPath clipPathUnits="userSpaceOnUse" id="cp34">
			<path d="m-102.62-76.15h681.4v664.84h-681.4z"/>
		</clipPath>
		<clipPath clipPathUnits="userSpaceOnUse" id="cp35">
			<path d="m-102.62-76.15h681.4v664.84h-681.4z"/>
		</clipPath>
		<clipPath clipPathUnits="userSpaceOnUse" id="cp36">
			<path d="m-102.62-76.15h681.4v664.84h-681.4z"/>
		</clipPath>
		<clipPath clipPathUnits="userSpaceOnUse" id="cp37">
			<path d="m-102.62-76.15h681.4v664.84h-681.4z"/>
		</clipPath>
		<clipPath clipPathUnits="userSpaceOnUse" id="cp38">
			<path d="m-102.62-76.15h681.4v664.84h-681.4z"/>
		</clipPath>
		<clipPath clipPathUnits="userSpaceOnUse" id="cp39">
			<path d="m-102.62-76.15h681.4v664.84h-681.4z"/>
		</clipPath>
		<clipPath clipPathUnits="userSpaceOnUse" id="cp40">
			<path d="m-102.62-76.15h681.4v664.84h-681.4z"/>
		</clipPath>
		<clipPath clipPathUnits="userSpaceOnUse" id="cp41">
			<path d="m-102.62-76.15h681.4v664.84h-681.4z"/>
		</clipPath>
		<clipPath clipPathUnits="userSpaceOnUse" id="cp42">
			<path d="m-102.62-76.15h681.4v664.84h-681.4z"/>
		</clipPath>
		<clipPath clipPathUnits="userSpaceOnUse" id="cp43">
			<path d="m-102.62-76.15h681.4v664.84h-681.4z"/>
		</clipPath>
		<clipPath clipPathUnits="userSpaceOnUse" id="cp44">
			<path d="m-102.62-76.15h681.4v664.84h-681.4z"/>
		</clipPath>
		<clipPath clipPathUnits="userSpaceOnUse" id="cp45">
			<path d="m206.43 220.34c-7.6 0-13.74-6.13-13.74-13.73 0-7.59 6.14-13.73 13.74-13.73 7.6 0 13.74 6.14 13.74 13.73 0 7.6-6.14 13.73-13.74 13.73z"/>
		</clipPath>
		<clipPath clipPathUnits="userSpaceOnUse" id="cp46">
			<path d="m-102.62-76.15h681.4v664.84h-681.4z"/>
		</clipPath>
		<clipPath clipPathUnits="userSpaceOnUse" id="cp47">
			<path d="m-102.62-76.15h681.4v664.84h-681.4z"/>
		</clipPath>
		<clipPath clipPathUnits="userSpaceOnUse" id="cp48">
			<path d="m-102.62-76.15h681.4v664.84h-681.4z"/>
		</clipPath>
	</defs>
	<style>
		.s0 { fill: #9b6244 } 
		.s1 { fill: #ad8a68 } 
		.s2 { fill: #d39884 } 
		.s3 { fill: #6b4839 } 
		.s4 { fill: #6b412f } 
		.s5 { fill: #44311b } 
		.s6 { fill: #fac600 } 
		.s7 { fill: #ffffff } 
		.s8 { fill: #c18170 } 
		.s9 { fill: #e2a99a } 
		.s10 { fill: #f0e5d5 } 
		.s11 { fill: #e2772c } 
		.s12 { fill: #fea613 } 
		.s13 { fill: #fff364 } 
		.s14 { fill: #f9c502 } 
	</style>
	<g id="Layer">
		<g id="Clip-Path" clip-path="url(#cp1)">
			<path id="Layer" class="s0" d="m238.1 489c-128.8 0-232.9-104-232.9-232.7 0-128.8 104.1-232.8 232.9-232.8 128.8 0 232.9 104 232.9 232.8 0 128.7-104.1 232.7-232.9 232.7z"/>
		</g>
		<g id="Clip-Path" clip-path="url(#cp2)">
			<path id="Layer" class="s1" d="m203 335.7c-68 0-123-55.5-123-124.2 0-68.7 55-124.2 123-124.2 67.9 0 122.9 55.5 122.9 124.2 0 68.7-55 124.2-122.9 124.2z"/>
		</g>
		<g id="Clip-Path" clip-path="url(#cp3)">
			<path id="Layer" fill-rule="evenodd" class="s2" d="m371.9 393.9v6.4c-0.2 1.3-0.2 2.7-0.5 4.1-0.8 3.6-2.5 6.7-4.7 9.5-2.3 3-5 5.4-8.3 7.3-2.6 1.4-5.4 2.2-8.3 2.8-0.4 0.1-0.9 0.1-1.2 0.4h-7.7c-0.2-0.4-0.5-0.5-0.9-0.6-5.2-0.8-9.8-3-13.6-6.7-2.5-2.4-4.5-5.1-6.5-7.8-2.6-3.3-5.1-6.6-7.6-10-1.4-1.9-3-3.8-4.4-5.7-2.6-3.3-5-6.6-7.6-9.9-3.8-4.9-7.5-9.9-11.2-14.9q-4.4-5.7-8.8-11.5c-0.4-0.7-0.8-0.7-1.4-0.1-2.6 2.3-5.6 2.8-8.9 1.6-1.6-0.6-2.7-1.9-3.7-3.2-2.6-3.3-5.1-6.6-7.6-9.9-1.4-1.9-2.9-3.6-4.1-5.5-1.2-1.9-2.6-3.6-4-5.3-0.3-0.4-0.5-0.3-0.9-0.2-2.5 1-5.1 1.7-7.6 2.5-4.7 1.5-9.5 2.6-14.3 3.5-3.2 0.6-6.3 0.9-9.5 1.3-3 0.3-6 0.4-9.1 0.6-3 0.2-5.9 0.2-8.9 0.1-3.4-0.1-6.9-0.4-10.3-0.7-6.1-0.6-12.2-1.8-18.2-3.2-2.6-0.7-5.1-1.5-7.6-2.3-6.4-1.9-12.6-4.4-18.6-7.4-7.2-3.7-14.1-8-20.6-12.9-2.6-2-5.1-4.1-7.6-6.3-2.9-2.5-5.7-5.2-8.4-8-3.3-3.5-6.4-7.1-9.3-10.9q-5.4-7.1-9.8-14.8c-2.4-4.1-4.5-8.4-6.3-12.7q-2.5-5.7-4.4-11.6c-1.3-3.7-2.3-7.5-3.2-11.3-0.7-3.3-1.5-6.7-1.8-10.1-0.2-2.5-0.5-5.1-0.7-7.6-0.5-5.4-0.3-10.9-0.3-16.3-0.1-3.5 0.3-6.9 0.7-10.4 0.2-2 0.2-4 0.6-6 0.5-2 0.8-3.9 1.2-5.9 0.7-3.6 1.6-7 2.6-10.5 1.2-4.3 2.8-8.5 4.5-12.8 1.8-4.3 4-8.6 6.2-12.7 2.2-4.4 5.1-8.4 7.8-12.5 2-2.8 4.2-5.5 6.4-8.3 0.9-1 1.8-2.1 2.8-3.2q4.1-4.5 8.5-8.6c4.8-4.5 9.9-8.6 15.2-12.4q8.4-5.8 17.6-10.2c4.3-2.1 8.8-3.9 13.3-5.6 5-1.8 10.2-3.3 15.4-4.4 3.6-0.6 7.2-1.4 10.9-1.7 1.9-0.2 3.8-0.3 5.7-0.6 5-0.8 10.1-0.1 15.1-0.3 1.4-0.1 2.7 0 4.1 0 2.6-0.1 5 0.6 7.6 0.7 4.1 0.4 8.2 1.3 12.3 1.9 3 0.5 6 1.5 9 2.3 5.4 1.5 10.7 3.4 15.9 5.7q4.2 1.9 8.2 4c4.3 2.3 8.5 4.6 12.5 7.4q5.9 4.2 11.5 8.8c3.9 3.3 7.5 6.9 11 10.5 2.9 3.1 5.6 6.3 8.2 9.6 3.3 4.3 6.2 8.7 8.9 13.3 1 1.6 2.1 3.3 2.9 5 1.2 2.5 2.6 4.9 3.7 7.4 1.5 3.3 2.9 6.7 4.1 10.2 2.3 6.9 4.3 13.9 5.6 21.1 0.5 3.1 0.9 6.2 1.2 9.3 0.4 3.6 0.4 7.2 0.7 10.8 0.2 3.4-0.1 6.8-0.2 10.2-0.1 4.6-0.7 9.2-1.4 13.7-1.1 6.6-2.7 12.9-4.6 19.2-1 3.3-2.1 6.6-3.5 9.8-2.3 5.2-4.7 10.4-7.6 15.4-2.4 4-4.9 8-7.6 11.8-0.4 0.5-0.3 0.8 0 1.2q5.9 7.8 11.7 15.6c1.5 1.9 3 3.8 4.4 5.8 1.5 2.2 1.9 4.6 1.1 7.2-0.6 2-2 3.3-3.7 4.5-0.6 0.5-0.7 0.8-0.2 1.4 1.9 2.3 3.7 4.7 5.4 7q4.1 5.4 8.2 10.8c4.9 6.4 9.8 12.9 14.7 19.4 2.6 3.4 5.1 6.8 7.6 10.2 2.8 3.8 5.8 7.4 8.4 11.2 2.1 3.1 3.2 6.6 3.5 10.4 0 0.2 0 0.3 0.3 0.6zm-59-130.4q1.5-3.3 2.9-6.5c1.4-3.4 2.6-6.9 3.7-10.3 1.6-5 3-10.1 3.9-15.2q0.8-4.8 1.4-9.6 0.6-4.8 0.8-9.6c0-2.6-0.3-5.1-0.4-7.6-0.2-3.1-0.6-6.1-1.1-9.1-0.8-4.7-1.8-9.3-3.1-14-2.2-7.8-4.8-15.5-8.5-22.9-1.6-3.1-3.2-6.2-5-9.2-2.7-4.6-5.6-9-8.9-13.2-3.3-4.3-6.8-8.4-10.8-12.1-2.9-2.6-5.8-5.1-8.9-7.5q-4.2-3.3-8.6-6-3.8-2.5-7.8-4.7-4.3-2.3-8.7-4.4c-3.3-1.5-6.7-2.9-10.2-4-3.7-1.2-7.4-2.4-11.1-3.4-3.9-1-7.9-1.8-12-2.4q-4.2-0.7-8.3-1.2c-2.7-0.3-5.3-0.2-8.5-0.2-3.6-0.1-7.7 0.3-11.8 0.8-4.1 0.5-8.2 1.2-12.2 2.1-4.8 1.1-9.5 2.5-14.2 4.1-4.5 1.5-9 3.4-13.3 5.4-3.5 1.7-6.9 3.6-10.3 5.6-2.2 1.3-4.4 2.7-6.6 4.2-3.5 2.4-7 5-10.3 7.8-2.6 2.4-5.4 4.6-7.8 7.2-2.9 3.2-5.7 6.6-8.3 10-4.3 5.7-8.2 11.6-11.4 17.9-1.4 2.9-2.9 5.7-4.1 8.7-1.7 4.1-3.4 8.2-4.6 12.4-0.7 2.3-1.4 4.6-1.9 6.9-1.4 5.8-2.6 11.6-3.2 17.5-0.3 3.4-0.6 6.8-0.7 10.2-0.1 1.6 0.1 3.2 0.2 4.8 0.2 2.4 0.3 4.9 0.6 7.3 0.5 3.3 1.1 6.8 1.8 10.1 1.5 7.6 3.6 15.1 6.5 22.2 2.1 5.1 4.3 10.1 7.2 14.8 1.4 2.2 2.5 4.5 3.9 6.6 2.8 4.3 5.8 8.6 9.1 12.6 3.1 3.7 6.3 7.4 10 10.5 3.6 3.1 7.3 6.2 11.3 8.9 4.4 3.1 8.9 6 13.7 8.5 4.3 2.4 8.7 4.5 13.2 6.2 5.5 2 10.9 3.9 16.5 5.3 3.9 1 7.9 1.7 11.9 2.4 4.1 0.6 8.1 1 12.2 1.2 3.5 0.2 7 0 10.5-0.3 3.2-0.3 6.4-0.7 9.6-1.2 6-0.9 11.9-2.4 17.6-4.2 2.8-0.8 5.6-1.6 8.3-2.7 3-1.3 6-2.9 8.9-4.4 4.7-2.5 9.2-5.2 13.5-8.2 2.8-2 5.7-3.9 8.3-6.2 3.3-2.7 6.7-5.4 10-8 1.8-1.5 3.4-3.1 5-4.8 2.2-2.6 4.5-5.2 6.7-7.9 1.4-1.7 3-3.3 4.2-5.1 3.6-5.2 6.6-10.6 9.2-16.1z"/>
		</g>
		<g id="Clip-Path" clip-path="url(#cp4)">
			<path id="Layer" class="s3" d="m361.8 397c-0.3 2.3-1 4.5-1.9 6.6-0.6 1.2-1.2 2.3-1.9 3.4-1.5 2.7-4.2 3.9-6.8 5.1-1.8 0.8-3.7 1.3-5.6 1.7-1.2 0.3-2.2-0.1-3.2-0.4-2.5-0.6-4.7-1.7-7-2.9-2.6-1.4-3.9-3.9-5.6-6-2.5-3.3-4.8-6.6-7.4-9.8-3.5-4.5-6.9-9-10.3-13.6-3.8-5-7.7-10.1-11.5-15.1q-5.3-7-10.6-14-0.7-0.9-1.6-1.7c-0.5-0.5-0.5-0.8 0.1-1.2 2.2-1.5 4.4-3.3 6.6-5 4.9-3.6 9.7-7.3 14.6-10.9 1.5-1.1 2.8-2.4 4.4-3.3 0.3-0.3 0.4-0.4 0.8 0 3.5 4.8 7.2 9.5 10.8 14.2 3.8 5 7.5 9.9 11.2 14.9 4.7 6.1 9.4 12.3 14.1 18.5 2.5 3.4 5.2 6.7 7.5 10.2 1.8 2.8 2.9 6 3.3 9.3z"/>
		</g>
		<g id="Clip-Path" clip-path="url(#cp5)">
			<path id="Layer" class="s3" d="m273.4 347c-1.9-2.5-3.9-5-5.8-7.5-2.3-3-4.5-6.1-6.8-9-0.4-0.5-0.5-0.8 0.2-1.1 2.5-1.5 5.1-3 7.7-4.6 2.9-1.8 5.9-3.7 8.9-5.6 2.8-2 5.5-4.2 8.1-6.6 3.7-3.4 7.5-6.8 11.3-10.3q2.5-2.3 4.9-4.7c0.6-0.6 0.9-0.6 1.3 0.1q4.7 6.2 9.3 12.4c1.1 1.4 2.1 2.9 3.3 4.3 0.4 0.5 0.3 0.7-0.2 1.1-1.8 1.5-3.8 2.9-5.7 4.2q-3.9 2.8-7.7 5.8c-2.1 1.7-4.4 3.2-6.6 4.9-2.8 2.2-5.9 4.3-8.8 6.6-4.4 3.4-8.9 6.9-13.4 10z"/>
		</g>
		<g id="Clip-Path" clip-path="url(#cp6)">
			<path id="Layer" fill-rule="evenodd" class="s2" d="m223.5 75.7c69.1 11.5 117.8 74.4 112.4 145.4-12 163.7-255.4 163.7-267.4 0-8.1-86.6 70.8-160.3 155-145.4z"/>
		</g>
		<g id="Clip-Path" clip-path="url(#cp7)">
			<path id="Layer" class="s4" d="m202.1 325.3c-62.8 0-113.5-51.6-113.5-115.3 0-63.7 50.7-115.2 113.5-115.2 62.9 0 113.6 51.5 113.6 115.2 0 63.7-50.7 115.3-113.6 115.3z"/>
		</g>
		<g id="Clip-Path" clip-path="url(#cp8)">
			<path id="Layer" class="s4" d="m202.1 288.7c-42.8 0-77.5-35.2-77.5-78.7 0-43.5 34.7-78.6 77.5-78.6 42.9 0 77.6 35.1 77.6 78.6 0 43.5-34.7 78.7-77.6 78.7z"/>
		</g>
		<g id="Clip-Path" clip-path="url(#cp9)">
			<path id="Layer" fill-rule="evenodd" class="s0" d="m241.6 113.5c12.6 5.1 23.8 12.8 33.5 22.6 9.6 9.8 17.2 21.2 22.2 34 5.4 12.7 7.9 26.4 7.9 39.9 0 42.6-25.1 80.4-63.6 96.5-38.6 16.1-83.1 7.2-112.4-22.5-29.3-29.8-38.5-74.8-22.2-114 15.9-39 53.2-64.6 95.1-64.6 13.5 0 26.9 2.5 39.5 8.1zm-6 178.6c10.5-4.2 20.6-11.1 28.5-19.1 8-8.1 14.7-18.2 18.9-28.9 4.5-10.7 6.7-22.6 6.7-34 0-36.1-21.4-68.5-54.1-82.1-32.7-14-70.4-6.3-95.6 19.1-25.1 25.5-32.7 63.8-18.8 97 13.4 33.1 45.2 54.8 80.9 54.8 11.4 0 23.1-2.2 33.5-6.8z"/>
		</g>
		<g id="Clip-Path" clip-path="url(#cp10)">
			<path id="Layer" class="s5" d="m218.7 203l15.6-8.8 24.3-41.3-40.9 24.6-7.8 15.8c-2.8 5.6-10.1 6-13.3 0.9l-10.1-16.7-40.8-24.6 24.2 41.3 15.6 8.3c5.5 2.9 5.5 10.7 0 13.9l-16 9.3-24.3 41.3 40.9-24.6 8.7-16.7c3.2-5.5 11-5.5 14.2 0l8.3 16.3 40.8 24.6-23.8-40.9-15.6-9.7c-5.1-2.7-5.1-10.1 0-13z"/>
		</g>
		<g id="Clip-Path" clip-path="url(#cp11)">
			<path id="Layer" class="s5" d="m303.9 210h-0.5l-16.9-3.7-52.3-12-13.7-2.8v-0.1l-2.7-13.9-12-52.9-3.6-17.7-0.1 0.5v-0.5l-3.7 17.7-11.9 52.9-2.8 13.9-13.6 2.8-52.3 12.1-17.5 3.7 17.5 3.7 52.3 12.1 13.6 2.8 2.7 13.9 12 53 3.7 17.6 0.1-0.4v0.4-0.8l3.6-16.8 11.9-53 2.7-13.9h0.1l13.7-2.7 52.3-12.1 17.4-3.7-0.2-0.1z"/>
		</g>
		<g id="Clip-Path" clip-path="url(#cp12)">
			<path id="Layer" class="s6" d="m129.2 141.2c-0.4-0.6-0.4-1.2 0-1.7 0.4-0.6 0.9-1.1 1.4-1.6 1.2-1.4 2.3-2.3 3.5-3.7 1.7-1.9 3.2-1.9 4.9 0.1 1.1 1.2 2.4 2.3 3.5 3.5 1.8 1.8 1.7 2.9-0.1 4.8-1 1.2-2.2 2.2-3.2 3.4-1.5 1.7-3.5 2.2-5.5 0.1-1.1-1.3-2.1-2.1-3.3-3.4-0.2-0.3-0.9-1.1-1.2-1.5z"/>
		</g>
		<g id="Clip-Path" clip-path="url(#cp13)">
			<path id="Layer" class="s7" d="m130.7 281.4c-0.3-0.5-0.3-1.1 0-1.5 0.4-0.5 0.9-0.9 1.2-1.4 1.2-1.1 2.2-2 3.2-3.1 1.6-1.7 2.8-1.7 4.3 0.1 1 1.2 2.1 2.2 3 3.2 1.5 1.7 1.5 2.6-0.1 4.3-1 1-2 1.9-2.9 2.9-1.4 1.4-3.2 1.8-4.9-0.1-0.9-1.1-1.7-1.8-2.8-3-0.2-0.3-0.7-1-1-1.4z"/>
		</g>
		<g id="Clip-Path" clip-path="url(#cp14)">
			<path id="Layer" class="s6" d="m264.7 278.8c-0.3-0.4-0.3-0.9 0-1.4 0.3-0.4 0.7-0.8 1.1-1.3 1-1.1 1.9-1.9 2.9-3 1.4-1.6 2.6-1.6 4 0.1 0.9 1 2 1.8 2.9 2.9 1.5 1.5 1.4 2.4-0.1 4-0.8 1-1.7 1.8-2.6 2.8-1.2 1.4-2.9 1.8-4.5 0.1-1-1.1-1.8-1.8-2.7-2.8-0.3-0.4-0.8-1-1-1.4z"/>
		</g>
		<g id="Clip-Path" clip-path="url(#cp15)">
			<path id="Layer" class="s8" d="m409.9 83.2c0.4 0.6 0.4 1.2 0.5 1.9 0.9 6 3.8 11 7.7 15.4 3.6 4.1 8.2 7.2 13.6 8.7 1.4 0.4 2.8 0.8 4.1 1.2-1.8 0.8-2.9 1.4-3.7 1.9-6.2 3.2-10 8.3-12.2 14.8q-0.8 2-1.5 4.1c-0.7 1.7-2 2.3-3.6 2.3-1.6 0-2.8-0.7-3.5-2.3-0.3-0.9-0.8-2-1.1-3-2.3-7.5-6.8-13-13.9-16.5-2.5-1.2-5.2-2.2-7.7-3.3-0.4-0.1-0.9-0.2-1.3-0.5-1.4-0.7-2.7-1.7-2.6-3.4 0.1-1.8 1.2-3 2.9-3.7 1.5-0.6 3-1.1 4.5-1.6 7.8-3.1 14.5-8 17.8-16z"/>
		</g>
		<g id="Clip-Path" clip-path="url(#cp16)">
			<path id="Layer" class="s9" d="m420.1 125.6c-0.3-0.7-0.3-1.3-0.4-1.9-0.9-6-3.8-11-7.7-15.4-3.6-4.2-8.2-7.2-13.6-8.8-1.3-0.3-2.8-0.7-4.1-1.1 1.8-0.8 2.9-1.4 3.7-2 6.2-3.2 10-8.3 12.3-14.7q0.7-2.1 1.4-4.1c0.7-1.7 2-2.3 3.7-2.3 1.5 0 2.7 0.7 3.4 2.3 0.4 0.9 0.8 2 1.1 3 2.3 7.5 6.9 13 13.9 16.4 2.5 1.2 5.2 2.3 7.7 3.3 0.5 0.2 0.9 0.3 1.3 0.5 1.4 0.7 2.7 1.8 2.6 3.5-0.1 1.8-1.2 3-2.8 3.6-1.6 0.6-3.1 1.1-4.6 1.7-7.8 3.1-14.4 8-17.9 16z"/>
		</g>
		<g id="Clip-Path" clip-path="url(#cp17)">
			<path id="Layer" class="s10" d="m320.2 248.1c-0.5-0.6-0.5-1.4 0-2 0.4-0.7 1.1-1.3 1.6-1.9 1.5-1.7 2.8-2.9 4.2-4.5 2.2-2.3 3.9-2.3 6 0.1 1.4 1.5 2.9 2.8 4.2 4.3 2.2 2.2 2.1 3.4 0 5.8-1.3 1.4-2.6 2.7-3.9 4.1-1.8 2.1-4.3 2.7-6.6 0.1-1.5-1.6-2.6-2.6-4.1-4.1-0.3-0.5-1.1-1.4-1.4-1.9z"/>
		</g>
		<g id="Clip-Path" clip-path="url(#cp18)">
			<path id="Layer" class="s7" d="m241.3 358.4h2.8c0.4 1 1.1 2 1.5 3.1 1.4 4 5.8 8 9.7 9.8 1.6 0.8 1.4 0.8 2.9 1.7v2.2c-0.8 0.4-1.7 1-2.6 1.3-4.9 1.5-8 4.8-10 9.4-0.6 1.2-1.3 2.3-2 3.4h-2.2c-0.4-0.7-1.3-2.4-1.5-3.2-2-6.5-6.1-9.3-12.6-10.9v-2.7c0.8-0.5 2-0.8 3.1-1.2 4.7-2 7.6-5.3 9.5-9.9 0.5-1.3 0.9-1.8 1.4-3z"/>
		</g>
		<g id="Clip-Path" clip-path="url(#cp19)">
			<path id="Layer" class="s9" d="m46.4 107.3h2.7c0.5 1.1 1.1 2.1 1.5 3.1 1.5 4.1 5.8 8.1 9.8 9.9 1.6 0.8 1.3 0.8 2.9 1.7v2.2c-0.9 0.4-1.7 1-2.7 1.3-4.9 1.4-8 4.8-10 9.4-0.5 1.2-1.3 2.2-2 3.4h-2.2c-0.4-0.7-1.3-2.4-1.5-3.2-2-6.5-6.1-9.3-12.6-10.9v-2.7c0.9-0.5 2.1-0.8 3.1-1.2 4.7-2 7.7-5.4 9.6-9.9 0.4-1.3 0.8-1.9 1.4-3.1z"/>
		</g>
		<g id="Clip-Path" clip-path="url(#cp20)">
			<path id="Layer" class="s7" d="m200.6 467.9c-0.5-0.7-0.5-1.5 0-2.1 0.4-0.6 1.1-1.3 1.6-1.9 1.5-1.6 2.8-2.8 4.2-4.4 2.1-2.4 3.9-2.4 6 0 1.4 1.5 2.9 2.8 4.2 4.3 2.2 2.2 2.1 3.5 0 5.9-1.3 1.4-2.6 2.7-3.9 4.1-1.8 2-4.3 2.7-6.7 0-1.4-1.5-2.5-2.5-4-4.1-0.3-0.4-1.1-1.3-1.4-1.8z"/>
		</g>
		<g id="Clip-Path" clip-path="url(#cp21)">
			<path id="Layer" class="s11" d="m109.5 356.7c-20.4 0-36.9-16.5-36.9-36.9 0-20.4 16.5-36.8 36.9-36.8 20.3 0 36.8 16.4 36.8 36.8 0 20.4-16.5 36.9-36.8 36.9z"/>
		</g>
	</g>
	<g id="Layer">
		<g id="Clip-Path" clip-path="url(#cp22)">
			<path id="Layer" class="s11" d="m109.6 355.9c-20.2 0-36.5-16.3-36.5-36.5 0-20.1 16.3-36.4 36.5-36.4 20.2 0 36.5 16.3 36.5 36.4 0 20.2-16.3 36.5-36.5 36.5z"/>
		</g>
		<g id="Clip-Path" clip-path="url(#cp23)">
			<path id="Layer" class="s12" d="m109.8 356.1c-20.1 0-36.4-16.3-36.4-36.5 0-20.2 16.3-36.5 36.4-36.5 20.2 0 36.5 16.3 36.5 36.5 0 20.2-16.3 36.5-36.5 36.5z"/>
		</g>
	</g>
	<g id="Layer">
		<g id="Clip-Path" clip-path="url(#cp24)">
			<path id="Layer" class="s7" d="m109.5 333.9c-7.8 0-14.1-6.2-14.1-14 0-7.8 6.3-14.1 14.1-14.1 7.7 0 14 6.3 14 14.1 0 7.8-6.3 14-14 14z"/>
		</g>
		<g id="Clip-Path" clip-path="url(#cp25)">
			<path id="Layer" class="s12" d="m298.6 349c-7.6 0-13.8-6.2-13.8-13.8 0-7.6 6.2-13.7 13.8-13.7 7.6 0 13.7 6.1 13.7 13.7 0 7.6-6.1 13.8-13.7 13.8z"/>
		</g>
	</g>
	<g id="Layer">
		<g id="Clip-Path" clip-path="url(#cp26)">
			<path id="Layer" class="s6" d="m298.6 349c-7.6 0-13.7-6.1-13.7-13.7 0-7.6 6.1-13.7 13.7-13.7 7.6 0 13.8 6.1 13.8 13.7 0 7.6-6.2 13.7-13.8 13.7z"/>
		</g>
	</g>
	<g id="Layer">
		<g id="Clip-Path" clip-path="url(#cp27)">
			<path id="Layer" class="s12" d="m358.6 433.5c-9.5 0-17.1-7.6-17.1-17 0-9.4 7.6-17.1 17.1-17.1 9.4 0 17 7.7 17 17.1 0 9.4-7.6 17-17 17z"/>
		</g>
	</g>
	<g id="Layer">
		<g id="Clip-Path" clip-path="url(#cp28)">
			<path id="Layer" class="s12" d="m358.6 433.5c-9.5 0-17.1-7.6-17.1-17 0-9.4 7.6-17.1 17.1-17.1 9.4 0 17 7.7 17 17.1 0 9.4-7.6 17-17 17z"/>
		</g>
		<g id="Clip-Path" clip-path="url(#cp29)">
			<path id="Layer" class="s6" d="m358.6 433.1c-9.3 0-16.9-7.5-16.9-16.8 0-9.4 7.6-16.9 16.9-16.9 9.4 0 16.9 7.5 16.9 16.9 0 9.3-7.5 16.8-16.9 16.8z"/>
		</g>
		<g id="Clip-Path" clip-path="url(#cp30)">
			<path id="Layer" class="s6" d="m358.7 433.2c-9.3 0-16.9-7.5-16.9-16.9 0-9.3 7.6-16.9 16.9-16.9 9.4 0 16.9 7.6 16.9 16.9 0 9.4-7.5 16.9-16.9 16.9z"/>
		</g>
	</g>
	<g id="Layer">
		<g id="Clip-Path" clip-path="url(#cp31)">
			<path id="Layer" class="s12" d="m252.3 107.6c-19.1 0-34.6-15.4-34.6-34.5 0-19.1 15.5-34.5 34.6-34.5 19 0 34.5 15.4 34.5 34.5 0 19.1-15.5 34.5-34.5 34.5z"/>
		</g>
	</g>
	<g id="Layer">
		<g id="Clip-Path" clip-path="url(#cp32)">
			<path id="Layer" class="s6" d="m252.5 107.7c-19.1 0-34.5-15.4-34.5-34.5 0-19.1 15.4-34.5 34.5-34.5 19.1 0 34.6 15.4 34.6 34.5 0 19.1-15.5 34.5-34.6 34.5z"/>
		</g>
	</g>
	<g id="Layer">
		<g id="Clip-Path" clip-path="url(#cp33)">
			<path id="Layer" class="s13" d="m252.7 91.3c-9.9 0-18-8.1-18-18.2 0-10.1 8.1-18.2 18-18.2 10 0 18.1 8.1 18.1 18.2 0 10.1-8.1 18.2-18.1 18.2z"/>
		</g>
		<g id="Clip-Path" clip-path="url(#cp34)">
			<path id="Layer" class="s12" d="m77 147.6c0.3 0.5 0.3 0.9 0.4 1.4 0.7 4.3 2.8 8 5.6 11.2 2.6 2.9 5.9 5.2 9.8 6.3 1 0.3 2.1 0.5 3 0.8-1.3 0.6-2 1-2.7 1.4-4.4 2.4-7.2 6.1-8.8 10.7-0.4 1-0.7 2-1.1 3-0.5 1.1-1.4 1.6-2.7 1.6-1.1 0-2-0.5-2.5-1.6-0.2-0.8-0.6-1.5-0.8-2.3-1.6-5.4-4.9-9.4-10.1-11.9-1.8-0.9-3.7-1.6-5.6-2.4-0.3-0.1-0.6-0.2-0.9-0.4-1-0.5-2-1.2-1.9-2.5 0-1.3 0.8-2.1 2.1-2.6 1-0.5 2.2-0.9 3.3-1.2 5.7-2.1 10.5-5.7 12.9-11.5z"/>
		</g>
		<g id="Clip-Path" clip-path="url(#cp35)">
			<path id="Layer" class="s14" d="m84.4 178.4c-0.2-0.5-0.2-0.9-0.3-1.4-0.6-4.3-2.8-7.9-5.5-11.1-2.7-3-6-5.3-9.9-6.4-1-0.3-2-0.5-3-0.8 1.4-0.6 2.1-1 2.7-1.4 4.5-2.4 7.2-6 8.9-10.7 0.3-1 0.7-2 1-2.9 0.5-1.2 1.5-1.7 2.7-1.7 1.1 0 2 0.5 2.5 1.7 0.3 0.7 0.6 1.4 0.8 2.2 1.6 5.4 5 9.4 10.1 11.9 1.8 0.9 3.8 1.6 5.6 2.4 0.3 0.1 0.7 0.2 0.9 0.4 1.1 0.5 2 1.2 1.9 2.5 0 1.3-0.8 2.2-2 2.6-1.1 0.5-2.3 0.9-3.3 1.2-5.8 2.1-10.6 5.7-13.1 11.5z"/>
		</g>
		<g id="Clip-Path" clip-path="url(#cp36)">
			<path id="Layer" class="s7" d="m345.6 398.1l-1.2 0.9c-1.5 1.1-3.9 0.4-5.2-1.7l-31.3-41.2c-1.4-2-1.1-4.7 0.4-5.9l1.1-0.9c1.5-1.1 3.9-0.3 5.3 1.7l31.3 41.2c1.4 2.1 1.2 4.7-0.4 5.9z"/>
		</g>
		<g id="Clip-Path" clip-path="url(#cp37)">
			<path id="Layer" class="s7" d="m269.2 333.1v1.4c-0.1 1.9-2 3.3-4.1 3.2l-103.3-8.8c-2.1-0.2-3.8-1.9-3.7-3.9l0.1-1.4c0.1-1.9 1.9-3.3 4-3.2l103.3 8.9c2.2 0.1 3.9 1.8 3.7 3.8z"/>
		</g>
		<g id="Clip-Path" clip-path="url(#cp38)">
			<path id="Layer" class="s7" d="m88.6 273l-1.4 0.2c-1.9 0.1-3.6-1.1-3.9-2.5l-9.2-71.2c-0.3-1.5 1.2-2.8 3.1-2.9l1.4-0.1c1.9-0.1 3.7 1 3.9 2.5l9.3 71.2c0.2 1.4-1.2 2.7-3.2 2.8z"/>
		</g>
		<g id="Clip-Path" clip-path="url(#cp39)">
			<path id="Layer" class="s7" d="m214.5 85.3l0.7 1.2c0.9 1.7-0.1 3.9-2.2 4.9l-102.5 46.8c-2.1 1-4.6 0.4-5.5-1.3l-0.7-1.3c-0.9-1.7 0.1-3.9 2.2-4.9l102.5-46.8c2.1-1 4.6-0.4 5.5 1.4z"/>
		</g>
		<g id="Clip-Path" clip-path="url(#cp40)">
			<path id="Layer" class="s6" d="m141.5 354.3c-0.4-0.7-0.4-1.5 0-2.1 0.5-0.6 1.1-1.3 1.7-1.9 1.5-1.6 2.8-2.8 4.2-4.4 2.1-2.4 3.9-2.4 6 0 1.3 1.5 2.9 2.9 4.2 4.3 2.2 2.2 2.1 3.5 0 5.9-1.3 1.4-2.6 2.7-3.9 4.1-1.8 2-4.3 2.7-6.7 0.1-1.4-1.6-2.5-2.6-4-4.2-0.3-0.4-1.1-1.3-1.5-1.8z"/>
		</g>
		<g id="Clip-Path" clip-path="url(#cp41)">
			<path id="Layer" class="s8" d="m467.3 340.1c-2.9 1.7-7.6 3.3-9.9 5.7-5.2 5.4-6.3 7.5-8.8 15.9-0.5 1.3-1.4 4.4-1.8 5.8-2.2 8.2-1.8 16.6-1.8 25 0 1.9 0.1 3.7 0 5.7-0.1 2.9-1.9 4.7-4.7 4.7-2.7 0-4.5-1.8-4.5-4.8-0.1-6.6 0.2-13.1-0.1-19.8-0.5-9.3-3.2-18-7.8-26-4.6-7.8-11.7-11.5-20.4-13.5-10.4-2.5-20.9-2.4-31.4-2.4-1.4 0-2.9-0.3-4.3-0.8-1.7-0.5-2.4-2-2.4-3.7 0-1.8 0.6-3.2 2.4-3.8 1.2-0.5 2.4-0.8 3.6-0.8q7-0.1 13.8 0c8.7 0.2 16.7-0.9 24.9-3.3 7.6-3.9 11-7.9 14.5-13.6 0.5-0.7 1.1-1.3 1.6-2.1 0.6 1.2 1.2 2.5 1.9 3.7 4.6 9.3 11.2 16.9 20.2 22.3 4.6 2.8 9.3 5.7 15 5.8z"/>
		</g>
		<g id="Clip-Path" clip-path="url(#cp42)">
			<path id="Layer" class="s9" d="m411.7 324.7c3.6-1.1 5.9-3.2 8.5-5.4 6.2-5.1 8.9-12.4 11.3-19.9 2.9-8.9 2.5-18.1 2.5-27.2 0-1.9-0.1-3.7 0-5.7 0.1-2.9 1.9-4.7 4.6-4.7 2.8 0 4.6 1.8 4.6 4.8 0.1 6.6-0.2 13.2 0.1 19.8 0.5 9.3 3.2 18 7.8 26 4.5 7.9 11.7 11.5 20.4 13.6 10.4 2.4 20.8 2.3 31.4 2.3 1.4 0 2.9 0.4 4.3 0.8 1.7 0.5 2.4 2 2.4 3.7 0 1.8-0.6 3.2-2.4 3.8-1.2 0.5-2.4 0.8-3.7 0.8q-6.9 0.2-13.7 0c-8.7-0.2-17 1.9-25.1 4.3-6.6 1.9-10 6.5-13.5 12.2-1 2.4-1.2 2.8-1.5 3.9-0.6-1.2-2.2-3.9-2.8-5.2-4.6-9.4-11.2-16.9-20.2-22.3-4.6-2.7-9.2-5.5-15-5.6z"/>
		</g>
		<g id="Clip-Path" clip-path="url(#cp43)">
			<path id="Layer" class="s7" d="m288 319.7l-1.2 0.7c-1.8 0.8-3.9 0.1-4.7-1.6l-68.5-88c-0.9-1.8-0.1-3.9 1.6-4.8l1.2-0.6c1.8-0.9 3.9-0.1 4.7 1.6l68.6 87.9c0.8 1.8 0.1 3.9-1.7 4.8z"/>
		</g>
		<g id="Clip-Path" clip-path="url(#cp44)">
			<path id="Layer" class="s12" d="m201.1 223.3c-7.6 0-13.7-6.2-13.7-13.8 0-7.6 6.1-13.7 13.7-13.7 7.6 0 13.7 6.1 13.7 13.7 0 7.6-6.1 13.8-13.7 13.8z"/>
		</g>
	</g>
	<g id="Layer">
		<g id="Clip-Path" clip-path="url(#cp45)">
			<path id="Layer" class="s6" d="m201.2 223.3c-7.6 0-13.8-6.2-13.8-13.8 0-7.6 6.2-13.7 13.8-13.7 7.6 0 13.7 6.1 13.7 13.7 0 7.6-6.1 13.8-13.7 13.8z"/>
		</g>
	</g>
	<g id="Layer">
		<g id="Clip-Path" clip-path="url(#cp46)">
			<path id="Layer" class="s6" d="m263.2 142c-0.3-0.5-0.3-1 0-1.4 0.3-0.5 0.8-0.9 1.1-1.3 1-1.1 1.9-1.9 2.9-3.1 1.5-1.6 2.6-1.6 4.1 0.1 0.9 1 1.9 1.9 2.8 2.9 1.5 1.5 1.4 2.4 0 4-0.9 1-1.8 1.9-2.6 2.8-1.3 1.4-3 1.8-4.6 0.1-1-1.1-1.7-1.7-2.7-2.8-0.2-0.3-0.8-0.9-1-1.3z"/>
		</g>
		<g id="Clip-Path" clip-path="url(#cp47)">
			<path id="Layer" class="s6" d="m286.7 46.6c-0.3-0.4-0.3-1 0-1.4 0.2-0.4 0.7-0.9 1.1-1.3 1-1.1 1.9-1.9 2.8-3 1.5-1.6 2.6-1.6 4.1 0 0.9 1 2 1.9 2.9 2.9 1.5 1.6 1.4 2.4-0.1 4.1-0.8 0.9-1.8 1.8-2.6 2.8-1.2 1.3-2.9 1.8-4.5 0-1-1-1.8-1.7-2.7-2.8-0.2-0.4-0.8-1-1-1.3z"/>
		</g>
		<g id="Clip-Path" clip-path="url(#cp48)">
			<path id="Layer" class="s7" d="m297.4 96.7h2.7c0.5 1 1.2 2 1.6 3 1.4 4.1 5.8 8.1 9.7 9.9 1.6 0.8 1.3 0.8 2.9 1.7v2.2c-0.9 0.4-1.7 1-2.6 1.3-4.9 1.4-8 4.8-10 9.4-0.6 1.2-1.3 2.3-2 3.4h-2.2c-0.4-0.7-1.3-2.4-1.5-3.2-2-6.5-6.1-9.3-12.6-10.9v-2.7c0.8-0.5 2-0.8 3.1-1.2 4.7-2 7.6-5.3 9.5-9.9 0.5-1.3 0.9-1.9 1.4-3z"/>
		</g>
	</g>
</svg>