<svg xmlns="http://www.w3.org/2000/svg" viewBox="0 0 513 513" width="513" height="513">
	<style>
		tspan { white-space:pre }
		.shp0 { fill: #dde5e8;stroke: #0094ff;paint-order:stroke fill markers;stroke-width: 32 } 
		.shp1 { fill: #bacbd1 } 
	</style>
	<g id="Layer">
		<path id="Layer" class="shp0" d="M236.4 225.83C227.4 209.68 210.03 200 191.54 200L23.85 200C20.06 200 17.74 204.16 19.73 207.39L23.73 213.87C32.9 228.72 49.11 237.77 66.57 237.77L70.51 238.15L76.99 252.02C83.93 266.87 96.2 275.92 109.42 275.92L126.23 275.92L130.61 289.78C135.31 304.64 143.62 313.69 152.57 313.69L213.45 313.69L238.07 313.69C240.75 313.69 242.92 311.52 242.92 308.84L242.92 250.93C242.92 242.15 240.67 233.5 236.4 225.83Z" />
		<path id="Layer" class="shp0" d="M319.58 200C301.16 200 284.22 210.06 275.39 226.22L275.39 226.22C271.25 233.8 269.08 242.29 269.08 250.93L269.08 308.84C269.08 311.52 271.25 313.69 273.93 313.69L298.55 313.69L359.44 313.69C368.38 313.69 376.69 304.64 381.39 289.79L385.77 275.92L402.58 275.92C415.8 275.92 428.07 266.87 435.01 252.02L441.49 238.15L445.43 237.77C462.89 237.77 479.1 228.73 488.27 213.87L492.27 207.4C494.26 204.17 491.94 200 488.15 200L319.58 200L319.58 200Z" />
	</g>
	<g id="Layer">
		<path id="Layer" class="shp1" d="M492.27 207.4L488.28 213.86C479.11 228.72 462.89 237.77 445.43 237.77L441.49 238.15L435.01 252.02C428.07 266.87 415.8 275.91 402.58 275.91L385.77 275.91L381.38 289.79C376.69 304.64 368.38 313.68 359.44 313.68L317.99 313.68C327.44 313.68 336.22 304.13 341.18 288.44L345.82 273.79L363.57 273.79C377.53 273.79 390.5 264.23 397.83 248.54L404.68 233.89L408.84 233.49C427.28 233.49 444.41 223.94 454.1 208.24L458.31 201.41C458.6 200.95 458.8 200.48 458.93 200L488.14 200C491.94 200 494.26 204.16 492.27 207.4Z" />
		<path id="Layer" class="shp1" d="M19.73 207.4L23.72 213.86C32.89 228.72 49.11 237.77 66.57 237.77L70.5 238.15L76.99 252.02C83.93 266.87 96.2 275.91 109.42 275.91L126.23 275.91L130.62 289.79C135.31 304.64 143.62 313.68 152.56 313.68L194.01 313.68C184.55 313.68 175.78 304.13 170.82 288.44L166.18 273.79L148.42 273.79C134.47 273.79 121.49 264.23 114.17 248.54L107.32 233.89L103.16 233.49C84.72 233.49 67.59 223.94 57.9 208.24L53.69 201.41C53.4 200.95 53.2 200.48 53.07 200L23.86 200C20.06 200 17.74 204.16 19.73 207.4Z" />
	</g>
	<g id="Layer">
	</g>
	<g id="Layer">
	</g>
	<g id="Layer">
	</g>
	<g id="Layer">
	</g>
	<g id="Layer">
	</g>
	<g id="Layer">
	</g>
	<g id="Layer">
	</g>
	<g id="Layer">
	</g>
	<g id="Layer">
	</g>
	<g id="Layer">
	</g>
	<g id="Layer">
	</g>
	<g id="Layer">
	</g>
	<g id="Layer">
	</g>
	<g id="Layer">
	</g>
	<g id="Layer">
	</g>
</svg>