<svg id="Capa_1" enable-background="new 0 0 512 512" height="512" viewBox="0 0 512 512" width="512" xmlns="http://www.w3.org/2000/svg"><g><path d="m293.5 332h-97.5l60 180h127.5z" fill="#fae8ac"/><path d="m422 332h-128.5v90c0 49.626 40.374 90 90 90h128.5v-90c0-49.626-40.374-90-90-90z" fill="#4a3a34"/><path d="m218.5 332-90 180h127.5v-180z" fill="#fdf6df"/><path d="m45 332 45 180h38.5c49.626 0 90-40.374 90-90v-90z" fill="#6c4b41"/><path d="m256 135-60 166h106.507l88.493-120v-46z" fill="#fc9e8d"/><path d="m376 181c-36.219 0-66.524 25.81-73.493 60h-46.507l-75 76 75 135c74.439 0 135-60.561 135-135v-136z" fill="#bc6e55"/><path d="m121 135v46l88.493 120h46.507v-166z" fill="#fdbba8"/><path d="m209.493 241c-6.969-34.19-37.274-60-73.493-60h-15v136c0 74.439 60.561 135 135 135v-211z" fill="#d7795c"/><path d="m482 135c0-41.355-33.645-75-75-75h-38.741c-24.93-37.22-67.168-60-112.259-60l-45 75 45 75h226z" fill="#875748"/><path d="m30 135c0-41.355 33.645-75 75-75h38.741c24.93-37.22 67.168-60 112.259-60v150h-226z" fill="#a2624f"/><path d="m45 0c-24.813 0-45 20.187-45 45v467h90v-467c0-24.813-20.187-45-45-45z" fill="#ea8c60"/></g></svg>