<svg id="Layer_1" data-name="Layer 1" xmlns="http://www.w3.org/2000/svg" xmlns:xlink="http://www.w3.org/1999/xlink" viewBox="0 0 2000 2000"><defs><style>.cls-1{fill:none;}.cls-2{fill:#aed76a;}.cls-3{fill:#77a22f;}.cls-4{clip-path:url(#clip-path);}.cls-5{fill:#8abd32;}.cls-6{clip-path:url(#clip-path-2);}.cls-7{fill:#fecfae;}.cls-8{fill:#bc4d3b;}.cls-9{fill:#aa4226;}.cls-10{fill:#c9b3ad;}.cls-11{fill:#f9ebe8;}.cls-12{fill:#ead2cc;}.cls-13{clip-path:url(#clip-path-3);}.cls-14{fill:#5597c9;}.cls-15{fill:#4e8bc1;}.cls-16{fill:#1572a0;}.cls-17{fill:#993a23;}.cls-18{fill:#d6c5c1;}.cls-19{fill:#afd86a;}.cls-20{fill:#1e1713;}.cls-21{fill:#387bad;}.cls-22{clip-path:url(#clip-path-4);}</style><clipPath id="clip-path"><path class="cls-1" d="M1583,1083.49s90.74-15.78,80.13,55.92c0,0,46-11.77,53.6,30,4.69,25.79-28.12,43.7-56.79,25.71-21.94-13.76-63.23-20.42-70.94-18.79S1583,1083.49,1583,1083.49Z"/></clipPath><clipPath id="clip-path-2"><path class="cls-1" d="M87.82,1410.45c0-106.23,111.9-251.07,247.48-295.3,270.55-88.27,832.72-249,1330.14,27.49,676.53,376.1-180,793.4-593.46,582S558.61,1758,331,1706.62C227.63,1683.25,87.82,1614.8,87.82,1410.45Z"/></clipPath><clipPath id="clip-path-3"><path class="cls-1" d="M508.53,972.72c-69.06-7.84-49.42,54.82-49.42,54.82s-36-18.18-45.81,41c-18.8-6.59-41-8.23-44.24,18.75-4.06,33.9,37.67,35.23,59.38,20.24,28.8,10.54,85.25-14.64,85.25-14.64l71.1-39.83S568.85,979.58,508.53,972.72Z"/></clipPath><clipPath id="clip-path-4"><path class="cls-1" d="M1602,1226.57l-2.57.62s-21.58-29.5-44.68-16c-35.79,21.94-11.67,50.77-11.67,50.77s-15.75-9.66-24.75,6.89c-7.63,13,3.63,24.47,15.27,27.74,0,0,22.38,11.14,58-5.77.48-.21,1-.41,1.43-.63l6.28-2.93a52.24,52.24,0,0,0,13.31-8.92h0a52.08,52.08,0,0,0,15.55-26.91c0-.1,0-.19.07-.29a17,17,0,0,0,.34-2.61C1629.41,1234.2,1616,1223.3,1602,1226.57Z"/></clipPath></defs><path class="cls-2" d="M87.82,1410.45c0-106.23,111.9-251.07,247.48-295.3,270.55-88.27,832.72-249,1330.14,27.49,676.53,376.1-180,793.4-593.46,582S558.61,1758,331,1706.62C227.63,1683.25,87.82,1614.8,87.82,1410.45Z"/><path class="cls-3" d="M1583,1083.49s90.74-15.78,80.13,55.92c0,0,46-11.77,53.6,30,4.69,25.79-28.12,43.7-56.79,25.71-21.94-13.76-63.23-20.42-70.94-18.79S1583,1083.49,1583,1083.49Z"/><g class="cls-4"><path class="cls-5" d="M1583.9,1108.91s56.29-21,72.23,35.37c0,0,77.57,2.4,46.44,53.47,0,0,63.51,16.32,45.81-31.83S1715,1104.49,1699,1098.7s-70.13-35.4-73.19-35.74-43.72-2.89-43.72-2.89Z"/></g><g class="cls-6"><path class="cls-7" d="M1135,1274.93s-202.93,17.84-222.07,101,92.73,60.16,96.54,162.8-288.51,97.77-288.51,97.77l250,158.06S1156.13,1664,1154.16,1588.6c-3.06-117.29-153.32-141.32-130.21-193.89,42.39-96.4,187.48-81.85,187.48-81.85S1186.2,1233.27,1135,1274.93Z"/></g><path class="cls-3" d="M440.43,1081.7s-65.64-42.38-71.37,5.54S449.06,1118,440.43,1081.7Z"/><path class="cls-3" d="M513.69,1092.84s-109.48,48.83-101.31-18,46.73-47.33,46.73-47.33-19.64-62.66,49.42-54.82c60.32,6.86,76.26,80.29,76.26,80.29Z"/><polygon class="cls-8" points="545.68 1117.89 871.71 1268.48 879.2 936.45 756.3 717.66 592.47 657.72 533.33 727.65 500.03 811.29 519.62 858.77 545.68 1117.89"/><polygon class="cls-9" points="519.62 832.15 559.28 743.64 609.84 696.83 739.02 751.13 819.7 884.91 840.13 1000 884.97 963.4 758.47 727.65 601.49 668.23 529.61 726.36 505.8 827.23 519.62 832.15"/><polygon class="cls-10" points="699.56 919.59 837.42 851.26 856 884.54 737.92 938.48 699.56 919.59"/><path class="cls-11" d="M637.46,884.69l-76.72-169S536.35,729.29,543,752.06s51.35,112.76,51.35,112.76Z"/><polygon class="cls-12" points="695.56 913.46 833.42 845.13 852 878.41 733.93 932.35 695.56 913.46"/><path class="cls-12" d="M629,884.69,552.31,716.86s-24.39,13.59-17.78,36.37S585.88,866,585.88,866Z"/><g class="cls-13"><path class="cls-5" d="M514.25,1000S463,990.57,471,1039.53c0,0-39.46-17.58-52.48,34.07,0,0-55.15.67-29.87,43s-101.87-54.56-101.87-54.56l125.18-86,102.3-35.21S565.57,954.4,514.25,1000Z"/></g><polygon class="cls-11" points="508.53 824.41 877.46 994.98 871.33 1024.92 498.37 834.94 508.53 824.41"/><path class="cls-10" d="M471,866l23.18-7.21s48.45-81.93,47.35-126.92c0,0,50.68-35.76,65.34-58.94,0,0-11.39-17.18-25.18-4s-64.13,40.76-65.93,52.75S471,866,471,866Z"/><path class="cls-14" d="M616.18,642.81l385.08-169.44h0l.62.07c37.88,21.53,79.4,38.5,120.52,52.93l40.69,14.27L1088.76,678.5l-290.1,49.15Z"/><path class="cls-10" d="M891,861.32c-1.19,81.51,39.4,202.34,39.4,202.34L912.54,1071C876,1043.32,865,866,865,866l24.6-7.21"/><path class="cls-15" d="M1266.2,679.7s-64.75-59.94-103.11-139.06l-364.43,173,78.8,161.68Z"/><path class="cls-16" d="M1032.14,1021.73,912.54,1071,871.33,866,1266.2,679.7l1.28,7.32a723.56,723.56,0,0,0,61,189.88h0Z"/><polygon class="cls-17" points="889.59 1290.48 1056.17 1213.25 1063.92 980.64 889.59 1061.56 889.59 1290.48"/><path class="cls-18" d="M798.66,713.67,885,857.11s16.75,118.95,53.95,199.4L912.54,1071s-43.66-56.44-41.21-76.62S836.22,841.54,818.64,820s-47.95-86.31-66.33-97.5S783.47,705.68,798.66,713.67Z"/><path class="cls-11" d="M592.47,646.54l21.58-7.2,184.61,74.33-25,9.05S591.67,653.73,592.47,646.54Z"/><path class="cls-19" d="M917.93,1445.92c18.42-22.41,9-35.89,11.78-42.2,0,0,17.34,20.84,7.52,36.57l14.57-15.66s-.65-23.51,18-36.74c0,0-15.15,49.76-6.53,53.54,0,0,3-18.62,13-21.47,0,0-3.86,27.11-5.54,34C964.56,1479.54,909.23,1456.53,917.93,1445.92Z"/><path class="cls-19" d="M1120.79,1332.43s3-27.66-1.72-30.86c0,0-4.51,23.41-8,25.14s-7-16.44-7-16.44-6.09,12.39-1.92,18.35S1120.79,1332.43,1120.79,1332.43Z"/><path class="cls-19" d="M1102.42,1325.27s-15.09-23.38-20.79-22.87c0,0,11.25,21,9.66,24.53s-15.8-8.35-15.8-8.35,3.07,13.46,10.07,15.46S1102.42,1325.27,1102.42,1325.27Z"/><path class="cls-5" d="M545.48,1197.9s-148.72-30.2-307.35,86.8c0,0,40.46-22.12,65.43-33.2S408.52,1196.22,545.48,1197.9Z"/><path class="cls-5" d="M536,1168.13s-122.32-42.63-269.93,38.1C266.1,1206.23,392.7,1141.82,536,1168.13Z"/><path class="cls-5" d="M573.82,1242.83s-191.54-22.53-380.08,142.39c0,0,53.48-35.43,83.93-52.09S397.25,1262.58,573.82,1242.83Z"/><path class="cls-5" d="M617.46,1279.09s-201.59,14.06-356,211.32c0,0,42.29-35.84,69.08-57.9S458.77,1330.65,617.46,1279.09Z"/><path class="cls-5" d="M685.24,1310.23S469,1375.17,354,1597.7c0,0,34.89-43.08,57.11-69.74S538.91,1390.39,685.24,1310.23Z"/><path class="cls-5" d="M819.88,1338.65s-251.53,38.25-309.77,311.92c0,0,23.18-43.65,38.08-70.77S628.53,1405,819.88,1338.65Z"/><path class="cls-5" d="M1583.9,1336.31s144,3.89,265.23,129.3c0,0-32.59-25.71-53.26-39.48S1710.86,1361.13,1583.9,1336.31Z"/><path class="cls-5" d="M1621.36,1304.72s122.34-11.26,241.23,82.57C1862.59,1387.29,1759.57,1310.73,1621.36,1304.72Z"/><path class="cls-5" d="M1651,1269.73s86.84-20.72,182.06,34.51C1833,1304.24,1751,1259.8,1651,1269.73Z"/><path class="cls-5" d="M1529.06,1359.77s182,18.3,320.37,188.39c0,0-41.74-39-66.26-58.39S1688,1409.57,1529.06,1359.77Z"/><path class="cls-5" d="M1456.3,1395.89s187.92,34.15,308.13,214.63c0,0-35.24-34.38-57.65-55.63S1599.07,1456.28,1456.3,1395.89Z"/><path class="cls-5" d="M1369.65,1423.27s199.91,68.06,292.41,260.75c0,0-29.85-38.12-48.93-61.75S1502.28,1499.48,1369.65,1423.27Z"/><path class="cls-5" d="M1209.9,1417.54s260.07,68.89,282.8,330.38c0,0-18.28-43.55-30.17-70.68S1402.48,1504.49,1209.9,1417.54Z"/><polygon class="cls-17" points="1370.52 1369.06 1565.68 1272.27 1560.7 1033.89 1468.1 945.45 1362.54 1154.37 1370.52 1369.06"/><polygon class="cls-8" points="1048.87 1021.33 1048.87 1226.86 1340.13 1369.06 1333.34 1159.6 1048.87 1021.33"/><path class="cls-15" d="M1447,947.11l2.82-5.08-5.3-2.63c-.2-.57-.39-1.14-.6-1.71l-1,.92-311.7-152.4c-.17,19.58-7.08,32-25.9,79.78-25,63.5-73.17,155.74-73.17,155.74,132.16,97.22,274.24,144.19,274.24,144.19a6.94,6.94,0,0,0,1.55-.62C1325.64,1158.06,1422.49,1114.93,1447,947.11Z"/><path class="cls-11" d="M1130.92,776.45l17.75-4.27s83.95,63.8,329.84,155.68L1461.9,942s-128.64-29.84-143.77-47.36S1136.5,790.39,1136.5,790.39Z"/><path class="cls-9" d="M1048.87,1033.73V1042s90,69.31,279.61,141.8v-22.11Z"/><polygon class="cls-10" points="1056.46 1037.17 1056.46 1229.51 1061.3 1238.28 1070.57 1237.34 1071.37 1044 1056.46 1037.17"/><polygon class="cls-12" points="1045.74 1031.53 1045.74 1229.65 1061.3 1238.28 1060.65 1039.13 1045.74 1031.53"/><polygon class="cls-10" points="1351.79 1382.6 1370.52 1372.36 1370.52 1143.81 1346.26 1158.9 1351.79 1382.6"/><polygon class="cls-12" points="1351.79 1382.6 1328.48 1369.65 1328.48 1173.48 1351.79 1154.37 1351.79 1382.6"/><polygon class="cls-10" points="882.98 1304.3 901.72 1292.43 901.72 1027.54 877.46 1045.03 882.98 1304.3"/><polygon class="cls-12" points="882.98 1304.3 859.68 1289.29 859.68 1027.54 882.98 1039.77 882.98 1304.3"/><polygon class="cls-10" points="530.72 1128.46 548.57 1119.37 548.57 872.7 525.46 865.98 530.72 1128.46"/><polygon class="cls-12" points="530.72 1128.46 508.53 1118.32 508.53 855.92 530.72 867.51 530.72 1128.46"/><polygon class="cls-12" points="1572.25 1280.53 1562.69 1277.58 1560.6 1021.73 1583.9 1051.29 1572.25 1280.53"/><path class="cls-12" d="M1321.85,1174.28l-15.47-8.36s25.62-4.38,145.78-228.23l5.38,12.74S1391.68,1140.23,1321.85,1174.28Z"/><polygon class="cls-10" points="1591.97 1269.61 1572.25 1280.53 1572.25 1038.66 1591.97 1051.29 1591.97 1269.61"/><path class="cls-10" d="M1321.85,1174.28s49.65-56.16,144.65-241.18l5.38,26.89s-71.1,152.15-130.12,227Z"/><path class="cls-10" d="M1468,961.32s97.52,87.76,141.13,96.92l10.29-19.58s-99.78-53.18-147.57-108.14l-6.11,17.12Z"/><path class="cls-12" d="M1130.92,795.57l28.58,18.84a1153.46,1153.46,0,0,0,294.23,139.2q3.16,1,6.2,1.9V933.1s-92.38,5.86-329-156.65Z"/><polyline class="cls-10" points="1459.93 933.11 1478.52 927.86 1478.52 945.45 1459.93 956.21"/><polygon class="cls-12" points="1449.74 1244.76 1442.53 1243.03 1441.23 1128.24 1499.56 1103.88 1506.84 1104.79 1449.74 1244.76"/><polygon class="cls-10" points="1448.9 1130.77 1449.74 1244.76 1506.02 1217.99 1506.84 1104.79 1448.9 1130.77"/><polygon class="cls-20" points="1456.3 1138.55 1456.74 1232.51 1474.75 1224.63 1473.04 1130.27 1456.3 1138.55"/><polygon class="cls-20" points="1499.76 1117.05 1480.03 1126.81 1481.63 1221.62 1499.98 1213.6 1499.76 1117.05"/><polygon class="cls-12" points="1471.51 1130.74 1473.09 1225.36 1480.11 1222.44 1478.49 1127.28 1471.51 1130.74"/><polygon class="cls-10" points="1454.57 1161.66 1500.98 1144.28 1500.81 1152 1454.39 1169.83 1454.57 1161.66"/><polygon class="cls-10" points="1453.86 1199.75 1501.68 1180.57 1500.98 1188.56 1453.87 1207.92 1453.86 1199.75"/><polygon class="cls-10" points="1475.07 1124.68 1476.95 1228.86 1483.8 1223.86 1482.08 1122.41 1475.07 1124.68"/><path class="cls-21" d="M1170.12,824.41S1104.56,982.13,1056.25,1031c0,0,3.44,4,16.11-10.4S1141.37,925.2,1170.12,824.41Z"/><path class="cls-21" d="M1208,853.27s-57.88,154.2-102.7,202.8c0,0,3.43,3.73,15.13-10.53S1183.64,951.4,1208,853.27Z"/><path class="cls-21" d="M1258.12,878.41s-58.66,155-104.3,204c0,0,3.52,3.71,15.43-10.66S1233.52,977,1258.12,878.41Z"/><path class="cls-21" d="M1315.78,903.51S1254.87,1063.09,1208,1113.3c0,0,3.56,3.87,15.8-10.87S1290,1005.1,1315.78,903.51Z"/><path class="cls-21" d="M1377.12,932.35s-63.3,158.64-110.92,208.14c0,0,3.5,3.93,16-10.62S1349.8,1033.54,1377.12,932.35Z"/><path class="cls-21" d="M942.18,836.12s15.7,110.73,56.84,165.73c0,0-4,3.46-14.52-12.52S946.81,928.1,942.18,836.12Z"/><path class="cls-21" d="M1009.08,819.76s12.74,89.83,46.12,134.45c0,0-3.21,2.81-11.78-10.15S1012.84,894.38,1009.08,819.76Z"/><path class="cls-21" d="M949.33,655.75s32,89.86,75.75,128.8c0,0-2.72,3.57-14.27-8S968.88,731.83,949.33,655.75Z"/><path class="cls-21" d="M1002.45,630.67s26,72.9,61.46,104.5c0,0-2.2,2.9-11.58-6.47S1018.31,692.39,1002.45,630.67Z"/><path class="cls-21" d="M1062.46,621.92s20.46,57.44,48.43,82.34c0,0-1.74,2.28-9.12-5.1S1075,670.55,1062.46,621.92Z"/><path class="cls-21" d="M862.81,664.49s-94.26-14.61-140.71-50.3c0,0-3,3.34,10.51,12.52S784.42,659.53,862.81,664.49Z"/><path class="cls-21" d="M930.56,630s-95-8.63-143.6-41.31c0,0-2.78,3.52,11.28,11.84S852,630,930.56,630Z"/><path class="cls-21" d="M1000.44,590.31s-95.38.78-147-26.95c0,0-2.42,3.77,12.39,10.66S922.27,598.05,1000.44,590.31Z"/><polygon class="cls-10" points="652.53 1114.91 660.09 1113.07 660.91 992.63 599.61 967.35 591.98 968.34 652.53 1114.91"/><polygon class="cls-12" points="652.88 995.32 652.53 1114.91 593.36 1087.09 591.98 968.34 652.88 995.32"/><polygon class="cls-20" points="645.16 1003.52 645.13 1102.09 626.2 1093.91 627.55 994.91 645.16 1003.52"/><polygon class="cls-20" points="599.47 981.16 620.21 991.31 618.97 1090.79 599.67 1082.46 599.47 981.16"/><polygon class="cls-10" points="629.16 995.4 627.94 1094.66 620.57 1091.64 621.82 991.81 629.16 995.4"/><polygon class="cls-12" points="647.08 1027.75 598.31 1009.74 598.52 1017.83 647.31 1036.32 647.08 1027.75"/><polygon class="cls-12" points="648 1067.71 597.74 1047.81 598.52 1056.2 648.03 1076.28 648 1067.71"/><polygon class="cls-12" points="625.4 989.06 623.91 1098.36 616.71 1093.15 618.03 986.71 625.4 989.06"/><polygon class="cls-10" points="768 1174.16 776.26 1172.23 778.5 1040.87 711.9 1012.61 703.57 1013.6 768 1174.16"/><polygon class="cls-12" points="769.7 1043.71 768 1174.16 703.76 1143.16 703.57 1013.6 769.7 1043.71"/><polygon class="cls-20" points="761.19 1052.57 760.07 1160.09 739.51 1150.96 742.08 1042.98 761.19 1052.57"/><polygon class="cls-20" points="711.59 1027.67 734.11 1038.98 731.65 1147.47 710.7 1138.17 711.59 1027.67"/><polygon class="cls-10" points="743.83 1043.53 741.4 1151.8 733.39 1148.42 735.86 1039.53 743.83 1043.53"/><polygon class="cls-12" points="763.02 1079.02 710.02 1058.83 710.16 1067.67 763.17 1088.37 763.02 1079.02"/><polygon class="cls-12" points="739.8 1036.57 736.96 1155.78 729.16 1150.02 731.79 1033.93 739.8 1036.57"/><polygon class="cls-12" points="763.58 1122.62 708.98 1100.36 709.73 1109.51 763.51 1131.97 763.58 1122.62"/><polygon class="cls-12" points="1211.09 1313.02 1218.97 1309.97 1218.97 1159.61 1147.36 1131.13 1134.61 1132.22 1211.09 1313.02"/><polygon class="cls-10" points="1211.09 1313.02 1211.09 1162 1134.61 1132.22 1134.61 1275.09 1211.09 1313.02"/><polygon class="cls-17" points="1199.47 1294.54 1199.47 1174.54 1142.04 1149.25 1142.04 1266.15 1199.47 1294.54"/><polygon class="cls-10" points="1202.22 1220.4 1146.12 1147.51 1138.56 1149.25 1199.1 1228.36 1202.22 1220.4"/><polygon class="cls-10" points="1201.62 1224.78 1142.04 1200.35 1140.47 1206.38 1202.22 1233.45 1201.62 1224.78"/><polygon class="cls-10" points="1204.82 1296.47 1141.38 1202.88 1137.56 1208.85 1197.11 1299.13 1204.82 1296.47"/><path class="cls-3" d="M1602,1226.57l-2.57.62s-21.58-29.5-44.68-16c-35.79,21.94-11.67,50.77-11.67,50.77s-15.75-9.66-24.75,6.89c-7.63,13,3.63,24.47,15.27,27.74,0,0,22.38,11.14,58-5.77.48-.21,1-.41,1.43-.63l6.28-2.93a52.24,52.24,0,0,0,13.31-8.92h0a52.08,52.08,0,0,0,15.55-26.91c0-.1,0-.19.07-.29a17,17,0,0,0,.34-2.61C1629.41,1234.2,1616,1223.3,1602,1226.57Z"/><g class="cls-22"><path class="cls-5" d="M1550.39,1300.07s-30.29-13.85-11.84-23.13,17.18-16.58,12.32-28,19.48-39.87,48.58-21.73c0,0-24.27-44.45-31-48s-76.58,46.68-75.36,50-9.32,65.93-7.31,66.65,46.78,17.6,46.78,17.6Z"/></g><path class="cls-12" d="M839.32,892.16S865,1045.66,885,1066.64l27.57,4.36-17.86-67.89Q886,970,879.2,936.45L865,866,773.62,722.72,592.47,646.54,505.8,717.66s-19.62,87.11-57.18,139.45L471,866s50.59-82,54.47-136.33l68.61-54.34,155,63.13Z"/><polygon class="cls-12" points="505.8 837.56 505.8 865.98 884.97 1044.13 882.98 1011.94 505.8 837.56"/><path class="cls-17" d="M718.71,829.17c-7.59,7.29-23.22,16.08-48.19,2.15-23.75-13.24-27.83-33.33-27.67-46.14a24.43,24.43,0,0,1,1.47-8.06,24.56,24.56,0,0,0-4.7,14.14c-.15,12.81,2.33,36.14,26.08,49.39,25,13.92,42.2,1.89,49.78-5.4a19.7,19.7,0,0,0,5.09-8.16A20.32,20.32,0,0,1,718.71,829.17Z"/><path class="cls-20" d="M670.52,831.32c25,13.93,40.6,5.14,48.19-2.15a20.32,20.32,0,0,0,1.86-2.08,19.64,19.64,0,0,0,1-6.25c-.09-13.07-5-39.59-41.24-52.51,0,0-12.4-4-24.85.43a23.46,23.46,0,0,0-11.13,8.36,24.43,24.43,0,0,0-1.47,8.06C642.69,798,646.77,818.08,670.52,831.32Z"/></svg>