<svg id="Capa_1" enable-background="new 0 0 512 512" height="512" viewBox="0 0 512 512" width="512" xmlns="http://www.w3.org/2000/svg"><g><path d="m93.511 191.08c2.756-25.85 24.635-45.986 51.216-45.986 4.606 0 9.069.606 13.317 1.742 5.437 1.454 11.186-.33 15.171-4.304 11.177-11.146 26.592-18.041 43.625-18.041 12.096 0 23.377 3.479 32.905 9.486 5.082 3.204 11.523 3.204 16.605 0 5.325-3.358 11.198-5.925 17.454-7.537 4.938-1.272 55.667 16.391 55.667 16.391l7.433 2.668c3.396 1.788 7.347 2.353 11.146 1.337 4.247-1.136 15.513 1.572 15.513 1.572 8.27 2.1 25.806 16.955 28.444 42.928l-146.023 28.047z" fill="#ccf49f"/><path d="m422.611 191.333h-30.905c-1.319-12.991-7.459-24.549-16.607-32.852-5.594-5.079-12.3-8.952-19.718-11.188.896-.062 1.782-.216 2.668-.453 4.244-1.143 8.715-1.741 13.32-1.741 13.341 0 25.487 5.068 34.635 13.382 9.149 8.303 15.289 19.862 16.607 32.852z" fill="#b3e59f"/><path d="m346.903 145.5c-2.112-.268-4.255-.402-6.439-.402-4.605 0-9.076.598-13.32 1.741-5.439 1.453-11.188-.33-15.175-4.306-5.594-5.573-12.239-10.085-19.615-13.197-2.751-1.164-5.604-2.132-8.551-2.895 4.945-1.277 10.116-1.947 15.453-1.947 8.52 0 16.627 1.72 24.003 4.842 7.376 3.111 14.021 7.623 19.615 13.197 1.206 1.196 2.566 2.195 4.029 2.967z" fill="#b3e59f"/><path d="m380.408 399.536 37.301 70.392c3.636 6.861-1.338 15.125-9.103 15.125h-20.171c-7.627 0-14.631-4.214-18.203-10.952l-26.345-49.689 10.859-39.286z" fill="#ffa95f"/><path d="m438.486 485.058h-30.905c7.757 0 12.733-8.272 9.096-15.133l-37.303-70.392-26.702-6.923 2.071-7.479 55.537 14.402 37.303 70.392c3.636 6.861-1.34 15.133-9.097 15.133z" fill="#f7964d"/><path d="m101.717 399.536-37.301 70.392c-3.636 6.861 1.338 15.125 9.103 15.125h50.046c7.627 0 14.631-4.214 18.203-10.952l26.345-49.689-15.098-41.309z" fill="#ffa95f"/><path d="m496.547 295.501h-44.816l-10.302-30.905h55.118c8.534 0 15.453 6.918 15.453 15.453 0 8.533-6.918 15.452-15.453 15.452z" fill="#5d5360"/><path d="m15.453 295.501h44.816l10.302-30.905h-55.118c-8.535-.001-15.453 6.918-15.453 15.452 0 8.534 6.918 15.453 15.453 15.453z" fill="#5d5360"/><path d="m313.69 425.303h-140.104c-62.585 0-113.32-50.735-113.32-113.32v-98.897h366.744v98.897c0 62.585-50.735 113.32-113.32 113.32z" fill="#6f6571"/><path d="m451.734 233.694v78.294c0 62.583-50.736 113.32-113.32 113.32h-30.905c62.583 0 113.32-50.736 113.32-113.32v-88.596z" fill="#5d5360"/><path d="m431.439 280.048-10.608 2.186-3.649-2.696c-2.751-2.04-6.439-2.04-9.189-.01l-20.768 15.36c-8.241 6.099-19.326 6.099-27.568 0l-20.768-15.36c-2.751-2.029-6.439-2.029-9.189 0l-20.768 15.36c-8.241 6.099-19.326 6.099-27.568 0l-20.768-15.36c-2.751-2.029-6.439-2.029-9.189 0l-20.768 15.36c-8.241 6.099-19.326 6.099-27.568 0l-20.768-15.36c-2.751-2.029-6.439-2.029-9.189 0l-20.768 15.36c-8.241 6.099-19.326 6.099-27.568 0l-20.768-15.36c-2.751-2.029-6.439-2.029-9.189 0l-34.555 25.692v-19.264l25.353-18.842c8.262-6.099 19.337-6.099 27.578-.01l20.768 15.36c2.751 2.029 6.439 2.04 9.189 0l20.768-15.36c8.252-6.088 19.326-6.088 27.568 0l20.768 15.36c2.751 2.029 6.439 2.04 9.189 0l20.768-15.36c8.252-6.088 19.326-6.088 27.568 0l20.768 15.36c2.751 2.029 6.439 2.04 9.189 0l20.768-15.36c8.252-6.088 19.326-6.088 27.568 0l20.768 15.36c2.751 2.029 6.439 2.04 9.189 0l20.768-15.36c6.511-4.804 14.779-5.817 22.026-3.041 1.938.743 3.803 1.756 5.542 3.041z" fill="#5d5360"/><path d="m451.734 285.842v19.223l-30.905-22.829v-18.172c1.937.742 3.801 1.751 5.542 3.039z" fill="#514a54"/><path d="m429.586 233.69h-374.986c-8.534 0-15.453-6.918-15.453-15.453v-15.453c0-8.534 6.918-15.453 15.453-15.453h374.986c8.534 0 15.453 6.918 15.453 15.453v15.453c-.001 8.534-6.919 15.453-15.453 15.453z" fill="#5d5360"/><path d="m472.853 202.789v15.453c0 8.53-6.923 15.453-15.453 15.453h-30.905c8.53 0 15.453-6.923 15.453-15.453v-15.453c0-8.54-6.923-15.453-15.453-15.453h30.905c8.53 0 15.453 6.913 15.453 15.453z" fill="#514a54"/><path d="m249.773 485.054h-17.422c-13.052 0-22.815-11.981-20.179-24.764l9.777-47.417c2.218-10.756 9.264-19.488 18.594-24.124 4.684-2.327 16.302 7.969 19.633 24.124l9.777 47.417c2.635 12.783-7.128 24.764-20.18 24.764z" fill="#ffc269"/><path d="m279.653 485.058h-30.905c13.052 0 22.808-11.981 20.171-24.766l-9.776-47.419c-1.659-8.077-6.047-15.01-12.084-19.924-1.999-1.628-4.183-3.039-6.511-4.193 4.687-2.328 9.941-3.626 15.453-3.626 8.241 0 15.927 2.895 21.964 7.819 6.037 4.914 10.425 11.847 12.084 19.924l9.776 47.419c2.636 12.785-7.12 24.766-20.172 24.766z" fill="#ffa95f"/><path d="m125.161 52.583.283 2.573c1.585 14.389 12.946 25.75 27.335 27.335l2.573.283c1.223.135 1.223 1.913 0 2.048l-2.573.283c-14.389 1.585-25.75 12.946-27.335 27.335l-.283 2.573c-.135 1.223-1.913 1.223-2.048 0l-.283-2.573c-1.585-14.389-12.946-25.75-27.335-27.335l-2.573-.283c-1.223-.135-1.223-1.913 0-2.048l2.573-.283c14.389-1.585 25.75-12.946 27.335-27.335l.283-2.573c.135-1.223 1.913-1.223 2.048 0z" fill="#ffe07d"/><path d="m254.96 27.859-.283 2.573c-1.585 14.389-12.946 25.75-27.335 27.335l-2.573.283c-1.223.135-1.223 1.913 0 2.048l2.573.283c14.389 1.585 25.75 12.946 27.335 27.335l.283 2.573c.135 1.223 1.913 1.223 2.048 0l.283-2.573c1.585-14.389 12.946-25.75 27.335-27.335l2.573-.283c1.223-.135 1.223-1.913 0-2.048l-2.573-.283c-14.389-1.585-25.75-12.946-27.335-27.335l-.283-2.573c-.135-1.223-1.914-1.223-2.048 0z" fill="#c3aff0"/><path d="m388.887 52.583.283 2.573c1.585 14.389 12.946 25.75 27.335 27.335l2.573.283c1.223.135 1.223 1.913 0 2.048l-2.573.283c-14.389 1.585-25.75 12.946-27.335 27.335l-.283 2.573c-.135 1.223-1.913 1.223-2.048 0l-.283-2.573c-1.585-14.389-12.946-25.75-27.335-27.335l-2.573-.283c-1.223-.135-1.223-1.913 0-2.048l2.573-.283c14.389-1.585 25.75-12.946 27.335-27.335l.283-2.573c.135-1.223 1.913-1.223 2.048 0z" fill="#ffe07d"/></g></svg>