<svg height="512" viewBox="0 0 40 58" width="512" xmlns="http://www.w3.org/2000/svg"><g id="025---Potion-Element" fill="none" transform="translate(-1)"><path id="Path" d="m18 0h6c1.1045695 0 2 .8954305 2 2v6h-10v-6c0-1.1045695.8954305-2 2-2z" fill="#82624b"/><path id="Path" d="m41 38c.0020955 5.4923929-2.2555312 10.7437428-6.2427985 14.5210544-3.9872674 3.7773117-9.3529478 5.7478518-14.8372015 5.4489456-9.95-.52-18.72-9.61-18.92-19.57-.18067479-8.8829425 5.52300342-16.8192033 14-19.48v-8.92h12v8.92c8.3356132 2.616047 14.0056654 10.343518 14 19.08z" fill="#d8dde5"/><rect id="Rectangle" fill="#bbc1ce" height="4" rx="2" width="18" x="12" y="7"/><path id="Path" d="m37 38c-.0007357 6.802914-4.3031423 12.8615181-10.7258293 15.1040012-6.422687 2.242483-13.5611149.1784496-17.7959841-5.1456017-4.23486919-5.3240512-4.64008107-12.7438349-1.0101866-18.4973995.56801026-.8894253 1.72934488-1.1844647 2.653-.674 1.1360127.7966277 2.4915259 1.2205095 3.879 1.213 3.51 0 3.51-2 7.01-2s3.5 2 7 2c1.383953.0067474 2.7357344-.4171696 3.868-1.213.9234035-.5106509 2.0846699-.2160665 2.653.673 1.6176766 2.5542666 2.4741083 5.5165699 2.469 8.54z" fill="#21b8ea"/><g fill="#00a5dc"><circle id="Oval" cx="19" cy="37" r="3"/><circle id="Oval" cx="24" cy="46" r="2"/><circle id="Oval" cx="29" cy="39" r="2"/></g><path id="Path" d="m18.94 17.05c.0775603.5433631-.2973364 1.0476883-.84 1.13-1.0520858.1601738-2.0890033.407696-3.1.74v-2.09c.9165486-.2762697 1.8524989-.4835158 2.8-.62.262941-.0423766.5318778.0227582.7462915.1807472.2144137.1579891.3562922.3955602.3937085.6592528z" fill="#bbc1ce"/><path id="Path" d="m27 16.83v2.09c-1.0109967-.332304-2.0479142-.5798262-3.1-.74-.3768691-.0248058-.7076108-.2598237-.8550155-.6075556s-.0863213-.7488458.1579093-1.0369378c.2442307-.288092.6299367-.4140062.9971062-.3255066.9475011.1364842 1.8834514.3437303 2.8.62z" fill="#bbc1ce"/><path id="Path" d="m11.25 46c-.3216584.0003108-.6238299-.1541241-.812-.415-2.66821922-3.7158702-3.18878492-8.5600549-1.371-12.758.22091391-.5064451.81055488-.7379139 1.317-.517.5064451.2209139.7379139.8105549.517 1.317-.7860436 1.8089343-1.06867152 3.7966586-.818 5.753.2223869 1.8188769.9026072 3.551598 1.977 5.036.2189327.3043128.2492716.7055155.078591 1.0392909-.1706806.3337753-.5137078.5440521-.888591.5447091z" fill="#41cef3"/><path id="Path" d="m14.359 49c-.1976355-.0002517-.3907649-.0590605-.555-.169-.132-.088-.264-.179-.392-.272-.2890279-.2100722-.4440285-.5583814-.4066146-.913723.0374139-.3553415.2615582-.6637306.588-.809s.7055867-.1053492.9946146.104723c.108.079.219.154.329.228.3661708.2451138.5287486.7010171.4002961 1.1225165-.1284526.4214994-.5176588.7092457-.9582961.7084835z" fill="#41cef3"/></g></svg>