<svg id="Layer_1" enable-background="new 0 0 512 512" height="512" viewBox="0 0 512 512" width="512" xmlns="http://www.w3.org/2000/svg"><g><path d="m401.889 347.784v-35.607c0-2.746-2.229-4.972-4.978-4.972h-234.085c-5.226 0-9.462-4.232-9.462-9.452v-83.507c0-5.22 4.236-9.452 9.462-9.452h234.086c2.749 0 4.978-2.226 4.978-4.972v-35.607c0-4.365 5.175-6.668 8.424-3.75l98.568 88.544c4.158 3.735 4.158 10.246 0 13.98l-98.568 88.544c-3.25 2.92-8.425.616-8.425-3.749z" fill="#fe5694"/><path d="m508.882 249.01-98.568-88.544c-3.249-2.919-8.424-.615-8.424 3.75v16.445l76.087 68.349c4.158 3.735 4.158 10.245 0 13.98l-76.087 68.349v16.445c0 4.365 5.175 6.668 8.424 3.75l98.568-88.544c4.157-3.735 4.157-10.245 0-13.98z" fill="#e03d9c"/><path d="m363.137 508.452v-25c0-1.928-1.567-3.491-3.501-3.491h-176.13c-3.675 0-6.655-2.971-6.655-6.636v-58.633c0-3.665 2.979-6.636 6.655-6.636h176.13c1.934 0 3.501-1.563 3.501-3.491v-25c0-3.065 3.639-4.682 5.925-2.633l69.323 62.169c2.924 2.622 2.924 7.194 0 9.816l-69.323 62.169c-2.286 2.048-5.925.431-5.925-2.634z" fill="#6bd9e7"/><path d="m438.384 439.1-69.323-62.169c-2.285-2.049-5.925-.432-5.925 2.633v19.77l44.342 39.766c2.924 2.622 2.924 7.194 0 9.816l-44.342 39.766v19.77c0 3.065 3.639 4.682 5.925 2.633l69.323-62.169c2.924-2.622 2.924-7.194 0-9.816z" fill="#2abcc8"/><path d="m363.137 132.436v-25c0-1.928-1.567-3.491-3.501-3.491h-176.13c-3.675 0-6.655-2.971-6.655-6.636v-58.633c0-3.665 2.979-6.636 6.655-6.636h176.13c1.934 0 3.501-1.563 3.501-3.491v-25c0-3.065 3.639-4.682 5.925-2.633l69.323 62.169c2.924 2.622 2.924 7.194 0 9.816l-69.323 62.169c-2.286 2.048-5.925.431-5.925-2.634z" fill="#6c7fd8"/><path d="m438.384 63.084-69.322-62.169c-2.285-2.049-5.925-.432-5.925 2.633v19.77l44.342 39.766c2.924 2.622 2.924 7.194 0 9.816l-44.342 39.766v19.77c0 3.065 3.639 4.682 5.925 2.633l69.322-62.169c2.924-2.622 2.924-7.194 0-9.816z" fill="#4f66d0"/><g fill="#62dbfb"><path d="m31.854 56.106h109c4.143 0 7.5-3.358 7.5-7.5s-3.357-7.5-7.5-7.5h-109c-4.143 0-7.5 3.358-7.5 7.5s3.358 7.5 7.5 7.5z"/><path d="m140.854 87.698h-109c-4.143 0-7.5 3.358-7.5 7.5s3.357 7.5 7.5 7.5h109c4.143 0 7.5-3.358 7.5-7.5s-3.357-7.5-7.5-7.5z"/><path d="m140.854 409.302h-109c-4.143 0-7.5 3.358-7.5 7.5s3.357 7.5 7.5 7.5h109c4.143 0 7.5-3.358 7.5-7.5s-3.357-7.5-7.5-7.5z"/><path d="m140.854 455.894h-109c-4.143 0-7.5 3.358-7.5 7.5s3.357 7.5 7.5 7.5h109c4.143 0 7.5-3.358 7.5-7.5s-3.357-7.5-7.5-7.5z"/><path d="m7.5 240.204h109c4.143 0 7.5-3.358 7.5-7.5s-3.357-7.5-7.5-7.5h-109c-4.143 0-7.5 3.358-7.5 7.5s3.357 7.5 7.5 7.5z"/><path d="m124 279.296c0-4.142-3.357-7.5-7.5-7.5h-109c-4.143 0-7.5 3.358-7.5 7.5s3.357 7.5 7.5 7.5h109c4.143 0 7.5-3.358 7.5-7.5z"/></g></g></svg>