<svg id="Layer_1" height="512" viewBox="0 0 256 256" width="512" xmlns="http://www.w3.org/2000/svg"><g><g><circle cx="128" cy="128" fill="#b7022d" r="105.195"/></g><g><path d="m30.58 111.25c-.12 0-.25-.01-.37-.04-.53-.101-.98-.4-1.28-.84s-.41-.98-.31-1.5c.2-1.07 1.27-1.79 2.34-1.591.52.101.98.4 1.28.841.3.449.41.979.31 1.5-.18.94-1.01 1.63-1.97 1.63zm1.83-7.79c-.18 0-.36-.021-.53-.07-1.07-.3-1.69-1.399-1.4-2.46 2.93-10.55 7.55-20.5 13.72-29.6 6.07-8.96 13.5-16.86 22.08-23.48 8.67-6.68 18.28-11.89 28.56-15.47 10.65-3.7 21.8-5.57 33.16-5.58 8.33 0 16.62 1.02 24.63 3.04 7.78 1.95 15.33 4.84 22.45 8.6.97.511 1.34 1.721.83 2.7-.5.94-1.75 1.33-2.7.83-13.85-7.3-29.48-11.17-45.21-11.17h-.01c-43.49 0-82 29.28-93.65 71.2-.24.859-1.03 1.46-1.93 1.46z" fill="#d10028"/></g><g><g><g><path d="m168.996 127.789c-1.336-1.192-3.511-.814-4.377.75-4.902 8.326-13.681 17.676-25.75 21.387 10.657-13.592 13.303-32.935 5.677-48.578-6.43-13.172-18.599-22.427-31.009-29.613-4.758-2.818-10.834 1.804-9.38 7.141 4.766 17.54-.252 37.144-15.527 47.845-37.947 33.622-24.666 80.958 6.523 101.244 10.335 3.394 21.377 5.23 32.847 5.23 11.649 0 22.855-1.894 33.329-5.39 2.138-1.316 4.272-2.771 6.396-4.373 29.947-23.998 30.496-70.85 1.271-95.643z" fill="#e63950"/></g><g><path d="m164.869 137.443c.952-3.309 1.374-6.744 1.311-10.185 0-.004 0-.008 0-.013-.64.218-1.209.658-1.561 1.294-4.902 8.326-13.681 17.676-25.75 21.387.008-.011.017-.021.025-.032-.018.011-.037.021-.055.032-.717 1.003-10.535 15.028-14.845 21.176-.478.675-.319 1.609.356 2.087 8.917-.163 31.531-9.355 40.519-35.746z" fill="#d10028"/></g><g><path d="m182.372 206.022c-1.859.699-2.737 2.215-4.416 3.802-3.798 3.571-8.441 6.119-13.493 7.404-13.909 3.765-29.57-3.249-35.601-16.426-.628-1.335-2.756-.92-2.847.545-1.137 10.144 2.745 20.205 10.402 26.955 1.118.928.187 2.875-1.24 2.584-29.78-4.763-45.636-40.456-29.461-65.802.807-1.201-.639-2.804-1.92-2.132-19.247 9.082-28.393 31.451-23.488 51.731-.001.003-.001.006-.002.009 4.246 5.135 9.259 9.637 14.846 13.271 10.335 3.394 21.376 5.23 32.847 5.23 11.649 0 22.855-1.894 33.329-5.39 2.138-1.316 4.271-2.771 6.396-4.373 6.137-4.917 11.038-10.795 14.703-17.245-.006-.006-.011-.012-.016-.018-.014-.047-.024-.095-.039-.145z" fill="#b7022d"/></g><g><path d="m106.393 72.344c-1.857 1.481-2.948 3.921-2.236 6.532 4.766 17.54-.252 37.144-15.527 47.845-14.496 12.844-21.517 27.69-22.919 42.264 8.032-11.799 19.591-20.574 31.197-28.155 22.496-16.342 27.973-47.087 9.486-68.476 0-.003-.001-.006-.001-.01z" fill="#d10028"/></g></g></g><g><g><g><g><path d="m233.174 130.146c-6.687-8.305-15.718-14.739-24.881-20.045-4.758-2.818-10.834 1.805-9.38 7.142 4.766 17.54-.252 37.144-15.527 47.845-21.338 18.906-26.478 42.147-21.345 62.478 40.749-13.929 70.227-52.17 71.133-97.42z" fill="#e63950"/></g><g><path d="m201.149 110.71c-1.857 1.481-2.948 3.921-2.236 6.532 4.766 17.54-.252 37.144-15.527 47.845-14.496 12.844-21.517 27.69-22.919 42.264 8.032-11.799 19.591-20.574 31.197-28.155 22.496-16.342 27.973-47.087 9.486-68.476 0-.003-.001-.006-.001-.01z" fill="#d10028"/></g></g></g><g><g><g><path d="m72.614 165.087c-15.275-10.701-20.292-30.305-15.527-47.845 1.454-5.337-4.622-9.959-9.38-7.142-9.163 5.306-18.194 11.74-24.881 20.045.905 45.251 30.384 83.491 71.133 97.419 5.133-20.33-.007-43.571-21.345-62.477z" fill="#e63950"/></g><g><path d="m54.851 110.71c1.857 1.481 2.948 3.921 2.236 6.532-4.766 17.54.252 37.144 15.527 47.845 14.496 12.844 21.517 27.69 22.919 42.264-8.032-11.799-19.591-20.574-31.197-28.155-22.496-16.342-27.973-47.087-9.486-68.476 0-.003.001-.006.001-.01z" fill="#d10028"/></g></g></g></g><g><path d="m128 48.783c-31.137 0-56.38 25.242-56.38 56.379 0 21.005 11.489 39.325 28.524 49.026v18.037c0 4.78 3.875 8.654 8.655 8.654h.983c1.195 0 2.163-.969 2.163-2.164v-19.783c0-2.875 2.331-5.206 5.206-5.206s5.206 2.331 5.206 5.206v19.783c0 1.195.969 2.164 2.163 2.164h5.95c1.194 0 2.163-.969 2.163-2.164v-19.783c0-2.875 2.331-5.206 5.206-5.206s5.206 2.331 5.206 5.206v19.783c0 1.195.969 2.164 2.163 2.164h1.992c4.779 0 8.654-3.875 8.654-8.654v-18.037c17.035-9.701 28.524-28.021 28.524-49.027.002-31.136-25.241-56.378-56.378-56.378zm-23.283 69.458c-10.219 0-18.504-8.284-18.504-18.504 0-10.219 8.285-18.504 18.504-18.504s18.504 8.284 18.504 18.504-8.284 18.504-18.504 18.504zm28.044 19.257h-9.523c-1.872 0-3.089-1.969-2.252-3.644l4.761-9.522c.928-1.856 3.576-1.856 4.504 0l4.761 9.522c.838 1.675-.379 3.644-2.251 3.644zm18.729-19.257c-10.219 0-18.504-8.284-18.504-18.504s8.285-18.504 18.504-18.504 18.504 8.284 18.504 18.504-8.285 18.504-18.504 18.504z" fill="#fff"/></g><g><g><path d="m162.554 60.61c7.412 9.543 11.826 21.533 11.826 34.552 0 21.005-11.489 39.326-28.524 49.026v18.037c0 2.526-1.083 4.8-2.809 6.382v10.109c0 1.195.969 2.164 2.163 2.164h1.992c4.779 0 8.654-3.875 8.654-8.655v-18.037c17.035-9.7 28.524-28.021 28.524-49.026 0-18.117-8.546-34.238-21.826-44.552z" fill="#e6e7e8"/></g></g><g><g><path d="m165.289 62.875c8.77 9.938 14.091 22.991 14.091 37.287 0 21.005-11.489 39.326-28.524 49.026v18.037c0 4.495-3.427 8.188-7.809 8.613v2.878c0 1.195.969 2.164 2.163 2.164h1.992c4.779 0 8.654-3.875 8.654-8.655v-18.037c17.035-9.7 28.524-28.021 28.524-49.026 0-16.841-7.384-31.956-19.091-42.287z" fill="#d1d3d4"/></g></g></g></svg>