<svg xmlns="http://www.w3.org/2000/svg" viewBox="0 0 512 512" width="512" height="512">
	<style>
		tspan { white-space:pre }
		.shp0 { fill: #b56d3c;stroke: #ff0000;paint-order:stroke fill markers;stroke-width: 74 } 
		.shp1 { fill: #8d5c4d } 
	</style>
	<g id="Layer">
		<path id="Layer" class="shp0" d="M384.83 140.81L294.81 140.81L294.81 50.8C294.81 43.73 289.08 38 282.02 38L230.61 38C223.54 38 217.81 43.73 217.81 50.8L217.81 140.81L127.8 140.81C120.73 140.81 115 146.54 115 153.61L115 205.02C115 212.08 120.73 217.81 127.8 217.81L217.81 217.81L217.81 462.04C217.81 469.11 223.54 474.84 230.61 474.84L282.02 474.84C289.08 474.84 294.81 469.11 294.81 462.04L294.81 217.81L384.83 217.81C391.89 217.81 397.63 212.08 397.63 205.02L397.63 153.61C397.63 146.54 391.89 140.81 384.83 140.81Z" />
		<path id="Layer" class="shp1" d="M384.83 140.81L294.81 140.81L294.81 50.8C294.81 43.73 289.08 38 282.02 38L256.31 38L256.31 474.84L282.02 474.84C289.08 474.84 294.81 469.11 294.81 462.04L294.81 217.81L384.83 217.81C391.89 217.81 397.63 212.08 397.63 205.02L397.63 153.61C397.63 146.54 391.89 140.81 384.83 140.81Z" />
	</g>
</svg>