<svg id="Capa_1" enable-background="new 0 0 512 512" height="512" viewBox="0 0 512 512" width="512" xmlns="http://www.w3.org/2000/svg"><g><g><path d="m418.084 354.77-141.054 148.213c-11.443 12.023-30.618 12.023-42.061 0l-141.053-148.213c-2.96-3.11-4.61-7.239-4.61-11.532v-260.524c0-6.633 3.919-12.64 9.991-15.311l149.966-65.986c4.293-1.889 9.181-1.889 13.474 0l149.967 65.986c6.071 2.671 9.991 8.678 9.991 15.311v260.524c-.001 4.293-1.651 8.422-4.611 11.532z" fill="#457899"/><path d="m412.704 67.402-149.967-65.986c-2.146-.944-4.442-1.416-6.737-1.416v512c7.655 0 15.309-3.006 21.03-9.018l141.054-148.212c2.96-3.11 4.61-7.239 4.61-11.532v-260.524c0-6.633-3.919-12.64-9.99-15.312z" fill="#2b495d"/></g><g><g><path d="m153.07 113.406v136.945l50.109 10 52.821-10 10-81.183-10-101.051z" fill="#fbf4f4"/><path d="m256 250.351 48.921 10 54.009-10v-136.945l-102.93-45.289z" fill="#d9225b"/></g><g><path d="m153.07 324.433v-74.082h102.93l10 73.572-10 108.663z" fill="#de5958"/><path d="m256 250.351v182.235l102.93-108.153v-74.082z" fill="#e2e9ee"/></g></g></g></svg>