<?xml version="1.0" encoding="utf-8"?>
<!-- Generator: Adobe Illustrator 26.0.1, SVG Export Plug-In . SVG Version: 6.00 Build 0)  -->
<svg version="1.1" id="Layer_1" xmlns="http://www.w3.org/2000/svg" xmlns:xlink="http://www.w3.org/1999/xlink" x="0px" y="0px"
	 viewBox="0 0 2000 2000" style="enable-background:new 0 0 2000 2000;" xml:space="preserve">
<style type="text/css">
	.st0{fill:#AED76A;}
	.st1{clip-path:url(#SVGID_00000007408048444726563200000008786635117448534447_);fill:#FECFAE;}
	.st2{fill:#AAA49B;}
	.st3{fill:#8F65AC;}
	.st4{fill:#E8E3DD;}
	.st5{fill:#60262E;}
	.st6{fill:#BAB6AF;}
	.st7{clip-path:url(#SVGID_00000038379857026923915890000001708669440908170892_);fill:#FECFAE;}
	.st8{fill:#E5BF9C;}
	.st9{fill:#A08470;}
	.st10{fill:#3F2957;}
	.st11{fill:#AFD86A;}
	.st12{clip-path:url(#SVGID_00000011737477621573260590000004678387863411291031_);fill:#FECFAE;}
	.st13{clip-path:url(#SVGID_00000017489986648417098740000009741269538212467085_);fill:#FECFAE;}
	.st14{fill:#877874;}
	.st15{fill:#967266;}
	.st16{fill:#4C3B36;}
	.st17{fill:#725B51;}
	.st18{fill:#DDCBB8;}
	.st19{fill:#441C0C;}
	.st20{fill:#592710;}
	.st21{fill:#724E44;}
	.st22{clip-path:url(#SVGID_00000130617258923430638090000018348565059946161310_);fill:#FECFAE;}
	.st23{fill:#77A22F;}
	.st24{fill:#AA9983;}
	.st25{fill:#EAC794;}
	.st26{fill:#936B3E;}
	.st27{fill:#E0D1B7;}
	.st28{fill:#BF9D71;}
	.st29{fill:#4C94BF;}
	.st30{fill:#FFFFFF;}
	.st31{fill:#7B625C;}
	.st32{fill:#392516;}
	.st33{fill:#551C3B;}
	.st34{fill:#A28A84;}
	.st35{fill:#B48F6C;}
	.st36{fill:#FECFAE;}
	.st37{fill:#402F21;}
	.st38{fill:#381126;}
	.st39{fill:#7A6047;}
	.st40{fill:#6B6969;}
	.st41{fill:#4F3F2F;}
	.st42{fill:#787676;}
	.st43{fill:#908D8E;}
	.st44{fill:#6E899F;}
	.st45{fill:#FDCFAC;}
	.st46{fill:#62534C;}
	.st47{fill:#554A44;}
	.st48{fill:#3D5669;}
	.st49{fill:#293035;}
	.st50{fill:#78685E;}
	.st51{fill:#8F8D8E;}
	.st52{fill:#38444D;}
	.st53{fill:#797677;}
	.st54{fill:#CAB399;}
	.st55{fill:#A5917A;}
	.st56{fill:#8BBC38;}
	.st57{fill:#AA4226;}
	.st58{fill:#312419;}
	.st59{fill:#443428;}
	.st60{fill:#846A55;}
	.st61{fill:none;}
	.st62{fill:#634C3B;}
	.st63{clip-path:url(#SVGID_00000039834989665746992080000001716365469597745311_);}
	.st64{fill:#D6BA9D;}
	.st65{fill:#1E1713;}
	.st66{fill:#B99971;}
	.st67{fill:#8C6D51;}
	.st68{fill:#9E7E5C;}
	.st69{clip-path:url(#SVGID_00000055673871564912288120000001988810543960858753_);}
	.st70{fill:#352820;}
	.st71{fill:#665140;}
	.st72{clip-path:url(#SVGID_00000029724699244540774440000005543204139989880980_);}
	.st73{clip-path:url(#SVGID_00000072275587142457332850000004909446542418570430_);}
	.st74{clip-path:url(#SVGID_00000161606654717602746350000007373024056393025689_);}
	.st75{clip-path:url(#SVGID_00000052800761314027770080000006160178155415427714_);}
	.st76{fill:#8ABD32;}
	.st77{clip-path:url(#SVGID_00000070834810575248440020000009565108414435382184_);}
	.st78{fill:#993A23;}
	.st79{clip-path:url(#SVGID_00000076600654416183444080000008663900073953515662_);fill:#993A23;}
	.st80{fill:#7A291B;}
	.st81{clip-path:url(#SVGID_00000023258514168449731210000005086932657446196898_);fill:#993A23;}
	.st82{fill:#BC4D3B;}
	.st83{fill:#846F5A;}
	.st84{fill:#AD957D;}
	.st85{fill:#D8C9BA;}
	.st86{fill:#C4B19F;}
	.st87{fill:#705E4D;}
	.st88{clip-path:url(#SVGID_00000055676065843562468700000005419155709694017409_);fill:#998776;}
	.st89{fill:#604F40;}
	.st90{fill:#A39386;}
	.st91{clip-path:url(#SVGID_00000017474736350333677250000011986739445107379890_);fill:#998776;}
	.st92{clip-path:url(#SVGID_00000047043518747524269770000003443084634654041473_);fill:#998776;}
	.st93{clip-path:url(#SVGID_00000182522211092027624420000008854258027606561213_);fill:#846F5A;}
	.st94{clip-path:url(#SVGID_00000182522211092027624420000008854258027606561213_);fill:#998776;}
	.st95{fill:#E5D6C7;}
	.st96{fill:#937D69;}
	.st97{fill:#3C3229;}
	.st98{fill:#71BBD8;}
	.st99{fill:#EC7D51;}
	.st100{fill:url(#SVGID_00000150786013984513588260000008995404363891966613_);}
	.st101{opacity:0.65;fill:url(#SVGID_00000113332604374095882830000006398638749016275591_);}
	.st102{opacity:0.65;fill:url(#SVGID_00000093157881179425656320000010584077399110028451_);}
	.st103{clip-path:url(#SVGID_00000067196258184922623440000014446396223071232644_);fill:#998776;}
	.st104{clip-path:url(#SVGID_00000171682899129794917550000008167088068689819027_);fill:#998776;}
	.st105{clip-path:url(#SVGID_00000041293314341015421000000014725861075001723822_);fill:#846F5A;}
	.st106{clip-path:url(#SVGID_00000041293314341015421000000014725861075001723822_);fill:#998776;}
	.st107{fill:#A08975;}
	.st108{clip-path:url(#SVGID_00000001658814804619187020000001002197974628998311_);}
	.st109{fill:url(#SVGID_00000080905220591182791360000011483386905324162213_);}
	.st110{opacity:0.65;fill:url(#SVGID_00000053507980224570010600000004506516068259821455_);}
	.st111{fill:#998776;}
	.st112{fill:#C1AE9F;}
	.st113{clip-path:url(#SVGID_00000089548937750561724250000015441518400265859752_);fill:#846F5A;}
	.st114{clip-path:url(#SVGID_00000089548937750561724250000015441518400265859752_);fill:#998776;}
	.st115{clip-path:url(#SVGID_00000165212327942630473650000006504884987761916075_);}
	.st116{fill:#515151;}
	.st117{fill:#7A7A7A;}
	.st118{fill:#8C8C8C;}
	.st119{fill:#F5E3BA;}
	.st120{fill:#593263;}
	.st121{opacity:0.4;fill:#BB986F;}
	.st122{fill:#A5A5A5;}
	.st123{fill:#BB986F;}
	.st124{fill:#A883C6;}
	.st125{fill:#2E1849;}
	.st126{fill:#6B6B6B;}
	.st127{fill:#724382;}
	.st128{clip-path:url(#SVGID_00000163786937296064791270000009717118949007008955_);fill:#8ABD32;}
	.st129{clip-path:url(#SVGID_00000015344068278452806100000010623864248839495056_);}
	.st130{fill:#70442C;}
	.st131{opacity:0.2;clip-path:url(#SVGID_00000036945254313194358800000009458847627250186895_);fill:#70442C;}
	.st132{fill:#A36B4B;}
	.st133{fill:#875536;}
	.st134{fill:#D5AF73;}
	.st135{opacity:0.2;clip-path:url(#SVGID_00000011710093799090761530000000219801788838129820_);fill:#70442C;}
	.st136{opacity:0.2;clip-path:url(#SVGID_00000106860865326932395340000000849992547197598384_);fill:#70442C;}
	.st137{opacity:0.4;clip-path:url(#SVGID_00000101793152578554214870000013832625882261345958_);fill:#70442C;}
	.st138{opacity:0.2;clip-path:url(#SVGID_00000101793152578554214870000013832625882261345958_);fill:#70442C;}
	.st139{clip-path:url(#SVGID_00000004526286299399572130000007647220602412961709_);fill:#FECFAE;}
	.st140{fill:#9B8572;}
	.st141{fill:#4F2C2A;}
	.st142{fill:#934D3D;}
	.st143{clip-path:url(#SVGID_00000078012297127295377000000010823814358463632788_);fill:#70442C;}
	.st144{fill:#BF975D;}
	.st145{fill:#A57341;}
	.st146{clip-path:url(#SVGID_00000128456362275255468230000015451952274985858182_);fill:#70442C;}
	.st147{clip-path:url(#SVGID_00000034073213405648678500000010023378840057866133_);fill:#70442C;}
	.st148{fill:#4A1F19;}
	.st149{clip-path:url(#SVGID_00000134239725717303600860000001648673678134772157_);fill:#A37A79;}
	.st150{fill:#D19857;}
	.st151{fill:#D6B58E;}
	.st152{fill:#AF8956;}
	.st153{clip-path:url(#SVGID_00000075134081567202229780000014399248132755195296_);fill:#FECFAE;}
	.st154{fill:#93643A;}
	.st155{clip-path:url(#SVGID_00000103249056735471977530000009829569123952194211_);fill:#70442C;}
	.st156{clip-path:url(#SVGID_00000150098991286706452990000013679635022003860866_);fill:#70442C;}
	.st157{clip-path:url(#SVGID_00000044175890028318770550000008462117543174818434_);fill:#70442C;}
	.st158{clip-path:url(#SVGID_00000017486772011425728190000003418664733883968140_);fill:#70442C;}
	.st159{clip-path:url(#SVGID_00000016766051192364237920000003881605775153766565_);fill:#70442C;}
	.st160{clip-path:url(#SVGID_00000159458359525097659590000012338403506449365183_);fill:#70442C;}
	.st161{clip-path:url(#SVGID_00000065757190764134858750000012018935690795431354_);fill:#70442C;}
	.st162{clip-path:url(#SVGID_00000054230486843654648290000017621511980070766517_);fill:#70442C;}
	.st163{clip-path:url(#SVGID_00000133499884910945621180000017126001281248792965_);fill:#70442C;}
	.st164{clip-path:url(#SVGID_00000104664666703437205060000010413453795139426223_);fill:#70442C;}
	.st165{clip-path:url(#SVGID_00000001624893559413516670000002183838623092634533_);fill:#70442C;}
	.st166{clip-path:url(#SVGID_00000057149651568301648550000005103029518426019202_);fill:#70442C;}
	.st167{clip-path:url(#SVGID_00000093136787620425887780000017810536411486074771_);fill:#A37A79;}
	.st168{clip-path:url(#SVGID_00000077289179607991506180000018144367627631768230_);fill:#FECFAE;}
	.st169{clip-path:url(#SVGID_00000059296647195690952160000001480174981105641603_);fill:#70442C;}
	.st170{clip-path:url(#SVGID_00000178925391236274195830000016992922863686755738_);fill:#70442C;}
	.st171{clip-path:url(#SVGID_00000162334211119601586010000008713642498713557904_);fill:#70442C;}
	.st172{fill:#877366;}
	.st173{clip-path:url(#SVGID_00000009553262857848881870000014619242875959507381_);fill:#FECFAE;}
	.st174{fill:#4E8BC1;}
	.st175{fill:#F9EBE8;}
	.st176{fill:#C9B3AD;}
	.st177{fill:#EAD2CC;}
	.st178{fill:#387BAD;}
	.st179{clip-path:url(#SVGID_00000057143201426405879900000003244625065135420049_);fill:#8ABD32;}
	.st180{clip-path:url(#SVGID_00000013174065266405675440000006105705830926306946_);fill:#8ABD32;}
	.st181{clip-path:url(#SVGID_00000169547732184547716010000011582737379352276117_);fill:#8ABD32;}
	.st182{clip-path:url(#SVGID_00000151505000968771303530000004974707460977477028_);fill:#8ABD32;}
	.st183{clip-path:url(#SVGID_00000049910931198127288420000005482846667764608958_);fill:#8ABD32;}
	.st184{clip-path:url(#SVGID_00000065781228676896006360000005744581516693728652_);fill:#FECFAE;}
	.st185{clip-path:url(#SVGID_00000024000428248507226080000001639017620358858398_);fill:#8ABD32;}
	.st186{fill:#5597C9;}
	.st187{fill:#1572A0;}
	.st188{fill:#D6C5C1;}
	.st189{clip-path:url(#SVGID_00000178915224929098343260000007725670686298712704_);fill:#8ABD32;}
	.st190{fill:#61A6D1;}
	.st191{fill:#B2A19D;}
	.st192{clip-path:url(#SVGID_00000044878826780769856110000011366983730647410840_);fill:#8ABD32;}
	.st193{clip-path:url(#SVGID_00000015355188946213715450000016227136282594440336_);fill:#FECFAE;}
	.st194{clip-path:url(#SVGID_00000153677033209352215680000001508709547672010429_);fill:#8ABD32;}
	.st195{clip-path:url(#SVGID_00000135654342431272978150000003780280308265057421_);fill:#FECFAE;}
	.st196{fill:#A07775;}
	.st197{fill:#B79C86;}
	.st198{fill:#8C383B;}
	.st199{fill:#A5606B;}
	.st200{fill:#8F534A;}
	.st201{fill:#523028;}
	.st202{fill:#7A2C32;}
	.st203{fill:#965D59;}
	.st204{clip-path:url(#SVGID_00000066489828106945211660000000766659709027869080_);fill:#8F534A;}
	.st205{clip-path:url(#SVGID_00000178182609027591820880000007895254038753969306_);fill:#8BBC38;}
	.st206{clip-path:url(#SVGID_00000134951487979430252460000014635184657226068367_);fill:#8BBC38;}
	.st207{clip-path:url(#SVGID_00000119832488586411837760000014839089183017507995_);fill:#FDCFAC;}
	.st208{clip-path:url(#SVGID_00000000901168465519876910000010812174665522589332_);fill:#8F534A;}
	.st209{fill:#5B3932;}
	.st210{fill:#9E5F59;}
	.st211{clip-path:url(#SVGID_00000031920832895834184130000005556723077488306338_);fill:#8BBC38;}
	.st212{clip-path:url(#SVGID_00000014611908440264928290000016436434692112872841_);fill:#603D38;}
	.st213{clip-path:url(#SVGID_00000067232352126801076630000005822725957663949460_);fill:#523028;}
	.st214{fill:#914047;}
	.st215{clip-path:url(#SVGID_00000004523129854727677790000000452661663648067222_);fill:#8BBC38;}
	.st216{clip-path:url(#SVGID_00000010994608532466656880000013928210089343345796_);fill:#8BBC38;}
	.st217{clip-path:url(#SVGID_00000083081056243576011740000008703161593522034077_);fill:#603D38;}
	.st218{clip-path:url(#SVGID_00000140723667214676216230000008613007863175456946_);fill:#523028;}
	.st219{clip-path:url(#SVGID_00000036959495322635614750000008685739622818291336_);fill:#8BBC38;}
	.st220{clip-path:url(#SVGID_00000128459361080400802240000012296470698299921583_);fill:#8BBC38;}
	.st221{clip-path:url(#SVGID_00000073692479906842959560000001746392855665546414_);fill:#8ABD32;}
	.st222{clip-path:url(#SVGID_00000121280295546112048300000004631080434915391373_);fill:#441C0C;}
	.st223{fill:#9B786F;}
	.st224{fill:#8E7C75;}
	.st225{opacity:0.8;fill:#A3ACAF;}
	.st226{fill:#838C8E;}
	.st227{fill:#CFE59A;}
	.st228{clip-path:url(#SVGID_00000018950521126832916810000015273854349680479898_);fill:#FECFAE;}
	.st229{clip-path:url(#SVGID_00000016049226017878335310000016104509442235206528_);fill:#441C0C;}
	.st230{fill:#773825;}
	.st231{clip-path:url(#SVGID_00000111151081608512804690000009069336441227724704_);}
	.st232{clip-path:url(#SVGID_00000066496173968587655830000013879492701406470039_);}
	.st233{clip-path:url(#SVGID_00000160184132986608871660000004793580514515333805_);fill:#441C0C;}
	.st234{clip-path:url(#SVGID_00000116233340506785693870000013603474981613465787_);}
	.st235{clip-path:url(#SVGID_00000052100287894097892900000012301417306665760428_);fill:#441C0C;}
	.st236{fill:#2B1009;}
	.st237{opacity:0.8;fill:#B8BFC1;}
	.st238{fill:#B8BFC1;}
	.st239{fill:#F5FFCA;}
	.st240{fill:#A0C45B;}
	.st241{fill:#BCE077;}
	.st242{clip-path:url(#SVGID_00000016033237113395665060000009917309478446994831_);fill:#FECFAE;}
	.st243{clip-path:url(#SVGID_00000081607102507875287660000004738226511964077724_);}
	.st244{fill:#B99AD6;}
	.st245{fill:#EDCCB2;}
	.st246{fill:#9287AB;}
	.st247{fill:#B6B3C4;}
	.st248{fill:#A29CB7;}
	.st249{fill:#5A546D;}
	.st250{fill:#7F6A5C;}
	.st251{fill:#645F77;}
	.st252{fill:#472A51;}
	.st253{clip-path:url(#SVGID_00000124863066849297592210000010711191789767394983_);}
	.st254{fill:#6D407C;}
	.st255{clip-path:url(#SVGID_00000114040145711484609890000004347179391358478993_);fill:#6D407C;}
	.st256{clip-path:url(#SVGID_00000035529564431861198130000005171098041015280023_);fill:#6D407C;}
	.st257{clip-path:url(#SVGID_00000158719427925352279830000005407821668269237636_);fill:#8ABD32;}
	.st258{fill:#76708E;}
	.st259{clip-path:url(#SVGID_00000119805771069105351290000010440266491404342946_);fill:#6D407C;}
	.st260{clip-path:url(#SVGID_00000107559468323314422840000008313916345268031876_);fill:#6D407C;}
	.st261{fill:#9C7ABC;}
	.st262{clip-path:url(#SVGID_00000011741917908546650590000016549421456093847205_);fill:#FECFAE;}
	.st263{clip-path:url(#SVGID_00000149346896844794588370000004141884365052092311_);fill:#6D407C;}
	.st264{clip-path:url(#SVGID_00000006674776417703855830000004951882657304272786_);fill:#B99AD6;}
	.st265{clip-path:url(#SVGID_00000001632080022649564880000012232373946210441888_);fill:#FECFAE;}
	.st266{clip-path:url(#SVGID_00000087371054840634138990000005433721748408008064_);fill:#8ABD32;}
	.st267{fill:#8C796F;}
	.st268{fill:#633C27;}
	.st269{fill:#3F2519;}
	.st270{fill:#6B5E55;}
	.st271{clip-path:url(#SVGID_00000103228868377940774640000009420332042508260493_);fill:#633C27;}
	.st272{fill:#7A6B5F;}
	.st273{fill:#2B1811;}
	.st274{fill:#594E47;}
	.st275{fill:#685C53;}
	.st276{fill:#A8968A;}
	.st277{fill:#996A52;}
	.st278{fill:#B2A197;}
	.st279{fill:#A39081;}
	.st280{clip-path:url(#SVGID_00000000211505333222727340000003423087427748720294_);}
	.st281{clip-path:url(#SVGID_00000010988912813967459770000006413007796434960278_);fill:#FECFAE;}
	.st282{fill:#685443;}
	.st283{fill:#CCB193;}
	.st284{fill:#BB9C75;}
	.st285{fill:#C6A283;}
	.st286{fill:#897056;}
	.st287{fill:#DB6800;}
	.st288{fill:#F28D26;}
	.st289{fill:#702C31;}
	.st290{fill:#9B8067;}
	.st291{fill:#35261D;}
	.st292{fill:#4B3628;}
	.st293{fill:#658723;}
	.st294{fill:#EDD87E;}
	.st295{fill:#992828;}
	.st296{fill:#C93F3F;}
	.st297{fill:#E1C243;}
	.st298{fill:#D8B213;}
	.st299{fill:#E5CA57;}
	.st300{clip-path:url(#SVGID_00000052094968361523044530000012410097942465886394_);}
	.st301{clip-path:url(#SVGID_00000115508011440705906980000017705538544307128243_);fill:#FECFAE;}
	.st302{fill:#AD8B82;}
	.st303{clip-path:url(#SVGID_00000148662416051974727110000009582813375861854111_);}
	.st304{fill:#7C685B;}
	.st305{clip-path:url(#SVGID_00000163780421571488957880000001645762873256080015_);}
	.st306{clip-path:url(#SVGID_00000152224449681929821200000012327178569988809867_);}
	.st307{fill:#E2D3C5;}
	.st308{fill:#FFEEA9;}
	.st309{fill:#2B211F;}
	.st310{fill:#A3847E;}
	.st311{fill:#544541;}
	.st312{clip-path:url(#SVGID_00000103985300475425835130000000864200678198757522_);fill:#7C251C;}
	.st313{fill:#7C251C;}
	.st314{fill:#CEA380;}
	.st315{clip-path:url(#SVGID_00000004525877279507980830000014012242926126633362_);fill:#8E2F20;}
	.st316{clip-path:url(#SVGID_00000016051704351729844660000017015147244355396007_);fill:#AA4226;}
	.st317{fill:#BA9B95;}
	.st318{fill:#6B5956;}
	.st319{fill:#594947;}
	.st320{fill:#877674;}
	.st321{clip-path:url(#SVGID_00000122702110715330671710000009134281027907885965_);fill:#B6B3C4;}
	.st322{clip-path:url(#SVGID_00000121243559061433689350000018090264356170221444_);fill:#B6B3C4;}
	.st323{clip-path:url(#SVGID_00000045591539147804153720000017143252331631909006_);fill:#E5CA57;}
	.st324{clip-path:url(#SVGID_00000150093687836813877700000016389015422767515300_);fill:#E5CA57;}
	.st325{clip-path:url(#SVGID_00000010996054156958775360000007729176914695029132_);fill:#FECFAE;}
	.st326{fill:#EEC8B8;}
	.st327{fill:#CEA697;}
	.st328{fill:#888499;}
	.st329{fill:#9B4329;}
	.st330{fill:#933D2E;}
	.st331{fill:#843523;}
	.st332{fill:#CC6748;}
	.st333{fill:#B7542E;}
	.st334{fill:#7C3237;}
	.st335{fill:#893724;}
	.st336{fill:#914759;}
	.st337{fill:#D67B5F;}
	.st338{clip-path:url(#SVGID_00000078042414805617142590000000388728132054202515_);fill:#B6B3C4;}
	.st339{clip-path:url(#SVGID_00000113313465924788016340000011025163451566829469_);fill:#B6B3C4;}
	.st340{clip-path:url(#SVGID_00000108283755365543804170000012261778863206835131_);fill:#E5CA57;}
	.st341{clip-path:url(#SVGID_00000173883444697311120010000013711002002594550441_);fill:#E5CA57;}
	.st342{clip-path:url(#SVGID_00000147917407377756316110000017690726043520831148_);fill:#B6B3C4;}
	.st343{clip-path:url(#SVGID_00000011013454369896278850000017659591978924368044_);fill:#B6B3C4;}
	.st344{clip-path:url(#SVGID_00000020360265897165266540000008685283230774174627_);fill:#AED76A;}
	.st345{clip-path:url(#SVGID_00000124144257897837775400000004364086749392576956_);fill:#B6B3C4;}
	.st346{clip-path:url(#SVGID_00000159469550823593631690000012934660637913973658_);fill:#B6B3C4;}
	.st347{clip-path:url(#SVGID_00000123438999905542614870000005323152386718160286_);fill:#E5CA57;}
	.st348{clip-path:url(#SVGID_00000099655729416480939030000003559764797167339183_);}
	.st349{clip-path:url(#SVGID_00000056429961383348696110000006387344683170510516_);fill:#8BBC38;}
	.st350{fill:#A37A79;}
	.st351{fill:#7F74B5;}
	.st352{clip-path:url(#SVGID_00000124162986399444958810000007357443730320615846_);fill:#FECFAE;}
	.st353{clip-path:url(#SVGID_00000168803507829464616770000002325978311364576433_);fill:#E0D1B7;}
	.st354{clip-path:url(#SVGID_00000168803507829464616770000002325978311364576433_);}
	.st355{clip-path:url(#SVGID_00000039102711765019445740000017984745355351494536_);fill:#A37A79;}
	.st356{fill:#682A30;}
	.st357{opacity:0.58;fill:#AA9983;}
	.st358{opacity:0.58;fill:#9B4329;}
	.st359{opacity:0.58;fill:#B7542E;}
	.st360{fill:#755959;}
	.st361{fill:#BC9595;}
	.st362{clip-path:url(#SVGID_00000015313710397791624940000016781958468156340357_);}
	.st363{fill:#E2D8C7;}
	.st364{fill:#969189;}
	.st365{fill:#BAB3A8;}
	.st366{fill:#54423E;}
	.st367{clip-path:url(#SVGID_00000043452280609593008330000008430125407482862725_);fill:#877069;}
	.st368{clip-path:url(#SVGID_00000084503201060102419090000013137356645777413788_);fill:#725B51;}
	.st369{fill:#EFE8DF;}
	.st370{clip-path:url(#SVGID_00000100343250484269367850000005902607669917848232_);fill:#969189;}
	.st371{fill:#765196;}
	.st372{clip-path:url(#SVGID_00000080208465005805082570000014613740848415244185_);fill:#A883C6;}
</style>
<path class="st0" d="M1334.62,1107.75c79.57-11.29,161.24,3.71,227.81,44.2c93.83,57.07,230.13,156.01,161.33,312.61
	c-130.39,296.78-342.11,400.17-663.77,366.38s-266.7-94.49-517.46-125.06c-83.17-10.14-298.92-201.69-202.89-397.12
	c49.23-100.2,321.97-379.29,672.1-262.09C1192.28,1107.11,1286.09,1114.64,1334.62,1107.75z"/>
<g>
	<defs>
		<path id="SVGID_00000070805378128208963740000017793568600868163722_" d="M1334.62,1107.75c79.57-11.29,161.24,3.71,227.81,44.2
			c93.83,57.07,230.13,156.01,161.33,312.61c-130.39,296.78-342.11,400.17-663.77,366.38s-266.7-94.49-517.46-125.06
			c-83.17-10.14-298.92-201.69-202.89-397.12c49.23-100.2,321.97-379.29,672.1-262.09
			C1192.28,1107.11,1286.09,1114.64,1334.62,1107.75z"/>
	</defs>
	<clipPath id="SVGID_00000160160759744805359970000013267241310219210629_">
		<use xlink:href="#SVGID_00000070805378128208963740000017793568600868163722_"  style="overflow:visible;"/>
	</clipPath>
	<path style="clip-path:url(#SVGID_00000160160759744805359970000013267241310219210629_);fill:#FECFAE;" d="M1156.15,1469.76
		c0,0,144.1,67.42,138.15,156.39c-5.95,88.97-297.62-25.95-369.12,86.06c-71.49,112.01,209.8,224.81,209.8,224.81l87.77-58.78
		c0,0-191.12-92.15-150.61-131.07c40.51-38.92,209.98,14.03,288.36-48.99c82.55-66.38-6.83-165.12-141.9-249.11
		C1083.52,1365.06,1156.15,1469.76,1156.15,1469.76z"/>
</g>
<g>
	<g>
		<path class="st247" d="M837.23,1567.22l-31.81-19.46v-16.32l-32.08-19.06v-13.02l-25.98-18.16l-4.25-11.45l-16.66-30.85v-11.1
			l-2.78-32.7v-13.71l-2.78-31.33l2.78-14.81l6.48-29.61l3.08-15.42l8.64-31.46v-14.19l17.48-28.04l-6.13-7.74l11.17-29.82
			l-11.17-2.74v-19.88l29.98-21.39l-23.85-60.87l-80.2,27.56c0,0-57.99,89.09-57.99,89.99c0,0.9-23.34,128.81-23.34,128.81
			l53.36,206.35c0,0,33.93,90.27,101.79,98.81"/>
		<polygon class="st248" points="712.06,1564.09 805.42,1531.44 805.42,1547.76 715.35,1572.77 		"/>
		<polygon class="st248" points="678.15,1525.4 773.34,1499.36 773.34,1512.38 674.02,1535.14 		"/>
		<polygon class="st248" points="646.87,1490.72 743.11,1469.75 747.36,1481.2 656.13,1499.36 		"/>
		<polygon class="st248" points="624.05,1432.12 726.45,1427.8 726.45,1438.9 624.05,1443.22 		"/>
		<polygon class="st248" points="615.98,1381.4 723.68,1381.4 723.68,1395.1 612.94,1395.1 612.94,1381.4 		"/>
		<polygon class="st248" points="612.94,1320.46 723.68,1335.26 720.9,1350.07 606.16,1332.03 		"/>
		<polygon class="st248" points="612.94,1284.68 733.24,1290.23 730.16,1305.65 612.94,1298.18 		"/>
		<polygon class="st248" points="633.92,1237.79 741.88,1244.58 741.88,1258.77 624.05,1251.36 		"/>
		<path class="st248" d="M638.85,1191.65c0,0,99.19,5.42,114.37,17.15l-1.12,10.49l-116.25-13.82L638.85,1191.65z"/>
		<polygon class="st248" points="664.92,1145.26 753.23,1156.36 753.23,1176.24 651.19,1158.21 		"/>
		<g>
			<path class="st248" d="M622.86,1407.57c0,0-52.48-266.01,141.54-331.4c129.97-43.81,59.48-61.14-7.51-58.23
				c-33.01,1.43-72.38,18.75-72.38,18.75l-91.3,154.97l13.57,223.81L622.86,1407.57z"/>
			<path class="st247" d="M756.48,1584.08c0,0-127.19-20.26-156.8-300.64c0,0-13.91-179.9,164.71-265.51l-23.89-23.89
				c0,0-126.02,36.16-165.81,225.24s72.18,391.25,140.65,379.27"/>
			<path class="st248" d="M715.35,1598.55l41.13-14.47v65.8l-41.13,17.27C715.35,1667.16,707.95,1609.33,715.35,1598.55z"/>
			<path class="st246" d="M715.35,1598.55v68.6c0,0-116.77-85.1-137.57-236.27c-21.46-155.96-3.08-211.6-3.08-211.6
				S559.89,1559.56,715.35,1598.55z"/>
		</g>
	</g>
	<polygon class="st248" points="742.95,1606.08 837.07,1567.22 837.07,1589.43 752.82,1625.62 	"/>
</g>
<polygon class="st8" points="955.44,1527.19 978.28,1138.94 913.61,1070.37 921.34,1491.17 956.3,1531.16 1378.43,1395.05 
	1378.43,989.74 938.18,1138.44 "/>
<polygon class="st250" points="746.51,964.37 954,1054.65 956.93,1531.16 754.32,1354.73 "/>
<g>
	<polygon class="st3" points="787.87,1094.01 780.85,1067.35 787.14,1067.35 814.52,1081.73 816.72,1192.84 810.43,1192.84 
		809.23,1187.2 790.01,1172.73 	"/>
	<polygon class="st120" points="808.23,1081.73 780.85,1067.35 783.72,1172.73 810.43,1192.84 	"/>
	<polygon class="st65" points="803.01,1088.91 784.89,1077.98 787.41,1170.31 805.05,1183.73 	"/>
	<polygon class="st120" points="795.94,1081.3 797.77,1179.16 793.83,1176.73 792.01,1080.01 	"/>
	<polygon class="st120" points="806.3,1138.88 782.92,1127.26 785.25,1124.06 808.36,1135.55 	"/>
</g>
<g>
	<polygon class="st3" points="787.87,1261.64 780.85,1234.98 787.14,1234.98 814.52,1249.36 816.72,1360.47 810.43,1360.47 
		809.23,1354.83 790.01,1340.36 	"/>
	<polygon class="st120" points="808.23,1249.36 780.85,1234.98 783.72,1340.36 810.43,1360.47 	"/>
	<polygon class="st65" points="803.01,1256.54 784.89,1245.61 787.41,1337.94 805.05,1351.36 	"/>
	<polygon class="st120" points="795.94,1248.93 797.77,1346.79 793.83,1344.36 792.01,1247.64 	"/>
	<polygon class="st120" points="806.3,1306.51 782.92,1294.89 785.25,1291.69 808.36,1303.18 	"/>
</g>
<g>
	<polygon class="st3" points="869.48,1146.08 861.79,1116.89 868.68,1116.89 898.65,1132.63 901.06,1254.25 894.17,1254.25 
		892.85,1248.07 871.83,1232.23 	"/>
	<polygon class="st120" points="891.77,1132.63 861.79,1116.89 864.94,1232.23 894.17,1254.25 	"/>
	<polygon class="st65" points="886.05,1140.49 866.21,1128.53 868.97,1229.59 888.28,1244.28 	"/>
	<polygon class="st120" points="878.31,1132.17 880.32,1239.27 876,1236.61 874.02,1130.75 	"/>
	<polygon class="st120" points="889.65,1195.18 864.06,1182.46 866.62,1178.97 891.9,1191.54 	"/>
</g>
<g>
	<polygon class="st3" points="869.48,1329.55 861.79,1300.37 868.68,1300.37 898.65,1316.11 901.06,1437.73 894.17,1437.73 
		892.85,1431.55 871.83,1415.71 	"/>
	<polygon class="st120" points="891.77,1316.11 861.79,1300.37 864.94,1415.71 894.17,1437.73 	"/>
	<polygon class="st65" points="886.05,1323.97 866.21,1312 868.97,1413.06 888.28,1427.76 	"/>
	<polygon class="st120" points="878.31,1315.64 880.32,1422.75 876,1420.09 874.02,1314.23 	"/>
	<polygon class="st120" points="889.65,1378.66 864.06,1365.94 866.62,1362.45 891.9,1375.02 	"/>
</g>
<path class="st254" d="M1435.67,980.57c-35.46-4.74-55.13-39.45-66.16-70.17c-2.06-5.25-9.78-2.73-8.36,2.72
	c0,0,1.15,3.95,1.15,3.95c0.47,1.44,0.93,3.34,1.62,4.67c2.42,4.26,8.91,2.14,8.29-2.78c-0.03-0.27-0.11-0.61-0.17-0.87
	c-0.69-2.63-1.59-5.21-2.55-7.75c-2.13-5.15-9.71-2.61-8.33,2.78c2.3,7.93,3.98,16.07,4.79,24.28c1.47,16.67,0.52,38.02-13.75,49.09
	c-5.51,4.04-12.07,6.15-18.8,7.54c11.07,0.19,22.75-3.35,29.73-12.4c14.68-18.84,12.59-49.17,6.48-70.94c0,0-8.33,2.77-8.33,2.77
	c0.67,1.79,1.29,3.62,1.83,5.45c0.1,0.36,0.29,1,0.36,1.34c0,0-0.01-0.07-0.01-0.07c-0.5-2.98,2.52-5.66,5.42-4.87
	c1.32,0.32,2.42,1.26,2.93,2.4c-0.14-0.39-0.34-0.97-0.47-1.35c-0.4-1.25-1.35-4.4-1.73-5.68c0,0-8.36,2.71-8.36,2.71
	C1372.76,945.35,1397.64,982.49,1435.67,980.57L1435.67,980.57z"/>
<path class="st254" d="M1349.4,853.68c-35.46-4.74-55.13-39.45-66.16-70.17c-2.06-5.25-9.78-2.73-8.36,2.72c0,0,1.15,3.95,1.15,3.95
	c0.47,1.44,0.93,3.34,1.62,4.67c2.42,4.26,8.91,2.14,8.29-2.78c-0.03-0.27-0.11-0.61-0.17-0.87c-0.69-2.63-1.59-5.21-2.55-7.75
	c-2.13-5.15-9.71-2.61-8.33,2.78c2.3,7.93,3.98,16.07,4.79,24.28c1.47,16.67,0.52,38.02-13.75,49.09
	c-5.51,4.04-12.07,6.15-18.8,7.54c11.07,0.19,22.75-3.35,29.73-12.4c14.68-18.84,12.59-49.17,6.48-70.94c0,0-8.33,2.77-8.33,2.77
	c0.67,1.79,1.29,3.62,1.83,5.45c0.1,0.36,0.29,1,0.36,1.34c0,0-0.01-0.07-0.01-0.07c-0.5-2.98,2.52-5.66,5.42-4.87
	c1.32,0.32,2.42,1.26,2.93,2.4c-0.14-0.39-0.34-0.97-0.47-1.35c-0.4-1.25-1.35-4.4-1.73-5.68c0,0-8.36,2.71-8.36,2.71
	C1286.48,818.46,1311.36,855.6,1349.4,853.68L1349.4,853.68z"/>
<path class="st254" d="M1251,740.66c-35.46-4.74-55.13-39.45-66.16-70.17c-2.06-5.25-9.78-2.73-8.36,2.72c0,0,1.15,3.95,1.15,3.95
	c0.47,1.44,0.93,3.34,1.62,4.67c2.42,4.26,8.91,2.14,8.29-2.78c-0.03-0.27-0.11-0.61-0.17-0.87c-0.69-2.63-1.59-5.21-2.55-7.75
	c-2.13-5.15-9.71-2.61-8.33,2.78c2.3,7.93,3.98,16.07,4.79,24.28c1.47,16.67,0.52,38.02-13.75,49.09
	c-5.51,4.04-12.07,6.15-18.8,7.54c11.07,0.19,22.75-3.35,29.73-12.4c14.68-18.84,12.59-49.17,6.48-70.94c0,0-8.33,2.77-8.33,2.77
	c0.67,1.79,1.29,3.62,1.83,5.45c0.1,0.36,0.29,1,0.36,1.34c0,0-0.01-0.07-0.01-0.07c-0.5-2.98,2.52-5.66,5.42-4.87
	c1.32,0.32,2.42,1.26,2.93,2.4c-0.14-0.39-0.34-0.97-0.46-1.35c-0.4-1.25-1.35-4.4-1.73-5.68c0,0-8.36,2.71-8.36,2.71
	C1188.08,705.44,1212.96,742.58,1251,740.66L1251,740.66z"/>
<path class="st246" d="M1163.59,464.5c0,0-45.55-38.81-90.98-110.53l-29.36-0.36L956.5,456.91l72.04,72.72L1163.59,464.5z"/>
<polygon class="st249" points="1028.38,543.19 1061.3,358.36 1034.22,364.37 935.37,476.44 "/>
<polygon class="st8" points="1378.43,1395.05 979.13,1517.05 979.13,1053.67 1291.95,996.51 1358.4,1224.14 "/>
<polygon class="st8" points="1292.11,1345.83 990.67,1428.96 1046.89,1477.86 1291.43,1401.23 "/>
<polygon class="st246" points="1121.78,304.51 1063.16,207.03 993.79,302.94 1053.68,331.72 "/>
<polygon class="st10" points="1475.43,985.21 1452.94,1023.9 938.18,1138.44 679.04,948.9 666.32,911.1 972.39,1066.58 
	1210.19,958.45 "/>
<path class="st252" d="M962.06,987.39L938.61,1104L666.32,911.1l85.45-44.88C751.77,866.21,944.37,956.67,962.06,987.39z"/>
<path class="st244" d="M962.06,987.39L938.61,1104l536.83-118.79l-83.87-68.8C1391.57,916.41,1027.47,903.48,962.06,987.39z"/>
<path class="st120" d="M1026.99,509.14c7.54-26.98-6.85-62.15-34.53-66.5l0,0c-13.91-2.18-31.25,9.64-41.69,19.09
	c-44.78,40.54-162.07,166.85-199,404.47l210.29,121.17C962.06,987.39,967.74,721.31,1026.99,509.14z"/>
<path class="st124" d="M962.06,987.39l429.51-70.97c0,0-54.21-272.11-207.5-434.38c-24.54-25.98-59.05-40.73-94.76-39.23
	c-25.1,1.05-49.81,10.08-58.36,38.86C1011.41,547.43,952.83,634.88,962.06,987.39z"/>
<polygon class="st249" points="1121.78,304.51 1080,364.99 1059.22,370.02 1034.22,364.37 993.79,302.94 1044.86,314.39 "/>
<polygon class="st247" points="1055.14,218.12 1064.31,113.3 1069.93,218.3 "/>
<path class="st254" d="M1284.11,900.22c-31.78-4.25-49.4-35.35-59.28-62.88c-1.85-4.7-8.76-2.45-7.49,2.44c0,0,1.03,3.54,1.03,3.54
	c0.42,1.29,0.84,2.99,1.46,4.18c2.17,3.82,7.98,1.92,7.43-2.49c-0.03-0.24-0.1-0.54-0.15-0.78c-0.62-2.36-1.43-4.67-2.29-6.94
	c-1.91-4.61-8.7-2.34-7.46,2.49c2.06,7.11,3.56,14.4,4.29,21.76c1.32,14.93,0.46,34.07-12.32,43.99
	c-4.94,3.62-10.82,5.51-16.85,6.76c9.92,0.17,20.38-3,26.64-11.11c13.15-16.88,11.28-44.05,5.81-63.57c0,0-7.47,2.49-7.47,2.49
	c0.6,1.6,1.16,3.25,1.64,4.88c0.09,0.32,0.26,0.9,0.32,1.2c0,0-0.01-0.06-0.01-0.06c-0.45-2.67,2.25-5.07,4.86-4.36
	c1.18,0.29,2.17,1.13,2.63,2.15c-0.12-0.35-0.31-0.87-0.42-1.21c-0.36-1.12-1.21-3.94-1.55-5.09c0,0-7.49,2.43-7.49,2.43
	C1227.73,868.66,1250.03,901.95,1284.11,900.22L1284.11,900.22z"/>
<path class="st254" d="M1196.62,913.01c-31.78-4.25-49.4-35.35-59.28-62.88c-1.85-4.7-8.76-2.45-7.49,2.44c0,0,1.03,3.54,1.03,3.54
	c0.42,1.29,0.84,2.99,1.46,4.18c2.17,3.82,7.98,1.92,7.43-2.49c-0.03-0.24-0.1-0.54-0.15-0.78c-0.62-2.36-1.43-4.67-2.29-6.94
	c-1.91-4.61-8.7-2.34-7.46,2.49c2.06,7.11,3.56,14.4,4.29,21.76c1.32,14.93,0.46,34.07-12.32,43.99
	c-4.94,3.62-10.82,5.51-16.85,6.76c9.92,0.17,20.38-3,26.64-11.11c13.15-16.89,11.28-44.05,5.81-63.57c0,0-7.47,2.49-7.47,2.49
	c0.6,1.6,1.16,3.25,1.64,4.88c0.09,0.32,0.26,0.9,0.32,1.2c0,0-0.01-0.06-0.01-0.06c-0.45-2.67,2.25-5.07,4.86-4.36
	c1.18,0.29,2.17,1.13,2.63,2.15c-0.12-0.35-0.31-0.87-0.42-1.21c-0.36-1.12-1.21-3.94-1.55-5.09c0,0-7.49,2.43-7.49,2.43
	C1140.24,881.45,1162.54,914.73,1196.62,913.01L1196.62,913.01z"/>
<path class="st254" d="M1104.97,925.73c-31.78-4.25-49.4-35.35-59.28-62.88c-1.85-4.7-8.76-2.45-7.49,2.44c0,0,1.03,3.54,1.03,3.54
	c0.42,1.29,0.84,2.99,1.46,4.18c2.17,3.82,7.98,1.92,7.43-2.49c-0.03-0.24-0.1-0.54-0.15-0.78c-0.62-2.36-1.43-4.67-2.29-6.94
	c-1.91-4.61-8.7-2.34-7.46,2.49c2.06,7.11,3.56,14.4,4.29,21.76c1.32,14.93,0.46,34.07-12.32,43.99
	c-4.94,3.62-10.82,5.51-16.85,6.76c9.92,0.17,20.38-3,26.64-11.11c13.15-16.88,11.28-44.05,5.81-63.57c0,0-7.47,2.49-7.47,2.49
	c0.6,1.6,1.16,3.25,1.64,4.88c0.09,0.32,0.26,0.9,0.32,1.2c0,0-0.01-0.06-0.01-0.06c-0.45-2.67,2.25-5.07,4.86-4.36
	c1.18,0.29,2.17,1.13,2.63,2.15c-0.12-0.35-0.31-0.87-0.42-1.21c-0.36-1.12-1.21-3.94-1.55-5.09c0,0-7.49,2.43-7.49,2.43
	C1048.6,894.17,1070.9,927.46,1104.97,925.73L1104.97,925.73z"/>
<path class="st254" d="M1170.23,827.98c-31.25-7.17-45.92-39.77-53.21-68.1c-1.41-4.85-8.49-3.25-7.69,1.74c0,0,0.7,3.62,0.7,3.62
	c0.3,1.32,0.56,3.06,1.06,4.3c1.81,4,7.77,2.65,7.62-1.8c0-0.25-0.05-0.55-0.08-0.79c-0.4-2.4-0.99-4.78-1.64-7.12
	c-1.48-4.77-8.44-3.13-7.66,1.79c1.39,7.27,2.22,14.66,2.26,22.06c-0.07,14.99-2.69,33.97-16.34,42.66
	c-5.26,3.15-11.28,4.49-17.4,5.17c9.86,1.08,20.57-1.1,27.56-8.6c14.66-15.6,15.31-42.82,11.67-62.76c0,0-7.66,1.78-7.66,1.78
	c0.45,1.65,0.85,3.34,1.18,5.01c0.06,0.32,0.17,0.92,0.21,1.22c0,0-0.01-0.06-0.01-0.06c-0.2-2.7,2.71-4.84,5.24-3.89
	c1.15,0.4,2.06,1.32,2.42,2.39c-0.09-0.36-0.23-0.9-0.3-1.24c-0.26-1.15-0.84-4.04-1.07-5.21c0,0-7.69,1.73-7.69,1.73
	C1117.02,791.34,1136.14,826.54,1170.23,827.98L1170.23,827.98z"/>
<path class="st254" d="M1074.9,832.13c-31.25-7.17-45.92-39.77-53.21-68.1c-1.41-4.85-8.49-3.25-7.69,1.74c0,0,0.7,3.62,0.7,3.62
	c0.3,1.32,0.56,3.06,1.06,4.3c1.81,4,7.77,2.65,7.62-1.8c0-0.25-0.05-0.55-0.08-0.79c-0.4-2.4-0.99-4.78-1.64-7.12
	c-1.48-4.77-8.44-3.13-7.66,1.79c1.39,7.27,2.22,14.66,2.26,22.06c-0.07,14.99-2.69,33.97-16.34,42.66
	c-5.26,3.15-11.28,4.49-17.4,5.17c9.86,1.08,20.57-1.1,27.56-8.6c14.66-15.6,15.31-42.82,11.67-62.76c0,0-7.66,1.78-7.66,1.78
	c0.45,1.65,0.85,3.34,1.18,5.01c0.06,0.32,0.17,0.92,0.21,1.22c0,0-0.01-0.06-0.01-0.06c-0.2-2.7,2.71-4.84,5.24-3.89
	c1.15,0.4,2.06,1.32,2.42,2.39c-0.09-0.36-0.23-0.9-0.3-1.24c-0.26-1.15-0.84-4.04-1.07-5.21c0,0-7.69,1.73-7.69,1.73
	C1021.68,795.49,1040.81,830.69,1074.9,832.13L1074.9,832.13z"/>
<path class="st254" d="M1344.65,818.59c-31.25-7.17-45.92-39.77-53.21-68.1c-1.41-4.85-8.49-3.25-7.69,1.74c0,0,0.7,3.62,0.7,3.62
	c0.3,1.32,0.56,3.06,1.06,4.3c1.81,4,7.77,2.65,7.62-1.8c0-0.25-0.05-0.55-0.08-0.79c-0.4-2.4-0.99-4.78-1.64-7.12
	c-1.48-4.77-8.44-3.13-7.66,1.79c1.39,7.27,2.22,14.66,2.26,22.06c-0.07,14.99-2.69,33.97-16.34,42.66
	c-5.26,3.15-11.28,4.49-17.4,5.17c9.86,1.08,20.57-1.1,27.56-8.6c14.66-15.6,15.31-42.82,11.67-62.76c0,0-7.66,1.78-7.66,1.78
	c0.45,1.65,0.85,3.34,1.18,5.01c0.06,0.32,0.17,0.92,0.21,1.22c0,0-0.01-0.06-0.01-0.06c-0.2-2.7,2.71-4.84,5.24-3.89
	c1.15,0.4,2.06,1.32,2.42,2.39c-0.09-0.36-0.23-0.9-0.3-1.24c-0.26-1.15-0.84-4.04-1.07-5.21c0,0-7.69,1.73-7.69,1.73
	C1291.44,781.94,1310.56,817.15,1344.65,818.59L1344.65,818.59z"/>
<path class="st254" d="M1249.32,822.74c-31.25-7.17-45.92-39.77-53.21-68.1c-1.41-4.85-8.49-3.25-7.69,1.74c0,0,0.7,3.62,0.7,3.62
	c0.3,1.32,0.56,3.06,1.06,4.3c1.81,4,7.77,2.65,7.62-1.8c0-0.25-0.05-0.55-0.08-0.79c-0.4-2.4-0.99-4.78-1.64-7.12
	c-1.48-4.77-8.44-3.13-7.66,1.79c1.39,7.27,2.22,14.66,2.26,22.06c-0.07,14.99-2.69,33.97-16.34,42.66
	c-5.26,3.15-11.28,4.49-17.4,5.17c9.86,1.08,20.57-1.1,27.56-8.6c14.66-15.6,15.31-42.82,11.67-62.76c0,0-7.66,1.78-7.66,1.78
	c0.45,1.65,0.85,3.34,1.18,5.01c0.06,0.32,0.17,0.92,0.21,1.22l-0.01-0.06c-0.2-2.7,2.71-4.84,5.24-3.89
	c1.15,0.4,2.06,1.32,2.42,2.39c-0.09-0.36-0.23-0.9-0.3-1.24c-0.26-1.15-0.84-4.04-1.07-5.21c0,0-7.69,1.73-7.69,1.73
	C1196.1,786.09,1215.23,821.3,1249.32,822.74L1249.32,822.74z"/>
<path class="st254" d="M1146.02,727.75c-31.13-7.67-45.28-40.5-52.12-68.93c-1.33-4.88-8.44-3.38-7.71,1.61c0,0,0.64,3.63,0.64,3.63
	c0.28,1.33,0.51,3.06,0.99,4.32c1.74,4.03,7.73,2.77,7.65-1.68c0-0.25-0.04-0.55-0.07-0.79c-0.36-2.41-0.91-4.8-1.52-7.15
	c-1.4-4.79-8.39-3.27-7.69,1.67c1.27,7.29,1.98,14.7,1.9,22.09c-0.31,14.99-3.23,33.92-17.02,42.39c-5.3,3.07-11.35,4.31-17.48,4.89
	c9.85,1.24,20.59-0.77,27.69-8.16c14.9-15.36,15.99-42.57,12.66-62.57c0,0-7.69,1.66-7.69,1.66c0.42,1.66,0.8,3.35,1.1,5.03
	c0.05,0.33,0.16,0.92,0.19,1.23c0,0,0-0.06,0-0.06c-0.16-2.7,2.79-4.8,5.3-3.81c1.15,0.41,2.03,1.36,2.38,2.43
	c-0.09-0.36-0.21-0.9-0.28-1.25c-0.24-1.15-0.78-4.05-0.99-5.23c0,0-7.71,1.6-7.71,1.6
	C1093.39,690.26,1111.95,725.77,1146.02,727.75L1146.02,727.75z"/>
<path class="st254" d="M1222.53,627.49c-31.13-7.67-45.28-40.5-52.12-68.93c-1.33-4.88-8.44-3.38-7.71,1.61c0,0,0.64,3.63,0.64,3.63
	c0.28,1.33,0.51,3.06,0.99,4.32c1.74,4.03,7.73,2.77,7.65-1.68c0-0.25-0.04-0.55-0.07-0.79c-0.36-2.41-0.91-4.8-1.52-7.15
	c-1.4-4.79-8.39-3.27-7.69,1.67c1.27,7.29,1.98,14.7,1.9,22.09c-0.31,14.99-3.23,33.92-17.02,42.39
	c-5.31,3.07-11.35,4.31-17.48,4.89c9.85,1.24,20.59-0.77,27.69-8.16c14.9-15.36,15.99-42.57,12.66-62.57c0,0-7.69,1.66-7.69,1.66
	c0.42,1.66,0.8,3.35,1.1,5.03c0.05,0.33,0.16,0.92,0.19,1.23c0,0,0-0.06,0-0.06c-0.16-2.7,2.79-4.8,5.3-3.81
	c1.15,0.41,2.03,1.36,2.38,2.43c-0.09-0.36-0.21-0.9-0.28-1.25c-0.24-1.15-0.78-4.05-0.99-5.23c0,0-7.71,1.6-7.71,1.6
	C1169.91,590,1188.47,625.51,1222.53,627.49L1222.53,627.49z"/>
<path class="st254" d="M1134.35,630.75c-31.13-7.67-45.28-40.5-52.12-68.93c-1.33-4.88-8.44-3.38-7.71,1.61c0,0,0.64,3.63,0.64,3.63
	c0.28,1.33,0.51,3.06,0.99,4.32c1.74,4.03,7.73,2.77,7.65-1.68c0-0.25-0.04-0.55-0.07-0.79c-0.36-2.41-0.91-4.8-1.52-7.15
	c-1.4-4.79-8.39-3.27-7.69,1.67c1.27,7.29,1.98,14.7,1.9,22.09c-0.31,14.99-3.23,33.92-17.02,42.39c-5.3,3.07-11.35,4.31-17.48,4.89
	c9.85,1.24,20.59-0.77,27.69-8.16c14.9-15.36,15.99-42.57,12.66-62.57c0,0-7.69,1.66-7.69,1.66c0.42,1.66,0.8,3.35,1.1,5.03
	c0.05,0.33,0.16,0.92,0.19,1.23c0,0,0-0.06,0-0.06c-0.16-2.7,2.79-4.8,5.3-3.81c1.15,0.41,2.03,1.36,2.38,2.43
	c-0.09-0.36-0.21-0.9-0.28-1.25c-0.24-1.15-0.78-4.05-0.99-5.23c0,0-7.71,1.6-7.71,1.6
	C1081.73,593.27,1100.29,628.77,1134.35,630.75L1134.35,630.75z"/>
<path class="st254" d="M918.27,937.81c-24.72-24.86-19.27-63.57-9.48-94.02c1.53-5.31-5.96-7.96-8.12-2.88c0,0-1.47,3.76-1.47,3.76
	c-0.49,1.4-1.27,3.15-1.53,4.6c-0.66,4.76,5.64,6.98,8.1,2.79c0.14-0.23,0.27-0.54,0.39-0.78c1.04-2.45,1.88-5,2.64-7.54
	c1.42-5.27-5.98-7.82-8.13-2.82c-2.95,7.53-6.5,14.86-10.78,21.72c-8.81,13.82-22.3,29.84-40,29.92c-6.7-0.15-13.06-2.43-19.11-5.37
	c8.49,6.76,19.67,10.99,30.5,8.12c22.66-5.87,39.14-30.67,47.4-51.24c0,0-8.13-2.82-8.13-2.82c-0.55,1.79-1.16,3.59-1.83,5.33
	c-0.14,0.33-0.37,0.95-0.52,1.26c0,0,0.03-0.06,0.03-0.06c1.39-2.61,5.34-2.9,7.12-0.54c0.84,1.04,1.13,2.42,0.84,3.62
	c0.12-0.38,0.31-0.96,0.45-1.33c0.43-1.21,1.58-4.23,2.05-5.45c0,0-8.12-2.89-8.12-2.89C890.43,872.87,887.58,916.59,918.27,937.81
	L918.27,937.81z"/>
<path class="st254" d="M880.97,818.47c-24.72-24.86-19.27-63.57-9.49-94.02c1.53-5.31-5.96-7.96-8.12-2.88c0,0-1.47,3.76-1.47,3.76
	c-0.49,1.4-1.27,3.15-1.53,4.6c-0.66,4.76,5.64,6.98,8.1,2.79c0.14-0.23,0.27-0.54,0.39-0.78c1.04-2.45,1.88-5,2.64-7.54
	c1.42-5.27-5.98-7.82-8.13-2.82c-2.95,7.53-6.5,14.86-10.78,21.72c-8.81,13.82-22.3,29.84-40,29.92c-6.7-0.15-13.06-2.43-19.11-5.37
	c8.49,6.76,19.67,10.99,30.5,8.12c22.66-5.87,39.14-30.67,47.4-51.24c0,0-8.13-2.82-8.13-2.82c-0.55,1.79-1.16,3.59-1.83,5.33
	c-0.14,0.33-0.37,0.95-0.52,1.26c0,0,0.03-0.06,0.03-0.06c1.39-2.61,5.34-2.9,7.12-0.54c0.84,1.04,1.13,2.42,0.84,3.62
	c0.12-0.38,0.31-0.96,0.45-1.33c0.43-1.21,1.58-4.23,2.05-5.45c0,0-8.12-2.89-8.12-2.89C853.13,753.53,850.28,797.25,880.97,818.47
	L880.97,818.47z"/>
<path class="st254" d="M924.2,723.36c-16.98-20.58-10.12-49.53-0.57-71.92c1.53-3.92-3.96-6.45-5.95-2.75c0,0-1.38,2.74-1.38,2.74
	c-0.47,1.03-1.18,2.3-1.48,3.38c-0.84,3.56,3.78,5.69,5.94,2.68c0.12-0.16,0.25-0.39,0.35-0.56c0.96-1.79,1.77-3.66,2.53-5.53
	c1.45-3.9-3.98-6.35-5.96-2.71c-2.77,5.5-5.98,10.8-9.7,15.7c-7.65,9.85-19,21.04-32.42,19.86c-5.06-0.59-9.72-2.76-14.1-5.41
	c5.96,5.72,14.13,9.71,22.54,8.3c17.58-2.85,31.82-20.49,39.53-35.49c0,0-5.96-2.71-5.96-2.71c-0.54,1.32-1.13,2.64-1.76,3.91
	c-0.13,0.24-0.35,0.69-0.48,0.91c0,0,0.03-0.04,0.03-0.04c1.24-1.88,4.25-1.82,5.43,0.09c0.56,0.85,0.69,1.92,0.38,2.8
	c0.12-0.28,0.31-0.71,0.43-0.97c0.41-0.89,1.49-3.09,1.94-3.98c0,0-5.95-2.76-5.95-2.76C907.67,672.19,902.43,705.12,924.2,723.36
	L924.2,723.36z"/>
<g>
	<defs>
		<path id="SVGID_00000036220469607820922700000012605151917708601480_" d="M1026.99,509.14c7.54-26.98-6.85-62.15-34.53-66.5l0,0
			c-13.91-2.18-31.25,9.64-41.69,19.09c-44.78,40.54-162.07,166.85-199,404.47l210.29,121.17
			C962.06,987.39,967.74,721.31,1026.99,509.14z"/>
	</defs>
	<clipPath id="SVGID_00000032621315989516309260000013416978667831737746_">
		<use xlink:href="#SVGID_00000036220469607820922700000012605151917708601480_"  style="overflow:visible;"/>
	</clipPath>
	<path style="clip-path:url(#SVGID_00000032621315989516309260000013416978667831737746_);fill:#6D407C;" d="M840.01,893.43
		c-19.76-19.87-15.4-50.81-7.58-75.14c1.22-4.24-4.76-6.36-6.49-2.3c0,0-1.17,3-1.17,3c-0.4,1.12-1.01,2.52-1.22,3.67
		c-0.53,3.8,4.51,5.58,6.47,2.23c0.11-0.18,0.22-0.43,0.31-0.62c0.83-1.96,1.5-4,2.11-6.03c1.13-4.22-4.78-6.25-6.5-2.25
		c-2.36,6.02-5.2,11.87-8.62,17.36c-7.04,11.05-17.83,23.85-31.97,23.91c-5.35-0.12-10.43-1.94-15.27-4.29
		c6.79,5.4,15.72,8.78,24.38,6.49c18.11-4.69,31.28-24.51,37.88-40.95c0,0-6.5-2.25-6.5-2.25c-0.44,1.43-0.93,2.87-1.46,4.26
		c-0.11,0.27-0.3,0.76-0.42,1c0,0,0.02-0.05,0.02-0.05c1.11-2.09,4.26-2.31,5.69-0.43c0.67,0.83,0.9,1.94,0.67,2.89
		c0.1-0.31,0.25-0.77,0.36-1.06c0.34-0.97,1.26-3.38,1.64-4.35c0,0-6.49-2.31-6.49-2.31C817.76,841.53,815.48,876.47,840.01,893.43
		L840.01,893.43z"/>
	<path style="clip-path:url(#SVGID_00000032621315989516309260000013416978667831737746_);fill:#6D407C;" d="M868.59,685.13
		c-16.98-20.58-10.12-49.53-0.57-71.92c1.53-3.92-3.96-6.45-5.95-2.75c0,0-1.38,2.74-1.38,2.74c-0.47,1.03-1.18,2.3-1.48,3.38
		c-0.84,3.56,3.78,5.69,5.94,2.68c0.12-0.16,0.25-0.39,0.35-0.56c0.96-1.79,1.77-3.66,2.53-5.53c1.45-3.9-3.98-6.35-5.96-2.71
		c-2.77,5.5-5.98,10.8-9.7,15.7c-7.65,9.85-19,21.04-32.42,19.86c-5.06-0.59-9.72-2.76-14.1-5.41c5.96,5.72,14.13,9.71,22.54,8.3
		c17.58-2.85,31.82-20.49,39.53-35.49c0,0-5.96-2.71-5.96-2.71c-0.54,1.32-1.13,2.64-1.76,3.91c-0.13,0.24-0.35,0.69-0.48,0.91
		c0,0,0.03-0.04,0.03-0.04c1.24-1.88,4.25-1.82,5.43,0.09c0.56,0.85,0.69,1.92,0.38,2.8c0.12-0.28,0.31-0.71,0.43-0.97
		c0.41-0.89,1.49-3.09,1.94-3.98c0,0-5.95-2.76-5.95-2.76C852.07,633.96,846.83,666.88,868.59,685.13L868.59,685.13z"/>
	<path style="clip-path:url(#SVGID_00000032621315989516309260000013416978667831737746_);fill:#6D407C;" d="M953.72,587.54
		c-19.3-24.17-10.82-57.6,0.67-83.37c1.85-4.51-4.47-7.55-6.85-3.3c0,0-1.65,3.15-1.65,3.15c-0.57,1.18-1.41,2.64-1.78,3.89
		c-1.04,4.11,4.28,6.66,6.84,3.22c0.14-0.19,0.29-0.45,0.41-0.65c1.14-2.05,2.12-4.21,3.04-6.36c1.75-4.49-4.5-7.43-6.86-3.25
		c-3.31,6.32-7.12,12.41-11.53,18.02c-9.05,11.28-22.42,24.04-37.94,22.42c-5.86-0.77-11.22-3.38-16.25-6.53
		c6.8,6.74,16.2,11.52,25.98,10.04c20.43-2.98,37.26-23.16,46.47-40.41c0,0-6.86-3.25-6.86-3.25c-0.65,1.52-1.36,3.04-2.12,4.5
		c-0.15,0.28-0.42,0.8-0.58,1.05c0,0,0.03-0.05,0.03-0.05c1.47-2.16,4.96-2.03,6.29,0.2c0.63,0.99,0.76,2.23,0.39,3.25
		c0.14-0.32,0.37-0.81,0.52-1.12c0.49-1.02,1.79-3.56,2.32-4.58c0,0-6.84-3.31-6.84-3.31C935.51,527.92,928.83,565.99,953.72,587.54
		L953.72,587.54z"/>
</g>
<path class="st120" d="M1156.15,1469.76l62.45-20.7c0,0,16.98-121.44-17.7-128.99c-34.67-7.55-45.61,18.44-48.7,27.51
	S1156.15,1469.76,1156.15,1469.76z"/>
<g>
	<defs>
		<path id="SVGID_00000065058616846230183590000011547942881189251508_" d="M1156.15,1469.76l62.45-20.7
			c0,0,16.98-121.44-17.7-128.99c-34.67-7.55-45.61,18.44-48.7,27.51S1156.15,1469.76,1156.15,1469.76z"/>
	</defs>
	<clipPath id="SVGID_00000093136420476827506510000015233044835492845726_">
		<use xlink:href="#SVGID_00000065058616846230183590000011547942881189251508_"  style="overflow:visible;"/>
	</clipPath>
	<path style="clip-path:url(#SVGID_00000093136420476827506510000015233044835492845726_);fill:#B99AD6;" d="M1152.31,1326.05
		l-1.23,146.68c0,0,14.4-0.96,15.35-1.8c0.96-0.83,0.87-7.87-0.12-22.19c-0.99-14.33,3.64-119.63,3.64-119.63
		s2.37,145.91,3.71,146.73c1.34,0.82,9.46-4.37,9.46-4.37s5.04-131.31,3.52-136.58l5.1,27.26l-6.05,114.37l15.45-11.36l1.75-121.98
		l6.27,130.89l13.43-6.81l-3.24-139.45C1218.95,1325.07,1183.83,1326.58,1152.31,1326.05z"/>
</g>
<path class="st252" d="M1235.92,1377.66c-0.36-26.46-3.25-51.06-17.64-63.51c-34.27-29.66-75.98,1.89-86.36,35.55
	c-7.42,24.08-5.34,122.09-5.34,122.09s2.11,2.37,8.68,3.37c0.98,0.15,5.95-8.35,6.9-11.1c5.66-0.07,6.23,7.44,6.23,7.44
	s0.05-95.18,2.18-110.59c2.68-19.36,17.02-33.53,31.35-35.39c24.96-3.25,32.35,18.29,34.25,34.26c2.81,23.6,2.41,89.29,2.41,89.29
	s0.79,0.69,5.52,0.65c1.78-0.02,7.33-8.02,7.98-9.42c1.9-0.37-0.66,3.81,1.04,2C1233.14,1442.29,1236.45,1416.97,1235.92,1377.66z"
	/>
<path class="st124" d="M1223.87,1315.57c-33.16-29.67-73.52-0.4-83.55,33.25c-7.17,24.07-5.05,126.33-5.05,126.33
	c14.17,2.42,20.87-5.4,20.87-5.4s0.21-92.04,2.26-107.45c2.58-19.36,16.45-33.52,30.31-35.38c24.14-3.24,32.02,17.29,33.86,33.26
	c2.73,23.6,1.53,89.52,1.53,89.52s9.34-0.26,15.93-7.5c0,0,1.44-23.79,0.91-63.1C1240.61,1352.64,1237.8,1328.03,1223.87,1315.57z"
	/>
<g>
	<polygon class="st252" points="1071.15,1312.86 1076.47,1313.72 1070.77,1324.65 1065.99,1419.67 1011.57,1438.1 1008.02,1444.91 
		1003.69,1443.04 1002.71,1330.53 	"/>
	<polygon class="st3" points="1070.95,1423.6 1008.02,1444.91 1007.66,1332.96 1076.47,1313.72 	"/>
	<polygon class="st65" points="1037.65,1424.89 1018.83,1431.28 1018.82,1388.98 1038.18,1383.58 	"/>
	<polygon class="st65" points="1044.27,1334.78 1067.84,1327.41 1065.75,1371.07 1043.21,1376.83 	"/>
	<polygon class="st65" points="1065.52,1375.96 1063.6,1416.09 1042.04,1423.4 1043.08,1382.22 	"/>
	<polygon class="st65" points="1018.81,1383.06 1018.8,1342.76 1038.77,1336.5 1038.25,1378.1 	"/>
	<polygon class="st252" points="1038.25,1378.1 1038.77,1336.5 1044.27,1334.78 1043.21,1376.83 	"/>
	<polygon class="st252" points="1043.21,1376.83 1065.75,1371.07 1065.52,1375.96 1043.08,1382.22 	"/>
	<polygon class="st252" points="1038.25,1378.1 1038.18,1383.58 1018.82,1388.98 1018.81,1383.06 	"/>
	<polygon class="st3" points="1046.18,1330.16 1043.84,1423.56 1039.48,1425.36 1040.68,1331.04 	"/>
	<polygon class="st3" points="1012.62,1382.28 1068,1368.14 1070.11,1372.36 1014.47,1387.87 	"/>
</g>
<g>
	<polygon class="st252" points="1071.15,1145.26 1076.47,1146.12 1070.77,1157.05 1065.99,1252.07 1011.57,1270.5 1008.02,1277.31 
		1003.69,1275.44 1002.71,1162.93 	"/>
	<polygon class="st3" points="1070.95,1256 1008.02,1277.31 1007.66,1165.36 1076.47,1146.12 	"/>
	<polygon class="st65" points="1037.65,1257.29 1018.83,1263.68 1018.82,1221.38 1038.18,1215.98 	"/>
	<polygon class="st65" points="1044.27,1167.18 1067.84,1159.81 1065.75,1203.48 1043.21,1209.23 	"/>
	<polygon class="st65" points="1065.52,1208.36 1063.6,1248.49 1042.04,1255.8 1043.08,1214.62 	"/>
	<polygon class="st65" points="1018.81,1215.46 1018.8,1175.16 1038.77,1168.9 1038.25,1210.5 	"/>
	<polygon class="st252" points="1038.25,1210.5 1038.77,1168.9 1044.27,1167.18 1043.21,1209.23 	"/>
	<polygon class="st252" points="1043.21,1209.23 1065.75,1203.48 1065.52,1208.36 1043.08,1214.62 	"/>
	<polygon class="st252" points="1038.25,1210.5 1038.18,1215.98 1018.82,1221.38 1018.81,1215.46 	"/>
	<polygon class="st3" points="1046.18,1162.56 1043.84,1255.96 1039.48,1257.76 1040.68,1163.44 	"/>
	<polygon class="st3" points="1012.62,1214.68 1068,1200.54 1070.11,1204.76 1014.47,1220.27 	"/>
</g>
<g>
	<polygon class="st252" points="1336.45,1247.7 1341.12,1248.46 1336.11,1258.06 1331.91,1341.55 1284.1,1357.74 1280.98,1363.73 
		1277.17,1362.08 1276.31,1263.22 	"/>
	<polygon class="st3" points="1336.26,1345 1280.97,1363.73 1280.66,1265.36 1341.12,1248.46 	"/>
	<polygon class="st65" points="1307.01,1346.14 1290.48,1351.75 1290.46,1314.58 1307.47,1309.84 	"/>
	<polygon class="st65" points="1312.82,1266.97 1333.53,1260.48 1331.7,1298.85 1311.9,1303.91 	"/>
	<polygon class="st65" points="1331.5,1303.14 1329.81,1338.4 1310.87,1344.83 1311.78,1308.64 	"/>
	<polygon class="st65" points="1290.46,1309.39 1290.44,1273.97 1308,1268.48 1307.53,1305.02 	"/>
	<polygon class="st252" points="1307.53,1305.02 1308,1268.48 1312.82,1266.97 1311.9,1303.91 	"/>
	<polygon class="st252" points="1311.9,1303.91 1331.7,1298.85 1331.5,1303.14 1311.78,1308.64 	"/>
	<polygon class="st252" points="1307.53,1305.02 1307.47,1309.84 1290.46,1314.58 1290.46,1309.39 	"/>
	<polygon class="st3" points="1314.51,1262.9 1312.44,1344.97 1308.62,1346.55 1309.67,1263.68 	"/>
	<polygon class="st3" points="1285.02,1308.7 1333.67,1296.27 1335.53,1299.98 1286.65,1313.61 	"/>
</g>
<g>
	<polygon class="st252" points="1336.45,1100.44 1341.12,1101.2 1336.11,1110.8 1331.91,1194.29 1284.1,1210.48 1280.98,1216.47 
		1277.17,1214.82 1276.31,1115.97 	"/>
	<polygon class="st3" points="1336.26,1197.74 1280.97,1216.47 1280.66,1118.11 1341.12,1101.2 	"/>
	<polygon class="st65" points="1307.01,1198.88 1290.48,1204.49 1290.46,1167.32 1307.47,1162.58 	"/>
	<polygon class="st65" points="1312.82,1119.71 1333.53,1113.23 1331.7,1151.59 1311.9,1156.65 	"/>
	<polygon class="st65" points="1331.5,1155.89 1329.81,1191.14 1310.87,1197.57 1311.78,1161.38 	"/>
	<polygon class="st65" points="1290.46,1162.13 1290.44,1126.71 1308,1121.22 1307.53,1157.77 	"/>
	<polygon class="st252" points="1307.53,1157.77 1308,1121.22 1312.82,1119.71 1311.9,1156.65 	"/>
	<polygon class="st252" points="1311.9,1156.65 1331.7,1151.59 1331.5,1155.89 1311.78,1161.38 	"/>
	<polygon class="st252" points="1307.53,1157.77 1307.47,1162.58 1290.46,1167.32 1290.46,1162.13 	"/>
	<polygon class="st3" points="1314.51,1115.64 1312.44,1197.71 1308.62,1199.29 1309.67,1116.42 	"/>
	<polygon class="st3" points="1285.02,1161.44 1333.67,1149.01 1335.53,1152.72 1286.65,1166.35 	"/>
</g>
<path class="st252" d="M1175.94,1146.37c0,0,49.58-2.52,56.03,43.65c6.45,46.16-28.36,64.4-47.91,68.98
	c-19.55,4.58-54.2-6.56-60.9-38.63C1116.46,1188.29,1135.89,1149.98,1175.94,1146.37z"/>
<path class="st3" d="M1179.52,1146.37c0,0,49.58-2.52,56.03,43.65c6.45,46.16-28.36,64.4-47.91,68.98
	c-19.55,4.58-54.2-6.56-60.9-38.63C1120.05,1188.29,1139.48,1149.98,1179.52,1146.37z"/>
<path class="st248" d="M1179.85,1159.86c0,0,37.8-1.92,42.72,33.28s-21.62,49.1-36.53,52.59c-14.91,3.49-41.32-5-46.43-29.45
	C1134.5,1191.82,1149.32,1162.61,1179.85,1159.86z"/>
<polygon class="st252" points="1157.94,1181.34 1163.25,1181.34 1183.98,1203 1169.28,1163.98 1175.7,1170.38 1186.9,1205.28 
	1185.39,1205.28 1184.6,1206.6 "/>
<circle class="st252" cx="1184.61" cy="1204.91" r="3.37"/>
<path class="st11" d="M787.83,1387.77c-6.71-31.17,9.31-39.58,9.74-47.16c0,0-27.43,11.63-25.77,31.94l-6.34-22.64
	c0,0,12.47-22.64,0.92-44.96c0,0-10.27,56.25-20.6,55.6c0,0,6.43-19.71-1.9-27.54c0,0-9.89,28.43-11.74,36.04
	C725.33,1397.13,790.98,1402.52,787.83,1387.77z"/>
<path class="st11" d="M1391.09,1396.46c-19.94-29.54-6.83-44.93-9.54-52.97c0,0-23.61,23.49-13.42,43.86l-16-20.84
	c0,0,3.5-28.68-17.77-47.01c0,0,12.78,62.61,1.8,66.24c0,0-1.54-23.12-13.44-27.77c0,0,1.58,33.61,2.84,42.27
	C1330.17,1432.2,1400.51,1410.45,1391.09,1396.46z"/>
<path class="st11" d="M800.95,1436.34c0,0,7.22-53.31,19.56-59.41c0,0-2.21,43.63,5.44,48.88s22.15-36.99,22.15-36.99
	s10.5,31.63-1.44,44.45S800.95,1436.34,800.95,1436.34z"/>
<path class="st11" d="M1106.64,1479.46c0,0,6.5-48.03,17.62-53.53c0,0-1.99,39.31,4.9,44.04s19.96-33.33,19.96-33.33
	s9.46,28.5-1.3,40.05C1137.07,1488.24,1106.64,1479.46,1106.64,1479.46z"/>
<path class="st11" d="M731.96,1670.46c0,0-4.7-34.73-12.74-38.7c0,0,1.44,28.43-3.54,31.84s-14.43-24.1-14.43-24.1
	s-6.84,20.61,0.94,28.95S731.96,1670.46,731.96,1670.46z"/>
<path class="st11" d="M992.82,1532.99c0,0,39.53-58.1,27.07-90.53c0,0-35.63,77.93-52.95,77.22c-10.35-0.42-14.74-45.85-14.74-45.85
	s-19.43,31.76-9.69,48.72C952.26,1539.51,992.82,1532.99,992.82,1532.99z"/>
<path class="st11" d="M1102.33,1488.34c0,0-19.55-12.99-20.46-45.95c0,0,27.98,39.54,39.55,42.74
	C1133,1488.32,1102.33,1488.34,1102.33,1488.34z"/>
<polygon class="st250" points="939.24,1162.13 1378.43,1060.59 1378.43,1040.48 938.18,1138.44 "/>
</svg>
