<svg id="Capa_1" enable-background="new 0 0 512 512" height="512" viewBox="0 0 512 512" width="512" xmlns="http://www.w3.org/2000/svg"><g><g fill="#4de600"><path d="m382.392 398.392h64v32h-64z" transform="matrix(.707 .707 -.707 .707 414.392 -171.647)"/><path d="m415.196 319.196h64v32h-64z"/><path d="m303.196 431.196h64v32h-64z" transform="matrix(0 1 -1 0 782.392 112)"/><path d="m65.608 81.608h64v32h-64z" transform="matrix(-.707 -.707 .707 -.707 97.608 235.647)"/><path d="m144.804 48.804h64v32h-64z" transform="matrix(0 -1 1 0 112 241.608)"/><path d="m32.804 160.804h64v32h-64z" transform="matrix(-1 0 0 -1 129.608 353.608)"/></g><path d="m502.666 54.588c12.445-12.445 12.445-32.81 0-45.255s-32.81-12.445-45.255 0l-65.647 65.647-11.314 33.941-33.941 11.314-22.627 22.627c-12.445 12.445-12.445 32.81 0 45.255s32.81 12.445 45.255 0l22.627-22.627 11.314-33.941 33.941-11.314z" fill="#c8fa64"/><path d="m188.118 369.137c12.445-12.445 12.445-32.81 0-45.255s-32.81-12.445-45.255 0l-22.627 22.627-11.314 33.941-33.941 11.314-65.647 65.648c-12.445 12.445-12.445 32.81 0 45.255s32.81 12.445 45.255 0l65.647-65.647 11.314-33.941 33.941-11.314z" fill="#c8fa64"/><path d="m391.764 74.981-11.314 33.941-33.941 11.314c-12.445-12.445-32.81-12.445-45.255 0l-45.254 45.254-45.255-45.255 45.255-45.254c37.562-37.563 98.204-37.561 135.764 0z" fill="#4de600"/><path d="m437.019 256-45.255 45.255-45.254-45.255 45.255-45.255c12.445-12.445 12.445-32.81 0-45.255l11.314-33.941 33.941-11.314c37.56 37.561 37.562 98.203-.001 135.765z" fill="#4de600"/><path d="m120.235 346.51-11.314 33.941-33.941 11.314c-37.561-37.561-37.561-98.204 0-135.764l45.255-45.255 45.255 45.254-45.255 45.255c-12.444 12.445-12.444 32.81 0 45.255z" fill="#4de600"/><path d="m301.255 391.764-45.255 45.255c-37.561 37.561-98.204 37.561-135.764 0l11.314-33.941 33.941-11.314c12.445 12.445 32.81 12.445 45.255 0l45.254-45.254z" fill="#4de600"/><path d="m359.764 88.235h64v64h-64z" fill="#0c0" transform="matrix(.707 -.707 .707 .707 29.726 312.236)"/><path d="m88.235 359.764h64v64h-64z" fill="#0c0" transform="matrix(.707 -.707 .707 .707 -241.803 199.765)"/></g></svg>