<svg version="1.2" baseProfile="tiny-ps" xmlns="http://www.w3.org/2000/svg" viewBox="0 0 512 512" width="512" height="512">
	<title>sidebar_logo_xmas_2021-svg</title>
	<style>
		tspan { white-space:pre }
		.shp0 { fill: #95c11f } 
		.shp1 { fill: #008d36 } 
		.shp2 { fill: #dc9f12 } 
		.shp3 { fill: #f4df61 } 
		.shp4 { fill: #bd1818 } 
		.shp5 { fill: #e52320 } 
		.shp6 { fill: #1d1d1b } 
		.shp7 { fill: #662483 } 
		.shp8 { fill: #36a9e1 } 
		.shp9 { fill: #ef83b3 } 
		.shp10 { fill: #fcea10 } 
		.shp11 { fill: none;stroke: #1d1d1b;stroke-width: 5.362 } 
	</style>
	<g id="Layer">
		<g id="Layer_2">
			<g id="Layer_1-2">
				<path id="Layer" class="shp0" d="M256.7 154.77C248 154.42 247.2 157.79 243.48 160.84C239.76 163.88 234.83 165.62 234.83 158.63C234.83 151.64 230.79 153.59 222 157.34C216.41 159.72 208.39 163.14 214.52 149.95C218.77 140.81 203.5 152.47 196.99 149.22C236.2 122.49 256.7 52.45 256.7 52.45L256.7 154.77Z" />
				<path id="Layer" class="shp1" d="M256.7 52.45C256.7 52.45 277.2 122.49 316.41 149.22C309.9 152.47 294.63 140.81 298.88 149.95C305.01 163.14 296.99 159.72 291.4 157.34C282.6 153.59 278.57 151.64 278.57 158.63C278.57 165.62 273.63 163.88 269.92 160.84C266.2 157.79 263.76 154.49 256.7 154.77L256.7 52.45Z" />
				<path id="Layer" class="shp2" d="M294.49 39.33L275.59 57.77L280.06 83.81L256.7 71.52L256.7 11.85L268.38 35.53L294.49 39.33L294.49 39.33Z" />
				<path id="Layer" class="shp3" d="M218.91 39.33L245.02 35.53L256.7 11.85L256.7 71.52L233.34 83.81L237.8 57.77L218.91 39.33L218.91 39.33Z" />
				<path id="Layer" class="shp4" d="M30.07 102.81L42.64 111.58L42.64 123.32L30.07 127.63L30.07 102.81L30.07 102.81Z" />
				<path id="Layer" class="shp4" d="M77.6 86.93L90.17 95.91L90.17 106.99L77.6 111.3L77.6 86.93L77.6 86.93Z" />
				<path id="Layer" class="shp5" d="M482.22 102.81L482.22 127.63L469.66 123.32L469.66 111.3L482.22 102.81L482.22 102.81Z" />
				<path id="Layer" class="shp5" d="M434.69 86.93L434.69 111.3L422.13 106.99L422.13 95.61L434.69 86.93L434.69 86.93Z" />
				<path id="Layer" class="shp5" d="M380.39 92.65L380.39 92.65L380.39 483.64L348.36 460.7L348.36 161.14L256.18 227.77L256.18 202.16L348.36 138.03L348.36 107.35L348.36 91.74L380.39 69.14L380.39 92.65L380.39 92.65Z" />
				<path id="Layer" class="shp4" d="M256.18 202.16L256.18 227.77L163.77 161.73L163.77 460.77L131.9 483.64L131.9 107.18L131.9 92.65L131.9 69.14L163.77 92.4L163.77 107.35L163.77 137.99L163.93 137.98L256.18 202.16L256.18 202.16Z" />
				<path id="Layer" class="shp5" d="M256.18 227.77L256.18 404.72L131.91 310.51L131.91 483.64L36.8 467.87L36.8 218.1L8.57 197.85L8.57 135.02L8.57 135.02L8.57 109.95L30.07 102.81L30.07 127.63L52.58 119.9L52.58 95.29L77.6 86.93L77.6 111.3L99.88 103.65L99.88 79.05L131.91 69.14L131.91 107.18L131.91 107.18L131.91 138.96L256.18 227.77L256.18 227.77Z" />
				<path id="Layer" class="shp4" d="M482.22 102.81L503.72 109.95L503.72 135.02L503.72 137.98L503.72 197.82L474.76 218.1L474.76 472.26L380.39 483.64L380.39 309.01L256.18 404.72L256.18 227.77L380.39 137.98L380.39 107.18L380.39 92.65L380.39 69.14L412.41 79.05L412.41 103.65L434.69 111.3L434.69 86.93L459.71 95.29L459.71 119.9L482.22 127.63L482.22 102.81L482.22 102.81Z" />
				<path id="Layer" class="shp0" d="M71.07 145.62C75.17 140.4 87.72 133.15 92.93 137.26C98.15 141.37 94.07 155.28 89.96 160.51C88.01 163.05 85.11 164.71 81.93 165.11C78.74 165.51 75.53 164.61 73 162.63C70.48 160.64 68.85 157.72 68.49 154.53C68.13 151.34 69.05 148.13 71.07 145.62L71.07 145.62Z" />
				<path id="Layer" class="shp6" d="M71.36 174.12L62.19 166.9L69.4 157.72L78.57 164.94L71.36 174.12Z" />
				<path id="Layer" class="shp7" d="M107.14 212.71C105.52 219.16 97.03 230.91 90.57 229.27C84.11 227.64 82.19 213.28 83.81 206.85C84.56 203.73 86.53 201.03 89.27 199.37C92.02 197.71 95.32 197.21 98.43 198C101.54 198.78 104.21 200.78 105.85 203.54C107.48 206.31 107.94 209.62 107.13 212.72L107.14 212.71Z" />
				<path id="Layer" class="shp6" d="M95.26 186.81L106.58 189.66L103.73 200.99L92.41 198.14L95.26 186.81Z" />
				<path id="Layer" class="shp8" d="M128.85 169.47C128.62 162.82 133.54 149.2 140.18 148.96C146.81 148.72 152.67 162 152.88 168.64C152.99 171.83 151.83 174.93 149.66 177.27C147.48 179.6 144.47 180.97 141.28 181.08C138.1 181.19 135 180.03 132.66 177.85C130.33 175.67 128.96 172.66 128.85 169.47L128.85 169.47Z" />
				<path id="Layer" class="shp6" d="M147.43 191.07L135.76 191.47L135.36 179.8L147.03 179.39L147.43 191.07Z" />
				<path id="Layer" class="shp9" d="M211.21 199.14C213.9 205.21 214.43 219.7 208.35 222.39C202.28 225.08 191.91 214.96 189.21 208.88C187.78 205.94 187.6 202.55 188.72 199.48C189.84 196.41 192.16 193.93 195.15 192.6C198.13 191.28 201.52 191.23 204.55 192.46C207.57 193.69 209.96 196.1 211.18 199.14L211.21 199.14Z" />
				<path id="Layer" class="shp6" d="M185.92 186.05L196.59 181.32L201.31 192.01L190.64 196.73L185.92 186.05Z" />
				<path id="Layer" class="shp10" d="M27.87 152.97C21.49 154.8 7.08 153.33 5.25 146.93C3.42 140.54 14.87 131.66 21.25 129.82C24.31 128.94 27.6 129.32 30.39 130.87C33.18 132.41 35.24 135.01 36.12 138.08C37 141.14 36.62 144.44 35.08 147.23C33.53 150.02 30.94 152.08 27.87 152.96L27.87 152.97Z" />
				<path id="Layer" class="shp6" d="M44.3 129.7L47.52 140.93L36.3 144.15L33.09 132.92L44.3 129.7Z" />
				<path id="Layer" class="shp10" d="M401.95 350.27C398.43 344.63 395.87 330.36 401.52 326.84C407.17 323.31 418.84 331.88 422.36 337.51C424.04 340.22 424.59 343.49 423.87 346.6C423.16 349.71 421.23 352.41 418.53 354.1C415.83 355.79 412.56 356.34 409.45 355.62C406.35 354.9 403.65 352.98 401.96 350.27L401.95 350.27Z" />
				<path id="Layer" class="shp10" d="M348.04 145.06C354.26 142.73 368.72 143.04 371.07 149.26C373.42 155.48 362.71 165.26 356.49 167.59C353.51 168.72 350.2 168.61 347.3 167.29C344.39 165.97 342.13 163.55 341.01 160.56C339.89 157.57 340 154.26 341.32 151.35C342.64 148.44 345.06 146.18 348.04 145.06L348.04 145.06Z" />
				<path id="Layer" class="shp0" d="M342.73 230.36C338.17 235.2 325.03 241.29 320.2 236.73C315.37 232.17 320.68 218.68 325.23 213.84C327.42 211.52 330.44 210.17 333.63 210.07C336.82 209.98 339.91 211.16 342.23 213.35C344.55 215.54 345.9 218.56 346 221.75C346.09 224.94 344.91 228.04 342.73 230.36L342.73 230.36Z" />
				<path id="Layer" class="shp0" d="M432.68 304.17C426.43 301.96 415.54 292.4 417.75 286.13C419.96 279.86 434.43 279.26 440.69 281.47C443.7 282.54 446.16 284.75 447.54 287.63C448.91 290.51 449.09 293.82 448.03 296.83C446.96 299.84 444.75 302.31 441.87 303.68C439 305.06 435.69 305.24 432.69 304.17L432.68 304.17Z" />
				<path id="Layer" class="shp6" d="M343.9 201.21L352.8 208.77L345.26 217.68L336.36 210.12L343.9 201.21Z" />
				<path id="Layer" class="shp7" d="M99.35 343.25C102.65 337.48 114.02 328.5 119.78 331.81C125.54 335.12 123.5 349.49 120.21 355.24C118.6 357.96 115.98 359.94 112.92 360.75C109.86 361.56 106.61 361.13 103.87 359.55C101.13 357.97 99.11 355.38 98.27 352.33C97.43 349.27 97.82 346.01 99.36 343.25L99.35 343.25Z" />
				<path id="Layer" class="shp7" d="M387.5 205.35C388.9 198.86 397.01 186.84 403.49 188.24C409.98 189.64 412.41 203.94 411.01 210.44C410.33 213.56 408.45 216.28 405.77 218.01C403.09 219.74 399.83 220.33 396.71 219.66C393.6 218.99 390.87 217.1 389.15 214.42C387.42 211.73 386.83 208.47 387.5 205.35L387.5 205.35Z" />
				<path id="Layer" class="shp7" d="M407.33 402.54C408.24 409.13 404.74 423.2 398.18 424.1C391.62 425.01 384.42 412.46 383.51 405.87C383.12 402.74 383.99 399.58 385.91 397.07C387.83 394.57 390.66 392.92 393.79 392.49C396.91 392.05 400.08 392.86 402.61 394.75C405.15 396.63 406.84 399.43 407.33 402.56L407.33 402.54Z" />
				<path id="Layer" class="shp6" d="M399.74 230.75L388.42 227.9L391.27 216.57L402.58 219.42L399.74 230.75Z" />
				<path id="Layer" class="shp8" d="M55.68 361.51C50.3 365.39 36.24 368.91 32.35 363.53C28.47 358.14 36.23 345.89 41.59 341.99C44.18 340.13 47.4 339.36 50.54 339.87C53.69 340.37 56.51 342.11 58.38 344.7C60.24 347.29 61.01 350.51 60.5 353.66C60 356.81 58.26 359.64 55.67 361.5L55.68 361.51Z" />
				<path id="Layer" class="shp8" d="M462.79 248.18C463.92 254.73 460.9 268.91 454.36 270.05C447.82 271.18 440.22 258.83 439.09 252.28C438.6 249.16 439.36 245.96 441.19 243.39C443.03 240.82 445.81 239.08 448.92 238.54C452.04 238 455.24 238.71 457.83 240.52C460.42 242.32 462.2 245.07 462.79 248.18L462.79 248.18Z" />
				<path id="Layer" class="shp8" d="M357.63 346.91C360.96 341.16 372.35 332.2 378.1 335.53C383.85 338.86 381.78 353.21 378.45 358.96C376.86 361.73 374.23 363.74 371.15 364.57C368.07 365.39 364.79 364.96 362.03 363.36C359.27 361.76 357.25 359.13 356.43 356.05C355.61 352.96 356.04 349.68 357.64 346.91L357.63 346.91Z" />
				<path id="Layer" class="shp6" d="M439.81 231.34L451.25 229.12L453.46 240.57L442.03 242.79L439.81 231.34Z" />
				<path id="Layer" class="shp0" d="M147.43 404.38C146.92 411.01 140.53 424.02 133.91 423.51C127.28 423 122.95 409.17 123.45 402.54C123.7 399.36 125.19 396.4 127.61 394.33C130.03 392.25 133.18 391.22 136.36 391.46C139.54 391.71 142.49 393.21 144.57 395.63C146.64 398.05 147.67 401.2 147.43 404.38L147.43 404.38Z" />
				<path id="Layer" class="shp9" d="M55.68 288.15C59.96 283.07 72.75 276.26 77.82 280.55C82.89 284.84 78.33 298.59 74.05 303.67C72.01 306.17 69.05 307.75 65.85 308.05C62.64 308.35 59.44 307.34 56.98 305.26C54.52 303.18 52.99 300.2 52.75 296.98C52.5 293.76 53.56 290.58 55.68 288.15L55.68 288.15Z" />
				<path id="Layer" class="shp6" d="M429.01 359.46L419.16 365.74L412.9 355.88L422.74 349.61L429.01 359.46Z" />
				<path id="Layer" class="shp6" d="M131.88 380.99L143.5 382.05L142.45 393.68L130.82 392.63L131.88 380.99Z" />
				<path id="Layer" class="shp6" d="M104.51 371.67L94.23 366.14L99.75 355.85L110.03 361.37L104.51 371.67Z" />
				<path id="Layer" class="shp6" d="M62.61 332.81L69.38 342.27L59.93 349.05L53.16 339.59L62.61 332.81Z" />
				<path id="Layer" class="shp6" d="M53.97 316.2L45.61 308.04L53.76 299.68L62.11 307.83L53.97 316.2Z" />
				<path id="Layer" class="shp6" d="M459.19 296.08L454.66 306.85L443.91 302.31L448.44 291.54L459.19 296.08Z" />
				<path id="Layer" class="shp9" d="M475.36 330.72C481.14 333.99 490.19 345.31 486.93 351.1C483.66 356.88 469.3 354.95 463.52 351.67C460.75 350.1 458.71 347.49 457.86 344.42C457 341.34 457.41 338.05 458.98 335.27C460.55 332.49 463.15 330.45 466.23 329.6C469.3 328.75 472.58 329.15 475.36 330.72L475.36 330.72Z" />
				<path id="Layer" class="shp6" d="M386.73 382.76L398.3 381.22L399.83 392.8L388.26 394.34L386.73 382.76Z" />
				<path id="Layer" class="shp6" d="M447.74 334.53L453.95 324.63L463.83 330.85L457.62 340.74L447.74 334.53Z" />
				<path id="Layer" class="shp6" d="M362.97 374.8L352.67 369.31L358.15 359L368.46 364.49L362.97 374.8Z" />
				<path id="Layer" class="shp6" d="M334.94 170.48L330.03 159.88L340.61 154.96L345.53 165.56L334.94 170.48Z" />
				<path id="Layer" class="shp11" d="M208.16 168.75C189.81 195.31 116.73 195.71 90.78 186.03C64.83 176.36 53.74 157.17 42.64 123.32" />
				<path id="Layer" class="shp11" d="M474.76 220.63C465.09 220.77 435.36 230.7 423.37 231.84C397.08 234.35 382.35 229.92 360.15 215.6C337.95 201.29 339.65 178.6 323.85 155.09" />
				<path id="Layer" class="shp11" d="M163.77 383.17C144.6 383.17 101.4 376.17 87.53 362.27C67.94 342.66 55.74 308.59 36.8 308.59" />
				<path id="Layer" class="shp11" d="M474.76 276.39C448.41 276.39 462.21 331.26 433.74 357.78C433.74 357.78 409.09 381.36 379.39 381.2C363.21 381.11 352.56 369.36 348.37 369.36" />
			</g>
		</g>
	</g>
</svg>