<svg id="Layer_1" height="512" viewBox="0 0 256 256" width="512" xmlns="http://www.w3.org/2000/svg"><g><g><g><g><g><path d="m186.04 148.489-37.208-21.482 37.209-21.483c4.982-2.877 6.689-9.246 3.812-14.228-2.876-4.981-9.247-6.688-14.228-3.812l-37.209 21.483v-41.053c0-5.752-4.664-10.416-10.416-10.416s-10.416 4.664-10.416 10.416v41.053l-37.204-21.48c-4.982-2.876-11.353-1.169-14.228 3.812-2.877 4.982-1.17 11.352 3.812 14.228l37.204 21.48-37.212 21.484c-4.982 2.877-6.689 9.246-3.812 14.228 1.93 3.341 5.43 5.21 9.03 5.21 1.767 0 3.558-.451 5.198-1.398l37.212-21.484v41.048c0 5.752 4.664 10.416 10.416 10.416s10.416-4.664 10.416-10.416v-41.048l37.208 21.482c1.641.947 3.431 1.398 5.198 1.398 3.6 0 7.102-1.868 9.03-5.21 2.876-4.982 1.17-11.351-3.812-14.228z" fill="#377de2"/></g></g><g><g><g><g><path d="m189.139 204.308c-4.6 0-8.808-3.07-10.055-7.723l-10.01-37.358c-1.489-5.556 1.809-11.267 7.365-12.756l37.359-10.01c5.554-1.492 11.268 1.809 12.756 7.365 1.489 5.556-1.808 11.267-7.365 12.756l-27.298 7.314 7.314 27.298c1.489 5.556-1.809 11.267-7.365 12.756-.902.242-1.809.358-2.701.358z" fill="#478cf7"/></g></g></g><g><g><g><path d="m37.781 116.921c-4.6 0-8.808-3.07-10.055-7.723-1.489-5.556 1.809-11.267 7.365-12.756l27.298-7.314-7.314-27.298c-1.489-5.556 1.809-11.267 7.365-12.756 5.555-1.49 11.267 1.81 12.756 7.365l10.01 37.358c1.489 5.556-1.809 11.267-7.365 12.756l-37.358 10.01c-.902.242-1.81.357-2.702.358z" fill="#478cf7"/></g></g></g></g><g><g><g><g><path d="m66.861 204.308c-.892 0-1.798-.116-2.702-.358-5.557-1.489-8.854-7.201-7.365-12.756l7.314-27.298-27.298-7.314c-5.557-1.489-8.854-7.201-7.365-12.756 1.489-5.556 7.201-8.852 12.756-7.365l37.358 10.01c5.557 1.489 8.855 7.201 7.365 12.756l-10.01 37.358c-1.245 4.653-5.454 7.722-10.053 7.723z" fill="#478cf7"/></g></g></g><g><g><g><path d="m218.219 116.921c-.892 0-1.798-.116-2.702-.358l-37.358-10.01c-5.557-1.489-8.854-7.201-7.365-12.756l10.01-37.358c1.49-5.556 7.196-8.853 12.756-7.365 5.557 1.489 8.855 7.201 7.365 12.756l-7.314 27.298 27.298 7.314c5.557 1.489 8.854 7.201 7.365 12.756-1.248 4.653-5.457 7.723-10.055 7.723z" fill="#478cf7"/></g></g></g></g><g><g><g><g><path d="m128 78.377c-2.666 0-5.331-1.017-7.365-3.05l-27.349-27.349c-4.068-4.068-4.068-10.663 0-14.731 4.069-4.067 10.662-4.067 14.731 0l19.983 19.984 19.983-19.983c4.069-4.067 10.662-4.067 14.731 0 4.068 4.068 4.068 10.663 0 14.731l-27.348 27.349c-2.035 2.032-4.7 3.049-7.366 3.049z" fill="#478cf7"/></g></g></g><g><g><g><path d="m155.349 225.802c-2.666 0-5.331-1.017-7.365-3.05l-19.984-19.983-19.983 19.983c-4.069 4.067-10.662 4.067-14.731 0-4.068-4.068-4.068-10.663 0-14.731l27.348-27.348c4.069-4.067 10.662-4.067 14.731 0l27.348 27.348c4.068 4.068 4.068 10.663 0 14.731-2.033 2.033-4.698 3.05-7.364 3.05z" fill="#478cf7"/></g></g></g></g></g></g><g><g><circle cx="128" cy="128" fill="#ffa91a" r="40.787"/></g><g><g><path d="m97.99 147.58c-.7 0-1.36-.38-1.721-.98 0 0 0-.01-.01-.01-.27-.46-.34-1-.21-1.521.14-.51.46-.949.92-1.22.92-.54 2.2-.2 2.74.7v.01c.27.46.35 1 .21 1.521-.13.52-.46.949-.92 1.22-.31.179-.659.28-1.009.28zm-3.23-7.301c-.88 0-1.65-.569-1.91-1.409-1.09-3.5-1.64-7.16-1.64-10.87.01-20.28 16.51-36.78 36.79-36.79 7.109 0 14.01 2.04 19.96 5.899.92.601 1.189 1.841.59 2.771-.58.89-1.87 1.17-2.77.59-5.301-3.44-11.45-5.26-17.78-5.26-8.74 0-16.97 3.42-23.17 9.62-6.2 6.199-9.62 14.43-9.62 23.17 0 3.3.49 6.56 1.46 9.689v.011c.16.5.11 1.04-.14 1.51s-.671.819-1.181.97c-.189.07-.389.099-.589.099z" fill="#ffc91d"/></g></g><g><path d="m151.406 94.594c4.651 6.625 7.381 14.697 7.381 23.406 0 22.526-18.261 40.787-40.787 40.787-8.709 0-16.78-2.73-23.406-7.381 7.378 10.51 19.589 17.381 33.406 17.381 22.526 0 40.787-18.261 40.787-40.787 0-13.816-6.871-26.028-17.381-33.406z" fill="#f79219"/></g><g><path d="m154.232 96.768c5.962 7.092 9.554 16.242 9.554 26.232 0 22.526-18.261 40.787-40.787 40.787-9.99 0-19.141-3.592-26.232-9.554 7.482 8.898 18.696 14.554 31.232 14.554 22.526 0 40.787-18.261 40.787-40.787.001-12.536-5.655-23.75-14.554-31.232z" fill="#ef7816"/></g><g><g><g><path d="m128 100.773c-3.79 0-6.861 3.072-6.861 6.861v23.156c0 3.789 3.072 6.861 6.861 6.861 3.79 0 6.862-3.072 6.862-6.861v-23.156c0-3.79-3.073-6.861-6.862-6.861z" fill="#e63950"/></g><g><path d="m128 141.504c-3.79 0-6.861 3.072-6.861 6.861 0 3.79 3.072 6.861 6.861 6.861 3.79 0 6.862-3.072 6.862-6.861s-3.073-6.861-6.862-6.861z" fill="#e63950"/></g></g></g></g></g></svg>