<svg height="512" viewBox="0 0 128 128" width="512" xmlns="http://www.w3.org/2000/svg"><g><path d="m21.199 113.006h85.603v7.691h-85.603z" fill="#898989"/><path d="m58.137 86.792h11.725v9.342h-11.725z" fill="#f4cbbd"/><g fill="#e55151"><path d="m41.265 93.56v19.446h-20.065c1.873-11.701 8.078-18.706 20.065-19.446z"/><path d="m86.735 93.56v19.446h20.065c-1.873-11.701-8.078-18.706-20.065-19.446z"/></g><g><path d="m81.468 118.719a73.573 73.573 0 0 1 -34.936 0 6.857 6.857 0 0 1 -5.267-6.657v-10.62a5.462 5.462 0 0 1 5.463-5.462h34.544a5.462 5.462 0 0 1 5.463 5.462v10.62a6.857 6.857 0 0 1 -5.267 6.657z" fill="#afaeac"/><path d="m64 95.979h-11.9v4.352c.329 7.461 5.653 11.15 11.9 10.848 6.244.3 11.568-3.387 11.9-10.848v-4.352z" fill="#898989"/></g><g fill="#f2d961"><path d="m46.651 112.416a5.386 5.386 0 1 1 -5.386-5.386 5.386 5.386 0 0 1 5.386 5.386z"/><path d="m92.117 112.618a5.386 5.386 0 1 1 -5.181-5.584 5.386 5.386 0 0 1 5.181 5.584z"/></g><path d="m41.78 44.89v21.383a22.643 22.643 0 0 0 12.338 20.259 21.743 21.743 0 0 0 3.291 1.352 22.094 22.094 0 0 0 13.182 0 21.743 21.743 0 0 0 3.291-1.352 22.643 22.643 0 0 0 12.338-20.259v-21.383z" fill="#fcd4c3"/><g><path d="m62.57 27.213s.953-13.155 16.4-16.777a44.528 44.528 0 0 0 8.9-3.045 1.812 1.812 0 0 1 2.659 1.824c-.427 2.95-2.17 7.241-7.935 11.357-2.8 2-6.622 2.876-10.011 3.5-2.22.406-5.252 1.2-7.244 3.718z" fill="#e55151"/><path d="m93.628 55.841v13.779c-.871 11.115-5.872 16.263-10.989 19.43a2.669 2.669 0 0 1 -4.079-2.328l.2-7.445a5.764 5.764 0 0 1 1.311-3.523l2.694-3.282a8.308 8.308 0 0 0 1.877-5.264v-12.814a5.566 5.566 0 0 0 -2.925-4.9l-17.712-9.55-17.721 9.556a5.564 5.564 0 0 0 -2.925 4.9v12.808a8.308 8.308 0 0 0 1.877 5.264l2.694 3.282a5.764 5.764 0 0 1 1.311 3.523l.2 7.445a2.667 2.667 0 0 1 -4.079 2.328c-5.117-3.167-10.119-8.315-10.989-19.43v-13.779a29.628 29.628 0 0 1 59.256 0z" fill="#898989"/></g><path d="m92.807 47.656-2.445-6.689a2.07 2.07 0 0 0 -1.757-1.367c-9.717-.8-18.038-6.574-24.605-13.054-6.567 6.48-14.888 12.254-24.6 13.054a2.07 2.07 0 0 0 -1.757 1.369l-2.445 6.689a2.106 2.106 0 0 0 1.928 2.82 34.045 34.045 0 0 1 26.874 13.912 34.045 34.045 0 0 1 26.879-13.914 2.106 2.106 0 0 0 1.928-2.82z" fill="#c4c4c4"/><g fill="#898989"><g><path d="m63.952 54.987a1.75 1.75 0 0 1 -1.75-1.75v-15.537a1.75 1.75 0 0 1 3.5 0v15.537a1.75 1.75 0 0 1 -1.75 1.75z"/><path d="m55.659 50.315a1.75 1.75 0 0 1 -1.75-1.75v-6.765a1.75 1.75 0 0 1 3.5 0v6.767a1.75 1.75 0 0 1 -1.75 1.748z"/><path d="m72.246 50.315a1.749 1.749 0 0 1 -1.75-1.75v-6.765a1.75 1.75 0 0 1 3.5 0v6.767a1.749 1.749 0 0 1 -1.75 1.748z"/><path d="m47.461 48.219a1.75 1.75 0 0 1 -1.75-1.75v-1.62a1.75 1.75 0 0 1 3.5 0v1.62a1.75 1.75 0 0 1 -1.75 1.75z"/><path d="m80.539 48.219a1.749 1.749 0 0 1 -1.75-1.75v-1.62a1.75 1.75 0 0 1 3.5 0v1.62a1.749 1.749 0 0 1 -1.75 1.75z"/></g><g><path d="m54.82 73a1.75 1.75 0 0 1 -1.75-1.75v-2.3a1.75 1.75 0 0 1 3.5 0v2.3a1.749 1.749 0 0 1 -1.75 1.75z"/><path d="m73.18 73a1.749 1.749 0 0 1 -1.75-1.75v-2.3a1.75 1.75 0 0 1 3.5 0v2.3a1.75 1.75 0 0 1 -1.75 1.75z"/></g></g></g></svg>