<svg xmlns="http://www.w3.org/2000/svg" viewBox="0 0 512 512" width="512" height="512">
	<style>
		tspan { white-space:pre }
		.shp0 { fill: #b56d3c;stroke: #c100ff;paint-order:stroke fill markers;stroke-width: 50 } 
		.shp1 { fill: #8d5c4d } 
	</style>
	<g id="Layer">
		<path id="Layer" class="shp0" d="M383.92 142.08L294.54 142.08L294.54 52.71C294.54 45.69 288.85 40 281.83 40L230.79 40C223.77 40 218.08 45.69 218.08 52.71L218.08 142.08L128.71 142.08C121.69 142.08 116 147.77 116 154.79L116 205.83C116 212.85 121.69 218.54 128.71 218.54L218.08 218.54L218.08 461.04C218.08 468.06 223.77 473.75 230.79 473.75L281.83 473.75C288.85 473.75 294.54 468.06 294.54 461.04L294.54 218.54L383.92 218.54C390.94 218.54 396.63 212.85 396.63 205.83L396.63 154.79C396.63 147.77 390.94 142.08 383.92 142.08Z" />
		<path id="Layer" class="shp1" d="M383.92 142.08L294.54 142.08L294.54 52.71C294.54 45.69 288.85 40 281.83 40L256.31 40L256.31 473.75L281.83 473.75C288.85 473.75 294.54 468.06 294.54 461.04L294.54 218.54L383.92 218.54C390.94 218.54 396.63 212.85 396.63 205.83L396.63 154.79C396.63 147.77 390.94 142.08 383.92 142.08Z" />
	</g>
</svg>