<svg xmlns="http://www.w3.org/2000/svg" viewBox="0 0 280 280" width="280" height="280">
	<style>
		tspan { white-space:pre }
		.shp0 { fill: #cc4b4c } 
		.shp1 { fill: #bdc3c7 } 
		.shp2 { fill: #1892d2 } 
		.shp3 { fill: #1984bc } 
	</style>
	<g id="Layer">
	</g>
	<path id="Layer" class="shp0" d="M237 38.6L237 202.65L140.5 279.85L44 202.65L44 38.6C121.2 53.07 140.5 0 140.5 0C140.5 0 159.8 53.07 237 38.6Z" />
	<path id="Layer" class="shp1" d="M63.3 193.37L63.3 60.27C65.34 60.36 67.36 60.4 69.36 60.4C104.64 60.4 126.99 46.87 140.5 33.38C154.02 46.87 176.37 60.4 211.64 60.4L211.65 60.4C213.64 60.4 215.66 60.36 217.7 60.27L217.7 193.37L140.5 255.14L63.3 193.37Z" />
	<path id="Layer" class="shp2" d="M192.8 95.16C173.84 76.2 155.05 84.49 140 98.01C124.95 84.49 106.31 76.05 87.2 95.16C72.3 110.05 72.23 133.98 87.2 148.79C139.84 196.14 139.82 196.05 139.82 196.05C139.82 196.05 139.9 196.21 192.79 148.79C207.77 133.98 207.7 110.05 192.8 95.16Z" />
	<path id="Layer" class="shp3" d="M140 98.01L139.96 97.98L139.96 195.94C140.81 195.23 147.01 189.83 192.79 148.78C207.77 133.98 207.7 110.05 192.79 95.16C173.84 76.2 155.05 84.49 140 98.01Z" />
</svg>