<svg height="512" viewBox="0 0 128 128" width="512" xmlns="http://www.w3.org/2000/svg"><g><path d="m72.165 121 40.371-31.258-9.857-18.1-2.883-31.469-49.705-33.173 27.022 43.812-6.349 14.755 6.349 24.239z" fill="#616670"/><path d="m72.165 121 4.948-31.194-6.349-24.239 6.349-14.755-27.022-43.812-13.842 17.202-.263 16.862-20.523 30.855 16.05 29.438z" fill="#707789"/><path d="m99.796 40.173-22.683 10.639-6.349 14.755 31.915 6.075z" fill="#555960"/><path d="m72.165 121 40.371-31.258-35.423.064z" fill="#555960"/><g fill="#616670"><path d="m55.86 67.98a1.749 1.749 0 0 1 -1.44.76 1.729 1.729 0 0 1 -.99-.31l-4.33-2.99a1.677 1.677 0 0 1 -.68-.93l-4.73-15.61-8.67-6.38.97-1.46.03-2.14 10.21 7.51a1.711 1.711 0 0 1 .64.9l4.72 15.58 3.83 2.64a1.749 1.749 0 0 1 .44 2.43z"/><path d="m45.37 88.7-1.27 7.64a1.733 1.733 0 0 1 -.96 1.28l-9.62 4.71-2.01-.97-.84-1.54 10.13-4.95 1.12-6.74a1.748 1.748 0 1 1 3.45.57z"/></g></g></svg>