<svg xmlns="http://www.w3.org/2000/svg" viewBox="0 0 512 512" width="512" height="512">
	<defs>
		<linearGradient id="grd1" gradientUnits="userSpaceOnUse"  x1="256" y1="512" x2="256" y2="0">
			<stop offset="0" stop-color="#000000"  />
			<stop offset="1" stop-color="#000000"  />
		</linearGradient>
	</defs>
	<style>
		tspan { white-space:pre }
		.shp0 { fill: url(#grd1) } 
		.shp1 { fill: #bf4747;stroke: #ffffff;paint-order:stroke fill markers;stroke-width: 16 } 
	</style>
	<g id="Layer">
		<g id="Layer">
			<path id="Layer" class="shp0" d="M239.74 422.06C155.77 414.59 90 342.09 90 257C90 201.44 118.44 148.2 163.4 117.86L183 144C190.57 154.09 206.49 150.87 209.55 138.64L239.55 18.64C241.92 9.17 234.74 0 225 0L105 0C92.67 0 85.59 14.12 93 24L109.24 45.65C41.47 93.13 0 172.63 0 257C0 385.34 95.32 494.5 221.72 510.9C229.23 511.88 236.35 507.09 238.2 499.67L252.96 440.64C255.19 431.7 248.91 422.88 239.74 422.06L239.74 422.06ZM448.17 86.13C407.16 39.19 351.09 8.99 290.28 1.1C282.73 0.11 275.65 4.95 273.8 12.33L259.04 71.36C256.81 80.3 263.09 89.12 272.26 89.94C356.23 97.41 422 170.35 422 256C422 311.9 394.19 363.71 348.62 394.16L329 368C321.44 357.91 305.51 361.13 302.45 373.36L272.45 493.36C270.08 502.83 277.26 512 287 512L407 512C419.33 512 426.41 497.88 419 488L402.76 466.35C433.48 444.86 459.35 416.52 478.15 383.61C500.3 344.87 512 300.74 512 256C512 193.58 489.33 133.26 448.17 86.13L448.17 86.13Z" />
		</g>
	</g>
	<path id="Layer" fill-rule="evenodd" class="shp1" d="M397 243.88L397 408.96C397 428.47 381.12 444.33 361.63 444.33L149.38 444.33C129.88 444.33 114 428.47 114 408.96L114 243.88C114 224.36 129.88 208.5 149.38 208.5L161.17 208.5L161.17 161.33C161.17 109.31 203.48 67 255.5 67C307.52 67 349.83 109.31 349.83 161.33L349.83 208.5L361.63 208.5C381.12 208.5 397 224.36 397 243.88ZM192.61 208.5L318.39 208.5L318.39 161.33C318.39 126.65 290.18 98.44 255.5 98.44C220.82 98.44 192.61 126.65 192.61 161.33L192.61 208.5ZM286.94 302.83C286.94 285.49 272.84 271.39 255.5 271.39C238.16 271.39 224.06 285.49 224.06 302.83C224.06 314.42 230.42 324.45 239.78 329.91L239.78 365.72C239.78 374.4 246.81 381.44 255.5 381.44C264.19 381.44 271.22 374.4 271.22 365.72L271.22 329.91C280.58 324.45 286.94 314.42 286.94 302.83Z" />
</svg>