<svg version="1.2" baseProfile="tiny-ps" xmlns="http://www.w3.org/2000/svg" viewBox="0 0 512 512" width="512" height="512">
	<title>9_tellus (2)-svg</title>
	<style>
		tspan { white-space:pre }
		.s0 { fill: #1f5723 } 
		.s1 { fill: #84c789 } 
		.s2 { fill: #448048 } 
		.s3 { fill: #164618 } 
		.s4 { fill: #f1f8f1 } 
		.s5 { fill: #fea613 } 
		.s6 { fill: #f9c502 } 
		.s7 { fill: #67c46a } 
		.s8 { fill: #7eca81 } 
		.s9 { fill: #cadded } 
		.s10 { fill: #ffffff } 
		.s11 { fill: #fac600 } 
		.s12 { fill: #e2772c } 
		.s13 { fill: #fff364 } 
	</style>
	<g id="Layer_6_xA0_Изображение_1_">
		<path id="Layer" class="s0" d="m256 513.39c-141.57 0-256-114.43-256-256c0-141.57 114.43-256 256-256c141.57 0 256 114.43 256 256c0 141.57-114.43 256-256 256z" />
	</g>
	<g id="Group_2_xA0_Изображение_1_">
		<path id="Layer" class="s1" d="m64.1 175.67c6.33-4.36 12.47-9.01 19.04-12.95c23.46-14.27 40.35-33.9 49.6-59.87c2.75-7.82 4.66-8.65 12.77-6.8c24.47 5.43 49 6.45 73.36-0.54c7.16-2.09 13.97-5.31 21.01-7.94c6.33-2.33 10.15 1.61 13.61 5.85c15.4 19.04 30.56 38.32 46.26 57.12c4.18 5.01-0.42 5.61-2.33 7.88c-1.55-0.12-3.88 0.42-4.6-0.36c-16-19.46-31.81-39.1-47.75-58.61c-0.66-0.78-2.69-1.37-3.58-0.96c-18.92 8.06-38.68 11.88-59.21 10.92c-12.3-0.54-24.59-2.09-36.89-2.81c-1.37-0.06-3.64 1.67-4.12 3.04c-5.73 15.64-15.1 28.95-26.56 40.77c-10.56 10.92-22.62 20-36.41 26.74c-1.07 0.54-2.45 2.81-2.15 3.34c16.35 26.98 32.95 53.9 49.48 80.82c7.64 12.47 15.1 25.01 22.68 37.48c1.55 2.39 3.1 4.78 4.66 7.16c1.61 2.81 3.22 5.55 4.89 8.36c10.21 16.35 22.26 31.16 36.35 44.47c19.46 18.44 41.42 33.01 66.13 43.45c17.43 7.34 35.57 12.47 54.49 12.71c9.79 0.12 19.82-1.31 29.25-3.82c5.91-1.55 13.43-1.85 16.71-9.43c4.3-10.03 9.85-19.52 13.73-29.72c6.45-16.95 7.82-34.8 5.79-52.58c-2.45-20.95-7.52-41.48-16.71-60.58c-5.91-12.24-12.83-23.99-19.76-35.69c-3.82-6.51-8.6-12.47-12.95-18.74c1.97-1.79 3.94-3.64 6.03-5.31c0.42-0.3 2.03 0.06 2.33 0.6c9.49 14.44 19.7 28.41 28.11 43.45c12.36 22.2 19.28 46.44 21.91 71.68c2.69 25.55 0.72 50.79-10.33 74.49c-3.7 8-8.3 15.64-12.77 23.28c-0.9 1.61-2.92 2.92-4.66 3.58c-20.11 7.04-40.65 9.85-61.96 7.1c-42.38-5.49-77.24-26.14-108.63-53.84c-23.93-21.13-41.01-47.51-57.24-74.67c-22.08-36.89-44.71-73.48-67.03-110.18c-1.01-1.67-1.67-3.46-2.51-5.25c-0.06-1.25-0.06-2.45-0.06-3.64z" />
		<path id="Layer" fill-rule="evenodd" class="s1" d="m232.96 225.22c9.79-8.71 19.46-17.43 29.31-26.02c19.82-17.43 39.75-34.8 59.57-52.29c0.72-0.66 0.84-2.33 0.84-3.52c0-3.16-0.84-6.39-0.24-9.37c1.07-5.67-4.36-15.34-10.15-16.89c-8.54-2.33-13.55-11.1-11.64-20.11c1.67-7.64 9.37-13.31 16.71-12.42c9.61 1.19 16.18 8.54 15.76 17.37c-0.06 1.13 0.54 2.51 1.25 3.34c1.85 2.09 4.06 3.82 5.91 5.91c1.91 2.09 3.4 2.98 6.74 2.27c2.57-0.54 6.09 1.25 8.54 3.04c2.57 1.85 3.4 2.39 6.45-0.12c7.94-6.51 16.65-12.06 25.19-17.85c3.16-2.15 6.98-3.46 9.97-5.85c1.79-1.43 3.58-4.06 3.7-6.27c0.48-8.36 6.92-16.71 15.52-19.22c0.12-0.06 0.24-0.06 0.36-0.12c1.67-0.72 3.4-0.78 5.19-0.78c1.13 0 1.43 0 2.27 0.12c0.54 0.06 0.72 0.12 1.49 0.24c0.06 0 0.12 0.06 0.18 0.06c10.15 2.33 15.82 8.71 17.43 18.86c0.06 0.36 0.12 0.96 0.18 1.49c0 0.24 0.06 0.48 0.06 0.72l0.06 1.85c0 0.42 0 0.9-0.06 1.31c-0.06 0.54-0.12 0.9-0.18 1.43c-1.67 9.37-9.91 17.43-19.28 17.43c-4.89 0-7.22 2.39-9.31 5.79c-7.52 12.42-18.68 20.95-30.62 28.65c-0.84 0.54-1.13 2.51-0.96 3.64c0.48 3.28 2.03 6.51 2.03 9.73c0 4.83 6.39 14.86 11.1 16.12c8 2.21 12.77 9.37 11.76 17.67c-0.84 7.4-7.7 13.49-15.4 13.61c-8.48 0.18-14.21-5.43-16.59-13.43c-1.43-4.83-5.67-8.89-8.71-13.25c-0.24-0.36-1.49 0.06-2.21-0.12c-3.88-0.9-7.7-1.91-11.58-2.87c-0.78-0.18-1.91-0.36-2.33 0.06c-28.35 24.53-56.64 49.06-84.94 73.65c-0.36 0.3-0.66 0.78-0.96 1.13c-1.13-0.48-2.45-0.72-3.4-1.49c-8.24-6.39-16.41-12.83-24.65-19.28c-1.37-1.19-2.81-2.39-4.18-3.64c-0.18-0.18-0.18-0.36-0.18-0.6zm124.15-59.69c3.22 1.19 6.39 2.33 9.61 3.52c1.97 0.48 4.54 0.24 5.73 1.43c5.73 5.79 12.53 10.74 13.79 19.94c0.24 1.91 4.6 4.36 7.04 4.42c1.67 0 4.3-4.48 3.82-5.49c-1.25-2.75-3.04-5.67-5.79-6.8c-4.89-1.97-15.4-14.56-15.64-19.82c-0.18-3.4-0.18-7.1-1.55-10.09c-2.63-5.91-0.36-13.91 5.13-17.31c10.39-6.39 20.06-13.49 26.68-24.29c3.22-5.25 6.92-11.16 15.28-10.27c2.63 0.3 5.91-1.73 8.3-3.46c6.33-4.54 5.07-16.06-1.85-19.58c-8.06-4.06-15.82 0.24-17.13 10.21c-0.72 5.61-2.39 10.09-7.46 12.95c-4.3 2.45-8.83 4.54-12.89 7.34c-8 5.55-15.88 11.28-23.58 17.25c-3.64 2.81-11.16 3.52-14.62 0.6c-1.43-0.96-2.81-1.97-4.24-2.92c-3.04-0.18-7.4 0.84-8.89-0.78c-5.97-6.27-15.52-9.85-15.46-21.13c0-2.45-4.66-5.49-7.76-6.98c-0.78-0.42-5.97 4.66-5.55 5.91c1.07 3.04 4.54 4.89 7.1 7.28c0.9 0.84 2.51 1.19 3.4 2.03c6.98 6.69 13.07 13.91 11.64 24.65c-0.3 2.33-0.42 4.72 0 6.98c1.25 6.98-1.73 11.88-6.98 16.06c-5.43 4.3-10.62 8.89-15.82 13.43c-18.8 16.35-37.48 32.89-56.4 49.12c-4.24 3.64-6.27 6.27 0 9.55c1.61 0.84 3.1 2.21 4.36 3.52c4.42 4.6 8.54 5.37 12.83-0.18c1.07-1.37 2.69-2.33 4-3.52c20.71-17.97 41.36-35.99 62.19-53.78c5.91-5.01 11.04-12.3 20.71-9.79z" />
		<path id="Layer" class="s2" d="m237.08 229.51c8.18 6.45 16.41 12.89 24.65 19.28c0.96 0.72 2.27 1.01 3.4 1.49c7.4 2.15 11.52-3.46 16.35-7.1c9.19-6.8 18.2-13.97 27.28-20.95c4.66 7.1 9.61 14.03 13.97 21.31c16.12 27.04 27.4 55.69 25.13 87.74c-0.78 11.04-4.6 21.91-7.52 32.71c-0.84 3.1-2.81 7.28-5.37 8.42c-13.19 5.73-26.98 7.64-41.3 4.6c-22.74-4.78-43.21-14.56-60.94-29.25c-12.18-10.03-24.11-20.83-33.84-33.13c-12.12-15.34-21.79-32.53-32.53-48.94c-14.33-21.91-28.47-43.87-42.92-65.66c-2.09-3.22-0.6-3.94 1.61-5.67c6.8-5.19 13.85-10.21 19.82-16.29c9.67-9.97 15.88-22.14 19.4-35.63c0.18-0.72 1.13-1.73 1.67-1.67c6.69 0.66 13.31 1.55 20 2.15c14.74 1.31 29.19 0.24 42.98-5.91c2.39-1.07 6.63-2.39 7.58-1.37c8.95 9.91 17.31 20.35 25.9 30.56c4.24 5.01 8.65 9.85 13.01 14.8c-11.7 11.4-23.4 22.74-35.04 34.14c-2.33 2.27-4.72 4.48-6.86 6.86c-0.6 0.66-0.36 2.03-0.48 3.04c0 0.24 0 0.48-0.06 0.72c1.37 1.37 2.75 2.57 4.12 3.76z" />
		<path id="Layer" class="s3" d="m330.73 203.97c4.36 6.21 9.07 12.18 12.95 18.74c6.92 11.7 13.85 23.46 19.76 35.69c9.19 19.1 14.33 39.63 16.71 60.58c2.03 17.85 0.66 35.69-5.79 52.58c-3.88 10.15-9.43 19.7-13.73 29.72c-3.28 7.58-10.74 7.88-16.71 9.43c-9.43 2.51-19.52 3.94-29.25 3.82c-18.98-0.24-37.07-5.37-54.49-12.71c-24.71-10.39-46.62-25.01-66.13-43.45c-14.03-13.31-26.14-28.05-36.35-44.47c-1.79-2.98-2.87-4.78-4.6-7.82c-1.73-2.87-3.1-5.31-4.89-7.64c-7.58-12.47-15.04-25.07-22.68-37.48c-16.47-26.92-33.07-53.84-49.48-80.82c-0.3-0.54 1.07-2.81 2.15-3.34c13.79-6.69 25.84-15.82 36.41-26.74c11.46-11.82 20.83-25.07 26.56-40.77c0.48-1.37 2.81-3.1 4.12-3.04c12.3 0.78 24.59 2.27 36.89 2.81c20.53 0.96 40.29-2.87 59.21-10.92c0.9-0.42 2.92 0.18 3.58 0.96c15.94 19.52 31.75 39.16 47.75 58.61c0.66 0.84 3.16 0.6 4.72 0.66c-3.4 3.7-6.8 7.16-10.33 10.68c-2.39 2.45-4.95 4.72-7.46 7.22c-9.67-11.76-19.4-23.88-29.19-35.45c-4.24-5.01-8.95-9.67-13.43-14.44c-0.18-1.01-0.3-2.03-0.48-3.04c-1.19 0.78-2.39 1.61-3.58 2.39c-6.69 2.69-13.13 6.21-20.06 7.94c-16.18 4.12-32.41 2.81-48.41-1.31c-3.94-1.01-5.97 0.48-6.86 4.3c-5.31 23.4-18.68 40.77-39.51 52.47c-4.48 2.51-5.49 6.8-2.63 11.22c27.34 41.78 54.73 83.56 82.13 125.28c12.42 16.71 27.28 30.56 45.96 40.11c3.58 1.79 7.16 3.58 10.8 5.37c10.51 3.94 20.71 8.95 31.52 11.64c14.68 3.64 29.78 4.24 44.53-0.48c4.18-1.31 9.13-2.92 11.64-6.09c3.58-4.48 5.67-10.39 7.64-15.94c6.39-18.15 6.69-36.83 3.58-55.57c-5.37-32.47-19.04-61.24-39.33-87.02c5.61-4.48 11.16-9.07 16.77-13.67z" />
		<path id="Layer" class="s1" d="m237.2 126.67c4.48 4.83 9.19 9.43 13.43 14.44c9.79 11.64 19.4 23.46 29.01 35.22c-1.43 1.55-2.87 3.1-4.24 4.72c-4.36-4.89-8.77-9.79-13.01-14.8c-8.6-10.21-17.01-20.65-25.9-30.56c-0.9-1.01-5.19 0.3-7.58 1.37c-13.79 6.09-28.23 7.22-42.98 5.91c-6.69-0.6-13.31-1.55-20-2.15c-0.54-0.06-1.49 1.01-1.67 1.67c-3.46 13.49-9.73 25.67-19.4 35.63c-5.91 6.09-13.01 11.1-19.82 16.29c-2.27 1.73-3.76 2.45-1.61 5.67c14.44 21.79 28.65 43.75 42.92 65.66c10.68 16.41 20.41 33.6 32.53 48.94c9.73 12.3 21.67 23.1 33.84 33.13c17.73 14.68 38.2 24.47 60.94 29.25c14.38 3.04 28.11 1.07 41.3-4.6c2.57-1.13 4.54-5.25 5.37-8.42c2.92-10.8 6.74-21.67 7.52-32.71c2.27-32.11-9.01-60.76-25.13-87.74c-4.36-7.28-9.31-14.21-13.97-21.31c1.79-1.37 3.58-2.81 5.31-4.18c20.29 25.79 33.96 54.55 39.33 87.02c3.1 18.74 2.75 37.42-3.58 55.57c-1.97 5.55-4.06 11.46-7.64 15.94c-2.51 3.16-7.46 4.78-11.64 6.09c-14.74 4.72-29.84 4.06-44.53 0.48c-10.8-2.69-21.01-7.7-31.52-11.64c-3.16-1.97-6.39-4-9.55-5.97c-13.31-10.92-26.68-21.85-39.99-32.83c-2.51-2.09-4.83-4.42-7.22-6.63c-27.4-41.78-54.79-83.5-82.13-125.28c-2.87-4.42-1.85-8.71 2.63-11.22c20.83-11.76 34.2-29.07 39.51-52.47c0.84-3.82 2.87-5.31 6.86-4.3c16.06 4.12 32.29 5.43 48.41 1.31c6.92-1.73 13.37-5.25 20.06-7.94c1.37 0.06 2.75 0.24 4.12 0.42z" />
		<path id="Layer" class="s3" d="m351.92 126.19c3.52 2.98 11.04 2.27 14.62-0.6c7.64-5.97 15.52-11.76 23.58-17.25c4.06-2.81 8.6-4.89 12.89-7.34c5.01-2.87 6.69-7.34 7.46-12.95c1.31-9.97 9.07-14.27 17.13-10.21c6.92 3.52 8.18 14.98 1.85 19.58c-2.39 1.73-5.67 3.76-8.3 3.46c-8.3-0.9-12.06 5.01-15.28 10.27c-6.63 10.8-16.29 17.91-26.68 24.29c-5.61 3.46-7.94 11.16-5.13 17.19c1.37 3.04 1.43 6.74 1.61 10.21c0.24 5.25 10.68 17.85 15.64 19.82c3.88 0.96 5.07 2.87 6.03 5.01c0.66 1.49 0.78 3.28 0.06 4.78c-0.66 1.37-1.91 2.33-4.06 2.57c-3.22 0.36-6.69-2.87-7.04-4.42c-2.03-9.07-8.12-14.15-13.79-19.94c-1.19-1.19-3.76-1.01-5.73-1.43c-2.03-1.31-3.94-2.81-6.09-3.82c-0.96-0.42-2.33 0.18-3.52 0.3c-9.67-2.51-14.8 4.78-20.71 9.85c-20.83 17.85-41.48 35.87-62.19 53.78c-1.37 1.19-2.92 2.15-4 3.52c-4.3 5.55-8.42 4.78-12.83 0.18c-1.31-1.37-2.75-2.69-4.36-3.52c-6.33-3.28-4.24-5.91 0-9.55c19.22-16.47 38.2-33.25 57.3-49.9c5.19-4.54 10.51-8.89 15.76-13.31c4.78-4.06 7.4-8.77 6.21-15.4c-0.42-2.27-0.3-4.72 0-6.98c1.37-10.74-4.66-17.91-11.64-24.65c-0.72-0.66-2.39-1.43-4.12-1.91c-1.49-0.42-2.87-1.13-4.06-2.15c-1.43-1.25-2.21-2.63-2.87-4.66c-2.27-6.92 6.45-8.18 7.22-7.76c3.1 1.55 6.63 5.79 6.63 8.24c-0.06 11.22 9.49 14.86 15.46 21.13c1.55 1.61 5.85 0.6 8.89 0.78c1.49 0.54 0 5.67 4.06 2.81z" />
		<path id="Layer" class="s3" d="m357.05 165.53c1.19-0.12 2.63-0.72 3.52-0.3c2.15 1.01 4.06 2.51 6.09 3.82c-3.22-1.13-6.39-2.33-9.61-3.52z" />
		<path id="Layer" class="s3" d="m351.92 126.13c-4.06 2.87-2.57-2.33-4.24-2.92c1.43 0.96 2.81 1.91 4.24 2.92z" />
		<path id="Layer" class="s4" d="m237.08 229.51c-1.37-1.19-2.81-2.39-4.18-3.64c1.43 1.25 2.81 2.45 4.18 3.64z" />
		<path id="Layer" class="s1" d="m197.8 326.03c2.39 2.21 4.72 4.54 7.22 6.63c13.31 10.98 26.62 21.91 39.99 32.83c-0.42 0.18-0.78 0.42-1.19 0.6c-18.74-9.49-33.6-23.4-46.02-40.05z" />
		<path id="Layer" class="s1" d="m243.76 366.08c0.42-0.18 0.78-0.42 1.19-0.6c3.16 1.97 6.39 4 9.55 5.97c-3.58-1.79-7.16-3.58-10.74-5.37z" />
		<path id="Layer" class="s3" d="m237.2 126.67c-1.37-0.18-2.75-0.42-4.06-0.6c1.19-0.84 2.39-1.61 3.58-2.45c0.12 1.07 0.3 2.03 0.48 3.04z" />
	</g>
	<g id="Слой_6">
		<path id="Layer" class="s5" d="m428.91 41.68c0.48 0.96 0.54 1.91 0.72 2.87c1.37 9.13 5.79 16.89 11.7 23.58c5.55 6.33 12.53 10.98 20.77 13.37c2.09 0.6 4.18 1.19 6.33 1.79c-2.87 1.25-4.42 2.15-5.67 2.98c-9.37 4.89-15.16 12.71-18.68 22.56c-0.72 2.09-1.49 4.12-2.27 6.21c-0.96 2.57-2.92 3.52-5.55 3.52c-2.45 0-4.24-1.01-5.19-3.34c-0.6-1.55-1.25-3.04-1.73-4.66c-3.52-11.4-10.45-19.94-21.25-25.13c-3.82-1.85-7.82-3.4-11.76-5.07c-0.66-0.3-1.31-0.42-1.91-0.78c-2.21-1.13-4.12-2.69-4-5.31c0.12-2.69 1.73-4.6 4.3-5.55c2.33-0.9 4.66-1.67 6.98-2.63c11.88-4.72 22.02-12.24 27.22-24.41z" />
		<path id="Layer" class="s6" d="m444.49 106.44c-0.48-0.96-0.54-1.91-0.66-2.87c-1.37-9.13-5.79-16.89-11.7-23.58c-5.55-6.33-12.53-10.98-20.77-13.37c-2.09-0.6-4.18-1.19-6.33-1.79c2.87-1.25 4.42-2.15 5.67-2.98c9.37-4.89 15.16-12.71 18.68-22.56c0.72-2.09 1.49-4.12 2.27-6.21c0.96-2.57 2.92-3.52 5.55-3.52c2.45 0 4.24 1.01 5.19 3.34c0.6 1.55 1.25 3.04 1.73 4.66c3.52 11.4 10.45 19.94 21.25 25.13c3.82 1.85 7.82 3.4 11.76 5.07c0.66 0.3 1.31 0.42 1.91 0.78c2.21 1.13 4.12 2.69 4 5.31c-0.12 2.69-1.73 4.6-4.3 5.55c-2.33 0.9-4.66 1.67-6.98 2.63c-12 4.66-22.08 12.24-27.28 24.41z" />
		<path id="Layer" class="s7" d="m193.03 449.58c-2.87 1.73-7.52 3.28-9.79 5.67c-5.25 5.43-6.33 7.52-8.83 15.88c-0.42 1.37-1.43 4.42-1.79 5.85c-2.15 8.18-1.79 16.53-1.79 24.95c0 1.91 0.12 3.76 0 5.67c-0.12 2.92-1.91 4.72-4.66 4.72c-2.69 0-4.54-1.79-4.54-4.83c-0.06-6.57 0.24-13.13-0.12-19.7c-0.48-9.25-3.16-17.97-7.76-25.96c-4.54-7.88-11.64-11.52-20.35-13.55c-10.39-2.45-20.83-2.33-31.34-2.39c-1.43 0-2.92-0.3-4.3-0.78c-1.67-0.54-2.39-2.03-2.39-3.76c0-1.73 0.6-3.16 2.33-3.82c1.19-0.42 2.45-0.78 3.7-0.78c4.6-0.12 9.13-0.12 13.73 0c8.65 0.18 16.71-0.9 24.89-3.28c7.58-3.88 10.98-7.88 14.44-13.55c0.48-0.72 1.07-1.37 1.55-2.09c0.66 1.19 1.25 2.45 1.91 3.64c4.6 9.37 11.22 16.89 20.17 22.26c4.54 2.87 9.19 5.79 14.92 5.85z" />
		<path id="Layer" class="s8" d="m137.58 434.18c3.58-1.01 5.91-3.22 8.48-5.31c6.21-5.13 8.89-12.47 11.34-19.88c2.87-8.89 2.45-18.03 2.45-27.16c0-1.91-0.12-3.76 0-5.67c0.12-2.92 1.91-4.72 4.66-4.72c2.69 0 4.54 1.79 4.54 4.83c0.06 6.57-0.24 13.13 0.12 19.7c0.48 9.25 3.16 17.97 7.76 25.96c4.54 7.88 11.64 11.52 20.35 13.55c10.39 2.45 20.83 2.33 31.34 2.39c1.43 0 2.92 0.3 4.3 0.78c1.67 0.54 2.39 2.03 2.39 3.76c0 1.73-0.6 3.16-2.33 3.82c-1.19 0.42-2.45 0.78-3.7 0.78c-4.6 0.12-9.13 0.12-13.73 0c-8.65-0.18-16.95 1.91-25.07 4.3c-6.51 1.91-9.91 6.51-13.37 12.12c-1.07 2.45-1.19 2.87-1.49 3.88c-0.66-1.19-2.21-3.88-2.81-5.13c-4.6-9.37-11.22-16.89-20.17-22.26c-4.66-2.75-9.31-5.61-15.04-5.73z" />
		<path id="Layer" class="s9" d="m432.91 246.94c-1.31 0.78-3.46 1.49-4.48 2.63c-2.39 2.51-2.87 3.46-4.06 7.28c-0.18 0.66-0.66 2.03-0.84 2.69c-1.01 3.76-0.84 7.58-0.84 11.4c0 0.84 0.06 1.73 0 2.57c-0.06 1.37-0.9 2.15-2.15 2.15c-1.25 0-2.09-0.84-2.09-2.21c-0.06-2.98 0.12-6.03-0.06-9.01c-0.24-4.24-1.43-8.24-3.58-11.88c-2.09-3.58-5.31-5.25-9.31-6.21c-4.78-1.13-9.55-1.07-14.38-1.07c-0.66 0-1.37-0.12-1.97-0.36c-0.78-0.24-1.07-0.9-1.07-1.73c0-0.78 0.3-1.43 1.07-1.73c0.54-0.18 1.13-0.36 1.67-0.36c2.09-0.06 4.18-0.06 6.27 0c3.94 0.12 7.64-0.42 11.4-1.49c3.46-1.79 5.01-3.64 6.63-6.21c0.18-0.36 0.48-0.66 0.72-0.96c0.3 0.54 0.6 1.13 0.84 1.67c2.09 4.3 5.13 7.76 9.25 10.21c2.21 1.25 4.36 2.57 6.98 2.63z" />
		<path id="Layer" class="s10" d="m407.55 239.9c1.67-0.48 2.69-1.49 3.88-2.45c2.87-2.39 4.06-5.73 5.19-9.13c1.31-4.06 1.13-8.24 1.13-12.42c0-0.84-0.06-1.73 0-2.57c0.06-1.37 0.9-2.15 2.15-2.15c1.25 0 2.09 0.84 2.09 2.21c0.06 2.98-0.12 6.03 0.06 9.01c0.24 4.24 1.43 8.24 3.58 11.88c2.09 3.58 5.31 5.25 9.31 6.21c4.78 1.13 9.55 1.07 14.38 1.07c0.66 0 1.37 0.12 1.97 0.36c0.78 0.24 1.07 0.9 1.07 1.73c0 0.78-0.3 1.43-1.07 1.73c-0.54 0.18-1.13 0.36-1.67 0.36c-2.09 0.06-4.18 0.06-6.27 0c-3.94-0.12-7.76 0.9-11.46 1.97c-2.98 0.9-4.54 2.98-6.15 5.55c-0.48 1.13-0.54 1.31-0.72 1.79c-0.3-0.54-1.01-1.79-1.25-2.33c-2.09-4.3-5.13-7.76-9.25-10.21c-2.27-1.25-4.42-2.57-6.98-2.63z" />
		<path id="Layer" class="s11" d="m433.93 144.28c-0.48-0.72-0.48-1.61 0-2.27c0.48-0.72 1.19-1.43 1.79-2.09c1.67-1.79 3.1-3.1 4.66-4.89c2.33-2.57 4.24-2.57 6.57 0.06c1.49 1.67 3.16 3.1 4.66 4.72c2.39 2.45 2.27 3.82-0.06 6.45c-1.37 1.55-2.87 2.98-4.24 4.54c-2.03 2.21-4.72 2.92-7.34 0.06c-1.55-1.73-2.81-2.81-4.42-4.54c-0.36-0.48-1.19-1.49-1.61-2.03z" />
		<path id="Layer" class="s11" d="m388.51 397.29c-0.48-0.72-0.48-1.61 0-2.27c0.48-0.72 1.19-1.43 1.79-2.09c1.67-1.79 3.1-3.1 4.66-4.89c2.33-2.57 4.24-2.57 6.57 0.06c1.49 1.67 3.16 3.1 4.66 4.72c2.39 2.45 2.27 3.82-0.06 6.45c-1.37 1.55-2.87 2.98-4.24 4.54c-2.03 2.21-4.72 2.92-7.34 0.06c-1.55-1.73-2.81-2.81-4.42-4.54c-0.36-0.42-1.19-1.43-1.61-2.03z" />
		<path id="Layer" class="s10" d="m114.36 372.88c-0.48-0.72-0.48-1.61 0-2.27c0.48-0.72 1.19-1.43 1.79-2.09c1.67-1.79 3.1-3.1 4.66-4.89c2.33-2.57 4.24-2.57 6.57 0.06c1.49 1.67 3.16 3.1 4.66 4.72c2.39 2.45 2.27 3.82-0.06 6.45c-1.37 1.55-2.87 2.98-4.24 4.54c-2.03 2.21-4.72 2.92-7.34 0.06c-1.55-1.73-2.81-2.81-4.42-4.54c-0.36-0.48-1.19-1.49-1.61-2.03z" />
		<path id="Layer" class="s10" d="m115.32 52.78c1.01 0 1.97 0 2.98 0c0.54 1.13 1.25 2.21 1.67 3.4c1.61 4.48 6.39 8.83 10.74 10.86c1.73 0.84 1.43 0.9 3.16 1.85c0 0.78 0 1.61 0 2.39c-0.96 0.48-1.85 1.13-2.87 1.43c-5.43 1.61-8.83 5.31-11.04 10.33c-0.6 1.31-1.43 2.51-2.21 3.76c-0.78 0-1.61 0-2.39 0c-0.42-0.78-1.43-2.63-1.67-3.46c-2.15-7.22-6.69-10.27-13.85-12.06c0-1.01 0-1.97 0-2.98c0.96-0.48 2.27-0.84 3.4-1.31c5.19-2.21 8.42-5.85 10.51-10.86c0.54-1.31 0.9-1.97 1.55-3.34z" />
		<path id="Layer" class="s10" d="m226.04 193.34c0.78 0 1.55 0 2.33 0c0.42 0.9 0.96 1.73 1.25 2.63c1.25 3.46 4.89 6.8 8.3 8.42c1.37 0.66 1.13 0.72 2.45 1.43c0 0.6 0 1.25 0 1.85c-0.72 0.36-1.43 0.9-2.21 1.07c-4.18 1.25-6.8 4.12-8.54 8c-0.48 1.01-1.13 1.91-1.67 2.92c-0.6 0-1.25 0-1.85 0c-0.36-0.6-1.07-2.03-1.25-2.69c-1.67-5.61-5.19-7.94-10.74-9.31c0-0.78 0-1.55 0-2.33c0.72-0.36 1.73-0.66 2.63-1.01c4.06-1.67 6.51-4.54 8.12-8.42c0.42-1.01 0.72-1.55 1.19-2.57z" />
		<path id="Layer" class="s12" d="m341.65 393.65c-19.08 0-34.5-15.42-34.5-34.5c0-19.08 15.42-34.5 34.5-34.5c19.08 0 34.5 15.42 34.5 34.5c0 19.08-15.42 34.5-34.5 34.5z" />
		<g id="Layer">
			<path id="Layer" class="s12" d="m341.77 392.88c-18.88 0-34.14-15.26-34.14-34.14c0-18.88 15.26-34.14 34.14-34.14c18.88 0 34.14 15.26 34.14 34.14c0 18.88-15.26 34.14-34.14 34.14z" />
			<path id="Layer" class="s5" d="m342.01 393c-18.88 0-34.14-15.26-34.14-34.14c0-18.88 15.26-34.14 34.14-34.14c18.88 0 34.14 15.26 34.14 34.14c0 18.88-15.26 34.14-34.14 34.14z" />
		</g>
		<path id="Layer" class="s10" d="m341.65 372.29c-7.26 0-13.13-5.87-13.13-13.13c0-7.26 5.87-13.13 13.13-13.13c7.26 0 13.13 5.87 13.13 13.13c0 7.26-5.87 13.13-13.13 13.13z" />
		<path id="Layer" class="s5" d="m261.19 227.84c-8.88 0-16.06-7.18-16.06-16.06c0-8.88 7.18-16.06 16.06-16.06c8.88 0 16.06 7.18 16.06 16.06c0 8.88-7.18 16.06-16.06 16.06z" />
		<g id="Layer">
			<path id="Layer" class="s11" d="m261.31 227.9c-8.88 0-16.06-7.18-16.06-16.06c0-8.88 7.18-16.06 16.06-16.06c8.88 0 16.06 7.18 16.06 16.06c0 8.88-7.18 16.06-16.06 16.06z" />
		</g>
		<path id="Layer" class="s13" d="m261.37 220.26c-4.62 0-8.36-3.79-8.36-8.48c0-4.69 3.74-8.48 8.36-8.48c4.62 0 8.36 3.79 8.36 8.48c0 4.69-3.74 8.48-8.36 8.48z" />
		<path id="Layer" class="s5" d="m119.79 211.19c-13.53 0-24.47-10.94-24.47-24.47c0-13.53 10.94-24.47 24.47-24.47c13.53 0 24.47 10.94 24.47 24.47c0 13.53-10.94 24.47-24.47 24.47z" />
		<g id="Layer">
			<path id="Layer" class="s11" d="m119.97 211.25c-13.53 0-24.47-10.94-24.47-24.47c0-13.53 10.94-24.47 24.47-24.47c13.53 0 24.47 10.94 24.47 24.47c0 13.53-10.94 24.47-24.47 24.47z" />
		</g>
		<path id="Layer" class="s12" d="m248.24 102.92c-9.18 0-16.59-7.42-16.59-16.59c0-9.18 7.42-16.59 16.59-16.59c9.18 0 16.59 7.42 16.59 16.59c0 9.18-7.42 16.59-16.59 16.59z" />
		<g id="Layer">
			<path id="Layer" class="s12" d="m248.3 102.56c-9.08 0-16.41-7.34-16.41-16.41c0-9.08 7.34-16.41 16.41-16.41c9.08 0 16.41 7.34 16.41 16.41c0 9.08-7.34 16.41-16.41 16.41z" />
			<path id="Layer" class="s5" d="m248.42 102.62c-9.08 0-16.41-7.34-16.41-16.41c0-9.08 7.34-16.41 16.41-16.41c9.08 0 16.41 7.34 16.41 16.41c0 9.08-7.34 16.41-16.41 16.41z" />
		</g>
		<path id="Layer" class="s12" d="m237.2 368.47c-9.18 0-16.59-7.42-16.59-16.59c0-9.18 7.42-16.59 16.59-16.59c9.18 0 16.59 7.42 16.59 16.59c0 9.18-7.42 16.59-16.59 16.59z" />
		<g id="Layer">
			<path id="Layer" class="s12" d="m237.26 368.11c-9.08 0-16.41-7.34-16.41-16.41c0-9.08 7.34-16.41 16.41-16.41c9.08 0 16.41 7.34 16.41 16.41c0 9.08-7.34 16.41-16.41 16.41z" />
			<path id="Layer" class="s5" d="m237.38 368.17c-9.08 0-16.41-7.34-16.41-16.41c0-9.08 7.34-16.41 16.41-16.41c9.08 0 16.41 7.34 16.41 16.41c0 9.08-7.34 16.41-16.41 16.41z" />
		</g>
		<path id="Layer" class="s10" d="m278.44 197.22l-0.9-1.25c-1.25-1.73-0.84-4.18 0.9-5.43l129.22-92.64c1.73-1.25 4.18-0.84 5.43 0.9l0.9 1.25c1.25 1.73 0.84 4.18-0.9 5.43l-129.22 92.64c-1.79 1.25-4.18 0.84-5.43-0.9z" />
		<path id="Layer" class="s10" d="m314.2 324.24l-1.37 0.66c-1.91 0.9-4.24 0.06-5.13-1.85l-39.81-84.46c-0.9-1.91-0.06-4.24 1.85-5.13l1.37-0.66c1.91-0.9 4.24-0.06 5.13 1.85l39.81 84.46c0.96 1.91 0.12 4.24-1.85 5.13z" />
		<path id="Layer" class="s10" d="m141.04 163.5l-0.9-1.25c-1.25-1.73-0.84-4.18 0.9-5.43l83.62-59.87c1.73-1.25 4.18-0.84 5.43 0.9l0.9 1.25c1.25 1.73 0.84 4.18-0.9 5.43l-83.62 59.87c-1.73 1.19-4.18 0.84-5.43-0.9z" />
		<path id="Layer" class="s10" d="m218.46 336.89l-1.25 0.9c-1.73 1.19-4.18 0.78-5.37-1.01l-80.28-116.99c-1.19-1.73-0.78-4.18 1.01-5.37l1.25-0.9c1.73-1.19 4.18-0.78 5.37 1.01l80.28 116.99c1.19 1.73 0.78 4.18-1.01 5.37z" />
		<path id="Layer" class="s10" d="m260.12 361l0.12-1.55c0.18-2.15 2.09-3.7 4.24-3.46l33.84 3.22c2.15 0.18 3.7 2.09 3.46 4.24l-0.12 1.55c-0.18 2.15-2.09 3.7-4.24 3.46l-33.84-3.22c-2.09-0.24-3.7-2.15-3.46-4.24z" />
		<path id="Layer" class="s7" d="m46.44 83.1c0.36 0.72 0.42 1.37 0.54 2.09c0.96 6.57 4.18 12.12 8.42 16.95c4 4.54 9.01 7.94 14.98 9.61c1.49 0.42 3.04 0.84 4.54 1.25c-2.03 0.9-3.16 1.55-4.12 2.15c-6.74 3.52-10.92 9.13-13.43 16.24c-0.54 1.49-1.07 2.98-1.61 4.48c-0.72 1.85-2.15 2.51-4 2.51c-1.73 0-3.04-0.72-3.76-2.45c-0.42-1.07-0.9-2.21-1.25-3.34c-2.51-8.24-7.52-14.33-15.28-18.09c-2.75-1.31-5.67-2.45-8.48-3.64c-0.48-0.18-0.96-0.3-1.37-0.54c-1.55-0.78-2.98-1.91-2.87-3.82c0.06-1.97 1.25-3.28 3.1-4c1.67-0.66 3.34-1.19 5.01-1.85c8.6-3.34 15.88-8.77 19.58-17.55z" />
		<path id="Layer" class="s8" d="m57.66 129.72c-0.36-0.72-0.36-1.37-0.48-2.09c-0.96-6.57-4.18-12.12-8.42-16.95c-4-4.54-9.01-7.94-14.98-9.61c-1.49-0.42-3.04-0.84-4.54-1.25c2.03-0.9 3.16-1.55 4.12-2.15c6.74-3.52 10.92-9.13 13.43-16.24c0.54-1.49 1.07-2.98 1.61-4.48c0.72-1.85 2.15-2.51 4-2.51c1.73 0 3.04 0.72 3.76 2.45c0.42 1.07 0.9 2.21 1.25 3.34c2.51 8.24 7.52 14.33 15.28 18.09c2.75 1.31 5.67 2.45 8.48 3.64c0.48 0.18 0.96 0.3 1.37 0.54c1.55 0.78 2.98 1.91 2.87 3.82c-0.06 1.97-1.25 3.28-3.1 4c-1.67 0.66-3.34 1.19-5.01 1.85c-8.6 3.4-15.88 8.77-19.64 17.55z" />
	</g>
</svg>