<svg id="Layer_1" data-name="Layer 1" xmlns="http://www.w3.org/2000/svg" xmlns:xlink="http://www.w3.org/1999/xlink" viewBox="0 0 2000 2000"><defs><style>.cls-1{fill:none;}.cls-2{fill:#aed76a;}.cls-3{clip-path:url(#clip-path);}.cls-4{fill:#fecfae;}.cls-5{fill:#1572a0;}.cls-6{fill:#a35036;}.cls-7{fill:#bf6240;}.cls-8{fill:#7f7c6a;}.cls-9{fill:#afafa5;}.cls-10{fill:#c9cab6;}.cls-11{fill:#1e1713;}.cls-12{fill:#77a22f;}.cls-13{clip-path:url(#clip-path-2);}.cls-14{fill:#8bbc38;}.cls-15{fill:#f4f4f4;}.cls-16{fill:#d8d8ca;}.cls-17{fill:#ededed;}.cls-18{fill:#7a3b2e;}.cls-19{fill:#156889;}.cls-20{fill:#4e8bc1;}.cls-21{fill:#387bad;}.cls-22{clip-path:url(#clip-path-3);}.cls-23{fill:#d3d3cd;}.cls-24{fill:#62a4cc;}.cls-25{clip-path:url(#clip-path-4);}.cls-26{fill:#8abd32;}.cls-27{clip-path:url(#clip-path-5);}</style><clipPath id="clip-path"><path class="cls-1" d="M805.47,1053.53S498.05,874,265.11,1140.44c-137.62,157.42-108.59,845.23,762.66,609,104.8-28.41,208.24-61.47,305.72-109.32,62.21-30.55,228.6-14.69,321.52-45.67,195.06-65,227.33-360.2,85.71-468.07S1211,692.73,805.47,1053.53Z"/></clipPath><clipPath id="clip-path-2"><path class="cls-1" d="M475.29,1233.27l3.58-.45s.7-47.09,49.55-41.87c48.33,5.17,38.73,58.54,38.73,58.54s15.58-19.82,34.85-3.24c15.86,12.76,6.84,32.68-6.5,42.44,0,0,25.42,58.45-76.79,20.73-.71,0-11.52-.78-11.52-.78a70.79,70.79,0,0,1-21.2-4.84h0a69.47,69.47,0,0,1-32.5-26.5c-.07-.11-.14-.23-.22-.34a20.5,20.5,0,0,1-1.66-3.14C443.88,1256.15,456,1235.87,475.29,1233.27Z"/></clipPath><clipPath id="clip-path-3"><path class="cls-1" d="M541,781.7l-10.09-10.38s-4.41-2.37,5.11-5.75,106.49-9.39,106.49-9.39l121.15,3.08,96.46,74.31,90.86,97.87,14.3,22.15s-37,9.82-38.14,9.82-110.48-28.88-110.48-28.88L716.5,889.66l-113.85-41.5-40.1-34.22-18.79-26.36Z"/></clipPath><clipPath id="clip-path-4"><path class="cls-1" d="M1412.81,1365.55c3.5-13.27,3-28.71-9.61-42.11,0,0-10.81-14.14-33.43-11.15,0,0-23-64.33-66.74-40.8-60.31,32.37-22.14,107-22.14,107s-27.57-45.68-54.43-1.74c-14.71,24,9.17,53.7,31.44,51.88a88.3,88.3,0,0,0,49.08-2.13L1380.9,1402C1396,1396.89,1408,1383.48,1412.81,1365.55Z"/></clipPath><clipPath id="clip-path-5"><path class="cls-1" d="M1210.49,1445.21c1.46-.93,3-1.89,4.63-2.88,0,0-28.7-65,41.57-88.63,69.52-23.35,90,55.88,90,55.88s8.87-37,45.74-26.41c29.78,7.5,30,40.51,17.83,62.3,0,0,71.67,64.13-92.25,76.8-1,.41-16.28,6.19-16.28,6.19a107.06,107.06,0,0,1-32.11,6.72h0a104.79,104.79,0,0,1-61.26-15.87l-.51-.32a33.72,33.72,0,0,1-4.26-3.25C1181.84,1496.37,1185.62,1461,1210.49,1445.21Z"/></clipPath></defs><path class="cls-2" d="M805.47,1053.53S498.05,874,265.11,1140.44c-137.62,157.42-108.59,845.23,762.66,609,104.8-28.41,208.24-61.47,305.72-109.32,62.21-30.55,160.61,3.67,253.53-27.31,195-65,227.32-360.2,85.7-468.07S1211,692.73,805.47,1053.53Z"/><g class="cls-3"><path class="cls-4" d="M497.15,1385.24s-229.77,45.72-242,263.25,372.32,247.6,372.32,247.6,249.83-19.92,245.23-23-212.76-221.21-83.4-360.31c109.12-117.33-196.63-136.64-295.94-142.1C474.92,1369.69,497.15,1385.24,497.15,1385.24Z"/></g><path class="cls-5" d="M705,519.66l62.15,18.05,102.53,44.54L808,568.18S719.07,548.65,705,519.66Z"/><polygon class="cls-6" points="704.69 841.24 747.54 1291.95 1078.25 1165.01 1033.1 899.41 704.69 841.24"/><polygon class="cls-7" points="497.15 734.58 497.15 1200.09 755.76 1306.27 750.24 811.7 497.15 734.58"/><polygon class="cls-8" points="610.92 1343.76 728.53 1280.61 725.95 1344.45 610.92 1408.3 610.92 1343.76"/><polygon class="cls-9" points="534.29 1046.25 528.25 1047.1 534.43 1059.61 537.42 1167.3 598.55 1189.55 602.4 1197.35 607.35 1195.34 611.32 1068 534.29 1046.25"/><polygon class="cls-10" points="531.71 1171.62 602.4 1197.35 605.66 1070.63 528.25 1047.1 531.71 1171.62"/><polygon class="cls-11" points="569.36 1173.93 590.5 1181.64 591.6 1133.75 569.82 1127.15 569.36 1173.93"/><polygon class="cls-11" points="564.17 1071.76 537.68 1062.81 538.92 1112.29 564.29 1119.39 564.17 1071.76"/><polygon class="cls-11" points="539.07 1117.83 540.21 1163.31 564.43 1172.14 564.31 1125.48 539.07 1117.83"/><polygon class="cls-11" points="591.75 1127.06 592.8 1081.43 570.34 1073.85 569.88 1120.95 591.75 1127.06"/><polygon class="cls-9" points="564.29 1119.39 538.92 1112.29 539.07 1117.83 564.31 1125.48 564.29 1119.39"/><polygon class="cls-9" points="569.88 1120.95 569.82 1127.15 591.6 1133.75 591.75 1127.06 569.88 1120.95"/><polygon class="cls-10" points="562.12 1066.47 562.4 1172.27 567.28 1174.42 568.33 1067.61 562.12 1066.47"/><polygon class="cls-10" points="598.78 1126.34 536.46 1108.91 533.96 1113.64 596.55 1132.61 598.78 1126.34"/><polygon class="cls-9" points="534.29 858.02 528.25 858.87 534.43 871.38 537.42 979.07 598.55 1001.32 602.4 1009.12 607.35 1007.11 611.32 879.77 534.29 858.02"/><polygon class="cls-10" points="531.71 983.39 602.4 1009.12 605.66 882.4 528.25 858.87 531.71 983.39"/><polygon class="cls-11" points="569.36 985.71 590.5 993.42 591.6 945.53 569.82 938.93 569.36 985.71"/><polygon class="cls-11" points="564.17 883.53 537.68 874.58 538.92 924.07 564.29 931.16 564.17 883.53"/><polygon class="cls-11" points="539.07 929.6 540.21 975.08 564.43 983.91 564.31 937.26 539.07 929.6"/><polygon class="cls-11" points="591.75 938.84 592.8 893.21 570.34 885.62 569.88 932.72 591.75 938.84"/><polygon class="cls-9" points="564.29 931.16 538.92 924.07 539.07 929.6 564.31 937.26 564.29 931.16"/><polygon class="cls-9" points="569.88 932.72 569.82 938.93 591.6 945.53 591.75 938.84 569.88 932.72"/><polygon class="cls-10" points="562.12 878.25 562.4 984.04 567.28 986.19 568.33 879.39 562.12 878.25"/><polygon class="cls-10" points="598.78 938.11 536.46 920.69 533.96 925.41 596.55 944.39 598.78 938.11"/><polygon class="cls-9" points="643.66 1089.29 637.62 1090.14 643.79 1102.65 646.78 1210.34 707.92 1232.59 711.77 1240.39 716.72 1238.38 720.69 1111.04 643.66 1089.29"/><polygon class="cls-10" points="641.08 1214.66 711.77 1240.39 715.03 1113.67 637.62 1090.14 641.08 1214.66"/><polygon class="cls-11" points="678.73 1216.98 699.87 1224.68 700.97 1176.8 679.19 1170.19 678.73 1216.98"/><polygon class="cls-11" points="673.54 1114.8 647.04 1105.85 648.29 1155.34 673.66 1162.43 673.54 1114.8"/><polygon class="cls-11" points="648.43 1160.87 649.58 1206.35 673.8 1215.18 673.68 1168.52 648.43 1160.87"/><polygon class="cls-11" points="701.12 1170.1 702.17 1124.47 679.71 1116.89 679.25 1163.99 701.12 1170.1"/><polygon class="cls-9" points="673.66 1162.43 648.29 1155.34 648.43 1160.87 673.68 1168.52 673.66 1162.43"/><polygon class="cls-9" points="679.25 1163.99 679.19 1170.19 700.97 1176.8 701.12 1170.1 679.25 1163.99"/><polygon class="cls-10" points="671.49 1109.52 671.77 1215.31 676.65 1217.46 677.7 1110.65 671.49 1109.52"/><polygon class="cls-10" points="708.15 1169.38 645.83 1151.96 643.33 1156.68 705.91 1175.65 708.15 1169.38"/><path class="cls-12" d="M724.91,1244c-18-38.18-40,.49-40,.49s27.94-47.06-27.95-70.08c-24-9.89-43.63,20.06-52.31,34.48-1.73-11.47-1.51-28.05-16.61-33.25-68.76-23.69-54.74,46.67-54.74,46.67-4.52-.71-8.75-1.59-12.53-2.51l-20,43.54c6.53,11,18,21.77,37.17,23.76h0a168.52,168.52,0,0,0,101.09,25l13.89-1a76.33,76.33,0,0,0,41.13-2.24C709.68,1303.72,736.07,1267.61,724.91,1244Z"/><path class="cls-12" d="M475.29,1233.27l3.58-.45s.7-47.09,49.55-41.87c48.33,5.17,38.73,58.54,38.73,58.54s15.58-19.82,34.85-3.24c15.86,12.76,6.84,32.68-6.5,42.44,0,0,25.42,58.45-76.79,20.73-.71,0-11.52-.78-11.52-.78a70.79,70.79,0,0,1-21.2-4.84h0a69.47,69.47,0,0,1-32.5-26.5c-.07-.11-.14-.23-.22-.34a20.5,20.5,0,0,1-1.66-3.14C443.88,1256.15,456,1235.87,475.29,1233.27Z"/><g class="cls-13"><path class="cls-14" d="M567.15,1249.49s-14.58-45.08-46.27-36.22c-42.35,11.84-6,51.5-6,51.5s-67.74-26.22-35.63,35.92c31.86,61.65-74.65-40.42-74.65-40.42L472,1177.85l81.45-18.19L577,1194.18S574.82,1234.24,567.15,1249.49Z"/></g><polygon class="cls-15" points="551.75 1318.51 692.78 1277.74 730.34 1286.74 617.45 1372.73 571.86 1356.05 551.75 1318.51"/><path class="cls-10" d="M616,1340.7l-64.22-22.19v55.25L616,1405.23S641.81,1367.65,616,1340.7Z"/><path class="cls-16" d="M613.18,1033.48l-27.11-8.87a5.9,5.9,0,0,0-7.72,5.64V1307c0,10.87,8.82,14.39,19.61,14.77q1.53.06,3.3.06c12.12,0,22-4.08,22-16.29V1047.4A14.64,14.64,0,0,0,613.18,1033.48Z"/><path class="cls-17" d="M569.79,1335.73l119.67-36,330.65-129.15-10.63,237L916,1500.7l-49.59-36.07S836,1507.78,774,1509.06c-26.16.54-158.67-44.12-158.67-44.12l-105.47-52-43.18-30.85-6-20,30.75,2.79-.79-13.08h42.67l-7.68-11.39Z"/><polygon class="cls-18" points="823.82 1249.18 1012.39 1322.25 1033.1 970.7 823.82 935.73 823.82 1249.18"/><polygon class="cls-9" points="652.62 907.26 646.58 908.1 652.76 920.62 655.75 1028.31 716.88 1050.56 720.73 1058.36 725.68 1056.34 729.65 929 652.62 907.26"/><polygon class="cls-10" points="650.04 1032.63 720.73 1058.36 723.99 931.63 646.58 908.1 650.04 1032.63"/><polygon class="cls-11" points="687.69 1034.94 708.84 1042.65 709.93 994.76 688.15 988.16 687.69 1034.94"/><polygon class="cls-11" points="682.5 932.77 656.01 923.82 657.26 973.3 682.63 980.39 682.5 932.77"/><polygon class="cls-11" points="657.4 978.84 658.54 1024.31 682.76 1033.14 682.64 986.49 657.4 978.84"/><polygon class="cls-11" points="710.09 988.07 711.13 942.44 688.67 934.85 688.21 981.96 710.09 988.07"/><polygon class="cls-9" points="682.63 980.39 657.26 973.3 657.4 978.84 682.64 986.49 682.63 980.39"/><polygon class="cls-9" points="688.21 981.96 688.15 988.16 709.93 994.76 710.09 988.07 688.21 981.96"/><polygon class="cls-10" points="680.45 927.48 680.73 1033.27 685.61 1035.42 686.66 928.62 680.45 927.48"/><polygon class="cls-10" points="717.11 987.34 654.79 969.92 652.29 974.65 714.88 993.62 717.11 987.34"/><polygon class="cls-17" points="549.19 997.06 806.98 929.77 1084.89 968.16 1038.64 1101.45 925.56 1162 747.54 1087.99 563.1 1009.04 549.19 997.06"/><path class="cls-6" d="M1195.33,1485l335-155.91v-426l-324.73,134.08S1070.68,1326.28,1195.33,1485Z"/><path class="cls-7" d="M1205.56,1037.16,1195.33,1485l-185.85-77.39,15-439.7S1186.28,992,1205.56,1037.16Z"/><polygon class="cls-17" points="473.66 690.56 887.35 549.11 934.05 703.06 607.14 746.92 488.24 711.03 473.66 690.56"/><polygon class="cls-17" points="1009.48 934.53 1212.57 1004.35 1449.53 918.6 1558.05 831.89 1327.83 746.92 1009.48 875.64 1009.48 934.53"/><polygon class="cls-15" points="859.12 1426.2 982.14 1367.39 1040.95 1385.24 928.06 1471.23 882.47 1454.55 859.12 1426.2"/><path class="cls-6" d="M1510.94,721.69V814.5l-111.89,40.13L1366.93,780S1465.42,719.82,1510.94,721.69Z"/><path class="cls-7" d="M541,781.7l-10.09-10.38s-4.41-2.37,5.11-5.75,106.49-9.39,106.49-9.39l121.15,3.08,96.46,74.31,90.86,97.87,14.3,22.15s-37,9.82-38.14,9.82-110.48-28.88-110.48-28.88L716.5,889.66l-113.85-41.5-40.1-34.22-18.79-26.36Z"/><path class="cls-16" d="M903.13,1159.78V1376.9l.18,42.41c0,10.79,8.63,16.32,19.42,16.7,1,0,2.12.06,3.3,0,12.13,0,22.15-6.08,22.15-18.2l-.19-38v-216.3c0-1.31.34-7.44,0-8.66Z"/><path class="cls-7" d="M628.7,574.21v63.31l118.84,53,67.86-12.43,3-30.66s-120-72.63-187.7-73.26"/><polygon class="cls-19" points="628.7 574.21 812.46 657.98 812.46 666.72 628.6 582.5 628.7 574.21"/><polygon class="cls-20" points="704.99 519.66 628.7 574.21 830.36 666.16 878.96 595.87 704.99 519.66"/><polygon class="cls-10" points="473.66 690.56 628.45 750.29 551.06 765.57 473.66 730.94 473.66 690.56"/><polygon class="cls-5" points="780.72 746.92 1095.36 656.91 1303.99 532.4 1055.82 571.38 569.56 753.65 780.72 746.92"/><path class="cls-10" d="M923.33,1448.39l-64.21-22.19v55.25l64.21,31.47S949.19,1475.34,923.33,1448.39Z"/><polygon class="cls-21" points="780.72 746.92 1303.99 532.4 1510.94 721.68 982.96 932.52 780.72 746.92"/><polygon class="cls-9" points="919.34 1170.55 1019.36 1126.8 1020.11 1106.24 919.34 1148.29 912.75 1156.71 919.34 1170.55"/><path class="cls-7" d="M1327.83,869.19v68.42L1147.42,862.7l-50.1-67.54-3-27.11S1327.83,828.25,1327.83,869.19Z"/><path class="cls-16" d="M720.54,1069.83,693.43,1061a5.89,5.89,0,0,0-7.71,5.6V1297l.18,42.41c0,10.79,8.64,16.32,19.42,16.7,1,0,2.13.06,3.3,0,12.13,0,22.15-6.08,22.15-18.2l-.18-38v-216.3A14.53,14.53,0,0,0,720.54,1069.83Z"/><path class="cls-16" d="M829.43,1113.93l-27.11-8.81a5.89,5.89,0,0,0-7.71,5.6v230.34l.18,42.41c0,10.8,8.64,16.32,19.42,16.71,1,0,2.12,0,3.3,0,12.13,0,22.15-6.08,22.15-18.21l-.19-38V1127.75A14.52,14.52,0,0,0,829.43,1113.93Z"/><path class="cls-16" d="M578.35,836.4V984.31c0,11.27,8.82,18.25,19.61,18.65q1.53.06,3.3.06c12.12,0,22-7.57,22-20.22V836.4Z"/><path class="cls-16" d="M906,974.65v136.53c0,10.79,8.82,17.37,19.6,17.76,1,0,2.13,0,3.3,0,12.13,0,22-7.14,22-19.26V974.65Z"/><path class="cls-16" d="M686.23,869.23v148.5c0,10.79,8.82,17.37,19.6,17.76,1,0,2.13,0,3.3,0,12.13,0,22-7.14,22-19.26v-147Z"/><path class="cls-16" d="M794.61,921.1v148.69c0,10.79,8.82,17.37,19.6,17.76,1,0,2.12,0,3.3,0,12.13,0,22-7.14,22-19.26V921.1Z"/><polygon class="cls-19" points="1372.05 785.62 1510.94 728.07 1510.94 721.68 1365.4 780.2 1372.05 785.62"/><g class="cls-22"><path class="cls-6" d="M548.64,776.46l178.49-2.39L910.56,944l54.68,19.44-73.77-94.22L745.67,743,615,745.24l-90.57,8.41s-8.7,19.07-6.45,19.07S548.64,776.46,548.64,776.46Z"/></g><path class="cls-7" d="M812.46,545.63V666.16s35.59,92,212.74,92C1204.12,758.14,1238,643,1238,643V536Z"/><path class="cls-15" d="M1025.12,597.57c-170,0-209.21-56-212.41-61.76a94.29,94.29,0,0,0-.23,9.82s33.86,69.21,212,69.21C1212.57,614.84,1238,536,1238,536a81.89,81.89,0,0,0-.42-9.15C1233.63,536.37,1200.09,597.57,1025.12,597.57Z"/><path class="cls-23" d="M1025.12,600c175,0,208.51-63.58,212.42-73.09-3.11-33.8-28.4-149.46-229.15-144.73-172.85,4.08-193.42,119-195.68,153.68C815.91,541.61,855.16,600,1025.12,600Z"/><path class="cls-10" d="M569.79,1335.73s87.09,62.4,257.85,100.33c0,0-19.51,4.86-50.49-3.21S631.6,1388,579.33,1352.58C562.7,1341.31,569.79,1335.73,569.79,1335.73Z"/><path class="cls-10" d="M525.61,1340.42s39.62,51.72,230.66,103.2c1.75.47,25.53,6.68,38.72,8.58,6.42.93,34.17-1.19,41-7.23,0,0-21.14,14.53-31.29,14.53-32.82,0-107.91-15.59-198.91-57.51C523.19,1363.94,524.94,1348.54,525.61,1340.42Z"/><path class="cls-7" d="M907.5,343.59V404a27.54,27.54,0,0,0,6.78,18.19c14.08,16,47.52,42.77,123,41.53,68.14-1.13,94.54-30.42,102.48-46.33a39.16,39.16,0,0,0,4-18.5l-2-74.81Z"/><path class="cls-10" d="M490.62,1351.81s54.21,70,261.36,121.78c0,0,48.87,15.73,87.77-11,0,0-11.86,19.12-48.74,22.51s-152.22-32.65-190.45-51.34-106.9-57.59-109.94-69.09S490.62,1351.81,490.62,1351.81Z"/><path class="cls-23" d="M907.5,343.59s20.44,42.9,117.7,42.9c56.28,0,85.66-16,101.07-27.24a38.72,38.72,0,0,0,15-38.3c-5.35-29-28.2-86.25-125.42-83.56C903.21,240.51,907.5,343.59,907.5,343.59Z"/><path class="cls-10" d="M460.66,1362.1s2.21,23.2,81.19,61.23c91.34,44,226.4,83.89,250.2,78.82s63.05-25,63.05-25-37.21,38.23-65.82,35.69c-103.83-9.2-203.11-57-232.1-71.54C530.41,1427.82,445.44,1388.15,460.66,1362.1Z"/><path class="cls-15" d="M1126.27,350c-15.41,11.27-44.87,22.66-101.15,22.66-90.85,0-114.59-32.85-117.34-37.78a81.15,81.15,0,0,0-.28,8.74s20.44,42.9,117.7,42.9c56.28,0,85.66-16,101.07-27.24a38.65,38.65,0,0,0,15.41-35.85A38.46,38.46,0,0,1,1126.27,350Z"/><path class="cls-23" d="M1025.12,372.63c56.28,0,85.74-11.39,101.15-22.66a38.46,38.46,0,0,0,15.41-26.57c-.1-.82-.21-1.63-.36-2.45-5.35-29-28.2-86.25-125.42-83.56-92.54,2.57-106.19,72.52-108.12,97.46C910.53,339.78,934.27,372.63,1025.12,372.63Z"/><polygon class="cls-6" points="1327.83 869.19 1327.83 937.61 1460.46 882.27 1460.46 820.11 1387.84 805.81 1327.83 869.19"/><path class="cls-9" d="M1205.56,979.86l352.49-148v59.73l-352.49,145.54S1182.53,989.81,1205.56,979.86Z"/><path class="cls-10" d="M1033.1,913.49l172.46,66.37v57.3L1033.1,970.7S1013.75,943.78,1033.1,913.49Z"/><path class="cls-9" d="M945.89,1004.35l87.21-33.65V913.49l-87.21,33.09S919.25,980.8,945.89,1004.35Z"/><polygon class="cls-10" points="529 768.05 945.89 946.58 945.89 976.5 945.89 1004.35 548.53 839.46 548.53 802.45 529 784.78 529 768.05"/><polygon class="cls-19" points="1093.03 765.43 1094.83 774.68 1327.83 880.57 1390.45 814.41 1460.46 828.69 1460.46 820.11 1229.4 750.57 1093.03 765.43"/><path class="cls-5" d="M1164.26,711,1235,723.37l225.46,96.74-72.63-14.3S1189.5,780.29,1164.26,711Z"/><polygon class="cls-20" points="1164.26 711.03 1390.28 805.81 1330.27 869.19 1093.03 765.43 1164.26 711.03"/><polygon class="cls-19" points="1157.91 867.06 985.15 931.69 978.81 925.96 1147.42 862.7 1157.91 867.06"/><ellipse class="cls-17" cx="923.85" cy="515.88" rx="47.75" ry="69.06" transform="translate(218.04 1304.21) rotate(-77.34)"/><path class="cls-7" d="M1079.25,199.62v43.6A12.53,12.53,0,0,1,1071,255c-15.77,5.76-52,14.95-89-3.76a9.14,9.14,0,0,1-5.06-8.14v-40Z"/><path class="cls-15" d="M1030,211.68c-39.21.06-51.15-14.14-52.82-16.86a48.58,48.58,0,0,0-.23,5.41s10.47,20.08,53.1,20c47.13-.08,49.23-23,49.23-23a39.93,39.93,0,0,0-.25-4.54C1077.75,197.49,1070.42,211.61,1030,211.68Z"/><path class="cls-23" d="M1029.71,213c40.45-.07,48-15.55,49.29-20.34-1.28-12.21-9-44.77-55-43.36-38.92,1.19-45.74,32.62-46.89,45.48C978.82,197.54,990.5,213.11,1029.71,213Z"/><ellipse class="cls-17" cx="979.02" cy="317.88" rx="32.58" ry="46.27" transform="translate(454.3 1203.44) rotate(-77.34)"/><ellipse class="cls-17" cx="1017.41" cy="187.47" rx="14.79" ry="21.4" transform="translate(695.34 1170.6) rotate(-82.3)"/><path class="cls-24" d="M1203.64,749.72a3.51,3.51,0,0,0-.48-4.72,30.69,30.69,0,0,1-4.7-4.83c-1.26-2.09-11.42,12.63-11,16s6.33,6.28,7.7,5.82C1196.24,761.67,1200.34,754.17,1203.64,749.72Z"/><path class="cls-24" d="M1248.54,804.83a3.26,3.26,0,0,0-.42-4.39,28.25,28.25,0,0,1-4.34-4.53c-1.17-1.95-10.72,11.68-10.32,14.86s5.86,5.89,7.13,5.47C1241.58,815.91,1245.44,809,1248.54,804.83Z"/><path class="cls-24" d="M1248.73,776.85a4.24,4.24,0,0,0-.54-5.69c-2.15-1.93-4.78-4.43-5.62-5.85-1.51-2.53-13.86,15.11-13.35,19.22s7.58,7.62,9.23,7.07C1239.72,791.18,1244.72,782.18,1248.73,776.85Z"/><path class="cls-24" d="M723.49,550.11a3.86,3.86,0,0,0,.47-5.19,33.63,33.63,0,0,1-4.05-6.2c-.92-2.52-15,11.21-15.21,15s5.51,8.12,7.08,7.9C713,561.44,719,554.21,723.49,550.11Z"/><path class="cls-24" d="M789.39,607.76a3.56,3.56,0,0,0,.44-4.8,31.33,31.33,0,0,1-3.74-5.74c-.86-2.33-13.87,10.38-14.09,13.87s5.1,7.51,6.56,7.31C779.68,618.25,785.23,611.56,789.39,607.76Z"/><path class="cls-24" d="M727.48,574a3,3,0,0,0,.37-4,27.12,27.12,0,0,1-3.17-4.84c-.72-2-11.71,8.75-11.89,11.7s4.31,6.34,5.54,6.18C719.28,582.88,724,577.23,727.48,574Z"/><path class="cls-24" d="M1222.45,747.46a2.33,2.33,0,0,0-.32-3.13,20.14,20.14,0,0,1-3.12-3.2c-.84-1.39-7.58,8.38-7.28,10.64s4.21,4.17,5.11,3.86C1217.54,755.39,1220.26,750.42,1222.45,747.46Z"/><path class="cls-24" d="M1146.13,749.13a2.34,2.34,0,0,0-.32-3.13,20.57,20.57,0,0,1-3.12-3.21c-.84-1.39-7.58,8.38-7.28,10.64s4.2,4.17,5.11,3.86C1141.22,757.05,1143.94,752.08,1146.13,749.13Z"/><path class="cls-24" d="M1317.48,796.76a2.07,2.07,0,0,0-.29-2.79,18.42,18.42,0,0,1-2.78-2.86c-.75-1.24-6.78,7.48-6.51,9.5s3.76,3.73,4.57,3.45C1313.09,803.85,1315.52,799.4,1317.48,796.76Z"/><path class="cls-24" d="M1330.43,833.91a2.09,2.09,0,0,0-.29-2.8,18,18,0,0,1-2.78-2.86c-.75-1.24-6.77,7.48-6.51,9.51s3.76,3.72,4.57,3.45C1326,841,1328.47,836.55,1330.43,833.91Z"/><path class="cls-24" d="M768.07,568.36a2.08,2.08,0,0,0,.34-2.79,18.2,18.2,0,0,1-2.08-3.4c-.46-1.38-8.26,5.79-8.45,7.82s2.84,4.47,3.69,4.38C762.22,574.3,765.58,570.5,768.07,568.36Z"/><path class="cls-24" d="M1305.72,792.83a2.77,2.77,0,0,0-.09-3.74,23.85,23.85,0,0,1-3.39-4.09c-.87-1.72-9.77,9.22-9.62,11.93s4.59,5.33,5.69,5.05C1299.17,801.77,1302.85,796.12,1305.72,792.83Z"/><path class="cls-20" d="M1002.86,808.9a5.08,5.08,0,0,0,6.6,1.93c3.12-1.54,7.09-3.36,9.06-3.67,3.51-.56-10.72-22.27-15.55-23.52s-11.91,5.07-12,7.17C990.84,792.42,998.68,802,1002.86,808.9Z"/><path class="cls-20" d="M892.51,801.69a5.09,5.09,0,0,0,6.76,1.31c3-1.82,6.75-4,8.68-4.49,3.44-.88-12.74-21.18-17.67-22s-11.39,6.17-11.32,8.26C879,786.4,887.72,795.24,892.51,801.69Z"/><path class="cls-20" d="M1274.4,591a4.86,4.86,0,0,0,6.43,1.25c2.81-1.74,6.42-3.81,8.25-4.28,3.27-.84-12.11-20.14-16.79-20.9s-10.84,5.86-10.77,7.85C1261.57,576.4,1269.85,584.81,1274.4,591Z"/><path class="cls-20" d="M1352.3,697.47a3.77,3.77,0,0,0,5,1,32.41,32.41,0,0,1,6.4-3.32c2.54-.65-9.4-15.63-13-16.22s-8.41,4.55-8.35,6.09C1342.35,686.18,1348.77,692.71,1352.3,697.47Z"/><path class="cls-20" d="M1291.49,705.69a4.86,4.86,0,0,0,6.43,1.25c2.81-1.74,6.42-3.81,8.25-4.28,3.27-.84-12.11-20.14-16.79-20.9s-10.84,5.86-10.77,7.85C1278.66,691.14,1286.94,699.55,1291.49,705.69Z"/><path class="cls-20" d="M1043.27,825.35a6.59,6.59,0,0,0,8.55,2.5c4-2,9.17-4.35,11.71-4.75,4.54-.72-13.86-28.81-20.11-30.43s-15.42,6.57-15.57,9.27C1027.72,804,1037.87,816.46,1043.27,825.35Z"/><path class="cls-20" d="M1388.83,721.6a6.25,6.25,0,0,0,8.31,1.61c3.64-2.24,8.3-4.93,10.67-5.53,4.23-1.08-15.67-26-21.73-27s-14,7.58-13.92,10.15C1372.23,702.78,1382.93,713.66,1388.83,721.6Z"/><path class="cls-20" d="M989.73,902.38a3.25,3.25,0,0,0,4.31.81,27.86,27.86,0,0,1,5.5-2.9c2.19-.58-8.2-13.43-11.34-13.93s-7.23,4-7.17,5.31C981.07,892.7,986.65,898.29,989.73,902.38Z"/><path class="cls-20" d="M1274.85,655a3.08,3.08,0,0,0,4.1.77,26.76,26.76,0,0,1,5.24-2.76c2.08-.54-7.8-12.77-10.79-13.24s-6.87,3.78-6.82,5.05C1266.62,645.83,1271.93,651.14,1274.85,655Z"/><path class="cls-20" d="M1000.8,886.54a4.33,4.33,0,0,0,5.63,1.52c2.61-1.36,6-3,7.61-3.28,3-.53-9.48-18.66-13.59-19.64s-10,4.51-10.07,6.28C990.33,872.79,997.14,880.79,1000.8,886.54Z"/><path class="cls-20" d="M1262.51,692.77a4.11,4.11,0,0,0,5.35,1.44c2.49-1.29,5.66-2.83,7.24-3.11,2.81-.51-9-17.75-12.92-18.68s-9.51,4.29-9.58,6C1252.55,679.7,1259,687.3,1262.51,692.77Z"/><polygon class="cls-17" points="569.56 753.65 780.72 746.92 985.15 931.69 945.89 946.58 743.42 762.08 529 768.05 569.56 753.65"/><polygon class="cls-10" points="780.72 746.92 743.42 762.08 529 768.05 569.56 753.65 780.72 746.92"/><polygon class="cls-10" points="1293.49 1084.6 1302.09 1052.55 1294.52 1052.51 1261.48 1069.65 1258.17 1203.37 1265.74 1203.41 1267.23 1196.62 1290.43 1179.32 1293.49 1084.6"/><polygon class="cls-9" points="1269.05 1069.69 1302.09 1052.55 1298.01 1179.36 1265.74 1203.41 1269.05 1069.69"/><polygon class="cls-11" points="1275.29 1078.36 1297.17 1065.32 1293.59 1176.42 1272.27 1192.48 1275.29 1078.36"/><polygon class="cls-9" points="1283.85 1069.25 1281.06 1187.01 1285.82 1184.11 1288.58 1067.72 1283.85 1069.25"/><polygon class="cls-9" points="1271.04 1138.48 1299.24 1124.64 1296.45 1120.78 1268.58 1134.46 1271.04 1138.48"/><polygon class="cls-10" points="1382.34 1054.88 1389.78 1027.19 1383.23 1027.15 1354.68 1041.97 1351.82 1157.53 1358.36 1157.56 1359.65 1151.69 1379.7 1136.74 1382.34 1054.88"/><polygon class="cls-9" points="1361.22 1042 1389.78 1027.19 1386.25 1136.77 1358.36 1157.56 1361.22 1042"/><polygon class="cls-11" points="1366.61 1049.49 1385.52 1038.22 1382.43 1134.24 1364.01 1148.11 1366.61 1049.49"/><polygon class="cls-9" points="1374.01 1041.62 1371.6 1143.39 1375.72 1140.88 1378.1 1040.3 1374.01 1041.62"/><polygon class="cls-9" points="1362.94 1101.45 1387.31 1089.49 1384.9 1086.15 1360.82 1097.98 1362.94 1101.45"/><polygon class="cls-10" points="1468.19 1023.12 1475.18 997.09 1469.03 997.06 1442.19 1010.98 1439.5 1119.6 1445.65 1119.63 1446.86 1114.11 1465.71 1100.06 1468.19 1023.12"/><polygon class="cls-9" points="1448.34 1011.01 1475.18 997.09 1471.86 1100.09 1445.65 1119.63 1448.34 1011.01"/><polygon class="cls-11" points="1453.41 1018.06 1471.18 1007.46 1468.27 1097.71 1450.96 1110.75 1453.41 1018.06"/><polygon class="cls-9" points="1460.36 1010.66 1458.1 1106.31 1461.96 1103.96 1464.2 1009.41 1460.36 1010.66"/><polygon class="cls-9" points="1449.96 1066.89 1472.87 1055.65 1470.6 1052.51 1447.96 1063.63 1449.96 1066.89"/><polygon class="cls-10" points="1293.49 1270.23 1302.09 1238.19 1294.52 1238.15 1261.48 1255.29 1258.17 1389.01 1265.74 1389.04 1267.23 1382.25 1290.43 1364.95 1293.49 1270.23"/><polygon class="cls-9" points="1269.05 1255.33 1302.09 1238.19 1298.01 1364.99 1265.74 1389.04 1269.05 1255.33"/><polygon class="cls-11" points="1275.29 1264 1297.17 1250.95 1293.59 1362.06 1272.27 1378.11 1275.29 1264"/><polygon class="cls-9" points="1283.85 1254.89 1281.06 1372.65 1285.82 1369.75 1288.58 1253.36 1283.85 1254.89"/><polygon class="cls-9" points="1271.04 1324.12 1299.24 1310.27 1296.45 1306.42 1268.58 1320.1 1271.04 1324.12"/><polygon class="cls-10" points="1382.34 1240.52 1389.78 1212.82 1383.23 1212.79 1354.68 1227.6 1351.82 1343.16 1358.36 1343.2 1359.65 1337.33 1379.7 1322.38 1382.34 1240.52"/><polygon class="cls-9" points="1361.22 1227.63 1389.78 1212.82 1386.25 1322.41 1358.36 1343.2 1361.22 1227.63"/><polygon class="cls-11" points="1366.61 1235.13 1385.52 1223.86 1382.43 1319.88 1364.01 1333.75 1366.61 1235.13"/><polygon class="cls-9" points="1374.01 1227.26 1371.6 1329.03 1375.72 1326.52 1378.1 1225.93 1374.01 1227.26"/><polygon class="cls-9" points="1362.94 1287.09 1387.31 1275.12 1384.9 1271.79 1360.82 1283.61 1362.94 1287.09"/><polygon class="cls-10" points="1468.19 1208.76 1475.18 1182.73 1469.03 1182.7 1442.19 1196.62 1439.5 1305.23 1445.65 1305.27 1446.86 1299.75 1465.71 1285.7 1468.19 1208.76"/><polygon class="cls-9" points="1448.34 1196.65 1475.18 1182.73 1471.86 1285.73 1445.65 1305.27 1448.34 1196.65"/><polygon class="cls-11" points="1453.41 1203.69 1471.18 1193.1 1468.27 1283.35 1450.96 1296.39 1453.41 1203.69"/><polygon class="cls-9" points="1460.36 1196.29 1458.1 1291.95 1461.96 1289.59 1464.2 1195.05 1460.36 1196.29"/><polygon class="cls-9" points="1449.96 1252.53 1472.87 1241.28 1470.6 1238.15 1447.96 1249.26 1449.96 1252.53"/><polygon class="cls-9" points="1067.87 1061.08 1061.98 1061.9 1068 1074.1 1070.92 1179.12 1130.54 1200.82 1134.29 1208.42 1139.11 1206.46 1142.99 1082.28 1067.87 1061.08"/><polygon class="cls-10" points="1065.35 1183.33 1134.29 1208.42 1137.47 1084.85 1061.98 1061.9 1065.35 1183.33"/><polygon class="cls-11" points="1102.07 1185.59 1122.69 1193.11 1123.76 1146.41 1102.52 1139.97 1102.07 1185.59"/><polygon class="cls-11" points="1097.01 1085.95 1071.17 1077.22 1072.39 1125.48 1097.13 1132.4 1097.01 1085.95"/><polygon class="cls-11" points="1072.53 1130.88 1073.64 1175.23 1097.26 1183.84 1097.14 1138.34 1072.53 1130.88"/><polygon class="cls-11" points="1123.91 1139.88 1124.93 1095.38 1103.03 1087.99 1102.58 1133.92 1123.91 1139.88"/><polygon class="cls-9" points="1097.13 1132.4 1072.39 1125.48 1072.53 1130.88 1097.14 1138.34 1097.13 1132.4"/><polygon class="cls-9" points="1102.58 1133.92 1102.52 1139.97 1123.76 1146.41 1123.91 1139.88 1102.58 1133.92"/><polygon class="cls-10" points="1095.01 1080.8 1095.28 1183.97 1100.04 1186.06 1101.06 1081.91 1095.01 1080.8"/><polygon class="cls-10" points="1130.76 1139.17 1069.98 1122.18 1067.55 1126.79 1128.58 1145.29 1130.76 1139.17"/><polygon class="cls-9" points="1067.87 1244.63 1061.98 1245.46 1068 1257.66 1070.92 1362.67 1130.54 1384.37 1134.29 1391.98 1139.11 1390.02 1142.99 1265.84 1067.87 1244.63"/><polygon class="cls-10" points="1065.35 1366.89 1134.29 1391.98 1137.47 1268.4 1061.98 1245.46 1065.35 1366.89"/><polygon class="cls-11" points="1102.07 1369.14 1122.69 1376.66 1123.76 1329.96 1102.52 1323.53 1102.07 1369.14"/><polygon class="cls-11" points="1097.01 1269.51 1071.17 1260.78 1072.39 1309.04 1097.13 1315.95 1097.01 1269.51"/><polygon class="cls-11" points="1072.53 1314.43 1073.64 1358.78 1097.26 1367.39 1097.14 1321.9 1072.53 1314.43"/><polygon class="cls-11" points="1123.91 1323.44 1124.93 1278.94 1103.03 1271.54 1102.58 1317.47 1123.91 1323.44"/><polygon class="cls-9" points="1097.13 1315.95 1072.39 1309.04 1072.53 1314.43 1097.14 1321.9 1097.13 1315.95"/><polygon class="cls-9" points="1102.58 1317.47 1102.52 1323.53 1123.76 1329.96 1123.91 1323.44 1102.58 1317.47"/><polygon class="cls-10" points="1095.01 1264.35 1095.28 1367.52 1100.04 1369.62 1101.06 1265.46 1095.01 1264.35"/><polygon class="cls-10" points="1130.76 1322.73 1069.98 1305.74 1067.55 1310.35 1128.58 1328.85 1130.76 1322.73"/><polygon class="cls-10" points="549.19 997.06 919.34 1148.29 919.34 1170.55 549.19 1018.37 549.19 997.06"/><path class="cls-9" d="M734.62,792a22.91,22.91,0,0,0-19.43.53c-5.23,2.56-11.42,7.25-12.66,15.43-2.22,14.68,6.79,25.57,20.74,26.74s25.4-12.78,24.19-23.08C746.57,804.13,743.14,795.86,734.62,792Z"/><path class="cls-15" d="M731.76,792.25a23,23,0,0,0-19.44.54c-5.23,2.55-11.41,7.25-12.65,15.43-2.22,14.67,6.78,25.56,20.73,26.74s25.4-12.78,24.19-23.08C743.71,804.37,740.28,796.09,731.76,792.25Z"/><path class="cls-11" d="M728.23,797.59a16.69,16.69,0,0,0-14.11,1.08c-3.72,2.05-8,5.68-8.65,11.68-1.09,10.75,5.84,18.34,16,18.7s18-10.2,16.76-17.65C737.35,806,734.56,800.08,728.23,797.59Z"/><polygon class="cls-9" points="923.33 1448.39 1040.95 1385.24 1038.36 1449.08 923.33 1512.92 923.33 1448.39"/><polygon class="cls-15" points="529 768.05 743.42 762.08 945.89 946.58 955.03 943.12 754.72 757.49 539.45 764.34 529 768.05"/><polygon class="cls-15" points="529 768.05 529 775.27 945.89 956.53 945.89 946.58 529 768.05"/><path class="cls-12" d="M1573.56,1307.44c-48.8-41-68.53,21.09-68.53,21.09s4.24-63.46-79.59-60.48c-39.16,1.38-50.08,37-52.89,62.23-9.6-14.63-24.84-26-48.83-28.15-56.07-5.07-40.55,91.5-40.55,91.5-6.64,1.87-13,3.33-18.77,4.46v72.3c15.9,11,38.4,18.52,65.93,9.16h0a254.29,254.29,0,0,0,154.39-29.37l18.44-10c20.2-4.18,39-14.17,55-29C1576.28,1394.13,1603.73,1332.77,1573.56,1307.44Z"/><g class="cls-25"><path class="cls-26" d="M1270.67,1430.74s-24.86-15.26-20.57-33c4-16.25,18.06-11.47,30.54-5,7.06,3.64,15.92-2.67,14-11.54-8.14-37.5,18.55-83.36,74.68-50.78,10.12,5.87,9.65-.15,5.31-6.11-15.66-21.57,16.44-75.09-26.1-68.63-63.39,9.64-115.09,45.49-115,47.76s-27.7,90.79-27.7,90.79l29.93,63.7Z"/></g><path class="cls-12" d="M1210.49,1445.21c1.46-.93,3-1.89,4.63-2.88,0,0-28.7-65,41.57-88.63,69.52-23.35,90,55.88,90,55.88s8.87-37,45.74-26.41c29.78,7.5,30,40.51,17.83,62.3,0,0,71.67,64.13-92.25,76.8-1,.41-16.28,6.19-16.28,6.19a107.06,107.06,0,0,1-32.11,6.72h0a104.79,104.79,0,0,1-61.26-15.87l-.51-.32a33.72,33.72,0,0,1-4.26-3.25C1181.84,1496.37,1185.62,1461,1210.49,1445.21Z"/><g class="cls-27"><path class="cls-14" d="M1346.68,1409.58s-48.41-52.63-86.28-20.52c-50.6,42.91-9.37,66.79-9.37,66.79s-83.18,26.64,7.35,79.31-127.82-8.39-127.82-8.39L1171,1371.3,1271.26,1295l54,32.5S1347.58,1383.83,1346.68,1409.58Z"/></g></svg>