<svg version="1.2" baseProfile="tiny-ps" xmlns="http://www.w3.org/2000/svg" viewBox="0 0 512 512" width="512" height="512">
	<title>swamp-svg</title>
	<style>
		tspan { white-space:pre }
		.shp0 { fill: #a49af3 } 
		.shp1 { fill: #887ce0 } 
		.shp2 { fill: #7c6fd8 } 
		.shp3 { fill: #bdf052 } 
		.shp4 { fill: #77dd00 } 
		.shp5 { fill: #ffda2d } 
		.shp6 { fill: #fdbf00 } 
	</style>
	<path id="Layer" class="shp0" d="M255.53 331L195.53 331C187.24 331 180.53 324.29 180.53 316C180.53 307.71 187.24 301 195.53 301L255.53 301C263.82 301 270.53 307.71 270.53 316C270.53 324.29 263.82 331 255.53 331Z" />
	<path id="Layer" class="shp0" d="M113.43 211L225.53 241C233.82 241 270.53 204.29 270.53 196C270.53 187.71 233.82 151 225.53 151L155.47 181C148.29 199.2 131.99 211 113.43 211Z" />
	<path id="Layer" class="shp0" d="M270.53 406C270.53 397.71 233.82 361 225.53 361L106.56 391C125.18 391 140.68 403.25 147.63 421L225.53 451C233.82 451 270.53 414.29 270.53 406Z" />
	<path id="Layer" class="shp1" d="M391.53 316C391.53 324.4 398.13 331 406.53 331L417.33 331C457.54 331 492.93 356.2 505.83 391L481.53 406L510.93 421C510.93 443.2 503.13 465.8 488.43 482.3C471.33 501.2 447.03 512 421.53 512L240.53 512C194.93 512 157.43 478.3 151.43 433C150.83 428.5 149.03 424.9 147.54 421L225.53 421C233.93 421 240.53 414.4 240.53 406C240.53 397.6 233.93 391 225.53 391L90.53 391C65.04 391 39.73 380.2 22.63 361.3C14.83 352.6 8.83 342.1 4.93 331L29.53 316L0.13 301C0.13 298 -0.17 295 0.13 291.7C4.63 246.4 46.73 211 94.73 211L225.54 211C233.93 211 240.54 204.4 240.54 196C240.54 187.6 233.93 181 225.54 181L155.33 181C155.63 180.7 155.93 180.4 155.93 180.1C169.13 144.7 203.04 121 240.54 121L376.54 121L439.23 122.8C484.83 131.8 515.73 173.8 510.93 220.3C506.43 265.6 465.34 301 417.33 301L406.54 301C398.13 301 391.53 307.6 391.53 316Z" />
	<path id="Layer" class="shp2" d="M391.53 316C391.53 324.4 398.13 331 406.53 331L417.33 331C457.54 331 492.93 356.2 505.83 391L481.53 406L510.93 421C510.93 443.2 503.13 465.8 488.43 482.3C471.33 501.2 447.03 512 421.53 512L285.53 512L285.53 121L376.53 121L439.23 122.8C484.83 131.8 515.73 173.8 510.93 220.3C506.43 265.6 465.33 301 417.33 301L406.53 301C398.13 301 391.53 307.6 391.53 316Z" />
	<path id="Layer" class="shp3" d="M105.53 60C97.24 60 90.53 53.29 90.53 45L90.53 15C90.53 6.71 97.24 0 105.53 0C113.82 0 120.53 6.71 120.53 15L120.53 45C120.53 53.29 113.82 60 105.53 60Z" />
	<path id="Layer" class="shp3" d="M105.53 271C97.24 271 90.53 264.29 90.53 256L90.53 166C90.53 157.71 97.24 151 105.53 151C113.82 151 120.53 157.71 120.53 166L120.53 256C120.53 264.29 113.82 271 105.53 271Z" />
	<path id="Layer" class="shp4" d="M406.53 241C398.24 241 391.53 234.29 391.53 226L391.53 166C391.53 157.71 398.24 151 406.53 151C414.82 151 421.53 157.71 421.53 166L421.53 226C421.53 234.29 414.82 241 406.53 241Z" />
	<path id="Layer" class="shp4" d="M406.53 60C398.24 60 391.53 53.29 391.53 45L391.53 15C391.53 6.71 398.24 0 406.53 0C414.82 0 421.53 6.71 421.53 15L421.53 45C421.53 53.29 414.82 60 406.53 60Z" />
	<path id="Layer" class="shp3" d="M300.53 196L300.53 226C300.53 234.4 293.93 241 285.53 241C277.13 241 270.53 234.4 270.53 226L270.53 196C270.53 187.6 277.13 181 285.53 181C293.93 181 300.53 187.6 300.53 196Z" />
	<path id="Layer" class="shp3" d="M300.53 346L300.53 436C300.53 444.4 293.93 451 285.53 451C277.13 451 270.53 444.4 270.53 436L270.53 346C270.53 337.6 277.13 331 285.53 331C293.93 331 300.53 337.6 300.53 346Z" />
	<path id="Layer" class="shp4" d="M300.53 196L300.53 226C300.53 234.4 293.93 241 285.53 241L285.53 181C293.93 181 300.53 187.6 300.53 196Z" />
	<path id="Layer" class="shp4" d="M300.53 346L300.53 436C300.53 444.4 293.93 451 285.53 451L285.53 331C293.93 331 300.53 337.6 300.53 346Z" />
	<path id="Layer" class="shp5" d="M285.53 211C260.63 211 240.53 231.1 240.53 256L240.53 316C240.53 340.9 260.63 361 285.53 361C310.43 361 330.53 340.9 330.53 316L330.53 256C330.53 231.1 310.43 211 285.53 211Z" />
	<path id="Layer" class="shp6" d="M330.53 256L330.53 316C330.53 340.9 310.43 361 285.53 361L285.53 211C310.43 211 330.53 231.1 330.53 256Z" />
	<path id="Layer" class="shp0" d="M505.89 391L406.53 391C398.24 391 391.53 397.71 391.53 406C391.53 414.29 398.24 421 406.53 421L511.02 421C511.03 417.92 511.37 414.87 511.06 411.77C510.34 404.52 508.38 397.65 505.89 391L505.89 391Z" />
	<path id="Layer" class="shp0" d="M90.53 316C90.53 307.71 83.82 301 75.53 301L0.05 301C0.07 311.3 1.54 321.42 4.92 331L75.53 331C83.82 331 90.53 324.29 90.53 316Z" />
	<path id="Layer" class="shp6" d="M406.53 181C381.72 181 361.53 160.81 361.53 136L361.53 75C361.53 50.19 381.72 30 406.53 30C431.35 30 451.53 50.19 451.53 75L451.53 136C451.53 160.81 431.35 181 406.53 181Z" />
	<path id="Layer" class="shp5" d="M105.53 181C80.72 181 60.53 160.81 60.53 136L60.53 75C60.53 50.19 80.72 30 105.53 30C130.35 30 150.53 50.19 150.53 75L150.53 136C150.53 160.81 130.35 181 105.53 181Z" />
</svg>