<svg height="512" viewBox="0 0 58 58" width="512" xmlns="http://www.w3.org/2000/svg"><g id="Page-1" fill="none" fill-rule="evenodd"><g id="029---Map" fill-rule="nonzero"><path id="Shape" d="m19 6 20-6 3 28.043-3 23.957-20 6-2.5-25.522z" fill="#f29c1f"/><path id="Shape" d="m19 6-16.4-5.178c-.60739105-.19101572-1.2694401-.08140824-1.78286197.29516695-.51342187.3765752-.8168584.97511426-.81713803 1.61183305v47.805c.0003835.873111.56710506 1.6450668 1.4 1.907l17.6 5.559z" fill="#f0c419"/><path id="Shape" d="m56.6 5.559-17.6-5.559v52l16.4 5.178c.6073911.1910157 1.2694401.0814082 1.782862-.295167.5134218-.3765752.8168584-.9751142.817138-1.611833v-47.805c-.0003835-.87311102-.5671051-1.64506675-1.4-1.907z" fill="#f0c419"/><path id="Shape" d="m50.414 40 3.293-3.293c.3789722-.3923789.3735524-1.0160848-.0121814-1.4018186s-1.0094397-.3911536-1.4018186-.0121814l-3.293 3.293-3.293-3.293c-.3923789-.3789722-1.0160848-.3735524-1.4018186.0121814s-.3911536 1.0094397-.0121814 1.4018186l3.293 3.293-3.293 3.293c-.2599566.2510745-.3642126.6228779-.2726972.9725073.0915155.3496295.3645604.6226744.7141899.7141899.3496294.0915154.7214328-.0127406.9725073-.2726972l3.293-3.293 3.293 3.293c.3923789.3789722 1.0160848.3735524 1.4018186-.0121814s.3911536-1.0094397.0121814-1.4018186z" fill="#e64c3c"/><g fill="#cb8252"><path id="Shape" d="m8.982 31h.007c.54956259.0000135.99615306-.4434509 1-.993v-.289c.011-.574.011-1.149.011-1.718 0-.5522847-.44771525-1-1-1s-1 .4477153-1 1c0 .564 0 1.133-.009 1.7v.29c-.00266468.2653921.10028121.5209577.28616084.7104011s.43944435.2972236.70483916.2995989z"/><path id="Shape" d="m9.14 37c.26469096-.0169609.51180129-.1383819.68696295-.3375486.17516165-.1991667.26402445-.4597621.24703705-.7244514-.041-.642-.066-1.3-.08-1.957-.01159798-.5522847-.46871525-.990598-1.021-.979s-.99059798.4687153-.979 1.021c.016.692.041 1.374.084 2.043.03380548.5271451.47177312.9370828 1 .936.022-.002.04-.002.062-.002z"/><path id="Shape" d="m10.606 39.766c-.0722384-.3591015-.3350302-.6499706-.68498151-.7581666-.34995133-.1081959-.73105263-.0164021-.99336201.2392658-.26230938.255668-.36384429.6342904-.26465648.9869008.17276988.7379136.40691837 1.4600944.7 2.159.13280237.3397378.44005804.5802124.8017523.6274938.3616942.0472814.7204398-.106132.9361098-.4003168.2156701-.2941848.2540459-.6824648.1001379-1.013177-.2480863-.5964582-.4470802-1.2121686-.595-1.841z"/><path id="Shape" d="m14.435 45.121c-.4899957-.2348351-.9480272-.5312282-1.363-.882-.4202887-.3589851-1.0520149-.3092887-1.411.111s-.3092887 1.0520149.111 1.411c.5447109.4617556 1.1462612.8519231 1.79 1.161.4938578.2219565 1.0746654.0105414 1.3102843-.4769459.2356189-.4874874.0404548-1.0739555-.4402843-1.3230541z"/><path id="Shape" d="m20.819 45.844c-.9107143.1482179-1.8354226.1915007-2.756.129-.3572656-.0217932-.6990192.148668-.8965254.4471724-.1975063.2985045-.2207594.6797024-.061 1.0000001.1597593.3202976.4782598.5310343.8355254.5528275.3413333.018.6943333.027 1.059.027.7312144.0029589 1.4611949-.0602994 2.181-.189.5431721-.0999635.9024635-.6213279.8025-1.1645s-.6213279-.9024635-1.1645-.8025z"/><path id="Shape" d="m25.2 43.172c-.2944945.3916326-.6274913.75277-.994 1.078-.2863409.2306318-.4230275.5997925-.3559299.9612895.0670975.3614969.3271558.6570177.6771882.7695321.3500324.1125143.7335758.0238727.9987417-.2308216.4688831-.4136954.8944122-.8740709 1.27-1.374.2152525-.2858125.2616749-.6647499.1217803-.9940703s-.4448529-.5589921-.8-.6025c-.3551471-.043508-.7065278.1057578-.9217803.3915703z"/><path id="Shape" d="m28.543 37.02c-.5415148-.1085218-1.0684742.2424861-1.177.784-.1271641.6409032-.2863637 1.2750317-.477 1.9-.1050361.3415459-.0198809.7131834.2233885.9749203s.6076946.373809.956.294c.3483055-.079809.6275754-.3393744.7326115-.6809203.2108493-.6906223.3864098-1.391529.526-2.1.1054266-.5397908-.2448385-1.0634013-.784-1.172z"/><path id="Shape" d="m29.009 31h-.036c-.5389002-.0003302-.9811386.4264299-1 .965-.024.653-.057 1.308-.105 1.962-.0200905.2652195.0663062.5275156.2400823.7288782s.4206123.3251992.6859177.3441218h.074c.5249886.0014006.9616776-.4034101 1-.927.05-.678.085-1.36.109-2.038.0094385-.2657636-.0873689-.5243412-.2690191-.7185643-.1816501-.1942231-.4331806-.3080935-.6989809-.3164357z"/><path id="Shape" d="m29 25c-.2662593-.0000048-.5215268.1061753-.7092366.2950113-.1877098.1888361-.292361.4447342-.2907634.7109887l.015 2c.0032997.5499402.4500499.9940099 1 .994h.005c.2653917-.0013222.5193731-.1080872.7060013-.2967786.1866281-.1886914.2905944-.4438312.2889987-.7092214l-.015-2c-.0032997-.5499402-.4500499-.9940099-1-.994z"/><path id="Shape" d="m29.532 19.015c-.543943-.0936334-1.0608907.2711392-1.155.815-.112.649-.2 1.351-.261 2.088-.0226856.2649357.0610799.5279973.2327804.7310355s.4171958.329332.6822196.3509645h.083c.5217847.001757.9572164-.3979693 1-.918.056-.678.136-1.321.238-1.912.0448665-.2619587-.0163924-.5310021-.1702481-.7477135-.1538557-.2167113-.3876504-.3632618-.6497519-.4072865z"/><path id="Shape" d="m31.305 13.576c-.58409.5690995-1.0835111 1.2190541-1.483 1.93-.2722613.4804896-.1034757 1.0907142.377 1.363.1497034.0859862.3193596.1311589.492.131.3608528.0007107.6940999-.1930464.872-.507.3066186-.5446402.6894879-1.0426734 1.137-1.479.2584462-.2479555.3645509-.6151953.2781709-.9627796-.08638-.3475844-.352053-.6224317-.6965057-.7205577s-.7150818-.0045453-.9716652.2453373z"/><path id="Shape" d="m43.413 11.9c-1.3895475-.6126514-2.8945137-.9195785-4.413-.9-1.4555907-.0212029-2.9058116.1811535-4.3.6-.3637362.0883727-.6476622.3724852-.7357959.7362794-.0881338.3637941.0342836.7463485.3172454.9913921.2829619.2450435.679083.311541 1.0265505.1723285 1.1980015-.3538103 2.4430458-.5224241 3.692-.5 1.2336383-.0185716 2.4568805.2279866 3.587.723.5031314.2280936 1.0959064.0051314 1.324-.498s.0051314-1.0959064-.498-1.324z"/><path id="Shape" d="m46.4 17.472c.2606784.4871151.8668849.6706784 1.354.41s.6706784-.8668849.41-1.354c-.41574-.7830373-.9189565-1.5163915-1.5-2.186-.3642219-.4124618-.9932409-.4531711-1.4075898-.0910974-.4143488.3620737-.458326.9908728-.0984102 1.4070974.4811666.5558304.8978227 1.1643765 1.242 1.814z"/><path id="Shape" d="m47.865 22.137c.0865508.6172887.1316518 1.2396821.135 1.863 0 .5522847.4477153 1 1 1s1-.4477153 1-1c-.0027327-.7150044-.0541852-1.4289917-.154-2.137-.0451009-.3572573-.278796-.6626783-.6118339-.7996186s-.713983-.0842502-.9973471.1379471c-.2833641.2221972-.4253835.5795849-.371819.9356715z"/><path id="Shape" d="m50 28c0-.5522847-.4477153-1-1-1s-1 .4477153-1 1v2c0 .5522847.4477153 1 1 1s1-.4477153 1-1z"/><path id="Shape" d="m49 33c-.5522847 0-1 .4477153-1 1v1c0 .5522847.4477153 1 1 1s1-.4477153 1-1v-1c0-.5522847-.4477153-1-1-1z"/></g><path id="Shape" d="m14 15c0 5-5 9-5 9s-5-4-5-9c0-2.7614237 2.23857625-5 5-5 2.7614237 0 5 2.2385763 5 5z" fill="#e64c3c"/><circle id="Oval" cx="9" cy="15" fill="#ecf0f1" r="1"/></g></g></svg>