<svg xmlns="http://www.w3.org/2000/svg" viewBox="0 0 512 512" width="512" height="512">
	<style>
		tspan { white-space:pre }
		.shp0 { fill: #ffd2a7;stroke: #c100ff;paint-order:stroke fill markers;stroke-width: 50 } 
		.shp1 { fill: #ffc186 } 
		.shp2 { fill: #f09b59 } 
	</style>
	<path id="Layer" class="shp0" d="M417.77 139.17L409.47 117.79L330.14 43L218.4 93.79L207.8 167.97L241.35 212.71L315.16 212.71L315.16 269.38C313.82 268.24 312.46 267.12 311.06 266.05C291.65 251.16 268.44 243.29 243.92 243.29C219.4 243.29 196.18 251.16 176.78 266.05C173.67 268.44 170.71 271.01 167.88 273.71C144.54 254.15 115.05 243.29 83.89 243.29L43 243.29L43 469.04L116.18 447.62C159.04 462.08 203.65 469.29 248.22 469.29C300.14 469.29 352.02 459.5 401.02 439.98L470 412.5L470 404.02C470 312.77 454.38 233.57 417.77 139.17Z" />
	<g id="Layer">
		<path id="Layer" class="shp1" d="M417.77 139.17L409.47 117.79L330.14 43L256.5 76.47L256.5 212.71L315.16 212.71L315.16 269.38C313.82 268.24 312.46 267.12 311.06 266.05C295.01 253.73 276.35 246.23 256.5 244L256.5 469.2C305.65 468.22 354.63 458.46 401.02 439.98L470 412.5L470 404.02C470 312.77 454.38 233.57 417.77 139.17Z" />
		<path id="Layer" class="shp1" d="M300.78 134.28L276.44 128.51L273.02 142.93L211.38 142.93L207.8 167.95L292.8 167.95L300.78 134.28Z" />
	</g>
	<path id="Layer" class="shp2" d="M276.44 128.51L273.02 142.93L256.5 142.93L256.5 167.95L292.8 167.95L300.78 134.28L276.44 128.51Z" />
	<g id="Layer">
	</g>
	<g id="Layer">
	</g>
	<g id="Layer">
	</g>
	<g id="Layer">
	</g>
	<g id="Layer">
	</g>
	<g id="Layer">
	</g>
	<g id="Layer">
	</g>
	<g id="Layer">
	</g>
	<g id="Layer">
	</g>
	<g id="Layer">
	</g>
	<g id="Layer">
	</g>
	<g id="Layer">
	</g>
	<g id="Layer">
	</g>
	<g id="Layer">
	</g>
	<g id="Layer">
	</g>
</svg>