<svg version="1.2" xmlns="http://www.w3.org/2000/svg" viewBox="0 0 473 473" width="473" height="473">
	<title>underground_lava_lake-svg</title>
	<style>
		.s0 { fill: #5c3b31 } 
		.s1 { fill: #bf4722 } 
		.s2 { fill: #cd6140 } 
		.s3 { fill: #5e3c31 } 
		.s4 { fill: #6c463a } 
		.s5 { fill: #845a4d } 
	</style>
	<path id="Layer" fill-rule="evenodd" class="s0" d="m472.8 266.6q-0.1 3-1 5.8l-9.2 28c-3.9 12-17.1 18.3-28.9 13.8l0.1 2.1c0.7 10.1-4.3 19.7-13 25l-29.1 17.9c-9.3 5.8-21.1 5.4-30.1-0.8l-2.1-1.5 1.9 10.6c1.7 9.2-3 18.4-11.5 22.5l-34.2 16.4c-6.9 3.4-15.2 2.6-21.4-1.9l-18-13.2c-0.6 5.7-3 11.3-7.4 15.9l-21 22c-5.7 5.9-13.8 9-22 8.4l-45.1-3.7c-16.8-1.3-28.4-17.5-24.4-33.9l1.6-6.5c-5 1.9-10.7 2.1-16.3-0.2l-38.4-15.9c-13.9-5.7-18-23.3-8.1-34.5q0.1-0.2 0.3-0.4l0.5-0.5-41-7.4c-15.3-2.8-24.6-18.5-19.7-33.2l9.6-28.8c2.3-6.9 7.3-12.3 13.7-15.2l-22.8-1.9c-16.8-1.4-28.4-17.5-24.4-33.9l4.1-16.8q0 0 0 0l0.7-2.8c1.8-7.2 6.4-13.3 12.7-17.1l26.1-15.4c3.3-1.9 6.9-3.1 10.6-3.5-2.2-6.1-2.9-12.7-2-19.3l3.1-21.8c2.5-17.2 15.8-30.9 32.9-33.8l19.2-3.3c8.7-1.4 17.5 0 25.3 4l18.1 9.5c5 2.6 9.2 6.2 12.6 10.5l0.4-1 13.8-30.8c5.1-11.5 16.8-18.6 29.4-17.9l12.2 0.7c3.6 0.2 7 1 10.1 2.4 7 2.9 12.7 8.4 15.9 15.6l4.5 10.2q0.7-1.8 1.5-3.5l7.7-15.6c3.2-6.4 8.6-11.4 15.1-14.1l5.5-2.3c5.5-2.3 11.5-2.9 17.2-1.8q0.9 0.2 1.7 0.4 1.7 0.5 3.4 1.1 2.4 1 4.7 2.4l69.2 42.7q0.8 0.5 1.5 1 0.2 0.1 0.4 0.3 0.6 0.4 1.1 0.8 0.2 0.2 0.4 0.3 0.5 0.4 1 0.9 0.2 0.1 0.3 0.3 0.6 0.5 1.1 1 0.1 0.1 0.2 0.2c6.6 7.1 9.3 16.9 7.5 26.1q3.2-0.2 6.4 0c3.2 0.3 6.4 0.9 9.5 1.9q3.1 1 6 2.6l18.1 9.4c14.2 7.5 22.6 22.7 21.3 38.6l-0.5 5.3-2.7 34.2q-0.4 4.5-1.7 8.7c3.2 2.2 5.9 5.2 7.6 9l3.8 8.2 2.9 7.2c1.4 3.3 1.8 6.8 1.5 10.3zm-300 97.5q0.3-0.2 0.6-0.4-0.3-0.1-0.6-0.2z"/>
	<path id="Layer" class="s1" d="m409.2 252.7c-5.4 66.7-87.4 114.3-183.6 106.5-96.1-7.7-169.4-67.9-164.1-134.5 5.4-66.7 87.5-114.3 183.6-106.5 96.1 7.7 169.5 67.9 164.1 134.5z"/>
	<path id="Layer" class="s2" d="m409.2 252.7q-0.1 0.9-0.2 1.8c-34.1 26.6-86 41.3-142.7 36.8-96-7.8-169.4-68-164-134.6q0-0.9 0.1-1.8c34.1-26.5 86-41.3 142.7-36.7 96 7.7 169.4 68 164.1 134.5z"/>
	<path id="Layer" class="s1" d="m322.1 195.2c-0.7 8.2-19.8 13.3-42.9 11.4-23-1.9-41.1-10-40.4-18.1 0.6-8.2 19.8-13.3 42.8-11.4 23 1.8 41.1 9.9 40.5 18.1z"/>
	<path id="Layer" class="s3" d="m409.4 246.6c-7-0.3-13.8-2.4-19.9-6.2l-37.2-23.8c-13.2-8.4-20.3-23.8-18.1-39.3l3.1-21.3 0.1-0.6q0.4-2.9 1.2-5.7l-48.4-1.6c-5.6-0.1-10.9-1.9-15.3-4.8-2.8 9.7-10.3 18-21 21l-34.7 9.8c-10.1 2.9-21 0.3-28.8-6.9l-16.8-15.5-1.2 14.4c-1.3 16.4-12.6 30.3-28.4 35.1-6.8 2-14 2.1-20.8 0.5-1 5-3.3 9.8-7.1 13.8l-21 22c-5.7 6-13.8 9.1-22.1 8.4l-10.7-0.9c-1-6.7-1.3-13.5-0.8-20.3 5.4-66.6 87.6-114.3 183.6-106.5 93 7.5 164.9 64.3 164.3 128.4z"/>
	<path id="Layer" class="s4" d="m307.3 39.7l69.2 42.7c15.1 9.3 18.7 29.8 7.6 43.7l-6.6 8.3c-5.9 7.3-14.8 11.5-24.1 11.2l-65.9-2.1c-12.6-0.4-23.6-8.7-27.4-20.7l-9.8-31.1c-2.3-7.3-1.7-15.3 1.7-22.1l7.7-15.6c3.2-6.4 8.6-11.4 15.2-14.2l5.4-2.2c8.9-3.7 18.9-2.9 27 2.1z"/>
	<path id="Layer" class="s5" d="m263.6 88.7l-8.2-26 4.3-8.7c3.2-6.4 8.6-11.4 15.2-14.2l5.4-2.2c8.9-3.7 18.9-2.9 27 2.1l69.2 42.7c4.4 2.7 7.9 6.4 10.3 10.6l-5.9 7.3c-5.8 7.4-14.7 11.5-24.1 11.2l-65.9-2.1c-12.6-0.4-23.5-8.7-27.3-20.7z"/>
	<path id="Layer" class="s4" d="m158.2 107.3l20.2-45.2c5.1-11.5 16.8-18.6 29.4-17.9l12.2 0.7c11.4 0.7 21.4 7.6 26 18l24.6 55.3c7.5 16.8-1.7 36.4-19.5 41.4l-34.6 9.8c-10.2 2.9-21.1 0.3-28.8-6.9l-22.4-20.6c-9.5-8.8-12.4-22.7-7.1-34.6z"/>
	<path id="Layer" class="s4" d="m90.7 76.8l19.3-3.3c8.6-1.4 17.5 0 25.2 4l18.1 9.5c14.2 7.5 22.6 22.6 21.3 38.6l-3.2 39.4c-1.3 16.5-12.6 30.4-28.4 35.1-11.1 3.3-23.2 1.6-32.9-4.6l-37.3-23.8c-13.2-8.4-20.3-23.8-18-39.3l3.1-21.9c2.4-17.1 15.7-30.8 32.8-33.7z"/>
	<g id="Layer">
		<path id="Layer" class="s4" d="m367.4 117l19.3-3.2c8.6-1.5 17.5-0.1 25.2 4l18.1 9.4c14.2 7.5 22.6 22.7 21.3 38.6l-3.2 39.4c-1.3 16.5-12.6 30.4-28.4 35.1-11.1 3.3-23.1 1.7-32.9-4.6l-37.3-23.8c-13.2-8.4-20.3-23.8-18-39.3l3.1-21.8c2.4-17.2 15.7-30.8 32.8-33.8z"/>
		<path id="Layer" class="s4" d="m70.1 150.5l35.1 16.7c16.9 8 21 30.2 8.1 43.7l-21 21.9c-5.7 6-13.8 9.1-22 8.4l-45.1-3.6c-16.8-1.4-28.4-17.5-24.4-33.9l4.8-19.6c1.8-7.2 6.4-13.3 12.7-17.1l26.1-15.4c7.9-4.6 17.5-5 25.7-1.1z"/>
		<path id="Layer" class="s4" d="m105.2 243.5l22 35.5c5.5 9 5 20.5-1.5 29l-6.3 8.2c-5.8 7.6-15.4 11.3-24.8 9.6l-50.2-9.1c-15.3-2.8-24.6-18.5-19.7-33.2l9.6-28.9c2.8-8.4 9.8-14.8 18.5-16.8l24.9-5.8c10.7-2.4 21.8 2.2 27.5 11.5z"/>
	</g>
	<path id="Layer" class="s5" d="m270.6 118.2q0.4 0.9 0.7 1.8c-3.3 2.9-7.3 5.1-11.8 6.4l-34.7 9.8c-10.1 2.9-21 0.3-28.8-6.9l-22.3-20.6c-4.7-4.3-7.8-9.8-9-15.8l13.7-30.8c5.1-11.5 16.8-18.6 29.4-17.9l12.2 0.7c11.4 0.7 21.4 7.6 26 18z"/>
	<path id="Layer" class="s5" d="m174.5 125l-0.4 5.3c-1.4 16.4-12.6 30.4-28.4 35.1-11.1 3.3-23.2 1.6-33-4.6l-37.2-23.8c-9.5-6.1-15.8-15.7-17.8-26.5l0.1-0.5c2.5-17.2 15.7-30.8 32.8-33.8l19.3-3.2c8.6-1.5 17.5-0.1 25.3 4l18 9.4c14.2 7.5 22.6 22.7 21.3 38.6z"/>
	<g id="Layer">
		<path id="Layer" class="s5" d="m451.3 165.8l-0.5 5.3c-1.3 16.4-12.6 30.4-28.3 35.1-11.2 3.3-23.2 1.6-33-4.6l-37.2-23.8c-9.5-6.1-15.8-15.7-17.8-26.5l0.1-0.5c2.4-17.2 15.7-30.8 32.8-33.8l19.3-3.2c8.6-1.5 17.5-0.1 25.2 4l18.1 9.4c14.2 7.5 22.6 22.7 21.3 38.6z"/>
		<path id="Layer" class="s5" d="m116.2 176.6q-0.1 0.1-0.2 0.1l-20.9 22c-5.7 6-13.8 9.1-22.1 8.4l-45-3.6c-10.7-0.9-19.2-7.6-23-16.6l0.6-2.8c1.8-7.2 6.4-13.3 12.7-17.1l26.1-15.4c7.9-4.6 17.5-5 25.7-1.1l35.1 16.7c4.7 2.2 8.4 5.5 11 9.4z"/>
	</g>
	<path id="Layer" class="s5" d="m105.2 243.5l20.8 33.6-3.8 4.9c-5.8 7.6-15.4 11.4-24.8 9.7l-50.3-9.1c-7.9-1.5-14.3-6.4-17.8-12.9l5-15.1c2.8-8.4 9.8-14.8 18.5-16.8l24.9-5.8c10.7-2.4 21.8 2.2 27.5 11.5z"/>
	<path id="Layer" class="s4" d="m460.7 239.4c1.9 4.8 2.1 10.2 0.5 15.1l-9.2 28c-3.9 12-17.1 18.3-28.9 13.8l-37.7-14.4c-5.4-2.1-9.9-6.3-12.3-11.6l-7-15.6c-3.7-8.4-2-18.1 4.5-24.6l10.4-10.6c3.8-3.9 9.1-6.2 14.6-6.5l37.2-1.8c9-0.5 17.4 4.6 21.1 12.7l3.9 8.3z"/>
	<path id="Layer" class="s5" d="m455.3 272.8c-5.7 3.6-12.9 4.6-19.7 2l-37.7-14.4c-5.5-2.1-9.9-6.3-12.3-11.6l-7-15.6c-1.3-3-2-6.1-1.9-9.2l4.3-4.5c3.9-3.9 9.2-6.2 14.7-6.5l37.2-1.8c9-0.5 17.3 4.6 21.1 12.7l3.8 8.3 2.9 7.2c2 4.8 2.2 10.2 0.6 15.1z"/>
	<path id="Layer" class="s5" d="m401.4 266.9c12 2.6 20.7 12.8 21.5 25.1l0.3 6.4c0.7 10.1-4.3 19.7-12.9 25l-29.2 17.9c-9.3 5.8-21.1 5.4-30.1-0.9l-23-16.1c-11.1-7.7-15-22.5-8.9-34.5q0.5-1.1 1.1-2c4.2-5.8 29.7-6.9 31.1-9.3 1.1-1.7 12.1-14.6 21.4-16.1 3.4-0.5 6.9-0.4 10.2 0.4z"/>
	<path id="Layer" class="s4" d="m163.2 334.5l-2 22.7c-1.3 14.6-16.5 23.8-30.1 18.2l-38.4-15.9c-14-5.7-18-23.7-7.8-34.9l15-16.4c6.1-6.6 15.5-8.9 23.9-5.7l25.4 9.6c9.2 3.5 14.9 12.6 14 22.4z"/>
	<path id="Layer" class="s5" d="m163.3 331.5l-0.1 1c-1.3 14.6-16.5 23.8-30.1 18.2l-38.4-15.9c-4.8-1.9-8.3-5.3-10.6-9.2q0.4-0.5 0.8-1l15-16.4c6.1-6.6 15.5-8.9 23.9-5.7l25.4 9.6c8.2 3.1 13.7 10.8 14.1 19.4z"/>
	<path id="Layer" class="s4" d="m330.9 307.9c7.9 2 14 8.5 15.4 16.5l4.5 25.2c1.7 9.2-3 18.4-11.5 22.5l-34.2 16.4c-6.9 3.4-15.2 2.6-21.4-1.9l-24.2-17.8c-9.5-6.9-11.4-20.3-4.3-29.6l15.9-20.6c3.5-4.6 8.9-7.6 14.8-8.1l38.1-3.2c2.3-0.2 4.6 0 6.9 0.6z"/>
	<path id="Layer" class="s5" d="m293.8 355.4c-7 3.3-15.2 2.6-21.4-2l-17.9-13.1q0.3-0.5 0.7-1.1l15.9-20.6c3.5-4.6 8.9-7.6 14.8-8.1l38.1-3.2c2.3-0.2 4.6 0 6.9 0.6 2.8 0.7 5.5 2 7.7 3.8l0.9 4.7c1.6 9.2-3.1 18.4-11.5 22.5z"/>
	<path id="Layer" class="s4" d="m215.1 328.9l35.1 16.7c16.9 8 21 30.2 8.1 43.7l-21 22c-5.7 5.9-13.8 9-22 8.4l-45.1-3.7c-16.8-1.3-28.4-17.5-24.4-33.9l4.9-19.6c1.7-7.2 6.3-13.3 12.7-17.1l26-15.3c7.9-4.7 17.5-5.1 25.7-1.2z"/>
	<path id="Layer" class="s5" d="m261.2 355q-0.1 0.1-0.1 0.2l-21 21.9c-5.7 6-13.8 9.1-22.1 8.4l-45-3.6c-10.6-0.9-19.2-7.6-23-16.6l0.7-2.8c1.7-7.2 6.3-13.3 12.7-17.1l26-15.3c7.9-4.7 17.5-5.1 25.7-1.2l35.1 16.7c4.7 2.2 8.4 5.5 11 9.4z"/>
	<path id="Layer" class="s5" d="m316.6 297.3c0.4-2.5 1.2-5.1 2.5-7.5q0.5-1.1 1.1-2c4.2-5.8 29.7-6.9 31.1-9.3 1.1-1.7 12.1-14.6 21.4-16.1 3.4-0.5 6.9-0.4 10.2 0.4l18.5 4.1c6.7 1.4 12.3 5.3 16.2 10.5-3.8 20.3-1.7 29.8-62.5 27.6-20.8-0.8-32.5-3.8-38.5-7.7z"/>
	<g id="Layer">
	</g>
	<g id="Layer">
	</g>
	<g id="Layer">
	</g>
	<g id="Layer">
	</g>
	<g id="Layer">
	</g>
	<g id="Layer">
	</g>
	<g id="Layer">
	</g>
	<g id="Layer">
	</g>
	<g id="Layer">
	</g>
	<g id="Layer">
	</g>
	<g id="Layer">
	</g>
	<g id="Layer">
	</g>
	<g id="Layer">
	</g>
	<g id="Layer">
	</g>
	<g id="Layer">
	</g>
</svg>