<svg id="Capa_1" enable-background="new 0 0 512 512" height="512" viewBox="0 0 512 512" width="512" xmlns="http://www.w3.org/2000/svg"><g><path d="m256.877 339.49c-2.425-18.74-12.648-36.348-27.72-47.746s-34.799-16.438-53.491-13.667c-12.259 1.817-23.797 6.778-35.71 10.194s-24.943 5.231-36.512.787c-15.745-6.048-25.645-23.701-24.122-40.498s13.476-31.817 28.915-38.608c4.462-1.963 9.396-3.321 14.194-2.464s9.359 4.393 10.187 9.196-3.291 10.191-8.133 9.636c-6.887.024-14.308 3.181-12.573 9.846 1.734 6.665 8.916 11.033 15.796 10.749 6.881-.285 13.173-4.511 17.265-10.05 8.546-11.567 7.849-28.601-.347-40.418s-22.835-18.361-37.216-18.317-28.346 6.169-39.389 15.382c-26.566 22.163-35.236 63.158-19.918 94.179s53.138 49.059 86.885 41.439c9.113-2.058 17.842-5.752 27.079-7.15 19.782-2.992 40.894 5.679 52.862 21.712s14.279 38.739 5.786 56.853c18.964-15.141 39.277-36.989 36.162-61.055z" fill="#dc8758"/><path d="m324.567 298.783c-14.41-16.842-18.579-41.81-10.424-62.421s28.279-35.966 50.311-38.39c11.942-1.314 24.032.898 36.011-.024 23.65-1.821 45.862-16.775 56.447-38.002 6.106-12.244 8.341-27.173 2.602-39.593s-20.919-20.754-33.731-15.952c-4.968 1.862-9.429 5.824-10.586 11.003-1.157 5.178 1.921 11.317 7.113 12.408 6.627 1.392 10.917 1.055 9.67 7.711s-8.375 11.132-15.141 10.864c-6.767-.267-12.904-4.386-17.229-9.597-8.909-10.734-11.01-26.667-5.188-39.344 8.902-19.382 34.626-27.585 54.568-20.021s33.29 27.931 36.158 49.066-3.162 42.899-13.917 61.317c-11.349 19.434-19.259 28.897-34.904 38.625-29.216 18.166-50.201 6.769-62.302 21.663-20.899 25.721-6.947 64.506-14.627 81.525s-9.891 37.517-1.336 54.114c-12.5-31.971-11.178-58.868-33.495-84.952z" fill="#e19974"/><path d="m132.918 450.157c-21.899 8.061-45.662 16.801-67.343 25.744h353.902c-15.436-5.941-40.698-17.299-46.98-25.676-8.193-10.925-10.457-25.265-10.005-38.913s3.339-27.104 4.324-40.724c3.049-42.162-13.237-85.341-43.372-114.986-15.035-14.791-33.035-26.13-50.174-38.42s-33.863-25.997-44.889-43.976c-11.026-17.978-15.596-41.043-7.342-60.451 5.635-13.25 21.3-18.654 31.463-28.853 10.163-10.2 22.81-20.341 22.542-40.339-.383-28.558-18.783-48.107-45.289-42.648-9.879 2.035-17.955 10.526-20.46 20.297-1.269 4.952-1.081 10.494 1.633 14.826s8.326 7.009 13.162 5.355c4.837-1.654 8.788-5.687 4.562-12.379 8.354-3.218 18.844 1.457 19.776 10.36s-4.527 17.39-11.407 23.118-15.183 9.429-22.735 14.234c-14.94 9.508-27.106 23.817-32.461 40.698-9.738 30.693 3.84 63.803 20.587 91.306s37.378 53.948 43.567 85.548c6.719 34.31-5.24 70.67-27.203 97.872-21.966 27.203-53.048 45.929-85.858 58.007z" fill="#e19974"/><g><path d="m419.476 475.901c-15.436-5.941-40.698-17.299-46.98-25.676-8.193-10.925-10.457-25.265-10.005-38.913s3.339-27.104 4.324-40.724c3.049-42.162-13.237-85.341-43.372-114.986-15.035-14.791-33.035-26.13-50.174-38.42s-33.863-25.997-44.889-43.976c-11.026-17.978-15.596-41.043-7.342-60.451 5.635-13.25 21.3-18.654 31.463-28.853 10.163-10.2 22.811-20.341 22.542-40.339-.278-20.701-10.028-36.659-25.465-41.799 8.546 4.104 34.708 44.487-18.129 84.145-29.502 22.143-56.991 67.23 10.915 131.272 15.343 14.47 35.14 23.629 50.174 38.42 30.135 29.645 46.422 72.823 43.372 114.986-.985 13.62-3.872 27.076-4.324 40.724s1.811 27.989 10.005 38.913c6.282 8.376 31.544 19.735 46.98 25.676h30.905z" fill="#dc8758"/><path d="m217.615 41.305c-.002-.641-.027-1.285-.094-1.931-.537-5.13-4.253-8.844-8.899-10.465.233 2.528.957 4.978 2.305 7.129 1.528 2.441 3.977 4.355 6.688 5.267z" fill="#e19974"/></g><path d="m0 494.476c0-10.711 7.911-19.77 18.523-21.218 41.859-5.71 147.707-18.688 245.147-18.688 96.078 0 191.256 12.617 230.09 18.444 10.485 1.573 18.24 10.575 18.24 21.178v.284c0 9.678-7.846 17.524-17.524 17.524h-476.952c-9.678 0-17.524-7.846-17.524-17.524z" fill="#ae847f"/><path d="m493.76 473.014c-38.834-5.827-134.012-18.444-230.09-18.444-97.44 0-203.288 12.977-245.147 18.688-2.547.348-4.931 1.143-7.095 2.285 50.663-6.318 139-15.584 221.336-15.584 96.078 0 191.256 12.617 230.09 18.444 10.485 1.573 18.24 10.575 18.24 21.178v.284c0 4.715-1.871 8.985-4.9 12.135h18.281c9.678 0 17.524-7.846 17.524-17.524v-.284c.001-10.602-7.754-19.604-18.239-21.178z" fill="#97756e"/></g></svg>