<svg version="1.2" xmlns="http://www.w3.org/2000/svg" viewBox="0 0 55 55" width="55" height="55">
	<title>prayer-svg</title>
	<style>
		.s0 { fill: #c43737 } 
		.s1 { fill: #d66d6d } 
	</style>
	<path id="Layer" class="s0" d="m52.8 26l-18.9-0.9q-0.5-0.1-1.1-0.1l2.7-2.3c0.9-0.9 0.9-2.2 0-3.1-0.8-0.8-2.2-0.8-3 0l-2.7 2.4q-0.1-0.8-0.1-1.6l-0.9-18.4c-0.1-0.9-1.1-2-2-2-0.9 0-1.9 1.2-2 2l-0.9 18.6q-0.1 0.7-0.1 1.4l-1.8-2.3c-0.8-0.8-2.2-0.8-3 0-0.9 0.9-0.9 2.2 0 3.1l1.8 2.2q-0.7 0-1.4 0.1l-17.6 0.9c-0.9 0.1-1.6 1.1-1.6 2 0 0.9 0.8 1.9 1.6 2l17.7 0.9q0.6 0.1 1.3 0.1l-1.9 2.3c-0.9 0.8-0.9 2.1 0 3 0.8 0.8 2.2 0.8 3 0l1.9-2.3q0 0.5 0 1l1 18c0.1 0.9 1.1 2 2 2 1.1 0 1.8-1.2 2-2l1-17.9q0-0.6 0-1.1l2.7 2.3c0.8 0.8 2.2 0.8 3 0 0.8-0.9 0.8-2.2 0-3.1l-2.7-2.2q0.6 0 1.2-0.1l18.8-0.9c0.9-0.1 2-1.1 2-2 0-0.8-1.2-1.9-2-2z"/>
	<path id="Layer" class="s1" d="m4.8 41l4 4-4 4-4-4z"/>
	<path id="Layer" class="s1" d="m46.8 4l4 4-4 4-4-4z"/>
	<g id="Layer">
	</g>
	<g id="Layer">
	</g>
	<g id="Layer">
	</g>
	<g id="Layer">
	</g>
	<g id="Layer">
	</g>
	<g id="Layer">
	</g>
	<g id="Layer">
	</g>
	<g id="Layer">
	</g>
	<g id="Layer">
	</g>
	<g id="Layer">
	</g>
	<g id="Layer">
	</g>
	<g id="Layer">
	</g>
	<g id="Layer">
	</g>
	<g id="Layer">
	</g>
	<g id="Layer">
	</g>
</svg>