<svg version="1.2" baseProfile="tiny-ps" xmlns="http://www.w3.org/2000/svg" viewBox="0 0 512 512" width="512" height="512">
	<title>5_vale (2)-svg</title>
	<style>
		tspan { white-space:pre }
		.s0 { fill: #5d3939 } 
		.s1 { fill: #c88a8a } 
		.s2 { fill: #3d1818 } 
		.s3 { fill: #f6f1f1 } 
		.s4 { fill: #d9afaf } 
		.s5 { fill: #d18983 } 
		.s6 { fill: #d99f99 } 
		.s7 { fill: #cadded } 
		.s8 { fill: #ffffff } 
		.s9 { fill: #fac600 } 
		.s10 { fill: #fea613 } 
		.s11 { fill: #fff364 } 
		.s12 { fill: #e2772c } 
		.s13 { fill: #f9c502 } 
	</style>
	<g id="Layer_6_xA0_Изображение_1_">
		<path id="Layer" class="s0" d="m255.59 495.1c-124.87 0-225.81-100.94-225.81-225.81c0-124.87 100.94-225.81 225.81-225.81c124.87 0 225.81 100.94 225.81 225.81c0 124.87-100.94 225.81-225.81 225.81z" />
	</g>
	<g id="Group_2_xA0_Изображение_1_">
		<path id="Layer" fill-rule="evenodd" class="s1" d="m405.54 249.28c-0.53 2.53-1.16 5-1.63 7.53c-3.58 18.22-8.84 35.91-21.11 50.28c-4.16 4.9-10.21 8.21-15.48 12.11c-40.12 29.85-80.29 59.65-120.41 89.45c-1.37 1-2.63 2.05-3.95 3.11c-2.84 2.26-5 1.16-6.74-1.47c-9.48-14.43-18.95-28.9-28.43-43.33c-11.85-18.01-23.69-36.06-35.54-54.07c-5.05-7.74-7.79-16.43-8.37-25.43c-2-29.85 7.9-55.75 27.48-78.08c9.85-11.16 21.53-19.95 35.43-25.22c10.53-4 21.64-6.42 32.85-2.26c8.11 2.95 13.74 9.27 19.27 15.43c3.32 3.74 6.11 7.9 9.27 11.74c0.26 0.37 1.63 0.26 2.11-0.11c5.79-4.37 11.53-8.84 17.27-13.32c10.53-8.21 22.27-13.27 35.59-15.11c11.58-1.58 22.9-1 33.7 3.58c15.53 6.58 22.27 20.85 26.01 35.33c1.32 4.53 3 14.64 2.84 28.54m-111.88 111.98c2.79-1.9 5.69-3.63 8.42-5.63c11.11-8.11 22.38-16.01 33.17-24.48c12.53-9.9 27.01-17.53 36.49-31.17c4.32-6.16 7.95-12.48 10.32-19.64c3.05-9.11 4.74-18.48 5.11-28.01c0.32-6.9 0.74-13.85-0.16-20.64c-0.63-5-3.84-9.63-4.79-14.64c-1.95-10.64-17.95-20.53-28.33-19.64c-8.84 0.74-18.01 2.53-26.22 5.79c-10.11 4.05-19.48 9.95-28.96 15.37c-4.11 2.32-8.37 7.9-13.69 6.21c-1.84-0.58-3.26-3.11-4.58-4.37c-4.9-4.84-9.32-10.21-14.32-15c-7.37-7.11-15.79-11-26.59-8.58c-21.64 4.84-37.96 17.22-50.75 34.8c-7.9 10.9-11.95 23.32-13.74 36.49c-1.53 11.11-1.11 22.22 3.79 32.43c3.47 7.27 8.32 13.95 12.69 20.8c10.85 16.85 21.8 33.7 32.75 50.49c5.16 7.95 10.27 15.9 15.58 23.74c0.53 0.79 1.53 2.53 2.05 2.21c11.79-7.69 24.48-16.43 36.06-24.38c3.16-2.16 6-4.84 9-7.32c2.37-1.63 4.53-3.21 6.69-4.84z" />
		<path id="Layer" fill-rule="evenodd" class="s1" d="m90.8 221.27c-0.53 0-1.84-0.42-1.84-4.05c-0.05-5.37-0.21-5.32-0.16-11.53c0.05-3.42 0.63-5.69 4-6.74c6.11-0.26 12.27-0.53 18.37-0.9c0.53-0.05 1.47-1.16 1.47-1.84c0.11-4.84 0.05-9.63 0.11-14.48c0-1.37 0.16-2.79 0.42-4.16c0.95-4.79 2-5.63 6.79-5.63c4.48 0 8.95 0.16 13.43-0.05c2.37-0.11 3.84 0.84 4.32 2.9c0.68 3.05 1.11 6.16 1.26 9.27c0.21 3.74 0.16 7.53 0 11.32c-0.11 2.26 0.47 3.05 2.84 3c5.05-0.21 10.16-0.05 15.27 0c1.32 0 2.58 0.32 3.9 0.53c2.58 0.37 3.63 1.63 3.47 4.42c-0.26 4.79-0.16 9.63 0 14.48c0.05 2.11-0.74 3.26-2.63 3.42c-5.21 0.37-10.48 0.74-15.69 0.79c-7.11 0.16-7.05 0.05-7.11 7.05c-0.05 4.63-0.21 9.27-0.47 13.9c-0.11 2.21-1.21 3.32-3.74 3.21c-5.84-0.21-11.74-0.21-17.64 0c-2.58 0.05-3.84-0.9-3.95-3.32c-0.21-5.95-0.47-11.9-0.37-17.85c0.05-2.47-0.47-3.37-2.79-3.47c-6.63-0.32-12.06 0.16-19.27-0.26zm30.27-29.48c0 1.74-0.26 3.53 0.05 5.26c0.95 5.79-3.47 10-9.37 9.37c-4.05-0.42-8.21 0.32-12.32 0.37c-2.84 0.05-2.53 1.9-2.63 3.79c-0.11 2.16 0.68 3.11 2.84 3.05c4.21-0.05 8.42 0 12.64 0c6.27 0 8.79 2.53 8.79 8.74c0 2.79 0 5.63 0 8.42c0 7.21 0 7.16 7.16 7.11c1.84 0 2.42-0.63 2.37-2.42c-0.11-5.11-0.05-10.16-0.05-15.27c0-3.05 3.47-6.53 6.53-6.58c5.69 0 11.42-0.11 17.11 0.05c2.05 0.05 2.53-1.05 2.11-2.58c-0.37-1.53 1.63-4.21-1.95-4.32c-5.05-0.16-10.11-0.42-15.22-0.47c-6-0.11-8.58-2.63-8.58-8.74c0-3.79 0-7.53 0-11.32c0-6.37 0-6.21-6.16-6.37c-2.53-0.05-3.26 1-3.32 3.21c0 2.9 0 5.79 0 8.69z" />
		<path id="Layer" fill-rule="evenodd" class="s1" d="m355.84 418.39c-1.79 0-3.63 0-5.42 0c-3.42 0-6.27-2.58-6.53-6c-0.26-2.95-0.47-5.9-0.58-8.84c-0.05-2.32-0.68-3-3-3c-3.84 0.05-7.69-0.11-11.53-0.42c-2.37-0.21-3.69-1.63-3.42-4.32c0.21-2.53 0.32-5.11 0-7.63c-0.42-3.42 1.42-4.69 4.26-4.95c3.63-0.37 7.37-0.53 11-0.47c2.11 0.05 2.63-0.63 2.63-2.69c0-4.26 0.16-8.58 0.47-12.85c0.26-3.05 1.84-4.74 5.63-4.16c2.58 0.42 5.26 0.32 7.84-0.05c4-0.53 5.32 1.58 5.53 4.79c0.26 4.11 0.42 8.21 0.32 12.37c-0.05 2.16 0.68 2.63 2.69 2.63c4.26 0 8.58 0.16 12.85 0.42c2.69 0.16 4.11 1.42 3.42 4.95c-0.42 2.26-0.53 4.63-0.05 6.9c0.84 4.11-0.79 5.37-3.79 5.58c-1.42 0.11-2.79 0.11-4.21 0.11c-3.58 0.11-8.27-1.11-10.37 0.74c-1.74 1.53-0.74 5.69-0.95 9.16c0 0.11-0.11 2.37-0.11 2.47c-0.21 3.63-2.95 5.26-6.69 5.26zm-4.16-39.33c0 0.63-0.05 1.26 0 1.84c0.95 7.16-2.95 11.11-10.27 10.21c-1.9-0.21-3.84-0.05-5.79 0c-0.53 0-1 0.37-1.53 0.58c0.53 0.32 1 0.84 1.53 0.84c1.95 0.11 3.9 0.26 5.79 0.05c7.37-0.9 11.21 3.05 10.32 10.21c-0.21 1.9-0.21 3.9 0.05 5.79c0.11 0.68 1.05 1.32 1.63 1.95c0.47-0.63 1.37-1.26 1.37-1.95c0.16-3.05 0.05-6.16 0.05-9.21c0-3.37 3.42-6.74 6.84-6.74c3.53 0 7 0 10.53-0.05c0.47 0 0.95-0.53 1.42-0.79c-0.47-0.26-0.95-0.74-1.47-0.74c-3.58-0.05-7.21 0-10.79-0.05c-3.05 0-6.53-3.47-6.58-6.53c0-3.84 0.05-7.74-0.11-11.58c0-0.63-1.05-1.26-1.58-1.9c-0.47 0.63-1.32 1.26-1.42 1.9c-0.11 2.11 0 4.11 0 6.16z" />
		<path id="Layer" fill-rule="evenodd" class="s1" d="m224.58 100.39c3.11 0.16 6.79 0 9.9 0c1.79 0 3.79 1.11 4.26 2.84c0.53 2.11 0.37 4.26 0.32 6.42c0 4.32-0.84 7.48 0.84 9.27c1.47 1.63 5.95 0.53 9.11 0.53c9 0.05 9 0 9 8.84c0 1.05 0 2.11 0 3.16c0 4.69-0.53 5.21-5.42 5.37c-3.84 0.16-7.69 0.21-11.53 0.58c-0.68 0.05-1.74 1.21-1.79 1.95c-0.21 3.84-0.16 7.74-0.21 11.58c-0.05 2.9-1 3.26-5.58 3.42c-2.58 0.11-4.9-0.11-7.58-0.05c-4.53 0.05-5.79-0.21-5.79-3.16c0-3.32 0.21-6.53 0-10c-0.16-2.95 0.26-3.53-3.69-3.9c-3.26-0.11-3.32-0.21-10.79-0.37c-2.37-0.05-3.37-0.79-3.21-5.37c0.05-2.11 0.16-4.21 0.05-6.32c-0.21-3.79 0-5.48 3.11-5.79c2.69-0.26 5.21 0.11 7.9 0.05c6.63-0.05 6.63 0.84 6.63-5.63c0-2.26-0.26-5.48 0.11-7.69c0.21-1.21 0.05-2.37 0.63-3.53c1-2.16 2.37-2.26 3.74-2.21zm3.95 16.22c0.9 8.79-3 12.06-11.74 11.21c-1.47-0.16-3-0.05-4.48 0c-0.37 0-0.74 0.21-1.11 0.32c0.37 0.21 0.68 0.63 1.05 0.63c2.26 0.11 4.53 0.11 6.84 0.11c6.42 0 8.9 2.53 8.9 8.9c0 1.58-0.21 3.21 0.05 4.74c0.21 1.26 1.26 4.05 1.47 3.58c0.58-1.53 1.42-2.37 1.58-3.69c0.26-2.32 0.05-4.74 0.05-7.11c0.05-2.9 3.53-6.37 6.37-6.42c3.53-0.05 7 0 10.53-0.05c0.37 0 0.79-0.26 1.16-0.37c-0.37-0.21-0.79-0.58-1.16-0.63c-3.42-0.05-6.84 0-10.27-0.05c-3.21 0-6.58-3.42-6.63-6.69c-0.05-3.58-0.63-6.9-0.84-10.48c-0.05-0.68-0.42-1.58-0.95-2.26c-0.42 0.79-0.53 1.68-0.58 2.47c-0.21 2-0.26 3.9-0.26 5.79z" />
		<path id="Layer" class="s2" d="m287.29 364.74c-3 2.47-5.84 5.11-9 7.32c-11.64 7.95-24.32 16.64-36.06 24.38c-0.53 0.37-1.53-1.42-2.05-2.21c-5.26-7.84-10.42-15.79-15.58-23.74c-10.9-16.85-21.85-33.64-32.75-50.49c-4.37-6.84-9.21-13.48-12.69-20.8c-4.84-10.21-5.32-21.32-3.79-32.43c1.79-13.16 5.84-25.59 13.74-36.49c12.79-17.58 29.06-29.96 50.75-34.8c10.79-2.42 19.22 1.53 26.59 8.58c5 4.79 9.42 10.16 14.32 15c1.26 1.26 2.69 3.42 4.53 4c5.32 1.68 9.58-3.53 13.69-5.84c9.53-5.42 18.85-11.32 28.96-15.37c8.21-3.26 17.32-5.05 26.22-5.79c10.11-0.84 24.8 7.16 28.43 17.22c0.79 2.26 2.42 6.32 2.58 6.95c1.53 5.11 1.42 5.58 2 10.21c0.84 6.79 0.42 13.79 0.16 20.64c-0.42 9.53-2.11 18.9-5.11 28.01c-2.37 7.16-6 13.48-10.32 19.64c-9.48 13.64-23.96 21.27-36.49 31.17c-10.79 8.53-22.06 16.37-33.17 24.48c-2.74 2-5.63 3.74-8.42 5.63c-2.16 1.58-4.32 3.16-6.53 4.74z" />
		<path id="Layer" class="s3" d="m287.29 364.74c2.16-1.58 4.37-3.16 6.53-4.74c-2.16 1.58-4.32 3.16-6.53 4.74z" />
		<path id="Layer" class="s4" d="m121.07 191.79c0-2.9 0-5.79 0-8.69c0-2.16 0.79-3.26 3.32-3.21c6.16 0.16 6.16 0 6.16 6.37c0 3.79 0 7.53 0 11.32c0 6.11 2.58 8.63 8.58 8.74c5.05 0.05 10.11 0.32 15.22 0.47c3.58 0.11 1.58 2.79 1.95 4.32c0.42 1.53-0.05 2.63-2.11 2.58c-5.69-0.11-11.37-0.05-17.11-0.05c-3 0-6.48 3.53-6.53 6.58c0 5.11-0.05 10.16 0.05 15.27c0.05 1.79-0.53 2.42-2.37 2.42c-7.16 0.05-7.16 0.16-7.16-7.11c0-2.79 0-5.63 0-8.42c0-6.21-2.53-8.74-8.79-8.74c-4.21 0-8.42-0.05-12.64 0c-2.16 0-2.95-0.95-2.84-3.05c0.11-1.9-0.21-3.74 2.63-3.79c4.11-0.05 8.27-0.79 12.32-0.37c5.95 0.63 10.32-3.58 9.37-9.37c-0.32-1.74-0.05-3.53-0.05-5.26z" />
		<path id="Layer" class="s4" d="m351.68 379.06c0-2-0.11-4.05 0.05-6.05c0.05-0.68 0.9-1.26 1.42-1.9c0.58 0.63 1.58 1.21 1.58 1.9c0.16 3.84 0.05 7.74 0.11 11.58c0 3.05 3.53 6.48 6.58 6.53c3.58 0 7.21 0 10.79 0.05c0.47 0 0.95 0.47 1.47 0.74c-0.47 0.26-0.95 0.74-1.42 0.79c-3.53 0.05-7 0.05-10.53 0.05c-3.42 0-6.84 3.37-6.84 6.74c0 3.05 0.11 6.16-0.05 9.21c-0.05 0.68-0.9 1.32-1.37 1.95c-0.58-0.63-1.53-1.26-1.63-1.95c-0.21-1.9-0.26-3.9-0.05-5.79c0.9-7.11-3-11.06-10.32-10.21c-1.9 0.21-3.84 0.05-5.79-0.05c-0.53-0.05-1-0.58-1.53-0.84c0.53-0.21 1-0.58 1.53-0.58c1.95-0.05 3.9-0.21 5.79 0c7.32 0.9 11.21-3.05 10.27-10.21c-0.11-0.74-0.05-1.37-0.05-1.95z" />
		<path id="Layer" class="s4" d="m227.79 116.87c0-1.95 0.11-4.53 0.26-6.42c0.11-0.79 0.95-1.9 1.42-2.69c0.53 0.68 1.21 2.21 1.26 2.9c0.21 3.58 0.37 2.84 0.42 6.42c0.05 3.26 1.42 9.79 6.11 10.21c3.42 0.32 7.21 0.53 10.64 0.58c0.37 0 1.11 0.58 1.53 0.79c-0.37 0.16-1.16 0.63-1.53 0.63c-3.53 0.05-6.63 0-10.16 0.05c-2.9 0-6.37 5.26-6.37 8.16c0 2.37 0.11 2.63-0.16 5c-0.16 1.32-1.16 3.79-1.58 4.53c-0.26 0.47-1.47-3.21-1.68-4.53c-0.26-1.53 0.05-3.16-0.05-4.74c-0.21-3.47-2.32-8.42-8.69-8.42c-2.26 0-4.53-0.11-6.84-0.21c-0.37 0-0.9-0.79-1.26-1c0.37-0.11 0.84-0.74 1.21-0.74c1.47-0.05 3.11 0.05 4.58 0c5.79-0.11 9.85-2.58 10.9-10.53z" />
	</g>
	<g id="Слой_5">
		<path id="Layer" class="s5" d="m330.46 69.33c-2.53 1.53-6.63 2.9-8.63 5c-4.63 4.79-5.58 6.63-7.79 14c-0.37 1.21-1.26 3.9-1.58 5.16c-1.9 7.21-1.58 14.58-1.58 22.01c0 1.68 0.11 3.32 0 5c-0.11 2.58-1.68 4.16-4.11 4.16c-2.37 0-4-1.58-4-4.26c-0.05-5.79 0.21-11.58-0.11-17.37c-0.42-8.16-2.79-15.85-6.84-22.9c-4-6.95-10.27-10.16-17.95-11.95c-9.16-2.16-18.37-2.05-27.64-2.11c-1.26 0-2.58-0.26-3.79-0.68c-1.47-0.47-2.11-1.79-2.11-3.32c0-1.53 0.53-2.79 2.05-3.37c1.05-0.37 2.16-0.68 3.26-0.68c4.05-0.11 8.06-0.11 12.11 0c7.63 0.16 14.74-0.79 21.95-2.9c6.69-3.42 9.69-6.95 12.74-11.95c0.42-0.63 0.95-1.21 1.37-1.84c0.58 1.05 1.11 2.16 1.68 3.21c4.05 8.27 9.9 14.9 17.8 19.64c4 2.53 8.11 5.05 13.16 5.16z" />
		<path id="Layer" class="s6" d="m281.55 55.74c3.16-0.9 5.21-2.84 7.48-4.69c5.48-4.53 7.84-11 10-17.53c2.53-7.84 2.16-15.9 2.16-23.96c0-1.68-0.11-3.32 0-5c0.11-2.58 1.68-4.16 4.11-4.16c2.37 0 4 1.58 4 4.26c0.05 5.79-0.21 11.58 0.11 17.37c0.42 8.16 2.79 15.85 6.84 22.9c4 6.95 10.27 10.16 17.95 11.95c9.16 2.16 18.37 2.05 27.64 2.11c1.26 0 2.58 0.26 3.79 0.68c1.47 0.47 2.11 1.79 2.11 3.32c0 1.53-0.53 2.79-2.05 3.37c-1.05 0.37-2.16 0.68-3.26 0.68c-4.05 0.11-8.06 0.11-12.11 0c-7.63-0.16-14.95 1.68-22.11 3.79c-5.74 1.68-8.74 5.74-11.79 10.69c-0.95 2.16-1.05 2.53-1.32 3.42c-0.58-1.05-1.95-3.42-2.47-4.53c-4.05-8.27-9.9-14.9-17.8-19.64c-4.11-2.42-8.21-5-13.27-5.05z" />
		<path id="Layer" class="s7" d="m434.91 335.89c-1.32 0.79-3.47 1.53-4.53 2.63c-2.42 2.47-2.9 3.47-4.05 7.32c-0.21 0.63-0.68 2.05-0.84 2.69c-1 3.74-0.79 7.63-0.79 11.48c0 0.84 0.05 1.74 0 2.58c-0.05 1.37-0.9 2.16-2.16 2.16c-1.26 0-2.05-0.84-2.11-2.21c-0.05-3 0.11-6.05-0.05-9.06c-0.21-4.26-1.42-8.27-3.58-11.95c-2.11-3.63-5.37-5.26-9.37-6.21c-4.79-1.11-9.58-1.05-14.43-1.11c-0.68 0-1.37-0.16-2-0.37c-0.79-0.26-1.11-0.9-1.11-1.74c0-0.79 0.26-1.47 1.05-1.74c0.53-0.21 1.16-0.37 1.68-0.37c2.11-0.05 4.21-0.05 6.32 0c4 0.11 7.69-0.42 11.42-1.47c3.47-1.79 5.05-3.63 6.63-6.21c0.21-0.32 0.47-0.63 0.74-0.95c0.26 0.58 0.58 1.11 0.84 1.68c2.11 4.32 5.16 7.74 9.27 10.21c2.26 1.26 4.42 2.63 7.05 2.63z" />
		<path id="Layer" class="s8" d="m409.43 328.83c1.63-0.47 2.74-1.47 3.9-2.42c2.84-2.37 4.11-5.74 5.21-9.16c1.32-4.11 1.11-8.27 1.11-12.48c0-0.84-0.05-1.74 0-2.58c0.05-1.37 0.9-2.16 2.16-2.16c1.26 0 2.05 0.84 2.11 2.21c0.05 3-0.11 6.05 0.05 9.06c0.21 4.26 1.42 8.27 3.58 11.95c2.11 3.63 5.37 5.26 9.37 6.21c4.79 1.11 9.58 1.05 14.43 1.11c0.68 0 1.37 0.16 2 0.37c0.79 0.26 1.11 0.9 1.11 1.74c0 0.79-0.26 1.47-1.05 1.74c-0.53 0.21-1.16 0.37-1.68 0.37c-2.11 0.05-4.21 0.05-6.32 0c-4-0.11-7.79 0.9-11.53 2c-3 0.9-4.58 3-6.16 5.58c-0.47 1.11-0.53 1.32-0.68 1.79c-0.26-0.58-1-1.79-1.26-2.37c-2.11-4.32-5.16-7.74-9.27-10.21c-2.26-1.37-4.42-2.69-7.05-2.74z" />
		<path id="Layer" class="s8" d="m188.31 78.43c0.9 0 1.74 0 2.63 0c0.47 1 1.11 1.95 1.47 3c1.42 3.95 5.63 7.79 9.48 9.58c1.53 0.74 1.26 0.79 2.79 1.63c0 0.68 0 1.42 0 2.11c-0.84 0.42-1.63 1-2.53 1.26c-4.79 1.42-7.79 4.69-9.74 9.11c-0.53 1.16-1.26 2.21-1.95 3.32c-0.68 0-1.42 0-2.11 0c-0.37-0.68-1.26-2.32-1.47-3.05c-1.9-6.37-5.9-9.06-12.21-10.64c0-0.9 0-1.74 0-2.63c0.84-0.42 2-0.74 3-1.16c4.58-1.95 7.42-5.16 9.27-9.58c0.47-1.21 0.79-1.79 1.37-2.95z" />
		<path id="Layer" class="s8" d="m247.96 295.61c0.9 0 1.74 0 2.63 0c0.47 1 1.11 1.95 1.47 3c1.42 3.95 5.63 7.79 9.48 9.58c1.53 0.74 1.26 0.79 2.79 1.63c0 0.68 0 1.42 0 2.11c-0.84 0.42-1.63 1-2.53 1.26c-4.79 1.42-7.79 4.69-9.74 9.11c-0.53 1.16-1.26 2.21-1.95 3.32c-0.68 0-1.42 0-2.11 0c-0.37-0.68-1.26-2.32-1.47-3.05c-1.9-6.37-5.9-9.06-12.21-10.64c0-0.9 0-1.74 0-2.63c0.84-0.42 2-0.74 3-1.16c4.58-1.95 7.42-5.16 9.27-9.58c0.47-1.21 0.79-1.79 1.37-2.95z" />
		<path id="Layer" class="s6" d="m196.2 428.23c-0.42-0.63-0.42-1.42 0-2c0.42-0.63 1.05-1.26 1.58-1.84c1.47-1.58 2.74-2.74 4.11-4.32c2.05-2.26 3.74-2.26 5.79 0.05c1.32 1.47 2.79 2.74 4.11 4.16c2.11 2.16 2 3.37-0.05 5.69c-1.21 1.37-2.53 2.63-3.74 4c-1.79 1.95-4.16 2.58-6.48 0.05c-1.37-1.53-2.47-2.47-3.9-4c-0.32-0.42-1.05-1.32-1.42-1.79z" />
		<path id="Layer" class="s9" d="m397.27 403.12c-0.42-0.63-0.42-1.42 0-2c0.42-0.63 1.05-1.26 1.58-1.84c1.47-1.58 2.74-2.74 4.11-4.32c2.05-2.26 3.74-2.26 5.79 0.05c1.32 1.47 2.79 2.74 4.11 4.16c2.11 2.16 2 3.37-0.05 5.69c-1.21 1.37-2.53 2.63-3.74 4c-1.79 1.95-4.16 2.58-6.48 0.05c-1.37-1.53-2.47-2.47-3.9-4c-0.32-0.37-1.05-1.26-1.42-1.79z" />
		<path id="Layer" class="s9" d="m68.74 249.28c-0.42-0.63-0.42-1.42 0-2c0.42-0.63 1.05-1.26 1.58-1.84c1.47-1.58 2.74-2.74 4.11-4.32c2.05-2.26 3.74-2.26 5.79 0.05c1.32 1.47 2.79 2.74 4.11 4.16c2.11 2.16 2 3.37-0.05 5.69c-1.21 1.37-2.53 2.63-3.74 4c-1.79 1.95-4.16 2.58-6.48 0.05c-1.37-1.53-2.47-2.47-3.9-4c-0.32-0.37-1.11-1.26-1.42-1.79z" />
		<path id="Layer" class="s10" d="m113.81 214.79c-7.83 0-14.16-6.33-14.16-14.16c0-7.83 6.33-14.16 14.16-14.16c7.83 0 14.16 6.33 14.16 14.16c0 7.83-6.33 14.16-14.16 14.16z" />
		<g id="Layer">
			<path id="Layer" class="s10" d="m113.81 214.79c-7.83 0-14.16-6.33-14.16-14.16c0-7.83 6.33-14.16 14.16-14.16c7.83 0 14.16 6.33 14.16 14.16c0 7.83-6.33 14.16-14.16 14.16z" />
			<path id="Layer" class="s9" d="m113.86 214.53c-7.77 0-14.06-6.28-14.06-14.06c0-7.77 6.28-14.06 14.06-14.06c7.77 0 14.06 6.28 14.06 14.06c0 7.77-6.28 14.06-14.06 14.06z" />
			<path id="Layer" class="s9" d="m113.91 214.58c-7.77 0-14.06-6.28-14.06-14.06c0-7.77 6.28-14.06 14.06-14.06c7.77 0 14.06 6.28 14.06 14.06c0 7.77-6.28 14.06-14.06 14.06z" />
		</g>
		<path id="Layer" class="s10" d="m211.84 168.15c-12.29 0-22.22-9.93-22.22-22.22c0-12.29 9.93-22.22 22.22-22.22c12.29 0 22.22 9.93 22.22 22.22c0 12.29-9.93 22.22-22.22 22.22z" />
		<g id="Layer">
			<path id="Layer" class="s9" d="m212 168.2c-12.29 0-22.22-9.93-22.22-22.22c0-12.29 9.93-22.22 22.22-22.22c12.29 0 22.22 9.93 22.22 22.22c0 12.29-9.93 22.22-22.22 22.22z" />
		</g>
		<path id="Layer" class="s10" d="m367.1 271.55c-18.52 0-33.48-14.97-33.48-33.48c0-18.52 14.97-33.48 33.48-33.48c18.52 0 33.48 14.97 33.48 33.48c0 18.52-14.97 33.48-33.48 33.48z" />
		<g id="Layer">
			<path id="Layer" class="s9" d="m367.37 271.65c-18.52 0-33.48-14.97-33.48-33.48c0-18.52 14.97-33.48 33.48-33.48c18.52 0 33.48 14.97 33.48 33.48c0 18.52-14.97 33.48-33.48 33.48z" />
		</g>
		<path id="Layer" class="s11" d="m367.52 255.7c-9.67 0-17.48-7.88-17.48-17.64c0-9.75 7.81-17.64 17.48-17.64c9.67 0 17.48 7.88 17.48 17.64c0 9.75-7.81 17.64-17.48 17.64z" />
		<path id="Layer" class="s12" d="m245.85 392.27c-10.6 0-19.16-8.57-19.16-19.16c0-10.6 8.57-19.16 19.16-19.16c10.6 0 19.16 8.57 19.16 19.16c0 10.6-8.57 19.16-19.16 19.16z" />
		<g id="Layer">
			<path id="Layer" class="s12" d="m245.9 391.85c-10.48 0-18.95-8.47-18.95-18.95c0-10.48 8.47-18.95 18.95-18.95c10.48 0 18.95 8.47 18.95 18.95c0 10.48-8.47 18.95-18.95 18.95z" />
			<path id="Layer" class="s10" d="m246.06 391.9c-10.48 0-18.95-8.47-18.95-18.95c0-10.48 8.47-18.95 18.95-18.95c10.48 0 18.95 8.47 18.95 18.95c0 10.48-8.47 18.95-18.95 18.95z" />
		</g>
		<path id="Layer" class="s8" d="m245.85 380.43c-4.05 0-7.32-3.27-7.32-7.32c0-4.05 3.27-7.32 7.32-7.32c4.05 0 7.32 3.27 7.32 7.32c0 4.05-3.27 7.32-7.32 7.32z" />
		<path id="Layer" class="s10" d="m330.93 391.27c-7.83 0-14.16-6.33-14.16-14.16c0-7.83 6.33-14.16 14.16-14.16c7.83 0 14.16 6.33 14.16 14.16c0 7.83-6.33 14.16-14.16 14.16z" />
		<g id="Layer">
			<path id="Layer" class="s10" d="m330.93 391.27c-7.83 0-14.16-6.33-14.16-14.16c0-7.83 6.33-14.16 14.16-14.16c7.83 0 14.16 6.33 14.16 14.16c0 7.83-6.33 14.16-14.16 14.16z" />
			<path id="Layer" class="s9" d="m330.98 391.01c-7.77 0-14.06-6.28-14.06-14.06c0-7.77 6.28-14.06 14.06-14.06c7.77 0 14.06 6.28 14.06 14.06c0 7.77-6.28 14.06-14.06 14.06z" />
			<path id="Layer" class="s9" d="m331.09 391.06c-7.77 0-14.06-6.28-14.06-14.06c0-7.77 6.28-14.06 14.06-14.06c7.77 0 14.06 6.28 14.06 14.06c0 7.77-6.28 14.06-14.06 14.06z" />
		</g>
		<path id="Layer" class="s8" d="m129.13 191l-0.68-1.16c-0.95-1.63-0.42-3.74 1.16-4.69l50.75-30.27c1.63-0.95 3.74-0.42 4.69 1.16l0.68 1.16c0.95 1.63 0.42 3.74-1.16 4.69l-50.75 30.27c-1.58 1-3.74 0.47-4.69-1.16z" />
		<path id="Layer" class="s8" d="m222.95 194.79l-1.32 0.37c-1.79 0.53-3.69-0.53-4.21-2.32l-4.37-15.27c-0.53-1.79 0.53-3.69 2.32-4.21l1.32-0.37c1.79-0.53 3.69 0.53 4.21 2.32l4.37 15.27c0.53 1.79-0.53 3.69-2.32 4.21z" />
		<path id="Layer" class="s8" d="m244.48 225.22l0.26-1.32c0.32-1.84 2.11-3.11 3.95-2.79l73.39 13c1.84 0.32 3.11 2.11 2.79 3.95l-0.26 1.32c-0.32 1.84-2.11 3.11-3.95 2.79l-73.39-13c-1.9-0.32-3.11-2.11-2.79-3.95z" />
		<path id="Layer" class="s8" d="m261.12 351.47l-1-0.95c-1.37-1.26-1.47-3.42-0.21-4.84l73.87-80.13c1.26-1.37 3.42-1.47 4.84-0.21l1 0.95c1.37 1.26 1.47 3.42 0.21 4.84l-73.92 80.13c-1.26 1.37-3.42 1.47-4.79 0.21z" />
		<path id="Layer" class="s8" d="m269.65 377.79v-1.37c0-1.9 1.53-3.42 3.42-3.42h35.01c1.9 0 3.42 1.53 3.42 3.42v1.37c0 1.9-1.53 3.42-3.42 3.42h-35.01c-1.9 0-3.42-1.53-3.42-3.42z" />
		<path id="Layer" class="s10" d="m229.06 198.63c0.16 0.37 0.21 0.74 0.26 1.16c0.53 3.58 2.26 6.63 4.58 9.27c2.16 2.47 4.9 4.32 8.16 5.26c0.84 0.21 1.63 0.47 2.47 0.68c-1.11 0.47-1.74 0.84-2.21 1.16c-3.69 1.95-5.95 5-7.32 8.84c-0.32 0.79-0.58 1.63-0.9 2.42c-0.37 1-1.16 1.37-2.16 1.37c-0.95 0-1.68-0.42-2.05-1.32c-0.26-0.58-0.47-1.21-0.68-1.84c-1.37-4.48-4.11-7.84-8.37-9.85c-1.53-0.74-3.05-1.32-4.63-2c-0.26-0.11-0.53-0.16-0.74-0.32c-0.84-0.42-1.63-1.05-1.58-2.11c0.05-1.05 0.68-1.79 1.68-2.21c0.9-0.37 1.84-0.68 2.74-1c4.69-1.79 8.69-4.74 10.74-9.53z" />
		<path id="Layer" class="s13" d="m235.16 224.06c-0.16-0.37-0.21-0.74-0.26-1.16c-0.53-3.58-2.26-6.63-4.58-9.27c-2.16-2.47-4.9-4.32-8.16-5.26c-0.84-0.21-1.63-0.47-2.47-0.68c1.11-0.47 1.74-0.84 2.21-1.16c3.69-1.95 5.95-5 7.32-8.84c0.32-0.79 0.58-1.63 0.9-2.42c0.37-1 1.16-1.37 2.16-1.37c0.95 0 1.68 0.42 2.05 1.32c0.26 0.58 0.47 1.21 0.68 1.84c1.37 4.48 4.11 7.84 8.37 9.85c1.53 0.74 3.05 1.32 4.63 2c0.26 0.11 0.53 0.16 0.74 0.32c0.84 0.42 1.63 1.05 1.58 2.11c-0.05 1.05-0.68 1.79-1.68 2.21c-0.9 0.37-1.84 0.68-2.74 1c-4.74 1.79-8.74 4.74-10.74 9.53z" />
		<path id="Layer" class="s5" d="m178.94 462.14c0.32 0.63 0.37 1.21 0.47 1.84c0.84 5.79 3.69 10.69 7.42 14.95c3.53 4 7.95 7 13.21 8.48c1.32 0.37 2.69 0.74 4 1.11c-1.79 0.79-2.79 1.37-3.63 1.9c-5.95 3.11-9.63 8.06-11.85 14.32c-0.47 1.32-0.95 2.63-1.42 3.95c-0.63 1.63-1.9 2.21-3.53 2.21c-1.53 0-2.69-0.63-3.32-2.16c-0.37-0.95-0.79-1.95-1.11-2.95c-2.21-7.27-6.63-12.64-13.48-15.95c-2.42-1.16-5-2.16-7.48-3.21c-0.42-0.16-0.84-0.26-1.21-0.47c-1.37-0.68-2.63-1.68-2.53-3.37c0.05-1.74 1.11-2.9 2.74-3.53c1.47-0.58 2.95-1.05 4.42-1.63c7.53-2.95 13.95-7.74 17.27-15.48z" />
		<path id="Layer" class="s6" d="m188.83 503.26c-0.32-0.63-0.32-1.21-0.42-1.84c-0.84-5.79-3.69-10.69-7.42-14.95c-3.53-4-7.95-7-13.21-8.48c-1.32-0.37-2.69-0.74-4-1.11c1.79-0.79 2.79-1.37 3.63-1.9c5.95-3.11 9.63-8.06 11.85-14.32c0.47-1.32 0.95-2.63 1.42-3.95c0.63-1.63 1.9-2.21 3.53-2.21c1.53 0 2.69 0.63 3.32 2.16c0.37 0.95 0.79 1.95 1.11 2.95c2.21 7.27 6.63 12.64 13.48 15.95c2.42 1.16 5 2.16 7.48 3.21c0.42 0.16 0.84 0.26 1.21 0.47c1.37 0.68 2.63 1.68 2.53 3.37c-0.05 1.74-1.11 2.9-2.74 3.53c-1.47 0.58-2.95 1.05-4.42 1.63c-7.58 2.95-14.06 7.74-17.32 15.48z" />
	</g>
</svg>