<svg id="Flat" height="512" viewBox="0 0 340 340" width="512" xmlns="http://www.w3.org/2000/svg" xmlns:xlink="http://www.w3.org/1999/xlink"><linearGradient id="linear-gradient" gradientUnits="userSpaceOnUse" x1="117.414" x2="117.414" y1="319.607" y2="87.078"><stop offset="0" stop-color="#ffcac0"/><stop offset="1" stop-color="#f99393"/></linearGradient><linearGradient id="linear-gradient-2" x1="150.275" x2="150.275" xlink:href="#linear-gradient" y1="319.607" y2="87.078"/><linearGradient id="linear-gradient-3" x1="172.911" x2="172.911" xlink:href="#linear-gradient" y1="320.033" y2="110.063"/><linearGradient id="linear-gradient-4" gradientUnits="userSpaceOnUse" x1="194.657" x2="194.657" y1="325.413" y2="134.907"><stop offset="0" stop-color="#ed7d7a"/><stop offset="1" stop-color="#d35454"/></linearGradient><linearGradient id="linear-gradient-5" x1="153.745" x2="153.745" xlink:href="#linear-gradient-4" y1="325.413" y2="134.907"/><linearGradient id="linear-gradient-6" x1="183.135" x2="183.135" xlink:href="#linear-gradient" y1="319.607" y2="87.078"/><linearGradient id="linear-gradient-7" x1="215.996" x2="215.996" xlink:href="#linear-gradient" y1="319.607" y2="87.078"/><linearGradient id="linear-gradient-8" x1="203.824" x2="203.824" xlink:href="#linear-gradient-4" y1="325.413" y2="134.907"/><linearGradient id="linear-gradient-9" x1="141.929" x2="141.929" xlink:href="#linear-gradient-4" y1="325.413" y2="134.907"/><linearGradient id="linear-gradient-10" x1="135.232" x2="135.232" xlink:href="#linear-gradient" y1="319.607" y2="87.078"/><linearGradient id="linear-gradient-11" x1="199.566" x2="199.566" xlink:href="#linear-gradient-4" y1="325.413" y2="134.907"/><linearGradient id="linear-gradient-12" x1="166.705" x2="166.705" xlink:href="#linear-gradient-4" y1="325.413" y2="134.907"/><linearGradient id="linear-gradient-13" x1="133.844" x2="133.844" xlink:href="#linear-gradient-4" y1="325.413" y2="134.907"/><linearGradient id="linear-gradient-14" gradientUnits="userSpaceOnUse" x1="292.933" x2="292.933" y1="2.759" y2="218.252"><stop offset="0" stop-color="#fff69f"/><stop offset="1" stop-color="#ffaf44"/></linearGradient><linearGradient id="linear-gradient-15" x1="213.286" x2="213.286" xlink:href="#linear-gradient-14" y1="-33.064" y2="218.998"/><linearGradient id="linear-gradient-16" x1="63.239" x2="63.239" xlink:href="#linear-gradient-14" y1="-32.402" y2="223.819"/><path d="m133.844 114.939h-21a11.865 11.865 0 0 0 -11.86 11.861v38.66l32.86 23.339z" fill="url(#linear-gradient)"/><path d="m133.844 114.939h32.861v73.86h-32.861z" fill="url(#linear-gradient-2)"/><path d="m116.523 270.692 4.167 8.838v44.47h98.142v-43.85a21.027 21.027 0 0 1 0-13.219s13.594-5.637 13.594-34.814v-51.972l-64.911-13.127-54.115 43.548z" fill="url(#linear-gradient-3)"/><path d="m232.426 158.648a16.43 16.43 0 0 1 -16.426 16.431 16.429 16.429 0 0 1 -16.428-16.389v10.245a16.43 16.43 0 0 1 -16.43 16.431 16.43 16.43 0 0 1 -16.43-16.431v-1.266l-9.817 7.9a27.066 27.066 0 0 0 48.912 8.159 27.024 27.024 0 0 0 26.626-3.583z" fill="url(#linear-gradient-4)"/><path d="m184.38 162.636-16.865 4.382-54.115 43.548.232 4.458 47.468 29.693a7.819 7.819 0 0 0 11.523-3.951 75.22 75.22 0 0 1 20.654-30.623 2.41 2.41 0 0 0 -2.455-4.05c-13.107 5.054-17.916 14.426-17.916 14.426a35.294 35.294 0 0 0 -11.225-17.958c17.252-6.288 21.626-27.67 22.699-39.925z" fill="url(#linear-gradient-5)"/><path d="m199.566 114.939h-32.861v54l12.382 15.928a16.467 16.467 0 0 0 4.048.5 16.43 16.43 0 0 0 16.431-16.431z" fill="url(#linear-gradient-6)"/><path d="m199.566 114.939h21a11.864 11.864 0 0 1 11.86 11.861v31.844a16.43 16.43 0 0 1 -16.426 16.435 16.43 16.43 0 0 1 -16.43-16.43v-43.71a0 0 0 0 1 0 0z" fill="url(#linear-gradient-7)"/><path d="m218.832 266.931a84.461 84.461 0 0 1 -28.587 5.8 1.463 1.463 0 0 0 -.627 2.765c5.122 2.561 14.741 5.823 29.214 4.657" fill="url(#linear-gradient-8)"/><path d="m166.705 188.8v-17.995c0 6.954 5.272 12.776 12.387 14.411a50.252 50.252 0 0 0 3.283-8.9c2.643-9.78-5.565-19.21-16.68-19.21h-55.495c-5.092 0-9.22 3.739-9.22 8.352v23.342h65.721z" fill="url(#linear-gradient-9)"/><path d="m117.277 167.018h42.206a6.57 6.57 0 0 1 6.465 7.791c-1.874 9.826-8.327 25.452-30.409 25.452 0 0 34.461 2.817 34.461 54.091l-49.31 25.178s-20.225-30.249-20.225-54.477c0-13.651.358-30.343.67-42.315a16.142 16.142 0 0 1 16.142-15.72z" fill="url(#linear-gradient-10)"/><path d="m195.544 114.939h8.043v68.199h-8.043z" fill="url(#linear-gradient-11)"/><path d="m162.683 114.939h8.043v46.829h-8.043z" fill="url(#linear-gradient-12)"/><path d="m129.823 114.939h8.043v46.829h-8.043z" fill="url(#linear-gradient-13)"/><path d="m321.361 152.681h-23.575a128.173 128.173 0 0 0 -13.442-41.755 3.359 3.359 0 0 0 -5.289-.866l-16.179 15.419a5.879 5.879 0 0 0 -1.336 6.564 98.972 98.972 0 0 1 7.86 38.757 100.207 100.207 0 0 1 -.762 12.346 5.045 5.045 0 0 0 5.021 5.649h47.7a3.44 3.44 0 0 0 3.44-3.44v-29.233a3.441 3.441 0 0 0 -3.438-3.441z" fill="url(#linear-gradient-14)"/><path d="m316.894 44.673-20.764-20.763a3.439 3.439 0 0 0 -4.865 0l-43.723 43.723a128.383 128.383 0 0 0 -59.42-24.615v-23.575a3.441 3.441 0 0 0 -3.44-3.443h-29.364a3.441 3.441 0 0 0 -3.44 3.441v23.577a128.153 128.153 0 0 0 -41.408 13.264 3.358 3.358 0 0 0 -.816 5.349l16.022 16.021a5.856 5.856 0 0 0 6.387 1.266 99.423 99.423 0 0 1 116.784 31.358 4.541 4.541 0 0 0 6.821.488l17.5-17.5 43.723-43.723a3.441 3.441 0 0 0 .003-4.868z" fill="url(#linear-gradient-15)"/><path d="m23.122 49.538 43.8 43.51a129.3 129.3 0 0 0 -24.7 59.633h-23.583a3.441 3.441 0 0 0 -3.44 3.441v29.237a3.44 3.44 0 0 0 3.44 3.44h47.7a5.045 5.045 0 0 0 5.021-5.649 99.511 99.511 0 0 1 38.112-91.194 4.539 4.539 0 0 0 .489-6.82l-17.5-17.5-43.726-43.726a3.439 3.439 0 0 0 -4.865 0l-20.756 20.755a3.441 3.441 0 0 0 .008 4.873z" fill="url(#linear-gradient-16)"/></svg>