<svg version="1.2" xmlns="http://www.w3.org/2000/svg" viewBox="0 0 512 512" width="512" height="512">
	<title>variel-svg</title>
	<style>
		.s0 { fill: #476499 } 
		.s1 { fill: #5f80af } 
		.s2 { fill: #2b4576 } 
		.s3 { fill: none;stroke: #9ccde2;stroke-width: 9.5 } 
		.s4 { fill: #9ccde2 } 
		.s5 { fill: #6c90be } 
		.s6 { fill: #fea613 } 
		.s7 { fill: #fac600 } 
		.s8 { fill: #fff364 } 
		.s9 { fill: #e2772c } 
		.s10 { fill: #ffffff } 
		.s11 { fill: #bfe4f8 } 
		.s12 { fill: #cadded } 
		.s13 { fill: #fda616 } 
		.s14 { fill: #e27a31 } 
		.s15 { fill: #fdb233 } 
		.s16 { fill: #f9c502 } 
		.s17 { fill: #79a7d8 } 
	</style>
	<g id="Layer_3">
		<g id="_x30_60---Spell-Book">
			<g id="Layer">
				<g id="Ellipse_1_xA0_Изображение_00000074399808622013657860000013385708419918848935_">
					<g id="Layer">
						<circle id="Layer" class="s0" cx="256.1" cy="256.2" r="255.9"/>
					</g>
				</g>
			</g>
		</g>
		<ellipse id="Layer" class="s1" cx="253.4" cy="258.9" rx="160.9" ry="165.2"/>
		<path id="Layer" class="s2" d="m134.6 141.4l10.2-8.3 82.9 54.9 19.3-101.3 15.3-2.6 21.9 103.9 64.5-38.3c0 0 17.1-14.9 17.5-16.6 0.5-1.8 8.8 13.4 8.8 13.4l-50.9 81.5c0 0 91.9 20 93.7 20 1.7 0-2.2 15.8-2.2 15.8l-91.6 20.7 50.9 86.3c0 0-4.3 7.9-5.6 8.3-1.4 0.4-85.2-54.7-85.2-54.7l-17.1 75.2-13.1 30.6-26.3-105.7-93 49.8 53.1-89.8-88.9-19.8-8.3-11 97.2-25.6c0 0-45.2-75.7-47.4-76.6z"/>
		<path id="Layer" class="s3" d="m284.1 324.4l-21.6 93.7q-3.3 0.1-6.6 0.1-3.3 0-6.6-0.1l-21.6-93.7-81.6 51c-3.2-3-6.3-6.1-9.3-9.4l50.9-81.5-93.6-21.6q-0.1-3.3-0.1-6.6 0-3.3 0.1-6.6l93.6-21.6-50.9-81.5c3-3.3 6.1-6.4 9.3-9.4l81.6 51 21.6-93.7q3.3-0.1 6.6-0.1 3.3 0 6.6 0.1l21.6 93.7 81.5-51c3.2 3 6.4 6.1 9.4 9.4l-51 81.5 93.7 21.6q0.1 3.3 0.1 6.6 0 3.3-0.1 6.6l-93.7 21.6 51 81.5c-3 3.3-6.2 6.4-9.4 9.4z"/>
		<path id="Layer" class="s3" d="m417.7 262.9l-93.7 21.6 51 81.7c-3 3.2-6.2 6.3-9.4 9.3l-81.5-50.9-21.6 93.6q-3.3 0.1-6.6 0.1v-323.9q3.3 0 6.6 0.1l21.6 93.7 81.5-51c3.2 3 6.4 6.1 9.4 9.4l-51 81.5 93.7 21.6q0.1 3.3 0.1 6.6 0 3.3-0.1 6.6z"/>
		<path id="Layer" fill-rule="evenodd" class="s4" d="m255.9 439.9c-101.5 0-183.6-82.1-183.6-183.6 0-101.5 82.1-183.6 183.6-183.6 101.5 0 183.5 82.1 183.5 183.6 0 101.5-82 183.6-183.5 183.6zm-106.9-290.5c-28.5 28.5-44.3 66.6-44.3 106.9 0 40.3 15.8 78.3 44.3 106.9 28.5 28.5 66.5 44.3 106.9 44.3 40.3 0 78.3-15.7 106.9-44.3 28.5-28.6 44.2-66.6 44.2-106.9 0-40.3-15.7-78.3-44.2-106.9-28.6-28.5-66.5-44.3-106.9-44.3-40.4 0-78.4 15.8-106.9 44.3z"/>
		<path id="Layer" class="s4" d="m439.4 256.3c0 101.4-82.1 183.6-183.5 183.6v-32.4c40.3 0 78.3-15.7 106.9-44.3 28.5-28.6 44.2-66.6 44.2-106.9 0-40.3-15.7-78.3-44.2-106.9-28.6-28.5-66.5-44.3-106.9-44.3v-32.4c101.4 0 183.5 82.2 183.5 183.6z"/>
		<path id="Layer" class="s5" d="m291.4 289.3c-7.5 6.4-17.3 10.2-27.9 10.2-23.8 0-43.2-19.4-43.2-43.2 0-23.8 19.4-43.2 43.2-43.2 10.6 0 20.4 3.8 27.9 10.2-15.8 2.7-27.9 16.4-27.9 33 0 16.6 12.1 30.3 27.9 33z"/>
		<path id="Layer" class="s3" d="m290.2 289.2c-7.5 6.4-17.3 10.2-27.9 10.2-23.8 0-43.2-19.4-43.2-43.2 0-23.8 19.4-43.2 43.2-43.2 10.6 0 20.4 3.8 27.9 10.2-15.8 2.7-27.9 16.4-27.9 33 0 16.6 12.1 30.3 27.9 33z"/>
	</g>
	<g id="Layer_6">
	</g>
	<g id="Layer_1">
		<ellipse id="Layer" class="s6" cx="258.5" cy="256.2" rx="27.9" ry="27.7"/>
		<g id="Layer">
			<g id="Layer">
				<ellipse id="Layer" class="s7" cx="258.3" cy="256.1" rx="27.9" ry="27.7"/>
			</g>
		</g>
		<ellipse id="Layer" class="s8" cx="258.1" cy="256.2" rx="14.6" ry="14.6"/>
		<circle id="Layer" class="s6" cx="257.5" cy="444.4" r="16.2"/>
		<g id="Layer">
			<g id="Layer">
				<circle id="Layer" class="s7" cx="257.6" cy="444.4" r="16.2"/>
			</g>
		</g>
		<circle id="Layer" class="s9" cx="295.4" cy="294.3" r="16.3"/>
		<g id="Layer">
			<g id="Layer">
				<circle id="Layer" class="s9" cx="295.4" cy="294.4" r="16.1"/>
			</g>
			<g id="Layer">
				<circle id="Layer" class="s6" cx="295.3" cy="294.4" r="16.1"/>
			</g>
		</g>
		<circle id="Layer" class="s10" cx="295.4" cy="294.3" r="6.2"/>
		<circle id="Layer" class="s9" cx="120.5" cy="118.5" r="17.9"/>
		<g id="Layer">
			<g id="Layer">
				<circle id="Layer" class="s9" cx="120.5" cy="118.3" r="17.8"/>
			</g>
			<g id="Layer">
				<circle id="Layer" class="s6" cx="120.7" cy="118.3" r="17.8"/>
			</g>
		</g>
		<path id="Layer" class="s7" d="m91.1 254.7c-0.5-0.7-0.5-1.6 0-2.3 0.5-0.7 1.2-1.4 1.8-2.1 1.7-1.8 3.1-3.1 4.7-4.9 2.3-2.5 4.2-2.5 6.5 0.1 1.5 1.7 3.2 3.1 4.7 4.7 2.4 2.5 2.3 3.8-0.1 6.5-1.3 1.5-2.8 2.9-4.2 4.5-2 2.2-4.7 2.9-7.4 0.1-1.5-1.8-2.8-2.9-4.4-4.6-0.3-0.5-1.2-1.5-1.6-2z"/>
		<path id="Layer" class="s11" d="m416 152.2c-0.4-0.6-0.4-1.2 0-1.6 0.3-0.6 0.8-1.1 1.2-1.5 1.2-1.3 2.2-2.2 3.3-3.5 1.7-1.8 3-1.8 4.7 0.1 1 1.2 2.2 2.2 3.3 3.3 1.6 1.7 1.6 2.7-0.1 4.6-1 1.1-2 2.1-3 3.2-1.4 1.6-3.3 2.1-5.2 0.1-1.1-1.3-1.9-2-3.1-3.2-0.3-0.5-0.9-1.2-1.1-1.5z"/>
		<path id="Layer" class="s7" d="m123.1 67.6c-0.3-0.5-0.3-1 0-1.4 0.3-0.4 0.7-0.8 1-1.2 1-1 1.8-1.7 2.7-2.8 1.4-1.5 2.5-1.5 3.8 0 0.9 1 1.9 1.8 2.7 2.8 1.4 1.4 1.3 2.2 0 3.7-0.8 0.9-1.7 1.8-2.5 2.7-1.2 1.2-2.7 1.6-4.2 0-0.9-1-1.6-1.6-2.6-2.6-0.2-0.4-0.7-1-0.9-1.2z"/>
		<path id="Layer" class="s10" d="m115.1 388.3c-0.5-0.7-0.5-1.6 0-2.3 0.5-0.7 1.2-1.4 1.8-2.1 1.7-1.7 3.1-3.1 4.7-4.9 2.3-2.5 4.2-2.5 6.5 0.1 1.5 1.7 3.2 3.1 4.7 4.7 2.4 2.5 2.2 3.8-0.1 6.5-1.4 1.5-2.9 2.9-4.2 4.5-2.1 2.2-4.7 2.9-7.4 0.1-1.5-1.8-2.8-2.8-4.4-4.6-0.3-0.4-1.2-1.4-1.6-2z"/>
		<path id="Layer" class="s10" d="m384.8 363.5c1.3 0 2.5 0 3.7 0 0.7 1.5 1.6 3 2.1 4.7 2.1 6.2 8 12.2 13.4 15 2.1 1.2 1.8 1.3 3.9 2.6 0 1.1 0 2.2 0 3.3-1.2 0.6-2.3 1.5-3.6 1.9-6.7 2.2-10.9 7.4-13.7 14.4-0.7 1.8-1.8 3.4-2.7 5.2-1 0-2.1 0-3 0-0.5-1.1-1.8-3.7-2.1-4.8-2.7-10-8.3-14.3-17.2-16.7 0-1.5 0-2.8 0-4.1 1.2-0.7 2.8-1.2 4.3-1.9 6.4-3 10.4-8.1 13-15 0.6-1.9 1.2-2.8 1.9-4.6z"/>
		<path id="Layer" class="s12" d="m91.8 304c-2.3 1.8-6.2 3.3-8.1 5.8-4.3 5.5-5.2 7.6-7.3 16.1-0.3 1.4-1.2 4.5-1.4 6-1.9 8.3-1.5 16.8-1.5 25.3 0 2 0.1 3.8 0 5.8 0 3-1.6 4.8-3.9 4.8-2.2 0-3.7-1.9-3.8-5 0-6.7 0.3-13.3 0-20-0.4-9.3-2.6-18.2-6.5-26.4-3.8-8-9.7-11.7-16.9-13.8-8.6-2.5-17.3-2.3-26-2.4-1.2 0-2.5-0.3-3.6-0.8-1.4-0.5-2-2-2-3.8 0-1.8 0.5-3.3 1.9-3.9 1-0.4 2-0.7 3.1-0.8 3.8-0.1 7.6-0.1 11.4 0 7.2 0.2 13.9-0.8 20.7-3.3 6.3-3.9 9.1-8 12-13.8 0.3-0.7 0.8-1.4 1.3-2.2 0.5 1.2 1 2.5 1.6 3.7 3.8 9.5 9.2 17.2 16.7 22.7 3.7 2.9 7.6 5.9 12.3 6z"/>
		<path id="Layer" class="s10" d="m45.9 288.3c3-1 4.9-3.2 7-5.3 5.2-5.2 7.4-12.7 9.5-20.2 2.3-9 1.9-18.3 1.9-27.6 0-2 0-3.8 0-5.8 0.1-3 1.6-4.8 3.9-4.8 2.3 0 3.7 1.9 3.8 5 0.1 6.6-0.2 13.3 0.1 20 0.3 9.3 2.6 18.2 6.4 26.4 3.8 8 9.7 11.7 16.9 13.8 8.7 2.5 17.3 2.3 26.1 2.4 1.2 0 2.4 0.3 3.6 0.7 1.3 0.6 1.9 2.1 1.9 3.9 0 1.7-0.5 3.2-1.9 3.8-1 0.5-2 0.8-3.1 0.9-3.8 0.1-7.5 0.1-11.4 0-7.2-0.2-14 1.9-20.8 4.3-5.4 2-8.2 6.7-11.1 12.4-0.9 2.5-1 2.8-1.2 3.9-0.5-1.2-1.8-3.9-2.3-5.2-3.8-9.5-9.3-17.2-16.7-22.6-4-3-7.9-5.9-12.6-6z"/>
		<path id="Layer" class="s13" d="m1080.5 232.8c0.3-0.2 0.6-0.5 1-0.7-0.4 0.2-0.8 0.4-1 0.7z"/>
		<path id="Layer" class="s14" d="m589.3 180.2c-0.2 0.1-0.4 0.2-0.6 0.4 0.2-0.1 0.4-0.3 0.6-0.4z"/>
		<path id="Layer" class="s14" d="m1086.9 359.8q-0.4 0.2-0.7 0.5 0.3-0.3 0.7-0.5z"/>
		<path id="Layer" class="s14" d=""/>
		<path id="Layer" class="s13" d="m952.1 554.4c0.2-0.2 0.5-0.4 0.8-0.6-0.3 0.2-0.5 0.4-0.8 0.6z"/>
		<path id="Layer" class="s15" d="m223.6 312.6c-0.2-0.4-0.4-0.7-0.6-1.2 0.2 0.5 0.4 0.8 0.6 1.2z"/>
		<path id="Layer" class="s6" d="m389.4 88.4c0.4 0.9 0.5 1.8 0.7 2.7 1.2 8.4 5.4 15.6 10.8 21.9 5.2 5.8 11.7 10.2 19.4 12.4 1.9 0.5 3.9 1 5.8 1.6-2.6 1.1-4 2-5.3 2.7-8.7 4.6-14.1 11.8-17.3 21-0.7 1.9-1.4 3.9-2.1 5.8-0.9 2.4-2.7 3.2-5.1 3.2-2.2 0-3.9-0.9-4.8-3.2-0.6-1.3-1.2-2.8-1.7-4.3-3.2-10.6-9.7-18.5-19.6-23.3-3.6-1.7-7.4-3.2-11-4.7-0.6-0.3-1.2-0.4-1.8-0.7-2-1-3.8-2.5-3.7-5 0.1-2.6 1.7-4.2 4-5.1 2.2-0.9 4.3-1.6 6.5-2.4 11-4.3 20.4-11.3 25.2-22.6z"/>
		<path id="Layer" class="s16" d="m403.9 148.5c-0.5-0.9-0.5-1.8-0.6-2.7-1.3-8.4-5.4-15.6-10.9-21.9-5.1-5.8-11.6-10.2-19.3-12.4-1.9-0.5-4-1-5.9-1.6 2.7-1.1 4.1-2 5.3-2.7 8.8-4.6 14.1-11.8 17.3-21 0.8-1.9 1.4-3.9 2.1-5.8 0.9-2.3 2.8-3.2 5.2-3.2 2.2 0 3.9 0.9 4.8 3.2 0.5 1.4 1.1 2.8 1.6 4.3 3.2 10.6 9.7 18.5 19.7 23.3 3.5 1.7 7.3 3.2 10.9 4.7 0.6 0.3 1.3 0.4 1.8 0.7 2 1.1 3.9 2.5 3.7 5 0 2.6-1.6 4.2-4 5.1-2.1 0.9-4.3 1.6-6.4 2.4-11.1 4.3-20.5 11.3-25.3 22.6z"/>
		<path id="Layer" class="s17" d="m34.2 237.1c0.2 0.4 0.2 0.8 0.2 1.2 0.4 4 2 7.3 3.9 10.2 1.9 2.8 4.2 4.8 7 5.8 0.7 0.3 1.4 0.5 2.1 0.8-1 0.5-1.5 1-1.9 1.3-3.1 2.1-5.1 5.5-6.2 9.7q-0.4 1.4-0.8 2.7c-0.4 1.2-1 1.5-1.9 1.5-0.7 0-1.4-0.4-1.7-1.5-0.2-0.6-0.4-1.3-0.6-2-1.2-5-3.5-8.6-7.1-10.9-1.2-0.7-2.6-1.5-3.9-2.2-0.3-0.1-0.4-0.1-0.7-0.3-0.7-0.4-1.4-1.1-1.3-2.2 0-1.2 0.6-2 1.4-2.4 0.8-0.4 1.6-0.7 2.4-1.2 4-2 7.4-5.3 9.1-10.5z"/>
		<path id="Layer" class="s11" d="m39.4 265.1c-0.1-0.4-0.1-0.9-0.2-1.3-0.4-3.9-2-7.3-3.9-10.2-1.8-2.7-4.2-4.8-7-5.8-0.7-0.2-1.4-0.5-2-0.8 0.9-0.5 1.4-0.9 1.9-1.3 3.1-2.1 5-5.5 6.2-9.7q0.3-1.3 0.7-2.7c0.4-1.1 1.1-1.5 1.9-1.5 0.8 0 1.4 0.4 1.7 1.5 0.2 0.7 0.4 1.3 0.6 2.1 1.2 4.9 3.5 8.5 7.1 10.8 1.3 0.8 2.7 1.5 4 2.2 0.2 0.1 0.4 0.2 0.6 0.3 0.7 0.5 1.4 1.2 1.3 2.3 0 1.2-0.6 2-1.4 2.4-0.8 0.4-1.5 0.7-2.3 1.1-4 2.1-7.4 5.3-9.2 10.6z"/>
		<path id="Layer" class="s10" d="m246.2 70.7c-0.5-0.7-0.5-1.6 0-2.3 0.5-0.7 1.2-1.4 1.8-2 1.7-1.8 3.1-3.1 4.7-4.9 2.3-2.6 4.2-2.6 6.5 0 1.5 1.7 3.2 3.1 4.7 4.7 2.4 2.5 2.2 3.9-0.1 6.5-1.4 1.5-2.8 3-4.2 4.5-2 2.2-4.7 2.9-7.4 0.1-1.5-1.8-2.8-2.8-4.4-4.6-0.3-0.4-1.2-1.4-1.6-2z"/>
		<path id="Layer" class="s6" d="m449.4 233.4c0.4 0.8 0.4 1.4 0.5 2.1 1 6.6 4.2 12.1 8.5 17 4 4.5 9 7.9 14.9 9.6 1.5 0.4 3.1 0.8 4.6 1.2-2.1 0.9-3.2 1.6-4.2 2.2-6.7 3.5-10.9 9.1-13.4 16.2q-0.8 2.3-1.6 4.5c-0.7 1.8-2.1 2.5-4 2.5-1.7 0-3-0.7-3.7-2.4-0.5-1.1-0.9-2.3-1.3-3.4-2.5-8.2-7.5-14.3-15.3-18.1-2.7-1.3-5.6-2.4-8.4-3.6-0.5-0.2-1-0.3-1.4-0.5-1.6-0.8-3-2-2.9-3.9 0.1-1.9 1.3-3.2 3.1-4 1.7-0.6 3.4-1.2 5-1.8 8.6-3.4 15.9-8.8 19.6-17.6z"/>
		<path id="Layer" class="s16" d="m460.6 280c-0.3-0.7-0.3-1.3-0.5-2-0.9-6.6-4.1-12.2-8.4-17-4-4.5-9-7.9-14.9-9.6-1.5-0.4-3.1-0.8-4.6-1.2 2-0.9 3.2-1.6 4.1-2.2 6.8-3.5 11-9.1 13.5-16.2q0.8-2.3 1.6-4.5c0.7-1.9 2.1-2.5 4-2.5 1.7 0 3 0.7 3.7 2.4 0.4 1.1 0.9 2.2 1.3 3.4 2.5 8.2 7.5 14.3 15.3 18.1 2.7 1.3 5.6 2.4 8.4 3.6 0.5 0.2 1 0.3 1.4 0.5 1.6 0.8 3 1.9 2.9 3.9-0.1 1.9-1.3 3.2-3.1 4-1.7 0.6-3.4 1.1-5 1.8-8.6 3.3-15.9 8.8-19.7 17.5z"/>
	</g>
	<g id="Layer_4">
		<path id="Layer" class="s10" d="m230.8 228.8l-1.1 1.1c-1.4 1.5-3.9 1.6-5.4 0.1l-84.5-85c-1.5-1.4-1.6-3.9-0.1-5.4l1.1-1.1c1.4-1.5 3.9-1.6 5.4-0.1l84.5 84.9c1.5 1.5 1.6 3.9 0.1 5.5z"/>
		<path id="Layer" class="s10" d="m287 229.3l-1.5-0.5c-1.9-0.8-2.9-3.1-2.1-5.1l82.2-81.4c0.8-2 3.1-3 5-2.2l1.5 0.6c1.9 0.8 2.9 3.1 2.1 5l-82.2 81.5c-0.8 2-3.1 3-5 2.1z"/>
		<path id="Layer" class="s10" d="m255.7 418.3l-1.5-0.5c-2-0.5-3.3-2.7-2.7-4.7l0.4-117c0.1-1.2 0.6-2.3 1.5-3 0.9-0.6 2.1-0.9 3.3-0.6l1.4 0.4c2 0.6 3.2 2.5 2.9 4.4q-0.1 0.4-0.1 0.7l-0.4 117.5c-0.6 2.1-2.7 3.3-4.8 2.8z"/>
		<path id="Layer" class="s10" d="m294.9 255.2l0.1-1.6c0.2-2.1 2.1-3.7 4.2-3.5l109.4 1.1c2.1 0.2 3.7 2.1 3.6 4.2l-0.2 1.6c-0.1 2-2 3.7-4.1 3.5l-109.5-1.2c-2.1-0.1-3.7-2-3.5-4.1z"/>
	</g>
</svg>