<svg xmlns="http://www.w3.org/2000/svg" viewBox="0 0 510 510" width="510" height="510">
	<defs>
		<radialGradient id="grd1" gradientUnits="userSpaceOnUse"  cx="255" cy="255" r="196.068">
			<stop offset="0" stop-color="#245cc1"  />
			<stop offset="0.22" stop-color="#245cc1"  />
			<stop offset="0.465" stop-color="#245cc1"  />
			<stop offset="0.722" stop-color="#245cc1"  />
			<stop offset="0.985" stop-color="#245cc1"  />
			<stop offset="1" stop-color="#245cc1"  />
		</radialGradient>
		<radialGradient id="grd2" gradientUnits="userSpaceOnUse"  cx="255" cy="255" r="184.673">
			<stop offset="0" stop-color="#1e66e8"  />
			<stop offset="0.175" stop-color="#1e66e8"  />
			<stop offset="0.434" stop-color="#1e66e8"  />
			<stop offset="0.743" stop-color="#1e66e8"  />
			<stop offset="1" stop-color="#1e66e8"  />
		</radialGradient>
		<radialGradient id="grd3" gradientUnits="userSpaceOnUse"  cx="255" cy="255" r="118.138">
			<stop offset="0" stop-color="#ffffff"  />
			<stop offset="0.21" stop-color="#fffffc" stop-opacity="0.79" />
			<stop offset="0.361" stop-color="#fffdf3" stop-opacity="0.64" />
			<stop offset="0.493" stop-color="#fffbe3" stop-opacity="0.51" />
			<stop offset="0.615" stop-color="#fff8cd" stop-opacity="0.39" />
			<stop offset="0.729" stop-color="#fff4b0" stop-opacity="0.27" />
			<stop offset="0.837" stop-color="#ffef8d" stop-opacity="0.16" />
			<stop offset="0.94" stop-color="#ffe964" stop-opacity="0.06" />
			<stop offset="1" stop-color="#ffe548" stop-opacity="0" />
		</radialGradient>
	</defs>
	<style>
		tspan { white-space:pre }
		.shp0 { fill: url(#grd1) } 
		.shp1 { fill: url(#grd2) } 
		.shp2 { fill: url(#grd3) } 
	</style>
	<path id="Layer" class="shp0" d="M157.81 27.77L159.69 55.18C162.89 101.69 121.86 139.01 75.86 131.44L21.57 122.52C4.77 119.76 -6.53 139.22 4.19 152.44L81.58 247.81C101.84 272.79 103.16 308.15 84.82 334.57L24.54 421.38C14.5 435.83 28.4 454.81 45.21 449.6L186.13 405.94C209.81 398.6 235.6 403.91 254.45 420.01L345.3 497.58C357.02 507.59 375.13 499.71 375.8 484.3L381.07 362.19C382.01 340.39 392.75 320.18 410.28 307.2L502.46 238.99C517.12 228.14 508.91 204.88 490.69 205.63C437.09 207.83 399.85 152.91 421.74 103.93L442.58 57.29C450.09 40.48 431.1 24.21 415.63 34.21L352.15 75.28C326.88 91.63 294.12 90.61 269.92 72.72L187.27 11.63C174.58 2.25 156.73 12.03 157.81 27.77L157.81 27.77Z" />
	<path id="Layer" class="shp1" d="M183.51 87.85L184.89 108.01C187.24 142.22 157.06 169.68 123.22 164.11L83.28 157.55C70.93 155.51 62.62 169.83 70.51 179.55L127.43 249.71C142.34 268.08 143.31 294.1 129.81 313.53L85.47 377.39C78.09 388.02 88.31 401.98 100.68 398.15L204.34 366.03C221.76 360.63 240.73 364.54 254.59 376.38L321.42 433.44C330.05 440.8 343.37 435.01 343.86 423.67L347.73 333.85C348.43 317.81 356.32 302.95 369.22 293.4L437.03 243.22C447.81 235.24 441.77 218.13 428.38 218.68C388.94 220.3 361.55 179.9 377.65 143.87L392.98 109.57C398.51 97.2 384.54 85.23 373.16 92.59L326.46 122.8C307.87 134.83 283.78 134.08 265.97 120.92L205.17 75.97C195.84 69.08 182.71 76.27 183.51 87.85L183.51 87.85Z" />
	<path id="Layer" class="shp2" d="M211.28 152.78L212.13 165.11C213.56 186.03 195.11 202.82 174.41 199.42L149.99 195.4C142.43 194.16 137.35 202.92 142.17 208.86L176.98 251.77C186.1 263 186.7 278.91 178.44 290.8L151.32 329.84C146.81 336.35 153.06 344.89 160.63 342.54L224.02 322.9C234.67 319.6 246.27 321.99 254.75 329.23L295.62 364.12C300.89 368.63 309.04 365.08 309.34 358.15L311.71 303.22C312.13 293.41 316.96 284.32 324.85 278.49L366.32 247.8C372.91 242.92 369.22 232.45 361.03 232.79C336.91 233.78 320.16 209.08 330.01 187.04L339.38 166.06C342.76 158.5 334.22 151.18 327.26 155.68L298.7 174.16C287.33 181.51 272.6 181.05 261.71 173L224.53 145.52C218.82 141.3 210.79 145.7 211.28 152.78L211.28 152.78Z" />
</svg>