<svg xmlns="http://www.w3.org/2000/svg" viewBox="0 0 512 512" width="512" height="512">
	<style>
		tspan { white-space:pre }
		.shp0 { fill: #b1b1b1 } 
		.shp1 { fill: #939393 } 
	</style>
	<path id="Layer" class="shp0" d="M216.06 509.32L413.54 169.27C418.01 161.57 411.67 152.1 402.85 153.3L271.49 171.15L302.88 6.37C303.93 0.82 296.77 -2.37 293.36 2.14L99.18 258.45C93.53 265.92 99.52 276.53 108.83 275.55L253.66 260.31L206.18 505.61C205.03 511.53 213.03 514.53 216.06 509.32Z" />
	<path id="Layer" class="shp1" d="M159.91 240.29C156.28 240.58 153.87 236.61 155.8 233.53L300.98 1.24C298.82 -0.47 295.42 -0.58 293.36 2.14L99.18 258.45C93.53 265.92 99.52 276.53 108.83 275.55L253.66 260.31L206.18 505.61C205.54 508.92 207.77 511.25 210.38 511.81L291.74 254.36C295.55 242.29 285.93 230.2 273.32 231.21L159.91 240.29Z" />
	<g id="Layer">
	</g>
	<g id="Layer">
	</g>
	<g id="Layer">
	</g>
	<g id="Layer">
	</g>
	<g id="Layer">
	</g>
	<g id="Layer">
	</g>
	<g id="Layer">
	</g>
	<g id="Layer">
	</g>
	<g id="Layer">
	</g>
	<g id="Layer">
	</g>
	<g id="Layer">
	</g>
	<g id="Layer">
	</g>
	<g id="Layer">
	</g>
	<g id="Layer">
	</g>
	<g id="Layer">
	</g>
</svg>