<svg id="Layer_1" data-name="Layer 1" xmlns="http://www.w3.org/2000/svg" xmlns:xlink="http://www.w3.org/1999/xlink" viewBox="0 0 2000 2000"><defs><style>.cls-1{fill:none;}.cls-2{fill:#aed76a;}.cls-3{clip-path:url(#clip-path);}.cls-4{fill:#fecfae;}.cls-5{fill:#4f2c2a;}.cls-6{fill:#934d3d;}.cls-7{clip-path:url(#clip-path-2);}.cls-8{fill:#70442c;}.cls-9{fill:#bf975d;}.cls-10{fill:#a57341;}.cls-11{clip-path:url(#clip-path-3);}.cls-12{clip-path:url(#clip-path-4);}.cls-13{fill:#4a1f19;}.cls-14{fill:#af8956;}.cls-15{fill:#afd86a;}.cls-16{fill:#9b8572;}.cls-17{fill:#e0d1b7;}.cls-18{fill:#1e1713;}.cls-19{fill:#877366;}.cls-20{fill:#d19857;}</style><clipPath id="clip-path"><path class="cls-1" d="M231,1116.57C266.12,1043.71,373.18,762,945,772c665,11.54,917,264,846.58,477.61-91.91,278.65-527.45,207.35-581.07,264.1s-687.37,314-920.65,16.63C93.57,1280.1,215,1149.79,231,1116.57Z"/></clipPath><clipPath id="clip-path-2"><path class="cls-1" d="M1051.8,965.61s209.37,189.14,234.12,232.88,29.25,42.38,53.56,39.94c8.83-.89,54.84-28.55,55.84-81.94,1.5-80-44.31-57.67-78.63-89-40.38-36.81-196.58-110.35-208.79-125s.1-27.6-35.67-34.45C1054.08,904.59,1019.6,928.88,1051.8,965.61Z"/></clipPath><clipPath id="clip-path-3"><path class="cls-1" d="M767.64,1114.65s362,192.75,399.07,245.19,43.83,50.43,80.28,45.68c13.25-1.73,98.53-27.91,83.78-105.47-18.56-97.56-95.71-46.78-141.45-90.08s-271.08-137.33-289.38-154.65-20.84-55.85-74.46-61.8C798.28,990.5,719.38,1071.43,767.64,1114.65Z"/></clipPath><clipPath id="clip-path-4"><path class="cls-1" d="M784.37,944.6s337.45,226.36,368.28,280.78,37.76,53.29,74.51,53c13.35-.1,91.66-16.52,100.76-79.58,13.64-94.55-73.06-57.9-120-98.61-55.21-47.88-269.19-178.12-285.38-196.79s-14.31-55.78-66.88-67.73C829,829.61,741.39,897.69,784.37,944.6Z"/></clipPath></defs><path class="cls-2" d="M231,1116.57C266.12,1043.71,373.18,762,945,772c665,11.54,917,264,846.58,477.61-91.91,278.65-527.45,207.35-581.07,264.1s-687.37,314-920.65,16.63C93.57,1280.1,215,1149.79,231,1116.57Z"/><g class="cls-3"><path class="cls-4" d="M457.06,1282.57s-64.78,33.51-72.58,105.27S538,1484.56,529.84,1564.1s-69.62,196.5-69.62,196.5l406.15,35.87s10.07-184.45-54.76-257c-88.19-98.62-227-90.88-288.46-136-69-50.73-10.67-86.5-10.67-86.5S537.43,1280.2,457.06,1282.57Z"/></g><path class="cls-5" d="M1163.33,475.71v535.7c0,6.63.24,14.63,6.26,17.42l18.75,5,69.14-29.17V425.58Z"/><path class="cls-6" d="M1181.31,477.91v558.16l75.91-17.68c12.47-3.94,21-7.76,21-20.84l-2.82-569.77Z"/><path class="cls-5" d="M1449.44,748.18v510.91c0,7.44,3,12.12,9.33,14.73l17.71,8.73,74.78-24.58V700.19Z"/><polygon class="cls-6" points="1476.48 748.18 1476.48 1282.55 1578.3 1254.1 1578.3 700.19 1476.48 748.18"/><path class="cls-5" d="M569.86,573.41v535.7c0,6.63.24,14.63,6.26,17.42l18.75,5L664,1102.39V523.28Z"/><path class="cls-6" d="M594.87,573.41v558.16l75.91-17.68c12.47-3.93,21.05-7.76,21.05-20.83L689,523.28Z"/><path class="cls-5" d="M1019.68,985.35s241.49,169.4,266.24,213.14,29.25,42.38,53.56,39.94c8.83-.89,65.71-18.77,55.84-81.94-12.41-79.45-63.85-41.41-94.37-78.1s-180.84-121.2-193-135.87-13.91-45.88-49.68-52.73C1040.07,886.31,987.48,948.62,1019.68,985.35Z"/><g class="cls-7"><path class="cls-8" d="M1035.86,917.78s-5.6,35.47,35.45,67c41.81,32.08,124,65.55,204,110.6,13.2,7.43,7.59,48.79,14.4,67.07,14.86,39.9,30,69.19,46.64,67.51,8.83-.89,77.76-10.84,56.57-103.84-17.83-78.22-63.85-41.41-94.37-78.1s-180.84-121.2-193-135.87-13.92-45.89-49.69-52.74C1037.72,855.92,1003.66,881.05,1035.86,917.78Z"/></g><path class="cls-9" d="M1348.16,1222.16c-17.47,2-23.21-7.65-25.16-20.72-2.17-14.5-5.61-29.47,4.25-45,16-25.11,39.76-31.5,49.5-23.58,17.71,14.41,13.22,53-15.26,81.14C1355.25,1220.17,1353.09,1221.61,1348.16,1222.16Z"/><path class="cls-10" d="M1358.53,1180c1.62,1.48-1.18,5.18-2.24,6.48a6.27,6.27,0,0,1-2.2,1.82,7.41,7.41,0,0,1-4.74-.59,7.87,7.87,0,0,1-4.12-6.33,13.33,13.33,0,0,1,1.62-7.44c4.1-10,20.05-28.38,28.44-12.34,3.85,7.08,1.84,15.9-1.5,22.6a56.17,56.17,0,0,1-8.45,12.46c-9.41,11-26.56,22.93-34.83,3.88-4.61-10.49-4.54-23.07.88-33.23,4.54-9,11.85-16.1,19.92-21.84a23.05,23.05,0,0,1,6.65-3.56c6.76-2.23,16.47.65,19.09,7.67-2-4.43-7.16-6.65-11.71-7.13-4.8-.45-9.28,1.51-12.85,4.61a75,75,0,0,0-10.45,9.84c-6.17,7-10.82,15.79-11.28,25.2A37.52,37.52,0,0,0,1334,1199c2.06,5,6.14,9,11.88,7.23,10-3.26,19.68-14.52,24.52-23.71,3.66-7,5.42-15.78.16-22.22-3.72-4.76-10.2-.1-13.64,3.07a44.21,44.21,0,0,0-8.47,11.36c-2.37,3.69-3,9.59,1.3,12.15a6.74,6.74,0,0,0,4.11.82,6.23,6.23,0,0,0,2.06-1.53c1.1-1.2,4.06-4.63,2.57-6.18Z"/><path class="cls-5" d="M767.64,1114.65s362,192.75,399.07,245.19,43.83,50.43,80.28,45.68c13.25-1.73,98.53-27.91,83.78-105.47-18.56-97.56-95.71-46.78-141.45-90.08s-271.08-137.33-289.38-154.65-20.84-55.85-74.46-61.8C798.28,990.5,719.38,1071.43,767.64,1114.65Z"/><g class="cls-11"><path class="cls-8" d="M766.87,1086.86s362,192.75,399.07,245.19,48.93,72.86,85.38,68.1c13.25-1.73,110.41-14.17,78.68-127.89-26.68-95.65-95.71-46.78-141.45-90.08s-271.07-137.33-289.37-154.65-20.84-55.85-74.46-61.8C797.51,962.71,718.62,1043.64,766.87,1086.86Z"/></g><path class="cls-9" d="M1256.24,1390.79a24,24,0,0,1-35.08-16.68c-3.24-17.82-4.65-44.94,10.14-64.86,24-32.24,57-46.27,71.63-37.14,26.54,16.6,19.79,64.79-22.92,101.61C1270.66,1381.78,1262.8,1387.21,1256.24,1390.79Z"/><path class="cls-10" d="M1284.4,1286.75c-20.3,9.5-38.38,26.44-44.66,48.34a68.61,68.61,0,0,0-2.52,20.76c-.35,22.5,22.06,10.42,32.82,3.2,5.73-4,11.47-8.14,16.08-13.35a75.91,75.91,0,0,0,7-10.43c3.61-6.3,14-25.92,10.94-32.43-1.17-1.34-3.28-.26-4.75.1a54.25,54.25,0,0,0-7.77,3.15c-15,7.6-28.18,20.44-33,36.88,4-16.92,17.11-30.55,32.18-38.57a55.47,55.47,0,0,1,8-3.47,10.93,10.93,0,0,1,4.65-.9c7.67,1.49,1.49,16.52-.19,21.1-3.86,9.34-8.43,18.48-14.72,26.45-4.82,5.49-10.71,9.87-16.68,14a79,79,0,0,1-15.37,8.17c-12.87,5-22,1-21.75-13.79a67.25,67.25,0,0,1,3-21.47c6.91-22.24,25.65-39.15,46.82-47.69Z"/><path class="cls-5" d="M785.42,933s336.75,234.06,367.4,290.51,37.59,55.25,74.34,54.82c13.36-.15,101.13-16.11,95.62-94.86-6.93-99.06-89.53-57.74-129.85-106.12S939.93,909,923.8,889.67s-14.12-57.92-66.66-70.15C830.48,813.31,742.6,884.38,785.42,933Z"/><g class="cls-12"><path class="cls-8" d="M785.16,908.39s337.45,226.36,368.28,280.78,40.88,84.91,77.63,84.62c13.35-.1,110.65-10.25,92.15-122.56-15.57-94.47-89.71-55.86-130.18-102.55S939.54,885.86,923.35,867.19,909,811.41,856.47,799.46C829.79,793.4,742.18,861.48,785.16,908.39Z"/></g><path class="cls-9" d="M1232,1266.34c-26.44.55-26.26-17.22-27.27-33.5-1.11-18.07-.85-38.62,16.18-56.66,27.58-29.2,64.15-34.53,77.57-23.75,24.4,19.61,12,66.67-34.73,98.2C1253.46,1257.53,1239.42,1266.19,1232,1266.34Z"/><path class="cls-10" d="M1278.3,1164.79c-19.69,6.28-43.38,16.88-53.76,35.62a31.64,31.64,0,0,0-3.71,15.31c.43,9.52,3.84,22.64,14.8,24.27,10.63,1.19,20.72-5.08,29.32-10.76,11.06-7.74,28.35-23.3,24.13-38.16a17.36,17.36,0,0,0-3.78-6.53,7,7,0,0,0-6.49-1.73c-14,3.44-27.13,22-32.88,34.75a74.41,74.41,0,0,1,3.25-7.71,80.63,80.63,0,0,1,14.59-20.51c7-7.07,19.56-15.29,26.4-3.35,10.59,17.53-9.57,37.12-22.94,46.49-10.82,7.42-28.52,17.28-40.63,7.49-4.69-4-6.76-9.85-8.13-15.58A35.15,35.15,0,0,1,1222,1199c10.88-18.92,36-29.3,56.32-34.24Z"/><path class="cls-6" d="M1267.87,308.63s-543,152.55-807.65,119.74L526.4,628s569.13-13.86,773.26-98.25l-32.86-130Z"/><path class="cls-13" d="M483.51,448.28l-23.29-20S846,457.23,1257.48,289.76l10.39,18.87S960.93,516,724.44,490.23,483.51,448.28,483.51,448.28Z"/><path class="cls-5" d="M844.91,849.46v533.65c0,7.77,3.38,12.66,10.66,15.39l20.26,9.12L961.34,1382V799.33Z"/><polygon class="cls-6" points="875.83 849.46 875.83 1407.62 992.27 1377.9 992.27 799.33 875.83 849.46"/><polygon class="cls-6" points="811.61 752.84 817.62 778.35 902.11 881.45 936.48 915.4 914.64 798.16 811.61 752.84"/><path class="cls-14" d="M1282.92,411.85s-322.49,127.4-458.42,98.9c0,0,18.29,33.38,244.86-1.67C1148.73,496.8,1282.92,411.85,1282.92,411.85Z"/><path class="cls-15" d="M1503.79,1279.61c11.56-56.33-16.92-61.69-17.84-75.35,0,0,57.66,23.25,55,59.9l12-27.84s-28.59-37.49-8.15-77.92c0,0,13.22,55,34.28,71.4,0,0-1.13-36.17,21.72-48.69,0,0-2.72,65.9,7.34,75.38S1498.36,1306.26,1503.79,1279.61Z"/><path class="cls-15" d="M931.45,1414.31s-32.37-88.24-19.4-102.58c0,0,33.78,73.07,46.5,76s9.63-59.6,9.63-59.6,30,35.65,21.2,58.6S931.45,1414.31,931.45,1414.31Z"/><path class="cls-9" d="M1267.87,308.63S735.91,517.75,479,444.39L758.42,731.92s787.2-114.82,849.87-178.09l1.23-8.29Z"/><path class="cls-13" d="M740.4,710l-21.55-34s553.29.5,890.67-130.4L1645,560S1219.56,763.63,983.07,737.87,740.4,710,740.4,710Z"/><polygon class="cls-10" points="478.97 444.39 495.66 483.5 742.59 763.63 718.83 676.41 478.97 444.39"/><path class="cls-6" d="M1645,560S1190.44,724.17,743.74,701.76L798,899.45s596.77-32.65,823.61-168.62Z"/><polygon class="cls-5" points="718.85 675.94 771.53 871.52 797.96 899.45 743.74 701.76 718.85 675.94"/><polygon class="cls-13" points="1294.88 634.21 1298.97 690.71 1316.13 635.33 1294.88 634.21"/><polygon class="cls-13" points="1052.49 664.9 1083.22 725.14 1092.72 674.75 1052.49 664.9"/><polygon class="cls-13" points="1341.84 625.55 1357.23 700.21 1393.99 618.98 1341.84 625.55"/><path class="cls-14" d="M1103.5,369.45s-258,231.69-395.33,252.29c0,0,28.77,24.92,229-86.8C1007.27,495.8,1103.5,369.45,1103.5,369.45Z"/><path class="cls-14" d="M1153.89,394.29S1019.36,593.07,930.55,629.88c0,0,23.49,11.93,139.28-96.6C1110.39,495.25,1153.89,394.29,1153.89,394.29Z"/><path class="cls-14" d="M1226.92,343.15s-34.76,145.22-78.4,186.12c0,0,16.29,1.79,59.92-86.77C1223.72,411.47,1226.92,343.15,1226.92,343.15Z"/><polygon class="cls-13" points="394.11 1094.81 432.53 1073.47 430.09 1048.79 394.11 1094.81"/><polygon class="cls-16" points="594.01 1133.05 477.63 973.09 410.46 1048.79 403.96 1257.42 463.15 1285.91 548.11 1261.28 513.8 1312.45 583.91 1354.11 594.01 1133.05"/><polygon class="cls-17" points="584.25 1354.11 782.77 1257.09 782.77 1074.7 584.25 1153.54 584.25 1354.11"/><polygon class="cls-13" points="457.06 1277.75 460.14 1177.52 520.1 1197.85 523.15 1280.17 457.06 1277.75"/><polygon class="cls-18" points="430.31 1268.04 550.59 1335.76 535.11 1256.47 430.31 1268.04"/><path class="cls-5" d="M702.87,876l-5.8,39c-4.49,22.19,86,169.55,86,169.55l17.88-2"/><path class="cls-9" d="M779,1068.15a813.46,813.46,0,0,1-77.55-182.49s-67.67,36.59-173.77,49.39l85,229.82,10.47,2.81c10.8-5.45,23.74-6.11,34.25-12.09,43.23-24.62,83.71-51.4,130.07-71.52Z"/><path class="cls-6" d="M625.57,1173.71l31.77-18.12S547.17,980.17,527.66,927.73l-38,5.49s64.27,153.57,76.45,172.57C603.14,1163.6,625.57,1173.71,625.57,1173.71Z"/><polygon class="cls-6" points="448.09 1283.84 457.06 1282.57 460.14 1177.52 450.44 1170.92 448.09 1283.84"/><polyline class="cls-6" points="537.75 1338.41 547.87 1334.66 553.29 1164.42 447.46 1127.13 430.31 1129.74 512.58 1173.71 536.14 1335.07"/><path class="cls-19" d="M409.05,1094.08s69.53-61.07,77.58-73.88c0,0,84.12,150.62,97.62,165.25l10.83,2.89-86.83-211-97.79,71.5Z"/><path class="cls-20" d="M428.19,1274.28s2.82,12.41,19.9,9.56l2.44-104.24L513.8,1208v121.55s2.81,17.18,24,9l3.76-164.7-111.2-44Z"/><path class="cls-5" d="M595.08,1188.34,487.15,1003,514,973.09s87.81,182.32,111.59,200.62Z"/><path class="cls-5" d="M377.65,1047.25l16.46,47.56S486.28,1012.34,514,973.09l-24.36-39.87S452.65,1001.52,377.65,1047.25Z"/><path class="cls-6" d="M702.87,876l34.28-6.35s71,170.09,101.68,195.29l-37.92,17.61S713.09,929.78,702.87,876Z"/><path class="cls-15" d="M509.23,1335.38c18.64-21.25,7.78-30.47,10.71-36.52,0,0,19,24,8.93,39l11.91-9s-3.09-23,15.47-35.26c0,0-7.72,26.7-2.73,38.83,0,0,8.32-15.72,21.13-15.52,0,0-17.2,27.49-15.2,34S500.43,1345.44,509.23,1335.38Z"/><path class="cls-14" d="M570.79,977.85s89.45-25.19,115.53-44.63c0,0-22.4,33.88-41.61,33.88S570.79,977.85,570.79,977.85Z"/><path class="cls-14" d="M608.83,1026.67s77.58-19.58,88-45.44C696.84,981.23,632.56,1023.65,608.83,1026.67Z"/><polygon class="cls-5" points="529.84 1018.27 549.07 1020.87 532.96 1025.85 529.84 1018.27"/><polygon class="cls-5" points="556.36 1065.22 584.25 1064.53 558.95 1076.66 556.36 1065.22"/><polygon class="cls-5" points="553.29 1057.08 565.19 1053.1 553.29 1061.76 553.29 1057.08"/><polygon class="cls-5" points="591.18 1139.91 608.83 1123.44 597.94 1149.79 591.18 1139.91"/><polygon class="cls-5" points="753.01 1003.95 769.8 995.79 760.21 1018.27 753.01 1003.95"/><polygon class="cls-5" points="743.74 983.07 754.43 980.28 742.59 992.27 743.74 983.07"/><path class="cls-15" d="M753.93,1280.17s-23.65-27-11.84-59.69c0,0,21.31,43.67,28.26,43.67l-7.08-41.59s26.08,27.76,20,40.38C778,1273.73,753.93,1280.17,753.93,1280.17Z"/><path class="cls-15" d="M380.24,1262.76s-.87-31.63,25.61-47.2c0,0-10.15,41.66-5.43,45.58l18.64-32.23s3.57,29.46-6.05,33.86S380.24,1262.76,380.24,1262.76Z"/></svg>