<svg version="1.2" xmlns="http://www.w3.org/2000/svg" viewBox="0 0 64 64" width="64" height="64">
	<title>worship-svg</title>
	<style>
		.s0 { fill: #ea5b5a } 
		.s1 { fill: #e04b4b } 
		.s2 { fill: #d69787 } 
		.s3 { fill: #e8b1a6 } 
		.s4 { fill: #c98477 } 
		.s5 { fill: #f8c460 } 
		.s6 { fill: #eaac47 } 
	</style>
	<g id="Layer_31">
		<path id="Layer" class="s0" d="m1 43h14v20h-14z"/>
		<path id="Layer" class="s1" d="m4.6 55.1q0.6 1.4 1.7 2.6 1.2 1.1 2.6 1.7 1.5 0.6 3.1 0.6h3v3h-14v-20h3v9q0 1.6 0.6 3.1z"/>
		<path id="Layer" class="s2" d="m49 43l-8-8h14l8 8z"/>
		<path id="Layer" class="s3" d="m63 43h-3l-8-8h3z"/>
		<path id="Layer" class="s2" d="m1 43l8-8h14l-8 8z"/>
		<path id="Layer" class="s4" d="m13 35l-8 8h-4l8-8z"/>
		<path id="Layer" class="s0" d="m49 43v20h-34v-20l8-8v-18h18v18z"/>
		<path id="Layer" class="s1" d="m27 34.6q-0.1 0.2-0.2 0.3 0 0.2-0.1 0.4-0.1 0.1-0.3 0.3l-7.4 7.4v20h-4v-20l8-8v-18h4v17.2q0 0.2 0 0.4z"/>
		<path id="Layer" class="s2" d="m32 0l12.8 17h-25.6z"/>
		<path id="Layer" class="s4" d="m34 2.6l-10.8 14.4h-4l12.8-17z"/>
		<path id="Layer" class="s0" d="m49 43h14v20h-14z"/>
		<path id="Layer" class="s1" d="m52.6 55.1q0.6 1.4 1.7 2.6 1.2 1.1 2.6 1.7 1.5 0.6 3.1 0.6h3v3h-14v-20h3v9q0 1.6 0.6 3.1z"/>
		<path id="Layer" class="s0" d="m15 43h34v20h-34z"/>
		<path id="Layer" class="s1" d="m19.2 50.1c0.8 2 2 3.7 3.5 5.2 1.5 1.5 3.2 2.7 5.2 3.5 1.9 0.8 4 1.2 6.1 1.2h15v3h-34v-20h3v1c0 2.1 0.4 4.2 1.2 6.1z"/>
		<path id="Layer" class="s5" d="m32 49q1.4 0 2.7 0.5 1.3 0.6 2.2 1.6 1 0.9 1.6 2.2 0.5 1.3 0.5 2.7v7h-14v-7q0-1.4 0.5-2.7 0.6-1.3 1.6-2.2 0.9-1 2.2-1.6 1.3-0.5 2.7-0.5z"/>
		<path id="Layer" class="s6" d="m39 60v3h-14v-5.8q1 0.7 2.1 1.2 1 0.5 2.2 0.9 1.1 0.3 2.3 0.5 1.2 0.2 2.4 0.2z"/>
		<g id="Layer">
			<path id="Layer" class="s5" d="m8 49q0.6 0 1.1 0.2 0.6 0.3 1 0.7 0.4 0.4 0.7 1 0.2 0.5 0.2 1.1v3h-6v-3q0-0.6 0.2-1.1 0.3-0.6 0.7-1 0.4-0.4 1-0.7 0.5-0.2 1.1-0.2z"/>
			<path id="Layer" class="s5" d="m56 49q0.6 0 1.1 0.2 0.6 0.3 1 0.7 0.4 0.4 0.7 1 0.2 0.5 0.2 1.1v3h-6v-3q0-0.6 0.2-1.1 0.3-0.6 0.7-1 0.4-0.4 1-0.7 0.5-0.2 1.1-0.2z"/>
			<path id="Layer" class="s5" d="m32 31q0.6 0 1.1 0.2 0.6 0.3 1 0.7 0.4 0.4 0.7 1 0.2 0.5 0.2 1.1v3h-6v-3q0-0.6 0.2-1.1 0.3-0.6 0.7-1 0.4-0.4 1-0.7 0.5-0.2 1.1-0.2z"/>
		</g>
		<path id="Layer" class="s2" d="m23 21h18v4h-18z"/>
		<path id="Layer" class="s4" d="m23 21h4v4h-4z"/>
	</g>
</svg>